<?xml version="1.0" encoding="utf-8" standalone="no"?>
<!DOCTYPE svg PUBLIC "-//W3C//DTD SVG 1.1//EN"
  "http://www.w3.org/Graphics/SVG/1.1/DTD/svg11.dtd">
<svg xmlns:xlink="http://www.w3.org/1999/xlink" width="984.45625pt" height="680.422917pt" viewBox="0 0 984.45625 680.422917" xmlns="http://www.w3.org/2000/svg" version="1.1">
 <metadata>
  <rdf:RDF xmlns:dc="http://purl.org/dc/elements/1.1/" xmlns:cc="http://creativecommons.org/ns#" xmlns:rdf="http://www.w3.org/1999/02/22-rdf-syntax-ns#">
   <cc:Work>
    <dc:type rdf:resource="http://purl.org/dc/dcmitype/StillImage"/>
    <dc:date>2025-02-07T10:51:54.956015</dc:date>
    <dc:format>image/svg+xml</dc:format>
    <dc:creator>
     <cc:Agent>
      <dc:title>Matplotlib v3.6.3, https://matplotlib.org/</dc:title>
     </cc:Agent>
    </dc:creator>
   </cc:Work>
  </rdf:RDF>
 </metadata>
 <defs>
  <style type="text/css">*{stroke-linejoin: round; stroke-linecap: butt}</style>
 </defs>
 <g id="figure_1">
  <g id="patch_1">
   <path d="M 0 680.422917 
L 984.45625 680.422917 
L 984.45625 0 
L 0 0 
z
" style="fill: #ffffff"/>
  </g>
  <g id="axes_1">
   <g id="patch_2">
    <path d="M 43.78125 642.866667 
L 817.231964 642.866667 
L 817.231964 151.965714 
L 43.78125 151.965714 
z
" style="fill: #ffffff"/>
   </g>
   <g id="PathCollection_1">
    <defs>
     <path id="meb2f9e09af" d="M 0 3 
C 0.795609 3 1.55874 2.683901 2.12132 2.12132 
C 2.683901 1.55874 3 0.795609 3 0 
C 3 -0.795609 2.683901 -1.55874 2.12132 -2.12132 
C 1.55874 -2.683901 0.795609 -3 0 -3 
C -0.795609 -3 -1.55874 -2.683901 -2.12132 -2.12132 
C -2.683901 -1.55874 -3 -0.795609 -3 0 
C -3 0.795609 -2.683901 1.55874 -2.12132 2.12132 
C -1.55874 2.683901 -0.795609 3 0 3 
z
" style="stroke: #000000; stroke-opacity: 0.5"/>
    </defs>
    <g clip-path="url(#pa53edb4c25)">
     <use xlink:href="#meb2f9e09af" x="247.712661" y="470.647633" style="fill: #4169e1; fill-opacity: 0.5; stroke: #000000; stroke-opacity: 0.5"/>
     <use xlink:href="#meb2f9e09af" x="467.131046" y="293.338773" style="fill: #4169e1; fill-opacity: 0.5; stroke: #000000; stroke-opacity: 0.5"/>
     <use xlink:href="#meb2f9e09af" x="438.029454" y="302.300231" style="fill: #4169e1; fill-opacity: 0.5; stroke: #000000; stroke-opacity: 0.5"/>
     <use xlink:href="#meb2f9e09af" x="157.380596" y="442.483048" style="fill: #4169e1; fill-opacity: 0.5; stroke: #000000; stroke-opacity: 0.5"/>
     <use xlink:href="#meb2f9e09af" x="709.075323" y="326.62419" style="fill: #4169e1; fill-opacity: 0.5; stroke: #000000; stroke-opacity: 0.5"/>
     <use xlink:href="#meb2f9e09af" x="315.201999" y="430.321069" style="fill: #4169e1; fill-opacity: 0.5; stroke: #000000; stroke-opacity: 0.5"/>
     <use xlink:href="#meb2f9e09af" x="165.737569" y="441.20284" style="fill: #4169e1; fill-opacity: 0.5; stroke: #000000; stroke-opacity: 0.5"/>
     <use xlink:href="#meb2f9e09af" x="373.648641" y="359.909608" style="fill: #4169e1; fill-opacity: 0.5; stroke: #000000; stroke-opacity: 0.5"/>
     <use xlink:href="#meb2f9e09af" x="656.616993" y="213.965854" style="fill: #4169e1; fill-opacity: 0.5; stroke: #000000; stroke-opacity: 0.5"/>
     <use xlink:href="#meb2f9e09af" x="241.103921" y="591.569658" style="fill: #4169e1; fill-opacity: 0.5; stroke: #000000; stroke-opacity: 0.5"/>
     <use xlink:href="#meb2f9e09af" x="210.036539" y="457.096854" style="fill: #4169e1; fill-opacity: 0.5; stroke: #000000; stroke-opacity: 0.5"/>
     <use xlink:href="#meb2f9e09af" x="759.589912" y="306.140856" style="fill: #4169e1; fill-opacity: 0.5; stroke: #000000; stroke-opacity: 0.5"/>
     <use xlink:href="#meb2f9e09af" x="438.442884" y="402.515328" style="fill: #4169e1; fill-opacity: 0.5; stroke: #000000; stroke-opacity: 0.5"/>
     <use xlink:href="#meb2f9e09af" x="112.007054" y="526.976801" style="fill: #4169e1; fill-opacity: 0.5; stroke: #000000; stroke-opacity: 0.5"/>
     <use xlink:href="#meb2f9e09af" x="98.601795" y="528.897114" style="fill: #4169e1; fill-opacity: 0.5; stroke: #000000; stroke-opacity: 0.5"/>
     <use xlink:href="#meb2f9e09af" x="585.729881" y="276.05596" style="fill: #4169e1; fill-opacity: 0.5; stroke: #000000; stroke-opacity: 0.5"/>
     <use xlink:href="#meb2f9e09af" x="198.400056" y="444.403361" style="fill: #4169e1; fill-opacity: 0.5; stroke: #000000; stroke-opacity: 0.5"/>
     <use xlink:href="#meb2f9e09af" x="407.457011" y="341.346587" style="fill: #4169e1; fill-opacity: 0.5; stroke: #000000; stroke-opacity: 0.5"/>
     <use xlink:href="#meb2f9e09af" x="718.535961" y="341.346587" style="fill: #4169e1; fill-opacity: 0.5; stroke: #000000; stroke-opacity: 0.5"/>
     <use xlink:href="#meb2f9e09af" x="86.805134" y="591.627324" style="fill: #4169e1; fill-opacity: 0.5; stroke: #000000; stroke-opacity: 0.5"/>
     <use xlink:href="#meb2f9e09af" x="397.36704" y="299.739815" style="fill: #4169e1; fill-opacity: 0.5; stroke: #000000; stroke-opacity: 0.5"/>
     <use xlink:href="#meb2f9e09af" x="354.856032" y="274.775751" style="fill: #4169e1; fill-opacity: 0.5; stroke: #000000; stroke-opacity: 0.5"/>
     <use xlink:href="#meb2f9e09af" x="561.129669" y="340.706483" style="fill: #4169e1; fill-opacity: 0.5; stroke: #000000; stroke-opacity: 0.5"/>
     <use xlink:href="#meb2f9e09af" x="156.21115" y="501.372634" style="fill: #4169e1; fill-opacity: 0.5; stroke: #000000; stroke-opacity: 0.5"/>
     <use xlink:href="#meb2f9e09af" x="648.853599" y="174.279394" style="fill: #4169e1; fill-opacity: 0.5; stroke: #000000; stroke-opacity: 0.5"/>
     <use xlink:href="#meb2f9e09af" x="448.771359" y="330.464816" style="fill: #4169e1; fill-opacity: 0.5; stroke: #000000; stroke-opacity: 0.5"/>
     <use xlink:href="#meb2f9e09af" x="635.825709" y="341.346587" style="fill: #4169e1; fill-opacity: 0.5; stroke: #000000; stroke-opacity: 0.5"/>
     <use xlink:href="#meb2f9e09af" x="502.975664" y="356.589828" style="fill: #4169e1; fill-opacity: 0.5; stroke: #000000; stroke-opacity: 0.5"/>
     <use xlink:href="#meb2f9e09af" x="285.621062" y="402.156485" style="fill: #4169e1; fill-opacity: 0.5; stroke: #000000; stroke-opacity: 0.5"/>
     <use xlink:href="#meb2f9e09af" x="533.314211" y="285.017418" style="fill: #4169e1; fill-opacity: 0.5; stroke: #000000; stroke-opacity: 0.5"/>
     <use xlink:href="#meb2f9e09af" x="462.517505" y="353.853794" style="fill: #4169e1; fill-opacity: 0.5; stroke: #000000; stroke-opacity: 0.5"/>
     <use xlink:href="#meb2f9e09af" x="684.279207" y="368.871067" style="fill: #4169e1; fill-opacity: 0.5; stroke: #000000; stroke-opacity: 0.5"/>
     <use xlink:href="#meb2f9e09af" x="480.911589" y="322.783565" style="fill: #4169e1; fill-opacity: 0.5; stroke: #000000; stroke-opacity: 0.5"/>
     <use xlink:href="#meb2f9e09af" x="278.174558" y="466.166903" style="fill: #4169e1; fill-opacity: 0.5; stroke: #000000; stroke-opacity: 0.5"/>
     <use xlink:href="#meb2f9e09af" x="586.90742" y="337.505962" style="fill: #4169e1; fill-opacity: 0.5; stroke: #000000; stroke-opacity: 0.5"/>
     <use xlink:href="#meb2f9e09af" x="400.087098" y="332.385128" style="fill: #4169e1; fill-opacity: 0.5; stroke: #000000; stroke-opacity: 0.5"/>
     <use xlink:href="#meb2f9e09af" x="213.983888" y="475.128362" style="fill: #4169e1; fill-opacity: 0.5; stroke: #000000; stroke-opacity: 0.5"/>
     <use xlink:href="#meb2f9e09af" x="688.156468" y="336.865857" style="fill: #4169e1; fill-opacity: 0.5; stroke: #000000; stroke-opacity: 0.5"/>
     <use xlink:href="#meb2f9e09af" x="537.883543" y="242.770542" style="fill: #4169e1; fill-opacity: 0.5; stroke: #000000; stroke-opacity: 0.5"/>
     <use xlink:href="#meb2f9e09af" x="588.110677" y="429.606836" style="fill: #4169e1; fill-opacity: 0.5; stroke: #000000; stroke-opacity: 0.5"/>
     <use xlink:href="#meb2f9e09af" x="607.466334" y="370.791379" style="fill: #4169e1; fill-opacity: 0.5; stroke: #000000; stroke-opacity: 0.5"/>
     <use xlink:href="#meb2f9e09af" x="404.714769" y="399.596068" style="fill: #4169e1; fill-opacity: 0.5; stroke: #000000; stroke-opacity: 0.5"/>
     <use xlink:href="#meb2f9e09af" x="572.725671" y="228.048146" style="fill: #4169e1; fill-opacity: 0.5; stroke: #000000; stroke-opacity: 0.5"/>
     <use xlink:href="#meb2f9e09af" x="115.444774" y="457.205445" style="fill: #4169e1; fill-opacity: 0.5; stroke: #000000; stroke-opacity: 0.5"/>
     <use xlink:href="#meb2f9e09af" x="138.80385" y="416.878881" style="fill: #4169e1; fill-opacity: 0.5; stroke: #000000; stroke-opacity: 0.5"/>
     <use xlink:href="#meb2f9e09af" x="530.176144" y="385.513776" style="fill: #4169e1; fill-opacity: 0.5; stroke: #000000; stroke-opacity: 0.5"/>
     <use xlink:href="#meb2f9e09af" x="331.111607" y="309.817513" style="fill: #4169e1; fill-opacity: 0.5; stroke: #000000; stroke-opacity: 0.5"/>
     <use xlink:href="#meb2f9e09af" x="332.813608" y="413.67836" style="fill: #4169e1; fill-opacity: 0.5; stroke: #000000; stroke-opacity: 0.5"/>
     <use xlink:href="#meb2f9e09af" x="763.986436" y="326.62419" style="fill: #4169e1; fill-opacity: 0.5; stroke: #000000; stroke-opacity: 0.5"/>
     <use xlink:href="#meb2f9e09af" x="490.461637" y="288.858043" style="fill: #4169e1; fill-opacity: 0.5; stroke: #000000; stroke-opacity: 0.5"/>
     <use xlink:href="#meb2f9e09af" x="715.975962" y="316.382523" style="fill: #4169e1; fill-opacity: 0.5; stroke: #000000; stroke-opacity: 0.5"/>
     <use xlink:href="#meb2f9e09af" x="179.45297" y="405.99711" style="fill: #4169e1; fill-opacity: 0.5; stroke: #000000; stroke-opacity: 0.5"/>
     <use xlink:href="#meb2f9e09af" x="99.544987" y="507.133571" style="fill: #4169e1; fill-opacity: 0.5; stroke: #000000; stroke-opacity: 0.5"/>
     <use xlink:href="#meb2f9e09af" x="274.405508" y="493.051279" style="fill: #4169e1; fill-opacity: 0.5; stroke: #000000; stroke-opacity: 0.5"/>
     <use xlink:href="#meb2f9e09af" x="340.979578" y="480.249195" style="fill: #4169e1; fill-opacity: 0.5; stroke: #000000; stroke-opacity: 0.5"/>
     <use xlink:href="#meb2f9e09af" x="392.28398" y="365.670546" style="fill: #4169e1; fill-opacity: 0.5; stroke: #000000; stroke-opacity: 0.5"/>
     <use xlink:href="#meb2f9e09af" x="78.938101" y="515.454926" style="fill: #4169e1; fill-opacity: 0.5; stroke: #000000; stroke-opacity: 0.5"/>
     <use xlink:href="#meb2f9e09af" x="600.803152" y="507.69632" style="fill: #4169e1; fill-opacity: 0.5; stroke: #000000; stroke-opacity: 0.5"/>
     <use xlink:href="#meb2f9e09af" x="393.680883" y="390.634609" style="fill: #4169e1; fill-opacity: 0.5; stroke: #000000; stroke-opacity: 0.5"/>
     <use xlink:href="#meb2f9e09af" x="662.112478" y="233.809083" style="fill: #4169e1; fill-opacity: 0.5; stroke: #000000; stroke-opacity: 0.5"/>
     <use xlink:href="#meb2f9e09af" x="545.798792" y="381.033046" style="fill: #4169e1; fill-opacity: 0.5; stroke: #000000; stroke-opacity: 0.5"/>
     <use xlink:href="#meb2f9e09af" x="565.270072" y="510.086034" style="fill: #4169e1; fill-opacity: 0.5; stroke: #000000; stroke-opacity: 0.5"/>
     <use xlink:href="#meb2f9e09af" x="782.075114" y="292.698669" style="fill: #4169e1; fill-opacity: 0.5; stroke: #000000; stroke-opacity: 0.5"/>
     <use xlink:href="#meb2f9e09af" x="571.961939" y="303.58044" style="fill: #4169e1; fill-opacity: 0.5; stroke: #000000; stroke-opacity: 0.5"/>
     <use xlink:href="#meb2f9e09af" x="418.082615" y="257.492938" style="fill: #4169e1; fill-opacity: 0.5; stroke: #000000; stroke-opacity: 0.5"/>
     <use xlink:href="#meb2f9e09af" x="566.221231" y="517.475062" style="fill: #4169e1; fill-opacity: 0.5; stroke: #000000; stroke-opacity: 0.5"/>
     <use xlink:href="#meb2f9e09af" x="232.321409" y="612.518121" style="fill: #4169e1; fill-opacity: 0.5; stroke: #000000; stroke-opacity: 0.5"/>
    </g>
   </g>
   <g id="PathCollection_2">
    <defs>
     <path id="mc50cb5676d" d="M 0 3 
C 0.795609 3 1.55874 2.683901 2.12132 2.12132 
C 2.683901 1.55874 3 0.795609 3 0 
C 3 -0.795609 2.683901 -1.55874 2.12132 -2.12132 
C 1.55874 -2.683901 0.795609 -3 0 -3 
C -0.795609 -3 -1.55874 -2.683901 -2.12132 -2.12132 
C -2.683901 -1.55874 -3 -0.795609 -3 0 
C -3 0.795609 -2.683901 1.55874 -2.12132 2.12132 
C -1.55874 2.683901 -0.795609 3 0 3 
z
" style="stroke: #000000; stroke-opacity: 0.5"/>
    </defs>
    <g clip-path="url(#pa53edb4c25)">
     <use xlink:href="#mc50cb5676d" x="247.712661" y="430.1026" style="fill: #ff8c00; fill-opacity: 0.5; stroke: #000000; stroke-opacity: 0.5"/>
     <use xlink:href="#mc50cb5676d" x="467.131046" y="380.271544" style="fill: #ff8c00; fill-opacity: 0.5; stroke: #000000; stroke-opacity: 0.5"/>
     <use xlink:href="#mc50cb5676d" x="438.029454" y="391.28073" style="fill: #ff8c00; fill-opacity: 0.5; stroke: #000000; stroke-opacity: 0.5"/>
     <use xlink:href="#mc50cb5676d" x="157.380596" y="406.345934" style="fill: #ff8c00; fill-opacity: 0.5; stroke: #000000; stroke-opacity: 0.5"/>
     <use xlink:href="#mc50cb5676d" x="709.075323" y="300.310081" style="fill: #ff8c00; fill-opacity: 0.5; stroke: #000000; stroke-opacity: 0.5"/>
     <use xlink:href="#mc50cb5676d" x="315.201999" y="388.383576" style="fill: #ff8c00; fill-opacity: 0.5; stroke: #000000; stroke-opacity: 0.5"/>
     <use xlink:href="#mc50cb5676d" x="165.737569" y="383.748129" style="fill: #ff8c00; fill-opacity: 0.5; stroke: #000000; stroke-opacity: 0.5"/>
     <use xlink:href="#mc50cb5676d" x="373.648641" y="310.160406" style="fill: #ff8c00; fill-opacity: 0.5; stroke: #000000; stroke-opacity: 0.5"/>
     <use xlink:href="#mc50cb5676d" x="656.616993" y="310.160406" style="fill: #ff8c00; fill-opacity: 0.5; stroke: #000000; stroke-opacity: 0.5"/>
     <use xlink:href="#mc50cb5676d" x="241.103921" y="423.720738" style="fill: #ff8c00; fill-opacity: 0.5; stroke: #000000; stroke-opacity: 0.5"/>
     <use xlink:href="#mc50cb5676d" x="210.036539" y="454.329066" style="fill: #ff8c00; fill-opacity: 0.5; stroke: #000000; stroke-opacity: 0.5"/>
     <use xlink:href="#mc50cb5676d" x="759.589912" y="291.039187" style="fill: #ff8c00; fill-opacity: 0.5; stroke: #000000; stroke-opacity: 0.5"/>
     <use xlink:href="#mc50cb5676d" x="438.442884" y="507.667529" style="fill: #ff8c00; fill-opacity: 0.5; stroke: #000000; stroke-opacity: 0.5"/>
     <use xlink:href="#mc50cb5676d" x="112.007054" y="544.829915" style="fill: #ff8c00; fill-opacity: 0.5; stroke: #000000; stroke-opacity: 0.5"/>
     <use xlink:href="#mc50cb5676d" x="98.601795" y="459.653575" style="fill: #ff8c00; fill-opacity: 0.5; stroke: #000000; stroke-opacity: 0.5"/>
     <use xlink:href="#mc50cb5676d" x="585.729881" y="359.991463" style="fill: #ff8c00; fill-opacity: 0.5; stroke: #000000; stroke-opacity: 0.5"/>
     <use xlink:href="#mc50cb5676d" x="198.400056" y="449.223819" style="fill: #ff8c00; fill-opacity: 0.5; stroke: #000000; stroke-opacity: 0.5"/>
     <use xlink:href="#mc50cb5676d" x="407.457011" y="423.149429" style="fill: #ff8c00; fill-opacity: 0.5; stroke: #000000; stroke-opacity: 0.5"/>
     <use xlink:href="#mc50cb5676d" x="718.535961" y="308.422114" style="fill: #ff8c00; fill-opacity: 0.5; stroke: #000000; stroke-opacity: 0.5"/>
     <use xlink:href="#mc50cb5676d" x="86.805134" y="442.850079" style="fill: #ff8c00; fill-opacity: 0.5; stroke: #000000; stroke-opacity: 0.5"/>
     <use xlink:href="#mc50cb5676d" x="397.36704" y="273.07683" style="fill: #ff8c00; fill-opacity: 0.5; stroke: #000000; stroke-opacity: 0.5"/>
     <use xlink:href="#mc50cb5676d" x="354.856032" y="237.731546" style="fill: #ff8c00; fill-opacity: 0.5; stroke: #000000; stroke-opacity: 0.5"/>
     <use xlink:href="#mc50cb5676d" x="561.129669" y="448.064957" style="fill: #ff8c00; fill-opacity: 0.5; stroke: #000000; stroke-opacity: 0.5"/>
     <use xlink:href="#mc50cb5676d" x="156.21115" y="412.140242" style="fill: #ff8c00; fill-opacity: 0.5; stroke: #000000; stroke-opacity: 0.5"/>
     <use xlink:href="#mc50cb5676d" x="648.853599" y="247.00244" style="fill: #ff8c00; fill-opacity: 0.5; stroke: #000000; stroke-opacity: 0.5"/>
     <use xlink:href="#mc50cb5676d" x="448.771359" y="399.972194" style="fill: #ff8c00; fill-opacity: 0.5; stroke: #000000; stroke-opacity: 0.5"/>
     <use xlink:href="#mc50cb5676d" x="635.825709" y="397.65447" style="fill: #ff8c00; fill-opacity: 0.5; stroke: #000000; stroke-opacity: 0.5"/>
     <use xlink:href="#mc50cb5676d" x="502.975664" y="459.040159" style="fill: #ff8c00; fill-opacity: 0.5; stroke: #000000; stroke-opacity: 0.5"/>
     <use xlink:href="#mc50cb5676d" x="285.621062" y="354.197154" style="fill: #ff8c00; fill-opacity: 0.5; stroke: #000000; stroke-opacity: 0.5"/>
     <use xlink:href="#mc50cb5676d" x="533.314211" y="370.421219" style="fill: #ff8c00; fill-opacity: 0.5; stroke: #000000; stroke-opacity: 0.5"/>
     <use xlink:href="#mc50cb5676d" x="462.517505" y="399.71181" style="fill: #ff8c00; fill-opacity: 0.5; stroke: #000000; stroke-opacity: 0.5"/>
     <use xlink:href="#mc50cb5676d" x="684.279207" y="321.749024" style="fill: #ff8c00; fill-opacity: 0.5; stroke: #000000; stroke-opacity: 0.5"/>
     <use xlink:href="#mc50cb5676d" x="480.911589" y="421.990567" style="fill: #ff8c00; fill-opacity: 0.5; stroke: #000000; stroke-opacity: 0.5"/>
     <use xlink:href="#mc50cb5676d" x="278.174558" y="411.560811" style="fill: #ff8c00; fill-opacity: 0.5; stroke: #000000; stroke-opacity: 0.5"/>
     <use xlink:href="#mc50cb5676d" x="586.90742" y="437.05577" style="fill: #ff8c00; fill-opacity: 0.5; stroke: #000000; stroke-opacity: 0.5"/>
     <use xlink:href="#mc50cb5676d" x="400.087098" y="314.216423" style="fill: #ff8c00; fill-opacity: 0.5; stroke: #000000; stroke-opacity: 0.5"/>
     <use xlink:href="#mc50cb5676d" x="213.983888" y="411.560811" style="fill: #ff8c00; fill-opacity: 0.5; stroke: #000000; stroke-opacity: 0.5"/>
     <use xlink:href="#mc50cb5676d" x="688.156468" y="316.534146" style="fill: #ff8c00; fill-opacity: 0.5; stroke: #000000; stroke-opacity: 0.5"/>
     <use xlink:href="#mc50cb5676d" x="537.883543" y="347.823414" style="fill: #ff8c00; fill-opacity: 0.5; stroke: #000000; stroke-opacity: 0.5"/>
     <use xlink:href="#mc50cb5676d" x="588.110677" y="508.078456" style="fill: #ff8c00; fill-opacity: 0.5; stroke: #000000; stroke-opacity: 0.5"/>
     <use xlink:href="#mc50cb5676d" x="607.466334" y="371.000649" style="fill: #ff8c00; fill-opacity: 0.5; stroke: #000000; stroke-opacity: 0.5"/>
     <use xlink:href="#mc50cb5676d" x="404.714769" y="351.87943" style="fill: #ff8c00; fill-opacity: 0.5; stroke: #000000; stroke-opacity: 0.5"/>
     <use xlink:href="#mc50cb5676d" x="572.725671" y="339.711382" style="fill: #ff8c00; fill-opacity: 0.5; stroke: #000000; stroke-opacity: 0.5"/>
     <use xlink:href="#mc50cb5676d" x="115.444774" y="504.269753" style="fill: #ff8c00; fill-opacity: 0.5; stroke: #000000; stroke-opacity: 0.5"/>
     <use xlink:href="#mc50cb5676d" x="138.80385" y="368.682926" style="fill: #ff8c00; fill-opacity: 0.5; stroke: #000000; stroke-opacity: 0.5"/>
     <use xlink:href="#mc50cb5676d" x="530.176144" y="459.653575" style="fill: #ff8c00; fill-opacity: 0.5; stroke: #000000; stroke-opacity: 0.5"/>
     <use xlink:href="#mc50cb5676d" x="331.111607" y="308.257558" style="fill: #ff8c00; fill-opacity: 0.5; stroke: #000000; stroke-opacity: 0.5"/>
     <use xlink:href="#mc50cb5676d" x="332.813608" y="373.897804" style="fill: #ff8c00; fill-opacity: 0.5; stroke: #000000; stroke-opacity: 0.5"/>
     <use xlink:href="#mc50cb5676d" x="763.986436" y="314.216423" style="fill: #ff8c00; fill-opacity: 0.5; stroke: #000000; stroke-opacity: 0.5"/>
     <use xlink:href="#mc50cb5676d" x="490.461637" y="371.000649" style="fill: #ff8c00; fill-opacity: 0.5; stroke: #000000; stroke-opacity: 0.5"/>
     <use xlink:href="#mc50cb5676d" x="715.975962" y="319.431301" style="fill: #ff8c00; fill-opacity: 0.5; stroke: #000000; stroke-opacity: 0.5"/>
     <use xlink:href="#mc50cb5676d" x="179.45297" y="355.356015" style="fill: #ff8c00; fill-opacity: 0.5; stroke: #000000; stroke-opacity: 0.5"/>
     <use xlink:href="#mc50cb5676d" x="99.544987" y="528.02642" style="fill: #ff8c00; fill-opacity: 0.5; stroke: #000000; stroke-opacity: 0.5"/>
     <use xlink:href="#mc50cb5676d" x="274.405508" y="398.233901" style="fill: #ff8c00; fill-opacity: 0.5; stroke: #000000; stroke-opacity: 0.5"/>
     <use xlink:href="#mc50cb5676d" x="340.979578" y="404.02821" style="fill: #ff8c00; fill-opacity: 0.5; stroke: #000000; stroke-opacity: 0.5"/>
     <use xlink:href="#mc50cb5676d" x="392.28398" y="325.80504" style="fill: #ff8c00; fill-opacity: 0.5; stroke: #000000; stroke-opacity: 0.5"/>
     <use xlink:href="#mc50cb5676d" x="78.938101" y="536.138452" style="fill: #ff8c00; fill-opacity: 0.5; stroke: #000000; stroke-opacity: 0.5"/>
     <use xlink:href="#mc50cb5676d" x="600.803152" y="607.28066" style="fill: #ff8c00; fill-opacity: 0.5; stroke: #000000; stroke-opacity: 0.5"/>
     <use xlink:href="#mc50cb5676d" x="393.680883" y="317.693008" style="fill: #ff8c00; fill-opacity: 0.5; stroke: #000000; stroke-opacity: 0.5"/>
     <use xlink:href="#mc50cb5676d" x="662.112478" y="297.992358" style="fill: #ff8c00; fill-opacity: 0.5; stroke: #000000; stroke-opacity: 0.5"/>
     <use xlink:href="#mc50cb5676d" x="545.798792" y="473.559916" style="fill: #ff8c00; fill-opacity: 0.5; stroke: #000000; stroke-opacity: 0.5"/>
     <use xlink:href="#mc50cb5676d" x="565.270072" y="603.10434" style="fill: #ff8c00; fill-opacity: 0.5; stroke: #000000; stroke-opacity: 0.5"/>
     <use xlink:href="#mc50cb5676d" x="782.075114" y="291.039187" style="fill: #ff8c00; fill-opacity: 0.5; stroke: #000000; stroke-opacity: 0.5"/>
     <use xlink:href="#mc50cb5676d" x="571.961939" y="401.131056" style="fill: #ff8c00; fill-opacity: 0.5; stroke: #000000; stroke-opacity: 0.5"/>
     <use xlink:href="#mc50cb5676d" x="418.082615" y="260.908781" style="fill: #ff8c00; fill-opacity: 0.5; stroke: #000000; stroke-opacity: 0.5"/>
     <use xlink:href="#mc50cb5676d" x="566.221231" y="620.552987" style="fill: #ff8c00; fill-opacity: 0.5; stroke: #000000; stroke-opacity: 0.5"/>
     <use xlink:href="#mc50cb5676d" x="232.321409" y="504.428005" style="fill: #ff8c00; fill-opacity: 0.5; stroke: #000000; stroke-opacity: 0.5"/>
    </g>
   </g>
   <g id="PolyCollection_1">
    <path d="M 78.938101 463.15646 
L 78.938101 524.418327 
L 86.040495 521.586484 
L 93.142889 518.805194 
L 100.245283 515.656811 
L 107.347677 512.714495 
L 114.450071 510.149499 
L 121.552465 507.515363 
L 128.654859 504.677418 
L 135.757253 501.836798 
L 142.859647 498.996179 
L 149.962041 496.155559 
L 157.064435 493.431508 
L 164.166829 490.872605 
L 171.269224 488.249454 
L 178.371618 485.477138 
L 185.474012 482.705333 
L 192.576406 480.065809 
L 199.6788 477.611914 
L 206.781194 475.306678 
L 213.883588 472.70301 
L 220.985982 469.989289 
L 228.088376 467.789967 
L 235.19077 465.245694 
L 242.293164 462.495263 
L 249.395558 459.863556 
L 256.497952 457.55989 
L 263.600346 454.776303 
L 270.702741 451.969602 
L 277.805135 449.175002 
L 284.907529 446.647817 
L 292.009923 444.325498 
L 299.112317 442.022034 
L 306.214711 439.803099 
L 313.317105 437.511482 
L 320.419499 435.176866 
L 327.521893 432.726282 
L 334.624287 430.391903 
L 341.726681 428.111834 
L 348.829075 425.684435 
L 355.931469 423.178556 
L 363.033863 420.957259 
L 370.136258 418.933011 
L 377.238652 416.711201 
L 384.341046 414.362797 
L 391.44344 411.909308 
L 398.545834 409.662017 
L 405.648228 407.167616 
L 412.750622 404.928223 
L 419.853016 402.973018 
L 426.95541 400.426198 
L 434.057804 398.073096 
L 441.160198 396.129431 
L 448.262592 393.970263 
L 455.364986 392.046259 
L 462.46738 390.097532 
L 469.569775 388.176306 
L 476.672169 386.241534 
L 483.774563 383.937969 
L 490.876957 381.461225 
L 497.979351 378.977572 
L 505.081745 376.804463 
L 512.184139 374.846057 
L 519.286533 372.887651 
L 526.388927 370.929246 
L 533.491321 368.97084 
L 540.593715 367.016331 
L 547.696109 365.049446 
L 554.798503 363.032847 
L 561.900897 361.146794 
L 569.003292 359.015496 
L 576.105686 356.980192 
L 583.20808 355.303309 
L 590.310474 353.353524 
L 597.412868 351.401999 
L 604.515262 349.453093 
L 611.617656 347.59422 
L 618.72005 345.547425 
L 625.822444 343.755547 
L 632.924838 341.644376 
L 640.027232 339.792905 
L 647.129626 337.977812 
L 654.23202 336.048215 
L 661.334414 334.118618 
L 668.436809 332.516175 
L 675.539203 330.88988 
L 682.641597 329.035934 
L 689.743991 327.181988 
L 696.846385 325.328041 
L 703.948779 323.474095 
L 711.051173 321.620148 
L 718.153567 319.894287 
L 725.255961 318.187036 
L 732.358355 316.357066 
L 739.460749 314.248622 
L 746.563143 312.613064 
L 753.665537 311.000217 
L 760.767931 309.075159 
L 767.870325 307.144217 
L 774.97272 305.213274 
L 782.075114 303.258371 
L 782.075114 231.481495 
L 782.075114 231.481495 
L 774.97272 234.236567 
L 767.870325 236.991639 
L 760.767931 239.746711 
L 753.665537 242.501782 
L 746.563143 245.256854 
L 739.460749 248.011926 
L 732.358355 250.766998 
L 725.255961 253.52207 
L 718.153567 256.278592 
L 711.051173 259.037909 
L 703.948779 261.666577 
L 696.846385 264.543612 
L 689.743991 267.297429 
L 682.641597 270.0525 
L 675.539203 272.809731 
L 668.436809 275.56746 
L 661.334414 278.325188 
L 654.23202 281.211454 
L 647.129626 284.099154 
L 640.027232 286.738871 
L 632.924838 289.378588 
L 625.822444 292.093891 
L 618.72005 294.848147 
L 611.617656 297.603218 
L 604.515262 300.35502 
L 597.412868 303.102719 
L 590.310474 305.850418 
L 583.20808 308.600814 
L 576.105686 311.351968 
L 569.003292 314.103713 
L 561.900897 316.861518 
L 554.798503 319.519695 
L 547.696109 322.094621 
L 540.593715 324.743548 
L 533.491321 327.6153 
L 526.388927 330.394594 
L 519.286533 333.217008 
L 512.184139 336.149384 
L 505.081745 338.900739 
L 497.979351 341.351316 
L 490.876957 344.146597 
L 483.774563 346.750131 
L 476.672169 349.370127 
L 469.569775 351.976277 
L 462.46738 354.536997 
L 455.364986 357.055819 
L 448.262592 359.487341 
L 441.160198 361.923167 
L 434.057804 364.467339 
L 426.95541 366.686527 
L 419.853016 369.141677 
L 412.750622 371.567132 
L 405.648228 373.753422 
L 398.545834 376.383544 
L 391.44344 378.490613 
L 384.341046 380.541189 
L 377.238652 382.890556 
L 370.136258 385.074642 
L 363.033863 387.372956 
L 355.931469 389.552352 
L 348.829075 391.676227 
L 341.726681 393.543696 
L 334.624287 395.479448 
L 327.521893 397.694735 
L 320.419499 399.861639 
L 313.317105 401.804093 
L 306.214711 403.783374 
L 299.112317 405.796895 
L 292.009923 407.653071 
L 284.907529 409.516735 
L 277.805135 411.476946 
L 270.702741 413.700151 
L 263.600346 415.46291 
L 256.497952 417.282518 
L 249.395558 419.271065 
L 242.293164 420.806948 
L 235.19077 422.519924 
L 228.088376 424.602024 
L 220.985982 426.518629 
L 213.883588 428.443156 
L 206.781194 430.441131 
L 199.6788 432.435398 
L 192.576406 434.354165 
L 185.474012 436.136021 
L 178.371618 437.943851 
L 171.269224 439.844725 
L 164.166829 441.747652 
L 157.064435 443.652984 
L 149.962041 445.469929 
L 142.859647 447.172018 
L 135.757253 448.770714 
L 128.654859 450.374178 
L 121.552465 452.142647 
L 114.450071 453.923001 
L 107.347677 455.703996 
L 100.245283 457.554647 
L 93.142889 459.421918 
L 86.040495 461.289189 
L 78.938101 463.15646 
z
" clip-path="url(#pa53edb4c25)" style="fill: #1f77b4; fill-opacity: 0.15"/>
   </g>
   <g id="PolyCollection_2">
    <path d="M 78.938101 414.189641 
L 78.938101 473.236732 
L 86.040495 471.719098 
L 93.142889 470.547646 
L 100.245283 469.263226 
L 107.347677 467.849955 
L 114.450071 466.816042 
L 121.552465 465.680829 
L 128.654859 464.25979 
L 135.757253 462.826268 
L 142.859647 461.60621 
L 149.962041 460.147914 
L 157.064435 458.950375 
L 164.166829 457.819314 
L 171.269224 456.386012 
L 178.371618 454.94462 
L 185.474012 453.503228 
L 192.576406 452.061836 
L 199.6788 450.620445 
L 206.781194 449.179053 
L 213.883588 447.907039 
L 220.985982 446.708605 
L 228.088376 445.572118 
L 235.19077 444.741297 
L 242.293164 443.744931 
L 249.395558 442.483602 
L 256.497952 441.304924 
L 263.600346 440.171457 
L 270.702741 438.835083 
L 277.805135 437.39867 
L 284.907529 436.257309 
L 292.009923 435.13682 
L 299.112317 434.091926 
L 306.214711 433.095835 
L 313.317105 432.021787 
L 320.419499 431.088942 
L 327.521893 429.865283 
L 334.624287 428.791716 
L 341.726681 427.678163 
L 348.829075 426.613968 
L 355.931469 425.62237 
L 363.033863 424.640715 
L 370.136258 423.653776 
L 377.238652 422.664281 
L 384.341046 421.730758 
L 391.44344 420.804353 
L 398.545834 419.881454 
L 405.648228 419.131814 
L 412.750622 418.606859 
L 419.853016 417.74406 
L 426.95541 416.821519 
L 434.057804 415.767033 
L 441.160198 414.627161 
L 448.262592 413.587612 
L 455.364986 412.810309 
L 462.46738 412.244869 
L 469.569775 411.436893 
L 476.672169 410.915821 
L 483.774563 410.467111 
L 490.876957 410.0184 
L 497.979351 409.604413 
L 505.081745 409.198402 
L 512.184139 408.788879 
L 519.286533 408.269515 
L 526.388927 407.569777 
L 533.491321 406.957405 
L 540.593715 406.725767 
L 547.696109 405.86935 
L 554.798503 404.90801 
L 561.900897 404.425303 
L 569.003292 403.972363 
L 576.105686 403.506152 
L 583.20808 402.796699 
L 590.310474 402.285377 
L 597.412868 402.089245 
L 604.515262 401.704344 
L 611.617656 401.216043 
L 618.72005 400.753626 
L 625.822444 400.167489 
L 632.924838 399.559403 
L 640.027232 398.949953 
L 647.129626 398.336939 
L 654.23202 397.723925 
L 661.334414 397.110911 
L 668.436809 396.713549 
L 675.539203 396.487795 
L 682.641597 395.884376 
L 689.743991 395.223197 
L 696.846385 394.562018 
L 703.948779 393.900839 
L 711.051173 393.433427 
L 718.153567 393.197336 
L 725.255961 392.961245 
L 732.358355 392.719247 
L 739.460749 392.458022 
L 746.563143 392.196797 
L 753.665537 391.935572 
L 760.767931 391.583634 
L 767.870325 391.129968 
L 774.97272 390.676302 
L 782.075114 390.222636 
L 782.075114 308.479657 
L 782.075114 308.479657 
L 774.97272 310.018685 
L 767.870325 311.456108 
L 760.767931 312.920289 
L 753.665537 314.483923 
L 746.563143 316.047558 
L 739.460749 317.588376 
L 732.358355 318.678431 
L 725.255961 319.829371 
L 718.153567 321.331979 
L 711.051173 322.878612 
L 703.948779 324.39271 
L 696.846385 325.964454 
L 689.743991 327.518511 
L 682.641597 329.065144 
L 675.539203 330.470235 
L 668.436809 331.65592 
L 661.334414 332.957203 
L 654.23202 334.470751 
L 647.129626 335.984299 
L 640.027232 337.496983 
L 632.924838 338.968046 
L 625.822444 340.442389 
L 618.72005 341.919509 
L 611.617656 343.39663 
L 604.515262 344.610736 
L 597.412868 345.822595 
L 590.310474 347.082756 
L 583.20808 348.458881 
L 576.105686 349.995557 
L 569.003292 351.424346 
L 561.900897 352.752422 
L 554.798503 354.07478 
L 547.696109 355.376275 
L 540.593715 356.598981 
L 533.491321 357.741778 
L 526.388927 358.665378 
L 519.286533 360.029617 
L 512.184139 360.996553 
L 505.081745 361.964394 
L 497.979351 363.408311 
L 490.876957 365.004961 
L 483.774563 366.202615 
L 476.672169 367.438102 
L 469.569775 368.913169 
L 462.46738 370.393544 
L 455.364986 371.682052 
L 448.262592 372.717331 
L 441.160198 373.916801 
L 434.057804 375.217787 
L 426.95541 376.445252 
L 419.853016 377.633041 
L 412.750622 378.49493 
L 405.648228 379.369808 
L 398.545834 380.759532 
L 391.44344 381.881662 
L 384.341046 382.889782 
L 377.238652 384.071358 
L 370.136258 384.848134 
L 363.033863 385.748526 
L 355.931469 386.721555 
L 348.829075 387.786421 
L 341.726681 388.645484 
L 334.624287 389.617843 
L 327.521893 390.575892 
L 320.419499 391.522228 
L 313.317105 392.139516 
L 306.214711 393.203187 
L 299.112317 394.098336 
L 292.009923 394.952749 
L 284.907529 395.811139 
L 277.805135 396.671023 
L 270.702741 397.527326 
L 263.600346 398.053278 
L 256.497952 398.572865 
L 249.395558 399.163152 
L 242.293164 399.746759 
L 235.19077 400.335345 
L 228.088376 401.122733 
L 220.985982 402.14207 
L 213.883588 402.78149 
L 206.781194 403.307806 
L 199.6788 404.03974 
L 192.576406 404.409233 
L 185.474012 404.840716 
L 178.371618 405.583638 
L 171.269224 406.449294 
L 164.166829 407.072264 
L 157.064435 407.484576 
L 149.962041 408.270093 
L 142.859647 409.089711 
L 135.757253 409.924932 
L 128.654859 410.492459 
L 121.552465 411.548023 
L 114.450071 412.3877 
L 107.347677 412.903274 
L 100.245283 413.196867 
L 93.142889 413.49046 
L 86.040495 413.842179 
L 78.938101 414.189641 
z
" clip-path="url(#pa53edb4c25)" style="fill: #ff7f0e; fill-opacity: 0.15"/>
   </g>
   <g id="matplotlib.axis_1">
    <g id="xtick_1">
     <g id="line2d_1">
      <defs>
       <path id="m7905e128a3" d="M 0 0 
L 0 3.5 
" style="stroke: #000000; stroke-width: 0.8"/>
      </defs>
      <g>
       <use xlink:href="#m7905e128a3" x="56.567963" y="642.866667" style="stroke: #000000; stroke-width: 0.8"/>
      </g>
     </g>
     <g id="text_1">
      <!-- 0.30 -->
      <g transform="translate(45.43515 657.465104) scale(0.1 -0.1)">
       <defs>
        <path id="DejaVuSans-30" d="M 2034 4250 
Q 1547 4250 1301 3770 
Q 1056 3291 1056 2328 
Q 1056 1369 1301 889 
Q 1547 409 2034 409 
Q 2525 409 2770 889 
Q 3016 1369 3016 2328 
Q 3016 3291 2770 3770 
Q 2525 4250 2034 4250 
z
M 2034 4750 
Q 2819 4750 3233 4129 
Q 3647 3509 3647 2328 
Q 3647 1150 3233 529 
Q 2819 -91 2034 -91 
Q 1250 -91 836 529 
Q 422 1150 422 2328 
Q 422 3509 836 4129 
Q 1250 4750 2034 4750 
z
" transform="scale(0.015625)"/>
        <path id="DejaVuSans-2e" d="M 684 794 
L 1344 794 
L 1344 0 
L 684 0 
L 684 794 
z
" transform="scale(0.015625)"/>
        <path id="DejaVuSans-33" d="M 2597 2516 
Q 3050 2419 3304 2112 
Q 3559 1806 3559 1356 
Q 3559 666 3084 287 
Q 2609 -91 1734 -91 
Q 1441 -91 1130 -33 
Q 819 25 488 141 
L 488 750 
Q 750 597 1062 519 
Q 1375 441 1716 441 
Q 2309 441 2620 675 
Q 2931 909 2931 1356 
Q 2931 1769 2642 2001 
Q 2353 2234 1838 2234 
L 1294 2234 
L 1294 2753 
L 1863 2753 
Q 2328 2753 2575 2939 
Q 2822 3125 2822 3475 
Q 2822 3834 2567 4026 
Q 2313 4219 1838 4219 
Q 1578 4219 1281 4162 
Q 984 4106 628 3988 
L 628 4550 
Q 988 4650 1302 4700 
Q 1616 4750 1894 4750 
Q 2613 4750 3031 4423 
Q 3450 4097 3450 3541 
Q 3450 3153 3228 2886 
Q 3006 2619 2597 2516 
z
" transform="scale(0.015625)"/>
       </defs>
       <use xlink:href="#DejaVuSans-30"/>
       <use xlink:href="#DejaVuSans-2e" x="63.623047"/>
       <use xlink:href="#DejaVuSans-33" x="95.410156"/>
       <use xlink:href="#DejaVuSans-30" x="159.033203"/>
      </g>
     </g>
    </g>
    <g id="xtick_2">
     <g id="line2d_2">
      <g>
       <use xlink:href="#m7905e128a3" x="150.809588" y="642.866667" style="stroke: #000000; stroke-width: 0.8"/>
      </g>
     </g>
     <g id="text_2">
      <!-- 0.35 -->
      <g transform="translate(139.676776 657.465104) scale(0.1 -0.1)">
       <defs>
        <path id="DejaVuSans-35" d="M 691 4666 
L 3169 4666 
L 3169 4134 
L 1269 4134 
L 1269 2991 
Q 1406 3038 1543 3061 
Q 1681 3084 1819 3084 
Q 2600 3084 3056 2656 
Q 3513 2228 3513 1497 
Q 3513 744 3044 326 
Q 2575 -91 1722 -91 
Q 1428 -91 1123 -41 
Q 819 9 494 109 
L 494 744 
Q 775 591 1075 516 
Q 1375 441 1709 441 
Q 2250 441 2565 725 
Q 2881 1009 2881 1497 
Q 2881 1984 2565 2268 
Q 2250 2553 1709 2553 
Q 1456 2553 1204 2497 
Q 953 2441 691 2322 
L 691 4666 
z
" transform="scale(0.015625)"/>
       </defs>
       <use xlink:href="#DejaVuSans-30"/>
       <use xlink:href="#DejaVuSans-2e" x="63.623047"/>
       <use xlink:href="#DejaVuSans-33" x="95.410156"/>
       <use xlink:href="#DejaVuSans-35" x="159.033203"/>
      </g>
     </g>
    </g>
    <g id="xtick_3">
     <g id="line2d_3">
      <g>
       <use xlink:href="#m7905e128a3" x="245.051214" y="642.866667" style="stroke: #000000; stroke-width: 0.8"/>
      </g>
     </g>
     <g id="text_3">
      <!-- 0.40 -->
      <g transform="translate(233.918402 657.465104) scale(0.1 -0.1)">
       <defs>
        <path id="DejaVuSans-34" d="M 2419 4116 
L 825 1625 
L 2419 1625 
L 2419 4116 
z
M 2253 4666 
L 3047 4666 
L 3047 1625 
L 3713 1625 
L 3713 1100 
L 3047 1100 
L 3047 0 
L 2419 0 
L 2419 1100 
L 313 1100 
L 313 1709 
L 2253 4666 
z
" transform="scale(0.015625)"/>
       </defs>
       <use xlink:href="#DejaVuSans-30"/>
       <use xlink:href="#DejaVuSans-2e" x="63.623047"/>
       <use xlink:href="#DejaVuSans-34" x="95.410156"/>
       <use xlink:href="#DejaVuSans-30" x="159.033203"/>
      </g>
     </g>
    </g>
    <g id="xtick_4">
     <g id="line2d_4">
      <g>
       <use xlink:href="#m7905e128a3" x="339.29284" y="642.866667" style="stroke: #000000; stroke-width: 0.8"/>
      </g>
     </g>
     <g id="text_4">
      <!-- 0.45 -->
      <g transform="translate(328.160027 657.465104) scale(0.1 -0.1)">
       <use xlink:href="#DejaVuSans-30"/>
       <use xlink:href="#DejaVuSans-2e" x="63.623047"/>
       <use xlink:href="#DejaVuSans-34" x="95.410156"/>
       <use xlink:href="#DejaVuSans-35" x="159.033203"/>
      </g>
     </g>
    </g>
    <g id="xtick_5">
     <g id="line2d_5">
      <g>
       <use xlink:href="#m7905e128a3" x="433.534466" y="642.866667" style="stroke: #000000; stroke-width: 0.8"/>
      </g>
     </g>
     <g id="text_5">
      <!-- 0.50 -->
      <g transform="translate(422.401653 657.465104) scale(0.1 -0.1)">
       <use xlink:href="#DejaVuSans-30"/>
       <use xlink:href="#DejaVuSans-2e" x="63.623047"/>
       <use xlink:href="#DejaVuSans-35" x="95.410156"/>
       <use xlink:href="#DejaVuSans-30" x="159.033203"/>
      </g>
     </g>
    </g>
    <g id="xtick_6">
     <g id="line2d_6">
      <g>
       <use xlink:href="#m7905e128a3" x="527.776091" y="642.866667" style="stroke: #000000; stroke-width: 0.8"/>
      </g>
     </g>
     <g id="text_6">
      <!-- 0.55 -->
      <g transform="translate(516.643279 657.465104) scale(0.1 -0.1)">
       <use xlink:href="#DejaVuSans-30"/>
       <use xlink:href="#DejaVuSans-2e" x="63.623047"/>
       <use xlink:href="#DejaVuSans-35" x="95.410156"/>
       <use xlink:href="#DejaVuSans-35" x="159.033203"/>
      </g>
     </g>
    </g>
    <g id="xtick_7">
     <g id="line2d_7">
      <g>
       <use xlink:href="#m7905e128a3" x="622.017717" y="642.866667" style="stroke: #000000; stroke-width: 0.8"/>
      </g>
     </g>
     <g id="text_7">
      <!-- 0.60 -->
      <g transform="translate(610.884905 657.465104) scale(0.1 -0.1)">
       <defs>
        <path id="DejaVuSans-36" d="M 2113 2584 
Q 1688 2584 1439 2293 
Q 1191 2003 1191 1497 
Q 1191 994 1439 701 
Q 1688 409 2113 409 
Q 2538 409 2786 701 
Q 3034 994 3034 1497 
Q 3034 2003 2786 2293 
Q 2538 2584 2113 2584 
z
M 3366 4563 
L 3366 3988 
Q 3128 4100 2886 4159 
Q 2644 4219 2406 4219 
Q 1781 4219 1451 3797 
Q 1122 3375 1075 2522 
Q 1259 2794 1537 2939 
Q 1816 3084 2150 3084 
Q 2853 3084 3261 2657 
Q 3669 2231 3669 1497 
Q 3669 778 3244 343 
Q 2819 -91 2113 -91 
Q 1303 -91 875 529 
Q 447 1150 447 2328 
Q 447 3434 972 4092 
Q 1497 4750 2381 4750 
Q 2619 4750 2861 4703 
Q 3103 4656 3366 4563 
z
" transform="scale(0.015625)"/>
       </defs>
       <use xlink:href="#DejaVuSans-30"/>
       <use xlink:href="#DejaVuSans-2e" x="63.623047"/>
       <use xlink:href="#DejaVuSans-36" x="95.410156"/>
       <use xlink:href="#DejaVuSans-30" x="159.033203"/>
      </g>
     </g>
    </g>
    <g id="xtick_8">
     <g id="line2d_8">
      <g>
       <use xlink:href="#m7905e128a3" x="716.259343" y="642.866667" style="stroke: #000000; stroke-width: 0.8"/>
      </g>
     </g>
     <g id="text_8">
      <!-- 0.65 -->
      <g transform="translate(705.126531 657.465104) scale(0.1 -0.1)">
       <use xlink:href="#DejaVuSans-30"/>
       <use xlink:href="#DejaVuSans-2e" x="63.623047"/>
       <use xlink:href="#DejaVuSans-36" x="95.410156"/>
       <use xlink:href="#DejaVuSans-35" x="159.033203"/>
      </g>
     </g>
    </g>
    <g id="xtick_9">
     <g id="line2d_9">
      <g>
       <use xlink:href="#m7905e128a3" x="810.500969" y="642.866667" style="stroke: #000000; stroke-width: 0.8"/>
      </g>
     </g>
     <g id="text_9">
      <!-- 0.70 -->
      <g transform="translate(799.368156 657.465104) scale(0.1 -0.1)">
       <defs>
        <path id="DejaVuSans-37" d="M 525 4666 
L 3525 4666 
L 3525 4397 
L 1831 0 
L 1172 0 
L 2766 4134 
L 525 4134 
L 525 4666 
z
" transform="scale(0.015625)"/>
       </defs>
       <use xlink:href="#DejaVuSans-30"/>
       <use xlink:href="#DejaVuSans-2e" x="63.623047"/>
       <use xlink:href="#DejaVuSans-37" x="95.410156"/>
       <use xlink:href="#DejaVuSans-30" x="159.033203"/>
      </g>
     </g>
    </g>
    <g id="text_10">
     <!-- Proteomic GC content -->
     <g transform="translate(375.785513 671.143229) scale(0.1 -0.1)">
      <defs>
       <path id="DejaVuSans-50" d="M 1259 4147 
L 1259 2394 
L 2053 2394 
Q 2494 2394 2734 2622 
Q 2975 2850 2975 3272 
Q 2975 3691 2734 3919 
Q 2494 4147 2053 4147 
L 1259 4147 
z
M 628 4666 
L 2053 4666 
Q 2838 4666 3239 4311 
Q 3641 3956 3641 3272 
Q 3641 2581 3239 2228 
Q 2838 1875 2053 1875 
L 1259 1875 
L 1259 0 
L 628 0 
L 628 4666 
z
" transform="scale(0.015625)"/>
       <path id="DejaVuSans-72" d="M 2631 2963 
Q 2534 3019 2420 3045 
Q 2306 3072 2169 3072 
Q 1681 3072 1420 2755 
Q 1159 2438 1159 1844 
L 1159 0 
L 581 0 
L 581 3500 
L 1159 3500 
L 1159 2956 
Q 1341 3275 1631 3429 
Q 1922 3584 2338 3584 
Q 2397 3584 2469 3576 
Q 2541 3569 2628 3553 
L 2631 2963 
z
" transform="scale(0.015625)"/>
       <path id="DejaVuSans-6f" d="M 1959 3097 
Q 1497 3097 1228 2736 
Q 959 2375 959 1747 
Q 959 1119 1226 758 
Q 1494 397 1959 397 
Q 2419 397 2687 759 
Q 2956 1122 2956 1747 
Q 2956 2369 2687 2733 
Q 2419 3097 1959 3097 
z
M 1959 3584 
Q 2709 3584 3137 3096 
Q 3566 2609 3566 1747 
Q 3566 888 3137 398 
Q 2709 -91 1959 -91 
Q 1206 -91 779 398 
Q 353 888 353 1747 
Q 353 2609 779 3096 
Q 1206 3584 1959 3584 
z
" transform="scale(0.015625)"/>
       <path id="DejaVuSans-74" d="M 1172 4494 
L 1172 3500 
L 2356 3500 
L 2356 3053 
L 1172 3053 
L 1172 1153 
Q 1172 725 1289 603 
Q 1406 481 1766 481 
L 2356 481 
L 2356 0 
L 1766 0 
Q 1100 0 847 248 
Q 594 497 594 1153 
L 594 3053 
L 172 3053 
L 172 3500 
L 594 3500 
L 594 4494 
L 1172 4494 
z
" transform="scale(0.015625)"/>
       <path id="DejaVuSans-65" d="M 3597 1894 
L 3597 1613 
L 953 1613 
Q 991 1019 1311 708 
Q 1631 397 2203 397 
Q 2534 397 2845 478 
Q 3156 559 3463 722 
L 3463 178 
Q 3153 47 2828 -22 
Q 2503 -91 2169 -91 
Q 1331 -91 842 396 
Q 353 884 353 1716 
Q 353 2575 817 3079 
Q 1281 3584 2069 3584 
Q 2775 3584 3186 3129 
Q 3597 2675 3597 1894 
z
M 3022 2063 
Q 3016 2534 2758 2815 
Q 2500 3097 2075 3097 
Q 1594 3097 1305 2825 
Q 1016 2553 972 2059 
L 3022 2063 
z
" transform="scale(0.015625)"/>
       <path id="DejaVuSans-6d" d="M 3328 2828 
Q 3544 3216 3844 3400 
Q 4144 3584 4550 3584 
Q 5097 3584 5394 3201 
Q 5691 2819 5691 2113 
L 5691 0 
L 5113 0 
L 5113 2094 
Q 5113 2597 4934 2840 
Q 4756 3084 4391 3084 
Q 3944 3084 3684 2787 
Q 3425 2491 3425 1978 
L 3425 0 
L 2847 0 
L 2847 2094 
Q 2847 2600 2669 2842 
Q 2491 3084 2119 3084 
Q 1678 3084 1418 2786 
Q 1159 2488 1159 1978 
L 1159 0 
L 581 0 
L 581 3500 
L 1159 3500 
L 1159 2956 
Q 1356 3278 1631 3431 
Q 1906 3584 2284 3584 
Q 2666 3584 2933 3390 
Q 3200 3197 3328 2828 
z
" transform="scale(0.015625)"/>
       <path id="DejaVuSans-69" d="M 603 3500 
L 1178 3500 
L 1178 0 
L 603 0 
L 603 3500 
z
M 603 4863 
L 1178 4863 
L 1178 4134 
L 603 4134 
L 603 4863 
z
" transform="scale(0.015625)"/>
       <path id="DejaVuSans-63" d="M 3122 3366 
L 3122 2828 
Q 2878 2963 2633 3030 
Q 2388 3097 2138 3097 
Q 1578 3097 1268 2742 
Q 959 2388 959 1747 
Q 959 1106 1268 751 
Q 1578 397 2138 397 
Q 2388 397 2633 464 
Q 2878 531 3122 666 
L 3122 134 
Q 2881 22 2623 -34 
Q 2366 -91 2075 -91 
Q 1284 -91 818 406 
Q 353 903 353 1747 
Q 353 2603 823 3093 
Q 1294 3584 2113 3584 
Q 2378 3584 2631 3529 
Q 2884 3475 3122 3366 
z
" transform="scale(0.015625)"/>
       <path id="DejaVuSans-20" transform="scale(0.015625)"/>
       <path id="DejaVuSans-47" d="M 3809 666 
L 3809 1919 
L 2778 1919 
L 2778 2438 
L 4434 2438 
L 4434 434 
Q 4069 175 3628 42 
Q 3188 -91 2688 -91 
Q 1594 -91 976 548 
Q 359 1188 359 2328 
Q 359 3472 976 4111 
Q 1594 4750 2688 4750 
Q 3144 4750 3555 4637 
Q 3966 4525 4313 4306 
L 4313 3634 
Q 3963 3931 3569 4081 
Q 3175 4231 2741 4231 
Q 1884 4231 1454 3753 
Q 1025 3275 1025 2328 
Q 1025 1384 1454 906 
Q 1884 428 2741 428 
Q 3075 428 3337 486 
Q 3600 544 3809 666 
z
" transform="scale(0.015625)"/>
       <path id="DejaVuSans-43" d="M 4122 4306 
L 4122 3641 
Q 3803 3938 3442 4084 
Q 3081 4231 2675 4231 
Q 1875 4231 1450 3742 
Q 1025 3253 1025 2328 
Q 1025 1406 1450 917 
Q 1875 428 2675 428 
Q 3081 428 3442 575 
Q 3803 722 4122 1019 
L 4122 359 
Q 3791 134 3420 21 
Q 3050 -91 2638 -91 
Q 1578 -91 968 557 
Q 359 1206 359 2328 
Q 359 3453 968 4101 
Q 1578 4750 2638 4750 
Q 3056 4750 3426 4639 
Q 3797 4528 4122 4306 
z
" transform="scale(0.015625)"/>
       <path id="DejaVuSans-6e" d="M 3513 2113 
L 3513 0 
L 2938 0 
L 2938 2094 
Q 2938 2591 2744 2837 
Q 2550 3084 2163 3084 
Q 1697 3084 1428 2787 
Q 1159 2491 1159 1978 
L 1159 0 
L 581 0 
L 581 3500 
L 1159 3500 
L 1159 2956 
Q 1366 3272 1645 3428 
Q 1925 3584 2291 3584 
Q 2894 3584 3203 3211 
Q 3513 2838 3513 2113 
z
" transform="scale(0.015625)"/>
      </defs>
      <use xlink:href="#DejaVuSans-50"/>
      <use xlink:href="#DejaVuSans-72" x="58.552734"/>
      <use xlink:href="#DejaVuSans-6f" x="97.416016"/>
      <use xlink:href="#DejaVuSans-74" x="158.597656"/>
      <use xlink:href="#DejaVuSans-65" x="197.806641"/>
      <use xlink:href="#DejaVuSans-6f" x="259.330078"/>
      <use xlink:href="#DejaVuSans-6d" x="320.511719"/>
      <use xlink:href="#DejaVuSans-69" x="417.923828"/>
      <use xlink:href="#DejaVuSans-63" x="445.707031"/>
      <use xlink:href="#DejaVuSans-20" x="500.6875"/>
      <use xlink:href="#DejaVuSans-47" x="532.474609"/>
      <use xlink:href="#DejaVuSans-43" x="609.964844"/>
      <use xlink:href="#DejaVuSans-20" x="679.789062"/>
      <use xlink:href="#DejaVuSans-63" x="711.576172"/>
      <use xlink:href="#DejaVuSans-6f" x="766.556641"/>
      <use xlink:href="#DejaVuSans-6e" x="827.738281"/>
      <use xlink:href="#DejaVuSans-74" x="891.117188"/>
      <use xlink:href="#DejaVuSans-65" x="930.326172"/>
      <use xlink:href="#DejaVuSans-6e" x="991.849609"/>
      <use xlink:href="#DejaVuSans-74" x="1055.228516"/>
     </g>
    </g>
   </g>
   <g id="matplotlib.axis_2">
    <g id="ytick_1">
     <g id="line2d_10">
      <defs>
       <path id="m9c44f0216f" d="M 0 0 
L -3.5 0 
" style="stroke: #000000; stroke-width: 0.8"/>
      </defs>
      <g>
       <use xlink:href="#m9c44f0216f" x="43.78125" y="596.053353" style="stroke: #000000; stroke-width: 0.8"/>
      </g>
     </g>
     <g id="text_11">
      <!-- 0.2 -->
      <g transform="translate(20.878125 599.852572) scale(0.1 -0.1)">
       <defs>
        <path id="DejaVuSans-32" d="M 1228 531 
L 3431 531 
L 3431 0 
L 469 0 
L 469 531 
Q 828 903 1448 1529 
Q 2069 2156 2228 2338 
Q 2531 2678 2651 2914 
Q 2772 3150 2772 3378 
Q 2772 3750 2511 3984 
Q 2250 4219 1831 4219 
Q 1534 4219 1204 4116 
Q 875 4013 500 3803 
L 500 4441 
Q 881 4594 1212 4672 
Q 1544 4750 1819 4750 
Q 2544 4750 2975 4387 
Q 3406 4025 3406 3419 
Q 3406 3131 3298 2873 
Q 3191 2616 2906 2266 
Q 2828 2175 2409 1742 
Q 1991 1309 1228 531 
z
" transform="scale(0.015625)"/>
       </defs>
       <use xlink:href="#DejaVuSans-30"/>
       <use xlink:href="#DejaVuSans-2e" x="63.623047"/>
       <use xlink:href="#DejaVuSans-32" x="95.410156"/>
      </g>
     </g>
    </g>
    <g id="ytick_2">
     <g id="line2d_11">
      <g>
       <use xlink:href="#m9c44f0216f" x="43.78125" y="521.133814" style="stroke: #000000; stroke-width: 0.8"/>
      </g>
     </g>
     <g id="text_12">
      <!-- 0.3 -->
      <g transform="translate(20.878125 524.933032) scale(0.1 -0.1)">
       <use xlink:href="#DejaVuSans-30"/>
       <use xlink:href="#DejaVuSans-2e" x="63.623047"/>
       <use xlink:href="#DejaVuSans-33" x="95.410156"/>
      </g>
     </g>
    </g>
    <g id="ytick_3">
     <g id="line2d_12">
      <g>
       <use xlink:href="#m9c44f0216f" x="43.78125" y="446.214274" style="stroke: #000000; stroke-width: 0.8"/>
      </g>
     </g>
     <g id="text_13">
      <!-- 0.4 -->
      <g transform="translate(20.878125 450.013493) scale(0.1 -0.1)">
       <use xlink:href="#DejaVuSans-30"/>
       <use xlink:href="#DejaVuSans-2e" x="63.623047"/>
       <use xlink:href="#DejaVuSans-34" x="95.410156"/>
      </g>
     </g>
    </g>
    <g id="ytick_4">
     <g id="line2d_13">
      <g>
       <use xlink:href="#m9c44f0216f" x="43.78125" y="371.294734" style="stroke: #000000; stroke-width: 0.8"/>
      </g>
     </g>
     <g id="text_14">
      <!-- 0.5 -->
      <g transform="translate(20.878125 375.093953) scale(0.1 -0.1)">
       <use xlink:href="#DejaVuSans-30"/>
       <use xlink:href="#DejaVuSans-2e" x="63.623047"/>
       <use xlink:href="#DejaVuSans-35" x="95.410156"/>
      </g>
     </g>
    </g>
    <g id="ytick_5">
     <g id="line2d_14">
      <g>
       <use xlink:href="#m9c44f0216f" x="43.78125" y="296.375194" style="stroke: #000000; stroke-width: 0.8"/>
      </g>
     </g>
     <g id="text_15">
      <!-- 0.6 -->
      <g transform="translate(20.878125 300.174413) scale(0.1 -0.1)">
       <use xlink:href="#DejaVuSans-30"/>
       <use xlink:href="#DejaVuSans-2e" x="63.623047"/>
       <use xlink:href="#DejaVuSans-36" x="95.410156"/>
      </g>
     </g>
    </g>
    <g id="ytick_6">
     <g id="line2d_15">
      <g>
       <use xlink:href="#m9c44f0216f" x="43.78125" y="221.455655" style="stroke: #000000; stroke-width: 0.8"/>
      </g>
     </g>
     <g id="text_16">
      <!-- 0.7 -->
      <g transform="translate(20.878125 225.254873) scale(0.1 -0.1)">
       <use xlink:href="#DejaVuSans-30"/>
       <use xlink:href="#DejaVuSans-2e" x="63.623047"/>
       <use xlink:href="#DejaVuSans-37" x="95.410156"/>
      </g>
     </g>
    </g>
    <g id="text_17">
     <!-- Correlation coefficient -->
     <g transform="translate(14.798438 452.712284) rotate(-90) scale(0.1 -0.1)">
      <defs>
       <path id="DejaVuSans-6c" d="M 603 4863 
L 1178 4863 
L 1178 0 
L 603 0 
L 603 4863 
z
" transform="scale(0.015625)"/>
       <path id="DejaVuSans-61" d="M 2194 1759 
Q 1497 1759 1228 1600 
Q 959 1441 959 1056 
Q 959 750 1161 570 
Q 1363 391 1709 391 
Q 2188 391 2477 730 
Q 2766 1069 2766 1631 
L 2766 1759 
L 2194 1759 
z
M 3341 1997 
L 3341 0 
L 2766 0 
L 2766 531 
Q 2569 213 2275 61 
Q 1981 -91 1556 -91 
Q 1019 -91 701 211 
Q 384 513 384 1019 
Q 384 1609 779 1909 
Q 1175 2209 1959 2209 
L 2766 2209 
L 2766 2266 
Q 2766 2663 2505 2880 
Q 2244 3097 1772 3097 
Q 1472 3097 1187 3025 
Q 903 2953 641 2809 
L 641 3341 
Q 956 3463 1253 3523 
Q 1550 3584 1831 3584 
Q 2591 3584 2966 3190 
Q 3341 2797 3341 1997 
z
" transform="scale(0.015625)"/>
       <path id="DejaVuSans-66" d="M 2375 4863 
L 2375 4384 
L 1825 4384 
Q 1516 4384 1395 4259 
Q 1275 4134 1275 3809 
L 1275 3500 
L 2222 3500 
L 2222 3053 
L 1275 3053 
L 1275 0 
L 697 0 
L 697 3053 
L 147 3053 
L 147 3500 
L 697 3500 
L 697 3744 
Q 697 4328 969 4595 
Q 1241 4863 1831 4863 
L 2375 4863 
z
" transform="scale(0.015625)"/>
      </defs>
      <use xlink:href="#DejaVuSans-43"/>
      <use xlink:href="#DejaVuSans-6f" x="69.824219"/>
      <use xlink:href="#DejaVuSans-72" x="131.005859"/>
      <use xlink:href="#DejaVuSans-72" x="170.369141"/>
      <use xlink:href="#DejaVuSans-65" x="209.232422"/>
      <use xlink:href="#DejaVuSans-6c" x="270.755859"/>
      <use xlink:href="#DejaVuSans-61" x="298.539062"/>
      <use xlink:href="#DejaVuSans-74" x="359.818359"/>
      <use xlink:href="#DejaVuSans-69" x="399.027344"/>
      <use xlink:href="#DejaVuSans-6f" x="426.810547"/>
      <use xlink:href="#DejaVuSans-6e" x="487.992188"/>
      <use xlink:href="#DejaVuSans-20" x="551.371094"/>
      <use xlink:href="#DejaVuSans-63" x="583.158203"/>
      <use xlink:href="#DejaVuSans-6f" x="638.138672"/>
      <use xlink:href="#DejaVuSans-65" x="699.320312"/>
      <use xlink:href="#DejaVuSans-66" x="760.84375"/>
      <use xlink:href="#DejaVuSans-66" x="796.048828"/>
      <use xlink:href="#DejaVuSans-69" x="831.253906"/>
      <use xlink:href="#DejaVuSans-63" x="859.037109"/>
      <use xlink:href="#DejaVuSans-69" x="914.017578"/>
      <use xlink:href="#DejaVuSans-65" x="941.800781"/>
      <use xlink:href="#DejaVuSans-6e" x="1003.324219"/>
      <use xlink:href="#DejaVuSans-74" x="1066.703125"/>
     </g>
    </g>
   </g>
   <g id="line2d_16">
    <path d="M 78.938101 496.211067 
L 86.040495 493.921078 
L 93.142889 491.631088 
L 100.245283 489.341098 
L 107.347677 487.051108 
L 114.450071 484.761118 
L 121.552465 482.471128 
L 128.654859 480.181138 
L 135.757253 477.891148 
L 142.859647 475.601158 
L 149.962041 473.311168 
L 157.064435 471.021178 
L 164.166829 468.731188 
L 171.269224 466.441198 
L 178.371618 464.151208 
L 185.474012 461.861219 
L 192.576406 459.571229 
L 199.6788 457.281239 
L 206.781194 454.991249 
L 213.883588 452.701259 
L 220.985982 450.411269 
L 228.088376 448.121279 
L 235.19077 445.831289 
L 242.293164 443.541299 
L 249.395558 441.251309 
L 256.497952 438.961319 
L 263.600346 436.671329 
L 270.702741 434.381339 
L 277.805135 432.091349 
L 284.907529 429.80136 
L 292.009923 427.51137 
L 299.112317 425.22138 
L 306.214711 422.93139 
L 313.317105 420.6414 
L 320.419499 418.35141 
L 327.521893 416.06142 
L 334.624287 413.77143 
L 341.726681 411.48144 
L 348.829075 409.19145 
L 355.931469 406.90146 
L 363.033863 404.61147 
L 370.136258 402.32148 
L 377.238652 400.03149 
L 384.341046 397.7415 
L 391.44344 395.451511 
L 398.545834 393.161521 
L 405.648228 390.871531 
L 412.750622 388.581541 
L 419.853016 386.291551 
L 426.95541 384.001561 
L 434.057804 381.711571 
L 441.160198 379.421581 
L 448.262592 377.131591 
L 455.364986 374.841601 
L 462.46738 372.551611 
L 469.569775 370.261621 
L 476.672169 367.971631 
L 483.774563 365.681641 
L 490.876957 363.391652 
L 497.979351 361.101662 
L 505.081745 358.811672 
L 512.184139 356.521682 
L 519.286533 354.231692 
L 526.388927 351.941702 
L 533.491321 349.651712 
L 540.593715 347.361722 
L 547.696109 345.071732 
L 554.798503 342.781742 
L 561.900897 340.491752 
L 569.003292 338.201762 
L 576.105686 335.911772 
L 583.20808 333.621782 
L 590.310474 331.331793 
L 597.412868 329.041803 
L 604.515262 326.751813 
L 611.617656 324.461823 
L 618.72005 322.171833 
L 625.822444 319.881843 
L 632.924838 317.591853 
L 640.027232 315.301863 
L 647.129626 313.011873 
L 654.23202 310.721883 
L 661.334414 308.431893 
L 668.436809 306.141903 
L 675.539203 303.851913 
L 682.641597 301.561923 
L 689.743991 299.271933 
L 696.846385 296.981944 
L 703.948779 294.691954 
L 711.051173 292.401964 
L 718.153567 290.111974 
L 725.255961 287.821984 
L 732.358355 285.531994 
L 739.460749 283.242004 
L 746.563143 280.952014 
L 753.665537 278.662024 
L 760.767931 276.372034 
L 767.870325 274.082044 
L 774.97272 271.792054 
L 782.075114 269.502064 
" clip-path="url(#pa53edb4c25)" style="fill: none; stroke: #1f77b4; stroke-width: 2.25; stroke-linecap: square"/>
   </g>
   <g id="line2d_17">
    <path d="M 78.938101 445.46575 
L 86.040495 444.432185 
L 93.142889 443.39862 
L 100.245283 442.365055 
L 107.347677 441.33149 
L 114.450071 440.297926 
L 121.552465 439.264361 
L 128.654859 438.230796 
L 135.757253 437.197231 
L 142.859647 436.163666 
L 149.962041 435.130102 
L 157.064435 434.096537 
L 164.166829 433.062972 
L 171.269224 432.029407 
L 178.371618 430.995842 
L 185.474012 429.962277 
L 192.576406 428.928713 
L 199.6788 427.895148 
L 206.781194 426.861583 
L 213.883588 425.828018 
L 220.985982 424.794453 
L 228.088376 423.760889 
L 235.19077 422.727324 
L 242.293164 421.693759 
L 249.395558 420.660194 
L 256.497952 419.626629 
L 263.600346 418.593065 
L 270.702741 417.5595 
L 277.805135 416.525935 
L 284.907529 415.49237 
L 292.009923 414.458805 
L 299.112317 413.42524 
L 306.214711 412.391676 
L 313.317105 411.358111 
L 320.419499 410.324546 
L 327.521893 409.290981 
L 334.624287 408.257416 
L 341.726681 407.223852 
L 348.829075 406.190287 
L 355.931469 405.156722 
L 363.033863 404.123157 
L 370.136258 403.089592 
L 377.238652 402.056028 
L 384.341046 401.022463 
L 391.44344 399.988898 
L 398.545834 398.955333 
L 405.648228 397.921768 
L 412.750622 396.888203 
L 419.853016 395.854639 
L 426.95541 394.821074 
L 434.057804 393.787509 
L 441.160198 392.753944 
L 448.262592 391.720379 
L 455.364986 390.686815 
L 462.46738 389.65325 
L 469.569775 388.619685 
L 476.672169 387.58612 
L 483.774563 386.552555 
L 490.876957 385.518991 
L 497.979351 384.485426 
L 505.081745 383.451861 
L 512.184139 382.418296 
L 519.286533 381.384731 
L 526.388927 380.351167 
L 533.491321 379.317602 
L 540.593715 378.284037 
L 547.696109 377.250472 
L 554.798503 376.216907 
L 561.900897 375.183342 
L 569.003292 374.149778 
L 576.105686 373.116213 
L 583.20808 372.082648 
L 590.310474 371.049083 
L 597.412868 370.015518 
L 604.515262 368.981954 
L 611.617656 367.948389 
L 618.72005 366.914824 
L 625.822444 365.881259 
L 632.924838 364.847694 
L 640.027232 363.81413 
L 647.129626 362.780565 
L 654.23202 361.747 
L 661.334414 360.713435 
L 668.436809 359.67987 
L 675.539203 358.646305 
L 682.641597 357.612741 
L 689.743991 356.579176 
L 696.846385 355.545611 
L 703.948779 354.512046 
L 711.051173 353.478481 
L 718.153567 352.444917 
L 725.255961 351.411352 
L 732.358355 350.377787 
L 739.460749 349.344222 
L 746.563143 348.310657 
L 753.665537 347.277093 
L 760.767931 346.243528 
L 767.870325 345.209963 
L 774.97272 344.176398 
L 782.075114 343.142833 
" clip-path="url(#pa53edb4c25)" style="fill: none; stroke: #ff7f0e; stroke-width: 2.25; stroke-linecap: square"/>
   </g>
   <g id="patch_3">
    <path d="M 43.78125 642.866667 
L 43.78125 151.965714 
" style="fill: none; stroke: #000000; stroke-width: 0.8; stroke-linejoin: miter; stroke-linecap: square"/>
   </g>
   <g id="patch_4">
    <path d="M 43.78125 642.866667 
L 817.231964 642.866667 
" style="fill: none; stroke: #000000; stroke-width: 0.8; stroke-linejoin: miter; stroke-linecap: square"/>
   </g>
   <g id="legend_1">
    <g id="patch_5">
     <path d="M 704.119464 637.866667 
L 810.231964 637.866667 
Q 812.231964 637.866667 812.231964 635.866667 
L 812.231964 607.510417 
Q 812.231964 605.510417 810.231964 605.510417 
L 704.119464 605.510417 
Q 702.119464 605.510417 702.119464 607.510417 
L 702.119464 635.866667 
Q 702.119464 637.866667 704.119464 637.866667 
z
" style="fill: #ffffff; opacity: 0.8; stroke: #cccccc; stroke-linejoin: miter"/>
    </g>
    <g id="PathCollection_3">
     <g>
      <use xlink:href="#meb2f9e09af" x="716.119464" y="614.483854" style="fill: #4169e1; fill-opacity: 0.5; stroke: #000000; stroke-opacity: 0.5"/>
     </g>
    </g>
    <g id="text_18">
     <!-- Codon number -->
     <g transform="translate(734.119464 617.108854) scale(0.1 -0.1)">
      <defs>
       <path id="DejaVuSans-64" d="M 2906 2969 
L 2906 4863 
L 3481 4863 
L 3481 0 
L 2906 0 
L 2906 525 
Q 2725 213 2448 61 
Q 2172 -91 1784 -91 
Q 1150 -91 751 415 
Q 353 922 353 1747 
Q 353 2572 751 3078 
Q 1150 3584 1784 3584 
Q 2172 3584 2448 3432 
Q 2725 3281 2906 2969 
z
M 947 1747 
Q 947 1113 1208 752 
Q 1469 391 1925 391 
Q 2381 391 2643 752 
Q 2906 1113 2906 1747 
Q 2906 2381 2643 2742 
Q 2381 3103 1925 3103 
Q 1469 3103 1208 2742 
Q 947 2381 947 1747 
z
" transform="scale(0.015625)"/>
       <path id="DejaVuSans-75" d="M 544 1381 
L 544 3500 
L 1119 3500 
L 1119 1403 
Q 1119 906 1312 657 
Q 1506 409 1894 409 
Q 2359 409 2629 706 
Q 2900 1003 2900 1516 
L 2900 3500 
L 3475 3500 
L 3475 0 
L 2900 0 
L 2900 538 
Q 2691 219 2414 64 
Q 2138 -91 1772 -91 
Q 1169 -91 856 284 
Q 544 659 544 1381 
z
M 1991 3584 
L 1991 3584 
z
" transform="scale(0.015625)"/>
       <path id="DejaVuSans-62" d="M 3116 1747 
Q 3116 2381 2855 2742 
Q 2594 3103 2138 3103 
Q 1681 3103 1420 2742 
Q 1159 2381 1159 1747 
Q 1159 1113 1420 752 
Q 1681 391 2138 391 
Q 2594 391 2855 752 
Q 3116 1113 3116 1747 
z
M 1159 2969 
Q 1341 3281 1617 3432 
Q 1894 3584 2278 3584 
Q 2916 3584 3314 3078 
Q 3713 2572 3713 1747 
Q 3713 922 3314 415 
Q 2916 -91 2278 -91 
Q 1894 -91 1617 61 
Q 1341 213 1159 525 
L 1159 0 
L 581 0 
L 581 4863 
L 1159 4863 
L 1159 2969 
z
" transform="scale(0.015625)"/>
      </defs>
      <use xlink:href="#DejaVuSans-43"/>
      <use xlink:href="#DejaVuSans-6f" x="69.824219"/>
      <use xlink:href="#DejaVuSans-64" x="131.005859"/>
      <use xlink:href="#DejaVuSans-6f" x="194.482422"/>
      <use xlink:href="#DejaVuSans-6e" x="255.664062"/>
      <use xlink:href="#DejaVuSans-20" x="319.042969"/>
      <use xlink:href="#DejaVuSans-6e" x="350.830078"/>
      <use xlink:href="#DejaVuSans-75" x="414.208984"/>
      <use xlink:href="#DejaVuSans-6d" x="477.587891"/>
      <use xlink:href="#DejaVuSans-62" x="575"/>
      <use xlink:href="#DejaVuSans-65" x="638.476562"/>
      <use xlink:href="#DejaVuSans-72" x="700"/>
     </g>
    </g>
    <g id="PathCollection_4">
     <g>
      <use xlink:href="#mc50cb5676d" x="716.119464" y="629.161979" style="fill: #ff8c00; fill-opacity: 0.5; stroke: #000000; stroke-opacity: 0.5"/>
     </g>
    </g>
    <g id="text_19">
     <!-- Codon+GC -->
     <g transform="translate(734.119464 631.786979) scale(0.1 -0.1)">
      <defs>
       <path id="DejaVuSans-2b" d="M 2944 4013 
L 2944 2272 
L 4684 2272 
L 4684 1741 
L 2944 1741 
L 2944 0 
L 2419 0 
L 2419 1741 
L 678 1741 
L 678 2272 
L 2419 2272 
L 2419 4013 
L 2944 4013 
z
" transform="scale(0.015625)"/>
      </defs>
      <use xlink:href="#DejaVuSans-43"/>
      <use xlink:href="#DejaVuSans-6f" x="69.824219"/>
      <use xlink:href="#DejaVuSans-64" x="131.005859"/>
      <use xlink:href="#DejaVuSans-6f" x="194.482422"/>
      <use xlink:href="#DejaVuSans-6e" x="255.664062"/>
      <use xlink:href="#DejaVuSans-2b" x="319.042969"/>
      <use xlink:href="#DejaVuSans-47" x="402.832031"/>
      <use xlink:href="#DejaVuSans-43" x="480.322266"/>
     </g>
    </g>
   </g>
  </g>
  <g id="axes_2">
   <g id="patch_6">
    <path d="M 43.78125 135.038095 
L 817.231964 135.038095 
L 817.231964 50.4 
L 43.78125 50.4 
z
" style="fill: #ffffff"/>
   </g>
   <g id="PolyCollection_3">
    <defs>
     <path id="mb0e4af65d4" d="M 78.938101 -607.390752 
L 78.938101 -545.384821 
L 166.830227 -545.384821 
L 166.830227 -545.384821 
L 254.722354 -545.384821 
L 254.722354 -545.384821 
L 342.614481 -545.384821 
L 342.614481 -545.384821 
L 430.506607 -545.384821 
L 430.506607 -545.384821 
L 518.398734 -545.384821 
L 518.398734 -545.384821 
L 606.29086 -545.384821 
L 606.29086 -545.384821 
L 694.182987 -545.384821 
L 694.182987 -545.384821 
L 782.075114 -545.384821 
L 782.075114 -545.384821 
L 782.075114 -582.58838 
L 782.075114 -582.58838 
L 782.075114 -582.58838 
L 694.182987 -582.58838 
L 694.182987 -588.788973 
L 606.29086 -588.788973 
L 606.29086 -625.992531 
L 518.398734 -625.992531 
L 518.398734 -594.989566 
L 430.506607 -594.989566 
L 430.506607 -601.190159 
L 342.614481 -601.190159 
L 342.614481 -588.788973 
L 254.722354 -588.788973 
L 254.722354 -588.788973 
L 166.830227 -588.788973 
L 166.830227 -607.390752 
L 78.938101 -607.390752 
z
" style="stroke: #000000"/>
    </defs>
    <g clip-path="url(#pcafd903267)">
     <use xlink:href="#mb0e4af65d4" x="0" y="680.422917" style="fill: #800080; fill-opacity: 0.75; stroke: #000000"/>
    </g>
   </g>
   <g id="matplotlib.axis_3">
    <g id="xtick_10">
     <g id="line2d_18">
      <g>
       <use xlink:href="#m7905e128a3" x="56.567963" y="135.038095" style="stroke: #000000; stroke-width: 0.8"/>
      </g>
     </g>
    </g>
    <g id="xtick_11">
     <g id="line2d_19">
      <g>
       <use xlink:href="#m7905e128a3" x="150.809588" y="135.038095" style="stroke: #000000; stroke-width: 0.8"/>
      </g>
     </g>
    </g>
    <g id="xtick_12">
     <g id="line2d_20">
      <g>
       <use xlink:href="#m7905e128a3" x="245.051214" y="135.038095" style="stroke: #000000; stroke-width: 0.8"/>
      </g>
     </g>
    </g>
    <g id="xtick_13">
     <g id="line2d_21">
      <g>
       <use xlink:href="#m7905e128a3" x="339.29284" y="135.038095" style="stroke: #000000; stroke-width: 0.8"/>
      </g>
     </g>
    </g>
    <g id="xtick_14">
     <g id="line2d_22">
      <g>
       <use xlink:href="#m7905e128a3" x="433.534466" y="135.038095" style="stroke: #000000; stroke-width: 0.8"/>
      </g>
     </g>
    </g>
    <g id="xtick_15">
     <g id="line2d_23">
      <g>
       <use xlink:href="#m7905e128a3" x="527.776091" y="135.038095" style="stroke: #000000; stroke-width: 0.8"/>
      </g>
     </g>
    </g>
    <g id="xtick_16">
     <g id="line2d_24">
      <g>
       <use xlink:href="#m7905e128a3" x="622.017717" y="135.038095" style="stroke: #000000; stroke-width: 0.8"/>
      </g>
     </g>
    </g>
    <g id="xtick_17">
     <g id="line2d_25">
      <g>
       <use xlink:href="#m7905e128a3" x="716.259343" y="135.038095" style="stroke: #000000; stroke-width: 0.8"/>
      </g>
     </g>
    </g>
    <g id="xtick_18">
     <g id="line2d_26">
      <g>
       <use xlink:href="#m7905e128a3" x="810.500969" y="135.038095" style="stroke: #000000; stroke-width: 0.8"/>
      </g>
     </g>
    </g>
   </g>
   <g id="matplotlib.axis_4">
    <g id="ytick_7"/>
    <g id="ytick_8"/>
    <g id="ytick_9"/>
   </g>
   <g id="patch_7">
    <path d="M 43.78125 135.038095 
L 817.231964 135.038095 
" style="fill: none; stroke: #000000; stroke-width: 0.8; stroke-linejoin: miter; stroke-linecap: square"/>
   </g>
  </g>
  <g id="axes_3">
   <g id="patch_8">
    <path d="M 843.902679 642.866667 
L 977.25625 642.866667 
L 977.25625 151.965714 
L 843.902679 151.965714 
z
" style="fill: #ffffff"/>
   </g>
   <g id="PolyCollection_4">
    <defs>
     <path id="m31f80eea3f" d="M 866.685315 -67.904796 
L 849.964205 -67.904796 
L 849.964205 -67.904796 
L 849.964205 -130.510328 
L 849.964205 -130.510328 
L 849.964205 -193.11586 
L 849.964205 -193.11586 
L 849.964205 -255.721393 
L 849.964205 -255.721393 
L 849.964205 -318.326925 
L 849.964205 -318.326925 
L 849.964205 -380.932458 
L 849.964205 -380.932458 
L 849.964205 -443.53799 
L 872.259019 -443.53799 
L 872.259019 -443.53799 
L 872.259019 -380.932458 
L 894.553833 -380.932458 
L 894.553833 -318.326925 
L 961.438275 -318.326925 
L 961.438275 -255.721393 
L 916.848647 -255.721393 
L 916.848647 -193.11586 
L 911.274944 -193.11586 
L 911.274944 -130.510328 
L 900.127536 -130.510328 
L 900.127536 -67.904796 
L 866.685315 -67.904796 
z
" style="stroke: #000000; stroke-opacity: 0.5"/>
    </defs>
    <g clip-path="url(#p14c03cb499)">
     <use xlink:href="#m31f80eea3f" x="0" y="680.422917" style="fill: #4169e1; fill-opacity: 0.5; stroke: #000000; stroke-opacity: 0.5"/>
    </g>
   </g>
   <g id="PolyCollection_5">
    <defs>
     <path id="m575d2e0b87" d="M 869.105866 -59.86993 
L 849.964205 -59.86993 
L 849.964205 -59.86993 
L 849.964205 -114.558707 
L 849.964205 -114.558707 
L 849.964205 -169.247484 
L 849.964205 -169.247484 
L 849.964205 -223.936262 
L 849.964205 -223.936262 
L 849.964205 -278.625039 
L 849.964205 -278.625039 
L 849.964205 -333.313816 
L 849.964205 -333.313816 
L 849.964205 -388.002594 
L 888.247526 -388.002594 
L 888.247526 -388.002594 
L 888.247526 -333.313816 
L 939.291956 -333.313816 
L 939.291956 -278.625039 
L 971.194724 -278.625039 
L 971.194724 -223.936262 
L 939.291956 -223.936262 
L 939.291956 -169.247484 
L 901.008634 -169.247484 
L 901.008634 -114.558707 
L 869.105866 -114.558707 
L 869.105866 -59.86993 
L 869.105866 -59.86993 
z
" style="stroke: #000000; stroke-opacity: 0.5"/>
    </defs>
    <g clip-path="url(#p14c03cb499)">
     <use xlink:href="#m575d2e0b87" x="0" y="680.422917" style="fill: #ff8c00; fill-opacity: 0.5; stroke: #000000; stroke-opacity: 0.5"/>
    </g>
   </g>
   <g id="matplotlib.axis_5">
    <g id="xtick_19"/>
    <g id="xtick_20"/>
    <g id="xtick_21"/>
   </g>
   <g id="matplotlib.axis_6">
    <g id="ytick_10">
     <g id="line2d_27">
      <g>
       <use xlink:href="#m9c44f0216f" x="843.902679" y="596.053353" style="stroke: #000000; stroke-width: 0.8"/>
      </g>
     </g>
    </g>
    <g id="ytick_11">
     <g id="line2d_28">
      <g>
       <use xlink:href="#m9c44f0216f" x="843.902679" y="521.133814" style="stroke: #000000; stroke-width: 0.8"/>
      </g>
     </g>
    </g>
    <g id="ytick_12">
     <g id="line2d_29">
      <g>
       <use xlink:href="#m9c44f0216f" x="843.902679" y="446.214274" style="stroke: #000000; stroke-width: 0.8"/>
      </g>
     </g>
    </g>
    <g id="ytick_13">
     <g id="line2d_30">
      <g>
       <use xlink:href="#m9c44f0216f" x="843.902679" y="371.294734" style="stroke: #000000; stroke-width: 0.8"/>
      </g>
     </g>
    </g>
    <g id="ytick_14">
     <g id="line2d_31">
      <g>
       <use xlink:href="#m9c44f0216f" x="843.902679" y="296.375194" style="stroke: #000000; stroke-width: 0.8"/>
      </g>
     </g>
    </g>
    <g id="ytick_15">
     <g id="line2d_32">
      <g>
       <use xlink:href="#m9c44f0216f" x="843.902679" y="221.455655" style="stroke: #000000; stroke-width: 0.8"/>
      </g>
     </g>
    </g>
   </g>
   <g id="patch_9">
    <path d="M 843.902679 642.866667 
L 843.902679 151.965714 
" style="fill: none; stroke: #000000; stroke-width: 0.8; stroke-linejoin: miter; stroke-linecap: square"/>
   </g>
  </g>
  <g id="text_20">
   <!-- Archaea - Spearman correlation coefficients for genetic code: AM -->
   <g transform="translate(268.560625 16.318125) scale(0.12 -0.12)">
    <defs>
     <path id="DejaVuSans-41" d="M 2188 4044 
L 1331 1722 
L 3047 1722 
L 2188 4044 
z
M 1831 4666 
L 2547 4666 
L 4325 0 
L 3669 0 
L 3244 1197 
L 1141 1197 
L 716 0 
L 50 0 
L 1831 4666 
z
" transform="scale(0.015625)"/>
     <path id="DejaVuSans-68" d="M 3513 2113 
L 3513 0 
L 2938 0 
L 2938 2094 
Q 2938 2591 2744 2837 
Q 2550 3084 2163 3084 
Q 1697 3084 1428 2787 
Q 1159 2491 1159 1978 
L 1159 0 
L 581 0 
L 581 4863 
L 1159 4863 
L 1159 2956 
Q 1366 3272 1645 3428 
Q 1925 3584 2291 3584 
Q 2894 3584 3203 3211 
Q 3513 2838 3513 2113 
z
" transform="scale(0.015625)"/>
     <path id="DejaVuSans-2d" d="M 313 2009 
L 1997 2009 
L 1997 1497 
L 313 1497 
L 313 2009 
z
" transform="scale(0.015625)"/>
     <path id="DejaVuSans-53" d="M 3425 4513 
L 3425 3897 
Q 3066 4069 2747 4153 
Q 2428 4238 2131 4238 
Q 1616 4238 1336 4038 
Q 1056 3838 1056 3469 
Q 1056 3159 1242 3001 
Q 1428 2844 1947 2747 
L 2328 2669 
Q 3034 2534 3370 2195 
Q 3706 1856 3706 1288 
Q 3706 609 3251 259 
Q 2797 -91 1919 -91 
Q 1588 -91 1214 -16 
Q 841 59 441 206 
L 441 856 
Q 825 641 1194 531 
Q 1563 422 1919 422 
Q 2459 422 2753 634 
Q 3047 847 3047 1241 
Q 3047 1584 2836 1778 
Q 2625 1972 2144 2069 
L 1759 2144 
Q 1053 2284 737 2584 
Q 422 2884 422 3419 
Q 422 4038 858 4394 
Q 1294 4750 2059 4750 
Q 2388 4750 2728 4690 
Q 3069 4631 3425 4513 
z
" transform="scale(0.015625)"/>
     <path id="DejaVuSans-70" d="M 1159 525 
L 1159 -1331 
L 581 -1331 
L 581 3500 
L 1159 3500 
L 1159 2969 
Q 1341 3281 1617 3432 
Q 1894 3584 2278 3584 
Q 2916 3584 3314 3078 
Q 3713 2572 3713 1747 
Q 3713 922 3314 415 
Q 2916 -91 2278 -91 
Q 1894 -91 1617 61 
Q 1341 213 1159 525 
z
M 3116 1747 
Q 3116 2381 2855 2742 
Q 2594 3103 2138 3103 
Q 1681 3103 1420 2742 
Q 1159 2381 1159 1747 
Q 1159 1113 1420 752 
Q 1681 391 2138 391 
Q 2594 391 2855 752 
Q 3116 1113 3116 1747 
z
" transform="scale(0.015625)"/>
     <path id="DejaVuSans-73" d="M 2834 3397 
L 2834 2853 
Q 2591 2978 2328 3040 
Q 2066 3103 1784 3103 
Q 1356 3103 1142 2972 
Q 928 2841 928 2578 
Q 928 2378 1081 2264 
Q 1234 2150 1697 2047 
L 1894 2003 
Q 2506 1872 2764 1633 
Q 3022 1394 3022 966 
Q 3022 478 2636 193 
Q 2250 -91 1575 -91 
Q 1294 -91 989 -36 
Q 684 19 347 128 
L 347 722 
Q 666 556 975 473 
Q 1284 391 1588 391 
Q 1994 391 2212 530 
Q 2431 669 2431 922 
Q 2431 1156 2273 1281 
Q 2116 1406 1581 1522 
L 1381 1569 
Q 847 1681 609 1914 
Q 372 2147 372 2553 
Q 372 3047 722 3315 
Q 1072 3584 1716 3584 
Q 2034 3584 2315 3537 
Q 2597 3491 2834 3397 
z
" transform="scale(0.015625)"/>
     <path id="DejaVuSans-67" d="M 2906 1791 
Q 2906 2416 2648 2759 
Q 2391 3103 1925 3103 
Q 1463 3103 1205 2759 
Q 947 2416 947 1791 
Q 947 1169 1205 825 
Q 1463 481 1925 481 
Q 2391 481 2648 825 
Q 2906 1169 2906 1791 
z
M 3481 434 
Q 3481 -459 3084 -895 
Q 2688 -1331 1869 -1331 
Q 1566 -1331 1297 -1286 
Q 1028 -1241 775 -1147 
L 775 -588 
Q 1028 -725 1275 -790 
Q 1522 -856 1778 -856 
Q 2344 -856 2625 -561 
Q 2906 -266 2906 331 
L 2906 616 
Q 2728 306 2450 153 
Q 2172 0 1784 0 
Q 1141 0 747 490 
Q 353 981 353 1791 
Q 353 2603 747 3093 
Q 1141 3584 1784 3584 
Q 2172 3584 2450 3431 
Q 2728 3278 2906 2969 
L 2906 3500 
L 3481 3500 
L 3481 434 
z
" transform="scale(0.015625)"/>
     <path id="DejaVuSans-3a" d="M 750 794 
L 1409 794 
L 1409 0 
L 750 0 
L 750 794 
z
M 750 3309 
L 1409 3309 
L 1409 2516 
L 750 2516 
L 750 3309 
z
" transform="scale(0.015625)"/>
     <path id="DejaVuSans-4d" d="M 628 4666 
L 1569 4666 
L 2759 1491 
L 3956 4666 
L 4897 4666 
L 4897 0 
L 4281 0 
L 4281 4097 
L 3078 897 
L 2444 897 
L 1241 4097 
L 1241 0 
L 628 0 
L 628 4666 
z
" transform="scale(0.015625)"/>
    </defs>
    <use xlink:href="#DejaVuSans-41"/>
    <use xlink:href="#DejaVuSans-72" x="68.408203"/>
    <use xlink:href="#DejaVuSans-63" x="107.271484"/>
    <use xlink:href="#DejaVuSans-68" x="162.251953"/>
    <use xlink:href="#DejaVuSans-61" x="225.630859"/>
    <use xlink:href="#DejaVuSans-65" x="286.910156"/>
    <use xlink:href="#DejaVuSans-61" x="348.433594"/>
    <use xlink:href="#DejaVuSans-20" x="409.712891"/>
    <use xlink:href="#DejaVuSans-2d" x="441.5"/>
    <use xlink:href="#DejaVuSans-20" x="477.583984"/>
    <use xlink:href="#DejaVuSans-53" x="509.371094"/>
    <use xlink:href="#DejaVuSans-70" x="572.847656"/>
    <use xlink:href="#DejaVuSans-65" x="636.324219"/>
    <use xlink:href="#DejaVuSans-61" x="697.847656"/>
    <use xlink:href="#DejaVuSans-72" x="759.126953"/>
    <use xlink:href="#DejaVuSans-6d" x="798.490234"/>
    <use xlink:href="#DejaVuSans-61" x="895.902344"/>
    <use xlink:href="#DejaVuSans-6e" x="957.181641"/>
    <use xlink:href="#DejaVuSans-20" x="1020.560547"/>
    <use xlink:href="#DejaVuSans-63" x="1052.347656"/>
    <use xlink:href="#DejaVuSans-6f" x="1107.328125"/>
    <use xlink:href="#DejaVuSans-72" x="1168.509766"/>
    <use xlink:href="#DejaVuSans-72" x="1207.873047"/>
    <use xlink:href="#DejaVuSans-65" x="1246.736328"/>
    <use xlink:href="#DejaVuSans-6c" x="1308.259766"/>
    <use xlink:href="#DejaVuSans-61" x="1336.042969"/>
    <use xlink:href="#DejaVuSans-74" x="1397.322266"/>
    <use xlink:href="#DejaVuSans-69" x="1436.53125"/>
    <use xlink:href="#DejaVuSans-6f" x="1464.314453"/>
    <use xlink:href="#DejaVuSans-6e" x="1525.496094"/>
    <use xlink:href="#DejaVuSans-20" x="1588.875"/>
    <use xlink:href="#DejaVuSans-63" x="1620.662109"/>
    <use xlink:href="#DejaVuSans-6f" x="1675.642578"/>
    <use xlink:href="#DejaVuSans-65" x="1736.824219"/>
    <use xlink:href="#DejaVuSans-66" x="1798.347656"/>
    <use xlink:href="#DejaVuSans-66" x="1833.552734"/>
    <use xlink:href="#DejaVuSans-69" x="1868.757812"/>
    <use xlink:href="#DejaVuSans-63" x="1896.541016"/>
    <use xlink:href="#DejaVuSans-69" x="1951.521484"/>
    <use xlink:href="#DejaVuSans-65" x="1979.304688"/>
    <use xlink:href="#DejaVuSans-6e" x="2040.828125"/>
    <use xlink:href="#DejaVuSans-74" x="2104.207031"/>
    <use xlink:href="#DejaVuSans-73" x="2143.416016"/>
    <use xlink:href="#DejaVuSans-20" x="2195.515625"/>
    <use xlink:href="#DejaVuSans-66" x="2227.302734"/>
    <use xlink:href="#DejaVuSans-6f" x="2262.507812"/>
    <use xlink:href="#DejaVuSans-72" x="2323.689453"/>
    <use xlink:href="#DejaVuSans-20" x="2364.802734"/>
    <use xlink:href="#DejaVuSans-67" x="2396.589844"/>
    <use xlink:href="#DejaVuSans-65" x="2460.066406"/>
    <use xlink:href="#DejaVuSans-6e" x="2521.589844"/>
    <use xlink:href="#DejaVuSans-65" x="2584.96875"/>
    <use xlink:href="#DejaVuSans-74" x="2646.492188"/>
    <use xlink:href="#DejaVuSans-69" x="2685.701172"/>
    <use xlink:href="#DejaVuSans-63" x="2713.484375"/>
    <use xlink:href="#DejaVuSans-20" x="2768.464844"/>
    <use xlink:href="#DejaVuSans-63" x="2800.251953"/>
    <use xlink:href="#DejaVuSans-6f" x="2855.232422"/>
    <use xlink:href="#DejaVuSans-64" x="2916.414062"/>
    <use xlink:href="#DejaVuSans-65" x="2979.890625"/>
    <use xlink:href="#DejaVuSans-3a" x="3041.414062"/>
    <use xlink:href="#DejaVuSans-20" x="3075.105469"/>
    <use xlink:href="#DejaVuSans-41" x="3106.892578"/>
    <use xlink:href="#DejaVuSans-4d" x="3175.300781"/>
   </g>
  </g>
 </g>
 <defs>
  <clipPath id="pa53edb4c25">
   <rect x="43.78125" y="151.965714" width="773.450714" height="490.900952"/>
  </clipPath>
  <clipPath id="pcafd903267">
   <rect x="43.78125" y="50.4" width="773.450714" height="84.638095"/>
  </clipPath>
  <clipPath id="p14c03cb499">
   <rect x="843.902679" y="151.965714" width="133.353571" height="490.900952"/>
  </clipPath>
 </defs>
</svg>
