<?xml version="1.0" encoding="utf-8" standalone="no"?>
<!DOCTYPE svg PUBLIC "-//W3C//DTD SVG 1.1//EN"
  "http://www.w3.org/Graphics/SVG/1.1/DTD/svg11.dtd">
<svg xmlns:xlink="http://www.w3.org/1999/xlink" width="887.98125pt" height="635.878125pt" viewBox="0 0 887.98125 635.878125" xmlns="http://www.w3.org/2000/svg" version="1.1">
 <metadata>
  <rdf:RDF xmlns:dc="http://purl.org/dc/elements/1.1/" xmlns:cc="http://creativecommons.org/ns#" xmlns:rdf="http://www.w3.org/1999/02/22-rdf-syntax-ns#">
   <cc:Work>
    <dc:type rdf:resource="http://purl.org/dc/dcmitype/StillImage"/>
    <dc:date>2024-09-24T17:06:19.202981</dc:date>
    <dc:format>image/svg+xml</dc:format>
    <dc:creator>
     <cc:Agent>
      <dc:title>Matplotlib v3.8.3, https://matplotlib.org/</dc:title>
     </cc:Agent>
    </dc:creator>
   </cc:Work>
  </rdf:RDF>
 </metadata>
 <defs>
  <style type="text/css">*{stroke-linejoin: round; stroke-linecap: butt}</style>
 </defs>
 <g id="figure_1">
  <g id="patch_1">
   <path d="M 0 635.878125 
L 887.98125 635.878125 
L 887.98125 0 
L 0 0 
z
" style="fill: #ffffff"/>
  </g>
  <g id="axes_1">
   <g id="patch_2">
    <path d="M 43.78125 298.643478 
L 880.78125 298.643478 
L 880.78125 57.6 
L 43.78125 57.6 
z
" style="fill: #ffffff"/>
   </g>
   <g id="PolyCollection_1">
    <defs>
     <path id="mfb4cda4000" d="M 128.130321 -337.256799 
L 128.130321 -337.234647 
L 131.710218 -337.234647 
L 135.290116 -337.234647 
L 138.870013 -337.234647 
L 142.44991 -337.234647 
L 146.029808 -337.234647 
L 149.609705 -337.234647 
L 153.189603 -337.234647 
L 156.7695 -337.234647 
L 160.349397 -337.234647 
L 163.929295 -337.234647 
L 167.509192 -337.234647 
L 171.08909 -337.234647 
L 174.668987 -337.234647 
L 178.248884 -337.234647 
L 181.828782 -337.234647 
L 185.408679 -337.234647 
L 188.988576 -337.234647 
L 192.568474 -337.234647 
L 196.148371 -337.234647 
L 199.728269 -337.234647 
L 203.308166 -337.234647 
L 206.888063 -337.234647 
L 210.467961 -337.234647 
L 214.047858 -337.234647 
L 217.627756 -337.234647 
L 221.207653 -337.234647 
L 224.78755 -337.234647 
L 228.367448 -337.234647 
L 231.947345 -337.234647 
L 235.527242 -337.234647 
L 239.10714 -337.234647 
L 242.687037 -337.234647 
L 246.266935 -337.234647 
L 249.846832 -337.234647 
L 253.426729 -337.234647 
L 257.006627 -337.234647 
L 260.586524 -337.234647 
L 264.166421 -337.234647 
L 267.746319 -337.234647 
L 271.326216 -337.234647 
L 274.906114 -337.234647 
L 278.486011 -337.234647 
L 282.065908 -337.234647 
L 285.645806 -337.234647 
L 289.225703 -337.234647 
L 292.805601 -337.234647 
L 296.385498 -337.234647 
L 299.965395 -337.234647 
L 303.545293 -337.234647 
L 307.12519 -337.234647 
L 310.705087 -337.234647 
L 314.284985 -337.234647 
L 317.864882 -337.234647 
L 321.44478 -337.234647 
L 325.024677 -337.234647 
L 328.604574 -337.234647 
L 332.184472 -337.234647 
L 335.764369 -337.234647 
L 339.344267 -337.234647 
L 342.924164 -337.234647 
L 346.504061 -337.234647 
L 350.083959 -337.234647 
L 353.663856 -337.234647 
L 357.243753 -337.234647 
L 360.823651 -337.234647 
L 364.403548 -337.234647 
L 367.983446 -337.234647 
L 371.563343 -337.234647 
L 375.14324 -337.234647 
L 378.723138 -337.234647 
L 382.303035 -337.234647 
L 385.882933 -337.234647 
L 389.46283 -337.234647 
L 393.042727 -337.234647 
L 396.622625 -337.234647 
L 400.202522 -337.234647 
L 403.782419 -337.234647 
L 407.362317 -337.234647 
L 410.942214 -337.234647 
L 414.522112 -337.234647 
L 418.102009 -337.234647 
L 421.681906 -337.234647 
L 425.261804 -337.234647 
L 428.841701 -337.234647 
L 432.421598 -337.234647 
L 436.001496 -337.234647 
L 439.581393 -337.234647 
L 443.161291 -337.234647 
L 446.741188 -337.234647 
L 450.321085 -337.234647 
L 453.900983 -337.234647 
L 457.48088 -337.234647 
L 461.060778 -337.234647 
L 464.640675 -337.234647 
L 468.220572 -337.234647 
L 471.80047 -337.234647 
L 475.380367 -337.234647 
L 478.960264 -337.234647 
L 482.540162 -337.234647 
L 486.120059 -337.234647 
L 489.699957 -337.234647 
L 493.279854 -337.234647 
L 496.859751 -337.234647 
L 500.439649 -337.234647 
L 504.019546 -337.234647 
L 507.599444 -337.234647 
L 511.179341 -337.234647 
L 514.759238 -337.234647 
L 518.339136 -337.234647 
L 521.919033 -337.234647 
L 525.49893 -337.234647 
L 529.078828 -337.234647 
L 532.658725 -337.234647 
L 536.238623 -337.234647 
L 539.81852 -337.234647 
L 543.398417 -337.234647 
L 546.978315 -337.234647 
L 550.558212 -337.234647 
L 554.13811 -337.234647 
L 557.718007 -337.234647 
L 561.297904 -337.234647 
L 564.877802 -337.234647 
L 568.457699 -337.234647 
L 572.037596 -337.234647 
L 575.617494 -337.234647 
L 579.197391 -337.234647 
L 582.777289 -337.234647 
L 586.357186 -337.234647 
L 589.937083 -337.234647 
L 593.516981 -337.234647 
L 597.096878 -337.234647 
L 600.676775 -337.234647 
L 604.256673 -337.234647 
L 607.83657 -337.234647 
L 611.416468 -337.234647 
L 614.996365 -337.234647 
L 618.576262 -337.234647 
L 622.15616 -337.234647 
L 625.736057 -337.234647 
L 629.315955 -337.234647 
L 632.895852 -337.234647 
L 636.475749 -337.234647 
L 640.055647 -337.234647 
L 643.635544 -337.234647 
L 647.215441 -337.234647 
L 650.795339 -337.234647 
L 654.375236 -337.234647 
L 657.955134 -337.234647 
L 661.535031 -337.234647 
L 665.114928 -337.234647 
L 668.694826 -337.234647 
L 672.274723 -337.234647 
L 675.854621 -337.234647 
L 679.434518 -337.234647 
L 683.014415 -337.234647 
L 686.594313 -337.234647 
L 690.17421 -337.234647 
L 693.754107 -337.234647 
L 697.334005 -337.234647 
L 700.913902 -337.234647 
L 704.4938 -337.234647 
L 708.073697 -337.234647 
L 711.653594 -337.234647 
L 715.233492 -337.234647 
L 718.813389 -337.234647 
L 722.393287 -337.234647 
L 725.973184 -337.234647 
L 729.553081 -337.234647 
L 733.132979 -337.234647 
L 736.712876 -337.234647 
L 740.292773 -337.234647 
L 743.872671 -337.234647 
L 747.452568 -337.234647 
L 751.032466 -337.234647 
L 754.612363 -337.234647 
L 758.19226 -337.234647 
L 761.772158 -337.234647 
L 765.352055 -337.234647 
L 768.931952 -337.234647 
L 772.51185 -337.234647 
L 776.091747 -337.234647 
L 779.671645 -337.234647 
L 783.251542 -337.234647 
L 786.831439 -337.234647 
L 790.411337 -337.234647 
L 793.991234 -337.234647 
L 797.571132 -337.234647 
L 801.151029 -337.234647 
L 804.730926 -337.234647 
L 808.310824 -337.234647 
L 811.890721 -337.234647 
L 815.470618 -337.234647 
L 819.050516 -337.234647 
L 822.630413 -337.234647 
L 826.210311 -337.234647 
L 829.790208 -337.234647 
L 833.370105 -337.234647 
L 836.950003 -337.234647 
L 840.5299 -337.234647 
L 840.5299 -337.253271 
L 840.5299 -337.253271 
L 836.950003 -337.262443 
L 833.370105 -337.275534 
L 829.790208 -337.293931 
L 826.210311 -337.319396 
L 822.630413 -337.354117 
L 819.050516 -337.400764 
L 815.470618 -337.462525 
L 811.890721 -337.543133 
L 808.310824 -337.646875 
L 804.730926 -337.778571 
L 801.151029 -337.94354 
L 797.571132 -338.147539 
L 793.991234 -338.39669 
L 790.411337 -338.697407 
L 786.831439 -339.05633 
L 783.251542 -339.480296 
L 779.671645 -339.976361 
L 776.091747 -340.551899 
L 772.51185 -341.214799 
L 768.931952 -341.973778 
L 765.352055 -342.838814 
L 761.772158 -343.821704 
L 758.19226 -344.93671 
L 754.612363 -346.201272 
L 751.032466 -347.636724 
L 747.452568 -349.268929 
L 743.872671 -351.128755 
L 740.292773 -353.252281 
L 736.712876 -355.680633 
L 733.132979 -358.459366 
L 729.553081 -361.637319 
L 725.973184 -365.2649 
L 722.393287 -369.391836 
L 718.813389 -374.064426 
L 715.233492 -379.322443 
L 711.653594 -385.195846 
L 708.073697 -391.701539 
L 704.4938 -398.84043 
L 700.913902 -406.595048 
L 697.334005 -414.927975 
L 693.754107 -423.781295 
L 690.17421 -433.077188 
L 686.594313 -442.71971 
L 683.014415 -452.597705 
L 679.434518 -462.588659 
L 675.854621 -472.563269 
L 672.274723 -482.390364 
L 668.694826 -491.941859 
L 665.114928 -501.097359 
L 661.535031 -509.748136 
L 657.955134 -517.80024 
L 654.375236 -525.176626 
L 650.795339 -531.818273 
L 647.215441 -537.68438 
L 643.635544 -542.751779 
L 640.055647 -547.013769 
L 636.475749 -550.478571 
L 632.895852 -553.167582 
L 629.315955 -555.113577 
L 625.736057 -556.358936 
L 622.15616 -556.953928 
L 618.576262 -556.955035 
L 614.996365 -556.423277 
L 611.416468 -555.422486 
L 607.83657 -554.017511 
L 604.256673 -552.272335 
L 600.676775 -550.248157 
L 597.096878 -548.001502 
L 593.516981 -545.582485 
L 589.937083 -543.033323 
L 586.357186 -540.387244 
L 582.777289 -537.667883 
L 579.197391 -534.889238 
L 575.617494 -532.056198 
L 572.037596 -529.165629 
L 568.457699 -526.207931 
L 564.877802 -523.168948 
L 561.297904 -520.032091 
L 557.718007 -516.780516 
L 554.13811 -513.399221 
L 550.558212 -509.876913 
L 546.978315 -506.207556 
L 543.398417 -502.391506 
L 539.81852 -498.436185 
L 536.238623 -494.35625 
L 532.658725 -490.173245 
L 529.078828 -485.914728 
L 525.49893 -481.612898 
L 521.919033 -477.30278 
L 518.339136 -473.020065 
L 514.759238 -468.798745 
L 511.179341 -464.668731 
L 507.599444 -460.653682 
L 504.019546 -456.769276 
L 500.439649 -453.02214 
L 496.859751 -449.409604 
L 493.279854 -445.920376 
L 489.699957 -442.536101 
L 486.120059 -439.233692 
L 482.540162 -435.988191 
L 478.960264 -432.775836 
L 475.380367 -429.577008 
L 471.80047 -426.378677 
L 468.220572 -423.17608 
L 464.640675 -419.973424 
L 461.060778 -416.783537 
L 457.48088 -413.626526 
L 453.900983 -410.527629 
L 450.321085 -407.514542 
L 446.741188 -404.614566 
L 443.161291 -401.851927 
L 439.581393 -399.245595 
L 436.001496 -396.807848 
L 432.421598 -394.543704 
L 428.841701 -392.451248 
L 425.261804 -390.522739 
L 421.681906 -388.746278 
L 418.102009 -387.107781 
L 414.522112 -385.592936 
L 410.942214 -384.188862 
L 407.362317 -382.885262 
L 403.782419 -381.674925 
L 400.202522 -380.553547 
L 396.622625 -379.518969 
L 393.042727 -378.569969 
L 389.46283 -377.704861 
L 385.882933 -376.920137 
L 382.303035 -376.209364 
L 378.723138 -375.562549 
L 375.14324 -374.966025 
L 371.563343 -374.402898 
L 367.983446 -373.853973 
L 364.403548 -373.298999 
L 360.823651 -372.718071 
L 357.243753 -372.092975 
L 353.663856 -371.408324 
L 350.083959 -370.652352 
L 346.504061 -369.81731 
L 342.924164 -368.899475 
L 339.344267 -367.898834 
L 335.764369 -366.818553 
L 332.184472 -365.66434 
L 328.604574 -364.443835 
L 325.024677 -363.16609 
L 321.44478 -361.841209 
L 317.864882 -360.48014 
L 314.284985 -359.094579 
L 310.705087 -357.696954 
L 307.12519 -356.30038 
L 303.545293 -354.918563 
L 299.965395 -353.565572 
L 296.385498 -352.255487 
L 292.805601 -351.001924 
L 289.225703 -349.817476 
L 285.645806 -348.713132 
L 282.065908 -347.697738 
L 278.486011 -346.77756 
L 274.906114 -345.956006 
L 271.326216 -345.233527 
L 267.746319 -344.6077 
L 264.166421 -344.073497 
L 260.586524 -343.623675 
L 257.006627 -343.249258 
L 253.426729 -342.940063 
L 249.846832 -342.685209 
L 246.266935 -342.473592 
L 242.687037 -342.294289 
L 239.10714 -342.136898 
L 235.527242 -341.991805 
L 231.947345 -341.850404 
L 228.367448 -341.705269 
L 224.78755 -341.550306 
L 221.207653 -341.38087 
L 217.627756 -341.193855 
L 214.047858 -340.987745 
L 210.467961 -340.7626 
L 206.888063 -340.519984 
L 203.308166 -340.262803 
L 199.728269 -339.995068 
L 196.148371 -339.721598 
L 192.568474 -339.447662 
L 188.988576 -339.178614 
L 185.408679 -338.919541 
L 181.828782 -338.674945 
L 178.248884 -338.44851 
L 174.668987 -338.242938 
L 171.08909 -338.059891 
L 167.509192 -337.900005 
L 163.929295 -337.76299 
L 160.349397 -337.647778 
L 156.7695 -337.552705 
L 153.189603 -337.475701 
L 149.609705 -337.414478 
L 146.029808 -337.36669 
L 142.44991 -337.330066 
L 138.870013 -337.302503 
L 135.290116 -337.282131 
L 131.710218 -337.267343 
L 128.130321 -337.256799 
z
" style="stroke: #ff7f0e; stroke-width: 2.5"/>
    </defs>
    <g clip-path="url(#pe00c6e6732)">
     <use xlink:href="#mfb4cda4000" x="0" y="635.878125" style="fill: #ff7f0e; fill-opacity: 0.5; stroke: #ff7f0e; stroke-width: 2.5"/>
    </g>
   </g>
   <g id="PolyCollection_2">
    <defs>
     <path id="m4e821e2280" d="M 111.394687 -337.252928 
L 111.394687 -337.234647 
L 115.076843 -337.234647 
L 118.759 -337.234647 
L 122.441156 -337.234647 
L 126.123312 -337.234647 
L 129.805468 -337.234647 
L 133.487625 -337.234647 
L 137.169781 -337.234647 
L 140.851937 -337.234647 
L 144.534094 -337.234647 
L 148.21625 -337.234647 
L 151.898406 -337.234647 
L 155.580563 -337.234647 
L 159.262719 -337.234647 
L 162.944875 -337.234647 
L 166.627032 -337.234647 
L 170.309188 -337.234647 
L 173.991344 -337.234647 
L 177.673501 -337.234647 
L 181.355657 -337.234647 
L 185.037813 -337.234647 
L 188.71997 -337.234647 
L 192.402126 -337.234647 
L 196.084282 -337.234647 
L 199.766439 -337.234647 
L 203.448595 -337.234647 
L 207.130751 -337.234647 
L 210.812908 -337.234647 
L 214.495064 -337.234647 
L 218.17722 -337.234647 
L 221.859376 -337.234647 
L 225.541533 -337.234647 
L 229.223689 -337.234647 
L 232.905845 -337.234647 
L 236.588002 -337.234647 
L 240.270158 -337.234647 
L 243.952314 -337.234647 
L 247.634471 -337.234647 
L 251.316627 -337.234647 
L 254.998783 -337.234647 
L 258.68094 -337.234647 
L 262.363096 -337.234647 
L 266.045252 -337.234647 
L 269.727409 -337.234647 
L 273.409565 -337.234647 
L 277.091721 -337.234647 
L 280.773878 -337.234647 
L 284.456034 -337.234647 
L 288.13819 -337.234647 
L 291.820347 -337.234647 
L 295.502503 -337.234647 
L 299.184659 -337.234647 
L 302.866816 -337.234647 
L 306.548972 -337.234647 
L 310.231128 -337.234647 
L 313.913285 -337.234647 
L 317.595441 -337.234647 
L 321.277597 -337.234647 
L 324.959753 -337.234647 
L 328.64191 -337.234647 
L 332.324066 -337.234647 
L 336.006222 -337.234647 
L 339.688379 -337.234647 
L 343.370535 -337.234647 
L 347.052691 -337.234647 
L 350.734848 -337.234647 
L 354.417004 -337.234647 
L 358.09916 -337.234647 
L 361.781317 -337.234647 
L 365.463473 -337.234647 
L 369.145629 -337.234647 
L 372.827786 -337.234647 
L 376.509942 -337.234647 
L 380.192098 -337.234647 
L 383.874255 -337.234647 
L 387.556411 -337.234647 
L 391.238567 -337.234647 
L 394.920724 -337.234647 
L 398.60288 -337.234647 
L 402.285036 -337.234647 
L 405.967193 -337.234647 
L 409.649349 -337.234647 
L 413.331505 -337.234647 
L 417.013661 -337.234647 
L 420.695818 -337.234647 
L 424.377974 -337.234647 
L 428.06013 -337.234647 
L 431.742287 -337.234647 
L 435.424443 -337.234647 
L 439.106599 -337.234647 
L 442.788756 -337.234647 
L 446.470912 -337.234647 
L 450.153068 -337.234647 
L 453.835225 -337.234647 
L 457.517381 -337.234647 
L 461.199537 -337.234647 
L 464.881694 -337.234647 
L 468.56385 -337.234647 
L 472.246006 -337.234647 
L 475.928163 -337.234647 
L 479.610319 -337.234647 
L 483.292475 -337.234647 
L 486.974632 -337.234647 
L 490.656788 -337.234647 
L 494.338944 -337.234647 
L 498.021101 -337.234647 
L 501.703257 -337.234647 
L 505.385413 -337.234647 
L 509.067569 -337.234647 
L 512.749726 -337.234647 
L 516.431882 -337.234647 
L 520.114038 -337.234647 
L 523.796195 -337.234647 
L 527.478351 -337.234647 
L 531.160507 -337.234647 
L 534.842664 -337.234647 
L 538.52482 -337.234647 
L 542.206976 -337.234647 
L 545.889133 -337.234647 
L 549.571289 -337.234647 
L 553.253445 -337.234647 
L 556.935602 -337.234647 
L 560.617758 -337.234647 
L 564.299914 -337.234647 
L 567.982071 -337.234647 
L 571.664227 -337.234647 
L 575.346383 -337.234647 
L 579.02854 -337.234647 
L 582.710696 -337.234647 
L 586.392852 -337.234647 
L 590.075009 -337.234647 
L 593.757165 -337.234647 
L 597.439321 -337.234647 
L 601.121477 -337.234647 
L 604.803634 -337.234647 
L 608.48579 -337.234647 
L 612.167946 -337.234647 
L 615.850103 -337.234647 
L 619.532259 -337.234647 
L 623.214415 -337.234647 
L 626.896572 -337.234647 
L 630.578728 -337.234647 
L 634.260884 -337.234647 
L 637.943041 -337.234647 
L 641.625197 -337.234647 
L 645.307353 -337.234647 
L 648.98951 -337.234647 
L 652.671666 -337.234647 
L 656.353822 -337.234647 
L 660.035979 -337.234647 
L 663.718135 -337.234647 
L 667.400291 -337.234647 
L 671.082448 -337.234647 
L 674.764604 -337.234647 
L 678.44676 -337.234647 
L 682.128917 -337.234647 
L 685.811073 -337.234647 
L 689.493229 -337.234647 
L 693.175385 -337.234647 
L 696.857542 -337.234647 
L 700.539698 -337.234647 
L 704.221854 -337.234647 
L 707.904011 -337.234647 
L 711.586167 -337.234647 
L 715.268323 -337.234647 
L 718.95048 -337.234647 
L 722.632636 -337.234647 
L 726.314792 -337.234647 
L 729.996949 -337.234647 
L 733.679105 -337.234647 
L 737.361261 -337.234647 
L 741.043418 -337.234647 
L 744.725574 -337.234647 
L 748.40773 -337.234647 
L 752.089887 -337.234647 
L 755.772043 -337.234647 
L 759.454199 -337.234647 
L 763.136356 -337.234647 
L 766.818512 -337.234647 
L 770.500668 -337.234647 
L 774.182825 -337.234647 
L 777.864981 -337.234647 
L 781.547137 -337.234647 
L 785.229293 -337.234647 
L 788.91145 -337.234647 
L 792.593606 -337.234647 
L 796.275762 -337.234647 
L 799.957919 -337.234647 
L 803.640075 -337.234647 
L 807.322231 -337.234647 
L 811.004388 -337.234647 
L 814.686544 -337.234647 
L 818.3687 -337.234647 
L 822.050857 -337.234647 
L 825.733013 -337.234647 
L 829.415169 -337.234647 
L 833.097326 -337.234647 
L 836.779482 -337.234647 
L 840.461638 -337.234647 
L 844.143795 -337.234647 
L 844.143795 -337.25303 
L 844.143795 -337.25303 
L 840.461638 -337.261938 
L 836.779482 -337.274597 
L 833.097326 -337.292319 
L 829.415169 -337.316764 
L 825.733013 -337.349989 
L 822.050857 -337.39449 
L 818.3687 -337.453235 
L 814.686544 -337.529672 
L 811.004388 -337.627717 
L 807.322231 -337.751709 
L 803.640075 -337.906329 
L 799.957919 -338.096484 
L 796.275762 -338.327159 
L 792.593606 -338.603242 
L 788.91145 -338.929341 
L 785.229293 -339.309601 
L 781.547137 -339.747564 
L 777.864981 -340.246083 
L 774.182825 -340.807337 
L 770.500668 -341.432972 
L 766.818512 -342.124383 
L 763.136356 -342.883184 
L 759.454199 -343.71183 
L 755.772043 -344.614407 
L 752.089887 -345.597538 
L 748.40773 -346.671355 
L 744.725574 -347.85045 
L 741.043418 -349.154731 
L 737.361261 -350.610071 
L 733.679105 -352.248648 
L 729.996949 -354.108917 
L 726.314792 -356.235118 
L 722.632636 -358.676315 
L 718.95048 -361.484953 
L 715.268323 -364.714986 
L 711.586167 -368.419641 
L 707.904011 -372.648936 
L 704.221854 -377.447068 
L 700.539698 -382.849808 
L 696.857542 -388.88204 
L 693.175385 -395.55556 
L 689.493229 -402.867246 
L 685.811073 -410.797684 
L 682.128917 -419.310315 
L 678.44676 -428.351162 
L 674.764604 -437.849152 
L 671.082448 -447.717081 
L 667.400291 -457.853212 
L 663.718135 -468.143508 
L 660.035979 -478.464479 
L 656.353822 -488.686571 
L 652.671666 -498.678022 
L 648.98951 -508.309029 
L 645.307353 -517.456065 
L 641.625197 -526.006116 
L 637.943041 -533.860598 
L 634.260884 -540.938698 
L 630.578728 -547.179911 
L 626.896572 -552.545571 
L 623.214415 -557.019249 
L 619.532259 -560.605962 
L 615.850103 -563.330243 
L 612.167946 -565.233216 
L 608.48579 -566.368871 
L 604.803634 -566.799864 
L 601.121477 -566.593144 
L 597.439321 -565.815758 
L 593.757165 -564.531163 
L 590.075009 -562.796315 
L 586.392852 -560.659728 
L 582.710696 -558.160628 
L 579.02854 -555.329194 
L 575.346383 -552.187783 
L 571.664227 -548.752968 
L 567.982071 -545.038097 
L 564.299914 -541.056067 
L 560.617758 -536.821985 
L 556.935602 -532.355393 
L 553.253445 -527.681812 
L 549.571289 -522.833399 
L 545.889133 -517.848664 
L 542.206976 -512.771242 
L 538.52482 -507.647862 
L 534.842664 -502.525712 
L 531.160507 -497.449487 
L 527.478351 -492.458413 
L 523.796195 -487.583567 
L 520.114038 -482.845769 
L 516.431882 -478.254274 
L 512.749726 -473.806407 
L 509.067569 -469.488204 
L 505.385413 -465.276024 
L 501.703257 -461.138991 
L 498.021101 -457.042078 
L 494.338944 -452.949545 
L 490.656788 -448.828434 
L 486.974632 -444.651817 
L 483.292475 -440.401505 
L 479.610319 -436.069992 
L 475.928163 -431.66148 
L 472.246006 -427.191936 
L 468.56385 -422.688216 
L 464.881694 -418.186391 
L 461.199537 -413.729479 
L 457.517381 -409.364829 
L 453.835225 -405.141412 
L 450.153068 -401.107258 
L 446.470912 -397.307216 
L 442.788756 -393.781161 
L 439.106599 -390.562692 
L 435.424443 -387.678292 
L 431.742287 -385.146883 
L 428.06013 -382.979671 
L 424.377974 -381.180184 
L 420.695818 -379.744404 
L 417.013661 -378.660965 
L 413.331505 -377.91139 
L 409.649349 -377.470396 
L 405.967193 -377.306345 
L 402.285036 -377.381866 
L 398.60288 -377.654737 
L 394.920724 -378.07904 
L 391.238567 -378.60658 
L 387.556411 -379.18852 
L 383.874255 -379.777149 
L 380.192098 -380.327646 
L 376.509942 -380.799737 
L 372.827786 -381.159078 
L 369.145629 -381.378284 
L 365.463473 -381.437513 
L 361.781317 -381.324568 
L 358.09916 -381.034544 
L 354.417004 -380.569069 
L 350.734848 -379.935244 
L 347.052691 -379.144399 
L 343.370535 -378.210793 
L 339.688379 -377.150393 
L 336.006222 -375.979823 
L 332.324066 -374.715554 
L 328.64191 -373.373382 
L 324.959753 -371.968171 
L 321.277597 -370.513831 
L 317.595441 -369.023476 
L 313.913285 -367.509673 
L 310.231128 -365.984712 
L 306.548972 -364.46084 
L 302.866816 -362.950388 
L 299.184659 -361.465773 
L 295.502503 -360.019376 
L 291.820347 -358.623277 
L 288.13819 -357.288912 
L 284.456034 -356.02665 
L 280.773878 -354.845356 
L 277.091721 -353.751973 
L 273.409565 -352.751151 
L 269.727409 -351.844977 
L 266.045252 -351.032815 
L 262.363096 -350.311272 
L 258.68094 -349.674324 
L 254.998783 -349.113563 
L 251.316627 -348.618589 
L 247.634471 -348.177511 
L 243.952314 -347.777523 
L 240.270158 -347.405542 
L 236.588002 -347.048841 
L 232.905845 -346.695665 
L 229.223689 -346.335763 
L 225.541533 -345.960837 
L 221.859376 -345.564852 
L 218.17722 -345.144207 
L 214.495064 -344.697766 
L 210.812908 -344.226743 
L 207.130751 -343.734453 
L 203.448595 -343.225976 
L 199.766439 -342.707722 
L 196.084282 -342.186972 
L 192.402126 -341.671387 
L 188.71997 -341.168552 
L 185.037813 -340.685556 
L 181.355657 -340.228646 
L 177.673501 -339.802967 
L 173.991344 -339.412389 
L 170.309188 -339.059434 
L 166.627032 -338.745293 
L 162.944875 -338.469912 
L 159.262719 -338.232146 
L 155.580563 -338.029949 
L 151.898406 -337.860592 
L 148.21625 -337.720881 
L 144.534094 -337.60737 
L 140.851937 -337.516542 
L 137.169781 -337.444967 
L 133.487625 -337.389422 
L 129.805468 -337.346975 
L 126.123312 -337.315033 
L 122.441156 -337.291366 
L 118.759 -337.2741 
L 115.076843 -337.261698 
L 111.394687 -337.252928 
z
" style="stroke: #1f77b4; stroke-width: 2.5"/>
    </defs>
    <g clip-path="url(#pe00c6e6732)">
     <use xlink:href="#m4e821e2280" x="0" y="635.878125" style="fill: #1f77b4; fill-opacity: 0.5; stroke: #1f77b4; stroke-width: 2.5"/>
    </g>
   </g>
   <g id="matplotlib.axis_1">
    <g id="xtick_1">
     <g id="line2d_1">
      <defs>
       <path id="me4199af0c6" d="M 0 0 
L 0 3.5 
" style="stroke: #000000; stroke-width: 0.8"/>
      </defs>
      <g>
       <use xlink:href="#me4199af0c6" x="169.168884" y="298.643478" style="stroke: #000000; stroke-width: 0.8"/>
      </g>
     </g>
     <g id="text_1">
      <!-- 0.0 -->
      <g transform="translate(161.217321 313.241916) scale(0.1 -0.1)">
       <defs>
        <path id="DejaVuSans-30" d="M 2034 4250 
Q 1547 4250 1301 3770 
Q 1056 3291 1056 2328 
Q 1056 1369 1301 889 
Q 1547 409 2034 409 
Q 2525 409 2770 889 
Q 3016 1369 3016 2328 
Q 3016 3291 2770 3770 
Q 2525 4250 2034 4250 
z
M 2034 4750 
Q 2819 4750 3233 4129 
Q 3647 3509 3647 2328 
Q 3647 1150 3233 529 
Q 2819 -91 2034 -91 
Q 1250 -91 836 529 
Q 422 1150 422 2328 
Q 422 3509 836 4129 
Q 1250 4750 2034 4750 
z
" transform="scale(0.015625)"/>
        <path id="DejaVuSans-2e" d="M 684 794 
L 1344 794 
L 1344 0 
L 684 0 
L 684 794 
z
" transform="scale(0.015625)"/>
       </defs>
       <use xlink:href="#DejaVuSans-30"/>
       <use xlink:href="#DejaVuSans-2e" x="63.623047"/>
       <use xlink:href="#DejaVuSans-30" x="95.410156"/>
      </g>
     </g>
    </g>
    <g id="xtick_2">
     <g id="line2d_2">
      <g>
       <use xlink:href="#me4199af0c6" x="302.647019" y="298.643478" style="stroke: #000000; stroke-width: 0.8"/>
      </g>
     </g>
     <g id="text_2">
      <!-- 0.2 -->
      <g transform="translate(294.695457 313.241916) scale(0.1 -0.1)">
       <defs>
        <path id="DejaVuSans-32" d="M 1228 531 
L 3431 531 
L 3431 0 
L 469 0 
L 469 531 
Q 828 903 1448 1529 
Q 2069 2156 2228 2338 
Q 2531 2678 2651 2914 
Q 2772 3150 2772 3378 
Q 2772 3750 2511 3984 
Q 2250 4219 1831 4219 
Q 1534 4219 1204 4116 
Q 875 4013 500 3803 
L 500 4441 
Q 881 4594 1212 4672 
Q 1544 4750 1819 4750 
Q 2544 4750 2975 4387 
Q 3406 4025 3406 3419 
Q 3406 3131 3298 2873 
Q 3191 2616 2906 2266 
Q 2828 2175 2409 1742 
Q 1991 1309 1228 531 
z
" transform="scale(0.015625)"/>
       </defs>
       <use xlink:href="#DejaVuSans-30"/>
       <use xlink:href="#DejaVuSans-2e" x="63.623047"/>
       <use xlink:href="#DejaVuSans-32" x="95.410156"/>
      </g>
     </g>
    </g>
    <g id="xtick_3">
     <g id="line2d_3">
      <g>
       <use xlink:href="#me4199af0c6" x="436.125155" y="298.643478" style="stroke: #000000; stroke-width: 0.8"/>
      </g>
     </g>
     <g id="text_3">
      <!-- 0.4 -->
      <g transform="translate(428.173592 313.241916) scale(0.1 -0.1)">
       <defs>
        <path id="DejaVuSans-34" d="M 2419 4116 
L 825 1625 
L 2419 1625 
L 2419 4116 
z
M 2253 4666 
L 3047 4666 
L 3047 1625 
L 3713 1625 
L 3713 1100 
L 3047 1100 
L 3047 0 
L 2419 0 
L 2419 1100 
L 313 1100 
L 313 1709 
L 2253 4666 
z
" transform="scale(0.015625)"/>
       </defs>
       <use xlink:href="#DejaVuSans-30"/>
       <use xlink:href="#DejaVuSans-2e" x="63.623047"/>
       <use xlink:href="#DejaVuSans-34" x="95.410156"/>
      </g>
     </g>
    </g>
    <g id="xtick_4">
     <g id="line2d_4">
      <g>
       <use xlink:href="#me4199af0c6" x="569.60329" y="298.643478" style="stroke: #000000; stroke-width: 0.8"/>
      </g>
     </g>
     <g id="text_4">
      <!-- 0.6 -->
      <g transform="translate(561.651728 313.241916) scale(0.1 -0.1)">
       <defs>
        <path id="DejaVuSans-36" d="M 2113 2584 
Q 1688 2584 1439 2293 
Q 1191 2003 1191 1497 
Q 1191 994 1439 701 
Q 1688 409 2113 409 
Q 2538 409 2786 701 
Q 3034 994 3034 1497 
Q 3034 2003 2786 2293 
Q 2538 2584 2113 2584 
z
M 3366 4563 
L 3366 3988 
Q 3128 4100 2886 4159 
Q 2644 4219 2406 4219 
Q 1781 4219 1451 3797 
Q 1122 3375 1075 2522 
Q 1259 2794 1537 2939 
Q 1816 3084 2150 3084 
Q 2853 3084 3261 2657 
Q 3669 2231 3669 1497 
Q 3669 778 3244 343 
Q 2819 -91 2113 -91 
Q 1303 -91 875 529 
Q 447 1150 447 2328 
Q 447 3434 972 4092 
Q 1497 4750 2381 4750 
Q 2619 4750 2861 4703 
Q 3103 4656 3366 4563 
z
" transform="scale(0.015625)"/>
       </defs>
       <use xlink:href="#DejaVuSans-30"/>
       <use xlink:href="#DejaVuSans-2e" x="63.623047"/>
       <use xlink:href="#DejaVuSans-36" x="95.410156"/>
      </g>
     </g>
    </g>
    <g id="xtick_5">
     <g id="line2d_5">
      <g>
       <use xlink:href="#me4199af0c6" x="703.081426" y="298.643478" style="stroke: #000000; stroke-width: 0.8"/>
      </g>
     </g>
     <g id="text_5">
      <!-- 0.8 -->
      <g transform="translate(695.129863 313.241916) scale(0.1 -0.1)">
       <defs>
        <path id="DejaVuSans-38" d="M 2034 2216 
Q 1584 2216 1326 1975 
Q 1069 1734 1069 1313 
Q 1069 891 1326 650 
Q 1584 409 2034 409 
Q 2484 409 2743 651 
Q 3003 894 3003 1313 
Q 3003 1734 2745 1975 
Q 2488 2216 2034 2216 
z
M 1403 2484 
Q 997 2584 770 2862 
Q 544 3141 544 3541 
Q 544 4100 942 4425 
Q 1341 4750 2034 4750 
Q 2731 4750 3128 4425 
Q 3525 4100 3525 3541 
Q 3525 3141 3298 2862 
Q 3072 2584 2669 2484 
Q 3125 2378 3379 2068 
Q 3634 1759 3634 1313 
Q 3634 634 3220 271 
Q 2806 -91 2034 -91 
Q 1263 -91 848 271 
Q 434 634 434 1313 
Q 434 1759 690 2068 
Q 947 2378 1403 2484 
z
M 1172 3481 
Q 1172 3119 1398 2916 
Q 1625 2713 2034 2713 
Q 2441 2713 2670 2916 
Q 2900 3119 2900 3481 
Q 2900 3844 2670 4047 
Q 2441 4250 2034 4250 
Q 1625 4250 1398 4047 
Q 1172 3844 1172 3481 
z
" transform="scale(0.015625)"/>
       </defs>
       <use xlink:href="#DejaVuSans-30"/>
       <use xlink:href="#DejaVuSans-2e" x="63.623047"/>
       <use xlink:href="#DejaVuSans-38" x="95.410156"/>
      </g>
     </g>
    </g>
    <g id="xtick_6">
     <g id="line2d_6">
      <g>
       <use xlink:href="#me4199af0c6" x="836.559561" y="298.643478" style="stroke: #000000; stroke-width: 0.8"/>
      </g>
     </g>
     <g id="text_6">
      <!-- 1.0 -->
      <g transform="translate(828.607998 313.241916) scale(0.1 -0.1)">
       <defs>
        <path id="DejaVuSans-31" d="M 794 531 
L 1825 531 
L 1825 4091 
L 703 3866 
L 703 4441 
L 1819 4666 
L 2450 4666 
L 2450 531 
L 3481 531 
L 3481 0 
L 794 0 
L 794 531 
z
" transform="scale(0.015625)"/>
       </defs>
       <use xlink:href="#DejaVuSans-31"/>
       <use xlink:href="#DejaVuSans-2e" x="63.623047"/>
       <use xlink:href="#DejaVuSans-30" x="95.410156"/>
      </g>
     </g>
    </g>
   </g>
   <g id="matplotlib.axis_2">
    <g id="ytick_1">
     <g id="line2d_7">
      <defs>
       <path id="m03477b69d2" d="M 0 0 
L -3.5 0 
" style="stroke: #000000; stroke-width: 0.8"/>
      </defs>
      <g>
       <use xlink:href="#m03477b69d2" x="43.78125" y="298.643478" style="stroke: #000000; stroke-width: 0.8"/>
      </g>
     </g>
     <g id="text_7">
      <!-- 0.0 -->
      <g transform="translate(20.878125 302.442697) scale(0.1 -0.1)">
       <use xlink:href="#DejaVuSans-30"/>
       <use xlink:href="#DejaVuSans-2e" x="63.623047"/>
       <use xlink:href="#DejaVuSans-30" x="95.410156"/>
      </g>
     </g>
    </g>
    <g id="ytick_2">
     <g id="line2d_8">
      <g>
       <use xlink:href="#m03477b69d2" x="43.78125" y="263.035058" style="stroke: #000000; stroke-width: 0.8"/>
      </g>
     </g>
     <g id="text_8">
      <!-- 0.5 -->
      <g transform="translate(20.878125 266.834277) scale(0.1 -0.1)">
       <defs>
        <path id="DejaVuSans-35" d="M 691 4666 
L 3169 4666 
L 3169 4134 
L 1269 4134 
L 1269 2991 
Q 1406 3038 1543 3061 
Q 1681 3084 1819 3084 
Q 2600 3084 3056 2656 
Q 3513 2228 3513 1497 
Q 3513 744 3044 326 
Q 2575 -91 1722 -91 
Q 1428 -91 1123 -41 
Q 819 9 494 109 
L 494 744 
Q 775 591 1075 516 
Q 1375 441 1709 441 
Q 2250 441 2565 725 
Q 2881 1009 2881 1497 
Q 2881 1984 2565 2268 
Q 2250 2553 1709 2553 
Q 1456 2553 1204 2497 
Q 953 2441 691 2322 
L 691 4666 
z
" transform="scale(0.015625)"/>
       </defs>
       <use xlink:href="#DejaVuSans-30"/>
       <use xlink:href="#DejaVuSans-2e" x="63.623047"/>
       <use xlink:href="#DejaVuSans-35" x="95.410156"/>
      </g>
     </g>
    </g>
    <g id="ytick_3">
     <g id="line2d_9">
      <g>
       <use xlink:href="#m03477b69d2" x="43.78125" y="227.426638" style="stroke: #000000; stroke-width: 0.8"/>
      </g>
     </g>
     <g id="text_9">
      <!-- 1.0 -->
      <g transform="translate(20.878125 231.225857) scale(0.1 -0.1)">
       <use xlink:href="#DejaVuSans-31"/>
       <use xlink:href="#DejaVuSans-2e" x="63.623047"/>
       <use xlink:href="#DejaVuSans-30" x="95.410156"/>
      </g>
     </g>
    </g>
    <g id="ytick_4">
     <g id="line2d_10">
      <g>
       <use xlink:href="#m03477b69d2" x="43.78125" y="191.818219" style="stroke: #000000; stroke-width: 0.8"/>
      </g>
     </g>
     <g id="text_10">
      <!-- 1.5 -->
      <g transform="translate(20.878125 195.617437) scale(0.1 -0.1)">
       <use xlink:href="#DejaVuSans-31"/>
       <use xlink:href="#DejaVuSans-2e" x="63.623047"/>
       <use xlink:href="#DejaVuSans-35" x="95.410156"/>
      </g>
     </g>
    </g>
    <g id="ytick_5">
     <g id="line2d_11">
      <g>
       <use xlink:href="#m03477b69d2" x="43.78125" y="156.209799" style="stroke: #000000; stroke-width: 0.8"/>
      </g>
     </g>
     <g id="text_11">
      <!-- 2.0 -->
      <g transform="translate(20.878125 160.009017) scale(0.1 -0.1)">
       <use xlink:href="#DejaVuSans-32"/>
       <use xlink:href="#DejaVuSans-2e" x="63.623047"/>
       <use xlink:href="#DejaVuSans-30" x="95.410156"/>
      </g>
     </g>
    </g>
    <g id="ytick_6">
     <g id="line2d_12">
      <g>
       <use xlink:href="#m03477b69d2" x="43.78125" y="120.601379" style="stroke: #000000; stroke-width: 0.8"/>
      </g>
     </g>
     <g id="text_12">
      <!-- 2.5 -->
      <g transform="translate(20.878125 124.400598) scale(0.1 -0.1)">
       <use xlink:href="#DejaVuSans-32"/>
       <use xlink:href="#DejaVuSans-2e" x="63.623047"/>
       <use xlink:href="#DejaVuSans-35" x="95.410156"/>
      </g>
     </g>
    </g>
    <g id="ytick_7">
     <g id="line2d_13">
      <g>
       <use xlink:href="#m03477b69d2" x="43.78125" y="84.992959" style="stroke: #000000; stroke-width: 0.8"/>
      </g>
     </g>
     <g id="text_13">
      <!-- 3.0 -->
      <g transform="translate(20.878125 88.792178) scale(0.1 -0.1)">
       <defs>
        <path id="DejaVuSans-33" d="M 2597 2516 
Q 3050 2419 3304 2112 
Q 3559 1806 3559 1356 
Q 3559 666 3084 287 
Q 2609 -91 1734 -91 
Q 1441 -91 1130 -33 
Q 819 25 488 141 
L 488 750 
Q 750 597 1062 519 
Q 1375 441 1716 441 
Q 2309 441 2620 675 
Q 2931 909 2931 1356 
Q 2931 1769 2642 2001 
Q 2353 2234 1838 2234 
L 1294 2234 
L 1294 2753 
L 1863 2753 
Q 2328 2753 2575 2939 
Q 2822 3125 2822 3475 
Q 2822 3834 2567 4026 
Q 2313 4219 1838 4219 
Q 1578 4219 1281 4162 
Q 984 4106 628 3988 
L 628 4550 
Q 988 4650 1302 4700 
Q 1616 4750 1894 4750 
Q 2613 4750 3031 4423 
Q 3450 4097 3450 3541 
Q 3450 3153 3228 2886 
Q 3006 2619 2597 2516 
z
" transform="scale(0.015625)"/>
       </defs>
       <use xlink:href="#DejaVuSans-33"/>
       <use xlink:href="#DejaVuSans-2e" x="63.623047"/>
       <use xlink:href="#DejaVuSans-30" x="95.410156"/>
      </g>
     </g>
    </g>
    <g id="text_14">
     <!-- Density -->
     <g transform="translate(14.798438 197.130333) rotate(-90) scale(0.1 -0.1)">
      <defs>
       <path id="DejaVuSans-44" d="M 1259 4147 
L 1259 519 
L 2022 519 
Q 2988 519 3436 956 
Q 3884 1394 3884 2338 
Q 3884 3275 3436 3711 
Q 2988 4147 2022 4147 
L 1259 4147 
z
M 628 4666 
L 1925 4666 
Q 3281 4666 3915 4102 
Q 4550 3538 4550 2338 
Q 4550 1131 3912 565 
Q 3275 0 1925 0 
L 628 0 
L 628 4666 
z
" transform="scale(0.015625)"/>
       <path id="DejaVuSans-65" d="M 3597 1894 
L 3597 1613 
L 953 1613 
Q 991 1019 1311 708 
Q 1631 397 2203 397 
Q 2534 397 2845 478 
Q 3156 559 3463 722 
L 3463 178 
Q 3153 47 2828 -22 
Q 2503 -91 2169 -91 
Q 1331 -91 842 396 
Q 353 884 353 1716 
Q 353 2575 817 3079 
Q 1281 3584 2069 3584 
Q 2775 3584 3186 3129 
Q 3597 2675 3597 1894 
z
M 3022 2063 
Q 3016 2534 2758 2815 
Q 2500 3097 2075 3097 
Q 1594 3097 1305 2825 
Q 1016 2553 972 2059 
L 3022 2063 
z
" transform="scale(0.015625)"/>
       <path id="DejaVuSans-6e" d="M 3513 2113 
L 3513 0 
L 2938 0 
L 2938 2094 
Q 2938 2591 2744 2837 
Q 2550 3084 2163 3084 
Q 1697 3084 1428 2787 
Q 1159 2491 1159 1978 
L 1159 0 
L 581 0 
L 581 3500 
L 1159 3500 
L 1159 2956 
Q 1366 3272 1645 3428 
Q 1925 3584 2291 3584 
Q 2894 3584 3203 3211 
Q 3513 2838 3513 2113 
z
" transform="scale(0.015625)"/>
       <path id="DejaVuSans-73" d="M 2834 3397 
L 2834 2853 
Q 2591 2978 2328 3040 
Q 2066 3103 1784 3103 
Q 1356 3103 1142 2972 
Q 928 2841 928 2578 
Q 928 2378 1081 2264 
Q 1234 2150 1697 2047 
L 1894 2003 
Q 2506 1872 2764 1633 
Q 3022 1394 3022 966 
Q 3022 478 2636 193 
Q 2250 -91 1575 -91 
Q 1294 -91 989 -36 
Q 684 19 347 128 
L 347 722 
Q 666 556 975 473 
Q 1284 391 1588 391 
Q 1994 391 2212 530 
Q 2431 669 2431 922 
Q 2431 1156 2273 1281 
Q 2116 1406 1581 1522 
L 1381 1569 
Q 847 1681 609 1914 
Q 372 2147 372 2553 
Q 372 3047 722 3315 
Q 1072 3584 1716 3584 
Q 2034 3584 2315 3537 
Q 2597 3491 2834 3397 
z
" transform="scale(0.015625)"/>
       <path id="DejaVuSans-69" d="M 603 3500 
L 1178 3500 
L 1178 0 
L 603 0 
L 603 3500 
z
M 603 4863 
L 1178 4863 
L 1178 4134 
L 603 4134 
L 603 4863 
z
" transform="scale(0.015625)"/>
       <path id="DejaVuSans-74" d="M 1172 4494 
L 1172 3500 
L 2356 3500 
L 2356 3053 
L 1172 3053 
L 1172 1153 
Q 1172 725 1289 603 
Q 1406 481 1766 481 
L 2356 481 
L 2356 0 
L 1766 0 
Q 1100 0 847 248 
Q 594 497 594 1153 
L 594 3053 
L 172 3053 
L 172 3500 
L 594 3500 
L 594 4494 
L 1172 4494 
z
" transform="scale(0.015625)"/>
       <path id="DejaVuSans-79" d="M 2059 -325 
Q 1816 -950 1584 -1140 
Q 1353 -1331 966 -1331 
L 506 -1331 
L 506 -850 
L 844 -850 
Q 1081 -850 1212 -737 
Q 1344 -625 1503 -206 
L 1606 56 
L 191 3500 
L 800 3500 
L 1894 763 
L 2988 3500 
L 3597 3500 
L 2059 -325 
z
" transform="scale(0.015625)"/>
      </defs>
      <use xlink:href="#DejaVuSans-44"/>
      <use xlink:href="#DejaVuSans-65" x="77.001953"/>
      <use xlink:href="#DejaVuSans-6e" x="138.525391"/>
      <use xlink:href="#DejaVuSans-73" x="201.904297"/>
      <use xlink:href="#DejaVuSans-69" x="254.003906"/>
      <use xlink:href="#DejaVuSans-74" x="281.787109"/>
      <use xlink:href="#DejaVuSans-79" x="320.996094"/>
     </g>
    </g>
   </g>
   <g id="patch_3">
    <path d="M 43.78125 298.643478 
L 43.78125 57.6 
" style="fill: none; stroke: #000000; stroke-width: 0.8; stroke-linejoin: miter; stroke-linecap: square"/>
   </g>
   <g id="patch_4">
    <path d="M 880.78125 298.643478 
L 880.78125 57.6 
" style="fill: none; stroke: #000000; stroke-width: 0.8; stroke-linejoin: miter; stroke-linecap: square"/>
   </g>
   <g id="patch_5">
    <path d="M 43.78125 298.643478 
L 880.78125 298.643478 
" style="fill: none; stroke: #000000; stroke-width: 0.8; stroke-linejoin: miter; stroke-linecap: square"/>
   </g>
   <g id="patch_6">
    <path d="M 43.78125 57.6 
L 880.78125 57.6 
" style="fill: none; stroke: #000000; stroke-width: 0.8; stroke-linejoin: miter; stroke-linecap: square"/>
   </g>
   <g id="text_15">
    <!-- Pearson correlation coefficients -->
    <g transform="translate(367.949062 51.6) scale(0.12 -0.12)">
     <defs>
      <path id="DejaVuSans-50" d="M 1259 4147 
L 1259 2394 
L 2053 2394 
Q 2494 2394 2734 2622 
Q 2975 2850 2975 3272 
Q 2975 3691 2734 3919 
Q 2494 4147 2053 4147 
L 1259 4147 
z
M 628 4666 
L 2053 4666 
Q 2838 4666 3239 4311 
Q 3641 3956 3641 3272 
Q 3641 2581 3239 2228 
Q 2838 1875 2053 1875 
L 1259 1875 
L 1259 0 
L 628 0 
L 628 4666 
z
" transform="scale(0.015625)"/>
      <path id="DejaVuSans-61" d="M 2194 1759 
Q 1497 1759 1228 1600 
Q 959 1441 959 1056 
Q 959 750 1161 570 
Q 1363 391 1709 391 
Q 2188 391 2477 730 
Q 2766 1069 2766 1631 
L 2766 1759 
L 2194 1759 
z
M 3341 1997 
L 3341 0 
L 2766 0 
L 2766 531 
Q 2569 213 2275 61 
Q 1981 -91 1556 -91 
Q 1019 -91 701 211 
Q 384 513 384 1019 
Q 384 1609 779 1909 
Q 1175 2209 1959 2209 
L 2766 2209 
L 2766 2266 
Q 2766 2663 2505 2880 
Q 2244 3097 1772 3097 
Q 1472 3097 1187 3025 
Q 903 2953 641 2809 
L 641 3341 
Q 956 3463 1253 3523 
Q 1550 3584 1831 3584 
Q 2591 3584 2966 3190 
Q 3341 2797 3341 1997 
z
" transform="scale(0.015625)"/>
      <path id="DejaVuSans-72" d="M 2631 2963 
Q 2534 3019 2420 3045 
Q 2306 3072 2169 3072 
Q 1681 3072 1420 2755 
Q 1159 2438 1159 1844 
L 1159 0 
L 581 0 
L 581 3500 
L 1159 3500 
L 1159 2956 
Q 1341 3275 1631 3429 
Q 1922 3584 2338 3584 
Q 2397 3584 2469 3576 
Q 2541 3569 2628 3553 
L 2631 2963 
z
" transform="scale(0.015625)"/>
      <path id="DejaVuSans-6f" d="M 1959 3097 
Q 1497 3097 1228 2736 
Q 959 2375 959 1747 
Q 959 1119 1226 758 
Q 1494 397 1959 397 
Q 2419 397 2687 759 
Q 2956 1122 2956 1747 
Q 2956 2369 2687 2733 
Q 2419 3097 1959 3097 
z
M 1959 3584 
Q 2709 3584 3137 3096 
Q 3566 2609 3566 1747 
Q 3566 888 3137 398 
Q 2709 -91 1959 -91 
Q 1206 -91 779 398 
Q 353 888 353 1747 
Q 353 2609 779 3096 
Q 1206 3584 1959 3584 
z
" transform="scale(0.015625)"/>
      <path id="DejaVuSans-20" transform="scale(0.015625)"/>
      <path id="DejaVuSans-63" d="M 3122 3366 
L 3122 2828 
Q 2878 2963 2633 3030 
Q 2388 3097 2138 3097 
Q 1578 3097 1268 2742 
Q 959 2388 959 1747 
Q 959 1106 1268 751 
Q 1578 397 2138 397 
Q 2388 397 2633 464 
Q 2878 531 3122 666 
L 3122 134 
Q 2881 22 2623 -34 
Q 2366 -91 2075 -91 
Q 1284 -91 818 406 
Q 353 903 353 1747 
Q 353 2603 823 3093 
Q 1294 3584 2113 3584 
Q 2378 3584 2631 3529 
Q 2884 3475 3122 3366 
z
" transform="scale(0.015625)"/>
      <path id="DejaVuSans-6c" d="M 603 4863 
L 1178 4863 
L 1178 0 
L 603 0 
L 603 4863 
z
" transform="scale(0.015625)"/>
      <path id="DejaVuSans-66" d="M 2375 4863 
L 2375 4384 
L 1825 4384 
Q 1516 4384 1395 4259 
Q 1275 4134 1275 3809 
L 1275 3500 
L 2222 3500 
L 2222 3053 
L 1275 3053 
L 1275 0 
L 697 0 
L 697 3053 
L 147 3053 
L 147 3500 
L 697 3500 
L 697 3744 
Q 697 4328 969 4595 
Q 1241 4863 1831 4863 
L 2375 4863 
z
" transform="scale(0.015625)"/>
     </defs>
     <use xlink:href="#DejaVuSans-50"/>
     <use xlink:href="#DejaVuSans-65" x="56.677734"/>
     <use xlink:href="#DejaVuSans-61" x="118.201172"/>
     <use xlink:href="#DejaVuSans-72" x="179.480469"/>
     <use xlink:href="#DejaVuSans-73" x="220.59375"/>
     <use xlink:href="#DejaVuSans-6f" x="272.693359"/>
     <use xlink:href="#DejaVuSans-6e" x="333.875"/>
     <use xlink:href="#DejaVuSans-20" x="397.253906"/>
     <use xlink:href="#DejaVuSans-63" x="429.041016"/>
     <use xlink:href="#DejaVuSans-6f" x="484.021484"/>
     <use xlink:href="#DejaVuSans-72" x="545.203125"/>
     <use xlink:href="#DejaVuSans-72" x="584.566406"/>
     <use xlink:href="#DejaVuSans-65" x="623.429688"/>
     <use xlink:href="#DejaVuSans-6c" x="684.953125"/>
     <use xlink:href="#DejaVuSans-61" x="712.736328"/>
     <use xlink:href="#DejaVuSans-74" x="774.015625"/>
     <use xlink:href="#DejaVuSans-69" x="813.224609"/>
     <use xlink:href="#DejaVuSans-6f" x="841.007812"/>
     <use xlink:href="#DejaVuSans-6e" x="902.189453"/>
     <use xlink:href="#DejaVuSans-20" x="965.568359"/>
     <use xlink:href="#DejaVuSans-63" x="997.355469"/>
     <use xlink:href="#DejaVuSans-6f" x="1052.335938"/>
     <use xlink:href="#DejaVuSans-65" x="1113.517578"/>
     <use xlink:href="#DejaVuSans-66" x="1175.041016"/>
     <use xlink:href="#DejaVuSans-66" x="1210.246094"/>
     <use xlink:href="#DejaVuSans-69" x="1245.451172"/>
     <use xlink:href="#DejaVuSans-63" x="1273.234375"/>
     <use xlink:href="#DejaVuSans-69" x="1328.214844"/>
     <use xlink:href="#DejaVuSans-65" x="1355.998047"/>
     <use xlink:href="#DejaVuSans-6e" x="1417.521484"/>
     <use xlink:href="#DejaVuSans-74" x="1480.900391"/>
     <use xlink:href="#DejaVuSans-73" x="1520.109375"/>
    </g>
   </g>
   <g id="legend_1">
    <g id="patch_7">
     <path d="M 50.78125 109.634375 
L 138.80625 109.634375 
Q 140.80625 109.634375 140.80625 107.634375 
L 140.80625 64.6 
Q 140.80625 62.6 138.80625 62.6 
L 50.78125 62.6 
Q 48.78125 62.6 48.78125 64.6 
L 48.78125 107.634375 
Q 48.78125 109.634375 50.78125 109.634375 
z
" style="fill: #ffffff; opacity: 0.8; stroke: #cccccc; stroke-linejoin: miter"/>
    </g>
    <g id="text_16">
     <!-- Correlation type: -->
     <g transform="translate(52.78125 74.198437) scale(0.1 -0.1)">
      <defs>
       <path id="DejaVuSans-43" d="M 4122 4306 
L 4122 3641 
Q 3803 3938 3442 4084 
Q 3081 4231 2675 4231 
Q 1875 4231 1450 3742 
Q 1025 3253 1025 2328 
Q 1025 1406 1450 917 
Q 1875 428 2675 428 
Q 3081 428 3442 575 
Q 3803 722 4122 1019 
L 4122 359 
Q 3791 134 3420 21 
Q 3050 -91 2638 -91 
Q 1578 -91 968 557 
Q 359 1206 359 2328 
Q 359 3453 968 4101 
Q 1578 4750 2638 4750 
Q 3056 4750 3426 4639 
Q 3797 4528 4122 4306 
z
" transform="scale(0.015625)"/>
       <path id="DejaVuSans-70" d="M 1159 525 
L 1159 -1331 
L 581 -1331 
L 581 3500 
L 1159 3500 
L 1159 2969 
Q 1341 3281 1617 3432 
Q 1894 3584 2278 3584 
Q 2916 3584 3314 3078 
Q 3713 2572 3713 1747 
Q 3713 922 3314 415 
Q 2916 -91 2278 -91 
Q 1894 -91 1617 61 
Q 1341 213 1159 525 
z
M 3116 1747 
Q 3116 2381 2855 2742 
Q 2594 3103 2138 3103 
Q 1681 3103 1420 2742 
Q 1159 2381 1159 1747 
Q 1159 1113 1420 752 
Q 1681 391 2138 391 
Q 2594 391 2855 752 
Q 3116 1113 3116 1747 
z
" transform="scale(0.015625)"/>
       <path id="DejaVuSans-3a" d="M 750 794 
L 1409 794 
L 1409 0 
L 750 0 
L 750 794 
z
M 750 3309 
L 1409 3309 
L 1409 2516 
L 750 2516 
L 750 3309 
z
" transform="scale(0.015625)"/>
      </defs>
      <use xlink:href="#DejaVuSans-43"/>
      <use xlink:href="#DejaVuSans-6f" x="69.824219"/>
      <use xlink:href="#DejaVuSans-72" x="131.005859"/>
      <use xlink:href="#DejaVuSans-72" x="170.369141"/>
      <use xlink:href="#DejaVuSans-65" x="209.232422"/>
      <use xlink:href="#DejaVuSans-6c" x="270.755859"/>
      <use xlink:href="#DejaVuSans-61" x="298.539062"/>
      <use xlink:href="#DejaVuSans-74" x="359.818359"/>
      <use xlink:href="#DejaVuSans-69" x="399.027344"/>
      <use xlink:href="#DejaVuSans-6f" x="426.810547"/>
      <use xlink:href="#DejaVuSans-6e" x="487.992188"/>
      <use xlink:href="#DejaVuSans-20" x="551.371094"/>
      <use xlink:href="#DejaVuSans-74" x="583.158203"/>
      <use xlink:href="#DejaVuSans-79" x="622.367188"/>
      <use xlink:href="#DejaVuSans-70" x="681.546875"/>
      <use xlink:href="#DejaVuSans-65" x="745.023438"/>
      <use xlink:href="#DejaVuSans-3a" x="806.546875"/>
     </g>
    </g>
    <g id="patch_8">
     <path d="M 53.285156 88.876562 
L 73.285156 88.876562 
L 73.285156 81.876562 
L 53.285156 81.876562 
z
" style="fill: #1f77b4; fill-opacity: 0.5; stroke: #1f77b4; stroke-width: 2.5; stroke-linejoin: miter"/>
    </g>
    <g id="text_17">
     <!-- Codon -->
     <g transform="translate(81.285156 88.876562) scale(0.1 -0.1)">
      <defs>
       <path id="DejaVuSans-64" d="M 2906 2969 
L 2906 4863 
L 3481 4863 
L 3481 0 
L 2906 0 
L 2906 525 
Q 2725 213 2448 61 
Q 2172 -91 1784 -91 
Q 1150 -91 751 415 
Q 353 922 353 1747 
Q 353 2572 751 3078 
Q 1150 3584 1784 3584 
Q 2172 3584 2448 3432 
Q 2725 3281 2906 2969 
z
M 947 1747 
Q 947 1113 1208 752 
Q 1469 391 1925 391 
Q 2381 391 2643 752 
Q 2906 1113 2906 1747 
Q 2906 2381 2643 2742 
Q 2381 3103 1925 3103 
Q 1469 3103 1208 2742 
Q 947 2381 947 1747 
z
" transform="scale(0.015625)"/>
      </defs>
      <use xlink:href="#DejaVuSans-43"/>
      <use xlink:href="#DejaVuSans-6f" x="69.824219"/>
      <use xlink:href="#DejaVuSans-64" x="131.005859"/>
      <use xlink:href="#DejaVuSans-6f" x="194.482422"/>
      <use xlink:href="#DejaVuSans-6e" x="255.664062"/>
     </g>
    </g>
    <g id="patch_9">
     <path d="M 53.285156 103.554688 
L 73.285156 103.554688 
L 73.285156 96.554688 
L 53.285156 96.554688 
z
" style="fill: #ff7f0e; fill-opacity: 0.5; stroke: #ff7f0e; stroke-width: 2.5; stroke-linejoin: miter"/>
    </g>
    <g id="text_18">
     <!-- Codon+GC -->
     <g transform="translate(81.285156 103.554688) scale(0.1 -0.1)">
      <defs>
       <path id="DejaVuSans-2b" d="M 2944 4013 
L 2944 2272 
L 4684 2272 
L 4684 1741 
L 2944 1741 
L 2944 0 
L 2419 0 
L 2419 1741 
L 678 1741 
L 678 2272 
L 2419 2272 
L 2419 4013 
L 2944 4013 
z
" transform="scale(0.015625)"/>
       <path id="DejaVuSans-47" d="M 3809 666 
L 3809 1919 
L 2778 1919 
L 2778 2438 
L 4434 2438 
L 4434 434 
Q 4069 175 3628 42 
Q 3188 -91 2688 -91 
Q 1594 -91 976 548 
Q 359 1188 359 2328 
Q 359 3472 976 4111 
Q 1594 4750 2688 4750 
Q 3144 4750 3555 4637 
Q 3966 4525 4313 4306 
L 4313 3634 
Q 3963 3931 3569 4081 
Q 3175 4231 2741 4231 
Q 1884 4231 1454 3753 
Q 1025 3275 1025 2328 
Q 1025 1384 1454 906 
Q 1884 428 2741 428 
Q 3075 428 3337 486 
Q 3600 544 3809 666 
z
" transform="scale(0.015625)"/>
      </defs>
      <use xlink:href="#DejaVuSans-43"/>
      <use xlink:href="#DejaVuSans-6f" x="69.824219"/>
      <use xlink:href="#DejaVuSans-64" x="131.005859"/>
      <use xlink:href="#DejaVuSans-6f" x="194.482422"/>
      <use xlink:href="#DejaVuSans-6e" x="255.664062"/>
      <use xlink:href="#DejaVuSans-2b" x="319.042969"/>
      <use xlink:href="#DejaVuSans-47" x="402.832031"/>
      <use xlink:href="#DejaVuSans-43" x="480.322266"/>
     </g>
    </g>
   </g>
  </g>
  <g id="axes_2">
   <g id="patch_10">
    <path d="M 43.78125 612 
L 880.78125 612 
L 880.78125 370.956522 
L 43.78125 370.956522 
z
" style="fill: #ffffff"/>
   </g>
   <g id="PolyCollection_3">
    <defs>
     <path id="mc756012935" d="M 81.268821 -23.89505 
L 81.268821 -23.878125 
L 84.996857 -23.878125 
L 88.724894 -23.878125 
L 92.45293 -23.878125 
L 96.180966 -23.878125 
L 99.909003 -23.878125 
L 103.637039 -23.878125 
L 107.365076 -23.878125 
L 111.093112 -23.878125 
L 114.821148 -23.878125 
L 118.549185 -23.878125 
L 122.277221 -23.878125 
L 126.005258 -23.878125 
L 129.733294 -23.878125 
L 133.46133 -23.878125 
L 137.189367 -23.878125 
L 140.917403 -23.878125 
L 144.64544 -23.878125 
L 148.373476 -23.878125 
L 152.101512 -23.878125 
L 155.829549 -23.878125 
L 159.557585 -23.878125 
L 163.285622 -23.878125 
L 167.013658 -23.878125 
L 170.741694 -23.878125 
L 174.469731 -23.878125 
L 178.197767 -23.878125 
L 181.925804 -23.878125 
L 185.65384 -23.878125 
L 189.381877 -23.878125 
L 193.109913 -23.878125 
L 196.837949 -23.878125 
L 200.565986 -23.878125 
L 204.294022 -23.878125 
L 208.022059 -23.878125 
L 211.750095 -23.878125 
L 215.478131 -23.878125 
L 219.206168 -23.878125 
L 222.934204 -23.878125 
L 226.662241 -23.878125 
L 230.390277 -23.878125 
L 234.118313 -23.878125 
L 237.84635 -23.878125 
L 241.574386 -23.878125 
L 245.302423 -23.878125 
L 249.030459 -23.878125 
L 252.758495 -23.878125 
L 256.486532 -23.878125 
L 260.214568 -23.878125 
L 263.942605 -23.878125 
L 267.670641 -23.878125 
L 271.398677 -23.878125 
L 275.126714 -23.878125 
L 278.85475 -23.878125 
L 282.582787 -23.878125 
L 286.310823 -23.878125 
L 290.038859 -23.878125 
L 293.766896 -23.878125 
L 297.494932 -23.878125 
L 301.222969 -23.878125 
L 304.951005 -23.878125 
L 308.679042 -23.878125 
L 312.407078 -23.878125 
L 316.135114 -23.878125 
L 319.863151 -23.878125 
L 323.591187 -23.878125 
L 327.319224 -23.878125 
L 331.04726 -23.878125 
L 334.775296 -23.878125 
L 338.503333 -23.878125 
L 342.231369 -23.878125 
L 345.959406 -23.878125 
L 349.687442 -23.878125 
L 353.415478 -23.878125 
L 357.143515 -23.878125 
L 360.871551 -23.878125 
L 364.599588 -23.878125 
L 368.327624 -23.878125 
L 372.05566 -23.878125 
L 375.783697 -23.878125 
L 379.511733 -23.878125 
L 383.23977 -23.878125 
L 386.967806 -23.878125 
L 390.695842 -23.878125 
L 394.423879 -23.878125 
L 398.151915 -23.878125 
L 401.879952 -23.878125 
L 405.607988 -23.878125 
L 409.336025 -23.878125 
L 413.064061 -23.878125 
L 416.792097 -23.878125 
L 420.520134 -23.878125 
L 424.24817 -23.878125 
L 427.976207 -23.878125 
L 431.704243 -23.878125 
L 435.432279 -23.878125 
L 439.160316 -23.878125 
L 442.888352 -23.878125 
L 446.616389 -23.878125 
L 450.344425 -23.878125 
L 454.072461 -23.878125 
L 457.800498 -23.878125 
L 461.528534 -23.878125 
L 465.256571 -23.878125 
L 468.984607 -23.878125 
L 472.712643 -23.878125 
L 476.44068 -23.878125 
L 480.168716 -23.878125 
L 483.896753 -23.878125 
L 487.624789 -23.878125 
L 491.352825 -23.878125 
L 495.080862 -23.878125 
L 498.808898 -23.878125 
L 502.536935 -23.878125 
L 506.264971 -23.878125 
L 509.993007 -23.878125 
L 513.721044 -23.878125 
L 517.44908 -23.878125 
L 521.177117 -23.878125 
L 524.905153 -23.878125 
L 528.63319 -23.878125 
L 532.361226 -23.878125 
L 536.089262 -23.878125 
L 539.817299 -23.878125 
L 543.545335 -23.878125 
L 547.273372 -23.878125 
L 551.001408 -23.878125 
L 554.729444 -23.878125 
L 558.457481 -23.878125 
L 562.185517 -23.878125 
L 565.913554 -23.878125 
L 569.64159 -23.878125 
L 573.369626 -23.878125 
L 577.097663 -23.878125 
L 580.825699 -23.878125 
L 584.553736 -23.878125 
L 588.281772 -23.878125 
L 592.009808 -23.878125 
L 595.737845 -23.878125 
L 599.465881 -23.878125 
L 603.193918 -23.878125 
L 606.921954 -23.878125 
L 610.64999 -23.878125 
L 614.378027 -23.878125 
L 618.106063 -23.878125 
L 621.8341 -23.878125 
L 625.562136 -23.878125 
L 629.290172 -23.878125 
L 633.018209 -23.878125 
L 636.746245 -23.878125 
L 640.474282 -23.878125 
L 644.202318 -23.878125 
L 647.930355 -23.878125 
L 651.658391 -23.878125 
L 655.386427 -23.878125 
L 659.114464 -23.878125 
L 662.8425 -23.878125 
L 666.570537 -23.878125 
L 670.298573 -23.878125 
L 674.026609 -23.878125 
L 677.754646 -23.878125 
L 681.482682 -23.878125 
L 685.210719 -23.878125 
L 688.938755 -23.878125 
L 692.666791 -23.878125 
L 696.394828 -23.878125 
L 700.122864 -23.878125 
L 703.850901 -23.878125 
L 707.578937 -23.878125 
L 711.306973 -23.878125 
L 715.03501 -23.878125 
L 718.763046 -23.878125 
L 722.491083 -23.878125 
L 726.219119 -23.878125 
L 729.947155 -23.878125 
L 733.675192 -23.878125 
L 737.403228 -23.878125 
L 741.131265 -23.878125 
L 744.859301 -23.878125 
L 748.587337 -23.878125 
L 752.315374 -23.878125 
L 756.04341 -23.878125 
L 759.771447 -23.878125 
L 763.499483 -23.878125 
L 767.22752 -23.878125 
L 770.955556 -23.878125 
L 774.683592 -23.878125 
L 778.411629 -23.878125 
L 782.139665 -23.878125 
L 785.867702 -23.878125 
L 789.595738 -23.878125 
L 793.323774 -23.878125 
L 797.051811 -23.878125 
L 800.779847 -23.878125 
L 804.507884 -23.878125 
L 808.23592 -23.878125 
L 811.963956 -23.878125 
L 815.691993 -23.878125 
L 819.420029 -23.878125 
L 823.148066 -23.878125 
L 823.148066 -23.906529 
L 823.148066 -23.906529 
L 819.420029 -23.920019 
L 815.691993 -23.939126 
L 811.963956 -23.965821 
L 808.23592 -24.002617 
L 804.507884 -24.052654 
L 800.779847 -24.119792 
L 797.051811 -24.208689 
L 793.323774 -24.32486 
L 789.595738 -24.474712 
L 785.867702 -24.665546 
L 782.139665 -24.905522 
L 778.411629 -25.203575 
L 774.683592 -25.569297 
L 770.955556 -26.01278 
L 767.22752 -26.544432 
L 763.499483 -27.174796 
L 759.771447 -27.914375 
L 756.04341 -28.773503 
L 752.315374 -29.762284 
L 748.587337 -30.890621 
L 744.859301 -32.168356 
L 741.131265 -33.605514 
L 737.403228 -35.212672 
L 733.675192 -37.001385 
L 729.947155 -38.984672 
L 726.219119 -41.177463 
L 722.491083 -43.596958 
L 718.763046 -46.262808 
L 715.03501 -49.197031 
L 711.306973 -52.423605 
L 707.578937 -55.96767 
L 703.850901 -59.85433 
L 700.122864 -64.107063 
L 696.394828 -68.745801 
L 692.666791 -73.78477 
L 688.938755 -79.230255 
L 685.210719 -85.078427 
L 681.482682 -91.31346 
L 677.754646 -97.906094 
L 674.026609 -104.812852 
L 670.298573 -111.976021 
L 666.570537 -119.324514 
L 662.8425 -126.775616 
L 659.114464 -134.237592 
L 655.386427 -141.61301 
L 651.658391 -148.802639 
L 647.930355 -155.709645 
L 644.202318 -162.243855 
L 640.474282 -168.325777 
L 636.746245 -173.890128 
L 633.018209 -178.888617 
L 629.290172 -183.291801 
L 625.562136 -187.089884 
L 621.8341 -190.292422 
L 618.106063 -192.926941 
L 614.378027 -195.036586 
L 610.64999 -196.676934 
L 606.921954 -197.91221 
L 603.193918 -198.811115 
L 599.465881 -199.442551 
L 595.737845 -199.871486 
L 592.009808 -200.155221 
L 588.281772 -200.340268 
L 584.553736 -200.460036 
L 580.825699 -200.533447 
L 577.097663 -200.564573 
L 573.369626 -200.543305 
L 569.64159 -200.446997 
L 565.913554 -200.24298 
L 562.185517 -199.891749 
L 558.457481 -199.35061 
L 554.729444 -198.577503 
L 551.001408 -197.534723 
L 547.273372 -196.192271 
L 543.545335 -194.530569 
L 539.817299 -192.54237 
L 536.089262 -190.233718 
L 532.361226 -187.623936 
L 528.63319 -184.744662 
L 524.905153 -181.638065 
L 521.177117 -178.354406 
L 517.44908 -174.949172 
L 513.721044 -171.480006 
L 509.993007 -168.003684 
L 506.264971 -164.573336 
L 502.536935 -161.236075 
L 498.808898 -158.031174 
L 495.080862 -154.988828 
L 491.352825 -152.129541 
L 487.624789 -149.464087 
L 483.896753 -146.993994 
L 480.168716 -144.712452 
L 476.44068 -142.605534 
L 472.712643 -140.653632 
L 468.984607 -138.83299 
L 465.256571 -137.117244 
L 461.528534 -135.478887 
L 457.800498 -133.890583 
L 454.072461 -132.326304 
L 450.344425 -130.762241 
L 446.616389 -129.177495 
L 442.888352 -127.554533 
L 439.160316 -125.879437 
L 435.432279 -124.141956 
L 431.704243 -122.335392 
L 427.976207 -120.456348 
L 424.24817 -118.504371 
L 420.520134 -116.481511 
L 416.792097 -114.391845 
L 413.064061 -112.240988 
L 409.336025 -110.035623 
L 405.607988 -107.783088 
L 401.879952 -105.491037 
L 398.151915 -103.167202 
L 394.423879 -100.819261 
L 390.695842 -98.454813 
L 386.967806 -96.081429 
L 383.23977 -93.706773 
L 379.511733 -91.338739 
L 375.783697 -88.98556 
L 372.05566 -86.655862 
L 368.327624 -84.358617 
L 364.599588 -82.102988 
L 360.871551 -79.898045 
L 357.143515 -77.752391 
L 353.415478 -75.673716 
L 349.687442 -73.668335 
L 345.959406 -71.740757 
L 342.231369 -69.893354 
L 338.503333 -68.12617 
L 334.775296 -66.436899 
L 331.04726 -64.821067 
L 327.319224 -63.272392 
L 323.591187 -61.783302 
L 319.863151 -60.34556 
L 316.135114 -58.950939 
L 312.407078 -57.591869 
L 308.679042 -56.261997 
L 304.951005 -54.956605 
L 301.222969 -53.672843 
L 297.494932 -52.409765 
L 293.766896 -51.168177 
L 290.038859 -49.950326 
L 286.310823 -48.759476 
L 282.582787 -47.599435 
L 278.85475 -46.474081 
L 275.126714 -45.386954 
L 271.398677 -44.340939 
L 267.670641 -43.338064 
L 263.942605 -42.379433 
L 260.214568 -41.465247 
L 256.486532 -40.594921 
L 252.758495 -39.767241 
L 249.030459 -38.980534 
L 245.302423 -38.232823 
L 241.574386 -37.52195 
L 237.84635 -36.84565 
L 234.118313 -36.20159 
L 230.390277 -35.587365 
L 226.662241 -35.000487 
L 222.934204 -34.438368 
L 219.206168 -33.898321 
L 215.478131 -33.377581 
L 211.750095 -32.873363 
L 208.022059 -32.382939 
L 204.294022 -31.903746 
L 200.565986 -31.433505 
L 196.837949 -30.970334 
L 193.109913 -30.512857 
L 189.381877 -30.060288 
L 185.65384 -29.61248 
L 181.925804 -29.169944 
L 178.197767 -28.73382 
L 174.469731 -28.30581 
L 170.741694 -27.888085 
L 167.013658 -27.483145 
L 163.285622 -27.093674 
L 159.557585 -26.722377 
L 155.829549 -26.371815 
L 152.101512 -26.044262 
L 148.373476 -25.741572 
L 144.64544 -25.465085 
L 140.917403 -25.215565 
L 137.189367 -24.993175 
L 133.46133 -24.797494 
L 129.733294 -24.62756 
L 126.005258 -24.481949 
L 122.277221 -24.358867 
L 118.549185 -24.256255 
L 114.821148 -24.171894 
L 111.093112 -24.103511 
L 107.365076 -24.048862 
L 103.637039 -24.00581 
L 99.909003 -23.972379 
L 96.180966 -23.946793 
L 92.45293 -23.927494 
L 88.724894 -23.913147 
L 84.996857 -23.902637 
L 81.268821 -23.89505 
z
" style="stroke: #ff7f0e; stroke-width: 2.5"/>
    </defs>
    <g clip-path="url(#pbd1fb401ed)">
     <use xlink:href="#mc756012935" x="0" y="635.878125" style="fill: #ff7f0e; fill-opacity: 0.5; stroke: #ff7f0e; stroke-width: 2.5"/>
    </g>
   </g>
   <g id="PolyCollection_4">
    <defs>
     <path id="mb328935ed6" d="M 81.395234 -23.901468 
L 81.395234 -23.878125 
L 85.162193 -23.878125 
L 88.929153 -23.878125 
L 92.696113 -23.878125 
L 96.463073 -23.878125 
L 100.230033 -23.878125 
L 103.996992 -23.878125 
L 107.763952 -23.878125 
L 111.530912 -23.878125 
L 115.297872 -23.878125 
L 119.064832 -23.878125 
L 122.831791 -23.878125 
L 126.598751 -23.878125 
L 130.365711 -23.878125 
L 134.132671 -23.878125 
L 137.899631 -23.878125 
L 141.66659 -23.878125 
L 145.43355 -23.878125 
L 149.20051 -23.878125 
L 152.96747 -23.878125 
L 156.73443 -23.878125 
L 160.501389 -23.878125 
L 164.268349 -23.878125 
L 168.035309 -23.878125 
L 171.802269 -23.878125 
L 175.569229 -23.878125 
L 179.336189 -23.878125 
L 183.103148 -23.878125 
L 186.870108 -23.878125 
L 190.637068 -23.878125 
L 194.404028 -23.878125 
L 198.170988 -23.878125 
L 201.937947 -23.878125 
L 205.704907 -23.878125 
L 209.471867 -23.878125 
L 213.238827 -23.878125 
L 217.005787 -23.878125 
L 220.772746 -23.878125 
L 224.539706 -23.878125 
L 228.306666 -23.878125 
L 232.073626 -23.878125 
L 235.840586 -23.878125 
L 239.607545 -23.878125 
L 243.374505 -23.878125 
L 247.141465 -23.878125 
L 250.908425 -23.878125 
L 254.675385 -23.878125 
L 258.442344 -23.878125 
L 262.209304 -23.878125 
L 265.976264 -23.878125 
L 269.743224 -23.878125 
L 273.510184 -23.878125 
L 277.277144 -23.878125 
L 281.044103 -23.878125 
L 284.811063 -23.878125 
L 288.578023 -23.878125 
L 292.344983 -23.878125 
L 296.111943 -23.878125 
L 299.878902 -23.878125 
L 303.645862 -23.878125 
L 307.412822 -23.878125 
L 311.179782 -23.878125 
L 314.946742 -23.878125 
L 318.713701 -23.878125 
L 322.480661 -23.878125 
L 326.247621 -23.878125 
L 330.014581 -23.878125 
L 333.781541 -23.878125 
L 337.5485 -23.878125 
L 341.31546 -23.878125 
L 345.08242 -23.878125 
L 348.84938 -23.878125 
L 352.61634 -23.878125 
L 356.3833 -23.878125 
L 360.150259 -23.878125 
L 363.917219 -23.878125 
L 367.684179 -23.878125 
L 371.451139 -23.878125 
L 375.218099 -23.878125 
L 378.985058 -23.878125 
L 382.752018 -23.878125 
L 386.518978 -23.878125 
L 390.285938 -23.878125 
L 394.052898 -23.878125 
L 397.819857 -23.878125 
L 401.586817 -23.878125 
L 405.353777 -23.878125 
L 409.120737 -23.878125 
L 412.887697 -23.878125 
L 416.654656 -23.878125 
L 420.421616 -23.878125 
L 424.188576 -23.878125 
L 427.955536 -23.878125 
L 431.722496 -23.878125 
L 435.489455 -23.878125 
L 439.256415 -23.878125 
L 443.023375 -23.878125 
L 446.790335 -23.878125 
L 450.557295 -23.878125 
L 454.324255 -23.878125 
L 458.091214 -23.878125 
L 461.858174 -23.878125 
L 465.625134 -23.878125 
L 469.392094 -23.878125 
L 473.159054 -23.878125 
L 476.926013 -23.878125 
L 480.692973 -23.878125 
L 484.459933 -23.878125 
L 488.226893 -23.878125 
L 491.993853 -23.878125 
L 495.760812 -23.878125 
L 499.527772 -23.878125 
L 503.294732 -23.878125 
L 507.061692 -23.878125 
L 510.828652 -23.878125 
L 514.595611 -23.878125 
L 518.362571 -23.878125 
L 522.129531 -23.878125 
L 525.896491 -23.878125 
L 529.663451 -23.878125 
L 533.430411 -23.878125 
L 537.19737 -23.878125 
L 540.96433 -23.878125 
L 544.73129 -23.878125 
L 548.49825 -23.878125 
L 552.26521 -23.878125 
L 556.032169 -23.878125 
L 559.799129 -23.878125 
L 563.566089 -23.878125 
L 567.333049 -23.878125 
L 571.100009 -23.878125 
L 574.866968 -23.878125 
L 578.633928 -23.878125 
L 582.400888 -23.878125 
L 586.167848 -23.878125 
L 589.934808 -23.878125 
L 593.701767 -23.878125 
L 597.468727 -23.878125 
L 601.235687 -23.878125 
L 605.002647 -23.878125 
L 608.769607 -23.878125 
L 612.536566 -23.878125 
L 616.303526 -23.878125 
L 620.070486 -23.878125 
L 623.837446 -23.878125 
L 627.604406 -23.878125 
L 631.371366 -23.878125 
L 635.138325 -23.878125 
L 638.905285 -23.878125 
L 642.672245 -23.878125 
L 646.439205 -23.878125 
L 650.206165 -23.878125 
L 653.973124 -23.878125 
L 657.740084 -23.878125 
L 661.507044 -23.878125 
L 665.274004 -23.878125 
L 669.040964 -23.878125 
L 672.807923 -23.878125 
L 676.574883 -23.878125 
L 680.341843 -23.878125 
L 684.108803 -23.878125 
L 687.875763 -23.878125 
L 691.642722 -23.878125 
L 695.409682 -23.878125 
L 699.176642 -23.878125 
L 702.943602 -23.878125 
L 706.710562 -23.878125 
L 710.477522 -23.878125 
L 714.244481 -23.878125 
L 718.011441 -23.878125 
L 721.778401 -23.878125 
L 725.545361 -23.878125 
L 729.312321 -23.878125 
L 733.07928 -23.878125 
L 736.84624 -23.878125 
L 740.6132 -23.878125 
L 744.38016 -23.878125 
L 748.14712 -23.878125 
L 751.914079 -23.878125 
L 755.681039 -23.878125 
L 759.447999 -23.878125 
L 763.214959 -23.878125 
L 766.981919 -23.878125 
L 770.748878 -23.878125 
L 774.515838 -23.878125 
L 778.282798 -23.878125 
L 782.049758 -23.878125 
L 785.816718 -23.878125 
L 789.583677 -23.878125 
L 793.350637 -23.878125 
L 797.117597 -23.878125 
L 800.884557 -23.878125 
L 804.651517 -23.878125 
L 808.418477 -23.878125 
L 812.185436 -23.878125 
L 815.952396 -23.878125 
L 819.719356 -23.878125 
L 823.486316 -23.878125 
L 827.253276 -23.878125 
L 831.020235 -23.878125 
L 831.020235 -23.903476 
L 831.020235 -23.903476 
L 827.253276 -23.915485 
L 823.486316 -23.932549 
L 819.719356 -23.956502 
L 815.952396 -23.989721 
L 812.185436 -24.035245 
L 808.418477 -24.096896 
L 804.651517 -24.179415 
L 800.884557 -24.288594 
L 797.117597 -24.431402 
L 793.350637 -24.6161 
L 789.583677 -24.852337 
L 785.816718 -25.151209 
L 782.049758 -25.525296 
L 778.282798 -25.988648 
L 774.515838 -26.556737 
L 770.748878 -27.246366 
L 766.981919 -28.075545 
L 763.214959 -29.063346 
L 759.447999 -30.229736 
L 755.681039 -31.595409 
L 751.914079 -33.181623 
L 748.14712 -35.010038 
L 744.38016 -37.102552 
L 740.6132 -39.481128 
L 736.84624 -42.167566 
L 733.07928 -45.183205 
L 729.312321 -48.548494 
L 725.545361 -52.2824 
L 721.778401 -56.401616 
L 718.011441 -60.919541 
L 714.244481 -65.845044 
L 710.477522 -71.181043 
L 706.710562 -76.922978 
L 702.943602 -83.057275 
L 699.176642 -89.559964 
L 695.409682 -96.395585 
L 691.642722 -103.516581 
L 687.875763 -110.863305 
L 684.108803 -118.364781 
L 680.341843 -125.940276 
L 676.574883 -133.50168 
L 672.807923 -140.956619 
L 669.040964 -148.212131 
L 665.274004 -155.178684 
L 661.507044 -161.774247 
L 657.740084 -167.928113 
L 653.973124 -173.584156 
L 650.206165 -178.703261 
L 646.439205 -183.264715 
L 642.672245 -187.266426 
L 638.905285 -190.723964 
L 635.138325 -193.668474 
L 631.371366 -196.143663 
L 627.604406 -198.202089 
L 623.837446 -199.901066 
L 620.070486 -201.298507 
L 616.303526 -202.449034 
L 612.536566 -203.400622 
L 608.769607 -204.192024 
L 605.002647 -204.851094 
L 601.235687 -205.394094 
L 597.468727 -205.825942 
L 593.701767 -206.141302 
L 589.934808 -206.326352 
L 586.167848 -206.361011 
L 582.400888 -206.221412 
L 578.633928 -205.882375 
L 574.866968 -205.319691 
L 571.100009 -204.512045 
L 567.333049 -203.442477 
L 563.566089 -202.099315 
L 559.799129 -200.476603 
L 556.032169 -198.574053 
L 552.26521 -196.396637 
L 548.49825 -193.953921 
L 544.73129 -191.259271 
L 540.96433 -188.329042 
L 537.19737 -185.181855 
L 533.430411 -181.838016 
L 529.663451 -178.319118 
L 525.896491 -174.647806 
L 522.129531 -170.847691 
L 518.362571 -166.943328 
L 514.595611 -162.96021 
L 510.828652 -158.924695 
L 507.061692 -154.86381 
L 503.294732 -150.804896 
L 499.527772 -146.775087 
L 495.760812 -142.800633 
L 491.993853 -138.906124 
L 488.226893 -135.113688 
L 484.459933 -131.442232 
L 480.692973 -127.90683 
L 476.926013 -124.518323 
L 473.159054 -121.283191 
L 469.392094 -118.203726 
L 465.625134 -115.27849 
L 461.858174 -112.503039 
L 458.091214 -109.870816 
L 454.324255 -107.374144 
L 450.557295 -105.005202 
L 446.790335 -102.756889 
L 443.023375 -100.62349 
L 439.256415 -98.60107 
L 435.489455 -96.687581 
L 431.722496 -94.882659 
L 427.955536 -93.187169 
L 424.188576 -91.60254 
L 420.421616 -90.129991 
L 416.654656 -88.769715 
L 412.887697 -87.520141 
L 409.120737 -86.377327 
L 405.353777 -85.334572 
L 401.586817 -84.382265 
L 397.819857 -83.507997 
L 394.052898 -82.696916 
L 390.285938 -81.932292 
L 386.518978 -81.196235 
L 382.752018 -80.470506 
L 378.985058 -79.737346 
L 375.218099 -78.980261 
L 371.451139 -78.184707 
L 367.684179 -77.338623 
L 363.917219 -76.432796 
L 360.150259 -75.461035 
L 356.3833 -74.420168 
L 352.61634 -73.309871 
L 348.84938 -72.132373 
L 345.08242 -70.892055 
L 341.31546 -69.594994 
L 337.5485 -68.24849 
L 333.781541 -66.860602 
L 330.014581 -65.439722 
L 326.247621 -63.99422 
L 322.480661 -62.532157 
L 318.713701 -61.061079 
L 314.946742 -59.587898 
L 311.179782 -58.118839 
L 307.412822 -56.65946 
L 303.645862 -55.21471 
L 299.878902 -53.789035 
L 296.111943 -52.386493 
L 292.344983 -51.010878 
L 288.578023 -49.665824 
L 284.811063 -48.3549 
L 281.044103 -47.081655 
L 277.277144 -45.84964 
L 273.510184 -44.662385 
L 269.743224 -43.523337 
L 265.976264 -42.435765 
L 262.209304 -41.402644 
L 258.442344 -40.42652 
L 254.675385 -39.509366 
L 250.908425 -38.652442 
L 247.141465 -37.856178 
L 243.374505 -37.120061 
L 239.607545 -36.442573 
L 235.840586 -35.821153 
L 232.073626 -35.252208 
L 228.306666 -34.731167 
L 224.539706 -34.252586 
L 220.772746 -33.810303 
L 217.005787 -33.397629 
L 213.238827 -33.007586 
L 209.471867 -32.633172 
L 205.704907 -32.267638 
L 201.937947 -31.904774 
L 198.170988 -31.539179 
L 194.404028 -31.166495 
L 190.637068 -30.7836 
L 186.870108 -30.388736 
L 183.103148 -29.981561 
L 179.336189 -29.563125 
L 175.569229 -29.135763 
L 171.802269 -28.702919 
L 168.035309 -28.268903 
L 164.268349 -27.838606 
L 160.501389 -27.417193 
L 156.73443 -27.009787 
L 152.96747 -26.621185 
L 149.20051 -26.255602 
L 145.43355 -25.916479 
L 141.66659 -25.606355 
L 137.899631 -25.326797 
L 134.132671 -25.078414 
L 130.365711 -24.860911 
L 126.598751 -24.673201 
L 122.831791 -24.513548 
L 119.064832 -24.379724 
L 115.297872 -24.269175 
L 111.530912 -24.179174 
L 107.763952 -24.10696 
L 103.996992 -24.049856 
L 100.230033 -24.005352 
L 96.463073 -23.971166 
L 92.696113 -23.945284 
L 88.929153 -23.925971 
L 85.162193 -23.911766 
L 81.395234 -23.901468 
z
" style="stroke: #1f77b4; stroke-width: 2.5"/>
    </defs>
    <g clip-path="url(#pbd1fb401ed)">
     <use xlink:href="#mb328935ed6" x="0" y="635.878125" style="fill: #1f77b4; fill-opacity: 0.5; stroke: #1f77b4; stroke-width: 2.5"/>
    </g>
   </g>
   <g id="matplotlib.axis_3">
    <g id="xtick_7">
     <g id="line2d_14">
      <g>
       <use xlink:href="#me4199af0c6" x="169.168884" y="612" style="stroke: #000000; stroke-width: 0.8"/>
      </g>
     </g>
     <g id="text_19">
      <!-- 0.0 -->
      <g transform="translate(161.217321 626.598438) scale(0.1 -0.1)">
       <use xlink:href="#DejaVuSans-30"/>
       <use xlink:href="#DejaVuSans-2e" x="63.623047"/>
       <use xlink:href="#DejaVuSans-30" x="95.410156"/>
      </g>
     </g>
    </g>
    <g id="xtick_8">
     <g id="line2d_15">
      <g>
       <use xlink:href="#me4199af0c6" x="302.647019" y="612" style="stroke: #000000; stroke-width: 0.8"/>
      </g>
     </g>
     <g id="text_20">
      <!-- 0.2 -->
      <g transform="translate(294.695457 626.598438) scale(0.1 -0.1)">
       <use xlink:href="#DejaVuSans-30"/>
       <use xlink:href="#DejaVuSans-2e" x="63.623047"/>
       <use xlink:href="#DejaVuSans-32" x="95.410156"/>
      </g>
     </g>
    </g>
    <g id="xtick_9">
     <g id="line2d_16">
      <g>
       <use xlink:href="#me4199af0c6" x="436.125155" y="612" style="stroke: #000000; stroke-width: 0.8"/>
      </g>
     </g>
     <g id="text_21">
      <!-- 0.4 -->
      <g transform="translate(428.173592 626.598438) scale(0.1 -0.1)">
       <use xlink:href="#DejaVuSans-30"/>
       <use xlink:href="#DejaVuSans-2e" x="63.623047"/>
       <use xlink:href="#DejaVuSans-34" x="95.410156"/>
      </g>
     </g>
    </g>
    <g id="xtick_10">
     <g id="line2d_17">
      <g>
       <use xlink:href="#me4199af0c6" x="569.60329" y="612" style="stroke: #000000; stroke-width: 0.8"/>
      </g>
     </g>
     <g id="text_22">
      <!-- 0.6 -->
      <g transform="translate(561.651728 626.598438) scale(0.1 -0.1)">
       <use xlink:href="#DejaVuSans-30"/>
       <use xlink:href="#DejaVuSans-2e" x="63.623047"/>
       <use xlink:href="#DejaVuSans-36" x="95.410156"/>
      </g>
     </g>
    </g>
    <g id="xtick_11">
     <g id="line2d_18">
      <g>
       <use xlink:href="#me4199af0c6" x="703.081426" y="612" style="stroke: #000000; stroke-width: 0.8"/>
      </g>
     </g>
     <g id="text_23">
      <!-- 0.8 -->
      <g transform="translate(695.129863 626.598438) scale(0.1 -0.1)">
       <use xlink:href="#DejaVuSans-30"/>
       <use xlink:href="#DejaVuSans-2e" x="63.623047"/>
       <use xlink:href="#DejaVuSans-38" x="95.410156"/>
      </g>
     </g>
    </g>
    <g id="xtick_12">
     <g id="line2d_19">
      <g>
       <use xlink:href="#me4199af0c6" x="836.559561" y="612" style="stroke: #000000; stroke-width: 0.8"/>
      </g>
     </g>
     <g id="text_24">
      <!-- 1.0 -->
      <g transform="translate(828.607998 626.598438) scale(0.1 -0.1)">
       <use xlink:href="#DejaVuSans-31"/>
       <use xlink:href="#DejaVuSans-2e" x="63.623047"/>
       <use xlink:href="#DejaVuSans-30" x="95.410156"/>
      </g>
     </g>
    </g>
   </g>
   <g id="matplotlib.axis_4">
    <g id="ytick_8">
     <g id="line2d_20">
      <g>
       <use xlink:href="#m03477b69d2" x="43.78125" y="612" style="stroke: #000000; stroke-width: 0.8"/>
      </g>
     </g>
     <g id="text_25">
      <!-- 0.0 -->
      <g transform="translate(20.878125 615.799219) scale(0.1 -0.1)">
       <use xlink:href="#DejaVuSans-30"/>
       <use xlink:href="#DejaVuSans-2e" x="63.623047"/>
       <use xlink:href="#DejaVuSans-30" x="95.410156"/>
      </g>
     </g>
    </g>
    <g id="ytick_9">
     <g id="line2d_21">
      <g>
       <use xlink:href="#m03477b69d2" x="43.78125" y="576.39158" style="stroke: #000000; stroke-width: 0.8"/>
      </g>
     </g>
     <g id="text_26">
      <!-- 0.5 -->
      <g transform="translate(20.878125 580.190799) scale(0.1 -0.1)">
       <use xlink:href="#DejaVuSans-30"/>
       <use xlink:href="#DejaVuSans-2e" x="63.623047"/>
       <use xlink:href="#DejaVuSans-35" x="95.410156"/>
      </g>
     </g>
    </g>
    <g id="ytick_10">
     <g id="line2d_22">
      <g>
       <use xlink:href="#m03477b69d2" x="43.78125" y="540.78316" style="stroke: #000000; stroke-width: 0.8"/>
      </g>
     </g>
     <g id="text_27">
      <!-- 1.0 -->
      <g transform="translate(20.878125 544.582379) scale(0.1 -0.1)">
       <use xlink:href="#DejaVuSans-31"/>
       <use xlink:href="#DejaVuSans-2e" x="63.623047"/>
       <use xlink:href="#DejaVuSans-30" x="95.410156"/>
      </g>
     </g>
    </g>
    <g id="ytick_11">
     <g id="line2d_23">
      <g>
       <use xlink:href="#m03477b69d2" x="43.78125" y="505.17474" style="stroke: #000000; stroke-width: 0.8"/>
      </g>
     </g>
     <g id="text_28">
      <!-- 1.5 -->
      <g transform="translate(20.878125 508.973959) scale(0.1 -0.1)">
       <use xlink:href="#DejaVuSans-31"/>
       <use xlink:href="#DejaVuSans-2e" x="63.623047"/>
       <use xlink:href="#DejaVuSans-35" x="95.410156"/>
      </g>
     </g>
    </g>
    <g id="ytick_12">
     <g id="line2d_24">
      <g>
       <use xlink:href="#m03477b69d2" x="43.78125" y="469.56632" style="stroke: #000000; stroke-width: 0.8"/>
      </g>
     </g>
     <g id="text_29">
      <!-- 2.0 -->
      <g transform="translate(20.878125 473.365539) scale(0.1 -0.1)">
       <use xlink:href="#DejaVuSans-32"/>
       <use xlink:href="#DejaVuSans-2e" x="63.623047"/>
       <use xlink:href="#DejaVuSans-30" x="95.410156"/>
      </g>
     </g>
    </g>
    <g id="ytick_13">
     <g id="line2d_25">
      <g>
       <use xlink:href="#m03477b69d2" x="43.78125" y="433.957901" style="stroke: #000000; stroke-width: 0.8"/>
      </g>
     </g>
     <g id="text_30">
      <!-- 2.5 -->
      <g transform="translate(20.878125 437.757119) scale(0.1 -0.1)">
       <use xlink:href="#DejaVuSans-32"/>
       <use xlink:href="#DejaVuSans-2e" x="63.623047"/>
       <use xlink:href="#DejaVuSans-35" x="95.410156"/>
      </g>
     </g>
    </g>
    <g id="ytick_14">
     <g id="line2d_26">
      <g>
       <use xlink:href="#m03477b69d2" x="43.78125" y="398.349481" style="stroke: #000000; stroke-width: 0.8"/>
      </g>
     </g>
     <g id="text_31">
      <!-- 3.0 -->
      <g transform="translate(20.878125 402.148699) scale(0.1 -0.1)">
       <use xlink:href="#DejaVuSans-33"/>
       <use xlink:href="#DejaVuSans-2e" x="63.623047"/>
       <use xlink:href="#DejaVuSans-30" x="95.410156"/>
      </g>
     </g>
    </g>
    <g id="text_32">
     <!-- Density -->
     <g transform="translate(14.798438 510.486855) rotate(-90) scale(0.1 -0.1)">
      <use xlink:href="#DejaVuSans-44"/>
      <use xlink:href="#DejaVuSans-65" x="77.001953"/>
      <use xlink:href="#DejaVuSans-6e" x="138.525391"/>
      <use xlink:href="#DejaVuSans-73" x="201.904297"/>
      <use xlink:href="#DejaVuSans-69" x="254.003906"/>
      <use xlink:href="#DejaVuSans-74" x="281.787109"/>
      <use xlink:href="#DejaVuSans-79" x="320.996094"/>
     </g>
    </g>
   </g>
   <g id="patch_11">
    <path d="M 43.78125 612 
L 43.78125 370.956522 
" style="fill: none; stroke: #000000; stroke-width: 0.8; stroke-linejoin: miter; stroke-linecap: square"/>
   </g>
   <g id="patch_12">
    <path d="M 880.78125 612 
L 880.78125 370.956522 
" style="fill: none; stroke: #000000; stroke-width: 0.8; stroke-linejoin: miter; stroke-linecap: square"/>
   </g>
   <g id="patch_13">
    <path d="M 43.78125 612 
L 880.78125 612 
" style="fill: none; stroke: #000000; stroke-width: 0.8; stroke-linejoin: miter; stroke-linecap: square"/>
   </g>
   <g id="patch_14">
    <path d="M 43.78125 370.956522 
L 880.78125 370.956522 
" style="fill: none; stroke: #000000; stroke-width: 0.8; stroke-linejoin: miter; stroke-linecap: square"/>
   </g>
   <g id="text_33">
    <!-- Spearman correlation coefficients -->
    <g transform="translate(361.111875 364.956522) scale(0.12 -0.12)">
     <defs>
      <path id="DejaVuSans-53" d="M 3425 4513 
L 3425 3897 
Q 3066 4069 2747 4153 
Q 2428 4238 2131 4238 
Q 1616 4238 1336 4038 
Q 1056 3838 1056 3469 
Q 1056 3159 1242 3001 
Q 1428 2844 1947 2747 
L 2328 2669 
Q 3034 2534 3370 2195 
Q 3706 1856 3706 1288 
Q 3706 609 3251 259 
Q 2797 -91 1919 -91 
Q 1588 -91 1214 -16 
Q 841 59 441 206 
L 441 856 
Q 825 641 1194 531 
Q 1563 422 1919 422 
Q 2459 422 2753 634 
Q 3047 847 3047 1241 
Q 3047 1584 2836 1778 
Q 2625 1972 2144 2069 
L 1759 2144 
Q 1053 2284 737 2584 
Q 422 2884 422 3419 
Q 422 4038 858 4394 
Q 1294 4750 2059 4750 
Q 2388 4750 2728 4690 
Q 3069 4631 3425 4513 
z
" transform="scale(0.015625)"/>
      <path id="DejaVuSans-6d" d="M 3328 2828 
Q 3544 3216 3844 3400 
Q 4144 3584 4550 3584 
Q 5097 3584 5394 3201 
Q 5691 2819 5691 2113 
L 5691 0 
L 5113 0 
L 5113 2094 
Q 5113 2597 4934 2840 
Q 4756 3084 4391 3084 
Q 3944 3084 3684 2787 
Q 3425 2491 3425 1978 
L 3425 0 
L 2847 0 
L 2847 2094 
Q 2847 2600 2669 2842 
Q 2491 3084 2119 3084 
Q 1678 3084 1418 2786 
Q 1159 2488 1159 1978 
L 1159 0 
L 581 0 
L 581 3500 
L 1159 3500 
L 1159 2956 
Q 1356 3278 1631 3431 
Q 1906 3584 2284 3584 
Q 2666 3584 2933 3390 
Q 3200 3197 3328 2828 
z
" transform="scale(0.015625)"/>
     </defs>
     <use xlink:href="#DejaVuSans-53"/>
     <use xlink:href="#DejaVuSans-70" x="63.476562"/>
     <use xlink:href="#DejaVuSans-65" x="126.953125"/>
     <use xlink:href="#DejaVuSans-61" x="188.476562"/>
     <use xlink:href="#DejaVuSans-72" x="249.755859"/>
     <use xlink:href="#DejaVuSans-6d" x="289.119141"/>
     <use xlink:href="#DejaVuSans-61" x="386.53125"/>
     <use xlink:href="#DejaVuSans-6e" x="447.810547"/>
     <use xlink:href="#DejaVuSans-20" x="511.189453"/>
     <use xlink:href="#DejaVuSans-63" x="542.976562"/>
     <use xlink:href="#DejaVuSans-6f" x="597.957031"/>
     <use xlink:href="#DejaVuSans-72" x="659.138672"/>
     <use xlink:href="#DejaVuSans-72" x="698.501953"/>
     <use xlink:href="#DejaVuSans-65" x="737.365234"/>
     <use xlink:href="#DejaVuSans-6c" x="798.888672"/>
     <use xlink:href="#DejaVuSans-61" x="826.671875"/>
     <use xlink:href="#DejaVuSans-74" x="887.951172"/>
     <use xlink:href="#DejaVuSans-69" x="927.160156"/>
     <use xlink:href="#DejaVuSans-6f" x="954.943359"/>
     <use xlink:href="#DejaVuSans-6e" x="1016.125"/>
     <use xlink:href="#DejaVuSans-20" x="1079.503906"/>
     <use xlink:href="#DejaVuSans-63" x="1111.291016"/>
     <use xlink:href="#DejaVuSans-6f" x="1166.271484"/>
     <use xlink:href="#DejaVuSans-65" x="1227.453125"/>
     <use xlink:href="#DejaVuSans-66" x="1288.976562"/>
     <use xlink:href="#DejaVuSans-66" x="1324.181641"/>
     <use xlink:href="#DejaVuSans-69" x="1359.386719"/>
     <use xlink:href="#DejaVuSans-63" x="1387.169922"/>
     <use xlink:href="#DejaVuSans-69" x="1442.150391"/>
     <use xlink:href="#DejaVuSans-65" x="1469.933594"/>
     <use xlink:href="#DejaVuSans-6e" x="1531.457031"/>
     <use xlink:href="#DejaVuSans-74" x="1594.835938"/>
     <use xlink:href="#DejaVuSans-73" x="1634.044922"/>
    </g>
   </g>
   <g id="legend_2">
    <g id="patch_15">
     <path d="M 50.78125 422.990897 
L 138.80625 422.990897 
Q 140.80625 422.990897 140.80625 420.990897 
L 140.80625 377.956522 
Q 140.80625 375.956522 138.80625 375.956522 
L 50.78125 375.956522 
Q 48.78125 375.956522 48.78125 377.956522 
L 48.78125 420.990897 
Q 48.78125 422.990897 50.78125 422.990897 
z
" style="fill: #ffffff; opacity: 0.8; stroke: #cccccc; stroke-linejoin: miter"/>
    </g>
    <g id="text_34">
     <!-- Correlation type: -->
     <g transform="translate(52.78125 387.554959) scale(0.1 -0.1)">
      <use xlink:href="#DejaVuSans-43"/>
      <use xlink:href="#DejaVuSans-6f" x="69.824219"/>
      <use xlink:href="#DejaVuSans-72" x="131.005859"/>
      <use xlink:href="#DejaVuSans-72" x="170.369141"/>
      <use xlink:href="#DejaVuSans-65" x="209.232422"/>
      <use xlink:href="#DejaVuSans-6c" x="270.755859"/>
      <use xlink:href="#DejaVuSans-61" x="298.539062"/>
      <use xlink:href="#DejaVuSans-74" x="359.818359"/>
      <use xlink:href="#DejaVuSans-69" x="399.027344"/>
      <use xlink:href="#DejaVuSans-6f" x="426.810547"/>
      <use xlink:href="#DejaVuSans-6e" x="487.992188"/>
      <use xlink:href="#DejaVuSans-20" x="551.371094"/>
      <use xlink:href="#DejaVuSans-74" x="583.158203"/>
      <use xlink:href="#DejaVuSans-79" x="622.367188"/>
      <use xlink:href="#DejaVuSans-70" x="681.546875"/>
      <use xlink:href="#DejaVuSans-65" x="745.023438"/>
      <use xlink:href="#DejaVuSans-3a" x="806.546875"/>
     </g>
    </g>
    <g id="patch_16">
     <path d="M 53.285156 402.233084 
L 73.285156 402.233084 
L 73.285156 395.233084 
L 53.285156 395.233084 
z
" style="fill: #1f77b4; fill-opacity: 0.5; stroke: #1f77b4; stroke-width: 2.5; stroke-linejoin: miter"/>
    </g>
    <g id="text_35">
     <!-- Codon -->
     <g transform="translate(81.285156 402.233084) scale(0.1 -0.1)">
      <use xlink:href="#DejaVuSans-43"/>
      <use xlink:href="#DejaVuSans-6f" x="69.824219"/>
      <use xlink:href="#DejaVuSans-64" x="131.005859"/>
      <use xlink:href="#DejaVuSans-6f" x="194.482422"/>
      <use xlink:href="#DejaVuSans-6e" x="255.664062"/>
     </g>
    </g>
    <g id="patch_17">
     <path d="M 53.285156 416.911209 
L 73.285156 416.911209 
L 73.285156 409.911209 
L 53.285156 409.911209 
z
" style="fill: #ff7f0e; fill-opacity: 0.5; stroke: #ff7f0e; stroke-width: 2.5; stroke-linejoin: miter"/>
    </g>
    <g id="text_36">
     <!-- Codon+GC -->
     <g transform="translate(81.285156 416.911209) scale(0.1 -0.1)">
      <use xlink:href="#DejaVuSans-43"/>
      <use xlink:href="#DejaVuSans-6f" x="69.824219"/>
      <use xlink:href="#DejaVuSans-64" x="131.005859"/>
      <use xlink:href="#DejaVuSans-6f" x="194.482422"/>
      <use xlink:href="#DejaVuSans-6e" x="255.664062"/>
      <use xlink:href="#DejaVuSans-2b" x="319.042969"/>
      <use xlink:href="#DejaVuSans-47" x="402.832031"/>
      <use xlink:href="#DejaVuSans-43" x="480.322266"/>
     </g>
    </g>
   </g>
  </g>
  <g id="text_37">
   <!-- Eukaryota - Density of correlation coefficients for genetic code: Trematode mitochondrial -->
   <g transform="translate(114.819141 18.597656) scale(0.15 -0.15)">
    <defs>
     <path id="DejaVuSans-45" d="M 628 4666 
L 3578 4666 
L 3578 4134 
L 1259 4134 
L 1259 2753 
L 3481 2753 
L 3481 2222 
L 1259 2222 
L 1259 531 
L 3634 531 
L 3634 0 
L 628 0 
L 628 4666 
z
" transform="scale(0.015625)"/>
     <path id="DejaVuSans-75" d="M 544 1381 
L 544 3500 
L 1119 3500 
L 1119 1403 
Q 1119 906 1312 657 
Q 1506 409 1894 409 
Q 2359 409 2629 706 
Q 2900 1003 2900 1516 
L 2900 3500 
L 3475 3500 
L 3475 0 
L 2900 0 
L 2900 538 
Q 2691 219 2414 64 
Q 2138 -91 1772 -91 
Q 1169 -91 856 284 
Q 544 659 544 1381 
z
M 1991 3584 
L 1991 3584 
z
" transform="scale(0.015625)"/>
     <path id="DejaVuSans-6b" d="M 581 4863 
L 1159 4863 
L 1159 1991 
L 2875 3500 
L 3609 3500 
L 1753 1863 
L 3688 0 
L 2938 0 
L 1159 1709 
L 1159 0 
L 581 0 
L 581 4863 
z
" transform="scale(0.015625)"/>
     <path id="DejaVuSans-2d" d="M 313 2009 
L 1997 2009 
L 1997 1497 
L 313 1497 
L 313 2009 
z
" transform="scale(0.015625)"/>
     <path id="DejaVuSans-67" d="M 2906 1791 
Q 2906 2416 2648 2759 
Q 2391 3103 1925 3103 
Q 1463 3103 1205 2759 
Q 947 2416 947 1791 
Q 947 1169 1205 825 
Q 1463 481 1925 481 
Q 2391 481 2648 825 
Q 2906 1169 2906 1791 
z
M 3481 434 
Q 3481 -459 3084 -895 
Q 2688 -1331 1869 -1331 
Q 1566 -1331 1297 -1286 
Q 1028 -1241 775 -1147 
L 775 -588 
Q 1028 -725 1275 -790 
Q 1522 -856 1778 -856 
Q 2344 -856 2625 -561 
Q 2906 -266 2906 331 
L 2906 616 
Q 2728 306 2450 153 
Q 2172 0 1784 0 
Q 1141 0 747 490 
Q 353 981 353 1791 
Q 353 2603 747 3093 
Q 1141 3584 1784 3584 
Q 2172 3584 2450 3431 
Q 2728 3278 2906 2969 
L 2906 3500 
L 3481 3500 
L 3481 434 
z
" transform="scale(0.015625)"/>
     <path id="DejaVuSans-54" d="M -19 4666 
L 3928 4666 
L 3928 4134 
L 2272 4134 
L 2272 0 
L 1638 0 
L 1638 4134 
L -19 4134 
L -19 4666 
z
" transform="scale(0.015625)"/>
     <path id="DejaVuSans-68" d="M 3513 2113 
L 3513 0 
L 2938 0 
L 2938 2094 
Q 2938 2591 2744 2837 
Q 2550 3084 2163 3084 
Q 1697 3084 1428 2787 
Q 1159 2491 1159 1978 
L 1159 0 
L 581 0 
L 581 4863 
L 1159 4863 
L 1159 2956 
Q 1366 3272 1645 3428 
Q 1925 3584 2291 3584 
Q 2894 3584 3203 3211 
Q 3513 2838 3513 2113 
z
" transform="scale(0.015625)"/>
    </defs>
    <use xlink:href="#DejaVuSans-45"/>
    <use xlink:href="#DejaVuSans-75" x="63.183594"/>
    <use xlink:href="#DejaVuSans-6b" x="126.5625"/>
    <use xlink:href="#DejaVuSans-61" x="182.722656"/>
    <use xlink:href="#DejaVuSans-72" x="244.001953"/>
    <use xlink:href="#DejaVuSans-79" x="285.115234"/>
    <use xlink:href="#DejaVuSans-6f" x="344.294922"/>
    <use xlink:href="#DejaVuSans-74" x="405.476562"/>
    <use xlink:href="#DejaVuSans-61" x="444.685547"/>
    <use xlink:href="#DejaVuSans-20" x="505.964844"/>
    <use xlink:href="#DejaVuSans-2d" x="537.751953"/>
    <use xlink:href="#DejaVuSans-20" x="573.835938"/>
    <use xlink:href="#DejaVuSans-44" x="605.623047"/>
    <use xlink:href="#DejaVuSans-65" x="682.625"/>
    <use xlink:href="#DejaVuSans-6e" x="744.148438"/>
    <use xlink:href="#DejaVuSans-73" x="807.527344"/>
    <use xlink:href="#DejaVuSans-69" x="859.626953"/>
    <use xlink:href="#DejaVuSans-74" x="887.410156"/>
    <use xlink:href="#DejaVuSans-79" x="926.619141"/>
    <use xlink:href="#DejaVuSans-20" x="985.798828"/>
    <use xlink:href="#DejaVuSans-6f" x="1017.585938"/>
    <use xlink:href="#DejaVuSans-66" x="1078.767578"/>
    <use xlink:href="#DejaVuSans-20" x="1113.972656"/>
    <use xlink:href="#DejaVuSans-63" x="1145.759766"/>
    <use xlink:href="#DejaVuSans-6f" x="1200.740234"/>
    <use xlink:href="#DejaVuSans-72" x="1261.921875"/>
    <use xlink:href="#DejaVuSans-72" x="1301.285156"/>
    <use xlink:href="#DejaVuSans-65" x="1340.148438"/>
    <use xlink:href="#DejaVuSans-6c" x="1401.671875"/>
    <use xlink:href="#DejaVuSans-61" x="1429.455078"/>
    <use xlink:href="#DejaVuSans-74" x="1490.734375"/>
    <use xlink:href="#DejaVuSans-69" x="1529.943359"/>
    <use xlink:href="#DejaVuSans-6f" x="1557.726562"/>
    <use xlink:href="#DejaVuSans-6e" x="1618.908203"/>
    <use xlink:href="#DejaVuSans-20" x="1682.287109"/>
    <use xlink:href="#DejaVuSans-63" x="1714.074219"/>
    <use xlink:href="#DejaVuSans-6f" x="1769.054688"/>
    <use xlink:href="#DejaVuSans-65" x="1830.236328"/>
    <use xlink:href="#DejaVuSans-66" x="1891.759766"/>
    <use xlink:href="#DejaVuSans-66" x="1926.964844"/>
    <use xlink:href="#DejaVuSans-69" x="1962.169922"/>
    <use xlink:href="#DejaVuSans-63" x="1989.953125"/>
    <use xlink:href="#DejaVuSans-69" x="2044.933594"/>
    <use xlink:href="#DejaVuSans-65" x="2072.716797"/>
    <use xlink:href="#DejaVuSans-6e" x="2134.240234"/>
    <use xlink:href="#DejaVuSans-74" x="2197.619141"/>
    <use xlink:href="#DejaVuSans-73" x="2236.828125"/>
    <use xlink:href="#DejaVuSans-20" x="2288.927734"/>
    <use xlink:href="#DejaVuSans-66" x="2320.714844"/>
    <use xlink:href="#DejaVuSans-6f" x="2355.919922"/>
    <use xlink:href="#DejaVuSans-72" x="2417.101562"/>
    <use xlink:href="#DejaVuSans-20" x="2458.214844"/>
    <use xlink:href="#DejaVuSans-67" x="2490.001953"/>
    <use xlink:href="#DejaVuSans-65" x="2553.478516"/>
    <use xlink:href="#DejaVuSans-6e" x="2615.001953"/>
    <use xlink:href="#DejaVuSans-65" x="2678.380859"/>
    <use xlink:href="#DejaVuSans-74" x="2739.904297"/>
    <use xlink:href="#DejaVuSans-69" x="2779.113281"/>
    <use xlink:href="#DejaVuSans-63" x="2806.896484"/>
    <use xlink:href="#DejaVuSans-20" x="2861.876953"/>
    <use xlink:href="#DejaVuSans-63" x="2893.664062"/>
    <use xlink:href="#DejaVuSans-6f" x="2948.644531"/>
    <use xlink:href="#DejaVuSans-64" x="3009.826172"/>
    <use xlink:href="#DejaVuSans-65" x="3073.302734"/>
    <use xlink:href="#DejaVuSans-3a" x="3134.826172"/>
    <use xlink:href="#DejaVuSans-20" x="3168.517578"/>
    <use xlink:href="#DejaVuSans-54" x="3200.304688"/>
    <use xlink:href="#DejaVuSans-72" x="3246.638672"/>
    <use xlink:href="#DejaVuSans-65" x="3285.501953"/>
    <use xlink:href="#DejaVuSans-6d" x="3347.025391"/>
    <use xlink:href="#DejaVuSans-61" x="3444.4375"/>
    <use xlink:href="#DejaVuSans-74" x="3505.716797"/>
    <use xlink:href="#DejaVuSans-6f" x="3544.925781"/>
    <use xlink:href="#DejaVuSans-64" x="3606.107422"/>
    <use xlink:href="#DejaVuSans-65" x="3669.583984"/>
    <use xlink:href="#DejaVuSans-20" x="3731.107422"/>
    <use xlink:href="#DejaVuSans-6d" x="3762.894531"/>
    <use xlink:href="#DejaVuSans-69" x="3860.306641"/>
    <use xlink:href="#DejaVuSans-74" x="3888.089844"/>
    <use xlink:href="#DejaVuSans-6f" x="3927.298828"/>
    <use xlink:href="#DejaVuSans-63" x="3988.480469"/>
    <use xlink:href="#DejaVuSans-68" x="4043.460938"/>
    <use xlink:href="#DejaVuSans-6f" x="4106.839844"/>
    <use xlink:href="#DejaVuSans-6e" x="4168.021484"/>
    <use xlink:href="#DejaVuSans-64" x="4231.400391"/>
    <use xlink:href="#DejaVuSans-72" x="4294.876953"/>
    <use xlink:href="#DejaVuSans-69" x="4335.990234"/>
    <use xlink:href="#DejaVuSans-61" x="4363.773438"/>
    <use xlink:href="#DejaVuSans-6c" x="4425.052734"/>
   </g>
  </g>
 </g>
 <defs>
  <clipPath id="pe00c6e6732">
   <rect x="43.78125" y="57.6" width="837" height="241.043478"/>
  </clipPath>
  <clipPath id="pbd1fb401ed">
   <rect x="43.78125" y="370.956522" width="837" height="241.043478"/>
  </clipPath>
 </defs>
</svg>
