<?xml version="1.0" encoding="utf-8" standalone="no"?>
<!DOCTYPE svg PUBLIC "-//W3C//DTD SVG 1.1//EN"
  "http://www.w3.org/Graphics/SVG/1.1/DTD/svg11.dtd">
<svg xmlns:xlink="http://www.w3.org/1999/xlink" width="887.98125pt" height="635.878125pt" viewBox="0 0 887.98125 635.878125" xmlns="http://www.w3.org/2000/svg" version="1.1">
 <metadata>
  <rdf:RDF xmlns:dc="http://purl.org/dc/elements/1.1/" xmlns:cc="http://creativecommons.org/ns#" xmlns:rdf="http://www.w3.org/1999/02/22-rdf-syntax-ns#">
   <cc:Work>
    <dc:type rdf:resource="http://purl.org/dc/dcmitype/StillImage"/>
    <dc:date>2024-09-24T17:10:47.379079</dc:date>
    <dc:format>image/svg+xml</dc:format>
    <dc:creator>
     <cc:Agent>
      <dc:title>Matplotlib v3.8.3, https://matplotlib.org/</dc:title>
     </cc:Agent>
    </dc:creator>
   </cc:Work>
  </rdf:RDF>
 </metadata>
 <defs>
  <style type="text/css">*{stroke-linejoin: round; stroke-linecap: butt}</style>
 </defs>
 <g id="figure_1">
  <g id="patch_1">
   <path d="M 0 635.878125 
L 887.98125 635.878125 
L 887.98125 0 
L 0 0 
z
" style="fill: #ffffff"/>
  </g>
  <g id="axes_1">
   <g id="patch_2">
    <path d="M 43.78125 298.643478 
L 880.78125 298.643478 
L 880.78125 57.6 
L 43.78125 57.6 
z
" style="fill: #ffffff"/>
   </g>
   <g id="PolyCollection_1">
    <defs>
     <path id="m95f6c210b0" d="M 96.370073 -337.249511 
L 96.370073 -337.234647 
L 100.081747 -337.234647 
L 103.793421 -337.234647 
L 107.505095 -337.234647 
L 111.216769 -337.234647 
L 114.928443 -337.234647 
L 118.640117 -337.234647 
L 122.351792 -337.234647 
L 126.063466 -337.234647 
L 129.77514 -337.234647 
L 133.486814 -337.234647 
L 137.198488 -337.234647 
L 140.910162 -337.234647 
L 144.621836 -337.234647 
L 148.333511 -337.234647 
L 152.045185 -337.234647 
L 155.756859 -337.234647 
L 159.468533 -337.234647 
L 163.180207 -337.234647 
L 166.891881 -337.234647 
L 170.603556 -337.234647 
L 174.31523 -337.234647 
L 178.026904 -337.234647 
L 181.738578 -337.234647 
L 185.450252 -337.234647 
L 189.161926 -337.234647 
L 192.8736 -337.234647 
L 196.585275 -337.234647 
L 200.296949 -337.234647 
L 204.008623 -337.234647 
L 207.720297 -337.234647 
L 211.431971 -337.234647 
L 215.143645 -337.234647 
L 218.855319 -337.234647 
L 222.566994 -337.234647 
L 226.278668 -337.234647 
L 229.990342 -337.234647 
L 233.702016 -337.234647 
L 237.41369 -337.234647 
L 241.125364 -337.234647 
L 244.837038 -337.234647 
L 248.548713 -337.234647 
L 252.260387 -337.234647 
L 255.972061 -337.234647 
L 259.683735 -337.234647 
L 263.395409 -337.234647 
L 267.107083 -337.234647 
L 270.818757 -337.234647 
L 274.530432 -337.234647 
L 278.242106 -337.234647 
L 281.95378 -337.234647 
L 285.665454 -337.234647 
L 289.377128 -337.234647 
L 293.088802 -337.234647 
L 296.800476 -337.234647 
L 300.512151 -337.234647 
L 304.223825 -337.234647 
L 307.935499 -337.234647 
L 311.647173 -337.234647 
L 315.358847 -337.234647 
L 319.070521 -337.234647 
L 322.782195 -337.234647 
L 326.49387 -337.234647 
L 330.205544 -337.234647 
L 333.917218 -337.234647 
L 337.628892 -337.234647 
L 341.340566 -337.234647 
L 345.05224 -337.234647 
L 348.763914 -337.234647 
L 352.475589 -337.234647 
L 356.187263 -337.234647 
L 359.898937 -337.234647 
L 363.610611 -337.234647 
L 367.322285 -337.234647 
L 371.033959 -337.234647 
L 374.745633 -337.234647 
L 378.457308 -337.234647 
L 382.168982 -337.234647 
L 385.880656 -337.234647 
L 389.59233 -337.234647 
L 393.304004 -337.234647 
L 397.015678 -337.234647 
L 400.727352 -337.234647 
L 404.439027 -337.234647 
L 408.150701 -337.234647 
L 411.862375 -337.234647 
L 415.574049 -337.234647 
L 419.285723 -337.234647 
L 422.997397 -337.234647 
L 426.709071 -337.234647 
L 430.420746 -337.234647 
L 434.13242 -337.234647 
L 437.844094 -337.234647 
L 441.555768 -337.234647 
L 445.267442 -337.234647 
L 448.979116 -337.234647 
L 452.69079 -337.234647 
L 456.402465 -337.234647 
L 460.114139 -337.234647 
L 463.825813 -337.234647 
L 467.537487 -337.234647 
L 471.249161 -337.234647 
L 474.960835 -337.234647 
L 478.672509 -337.234647 
L 482.384184 -337.234647 
L 486.095858 -337.234647 
L 489.807532 -337.234647 
L 493.519206 -337.234647 
L 497.23088 -337.234647 
L 500.942554 -337.234647 
L 504.654228 -337.234647 
L 508.365903 -337.234647 
L 512.077577 -337.234647 
L 515.789251 -337.234647 
L 519.500925 -337.234647 
L 523.212599 -337.234647 
L 526.924273 -337.234647 
L 530.635947 -337.234647 
L 534.347622 -337.234647 
L 538.059296 -337.234647 
L 541.77097 -337.234647 
L 545.482644 -337.234647 
L 549.194318 -337.234647 
L 552.905992 -337.234647 
L 556.617666 -337.234647 
L 560.329341 -337.234647 
L 564.041015 -337.234647 
L 567.752689 -337.234647 
L 571.464363 -337.234647 
L 575.176037 -337.234647 
L 578.887711 -337.234647 
L 582.599385 -337.234647 
L 586.31106 -337.234647 
L 590.022734 -337.234647 
L 593.734408 -337.234647 
L 597.446082 -337.234647 
L 601.157756 -337.234647 
L 604.86943 -337.234647 
L 608.581104 -337.234647 
L 612.292779 -337.234647 
L 616.004453 -337.234647 
L 619.716127 -337.234647 
L 623.427801 -337.234647 
L 627.139475 -337.234647 
L 630.851149 -337.234647 
L 634.562823 -337.234647 
L 638.274498 -337.234647 
L 641.986172 -337.234647 
L 645.697846 -337.234647 
L 649.40952 -337.234647 
L 653.121194 -337.234647 
L 656.832868 -337.234647 
L 660.544542 -337.234647 
L 664.256217 -337.234647 
L 667.967891 -337.234647 
L 671.679565 -337.234647 
L 675.391239 -337.234647 
L 679.102913 -337.234647 
L 682.814587 -337.234647 
L 686.526261 -337.234647 
L 690.237936 -337.234647 
L 693.94961 -337.234647 
L 697.661284 -337.234647 
L 701.372958 -337.234647 
L 705.084632 -337.234647 
L 708.796306 -337.234647 
L 712.50798 -337.234647 
L 716.219655 -337.234647 
L 719.931329 -337.234647 
L 723.643003 -337.234647 
L 727.354677 -337.234647 
L 731.066351 -337.234647 
L 734.778025 -337.234647 
L 738.489699 -337.234647 
L 742.201374 -337.234647 
L 745.913048 -337.234647 
L 749.624722 -337.234647 
L 753.336396 -337.234647 
L 757.04807 -337.234647 
L 760.759744 -337.234647 
L 764.471418 -337.234647 
L 768.183093 -337.234647 
L 771.894767 -337.234647 
L 775.606441 -337.234647 
L 779.318115 -337.234647 
L 783.029789 -337.234647 
L 786.741463 -337.234647 
L 790.453137 -337.234647 
L 794.164812 -337.234647 
L 797.876486 -337.234647 
L 801.58816 -337.234647 
L 805.299834 -337.234647 
L 809.011508 -337.234647 
L 812.723182 -337.234647 
L 816.434856 -337.234647 
L 820.146531 -337.234647 
L 823.858205 -337.234647 
L 827.569879 -337.234647 
L 831.281553 -337.234647 
L 834.993227 -337.234647 
L 834.993227 -337.249528 
L 834.993227 -337.249528 
L 831.281553 -337.257903 
L 827.569879 -337.270159 
L 823.858205 -337.287636 
L 820.146531 -337.311915 
L 816.434856 -337.344763 
L 812.723182 -337.388033 
L 809.011508 -337.443517 
L 805.299834 -337.51276 
L 801.58816 -337.596848 
L 797.876486 -337.69622 
L 794.164812 -337.810537 
L 790.453137 -337.938659 
L 786.741463 -338.078789 
L 783.029789 -338.228809 
L 779.318115 -338.386828 
L 775.606441 -338.551922 
L 771.894767 -338.725017 
L 768.183093 -338.909839 
L 764.471418 -339.113843 
L 760.759744 -339.349046 
L 757.04807 -339.632685 
L 753.336396 -339.987701 
L 749.624722 -340.443056 
L 745.913048 -341.033965 
L 742.201374 -341.802112 
L 738.489699 -342.795933 
L 734.778025 -344.070991 
L 731.066351 -345.690386 
L 727.354677 -347.725063 
L 723.643003 -350.253743 
L 719.931329 -353.362187 
L 716.219655 -357.141428 
L 712.50798 -361.684676 
L 708.796306 -367.08274 
L 705.084632 -373.417963 
L 701.372958 -380.75693 
L 697.661284 -389.142433 
L 693.94961 -398.585389 
L 690.237936 -409.057564 
L 686.526261 -420.485958 
L 682.814587 -432.749709 
L 679.102913 -445.680148 
L 675.391239 -459.064405 
L 671.679565 -472.65268 
L 667.967891 -486.168886 
L 664.256217 -499.324098 
L 660.544542 -511.831878 
L 656.832868 -523.424313 
L 653.121194 -533.867476 
L 649.40952 -542.974935 
L 645.697846 -550.618095 
L 641.986172 -556.732386 
L 638.274498 -561.318722 
L 634.562823 -564.440102 
L 630.851149 -566.213787 
L 627.139475 -566.799864 
L 623.427801 -566.387411 
L 619.716127 -565.179594 
L 616.004453 -563.379021 
L 612.292779 -561.174519 
L 608.581104 -558.730188 
L 604.86943 -556.177306 
L 601.157756 -553.609345 
L 597.446082 -551.080133 
L 593.734408 -548.605015 
L 590.022734 -546.164771 
L 586.31106 -543.711868 
L 582.599385 -541.178584 
L 578.887711 -538.486289 
L 575.176037 -535.555122 
L 571.464363 -532.313118 
L 567.752689 -528.70389 
L 564.041015 -524.692077 
L 560.329341 -520.266034 
L 556.617666 -515.437623 
L 552.905992 -510.239397 
L 549.194318 -504.719826 
L 545.482644 -498.937517 
L 541.77097 -492.955445 
L 538.059296 -486.836126 
L 534.347622 -480.638369 
L 530.635947 -474.415871 
L 526.924273 -468.217501 
L 523.212599 -462.088762 
L 519.500925 -456.073696 
L 515.789251 -450.216484 
L 512.077577 -444.562066 
L 508.365903 -439.155458 
L 504.654228 -434.039703 
L 500.942554 -429.252821 
L 497.23088 -424.824301 
L 493.519206 -420.771849 
L 489.807532 -417.099058 
L 486.095858 -413.794445 
L 482.384184 -410.83208 
L 478.672509 -408.173677 
L 474.960835 -405.771796 
L 471.249161 -403.573634 
L 467.537487 -401.524855 
L 463.825813 -399.573026 
L 460.114139 -397.670367 
L 456.402465 -395.775751 
L 452.69079 -393.856043 
L 448.979116 -391.88697 
L 445.267442 -389.853695 
L 441.555768 -387.751216 
L 437.844094 -385.58455 
L 434.13242 -383.368569 
L 430.420746 -381.127262 
L 426.709071 -378.892221 
L 422.997397 -376.700233 
L 419.285723 -374.590033 
L 415.574049 -372.598483 
L 411.862375 -370.756586 
L 408.150701 -369.085872 
L 404.439027 -367.595705 
L 400.727352 -366.281924 
L 397.015678 -365.127086 
L 393.304004 -364.102304 
L 389.59233 -363.17044 
L 385.880656 -362.290232 
L 382.168982 -361.42079 
L 378.457308 -360.525887 
L 374.745633 -359.577538 
L 371.033959 -358.558495 
L 367.322285 -357.463437 
L 363.610611 -356.298848 
L 359.898937 -355.081698 
L 356.187263 -353.837179 
L 352.475589 -352.595799 
L 348.763914 -351.390198 
L 345.05224 -350.252008 
L 341.340566 -349.209052 
L 337.628892 -348.283125 
L 333.917218 -347.488496 
L 330.205544 -346.831211 
L 326.49387 -346.309158 
L 322.782195 -345.912808 
L 319.070521 -345.626465 
L 315.358847 -345.42984 
L 311.647173 -345.299767 
L 307.935499 -345.211904 
L 304.223825 -345.142305 
L 300.512151 -345.068796 
L 296.800476 -344.972127 
L 293.088802 -344.836894 
L 289.377128 -344.65221 
L 285.665454 -344.412126 
L 281.95378 -344.115751 
L 278.242106 -343.767052 
L 274.530432 -343.374296 
L 270.818757 -342.949162 
L 267.107083 -342.505558 
L 263.395409 -342.058251 
L 259.683735 -341.621459 
L 255.972061 -341.207556 
L 252.260387 -340.826055 
L 248.548713 -340.482988 
L 244.837038 -340.180757 
L 241.125364 -339.918455 
L 237.41369 -339.69258 
L 233.702016 -339.498019 
L 229.990342 -339.329131 
L 226.278668 -339.180759 
L 222.566994 -339.049007 
L 218.855319 -338.931676 
L 215.143645 -338.828317 
L 211.431971 -338.739908 
L 207.720297 -338.668252 
L 204.008623 -338.615204 
L 200.296949 -338.581887 
L 196.585275 -338.568043 
L 192.8736 -338.571621 
L 189.161926 -338.588683 
L 185.450252 -338.613647 
L 181.738578 -338.639813 
L 178.026904 -338.660095 
L 174.31523 -338.667835 
L 170.603556 -338.657575 
L 166.891881 -338.625669 
L 163.180207 -338.57064 
L 159.468533 -338.493258 
L 155.756859 -338.396331 
L 152.045185 -338.284263 
L 148.333511 -338.162464 
L 144.621836 -338.0367 
L 140.910162 -337.912484 
L 137.198488 -337.794586 
L 133.486814 -337.686698 
L 129.77514 -337.591281 
L 126.063466 -337.509574 
L 122.351792 -337.441733 
L 118.640117 -337.387055 
L 114.928443 -337.344238 
L 111.216769 -337.31164 
L 107.505095 -337.287495 
L 103.793421 -337.270088 
L 100.081747 -337.257868 
L 96.370073 -337.249511 
z
" style="stroke: #ff7f0e; stroke-width: 2.5"/>
    </defs>
    <g clip-path="url(#p3fab18216b)">
     <use xlink:href="#m95f6c210b0" x="0" y="635.878125" style="fill: #ff7f0e; fill-opacity: 0.5; stroke: #ff7f0e; stroke-width: 2.5"/>
    </g>
   </g>
   <g id="PolyCollection_2">
    <defs>
     <path id="m110d6556d1" d="M 81.458011 -337.260422 
L 81.458011 -337.234647 
L 85.114982 -337.234647 
L 88.771953 -337.234647 
L 92.428924 -337.234647 
L 96.085896 -337.234647 
L 99.742867 -337.234647 
L 103.399838 -337.234647 
L 107.056809 -337.234647 
L 110.713781 -337.234647 
L 114.370752 -337.234647 
L 118.027723 -337.234647 
L 121.684694 -337.234647 
L 125.341665 -337.234647 
L 128.998637 -337.234647 
L 132.655608 -337.234647 
L 136.312579 -337.234647 
L 139.96955 -337.234647 
L 143.626522 -337.234647 
L 147.283493 -337.234647 
L 150.940464 -337.234647 
L 154.597435 -337.234647 
L 158.254406 -337.234647 
L 161.911378 -337.234647 
L 165.568349 -337.234647 
L 169.22532 -337.234647 
L 172.882291 -337.234647 
L 176.539263 -337.234647 
L 180.196234 -337.234647 
L 183.853205 -337.234647 
L 187.510176 -337.234647 
L 191.167147 -337.234647 
L 194.824119 -337.234647 
L 198.48109 -337.234647 
L 202.138061 -337.234647 
L 205.795032 -337.234647 
L 209.452003 -337.234647 
L 213.108975 -337.234647 
L 216.765946 -337.234647 
L 220.422917 -337.234647 
L 224.079888 -337.234647 
L 227.73686 -337.234647 
L 231.393831 -337.234647 
L 235.050802 -337.234647 
L 238.707773 -337.234647 
L 242.364744 -337.234647 
L 246.021716 -337.234647 
L 249.678687 -337.234647 
L 253.335658 -337.234647 
L 256.992629 -337.234647 
L 260.649601 -337.234647 
L 264.306572 -337.234647 
L 267.963543 -337.234647 
L 271.620514 -337.234647 
L 275.277485 -337.234647 
L 278.934457 -337.234647 
L 282.591428 -337.234647 
L 286.248399 -337.234647 
L 289.90537 -337.234647 
L 293.562342 -337.234647 
L 297.219313 -337.234647 
L 300.876284 -337.234647 
L 304.533255 -337.234647 
L 308.190226 -337.234647 
L 311.847198 -337.234647 
L 315.504169 -337.234647 
L 319.16114 -337.234647 
L 322.818111 -337.234647 
L 326.475082 -337.234647 
L 330.132054 -337.234647 
L 333.789025 -337.234647 
L 337.445996 -337.234647 
L 341.102967 -337.234647 
L 344.759939 -337.234647 
L 348.41691 -337.234647 
L 352.073881 -337.234647 
L 355.730852 -337.234647 
L 359.387823 -337.234647 
L 363.044795 -337.234647 
L 366.701766 -337.234647 
L 370.358737 -337.234647 
L 374.015708 -337.234647 
L 377.67268 -337.234647 
L 381.329651 -337.234647 
L 384.986622 -337.234647 
L 388.643593 -337.234647 
L 392.300564 -337.234647 
L 395.957536 -337.234647 
L 399.614507 -337.234647 
L 403.271478 -337.234647 
L 406.928449 -337.234647 
L 410.585421 -337.234647 
L 414.242392 -337.234647 
L 417.899363 -337.234647 
L 421.556334 -337.234647 
L 425.213305 -337.234647 
L 428.870277 -337.234647 
L 432.527248 -337.234647 
L 436.184219 -337.234647 
L 439.84119 -337.234647 
L 443.498161 -337.234647 
L 447.155133 -337.234647 
L 450.812104 -337.234647 
L 454.469075 -337.234647 
L 458.126046 -337.234647 
L 461.783018 -337.234647 
L 465.439989 -337.234647 
L 469.09696 -337.234647 
L 472.753931 -337.234647 
L 476.410902 -337.234647 
L 480.067874 -337.234647 
L 483.724845 -337.234647 
L 487.381816 -337.234647 
L 491.038787 -337.234647 
L 494.695759 -337.234647 
L 498.35273 -337.234647 
L 502.009701 -337.234647 
L 505.666672 -337.234647 
L 509.323643 -337.234647 
L 512.980615 -337.234647 
L 516.637586 -337.234647 
L 520.294557 -337.234647 
L 523.951528 -337.234647 
L 527.6085 -337.234647 
L 531.265471 -337.234647 
L 534.922442 -337.234647 
L 538.579413 -337.234647 
L 542.236384 -337.234647 
L 545.893356 -337.234647 
L 549.550327 -337.234647 
L 553.207298 -337.234647 
L 556.864269 -337.234647 
L 560.52124 -337.234647 
L 564.178212 -337.234647 
L 567.835183 -337.234647 
L 571.492154 -337.234647 
L 575.149125 -337.234647 
L 578.806097 -337.234647 
L 582.463068 -337.234647 
L 586.120039 -337.234647 
L 589.77701 -337.234647 
L 593.433981 -337.234647 
L 597.090953 -337.234647 
L 600.747924 -337.234647 
L 604.404895 -337.234647 
L 608.061866 -337.234647 
L 611.718838 -337.234647 
L 615.375809 -337.234647 
L 619.03278 -337.234647 
L 622.689751 -337.234647 
L 626.346722 -337.234647 
L 630.003694 -337.234647 
L 633.660665 -337.234647 
L 637.317636 -337.234647 
L 640.974607 -337.234647 
L 644.631579 -337.234647 
L 648.28855 -337.234647 
L 651.945521 -337.234647 
L 655.602492 -337.234647 
L 659.259463 -337.234647 
L 662.916435 -337.234647 
L 666.573406 -337.234647 
L 670.230377 -337.234647 
L 673.887348 -337.234647 
L 677.544319 -337.234647 
L 681.201291 -337.234647 
L 684.858262 -337.234647 
L 688.515233 -337.234647 
L 692.172204 -337.234647 
L 695.829176 -337.234647 
L 699.486147 -337.234647 
L 703.143118 -337.234647 
L 706.800089 -337.234647 
L 710.45706 -337.234647 
L 714.114032 -337.234647 
L 717.771003 -337.234647 
L 721.427974 -337.234647 
L 725.084945 -337.234647 
L 728.741917 -337.234647 
L 732.398888 -337.234647 
L 736.055859 -337.234647 
L 739.71283 -337.234647 
L 743.369801 -337.234647 
L 747.026773 -337.234647 
L 750.683744 -337.234647 
L 754.340715 -337.234647 
L 757.997686 -337.234647 
L 761.654658 -337.234647 
L 765.311629 -337.234647 
L 768.9686 -337.234647 
L 772.625571 -337.234647 
L 776.282542 -337.234647 
L 779.939514 -337.234647 
L 783.596485 -337.234647 
L 787.253456 -337.234647 
L 790.910427 -337.234647 
L 794.567398 -337.234647 
L 798.22437 -337.234647 
L 801.881341 -337.234647 
L 805.538312 -337.234647 
L 809.195283 -337.234647 
L 809.195283 -337.275754 
L 809.195283 -337.275754 
L 805.538312 -337.295215 
L 801.881341 -337.322752 
L 798.22437 -337.361203 
L 794.567398 -337.414194 
L 790.910427 -337.486297 
L 787.253456 -337.58319 
L 783.596485 -337.711831 
L 779.939514 -337.880635 
L 776.282542 -338.099666 
L 772.625571 -338.380822 
L 768.9686 -338.738044 
L 765.311629 -339.187525 
L 761.654658 -339.747936 
L 757.997686 -340.440661 
L 754.340715 -341.290045 
L 750.683744 -342.323628 
L 747.026773 -343.57234 
L 743.369801 -345.070635 
L 739.71283 -346.856476 
L 736.055859 -348.971132 
L 732.398888 -351.458687 
L 728.741917 -354.365191 
L 725.084945 -357.737376 
L 721.427974 -361.6209 
L 717.771003 -366.058089 
L 714.114032 -371.085244 
L 710.45706 -376.729601 
L 706.800089 -383.006103 
L 703.143118 -389.914232 
L 699.486147 -397.43516 
L 695.829176 -405.529506 
L 692.172204 -414.136023 
L 688.515233 -423.171427 
L 684.858262 -432.531574 
L 681.201291 -442.094057 
L 677.544319 -451.722156 
L 673.887348 -461.269983 
L 670.230377 -470.588496 
L 666.573406 -479.531986 
L 662.916435 -487.964548 
L 659.259463 -495.766046 
L 655.602492 -502.837107 
L 651.945521 -509.102752 
L 648.28855 -514.514405 
L 644.631579 -519.050177 
L 640.974607 -522.713455 
L 637.317636 -525.530039 
L 633.660665 -527.544135 
L 630.003694 -528.813657 
L 626.346722 -529.405299 
L 622.689751 -529.38984 
L 619.03278 -528.838072 
L 615.375809 -527.81765 
L 611.718838 -526.391011 
L 608.061866 -524.614393 
L 604.404895 -522.537836 
L 600.747924 -520.205945 
L 597.090953 -517.659131 
L 593.433981 -514.935007 
L 589.77701 -512.069634 
L 586.120039 -509.098365 
L 582.463068 -506.056131 
L 578.806097 -502.977078 
L 575.149125 -499.893607 
L 571.492154 -496.834938 
L 567.835183 -493.825389 
L 564.178212 -490.88263 
L 560.52124 -488.016159 
L 556.864269 -485.22623 
L 553.207298 -482.503448 
L 549.550327 -479.829121 
L 545.893356 -477.176433 
L 542.236384 -474.512362 
L 538.579413 -471.800241 
L 534.922442 -469.002745 
L 531.265471 -466.085061 
L 527.6085 -463.017992 
L 523.951528 -459.780714 
L 520.294557 -456.362978 
L 516.637586 -452.766553 
L 512.980615 -449.005819 
L 509.323643 -445.107458 
L 505.666672 -441.109273 
L 502.009701 -437.058252 
L 498.35273 -433.008024 
L 494.695759 -429.015907 
L 491.038787 -425.139763 
L 487.381816 -421.434882 
L 483.724845 -417.951087 
L 480.067874 -414.730229 
L 476.410902 -411.804213 
L 472.753931 -409.193617 
L 469.09696 -406.906965 
L 465.439989 -404.94065 
L 461.783018 -403.27946 
L 458.126046 -401.897674 
L 454.469075 -400.760627 
L 450.812104 -399.826664 
L 447.155133 -399.049367 
L 443.498161 -398.379961 
L 439.84119 -397.76976 
L 436.184219 -397.17254 
L 432.527248 -396.546718 
L 428.870277 -395.857212 
L 425.213305 -395.076887 
L 421.556334 -394.187494 
L 417.899363 -393.180056 
L 414.242392 -392.054677 
L 410.585421 -390.81981 
L 406.928449 -389.491026 
L 403.271478 -388.089403 
L 399.614507 -386.639655 
L 395.957536 -385.168138 
L 392.300564 -383.70089 
L 388.643593 -382.26184 
L 384.986622 -380.871289 
L 381.329651 -379.54477 
L 377.67268 -378.292328 
L 374.015708 -377.118229 
L 370.358737 -376.021104 
L 366.701766 -374.994453 
L 363.044795 -374.027481 
L 359.387823 -373.106142 
L 355.730852 -372.214349 
L 352.073881 -371.335224 
L 348.41691 -370.452324 
L 344.759939 -369.55076 
L 341.102967 -368.618141 
L 337.445996 -367.645292 
L 333.789025 -366.626716 
L 330.132054 -365.560771 
L 326.475082 -364.449575 
L 322.818111 -363.298658 
L 319.16114 -362.116405 
L 315.504169 -360.913336 
L 311.847198 -359.701307 
L 308.190226 -358.492688 
L 304.533255 -357.299597 
L 300.876284 -356.133244 
L 297.219313 -355.003422 
L 293.562342 -353.918188 
L 289.90537 -352.88371 
L 286.248399 -351.904283 
L 282.591428 -350.982482 
L 278.934457 -350.119391 
L 275.277485 -349.314897 
L 271.620514 -348.567971 
L 267.963543 -347.876939 
L 264.306572 -347.239698 
L 260.649601 -346.653876 
L 256.992629 -346.116953 
L 253.335658 -345.626323 
L 249.678687 -345.179347 
L 246.021716 -344.773388 
L 242.364744 -344.405835 
L 238.707773 -344.074145 
L 235.050802 -343.775868 
L 231.393831 -343.508671 
L 227.73686 -343.270336 
L 224.079888 -343.058729 
L 220.422917 -342.871735 
L 216.765946 -342.707154 
L 213.108975 -342.562576 
L 209.452003 -342.435251 
L 205.795032 -342.321977 
L 202.138061 -342.219031 
L 198.48109 -342.122168 
L 194.824119 -342.026704 
L 191.167147 -341.927686 
L 187.510176 -341.82014 
L 183.853205 -341.69938 
L 180.196234 -341.561344 
L 176.539263 -341.402914 
L 172.882291 -341.22219 
L 169.22532 -341.018675 
L 165.568349 -340.79336 
L 161.911378 -340.548668 
L 158.254406 -340.2883 
L 154.597435 -340.016966 
L 150.940464 -339.740042 
L 147.283493 -339.463197 
L 143.626522 -339.19201 
L 139.96955 -338.931626 
L 136.312579 -338.686473 
L 132.655608 -338.460058 
L 128.998637 -338.254865 
L 125.341665 -338.072323 
L 121.684694 -337.912867 
L 118.027723 -337.77606 
L 114.370752 -337.660743 
L 110.713781 -337.565225 
L 107.056809 -337.48746 
L 103.399838 -337.42522 
L 99.742867 -337.376239 
L 96.085896 -337.338332 
L 92.428924 -337.309478 
L 88.771953 -337.287873 
L 85.114982 -337.271957 
L 81.458011 -337.260422 
z
" style="stroke: #1f77b4; stroke-width: 2.5"/>
    </defs>
    <g clip-path="url(#p3fab18216b)">
     <use xlink:href="#m110d6556d1" x="0" y="635.878125" style="fill: #1f77b4; fill-opacity: 0.5; stroke: #1f77b4; stroke-width: 2.5"/>
    </g>
   </g>
   <g id="matplotlib.axis_1">
    <g id="xtick_1">
     <g id="line2d_1">
      <defs>
       <path id="m37bfe0fa84" d="M 0 0 
L 0 3.5 
" style="stroke: #000000; stroke-width: 0.8"/>
      </defs>
      <g>
       <use xlink:href="#m37bfe0fa84" x="120.84922" y="298.643478" style="stroke: #000000; stroke-width: 0.8"/>
      </g>
     </g>
     <g id="text_1">
      <!-- 0.0 -->
      <g transform="translate(112.897658 313.241916) scale(0.1 -0.1)">
       <defs>
        <path id="DejaVuSans-30" d="M 2034 4250 
Q 1547 4250 1301 3770 
Q 1056 3291 1056 2328 
Q 1056 1369 1301 889 
Q 1547 409 2034 409 
Q 2525 409 2770 889 
Q 3016 1369 3016 2328 
Q 3016 3291 2770 3770 
Q 2525 4250 2034 4250 
z
M 2034 4750 
Q 2819 4750 3233 4129 
Q 3647 3509 3647 2328 
Q 3647 1150 3233 529 
Q 2819 -91 2034 -91 
Q 1250 -91 836 529 
Q 422 1150 422 2328 
Q 422 3509 836 4129 
Q 1250 4750 2034 4750 
z
" transform="scale(0.015625)"/>
        <path id="DejaVuSans-2e" d="M 684 794 
L 1344 794 
L 1344 0 
L 684 0 
L 684 794 
z
" transform="scale(0.015625)"/>
       </defs>
       <use xlink:href="#DejaVuSans-30"/>
       <use xlink:href="#DejaVuSans-2e" x="63.623047"/>
       <use xlink:href="#DejaVuSans-30" x="95.410156"/>
      </g>
     </g>
    </g>
    <g id="xtick_2">
     <g id="line2d_2">
      <g>
       <use xlink:href="#m37bfe0fa84" x="262.186397" y="298.643478" style="stroke: #000000; stroke-width: 0.8"/>
      </g>
     </g>
     <g id="text_2">
      <!-- 0.2 -->
      <g transform="translate(254.234834 313.241916) scale(0.1 -0.1)">
       <defs>
        <path id="DejaVuSans-32" d="M 1228 531 
L 3431 531 
L 3431 0 
L 469 0 
L 469 531 
Q 828 903 1448 1529 
Q 2069 2156 2228 2338 
Q 2531 2678 2651 2914 
Q 2772 3150 2772 3378 
Q 2772 3750 2511 3984 
Q 2250 4219 1831 4219 
Q 1534 4219 1204 4116 
Q 875 4013 500 3803 
L 500 4441 
Q 881 4594 1212 4672 
Q 1544 4750 1819 4750 
Q 2544 4750 2975 4387 
Q 3406 4025 3406 3419 
Q 3406 3131 3298 2873 
Q 3191 2616 2906 2266 
Q 2828 2175 2409 1742 
Q 1991 1309 1228 531 
z
" transform="scale(0.015625)"/>
       </defs>
       <use xlink:href="#DejaVuSans-30"/>
       <use xlink:href="#DejaVuSans-2e" x="63.623047"/>
       <use xlink:href="#DejaVuSans-32" x="95.410156"/>
      </g>
     </g>
    </g>
    <g id="xtick_3">
     <g id="line2d_3">
      <g>
       <use xlink:href="#m37bfe0fa84" x="403.523573" y="298.643478" style="stroke: #000000; stroke-width: 0.8"/>
      </g>
     </g>
     <g id="text_3">
      <!-- 0.4 -->
      <g transform="translate(395.572011 313.241916) scale(0.1 -0.1)">
       <defs>
        <path id="DejaVuSans-34" d="M 2419 4116 
L 825 1625 
L 2419 1625 
L 2419 4116 
z
M 2253 4666 
L 3047 4666 
L 3047 1625 
L 3713 1625 
L 3713 1100 
L 3047 1100 
L 3047 0 
L 2419 0 
L 2419 1100 
L 313 1100 
L 313 1709 
L 2253 4666 
z
" transform="scale(0.015625)"/>
       </defs>
       <use xlink:href="#DejaVuSans-30"/>
       <use xlink:href="#DejaVuSans-2e" x="63.623047"/>
       <use xlink:href="#DejaVuSans-34" x="95.410156"/>
      </g>
     </g>
    </g>
    <g id="xtick_4">
     <g id="line2d_4">
      <g>
       <use xlink:href="#m37bfe0fa84" x="544.86075" y="298.643478" style="stroke: #000000; stroke-width: 0.8"/>
      </g>
     </g>
     <g id="text_4">
      <!-- 0.6 -->
      <g transform="translate(536.909188 313.241916) scale(0.1 -0.1)">
       <defs>
        <path id="DejaVuSans-36" d="M 2113 2584 
Q 1688 2584 1439 2293 
Q 1191 2003 1191 1497 
Q 1191 994 1439 701 
Q 1688 409 2113 409 
Q 2538 409 2786 701 
Q 3034 994 3034 1497 
Q 3034 2003 2786 2293 
Q 2538 2584 2113 2584 
z
M 3366 4563 
L 3366 3988 
Q 3128 4100 2886 4159 
Q 2644 4219 2406 4219 
Q 1781 4219 1451 3797 
Q 1122 3375 1075 2522 
Q 1259 2794 1537 2939 
Q 1816 3084 2150 3084 
Q 2853 3084 3261 2657 
Q 3669 2231 3669 1497 
Q 3669 778 3244 343 
Q 2819 -91 2113 -91 
Q 1303 -91 875 529 
Q 447 1150 447 2328 
Q 447 3434 972 4092 
Q 1497 4750 2381 4750 
Q 2619 4750 2861 4703 
Q 3103 4656 3366 4563 
z
" transform="scale(0.015625)"/>
       </defs>
       <use xlink:href="#DejaVuSans-30"/>
       <use xlink:href="#DejaVuSans-2e" x="63.623047"/>
       <use xlink:href="#DejaVuSans-36" x="95.410156"/>
      </g>
     </g>
    </g>
    <g id="xtick_5">
     <g id="line2d_5">
      <g>
       <use xlink:href="#m37bfe0fa84" x="686.197927" y="298.643478" style="stroke: #000000; stroke-width: 0.8"/>
      </g>
     </g>
     <g id="text_5">
      <!-- 0.8 -->
      <g transform="translate(678.246364 313.241916) scale(0.1 -0.1)">
       <defs>
        <path id="DejaVuSans-38" d="M 2034 2216 
Q 1584 2216 1326 1975 
Q 1069 1734 1069 1313 
Q 1069 891 1326 650 
Q 1584 409 2034 409 
Q 2484 409 2743 651 
Q 3003 894 3003 1313 
Q 3003 1734 2745 1975 
Q 2488 2216 2034 2216 
z
M 1403 2484 
Q 997 2584 770 2862 
Q 544 3141 544 3541 
Q 544 4100 942 4425 
Q 1341 4750 2034 4750 
Q 2731 4750 3128 4425 
Q 3525 4100 3525 3541 
Q 3525 3141 3298 2862 
Q 3072 2584 2669 2484 
Q 3125 2378 3379 2068 
Q 3634 1759 3634 1313 
Q 3634 634 3220 271 
Q 2806 -91 2034 -91 
Q 1263 -91 848 271 
Q 434 634 434 1313 
Q 434 1759 690 2068 
Q 947 2378 1403 2484 
z
M 1172 3481 
Q 1172 3119 1398 2916 
Q 1625 2713 2034 2713 
Q 2441 2713 2670 2916 
Q 2900 3119 2900 3481 
Q 2900 3844 2670 4047 
Q 2441 4250 2034 4250 
Q 1625 4250 1398 4047 
Q 1172 3844 1172 3481 
z
" transform="scale(0.015625)"/>
       </defs>
       <use xlink:href="#DejaVuSans-30"/>
       <use xlink:href="#DejaVuSans-2e" x="63.623047"/>
       <use xlink:href="#DejaVuSans-38" x="95.410156"/>
      </g>
     </g>
    </g>
    <g id="xtick_6">
     <g id="line2d_6">
      <g>
       <use xlink:href="#m37bfe0fa84" x="827.535104" y="298.643478" style="stroke: #000000; stroke-width: 0.8"/>
      </g>
     </g>
     <g id="text_6">
      <!-- 1.0 -->
      <g transform="translate(819.583541 313.241916) scale(0.1 -0.1)">
       <defs>
        <path id="DejaVuSans-31" d="M 794 531 
L 1825 531 
L 1825 4091 
L 703 3866 
L 703 4441 
L 1819 4666 
L 2450 4666 
L 2450 531 
L 3481 531 
L 3481 0 
L 794 0 
L 794 531 
z
" transform="scale(0.015625)"/>
       </defs>
       <use xlink:href="#DejaVuSans-31"/>
       <use xlink:href="#DejaVuSans-2e" x="63.623047"/>
       <use xlink:href="#DejaVuSans-30" x="95.410156"/>
      </g>
     </g>
    </g>
   </g>
   <g id="matplotlib.axis_2">
    <g id="ytick_1">
     <g id="line2d_7">
      <defs>
       <path id="m2b96294b0c" d="M 0 0 
L -3.5 0 
" style="stroke: #000000; stroke-width: 0.8"/>
      </defs>
      <g>
       <use xlink:href="#m2b96294b0c" x="43.78125" y="298.643478" style="stroke: #000000; stroke-width: 0.8"/>
      </g>
     </g>
     <g id="text_7">
      <!-- 0.0 -->
      <g transform="translate(20.878125 302.442697) scale(0.1 -0.1)">
       <use xlink:href="#DejaVuSans-30"/>
       <use xlink:href="#DejaVuSans-2e" x="63.623047"/>
       <use xlink:href="#DejaVuSans-30" x="95.410156"/>
      </g>
     </g>
    </g>
    <g id="ytick_2">
     <g id="line2d_8">
      <g>
       <use xlink:href="#m2b96294b0c" x="43.78125" y="268.855058" style="stroke: #000000; stroke-width: 0.8"/>
      </g>
     </g>
     <g id="text_8">
      <!-- 0.5 -->
      <g transform="translate(20.878125 272.654277) scale(0.1 -0.1)">
       <defs>
        <path id="DejaVuSans-35" d="M 691 4666 
L 3169 4666 
L 3169 4134 
L 1269 4134 
L 1269 2991 
Q 1406 3038 1543 3061 
Q 1681 3084 1819 3084 
Q 2600 3084 3056 2656 
Q 3513 2228 3513 1497 
Q 3513 744 3044 326 
Q 2575 -91 1722 -91 
Q 1428 -91 1123 -41 
Q 819 9 494 109 
L 494 744 
Q 775 591 1075 516 
Q 1375 441 1709 441 
Q 2250 441 2565 725 
Q 2881 1009 2881 1497 
Q 2881 1984 2565 2268 
Q 2250 2553 1709 2553 
Q 1456 2553 1204 2497 
Q 953 2441 691 2322 
L 691 4666 
z
" transform="scale(0.015625)"/>
       </defs>
       <use xlink:href="#DejaVuSans-30"/>
       <use xlink:href="#DejaVuSans-2e" x="63.623047"/>
       <use xlink:href="#DejaVuSans-35" x="95.410156"/>
      </g>
     </g>
    </g>
    <g id="ytick_3">
     <g id="line2d_9">
      <g>
       <use xlink:href="#m2b96294b0c" x="43.78125" y="239.066638" style="stroke: #000000; stroke-width: 0.8"/>
      </g>
     </g>
     <g id="text_9">
      <!-- 1.0 -->
      <g transform="translate(20.878125 242.865857) scale(0.1 -0.1)">
       <use xlink:href="#DejaVuSans-31"/>
       <use xlink:href="#DejaVuSans-2e" x="63.623047"/>
       <use xlink:href="#DejaVuSans-30" x="95.410156"/>
      </g>
     </g>
    </g>
    <g id="ytick_4">
     <g id="line2d_10">
      <g>
       <use xlink:href="#m2b96294b0c" x="43.78125" y="209.278218" style="stroke: #000000; stroke-width: 0.8"/>
      </g>
     </g>
     <g id="text_10">
      <!-- 1.5 -->
      <g transform="translate(20.878125 213.077436) scale(0.1 -0.1)">
       <use xlink:href="#DejaVuSans-31"/>
       <use xlink:href="#DejaVuSans-2e" x="63.623047"/>
       <use xlink:href="#DejaVuSans-35" x="95.410156"/>
      </g>
     </g>
    </g>
    <g id="ytick_5">
     <g id="line2d_11">
      <g>
       <use xlink:href="#m2b96294b0c" x="43.78125" y="179.489797" style="stroke: #000000; stroke-width: 0.8"/>
      </g>
     </g>
     <g id="text_11">
      <!-- 2.0 -->
      <g transform="translate(20.878125 183.289016) scale(0.1 -0.1)">
       <use xlink:href="#DejaVuSans-32"/>
       <use xlink:href="#DejaVuSans-2e" x="63.623047"/>
       <use xlink:href="#DejaVuSans-30" x="95.410156"/>
      </g>
     </g>
    </g>
    <g id="ytick_6">
     <g id="line2d_12">
      <g>
       <use xlink:href="#m2b96294b0c" x="43.78125" y="149.701377" style="stroke: #000000; stroke-width: 0.8"/>
      </g>
     </g>
     <g id="text_12">
      <!-- 2.5 -->
      <g transform="translate(20.878125 153.500596) scale(0.1 -0.1)">
       <use xlink:href="#DejaVuSans-32"/>
       <use xlink:href="#DejaVuSans-2e" x="63.623047"/>
       <use xlink:href="#DejaVuSans-35" x="95.410156"/>
      </g>
     </g>
    </g>
    <g id="ytick_7">
     <g id="line2d_13">
      <g>
       <use xlink:href="#m2b96294b0c" x="43.78125" y="119.912957" style="stroke: #000000; stroke-width: 0.8"/>
      </g>
     </g>
     <g id="text_13">
      <!-- 3.0 -->
      <g transform="translate(20.878125 123.712176) scale(0.1 -0.1)">
       <defs>
        <path id="DejaVuSans-33" d="M 2597 2516 
Q 3050 2419 3304 2112 
Q 3559 1806 3559 1356 
Q 3559 666 3084 287 
Q 2609 -91 1734 -91 
Q 1441 -91 1130 -33 
Q 819 25 488 141 
L 488 750 
Q 750 597 1062 519 
Q 1375 441 1716 441 
Q 2309 441 2620 675 
Q 2931 909 2931 1356 
Q 2931 1769 2642 2001 
Q 2353 2234 1838 2234 
L 1294 2234 
L 1294 2753 
L 1863 2753 
Q 2328 2753 2575 2939 
Q 2822 3125 2822 3475 
Q 2822 3834 2567 4026 
Q 2313 4219 1838 4219 
Q 1578 4219 1281 4162 
Q 984 4106 628 3988 
L 628 4550 
Q 988 4650 1302 4700 
Q 1616 4750 1894 4750 
Q 2613 4750 3031 4423 
Q 3450 4097 3450 3541 
Q 3450 3153 3228 2886 
Q 3006 2619 2597 2516 
z
" transform="scale(0.015625)"/>
       </defs>
       <use xlink:href="#DejaVuSans-33"/>
       <use xlink:href="#DejaVuSans-2e" x="63.623047"/>
       <use xlink:href="#DejaVuSans-30" x="95.410156"/>
      </g>
     </g>
    </g>
    <g id="ytick_8">
     <g id="line2d_14">
      <g>
       <use xlink:href="#m2b96294b0c" x="43.78125" y="90.124537" style="stroke: #000000; stroke-width: 0.8"/>
      </g>
     </g>
     <g id="text_14">
      <!-- 3.5 -->
      <g transform="translate(20.878125 93.923755) scale(0.1 -0.1)">
       <use xlink:href="#DejaVuSans-33"/>
       <use xlink:href="#DejaVuSans-2e" x="63.623047"/>
       <use xlink:href="#DejaVuSans-35" x="95.410156"/>
      </g>
     </g>
    </g>
    <g id="ytick_9">
     <g id="line2d_15">
      <g>
       <use xlink:href="#m2b96294b0c" x="43.78125" y="60.336116" style="stroke: #000000; stroke-width: 0.8"/>
      </g>
     </g>
     <g id="text_15">
      <!-- 4.0 -->
      <g transform="translate(20.878125 64.135335) scale(0.1 -0.1)">
       <use xlink:href="#DejaVuSans-34"/>
       <use xlink:href="#DejaVuSans-2e" x="63.623047"/>
       <use xlink:href="#DejaVuSans-30" x="95.410156"/>
      </g>
     </g>
    </g>
    <g id="text_16">
     <!-- Density -->
     <g transform="translate(14.798438 197.130333) rotate(-90) scale(0.1 -0.1)">
      <defs>
       <path id="DejaVuSans-44" d="M 1259 4147 
L 1259 519 
L 2022 519 
Q 2988 519 3436 956 
Q 3884 1394 3884 2338 
Q 3884 3275 3436 3711 
Q 2988 4147 2022 4147 
L 1259 4147 
z
M 628 4666 
L 1925 4666 
Q 3281 4666 3915 4102 
Q 4550 3538 4550 2338 
Q 4550 1131 3912 565 
Q 3275 0 1925 0 
L 628 0 
L 628 4666 
z
" transform="scale(0.015625)"/>
       <path id="DejaVuSans-65" d="M 3597 1894 
L 3597 1613 
L 953 1613 
Q 991 1019 1311 708 
Q 1631 397 2203 397 
Q 2534 397 2845 478 
Q 3156 559 3463 722 
L 3463 178 
Q 3153 47 2828 -22 
Q 2503 -91 2169 -91 
Q 1331 -91 842 396 
Q 353 884 353 1716 
Q 353 2575 817 3079 
Q 1281 3584 2069 3584 
Q 2775 3584 3186 3129 
Q 3597 2675 3597 1894 
z
M 3022 2063 
Q 3016 2534 2758 2815 
Q 2500 3097 2075 3097 
Q 1594 3097 1305 2825 
Q 1016 2553 972 2059 
L 3022 2063 
z
" transform="scale(0.015625)"/>
       <path id="DejaVuSans-6e" d="M 3513 2113 
L 3513 0 
L 2938 0 
L 2938 2094 
Q 2938 2591 2744 2837 
Q 2550 3084 2163 3084 
Q 1697 3084 1428 2787 
Q 1159 2491 1159 1978 
L 1159 0 
L 581 0 
L 581 3500 
L 1159 3500 
L 1159 2956 
Q 1366 3272 1645 3428 
Q 1925 3584 2291 3584 
Q 2894 3584 3203 3211 
Q 3513 2838 3513 2113 
z
" transform="scale(0.015625)"/>
       <path id="DejaVuSans-73" d="M 2834 3397 
L 2834 2853 
Q 2591 2978 2328 3040 
Q 2066 3103 1784 3103 
Q 1356 3103 1142 2972 
Q 928 2841 928 2578 
Q 928 2378 1081 2264 
Q 1234 2150 1697 2047 
L 1894 2003 
Q 2506 1872 2764 1633 
Q 3022 1394 3022 966 
Q 3022 478 2636 193 
Q 2250 -91 1575 -91 
Q 1294 -91 989 -36 
Q 684 19 347 128 
L 347 722 
Q 666 556 975 473 
Q 1284 391 1588 391 
Q 1994 391 2212 530 
Q 2431 669 2431 922 
Q 2431 1156 2273 1281 
Q 2116 1406 1581 1522 
L 1381 1569 
Q 847 1681 609 1914 
Q 372 2147 372 2553 
Q 372 3047 722 3315 
Q 1072 3584 1716 3584 
Q 2034 3584 2315 3537 
Q 2597 3491 2834 3397 
z
" transform="scale(0.015625)"/>
       <path id="DejaVuSans-69" d="M 603 3500 
L 1178 3500 
L 1178 0 
L 603 0 
L 603 3500 
z
M 603 4863 
L 1178 4863 
L 1178 4134 
L 603 4134 
L 603 4863 
z
" transform="scale(0.015625)"/>
       <path id="DejaVuSans-74" d="M 1172 4494 
L 1172 3500 
L 2356 3500 
L 2356 3053 
L 1172 3053 
L 1172 1153 
Q 1172 725 1289 603 
Q 1406 481 1766 481 
L 2356 481 
L 2356 0 
L 1766 0 
Q 1100 0 847 248 
Q 594 497 594 1153 
L 594 3053 
L 172 3053 
L 172 3500 
L 594 3500 
L 594 4494 
L 1172 4494 
z
" transform="scale(0.015625)"/>
       <path id="DejaVuSans-79" d="M 2059 -325 
Q 1816 -950 1584 -1140 
Q 1353 -1331 966 -1331 
L 506 -1331 
L 506 -850 
L 844 -850 
Q 1081 -850 1212 -737 
Q 1344 -625 1503 -206 
L 1606 56 
L 191 3500 
L 800 3500 
L 1894 763 
L 2988 3500 
L 3597 3500 
L 2059 -325 
z
" transform="scale(0.015625)"/>
      </defs>
      <use xlink:href="#DejaVuSans-44"/>
      <use xlink:href="#DejaVuSans-65" x="77.001953"/>
      <use xlink:href="#DejaVuSans-6e" x="138.525391"/>
      <use xlink:href="#DejaVuSans-73" x="201.904297"/>
      <use xlink:href="#DejaVuSans-69" x="254.003906"/>
      <use xlink:href="#DejaVuSans-74" x="281.787109"/>
      <use xlink:href="#DejaVuSans-79" x="320.996094"/>
     </g>
    </g>
   </g>
   <g id="patch_3">
    <path d="M 43.78125 298.643478 
L 43.78125 57.6 
" style="fill: none; stroke: #000000; stroke-width: 0.8; stroke-linejoin: miter; stroke-linecap: square"/>
   </g>
   <g id="patch_4">
    <path d="M 880.78125 298.643478 
L 880.78125 57.6 
" style="fill: none; stroke: #000000; stroke-width: 0.8; stroke-linejoin: miter; stroke-linecap: square"/>
   </g>
   <g id="patch_5">
    <path d="M 43.78125 298.643478 
L 880.78125 298.643478 
" style="fill: none; stroke: #000000; stroke-width: 0.8; stroke-linejoin: miter; stroke-linecap: square"/>
   </g>
   <g id="patch_6">
    <path d="M 43.78125 57.6 
L 880.78125 57.6 
" style="fill: none; stroke: #000000; stroke-width: 0.8; stroke-linejoin: miter; stroke-linecap: square"/>
   </g>
   <g id="text_17">
    <!-- Pearson correlation coefficients -->
    <g transform="translate(367.949062 51.6) scale(0.12 -0.12)">
     <defs>
      <path id="DejaVuSans-50" d="M 1259 4147 
L 1259 2394 
L 2053 2394 
Q 2494 2394 2734 2622 
Q 2975 2850 2975 3272 
Q 2975 3691 2734 3919 
Q 2494 4147 2053 4147 
L 1259 4147 
z
M 628 4666 
L 2053 4666 
Q 2838 4666 3239 4311 
Q 3641 3956 3641 3272 
Q 3641 2581 3239 2228 
Q 2838 1875 2053 1875 
L 1259 1875 
L 1259 0 
L 628 0 
L 628 4666 
z
" transform="scale(0.015625)"/>
      <path id="DejaVuSans-61" d="M 2194 1759 
Q 1497 1759 1228 1600 
Q 959 1441 959 1056 
Q 959 750 1161 570 
Q 1363 391 1709 391 
Q 2188 391 2477 730 
Q 2766 1069 2766 1631 
L 2766 1759 
L 2194 1759 
z
M 3341 1997 
L 3341 0 
L 2766 0 
L 2766 531 
Q 2569 213 2275 61 
Q 1981 -91 1556 -91 
Q 1019 -91 701 211 
Q 384 513 384 1019 
Q 384 1609 779 1909 
Q 1175 2209 1959 2209 
L 2766 2209 
L 2766 2266 
Q 2766 2663 2505 2880 
Q 2244 3097 1772 3097 
Q 1472 3097 1187 3025 
Q 903 2953 641 2809 
L 641 3341 
Q 956 3463 1253 3523 
Q 1550 3584 1831 3584 
Q 2591 3584 2966 3190 
Q 3341 2797 3341 1997 
z
" transform="scale(0.015625)"/>
      <path id="DejaVuSans-72" d="M 2631 2963 
Q 2534 3019 2420 3045 
Q 2306 3072 2169 3072 
Q 1681 3072 1420 2755 
Q 1159 2438 1159 1844 
L 1159 0 
L 581 0 
L 581 3500 
L 1159 3500 
L 1159 2956 
Q 1341 3275 1631 3429 
Q 1922 3584 2338 3584 
Q 2397 3584 2469 3576 
Q 2541 3569 2628 3553 
L 2631 2963 
z
" transform="scale(0.015625)"/>
      <path id="DejaVuSans-6f" d="M 1959 3097 
Q 1497 3097 1228 2736 
Q 959 2375 959 1747 
Q 959 1119 1226 758 
Q 1494 397 1959 397 
Q 2419 397 2687 759 
Q 2956 1122 2956 1747 
Q 2956 2369 2687 2733 
Q 2419 3097 1959 3097 
z
M 1959 3584 
Q 2709 3584 3137 3096 
Q 3566 2609 3566 1747 
Q 3566 888 3137 398 
Q 2709 -91 1959 -91 
Q 1206 -91 779 398 
Q 353 888 353 1747 
Q 353 2609 779 3096 
Q 1206 3584 1959 3584 
z
" transform="scale(0.015625)"/>
      <path id="DejaVuSans-20" transform="scale(0.015625)"/>
      <path id="DejaVuSans-63" d="M 3122 3366 
L 3122 2828 
Q 2878 2963 2633 3030 
Q 2388 3097 2138 3097 
Q 1578 3097 1268 2742 
Q 959 2388 959 1747 
Q 959 1106 1268 751 
Q 1578 397 2138 397 
Q 2388 397 2633 464 
Q 2878 531 3122 666 
L 3122 134 
Q 2881 22 2623 -34 
Q 2366 -91 2075 -91 
Q 1284 -91 818 406 
Q 353 903 353 1747 
Q 353 2603 823 3093 
Q 1294 3584 2113 3584 
Q 2378 3584 2631 3529 
Q 2884 3475 3122 3366 
z
" transform="scale(0.015625)"/>
      <path id="DejaVuSans-6c" d="M 603 4863 
L 1178 4863 
L 1178 0 
L 603 0 
L 603 4863 
z
" transform="scale(0.015625)"/>
      <path id="DejaVuSans-66" d="M 2375 4863 
L 2375 4384 
L 1825 4384 
Q 1516 4384 1395 4259 
Q 1275 4134 1275 3809 
L 1275 3500 
L 2222 3500 
L 2222 3053 
L 1275 3053 
L 1275 0 
L 697 0 
L 697 3053 
L 147 3053 
L 147 3500 
L 697 3500 
L 697 3744 
Q 697 4328 969 4595 
Q 1241 4863 1831 4863 
L 2375 4863 
z
" transform="scale(0.015625)"/>
     </defs>
     <use xlink:href="#DejaVuSans-50"/>
     <use xlink:href="#DejaVuSans-65" x="56.677734"/>
     <use xlink:href="#DejaVuSans-61" x="118.201172"/>
     <use xlink:href="#DejaVuSans-72" x="179.480469"/>
     <use xlink:href="#DejaVuSans-73" x="220.59375"/>
     <use xlink:href="#DejaVuSans-6f" x="272.693359"/>
     <use xlink:href="#DejaVuSans-6e" x="333.875"/>
     <use xlink:href="#DejaVuSans-20" x="397.253906"/>
     <use xlink:href="#DejaVuSans-63" x="429.041016"/>
     <use xlink:href="#DejaVuSans-6f" x="484.021484"/>
     <use xlink:href="#DejaVuSans-72" x="545.203125"/>
     <use xlink:href="#DejaVuSans-72" x="584.566406"/>
     <use xlink:href="#DejaVuSans-65" x="623.429688"/>
     <use xlink:href="#DejaVuSans-6c" x="684.953125"/>
     <use xlink:href="#DejaVuSans-61" x="712.736328"/>
     <use xlink:href="#DejaVuSans-74" x="774.015625"/>
     <use xlink:href="#DejaVuSans-69" x="813.224609"/>
     <use xlink:href="#DejaVuSans-6f" x="841.007812"/>
     <use xlink:href="#DejaVuSans-6e" x="902.189453"/>
     <use xlink:href="#DejaVuSans-20" x="965.568359"/>
     <use xlink:href="#DejaVuSans-63" x="997.355469"/>
     <use xlink:href="#DejaVuSans-6f" x="1052.335938"/>
     <use xlink:href="#DejaVuSans-65" x="1113.517578"/>
     <use xlink:href="#DejaVuSans-66" x="1175.041016"/>
     <use xlink:href="#DejaVuSans-66" x="1210.246094"/>
     <use xlink:href="#DejaVuSans-69" x="1245.451172"/>
     <use xlink:href="#DejaVuSans-63" x="1273.234375"/>
     <use xlink:href="#DejaVuSans-69" x="1328.214844"/>
     <use xlink:href="#DejaVuSans-65" x="1355.998047"/>
     <use xlink:href="#DejaVuSans-6e" x="1417.521484"/>
     <use xlink:href="#DejaVuSans-74" x="1480.900391"/>
     <use xlink:href="#DejaVuSans-73" x="1520.109375"/>
    </g>
   </g>
   <g id="legend_1">
    <g id="patch_7">
     <path d="M 50.78125 109.634375 
L 138.80625 109.634375 
Q 140.80625 109.634375 140.80625 107.634375 
L 140.80625 64.6 
Q 140.80625 62.6 138.80625 62.6 
L 50.78125 62.6 
Q 48.78125 62.6 48.78125 64.6 
L 48.78125 107.634375 
Q 48.78125 109.634375 50.78125 109.634375 
z
" style="fill: #ffffff; opacity: 0.8; stroke: #cccccc; stroke-linejoin: miter"/>
    </g>
    <g id="text_18">
     <!-- Correlation type: -->
     <g transform="translate(52.78125 74.198437) scale(0.1 -0.1)">
      <defs>
       <path id="DejaVuSans-43" d="M 4122 4306 
L 4122 3641 
Q 3803 3938 3442 4084 
Q 3081 4231 2675 4231 
Q 1875 4231 1450 3742 
Q 1025 3253 1025 2328 
Q 1025 1406 1450 917 
Q 1875 428 2675 428 
Q 3081 428 3442 575 
Q 3803 722 4122 1019 
L 4122 359 
Q 3791 134 3420 21 
Q 3050 -91 2638 -91 
Q 1578 -91 968 557 
Q 359 1206 359 2328 
Q 359 3453 968 4101 
Q 1578 4750 2638 4750 
Q 3056 4750 3426 4639 
Q 3797 4528 4122 4306 
z
" transform="scale(0.015625)"/>
       <path id="DejaVuSans-70" d="M 1159 525 
L 1159 -1331 
L 581 -1331 
L 581 3500 
L 1159 3500 
L 1159 2969 
Q 1341 3281 1617 3432 
Q 1894 3584 2278 3584 
Q 2916 3584 3314 3078 
Q 3713 2572 3713 1747 
Q 3713 922 3314 415 
Q 2916 -91 2278 -91 
Q 1894 -91 1617 61 
Q 1341 213 1159 525 
z
M 3116 1747 
Q 3116 2381 2855 2742 
Q 2594 3103 2138 3103 
Q 1681 3103 1420 2742 
Q 1159 2381 1159 1747 
Q 1159 1113 1420 752 
Q 1681 391 2138 391 
Q 2594 391 2855 752 
Q 3116 1113 3116 1747 
z
" transform="scale(0.015625)"/>
       <path id="DejaVuSans-3a" d="M 750 794 
L 1409 794 
L 1409 0 
L 750 0 
L 750 794 
z
M 750 3309 
L 1409 3309 
L 1409 2516 
L 750 2516 
L 750 3309 
z
" transform="scale(0.015625)"/>
      </defs>
      <use xlink:href="#DejaVuSans-43"/>
      <use xlink:href="#DejaVuSans-6f" x="69.824219"/>
      <use xlink:href="#DejaVuSans-72" x="131.005859"/>
      <use xlink:href="#DejaVuSans-72" x="170.369141"/>
      <use xlink:href="#DejaVuSans-65" x="209.232422"/>
      <use xlink:href="#DejaVuSans-6c" x="270.755859"/>
      <use xlink:href="#DejaVuSans-61" x="298.539062"/>
      <use xlink:href="#DejaVuSans-74" x="359.818359"/>
      <use xlink:href="#DejaVuSans-69" x="399.027344"/>
      <use xlink:href="#DejaVuSans-6f" x="426.810547"/>
      <use xlink:href="#DejaVuSans-6e" x="487.992188"/>
      <use xlink:href="#DejaVuSans-20" x="551.371094"/>
      <use xlink:href="#DejaVuSans-74" x="583.158203"/>
      <use xlink:href="#DejaVuSans-79" x="622.367188"/>
      <use xlink:href="#DejaVuSans-70" x="681.546875"/>
      <use xlink:href="#DejaVuSans-65" x="745.023438"/>
      <use xlink:href="#DejaVuSans-3a" x="806.546875"/>
     </g>
    </g>
    <g id="patch_8">
     <path d="M 53.285156 88.876562 
L 73.285156 88.876562 
L 73.285156 81.876562 
L 53.285156 81.876562 
z
" style="fill: #1f77b4; fill-opacity: 0.5; stroke: #1f77b4; stroke-width: 2.5; stroke-linejoin: miter"/>
    </g>
    <g id="text_19">
     <!-- Codon -->
     <g transform="translate(81.285156 88.876562) scale(0.1 -0.1)">
      <defs>
       <path id="DejaVuSans-64" d="M 2906 2969 
L 2906 4863 
L 3481 4863 
L 3481 0 
L 2906 0 
L 2906 525 
Q 2725 213 2448 61 
Q 2172 -91 1784 -91 
Q 1150 -91 751 415 
Q 353 922 353 1747 
Q 353 2572 751 3078 
Q 1150 3584 1784 3584 
Q 2172 3584 2448 3432 
Q 2725 3281 2906 2969 
z
M 947 1747 
Q 947 1113 1208 752 
Q 1469 391 1925 391 
Q 2381 391 2643 752 
Q 2906 1113 2906 1747 
Q 2906 2381 2643 2742 
Q 2381 3103 1925 3103 
Q 1469 3103 1208 2742 
Q 947 2381 947 1747 
z
" transform="scale(0.015625)"/>
      </defs>
      <use xlink:href="#DejaVuSans-43"/>
      <use xlink:href="#DejaVuSans-6f" x="69.824219"/>
      <use xlink:href="#DejaVuSans-64" x="131.005859"/>
      <use xlink:href="#DejaVuSans-6f" x="194.482422"/>
      <use xlink:href="#DejaVuSans-6e" x="255.664062"/>
     </g>
    </g>
    <g id="patch_9">
     <path d="M 53.285156 103.554688 
L 73.285156 103.554688 
L 73.285156 96.554688 
L 53.285156 96.554688 
z
" style="fill: #ff7f0e; fill-opacity: 0.5; stroke: #ff7f0e; stroke-width: 2.5; stroke-linejoin: miter"/>
    </g>
    <g id="text_20">
     <!-- Codon+GC -->
     <g transform="translate(81.285156 103.554688) scale(0.1 -0.1)">
      <defs>
       <path id="DejaVuSans-2b" d="M 2944 4013 
L 2944 2272 
L 4684 2272 
L 4684 1741 
L 2944 1741 
L 2944 0 
L 2419 0 
L 2419 1741 
L 678 1741 
L 678 2272 
L 2419 2272 
L 2419 4013 
L 2944 4013 
z
" transform="scale(0.015625)"/>
       <path id="DejaVuSans-47" d="M 3809 666 
L 3809 1919 
L 2778 1919 
L 2778 2438 
L 4434 2438 
L 4434 434 
Q 4069 175 3628 42 
Q 3188 -91 2688 -91 
Q 1594 -91 976 548 
Q 359 1188 359 2328 
Q 359 3472 976 4111 
Q 1594 4750 2688 4750 
Q 3144 4750 3555 4637 
Q 3966 4525 4313 4306 
L 4313 3634 
Q 3963 3931 3569 4081 
Q 3175 4231 2741 4231 
Q 1884 4231 1454 3753 
Q 1025 3275 1025 2328 
Q 1025 1384 1454 906 
Q 1884 428 2741 428 
Q 3075 428 3337 486 
Q 3600 544 3809 666 
z
" transform="scale(0.015625)"/>
      </defs>
      <use xlink:href="#DejaVuSans-43"/>
      <use xlink:href="#DejaVuSans-6f" x="69.824219"/>
      <use xlink:href="#DejaVuSans-64" x="131.005859"/>
      <use xlink:href="#DejaVuSans-6f" x="194.482422"/>
      <use xlink:href="#DejaVuSans-6e" x="255.664062"/>
      <use xlink:href="#DejaVuSans-2b" x="319.042969"/>
      <use xlink:href="#DejaVuSans-47" x="402.832031"/>
      <use xlink:href="#DejaVuSans-43" x="480.322266"/>
     </g>
    </g>
   </g>
  </g>
  <g id="axes_2">
   <g id="patch_10">
    <path d="M 43.78125 612 
L 880.78125 612 
L 880.78125 370.956522 
L 43.78125 370.956522 
z
" style="fill: #ffffff"/>
   </g>
   <g id="PolyCollection_3">
    <defs>
     <path id="md8b9a6adfe" d="M 190.784161 -23.900782 
L 190.784161 -23.878125 
L 194.076884 -23.878125 
L 197.369607 -23.878125 
L 200.66233 -23.878125 
L 203.955054 -23.878125 
L 207.247777 -23.878125 
L 210.5405 -23.878125 
L 213.833223 -23.878125 
L 217.125946 -23.878125 
L 220.418669 -23.878125 
L 223.711392 -23.878125 
L 227.004116 -23.878125 
L 230.296839 -23.878125 
L 233.589562 -23.878125 
L 236.882285 -23.878125 
L 240.175008 -23.878125 
L 243.467731 -23.878125 
L 246.760455 -23.878125 
L 250.053178 -23.878125 
L 253.345901 -23.878125 
L 256.638624 -23.878125 
L 259.931347 -23.878125 
L 263.22407 -23.878125 
L 266.516794 -23.878125 
L 269.809517 -23.878125 
L 273.10224 -23.878125 
L 276.394963 -23.878125 
L 279.687686 -23.878125 
L 282.980409 -23.878125 
L 286.273133 -23.878125 
L 289.565856 -23.878125 
L 292.858579 -23.878125 
L 296.151302 -23.878125 
L 299.444025 -23.878125 
L 302.736748 -23.878125 
L 306.029472 -23.878125 
L 309.322195 -23.878125 
L 312.614918 -23.878125 
L 315.907641 -23.878125 
L 319.200364 -23.878125 
L 322.493087 -23.878125 
L 325.785811 -23.878125 
L 329.078534 -23.878125 
L 332.371257 -23.878125 
L 335.66398 -23.878125 
L 338.956703 -23.878125 
L 342.249426 -23.878125 
L 345.54215 -23.878125 
L 348.834873 -23.878125 
L 352.127596 -23.878125 
L 355.420319 -23.878125 
L 358.713042 -23.878125 
L 362.005765 -23.878125 
L 365.298489 -23.878125 
L 368.591212 -23.878125 
L 371.883935 -23.878125 
L 375.176658 -23.878125 
L 378.469381 -23.878125 
L 381.762104 -23.878125 
L 385.054828 -23.878125 
L 388.347551 -23.878125 
L 391.640274 -23.878125 
L 394.932997 -23.878125 
L 398.22572 -23.878125 
L 401.518443 -23.878125 
L 404.811167 -23.878125 
L 408.10389 -23.878125 
L 411.396613 -23.878125 
L 414.689336 -23.878125 
L 417.982059 -23.878125 
L 421.274782 -23.878125 
L 424.567506 -23.878125 
L 427.860229 -23.878125 
L 431.152952 -23.878125 
L 434.445675 -23.878125 
L 437.738398 -23.878125 
L 441.031121 -23.878125 
L 444.323844 -23.878125 
L 447.616568 -23.878125 
L 450.909291 -23.878125 
L 454.202014 -23.878125 
L 457.494737 -23.878125 
L 460.78746 -23.878125 
L 464.080183 -23.878125 
L 467.372907 -23.878125 
L 470.66563 -23.878125 
L 473.958353 -23.878125 
L 477.251076 -23.878125 
L 480.543799 -23.878125 
L 483.836522 -23.878125 
L 487.129246 -23.878125 
L 490.421969 -23.878125 
L 493.714692 -23.878125 
L 497.007415 -23.878125 
L 500.300138 -23.878125 
L 503.592861 -23.878125 
L 506.885585 -23.878125 
L 510.178308 -23.878125 
L 513.471031 -23.878125 
L 516.763754 -23.878125 
L 520.056477 -23.878125 
L 523.3492 -23.878125 
L 526.641924 -23.878125 
L 529.934647 -23.878125 
L 533.22737 -23.878125 
L 536.520093 -23.878125 
L 539.812816 -23.878125 
L 543.105539 -23.878125 
L 546.398263 -23.878125 
L 549.690986 -23.878125 
L 552.983709 -23.878125 
L 556.276432 -23.878125 
L 559.569155 -23.878125 
L 562.861878 -23.878125 
L 566.154602 -23.878125 
L 569.447325 -23.878125 
L 572.740048 -23.878125 
L 576.032771 -23.878125 
L 579.325494 -23.878125 
L 582.618217 -23.878125 
L 585.910941 -23.878125 
L 589.203664 -23.878125 
L 592.496387 -23.878125 
L 595.78911 -23.878125 
L 599.081833 -23.878125 
L 602.374556 -23.878125 
L 605.66728 -23.878125 
L 608.960003 -23.878125 
L 612.252726 -23.878125 
L 615.545449 -23.878125 
L 618.838172 -23.878125 
L 622.130895 -23.878125 
L 625.423619 -23.878125 
L 628.716342 -23.878125 
L 632.009065 -23.878125 
L 635.301788 -23.878125 
L 638.594511 -23.878125 
L 641.887234 -23.878125 
L 645.179957 -23.878125 
L 648.472681 -23.878125 
L 651.765404 -23.878125 
L 655.058127 -23.878125 
L 658.35085 -23.878125 
L 661.643573 -23.878125 
L 664.936296 -23.878125 
L 668.22902 -23.878125 
L 671.521743 -23.878125 
L 674.814466 -23.878125 
L 678.107189 -23.878125 
L 681.399912 -23.878125 
L 684.692635 -23.878125 
L 687.985359 -23.878125 
L 691.278082 -23.878125 
L 694.570805 -23.878125 
L 697.863528 -23.878125 
L 701.156251 -23.878125 
L 704.448974 -23.878125 
L 707.741698 -23.878125 
L 711.034421 -23.878125 
L 714.327144 -23.878125 
L 717.619867 -23.878125 
L 720.91259 -23.878125 
L 724.205313 -23.878125 
L 727.498037 -23.878125 
L 730.79076 -23.878125 
L 734.083483 -23.878125 
L 737.376206 -23.878125 
L 740.668929 -23.878125 
L 743.961652 -23.878125 
L 747.254376 -23.878125 
L 750.547099 -23.878125 
L 753.839822 -23.878125 
L 757.132545 -23.878125 
L 760.425268 -23.878125 
L 763.717991 -23.878125 
L 767.010715 -23.878125 
L 770.303438 -23.878125 
L 773.596161 -23.878125 
L 776.888884 -23.878125 
L 780.181607 -23.878125 
L 783.47433 -23.878125 
L 786.767054 -23.878125 
L 790.059777 -23.878125 
L 793.3525 -23.878125 
L 796.645223 -23.878125 
L 799.937946 -23.878125 
L 803.230669 -23.878125 
L 806.523393 -23.878125 
L 809.816116 -23.878125 
L 813.108839 -23.878125 
L 816.401562 -23.878125 
L 819.694285 -23.878125 
L 822.987008 -23.878125 
L 826.279732 -23.878125 
L 829.572455 -23.878125 
L 832.865178 -23.878125 
L 836.157901 -23.878125 
L 839.450624 -23.878125 
L 842.743347 -23.878125 
L 846.036071 -23.878125 
L 846.036071 -23.893548 
L 846.036071 -23.893548 
L 842.743347 -23.901035 
L 839.450624 -23.911631 
L 836.157901 -23.926389 
L 832.865178 -23.946616 
L 829.572455 -23.973917 
L 826.279732 -24.010223 
L 822.987008 -24.057827 
L 819.694285 -24.119413 
L 816.401562 -24.198098 
L 813.108839 -24.29748 
L 809.816116 -24.4217 
L 806.523393 -24.575533 
L 803.230669 -24.764501 
L 799.937946 -24.995016 
L 796.645223 -25.274543 
L 793.3525 -25.611786 
L 790.059777 -26.016854 
L 786.767054 -26.501409 
L 783.47433 -27.078745 
L 780.181607 -27.763791 
L 776.888884 -28.573002 
L 773.596161 -29.524132 
L 770.303438 -30.635904 
L 767.010715 -31.927596 
L 763.717991 -33.418586 
L 760.425268 -35.127925 
L 757.132545 -37.073986 
L 753.839822 -39.274261 
L 750.547099 -41.745322 
L 747.254376 -44.502973 
L 743.961652 -47.562551 
L 740.668929 -50.939288 
L 737.376206 -54.648659 
L 734.083483 -58.706557 
L 730.79076 -63.129174 
L 727.498037 -67.932487 
L 724.205313 -73.131259 
L 720.91259 -78.737564 
L 717.619867 -84.758873 
L 714.327144 -91.195838 
L 711.034421 -98.039949 
L 707.741698 -105.271278 
L 704.448974 -112.856549 
L 701.156251 -120.747752 
L 697.863528 -128.88149 
L 694.570805 -137.179196 
L 691.278082 -145.548297 
L 687.985359 -153.88434 
L 684.692635 -162.074036 
L 681.399912 -169.999092 
L 678.107189 -177.540702 
L 674.814466 -184.584445 
L 671.521743 -191.025367 
L 668.22902 -196.772939 
L 664.936296 -201.755573 
L 661.643573 -205.924395 
L 658.35085 -209.255962 
L 655.058127 -211.753693 
L 651.765404 -213.447845 
L 648.472681 -214.393995 
L 645.179957 -214.670082 
L 641.887234 -214.372223 
L 638.594511 -213.609602 
L 635.301788 -212.498807 
L 632.009065 -211.158041 
L 628.716342 -209.701592 
L 625.423619 -208.23491 
L 622.130895 -206.850532 
L 618.838172 -205.625 
L 615.545449 -204.616799 
L 612.252726 -203.865244 
L 608.960003 -203.390211 
L 605.66728 -203.192537 
L 602.374556 -203.254962 
L 599.081833 -203.543476 
L 595.78911 -204.00901 
L 592.496387 -204.58944 
L 589.203664 -205.2119 
L 585.910941 -205.795444 
L 582.618217 -206.254065 
L 579.325494 -206.500049 
L 576.032771 -206.447629 
L 572.740048 -206.016788 
L 569.447325 -205.137057 
L 566.154602 -203.751069 
L 562.861878 -201.817611 
L 559.569155 -199.313927 
L 556.276432 -196.237049 
L 552.983709 -192.60399 
L 549.690986 -188.45077 
L 546.398263 -183.830301 
L 543.105539 -178.809323 
L 539.812816 -173.464651 
L 536.520093 -167.879078 
L 533.22737 -162.137306 
L 529.934647 -156.322239 
L 526.641924 -150.511929 
L 523.3492 -144.777335 
L 520.056477 -139.180937 
L 516.763754 -133.776147 
L 513.471031 -128.607314 
L 510.178308 -123.710098 
L 506.885585 -119.111954 
L 503.592861 -114.832503 
L 500.300138 -110.883651 
L 497.007415 -107.269424 
L 493.714692 -103.985567 
L 490.421969 -101.019084 
L 487.129246 -98.347929 
L 483.836522 -95.941076 
L 480.543799 -93.759175 
L 477.251076 -91.755916 
L 473.958353 -89.880115 
L 470.66563 -88.078443 
L 467.372907 -86.298575 
L 464.080183 -84.492502 
L 460.78746 -82.619664 
L 457.494737 -80.649594 
L 454.202014 -78.563803 
L 450.909291 -76.356731 
L 447.616568 -74.035687 
L 444.323844 -71.619822 
L 441.031121 -69.138289 
L 437.738398 -66.627816 
L 434.445675 -64.129937 
L 431.152952 -61.688181 
L 427.860229 -59.345408 
L 424.567506 -57.14151 
L 421.274782 -55.111535 
L 417.982059 -53.284304 
L 414.689336 -51.681467 
L 411.396613 -50.316952 
L 408.10389 -49.196725 
L 404.811167 -48.318796 
L 401.518443 -47.673418 
L 398.22572 -47.243463 
L 394.932997 -47.004974 
L 391.640274 -46.92792 
L 388.347551 -46.977164 
L 385.054828 -47.113674 
L 381.762104 -47.295946 
L 378.469381 -47.481636 
L 375.176658 -47.62931 
L 371.883935 -47.700235 
L 368.591212 -47.660116 
L 365.298489 -47.480655 
L 362.005765 -47.14083 
L 358.713042 -46.627802 
L 355.420319 -45.937383 
L 352.127596 -45.074033 
L 348.834873 -44.050379 
L 345.54215 -42.886303 
L 342.249426 -41.607655 
L 338.956703 -40.244702 
L 335.66398 -38.830413 
L 332.371257 -37.398701 
L 329.078534 -35.982743 
L 325.785811 -34.613458 
L 322.493087 -33.318244 
L 319.200364 -32.119989 
L 315.907641 -31.036411 
L 312.614918 -30.079698 
L 309.322195 -29.256441 
L 306.029472 -28.567819 
L 302.736748 -28.009996 
L 299.444025 -27.574702 
L 296.151302 -27.249938 
L 292.858579 -27.020793 
L 289.565856 -26.870328 
L 286.273133 -26.780501 
L 282.980409 -26.733093 
L 279.687686 -26.710606 
L 276.394963 -26.697078 
L 273.10224 -26.678778 
L 269.809517 -26.644741 
L 266.516794 -26.587104 
L 263.22407 -26.501223 
L 259.931347 -26.385578 
L 256.638624 -26.241457 
L 253.345901 -26.072492 
L 250.053178 -25.884059 
L 246.760455 -25.682622 
L 243.467731 -25.475085 
L 240.175008 -25.268193 
L 236.882285 -25.068038 
L 233.589562 -24.879703 
L 230.296839 -24.707043 
L 227.004116 -24.552609 
L 223.711392 -24.417697 
L 220.418669 -24.302482 
L 217.125946 -24.206227 
L 213.833223 -24.127514 
L 210.5405 -24.064476 
L 207.247777 -24.015014 
L 203.955054 -23.976976 
L 200.66233 -23.948299 
L 197.369607 -23.927097 
L 194.076884 -23.911721 
L 190.784161 -23.900782 
z
" style="stroke: #ff7f0e; stroke-width: 2.5"/>
    </defs>
    <g clip-path="url(#p3ffc56c997)">
     <use xlink:href="#md8b9a6adfe" x="0" y="635.878125" style="fill: #ff7f0e; fill-opacity: 0.5; stroke: #ff7f0e; stroke-width: 2.5"/>
    </g>
   </g>
   <g id="PolyCollection_4">
    <defs>
     <path id="mabf509393b" d="M 151.132481 -23.901471 
L 151.132481 -23.878125 
L 154.58784 -23.878125 
L 158.043199 -23.878125 
L 161.498558 -23.878125 
L 164.953918 -23.878125 
L 168.409277 -23.878125 
L 171.864636 -23.878125 
L 175.319995 -23.878125 
L 178.775355 -23.878125 
L 182.230714 -23.878125 
L 185.686073 -23.878125 
L 189.141432 -23.878125 
L 192.596792 -23.878125 
L 196.052151 -23.878125 
L 199.50751 -23.878125 
L 202.962869 -23.878125 
L 206.418229 -23.878125 
L 209.873588 -23.878125 
L 213.328947 -23.878125 
L 216.784306 -23.878125 
L 220.239666 -23.878125 
L 223.695025 -23.878125 
L 227.150384 -23.878125 
L 230.605743 -23.878125 
L 234.061102 -23.878125 
L 237.516462 -23.878125 
L 240.971821 -23.878125 
L 244.42718 -23.878125 
L 247.882539 -23.878125 
L 251.337899 -23.878125 
L 254.793258 -23.878125 
L 258.248617 -23.878125 
L 261.703976 -23.878125 
L 265.159336 -23.878125 
L 268.614695 -23.878125 
L 272.070054 -23.878125 
L 275.525413 -23.878125 
L 278.980773 -23.878125 
L 282.436132 -23.878125 
L 285.891491 -23.878125 
L 289.34685 -23.878125 
L 292.80221 -23.878125 
L 296.257569 -23.878125 
L 299.712928 -23.878125 
L 303.168287 -23.878125 
L 306.623647 -23.878125 
L 310.079006 -23.878125 
L 313.534365 -23.878125 
L 316.989724 -23.878125 
L 320.445083 -23.878125 
L 323.900443 -23.878125 
L 327.355802 -23.878125 
L 330.811161 -23.878125 
L 334.26652 -23.878125 
L 337.72188 -23.878125 
L 341.177239 -23.878125 
L 344.632598 -23.878125 
L 348.087957 -23.878125 
L 351.543317 -23.878125 
L 354.998676 -23.878125 
L 358.454035 -23.878125 
L 361.909394 -23.878125 
L 365.364754 -23.878125 
L 368.820113 -23.878125 
L 372.275472 -23.878125 
L 375.730831 -23.878125 
L 379.186191 -23.878125 
L 382.64155 -23.878125 
L 386.096909 -23.878125 
L 389.552268 -23.878125 
L 393.007627 -23.878125 
L 396.462987 -23.878125 
L 399.918346 -23.878125 
L 403.373705 -23.878125 
L 406.829064 -23.878125 
L 410.284424 -23.878125 
L 413.739783 -23.878125 
L 417.195142 -23.878125 
L 420.650501 -23.878125 
L 424.105861 -23.878125 
L 427.56122 -23.878125 
L 431.016579 -23.878125 
L 434.471938 -23.878125 
L 437.927298 -23.878125 
L 441.382657 -23.878125 
L 444.838016 -23.878125 
L 448.293375 -23.878125 
L 451.748735 -23.878125 
L 455.204094 -23.878125 
L 458.659453 -23.878125 
L 462.114812 -23.878125 
L 465.570172 -23.878125 
L 469.025531 -23.878125 
L 472.48089 -23.878125 
L 475.936249 -23.878125 
L 479.391608 -23.878125 
L 482.846968 -23.878125 
L 486.302327 -23.878125 
L 489.757686 -23.878125 
L 493.213045 -23.878125 
L 496.668405 -23.878125 
L 500.123764 -23.878125 
L 503.579123 -23.878125 
L 507.034482 -23.878125 
L 510.489842 -23.878125 
L 513.945201 -23.878125 
L 517.40056 -23.878125 
L 520.855919 -23.878125 
L 524.311279 -23.878125 
L 527.766638 -23.878125 
L 531.221997 -23.878125 
L 534.677356 -23.878125 
L 538.132716 -23.878125 
L 541.588075 -23.878125 
L 545.043434 -23.878125 
L 548.498793 -23.878125 
L 551.954153 -23.878125 
L 555.409512 -23.878125 
L 558.864871 -23.878125 
L 562.32023 -23.878125 
L 565.775589 -23.878125 
L 569.230949 -23.878125 
L 572.686308 -23.878125 
L 576.141667 -23.878125 
L 579.597026 -23.878125 
L 583.052386 -23.878125 
L 586.507745 -23.878125 
L 589.963104 -23.878125 
L 593.418463 -23.878125 
L 596.873823 -23.878125 
L 600.329182 -23.878125 
L 603.784541 -23.878125 
L 607.2399 -23.878125 
L 610.69526 -23.878125 
L 614.150619 -23.878125 
L 617.605978 -23.878125 
L 621.061337 -23.878125 
L 624.516697 -23.878125 
L 627.972056 -23.878125 
L 631.427415 -23.878125 
L 634.882774 -23.878125 
L 638.338134 -23.878125 
L 641.793493 -23.878125 
L 645.248852 -23.878125 
L 648.704211 -23.878125 
L 652.15957 -23.878125 
L 655.61493 -23.878125 
L 659.070289 -23.878125 
L 662.525648 -23.878125 
L 665.981007 -23.878125 
L 669.436367 -23.878125 
L 672.891726 -23.878125 
L 676.347085 -23.878125 
L 679.802444 -23.878125 
L 683.257804 -23.878125 
L 686.713163 -23.878125 
L 690.168522 -23.878125 
L 693.623881 -23.878125 
L 697.079241 -23.878125 
L 700.5346 -23.878125 
L 703.989959 -23.878125 
L 707.445318 -23.878125 
L 710.900678 -23.878125 
L 714.356037 -23.878125 
L 717.811396 -23.878125 
L 721.266755 -23.878125 
L 724.722114 -23.878125 
L 728.177474 -23.878125 
L 731.632833 -23.878125 
L 735.088192 -23.878125 
L 738.543551 -23.878125 
L 741.998911 -23.878125 
L 745.45427 -23.878125 
L 748.909629 -23.878125 
L 752.364988 -23.878125 
L 755.820348 -23.878125 
L 759.275707 -23.878125 
L 762.731066 -23.878125 
L 766.186425 -23.878125 
L 769.641785 -23.878125 
L 773.097144 -23.878125 
L 776.552503 -23.878125 
L 780.007862 -23.878125 
L 783.463222 -23.878125 
L 786.918581 -23.878125 
L 790.37394 -23.878125 
L 793.829299 -23.878125 
L 797.284659 -23.878125 
L 800.740018 -23.878125 
L 804.195377 -23.878125 
L 807.650736 -23.878125 
L 811.106095 -23.878125 
L 814.561455 -23.878125 
L 818.016814 -23.878125 
L 821.472173 -23.878125 
L 824.927532 -23.878125 
L 828.382892 -23.878125 
L 831.838251 -23.878125 
L 835.29361 -23.878125 
L 838.748969 -23.878125 
L 838.748969 -23.938944 
L 838.748969 -23.938944 
L 835.29361 -23.966868 
L 831.838251 -24.006142 
L 828.382892 -24.060719 
L 824.927532 -24.135663 
L 821.472173 -24.237364 
L 818.016814 -24.373766 
L 814.561455 -24.5546 
L 811.106095 -24.791604 
L 807.650736 -25.098726 
L 804.195377 -25.492279 
L 800.740018 -25.991054 
L 797.284659 -26.616349 
L 793.829299 -27.391919 
L 790.37394 -28.343813 
L 786.918581 -29.50011 
L 783.463222 -30.890531 
L 780.007862 -32.545928 
L 776.552503 -34.49766 
L 773.097144 -36.776853 
L 769.641785 -39.413569 
L 766.186425 -42.435876 
L 762.731066 -45.868865 
L 759.275707 -49.733602 
L 755.820348 -54.046061 
L 752.364988 -58.816042 
L 748.909629 -64.046121 
L 745.45427 -69.730639 
L 741.998911 -75.854799 
L 738.543551 -82.393892 
L 735.088192 -89.312719 
L 731.632833 -96.565273 
L 728.177474 -104.094732 
L 724.722114 -111.83384 
L 721.266755 -119.705722 
L 717.811396 -127.625172 
L 714.356037 -135.500437 
L 710.900678 -143.235474 
L 707.445318 -150.732635 
L 703.989959 -157.895688 
L 700.5346 -164.633059 
L 697.079241 -170.861117 
L 693.623881 -176.507351 
L 690.168522 -181.513229 
L 686.713163 -185.836569 
L 683.257804 -189.453257 
L 679.802444 -192.358183 
L 676.347085 -194.565319 
L 672.891726 -196.106916 
L 669.436367 -197.031837 
L 665.981007 -197.403129 
L 662.525648 -197.294957 
L 659.070289 -196.789064 
L 655.61493 -195.970953 
L 652.15957 -194.926005 
L 648.704211 -193.735706 
L 645.248852 -192.474189 
L 641.793493 -191.205253 
L 638.338134 -189.979971 
L 634.882774 -188.835017 
L 631.427415 -187.791751 
L 627.972056 -186.856107 
L 624.516697 -186.019261 
L 621.061337 -185.259043 
L 617.605978 -184.542002 
L 614.150619 -183.826005 
L 610.69526 -183.063225 
L 607.2399 -182.203335 
L 603.784541 -181.196725 
L 600.329182 -179.997536 
L 596.873823 -178.566341 
L 593.418463 -176.8723 
L 589.963104 -174.894684 
L 586.507745 -172.623684 
L 583.052386 -170.060511 
L 579.597026 -167.216817 
L 576.141667 -164.113564 
L 572.686308 -160.779448 
L 569.230949 -157.249084 
L 565.775589 -153.561087 
L 562.32023 -149.756245 
L 558.864871 -145.875885 
L 555.409512 -141.960532 
L 551.954153 -138.048903 
L 548.498793 -134.177221 
L 545.043434 -130.378815 
L 541.588075 -126.683924 
L 538.132716 -123.119624 
L 534.677356 -119.709806 
L 531.221997 -116.475129 
L 527.766638 -113.432911 
L 524.311279 -110.596954 
L 520.855919 -107.977312 
L 517.40056 -105.580048 
L 513.945201 -103.407018 
L 510.489842 -101.455754 
L 507.034482 -99.719471 
L 503.579123 -98.187247 
L 500.123764 -96.844371 
L 496.668405 -95.672863 
L 493.213045 -94.652119 
L 489.757686 -93.759651 
L 486.302327 -92.971864 
L 482.846968 -92.264824 
L 479.391608 -91.614967 
L 475.936249 -90.999726 
L 472.48089 -90.39805 
L 469.025531 -89.790808 
L 465.570172 -89.161101 
L 462.114812 -88.49447 
L 458.659453 -87.779049 
L 455.204094 -87.005643 
L 451.748735 -86.167776 
L 448.293375 -85.261689 
L 444.838016 -84.286291 
L 441.382657 -83.243064 
L 437.927298 -82.135891 
L 434.471938 -80.970813 
L 431.016579 -79.755705 
L 427.56122 -78.499857 
L 424.105861 -77.213497 
L 420.650501 -75.90725 
L 417.195142 -74.591574 
L 413.739783 -73.276218 
L 410.284424 -71.969709 
L 406.829064 -70.678944 
L 403.373705 -69.408882 
L 399.918346 -68.162375 
L 396.462987 -66.94015 
L 393.007627 -65.740919 
L 389.552268 -64.561628 
L 386.096909 -63.397801 
L 382.64155 -62.243951 
L 379.186191 -61.094033 
L 375.730831 -59.941892 
L 372.275472 -58.781684 
L 368.820113 -57.60825 
L 365.364754 -56.417417 
L 361.909394 -55.206228 
L 358.454035 -53.973094 
L 354.998676 -52.717882 
L 351.543317 -51.441931 
L 348.087957 -50.148023 
L 344.632598 -48.840303 
L 341.177239 -47.524158 
L 337.72188 -46.206065 
L 334.26652 -44.893407 
L 330.811161 -43.594252 
L 327.355802 -42.317117 
L 323.900443 -41.070694 
L 320.445083 -39.86358 
L 316.989724 -38.703979 
L 313.534365 -37.599427 
L 310.079006 -36.556524 
L 306.623647 -35.580697 
L 303.168287 -34.676017 
L 299.712928 -33.845053 
L 296.257569 -33.088797 
L 292.80221 -32.406648 
L 289.34685 -31.796462 
L 285.891491 -31.254656 
L 282.436132 -30.776368 
L 278.980773 -30.355665 
L 275.525413 -29.985781 
L 272.070054 -29.659378 
L 268.614695 -29.368827 
L 265.159336 -29.106485 
L 261.703976 -28.864973 
L 258.248617 -28.637422 
L 254.793258 -28.417708 
L 251.337899 -28.200632 
L 247.882539 -27.982067 
L 244.42718 -27.759045 
L 240.971821 -27.529791 
L 237.516462 -27.293689 
L 234.061102 -27.051206 
L 230.605743 -26.803749 
L 227.150384 -26.553492 
L 223.695025 -26.303165 
L 220.239666 -26.055832 
L 216.784306 -25.814671 
L 213.328947 -25.582757 
L 209.873588 -25.362887 
L 206.418229 -25.157429 
L 202.962869 -24.968222 
L 199.50751 -24.796519 
L 196.052151 -24.642975 
L 192.596792 -24.507672 
L 189.141432 -24.390178 
L 185.686073 -24.289631 
L 182.230714 -24.20483 
L 178.775355 -24.134343 
L 175.319995 -24.076594 
L 171.864636 -24.029958 
L 168.409277 -23.992835 
L 164.953918 -23.963703 
L 161.498558 -23.941167 
L 158.043199 -23.923978 
L 154.58784 -23.911054 
L 151.132481 -23.901471 
z
" style="stroke: #1f77b4; stroke-width: 2.5"/>
    </defs>
    <g clip-path="url(#p3ffc56c997)">
     <use xlink:href="#mabf509393b" x="0" y="635.878125" style="fill: #1f77b4; fill-opacity: 0.5; stroke: #1f77b4; stroke-width: 2.5"/>
    </g>
   </g>
   <g id="matplotlib.axis_3">
    <g id="xtick_7">
     <g id="line2d_16">
      <g>
       <use xlink:href="#m37bfe0fa84" x="120.84922" y="612" style="stroke: #000000; stroke-width: 0.8"/>
      </g>
     </g>
     <g id="text_21">
      <!-- 0.0 -->
      <g transform="translate(112.897658 626.598438) scale(0.1 -0.1)">
       <use xlink:href="#DejaVuSans-30"/>
       <use xlink:href="#DejaVuSans-2e" x="63.623047"/>
       <use xlink:href="#DejaVuSans-30" x="95.410156"/>
      </g>
     </g>
    </g>
    <g id="xtick_8">
     <g id="line2d_17">
      <g>
       <use xlink:href="#m37bfe0fa84" x="262.186397" y="612" style="stroke: #000000; stroke-width: 0.8"/>
      </g>
     </g>
     <g id="text_22">
      <!-- 0.2 -->
      <g transform="translate(254.234834 626.598438) scale(0.1 -0.1)">
       <use xlink:href="#DejaVuSans-30"/>
       <use xlink:href="#DejaVuSans-2e" x="63.623047"/>
       <use xlink:href="#DejaVuSans-32" x="95.410156"/>
      </g>
     </g>
    </g>
    <g id="xtick_9">
     <g id="line2d_18">
      <g>
       <use xlink:href="#m37bfe0fa84" x="403.523573" y="612" style="stroke: #000000; stroke-width: 0.8"/>
      </g>
     </g>
     <g id="text_23">
      <!-- 0.4 -->
      <g transform="translate(395.572011 626.598438) scale(0.1 -0.1)">
       <use xlink:href="#DejaVuSans-30"/>
       <use xlink:href="#DejaVuSans-2e" x="63.623047"/>
       <use xlink:href="#DejaVuSans-34" x="95.410156"/>
      </g>
     </g>
    </g>
    <g id="xtick_10">
     <g id="line2d_19">
      <g>
       <use xlink:href="#m37bfe0fa84" x="544.86075" y="612" style="stroke: #000000; stroke-width: 0.8"/>
      </g>
     </g>
     <g id="text_24">
      <!-- 0.6 -->
      <g transform="translate(536.909188 626.598438) scale(0.1 -0.1)">
       <use xlink:href="#DejaVuSans-30"/>
       <use xlink:href="#DejaVuSans-2e" x="63.623047"/>
       <use xlink:href="#DejaVuSans-36" x="95.410156"/>
      </g>
     </g>
    </g>
    <g id="xtick_11">
     <g id="line2d_20">
      <g>
       <use xlink:href="#m37bfe0fa84" x="686.197927" y="612" style="stroke: #000000; stroke-width: 0.8"/>
      </g>
     </g>
     <g id="text_25">
      <!-- 0.8 -->
      <g transform="translate(678.246364 626.598438) scale(0.1 -0.1)">
       <use xlink:href="#DejaVuSans-30"/>
       <use xlink:href="#DejaVuSans-2e" x="63.623047"/>
       <use xlink:href="#DejaVuSans-38" x="95.410156"/>
      </g>
     </g>
    </g>
    <g id="xtick_12">
     <g id="line2d_21">
      <g>
       <use xlink:href="#m37bfe0fa84" x="827.535104" y="612" style="stroke: #000000; stroke-width: 0.8"/>
      </g>
     </g>
     <g id="text_26">
      <!-- 1.0 -->
      <g transform="translate(819.583541 626.598438) scale(0.1 -0.1)">
       <use xlink:href="#DejaVuSans-31"/>
       <use xlink:href="#DejaVuSans-2e" x="63.623047"/>
       <use xlink:href="#DejaVuSans-30" x="95.410156"/>
      </g>
     </g>
    </g>
   </g>
   <g id="matplotlib.axis_4">
    <g id="ytick_10">
     <g id="line2d_22">
      <g>
       <use xlink:href="#m2b96294b0c" x="43.78125" y="612" style="stroke: #000000; stroke-width: 0.8"/>
      </g>
     </g>
     <g id="text_27">
      <!-- 0.0 -->
      <g transform="translate(20.878125 615.799219) scale(0.1 -0.1)">
       <use xlink:href="#DejaVuSans-30"/>
       <use xlink:href="#DejaVuSans-2e" x="63.623047"/>
       <use xlink:href="#DejaVuSans-30" x="95.410156"/>
      </g>
     </g>
    </g>
    <g id="ytick_11">
     <g id="line2d_23">
      <g>
       <use xlink:href="#m2b96294b0c" x="43.78125" y="582.21158" style="stroke: #000000; stroke-width: 0.8"/>
      </g>
     </g>
     <g id="text_28">
      <!-- 0.5 -->
      <g transform="translate(20.878125 586.010798) scale(0.1 -0.1)">
       <use xlink:href="#DejaVuSans-30"/>
       <use xlink:href="#DejaVuSans-2e" x="63.623047"/>
       <use xlink:href="#DejaVuSans-35" x="95.410156"/>
      </g>
     </g>
    </g>
    <g id="ytick_12">
     <g id="line2d_24">
      <g>
       <use xlink:href="#m2b96294b0c" x="43.78125" y="552.423159" style="stroke: #000000; stroke-width: 0.8"/>
      </g>
     </g>
     <g id="text_29">
      <!-- 1.0 -->
      <g transform="translate(20.878125 556.222378) scale(0.1 -0.1)">
       <use xlink:href="#DejaVuSans-31"/>
       <use xlink:href="#DejaVuSans-2e" x="63.623047"/>
       <use xlink:href="#DejaVuSans-30" x="95.410156"/>
      </g>
     </g>
    </g>
    <g id="ytick_13">
     <g id="line2d_25">
      <g>
       <use xlink:href="#m2b96294b0c" x="43.78125" y="522.634739" style="stroke: #000000; stroke-width: 0.8"/>
      </g>
     </g>
     <g id="text_30">
      <!-- 1.5 -->
      <g transform="translate(20.878125 526.433958) scale(0.1 -0.1)">
       <use xlink:href="#DejaVuSans-31"/>
       <use xlink:href="#DejaVuSans-2e" x="63.623047"/>
       <use xlink:href="#DejaVuSans-35" x="95.410156"/>
      </g>
     </g>
    </g>
    <g id="ytick_14">
     <g id="line2d_26">
      <g>
       <use xlink:href="#m2b96294b0c" x="43.78125" y="492.846319" style="stroke: #000000; stroke-width: 0.8"/>
      </g>
     </g>
     <g id="text_31">
      <!-- 2.0 -->
      <g transform="translate(20.878125 496.645538) scale(0.1 -0.1)">
       <use xlink:href="#DejaVuSans-32"/>
       <use xlink:href="#DejaVuSans-2e" x="63.623047"/>
       <use xlink:href="#DejaVuSans-30" x="95.410156"/>
      </g>
     </g>
    </g>
    <g id="ytick_15">
     <g id="line2d_27">
      <g>
       <use xlink:href="#m2b96294b0c" x="43.78125" y="463.057899" style="stroke: #000000; stroke-width: 0.8"/>
      </g>
     </g>
     <g id="text_32">
      <!-- 2.5 -->
      <g transform="translate(20.878125 466.857117) scale(0.1 -0.1)">
       <use xlink:href="#DejaVuSans-32"/>
       <use xlink:href="#DejaVuSans-2e" x="63.623047"/>
       <use xlink:href="#DejaVuSans-35" x="95.410156"/>
      </g>
     </g>
    </g>
    <g id="ytick_16">
     <g id="line2d_28">
      <g>
       <use xlink:href="#m2b96294b0c" x="43.78125" y="433.269478" style="stroke: #000000; stroke-width: 0.8"/>
      </g>
     </g>
     <g id="text_33">
      <!-- 3.0 -->
      <g transform="translate(20.878125 437.068697) scale(0.1 -0.1)">
       <use xlink:href="#DejaVuSans-33"/>
       <use xlink:href="#DejaVuSans-2e" x="63.623047"/>
       <use xlink:href="#DejaVuSans-30" x="95.410156"/>
      </g>
     </g>
    </g>
    <g id="ytick_17">
     <g id="line2d_29">
      <g>
       <use xlink:href="#m2b96294b0c" x="43.78125" y="403.481058" style="stroke: #000000; stroke-width: 0.8"/>
      </g>
     </g>
     <g id="text_34">
      <!-- 3.5 -->
      <g transform="translate(20.878125 407.280277) scale(0.1 -0.1)">
       <use xlink:href="#DejaVuSans-33"/>
       <use xlink:href="#DejaVuSans-2e" x="63.623047"/>
       <use xlink:href="#DejaVuSans-35" x="95.410156"/>
      </g>
     </g>
    </g>
    <g id="ytick_18">
     <g id="line2d_30">
      <g>
       <use xlink:href="#m2b96294b0c" x="43.78125" y="373.692638" style="stroke: #000000; stroke-width: 0.8"/>
      </g>
     </g>
     <g id="text_35">
      <!-- 4.0 -->
      <g transform="translate(20.878125 377.491857) scale(0.1 -0.1)">
       <use xlink:href="#DejaVuSans-34"/>
       <use xlink:href="#DejaVuSans-2e" x="63.623047"/>
       <use xlink:href="#DejaVuSans-30" x="95.410156"/>
      </g>
     </g>
    </g>
    <g id="text_36">
     <!-- Density -->
     <g transform="translate(14.798438 510.486855) rotate(-90) scale(0.1 -0.1)">
      <use xlink:href="#DejaVuSans-44"/>
      <use xlink:href="#DejaVuSans-65" x="77.001953"/>
      <use xlink:href="#DejaVuSans-6e" x="138.525391"/>
      <use xlink:href="#DejaVuSans-73" x="201.904297"/>
      <use xlink:href="#DejaVuSans-69" x="254.003906"/>
      <use xlink:href="#DejaVuSans-74" x="281.787109"/>
      <use xlink:href="#DejaVuSans-79" x="320.996094"/>
     </g>
    </g>
   </g>
   <g id="patch_11">
    <path d="M 43.78125 612 
L 43.78125 370.956522 
" style="fill: none; stroke: #000000; stroke-width: 0.8; stroke-linejoin: miter; stroke-linecap: square"/>
   </g>
   <g id="patch_12">
    <path d="M 880.78125 612 
L 880.78125 370.956522 
" style="fill: none; stroke: #000000; stroke-width: 0.8; stroke-linejoin: miter; stroke-linecap: square"/>
   </g>
   <g id="patch_13">
    <path d="M 43.78125 612 
L 880.78125 612 
" style="fill: none; stroke: #000000; stroke-width: 0.8; stroke-linejoin: miter; stroke-linecap: square"/>
   </g>
   <g id="patch_14">
    <path d="M 43.78125 370.956522 
L 880.78125 370.956522 
" style="fill: none; stroke: #000000; stroke-width: 0.8; stroke-linejoin: miter; stroke-linecap: square"/>
   </g>
   <g id="text_37">
    <!-- Spearman correlation coefficients -->
    <g transform="translate(361.111875 364.956522) scale(0.12 -0.12)">
     <defs>
      <path id="DejaVuSans-53" d="M 3425 4513 
L 3425 3897 
Q 3066 4069 2747 4153 
Q 2428 4238 2131 4238 
Q 1616 4238 1336 4038 
Q 1056 3838 1056 3469 
Q 1056 3159 1242 3001 
Q 1428 2844 1947 2747 
L 2328 2669 
Q 3034 2534 3370 2195 
Q 3706 1856 3706 1288 
Q 3706 609 3251 259 
Q 2797 -91 1919 -91 
Q 1588 -91 1214 -16 
Q 841 59 441 206 
L 441 856 
Q 825 641 1194 531 
Q 1563 422 1919 422 
Q 2459 422 2753 634 
Q 3047 847 3047 1241 
Q 3047 1584 2836 1778 
Q 2625 1972 2144 2069 
L 1759 2144 
Q 1053 2284 737 2584 
Q 422 2884 422 3419 
Q 422 4038 858 4394 
Q 1294 4750 2059 4750 
Q 2388 4750 2728 4690 
Q 3069 4631 3425 4513 
z
" transform="scale(0.015625)"/>
      <path id="DejaVuSans-6d" d="M 3328 2828 
Q 3544 3216 3844 3400 
Q 4144 3584 4550 3584 
Q 5097 3584 5394 3201 
Q 5691 2819 5691 2113 
L 5691 0 
L 5113 0 
L 5113 2094 
Q 5113 2597 4934 2840 
Q 4756 3084 4391 3084 
Q 3944 3084 3684 2787 
Q 3425 2491 3425 1978 
L 3425 0 
L 2847 0 
L 2847 2094 
Q 2847 2600 2669 2842 
Q 2491 3084 2119 3084 
Q 1678 3084 1418 2786 
Q 1159 2488 1159 1978 
L 1159 0 
L 581 0 
L 581 3500 
L 1159 3500 
L 1159 2956 
Q 1356 3278 1631 3431 
Q 1906 3584 2284 3584 
Q 2666 3584 2933 3390 
Q 3200 3197 3328 2828 
z
" transform="scale(0.015625)"/>
     </defs>
     <use xlink:href="#DejaVuSans-53"/>
     <use xlink:href="#DejaVuSans-70" x="63.476562"/>
     <use xlink:href="#DejaVuSans-65" x="126.953125"/>
     <use xlink:href="#DejaVuSans-61" x="188.476562"/>
     <use xlink:href="#DejaVuSans-72" x="249.755859"/>
     <use xlink:href="#DejaVuSans-6d" x="289.119141"/>
     <use xlink:href="#DejaVuSans-61" x="386.53125"/>
     <use xlink:href="#DejaVuSans-6e" x="447.810547"/>
     <use xlink:href="#DejaVuSans-20" x="511.189453"/>
     <use xlink:href="#DejaVuSans-63" x="542.976562"/>
     <use xlink:href="#DejaVuSans-6f" x="597.957031"/>
     <use xlink:href="#DejaVuSans-72" x="659.138672"/>
     <use xlink:href="#DejaVuSans-72" x="698.501953"/>
     <use xlink:href="#DejaVuSans-65" x="737.365234"/>
     <use xlink:href="#DejaVuSans-6c" x="798.888672"/>
     <use xlink:href="#DejaVuSans-61" x="826.671875"/>
     <use xlink:href="#DejaVuSans-74" x="887.951172"/>
     <use xlink:href="#DejaVuSans-69" x="927.160156"/>
     <use xlink:href="#DejaVuSans-6f" x="954.943359"/>
     <use xlink:href="#DejaVuSans-6e" x="1016.125"/>
     <use xlink:href="#DejaVuSans-20" x="1079.503906"/>
     <use xlink:href="#DejaVuSans-63" x="1111.291016"/>
     <use xlink:href="#DejaVuSans-6f" x="1166.271484"/>
     <use xlink:href="#DejaVuSans-65" x="1227.453125"/>
     <use xlink:href="#DejaVuSans-66" x="1288.976562"/>
     <use xlink:href="#DejaVuSans-66" x="1324.181641"/>
     <use xlink:href="#DejaVuSans-69" x="1359.386719"/>
     <use xlink:href="#DejaVuSans-63" x="1387.169922"/>
     <use xlink:href="#DejaVuSans-69" x="1442.150391"/>
     <use xlink:href="#DejaVuSans-65" x="1469.933594"/>
     <use xlink:href="#DejaVuSans-6e" x="1531.457031"/>
     <use xlink:href="#DejaVuSans-74" x="1594.835938"/>
     <use xlink:href="#DejaVuSans-73" x="1634.044922"/>
    </g>
   </g>
   <g id="legend_2">
    <g id="patch_15">
     <path d="M 50.78125 422.990897 
L 138.80625 422.990897 
Q 140.80625 422.990897 140.80625 420.990897 
L 140.80625 377.956522 
Q 140.80625 375.956522 138.80625 375.956522 
L 50.78125 375.956522 
Q 48.78125 375.956522 48.78125 377.956522 
L 48.78125 420.990897 
Q 48.78125 422.990897 50.78125 422.990897 
z
" style="fill: #ffffff; opacity: 0.8; stroke: #cccccc; stroke-linejoin: miter"/>
    </g>
    <g id="text_38">
     <!-- Correlation type: -->
     <g transform="translate(52.78125 387.554959) scale(0.1 -0.1)">
      <use xlink:href="#DejaVuSans-43"/>
      <use xlink:href="#DejaVuSans-6f" x="69.824219"/>
      <use xlink:href="#DejaVuSans-72" x="131.005859"/>
      <use xlink:href="#DejaVuSans-72" x="170.369141"/>
      <use xlink:href="#DejaVuSans-65" x="209.232422"/>
      <use xlink:href="#DejaVuSans-6c" x="270.755859"/>
      <use xlink:href="#DejaVuSans-61" x="298.539062"/>
      <use xlink:href="#DejaVuSans-74" x="359.818359"/>
      <use xlink:href="#DejaVuSans-69" x="399.027344"/>
      <use xlink:href="#DejaVuSans-6f" x="426.810547"/>
      <use xlink:href="#DejaVuSans-6e" x="487.992188"/>
      <use xlink:href="#DejaVuSans-20" x="551.371094"/>
      <use xlink:href="#DejaVuSans-74" x="583.158203"/>
      <use xlink:href="#DejaVuSans-79" x="622.367188"/>
      <use xlink:href="#DejaVuSans-70" x="681.546875"/>
      <use xlink:href="#DejaVuSans-65" x="745.023438"/>
      <use xlink:href="#DejaVuSans-3a" x="806.546875"/>
     </g>
    </g>
    <g id="patch_16">
     <path d="M 53.285156 402.233084 
L 73.285156 402.233084 
L 73.285156 395.233084 
L 53.285156 395.233084 
z
" style="fill: #1f77b4; fill-opacity: 0.5; stroke: #1f77b4; stroke-width: 2.5; stroke-linejoin: miter"/>
    </g>
    <g id="text_39">
     <!-- Codon -->
     <g transform="translate(81.285156 402.233084) scale(0.1 -0.1)">
      <use xlink:href="#DejaVuSans-43"/>
      <use xlink:href="#DejaVuSans-6f" x="69.824219"/>
      <use xlink:href="#DejaVuSans-64" x="131.005859"/>
      <use xlink:href="#DejaVuSans-6f" x="194.482422"/>
      <use xlink:href="#DejaVuSans-6e" x="255.664062"/>
     </g>
    </g>
    <g id="patch_17">
     <path d="M 53.285156 416.911209 
L 73.285156 416.911209 
L 73.285156 409.911209 
L 53.285156 409.911209 
z
" style="fill: #ff7f0e; fill-opacity: 0.5; stroke: #ff7f0e; stroke-width: 2.5; stroke-linejoin: miter"/>
    </g>
    <g id="text_40">
     <!-- Codon+GC -->
     <g transform="translate(81.285156 416.911209) scale(0.1 -0.1)">
      <use xlink:href="#DejaVuSans-43"/>
      <use xlink:href="#DejaVuSans-6f" x="69.824219"/>
      <use xlink:href="#DejaVuSans-64" x="131.005859"/>
      <use xlink:href="#DejaVuSans-6f" x="194.482422"/>
      <use xlink:href="#DejaVuSans-6e" x="255.664062"/>
      <use xlink:href="#DejaVuSans-2b" x="319.042969"/>
      <use xlink:href="#DejaVuSans-47" x="402.832031"/>
      <use xlink:href="#DejaVuSans-43" x="480.322266"/>
     </g>
    </g>
   </g>
  </g>
  <g id="text_41">
   <!-- Eukaryota - Density of correlation coefficients for genetic code: Thraustochytrium mitochondrial -->
   <g transform="translate(87.945703 18.597656) scale(0.15 -0.15)">
    <defs>
     <path id="DejaVuSans-45" d="M 628 4666 
L 3578 4666 
L 3578 4134 
L 1259 4134 
L 1259 2753 
L 3481 2753 
L 3481 2222 
L 1259 2222 
L 1259 531 
L 3634 531 
L 3634 0 
L 628 0 
L 628 4666 
z
" transform="scale(0.015625)"/>
     <path id="DejaVuSans-75" d="M 544 1381 
L 544 3500 
L 1119 3500 
L 1119 1403 
Q 1119 906 1312 657 
Q 1506 409 1894 409 
Q 2359 409 2629 706 
Q 2900 1003 2900 1516 
L 2900 3500 
L 3475 3500 
L 3475 0 
L 2900 0 
L 2900 538 
Q 2691 219 2414 64 
Q 2138 -91 1772 -91 
Q 1169 -91 856 284 
Q 544 659 544 1381 
z
M 1991 3584 
L 1991 3584 
z
" transform="scale(0.015625)"/>
     <path id="DejaVuSans-6b" d="M 581 4863 
L 1159 4863 
L 1159 1991 
L 2875 3500 
L 3609 3500 
L 1753 1863 
L 3688 0 
L 2938 0 
L 1159 1709 
L 1159 0 
L 581 0 
L 581 4863 
z
" transform="scale(0.015625)"/>
     <path id="DejaVuSans-2d" d="M 313 2009 
L 1997 2009 
L 1997 1497 
L 313 1497 
L 313 2009 
z
" transform="scale(0.015625)"/>
     <path id="DejaVuSans-67" d="M 2906 1791 
Q 2906 2416 2648 2759 
Q 2391 3103 1925 3103 
Q 1463 3103 1205 2759 
Q 947 2416 947 1791 
Q 947 1169 1205 825 
Q 1463 481 1925 481 
Q 2391 481 2648 825 
Q 2906 1169 2906 1791 
z
M 3481 434 
Q 3481 -459 3084 -895 
Q 2688 -1331 1869 -1331 
Q 1566 -1331 1297 -1286 
Q 1028 -1241 775 -1147 
L 775 -588 
Q 1028 -725 1275 -790 
Q 1522 -856 1778 -856 
Q 2344 -856 2625 -561 
Q 2906 -266 2906 331 
L 2906 616 
Q 2728 306 2450 153 
Q 2172 0 1784 0 
Q 1141 0 747 490 
Q 353 981 353 1791 
Q 353 2603 747 3093 
Q 1141 3584 1784 3584 
Q 2172 3584 2450 3431 
Q 2728 3278 2906 2969 
L 2906 3500 
L 3481 3500 
L 3481 434 
z
" transform="scale(0.015625)"/>
     <path id="DejaVuSans-54" d="M -19 4666 
L 3928 4666 
L 3928 4134 
L 2272 4134 
L 2272 0 
L 1638 0 
L 1638 4134 
L -19 4134 
L -19 4666 
z
" transform="scale(0.015625)"/>
     <path id="DejaVuSans-68" d="M 3513 2113 
L 3513 0 
L 2938 0 
L 2938 2094 
Q 2938 2591 2744 2837 
Q 2550 3084 2163 3084 
Q 1697 3084 1428 2787 
Q 1159 2491 1159 1978 
L 1159 0 
L 581 0 
L 581 4863 
L 1159 4863 
L 1159 2956 
Q 1366 3272 1645 3428 
Q 1925 3584 2291 3584 
Q 2894 3584 3203 3211 
Q 3513 2838 3513 2113 
z
" transform="scale(0.015625)"/>
    </defs>
    <use xlink:href="#DejaVuSans-45"/>
    <use xlink:href="#DejaVuSans-75" x="63.183594"/>
    <use xlink:href="#DejaVuSans-6b" x="126.5625"/>
    <use xlink:href="#DejaVuSans-61" x="182.722656"/>
    <use xlink:href="#DejaVuSans-72" x="244.001953"/>
    <use xlink:href="#DejaVuSans-79" x="285.115234"/>
    <use xlink:href="#DejaVuSans-6f" x="344.294922"/>
    <use xlink:href="#DejaVuSans-74" x="405.476562"/>
    <use xlink:href="#DejaVuSans-61" x="444.685547"/>
    <use xlink:href="#DejaVuSans-20" x="505.964844"/>
    <use xlink:href="#DejaVuSans-2d" x="537.751953"/>
    <use xlink:href="#DejaVuSans-20" x="573.835938"/>
    <use xlink:href="#DejaVuSans-44" x="605.623047"/>
    <use xlink:href="#DejaVuSans-65" x="682.625"/>
    <use xlink:href="#DejaVuSans-6e" x="744.148438"/>
    <use xlink:href="#DejaVuSans-73" x="807.527344"/>
    <use xlink:href="#DejaVuSans-69" x="859.626953"/>
    <use xlink:href="#DejaVuSans-74" x="887.410156"/>
    <use xlink:href="#DejaVuSans-79" x="926.619141"/>
    <use xlink:href="#DejaVuSans-20" x="985.798828"/>
    <use xlink:href="#DejaVuSans-6f" x="1017.585938"/>
    <use xlink:href="#DejaVuSans-66" x="1078.767578"/>
    <use xlink:href="#DejaVuSans-20" x="1113.972656"/>
    <use xlink:href="#DejaVuSans-63" x="1145.759766"/>
    <use xlink:href="#DejaVuSans-6f" x="1200.740234"/>
    <use xlink:href="#DejaVuSans-72" x="1261.921875"/>
    <use xlink:href="#DejaVuSans-72" x="1301.285156"/>
    <use xlink:href="#DejaVuSans-65" x="1340.148438"/>
    <use xlink:href="#DejaVuSans-6c" x="1401.671875"/>
    <use xlink:href="#DejaVuSans-61" x="1429.455078"/>
    <use xlink:href="#DejaVuSans-74" x="1490.734375"/>
    <use xlink:href="#DejaVuSans-69" x="1529.943359"/>
    <use xlink:href="#DejaVuSans-6f" x="1557.726562"/>
    <use xlink:href="#DejaVuSans-6e" x="1618.908203"/>
    <use xlink:href="#DejaVuSans-20" x="1682.287109"/>
    <use xlink:href="#DejaVuSans-63" x="1714.074219"/>
    <use xlink:href="#DejaVuSans-6f" x="1769.054688"/>
    <use xlink:href="#DejaVuSans-65" x="1830.236328"/>
    <use xlink:href="#DejaVuSans-66" x="1891.759766"/>
    <use xlink:href="#DejaVuSans-66" x="1926.964844"/>
    <use xlink:href="#DejaVuSans-69" x="1962.169922"/>
    <use xlink:href="#DejaVuSans-63" x="1989.953125"/>
    <use xlink:href="#DejaVuSans-69" x="2044.933594"/>
    <use xlink:href="#DejaVuSans-65" x="2072.716797"/>
    <use xlink:href="#DejaVuSans-6e" x="2134.240234"/>
    <use xlink:href="#DejaVuSans-74" x="2197.619141"/>
    <use xlink:href="#DejaVuSans-73" x="2236.828125"/>
    <use xlink:href="#DejaVuSans-20" x="2288.927734"/>
    <use xlink:href="#DejaVuSans-66" x="2320.714844"/>
    <use xlink:href="#DejaVuSans-6f" x="2355.919922"/>
    <use xlink:href="#DejaVuSans-72" x="2417.101562"/>
    <use xlink:href="#DejaVuSans-20" x="2458.214844"/>
    <use xlink:href="#DejaVuSans-67" x="2490.001953"/>
    <use xlink:href="#DejaVuSans-65" x="2553.478516"/>
    <use xlink:href="#DejaVuSans-6e" x="2615.001953"/>
    <use xlink:href="#DejaVuSans-65" x="2678.380859"/>
    <use xlink:href="#DejaVuSans-74" x="2739.904297"/>
    <use xlink:href="#DejaVuSans-69" x="2779.113281"/>
    <use xlink:href="#DejaVuSans-63" x="2806.896484"/>
    <use xlink:href="#DejaVuSans-20" x="2861.876953"/>
    <use xlink:href="#DejaVuSans-63" x="2893.664062"/>
    <use xlink:href="#DejaVuSans-6f" x="2948.644531"/>
    <use xlink:href="#DejaVuSans-64" x="3009.826172"/>
    <use xlink:href="#DejaVuSans-65" x="3073.302734"/>
    <use xlink:href="#DejaVuSans-3a" x="3134.826172"/>
    <use xlink:href="#DejaVuSans-20" x="3168.517578"/>
    <use xlink:href="#DejaVuSans-54" x="3200.304688"/>
    <use xlink:href="#DejaVuSans-68" x="3261.388672"/>
    <use xlink:href="#DejaVuSans-72" x="3324.767578"/>
    <use xlink:href="#DejaVuSans-61" x="3365.880859"/>
    <use xlink:href="#DejaVuSans-75" x="3427.160156"/>
    <use xlink:href="#DejaVuSans-73" x="3490.539062"/>
    <use xlink:href="#DejaVuSans-74" x="3542.638672"/>
    <use xlink:href="#DejaVuSans-6f" x="3581.847656"/>
    <use xlink:href="#DejaVuSans-63" x="3643.029297"/>
    <use xlink:href="#DejaVuSans-68" x="3698.009766"/>
    <use xlink:href="#DejaVuSans-79" x="3761.388672"/>
    <use xlink:href="#DejaVuSans-74" x="3820.568359"/>
    <use xlink:href="#DejaVuSans-72" x="3859.777344"/>
    <use xlink:href="#DejaVuSans-69" x="3900.890625"/>
    <use xlink:href="#DejaVuSans-75" x="3928.673828"/>
    <use xlink:href="#DejaVuSans-6d" x="3992.052734"/>
    <use xlink:href="#DejaVuSans-20" x="4089.464844"/>
    <use xlink:href="#DejaVuSans-6d" x="4121.251953"/>
    <use xlink:href="#DejaVuSans-69" x="4218.664062"/>
    <use xlink:href="#DejaVuSans-74" x="4246.447266"/>
    <use xlink:href="#DejaVuSans-6f" x="4285.65625"/>
    <use xlink:href="#DejaVuSans-63" x="4346.837891"/>
    <use xlink:href="#DejaVuSans-68" x="4401.818359"/>
    <use xlink:href="#DejaVuSans-6f" x="4465.197266"/>
    <use xlink:href="#DejaVuSans-6e" x="4526.378906"/>
    <use xlink:href="#DejaVuSans-64" x="4589.757812"/>
    <use xlink:href="#DejaVuSans-72" x="4653.234375"/>
    <use xlink:href="#DejaVuSans-69" x="4694.347656"/>
    <use xlink:href="#DejaVuSans-61" x="4722.130859"/>
    <use xlink:href="#DejaVuSans-6c" x="4783.410156"/>
   </g>
  </g>
 </g>
 <defs>
  <clipPath id="p3fab18216b">
   <rect x="43.78125" y="57.6" width="837" height="241.043478"/>
  </clipPath>
  <clipPath id="p3ffc56c997">
   <rect x="43.78125" y="370.956522" width="837" height="241.043478"/>
  </clipPath>
 </defs>
</svg>
