<?xml version="1.0" encoding="utf-8" standalone="no"?>
<!DOCTYPE svg PUBLIC "-//W3C//DTD SVG 1.1//EN"
  "http://www.w3.org/Graphics/SVG/1.1/DTD/svg11.dtd">
<svg xmlns:xlink="http://www.w3.org/1999/xlink" width="887.98125pt" height="635.878125pt" viewBox="0 0 887.98125 635.878125" xmlns="http://www.w3.org/2000/svg" version="1.1">
 <metadata>
  <rdf:RDF xmlns:dc="http://purl.org/dc/elements/1.1/" xmlns:cc="http://creativecommons.org/ns#" xmlns:rdf="http://www.w3.org/1999/02/22-rdf-syntax-ns#">
   <cc:Work>
    <dc:type rdf:resource="http://purl.org/dc/dcmitype/StillImage"/>
    <dc:date>2024-09-25T14:42:57.668115</dc:date>
    <dc:format>image/svg+xml</dc:format>
    <dc:creator>
     <cc:Agent>
      <dc:title>Matplotlib v3.8.3, https://matplotlib.org/</dc:title>
     </cc:Agent>
    </dc:creator>
   </cc:Work>
  </rdf:RDF>
 </metadata>
 <defs>
  <style type="text/css">*{stroke-linejoin: round; stroke-linecap: butt}</style>
 </defs>
 <g id="figure_1">
  <g id="patch_1">
   <path d="M 0 635.878125 
L 887.98125 635.878125 
L 887.98125 0 
L 0 0 
z
" style="fill: #ffffff"/>
  </g>
  <g id="axes_1">
   <g id="patch_2">
    <path d="M 43.78125 298.643478 
L 880.78125 298.643478 
L 880.78125 57.6 
L 43.78125 57.6 
z
" style="fill: #ffffff"/>
   </g>
   <g id="PolyCollection_1">
    <defs>
     <path id="mcd85bbaa57" d="M 110.224521 -337.254932 
L 110.224521 -337.234647 
L 113.902715 -337.234647 
L 117.580909 -337.234647 
L 121.259103 -337.234647 
L 124.937298 -337.234647 
L 128.615492 -337.234647 
L 132.293686 -337.234647 
L 135.97188 -337.234647 
L 139.650075 -337.234647 
L 143.328269 -337.234647 
L 147.006463 -337.234647 
L 150.684657 -337.234647 
L 154.362851 -337.234647 
L 158.041046 -337.234647 
L 161.71924 -337.234647 
L 165.397434 -337.234647 
L 169.075628 -337.234647 
L 172.753823 -337.234647 
L 176.432017 -337.234647 
L 180.110211 -337.234647 
L 183.788405 -337.234647 
L 187.4666 -337.234647 
L 191.144794 -337.234647 
L 194.822988 -337.234647 
L 198.501182 -337.234647 
L 202.179377 -337.234647 
L 205.857571 -337.234647 
L 209.535765 -337.234647 
L 213.213959 -337.234647 
L 216.892154 -337.234647 
L 220.570348 -337.234647 
L 224.248542 -337.234647 
L 227.926736 -337.234647 
L 231.604931 -337.234647 
L 235.283125 -337.234647 
L 238.961319 -337.234647 
L 242.639513 -337.234647 
L 246.317708 -337.234647 
L 249.995902 -337.234647 
L 253.674096 -337.234647 
L 257.35229 -337.234647 
L 261.030485 -337.234647 
L 264.708679 -337.234647 
L 268.386873 -337.234647 
L 272.065067 -337.234647 
L 275.743262 -337.234647 
L 279.421456 -337.234647 
L 283.09965 -337.234647 
L 286.777844 -337.234647 
L 290.456038 -337.234647 
L 294.134233 -337.234647 
L 297.812427 -337.234647 
L 301.490621 -337.234647 
L 305.168815 -337.234647 
L 308.84701 -337.234647 
L 312.525204 -337.234647 
L 316.203398 -337.234647 
L 319.881592 -337.234647 
L 323.559787 -337.234647 
L 327.237981 -337.234647 
L 330.916175 -337.234647 
L 334.594369 -337.234647 
L 338.272564 -337.234647 
L 341.950758 -337.234647 
L 345.628952 -337.234647 
L 349.307146 -337.234647 
L 352.985341 -337.234647 
L 356.663535 -337.234647 
L 360.341729 -337.234647 
L 364.019923 -337.234647 
L 367.698118 -337.234647 
L 371.376312 -337.234647 
L 375.054506 -337.234647 
L 378.7327 -337.234647 
L 382.410895 -337.234647 
L 386.089089 -337.234647 
L 389.767283 -337.234647 
L 393.445477 -337.234647 
L 397.123672 -337.234647 
L 400.801866 -337.234647 
L 404.48006 -337.234647 
L 408.158254 -337.234647 
L 411.836448 -337.234647 
L 415.514643 -337.234647 
L 419.192837 -337.234647 
L 422.871031 -337.234647 
L 426.549225 -337.234647 
L 430.22742 -337.234647 
L 433.905614 -337.234647 
L 437.583808 -337.234647 
L 441.262002 -337.234647 
L 444.940197 -337.234647 
L 448.618391 -337.234647 
L 452.296585 -337.234647 
L 455.974779 -337.234647 
L 459.652974 -337.234647 
L 463.331168 -337.234647 
L 467.009362 -337.234647 
L 470.687556 -337.234647 
L 474.365751 -337.234647 
L 478.043945 -337.234647 
L 481.722139 -337.234647 
L 485.400333 -337.234647 
L 489.078528 -337.234647 
L 492.756722 -337.234647 
L 496.434916 -337.234647 
L 500.11311 -337.234647 
L 503.791305 -337.234647 
L 507.469499 -337.234647 
L 511.147693 -337.234647 
L 514.825887 -337.234647 
L 518.504082 -337.234647 
L 522.182276 -337.234647 
L 525.86047 -337.234647 
L 529.538664 -337.234647 
L 533.216859 -337.234647 
L 536.895053 -337.234647 
L 540.573247 -337.234647 
L 544.251441 -337.234647 
L 547.929635 -337.234647 
L 551.60783 -337.234647 
L 555.286024 -337.234647 
L 558.964218 -337.234647 
L 562.642412 -337.234647 
L 566.320607 -337.234647 
L 569.998801 -337.234647 
L 573.676995 -337.234647 
L 577.355189 -337.234647 
L 581.033384 -337.234647 
L 584.711578 -337.234647 
L 588.389772 -337.234647 
L 592.067966 -337.234647 
L 595.746161 -337.234647 
L 599.424355 -337.234647 
L 603.102549 -337.234647 
L 606.780743 -337.234647 
L 610.458938 -337.234647 
L 614.137132 -337.234647 
L 617.815326 -337.234647 
L 621.49352 -337.234647 
L 625.171715 -337.234647 
L 628.849909 -337.234647 
L 632.528103 -337.234647 
L 636.206297 -337.234647 
L 639.884492 -337.234647 
L 643.562686 -337.234647 
L 647.24088 -337.234647 
L 650.919074 -337.234647 
L 654.597269 -337.234647 
L 658.275463 -337.234647 
L 661.953657 -337.234647 
L 665.631851 -337.234647 
L 669.310046 -337.234647 
L 672.98824 -337.234647 
L 676.666434 -337.234647 
L 680.344628 -337.234647 
L 684.022822 -337.234647 
L 687.701017 -337.234647 
L 691.379211 -337.234647 
L 695.057405 -337.234647 
L 698.735599 -337.234647 
L 702.413794 -337.234647 
L 706.091988 -337.234647 
L 709.770182 -337.234647 
L 713.448376 -337.234647 
L 717.126571 -337.234647 
L 720.804765 -337.234647 
L 724.482959 -337.234647 
L 728.161153 -337.234647 
L 731.839348 -337.234647 
L 735.517542 -337.234647 
L 739.195736 -337.234647 
L 742.87393 -337.234647 
L 746.552125 -337.234647 
L 750.230319 -337.234647 
L 753.908513 -337.234647 
L 757.586707 -337.234647 
L 761.264902 -337.234647 
L 764.943096 -337.234647 
L 768.62129 -337.234647 
L 772.299484 -337.234647 
L 775.977679 -337.234647 
L 779.655873 -337.234647 
L 783.334067 -337.234647 
L 787.012261 -337.234647 
L 790.690456 -337.234647 
L 794.36865 -337.234647 
L 798.046844 -337.234647 
L 801.725038 -337.234647 
L 805.403232 -337.234647 
L 809.081427 -337.234647 
L 812.759621 -337.234647 
L 816.437815 -337.234647 
L 820.116009 -337.234647 
L 823.794204 -337.234647 
L 827.472398 -337.234647 
L 831.150592 -337.234647 
L 834.828786 -337.234647 
L 838.506981 -337.234647 
L 842.185175 -337.234647 
L 842.185175 -337.264901 
L 842.185175 -337.264901 
L 838.506981 -337.280507 
L 834.828786 -337.303138 
L 831.150592 -337.335451 
L 827.472398 -337.380882 
L 823.794204 -337.443798 
L 820.116009 -337.529645 
L 816.437815 -337.645088 
L 812.759621 -337.798151 
L 809.081427 -337.99832 
L 805.403232 -338.256646 
L 801.725038 -338.585803 
L 798.046844 -339.00015 
L 794.36865 -339.515768 
L 790.690456 -340.15051 
L 787.012261 -340.924059 
L 783.334067 -341.858023 
L 779.655873 -342.976049 
L 775.977679 -344.303976 
L 772.299484 -345.86998 
L 768.62129 -347.704704 
L 764.943096 -349.841291 
L 761.264902 -352.315282 
L 757.586707 -355.164292 
L 753.908513 -358.427403 
L 750.230319 -362.144211 
L 746.552125 -366.353516 
L 742.87393 -371.091634 
L 739.195736 -376.390393 
L 735.517542 -382.274892 
L 731.839348 -388.761152 
L 728.161153 -395.853821 
L 724.482959 -403.544088 
L 720.804765 -411.808015 
L 717.126571 -420.605406 
L 713.448376 -429.879389 
L 709.770182 -439.556746 
L 706.091988 -449.549071 
L 702.413794 -459.754695 
L 698.735599 -470.061329 
L 695.057405 -480.349277 
L 691.379211 -490.495069 
L 687.701017 -500.375307 
L 684.022822 -509.870516 
L 680.344628 -518.868782 
L 676.666434 -527.268964 
L 672.98824 -534.983316 
L 669.310046 -541.939367 
L 665.631851 -548.080987 
L 661.953657 -553.368637 
L 658.275463 -557.778845 
L 654.597269 -561.303072 
L 650.919074 -563.946132 
L 647.24088 -565.72442 
L 643.562686 -566.664155 
L 639.884492 -566.799864 
L 636.206297 -566.173234 
L 632.528103 -564.832391 
L 628.849909 -562.831573 
L 625.171715 -560.231055 
L 621.49352 -557.097139 
L 617.815326 -553.501971 
L 614.137132 -549.522959 
L 610.458938 -545.241645 
L 606.780743 -540.741928 
L 603.102549 -536.107695 
L 599.424355 -531.41998 
L 595.746161 -526.753898 
L 592.067966 -522.175629 
L 588.389772 -517.739751 
L 584.711578 -513.487201 
L 581.033384 -509.444032 
L 577.355189 -505.621095 
L 573.676995 -502.014614 
L 569.998801 -498.607584 
L 566.320607 -495.371801 
L 562.642412 -492.270335 
L 558.964218 -489.260233 
L 555.286024 -486.295247 
L 551.60783 -483.32845 
L 547.929635 -480.31463 
L 544.251441 -477.212408 
L 540.573247 -473.986054 
L 536.895053 -470.606997 
L 533.216859 -467.055042 
L 529.538664 -463.319272 
L 525.86047 -459.398621 
L 522.182276 -455.302079 
L 518.504082 -451.048477 
L 514.825887 -446.665828 
L 511.147693 -442.190187 
L 507.469499 -437.664043 
L 503.791305 -433.134324 
L 500.11311 -428.650099 
L 496.434916 -424.260141 
L 492.756722 -420.01054 
L 489.078528 -415.942548 
L 485.400333 -412.090845 
L 481.722139 -408.482352 
L 478.043945 -405.135676 
L 474.365751 -402.061183 
L 470.687556 -399.261624 
L 467.009362 -396.733186 
L 463.331168 -394.46679 
L 459.652974 -392.449448 
L 455.974779 -390.665511 
L 452.296585 -389.097692 
L 448.618391 -387.727778 
L 444.940197 -386.537045 
L 441.262002 -385.506414 
L 437.583808 -384.61645 
L 433.905614 -383.847301 
L 430.22742 -383.178685 
L 426.549225 -382.59 
L 422.871031 -382.060588 
L 419.192837 -381.570151 
L 415.514643 -381.099264 
L 411.836448 -380.629926 
L 408.158254 -380.146051 
L 404.48006 -379.633832 
L 400.801866 -379.081907 
L 397.123672 -378.481334 
L 393.445477 -377.825342 
L 389.767283 -377.108951 
L 386.089089 -376.328493 
L 382.410895 -375.481143 
L 378.7327 -374.564535 
L 375.054506 -373.576533 
L 371.376312 -372.515191 
L 367.698118 -371.378929 
L 364.019923 -370.166887 
L 360.341729 -368.879409 
L 356.663535 -367.518578 
L 352.985341 -366.088726 
L 349.307146 -364.596826 
L 345.628952 -363.052705 
L 341.950758 -361.469034 
L 338.272564 -359.861078 
L 334.594369 -358.246218 
L 330.916175 -356.64329 
L 327.237981 -355.07178 
L 323.559787 -353.550966 
L 319.881592 -352.099051 
L 316.203398 -350.73236 
L 312.525204 -349.464644 
L 308.84701 -348.306534 
L 305.168815 -347.265161 
L 301.490621 -346.343957 
L 297.812427 -345.542633 
L 294.134233 -344.857346 
L 290.456038 -344.281023 
L 286.777844 -343.80384 
L 283.09965 -343.413845 
L 279.421456 -343.097663 
L 275.743262 -342.841289 
L 272.065067 -342.63088 
L 268.386873 -342.453522 
L 264.708679 -342.297898 
L 261.030485 -342.154807 
L 257.35229 -342.017488 
L 253.674096 -341.881722 
L 249.995902 -341.745695 
L 246.317708 -341.609647 
L 242.639513 -341.475338 
L 238.961319 -341.345401 
L 235.283125 -341.222646 
L 231.604931 -341.109405 
L 227.926736 -341.006989 
L 224.248542 -340.915315 
L 220.570348 -340.832753 
L 216.892154 -340.756195 
L 213.213959 -340.681337 
L 209.535765 -340.603126 
L 205.857571 -340.516318 
L 202.179377 -340.41606 
L 198.501182 -340.298436 
L 194.822988 -340.160902 
L 191.144794 -340.002558 
L 187.4666 -339.824244 
L 183.788405 -339.628447 
L 180.110211 -339.419043 
L 176.432017 -339.200918 
L 172.753823 -338.979522 
L 169.075628 -338.7604 
L 165.397434 -338.548767 
L 161.71924 -338.349152 
L 158.041046 -338.165151 
L 154.362851 -337.999288 
L 150.684657 -337.852995 
L 147.006463 -337.726675 
L 143.328269 -337.619845 
L 139.650075 -337.531323 
L 135.97188 -337.459427 
L 132.293686 -337.402175 
L 128.615492 -337.357462 
L 124.937298 -337.323207 
L 121.259103 -337.297457 
L 117.580909 -337.278462 
L 113.902715 -337.264708 
L 110.224521 -337.254932 
z
" style="stroke: #ff7f0e; stroke-width: 2.5"/>
    </defs>
    <g clip-path="url(#pebb9b3fc90)">
     <use xlink:href="#mcd85bbaa57" x="0" y="635.878125" style="fill: #ff7f0e; fill-opacity: 0.5; stroke: #ff7f0e; stroke-width: 2.5"/>
    </g>
   </g>
   <g id="PolyCollection_2">
    <defs>
     <path id="mcad1798684" d="M 83.80457 -337.248793 
L 83.80457 -337.234647 
L 87.618768 -337.234647 
L 91.432966 -337.234647 
L 95.247164 -337.234647 
L 99.061362 -337.234647 
L 102.87556 -337.234647 
L 106.689758 -337.234647 
L 110.503956 -337.234647 
L 114.318154 -337.234647 
L 118.132352 -337.234647 
L 121.94655 -337.234647 
L 125.760748 -337.234647 
L 129.574946 -337.234647 
L 133.389144 -337.234647 
L 137.203342 -337.234647 
L 141.01754 -337.234647 
L 144.831739 -337.234647 
L 148.645937 -337.234647 
L 152.460135 -337.234647 
L 156.274333 -337.234647 
L 160.088531 -337.234647 
L 163.902729 -337.234647 
L 167.716927 -337.234647 
L 171.531125 -337.234647 
L 175.345323 -337.234647 
L 179.159521 -337.234647 
L 182.973719 -337.234647 
L 186.787917 -337.234647 
L 190.602115 -337.234647 
L 194.416313 -337.234647 
L 198.230511 -337.234647 
L 202.044709 -337.234647 
L 205.858907 -337.234647 
L 209.673105 -337.234647 
L 213.487303 -337.234647 
L 217.301501 -337.234647 
L 221.115699 -337.234647 
L 224.929897 -337.234647 
L 228.744095 -337.234647 
L 232.558293 -337.234647 
L 236.372491 -337.234647 
L 240.186689 -337.234647 
L 244.000888 -337.234647 
L 247.815086 -337.234647 
L 251.629284 -337.234647 
L 255.443482 -337.234647 
L 259.25768 -337.234647 
L 263.071878 -337.234647 
L 266.886076 -337.234647 
L 270.700274 -337.234647 
L 274.514472 -337.234647 
L 278.32867 -337.234647 
L 282.142868 -337.234647 
L 285.957066 -337.234647 
L 289.771264 -337.234647 
L 293.585462 -337.234647 
L 297.39966 -337.234647 
L 301.213858 -337.234647 
L 305.028056 -337.234647 
L 308.842254 -337.234647 
L 312.656452 -337.234647 
L 316.47065 -337.234647 
L 320.284848 -337.234647 
L 324.099046 -337.234647 
L 327.913244 -337.234647 
L 331.727442 -337.234647 
L 335.54164 -337.234647 
L 339.355838 -337.234647 
L 343.170036 -337.234647 
L 346.984235 -337.234647 
L 350.798433 -337.234647 
L 354.612631 -337.234647 
L 358.426829 -337.234647 
L 362.241027 -337.234647 
L 366.055225 -337.234647 
L 369.869423 -337.234647 
L 373.683621 -337.234647 
L 377.497819 -337.234647 
L 381.312017 -337.234647 
L 385.126215 -337.234647 
L 388.940413 -337.234647 
L 392.754611 -337.234647 
L 396.568809 -337.234647 
L 400.383007 -337.234647 
L 404.197205 -337.234647 
L 408.011403 -337.234647 
L 411.825601 -337.234647 
L 415.639799 -337.234647 
L 419.453997 -337.234647 
L 423.268195 -337.234647 
L 427.082393 -337.234647 
L 430.896591 -337.234647 
L 434.710789 -337.234647 
L 438.524987 -337.234647 
L 442.339185 -337.234647 
L 446.153384 -337.234647 
L 449.967582 -337.234647 
L 453.78178 -337.234647 
L 457.595978 -337.234647 
L 461.410176 -337.234647 
L 465.224374 -337.234647 
L 469.038572 -337.234647 
L 472.85277 -337.234647 
L 476.666968 -337.234647 
L 480.481166 -337.234647 
L 484.295364 -337.234647 
L 488.109562 -337.234647 
L 491.92376 -337.234647 
L 495.737958 -337.234647 
L 499.552156 -337.234647 
L 503.366354 -337.234647 
L 507.180552 -337.234647 
L 510.99475 -337.234647 
L 514.808948 -337.234647 
L 518.623146 -337.234647 
L 522.437344 -337.234647 
L 526.251542 -337.234647 
L 530.06574 -337.234647 
L 533.879938 -337.234647 
L 537.694136 -337.234647 
L 541.508334 -337.234647 
L 545.322533 -337.234647 
L 549.136731 -337.234647 
L 552.950929 -337.234647 
L 556.765127 -337.234647 
L 560.579325 -337.234647 
L 564.393523 -337.234647 
L 568.207721 -337.234647 
L 572.021919 -337.234647 
L 575.836117 -337.234647 
L 579.650315 -337.234647 
L 583.464513 -337.234647 
L 587.278711 -337.234647 
L 591.092909 -337.234647 
L 594.907107 -337.234647 
L 598.721305 -337.234647 
L 602.535503 -337.234647 
L 606.349701 -337.234647 
L 610.163899 -337.234647 
L 613.978097 -337.234647 
L 617.792295 -337.234647 
L 621.606493 -337.234647 
L 625.420691 -337.234647 
L 629.234889 -337.234647 
L 633.049087 -337.234647 
L 636.863285 -337.234647 
L 640.677483 -337.234647 
L 644.491682 -337.234647 
L 648.30588 -337.234647 
L 652.120078 -337.234647 
L 655.934276 -337.234647 
L 659.748474 -337.234647 
L 663.562672 -337.234647 
L 667.37687 -337.234647 
L 671.191068 -337.234647 
L 675.005266 -337.234647 
L 678.819464 -337.234647 
L 682.633662 -337.234647 
L 686.44786 -337.234647 
L 690.262058 -337.234647 
L 694.076256 -337.234647 
L 697.890454 -337.234647 
L 701.704652 -337.234647 
L 705.51885 -337.234647 
L 709.333048 -337.234647 
L 713.147246 -337.234647 
L 716.961444 -337.234647 
L 720.775642 -337.234647 
L 724.58984 -337.234647 
L 728.404038 -337.234647 
L 732.218236 -337.234647 
L 736.032434 -337.234647 
L 739.846632 -337.234647 
L 743.660831 -337.234647 
L 747.475029 -337.234647 
L 751.289227 -337.234647 
L 755.103425 -337.234647 
L 758.917623 -337.234647 
L 762.731821 -337.234647 
L 766.546019 -337.234647 
L 770.360217 -337.234647 
L 774.174415 -337.234647 
L 777.988613 -337.234647 
L 781.802811 -337.234647 
L 785.617009 -337.234647 
L 789.431207 -337.234647 
L 793.245405 -337.234647 
L 797.059603 -337.234647 
L 800.873801 -337.234647 
L 804.687999 -337.234647 
L 808.502197 -337.234647 
L 812.316395 -337.234647 
L 816.130593 -337.234647 
L 819.944791 -337.234647 
L 823.758989 -337.234647 
L 827.573187 -337.234647 
L 831.387385 -337.234647 
L 835.201583 -337.234647 
L 839.015781 -337.234647 
L 842.82998 -337.234647 
L 842.82998 -337.261087 
L 842.82998 -337.261087 
L 839.015781 -337.274413 
L 835.201583 -337.293652 
L 831.387385 -337.321035 
L 827.573187 -337.359463 
L 823.758989 -337.412644 
L 819.944791 -337.485232 
L 816.130593 -337.582972 
L 812.316395 -337.712828 
L 808.502197 -337.883103 
L 804.687999 -338.103524 
L 800.873801 -338.385307 
L 797.059603 -338.741176 
L 793.245405 -339.185353 
L 789.431207 -339.733514 
L 785.617009 -340.402723 
L 781.802811 -341.211356 
L 777.988613 -342.17903 
L 774.174415 -343.326543 
L 770.360217 -344.675856 
L 766.546019 -346.250089 
L 762.731821 -348.073547 
L 758.917623 -350.171753 
L 755.103425 -352.571446 
L 751.289227 -355.300508 
L 747.475029 -358.387771 
L 743.660831 -361.862646 
L 739.846632 -365.754523 
L 736.032434 -370.091913 
L 732.218236 -374.901292 
L 728.404038 -380.205676 
L 724.58984 -386.022935 
L 720.775642 -392.363934 
L 716.961444 -399.230571 
L 713.147246 -406.613869 
L 709.333048 -414.49223 
L 705.51885 -422.830047 
L 701.704652 -431.576801 
L 697.890454 -440.666808 
L 694.076256 -450.019723 
L 690.262058 -459.541857 
L 686.44786 -469.128337 
L 682.633662 -478.666027 
L 678.819464 -488.03709 
L 675.005266 -497.122992 
L 671.191068 -505.808702 
L 667.37687 -513.986805 
L 663.562672 -521.561258 
L 659.748474 -528.450527 
L 655.934276 -534.589907 
L 652.120078 -539.932896 
L 648.30588 -544.45159 
L 644.491682 -548.136131 
L 640.677483 -550.99334 
L 636.863285 -553.044719 
L 633.049087 -554.324018 
L 629.234889 -554.874609 
L 625.420691 -554.746868 
L 621.606493 -553.995716 
L 617.792295 -552.67847 
L 613.978097 -550.853055 
L 610.163899 -548.576602 
L 606.349701 -545.904426 
L 602.535503 -542.88933 
L 598.721305 -539.581186 
L 594.907107 -536.026715 
L 591.092909 -532.269417 
L 587.278711 -528.349594 
L 583.464513 -524.304425 
L 579.650315 -520.168048 
L 575.836117 -515.971646 
L 572.021919 -511.743491 
L 568.207721 -507.508948 
L 564.393523 -503.290416 
L 560.579325 -499.107199 
L 556.765127 -494.975306 
L 552.950929 -490.907184 
L 549.136731 -486.911422 
L 545.322533 -482.992439 
L 541.508334 -479.15024 
L 537.694136 -475.380286 
L 533.879938 -471.673563 
L 530.06574 -468.016917 
L 526.251542 -464.393707 
L 522.437344 -460.784803 
L 518.623146 -457.16991 
L 514.808948 -453.529169 
L 510.99475 -449.844919 
L 507.180552 -446.103489 
L 503.366354 -442.296852 
L 499.552156 -438.423972 
L 495.737958 -434.491684 
L 491.92376 -430.515011 
L 488.109562 -426.516834 
L 484.295364 -422.526944 
L 480.481166 -418.580532 
L 476.666968 -414.716247 
L 472.85277 -410.974005 
L 469.038572 -407.39271 
L 465.224374 -404.008106 
L 461.410176 -400.850886 
L 457.595978 -397.945216 
L 453.78178 -395.307711 
L 449.967582 -392.946923 
L 446.153384 -390.863308 
L 442.339185 -389.049636 
L 438.524987 -387.491781 
L 434.710789 -386.16981 
L 430.896591 -385.059306 
L 427.082393 -384.132841 
L 423.268195 -383.361515 
L 419.453997 -382.716487 
L 415.639799 -382.170402 
L 411.825601 -381.698613 
L 408.011403 -381.280124 
L 404.197205 -380.898152 
L 400.383007 -380.540274 
L 396.568809 -380.198112 
L 392.754611 -379.866612 
L 388.940413 -379.542964 
L 385.126215 -379.225305 
L 381.312017 -378.911343 
L 377.497819 -378.597095 
L 373.683621 -378.27588 
L 369.869423 -377.937723 
L 366.055225 -377.569259 
L 362.241027 -377.154154 
L 358.426829 -376.674028 
L 354.612631 -376.109766 
L 350.798433 -375.443091 
L 346.984235 -374.658203 
L 343.170036 -373.743334 
L 339.355838 -372.692022 
L 335.54164 -371.50399 
L 331.727442 -370.185543 
L 327.913244 -368.749435 
L 324.099046 -367.214248 
L 320.284848 -365.603339 
L 316.47065 -363.943465 
L 312.656452 -362.263223 
L 308.842254 -360.591437 
L 305.028056 -358.955624 
L 301.213858 -357.380658 
L 297.39966 -355.887707 
L 293.585462 -354.493515 
L 289.771264 -353.210009 
L 285.957066 -352.044264 
L 282.142868 -350.998735 
L 278.32867 -350.071734 
L 274.514472 -349.258056 
L 270.700274 -348.549696 
L 266.886076 -347.936583 
L 263.071878 -347.407289 
L 259.25768 -346.949663 
L 255.443482 -346.551376 
L 251.629284 -346.200383 
L 247.815086 -345.885277 
L 244.000888 -345.595579 
L 240.186689 -345.321953 
L 236.372491 -345.056366 
L 232.558293 -344.7922 
L 228.744095 -344.524305 
L 224.929897 -344.249007 
L 221.115699 -343.964059 
L 217.301501 -343.668529 
L 213.487303 -343.362643 
L 209.673105 -343.047569 
L 205.858907 -342.72519 
L 202.044709 -342.397848 
L 198.230511 -342.068111 
L 194.416313 -341.73857 
L 190.602115 -341.411677 
L 186.787917 -341.089646 
L 182.973719 -340.774402 
L 179.159521 -340.467589 
L 175.345323 -340.170605 
L 171.531125 -339.884665 
L 167.716927 -339.610861 
L 163.902729 -339.35021 
L 160.088531 -339.103685 
L 156.274333 -338.872212 
L 152.460135 -338.656648 
L 148.645937 -338.457732 
L 144.831739 -338.276031 
L 141.01754 -338.111883 
L 137.203342 -337.965353 
L 133.389144 -337.836202 
L 129.574946 -337.723882 
L 125.760748 -337.627556 
L 121.94655 -337.546133 
L 118.132352 -337.478323 
L 114.318154 -337.422704 
L 110.503956 -337.377784 
L 106.689758 -337.342072 
L 102.87556 -337.314127 
L 99.061362 -337.292607 
L 95.247164 -337.276301 
L 91.432966 -337.264145 
L 87.618768 -337.255227 
L 83.80457 -337.248793 
z
" style="stroke: #1f77b4; stroke-width: 2.5"/>
    </defs>
    <g clip-path="url(#pebb9b3fc90)">
     <use xlink:href="#mcad1798684" x="0" y="635.878125" style="fill: #1f77b4; fill-opacity: 0.5; stroke: #1f77b4; stroke-width: 2.5"/>
    </g>
   </g>
   <g id="matplotlib.axis_1">
    <g id="xtick_1">
     <g id="line2d_1">
      <defs>
       <path id="m34fa75b518" d="M 0 0 
L 0 3.5 
" style="stroke: #000000; stroke-width: 0.8"/>
      </defs>
      <g>
       <use xlink:href="#m34fa75b518" x="129.946268" y="298.643478" style="stroke: #000000; stroke-width: 0.8"/>
      </g>
     </g>
     <g id="text_1">
      <!-- 0.0 -->
      <g transform="translate(121.994705 313.241916) scale(0.1 -0.1)">
       <defs>
        <path id="DejaVuSans-30" d="M 2034 4250 
Q 1547 4250 1301 3770 
Q 1056 3291 1056 2328 
Q 1056 1369 1301 889 
Q 1547 409 2034 409 
Q 2525 409 2770 889 
Q 3016 1369 3016 2328 
Q 3016 3291 2770 3770 
Q 2525 4250 2034 4250 
z
M 2034 4750 
Q 2819 4750 3233 4129 
Q 3647 3509 3647 2328 
Q 3647 1150 3233 529 
Q 2819 -91 2034 -91 
Q 1250 -91 836 529 
Q 422 1150 422 2328 
Q 422 3509 836 4129 
Q 1250 4750 2034 4750 
z
" transform="scale(0.015625)"/>
        <path id="DejaVuSans-2e" d="M 684 794 
L 1344 794 
L 1344 0 
L 684 0 
L 684 794 
z
" transform="scale(0.015625)"/>
       </defs>
       <use xlink:href="#DejaVuSans-30"/>
       <use xlink:href="#DejaVuSans-2e" x="63.623047"/>
       <use xlink:href="#DejaVuSans-30" x="95.410156"/>
      </g>
     </g>
    </g>
    <g id="xtick_2">
     <g id="line2d_2">
      <g>
       <use xlink:href="#m34fa75b518" x="276.282259" y="298.643478" style="stroke: #000000; stroke-width: 0.8"/>
      </g>
     </g>
     <g id="text_2">
      <!-- 0.2 -->
      <g transform="translate(268.330696 313.241916) scale(0.1 -0.1)">
       <defs>
        <path id="DejaVuSans-32" d="M 1228 531 
L 3431 531 
L 3431 0 
L 469 0 
L 469 531 
Q 828 903 1448 1529 
Q 2069 2156 2228 2338 
Q 2531 2678 2651 2914 
Q 2772 3150 2772 3378 
Q 2772 3750 2511 3984 
Q 2250 4219 1831 4219 
Q 1534 4219 1204 4116 
Q 875 4013 500 3803 
L 500 4441 
Q 881 4594 1212 4672 
Q 1544 4750 1819 4750 
Q 2544 4750 2975 4387 
Q 3406 4025 3406 3419 
Q 3406 3131 3298 2873 
Q 3191 2616 2906 2266 
Q 2828 2175 2409 1742 
Q 1991 1309 1228 531 
z
" transform="scale(0.015625)"/>
       </defs>
       <use xlink:href="#DejaVuSans-30"/>
       <use xlink:href="#DejaVuSans-2e" x="63.623047"/>
       <use xlink:href="#DejaVuSans-32" x="95.410156"/>
      </g>
     </g>
    </g>
    <g id="xtick_3">
     <g id="line2d_3">
      <g>
       <use xlink:href="#m34fa75b518" x="422.61825" y="298.643478" style="stroke: #000000; stroke-width: 0.8"/>
      </g>
     </g>
     <g id="text_3">
      <!-- 0.4 -->
      <g transform="translate(414.666687 313.241916) scale(0.1 -0.1)">
       <defs>
        <path id="DejaVuSans-34" d="M 2419 4116 
L 825 1625 
L 2419 1625 
L 2419 4116 
z
M 2253 4666 
L 3047 4666 
L 3047 1625 
L 3713 1625 
L 3713 1100 
L 3047 1100 
L 3047 0 
L 2419 0 
L 2419 1100 
L 313 1100 
L 313 1709 
L 2253 4666 
z
" transform="scale(0.015625)"/>
       </defs>
       <use xlink:href="#DejaVuSans-30"/>
       <use xlink:href="#DejaVuSans-2e" x="63.623047"/>
       <use xlink:href="#DejaVuSans-34" x="95.410156"/>
      </g>
     </g>
    </g>
    <g id="xtick_4">
     <g id="line2d_4">
      <g>
       <use xlink:href="#m34fa75b518" x="568.954241" y="298.643478" style="stroke: #000000; stroke-width: 0.8"/>
      </g>
     </g>
     <g id="text_4">
      <!-- 0.6 -->
      <g transform="translate(561.002678 313.241916) scale(0.1 -0.1)">
       <defs>
        <path id="DejaVuSans-36" d="M 2113 2584 
Q 1688 2584 1439 2293 
Q 1191 2003 1191 1497 
Q 1191 994 1439 701 
Q 1688 409 2113 409 
Q 2538 409 2786 701 
Q 3034 994 3034 1497 
Q 3034 2003 2786 2293 
Q 2538 2584 2113 2584 
z
M 3366 4563 
L 3366 3988 
Q 3128 4100 2886 4159 
Q 2644 4219 2406 4219 
Q 1781 4219 1451 3797 
Q 1122 3375 1075 2522 
Q 1259 2794 1537 2939 
Q 1816 3084 2150 3084 
Q 2853 3084 3261 2657 
Q 3669 2231 3669 1497 
Q 3669 778 3244 343 
Q 2819 -91 2113 -91 
Q 1303 -91 875 529 
Q 447 1150 447 2328 
Q 447 3434 972 4092 
Q 1497 4750 2381 4750 
Q 2619 4750 2861 4703 
Q 3103 4656 3366 4563 
z
" transform="scale(0.015625)"/>
       </defs>
       <use xlink:href="#DejaVuSans-30"/>
       <use xlink:href="#DejaVuSans-2e" x="63.623047"/>
       <use xlink:href="#DejaVuSans-36" x="95.410156"/>
      </g>
     </g>
    </g>
    <g id="xtick_5">
     <g id="line2d_5">
      <g>
       <use xlink:href="#m34fa75b518" x="715.290232" y="298.643478" style="stroke: #000000; stroke-width: 0.8"/>
      </g>
     </g>
     <g id="text_5">
      <!-- 0.8 -->
      <g transform="translate(707.338669 313.241916) scale(0.1 -0.1)">
       <defs>
        <path id="DejaVuSans-38" d="M 2034 2216 
Q 1584 2216 1326 1975 
Q 1069 1734 1069 1313 
Q 1069 891 1326 650 
Q 1584 409 2034 409 
Q 2484 409 2743 651 
Q 3003 894 3003 1313 
Q 3003 1734 2745 1975 
Q 2488 2216 2034 2216 
z
M 1403 2484 
Q 997 2584 770 2862 
Q 544 3141 544 3541 
Q 544 4100 942 4425 
Q 1341 4750 2034 4750 
Q 2731 4750 3128 4425 
Q 3525 4100 3525 3541 
Q 3525 3141 3298 2862 
Q 3072 2584 2669 2484 
Q 3125 2378 3379 2068 
Q 3634 1759 3634 1313 
Q 3634 634 3220 271 
Q 2806 -91 2034 -91 
Q 1263 -91 848 271 
Q 434 634 434 1313 
Q 434 1759 690 2068 
Q 947 2378 1403 2484 
z
M 1172 3481 
Q 1172 3119 1398 2916 
Q 1625 2713 2034 2713 
Q 2441 2713 2670 2916 
Q 2900 3119 2900 3481 
Q 2900 3844 2670 4047 
Q 2441 4250 2034 4250 
Q 1625 4250 1398 4047 
Q 1172 3844 1172 3481 
z
" transform="scale(0.015625)"/>
       </defs>
       <use xlink:href="#DejaVuSans-30"/>
       <use xlink:href="#DejaVuSans-2e" x="63.623047"/>
       <use xlink:href="#DejaVuSans-38" x="95.410156"/>
      </g>
     </g>
    </g>
    <g id="xtick_6">
     <g id="line2d_6">
      <g>
       <use xlink:href="#m34fa75b518" x="861.626223" y="298.643478" style="stroke: #000000; stroke-width: 0.8"/>
      </g>
     </g>
     <g id="text_6">
      <!-- 1.0 -->
      <g transform="translate(853.67466 313.241916) scale(0.1 -0.1)">
       <defs>
        <path id="DejaVuSans-31" d="M 794 531 
L 1825 531 
L 1825 4091 
L 703 3866 
L 703 4441 
L 1819 4666 
L 2450 4666 
L 2450 531 
L 3481 531 
L 3481 0 
L 794 0 
L 794 531 
z
" transform="scale(0.015625)"/>
       </defs>
       <use xlink:href="#DejaVuSans-31"/>
       <use xlink:href="#DejaVuSans-2e" x="63.623047"/>
       <use xlink:href="#DejaVuSans-30" x="95.410156"/>
      </g>
     </g>
    </g>
   </g>
   <g id="matplotlib.axis_2">
    <g id="ytick_1">
     <g id="line2d_7">
      <defs>
       <path id="m508891e97b" d="M 0 0 
L -3.5 0 
" style="stroke: #000000; stroke-width: 0.8"/>
      </defs>
      <g>
       <use xlink:href="#m508891e97b" x="43.78125" y="298.643478" style="stroke: #000000; stroke-width: 0.8"/>
      </g>
     </g>
     <g id="text_7">
      <!-- 0.0 -->
      <g transform="translate(20.878125 302.442697) scale(0.1 -0.1)">
       <use xlink:href="#DejaVuSans-30"/>
       <use xlink:href="#DejaVuSans-2e" x="63.623047"/>
       <use xlink:href="#DejaVuSans-30" x="95.410156"/>
      </g>
     </g>
    </g>
    <g id="ytick_2">
     <g id="line2d_8">
      <g>
       <use xlink:href="#m508891e97b" x="43.78125" y="266.131476" style="stroke: #000000; stroke-width: 0.8"/>
      </g>
     </g>
     <g id="text_8">
      <!-- 0.5 -->
      <g transform="translate(20.878125 269.930695) scale(0.1 -0.1)">
       <defs>
        <path id="DejaVuSans-35" d="M 691 4666 
L 3169 4666 
L 3169 4134 
L 1269 4134 
L 1269 2991 
Q 1406 3038 1543 3061 
Q 1681 3084 1819 3084 
Q 2600 3084 3056 2656 
Q 3513 2228 3513 1497 
Q 3513 744 3044 326 
Q 2575 -91 1722 -91 
Q 1428 -91 1123 -41 
Q 819 9 494 109 
L 494 744 
Q 775 591 1075 516 
Q 1375 441 1709 441 
Q 2250 441 2565 725 
Q 2881 1009 2881 1497 
Q 2881 1984 2565 2268 
Q 2250 2553 1709 2553 
Q 1456 2553 1204 2497 
Q 953 2441 691 2322 
L 691 4666 
z
" transform="scale(0.015625)"/>
       </defs>
       <use xlink:href="#DejaVuSans-30"/>
       <use xlink:href="#DejaVuSans-2e" x="63.623047"/>
       <use xlink:href="#DejaVuSans-35" x="95.410156"/>
      </g>
     </g>
    </g>
    <g id="ytick_3">
     <g id="line2d_9">
      <g>
       <use xlink:href="#m508891e97b" x="43.78125" y="233.619474" style="stroke: #000000; stroke-width: 0.8"/>
      </g>
     </g>
     <g id="text_9">
      <!-- 1.0 -->
      <g transform="translate(20.878125 237.418692) scale(0.1 -0.1)">
       <use xlink:href="#DejaVuSans-31"/>
       <use xlink:href="#DejaVuSans-2e" x="63.623047"/>
       <use xlink:href="#DejaVuSans-30" x="95.410156"/>
      </g>
     </g>
    </g>
    <g id="ytick_4">
     <g id="line2d_10">
      <g>
       <use xlink:href="#m508891e97b" x="43.78125" y="201.107471" style="stroke: #000000; stroke-width: 0.8"/>
      </g>
     </g>
     <g id="text_10">
      <!-- 1.5 -->
      <g transform="translate(20.878125 204.90669) scale(0.1 -0.1)">
       <use xlink:href="#DejaVuSans-31"/>
       <use xlink:href="#DejaVuSans-2e" x="63.623047"/>
       <use xlink:href="#DejaVuSans-35" x="95.410156"/>
      </g>
     </g>
    </g>
    <g id="ytick_5">
     <g id="line2d_11">
      <g>
       <use xlink:href="#m508891e97b" x="43.78125" y="168.595469" style="stroke: #000000; stroke-width: 0.8"/>
      </g>
     </g>
     <g id="text_11">
      <!-- 2.0 -->
      <g transform="translate(20.878125 172.394688) scale(0.1 -0.1)">
       <use xlink:href="#DejaVuSans-32"/>
       <use xlink:href="#DejaVuSans-2e" x="63.623047"/>
       <use xlink:href="#DejaVuSans-30" x="95.410156"/>
      </g>
     </g>
    </g>
    <g id="ytick_6">
     <g id="line2d_12">
      <g>
       <use xlink:href="#m508891e97b" x="43.78125" y="136.083467" style="stroke: #000000; stroke-width: 0.8"/>
      </g>
     </g>
     <g id="text_12">
      <!-- 2.5 -->
      <g transform="translate(20.878125 139.882685) scale(0.1 -0.1)">
       <use xlink:href="#DejaVuSans-32"/>
       <use xlink:href="#DejaVuSans-2e" x="63.623047"/>
       <use xlink:href="#DejaVuSans-35" x="95.410156"/>
      </g>
     </g>
    </g>
    <g id="ytick_7">
     <g id="line2d_13">
      <g>
       <use xlink:href="#m508891e97b" x="43.78125" y="103.571464" style="stroke: #000000; stroke-width: 0.8"/>
      </g>
     </g>
     <g id="text_13">
      <!-- 3.0 -->
      <g transform="translate(20.878125 107.370683) scale(0.1 -0.1)">
       <defs>
        <path id="DejaVuSans-33" d="M 2597 2516 
Q 3050 2419 3304 2112 
Q 3559 1806 3559 1356 
Q 3559 666 3084 287 
Q 2609 -91 1734 -91 
Q 1441 -91 1130 -33 
Q 819 25 488 141 
L 488 750 
Q 750 597 1062 519 
Q 1375 441 1716 441 
Q 2309 441 2620 675 
Q 2931 909 2931 1356 
Q 2931 1769 2642 2001 
Q 2353 2234 1838 2234 
L 1294 2234 
L 1294 2753 
L 1863 2753 
Q 2328 2753 2575 2939 
Q 2822 3125 2822 3475 
Q 2822 3834 2567 4026 
Q 2313 4219 1838 4219 
Q 1578 4219 1281 4162 
Q 984 4106 628 3988 
L 628 4550 
Q 988 4650 1302 4700 
Q 1616 4750 1894 4750 
Q 2613 4750 3031 4423 
Q 3450 4097 3450 3541 
Q 3450 3153 3228 2886 
Q 3006 2619 2597 2516 
z
" transform="scale(0.015625)"/>
       </defs>
       <use xlink:href="#DejaVuSans-33"/>
       <use xlink:href="#DejaVuSans-2e" x="63.623047"/>
       <use xlink:href="#DejaVuSans-30" x="95.410156"/>
      </g>
     </g>
    </g>
    <g id="ytick_8">
     <g id="line2d_14">
      <g>
       <use xlink:href="#m508891e97b" x="43.78125" y="71.059462" style="stroke: #000000; stroke-width: 0.8"/>
      </g>
     </g>
     <g id="text_14">
      <!-- 3.5 -->
      <g transform="translate(20.878125 74.858681) scale(0.1 -0.1)">
       <use xlink:href="#DejaVuSans-33"/>
       <use xlink:href="#DejaVuSans-2e" x="63.623047"/>
       <use xlink:href="#DejaVuSans-35" x="95.410156"/>
      </g>
     </g>
    </g>
    <g id="text_15">
     <!-- Density -->
     <g transform="translate(14.798438 197.130333) rotate(-90) scale(0.1 -0.1)">
      <defs>
       <path id="DejaVuSans-44" d="M 1259 4147 
L 1259 519 
L 2022 519 
Q 2988 519 3436 956 
Q 3884 1394 3884 2338 
Q 3884 3275 3436 3711 
Q 2988 4147 2022 4147 
L 1259 4147 
z
M 628 4666 
L 1925 4666 
Q 3281 4666 3915 4102 
Q 4550 3538 4550 2338 
Q 4550 1131 3912 565 
Q 3275 0 1925 0 
L 628 0 
L 628 4666 
z
" transform="scale(0.015625)"/>
       <path id="DejaVuSans-65" d="M 3597 1894 
L 3597 1613 
L 953 1613 
Q 991 1019 1311 708 
Q 1631 397 2203 397 
Q 2534 397 2845 478 
Q 3156 559 3463 722 
L 3463 178 
Q 3153 47 2828 -22 
Q 2503 -91 2169 -91 
Q 1331 -91 842 396 
Q 353 884 353 1716 
Q 353 2575 817 3079 
Q 1281 3584 2069 3584 
Q 2775 3584 3186 3129 
Q 3597 2675 3597 1894 
z
M 3022 2063 
Q 3016 2534 2758 2815 
Q 2500 3097 2075 3097 
Q 1594 3097 1305 2825 
Q 1016 2553 972 2059 
L 3022 2063 
z
" transform="scale(0.015625)"/>
       <path id="DejaVuSans-6e" d="M 3513 2113 
L 3513 0 
L 2938 0 
L 2938 2094 
Q 2938 2591 2744 2837 
Q 2550 3084 2163 3084 
Q 1697 3084 1428 2787 
Q 1159 2491 1159 1978 
L 1159 0 
L 581 0 
L 581 3500 
L 1159 3500 
L 1159 2956 
Q 1366 3272 1645 3428 
Q 1925 3584 2291 3584 
Q 2894 3584 3203 3211 
Q 3513 2838 3513 2113 
z
" transform="scale(0.015625)"/>
       <path id="DejaVuSans-73" d="M 2834 3397 
L 2834 2853 
Q 2591 2978 2328 3040 
Q 2066 3103 1784 3103 
Q 1356 3103 1142 2972 
Q 928 2841 928 2578 
Q 928 2378 1081 2264 
Q 1234 2150 1697 2047 
L 1894 2003 
Q 2506 1872 2764 1633 
Q 3022 1394 3022 966 
Q 3022 478 2636 193 
Q 2250 -91 1575 -91 
Q 1294 -91 989 -36 
Q 684 19 347 128 
L 347 722 
Q 666 556 975 473 
Q 1284 391 1588 391 
Q 1994 391 2212 530 
Q 2431 669 2431 922 
Q 2431 1156 2273 1281 
Q 2116 1406 1581 1522 
L 1381 1569 
Q 847 1681 609 1914 
Q 372 2147 372 2553 
Q 372 3047 722 3315 
Q 1072 3584 1716 3584 
Q 2034 3584 2315 3537 
Q 2597 3491 2834 3397 
z
" transform="scale(0.015625)"/>
       <path id="DejaVuSans-69" d="M 603 3500 
L 1178 3500 
L 1178 0 
L 603 0 
L 603 3500 
z
M 603 4863 
L 1178 4863 
L 1178 4134 
L 603 4134 
L 603 4863 
z
" transform="scale(0.015625)"/>
       <path id="DejaVuSans-74" d="M 1172 4494 
L 1172 3500 
L 2356 3500 
L 2356 3053 
L 1172 3053 
L 1172 1153 
Q 1172 725 1289 603 
Q 1406 481 1766 481 
L 2356 481 
L 2356 0 
L 1766 0 
Q 1100 0 847 248 
Q 594 497 594 1153 
L 594 3053 
L 172 3053 
L 172 3500 
L 594 3500 
L 594 4494 
L 1172 4494 
z
" transform="scale(0.015625)"/>
       <path id="DejaVuSans-79" d="M 2059 -325 
Q 1816 -950 1584 -1140 
Q 1353 -1331 966 -1331 
L 506 -1331 
L 506 -850 
L 844 -850 
Q 1081 -850 1212 -737 
Q 1344 -625 1503 -206 
L 1606 56 
L 191 3500 
L 800 3500 
L 1894 763 
L 2988 3500 
L 3597 3500 
L 2059 -325 
z
" transform="scale(0.015625)"/>
      </defs>
      <use xlink:href="#DejaVuSans-44"/>
      <use xlink:href="#DejaVuSans-65" x="77.001953"/>
      <use xlink:href="#DejaVuSans-6e" x="138.525391"/>
      <use xlink:href="#DejaVuSans-73" x="201.904297"/>
      <use xlink:href="#DejaVuSans-69" x="254.003906"/>
      <use xlink:href="#DejaVuSans-74" x="281.787109"/>
      <use xlink:href="#DejaVuSans-79" x="320.996094"/>
     </g>
    </g>
   </g>
   <g id="patch_3">
    <path d="M 43.78125 298.643478 
L 43.78125 57.6 
" style="fill: none; stroke: #000000; stroke-width: 0.8; stroke-linejoin: miter; stroke-linecap: square"/>
   </g>
   <g id="patch_4">
    <path d="M 880.78125 298.643478 
L 880.78125 57.6 
" style="fill: none; stroke: #000000; stroke-width: 0.8; stroke-linejoin: miter; stroke-linecap: square"/>
   </g>
   <g id="patch_5">
    <path d="M 43.78125 298.643478 
L 880.78125 298.643478 
" style="fill: none; stroke: #000000; stroke-width: 0.8; stroke-linejoin: miter; stroke-linecap: square"/>
   </g>
   <g id="patch_6">
    <path d="M 43.78125 57.6 
L 880.78125 57.6 
" style="fill: none; stroke: #000000; stroke-width: 0.8; stroke-linejoin: miter; stroke-linecap: square"/>
   </g>
   <g id="text_16">
    <!-- Pearson correlation coefficients -->
    <g transform="translate(367.949062 51.6) scale(0.12 -0.12)">
     <defs>
      <path id="DejaVuSans-50" d="M 1259 4147 
L 1259 2394 
L 2053 2394 
Q 2494 2394 2734 2622 
Q 2975 2850 2975 3272 
Q 2975 3691 2734 3919 
Q 2494 4147 2053 4147 
L 1259 4147 
z
M 628 4666 
L 2053 4666 
Q 2838 4666 3239 4311 
Q 3641 3956 3641 3272 
Q 3641 2581 3239 2228 
Q 2838 1875 2053 1875 
L 1259 1875 
L 1259 0 
L 628 0 
L 628 4666 
z
" transform="scale(0.015625)"/>
      <path id="DejaVuSans-61" d="M 2194 1759 
Q 1497 1759 1228 1600 
Q 959 1441 959 1056 
Q 959 750 1161 570 
Q 1363 391 1709 391 
Q 2188 391 2477 730 
Q 2766 1069 2766 1631 
L 2766 1759 
L 2194 1759 
z
M 3341 1997 
L 3341 0 
L 2766 0 
L 2766 531 
Q 2569 213 2275 61 
Q 1981 -91 1556 -91 
Q 1019 -91 701 211 
Q 384 513 384 1019 
Q 384 1609 779 1909 
Q 1175 2209 1959 2209 
L 2766 2209 
L 2766 2266 
Q 2766 2663 2505 2880 
Q 2244 3097 1772 3097 
Q 1472 3097 1187 3025 
Q 903 2953 641 2809 
L 641 3341 
Q 956 3463 1253 3523 
Q 1550 3584 1831 3584 
Q 2591 3584 2966 3190 
Q 3341 2797 3341 1997 
z
" transform="scale(0.015625)"/>
      <path id="DejaVuSans-72" d="M 2631 2963 
Q 2534 3019 2420 3045 
Q 2306 3072 2169 3072 
Q 1681 3072 1420 2755 
Q 1159 2438 1159 1844 
L 1159 0 
L 581 0 
L 581 3500 
L 1159 3500 
L 1159 2956 
Q 1341 3275 1631 3429 
Q 1922 3584 2338 3584 
Q 2397 3584 2469 3576 
Q 2541 3569 2628 3553 
L 2631 2963 
z
" transform="scale(0.015625)"/>
      <path id="DejaVuSans-6f" d="M 1959 3097 
Q 1497 3097 1228 2736 
Q 959 2375 959 1747 
Q 959 1119 1226 758 
Q 1494 397 1959 397 
Q 2419 397 2687 759 
Q 2956 1122 2956 1747 
Q 2956 2369 2687 2733 
Q 2419 3097 1959 3097 
z
M 1959 3584 
Q 2709 3584 3137 3096 
Q 3566 2609 3566 1747 
Q 3566 888 3137 398 
Q 2709 -91 1959 -91 
Q 1206 -91 779 398 
Q 353 888 353 1747 
Q 353 2609 779 3096 
Q 1206 3584 1959 3584 
z
" transform="scale(0.015625)"/>
      <path id="DejaVuSans-20" transform="scale(0.015625)"/>
      <path id="DejaVuSans-63" d="M 3122 3366 
L 3122 2828 
Q 2878 2963 2633 3030 
Q 2388 3097 2138 3097 
Q 1578 3097 1268 2742 
Q 959 2388 959 1747 
Q 959 1106 1268 751 
Q 1578 397 2138 397 
Q 2388 397 2633 464 
Q 2878 531 3122 666 
L 3122 134 
Q 2881 22 2623 -34 
Q 2366 -91 2075 -91 
Q 1284 -91 818 406 
Q 353 903 353 1747 
Q 353 2603 823 3093 
Q 1294 3584 2113 3584 
Q 2378 3584 2631 3529 
Q 2884 3475 3122 3366 
z
" transform="scale(0.015625)"/>
      <path id="DejaVuSans-6c" d="M 603 4863 
L 1178 4863 
L 1178 0 
L 603 0 
L 603 4863 
z
" transform="scale(0.015625)"/>
      <path id="DejaVuSans-66" d="M 2375 4863 
L 2375 4384 
L 1825 4384 
Q 1516 4384 1395 4259 
Q 1275 4134 1275 3809 
L 1275 3500 
L 2222 3500 
L 2222 3053 
L 1275 3053 
L 1275 0 
L 697 0 
L 697 3053 
L 147 3053 
L 147 3500 
L 697 3500 
L 697 3744 
Q 697 4328 969 4595 
Q 1241 4863 1831 4863 
L 2375 4863 
z
" transform="scale(0.015625)"/>
     </defs>
     <use xlink:href="#DejaVuSans-50"/>
     <use xlink:href="#DejaVuSans-65" x="56.677734"/>
     <use xlink:href="#DejaVuSans-61" x="118.201172"/>
     <use xlink:href="#DejaVuSans-72" x="179.480469"/>
     <use xlink:href="#DejaVuSans-73" x="220.59375"/>
     <use xlink:href="#DejaVuSans-6f" x="272.693359"/>
     <use xlink:href="#DejaVuSans-6e" x="333.875"/>
     <use xlink:href="#DejaVuSans-20" x="397.253906"/>
     <use xlink:href="#DejaVuSans-63" x="429.041016"/>
     <use xlink:href="#DejaVuSans-6f" x="484.021484"/>
     <use xlink:href="#DejaVuSans-72" x="545.203125"/>
     <use xlink:href="#DejaVuSans-72" x="584.566406"/>
     <use xlink:href="#DejaVuSans-65" x="623.429688"/>
     <use xlink:href="#DejaVuSans-6c" x="684.953125"/>
     <use xlink:href="#DejaVuSans-61" x="712.736328"/>
     <use xlink:href="#DejaVuSans-74" x="774.015625"/>
     <use xlink:href="#DejaVuSans-69" x="813.224609"/>
     <use xlink:href="#DejaVuSans-6f" x="841.007812"/>
     <use xlink:href="#DejaVuSans-6e" x="902.189453"/>
     <use xlink:href="#DejaVuSans-20" x="965.568359"/>
     <use xlink:href="#DejaVuSans-63" x="997.355469"/>
     <use xlink:href="#DejaVuSans-6f" x="1052.335938"/>
     <use xlink:href="#DejaVuSans-65" x="1113.517578"/>
     <use xlink:href="#DejaVuSans-66" x="1175.041016"/>
     <use xlink:href="#DejaVuSans-66" x="1210.246094"/>
     <use xlink:href="#DejaVuSans-69" x="1245.451172"/>
     <use xlink:href="#DejaVuSans-63" x="1273.234375"/>
     <use xlink:href="#DejaVuSans-69" x="1328.214844"/>
     <use xlink:href="#DejaVuSans-65" x="1355.998047"/>
     <use xlink:href="#DejaVuSans-6e" x="1417.521484"/>
     <use xlink:href="#DejaVuSans-74" x="1480.900391"/>
     <use xlink:href="#DejaVuSans-73" x="1520.109375"/>
    </g>
   </g>
   <g id="legend_1">
    <g id="patch_7">
     <path d="M 50.78125 109.634375 
L 138.80625 109.634375 
Q 140.80625 109.634375 140.80625 107.634375 
L 140.80625 64.6 
Q 140.80625 62.6 138.80625 62.6 
L 50.78125 62.6 
Q 48.78125 62.6 48.78125 64.6 
L 48.78125 107.634375 
Q 48.78125 109.634375 50.78125 109.634375 
z
" style="fill: #ffffff; opacity: 0.8; stroke: #cccccc; stroke-linejoin: miter"/>
    </g>
    <g id="text_17">
     <!-- Correlation type: -->
     <g transform="translate(52.78125 74.198437) scale(0.1 -0.1)">
      <defs>
       <path id="DejaVuSans-43" d="M 4122 4306 
L 4122 3641 
Q 3803 3938 3442 4084 
Q 3081 4231 2675 4231 
Q 1875 4231 1450 3742 
Q 1025 3253 1025 2328 
Q 1025 1406 1450 917 
Q 1875 428 2675 428 
Q 3081 428 3442 575 
Q 3803 722 4122 1019 
L 4122 359 
Q 3791 134 3420 21 
Q 3050 -91 2638 -91 
Q 1578 -91 968 557 
Q 359 1206 359 2328 
Q 359 3453 968 4101 
Q 1578 4750 2638 4750 
Q 3056 4750 3426 4639 
Q 3797 4528 4122 4306 
z
" transform="scale(0.015625)"/>
       <path id="DejaVuSans-70" d="M 1159 525 
L 1159 -1331 
L 581 -1331 
L 581 3500 
L 1159 3500 
L 1159 2969 
Q 1341 3281 1617 3432 
Q 1894 3584 2278 3584 
Q 2916 3584 3314 3078 
Q 3713 2572 3713 1747 
Q 3713 922 3314 415 
Q 2916 -91 2278 -91 
Q 1894 -91 1617 61 
Q 1341 213 1159 525 
z
M 3116 1747 
Q 3116 2381 2855 2742 
Q 2594 3103 2138 3103 
Q 1681 3103 1420 2742 
Q 1159 2381 1159 1747 
Q 1159 1113 1420 752 
Q 1681 391 2138 391 
Q 2594 391 2855 752 
Q 3116 1113 3116 1747 
z
" transform="scale(0.015625)"/>
       <path id="DejaVuSans-3a" d="M 750 794 
L 1409 794 
L 1409 0 
L 750 0 
L 750 794 
z
M 750 3309 
L 1409 3309 
L 1409 2516 
L 750 2516 
L 750 3309 
z
" transform="scale(0.015625)"/>
      </defs>
      <use xlink:href="#DejaVuSans-43"/>
      <use xlink:href="#DejaVuSans-6f" x="69.824219"/>
      <use xlink:href="#DejaVuSans-72" x="131.005859"/>
      <use xlink:href="#DejaVuSans-72" x="170.369141"/>
      <use xlink:href="#DejaVuSans-65" x="209.232422"/>
      <use xlink:href="#DejaVuSans-6c" x="270.755859"/>
      <use xlink:href="#DejaVuSans-61" x="298.539062"/>
      <use xlink:href="#DejaVuSans-74" x="359.818359"/>
      <use xlink:href="#DejaVuSans-69" x="399.027344"/>
      <use xlink:href="#DejaVuSans-6f" x="426.810547"/>
      <use xlink:href="#DejaVuSans-6e" x="487.992188"/>
      <use xlink:href="#DejaVuSans-20" x="551.371094"/>
      <use xlink:href="#DejaVuSans-74" x="583.158203"/>
      <use xlink:href="#DejaVuSans-79" x="622.367188"/>
      <use xlink:href="#DejaVuSans-70" x="681.546875"/>
      <use xlink:href="#DejaVuSans-65" x="745.023438"/>
      <use xlink:href="#DejaVuSans-3a" x="806.546875"/>
     </g>
    </g>
    <g id="patch_8">
     <path d="M 53.285156 88.876562 
L 73.285156 88.876562 
L 73.285156 81.876562 
L 53.285156 81.876562 
z
" style="fill: #1f77b4; fill-opacity: 0.5; stroke: #1f77b4; stroke-width: 2.5; stroke-linejoin: miter"/>
    </g>
    <g id="text_18">
     <!-- Codon -->
     <g transform="translate(81.285156 88.876562) scale(0.1 -0.1)">
      <defs>
       <path id="DejaVuSans-64" d="M 2906 2969 
L 2906 4863 
L 3481 4863 
L 3481 0 
L 2906 0 
L 2906 525 
Q 2725 213 2448 61 
Q 2172 -91 1784 -91 
Q 1150 -91 751 415 
Q 353 922 353 1747 
Q 353 2572 751 3078 
Q 1150 3584 1784 3584 
Q 2172 3584 2448 3432 
Q 2725 3281 2906 2969 
z
M 947 1747 
Q 947 1113 1208 752 
Q 1469 391 1925 391 
Q 2381 391 2643 752 
Q 2906 1113 2906 1747 
Q 2906 2381 2643 2742 
Q 2381 3103 1925 3103 
Q 1469 3103 1208 2742 
Q 947 2381 947 1747 
z
" transform="scale(0.015625)"/>
      </defs>
      <use xlink:href="#DejaVuSans-43"/>
      <use xlink:href="#DejaVuSans-6f" x="69.824219"/>
      <use xlink:href="#DejaVuSans-64" x="131.005859"/>
      <use xlink:href="#DejaVuSans-6f" x="194.482422"/>
      <use xlink:href="#DejaVuSans-6e" x="255.664062"/>
     </g>
    </g>
    <g id="patch_9">
     <path d="M 53.285156 103.554688 
L 73.285156 103.554688 
L 73.285156 96.554688 
L 53.285156 96.554688 
z
" style="fill: #ff7f0e; fill-opacity: 0.5; stroke: #ff7f0e; stroke-width: 2.5; stroke-linejoin: miter"/>
    </g>
    <g id="text_19">
     <!-- Codon+GC -->
     <g transform="translate(81.285156 103.554688) scale(0.1 -0.1)">
      <defs>
       <path id="DejaVuSans-2b" d="M 2944 4013 
L 2944 2272 
L 4684 2272 
L 4684 1741 
L 2944 1741 
L 2944 0 
L 2419 0 
L 2419 1741 
L 678 1741 
L 678 2272 
L 2419 2272 
L 2419 4013 
L 2944 4013 
z
" transform="scale(0.015625)"/>
       <path id="DejaVuSans-47" d="M 3809 666 
L 3809 1919 
L 2778 1919 
L 2778 2438 
L 4434 2438 
L 4434 434 
Q 4069 175 3628 42 
Q 3188 -91 2688 -91 
Q 1594 -91 976 548 
Q 359 1188 359 2328 
Q 359 3472 976 4111 
Q 1594 4750 2688 4750 
Q 3144 4750 3555 4637 
Q 3966 4525 4313 4306 
L 4313 3634 
Q 3963 3931 3569 4081 
Q 3175 4231 2741 4231 
Q 1884 4231 1454 3753 
Q 1025 3275 1025 2328 
Q 1025 1384 1454 906 
Q 1884 428 2741 428 
Q 3075 428 3337 486 
Q 3600 544 3809 666 
z
" transform="scale(0.015625)"/>
      </defs>
      <use xlink:href="#DejaVuSans-43"/>
      <use xlink:href="#DejaVuSans-6f" x="69.824219"/>
      <use xlink:href="#DejaVuSans-64" x="131.005859"/>
      <use xlink:href="#DejaVuSans-6f" x="194.482422"/>
      <use xlink:href="#DejaVuSans-6e" x="255.664062"/>
      <use xlink:href="#DejaVuSans-2b" x="319.042969"/>
      <use xlink:href="#DejaVuSans-47" x="402.832031"/>
      <use xlink:href="#DejaVuSans-43" x="480.322266"/>
     </g>
    </g>
   </g>
  </g>
  <g id="axes_2">
   <g id="patch_10">
    <path d="M 43.78125 612 
L 880.78125 612 
L 880.78125 370.956522 
L 43.78125 370.956522 
z
" style="fill: #ffffff"/>
   </g>
   <g id="PolyCollection_3">
    <defs>
     <path id="m007d3b7c8a" d="M 83.143196 -23.891558 
L 83.143196 -23.878125 
L 87.014473 -23.878125 
L 90.885751 -23.878125 
L 94.757029 -23.878125 
L 98.628306 -23.878125 
L 102.499584 -23.878125 
L 106.370862 -23.878125 
L 110.24214 -23.878125 
L 114.113417 -23.878125 
L 117.984695 -23.878125 
L 121.855973 -23.878125 
L 125.72725 -23.878125 
L 129.598528 -23.878125 
L 133.469806 -23.878125 
L 137.341083 -23.878125 
L 141.212361 -23.878125 
L 145.083639 -23.878125 
L 148.954917 -23.878125 
L 152.826194 -23.878125 
L 156.697472 -23.878125 
L 160.56875 -23.878125 
L 164.440027 -23.878125 
L 168.311305 -23.878125 
L 172.182583 -23.878125 
L 176.05386 -23.878125 
L 179.925138 -23.878125 
L 183.796416 -23.878125 
L 187.667694 -23.878125 
L 191.538971 -23.878125 
L 195.410249 -23.878125 
L 199.281527 -23.878125 
L 203.152804 -23.878125 
L 207.024082 -23.878125 
L 210.89536 -23.878125 
L 214.766637 -23.878125 
L 218.637915 -23.878125 
L 222.509193 -23.878125 
L 226.38047 -23.878125 
L 230.251748 -23.878125 
L 234.123026 -23.878125 
L 237.994304 -23.878125 
L 241.865581 -23.878125 
L 245.736859 -23.878125 
L 249.608137 -23.878125 
L 253.479414 -23.878125 
L 257.350692 -23.878125 
L 261.22197 -23.878125 
L 265.093247 -23.878125 
L 268.964525 -23.878125 
L 272.835803 -23.878125 
L 276.707081 -23.878125 
L 280.578358 -23.878125 
L 284.449636 -23.878125 
L 288.320914 -23.878125 
L 292.192191 -23.878125 
L 296.063469 -23.878125 
L 299.934747 -23.878125 
L 303.806024 -23.878125 
L 307.677302 -23.878125 
L 311.54858 -23.878125 
L 315.419858 -23.878125 
L 319.291135 -23.878125 
L 323.162413 -23.878125 
L 327.033691 -23.878125 
L 330.904968 -23.878125 
L 334.776246 -23.878125 
L 338.647524 -23.878125 
L 342.518801 -23.878125 
L 346.390079 -23.878125 
L 350.261357 -23.878125 
L 354.132635 -23.878125 
L 358.003912 -23.878125 
L 361.87519 -23.878125 
L 365.746468 -23.878125 
L 369.617745 -23.878125 
L 373.489023 -23.878125 
L 377.360301 -23.878125 
L 381.231578 -23.878125 
L 385.102856 -23.878125 
L 388.974134 -23.878125 
L 392.845412 -23.878125 
L 396.716689 -23.878125 
L 400.587967 -23.878125 
L 404.459245 -23.878125 
L 408.330522 -23.878125 
L 412.2018 -23.878125 
L 416.073078 -23.878125 
L 419.944355 -23.878125 
L 423.815633 -23.878125 
L 427.686911 -23.878125 
L 431.558188 -23.878125 
L 435.429466 -23.878125 
L 439.300744 -23.878125 
L 443.172022 -23.878125 
L 447.043299 -23.878125 
L 450.914577 -23.878125 
L 454.785855 -23.878125 
L 458.657132 -23.878125 
L 462.52841 -23.878125 
L 466.399688 -23.878125 
L 470.270965 -23.878125 
L 474.142243 -23.878125 
L 478.013521 -23.878125 
L 481.884799 -23.878125 
L 485.756076 -23.878125 
L 489.627354 -23.878125 
L 493.498632 -23.878125 
L 497.369909 -23.878125 
L 501.241187 -23.878125 
L 505.112465 -23.878125 
L 508.983742 -23.878125 
L 512.85502 -23.878125 
L 516.726298 -23.878125 
L 520.597576 -23.878125 
L 524.468853 -23.878125 
L 528.340131 -23.878125 
L 532.211409 -23.878125 
L 536.082686 -23.878125 
L 539.953964 -23.878125 
L 543.825242 -23.878125 
L 547.696519 -23.878125 
L 551.567797 -23.878125 
L 555.439075 -23.878125 
L 559.310353 -23.878125 
L 563.18163 -23.878125 
L 567.052908 -23.878125 
L 570.924186 -23.878125 
L 574.795463 -23.878125 
L 578.666741 -23.878125 
L 582.538019 -23.878125 
L 586.409296 -23.878125 
L 590.280574 -23.878125 
L 594.151852 -23.878125 
L 598.02313 -23.878125 
L 601.894407 -23.878125 
L 605.765685 -23.878125 
L 609.636963 -23.878125 
L 613.50824 -23.878125 
L 617.379518 -23.878125 
L 621.250796 -23.878125 
L 625.122073 -23.878125 
L 628.993351 -23.878125 
L 632.864629 -23.878125 
L 636.735906 -23.878125 
L 640.607184 -23.878125 
L 644.478462 -23.878125 
L 648.34974 -23.878125 
L 652.221017 -23.878125 
L 656.092295 -23.878125 
L 659.963573 -23.878125 
L 663.83485 -23.878125 
L 667.706128 -23.878125 
L 671.577406 -23.878125 
L 675.448683 -23.878125 
L 679.319961 -23.878125 
L 683.191239 -23.878125 
L 687.062517 -23.878125 
L 690.933794 -23.878125 
L 694.805072 -23.878125 
L 698.67635 -23.878125 
L 702.547627 -23.878125 
L 706.418905 -23.878125 
L 710.290183 -23.878125 
L 714.16146 -23.878125 
L 718.032738 -23.878125 
L 721.904016 -23.878125 
L 725.775294 -23.878125 
L 729.646571 -23.878125 
L 733.517849 -23.878125 
L 737.389127 -23.878125 
L 741.260404 -23.878125 
L 745.131682 -23.878125 
L 749.00296 -23.878125 
L 752.874237 -23.878125 
L 756.745515 -23.878125 
L 760.616793 -23.878125 
L 764.488071 -23.878125 
L 768.359348 -23.878125 
L 772.230626 -23.878125 
L 776.101904 -23.878125 
L 779.973181 -23.878125 
L 783.844459 -23.878125 
L 787.715737 -23.878125 
L 791.587014 -23.878125 
L 795.458292 -23.878125 
L 799.32957 -23.878125 
L 803.200847 -23.878125 
L 807.072125 -23.878125 
L 810.943403 -23.878125 
L 814.814681 -23.878125 
L 818.685958 -23.878125 
L 822.557236 -23.878125 
L 826.428514 -23.878125 
L 830.299791 -23.878125 
L 834.171069 -23.878125 
L 838.042347 -23.878125 
L 841.913624 -23.878125 
L 845.784902 -23.878125 
L 849.65618 -23.878125 
L 853.527458 -23.878125 
L 853.527458 -23.899533 
L 853.527458 -23.899533 
L 849.65618 -23.910461 
L 845.784902 -23.92632 
L 841.913624 -23.949017 
L 838.042347 -23.981055 
L 834.171069 -24.025666 
L 830.299791 -24.086949 
L 826.428514 -24.17002 
L 822.557236 -24.281155 
L 818.685958 -24.427917 
L 814.814681 -24.619269 
L 810.943403 -24.86565 
L 807.072125 -25.17902 
L 803.200847 -25.572848 
L 799.32957 -26.062067 
L 795.458292 -26.662985 
L 791.587014 -27.393167 
L 787.715737 -28.271299 
L 783.844459 -29.317068 
L 779.973181 -30.551053 
L 776.101904 -31.994655 
L 772.230626 -33.670073 
L 768.359348 -35.600287 
L 764.488071 -37.809051 
L 760.616793 -40.320812 
L 756.745515 -43.160504 
L 752.874237 -46.353133 
L 749.00296 -49.923071 
L 745.131682 -53.893007 
L 741.260404 -58.282513 
L 737.389127 -63.106248 
L 733.517849 -68.371886 
L 729.646571 -74.077891 
L 725.775294 -80.211341 
L 721.904016 -86.746054 
L 718.032738 -93.641258 
L 714.16146 -100.841056 
L 710.290183 -108.2749 
L 706.418905 -115.859169 
L 702.547627 -123.49989 
L 698.67635 -131.096466 
L 694.805072 -138.5462 
L 690.933794 -145.749267 
L 687.062517 -152.613718 
L 683.191239 -159.060084 
L 679.319961 -165.025144 
L 675.448683 -170.464514 
L 671.577406 -175.353821 
L 667.706128 -179.688353 
L 663.83485 -183.481277 
L 659.963573 -186.760604 
L 656.092295 -189.565273 
L 652.221017 -191.940732 
L 648.34974 -193.934497 
L 644.478462 -195.592074 
L 640.607184 -196.953627 
L 636.735906 -198.051617 
L 632.864629 -198.909545 
L 628.993351 -199.541804 
L 625.122073 -199.954519 
L 621.250796 -200.147202 
L 617.379518 -200.114964 
L 613.50824 -199.851027 
L 609.636963 -199.349278 
L 605.765685 -198.606629 
L 601.894407 -197.624995 
L 598.02313 -196.412714 
L 594.151852 -194.985332 
L 590.280574 -193.365661 
L 586.409296 -191.583106 
L 582.538019 -189.672312 
L 578.666741 -187.671208 
L 574.795463 -185.61863 
L 570.924186 -183.551718 
L 567.052908 -181.503351 
L 563.18163 -179.499891 
L 559.310353 -177.55948 
L 555.439075 -175.691108 
L 551.567797 -173.89456 
L 547.696519 -172.161258 
L 543.825242 -170.475877 
L 539.953964 -168.818542 
L 536.082686 -167.167292 
L 532.211409 -165.500486 
L 528.340131 -163.798852 
L 524.468853 -162.046901 
L 520.597576 -160.23359 
L 516.726298 -158.352186 
L 512.85502 -156.399448 
L 508.983742 -154.374342 
L 505.112465 -152.276536 
L 501.241187 -150.104994 
L 497.369909 -147.856918 
L 493.498632 -145.527222 
L 489.627354 -143.108641 
L 485.756076 -140.592447 
L 481.884799 -137.969653 
L 478.013521 -135.232528 
L 474.142243 -132.376168 
L 470.270965 -129.399914 
L 466.399688 -126.308389 
L 462.52841 -123.112034 
L 458.657132 -119.82706 
L 454.785855 -116.474827 
L 450.914577 -113.080737 
L 447.043299 -109.672765 
L 443.172022 -106.279794 
L 439.300744 -102.929927 
L 435.429466 -99.648933 
L 431.558188 -96.45896 
L 427.686911 -93.377605 
L 423.815633 -90.417394 
L 419.944355 -87.585669 
L 416.073078 -84.88487 
L 412.2018 -82.313132 
L 408.330522 -79.865146 
L 404.459245 -77.533176 
L 400.587967 -75.308157 
L 396.716689 -73.180784 
L 392.845412 -71.142514 
L 388.974134 -69.186404 
L 385.102856 -67.307744 
L 381.231578 -65.504424 
L 377.360301 -63.777019 
L 373.489023 -62.128577 
L 369.617745 -60.564128 
L 365.746468 -59.089946 
L 361.87519 -57.712626 
L 358.003912 -56.438047 
L 354.132635 -55.270329 
L 350.261357 -54.210866 
L 346.390079 -53.257559 
L 342.518801 -52.404316 
L 338.647524 -51.640898 
L 334.776246 -50.953142 
L 330.904968 -50.32355 
L 327.033691 -49.732226 
L 323.162413 -49.158051 
L 319.291135 -48.580023 
L 315.419858 -47.978617 
L 311.54858 -47.337038 
L 307.677302 -46.642265 
L 303.806024 -45.885768 
L 299.934747 -45.063853 
L 296.063469 -44.177609 
L 292.192191 -43.232474 
L 288.320914 -42.237503 
L 284.449636 -41.204395 
L 280.578358 -40.146431 
L 276.707081 -39.0774 
L 272.835803 -38.01065 
L 268.964525 -36.958325 
L 265.093247 -35.930855 
L 261.22197 -34.936702 
L 257.350692 -33.982362 
L 253.479414 -33.072563 
L 249.608137 -32.210601 
L 245.736859 -31.398734 
L 241.865581 -30.63857 
L 237.994304 -29.931377 
L 234.123026 -29.278277 
L 230.251748 -28.680317 
L 226.38047 -28.138399 
L 222.509193 -27.653114 
L 218.637915 -27.224516 
L 214.766637 -26.851868 
L 210.89536 -26.533431 
L 207.024082 -26.26632 
L 203.152804 -26.046463 
L 199.281527 -25.868677 
L 195.410249 -25.726858 
L 191.538971 -25.614268 
L 187.667694 -25.52389 
L 183.796416 -25.44882 
L 179.925138 -25.382641 
L 176.05386 -25.319764 
L 172.182583 -25.255687 
L 168.311305 -25.187152 
L 164.440027 -25.112203 
L 160.56875 -25.030138 
L 156.697472 -24.941358 
L 152.826194 -24.847162 
L 148.954917 -24.749486 
L 145.083639 -24.650633 
L 141.212361 -24.55301 
L 137.341083 -24.458904 
L 133.469806 -24.370301 
L 129.598528 -24.288768 
L 125.72725 -24.215393 
L 121.855973 -24.150773 
L 117.984695 -24.095048 
L 114.113417 -24.047972 
L 110.24214 -24.008994 
L 106.370862 -23.977352 
L 102.499584 -23.952158 
L 98.628306 -23.932476 
L 94.757029 -23.917388 
L 90.885751 -23.906034 
L 87.014473 -23.897645 
L 83.143196 -23.891558 
z
" style="stroke: #ff7f0e; stroke-width: 2.5"/>
    </defs>
    <g clip-path="url(#pb0862d2606)">
     <use xlink:href="#m007d3b7c8a" x="0" y="635.878125" style="fill: #ff7f0e; fill-opacity: 0.5; stroke: #ff7f0e; stroke-width: 2.5"/>
    </g>
   </g>
   <g id="PolyCollection_4">
    <defs>
     <path id="me7fa9785a7" d="M 82.75594 -23.892722 
L 82.75594 -23.878125 
L 86.672994 -23.878125 
L 90.590048 -23.878125 
L 94.507102 -23.878125 
L 98.424157 -23.878125 
L 102.341211 -23.878125 
L 106.258265 -23.878125 
L 110.175319 -23.878125 
L 114.092374 -23.878125 
L 118.009428 -23.878125 
L 121.926482 -23.878125 
L 125.843536 -23.878125 
L 129.760591 -23.878125 
L 133.677645 -23.878125 
L 137.594699 -23.878125 
L 141.511753 -23.878125 
L 145.428808 -23.878125 
L 149.345862 -23.878125 
L 153.262916 -23.878125 
L 157.17997 -23.878125 
L 161.097025 -23.878125 
L 165.014079 -23.878125 
L 168.931133 -23.878125 
L 172.848187 -23.878125 
L 176.765242 -23.878125 
L 180.682296 -23.878125 
L 184.59935 -23.878125 
L 188.516404 -23.878125 
L 192.433459 -23.878125 
L 196.350513 -23.878125 
L 200.267567 -23.878125 
L 204.184621 -23.878125 
L 208.101676 -23.878125 
L 212.01873 -23.878125 
L 215.935784 -23.878125 
L 219.852838 -23.878125 
L 223.769893 -23.878125 
L 227.686947 -23.878125 
L 231.604001 -23.878125 
L 235.521055 -23.878125 
L 239.438109 -23.878125 
L 243.355164 -23.878125 
L 247.272218 -23.878125 
L 251.189272 -23.878125 
L 255.106326 -23.878125 
L 259.023381 -23.878125 
L 262.940435 -23.878125 
L 266.857489 -23.878125 
L 270.774543 -23.878125 
L 274.691598 -23.878125 
L 278.608652 -23.878125 
L 282.525706 -23.878125 
L 286.44276 -23.878125 
L 290.359815 -23.878125 
L 294.276869 -23.878125 
L 298.193923 -23.878125 
L 302.110977 -23.878125 
L 306.028032 -23.878125 
L 309.945086 -23.878125 
L 313.86214 -23.878125 
L 317.779194 -23.878125 
L 321.696249 -23.878125 
L 325.613303 -23.878125 
L 329.530357 -23.878125 
L 333.447411 -23.878125 
L 337.364466 -23.878125 
L 341.28152 -23.878125 
L 345.198574 -23.878125 
L 349.115628 -23.878125 
L 353.032683 -23.878125 
L 356.949737 -23.878125 
L 360.866791 -23.878125 
L 364.783845 -23.878125 
L 368.7009 -23.878125 
L 372.617954 -23.878125 
L 376.535008 -23.878125 
L 380.452062 -23.878125 
L 384.369117 -23.878125 
L 388.286171 -23.878125 
L 392.203225 -23.878125 
L 396.120279 -23.878125 
L 400.037333 -23.878125 
L 403.954388 -23.878125 
L 407.871442 -23.878125 
L 411.788496 -23.878125 
L 415.70555 -23.878125 
L 419.622605 -23.878125 
L 423.539659 -23.878125 
L 427.456713 -23.878125 
L 431.373767 -23.878125 
L 435.290822 -23.878125 
L 439.207876 -23.878125 
L 443.12493 -23.878125 
L 447.041984 -23.878125 
L 450.959039 -23.878125 
L 454.876093 -23.878125 
L 458.793147 -23.878125 
L 462.710201 -23.878125 
L 466.627256 -23.878125 
L 470.54431 -23.878125 
L 474.461364 -23.878125 
L 478.378418 -23.878125 
L 482.295473 -23.878125 
L 486.212527 -23.878125 
L 490.129581 -23.878125 
L 494.046635 -23.878125 
L 497.96369 -23.878125 
L 501.880744 -23.878125 
L 505.797798 -23.878125 
L 509.714852 -23.878125 
L 513.631907 -23.878125 
L 517.548961 -23.878125 
L 521.466015 -23.878125 
L 525.383069 -23.878125 
L 529.300124 -23.878125 
L 533.217178 -23.878125 
L 537.134232 -23.878125 
L 541.051286 -23.878125 
L 544.968341 -23.878125 
L 548.885395 -23.878125 
L 552.802449 -23.878125 
L 556.719503 -23.878125 
L 560.636557 -23.878125 
L 564.553612 -23.878125 
L 568.470666 -23.878125 
L 572.38772 -23.878125 
L 576.304774 -23.878125 
L 580.221829 -23.878125 
L 584.138883 -23.878125 
L 588.055937 -23.878125 
L 591.972991 -23.878125 
L 595.890046 -23.878125 
L 599.8071 -23.878125 
L 603.724154 -23.878125 
L 607.641208 -23.878125 
L 611.558263 -23.878125 
L 615.475317 -23.878125 
L 619.392371 -23.878125 
L 623.309425 -23.878125 
L 627.22648 -23.878125 
L 631.143534 -23.878125 
L 635.060588 -23.878125 
L 638.977642 -23.878125 
L 642.894697 -23.878125 
L 646.811751 -23.878125 
L 650.728805 -23.878125 
L 654.645859 -23.878125 
L 658.562914 -23.878125 
L 662.479968 -23.878125 
L 666.397022 -23.878125 
L 670.314076 -23.878125 
L 674.231131 -23.878125 
L 678.148185 -23.878125 
L 682.065239 -23.878125 
L 685.982293 -23.878125 
L 689.899348 -23.878125 
L 693.816402 -23.878125 
L 697.733456 -23.878125 
L 701.65051 -23.878125 
L 705.567565 -23.878125 
L 709.484619 -23.878125 
L 713.401673 -23.878125 
L 717.318727 -23.878125 
L 721.235781 -23.878125 
L 725.152836 -23.878125 
L 729.06989 -23.878125 
L 732.986944 -23.878125 
L 736.903998 -23.878125 
L 740.821053 -23.878125 
L 744.738107 -23.878125 
L 748.655161 -23.878125 
L 752.572215 -23.878125 
L 756.48927 -23.878125 
L 760.406324 -23.878125 
L 764.323378 -23.878125 
L 768.240432 -23.878125 
L 772.157487 -23.878125 
L 776.074541 -23.878125 
L 779.991595 -23.878125 
L 783.908649 -23.878125 
L 787.825704 -23.878125 
L 791.742758 -23.878125 
L 795.659812 -23.878125 
L 799.576866 -23.878125 
L 803.493921 -23.878125 
L 807.410975 -23.878125 
L 811.328029 -23.878125 
L 815.245083 -23.878125 
L 819.162138 -23.878125 
L 823.079192 -23.878125 
L 826.996246 -23.878125 
L 830.9133 -23.878125 
L 834.830355 -23.878125 
L 838.747409 -23.878125 
L 842.664463 -23.878125 
L 846.581517 -23.878125 
L 850.498572 -23.878125 
L 854.415626 -23.878125 
L 858.33268 -23.878125 
L 862.249734 -23.878125 
L 862.249734 -23.931362 
L 862.249734 -23.931362 
L 858.33268 -23.956406 
L 854.415626 -23.991712 
L 850.498572 -24.040788 
L 846.581517 -24.108066 
L 842.664463 -24.199038 
L 838.747409 -24.320395 
L 834.830355 -24.48015 
L 830.9133 -24.687727 
L 826.996246 -24.954032 
L 823.079192 -25.291471 
L 819.162138 -25.713933 
L 815.245083 -26.236734 
L 811.328029 -26.876516 
L 807.410975 -27.651127 
L 803.493921 -28.579465 
L 799.576866 -29.681321 
L 795.659812 -30.977203 
L 791.742758 -32.488149 
L 787.825704 -34.235517 
L 783.908649 -36.240737 
L 779.991595 -38.524987 
L 776.074541 -41.108788 
L 772.157487 -44.01146 
L 768.240432 -47.250444 
L 764.323378 -50.840478 
L 760.406324 -54.792627 
L 756.48927 -59.113236 
L 752.572215 -63.802844 
L 748.655161 -68.855158 
L 744.738107 -74.256193 
L 740.821053 -79.983669 
L 736.903998 -86.006769 
L 732.986944 -92.286331 
L 729.06989 -98.775503 
L 725.152836 -105.420855 
L 721.235781 -112.163904 
L 717.318727 -118.942944 
L 713.401673 -125.695052 
L 709.484619 -132.358132 
L 705.567565 -138.872822 
L 701.65051 -145.18415 
L 697.733456 -151.242817 
L 693.816402 -157.006051 
L 689.899348 -162.438021 
L 685.982293 -167.509853 
L 682.065239 -172.19931 
L 678.148185 -176.490272 
L 674.231131 -180.372107 
L 670.314076 -183.839067 
L 666.397022 -186.889788 
L 662.479968 -189.526947 
L 658.562914 -191.757098 
L 654.645859 -193.590645 
L 650.728805 -195.041888 
L 646.811751 -196.129057 
L 642.894697 -196.874237 
L 638.977642 -197.303089 
L 635.060588 -197.444319 
L 631.143534 -197.328859 
L 627.22648 -196.988793 
L 623.309425 -196.456062 
L 619.392371 -195.761076 
L 615.475317 -194.931308 
L 611.558263 -193.990026 
L 607.641208 -192.955251 
L 603.724154 -191.839043 
L 599.8071 -190.647175 
L 595.890046 -189.379214 
L 591.972991 -188.029013 
L 588.055937 -186.585559 
L 584.138883 -185.034126 
L 580.221829 -183.357662 
L 576.304774 -181.538306 
L 572.38772 -179.558976 
L 568.470666 -177.404921 
L 564.553612 -175.065174 
L 560.636557 -172.53382 
L 556.719503 -169.811011 
L 552.802449 -166.903668 
L 548.885395 -163.825819 
L 544.968341 -160.598526 
L 541.051286 -157.249391 
L 537.134232 -153.811644 
L 533.217178 -150.322844 
L 529.300124 -146.823262 
L 525.383069 -143.354022 
L 521.466015 -139.955133 
L 517.548961 -136.663517 
L 513.631907 -133.51119 
L 509.714852 -130.523694 
L 505.797798 -127.718921 
L 501.880744 -125.106391 
L 497.96369 -122.687039 
L 494.046635 -120.453523 
L 490.129581 -118.391025 
L 486.212527 -116.478467 
L 482.295473 -114.690058 
L 478.378418 -112.997042 
L 474.461364 -111.369523 
L 470.54431 -109.77823 
L 466.627256 -108.196115 
L 462.710201 -106.599685 
L 458.793147 -104.969993 
L 454.876093 -103.29326 
L 450.959039 -101.561119 
L 447.041984 -99.770504 
L 443.12493 -97.923227 
L 439.207876 -96.025313 
L 435.290822 -94.086165 
L 431.373767 -92.117638 
L 427.456713 -90.133105 
L 423.539659 -88.146577 
L 419.622605 -86.171944 
L 415.70555 -84.222359 
L 411.788496 -82.309807 
L 407.871442 -80.444831 
L 403.954388 -78.636413 
L 400.037333 -76.891963 
L 396.120279 -75.217361 
L 392.203225 -73.617014 
L 388.286171 -72.093877 
L 384.369117 -70.649405 
L 380.452062 -69.28343 
L 376.535008 -67.993971 
L 372.617954 -66.777025 
L 368.7009 -65.626366 
L 364.783845 -64.533443 
L 360.866791 -63.487407 
L 356.949737 -62.475339 
L 353.032683 -61.482688 
L 349.115628 -60.493919 
L 345.198574 -59.493342 
L 341.28152 -58.466065 
L 337.364466 -57.398976 
L 333.447411 -56.281672 
L 329.530357 -55.107233 
L 325.613303 -53.872772 
L 321.696249 -52.579675 
L 317.779194 -51.233531 
L 313.86214 -49.84373 
L 309.945086 -48.42278 
L 306.028032 -46.985391 
L 302.110977 -45.547445 
L 298.193923 -44.124906 
L 294.276869 -42.732813 
L 290.359815 -41.384422 
L 286.44276 -40.090567 
L 282.525706 -38.859299 
L 278.608652 -37.695804 
L 274.691598 -36.602583 
L 270.774543 -35.579852 
L 266.857489 -34.626098 
L 262.940435 -33.738699 
L 259.023381 -32.91454 
L 255.106326 -32.150554 
L 251.189272 -31.444106 
L 247.272218 -30.79322 
L 243.355164 -30.196613 
L 239.438109 -29.653558 
L 235.521055 -29.163623 
L 231.604001 -28.72632 
L 227.686947 -28.340735 
L 223.769893 -28.005199 
L 219.852838 -27.717031 
L 215.935784 -27.472417 
L 212.01873 -27.266416 
L 208.101676 -27.09311 
L 204.184621 -26.945867 
L 200.267567 -26.817702 
L 196.350513 -26.701676 
L 192.433459 -26.591301 
L 188.516404 -26.480912 
L 184.59935 -26.365959 
L 180.682296 -26.243202 
L 176.765242 -26.1108 
L 172.848187 -25.968284 
L 168.931133 -25.816427 
L 165.014079 -25.65704 
L 161.097025 -25.492708 
L 157.17997 -25.326499 
L 153.262916 -25.161672 
L 149.345862 -25.001414 
L 145.428808 -24.848614 
L 141.511753 -24.705698 
L 137.594699 -24.57452 
L 133.677645 -24.456317 
L 129.760591 -24.351712 
L 125.843536 -24.260769 
L 121.926482 -24.183067 
L 118.009428 -24.117807 
L 114.092374 -24.063913 
L 110.175319 -24.020143 
L 106.258265 -23.985175 
L 102.341211 -23.957691 
L 98.424157 -23.936436 
L 94.507102 -23.920259 
L 90.590048 -23.908141 
L 86.672994 -23.899207 
L 82.75594 -23.892722 
z
" style="stroke: #1f77b4; stroke-width: 2.5"/>
    </defs>
    <g clip-path="url(#pb0862d2606)">
     <use xlink:href="#me7fa9785a7" x="0" y="635.878125" style="fill: #1f77b4; fill-opacity: 0.5; stroke: #1f77b4; stroke-width: 2.5"/>
    </g>
   </g>
   <g id="matplotlib.axis_3">
    <g id="xtick_7">
     <g id="line2d_15">
      <g>
       <use xlink:href="#m34fa75b518" x="129.946268" y="612" style="stroke: #000000; stroke-width: 0.8"/>
      </g>
     </g>
     <g id="text_20">
      <!-- 0.0 -->
      <g transform="translate(121.994705 626.598438) scale(0.1 -0.1)">
       <use xlink:href="#DejaVuSans-30"/>
       <use xlink:href="#DejaVuSans-2e" x="63.623047"/>
       <use xlink:href="#DejaVuSans-30" x="95.410156"/>
      </g>
     </g>
    </g>
    <g id="xtick_8">
     <g id="line2d_16">
      <g>
       <use xlink:href="#m34fa75b518" x="276.282259" y="612" style="stroke: #000000; stroke-width: 0.8"/>
      </g>
     </g>
     <g id="text_21">
      <!-- 0.2 -->
      <g transform="translate(268.330696 626.598438) scale(0.1 -0.1)">
       <use xlink:href="#DejaVuSans-30"/>
       <use xlink:href="#DejaVuSans-2e" x="63.623047"/>
       <use xlink:href="#DejaVuSans-32" x="95.410156"/>
      </g>
     </g>
    </g>
    <g id="xtick_9">
     <g id="line2d_17">
      <g>
       <use xlink:href="#m34fa75b518" x="422.61825" y="612" style="stroke: #000000; stroke-width: 0.8"/>
      </g>
     </g>
     <g id="text_22">
      <!-- 0.4 -->
      <g transform="translate(414.666687 626.598438) scale(0.1 -0.1)">
       <use xlink:href="#DejaVuSans-30"/>
       <use xlink:href="#DejaVuSans-2e" x="63.623047"/>
       <use xlink:href="#DejaVuSans-34" x="95.410156"/>
      </g>
     </g>
    </g>
    <g id="xtick_10">
     <g id="line2d_18">
      <g>
       <use xlink:href="#m34fa75b518" x="568.954241" y="612" style="stroke: #000000; stroke-width: 0.8"/>
      </g>
     </g>
     <g id="text_23">
      <!-- 0.6 -->
      <g transform="translate(561.002678 626.598438) scale(0.1 -0.1)">
       <use xlink:href="#DejaVuSans-30"/>
       <use xlink:href="#DejaVuSans-2e" x="63.623047"/>
       <use xlink:href="#DejaVuSans-36" x="95.410156"/>
      </g>
     </g>
    </g>
    <g id="xtick_11">
     <g id="line2d_19">
      <g>
       <use xlink:href="#m34fa75b518" x="715.290232" y="612" style="stroke: #000000; stroke-width: 0.8"/>
      </g>
     </g>
     <g id="text_24">
      <!-- 0.8 -->
      <g transform="translate(707.338669 626.598438) scale(0.1 -0.1)">
       <use xlink:href="#DejaVuSans-30"/>
       <use xlink:href="#DejaVuSans-2e" x="63.623047"/>
       <use xlink:href="#DejaVuSans-38" x="95.410156"/>
      </g>
     </g>
    </g>
    <g id="xtick_12">
     <g id="line2d_20">
      <g>
       <use xlink:href="#m34fa75b518" x="861.626223" y="612" style="stroke: #000000; stroke-width: 0.8"/>
      </g>
     </g>
     <g id="text_25">
      <!-- 1.0 -->
      <g transform="translate(853.67466 626.598438) scale(0.1 -0.1)">
       <use xlink:href="#DejaVuSans-31"/>
       <use xlink:href="#DejaVuSans-2e" x="63.623047"/>
       <use xlink:href="#DejaVuSans-30" x="95.410156"/>
      </g>
     </g>
    </g>
   </g>
   <g id="matplotlib.axis_4">
    <g id="ytick_9">
     <g id="line2d_21">
      <g>
       <use xlink:href="#m508891e97b" x="43.78125" y="612" style="stroke: #000000; stroke-width: 0.8"/>
      </g>
     </g>
     <g id="text_26">
      <!-- 0.0 -->
      <g transform="translate(20.878125 615.799219) scale(0.1 -0.1)">
       <use xlink:href="#DejaVuSans-30"/>
       <use xlink:href="#DejaVuSans-2e" x="63.623047"/>
       <use xlink:href="#DejaVuSans-30" x="95.410156"/>
      </g>
     </g>
    </g>
    <g id="ytick_10">
     <g id="line2d_22">
      <g>
       <use xlink:href="#m508891e97b" x="43.78125" y="579.487998" style="stroke: #000000; stroke-width: 0.8"/>
      </g>
     </g>
     <g id="text_27">
      <!-- 0.5 -->
      <g transform="translate(20.878125 583.287216) scale(0.1 -0.1)">
       <use xlink:href="#DejaVuSans-30"/>
       <use xlink:href="#DejaVuSans-2e" x="63.623047"/>
       <use xlink:href="#DejaVuSans-35" x="95.410156"/>
      </g>
     </g>
    </g>
    <g id="ytick_11">
     <g id="line2d_23">
      <g>
       <use xlink:href="#m508891e97b" x="43.78125" y="546.975995" style="stroke: #000000; stroke-width: 0.8"/>
      </g>
     </g>
     <g id="text_28">
      <!-- 1.0 -->
      <g transform="translate(20.878125 550.775214) scale(0.1 -0.1)">
       <use xlink:href="#DejaVuSans-31"/>
       <use xlink:href="#DejaVuSans-2e" x="63.623047"/>
       <use xlink:href="#DejaVuSans-30" x="95.410156"/>
      </g>
     </g>
    </g>
    <g id="ytick_12">
     <g id="line2d_24">
      <g>
       <use xlink:href="#m508891e97b" x="43.78125" y="514.463993" style="stroke: #000000; stroke-width: 0.8"/>
      </g>
     </g>
     <g id="text_29">
      <!-- 1.5 -->
      <g transform="translate(20.878125 518.263212) scale(0.1 -0.1)">
       <use xlink:href="#DejaVuSans-31"/>
       <use xlink:href="#DejaVuSans-2e" x="63.623047"/>
       <use xlink:href="#DejaVuSans-35" x="95.410156"/>
      </g>
     </g>
    </g>
    <g id="ytick_13">
     <g id="line2d_25">
      <g>
       <use xlink:href="#m508891e97b" x="43.78125" y="481.951991" style="stroke: #000000; stroke-width: 0.8"/>
      </g>
     </g>
     <g id="text_30">
      <!-- 2.0 -->
      <g transform="translate(20.878125 485.751209) scale(0.1 -0.1)">
       <use xlink:href="#DejaVuSans-32"/>
       <use xlink:href="#DejaVuSans-2e" x="63.623047"/>
       <use xlink:href="#DejaVuSans-30" x="95.410156"/>
      </g>
     </g>
    </g>
    <g id="ytick_14">
     <g id="line2d_26">
      <g>
       <use xlink:href="#m508891e97b" x="43.78125" y="449.439988" style="stroke: #000000; stroke-width: 0.8"/>
      </g>
     </g>
     <g id="text_31">
      <!-- 2.5 -->
      <g transform="translate(20.878125 453.239207) scale(0.1 -0.1)">
       <use xlink:href="#DejaVuSans-32"/>
       <use xlink:href="#DejaVuSans-2e" x="63.623047"/>
       <use xlink:href="#DejaVuSans-35" x="95.410156"/>
      </g>
     </g>
    </g>
    <g id="ytick_15">
     <g id="line2d_27">
      <g>
       <use xlink:href="#m508891e97b" x="43.78125" y="416.927986" style="stroke: #000000; stroke-width: 0.8"/>
      </g>
     </g>
     <g id="text_32">
      <!-- 3.0 -->
      <g transform="translate(20.878125 420.727205) scale(0.1 -0.1)">
       <use xlink:href="#DejaVuSans-33"/>
       <use xlink:href="#DejaVuSans-2e" x="63.623047"/>
       <use xlink:href="#DejaVuSans-30" x="95.410156"/>
      </g>
     </g>
    </g>
    <g id="ytick_16">
     <g id="line2d_28">
      <g>
       <use xlink:href="#m508891e97b" x="43.78125" y="384.415984" style="stroke: #000000; stroke-width: 0.8"/>
      </g>
     </g>
     <g id="text_33">
      <!-- 3.5 -->
      <g transform="translate(20.878125 388.215202) scale(0.1 -0.1)">
       <use xlink:href="#DejaVuSans-33"/>
       <use xlink:href="#DejaVuSans-2e" x="63.623047"/>
       <use xlink:href="#DejaVuSans-35" x="95.410156"/>
      </g>
     </g>
    </g>
    <g id="text_34">
     <!-- Density -->
     <g transform="translate(14.798438 510.486855) rotate(-90) scale(0.1 -0.1)">
      <use xlink:href="#DejaVuSans-44"/>
      <use xlink:href="#DejaVuSans-65" x="77.001953"/>
      <use xlink:href="#DejaVuSans-6e" x="138.525391"/>
      <use xlink:href="#DejaVuSans-73" x="201.904297"/>
      <use xlink:href="#DejaVuSans-69" x="254.003906"/>
      <use xlink:href="#DejaVuSans-74" x="281.787109"/>
      <use xlink:href="#DejaVuSans-79" x="320.996094"/>
     </g>
    </g>
   </g>
   <g id="patch_11">
    <path d="M 43.78125 612 
L 43.78125 370.956522 
" style="fill: none; stroke: #000000; stroke-width: 0.8; stroke-linejoin: miter; stroke-linecap: square"/>
   </g>
   <g id="patch_12">
    <path d="M 880.78125 612 
L 880.78125 370.956522 
" style="fill: none; stroke: #000000; stroke-width: 0.8; stroke-linejoin: miter; stroke-linecap: square"/>
   </g>
   <g id="patch_13">
    <path d="M 43.78125 612 
L 880.78125 612 
" style="fill: none; stroke: #000000; stroke-width: 0.8; stroke-linejoin: miter; stroke-linecap: square"/>
   </g>
   <g id="patch_14">
    <path d="M 43.78125 370.956522 
L 880.78125 370.956522 
" style="fill: none; stroke: #000000; stroke-width: 0.8; stroke-linejoin: miter; stroke-linecap: square"/>
   </g>
   <g id="text_35">
    <!-- Spearman correlation coefficients -->
    <g transform="translate(361.111875 364.956522) scale(0.12 -0.12)">
     <defs>
      <path id="DejaVuSans-53" d="M 3425 4513 
L 3425 3897 
Q 3066 4069 2747 4153 
Q 2428 4238 2131 4238 
Q 1616 4238 1336 4038 
Q 1056 3838 1056 3469 
Q 1056 3159 1242 3001 
Q 1428 2844 1947 2747 
L 2328 2669 
Q 3034 2534 3370 2195 
Q 3706 1856 3706 1288 
Q 3706 609 3251 259 
Q 2797 -91 1919 -91 
Q 1588 -91 1214 -16 
Q 841 59 441 206 
L 441 856 
Q 825 641 1194 531 
Q 1563 422 1919 422 
Q 2459 422 2753 634 
Q 3047 847 3047 1241 
Q 3047 1584 2836 1778 
Q 2625 1972 2144 2069 
L 1759 2144 
Q 1053 2284 737 2584 
Q 422 2884 422 3419 
Q 422 4038 858 4394 
Q 1294 4750 2059 4750 
Q 2388 4750 2728 4690 
Q 3069 4631 3425 4513 
z
" transform="scale(0.015625)"/>
      <path id="DejaVuSans-6d" d="M 3328 2828 
Q 3544 3216 3844 3400 
Q 4144 3584 4550 3584 
Q 5097 3584 5394 3201 
Q 5691 2819 5691 2113 
L 5691 0 
L 5113 0 
L 5113 2094 
Q 5113 2597 4934 2840 
Q 4756 3084 4391 3084 
Q 3944 3084 3684 2787 
Q 3425 2491 3425 1978 
L 3425 0 
L 2847 0 
L 2847 2094 
Q 2847 2600 2669 2842 
Q 2491 3084 2119 3084 
Q 1678 3084 1418 2786 
Q 1159 2488 1159 1978 
L 1159 0 
L 581 0 
L 581 3500 
L 1159 3500 
L 1159 2956 
Q 1356 3278 1631 3431 
Q 1906 3584 2284 3584 
Q 2666 3584 2933 3390 
Q 3200 3197 3328 2828 
z
" transform="scale(0.015625)"/>
     </defs>
     <use xlink:href="#DejaVuSans-53"/>
     <use xlink:href="#DejaVuSans-70" x="63.476562"/>
     <use xlink:href="#DejaVuSans-65" x="126.953125"/>
     <use xlink:href="#DejaVuSans-61" x="188.476562"/>
     <use xlink:href="#DejaVuSans-72" x="249.755859"/>
     <use xlink:href="#DejaVuSans-6d" x="289.119141"/>
     <use xlink:href="#DejaVuSans-61" x="386.53125"/>
     <use xlink:href="#DejaVuSans-6e" x="447.810547"/>
     <use xlink:href="#DejaVuSans-20" x="511.189453"/>
     <use xlink:href="#DejaVuSans-63" x="542.976562"/>
     <use xlink:href="#DejaVuSans-6f" x="597.957031"/>
     <use xlink:href="#DejaVuSans-72" x="659.138672"/>
     <use xlink:href="#DejaVuSans-72" x="698.501953"/>
     <use xlink:href="#DejaVuSans-65" x="737.365234"/>
     <use xlink:href="#DejaVuSans-6c" x="798.888672"/>
     <use xlink:href="#DejaVuSans-61" x="826.671875"/>
     <use xlink:href="#DejaVuSans-74" x="887.951172"/>
     <use xlink:href="#DejaVuSans-69" x="927.160156"/>
     <use xlink:href="#DejaVuSans-6f" x="954.943359"/>
     <use xlink:href="#DejaVuSans-6e" x="1016.125"/>
     <use xlink:href="#DejaVuSans-20" x="1079.503906"/>
     <use xlink:href="#DejaVuSans-63" x="1111.291016"/>
     <use xlink:href="#DejaVuSans-6f" x="1166.271484"/>
     <use xlink:href="#DejaVuSans-65" x="1227.453125"/>
     <use xlink:href="#DejaVuSans-66" x="1288.976562"/>
     <use xlink:href="#DejaVuSans-66" x="1324.181641"/>
     <use xlink:href="#DejaVuSans-69" x="1359.386719"/>
     <use xlink:href="#DejaVuSans-63" x="1387.169922"/>
     <use xlink:href="#DejaVuSans-69" x="1442.150391"/>
     <use xlink:href="#DejaVuSans-65" x="1469.933594"/>
     <use xlink:href="#DejaVuSans-6e" x="1531.457031"/>
     <use xlink:href="#DejaVuSans-74" x="1594.835938"/>
     <use xlink:href="#DejaVuSans-73" x="1634.044922"/>
    </g>
   </g>
   <g id="legend_2">
    <g id="patch_15">
     <path d="M 50.78125 422.990897 
L 138.80625 422.990897 
Q 140.80625 422.990897 140.80625 420.990897 
L 140.80625 377.956522 
Q 140.80625 375.956522 138.80625 375.956522 
L 50.78125 375.956522 
Q 48.78125 375.956522 48.78125 377.956522 
L 48.78125 420.990897 
Q 48.78125 422.990897 50.78125 422.990897 
z
" style="fill: #ffffff; opacity: 0.8; stroke: #cccccc; stroke-linejoin: miter"/>
    </g>
    <g id="text_36">
     <!-- Correlation type: -->
     <g transform="translate(52.78125 387.554959) scale(0.1 -0.1)">
      <use xlink:href="#DejaVuSans-43"/>
      <use xlink:href="#DejaVuSans-6f" x="69.824219"/>
      <use xlink:href="#DejaVuSans-72" x="131.005859"/>
      <use xlink:href="#DejaVuSans-72" x="170.369141"/>
      <use xlink:href="#DejaVuSans-65" x="209.232422"/>
      <use xlink:href="#DejaVuSans-6c" x="270.755859"/>
      <use xlink:href="#DejaVuSans-61" x="298.539062"/>
      <use xlink:href="#DejaVuSans-74" x="359.818359"/>
      <use xlink:href="#DejaVuSans-69" x="399.027344"/>
      <use xlink:href="#DejaVuSans-6f" x="426.810547"/>
      <use xlink:href="#DejaVuSans-6e" x="487.992188"/>
      <use xlink:href="#DejaVuSans-20" x="551.371094"/>
      <use xlink:href="#DejaVuSans-74" x="583.158203"/>
      <use xlink:href="#DejaVuSans-79" x="622.367188"/>
      <use xlink:href="#DejaVuSans-70" x="681.546875"/>
      <use xlink:href="#DejaVuSans-65" x="745.023438"/>
      <use xlink:href="#DejaVuSans-3a" x="806.546875"/>
     </g>
    </g>
    <g id="patch_16">
     <path d="M 53.285156 402.233084 
L 73.285156 402.233084 
L 73.285156 395.233084 
L 53.285156 395.233084 
z
" style="fill: #1f77b4; fill-opacity: 0.5; stroke: #1f77b4; stroke-width: 2.5; stroke-linejoin: miter"/>
    </g>
    <g id="text_37">
     <!-- Codon -->
     <g transform="translate(81.285156 402.233084) scale(0.1 -0.1)">
      <use xlink:href="#DejaVuSans-43"/>
      <use xlink:href="#DejaVuSans-6f" x="69.824219"/>
      <use xlink:href="#DejaVuSans-64" x="131.005859"/>
      <use xlink:href="#DejaVuSans-6f" x="194.482422"/>
      <use xlink:href="#DejaVuSans-6e" x="255.664062"/>
     </g>
    </g>
    <g id="patch_17">
     <path d="M 53.285156 416.911209 
L 73.285156 416.911209 
L 73.285156 409.911209 
L 53.285156 409.911209 
z
" style="fill: #ff7f0e; fill-opacity: 0.5; stroke: #ff7f0e; stroke-width: 2.5; stroke-linejoin: miter"/>
    </g>
    <g id="text_38">
     <!-- Codon+GC -->
     <g transform="translate(81.285156 416.911209) scale(0.1 -0.1)">
      <use xlink:href="#DejaVuSans-43"/>
      <use xlink:href="#DejaVuSans-6f" x="69.824219"/>
      <use xlink:href="#DejaVuSans-64" x="131.005859"/>
      <use xlink:href="#DejaVuSans-6f" x="194.482422"/>
      <use xlink:href="#DejaVuSans-6e" x="255.664062"/>
      <use xlink:href="#DejaVuSans-2b" x="319.042969"/>
      <use xlink:href="#DejaVuSans-47" x="402.832031"/>
      <use xlink:href="#DejaVuSans-43" x="480.322266"/>
     </g>
    </g>
   </g>
  </g>
  <g id="text_39">
   <!-- Eukaryota - Density of correlation coefficients for genetic code: Echinoderm-flatworm mitochondrial -->
   <g transform="translate(74.008594 18.597656) scale(0.15 -0.15)">
    <defs>
     <path id="DejaVuSans-45" d="M 628 4666 
L 3578 4666 
L 3578 4134 
L 1259 4134 
L 1259 2753 
L 3481 2753 
L 3481 2222 
L 1259 2222 
L 1259 531 
L 3634 531 
L 3634 0 
L 628 0 
L 628 4666 
z
" transform="scale(0.015625)"/>
     <path id="DejaVuSans-75" d="M 544 1381 
L 544 3500 
L 1119 3500 
L 1119 1403 
Q 1119 906 1312 657 
Q 1506 409 1894 409 
Q 2359 409 2629 706 
Q 2900 1003 2900 1516 
L 2900 3500 
L 3475 3500 
L 3475 0 
L 2900 0 
L 2900 538 
Q 2691 219 2414 64 
Q 2138 -91 1772 -91 
Q 1169 -91 856 284 
Q 544 659 544 1381 
z
M 1991 3584 
L 1991 3584 
z
" transform="scale(0.015625)"/>
     <path id="DejaVuSans-6b" d="M 581 4863 
L 1159 4863 
L 1159 1991 
L 2875 3500 
L 3609 3500 
L 1753 1863 
L 3688 0 
L 2938 0 
L 1159 1709 
L 1159 0 
L 581 0 
L 581 4863 
z
" transform="scale(0.015625)"/>
     <path id="DejaVuSans-2d" d="M 313 2009 
L 1997 2009 
L 1997 1497 
L 313 1497 
L 313 2009 
z
" transform="scale(0.015625)"/>
     <path id="DejaVuSans-67" d="M 2906 1791 
Q 2906 2416 2648 2759 
Q 2391 3103 1925 3103 
Q 1463 3103 1205 2759 
Q 947 2416 947 1791 
Q 947 1169 1205 825 
Q 1463 481 1925 481 
Q 2391 481 2648 825 
Q 2906 1169 2906 1791 
z
M 3481 434 
Q 3481 -459 3084 -895 
Q 2688 -1331 1869 -1331 
Q 1566 -1331 1297 -1286 
Q 1028 -1241 775 -1147 
L 775 -588 
Q 1028 -725 1275 -790 
Q 1522 -856 1778 -856 
Q 2344 -856 2625 -561 
Q 2906 -266 2906 331 
L 2906 616 
Q 2728 306 2450 153 
Q 2172 0 1784 0 
Q 1141 0 747 490 
Q 353 981 353 1791 
Q 353 2603 747 3093 
Q 1141 3584 1784 3584 
Q 2172 3584 2450 3431 
Q 2728 3278 2906 2969 
L 2906 3500 
L 3481 3500 
L 3481 434 
z
" transform="scale(0.015625)"/>
     <path id="DejaVuSans-68" d="M 3513 2113 
L 3513 0 
L 2938 0 
L 2938 2094 
Q 2938 2591 2744 2837 
Q 2550 3084 2163 3084 
Q 1697 3084 1428 2787 
Q 1159 2491 1159 1978 
L 1159 0 
L 581 0 
L 581 4863 
L 1159 4863 
L 1159 2956 
Q 1366 3272 1645 3428 
Q 1925 3584 2291 3584 
Q 2894 3584 3203 3211 
Q 3513 2838 3513 2113 
z
" transform="scale(0.015625)"/>
     <path id="DejaVuSans-77" d="M 269 3500 
L 844 3500 
L 1563 769 
L 2278 3500 
L 2956 3500 
L 3675 769 
L 4391 3500 
L 4966 3500 
L 4050 0 
L 3372 0 
L 2619 2869 
L 1863 0 
L 1184 0 
L 269 3500 
z
" transform="scale(0.015625)"/>
    </defs>
    <use xlink:href="#DejaVuSans-45"/>
    <use xlink:href="#DejaVuSans-75" x="63.183594"/>
    <use xlink:href="#DejaVuSans-6b" x="126.5625"/>
    <use xlink:href="#DejaVuSans-61" x="182.722656"/>
    <use xlink:href="#DejaVuSans-72" x="244.001953"/>
    <use xlink:href="#DejaVuSans-79" x="285.115234"/>
    <use xlink:href="#DejaVuSans-6f" x="344.294922"/>
    <use xlink:href="#DejaVuSans-74" x="405.476562"/>
    <use xlink:href="#DejaVuSans-61" x="444.685547"/>
    <use xlink:href="#DejaVuSans-20" x="505.964844"/>
    <use xlink:href="#DejaVuSans-2d" x="537.751953"/>
    <use xlink:href="#DejaVuSans-20" x="573.835938"/>
    <use xlink:href="#DejaVuSans-44" x="605.623047"/>
    <use xlink:href="#DejaVuSans-65" x="682.625"/>
    <use xlink:href="#DejaVuSans-6e" x="744.148438"/>
    <use xlink:href="#DejaVuSans-73" x="807.527344"/>
    <use xlink:href="#DejaVuSans-69" x="859.626953"/>
    <use xlink:href="#DejaVuSans-74" x="887.410156"/>
    <use xlink:href="#DejaVuSans-79" x="926.619141"/>
    <use xlink:href="#DejaVuSans-20" x="985.798828"/>
    <use xlink:href="#DejaVuSans-6f" x="1017.585938"/>
    <use xlink:href="#DejaVuSans-66" x="1078.767578"/>
    <use xlink:href="#DejaVuSans-20" x="1113.972656"/>
    <use xlink:href="#DejaVuSans-63" x="1145.759766"/>
    <use xlink:href="#DejaVuSans-6f" x="1200.740234"/>
    <use xlink:href="#DejaVuSans-72" x="1261.921875"/>
    <use xlink:href="#DejaVuSans-72" x="1301.285156"/>
    <use xlink:href="#DejaVuSans-65" x="1340.148438"/>
    <use xlink:href="#DejaVuSans-6c" x="1401.671875"/>
    <use xlink:href="#DejaVuSans-61" x="1429.455078"/>
    <use xlink:href="#DejaVuSans-74" x="1490.734375"/>
    <use xlink:href="#DejaVuSans-69" x="1529.943359"/>
    <use xlink:href="#DejaVuSans-6f" x="1557.726562"/>
    <use xlink:href="#DejaVuSans-6e" x="1618.908203"/>
    <use xlink:href="#DejaVuSans-20" x="1682.287109"/>
    <use xlink:href="#DejaVuSans-63" x="1714.074219"/>
    <use xlink:href="#DejaVuSans-6f" x="1769.054688"/>
    <use xlink:href="#DejaVuSans-65" x="1830.236328"/>
    <use xlink:href="#DejaVuSans-66" x="1891.759766"/>
    <use xlink:href="#DejaVuSans-66" x="1926.964844"/>
    <use xlink:href="#DejaVuSans-69" x="1962.169922"/>
    <use xlink:href="#DejaVuSans-63" x="1989.953125"/>
    <use xlink:href="#DejaVuSans-69" x="2044.933594"/>
    <use xlink:href="#DejaVuSans-65" x="2072.716797"/>
    <use xlink:href="#DejaVuSans-6e" x="2134.240234"/>
    <use xlink:href="#DejaVuSans-74" x="2197.619141"/>
    <use xlink:href="#DejaVuSans-73" x="2236.828125"/>
    <use xlink:href="#DejaVuSans-20" x="2288.927734"/>
    <use xlink:href="#DejaVuSans-66" x="2320.714844"/>
    <use xlink:href="#DejaVuSans-6f" x="2355.919922"/>
    <use xlink:href="#DejaVuSans-72" x="2417.101562"/>
    <use xlink:href="#DejaVuSans-20" x="2458.214844"/>
    <use xlink:href="#DejaVuSans-67" x="2490.001953"/>
    <use xlink:href="#DejaVuSans-65" x="2553.478516"/>
    <use xlink:href="#DejaVuSans-6e" x="2615.001953"/>
    <use xlink:href="#DejaVuSans-65" x="2678.380859"/>
    <use xlink:href="#DejaVuSans-74" x="2739.904297"/>
    <use xlink:href="#DejaVuSans-69" x="2779.113281"/>
    <use xlink:href="#DejaVuSans-63" x="2806.896484"/>
    <use xlink:href="#DejaVuSans-20" x="2861.876953"/>
    <use xlink:href="#DejaVuSans-63" x="2893.664062"/>
    <use xlink:href="#DejaVuSans-6f" x="2948.644531"/>
    <use xlink:href="#DejaVuSans-64" x="3009.826172"/>
    <use xlink:href="#DejaVuSans-65" x="3073.302734"/>
    <use xlink:href="#DejaVuSans-3a" x="3134.826172"/>
    <use xlink:href="#DejaVuSans-20" x="3168.517578"/>
    <use xlink:href="#DejaVuSans-45" x="3200.304688"/>
    <use xlink:href="#DejaVuSans-63" x="3263.488281"/>
    <use xlink:href="#DejaVuSans-68" x="3318.46875"/>
    <use xlink:href="#DejaVuSans-69" x="3381.847656"/>
    <use xlink:href="#DejaVuSans-6e" x="3409.630859"/>
    <use xlink:href="#DejaVuSans-6f" x="3473.009766"/>
    <use xlink:href="#DejaVuSans-64" x="3534.191406"/>
    <use xlink:href="#DejaVuSans-65" x="3597.667969"/>
    <use xlink:href="#DejaVuSans-72" x="3659.191406"/>
    <use xlink:href="#DejaVuSans-6d" x="3698.554688"/>
    <use xlink:href="#DejaVuSans-2d" x="3795.966797"/>
    <use xlink:href="#DejaVuSans-66" x="3832.050781"/>
    <use xlink:href="#DejaVuSans-6c" x="3867.255859"/>
    <use xlink:href="#DejaVuSans-61" x="3895.039062"/>
    <use xlink:href="#DejaVuSans-74" x="3956.318359"/>
    <use xlink:href="#DejaVuSans-77" x="3995.527344"/>
    <use xlink:href="#DejaVuSans-6f" x="4077.314453"/>
    <use xlink:href="#DejaVuSans-72" x="4138.496094"/>
    <use xlink:href="#DejaVuSans-6d" x="4177.859375"/>
    <use xlink:href="#DejaVuSans-20" x="4275.271484"/>
    <use xlink:href="#DejaVuSans-6d" x="4307.058594"/>
    <use xlink:href="#DejaVuSans-69" x="4404.470703"/>
    <use xlink:href="#DejaVuSans-74" x="4432.253906"/>
    <use xlink:href="#DejaVuSans-6f" x="4471.462891"/>
    <use xlink:href="#DejaVuSans-63" x="4532.644531"/>
    <use xlink:href="#DejaVuSans-68" x="4587.625"/>
    <use xlink:href="#DejaVuSans-6f" x="4651.003906"/>
    <use xlink:href="#DejaVuSans-6e" x="4712.185547"/>
    <use xlink:href="#DejaVuSans-64" x="4775.564453"/>
    <use xlink:href="#DejaVuSans-72" x="4839.041016"/>
    <use xlink:href="#DejaVuSans-69" x="4880.154297"/>
    <use xlink:href="#DejaVuSans-61" x="4907.9375"/>
    <use xlink:href="#DejaVuSans-6c" x="4969.216797"/>
   </g>
  </g>
 </g>
 <defs>
  <clipPath id="pebb9b3fc90">
   <rect x="43.78125" y="57.6" width="837" height="241.043478"/>
  </clipPath>
  <clipPath id="pb0862d2606">
   <rect x="43.78125" y="370.956522" width="837" height="241.043478"/>
  </clipPath>
 </defs>
</svg>
