<?xml version="1.0" encoding="utf-8" standalone="no"?>
<!DOCTYPE svg PUBLIC "-//W3C//DTD SVG 1.1//EN"
  "http://www.w3.org/Graphics/SVG/1.1/DTD/svg11.dtd">
<svg xmlns:xlink="http://www.w3.org/1999/xlink" width="894.34375pt" height="649.55625pt" viewBox="0 0 894.34375 649.55625" xmlns="http://www.w3.org/2000/svg" version="1.1">
 <metadata>
  <rdf:RDF xmlns:dc="http://purl.org/dc/elements/1.1/" xmlns:cc="http://creativecommons.org/ns#" xmlns:rdf="http://www.w3.org/1999/02/22-rdf-syntax-ns#">
   <cc:Work>
    <dc:type rdf:resource="http://purl.org/dc/dcmitype/StillImage"/>
    <dc:date>2024-09-24T16:17:35.876488</dc:date>
    <dc:format>image/svg+xml</dc:format>
    <dc:creator>
     <cc:Agent>
      <dc:title>Matplotlib v3.8.3, https://matplotlib.org/</dc:title>
     </cc:Agent>
    </dc:creator>
   </cc:Work>
  </rdf:RDF>
 </metadata>
 <defs>
  <style type="text/css">*{stroke-linejoin: round; stroke-linecap: butt}</style>
 </defs>
 <g id="figure_1">
  <g id="patch_1">
   <path d="M 0 649.55625 
L 894.34375 649.55625 
L 894.34375 0 
L 0 0 
z
" style="fill: #ffffff"/>
  </g>
  <g id="axes_1">
   <g id="patch_2">
    <path d="M 50.14375 309.6 
L 448.715179 309.6 
L 448.715179 57.6 
L 50.14375 57.6 
z
" style="fill: #ffffff"/>
   </g>
   <g id="PathCollection_1">
    <defs>
     <path id="m51b52e7a35" d="M 0 3.535534 
C 0.937635 3.535534 1.836992 3.163008 2.5 2.5 
C 3.163008 1.836992 3.535534 0.937635 3.535534 0 
C 3.535534 -0.937635 3.163008 -1.836992 2.5 -2.5 
C 1.836992 -3.163008 0.937635 -3.535534 0 -3.535534 
C -0.937635 -3.535534 -1.836992 -3.163008 -2.5 -2.5 
C -3.163008 -1.836992 -3.535534 -0.937635 -3.535534 0 
C -3.535534 0.937635 -3.163008 1.836992 -2.5 2.5 
C -1.836992 3.163008 -0.937635 3.535534 0 3.535534 
z
" style="stroke: #1f77b4; stroke-opacity: 0.8"/>
    </defs>
    <g clip-path="url(#p3b522a3e81)">
     <use xlink:href="#m51b52e7a35" x="68.260633" y="265.222165" style="fill: #1f77b4; fill-opacity: 0.8; stroke: #1f77b4; stroke-opacity: 0.8"/>
     <use xlink:href="#m51b52e7a35" x="128.650244" y="298.145455" style="fill: #1f77b4; fill-opacity: 0.8; stroke: #1f77b4; stroke-opacity: 0.8"/>
     <use xlink:href="#m51b52e7a35" x="128.650244" y="296.226794" style="fill: #1f77b4; fill-opacity: 0.8; stroke: #1f77b4; stroke-opacity: 0.8"/>
     <use xlink:href="#m51b52e7a35" x="128.650244" y="188.39809" style="fill: #1f77b4; fill-opacity: 0.8; stroke: #1f77b4; stroke-opacity: 0.8"/>
     <use xlink:href="#m51b52e7a35" x="128.650244" y="154.806098" style="fill: #1f77b4; fill-opacity: 0.8; stroke: #1f77b4; stroke-opacity: 0.8"/>
     <use xlink:href="#m51b52e7a35" x="128.650244" y="252.616948" style="fill: #1f77b4; fill-opacity: 0.8; stroke: #1f77b4; stroke-opacity: 0.8"/>
     <use xlink:href="#m51b52e7a35" x="128.650244" y="277.656072" style="fill: #1f77b4; fill-opacity: 0.8; stroke: #1f77b4; stroke-opacity: 0.8"/>
     <use xlink:href="#m51b52e7a35" x="189.039854" y="190.3317" style="fill: #1f77b4; fill-opacity: 0.8; stroke: #1f77b4; stroke-opacity: 0.8"/>
     <use xlink:href="#m51b52e7a35" x="128.650244" y="246.889924" style="fill: #1f77b4; fill-opacity: 0.8; stroke: #1f77b4; stroke-opacity: 0.8"/>
     <use xlink:href="#m51b52e7a35" x="128.650244" y="270.10114" style="fill: #1f77b4; fill-opacity: 0.8; stroke: #1f77b4; stroke-opacity: 0.8"/>
     <use xlink:href="#m51b52e7a35" x="189.039854" y="248.19732" style="fill: #1f77b4; fill-opacity: 0.8; stroke: #1f77b4; stroke-opacity: 0.8"/>
     <use xlink:href="#m51b52e7a35" x="189.039854" y="168.637224" style="fill: #1f77b4; fill-opacity: 0.8; stroke: #1f77b4; stroke-opacity: 0.8"/>
     <use xlink:href="#m51b52e7a35" x="249.429464" y="171.204583" style="fill: #1f77b4; fill-opacity: 0.8; stroke: #1f77b4; stroke-opacity: 0.8"/>
     <use xlink:href="#m51b52e7a35" x="249.429464" y="163.072059" style="fill: #1f77b4; fill-opacity: 0.8; stroke: #1f77b4; stroke-opacity: 0.8"/>
     <use xlink:href="#m51b52e7a35" x="249.429464" y="230.261814" style="fill: #1f77b4; fill-opacity: 0.8; stroke: #1f77b4; stroke-opacity: 0.8"/>
     <use xlink:href="#m51b52e7a35" x="249.429464" y="218.789006" style="fill: #1f77b4; fill-opacity: 0.8; stroke: #1f77b4; stroke-opacity: 0.8"/>
     <use xlink:href="#m51b52e7a35" x="249.429464" y="146.288818" style="fill: #1f77b4; fill-opacity: 0.8; stroke: #1f77b4; stroke-opacity: 0.8"/>
     <use xlink:href="#m51b52e7a35" x="370.208685" y="141.359904" style="fill: #1f77b4; fill-opacity: 0.8; stroke: #1f77b4; stroke-opacity: 0.8"/>
     <use xlink:href="#m51b52e7a35" x="249.429464" y="197.745393" style="fill: #1f77b4; fill-opacity: 0.8; stroke: #1f77b4; stroke-opacity: 0.8"/>
     <use xlink:href="#m51b52e7a35" x="430.598295" y="206.808809" style="fill: #1f77b4; fill-opacity: 0.8; stroke: #1f77b4; stroke-opacity: 0.8"/>
    </g>
   </g>
   <g id="PolyCollection_1">
    <path d="M 68.260633 218.295288 
L 68.260633 296.680674 
L 71.92061 294.656003 
L 75.580586 292.639373 
L 79.240562 290.622743 
L 82.900539 288.606114 
L 86.560515 286.589484 
L 90.220491 284.572854 
L 93.880468 282.555562 
L 97.540444 280.5321 
L 101.200421 278.508638 
L 104.860397 276.485176 
L 108.520373 274.461564 
L 112.18035 272.349626 
L 115.840326 270.199543 
L 119.500303 268.214278 
L 123.160279 266.372818 
L 126.820255 264.365766 
L 130.480232 262.459819 
L 134.140208 260.337105 
L 137.800184 258.759934 
L 141.460161 257.190267 
L 145.120137 255.335242 
L 148.780114 253.463661 
L 152.44009 251.851782 
L 156.100066 249.815972 
L 159.760043 248.214181 
L 163.420019 246.628611 
L 167.079996 244.939005 
L 170.739972 243.335266 
L 174.399948 242.035765 
L 178.059925 240.736972 
L 181.719901 239.44325 
L 185.379878 238.044555 
L 189.039854 236.813777 
L 192.69983 235.802319 
L 196.359807 234.6885 
L 200.019783 233.179427 
L 203.679759 231.961363 
L 207.339736 230.725078 
L 210.999712 229.751645 
L 214.659689 228.4963 
L 218.319665 227.567484 
L 221.979641 226.52344 
L 225.639618 225.719092 
L 229.299594 224.949501 
L 232.959571 224.120599 
L 236.619547 223.161771 
L 240.279523 222.523455 
L 243.9395 221.723614 
L 247.599476 220.923773 
L 251.259452 220.122659 
L 254.919429 219.136826 
L 258.579405 218.460079 
L 262.239382 217.630223 
L 265.899358 216.878602 
L 269.559334 216.131339 
L 273.219311 215.336063 
L 276.879287 214.540788 
L 280.539264 214.022098 
L 284.19924 213.055013 
L 287.859216 212.13429 
L 291.519193 211.151171 
L 295.179169 210.422432 
L 298.839146 209.597094 
L 302.499122 208.777441 
L 306.159098 208.146226 
L 309.819075 207.352931 
L 313.479051 206.549186 
L 317.139027 205.743265 
L 320.799004 204.945411 
L 324.45898 204.279842 
L 328.118957 203.418675 
L 331.778933 202.598071 
L 335.438909 201.723006 
L 339.098886 200.95284 
L 342.758862 200.165469 
L 346.418839 199.639575 
L 350.078815 199.113383 
L 353.738791 198.580489 
L 357.398768 197.679223 
L 361.058744 196.828068 
L 364.71872 196.265361 
L 368.378697 195.802388 
L 372.038673 195.251249 
L 375.69865 194.886427 
L 379.358626 194.521605 
L 383.018602 194.156783 
L 386.678579 193.77781 
L 390.338555 193.213095 
L 393.998532 192.809575 
L 397.658508 192.291056 
L 401.318484 191.769495 
L 404.978461 191.236717 
L 408.638437 190.559235 
L 412.298414 190.150866 
L 415.95839 189.660665 
L 419.618366 189.271476 
L 423.278343 188.827934 
L 426.938319 188.120725 
L 430.598295 187.560946 
L 430.598295 69.054545 
L 430.598295 69.054545 
L 426.938319 71.298263 
L 423.278343 73.570313 
L 419.618366 75.842363 
L 415.95839 78.114413 
L 412.298414 80.387538 
L 408.638437 82.663886 
L 404.978461 84.940235 
L 401.318484 87.216583 
L 397.658508 89.492931 
L 393.998532 91.71301 
L 390.338555 93.813548 
L 386.678579 95.914087 
L 383.018602 98.023301 
L 379.358626 100.106019 
L 375.69865 102.199804 
L 372.038673 104.293589 
L 368.378697 106.387375 
L 364.71872 108.48116 
L 361.058744 110.574946 
L 357.398768 112.668731 
L 353.738791 114.762516 
L 350.078815 116.751573 
L 346.418839 118.731884 
L 342.758862 120.712196 
L 339.098886 122.692507 
L 335.438909 124.672819 
L 331.778933 126.654431 
L 328.118957 128.637512 
L 324.45898 130.814107 
L 320.799004 133.016418 
L 317.139027 135.218729 
L 313.479051 137.421039 
L 309.819075 139.62335 
L 306.159098 141.825661 
L 302.499122 144.027971 
L 298.839146 146.192693 
L 295.179169 148.294243 
L 291.519193 150.554592 
L 287.859216 152.6189 
L 284.19924 154.691999 
L 280.539264 156.747516 
L 276.879287 158.92603 
L 273.219311 161.210936 
L 269.559334 163.061758 
L 265.899358 165.670131 
L 262.239382 167.721094 
L 258.579405 169.359027 
L 254.919429 171.580174 
L 251.259452 173.408531 
L 247.599476 175.118183 
L 243.9395 176.747398 
L 240.279523 178.495013 
L 236.619547 180.160669 
L 232.959571 182.044717 
L 229.299594 183.490828 
L 225.639618 185.162029 
L 221.979641 186.941696 
L 218.319665 188.643733 
L 214.659689 190.157775 
L 210.999712 191.965087 
L 207.339736 193.421339 
L 203.679759 195.154935 
L 200.019783 196.367358 
L 196.359807 197.659658 
L 192.69983 198.608488 
L 189.039854 199.683786 
L 185.379878 200.711418 
L 181.719901 201.282127 
L 178.059925 202.065261 
L 174.399948 202.556011 
L 170.739972 203.380636 
L 167.079996 203.875962 
L 163.420019 204.932018 
L 159.760043 205.846755 
L 156.100066 206.645422 
L 152.44009 207.090895 
L 148.780114 207.536408 
L 145.120137 208.123918 
L 141.460161 208.549023 
L 137.800184 208.919772 
L 134.140208 209.323319 
L 130.480232 209.752856 
L 126.820255 210.110954 
L 123.160279 210.622824 
L 119.500303 211.133944 
L 115.840326 211.953284 
L 112.18035 212.29086 
L 108.520373 212.8612 
L 104.860397 213.466657 
L 101.200421 213.943646 
L 97.540444 214.51437 
L 93.880468 215.094499 
L 90.220491 215.667648 
L 86.560515 216.093485 
L 82.900539 216.487664 
L 79.240562 216.883122 
L 75.580586 217.27858 
L 71.92061 217.786388 
L 68.260633 218.295288 
z
" clip-path="url(#p3b522a3e81)" style="fill: #ffa500; fill-opacity: 0.15"/>
   </g>
   <g id="matplotlib.axis_1">
    <g id="xtick_1">
     <g id="line2d_1">
      <defs>
       <path id="m35846ac293" d="M 0 0 
L 0 3.5 
" style="stroke: #000000; stroke-width: 0.8"/>
      </defs>
      <g>
       <use xlink:href="#m35846ac293" x="85.169724" y="309.6" style="stroke: #000000; stroke-width: 0.8"/>
      </g>
     </g>
     <g id="text_1">
      <!-- 0.02 -->
      <g transform="translate(74.036912 324.198437) scale(0.1 -0.1)">
       <defs>
        <path id="DejaVuSans-30" d="M 2034 4250 
Q 1547 4250 1301 3770 
Q 1056 3291 1056 2328 
Q 1056 1369 1301 889 
Q 1547 409 2034 409 
Q 2525 409 2770 889 
Q 3016 1369 3016 2328 
Q 3016 3291 2770 3770 
Q 2525 4250 2034 4250 
z
M 2034 4750 
Q 2819 4750 3233 4129 
Q 3647 3509 3647 2328 
Q 3647 1150 3233 529 
Q 2819 -91 2034 -91 
Q 1250 -91 836 529 
Q 422 1150 422 2328 
Q 422 3509 836 4129 
Q 1250 4750 2034 4750 
z
" transform="scale(0.015625)"/>
        <path id="DejaVuSans-2e" d="M 684 794 
L 1344 794 
L 1344 0 
L 684 0 
L 684 794 
z
" transform="scale(0.015625)"/>
        <path id="DejaVuSans-32" d="M 1228 531 
L 3431 531 
L 3431 0 
L 469 0 
L 469 531 
Q 828 903 1448 1529 
Q 2069 2156 2228 2338 
Q 2531 2678 2651 2914 
Q 2772 3150 2772 3378 
Q 2772 3750 2511 3984 
Q 2250 4219 1831 4219 
Q 1534 4219 1204 4116 
Q 875 4013 500 3803 
L 500 4441 
Q 881 4594 1212 4672 
Q 1544 4750 1819 4750 
Q 2544 4750 2975 4387 
Q 3406 4025 3406 3419 
Q 3406 3131 3298 2873 
Q 3191 2616 2906 2266 
Q 2828 2175 2409 1742 
Q 1991 1309 1228 531 
z
" transform="scale(0.015625)"/>
       </defs>
       <use xlink:href="#DejaVuSans-30"/>
       <use xlink:href="#DejaVuSans-2e" x="63.623047"/>
       <use xlink:href="#DejaVuSans-30" x="95.410156"/>
       <use xlink:href="#DejaVuSans-32" x="159.033203"/>
      </g>
     </g>
    </g>
    <g id="xtick_2">
     <g id="line2d_2">
      <g>
       <use xlink:href="#m35846ac293" x="162.468425" y="309.6" style="stroke: #000000; stroke-width: 0.8"/>
      </g>
     </g>
     <g id="text_2">
      <!-- 0.04 -->
      <g transform="translate(151.335613 324.198437) scale(0.1 -0.1)">
       <defs>
        <path id="DejaVuSans-34" d="M 2419 4116 
L 825 1625 
L 2419 1625 
L 2419 4116 
z
M 2253 4666 
L 3047 4666 
L 3047 1625 
L 3713 1625 
L 3713 1100 
L 3047 1100 
L 3047 0 
L 2419 0 
L 2419 1100 
L 313 1100 
L 313 1709 
L 2253 4666 
z
" transform="scale(0.015625)"/>
       </defs>
       <use xlink:href="#DejaVuSans-30"/>
       <use xlink:href="#DejaVuSans-2e" x="63.623047"/>
       <use xlink:href="#DejaVuSans-30" x="95.410156"/>
       <use xlink:href="#DejaVuSans-34" x="159.033203"/>
      </g>
     </g>
    </g>
    <g id="xtick_3">
     <g id="line2d_3">
      <g>
       <use xlink:href="#m35846ac293" x="239.767127" y="309.6" style="stroke: #000000; stroke-width: 0.8"/>
      </g>
     </g>
     <g id="text_3">
      <!-- 0.06 -->
      <g transform="translate(228.634314 324.198437) scale(0.1 -0.1)">
       <defs>
        <path id="DejaVuSans-36" d="M 2113 2584 
Q 1688 2584 1439 2293 
Q 1191 2003 1191 1497 
Q 1191 994 1439 701 
Q 1688 409 2113 409 
Q 2538 409 2786 701 
Q 3034 994 3034 1497 
Q 3034 2003 2786 2293 
Q 2538 2584 2113 2584 
z
M 3366 4563 
L 3366 3988 
Q 3128 4100 2886 4159 
Q 2644 4219 2406 4219 
Q 1781 4219 1451 3797 
Q 1122 3375 1075 2522 
Q 1259 2794 1537 2939 
Q 1816 3084 2150 3084 
Q 2853 3084 3261 2657 
Q 3669 2231 3669 1497 
Q 3669 778 3244 343 
Q 2819 -91 2113 -91 
Q 1303 -91 875 529 
Q 447 1150 447 2328 
Q 447 3434 972 4092 
Q 1497 4750 2381 4750 
Q 2619 4750 2861 4703 
Q 3103 4656 3366 4563 
z
" transform="scale(0.015625)"/>
       </defs>
       <use xlink:href="#DejaVuSans-30"/>
       <use xlink:href="#DejaVuSans-2e" x="63.623047"/>
       <use xlink:href="#DejaVuSans-30" x="95.410156"/>
       <use xlink:href="#DejaVuSans-36" x="159.033203"/>
      </g>
     </g>
    </g>
    <g id="xtick_4">
     <g id="line2d_4">
      <g>
       <use xlink:href="#m35846ac293" x="317.065828" y="309.6" style="stroke: #000000; stroke-width: 0.8"/>
      </g>
     </g>
     <g id="text_4">
      <!-- 0.08 -->
      <g transform="translate(305.933015 324.198437) scale(0.1 -0.1)">
       <defs>
        <path id="DejaVuSans-38" d="M 2034 2216 
Q 1584 2216 1326 1975 
Q 1069 1734 1069 1313 
Q 1069 891 1326 650 
Q 1584 409 2034 409 
Q 2484 409 2743 651 
Q 3003 894 3003 1313 
Q 3003 1734 2745 1975 
Q 2488 2216 2034 2216 
z
M 1403 2484 
Q 997 2584 770 2862 
Q 544 3141 544 3541 
Q 544 4100 942 4425 
Q 1341 4750 2034 4750 
Q 2731 4750 3128 4425 
Q 3525 4100 3525 3541 
Q 3525 3141 3298 2862 
Q 3072 2584 2669 2484 
Q 3125 2378 3379 2068 
Q 3634 1759 3634 1313 
Q 3634 634 3220 271 
Q 2806 -91 2034 -91 
Q 1263 -91 848 271 
Q 434 634 434 1313 
Q 434 1759 690 2068 
Q 947 2378 1403 2484 
z
M 1172 3481 
Q 1172 3119 1398 2916 
Q 1625 2713 2034 2713 
Q 2441 2713 2670 2916 
Q 2900 3119 2900 3481 
Q 2900 3844 2670 4047 
Q 2441 4250 2034 4250 
Q 1625 4250 1398 4047 
Q 1172 3844 1172 3481 
z
" transform="scale(0.015625)"/>
       </defs>
       <use xlink:href="#DejaVuSans-30"/>
       <use xlink:href="#DejaVuSans-2e" x="63.623047"/>
       <use xlink:href="#DejaVuSans-30" x="95.410156"/>
       <use xlink:href="#DejaVuSans-38" x="159.033203"/>
      </g>
     </g>
    </g>
    <g id="xtick_5">
     <g id="line2d_5">
      <g>
       <use xlink:href="#m35846ac293" x="394.364529" y="309.6" style="stroke: #000000; stroke-width: 0.8"/>
      </g>
     </g>
     <g id="text_5">
      <!-- 0.10 -->
      <g transform="translate(383.231717 324.198437) scale(0.1 -0.1)">
       <defs>
        <path id="DejaVuSans-31" d="M 794 531 
L 1825 531 
L 1825 4091 
L 703 3866 
L 703 4441 
L 1819 4666 
L 2450 4666 
L 2450 531 
L 3481 531 
L 3481 0 
L 794 0 
L 794 531 
z
" transform="scale(0.015625)"/>
       </defs>
       <use xlink:href="#DejaVuSans-30"/>
       <use xlink:href="#DejaVuSans-2e" x="63.623047"/>
       <use xlink:href="#DejaVuSans-31" x="95.410156"/>
       <use xlink:href="#DejaVuSans-30" x="159.033203"/>
      </g>
     </g>
    </g>
    <g id="text_6">
     <!-- Codon -->
     <g transform="translate(233.476339 337.876562) scale(0.1 -0.1)">
      <defs>
       <path id="DejaVuSans-43" d="M 4122 4306 
L 4122 3641 
Q 3803 3938 3442 4084 
Q 3081 4231 2675 4231 
Q 1875 4231 1450 3742 
Q 1025 3253 1025 2328 
Q 1025 1406 1450 917 
Q 1875 428 2675 428 
Q 3081 428 3442 575 
Q 3803 722 4122 1019 
L 4122 359 
Q 3791 134 3420 21 
Q 3050 -91 2638 -91 
Q 1578 -91 968 557 
Q 359 1206 359 2328 
Q 359 3453 968 4101 
Q 1578 4750 2638 4750 
Q 3056 4750 3426 4639 
Q 3797 4528 4122 4306 
z
" transform="scale(0.015625)"/>
       <path id="DejaVuSans-6f" d="M 1959 3097 
Q 1497 3097 1228 2736 
Q 959 2375 959 1747 
Q 959 1119 1226 758 
Q 1494 397 1959 397 
Q 2419 397 2687 759 
Q 2956 1122 2956 1747 
Q 2956 2369 2687 2733 
Q 2419 3097 1959 3097 
z
M 1959 3584 
Q 2709 3584 3137 3096 
Q 3566 2609 3566 1747 
Q 3566 888 3137 398 
Q 2709 -91 1959 -91 
Q 1206 -91 779 398 
Q 353 888 353 1747 
Q 353 2609 779 3096 
Q 1206 3584 1959 3584 
z
" transform="scale(0.015625)"/>
       <path id="DejaVuSans-64" d="M 2906 2969 
L 2906 4863 
L 3481 4863 
L 3481 0 
L 2906 0 
L 2906 525 
Q 2725 213 2448 61 
Q 2172 -91 1784 -91 
Q 1150 -91 751 415 
Q 353 922 353 1747 
Q 353 2572 751 3078 
Q 1150 3584 1784 3584 
Q 2172 3584 2448 3432 
Q 2725 3281 2906 2969 
z
M 947 1747 
Q 947 1113 1208 752 
Q 1469 391 1925 391 
Q 2381 391 2643 752 
Q 2906 1113 2906 1747 
Q 2906 2381 2643 2742 
Q 2381 3103 1925 3103 
Q 1469 3103 1208 2742 
Q 947 2381 947 1747 
z
" transform="scale(0.015625)"/>
       <path id="DejaVuSans-6e" d="M 3513 2113 
L 3513 0 
L 2938 0 
L 2938 2094 
Q 2938 2591 2744 2837 
Q 2550 3084 2163 3084 
Q 1697 3084 1428 2787 
Q 1159 2491 1159 1978 
L 1159 0 
L 581 0 
L 581 3500 
L 1159 3500 
L 1159 2956 
Q 1366 3272 1645 3428 
Q 1925 3584 2291 3584 
Q 2894 3584 3203 3211 
Q 3513 2838 3513 2113 
z
" transform="scale(0.015625)"/>
      </defs>
      <use xlink:href="#DejaVuSans-43"/>
      <use xlink:href="#DejaVuSans-6f" x="69.824219"/>
      <use xlink:href="#DejaVuSans-64" x="131.005859"/>
      <use xlink:href="#DejaVuSans-6f" x="194.482422"/>
      <use xlink:href="#DejaVuSans-6e" x="255.664062"/>
     </g>
    </g>
   </g>
   <g id="matplotlib.axis_2">
    <g id="ytick_1">
     <g id="line2d_6">
      <defs>
       <path id="m18b2ed36dc" d="M 0 0 
L -3.5 0 
" style="stroke: #000000; stroke-width: 0.8"/>
      </defs>
      <g>
       <use xlink:href="#m18b2ed36dc" x="50.14375" y="272.849044" style="stroke: #000000; stroke-width: 0.8"/>
      </g>
     </g>
     <g id="text_7">
      <!-- 0.02 -->
      <g transform="translate(20.878125 276.648263) scale(0.1 -0.1)">
       <use xlink:href="#DejaVuSans-30"/>
       <use xlink:href="#DejaVuSans-2e" x="63.623047"/>
       <use xlink:href="#DejaVuSans-30" x="95.410156"/>
       <use xlink:href="#DejaVuSans-32" x="159.033203"/>
      </g>
     </g>
    </g>
    <g id="ytick_2">
     <g id="line2d_7">
      <g>
       <use xlink:href="#m18b2ed36dc" x="50.14375" y="234.132706" style="stroke: #000000; stroke-width: 0.8"/>
      </g>
     </g>
     <g id="text_8">
      <!-- 0.04 -->
      <g transform="translate(20.878125 237.931925) scale(0.1 -0.1)">
       <use xlink:href="#DejaVuSans-30"/>
       <use xlink:href="#DejaVuSans-2e" x="63.623047"/>
       <use xlink:href="#DejaVuSans-30" x="95.410156"/>
       <use xlink:href="#DejaVuSans-34" x="159.033203"/>
      </g>
     </g>
    </g>
    <g id="ytick_3">
     <g id="line2d_8">
      <g>
       <use xlink:href="#m18b2ed36dc" x="50.14375" y="195.416369" style="stroke: #000000; stroke-width: 0.8"/>
      </g>
     </g>
     <g id="text_9">
      <!-- 0.06 -->
      <g transform="translate(20.878125 199.215587) scale(0.1 -0.1)">
       <use xlink:href="#DejaVuSans-30"/>
       <use xlink:href="#DejaVuSans-2e" x="63.623047"/>
       <use xlink:href="#DejaVuSans-30" x="95.410156"/>
       <use xlink:href="#DejaVuSans-36" x="159.033203"/>
      </g>
     </g>
    </g>
    <g id="ytick_4">
     <g id="line2d_9">
      <g>
       <use xlink:href="#m18b2ed36dc" x="50.14375" y="156.700031" style="stroke: #000000; stroke-width: 0.8"/>
      </g>
     </g>
     <g id="text_10">
      <!-- 0.08 -->
      <g transform="translate(20.878125 160.49925) scale(0.1 -0.1)">
       <use xlink:href="#DejaVuSans-30"/>
       <use xlink:href="#DejaVuSans-2e" x="63.623047"/>
       <use xlink:href="#DejaVuSans-30" x="95.410156"/>
       <use xlink:href="#DejaVuSans-38" x="159.033203"/>
      </g>
     </g>
    </g>
    <g id="ytick_5">
     <g id="line2d_10">
      <g>
       <use xlink:href="#m18b2ed36dc" x="50.14375" y="117.983693" style="stroke: #000000; stroke-width: 0.8"/>
      </g>
     </g>
     <g id="text_11">
      <!-- 0.10 -->
      <g transform="translate(20.878125 121.782912) scale(0.1 -0.1)">
       <use xlink:href="#DejaVuSans-30"/>
       <use xlink:href="#DejaVuSans-2e" x="63.623047"/>
       <use xlink:href="#DejaVuSans-31" x="95.410156"/>
       <use xlink:href="#DejaVuSans-30" x="159.033203"/>
      </g>
     </g>
    </g>
    <g id="ytick_6">
     <g id="line2d_11">
      <g>
       <use xlink:href="#m18b2ed36dc" x="50.14375" y="79.267355" style="stroke: #000000; stroke-width: 0.8"/>
      </g>
     </g>
     <g id="text_12">
      <!-- 0.12 -->
      <g transform="translate(20.878125 83.066574) scale(0.1 -0.1)">
       <use xlink:href="#DejaVuSans-30"/>
       <use xlink:href="#DejaVuSans-2e" x="63.623047"/>
       <use xlink:href="#DejaVuSans-31" x="95.410156"/>
       <use xlink:href="#DejaVuSans-32" x="159.033203"/>
      </g>
     </g>
    </g>
    <g id="text_13">
     <!-- Amino acid frequency -->
     <g transform="translate(14.798438 238.139062) rotate(-90) scale(0.1 -0.1)">
      <defs>
       <path id="DejaVuSans-41" d="M 2188 4044 
L 1331 1722 
L 3047 1722 
L 2188 4044 
z
M 1831 4666 
L 2547 4666 
L 4325 0 
L 3669 0 
L 3244 1197 
L 1141 1197 
L 716 0 
L 50 0 
L 1831 4666 
z
" transform="scale(0.015625)"/>
       <path id="DejaVuSans-6d" d="M 3328 2828 
Q 3544 3216 3844 3400 
Q 4144 3584 4550 3584 
Q 5097 3584 5394 3201 
Q 5691 2819 5691 2113 
L 5691 0 
L 5113 0 
L 5113 2094 
Q 5113 2597 4934 2840 
Q 4756 3084 4391 3084 
Q 3944 3084 3684 2787 
Q 3425 2491 3425 1978 
L 3425 0 
L 2847 0 
L 2847 2094 
Q 2847 2600 2669 2842 
Q 2491 3084 2119 3084 
Q 1678 3084 1418 2786 
Q 1159 2488 1159 1978 
L 1159 0 
L 581 0 
L 581 3500 
L 1159 3500 
L 1159 2956 
Q 1356 3278 1631 3431 
Q 1906 3584 2284 3584 
Q 2666 3584 2933 3390 
Q 3200 3197 3328 2828 
z
" transform="scale(0.015625)"/>
       <path id="DejaVuSans-69" d="M 603 3500 
L 1178 3500 
L 1178 0 
L 603 0 
L 603 3500 
z
M 603 4863 
L 1178 4863 
L 1178 4134 
L 603 4134 
L 603 4863 
z
" transform="scale(0.015625)"/>
       <path id="DejaVuSans-20" transform="scale(0.015625)"/>
       <path id="DejaVuSans-61" d="M 2194 1759 
Q 1497 1759 1228 1600 
Q 959 1441 959 1056 
Q 959 750 1161 570 
Q 1363 391 1709 391 
Q 2188 391 2477 730 
Q 2766 1069 2766 1631 
L 2766 1759 
L 2194 1759 
z
M 3341 1997 
L 3341 0 
L 2766 0 
L 2766 531 
Q 2569 213 2275 61 
Q 1981 -91 1556 -91 
Q 1019 -91 701 211 
Q 384 513 384 1019 
Q 384 1609 779 1909 
Q 1175 2209 1959 2209 
L 2766 2209 
L 2766 2266 
Q 2766 2663 2505 2880 
Q 2244 3097 1772 3097 
Q 1472 3097 1187 3025 
Q 903 2953 641 2809 
L 641 3341 
Q 956 3463 1253 3523 
Q 1550 3584 1831 3584 
Q 2591 3584 2966 3190 
Q 3341 2797 3341 1997 
z
" transform="scale(0.015625)"/>
       <path id="DejaVuSans-63" d="M 3122 3366 
L 3122 2828 
Q 2878 2963 2633 3030 
Q 2388 3097 2138 3097 
Q 1578 3097 1268 2742 
Q 959 2388 959 1747 
Q 959 1106 1268 751 
Q 1578 397 2138 397 
Q 2388 397 2633 464 
Q 2878 531 3122 666 
L 3122 134 
Q 2881 22 2623 -34 
Q 2366 -91 2075 -91 
Q 1284 -91 818 406 
Q 353 903 353 1747 
Q 353 2603 823 3093 
Q 1294 3584 2113 3584 
Q 2378 3584 2631 3529 
Q 2884 3475 3122 3366 
z
" transform="scale(0.015625)"/>
       <path id="DejaVuSans-66" d="M 2375 4863 
L 2375 4384 
L 1825 4384 
Q 1516 4384 1395 4259 
Q 1275 4134 1275 3809 
L 1275 3500 
L 2222 3500 
L 2222 3053 
L 1275 3053 
L 1275 0 
L 697 0 
L 697 3053 
L 147 3053 
L 147 3500 
L 697 3500 
L 697 3744 
Q 697 4328 969 4595 
Q 1241 4863 1831 4863 
L 2375 4863 
z
" transform="scale(0.015625)"/>
       <path id="DejaVuSans-72" d="M 2631 2963 
Q 2534 3019 2420 3045 
Q 2306 3072 2169 3072 
Q 1681 3072 1420 2755 
Q 1159 2438 1159 1844 
L 1159 0 
L 581 0 
L 581 3500 
L 1159 3500 
L 1159 2956 
Q 1341 3275 1631 3429 
Q 1922 3584 2338 3584 
Q 2397 3584 2469 3576 
Q 2541 3569 2628 3553 
L 2631 2963 
z
" transform="scale(0.015625)"/>
       <path id="DejaVuSans-65" d="M 3597 1894 
L 3597 1613 
L 953 1613 
Q 991 1019 1311 708 
Q 1631 397 2203 397 
Q 2534 397 2845 478 
Q 3156 559 3463 722 
L 3463 178 
Q 3153 47 2828 -22 
Q 2503 -91 2169 -91 
Q 1331 -91 842 396 
Q 353 884 353 1716 
Q 353 2575 817 3079 
Q 1281 3584 2069 3584 
Q 2775 3584 3186 3129 
Q 3597 2675 3597 1894 
z
M 3022 2063 
Q 3016 2534 2758 2815 
Q 2500 3097 2075 3097 
Q 1594 3097 1305 2825 
Q 1016 2553 972 2059 
L 3022 2063 
z
" transform="scale(0.015625)"/>
       <path id="DejaVuSans-71" d="M 947 1747 
Q 947 1113 1208 752 
Q 1469 391 1925 391 
Q 2381 391 2643 752 
Q 2906 1113 2906 1747 
Q 2906 2381 2643 2742 
Q 2381 3103 1925 3103 
Q 1469 3103 1208 2742 
Q 947 2381 947 1747 
z
M 2906 525 
Q 2725 213 2448 61 
Q 2172 -91 1784 -91 
Q 1150 -91 751 415 
Q 353 922 353 1747 
Q 353 2572 751 3078 
Q 1150 3584 1784 3584 
Q 2172 3584 2448 3432 
Q 2725 3281 2906 2969 
L 2906 3500 
L 3481 3500 
L 3481 -1331 
L 2906 -1331 
L 2906 525 
z
" transform="scale(0.015625)"/>
       <path id="DejaVuSans-75" d="M 544 1381 
L 544 3500 
L 1119 3500 
L 1119 1403 
Q 1119 906 1312 657 
Q 1506 409 1894 409 
Q 2359 409 2629 706 
Q 2900 1003 2900 1516 
L 2900 3500 
L 3475 3500 
L 3475 0 
L 2900 0 
L 2900 538 
Q 2691 219 2414 64 
Q 2138 -91 1772 -91 
Q 1169 -91 856 284 
Q 544 659 544 1381 
z
M 1991 3584 
L 1991 3584 
z
" transform="scale(0.015625)"/>
       <path id="DejaVuSans-79" d="M 2059 -325 
Q 1816 -950 1584 -1140 
Q 1353 -1331 966 -1331 
L 506 -1331 
L 506 -850 
L 844 -850 
Q 1081 -850 1212 -737 
Q 1344 -625 1503 -206 
L 1606 56 
L 191 3500 
L 800 3500 
L 1894 763 
L 2988 3500 
L 3597 3500 
L 2059 -325 
z
" transform="scale(0.015625)"/>
      </defs>
      <use xlink:href="#DejaVuSans-41"/>
      <use xlink:href="#DejaVuSans-6d" x="68.408203"/>
      <use xlink:href="#DejaVuSans-69" x="165.820312"/>
      <use xlink:href="#DejaVuSans-6e" x="193.603516"/>
      <use xlink:href="#DejaVuSans-6f" x="256.982422"/>
      <use xlink:href="#DejaVuSans-20" x="318.164062"/>
      <use xlink:href="#DejaVuSans-61" x="349.951172"/>
      <use xlink:href="#DejaVuSans-63" x="411.230469"/>
      <use xlink:href="#DejaVuSans-69" x="466.210938"/>
      <use xlink:href="#DejaVuSans-64" x="493.994141"/>
      <use xlink:href="#DejaVuSans-20" x="557.470703"/>
      <use xlink:href="#DejaVuSans-66" x="589.257812"/>
      <use xlink:href="#DejaVuSans-72" x="624.462891"/>
      <use xlink:href="#DejaVuSans-65" x="663.326172"/>
      <use xlink:href="#DejaVuSans-71" x="724.849609"/>
      <use xlink:href="#DejaVuSans-75" x="788.326172"/>
      <use xlink:href="#DejaVuSans-65" x="851.705078"/>
      <use xlink:href="#DejaVuSans-6e" x="913.228516"/>
      <use xlink:href="#DejaVuSans-63" x="976.607422"/>
      <use xlink:href="#DejaVuSans-79" x="1031.587891"/>
     </g>
    </g>
   </g>
   <g id="line2d_12">
    <path d="M 68.260633 256.379977 
L 71.92061 255.259695 
L 75.580586 254.139412 
L 79.240562 253.01913 
L 82.900539 251.898848 
L 86.560515 250.778566 
L 90.220491 249.658284 
L 93.880468 248.538001 
L 97.540444 247.417719 
L 101.200421 246.297437 
L 104.860397 245.177155 
L 108.520373 244.056873 
L 112.18035 242.93659 
L 115.840326 241.816308 
L 119.500303 240.696026 
L 123.160279 239.575744 
L 126.820255 238.455462 
L 130.480232 237.335179 
L 134.140208 236.214897 
L 137.800184 235.094615 
L 141.460161 233.974333 
L 145.120137 232.854051 
L 148.780114 231.733768 
L 152.44009 230.613486 
L 156.100066 229.493204 
L 159.760043 228.372922 
L 163.420019 227.25264 
L 167.079996 226.132357 
L 170.739972 225.012075 
L 174.399948 223.891793 
L 178.059925 222.771511 
L 181.719901 221.651229 
L 185.379878 220.530946 
L 189.039854 219.410664 
L 192.69983 218.290382 
L 196.359807 217.1701 
L 200.019783 216.049818 
L 203.679759 214.929535 
L 207.339736 213.809253 
L 210.999712 212.688971 
L 214.659689 211.568689 
L 218.319665 210.448407 
L 221.979641 209.328124 
L 225.639618 208.207842 
L 229.299594 207.08756 
L 232.959571 205.967278 
L 236.619547 204.846996 
L 240.279523 203.726713 
L 243.9395 202.606431 
L 247.599476 201.486149 
L 251.259452 200.365867 
L 254.919429 199.245585 
L 258.579405 198.125302 
L 262.239382 197.00502 
L 265.899358 195.884738 
L 269.559334 194.764456 
L 273.219311 193.644174 
L 276.879287 192.523891 
L 280.539264 191.403609 
L 284.19924 190.283327 
L 287.859216 189.163045 
L 291.519193 188.042763 
L 295.179169 186.92248 
L 298.839146 185.802198 
L 302.499122 184.681916 
L 306.159098 183.561634 
L 309.819075 182.441352 
L 313.479051 181.321069 
L 317.139027 180.200787 
L 320.799004 179.080505 
L 324.45898 177.960223 
L 328.118957 176.839941 
L 331.778933 175.719658 
L 335.438909 174.599376 
L 339.098886 173.479094 
L 342.758862 172.358812 
L 346.418839 171.23853 
L 350.078815 170.118247 
L 353.738791 168.997965 
L 357.398768 167.877683 
L 361.058744 166.757401 
L 364.71872 165.637119 
L 368.378697 164.516836 
L 372.038673 163.396554 
L 375.69865 162.276272 
L 379.358626 161.15599 
L 383.018602 160.035708 
L 386.678579 158.915425 
L 390.338555 157.795143 
L 393.998532 156.674861 
L 397.658508 155.554579 
L 401.318484 154.434297 
L 404.978461 153.314014 
L 408.638437 152.193732 
L 412.298414 151.07345 
L 415.95839 149.953168 
L 419.618366 148.832886 
L 423.278343 147.712603 
L 426.938319 146.592321 
L 430.598295 145.472039 
" clip-path="url(#p3b522a3e81)" style="fill: none; stroke: #ffa500; stroke-width: 2.25; stroke-linecap: square"/>
   </g>
   <g id="patch_3">
    <path d="M 50.14375 309.6 
L 50.14375 57.6 
" style="fill: none; stroke: #000000; stroke-width: 0.8; stroke-linejoin: miter; stroke-linecap: square"/>
   </g>
   <g id="patch_4">
    <path d="M 448.715179 309.6 
L 448.715179 57.6 
" style="fill: none; stroke: #000000; stroke-width: 0.8; stroke-linejoin: miter; stroke-linecap: square"/>
   </g>
   <g id="patch_5">
    <path d="M 50.14375 309.6 
L 448.715179 309.6 
" style="fill: none; stroke: #000000; stroke-width: 0.8; stroke-linejoin: miter; stroke-linecap: square"/>
   </g>
   <g id="patch_6">
    <path d="M 50.14375 57.6 
L 448.715179 57.6 
" style="fill: none; stroke: #000000; stroke-width: 0.8; stroke-linejoin: miter; stroke-linecap: square"/>
   </g>
  </g>
  <g id="axes_2">
   <g id="patch_7">
    <path d="M 488.572321 309.6 
L 887.14375 309.6 
L 887.14375 57.6 
L 488.572321 57.6 
z
" style="fill: #ffffff"/>
   </g>
   <g id="PathCollection_2">
    <g clip-path="url(#pbc48df2330)">
     <use xlink:href="#m51b52e7a35" x="506.689205" y="265.159993" style="fill: #1f77b4; fill-opacity: 0.8; stroke: #1f77b4; stroke-opacity: 0.8"/>
     <use xlink:href="#m51b52e7a35" x="567.078815" y="297.173614" style="fill: #1f77b4; fill-opacity: 0.8; stroke: #1f77b4; stroke-opacity: 0.8"/>
     <use xlink:href="#m51b52e7a35" x="567.078815" y="295.307966" style="fill: #1f77b4; fill-opacity: 0.8; stroke: #1f77b4; stroke-opacity: 0.8"/>
     <use xlink:href="#m51b52e7a35" x="567.078815" y="190.458563" style="fill: #1f77b4; fill-opacity: 0.8; stroke: #1f77b4; stroke-opacity: 0.8"/>
     <use xlink:href="#m51b52e7a35" x="567.078815" y="157.794717" style="fill: #1f77b4; fill-opacity: 0.8; stroke: #1f77b4; stroke-opacity: 0.8"/>
     <use xlink:href="#m51b52e7a35" x="567.078815" y="252.903058" style="fill: #1f77b4; fill-opacity: 0.8; stroke: #1f77b4; stroke-opacity: 0.8"/>
     <use xlink:href="#m51b52e7a35" x="567.078815" y="277.250353" style="fill: #1f77b4; fill-opacity: 0.8; stroke: #1f77b4; stroke-opacity: 0.8"/>
     <use xlink:href="#m51b52e7a35" x="627.468425" y="192.338747" style="fill: #1f77b4; fill-opacity: 0.8; stroke: #1f77b4; stroke-opacity: 0.8"/>
     <use xlink:href="#m51b52e7a35" x="567.078815" y="247.334271" style="fill: #1f77b4; fill-opacity: 0.8; stroke: #1f77b4; stroke-opacity: 0.8"/>
     <use xlink:href="#m51b52e7a35" x="567.078815" y="269.904163" style="fill: #1f77b4; fill-opacity: 0.8; stroke: #1f77b4; stroke-opacity: 0.8"/>
     <use xlink:href="#m51b52e7a35" x="627.468425" y="248.605544" style="fill: #1f77b4; fill-opacity: 0.8; stroke: #1f77b4; stroke-opacity: 0.8"/>
     <use xlink:href="#m51b52e7a35" x="627.468425" y="171.243689" style="fill: #1f77b4; fill-opacity: 0.8; stroke: #1f77b4; stroke-opacity: 0.8"/>
     <use xlink:href="#m51b52e7a35" x="687.858036" y="173.740112" style="fill: #1f77b4; fill-opacity: 0.8; stroke: #1f77b4; stroke-opacity: 0.8"/>
     <use xlink:href="#m51b52e7a35" x="687.858036" y="165.832289" style="fill: #1f77b4; fill-opacity: 0.8; stroke: #1f77b4; stroke-opacity: 0.8"/>
     <use xlink:href="#m51b52e7a35" x="687.858036" y="231.165595" style="fill: #1f77b4; fill-opacity: 0.8; stroke: #1f77b4; stroke-opacity: 0.8"/>
     <use xlink:href="#m51b52e7a35" x="687.858036" y="220.00978" style="fill: #1f77b4; fill-opacity: 0.8; stroke: #1f77b4; stroke-opacity: 0.8"/>
     <use xlink:href="#m51b52e7a35" x="687.858036" y="149.512769" style="fill: #1f77b4; fill-opacity: 0.8; stroke: #1f77b4; stroke-opacity: 0.8"/>
     <use xlink:href="#m51b52e7a35" x="808.637256" y="144.72004" style="fill: #1f77b4; fill-opacity: 0.8; stroke: #1f77b4; stroke-opacity: 0.8"/>
     <use xlink:href="#m51b52e7a35" x="687.858036" y="199.547601" style="fill: #1f77b4; fill-opacity: 0.8; stroke: #1f77b4; stroke-opacity: 0.8"/>
     <use xlink:href="#m51b52e7a35" x="869.026867" y="208.360595" style="fill: #1f77b4; fill-opacity: 0.8; stroke: #1f77b4; stroke-opacity: 0.8"/>
    </g>
   </g>
   <g id="PolyCollection_2">
    <path d="M 506.689205 219.972906 
L 506.689205 298.145455 
L 510.349181 295.78227 
L 514.009157 293.377092 
L 517.669134 290.97581 
L 521.32911 288.631682 
L 524.989086 287.00063 
L 528.649063 284.787844 
L 532.309039 282.668398 
L 535.969016 280.682701 
L 539.628992 278.4124 
L 543.288968 276.508986 
L 546.948945 274.605571 
L 550.608921 272.688193 
L 554.268898 270.239081 
L 557.928874 267.942895 
L 561.58885 266.043484 
L 565.248827 264.144012 
L 568.908803 262.445846 
L 572.56878 260.050564 
L 576.228756 258.406314 
L 579.888732 256.734178 
L 583.548709 254.752677 
L 587.208685 252.636936 
L 590.868661 250.910202 
L 594.528638 249.15582 
L 598.188614 247.78513 
L 601.848591 246.583264 
L 605.508567 245.041275 
L 609.168543 243.66886 
L 612.82852 242.03476 
L 616.488496 240.735059 
L 620.148473 239.193422 
L 623.808449 237.869185 
L 627.468425 236.557198 
L 631.128402 235.705047 
L 634.788378 234.842843 
L 638.448354 233.376578 
L 642.108331 232.335599 
L 645.768307 231.308858 
L 649.428284 230.543311 
L 653.08826 229.678502 
L 656.748236 228.828727 
L 660.408213 228.212937 
L 664.068189 226.98923 
L 667.728166 226.046945 
L 671.388142 225.204772 
L 675.048118 224.317849 
L 678.708095 223.430926 
L 682.368071 222.537124 
L 686.028048 221.490747 
L 689.688024 220.63283 
L 693.348 219.587753 
L 697.007977 218.799485 
L 700.667953 217.850943 
L 704.327929 217.007131 
L 707.987906 216.218534 
L 711.647882 215.204494 
L 715.307859 214.453408 
L 718.967835 213.306869 
L 722.627811 212.719154 
L 726.287788 212.108746 
L 729.947764 211.562158 
L 733.607741 210.777949 
L 737.267717 209.801011 
L 740.927693 208.806471 
L 744.58767 207.895756 
L 748.247646 207.175543 
L 751.907622 206.47673 
L 755.567599 206.086114 
L 759.227575 205.300856 
L 762.887552 204.77783 
L 766.547528 204.249969 
L 770.207504 203.626437 
L 773.867481 202.854897 
L 777.527457 202.078912 
L 781.187434 201.409496 
L 784.84741 200.833829 
L 788.507386 200.134091 
L 792.167363 199.855455 
L 795.827339 199.225886 
L 799.487316 198.479597 
L 803.147292 197.79495 
L 806.807268 197.385506 
L 810.467245 197.103452 
L 814.127221 196.821398 
L 817.787197 196.535063 
L 821.447174 196.005945 
L 825.10715 195.310659 
L 828.767127 194.988171 
L 832.427103 194.260265 
L 836.087079 193.496156 
L 839.747056 192.977932 
L 843.407032 192.307982 
L 847.067009 191.859661 
L 850.726985 191.421835 
L 854.386961 190.962026 
L 858.046938 190.636891 
L 861.706914 190.385285 
L 865.36689 190.076309 
L 869.026867 189.39196 
L 869.026867 69.054545 
L 869.026867 69.054545 
L 865.36689 71.240319 
L 861.706914 73.426093 
L 858.046938 75.611866 
L 854.386961 77.79764 
L 850.726985 79.983413 
L 847.067009 82.169187 
L 843.407032 84.35496 
L 839.747056 86.540734 
L 836.087079 88.872679 
L 832.427103 91.090334 
L 828.767127 93.076872 
L 825.10715 95.248253 
L 821.447174 97.229478 
L 817.787197 99.198979 
L 814.127221 101.173758 
L 810.467245 103.18262 
L 806.807268 105.478505 
L 803.147292 107.77982 
L 799.487316 110.088397 
L 795.827339 112.396975 
L 792.167363 114.746029 
L 788.507386 117.035528 
L 784.84741 119.209225 
L 781.187434 121.390643 
L 777.527457 123.633237 
L 773.867481 125.745051 
L 770.207504 127.918372 
L 766.547528 130.091692 
L 762.887552 132.265012 
L 759.227575 134.438332 
L 755.567599 136.617344 
L 751.907622 138.806793 
L 748.247646 141.087598 
L 744.58767 143.713424 
L 740.927693 146.124526 
L 737.267717 148.249016 
L 733.607741 150.373506 
L 729.947764 152.362056 
L 726.287788 154.447087 
L 722.627811 156.746975 
L 718.967835 158.597288 
L 715.307859 160.998278 
L 711.647882 163.127517 
L 707.987906 164.998542 
L 704.327929 167.124769 
L 700.667953 169.047979 
L 697.007977 170.870275 
L 693.348 172.771007 
L 689.688024 174.711456 
L 686.028048 176.768119 
L 682.368071 178.602823 
L 678.708095 180.907854 
L 675.048118 183.116761 
L 671.388142 184.759501 
L 667.728166 186.850863 
L 664.068189 188.519942 
L 660.408213 190.18091 
L 656.748236 191.499646 
L 653.08826 192.719767 
L 649.428284 194.186115 
L 645.768307 195.342046 
L 642.108331 196.471983 
L 638.448354 197.611913 
L 634.788378 198.987902 
L 631.128402 200.637578 
L 627.468425 202.019345 
L 623.808449 202.903132 
L 620.148473 204.026617 
L 616.488496 205.004593 
L 612.82852 205.723597 
L 609.168543 206.652041 
L 605.508567 207.489434 
L 601.848591 208.31714 
L 598.188614 209.456893 
L 594.528638 209.734182 
L 590.868661 210.267826 
L 587.208685 210.611576 
L 583.548709 210.781242 
L 579.888732 211.023299 
L 576.228756 211.854163 
L 572.56878 212.756872 
L 568.908803 213.65958 
L 565.248827 214.389027 
L 561.58885 214.823815 
L 557.928874 215.258603 
L 554.268898 215.653841 
L 550.608921 215.949404 
L 546.948945 216.244966 
L 543.288968 216.673842 
L 539.628992 217.242966 
L 535.969016 217.754406 
L 532.309039 218.030578 
L 528.649063 218.306749 
L 524.989086 218.58292 
L 521.32911 218.859091 
L 517.669134 219.135263 
L 514.009157 219.412211 
L 510.349181 219.692558 
L 506.689205 219.972906 
z
" clip-path="url(#pbc48df2330)" style="fill: #ffa500; fill-opacity: 0.15"/>
   </g>
   <g id="matplotlib.axis_3">
    <g id="xtick_6">
     <g id="line2d_13">
      <g>
       <use xlink:href="#m35846ac293" x="522.390503" y="309.6" style="stroke: #000000; stroke-width: 0.8"/>
      </g>
     </g>
     <g id="text_14">
      <!-- 0.02 -->
      <g transform="translate(511.257691 324.198437) scale(0.1 -0.1)">
       <use xlink:href="#DejaVuSans-30"/>
       <use xlink:href="#DejaVuSans-2e" x="63.623047"/>
       <use xlink:href="#DejaVuSans-30" x="95.410156"/>
       <use xlink:href="#DejaVuSans-32" x="159.033203"/>
      </g>
     </g>
    </g>
    <g id="xtick_7">
     <g id="line2d_14">
      <g>
       <use xlink:href="#m35846ac293" x="598.481412" y="309.6" style="stroke: #000000; stroke-width: 0.8"/>
      </g>
     </g>
     <g id="text_15">
      <!-- 0.04 -->
      <g transform="translate(587.3486 324.198437) scale(0.1 -0.1)">
       <use xlink:href="#DejaVuSans-30"/>
       <use xlink:href="#DejaVuSans-2e" x="63.623047"/>
       <use xlink:href="#DejaVuSans-30" x="95.410156"/>
       <use xlink:href="#DejaVuSans-34" x="159.033203"/>
      </g>
     </g>
    </g>
    <g id="xtick_8">
     <g id="line2d_15">
      <g>
       <use xlink:href="#m35846ac293" x="674.572321" y="309.6" style="stroke: #000000; stroke-width: 0.8"/>
      </g>
     </g>
     <g id="text_16">
      <!-- 0.06 -->
      <g transform="translate(663.439509 324.198437) scale(0.1 -0.1)">
       <use xlink:href="#DejaVuSans-30"/>
       <use xlink:href="#DejaVuSans-2e" x="63.623047"/>
       <use xlink:href="#DejaVuSans-30" x="95.410156"/>
       <use xlink:href="#DejaVuSans-36" x="159.033203"/>
      </g>
     </g>
    </g>
    <g id="xtick_9">
     <g id="line2d_16">
      <g>
       <use xlink:href="#m35846ac293" x="750.663231" y="309.6" style="stroke: #000000; stroke-width: 0.8"/>
      </g>
     </g>
     <g id="text_17">
      <!-- 0.08 -->
      <g transform="translate(739.530418 324.198437) scale(0.1 -0.1)">
       <use xlink:href="#DejaVuSans-30"/>
       <use xlink:href="#DejaVuSans-2e" x="63.623047"/>
       <use xlink:href="#DejaVuSans-30" x="95.410156"/>
       <use xlink:href="#DejaVuSans-38" x="159.033203"/>
      </g>
     </g>
    </g>
    <g id="xtick_10">
     <g id="line2d_17">
      <g>
       <use xlink:href="#m35846ac293" x="826.75414" y="309.6" style="stroke: #000000; stroke-width: 0.8"/>
      </g>
     </g>
     <g id="text_18">
      <!-- 0.10 -->
      <g transform="translate(815.621327 324.198437) scale(0.1 -0.1)">
       <use xlink:href="#DejaVuSans-30"/>
       <use xlink:href="#DejaVuSans-2e" x="63.623047"/>
       <use xlink:href="#DejaVuSans-31" x="95.410156"/>
       <use xlink:href="#DejaVuSans-30" x="159.033203"/>
      </g>
     </g>
    </g>
    <g id="text_19">
     <!-- Codon+Cost -->
     <g transform="translate(656.599442 337.876562) scale(0.1 -0.1)">
      <defs>
       <path id="DejaVuSans-2b" d="M 2944 4013 
L 2944 2272 
L 4684 2272 
L 4684 1741 
L 2944 1741 
L 2944 0 
L 2419 0 
L 2419 1741 
L 678 1741 
L 678 2272 
L 2419 2272 
L 2419 4013 
L 2944 4013 
z
" transform="scale(0.015625)"/>
       <path id="DejaVuSans-73" d="M 2834 3397 
L 2834 2853 
Q 2591 2978 2328 3040 
Q 2066 3103 1784 3103 
Q 1356 3103 1142 2972 
Q 928 2841 928 2578 
Q 928 2378 1081 2264 
Q 1234 2150 1697 2047 
L 1894 2003 
Q 2506 1872 2764 1633 
Q 3022 1394 3022 966 
Q 3022 478 2636 193 
Q 2250 -91 1575 -91 
Q 1294 -91 989 -36 
Q 684 19 347 128 
L 347 722 
Q 666 556 975 473 
Q 1284 391 1588 391 
Q 1994 391 2212 530 
Q 2431 669 2431 922 
Q 2431 1156 2273 1281 
Q 2116 1406 1581 1522 
L 1381 1569 
Q 847 1681 609 1914 
Q 372 2147 372 2553 
Q 372 3047 722 3315 
Q 1072 3584 1716 3584 
Q 2034 3584 2315 3537 
Q 2597 3491 2834 3397 
z
" transform="scale(0.015625)"/>
       <path id="DejaVuSans-74" d="M 1172 4494 
L 1172 3500 
L 2356 3500 
L 2356 3053 
L 1172 3053 
L 1172 1153 
Q 1172 725 1289 603 
Q 1406 481 1766 481 
L 2356 481 
L 2356 0 
L 1766 0 
Q 1100 0 847 248 
Q 594 497 594 1153 
L 594 3053 
L 172 3053 
L 172 3500 
L 594 3500 
L 594 4494 
L 1172 4494 
z
" transform="scale(0.015625)"/>
      </defs>
      <use xlink:href="#DejaVuSans-43"/>
      <use xlink:href="#DejaVuSans-6f" x="69.824219"/>
      <use xlink:href="#DejaVuSans-64" x="131.005859"/>
      <use xlink:href="#DejaVuSans-6f" x="194.482422"/>
      <use xlink:href="#DejaVuSans-6e" x="255.664062"/>
      <use xlink:href="#DejaVuSans-2b" x="319.042969"/>
      <use xlink:href="#DejaVuSans-43" x="402.832031"/>
      <use xlink:href="#DejaVuSans-6f" x="472.65625"/>
      <use xlink:href="#DejaVuSans-73" x="533.837891"/>
      <use xlink:href="#DejaVuSans-74" x="585.9375"/>
     </g>
    </g>
   </g>
   <g id="matplotlib.axis_4">
    <g id="ytick_7">
     <g id="line2d_18">
      <g>
       <use xlink:href="#m18b2ed36dc" x="488.572321" y="272.576143" style="stroke: #000000; stroke-width: 0.8"/>
      </g>
     </g>
     <g id="text_20">
      <!-- 0.02 -->
      <g transform="translate(459.306696 276.375361) scale(0.1 -0.1)">
       <use xlink:href="#DejaVuSans-30"/>
       <use xlink:href="#DejaVuSans-2e" x="63.623047"/>
       <use xlink:href="#DejaVuSans-30" x="95.410156"/>
       <use xlink:href="#DejaVuSans-32" x="159.033203"/>
      </g>
     </g>
    </g>
    <g id="ytick_8">
     <g id="line2d_19">
      <g>
       <use xlink:href="#m18b2ed36dc" x="488.572321" y="234.929535" style="stroke: #000000; stroke-width: 0.8"/>
      </g>
     </g>
     <g id="text_21">
      <!-- 0.04 -->
      <g transform="translate(459.306696 238.728754) scale(0.1 -0.1)">
       <use xlink:href="#DejaVuSans-30"/>
       <use xlink:href="#DejaVuSans-2e" x="63.623047"/>
       <use xlink:href="#DejaVuSans-30" x="95.410156"/>
       <use xlink:href="#DejaVuSans-34" x="159.033203"/>
      </g>
     </g>
    </g>
    <g id="ytick_9">
     <g id="line2d_20">
      <g>
       <use xlink:href="#m18b2ed36dc" x="488.572321" y="197.282927" style="stroke: #000000; stroke-width: 0.8"/>
      </g>
     </g>
     <g id="text_22">
      <!-- 0.06 -->
      <g transform="translate(459.306696 201.082146) scale(0.1 -0.1)">
       <use xlink:href="#DejaVuSans-30"/>
       <use xlink:href="#DejaVuSans-2e" x="63.623047"/>
       <use xlink:href="#DejaVuSans-30" x="95.410156"/>
       <use xlink:href="#DejaVuSans-36" x="159.033203"/>
      </g>
     </g>
    </g>
    <g id="ytick_10">
     <g id="line2d_21">
      <g>
       <use xlink:href="#m18b2ed36dc" x="488.572321" y="159.63632" style="stroke: #000000; stroke-width: 0.8"/>
      </g>
     </g>
     <g id="text_23">
      <!-- 0.08 -->
      <g transform="translate(459.306696 163.435538) scale(0.1 -0.1)">
       <use xlink:href="#DejaVuSans-30"/>
       <use xlink:href="#DejaVuSans-2e" x="63.623047"/>
       <use xlink:href="#DejaVuSans-30" x="95.410156"/>
       <use xlink:href="#DejaVuSans-38" x="159.033203"/>
      </g>
     </g>
    </g>
    <g id="ytick_11">
     <g id="line2d_22">
      <g>
       <use xlink:href="#m18b2ed36dc" x="488.572321" y="121.989712" style="stroke: #000000; stroke-width: 0.8"/>
      </g>
     </g>
     <g id="text_24">
      <!-- 0.10 -->
      <g transform="translate(459.306696 125.788931) scale(0.1 -0.1)">
       <use xlink:href="#DejaVuSans-30"/>
       <use xlink:href="#DejaVuSans-2e" x="63.623047"/>
       <use xlink:href="#DejaVuSans-31" x="95.410156"/>
       <use xlink:href="#DejaVuSans-30" x="159.033203"/>
      </g>
     </g>
    </g>
    <g id="ytick_12">
     <g id="line2d_23">
      <g>
       <use xlink:href="#m18b2ed36dc" x="488.572321" y="84.343105" style="stroke: #000000; stroke-width: 0.8"/>
      </g>
     </g>
     <g id="text_25">
      <!-- 0.12 -->
      <g transform="translate(459.306696 88.142323) scale(0.1 -0.1)">
       <use xlink:href="#DejaVuSans-30"/>
       <use xlink:href="#DejaVuSans-2e" x="63.623047"/>
       <use xlink:href="#DejaVuSans-31" x="95.410156"/>
       <use xlink:href="#DejaVuSans-32" x="159.033203"/>
      </g>
     </g>
    </g>
   </g>
   <g id="line2d_24">
    <path d="M 506.689205 256.562114 
L 510.349181 255.472786 
L 514.009157 254.383457 
L 517.669134 253.294128 
L 521.32911 252.204799 
L 524.989086 251.11547 
L 528.649063 250.026141 
L 532.309039 248.936812 
L 535.969016 247.847484 
L 539.628992 246.758155 
L 543.288968 245.668826 
L 546.948945 244.579497 
L 550.608921 243.490168 
L 554.268898 242.400839 
L 557.928874 241.31151 
L 561.58885 240.222181 
L 565.248827 239.132853 
L 568.908803 238.043524 
L 572.56878 236.954195 
L 576.228756 235.864866 
L 579.888732 234.775537 
L 583.548709 233.686208 
L 587.208685 232.596879 
L 590.868661 231.507551 
L 594.528638 230.418222 
L 598.188614 229.328893 
L 601.848591 228.239564 
L 605.508567 227.150235 
L 609.168543 226.060906 
L 612.82852 224.971577 
L 616.488496 223.882248 
L 620.148473 222.79292 
L 623.808449 221.703591 
L 627.468425 220.614262 
L 631.128402 219.524933 
L 634.788378 218.435604 
L 638.448354 217.346275 
L 642.108331 216.256946 
L 645.768307 215.167618 
L 649.428284 214.078289 
L 653.08826 212.98896 
L 656.748236 211.899631 
L 660.408213 210.810302 
L 664.068189 209.720973 
L 667.728166 208.631644 
L 671.388142 207.542315 
L 675.048118 206.452987 
L 678.708095 205.363658 
L 682.368071 204.274329 
L 686.028048 203.185 
L 689.688024 202.095671 
L 693.348 201.006342 
L 697.007977 199.917013 
L 700.667953 198.827685 
L 704.327929 197.738356 
L 707.987906 196.649027 
L 711.647882 195.559698 
L 715.307859 194.470369 
L 718.967835 193.38104 
L 722.627811 192.291711 
L 726.287788 191.202382 
L 729.947764 190.113054 
L 733.607741 189.023725 
L 737.267717 187.934396 
L 740.927693 186.845067 
L 744.58767 185.755738 
L 748.247646 184.666409 
L 751.907622 183.57708 
L 755.567599 182.487752 
L 759.227575 181.398423 
L 762.887552 180.309094 
L 766.547528 179.219765 
L 770.207504 178.130436 
L 773.867481 177.041107 
L 777.527457 175.951778 
L 781.187434 174.862449 
L 784.84741 173.773121 
L 788.507386 172.683792 
L 792.167363 171.594463 
L 795.827339 170.505134 
L 799.487316 169.415805 
L 803.147292 168.326476 
L 806.807268 167.237147 
L 810.467245 166.147819 
L 814.127221 165.05849 
L 817.787197 163.969161 
L 821.447174 162.879832 
L 825.10715 161.790503 
L 828.767127 160.701174 
L 832.427103 159.611845 
L 836.087079 158.522516 
L 839.747056 157.433188 
L 843.407032 156.343859 
L 847.067009 155.25453 
L 850.726985 154.165201 
L 854.386961 153.075872 
L 858.046938 151.986543 
L 861.706914 150.897214 
L 865.36689 149.807886 
L 869.026867 148.718557 
" clip-path="url(#pbc48df2330)" style="fill: none; stroke: #ffa500; stroke-width: 2.25; stroke-linecap: square"/>
   </g>
   <g id="patch_8">
    <path d="M 488.572321 309.6 
L 488.572321 57.6 
" style="fill: none; stroke: #000000; stroke-width: 0.8; stroke-linejoin: miter; stroke-linecap: square"/>
   </g>
   <g id="patch_9">
    <path d="M 887.14375 309.6 
L 887.14375 57.6 
" style="fill: none; stroke: #000000; stroke-width: 0.8; stroke-linejoin: miter; stroke-linecap: square"/>
   </g>
   <g id="patch_10">
    <path d="M 488.572321 309.6 
L 887.14375 309.6 
" style="fill: none; stroke: #000000; stroke-width: 0.8; stroke-linejoin: miter; stroke-linecap: square"/>
   </g>
   <g id="patch_11">
    <path d="M 488.572321 57.6 
L 887.14375 57.6 
" style="fill: none; stroke: #000000; stroke-width: 0.8; stroke-linejoin: miter; stroke-linecap: square"/>
   </g>
  </g>
  <g id="axes_3">
   <g id="patch_12">
    <path d="M 50.14375 612 
L 448.715179 612 
L 448.715179 360 
L 50.14375 360 
z
" style="fill: #ffffff"/>
   </g>
   <g id="PathCollection_3">
    <g clip-path="url(#p526c7e8bc6)">
     <use xlink:href="#m51b52e7a35" x="68.260633" y="563.891323" style="fill: #1f77b4; fill-opacity: 0.8; stroke: #1f77b4; stroke-opacity: 0.8"/>
     <use xlink:href="#m51b52e7a35" x="127.949083" y="598.09032" style="fill: #1f77b4; fill-opacity: 0.8; stroke: #1f77b4; stroke-opacity: 0.8"/>
     <use xlink:href="#m51b52e7a35" x="127.949083" y="596.097315" style="fill: #1f77b4; fill-opacity: 0.8; stroke: #1f77b4; stroke-opacity: 0.8"/>
     <use xlink:href="#m51b52e7a35" x="127.949083" y="484.090477" style="fill: #1f77b4; fill-opacity: 0.8; stroke: #1f77b4; stroke-opacity: 0.8"/>
     <use xlink:href="#m51b52e7a35" x="127.949083" y="449.196867" style="fill: #1f77b4; fill-opacity: 0.8; stroke: #1f77b4; stroke-opacity: 0.8"/>
     <use xlink:href="#m51b52e7a35" x="142.969458" y="550.79768" style="fill: #1f77b4; fill-opacity: 0.8; stroke: #1f77b4; stroke-opacity: 0.8"/>
     <use xlink:href="#m51b52e7a35" x="127.949083" y="576.807018" style="fill: #1f77b4; fill-opacity: 0.8; stroke: #1f77b4; stroke-opacity: 0.8"/>
     <use xlink:href="#m51b52e7a35" x="202.657909" y="486.09901" style="fill: #1f77b4; fill-opacity: 0.8; stroke: #1f77b4; stroke-opacity: 0.8"/>
     <use xlink:href="#m51b52e7a35" x="142.969458" y="544.848746" style="fill: #1f77b4; fill-opacity: 0.8; stroke: #1f77b4; stroke-opacity: 0.8"/>
     <use xlink:href="#m51b52e7a35" x="127.949083" y="568.959348" style="fill: #1f77b4; fill-opacity: 0.8; stroke: #1f77b4; stroke-opacity: 0.8"/>
     <use xlink:href="#m51b52e7a35" x="217.678284" y="546.206801" style="fill: #1f77b4; fill-opacity: 0.8; stroke: #1f77b4; stroke-opacity: 0.8"/>
     <use xlink:href="#m51b52e7a35" x="217.678284" y="463.56392" style="fill: #1f77b4; fill-opacity: 0.8; stroke: #1f77b4; stroke-opacity: 0.8"/>
     <use xlink:href="#m51b52e7a35" x="265.235104" y="466.230758" style="fill: #1f77b4; fill-opacity: 0.8; stroke: #1f77b4; stroke-opacity: 0.8"/>
     <use xlink:href="#m51b52e7a35" x="265.235104" y="457.783117" style="fill: #1f77b4; fill-opacity: 0.8; stroke: #1f77b4; stroke-opacity: 0.8"/>
     <use xlink:href="#m51b52e7a35" x="265.235104" y="527.576332" style="fill: #1f77b4; fill-opacity: 0.8; stroke: #1f77b4; stroke-opacity: 0.8"/>
     <use xlink:href="#m51b52e7a35" x="248.728304" y="515.658977" style="fill: #1f77b4; fill-opacity: 0.8; stroke: #1f77b4; stroke-opacity: 0.8"/>
     <use xlink:href="#m51b52e7a35" x="248.728304" y="440.349561" style="fill: #1f77b4; fill-opacity: 0.8; stroke: #1f77b4; stroke-opacity: 0.8"/>
     <use xlink:href="#m51b52e7a35" x="384.5279" y="435.229662" style="fill: #1f77b4; fill-opacity: 0.8; stroke: #1f77b4; stroke-opacity: 0.8"/>
     <use xlink:href="#m51b52e7a35" x="265.235104" y="493.799969" style="fill: #1f77b4; fill-opacity: 0.8; stroke: #1f77b4; stroke-opacity: 0.8"/>
     <use xlink:href="#m51b52e7a35" x="430.598295" y="503.214573" style="fill: #1f77b4; fill-opacity: 0.8; stroke: #1f77b4; stroke-opacity: 0.8"/>
    </g>
   </g>
   <g id="PolyCollection_3">
    <path d="M 68.260633 516.813957 
L 68.260633 600.545455 
L 71.92061 598.578504 
L 75.580586 596.611554 
L 79.240562 594.644604 
L 82.900539 592.669337 
L 86.560515 589.949379 
L 90.220491 587.084187 
L 93.880468 584.74351 
L 97.540444 583.250997 
L 101.200421 581.056041 
L 104.860397 578.859218 
L 108.520373 577.102381 
L 112.18035 575.398859 
L 115.840326 573.295796 
L 119.500303 571.319959 
L 123.160279 569.197866 
L 126.820255 567.297747 
L 130.480232 565.152816 
L 134.140208 563.405858 
L 137.800184 561.483117 
L 141.460161 559.586518 
L 145.120137 557.834763 
L 148.780114 555.720182 
L 152.44009 553.826571 
L 156.100066 552.388457 
L 159.760043 550.80547 
L 163.420019 548.948071 
L 167.079996 547.090667 
L 170.739972 545.401334 
L 174.399948 543.63132 
L 178.059925 541.690594 
L 181.719901 540.365716 
L 185.379878 538.862901 
L 189.039854 537.751981 
L 192.69983 536.589776 
L 196.359807 535.157366 
L 200.019783 533.379841 
L 203.679759 531.775308 
L 207.339736 530.493704 
L 210.999712 529.386284 
L 214.659689 528.259487 
L 218.319665 527.061069 
L 221.979641 525.716362 
L 225.639618 524.31438 
L 229.299594 523.358759 
L 232.959571 521.982427 
L 236.619547 520.865887 
L 240.279523 519.85137 
L 243.9395 518.722221 
L 247.599476 517.760402 
L 251.259452 516.807375 
L 254.919429 515.88957 
L 258.579405 514.893064 
L 262.239382 513.939835 
L 265.899358 512.980188 
L 269.559334 512.027192 
L 273.219311 511.07177 
L 276.879287 510.113967 
L 280.539264 509.118584 
L 284.19924 508.250312 
L 287.859216 507.488855 
L 291.519193 506.834008 
L 295.179169 505.905501 
L 298.839146 505.255516 
L 302.499122 504.573061 
L 306.159098 503.890605 
L 309.819075 503.208149 
L 313.479051 502.577012 
L 317.139027 501.899253 
L 320.799004 501.199722 
L 324.45898 500.60007 
L 328.118957 499.958603 
L 331.778933 499.272038 
L 335.438909 498.447861 
L 339.098886 497.851561 
L 342.758862 497.378738 
L 346.418839 496.717527 
L 350.078815 495.948039 
L 353.738791 495.172487 
L 357.398768 494.40286 
L 361.058744 493.942926 
L 364.71872 493.236658 
L 368.378697 492.842994 
L 372.038673 492.34624 
L 375.69865 491.385912 
L 379.358626 490.988226 
L 383.018602 490.124325 
L 386.678579 489.649991 
L 390.338555 489.17057 
L 393.998532 488.474449 
L 397.658508 487.764767 
L 401.318484 487.181035 
L 404.978461 486.366815 
L 408.638437 485.544372 
L 412.298414 484.761758 
L 415.95839 484.035961 
L 419.618366 483.396777 
L 423.278343 482.898842 
L 426.938319 482.605704 
L 430.598295 482.309963 
L 430.598295 371.454545 
L 430.598295 371.454545 
L 426.938319 373.563158 
L 423.278343 375.671771 
L 419.618366 377.780384 
L 415.95839 379.888997 
L 412.298414 382.068782 
L 408.638437 384.274598 
L 404.978461 386.480414 
L 401.318484 388.692493 
L 397.658508 391.017695 
L 393.998532 393.238133 
L 390.338555 395.317331 
L 386.678579 397.522134 
L 383.018602 399.732979 
L 379.358626 401.943825 
L 375.69865 404.165252 
L 372.038673 406.470026 
L 368.378697 408.705177 
L 364.71872 410.783622 
L 361.058744 412.98466 
L 357.398768 415.192808 
L 353.738791 417.355685 
L 350.078815 419.601268 
L 346.418839 421.811304 
L 342.758862 424.022984 
L 339.098886 426.236624 
L 335.438909 428.450881 
L 331.778933 430.539509 
L 328.118957 432.644703 
L 324.45898 434.612955 
L 320.799004 436.602433 
L 317.139027 438.623644 
L 313.479051 440.950975 
L 309.819075 442.932965 
L 306.159098 444.939492 
L 302.499122 447.230423 
L 298.839146 449.122835 
L 295.179169 451.015248 
L 291.519193 452.908243 
L 287.859216 455.249082 
L 284.19924 457.651369 
L 280.539264 459.731388 
L 276.879287 461.224579 
L 273.219311 463.24755 
L 269.559334 465.076878 
L 265.899358 466.914992 
L 262.239382 468.937322 
L 258.579405 470.96194 
L 254.919429 473.035699 
L 251.259452 474.755143 
L 247.599476 476.770454 
L 243.9395 478.54322 
L 240.279523 479.930016 
L 236.619547 481.349731 
L 232.959571 483.213525 
L 229.299594 484.43043 
L 225.639618 485.612485 
L 221.979641 487.026142 
L 218.319665 488.337148 
L 214.659689 489.661046 
L 210.999712 491.124924 
L 207.339736 492.017212 
L 203.679759 493.152919 
L 200.019783 494.209501 
L 196.359807 495.105482 
L 192.69983 496.008026 
L 189.039854 497.147475 
L 185.379878 497.988596 
L 181.719901 499.207014 
L 178.059925 500.129539 
L 174.399948 500.874673 
L 170.739972 501.411061 
L 167.079996 502.422509 
L 163.420019 503.165261 
L 159.760043 503.686922 
L 156.100066 504.084905 
L 152.44009 504.480252 
L 148.780114 505.034493 
L 145.120137 505.646377 
L 141.460161 506.294031 
L 137.800184 506.800166 
L 134.140208 507.294877 
L 130.480232 507.803568 
L 126.820255 508.357889 
L 123.160279 508.941658 
L 119.500303 509.466583 
L 115.840326 510.131935 
L 112.18035 510.94098 
L 108.520373 511.750024 
L 104.860397 512.088478 
L 101.200421 512.355251 
L 97.540444 512.869289 
L 93.880468 513.52295 
L 90.220491 514.176611 
L 86.560515 514.830272 
L 82.900539 515.446309 
L 79.240562 515.66499 
L 75.580586 515.868135 
L 71.92061 516.292532 
L 68.260633 516.813957 
z
" clip-path="url(#p526c7e8bc6)" style="fill: #ffa500; fill-opacity: 0.15"/>
   </g>
   <g id="matplotlib.axis_5">
    <g id="xtick_11">
     <g id="line2d_25">
      <g>
       <use xlink:href="#m35846ac293" x="88.192368" y="612" style="stroke: #000000; stroke-width: 0.8"/>
      </g>
     </g>
     <g id="text_26">
      <!-- 0.02 -->
      <g transform="translate(77.059555 626.598437) scale(0.1 -0.1)">
       <use xlink:href="#DejaVuSans-30"/>
       <use xlink:href="#DejaVuSans-2e" x="63.623047"/>
       <use xlink:href="#DejaVuSans-30" x="95.410156"/>
       <use xlink:href="#DejaVuSans-32" x="159.033203"/>
      </g>
     </g>
    </g>
    <g id="xtick_12">
     <g id="line2d_26">
      <g>
       <use xlink:href="#m35846ac293" x="169.214873" y="612" style="stroke: #000000; stroke-width: 0.8"/>
      </g>
     </g>
     <g id="text_27">
      <!-- 0.04 -->
      <g transform="translate(158.082061 626.598437) scale(0.1 -0.1)">
       <use xlink:href="#DejaVuSans-30"/>
       <use xlink:href="#DejaVuSans-2e" x="63.623047"/>
       <use xlink:href="#DejaVuSans-30" x="95.410156"/>
       <use xlink:href="#DejaVuSans-34" x="159.033203"/>
      </g>
     </g>
    </g>
    <g id="xtick_13">
     <g id="line2d_27">
      <g>
       <use xlink:href="#m35846ac293" x="250.237379" y="612" style="stroke: #000000; stroke-width: 0.8"/>
      </g>
     </g>
     <g id="text_28">
      <!-- 0.06 -->
      <g transform="translate(239.104566 626.598437) scale(0.1 -0.1)">
       <use xlink:href="#DejaVuSans-30"/>
       <use xlink:href="#DejaVuSans-2e" x="63.623047"/>
       <use xlink:href="#DejaVuSans-30" x="95.410156"/>
       <use xlink:href="#DejaVuSans-36" x="159.033203"/>
      </g>
     </g>
    </g>
    <g id="xtick_14">
     <g id="line2d_28">
      <g>
       <use xlink:href="#m35846ac293" x="331.259884" y="612" style="stroke: #000000; stroke-width: 0.8"/>
      </g>
     </g>
     <g id="text_29">
      <!-- 0.08 -->
      <g transform="translate(320.127071 626.598437) scale(0.1 -0.1)">
       <use xlink:href="#DejaVuSans-30"/>
       <use xlink:href="#DejaVuSans-2e" x="63.623047"/>
       <use xlink:href="#DejaVuSans-30" x="95.410156"/>
       <use xlink:href="#DejaVuSans-38" x="159.033203"/>
      </g>
     </g>
    </g>
    <g id="xtick_15">
     <g id="line2d_29">
      <g>
       <use xlink:href="#m35846ac293" x="412.282389" y="612" style="stroke: #000000; stroke-width: 0.8"/>
      </g>
     </g>
     <g id="text_30">
      <!-- 0.10 -->
      <g transform="translate(401.149577 626.598437) scale(0.1 -0.1)">
       <use xlink:href="#DejaVuSans-30"/>
       <use xlink:href="#DejaVuSans-2e" x="63.623047"/>
       <use xlink:href="#DejaVuSans-31" x="95.410156"/>
       <use xlink:href="#DejaVuSans-30" x="159.033203"/>
      </g>
     </g>
    </g>
    <g id="text_31">
     <!-- Codon+GC -->
     <g transform="translate(221.920871 640.276562) scale(0.1 -0.1)">
      <defs>
       <path id="DejaVuSans-47" d="M 3809 666 
L 3809 1919 
L 2778 1919 
L 2778 2438 
L 4434 2438 
L 4434 434 
Q 4069 175 3628 42 
Q 3188 -91 2688 -91 
Q 1594 -91 976 548 
Q 359 1188 359 2328 
Q 359 3472 976 4111 
Q 1594 4750 2688 4750 
Q 3144 4750 3555 4637 
Q 3966 4525 4313 4306 
L 4313 3634 
Q 3963 3931 3569 4081 
Q 3175 4231 2741 4231 
Q 1884 4231 1454 3753 
Q 1025 3275 1025 2328 
Q 1025 1384 1454 906 
Q 1884 428 2741 428 
Q 3075 428 3337 486 
Q 3600 544 3809 666 
z
" transform="scale(0.015625)"/>
      </defs>
      <use xlink:href="#DejaVuSans-43"/>
      <use xlink:href="#DejaVuSans-6f" x="69.824219"/>
      <use xlink:href="#DejaVuSans-64" x="131.005859"/>
      <use xlink:href="#DejaVuSans-6f" x="194.482422"/>
      <use xlink:href="#DejaVuSans-6e" x="255.664062"/>
      <use xlink:href="#DejaVuSans-2b" x="319.042969"/>
      <use xlink:href="#DejaVuSans-47" x="402.832031"/>
      <use xlink:href="#DejaVuSans-43" x="480.322266"/>
     </g>
    </g>
   </g>
   <g id="matplotlib.axis_6">
    <g id="ytick_13">
     <g id="line2d_30">
      <g>
       <use xlink:href="#m18b2ed36dc" x="50.14375" y="571.813728" style="stroke: #000000; stroke-width: 0.8"/>
      </g>
     </g>
     <g id="text_32">
      <!-- 0.02 -->
      <g transform="translate(20.878125 575.612946) scale(0.1 -0.1)">
       <use xlink:href="#DejaVuSans-30"/>
       <use xlink:href="#DejaVuSans-2e" x="63.623047"/>
       <use xlink:href="#DejaVuSans-30" x="95.410156"/>
       <use xlink:href="#DejaVuSans-32" x="159.033203"/>
      </g>
     </g>
    </g>
    <g id="ytick_14">
     <g id="line2d_31">
      <g>
       <use xlink:href="#m18b2ed36dc" x="50.14375" y="531.597214" style="stroke: #000000; stroke-width: 0.8"/>
      </g>
     </g>
     <g id="text_33">
      <!-- 0.04 -->
      <g transform="translate(20.878125 535.396432) scale(0.1 -0.1)">
       <use xlink:href="#DejaVuSans-30"/>
       <use xlink:href="#DejaVuSans-2e" x="63.623047"/>
       <use xlink:href="#DejaVuSans-30" x="95.410156"/>
       <use xlink:href="#DejaVuSans-34" x="159.033203"/>
      </g>
     </g>
    </g>
    <g id="ytick_15">
     <g id="line2d_32">
      <g>
       <use xlink:href="#m18b2ed36dc" x="50.14375" y="491.3807" style="stroke: #000000; stroke-width: 0.8"/>
      </g>
     </g>
     <g id="text_34">
      <!-- 0.06 -->
      <g transform="translate(20.878125 495.179918) scale(0.1 -0.1)">
       <use xlink:href="#DejaVuSans-30"/>
       <use xlink:href="#DejaVuSans-2e" x="63.623047"/>
       <use xlink:href="#DejaVuSans-30" x="95.410156"/>
       <use xlink:href="#DejaVuSans-36" x="159.033203"/>
      </g>
     </g>
    </g>
    <g id="ytick_16">
     <g id="line2d_33">
      <g>
       <use xlink:href="#m18b2ed36dc" x="50.14375" y="451.164186" style="stroke: #000000; stroke-width: 0.8"/>
      </g>
     </g>
     <g id="text_35">
      <!-- 0.08 -->
      <g transform="translate(20.878125 454.963404) scale(0.1 -0.1)">
       <use xlink:href="#DejaVuSans-30"/>
       <use xlink:href="#DejaVuSans-2e" x="63.623047"/>
       <use xlink:href="#DejaVuSans-30" x="95.410156"/>
       <use xlink:href="#DejaVuSans-38" x="159.033203"/>
      </g>
     </g>
    </g>
    <g id="ytick_17">
     <g id="line2d_34">
      <g>
       <use xlink:href="#m18b2ed36dc" x="50.14375" y="410.947672" style="stroke: #000000; stroke-width: 0.8"/>
      </g>
     </g>
     <g id="text_36">
      <!-- 0.10 -->
      <g transform="translate(20.878125 414.74689) scale(0.1 -0.1)">
       <use xlink:href="#DejaVuSans-30"/>
       <use xlink:href="#DejaVuSans-2e" x="63.623047"/>
       <use xlink:href="#DejaVuSans-31" x="95.410156"/>
       <use xlink:href="#DejaVuSans-30" x="159.033203"/>
      </g>
     </g>
    </g>
    <g id="ytick_18">
     <g id="line2d_35">
      <g>
       <use xlink:href="#m18b2ed36dc" x="50.14375" y="370.731158" style="stroke: #000000; stroke-width: 0.8"/>
      </g>
     </g>
     <g id="text_37">
      <!-- 0.12 -->
      <g transform="translate(20.878125 374.530376) scale(0.1 -0.1)">
       <use xlink:href="#DejaVuSans-30"/>
       <use xlink:href="#DejaVuSans-2e" x="63.623047"/>
       <use xlink:href="#DejaVuSans-31" x="95.410156"/>
       <use xlink:href="#DejaVuSans-32" x="159.033203"/>
      </g>
     </g>
    </g>
    <g id="text_38">
     <!-- Amino acid frequency -->
     <g transform="translate(14.798438 540.539062) rotate(-90) scale(0.1 -0.1)">
      <use xlink:href="#DejaVuSans-41"/>
      <use xlink:href="#DejaVuSans-6d" x="68.408203"/>
      <use xlink:href="#DejaVuSans-69" x="165.820312"/>
      <use xlink:href="#DejaVuSans-6e" x="193.603516"/>
      <use xlink:href="#DejaVuSans-6f" x="256.982422"/>
      <use xlink:href="#DejaVuSans-20" x="318.164062"/>
      <use xlink:href="#DejaVuSans-61" x="349.951172"/>
      <use xlink:href="#DejaVuSans-63" x="411.230469"/>
      <use xlink:href="#DejaVuSans-69" x="466.210938"/>
      <use xlink:href="#DejaVuSans-64" x="493.994141"/>
      <use xlink:href="#DejaVuSans-20" x="557.470703"/>
      <use xlink:href="#DejaVuSans-66" x="589.257812"/>
      <use xlink:href="#DejaVuSans-72" x="624.462891"/>
      <use xlink:href="#DejaVuSans-65" x="663.326172"/>
      <use xlink:href="#DejaVuSans-71" x="724.849609"/>
      <use xlink:href="#DejaVuSans-75" x="788.326172"/>
      <use xlink:href="#DejaVuSans-65" x="851.705078"/>
      <use xlink:href="#DejaVuSans-6e" x="913.228516"/>
      <use xlink:href="#DejaVuSans-63" x="976.607422"/>
      <use xlink:href="#DejaVuSans-79" x="1031.587891"/>
     </g>
    </g>
   </g>
   <g id="line2d_36">
    <path d="M 68.260633 557.489619 
L 71.92061 556.324416 
L 75.580586 555.159212 
L 79.240562 553.994008 
L 82.900539 552.828804 
L 86.560515 551.6636 
L 90.220491 550.498397 
L 93.880468 549.333193 
L 97.540444 548.167989 
L 101.200421 547.002785 
L 104.860397 545.837581 
L 108.520373 544.672377 
L 112.18035 543.507174 
L 115.840326 542.34197 
L 119.500303 541.176766 
L 123.160279 540.011562 
L 126.820255 538.846358 
L 130.480232 537.681155 
L 134.140208 536.515951 
L 137.800184 535.350747 
L 141.460161 534.185543 
L 145.120137 533.020339 
L 148.780114 531.855135 
L 152.44009 530.689932 
L 156.100066 529.524728 
L 159.760043 528.359524 
L 163.420019 527.19432 
L 167.079996 526.029116 
L 170.739972 524.863913 
L 174.399948 523.698709 
L 178.059925 522.533505 
L 181.719901 521.368301 
L 185.379878 520.203097 
L 189.039854 519.037894 
L 192.69983 517.87269 
L 196.359807 516.707486 
L 200.019783 515.542282 
L 203.679759 514.377078 
L 207.339736 513.211874 
L 210.999712 512.046671 
L 214.659689 510.881467 
L 218.319665 509.716263 
L 221.979641 508.551059 
L 225.639618 507.385855 
L 229.299594 506.220652 
L 232.959571 505.055448 
L 236.619547 503.890244 
L 240.279523 502.72504 
L 243.9395 501.559836 
L 247.599476 500.394632 
L 251.259452 499.229429 
L 254.919429 498.064225 
L 258.579405 496.899021 
L 262.239382 495.733817 
L 265.899358 494.568613 
L 269.559334 493.40341 
L 273.219311 492.238206 
L 276.879287 491.073002 
L 280.539264 489.907798 
L 284.19924 488.742594 
L 287.859216 487.57739 
L 291.519193 486.412187 
L 295.179169 485.246983 
L 298.839146 484.081779 
L 302.499122 482.916575 
L 306.159098 481.751371 
L 309.819075 480.586168 
L 313.479051 479.420964 
L 317.139027 478.25576 
L 320.799004 477.090556 
L 324.45898 475.925352 
L 328.118957 474.760148 
L 331.778933 473.594945 
L 335.438909 472.429741 
L 339.098886 471.264537 
L 342.758862 470.099333 
L 346.418839 468.934129 
L 350.078815 467.768926 
L 353.738791 466.603722 
L 357.398768 465.438518 
L 361.058744 464.273314 
L 364.71872 463.10811 
L 368.378697 461.942906 
L 372.038673 460.777703 
L 375.69865 459.612499 
L 379.358626 458.447295 
L 383.018602 457.282091 
L 386.678579 456.116887 
L 390.338555 454.951684 
L 393.998532 453.78648 
L 397.658508 452.621276 
L 401.318484 451.456072 
L 404.978461 450.290868 
L 408.638437 449.125664 
L 412.298414 447.960461 
L 415.95839 446.795257 
L 419.618366 445.630053 
L 423.278343 444.464849 
L 426.938319 443.299645 
L 430.598295 442.134442 
" clip-path="url(#p526c7e8bc6)" style="fill: none; stroke: #ffa500; stroke-width: 2.25; stroke-linecap: square"/>
   </g>
   <g id="patch_13">
    <path d="M 50.14375 612 
L 50.14375 360 
" style="fill: none; stroke: #000000; stroke-width: 0.8; stroke-linejoin: miter; stroke-linecap: square"/>
   </g>
   <g id="patch_14">
    <path d="M 448.715179 612 
L 448.715179 360 
" style="fill: none; stroke: #000000; stroke-width: 0.8; stroke-linejoin: miter; stroke-linecap: square"/>
   </g>
   <g id="patch_15">
    <path d="M 50.14375 612 
L 448.715179 612 
" style="fill: none; stroke: #000000; stroke-width: 0.8; stroke-linejoin: miter; stroke-linecap: square"/>
   </g>
   <g id="patch_16">
    <path d="M 50.14375 360 
L 448.715179 360 
" style="fill: none; stroke: #000000; stroke-width: 0.8; stroke-linejoin: miter; stroke-linecap: square"/>
   </g>
  </g>
  <g id="axes_4">
   <g id="patch_17">
    <path d="M 488.572321 612 
L 887.14375 612 
L 887.14375 360 
L 488.572321 360 
z
" style="fill: #ffffff"/>
   </g>
   <g id="PathCollection_4">
    <g clip-path="url(#p15b5cc4715)">
     <use xlink:href="#m51b52e7a35" x="506.689205" y="565.749488" style="fill: #1f77b4; fill-opacity: 0.8; stroke: #1f77b4; stroke-opacity: 0.8"/>
     <use xlink:href="#m51b52e7a35" x="566.340704" y="600.545455" style="fill: #1f77b4; fill-opacity: 0.8; stroke: #1f77b4; stroke-opacity: 0.8"/>
     <use xlink:href="#m51b52e7a35" x="566.340704" y="598.51766" style="fill: #1f77b4; fill-opacity: 0.8; stroke: #1f77b4; stroke-opacity: 0.8"/>
     <use xlink:href="#m51b52e7a35" x="566.340704" y="484.555659" style="fill: #1f77b4; fill-opacity: 0.8; stroke: #1f77b4; stroke-opacity: 0.8"/>
     <use xlink:href="#m51b52e7a35" x="566.340704" y="449.052955" style="fill: #1f77b4; fill-opacity: 0.8; stroke: #1f77b4; stroke-opacity: 0.8"/>
     <use xlink:href="#m51b52e7a35" x="581.520811" y="552.427286" style="fill: #1f77b4; fill-opacity: 0.8; stroke: #1f77b4; stroke-opacity: 0.8"/>
     <use xlink:href="#m51b52e7a35" x="566.340704" y="578.890636" style="fill: #1f77b4; fill-opacity: 0.8; stroke: #1f77b4; stroke-opacity: 0.8"/>
     <use xlink:href="#m51b52e7a35" x="641.17231" y="486.599252" style="fill: #1f77b4; fill-opacity: 0.8; stroke: #1f77b4; stroke-opacity: 0.8"/>
     <use xlink:href="#m51b52e7a35" x="581.520811" y="546.374509" style="fill: #1f77b4; fill-opacity: 0.8; stroke: #1f77b4; stroke-opacity: 0.8"/>
     <use xlink:href="#m51b52e7a35" x="566.340704" y="570.905979" style="fill: #1f77b4; fill-opacity: 0.8; stroke: #1f77b4; stroke-opacity: 0.8"/>
     <use xlink:href="#m51b52e7a35" x="656.352418" y="547.756269" style="fill: #1f77b4; fill-opacity: 0.8; stroke: #1f77b4; stroke-opacity: 0.8"/>
     <use xlink:href="#m51b52e7a35" x="656.352418" y="463.670795" style="fill: #1f77b4; fill-opacity: 0.8; stroke: #1f77b4; stroke-opacity: 0.8"/>
     <use xlink:href="#m51b52e7a35" x="703.301447" y="466.384185" style="fill: #1f77b4; fill-opacity: 0.8; stroke: #1f77b4; stroke-opacity: 0.8"/>
     <use xlink:href="#m51b52e7a35" x="703.301447" y="457.789083" style="fill: #1f77b4; fill-opacity: 0.8; stroke: #1f77b4; stroke-opacity: 0.8"/>
     <use xlink:href="#m51b52e7a35" x="703.301447" y="528.800592" style="fill: #1f77b4; fill-opacity: 0.8; stroke: #1f77b4; stroke-opacity: 0.8"/>
     <use xlink:href="#m51b52e7a35" x="687.119924" y="516.675211" style="fill: #1f77b4; fill-opacity: 0.8; stroke: #1f77b4; stroke-opacity: 0.8"/>
     <use xlink:href="#m51b52e7a35" x="687.119924" y="440.051212" style="fill: #1f77b4; fill-opacity: 0.8; stroke: #1f77b4; stroke-opacity: 0.8"/>
     <use xlink:href="#m51b52e7a35" x="823.079253" y="434.841941" style="fill: #1f77b4; fill-opacity: 0.8; stroke: #1f77b4; stroke-opacity: 0.8"/>
     <use xlink:href="#m51b52e7a35" x="703.301447" y="494.434637" style="fill: #1f77b4; fill-opacity: 0.8; stroke: #1f77b4; stroke-opacity: 0.8"/>
     <use xlink:href="#m51b52e7a35" x="869.026867" y="504.01358" style="fill: #1f77b4; fill-opacity: 0.8; stroke: #1f77b4; stroke-opacity: 0.8"/>
    </g>
   </g>
   <g id="PolyCollection_4">
    <path d="M 506.689205 516.341063 
L 506.689205 599.417639 
L 510.349181 597.063009 
L 514.009157 595.131261 
L 517.669134 592.852671 
L 521.32911 590.967102 
L 524.989086 588.935208 
L 528.649063 587.069931 
L 532.309039 584.853418 
L 535.969016 582.669566 
L 539.628992 580.430658 
L 543.288968 578.717315 
L 546.948945 576.615662 
L 550.608921 574.729827 
L 554.268898 572.847083 
L 557.928874 570.784426 
L 561.58885 568.786311 
L 565.248827 566.902416 
L 568.908803 565.054569 
L 572.56878 562.938442 
L 576.228756 560.861251 
L 579.888732 558.81289 
L 583.548709 556.719385 
L 587.208685 554.783331 
L 590.868661 553.404483 
L 594.528638 552.199994 
L 598.188614 550.457267 
L 601.848591 548.451895 
L 605.508567 546.905083 
L 609.168543 545.36971 
L 612.82852 544.179315 
L 616.488496 542.964791 
L 620.148473 541.44563 
L 623.808449 539.799457 
L 627.468425 538.333514 
L 631.128402 537.1131 
L 634.788378 535.919945 
L 638.448354 534.938636 
L 642.108331 533.920314 
L 645.768307 532.517073 
L 649.428284 531.565607 
L 653.08826 530.147887 
L 656.748236 528.634527 
L 660.408213 527.487857 
L 664.068189 526.635742 
L 667.728166 525.787907 
L 671.388142 524.950889 
L 675.048118 523.759528 
L 678.708095 522.841588 
L 682.368071 522.010035 
L 686.028048 521.383494 
L 689.688024 520.632776 
L 693.348 519.512479 
L 697.007977 518.4428 
L 700.667953 517.594353 
L 704.327929 516.571308 
L 707.987906 515.548263 
L 711.647882 514.525217 
L 715.307859 513.727036 
L 718.967835 512.721296 
L 722.627811 511.709939 
L 726.287788 511.005468 
L 729.947764 509.92641 
L 733.607741 509.134887 
L 737.267717 508.383794 
L 740.927693 507.782292 
L 744.58767 507.084295 
L 748.247646 506.396965 
L 751.907622 505.536779 
L 755.567599 504.669154 
L 759.227575 503.804711 
L 762.887552 503.098191 
L 766.547528 502.449607 
L 770.207504 501.780959 
L 773.867481 501.21343 
L 777.527457 500.651806 
L 781.187434 499.672416 
L 784.84741 498.900031 
L 788.507386 498.196119 
L 792.167363 497.492207 
L 795.827339 496.788294 
L 799.487316 496.084382 
L 803.147292 495.319589 
L 806.807268 494.498551 
L 810.467245 493.881683 
L 814.127221 493.27516 
L 817.787197 492.582849 
L 821.447174 491.932741 
L 825.10715 491.194296 
L 828.767127 490.562389 
L 832.427103 489.820041 
L 836.087079 489.34166 
L 839.747056 489.051184 
L 843.407032 488.414035 
L 847.067009 488.021288 
L 850.726985 487.389506 
L 854.386961 486.993178 
L 858.046938 486.699923 
L 861.706914 486.261041 
L 865.36689 485.65821 
L 869.026867 484.955562 
L 869.026867 371.454545 
L 869.026867 371.454545 
L 865.36689 373.363104 
L 861.706914 375.271662 
L 858.046938 377.18022 
L 854.386961 379.341865 
L 850.726985 381.626237 
L 847.067009 383.921559 
L 843.407032 386.21688 
L 839.747056 388.512202 
L 836.087079 390.805879 
L 832.427103 392.943966 
L 828.767127 395.063296 
L 825.10715 397.213275 
L 821.447174 399.663034 
L 817.787197 401.863874 
L 814.127221 403.842186 
L 810.467245 405.751069 
L 806.807268 407.878776 
L 803.147292 410.28884 
L 799.487316 412.629272 
L 795.827339 414.785913 
L 792.167363 416.924357 
L 788.507386 419.098903 
L 784.84741 421.278637 
L 781.187434 423.596924 
L 777.527457 425.915212 
L 773.867481 427.919018 
L 770.207504 429.865355 
L 766.547528 432.022305 
L 762.887552 434.307339 
L 759.227575 436.662831 
L 755.567599 439.020005 
L 751.907622 441.377179 
L 748.247646 443.443544 
L 744.58767 445.422883 
L 740.927693 447.315549 
L 737.267717 449.251767 
L 733.607741 451.398682 
L 729.947764 453.54855 
L 726.287788 455.360244 
L 722.627811 457.219408 
L 718.967835 459.063806 
L 715.307859 461.413999 
L 711.647882 463.419537 
L 707.987906 465.45966 
L 704.327929 467.471902 
L 700.667953 469.438249 
L 697.007977 471.605294 
L 693.348 473.160009 
L 689.688024 475.150043 
L 686.028048 476.169176 
L 682.368071 477.890067 
L 678.708095 479.384832 
L 675.048118 481.0283 
L 671.388142 482.357659 
L 667.728166 483.673493 
L 664.068189 484.942881 
L 660.408213 485.977918 
L 656.748236 487.200067 
L 653.08826 488.221808 
L 649.428284 489.377782 
L 645.768307 491.027106 
L 642.108331 491.819005 
L 638.448354 493.177456 
L 634.788378 494.225937 
L 631.128402 495.412597 
L 627.468425 496.382612 
L 623.808449 497.2851 
L 620.148473 497.9084 
L 616.488496 498.573367 
L 612.82852 499.739805 
L 609.168543 500.660438 
L 605.508567 500.837323 
L 601.848591 501.478667 
L 598.188614 501.829744 
L 594.528638 502.13034 
L 590.868661 502.430936 
L 587.208685 502.744483 
L 583.548709 503.304536 
L 579.888732 504.132574 
L 576.228756 504.966478 
L 572.56878 505.377937 
L 568.908803 505.756793 
L 565.248827 506.459626 
L 561.58885 507.279309 
L 557.928874 508.104019 
L 554.268898 508.935534 
L 550.608921 509.767049 
L 546.948945 510.598564 
L 543.288968 511.430078 
L 539.628992 511.948928 
L 535.969016 512.418025 
L 532.309039 512.945056 
L 528.649063 513.623346 
L 524.989086 514.137461 
L 521.32911 514.937597 
L 517.669134 515.305818 
L 514.009157 515.650106 
L 510.349181 515.994889 
L 506.689205 516.341063 
z
" clip-path="url(#p15b5cc4715)" style="fill: #ffa500; fill-opacity: 0.15"/>
   </g>
   <g id="matplotlib.axis_7">
    <g id="xtick_16">
     <g id="line2d_37">
      <g>
       <use xlink:href="#m35846ac293" x="525.360969" y="612" style="stroke: #000000; stroke-width: 0.8"/>
      </g>
     </g>
     <g id="text_39">
      <!-- 0.02 -->
      <g transform="translate(514.228156 626.598437) scale(0.1 -0.1)">
       <use xlink:href="#DejaVuSans-30"/>
       <use xlink:href="#DejaVuSans-2e" x="63.623047"/>
       <use xlink:href="#DejaVuSans-30" x="95.410156"/>
       <use xlink:href="#DejaVuSans-32" x="159.033203"/>
      </g>
     </g>
    </g>
    <g id="xtick_17">
     <g id="line2d_38">
      <g>
       <use xlink:href="#m35846ac293" x="605.160455" y="612" style="stroke: #000000; stroke-width: 0.8"/>
      </g>
     </g>
     <g id="text_40">
      <!-- 0.04 -->
      <g transform="translate(594.027642 626.598437) scale(0.1 -0.1)">
       <use xlink:href="#DejaVuSans-30"/>
       <use xlink:href="#DejaVuSans-2e" x="63.623047"/>
       <use xlink:href="#DejaVuSans-30" x="95.410156"/>
       <use xlink:href="#DejaVuSans-34" x="159.033203"/>
      </g>
     </g>
    </g>
    <g id="xtick_18">
     <g id="line2d_39">
      <g>
       <use xlink:href="#m35846ac293" x="684.95994" y="612" style="stroke: #000000; stroke-width: 0.8"/>
      </g>
     </g>
     <g id="text_41">
      <!-- 0.06 -->
      <g transform="translate(673.827128 626.598437) scale(0.1 -0.1)">
       <use xlink:href="#DejaVuSans-30"/>
       <use xlink:href="#DejaVuSans-2e" x="63.623047"/>
       <use xlink:href="#DejaVuSans-30" x="95.410156"/>
       <use xlink:href="#DejaVuSans-36" x="159.033203"/>
      </g>
     </g>
    </g>
    <g id="xtick_19">
     <g id="line2d_40">
      <g>
       <use xlink:href="#m35846ac293" x="764.759426" y="612" style="stroke: #000000; stroke-width: 0.8"/>
      </g>
     </g>
     <g id="text_42">
      <!-- 0.08 -->
      <g transform="translate(753.626614 626.598437) scale(0.1 -0.1)">
       <use xlink:href="#DejaVuSans-30"/>
       <use xlink:href="#DejaVuSans-2e" x="63.623047"/>
       <use xlink:href="#DejaVuSans-30" x="95.410156"/>
       <use xlink:href="#DejaVuSans-38" x="159.033203"/>
      </g>
     </g>
    </g>
    <g id="xtick_20">
     <g id="line2d_41">
      <g>
       <use xlink:href="#m35846ac293" x="844.558912" y="612" style="stroke: #000000; stroke-width: 0.8"/>
      </g>
     </g>
     <g id="text_43">
      <!-- 0.10 -->
      <g transform="translate(833.4261 626.598437) scale(0.1 -0.1)">
       <use xlink:href="#DejaVuSans-30"/>
       <use xlink:href="#DejaVuSans-2e" x="63.623047"/>
       <use xlink:href="#DejaVuSans-31" x="95.410156"/>
       <use xlink:href="#DejaVuSans-30" x="159.033203"/>
      </g>
     </g>
    </g>
    <g id="text_44">
     <!-- Codon+GC+Cost -->
     <g transform="translate(645.043973 640.276562) scale(0.1 -0.1)">
      <use xlink:href="#DejaVuSans-43"/>
      <use xlink:href="#DejaVuSans-6f" x="69.824219"/>
      <use xlink:href="#DejaVuSans-64" x="131.005859"/>
      <use xlink:href="#DejaVuSans-6f" x="194.482422"/>
      <use xlink:href="#DejaVuSans-6e" x="255.664062"/>
      <use xlink:href="#DejaVuSans-2b" x="319.042969"/>
      <use xlink:href="#DejaVuSans-47" x="402.832031"/>
      <use xlink:href="#DejaVuSans-43" x="480.322266"/>
      <use xlink:href="#DejaVuSans-2b" x="550.146484"/>
      <use xlink:href="#DejaVuSans-43" x="633.935547"/>
      <use xlink:href="#DejaVuSans-6f" x="703.759766"/>
      <use xlink:href="#DejaVuSans-73" x="764.941406"/>
      <use xlink:href="#DejaVuSans-74" x="817.041016"/>
     </g>
    </g>
   </g>
   <g id="matplotlib.axis_8">
    <g id="ytick_19">
     <g id="line2d_42">
      <g>
       <use xlink:href="#m18b2ed36dc" x="488.572321" y="573.810184" style="stroke: #000000; stroke-width: 0.8"/>
      </g>
     </g>
     <g id="text_45">
      <!-- 0.02 -->
      <g transform="translate(459.306696 577.609403) scale(0.1 -0.1)">
       <use xlink:href="#DejaVuSans-30"/>
       <use xlink:href="#DejaVuSans-2e" x="63.623047"/>
       <use xlink:href="#DejaVuSans-30" x="95.410156"/>
       <use xlink:href="#DejaVuSans-32" x="159.033203"/>
      </g>
     </g>
    </g>
    <g id="ytick_20">
     <g id="line2d_43">
      <g>
       <use xlink:href="#m18b2ed36dc" x="488.572321" y="532.891661" style="stroke: #000000; stroke-width: 0.8"/>
      </g>
     </g>
     <g id="text_46">
      <!-- 0.04 -->
      <g transform="translate(459.306696 536.69088) scale(0.1 -0.1)">
       <use xlink:href="#DejaVuSans-30"/>
       <use xlink:href="#DejaVuSans-2e" x="63.623047"/>
       <use xlink:href="#DejaVuSans-30" x="95.410156"/>
       <use xlink:href="#DejaVuSans-34" x="159.033203"/>
      </g>
     </g>
    </g>
    <g id="ytick_21">
     <g id="line2d_44">
      <g>
       <use xlink:href="#m18b2ed36dc" x="488.572321" y="491.973137" style="stroke: #000000; stroke-width: 0.8"/>
      </g>
     </g>
     <g id="text_47">
      <!-- 0.06 -->
      <g transform="translate(459.306696 495.772356) scale(0.1 -0.1)">
       <use xlink:href="#DejaVuSans-30"/>
       <use xlink:href="#DejaVuSans-2e" x="63.623047"/>
       <use xlink:href="#DejaVuSans-30" x="95.410156"/>
       <use xlink:href="#DejaVuSans-36" x="159.033203"/>
      </g>
     </g>
    </g>
    <g id="ytick_22">
     <g id="line2d_45">
      <g>
       <use xlink:href="#m18b2ed36dc" x="488.572321" y="451.054614" style="stroke: #000000; stroke-width: 0.8"/>
      </g>
     </g>
     <g id="text_48">
      <!-- 0.08 -->
      <g transform="translate(459.306696 454.853833) scale(0.1 -0.1)">
       <use xlink:href="#DejaVuSans-30"/>
       <use xlink:href="#DejaVuSans-2e" x="63.623047"/>
       <use xlink:href="#DejaVuSans-30" x="95.410156"/>
       <use xlink:href="#DejaVuSans-38" x="159.033203"/>
      </g>
     </g>
    </g>
    <g id="ytick_23">
     <g id="line2d_46">
      <g>
       <use xlink:href="#m18b2ed36dc" x="488.572321" y="410.136091" style="stroke: #000000; stroke-width: 0.8"/>
      </g>
     </g>
     <g id="text_49">
      <!-- 0.10 -->
      <g transform="translate(459.306696 413.935309) scale(0.1 -0.1)">
       <use xlink:href="#DejaVuSans-30"/>
       <use xlink:href="#DejaVuSans-2e" x="63.623047"/>
       <use xlink:href="#DejaVuSans-31" x="95.410156"/>
       <use xlink:href="#DejaVuSans-30" x="159.033203"/>
      </g>
     </g>
    </g>
    <g id="ytick_24">
     <g id="line2d_47">
      <g>
       <use xlink:href="#m18b2ed36dc" x="488.572321" y="369.217567" style="stroke: #000000; stroke-width: 0.8"/>
      </g>
     </g>
     <g id="text_50">
      <!-- 0.12 -->
      <g transform="translate(459.306696 373.016786) scale(0.1 -0.1)">
       <use xlink:href="#DejaVuSans-30"/>
       <use xlink:href="#DejaVuSans-2e" x="63.623047"/>
       <use xlink:href="#DejaVuSans-31" x="95.410156"/>
       <use xlink:href="#DejaVuSans-32" x="159.033203"/>
      </g>
     </g>
    </g>
   </g>
   <g id="line2d_48">
    <path d="M 506.689205 559.232107 
L 510.349181 558.046325 
L 514.009157 556.860543 
L 517.669134 555.674762 
L 521.32911 554.48898 
L 524.989086 553.303198 
L 528.649063 552.117417 
L 532.309039 550.931635 
L 535.969016 549.745853 
L 539.628992 548.560071 
L 543.288968 547.37429 
L 546.948945 546.188508 
L 550.608921 545.002726 
L 554.268898 543.816944 
L 557.928874 542.631163 
L 561.58885 541.445381 
L 565.248827 540.259599 
L 568.908803 539.073818 
L 572.56878 537.888036 
L 576.228756 536.702254 
L 579.888732 535.516472 
L 583.548709 534.330691 
L 587.208685 533.144909 
L 590.868661 531.959127 
L 594.528638 530.773346 
L 598.188614 529.587564 
L 601.848591 528.401782 
L 605.508567 527.216 
L 609.168543 526.030219 
L 612.82852 524.844437 
L 616.488496 523.658655 
L 620.148473 522.472873 
L 623.808449 521.287092 
L 627.468425 520.10131 
L 631.128402 518.915528 
L 634.788378 517.729747 
L 638.448354 516.543965 
L 642.108331 515.358183 
L 645.768307 514.172401 
L 649.428284 512.98662 
L 653.08826 511.800838 
L 656.748236 510.615056 
L 660.408213 509.429274 
L 664.068189 508.243493 
L 667.728166 507.057711 
L 671.388142 505.871929 
L 675.048118 504.686148 
L 678.708095 503.500366 
L 682.368071 502.314584 
L 686.028048 501.128802 
L 689.688024 499.943021 
L 693.348 498.757239 
L 697.007977 497.571457 
L 700.667953 496.385675 
L 704.327929 495.199894 
L 707.987906 494.014112 
L 711.647882 492.82833 
L 715.307859 491.642549 
L 718.967835 490.456767 
L 722.627811 489.270985 
L 726.287788 488.085203 
L 729.947764 486.899422 
L 733.607741 485.71364 
L 737.267717 484.527858 
L 740.927693 483.342076 
L 744.58767 482.156295 
L 748.247646 480.970513 
L 751.907622 479.784731 
L 755.567599 478.59895 
L 759.227575 477.413168 
L 762.887552 476.227386 
L 766.547528 475.041604 
L 770.207504 473.855823 
L 773.867481 472.670041 
L 777.527457 471.484259 
L 781.187434 470.298477 
L 784.84741 469.112696 
L 788.507386 467.926914 
L 792.167363 466.741132 
L 795.827339 465.555351 
L 799.487316 464.369569 
L 803.147292 463.183787 
L 806.807268 461.998005 
L 810.467245 460.812224 
L 814.127221 459.626442 
L 817.787197 458.44066 
L 821.447174 457.254879 
L 825.10715 456.069097 
L 828.767127 454.883315 
L 832.427103 453.697533 
L 836.087079 452.511752 
L 839.747056 451.32597 
L 843.407032 450.140188 
L 847.067009 448.954406 
L 850.726985 447.768625 
L 854.386961 446.582843 
L 858.046938 445.397061 
L 861.706914 444.21128 
L 865.36689 443.025498 
L 869.026867 441.839716 
" clip-path="url(#p15b5cc4715)" style="fill: none; stroke: #ffa500; stroke-width: 2.25; stroke-linecap: square"/>
   </g>
   <g id="patch_18">
    <path d="M 488.572321 612 
L 488.572321 360 
" style="fill: none; stroke: #000000; stroke-width: 0.8; stroke-linejoin: miter; stroke-linecap: square"/>
   </g>
   <g id="patch_19">
    <path d="M 887.14375 612 
L 887.14375 360 
" style="fill: none; stroke: #000000; stroke-width: 0.8; stroke-linejoin: miter; stroke-linecap: square"/>
   </g>
   <g id="patch_20">
    <path d="M 488.572321 612 
L 887.14375 612 
" style="fill: none; stroke: #000000; stroke-width: 0.8; stroke-linejoin: miter; stroke-linecap: square"/>
   </g>
   <g id="patch_21">
    <path d="M 488.572321 360 
L 887.14375 360 
" style="fill: none; stroke: #000000; stroke-width: 0.8; stroke-linejoin: miter; stroke-linecap: square"/>
   </g>
  </g>
  <g id="text_51">
   <!-- Archaea - Comparison between amino acid and factor frequencies for genetic code: Cephalodiscidae -->
   <g transform="translate(76.624609 18.597656) scale(0.15 -0.15)">
    <defs>
     <path id="DejaVuSans-68" d="M 3513 2113 
L 3513 0 
L 2938 0 
L 2938 2094 
Q 2938 2591 2744 2837 
Q 2550 3084 2163 3084 
Q 1697 3084 1428 2787 
Q 1159 2491 1159 1978 
L 1159 0 
L 581 0 
L 581 4863 
L 1159 4863 
L 1159 2956 
Q 1366 3272 1645 3428 
Q 1925 3584 2291 3584 
Q 2894 3584 3203 3211 
Q 3513 2838 3513 2113 
z
" transform="scale(0.015625)"/>
     <path id="DejaVuSans-2d" d="M 313 2009 
L 1997 2009 
L 1997 1497 
L 313 1497 
L 313 2009 
z
" transform="scale(0.015625)"/>
     <path id="DejaVuSans-70" d="M 1159 525 
L 1159 -1331 
L 581 -1331 
L 581 3500 
L 1159 3500 
L 1159 2969 
Q 1341 3281 1617 3432 
Q 1894 3584 2278 3584 
Q 2916 3584 3314 3078 
Q 3713 2572 3713 1747 
Q 3713 922 3314 415 
Q 2916 -91 2278 -91 
Q 1894 -91 1617 61 
Q 1341 213 1159 525 
z
M 3116 1747 
Q 3116 2381 2855 2742 
Q 2594 3103 2138 3103 
Q 1681 3103 1420 2742 
Q 1159 2381 1159 1747 
Q 1159 1113 1420 752 
Q 1681 391 2138 391 
Q 2594 391 2855 752 
Q 3116 1113 3116 1747 
z
" transform="scale(0.015625)"/>
     <path id="DejaVuSans-62" d="M 3116 1747 
Q 3116 2381 2855 2742 
Q 2594 3103 2138 3103 
Q 1681 3103 1420 2742 
Q 1159 2381 1159 1747 
Q 1159 1113 1420 752 
Q 1681 391 2138 391 
Q 2594 391 2855 752 
Q 3116 1113 3116 1747 
z
M 1159 2969 
Q 1341 3281 1617 3432 
Q 1894 3584 2278 3584 
Q 2916 3584 3314 3078 
Q 3713 2572 3713 1747 
Q 3713 922 3314 415 
Q 2916 -91 2278 -91 
Q 1894 -91 1617 61 
Q 1341 213 1159 525 
L 1159 0 
L 581 0 
L 581 4863 
L 1159 4863 
L 1159 2969 
z
" transform="scale(0.015625)"/>
     <path id="DejaVuSans-77" d="M 269 3500 
L 844 3500 
L 1563 769 
L 2278 3500 
L 2956 3500 
L 3675 769 
L 4391 3500 
L 4966 3500 
L 4050 0 
L 3372 0 
L 2619 2869 
L 1863 0 
L 1184 0 
L 269 3500 
z
" transform="scale(0.015625)"/>
     <path id="DejaVuSans-67" d="M 2906 1791 
Q 2906 2416 2648 2759 
Q 2391 3103 1925 3103 
Q 1463 3103 1205 2759 
Q 947 2416 947 1791 
Q 947 1169 1205 825 
Q 1463 481 1925 481 
Q 2391 481 2648 825 
Q 2906 1169 2906 1791 
z
M 3481 434 
Q 3481 -459 3084 -895 
Q 2688 -1331 1869 -1331 
Q 1566 -1331 1297 -1286 
Q 1028 -1241 775 -1147 
L 775 -588 
Q 1028 -725 1275 -790 
Q 1522 -856 1778 -856 
Q 2344 -856 2625 -561 
Q 2906 -266 2906 331 
L 2906 616 
Q 2728 306 2450 153 
Q 2172 0 1784 0 
Q 1141 0 747 490 
Q 353 981 353 1791 
Q 353 2603 747 3093 
Q 1141 3584 1784 3584 
Q 2172 3584 2450 3431 
Q 2728 3278 2906 2969 
L 2906 3500 
L 3481 3500 
L 3481 434 
z
" transform="scale(0.015625)"/>
     <path id="DejaVuSans-3a" d="M 750 794 
L 1409 794 
L 1409 0 
L 750 0 
L 750 794 
z
M 750 3309 
L 1409 3309 
L 1409 2516 
L 750 2516 
L 750 3309 
z
" transform="scale(0.015625)"/>
     <path id="DejaVuSans-6c" d="M 603 4863 
L 1178 4863 
L 1178 0 
L 603 0 
L 603 4863 
z
" transform="scale(0.015625)"/>
    </defs>
    <use xlink:href="#DejaVuSans-41"/>
    <use xlink:href="#DejaVuSans-72" x="68.408203"/>
    <use xlink:href="#DejaVuSans-63" x="107.271484"/>
    <use xlink:href="#DejaVuSans-68" x="162.251953"/>
    <use xlink:href="#DejaVuSans-61" x="225.630859"/>
    <use xlink:href="#DejaVuSans-65" x="286.910156"/>
    <use xlink:href="#DejaVuSans-61" x="348.433594"/>
    <use xlink:href="#DejaVuSans-20" x="409.712891"/>
    <use xlink:href="#DejaVuSans-2d" x="441.5"/>
    <use xlink:href="#DejaVuSans-20" x="477.583984"/>
    <use xlink:href="#DejaVuSans-43" x="509.371094"/>
    <use xlink:href="#DejaVuSans-6f" x="579.195312"/>
    <use xlink:href="#DejaVuSans-6d" x="640.376953"/>
    <use xlink:href="#DejaVuSans-70" x="737.789062"/>
    <use xlink:href="#DejaVuSans-61" x="801.265625"/>
    <use xlink:href="#DejaVuSans-72" x="862.544922"/>
    <use xlink:href="#DejaVuSans-69" x="903.658203"/>
    <use xlink:href="#DejaVuSans-73" x="931.441406"/>
    <use xlink:href="#DejaVuSans-6f" x="983.541016"/>
    <use xlink:href="#DejaVuSans-6e" x="1044.722656"/>
    <use xlink:href="#DejaVuSans-20" x="1108.101562"/>
    <use xlink:href="#DejaVuSans-62" x="1139.888672"/>
    <use xlink:href="#DejaVuSans-65" x="1203.365234"/>
    <use xlink:href="#DejaVuSans-74" x="1264.888672"/>
    <use xlink:href="#DejaVuSans-77" x="1304.097656"/>
    <use xlink:href="#DejaVuSans-65" x="1385.884766"/>
    <use xlink:href="#DejaVuSans-65" x="1447.408203"/>
    <use xlink:href="#DejaVuSans-6e" x="1508.931641"/>
    <use xlink:href="#DejaVuSans-20" x="1572.310547"/>
    <use xlink:href="#DejaVuSans-61" x="1604.097656"/>
    <use xlink:href="#DejaVuSans-6d" x="1665.376953"/>
    <use xlink:href="#DejaVuSans-69" x="1762.789062"/>
    <use xlink:href="#DejaVuSans-6e" x="1790.572266"/>
    <use xlink:href="#DejaVuSans-6f" x="1853.951172"/>
    <use xlink:href="#DejaVuSans-20" x="1915.132812"/>
    <use xlink:href="#DejaVuSans-61" x="1946.919922"/>
    <use xlink:href="#DejaVuSans-63" x="2008.199219"/>
    <use xlink:href="#DejaVuSans-69" x="2063.179688"/>
    <use xlink:href="#DejaVuSans-64" x="2090.962891"/>
    <use xlink:href="#DejaVuSans-20" x="2154.439453"/>
    <use xlink:href="#DejaVuSans-61" x="2186.226562"/>
    <use xlink:href="#DejaVuSans-6e" x="2247.505859"/>
    <use xlink:href="#DejaVuSans-64" x="2310.884766"/>
    <use xlink:href="#DejaVuSans-20" x="2374.361328"/>
    <use xlink:href="#DejaVuSans-66" x="2406.148438"/>
    <use xlink:href="#DejaVuSans-61" x="2441.353516"/>
    <use xlink:href="#DejaVuSans-63" x="2502.632812"/>
    <use xlink:href="#DejaVuSans-74" x="2557.613281"/>
    <use xlink:href="#DejaVuSans-6f" x="2596.822266"/>
    <use xlink:href="#DejaVuSans-72" x="2658.003906"/>
    <use xlink:href="#DejaVuSans-20" x="2699.117188"/>
    <use xlink:href="#DejaVuSans-66" x="2730.904297"/>
    <use xlink:href="#DejaVuSans-72" x="2766.109375"/>
    <use xlink:href="#DejaVuSans-65" x="2804.972656"/>
    <use xlink:href="#DejaVuSans-71" x="2866.496094"/>
    <use xlink:href="#DejaVuSans-75" x="2929.972656"/>
    <use xlink:href="#DejaVuSans-65" x="2993.351562"/>
    <use xlink:href="#DejaVuSans-6e" x="3054.875"/>
    <use xlink:href="#DejaVuSans-63" x="3118.253906"/>
    <use xlink:href="#DejaVuSans-69" x="3173.234375"/>
    <use xlink:href="#DejaVuSans-65" x="3201.017578"/>
    <use xlink:href="#DejaVuSans-73" x="3262.541016"/>
    <use xlink:href="#DejaVuSans-20" x="3314.640625"/>
    <use xlink:href="#DejaVuSans-66" x="3346.427734"/>
    <use xlink:href="#DejaVuSans-6f" x="3381.632812"/>
    <use xlink:href="#DejaVuSans-72" x="3442.814453"/>
    <use xlink:href="#DejaVuSans-20" x="3483.927734"/>
    <use xlink:href="#DejaVuSans-67" x="3515.714844"/>
    <use xlink:href="#DejaVuSans-65" x="3579.191406"/>
    <use xlink:href="#DejaVuSans-6e" x="3640.714844"/>
    <use xlink:href="#DejaVuSans-65" x="3704.09375"/>
    <use xlink:href="#DejaVuSans-74" x="3765.617188"/>
    <use xlink:href="#DejaVuSans-69" x="3804.826172"/>
    <use xlink:href="#DejaVuSans-63" x="3832.609375"/>
    <use xlink:href="#DejaVuSans-20" x="3887.589844"/>
    <use xlink:href="#DejaVuSans-63" x="3919.376953"/>
    <use xlink:href="#DejaVuSans-6f" x="3974.357422"/>
    <use xlink:href="#DejaVuSans-64" x="4035.539062"/>
    <use xlink:href="#DejaVuSans-65" x="4099.015625"/>
    <use xlink:href="#DejaVuSans-3a" x="4160.539062"/>
    <use xlink:href="#DejaVuSans-20" x="4194.230469"/>
    <use xlink:href="#DejaVuSans-43" x="4226.017578"/>
    <use xlink:href="#DejaVuSans-65" x="4295.841797"/>
    <use xlink:href="#DejaVuSans-70" x="4357.365234"/>
    <use xlink:href="#DejaVuSans-68" x="4420.841797"/>
    <use xlink:href="#DejaVuSans-61" x="4484.220703"/>
    <use xlink:href="#DejaVuSans-6c" x="4545.5"/>
    <use xlink:href="#DejaVuSans-6f" x="4573.283203"/>
    <use xlink:href="#DejaVuSans-64" x="4634.464844"/>
    <use xlink:href="#DejaVuSans-69" x="4697.941406"/>
    <use xlink:href="#DejaVuSans-73" x="4725.724609"/>
    <use xlink:href="#DejaVuSans-63" x="4777.824219"/>
    <use xlink:href="#DejaVuSans-69" x="4832.804688"/>
    <use xlink:href="#DejaVuSans-64" x="4860.587891"/>
    <use xlink:href="#DejaVuSans-61" x="4924.064453"/>
    <use xlink:href="#DejaVuSans-65" x="4985.34375"/>
   </g>
   <!-- mitochondrial uaa-tyr -->
   <g transform="translate(373.901172 35.394375) scale(0.15 -0.15)">
    <use xlink:href="#DejaVuSans-6d"/>
    <use xlink:href="#DejaVuSans-69" x="97.412109"/>
    <use xlink:href="#DejaVuSans-74" x="125.195312"/>
    <use xlink:href="#DejaVuSans-6f" x="164.404297"/>
    <use xlink:href="#DejaVuSans-63" x="225.585938"/>
    <use xlink:href="#DejaVuSans-68" x="280.566406"/>
    <use xlink:href="#DejaVuSans-6f" x="343.945312"/>
    <use xlink:href="#DejaVuSans-6e" x="405.126953"/>
    <use xlink:href="#DejaVuSans-64" x="468.505859"/>
    <use xlink:href="#DejaVuSans-72" x="531.982422"/>
    <use xlink:href="#DejaVuSans-69" x="573.095703"/>
    <use xlink:href="#DejaVuSans-61" x="600.878906"/>
    <use xlink:href="#DejaVuSans-6c" x="662.158203"/>
    <use xlink:href="#DejaVuSans-20" x="689.941406"/>
    <use xlink:href="#DejaVuSans-75" x="721.728516"/>
    <use xlink:href="#DejaVuSans-61" x="785.107422"/>
    <use xlink:href="#DejaVuSans-61" x="846.386719"/>
    <use xlink:href="#DejaVuSans-2d" x="907.666016"/>
    <use xlink:href="#DejaVuSans-74" x="943.75"/>
    <use xlink:href="#DejaVuSans-79" x="982.958984"/>
    <use xlink:href="#DejaVuSans-72" x="1042.138672"/>
   </g>
  </g>
 </g>
 <defs>
  <clipPath id="p3b522a3e81">
   <rect x="50.14375" y="57.6" width="398.571429" height="252"/>
  </clipPath>
  <clipPath id="pbc48df2330">
   <rect x="488.572321" y="57.6" width="398.571429" height="252"/>
  </clipPath>
  <clipPath id="p526c7e8bc6">
   <rect x="50.14375" y="360" width="398.571429" height="252"/>
  </clipPath>
  <clipPath id="p15b5cc4715">
   <rect x="488.572321" y="360" width="398.571429" height="252"/>
  </clipPath>
 </defs>
</svg>
