<?xml version="1.0" encoding="utf-8" standalone="no"?>
<!DOCTYPE svg PUBLIC "-//W3C//DTD SVG 1.1//EN"
  "http://www.w3.org/Graphics/SVG/1.1/DTD/svg11.dtd">
<svg xmlns:xlink="http://www.w3.org/1999/xlink" width="894.34375pt" height="649.55625pt" viewBox="0 0 894.34375 649.55625" xmlns="http://www.w3.org/2000/svg" version="1.1">
 <metadata>
  <rdf:RDF xmlns:dc="http://purl.org/dc/elements/1.1/" xmlns:cc="http://creativecommons.org/ns#" xmlns:rdf="http://www.w3.org/1999/02/22-rdf-syntax-ns#">
   <cc:Work>
    <dc:type rdf:resource="http://purl.org/dc/dcmitype/StillImage"/>
    <dc:date>2024-09-25T14:40:11.072337</dc:date>
    <dc:format>image/svg+xml</dc:format>
    <dc:creator>
     <cc:Agent>
      <dc:title>Matplotlib v3.8.3, https://matplotlib.org/</dc:title>
     </cc:Agent>
    </dc:creator>
   </cc:Work>
  </rdf:RDF>
 </metadata>
 <defs>
  <style type="text/css">*{stroke-linejoin: round; stroke-linecap: butt}</style>
 </defs>
 <g id="figure_1">
  <g id="patch_1">
   <path d="M 0 649.55625 
L 894.34375 649.55625 
L 894.34375 0 
L 0 0 
z
" style="fill: #ffffff"/>
  </g>
  <g id="axes_1">
   <g id="patch_2">
    <path d="M 50.14375 309.6 
L 448.715179 309.6 
L 448.715179 57.6 
L 50.14375 57.6 
z
" style="fill: #ffffff"/>
   </g>
   <g id="PathCollection_1">
    <defs>
     <path id="mad7b4d125a" d="M 0 3.535534 
C 0.937635 3.535534 1.836992 3.163008 2.5 2.5 
C 3.163008 1.836992 3.535534 0.937635 3.535534 0 
C 3.535534 -0.937635 3.163008 -1.836992 2.5 -2.5 
C 1.836992 -3.163008 0.937635 -3.535534 0 -3.535534 
C -0.937635 -3.535534 -1.836992 -3.163008 -2.5 -2.5 
C -3.163008 -1.836992 -3.535534 -0.937635 -3.535534 0 
C -3.535534 0.937635 -3.163008 1.836992 -2.5 2.5 
C -1.836992 3.163008 -0.937635 3.535534 0 3.535534 
z
" style="stroke: #1f77b4; stroke-opacity: 0.8"/>
    </defs>
    <g clip-path="url(#paf43582cf3)">
     <use xlink:href="#mad7b4d125a" x="68.260633" y="265.086406" style="fill: #1f77b4; fill-opacity: 0.8; stroke: #1f77b4; stroke-opacity: 0.8"/>
     <use xlink:href="#mad7b4d125a" x="128.650244" y="298.145455" style="fill: #1f77b4; fill-opacity: 0.8; stroke: #1f77b4; stroke-opacity: 0.8"/>
     <use xlink:href="#mad7b4d125a" x="128.650244" y="294.073106" style="fill: #1f77b4; fill-opacity: 0.8; stroke: #1f77b4; stroke-opacity: 0.8"/>
     <use xlink:href="#mad7b4d125a" x="128.650244" y="192.48355" style="fill: #1f77b4; fill-opacity: 0.8; stroke: #1f77b4; stroke-opacity: 0.8"/>
     <use xlink:href="#mad7b4d125a" x="128.650244" y="156.216742" style="fill: #1f77b4; fill-opacity: 0.8; stroke: #1f77b4; stroke-opacity: 0.8"/>
     <use xlink:href="#mad7b4d125a" x="128.650244" y="253.740825" style="fill: #1f77b4; fill-opacity: 0.8; stroke: #1f77b4; stroke-opacity: 0.8"/>
     <use xlink:href="#mad7b4d125a" x="128.650244" y="277.914881" style="fill: #1f77b4; fill-opacity: 0.8; stroke: #1f77b4; stroke-opacity: 0.8"/>
     <use xlink:href="#mad7b4d125a" x="189.039854" y="187.374152" style="fill: #1f77b4; fill-opacity: 0.8; stroke: #1f77b4; stroke-opacity: 0.8"/>
     <use xlink:href="#mad7b4d125a" x="128.650244" y="247.994125" style="fill: #1f77b4; fill-opacity: 0.8; stroke: #1f77b4; stroke-opacity: 0.8"/>
     <use xlink:href="#mad7b4d125a" x="128.650244" y="270.274513" style="fill: #1f77b4; fill-opacity: 0.8; stroke: #1f77b4; stroke-opacity: 0.8"/>
     <use xlink:href="#mad7b4d125a" x="189.039854" y="249.33823" style="fill: #1f77b4; fill-opacity: 0.8; stroke: #1f77b4; stroke-opacity: 0.8"/>
     <use xlink:href="#mad7b4d125a" x="189.039854" y="168.450837" style="fill: #1f77b4; fill-opacity: 0.8; stroke: #1f77b4; stroke-opacity: 0.8"/>
     <use xlink:href="#mad7b4d125a" x="249.429464" y="170.273804" style="fill: #1f77b4; fill-opacity: 0.8; stroke: #1f77b4; stroke-opacity: 0.8"/>
     <use xlink:href="#mad7b4d125a" x="249.429464" y="164.808646" style="fill: #1f77b4; fill-opacity: 0.8; stroke: #1f77b4; stroke-opacity: 0.8"/>
     <use xlink:href="#mad7b4d125a" x="249.429464" y="231.564888" style="fill: #1f77b4; fill-opacity: 0.8; stroke: #1f77b4; stroke-opacity: 0.8"/>
     <use xlink:href="#mad7b4d125a" x="249.429464" y="220.172107" style="fill: #1f77b4; fill-opacity: 0.8; stroke: #1f77b4; stroke-opacity: 0.8"/>
     <use xlink:href="#mad7b4d125a" x="249.429464" y="147.229468" style="fill: #1f77b4; fill-opacity: 0.8; stroke: #1f77b4; stroke-opacity: 0.8"/>
     <use xlink:href="#mad7b4d125a" x="370.208685" y="143.381969" style="fill: #1f77b4; fill-opacity: 0.8; stroke: #1f77b4; stroke-opacity: 0.8"/>
     <use xlink:href="#mad7b4d125a" x="249.429464" y="195.682938" style="fill: #1f77b4; fill-opacity: 0.8; stroke: #1f77b4; stroke-opacity: 0.8"/>
     <use xlink:href="#mad7b4d125a" x="430.598295" y="207.521797" style="fill: #1f77b4; fill-opacity: 0.8; stroke: #1f77b4; stroke-opacity: 0.8"/>
    </g>
   </g>
   <g id="PolyCollection_1">
    <path d="M 68.260633 220.122217 
L 68.260633 297.005224 
L 71.92061 294.754166 
L 75.580586 292.8322 
L 79.240562 290.703971 
L 82.900539 288.546228 
L 86.560515 286.493615 
L 90.220491 284.432693 
L 93.880468 282.370777 
L 97.540444 280.308862 
L 101.200421 278.288758 
L 104.860397 276.232615 
L 108.520373 274.123117 
L 112.18035 272.121529 
L 115.840326 270.078031 
L 119.500303 268.056274 
L 123.160279 266.094488 
L 126.820255 263.919756 
L 130.480232 261.866194 
L 134.140208 259.851034 
L 137.800184 258.078876 
L 141.460161 256.177605 
L 145.120137 254.396063 
L 148.780114 252.207127 
L 152.44009 250.852224 
L 156.100066 249.723521 
L 159.760043 248.495487 
L 163.420019 247.048769 
L 167.079996 245.829749 
L 170.739972 244.314333 
L 174.399948 243.054893 
L 178.059925 241.621697 
L 181.719901 240.211741 
L 185.379878 238.730777 
L 189.039854 237.317333 
L 192.69983 236.016427 
L 196.359807 234.928472 
L 200.019783 233.917867 
L 203.679759 232.908158 
L 207.339736 231.758571 
L 210.999712 230.672277 
L 214.659689 229.769344 
L 218.319665 228.845074 
L 221.979641 227.86707 
L 225.639618 226.932042 
L 229.299594 226.20695 
L 232.959571 225.408312 
L 236.619547 224.328911 
L 240.279523 223.544312 
L 243.9395 222.969917 
L 247.599476 222.061676 
L 251.259452 221.131183 
L 254.919429 220.145277 
L 258.579405 218.990398 
L 262.239382 218.353381 
L 265.899358 217.625428 
L 269.559334 216.818305 
L 273.219311 216.192461 
L 276.879287 215.303066 
L 280.539264 214.560579 
L 284.19924 213.527233 
L 287.859216 212.613341 
L 291.519193 211.800101 
L 295.179169 210.954264 
L 298.839146 210.300483 
L 302.499122 209.639565 
L 306.159098 208.935844 
L 309.819075 208.192659 
L 313.479051 207.667041 
L 317.139027 206.658299 
L 320.799004 205.833497 
L 324.45898 205.173696 
L 328.118957 204.513895 
L 331.778933 203.824794 
L 335.438909 203.200419 
L 339.098886 202.649211 
L 342.758862 201.865678 
L 346.418839 201.231436 
L 350.078815 200.574173 
L 353.738791 199.850743 
L 357.398768 199.23597 
L 361.058744 198.62254 
L 364.71872 198.16858 
L 368.378697 197.666701 
L 372.038673 196.994313 
L 375.69865 196.21598 
L 379.358626 195.56079 
L 383.018602 195.052012 
L 386.678579 194.459104 
L 390.338555 193.895664 
L 393.998532 193.241977 
L 397.658508 192.584457 
L 401.318484 191.93251 
L 404.978461 191.285588 
L 408.638437 190.729286 
L 412.298414 190.522461 
L 415.95839 190.139582 
L 419.618366 189.528386 
L 423.278343 188.889768 
L 426.938319 188.426246 
L 430.598295 187.768393 
L 430.598295 69.054545 
L 430.598295 69.054545 
L 426.938319 71.247219 
L 423.278343 73.439893 
L 419.618366 75.632567 
L 415.95839 77.825241 
L 412.298414 80.183481 
L 408.638437 82.324326 
L 404.978461 84.424507 
L 401.318484 86.600526 
L 397.658508 88.845753 
L 393.998532 91.227117 
L 390.338555 93.608481 
L 386.678579 95.774584 
L 383.018602 97.555097 
L 379.358626 99.696187 
L 375.69865 101.88534 
L 372.038673 104.093843 
L 368.378697 106.352997 
L 364.71872 108.612151 
L 361.058744 110.871305 
L 357.398768 113.130459 
L 353.738791 115.389613 
L 350.078815 117.648767 
L 346.418839 119.907921 
L 342.758862 122.005111 
L 339.098886 124.054745 
L 335.438909 126.104379 
L 331.778933 128.333247 
L 328.118957 130.799841 
L 324.45898 133.266937 
L 320.799004 135.434041 
L 317.139027 137.498119 
L 313.479051 139.562196 
L 309.819075 141.626274 
L 306.159098 143.690351 
L 302.499122 145.754429 
L 298.839146 147.820173 
L 295.179169 150.004325 
L 291.519193 152.188477 
L 287.859216 154.372628 
L 284.19924 156.55678 
L 280.539264 158.687727 
L 276.879287 160.474623 
L 273.219311 162.24358 
L 269.559334 164.610446 
L 265.899358 166.833573 
L 262.239382 168.427359 
L 258.579405 169.985086 
L 254.919429 171.905405 
L 251.259452 173.737097 
L 247.599476 175.557881 
L 243.9395 177.255626 
L 240.279523 179.295265 
L 236.619547 180.928306 
L 232.959571 183.016708 
L 229.299594 184.775505 
L 225.639618 186.098876 
L 221.979641 187.919432 
L 218.319665 189.709364 
L 214.659689 191.252329 
L 210.999712 192.781538 
L 207.339736 194.049971 
L 203.679759 195.309213 
L 200.019783 196.423771 
L 196.359807 198.043618 
L 192.69983 199.116335 
L 189.039854 200.211878 
L 185.379878 201.398514 
L 181.719901 202.494229 
L 178.059925 203.255619 
L 174.399948 204.052971 
L 170.739972 204.783026 
L 167.079996 205.366517 
L 163.420019 206.00857 
L 159.760043 206.828713 
L 156.100066 207.259009 
L 152.44009 207.850016 
L 148.780114 208.805923 
L 145.120137 209.329411 
L 141.460161 209.810566 
L 137.800184 210.291744 
L 134.140208 210.829568 
L 130.480232 211.615765 
L 126.820255 212.140335 
L 123.160279 212.671529 
L 119.500303 213.530447 
L 115.840326 214.341456 
L 112.18035 214.732782 
L 108.520373 215.049488 
L 104.860397 215.366193 
L 101.200421 215.827737 
L 97.540444 216.348165 
L 93.880468 216.868594 
L 90.220491 217.389022 
L 86.560515 217.889141 
L 82.900539 218.33888 
L 79.240562 218.788619 
L 75.580586 219.231629 
L 71.92061 219.671252 
L 68.260633 220.122217 
z
" clip-path="url(#paf43582cf3)" style="fill: #ffa500; fill-opacity: 0.15"/>
   </g>
   <g id="matplotlib.axis_1">
    <g id="xtick_1">
     <g id="line2d_1">
      <defs>
       <path id="mbea4a14e2e" d="M 0 0 
L 0 3.5 
" style="stroke: #000000; stroke-width: 0.8"/>
      </defs>
      <g>
       <use xlink:href="#mbea4a14e2e" x="83.961932" y="309.6" style="stroke: #000000; stroke-width: 0.8"/>
      </g>
     </g>
     <g id="text_1">
      <!-- 0.02 -->
      <g transform="translate(72.829119 324.198437) scale(0.1 -0.1)">
       <defs>
        <path id="DejaVuSans-30" d="M 2034 4250 
Q 1547 4250 1301 3770 
Q 1056 3291 1056 2328 
Q 1056 1369 1301 889 
Q 1547 409 2034 409 
Q 2525 409 2770 889 
Q 3016 1369 3016 2328 
Q 3016 3291 2770 3770 
Q 2525 4250 2034 4250 
z
M 2034 4750 
Q 2819 4750 3233 4129 
Q 3647 3509 3647 2328 
Q 3647 1150 3233 529 
Q 2819 -91 2034 -91 
Q 1250 -91 836 529 
Q 422 1150 422 2328 
Q 422 3509 836 4129 
Q 1250 4750 2034 4750 
z
" transform="scale(0.015625)"/>
        <path id="DejaVuSans-2e" d="M 684 794 
L 1344 794 
L 1344 0 
L 684 0 
L 684 794 
z
" transform="scale(0.015625)"/>
        <path id="DejaVuSans-32" d="M 1228 531 
L 3431 531 
L 3431 0 
L 469 0 
L 469 531 
Q 828 903 1448 1529 
Q 2069 2156 2228 2338 
Q 2531 2678 2651 2914 
Q 2772 3150 2772 3378 
Q 2772 3750 2511 3984 
Q 2250 4219 1831 4219 
Q 1534 4219 1204 4116 
Q 875 4013 500 3803 
L 500 4441 
Q 881 4594 1212 4672 
Q 1544 4750 1819 4750 
Q 2544 4750 2975 4387 
Q 3406 4025 3406 3419 
Q 3406 3131 3298 2873 
Q 3191 2616 2906 2266 
Q 2828 2175 2409 1742 
Q 1991 1309 1228 531 
z
" transform="scale(0.015625)"/>
       </defs>
       <use xlink:href="#DejaVuSans-30"/>
       <use xlink:href="#DejaVuSans-2e" x="63.623047"/>
       <use xlink:href="#DejaVuSans-30" x="95.410156"/>
       <use xlink:href="#DejaVuSans-32" x="159.033203"/>
      </g>
     </g>
    </g>
    <g id="xtick_2">
     <g id="line2d_2">
      <g>
       <use xlink:href="#mbea4a14e2e" x="160.052841" y="309.6" style="stroke: #000000; stroke-width: 0.8"/>
      </g>
     </g>
     <g id="text_2">
      <!-- 0.04 -->
      <g transform="translate(148.920028 324.198437) scale(0.1 -0.1)">
       <defs>
        <path id="DejaVuSans-34" d="M 2419 4116 
L 825 1625 
L 2419 1625 
L 2419 4116 
z
M 2253 4666 
L 3047 4666 
L 3047 1625 
L 3713 1625 
L 3713 1100 
L 3047 1100 
L 3047 0 
L 2419 0 
L 2419 1100 
L 313 1100 
L 313 1709 
L 2253 4666 
z
" transform="scale(0.015625)"/>
       </defs>
       <use xlink:href="#DejaVuSans-30"/>
       <use xlink:href="#DejaVuSans-2e" x="63.623047"/>
       <use xlink:href="#DejaVuSans-30" x="95.410156"/>
       <use xlink:href="#DejaVuSans-34" x="159.033203"/>
      </g>
     </g>
    </g>
    <g id="xtick_3">
     <g id="line2d_3">
      <g>
       <use xlink:href="#mbea4a14e2e" x="236.14375" y="309.6" style="stroke: #000000; stroke-width: 0.8"/>
      </g>
     </g>
     <g id="text_3">
      <!-- 0.06 -->
      <g transform="translate(225.010938 324.198437) scale(0.1 -0.1)">
       <defs>
        <path id="DejaVuSans-36" d="M 2113 2584 
Q 1688 2584 1439 2293 
Q 1191 2003 1191 1497 
Q 1191 994 1439 701 
Q 1688 409 2113 409 
Q 2538 409 2786 701 
Q 3034 994 3034 1497 
Q 3034 2003 2786 2293 
Q 2538 2584 2113 2584 
z
M 3366 4563 
L 3366 3988 
Q 3128 4100 2886 4159 
Q 2644 4219 2406 4219 
Q 1781 4219 1451 3797 
Q 1122 3375 1075 2522 
Q 1259 2794 1537 2939 
Q 1816 3084 2150 3084 
Q 2853 3084 3261 2657 
Q 3669 2231 3669 1497 
Q 3669 778 3244 343 
Q 2819 -91 2113 -91 
Q 1303 -91 875 529 
Q 447 1150 447 2328 
Q 447 3434 972 4092 
Q 1497 4750 2381 4750 
Q 2619 4750 2861 4703 
Q 3103 4656 3366 4563 
z
" transform="scale(0.015625)"/>
       </defs>
       <use xlink:href="#DejaVuSans-30"/>
       <use xlink:href="#DejaVuSans-2e" x="63.623047"/>
       <use xlink:href="#DejaVuSans-30" x="95.410156"/>
       <use xlink:href="#DejaVuSans-36" x="159.033203"/>
      </g>
     </g>
    </g>
    <g id="xtick_4">
     <g id="line2d_4">
      <g>
       <use xlink:href="#mbea4a14e2e" x="312.234659" y="309.6" style="stroke: #000000; stroke-width: 0.8"/>
      </g>
     </g>
     <g id="text_4">
      <!-- 0.08 -->
      <g transform="translate(301.101847 324.198437) scale(0.1 -0.1)">
       <defs>
        <path id="DejaVuSans-38" d="M 2034 2216 
Q 1584 2216 1326 1975 
Q 1069 1734 1069 1313 
Q 1069 891 1326 650 
Q 1584 409 2034 409 
Q 2484 409 2743 651 
Q 3003 894 3003 1313 
Q 3003 1734 2745 1975 
Q 2488 2216 2034 2216 
z
M 1403 2484 
Q 997 2584 770 2862 
Q 544 3141 544 3541 
Q 544 4100 942 4425 
Q 1341 4750 2034 4750 
Q 2731 4750 3128 4425 
Q 3525 4100 3525 3541 
Q 3525 3141 3298 2862 
Q 3072 2584 2669 2484 
Q 3125 2378 3379 2068 
Q 3634 1759 3634 1313 
Q 3634 634 3220 271 
Q 2806 -91 2034 -91 
Q 1263 -91 848 271 
Q 434 634 434 1313 
Q 434 1759 690 2068 
Q 947 2378 1403 2484 
z
M 1172 3481 
Q 1172 3119 1398 2916 
Q 1625 2713 2034 2713 
Q 2441 2713 2670 2916 
Q 2900 3119 2900 3481 
Q 2900 3844 2670 4047 
Q 2441 4250 2034 4250 
Q 1625 4250 1398 4047 
Q 1172 3844 1172 3481 
z
" transform="scale(0.015625)"/>
       </defs>
       <use xlink:href="#DejaVuSans-30"/>
       <use xlink:href="#DejaVuSans-2e" x="63.623047"/>
       <use xlink:href="#DejaVuSans-30" x="95.410156"/>
       <use xlink:href="#DejaVuSans-38" x="159.033203"/>
      </g>
     </g>
    </g>
    <g id="xtick_5">
     <g id="line2d_5">
      <g>
       <use xlink:href="#mbea4a14e2e" x="388.325568" y="309.6" style="stroke: #000000; stroke-width: 0.8"/>
      </g>
     </g>
     <g id="text_5">
      <!-- 0.10 -->
      <g transform="translate(377.192756 324.198437) scale(0.1 -0.1)">
       <defs>
        <path id="DejaVuSans-31" d="M 794 531 
L 1825 531 
L 1825 4091 
L 703 3866 
L 703 4441 
L 1819 4666 
L 2450 4666 
L 2450 531 
L 3481 531 
L 3481 0 
L 794 0 
L 794 531 
z
" transform="scale(0.015625)"/>
       </defs>
       <use xlink:href="#DejaVuSans-30"/>
       <use xlink:href="#DejaVuSans-2e" x="63.623047"/>
       <use xlink:href="#DejaVuSans-31" x="95.410156"/>
       <use xlink:href="#DejaVuSans-30" x="159.033203"/>
      </g>
     </g>
    </g>
    <g id="text_6">
     <!-- Codon -->
     <g transform="translate(233.476339 337.876562) scale(0.1 -0.1)">
      <defs>
       <path id="DejaVuSans-43" d="M 4122 4306 
L 4122 3641 
Q 3803 3938 3442 4084 
Q 3081 4231 2675 4231 
Q 1875 4231 1450 3742 
Q 1025 3253 1025 2328 
Q 1025 1406 1450 917 
Q 1875 428 2675 428 
Q 3081 428 3442 575 
Q 3803 722 4122 1019 
L 4122 359 
Q 3791 134 3420 21 
Q 3050 -91 2638 -91 
Q 1578 -91 968 557 
Q 359 1206 359 2328 
Q 359 3453 968 4101 
Q 1578 4750 2638 4750 
Q 3056 4750 3426 4639 
Q 3797 4528 4122 4306 
z
" transform="scale(0.015625)"/>
       <path id="DejaVuSans-6f" d="M 1959 3097 
Q 1497 3097 1228 2736 
Q 959 2375 959 1747 
Q 959 1119 1226 758 
Q 1494 397 1959 397 
Q 2419 397 2687 759 
Q 2956 1122 2956 1747 
Q 2956 2369 2687 2733 
Q 2419 3097 1959 3097 
z
M 1959 3584 
Q 2709 3584 3137 3096 
Q 3566 2609 3566 1747 
Q 3566 888 3137 398 
Q 2709 -91 1959 -91 
Q 1206 -91 779 398 
Q 353 888 353 1747 
Q 353 2609 779 3096 
Q 1206 3584 1959 3584 
z
" transform="scale(0.015625)"/>
       <path id="DejaVuSans-64" d="M 2906 2969 
L 2906 4863 
L 3481 4863 
L 3481 0 
L 2906 0 
L 2906 525 
Q 2725 213 2448 61 
Q 2172 -91 1784 -91 
Q 1150 -91 751 415 
Q 353 922 353 1747 
Q 353 2572 751 3078 
Q 1150 3584 1784 3584 
Q 2172 3584 2448 3432 
Q 2725 3281 2906 2969 
z
M 947 1747 
Q 947 1113 1208 752 
Q 1469 391 1925 391 
Q 2381 391 2643 752 
Q 2906 1113 2906 1747 
Q 2906 2381 2643 2742 
Q 2381 3103 1925 3103 
Q 1469 3103 1208 2742 
Q 947 2381 947 1747 
z
" transform="scale(0.015625)"/>
       <path id="DejaVuSans-6e" d="M 3513 2113 
L 3513 0 
L 2938 0 
L 2938 2094 
Q 2938 2591 2744 2837 
Q 2550 3084 2163 3084 
Q 1697 3084 1428 2787 
Q 1159 2491 1159 1978 
L 1159 0 
L 581 0 
L 581 3500 
L 1159 3500 
L 1159 2956 
Q 1366 3272 1645 3428 
Q 1925 3584 2291 3584 
Q 2894 3584 3203 3211 
Q 3513 2838 3513 2113 
z
" transform="scale(0.015625)"/>
      </defs>
      <use xlink:href="#DejaVuSans-43"/>
      <use xlink:href="#DejaVuSans-6f" x="69.824219"/>
      <use xlink:href="#DejaVuSans-64" x="131.005859"/>
      <use xlink:href="#DejaVuSans-6f" x="194.482422"/>
      <use xlink:href="#DejaVuSans-6e" x="255.664062"/>
     </g>
    </g>
   </g>
   <g id="matplotlib.axis_2">
    <g id="ytick_1">
     <g id="line2d_6">
      <defs>
       <path id="m32ce768cba" d="M 0 0 
L -3.5 0 
" style="stroke: #000000; stroke-width: 0.8"/>
      </defs>
      <g>
       <use xlink:href="#m32ce768cba" x="50.14375" y="275.157709" style="stroke: #000000; stroke-width: 0.8"/>
      </g>
     </g>
     <g id="text_7">
      <!-- 0.02 -->
      <g transform="translate(20.878125 278.956928) scale(0.1 -0.1)">
       <use xlink:href="#DejaVuSans-30"/>
       <use xlink:href="#DejaVuSans-2e" x="63.623047"/>
       <use xlink:href="#DejaVuSans-30" x="95.410156"/>
       <use xlink:href="#DejaVuSans-32" x="159.033203"/>
      </g>
     </g>
    </g>
    <g id="ytick_2">
     <g id="line2d_7">
      <g>
       <use xlink:href="#m32ce768cba" x="50.14375" y="236.443518" style="stroke: #000000; stroke-width: 0.8"/>
      </g>
     </g>
     <g id="text_8">
      <!-- 0.04 -->
      <g transform="translate(20.878125 240.242736) scale(0.1 -0.1)">
       <use xlink:href="#DejaVuSans-30"/>
       <use xlink:href="#DejaVuSans-2e" x="63.623047"/>
       <use xlink:href="#DejaVuSans-30" x="95.410156"/>
       <use xlink:href="#DejaVuSans-34" x="159.033203"/>
      </g>
     </g>
    </g>
    <g id="ytick_3">
     <g id="line2d_8">
      <g>
       <use xlink:href="#m32ce768cba" x="50.14375" y="197.729326" style="stroke: #000000; stroke-width: 0.8"/>
      </g>
     </g>
     <g id="text_9">
      <!-- 0.06 -->
      <g transform="translate(20.878125 201.528545) scale(0.1 -0.1)">
       <use xlink:href="#DejaVuSans-30"/>
       <use xlink:href="#DejaVuSans-2e" x="63.623047"/>
       <use xlink:href="#DejaVuSans-30" x="95.410156"/>
       <use xlink:href="#DejaVuSans-36" x="159.033203"/>
      </g>
     </g>
    </g>
    <g id="ytick_4">
     <g id="line2d_9">
      <g>
       <use xlink:href="#m32ce768cba" x="50.14375" y="159.015135" style="stroke: #000000; stroke-width: 0.8"/>
      </g>
     </g>
     <g id="text_10">
      <!-- 0.08 -->
      <g transform="translate(20.878125 162.814353) scale(0.1 -0.1)">
       <use xlink:href="#DejaVuSans-30"/>
       <use xlink:href="#DejaVuSans-2e" x="63.623047"/>
       <use xlink:href="#DejaVuSans-30" x="95.410156"/>
       <use xlink:href="#DejaVuSans-38" x="159.033203"/>
      </g>
     </g>
    </g>
    <g id="ytick_5">
     <g id="line2d_10">
      <g>
       <use xlink:href="#m32ce768cba" x="50.14375" y="120.300943" style="stroke: #000000; stroke-width: 0.8"/>
      </g>
     </g>
     <g id="text_11">
      <!-- 0.10 -->
      <g transform="translate(20.878125 124.100162) scale(0.1 -0.1)">
       <use xlink:href="#DejaVuSans-30"/>
       <use xlink:href="#DejaVuSans-2e" x="63.623047"/>
       <use xlink:href="#DejaVuSans-31" x="95.410156"/>
       <use xlink:href="#DejaVuSans-30" x="159.033203"/>
      </g>
     </g>
    </g>
    <g id="ytick_6">
     <g id="line2d_11">
      <g>
       <use xlink:href="#m32ce768cba" x="50.14375" y="81.586751" style="stroke: #000000; stroke-width: 0.8"/>
      </g>
     </g>
     <g id="text_12">
      <!-- 0.12 -->
      <g transform="translate(20.878125 85.38597) scale(0.1 -0.1)">
       <use xlink:href="#DejaVuSans-30"/>
       <use xlink:href="#DejaVuSans-2e" x="63.623047"/>
       <use xlink:href="#DejaVuSans-31" x="95.410156"/>
       <use xlink:href="#DejaVuSans-32" x="159.033203"/>
      </g>
     </g>
    </g>
    <g id="text_13">
     <!-- Amino acid frequency -->
     <g transform="translate(14.798438 238.139062) rotate(-90) scale(0.1 -0.1)">
      <defs>
       <path id="DejaVuSans-41" d="M 2188 4044 
L 1331 1722 
L 3047 1722 
L 2188 4044 
z
M 1831 4666 
L 2547 4666 
L 4325 0 
L 3669 0 
L 3244 1197 
L 1141 1197 
L 716 0 
L 50 0 
L 1831 4666 
z
" transform="scale(0.015625)"/>
       <path id="DejaVuSans-6d" d="M 3328 2828 
Q 3544 3216 3844 3400 
Q 4144 3584 4550 3584 
Q 5097 3584 5394 3201 
Q 5691 2819 5691 2113 
L 5691 0 
L 5113 0 
L 5113 2094 
Q 5113 2597 4934 2840 
Q 4756 3084 4391 3084 
Q 3944 3084 3684 2787 
Q 3425 2491 3425 1978 
L 3425 0 
L 2847 0 
L 2847 2094 
Q 2847 2600 2669 2842 
Q 2491 3084 2119 3084 
Q 1678 3084 1418 2786 
Q 1159 2488 1159 1978 
L 1159 0 
L 581 0 
L 581 3500 
L 1159 3500 
L 1159 2956 
Q 1356 3278 1631 3431 
Q 1906 3584 2284 3584 
Q 2666 3584 2933 3390 
Q 3200 3197 3328 2828 
z
" transform="scale(0.015625)"/>
       <path id="DejaVuSans-69" d="M 603 3500 
L 1178 3500 
L 1178 0 
L 603 0 
L 603 3500 
z
M 603 4863 
L 1178 4863 
L 1178 4134 
L 603 4134 
L 603 4863 
z
" transform="scale(0.015625)"/>
       <path id="DejaVuSans-20" transform="scale(0.015625)"/>
       <path id="DejaVuSans-61" d="M 2194 1759 
Q 1497 1759 1228 1600 
Q 959 1441 959 1056 
Q 959 750 1161 570 
Q 1363 391 1709 391 
Q 2188 391 2477 730 
Q 2766 1069 2766 1631 
L 2766 1759 
L 2194 1759 
z
M 3341 1997 
L 3341 0 
L 2766 0 
L 2766 531 
Q 2569 213 2275 61 
Q 1981 -91 1556 -91 
Q 1019 -91 701 211 
Q 384 513 384 1019 
Q 384 1609 779 1909 
Q 1175 2209 1959 2209 
L 2766 2209 
L 2766 2266 
Q 2766 2663 2505 2880 
Q 2244 3097 1772 3097 
Q 1472 3097 1187 3025 
Q 903 2953 641 2809 
L 641 3341 
Q 956 3463 1253 3523 
Q 1550 3584 1831 3584 
Q 2591 3584 2966 3190 
Q 3341 2797 3341 1997 
z
" transform="scale(0.015625)"/>
       <path id="DejaVuSans-63" d="M 3122 3366 
L 3122 2828 
Q 2878 2963 2633 3030 
Q 2388 3097 2138 3097 
Q 1578 3097 1268 2742 
Q 959 2388 959 1747 
Q 959 1106 1268 751 
Q 1578 397 2138 397 
Q 2388 397 2633 464 
Q 2878 531 3122 666 
L 3122 134 
Q 2881 22 2623 -34 
Q 2366 -91 2075 -91 
Q 1284 -91 818 406 
Q 353 903 353 1747 
Q 353 2603 823 3093 
Q 1294 3584 2113 3584 
Q 2378 3584 2631 3529 
Q 2884 3475 3122 3366 
z
" transform="scale(0.015625)"/>
       <path id="DejaVuSans-66" d="M 2375 4863 
L 2375 4384 
L 1825 4384 
Q 1516 4384 1395 4259 
Q 1275 4134 1275 3809 
L 1275 3500 
L 2222 3500 
L 2222 3053 
L 1275 3053 
L 1275 0 
L 697 0 
L 697 3053 
L 147 3053 
L 147 3500 
L 697 3500 
L 697 3744 
Q 697 4328 969 4595 
Q 1241 4863 1831 4863 
L 2375 4863 
z
" transform="scale(0.015625)"/>
       <path id="DejaVuSans-72" d="M 2631 2963 
Q 2534 3019 2420 3045 
Q 2306 3072 2169 3072 
Q 1681 3072 1420 2755 
Q 1159 2438 1159 1844 
L 1159 0 
L 581 0 
L 581 3500 
L 1159 3500 
L 1159 2956 
Q 1341 3275 1631 3429 
Q 1922 3584 2338 3584 
Q 2397 3584 2469 3576 
Q 2541 3569 2628 3553 
L 2631 2963 
z
" transform="scale(0.015625)"/>
       <path id="DejaVuSans-65" d="M 3597 1894 
L 3597 1613 
L 953 1613 
Q 991 1019 1311 708 
Q 1631 397 2203 397 
Q 2534 397 2845 478 
Q 3156 559 3463 722 
L 3463 178 
Q 3153 47 2828 -22 
Q 2503 -91 2169 -91 
Q 1331 -91 842 396 
Q 353 884 353 1716 
Q 353 2575 817 3079 
Q 1281 3584 2069 3584 
Q 2775 3584 3186 3129 
Q 3597 2675 3597 1894 
z
M 3022 2063 
Q 3016 2534 2758 2815 
Q 2500 3097 2075 3097 
Q 1594 3097 1305 2825 
Q 1016 2553 972 2059 
L 3022 2063 
z
" transform="scale(0.015625)"/>
       <path id="DejaVuSans-71" d="M 947 1747 
Q 947 1113 1208 752 
Q 1469 391 1925 391 
Q 2381 391 2643 752 
Q 2906 1113 2906 1747 
Q 2906 2381 2643 2742 
Q 2381 3103 1925 3103 
Q 1469 3103 1208 2742 
Q 947 2381 947 1747 
z
M 2906 525 
Q 2725 213 2448 61 
Q 2172 -91 1784 -91 
Q 1150 -91 751 415 
Q 353 922 353 1747 
Q 353 2572 751 3078 
Q 1150 3584 1784 3584 
Q 2172 3584 2448 3432 
Q 2725 3281 2906 2969 
L 2906 3500 
L 3481 3500 
L 3481 -1331 
L 2906 -1331 
L 2906 525 
z
" transform="scale(0.015625)"/>
       <path id="DejaVuSans-75" d="M 544 1381 
L 544 3500 
L 1119 3500 
L 1119 1403 
Q 1119 906 1312 657 
Q 1506 409 1894 409 
Q 2359 409 2629 706 
Q 2900 1003 2900 1516 
L 2900 3500 
L 3475 3500 
L 3475 0 
L 2900 0 
L 2900 538 
Q 2691 219 2414 64 
Q 2138 -91 1772 -91 
Q 1169 -91 856 284 
Q 544 659 544 1381 
z
M 1991 3584 
L 1991 3584 
z
" transform="scale(0.015625)"/>
       <path id="DejaVuSans-79" d="M 2059 -325 
Q 1816 -950 1584 -1140 
Q 1353 -1331 966 -1331 
L 506 -1331 
L 506 -850 
L 844 -850 
Q 1081 -850 1212 -737 
Q 1344 -625 1503 -206 
L 1606 56 
L 191 3500 
L 800 3500 
L 1894 763 
L 2988 3500 
L 3597 3500 
L 2059 -325 
z
" transform="scale(0.015625)"/>
      </defs>
      <use xlink:href="#DejaVuSans-41"/>
      <use xlink:href="#DejaVuSans-6d" x="68.408203"/>
      <use xlink:href="#DejaVuSans-69" x="165.820312"/>
      <use xlink:href="#DejaVuSans-6e" x="193.603516"/>
      <use xlink:href="#DejaVuSans-6f" x="256.982422"/>
      <use xlink:href="#DejaVuSans-20" x="318.164062"/>
      <use xlink:href="#DejaVuSans-61" x="349.951172"/>
      <use xlink:href="#DejaVuSans-63" x="411.230469"/>
      <use xlink:href="#DejaVuSans-69" x="466.210938"/>
      <use xlink:href="#DejaVuSans-64" x="493.994141"/>
      <use xlink:href="#DejaVuSans-20" x="557.470703"/>
      <use xlink:href="#DejaVuSans-66" x="589.257812"/>
      <use xlink:href="#DejaVuSans-72" x="624.462891"/>
      <use xlink:href="#DejaVuSans-65" x="663.326172"/>
      <use xlink:href="#DejaVuSans-71" x="724.849609"/>
      <use xlink:href="#DejaVuSans-75" x="788.326172"/>
      <use xlink:href="#DejaVuSans-65" x="851.705078"/>
      <use xlink:href="#DejaVuSans-6e" x="913.228516"/>
      <use xlink:href="#DejaVuSans-63" x="976.607422"/>
      <use xlink:href="#DejaVuSans-79" x="1031.587891"/>
     </g>
    </g>
   </g>
   <g id="line2d_12">
    <path d="M 68.260633 256.615616 
L 71.92061 255.501333 
L 75.580586 254.38705 
L 79.240562 253.272767 
L 82.900539 252.158483 
L 86.560515 251.0442 
L 90.220491 249.929917 
L 93.880468 248.815634 
L 97.540444 247.701351 
L 101.200421 246.587068 
L 104.860397 245.472785 
L 108.520373 244.358502 
L 112.18035 243.244218 
L 115.840326 242.129935 
L 119.500303 241.015652 
L 123.160279 239.901369 
L 126.820255 238.787086 
L 130.480232 237.672803 
L 134.140208 236.55852 
L 137.800184 235.444237 
L 141.460161 234.329953 
L 145.120137 233.21567 
L 148.780114 232.101387 
L 152.44009 230.987104 
L 156.100066 229.872821 
L 159.760043 228.758538 
L 163.420019 227.644255 
L 167.079996 226.529971 
L 170.739972 225.415688 
L 174.399948 224.301405 
L 178.059925 223.187122 
L 181.719901 222.072839 
L 185.379878 220.958556 
L 189.039854 219.844273 
L 192.69983 218.72999 
L 196.359807 217.615706 
L 200.019783 216.501423 
L 203.679759 215.38714 
L 207.339736 214.272857 
L 210.999712 213.158574 
L 214.659689 212.044291 
L 218.319665 210.930008 
L 221.979641 209.815725 
L 225.639618 208.701441 
L 229.299594 207.587158 
L 232.959571 206.472875 
L 236.619547 205.358592 
L 240.279523 204.244309 
L 243.9395 203.130026 
L 247.599476 202.015743 
L 251.259452 200.901459 
L 254.919429 199.787176 
L 258.579405 198.672893 
L 262.239382 197.55861 
L 265.899358 196.444327 
L 269.559334 195.330044 
L 273.219311 194.215761 
L 276.879287 193.101478 
L 280.539264 191.987194 
L 284.19924 190.872911 
L 287.859216 189.758628 
L 291.519193 188.644345 
L 295.179169 187.530062 
L 298.839146 186.415779 
L 302.499122 185.301496 
L 306.159098 184.187213 
L 309.819075 183.072929 
L 313.479051 181.958646 
L 317.139027 180.844363 
L 320.799004 179.73008 
L 324.45898 178.615797 
L 328.118957 177.501514 
L 331.778933 176.387231 
L 335.438909 175.272947 
L 339.098886 174.158664 
L 342.758862 173.044381 
L 346.418839 171.930098 
L 350.078815 170.815815 
L 353.738791 169.701532 
L 357.398768 168.587249 
L 361.058744 167.472966 
L 364.71872 166.358682 
L 368.378697 165.244399 
L 372.038673 164.130116 
L 375.69865 163.015833 
L 379.358626 161.90155 
L 383.018602 160.787267 
L 386.678579 159.672984 
L 390.338555 158.558701 
L 393.998532 157.444417 
L 397.658508 156.330134 
L 401.318484 155.215851 
L 404.978461 154.101568 
L 408.638437 152.987285 
L 412.298414 151.873002 
L 415.95839 150.758719 
L 419.618366 149.644435 
L 423.278343 148.530152 
L 426.938319 147.415869 
L 430.598295 146.301586 
" clip-path="url(#paf43582cf3)" style="fill: none; stroke: #ffa500; stroke-width: 2.25; stroke-linecap: square"/>
   </g>
   <g id="patch_3">
    <path d="M 50.14375 309.6 
L 50.14375 57.6 
" style="fill: none; stroke: #000000; stroke-width: 0.8; stroke-linejoin: miter; stroke-linecap: square"/>
   </g>
   <g id="patch_4">
    <path d="M 448.715179 309.6 
L 448.715179 57.6 
" style="fill: none; stroke: #000000; stroke-width: 0.8; stroke-linejoin: miter; stroke-linecap: square"/>
   </g>
   <g id="patch_5">
    <path d="M 50.14375 309.6 
L 448.715179 309.6 
" style="fill: none; stroke: #000000; stroke-width: 0.8; stroke-linejoin: miter; stroke-linecap: square"/>
   </g>
   <g id="patch_6">
    <path d="M 50.14375 57.6 
L 448.715179 57.6 
" style="fill: none; stroke: #000000; stroke-width: 0.8; stroke-linejoin: miter; stroke-linecap: square"/>
   </g>
  </g>
  <g id="axes_2">
   <g id="patch_7">
    <path d="M 488.572321 309.6 
L 887.14375 309.6 
L 887.14375 57.6 
L 488.572321 57.6 
z
" style="fill: #ffffff"/>
   </g>
   <g id="PathCollection_2">
    <g clip-path="url(#pc254201f42)">
     <use xlink:href="#mad7b4d125a" x="506.689205" y="265.132546" style="fill: #1f77b4; fill-opacity: 0.8; stroke: #1f77b4; stroke-opacity: 0.8"/>
     <use xlink:href="#mad7b4d125a" x="567.078815" y="298.145455" style="fill: #1f77b4; fill-opacity: 0.8; stroke: #1f77b4; stroke-opacity: 0.8"/>
     <use xlink:href="#mad7b4d125a" x="567.078815" y="294.078789" style="fill: #1f77b4; fill-opacity: 0.8; stroke: #1f77b4; stroke-opacity: 0.8"/>
     <use xlink:href="#mad7b4d125a" x="567.078815" y="192.631021" style="fill: #1f77b4; fill-opacity: 0.8; stroke: #1f77b4; stroke-opacity: 0.8"/>
     <use xlink:href="#mad7b4d125a" x="567.078815" y="156.41483" style="fill: #1f77b4; fill-opacity: 0.8; stroke: #1f77b4; stroke-opacity: 0.8"/>
     <use xlink:href="#mad7b4d125a" x="567.078815" y="253.8028" style="fill: #1f77b4; fill-opacity: 0.8; stroke: #1f77b4; stroke-opacity: 0.8"/>
     <use xlink:href="#mad7b4d125a" x="567.078815" y="277.943117" style="fill: #1f77b4; fill-opacity: 0.8; stroke: #1f77b4; stroke-opacity: 0.8"/>
     <use xlink:href="#mad7b4d125a" x="627.468425" y="187.528754" style="fill: #1f77b4; fill-opacity: 0.8; stroke: #1f77b4; stroke-opacity: 0.8"/>
     <use xlink:href="#mad7b4d125a" x="567.078815" y="248.064121" style="fill: #1f77b4; fill-opacity: 0.8; stroke: #1f77b4; stroke-opacity: 0.8"/>
     <use xlink:href="#mad7b4d125a" x="567.078815" y="270.313412" style="fill: #1f77b4; fill-opacity: 0.8; stroke: #1f77b4; stroke-opacity: 0.8"/>
     <use xlink:href="#mad7b4d125a" x="627.468425" y="249.406349" style="fill: #1f77b4; fill-opacity: 0.8; stroke: #1f77b4; stroke-opacity: 0.8"/>
     <use xlink:href="#mad7b4d125a" x="627.468425" y="168.63185" style="fill: #1f77b4; fill-opacity: 0.8; stroke: #1f77b4; stroke-opacity: 0.8"/>
     <use xlink:href="#mad7b4d125a" x="687.858036" y="170.452272" style="fill: #1f77b4; fill-opacity: 0.8; stroke: #1f77b4; stroke-opacity: 0.8"/>
     <use xlink:href="#mad7b4d125a" x="687.858036" y="164.994742" style="fill: #1f77b4; fill-opacity: 0.8; stroke: #1f77b4; stroke-opacity: 0.8"/>
     <use xlink:href="#mad7b4d125a" x="687.858036" y="231.657813" style="fill: #1f77b4; fill-opacity: 0.8; stroke: #1f77b4; stroke-opacity: 0.8"/>
     <use xlink:href="#mad7b4d125a" x="687.858036" y="220.280933" style="fill: #1f77b4; fill-opacity: 0.8; stroke: #1f77b4; stroke-opacity: 0.8"/>
     <use xlink:href="#mad7b4d125a" x="687.858036" y="147.440099" style="fill: #1f77b4; fill-opacity: 0.8; stroke: #1f77b4; stroke-opacity: 0.8"/>
     <use xlink:href="#mad7b4d125a" x="808.637256" y="143.59797" style="fill: #1f77b4; fill-opacity: 0.8; stroke: #1f77b4; stroke-opacity: 0.8"/>
     <use xlink:href="#mad7b4d125a" x="687.858036" y="195.825943" style="fill: #1f77b4; fill-opacity: 0.8; stroke: #1f77b4; stroke-opacity: 0.8"/>
     <use xlink:href="#mad7b4d125a" x="869.026867" y="207.648279" style="fill: #1f77b4; fill-opacity: 0.8; stroke: #1f77b4; stroke-opacity: 0.8"/>
    </g>
   </g>
   <g id="PolyCollection_2">
    <path d="M 506.689205 221.735039 
L 506.689205 295.941397 
L 510.349181 293.965661 
L 514.009157 292.091561 
L 517.669134 289.709713 
L 521.32911 287.635438 
L 524.989086 285.712768 
L 528.649063 283.705368 
L 532.309039 281.963752 
L 535.969016 280.205427 
L 539.628992 278.211766 
L 543.288968 275.891141 
L 546.948945 273.551191 
L 550.608921 271.036934 
L 554.268898 269.087404 
L 557.928874 267.304462 
L 561.58885 265.527527 
L 565.248827 263.743574 
L 568.908803 261.695144 
L 572.56878 260.18454 
L 576.228756 258.055058 
L 579.888732 255.942004 
L 583.548709 254.083288 
L 587.208685 252.187231 
L 590.868661 250.678863 
L 594.528638 249.005787 
L 598.188614 247.496271 
L 601.848591 246.138878 
L 605.508567 244.785426 
L 609.168543 243.625527 
L 612.82852 242.38216 
L 616.488496 240.971623 
L 620.148473 240.134828 
L 623.808449 238.955387 
L 627.468425 237.715997 
L 631.128402 236.145403 
L 634.788378 234.540145 
L 638.448354 233.74123 
L 642.108331 232.727362 
L 645.768307 231.746035 
L 649.428284 230.544531 
L 653.08826 229.115011 
L 656.748236 228.137608 
L 660.408213 227.028278 
L 664.068189 226.049702 
L 667.728166 224.940357 
L 671.388142 223.879854 
L 675.048118 222.923294 
L 678.708095 222.109684 
L 682.368071 221.522928 
L 686.028048 220.481294 
L 689.688024 219.750298 
L 693.348 219.193992 
L 697.007977 218.64056 
L 700.667953 217.957724 
L 704.327929 217.493653 
L 707.987906 216.672665 
L 711.647882 215.688274 
L 715.307859 215.017634 
L 718.967835 214.139786 
L 722.627811 213.575978 
L 726.287788 213.024926 
L 729.947764 212.364978 
L 733.607741 211.579248 
L 737.267717 210.91526 
L 740.927693 210.321661 
L 744.58767 209.730941 
L 748.247646 209.043076 
L 751.907622 208.414819 
L 755.567599 207.647289 
L 759.227575 206.698301 
L 762.887552 205.801435 
L 766.547528 205.041161 
L 770.207504 204.594695 
L 773.867481 204.148229 
L 777.527457 203.182763 
L 781.187434 202.179565 
L 784.84741 201.731832 
L 788.507386 201.32106 
L 792.167363 200.727283 
L 795.827339 200.166618 
L 799.487316 199.512271 
L 803.147292 198.94364 
L 806.807268 198.390648 
L 810.467245 197.724956 
L 814.127221 197.077599 
L 817.787197 196.404191 
L 821.447174 195.74835 
L 825.10715 195.082333 
L 828.767127 194.416116 
L 832.427103 193.749899 
L 836.087079 193.083681 
L 839.747056 192.417464 
L 843.407032 191.751246 
L 847.067009 191.085029 
L 850.726985 190.418811 
L 854.386961 189.752594 
L 858.046938 189.349305 
L 861.706914 188.74423 
L 865.36689 188.040692 
L 869.026867 187.574077 
L 869.026867 69.054545 
L 869.026867 69.054545 
L 865.36689 71.202493 
L 861.706914 73.270849 
L 858.046938 75.534494 
L 854.386961 77.857323 
L 850.726985 80.180152 
L 847.067009 82.502981 
L 843.407032 84.82581 
L 839.747056 87.148639 
L 836.087079 89.479084 
L 832.427103 91.80976 
L 828.767127 94.140435 
L 825.10715 96.462685 
L 821.447174 98.652666 
L 817.787197 100.764659 
L 814.127221 102.876652 
L 810.467245 104.988644 
L 806.807268 107.100637 
L 803.147292 109.383962 
L 799.487316 111.75274 
L 795.827339 113.587882 
L 792.167363 115.52035 
L 788.507386 117.617768 
L 784.84741 119.715185 
L 781.187434 121.812603 
L 777.527457 123.91002 
L 773.867481 126.024017 
L 770.207504 128.138802 
L 766.547528 130.253586 
L 762.887552 132.469513 
L 759.227575 134.749099 
L 755.567599 136.808419 
L 751.907622 138.867739 
L 748.247646 140.927059 
L 744.58767 143.078915 
L 740.927693 145.398847 
L 737.267717 147.71878 
L 733.607741 150.043886 
L 729.947764 152.373423 
L 726.287788 154.409122 
L 722.627811 156.689203 
L 718.967835 159.119655 
L 715.307859 161.052827 
L 711.647882 162.851652 
L 707.987906 164.465122 
L 704.327929 166.215236 
L 700.667953 168.186106 
L 697.007977 170.330234 
L 693.348 172.362513 
L 689.688024 174.0853 
L 686.028048 176.053204 
L 682.368071 177.970865 
L 678.708095 179.591089 
L 675.048118 181.371629 
L 671.388142 182.880909 
L 667.728166 184.187517 
L 664.068189 185.981866 
L 660.408213 187.454978 
L 656.748236 189.290696 
L 653.08826 191.035179 
L 649.428284 192.967394 
L 645.768307 194.546402 
L 642.108331 195.865559 
L 638.448354 196.71389 
L 634.788378 197.644436 
L 631.128402 198.791071 
L 627.468425 200.002435 
L 623.808449 201.273021 
L 620.148473 202.322077 
L 616.488496 203.312269 
L 612.82852 204.406791 
L 609.168543 205.525877 
L 605.508567 206.10366 
L 601.848591 207.079211 
L 598.188614 207.78186 
L 594.528638 208.617494 
L 590.868661 209.150951 
L 587.208685 209.961843 
L 583.548709 210.611181 
L 579.888732 210.989782 
L 576.228756 211.465584 
L 572.56878 212.134429 
L 568.908803 212.671342 
L 565.248827 213.421938 
L 561.58885 214.117977 
L 557.928874 214.618162 
L 554.268898 215.250814 
L 550.608921 215.753341 
L 546.948945 216.138587 
L 543.288968 216.640956 
L 539.628992 217.143553 
L 535.969016 217.650275 
L 532.309039 218.156998 
L 528.649063 218.664613 
L 524.989086 219.176272 
L 521.32911 219.812325 
L 517.669134 220.354973 
L 514.009157 220.802573 
L 510.349181 221.436516 
L 506.689205 221.735039 
z
" clip-path="url(#pc254201f42)" style="fill: #ffa500; fill-opacity: 0.15"/>
   </g>
   <g id="matplotlib.axis_3">
    <g id="xtick_6">
     <g id="line2d_13">
      <g>
       <use xlink:href="#mbea4a14e2e" x="522.390503" y="309.6" style="stroke: #000000; stroke-width: 0.8"/>
      </g>
     </g>
     <g id="text_14">
      <!-- 0.02 -->
      <g transform="translate(511.257691 324.198437) scale(0.1 -0.1)">
       <use xlink:href="#DejaVuSans-30"/>
       <use xlink:href="#DejaVuSans-2e" x="63.623047"/>
       <use xlink:href="#DejaVuSans-30" x="95.410156"/>
       <use xlink:href="#DejaVuSans-32" x="159.033203"/>
      </g>
     </g>
    </g>
    <g id="xtick_7">
     <g id="line2d_14">
      <g>
       <use xlink:href="#mbea4a14e2e" x="598.481412" y="309.6" style="stroke: #000000; stroke-width: 0.8"/>
      </g>
     </g>
     <g id="text_15">
      <!-- 0.04 -->
      <g transform="translate(587.3486 324.198437) scale(0.1 -0.1)">
       <use xlink:href="#DejaVuSans-30"/>
       <use xlink:href="#DejaVuSans-2e" x="63.623047"/>
       <use xlink:href="#DejaVuSans-30" x="95.410156"/>
       <use xlink:href="#DejaVuSans-34" x="159.033203"/>
      </g>
     </g>
    </g>
    <g id="xtick_8">
     <g id="line2d_15">
      <g>
       <use xlink:href="#mbea4a14e2e" x="674.572321" y="309.6" style="stroke: #000000; stroke-width: 0.8"/>
      </g>
     </g>
     <g id="text_16">
      <!-- 0.06 -->
      <g transform="translate(663.439509 324.198437) scale(0.1 -0.1)">
       <use xlink:href="#DejaVuSans-30"/>
       <use xlink:href="#DejaVuSans-2e" x="63.623047"/>
       <use xlink:href="#DejaVuSans-30" x="95.410156"/>
       <use xlink:href="#DejaVuSans-36" x="159.033203"/>
      </g>
     </g>
    </g>
    <g id="xtick_9">
     <g id="line2d_16">
      <g>
       <use xlink:href="#mbea4a14e2e" x="750.663231" y="309.6" style="stroke: #000000; stroke-width: 0.8"/>
      </g>
     </g>
     <g id="text_17">
      <!-- 0.08 -->
      <g transform="translate(739.530418 324.198437) scale(0.1 -0.1)">
       <use xlink:href="#DejaVuSans-30"/>
       <use xlink:href="#DejaVuSans-2e" x="63.623047"/>
       <use xlink:href="#DejaVuSans-30" x="95.410156"/>
       <use xlink:href="#DejaVuSans-38" x="159.033203"/>
      </g>
     </g>
    </g>
    <g id="xtick_10">
     <g id="line2d_17">
      <g>
       <use xlink:href="#mbea4a14e2e" x="826.75414" y="309.6" style="stroke: #000000; stroke-width: 0.8"/>
      </g>
     </g>
     <g id="text_18">
      <!-- 0.10 -->
      <g transform="translate(815.621327 324.198437) scale(0.1 -0.1)">
       <use xlink:href="#DejaVuSans-30"/>
       <use xlink:href="#DejaVuSans-2e" x="63.623047"/>
       <use xlink:href="#DejaVuSans-31" x="95.410156"/>
       <use xlink:href="#DejaVuSans-30" x="159.033203"/>
      </g>
     </g>
    </g>
    <g id="text_19">
     <!-- Codon+Cost -->
     <g transform="translate(656.599442 337.876562) scale(0.1 -0.1)">
      <defs>
       <path id="DejaVuSans-2b" d="M 2944 4013 
L 2944 2272 
L 4684 2272 
L 4684 1741 
L 2944 1741 
L 2944 0 
L 2419 0 
L 2419 1741 
L 678 1741 
L 678 2272 
L 2419 2272 
L 2419 4013 
L 2944 4013 
z
" transform="scale(0.015625)"/>
       <path id="DejaVuSans-73" d="M 2834 3397 
L 2834 2853 
Q 2591 2978 2328 3040 
Q 2066 3103 1784 3103 
Q 1356 3103 1142 2972 
Q 928 2841 928 2578 
Q 928 2378 1081 2264 
Q 1234 2150 1697 2047 
L 1894 2003 
Q 2506 1872 2764 1633 
Q 3022 1394 3022 966 
Q 3022 478 2636 193 
Q 2250 -91 1575 -91 
Q 1294 -91 989 -36 
Q 684 19 347 128 
L 347 722 
Q 666 556 975 473 
Q 1284 391 1588 391 
Q 1994 391 2212 530 
Q 2431 669 2431 922 
Q 2431 1156 2273 1281 
Q 2116 1406 1581 1522 
L 1381 1569 
Q 847 1681 609 1914 
Q 372 2147 372 2553 
Q 372 3047 722 3315 
Q 1072 3584 1716 3584 
Q 2034 3584 2315 3537 
Q 2597 3491 2834 3397 
z
" transform="scale(0.015625)"/>
       <path id="DejaVuSans-74" d="M 1172 4494 
L 1172 3500 
L 2356 3500 
L 2356 3053 
L 1172 3053 
L 1172 1153 
Q 1172 725 1289 603 
Q 1406 481 1766 481 
L 2356 481 
L 2356 0 
L 1766 0 
Q 1100 0 847 248 
Q 594 497 594 1153 
L 594 3053 
L 172 3053 
L 172 3500 
L 594 3500 
L 594 4494 
L 1172 4494 
z
" transform="scale(0.015625)"/>
      </defs>
      <use xlink:href="#DejaVuSans-43"/>
      <use xlink:href="#DejaVuSans-6f" x="69.824219"/>
      <use xlink:href="#DejaVuSans-64" x="131.005859"/>
      <use xlink:href="#DejaVuSans-6f" x="194.482422"/>
      <use xlink:href="#DejaVuSans-6e" x="255.664062"/>
      <use xlink:href="#DejaVuSans-2b" x="319.042969"/>
      <use xlink:href="#DejaVuSans-43" x="402.832031"/>
      <use xlink:href="#DejaVuSans-6f" x="472.65625"/>
      <use xlink:href="#DejaVuSans-73" x="533.837891"/>
      <use xlink:href="#DejaVuSans-74" x="585.9375"/>
     </g>
    </g>
   </g>
   <g id="matplotlib.axis_4">
    <g id="ytick_7">
     <g id="line2d_18">
      <g>
       <use xlink:href="#m32ce768cba" x="488.572321" y="275.189793" style="stroke: #000000; stroke-width: 0.8"/>
      </g>
     </g>
     <g id="text_20">
      <!-- 0.02 -->
      <g transform="translate(459.306696 278.989012) scale(0.1 -0.1)">
       <use xlink:href="#DejaVuSans-30"/>
       <use xlink:href="#DejaVuSans-2e" x="63.623047"/>
       <use xlink:href="#DejaVuSans-30" x="95.410156"/>
       <use xlink:href="#DejaVuSans-32" x="159.033203"/>
      </g>
     </g>
    </g>
    <g id="ytick_8">
     <g id="line2d_19">
      <g>
       <use xlink:href="#m32ce768cba" x="488.572321" y="236.529634" style="stroke: #000000; stroke-width: 0.8"/>
      </g>
     </g>
     <g id="text_21">
      <!-- 0.04 -->
      <g transform="translate(459.306696 240.328853) scale(0.1 -0.1)">
       <use xlink:href="#DejaVuSans-30"/>
       <use xlink:href="#DejaVuSans-2e" x="63.623047"/>
       <use xlink:href="#DejaVuSans-30" x="95.410156"/>
       <use xlink:href="#DejaVuSans-34" x="159.033203"/>
      </g>
     </g>
    </g>
    <g id="ytick_9">
     <g id="line2d_20">
      <g>
       <use xlink:href="#m32ce768cba" x="488.572321" y="197.869475" style="stroke: #000000; stroke-width: 0.8"/>
      </g>
     </g>
     <g id="text_22">
      <!-- 0.06 -->
      <g transform="translate(459.306696 201.668694) scale(0.1 -0.1)">
       <use xlink:href="#DejaVuSans-30"/>
       <use xlink:href="#DejaVuSans-2e" x="63.623047"/>
       <use xlink:href="#DejaVuSans-30" x="95.410156"/>
       <use xlink:href="#DejaVuSans-36" x="159.033203"/>
      </g>
     </g>
    </g>
    <g id="ytick_10">
     <g id="line2d_21">
      <g>
       <use xlink:href="#m32ce768cba" x="488.572321" y="159.209317" style="stroke: #000000; stroke-width: 0.8"/>
      </g>
     </g>
     <g id="text_23">
      <!-- 0.08 -->
      <g transform="translate(459.306696 163.008535) scale(0.1 -0.1)">
       <use xlink:href="#DejaVuSans-30"/>
       <use xlink:href="#DejaVuSans-2e" x="63.623047"/>
       <use xlink:href="#DejaVuSans-30" x="95.410156"/>
       <use xlink:href="#DejaVuSans-38" x="159.033203"/>
      </g>
     </g>
    </g>
    <g id="ytick_11">
     <g id="line2d_22">
      <g>
       <use xlink:href="#m32ce768cba" x="488.572321" y="120.549158" style="stroke: #000000; stroke-width: 0.8"/>
      </g>
     </g>
     <g id="text_24">
      <!-- 0.10 -->
      <g transform="translate(459.306696 124.348376) scale(0.1 -0.1)">
       <use xlink:href="#DejaVuSans-30"/>
       <use xlink:href="#DejaVuSans-2e" x="63.623047"/>
       <use xlink:href="#DejaVuSans-31" x="95.410156"/>
       <use xlink:href="#DejaVuSans-30" x="159.033203"/>
      </g>
     </g>
    </g>
    <g id="ytick_12">
     <g id="line2d_23">
      <g>
       <use xlink:href="#m32ce768cba" x="488.572321" y="81.888999" style="stroke: #000000; stroke-width: 0.8"/>
      </g>
     </g>
     <g id="text_25">
      <!-- 0.12 -->
      <g transform="translate(459.306696 85.688218) scale(0.1 -0.1)">
       <use xlink:href="#DejaVuSans-30"/>
       <use xlink:href="#DejaVuSans-2e" x="63.623047"/>
       <use xlink:href="#DejaVuSans-31" x="95.410156"/>
       <use xlink:href="#DejaVuSans-32" x="159.033203"/>
      </g>
     </g>
    </g>
   </g>
   <g id="line2d_24">
    <path d="M 506.689205 256.673579 
L 510.349181 255.560851 
L 514.009157 254.448123 
L 517.669134 253.335395 
L 521.32911 252.222667 
L 524.989086 251.109939 
L 528.649063 249.997211 
L 532.309039 248.884483 
L 535.969016 247.771755 
L 539.628992 246.659027 
L 543.288968 245.546299 
L 546.948945 244.433571 
L 550.608921 243.320843 
L 554.268898 242.208115 
L 557.928874 241.095387 
L 561.58885 239.982659 
L 565.248827 238.869931 
L 568.908803 237.757203 
L 572.56878 236.644476 
L 576.228756 235.531748 
L 579.888732 234.41902 
L 583.548709 233.306292 
L 587.208685 232.193564 
L 590.868661 231.080836 
L 594.528638 229.968108 
L 598.188614 228.85538 
L 601.848591 227.742652 
L 605.508567 226.629924 
L 609.168543 225.517196 
L 612.82852 224.404468 
L 616.488496 223.29174 
L 620.148473 222.179012 
L 623.808449 221.066284 
L 627.468425 219.953556 
L 631.128402 218.840828 
L 634.788378 217.7281 
L 638.448354 216.615373 
L 642.108331 215.502645 
L 645.768307 214.389917 
L 649.428284 213.277189 
L 653.08826 212.164461 
L 656.748236 211.051733 
L 660.408213 209.939005 
L 664.068189 208.826277 
L 667.728166 207.713549 
L 671.388142 206.600821 
L 675.048118 205.488093 
L 678.708095 204.375365 
L 682.368071 203.262637 
L 686.028048 202.149909 
L 689.688024 201.037181 
L 693.348 199.924453 
L 697.007977 198.811725 
L 700.667953 197.698997 
L 704.327929 196.58627 
L 707.987906 195.473542 
L 711.647882 194.360814 
L 715.307859 193.248086 
L 718.967835 192.135358 
L 722.627811 191.02263 
L 726.287788 189.909902 
L 729.947764 188.797174 
L 733.607741 187.684446 
L 737.267717 186.571718 
L 740.927693 185.45899 
L 744.58767 184.346262 
L 748.247646 183.233534 
L 751.907622 182.120806 
L 755.567599 181.008078 
L 759.227575 179.89535 
L 762.887552 178.782622 
L 766.547528 177.669895 
L 770.207504 176.557167 
L 773.867481 175.444439 
L 777.527457 174.331711 
L 781.187434 173.218983 
L 784.84741 172.106255 
L 788.507386 170.993527 
L 792.167363 169.880799 
L 795.827339 168.768071 
L 799.487316 167.655343 
L 803.147292 166.542615 
L 806.807268 165.429887 
L 810.467245 164.317159 
L 814.127221 163.204431 
L 817.787197 162.091703 
L 821.447174 160.978975 
L 825.10715 159.866247 
L 828.767127 158.753519 
L 832.427103 157.640792 
L 836.087079 156.528064 
L 839.747056 155.415336 
L 843.407032 154.302608 
L 847.067009 153.18988 
L 850.726985 152.077152 
L 854.386961 150.964424 
L 858.046938 149.851696 
L 861.706914 148.738968 
L 865.36689 147.62624 
L 869.026867 146.513512 
" clip-path="url(#pc254201f42)" style="fill: none; stroke: #ffa500; stroke-width: 2.25; stroke-linecap: square"/>
   </g>
   <g id="patch_8">
    <path d="M 488.572321 309.6 
L 488.572321 57.6 
" style="fill: none; stroke: #000000; stroke-width: 0.8; stroke-linejoin: miter; stroke-linecap: square"/>
   </g>
   <g id="patch_9">
    <path d="M 887.14375 309.6 
L 887.14375 57.6 
" style="fill: none; stroke: #000000; stroke-width: 0.8; stroke-linejoin: miter; stroke-linecap: square"/>
   </g>
   <g id="patch_10">
    <path d="M 488.572321 309.6 
L 887.14375 309.6 
" style="fill: none; stroke: #000000; stroke-width: 0.8; stroke-linejoin: miter; stroke-linecap: square"/>
   </g>
   <g id="patch_11">
    <path d="M 488.572321 57.6 
L 887.14375 57.6 
" style="fill: none; stroke: #000000; stroke-width: 0.8; stroke-linejoin: miter; stroke-linecap: square"/>
   </g>
  </g>
  <g id="axes_3">
   <g id="patch_12">
    <path d="M 50.14375 612 
L 448.715179 612 
L 448.715179 360 
L 50.14375 360 
z
" style="fill: #ffffff"/>
   </g>
   <g id="PathCollection_3">
    <g clip-path="url(#pc83ebaf137)">
     <use xlink:href="#mad7b4d125a" x="68.260633" y="565.878211" style="fill: #1f77b4; fill-opacity: 0.8; stroke: #1f77b4; stroke-opacity: 0.8"/>
     <use xlink:href="#mad7b4d125a" x="127.877105" y="600.545455" style="fill: #1f77b4; fill-opacity: 0.8; stroke: #1f77b4; stroke-opacity: 0.8"/>
     <use xlink:href="#mad7b4d125a" x="127.877105" y="596.275002" style="fill: #1f77b4; fill-opacity: 0.8; stroke: #1f77b4; stroke-opacity: 0.8"/>
     <use xlink:href="#mad7b4d125a" x="127.877105" y="489.743507" style="fill: #1f77b4; fill-opacity: 0.8; stroke: #1f77b4; stroke-opacity: 0.8"/>
     <use xlink:href="#mad7b4d125a" x="127.877105" y="451.712459" style="fill: #1f77b4; fill-opacity: 0.8; stroke: #1f77b4; stroke-opacity: 0.8"/>
     <use xlink:href="#mad7b4d125a" x="143.043368" y="553.980711" style="fill: #1f77b4; fill-opacity: 0.8; stroke: #1f77b4; stroke-opacity: 0.8"/>
     <use xlink:href="#mad7b4d125a" x="127.877105" y="579.330742" style="fill: #1f77b4; fill-opacity: 0.8; stroke: #1f77b4; stroke-opacity: 0.8"/>
     <use xlink:href="#mad7b4d125a" x="202.65984" y="484.385557" style="fill: #1f77b4; fill-opacity: 0.8; stroke: #1f77b4; stroke-opacity: 0.8"/>
     <use xlink:href="#mad7b4d125a" x="143.043368" y="547.954457" style="fill: #1f77b4; fill-opacity: 0.8; stroke: #1f77b4; stroke-opacity: 0.8"/>
     <use xlink:href="#mad7b4d125a" x="127.877105" y="571.318699" style="fill: #1f77b4; fill-opacity: 0.8; stroke: #1f77b4; stroke-opacity: 0.8"/>
     <use xlink:href="#mad7b4d125a" x="217.826103" y="549.363947" style="fill: #1f77b4; fill-opacity: 0.8; stroke: #1f77b4; stroke-opacity: 0.8"/>
     <use xlink:href="#mad7b4d125a" x="217.826103" y="464.541696" style="fill: #1f77b4; fill-opacity: 0.8; stroke: #1f77b4; stroke-opacity: 0.8"/>
     <use xlink:href="#mad7b4d125a" x="264.196576" y="466.453343" style="fill: #1f77b4; fill-opacity: 0.8; stroke: #1f77b4; stroke-opacity: 0.8"/>
     <use xlink:href="#mad7b4d125a" x="264.196576" y="460.722326" style="fill: #1f77b4; fill-opacity: 0.8; stroke: #1f77b4; stroke-opacity: 0.8"/>
     <use xlink:href="#mad7b4d125a" x="264.196576" y="530.726001" style="fill: #1f77b4; fill-opacity: 0.8; stroke: #1f77b4; stroke-opacity: 0.8"/>
     <use xlink:href="#mad7b4d125a" x="248.656326" y="518.779005" style="fill: #1f77b4; fill-opacity: 0.8; stroke: #1f77b4; stroke-opacity: 0.8"/>
     <use xlink:href="#mad7b4d125a" x="248.656326" y="442.287989" style="fill: #1f77b4; fill-opacity: 0.8; stroke: #1f77b4; stroke-opacity: 0.8"/>
     <use xlink:href="#mad7b4d125a" x="384.60181" y="438.253324" style="fill: #1f77b4; fill-opacity: 0.8; stroke: #1f77b4; stroke-opacity: 0.8"/>
     <use xlink:href="#mad7b4d125a" x="264.196576" y="493.098533" style="fill: #1f77b4; fill-opacity: 0.8; stroke: #1f77b4; stroke-opacity: 0.8"/>
     <use xlink:href="#mad7b4d125a" x="430.598295" y="505.513307" style="fill: #1f77b4; fill-opacity: 0.8; stroke: #1f77b4; stroke-opacity: 0.8"/>
    </g>
   </g>
   <g id="PolyCollection_3">
    <path d="M 68.260633 521.013326 
L 68.260633 600.164676 
L 71.92061 598.086252 
L 75.580586 595.719263 
L 79.240562 593.352274 
L 82.900539 591.036576 
L 86.560515 588.993672 
L 90.220491 587.191388 
L 93.880468 585.388984 
L 97.540444 583.586581 
L 101.200421 581.396881 
L 104.860397 579.098182 
L 108.520373 576.905622 
L 112.18035 575.043732 
L 115.840326 573.260054 
L 119.500303 571.33429 
L 123.160279 569.370275 
L 126.820255 567.317359 
L 130.480232 565.267982 
L 134.140208 563.246762 
L 137.800184 561.089228 
L 141.460161 559.128489 
L 145.120137 557.318822 
L 148.780114 555.542248 
L 152.44009 554.189986 
L 156.100066 552.81689 
L 159.760043 550.982477 
L 163.420019 549.637965 
L 167.079996 547.845883 
L 170.739972 545.776508 
L 174.399948 544.319379 
L 178.059925 542.686562 
L 181.719901 541.561275 
L 185.379878 540.277477 
L 189.039854 538.951659 
L 192.69983 537.571899 
L 196.359807 536.359539 
L 200.019783 535.192236 
L 203.679759 534.010267 
L 207.339736 532.855946 
L 210.999712 531.696088 
L 214.659689 530.555929 
L 218.319665 529.374031 
L 221.979641 528.428277 
L 225.639618 527.527683 
L 229.299594 526.528524 
L 232.959571 525.525264 
L 236.619547 524.517039 
L 240.279523 523.257706 
L 243.9395 522.250274 
L 247.599476 521.310124 
L 251.259452 520.368585 
L 254.919429 519.366674 
L 258.579405 518.491561 
L 262.239382 517.557922 
L 265.899358 516.884913 
L 269.559334 515.679039 
L 273.219311 514.660073 
L 276.879287 513.800002 
L 280.539264 512.865813 
L 284.19924 511.927462 
L 287.859216 510.986249 
L 291.519193 510.045446 
L 295.179169 509.070509 
L 298.839146 508.292301 
L 302.499122 507.734263 
L 306.159098 507.068503 
L 309.819075 506.33619 
L 313.479051 505.431466 
L 317.139027 504.762837 
L 320.799004 503.927801 
L 324.45898 503.038429 
L 328.118957 502.220491 
L 331.778933 501.418106 
L 335.438909 500.561679 
L 339.098886 499.664365 
L 342.758862 498.908719 
L 346.418839 498.074987 
L 350.078815 497.458039 
L 353.738791 496.80832 
L 357.398768 496.358149 
L 361.058744 496.134314 
L 364.71872 495.503404 
L 368.378697 494.918943 
L 372.038673 494.602974 
L 375.69865 494.169285 
L 379.358626 493.729937 
L 383.018602 493.23299 
L 386.678579 492.889809 
L 390.338555 492.417178 
L 393.998532 491.836098 
L 397.658508 491.042919 
L 401.318484 490.422929 
L 404.978461 489.942826 
L 408.638437 489.428037 
L 412.298414 488.928211 
L 415.95839 488.349641 
L 419.618366 487.771071 
L 423.278343 487.188299 
L 426.938319 486.547557 
L 430.598295 485.703042 
L 430.598295 371.454545 
L 430.598295 371.454545 
L 426.938319 373.528641 
L 423.278343 375.602736 
L 419.618366 377.676831 
L 415.95839 379.750926 
L 412.298414 381.944636 
L 408.638437 384.150817 
L 404.978461 386.358849 
L 401.318484 388.570136 
L 397.658508 390.781422 
L 393.998532 392.992708 
L 390.338555 395.131709 
L 386.678579 397.395983 
L 383.018602 399.600629 
L 379.358626 401.813009 
L 375.69865 404.026781 
L 372.038673 406.240554 
L 368.378697 408.454326 
L 364.71872 410.668099 
L 361.058744 412.881872 
L 357.398768 415.209889 
L 353.738791 417.580054 
L 350.078815 419.95022 
L 346.418839 422.320385 
L 342.758862 424.689949 
L 339.098886 426.963157 
L 335.438909 429.239032 
L 331.778933 431.517899 
L 328.118957 433.690378 
L 324.45898 435.776497 
L 320.799004 438.192788 
L 317.139027 440.54893 
L 313.479051 442.543606 
L 309.819075 444.967276 
L 306.159098 447.394295 
L 302.499122 449.701556 
L 298.839146 451.865211 
L 295.179169 453.718333 
L 291.519193 455.899269 
L 287.859216 457.82673 
L 284.19924 459.558905 
L 280.539264 461.448232 
L 276.879287 463.254533 
L 273.219311 465.426246 
L 269.559334 467.532044 
L 265.899358 469.437029 
L 262.239382 471.087267 
L 258.579405 473.015119 
L 254.919429 474.74127 
L 251.259452 476.50593 
L 247.599476 478.803437 
L 243.9395 480.832218 
L 240.279523 482.239395 
L 236.619547 483.714249 
L 232.959571 485.067816 
L 229.299594 486.803612 
L 225.639618 488.460627 
L 221.979641 489.808536 
L 218.319665 491.381573 
L 214.659689 492.360135 
L 210.999712 493.31162 
L 207.339736 494.312593 
L 203.679759 495.311157 
L 200.019783 496.309643 
L 196.359807 497.036797 
L 192.69983 498.616618 
L 189.039854 499.656428 
L 185.379878 500.701726 
L 181.719901 501.821922 
L 178.059925 502.707422 
L 174.399948 503.620606 
L 170.739972 504.310487 
L 167.079996 505.052834 
L 163.420019 506.075402 
L 159.760043 506.734286 
L 156.100066 507.142095 
L 152.44009 507.68494 
L 148.780114 508.492098 
L 145.120137 509.314881 
L 141.460161 510.041811 
L 137.800184 510.400117 
L 134.140208 510.669067 
L 130.480232 511.367604 
L 126.820255 512.279887 
L 123.160279 512.694868 
L 119.500303 513.357326 
L 115.840326 514.303268 
L 112.18035 514.984288 
L 108.520373 515.450321 
L 104.860397 515.916354 
L 101.200421 516.679881 
L 97.540444 517.491698 
L 93.880468 517.995697 
L 90.220491 518.375624 
L 86.560515 518.755551 
L 82.900539 519.141575 
L 79.240562 519.741436 
L 75.580586 520.163538 
L 71.92061 520.58564 
L 68.260633 521.013326 
z
" clip-path="url(#pc83ebaf137)" style="fill: #ffa500; fill-opacity: 0.15"/>
   </g>
   <g id="matplotlib.axis_5">
    <g id="xtick_11">
     <g id="line2d_25">
      <g>
       <use xlink:href="#mbea4a14e2e" x="88.066408" y="612" style="stroke: #000000; stroke-width: 0.8"/>
      </g>
     </g>
     <g id="text_26">
      <!-- 0.02 -->
      <g transform="translate(76.933595 626.598437) scale(0.1 -0.1)">
       <use xlink:href="#DejaVuSans-30"/>
       <use xlink:href="#DejaVuSans-2e" x="63.623047"/>
       <use xlink:href="#DejaVuSans-30" x="95.410156"/>
       <use xlink:href="#DejaVuSans-32" x="159.033203"/>
      </g>
     </g>
    </g>
    <g id="xtick_12">
     <g id="line2d_26">
      <g>
       <use xlink:href="#mbea4a14e2e" x="169.034931" y="612" style="stroke: #000000; stroke-width: 0.8"/>
      </g>
     </g>
     <g id="text_27">
      <!-- 0.04 -->
      <g transform="translate(157.902118 626.598437) scale(0.1 -0.1)">
       <use xlink:href="#DejaVuSans-30"/>
       <use xlink:href="#DejaVuSans-2e" x="63.623047"/>
       <use xlink:href="#DejaVuSans-30" x="95.410156"/>
       <use xlink:href="#DejaVuSans-34" x="159.033203"/>
      </g>
     </g>
    </g>
    <g id="xtick_13">
     <g id="line2d_27">
      <g>
       <use xlink:href="#mbea4a14e2e" x="250.003454" y="612" style="stroke: #000000; stroke-width: 0.8"/>
      </g>
     </g>
     <g id="text_28">
      <!-- 0.06 -->
      <g transform="translate(238.870642 626.598437) scale(0.1 -0.1)">
       <use xlink:href="#DejaVuSans-30"/>
       <use xlink:href="#DejaVuSans-2e" x="63.623047"/>
       <use xlink:href="#DejaVuSans-30" x="95.410156"/>
       <use xlink:href="#DejaVuSans-36" x="159.033203"/>
      </g>
     </g>
    </g>
    <g id="xtick_14">
     <g id="line2d_28">
      <g>
       <use xlink:href="#mbea4a14e2e" x="330.971978" y="612" style="stroke: #000000; stroke-width: 0.8"/>
      </g>
     </g>
     <g id="text_29">
      <!-- 0.08 -->
      <g transform="translate(319.839165 626.598437) scale(0.1 -0.1)">
       <use xlink:href="#DejaVuSans-30"/>
       <use xlink:href="#DejaVuSans-2e" x="63.623047"/>
       <use xlink:href="#DejaVuSans-30" x="95.410156"/>
       <use xlink:href="#DejaVuSans-38" x="159.033203"/>
      </g>
     </g>
    </g>
    <g id="xtick_15">
     <g id="line2d_29">
      <g>
       <use xlink:href="#mbea4a14e2e" x="411.940501" y="612" style="stroke: #000000; stroke-width: 0.8"/>
      </g>
     </g>
     <g id="text_30">
      <!-- 0.10 -->
      <g transform="translate(400.807689 626.598437) scale(0.1 -0.1)">
       <use xlink:href="#DejaVuSans-30"/>
       <use xlink:href="#DejaVuSans-2e" x="63.623047"/>
       <use xlink:href="#DejaVuSans-31" x="95.410156"/>
       <use xlink:href="#DejaVuSans-30" x="159.033203"/>
      </g>
     </g>
    </g>
    <g id="text_31">
     <!-- Codon+GC -->
     <g transform="translate(221.920871 640.276562) scale(0.1 -0.1)">
      <defs>
       <path id="DejaVuSans-47" d="M 3809 666 
L 3809 1919 
L 2778 1919 
L 2778 2438 
L 4434 2438 
L 4434 434 
Q 4069 175 3628 42 
Q 3188 -91 2688 -91 
Q 1594 -91 976 548 
Q 359 1188 359 2328 
Q 359 3472 976 4111 
Q 1594 4750 2688 4750 
Q 3144 4750 3555 4637 
Q 3966 4525 4313 4306 
L 4313 3634 
Q 3963 3931 3569 4081 
Q 3175 4231 2741 4231 
Q 1884 4231 1454 3753 
Q 1025 3275 1025 2328 
Q 1025 1384 1454 906 
Q 1884 428 2741 428 
Q 3075 428 3337 486 
Q 3600 544 3809 666 
z
" transform="scale(0.015625)"/>
      </defs>
      <use xlink:href="#DejaVuSans-43"/>
      <use xlink:href="#DejaVuSans-6f" x="69.824219"/>
      <use xlink:href="#DejaVuSans-64" x="131.005859"/>
      <use xlink:href="#DejaVuSans-6f" x="194.482422"/>
      <use xlink:href="#DejaVuSans-6e" x="255.664062"/>
      <use xlink:href="#DejaVuSans-2b" x="319.042969"/>
      <use xlink:href="#DejaVuSans-47" x="402.832031"/>
      <use xlink:href="#DejaVuSans-43" x="480.322266"/>
     </g>
    </g>
   </g>
   <g id="matplotlib.axis_6">
    <g id="ytick_13">
     <g id="line2d_30">
      <g>
       <use xlink:href="#m32ce768cba" x="50.14375" y="576.439444" style="stroke: #000000; stroke-width: 0.8"/>
      </g>
     </g>
     <g id="text_32">
      <!-- 0.02 -->
      <g transform="translate(20.878125 580.238663) scale(0.1 -0.1)">
       <use xlink:href="#DejaVuSans-30"/>
       <use xlink:href="#DejaVuSans-2e" x="63.623047"/>
       <use xlink:href="#DejaVuSans-30" x="95.410156"/>
       <use xlink:href="#DejaVuSans-32" x="159.033203"/>
      </g>
     </g>
    </g>
    <g id="ytick_14">
     <g id="line2d_31">
      <g>
       <use xlink:href="#m32ce768cba" x="50.14375" y="535.841957" style="stroke: #000000; stroke-width: 0.8"/>
      </g>
     </g>
     <g id="text_33">
      <!-- 0.04 -->
      <g transform="translate(20.878125 539.641176) scale(0.1 -0.1)">
       <use xlink:href="#DejaVuSans-30"/>
       <use xlink:href="#DejaVuSans-2e" x="63.623047"/>
       <use xlink:href="#DejaVuSans-30" x="95.410156"/>
       <use xlink:href="#DejaVuSans-34" x="159.033203"/>
      </g>
     </g>
    </g>
    <g id="ytick_15">
     <g id="line2d_32">
      <g>
       <use xlink:href="#m32ce768cba" x="50.14375" y="495.24447" style="stroke: #000000; stroke-width: 0.8"/>
      </g>
     </g>
     <g id="text_34">
      <!-- 0.06 -->
      <g transform="translate(20.878125 499.043689) scale(0.1 -0.1)">
       <use xlink:href="#DejaVuSans-30"/>
       <use xlink:href="#DejaVuSans-2e" x="63.623047"/>
       <use xlink:href="#DejaVuSans-30" x="95.410156"/>
       <use xlink:href="#DejaVuSans-36" x="159.033203"/>
      </g>
     </g>
    </g>
    <g id="ytick_16">
     <g id="line2d_33">
      <g>
       <use xlink:href="#m32ce768cba" x="50.14375" y="454.646983" style="stroke: #000000; stroke-width: 0.8"/>
      </g>
     </g>
     <g id="text_35">
      <!-- 0.08 -->
      <g transform="translate(20.878125 458.446202) scale(0.1 -0.1)">
       <use xlink:href="#DejaVuSans-30"/>
       <use xlink:href="#DejaVuSans-2e" x="63.623047"/>
       <use xlink:href="#DejaVuSans-30" x="95.410156"/>
       <use xlink:href="#DejaVuSans-38" x="159.033203"/>
      </g>
     </g>
    </g>
    <g id="ytick_17">
     <g id="line2d_34">
      <g>
       <use xlink:href="#m32ce768cba" x="50.14375" y="414.049496" style="stroke: #000000; stroke-width: 0.8"/>
      </g>
     </g>
     <g id="text_36">
      <!-- 0.10 -->
      <g transform="translate(20.878125 417.848714) scale(0.1 -0.1)">
       <use xlink:href="#DejaVuSans-30"/>
       <use xlink:href="#DejaVuSans-2e" x="63.623047"/>
       <use xlink:href="#DejaVuSans-31" x="95.410156"/>
       <use xlink:href="#DejaVuSans-30" x="159.033203"/>
      </g>
     </g>
    </g>
    <g id="ytick_18">
     <g id="line2d_35">
      <g>
       <use xlink:href="#m32ce768cba" x="50.14375" y="373.452008" style="stroke: #000000; stroke-width: 0.8"/>
      </g>
     </g>
     <g id="text_37">
      <!-- 0.12 -->
      <g transform="translate(20.878125 377.251227) scale(0.1 -0.1)">
       <use xlink:href="#DejaVuSans-30"/>
       <use xlink:href="#DejaVuSans-2e" x="63.623047"/>
       <use xlink:href="#DejaVuSans-31" x="95.410156"/>
       <use xlink:href="#DejaVuSans-32" x="159.033203"/>
      </g>
     </g>
    </g>
    <g id="text_38">
     <!-- Amino acid frequency -->
     <g transform="translate(14.798438 540.539062) rotate(-90) scale(0.1 -0.1)">
      <use xlink:href="#DejaVuSans-41"/>
      <use xlink:href="#DejaVuSans-6d" x="68.408203"/>
      <use xlink:href="#DejaVuSans-69" x="165.820312"/>
      <use xlink:href="#DejaVuSans-6e" x="193.603516"/>
      <use xlink:href="#DejaVuSans-6f" x="256.982422"/>
      <use xlink:href="#DejaVuSans-20" x="318.164062"/>
      <use xlink:href="#DejaVuSans-61" x="349.951172"/>
      <use xlink:href="#DejaVuSans-63" x="411.230469"/>
      <use xlink:href="#DejaVuSans-69" x="466.210938"/>
      <use xlink:href="#DejaVuSans-64" x="493.994141"/>
      <use xlink:href="#DejaVuSans-20" x="557.470703"/>
      <use xlink:href="#DejaVuSans-66" x="589.257812"/>
      <use xlink:href="#DejaVuSans-72" x="624.462891"/>
      <use xlink:href="#DejaVuSans-65" x="663.326172"/>
      <use xlink:href="#DejaVuSans-71" x="724.849609"/>
      <use xlink:href="#DejaVuSans-75" x="788.326172"/>
      <use xlink:href="#DejaVuSans-65" x="851.705078"/>
      <use xlink:href="#DejaVuSans-6e" x="913.228516"/>
      <use xlink:href="#DejaVuSans-63" x="976.607422"/>
      <use xlink:href="#DejaVuSans-79" x="1031.587891"/>
     </g>
    </g>
   </g>
   <g id="line2d_36">
    <path d="M 68.260633 559.78858 
L 71.92061 558.616825 
L 75.580586 557.44507 
L 79.240562 556.273316 
L 82.900539 555.101561 
L 86.560515 553.929806 
L 90.220491 552.758051 
L 93.880468 551.586297 
L 97.540444 550.414542 
L 101.200421 549.242787 
L 104.860397 548.071033 
L 108.520373 546.899278 
L 112.18035 545.727523 
L 115.840326 544.555769 
L 119.500303 543.384014 
L 123.160279 542.212259 
L 126.820255 541.040504 
L 130.480232 539.86875 
L 134.140208 538.696995 
L 137.800184 537.52524 
L 141.460161 536.353486 
L 145.120137 535.181731 
L 148.780114 534.009976 
L 152.44009 532.838221 
L 156.100066 531.666467 
L 159.760043 530.494712 
L 163.420019 529.322957 
L 167.079996 528.151203 
L 170.739972 526.979448 
L 174.399948 525.807693 
L 178.059925 524.635939 
L 181.719901 523.464184 
L 185.379878 522.292429 
L 189.039854 521.120674 
L 192.69983 519.94892 
L 196.359807 518.777165 
L 200.019783 517.60541 
L 203.679759 516.433656 
L 207.339736 515.261901 
L 210.999712 514.090146 
L 214.659689 512.918391 
L 218.319665 511.746637 
L 221.979641 510.574882 
L 225.639618 509.403127 
L 229.299594 508.231373 
L 232.959571 507.059618 
L 236.619547 505.887863 
L 240.279523 504.716108 
L 243.9395 503.544354 
L 247.599476 502.372599 
L 251.259452 501.200844 
L 254.919429 500.02909 
L 258.579405 498.857335 
L 262.239382 497.68558 
L 265.899358 496.513826 
L 269.559334 495.342071 
L 273.219311 494.170316 
L 276.879287 492.998561 
L 280.539264 491.826807 
L 284.19924 490.655052 
L 287.859216 489.483297 
L 291.519193 488.311543 
L 295.179169 487.139788 
L 298.839146 485.968033 
L 302.499122 484.796278 
L 306.159098 483.624524 
L 309.819075 482.452769 
L 313.479051 481.281014 
L 317.139027 480.10926 
L 320.799004 478.937505 
L 324.45898 477.76575 
L 328.118957 476.593996 
L 331.778933 475.422241 
L 335.438909 474.250486 
L 339.098886 473.078731 
L 342.758862 471.906977 
L 346.418839 470.735222 
L 350.078815 469.563467 
L 353.738791 468.391713 
L 357.398768 467.219958 
L 361.058744 466.048203 
L 364.71872 464.876448 
L 368.378697 463.704694 
L 372.038673 462.532939 
L 375.69865 461.361184 
L 379.358626 460.18943 
L 383.018602 459.017675 
L 386.678579 457.84592 
L 390.338555 456.674165 
L 393.998532 455.502411 
L 397.658508 454.330656 
L 401.318484 453.158901 
L 404.978461 451.987147 
L 408.638437 450.815392 
L 412.298414 449.643637 
L 415.95839 448.471883 
L 419.618366 447.300128 
L 423.278343 446.128373 
L 426.938319 444.956618 
L 430.598295 443.784864 
" clip-path="url(#pc83ebaf137)" style="fill: none; stroke: #ffa500; stroke-width: 2.25; stroke-linecap: square"/>
   </g>
   <g id="patch_13">
    <path d="M 50.14375 612 
L 50.14375 360 
" style="fill: none; stroke: #000000; stroke-width: 0.8; stroke-linejoin: miter; stroke-linecap: square"/>
   </g>
   <g id="patch_14">
    <path d="M 448.715179 612 
L 448.715179 360 
" style="fill: none; stroke: #000000; stroke-width: 0.8; stroke-linejoin: miter; stroke-linecap: square"/>
   </g>
   <g id="patch_15">
    <path d="M 50.14375 612 
L 448.715179 612 
" style="fill: none; stroke: #000000; stroke-width: 0.8; stroke-linejoin: miter; stroke-linecap: square"/>
   </g>
   <g id="patch_16">
    <path d="M 50.14375 360 
L 448.715179 360 
" style="fill: none; stroke: #000000; stroke-width: 0.8; stroke-linejoin: miter; stroke-linecap: square"/>
   </g>
  </g>
  <g id="axes_4">
   <g id="patch_17">
    <path d="M 488.572321 612 
L 887.14375 612 
L 887.14375 360 
L 488.572321 360 
z
" style="fill: #ffffff"/>
   </g>
   <g id="PathCollection_4">
    <g clip-path="url(#pf56f448052)">
     <use xlink:href="#mad7b4d125a" x="506.689205" y="564.153243" style="fill: #1f77b4; fill-opacity: 0.8; stroke: #1f77b4; stroke-opacity: 0.8"/>
     <use xlink:href="#mad7b4d125a" x="566.269209" y="599.543384" style="fill: #1f77b4; fill-opacity: 0.8; stroke: #1f77b4; stroke-opacity: 0.8"/>
     <use xlink:href="#mad7b4d125a" x="566.269209" y="595.183881" style="fill: #1f77b4; fill-opacity: 0.8; stroke: #1f77b4; stroke-opacity: 0.8"/>
     <use xlink:href="#mad7b4d125a" x="566.269209" y="486.430944" style="fill: #1f77b4; fill-opacity: 0.8; stroke: #1f77b4; stroke-opacity: 0.8"/>
     <use xlink:href="#mad7b4d125a" x="566.269209" y="447.606855" style="fill: #1f77b4; fill-opacity: 0.8; stroke: #1f77b4; stroke-opacity: 0.8"/>
     <use xlink:href="#mad7b4d125a" x="581.593322" y="552.007651" style="fill: #1f77b4; fill-opacity: 0.8; stroke: #1f77b4; stroke-opacity: 0.8"/>
     <use xlink:href="#mad7b4d125a" x="566.269209" y="577.886293" style="fill: #1f77b4; fill-opacity: 0.8; stroke: #1f77b4; stroke-opacity: 0.8"/>
     <use xlink:href="#mad7b4d125a" x="641.173327" y="480.961267" style="fill: #1f77b4; fill-opacity: 0.8; stroke: #1f77b4; stroke-opacity: 0.8"/>
     <use xlink:href="#mad7b4d125a" x="581.593322" y="545.855735" style="fill: #1f77b4; fill-opacity: 0.8; stroke: #1f77b4; stroke-opacity: 0.8"/>
     <use xlink:href="#mad7b4d125a" x="566.269209" y="569.707179" style="fill: #1f77b4; fill-opacity: 0.8; stroke: #1f77b4; stroke-opacity: 0.8"/>
     <use xlink:href="#mad7b4d125a" x="656.49744" y="547.294616" style="fill: #1f77b4; fill-opacity: 0.8; stroke: #1f77b4; stroke-opacity: 0.8"/>
     <use xlink:href="#mad7b4d125a" x="656.49744" y="460.703613" style="fill: #1f77b4; fill-opacity: 0.8; stroke: #1f77b4; stroke-opacity: 0.8"/>
     <use xlink:href="#mad7b4d125a" x="702.26942" y="462.655122" style="fill: #1f77b4; fill-opacity: 0.8; stroke: #1f77b4; stroke-opacity: 0.8"/>
     <use xlink:href="#mad7b4d125a" x="702.26942" y="456.8046" style="fill: #1f77b4; fill-opacity: 0.8; stroke: #1f77b4; stroke-opacity: 0.8"/>
     <use xlink:href="#mad7b4d125a" x="702.26942" y="528.268023" style="fill: #1f77b4; fill-opacity: 0.8; stroke: #1f77b4; stroke-opacity: 0.8"/>
     <use xlink:href="#mad7b4d125a" x="687.04843" y="516.071903" style="fill: #1f77b4; fill-opacity: 0.8; stroke: #1f77b4; stroke-opacity: 0.8"/>
     <use xlink:href="#mad7b4d125a" x="687.04843" y="437.985862" style="fill: #1f77b4; fill-opacity: 0.8; stroke: #1f77b4; stroke-opacity: 0.8"/>
     <use xlink:href="#mad7b4d125a" x="823.151764" y="433.867064" style="fill: #1f77b4; fill-opacity: 0.8; stroke: #1f77b4; stroke-opacity: 0.8"/>
     <use xlink:href="#mad7b4d125a" x="702.26942" y="489.85593" style="fill: #1f77b4; fill-opacity: 0.8; stroke: #1f77b4; stroke-opacity: 0.8"/>
     <use xlink:href="#mad7b4d125a" x="869.026867" y="502.529582" style="fill: #1f77b4; fill-opacity: 0.8; stroke: #1f77b4; stroke-opacity: 0.8"/>
    </g>
   </g>
   <g id="PolyCollection_4">
    <path d="M 506.689205 520.016814 
L 506.689205 600.545455 
L 510.349181 598.268643 
L 514.009157 596.246103 
L 517.669134 594.232397 
L 521.32911 592.212714 
L 524.989086 589.986799 
L 528.649063 587.592304 
L 532.309039 585.088045 
L 535.969016 582.740034 
L 539.628992 580.798681 
L 543.288968 578.986287 
L 546.948945 577.15965 
L 550.608921 575.307359 
L 554.268898 573.254585 
L 557.928874 570.664175 
L 561.58885 568.17429 
L 565.248827 566.428867 
L 568.908803 564.400117 
L 572.56878 562.923545 
L 576.228756 561.155024 
L 579.888732 559.384464 
L 583.548709 557.713028 
L 587.208685 555.967133 
L 590.868661 554.225131 
L 594.528638 552.315733 
L 598.188614 550.46365 
L 601.848591 548.712351 
L 605.508567 546.459042 
L 609.168543 544.775643 
L 612.82852 543.570898 
L 616.488496 542.0367 
L 620.148473 540.496898 
L 623.808449 539.083114 
L 627.468425 537.503665 
L 631.128402 536.007909 
L 634.788378 534.455976 
L 638.448354 533.086408 
L 642.108331 531.724998 
L 645.768307 530.56927 
L 649.428284 529.421454 
L 653.08826 528.274232 
L 656.748236 526.941297 
L 660.408213 525.747445 
L 664.068189 524.823068 
L 667.728166 523.672821 
L 671.388142 522.531815 
L 675.048118 521.285505 
L 678.708095 519.925952 
L 682.368071 518.940264 
L 686.028048 517.649994 
L 689.688024 516.709493 
L 693.348 515.621591 
L 697.007977 514.72565 
L 700.667953 513.894758 
L 704.327929 513.031628 
L 707.987906 512.065992 
L 711.647882 511.276407 
L 715.307859 510.413617 
L 718.967835 509.664646 
L 722.627811 508.708499 
L 726.287788 507.858354 
L 729.947764 506.848499 
L 733.607741 506.006418 
L 737.267717 505.061812 
L 740.927693 504.330294 
L 744.58767 503.525853 
L 748.247646 502.701477 
L 751.907622 501.879108 
L 755.567599 501.0497 
L 759.227575 500.436909 
L 762.887552 499.76216 
L 766.547528 499.048657 
L 770.207504 498.369966 
L 773.867481 497.771492 
L 777.527457 497.085159 
L 781.187434 496.488507 
L 784.84741 495.836439 
L 788.507386 495.317676 
L 792.167363 494.777255 
L 795.827339 494.289377 
L 799.487316 493.778903 
L 803.147292 493.26843 
L 806.807268 492.757957 
L 810.467245 492.247483 
L 814.127221 491.735973 
L 817.787197 491.218988 
L 821.447174 490.699493 
L 825.10715 490.177323 
L 828.767127 489.43137 
L 832.427103 488.948634 
L 836.087079 488.394768 
L 839.747056 487.873808 
L 843.407032 487.307681 
L 847.067009 486.830532 
L 850.726985 486.324878 
L 854.386961 485.744611 
L 858.046938 484.872635 
L 861.706914 484.112006 
L 865.36689 483.472871 
L 869.026867 482.833735 
L 869.026867 371.454545 
L 869.026867 371.454545 
L 865.36689 373.797424 
L 861.706914 376.035936 
L 858.046938 378.216542 
L 854.386961 380.36379 
L 850.726985 382.47196 
L 847.067009 384.582467 
L 843.407032 386.693241 
L 839.747056 388.804016 
L 836.087079 390.91479 
L 832.427103 393.025565 
L 828.767127 395.214234 
L 825.10715 397.462586 
L 821.447174 399.710938 
L 817.787197 401.95929 
L 814.127221 403.937275 
L 810.467245 405.895171 
L 806.807268 407.853067 
L 803.147292 409.882486 
L 799.487316 411.986342 
L 795.827339 414.094512 
L 792.167363 416.202682 
L 788.507386 418.522491 
L 784.84741 421.088584 
L 781.187434 423.281877 
L 777.527457 425.342729 
L 773.867481 427.40368 
L 770.207504 429.45134 
L 766.547528 431.373858 
L 762.887552 433.296376 
L 759.227575 435.405138 
L 755.567599 437.553206 
L 751.907622 439.697601 
L 748.247646 441.821299 
L 744.58767 443.762468 
L 740.927693 445.705526 
L 737.267717 447.71581 
L 733.607741 449.860878 
L 729.947764 451.977289 
L 726.287788 453.600505 
L 722.627811 455.289814 
L 718.967835 457.828961 
L 715.307859 459.987464 
L 711.647882 461.725055 
L 707.987906 464.184677 
L 704.327929 466.298141 
L 700.667953 468.57776 
L 697.007977 470.441655 
L 693.348 471.753909 
L 689.688024 473.637441 
L 686.028048 475.45006 
L 682.368071 477.110113 
L 678.708095 478.699412 
L 675.048118 480.513809 
L 671.388142 483.155067 
L 667.728166 484.976923 
L 664.068189 486.121438 
L 660.408213 487.283071 
L 656.748236 488.485305 
L 653.08826 489.779219 
L 649.428284 490.741365 
L 645.768307 491.521542 
L 642.108331 493.014931 
L 638.448354 494.229648 
L 634.788378 495.164008 
L 631.128402 495.99577 
L 627.468425 496.852867 
L 623.808449 497.817989 
L 620.148473 498.654758 
L 616.488496 499.67721 
L 612.82852 500.584405 
L 609.168543 501.592376 
L 605.508567 502.607884 
L 601.848591 503.449969 
L 598.188614 504.094809 
L 594.528638 504.710393 
L 590.868661 505.279715 
L 587.208685 505.85357 
L 583.548709 506.449287 
L 579.888732 507.287152 
L 576.228756 507.983505 
L 572.56878 508.775015 
L 568.908803 509.812133 
L 565.248827 510.726447 
L 561.58885 511.51451 
L 557.928874 512.004293 
L 554.268898 512.801073 
L 550.608921 513.43721 
L 546.948945 513.827165 
L 543.288968 514.222809 
L 539.628992 514.618453 
L 535.969016 515.014097 
L 532.309039 515.560966 
L 528.649063 516.248596 
L 524.989086 517.15551 
L 521.32911 517.736375 
L 517.669134 518.271837 
L 514.009157 518.807299 
L 510.349181 519.382902 
L 506.689205 520.016814 
z
" clip-path="url(#pf56f448052)" style="fill: #ffa500; fill-opacity: 0.15"/>
   </g>
   <g id="matplotlib.axis_7">
    <g id="xtick_16">
     <g id="line2d_37">
      <g>
       <use xlink:href="#mbea4a14e2e" x="525.234243" y="612" style="stroke: #000000; stroke-width: 0.8"/>
      </g>
     </g>
     <g id="text_39">
      <!-- 0.02 -->
      <g transform="translate(514.10143 626.598437) scale(0.1 -0.1)">
       <use xlink:href="#DejaVuSans-30"/>
       <use xlink:href="#DejaVuSans-2e" x="63.623047"/>
       <use xlink:href="#DejaVuSans-30" x="95.410156"/>
       <use xlink:href="#DejaVuSans-32" x="159.033203"/>
      </g>
     </g>
    </g>
    <g id="xtick_17">
     <g id="line2d_38">
      <g>
       <use xlink:href="#mbea4a14e2e" x="604.978497" y="612" style="stroke: #000000; stroke-width: 0.8"/>
      </g>
     </g>
     <g id="text_40">
      <!-- 0.04 -->
      <g transform="translate(593.845684 626.598437) scale(0.1 -0.1)">
       <use xlink:href="#DejaVuSans-30"/>
       <use xlink:href="#DejaVuSans-2e" x="63.623047"/>
       <use xlink:href="#DejaVuSans-30" x="95.410156"/>
       <use xlink:href="#DejaVuSans-34" x="159.033203"/>
      </g>
     </g>
    </g>
    <g id="xtick_18">
     <g id="line2d_39">
      <g>
       <use xlink:href="#mbea4a14e2e" x="684.722751" y="612" style="stroke: #000000; stroke-width: 0.8"/>
      </g>
     </g>
     <g id="text_41">
      <!-- 0.06 -->
      <g transform="translate(673.589939 626.598437) scale(0.1 -0.1)">
       <use xlink:href="#DejaVuSans-30"/>
       <use xlink:href="#DejaVuSans-2e" x="63.623047"/>
       <use xlink:href="#DejaVuSans-30" x="95.410156"/>
       <use xlink:href="#DejaVuSans-36" x="159.033203"/>
      </g>
     </g>
    </g>
    <g id="xtick_19">
     <g id="line2d_40">
      <g>
       <use xlink:href="#mbea4a14e2e" x="764.467005" y="612" style="stroke: #000000; stroke-width: 0.8"/>
      </g>
     </g>
     <g id="text_42">
      <!-- 0.08 -->
      <g transform="translate(753.334193 626.598437) scale(0.1 -0.1)">
       <use xlink:href="#DejaVuSans-30"/>
       <use xlink:href="#DejaVuSans-2e" x="63.623047"/>
       <use xlink:href="#DejaVuSans-30" x="95.410156"/>
       <use xlink:href="#DejaVuSans-38" x="159.033203"/>
      </g>
     </g>
    </g>
    <g id="xtick_20">
     <g id="line2d_41">
      <g>
       <use xlink:href="#mbea4a14e2e" x="844.21126" y="612" style="stroke: #000000; stroke-width: 0.8"/>
      </g>
     </g>
     <g id="text_43">
      <!-- 0.10 -->
      <g transform="translate(833.078447 626.598437) scale(0.1 -0.1)">
       <use xlink:href="#DejaVuSans-30"/>
       <use xlink:href="#DejaVuSans-2e" x="63.623047"/>
       <use xlink:href="#DejaVuSans-31" x="95.410156"/>
       <use xlink:href="#DejaVuSans-30" x="159.033203"/>
      </g>
     </g>
    </g>
    <g id="text_44">
     <!-- Codon+GC+Cost -->
     <g transform="translate(645.043973 640.276562) scale(0.1 -0.1)">
      <use xlink:href="#DejaVuSans-43"/>
      <use xlink:href="#DejaVuSans-6f" x="69.824219"/>
      <use xlink:href="#DejaVuSans-64" x="131.005859"/>
      <use xlink:href="#DejaVuSans-6f" x="194.482422"/>
      <use xlink:href="#DejaVuSans-6e" x="255.664062"/>
      <use xlink:href="#DejaVuSans-2b" x="319.042969"/>
      <use xlink:href="#DejaVuSans-47" x="402.832031"/>
      <use xlink:href="#DejaVuSans-43" x="480.322266"/>
      <use xlink:href="#DejaVuSans-2b" x="550.146484"/>
      <use xlink:href="#DejaVuSans-43" x="633.935547"/>
      <use xlink:href="#DejaVuSans-6f" x="703.759766"/>
      <use xlink:href="#DejaVuSans-73" x="764.941406"/>
      <use xlink:href="#DejaVuSans-74" x="817.041016"/>
     </g>
    </g>
   </g>
   <g id="matplotlib.axis_8">
    <g id="ytick_19">
     <g id="line2d_42">
      <g>
       <use xlink:href="#m32ce768cba" x="488.572321" y="574.934704" style="stroke: #000000; stroke-width: 0.8"/>
      </g>
     </g>
     <g id="text_45">
      <!-- 0.02 -->
      <g transform="translate(459.306696 578.733923) scale(0.1 -0.1)">
       <use xlink:href="#DejaVuSans-30"/>
       <use xlink:href="#DejaVuSans-2e" x="63.623047"/>
       <use xlink:href="#DejaVuSans-30" x="95.410156"/>
       <use xlink:href="#DejaVuSans-32" x="159.033203"/>
      </g>
     </g>
    </g>
    <g id="ytick_20">
     <g id="line2d_43">
      <g>
       <use xlink:href="#m32ce768cba" x="488.572321" y="533.49066" style="stroke: #000000; stroke-width: 0.8"/>
      </g>
     </g>
     <g id="text_46">
      <!-- 0.04 -->
      <g transform="translate(459.306696 537.289878) scale(0.1 -0.1)">
       <use xlink:href="#DejaVuSans-30"/>
       <use xlink:href="#DejaVuSans-2e" x="63.623047"/>
       <use xlink:href="#DejaVuSans-30" x="95.410156"/>
       <use xlink:href="#DejaVuSans-34" x="159.033203"/>
      </g>
     </g>
    </g>
    <g id="ytick_21">
     <g id="line2d_44">
      <g>
       <use xlink:href="#m32ce768cba" x="488.572321" y="492.046615" style="stroke: #000000; stroke-width: 0.8"/>
      </g>
     </g>
     <g id="text_47">
      <!-- 0.06 -->
      <g transform="translate(459.306696 495.845834) scale(0.1 -0.1)">
       <use xlink:href="#DejaVuSans-30"/>
       <use xlink:href="#DejaVuSans-2e" x="63.623047"/>
       <use xlink:href="#DejaVuSans-30" x="95.410156"/>
       <use xlink:href="#DejaVuSans-36" x="159.033203"/>
      </g>
     </g>
    </g>
    <g id="ytick_22">
     <g id="line2d_45">
      <g>
       <use xlink:href="#m32ce768cba" x="488.572321" y="450.602571" style="stroke: #000000; stroke-width: 0.8"/>
      </g>
     </g>
     <g id="text_48">
      <!-- 0.08 -->
      <g transform="translate(459.306696 454.401789) scale(0.1 -0.1)">
       <use xlink:href="#DejaVuSans-30"/>
       <use xlink:href="#DejaVuSans-2e" x="63.623047"/>
       <use xlink:href="#DejaVuSans-30" x="95.410156"/>
       <use xlink:href="#DejaVuSans-38" x="159.033203"/>
      </g>
     </g>
    </g>
    <g id="ytick_23">
     <g id="line2d_46">
      <g>
       <use xlink:href="#m32ce768cba" x="488.572321" y="409.158526" style="stroke: #000000; stroke-width: 0.8"/>
      </g>
     </g>
     <g id="text_49">
      <!-- 0.10 -->
      <g transform="translate(459.306696 412.957745) scale(0.1 -0.1)">
       <use xlink:href="#DejaVuSans-30"/>
       <use xlink:href="#DejaVuSans-2e" x="63.623047"/>
       <use xlink:href="#DejaVuSans-31" x="95.410156"/>
       <use xlink:href="#DejaVuSans-30" x="159.033203"/>
      </g>
     </g>
    </g>
    <g id="ytick_24">
     <g id="line2d_47">
      <g>
       <use xlink:href="#m32ce768cba" x="488.572321" y="367.714482" style="stroke: #000000; stroke-width: 0.8"/>
      </g>
     </g>
     <g id="text_50">
      <!-- 0.12 -->
      <g transform="translate(459.306696 371.513701) scale(0.1 -0.1)">
       <use xlink:href="#DejaVuSans-30"/>
       <use xlink:href="#DejaVuSans-2e" x="63.623047"/>
       <use xlink:href="#DejaVuSans-31" x="95.410156"/>
       <use xlink:href="#DejaVuSans-32" x="159.033203"/>
      </g>
     </g>
    </g>
   </g>
   <g id="line2d_48">
    <path d="M 506.689205 557.931375 
L 510.349181 556.734988 
L 514.009157 555.538601 
L 517.669134 554.342213 
L 521.32911 553.145826 
L 524.989086 551.949439 
L 528.649063 550.753052 
L 532.309039 549.556665 
L 535.969016 548.360277 
L 539.628992 547.16389 
L 543.288968 545.967503 
L 546.948945 544.771116 
L 550.608921 543.574729 
L 554.268898 542.378341 
L 557.928874 541.181954 
L 561.58885 539.985567 
L 565.248827 538.78918 
L 568.908803 537.592793 
L 572.56878 536.396405 
L 576.228756 535.200018 
L 579.888732 534.003631 
L 583.548709 532.807244 
L 587.208685 531.610857 
L 590.868661 530.414469 
L 594.528638 529.218082 
L 598.188614 528.021695 
L 601.848591 526.825308 
L 605.508567 525.628921 
L 609.168543 524.432533 
L 612.82852 523.236146 
L 616.488496 522.039759 
L 620.148473 520.843372 
L 623.808449 519.646985 
L 627.468425 518.450598 
L 631.128402 517.25421 
L 634.788378 516.057823 
L 638.448354 514.861436 
L 642.108331 513.665049 
L 645.768307 512.468662 
L 649.428284 511.272274 
L 653.08826 510.075887 
L 656.748236 508.8795 
L 660.408213 507.683113 
L 664.068189 506.486726 
L 667.728166 505.290338 
L 671.388142 504.093951 
L 675.048118 502.897564 
L 678.708095 501.701177 
L 682.368071 500.50479 
L 686.028048 499.308402 
L 689.688024 498.112015 
L 693.348 496.915628 
L 697.007977 495.719241 
L 700.667953 494.522854 
L 704.327929 493.326466 
L 707.987906 492.130079 
L 711.647882 490.933692 
L 715.307859 489.737305 
L 718.967835 488.540918 
L 722.627811 487.34453 
L 726.287788 486.148143 
L 729.947764 484.951756 
L 733.607741 483.755369 
L 737.267717 482.558982 
L 740.927693 481.362594 
L 744.58767 480.166207 
L 748.247646 478.96982 
L 751.907622 477.773433 
L 755.567599 476.577046 
L 759.227575 475.380658 
L 762.887552 474.184271 
L 766.547528 472.987884 
L 770.207504 471.791497 
L 773.867481 470.59511 
L 777.527457 469.398722 
L 781.187434 468.202335 
L 784.84741 467.005948 
L 788.507386 465.809561 
L 792.167363 464.613174 
L 795.827339 463.416786 
L 799.487316 462.220399 
L 803.147292 461.024012 
L 806.807268 459.827625 
L 810.467245 458.631238 
L 814.127221 457.43485 
L 817.787197 456.238463 
L 821.447174 455.042076 
L 825.10715 453.845689 
L 828.767127 452.649302 
L 832.427103 451.452914 
L 836.087079 450.256527 
L 839.747056 449.06014 
L 843.407032 447.863753 
L 847.067009 446.667366 
L 850.726985 445.470978 
L 854.386961 444.274591 
L 858.046938 443.078204 
L 861.706914 441.881817 
L 865.36689 440.68543 
L 869.026867 439.489042 
" clip-path="url(#pf56f448052)" style="fill: none; stroke: #ffa500; stroke-width: 2.25; stroke-linecap: square"/>
   </g>
   <g id="patch_18">
    <path d="M 488.572321 612 
L 488.572321 360 
" style="fill: none; stroke: #000000; stroke-width: 0.8; stroke-linejoin: miter; stroke-linecap: square"/>
   </g>
   <g id="patch_19">
    <path d="M 887.14375 612 
L 887.14375 360 
" style="fill: none; stroke: #000000; stroke-width: 0.8; stroke-linejoin: miter; stroke-linecap: square"/>
   </g>
   <g id="patch_20">
    <path d="M 488.572321 612 
L 887.14375 612 
" style="fill: none; stroke: #000000; stroke-width: 0.8; stroke-linejoin: miter; stroke-linecap: square"/>
   </g>
   <g id="patch_21">
    <path d="M 488.572321 360 
L 887.14375 360 
" style="fill: none; stroke: #000000; stroke-width: 0.8; stroke-linejoin: miter; stroke-linecap: square"/>
   </g>
  </g>
  <g id="text_51">
   <!-- Archaea - Comparison between amino acid and factor frequencies for genetic code: Cephalodiscidae -->
   <g transform="translate(76.624609 18.597656) scale(0.15 -0.15)">
    <defs>
     <path id="DejaVuSans-68" d="M 3513 2113 
L 3513 0 
L 2938 0 
L 2938 2094 
Q 2938 2591 2744 2837 
Q 2550 3084 2163 3084 
Q 1697 3084 1428 2787 
Q 1159 2491 1159 1978 
L 1159 0 
L 581 0 
L 581 4863 
L 1159 4863 
L 1159 2956 
Q 1366 3272 1645 3428 
Q 1925 3584 2291 3584 
Q 2894 3584 3203 3211 
Q 3513 2838 3513 2113 
z
" transform="scale(0.015625)"/>
     <path id="DejaVuSans-2d" d="M 313 2009 
L 1997 2009 
L 1997 1497 
L 313 1497 
L 313 2009 
z
" transform="scale(0.015625)"/>
     <path id="DejaVuSans-70" d="M 1159 525 
L 1159 -1331 
L 581 -1331 
L 581 3500 
L 1159 3500 
L 1159 2969 
Q 1341 3281 1617 3432 
Q 1894 3584 2278 3584 
Q 2916 3584 3314 3078 
Q 3713 2572 3713 1747 
Q 3713 922 3314 415 
Q 2916 -91 2278 -91 
Q 1894 -91 1617 61 
Q 1341 213 1159 525 
z
M 3116 1747 
Q 3116 2381 2855 2742 
Q 2594 3103 2138 3103 
Q 1681 3103 1420 2742 
Q 1159 2381 1159 1747 
Q 1159 1113 1420 752 
Q 1681 391 2138 391 
Q 2594 391 2855 752 
Q 3116 1113 3116 1747 
z
" transform="scale(0.015625)"/>
     <path id="DejaVuSans-62" d="M 3116 1747 
Q 3116 2381 2855 2742 
Q 2594 3103 2138 3103 
Q 1681 3103 1420 2742 
Q 1159 2381 1159 1747 
Q 1159 1113 1420 752 
Q 1681 391 2138 391 
Q 2594 391 2855 752 
Q 3116 1113 3116 1747 
z
M 1159 2969 
Q 1341 3281 1617 3432 
Q 1894 3584 2278 3584 
Q 2916 3584 3314 3078 
Q 3713 2572 3713 1747 
Q 3713 922 3314 415 
Q 2916 -91 2278 -91 
Q 1894 -91 1617 61 
Q 1341 213 1159 525 
L 1159 0 
L 581 0 
L 581 4863 
L 1159 4863 
L 1159 2969 
z
" transform="scale(0.015625)"/>
     <path id="DejaVuSans-77" d="M 269 3500 
L 844 3500 
L 1563 769 
L 2278 3500 
L 2956 3500 
L 3675 769 
L 4391 3500 
L 4966 3500 
L 4050 0 
L 3372 0 
L 2619 2869 
L 1863 0 
L 1184 0 
L 269 3500 
z
" transform="scale(0.015625)"/>
     <path id="DejaVuSans-67" d="M 2906 1791 
Q 2906 2416 2648 2759 
Q 2391 3103 1925 3103 
Q 1463 3103 1205 2759 
Q 947 2416 947 1791 
Q 947 1169 1205 825 
Q 1463 481 1925 481 
Q 2391 481 2648 825 
Q 2906 1169 2906 1791 
z
M 3481 434 
Q 3481 -459 3084 -895 
Q 2688 -1331 1869 -1331 
Q 1566 -1331 1297 -1286 
Q 1028 -1241 775 -1147 
L 775 -588 
Q 1028 -725 1275 -790 
Q 1522 -856 1778 -856 
Q 2344 -856 2625 -561 
Q 2906 -266 2906 331 
L 2906 616 
Q 2728 306 2450 153 
Q 2172 0 1784 0 
Q 1141 0 747 490 
Q 353 981 353 1791 
Q 353 2603 747 3093 
Q 1141 3584 1784 3584 
Q 2172 3584 2450 3431 
Q 2728 3278 2906 2969 
L 2906 3500 
L 3481 3500 
L 3481 434 
z
" transform="scale(0.015625)"/>
     <path id="DejaVuSans-3a" d="M 750 794 
L 1409 794 
L 1409 0 
L 750 0 
L 750 794 
z
M 750 3309 
L 1409 3309 
L 1409 2516 
L 750 2516 
L 750 3309 
z
" transform="scale(0.015625)"/>
     <path id="DejaVuSans-6c" d="M 603 4863 
L 1178 4863 
L 1178 0 
L 603 0 
L 603 4863 
z
" transform="scale(0.015625)"/>
    </defs>
    <use xlink:href="#DejaVuSans-41"/>
    <use xlink:href="#DejaVuSans-72" x="68.408203"/>
    <use xlink:href="#DejaVuSans-63" x="107.271484"/>
    <use xlink:href="#DejaVuSans-68" x="162.251953"/>
    <use xlink:href="#DejaVuSans-61" x="225.630859"/>
    <use xlink:href="#DejaVuSans-65" x="286.910156"/>
    <use xlink:href="#DejaVuSans-61" x="348.433594"/>
    <use xlink:href="#DejaVuSans-20" x="409.712891"/>
    <use xlink:href="#DejaVuSans-2d" x="441.5"/>
    <use xlink:href="#DejaVuSans-20" x="477.583984"/>
    <use xlink:href="#DejaVuSans-43" x="509.371094"/>
    <use xlink:href="#DejaVuSans-6f" x="579.195312"/>
    <use xlink:href="#DejaVuSans-6d" x="640.376953"/>
    <use xlink:href="#DejaVuSans-70" x="737.789062"/>
    <use xlink:href="#DejaVuSans-61" x="801.265625"/>
    <use xlink:href="#DejaVuSans-72" x="862.544922"/>
    <use xlink:href="#DejaVuSans-69" x="903.658203"/>
    <use xlink:href="#DejaVuSans-73" x="931.441406"/>
    <use xlink:href="#DejaVuSans-6f" x="983.541016"/>
    <use xlink:href="#DejaVuSans-6e" x="1044.722656"/>
    <use xlink:href="#DejaVuSans-20" x="1108.101562"/>
    <use xlink:href="#DejaVuSans-62" x="1139.888672"/>
    <use xlink:href="#DejaVuSans-65" x="1203.365234"/>
    <use xlink:href="#DejaVuSans-74" x="1264.888672"/>
    <use xlink:href="#DejaVuSans-77" x="1304.097656"/>
    <use xlink:href="#DejaVuSans-65" x="1385.884766"/>
    <use xlink:href="#DejaVuSans-65" x="1447.408203"/>
    <use xlink:href="#DejaVuSans-6e" x="1508.931641"/>
    <use xlink:href="#DejaVuSans-20" x="1572.310547"/>
    <use xlink:href="#DejaVuSans-61" x="1604.097656"/>
    <use xlink:href="#DejaVuSans-6d" x="1665.376953"/>
    <use xlink:href="#DejaVuSans-69" x="1762.789062"/>
    <use xlink:href="#DejaVuSans-6e" x="1790.572266"/>
    <use xlink:href="#DejaVuSans-6f" x="1853.951172"/>
    <use xlink:href="#DejaVuSans-20" x="1915.132812"/>
    <use xlink:href="#DejaVuSans-61" x="1946.919922"/>
    <use xlink:href="#DejaVuSans-63" x="2008.199219"/>
    <use xlink:href="#DejaVuSans-69" x="2063.179688"/>
    <use xlink:href="#DejaVuSans-64" x="2090.962891"/>
    <use xlink:href="#DejaVuSans-20" x="2154.439453"/>
    <use xlink:href="#DejaVuSans-61" x="2186.226562"/>
    <use xlink:href="#DejaVuSans-6e" x="2247.505859"/>
    <use xlink:href="#DejaVuSans-64" x="2310.884766"/>
    <use xlink:href="#DejaVuSans-20" x="2374.361328"/>
    <use xlink:href="#DejaVuSans-66" x="2406.148438"/>
    <use xlink:href="#DejaVuSans-61" x="2441.353516"/>
    <use xlink:href="#DejaVuSans-63" x="2502.632812"/>
    <use xlink:href="#DejaVuSans-74" x="2557.613281"/>
    <use xlink:href="#DejaVuSans-6f" x="2596.822266"/>
    <use xlink:href="#DejaVuSans-72" x="2658.003906"/>
    <use xlink:href="#DejaVuSans-20" x="2699.117188"/>
    <use xlink:href="#DejaVuSans-66" x="2730.904297"/>
    <use xlink:href="#DejaVuSans-72" x="2766.109375"/>
    <use xlink:href="#DejaVuSans-65" x="2804.972656"/>
    <use xlink:href="#DejaVuSans-71" x="2866.496094"/>
    <use xlink:href="#DejaVuSans-75" x="2929.972656"/>
    <use xlink:href="#DejaVuSans-65" x="2993.351562"/>
    <use xlink:href="#DejaVuSans-6e" x="3054.875"/>
    <use xlink:href="#DejaVuSans-63" x="3118.253906"/>
    <use xlink:href="#DejaVuSans-69" x="3173.234375"/>
    <use xlink:href="#DejaVuSans-65" x="3201.017578"/>
    <use xlink:href="#DejaVuSans-73" x="3262.541016"/>
    <use xlink:href="#DejaVuSans-20" x="3314.640625"/>
    <use xlink:href="#DejaVuSans-66" x="3346.427734"/>
    <use xlink:href="#DejaVuSans-6f" x="3381.632812"/>
    <use xlink:href="#DejaVuSans-72" x="3442.814453"/>
    <use xlink:href="#DejaVuSans-20" x="3483.927734"/>
    <use xlink:href="#DejaVuSans-67" x="3515.714844"/>
    <use xlink:href="#DejaVuSans-65" x="3579.191406"/>
    <use xlink:href="#DejaVuSans-6e" x="3640.714844"/>
    <use xlink:href="#DejaVuSans-65" x="3704.09375"/>
    <use xlink:href="#DejaVuSans-74" x="3765.617188"/>
    <use xlink:href="#DejaVuSans-69" x="3804.826172"/>
    <use xlink:href="#DejaVuSans-63" x="3832.609375"/>
    <use xlink:href="#DejaVuSans-20" x="3887.589844"/>
    <use xlink:href="#DejaVuSans-63" x="3919.376953"/>
    <use xlink:href="#DejaVuSans-6f" x="3974.357422"/>
    <use xlink:href="#DejaVuSans-64" x="4035.539062"/>
    <use xlink:href="#DejaVuSans-65" x="4099.015625"/>
    <use xlink:href="#DejaVuSans-3a" x="4160.539062"/>
    <use xlink:href="#DejaVuSans-20" x="4194.230469"/>
    <use xlink:href="#DejaVuSans-43" x="4226.017578"/>
    <use xlink:href="#DejaVuSans-65" x="4295.841797"/>
    <use xlink:href="#DejaVuSans-70" x="4357.365234"/>
    <use xlink:href="#DejaVuSans-68" x="4420.841797"/>
    <use xlink:href="#DejaVuSans-61" x="4484.220703"/>
    <use xlink:href="#DejaVuSans-6c" x="4545.5"/>
    <use xlink:href="#DejaVuSans-6f" x="4573.283203"/>
    <use xlink:href="#DejaVuSans-64" x="4634.464844"/>
    <use xlink:href="#DejaVuSans-69" x="4697.941406"/>
    <use xlink:href="#DejaVuSans-73" x="4725.724609"/>
    <use xlink:href="#DejaVuSans-63" x="4777.824219"/>
    <use xlink:href="#DejaVuSans-69" x="4832.804688"/>
    <use xlink:href="#DejaVuSans-64" x="4860.587891"/>
    <use xlink:href="#DejaVuSans-61" x="4924.064453"/>
    <use xlink:href="#DejaVuSans-65" x="4985.34375"/>
   </g>
   <!-- mitochondrial uaa-tyr -->
   <g transform="translate(373.901172 35.394375) scale(0.15 -0.15)">
    <use xlink:href="#DejaVuSans-6d"/>
    <use xlink:href="#DejaVuSans-69" x="97.412109"/>
    <use xlink:href="#DejaVuSans-74" x="125.195312"/>
    <use xlink:href="#DejaVuSans-6f" x="164.404297"/>
    <use xlink:href="#DejaVuSans-63" x="225.585938"/>
    <use xlink:href="#DejaVuSans-68" x="280.566406"/>
    <use xlink:href="#DejaVuSans-6f" x="343.945312"/>
    <use xlink:href="#DejaVuSans-6e" x="405.126953"/>
    <use xlink:href="#DejaVuSans-64" x="468.505859"/>
    <use xlink:href="#DejaVuSans-72" x="531.982422"/>
    <use xlink:href="#DejaVuSans-69" x="573.095703"/>
    <use xlink:href="#DejaVuSans-61" x="600.878906"/>
    <use xlink:href="#DejaVuSans-6c" x="662.158203"/>
    <use xlink:href="#DejaVuSans-20" x="689.941406"/>
    <use xlink:href="#DejaVuSans-75" x="721.728516"/>
    <use xlink:href="#DejaVuSans-61" x="785.107422"/>
    <use xlink:href="#DejaVuSans-61" x="846.386719"/>
    <use xlink:href="#DejaVuSans-2d" x="907.666016"/>
    <use xlink:href="#DejaVuSans-74" x="943.75"/>
    <use xlink:href="#DejaVuSans-79" x="982.958984"/>
    <use xlink:href="#DejaVuSans-72" x="1042.138672"/>
   </g>
  </g>
 </g>
 <defs>
  <clipPath id="paf43582cf3">
   <rect x="50.14375" y="57.6" width="398.571429" height="252"/>
  </clipPath>
  <clipPath id="pc254201f42">
   <rect x="488.572321" y="57.6" width="398.571429" height="252"/>
  </clipPath>
  <clipPath id="pc83ebaf137">
   <rect x="50.14375" y="360" width="398.571429" height="252"/>
  </clipPath>
  <clipPath id="pf56f448052">
   <rect x="488.572321" y="360" width="398.571429" height="252"/>
  </clipPath>
 </defs>
</svg>
