<?xml version="1.0" encoding="utf-8" standalone="no"?>
<!DOCTYPE svg PUBLIC "-//W3C//DTD SVG 1.1//EN"
  "http://www.w3.org/Graphics/SVG/1.1/DTD/svg11.dtd">
<svg xmlns:xlink="http://www.w3.org/1999/xlink" width="530.235525pt" height="352.861125pt" viewBox="0 0 530.235525 352.861125" xmlns="http://www.w3.org/2000/svg" version="1.1">
 <metadata>
  <rdf:RDF xmlns:dc="http://purl.org/dc/elements/1.1/" xmlns:cc="http://creativecommons.org/ns#" xmlns:rdf="http://www.w3.org/1999/02/22-rdf-syntax-ns#">
   <cc:Work>
    <dc:type rdf:resource="http://purl.org/dc/dcmitype/StillImage"/>
    <dc:date>2024-08-13T17:10:40.704850</dc:date>
    <dc:format>image/svg+xml</dc:format>
    <dc:creator>
     <cc:Agent>
      <dc:title>Matplotlib v3.8.3, https://matplotlib.org/</dc:title>
     </cc:Agent>
    </dc:creator>
   </cc:Work>
  </rdf:RDF>
 </metadata>
 <defs>
  <style type="text/css">*{stroke-linejoin: round; stroke-linecap: butt}</style>
 </defs>
 <g id="figure_1">
  <g id="patch_1">
   <path d="M 0 352.861125 
L 530.235525 352.861125 
L 530.235525 0 
L 0 0 
z
" style="fill: #ffffff"/>
  </g>
  <g id="axes_1">
   <g id="patch_2">
    <path d="M 66.053125 315.304875 
L 423.173125 315.304875 
L 423.173125 49.192875 
L 66.053125 49.192875 
z
" style="fill: #ffffff"/>
   </g>
   <g id="patch_3">
    <path d="M 82.285852 315.304875 
L 87.255054 315.304875 
L 87.255054 265.002921 
L 82.285852 265.002921 
z
" clip-path="url(#p212d3f08ec)" style="fill: url(#hd686e380b0); stroke: #000000; stroke-width: 0.75; stroke-linejoin: miter"/>
   </g>
   <g id="patch_4">
    <path d="M 82.285852 265.002921 
L 87.255054 265.002921 
L 87.255054 264.034296 
L 82.285852 264.034296 
z
" clip-path="url(#p212d3f08ec)" style="fill: url(#h0081581699); stroke: #000000; stroke-width: 0.75; stroke-linejoin: miter"/>
   </g>
   <g id="patch_5">
    <path d="M 82.285852 264.034296 
L 87.255054 264.034296 
L 87.255054 263.316965 
L 82.285852 263.316965 
z
" clip-path="url(#p212d3f08ec)" style="fill: url(#h0081581699); stroke: #000000; stroke-width: 0.75; stroke-linejoin: miter"/>
   </g>
   <g id="patch_6">
    <path d="M 82.285852 263.316965 
L 87.255054 263.316965 
L 87.255054 263.30391 
L 82.285852 263.30391 
z
" clip-path="url(#p212d3f08ec)" style="fill: url(#h0081581699); stroke: #000000; stroke-width: 0.75; stroke-linejoin: miter"/>
   </g>
   <g id="patch_7">
    <path d="M 82.285852 263.30391 
L 87.255054 263.30391 
L 87.255054 263.299341 
L 82.285852 263.299341 
z
" clip-path="url(#p212d3f08ec)" style="fill: url(#h0081581699); stroke: #000000; stroke-width: 0.75; stroke-linejoin: miter"/>
   </g>
   <g id="patch_8">
    <path d="M 82.285852 263.299341 
L 87.255054 263.299341 
L 87.255054 263.298689 
L 82.285852 263.298689 
z
" clip-path="url(#p212d3f08ec)" style="fill: url(#h0081581699); stroke: #000000; stroke-width: 0.75; stroke-linejoin: miter"/>
   </g>
   <g id="patch_9">
    <path d="M 82.285852 263.298689 
L 87.255054 263.298689 
L 87.255054 263.296078 
L 82.285852 263.296078 
z
" clip-path="url(#p212d3f08ec)" style="fill: url(#h0081581699); stroke: #000000; stroke-width: 0.75; stroke-linejoin: miter"/>
   </g>
   <g id="patch_10">
    <path d="M 82.285852 263.296078 
L 87.255054 263.296078 
L 87.255054 263.29412 
L 82.285852 263.29412 
z
" clip-path="url(#p212d3f08ec)" style="fill: url(#h0081581699); stroke: #000000; stroke-width: 0.75; stroke-linejoin: miter"/>
   </g>
   <g id="patch_11">
    <path d="M 98.84986 315.304875 
L 103.819062 315.304875 
L 103.819062 296.870311 
L 98.84986 296.870311 
z
" clip-path="url(#p212d3f08ec)" style="fill: url(#hd686e380b0); stroke: #000000; stroke-width: 0.75; stroke-linejoin: miter"/>
   </g>
   <g id="patch_12">
    <path d="M 115.413867 315.304875 
L 120.383069 315.304875 
L 120.383069 305.576846 
L 115.413867 305.576846 
z
" clip-path="url(#p212d3f08ec)" style="fill: url(#hd686e380b0); stroke: #000000; stroke-width: 0.75; stroke-linejoin: miter"/>
   </g>
   <g id="patch_13">
    <path d="M 115.413867 305.576846 
L 120.383069 305.576846 
L 120.383069 295.278998 
L 115.413867 295.278998 
z
" clip-path="url(#p212d3f08ec)" style="fill: url(#h290942212a); stroke: #000000; stroke-width: 0.75; stroke-linejoin: miter"/>
   </g>
   <g id="patch_14">
    <path d="M 131.977875 315.304875 
L 136.947077 315.304875 
L 136.947077 251.36188 
L 131.977875 251.36188 
z
" clip-path="url(#p212d3f08ec)" style="fill: url(#hd686e380b0); stroke: #000000; stroke-width: 0.75; stroke-linejoin: miter"/>
   </g>
   <g id="patch_15">
    <path d="M 131.977875 251.36188 
L 136.947077 251.36188 
L 136.947077 185.387642 
L 131.977875 185.387642 
z
" clip-path="url(#p212d3f08ec)" style="fill: url(#h290942212a); stroke: #000000; stroke-width: 0.75; stroke-linejoin: miter"/>
   </g>
   <g id="patch_16">
    <path d="M 148.541882 315.304875 
L 153.511084 315.304875 
L 153.511084 231.844466 
L 148.541882 231.844466 
z
" clip-path="url(#p212d3f08ec)" style="fill: url(#hd686e380b0); stroke: #000000; stroke-width: 0.75; stroke-linejoin: miter"/>
   </g>
   <g id="patch_17">
    <path d="M 148.541882 231.844466 
L 153.511084 231.844466 
L 153.511084 130.331982 
L 148.541882 130.331982 
z
" clip-path="url(#p212d3f08ec)" style="fill: url(#h290942212a); stroke: #000000; stroke-width: 0.75; stroke-linejoin: miter"/>
   </g>
   <g id="patch_18">
    <path d="M 165.105889 315.304875 
L 170.075092 315.304875 
L 170.075092 280.207863 
L 165.105889 280.207863 
z
" clip-path="url(#p212d3f08ec)" style="fill: url(#hd686e380b0); stroke: #000000; stroke-width: 0.75; stroke-linejoin: miter"/>
   </g>
   <g id="patch_19">
    <path d="M 165.105889 280.207863 
L 170.075092 280.207863 
L 170.075092 239.724666 
L 165.105889 239.724666 
z
" clip-path="url(#p212d3f08ec)" style="fill: url(#h290942212a); stroke: #000000; stroke-width: 0.75; stroke-linejoin: miter"/>
   </g>
   <g id="patch_20">
    <path d="M 181.669897 315.304875 
L 186.639099 315.304875 
L 186.639099 299.541864 
L 181.669897 299.541864 
z
" clip-path="url(#p212d3f08ec)" style="fill: url(#hd686e380b0); stroke: #000000; stroke-width: 0.75; stroke-linejoin: miter"/>
   </g>
   <g id="patch_21">
    <path d="M 181.669897 299.541864 
L 186.639099 299.541864 
L 186.639099 277.013487 
L 181.669897 277.013487 
z
" clip-path="url(#p212d3f08ec)" style="fill: url(#h290942212a); stroke: #000000; stroke-width: 0.75; stroke-linejoin: miter"/>
   </g>
   <g id="patch_22">
    <path d="M 198.233904 315.304875 
L 203.203106 315.304875 
L 203.203106 240.462231 
L 198.233904 240.462231 
z
" clip-path="url(#p212d3f08ec)" style="fill: url(#hd686e380b0); stroke: #000000; stroke-width: 0.75; stroke-linejoin: miter"/>
   </g>
   <g id="patch_23">
    <path d="M 198.233904 240.462231 
L 203.203106 240.462231 
L 203.203106 167.039237 
L 198.233904 167.039237 
z
" clip-path="url(#p212d3f08ec)" style="fill: url(#h290942212a); stroke: #000000; stroke-width: 0.75; stroke-linejoin: miter"/>
   </g>
   <g id="patch_24">
    <path d="M 198.233904 167.039237 
L 203.203106 167.039237 
L 203.203106 167.038584 
L 198.233904 167.038584 
z
" clip-path="url(#p212d3f08ec)" style="fill: url(#h0081581699); stroke: #000000; stroke-width: 0.75; stroke-linejoin: miter"/>
   </g>
   <g id="patch_25">
    <path d="M 214.797912 315.304875 
L 219.767114 315.304875 
L 219.767114 278.721636 
L 214.797912 278.721636 
z
" clip-path="url(#p212d3f08ec)" style="fill: url(#hd686e380b0); stroke: #000000; stroke-width: 0.75; stroke-linejoin: miter"/>
   </g>
   <g id="patch_26">
    <path d="M 214.797912 278.721636 
L 219.767114 278.721636 
L 219.767114 238.481901 
L 214.797912 238.481901 
z
" clip-path="url(#p212d3f08ec)" style="fill: url(#h290942212a); stroke: #000000; stroke-width: 0.75; stroke-linejoin: miter"/>
   </g>
   <g id="patch_27">
    <path d="M 231.361919 315.304875 
L 236.331121 315.304875 
L 236.331121 299.716791 
L 231.361919 299.716791 
z
" clip-path="url(#p212d3f08ec)" style="fill: url(#hd686e380b0); stroke: #000000; stroke-width: 0.75; stroke-linejoin: miter"/>
   </g>
   <g id="patch_28">
    <path d="M 231.361919 299.716791 
L 236.331121 299.716791 
L 236.331121 268.34481 
L 231.361919 268.34481 
z
" clip-path="url(#p212d3f08ec)" style="fill: url(#h290942212a); stroke: #000000; stroke-width: 0.75; stroke-linejoin: miter"/>
   </g>
   <g id="patch_29">
    <path d="M 247.925926 315.304875 
L 252.895129 315.304875 
L 252.895129 280.519207 
L 247.925926 280.519207 
z
" clip-path="url(#p212d3f08ec)" style="fill: url(#hd686e380b0); stroke: #000000; stroke-width: 0.75; stroke-linejoin: miter"/>
   </g>
   <g id="patch_30">
    <path d="M 247.925926 280.519207 
L 252.895129 280.519207 
L 252.895129 241.26572 
L 247.925926 241.26572 
z
" clip-path="url(#p212d3f08ec)" style="fill: url(#h290942212a); stroke: #000000; stroke-width: 0.75; stroke-linejoin: miter"/>
   </g>
   <g id="patch_31">
    <path d="M 264.489934 315.304875 
L 269.459136 315.304875 
L 269.459136 263.036298 
L 264.489934 263.036298 
z
" clip-path="url(#p212d3f08ec)" style="fill: url(#hd686e380b0); stroke: #000000; stroke-width: 0.75; stroke-linejoin: miter"/>
   </g>
   <g id="patch_32">
    <path d="M 264.489934 263.036298 
L 269.459136 263.036298 
L 269.459136 216.738737 
L 264.489934 216.738737 
z
" clip-path="url(#p212d3f08ec)" style="fill: url(#h290942212a); stroke: #000000; stroke-width: 0.75; stroke-linejoin: miter"/>
   </g>
   <g id="patch_33">
    <path d="M 264.489934 216.738737 
L 269.459136 216.738737 
L 269.459136 151.789911 
L 264.489934 151.789911 
z
" clip-path="url(#p212d3f08ec)" style="fill: url(#ha52f161e10); stroke: #000000; stroke-width: 0.75; stroke-linejoin: miter"/>
   </g>
   <g id="patch_34">
    <path d="M 281.053941 315.304875 
L 286.023144 315.304875 
L 286.023144 275.973063 
L 281.053941 275.973063 
z
" clip-path="url(#p212d3f08ec)" style="fill: url(#hd686e380b0); stroke: #000000; stroke-width: 0.75; stroke-linejoin: miter"/>
   </g>
   <g id="patch_35">
    <path d="M 281.053941 275.973063 
L 286.023144 275.973063 
L 286.023144 227.202373 
L 281.053941 227.202373 
z
" clip-path="url(#p212d3f08ec)" style="fill: url(#h290942212a); stroke: #000000; stroke-width: 0.75; stroke-linejoin: miter"/>
   </g>
   <g id="patch_36">
    <path d="M 281.053941 227.202373 
L 286.023144 227.202373 
L 286.023144 179.457095 
L 281.053941 179.457095 
z
" clip-path="url(#p212d3f08ec)" style="fill: url(#ha52f161e10); stroke: #000000; stroke-width: 0.75; stroke-linejoin: miter"/>
   </g>
   <g id="patch_37">
    <path d="M 281.053941 179.457095 
L 286.023144 179.457095 
L 286.023144 145.253646 
L 281.053941 145.253646 
z
" clip-path="url(#p212d3f08ec)" style="fill: url(#hbdc7a699b3); stroke: #000000; stroke-width: 0.75; stroke-linejoin: miter"/>
   </g>
   <g id="patch_38">
    <path d="M 281.053941 145.253646 
L 286.023144 145.253646 
L 286.023144 145.252994 
L 281.053941 145.252994 
z
" clip-path="url(#p212d3f08ec)" style="fill: url(#h0081581699); stroke: #000000; stroke-width: 0.75; stroke-linejoin: miter"/>
   </g>
   <g id="patch_39">
    <path d="M 297.617949 315.304875 
L 302.587151 315.304875 
L 302.587151 279.527736 
L 297.617949 279.527736 
z
" clip-path="url(#p212d3f08ec)" style="fill: url(#hd686e380b0); stroke: #000000; stroke-width: 0.75; stroke-linejoin: miter"/>
   </g>
   <g id="patch_40">
    <path d="M 297.617949 279.527736 
L 302.587151 279.527736 
L 302.587151 234.442915 
L 297.617949 234.442915 
z
" clip-path="url(#p212d3f08ec)" style="fill: url(#h290942212a); stroke: #000000; stroke-width: 0.75; stroke-linejoin: miter"/>
   </g>
   <g id="patch_41">
    <path d="M 297.617949 234.442915 
L 302.587151 234.442915 
L 302.587151 183.419714 
L 297.617949 183.419714 
z
" clip-path="url(#p212d3f08ec)" style="fill: url(#ha52f161e10); stroke: #000000; stroke-width: 0.75; stroke-linejoin: miter"/>
   </g>
   <g id="patch_42">
    <path d="M 297.617949 183.419714 
L 302.587151 183.419714 
L 302.587151 151.560809 
L 297.617949 151.560809 
z
" clip-path="url(#p212d3f08ec)" style="fill: url(#hbdc7a699b3); stroke: #000000; stroke-width: 0.75; stroke-linejoin: miter"/>
   </g>
   <g id="patch_43">
    <path d="M 314.181956 315.304875 
L 319.151158 315.304875 
L 319.151158 296.127524 
L 314.181956 296.127524 
z
" clip-path="url(#p212d3f08ec)" style="fill: url(#hd686e380b0); stroke: #000000; stroke-width: 0.75; stroke-linejoin: miter"/>
   </g>
   <g id="patch_44">
    <path d="M 314.181956 296.127524 
L 319.151158 296.127524 
L 319.151158 274.371959 
L 314.181956 274.371959 
z
" clip-path="url(#p212d3f08ec)" style="fill: url(#h290942212a); stroke: #000000; stroke-width: 0.75; stroke-linejoin: miter"/>
   </g>
   <g id="patch_45">
    <path d="M 314.181956 274.371959 
L 319.151158 274.371959 
L 319.151158 247.557217 
L 314.181956 247.557217 
z
" clip-path="url(#p212d3f08ec)" style="fill: url(#ha52f161e10); stroke: #000000; stroke-width: 0.75; stroke-linejoin: miter"/>
   </g>
   <g id="patch_46">
    <path d="M 314.181956 247.557217 
L 319.151158 247.557217 
L 319.151158 223.809573 
L 314.181956 223.809573 
z
" clip-path="url(#p212d3f08ec)" style="fill: url(#hbdc7a699b3); stroke: #000000; stroke-width: 0.75; stroke-linejoin: miter"/>
   </g>
   <g id="patch_47">
    <path d="M 330.745964 315.304875 
L 335.715166 315.304875 
L 335.715166 292.129007 
L 330.745964 292.129007 
z
" clip-path="url(#p212d3f08ec)" style="fill: url(#hd686e380b0); stroke: #000000; stroke-width: 0.75; stroke-linejoin: miter"/>
   </g>
   <g id="patch_48">
    <path d="M 330.745964 292.129007 
L 335.715166 292.129007 
L 335.715166 261.926687 
L 330.745964 261.926687 
z
" clip-path="url(#p212d3f08ec)" style="fill: url(#h290942212a); stroke: #000000; stroke-width: 0.75; stroke-linejoin: miter"/>
   </g>
   <g id="patch_49">
    <path d="M 330.745964 261.926687 
L 335.715166 261.926687 
L 335.715166 233.268685 
L 330.745964 233.268685 
z
" clip-path="url(#p212d3f08ec)" style="fill: url(#ha52f161e10); stroke: #000000; stroke-width: 0.75; stroke-linejoin: miter"/>
   </g>
   <g id="patch_50">
    <path d="M 330.745964 233.268685 
L 335.715166 233.268685 
L 335.715166 211.191984 
L 330.745964 211.191984 
z
" clip-path="url(#p212d3f08ec)" style="fill: url(#hbdc7a699b3); stroke: #000000; stroke-width: 0.75; stroke-linejoin: miter"/>
   </g>
   <g id="patch_51">
    <path d="M 330.745964 211.191984 
L 335.715166 211.191984 
L 335.715166 211.191332 
L 330.745964 211.191332 
z
" clip-path="url(#p212d3f08ec)" style="fill: url(#h0081581699); stroke: #000000; stroke-width: 0.75; stroke-linejoin: miter"/>
   </g>
   <g id="patch_52">
    <path d="M 347.309971 315.304875 
L 352.279173 315.304875 
L 352.279173 258.646153 
L 347.309971 258.646153 
z
" clip-path="url(#p212d3f08ec)" style="fill: url(#hd686e380b0); stroke: #000000; stroke-width: 0.75; stroke-linejoin: miter"/>
   </g>
   <g id="patch_53">
    <path d="M 347.309971 258.646153 
L 352.279173 258.646153 
L 352.279173 212.359035 
L 347.309971 212.359035 
z
" clip-path="url(#p212d3f08ec)" style="fill: url(#h290942212a); stroke: #000000; stroke-width: 0.75; stroke-linejoin: miter"/>
   </g>
   <g id="patch_54">
    <path d="M 347.309971 212.359035 
L 352.279173 212.359035 
L 352.279173 178.932314 
L 347.309971 178.932314 
z
" clip-path="url(#p212d3f08ec)" style="fill: url(#ha52f161e10); stroke: #000000; stroke-width: 0.75; stroke-linejoin: miter"/>
   </g>
   <g id="patch_55">
    <path d="M 347.309971 178.932314 
L 352.279173 178.932314 
L 352.279173 140.800188 
L 347.309971 140.800188 
z
" clip-path="url(#p212d3f08ec)" style="fill: url(#hbdc7a699b3); stroke: #000000; stroke-width: 0.75; stroke-linejoin: miter"/>
   </g>
   <g id="patch_56">
    <path d="M 363.873978 315.304875 
L 368.843181 315.304875 
L 368.843181 275.027282 
L 363.873978 275.027282 
z
" clip-path="url(#p212d3f08ec)" style="fill: url(#hd686e380b0); stroke: #000000; stroke-width: 0.75; stroke-linejoin: miter"/>
   </g>
   <g id="patch_57">
    <path d="M 363.873978 275.027282 
L 368.843181 275.027282 
L 368.843181 255.742887 
L 363.873978 255.742887 
z
" clip-path="url(#p212d3f08ec)" style="fill: url(#h290942212a); stroke: #000000; stroke-width: 0.75; stroke-linejoin: miter"/>
   </g>
   <g id="patch_58">
    <path d="M 363.873978 255.742887 
L 368.843181 255.742887 
L 368.843181 255.742887 
L 363.873978 255.742887 
z
" clip-path="url(#p212d3f08ec)" style="fill: url(#ha52f161e10); stroke: #000000; stroke-width: 0.75; stroke-linejoin: miter"/>
   </g>
   <g id="patch_59">
    <path d="M 363.873978 255.742887 
L 368.843181 255.742887 
L 368.843181 220.965051 
L 363.873978 220.965051 
z
" clip-path="url(#p212d3f08ec)" style="fill: url(#hbdc7a699b3); stroke: #000000; stroke-width: 0.75; stroke-linejoin: miter"/>
   </g>
   <g id="patch_60">
    <path d="M 363.873978 220.965051 
L 368.843181 220.965051 
L 368.843181 174.939671 
L 363.873978 174.939671 
z
" clip-path="url(#p212d3f08ec)" style="fill: url(#h4f3ffd8a70); stroke: #000000; stroke-width: 0.75; stroke-linejoin: miter"/>
   </g>
   <g id="patch_61">
    <path d="M 363.873978 174.939671 
L 368.843181 174.939671 
L 368.843181 157.414989 
L 363.873978 157.414989 
z
" clip-path="url(#p212d3f08ec)" style="fill: url(#h48f9f19674); stroke: #000000; stroke-width: 0.75; stroke-linejoin: miter"/>
   </g>
   <g id="patch_62">
    <path d="M 363.873978 157.414989 
L 368.843181 157.414989 
L 368.843181 121.989662 
L 363.873978 121.989662 
z
" clip-path="url(#p212d3f08ec)" style="fill: url(#h5d2636bc0e); stroke: #000000; stroke-width: 0.75; stroke-linejoin: miter"/>
   </g>
   <g id="patch_63">
    <path d="M 380.437986 315.304875 
L 385.407188 315.304875 
L 385.407188 307.231472 
L 380.437986 307.231472 
z
" clip-path="url(#p212d3f08ec)" style="fill: url(#hd686e380b0); stroke: #000000; stroke-width: 0.75; stroke-linejoin: miter"/>
   </g>
   <g id="patch_64">
    <path d="M 380.437986 307.231472 
L 385.407188 307.231472 
L 385.407188 290.255721 
L 380.437986 290.255721 
z
" clip-path="url(#p212d3f08ec)" style="fill: url(#h290942212a); stroke: #000000; stroke-width: 0.75; stroke-linejoin: miter"/>
   </g>
   <g id="patch_65">
    <path d="M 380.437986 290.255721 
L 385.407188 290.255721 
L 385.407188 284.401542 
L 380.437986 284.401542 
z
" clip-path="url(#p212d3f08ec)" style="fill: url(#ha52f161e10); stroke: #000000; stroke-width: 0.75; stroke-linejoin: miter"/>
   </g>
   <g id="patch_66">
    <path d="M 380.437986 284.401542 
L 385.407188 284.401542 
L 385.407188 270.626694 
L 380.437986 270.626694 
z
" clip-path="url(#p212d3f08ec)" style="fill: url(#hbdc7a699b3); stroke: #000000; stroke-width: 0.75; stroke-linejoin: miter"/>
   </g>
   <g id="patch_67">
    <path d="M 380.437986 270.626694 
L 385.407188 270.626694 
L 385.407188 232.321599 
L 380.437986 232.321599 
z
" clip-path="url(#p212d3f08ec)" style="fill: url(#h4f3ffd8a70); stroke: #000000; stroke-width: 0.75; stroke-linejoin: miter"/>
   </g>
   <g id="patch_68">
    <path d="M 380.437986 232.321599 
L 385.407188 232.321599 
L 385.407188 189.520619 
L 380.437986 189.520619 
z
" clip-path="url(#p212d3f08ec)" style="fill: url(#h48f9f19674); stroke: #000000; stroke-width: 0.75; stroke-linejoin: miter"/>
   </g>
   <g id="patch_69">
    <path d="M 397.001993 315.304875 
L 401.971196 315.304875 
L 401.971196 298.587598 
L 397.001993 298.587598 
z
" clip-path="url(#p212d3f08ec)" style="fill: url(#hd686e380b0); stroke: #000000; stroke-width: 0.75; stroke-linejoin: miter"/>
   </g>
   <g id="patch_70">
    <path d="M 397.001993 298.587598 
L 401.971196 298.587598 
L 401.971196 279.781641 
L 397.001993 279.781641 
z
" clip-path="url(#p212d3f08ec)" style="fill: url(#h290942212a); stroke: #000000; stroke-width: 0.75; stroke-linejoin: miter"/>
   </g>
   <g id="patch_71">
    <path d="M 397.001993 279.781641 
L 401.971196 279.781641 
L 401.971196 264.968328 
L 397.001993 264.968328 
z
" clip-path="url(#p212d3f08ec)" style="fill: url(#ha52f161e10); stroke: #000000; stroke-width: 0.75; stroke-linejoin: miter"/>
   </g>
   <g id="patch_72">
    <path d="M 397.001993 264.968328 
L 401.971196 264.968328 
L 401.971196 248.411618 
L 397.001993 248.411618 
z
" clip-path="url(#p212d3f08ec)" style="fill: url(#hbdc7a699b3); stroke: #000000; stroke-width: 0.75; stroke-linejoin: miter"/>
   </g>
   <g id="patch_73">
    <path d="M 397.001993 248.411618 
L 401.971196 248.411618 
L 401.971196 224.519724 
L 397.001993 224.519724 
z
" clip-path="url(#p212d3f08ec)" style="fill: url(#h4f3ffd8a70); stroke: #000000; stroke-width: 0.75; stroke-linejoin: miter"/>
   </g>
   <g id="patch_74">
    <path d="M 397.001993 224.519724 
L 401.971196 224.519724 
L 401.971196 201.906494 
L 397.001993 201.906494 
z
" clip-path="url(#p212d3f08ec)" style="fill: url(#h0081581699); stroke: #000000; stroke-width: 0.75; stroke-linejoin: miter"/>
   </g>
   <g id="patch_75">
    <path d="M 87.255054 315.304875 
L 92.224257 315.304875 
L 92.224257 279.809077 
L 87.255054 279.809077 
z
" clip-path="url(#p212d3f08ec)" style="fill: url(#ha69d891b6f); stroke: #000000; stroke-width: 0.75; stroke-linejoin: miter"/>
   </g>
   <g id="patch_76">
    <path d="M 103.819062 315.304875 
L 108.788264 315.304875 
L 108.788264 279.809077 
L 103.819062 279.809077 
z
" clip-path="url(#p212d3f08ec)" style="fill: url(#ha69d891b6f); stroke: #000000; stroke-width: 0.75; stroke-linejoin: miter"/>
   </g>
   <g id="patch_77">
    <path d="M 120.383069 315.304875 
L 125.352272 315.304875 
L 125.352272 244.313278 
L 120.383069 244.313278 
z
" clip-path="url(#p212d3f08ec)" style="fill: url(#ha69d891b6f); stroke: #000000; stroke-width: 0.75; stroke-linejoin: miter"/>
   </g>
   <g id="patch_78">
    <path d="M 136.947077 315.304875 
L 141.916279 315.304875 
L 141.916279 244.313278 
L 136.947077 244.313278 
z
" clip-path="url(#p212d3f08ec)" style="fill: url(#ha69d891b6f); stroke: #000000; stroke-width: 0.75; stroke-linejoin: miter"/>
   </g>
   <g id="patch_79">
    <path d="M 153.511084 315.304875 
L 158.480286 315.304875 
L 158.480286 244.313278 
L 153.511084 244.313278 
z
" clip-path="url(#p212d3f08ec)" style="fill: url(#ha69d891b6f); stroke: #000000; stroke-width: 0.75; stroke-linejoin: miter"/>
   </g>
   <g id="patch_80">
    <path d="M 170.075092 315.304875 
L 175.044294 315.304875 
L 175.044294 244.313278 
L 170.075092 244.313278 
z
" clip-path="url(#p212d3f08ec)" style="fill: url(#ha69d891b6f); stroke: #000000; stroke-width: 0.75; stroke-linejoin: miter"/>
   </g>
   <g id="patch_81">
    <path d="M 186.639099 315.304875 
L 191.608301 315.304875 
L 191.608301 244.313278 
L 186.639099 244.313278 
z
" clip-path="url(#p212d3f08ec)" style="fill: url(#ha69d891b6f); stroke: #000000; stroke-width: 0.75; stroke-linejoin: miter"/>
   </g>
   <g id="patch_82">
    <path d="M 203.203106 315.304875 
L 208.172309 315.304875 
L 208.172309 244.313278 
L 203.203106 244.313278 
z
" clip-path="url(#p212d3f08ec)" style="fill: url(#ha69d891b6f); stroke: #000000; stroke-width: 0.75; stroke-linejoin: miter"/>
   </g>
   <g id="patch_83">
    <path d="M 219.767114 315.304875 
L 224.736316 315.304875 
L 224.736316 244.313278 
L 219.767114 244.313278 
z
" clip-path="url(#p212d3f08ec)" style="fill: url(#ha69d891b6f); stroke: #000000; stroke-width: 0.75; stroke-linejoin: miter"/>
   </g>
   <g id="patch_84">
    <path d="M 236.331121 315.304875 
L 241.300324 315.304875 
L 241.300324 244.313278 
L 236.331121 244.313278 
z
" clip-path="url(#p212d3f08ec)" style="fill: url(#ha69d891b6f); stroke: #000000; stroke-width: 0.75; stroke-linejoin: miter"/>
   </g>
   <g id="patch_85">
    <path d="M 252.895129 315.304875 
L 257.864331 315.304875 
L 257.864331 244.313278 
L 252.895129 244.313278 
z
" clip-path="url(#p212d3f08ec)" style="fill: url(#ha69d891b6f); stroke: #000000; stroke-width: 0.75; stroke-linejoin: miter"/>
   </g>
   <g id="patch_86">
    <path d="M 269.459136 315.304875 
L 274.428338 315.304875 
L 274.428338 208.81748 
L 269.459136 208.81748 
z
" clip-path="url(#p212d3f08ec)" style="fill: url(#ha69d891b6f); stroke: #000000; stroke-width: 0.75; stroke-linejoin: miter"/>
   </g>
   <g id="patch_87">
    <path d="M 286.023144 315.304875 
L 290.992346 315.304875 
L 290.992346 173.321682 
L 286.023144 173.321682 
z
" clip-path="url(#p212d3f08ec)" style="fill: url(#ha69d891b6f); stroke: #000000; stroke-width: 0.75; stroke-linejoin: miter"/>
   </g>
   <g id="patch_88">
    <path d="M 302.587151 315.304875 
L 307.556353 315.304875 
L 307.556353 173.321682 
L 302.587151 173.321682 
z
" clip-path="url(#p212d3f08ec)" style="fill: url(#ha69d891b6f); stroke: #000000; stroke-width: 0.75; stroke-linejoin: miter"/>
   </g>
   <g id="patch_89">
    <path d="M 319.151158 315.304875 
L 324.120361 315.304875 
L 324.120361 173.321682 
L 319.151158 173.321682 
z
" clip-path="url(#p212d3f08ec)" style="fill: url(#ha69d891b6f); stroke: #000000; stroke-width: 0.75; stroke-linejoin: miter"/>
   </g>
   <g id="patch_90">
    <path d="M 335.715166 315.304875 
L 340.684368 315.304875 
L 340.684368 173.321682 
L 335.715166 173.321682 
z
" clip-path="url(#p212d3f08ec)" style="fill: url(#ha69d891b6f); stroke: #000000; stroke-width: 0.75; stroke-linejoin: miter"/>
   </g>
   <g id="patch_91">
    <path d="M 352.279173 315.304875 
L 357.248375 315.304875 
L 357.248375 173.321682 
L 352.279173 173.321682 
z
" clip-path="url(#p212d3f08ec)" style="fill: url(#ha69d891b6f); stroke: #000000; stroke-width: 0.75; stroke-linejoin: miter"/>
   </g>
   <g id="patch_92">
    <path d="M 368.843181 315.304875 
L 373.812383 315.304875 
L 373.812383 66.834287 
L 368.843181 66.834287 
z
" clip-path="url(#p212d3f08ec)" style="fill: url(#ha69d891b6f); stroke: #000000; stroke-width: 0.75; stroke-linejoin: miter"/>
   </g>
   <g id="patch_93">
    <path d="M 385.407188 315.304875 
L 390.37639 315.304875 
L 390.37639 102.330085 
L 385.407188 102.330085 
z
" clip-path="url(#p212d3f08ec)" style="fill: url(#ha69d891b6f); stroke: #000000; stroke-width: 0.75; stroke-linejoin: miter"/>
   </g>
   <g id="patch_94">
    <path d="M 401.971196 315.304875 
L 406.940398 315.304875 
L 406.940398 137.825883 
L 401.971196 137.825883 
z
" clip-path="url(#p212d3f08ec)" style="fill: url(#ha69d891b6f); stroke: #000000; stroke-width: 0.75; stroke-linejoin: miter"/>
   </g>
   <g id="matplotlib.axis_1">
    <g id="xtick_1">
     <g id="line2d_1">
      <defs>
       <path id="m4a281eac31" d="M 0 0 
L 0 3.5 
" style="stroke: #000000; stroke-width: 0.8"/>
      </defs>
      <g>
       <use xlink:href="#m4a281eac31" x="87.255054" y="315.304875" style="stroke: #000000; stroke-width: 0.8"/>
      </g>
     </g>
     <g id="text_1">
      <!-- M -->
      <g transform="translate(82.940992 329.903312) scale(0.1 -0.1)">
       <defs>
        <path id="DejaVuSans-4d" d="M 628 4666 
L 1569 4666 
L 2759 1491 
L 3956 4666 
L 4897 4666 
L 4897 0 
L 4281 0 
L 4281 4097 
L 3078 897 
L 2444 897 
L 1241 4097 
L 1241 0 
L 628 0 
L 628 4666 
z
" transform="scale(0.015625)"/>
       </defs>
       <use xlink:href="#DejaVuSans-4d"/>
      </g>
     </g>
    </g>
    <g id="xtick_2">
     <g id="line2d_2">
      <g>
       <use xlink:href="#m4a281eac31" x="103.819062" y="315.304875" style="stroke: #000000; stroke-width: 0.8"/>
      </g>
     </g>
     <g id="text_2">
      <!-- W -->
      <g transform="translate(98.875312 329.903312) scale(0.1 -0.1)">
       <defs>
        <path id="DejaVuSans-57" d="M 213 4666 
L 850 4666 
L 1831 722 
L 2809 4666 
L 3519 4666 
L 4500 722 
L 5478 4666 
L 6119 4666 
L 4947 0 
L 4153 0 
L 3169 4050 
L 2175 0 
L 1381 0 
L 213 4666 
z
" transform="scale(0.015625)"/>
       </defs>
       <use xlink:href="#DejaVuSans-57"/>
      </g>
     </g>
    </g>
    <g id="xtick_3">
     <g id="line2d_3">
      <g>
       <use xlink:href="#m4a281eac31" x="120.383069" y="315.304875" style="stroke: #000000; stroke-width: 0.8"/>
      </g>
     </g>
     <g id="text_3">
      <!-- C -->
      <g transform="translate(116.891663 329.903312) scale(0.1 -0.1)">
       <defs>
        <path id="DejaVuSans-43" d="M 4122 4306 
L 4122 3641 
Q 3803 3938 3442 4084 
Q 3081 4231 2675 4231 
Q 1875 4231 1450 3742 
Q 1025 3253 1025 2328 
Q 1025 1406 1450 917 
Q 1875 428 2675 428 
Q 3081 428 3442 575 
Q 3803 722 4122 1019 
L 4122 359 
Q 3791 134 3420 21 
Q 3050 -91 2638 -91 
Q 1578 -91 968 557 
Q 359 1206 359 2328 
Q 359 3453 968 4101 
Q 1578 4750 2638 4750 
Q 3056 4750 3426 4639 
Q 3797 4528 4122 4306 
z
" transform="scale(0.015625)"/>
       </defs>
       <use xlink:href="#DejaVuSans-43"/>
      </g>
     </g>
    </g>
    <g id="xtick_4">
     <g id="line2d_4">
      <g>
       <use xlink:href="#m4a281eac31" x="136.947077" y="315.304875" style="stroke: #000000; stroke-width: 0.8"/>
      </g>
     </g>
     <g id="text_4">
      <!-- D -->
      <g transform="translate(133.097077 329.903312) scale(0.1 -0.1)">
       <defs>
        <path id="DejaVuSans-44" d="M 1259 4147 
L 1259 519 
L 2022 519 
Q 2988 519 3436 956 
Q 3884 1394 3884 2338 
Q 3884 3275 3436 3711 
Q 2988 4147 2022 4147 
L 1259 4147 
z
M 628 4666 
L 1925 4666 
Q 3281 4666 3915 4102 
Q 4550 3538 4550 2338 
Q 4550 1131 3912 565 
Q 3275 0 1925 0 
L 628 0 
L 628 4666 
z
" transform="scale(0.015625)"/>
       </defs>
       <use xlink:href="#DejaVuSans-44"/>
      </g>
     </g>
    </g>
    <g id="xtick_5">
     <g id="line2d_5">
      <g>
       <use xlink:href="#m4a281eac31" x="153.511084" y="315.304875" style="stroke: #000000; stroke-width: 0.8"/>
      </g>
     </g>
     <g id="text_5">
      <!-- E -->
      <g transform="translate(150.351709 329.903312) scale(0.1 -0.1)">
       <defs>
        <path id="DejaVuSans-45" d="M 628 4666 
L 3578 4666 
L 3578 4134 
L 1259 4134 
L 1259 2753 
L 3481 2753 
L 3481 2222 
L 1259 2222 
L 1259 531 
L 3634 531 
L 3634 0 
L 628 0 
L 628 4666 
z
" transform="scale(0.015625)"/>
       </defs>
       <use xlink:href="#DejaVuSans-45"/>
      </g>
     </g>
    </g>
    <g id="xtick_6">
     <g id="line2d_6">
      <g>
       <use xlink:href="#m4a281eac31" x="170.075092" y="315.304875" style="stroke: #000000; stroke-width: 0.8"/>
      </g>
     </g>
     <g id="text_6">
      <!-- F -->
      <g transform="translate(167.19931 329.903312) scale(0.1 -0.1)">
       <defs>
        <path id="DejaVuSans-46" d="M 628 4666 
L 3309 4666 
L 3309 4134 
L 1259 4134 
L 1259 2759 
L 3109 2759 
L 3109 2228 
L 1259 2228 
L 1259 0 
L 628 0 
L 628 4666 
z
" transform="scale(0.015625)"/>
       </defs>
       <use xlink:href="#DejaVuSans-46"/>
      </g>
     </g>
    </g>
    <g id="xtick_7">
     <g id="line2d_7">
      <g>
       <use xlink:href="#m4a281eac31" x="186.639099" y="315.304875" style="stroke: #000000; stroke-width: 0.8"/>
      </g>
     </g>
     <g id="text_7">
      <!-- H -->
      <g transform="translate(182.878943 329.903312) scale(0.1 -0.1)">
       <defs>
        <path id="DejaVuSans-48" d="M 628 4666 
L 1259 4666 
L 1259 2753 
L 3553 2753 
L 3553 4666 
L 4184 4666 
L 4184 0 
L 3553 0 
L 3553 2222 
L 1259 2222 
L 1259 0 
L 628 0 
L 628 4666 
z
" transform="scale(0.015625)"/>
       </defs>
       <use xlink:href="#DejaVuSans-48"/>
      </g>
     </g>
    </g>
    <g id="xtick_8">
     <g id="line2d_8">
      <g>
       <use xlink:href="#m4a281eac31" x="203.203106" y="315.304875" style="stroke: #000000; stroke-width: 0.8"/>
      </g>
     </g>
     <g id="text_8">
      <!-- K -->
      <g transform="translate(199.9242 329.903312) scale(0.1 -0.1)">
       <defs>
        <path id="DejaVuSans-4b" d="M 628 4666 
L 1259 4666 
L 1259 2694 
L 3353 4666 
L 4166 4666 
L 1850 2491 
L 4331 0 
L 3500 0 
L 1259 2247 
L 1259 0 
L 628 0 
L 628 4666 
z
" transform="scale(0.015625)"/>
       </defs>
       <use xlink:href="#DejaVuSans-4b"/>
      </g>
     </g>
    </g>
    <g id="xtick_9">
     <g id="line2d_9">
      <g>
       <use xlink:href="#m4a281eac31" x="219.767114" y="315.304875" style="stroke: #000000; stroke-width: 0.8"/>
      </g>
     </g>
     <g id="text_9">
      <!-- N -->
      <g transform="translate(216.026489 329.903312) scale(0.1 -0.1)">
       <defs>
        <path id="DejaVuSans-4e" d="M 628 4666 
L 1478 4666 
L 3547 763 
L 3547 4666 
L 4159 4666 
L 4159 0 
L 3309 0 
L 1241 3903 
L 1241 0 
L 628 0 
L 628 4666 
z
" transform="scale(0.015625)"/>
       </defs>
       <use xlink:href="#DejaVuSans-4e"/>
      </g>
     </g>
    </g>
    <g id="xtick_10">
     <g id="line2d_10">
      <g>
       <use xlink:href="#m4a281eac31" x="236.331121" y="315.304875" style="stroke: #000000; stroke-width: 0.8"/>
      </g>
     </g>
     <g id="text_10">
      <!-- Q -->
      <g transform="translate(232.395184 329.903312) scale(0.1 -0.1)">
       <defs>
        <path id="DejaVuSans-51" d="M 2522 4238 
Q 1834 4238 1429 3725 
Q 1025 3213 1025 2328 
Q 1025 1447 1429 934 
Q 1834 422 2522 422 
Q 3209 422 3611 934 
Q 4013 1447 4013 2328 
Q 4013 3213 3611 3725 
Q 3209 4238 2522 4238 
z
M 3406 84 
L 4238 -825 
L 3475 -825 
L 2784 -78 
Q 2681 -84 2626 -87 
Q 2572 -91 2522 -91 
Q 1538 -91 948 567 
Q 359 1225 359 2328 
Q 359 3434 948 4092 
Q 1538 4750 2522 4750 
Q 3503 4750 4090 4092 
Q 4678 3434 4678 2328 
Q 4678 1516 4351 937 
Q 4025 359 3406 84 
z
" transform="scale(0.015625)"/>
       </defs>
       <use xlink:href="#DejaVuSans-51"/>
      </g>
     </g>
    </g>
    <g id="xtick_11">
     <g id="line2d_11">
      <g>
       <use xlink:href="#m4a281eac31" x="252.895129" y="315.304875" style="stroke: #000000; stroke-width: 0.8"/>
      </g>
     </g>
     <g id="text_11">
      <!-- Y -->
      <g transform="translate(249.841222 329.903312) scale(0.1 -0.1)">
       <defs>
        <path id="DejaVuSans-59" d="M -13 4666 
L 666 4666 
L 1959 2747 
L 3244 4666 
L 3922 4666 
L 2272 2222 
L 2272 0 
L 1638 0 
L 1638 2222 
L -13 4666 
z
" transform="scale(0.015625)"/>
       </defs>
       <use xlink:href="#DejaVuSans-59"/>
      </g>
     </g>
    </g>
    <g id="xtick_12">
     <g id="line2d_12">
      <g>
       <use xlink:href="#m4a281eac31" x="269.459136" y="315.304875" style="stroke: #000000; stroke-width: 0.8"/>
      </g>
     </g>
     <g id="text_12">
      <!-- I -->
      <g transform="translate(267.984136 329.903312) scale(0.1 -0.1)">
       <defs>
        <path id="DejaVuSans-49" d="M 628 4666 
L 1259 4666 
L 1259 0 
L 628 0 
L 628 4666 
z
" transform="scale(0.015625)"/>
       </defs>
       <use xlink:href="#DejaVuSans-49"/>
      </g>
     </g>
    </g>
    <g id="xtick_13">
     <g id="line2d_13">
      <g>
       <use xlink:href="#m4a281eac31" x="286.023144" y="315.304875" style="stroke: #000000; stroke-width: 0.8"/>
      </g>
     </g>
     <g id="text_13">
      <!-- A -->
      <g transform="translate(282.602831 329.903312) scale(0.1 -0.1)">
       <defs>
        <path id="DejaVuSans-41" d="M 2188 4044 
L 1331 1722 
L 3047 1722 
L 2188 4044 
z
M 1831 4666 
L 2547 4666 
L 4325 0 
L 3669 0 
L 3244 1197 
L 1141 1197 
L 716 0 
L 50 0 
L 1831 4666 
z
" transform="scale(0.015625)"/>
       </defs>
       <use xlink:href="#DejaVuSans-41"/>
      </g>
     </g>
    </g>
    <g id="xtick_14">
     <g id="line2d_14">
      <g>
       <use xlink:href="#m4a281eac31" x="302.587151" y="315.304875" style="stroke: #000000; stroke-width: 0.8"/>
      </g>
     </g>
     <g id="text_14">
      <!-- G -->
      <g transform="translate(298.712932 329.903312) scale(0.1 -0.1)">
       <defs>
        <path id="DejaVuSans-47" d="M 3809 666 
L 3809 1919 
L 2778 1919 
L 2778 2438 
L 4434 2438 
L 4434 434 
Q 4069 175 3628 42 
Q 3188 -91 2688 -91 
Q 1594 -91 976 548 
Q 359 1188 359 2328 
Q 359 3472 976 4111 
Q 1594 4750 2688 4750 
Q 3144 4750 3555 4637 
Q 3966 4525 4313 4306 
L 4313 3634 
Q 3963 3931 3569 4081 
Q 3175 4231 2741 4231 
Q 1884 4231 1454 3753 
Q 1025 3275 1025 2328 
Q 1025 1384 1454 906 
Q 1884 428 2741 428 
Q 3075 428 3337 486 
Q 3600 544 3809 666 
z
" transform="scale(0.015625)"/>
       </defs>
       <use xlink:href="#DejaVuSans-47"/>
      </g>
     </g>
    </g>
    <g id="xtick_15">
     <g id="line2d_15">
      <g>
       <use xlink:href="#m4a281eac31" x="319.151158" y="315.304875" style="stroke: #000000; stroke-width: 0.8"/>
      </g>
     </g>
     <g id="text_15">
      <!-- P -->
      <g transform="translate(316.136315 329.903312) scale(0.1 -0.1)">
       <defs>
        <path id="DejaVuSans-50" d="M 1259 4147 
L 1259 2394 
L 2053 2394 
Q 2494 2394 2734 2622 
Q 2975 2850 2975 3272 
Q 2975 3691 2734 3919 
Q 2494 4147 2053 4147 
L 1259 4147 
z
M 628 4666 
L 2053 4666 
Q 2838 4666 3239 4311 
Q 3641 3956 3641 3272 
Q 3641 2581 3239 2228 
Q 2838 1875 2053 1875 
L 1259 1875 
L 1259 0 
L 628 0 
L 628 4666 
z
" transform="scale(0.015625)"/>
       </defs>
       <use xlink:href="#DejaVuSans-50"/>
      </g>
     </g>
    </g>
    <g id="xtick_16">
     <g id="line2d_16">
      <g>
       <use xlink:href="#m4a281eac31" x="335.715166" y="315.304875" style="stroke: #000000; stroke-width: 0.8"/>
      </g>
     </g>
     <g id="text_16">
      <!-- T -->
      <g transform="translate(332.66126 329.903312) scale(0.1 -0.1)">
       <defs>
        <path id="DejaVuSans-54" d="M -19 4666 
L 3928 4666 
L 3928 4134 
L 2272 4134 
L 2272 0 
L 1638 0 
L 1638 4134 
L -19 4134 
L -19 4666 
z
" transform="scale(0.015625)"/>
       </defs>
       <use xlink:href="#DejaVuSans-54"/>
      </g>
     </g>
    </g>
    <g id="xtick_17">
     <g id="line2d_17">
      <g>
       <use xlink:href="#m4a281eac31" x="352.279173" y="315.304875" style="stroke: #000000; stroke-width: 0.8"/>
      </g>
     </g>
     <g id="text_17">
      <!-- V -->
      <g transform="translate(348.858861 329.903312) scale(0.1 -0.1)">
       <defs>
        <path id="DejaVuSans-56" d="M 1831 0 
L 50 4666 
L 709 4666 
L 2188 738 
L 3669 4666 
L 4325 4666 
L 2547 0 
L 1831 0 
z
" transform="scale(0.015625)"/>
       </defs>
       <use xlink:href="#DejaVuSans-56"/>
      </g>
     </g>
    </g>
    <g id="xtick_18">
     <g id="line2d_18">
      <g>
       <use xlink:href="#m4a281eac31" x="368.843181" y="315.304875" style="stroke: #000000; stroke-width: 0.8"/>
      </g>
     </g>
     <g id="text_18">
      <!-- L -->
      <g transform="translate(366.057243 329.903312) scale(0.1 -0.1)">
       <defs>
        <path id="DejaVuSans-4c" d="M 628 4666 
L 1259 4666 
L 1259 531 
L 3531 531 
L 3531 0 
L 628 0 
L 628 4666 
z
" transform="scale(0.015625)"/>
       </defs>
       <use xlink:href="#DejaVuSans-4c"/>
      </g>
     </g>
    </g>
    <g id="xtick_19">
     <g id="line2d_19">
      <g>
       <use xlink:href="#m4a281eac31" x="385.407188" y="315.304875" style="stroke: #000000; stroke-width: 0.8"/>
      </g>
     </g>
     <g id="text_19">
      <!-- R -->
      <g transform="translate(381.932969 329.903312) scale(0.1 -0.1)">
       <defs>
        <path id="DejaVuSans-52" d="M 2841 2188 
Q 3044 2119 3236 1894 
Q 3428 1669 3622 1275 
L 4263 0 
L 3584 0 
L 2988 1197 
Q 2756 1666 2539 1819 
Q 2322 1972 1947 1972 
L 1259 1972 
L 1259 0 
L 628 0 
L 628 4666 
L 2053 4666 
Q 2853 4666 3247 4331 
Q 3641 3997 3641 3322 
Q 3641 2881 3436 2590 
Q 3231 2300 2841 2188 
z
M 1259 4147 
L 1259 2491 
L 2053 2491 
Q 2509 2491 2742 2702 
Q 2975 2913 2975 3322 
Q 2975 3731 2742 3939 
Q 2509 4147 2053 4147 
L 1259 4147 
z
" transform="scale(0.015625)"/>
       </defs>
       <use xlink:href="#DejaVuSans-52"/>
      </g>
     </g>
    </g>
    <g id="xtick_20">
     <g id="line2d_20">
      <g>
       <use xlink:href="#m4a281eac31" x="401.971196" y="315.304875" style="stroke: #000000; stroke-width: 0.8"/>
      </g>
     </g>
     <g id="text_20">
      <!-- S -->
      <g transform="translate(398.796977 329.903312) scale(0.1 -0.1)">
       <defs>
        <path id="DejaVuSans-53" d="M 3425 4513 
L 3425 3897 
Q 3066 4069 2747 4153 
Q 2428 4238 2131 4238 
Q 1616 4238 1336 4038 
Q 1056 3838 1056 3469 
Q 1056 3159 1242 3001 
Q 1428 2844 1947 2747 
L 2328 2669 
Q 3034 2534 3370 2195 
Q 3706 1856 3706 1288 
Q 3706 609 3251 259 
Q 2797 -91 1919 -91 
Q 1588 -91 1214 -16 
Q 841 59 441 206 
L 441 856 
Q 825 641 1194 531 
Q 1563 422 1919 422 
Q 2459 422 2753 634 
Q 3047 847 3047 1241 
Q 3047 1584 2836 1778 
Q 2625 1972 2144 2069 
L 1759 2144 
Q 1053 2284 737 2584 
Q 422 2884 422 3419 
Q 422 4038 858 4394 
Q 1294 4750 2059 4750 
Q 2388 4750 2728 4690 
Q 3069 4631 3425 4513 
z
" transform="scale(0.015625)"/>
       </defs>
       <use xlink:href="#DejaVuSans-53"/>
      </g>
     </g>
    </g>
    <g id="text_21">
     <!-- Amino acid -->
     <g transform="translate(216.739688 343.581437) scale(0.1 -0.1)">
      <defs>
       <path id="DejaVuSans-6d" d="M 3328 2828 
Q 3544 3216 3844 3400 
Q 4144 3584 4550 3584 
Q 5097 3584 5394 3201 
Q 5691 2819 5691 2113 
L 5691 0 
L 5113 0 
L 5113 2094 
Q 5113 2597 4934 2840 
Q 4756 3084 4391 3084 
Q 3944 3084 3684 2787 
Q 3425 2491 3425 1978 
L 3425 0 
L 2847 0 
L 2847 2094 
Q 2847 2600 2669 2842 
Q 2491 3084 2119 3084 
Q 1678 3084 1418 2786 
Q 1159 2488 1159 1978 
L 1159 0 
L 581 0 
L 581 3500 
L 1159 3500 
L 1159 2956 
Q 1356 3278 1631 3431 
Q 1906 3584 2284 3584 
Q 2666 3584 2933 3390 
Q 3200 3197 3328 2828 
z
" transform="scale(0.015625)"/>
       <path id="DejaVuSans-69" d="M 603 3500 
L 1178 3500 
L 1178 0 
L 603 0 
L 603 3500 
z
M 603 4863 
L 1178 4863 
L 1178 4134 
L 603 4134 
L 603 4863 
z
" transform="scale(0.015625)"/>
       <path id="DejaVuSans-6e" d="M 3513 2113 
L 3513 0 
L 2938 0 
L 2938 2094 
Q 2938 2591 2744 2837 
Q 2550 3084 2163 3084 
Q 1697 3084 1428 2787 
Q 1159 2491 1159 1978 
L 1159 0 
L 581 0 
L 581 3500 
L 1159 3500 
L 1159 2956 
Q 1366 3272 1645 3428 
Q 1925 3584 2291 3584 
Q 2894 3584 3203 3211 
Q 3513 2838 3513 2113 
z
" transform="scale(0.015625)"/>
       <path id="DejaVuSans-6f" d="M 1959 3097 
Q 1497 3097 1228 2736 
Q 959 2375 959 1747 
Q 959 1119 1226 758 
Q 1494 397 1959 397 
Q 2419 397 2687 759 
Q 2956 1122 2956 1747 
Q 2956 2369 2687 2733 
Q 2419 3097 1959 3097 
z
M 1959 3584 
Q 2709 3584 3137 3096 
Q 3566 2609 3566 1747 
Q 3566 888 3137 398 
Q 2709 -91 1959 -91 
Q 1206 -91 779 398 
Q 353 888 353 1747 
Q 353 2609 779 3096 
Q 1206 3584 1959 3584 
z
" transform="scale(0.015625)"/>
       <path id="DejaVuSans-20" transform="scale(0.015625)"/>
       <path id="DejaVuSans-61" d="M 2194 1759 
Q 1497 1759 1228 1600 
Q 959 1441 959 1056 
Q 959 750 1161 570 
Q 1363 391 1709 391 
Q 2188 391 2477 730 
Q 2766 1069 2766 1631 
L 2766 1759 
L 2194 1759 
z
M 3341 1997 
L 3341 0 
L 2766 0 
L 2766 531 
Q 2569 213 2275 61 
Q 1981 -91 1556 -91 
Q 1019 -91 701 211 
Q 384 513 384 1019 
Q 384 1609 779 1909 
Q 1175 2209 1959 2209 
L 2766 2209 
L 2766 2266 
Q 2766 2663 2505 2880 
Q 2244 3097 1772 3097 
Q 1472 3097 1187 3025 
Q 903 2953 641 2809 
L 641 3341 
Q 956 3463 1253 3523 
Q 1550 3584 1831 3584 
Q 2591 3584 2966 3190 
Q 3341 2797 3341 1997 
z
" transform="scale(0.015625)"/>
       <path id="DejaVuSans-63" d="M 3122 3366 
L 3122 2828 
Q 2878 2963 2633 3030 
Q 2388 3097 2138 3097 
Q 1578 3097 1268 2742 
Q 959 2388 959 1747 
Q 959 1106 1268 751 
Q 1578 397 2138 397 
Q 2388 397 2633 464 
Q 2878 531 3122 666 
L 3122 134 
Q 2881 22 2623 -34 
Q 2366 -91 2075 -91 
Q 1284 -91 818 406 
Q 353 903 353 1747 
Q 353 2603 823 3093 
Q 1294 3584 2113 3584 
Q 2378 3584 2631 3529 
Q 2884 3475 3122 3366 
z
" transform="scale(0.015625)"/>
       <path id="DejaVuSans-64" d="M 2906 2969 
L 2906 4863 
L 3481 4863 
L 3481 0 
L 2906 0 
L 2906 525 
Q 2725 213 2448 61 
Q 2172 -91 1784 -91 
Q 1150 -91 751 415 
Q 353 922 353 1747 
Q 353 2572 751 3078 
Q 1150 3584 1784 3584 
Q 2172 3584 2448 3432 
Q 2725 3281 2906 2969 
z
M 947 1747 
Q 947 1113 1208 752 
Q 1469 391 1925 391 
Q 2381 391 2643 752 
Q 2906 1113 2906 1747 
Q 2906 2381 2643 2742 
Q 2381 3103 1925 3103 
Q 1469 3103 1208 2742 
Q 947 2381 947 1747 
z
" transform="scale(0.015625)"/>
      </defs>
      <use xlink:href="#DejaVuSans-41"/>
      <use xlink:href="#DejaVuSans-6d" x="68.408203"/>
      <use xlink:href="#DejaVuSans-69" x="165.820312"/>
      <use xlink:href="#DejaVuSans-6e" x="193.603516"/>
      <use xlink:href="#DejaVuSans-6f" x="256.982422"/>
      <use xlink:href="#DejaVuSans-20" x="318.164062"/>
      <use xlink:href="#DejaVuSans-61" x="349.951172"/>
      <use xlink:href="#DejaVuSans-63" x="411.230469"/>
      <use xlink:href="#DejaVuSans-69" x="466.210938"/>
      <use xlink:href="#DejaVuSans-64" x="493.994141"/>
     </g>
    </g>
   </g>
   <g id="matplotlib.axis_2">
    <g id="ytick_1">
     <g id="line2d_21">
      <defs>
       <path id="m588319c7ac" d="M 0 0 
L -3.5 0 
" style="stroke: #000000; stroke-width: 0.8"/>
      </defs>
      <g>
       <use xlink:href="#m588319c7ac" x="66.053125" y="315.304875" style="stroke: #000000; stroke-width: 0.8"/>
      </g>
     </g>
     <g id="text_22">
      <!-- 0 -->
      <g transform="translate(52.690625 319.104094) scale(0.1 -0.1)">
       <defs>
        <path id="DejaVuSans-30" d="M 2034 4250 
Q 1547 4250 1301 3770 
Q 1056 3291 1056 2328 
Q 1056 1369 1301 889 
Q 1547 409 2034 409 
Q 2525 409 2770 889 
Q 3016 1369 3016 2328 
Q 3016 3291 2770 3770 
Q 2525 4250 2034 4250 
z
M 2034 4750 
Q 2819 4750 3233 4129 
Q 3647 3509 3647 2328 
Q 3647 1150 3233 529 
Q 2819 -91 2034 -91 
Q 1250 -91 836 529 
Q 422 1150 422 2328 
Q 422 3509 836 4129 
Q 1250 4750 2034 4750 
z
" transform="scale(0.015625)"/>
       </defs>
       <use xlink:href="#DejaVuSans-30"/>
      </g>
     </g>
    </g>
    <g id="ytick_2">
     <g id="line2d_22">
      <g>
       <use xlink:href="#m588319c7ac" x="66.053125" y="282.669242" style="stroke: #000000; stroke-width: 0.8"/>
      </g>
     </g>
     <g id="text_23">
      <!-- 50000 -->
      <g transform="translate(27.240625 286.468461) scale(0.1 -0.1)">
       <defs>
        <path id="DejaVuSans-35" d="M 691 4666 
L 3169 4666 
L 3169 4134 
L 1269 4134 
L 1269 2991 
Q 1406 3038 1543 3061 
Q 1681 3084 1819 3084 
Q 2600 3084 3056 2656 
Q 3513 2228 3513 1497 
Q 3513 744 3044 326 
Q 2575 -91 1722 -91 
Q 1428 -91 1123 -41 
Q 819 9 494 109 
L 494 744 
Q 775 591 1075 516 
Q 1375 441 1709 441 
Q 2250 441 2565 725 
Q 2881 1009 2881 1497 
Q 2881 1984 2565 2268 
Q 2250 2553 1709 2553 
Q 1456 2553 1204 2497 
Q 953 2441 691 2322 
L 691 4666 
z
" transform="scale(0.015625)"/>
       </defs>
       <use xlink:href="#DejaVuSans-35"/>
       <use xlink:href="#DejaVuSans-30" x="63.623047"/>
       <use xlink:href="#DejaVuSans-30" x="127.246094"/>
       <use xlink:href="#DejaVuSans-30" x="190.869141"/>
       <use xlink:href="#DejaVuSans-30" x="254.492188"/>
      </g>
     </g>
    </g>
    <g id="ytick_3">
     <g id="line2d_23">
      <g>
       <use xlink:href="#m588319c7ac" x="66.053125" y="250.033609" style="stroke: #000000; stroke-width: 0.8"/>
      </g>
     </g>
     <g id="text_24">
      <!-- 100000 -->
      <g transform="translate(20.878125 253.832828) scale(0.1 -0.1)">
       <defs>
        <path id="DejaVuSans-31" d="M 794 531 
L 1825 531 
L 1825 4091 
L 703 3866 
L 703 4441 
L 1819 4666 
L 2450 4666 
L 2450 531 
L 3481 531 
L 3481 0 
L 794 0 
L 794 531 
z
" transform="scale(0.015625)"/>
       </defs>
       <use xlink:href="#DejaVuSans-31"/>
       <use xlink:href="#DejaVuSans-30" x="63.623047"/>
       <use xlink:href="#DejaVuSans-30" x="127.246094"/>
       <use xlink:href="#DejaVuSans-30" x="190.869141"/>
       <use xlink:href="#DejaVuSans-30" x="254.492188"/>
       <use xlink:href="#DejaVuSans-30" x="318.115234"/>
      </g>
     </g>
    </g>
    <g id="ytick_4">
     <g id="line2d_24">
      <g>
       <use xlink:href="#m588319c7ac" x="66.053125" y="217.397976" style="stroke: #000000; stroke-width: 0.8"/>
      </g>
     </g>
     <g id="text_25">
      <!-- 150000 -->
      <g transform="translate(20.878125 221.197195) scale(0.1 -0.1)">
       <use xlink:href="#DejaVuSans-31"/>
       <use xlink:href="#DejaVuSans-35" x="63.623047"/>
       <use xlink:href="#DejaVuSans-30" x="127.246094"/>
       <use xlink:href="#DejaVuSans-30" x="190.869141"/>
       <use xlink:href="#DejaVuSans-30" x="254.492188"/>
       <use xlink:href="#DejaVuSans-30" x="318.115234"/>
      </g>
     </g>
    </g>
    <g id="ytick_5">
     <g id="line2d_25">
      <g>
       <use xlink:href="#m588319c7ac" x="66.053125" y="184.762344" style="stroke: #000000; stroke-width: 0.8"/>
      </g>
     </g>
     <g id="text_26">
      <!-- 200000 -->
      <g transform="translate(20.878125 188.561562) scale(0.1 -0.1)">
       <defs>
        <path id="DejaVuSans-32" d="M 1228 531 
L 3431 531 
L 3431 0 
L 469 0 
L 469 531 
Q 828 903 1448 1529 
Q 2069 2156 2228 2338 
Q 2531 2678 2651 2914 
Q 2772 3150 2772 3378 
Q 2772 3750 2511 3984 
Q 2250 4219 1831 4219 
Q 1534 4219 1204 4116 
Q 875 4013 500 3803 
L 500 4441 
Q 881 4594 1212 4672 
Q 1544 4750 1819 4750 
Q 2544 4750 2975 4387 
Q 3406 4025 3406 3419 
Q 3406 3131 3298 2873 
Q 3191 2616 2906 2266 
Q 2828 2175 2409 1742 
Q 1991 1309 1228 531 
z
" transform="scale(0.015625)"/>
       </defs>
       <use xlink:href="#DejaVuSans-32"/>
       <use xlink:href="#DejaVuSans-30" x="63.623047"/>
       <use xlink:href="#DejaVuSans-30" x="127.246094"/>
       <use xlink:href="#DejaVuSans-30" x="190.869141"/>
       <use xlink:href="#DejaVuSans-30" x="254.492188"/>
       <use xlink:href="#DejaVuSans-30" x="318.115234"/>
      </g>
     </g>
    </g>
    <g id="ytick_6">
     <g id="line2d_26">
      <g>
       <use xlink:href="#m588319c7ac" x="66.053125" y="152.126711" style="stroke: #000000; stroke-width: 0.8"/>
      </g>
     </g>
     <g id="text_27">
      <!-- 250000 -->
      <g transform="translate(20.878125 155.925929) scale(0.1 -0.1)">
       <use xlink:href="#DejaVuSans-32"/>
       <use xlink:href="#DejaVuSans-35" x="63.623047"/>
       <use xlink:href="#DejaVuSans-30" x="127.246094"/>
       <use xlink:href="#DejaVuSans-30" x="190.869141"/>
       <use xlink:href="#DejaVuSans-30" x="254.492188"/>
       <use xlink:href="#DejaVuSans-30" x="318.115234"/>
      </g>
     </g>
    </g>
    <g id="ytick_7">
     <g id="line2d_27">
      <g>
       <use xlink:href="#m588319c7ac" x="66.053125" y="119.491078" style="stroke: #000000; stroke-width: 0.8"/>
      </g>
     </g>
     <g id="text_28">
      <!-- 300000 -->
      <g transform="translate(20.878125 123.290297) scale(0.1 -0.1)">
       <defs>
        <path id="DejaVuSans-33" d="M 2597 2516 
Q 3050 2419 3304 2112 
Q 3559 1806 3559 1356 
Q 3559 666 3084 287 
Q 2609 -91 1734 -91 
Q 1441 -91 1130 -33 
Q 819 25 488 141 
L 488 750 
Q 750 597 1062 519 
Q 1375 441 1716 441 
Q 2309 441 2620 675 
Q 2931 909 2931 1356 
Q 2931 1769 2642 2001 
Q 2353 2234 1838 2234 
L 1294 2234 
L 1294 2753 
L 1863 2753 
Q 2328 2753 2575 2939 
Q 2822 3125 2822 3475 
Q 2822 3834 2567 4026 
Q 2313 4219 1838 4219 
Q 1578 4219 1281 4162 
Q 984 4106 628 3988 
L 628 4550 
Q 988 4650 1302 4700 
Q 1616 4750 1894 4750 
Q 2613 4750 3031 4423 
Q 3450 4097 3450 3541 
Q 3450 3153 3228 2886 
Q 3006 2619 2597 2516 
z
" transform="scale(0.015625)"/>
       </defs>
       <use xlink:href="#DejaVuSans-33"/>
       <use xlink:href="#DejaVuSans-30" x="63.623047"/>
       <use xlink:href="#DejaVuSans-30" x="127.246094"/>
       <use xlink:href="#DejaVuSans-30" x="190.869141"/>
       <use xlink:href="#DejaVuSans-30" x="254.492188"/>
       <use xlink:href="#DejaVuSans-30" x="318.115234"/>
      </g>
     </g>
    </g>
    <g id="ytick_8">
     <g id="line2d_28">
      <g>
       <use xlink:href="#m588319c7ac" x="66.053125" y="86.855445" style="stroke: #000000; stroke-width: 0.8"/>
      </g>
     </g>
     <g id="text_29">
      <!-- 350000 -->
      <g transform="translate(20.878125 90.654664) scale(0.1 -0.1)">
       <use xlink:href="#DejaVuSans-33"/>
       <use xlink:href="#DejaVuSans-35" x="63.623047"/>
       <use xlink:href="#DejaVuSans-30" x="127.246094"/>
       <use xlink:href="#DejaVuSans-30" x="190.869141"/>
       <use xlink:href="#DejaVuSans-30" x="254.492188"/>
       <use xlink:href="#DejaVuSans-30" x="318.115234"/>
      </g>
     </g>
    </g>
    <g id="ytick_9">
     <g id="line2d_29">
      <g>
       <use xlink:href="#m588319c7ac" x="66.053125" y="54.219812" style="stroke: #000000; stroke-width: 0.8"/>
      </g>
     </g>
     <g id="text_30">
      <!-- 400000 -->
      <g transform="translate(20.878125 58.019031) scale(0.1 -0.1)">
       <defs>
        <path id="DejaVuSans-34" d="M 2419 4116 
L 825 1625 
L 2419 1625 
L 2419 4116 
z
M 2253 4666 
L 3047 4666 
L 3047 1625 
L 3713 1625 
L 3713 1100 
L 3047 1100 
L 3047 0 
L 2419 0 
L 2419 1100 
L 313 1100 
L 313 1709 
L 2253 4666 
z
" transform="scale(0.015625)"/>
       </defs>
       <use xlink:href="#DejaVuSans-34"/>
       <use xlink:href="#DejaVuSans-30" x="63.623047"/>
       <use xlink:href="#DejaVuSans-30" x="127.246094"/>
       <use xlink:href="#DejaVuSans-30" x="190.869141"/>
       <use xlink:href="#DejaVuSans-30" x="254.492188"/>
       <use xlink:href="#DejaVuSans-30" x="318.115234"/>
      </g>
     </g>
    </g>
    <g id="text_31">
     <!-- Summed amino acid number -->
     <g transform="translate(14.798437 254.792625) rotate(-90) scale(0.1 -0.1)">
      <defs>
       <path id="DejaVuSans-75" d="M 544 1381 
L 544 3500 
L 1119 3500 
L 1119 1403 
Q 1119 906 1312 657 
Q 1506 409 1894 409 
Q 2359 409 2629 706 
Q 2900 1003 2900 1516 
L 2900 3500 
L 3475 3500 
L 3475 0 
L 2900 0 
L 2900 538 
Q 2691 219 2414 64 
Q 2138 -91 1772 -91 
Q 1169 -91 856 284 
Q 544 659 544 1381 
z
M 1991 3584 
L 1991 3584 
z
" transform="scale(0.015625)"/>
       <path id="DejaVuSans-65" d="M 3597 1894 
L 3597 1613 
L 953 1613 
Q 991 1019 1311 708 
Q 1631 397 2203 397 
Q 2534 397 2845 478 
Q 3156 559 3463 722 
L 3463 178 
Q 3153 47 2828 -22 
Q 2503 -91 2169 -91 
Q 1331 -91 842 396 
Q 353 884 353 1716 
Q 353 2575 817 3079 
Q 1281 3584 2069 3584 
Q 2775 3584 3186 3129 
Q 3597 2675 3597 1894 
z
M 3022 2063 
Q 3016 2534 2758 2815 
Q 2500 3097 2075 3097 
Q 1594 3097 1305 2825 
Q 1016 2553 972 2059 
L 3022 2063 
z
" transform="scale(0.015625)"/>
       <path id="DejaVuSans-62" d="M 3116 1747 
Q 3116 2381 2855 2742 
Q 2594 3103 2138 3103 
Q 1681 3103 1420 2742 
Q 1159 2381 1159 1747 
Q 1159 1113 1420 752 
Q 1681 391 2138 391 
Q 2594 391 2855 752 
Q 3116 1113 3116 1747 
z
M 1159 2969 
Q 1341 3281 1617 3432 
Q 1894 3584 2278 3584 
Q 2916 3584 3314 3078 
Q 3713 2572 3713 1747 
Q 3713 922 3314 415 
Q 2916 -91 2278 -91 
Q 1894 -91 1617 61 
Q 1341 213 1159 525 
L 1159 0 
L 581 0 
L 581 4863 
L 1159 4863 
L 1159 2969 
z
" transform="scale(0.015625)"/>
       <path id="DejaVuSans-72" d="M 2631 2963 
Q 2534 3019 2420 3045 
Q 2306 3072 2169 3072 
Q 1681 3072 1420 2755 
Q 1159 2438 1159 1844 
L 1159 0 
L 581 0 
L 581 3500 
L 1159 3500 
L 1159 2956 
Q 1341 3275 1631 3429 
Q 1922 3584 2338 3584 
Q 2397 3584 2469 3576 
Q 2541 3569 2628 3553 
L 2631 2963 
z
" transform="scale(0.015625)"/>
      </defs>
      <use xlink:href="#DejaVuSans-53"/>
      <use xlink:href="#DejaVuSans-75" x="63.476562"/>
      <use xlink:href="#DejaVuSans-6d" x="126.855469"/>
      <use xlink:href="#DejaVuSans-6d" x="224.267578"/>
      <use xlink:href="#DejaVuSans-65" x="321.679688"/>
      <use xlink:href="#DejaVuSans-64" x="383.203125"/>
      <use xlink:href="#DejaVuSans-20" x="446.679688"/>
      <use xlink:href="#DejaVuSans-61" x="478.466797"/>
      <use xlink:href="#DejaVuSans-6d" x="539.746094"/>
      <use xlink:href="#DejaVuSans-69" x="637.158203"/>
      <use xlink:href="#DejaVuSans-6e" x="664.941406"/>
      <use xlink:href="#DejaVuSans-6f" x="728.320312"/>
      <use xlink:href="#DejaVuSans-20" x="789.501953"/>
      <use xlink:href="#DejaVuSans-61" x="821.289062"/>
      <use xlink:href="#DejaVuSans-63" x="882.568359"/>
      <use xlink:href="#DejaVuSans-69" x="937.548828"/>
      <use xlink:href="#DejaVuSans-64" x="965.332031"/>
      <use xlink:href="#DejaVuSans-20" x="1028.808594"/>
      <use xlink:href="#DejaVuSans-6e" x="1060.595703"/>
      <use xlink:href="#DejaVuSans-75" x="1123.974609"/>
      <use xlink:href="#DejaVuSans-6d" x="1187.353516"/>
      <use xlink:href="#DejaVuSans-62" x="1284.765625"/>
      <use xlink:href="#DejaVuSans-65" x="1348.242188"/>
      <use xlink:href="#DejaVuSans-72" x="1409.765625"/>
     </g>
    </g>
   </g>
   <g id="line2d_30">
    <path d="M 82.285852 260.809414 
L 82.285852 258.324708 
L 92.224257 258.324708 
L 92.224257 277.324371 
" clip-path="url(#p212d3f08ec)" style="fill: none; stroke: #000000; stroke-linecap: square"/>
   </g>
   <g id="line2d_31">
    <path d="M 98.84986 294.385606 
L 98.84986 274.839665 
L 108.788264 274.839665 
L 108.788264 277.324371 
" clip-path="url(#p212d3f08ec)" style="fill: none; stroke: #000000; stroke-linecap: square"/>
   </g>
   <g id="line2d_32">
    <path d="M 115.413867 292.794292 
L 115.413867 239.343867 
L 125.352272 239.343867 
L 125.352272 241.828572 
" clip-path="url(#p212d3f08ec)" style="fill: none; stroke: #000000; stroke-linecap: square"/>
   </g>
   <g id="line2d_33">
    <path d="M 131.977875 182.902936 
L 131.977875 180.418231 
L 141.916279 180.418231 
L 141.916279 241.828572 
" clip-path="url(#p212d3f08ec)" style="fill: none; stroke: #000000; stroke-linecap: square"/>
   </g>
   <g id="line2d_34">
    <path d="M 148.541882 127.847277 
L 148.541882 125.362571 
L 158.480286 125.362571 
L 158.480286 241.828572 
" clip-path="url(#p212d3f08ec)" style="fill: none; stroke: #000000; stroke-linecap: square"/>
   </g>
   <g id="line2d_35">
    <path d="M 165.105889 237.23996 
L 165.105889 234.755254 
L 175.044294 234.755254 
L 175.044294 241.828572 
" clip-path="url(#p212d3f08ec)" style="fill: none; stroke: #000000; stroke-linecap: square"/>
   </g>
   <g id="line2d_36">
    <path d="M 181.669897 274.528781 
L 181.669897 239.343867 
L 191.608301 239.343867 
L 191.608301 241.828572 
" clip-path="url(#p212d3f08ec)" style="fill: none; stroke: #000000; stroke-linecap: square"/>
   </g>
   <g id="line2d_37">
    <path d="M 198.233904 164.553878 
L 198.233904 162.069172 
L 208.172309 162.069172 
L 208.172309 241.828572 
" clip-path="url(#p212d3f08ec)" style="fill: none; stroke: #000000; stroke-linecap: square"/>
   </g>
   <g id="line2d_38">
    <path d="M 214.797912 235.997195 
L 214.797912 233.512489 
L 224.736316 233.512489 
L 224.736316 241.828572 
" clip-path="url(#p212d3f08ec)" style="fill: none; stroke: #000000; stroke-linecap: square"/>
   </g>
   <g id="line2d_39">
    <path d="M 231.361919 265.860104 
L 231.361919 239.343867 
L 241.300324 239.343867 
L 241.300324 241.828572 
" clip-path="url(#p212d3f08ec)" style="fill: none; stroke: #000000; stroke-linecap: square"/>
   </g>
   <g id="line2d_40">
    <path d="M 247.925926 238.781014 
L 247.925926 236.296308 
L 257.864331 236.296308 
L 257.864331 241.828572 
" clip-path="url(#p212d3f08ec)" style="fill: none; stroke: #000000; stroke-linecap: square"/>
   </g>
   <g id="line2d_41">
    <path d="M 264.489934 149.305205 
L 264.489934 146.820499 
L 274.428338 146.820499 
L 274.428338 206.332774 
" clip-path="url(#p212d3f08ec)" style="fill: none; stroke: #000000; stroke-linecap: square"/>
   </g>
   <g id="line2d_42">
    <path d="M 281.053941 142.768288 
L 281.053941 140.283582 
L 290.992346 140.283582 
L 290.992346 170.836976 
" clip-path="url(#p212d3f08ec)" style="fill: none; stroke: #000000; stroke-linecap: square"/>
   </g>
   <g id="line2d_43">
    <path d="M 297.617949 149.076103 
L 297.617949 146.591397 
L 307.556353 146.591397 
L 307.556353 170.836976 
" clip-path="url(#p212d3f08ec)" style="fill: none; stroke: #000000; stroke-linecap: square"/>
   </g>
   <g id="line2d_44">
    <path d="M 314.181956 221.324867 
L 314.181956 168.35227 
L 324.120361 168.35227 
L 324.120361 170.836976 
" clip-path="url(#p212d3f08ec)" style="fill: none; stroke: #000000; stroke-linecap: square"/>
   </g>
   <g id="line2d_45">
    <path d="M 330.745964 208.706626 
L 330.745964 168.35227 
L 340.684368 168.35227 
L 340.684368 170.836976 
" clip-path="url(#p212d3f08ec)" style="fill: none; stroke: #000000; stroke-linecap: square"/>
   </g>
   <g id="line2d_46">
    <path d="M 347.309971 138.315482 
L 347.309971 135.830776 
L 357.248375 135.830776 
L 357.248375 170.836976 
" clip-path="url(#p212d3f08ec)" style="fill: none; stroke: #000000; stroke-linecap: square"/>
   </g>
   <g id="line2d_47">
    <path d="M 363.873978 119.504956 
L 363.873978 61.864875 
L 373.812383 61.864875 
L 373.812383 64.349581 
" clip-path="url(#p212d3f08ec)" style="fill: none; stroke: #000000; stroke-linecap: square"/>
   </g>
   <g id="line2d_48">
    <path d="M 380.437986 187.035913 
L 380.437986 97.360673 
L 390.37639 97.360673 
L 390.37639 99.845379 
" clip-path="url(#p212d3f08ec)" style="fill: none; stroke: #000000; stroke-linecap: square"/>
   </g>
   <g id="line2d_49">
    <path d="M 397.001993 199.421788 
L 397.001993 132.856472 
L 406.940398 132.856472 
L 406.940398 135.341178 
" clip-path="url(#p212d3f08ec)" style="fill: none; stroke: #000000; stroke-linecap: square"/>
   </g>
   <g id="patch_95">
    <path d="M 66.053125 315.304875 
L 66.053125 49.192875 
" style="fill: none; stroke: #000000; stroke-width: 0.8; stroke-linejoin: miter; stroke-linecap: square"/>
   </g>
   <g id="patch_96">
    <path d="M 423.173125 315.304875 
L 423.173125 49.192875 
" style="fill: none; stroke: #000000; stroke-width: 0.8; stroke-linejoin: miter; stroke-linecap: square"/>
   </g>
   <g id="patch_97">
    <path d="M 66.053125 315.304875 
L 423.173125 315.304875 
" style="fill: none; stroke: #000000; stroke-width: 0.8; stroke-linejoin: miter; stroke-linecap: square"/>
   </g>
   <g id="patch_98">
    <path d="M 66.053125 49.192875 
L 423.173125 49.192875 
" style="fill: none; stroke: #000000; stroke-width: 0.8; stroke-linejoin: miter; stroke-linecap: square"/>
   </g>
   <g id="text_32">
    <!-- 37.7 -->
    <g transform="translate(82.801929 255.008127) scale(0.04 -0.04)">
     <defs>
      <path id="DejaVuSans-37" d="M 525 4666 
L 3525 4666 
L 3525 4397 
L 1831 0 
L 1172 0 
L 2766 4134 
L 525 4134 
L 525 4666 
z
" transform="scale(0.015625)"/>
      <path id="DejaVuSans-2e" d="M 684 794 
L 1344 794 
L 1344 0 
L 684 0 
L 684 794 
z
" transform="scale(0.015625)"/>
     </defs>
     <use xlink:href="#DejaVuSans-33"/>
     <use xlink:href="#DejaVuSans-37" x="63.623047"/>
     <use xlink:href="#DejaVuSans-2e" x="127.246094"/>
     <use xlink:href="#DejaVuSans-37" x="159.033203"/>
    </g>
   </g>
   <g id="text_33">
    <!-- -63.3 -->
    <g transform="translate(98.644374 271.523084) scale(0.04 -0.04)">
     <defs>
      <path id="DejaVuSans-2d" d="M 313 2009 
L 1997 2009 
L 1997 1497 
L 313 1497 
L 313 2009 
z
" transform="scale(0.015625)"/>
      <path id="DejaVuSans-36" d="M 2113 2584 
Q 1688 2584 1439 2293 
Q 1191 2003 1191 1497 
Q 1191 994 1439 701 
Q 1688 409 2113 409 
Q 2538 409 2786 701 
Q 3034 994 3034 1497 
Q 3034 2003 2786 2293 
Q 2538 2584 2113 2584 
z
M 3366 4563 
L 3366 3988 
Q 3128 4100 2886 4159 
Q 2644 4219 2406 4219 
Q 1781 4219 1451 3797 
Q 1122 3375 1075 2522 
Q 1259 2794 1537 2939 
Q 1816 3084 2150 3084 
Q 2853 3084 3261 2657 
Q 3669 2231 3669 1497 
Q 3669 778 3244 343 
Q 2819 -91 2113 -91 
Q 1303 -91 875 529 
Q 447 1150 447 2328 
Q 447 3434 972 4092 
Q 1497 4750 2381 4750 
Q 2619 4750 2861 4703 
Q 3103 4656 3366 4563 
z
" transform="scale(0.015625)"/>
     </defs>
     <use xlink:href="#DejaVuSans-2d"/>
     <use xlink:href="#DejaVuSans-36" x="36.083984"/>
     <use xlink:href="#DejaVuSans-33" x="99.707031"/>
     <use xlink:href="#DejaVuSans-2e" x="163.330078"/>
     <use xlink:href="#DejaVuSans-33" x="195.117188"/>
    </g>
   </g>
   <g id="text_34">
    <!-- -112.0 -->
    <g transform="translate(113.935882 236.027286) scale(0.04 -0.04)">
     <use xlink:href="#DejaVuSans-2d"/>
     <use xlink:href="#DejaVuSans-31" x="36.083984"/>
     <use xlink:href="#DejaVuSans-31" x="99.707031"/>
     <use xlink:href="#DejaVuSans-32" x="163.330078"/>
     <use xlink:href="#DejaVuSans-2e" x="226.953125"/>
     <use xlink:href="#DejaVuSans-30" x="258.740234"/>
    </g>
   </g>
   <g id="text_35">
    <!-- 58.7 -->
    <g transform="translate(132.493952 177.10165) scale(0.04 -0.04)">
     <defs>
      <path id="DejaVuSans-38" d="M 2034 2216 
Q 1584 2216 1326 1975 
Q 1069 1734 1069 1313 
Q 1069 891 1326 650 
Q 1584 409 2034 409 
Q 2484 409 2743 651 
Q 3003 894 3003 1313 
Q 3003 1734 2745 1975 
Q 2488 2216 2034 2216 
z
M 1403 2484 
Q 997 2584 770 2862 
Q 544 3141 544 3541 
Q 544 4100 942 4425 
Q 1341 4750 2034 4750 
Q 2731 4750 3128 4425 
Q 3525 4100 3525 3541 
Q 3525 3141 3298 2862 
Q 3072 2584 2669 2484 
Q 3125 2378 3379 2068 
Q 3634 1759 3634 1313 
Q 3634 634 3220 271 
Q 2806 -91 2034 -91 
Q 1263 -91 848 271 
Q 434 634 434 1313 
Q 434 1759 690 2068 
Q 947 2378 1403 2484 
z
M 1172 3481 
Q 1172 3119 1398 2916 
Q 1625 2713 2034 2713 
Q 2441 2713 2670 2916 
Q 2900 3119 2900 3481 
Q 2900 3844 2670 4047 
Q 2441 4250 2034 4250 
Q 1625 4250 1398 4047 
Q 1172 3844 1172 3481 
z
" transform="scale(0.015625)"/>
     </defs>
     <use xlink:href="#DejaVuSans-35"/>
     <use xlink:href="#DejaVuSans-38" x="63.623047"/>
     <use xlink:href="#DejaVuSans-2e" x="127.246094"/>
     <use xlink:href="#DejaVuSans-37" x="159.033203"/>
    </g>
   </g>
   <g id="text_36">
    <!-- 89.1 -->
    <g transform="translate(149.057959 122.04599) scale(0.04 -0.04)">
     <defs>
      <path id="DejaVuSans-39" d="M 703 97 
L 703 672 
Q 941 559 1184 500 
Q 1428 441 1663 441 
Q 2288 441 2617 861 
Q 2947 1281 2994 2138 
Q 2813 1869 2534 1725 
Q 2256 1581 1919 1581 
Q 1219 1581 811 2004 
Q 403 2428 403 3163 
Q 403 3881 828 4315 
Q 1253 4750 1959 4750 
Q 2769 4750 3195 4129 
Q 3622 3509 3622 2328 
Q 3622 1225 3098 567 
Q 2575 -91 1691 -91 
Q 1453 -91 1209 -44 
Q 966 3 703 97 
z
M 1959 2075 
Q 2384 2075 2632 2365 
Q 2881 2656 2881 3163 
Q 2881 3666 2632 3958 
Q 2384 4250 1959 4250 
Q 1534 4250 1286 3958 
Q 1038 3666 1038 3163 
Q 1038 2656 1286 2365 
Q 1534 2075 1959 2075 
z
" transform="scale(0.015625)"/>
     </defs>
     <use xlink:href="#DejaVuSans-38"/>
     <use xlink:href="#DejaVuSans-39" x="63.623047"/>
     <use xlink:href="#DejaVuSans-2e" x="127.246094"/>
     <use xlink:href="#DejaVuSans-31" x="159.033203"/>
    </g>
   </g>
   <g id="text_37">
    <!-- 6.3 -->
    <g transform="translate(166.894467 231.438673) scale(0.04 -0.04)">
     <use xlink:href="#DejaVuSans-36"/>
     <use xlink:href="#DejaVuSans-2e" x="63.623047"/>
     <use xlink:href="#DejaVuSans-33" x="95.410156"/>
    </g>
   </g>
   <g id="text_38">
    <!-- -59.8 -->
    <g transform="translate(181.464412 236.027286) scale(0.04 -0.04)">
     <use xlink:href="#DejaVuSans-2d"/>
     <use xlink:href="#DejaVuSans-35" x="36.083984"/>
     <use xlink:href="#DejaVuSans-39" x="99.707031"/>
     <use xlink:href="#DejaVuSans-2e" x="163.330078"/>
     <use xlink:href="#DejaVuSans-38" x="195.117188"/>
    </g>
   </g>
   <g id="text_39">
    <!-- 70.5 -->
    <g transform="translate(198.749981 158.752591) scale(0.04 -0.04)">
     <use xlink:href="#DejaVuSans-37"/>
     <use xlink:href="#DejaVuSans-30" x="63.623047"/>
     <use xlink:href="#DejaVuSans-2e" x="127.246094"/>
     <use xlink:href="#DejaVuSans-35" x="159.033203"/>
    </g>
   </g>
   <g id="text_40">
    <!-- 7.9 -->
    <g transform="translate(216.586489 230.195908) scale(0.04 -0.04)">
     <use xlink:href="#DejaVuSans-37"/>
     <use xlink:href="#DejaVuSans-2e" x="63.623047"/>
     <use xlink:href="#DejaVuSans-39" x="95.410156"/>
    </g>
   </g>
   <g id="text_41">
    <!-- -40.7 -->
    <g transform="translate(231.156434 236.027286) scale(0.04 -0.04)">
     <use xlink:href="#DejaVuSans-2d"/>
     <use xlink:href="#DejaVuSans-34" x="36.083984"/>
     <use xlink:href="#DejaVuSans-30" x="99.707031"/>
     <use xlink:href="#DejaVuSans-2e" x="163.330078"/>
     <use xlink:href="#DejaVuSans-37" x="195.117188"/>
    </g>
   </g>
   <g id="text_42">
    <!-- 4.2 -->
    <g transform="translate(249.714504 232.979728) scale(0.04 -0.04)">
     <use xlink:href="#DejaVuSans-34"/>
     <use xlink:href="#DejaVuSans-2e" x="63.623047"/>
     <use xlink:href="#DejaVuSans-32" x="95.410156"/>
    </g>
   </g>
   <g id="text_43">
    <!-- 42.2 -->
    <g transform="translate(265.006011 143.503918) scale(0.04 -0.04)">
     <use xlink:href="#DejaVuSans-34"/>
     <use xlink:href="#DejaVuSans-32" x="63.623047"/>
     <use xlink:href="#DejaVuSans-2e" x="127.246094"/>
     <use xlink:href="#DejaVuSans-32" x="159.033203"/>
    </g>
   </g>
   <g id="text_44">
    <!-- 18.0 -->
    <g transform="translate(281.570019 136.967001) scale(0.04 -0.04)">
     <use xlink:href="#DejaVuSans-31"/>
     <use xlink:href="#DejaVuSans-38" x="63.623047"/>
     <use xlink:href="#DejaVuSans-2e" x="127.246094"/>
     <use xlink:href="#DejaVuSans-30" x="159.033203"/>
    </g>
   </g>
   <g id="text_45">
    <!-- 14.2 -->
    <g transform="translate(298.134026 143.274816) scale(0.04 -0.04)">
     <use xlink:href="#DejaVuSans-31"/>
     <use xlink:href="#DejaVuSans-34" x="63.623047"/>
     <use xlink:href="#DejaVuSans-2e" x="127.246094"/>
     <use xlink:href="#DejaVuSans-32" x="159.033203"/>
    </g>
   </g>
   <g id="text_46">
    <!-- -43.2 -->
    <g transform="translate(313.976471 165.035689) scale(0.04 -0.04)">
     <use xlink:href="#DejaVuSans-2d"/>
     <use xlink:href="#DejaVuSans-34" x="36.083984"/>
     <use xlink:href="#DejaVuSans-33" x="99.707031"/>
     <use xlink:href="#DejaVuSans-2e" x="163.330078"/>
     <use xlink:href="#DejaVuSans-32" x="195.117188"/>
    </g>
   </g>
   <g id="text_47">
    <!-- -30.8 -->
    <g transform="translate(330.540478 165.035689) scale(0.04 -0.04)">
     <use xlink:href="#DejaVuSans-2d"/>
     <use xlink:href="#DejaVuSans-33" x="36.083984"/>
     <use xlink:href="#DejaVuSans-30" x="99.707031"/>
     <use xlink:href="#DejaVuSans-2e" x="163.330078"/>
     <use xlink:href="#DejaVuSans-38" x="195.117188"/>
    </g>
   </g>
   <g id="text_48">
    <!-- 20.6 -->
    <g transform="translate(347.826048 132.514195) scale(0.04 -0.04)">
     <use xlink:href="#DejaVuSans-32"/>
     <use xlink:href="#DejaVuSans-30" x="63.623047"/>
     <use xlink:href="#DejaVuSans-2e" x="127.246094"/>
     <use xlink:href="#DejaVuSans-36" x="159.033203"/>
    </g>
   </g>
   <g id="text_49">
    <!-- -25.0 -->
    <g transform="translate(363.668493 58.548294) scale(0.04 -0.04)">
     <use xlink:href="#DejaVuSans-2d"/>
     <use xlink:href="#DejaVuSans-32" x="36.083984"/>
     <use xlink:href="#DejaVuSans-35" x="99.707031"/>
     <use xlink:href="#DejaVuSans-2e" x="163.330078"/>
     <use xlink:href="#DejaVuSans-30" x="195.117188"/>
    </g>
   </g>
   <g id="text_50">
    <!-- -51.5 -->
    <g transform="translate(380.232501 94.044092) scale(0.04 -0.04)">
     <use xlink:href="#DejaVuSans-2d"/>
     <use xlink:href="#DejaVuSans-35" x="36.083984"/>
     <use xlink:href="#DejaVuSans-31" x="99.707031"/>
     <use xlink:href="#DejaVuSans-2e" x="163.330078"/>
     <use xlink:href="#DejaVuSans-35" x="195.117188"/>
    </g>
   </g>
   <g id="text_51">
    <!-- -44.1 -->
    <g transform="translate(396.796508 129.539891) scale(0.04 -0.04)">
     <use xlink:href="#DejaVuSans-2d"/>
     <use xlink:href="#DejaVuSans-34" x="36.083984"/>
     <use xlink:href="#DejaVuSans-34" x="99.707031"/>
     <use xlink:href="#DejaVuSans-2e" x="163.330078"/>
     <use xlink:href="#DejaVuSans-31" x="195.117188"/>
    </g>
   </g>
   <g id="text_52">
    <g id="patch_99">
     <path d="M 430.315525 74.369615 
L 523.035525 74.369615 
Q 525.435525 74.369615 525.435525 71.969615 
L 525.435525 53.715115 
Q 525.435525 51.315115 523.035525 51.315115 
L 430.315525 51.315115 
Q 427.915525 51.315115 427.915525 53.715115 
L 427.915525 71.969615 
Q 427.915525 74.369615 430.315525 74.369615 
z
" style="fill: #ffffff; opacity: 0.5; stroke: #808080; stroke-linejoin: miter"/>
    </g>
    <!-- pcc: 0.59; $p_{pcc}$: 6.4e-03 -->
    <g transform="translate(430.315525 60.515115) scale(0.08 -0.08)">
     <defs>
      <path id="DejaVuSans-70" d="M 1159 525 
L 1159 -1331 
L 581 -1331 
L 581 3500 
L 1159 3500 
L 1159 2969 
Q 1341 3281 1617 3432 
Q 1894 3584 2278 3584 
Q 2916 3584 3314 3078 
Q 3713 2572 3713 1747 
Q 3713 922 3314 415 
Q 2916 -91 2278 -91 
Q 1894 -91 1617 61 
Q 1341 213 1159 525 
z
M 3116 1747 
Q 3116 2381 2855 2742 
Q 2594 3103 2138 3103 
Q 1681 3103 1420 2742 
Q 1159 2381 1159 1747 
Q 1159 1113 1420 752 
Q 1681 391 2138 391 
Q 2594 391 2855 752 
Q 3116 1113 3116 1747 
z
" transform="scale(0.015625)"/>
      <path id="DejaVuSans-3a" d="M 750 794 
L 1409 794 
L 1409 0 
L 750 0 
L 750 794 
z
M 750 3309 
L 1409 3309 
L 1409 2516 
L 750 2516 
L 750 3309 
z
" transform="scale(0.015625)"/>
      <path id="DejaVuSans-3b" d="M 750 3309 
L 1409 3309 
L 1409 2516 
L 750 2516 
L 750 3309 
z
M 750 794 
L 1409 794 
L 1409 256 
L 897 -744 
L 494 -744 
L 750 256 
L 750 794 
z
" transform="scale(0.015625)"/>
      <path id="DejaVuSans-Oblique-70" d="M 3175 2156 
Q 3175 2616 2975 2859 
Q 2775 3103 2400 3103 
Q 2144 3103 1911 2972 
Q 1678 2841 1497 2591 
Q 1319 2344 1212 1994 
Q 1106 1644 1106 1300 
Q 1106 863 1306 627 
Q 1506 391 1875 391 
Q 2147 391 2380 519 
Q 2613 647 2778 891 
Q 2956 1147 3065 1494 
Q 3175 1841 3175 2156 
z
M 1394 2969 
Q 1625 3272 1939 3428 
Q 2253 3584 2638 3584 
Q 3175 3584 3472 3232 
Q 3769 2881 3769 2247 
Q 3769 1728 3584 1258 
Q 3400 788 3053 416 
Q 2822 169 2531 39 
Q 2241 -91 1919 -91 
Q 1547 -91 1294 64 
Q 1041 219 916 525 
L 556 -1331 
L -19 -1331 
L 922 3500 
L 1497 3500 
L 1394 2969 
z
" transform="scale(0.015625)"/>
      <path id="DejaVuSans-Oblique-63" d="M 3431 3366 
L 3316 2797 
Q 3109 2947 2876 3022 
Q 2644 3097 2394 3097 
Q 2119 3097 1870 3000 
Q 1622 2903 1453 2725 
Q 1184 2453 1037 2087 
Q 891 1722 891 1331 
Q 891 859 1127 628 
Q 1363 397 1844 397 
Q 2081 397 2348 469 
Q 2616 541 2906 684 
L 2797 116 
Q 2547 13 2283 -39 
Q 2019 -91 1741 -91 
Q 1044 -91 669 257 
Q 294 606 294 1253 
Q 294 1797 489 2255 
Q 684 2713 1069 3078 
Q 1331 3328 1684 3456 
Q 2038 3584 2456 3584 
Q 2700 3584 2940 3529 
Q 3181 3475 3431 3366 
z
" transform="scale(0.015625)"/>
     </defs>
     <use xlink:href="#DejaVuSans-70" transform="translate(0 0.78125)"/>
     <use xlink:href="#DejaVuSans-63" transform="translate(63.476562 0.78125)"/>
     <use xlink:href="#DejaVuSans-63" transform="translate(118.457031 0.78125)"/>
     <use xlink:href="#DejaVuSans-3a" transform="translate(173.4375 0.78125)"/>
     <use xlink:href="#DejaVuSans-20" transform="translate(207.128906 0.78125)"/>
     <use xlink:href="#DejaVuSans-30" transform="translate(238.916016 0.78125)"/>
     <use xlink:href="#DejaVuSans-2e" transform="translate(302.539062 0.78125)"/>
     <use xlink:href="#DejaVuSans-35" transform="translate(334.326172 0.78125)"/>
     <use xlink:href="#DejaVuSans-39" transform="translate(392.449219 0.78125)"/>
     <use xlink:href="#DejaVuSans-3b" transform="translate(456.072266 0.78125)"/>
     <use xlink:href="#DejaVuSans-20" transform="translate(489.763672 0.78125)"/>
     <use xlink:href="#DejaVuSans-Oblique-70" transform="translate(521.550781 0.78125)"/>
     <use xlink:href="#DejaVuSans-Oblique-70" transform="translate(585.027344 -15.625) scale(0.7)"/>
     <use xlink:href="#DejaVuSans-Oblique-63" transform="translate(629.460938 -15.625) scale(0.7)"/>
     <use xlink:href="#DejaVuSans-Oblique-63" transform="translate(667.947266 -15.625) scale(0.7)"/>
     <use xlink:href="#DejaVuSans-3a" transform="translate(709.167969 0.78125)"/>
     <use xlink:href="#DejaVuSans-20" transform="translate(742.859375 0.78125)"/>
     <use xlink:href="#DejaVuSans-36" transform="translate(774.646484 0.78125)"/>
     <use xlink:href="#DejaVuSans-2e" transform="translate(838.269531 0.78125)"/>
     <use xlink:href="#DejaVuSans-34" transform="translate(870.056641 0.78125)"/>
     <use xlink:href="#DejaVuSans-65" transform="translate(933.679688 0.78125)"/>
     <use xlink:href="#DejaVuSans-2d" transform="translate(995.203125 0.78125)"/>
     <use xlink:href="#DejaVuSans-30" transform="translate(1031.287109 0.78125)"/>
     <use xlink:href="#DejaVuSans-33" transform="translate(1094.910156 0.78125)"/>
    </g>
    <!-- $r2$: 0.62; $p_{r2}$: 3.3e-03 -->
    <g transform="translate(430.315525 70.289615) scale(0.08 -0.08)">
     <defs>
      <path id="DejaVuSans-Oblique-72" d="M 2853 2969 
Q 2766 3016 2653 3041 
Q 2541 3066 2413 3066 
Q 1953 3066 1609 2717 
Q 1266 2369 1153 1784 
L 800 0 
L 225 0 
L 909 3500 
L 1484 3500 
L 1375 2956 
Q 1603 3259 1920 3421 
Q 2238 3584 2597 3584 
Q 2691 3584 2781 3573 
Q 2872 3563 2963 3538 
L 2853 2969 
z
" transform="scale(0.015625)"/>
     </defs>
     <use xlink:href="#DejaVuSans-Oblique-72" transform="translate(0 0.78125)"/>
     <use xlink:href="#DejaVuSans-32" transform="translate(41.113281 0.78125)"/>
     <use xlink:href="#DejaVuSans-3a" transform="translate(104.736328 0.78125)"/>
     <use xlink:href="#DejaVuSans-20" transform="translate(138.427734 0.78125)"/>
     <use xlink:href="#DejaVuSans-30" transform="translate(170.214844 0.78125)"/>
     <use xlink:href="#DejaVuSans-2e" transform="translate(233.837891 0.78125)"/>
     <use xlink:href="#DejaVuSans-36" transform="translate(265.625 0.78125)"/>
     <use xlink:href="#DejaVuSans-32" transform="translate(329.248047 0.78125)"/>
     <use xlink:href="#DejaVuSans-3b" transform="translate(386.496094 0.78125)"/>
     <use xlink:href="#DejaVuSans-20" transform="translate(420.1875 0.78125)"/>
     <use xlink:href="#DejaVuSans-Oblique-70" transform="translate(451.974609 0.78125)"/>
     <use xlink:href="#DejaVuSans-Oblique-72" transform="translate(515.451172 -15.625) scale(0.7)"/>
     <use xlink:href="#DejaVuSans-32" transform="translate(544.230469 -15.625) scale(0.7)"/>
     <use xlink:href="#DejaVuSans-3a" transform="translate(591.500977 0.78125)"/>
     <use xlink:href="#DejaVuSans-20" transform="translate(625.192383 0.78125)"/>
     <use xlink:href="#DejaVuSans-33" transform="translate(656.979492 0.78125)"/>
     <use xlink:href="#DejaVuSans-2e" transform="translate(720.602539 0.78125)"/>
     <use xlink:href="#DejaVuSans-33" transform="translate(752.389648 0.78125)"/>
     <use xlink:href="#DejaVuSans-65" transform="translate(816.012695 0.78125)"/>
     <use xlink:href="#DejaVuSans-2d" transform="translate(877.536133 0.78125)"/>
     <use xlink:href="#DejaVuSans-30" transform="translate(913.620117 0.78125)"/>
     <use xlink:href="#DejaVuSans-33" transform="translate(977.243164 0.78125)"/>
    </g>
   </g>
   <g id="text_53">
    <!-- Archaea - Correlation between amino acid and codon -->
    <g transform="translate(84.833125 16.318125) scale(0.12 -0.12)">
     <defs>
      <path id="DejaVuSans-68" d="M 3513 2113 
L 3513 0 
L 2938 0 
L 2938 2094 
Q 2938 2591 2744 2837 
Q 2550 3084 2163 3084 
Q 1697 3084 1428 2787 
Q 1159 2491 1159 1978 
L 1159 0 
L 581 0 
L 581 4863 
L 1159 4863 
L 1159 2956 
Q 1366 3272 1645 3428 
Q 1925 3584 2291 3584 
Q 2894 3584 3203 3211 
Q 3513 2838 3513 2113 
z
" transform="scale(0.015625)"/>
      <path id="DejaVuSans-6c" d="M 603 4863 
L 1178 4863 
L 1178 0 
L 603 0 
L 603 4863 
z
" transform="scale(0.015625)"/>
      <path id="DejaVuSans-74" d="M 1172 4494 
L 1172 3500 
L 2356 3500 
L 2356 3053 
L 1172 3053 
L 1172 1153 
Q 1172 725 1289 603 
Q 1406 481 1766 481 
L 2356 481 
L 2356 0 
L 1766 0 
Q 1100 0 847 248 
Q 594 497 594 1153 
L 594 3053 
L 172 3053 
L 172 3500 
L 594 3500 
L 594 4494 
L 1172 4494 
z
" transform="scale(0.015625)"/>
      <path id="DejaVuSans-77" d="M 269 3500 
L 844 3500 
L 1563 769 
L 2278 3500 
L 2956 3500 
L 3675 769 
L 4391 3500 
L 4966 3500 
L 4050 0 
L 3372 0 
L 2619 2869 
L 1863 0 
L 1184 0 
L 269 3500 
z
" transform="scale(0.015625)"/>
     </defs>
     <use xlink:href="#DejaVuSans-41"/>
     <use xlink:href="#DejaVuSans-72" x="68.408203"/>
     <use xlink:href="#DejaVuSans-63" x="107.271484"/>
     <use xlink:href="#DejaVuSans-68" x="162.251953"/>
     <use xlink:href="#DejaVuSans-61" x="225.630859"/>
     <use xlink:href="#DejaVuSans-65" x="286.910156"/>
     <use xlink:href="#DejaVuSans-61" x="348.433594"/>
     <use xlink:href="#DejaVuSans-20" x="409.712891"/>
     <use xlink:href="#DejaVuSans-2d" x="441.5"/>
     <use xlink:href="#DejaVuSans-20" x="477.583984"/>
     <use xlink:href="#DejaVuSans-43" x="509.371094"/>
     <use xlink:href="#DejaVuSans-6f" x="579.195312"/>
     <use xlink:href="#DejaVuSans-72" x="640.376953"/>
     <use xlink:href="#DejaVuSans-72" x="679.740234"/>
     <use xlink:href="#DejaVuSans-65" x="718.603516"/>
     <use xlink:href="#DejaVuSans-6c" x="780.126953"/>
     <use xlink:href="#DejaVuSans-61" x="807.910156"/>
     <use xlink:href="#DejaVuSans-74" x="869.189453"/>
     <use xlink:href="#DejaVuSans-69" x="908.398438"/>
     <use xlink:href="#DejaVuSans-6f" x="936.181641"/>
     <use xlink:href="#DejaVuSans-6e" x="997.363281"/>
     <use xlink:href="#DejaVuSans-20" x="1060.742188"/>
     <use xlink:href="#DejaVuSans-62" x="1092.529297"/>
     <use xlink:href="#DejaVuSans-65" x="1156.005859"/>
     <use xlink:href="#DejaVuSans-74" x="1217.529297"/>
     <use xlink:href="#DejaVuSans-77" x="1256.738281"/>
     <use xlink:href="#DejaVuSans-65" x="1338.525391"/>
     <use xlink:href="#DejaVuSans-65" x="1400.048828"/>
     <use xlink:href="#DejaVuSans-6e" x="1461.572266"/>
     <use xlink:href="#DejaVuSans-20" x="1524.951172"/>
     <use xlink:href="#DejaVuSans-61" x="1556.738281"/>
     <use xlink:href="#DejaVuSans-6d" x="1618.017578"/>
     <use xlink:href="#DejaVuSans-69" x="1715.429688"/>
     <use xlink:href="#DejaVuSans-6e" x="1743.212891"/>
     <use xlink:href="#DejaVuSans-6f" x="1806.591797"/>
     <use xlink:href="#DejaVuSans-20" x="1867.773438"/>
     <use xlink:href="#DejaVuSans-61" x="1899.560547"/>
     <use xlink:href="#DejaVuSans-63" x="1960.839844"/>
     <use xlink:href="#DejaVuSans-69" x="2015.820312"/>
     <use xlink:href="#DejaVuSans-64" x="2043.603516"/>
     <use xlink:href="#DejaVuSans-20" x="2107.080078"/>
     <use xlink:href="#DejaVuSans-61" x="2138.867188"/>
     <use xlink:href="#DejaVuSans-6e" x="2200.146484"/>
     <use xlink:href="#DejaVuSans-64" x="2263.525391"/>
     <use xlink:href="#DejaVuSans-20" x="2327.001953"/>
     <use xlink:href="#DejaVuSans-63" x="2358.789062"/>
     <use xlink:href="#DejaVuSans-6f" x="2413.769531"/>
     <use xlink:href="#DejaVuSans-64" x="2474.951172"/>
     <use xlink:href="#DejaVuSans-6f" x="2538.427734"/>
     <use xlink:href="#DejaVuSans-6e" x="2599.609375"/>
    </g>
    <!-- number for genetic code: Scenedesmus obliquus -->
    <g transform="translate(97.55875 29.7555) scale(0.12 -0.12)">
     <defs>
      <path id="DejaVuSans-66" d="M 2375 4863 
L 2375 4384 
L 1825 4384 
Q 1516 4384 1395 4259 
Q 1275 4134 1275 3809 
L 1275 3500 
L 2222 3500 
L 2222 3053 
L 1275 3053 
L 1275 0 
L 697 0 
L 697 3053 
L 147 3053 
L 147 3500 
L 697 3500 
L 697 3744 
Q 697 4328 969 4595 
Q 1241 4863 1831 4863 
L 2375 4863 
z
" transform="scale(0.015625)"/>
      <path id="DejaVuSans-67" d="M 2906 1791 
Q 2906 2416 2648 2759 
Q 2391 3103 1925 3103 
Q 1463 3103 1205 2759 
Q 947 2416 947 1791 
Q 947 1169 1205 825 
Q 1463 481 1925 481 
Q 2391 481 2648 825 
Q 2906 1169 2906 1791 
z
M 3481 434 
Q 3481 -459 3084 -895 
Q 2688 -1331 1869 -1331 
Q 1566 -1331 1297 -1286 
Q 1028 -1241 775 -1147 
L 775 -588 
Q 1028 -725 1275 -790 
Q 1522 -856 1778 -856 
Q 2344 -856 2625 -561 
Q 2906 -266 2906 331 
L 2906 616 
Q 2728 306 2450 153 
Q 2172 0 1784 0 
Q 1141 0 747 490 
Q 353 981 353 1791 
Q 353 2603 747 3093 
Q 1141 3584 1784 3584 
Q 2172 3584 2450 3431 
Q 2728 3278 2906 2969 
L 2906 3500 
L 3481 3500 
L 3481 434 
z
" transform="scale(0.015625)"/>
      <path id="DejaVuSans-73" d="M 2834 3397 
L 2834 2853 
Q 2591 2978 2328 3040 
Q 2066 3103 1784 3103 
Q 1356 3103 1142 2972 
Q 928 2841 928 2578 
Q 928 2378 1081 2264 
Q 1234 2150 1697 2047 
L 1894 2003 
Q 2506 1872 2764 1633 
Q 3022 1394 3022 966 
Q 3022 478 2636 193 
Q 2250 -91 1575 -91 
Q 1294 -91 989 -36 
Q 684 19 347 128 
L 347 722 
Q 666 556 975 473 
Q 1284 391 1588 391 
Q 1994 391 2212 530 
Q 2431 669 2431 922 
Q 2431 1156 2273 1281 
Q 2116 1406 1581 1522 
L 1381 1569 
Q 847 1681 609 1914 
Q 372 2147 372 2553 
Q 372 3047 722 3315 
Q 1072 3584 1716 3584 
Q 2034 3584 2315 3537 
Q 2597 3491 2834 3397 
z
" transform="scale(0.015625)"/>
      <path id="DejaVuSans-71" d="M 947 1747 
Q 947 1113 1208 752 
Q 1469 391 1925 391 
Q 2381 391 2643 752 
Q 2906 1113 2906 1747 
Q 2906 2381 2643 2742 
Q 2381 3103 1925 3103 
Q 1469 3103 1208 2742 
Q 947 2381 947 1747 
z
M 2906 525 
Q 2725 213 2448 61 
Q 2172 -91 1784 -91 
Q 1150 -91 751 415 
Q 353 922 353 1747 
Q 353 2572 751 3078 
Q 1150 3584 1784 3584 
Q 2172 3584 2448 3432 
Q 2725 3281 2906 2969 
L 2906 3500 
L 3481 3500 
L 3481 -1331 
L 2906 -1331 
L 2906 525 
z
" transform="scale(0.015625)"/>
     </defs>
     <use xlink:href="#DejaVuSans-6e"/>
     <use xlink:href="#DejaVuSans-75" x="63.378906"/>
     <use xlink:href="#DejaVuSans-6d" x="126.757812"/>
     <use xlink:href="#DejaVuSans-62" x="224.169922"/>
     <use xlink:href="#DejaVuSans-65" x="287.646484"/>
     <use xlink:href="#DejaVuSans-72" x="349.169922"/>
     <use xlink:href="#DejaVuSans-20" x="390.283203"/>
     <use xlink:href="#DejaVuSans-66" x="422.070312"/>
     <use xlink:href="#DejaVuSans-6f" x="457.275391"/>
     <use xlink:href="#DejaVuSans-72" x="518.457031"/>
     <use xlink:href="#DejaVuSans-20" x="559.570312"/>
     <use xlink:href="#DejaVuSans-67" x="591.357422"/>
     <use xlink:href="#DejaVuSans-65" x="654.833984"/>
     <use xlink:href="#DejaVuSans-6e" x="716.357422"/>
     <use xlink:href="#DejaVuSans-65" x="779.736328"/>
     <use xlink:href="#DejaVuSans-74" x="841.259766"/>
     <use xlink:href="#DejaVuSans-69" x="880.46875"/>
     <use xlink:href="#DejaVuSans-63" x="908.251953"/>
     <use xlink:href="#DejaVuSans-20" x="963.232422"/>
     <use xlink:href="#DejaVuSans-63" x="995.019531"/>
     <use xlink:href="#DejaVuSans-6f" x="1050"/>
     <use xlink:href="#DejaVuSans-64" x="1111.181641"/>
     <use xlink:href="#DejaVuSans-65" x="1174.658203"/>
     <use xlink:href="#DejaVuSans-3a" x="1236.181641"/>
     <use xlink:href="#DejaVuSans-20" x="1269.873047"/>
     <use xlink:href="#DejaVuSans-53" x="1301.660156"/>
     <use xlink:href="#DejaVuSans-63" x="1365.136719"/>
     <use xlink:href="#DejaVuSans-65" x="1420.117188"/>
     <use xlink:href="#DejaVuSans-6e" x="1481.640625"/>
     <use xlink:href="#DejaVuSans-65" x="1545.019531"/>
     <use xlink:href="#DejaVuSans-64" x="1606.542969"/>
     <use xlink:href="#DejaVuSans-65" x="1670.019531"/>
     <use xlink:href="#DejaVuSans-73" x="1731.542969"/>
     <use xlink:href="#DejaVuSans-6d" x="1783.642578"/>
     <use xlink:href="#DejaVuSans-75" x="1881.054688"/>
     <use xlink:href="#DejaVuSans-73" x="1944.433594"/>
     <use xlink:href="#DejaVuSans-20" x="1996.533203"/>
     <use xlink:href="#DejaVuSans-6f" x="2028.320312"/>
     <use xlink:href="#DejaVuSans-62" x="2089.501953"/>
     <use xlink:href="#DejaVuSans-6c" x="2152.978516"/>
     <use xlink:href="#DejaVuSans-69" x="2180.761719"/>
     <use xlink:href="#DejaVuSans-71" x="2208.544922"/>
     <use xlink:href="#DejaVuSans-75" x="2272.021484"/>
     <use xlink:href="#DejaVuSans-75" x="2335.400391"/>
     <use xlink:href="#DejaVuSans-73" x="2398.779297"/>
    </g>
    <!-- mitochondrial -->
    <g transform="translate(203.216875 43.192875) scale(0.12 -0.12)">
     <use xlink:href="#DejaVuSans-6d"/>
     <use xlink:href="#DejaVuSans-69" x="97.412109"/>
     <use xlink:href="#DejaVuSans-74" x="125.195312"/>
     <use xlink:href="#DejaVuSans-6f" x="164.404297"/>
     <use xlink:href="#DejaVuSans-63" x="225.585938"/>
     <use xlink:href="#DejaVuSans-68" x="280.566406"/>
     <use xlink:href="#DejaVuSans-6f" x="343.945312"/>
     <use xlink:href="#DejaVuSans-6e" x="405.126953"/>
     <use xlink:href="#DejaVuSans-64" x="468.505859"/>
     <use xlink:href="#DejaVuSans-72" x="531.982422"/>
     <use xlink:href="#DejaVuSans-69" x="573.095703"/>
     <use xlink:href="#DejaVuSans-61" x="600.878906"/>
     <use xlink:href="#DejaVuSans-6c" x="662.158203"/>
    </g>
   </g>
   <g id="legend_1">
    <g id="patch_100">
     <path d="M 73.053125 86.549125 
L 232.13125 86.549125 
Q 234.13125 86.549125 234.13125 84.549125 
L 234.13125 56.192875 
Q 234.13125 54.192875 232.13125 54.192875 
L 73.053125 54.192875 
Q 71.053125 54.192875 71.053125 56.192875 
L 71.053125 84.549125 
Q 71.053125 86.549125 73.053125 86.549125 
z
" style="fill: #ffffff; opacity: 0.8; stroke: #cccccc; stroke-linejoin: miter"/>
    </g>
    <g id="patch_101">
     <path d="M 75.053125 65.791312 
L 85.053125 65.791312 
L 85.053125 58.791312 
L 75.053125 58.791312 
z
" style="fill: url(#hd686e380b0); stroke: #000000; stroke-linejoin: miter"/>
    </g>
    <g id="patch_102">
     <path d="M 75.053125 80.469437 
L 85.053125 80.469437 
L 85.053125 73.469437 
L 75.053125 73.469437 
z
" style="fill: url(#ha69d891b6f); stroke: #000000; stroke-linejoin: miter"/>
    </g>
    <g id="patch_103">
     <path d="M 85.053125 65.791312 
L 95.053125 65.791312 
L 95.053125 58.791312 
L 85.053125 58.791312 
z
" style="fill: url(#h290942212a); stroke: #000000; stroke-linejoin: miter"/>
    </g>
    <g id="patch_104">
     <path d="M 85.053125 80.469437 
L 95.053125 80.469437 
L 95.053125 73.469437 
L 85.053125 73.469437 
z
" style="fill: url(#ha69d891b6f); stroke: #000000; stroke-linejoin: miter"/>
    </g>
    <g id="patch_105">
     <path d="M 95.053125 65.791312 
L 105.053125 65.791312 
L 105.053125 58.791312 
L 95.053125 58.791312 
z
" style="fill: url(#ha52f161e10); stroke: #000000; stroke-linejoin: miter"/>
    </g>
    <g id="patch_106">
     <path d="M 95.053125 80.469437 
L 105.053125 80.469437 
L 105.053125 73.469437 
L 95.053125 73.469437 
z
" style="fill: url(#ha69d891b6f); stroke: #000000; stroke-linejoin: miter"/>
    </g>
    <g id="patch_107">
     <path d="M 105.053125 65.791312 
L 115.053125 65.791312 
L 115.053125 58.791312 
L 105.053125 58.791312 
z
" style="fill: url(#hbdc7a699b3); stroke: #000000; stroke-linejoin: miter"/>
    </g>
    <g id="patch_108">
     <path d="M 105.053125 80.469437 
L 115.053125 80.469437 
L 115.053125 73.469437 
L 105.053125 73.469437 
z
" style="fill: url(#ha69d891b6f); stroke: #000000; stroke-linejoin: miter"/>
    </g>
    <g id="patch_109">
     <path d="M 115.053125 65.791312 
L 125.053125 65.791312 
L 125.053125 58.791312 
L 115.053125 58.791312 
z
" style="fill: url(#h4f3ffd8a70); stroke: #000000; stroke-linejoin: miter"/>
    </g>
    <g id="patch_110">
     <path d="M 115.053125 80.469437 
L 125.053125 80.469437 
L 125.053125 73.469437 
L 115.053125 73.469437 
z
" style="fill: url(#ha69d891b6f); stroke: #000000; stroke-linejoin: miter"/>
    </g>
    <g id="patch_111">
     <path d="M 125.053125 65.791312 
L 135.053125 65.791312 
L 135.053125 58.791312 
L 125.053125 58.791312 
z
" style="fill: url(#h48f9f19674); stroke: #000000; stroke-linejoin: miter"/>
    </g>
    <g id="patch_112">
     <path d="M 125.053125 80.469437 
L 135.053125 80.469437 
L 135.053125 73.469437 
L 125.053125 73.469437 
z
" style="fill: url(#ha69d891b6f); stroke: #000000; stroke-linejoin: miter"/>
    </g>
    <g id="patch_113">
     <path d="M 135.053125 65.791312 
L 145.053125 65.791312 
L 145.053125 58.791312 
L 135.053125 58.791312 
z
" style="fill: url(#h5d2636bc0e); stroke: #000000; stroke-linejoin: miter"/>
    </g>
    <g id="patch_114">
     <path d="M 135.053125 80.469437 
L 145.053125 80.469437 
L 145.053125 73.469437 
L 135.053125 73.469437 
z
" style="fill: url(#ha69d891b6f); stroke: #000000; stroke-linejoin: miter"/>
    </g>
    <g id="patch_115">
     <path d="M 145.053125 65.791312 
L 155.053125 65.791312 
L 155.053125 58.791312 
L 145.053125 58.791312 
z
" style="fill: url(#h0081581699); stroke: #000000; stroke-linejoin: miter"/>
    </g>
    <g id="text_54">
     <!-- Genomic data -->
     <g transform="translate(160.053125 65.791312) scale(0.1 -0.1)">
      <use xlink:href="#DejaVuSans-47"/>
      <use xlink:href="#DejaVuSans-65" x="77.490234"/>
      <use xlink:href="#DejaVuSans-6e" x="139.013672"/>
      <use xlink:href="#DejaVuSans-6f" x="202.392578"/>
      <use xlink:href="#DejaVuSans-6d" x="263.574219"/>
      <use xlink:href="#DejaVuSans-69" x="360.986328"/>
      <use xlink:href="#DejaVuSans-63" x="388.769531"/>
      <use xlink:href="#DejaVuSans-20" x="443.75"/>
      <use xlink:href="#DejaVuSans-64" x="475.537109"/>
      <use xlink:href="#DejaVuSans-61" x="539.013672"/>
      <use xlink:href="#DejaVuSans-74" x="600.292969"/>
      <use xlink:href="#DejaVuSans-61" x="639.501953"/>
     </g>
    </g>
    <g id="patch_116">
     <path d="M 145.053125 80.469437 
L 155.053125 80.469437 
L 155.053125 73.469437 
L 145.053125 73.469437 
z
" style="fill: url(#ha69d891b6f); stroke: #000000; stroke-linejoin: miter"/>
    </g>
    <g id="text_55">
     <!-- Genetic code -->
     <g transform="translate(160.053125 80.469437) scale(0.1 -0.1)">
      <use xlink:href="#DejaVuSans-47"/>
      <use xlink:href="#DejaVuSans-65" x="77.490234"/>
      <use xlink:href="#DejaVuSans-6e" x="139.013672"/>
      <use xlink:href="#DejaVuSans-65" x="202.392578"/>
      <use xlink:href="#DejaVuSans-74" x="263.916016"/>
      <use xlink:href="#DejaVuSans-69" x="303.125"/>
      <use xlink:href="#DejaVuSans-63" x="330.908203"/>
      <use xlink:href="#DejaVuSans-20" x="385.888672"/>
      <use xlink:href="#DejaVuSans-63" x="417.675781"/>
      <use xlink:href="#DejaVuSans-6f" x="472.65625"/>
      <use xlink:href="#DejaVuSans-64" x="533.837891"/>
      <use xlink:href="#DejaVuSans-65" x="597.314453"/>
     </g>
    </g>
   </g>
  </g>
 </g>
 <defs>
  <clipPath id="p212d3f08ec">
   <rect x="66.053125" y="49.192875" width="357.12" height="266.112"/>
  </clipPath>
 </defs>
 <defs>
  <pattern id="hd686e380b0" patternUnits="userSpaceOnUse" x="0" y="0" width="72" height="72">
   <rect x="0" y="0" width="73" height="73" fill="#8000ff"/>
   <path d="M -36 36 
L 36 -36 
M -30 42 
L 42 -30 
M -24 48 
L 48 -24 
M -18 54 
L 54 -18 
M -12 60 
L 60 -12 
M -6 66 
L 66 -6 
M 0 72 
L 72 0 
M 6 78 
L 78 6 
M 12 84 
L 84 12 
M 18 90 
L 90 18 
M 24 96 
L 96 24 
M 30 102 
L 102 30 
M 36 108 
L 108 36 
" style="fill: #000000; stroke: #000000; stroke-width: 1.0; stroke-linecap: butt; stroke-linejoin: miter"/>
  </pattern>
  <pattern id="h0081581699" patternUnits="userSpaceOnUse" x="0" y="0" width="72" height="72">
   <rect x="0" y="0" width="73" height="73" fill="#808080"/>
   <path d="M -36 36 
L 36 -36 
M -30 42 
L 42 -30 
M -24 48 
L 48 -24 
M -18 54 
L 54 -18 
M -12 60 
L 60 -12 
M -6 66 
L 66 -6 
M 0 72 
L 72 0 
M 6 78 
L 78 6 
M 12 84 
L 84 12 
M 18 90 
L 90 18 
M 24 96 
L 96 24 
M 30 102 
L 102 30 
M 36 108 
L 108 36 
" style="fill: #000000; stroke: #000000; stroke-width: 1.0; stroke-linecap: butt; stroke-linejoin: miter"/>
  </pattern>
  <pattern id="h290942212a" patternUnits="userSpaceOnUse" x="0" y="0" width="72" height="72">
   <rect x="0" y="0" width="73" height="73" fill="#2c7ef7"/>
   <path d="M -36 36 
L 36 -36 
M -30 42 
L 42 -30 
M -24 48 
L 48 -24 
M -18 54 
L 54 -18 
M -12 60 
L 60 -12 
M -6 66 
L 66 -6 
M 0 72 
L 72 0 
M 6 78 
L 78 6 
M 12 84 
L 84 12 
M 18 90 
L 90 18 
M 24 96 
L 96 24 
M 30 102 
L 102 30 
M 36 108 
L 108 36 
" style="fill: #000000; stroke: #000000; stroke-width: 1.0; stroke-linecap: butt; stroke-linejoin: miter"/>
  </pattern>
  <pattern id="ha52f161e10" patternUnits="userSpaceOnUse" x="0" y="0" width="72" height="72">
   <rect x="0" y="0" width="73" height="73" fill="#2adddd"/>
   <path d="M -36 36 
L 36 -36 
M -30 42 
L 42 -30 
M -24 48 
L 48 -24 
M -18 54 
L 54 -18 
M -12 60 
L 60 -12 
M -6 66 
L 66 -6 
M 0 72 
L 72 0 
M 6 78 
L 78 6 
M 12 84 
L 84 12 
M 18 90 
L 90 18 
M 24 96 
L 96 24 
M 30 102 
L 102 30 
M 36 108 
L 108 36 
" style="fill: #000000; stroke: #000000; stroke-width: 1.0; stroke-linecap: butt; stroke-linejoin: miter"/>
  </pattern>
  <pattern id="hbdc7a699b3" patternUnits="userSpaceOnUse" x="0" y="0" width="72" height="72">
   <rect x="0" y="0" width="73" height="73" fill="#80ffb4"/>
   <path d="M -36 36 
L 36 -36 
M -30 42 
L 42 -30 
M -24 48 
L 48 -24 
M -18 54 
L 54 -18 
M -12 60 
L 60 -12 
M -6 66 
L 66 -6 
M 0 72 
L 72 0 
M 6 78 
L 78 6 
M 12 84 
L 84 12 
M 18 90 
L 90 18 
M 24 96 
L 96 24 
M 30 102 
L 102 30 
M 36 108 
L 108 36 
" style="fill: #000000; stroke: #000000; stroke-width: 1.0; stroke-linecap: butt; stroke-linejoin: miter"/>
  </pattern>
  <pattern id="h4f3ffd8a70" patternUnits="userSpaceOnUse" x="0" y="0" width="72" height="72">
   <rect x="0" y="0" width="73" height="73" fill="#d4dd80"/>
   <path d="M -36 36 
L 36 -36 
M -30 42 
L 42 -30 
M -24 48 
L 48 -24 
M -18 54 
L 54 -18 
M -12 60 
L 60 -12 
M -6 66 
L 66 -6 
M 0 72 
L 72 0 
M 6 78 
L 78 6 
M 12 84 
L 84 12 
M 18 90 
L 90 18 
M 24 96 
L 96 24 
M 30 102 
L 102 30 
M 36 108 
L 108 36 
" style="fill: #000000; stroke: #000000; stroke-width: 1.0; stroke-linecap: butt; stroke-linejoin: miter"/>
  </pattern>
  <pattern id="h48f9f19674" patternUnits="userSpaceOnUse" x="0" y="0" width="72" height="72">
   <rect x="0" y="0" width="73" height="73" fill="#ff7e41"/>
   <path d="M -36 36 
L 36 -36 
M -30 42 
L 42 -30 
M -24 48 
L 48 -24 
M -18 54 
L 54 -18 
M -12 60 
L 60 -12 
M -6 66 
L 66 -6 
M 0 72 
L 72 0 
M 6 78 
L 78 6 
M 12 84 
L 84 12 
M 18 90 
L 90 18 
M 24 96 
L 96 24 
M 30 102 
L 102 30 
M 36 108 
L 108 36 
" style="fill: #000000; stroke: #000000; stroke-width: 1.0; stroke-linecap: butt; stroke-linejoin: miter"/>
  </pattern>
  <pattern id="h5d2636bc0e" patternUnits="userSpaceOnUse" x="0" y="0" width="72" height="72">
   <rect x="0" y="0" width="73" height="73" fill="#ff0000"/>
   <path d="M -36 36 
L 36 -36 
M -30 42 
L 42 -30 
M -24 48 
L 48 -24 
M -18 54 
L 54 -18 
M -12 60 
L 60 -12 
M -6 66 
L 66 -6 
M 0 72 
L 72 0 
M 6 78 
L 78 6 
M 12 84 
L 84 12 
M 18 90 
L 90 18 
M 24 96 
L 96 24 
M 30 102 
L 102 30 
M 36 108 
L 108 36 
" style="fill: #000000; stroke: #000000; stroke-width: 1.0; stroke-linecap: butt; stroke-linejoin: miter"/>
  </pattern>
  <pattern id="ha69d891b6f" patternUnits="userSpaceOnUse" x="0" y="0" width="72" height="72">
   <rect x="0" y="0" width="73" height="73" fill="#ffffff"/>
   <path d="M -36 36 
L 36 108 
M -30 30 
L 42 102 
M -24 24 
L 48 96 
M -18 18 
L 54 90 
M -12 12 
L 60 84 
M -6 6 
L 66 78 
M 0 0 
L 72 72 
M 6 -6 
L 78 66 
M 12 -12 
L 84 60 
M 18 -18 
L 90 54 
M 24 -24 
L 96 48 
M 30 -30 
L 102 42 
M 36 -36 
L 108 36 
" style="fill: #000000; stroke: #000000; stroke-width: 1.0; stroke-linecap: butt; stroke-linejoin: miter"/>
  </pattern>
 </defs>
</svg>
