<?xml version="1.0" encoding="utf-8" standalone="no"?>
<!DOCTYPE svg PUBLIC "-//W3C//DTD SVG 1.1//EN"
  "http://www.w3.org/Graphics/SVG/1.1/DTD/svg11.dtd">
<svg xmlns:xlink="http://www.w3.org/1999/xlink" width="984.45625pt" height="680.422917pt" viewBox="0 0 984.45625 680.422917" xmlns="http://www.w3.org/2000/svg" version="1.1">
 <metadata>
  <rdf:RDF xmlns:dc="http://purl.org/dc/elements/1.1/" xmlns:cc="http://creativecommons.org/ns#" xmlns:rdf="http://www.w3.org/1999/02/22-rdf-syntax-ns#">
   <cc:Work>
    <dc:type rdf:resource="http://purl.org/dc/dcmitype/StillImage"/>
    <dc:date>2025-01-27T13:11:40.138748</dc:date>
    <dc:format>image/svg+xml</dc:format>
    <dc:creator>
     <cc:Agent>
      <dc:title>Matplotlib v3.6.3, https://matplotlib.org/</dc:title>
     </cc:Agent>
    </dc:creator>
   </cc:Work>
  </rdf:RDF>
 </metadata>
 <defs>
  <style type="text/css">*{stroke-linejoin: round; stroke-linecap: butt}</style>
 </defs>
 <g id="figure_1">
  <g id="patch_1">
   <path d="M 0 680.422917 
L 984.45625 680.422917 
L 984.45625 0 
L 0 0 
z
" style="fill: #ffffff"/>
  </g>
  <g id="axes_1">
   <g id="patch_2">
    <path d="M 43.78125 642.866667 
L 817.231964 642.866667 
L 817.231964 151.965714 
L 43.78125 151.965714 
z
" style="fill: #ffffff"/>
   </g>
   <g id="PathCollection_1">
    <defs>
     <path id="m3738dd8a75" d="M 0 3 
C 0.795609 3 1.55874 2.683901 2.12132 2.12132 
C 2.683901 1.55874 3 0.795609 3 0 
C 3 -0.795609 2.683901 -1.55874 2.12132 -2.12132 
C 1.55874 -2.683901 0.795609 -3 0 -3 
C -0.795609 -3 -1.55874 -2.683901 -2.12132 -2.12132 
C -2.683901 -1.55874 -3 -0.795609 -3 0 
C -3 0.795609 -2.683901 1.55874 -2.12132 2.12132 
C -1.55874 2.683901 -0.795609 3 0 3 
z
" style="stroke: #000000; stroke-opacity: 0.5"/>
    </defs>
    <g clip-path="url(#p66b59d6151)">
     <use xlink:href="#m3738dd8a75" x="247.712661" y="382.338866" style="fill: #4169e1; fill-opacity: 0.5; stroke: #000000; stroke-opacity: 0.5"/>
     <use xlink:href="#m3738dd8a75" x="467.131046" y="250.709404" style="fill: #4169e1; fill-opacity: 0.5; stroke: #000000; stroke-opacity: 0.5"/>
     <use xlink:href="#m3738dd8a75" x="438.029454" y="294.990283" style="fill: #4169e1; fill-opacity: 0.5; stroke: #000000; stroke-opacity: 0.5"/>
     <use xlink:href="#m3738dd8a75" x="157.380596" y="362.92807" style="fill: #4169e1; fill-opacity: 0.5; stroke: #000000; stroke-opacity: 0.5"/>
     <use xlink:href="#m3738dd8a75" x="709.075323" y="348.97656" style="fill: #4169e1; fill-opacity: 0.5; stroke: #000000; stroke-opacity: 0.5"/>
     <use xlink:href="#m3738dd8a75" x="315.201999" y="355.042434" style="fill: #4169e1; fill-opacity: 0.5; stroke: #000000; stroke-opacity: 0.5"/>
     <use xlink:href="#m3738dd8a75" x="165.737569" y="337.4514" style="fill: #4169e1; fill-opacity: 0.5; stroke: #000000; stroke-opacity: 0.5"/>
     <use xlink:href="#m3738dd8a75" x="373.648641" y="292.563934" style="fill: #4169e1; fill-opacity: 0.5; stroke: #000000; stroke-opacity: 0.5"/>
     <use xlink:href="#m3738dd8a75" x="656.616993" y="233.724957" style="fill: #4169e1; fill-opacity: 0.5; stroke: #000000; stroke-opacity: 0.5"/>
     <use xlink:href="#m3738dd8a75" x="241.103921" y="485.645833" style="fill: #4169e1; fill-opacity: 0.5; stroke: #000000; stroke-opacity: 0.5"/>
     <use xlink:href="#m3738dd8a75" x="210.036539" y="370.963328" style="fill: #4169e1; fill-opacity: 0.5; stroke: #000000; stroke-opacity: 0.5"/>
     <use xlink:href="#m3738dd8a75" x="759.589912" y="344.730448" style="fill: #4169e1; fill-opacity: 0.5; stroke: #000000; stroke-opacity: 0.5"/>
     <use xlink:href="#m3738dd8a75" x="438.442884" y="314.146107" style="fill: #4169e1; fill-opacity: 0.5; stroke: #000000; stroke-opacity: 0.5"/>
     <use xlink:href="#m3738dd8a75" x="112.007054" y="395.077201" style="fill: #4169e1; fill-opacity: 0.5; stroke: #000000; stroke-opacity: 0.5"/>
     <use xlink:href="#m3738dd8a75" x="98.601795" y="418.734109" style="fill: #4169e1; fill-opacity: 0.5; stroke: #000000; stroke-opacity: 0.5"/>
     <use xlink:href="#m3738dd8a75" x="585.729881" y="277.399249" style="fill: #4169e1; fill-opacity: 0.5; stroke: #000000; stroke-opacity: 0.5"/>
     <use xlink:href="#m3738dd8a75" x="198.400056" y="338.057987" style="fill: #4169e1; fill-opacity: 0.5; stroke: #000000; stroke-opacity: 0.5"/>
     <use xlink:href="#m3738dd8a75" x="407.457011" y="361.108308" style="fill: #4169e1; fill-opacity: 0.5; stroke: #000000; stroke-opacity: 0.5"/>
     <use xlink:href="#m3738dd8a75" x="718.535961" y="369.600531" style="fill: #4169e1; fill-opacity: 0.5; stroke: #000000; stroke-opacity: 0.5"/>
     <use xlink:href="#m3738dd8a75" x="86.805134" y="471.507211" style="fill: #4169e1; fill-opacity: 0.5; stroke: #000000; stroke-opacity: 0.5"/>
     <use xlink:href="#m3738dd8a75" x="397.36704" y="248.889642" style="fill: #4169e1; fill-opacity: 0.5; stroke: #000000; stroke-opacity: 0.5"/>
     <use xlink:href="#m3738dd8a75" x="354.856032" y="231.905195" style="fill: #4169e1; fill-opacity: 0.5; stroke: #000000; stroke-opacity: 0.5"/>
     <use xlink:href="#m3738dd8a75" x="561.129669" y="279.219011" style="fill: #4169e1; fill-opacity: 0.5; stroke: #000000; stroke-opacity: 0.5"/>
     <use xlink:href="#m3738dd8a75" x="156.21115" y="399.9299" style="fill: #4169e1; fill-opacity: 0.5; stroke: #000000; stroke-opacity: 0.5"/>
     <use xlink:href="#m3738dd8a75" x="648.853599" y="174.279394" style="fill: #4169e1; fill-opacity: 0.5; stroke: #000000; stroke-opacity: 0.5"/>
     <use xlink:href="#m3738dd8a75" x="448.771359" y="343.517274" style="fill: #4169e1; fill-opacity: 0.5; stroke: #000000; stroke-opacity: 0.5"/>
     <use xlink:href="#m3738dd8a75" x="635.825709" y="346.550211" style="fill: #4169e1; fill-opacity: 0.5; stroke: #000000; stroke-opacity: 0.5"/>
     <use xlink:href="#m3738dd8a75" x="502.975664" y="319.340923" style="fill: #4169e1; fill-opacity: 0.5; stroke: #000000; stroke-opacity: 0.5"/>
     <use xlink:href="#m3738dd8a75" x="285.621062" y="322.286715" style="fill: #4169e1; fill-opacity: 0.5; stroke: #000000; stroke-opacity: 0.5"/>
     <use xlink:href="#m3738dd8a75" x="533.314211" y="247.676467" style="fill: #4169e1; fill-opacity: 0.5; stroke: #000000; stroke-opacity: 0.5"/>
     <use xlink:href="#m3738dd8a75" x="462.517505" y="364.739043" style="fill: #4169e1; fill-opacity: 0.5; stroke: #000000; stroke-opacity: 0.5"/>
     <use xlink:href="#m3738dd8a75" x="684.279207" y="453.916177" style="fill: #4169e1; fill-opacity: 0.5; stroke: #000000; stroke-opacity: 0.5"/>
     <use xlink:href="#m3738dd8a75" x="480.911589" y="292.563934" style="fill: #4169e1; fill-opacity: 0.5; stroke: #000000; stroke-opacity: 0.5"/>
     <use xlink:href="#m3738dd8a75" x="278.174558" y="382.338866" style="fill: #4169e1; fill-opacity: 0.5; stroke: #000000; stroke-opacity: 0.5"/>
     <use xlink:href="#m3738dd8a75" x="586.90742" y="325.319652" style="fill: #4169e1; fill-opacity: 0.5; stroke: #000000; stroke-opacity: 0.5"/>
     <use xlink:href="#m3738dd8a75" x="400.087098" y="308.335205" style="fill: #4169e1; fill-opacity: 0.5; stroke: #000000; stroke-opacity: 0.5"/>
     <use xlink:href="#m3738dd8a75" x="213.983888" y="392.650852" style="fill: #4169e1; fill-opacity: 0.5; stroke: #000000; stroke-opacity: 0.5"/>
     <use xlink:href="#m3738dd8a75" x="688.156468" y="361.108308" style="fill: #4169e1; fill-opacity: 0.5; stroke: #000000; stroke-opacity: 0.5"/>
     <use xlink:href="#m3738dd8a75" x="537.883543" y="254.348928" style="fill: #4169e1; fill-opacity: 0.5; stroke: #000000; stroke-opacity: 0.5"/>
     <use xlink:href="#m3738dd8a75" x="588.110677" y="403.326194" style="fill: #4169e1; fill-opacity: 0.5; stroke: #000000; stroke-opacity: 0.5"/>
     <use xlink:href="#m3738dd8a75" x="607.466334" y="422.980221" style="fill: #4169e1; fill-opacity: 0.5; stroke: #000000; stroke-opacity: 0.5"/>
     <use xlink:href="#m3738dd8a75" x="404.714769" y="335.631638" style="fill: #4169e1; fill-opacity: 0.5; stroke: #000000; stroke-opacity: 0.5"/>
     <use xlink:href="#m3738dd8a75" x="572.725671" y="211.281224" style="fill: #4169e1; fill-opacity: 0.5; stroke: #000000; stroke-opacity: 0.5"/>
     <use xlink:href="#m3738dd8a75" x="115.444774" y="347.156798" style="fill: #4169e1; fill-opacity: 0.5; stroke: #000000; stroke-opacity: 0.5"/>
     <use xlink:href="#m3738dd8a75" x="138.80385" y="322.893303" style="fill: #4169e1; fill-opacity: 0.5; stroke: #000000; stroke-opacity: 0.5"/>
     <use xlink:href="#m3738dd8a75" x="530.176144" y="339.877749" style="fill: #4169e1; fill-opacity: 0.5; stroke: #000000; stroke-opacity: 0.5"/>
     <use xlink:href="#m3738dd8a75" x="331.111607" y="293.290937" style="fill: #4169e1; fill-opacity: 0.5; stroke: #000000; stroke-opacity: 0.5"/>
     <use xlink:href="#m3738dd8a75" x="332.813608" y="339.877749" style="fill: #4169e1; fill-opacity: 0.5; stroke: #000000; stroke-opacity: 0.5"/>
     <use xlink:href="#m3738dd8a75" x="763.986436" y="342.304099" style="fill: #4169e1; fill-opacity: 0.5; stroke: #000000; stroke-opacity: 0.5"/>
     <use xlink:href="#m3738dd8a75" x="490.461637" y="250.709404" style="fill: #4169e1; fill-opacity: 0.5; stroke: #000000; stroke-opacity: 0.5"/>
     <use xlink:href="#m3738dd8a75" x="715.975962" y="339.271162" style="fill: #4169e1; fill-opacity: 0.5; stroke: #000000; stroke-opacity: 0.5"/>
     <use xlink:href="#m3738dd8a75" x="179.45297" y="303.482506" style="fill: #4169e1; fill-opacity: 0.5; stroke: #000000; stroke-opacity: 0.5"/>
     <use xlink:href="#m3738dd8a75" x="99.544987" y="390.831089" style="fill: #4169e1; fill-opacity: 0.5; stroke: #000000; stroke-opacity: 0.5"/>
     <use xlink:href="#m3738dd8a75" x="274.405508" y="433.292206" style="fill: #4169e1; fill-opacity: 0.5; stroke: #000000; stroke-opacity: 0.5"/>
     <use xlink:href="#m3738dd8a75" x="340.979578" y="373.240055" style="fill: #4169e1; fill-opacity: 0.5; stroke: #000000; stroke-opacity: 0.5"/>
     <use xlink:href="#m3738dd8a75" x="392.28398" y="291.350759" style="fill: #4169e1; fill-opacity: 0.5; stroke: #000000; stroke-opacity: 0.5"/>
     <use xlink:href="#m3738dd8a75" x="78.938101" y="398.716725" style="fill: #4169e1; fill-opacity: 0.5; stroke: #000000; stroke-opacity: 0.5"/>
     <use xlink:href="#m3738dd8a75" x="600.803152" y="437.721575" style="fill: #4169e1; fill-opacity: 0.5; stroke: #000000; stroke-opacity: 0.5"/>
     <use xlink:href="#m3738dd8a75" x="393.680883" y="315.007667" style="fill: #4169e1; fill-opacity: 0.5; stroke: #000000; stroke-opacity: 0.5"/>
     <use xlink:href="#m3738dd8a75" x="662.112478" y="211.281224" style="fill: #4169e1; fill-opacity: 0.5; stroke: #000000; stroke-opacity: 0.5"/>
     <use xlink:href="#m3738dd8a75" x="545.798792" y="333.205288" style="fill: #4169e1; fill-opacity: 0.5; stroke: #000000; stroke-opacity: 0.5"/>
     <use xlink:href="#m3738dd8a75" x="565.270072" y="461.817862" style="fill: #4169e1; fill-opacity: 0.5; stroke: #000000; stroke-opacity: 0.5"/>
     <use xlink:href="#m3738dd8a75" x="782.075114" y="326.532827" style="fill: #4169e1; fill-opacity: 0.5; stroke: #000000; stroke-opacity: 0.5"/>
     <use xlink:href="#m3738dd8a75" x="571.961939" y="281.645361" style="fill: #4169e1; fill-opacity: 0.5; stroke: #000000; stroke-opacity: 0.5"/>
     <use xlink:href="#m3738dd8a75" x="418.082615" y="237.971069" style="fill: #4169e1; fill-opacity: 0.5; stroke: #000000; stroke-opacity: 0.5"/>
     <use xlink:href="#m3738dd8a75" x="566.221231" y="558.629898" style="fill: #4169e1; fill-opacity: 0.5; stroke: #000000; stroke-opacity: 0.5"/>
     <use xlink:href="#m3738dd8a75" x="232.321409" y="435.201052" style="fill: #4169e1; fill-opacity: 0.5; stroke: #000000; stroke-opacity: 0.5"/>
    </g>
   </g>
   <g id="PathCollection_2">
    <defs>
     <path id="mb01f9cf545" d="M 0 3 
C 0.795609 3 1.55874 2.683901 2.12132 2.12132 
C 2.683901 1.55874 3 0.795609 3 0 
C 3 -0.795609 2.683901 -1.55874 2.12132 -2.12132 
C 1.55874 -2.683901 0.795609 -3 0 -3 
C -0.795609 -3 -1.55874 -2.683901 -2.12132 -2.12132 
C -2.683901 -1.55874 -3 -0.795609 -3 0 
C -3 0.795609 -2.683901 1.55874 -2.12132 2.12132 
C -1.55874 2.683901 -0.795609 3 0 3 
z
" style="stroke: #000000; stroke-opacity: 0.5"/>
    </defs>
    <g clip-path="url(#p66b59d6151)">
     <use xlink:href="#mb01f9cf545" x="247.712661" y="439.456325" style="fill: #ff8c00; fill-opacity: 0.5; stroke: #000000; stroke-opacity: 0.5"/>
     <use xlink:href="#mb01f9cf545" x="467.131046" y="258.763307" style="fill: #ff8c00; fill-opacity: 0.5; stroke: #000000; stroke-opacity: 0.5"/>
     <use xlink:href="#mb01f9cf545" x="438.029454" y="295.255057" style="fill: #ff8c00; fill-opacity: 0.5; stroke: #000000; stroke-opacity: 0.5"/>
     <use xlink:href="#mb01f9cf545" x="157.380596" y="358.82133" style="fill: #ff8c00; fill-opacity: 0.5; stroke: #000000; stroke-opacity: 0.5"/>
     <use xlink:href="#mb01f9cf545" x="709.075323" y="312.323778" style="fill: #ff8c00; fill-opacity: 0.5; stroke: #000000; stroke-opacity: 0.5"/>
     <use xlink:href="#mb01f9cf545" x="315.201999" y="347.049798" style="fill: #ff8c00; fill-opacity: 0.5; stroke: #000000; stroke-opacity: 0.5"/>
     <use xlink:href="#mb01f9cf545" x="165.737569" y="299.963669" style="fill: #ff8c00; fill-opacity: 0.5; stroke: #000000; stroke-opacity: 0.5"/>
     <use xlink:href="#mb01f9cf545" x="373.648641" y="303.495129" style="fill: #ff8c00; fill-opacity: 0.5; stroke: #000000; stroke-opacity: 0.5"/>
     <use xlink:href="#mb01f9cf545" x="656.616993" y="308.203742" style="fill: #ff8c00; fill-opacity: 0.5; stroke: #000000; stroke-opacity: 0.5"/>
     <use xlink:href="#mb01f9cf545" x="241.103921" y="397.70614" style="fill: #ff8c00; fill-opacity: 0.5; stroke: #000000; stroke-opacity: 0.5"/>
     <use xlink:href="#mb01f9cf545" x="210.036539" y="423.725212" style="fill: #ff8c00; fill-opacity: 0.5; stroke: #000000; stroke-opacity: 0.5"/>
     <use xlink:href="#mb01f9cf545" x="759.589912" y="334.101112" style="fill: #ff8c00; fill-opacity: 0.5; stroke: #000000; stroke-opacity: 0.5"/>
     <use xlink:href="#mb01f9cf545" x="438.442884" y="320.267074" style="fill: #ff8c00; fill-opacity: 0.5; stroke: #000000; stroke-opacity: 0.5"/>
     <use xlink:href="#mb01f9cf545" x="112.007054" y="561.291682" style="fill: #ff8c00; fill-opacity: 0.5; stroke: #000000; stroke-opacity: 0.5"/>
     <use xlink:href="#mb01f9cf545" x="98.601795" y="464.176542" style="fill: #ff8c00; fill-opacity: 0.5; stroke: #000000; stroke-opacity: 0.5"/>
     <use xlink:href="#mb01f9cf545" x="585.729881" y="302.906552" style="fill: #ff8c00; fill-opacity: 0.5; stroke: #000000; stroke-opacity: 0.5"/>
     <use xlink:href="#mb01f9cf545" x="198.400056" y="365.884249" style="fill: #ff8c00; fill-opacity: 0.5; stroke: #000000; stroke-opacity: 0.5"/>
     <use xlink:href="#mb01f9cf545" x="407.457011" y="386.48443" style="fill: #ff8c00; fill-opacity: 0.5; stroke: #000000; stroke-opacity: 0.5"/>
     <use xlink:href="#mb01f9cf545" x="718.535961" y="326.449617" style="fill: #ff8c00; fill-opacity: 0.5; stroke: #000000; stroke-opacity: 0.5"/>
     <use xlink:href="#mb01f9cf545" x="86.805134" y="442.399208" style="fill: #ff8c00; fill-opacity: 0.5; stroke: #000000; stroke-opacity: 0.5"/>
     <use xlink:href="#mb01f9cf545" x="397.36704" y="248.757505" style="fill: #ff8c00; fill-opacity: 0.5; stroke: #000000; stroke-opacity: 0.5"/>
     <use xlink:href="#mb01f9cf545" x="354.856032" y="270.534839" style="fill: #ff8c00; fill-opacity: 0.5; stroke: #000000; stroke-opacity: 0.5"/>
     <use xlink:href="#mb01f9cf545" x="561.129669" y="288.780714" style="fill: #ff8c00; fill-opacity: 0.5; stroke: #000000; stroke-opacity: 0.5"/>
     <use xlink:href="#mb01f9cf545" x="156.21115" y="351.758411" style="fill: #ff8c00; fill-opacity: 0.5; stroke: #000000; stroke-opacity: 0.5"/>
     <use xlink:href="#mb01f9cf545" x="648.853599" y="224.625864" style="fill: #ff8c00; fill-opacity: 0.5; stroke: #000000; stroke-opacity: 0.5"/>
     <use xlink:href="#mb01f9cf545" x="448.771359" y="350.581257" style="fill: #ff8c00; fill-opacity: 0.5; stroke: #000000; stroke-opacity: 0.5"/>
     <use xlink:href="#mb01f9cf545" x="635.825709" y="401.787422" style="fill: #ff8c00; fill-opacity: 0.5; stroke: #000000; stroke-opacity: 0.5"/>
     <use xlink:href="#mb01f9cf545" x="502.975664" y="340.668656" style="fill: #ff8c00; fill-opacity: 0.5; stroke: #000000; stroke-opacity: 0.5"/>
     <use xlink:href="#mb01f9cf545" x="285.621062" y="296.43221" style="fill: #ff8c00; fill-opacity: 0.5; stroke: #000000; stroke-opacity: 0.5"/>
     <use xlink:href="#mb01f9cf545" x="533.314211" y="255.820424" style="fill: #ff8c00; fill-opacity: 0.5; stroke: #000000; stroke-opacity: 0.5"/>
     <use xlink:href="#mb01f9cf545" x="462.517505" y="415.933972" style="fill: #ff8c00; fill-opacity: 0.5; stroke: #000000; stroke-opacity: 0.5"/>
     <use xlink:href="#mb01f9cf545" x="684.279207" y="415.91326" style="fill: #ff8c00; fill-opacity: 0.5; stroke: #000000; stroke-opacity: 0.5"/>
     <use xlink:href="#mb01f9cf545" x="480.911589" y="312.912355" style="fill: #ff8c00; fill-opacity: 0.5; stroke: #000000; stroke-opacity: 0.5"/>
     <use xlink:href="#mb01f9cf545" x="278.174558" y="392.958773" style="fill: #ff8c00; fill-opacity: 0.5; stroke: #000000; stroke-opacity: 0.5"/>
     <use xlink:href="#mb01f9cf545" x="586.90742" y="344.695491" style="fill: #ff8c00; fill-opacity: 0.5; stroke: #000000; stroke-opacity: 0.5"/>
     <use xlink:href="#mb01f9cf545" x="400.087098" y="325.86104" style="fill: #ff8c00; fill-opacity: 0.5; stroke: #000000; stroke-opacity: 0.5"/>
     <use xlink:href="#mb01f9cf545" x="213.983888" y="374.712898" style="fill: #ff8c00; fill-opacity: 0.5; stroke: #000000; stroke-opacity: 0.5"/>
     <use xlink:href="#mb01f9cf545" x="688.156468" y="331.158229" style="fill: #ff8c00; fill-opacity: 0.5; stroke: #000000; stroke-opacity: 0.5"/>
     <use xlink:href="#mb01f9cf545" x="537.883543" y="261.117614" style="fill: #ff8c00; fill-opacity: 0.5; stroke: #000000; stroke-opacity: 0.5"/>
     <use xlink:href="#mb01f9cf545" x="588.110677" y="445.765261" style="fill: #ff8c00; fill-opacity: 0.5; stroke: #000000; stroke-opacity: 0.5"/>
     <use xlink:href="#mb01f9cf545" x="607.466334" y="444.753514" style="fill: #ff8c00; fill-opacity: 0.5; stroke: #000000; stroke-opacity: 0.5"/>
     <use xlink:href="#mb01f9cf545" x="404.714769" y="342.929761" style="fill: #ff8c00; fill-opacity: 0.5; stroke: #000000; stroke-opacity: 0.5"/>
     <use xlink:href="#mb01f9cf545" x="572.725671" y="221.094404" style="fill: #ff8c00; fill-opacity: 0.5; stroke: #000000; stroke-opacity: 0.5"/>
     <use xlink:href="#mb01f9cf545" x="115.444774" y="507.142634" style="fill: #ff8c00; fill-opacity: 0.5; stroke: #000000; stroke-opacity: 0.5"/>
     <use xlink:href="#mb01f9cf545" x="138.80385" y="306.438012" style="fill: #ff8c00; fill-opacity: 0.5; stroke: #000000; stroke-opacity: 0.5"/>
     <use xlink:href="#mb01f9cf545" x="530.176144" y="346.461221" style="fill: #ff8c00; fill-opacity: 0.5; stroke: #000000; stroke-opacity: 0.5"/>
     <use xlink:href="#mb01f9cf545" x="331.111607" y="340.115896" style="fill: #ff8c00; fill-opacity: 0.5; stroke: #000000; stroke-opacity: 0.5"/>
     <use xlink:href="#mb01f9cf545" x="332.813608" y="354.112717" style="fill: #ff8c00; fill-opacity: 0.5; stroke: #000000; stroke-opacity: 0.5"/>
     <use xlink:href="#mb01f9cf545" x="763.986436" y="315.266661" style="fill: #ff8c00; fill-opacity: 0.5; stroke: #000000; stroke-opacity: 0.5"/>
     <use xlink:href="#mb01f9cf545" x="490.461637" y="254.054694" style="fill: #ff8c00; fill-opacity: 0.5; stroke: #000000; stroke-opacity: 0.5"/>
     <use xlink:href="#mb01f9cf545" x="715.975962" y="359.409906" style="fill: #ff8c00; fill-opacity: 0.5; stroke: #000000; stroke-opacity: 0.5"/>
     <use xlink:href="#mb01f9cf545" x="179.45297" y="282.894948" style="fill: #ff8c00; fill-opacity: 0.5; stroke: #000000; stroke-opacity: 0.5"/>
     <use xlink:href="#mb01f9cf545" x="99.544987" y="522.445626" style="fill: #ff8c00; fill-opacity: 0.5; stroke: #000000; stroke-opacity: 0.5"/>
     <use xlink:href="#mb01f9cf545" x="274.405508" y="412.381801" style="fill: #ff8c00; fill-opacity: 0.5; stroke: #000000; stroke-opacity: 0.5"/>
     <use xlink:href="#mb01f9cf545" x="340.979578" y="340.575455" style="fill: #ff8c00; fill-opacity: 0.5; stroke: #000000; stroke-opacity: 0.5"/>
     <use xlink:href="#mb01f9cf545" x="392.28398" y="304.083706" style="fill: #ff8c00; fill-opacity: 0.5; stroke: #000000; stroke-opacity: 0.5"/>
     <use xlink:href="#mb01f9cf545" x="78.938101" y="509.49694" style="fill: #ff8c00; fill-opacity: 0.5; stroke: #000000; stroke-opacity: 0.5"/>
     <use xlink:href="#mb01f9cf545" x="600.803152" y="620.552987" style="fill: #ff8c00; fill-opacity: 0.5; stroke: #000000; stroke-opacity: 0.5"/>
     <use xlink:href="#mb01f9cf545" x="393.680883" y="317.032391" style="fill: #ff8c00; fill-opacity: 0.5; stroke: #000000; stroke-opacity: 0.5"/>
     <use xlink:href="#mb01f9cf545" x="662.112478" y="252.288964" style="fill: #ff8c00; fill-opacity: 0.5; stroke: #000000; stroke-opacity: 0.5"/>
     <use xlink:href="#mb01f9cf545" x="545.798792" y="338.221149" style="fill: #ff8c00; fill-opacity: 0.5; stroke: #000000; stroke-opacity: 0.5"/>
     <use xlink:href="#mb01f9cf545" x="565.270072" y="494.000905" style="fill: #ff8c00; fill-opacity: 0.5; stroke: #000000; stroke-opacity: 0.5"/>
     <use xlink:href="#mb01f9cf545" x="782.075114" y="349.992681" style="fill: #ff8c00; fill-opacity: 0.5; stroke: #000000; stroke-opacity: 0.5"/>
     <use xlink:href="#mb01f9cf545" x="571.961939" y="297.609363" style="fill: #ff8c00; fill-opacity: 0.5; stroke: #000000; stroke-opacity: 0.5"/>
     <use xlink:href="#mb01f9cf545" x="418.082615" y="254.054694" style="fill: #ff8c00; fill-opacity: 0.5; stroke: #000000; stroke-opacity: 0.5"/>
     <use xlink:href="#mb01f9cf545" x="566.221231" y="592.369414" style="fill: #ff8c00; fill-opacity: 0.5; stroke: #000000; stroke-opacity: 0.5"/>
     <use xlink:href="#mb01f9cf545" x="232.321409" y="296.785547" style="fill: #ff8c00; fill-opacity: 0.5; stroke: #000000; stroke-opacity: 0.5"/>
    </g>
   </g>
   <g id="PolyCollection_1">
    <path d="M 78.938101 344.694825 
L 78.938101 397.410106 
L 86.040495 396.10499 
L 93.142889 395.196158 
L 100.245283 394.114095 
L 107.347677 392.781824 
L 114.450071 391.674102 
L 121.552465 390.56638 
L 128.654859 389.456868 
L 135.757253 388.353497 
L 142.859647 387.344851 
L 149.962041 386.131537 
L 157.064435 385.025828 
L 164.166829 383.911732 
L 171.269224 382.810599 
L 178.371618 381.951108 
L 185.474012 380.838032 
L 192.576406 379.852595 
L 199.6788 378.875177 
L 206.781194 377.849136 
L 213.883588 376.809935 
L 220.985982 375.97072 
L 228.088376 375.059551 
L 235.19077 374.233212 
L 242.293164 373.464409 
L 249.395558 372.544116 
L 256.497952 371.64849 
L 263.600346 370.954222 
L 270.702741 370.121459 
L 277.805135 369.2875 
L 284.907529 368.551083 
L 292.009923 367.778782 
L 299.112317 367.139551 
L 306.214711 366.213256 
L 313.317105 365.680706 
L 320.419499 364.825081 
L 327.521893 364.310083 
L 334.624287 363.860775 
L 341.726681 363.254037 
L 348.829075 362.652377 
L 355.931469 362.07189 
L 363.033863 361.541703 
L 370.136258 361.018052 
L 377.238652 360.546466 
L 384.341046 359.967754 
L 391.44344 359.522402 
L 398.545834 359.19013 
L 405.648228 358.703447 
L 412.750622 358.181851 
L 419.853016 357.735001 
L 426.95541 357.288151 
L 434.057804 356.954094 
L 441.160198 356.692508 
L 448.262592 356.392222 
L 455.364986 356.021404 
L 462.46738 355.470238 
L 469.569775 355.157502 
L 476.672169 355.038316 
L 483.774563 354.712991 
L 490.876957 354.259912 
L 497.979351 354.047099 
L 505.081745 353.877145 
L 512.184139 353.690558 
L 519.286533 353.282383 
L 526.388927 352.873036 
L 533.491321 352.312407 
L 540.593715 352.016436 
L 547.696109 351.647904 
L 554.798503 351.593392 
L 561.900897 351.332375 
L 569.003292 350.933412 
L 576.105686 350.598383 
L 583.20808 350.31978 
L 590.310474 349.766423 
L 597.412868 349.337562 
L 604.515262 348.938599 
L 611.617656 348.752838 
L 618.72005 348.388585 
L 625.822444 348.039556 
L 632.924838 347.811849 
L 640.027232 347.561594 
L 647.129626 347.383736 
L 654.23202 347.246113 
L 661.334414 347.096962 
L 668.436809 346.952604 
L 675.539203 346.80533 
L 682.641597 346.655636 
L 689.743991 346.337853 
L 696.846385 346.008599 
L 703.948779 345.792035 
L 711.051173 345.66819 
L 718.153567 345.547598 
L 725.255961 345.427007 
L 732.358355 345.233791 
L 739.460749 344.958773 
L 746.563143 344.683755 
L 753.665537 344.709599 
L 760.767931 344.79921 
L 767.870325 344.703457 
L 774.97272 344.582866 
L 782.075114 344.461478 
L 782.075114 267.874646 
L 782.075114 267.874646 
L 774.97272 269.000993 
L 767.870325 270.30684 
L 760.767931 271.381675 
L 753.665537 272.456511 
L 746.563143 273.531347 
L 739.460749 274.606182 
L 732.358355 275.683008 
L 725.255961 276.762195 
L 718.153567 277.841383 
L 711.051173 278.920571 
L 703.948779 280.061429 
L 696.846385 281.269158 
L 689.743991 282.476887 
L 682.641597 283.684616 
L 675.539203 284.894997 
L 668.436809 286.112684 
L 661.334414 287.355024 
L 654.23202 288.558185 
L 647.129626 289.750072 
L 640.027232 290.958867 
L 632.924838 292.171325 
L 625.822444 293.367126 
L 618.72005 294.59221 
L 611.617656 295.800527 
L 604.515262 296.879484 
L 597.412868 297.915127 
L 590.310474 298.953009 
L 583.20808 300.006983 
L 576.105686 301.353206 
L 569.003292 302.622249 
L 561.900897 303.953373 
L 554.798503 305.139329 
L 547.696109 305.981439 
L 540.593715 306.838259 
L 533.491321 308.080934 
L 526.388927 309.003684 
L 519.286533 309.954411 
L 512.184139 311.148967 
L 505.081745 312.087042 
L 497.979351 313.179823 
L 490.876957 314.673934 
L 483.774563 315.583062 
L 476.672169 316.423898 
L 469.569775 317.366227 
L 462.46738 318.092964 
L 455.364986 318.71356 
L 448.262592 319.632207 
L 441.160198 320.486448 
L 434.057804 321.308597 
L 426.95541 322.028696 
L 419.853016 322.956096 
L 412.750622 324.103495 
L 405.648228 325.155907 
L 398.545834 325.957582 
L 391.44344 326.492324 
L 384.341046 327.289218 
L 377.238652 327.998925 
L 370.136258 329.078426 
L 363.033863 329.94811 
L 355.931469 330.923957 
L 348.829075 331.477174 
L 341.726681 332.174027 
L 334.624287 332.69083 
L 327.521893 333.587125 
L 320.419499 333.912766 
L 313.317105 334.192482 
L 306.214711 334.658216 
L 299.112317 335.220348 
L 292.009923 336.048549 
L 284.907529 336.497895 
L 277.805135 336.920259 
L 270.702741 337.240473 
L 263.600346 337.740184 
L 256.497952 338.178394 
L 249.395558 338.670825 
L 242.293164 338.829822 
L 235.19077 339.200191 
L 228.088376 339.814339 
L 220.985982 340.063193 
L 213.883588 340.177183 
L 206.781194 340.291173 
L 199.6788 340.470646 
L 192.576406 340.771403 
L 185.474012 341.091538 
L 178.371618 341.36249 
L 171.269224 341.551657 
L 164.166829 341.793236 
L 157.064435 341.987926 
L 149.962041 342.199587 
L 142.859647 342.622277 
L 135.757253 343.011576 
L 128.654859 343.383374 
L 121.552465 343.503213 
L 114.450071 343.621516 
L 107.347677 343.742455 
L 100.245283 343.940389 
L 93.142889 344.360763 
L 86.040495 344.784161 
L 78.938101 344.694825 
z
" clip-path="url(#p66b59d6151)" style="fill: #1f77b4; fill-opacity: 0.15"/>
   </g>
   <g id="PolyCollection_2">
    <path d="M 78.938101 355.428831 
L 78.938101 434.63743 
L 86.040495 433.328446 
L 93.142889 431.789622 
L 100.245283 430.206573 
L 107.347677 428.661602 
L 114.450071 427.043766 
L 121.552465 425.637219 
L 128.654859 424.178584 
L 135.757253 422.533092 
L 142.859647 420.823702 
L 149.962041 419.138143 
L 157.064435 417.90271 
L 164.166829 416.16796 
L 171.269224 414.623801 
L 178.371618 413.335933 
L 185.474012 411.903369 
L 192.576406 410.618862 
L 199.6788 409.234318 
L 206.781194 408.029586 
L 213.883588 406.544222 
L 220.985982 405.310507 
L 228.088376 404.316113 
L 235.19077 403.076637 
L 242.293164 401.805646 
L 249.395558 400.74223 
L 256.497952 399.513003 
L 263.600346 398.278163 
L 270.702741 397.038219 
L 277.805135 396.160612 
L 284.907529 395.367768 
L 292.009923 394.365594 
L 299.112317 393.183649 
L 306.214711 391.889601 
L 313.317105 390.955256 
L 320.419499 389.715986 
L 327.521893 388.674977 
L 334.624287 387.823153 
L 341.726681 386.80656 
L 348.829075 385.726756 
L 355.931469 384.776093 
L 363.033863 383.7689 
L 370.136258 382.778612 
L 377.238652 382.218643 
L 384.341046 381.368858 
L 391.44344 380.606936 
L 398.545834 379.86458 
L 405.648228 378.659968 
L 412.750622 378.623006 
L 419.853016 377.672577 
L 426.95541 376.694438 
L 434.057804 375.724347 
L 441.160198 375.472663 
L 448.262592 374.887893 
L 455.364986 373.755693 
L 462.46738 373.271971 
L 469.569775 373.342588 
L 476.672169 372.710717 
L 483.774563 372.242002 
L 490.876957 371.479743 
L 497.979351 370.311452 
L 505.081745 370.140971 
L 512.184139 369.883003 
L 519.286533 369.676656 
L 526.388927 369.470308 
L 533.491321 369.298227 
L 540.593715 369.357968 
L 547.696109 369.184441 
L 554.798503 368.616933 
L 561.900897 368.060351 
L 569.003292 367.705909 
L 576.105686 367.32908 
L 583.20808 366.95031 
L 590.310474 366.481527 
L 597.412868 366.226858 
L 604.515262 365.766312 
L 611.617656 365.601068 
L 618.72005 365.47762 
L 625.822444 365.235052 
L 632.924838 364.991688 
L 640.027232 364.790087 
L 647.129626 364.643223 
L 654.23202 364.494016 
L 661.334414 364.160247 
L 668.436809 363.741504 
L 675.539203 363.494969 
L 682.641597 363.248435 
L 689.743991 363.166329 
L 696.846385 363.211448 
L 703.948779 363.003827 
L 711.051173 363.005174 
L 718.153567 362.84561 
L 725.255961 362.616122 
L 732.358355 362.386634 
L 739.460749 362.157145 
L 746.563143 361.923283 
L 753.665537 361.686791 
L 760.767931 361.447338 
L 767.870325 361.208587 
L 774.97272 360.791471 
L 782.075114 360.705643 
L 782.075114 268.180754 
L 782.075114 268.180754 
L 774.97272 269.668535 
L 767.870325 271.15973 
L 760.767931 272.671149 
L 753.665537 274.331447 
L 746.563143 275.991745 
L 739.460749 277.652044 
L 732.358355 279.312342 
L 725.255961 280.976885 
L 718.153567 282.642869 
L 711.051173 284.025557 
L 703.948779 285.395815 
L 696.846385 287.085118 
L 689.743991 288.410877 
L 682.641597 289.839382 
L 675.539203 291.151822 
L 668.436809 292.592266 
L 661.334414 294.194365 
L 654.23202 295.329471 
L 647.129626 297.202768 
L 640.027232 299.163944 
L 632.924838 301.12512 
L 625.822444 302.624549 
L 618.72005 303.894936 
L 611.617656 305.158744 
L 604.515262 306.416832 
L 597.412868 307.919782 
L 590.310474 309.327026 
L 583.20808 310.628757 
L 576.105686 311.9321 
L 569.003292 313.128854 
L 561.900897 314.541908 
L 554.798503 315.783584 
L 547.696109 317.248844 
L 540.593715 318.587578 
L 533.491321 320.222118 
L 526.388927 321.364793 
L 519.286533 322.360708 
L 512.184139 323.66518 
L 505.081745 324.810874 
L 497.979351 325.939208 
L 490.876957 326.946936 
L 483.774563 327.974654 
L 476.672169 329.361378 
L 469.569775 330.301292 
L 462.46738 331.15698 
L 455.364986 332.032674 
L 448.262592 333.142631 
L 441.160198 334.235706 
L 434.057804 335.001356 
L 426.95541 336.013667 
L 419.853016 337.013721 
L 412.750622 338.014927 
L 405.648228 338.812939 
L 398.545834 339.163962 
L 391.44344 339.593357 
L 384.341046 340.110081 
L 377.238652 340.549806 
L 370.136258 341.326353 
L 363.033863 342.02658 
L 355.931469 342.643528 
L 348.829075 343.528037 
L 341.726681 343.982224 
L 334.624287 344.894333 
L 327.521893 345.25317 
L 320.419499 345.751371 
L 313.317105 346.286341 
L 306.214711 346.486634 
L 299.112317 346.857596 
L 292.009923 347.357849 
L 284.907529 347.653715 
L 277.805135 348.026071 
L 270.702741 348.772816 
L 263.600346 349.409453 
L 256.497952 349.994372 
L 249.395558 350.37448 
L 242.293164 350.567024 
L 235.19077 351.025005 
L 228.088376 351.354043 
L 220.985982 351.551789 
L 213.883588 351.749536 
L 206.781194 352.054023 
L 199.6788 352.175582 
L 192.576406 352.450675 
L 185.474012 352.688158 
L 178.371618 352.713623 
L 171.269224 352.904912 
L 164.166829 353.098687 
L 157.064435 353.292866 
L 149.962041 353.487045 
L 142.859647 353.60555 
L 135.757253 353.703287 
L 128.654859 353.801024 
L 121.552465 353.898761 
L 114.450071 353.996498 
L 107.347677 354.140821 
L 100.245283 354.369756 
L 93.142889 354.781123 
L 86.040495 355.19249 
L 78.938101 355.428831 
z
" clip-path="url(#p66b59d6151)" style="fill: #ff7f0e; fill-opacity: 0.15"/>
   </g>
   <g id="matplotlib.axis_1">
    <g id="xtick_1">
     <g id="line2d_1">
      <defs>
       <path id="mb32603ea63" d="M 0 0 
L 0 3.5 
" style="stroke: #000000; stroke-width: 0.8"/>
      </defs>
      <g>
       <use xlink:href="#mb32603ea63" x="56.567963" y="642.866667" style="stroke: #000000; stroke-width: 0.8"/>
      </g>
     </g>
     <g id="text_1">
      <!-- 0.30 -->
      <g transform="translate(45.43515 657.465104) scale(0.1 -0.1)">
       <defs>
        <path id="DejaVuSans-30" d="M 2034 4250 
Q 1547 4250 1301 3770 
Q 1056 3291 1056 2328 
Q 1056 1369 1301 889 
Q 1547 409 2034 409 
Q 2525 409 2770 889 
Q 3016 1369 3016 2328 
Q 3016 3291 2770 3770 
Q 2525 4250 2034 4250 
z
M 2034 4750 
Q 2819 4750 3233 4129 
Q 3647 3509 3647 2328 
Q 3647 1150 3233 529 
Q 2819 -91 2034 -91 
Q 1250 -91 836 529 
Q 422 1150 422 2328 
Q 422 3509 836 4129 
Q 1250 4750 2034 4750 
z
" transform="scale(0.015625)"/>
        <path id="DejaVuSans-2e" d="M 684 794 
L 1344 794 
L 1344 0 
L 684 0 
L 684 794 
z
" transform="scale(0.015625)"/>
        <path id="DejaVuSans-33" d="M 2597 2516 
Q 3050 2419 3304 2112 
Q 3559 1806 3559 1356 
Q 3559 666 3084 287 
Q 2609 -91 1734 -91 
Q 1441 -91 1130 -33 
Q 819 25 488 141 
L 488 750 
Q 750 597 1062 519 
Q 1375 441 1716 441 
Q 2309 441 2620 675 
Q 2931 909 2931 1356 
Q 2931 1769 2642 2001 
Q 2353 2234 1838 2234 
L 1294 2234 
L 1294 2753 
L 1863 2753 
Q 2328 2753 2575 2939 
Q 2822 3125 2822 3475 
Q 2822 3834 2567 4026 
Q 2313 4219 1838 4219 
Q 1578 4219 1281 4162 
Q 984 4106 628 3988 
L 628 4550 
Q 988 4650 1302 4700 
Q 1616 4750 1894 4750 
Q 2613 4750 3031 4423 
Q 3450 4097 3450 3541 
Q 3450 3153 3228 2886 
Q 3006 2619 2597 2516 
z
" transform="scale(0.015625)"/>
       </defs>
       <use xlink:href="#DejaVuSans-30"/>
       <use xlink:href="#DejaVuSans-2e" x="63.623047"/>
       <use xlink:href="#DejaVuSans-33" x="95.410156"/>
       <use xlink:href="#DejaVuSans-30" x="159.033203"/>
      </g>
     </g>
    </g>
    <g id="xtick_2">
     <g id="line2d_2">
      <g>
       <use xlink:href="#mb32603ea63" x="150.809588" y="642.866667" style="stroke: #000000; stroke-width: 0.8"/>
      </g>
     </g>
     <g id="text_2">
      <!-- 0.35 -->
      <g transform="translate(139.676776 657.465104) scale(0.1 -0.1)">
       <defs>
        <path id="DejaVuSans-35" d="M 691 4666 
L 3169 4666 
L 3169 4134 
L 1269 4134 
L 1269 2991 
Q 1406 3038 1543 3061 
Q 1681 3084 1819 3084 
Q 2600 3084 3056 2656 
Q 3513 2228 3513 1497 
Q 3513 744 3044 326 
Q 2575 -91 1722 -91 
Q 1428 -91 1123 -41 
Q 819 9 494 109 
L 494 744 
Q 775 591 1075 516 
Q 1375 441 1709 441 
Q 2250 441 2565 725 
Q 2881 1009 2881 1497 
Q 2881 1984 2565 2268 
Q 2250 2553 1709 2553 
Q 1456 2553 1204 2497 
Q 953 2441 691 2322 
L 691 4666 
z
" transform="scale(0.015625)"/>
       </defs>
       <use xlink:href="#DejaVuSans-30"/>
       <use xlink:href="#DejaVuSans-2e" x="63.623047"/>
       <use xlink:href="#DejaVuSans-33" x="95.410156"/>
       <use xlink:href="#DejaVuSans-35" x="159.033203"/>
      </g>
     </g>
    </g>
    <g id="xtick_3">
     <g id="line2d_3">
      <g>
       <use xlink:href="#mb32603ea63" x="245.051214" y="642.866667" style="stroke: #000000; stroke-width: 0.8"/>
      </g>
     </g>
     <g id="text_3">
      <!-- 0.40 -->
      <g transform="translate(233.918402 657.465104) scale(0.1 -0.1)">
       <defs>
        <path id="DejaVuSans-34" d="M 2419 4116 
L 825 1625 
L 2419 1625 
L 2419 4116 
z
M 2253 4666 
L 3047 4666 
L 3047 1625 
L 3713 1625 
L 3713 1100 
L 3047 1100 
L 3047 0 
L 2419 0 
L 2419 1100 
L 313 1100 
L 313 1709 
L 2253 4666 
z
" transform="scale(0.015625)"/>
       </defs>
       <use xlink:href="#DejaVuSans-30"/>
       <use xlink:href="#DejaVuSans-2e" x="63.623047"/>
       <use xlink:href="#DejaVuSans-34" x="95.410156"/>
       <use xlink:href="#DejaVuSans-30" x="159.033203"/>
      </g>
     </g>
    </g>
    <g id="xtick_4">
     <g id="line2d_4">
      <g>
       <use xlink:href="#mb32603ea63" x="339.29284" y="642.866667" style="stroke: #000000; stroke-width: 0.8"/>
      </g>
     </g>
     <g id="text_4">
      <!-- 0.45 -->
      <g transform="translate(328.160027 657.465104) scale(0.1 -0.1)">
       <use xlink:href="#DejaVuSans-30"/>
       <use xlink:href="#DejaVuSans-2e" x="63.623047"/>
       <use xlink:href="#DejaVuSans-34" x="95.410156"/>
       <use xlink:href="#DejaVuSans-35" x="159.033203"/>
      </g>
     </g>
    </g>
    <g id="xtick_5">
     <g id="line2d_5">
      <g>
       <use xlink:href="#mb32603ea63" x="433.534466" y="642.866667" style="stroke: #000000; stroke-width: 0.8"/>
      </g>
     </g>
     <g id="text_5">
      <!-- 0.50 -->
      <g transform="translate(422.401653 657.465104) scale(0.1 -0.1)">
       <use xlink:href="#DejaVuSans-30"/>
       <use xlink:href="#DejaVuSans-2e" x="63.623047"/>
       <use xlink:href="#DejaVuSans-35" x="95.410156"/>
       <use xlink:href="#DejaVuSans-30" x="159.033203"/>
      </g>
     </g>
    </g>
    <g id="xtick_6">
     <g id="line2d_6">
      <g>
       <use xlink:href="#mb32603ea63" x="527.776091" y="642.866667" style="stroke: #000000; stroke-width: 0.8"/>
      </g>
     </g>
     <g id="text_6">
      <!-- 0.55 -->
      <g transform="translate(516.643279 657.465104) scale(0.1 -0.1)">
       <use xlink:href="#DejaVuSans-30"/>
       <use xlink:href="#DejaVuSans-2e" x="63.623047"/>
       <use xlink:href="#DejaVuSans-35" x="95.410156"/>
       <use xlink:href="#DejaVuSans-35" x="159.033203"/>
      </g>
     </g>
    </g>
    <g id="xtick_7">
     <g id="line2d_7">
      <g>
       <use xlink:href="#mb32603ea63" x="622.017717" y="642.866667" style="stroke: #000000; stroke-width: 0.8"/>
      </g>
     </g>
     <g id="text_7">
      <!-- 0.60 -->
      <g transform="translate(610.884905 657.465104) scale(0.1 -0.1)">
       <defs>
        <path id="DejaVuSans-36" d="M 2113 2584 
Q 1688 2584 1439 2293 
Q 1191 2003 1191 1497 
Q 1191 994 1439 701 
Q 1688 409 2113 409 
Q 2538 409 2786 701 
Q 3034 994 3034 1497 
Q 3034 2003 2786 2293 
Q 2538 2584 2113 2584 
z
M 3366 4563 
L 3366 3988 
Q 3128 4100 2886 4159 
Q 2644 4219 2406 4219 
Q 1781 4219 1451 3797 
Q 1122 3375 1075 2522 
Q 1259 2794 1537 2939 
Q 1816 3084 2150 3084 
Q 2853 3084 3261 2657 
Q 3669 2231 3669 1497 
Q 3669 778 3244 343 
Q 2819 -91 2113 -91 
Q 1303 -91 875 529 
Q 447 1150 447 2328 
Q 447 3434 972 4092 
Q 1497 4750 2381 4750 
Q 2619 4750 2861 4703 
Q 3103 4656 3366 4563 
z
" transform="scale(0.015625)"/>
       </defs>
       <use xlink:href="#DejaVuSans-30"/>
       <use xlink:href="#DejaVuSans-2e" x="63.623047"/>
       <use xlink:href="#DejaVuSans-36" x="95.410156"/>
       <use xlink:href="#DejaVuSans-30" x="159.033203"/>
      </g>
     </g>
    </g>
    <g id="xtick_8">
     <g id="line2d_8">
      <g>
       <use xlink:href="#mb32603ea63" x="716.259343" y="642.866667" style="stroke: #000000; stroke-width: 0.8"/>
      </g>
     </g>
     <g id="text_8">
      <!-- 0.65 -->
      <g transform="translate(705.126531 657.465104) scale(0.1 -0.1)">
       <use xlink:href="#DejaVuSans-30"/>
       <use xlink:href="#DejaVuSans-2e" x="63.623047"/>
       <use xlink:href="#DejaVuSans-36" x="95.410156"/>
       <use xlink:href="#DejaVuSans-35" x="159.033203"/>
      </g>
     </g>
    </g>
    <g id="xtick_9">
     <g id="line2d_9">
      <g>
       <use xlink:href="#mb32603ea63" x="810.500969" y="642.866667" style="stroke: #000000; stroke-width: 0.8"/>
      </g>
     </g>
     <g id="text_9">
      <!-- 0.70 -->
      <g transform="translate(799.368156 657.465104) scale(0.1 -0.1)">
       <defs>
        <path id="DejaVuSans-37" d="M 525 4666 
L 3525 4666 
L 3525 4397 
L 1831 0 
L 1172 0 
L 2766 4134 
L 525 4134 
L 525 4666 
z
" transform="scale(0.015625)"/>
       </defs>
       <use xlink:href="#DejaVuSans-30"/>
       <use xlink:href="#DejaVuSans-2e" x="63.623047"/>
       <use xlink:href="#DejaVuSans-37" x="95.410156"/>
       <use xlink:href="#DejaVuSans-30" x="159.033203"/>
      </g>
     </g>
    </g>
    <g id="text_10">
     <!-- Proteomic GC content -->
     <g transform="translate(375.785513 671.143229) scale(0.1 -0.1)">
      <defs>
       <path id="DejaVuSans-50" d="M 1259 4147 
L 1259 2394 
L 2053 2394 
Q 2494 2394 2734 2622 
Q 2975 2850 2975 3272 
Q 2975 3691 2734 3919 
Q 2494 4147 2053 4147 
L 1259 4147 
z
M 628 4666 
L 2053 4666 
Q 2838 4666 3239 4311 
Q 3641 3956 3641 3272 
Q 3641 2581 3239 2228 
Q 2838 1875 2053 1875 
L 1259 1875 
L 1259 0 
L 628 0 
L 628 4666 
z
" transform="scale(0.015625)"/>
       <path id="DejaVuSans-72" d="M 2631 2963 
Q 2534 3019 2420 3045 
Q 2306 3072 2169 3072 
Q 1681 3072 1420 2755 
Q 1159 2438 1159 1844 
L 1159 0 
L 581 0 
L 581 3500 
L 1159 3500 
L 1159 2956 
Q 1341 3275 1631 3429 
Q 1922 3584 2338 3584 
Q 2397 3584 2469 3576 
Q 2541 3569 2628 3553 
L 2631 2963 
z
" transform="scale(0.015625)"/>
       <path id="DejaVuSans-6f" d="M 1959 3097 
Q 1497 3097 1228 2736 
Q 959 2375 959 1747 
Q 959 1119 1226 758 
Q 1494 397 1959 397 
Q 2419 397 2687 759 
Q 2956 1122 2956 1747 
Q 2956 2369 2687 2733 
Q 2419 3097 1959 3097 
z
M 1959 3584 
Q 2709 3584 3137 3096 
Q 3566 2609 3566 1747 
Q 3566 888 3137 398 
Q 2709 -91 1959 -91 
Q 1206 -91 779 398 
Q 353 888 353 1747 
Q 353 2609 779 3096 
Q 1206 3584 1959 3584 
z
" transform="scale(0.015625)"/>
       <path id="DejaVuSans-74" d="M 1172 4494 
L 1172 3500 
L 2356 3500 
L 2356 3053 
L 1172 3053 
L 1172 1153 
Q 1172 725 1289 603 
Q 1406 481 1766 481 
L 2356 481 
L 2356 0 
L 1766 0 
Q 1100 0 847 248 
Q 594 497 594 1153 
L 594 3053 
L 172 3053 
L 172 3500 
L 594 3500 
L 594 4494 
L 1172 4494 
z
" transform="scale(0.015625)"/>
       <path id="DejaVuSans-65" d="M 3597 1894 
L 3597 1613 
L 953 1613 
Q 991 1019 1311 708 
Q 1631 397 2203 397 
Q 2534 397 2845 478 
Q 3156 559 3463 722 
L 3463 178 
Q 3153 47 2828 -22 
Q 2503 -91 2169 -91 
Q 1331 -91 842 396 
Q 353 884 353 1716 
Q 353 2575 817 3079 
Q 1281 3584 2069 3584 
Q 2775 3584 3186 3129 
Q 3597 2675 3597 1894 
z
M 3022 2063 
Q 3016 2534 2758 2815 
Q 2500 3097 2075 3097 
Q 1594 3097 1305 2825 
Q 1016 2553 972 2059 
L 3022 2063 
z
" transform="scale(0.015625)"/>
       <path id="DejaVuSans-6d" d="M 3328 2828 
Q 3544 3216 3844 3400 
Q 4144 3584 4550 3584 
Q 5097 3584 5394 3201 
Q 5691 2819 5691 2113 
L 5691 0 
L 5113 0 
L 5113 2094 
Q 5113 2597 4934 2840 
Q 4756 3084 4391 3084 
Q 3944 3084 3684 2787 
Q 3425 2491 3425 1978 
L 3425 0 
L 2847 0 
L 2847 2094 
Q 2847 2600 2669 2842 
Q 2491 3084 2119 3084 
Q 1678 3084 1418 2786 
Q 1159 2488 1159 1978 
L 1159 0 
L 581 0 
L 581 3500 
L 1159 3500 
L 1159 2956 
Q 1356 3278 1631 3431 
Q 1906 3584 2284 3584 
Q 2666 3584 2933 3390 
Q 3200 3197 3328 2828 
z
" transform="scale(0.015625)"/>
       <path id="DejaVuSans-69" d="M 603 3500 
L 1178 3500 
L 1178 0 
L 603 0 
L 603 3500 
z
M 603 4863 
L 1178 4863 
L 1178 4134 
L 603 4134 
L 603 4863 
z
" transform="scale(0.015625)"/>
       <path id="DejaVuSans-63" d="M 3122 3366 
L 3122 2828 
Q 2878 2963 2633 3030 
Q 2388 3097 2138 3097 
Q 1578 3097 1268 2742 
Q 959 2388 959 1747 
Q 959 1106 1268 751 
Q 1578 397 2138 397 
Q 2388 397 2633 464 
Q 2878 531 3122 666 
L 3122 134 
Q 2881 22 2623 -34 
Q 2366 -91 2075 -91 
Q 1284 -91 818 406 
Q 353 903 353 1747 
Q 353 2603 823 3093 
Q 1294 3584 2113 3584 
Q 2378 3584 2631 3529 
Q 2884 3475 3122 3366 
z
" transform="scale(0.015625)"/>
       <path id="DejaVuSans-20" transform="scale(0.015625)"/>
       <path id="DejaVuSans-47" d="M 3809 666 
L 3809 1919 
L 2778 1919 
L 2778 2438 
L 4434 2438 
L 4434 434 
Q 4069 175 3628 42 
Q 3188 -91 2688 -91 
Q 1594 -91 976 548 
Q 359 1188 359 2328 
Q 359 3472 976 4111 
Q 1594 4750 2688 4750 
Q 3144 4750 3555 4637 
Q 3966 4525 4313 4306 
L 4313 3634 
Q 3963 3931 3569 4081 
Q 3175 4231 2741 4231 
Q 1884 4231 1454 3753 
Q 1025 3275 1025 2328 
Q 1025 1384 1454 906 
Q 1884 428 2741 428 
Q 3075 428 3337 486 
Q 3600 544 3809 666 
z
" transform="scale(0.015625)"/>
       <path id="DejaVuSans-43" d="M 4122 4306 
L 4122 3641 
Q 3803 3938 3442 4084 
Q 3081 4231 2675 4231 
Q 1875 4231 1450 3742 
Q 1025 3253 1025 2328 
Q 1025 1406 1450 917 
Q 1875 428 2675 428 
Q 3081 428 3442 575 
Q 3803 722 4122 1019 
L 4122 359 
Q 3791 134 3420 21 
Q 3050 -91 2638 -91 
Q 1578 -91 968 557 
Q 359 1206 359 2328 
Q 359 3453 968 4101 
Q 1578 4750 2638 4750 
Q 3056 4750 3426 4639 
Q 3797 4528 4122 4306 
z
" transform="scale(0.015625)"/>
       <path id="DejaVuSans-6e" d="M 3513 2113 
L 3513 0 
L 2938 0 
L 2938 2094 
Q 2938 2591 2744 2837 
Q 2550 3084 2163 3084 
Q 1697 3084 1428 2787 
Q 1159 2491 1159 1978 
L 1159 0 
L 581 0 
L 581 3500 
L 1159 3500 
L 1159 2956 
Q 1366 3272 1645 3428 
Q 1925 3584 2291 3584 
Q 2894 3584 3203 3211 
Q 3513 2838 3513 2113 
z
" transform="scale(0.015625)"/>
      </defs>
      <use xlink:href="#DejaVuSans-50"/>
      <use xlink:href="#DejaVuSans-72" x="58.552734"/>
      <use xlink:href="#DejaVuSans-6f" x="97.416016"/>
      <use xlink:href="#DejaVuSans-74" x="158.597656"/>
      <use xlink:href="#DejaVuSans-65" x="197.806641"/>
      <use xlink:href="#DejaVuSans-6f" x="259.330078"/>
      <use xlink:href="#DejaVuSans-6d" x="320.511719"/>
      <use xlink:href="#DejaVuSans-69" x="417.923828"/>
      <use xlink:href="#DejaVuSans-63" x="445.707031"/>
      <use xlink:href="#DejaVuSans-20" x="500.6875"/>
      <use xlink:href="#DejaVuSans-47" x="532.474609"/>
      <use xlink:href="#DejaVuSans-43" x="609.964844"/>
      <use xlink:href="#DejaVuSans-20" x="679.789062"/>
      <use xlink:href="#DejaVuSans-63" x="711.576172"/>
      <use xlink:href="#DejaVuSans-6f" x="766.556641"/>
      <use xlink:href="#DejaVuSans-6e" x="827.738281"/>
      <use xlink:href="#DejaVuSans-74" x="891.117188"/>
      <use xlink:href="#DejaVuSans-65" x="930.326172"/>
      <use xlink:href="#DejaVuSans-6e" x="991.849609"/>
      <use xlink:href="#DejaVuSans-74" x="1055.228516"/>
     </g>
    </g>
   </g>
   <g id="matplotlib.axis_2">
    <g id="ytick_1">
     <g id="line2d_10">
      <defs>
       <path id="me8c070ced5" d="M 0 0 
L -3.5 0 
" style="stroke: #000000; stroke-width: 0.8"/>
      </defs>
      <g>
       <use xlink:href="#me8c070ced5" x="43.78125" y="625.943353" style="stroke: #000000; stroke-width: 0.8"/>
      </g>
     </g>
     <g id="text_11">
      <!-- 0.2 -->
      <g transform="translate(20.878125 629.742572) scale(0.1 -0.1)">
       <defs>
        <path id="DejaVuSans-32" d="M 1228 531 
L 3431 531 
L 3431 0 
L 469 0 
L 469 531 
Q 828 903 1448 1529 
Q 2069 2156 2228 2338 
Q 2531 2678 2651 2914 
Q 2772 3150 2772 3378 
Q 2772 3750 2511 3984 
Q 2250 4219 1831 4219 
Q 1534 4219 1204 4116 
Q 875 4013 500 3803 
L 500 4441 
Q 881 4594 1212 4672 
Q 1544 4750 1819 4750 
Q 2544 4750 2975 4387 
Q 3406 4025 3406 3419 
Q 3406 3131 3298 2873 
Q 3191 2616 2906 2266 
Q 2828 2175 2409 1742 
Q 1991 1309 1228 531 
z
" transform="scale(0.015625)"/>
       </defs>
       <use xlink:href="#DejaVuSans-30"/>
       <use xlink:href="#DejaVuSans-2e" x="63.623047"/>
       <use xlink:href="#DejaVuSans-32" x="95.410156"/>
      </g>
     </g>
    </g>
    <g id="ytick_2">
     <g id="line2d_11">
      <g>
       <use xlink:href="#me8c070ced5" x="43.78125" y="549.088229" style="stroke: #000000; stroke-width: 0.8"/>
      </g>
     </g>
     <g id="text_12">
      <!-- 0.3 -->
      <g transform="translate(20.878125 552.887448) scale(0.1 -0.1)">
       <use xlink:href="#DejaVuSans-30"/>
       <use xlink:href="#DejaVuSans-2e" x="63.623047"/>
       <use xlink:href="#DejaVuSans-33" x="95.410156"/>
      </g>
     </g>
    </g>
    <g id="ytick_3">
     <g id="line2d_12">
      <g>
       <use xlink:href="#me8c070ced5" x="43.78125" y="472.233105" style="stroke: #000000; stroke-width: 0.8"/>
      </g>
     </g>
     <g id="text_13">
      <!-- 0.4 -->
      <g transform="translate(20.878125 476.032324) scale(0.1 -0.1)">
       <use xlink:href="#DejaVuSans-30"/>
       <use xlink:href="#DejaVuSans-2e" x="63.623047"/>
       <use xlink:href="#DejaVuSans-34" x="95.410156"/>
      </g>
     </g>
    </g>
    <g id="ytick_4">
     <g id="line2d_13">
      <g>
       <use xlink:href="#me8c070ced5" x="43.78125" y="395.377981" style="stroke: #000000; stroke-width: 0.8"/>
      </g>
     </g>
     <g id="text_14">
      <!-- 0.5 -->
      <g transform="translate(20.878125 399.1772) scale(0.1 -0.1)">
       <use xlink:href="#DejaVuSans-30"/>
       <use xlink:href="#DejaVuSans-2e" x="63.623047"/>
       <use xlink:href="#DejaVuSans-35" x="95.410156"/>
      </g>
     </g>
    </g>
    <g id="ytick_5">
     <g id="line2d_14">
      <g>
       <use xlink:href="#me8c070ced5" x="43.78125" y="318.522857" style="stroke: #000000; stroke-width: 0.8"/>
      </g>
     </g>
     <g id="text_15">
      <!-- 0.6 -->
      <g transform="translate(20.878125 322.322076) scale(0.1 -0.1)">
       <use xlink:href="#DejaVuSans-30"/>
       <use xlink:href="#DejaVuSans-2e" x="63.623047"/>
       <use xlink:href="#DejaVuSans-36" x="95.410156"/>
      </g>
     </g>
    </g>
    <g id="ytick_6">
     <g id="line2d_15">
      <g>
       <use xlink:href="#me8c070ced5" x="43.78125" y="241.667733" style="stroke: #000000; stroke-width: 0.8"/>
      </g>
     </g>
     <g id="text_16">
      <!-- 0.7 -->
      <g transform="translate(20.878125 245.466952) scale(0.1 -0.1)">
       <use xlink:href="#DejaVuSans-30"/>
       <use xlink:href="#DejaVuSans-2e" x="63.623047"/>
       <use xlink:href="#DejaVuSans-37" x="95.410156"/>
      </g>
     </g>
    </g>
    <g id="ytick_7">
     <g id="line2d_16">
      <g>
       <use xlink:href="#me8c070ced5" x="43.78125" y="164.812609" style="stroke: #000000; stroke-width: 0.8"/>
      </g>
     </g>
     <g id="text_17">
      <!-- 0.8 -->
      <g transform="translate(20.878125 168.611828) scale(0.1 -0.1)">
       <defs>
        <path id="DejaVuSans-38" d="M 2034 2216 
Q 1584 2216 1326 1975 
Q 1069 1734 1069 1313 
Q 1069 891 1326 650 
Q 1584 409 2034 409 
Q 2484 409 2743 651 
Q 3003 894 3003 1313 
Q 3003 1734 2745 1975 
Q 2488 2216 2034 2216 
z
M 1403 2484 
Q 997 2584 770 2862 
Q 544 3141 544 3541 
Q 544 4100 942 4425 
Q 1341 4750 2034 4750 
Q 2731 4750 3128 4425 
Q 3525 4100 3525 3541 
Q 3525 3141 3298 2862 
Q 3072 2584 2669 2484 
Q 3125 2378 3379 2068 
Q 3634 1759 3634 1313 
Q 3634 634 3220 271 
Q 2806 -91 2034 -91 
Q 1263 -91 848 271 
Q 434 634 434 1313 
Q 434 1759 690 2068 
Q 947 2378 1403 2484 
z
M 1172 3481 
Q 1172 3119 1398 2916 
Q 1625 2713 2034 2713 
Q 2441 2713 2670 2916 
Q 2900 3119 2900 3481 
Q 2900 3844 2670 4047 
Q 2441 4250 2034 4250 
Q 1625 4250 1398 4047 
Q 1172 3844 1172 3481 
z
" transform="scale(0.015625)"/>
       </defs>
       <use xlink:href="#DejaVuSans-30"/>
       <use xlink:href="#DejaVuSans-2e" x="63.623047"/>
       <use xlink:href="#DejaVuSans-38" x="95.410156"/>
      </g>
     </g>
    </g>
    <g id="text_18">
     <!-- Correlation coefficient -->
     <g transform="translate(14.798438 452.712284) rotate(-90) scale(0.1 -0.1)">
      <defs>
       <path id="DejaVuSans-6c" d="M 603 4863 
L 1178 4863 
L 1178 0 
L 603 0 
L 603 4863 
z
" transform="scale(0.015625)"/>
       <path id="DejaVuSans-61" d="M 2194 1759 
Q 1497 1759 1228 1600 
Q 959 1441 959 1056 
Q 959 750 1161 570 
Q 1363 391 1709 391 
Q 2188 391 2477 730 
Q 2766 1069 2766 1631 
L 2766 1759 
L 2194 1759 
z
M 3341 1997 
L 3341 0 
L 2766 0 
L 2766 531 
Q 2569 213 2275 61 
Q 1981 -91 1556 -91 
Q 1019 -91 701 211 
Q 384 513 384 1019 
Q 384 1609 779 1909 
Q 1175 2209 1959 2209 
L 2766 2209 
L 2766 2266 
Q 2766 2663 2505 2880 
Q 2244 3097 1772 3097 
Q 1472 3097 1187 3025 
Q 903 2953 641 2809 
L 641 3341 
Q 956 3463 1253 3523 
Q 1550 3584 1831 3584 
Q 2591 3584 2966 3190 
Q 3341 2797 3341 1997 
z
" transform="scale(0.015625)"/>
       <path id="DejaVuSans-66" d="M 2375 4863 
L 2375 4384 
L 1825 4384 
Q 1516 4384 1395 4259 
Q 1275 4134 1275 3809 
L 1275 3500 
L 2222 3500 
L 2222 3053 
L 1275 3053 
L 1275 0 
L 697 0 
L 697 3053 
L 147 3053 
L 147 3500 
L 697 3500 
L 697 3744 
Q 697 4328 969 4595 
Q 1241 4863 1831 4863 
L 2375 4863 
z
" transform="scale(0.015625)"/>
      </defs>
      <use xlink:href="#DejaVuSans-43"/>
      <use xlink:href="#DejaVuSans-6f" x="69.824219"/>
      <use xlink:href="#DejaVuSans-72" x="131.005859"/>
      <use xlink:href="#DejaVuSans-72" x="170.369141"/>
      <use xlink:href="#DejaVuSans-65" x="209.232422"/>
      <use xlink:href="#DejaVuSans-6c" x="270.755859"/>
      <use xlink:href="#DejaVuSans-61" x="298.539062"/>
      <use xlink:href="#DejaVuSans-74" x="359.818359"/>
      <use xlink:href="#DejaVuSans-69" x="399.027344"/>
      <use xlink:href="#DejaVuSans-6f" x="426.810547"/>
      <use xlink:href="#DejaVuSans-6e" x="487.992188"/>
      <use xlink:href="#DejaVuSans-20" x="551.371094"/>
      <use xlink:href="#DejaVuSans-63" x="583.158203"/>
      <use xlink:href="#DejaVuSans-6f" x="638.138672"/>
      <use xlink:href="#DejaVuSans-65" x="699.320312"/>
      <use xlink:href="#DejaVuSans-66" x="760.84375"/>
      <use xlink:href="#DejaVuSans-66" x="796.048828"/>
      <use xlink:href="#DejaVuSans-69" x="831.253906"/>
      <use xlink:href="#DejaVuSans-63" x="859.037109"/>
      <use xlink:href="#DejaVuSans-69" x="914.017578"/>
      <use xlink:href="#DejaVuSans-65" x="941.800781"/>
      <use xlink:href="#DejaVuSans-6e" x="1003.324219"/>
      <use xlink:href="#DejaVuSans-74" x="1066.703125"/>
     </g>
    </g>
   </g>
   <g id="line2d_17">
    <path d="M 78.938101 372.796763 
L 86.040495 372.129577 
L 93.142889 371.462392 
L 100.245283 370.795207 
L 107.347677 370.128021 
L 114.450071 369.460836 
L 121.552465 368.79365 
L 128.654859 368.126465 
L 135.757253 367.459279 
L 142.859647 366.792094 
L 149.962041 366.124908 
L 157.064435 365.457723 
L 164.166829 364.790537 
L 171.269224 364.123352 
L 178.371618 363.456166 
L 185.474012 362.788981 
L 192.576406 362.121795 
L 199.6788 361.45461 
L 206.781194 360.787424 
L 213.883588 360.120239 
L 220.985982 359.453053 
L 228.088376 358.785868 
L 235.19077 358.118682 
L 242.293164 357.451497 
L 249.395558 356.784311 
L 256.497952 356.117126 
L 263.600346 355.449941 
L 270.702741 354.782755 
L 277.805135 354.11557 
L 284.907529 353.448384 
L 292.009923 352.781199 
L 299.112317 352.114013 
L 306.214711 351.446828 
L 313.317105 350.779642 
L 320.419499 350.112457 
L 327.521893 349.445271 
L 334.624287 348.778086 
L 341.726681 348.1109 
L 348.829075 347.443715 
L 355.931469 346.776529 
L 363.033863 346.109344 
L 370.136258 345.442158 
L 377.238652 344.774973 
L 384.341046 344.107787 
L 391.44344 343.440602 
L 398.545834 342.773416 
L 405.648228 342.106231 
L 412.750622 341.439046 
L 419.853016 340.77186 
L 426.95541 340.104675 
L 434.057804 339.437489 
L 441.160198 338.770304 
L 448.262592 338.103118 
L 455.364986 337.435933 
L 462.46738 336.768747 
L 469.569775 336.101562 
L 476.672169 335.434376 
L 483.774563 334.767191 
L 490.876957 334.100005 
L 497.979351 333.43282 
L 505.081745 332.765634 
L 512.184139 332.098449 
L 519.286533 331.431263 
L 526.388927 330.764078 
L 533.491321 330.096892 
L 540.593715 329.429707 
L 547.696109 328.762521 
L 554.798503 328.095336 
L 561.900897 327.428151 
L 569.003292 326.760965 
L 576.105686 326.09378 
L 583.20808 325.426594 
L 590.310474 324.759409 
L 597.412868 324.092223 
L 604.515262 323.425038 
L 611.617656 322.757852 
L 618.72005 322.090667 
L 625.822444 321.423481 
L 632.924838 320.756296 
L 640.027232 320.08911 
L 647.129626 319.421925 
L 654.23202 318.754739 
L 661.334414 318.087554 
L 668.436809 317.420368 
L 675.539203 316.753183 
L 682.641597 316.085997 
L 689.743991 315.418812 
L 696.846385 314.751626 
L 703.948779 314.084441 
L 711.051173 313.417255 
L 718.153567 312.75007 
L 725.255961 312.082885 
L 732.358355 311.415699 
L 739.460749 310.748514 
L 746.563143 310.081328 
L 753.665537 309.414143 
L 760.767931 308.746957 
L 767.870325 308.079772 
L 774.97272 307.412586 
L 782.075114 306.745401 
" clip-path="url(#p66b59d6151)" style="fill: none; stroke: #1f77b4; stroke-width: 2.25; stroke-linecap: square"/>
   </g>
   <g id="line2d_18">
    <path d="M 78.938101 396.20296 
L 86.040495 395.387541 
L 93.142889 394.572123 
L 100.245283 393.756704 
L 107.347677 392.941285 
L 114.450071 392.125866 
L 121.552465 391.310448 
L 128.654859 390.495029 
L 135.757253 389.67961 
L 142.859647 388.864192 
L 149.962041 388.048773 
L 157.064435 387.233354 
L 164.166829 386.417935 
L 171.269224 385.602517 
L 178.371618 384.787098 
L 185.474012 383.971679 
L 192.576406 383.15626 
L 199.6788 382.340842 
L 206.781194 381.525423 
L 213.883588 380.710004 
L 220.985982 379.894586 
L 228.088376 379.079167 
L 235.19077 378.263748 
L 242.293164 377.448329 
L 249.395558 376.632911 
L 256.497952 375.817492 
L 263.600346 375.002073 
L 270.702741 374.186654 
L 277.805135 373.371236 
L 284.907529 372.555817 
L 292.009923 371.740398 
L 299.112317 370.92498 
L 306.214711 370.109561 
L 313.317105 369.294142 
L 320.419499 368.478723 
L 327.521893 367.663305 
L 334.624287 366.847886 
L 341.726681 366.032467 
L 348.829075 365.217048 
L 355.931469 364.40163 
L 363.033863 363.586211 
L 370.136258 362.770792 
L 377.238652 361.955373 
L 384.341046 361.139955 
L 391.44344 360.324536 
L 398.545834 359.509117 
L 405.648228 358.693699 
L 412.750622 357.87828 
L 419.853016 357.062861 
L 426.95541 356.247442 
L 434.057804 355.432024 
L 441.160198 354.616605 
L 448.262592 353.801186 
L 455.364986 352.985767 
L 462.46738 352.170349 
L 469.569775 351.35493 
L 476.672169 350.539511 
L 483.774563 349.724093 
L 490.876957 348.908674 
L 497.979351 348.093255 
L 505.081745 347.277836 
L 512.184139 346.462418 
L 519.286533 345.646999 
L 526.388927 344.83158 
L 533.491321 344.016161 
L 540.593715 343.200743 
L 547.696109 342.385324 
L 554.798503 341.569905 
L 561.900897 340.754487 
L 569.003292 339.939068 
L 576.105686 339.123649 
L 583.20808 338.30823 
L 590.310474 337.492812 
L 597.412868 336.677393 
L 604.515262 335.861974 
L 611.617656 335.046555 
L 618.72005 334.231137 
L 625.822444 333.415718 
L 632.924838 332.600299 
L 640.027232 331.784881 
L 647.129626 330.969462 
L 654.23202 330.154043 
L 661.334414 329.338624 
L 668.436809 328.523206 
L 675.539203 327.707787 
L 682.641597 326.892368 
L 689.743991 326.076949 
L 696.846385 325.261531 
L 703.948779 324.446112 
L 711.051173 323.630693 
L 718.153567 322.815275 
L 725.255961 321.999856 
L 732.358355 321.184437 
L 739.460749 320.369018 
L 746.563143 319.5536 
L 753.665537 318.738181 
L 760.767931 317.922762 
L 767.870325 317.107343 
L 774.97272 316.291925 
L 782.075114 315.476506 
" clip-path="url(#p66b59d6151)" style="fill: none; stroke: #ff7f0e; stroke-width: 2.25; stroke-linecap: square"/>
   </g>
   <g id="patch_3">
    <path d="M 43.78125 642.866667 
L 43.78125 151.965714 
" style="fill: none; stroke: #000000; stroke-width: 0.8; stroke-linejoin: miter; stroke-linecap: square"/>
   </g>
   <g id="patch_4">
    <path d="M 43.78125 642.866667 
L 817.231964 642.866667 
" style="fill: none; stroke: #000000; stroke-width: 0.8; stroke-linejoin: miter; stroke-linecap: square"/>
   </g>
   <g id="legend_1">
    <g id="patch_5">
     <path d="M 704.119464 637.866667 
L 810.231964 637.866667 
Q 812.231964 637.866667 812.231964 635.866667 
L 812.231964 607.510417 
Q 812.231964 605.510417 810.231964 605.510417 
L 704.119464 605.510417 
Q 702.119464 605.510417 702.119464 607.510417 
L 702.119464 635.866667 
Q 702.119464 637.866667 704.119464 637.866667 
z
" style="fill: #ffffff; opacity: 0.8; stroke: #cccccc; stroke-linejoin: miter"/>
    </g>
    <g id="PathCollection_3">
     <g>
      <use xlink:href="#m3738dd8a75" x="716.119464" y="614.483854" style="fill: #4169e1; fill-opacity: 0.5; stroke: #000000; stroke-opacity: 0.5"/>
     </g>
    </g>
    <g id="text_19">
     <!-- Codon number -->
     <g transform="translate(734.119464 617.108854) scale(0.1 -0.1)">
      <defs>
       <path id="DejaVuSans-64" d="M 2906 2969 
L 2906 4863 
L 3481 4863 
L 3481 0 
L 2906 0 
L 2906 525 
Q 2725 213 2448 61 
Q 2172 -91 1784 -91 
Q 1150 -91 751 415 
Q 353 922 353 1747 
Q 353 2572 751 3078 
Q 1150 3584 1784 3584 
Q 2172 3584 2448 3432 
Q 2725 3281 2906 2969 
z
M 947 1747 
Q 947 1113 1208 752 
Q 1469 391 1925 391 
Q 2381 391 2643 752 
Q 2906 1113 2906 1747 
Q 2906 2381 2643 2742 
Q 2381 3103 1925 3103 
Q 1469 3103 1208 2742 
Q 947 2381 947 1747 
z
" transform="scale(0.015625)"/>
       <path id="DejaVuSans-75" d="M 544 1381 
L 544 3500 
L 1119 3500 
L 1119 1403 
Q 1119 906 1312 657 
Q 1506 409 1894 409 
Q 2359 409 2629 706 
Q 2900 1003 2900 1516 
L 2900 3500 
L 3475 3500 
L 3475 0 
L 2900 0 
L 2900 538 
Q 2691 219 2414 64 
Q 2138 -91 1772 -91 
Q 1169 -91 856 284 
Q 544 659 544 1381 
z
M 1991 3584 
L 1991 3584 
z
" transform="scale(0.015625)"/>
       <path id="DejaVuSans-62" d="M 3116 1747 
Q 3116 2381 2855 2742 
Q 2594 3103 2138 3103 
Q 1681 3103 1420 2742 
Q 1159 2381 1159 1747 
Q 1159 1113 1420 752 
Q 1681 391 2138 391 
Q 2594 391 2855 752 
Q 3116 1113 3116 1747 
z
M 1159 2969 
Q 1341 3281 1617 3432 
Q 1894 3584 2278 3584 
Q 2916 3584 3314 3078 
Q 3713 2572 3713 1747 
Q 3713 922 3314 415 
Q 2916 -91 2278 -91 
Q 1894 -91 1617 61 
Q 1341 213 1159 525 
L 1159 0 
L 581 0 
L 581 4863 
L 1159 4863 
L 1159 2969 
z
" transform="scale(0.015625)"/>
      </defs>
      <use xlink:href="#DejaVuSans-43"/>
      <use xlink:href="#DejaVuSans-6f" x="69.824219"/>
      <use xlink:href="#DejaVuSans-64" x="131.005859"/>
      <use xlink:href="#DejaVuSans-6f" x="194.482422"/>
      <use xlink:href="#DejaVuSans-6e" x="255.664062"/>
      <use xlink:href="#DejaVuSans-20" x="319.042969"/>
      <use xlink:href="#DejaVuSans-6e" x="350.830078"/>
      <use xlink:href="#DejaVuSans-75" x="414.208984"/>
      <use xlink:href="#DejaVuSans-6d" x="477.587891"/>
      <use xlink:href="#DejaVuSans-62" x="575"/>
      <use xlink:href="#DejaVuSans-65" x="638.476562"/>
      <use xlink:href="#DejaVuSans-72" x="700"/>
     </g>
    </g>
    <g id="PathCollection_4">
     <g>
      <use xlink:href="#mb01f9cf545" x="716.119464" y="629.161979" style="fill: #ff8c00; fill-opacity: 0.5; stroke: #000000; stroke-opacity: 0.5"/>
     </g>
    </g>
    <g id="text_20">
     <!-- Codon+GC -->
     <g transform="translate(734.119464 631.786979) scale(0.1 -0.1)">
      <defs>
       <path id="DejaVuSans-2b" d="M 2944 4013 
L 2944 2272 
L 4684 2272 
L 4684 1741 
L 2944 1741 
L 2944 0 
L 2419 0 
L 2419 1741 
L 678 1741 
L 678 2272 
L 2419 2272 
L 2419 4013 
L 2944 4013 
z
" transform="scale(0.015625)"/>
      </defs>
      <use xlink:href="#DejaVuSans-43"/>
      <use xlink:href="#DejaVuSans-6f" x="69.824219"/>
      <use xlink:href="#DejaVuSans-64" x="131.005859"/>
      <use xlink:href="#DejaVuSans-6f" x="194.482422"/>
      <use xlink:href="#DejaVuSans-6e" x="255.664062"/>
      <use xlink:href="#DejaVuSans-2b" x="319.042969"/>
      <use xlink:href="#DejaVuSans-47" x="402.832031"/>
      <use xlink:href="#DejaVuSans-43" x="480.322266"/>
     </g>
    </g>
   </g>
  </g>
  <g id="axes_2">
   <g id="patch_6">
    <path d="M 43.78125 135.038095 
L 817.231964 135.038095 
L 817.231964 50.4 
L 43.78125 50.4 
z
" style="fill: #ffffff"/>
   </g>
   <g id="PolyCollection_3">
    <defs>
     <path id="md795674a97" d="M 78.938101 -607.390752 
L 78.938101 -545.384821 
L 166.830227 -545.384821 
L 166.830227 -545.384821 
L 254.722354 -545.384821 
L 254.722354 -545.384821 
L 342.614481 -545.384821 
L 342.614481 -545.384821 
L 430.506607 -545.384821 
L 430.506607 -545.384821 
L 518.398734 -545.384821 
L 518.398734 -545.384821 
L 606.29086 -545.384821 
L 606.29086 -545.384821 
L 694.182987 -545.384821 
L 694.182987 -545.384821 
L 782.075114 -545.384821 
L 782.075114 -545.384821 
L 782.075114 -582.58838 
L 782.075114 -582.58838 
L 782.075114 -582.58838 
L 694.182987 -582.58838 
L 694.182987 -588.788973 
L 606.29086 -588.788973 
L 606.29086 -625.992531 
L 518.398734 -625.992531 
L 518.398734 -594.989566 
L 430.506607 -594.989566 
L 430.506607 -601.190159 
L 342.614481 -601.190159 
L 342.614481 -588.788973 
L 254.722354 -588.788973 
L 254.722354 -588.788973 
L 166.830227 -588.788973 
L 166.830227 -607.390752 
L 78.938101 -607.390752 
z
" style="stroke: #000000"/>
    </defs>
    <g clip-path="url(#p7812c9cced)">
     <use xlink:href="#md795674a97" x="0" y="680.422917" style="fill: #800080; fill-opacity: 0.75; stroke: #000000"/>
    </g>
   </g>
   <g id="matplotlib.axis_3">
    <g id="xtick_10">
     <g id="line2d_19">
      <g>
       <use xlink:href="#mb32603ea63" x="56.567963" y="135.038095" style="stroke: #000000; stroke-width: 0.8"/>
      </g>
     </g>
    </g>
    <g id="xtick_11">
     <g id="line2d_20">
      <g>
       <use xlink:href="#mb32603ea63" x="150.809588" y="135.038095" style="stroke: #000000; stroke-width: 0.8"/>
      </g>
     </g>
    </g>
    <g id="xtick_12">
     <g id="line2d_21">
      <g>
       <use xlink:href="#mb32603ea63" x="245.051214" y="135.038095" style="stroke: #000000; stroke-width: 0.8"/>
      </g>
     </g>
    </g>
    <g id="xtick_13">
     <g id="line2d_22">
      <g>
       <use xlink:href="#mb32603ea63" x="339.29284" y="135.038095" style="stroke: #000000; stroke-width: 0.8"/>
      </g>
     </g>
    </g>
    <g id="xtick_14">
     <g id="line2d_23">
      <g>
       <use xlink:href="#mb32603ea63" x="433.534466" y="135.038095" style="stroke: #000000; stroke-width: 0.8"/>
      </g>
     </g>
    </g>
    <g id="xtick_15">
     <g id="line2d_24">
      <g>
       <use xlink:href="#mb32603ea63" x="527.776091" y="135.038095" style="stroke: #000000; stroke-width: 0.8"/>
      </g>
     </g>
    </g>
    <g id="xtick_16">
     <g id="line2d_25">
      <g>
       <use xlink:href="#mb32603ea63" x="622.017717" y="135.038095" style="stroke: #000000; stroke-width: 0.8"/>
      </g>
     </g>
    </g>
    <g id="xtick_17">
     <g id="line2d_26">
      <g>
       <use xlink:href="#mb32603ea63" x="716.259343" y="135.038095" style="stroke: #000000; stroke-width: 0.8"/>
      </g>
     </g>
    </g>
    <g id="xtick_18">
     <g id="line2d_27">
      <g>
       <use xlink:href="#mb32603ea63" x="810.500969" y="135.038095" style="stroke: #000000; stroke-width: 0.8"/>
      </g>
     </g>
    </g>
   </g>
   <g id="matplotlib.axis_4">
    <g id="ytick_8"/>
    <g id="ytick_9"/>
    <g id="ytick_10"/>
   </g>
   <g id="patch_7">
    <path d="M 43.78125 135.038095 
L 817.231964 135.038095 
" style="fill: none; stroke: #000000; stroke-width: 0.8; stroke-linejoin: miter; stroke-linecap: square"/>
   </g>
  </g>
  <g id="axes_3">
   <g id="patch_8">
    <path d="M 843.902679 642.866667 
L 977.25625 642.866667 
L 977.25625 151.965714 
L 843.902679 151.965714 
z
" style="fill: #ffffff"/>
   </g>
   <g id="PolyCollection_4">
    <defs>
     <path id="m78e39ff57e" d="M 855.964007 -121.793019 
L 849.964205 -121.793019 
L 849.964205 -121.793019 
L 849.964205 -164.49863 
L 849.964205 -164.49863 
L 849.964205 -207.204242 
L 849.964205 -207.204242 
L 849.964205 -249.909853 
L 849.964205 -249.909853 
L 849.964205 -292.615465 
L 849.964205 -292.615465 
L 849.964205 -335.321077 
L 849.964205 -335.321077 
L 849.964205 -378.026688 
L 849.964205 -378.026688 
L 849.964205 -420.7323 
L 849.964205 -420.7323 
L 849.964205 -463.437911 
L 867.963613 -463.437911 
L 867.963613 -463.437911 
L 867.963613 -420.7323 
L 897.962627 -420.7323 
L 897.962627 -378.026688 
L 897.962627 -378.026688 
L 897.962627 -335.321077 
L 963.960457 -335.321077 
L 963.960457 -292.615465 
L 927.96164 -292.615465 
L 927.96164 -249.909853 
L 897.962627 -249.909853 
L 897.962627 -207.204242 
L 885.963021 -207.204242 
L 885.963021 -164.49863 
L 855.964007 -164.49863 
L 855.964007 -121.793019 
L 855.964007 -121.793019 
z
" style="stroke: #000000; stroke-opacity: 0.5"/>
    </defs>
    <g clip-path="url(#p5224375743)">
     <use xlink:href="#m78e39ff57e" x="0" y="680.422917" style="fill: #4169e1; fill-opacity: 0.5; stroke: #000000; stroke-opacity: 0.5"/>
    </g>
   </g>
   <g id="PolyCollection_5">
    <defs>
     <path id="meac3d3424f" d="M 861.509968 -59.86993 
L 849.964205 -59.86993 
L 849.964205 -59.86993 
L 849.964205 -104.254217 
L 849.964205 -104.254217 
L 849.964205 -148.638504 
L 849.964205 -148.638504 
L 849.964205 -193.022791 
L 849.964205 -193.022791 
L 849.964205 -237.407077 
L 849.964205 -237.407077 
L 849.964205 -281.791364 
L 849.964205 -281.791364 
L 849.964205 -326.175651 
L 849.964205 -326.175651 
L 849.964205 -370.559938 
L 849.964205 -370.559938 
L 849.964205 -414.944225 
L 901.920141 -414.944225 
L 901.920141 -414.944225 
L 901.920141 -370.559938 
L 925.011669 -370.559938 
L 925.011669 -326.175651 
L 971.194724 -326.175651 
L 971.194724 -281.791364 
L 890.374378 -281.791364 
L 890.374378 -237.407077 
L 890.374378 -237.407077 
L 890.374378 -193.022791 
L 867.28285 -193.022791 
L 867.28285 -148.638504 
L 873.055732 -148.638504 
L 873.055732 -104.254217 
L 855.737086 -104.254217 
L 855.737086 -59.86993 
L 861.509968 -59.86993 
z
" style="stroke: #000000; stroke-opacity: 0.5"/>
    </defs>
    <g clip-path="url(#p5224375743)">
     <use xlink:href="#meac3d3424f" x="0" y="680.422917" style="fill: #ff8c00; fill-opacity: 0.5; stroke: #000000; stroke-opacity: 0.5"/>
    </g>
   </g>
   <g id="matplotlib.axis_5">
    <g id="xtick_19"/>
    <g id="xtick_20"/>
    <g id="xtick_21"/>
   </g>
   <g id="matplotlib.axis_6">
    <g id="ytick_11">
     <g id="line2d_28">
      <g>
       <use xlink:href="#me8c070ced5" x="843.902679" y="625.943353" style="stroke: #000000; stroke-width: 0.8"/>
      </g>
     </g>
    </g>
    <g id="ytick_12">
     <g id="line2d_29">
      <g>
       <use xlink:href="#me8c070ced5" x="843.902679" y="549.088229" style="stroke: #000000; stroke-width: 0.8"/>
      </g>
     </g>
    </g>
    <g id="ytick_13">
     <g id="line2d_30">
      <g>
       <use xlink:href="#me8c070ced5" x="843.902679" y="472.233105" style="stroke: #000000; stroke-width: 0.8"/>
      </g>
     </g>
    </g>
    <g id="ytick_14">
     <g id="line2d_31">
      <g>
       <use xlink:href="#me8c070ced5" x="843.902679" y="395.377981" style="stroke: #000000; stroke-width: 0.8"/>
      </g>
     </g>
    </g>
    <g id="ytick_15">
     <g id="line2d_32">
      <g>
       <use xlink:href="#me8c070ced5" x="843.902679" y="318.522857" style="stroke: #000000; stroke-width: 0.8"/>
      </g>
     </g>
    </g>
    <g id="ytick_16">
     <g id="line2d_33">
      <g>
       <use xlink:href="#me8c070ced5" x="843.902679" y="241.667733" style="stroke: #000000; stroke-width: 0.8"/>
      </g>
     </g>
    </g>
    <g id="ytick_17">
     <g id="line2d_34">
      <g>
       <use xlink:href="#me8c070ced5" x="843.902679" y="164.812609" style="stroke: #000000; stroke-width: 0.8"/>
      </g>
     </g>
    </g>
   </g>
   <g id="patch_9">
    <path d="M 843.902679 642.866667 
L 843.902679 151.965714 
" style="fill: none; stroke: #000000; stroke-width: 0.8; stroke-linejoin: miter; stroke-linecap: square"/>
   </g>
  </g>
  <g id="text_21">
   <!-- Archaea - Spearman correlation coefficients for genetic code: CMUT -->
   <g transform="translate(260.419375 16.318125) scale(0.12 -0.12)">
    <defs>
     <path id="DejaVuSans-41" d="M 2188 4044 
L 1331 1722 
L 3047 1722 
L 2188 4044 
z
M 1831 4666 
L 2547 4666 
L 4325 0 
L 3669 0 
L 3244 1197 
L 1141 1197 
L 716 0 
L 50 0 
L 1831 4666 
z
" transform="scale(0.015625)"/>
     <path id="DejaVuSans-68" d="M 3513 2113 
L 3513 0 
L 2938 0 
L 2938 2094 
Q 2938 2591 2744 2837 
Q 2550 3084 2163 3084 
Q 1697 3084 1428 2787 
Q 1159 2491 1159 1978 
L 1159 0 
L 581 0 
L 581 4863 
L 1159 4863 
L 1159 2956 
Q 1366 3272 1645 3428 
Q 1925 3584 2291 3584 
Q 2894 3584 3203 3211 
Q 3513 2838 3513 2113 
z
" transform="scale(0.015625)"/>
     <path id="DejaVuSans-2d" d="M 313 2009 
L 1997 2009 
L 1997 1497 
L 313 1497 
L 313 2009 
z
" transform="scale(0.015625)"/>
     <path id="DejaVuSans-53" d="M 3425 4513 
L 3425 3897 
Q 3066 4069 2747 4153 
Q 2428 4238 2131 4238 
Q 1616 4238 1336 4038 
Q 1056 3838 1056 3469 
Q 1056 3159 1242 3001 
Q 1428 2844 1947 2747 
L 2328 2669 
Q 3034 2534 3370 2195 
Q 3706 1856 3706 1288 
Q 3706 609 3251 259 
Q 2797 -91 1919 -91 
Q 1588 -91 1214 -16 
Q 841 59 441 206 
L 441 856 
Q 825 641 1194 531 
Q 1563 422 1919 422 
Q 2459 422 2753 634 
Q 3047 847 3047 1241 
Q 3047 1584 2836 1778 
Q 2625 1972 2144 2069 
L 1759 2144 
Q 1053 2284 737 2584 
Q 422 2884 422 3419 
Q 422 4038 858 4394 
Q 1294 4750 2059 4750 
Q 2388 4750 2728 4690 
Q 3069 4631 3425 4513 
z
" transform="scale(0.015625)"/>
     <path id="DejaVuSans-70" d="M 1159 525 
L 1159 -1331 
L 581 -1331 
L 581 3500 
L 1159 3500 
L 1159 2969 
Q 1341 3281 1617 3432 
Q 1894 3584 2278 3584 
Q 2916 3584 3314 3078 
Q 3713 2572 3713 1747 
Q 3713 922 3314 415 
Q 2916 -91 2278 -91 
Q 1894 -91 1617 61 
Q 1341 213 1159 525 
z
M 3116 1747 
Q 3116 2381 2855 2742 
Q 2594 3103 2138 3103 
Q 1681 3103 1420 2742 
Q 1159 2381 1159 1747 
Q 1159 1113 1420 752 
Q 1681 391 2138 391 
Q 2594 391 2855 752 
Q 3116 1113 3116 1747 
z
" transform="scale(0.015625)"/>
     <path id="DejaVuSans-73" d="M 2834 3397 
L 2834 2853 
Q 2591 2978 2328 3040 
Q 2066 3103 1784 3103 
Q 1356 3103 1142 2972 
Q 928 2841 928 2578 
Q 928 2378 1081 2264 
Q 1234 2150 1697 2047 
L 1894 2003 
Q 2506 1872 2764 1633 
Q 3022 1394 3022 966 
Q 3022 478 2636 193 
Q 2250 -91 1575 -91 
Q 1294 -91 989 -36 
Q 684 19 347 128 
L 347 722 
Q 666 556 975 473 
Q 1284 391 1588 391 
Q 1994 391 2212 530 
Q 2431 669 2431 922 
Q 2431 1156 2273 1281 
Q 2116 1406 1581 1522 
L 1381 1569 
Q 847 1681 609 1914 
Q 372 2147 372 2553 
Q 372 3047 722 3315 
Q 1072 3584 1716 3584 
Q 2034 3584 2315 3537 
Q 2597 3491 2834 3397 
z
" transform="scale(0.015625)"/>
     <path id="DejaVuSans-67" d="M 2906 1791 
Q 2906 2416 2648 2759 
Q 2391 3103 1925 3103 
Q 1463 3103 1205 2759 
Q 947 2416 947 1791 
Q 947 1169 1205 825 
Q 1463 481 1925 481 
Q 2391 481 2648 825 
Q 2906 1169 2906 1791 
z
M 3481 434 
Q 3481 -459 3084 -895 
Q 2688 -1331 1869 -1331 
Q 1566 -1331 1297 -1286 
Q 1028 -1241 775 -1147 
L 775 -588 
Q 1028 -725 1275 -790 
Q 1522 -856 1778 -856 
Q 2344 -856 2625 -561 
Q 2906 -266 2906 331 
L 2906 616 
Q 2728 306 2450 153 
Q 2172 0 1784 0 
Q 1141 0 747 490 
Q 353 981 353 1791 
Q 353 2603 747 3093 
Q 1141 3584 1784 3584 
Q 2172 3584 2450 3431 
Q 2728 3278 2906 2969 
L 2906 3500 
L 3481 3500 
L 3481 434 
z
" transform="scale(0.015625)"/>
     <path id="DejaVuSans-3a" d="M 750 794 
L 1409 794 
L 1409 0 
L 750 0 
L 750 794 
z
M 750 3309 
L 1409 3309 
L 1409 2516 
L 750 2516 
L 750 3309 
z
" transform="scale(0.015625)"/>
     <path id="DejaVuSans-4d" d="M 628 4666 
L 1569 4666 
L 2759 1491 
L 3956 4666 
L 4897 4666 
L 4897 0 
L 4281 0 
L 4281 4097 
L 3078 897 
L 2444 897 
L 1241 4097 
L 1241 0 
L 628 0 
L 628 4666 
z
" transform="scale(0.015625)"/>
     <path id="DejaVuSans-55" d="M 556 4666 
L 1191 4666 
L 1191 1831 
Q 1191 1081 1462 751 
Q 1734 422 2344 422 
Q 2950 422 3222 751 
Q 3494 1081 3494 1831 
L 3494 4666 
L 4128 4666 
L 4128 1753 
Q 4128 841 3676 375 
Q 3225 -91 2344 -91 
Q 1459 -91 1007 375 
Q 556 841 556 1753 
L 556 4666 
z
" transform="scale(0.015625)"/>
     <path id="DejaVuSans-54" d="M -19 4666 
L 3928 4666 
L 3928 4134 
L 2272 4134 
L 2272 0 
L 1638 0 
L 1638 4134 
L -19 4134 
L -19 4666 
z
" transform="scale(0.015625)"/>
    </defs>
    <use xlink:href="#DejaVuSans-41"/>
    <use xlink:href="#DejaVuSans-72" x="68.408203"/>
    <use xlink:href="#DejaVuSans-63" x="107.271484"/>
    <use xlink:href="#DejaVuSans-68" x="162.251953"/>
    <use xlink:href="#DejaVuSans-61" x="225.630859"/>
    <use xlink:href="#DejaVuSans-65" x="286.910156"/>
    <use xlink:href="#DejaVuSans-61" x="348.433594"/>
    <use xlink:href="#DejaVuSans-20" x="409.712891"/>
    <use xlink:href="#DejaVuSans-2d" x="441.5"/>
    <use xlink:href="#DejaVuSans-20" x="477.583984"/>
    <use xlink:href="#DejaVuSans-53" x="509.371094"/>
    <use xlink:href="#DejaVuSans-70" x="572.847656"/>
    <use xlink:href="#DejaVuSans-65" x="636.324219"/>
    <use xlink:href="#DejaVuSans-61" x="697.847656"/>
    <use xlink:href="#DejaVuSans-72" x="759.126953"/>
    <use xlink:href="#DejaVuSans-6d" x="798.490234"/>
    <use xlink:href="#DejaVuSans-61" x="895.902344"/>
    <use xlink:href="#DejaVuSans-6e" x="957.181641"/>
    <use xlink:href="#DejaVuSans-20" x="1020.560547"/>
    <use xlink:href="#DejaVuSans-63" x="1052.347656"/>
    <use xlink:href="#DejaVuSans-6f" x="1107.328125"/>
    <use xlink:href="#DejaVuSans-72" x="1168.509766"/>
    <use xlink:href="#DejaVuSans-72" x="1207.873047"/>
    <use xlink:href="#DejaVuSans-65" x="1246.736328"/>
    <use xlink:href="#DejaVuSans-6c" x="1308.259766"/>
    <use xlink:href="#DejaVuSans-61" x="1336.042969"/>
    <use xlink:href="#DejaVuSans-74" x="1397.322266"/>
    <use xlink:href="#DejaVuSans-69" x="1436.53125"/>
    <use xlink:href="#DejaVuSans-6f" x="1464.314453"/>
    <use xlink:href="#DejaVuSans-6e" x="1525.496094"/>
    <use xlink:href="#DejaVuSans-20" x="1588.875"/>
    <use xlink:href="#DejaVuSans-63" x="1620.662109"/>
    <use xlink:href="#DejaVuSans-6f" x="1675.642578"/>
    <use xlink:href="#DejaVuSans-65" x="1736.824219"/>
    <use xlink:href="#DejaVuSans-66" x="1798.347656"/>
    <use xlink:href="#DejaVuSans-66" x="1833.552734"/>
    <use xlink:href="#DejaVuSans-69" x="1868.757812"/>
    <use xlink:href="#DejaVuSans-63" x="1896.541016"/>
    <use xlink:href="#DejaVuSans-69" x="1951.521484"/>
    <use xlink:href="#DejaVuSans-65" x="1979.304688"/>
    <use xlink:href="#DejaVuSans-6e" x="2040.828125"/>
    <use xlink:href="#DejaVuSans-74" x="2104.207031"/>
    <use xlink:href="#DejaVuSans-73" x="2143.416016"/>
    <use xlink:href="#DejaVuSans-20" x="2195.515625"/>
    <use xlink:href="#DejaVuSans-66" x="2227.302734"/>
    <use xlink:href="#DejaVuSans-6f" x="2262.507812"/>
    <use xlink:href="#DejaVuSans-72" x="2323.689453"/>
    <use xlink:href="#DejaVuSans-20" x="2364.802734"/>
    <use xlink:href="#DejaVuSans-67" x="2396.589844"/>
    <use xlink:href="#DejaVuSans-65" x="2460.066406"/>
    <use xlink:href="#DejaVuSans-6e" x="2521.589844"/>
    <use xlink:href="#DejaVuSans-65" x="2584.96875"/>
    <use xlink:href="#DejaVuSans-74" x="2646.492188"/>
    <use xlink:href="#DejaVuSans-69" x="2685.701172"/>
    <use xlink:href="#DejaVuSans-63" x="2713.484375"/>
    <use xlink:href="#DejaVuSans-20" x="2768.464844"/>
    <use xlink:href="#DejaVuSans-63" x="2800.251953"/>
    <use xlink:href="#DejaVuSans-6f" x="2855.232422"/>
    <use xlink:href="#DejaVuSans-64" x="2916.414062"/>
    <use xlink:href="#DejaVuSans-65" x="2979.890625"/>
    <use xlink:href="#DejaVuSans-3a" x="3041.414062"/>
    <use xlink:href="#DejaVuSans-20" x="3075.105469"/>
    <use xlink:href="#DejaVuSans-43" x="3106.892578"/>
    <use xlink:href="#DejaVuSans-4d" x="3176.716797"/>
    <use xlink:href="#DejaVuSans-55" x="3262.996094"/>
    <use xlink:href="#DejaVuSans-54" x="3336.189453"/>
   </g>
  </g>
 </g>
 <defs>
  <clipPath id="p66b59d6151">
   <rect x="43.78125" y="151.965714" width="773.450714" height="490.900952"/>
  </clipPath>
  <clipPath id="p7812c9cced">
   <rect x="43.78125" y="50.4" width="773.450714" height="84.638095"/>
  </clipPath>
  <clipPath id="p5224375743">
   <rect x="843.902679" y="151.965714" width="133.353571" height="490.900952"/>
  </clipPath>
 </defs>
</svg>
