<?xml version="1.0" encoding="utf-8" standalone="no"?>
<!DOCTYPE svg PUBLIC "-//W3C//DTD SVG 1.1//EN"
  "http://www.w3.org/Graphics/SVG/1.1/DTD/svg11.dtd">
<svg xmlns:xlink="http://www.w3.org/1999/xlink" width="984.45625pt" height="680.422917pt" viewBox="0 0 984.45625 680.422917" xmlns="http://www.w3.org/2000/svg" version="1.1">
 <metadata>
  <rdf:RDF xmlns:dc="http://purl.org/dc/elements/1.1/" xmlns:cc="http://creativecommons.org/ns#" xmlns:rdf="http://www.w3.org/1999/02/22-rdf-syntax-ns#">
   <cc:Work>
    <dc:type rdf:resource="http://purl.org/dc/dcmitype/StillImage"/>
    <dc:date>2025-01-28T17:05:01.324505</dc:date>
    <dc:format>image/svg+xml</dc:format>
    <dc:creator>
     <cc:Agent>
      <dc:title>Matplotlib v3.6.3, https://matplotlib.org/</dc:title>
     </cc:Agent>
    </dc:creator>
   </cc:Work>
  </rdf:RDF>
 </metadata>
 <defs>
  <style type="text/css">*{stroke-linejoin: round; stroke-linecap: butt}</style>
 </defs>
 <g id="figure_1">
  <g id="patch_1">
   <path d="M 0 680.422917 
L 984.45625 680.422917 
L 984.45625 0 
L 0 0 
z
" style="fill: #ffffff"/>
  </g>
  <g id="axes_1">
   <g id="patch_2">
    <path d="M 43.78125 642.866667 
L 817.231964 642.866667 
L 817.231964 151.965714 
L 43.78125 151.965714 
z
" style="fill: #ffffff"/>
   </g>
   <g id="PathCollection_1">
    <defs>
     <path id="m89e8e71b69" d="M 0 3 
C 0.795609 3 1.55874 2.683901 2.12132 2.12132 
C 2.683901 1.55874 3 0.795609 3 0 
C 3 -0.795609 2.683901 -1.55874 2.12132 -2.12132 
C 1.55874 -2.683901 0.795609 -3 0 -3 
C -0.795609 -3 -1.55874 -2.683901 -2.12132 -2.12132 
C -2.683901 -1.55874 -3 -0.795609 -3 0 
C -3 0.795609 -2.683901 1.55874 -2.12132 2.12132 
C -1.55874 2.683901 -0.795609 3 0 3 
z
" style="stroke: #000000; stroke-opacity: 0.5"/>
    </defs>
    <g clip-path="url(#p5680e07471)">
     <use xlink:href="#m89e8e71b69" x="342.846231" y="426.032919" style="fill: #4169e1; fill-opacity: 0.5; stroke: #000000; stroke-opacity: 0.5"/>
     <use xlink:href="#m89e8e71b69" x="368.895453" y="281.066128" style="fill: #4169e1; fill-opacity: 0.5; stroke: #000000; stroke-opacity: 0.5"/>
     <use xlink:href="#m89e8e71b69" x="380.076906" y="294.244928" style="fill: #4169e1; fill-opacity: 0.5; stroke: #000000; stroke-opacity: 0.5"/>
     <use xlink:href="#m89e8e71b69" x="379.644972" y="426.032919" style="fill: #4169e1; fill-opacity: 0.5; stroke: #000000; stroke-opacity: 0.5"/>
     <use xlink:href="#m89e8e71b69" x="408.620871" y="215.172133" style="fill: #4169e1; fill-opacity: 0.5; stroke: #000000; stroke-opacity: 0.5"/>
     <use xlink:href="#m89e8e71b69" x="317.633689" y="412.854119" style="fill: #4169e1; fill-opacity: 0.5; stroke: #000000; stroke-opacity: 0.5"/>
     <use xlink:href="#m89e8e71b69" x="419.357518" y="439.211718" style="fill: #4169e1; fill-opacity: 0.5; stroke: #000000; stroke-opacity: 0.5"/>
     <use xlink:href="#m89e8e71b69" x="389.340914" y="360.138923" style="fill: #4169e1; fill-opacity: 0.5; stroke: #000000; stroke-opacity: 0.5"/>
     <use xlink:href="#m89e8e71b69" x="602.415657" y="215.172133" style="fill: #4169e1; fill-opacity: 0.5; stroke: #000000; stroke-opacity: 0.5"/>
     <use xlink:href="#m89e8e71b69" x="196.891875" y="483.61834" style="fill: #4169e1; fill-opacity: 0.5; stroke: #000000; stroke-opacity: 0.5"/>
     <use xlink:href="#m89e8e71b69" x="271.166585" y="346.385618" style="fill: #4169e1; fill-opacity: 0.5; stroke: #000000; stroke-opacity: 0.5"/>
     <use xlink:href="#m89e8e71b69" x="432.925299" y="175.635736" style="fill: #4169e1; fill-opacity: 0.5; stroke: #000000; stroke-opacity: 0.5"/>
     <use xlink:href="#m89e8e71b69" x="333.356849" y="401.020907" style="fill: #4169e1; fill-opacity: 0.5; stroke: #000000; stroke-opacity: 0.5"/>
     <use xlink:href="#m89e8e71b69" x="363.272853" y="491.926914" style="fill: #4169e1; fill-opacity: 0.5; stroke: #000000; stroke-opacity: 0.5"/>
     <use xlink:href="#m89e8e71b69" x="411.373988" y="505.105713" style="fill: #4169e1; fill-opacity: 0.5; stroke: #000000; stroke-opacity: 0.5"/>
     <use xlink:href="#m89e8e71b69" x="365.75493" y="228.350932" style="fill: #4169e1; fill-opacity: 0.5; stroke: #000000; stroke-opacity: 0.5"/>
     <use xlink:href="#m89e8e71b69" x="345.140675" y="412.854119" style="fill: #4169e1; fill-opacity: 0.5; stroke: #000000; stroke-opacity: 0.5"/>
     <use xlink:href="#m89e8e71b69" x="476.909403" y="215.172133" style="fill: #4169e1; fill-opacity: 0.5; stroke: #000000; stroke-opacity: 0.5"/>
     <use xlink:href="#m89e8e71b69" x="341.56926" y="201.993334" style="fill: #4169e1; fill-opacity: 0.5; stroke: #000000; stroke-opacity: 0.5"/>
     <use xlink:href="#m89e8e71b69" x="382.434037" y="557.82091" style="fill: #4169e1; fill-opacity: 0.5; stroke: #000000; stroke-opacity: 0.5"/>
     <use xlink:href="#m89e8e71b69" x="418.420488" y="281.066128" style="fill: #4169e1; fill-opacity: 0.5; stroke: #000000; stroke-opacity: 0.5"/>
     <use xlink:href="#m89e8e71b69" x="384.820368" y="267.887329" style="fill: #4169e1; fill-opacity: 0.5; stroke: #000000; stroke-opacity: 0.5"/>
     <use xlink:href="#m89e8e71b69" x="370.885977" y="333.781325" style="fill: #4169e1; fill-opacity: 0.5; stroke: #000000; stroke-opacity: 0.5"/>
     <use xlink:href="#m89e8e71b69" x="389.261422" y="452.390517" style="fill: #4169e1; fill-opacity: 0.5; stroke: #000000; stroke-opacity: 0.5"/>
     <use xlink:href="#m89e8e71b69" x="563.124013" y="188.814535" style="fill: #4169e1; fill-opacity: 0.5; stroke: #000000; stroke-opacity: 0.5"/>
     <use xlink:href="#m89e8e71b69" x="395.439242" y="320.602526" style="fill: #4169e1; fill-opacity: 0.5; stroke: #000000; stroke-opacity: 0.5"/>
     <use xlink:href="#m89e8e71b69" x="407.458966" y="281.066128" style="fill: #4169e1; fill-opacity: 0.5; stroke: #000000; stroke-opacity: 0.5"/>
     <use xlink:href="#m89e8e71b69" x="194.444435" y="298.728494" style="fill: #4169e1; fill-opacity: 0.5; stroke: #000000; stroke-opacity: 0.5"/>
     <use xlink:href="#m89e8e71b69" x="468.142657" y="373.317722" style="fill: #4169e1; fill-opacity: 0.5; stroke: #000000; stroke-opacity: 0.5"/>
     <use xlink:href="#m89e8e71b69" x="370.81006" y="267.887329" style="fill: #4169e1; fill-opacity: 0.5; stroke: #000000; stroke-opacity: 0.5"/>
     <use xlink:href="#m89e8e71b69" x="782.075114" y="226.568111" style="fill: #4169e1; fill-opacity: 0.5; stroke: #000000; stroke-opacity: 0.5"/>
     <use xlink:href="#m89e8e71b69" x="78.938101" y="241.529731" style="fill: #4169e1; fill-opacity: 0.5; stroke: #000000; stroke-opacity: 0.5"/>
     <use xlink:href="#m89e8e71b69" x="395.331086" y="267.887329" style="fill: #4169e1; fill-opacity: 0.5; stroke: #000000; stroke-opacity: 0.5"/>
     <use xlink:href="#m89e8e71b69" x="411.825114" y="439.211718" style="fill: #4169e1; fill-opacity: 0.5; stroke: #000000; stroke-opacity: 0.5"/>
     <use xlink:href="#m89e8e71b69" x="384.217237" y="254.70853" style="fill: #4169e1; fill-opacity: 0.5; stroke: #000000; stroke-opacity: 0.5"/>
     <use xlink:href="#m89e8e71b69" x="431.749635" y="333.781325" style="fill: #4169e1; fill-opacity: 0.5; stroke: #000000; stroke-opacity: 0.5"/>
     <use xlink:href="#m89e8e71b69" x="355.551936" y="465.569316" style="fill: #4169e1; fill-opacity: 0.5; stroke: #000000; stroke-opacity: 0.5"/>
     <use xlink:href="#m89e8e71b69" x="433.130842" y="228.350932" style="fill: #4169e1; fill-opacity: 0.5; stroke: #000000; stroke-opacity: 0.5"/>
     <use xlink:href="#m89e8e71b69" x="413.718106" y="241.529731" style="fill: #4169e1; fill-opacity: 0.5; stroke: #000000; stroke-opacity: 0.5"/>
     <use xlink:href="#m89e8e71b69" x="191.984011" y="330.685495" style="fill: #4169e1; fill-opacity: 0.5; stroke: #000000; stroke-opacity: 0.5"/>
     <use xlink:href="#m89e8e71b69" x="299.60158" y="241.529731" style="fill: #4169e1; fill-opacity: 0.5; stroke: #000000; stroke-opacity: 0.5"/>
     <use xlink:href="#m89e8e71b69" x="304.114161" y="399.67532" style="fill: #4169e1; fill-opacity: 0.5; stroke: #000000; stroke-opacity: 0.5"/>
     <use xlink:href="#m89e8e71b69" x="400.342233" y="215.172133" style="fill: #4169e1; fill-opacity: 0.5; stroke: #000000; stroke-opacity: 0.5"/>
     <use xlink:href="#m89e8e71b69" x="396.987113" y="439.211718" style="fill: #4169e1; fill-opacity: 0.5; stroke: #000000; stroke-opacity: 0.5"/>
     <use xlink:href="#m89e8e71b69" x="506.623663" y="386.496521" style="fill: #4169e1; fill-opacity: 0.5; stroke: #000000; stroke-opacity: 0.5"/>
     <use xlink:href="#m89e8e71b69" x="411.569871" y="360.138923" style="fill: #4169e1; fill-opacity: 0.5; stroke: #000000; stroke-opacity: 0.5"/>
     <use xlink:href="#m89e8e71b69" x="406.406549" y="306.744765" style="fill: #4169e1; fill-opacity: 0.5; stroke: #000000; stroke-opacity: 0.5"/>
     <use xlink:href="#m89e8e71b69" x="449.215025" y="426.032919" style="fill: #4169e1; fill-opacity: 0.5; stroke: #000000; stroke-opacity: 0.5"/>
     <use xlink:href="#m89e8e71b69" x="363.153159" y="215.172133" style="fill: #4169e1; fill-opacity: 0.5; stroke: #000000; stroke-opacity: 0.5"/>
     <use xlink:href="#m89e8e71b69" x="346.849633" y="254.70853" style="fill: #4169e1; fill-opacity: 0.5; stroke: #000000; stroke-opacity: 0.5"/>
     <use xlink:href="#m89e8e71b69" x="471.111372" y="215.172133" style="fill: #4169e1; fill-opacity: 0.5; stroke: #000000; stroke-opacity: 0.5"/>
     <use xlink:href="#m89e8e71b69" x="411.430984" y="412.854119" style="fill: #4169e1; fill-opacity: 0.5; stroke: #000000; stroke-opacity: 0.5"/>
     <use xlink:href="#m89e8e71b69" x="459.447792" y="439.211718" style="fill: #4169e1; fill-opacity: 0.5; stroke: #000000; stroke-opacity: 0.5"/>
     <use xlink:href="#m89e8e71b69" x="200.538988" y="386.496521" style="fill: #4169e1; fill-opacity: 0.5; stroke: #000000; stroke-opacity: 0.5"/>
     <use xlink:href="#m89e8e71b69" x="190.130089" y="426.032919" style="fill: #4169e1; fill-opacity: 0.5; stroke: #000000; stroke-opacity: 0.5"/>
     <use xlink:href="#m89e8e71b69" x="472.205067" y="346.960124" style="fill: #4169e1; fill-opacity: 0.5; stroke: #000000; stroke-opacity: 0.5"/>
     <use xlink:href="#m89e8e71b69" x="394.231203" y="439.211718" style="fill: #4169e1; fill-opacity: 0.5; stroke: #000000; stroke-opacity: 0.5"/>
     <use xlink:href="#m89e8e71b69" x="419.428725" y="436.83968" style="fill: #4169e1; fill-opacity: 0.5; stroke: #000000; stroke-opacity: 0.5"/>
     <use xlink:href="#m89e8e71b69" x="429.342489" y="360.138923" style="fill: #4169e1; fill-opacity: 0.5; stroke: #000000; stroke-opacity: 0.5"/>
     <use xlink:href="#m89e8e71b69" x="426.363664" y="228.350932" style="fill: #4169e1; fill-opacity: 0.5; stroke: #000000; stroke-opacity: 0.5"/>
     <use xlink:href="#m89e8e71b69" x="346.669147" y="360.138923" style="fill: #4169e1; fill-opacity: 0.5; stroke: #000000; stroke-opacity: 0.5"/>
     <use xlink:href="#m89e8e71b69" x="422.440351" y="490.351004" style="fill: #4169e1; fill-opacity: 0.5; stroke: #000000; stroke-opacity: 0.5"/>
     <use xlink:href="#m89e8e71b69" x="326.63958" y="228.350932" style="fill: #4169e1; fill-opacity: 0.5; stroke: #000000; stroke-opacity: 0.5"/>
     <use xlink:href="#m89e8e71b69" x="403.400345" y="254.70853" style="fill: #4169e1; fill-opacity: 0.5; stroke: #000000; stroke-opacity: 0.5"/>
     <use xlink:href="#m89e8e71b69" x="412.99973" y="254.70853" style="fill: #4169e1; fill-opacity: 0.5; stroke: #000000; stroke-opacity: 0.5"/>
     <use xlink:href="#m89e8e71b69" x="370.059853" y="402.82637" style="fill: #4169e1; fill-opacity: 0.5; stroke: #000000; stroke-opacity: 0.5"/>
     <use xlink:href="#m89e8e71b69" x="416.397415" y="544.156598" style="fill: #4169e1; fill-opacity: 0.5; stroke: #000000; stroke-opacity: 0.5"/>
    </g>
   </g>
   <g id="PathCollection_2">
    <defs>
     <path id="m1c1a5069c1" d="M 0 3 
C 0.795609 3 1.55874 2.683901 2.12132 2.12132 
C 2.683901 1.55874 3 0.795609 3 0 
C 3 -0.795609 2.683901 -1.55874 2.12132 -2.12132 
C 1.55874 -2.683901 0.795609 -3 0 -3 
C -0.795609 -3 -1.55874 -2.683901 -2.12132 -2.12132 
C -2.683901 -1.55874 -3 -0.795609 -3 0 
C -3 0.795609 -2.683901 1.55874 -2.12132 2.12132 
C -1.55874 2.683901 -0.795609 3 0 3 
z
" style="stroke: #000000; stroke-opacity: 0.5"/>
    </defs>
    <g clip-path="url(#p5680e07471)">
     <use xlink:href="#m1c1a5069c1" x="342.846231" y="350.113046" style="fill: #ff8c00; fill-opacity: 0.5; stroke: #000000; stroke-opacity: 0.5"/>
     <use xlink:href="#m1c1a5069c1" x="368.895453" y="449.019475" style="fill: #ff8c00; fill-opacity: 0.5; stroke: #000000; stroke-opacity: 0.5"/>
     <use xlink:href="#m1c1a5069c1" x="380.076906" y="460.009078" style="fill: #ff8c00; fill-opacity: 0.5; stroke: #000000; stroke-opacity: 0.5"/>
     <use xlink:href="#m1c1a5069c1" x="379.644972" y="328.133839" style="fill: #ff8c00; fill-opacity: 0.5; stroke: #000000; stroke-opacity: 0.5"/>
     <use xlink:href="#m1c1a5069c1" x="408.620871" y="262.19622" style="fill: #ff8c00; fill-opacity: 0.5; stroke: #000000; stroke-opacity: 0.5"/>
     <use xlink:href="#m1c1a5069c1" x="317.633689" y="306.154633" style="fill: #ff8c00; fill-opacity: 0.5; stroke: #000000; stroke-opacity: 0.5"/>
     <use xlink:href="#m1c1a5069c1" x="419.357518" y="295.16503" style="fill: #ff8c00; fill-opacity: 0.5; stroke: #000000; stroke-opacity: 0.5"/>
     <use xlink:href="#m1c1a5069c1" x="389.340914" y="251.206617" style="fill: #ff8c00; fill-opacity: 0.5; stroke: #000000; stroke-opacity: 0.5"/>
     <use xlink:href="#m1c1a5069c1" x="602.415657" y="372.092252" style="fill: #ff8c00; fill-opacity: 0.5; stroke: #000000; stroke-opacity: 0.5"/>
     <use xlink:href="#m1c1a5069c1" x="196.891875" y="339.839597" style="fill: #ff8c00; fill-opacity: 0.5; stroke: #000000; stroke-opacity: 0.5"/>
     <use xlink:href="#m1c1a5069c1" x="271.166585" y="316.490956" style="fill: #ff8c00; fill-opacity: 0.5; stroke: #000000; stroke-opacity: 0.5"/>
     <use xlink:href="#m1c1a5069c1" x="432.925299" y="240.217013" style="fill: #ff8c00; fill-opacity: 0.5; stroke: #000000; stroke-opacity: 0.5"/>
     <use xlink:href="#m1c1a5069c1" x="333.356849" y="575.764307" style="fill: #ff8c00; fill-opacity: 0.5; stroke: #000000; stroke-opacity: 0.5"/>
     <use xlink:href="#m1c1a5069c1" x="363.272853" y="481.988285" style="fill: #ff8c00; fill-opacity: 0.5; stroke: #000000; stroke-opacity: 0.5"/>
     <use xlink:href="#m1c1a5069c1" x="411.373988" y="416.050665" style="fill: #ff8c00; fill-opacity: 0.5; stroke: #000000; stroke-opacity: 0.5"/>
     <use xlink:href="#m1c1a5069c1" x="365.75493" y="350.113046" style="fill: #ff8c00; fill-opacity: 0.5; stroke: #000000; stroke-opacity: 0.5"/>
     <use xlink:href="#m1c1a5069c1" x="345.140675" y="317.144236" style="fill: #ff8c00; fill-opacity: 0.5; stroke: #000000; stroke-opacity: 0.5"/>
     <use xlink:href="#m1c1a5069c1" x="476.909403" y="262.19622" style="fill: #ff8c00; fill-opacity: 0.5; stroke: #000000; stroke-opacity: 0.5"/>
     <use xlink:href="#m1c1a5069c1" x="341.56926" y="240.217013" style="fill: #ff8c00; fill-opacity: 0.5; stroke: #000000; stroke-opacity: 0.5"/>
     <use xlink:href="#m1c1a5069c1" x="382.434037" y="416.050665" style="fill: #ff8c00; fill-opacity: 0.5; stroke: #000000; stroke-opacity: 0.5"/>
     <use xlink:href="#m1c1a5069c1" x="418.420488" y="218.237807" style="fill: #ff8c00; fill-opacity: 0.5; stroke: #000000; stroke-opacity: 0.5"/>
     <use xlink:href="#m1c1a5069c1" x="384.820368" y="174.279394" style="fill: #ff8c00; fill-opacity: 0.5; stroke: #000000; stroke-opacity: 0.5"/>
     <use xlink:href="#m1c1a5069c1" x="370.885977" y="503.967491" style="fill: #ff8c00; fill-opacity: 0.5; stroke: #000000; stroke-opacity: 0.5"/>
     <use xlink:href="#m1c1a5069c1" x="389.261422" y="328.133839" style="fill: #ff8c00; fill-opacity: 0.5; stroke: #000000; stroke-opacity: 0.5"/>
     <use xlink:href="#m1c1a5069c1" x="563.124013" y="284.175426" style="fill: #ff8c00; fill-opacity: 0.5; stroke: #000000; stroke-opacity: 0.5"/>
     <use xlink:href="#m1c1a5069c1" x="395.439242" y="460.009078" style="fill: #ff8c00; fill-opacity: 0.5; stroke: #000000; stroke-opacity: 0.5"/>
     <use xlink:href="#m1c1a5069c1" x="407.458966" y="383.081856" style="fill: #ff8c00; fill-opacity: 0.5; stroke: #000000; stroke-opacity: 0.5"/>
     <use xlink:href="#m1c1a5069c1" x="194.444435" y="464.713669" style="fill: #ff8c00; fill-opacity: 0.5; stroke: #000000; stroke-opacity: 0.5"/>
     <use xlink:href="#m1c1a5069c1" x="468.142657" y="295.16503" style="fill: #ff8c00; fill-opacity: 0.5; stroke: #000000; stroke-opacity: 0.5"/>
     <use xlink:href="#m1c1a5069c1" x="370.81006" y="438.029872" style="fill: #ff8c00; fill-opacity: 0.5; stroke: #000000; stroke-opacity: 0.5"/>
     <use xlink:href="#m1c1a5069c1" x="782.075114" y="321.356423" style="fill: #ff8c00; fill-opacity: 0.5; stroke: #000000; stroke-opacity: 0.5"/>
     <use xlink:href="#m1c1a5069c1" x="78.938101" y="262.19622" style="fill: #ff8c00; fill-opacity: 0.5; stroke: #000000; stroke-opacity: 0.5"/>
     <use xlink:href="#m1c1a5069c1" x="395.331086" y="438.029872" style="fill: #ff8c00; fill-opacity: 0.5; stroke: #000000; stroke-opacity: 0.5"/>
     <use xlink:href="#m1c1a5069c1" x="411.825114" y="339.123443" style="fill: #ff8c00; fill-opacity: 0.5; stroke: #000000; stroke-opacity: 0.5"/>
     <use xlink:href="#m1c1a5069c1" x="384.217237" y="416.050665" style="fill: #ff8c00; fill-opacity: 0.5; stroke: #000000; stroke-opacity: 0.5"/>
     <use xlink:href="#m1c1a5069c1" x="431.749635" y="251.206617" style="fill: #ff8c00; fill-opacity: 0.5; stroke: #000000; stroke-opacity: 0.5"/>
     <use xlink:href="#m1c1a5069c1" x="355.551936" y="372.092252" style="fill: #ff8c00; fill-opacity: 0.5; stroke: #000000; stroke-opacity: 0.5"/>
     <use xlink:href="#m1c1a5069c1" x="433.130842" y="273.185823" style="fill: #ff8c00; fill-opacity: 0.5; stroke: #000000; stroke-opacity: 0.5"/>
     <use xlink:href="#m1c1a5069c1" x="413.718106" y="416.050665" style="fill: #ff8c00; fill-opacity: 0.5; stroke: #000000; stroke-opacity: 0.5"/>
     <use xlink:href="#m1c1a5069c1" x="191.984011" y="458.607657" style="fill: #ff8c00; fill-opacity: 0.5; stroke: #000000; stroke-opacity: 0.5"/>
     <use xlink:href="#m1c1a5069c1" x="299.60158" y="317.144236" style="fill: #ff8c00; fill-opacity: 0.5; stroke: #000000; stroke-opacity: 0.5"/>
     <use xlink:href="#m1c1a5069c1" x="304.114161" y="295.16503" style="fill: #ff8c00; fill-opacity: 0.5; stroke: #000000; stroke-opacity: 0.5"/>
     <use xlink:href="#m1c1a5069c1" x="400.342233" y="405.061062" style="fill: #ff8c00; fill-opacity: 0.5; stroke: #000000; stroke-opacity: 0.5"/>
     <use xlink:href="#m1c1a5069c1" x="396.987113" y="438.029872" style="fill: #ff8c00; fill-opacity: 0.5; stroke: #000000; stroke-opacity: 0.5"/>
     <use xlink:href="#m1c1a5069c1" x="506.623663" y="251.206617" style="fill: #ff8c00; fill-opacity: 0.5; stroke: #000000; stroke-opacity: 0.5"/>
     <use xlink:href="#m1c1a5069c1" x="411.569871" y="514.957094" style="fill: #ff8c00; fill-opacity: 0.5; stroke: #000000; stroke-opacity: 0.5"/>
     <use xlink:href="#m1c1a5069c1" x="406.406549" y="222.832534" style="fill: #ff8c00; fill-opacity: 0.5; stroke: #000000; stroke-opacity: 0.5"/>
     <use xlink:href="#m1c1a5069c1" x="449.215025" y="317.144236" style="fill: #ff8c00; fill-opacity: 0.5; stroke: #000000; stroke-opacity: 0.5"/>
     <use xlink:href="#m1c1a5069c1" x="363.153159" y="273.185823" style="fill: #ff8c00; fill-opacity: 0.5; stroke: #000000; stroke-opacity: 0.5"/>
     <use xlink:href="#m1c1a5069c1" x="346.849633" y="416.050665" style="fill: #ff8c00; fill-opacity: 0.5; stroke: #000000; stroke-opacity: 0.5"/>
     <use xlink:href="#m1c1a5069c1" x="471.111372" y="273.185823" style="fill: #ff8c00; fill-opacity: 0.5; stroke: #000000; stroke-opacity: 0.5"/>
     <use xlink:href="#m1c1a5069c1" x="411.430984" y="273.185823" style="fill: #ff8c00; fill-opacity: 0.5; stroke: #000000; stroke-opacity: 0.5"/>
     <use xlink:href="#m1c1a5069c1" x="459.447792" y="438.029872" style="fill: #ff8c00; fill-opacity: 0.5; stroke: #000000; stroke-opacity: 0.5"/>
     <use xlink:href="#m1c1a5069c1" x="200.538988" y="273.185823" style="fill: #ff8c00; fill-opacity: 0.5; stroke: #000000; stroke-opacity: 0.5"/>
     <use xlink:href="#m1c1a5069c1" x="190.130089" y="295.16503" style="fill: #ff8c00; fill-opacity: 0.5; stroke: #000000; stroke-opacity: 0.5"/>
     <use xlink:href="#m1c1a5069c1" x="472.205067" y="251.206617" style="fill: #ff8c00; fill-opacity: 0.5; stroke: #000000; stroke-opacity: 0.5"/>
     <use xlink:href="#m1c1a5069c1" x="394.231203" y="427.040269" style="fill: #ff8c00; fill-opacity: 0.5; stroke: #000000; stroke-opacity: 0.5"/>
     <use xlink:href="#m1c1a5069c1" x="419.428725" y="564.410309" style="fill: #ff8c00; fill-opacity: 0.5; stroke: #000000; stroke-opacity: 0.5"/>
     <use xlink:href="#m1c1a5069c1" x="429.342489" y="251.206617" style="fill: #ff8c00; fill-opacity: 0.5; stroke: #000000; stroke-opacity: 0.5"/>
     <use xlink:href="#m1c1a5069c1" x="426.363664" y="317.144236" style="fill: #ff8c00; fill-opacity: 0.5; stroke: #000000; stroke-opacity: 0.5"/>
     <use xlink:href="#m1c1a5069c1" x="346.669147" y="514.957094" style="fill: #ff8c00; fill-opacity: 0.5; stroke: #000000; stroke-opacity: 0.5"/>
     <use xlink:href="#m1c1a5069c1" x="422.440351" y="620.552987" style="fill: #ff8c00; fill-opacity: 0.5; stroke: #000000; stroke-opacity: 0.5"/>
     <use xlink:href="#m1c1a5069c1" x="326.63958" y="295.16503" style="fill: #ff8c00; fill-opacity: 0.5; stroke: #000000; stroke-opacity: 0.5"/>
     <use xlink:href="#m1c1a5069c1" x="403.400345" y="405.061062" style="fill: #ff8c00; fill-opacity: 0.5; stroke: #000000; stroke-opacity: 0.5"/>
     <use xlink:href="#m1c1a5069c1" x="412.99973" y="229.22741" style="fill: #ff8c00; fill-opacity: 0.5; stroke: #000000; stroke-opacity: 0.5"/>
     <use xlink:href="#m1c1a5069c1" x="370.059853" y="519.496167" style="fill: #ff8c00; fill-opacity: 0.5; stroke: #000000; stroke-opacity: 0.5"/>
     <use xlink:href="#m1c1a5069c1" x="416.397415" y="339.220091" style="fill: #ff8c00; fill-opacity: 0.5; stroke: #000000; stroke-opacity: 0.5"/>
    </g>
   </g>
   <g id="PolyCollection_1">
    <path d="M 78.938101 307.711286 
L 78.938101 468.732487 
L 86.040495 465.864516 
L 93.142889 463.268261 
L 100.245283 460.669826 
L 107.347677 457.627704 
L 114.450071 454.88183 
L 121.552465 452.440116 
L 128.654859 449.998403 
L 135.757253 447.55669 
L 142.859647 445.093854 
L 149.962041 442.49822 
L 157.064435 439.744944 
L 164.166829 436.644422 
L 171.269224 433.738052 
L 178.371618 431.137174 
L 185.474012 428.266816 
L 192.576406 425.380511 
L 199.6788 422.491052 
L 206.781194 419.997505 
L 213.883588 417.328051 
L 220.985982 414.331225 
L 228.088376 411.922309 
L 235.19077 409.075401 
L 242.293164 406.294127 
L 249.395558 403.56023 
L 256.497952 400.685358 
L 263.600346 398.322634 
L 270.702741 395.95991 
L 277.805135 393.597186 
L 284.907529 391.034701 
L 292.009923 388.133131 
L 299.112317 385.27585 
L 306.214711 382.85263 
L 313.317105 380.205402 
L 320.419499 377.382187 
L 327.521893 374.556979 
L 334.624287 372.959751 
L 341.726681 371.183418 
L 348.829075 368.798257 
L 355.931469 367.449486 
L 363.033863 365.632771 
L 370.136258 363.630838 
L 377.238652 362.659542 
L 384.341046 361.420789 
L 391.44344 360.371201 
L 398.545834 359.585492 
L 405.648228 358.735344 
L 412.750622 357.916707 
L 419.853016 357.172411 
L 426.95541 356.942566 
L 434.057804 356.955682 
L 441.160198 357.029154 
L 448.262592 356.714915 
L 455.364986 356.424559 
L 462.46738 357.019319 
L 469.569775 356.985321 
L 476.672169 356.972595 
L 483.774563 356.788693 
L 490.876957 356.714565 
L 497.979351 357.023617 
L 505.081745 357.672584 
L 512.184139 357.812237 
L 519.286533 358.330166 
L 526.388927 358.848096 
L 533.491321 359.419135 
L 540.593715 360.096744 
L 547.696109 360.353769 
L 554.798503 361.07789 
L 561.900897 361.890178 
L 569.003292 362.387896 
L 576.105686 362.676027 
L 583.20808 363.121017 
L 590.310474 363.781868 
L 597.412868 364.410888 
L 604.515262 365.048302 
L 611.617656 365.559216 
L 618.72005 366.194743 
L 625.822444 366.829358 
L 632.924838 367.370446 
L 640.027232 368.018254 
L 647.129626 368.666062 
L 654.23202 369.03937 
L 661.334414 369.278821 
L 668.436809 369.518273 
L 675.539203 369.757724 
L 682.641597 370.129415 
L 689.743991 370.645267 
L 696.846385 371.161027 
L 703.948779 371.676787 
L 711.051173 372.192547 
L 718.153567 372.708306 
L 725.255961 373.224066 
L 732.358355 373.739826 
L 739.460749 374.255586 
L 746.563143 375.033819 
L 753.665537 375.934098 
L 760.767931 376.828652 
L 767.870325 377.721858 
L 774.97272 378.615064 
L 782.075114 379.508271 
L 782.075114 176.48575 
L 782.075114 176.48575 
L 774.97272 179.490427 
L 767.870325 182.495706 
L 760.767931 185.500986 
L 753.665537 188.506265 
L 746.563143 191.511544 
L 739.460749 194.516823 
L 732.358355 197.522103 
L 725.255961 200.527382 
L 718.153567 203.532661 
L 711.051173 206.118086 
L 703.948779 208.624378 
L 696.846385 211.130671 
L 689.743991 213.636964 
L 682.641597 216.143257 
L 675.539203 218.649948 
L 668.436809 221.1578 
L 661.334414 223.959514 
L 654.23202 226.764104 
L 647.129626 229.696195 
L 640.027232 232.564535 
L 632.924838 235.432876 
L 625.822444 238.301217 
L 618.72005 241.174367 
L 611.617656 244.165281 
L 604.515262 246.921823 
L 597.412868 249.777971 
L 590.310474 252.64292 
L 583.20808 255.369904 
L 576.105686 257.718879 
L 569.003292 260.319053 
L 561.900897 262.958312 
L 554.798503 265.469309 
L 547.696109 267.970015 
L 540.593715 269.771798 
L 533.491321 271.81051 
L 526.388927 274.047726 
L 519.286533 276.365979 
L 512.184139 278.194276 
L 505.081745 280.473588 
L 497.979351 283.345847 
L 490.876957 285.694604 
L 483.774563 288.041437 
L 476.672169 290.388271 
L 469.569775 292.735104 
L 462.46738 295.072022 
L 455.364986 297.399674 
L 448.262592 299.90989 
L 441.160198 302.22301 
L 434.057804 304.842952 
L 426.95541 306.756013 
L 419.853016 308.735823 
L 412.750622 310.463869 
L 405.648228 312.256592 
L 398.545834 313.916728 
L 391.44344 315.236267 
L 384.341046 315.870588 
L 377.238652 317.001561 
L 370.136258 317.941524 
L 363.033863 318.680534 
L 355.931469 319.928539 
L 348.829075 320.052472 
L 341.726681 320.240943 
L 334.624287 320.854113 
L 327.521893 321.404519 
L 320.419499 321.258405 
L 313.317105 321.370422 
L 306.214711 321.778996 
L 299.112317 322.031334 
L 292.009923 321.868948 
L 284.907529 321.697282 
L 277.805135 321.585497 
L 270.702741 321.715677 
L 263.600346 321.133062 
L 256.497952 320.835054 
L 249.395558 320.774728 
L 242.293164 320.662318 
L 235.19077 320.067959 
L 228.088376 319.313821 
L 220.985982 318.858356 
L 213.883588 318.250261 
L 206.781194 317.649123 
L 199.6788 317.047986 
L 192.576406 316.446848 
L 185.474012 315.528987 
L 178.371618 315.04987 
L 171.269224 314.581459 
L 164.166829 314.011646 
L 157.064435 313.419163 
L 149.962041 312.827256 
L 142.859647 312.598672 
L 135.757253 312.267862 
L 128.654859 311.799136 
L 121.552465 311.165938 
L 114.450071 310.353526 
L 107.347677 309.543804 
L 100.245283 308.908397 
L 93.142889 308.506616 
L 86.040495 308.108951 
L 78.938101 307.711286 
z
" clip-path="url(#p5680e07471)" style="fill: #1f77b4; fill-opacity: 0.15"/>
   </g>
   <g id="PolyCollection_2">
    <path d="M 78.938101 326.676816 
L 78.938101 461.16286 
L 86.040495 459.119407 
L 93.142889 457.075954 
L 100.245283 455.032502 
L 107.347677 452.989049 
L 114.450071 450.944901 
L 121.552465 449.310925 
L 128.654859 447.294846 
L 135.757253 444.94913 
L 142.859647 442.736886 
L 149.962041 440.235388 
L 157.064435 437.889033 
L 164.166829 435.583562 
L 171.269224 433.626832 
L 178.371618 431.140055 
L 185.474012 429.010666 
L 192.576406 426.860652 
L 199.6788 425.30526 
L 206.781194 423.46254 
L 213.883588 421.601478 
L 220.985982 419.740416 
L 228.088376 417.879354 
L 235.19077 416.141451 
L 242.293164 414.159069 
L 249.395558 412.063893 
L 256.497952 410.372135 
L 263.600346 408.499217 
L 270.702741 406.742369 
L 277.805135 404.887718 
L 284.907529 402.540929 
L 292.009923 399.793356 
L 299.112317 398.335679 
L 306.214711 395.719303 
L 313.317105 393.682374 
L 320.419499 392.897469 
L 327.521893 391.683455 
L 334.624287 389.925692 
L 341.726681 388.690897 
L 348.829075 386.934947 
L 355.931469 385.57632 
L 363.033863 383.523554 
L 370.136258 382.741173 
L 377.238652 381.824749 
L 384.341046 380.711183 
L 391.44344 380.122492 
L 398.545834 379.149294 
L 405.648228 379.362637 
L 412.750622 379.404481 
L 419.853016 379.149973 
L 426.95541 378.891834 
L 434.057804 378.373782 
L 441.160198 378.299308 
L 448.262592 378.294091 
L 455.364986 377.863116 
L 462.46738 378.312138 
L 469.569775 378.608295 
L 476.672169 379.000131 
L 483.774563 379.244141 
L 490.876957 379.501477 
L 497.979351 379.648037 
L 505.081745 379.909084 
L 512.184139 380.506154 
L 519.286533 381.328403 
L 526.388927 381.785486 
L 533.491321 382.095231 
L 540.593715 382.406997 
L 547.696109 382.729458 
L 554.798503 383.218531 
L 561.900897 383.988105 
L 569.003292 385.04016 
L 576.105686 385.83593 
L 583.20808 386.516744 
L 590.310474 387.197558 
L 597.412868 387.868849 
L 604.515262 388.537754 
L 611.617656 389.206659 
L 618.72005 389.872882 
L 625.822444 390.538623 
L 632.924838 391.204363 
L 640.027232 391.870103 
L 647.129626 392.359961 
L 654.23202 393.00456 
L 661.334414 393.883127 
L 668.436809 394.272406 
L 675.539203 394.619616 
L 682.641597 394.964854 
L 689.743991 395.510284 
L 696.846385 396.152267 
L 703.948779 396.794251 
L 711.051173 397.436234 
L 718.153567 398.078217 
L 725.255961 398.606626 
L 732.358355 399.069081 
L 739.460749 399.527817 
L 746.563143 399.986554 
L 753.665537 400.44529 
L 760.767931 400.904026 
L 767.870325 401.362762 
L 774.97272 401.821498 
L 782.075114 402.280234 
L 782.075114 231.58595 
L 782.075114 231.58595 
L 774.97272 233.685267 
L 767.870325 235.784584 
L 760.767931 237.883901 
L 753.665537 240.20384 
L 746.563143 242.560232 
L 739.460749 245.065991 
L 732.358355 247.264636 
L 725.255961 249.607472 
L 718.153567 251.950307 
L 711.051173 254.293143 
L 703.948779 256.366387 
L 696.846385 258.333429 
L 689.743991 260.305401 
L 682.641597 262.590705 
L 675.539203 264.585238 
L 668.436809 266.61869 
L 661.334414 269.501436 
L 654.23202 271.564042 
L 647.129626 272.979258 
L 640.027232 274.394475 
L 632.924838 275.949261 
L 625.822444 278.589156 
L 618.72005 281.346184 
L 611.617656 284.071774 
L 604.515262 285.78659 
L 597.412868 287.505556 
L 590.310474 289.316845 
L 583.20808 291.846073 
L 576.105686 293.38991 
L 569.003292 294.835567 
L 561.900897 296.801812 
L 554.798503 299.52527 
L 547.696109 301.442556 
L 540.593715 303.665372 
L 533.491321 306.194633 
L 526.388927 308.347425 
L 519.286533 309.81167 
L 512.184139 311.131508 
L 505.081745 312.995186 
L 497.979351 314.778386 
L 490.876957 316.623356 
L 483.774563 318.469637 
L 476.672169 319.619659 
L 469.569775 321.116394 
L 462.46738 322.411099 
L 455.364986 323.429451 
L 448.262592 324.654396 
L 441.160198 325.805575 
L 434.057804 327.013989 
L 426.95541 328.265403 
L 419.853016 329.896662 
L 412.750622 330.971267 
L 405.648228 331.762651 
L 398.545834 332.585643 
L 391.44344 333.162096 
L 384.341046 333.499059 
L 377.238652 333.959484 
L 370.136258 334.262579 
L 363.033863 334.626817 
L 355.931469 335.009748 
L 348.829075 335.545891 
L 341.726681 335.929192 
L 334.624287 336.375765 
L 327.521893 336.423943 
L 320.419499 336.909534 
L 313.317105 336.916889 
L 306.214711 337.142934 
L 299.112317 337.252893 
L 292.009923 336.888246 
L 284.907529 337.106937 
L 277.805135 337.44378 
L 270.702741 337.308319 
L 263.600346 336.815453 
L 256.497952 336.677628 
L 249.395558 336.497321 
L 242.293164 336.229796 
L 235.19077 335.867744 
L 228.088376 335.680364 
L 220.985982 335.443872 
L 213.883588 335.376541 
L 206.781194 334.859006 
L 199.6788 334.586648 
L 192.576406 334.51893 
L 185.474012 334.103954 
L 178.371618 334.101547 
L 171.269224 333.947789 
L 164.166829 333.359549 
L 157.064435 332.939688 
L 149.962041 332.669621 
L 142.859647 332.266719 
L 135.757253 331.487855 
L 128.654859 330.876199 
L 121.552465 330.112781 
L 114.450071 328.943736 
L 107.347677 328.023686 
L 100.245283 327.63644 
L 93.142889 327.737561 
L 86.040495 327.273465 
L 78.938101 326.676816 
z
" clip-path="url(#p5680e07471)" style="fill: #ff7f0e; fill-opacity: 0.15"/>
   </g>
   <g id="matplotlib.axis_1">
    <g id="xtick_1">
     <g id="line2d_1">
      <defs>
       <path id="m76b6ea2ed8" d="M 0 0 
L 0 3.5 
" style="stroke: #000000; stroke-width: 0.8"/>
      </defs>
      <g>
       <use xlink:href="#m76b6ea2ed8" x="112.789865" y="642.866667" style="stroke: #000000; stroke-width: 0.8"/>
      </g>
     </g>
     <g id="text_1">
      <!-- 2.2 -->
      <g transform="translate(104.838303 657.465104) scale(0.1 -0.1)">
       <defs>
        <path id="DejaVuSans-32" d="M 1228 531 
L 3431 531 
L 3431 0 
L 469 0 
L 469 531 
Q 828 903 1448 1529 
Q 2069 2156 2228 2338 
Q 2531 2678 2651 2914 
Q 2772 3150 2772 3378 
Q 2772 3750 2511 3984 
Q 2250 4219 1831 4219 
Q 1534 4219 1204 4116 
Q 875 4013 500 3803 
L 500 4441 
Q 881 4594 1212 4672 
Q 1544 4750 1819 4750 
Q 2544 4750 2975 4387 
Q 3406 4025 3406 3419 
Q 3406 3131 3298 2873 
Q 3191 2616 2906 2266 
Q 2828 2175 2409 1742 
Q 1991 1309 1228 531 
z
" transform="scale(0.015625)"/>
        <path id="DejaVuSans-2e" d="M 684 794 
L 1344 794 
L 1344 0 
L 684 0 
L 684 794 
z
" transform="scale(0.015625)"/>
       </defs>
       <use xlink:href="#DejaVuSans-32"/>
       <use xlink:href="#DejaVuSans-2e" x="63.623047"/>
       <use xlink:href="#DejaVuSans-32" x="95.410156"/>
      </g>
     </g>
    </g>
    <g id="xtick_2">
     <g id="line2d_2">
      <g>
       <use xlink:href="#m76b6ea2ed8" x="219.581185" y="642.866667" style="stroke: #000000; stroke-width: 0.8"/>
      </g>
     </g>
     <g id="text_2">
      <!-- 2.3 -->
      <g transform="translate(211.629622 657.465104) scale(0.1 -0.1)">
       <defs>
        <path id="DejaVuSans-33" d="M 2597 2516 
Q 3050 2419 3304 2112 
Q 3559 1806 3559 1356 
Q 3559 666 3084 287 
Q 2609 -91 1734 -91 
Q 1441 -91 1130 -33 
Q 819 25 488 141 
L 488 750 
Q 750 597 1062 519 
Q 1375 441 1716 441 
Q 2309 441 2620 675 
Q 2931 909 2931 1356 
Q 2931 1769 2642 2001 
Q 2353 2234 1838 2234 
L 1294 2234 
L 1294 2753 
L 1863 2753 
Q 2328 2753 2575 2939 
Q 2822 3125 2822 3475 
Q 2822 3834 2567 4026 
Q 2313 4219 1838 4219 
Q 1578 4219 1281 4162 
Q 984 4106 628 3988 
L 628 4550 
Q 988 4650 1302 4700 
Q 1616 4750 1894 4750 
Q 2613 4750 3031 4423 
Q 3450 4097 3450 3541 
Q 3450 3153 3228 2886 
Q 3006 2619 2597 2516 
z
" transform="scale(0.015625)"/>
       </defs>
       <use xlink:href="#DejaVuSans-32"/>
       <use xlink:href="#DejaVuSans-2e" x="63.623047"/>
       <use xlink:href="#DejaVuSans-33" x="95.410156"/>
      </g>
     </g>
    </g>
    <g id="xtick_3">
     <g id="line2d_3">
      <g>
       <use xlink:href="#m76b6ea2ed8" x="326.372504" y="642.866667" style="stroke: #000000; stroke-width: 0.8"/>
      </g>
     </g>
     <g id="text_3">
      <!-- 2.4 -->
      <g transform="translate(318.420942 657.465104) scale(0.1 -0.1)">
       <defs>
        <path id="DejaVuSans-34" d="M 2419 4116 
L 825 1625 
L 2419 1625 
L 2419 4116 
z
M 2253 4666 
L 3047 4666 
L 3047 1625 
L 3713 1625 
L 3713 1100 
L 3047 1100 
L 3047 0 
L 2419 0 
L 2419 1100 
L 313 1100 
L 313 1709 
L 2253 4666 
z
" transform="scale(0.015625)"/>
       </defs>
       <use xlink:href="#DejaVuSans-32"/>
       <use xlink:href="#DejaVuSans-2e" x="63.623047"/>
       <use xlink:href="#DejaVuSans-34" x="95.410156"/>
      </g>
     </g>
    </g>
    <g id="xtick_4">
     <g id="line2d_4">
      <g>
       <use xlink:href="#m76b6ea2ed8" x="433.163824" y="642.866667" style="stroke: #000000; stroke-width: 0.8"/>
      </g>
     </g>
     <g id="text_4">
      <!-- 2.5 -->
      <g transform="translate(425.212261 657.465104) scale(0.1 -0.1)">
       <defs>
        <path id="DejaVuSans-35" d="M 691 4666 
L 3169 4666 
L 3169 4134 
L 1269 4134 
L 1269 2991 
Q 1406 3038 1543 3061 
Q 1681 3084 1819 3084 
Q 2600 3084 3056 2656 
Q 3513 2228 3513 1497 
Q 3513 744 3044 326 
Q 2575 -91 1722 -91 
Q 1428 -91 1123 -41 
Q 819 9 494 109 
L 494 744 
Q 775 591 1075 516 
Q 1375 441 1709 441 
Q 2250 441 2565 725 
Q 2881 1009 2881 1497 
Q 2881 1984 2565 2268 
Q 2250 2553 1709 2553 
Q 1456 2553 1204 2497 
Q 953 2441 691 2322 
L 691 4666 
z
" transform="scale(0.015625)"/>
       </defs>
       <use xlink:href="#DejaVuSans-32"/>
       <use xlink:href="#DejaVuSans-2e" x="63.623047"/>
       <use xlink:href="#DejaVuSans-35" x="95.410156"/>
      </g>
     </g>
    </g>
    <g id="xtick_5">
     <g id="line2d_5">
      <g>
       <use xlink:href="#m76b6ea2ed8" x="539.955143" y="642.866667" style="stroke: #000000; stroke-width: 0.8"/>
      </g>
     </g>
     <g id="text_5">
      <!-- 2.6 -->
      <g transform="translate(532.00358 657.465104) scale(0.1 -0.1)">
       <defs>
        <path id="DejaVuSans-36" d="M 2113 2584 
Q 1688 2584 1439 2293 
Q 1191 2003 1191 1497 
Q 1191 994 1439 701 
Q 1688 409 2113 409 
Q 2538 409 2786 701 
Q 3034 994 3034 1497 
Q 3034 2003 2786 2293 
Q 2538 2584 2113 2584 
z
M 3366 4563 
L 3366 3988 
Q 3128 4100 2886 4159 
Q 2644 4219 2406 4219 
Q 1781 4219 1451 3797 
Q 1122 3375 1075 2522 
Q 1259 2794 1537 2939 
Q 1816 3084 2150 3084 
Q 2853 3084 3261 2657 
Q 3669 2231 3669 1497 
Q 3669 778 3244 343 
Q 2819 -91 2113 -91 
Q 1303 -91 875 529 
Q 447 1150 447 2328 
Q 447 3434 972 4092 
Q 1497 4750 2381 4750 
Q 2619 4750 2861 4703 
Q 3103 4656 3366 4563 
z
" transform="scale(0.015625)"/>
       </defs>
       <use xlink:href="#DejaVuSans-32"/>
       <use xlink:href="#DejaVuSans-2e" x="63.623047"/>
       <use xlink:href="#DejaVuSans-36" x="95.410156"/>
      </g>
     </g>
    </g>
    <g id="xtick_6">
     <g id="line2d_6">
      <g>
       <use xlink:href="#m76b6ea2ed8" x="646.746462" y="642.866667" style="stroke: #000000; stroke-width: 0.8"/>
      </g>
     </g>
     <g id="text_6">
      <!-- 2.7 -->
      <g transform="translate(638.7949 657.465104) scale(0.1 -0.1)">
       <defs>
        <path id="DejaVuSans-37" d="M 525 4666 
L 3525 4666 
L 3525 4397 
L 1831 0 
L 1172 0 
L 2766 4134 
L 525 4134 
L 525 4666 
z
" transform="scale(0.015625)"/>
       </defs>
       <use xlink:href="#DejaVuSans-32"/>
       <use xlink:href="#DejaVuSans-2e" x="63.623047"/>
       <use xlink:href="#DejaVuSans-37" x="95.410156"/>
      </g>
     </g>
    </g>
    <g id="xtick_7">
     <g id="line2d_7">
      <g>
       <use xlink:href="#m76b6ea2ed8" x="753.537782" y="642.866667" style="stroke: #000000; stroke-width: 0.8"/>
      </g>
     </g>
     <g id="text_7">
      <!-- 2.8 -->
      <g transform="translate(745.586219 657.465104) scale(0.1 -0.1)">
       <defs>
        <path id="DejaVuSans-38" d="M 2034 2216 
Q 1584 2216 1326 1975 
Q 1069 1734 1069 1313 
Q 1069 891 1326 650 
Q 1584 409 2034 409 
Q 2484 409 2743 651 
Q 3003 894 3003 1313 
Q 3003 1734 2745 1975 
Q 2488 2216 2034 2216 
z
M 1403 2484 
Q 997 2584 770 2862 
Q 544 3141 544 3541 
Q 544 4100 942 4425 
Q 1341 4750 2034 4750 
Q 2731 4750 3128 4425 
Q 3525 4100 3525 3541 
Q 3525 3141 3298 2862 
Q 3072 2584 2669 2484 
Q 3125 2378 3379 2068 
Q 3634 1759 3634 1313 
Q 3634 634 3220 271 
Q 2806 -91 2034 -91 
Q 1263 -91 848 271 
Q 434 634 434 1313 
Q 434 1759 690 2068 
Q 947 2378 1403 2484 
z
M 1172 3481 
Q 1172 3119 1398 2916 
Q 1625 2713 2034 2713 
Q 2441 2713 2670 2916 
Q 2900 3119 2900 3481 
Q 2900 3844 2670 4047 
Q 2441 4250 2034 4250 
Q 1625 4250 1398 4047 
Q 1172 3844 1172 3481 
z
" transform="scale(0.015625)"/>
       </defs>
       <use xlink:href="#DejaVuSans-32"/>
       <use xlink:href="#DejaVuSans-2e" x="63.623047"/>
       <use xlink:href="#DejaVuSans-38" x="95.410156"/>
      </g>
     </g>
    </g>
    <g id="text_8">
     <!-- Protein log10-length -->
     <g transform="translate(379.666763 671.143229) scale(0.1 -0.1)">
      <defs>
       <path id="DejaVuSans-50" d="M 1259 4147 
L 1259 2394 
L 2053 2394 
Q 2494 2394 2734 2622 
Q 2975 2850 2975 3272 
Q 2975 3691 2734 3919 
Q 2494 4147 2053 4147 
L 1259 4147 
z
M 628 4666 
L 2053 4666 
Q 2838 4666 3239 4311 
Q 3641 3956 3641 3272 
Q 3641 2581 3239 2228 
Q 2838 1875 2053 1875 
L 1259 1875 
L 1259 0 
L 628 0 
L 628 4666 
z
" transform="scale(0.015625)"/>
       <path id="DejaVuSans-72" d="M 2631 2963 
Q 2534 3019 2420 3045 
Q 2306 3072 2169 3072 
Q 1681 3072 1420 2755 
Q 1159 2438 1159 1844 
L 1159 0 
L 581 0 
L 581 3500 
L 1159 3500 
L 1159 2956 
Q 1341 3275 1631 3429 
Q 1922 3584 2338 3584 
Q 2397 3584 2469 3576 
Q 2541 3569 2628 3553 
L 2631 2963 
z
" transform="scale(0.015625)"/>
       <path id="DejaVuSans-6f" d="M 1959 3097 
Q 1497 3097 1228 2736 
Q 959 2375 959 1747 
Q 959 1119 1226 758 
Q 1494 397 1959 397 
Q 2419 397 2687 759 
Q 2956 1122 2956 1747 
Q 2956 2369 2687 2733 
Q 2419 3097 1959 3097 
z
M 1959 3584 
Q 2709 3584 3137 3096 
Q 3566 2609 3566 1747 
Q 3566 888 3137 398 
Q 2709 -91 1959 -91 
Q 1206 -91 779 398 
Q 353 888 353 1747 
Q 353 2609 779 3096 
Q 1206 3584 1959 3584 
z
" transform="scale(0.015625)"/>
       <path id="DejaVuSans-74" d="M 1172 4494 
L 1172 3500 
L 2356 3500 
L 2356 3053 
L 1172 3053 
L 1172 1153 
Q 1172 725 1289 603 
Q 1406 481 1766 481 
L 2356 481 
L 2356 0 
L 1766 0 
Q 1100 0 847 248 
Q 594 497 594 1153 
L 594 3053 
L 172 3053 
L 172 3500 
L 594 3500 
L 594 4494 
L 1172 4494 
z
" transform="scale(0.015625)"/>
       <path id="DejaVuSans-65" d="M 3597 1894 
L 3597 1613 
L 953 1613 
Q 991 1019 1311 708 
Q 1631 397 2203 397 
Q 2534 397 2845 478 
Q 3156 559 3463 722 
L 3463 178 
Q 3153 47 2828 -22 
Q 2503 -91 2169 -91 
Q 1331 -91 842 396 
Q 353 884 353 1716 
Q 353 2575 817 3079 
Q 1281 3584 2069 3584 
Q 2775 3584 3186 3129 
Q 3597 2675 3597 1894 
z
M 3022 2063 
Q 3016 2534 2758 2815 
Q 2500 3097 2075 3097 
Q 1594 3097 1305 2825 
Q 1016 2553 972 2059 
L 3022 2063 
z
" transform="scale(0.015625)"/>
       <path id="DejaVuSans-69" d="M 603 3500 
L 1178 3500 
L 1178 0 
L 603 0 
L 603 3500 
z
M 603 4863 
L 1178 4863 
L 1178 4134 
L 603 4134 
L 603 4863 
z
" transform="scale(0.015625)"/>
       <path id="DejaVuSans-6e" d="M 3513 2113 
L 3513 0 
L 2938 0 
L 2938 2094 
Q 2938 2591 2744 2837 
Q 2550 3084 2163 3084 
Q 1697 3084 1428 2787 
Q 1159 2491 1159 1978 
L 1159 0 
L 581 0 
L 581 3500 
L 1159 3500 
L 1159 2956 
Q 1366 3272 1645 3428 
Q 1925 3584 2291 3584 
Q 2894 3584 3203 3211 
Q 3513 2838 3513 2113 
z
" transform="scale(0.015625)"/>
       <path id="DejaVuSans-20" transform="scale(0.015625)"/>
       <path id="DejaVuSans-6c" d="M 603 4863 
L 1178 4863 
L 1178 0 
L 603 0 
L 603 4863 
z
" transform="scale(0.015625)"/>
       <path id="DejaVuSans-67" d="M 2906 1791 
Q 2906 2416 2648 2759 
Q 2391 3103 1925 3103 
Q 1463 3103 1205 2759 
Q 947 2416 947 1791 
Q 947 1169 1205 825 
Q 1463 481 1925 481 
Q 2391 481 2648 825 
Q 2906 1169 2906 1791 
z
M 3481 434 
Q 3481 -459 3084 -895 
Q 2688 -1331 1869 -1331 
Q 1566 -1331 1297 -1286 
Q 1028 -1241 775 -1147 
L 775 -588 
Q 1028 -725 1275 -790 
Q 1522 -856 1778 -856 
Q 2344 -856 2625 -561 
Q 2906 -266 2906 331 
L 2906 616 
Q 2728 306 2450 153 
Q 2172 0 1784 0 
Q 1141 0 747 490 
Q 353 981 353 1791 
Q 353 2603 747 3093 
Q 1141 3584 1784 3584 
Q 2172 3584 2450 3431 
Q 2728 3278 2906 2969 
L 2906 3500 
L 3481 3500 
L 3481 434 
z
" transform="scale(0.015625)"/>
       <path id="DejaVuSans-31" d="M 794 531 
L 1825 531 
L 1825 4091 
L 703 3866 
L 703 4441 
L 1819 4666 
L 2450 4666 
L 2450 531 
L 3481 531 
L 3481 0 
L 794 0 
L 794 531 
z
" transform="scale(0.015625)"/>
       <path id="DejaVuSans-30" d="M 2034 4250 
Q 1547 4250 1301 3770 
Q 1056 3291 1056 2328 
Q 1056 1369 1301 889 
Q 1547 409 2034 409 
Q 2525 409 2770 889 
Q 3016 1369 3016 2328 
Q 3016 3291 2770 3770 
Q 2525 4250 2034 4250 
z
M 2034 4750 
Q 2819 4750 3233 4129 
Q 3647 3509 3647 2328 
Q 3647 1150 3233 529 
Q 2819 -91 2034 -91 
Q 1250 -91 836 529 
Q 422 1150 422 2328 
Q 422 3509 836 4129 
Q 1250 4750 2034 4750 
z
" transform="scale(0.015625)"/>
       <path id="DejaVuSans-2d" d="M 313 2009 
L 1997 2009 
L 1997 1497 
L 313 1497 
L 313 2009 
z
" transform="scale(0.015625)"/>
       <path id="DejaVuSans-68" d="M 3513 2113 
L 3513 0 
L 2938 0 
L 2938 2094 
Q 2938 2591 2744 2837 
Q 2550 3084 2163 3084 
Q 1697 3084 1428 2787 
Q 1159 2491 1159 1978 
L 1159 0 
L 581 0 
L 581 4863 
L 1159 4863 
L 1159 2956 
Q 1366 3272 1645 3428 
Q 1925 3584 2291 3584 
Q 2894 3584 3203 3211 
Q 3513 2838 3513 2113 
z
" transform="scale(0.015625)"/>
      </defs>
      <use xlink:href="#DejaVuSans-50"/>
      <use xlink:href="#DejaVuSans-72" x="58.552734"/>
      <use xlink:href="#DejaVuSans-6f" x="97.416016"/>
      <use xlink:href="#DejaVuSans-74" x="158.597656"/>
      <use xlink:href="#DejaVuSans-65" x="197.806641"/>
      <use xlink:href="#DejaVuSans-69" x="259.330078"/>
      <use xlink:href="#DejaVuSans-6e" x="287.113281"/>
      <use xlink:href="#DejaVuSans-20" x="350.492188"/>
      <use xlink:href="#DejaVuSans-6c" x="382.279297"/>
      <use xlink:href="#DejaVuSans-6f" x="410.0625"/>
      <use xlink:href="#DejaVuSans-67" x="471.244141"/>
      <use xlink:href="#DejaVuSans-31" x="534.720703"/>
      <use xlink:href="#DejaVuSans-30" x="598.34375"/>
      <use xlink:href="#DejaVuSans-2d" x="661.966797"/>
      <use xlink:href="#DejaVuSans-6c" x="698.050781"/>
      <use xlink:href="#DejaVuSans-65" x="725.833984"/>
      <use xlink:href="#DejaVuSans-6e" x="787.357422"/>
      <use xlink:href="#DejaVuSans-67" x="850.736328"/>
      <use xlink:href="#DejaVuSans-74" x="914.212891"/>
      <use xlink:href="#DejaVuSans-68" x="953.421875"/>
     </g>
    </g>
   </g>
   <g id="matplotlib.axis_2">
    <g id="ytick_1">
     <g id="line2d_8">
      <defs>
       <path id="mf03c667297" d="M 0 0 
L -3.5 0 
" style="stroke: #000000; stroke-width: 0.8"/>
      </defs>
      <g>
       <use xlink:href="#mf03c667297" x="43.78125" y="564.410309" style="stroke: #000000; stroke-width: 0.8"/>
      </g>
     </g>
     <g id="text_9">
      <!-- 0.0 -->
      <g transform="translate(20.878125 568.209528) scale(0.1 -0.1)">
       <use xlink:href="#DejaVuSans-30"/>
       <use xlink:href="#DejaVuSans-2e" x="63.623047"/>
       <use xlink:href="#DejaVuSans-30" x="95.410156"/>
      </g>
     </g>
    </g>
    <g id="ytick_2">
     <g id="line2d_9">
      <g>
       <use xlink:href="#mf03c667297" x="43.78125" y="471.338685" style="stroke: #000000; stroke-width: 0.8"/>
      </g>
     </g>
     <g id="text_10">
      <!-- 0.1 -->
      <g transform="translate(20.878125 475.137904) scale(0.1 -0.1)">
       <use xlink:href="#DejaVuSans-30"/>
       <use xlink:href="#DejaVuSans-2e" x="63.623047"/>
       <use xlink:href="#DejaVuSans-31" x="95.410156"/>
      </g>
     </g>
    </g>
    <g id="ytick_3">
     <g id="line2d_10">
      <g>
       <use xlink:href="#mf03c667297" x="43.78125" y="378.267061" style="stroke: #000000; stroke-width: 0.8"/>
      </g>
     </g>
     <g id="text_11">
      <!-- 0.2 -->
      <g transform="translate(20.878125 382.06628) scale(0.1 -0.1)">
       <use xlink:href="#DejaVuSans-30"/>
       <use xlink:href="#DejaVuSans-2e" x="63.623047"/>
       <use xlink:href="#DejaVuSans-32" x="95.410156"/>
      </g>
     </g>
    </g>
    <g id="ytick_4">
     <g id="line2d_11">
      <g>
       <use xlink:href="#mf03c667297" x="43.78125" y="285.195437" style="stroke: #000000; stroke-width: 0.8"/>
      </g>
     </g>
     <g id="text_12">
      <!-- 0.3 -->
      <g transform="translate(20.878125 288.994656) scale(0.1 -0.1)">
       <use xlink:href="#DejaVuSans-30"/>
       <use xlink:href="#DejaVuSans-2e" x="63.623047"/>
       <use xlink:href="#DejaVuSans-33" x="95.410156"/>
      </g>
     </g>
    </g>
    <g id="ytick_5">
     <g id="line2d_12">
      <g>
       <use xlink:href="#mf03c667297" x="43.78125" y="192.123813" style="stroke: #000000; stroke-width: 0.8"/>
      </g>
     </g>
     <g id="text_13">
      <!-- 0.4 -->
      <g transform="translate(20.878125 195.923032) scale(0.1 -0.1)">
       <use xlink:href="#DejaVuSans-30"/>
       <use xlink:href="#DejaVuSans-2e" x="63.623047"/>
       <use xlink:href="#DejaVuSans-34" x="95.410156"/>
      </g>
     </g>
    </g>
    <g id="text_14">
     <!-- Correlation coefficient -->
     <g transform="translate(14.798438 452.712284) rotate(-90) scale(0.1 -0.1)">
      <defs>
       <path id="DejaVuSans-43" d="M 4122 4306 
L 4122 3641 
Q 3803 3938 3442 4084 
Q 3081 4231 2675 4231 
Q 1875 4231 1450 3742 
Q 1025 3253 1025 2328 
Q 1025 1406 1450 917 
Q 1875 428 2675 428 
Q 3081 428 3442 575 
Q 3803 722 4122 1019 
L 4122 359 
Q 3791 134 3420 21 
Q 3050 -91 2638 -91 
Q 1578 -91 968 557 
Q 359 1206 359 2328 
Q 359 3453 968 4101 
Q 1578 4750 2638 4750 
Q 3056 4750 3426 4639 
Q 3797 4528 4122 4306 
z
" transform="scale(0.015625)"/>
       <path id="DejaVuSans-61" d="M 2194 1759 
Q 1497 1759 1228 1600 
Q 959 1441 959 1056 
Q 959 750 1161 570 
Q 1363 391 1709 391 
Q 2188 391 2477 730 
Q 2766 1069 2766 1631 
L 2766 1759 
L 2194 1759 
z
M 3341 1997 
L 3341 0 
L 2766 0 
L 2766 531 
Q 2569 213 2275 61 
Q 1981 -91 1556 -91 
Q 1019 -91 701 211 
Q 384 513 384 1019 
Q 384 1609 779 1909 
Q 1175 2209 1959 2209 
L 2766 2209 
L 2766 2266 
Q 2766 2663 2505 2880 
Q 2244 3097 1772 3097 
Q 1472 3097 1187 3025 
Q 903 2953 641 2809 
L 641 3341 
Q 956 3463 1253 3523 
Q 1550 3584 1831 3584 
Q 2591 3584 2966 3190 
Q 3341 2797 3341 1997 
z
" transform="scale(0.015625)"/>
       <path id="DejaVuSans-63" d="M 3122 3366 
L 3122 2828 
Q 2878 2963 2633 3030 
Q 2388 3097 2138 3097 
Q 1578 3097 1268 2742 
Q 959 2388 959 1747 
Q 959 1106 1268 751 
Q 1578 397 2138 397 
Q 2388 397 2633 464 
Q 2878 531 3122 666 
L 3122 134 
Q 2881 22 2623 -34 
Q 2366 -91 2075 -91 
Q 1284 -91 818 406 
Q 353 903 353 1747 
Q 353 2603 823 3093 
Q 1294 3584 2113 3584 
Q 2378 3584 2631 3529 
Q 2884 3475 3122 3366 
z
" transform="scale(0.015625)"/>
       <path id="DejaVuSans-66" d="M 2375 4863 
L 2375 4384 
L 1825 4384 
Q 1516 4384 1395 4259 
Q 1275 4134 1275 3809 
L 1275 3500 
L 2222 3500 
L 2222 3053 
L 1275 3053 
L 1275 0 
L 697 0 
L 697 3053 
L 147 3053 
L 147 3500 
L 697 3500 
L 697 3744 
Q 697 4328 969 4595 
Q 1241 4863 1831 4863 
L 2375 4863 
z
" transform="scale(0.015625)"/>
      </defs>
      <use xlink:href="#DejaVuSans-43"/>
      <use xlink:href="#DejaVuSans-6f" x="69.824219"/>
      <use xlink:href="#DejaVuSans-72" x="131.005859"/>
      <use xlink:href="#DejaVuSans-72" x="170.369141"/>
      <use xlink:href="#DejaVuSans-65" x="209.232422"/>
      <use xlink:href="#DejaVuSans-6c" x="270.755859"/>
      <use xlink:href="#DejaVuSans-61" x="298.539062"/>
      <use xlink:href="#DejaVuSans-74" x="359.818359"/>
      <use xlink:href="#DejaVuSans-69" x="399.027344"/>
      <use xlink:href="#DejaVuSans-6f" x="426.810547"/>
      <use xlink:href="#DejaVuSans-6e" x="487.992188"/>
      <use xlink:href="#DejaVuSans-20" x="551.371094"/>
      <use xlink:href="#DejaVuSans-63" x="583.158203"/>
      <use xlink:href="#DejaVuSans-6f" x="638.138672"/>
      <use xlink:href="#DejaVuSans-65" x="699.320312"/>
      <use xlink:href="#DejaVuSans-66" x="760.84375"/>
      <use xlink:href="#DejaVuSans-66" x="796.048828"/>
      <use xlink:href="#DejaVuSans-69" x="831.253906"/>
      <use xlink:href="#DejaVuSans-63" x="859.037109"/>
      <use xlink:href="#DejaVuSans-69" x="914.017578"/>
      <use xlink:href="#DejaVuSans-65" x="941.800781"/>
      <use xlink:href="#DejaVuSans-6e" x="1003.324219"/>
      <use xlink:href="#DejaVuSans-74" x="1066.703125"/>
     </g>
    </g>
   </g>
   <g id="line2d_13">
    <path d="M 78.938101 392.575789 
L 86.040495 391.315047 
L 93.142889 390.054304 
L 100.245283 388.793562 
L 107.347677 387.532819 
L 114.450071 386.272077 
L 121.552465 385.011334 
L 128.654859 383.750592 
L 135.757253 382.489849 
L 142.859647 381.229106 
L 149.962041 379.968364 
L 157.064435 378.707621 
L 164.166829 377.446879 
L 171.269224 376.186136 
L 178.371618 374.925394 
L 185.474012 373.664651 
L 192.576406 372.403909 
L 199.6788 371.143166 
L 206.781194 369.882423 
L 213.883588 368.621681 
L 220.985982 367.360938 
L 228.088376 366.100196 
L 235.19077 364.839453 
L 242.293164 363.578711 
L 249.395558 362.317968 
L 256.497952 361.057226 
L 263.600346 359.796483 
L 270.702741 358.53574 
L 277.805135 357.274998 
L 284.907529 356.014255 
L 292.009923 354.753513 
L 299.112317 353.49277 
L 306.214711 352.232028 
L 313.317105 350.971285 
L 320.419499 349.710543 
L 327.521893 348.4498 
L 334.624287 347.189057 
L 341.726681 345.928315 
L 348.829075 344.667572 
L 355.931469 343.40683 
L 363.033863 342.146087 
L 370.136258 340.885345 
L 377.238652 339.624602 
L 384.341046 338.36386 
L 391.44344 337.103117 
L 398.545834 335.842374 
L 405.648228 334.581632 
L 412.750622 333.320889 
L 419.853016 332.060147 
L 426.95541 330.799404 
L 434.057804 329.538662 
L 441.160198 328.277919 
L 448.262592 327.017176 
L 455.364986 325.756434 
L 462.46738 324.495691 
L 469.569775 323.234949 
L 476.672169 321.974206 
L 483.774563 320.713464 
L 490.876957 319.452721 
L 497.979351 318.191979 
L 505.081745 316.931236 
L 512.184139 315.670493 
L 519.286533 314.409751 
L 526.388927 313.149008 
L 533.491321 311.888266 
L 540.593715 310.627523 
L 547.696109 309.366781 
L 554.798503 308.106038 
L 561.900897 306.845296 
L 569.003292 305.584553 
L 576.105686 304.32381 
L 583.20808 303.063068 
L 590.310474 301.802325 
L 597.412868 300.541583 
L 604.515262 299.28084 
L 611.617656 298.020098 
L 618.72005 296.759355 
L 625.822444 295.498613 
L 632.924838 294.23787 
L 640.027232 292.977127 
L 647.129626 291.716385 
L 654.23202 290.455642 
L 661.334414 289.1949 
L 668.436809 287.934157 
L 675.539203 286.673415 
L 682.641597 285.412672 
L 689.743991 284.15193 
L 696.846385 282.891187 
L 703.948779 281.630444 
L 711.051173 280.369702 
L 718.153567 279.108959 
L 725.255961 277.848217 
L 732.358355 276.587474 
L 739.460749 275.326732 
L 746.563143 274.065989 
L 753.665537 272.805246 
L 760.767931 271.544504 
L 767.870325 270.283761 
L 774.97272 269.023019 
L 782.075114 267.762276 
" clip-path="url(#p5680e07471)" style="fill: none; stroke: #1f77b4; stroke-width: 2.25; stroke-linecap: square"/>
   </g>
   <g id="line2d_14">
    <path d="M 78.938101 382.798682 
L 86.040495 382.182684 
L 93.142889 381.566686 
L 100.245283 380.950687 
L 107.347677 380.334689 
L 114.450071 379.718691 
L 121.552465 379.102693 
L 128.654859 378.486695 
L 135.757253 377.870696 
L 142.859647 377.254698 
L 149.962041 376.6387 
L 157.064435 376.022702 
L 164.166829 375.406704 
L 171.269224 374.790706 
L 178.371618 374.174707 
L 185.474012 373.558709 
L 192.576406 372.942711 
L 199.6788 372.326713 
L 206.781194 371.710715 
L 213.883588 371.094717 
L 220.985982 370.478718 
L 228.088376 369.86272 
L 235.19077 369.246722 
L 242.293164 368.630724 
L 249.395558 368.014726 
L 256.497952 367.398728 
L 263.600346 366.782729 
L 270.702741 366.166731 
L 277.805135 365.550733 
L 284.907529 364.934735 
L 292.009923 364.318737 
L 299.112317 363.702739 
L 306.214711 363.08674 
L 313.317105 362.470742 
L 320.419499 361.854744 
L 327.521893 361.238746 
L 334.624287 360.622748 
L 341.726681 360.00675 
L 348.829075 359.390751 
L 355.931469 358.774753 
L 363.033863 358.158755 
L 370.136258 357.542757 
L 377.238652 356.926759 
L 384.341046 356.310761 
L 391.44344 355.694762 
L 398.545834 355.078764 
L 405.648228 354.462766 
L 412.750622 353.846768 
L 419.853016 353.23077 
L 426.95541 352.614772 
L 434.057804 351.998773 
L 441.160198 351.382775 
L 448.262592 350.766777 
L 455.364986 350.150779 
L 462.46738 349.534781 
L 469.569775 348.918783 
L 476.672169 348.302784 
L 483.774563 347.686786 
L 490.876957 347.070788 
L 497.979351 346.45479 
L 505.081745 345.838792 
L 512.184139 345.222794 
L 519.286533 344.606795 
L 526.388927 343.990797 
L 533.491321 343.374799 
L 540.593715 342.758801 
L 547.696109 342.142803 
L 554.798503 341.526805 
L 561.900897 340.910806 
L 569.003292 340.294808 
L 576.105686 339.67881 
L 583.20808 339.062812 
L 590.310474 338.446814 
L 597.412868 337.830816 
L 604.515262 337.214817 
L 611.617656 336.598819 
L 618.72005 335.982821 
L 625.822444 335.366823 
L 632.924838 334.750825 
L 640.027232 334.134827 
L 647.129626 333.518828 
L 654.23202 332.90283 
L 661.334414 332.286832 
L 668.436809 331.670834 
L 675.539203 331.054836 
L 682.641597 330.438838 
L 689.743991 329.822839 
L 696.846385 329.206841 
L 703.948779 328.590843 
L 711.051173 327.974845 
L 718.153567 327.358847 
L 725.255961 326.742848 
L 732.358355 326.12685 
L 739.460749 325.510852 
L 746.563143 324.894854 
L 753.665537 324.278856 
L 760.767931 323.662858 
L 767.870325 323.046859 
L 774.97272 322.430861 
L 782.075114 321.814863 
" clip-path="url(#p5680e07471)" style="fill: none; stroke: #ff7f0e; stroke-width: 2.25; stroke-linecap: square"/>
   </g>
   <g id="patch_3">
    <path d="M 43.78125 642.866667 
L 43.78125 151.965714 
" style="fill: none; stroke: #000000; stroke-width: 0.8; stroke-linejoin: miter; stroke-linecap: square"/>
   </g>
   <g id="patch_4">
    <path d="M 43.78125 642.866667 
L 817.231964 642.866667 
" style="fill: none; stroke: #000000; stroke-width: 0.8; stroke-linejoin: miter; stroke-linecap: square"/>
   </g>
   <g id="legend_1">
    <g id="patch_5">
     <path d="M 704.119464 637.866667 
L 810.231964 637.866667 
Q 812.231964 637.866667 812.231964 635.866667 
L 812.231964 607.510417 
Q 812.231964 605.510417 810.231964 605.510417 
L 704.119464 605.510417 
Q 702.119464 605.510417 702.119464 607.510417 
L 702.119464 635.866667 
Q 702.119464 637.866667 704.119464 637.866667 
z
" style="fill: #ffffff; opacity: 0.8; stroke: #cccccc; stroke-linejoin: miter"/>
    </g>
    <g id="PathCollection_3">
     <g>
      <use xlink:href="#m89e8e71b69" x="716.119464" y="614.483854" style="fill: #4169e1; fill-opacity: 0.5; stroke: #000000; stroke-opacity: 0.5"/>
     </g>
    </g>
    <g id="text_15">
     <!-- Codon number -->
     <g transform="translate(734.119464 617.108854) scale(0.1 -0.1)">
      <defs>
       <path id="DejaVuSans-64" d="M 2906 2969 
L 2906 4863 
L 3481 4863 
L 3481 0 
L 2906 0 
L 2906 525 
Q 2725 213 2448 61 
Q 2172 -91 1784 -91 
Q 1150 -91 751 415 
Q 353 922 353 1747 
Q 353 2572 751 3078 
Q 1150 3584 1784 3584 
Q 2172 3584 2448 3432 
Q 2725 3281 2906 2969 
z
M 947 1747 
Q 947 1113 1208 752 
Q 1469 391 1925 391 
Q 2381 391 2643 752 
Q 2906 1113 2906 1747 
Q 2906 2381 2643 2742 
Q 2381 3103 1925 3103 
Q 1469 3103 1208 2742 
Q 947 2381 947 1747 
z
" transform="scale(0.015625)"/>
       <path id="DejaVuSans-75" d="M 544 1381 
L 544 3500 
L 1119 3500 
L 1119 1403 
Q 1119 906 1312 657 
Q 1506 409 1894 409 
Q 2359 409 2629 706 
Q 2900 1003 2900 1516 
L 2900 3500 
L 3475 3500 
L 3475 0 
L 2900 0 
L 2900 538 
Q 2691 219 2414 64 
Q 2138 -91 1772 -91 
Q 1169 -91 856 284 
Q 544 659 544 1381 
z
M 1991 3584 
L 1991 3584 
z
" transform="scale(0.015625)"/>
       <path id="DejaVuSans-6d" d="M 3328 2828 
Q 3544 3216 3844 3400 
Q 4144 3584 4550 3584 
Q 5097 3584 5394 3201 
Q 5691 2819 5691 2113 
L 5691 0 
L 5113 0 
L 5113 2094 
Q 5113 2597 4934 2840 
Q 4756 3084 4391 3084 
Q 3944 3084 3684 2787 
Q 3425 2491 3425 1978 
L 3425 0 
L 2847 0 
L 2847 2094 
Q 2847 2600 2669 2842 
Q 2491 3084 2119 3084 
Q 1678 3084 1418 2786 
Q 1159 2488 1159 1978 
L 1159 0 
L 581 0 
L 581 3500 
L 1159 3500 
L 1159 2956 
Q 1356 3278 1631 3431 
Q 1906 3584 2284 3584 
Q 2666 3584 2933 3390 
Q 3200 3197 3328 2828 
z
" transform="scale(0.015625)"/>
       <path id="DejaVuSans-62" d="M 3116 1747 
Q 3116 2381 2855 2742 
Q 2594 3103 2138 3103 
Q 1681 3103 1420 2742 
Q 1159 2381 1159 1747 
Q 1159 1113 1420 752 
Q 1681 391 2138 391 
Q 2594 391 2855 752 
Q 3116 1113 3116 1747 
z
M 1159 2969 
Q 1341 3281 1617 3432 
Q 1894 3584 2278 3584 
Q 2916 3584 3314 3078 
Q 3713 2572 3713 1747 
Q 3713 922 3314 415 
Q 2916 -91 2278 -91 
Q 1894 -91 1617 61 
Q 1341 213 1159 525 
L 1159 0 
L 581 0 
L 581 4863 
L 1159 4863 
L 1159 2969 
z
" transform="scale(0.015625)"/>
      </defs>
      <use xlink:href="#DejaVuSans-43"/>
      <use xlink:href="#DejaVuSans-6f" x="69.824219"/>
      <use xlink:href="#DejaVuSans-64" x="131.005859"/>
      <use xlink:href="#DejaVuSans-6f" x="194.482422"/>
      <use xlink:href="#DejaVuSans-6e" x="255.664062"/>
      <use xlink:href="#DejaVuSans-20" x="319.042969"/>
      <use xlink:href="#DejaVuSans-6e" x="350.830078"/>
      <use xlink:href="#DejaVuSans-75" x="414.208984"/>
      <use xlink:href="#DejaVuSans-6d" x="477.587891"/>
      <use xlink:href="#DejaVuSans-62" x="575"/>
      <use xlink:href="#DejaVuSans-65" x="638.476562"/>
      <use xlink:href="#DejaVuSans-72" x="700"/>
     </g>
    </g>
    <g id="PathCollection_4">
     <g>
      <use xlink:href="#m1c1a5069c1" x="716.119464" y="629.161979" style="fill: #ff8c00; fill-opacity: 0.5; stroke: #000000; stroke-opacity: 0.5"/>
     </g>
    </g>
    <g id="text_16">
     <!-- Codon+GC -->
     <g transform="translate(734.119464 631.786979) scale(0.1 -0.1)">
      <defs>
       <path id="DejaVuSans-2b" d="M 2944 4013 
L 2944 2272 
L 4684 2272 
L 4684 1741 
L 2944 1741 
L 2944 0 
L 2419 0 
L 2419 1741 
L 678 1741 
L 678 2272 
L 2419 2272 
L 2419 4013 
L 2944 4013 
z
" transform="scale(0.015625)"/>
       <path id="DejaVuSans-47" d="M 3809 666 
L 3809 1919 
L 2778 1919 
L 2778 2438 
L 4434 2438 
L 4434 434 
Q 4069 175 3628 42 
Q 3188 -91 2688 -91 
Q 1594 -91 976 548 
Q 359 1188 359 2328 
Q 359 3472 976 4111 
Q 1594 4750 2688 4750 
Q 3144 4750 3555 4637 
Q 3966 4525 4313 4306 
L 4313 3634 
Q 3963 3931 3569 4081 
Q 3175 4231 2741 4231 
Q 1884 4231 1454 3753 
Q 1025 3275 1025 2328 
Q 1025 1384 1454 906 
Q 1884 428 2741 428 
Q 3075 428 3337 486 
Q 3600 544 3809 666 
z
" transform="scale(0.015625)"/>
      </defs>
      <use xlink:href="#DejaVuSans-43"/>
      <use xlink:href="#DejaVuSans-6f" x="69.824219"/>
      <use xlink:href="#DejaVuSans-64" x="131.005859"/>
      <use xlink:href="#DejaVuSans-6f" x="194.482422"/>
      <use xlink:href="#DejaVuSans-6e" x="255.664062"/>
      <use xlink:href="#DejaVuSans-2b" x="319.042969"/>
      <use xlink:href="#DejaVuSans-47" x="402.832031"/>
      <use xlink:href="#DejaVuSans-43" x="480.322266"/>
     </g>
    </g>
   </g>
  </g>
  <g id="axes_2">
   <g id="patch_6">
    <path d="M 43.78125 135.038095 
L 817.231964 135.038095 
L 817.231964 50.4 
L 43.78125 50.4 
z
" style="fill: #ffffff"/>
   </g>
   <g id="PolyCollection_3">
    <defs>
     <path id="m819227c575" d="M 78.938101 -549.415207 
L 78.938101 -545.384821 
L 112.420816 -545.384821 
L 112.420816 -545.384821 
L 145.90353 -545.384821 
L 145.90353 -545.384821 
L 179.386245 -545.384821 
L 179.386245 -545.384821 
L 212.86896 -545.384821 
L 212.86896 -545.384821 
L 246.351675 -545.384821 
L 246.351675 -545.384821 
L 279.83439 -545.384821 
L 279.83439 -545.384821 
L 313.317105 -545.384821 
L 313.317105 -545.384821 
L 346.79982 -545.384821 
L 346.79982 -545.384821 
L 380.282535 -545.384821 
L 380.282535 -545.384821 
L 413.76525 -545.384821 
L 413.76525 -545.384821 
L 447.247965 -545.384821 
L 447.247965 -545.384821 
L 480.730679 -545.384821 
L 480.730679 -545.384821 
L 514.213394 -545.384821 
L 514.213394 -545.384821 
L 547.696109 -545.384821 
L 547.696109 -545.384821 
L 581.178824 -545.384821 
L 581.178824 -545.384821 
L 614.661539 -545.384821 
L 614.661539 -545.384821 
L 648.144254 -545.384821 
L 648.144254 -545.384821 
L 681.626969 -545.384821 
L 681.626969 -545.384821 
L 715.109684 -545.384821 
L 715.109684 -545.384821 
L 748.592399 -545.384821 
L 748.592399 -545.384821 
L 782.075114 -545.384821 
L 782.075114 -545.384821 
L 782.075114 -549.415207 
L 782.075114 -549.415207 
L 782.075114 -549.415207 
L 748.592399 -549.415207 
L 748.592399 -545.384821 
L 715.109684 -545.384821 
L 715.109684 -545.384821 
L 681.626969 -545.384821 
L 681.626969 -545.384821 
L 648.144254 -545.384821 
L 648.144254 -545.384821 
L 614.661539 -545.384821 
L 614.661539 -549.415207 
L 581.178824 -549.415207 
L 581.178824 -549.415207 
L 547.696109 -549.415207 
L 547.696109 -545.384821 
L 514.213394 -545.384821 
L 514.213394 -549.415207 
L 480.730679 -549.415207 
L 480.730679 -569.567134 
L 447.247965 -569.567134 
L 447.247965 -585.688676 
L 413.76525 -585.688676 
L 413.76525 -625.992531 
L 380.282535 -625.992531 
L 380.282535 -589.719062 
L 346.79982 -589.719062 
L 346.79982 -573.59752 
L 313.317105 -573.59752 
L 313.317105 -553.445592 
L 279.83439 -553.445592 
L 279.83439 -549.415207 
L 246.351675 -549.415207 
L 246.351675 -545.384821 
L 212.86896 -545.384821 
L 212.86896 -565.536749 
L 179.386245 -565.536749 
L 179.386245 -545.384821 
L 145.90353 -545.384821 
L 145.90353 -545.384821 
L 112.420816 -545.384821 
L 112.420816 -549.415207 
L 78.938101 -549.415207 
z
" style="stroke: #000000"/>
    </defs>
    <g clip-path="url(#pe75f7af6e7)">
     <use xlink:href="#m819227c575" x="0" y="680.422917" style="fill: #800080; fill-opacity: 0.75; stroke: #000000"/>
    </g>
   </g>
   <g id="matplotlib.axis_3">
    <g id="xtick_8">
     <g id="line2d_15">
      <g>
       <use xlink:href="#m76b6ea2ed8" x="112.789865" y="135.038095" style="stroke: #000000; stroke-width: 0.8"/>
      </g>
     </g>
    </g>
    <g id="xtick_9">
     <g id="line2d_16">
      <g>
       <use xlink:href="#m76b6ea2ed8" x="219.581185" y="135.038095" style="stroke: #000000; stroke-width: 0.8"/>
      </g>
     </g>
    </g>
    <g id="xtick_10">
     <g id="line2d_17">
      <g>
       <use xlink:href="#m76b6ea2ed8" x="326.372504" y="135.038095" style="stroke: #000000; stroke-width: 0.8"/>
      </g>
     </g>
    </g>
    <g id="xtick_11">
     <g id="line2d_18">
      <g>
       <use xlink:href="#m76b6ea2ed8" x="433.163824" y="135.038095" style="stroke: #000000; stroke-width: 0.8"/>
      </g>
     </g>
    </g>
    <g id="xtick_12">
     <g id="line2d_19">
      <g>
       <use xlink:href="#m76b6ea2ed8" x="539.955143" y="135.038095" style="stroke: #000000; stroke-width: 0.8"/>
      </g>
     </g>
    </g>
    <g id="xtick_13">
     <g id="line2d_20">
      <g>
       <use xlink:href="#m76b6ea2ed8" x="646.746462" y="135.038095" style="stroke: #000000; stroke-width: 0.8"/>
      </g>
     </g>
    </g>
    <g id="xtick_14">
     <g id="line2d_21">
      <g>
       <use xlink:href="#m76b6ea2ed8" x="753.537782" y="135.038095" style="stroke: #000000; stroke-width: 0.8"/>
      </g>
     </g>
    </g>
   </g>
   <g id="matplotlib.axis_4">
    <g id="ytick_6"/>
    <g id="ytick_7"/>
    <g id="ytick_8"/>
   </g>
   <g id="patch_7">
    <path d="M 43.78125 135.038095 
L 817.231964 135.038095 
" style="fill: none; stroke: #000000; stroke-width: 0.8; stroke-linejoin: miter; stroke-linecap: square"/>
   </g>
  </g>
  <g id="axes_3">
   <g id="patch_8">
    <path d="M 843.902679 642.866667 
L 977.25625 642.866667 
L 977.25625 151.965714 
L 843.902679 151.965714 
z
" style="fill: #ffffff"/>
   </g>
   <g id="PolyCollection_4">
    <defs>
     <path id="m1affa1945f" d="M 877.187204 -122.602007 
L 849.964205 -122.602007 
L 849.964205 -122.602007 
L 849.964205 -199.039042 
L 849.964205 -199.039042 
L 849.964205 -275.476077 
L 849.964205 -275.476077 
L 849.964205 -351.913111 
L 849.964205 -351.913111 
L 849.964205 -428.350146 
L 927.096037 -428.350146 
L 927.096037 -428.350146 
L 927.096037 -351.913111 
L 913.484537 -351.913111 
L 913.484537 -275.476077 
L 918.021704 -275.476077 
L 918.021704 -199.039042 
L 918.021704 -199.039042 
L 918.021704 -122.602007 
L 877.187204 -122.602007 
z
" style="stroke: #000000; stroke-opacity: 0.5"/>
    </defs>
    <g clip-path="url(#p77186d899c)">
     <use xlink:href="#m1affa1945f" x="0" y="680.422917" style="fill: #4169e1; fill-opacity: 0.5; stroke: #000000; stroke-opacity: 0.5"/>
    </g>
   </g>
   <g id="PolyCollection_5">
    <defs>
     <path id="me06edd05ad" d="M 863.952341 -59.86993 
L 849.964205 -59.86993 
L 849.964205 -59.86993 
L 849.964205 -134.248862 
L 849.964205 -134.248862 
L 849.964205 -208.627794 
L 849.964205 -208.627794 
L 849.964205 -283.006726 
L 849.964205 -283.006726 
L 849.964205 -357.385658 
L 849.964205 -357.385658 
L 849.964205 -431.764591 
L 877.940478 -431.764591 
L 877.940478 -431.764591 
L 877.940478 -357.385658 
L 971.194724 -357.385658 
L 971.194724 -283.006726 
L 896.591327 -283.006726 
L 896.591327 -208.627794 
L 929.230313 -208.627794 
L 929.230313 -134.248862 
L 873.277766 -134.248862 
L 873.277766 -59.86993 
L 863.952341 -59.86993 
z
" style="stroke: #000000; stroke-opacity: 0.5"/>
    </defs>
    <g clip-path="url(#p77186d899c)">
     <use xlink:href="#me06edd05ad" x="0" y="680.422917" style="fill: #ff8c00; fill-opacity: 0.5; stroke: #000000; stroke-opacity: 0.5"/>
    </g>
   </g>
   <g id="matplotlib.axis_5">
    <g id="xtick_15"/>
    <g id="xtick_16"/>
    <g id="xtick_17"/>
   </g>
   <g id="matplotlib.axis_6">
    <g id="ytick_9">
     <g id="line2d_22">
      <g>
       <use xlink:href="#mf03c667297" x="843.902679" y="564.410309" style="stroke: #000000; stroke-width: 0.8"/>
      </g>
     </g>
    </g>
    <g id="ytick_10">
     <g id="line2d_23">
      <g>
       <use xlink:href="#mf03c667297" x="843.902679" y="471.338685" style="stroke: #000000; stroke-width: 0.8"/>
      </g>
     </g>
    </g>
    <g id="ytick_11">
     <g id="line2d_24">
      <g>
       <use xlink:href="#mf03c667297" x="843.902679" y="378.267061" style="stroke: #000000; stroke-width: 0.8"/>
      </g>
     </g>
    </g>
    <g id="ytick_12">
     <g id="line2d_25">
      <g>
       <use xlink:href="#mf03c667297" x="843.902679" y="285.195437" style="stroke: #000000; stroke-width: 0.8"/>
      </g>
     </g>
    </g>
    <g id="ytick_13">
     <g id="line2d_26">
      <g>
       <use xlink:href="#mf03c667297" x="843.902679" y="192.123813" style="stroke: #000000; stroke-width: 0.8"/>
      </g>
     </g>
    </g>
   </g>
   <g id="patch_9">
    <path d="M 843.902679 642.866667 
L 843.902679 151.965714 
" style="fill: none; stroke: #000000; stroke-width: 0.8; stroke-linejoin: miter; stroke-linecap: square"/>
   </g>
  </g>
  <g id="text_17">
   <!-- Archaea - Kendall's Tau correlation coefficients for genetic code: YM -->
   <g transform="translate(260.888125 16.318125) scale(0.12 -0.12)">
    <defs>
     <path id="DejaVuSans-41" d="M 2188 4044 
L 1331 1722 
L 3047 1722 
L 2188 4044 
z
M 1831 4666 
L 2547 4666 
L 4325 0 
L 3669 0 
L 3244 1197 
L 1141 1197 
L 716 0 
L 50 0 
L 1831 4666 
z
" transform="scale(0.015625)"/>
     <path id="DejaVuSans-4b" d="M 628 4666 
L 1259 4666 
L 1259 2694 
L 3353 4666 
L 4166 4666 
L 1850 2491 
L 4331 0 
L 3500 0 
L 1259 2247 
L 1259 0 
L 628 0 
L 628 4666 
z
" transform="scale(0.015625)"/>
     <path id="DejaVuSans-27" d="M 1147 4666 
L 1147 2931 
L 616 2931 
L 616 4666 
L 1147 4666 
z
" transform="scale(0.015625)"/>
     <path id="DejaVuSans-73" d="M 2834 3397 
L 2834 2853 
Q 2591 2978 2328 3040 
Q 2066 3103 1784 3103 
Q 1356 3103 1142 2972 
Q 928 2841 928 2578 
Q 928 2378 1081 2264 
Q 1234 2150 1697 2047 
L 1894 2003 
Q 2506 1872 2764 1633 
Q 3022 1394 3022 966 
Q 3022 478 2636 193 
Q 2250 -91 1575 -91 
Q 1294 -91 989 -36 
Q 684 19 347 128 
L 347 722 
Q 666 556 975 473 
Q 1284 391 1588 391 
Q 1994 391 2212 530 
Q 2431 669 2431 922 
Q 2431 1156 2273 1281 
Q 2116 1406 1581 1522 
L 1381 1569 
Q 847 1681 609 1914 
Q 372 2147 372 2553 
Q 372 3047 722 3315 
Q 1072 3584 1716 3584 
Q 2034 3584 2315 3537 
Q 2597 3491 2834 3397 
z
" transform="scale(0.015625)"/>
     <path id="DejaVuSans-54" d="M -19 4666 
L 3928 4666 
L 3928 4134 
L 2272 4134 
L 2272 0 
L 1638 0 
L 1638 4134 
L -19 4134 
L -19 4666 
z
" transform="scale(0.015625)"/>
     <path id="DejaVuSans-3a" d="M 750 794 
L 1409 794 
L 1409 0 
L 750 0 
L 750 794 
z
M 750 3309 
L 1409 3309 
L 1409 2516 
L 750 2516 
L 750 3309 
z
" transform="scale(0.015625)"/>
     <path id="DejaVuSans-59" d="M -13 4666 
L 666 4666 
L 1959 2747 
L 3244 4666 
L 3922 4666 
L 2272 2222 
L 2272 0 
L 1638 0 
L 1638 2222 
L -13 4666 
z
" transform="scale(0.015625)"/>
     <path id="DejaVuSans-4d" d="M 628 4666 
L 1569 4666 
L 2759 1491 
L 3956 4666 
L 4897 4666 
L 4897 0 
L 4281 0 
L 4281 4097 
L 3078 897 
L 2444 897 
L 1241 4097 
L 1241 0 
L 628 0 
L 628 4666 
z
" transform="scale(0.015625)"/>
    </defs>
    <use xlink:href="#DejaVuSans-41"/>
    <use xlink:href="#DejaVuSans-72" x="68.408203"/>
    <use xlink:href="#DejaVuSans-63" x="107.271484"/>
    <use xlink:href="#DejaVuSans-68" x="162.251953"/>
    <use xlink:href="#DejaVuSans-61" x="225.630859"/>
    <use xlink:href="#DejaVuSans-65" x="286.910156"/>
    <use xlink:href="#DejaVuSans-61" x="348.433594"/>
    <use xlink:href="#DejaVuSans-20" x="409.712891"/>
    <use xlink:href="#DejaVuSans-2d" x="441.5"/>
    <use xlink:href="#DejaVuSans-20" x="477.583984"/>
    <use xlink:href="#DejaVuSans-4b" x="509.371094"/>
    <use xlink:href="#DejaVuSans-65" x="569.947266"/>
    <use xlink:href="#DejaVuSans-6e" x="631.470703"/>
    <use xlink:href="#DejaVuSans-64" x="694.849609"/>
    <use xlink:href="#DejaVuSans-61" x="758.326172"/>
    <use xlink:href="#DejaVuSans-6c" x="819.605469"/>
    <use xlink:href="#DejaVuSans-6c" x="847.388672"/>
    <use xlink:href="#DejaVuSans-27" x="875.171875"/>
    <use xlink:href="#DejaVuSans-73" x="902.662109"/>
    <use xlink:href="#DejaVuSans-20" x="954.761719"/>
    <use xlink:href="#DejaVuSans-54" x="986.548828"/>
    <use xlink:href="#DejaVuSans-61" x="1031.132812"/>
    <use xlink:href="#DejaVuSans-75" x="1092.412109"/>
    <use xlink:href="#DejaVuSans-20" x="1155.791016"/>
    <use xlink:href="#DejaVuSans-63" x="1187.578125"/>
    <use xlink:href="#DejaVuSans-6f" x="1242.558594"/>
    <use xlink:href="#DejaVuSans-72" x="1303.740234"/>
    <use xlink:href="#DejaVuSans-72" x="1343.103516"/>
    <use xlink:href="#DejaVuSans-65" x="1381.966797"/>
    <use xlink:href="#DejaVuSans-6c" x="1443.490234"/>
    <use xlink:href="#DejaVuSans-61" x="1471.273438"/>
    <use xlink:href="#DejaVuSans-74" x="1532.552734"/>
    <use xlink:href="#DejaVuSans-69" x="1571.761719"/>
    <use xlink:href="#DejaVuSans-6f" x="1599.544922"/>
    <use xlink:href="#DejaVuSans-6e" x="1660.726562"/>
    <use xlink:href="#DejaVuSans-20" x="1724.105469"/>
    <use xlink:href="#DejaVuSans-63" x="1755.892578"/>
    <use xlink:href="#DejaVuSans-6f" x="1810.873047"/>
    <use xlink:href="#DejaVuSans-65" x="1872.054688"/>
    <use xlink:href="#DejaVuSans-66" x="1933.578125"/>
    <use xlink:href="#DejaVuSans-66" x="1968.783203"/>
    <use xlink:href="#DejaVuSans-69" x="2003.988281"/>
    <use xlink:href="#DejaVuSans-63" x="2031.771484"/>
    <use xlink:href="#DejaVuSans-69" x="2086.751953"/>
    <use xlink:href="#DejaVuSans-65" x="2114.535156"/>
    <use xlink:href="#DejaVuSans-6e" x="2176.058594"/>
    <use xlink:href="#DejaVuSans-74" x="2239.4375"/>
    <use xlink:href="#DejaVuSans-73" x="2278.646484"/>
    <use xlink:href="#DejaVuSans-20" x="2330.746094"/>
    <use xlink:href="#DejaVuSans-66" x="2362.533203"/>
    <use xlink:href="#DejaVuSans-6f" x="2397.738281"/>
    <use xlink:href="#DejaVuSans-72" x="2458.919922"/>
    <use xlink:href="#DejaVuSans-20" x="2500.033203"/>
    <use xlink:href="#DejaVuSans-67" x="2531.820312"/>
    <use xlink:href="#DejaVuSans-65" x="2595.296875"/>
    <use xlink:href="#DejaVuSans-6e" x="2656.820312"/>
    <use xlink:href="#DejaVuSans-65" x="2720.199219"/>
    <use xlink:href="#DejaVuSans-74" x="2781.722656"/>
    <use xlink:href="#DejaVuSans-69" x="2820.931641"/>
    <use xlink:href="#DejaVuSans-63" x="2848.714844"/>
    <use xlink:href="#DejaVuSans-20" x="2903.695312"/>
    <use xlink:href="#DejaVuSans-63" x="2935.482422"/>
    <use xlink:href="#DejaVuSans-6f" x="2990.462891"/>
    <use xlink:href="#DejaVuSans-64" x="3051.644531"/>
    <use xlink:href="#DejaVuSans-65" x="3115.121094"/>
    <use xlink:href="#DejaVuSans-3a" x="3176.644531"/>
    <use xlink:href="#DejaVuSans-20" x="3210.335938"/>
    <use xlink:href="#DejaVuSans-59" x="3242.123047"/>
    <use xlink:href="#DejaVuSans-4d" x="3303.207031"/>
   </g>
  </g>
 </g>
 <defs>
  <clipPath id="p5680e07471">
   <rect x="43.78125" y="151.965714" width="773.450714" height="490.900952"/>
  </clipPath>
  <clipPath id="pe75f7af6e7">
   <rect x="43.78125" y="50.4" width="773.450714" height="84.638095"/>
  </clipPath>
  <clipPath id="p77186d899c">
   <rect x="843.902679" y="151.965714" width="133.353571" height="490.900952"/>
  </clipPath>
 </defs>
</svg>
