<?xml version="1.0" encoding="utf-8" standalone="no"?>
<!DOCTYPE svg PUBLIC "-//W3C//DTD SVG 1.1//EN"
  "http://www.w3.org/Graphics/SVG/1.1/DTD/svg11.dtd">
<svg xmlns:xlink="http://www.w3.org/1999/xlink" width="572.4pt" height="564.071878pt" viewBox="0 0 572.4 564.071878" xmlns="http://www.w3.org/2000/svg" version="1.1">
 <metadata>
  <rdf:RDF xmlns:dc="http://purl.org/dc/elements/1.1/" xmlns:cc="http://creativecommons.org/ns#" xmlns:rdf="http://www.w3.org/1999/02/22-rdf-syntax-ns#">
   <cc:Work>
    <dc:type rdf:resource="http://purl.org/dc/dcmitype/StillImage"/>
    <dc:date>2024-08-01T13:57:17.080232</dc:date>
    <dc:format>image/svg+xml</dc:format>
    <dc:creator>
     <cc:Agent>
      <dc:title>Matplotlib v3.8.3, https://matplotlib.org/</dc:title>
     </cc:Agent>
    </dc:creator>
   </cc:Work>
  </rdf:RDF>
 </metadata>
 <defs>
  <style type="text/css">*{stroke-linejoin: round; stroke-linecap: butt}</style>
 </defs>
 <g id="figure_1">
  <g id="patch_1">
   <path d="M 0 564.071878 
L 572.4 564.071878 
L 572.4 0 
L 0 0 
z
" style="fill: #ffffff"/>
  </g>
  <g id="axes_1">
   <g id="patch_2">
    <path d="M 7.2 556.871878 
L 565.2 556.871878 
L 565.2 7.2 
L 7.2 7.2 
z
" style="fill: #ffffff"/>
   </g>
   <g id="patch_3">
    <path d="M 79.927242 290.034208 
Q 106.853801 355.040658 133.352507 419.014179 
" clip-path="url(#p00c97ce035)" style="fill: none; stroke: #000000; stroke-linecap: round"/>
    <path d="M 133.669532 414.553294 
L 133.352507 419.014179 
L 129.974014 416.084028 
z
" clip-path="url(#p00c97ce035)" style="stroke: #000000; stroke-linecap: round"/>
   </g>
   <g id="patch_4">
    <path d="M 82.736188 288.157887 
Q 179.857444 385.279133 276.188131 481.609811 
" clip-path="url(#p00c97ce035)" style="fill: none; stroke: #000000; stroke-linecap: round"/>
    <path d="M 274.773917 477.36717 
L 276.188131 481.609811 
L 271.94549 480.195597 
z
" clip-path="url(#p00c97ce035)" style="stroke: #000000; stroke-linecap: round"/>
   </g>
   <g id="patch_5">
    <path d="M 84.615055 285.349994 
Q 252.861885 355.040071 420.075787 424.302294 
" clip-path="url(#p00c97ce035)" style="fill: none; stroke: #000000; stroke-linecap: round"/>
    <path d="M 417.145635 420.923802 
L 420.075787 424.302294 
L 415.614902 424.619321 
z
" clip-path="url(#p00c97ce035)" style="stroke: #000000; stroke-linecap: round"/>
   </g>
   <g id="patch_6">
    <path d="M 85.275701 282.035956 
Q 283.10394 282.03593 479.814145 282.035905 
" clip-path="url(#p00c97ce035)" style="fill: none; stroke: #000000; stroke-linecap: round"/>
    <path d="M 475.814144 280.035905 
L 479.814145 282.035905 
L 475.814145 284.035905 
z
" clip-path="url(#p00c97ce035)" style="stroke: #000000; stroke-linecap: round"/>
   </g>
   <g id="patch_7">
    <path d="M 84.615054 278.721919 
Q 252.861861 209.031802 420.075739 139.769538 
" clip-path="url(#p00c97ce035)" style="fill: none; stroke: #000000; stroke-linecap: round"/>
    <path d="M 415.614854 139.452512 
L 420.075739 139.769538 
L 417.145588 143.148031 
z
" clip-path="url(#p00c97ce035)" style="stroke: #000000; stroke-linecap: round"/>
   </g>
   <g id="patch_8">
    <path d="M 82.736185 275.914027 
Q 179.857408 178.792764 276.188061 82.46207 
" clip-path="url(#p00c97ce035)" style="fill: none; stroke: #000000; stroke-linecap: round"/>
    <path d="M 271.945421 83.876284 
L 276.188061 82.46207 
L 274.773848 86.704711 
z
" clip-path="url(#p00c97ce035)" style="stroke: #000000; stroke-linecap: round"/>
   </g>
   <g id="patch_9">
    <path d="M 79.927244 274.037704 
Q 106.853814 209.031227 133.35253 145.057679 
" clip-path="url(#p00c97ce035)" style="fill: none; stroke: #000000; stroke-linecap: round"/>
    <path d="M 129.974037 147.98783 
L 133.35253 145.057679 
L 133.669556 149.518564 
z
" clip-path="url(#p00c97ce035)" style="stroke: #000000; stroke-linecap: round"/>
   </g>
   <g id="text_1">
    <g id="patch_10">
     <path d="M 94.741805 346.284171 
L 104.4811 369.796904 
Q 105.62915 372.568543 108.400789 371.420492 
L 117.34221 367.716834 
Q 120.113849 366.568783 118.965798 363.797145 
L 109.226503 340.284411 
Q 108.078452 337.512773 105.306814 338.660823 
L 96.365393 342.364482 
Q 93.593754 343.512533 94.741805 346.284171 
z
" clip-path="url(#p00c97ce035)" style="fill: #ffffff; stroke: #ffffff; stroke-linejoin: miter"/>
    </g>
    <g clip-path="url(#p00c97ce035)">
     <!-- 1362 -->
     <g transform="translate(99.434824 344.340258) rotate(-292.500004) scale(0.1 -0.1)">
      <defs>
       <path id="DejaVuSans-31" d="M 794 531 
L 1825 531 
L 1825 4091 
L 703 3866 
L 703 4441 
L 1819 4666 
L 2450 4666 
L 2450 531 
L 3481 531 
L 3481 0 
L 794 0 
L 794 531 
z
" transform="scale(0.015625)"/>
       <path id="DejaVuSans-33" d="M 2597 2516 
Q 3050 2419 3304 2112 
Q 3559 1806 3559 1356 
Q 3559 666 3084 287 
Q 2609 -91 1734 -91 
Q 1441 -91 1130 -33 
Q 819 25 488 141 
L 488 750 
Q 750 597 1062 519 
Q 1375 441 1716 441 
Q 2309 441 2620 675 
Q 2931 909 2931 1356 
Q 2931 1769 2642 2001 
Q 2353 2234 1838 2234 
L 1294 2234 
L 1294 2753 
L 1863 2753 
Q 2328 2753 2575 2939 
Q 2822 3125 2822 3475 
Q 2822 3834 2567 4026 
Q 2313 4219 1838 4219 
Q 1578 4219 1281 4162 
Q 984 4106 628 3988 
L 628 4550 
Q 988 4650 1302 4700 
Q 1616 4750 1894 4750 
Q 2613 4750 3031 4423 
Q 3450 4097 3450 3541 
Q 3450 3153 3228 2886 
Q 3006 2619 2597 2516 
z
" transform="scale(0.015625)"/>
       <path id="DejaVuSans-36" d="M 2113 2584 
Q 1688 2584 1439 2293 
Q 1191 2003 1191 1497 
Q 1191 994 1439 701 
Q 1688 409 2113 409 
Q 2538 409 2786 701 
Q 3034 994 3034 1497 
Q 3034 2003 2786 2293 
Q 2538 2584 2113 2584 
z
M 3366 4563 
L 3366 3988 
Q 3128 4100 2886 4159 
Q 2644 4219 2406 4219 
Q 1781 4219 1451 3797 
Q 1122 3375 1075 2522 
Q 1259 2794 1537 2939 
Q 1816 3084 2150 3084 
Q 2853 3084 3261 2657 
Q 3669 2231 3669 1497 
Q 3669 778 3244 343 
Q 2819 -91 2113 -91 
Q 1303 -91 875 529 
Q 447 1150 447 2328 
Q 447 3434 972 4092 
Q 1497 4750 2381 4750 
Q 2619 4750 2861 4703 
Q 3103 4656 3366 4563 
z
" transform="scale(0.015625)"/>
       <path id="DejaVuSans-32" d="M 1228 531 
L 3431 531 
L 3431 0 
L 469 0 
L 469 531 
Q 828 903 1448 1529 
Q 2069 2156 2228 2338 
Q 2531 2678 2651 2914 
Q 2772 3150 2772 3378 
Q 2772 3750 2511 3984 
Q 2250 4219 1831 4219 
Q 1534 4219 1204 4116 
Q 875 4013 500 3803 
L 500 4441 
Q 881 4594 1212 4672 
Q 1544 4750 1819 4750 
Q 2544 4750 2975 4387 
Q 3406 4025 3406 3419 
Q 3406 3131 3298 2873 
Q 3191 2616 2906 2266 
Q 2828 2175 2409 1742 
Q 1991 1309 1228 531 
z
" transform="scale(0.015625)"/>
      </defs>
      <use xlink:href="#DejaVuSans-31"/>
      <use xlink:href="#DejaVuSans-33" x="63.623047"/>
      <use xlink:href="#DejaVuSans-36" x="127.246094"/>
      <use xlink:href="#DejaVuSans-32" x="190.869141"/>
     </g>
    </g>
   </g>
   <g id="text_2">
    <g id="patch_11">
     <path d="M 160.817489 377.325288 
L 187.811291 404.319088 
Q 189.932612 406.440408 192.053932 404.319088 
L 198.897399 397.47562 
Q 201.01872 395.354299 198.897399 393.232979 
L 171.903597 366.239179 
Q 169.782276 364.117859 167.660956 366.239179 
L 160.817488 373.082647 
Q 158.696168 375.203968 160.817489 377.325288 
z
" clip-path="url(#p00c97ce035)" style="fill: #ffffff; stroke: #ffffff; stroke-linejoin: miter"/>
    </g>
    <g clip-path="url(#p00c97ce035)">
     <!-- 669337 -->
     <g transform="translate(164.40937 373.733406) rotate(-315.000003) scale(0.1 -0.1)">
      <defs>
       <path id="DejaVuSans-39" d="M 703 97 
L 703 672 
Q 941 559 1184 500 
Q 1428 441 1663 441 
Q 2288 441 2617 861 
Q 2947 1281 2994 2138 
Q 2813 1869 2534 1725 
Q 2256 1581 1919 1581 
Q 1219 1581 811 2004 
Q 403 2428 403 3163 
Q 403 3881 828 4315 
Q 1253 4750 1959 4750 
Q 2769 4750 3195 4129 
Q 3622 3509 3622 2328 
Q 3622 1225 3098 567 
Q 2575 -91 1691 -91 
Q 1453 -91 1209 -44 
Q 966 3 703 97 
z
M 1959 2075 
Q 2384 2075 2632 2365 
Q 2881 2656 2881 3163 
Q 2881 3666 2632 3958 
Q 2384 4250 1959 4250 
Q 1534 4250 1286 3958 
Q 1038 3666 1038 3163 
Q 1038 2656 1286 2365 
Q 1534 2075 1959 2075 
z
" transform="scale(0.015625)"/>
       <path id="DejaVuSans-37" d="M 525 4666 
L 3525 4666 
L 3525 4397 
L 1831 0 
L 1172 0 
L 2766 4134 
L 525 4134 
L 525 4666 
z
" transform="scale(0.015625)"/>
      </defs>
      <use xlink:href="#DejaVuSans-36"/>
      <use xlink:href="#DejaVuSans-36" x="63.623047"/>
      <use xlink:href="#DejaVuSans-39" x="127.246094"/>
      <use xlink:href="#DejaVuSans-33" x="190.869141"/>
      <use xlink:href="#DejaVuSans-33" x="254.492188"/>
      <use xlink:href="#DejaVuSans-37" x="318.115234"/>
     </g>
    </g>
   </g>
   <g id="text_3">
    <g id="patch_12">
     <path d="M 232.227456 354.977954 
L 267.49656 369.586887 
Q 270.268199 370.734937 271.416248 367.963298 
L 275.119905 359.021875 
Q 276.267954 356.250237 273.496315 355.102187 
L 238.227211 340.493254 
Q 235.455572 339.345205 234.307523 342.116844 
L 230.603866 351.058266 
Q 229.455817 353.829905 232.227456 354.977954 
z
" clip-path="url(#p00c97ce035)" style="fill: #ffffff; stroke: #ffffff; stroke-linejoin: miter"/>
    </g>
    <g clip-path="url(#p00c97ce035)">
     <!-- 401613 -->
     <g transform="translate(234.171367 350.284935) rotate(-337.500012) scale(0.1 -0.1)">
      <defs>
       <path id="DejaVuSans-34" d="M 2419 4116 
L 825 1625 
L 2419 1625 
L 2419 4116 
z
M 2253 4666 
L 3047 4666 
L 3047 1625 
L 3713 1625 
L 3713 1100 
L 3047 1100 
L 3047 0 
L 2419 0 
L 2419 1100 
L 313 1100 
L 313 1709 
L 2253 4666 
z
" transform="scale(0.015625)"/>
       <path id="DejaVuSans-30" d="M 2034 4250 
Q 1547 4250 1301 3770 
Q 1056 3291 1056 2328 
Q 1056 1369 1301 889 
Q 1547 409 2034 409 
Q 2525 409 2770 889 
Q 3016 1369 3016 2328 
Q 3016 3291 2770 3770 
Q 2525 4250 2034 4250 
z
M 2034 4750 
Q 2819 4750 3233 4129 
Q 3647 3509 3647 2328 
Q 3647 1150 3233 529 
Q 2819 -91 2034 -91 
Q 1250 -91 836 529 
Q 422 1150 422 2328 
Q 422 3509 836 4129 
Q 1250 4750 2034 4750 
z
" transform="scale(0.015625)"/>
      </defs>
      <use xlink:href="#DejaVuSans-34"/>
      <use xlink:href="#DejaVuSans-30" x="63.623047"/>
      <use xlink:href="#DejaVuSans-31" x="127.246094"/>
      <use xlink:href="#DejaVuSans-36" x="190.869141"/>
      <use xlink:href="#DejaVuSans-31" x="254.492188"/>
      <use xlink:href="#DejaVuSans-33" x="318.115234"/>
     </g>
    </g>
   </g>
   <g id="text_4">
    <g id="patch_13">
     <path d="M 264.016441 289.874995 
L 302.191441 289.87499 
Q 305.191441 289.87499 305.191441 286.87499 
L 305.191439 277.196865 
Q 305.191439 274.196865 302.191439 274.196865 
L 264.016439 274.19687 
Q 261.016439 274.196871 261.016439 277.196871 
L 261.016441 286.874996 
Q 261.016441 289.874996 264.016441 289.874995 
z
" clip-path="url(#p00c97ce035)" style="fill: #ffffff; stroke: #ffffff; stroke-linejoin: miter"/>
    </g>
    <g clip-path="url(#p00c97ce035)">
     <!-- 774431 -->
     <g transform="translate(264.01644 284.795308) rotate(-0.000008) scale(0.1 -0.1)">
      <use xlink:href="#DejaVuSans-37"/>
      <use xlink:href="#DejaVuSans-37" x="63.623047"/>
      <use xlink:href="#DejaVuSans-34" x="127.246094"/>
      <use xlink:href="#DejaVuSans-34" x="190.869141"/>
      <use xlink:href="#DejaVuSans-33" x="254.492188"/>
      <use xlink:href="#DejaVuSans-31" x="318.115234"/>
     </g>
    </g>
   </g>
   <g id="text_5">
    <g id="patch_14">
     <path d="M 238.22719 223.578622 
L 273.496291 208.96968 
Q 276.267929 207.82163 275.119879 205.049991 
L 271.41622 196.10857 
Q 270.26817 193.336931 267.496531 194.484982 
L 232.227431 209.093923 
Q 229.455792 210.241974 230.603843 213.013612 
L 234.307501 221.955034 
Q 235.455552 224.726672 238.22719 223.578622 
z
" clip-path="url(#p00c97ce035)" style="fill: #ffffff; stroke: #ffffff; stroke-linejoin: miter"/>
    </g>
    <g clip-path="url(#p00c97ce035)">
     <!-- 754293 -->
     <g transform="translate(236.283278 218.885602) rotate(-22.500002) scale(0.1 -0.1)">
      <defs>
       <path id="DejaVuSans-35" d="M 691 4666 
L 3169 4666 
L 3169 4134 
L 1269 4134 
L 1269 2991 
Q 1406 3038 1543 3061 
Q 1681 3084 1819 3084 
Q 2600 3084 3056 2656 
Q 3513 2228 3513 1497 
Q 3513 744 3044 326 
Q 2575 -91 1722 -91 
Q 1428 -91 1123 -41 
Q 819 9 494 109 
L 494 744 
Q 775 591 1075 516 
Q 1375 441 1709 441 
Q 2250 441 2565 725 
Q 2881 1009 2881 1497 
Q 2881 1984 2565 2268 
Q 2250 2553 1709 2553 
Q 1456 2553 1204 2497 
Q 953 2441 691 2322 
L 691 4666 
z
" transform="scale(0.015625)"/>
      </defs>
      <use xlink:href="#DejaVuSans-37"/>
      <use xlink:href="#DejaVuSans-35" x="63.623047"/>
      <use xlink:href="#DejaVuSans-34" x="127.246094"/>
      <use xlink:href="#DejaVuSans-32" x="190.869141"/>
      <use xlink:href="#DejaVuSans-39" x="254.492188"/>
      <use xlink:href="#DejaVuSans-33" x="318.115234"/>
     </g>
    </g>
   </g>
   <g id="text_6">
    <g id="patch_15">
     <path d="M 180.901497 188.834785 
L 189.899429 179.836849 
Q 192.020749 177.715528 189.899428 175.594208 
L 183.055959 168.750742 
Q 180.934638 166.629422 178.813318 168.750743 
L 169.815386 177.748678 
Q 167.694067 179.869999 169.815387 181.991319 
L 176.658857 188.834785 
Q 178.780177 190.956105 180.901497 188.834785 
z
" clip-path="url(#p00c97ce035)" style="fill: #ffffff; stroke: #ffffff; stroke-linejoin: miter"/>
    </g>
    <g clip-path="url(#p00c97ce035)">
     <!-- 57 -->
     <g transform="translate(177.309615 185.242904) rotate(-45.000012) scale(0.1 -0.1)">
      <use xlink:href="#DejaVuSans-35"/>
      <use xlink:href="#DejaVuSans-37" x="63.623047"/>
     </g>
    </g>
   </g>
   <g id="text_7">
    <g id="patch_16">
     <path d="M 111.661339 217.90929 
L 116.530987 206.152923 
Q 117.679037 203.381285 114.907399 202.233234 
L 105.965977 198.529576 
Q 103.194339 197.381525 102.046288 200.153164 
L 97.176641 211.90953 
Q 96.02859 214.681169 98.800229 215.829219 
L 107.74165 219.532878 
Q 110.513289 220.680929 111.661339 217.90929 
z
" clip-path="url(#p00c97ce035)" style="fill: #ffffff; stroke: #ffffff; stroke-linejoin: miter"/>
    </g>
    <g clip-path="url(#p00c97ce035)">
     <!-- 34 -->
     <g transform="translate(106.96832 215.965377) rotate(-67.499996) scale(0.1 -0.1)">
      <use xlink:href="#DejaVuSans-33"/>
      <use xlink:href="#DejaVuSans-34" x="63.623047"/>
     </g>
    </g>
   </g>
   <g id="patch_17">
    <path d="M 76.614258 254.504183 
C 70.850328 254.504183 65.229391 256.314249 60.548564 259.677691 
C 55.867737 263.041133 52.359265 267.79107 50.520693 273.253903 
C 48.682121 278.716735 48.604672 284.621418 50.299329 290.130594 
C 51.993986 295.63977 55.376667 300.480095 59.967665 303.965152 
L 76.614258 282.035958 
z
" style="fill: #0000ff"/>
   </g>
   <g id="patch_18">
    <path d="M 59.967665 303.965152 
C 63.447591 306.606786 67.506847 308.382528 71.808776 309.145106 
C 76.110705 309.907684 80.532999 309.635418 84.708894 308.350886 
C 88.884789 307.066355 92.69556 304.80608 95.825158 301.757517 
C 98.954757 298.708955 101.314205 294.958779 102.707822 290.818012 
C 104.10144 286.677246 104.489604 282.263614 103.840121 277.943164 
C 103.190639 273.622713 101.521976 269.518279 98.972524 265.970263 
C 96.423072 262.422248 93.065314 259.531525 89.177728 257.537838 
C 85.290141 255.544152 80.983253 254.504183 76.614258 254.504183 
L 76.614258 282.035958 
z
" style="fill: #ff0000"/>
   </g>
   <g id="matplotlib.axis_1">
    <g id="xtick_1"/>
    <g id="xtick_2"/>
    <g id="xtick_3"/>
    <g id="xtick_4"/>
    <g id="xtick_5"/>
    <g id="xtick_6"/>
    <g id="xtick_7"/>
    <g id="xtick_8"/>
    <g id="xtick_9"/>
   </g>
   <g id="matplotlib.axis_2">
    <g id="ytick_1"/>
    <g id="ytick_2"/>
    <g id="ytick_3"/>
    <g id="ytick_4"/>
    <g id="ytick_5"/>
    <g id="ytick_6"/>
    <g id="ytick_7"/>
   </g>
   <g id="PathCollection_1">
    <path d="M 76.614258 297.847346 
C 80.807487 297.847346 84.829537 296.181358 87.794598 293.216297 
C 90.759659 290.251237 92.425646 286.229187 92.425646 282.035958 
C 92.425646 277.842728 90.759659 273.820678 87.794598 270.855618 
C 84.829537 267.890557 80.807487 266.224569 76.614258 266.224569 
C 72.421029 266.224569 68.398979 267.890557 65.433918 270.855618 
C 62.468857 273.820678 60.80287 277.842728 60.80287 282.035958 
C 60.80287 286.229187 62.468857 290.251237 65.433918 293.216297 
C 68.398979 296.181358 72.421029 297.847346 76.614258 297.847346 
z
" clip-path="url(#p00c97ce035)" style="fill: #87ceeb; stroke: #000000"/>
    <path d="M 137.093298 443.978182 
C 141.318762 443.978182 145.371731 442.299387 148.359586 439.311533 
C 151.34744 436.323678 153.026235 432.270709 153.026235 428.045245 
C 153.026235 423.819781 151.34744 419.766811 148.359586 416.778957 
C 145.371731 413.791103 141.318762 412.112308 137.093298 412.112308 
C 132.867834 412.112308 128.814865 413.791103 125.82701 416.778957 
C 122.839156 419.766811 121.160361 423.819781 121.160361 428.045245 
C 121.160361 432.270709 122.839156 436.323678 125.82701 439.311533 
C 128.814865 442.299387 132.867834 443.978182 137.093298 443.978182 
z
" clip-path="url(#p00c97ce035)" style="fill: #90ee90; stroke: #000000"/>
    <path d="M 283.102569 535.371348 
C 295.526565 535.371348 307.443379 530.435242 316.228471 521.65015 
C 325.013563 512.865058 329.949669 500.948244 329.949669 488.524248 
C 329.949669 476.100252 325.013563 464.183438 316.228471 455.398346 
C 307.443379 446.613254 295.526565 441.677148 283.102569 441.677148 
C 270.678573 441.677148 258.761759 446.613254 249.976667 455.398346 
C 241.191575 464.183438 236.255469 476.100252 236.255469 488.524248 
C 236.255469 500.948244 241.191575 512.865058 249.976667 521.65015 
C 258.761759 530.435242 270.678573 535.371348 283.102569 535.371348 
z
" clip-path="url(#p00c97ce035)" style="fill: #90ee90; stroke: #000000"/>
    <path d="M 429.111897 465.68534 
C 439.094186 465.68534 448.668971 461.719335 455.727516 454.66079 
C 462.78606 447.602245 466.752066 438.027461 466.752066 428.045171 
C 466.752066 418.062881 462.78606 408.488097 455.727516 401.429552 
C 448.668971 394.371007 439.094186 390.405002 429.111897 390.405002 
C 419.129607 390.405002 409.554822 394.371007 402.496278 401.429552 
C 395.437733 408.488097 391.471727 418.062881 391.471727 428.045171 
C 391.471727 438.027461 395.437733 447.602245 402.496278 454.66079 
C 409.554822 461.719335 419.129607 465.68534 429.111897 465.68534 
z
" clip-path="url(#p00c97ce035)" style="fill: #90ee90; stroke: #000000"/>
    <path d="M 489.590875 332.035903 
C 502.85103 332.035903 515.569869 326.767588 524.946214 317.391242 
C 534.32256 308.014897 539.590875 295.296058 539.590875 282.035903 
C 539.590875 268.775748 534.32256 256.05691 524.946214 246.680564 
C 515.569869 237.304219 502.85103 232.035903 489.590875 232.035903 
C 476.33072 232.035903 463.611882 237.304219 454.235536 246.680564 
C 444.859191 256.05691 439.590875 268.775748 439.590875 282.035903 
C 439.590875 295.296058 444.859191 308.014897 454.235536 317.391242 
C 463.611882 326.767588 476.33072 332.035903 489.590875 332.035903 
z
" clip-path="url(#p00c97ce035)" style="fill: #90ee90; stroke: #000000"/>
    <path d="M 429.111847 185.438088 
C 442.215911 185.438088 454.785031 180.231788 464.051004 170.965815 
C 473.316976 161.699843 478.523276 149.130723 478.523276 136.026659 
C 478.523276 122.922595 473.316976 110.353475 464.051004 101.087502 
C 454.785031 91.82153 442.215911 86.61523 429.111847 86.61523 
C 416.007783 86.61523 403.438663 91.82153 394.172691 101.087502 
C 384.906718 110.353475 379.700418 122.922595 379.700418 136.026659 
C 379.700418 149.130723 384.906718 161.699843 394.172691 170.965815 
C 403.438663 180.231788 416.007783 185.438088 429.111847 185.438088 
z
" clip-path="url(#p00c97ce035)" style="fill: #90ee90; stroke: #000000"/>
    <path d="M 283.102497 91.361132 
C 287.296286 91.361132 291.318874 89.694922 294.284331 86.729465 
C 297.249788 83.764008 298.915998 79.74142 298.915998 75.547631 
C 298.915998 71.353841 297.249788 67.331254 294.284331 64.365797 
C 291.318874 61.40034 287.296286 59.734129 283.102497 59.734129 
C 278.908707 59.734129 274.88612 61.40034 271.920663 64.365797 
C 268.955206 67.331254 267.288995 71.353841 267.288995 75.547631 
C 267.288995 79.74142 268.955206 83.764008 271.920663 86.729465 
C 274.88612 89.694922 278.908707 91.361132 283.102497 91.361132 
z
" clip-path="url(#p00c97ce035)" style="fill: #90ee90; stroke: #000000"/>
    <path d="M 137.093323 151.837998 
C 141.286552 151.837998 145.308602 150.17201 148.273663 147.206949 
C 151.238723 144.241889 152.904711 140.219839 152.904711 136.026609 
C 152.904711 131.83338 151.238723 127.81133 148.273663 124.84627 
C 145.308602 121.881209 141.286552 120.215221 137.093323 120.215221 
C 132.900093 120.215221 128.878044 121.881209 125.912983 124.84627 
C 122.947922 127.81133 121.281934 131.83338 121.281934 136.026609 
C 121.281934 140.219839 122.947922 144.241889 125.912983 147.206949 
C 128.878044 150.17201 132.900093 151.837998 137.093323 151.837998 
z
" clip-path="url(#p00c97ce035)" style="fill: #90ee90; stroke: #000000"/>
   </g>
   <g id="patch_19">
    <path d="M 7.2 556.871878 
L 7.2 7.2 
" style="fill: none; stroke: #000000; stroke-width: 0.8; stroke-linejoin: miter; stroke-linecap: square"/>
   </g>
   <g id="patch_20">
    <path d="M 565.2 556.871878 
L 565.2 7.2 
" style="fill: none; stroke: #000000; stroke-width: 0.8; stroke-linejoin: miter; stroke-linecap: square"/>
   </g>
   <g id="patch_21">
    <path d="M 7.2 556.871878 
L 565.2 556.871878 
" style="fill: none; stroke: #000000; stroke-width: 0.8; stroke-linejoin: miter; stroke-linecap: square"/>
   </g>
   <g id="patch_22">
    <path d="M 7.2 7.2 
L 565.2 7.2 
" style="fill: none; stroke: #000000; stroke-width: 0.8; stroke-linejoin: miter; stroke-linecap: square"/>
   </g>
   <g id="text_8">
    <g clip-path="url(#p00c97ce035)">
     <!-- $\mathbf{G}$ -->
     <g transform="translate(71.634258 285.347208) scale(0.12 -0.12)">
      <defs>
       <path id="DejaVuSans-Bold-47" d="M 4781 347 
Q 4331 128 3847 18 
Q 3363 -91 2847 -91 
Q 1681 -91 1000 561 
Q 319 1213 319 2328 
Q 319 3456 1012 4103 
Q 1706 4750 2913 4750 
Q 3378 4750 3804 4662 
Q 4231 4575 4609 4403 
L 4609 3438 
Q 4219 3659 3833 3768 
Q 3447 3878 3059 3878 
Q 2341 3878 1952 3476 
Q 1563 3075 1563 2328 
Q 1563 1588 1938 1184 
Q 2313 781 3003 781 
Q 3191 781 3352 804 
Q 3513 828 3641 878 
L 3641 1784 
L 2906 1784 
L 2906 2591 
L 4781 2591 
L 4781 347 
z
" transform="scale(0.015625)"/>
      </defs>
      <use xlink:href="#DejaVuSans-Bold-47" transform="translate(0 0.78125)"/>
     </g>
    </g>
   </g>
   <g id="text_9">
    <g clip-path="url(#p00c97ce035)">
     <!-- NCC -->
     <g transform="translate(124.225173 431.356495) scale(0.12 -0.12)">
      <defs>
       <path id="DejaVuSans-4e" d="M 628 4666 
L 1478 4666 
L 3547 763 
L 3547 4666 
L 4159 4666 
L 4159 0 
L 3309 0 
L 1241 3903 
L 1241 0 
L 628 0 
L 628 4666 
z
" transform="scale(0.015625)"/>
       <path id="DejaVuSans-43" d="M 4122 4306 
L 4122 3641 
Q 3803 3938 3442 4084 
Q 3081 4231 2675 4231 
Q 1875 4231 1450 3742 
Q 1025 3253 1025 2328 
Q 1025 1406 1450 917 
Q 1875 428 2675 428 
Q 3081 428 3442 575 
Q 3803 722 4122 1019 
L 4122 359 
Q 3791 134 3420 21 
Q 3050 -91 2638 -91 
Q 1578 -91 968 557 
Q 359 1206 359 2328 
Q 359 3453 968 4101 
Q 1578 4750 2638 4750 
Q 3056 4750 3426 4639 
Q 3797 4528 4122 4306 
z
" transform="scale(0.015625)"/>
      </defs>
      <use xlink:href="#DejaVuSans-4e"/>
      <use xlink:href="#DejaVuSans-43" x="74.804688"/>
      <use xlink:href="#DejaVuSans-43" x="144.628906"/>
     </g>
    </g>
   </g>
   <g id="text_10">
    <g clip-path="url(#p00c97ce035)">
     <!-- GGC -->
     <g transform="translate(269.614756 491.835498) scale(0.12 -0.12)">
      <defs>
       <path id="DejaVuSans-47" d="M 3809 666 
L 3809 1919 
L 2778 1919 
L 2778 2438 
L 4434 2438 
L 4434 434 
Q 4069 175 3628 42 
Q 3188 -91 2688 -91 
Q 1594 -91 976 548 
Q 359 1188 359 2328 
Q 359 3472 976 4111 
Q 1594 4750 2688 4750 
Q 3144 4750 3555 4637 
Q 3966 4525 4313 4306 
L 4313 3634 
Q 3963 3931 3569 4081 
Q 3175 4231 2741 4231 
Q 1884 4231 1454 3753 
Q 1025 3275 1025 2328 
Q 1025 1384 1454 906 
Q 1884 428 2741 428 
Q 3075 428 3337 486 
Q 3600 544 3809 666 
z
" transform="scale(0.015625)"/>
      </defs>
      <use xlink:href="#DejaVuSans-47"/>
      <use xlink:href="#DejaVuSans-47" x="77.490234"/>
      <use xlink:href="#DejaVuSans-43" x="154.980469"/>
     </g>
    </g>
   </g>
   <g id="text_11">
    <g clip-path="url(#p00c97ce035)">
     <!-- GGG -->
     <g transform="translate(415.164709 431.356421) scale(0.12 -0.12)">
      <use xlink:href="#DejaVuSans-47"/>
      <use xlink:href="#DejaVuSans-47" x="77.490234"/>
      <use xlink:href="#DejaVuSans-47" x="154.980469"/>
     </g>
    </g>
   </g>
   <g id="text_12">
    <g clip-path="url(#p00c97ce035)">
     <!-- GGT -->
     <g transform="translate(476.845563 285.347153) scale(0.12 -0.12)">
      <defs>
       <path id="DejaVuSans-54" d="M -19 4666 
L 3928 4666 
L 3928 4134 
L 2272 4134 
L 2272 0 
L 1638 0 
L 1638 4134 
L -19 4134 
L -19 4666 
z
" transform="scale(0.015625)"/>
      </defs>
      <use xlink:href="#DejaVuSans-47"/>
      <use xlink:href="#DejaVuSans-47" x="77.490234"/>
      <use xlink:href="#DejaVuSans-54" x="151.355469"/>
     </g>
    </g>
   </g>
   <g id="text_13">
    <g clip-path="url(#p00c97ce035)">
     <!-- GGA -->
     <g transform="translate(415.709347 139.337909) scale(0.12 -0.12)">
      <defs>
       <path id="DejaVuSans-41" d="M 2188 4044 
L 1331 1722 
L 3047 1722 
L 2188 4044 
z
M 1831 4666 
L 2547 4666 
L 4325 0 
L 3669 0 
L 3244 1197 
L 1141 1197 
L 716 0 
L 50 0 
L 1831 4666 
z
" transform="scale(0.015625)"/>
      </defs>
      <use xlink:href="#DejaVuSans-47"/>
      <use xlink:href="#DejaVuSans-47" x="77.490234"/>
      <use xlink:href="#DejaVuSans-41" x="154.980469"/>
     </g>
    </g>
   </g>
   <g id="text_14">
    <g clip-path="url(#p00c97ce035)">
     <!-- AGG -->
     <g transform="translate(269.804997 78.858881) scale(0.12 -0.12)">
      <use xlink:href="#DejaVuSans-41"/>
      <use xlink:href="#DejaVuSans-47" x="66.658203"/>
      <use xlink:href="#DejaVuSans-47" x="144.148438"/>
     </g>
    </g>
   </g>
   <g id="text_15">
    <g clip-path="url(#p00c97ce035)">
     <!-- AGA -->
     <g transform="translate(124.34051 139.337859) scale(0.12 -0.12)">
      <use xlink:href="#DejaVuSans-41"/>
      <use xlink:href="#DejaVuSans-47" x="66.658203"/>
      <use xlink:href="#DejaVuSans-41" x="144.148438"/>
     </g>
    </g>
   </g>
   <g id="legend_1">
    <g id="patch_23">
     <path d="M 14.2 44.55625 
L 116.278125 44.55625 
Q 118.278125 44.55625 118.278125 42.55625 
L 118.278125 14.2 
Q 118.278125 12.2 116.278125 12.2 
L 14.2 12.2 
Q 12.2 12.2 12.2 14.2 
L 12.2 42.55625 
Q 12.2 44.55625 14.2 44.55625 
z
" style="fill: #ffffff; opacity: 0.8; stroke: #cccccc; stroke-linejoin: miter"/>
    </g>
    <g id="patch_24">
     <path d="M 16.2 23.798437 
L 36.2 23.798437 
L 36.2 16.798437 
L 16.2 16.798437 
z
" style="fill: #0000ff"/>
    </g>
    <g id="text_16">
     <!-- Genomic data -->
     <g transform="translate(44.2 23.798437) scale(0.1 -0.1)">
      <defs>
       <path id="DejaVuSans-65" d="M 3597 1894 
L 3597 1613 
L 953 1613 
Q 991 1019 1311 708 
Q 1631 397 2203 397 
Q 2534 397 2845 478 
Q 3156 559 3463 722 
L 3463 178 
Q 3153 47 2828 -22 
Q 2503 -91 2169 -91 
Q 1331 -91 842 396 
Q 353 884 353 1716 
Q 353 2575 817 3079 
Q 1281 3584 2069 3584 
Q 2775 3584 3186 3129 
Q 3597 2675 3597 1894 
z
M 3022 2063 
Q 3016 2534 2758 2815 
Q 2500 3097 2075 3097 
Q 1594 3097 1305 2825 
Q 1016 2553 972 2059 
L 3022 2063 
z
" transform="scale(0.015625)"/>
       <path id="DejaVuSans-6e" d="M 3513 2113 
L 3513 0 
L 2938 0 
L 2938 2094 
Q 2938 2591 2744 2837 
Q 2550 3084 2163 3084 
Q 1697 3084 1428 2787 
Q 1159 2491 1159 1978 
L 1159 0 
L 581 0 
L 581 3500 
L 1159 3500 
L 1159 2956 
Q 1366 3272 1645 3428 
Q 1925 3584 2291 3584 
Q 2894 3584 3203 3211 
Q 3513 2838 3513 2113 
z
" transform="scale(0.015625)"/>
       <path id="DejaVuSans-6f" d="M 1959 3097 
Q 1497 3097 1228 2736 
Q 959 2375 959 1747 
Q 959 1119 1226 758 
Q 1494 397 1959 397 
Q 2419 397 2687 759 
Q 2956 1122 2956 1747 
Q 2956 2369 2687 2733 
Q 2419 3097 1959 3097 
z
M 1959 3584 
Q 2709 3584 3137 3096 
Q 3566 2609 3566 1747 
Q 3566 888 3137 398 
Q 2709 -91 1959 -91 
Q 1206 -91 779 398 
Q 353 888 353 1747 
Q 353 2609 779 3096 
Q 1206 3584 1959 3584 
z
" transform="scale(0.015625)"/>
       <path id="DejaVuSans-6d" d="M 3328 2828 
Q 3544 3216 3844 3400 
Q 4144 3584 4550 3584 
Q 5097 3584 5394 3201 
Q 5691 2819 5691 2113 
L 5691 0 
L 5113 0 
L 5113 2094 
Q 5113 2597 4934 2840 
Q 4756 3084 4391 3084 
Q 3944 3084 3684 2787 
Q 3425 2491 3425 1978 
L 3425 0 
L 2847 0 
L 2847 2094 
Q 2847 2600 2669 2842 
Q 2491 3084 2119 3084 
Q 1678 3084 1418 2786 
Q 1159 2488 1159 1978 
L 1159 0 
L 581 0 
L 581 3500 
L 1159 3500 
L 1159 2956 
Q 1356 3278 1631 3431 
Q 1906 3584 2284 3584 
Q 2666 3584 2933 3390 
Q 3200 3197 3328 2828 
z
" transform="scale(0.015625)"/>
       <path id="DejaVuSans-69" d="M 603 3500 
L 1178 3500 
L 1178 0 
L 603 0 
L 603 3500 
z
M 603 4863 
L 1178 4863 
L 1178 4134 
L 603 4134 
L 603 4863 
z
" transform="scale(0.015625)"/>
       <path id="DejaVuSans-63" d="M 3122 3366 
L 3122 2828 
Q 2878 2963 2633 3030 
Q 2388 3097 2138 3097 
Q 1578 3097 1268 2742 
Q 959 2388 959 1747 
Q 959 1106 1268 751 
Q 1578 397 2138 397 
Q 2388 397 2633 464 
Q 2878 531 3122 666 
L 3122 134 
Q 2881 22 2623 -34 
Q 2366 -91 2075 -91 
Q 1284 -91 818 406 
Q 353 903 353 1747 
Q 353 2603 823 3093 
Q 1294 3584 2113 3584 
Q 2378 3584 2631 3529 
Q 2884 3475 3122 3366 
z
" transform="scale(0.015625)"/>
       <path id="DejaVuSans-20" transform="scale(0.015625)"/>
       <path id="DejaVuSans-64" d="M 2906 2969 
L 2906 4863 
L 3481 4863 
L 3481 0 
L 2906 0 
L 2906 525 
Q 2725 213 2448 61 
Q 2172 -91 1784 -91 
Q 1150 -91 751 415 
Q 353 922 353 1747 
Q 353 2572 751 3078 
Q 1150 3584 1784 3584 
Q 2172 3584 2448 3432 
Q 2725 3281 2906 2969 
z
M 947 1747 
Q 947 1113 1208 752 
Q 1469 391 1925 391 
Q 2381 391 2643 752 
Q 2906 1113 2906 1747 
Q 2906 2381 2643 2742 
Q 2381 3103 1925 3103 
Q 1469 3103 1208 2742 
Q 947 2381 947 1747 
z
" transform="scale(0.015625)"/>
       <path id="DejaVuSans-61" d="M 2194 1759 
Q 1497 1759 1228 1600 
Q 959 1441 959 1056 
Q 959 750 1161 570 
Q 1363 391 1709 391 
Q 2188 391 2477 730 
Q 2766 1069 2766 1631 
L 2766 1759 
L 2194 1759 
z
M 3341 1997 
L 3341 0 
L 2766 0 
L 2766 531 
Q 2569 213 2275 61 
Q 1981 -91 1556 -91 
Q 1019 -91 701 211 
Q 384 513 384 1019 
Q 384 1609 779 1909 
Q 1175 2209 1959 2209 
L 2766 2209 
L 2766 2266 
Q 2766 2663 2505 2880 
Q 2244 3097 1772 3097 
Q 1472 3097 1187 3025 
Q 903 2953 641 2809 
L 641 3341 
Q 956 3463 1253 3523 
Q 1550 3584 1831 3584 
Q 2591 3584 2966 3190 
Q 3341 2797 3341 1997 
z
" transform="scale(0.015625)"/>
       <path id="DejaVuSans-74" d="M 1172 4494 
L 1172 3500 
L 2356 3500 
L 2356 3053 
L 1172 3053 
L 1172 1153 
Q 1172 725 1289 603 
Q 1406 481 1766 481 
L 2356 481 
L 2356 0 
L 1766 0 
Q 1100 0 847 248 
Q 594 497 594 1153 
L 594 3053 
L 172 3053 
L 172 3500 
L 594 3500 
L 594 4494 
L 1172 4494 
z
" transform="scale(0.015625)"/>
      </defs>
      <use xlink:href="#DejaVuSans-47"/>
      <use xlink:href="#DejaVuSans-65" x="77.490234"/>
      <use xlink:href="#DejaVuSans-6e" x="139.013672"/>
      <use xlink:href="#DejaVuSans-6f" x="202.392578"/>
      <use xlink:href="#DejaVuSans-6d" x="263.574219"/>
      <use xlink:href="#DejaVuSans-69" x="360.986328"/>
      <use xlink:href="#DejaVuSans-63" x="388.769531"/>
      <use xlink:href="#DejaVuSans-20" x="443.75"/>
      <use xlink:href="#DejaVuSans-64" x="475.537109"/>
      <use xlink:href="#DejaVuSans-61" x="539.013672"/>
      <use xlink:href="#DejaVuSans-74" x="600.292969"/>
      <use xlink:href="#DejaVuSans-61" x="639.501953"/>
     </g>
    </g>
    <g id="patch_25">
     <path d="M 16.2 38.476562 
L 36.2 38.476562 
L 36.2 31.476562 
L 16.2 31.476562 
z
" style="fill: #ff0000"/>
    </g>
    <g id="text_17">
     <!-- Genetic code -->
     <g transform="translate(44.2 38.476562) scale(0.1 -0.1)">
      <use xlink:href="#DejaVuSans-47"/>
      <use xlink:href="#DejaVuSans-65" x="77.490234"/>
      <use xlink:href="#DejaVuSans-6e" x="139.013672"/>
      <use xlink:href="#DejaVuSans-65" x="202.392578"/>
      <use xlink:href="#DejaVuSans-74" x="263.916016"/>
      <use xlink:href="#DejaVuSans-69" x="303.125"/>
      <use xlink:href="#DejaVuSans-63" x="330.908203"/>
      <use xlink:href="#DejaVuSans-20" x="385.888672"/>
      <use xlink:href="#DejaVuSans-63" x="417.675781"/>
      <use xlink:href="#DejaVuSans-6f" x="472.65625"/>
      <use xlink:href="#DejaVuSans-64" x="533.837891"/>
      <use xlink:href="#DejaVuSans-65" x="597.314453"/>
     </g>
    </g>
   </g>
  </g>
 </g>
 <defs>
  <clipPath id="p00c97ce035">
   <rect x="7.2" y="7.2" width="558" height="549.671878"/>
  </clipPath>
 </defs>
</svg>
