<?xml version="1.0" encoding="utf-8" standalone="no"?>
<!DOCTYPE svg PUBLIC "-//W3C//DTD SVG 1.1//EN"
  "http://www.w3.org/Graphics/SVG/1.1/DTD/svg11.dtd">
<svg xmlns:xlink="http://www.w3.org/1999/xlink" width="564.795936pt" height="568.8pt" viewBox="0 0 564.795936 568.8" xmlns="http://www.w3.org/2000/svg" version="1.1">
 <metadata>
  <rdf:RDF xmlns:dc="http://purl.org/dc/elements/1.1/" xmlns:cc="http://creativecommons.org/ns#" xmlns:rdf="http://www.w3.org/1999/02/22-rdf-syntax-ns#">
   <cc:Work>
    <dc:type rdf:resource="http://purl.org/dc/dcmitype/StillImage"/>
    <dc:date>2024-08-01T13:58:25.328349</dc:date>
    <dc:format>image/svg+xml</dc:format>
    <dc:creator>
     <cc:Agent>
      <dc:title>Matplotlib v3.8.3, https://matplotlib.org/</dc:title>
     </cc:Agent>
    </dc:creator>
   </cc:Work>
  </rdf:RDF>
 </metadata>
 <defs>
  <style type="text/css">*{stroke-linejoin: round; stroke-linecap: butt}</style>
 </defs>
 <g id="figure_1">
  <g id="patch_1">
   <path d="M 0 568.8 
L 564.795936 568.8 
L 564.795936 0 
L 0 0 
z
" style="fill: #ffffff"/>
  </g>
  <g id="axes_1">
   <g id="patch_2">
    <path d="M 7.2 561.6 
L 557.595936 561.6 
L 557.595936 7.2 
L 7.2 7.2 
z
" style="fill: #ffffff"/>
   </g>
   <g id="patch_3">
    <path d="M 81.547011 292.200828 
Q 118.00547 367.907566 153.978832 442.606991 
" clip-path="url(#p6368f50e85)" style="fill: none; stroke: #000000; stroke-linecap: round"/>
    <path d="M 154.045234 438.135348 
L 153.978832 442.606991 
L 150.441358 439.870883 
z
" clip-path="url(#p6368f50e85)" style="stroke: #000000; stroke-linecap: round"/>
   </g>
   <g id="patch_4">
    <path d="M 84.562704 289.800805 
Q 208.367543 388.531851 331.298268 486.565814 
" clip-path="url(#p6368f50e85)" style="fill: none; stroke: #000000; stroke-linecap: round"/>
    <path d="M 329.417921 482.508192 
L 331.298268 486.565814 
L 326.923962 485.635519 
z
" clip-path="url(#p6368f50e85)" style="stroke: #000000; stroke-linecap: round"/>
   </g>
   <g id="patch_5">
    <path d="M 86.232902 286.326986 
Q 280.832954 330.743171 474.343003 374.91057 
" clip-path="url(#p6368f50e85)" style="fill: none; stroke: #000000; stroke-linecap: round"/>
    <path d="M 470.888333 372.07063 
L 474.343003 374.91057 
L 469.99825 375.970342 
z
" clip-path="url(#p6368f50e85)" style="stroke: #000000; stroke-linecap: round"/>
   </g>
   <g id="patch_6">
    <path d="M 86.232903 282.473067 
Q 280.83296 238.056876 474.343016 193.889471 
" clip-path="url(#p6368f50e85)" style="fill: none; stroke: #000000; stroke-linecap: round"/>
    <path d="M 469.998262 192.829699 
L 474.343016 193.889471 
L 470.888346 196.729411 
z
" clip-path="url(#p6368f50e85)" style="stroke: #000000; stroke-linecap: round"/>
   </g>
   <g id="patch_7">
    <path d="M 84.562702 278.999247 
Q 208.367506 180.268177 331.298196 82.23419 
" clip-path="url(#p6368f50e85)" style="fill: none; stroke: #000000; stroke-linecap: round"/>
    <path d="M 326.923891 83.164487 
L 331.298196 82.23419 
L 329.417851 86.291812 
z
" clip-path="url(#p6368f50e85)" style="stroke: #000000; stroke-linecap: round"/>
   </g>
   <g id="patch_8">
    <path d="M 81.547011 276.599222 
Q 118.005476 200.892461 153.978844 126.193014 
" clip-path="url(#p6368f50e85)" style="fill: none; stroke: #000000; stroke-linecap: round"/>
    <path d="M 150.441371 128.929122 
L 153.978844 126.193014 
L 154.045246 130.664657 
z
" clip-path="url(#p6368f50e85)" style="stroke: #000000; stroke-linecap: round"/>
   </g>
   <g id="text_1">
    <g id="patch_9">
     <path d="M 102.66096 354.111567 
L 119.224478 388.506051 
Q 120.526129 391.208958 123.229036 389.907306 
L 131.948724 385.708123 
Q 134.651631 384.406472 133.349979 381.703565 
L 116.786462 347.309082 
Q 115.48481 344.606175 112.781903 345.907827 
L 104.062215 350.107009 
Q 101.359308 351.408661 102.66096 354.111567 
z
" clip-path="url(#p6368f50e85)" style="fill: #ffffff; stroke: #ffffff; stroke-linejoin: miter"/>
    </g>
    <g clip-path="url(#p6368f50e85)">
     <!-- 691327 -->
     <g transform="translate(107.2376 351.907573) rotate(-295.714295) scale(0.1 -0.1)">
      <defs>
       <path id="DejaVuSans-36" d="M 2113 2584 
Q 1688 2584 1439 2293 
Q 1191 2003 1191 1497 
Q 1191 994 1439 701 
Q 1688 409 2113 409 
Q 2538 409 2786 701 
Q 3034 994 3034 1497 
Q 3034 2003 2786 2293 
Q 2538 2584 2113 2584 
z
M 3366 4563 
L 3366 3988 
Q 3128 4100 2886 4159 
Q 2644 4219 2406 4219 
Q 1781 4219 1451 3797 
Q 1122 3375 1075 2522 
Q 1259 2794 1537 2939 
Q 1816 3084 2150 3084 
Q 2853 3084 3261 2657 
Q 3669 2231 3669 1497 
Q 3669 778 3244 343 
Q 2819 -91 2113 -91 
Q 1303 -91 875 529 
Q 447 1150 447 2328 
Q 447 3434 972 4092 
Q 1497 4750 2381 4750 
Q 2619 4750 2861 4703 
Q 3103 4656 3366 4563 
z
" transform="scale(0.015625)"/>
       <path id="DejaVuSans-39" d="M 703 97 
L 703 672 
Q 941 559 1184 500 
Q 1428 441 1663 441 
Q 2288 441 2617 861 
Q 2947 1281 2994 2138 
Q 2813 1869 2534 1725 
Q 2256 1581 1919 1581 
Q 1219 1581 811 2004 
Q 403 2428 403 3163 
Q 403 3881 828 4315 
Q 1253 4750 1959 4750 
Q 2769 4750 3195 4129 
Q 3622 3509 3622 2328 
Q 3622 1225 3098 567 
Q 2575 -91 1691 -91 
Q 1453 -91 1209 -44 
Q 966 3 703 97 
z
M 1959 2075 
Q 2384 2075 2632 2365 
Q 2881 2656 2881 3163 
Q 2881 3666 2632 3958 
Q 2384 4250 1959 4250 
Q 1534 4250 1286 3958 
Q 1038 3666 1038 3163 
Q 1038 2656 1286 2365 
Q 1534 2075 1959 2075 
z
" transform="scale(0.015625)"/>
       <path id="DejaVuSans-31" d="M 794 531 
L 1825 531 
L 1825 4091 
L 703 3866 
L 703 4441 
L 1819 4666 
L 2450 4666 
L 2450 531 
L 3481 531 
L 3481 0 
L 794 0 
L 794 531 
z
" transform="scale(0.015625)"/>
       <path id="DejaVuSans-33" d="M 2597 2516 
Q 3050 2419 3304 2112 
Q 3559 1806 3559 1356 
Q 3559 666 3084 287 
Q 2609 -91 1734 -91 
Q 1441 -91 1130 -33 
Q 819 25 488 141 
L 488 750 
Q 750 597 1062 519 
Q 1375 441 1716 441 
Q 2309 441 2620 675 
Q 2931 909 2931 1356 
Q 2931 1769 2642 2001 
Q 2353 2234 1838 2234 
L 1294 2234 
L 1294 2753 
L 1863 2753 
Q 2328 2753 2575 2939 
Q 2822 3125 2822 3475 
Q 2822 3834 2567 4026 
Q 2313 4219 1838 4219 
Q 1578 4219 1281 4162 
Q 984 4106 628 3988 
L 628 4550 
Q 988 4650 1302 4700 
Q 1616 4750 1894 4750 
Q 2613 4750 3031 4423 
Q 3450 4097 3450 3541 
Q 3450 3153 3228 2886 
Q 3006 2619 2597 2516 
z
" transform="scale(0.015625)"/>
       <path id="DejaVuSans-32" d="M 1228 531 
L 3431 531 
L 3431 0 
L 469 0 
L 469 531 
Q 828 903 1448 1529 
Q 2069 2156 2228 2338 
Q 2531 2678 2651 2914 
Q 2772 3150 2772 3378 
Q 2772 3750 2511 3984 
Q 2250 4219 1831 4219 
Q 1534 4219 1204 4116 
Q 875 4013 500 3803 
L 500 4441 
Q 881 4594 1212 4672 
Q 1544 4750 1819 4750 
Q 2544 4750 2975 4387 
Q 3406 4025 3406 3419 
Q 3406 3131 3298 2873 
Q 3191 2616 2906 2266 
Q 2828 2175 2409 1742 
Q 1991 1309 1228 531 
z
" transform="scale(0.015625)"/>
       <path id="DejaVuSans-37" d="M 525 4666 
L 3525 4666 
L 3525 4397 
L 1831 0 
L 1172 0 
L 2766 4134 
L 525 4134 
L 525 4666 
z
" transform="scale(0.015625)"/>
      </defs>
      <use xlink:href="#DejaVuSans-36"/>
      <use xlink:href="#DejaVuSans-39" x="63.623047"/>
      <use xlink:href="#DejaVuSans-31" x="127.246094"/>
      <use xlink:href="#DejaVuSans-33" x="190.869141"/>
      <use xlink:href="#DejaVuSans-32" x="254.492188"/>
      <use xlink:href="#DejaVuSans-37" x="318.115234"/>
     </g>
    </g>
   </g>
   <g id="text_2">
    <g id="patch_10">
     <path d="M 188.556758 382.759817 
L 218.403177 406.561537 
Q 220.748672 408.432007 222.619141 406.086512 
L 228.653353 398.519849 
Q 230.523822 396.174354 228.178327 394.303885 
L 198.331908 370.502164 
Q 195.986414 368.631695 194.115945 370.97719 
L 188.081733 378.543853 
Q 186.211264 380.889348 188.556758 382.759817 
z
" clip-path="url(#p6368f50e85)" style="fill: #ffffff; stroke: #ffffff; stroke-linejoin: miter"/>
    </g>
    <g clip-path="url(#p6368f50e85)">
     <!-- 756908 -->
     <g transform="translate(191.723891 378.788357) rotate(-321.428577) scale(0.1 -0.1)">
      <defs>
       <path id="DejaVuSans-35" d="M 691 4666 
L 3169 4666 
L 3169 4134 
L 1269 4134 
L 1269 2991 
Q 1406 3038 1543 3061 
Q 1681 3084 1819 3084 
Q 2600 3084 3056 2656 
Q 3513 2228 3513 1497 
Q 3513 744 3044 326 
Q 2575 -91 1722 -91 
Q 1428 -91 1123 -41 
Q 819 9 494 109 
L 494 744 
Q 775 591 1075 516 
Q 1375 441 1709 441 
Q 2250 441 2565 725 
Q 2881 1009 2881 1497 
Q 2881 1984 2565 2268 
Q 2250 2553 1709 2553 
Q 1456 2553 1204 2497 
Q 953 2441 691 2322 
L 691 4666 
z
" transform="scale(0.015625)"/>
       <path id="DejaVuSans-30" d="M 2034 4250 
Q 1547 4250 1301 3770 
Q 1056 3291 1056 2328 
Q 1056 1369 1301 889 
Q 1547 409 2034 409 
Q 2525 409 2770 889 
Q 3016 1369 3016 2328 
Q 3016 3291 2770 3770 
Q 2525 4250 2034 4250 
z
M 2034 4750 
Q 2819 4750 3233 4129 
Q 3647 3509 3647 2328 
Q 3647 1150 3233 529 
Q 2819 -91 2034 -91 
Q 1250 -91 836 529 
Q 422 1150 422 2328 
Q 422 3509 836 4129 
Q 1250 4750 2034 4750 
z
" transform="scale(0.015625)"/>
       <path id="DejaVuSans-38" d="M 2034 2216 
Q 1584 2216 1326 1975 
Q 1069 1734 1069 1313 
Q 1069 891 1326 650 
Q 1584 409 2034 409 
Q 2484 409 2743 651 
Q 3003 894 3003 1313 
Q 3003 1734 2745 1975 
Q 2488 2216 2034 2216 
z
M 1403 2484 
Q 997 2584 770 2862 
Q 544 3141 544 3541 
Q 544 4100 942 4425 
Q 1341 4750 2034 4750 
Q 2731 4750 3128 4425 
Q 3525 4100 3525 3541 
Q 3525 3141 3298 2862 
Q 3072 2584 2669 2484 
Q 3125 2378 3379 2068 
Q 3634 1759 3634 1313 
Q 3634 634 3220 271 
Q 2806 -91 2034 -91 
Q 1263 -91 848 271 
Q 434 634 434 1313 
Q 434 1759 690 2068 
Q 947 2378 1403 2484 
z
M 1172 3481 
Q 1172 3119 1398 2916 
Q 1625 2713 2034 2713 
Q 2441 2713 2670 2916 
Q 2900 3119 2900 3481 
Q 2900 3844 2670 4047 
Q 2441 4250 2034 4250 
Q 1625 4250 1398 4047 
Q 1172 3844 1172 3481 
z
" transform="scale(0.015625)"/>
      </defs>
      <use xlink:href="#DejaVuSans-37"/>
      <use xlink:href="#DejaVuSans-35" x="63.623047"/>
      <use xlink:href="#DejaVuSans-36" x="127.246094"/>
      <use xlink:href="#DejaVuSans-39" x="190.869141"/>
      <use xlink:href="#DejaVuSans-30" x="254.492188"/>
      <use xlink:href="#DejaVuSans-38" x="318.115234"/>
     </g>
    </g>
   </g>
   <g id="text_3">
    <g id="patch_11">
     <path d="M 260.479662 334.138324 
L 297.697535 342.633059 
Q 300.622319 343.300622 301.289882 340.375838 
L 303.443467 330.940364 
Q 304.11103 328.01558 301.186246 327.348018 
L 263.968373 318.853282 
Q 261.043589 318.185719 260.376026 321.110503 
L 258.222441 330.545977 
Q 257.554878 333.470761 260.479662 334.138324 
z
" clip-path="url(#p6368f50e85)" style="fill: #ffffff; stroke: #ffffff; stroke-linejoin: miter"/>
    </g>
    <g clip-path="url(#p6368f50e85)">
     <!-- 584330 -->
     <g transform="translate(261.609999 329.185995) rotate(-347.142859) scale(0.1 -0.1)">
      <defs>
       <path id="DejaVuSans-34" d="M 2419 4116 
L 825 1625 
L 2419 1625 
L 2419 4116 
z
M 2253 4666 
L 3047 4666 
L 3047 1625 
L 3713 1625 
L 3713 1100 
L 3047 1100 
L 3047 0 
L 2419 0 
L 2419 1100 
L 313 1100 
L 313 1709 
L 2253 4666 
z
" transform="scale(0.015625)"/>
      </defs>
      <use xlink:href="#DejaVuSans-35"/>
      <use xlink:href="#DejaVuSans-38" x="63.623047"/>
      <use xlink:href="#DejaVuSans-34" x="127.246094"/>
      <use xlink:href="#DejaVuSans-33" x="190.869141"/>
      <use xlink:href="#DejaVuSans-33" x="254.492188"/>
      <use xlink:href="#DejaVuSans-30" x="318.115234"/>
     </g>
    </g>
   </g>
   <g id="text_4">
    <g id="patch_12">
     <path d="M 263.968379 249.946765 
L 301.186252 241.452029 
Q 304.111036 240.784466 303.443473 237.859682 
L 301.289888 228.424208 
Q 300.622325 225.499424 297.697542 226.166987 
L 260.479668 234.661723 
Q 257.554885 235.329286 258.222447 238.25407 
L 260.376033 247.689544 
Q 261.043596 250.614328 263.968379 249.946765 
z
" clip-path="url(#p6368f50e85)" style="fill: #ffffff; stroke: #ffffff; stroke-linejoin: miter"/>
    </g>
    <g clip-path="url(#p6368f50e85)">
     <!-- 560370 -->
     <g transform="translate(262.838043 244.994436) rotate(-12.857142) scale(0.1 -0.1)">
      <use xlink:href="#DejaVuSans-35"/>
      <use xlink:href="#DejaVuSans-36" x="63.623047"/>
      <use xlink:href="#DejaVuSans-30" x="127.246094"/>
      <use xlink:href="#DejaVuSans-33" x="190.869141"/>
      <use xlink:href="#DejaVuSans-37" x="254.492188"/>
      <use xlink:href="#DejaVuSans-30" x="318.115234"/>
     </g>
    </g>
   </g>
   <g id="text_5">
    <g id="patch_13">
     <path d="M 198.331876 198.297866 
L 228.178289 174.496138 
Q 230.523783 172.625668 228.653314 170.280174 
L 222.6191 162.713512 
Q 220.74863 160.368018 218.403136 162.238488 
L 188.556723 186.040216 
Q 186.211229 187.910685 188.081699 190.25618 
L 194.115912 197.822841 
Q 195.986382 200.168336 198.331876 198.297866 
z
" clip-path="url(#p6368f50e85)" style="fill: #ffffff; stroke: #ffffff; stroke-linejoin: miter"/>
    </g>
    <g clip-path="url(#p6368f50e85)">
     <!-- 376416 -->
     <g transform="translate(195.164742 194.326407) rotate(-38.571438) scale(0.1 -0.1)">
      <use xlink:href="#DejaVuSans-33"/>
      <use xlink:href="#DejaVuSans-37" x="63.623047"/>
      <use xlink:href="#DejaVuSans-36" x="127.246094"/>
      <use xlink:href="#DejaVuSans-34" x="190.869141"/>
      <use xlink:href="#DejaVuSans-31" x="254.492188"/>
      <use xlink:href="#DejaVuSans-36" x="318.115234"/>
     </g>
    </g>
   </g>
   <g id="text_6">
    <g id="patch_14">
     <path d="M 116.786469 221.490946 
L 133.349985 187.096461 
Q 134.651636 184.393555 131.94873 183.091903 
L 123.229041 178.892721 
Q 120.526134 177.59107 119.224483 180.293976 
L 102.660967 214.688461 
Q 101.359316 217.391368 104.062222 218.693019 
L 112.781911 222.892201 
Q 115.484818 224.193853 116.786469 221.490946 
z
" clip-path="url(#p6368f50e85)" style="fill: #ffffff; stroke: #ffffff; stroke-linejoin: miter"/>
    </g>
    <g clip-path="url(#p6368f50e85)">
     <!-- 536295 -->
     <g transform="translate(112.209829 219.286952) rotate(-64.285708) scale(0.1 -0.1)">
      <use xlink:href="#DejaVuSans-35"/>
      <use xlink:href="#DejaVuSans-33" x="63.623047"/>
      <use xlink:href="#DejaVuSans-36" x="127.246094"/>
      <use xlink:href="#DejaVuSans-32" x="190.869141"/>
      <use xlink:href="#DejaVuSans-39" x="254.492188"/>
      <use xlink:href="#DejaVuSans-35" x="318.115234"/>
     </g>
    </g>
   </g>
   <g id="patch_15">
    <path d="M 77.790341 255.917311 
C 73.934562 255.917311 70.118633 256.700261 66.574385 258.218593 
C 63.030138 259.736926 59.83083 261.959258 57.170833 264.750573 
C 54.510836 267.541889 52.445132 270.844493 51.099219 274.457739 
C 49.753306 278.070984 49.155004 281.920187 49.340663 285.771493 
C 49.526322 289.622799 50.492104 293.396602 52.179334 296.86363 
C 53.866564 300.330658 56.240368 303.419247 59.156527 305.941755 
C 62.072686 308.464262 65.470924 310.368547 69.144785 311.538918 
C 72.818647 312.709289 76.692194 313.121555 80.530093 312.750667 
L 77.790341 284.400026 
z
" style="fill: #0000ff"/>
   </g>
   <g id="patch_16">
    <path d="M 80.530093 312.750667 
C 87.810358 312.047116 94.547024 308.56562 99.332069 303.033841 
C 104.117115 297.502061 106.592203 290.334257 106.240019 283.02856 
C 105.887835 275.722862 102.734753 268.826374 97.439794 263.780519 
C 92.144835 258.734664 85.104522 255.917311 77.790341 255.917311 
L 77.790341 284.400026 
z
" style="fill: #ff0000"/>
   </g>
   <g id="matplotlib.axis_1">
    <g id="xtick_1"/>
    <g id="xtick_2"/>
    <g id="xtick_3"/>
    <g id="xtick_4"/>
    <g id="xtick_5"/>
    <g id="xtick_6"/>
    <g id="xtick_7"/>
   </g>
   <g id="matplotlib.axis_2">
    <g id="ytick_1"/>
    <g id="ytick_2"/>
    <g id="ytick_3"/>
    <g id="ytick_4"/>
    <g id="ytick_5"/>
    <g id="ytick_6"/>
    <g id="ytick_7"/>
   </g>
   <g id="PathCollection_1">
    <path d="M 77.790341 300.211415 
C 81.98357 300.211415 86.00562 298.545427 88.970681 295.580366 
C 91.935742 292.615305 93.601729 288.593255 93.601729 284.400026 
C 93.601729 280.206797 91.935742 276.184747 88.970681 273.219686 
C 86.00562 270.254626 81.98357 268.588638 77.790341 268.588638 
C 73.597112 268.588638 69.575062 270.254626 66.610001 273.219686 
C 63.64494 276.184747 61.978953 280.206797 61.978953 284.400026 
C 61.978953 288.593255 63.64494 292.615305 66.610001 295.580366 
C 69.575062 298.545427 73.597112 300.211415 77.790341 300.211415 
z
" clip-path="url(#p6368f50e85)" style="fill: #87ceeb; stroke: #000000"/>
    <path d="M 158.220627 497.373773 
C 170.408992 497.373773 182.099794 492.531284 190.718269 483.912808 
C 199.336745 475.294333 204.179234 463.603531 204.179234 451.415166 
C 204.179234 439.226801 199.336745 427.535999 190.718269 418.917523 
C 182.099794 410.299048 170.408992 405.456559 158.220627 405.456559 
C 146.032262 405.456559 134.34146 410.299048 125.722984 418.917523 
C 117.104509 427.535999 112.26202 439.226801 112.26202 451.415166 
C 112.26202 463.603531 117.104509 475.294333 125.722984 483.912808 
C 134.34146 492.531284 146.032262 497.373773 158.220627 497.373773 
z
" clip-path="url(#p6368f50e85)" style="fill: #90ee90; stroke: #000000"/>
    <path d="M 338.945734 542.664464 
C 352.205889 542.664464 364.924727 537.396149 374.301073 528.019803 
C 383.677418 518.643458 388.945734 505.924619 388.945734 492.664464 
C 388.945734 479.404309 383.677418 466.685471 374.301073 457.309125 
C 364.924727 447.932779 352.205889 442.664464 338.945734 442.664464 
C 325.685579 442.664464 312.96674 447.932779 303.590395 457.309125 
C 294.214049 466.685471 288.945734 479.404309 288.945734 492.664464 
C 288.945734 505.924619 294.214049 518.643458 303.590395 528.019803 
C 312.96674 537.396149 325.685579 542.664464 338.945734 542.664464 
z
" clip-path="url(#p6368f50e85)" style="fill: #90ee90; stroke: #000000"/>
    <path d="M 483.876005 415.550397 
C 494.076772 415.550397 503.861115 411.497589 511.074147 404.284557 
C 518.287178 397.071526 522.339986 387.287182 522.339986 377.086415 
C 522.339986 366.885648 518.287178 357.101304 511.074147 349.888273 
C 503.861115 342.675241 494.076772 338.622433 483.876005 338.622433 
C 473.675237 338.622433 463.890894 342.675241 456.677862 349.888273 
C 449.464831 357.101304 445.412023 366.885648 445.412023 377.086415 
C 445.412023 387.287182 449.464831 397.071526 456.677862 404.284557 
C 463.890894 411.497589 473.675237 415.550397 483.876005 415.550397 
z
" clip-path="url(#p6368f50e85)" style="fill: #90ee90; stroke: #000000"/>
    <path d="M 483.876017 228.289477 
C 493.576046 228.289477 502.880093 224.435615 509.73905 217.576658 
C 516.598006 210.717702 520.451869 201.413655 520.451869 191.713626 
C 520.451869 182.013597 516.598006 172.70955 509.73905 165.850593 
C 502.880093 158.991637 493.576046 155.137774 483.876017 155.137774 
C 474.175988 155.137774 464.871941 158.991637 458.012985 165.850593 
C 451.154028 172.70955 447.300166 182.013597 447.300166 191.713626 
C 447.300166 201.413655 451.154028 210.717702 458.012985 217.576658 
C 464.871941 224.435615 474.175988 228.289477 483.876017 228.289477 
z
" clip-path="url(#p6368f50e85)" style="fill: #90ee90; stroke: #000000"/>
    <path d="M 338.94566 91.946927 
C 343.13889 91.946927 347.16094 90.280939 350.126 87.315878 
C 353.091061 84.350818 354.757049 80.328768 354.757049 76.135538 
C 354.757049 71.942309 353.091061 67.920259 350.126 64.955199 
C 347.16094 61.990138 343.13889 60.32415 338.94566 60.32415 
C 334.752431 60.32415 330.730381 61.990138 327.765321 64.955199 
C 324.80026 67.920259 323.134272 71.942309 323.134272 76.135538 
C 323.134272 80.328768 324.80026 84.350818 327.765321 87.315878 
C 330.730381 90.280939 334.752431 91.946927 338.94566 91.946927 
z
" clip-path="url(#p6368f50e85)" style="fill: #90ee90; stroke: #000000"/>
    <path d="M 158.22064 151.959797 
C 167.390026 151.959797 176.185093 148.316761 182.668829 141.833026 
C 189.152564 135.34929 192.7956 126.554223 192.7956 117.384837 
C 192.7956 108.21545 189.152564 99.420383 182.668829 92.936648 
C 176.185093 86.452912 167.390026 82.809876 158.22064 82.809876 
C 149.051253 82.809876 140.256186 86.452912 133.772451 92.936648 
C 127.288715 99.420383 123.645679 108.21545 123.645679 117.384837 
C 123.645679 126.554223 127.288715 135.34929 133.772451 141.833026 
C 140.256186 148.316761 149.051253 151.959797 158.22064 151.959797 
z
" clip-path="url(#p6368f50e85)" style="fill: #90ee90; stroke: #000000"/>
   </g>
   <g id="patch_17">
    <path d="M 7.2 561.6 
L 7.2 7.2 
" style="fill: none; stroke: #000000; stroke-width: 0.8; stroke-linejoin: miter; stroke-linecap: square"/>
   </g>
   <g id="patch_18">
    <path d="M 557.595936 561.6 
L 557.595936 7.2 
" style="fill: none; stroke: #000000; stroke-width: 0.8; stroke-linejoin: miter; stroke-linecap: square"/>
   </g>
   <g id="patch_19">
    <path d="M 7.2 561.6 
L 557.595936 561.6 
" style="fill: none; stroke: #000000; stroke-width: 0.8; stroke-linejoin: miter; stroke-linecap: square"/>
   </g>
   <g id="patch_20">
    <path d="M 7.2 7.2 
L 557.595936 7.2 
" style="fill: none; stroke: #000000; stroke-width: 0.8; stroke-linejoin: miter; stroke-linecap: square"/>
   </g>
   <g id="text_7">
    <g clip-path="url(#p6368f50e85)">
     <!-- $\mathbf{S}$ -->
     <g transform="translate(73.410341 287.711276) scale(0.12 -0.12)">
      <defs>
       <path id="DejaVuSans-Bold-53" d="M 3834 4519 
L 3834 3531 
Q 3450 3703 3084 3790 
Q 2719 3878 2394 3878 
Q 1963 3878 1756 3759 
Q 1550 3641 1550 3391 
Q 1550 3203 1689 3098 
Q 1828 2994 2194 2919 
L 2706 2816 
Q 3484 2659 3812 2340 
Q 4141 2022 4141 1434 
Q 4141 663 3683 286 
Q 3225 -91 2284 -91 
Q 1841 -91 1394 -6 
Q 947 78 500 244 
L 500 1259 
Q 947 1022 1364 901 
Q 1781 781 2169 781 
Q 2563 781 2772 912 
Q 2981 1044 2981 1288 
Q 2981 1506 2839 1625 
Q 2697 1744 2272 1838 
L 1806 1941 
Q 1106 2091 782 2419 
Q 459 2747 459 3303 
Q 459 4000 909 4375 
Q 1359 4750 2203 4750 
Q 2588 4750 2994 4692 
Q 3400 4634 3834 4519 
z
" transform="scale(0.015625)"/>
      </defs>
      <use xlink:href="#DejaVuSans-Bold-53" transform="translate(0 0.78125)"/>
     </g>
    </g>
   </g>
   <g id="text_8">
    <g clip-path="url(#p6368f50e85)">
     <!-- NCC -->
     <g transform="translate(145.352502 454.726416) scale(0.12 -0.12)">
      <defs>
       <path id="DejaVuSans-4e" d="M 628 4666 
L 1478 4666 
L 3547 763 
L 3547 4666 
L 4159 4666 
L 4159 0 
L 3309 0 
L 1241 3903 
L 1241 0 
L 628 0 
L 628 4666 
z
" transform="scale(0.015625)"/>
       <path id="DejaVuSans-43" d="M 4122 4306 
L 4122 3641 
Q 3803 3938 3442 4084 
Q 3081 4231 2675 4231 
Q 1875 4231 1450 3742 
Q 1025 3253 1025 2328 
Q 1025 1406 1450 917 
Q 1875 428 2675 428 
Q 3081 428 3442 575 
Q 3803 722 4122 1019 
L 4122 359 
Q 3791 134 3420 21 
Q 3050 -91 2638 -91 
Q 1578 -91 968 557 
Q 359 1206 359 2328 
Q 359 3453 968 4101 
Q 1578 4750 2638 4750 
Q 3056 4750 3426 4639 
Q 3797 4528 4122 4306 
z
" transform="scale(0.015625)"/>
      </defs>
      <use xlink:href="#DejaVuSans-4e"/>
      <use xlink:href="#DejaVuSans-43" x="74.804688"/>
      <use xlink:href="#DejaVuSans-43" x="144.628906"/>
     </g>
    </g>
   </g>
   <g id="text_9">
    <g clip-path="url(#p6368f50e85)">
     <!-- TCT -->
     <g transform="translate(327.779171 495.975714) scale(0.12 -0.12)">
      <defs>
       <path id="DejaVuSans-54" d="M -19 4666 
L 3928 4666 
L 3928 4134 
L 2272 4134 
L 2272 0 
L 1638 0 
L 1638 4134 
L -19 4134 
L -19 4666 
z
" transform="scale(0.015625)"/>
      </defs>
      <use xlink:href="#DejaVuSans-54"/>
      <use xlink:href="#DejaVuSans-43" x="55.208984"/>
      <use xlink:href="#DejaVuSans-54" x="125.033203"/>
     </g>
    </g>
   </g>
   <g id="text_10">
    <g clip-path="url(#p6368f50e85)">
     <!-- TCC -->
     <g transform="translate(472.184442 380.397665) scale(0.12 -0.12)">
      <use xlink:href="#DejaVuSans-54"/>
      <use xlink:href="#DejaVuSans-43" x="55.208984"/>
      <use xlink:href="#DejaVuSans-43" x="125.033203"/>
     </g>
    </g>
   </g>
   <g id="text_11">
    <g clip-path="url(#p6368f50e85)">
     <!-- AGC -->
     <g transform="translate(471.037892 195.024876) scale(0.12 -0.12)">
      <defs>
       <path id="DejaVuSans-41" d="M 2188 4044 
L 1331 1722 
L 3047 1722 
L 2188 4044 
z
M 1831 4666 
L 2547 4666 
L 4325 0 
L 3669 0 
L 3244 1197 
L 1141 1197 
L 716 0 
L 50 0 
L 1831 4666 
z
" transform="scale(0.015625)"/>
       <path id="DejaVuSans-47" d="M 3809 666 
L 3809 1919 
L 2778 1919 
L 2778 2438 
L 4434 2438 
L 4434 434 
Q 4069 175 3628 42 
Q 3188 -91 2688 -91 
Q 1594 -91 976 548 
Q 359 1188 359 2328 
Q 359 3472 976 4111 
Q 1594 4750 2688 4750 
Q 3144 4750 3555 4637 
Q 3966 4525 4313 4306 
L 4313 3634 
Q 3963 3931 3569 4081 
Q 3175 4231 2741 4231 
Q 1884 4231 1454 3753 
Q 1025 3275 1025 2328 
Q 1025 1384 1454 906 
Q 1884 428 2741 428 
Q 3075 428 3337 486 
Q 3600 544 3809 666 
z
" transform="scale(0.015625)"/>
      </defs>
      <use xlink:href="#DejaVuSans-41"/>
      <use xlink:href="#DejaVuSans-47" x="66.658203"/>
      <use xlink:href="#DejaVuSans-43" x="144.148438"/>
     </g>
    </g>
   </g>
   <g id="text_12">
    <g clip-path="url(#p6368f50e85)">
     <!-- TCG -->
     <g transform="translate(326.794723 79.446788) scale(0.12 -0.12)">
      <use xlink:href="#DejaVuSans-54"/>
      <use xlink:href="#DejaVuSans-43" x="55.208984"/>
      <use xlink:href="#DejaVuSans-47" x="125.033203"/>
     </g>
    </g>
   </g>
   <g id="text_13">
    <g clip-path="url(#p6368f50e85)">
     <!-- AGT -->
     <g transform="translate(146.125015 120.696087) scale(0.12 -0.12)">
      <use xlink:href="#DejaVuSans-41"/>
      <use xlink:href="#DejaVuSans-47" x="66.658203"/>
      <use xlink:href="#DejaVuSans-54" x="140.523438"/>
     </g>
    </g>
   </g>
   <g id="legend_1">
    <g id="patch_21">
     <path d="M 14.2 44.55625 
L 116.278125 44.55625 
Q 118.278125 44.55625 118.278125 42.55625 
L 118.278125 14.2 
Q 118.278125 12.2 116.278125 12.2 
L 14.2 12.2 
Q 12.2 12.2 12.2 14.2 
L 12.2 42.55625 
Q 12.2 44.55625 14.2 44.55625 
z
" style="fill: #ffffff; opacity: 0.8; stroke: #cccccc; stroke-linejoin: miter"/>
    </g>
    <g id="patch_22">
     <path d="M 16.2 23.798438 
L 36.2 23.798438 
L 36.2 16.798438 
L 16.2 16.798438 
z
" style="fill: #0000ff"/>
    </g>
    <g id="text_14">
     <!-- Genomic data -->
     <g transform="translate(44.2 23.798438) scale(0.1 -0.1)">
      <defs>
       <path id="DejaVuSans-65" d="M 3597 1894 
L 3597 1613 
L 953 1613 
Q 991 1019 1311 708 
Q 1631 397 2203 397 
Q 2534 397 2845 478 
Q 3156 559 3463 722 
L 3463 178 
Q 3153 47 2828 -22 
Q 2503 -91 2169 -91 
Q 1331 -91 842 396 
Q 353 884 353 1716 
Q 353 2575 817 3079 
Q 1281 3584 2069 3584 
Q 2775 3584 3186 3129 
Q 3597 2675 3597 1894 
z
M 3022 2063 
Q 3016 2534 2758 2815 
Q 2500 3097 2075 3097 
Q 1594 3097 1305 2825 
Q 1016 2553 972 2059 
L 3022 2063 
z
" transform="scale(0.015625)"/>
       <path id="DejaVuSans-6e" d="M 3513 2113 
L 3513 0 
L 2938 0 
L 2938 2094 
Q 2938 2591 2744 2837 
Q 2550 3084 2163 3084 
Q 1697 3084 1428 2787 
Q 1159 2491 1159 1978 
L 1159 0 
L 581 0 
L 581 3500 
L 1159 3500 
L 1159 2956 
Q 1366 3272 1645 3428 
Q 1925 3584 2291 3584 
Q 2894 3584 3203 3211 
Q 3513 2838 3513 2113 
z
" transform="scale(0.015625)"/>
       <path id="DejaVuSans-6f" d="M 1959 3097 
Q 1497 3097 1228 2736 
Q 959 2375 959 1747 
Q 959 1119 1226 758 
Q 1494 397 1959 397 
Q 2419 397 2687 759 
Q 2956 1122 2956 1747 
Q 2956 2369 2687 2733 
Q 2419 3097 1959 3097 
z
M 1959 3584 
Q 2709 3584 3137 3096 
Q 3566 2609 3566 1747 
Q 3566 888 3137 398 
Q 2709 -91 1959 -91 
Q 1206 -91 779 398 
Q 353 888 353 1747 
Q 353 2609 779 3096 
Q 1206 3584 1959 3584 
z
" transform="scale(0.015625)"/>
       <path id="DejaVuSans-6d" d="M 3328 2828 
Q 3544 3216 3844 3400 
Q 4144 3584 4550 3584 
Q 5097 3584 5394 3201 
Q 5691 2819 5691 2113 
L 5691 0 
L 5113 0 
L 5113 2094 
Q 5113 2597 4934 2840 
Q 4756 3084 4391 3084 
Q 3944 3084 3684 2787 
Q 3425 2491 3425 1978 
L 3425 0 
L 2847 0 
L 2847 2094 
Q 2847 2600 2669 2842 
Q 2491 3084 2119 3084 
Q 1678 3084 1418 2786 
Q 1159 2488 1159 1978 
L 1159 0 
L 581 0 
L 581 3500 
L 1159 3500 
L 1159 2956 
Q 1356 3278 1631 3431 
Q 1906 3584 2284 3584 
Q 2666 3584 2933 3390 
Q 3200 3197 3328 2828 
z
" transform="scale(0.015625)"/>
       <path id="DejaVuSans-69" d="M 603 3500 
L 1178 3500 
L 1178 0 
L 603 0 
L 603 3500 
z
M 603 4863 
L 1178 4863 
L 1178 4134 
L 603 4134 
L 603 4863 
z
" transform="scale(0.015625)"/>
       <path id="DejaVuSans-63" d="M 3122 3366 
L 3122 2828 
Q 2878 2963 2633 3030 
Q 2388 3097 2138 3097 
Q 1578 3097 1268 2742 
Q 959 2388 959 1747 
Q 959 1106 1268 751 
Q 1578 397 2138 397 
Q 2388 397 2633 464 
Q 2878 531 3122 666 
L 3122 134 
Q 2881 22 2623 -34 
Q 2366 -91 2075 -91 
Q 1284 -91 818 406 
Q 353 903 353 1747 
Q 353 2603 823 3093 
Q 1294 3584 2113 3584 
Q 2378 3584 2631 3529 
Q 2884 3475 3122 3366 
z
" transform="scale(0.015625)"/>
       <path id="DejaVuSans-20" transform="scale(0.015625)"/>
       <path id="DejaVuSans-64" d="M 2906 2969 
L 2906 4863 
L 3481 4863 
L 3481 0 
L 2906 0 
L 2906 525 
Q 2725 213 2448 61 
Q 2172 -91 1784 -91 
Q 1150 -91 751 415 
Q 353 922 353 1747 
Q 353 2572 751 3078 
Q 1150 3584 1784 3584 
Q 2172 3584 2448 3432 
Q 2725 3281 2906 2969 
z
M 947 1747 
Q 947 1113 1208 752 
Q 1469 391 1925 391 
Q 2381 391 2643 752 
Q 2906 1113 2906 1747 
Q 2906 2381 2643 2742 
Q 2381 3103 1925 3103 
Q 1469 3103 1208 2742 
Q 947 2381 947 1747 
z
" transform="scale(0.015625)"/>
       <path id="DejaVuSans-61" d="M 2194 1759 
Q 1497 1759 1228 1600 
Q 959 1441 959 1056 
Q 959 750 1161 570 
Q 1363 391 1709 391 
Q 2188 391 2477 730 
Q 2766 1069 2766 1631 
L 2766 1759 
L 2194 1759 
z
M 3341 1997 
L 3341 0 
L 2766 0 
L 2766 531 
Q 2569 213 2275 61 
Q 1981 -91 1556 -91 
Q 1019 -91 701 211 
Q 384 513 384 1019 
Q 384 1609 779 1909 
Q 1175 2209 1959 2209 
L 2766 2209 
L 2766 2266 
Q 2766 2663 2505 2880 
Q 2244 3097 1772 3097 
Q 1472 3097 1187 3025 
Q 903 2953 641 2809 
L 641 3341 
Q 956 3463 1253 3523 
Q 1550 3584 1831 3584 
Q 2591 3584 2966 3190 
Q 3341 2797 3341 1997 
z
" transform="scale(0.015625)"/>
       <path id="DejaVuSans-74" d="M 1172 4494 
L 1172 3500 
L 2356 3500 
L 2356 3053 
L 1172 3053 
L 1172 1153 
Q 1172 725 1289 603 
Q 1406 481 1766 481 
L 2356 481 
L 2356 0 
L 1766 0 
Q 1100 0 847 248 
Q 594 497 594 1153 
L 594 3053 
L 172 3053 
L 172 3500 
L 594 3500 
L 594 4494 
L 1172 4494 
z
" transform="scale(0.015625)"/>
      </defs>
      <use xlink:href="#DejaVuSans-47"/>
      <use xlink:href="#DejaVuSans-65" x="77.490234"/>
      <use xlink:href="#DejaVuSans-6e" x="139.013672"/>
      <use xlink:href="#DejaVuSans-6f" x="202.392578"/>
      <use xlink:href="#DejaVuSans-6d" x="263.574219"/>
      <use xlink:href="#DejaVuSans-69" x="360.986328"/>
      <use xlink:href="#DejaVuSans-63" x="388.769531"/>
      <use xlink:href="#DejaVuSans-20" x="443.75"/>
      <use xlink:href="#DejaVuSans-64" x="475.537109"/>
      <use xlink:href="#DejaVuSans-61" x="539.013672"/>
      <use xlink:href="#DejaVuSans-74" x="600.292969"/>
      <use xlink:href="#DejaVuSans-61" x="639.501953"/>
     </g>
    </g>
    <g id="patch_23">
     <path d="M 16.2 38.476563 
L 36.2 38.476563 
L 36.2 31.476563 
L 16.2 31.476563 
z
" style="fill: #ff0000"/>
    </g>
    <g id="text_15">
     <!-- Genetic code -->
     <g transform="translate(44.2 38.476563) scale(0.1 -0.1)">
      <use xlink:href="#DejaVuSans-47"/>
      <use xlink:href="#DejaVuSans-65" x="77.490234"/>
      <use xlink:href="#DejaVuSans-6e" x="139.013672"/>
      <use xlink:href="#DejaVuSans-65" x="202.392578"/>
      <use xlink:href="#DejaVuSans-74" x="263.916016"/>
      <use xlink:href="#DejaVuSans-69" x="303.125"/>
      <use xlink:href="#DejaVuSans-63" x="330.908203"/>
      <use xlink:href="#DejaVuSans-20" x="385.888672"/>
      <use xlink:href="#DejaVuSans-63" x="417.675781"/>
      <use xlink:href="#DejaVuSans-6f" x="472.65625"/>
      <use xlink:href="#DejaVuSans-64" x="533.837891"/>
      <use xlink:href="#DejaVuSans-65" x="597.314453"/>
     </g>
    </g>
   </g>
  </g>
 </g>
 <defs>
  <clipPath id="p6368f50e85">
   <rect x="7.2" y="7.2" width="550.395936" height="554.4"/>
  </clipPath>
 </defs>
</svg>
