<?xml version="1.0" encoding="utf-8" standalone="no"?>
<!DOCTYPE svg PUBLIC "-//W3C//DTD SVG 1.1//EN"
  "http://www.w3.org/Graphics/SVG/1.1/DTD/svg11.dtd">
<svg xmlns:xlink="http://www.w3.org/1999/xlink" width="840.479375pt" height="468.452575pt" viewBox="0 0 840.479375 468.452575" xmlns="http://www.w3.org/2000/svg" version="1.1">
 <metadata>
  <rdf:RDF xmlns:dc="http://purl.org/dc/elements/1.1/" xmlns:cc="http://creativecommons.org/ns#" xmlns:rdf="http://www.w3.org/1999/02/22-rdf-syntax-ns#">
   <cc:Work>
    <dc:type rdf:resource="http://purl.org/dc/dcmitype/StillImage"/>
    <dc:date>2025-05-26T11:10:27.953492</dc:date>
    <dc:format>image/svg+xml</dc:format>
    <dc:creator>
     <cc:Agent>
      <dc:title>Matplotlib v3.9.2, https://matplotlib.org/</dc:title>
     </cc:Agent>
    </dc:creator>
   </cc:Work>
  </rdf:RDF>
 </metadata>
 <defs>
  <style type="text/css">*{stroke-linejoin: round; stroke-linecap: butt}</style>
 </defs>
 <g id="figure_1">
  <g id="patch_1">
   <path d="M 0 468.452575 
L 840.479375 468.452575 
L 840.479375 0 
L 0 0 
z
" style="fill: #ffffff"/>
  </g>
  <g id="axes_1">
   <g id="patch_2">
    <path d="M 52.079375 428.9607 
L 833.279375 428.9607 
L 833.279375 40.8807 
L 52.079375 40.8807 
z
" style="fill: #ffffff"/>
   </g>
   <g id="matplotlib.axis_1">
    <g id="xtick_1">
     <g id="line2d_1">
      <path d="M 71.609375 428.9607 
L 71.609375 40.8807 
" clip-path="url(#p4724250af8)" style="fill: none; stroke: #b0b0b0; stroke-opacity: 0.5; stroke-width: 0.8; stroke-linecap: square"/>
     </g>
     <g id="line2d_2">
      <defs>
       <path id="m5e4686fada" d="M 0 0 
L 0 3.5 
" style="stroke: #000000; stroke-width: 0.8"/>
      </defs>
      <g>
       <use xlink:href="#m5e4686fada" x="71.609375" y="428.9607" style="stroke: #000000; stroke-width: 0.8"/>
      </g>
     </g>
     <g id="text_1">
      <!-- M -->
      <g transform="translate(67.295313 443.559138) scale(0.1 -0.1)">
       <defs>
        <path id="DejaVuSans-4d" d="M 628 4666 
L 1569 4666 
L 2759 1491 
L 3956 4666 
L 4897 4666 
L 4897 0 
L 4281 0 
L 4281 4097 
L 3078 897 
L 2444 897 
L 1241 4097 
L 1241 0 
L 628 0 
L 628 4666 
z
" transform="scale(0.015625)"/>
       </defs>
       <use xlink:href="#DejaVuSans-4d"/>
      </g>
     </g>
    </g>
    <g id="xtick_2">
     <g id="line2d_3">
      <path d="M 110.669375 428.9607 
L 110.669375 40.8807 
" clip-path="url(#p4724250af8)" style="fill: none; stroke: #b0b0b0; stroke-opacity: 0.5; stroke-width: 0.8; stroke-linecap: square"/>
     </g>
     <g id="line2d_4">
      <g>
       <use xlink:href="#m5e4686fada" x="110.669375" y="428.9607" style="stroke: #000000; stroke-width: 0.8"/>
      </g>
     </g>
     <g id="text_2">
      <!-- W -->
      <g transform="translate(105.725625 443.559138) scale(0.1 -0.1)">
       <defs>
        <path id="DejaVuSans-57" d="M 213 4666 
L 850 4666 
L 1831 722 
L 2809 4666 
L 3519 4666 
L 4500 722 
L 5478 4666 
L 6119 4666 
L 4947 0 
L 4153 0 
L 3169 4050 
L 2175 0 
L 1381 0 
L 213 4666 
z
" transform="scale(0.015625)"/>
       </defs>
       <use xlink:href="#DejaVuSans-57"/>
      </g>
     </g>
    </g>
    <g id="xtick_3">
     <g id="line2d_5">
      <path d="M 149.729375 428.9607 
L 149.729375 40.8807 
" clip-path="url(#p4724250af8)" style="fill: none; stroke: #b0b0b0; stroke-opacity: 0.5; stroke-width: 0.8; stroke-linecap: square"/>
     </g>
     <g id="line2d_6">
      <g>
       <use xlink:href="#m5e4686fada" x="149.729375" y="428.9607" style="stroke: #000000; stroke-width: 0.8"/>
      </g>
     </g>
     <g id="text_3">
      <!-- C -->
      <g transform="translate(146.237969 443.559138) scale(0.1 -0.1)">
       <defs>
        <path id="DejaVuSans-43" d="M 4122 4306 
L 4122 3641 
Q 3803 3938 3442 4084 
Q 3081 4231 2675 4231 
Q 1875 4231 1450 3742 
Q 1025 3253 1025 2328 
Q 1025 1406 1450 917 
Q 1875 428 2675 428 
Q 3081 428 3442 575 
Q 3803 722 4122 1019 
L 4122 359 
Q 3791 134 3420 21 
Q 3050 -91 2638 -91 
Q 1578 -91 968 557 
Q 359 1206 359 2328 
Q 359 3453 968 4101 
Q 1578 4750 2638 4750 
Q 3056 4750 3426 4639 
Q 3797 4528 4122 4306 
z
" transform="scale(0.015625)"/>
       </defs>
       <use xlink:href="#DejaVuSans-43"/>
      </g>
     </g>
    </g>
    <g id="xtick_4">
     <g id="line2d_7">
      <path d="M 188.789375 428.9607 
L 188.789375 40.8807 
" clip-path="url(#p4724250af8)" style="fill: none; stroke: #b0b0b0; stroke-opacity: 0.5; stroke-width: 0.8; stroke-linecap: square"/>
     </g>
     <g id="line2d_8">
      <g>
       <use xlink:href="#m5e4686fada" x="188.789375" y="428.9607" style="stroke: #000000; stroke-width: 0.8"/>
      </g>
     </g>
     <g id="text_4">
      <!-- D -->
      <g transform="translate(184.939375 443.559138) scale(0.1 -0.1)">
       <defs>
        <path id="DejaVuSans-44" d="M 1259 4147 
L 1259 519 
L 2022 519 
Q 2988 519 3436 956 
Q 3884 1394 3884 2338 
Q 3884 3275 3436 3711 
Q 2988 4147 2022 4147 
L 1259 4147 
z
M 628 4666 
L 1925 4666 
Q 3281 4666 3915 4102 
Q 4550 3538 4550 2338 
Q 4550 1131 3912 565 
Q 3275 0 1925 0 
L 628 0 
L 628 4666 
z
" transform="scale(0.015625)"/>
       </defs>
       <use xlink:href="#DejaVuSans-44"/>
      </g>
     </g>
    </g>
    <g id="xtick_5">
     <g id="line2d_9">
      <path d="M 227.849375 428.9607 
L 227.849375 40.8807 
" clip-path="url(#p4724250af8)" style="fill: none; stroke: #b0b0b0; stroke-opacity: 0.5; stroke-width: 0.8; stroke-linecap: square"/>
     </g>
     <g id="line2d_10">
      <g>
       <use xlink:href="#m5e4686fada" x="227.849375" y="428.9607" style="stroke: #000000; stroke-width: 0.8"/>
      </g>
     </g>
     <g id="text_5">
      <!-- E -->
      <g transform="translate(224.69 443.559138) scale(0.1 -0.1)">
       <defs>
        <path id="DejaVuSans-45" d="M 628 4666 
L 3578 4666 
L 3578 4134 
L 1259 4134 
L 1259 2753 
L 3481 2753 
L 3481 2222 
L 1259 2222 
L 1259 531 
L 3634 531 
L 3634 0 
L 628 0 
L 628 4666 
z
" transform="scale(0.015625)"/>
       </defs>
       <use xlink:href="#DejaVuSans-45"/>
      </g>
     </g>
    </g>
    <g id="xtick_6">
     <g id="line2d_11">
      <path d="M 266.909375 428.9607 
L 266.909375 40.8807 
" clip-path="url(#p4724250af8)" style="fill: none; stroke: #b0b0b0; stroke-opacity: 0.5; stroke-width: 0.8; stroke-linecap: square"/>
     </g>
     <g id="line2d_12">
      <g>
       <use xlink:href="#m5e4686fada" x="266.909375" y="428.9607" style="stroke: #000000; stroke-width: 0.8"/>
      </g>
     </g>
     <g id="text_6">
      <!-- F -->
      <g transform="translate(264.033594 443.559138) scale(0.1 -0.1)">
       <defs>
        <path id="DejaVuSans-46" d="M 628 4666 
L 3309 4666 
L 3309 4134 
L 1259 4134 
L 1259 2759 
L 3109 2759 
L 3109 2228 
L 1259 2228 
L 1259 0 
L 628 0 
L 628 4666 
z
" transform="scale(0.015625)"/>
       </defs>
       <use xlink:href="#DejaVuSans-46"/>
      </g>
     </g>
    </g>
    <g id="xtick_7">
     <g id="line2d_13">
      <path d="M 305.969375 428.9607 
L 305.969375 40.8807 
" clip-path="url(#p4724250af8)" style="fill: none; stroke: #b0b0b0; stroke-opacity: 0.5; stroke-width: 0.8; stroke-linecap: square"/>
     </g>
     <g id="line2d_14">
      <g>
       <use xlink:href="#m5e4686fada" x="305.969375" y="428.9607" style="stroke: #000000; stroke-width: 0.8"/>
      </g>
     </g>
     <g id="text_7">
      <!-- H -->
      <g transform="translate(302.209219 443.559138) scale(0.1 -0.1)">
       <defs>
        <path id="DejaVuSans-48" d="M 628 4666 
L 1259 4666 
L 1259 2753 
L 3553 2753 
L 3553 4666 
L 4184 4666 
L 4184 0 
L 3553 0 
L 3553 2222 
L 1259 2222 
L 1259 0 
L 628 0 
L 628 4666 
z
" transform="scale(0.015625)"/>
       </defs>
       <use xlink:href="#DejaVuSans-48"/>
      </g>
     </g>
    </g>
    <g id="xtick_8">
     <g id="line2d_15">
      <path d="M 345.029375 428.9607 
L 345.029375 40.8807 
" clip-path="url(#p4724250af8)" style="fill: none; stroke: #b0b0b0; stroke-opacity: 0.5; stroke-width: 0.8; stroke-linecap: square"/>
     </g>
     <g id="line2d_16">
      <g>
       <use xlink:href="#m5e4686fada" x="345.029375" y="428.9607" style="stroke: #000000; stroke-width: 0.8"/>
      </g>
     </g>
     <g id="text_8">
      <!-- K -->
      <g transform="translate(341.750469 443.559138) scale(0.1 -0.1)">
       <defs>
        <path id="DejaVuSans-4b" d="M 628 4666 
L 1259 4666 
L 1259 2694 
L 3353 4666 
L 4166 4666 
L 1850 2491 
L 4331 0 
L 3500 0 
L 1259 2247 
L 1259 0 
L 628 0 
L 628 4666 
z
" transform="scale(0.015625)"/>
       </defs>
       <use xlink:href="#DejaVuSans-4b"/>
      </g>
     </g>
    </g>
    <g id="xtick_9">
     <g id="line2d_17">
      <path d="M 384.089375 428.9607 
L 384.089375 40.8807 
" clip-path="url(#p4724250af8)" style="fill: none; stroke: #b0b0b0; stroke-opacity: 0.5; stroke-width: 0.8; stroke-linecap: square"/>
     </g>
     <g id="line2d_18">
      <g>
       <use xlink:href="#m5e4686fada" x="384.089375" y="428.9607" style="stroke: #000000; stroke-width: 0.8"/>
      </g>
     </g>
     <g id="text_9">
      <!-- N -->
      <g transform="translate(380.34875 443.559138) scale(0.1 -0.1)">
       <defs>
        <path id="DejaVuSans-4e" d="M 628 4666 
L 1478 4666 
L 3547 763 
L 3547 4666 
L 4159 4666 
L 4159 0 
L 3309 0 
L 1241 3903 
L 1241 0 
L 628 0 
L 628 4666 
z
" transform="scale(0.015625)"/>
       </defs>
       <use xlink:href="#DejaVuSans-4e"/>
      </g>
     </g>
    </g>
    <g id="xtick_10">
     <g id="line2d_19">
      <path d="M 423.149375 428.9607 
L 423.149375 40.8807 
" clip-path="url(#p4724250af8)" style="fill: none; stroke: #b0b0b0; stroke-opacity: 0.5; stroke-width: 0.8; stroke-linecap: square"/>
     </g>
     <g id="line2d_20">
      <g>
       <use xlink:href="#m5e4686fada" x="423.149375" y="428.9607" style="stroke: #000000; stroke-width: 0.8"/>
      </g>
     </g>
     <g id="text_10">
      <!-- Q -->
      <g transform="translate(419.213437 443.559138) scale(0.1 -0.1)">
       <defs>
        <path id="DejaVuSans-51" d="M 2522 4238 
Q 1834 4238 1429 3725 
Q 1025 3213 1025 2328 
Q 1025 1447 1429 934 
Q 1834 422 2522 422 
Q 3209 422 3611 934 
Q 4013 1447 4013 2328 
Q 4013 3213 3611 3725 
Q 3209 4238 2522 4238 
z
M 3406 84 
L 4238 -825 
L 3475 -825 
L 2784 -78 
Q 2681 -84 2626 -87 
Q 2572 -91 2522 -91 
Q 1538 -91 948 567 
Q 359 1225 359 2328 
Q 359 3434 948 4092 
Q 1538 4750 2522 4750 
Q 3503 4750 4090 4092 
Q 4678 3434 4678 2328 
Q 4678 1516 4351 937 
Q 4025 359 3406 84 
z
" transform="scale(0.015625)"/>
       </defs>
       <use xlink:href="#DejaVuSans-51"/>
      </g>
     </g>
    </g>
    <g id="xtick_11">
     <g id="line2d_21">
      <path d="M 462.209375 428.9607 
L 462.209375 40.8807 
" clip-path="url(#p4724250af8)" style="fill: none; stroke: #b0b0b0; stroke-opacity: 0.5; stroke-width: 0.8; stroke-linecap: square"/>
     </g>
     <g id="line2d_22">
      <g>
       <use xlink:href="#m5e4686fada" x="462.209375" y="428.9607" style="stroke: #000000; stroke-width: 0.8"/>
      </g>
     </g>
     <g id="text_11">
      <!-- Y -->
      <g transform="translate(459.155469 443.559138) scale(0.1 -0.1)">
       <defs>
        <path id="DejaVuSans-59" d="M -13 4666 
L 666 4666 
L 1959 2747 
L 3244 4666 
L 3922 4666 
L 2272 2222 
L 2272 0 
L 1638 0 
L 1638 2222 
L -13 4666 
z
" transform="scale(0.015625)"/>
       </defs>
       <use xlink:href="#DejaVuSans-59"/>
      </g>
     </g>
    </g>
    <g id="xtick_12">
     <g id="line2d_23">
      <path d="M 501.269375 428.9607 
L 501.269375 40.8807 
" clip-path="url(#p4724250af8)" style="fill: none; stroke: #b0b0b0; stroke-opacity: 0.5; stroke-width: 0.8; stroke-linecap: square"/>
     </g>
     <g id="line2d_24">
      <g>
       <use xlink:href="#m5e4686fada" x="501.269375" y="428.9607" style="stroke: #000000; stroke-width: 0.8"/>
      </g>
     </g>
     <g id="text_12">
      <!-- I -->
      <g transform="translate(499.794375 443.559138) scale(0.1 -0.1)">
       <defs>
        <path id="DejaVuSans-49" d="M 628 4666 
L 1259 4666 
L 1259 0 
L 628 0 
L 628 4666 
z
" transform="scale(0.015625)"/>
       </defs>
       <use xlink:href="#DejaVuSans-49"/>
      </g>
     </g>
    </g>
    <g id="xtick_13">
     <g id="line2d_25">
      <path d="M 540.329375 428.9607 
L 540.329375 40.8807 
" clip-path="url(#p4724250af8)" style="fill: none; stroke: #b0b0b0; stroke-opacity: 0.5; stroke-width: 0.8; stroke-linecap: square"/>
     </g>
     <g id="line2d_26">
      <g>
       <use xlink:href="#m5e4686fada" x="540.329375" y="428.9607" style="stroke: #000000; stroke-width: 0.8"/>
      </g>
     </g>
     <g id="text_13">
      <!-- A -->
      <g transform="translate(536.909063 443.559138) scale(0.1 -0.1)">
       <defs>
        <path id="DejaVuSans-41" d="M 2188 4044 
L 1331 1722 
L 3047 1722 
L 2188 4044 
z
M 1831 4666 
L 2547 4666 
L 4325 0 
L 3669 0 
L 3244 1197 
L 1141 1197 
L 716 0 
L 50 0 
L 1831 4666 
z
" transform="scale(0.015625)"/>
       </defs>
       <use xlink:href="#DejaVuSans-41"/>
      </g>
     </g>
    </g>
    <g id="xtick_14">
     <g id="line2d_27">
      <path d="M 579.389375 428.9607 
L 579.389375 40.8807 
" clip-path="url(#p4724250af8)" style="fill: none; stroke: #b0b0b0; stroke-opacity: 0.5; stroke-width: 0.8; stroke-linecap: square"/>
     </g>
     <g id="line2d_28">
      <g>
       <use xlink:href="#m5e4686fada" x="579.389375" y="428.9607" style="stroke: #000000; stroke-width: 0.8"/>
      </g>
     </g>
     <g id="text_14">
      <!-- G -->
      <g transform="translate(575.515156 443.559138) scale(0.1 -0.1)">
       <defs>
        <path id="DejaVuSans-47" d="M 3809 666 
L 3809 1919 
L 2778 1919 
L 2778 2438 
L 4434 2438 
L 4434 434 
Q 4069 175 3628 42 
Q 3188 -91 2688 -91 
Q 1594 -91 976 548 
Q 359 1188 359 2328 
Q 359 3472 976 4111 
Q 1594 4750 2688 4750 
Q 3144 4750 3555 4637 
Q 3966 4525 4313 4306 
L 4313 3634 
Q 3963 3931 3569 4081 
Q 3175 4231 2741 4231 
Q 1884 4231 1454 3753 
Q 1025 3275 1025 2328 
Q 1025 1384 1454 906 
Q 1884 428 2741 428 
Q 3075 428 3337 486 
Q 3600 544 3809 666 
z
" transform="scale(0.015625)"/>
       </defs>
       <use xlink:href="#DejaVuSans-47"/>
      </g>
     </g>
    </g>
    <g id="xtick_15">
     <g id="line2d_29">
      <path d="M 618.449375 428.9607 
L 618.449375 40.8807 
" clip-path="url(#p4724250af8)" style="fill: none; stroke: #b0b0b0; stroke-opacity: 0.5; stroke-width: 0.8; stroke-linecap: square"/>
     </g>
     <g id="line2d_30">
      <g>
       <use xlink:href="#m5e4686fada" x="618.449375" y="428.9607" style="stroke: #000000; stroke-width: 0.8"/>
      </g>
     </g>
     <g id="text_15">
      <!-- P -->
      <g transform="translate(615.434531 443.559138) scale(0.1 -0.1)">
       <defs>
        <path id="DejaVuSans-50" d="M 1259 4147 
L 1259 2394 
L 2053 2394 
Q 2494 2394 2734 2622 
Q 2975 2850 2975 3272 
Q 2975 3691 2734 3919 
Q 2494 4147 2053 4147 
L 1259 4147 
z
M 628 4666 
L 2053 4666 
Q 2838 4666 3239 4311 
Q 3641 3956 3641 3272 
Q 3641 2581 3239 2228 
Q 2838 1875 2053 1875 
L 1259 1875 
L 1259 0 
L 628 0 
L 628 4666 
z
" transform="scale(0.015625)"/>
       </defs>
       <use xlink:href="#DejaVuSans-50"/>
      </g>
     </g>
    </g>
    <g id="xtick_16">
     <g id="line2d_31">
      <path d="M 657.509375 428.9607 
L 657.509375 40.8807 
" clip-path="url(#p4724250af8)" style="fill: none; stroke: #b0b0b0; stroke-opacity: 0.5; stroke-width: 0.8; stroke-linecap: square"/>
     </g>
     <g id="line2d_32">
      <g>
       <use xlink:href="#m5e4686fada" x="657.509375" y="428.9607" style="stroke: #000000; stroke-width: 0.8"/>
      </g>
     </g>
     <g id="text_16">
      <!-- T -->
      <g transform="translate(654.455469 443.559138) scale(0.1 -0.1)">
       <defs>
        <path id="DejaVuSans-54" d="M -19 4666 
L 3928 4666 
L 3928 4134 
L 2272 4134 
L 2272 0 
L 1638 0 
L 1638 4134 
L -19 4134 
L -19 4666 
z
" transform="scale(0.015625)"/>
       </defs>
       <use xlink:href="#DejaVuSans-54"/>
      </g>
     </g>
    </g>
    <g id="xtick_17">
     <g id="line2d_33">
      <path d="M 696.569375 428.9607 
L 696.569375 40.8807 
" clip-path="url(#p4724250af8)" style="fill: none; stroke: #b0b0b0; stroke-opacity: 0.5; stroke-width: 0.8; stroke-linecap: square"/>
     </g>
     <g id="line2d_34">
      <g>
       <use xlink:href="#m5e4686fada" x="696.569375" y="428.9607" style="stroke: #000000; stroke-width: 0.8"/>
      </g>
     </g>
     <g id="text_17">
      <!-- V -->
      <g transform="translate(693.149063 443.559138) scale(0.1 -0.1)">
       <defs>
        <path id="DejaVuSans-56" d="M 1831 0 
L 50 4666 
L 709 4666 
L 2188 738 
L 3669 4666 
L 4325 4666 
L 2547 0 
L 1831 0 
z
" transform="scale(0.015625)"/>
       </defs>
       <use xlink:href="#DejaVuSans-56"/>
      </g>
     </g>
    </g>
    <g id="xtick_18">
     <g id="line2d_35">
      <path d="M 735.629375 428.9607 
L 735.629375 40.8807 
" clip-path="url(#p4724250af8)" style="fill: none; stroke: #b0b0b0; stroke-opacity: 0.5; stroke-width: 0.8; stroke-linecap: square"/>
     </g>
     <g id="line2d_36">
      <g>
       <use xlink:href="#m5e4686fada" x="735.629375" y="428.9607" style="stroke: #000000; stroke-width: 0.8"/>
      </g>
     </g>
     <g id="text_18">
      <!-- L -->
      <g transform="translate(732.843437 443.559138) scale(0.1 -0.1)">
       <defs>
        <path id="DejaVuSans-4c" d="M 628 4666 
L 1259 4666 
L 1259 531 
L 3531 531 
L 3531 0 
L 628 0 
L 628 4666 
z
" transform="scale(0.015625)"/>
       </defs>
       <use xlink:href="#DejaVuSans-4c"/>
      </g>
     </g>
    </g>
    <g id="xtick_19">
     <g id="line2d_37">
      <path d="M 774.689375 428.9607 
L 774.689375 40.8807 
" clip-path="url(#p4724250af8)" style="fill: none; stroke: #b0b0b0; stroke-opacity: 0.5; stroke-width: 0.8; stroke-linecap: square"/>
     </g>
     <g id="line2d_38">
      <g>
       <use xlink:href="#m5e4686fada" x="774.689375" y="428.9607" style="stroke: #000000; stroke-width: 0.8"/>
      </g>
     </g>
     <g id="text_19">
      <!-- R -->
      <g transform="translate(771.215156 443.559138) scale(0.1 -0.1)">
       <defs>
        <path id="DejaVuSans-52" d="M 2841 2188 
Q 3044 2119 3236 1894 
Q 3428 1669 3622 1275 
L 4263 0 
L 3584 0 
L 2988 1197 
Q 2756 1666 2539 1819 
Q 2322 1972 1947 1972 
L 1259 1972 
L 1259 0 
L 628 0 
L 628 4666 
L 2053 4666 
Q 2853 4666 3247 4331 
Q 3641 3997 3641 3322 
Q 3641 2881 3436 2590 
Q 3231 2300 2841 2188 
z
M 1259 4147 
L 1259 2491 
L 2053 2491 
Q 2509 2491 2742 2702 
Q 2975 2913 2975 3322 
Q 2975 3731 2742 3939 
Q 2509 4147 2053 4147 
L 1259 4147 
z
" transform="scale(0.015625)"/>
       </defs>
       <use xlink:href="#DejaVuSans-52"/>
      </g>
     </g>
    </g>
    <g id="xtick_20">
     <g id="line2d_39">
      <path d="M 813.749375 428.9607 
L 813.749375 40.8807 
" clip-path="url(#p4724250af8)" style="fill: none; stroke: #b0b0b0; stroke-opacity: 0.5; stroke-width: 0.8; stroke-linecap: square"/>
     </g>
     <g id="line2d_40">
      <g>
       <use xlink:href="#m5e4686fada" x="813.749375" y="428.9607" style="stroke: #000000; stroke-width: 0.8"/>
      </g>
     </g>
     <g id="text_20">
      <!-- S -->
      <g transform="translate(810.575156 443.559138) scale(0.1 -0.1)">
       <defs>
        <path id="DejaVuSans-53" d="M 3425 4513 
L 3425 3897 
Q 3066 4069 2747 4153 
Q 2428 4238 2131 4238 
Q 1616 4238 1336 4038 
Q 1056 3838 1056 3469 
Q 1056 3159 1242 3001 
Q 1428 2844 1947 2747 
L 2328 2669 
Q 3034 2534 3370 2195 
Q 3706 1856 3706 1288 
Q 3706 609 3251 259 
Q 2797 -91 1919 -91 
Q 1588 -91 1214 -16 
Q 841 59 441 206 
L 441 856 
Q 825 641 1194 531 
Q 1563 422 1919 422 
Q 2459 422 2753 634 
Q 3047 847 3047 1241 
Q 3047 1584 2836 1778 
Q 2625 1972 2144 2069 
L 1759 2144 
Q 1053 2284 737 2584 
Q 422 2884 422 3419 
Q 422 4038 858 4394 
Q 1294 4750 2059 4750 
Q 2388 4750 2728 4690 
Q 3069 4631 3425 4513 
z
" transform="scale(0.015625)"/>
       </defs>
       <use xlink:href="#DejaVuSans-53"/>
      </g>
     </g>
    </g>
    <g id="text_21">
     <!-- Amino acid -->
     <g transform="translate(405.287188 458.75695) scale(0.12 -0.12)">
      <defs>
       <path id="DejaVuSans-Bold-41" d="M 3419 850 
L 1538 850 
L 1241 0 
L 31 0 
L 1759 4666 
L 3194 4666 
L 4922 0 
L 3713 0 
L 3419 850 
z
M 1838 1716 
L 3116 1716 
L 2478 3572 
L 1838 1716 
z
" transform="scale(0.015625)"/>
       <path id="DejaVuSans-Bold-6d" d="M 3781 2919 
Q 3994 3244 4286 3414 
Q 4578 3584 4928 3584 
Q 5531 3584 5847 3212 
Q 6163 2841 6163 2131 
L 6163 0 
L 5038 0 
L 5038 1825 
Q 5041 1866 5042 1909 
Q 5044 1953 5044 2034 
Q 5044 2406 4934 2573 
Q 4825 2741 4581 2741 
Q 4263 2741 4089 2478 
Q 3916 2216 3909 1719 
L 3909 0 
L 2784 0 
L 2784 1825 
Q 2784 2406 2684 2573 
Q 2584 2741 2328 2741 
Q 2006 2741 1831 2477 
Q 1656 2213 1656 1722 
L 1656 0 
L 531 0 
L 531 3500 
L 1656 3500 
L 1656 2988 
Q 1863 3284 2130 3434 
Q 2397 3584 2719 3584 
Q 3081 3584 3359 3409 
Q 3638 3234 3781 2919 
z
" transform="scale(0.015625)"/>
       <path id="DejaVuSans-Bold-69" d="M 538 3500 
L 1656 3500 
L 1656 0 
L 538 0 
L 538 3500 
z
M 538 4863 
L 1656 4863 
L 1656 3950 
L 538 3950 
L 538 4863 
z
" transform="scale(0.015625)"/>
       <path id="DejaVuSans-Bold-6e" d="M 4056 2131 
L 4056 0 
L 2931 0 
L 2931 347 
L 2931 1631 
Q 2931 2084 2911 2256 
Q 2891 2428 2841 2509 
Q 2775 2619 2662 2680 
Q 2550 2741 2406 2741 
Q 2056 2741 1856 2470 
Q 1656 2200 1656 1722 
L 1656 0 
L 538 0 
L 538 3500 
L 1656 3500 
L 1656 2988 
Q 1909 3294 2193 3439 
Q 2478 3584 2822 3584 
Q 3428 3584 3742 3212 
Q 4056 2841 4056 2131 
z
" transform="scale(0.015625)"/>
       <path id="DejaVuSans-Bold-6f" d="M 2203 2784 
Q 1831 2784 1636 2517 
Q 1441 2250 1441 1747 
Q 1441 1244 1636 976 
Q 1831 709 2203 709 
Q 2569 709 2762 976 
Q 2956 1244 2956 1747 
Q 2956 2250 2762 2517 
Q 2569 2784 2203 2784 
z
M 2203 3584 
Q 3106 3584 3614 3096 
Q 4122 2609 4122 1747 
Q 4122 884 3614 396 
Q 3106 -91 2203 -91 
Q 1297 -91 786 396 
Q 275 884 275 1747 
Q 275 2609 786 3096 
Q 1297 3584 2203 3584 
z
" transform="scale(0.015625)"/>
       <path id="DejaVuSans-Bold-20" transform="scale(0.015625)"/>
       <path id="DejaVuSans-Bold-61" d="M 2106 1575 
Q 1756 1575 1579 1456 
Q 1403 1338 1403 1106 
Q 1403 894 1545 773 
Q 1688 653 1941 653 
Q 2256 653 2472 879 
Q 2688 1106 2688 1447 
L 2688 1575 
L 2106 1575 
z
M 3816 1997 
L 3816 0 
L 2688 0 
L 2688 519 
Q 2463 200 2181 54 
Q 1900 -91 1497 -91 
Q 953 -91 614 226 
Q 275 544 275 1050 
Q 275 1666 698 1953 
Q 1122 2241 2028 2241 
L 2688 2241 
L 2688 2328 
Q 2688 2594 2478 2717 
Q 2269 2841 1825 2841 
Q 1466 2841 1156 2769 
Q 847 2697 581 2553 
L 581 3406 
Q 941 3494 1303 3539 
Q 1666 3584 2028 3584 
Q 2975 3584 3395 3211 
Q 3816 2838 3816 1997 
z
" transform="scale(0.015625)"/>
       <path id="DejaVuSans-Bold-63" d="M 3366 3391 
L 3366 2478 
Q 3138 2634 2908 2709 
Q 2678 2784 2431 2784 
Q 1963 2784 1702 2511 
Q 1441 2238 1441 1747 
Q 1441 1256 1702 982 
Q 1963 709 2431 709 
Q 2694 709 2930 787 
Q 3166 866 3366 1019 
L 3366 103 
Q 3103 6 2833 -42 
Q 2563 -91 2291 -91 
Q 1344 -91 809 395 
Q 275 881 275 1747 
Q 275 2613 809 3098 
Q 1344 3584 2291 3584 
Q 2566 3584 2833 3536 
Q 3100 3488 3366 3391 
z
" transform="scale(0.015625)"/>
       <path id="DejaVuSans-Bold-64" d="M 2919 2988 
L 2919 4863 
L 4044 4863 
L 4044 0 
L 2919 0 
L 2919 506 
Q 2688 197 2409 53 
Q 2131 -91 1766 -91 
Q 1119 -91 703 423 
Q 288 938 288 1747 
Q 288 2556 703 3070 
Q 1119 3584 1766 3584 
Q 2128 3584 2408 3439 
Q 2688 3294 2919 2988 
z
M 2181 722 
Q 2541 722 2730 984 
Q 2919 1247 2919 1747 
Q 2919 2247 2730 2509 
Q 2541 2772 2181 2772 
Q 1825 2772 1636 2509 
Q 1447 2247 1447 1747 
Q 1447 1247 1636 984 
Q 1825 722 2181 722 
z
" transform="scale(0.015625)"/>
      </defs>
      <use xlink:href="#DejaVuSans-Bold-41"/>
      <use xlink:href="#DejaVuSans-Bold-6d" x="77.392578"/>
      <use xlink:href="#DejaVuSans-Bold-69" x="181.591797"/>
      <use xlink:href="#DejaVuSans-Bold-6e" x="215.869141"/>
      <use xlink:href="#DejaVuSans-Bold-6f" x="287.060547"/>
      <use xlink:href="#DejaVuSans-Bold-20" x="355.761719"/>
      <use xlink:href="#DejaVuSans-Bold-61" x="390.576172"/>
      <use xlink:href="#DejaVuSans-Bold-63" x="458.056641"/>
      <use xlink:href="#DejaVuSans-Bold-69" x="517.333984"/>
      <use xlink:href="#DejaVuSans-Bold-64" x="551.611328"/>
     </g>
    </g>
   </g>
   <g id="matplotlib.axis_2">
    <g id="ytick_1">
     <g id="line2d_41">
      <path d="M 52.079375 428.9607 
L 833.279375 428.9607 
" clip-path="url(#p4724250af8)" style="fill: none; stroke: #b0b0b0; stroke-opacity: 0.5; stroke-width: 0.8; stroke-linecap: square"/>
     </g>
     <g id="line2d_42">
      <defs>
       <path id="m9e3bdb81b4" d="M 0 0 
L -3.5 0 
" style="stroke: #000000; stroke-width: 0.8"/>
      </defs>
      <g>
       <use xlink:href="#m9e3bdb81b4" x="52.079375" y="428.9607" style="stroke: #000000; stroke-width: 0.8"/>
      </g>
     </g>
     <g id="text_22">
      <!-- 0.00 -->
      <g transform="translate(22.81375 432.759919) scale(0.1 -0.1)">
       <defs>
        <path id="DejaVuSans-30" d="M 2034 4250 
Q 1547 4250 1301 3770 
Q 1056 3291 1056 2328 
Q 1056 1369 1301 889 
Q 1547 409 2034 409 
Q 2525 409 2770 889 
Q 3016 1369 3016 2328 
Q 3016 3291 2770 3770 
Q 2525 4250 2034 4250 
z
M 2034 4750 
Q 2819 4750 3233 4129 
Q 3647 3509 3647 2328 
Q 3647 1150 3233 529 
Q 2819 -91 2034 -91 
Q 1250 -91 836 529 
Q 422 1150 422 2328 
Q 422 3509 836 4129 
Q 1250 4750 2034 4750 
z
" transform="scale(0.015625)"/>
        <path id="DejaVuSans-2e" d="M 684 794 
L 1344 794 
L 1344 0 
L 684 0 
L 684 794 
z
" transform="scale(0.015625)"/>
       </defs>
       <use xlink:href="#DejaVuSans-30"/>
       <use xlink:href="#DejaVuSans-2e" x="63.623047"/>
       <use xlink:href="#DejaVuSans-30" x="95.410156"/>
       <use xlink:href="#DejaVuSans-30" x="159.033203"/>
      </g>
     </g>
    </g>
    <g id="ytick_2">
     <g id="line2d_43">
      <path d="M 52.079375 372.600084 
L 833.279375 372.600084 
" clip-path="url(#p4724250af8)" style="fill: none; stroke: #b0b0b0; stroke-opacity: 0.5; stroke-width: 0.8; stroke-linecap: square"/>
     </g>
     <g id="line2d_44">
      <g>
       <use xlink:href="#m9e3bdb81b4" x="52.079375" y="372.600084" style="stroke: #000000; stroke-width: 0.8"/>
      </g>
     </g>
     <g id="text_23">
      <!-- 0.02 -->
      <g transform="translate(22.81375 376.399302) scale(0.1 -0.1)">
       <defs>
        <path id="DejaVuSans-32" d="M 1228 531 
L 3431 531 
L 3431 0 
L 469 0 
L 469 531 
Q 828 903 1448 1529 
Q 2069 2156 2228 2338 
Q 2531 2678 2651 2914 
Q 2772 3150 2772 3378 
Q 2772 3750 2511 3984 
Q 2250 4219 1831 4219 
Q 1534 4219 1204 4116 
Q 875 4013 500 3803 
L 500 4441 
Q 881 4594 1212 4672 
Q 1544 4750 1819 4750 
Q 2544 4750 2975 4387 
Q 3406 4025 3406 3419 
Q 3406 3131 3298 2873 
Q 3191 2616 2906 2266 
Q 2828 2175 2409 1742 
Q 1991 1309 1228 531 
z
" transform="scale(0.015625)"/>
       </defs>
       <use xlink:href="#DejaVuSans-30"/>
       <use xlink:href="#DejaVuSans-2e" x="63.623047"/>
       <use xlink:href="#DejaVuSans-30" x="95.410156"/>
       <use xlink:href="#DejaVuSans-32" x="159.033203"/>
      </g>
     </g>
    </g>
    <g id="ytick_3">
     <g id="line2d_45">
      <path d="M 52.079375 316.239467 
L 833.279375 316.239467 
" clip-path="url(#p4724250af8)" style="fill: none; stroke: #b0b0b0; stroke-opacity: 0.5; stroke-width: 0.8; stroke-linecap: square"/>
     </g>
     <g id="line2d_46">
      <g>
       <use xlink:href="#m9e3bdb81b4" x="52.079375" y="316.239467" style="stroke: #000000; stroke-width: 0.8"/>
      </g>
     </g>
     <g id="text_24">
      <!-- 0.04 -->
      <g transform="translate(22.81375 320.038686) scale(0.1 -0.1)">
       <defs>
        <path id="DejaVuSans-34" d="M 2419 4116 
L 825 1625 
L 2419 1625 
L 2419 4116 
z
M 2253 4666 
L 3047 4666 
L 3047 1625 
L 3713 1625 
L 3713 1100 
L 3047 1100 
L 3047 0 
L 2419 0 
L 2419 1100 
L 313 1100 
L 313 1709 
L 2253 4666 
z
" transform="scale(0.015625)"/>
       </defs>
       <use xlink:href="#DejaVuSans-30"/>
       <use xlink:href="#DejaVuSans-2e" x="63.623047"/>
       <use xlink:href="#DejaVuSans-30" x="95.410156"/>
       <use xlink:href="#DejaVuSans-34" x="159.033203"/>
      </g>
     </g>
    </g>
    <g id="ytick_4">
     <g id="line2d_47">
      <path d="M 52.079375 259.878851 
L 833.279375 259.878851 
" clip-path="url(#p4724250af8)" style="fill: none; stroke: #b0b0b0; stroke-opacity: 0.5; stroke-width: 0.8; stroke-linecap: square"/>
     </g>
     <g id="line2d_48">
      <g>
       <use xlink:href="#m9e3bdb81b4" x="52.079375" y="259.878851" style="stroke: #000000; stroke-width: 0.8"/>
      </g>
     </g>
     <g id="text_25">
      <!-- 0.06 -->
      <g transform="translate(22.81375 263.67807) scale(0.1 -0.1)">
       <defs>
        <path id="DejaVuSans-36" d="M 2113 2584 
Q 1688 2584 1439 2293 
Q 1191 2003 1191 1497 
Q 1191 994 1439 701 
Q 1688 409 2113 409 
Q 2538 409 2786 701 
Q 3034 994 3034 1497 
Q 3034 2003 2786 2293 
Q 2538 2584 2113 2584 
z
M 3366 4563 
L 3366 3988 
Q 3128 4100 2886 4159 
Q 2644 4219 2406 4219 
Q 1781 4219 1451 3797 
Q 1122 3375 1075 2522 
Q 1259 2794 1537 2939 
Q 1816 3084 2150 3084 
Q 2853 3084 3261 2657 
Q 3669 2231 3669 1497 
Q 3669 778 3244 343 
Q 2819 -91 2113 -91 
Q 1303 -91 875 529 
Q 447 1150 447 2328 
Q 447 3434 972 4092 
Q 1497 4750 2381 4750 
Q 2619 4750 2861 4703 
Q 3103 4656 3366 4563 
z
" transform="scale(0.015625)"/>
       </defs>
       <use xlink:href="#DejaVuSans-30"/>
       <use xlink:href="#DejaVuSans-2e" x="63.623047"/>
       <use xlink:href="#DejaVuSans-30" x="95.410156"/>
       <use xlink:href="#DejaVuSans-36" x="159.033203"/>
      </g>
     </g>
    </g>
    <g id="ytick_5">
     <g id="line2d_49">
      <path d="M 52.079375 203.518234 
L 833.279375 203.518234 
" clip-path="url(#p4724250af8)" style="fill: none; stroke: #b0b0b0; stroke-opacity: 0.5; stroke-width: 0.8; stroke-linecap: square"/>
     </g>
     <g id="line2d_50">
      <g>
       <use xlink:href="#m9e3bdb81b4" x="52.079375" y="203.518234" style="stroke: #000000; stroke-width: 0.8"/>
      </g>
     </g>
     <g id="text_26">
      <!-- 0.08 -->
      <g transform="translate(22.81375 207.317453) scale(0.1 -0.1)">
       <defs>
        <path id="DejaVuSans-38" d="M 2034 2216 
Q 1584 2216 1326 1975 
Q 1069 1734 1069 1313 
Q 1069 891 1326 650 
Q 1584 409 2034 409 
Q 2484 409 2743 651 
Q 3003 894 3003 1313 
Q 3003 1734 2745 1975 
Q 2488 2216 2034 2216 
z
M 1403 2484 
Q 997 2584 770 2862 
Q 544 3141 544 3541 
Q 544 4100 942 4425 
Q 1341 4750 2034 4750 
Q 2731 4750 3128 4425 
Q 3525 4100 3525 3541 
Q 3525 3141 3298 2862 
Q 3072 2584 2669 2484 
Q 3125 2378 3379 2068 
Q 3634 1759 3634 1313 
Q 3634 634 3220 271 
Q 2806 -91 2034 -91 
Q 1263 -91 848 271 
Q 434 634 434 1313 
Q 434 1759 690 2068 
Q 947 2378 1403 2484 
z
M 1172 3481 
Q 1172 3119 1398 2916 
Q 1625 2713 2034 2713 
Q 2441 2713 2670 2916 
Q 2900 3119 2900 3481 
Q 2900 3844 2670 4047 
Q 2441 4250 2034 4250 
Q 1625 4250 1398 4047 
Q 1172 3844 1172 3481 
z
" transform="scale(0.015625)"/>
       </defs>
       <use xlink:href="#DejaVuSans-30"/>
       <use xlink:href="#DejaVuSans-2e" x="63.623047"/>
       <use xlink:href="#DejaVuSans-30" x="95.410156"/>
       <use xlink:href="#DejaVuSans-38" x="159.033203"/>
      </g>
     </g>
    </g>
    <g id="ytick_6">
     <g id="line2d_51">
      <path d="M 52.079375 147.157618 
L 833.279375 147.157618 
" clip-path="url(#p4724250af8)" style="fill: none; stroke: #b0b0b0; stroke-opacity: 0.5; stroke-width: 0.8; stroke-linecap: square"/>
     </g>
     <g id="line2d_52">
      <g>
       <use xlink:href="#m9e3bdb81b4" x="52.079375" y="147.157618" style="stroke: #000000; stroke-width: 0.8"/>
      </g>
     </g>
     <g id="text_27">
      <!-- 0.10 -->
      <g transform="translate(22.81375 150.956837) scale(0.1 -0.1)">
       <defs>
        <path id="DejaVuSans-31" d="M 794 531 
L 1825 531 
L 1825 4091 
L 703 3866 
L 703 4441 
L 1819 4666 
L 2450 4666 
L 2450 531 
L 3481 531 
L 3481 0 
L 794 0 
L 794 531 
z
" transform="scale(0.015625)"/>
       </defs>
       <use xlink:href="#DejaVuSans-30"/>
       <use xlink:href="#DejaVuSans-2e" x="63.623047"/>
       <use xlink:href="#DejaVuSans-31" x="95.410156"/>
       <use xlink:href="#DejaVuSans-30" x="159.033203"/>
      </g>
     </g>
    </g>
    <g id="ytick_7">
     <g id="line2d_53">
      <path d="M 52.079375 90.797002 
L 833.279375 90.797002 
" clip-path="url(#p4724250af8)" style="fill: none; stroke: #b0b0b0; stroke-opacity: 0.5; stroke-width: 0.8; stroke-linecap: square"/>
     </g>
     <g id="line2d_54">
      <g>
       <use xlink:href="#m9e3bdb81b4" x="52.079375" y="90.797002" style="stroke: #000000; stroke-width: 0.8"/>
      </g>
     </g>
     <g id="text_28">
      <!-- 0.12 -->
      <g transform="translate(22.81375 94.59622) scale(0.1 -0.1)">
       <use xlink:href="#DejaVuSans-30"/>
       <use xlink:href="#DejaVuSans-2e" x="63.623047"/>
       <use xlink:href="#DejaVuSans-31" x="95.410156"/>
       <use xlink:href="#DejaVuSans-32" x="159.033203"/>
      </g>
     </g>
    </g>
    <g id="text_29">
     <!-- Frequency -->
     <g transform="translate(16.224375 270.040388) rotate(-90) scale(0.12 -0.12)">
      <defs>
       <path id="DejaVuSans-Bold-46" d="M 588 4666 
L 3834 4666 
L 3834 3756 
L 1791 3756 
L 1791 2888 
L 3713 2888 
L 3713 1978 
L 1791 1978 
L 1791 0 
L 588 0 
L 588 4666 
z
" transform="scale(0.015625)"/>
       <path id="DejaVuSans-Bold-72" d="M 3138 2547 
Q 2991 2616 2845 2648 
Q 2700 2681 2553 2681 
Q 2122 2681 1889 2404 
Q 1656 2128 1656 1613 
L 1656 0 
L 538 0 
L 538 3500 
L 1656 3500 
L 1656 2925 
Q 1872 3269 2151 3426 
Q 2431 3584 2822 3584 
Q 2878 3584 2943 3579 
Q 3009 3575 3134 3559 
L 3138 2547 
z
" transform="scale(0.015625)"/>
       <path id="DejaVuSans-Bold-65" d="M 4031 1759 
L 4031 1441 
L 1416 1441 
Q 1456 1047 1700 850 
Q 1944 653 2381 653 
Q 2734 653 3104 758 
Q 3475 863 3866 1075 
L 3866 213 
Q 3469 63 3072 -14 
Q 2675 -91 2278 -91 
Q 1328 -91 801 392 
Q 275 875 275 1747 
Q 275 2603 792 3093 
Q 1309 3584 2216 3584 
Q 3041 3584 3536 3087 
Q 4031 2591 4031 1759 
z
M 2881 2131 
Q 2881 2450 2695 2645 
Q 2509 2841 2209 2841 
Q 1884 2841 1681 2658 
Q 1478 2475 1428 2131 
L 2881 2131 
z
" transform="scale(0.015625)"/>
       <path id="DejaVuSans-Bold-71" d="M 2181 2772 
Q 1825 2772 1636 2509 
Q 1447 2247 1447 1747 
Q 1447 1247 1636 984 
Q 1825 722 2181 722 
Q 2541 722 2730 984 
Q 2919 1247 2919 1747 
Q 2919 2247 2730 2509 
Q 2541 2772 2181 2772 
z
M 2919 506 
Q 2688 197 2409 53 
Q 2131 -91 1766 -91 
Q 1119 -91 703 423 
Q 288 938 288 1747 
Q 288 2556 703 3067 
Q 1119 3578 1766 3578 
Q 2131 3578 2409 3434 
Q 2688 3291 2919 2981 
L 2919 3500 
L 4044 3500 
L 4044 -1331 
L 2919 -1331 
L 2919 506 
z
" transform="scale(0.015625)"/>
       <path id="DejaVuSans-Bold-75" d="M 500 1363 
L 500 3500 
L 1625 3500 
L 1625 3150 
Q 1625 2866 1622 2436 
Q 1619 2006 1619 1863 
Q 1619 1441 1641 1255 
Q 1663 1069 1716 984 
Q 1784 875 1895 815 
Q 2006 756 2150 756 
Q 2500 756 2700 1025 
Q 2900 1294 2900 1772 
L 2900 3500 
L 4019 3500 
L 4019 0 
L 2900 0 
L 2900 506 
Q 2647 200 2364 54 
Q 2081 -91 1741 -91 
Q 1134 -91 817 281 
Q 500 653 500 1363 
z
" transform="scale(0.015625)"/>
       <path id="DejaVuSans-Bold-79" d="M 78 3500 
L 1197 3500 
L 2138 1125 
L 2938 3500 
L 4056 3500 
L 2584 -331 
Q 2363 -916 2067 -1148 
Q 1772 -1381 1288 -1381 
L 641 -1381 
L 641 -647 
L 991 -647 
Q 1275 -647 1404 -556 
Q 1534 -466 1606 -231 
L 1638 -134 
L 78 3500 
z
" transform="scale(0.015625)"/>
      </defs>
      <use xlink:href="#DejaVuSans-Bold-46"/>
      <use xlink:href="#DejaVuSans-Bold-72" x="61.935547"/>
      <use xlink:href="#DejaVuSans-Bold-65" x="111.251953"/>
      <use xlink:href="#DejaVuSans-Bold-71" x="179.074219"/>
      <use xlink:href="#DejaVuSans-Bold-75" x="250.65625"/>
      <use xlink:href="#DejaVuSans-Bold-65" x="321.847656"/>
      <use xlink:href="#DejaVuSans-Bold-6e" x="389.669922"/>
      <use xlink:href="#DejaVuSans-Bold-63" x="460.861328"/>
      <use xlink:href="#DejaVuSans-Bold-79" x="520.138672"/>
     </g>
    </g>
   </g>
   <g id="patch_3">
    <path d="M 61.844375 428.9607 
L 66.726875 428.9607 
L 66.726875 362.299642 
L 61.844375 362.299642 
z
" clip-path="url(#p4724250af8)" style="fill: #1f77b4"/>
   </g>
   <g id="patch_4">
    <path d="M 100.904375 428.9607 
L 105.786875 428.9607 
L 105.786875 399.739432 
L 100.904375 399.739432 
z
" clip-path="url(#p4724250af8)" style="fill: #1f77b4"/>
   </g>
   <g id="patch_5">
    <path d="M 139.964375 428.9607 
L 144.846875 428.9607 
L 144.846875 399.370135 
L 139.964375 399.370135 
z
" clip-path="url(#p4724250af8)" style="fill: #1f77b4"/>
   </g>
   <g id="patch_6">
    <path d="M 179.024375 428.9607 
L 183.906875 428.9607 
L 183.906875 243.300425 
L 179.024375 243.300425 
z
" clip-path="url(#p4724250af8)" style="fill: #1f77b4"/>
   </g>
   <g id="patch_7">
    <path d="M 218.084375 428.9607 
L 222.966875 428.9607 
L 222.966875 196.816719 
L 218.084375 196.816719 
z
" clip-path="url(#p4724250af8)" style="fill: #1f77b4"/>
   </g>
   <g id="patch_8">
    <path d="M 257.144375 428.9607 
L 262.026875 428.9607 
L 262.026875 325.405611 
L 257.144375 325.405611 
z
" clip-path="url(#p4724250af8)" style="fill: #1f77b4"/>
   </g>
   <g id="patch_9">
    <path d="M 296.204375 428.9607 
L 301.086875 428.9607 
L 301.086875 378.218617 
L 296.204375 378.218617 
z
" clip-path="url(#p4724250af8)" style="fill: #1f77b4"/>
   </g>
   <g id="patch_10">
    <path d="M 335.264375 428.9607 
L 340.146875 428.9607 
L 340.146875 284.265211 
L 335.264375 284.265211 
z
" clip-path="url(#p4724250af8)" style="fill: #1f77b4"/>
   </g>
   <g id="patch_11">
    <path d="M 374.324375 428.9607 
L 379.206875 428.9607 
L 379.206875 333.907927 
L 374.324375 333.907927 
z
" clip-path="url(#p4724250af8)" style="fill: #1f77b4"/>
   </g>
   <g id="patch_12">
    <path d="M 413.384375 428.9607 
L 418.266875 428.9607 
L 418.266875 362.371784 
L 413.384375 362.371784 
z
" clip-path="url(#p4724250af8)" style="fill: #1f77b4"/>
   </g>
   <g id="patch_13">
    <path d="M 452.444375 428.9607 
L 457.326875 428.9607 
L 457.326875 338.979562 
L 452.444375 338.979562 
z
" clip-path="url(#p4724250af8)" style="fill: #1f77b4"/>
   </g>
   <g id="patch_14">
    <path d="M 491.504375 428.9607 
L 496.386875 428.9607 
L 496.386875 246.017504 
L 491.504375 246.017504 
z
" clip-path="url(#p4724250af8)" style="fill: #1f77b4"/>
   </g>
   <g id="patch_15">
    <path d="M 530.564375 428.9607 
L 535.446875 428.9607 
L 535.446875 194.815944 
L 530.564375 194.815944 
z
" clip-path="url(#p4724250af8)" style="fill: #1f77b4"/>
   </g>
   <g id="patch_16">
    <path d="M 569.624375 428.9607 
L 574.506875 428.9607 
L 574.506875 215.721897 
L 569.624375 215.721897 
z
" clip-path="url(#p4724250af8)" style="fill: #1f77b4"/>
   </g>
   <g id="patch_17">
    <path d="M 608.684375 428.9607 
L 613.566875 428.9607 
L 613.566875 310.793581 
L 608.684375 310.793581 
z
" clip-path="url(#p4724250af8)" style="fill: #1f77b4"/>
   </g>
   <g id="patch_18">
    <path d="M 647.744375 428.9607 
L 652.626875 428.9607 
L 652.626875 275.328067 
L 647.744375 275.328067 
z
" clip-path="url(#p4724250af8)" style="fill: #1f77b4"/>
   </g>
   <g id="patch_19">
    <path d="M 686.804375 428.9607 
L 691.686875 428.9607 
L 691.686875 202.220234 
L 686.804375 202.220234 
z
" clip-path="url(#p4724250af8)" style="fill: #1f77b4"/>
   </g>
   <g id="patch_20">
    <path d="M 725.864375 428.9607 
L 730.746875 428.9607 
L 730.746875 169.057268 
L 725.864375 169.057268 
z
" clip-path="url(#p4724250af8)" style="fill: #1f77b4"/>
   </g>
   <g id="patch_21">
    <path d="M 764.924375 428.9607 
L 769.806875 428.9607 
L 769.806875 263.278568 
L 764.924375 263.278568 
z
" clip-path="url(#p4724250af8)" style="fill: #1f77b4"/>
   </g>
   <g id="patch_22">
    <path d="M 803.984375 428.9607 
L 808.866875 428.9607 
L 808.866875 259.341755 
L 803.984375 259.341755 
z
" clip-path="url(#p4724250af8)" style="fill: #1f77b4"/>
   </g>
   <g id="patch_23">
    <path d="M 66.726875 428.9607 
L 71.609375 428.9607 
L 71.609375 358.209671 
L 66.726875 358.209671 
z
" clip-path="url(#p4724250af8)" style="fill: #ff7f0e"/>
   </g>
   <g id="patch_24">
    <path d="M 105.786875 428.9607 
L 110.669375 428.9607 
L 110.669375 392.788747 
L 105.786875 392.788747 
z
" clip-path="url(#p4724250af8)" style="fill: #ff7f0e"/>
   </g>
   <g id="patch_25">
    <path d="M 144.846875 428.9607 
L 149.729375 428.9607 
L 149.729375 400.681258 
L 144.846875 400.681258 
z
" clip-path="url(#p4724250af8)" style="fill: #ff7f0e"/>
   </g>
   <g id="patch_26">
    <path d="M 183.906875 428.9607 
L 188.789375 428.9607 
L 188.789375 273.203178 
L 183.906875 273.203178 
z
" clip-path="url(#p4724250af8)" style="fill: #ff7f0e"/>
   </g>
   <g id="patch_27">
    <path d="M 222.966875 428.9607 
L 227.849375 428.9607 
L 227.849375 254.207125 
L 222.966875 254.207125 
z
" clip-path="url(#p4724250af8)" style="fill: #ff7f0e"/>
   </g>
   <g id="patch_28">
    <path d="M 262.026875 428.9607 
L 266.909375 428.9607 
L 266.909375 319.749221 
L 262.026875 319.749221 
z
" clip-path="url(#p4724250af8)" style="fill: #ff7f0e"/>
   </g>
   <g id="patch_29">
    <path d="M 301.086875 428.9607 
L 305.969375 428.9607 
L 305.969375 369.821171 
L 301.086875 369.821171 
z
" clip-path="url(#p4724250af8)" style="fill: #ff7f0e"/>
   </g>
   <g id="patch_30">
    <path d="M 340.146875 428.9607 
L 345.029375 428.9607 
L 345.029375 293.396792 
L 340.146875 293.396792 
z
" clip-path="url(#p4724250af8)" style="fill: #ff7f0e"/>
   </g>
   <g id="patch_31">
    <path d="M 379.206875 428.9607 
L 384.089375 428.9607 
L 384.089375 331.325858 
L 379.206875 331.325858 
z
" clip-path="url(#p4724250af8)" style="fill: #ff7f0e"/>
   </g>
   <g id="patch_32">
    <path d="M 418.266875 428.9607 
L 423.149375 428.9607 
L 423.149375 330.622484 
L 418.266875 330.622484 
z
" clip-path="url(#p4724250af8)" style="fill: #ff7f0e"/>
   </g>
   <g id="patch_33">
    <path d="M 457.326875 428.9607 
L 462.209375 428.9607 
L 462.209375 349.034525 
L 457.326875 349.034525 
z
" clip-path="url(#p4724250af8)" style="fill: #ff7f0e"/>
   </g>
   <g id="patch_34">
    <path d="M 496.386875 428.9607 
L 501.269375 428.9607 
L 501.269375 262.044735 
L 496.386875 262.044735 
z
" clip-path="url(#p4724250af8)" style="fill: #ff7f0e"/>
   </g>
   <g id="patch_35">
    <path d="M 535.446875 428.9607 
L 540.329375 428.9607 
L 540.329375 142.727222 
L 535.446875 142.727222 
z
" clip-path="url(#p4724250af8)" style="fill: #ff7f0e"/>
   </g>
   <g id="patch_36">
    <path d="M 574.506875 428.9607 
L 579.389375 428.9607 
L 579.389375 213.918861 
L 574.506875 213.918861 
z
" clip-path="url(#p4724250af8)" style="fill: #ff7f0e"/>
   </g>
   <g id="patch_37">
    <path d="M 613.566875 428.9607 
L 618.449375 428.9607 
L 618.449375 299.960823 
L 613.566875 299.960823 
z
" clip-path="url(#p4724250af8)" style="fill: #ff7f0e"/>
   </g>
   <g id="patch_38">
    <path d="M 652.626875 428.9607 
L 657.509375 428.9607 
L 657.509375 276.626251 
L 652.626875 276.626251 
z
" clip-path="url(#p4724250af8)" style="fill: #ff7f0e"/>
   </g>
   <g id="patch_39">
    <path d="M 691.686875 428.9607 
L 696.569375 428.9607 
L 696.569375 222.699041 
L 691.686875 222.699041 
z
" clip-path="url(#p4724250af8)" style="fill: #ff7f0e"/>
   </g>
   <g id="patch_40">
    <path d="M 730.746875 428.9607 
L 735.629375 428.9607 
L 735.629375 144.901459 
L 730.746875 144.901459 
z
" clip-path="url(#p4724250af8)" style="fill: #ff7f0e"/>
   </g>
   <g id="patch_41">
    <path d="M 769.806875 428.9607 
L 774.689375 428.9607 
L 774.689375 258.007353 
L 769.806875 258.007353 
z
" clip-path="url(#p4724250af8)" style="fill: #ff7f0e"/>
   </g>
   <g id="patch_42">
    <path d="M 808.866875 428.9607 
L 813.749375 428.9607 
L 813.749375 267.278554 
L 808.866875 267.278554 
z
" clip-path="url(#p4724250af8)" style="fill: #ff7f0e"/>
   </g>
   <g id="patch_43">
    <path d="M 71.609375 428.9607 
L 76.491875 428.9607 
L 76.491875 362.697994 
L 71.609375 362.697994 
z
" clip-path="url(#p4724250af8)" style="fill: #2ca02c"/>
   </g>
   <g id="patch_44">
    <path d="M 110.669375 428.9607 
L 115.551875 428.9607 
L 115.551875 391.87915 
L 110.669375 391.87915 
z
" clip-path="url(#p4724250af8)" style="fill: #2ca02c"/>
   </g>
   <g id="patch_45">
    <path d="M 149.729375 428.9607 
L 154.611875 428.9607 
L 154.611875 376.593179 
L 149.729375 376.593179 
z
" clip-path="url(#p4724250af8)" style="fill: #2ca02c"/>
   </g>
   <g id="patch_46">
    <path d="M 188.789375 428.9607 
L 193.671875 428.9607 
L 193.671875 280.880445 
L 188.789375 280.880445 
z
" clip-path="url(#p4724250af8)" style="fill: #2ca02c"/>
   </g>
   <g id="patch_47">
    <path d="M 227.849375 428.9607 
L 232.731875 428.9607 
L 232.731875 251.47949 
L 227.849375 251.47949 
z
" clip-path="url(#p4724250af8)" style="fill: #2ca02c"/>
   </g>
   <g id="patch_48">
    <path d="M 266.909375 428.9607 
L 271.791875 428.9607 
L 271.791875 318.19033 
L 266.909375 318.19033 
z
" clip-path="url(#p4724250af8)" style="fill: #2ca02c"/>
   </g>
   <g id="patch_49">
    <path d="M 305.969375 428.9607 
L 310.851875 428.9607 
L 310.851875 359.009479 
L 305.969375 359.009479 
z
" clip-path="url(#p4724250af8)" style="fill: #2ca02c"/>
   </g>
   <g id="patch_50">
    <path d="M 345.029375 428.9607 
L 349.911875 428.9607 
L 349.911875 268.826271 
L 345.029375 268.826271 
z
" clip-path="url(#p4724250af8)" style="fill: #2ca02c"/>
   </g>
   <g id="patch_51">
    <path d="M 384.089375 428.9607 
L 388.971875 428.9607 
L 388.971875 313.35427 
L 384.089375 313.35427 
z
" clip-path="url(#p4724250af8)" style="fill: #2ca02c"/>
   </g>
   <g id="patch_52">
    <path d="M 423.149375 428.9607 
L 428.031875 428.9607 
L 428.031875 314.161005 
L 423.149375 314.161005 
z
" clip-path="url(#p4724250af8)" style="fill: #2ca02c"/>
   </g>
   <g id="patch_53">
    <path d="M 462.209375 428.9607 
L 467.091875 428.9607 
L 467.091875 346.294369 
L 462.209375 346.294369 
z
" clip-path="url(#p4724250af8)" style="fill: #2ca02c"/>
   </g>
   <g id="patch_54">
    <path d="M 501.269375 428.9607 
L 506.151875 428.9607 
L 506.151875 284.667124 
L 501.269375 284.667124 
z
" clip-path="url(#p4724250af8)" style="fill: #2ca02c"/>
   </g>
   <g id="patch_55">
    <path d="M 540.329375 428.9607 
L 545.211875 428.9607 
L 545.211875 214.23369 
L 540.329375 214.23369 
z
" clip-path="url(#p4724250af8)" style="fill: #2ca02c"/>
   </g>
   <g id="patch_56">
    <path d="M 579.389375 428.9607 
L 584.271875 428.9607 
L 584.271875 248.149192 
L 579.389375 248.149192 
z
" clip-path="url(#p4724250af8)" style="fill: #2ca02c"/>
   </g>
   <g id="patch_57">
    <path d="M 618.449375 428.9607 
L 623.331875 428.9607 
L 623.331875 274.937299 
L 618.449375 274.937299 
z
" clip-path="url(#p4724250af8)" style="fill: #2ca02c"/>
   </g>
   <g id="patch_58">
    <path d="M 657.509375 428.9607 
L 662.391875 428.9607 
L 662.391875 270.487821 
L 657.509375 270.487821 
z
" clip-path="url(#p4724250af8)" style="fill: #2ca02c"/>
   </g>
   <g id="patch_59">
    <path d="M 696.569375 428.9607 
L 701.451875 428.9607 
L 701.451875 252.968955 
L 696.569375 252.968955 
z
" clip-path="url(#p4724250af8)" style="fill: #2ca02c"/>
   </g>
   <g id="patch_60">
    <path d="M 735.629375 428.9607 
L 740.511875 428.9607 
L 740.511875 168.019601 
L 735.629375 168.019601 
z
" clip-path="url(#p4724250af8)" style="fill: #2ca02c"/>
   </g>
   <g id="patch_61">
    <path d="M 774.689375 428.9607 
L 779.571875 428.9607 
L 779.571875 264.881847 
L 774.689375 264.881847 
z
" clip-path="url(#p4724250af8)" style="fill: #2ca02c"/>
   </g>
   <g id="patch_62">
    <path d="M 813.749375 428.9607 
L 818.631875 428.9607 
L 818.631875 200.073385 
L 813.749375 200.073385 
z
" clip-path="url(#p4724250af8)" style="fill: #2ca02c"/>
   </g>
   <g id="patch_63">
    <path d="M 76.491875 428.9607 
L 81.374375 428.9607 
L 81.374375 355.49199 
L 76.491875 355.49199 
z
" clip-path="url(#p4724250af8)" style="fill: #d62728"/>
   </g>
   <g id="patch_64">
    <path d="M 115.551875 428.9607 
L 120.434375 428.9607 
L 120.434375 385.420476 
L 115.551875 385.420476 
z
" clip-path="url(#p4724250af8)" style="fill: #d62728"/>
   </g>
   <g id="patch_65">
    <path d="M 154.611875 428.9607 
L 159.494375 428.9607 
L 159.494375 386.071839 
L 154.611875 386.071839 
z
" clip-path="url(#p4724250af8)" style="fill: #d62728"/>
   </g>
   <g id="patch_66">
    <path d="M 193.671875 428.9607 
L 198.554375 428.9607 
L 198.554375 269.288076 
L 193.671875 269.288076 
z
" clip-path="url(#p4724250af8)" style="fill: #d62728"/>
   </g>
   <g id="patch_67">
    <path d="M 232.731875 428.9607 
L 237.614375 428.9607 
L 237.614375 255.253375 
L 232.731875 255.253375 
z
" clip-path="url(#p4724250af8)" style="fill: #d62728"/>
   </g>
   <g id="patch_68">
    <path d="M 271.791875 428.9607 
L 276.674375 428.9607 
L 276.674375 315.535334 
L 271.791875 315.535334 
z
" clip-path="url(#p4724250af8)" style="fill: #d62728"/>
   </g>
   <g id="patch_69">
    <path d="M 310.851875 428.9607 
L 315.734375 428.9607 
L 315.734375 369.387397 
L 310.851875 369.387397 
z
" clip-path="url(#p4724250af8)" style="fill: #d62728"/>
   </g>
   <g id="patch_70">
    <path d="M 349.911875 428.9607 
L 354.794375 428.9607 
L 354.794375 257.311283 
L 349.911875 257.311283 
z
" clip-path="url(#p4724250af8)" style="fill: #d62728"/>
   </g>
   <g id="patch_71">
    <path d="M 388.971875 428.9607 
L 393.854375 428.9607 
L 393.854375 300.944468 
L 388.971875 300.944468 
z
" clip-path="url(#p4724250af8)" style="fill: #d62728"/>
   </g>
   <g id="patch_72">
    <path d="M 428.031875 428.9607 
L 432.914375 428.9607 
L 432.914375 325.118847 
L 428.031875 325.118847 
z
" clip-path="url(#p4724250af8)" style="fill: #d62728"/>
   </g>
   <g id="patch_73">
    <path d="M 467.091875 428.9607 
L 471.974375 428.9607 
L 471.974375 326.029623 
L 467.091875 326.029623 
z
" clip-path="url(#p4724250af8)" style="fill: #d62728"/>
   </g>
   <g id="patch_74">
    <path d="M 506.151875 428.9607 
L 511.034375 428.9607 
L 511.034375 266.850233 
L 506.151875 266.850233 
z
" clip-path="url(#p4724250af8)" style="fill: #d62728"/>
   </g>
   <g id="patch_75">
    <path d="M 545.211875 428.9607 
L 550.094375 428.9607 
L 550.094375 220.329513 
L 545.211875 220.329513 
z
" clip-path="url(#p4724250af8)" style="fill: #d62728"/>
   </g>
   <g id="patch_76">
    <path d="M 584.271875 428.9607 
L 589.154375 428.9607 
L 589.154375 250.277538 
L 584.271875 250.277538 
z
" clip-path="url(#p4724250af8)" style="fill: #d62728"/>
   </g>
   <g id="patch_77">
    <path d="M 623.331875 428.9607 
L 628.214375 428.9607 
L 628.214375 298.640036 
L 623.331875 298.640036 
z
" clip-path="url(#p4724250af8)" style="fill: #d62728"/>
   </g>
   <g id="patch_78">
    <path d="M 662.391875 428.9607 
L 667.274375 428.9607 
L 667.274375 256.472371 
L 662.391875 256.472371 
z
" clip-path="url(#p4724250af8)" style="fill: #d62728"/>
   </g>
   <g id="patch_79">
    <path d="M 701.451875 428.9607 
L 706.334375 428.9607 
L 706.334375 243.716737 
L 701.451875 243.716737 
z
" clip-path="url(#p4724250af8)" style="fill: #d62728"/>
   </g>
   <g id="patch_80">
    <path d="M 740.511875 428.9607 
L 745.394375 428.9607 
L 745.394375 184.586096 
L 740.511875 184.586096 
z
" clip-path="url(#p4724250af8)" style="fill: #d62728"/>
   </g>
   <g id="patch_81">
    <path d="M 779.571875 428.9607 
L 784.454375 428.9607 
L 784.454375 260.177131 
L 779.571875 260.177131 
z
" clip-path="url(#p4724250af8)" style="fill: #d62728"/>
   </g>
   <g id="patch_82">
    <path d="M 818.631875 428.9607 
L 823.514375 428.9607 
L 823.514375 234.540248 
L 818.631875 234.540248 
z
" clip-path="url(#p4724250af8)" style="fill: #d62728"/>
   </g>
   <g id="LineCollection_1">
    <path d="M 64.285625 376.302289 
L 64.285625 348.296995 
" clip-path="url(#p4724250af8)" style="fill: none; stroke: #000000; stroke-width: 1.5"/>
    <path d="M 103.345625 404.249243 
L 103.345625 395.229621 
" clip-path="url(#p4724250af8)" style="fill: none; stroke: #000000; stroke-width: 1.5"/>
    <path d="M 142.405625 407.419449 
L 142.405625 391.320821 
" clip-path="url(#p4724250af8)" style="fill: none; stroke: #000000; stroke-width: 1.5"/>
    <path d="M 181.465625 288.474619 
L 181.465625 198.126231 
" clip-path="url(#p4724250af8)" style="fill: none; stroke: #000000; stroke-width: 1.5"/>
    <path d="M 220.525625 229.343545 
L 220.525625 164.289893 
" clip-path="url(#p4724250af8)" style="fill: none; stroke: #000000; stroke-width: 1.5"/>
    <path d="M 259.585625 339.971554 
L 259.585625 310.839667 
" clip-path="url(#p4724250af8)" style="fill: none; stroke: #000000; stroke-width: 1.5"/>
    <path d="M 298.645625 385.265981 
L 298.645625 371.171252 
" clip-path="url(#p4724250af8)" style="fill: none; stroke: #000000; stroke-width: 1.5"/>
    <path d="M 337.705625 367.861101 
L 337.705625 200.66932 
" clip-path="url(#p4724250af8)" style="fill: none; stroke: #000000; stroke-width: 1.5"/>
    <path d="M 376.765625 371.75907 
L 376.765625 296.056783 
" clip-path="url(#p4724250af8)" style="fill: none; stroke: #000000; stroke-width: 1.5"/>
    <path d="M 415.825625 375.125065 
L 415.825625 349.618503 
" clip-path="url(#p4724250af8)" style="fill: none; stroke: #000000; stroke-width: 1.5"/>
    <path d="M 454.885625 357.804365 
L 454.885625 320.154758 
" clip-path="url(#p4724250af8)" style="fill: none; stroke: #000000; stroke-width: 1.5"/>
    <path d="M 493.945625 311.396032 
L 493.945625 180.638975 
" clip-path="url(#p4724250af8)" style="fill: none; stroke: #000000; stroke-width: 1.5"/>
    <path d="M 533.005625 260.177466 
L 533.005625 129.454421 
" clip-path="url(#p4724250af8)" style="fill: none; stroke: #000000; stroke-width: 1.5"/>
    <path d="M 572.065625 241.031915 
L 572.065625 190.411878 
" clip-path="url(#p4724250af8)" style="fill: none; stroke: #000000; stroke-width: 1.5"/>
    <path d="M 611.125625 325.72517 
L 611.125625 295.861993 
" clip-path="url(#p4724250af8)" style="fill: none; stroke: #000000; stroke-width: 1.5"/>
    <path d="M 650.185625 301.537568 
L 650.185625 249.118566 
" clip-path="url(#p4724250af8)" style="fill: none; stroke: #000000; stroke-width: 1.5"/>
    <path d="M 689.245625 236.560592 
L 689.245625 167.879875 
" clip-path="url(#p4724250af8)" style="fill: none; stroke: #000000; stroke-width: 1.5"/>
    <path d="M 728.305625 189.763188 
L 728.305625 148.351348 
" clip-path="url(#p4724250af8)" style="fill: none; stroke: #000000; stroke-width: 1.5"/>
    <path d="M 767.365625 298.841298 
L 767.365625 227.715838 
" clip-path="url(#p4724250af8)" style="fill: none; stroke: #000000; stroke-width: 1.5"/>
    <path d="M 806.425625 278.370147 
L 806.425625 240.313362 
" clip-path="url(#p4724250af8)" style="fill: none; stroke: #000000; stroke-width: 1.5"/>
   </g>
   <g id="line2d_55">
    <defs>
     <path id="md3d82ee8dd" d="M 1 0 
L -1 -0 
" style="stroke: #000000"/>
    </defs>
    <g clip-path="url(#p4724250af8)">
     <use xlink:href="#md3d82ee8dd" x="64.285625" y="376.302289" style="stroke: #000000"/>
     <use xlink:href="#md3d82ee8dd" x="103.345625" y="404.249243" style="stroke: #000000"/>
     <use xlink:href="#md3d82ee8dd" x="142.405625" y="407.419449" style="stroke: #000000"/>
     <use xlink:href="#md3d82ee8dd" x="181.465625" y="288.474619" style="stroke: #000000"/>
     <use xlink:href="#md3d82ee8dd" x="220.525625" y="229.343545" style="stroke: #000000"/>
     <use xlink:href="#md3d82ee8dd" x="259.585625" y="339.971554" style="stroke: #000000"/>
     <use xlink:href="#md3d82ee8dd" x="298.645625" y="385.265981" style="stroke: #000000"/>
     <use xlink:href="#md3d82ee8dd" x="337.705625" y="367.861101" style="stroke: #000000"/>
     <use xlink:href="#md3d82ee8dd" x="376.765625" y="371.75907" style="stroke: #000000"/>
     <use xlink:href="#md3d82ee8dd" x="415.825625" y="375.125065" style="stroke: #000000"/>
     <use xlink:href="#md3d82ee8dd" x="454.885625" y="357.804365" style="stroke: #000000"/>
     <use xlink:href="#md3d82ee8dd" x="493.945625" y="311.396032" style="stroke: #000000"/>
     <use xlink:href="#md3d82ee8dd" x="533.005625" y="260.177466" style="stroke: #000000"/>
     <use xlink:href="#md3d82ee8dd" x="572.065625" y="241.031915" style="stroke: #000000"/>
     <use xlink:href="#md3d82ee8dd" x="611.125625" y="325.72517" style="stroke: #000000"/>
     <use xlink:href="#md3d82ee8dd" x="650.185625" y="301.537568" style="stroke: #000000"/>
     <use xlink:href="#md3d82ee8dd" x="689.245625" y="236.560592" style="stroke: #000000"/>
     <use xlink:href="#md3d82ee8dd" x="728.305625" y="189.763188" style="stroke: #000000"/>
     <use xlink:href="#md3d82ee8dd" x="767.365625" y="298.841298" style="stroke: #000000"/>
     <use xlink:href="#md3d82ee8dd" x="806.425625" y="278.370147" style="stroke: #000000"/>
    </g>
   </g>
   <g id="line2d_56">
    <g clip-path="url(#p4724250af8)">
     <use xlink:href="#md3d82ee8dd" x="64.285625" y="348.296995" style="stroke: #000000"/>
     <use xlink:href="#md3d82ee8dd" x="103.345625" y="395.229621" style="stroke: #000000"/>
     <use xlink:href="#md3d82ee8dd" x="142.405625" y="391.320821" style="stroke: #000000"/>
     <use xlink:href="#md3d82ee8dd" x="181.465625" y="198.126231" style="stroke: #000000"/>
     <use xlink:href="#md3d82ee8dd" x="220.525625" y="164.289893" style="stroke: #000000"/>
     <use xlink:href="#md3d82ee8dd" x="259.585625" y="310.839667" style="stroke: #000000"/>
     <use xlink:href="#md3d82ee8dd" x="298.645625" y="371.171252" style="stroke: #000000"/>
     <use xlink:href="#md3d82ee8dd" x="337.705625" y="200.66932" style="stroke: #000000"/>
     <use xlink:href="#md3d82ee8dd" x="376.765625" y="296.056783" style="stroke: #000000"/>
     <use xlink:href="#md3d82ee8dd" x="415.825625" y="349.618503" style="stroke: #000000"/>
     <use xlink:href="#md3d82ee8dd" x="454.885625" y="320.154758" style="stroke: #000000"/>
     <use xlink:href="#md3d82ee8dd" x="493.945625" y="180.638975" style="stroke: #000000"/>
     <use xlink:href="#md3d82ee8dd" x="533.005625" y="129.454421" style="stroke: #000000"/>
     <use xlink:href="#md3d82ee8dd" x="572.065625" y="190.411878" style="stroke: #000000"/>
     <use xlink:href="#md3d82ee8dd" x="611.125625" y="295.861993" style="stroke: #000000"/>
     <use xlink:href="#md3d82ee8dd" x="650.185625" y="249.118566" style="stroke: #000000"/>
     <use xlink:href="#md3d82ee8dd" x="689.245625" y="167.879875" style="stroke: #000000"/>
     <use xlink:href="#md3d82ee8dd" x="728.305625" y="148.351348" style="stroke: #000000"/>
     <use xlink:href="#md3d82ee8dd" x="767.365625" y="227.715838" style="stroke: #000000"/>
     <use xlink:href="#md3d82ee8dd" x="806.425625" y="240.313362" style="stroke: #000000"/>
    </g>
   </g>
   <g id="LineCollection_2">
    <path d="M 69.168125 369.740842 
L 69.168125 346.678499 
" clip-path="url(#p4724250af8)" style="fill: none; stroke: #000000; stroke-width: 1.5"/>
    <path d="M 108.228125 400.141576 
L 108.228125 385.435918 
" clip-path="url(#p4724250af8)" style="fill: none; stroke: #000000; stroke-width: 1.5"/>
    <path d="M 147.288125 408.417002 
L 147.288125 392.945513 
" clip-path="url(#p4724250af8)" style="fill: none; stroke: #000000; stroke-width: 1.5"/>
    <path d="M 186.348125 288.120669 
L 186.348125 258.285687 
" clip-path="url(#p4724250af8)" style="fill: none; stroke: #000000; stroke-width: 1.5"/>
    <path d="M 225.408125 277.58096 
L 225.408125 230.833291 
" clip-path="url(#p4724250af8)" style="fill: none; stroke: #000000; stroke-width: 1.5"/>
    <path d="M 264.468125 342.151639 
L 264.468125 297.346802 
" clip-path="url(#p4724250af8)" style="fill: none; stroke: #000000; stroke-width: 1.5"/>
    <path d="M 303.528125 377.650091 
L 303.528125 361.992251 
" clip-path="url(#p4724250af8)" style="fill: none; stroke: #000000; stroke-width: 1.5"/>
    <path d="M 342.588125 362.376756 
L 342.588125 224.416828 
" clip-path="url(#p4724250af8)" style="fill: none; stroke: #000000; stroke-width: 1.5"/>
    <path d="M 381.648125 373.338587 
L 381.648125 289.31313 
" clip-path="url(#p4724250af8)" style="fill: none; stroke: #000000; stroke-width: 1.5"/>
    <path d="M 420.708125 352.311862 
L 420.708125 308.933105 
" clip-path="url(#p4724250af8)" style="fill: none; stroke: #000000; stroke-width: 1.5"/>
    <path d="M 459.768125 372.270916 
L 459.768125 325.798134 
" clip-path="url(#p4724250af8)" style="fill: none; stroke: #000000; stroke-width: 1.5"/>
    <path d="M 498.828125 316.610399 
L 498.828125 207.479072 
" clip-path="url(#p4724250af8)" style="fill: none; stroke: #000000; stroke-width: 1.5"/>
    <path d="M 537.888125 226.093744 
L 537.888125 59.3607 
" clip-path="url(#p4724250af8)" style="fill: none; stroke: #000000; stroke-width: 1.5"/>
    <path d="M 576.948125 247.834714 
L 576.948125 180.003007 
" clip-path="url(#p4724250af8)" style="fill: none; stroke: #000000; stroke-width: 1.5"/>
    <path d="M 616.008125 329.957512 
L 616.008125 269.964133 
" clip-path="url(#p4724250af8)" style="fill: none; stroke: #000000; stroke-width: 1.5"/>
    <path d="M 655.068125 290.841048 
L 655.068125 262.411454 
" clip-path="url(#p4724250af8)" style="fill: none; stroke: #000000; stroke-width: 1.5"/>
    <path d="M 694.128125 250.497711 
L 694.128125 194.900371 
" clip-path="url(#p4724250af8)" style="fill: none; stroke: #000000; stroke-width: 1.5"/>
    <path d="M 733.188125 163.991686 
L 733.188125 125.811232 
" clip-path="url(#p4724250af8)" style="fill: none; stroke: #000000; stroke-width: 1.5"/>
    <path d="M 772.248125 306.52166 
L 772.248125 209.493047 
" clip-path="url(#p4724250af8)" style="fill: none; stroke: #000000; stroke-width: 1.5"/>
    <path d="M 811.308125 285.70378 
L 811.308125 248.853328 
" clip-path="url(#p4724250af8)" style="fill: none; stroke: #000000; stroke-width: 1.5"/>
   </g>
   <g id="line2d_57">
    <g clip-path="url(#p4724250af8)">
     <use xlink:href="#md3d82ee8dd" x="69.168125" y="369.740842" style="stroke: #000000"/>
     <use xlink:href="#md3d82ee8dd" x="108.228125" y="400.141576" style="stroke: #000000"/>
     <use xlink:href="#md3d82ee8dd" x="147.288125" y="408.417002" style="stroke: #000000"/>
     <use xlink:href="#md3d82ee8dd" x="186.348125" y="288.120669" style="stroke: #000000"/>
     <use xlink:href="#md3d82ee8dd" x="225.408125" y="277.58096" style="stroke: #000000"/>
     <use xlink:href="#md3d82ee8dd" x="264.468125" y="342.151639" style="stroke: #000000"/>
     <use xlink:href="#md3d82ee8dd" x="303.528125" y="377.650091" style="stroke: #000000"/>
     <use xlink:href="#md3d82ee8dd" x="342.588125" y="362.376756" style="stroke: #000000"/>
     <use xlink:href="#md3d82ee8dd" x="381.648125" y="373.338587" style="stroke: #000000"/>
     <use xlink:href="#md3d82ee8dd" x="420.708125" y="352.311862" style="stroke: #000000"/>
     <use xlink:href="#md3d82ee8dd" x="459.768125" y="372.270916" style="stroke: #000000"/>
     <use xlink:href="#md3d82ee8dd" x="498.828125" y="316.610399" style="stroke: #000000"/>
     <use xlink:href="#md3d82ee8dd" x="537.888125" y="226.093744" style="stroke: #000000"/>
     <use xlink:href="#md3d82ee8dd" x="576.948125" y="247.834714" style="stroke: #000000"/>
     <use xlink:href="#md3d82ee8dd" x="616.008125" y="329.957512" style="stroke: #000000"/>
     <use xlink:href="#md3d82ee8dd" x="655.068125" y="290.841048" style="stroke: #000000"/>
     <use xlink:href="#md3d82ee8dd" x="694.128125" y="250.497711" style="stroke: #000000"/>
     <use xlink:href="#md3d82ee8dd" x="733.188125" y="163.991686" style="stroke: #000000"/>
     <use xlink:href="#md3d82ee8dd" x="772.248125" y="306.52166" style="stroke: #000000"/>
     <use xlink:href="#md3d82ee8dd" x="811.308125" y="285.70378" style="stroke: #000000"/>
    </g>
   </g>
   <g id="line2d_58">
    <g clip-path="url(#p4724250af8)">
     <use xlink:href="#md3d82ee8dd" x="69.168125" y="346.678499" style="stroke: #000000"/>
     <use xlink:href="#md3d82ee8dd" x="108.228125" y="385.435918" style="stroke: #000000"/>
     <use xlink:href="#md3d82ee8dd" x="147.288125" y="392.945513" style="stroke: #000000"/>
     <use xlink:href="#md3d82ee8dd" x="186.348125" y="258.285687" style="stroke: #000000"/>
     <use xlink:href="#md3d82ee8dd" x="225.408125" y="230.833291" style="stroke: #000000"/>
     <use xlink:href="#md3d82ee8dd" x="264.468125" y="297.346802" style="stroke: #000000"/>
     <use xlink:href="#md3d82ee8dd" x="303.528125" y="361.992251" style="stroke: #000000"/>
     <use xlink:href="#md3d82ee8dd" x="342.588125" y="224.416828" style="stroke: #000000"/>
     <use xlink:href="#md3d82ee8dd" x="381.648125" y="289.31313" style="stroke: #000000"/>
     <use xlink:href="#md3d82ee8dd" x="420.708125" y="308.933105" style="stroke: #000000"/>
     <use xlink:href="#md3d82ee8dd" x="459.768125" y="325.798134" style="stroke: #000000"/>
     <use xlink:href="#md3d82ee8dd" x="498.828125" y="207.479072" style="stroke: #000000"/>
     <use xlink:href="#md3d82ee8dd" x="537.888125" y="59.3607" style="stroke: #000000"/>
     <use xlink:href="#md3d82ee8dd" x="576.948125" y="180.003007" style="stroke: #000000"/>
     <use xlink:href="#md3d82ee8dd" x="616.008125" y="269.964133" style="stroke: #000000"/>
     <use xlink:href="#md3d82ee8dd" x="655.068125" y="262.411454" style="stroke: #000000"/>
     <use xlink:href="#md3d82ee8dd" x="694.128125" y="194.900371" style="stroke: #000000"/>
     <use xlink:href="#md3d82ee8dd" x="733.188125" y="125.811232" style="stroke: #000000"/>
     <use xlink:href="#md3d82ee8dd" x="772.248125" y="209.493047" style="stroke: #000000"/>
     <use xlink:href="#md3d82ee8dd" x="811.308125" y="248.853328" style="stroke: #000000"/>
    </g>
   </g>
   <g id="LineCollection_3">
    <path d="M 74.050625 368.989223 
L 74.050625 356.406765 
" clip-path="url(#p4724250af8)" style="fill: none; stroke: #000000; stroke-width: 1.5"/>
    <path d="M 113.110625 397.512294 
L 113.110625 386.246006 
" clip-path="url(#p4724250af8)" style="fill: none; stroke: #000000; stroke-width: 1.5"/>
    <path d="M 152.170625 389.975938 
L 152.170625 363.210419 
" clip-path="url(#p4724250af8)" style="fill: none; stroke: #000000; stroke-width: 1.5"/>
    <path d="M 191.230625 293.252375 
L 191.230625 268.508514 
" clip-path="url(#p4724250af8)" style="fill: none; stroke: #000000; stroke-width: 1.5"/>
    <path d="M 230.290625 266.706555 
L 230.290625 236.252425 
" clip-path="url(#p4724250af8)" style="fill: none; stroke: #000000; stroke-width: 1.5"/>
    <path d="M 269.350625 332.080415 
L 269.350625 304.300245 
" clip-path="url(#p4724250af8)" style="fill: none; stroke: #000000; stroke-width: 1.5"/>
    <path d="M 308.410625 365.112468 
L 308.410625 352.906491 
" clip-path="url(#p4724250af8)" style="fill: none; stroke: #000000; stroke-width: 1.5"/>
    <path d="M 347.470625 302.500448 
L 347.470625 235.152094 
" clip-path="url(#p4724250af8)" style="fill: none; stroke: #000000; stroke-width: 1.5"/>
    <path d="M 386.530625 347.093293 
L 386.530625 279.615247 
" clip-path="url(#p4724250af8)" style="fill: none; stroke: #000000; stroke-width: 1.5"/>
    <path d="M 425.590625 334.300816 
L 425.590625 294.021194 
" clip-path="url(#p4724250af8)" style="fill: none; stroke: #000000; stroke-width: 1.5"/>
    <path d="M 464.650625 359.114121 
L 464.650625 333.474617 
" clip-path="url(#p4724250af8)" style="fill: none; stroke: #000000; stroke-width: 1.5"/>
    <path d="M 503.710625 314.674928 
L 503.710625 254.659319 
" clip-path="url(#p4724250af8)" style="fill: none; stroke: #000000; stroke-width: 1.5"/>
    <path d="M 542.770625 265.134215 
L 542.770625 163.333166 
" clip-path="url(#p4724250af8)" style="fill: none; stroke: #000000; stroke-width: 1.5"/>
    <path d="M 581.830625 273.601185 
L 581.830625 222.6972 
" clip-path="url(#p4724250af8)" style="fill: none; stroke: #000000; stroke-width: 1.5"/>
    <path d="M 620.890625 298.186775 
L 620.890625 251.687824 
" clip-path="url(#p4724250af8)" style="fill: none; stroke: #000000; stroke-width: 1.5"/>
    <path d="M 659.950625 284.32646 
L 659.950625 256.649182 
" clip-path="url(#p4724250af8)" style="fill: none; stroke: #000000; stroke-width: 1.5"/>
    <path d="M 699.010625 266.366894 
L 699.010625 239.571015 
" clip-path="url(#p4724250af8)" style="fill: none; stroke: #000000; stroke-width: 1.5"/>
    <path d="M 738.070625 183.769441 
L 738.070625 152.26976 
" clip-path="url(#p4724250af8)" style="fill: none; stroke: #000000; stroke-width: 1.5"/>
    <path d="M 777.130625 286.710432 
L 777.130625 243.053262 
" clip-path="url(#p4724250af8)" style="fill: none; stroke: #000000; stroke-width: 1.5"/>
    <path d="M 816.190625 216.557604 
L 816.190625 183.589167 
" clip-path="url(#p4724250af8)" style="fill: none; stroke: #000000; stroke-width: 1.5"/>
   </g>
   <g id="line2d_59">
    <g clip-path="url(#p4724250af8)">
     <use xlink:href="#md3d82ee8dd" x="74.050625" y="368.989223" style="stroke: #000000"/>
     <use xlink:href="#md3d82ee8dd" x="113.110625" y="397.512294" style="stroke: #000000"/>
     <use xlink:href="#md3d82ee8dd" x="152.170625" y="389.975938" style="stroke: #000000"/>
     <use xlink:href="#md3d82ee8dd" x="191.230625" y="293.252375" style="stroke: #000000"/>
     <use xlink:href="#md3d82ee8dd" x="230.290625" y="266.706555" style="stroke: #000000"/>
     <use xlink:href="#md3d82ee8dd" x="269.350625" y="332.080415" style="stroke: #000000"/>
     <use xlink:href="#md3d82ee8dd" x="308.410625" y="365.112468" style="stroke: #000000"/>
     <use xlink:href="#md3d82ee8dd" x="347.470625" y="302.500448" style="stroke: #000000"/>
     <use xlink:href="#md3d82ee8dd" x="386.530625" y="347.093293" style="stroke: #000000"/>
     <use xlink:href="#md3d82ee8dd" x="425.590625" y="334.300816" style="stroke: #000000"/>
     <use xlink:href="#md3d82ee8dd" x="464.650625" y="359.114121" style="stroke: #000000"/>
     <use xlink:href="#md3d82ee8dd" x="503.710625" y="314.674928" style="stroke: #000000"/>
     <use xlink:href="#md3d82ee8dd" x="542.770625" y="265.134215" style="stroke: #000000"/>
     <use xlink:href="#md3d82ee8dd" x="581.830625" y="273.601185" style="stroke: #000000"/>
     <use xlink:href="#md3d82ee8dd" x="620.890625" y="298.186775" style="stroke: #000000"/>
     <use xlink:href="#md3d82ee8dd" x="659.950625" y="284.32646" style="stroke: #000000"/>
     <use xlink:href="#md3d82ee8dd" x="699.010625" y="266.366894" style="stroke: #000000"/>
     <use xlink:href="#md3d82ee8dd" x="738.070625" y="183.769441" style="stroke: #000000"/>
     <use xlink:href="#md3d82ee8dd" x="777.130625" y="286.710432" style="stroke: #000000"/>
     <use xlink:href="#md3d82ee8dd" x="816.190625" y="216.557604" style="stroke: #000000"/>
    </g>
   </g>
   <g id="line2d_60">
    <g clip-path="url(#p4724250af8)">
     <use xlink:href="#md3d82ee8dd" x="74.050625" y="356.406765" style="stroke: #000000"/>
     <use xlink:href="#md3d82ee8dd" x="113.110625" y="386.246006" style="stroke: #000000"/>
     <use xlink:href="#md3d82ee8dd" x="152.170625" y="363.210419" style="stroke: #000000"/>
     <use xlink:href="#md3d82ee8dd" x="191.230625" y="268.508514" style="stroke: #000000"/>
     <use xlink:href="#md3d82ee8dd" x="230.290625" y="236.252425" style="stroke: #000000"/>
     <use xlink:href="#md3d82ee8dd" x="269.350625" y="304.300245" style="stroke: #000000"/>
     <use xlink:href="#md3d82ee8dd" x="308.410625" y="352.906491" style="stroke: #000000"/>
     <use xlink:href="#md3d82ee8dd" x="347.470625" y="235.152094" style="stroke: #000000"/>
     <use xlink:href="#md3d82ee8dd" x="386.530625" y="279.615247" style="stroke: #000000"/>
     <use xlink:href="#md3d82ee8dd" x="425.590625" y="294.021194" style="stroke: #000000"/>
     <use xlink:href="#md3d82ee8dd" x="464.650625" y="333.474617" style="stroke: #000000"/>
     <use xlink:href="#md3d82ee8dd" x="503.710625" y="254.659319" style="stroke: #000000"/>
     <use xlink:href="#md3d82ee8dd" x="542.770625" y="163.333166" style="stroke: #000000"/>
     <use xlink:href="#md3d82ee8dd" x="581.830625" y="222.6972" style="stroke: #000000"/>
     <use xlink:href="#md3d82ee8dd" x="620.890625" y="251.687824" style="stroke: #000000"/>
     <use xlink:href="#md3d82ee8dd" x="659.950625" y="256.649182" style="stroke: #000000"/>
     <use xlink:href="#md3d82ee8dd" x="699.010625" y="239.571015" style="stroke: #000000"/>
     <use xlink:href="#md3d82ee8dd" x="738.070625" y="152.26976" style="stroke: #000000"/>
     <use xlink:href="#md3d82ee8dd" x="777.130625" y="243.053262" style="stroke: #000000"/>
     <use xlink:href="#md3d82ee8dd" x="816.190625" y="183.589167" style="stroke: #000000"/>
    </g>
   </g>
   <g id="LineCollection_4">
    <path d="M 78.933125 373.774134 
L 78.933125 337.209845 
" clip-path="url(#p4724250af8)" style="fill: none; stroke: #000000; stroke-width: 1.5"/>
    <path d="M 117.993125 401.507537 
L 117.993125 369.333415 
" clip-path="url(#p4724250af8)" style="fill: none; stroke: #000000; stroke-width: 1.5"/>
    <path d="M 157.053125 406.139438 
L 157.053125 366.004239 
" clip-path="url(#p4724250af8)" style="fill: none; stroke: #000000; stroke-width: 1.5"/>
    <path d="M 196.113125 295.833989 
L 196.113125 242.742163 
" clip-path="url(#p4724250af8)" style="fill: none; stroke: #000000; stroke-width: 1.5"/>
    <path d="M 235.173125 299.621699 
L 235.173125 210.885051 
" clip-path="url(#p4724250af8)" style="fill: none; stroke: #000000; stroke-width: 1.5"/>
    <path d="M 274.233125 343.583923 
L 274.233125 287.486745 
" clip-path="url(#p4724250af8)" style="fill: none; stroke: #000000; stroke-width: 1.5"/>
    <path d="M 313.293125 386.516268 
L 313.293125 352.258526 
" clip-path="url(#p4724250af8)" style="fill: none; stroke: #000000; stroke-width: 1.5"/>
    <path d="M 352.353125 315.581912 
L 352.353125 199.040655 
" clip-path="url(#p4724250af8)" style="fill: none; stroke: #000000; stroke-width: 1.5"/>
    <path d="M 391.413125 338.950017 
L 391.413125 262.93892 
" clip-path="url(#p4724250af8)" style="fill: none; stroke: #000000; stroke-width: 1.5"/>
    <path d="M 430.473125 348.653967 
L 430.473125 301.583726 
" clip-path="url(#p4724250af8)" style="fill: none; stroke: #000000; stroke-width: 1.5"/>
    <path d="M 469.533125 352.841146 
L 469.533125 299.2181 
" clip-path="url(#p4724250af8)" style="fill: none; stroke: #000000; stroke-width: 1.5"/>
    <path d="M 508.593125 310.806053 
L 508.593125 222.894413 
" clip-path="url(#p4724250af8)" style="fill: none; stroke: #000000; stroke-width: 1.5"/>
    <path d="M 547.653125 286.071106 
L 547.653125 154.587921 
" clip-path="url(#p4724250af8)" style="fill: none; stroke: #000000; stroke-width: 1.5"/>
    <path d="M 586.713125 288.764077 
L 586.713125 211.790999 
" clip-path="url(#p4724250af8)" style="fill: none; stroke: #000000; stroke-width: 1.5"/>
    <path d="M 625.773125 340.349349 
L 625.773125 256.930724 
" clip-path="url(#p4724250af8)" style="fill: none; stroke: #000000; stroke-width: 1.5"/>
    <path d="M 664.833125 286.569557 
L 664.833125 226.375184 
" clip-path="url(#p4724250af8)" style="fill: none; stroke: #000000; stroke-width: 1.5"/>
    <path d="M 703.893125 277.642395 
L 703.893125 209.791079 
" clip-path="url(#p4724250af8)" style="fill: none; stroke: #000000; stroke-width: 1.5"/>
    <path d="M 742.953125 223.359534 
L 742.953125 145.812658 
" clip-path="url(#p4724250af8)" style="fill: none; stroke: #000000; stroke-width: 1.5"/>
    <path d="M 782.013125 306.905325 
L 782.013125 213.448937 
" clip-path="url(#p4724250af8)" style="fill: none; stroke: #000000; stroke-width: 1.5"/>
    <path d="M 821.073125 278.52875 
L 821.073125 190.551745 
" clip-path="url(#p4724250af8)" style="fill: none; stroke: #000000; stroke-width: 1.5"/>
   </g>
   <g id="line2d_61">
    <g clip-path="url(#p4724250af8)">
     <use xlink:href="#md3d82ee8dd" x="78.933125" y="373.774134" style="stroke: #000000"/>
     <use xlink:href="#md3d82ee8dd" x="117.993125" y="401.507537" style="stroke: #000000"/>
     <use xlink:href="#md3d82ee8dd" x="157.053125" y="406.139438" style="stroke: #000000"/>
     <use xlink:href="#md3d82ee8dd" x="196.113125" y="295.833989" style="stroke: #000000"/>
     <use xlink:href="#md3d82ee8dd" x="235.173125" y="299.621699" style="stroke: #000000"/>
     <use xlink:href="#md3d82ee8dd" x="274.233125" y="343.583923" style="stroke: #000000"/>
     <use xlink:href="#md3d82ee8dd" x="313.293125" y="386.516268" style="stroke: #000000"/>
     <use xlink:href="#md3d82ee8dd" x="352.353125" y="315.581912" style="stroke: #000000"/>
     <use xlink:href="#md3d82ee8dd" x="391.413125" y="338.950017" style="stroke: #000000"/>
     <use xlink:href="#md3d82ee8dd" x="430.473125" y="348.653967" style="stroke: #000000"/>
     <use xlink:href="#md3d82ee8dd" x="469.533125" y="352.841146" style="stroke: #000000"/>
     <use xlink:href="#md3d82ee8dd" x="508.593125" y="310.806053" style="stroke: #000000"/>
     <use xlink:href="#md3d82ee8dd" x="547.653125" y="286.071106" style="stroke: #000000"/>
     <use xlink:href="#md3d82ee8dd" x="586.713125" y="288.764077" style="stroke: #000000"/>
     <use xlink:href="#md3d82ee8dd" x="625.773125" y="340.349349" style="stroke: #000000"/>
     <use xlink:href="#md3d82ee8dd" x="664.833125" y="286.569557" style="stroke: #000000"/>
     <use xlink:href="#md3d82ee8dd" x="703.893125" y="277.642395" style="stroke: #000000"/>
     <use xlink:href="#md3d82ee8dd" x="742.953125" y="223.359534" style="stroke: #000000"/>
     <use xlink:href="#md3d82ee8dd" x="782.013125" y="306.905325" style="stroke: #000000"/>
     <use xlink:href="#md3d82ee8dd" x="821.073125" y="278.52875" style="stroke: #000000"/>
    </g>
   </g>
   <g id="line2d_62">
    <g clip-path="url(#p4724250af8)">
     <use xlink:href="#md3d82ee8dd" x="78.933125" y="337.209845" style="stroke: #000000"/>
     <use xlink:href="#md3d82ee8dd" x="117.993125" y="369.333415" style="stroke: #000000"/>
     <use xlink:href="#md3d82ee8dd" x="157.053125" y="366.004239" style="stroke: #000000"/>
     <use xlink:href="#md3d82ee8dd" x="196.113125" y="242.742163" style="stroke: #000000"/>
     <use xlink:href="#md3d82ee8dd" x="235.173125" y="210.885051" style="stroke: #000000"/>
     <use xlink:href="#md3d82ee8dd" x="274.233125" y="287.486745" style="stroke: #000000"/>
     <use xlink:href="#md3d82ee8dd" x="313.293125" y="352.258526" style="stroke: #000000"/>
     <use xlink:href="#md3d82ee8dd" x="352.353125" y="199.040655" style="stroke: #000000"/>
     <use xlink:href="#md3d82ee8dd" x="391.413125" y="262.93892" style="stroke: #000000"/>
     <use xlink:href="#md3d82ee8dd" x="430.473125" y="301.583726" style="stroke: #000000"/>
     <use xlink:href="#md3d82ee8dd" x="469.533125" y="299.2181" style="stroke: #000000"/>
     <use xlink:href="#md3d82ee8dd" x="508.593125" y="222.894413" style="stroke: #000000"/>
     <use xlink:href="#md3d82ee8dd" x="547.653125" y="154.587921" style="stroke: #000000"/>
     <use xlink:href="#md3d82ee8dd" x="586.713125" y="211.790999" style="stroke: #000000"/>
     <use xlink:href="#md3d82ee8dd" x="625.773125" y="256.930724" style="stroke: #000000"/>
     <use xlink:href="#md3d82ee8dd" x="664.833125" y="226.375184" style="stroke: #000000"/>
     <use xlink:href="#md3d82ee8dd" x="703.893125" y="209.791079" style="stroke: #000000"/>
     <use xlink:href="#md3d82ee8dd" x="742.953125" y="145.812658" style="stroke: #000000"/>
     <use xlink:href="#md3d82ee8dd" x="782.013125" y="213.448937" style="stroke: #000000"/>
     <use xlink:href="#md3d82ee8dd" x="821.073125" y="190.551745" style="stroke: #000000"/>
    </g>
   </g>
   <g id="patch_83">
    <path d="M 52.079375 428.9607 
L 52.079375 40.8807 
" style="fill: none; stroke: #000000; stroke-width: 0.8; stroke-linejoin: miter; stroke-linecap: square"/>
   </g>
   <g id="patch_84">
    <path d="M 833.279375 428.9607 
L 833.279375 40.8807 
" style="fill: none; stroke: #000000; stroke-width: 0.8; stroke-linejoin: miter; stroke-linecap: square"/>
   </g>
   <g id="patch_85">
    <path d="M 52.079375 428.9607 
L 833.279375 428.9607 
" style="fill: none; stroke: #000000; stroke-width: 0.8; stroke-linejoin: miter; stroke-linecap: square"/>
   </g>
   <g id="patch_86">
    <path d="M 52.079375 40.8807 
L 833.279375 40.8807 
" style="fill: none; stroke: #000000; stroke-width: 0.8; stroke-linejoin: miter; stroke-linecap: square"/>
   </g>
   <g id="text_30">
    <!-- Distributions of mean amino acid frequencies across domains -->
    <g transform="translate(195.691875 19.3575) scale(0.16 -0.16)">
     <defs>
      <path id="DejaVuSans-69" d="M 603 3500 
L 1178 3500 
L 1178 0 
L 603 0 
L 603 3500 
z
M 603 4863 
L 1178 4863 
L 1178 4134 
L 603 4134 
L 603 4863 
z
" transform="scale(0.015625)"/>
      <path id="DejaVuSans-73" d="M 2834 3397 
L 2834 2853 
Q 2591 2978 2328 3040 
Q 2066 3103 1784 3103 
Q 1356 3103 1142 2972 
Q 928 2841 928 2578 
Q 928 2378 1081 2264 
Q 1234 2150 1697 2047 
L 1894 2003 
Q 2506 1872 2764 1633 
Q 3022 1394 3022 966 
Q 3022 478 2636 193 
Q 2250 -91 1575 -91 
Q 1294 -91 989 -36 
Q 684 19 347 128 
L 347 722 
Q 666 556 975 473 
Q 1284 391 1588 391 
Q 1994 391 2212 530 
Q 2431 669 2431 922 
Q 2431 1156 2273 1281 
Q 2116 1406 1581 1522 
L 1381 1569 
Q 847 1681 609 1914 
Q 372 2147 372 2553 
Q 372 3047 722 3315 
Q 1072 3584 1716 3584 
Q 2034 3584 2315 3537 
Q 2597 3491 2834 3397 
z
" transform="scale(0.015625)"/>
      <path id="DejaVuSans-74" d="M 1172 4494 
L 1172 3500 
L 2356 3500 
L 2356 3053 
L 1172 3053 
L 1172 1153 
Q 1172 725 1289 603 
Q 1406 481 1766 481 
L 2356 481 
L 2356 0 
L 1766 0 
Q 1100 0 847 248 
Q 594 497 594 1153 
L 594 3053 
L 172 3053 
L 172 3500 
L 594 3500 
L 594 4494 
L 1172 4494 
z
" transform="scale(0.015625)"/>
      <path id="DejaVuSans-72" d="M 2631 2963 
Q 2534 3019 2420 3045 
Q 2306 3072 2169 3072 
Q 1681 3072 1420 2755 
Q 1159 2438 1159 1844 
L 1159 0 
L 581 0 
L 581 3500 
L 1159 3500 
L 1159 2956 
Q 1341 3275 1631 3429 
Q 1922 3584 2338 3584 
Q 2397 3584 2469 3576 
Q 2541 3569 2628 3553 
L 2631 2963 
z
" transform="scale(0.015625)"/>
      <path id="DejaVuSans-62" d="M 3116 1747 
Q 3116 2381 2855 2742 
Q 2594 3103 2138 3103 
Q 1681 3103 1420 2742 
Q 1159 2381 1159 1747 
Q 1159 1113 1420 752 
Q 1681 391 2138 391 
Q 2594 391 2855 752 
Q 3116 1113 3116 1747 
z
M 1159 2969 
Q 1341 3281 1617 3432 
Q 1894 3584 2278 3584 
Q 2916 3584 3314 3078 
Q 3713 2572 3713 1747 
Q 3713 922 3314 415 
Q 2916 -91 2278 -91 
Q 1894 -91 1617 61 
Q 1341 213 1159 525 
L 1159 0 
L 581 0 
L 581 4863 
L 1159 4863 
L 1159 2969 
z
" transform="scale(0.015625)"/>
      <path id="DejaVuSans-75" d="M 544 1381 
L 544 3500 
L 1119 3500 
L 1119 1403 
Q 1119 906 1312 657 
Q 1506 409 1894 409 
Q 2359 409 2629 706 
Q 2900 1003 2900 1516 
L 2900 3500 
L 3475 3500 
L 3475 0 
L 2900 0 
L 2900 538 
Q 2691 219 2414 64 
Q 2138 -91 1772 -91 
Q 1169 -91 856 284 
Q 544 659 544 1381 
z
M 1991 3584 
L 1991 3584 
z
" transform="scale(0.015625)"/>
      <path id="DejaVuSans-6f" d="M 1959 3097 
Q 1497 3097 1228 2736 
Q 959 2375 959 1747 
Q 959 1119 1226 758 
Q 1494 397 1959 397 
Q 2419 397 2687 759 
Q 2956 1122 2956 1747 
Q 2956 2369 2687 2733 
Q 2419 3097 1959 3097 
z
M 1959 3584 
Q 2709 3584 3137 3096 
Q 3566 2609 3566 1747 
Q 3566 888 3137 398 
Q 2709 -91 1959 -91 
Q 1206 -91 779 398 
Q 353 888 353 1747 
Q 353 2609 779 3096 
Q 1206 3584 1959 3584 
z
" transform="scale(0.015625)"/>
      <path id="DejaVuSans-6e" d="M 3513 2113 
L 3513 0 
L 2938 0 
L 2938 2094 
Q 2938 2591 2744 2837 
Q 2550 3084 2163 3084 
Q 1697 3084 1428 2787 
Q 1159 2491 1159 1978 
L 1159 0 
L 581 0 
L 581 3500 
L 1159 3500 
L 1159 2956 
Q 1366 3272 1645 3428 
Q 1925 3584 2291 3584 
Q 2894 3584 3203 3211 
Q 3513 2838 3513 2113 
z
" transform="scale(0.015625)"/>
      <path id="DejaVuSans-20" transform="scale(0.015625)"/>
      <path id="DejaVuSans-66" d="M 2375 4863 
L 2375 4384 
L 1825 4384 
Q 1516 4384 1395 4259 
Q 1275 4134 1275 3809 
L 1275 3500 
L 2222 3500 
L 2222 3053 
L 1275 3053 
L 1275 0 
L 697 0 
L 697 3053 
L 147 3053 
L 147 3500 
L 697 3500 
L 697 3744 
Q 697 4328 969 4595 
Q 1241 4863 1831 4863 
L 2375 4863 
z
" transform="scale(0.015625)"/>
      <path id="DejaVuSans-6d" d="M 3328 2828 
Q 3544 3216 3844 3400 
Q 4144 3584 4550 3584 
Q 5097 3584 5394 3201 
Q 5691 2819 5691 2113 
L 5691 0 
L 5113 0 
L 5113 2094 
Q 5113 2597 4934 2840 
Q 4756 3084 4391 3084 
Q 3944 3084 3684 2787 
Q 3425 2491 3425 1978 
L 3425 0 
L 2847 0 
L 2847 2094 
Q 2847 2600 2669 2842 
Q 2491 3084 2119 3084 
Q 1678 3084 1418 2786 
Q 1159 2488 1159 1978 
L 1159 0 
L 581 0 
L 581 3500 
L 1159 3500 
L 1159 2956 
Q 1356 3278 1631 3431 
Q 1906 3584 2284 3584 
Q 2666 3584 2933 3390 
Q 3200 3197 3328 2828 
z
" transform="scale(0.015625)"/>
      <path id="DejaVuSans-65" d="M 3597 1894 
L 3597 1613 
L 953 1613 
Q 991 1019 1311 708 
Q 1631 397 2203 397 
Q 2534 397 2845 478 
Q 3156 559 3463 722 
L 3463 178 
Q 3153 47 2828 -22 
Q 2503 -91 2169 -91 
Q 1331 -91 842 396 
Q 353 884 353 1716 
Q 353 2575 817 3079 
Q 1281 3584 2069 3584 
Q 2775 3584 3186 3129 
Q 3597 2675 3597 1894 
z
M 3022 2063 
Q 3016 2534 2758 2815 
Q 2500 3097 2075 3097 
Q 1594 3097 1305 2825 
Q 1016 2553 972 2059 
L 3022 2063 
z
" transform="scale(0.015625)"/>
      <path id="DejaVuSans-61" d="M 2194 1759 
Q 1497 1759 1228 1600 
Q 959 1441 959 1056 
Q 959 750 1161 570 
Q 1363 391 1709 391 
Q 2188 391 2477 730 
Q 2766 1069 2766 1631 
L 2766 1759 
L 2194 1759 
z
M 3341 1997 
L 3341 0 
L 2766 0 
L 2766 531 
Q 2569 213 2275 61 
Q 1981 -91 1556 -91 
Q 1019 -91 701 211 
Q 384 513 384 1019 
Q 384 1609 779 1909 
Q 1175 2209 1959 2209 
L 2766 2209 
L 2766 2266 
Q 2766 2663 2505 2880 
Q 2244 3097 1772 3097 
Q 1472 3097 1187 3025 
Q 903 2953 641 2809 
L 641 3341 
Q 956 3463 1253 3523 
Q 1550 3584 1831 3584 
Q 2591 3584 2966 3190 
Q 3341 2797 3341 1997 
z
" transform="scale(0.015625)"/>
      <path id="DejaVuSans-63" d="M 3122 3366 
L 3122 2828 
Q 2878 2963 2633 3030 
Q 2388 3097 2138 3097 
Q 1578 3097 1268 2742 
Q 959 2388 959 1747 
Q 959 1106 1268 751 
Q 1578 397 2138 397 
Q 2388 397 2633 464 
Q 2878 531 3122 666 
L 3122 134 
Q 2881 22 2623 -34 
Q 2366 -91 2075 -91 
Q 1284 -91 818 406 
Q 353 903 353 1747 
Q 353 2603 823 3093 
Q 1294 3584 2113 3584 
Q 2378 3584 2631 3529 
Q 2884 3475 3122 3366 
z
" transform="scale(0.015625)"/>
      <path id="DejaVuSans-64" d="M 2906 2969 
L 2906 4863 
L 3481 4863 
L 3481 0 
L 2906 0 
L 2906 525 
Q 2725 213 2448 61 
Q 2172 -91 1784 -91 
Q 1150 -91 751 415 
Q 353 922 353 1747 
Q 353 2572 751 3078 
Q 1150 3584 1784 3584 
Q 2172 3584 2448 3432 
Q 2725 3281 2906 2969 
z
M 947 1747 
Q 947 1113 1208 752 
Q 1469 391 1925 391 
Q 2381 391 2643 752 
Q 2906 1113 2906 1747 
Q 2906 2381 2643 2742 
Q 2381 3103 1925 3103 
Q 1469 3103 1208 2742 
Q 947 2381 947 1747 
z
" transform="scale(0.015625)"/>
      <path id="DejaVuSans-71" d="M 947 1747 
Q 947 1113 1208 752 
Q 1469 391 1925 391 
Q 2381 391 2643 752 
Q 2906 1113 2906 1747 
Q 2906 2381 2643 2742 
Q 2381 3103 1925 3103 
Q 1469 3103 1208 2742 
Q 947 2381 947 1747 
z
M 2906 525 
Q 2725 213 2448 61 
Q 2172 -91 1784 -91 
Q 1150 -91 751 415 
Q 353 922 353 1747 
Q 353 2572 751 3078 
Q 1150 3584 1784 3584 
Q 2172 3584 2448 3432 
Q 2725 3281 2906 2969 
L 2906 3500 
L 3481 3500 
L 3481 -1331 
L 2906 -1331 
L 2906 525 
z
" transform="scale(0.015625)"/>
     </defs>
     <use xlink:href="#DejaVuSans-44"/>
     <use xlink:href="#DejaVuSans-69" x="77.001953"/>
     <use xlink:href="#DejaVuSans-73" x="104.785156"/>
     <use xlink:href="#DejaVuSans-74" x="156.884766"/>
     <use xlink:href="#DejaVuSans-72" x="196.09375"/>
     <use xlink:href="#DejaVuSans-69" x="237.207031"/>
     <use xlink:href="#DejaVuSans-62" x="264.990234"/>
     <use xlink:href="#DejaVuSans-75" x="328.466797"/>
     <use xlink:href="#DejaVuSans-74" x="391.845703"/>
     <use xlink:href="#DejaVuSans-69" x="431.054688"/>
     <use xlink:href="#DejaVuSans-6f" x="458.837891"/>
     <use xlink:href="#DejaVuSans-6e" x="520.019531"/>
     <use xlink:href="#DejaVuSans-73" x="583.398438"/>
     <use xlink:href="#DejaVuSans-20" x="635.498047"/>
     <use xlink:href="#DejaVuSans-6f" x="667.285156"/>
     <use xlink:href="#DejaVuSans-66" x="728.466797"/>
     <use xlink:href="#DejaVuSans-20" x="763.671875"/>
     <use xlink:href="#DejaVuSans-6d" x="795.458984"/>
     <use xlink:href="#DejaVuSans-65" x="892.871094"/>
     <use xlink:href="#DejaVuSans-61" x="954.394531"/>
     <use xlink:href="#DejaVuSans-6e" x="1015.673828"/>
     <use xlink:href="#DejaVuSans-20" x="1079.052734"/>
     <use xlink:href="#DejaVuSans-61" x="1110.839844"/>
     <use xlink:href="#DejaVuSans-6d" x="1172.119141"/>
     <use xlink:href="#DejaVuSans-69" x="1269.53125"/>
     <use xlink:href="#DejaVuSans-6e" x="1297.314453"/>
     <use xlink:href="#DejaVuSans-6f" x="1360.693359"/>
     <use xlink:href="#DejaVuSans-20" x="1421.875"/>
     <use xlink:href="#DejaVuSans-61" x="1453.662109"/>
     <use xlink:href="#DejaVuSans-63" x="1514.941406"/>
     <use xlink:href="#DejaVuSans-69" x="1569.921875"/>
     <use xlink:href="#DejaVuSans-64" x="1597.705078"/>
     <use xlink:href="#DejaVuSans-20" x="1661.181641"/>
     <use xlink:href="#DejaVuSans-66" x="1692.96875"/>
     <use xlink:href="#DejaVuSans-72" x="1728.173828"/>
     <use xlink:href="#DejaVuSans-65" x="1767.037109"/>
     <use xlink:href="#DejaVuSans-71" x="1828.560547"/>
     <use xlink:href="#DejaVuSans-75" x="1892.037109"/>
     <use xlink:href="#DejaVuSans-65" x="1955.416016"/>
     <use xlink:href="#DejaVuSans-6e" x="2016.939453"/>
     <use xlink:href="#DejaVuSans-63" x="2080.318359"/>
     <use xlink:href="#DejaVuSans-69" x="2135.298828"/>
     <use xlink:href="#DejaVuSans-65" x="2163.082031"/>
     <use xlink:href="#DejaVuSans-73" x="2224.605469"/>
     <use xlink:href="#DejaVuSans-20" x="2276.705078"/>
     <use xlink:href="#DejaVuSans-61" x="2308.492188"/>
     <use xlink:href="#DejaVuSans-63" x="2369.771484"/>
     <use xlink:href="#DejaVuSans-72" x="2424.751953"/>
     <use xlink:href="#DejaVuSans-6f" x="2463.615234"/>
     <use xlink:href="#DejaVuSans-73" x="2524.796875"/>
     <use xlink:href="#DejaVuSans-73" x="2576.896484"/>
     <use xlink:href="#DejaVuSans-20" x="2628.996094"/>
     <use xlink:href="#DejaVuSans-64" x="2660.783203"/>
     <use xlink:href="#DejaVuSans-6f" x="2724.259766"/>
     <use xlink:href="#DejaVuSans-6d" x="2785.441406"/>
     <use xlink:href="#DejaVuSans-61" x="2882.853516"/>
     <use xlink:href="#DejaVuSans-69" x="2944.132812"/>
     <use xlink:href="#DejaVuSans-6e" x="2971.916016"/>
     <use xlink:href="#DejaVuSans-73" x="3035.294922"/>
    </g>
   </g>
   <g id="legend_1">
    <g id="patch_87">
     <path d="M 60.479375 136.613825 
L 165.876875 136.613825 
Q 168.276875 136.613825 168.276875 134.213825 
L 168.276875 49.2807 
Q 168.276875 46.8807 165.876875 46.8807 
L 60.479375 46.8807 
Q 58.079375 46.8807 58.079375 49.2807 
L 58.079375 134.213825 
Q 58.079375 136.613825 60.479375 136.613825 
z
" style="fill: #ffffff; opacity: 0.8; stroke: #cccccc; stroke-linejoin: miter"/>
    </g>
    <g id="text_31">
     <!-- Domain -->
     <g transform="translate(93.776563 59.279138) scale(0.1 -0.1)">
      <use xlink:href="#DejaVuSans-44"/>
      <use xlink:href="#DejaVuSans-6f" x="77.001953"/>
      <use xlink:href="#DejaVuSans-6d" x="138.183594"/>
      <use xlink:href="#DejaVuSans-61" x="235.595703"/>
      <use xlink:href="#DejaVuSans-69" x="296.875"/>
      <use xlink:href="#DejaVuSans-6e" x="324.658203"/>
     </g>
    </g>
    <g id="patch_88">
     <path d="M 62.879375 76.47695 
L 86.879375 76.47695 
L 86.879375 68.07695 
L 62.879375 68.07695 
z
" style="fill: #1f77b4"/>
    </g>
    <g id="text_32">
     <!-- Archaea -->
     <g transform="translate(96.479375 76.47695) scale(0.12 -0.12)">
      <defs>
       <path id="DejaVuSans-68" d="M 3513 2113 
L 3513 0 
L 2938 0 
L 2938 2094 
Q 2938 2591 2744 2837 
Q 2550 3084 2163 3084 
Q 1697 3084 1428 2787 
Q 1159 2491 1159 1978 
L 1159 0 
L 581 0 
L 581 4863 
L 1159 4863 
L 1159 2956 
Q 1366 3272 1645 3428 
Q 1925 3584 2291 3584 
Q 2894 3584 3203 3211 
Q 3513 2838 3513 2113 
z
" transform="scale(0.015625)"/>
      </defs>
      <use xlink:href="#DejaVuSans-41"/>
      <use xlink:href="#DejaVuSans-72" x="68.408203"/>
      <use xlink:href="#DejaVuSans-63" x="107.271484"/>
      <use xlink:href="#DejaVuSans-68" x="162.251953"/>
      <use xlink:href="#DejaVuSans-61" x="225.630859"/>
      <use xlink:href="#DejaVuSans-65" x="286.910156"/>
      <use xlink:href="#DejaVuSans-61" x="348.433594"/>
     </g>
    </g>
    <g id="patch_89">
     <path d="M 62.879375 94.0907 
L 86.879375 94.0907 
L 86.879375 85.6907 
L 62.879375 85.6907 
z
" style="fill: #ff7f0e"/>
    </g>
    <g id="text_33">
     <!-- Bacteria -->
     <g transform="translate(96.479375 94.0907) scale(0.12 -0.12)">
      <defs>
       <path id="DejaVuSans-42" d="M 1259 2228 
L 1259 519 
L 2272 519 
Q 2781 519 3026 730 
Q 3272 941 3272 1375 
Q 3272 1813 3026 2020 
Q 2781 2228 2272 2228 
L 1259 2228 
z
M 1259 4147 
L 1259 2741 
L 2194 2741 
Q 2656 2741 2882 2914 
Q 3109 3088 3109 3444 
Q 3109 3797 2882 3972 
Q 2656 4147 2194 4147 
L 1259 4147 
z
M 628 4666 
L 2241 4666 
Q 2963 4666 3353 4366 
Q 3744 4066 3744 3513 
Q 3744 3084 3544 2831 
Q 3344 2578 2956 2516 
Q 3422 2416 3680 2098 
Q 3938 1781 3938 1306 
Q 3938 681 3513 340 
Q 3088 0 2303 0 
L 628 0 
L 628 4666 
z
" transform="scale(0.015625)"/>
      </defs>
      <use xlink:href="#DejaVuSans-42"/>
      <use xlink:href="#DejaVuSans-61" x="68.603516"/>
      <use xlink:href="#DejaVuSans-63" x="129.882812"/>
      <use xlink:href="#DejaVuSans-74" x="184.863281"/>
      <use xlink:href="#DejaVuSans-65" x="224.072266"/>
      <use xlink:href="#DejaVuSans-72" x="285.595703"/>
      <use xlink:href="#DejaVuSans-69" x="326.708984"/>
      <use xlink:href="#DejaVuSans-61" x="354.492188"/>
     </g>
    </g>
    <g id="patch_90">
     <path d="M 62.879375 111.70445 
L 86.879375 111.70445 
L 86.879375 103.30445 
L 62.879375 103.30445 
z
" style="fill: #2ca02c"/>
    </g>
    <g id="text_34">
     <!-- Eukaryotes -->
     <g transform="translate(96.479375 111.70445) scale(0.12 -0.12)">
      <defs>
       <path id="DejaVuSans-6b" d="M 581 4863 
L 1159 4863 
L 1159 1991 
L 2875 3500 
L 3609 3500 
L 1753 1863 
L 3688 0 
L 2938 0 
L 1159 1709 
L 1159 0 
L 581 0 
L 581 4863 
z
" transform="scale(0.015625)"/>
       <path id="DejaVuSans-79" d="M 2059 -325 
Q 1816 -950 1584 -1140 
Q 1353 -1331 966 -1331 
L 506 -1331 
L 506 -850 
L 844 -850 
Q 1081 -850 1212 -737 
Q 1344 -625 1503 -206 
L 1606 56 
L 191 3500 
L 800 3500 
L 1894 763 
L 2988 3500 
L 3597 3500 
L 2059 -325 
z
" transform="scale(0.015625)"/>
      </defs>
      <use xlink:href="#DejaVuSans-45"/>
      <use xlink:href="#DejaVuSans-75" x="63.183594"/>
      <use xlink:href="#DejaVuSans-6b" x="126.5625"/>
      <use xlink:href="#DejaVuSans-61" x="182.722656"/>
      <use xlink:href="#DejaVuSans-72" x="244.001953"/>
      <use xlink:href="#DejaVuSans-79" x="285.115234"/>
      <use xlink:href="#DejaVuSans-6f" x="344.294922"/>
      <use xlink:href="#DejaVuSans-74" x="405.476562"/>
      <use xlink:href="#DejaVuSans-65" x="444.685547"/>
      <use xlink:href="#DejaVuSans-73" x="506.208984"/>
     </g>
    </g>
    <g id="patch_91">
     <path d="M 62.879375 129.3182 
L 86.879375 129.3182 
L 86.879375 120.9182 
L 62.879375 120.9182 
z
" style="fill: #d62728"/>
    </g>
    <g id="text_35">
     <!-- Viruses -->
     <g transform="translate(96.479375 129.3182) scale(0.12 -0.12)">
      <use xlink:href="#DejaVuSans-56"/>
      <use xlink:href="#DejaVuSans-69" x="66.158203"/>
      <use xlink:href="#DejaVuSans-72" x="93.941406"/>
      <use xlink:href="#DejaVuSans-75" x="135.054688"/>
      <use xlink:href="#DejaVuSans-73" x="198.433594"/>
      <use xlink:href="#DejaVuSans-65" x="250.533203"/>
      <use xlink:href="#DejaVuSans-73" x="312.056641"/>
     </g>
    </g>
   </g>
  </g>
 </g>
 <defs>
  <clipPath id="p4724250af8">
   <rect x="52.079375" y="40.8807" width="781.2" height="388.08"/>
  </clipPath>
 </defs>
</svg>
