<?xml version="1.0" encoding="utf-8" standalone="no"?>
<!DOCTYPE svg PUBLIC "-//W3C//DTD SVG 1.1//EN"
  "http://www.w3.org/Graphics/SVG/1.1/DTD/svg11.dtd">
<svg xmlns:xlink="http://www.w3.org/1999/xlink" width="572.4pt" height="490.429844pt" viewBox="0 0 572.4 490.429844" xmlns="http://www.w3.org/2000/svg" version="1.1">
 <metadata>
  <rdf:RDF xmlns:dc="http://purl.org/dc/elements/1.1/" xmlns:cc="http://creativecommons.org/ns#" xmlns:rdf="http://www.w3.org/1999/02/22-rdf-syntax-ns#">
   <cc:Work>
    <dc:type rdf:resource="http://purl.org/dc/dcmitype/StillImage"/>
    <dc:date>2024-08-01T13:47:36.667761</dc:date>
    <dc:format>image/svg+xml</dc:format>
    <dc:creator>
     <cc:Agent>
      <dc:title>Matplotlib v3.8.3, https://matplotlib.org/</dc:title>
     </cc:Agent>
    </dc:creator>
   </cc:Work>
  </rdf:RDF>
 </metadata>
 <defs>
  <style type="text/css">*{stroke-linejoin: round; stroke-linecap: butt}</style>
 </defs>
 <g id="figure_1">
  <g id="patch_1">
   <path d="M 0 490.429844 
L 572.4 490.429844 
L 572.4 -0 
L 0 -0 
z
" style="fill: #ffffff"/>
  </g>
  <g id="axes_1">
   <g id="patch_2">
    <path d="M 7.2 483.229844 
L 565.2 483.229844 
L 565.2 7.2 
L 7.2 7.2 
z
" style="fill: #ffffff"/>
   </g>
   <g id="patch_3">
    <path d="M 80.945018 252.71599 
Q 128.236649 334.627479 174.969263 415.570723 
" clip-path="url(#p0b07d56724)" style="fill: none; stroke: #000000; stroke-linecap: round"/>
    <path d="M 174.701314 411.106621 
L 174.969263 415.570723 
L 171.237212 413.106621 
z
" clip-path="url(#p0b07d56724)" style="stroke: #000000; stroke-linecap: round"/>
   </g>
   <g id="patch_4">
    <path d="M 84.11232 249.543947 
Q 231.479027 334.626156 377.877489 419.149348 
" clip-path="url(#p0b07d56724)" style="fill: none; stroke: #000000; stroke-linecap: round"/>
    <path d="M 375.413387 415.417297 
L 377.877489 419.149348 
L 373.413387 418.881399 
z
" clip-path="url(#p0b07d56724)" style="stroke: #000000; stroke-linecap: round"/>
   </g>
   <g id="patch_5">
    <path d="M 85.275739 245.21496 
Q 283.103961 245.214934 479.814149 245.214908 
" clip-path="url(#p0b07d56724)" style="fill: none; stroke: #000000; stroke-linecap: round"/>
    <path d="M 475.814149 243.214909 
L 479.814149 245.214908 
L 475.81415 247.214909 
z
" clip-path="url(#p0b07d56724)" style="stroke: #000000; stroke-linecap: round"/>
   </g>
   <g id="patch_6">
    <path d="M 84.112318 240.885973 
Q 231.478996 155.803729 377.877429 71.280503 
" clip-path="url(#p0b07d56724)" style="fill: none; stroke: #000000; stroke-linecap: round"/>
    <path d="M 373.413327 71.548453 
L 377.877429 71.280503 
L 375.413328 75.012554 
z
" clip-path="url(#p0b07d56724)" style="stroke: #000000; stroke-linecap: round"/>
   </g>
   <g id="patch_7">
    <path d="M 80.945015 237.713932 
Q 128.236616 155.802443 174.969199 74.8592 
" clip-path="url(#p0b07d56724)" style="fill: none; stroke: #000000; stroke-linecap: round"/>
    <path d="M 171.237148 77.323303 
L 174.969199 74.8592 
L 174.70125 79.323302 
z
" clip-path="url(#p0b07d56724)" style="stroke: #000000; stroke-linecap: round"/>
   </g>
   <g id="text_1">
    <g id="patch_8">
     <path d="M 119.857197 335.791968 
L 123.038448 341.302054 
Q 124.538448 343.90013 127.136524 342.40013 
L 135.518026 337.561067 
Q 138.116102 336.061066 136.616102 333.46299 
L 133.434851 327.952904 
Q 131.934851 325.354828 129.336775 326.854828 
L 120.955273 331.693892 
Q 118.357197 333.193892 119.857197 335.791968 
z
" clip-path="url(#p0b07d56724)" style="fill: #ffffff; stroke: #ffffff; stroke-linejoin: miter"/>
    </g>
    <g clip-path="url(#p0b07d56724)">
     <!-- 0 -->
     <g transform="translate(124.256335 333.252124) rotate(-300.000006) scale(0.1 -0.1)">
      <defs>
       <path id="DejaVuSans-30" d="M 2034 4250 
Q 1547 4250 1301 3770 
Q 1056 3291 1056 2328 
Q 1056 1369 1301 889 
Q 1547 409 2034 409 
Q 2525 409 2770 889 
Q 3016 1369 3016 2328 
Q 3016 3291 2770 3770 
Q 2525 4250 2034 4250 
z
M 2034 4750 
Q 2819 4750 3233 4129 
Q 3647 3509 3647 2328 
Q 3647 1150 3233 529 
Q 2819 -91 2034 -91 
Q 1250 -91 836 529 
Q 422 1150 422 2328 
Q 422 3509 836 4129 
Q 1250 4750 2034 4750 
z
" transform="scale(0.015625)"/>
      </defs>
      <use xlink:href="#DejaVuSans-30"/>
     </g>
    </g>
   </g>
   <g id="text_2">
    <g id="patch_9">
     <path d="M 213.784279 333.461858 
L 241.334713 349.368108 
Q 243.932789 350.868108 245.432789 348.270032 
L 250.271851 339.88853 
Q 251.771851 337.290454 249.173775 335.790454 
L 221.623342 319.884204 
Q 219.025266 318.384204 217.525266 320.98228 
L 212.686203 329.363782 
Q 211.186203 331.961858 213.784279 333.461858 
z
" clip-path="url(#p0b07d56724)" style="fill: #ffffff; stroke: #ffffff; stroke-linejoin: miter"/>
    </g>
    <g clip-path="url(#p0b07d56724)">
     <!-- 69073 -->
     <g transform="translate(216.324123 329.06272) rotate(-330) scale(0.1 -0.1)">
      <defs>
       <path id="DejaVuSans-36" d="M 2113 2584 
Q 1688 2584 1439 2293 
Q 1191 2003 1191 1497 
Q 1191 994 1439 701 
Q 1688 409 2113 409 
Q 2538 409 2786 701 
Q 3034 994 3034 1497 
Q 3034 2003 2786 2293 
Q 2538 2584 2113 2584 
z
M 3366 4563 
L 3366 3988 
Q 3128 4100 2886 4159 
Q 2644 4219 2406 4219 
Q 1781 4219 1451 3797 
Q 1122 3375 1075 2522 
Q 1259 2794 1537 2939 
Q 1816 3084 2150 3084 
Q 2853 3084 3261 2657 
Q 3669 2231 3669 1497 
Q 3669 778 3244 343 
Q 2819 -91 2113 -91 
Q 1303 -91 875 529 
Q 447 1150 447 2328 
Q 447 3434 972 4092 
Q 1497 4750 2381 4750 
Q 2619 4750 2861 4703 
Q 3103 4656 3366 4563 
z
" transform="scale(0.015625)"/>
       <path id="DejaVuSans-39" d="M 703 97 
L 703 672 
Q 941 559 1184 500 
Q 1428 441 1663 441 
Q 2288 441 2617 861 
Q 2947 1281 2994 2138 
Q 2813 1869 2534 1725 
Q 2256 1581 1919 1581 
Q 1219 1581 811 2004 
Q 403 2428 403 3163 
Q 403 3881 828 4315 
Q 1253 4750 1959 4750 
Q 2769 4750 3195 4129 
Q 3622 3509 3622 2328 
Q 3622 1225 3098 567 
Q 2575 -91 1691 -91 
Q 1453 -91 1209 -44 
Q 966 3 703 97 
z
M 1959 2075 
Q 2384 2075 2632 2365 
Q 2881 2656 2881 3163 
Q 2881 3666 2632 3958 
Q 2384 4250 1959 4250 
Q 1534 4250 1286 3958 
Q 1038 3666 1038 3163 
Q 1038 2656 1286 2365 
Q 1534 2075 1959 2075 
z
" transform="scale(0.015625)"/>
       <path id="DejaVuSans-37" d="M 525 4666 
L 3525 4666 
L 3525 4397 
L 1831 0 
L 1172 0 
L 2766 4134 
L 525 4134 
L 525 4666 
z
" transform="scale(0.015625)"/>
       <path id="DejaVuSans-33" d="M 2597 2516 
Q 3050 2419 3304 2112 
Q 3559 1806 3559 1356 
Q 3559 666 3084 287 
Q 2609 -91 1734 -91 
Q 1441 -91 1130 -33 
Q 819 25 488 141 
L 488 750 
Q 750 597 1062 519 
Q 1375 441 1716 441 
Q 2309 441 2620 675 
Q 2931 909 2931 1356 
Q 2931 1769 2642 2001 
Q 2353 2234 1838 2234 
L 1294 2234 
L 1294 2753 
L 1863 2753 
Q 2328 2753 2575 2939 
Q 2822 3125 2822 3475 
Q 2822 3834 2567 4026 
Q 2313 4219 1838 4219 
Q 1578 4219 1281 4162 
Q 984 4106 628 3988 
L 628 4550 
Q 988 4650 1302 4700 
Q 1616 4750 1894 4750 
Q 2613 4750 3031 4423 
Q 3450 4097 3450 3541 
Q 3450 3153 3228 2886 
Q 3006 2619 2597 2516 
z
" transform="scale(0.015625)"/>
      </defs>
      <use xlink:href="#DejaVuSans-36"/>
      <use xlink:href="#DejaVuSans-39" x="63.623047"/>
      <use xlink:href="#DejaVuSans-30" x="127.246094"/>
      <use xlink:href="#DejaVuSans-37" x="190.869141"/>
      <use xlink:href="#DejaVuSans-33" x="254.492188"/>
     </g>
    </g>
   </g>
   <g id="text_3">
    <g id="patch_10">
     <path d="M 267.197712 253.053998 
L 299.010212 253.053994 
Q 302.010212 253.053994 302.010212 250.053994 
L 302.01021 240.375869 
Q 302.01021 237.375869 299.01021 237.375869 
L 267.19771 237.375873 
Q 264.19771 237.375874 264.19771 240.375874 
L 264.197712 250.053999 
Q 264.197712 253.053999 267.197712 253.053998 
z
" clip-path="url(#p0b07d56724)" style="fill: #ffffff; stroke: #ffffff; stroke-linejoin: miter"/>
    </g>
    <g clip-path="url(#p0b07d56724)">
     <!-- 54813 -->
     <g transform="translate(267.197711 247.974311) rotate(-0.000008) scale(0.1 -0.1)">
      <defs>
       <path id="DejaVuSans-35" d="M 691 4666 
L 3169 4666 
L 3169 4134 
L 1269 4134 
L 1269 2991 
Q 1406 3038 1543 3061 
Q 1681 3084 1819 3084 
Q 2600 3084 3056 2656 
Q 3513 2228 3513 1497 
Q 3513 744 3044 326 
Q 2575 -91 1722 -91 
Q 1428 -91 1123 -41 
Q 819 9 494 109 
L 494 744 
Q 775 591 1075 516 
Q 1375 441 1709 441 
Q 2250 441 2565 725 
Q 2881 1009 2881 1497 
Q 2881 1984 2565 2268 
Q 2250 2553 1709 2553 
Q 1456 2553 1204 2497 
Q 953 2441 691 2322 
L 691 4666 
z
" transform="scale(0.015625)"/>
       <path id="DejaVuSans-34" d="M 2419 4116 
L 825 1625 
L 2419 1625 
L 2419 4116 
z
M 2253 4666 
L 3047 4666 
L 3047 1625 
L 3713 1625 
L 3713 1100 
L 3047 1100 
L 3047 0 
L 2419 0 
L 2419 1100 
L 313 1100 
L 313 1709 
L 2253 4666 
z
" transform="scale(0.015625)"/>
       <path id="DejaVuSans-38" d="M 2034 2216 
Q 1584 2216 1326 1975 
Q 1069 1734 1069 1313 
Q 1069 891 1326 650 
Q 1584 409 2034 409 
Q 2484 409 2743 651 
Q 3003 894 3003 1313 
Q 3003 1734 2745 1975 
Q 2488 2216 2034 2216 
z
M 1403 2484 
Q 997 2584 770 2862 
Q 544 3141 544 3541 
Q 544 4100 942 4425 
Q 1341 4750 2034 4750 
Q 2731 4750 3128 4425 
Q 3525 4100 3525 3541 
Q 3525 3141 3298 2862 
Q 3072 2584 2669 2484 
Q 3125 2378 3379 2068 
Q 3634 1759 3634 1313 
Q 3634 634 3220 271 
Q 2806 -91 2034 -91 
Q 1263 -91 848 271 
Q 434 634 434 1313 
Q 434 1759 690 2068 
Q 947 2378 1403 2484 
z
M 1172 3481 
Q 1172 3119 1398 2916 
Q 1625 2713 2034 2713 
Q 2441 2713 2670 2916 
Q 2900 3119 2900 3481 
Q 2900 3844 2670 4047 
Q 2441 4250 2034 4250 
Q 1625 4250 1398 4047 
Q 1172 3844 1172 3481 
z
" transform="scale(0.015625)"/>
       <path id="DejaVuSans-31" d="M 794 531 
L 1825 531 
L 1825 4091 
L 703 3866 
L 703 4441 
L 1819 4666 
L 2450 4666 
L 2450 531 
L 3481 531 
L 3481 0 
L 794 0 
L 794 531 
z
" transform="scale(0.015625)"/>
      </defs>
      <use xlink:href="#DejaVuSans-35"/>
      <use xlink:href="#DejaVuSans-34" x="63.623047"/>
      <use xlink:href="#DejaVuSans-38" x="127.246094"/>
      <use xlink:href="#DejaVuSans-31" x="190.869141"/>
      <use xlink:href="#DejaVuSans-33" x="254.492188"/>
     </g>
    </g>
   </g>
   <g id="text_4">
    <g id="patch_11">
     <path d="M 221.623315 170.545684 
L 249.173744 154.639427 
Q 251.77182 153.139426 250.271819 150.54135 
L 245.432754 142.15985 
Q 243.932754 139.561774 241.334678 141.061774 
L 213.784249 156.968032 
Q 211.186173 158.468032 212.686174 161.066108 
L 217.525239 169.447609 
Q 219.025239 172.045685 221.623315 170.545684 
z
" clip-path="url(#p0b07d56724)" style="fill: #ffffff; stroke: #ffffff; stroke-linejoin: miter"/>
    </g>
    <g clip-path="url(#p0b07d56724)">
     <!-- 78171 -->
     <g transform="translate(219.08347 166.146546) rotate(-30.000015) scale(0.1 -0.1)">
      <use xlink:href="#DejaVuSans-37"/>
      <use xlink:href="#DejaVuSans-38" x="63.623047"/>
      <use xlink:href="#DejaVuSans-31" x="127.246094"/>
      <use xlink:href="#DejaVuSans-37" x="190.869141"/>
      <use xlink:href="#DejaVuSans-31" x="254.492188"/>
     </g>
    </g>
   </g>
   <g id="text_5">
    <g id="patch_12">
     <path d="M 127.072321 173.497191 
L 142.978566 145.946755 
Q 144.478565 143.348679 141.880489 141.848679 
L 133.498986 137.009618 
Q 130.90091 135.509619 129.40091 138.107695 
L 113.494665 165.658131 
Q 111.994666 168.256208 114.592742 169.756207 
L 122.974245 174.595268 
Q 125.572321 176.095268 127.072321 173.497191 
z
" clip-path="url(#p0b07d56724)" style="fill: #ffffff; stroke: #ffffff; stroke-linejoin: miter"/>
    </g>
    <g clip-path="url(#p0b07d56724)">
     <!-- 48810 -->
     <g transform="translate(122.673182 170.957348) rotate(-60.00001) scale(0.1 -0.1)">
      <use xlink:href="#DejaVuSans-34"/>
      <use xlink:href="#DejaVuSans-38" x="63.623047"/>
      <use xlink:href="#DejaVuSans-38" x="127.246094"/>
      <use xlink:href="#DejaVuSans-31" x="190.869141"/>
      <use xlink:href="#DejaVuSans-30" x="254.492188"/>
     </g>
    </g>
   </g>
   <g id="patch_13">
    <path d="M 76.614296 217.683189 
C 70.125289 217.683189 63.840653 219.977296 58.877629 224.157679 
C 53.914604 228.338063 50.585813 234.141399 49.483024 240.536012 
C 48.380235 246.930625 49.572913 253.513716 52.849033 259.114988 
C 56.125153 264.716261 61.27835 268.98289 67.392526 271.156384 
L 76.614296 245.214961 
z
" style="fill: #0000ff"/>
   </g>
   <g id="patch_14">
    <path d="M 67.392526 271.156384 
C 71.172237 272.500012 75.200331 273.001482 79.194109 272.625598 
C 83.187887 272.249715 87.051681 271.005483 90.514321 268.980225 
C 93.976962 266.954967 96.955505 264.197196 99.240909 260.900459 
C 101.526314 257.603722 103.063835 253.846989 103.745567 249.893915 
C 104.427299 245.940841 104.236911 241.88612 103.187765 238.014319 
C 102.138618 234.142518 100.255846 230.546383 97.671583 227.4783 
C 95.08732 224.410216 91.863472 221.943677 88.226294 220.251788 
C 84.589116 218.5599 80.625734 217.68319 76.614306 217.683189 
L 76.614296 245.214961 
z
" style="fill: #ff0000"/>
   </g>
   <g id="matplotlib.axis_1">
    <g id="xtick_1"/>
    <g id="xtick_2"/>
    <g id="xtick_3"/>
    <g id="xtick_4"/>
    <g id="xtick_5"/>
    <g id="xtick_6"/>
    <g id="xtick_7"/>
    <g id="xtick_8"/>
    <g id="xtick_9"/>
   </g>
   <g id="matplotlib.axis_2">
    <g id="ytick_1"/>
    <g id="ytick_2"/>
    <g id="ytick_3"/>
    <g id="ytick_4"/>
    <g id="ytick_5"/>
    <g id="ytick_6"/>
    <g id="ytick_7"/>
   </g>
   <g id="PathCollection_1">
    <path d="M 76.614296 261.026349 
C 80.807525 261.026349 84.829575 259.360362 87.794636 256.395301 
C 90.759697 253.43024 92.425684 249.40819 92.425684 245.214961 
C 92.425684 241.021732 90.759697 236.999682 87.794636 234.034621 
C 84.829575 231.06956 80.807525 229.403573 76.614296 229.403573 
C 72.421067 229.403573 68.399017 231.06956 65.433956 234.034621 
C 62.468895 236.999682 60.802908 241.021732 60.802908 245.214961 
C 60.802908 249.40819 62.468895 253.43024 65.433956 256.395301 
C 68.399017 259.360362 72.421067 261.026349 76.614296 261.026349 
z
" clip-path="url(#p0b07d56724)" style="fill: #87ceeb; stroke: #000000"/>
    <path d="M 179.85846 439.850446 
C 184.05169 439.850446 188.073739 438.184459 191.0388 435.219398 
C 194.003861 432.254337 195.669849 428.232287 195.669849 424.039058 
C 195.669849 419.845829 194.003861 415.823779 191.0388 412.858718 
C 188.073739 409.893657 184.05169 408.22767 179.85846 408.22767 
C 175.665231 408.22767 171.643181 409.893657 168.67812 412.858718 
C 165.71306 415.823779 164.047072 419.845829 164.047072 424.039058 
C 164.047072 428.232287 165.71306 432.254337 168.67812 435.219398 
C 171.643181 438.184459 175.665231 439.850446 179.85846 439.850446 
z
" clip-path="url(#p0b07d56724)" style="fill: #90ee90; stroke: #000000"/>
    <path d="M 386.346715 471.347956 
C 398.893181 471.347956 410.927466 466.363192 419.799157 457.4915 
C 428.670849 448.619809 433.655613 436.585524 433.655613 424.039058 
C 433.655613 411.492592 428.670849 399.458307 419.799157 390.586616 
C 410.927466 381.714924 398.893181 376.730161 386.346715 376.730161 
C 373.800249 376.730161 361.765964 381.714924 352.894273 390.586616 
C 344.022581 399.458307 339.037817 411.492592 339.037817 424.039058 
C 339.037817 436.585524 344.022581 448.619809 352.894273 457.4915 
C 361.765964 466.363192 373.800249 471.347956 386.346715 471.347956 
z
" clip-path="url(#p0b07d56724)" style="fill: #90ee90; stroke: #000000"/>
    <path d="M 489.590879 287.966345 
C 500.928693 287.966345 511.803666 283.461784 519.820711 275.444739 
C 527.837756 267.427693 532.342317 256.552721 532.342317 245.214907 
C 532.342317 233.877093 527.837756 223.00212 519.820711 214.985075 
C 511.803666 206.96803 500.928693 202.463469 489.590879 202.463469 
C 478.253065 202.463469 467.378093 206.96803 459.361048 214.985075 
C 451.344002 223.00212 446.839441 233.877093 446.839441 245.214907 
C 446.839441 256.552721 451.344002 267.427693 459.361048 275.444739 
C 467.378093 283.461784 478.253065 287.966345 489.590879 287.966345 
z
" clip-path="url(#p0b07d56724)" style="fill: #90ee90; stroke: #000000"/>
    <path d="M 386.346654 116.390791 
C 399.606809 116.390791 412.325647 111.122475 421.701993 101.74613 
C 431.078338 92.369784 436.346654 79.650946 436.346654 66.390791 
C 436.346654 53.130636 431.078338 40.411797 421.701993 31.035452 
C 412.325647 21.659106 399.606809 16.390791 386.346654 16.390791 
C 373.086499 16.390791 360.36766 21.659106 350.991314 31.035452 
C 341.614969 40.411797 336.346654 53.130636 336.346654 66.390791 
C 336.346654 79.650946 341.614969 92.369784 350.991314 101.74613 
C 360.36766 111.122475 373.086499 116.390791 386.346654 116.390791 
z
" clip-path="url(#p0b07d56724)" style="fill: #90ee90; stroke: #000000"/>
    <path d="M 179.858393 107.071336 
C 190.64698 107.071336 200.995147 102.784985 208.62383 95.156302 
C 216.252513 87.527619 220.538865 77.179452 220.538865 66.390865 
C 220.538865 55.602277 216.252513 45.25411 208.62383 37.625427 
C 200.995147 29.996744 190.64698 25.710393 179.858393 25.710393 
C 169.069805 25.710393 158.721638 29.996744 151.092955 37.625427 
C 143.464272 45.25411 139.177921 55.602277 139.177921 66.390865 
C 139.177921 77.179452 143.464272 87.527619 151.092955 95.156302 
C 158.721638 102.784985 169.069805 107.071336 179.858393 107.071336 
z
" clip-path="url(#p0b07d56724)" style="fill: #90ee90; stroke: #000000"/>
   </g>
   <g id="patch_15">
    <path d="M 7.2 483.229844 
L 7.2 7.2 
" style="fill: none; stroke: #000000; stroke-width: 0.8; stroke-linejoin: miter; stroke-linecap: square"/>
   </g>
   <g id="patch_16">
    <path d="M 565.2 483.229844 
L 565.2 7.2 
" style="fill: none; stroke: #000000; stroke-width: 0.8; stroke-linejoin: miter; stroke-linecap: square"/>
   </g>
   <g id="patch_17">
    <path d="M 7.2 483.229844 
L 565.2 483.229844 
" style="fill: none; stroke: #000000; stroke-width: 0.8; stroke-linejoin: miter; stroke-linecap: square"/>
   </g>
   <g id="patch_18">
    <path d="M 7.2 7.2 
L 565.2 7.2 
" style="fill: none; stroke: #000000; stroke-width: 0.8; stroke-linejoin: miter; stroke-linecap: square"/>
   </g>
   <g id="text_6">
    <g clip-path="url(#p0b07d56724)">
     <!-- $\mathbf{G}$ -->
     <g transform="translate(71.634296 248.526211) scale(0.12 -0.12)">
      <defs>
       <path id="DejaVuSans-Bold-47" d="M 4781 347 
Q 4331 128 3847 18 
Q 3363 -91 2847 -91 
Q 1681 -91 1000 561 
Q 319 1213 319 2328 
Q 319 3456 1012 4103 
Q 1706 4750 2913 4750 
Q 3378 4750 3804 4662 
Q 4231 4575 4609 4403 
L 4609 3438 
Q 4219 3659 3833 3768 
Q 3447 3878 3059 3878 
Q 2341 3878 1952 3476 
Q 1563 3075 1563 2328 
Q 1563 1588 1938 1184 
Q 2313 781 3003 781 
Q 3191 781 3352 804 
Q 3513 828 3641 878 
L 3641 1784 
L 2906 1784 
L 2906 2591 
L 4781 2591 
L 4781 347 
z
" transform="scale(0.015625)"/>
      </defs>
      <use xlink:href="#DejaVuSans-Bold-47" transform="translate(0 0.78125)"/>
     </g>
    </g>
   </g>
   <g id="text_7">
    <g clip-path="url(#p0b07d56724)">
     <!-- NCC -->
     <g transform="translate(166.990335 427.350308) scale(0.12 -0.12)">
      <defs>
       <path id="DejaVuSans-4e" d="M 628 4666 
L 1478 4666 
L 3547 763 
L 3547 4666 
L 4159 4666 
L 4159 0 
L 3309 0 
L 1241 3903 
L 1241 0 
L 628 0 
L 628 4666 
z
" transform="scale(0.015625)"/>
       <path id="DejaVuSans-43" d="M 4122 4306 
L 4122 3641 
Q 3803 3938 3442 4084 
Q 3081 4231 2675 4231 
Q 1875 4231 1450 3742 
Q 1025 3253 1025 2328 
Q 1025 1406 1450 917 
Q 1875 428 2675 428 
Q 3081 428 3442 575 
Q 3803 722 4122 1019 
L 4122 359 
Q 3791 134 3420 21 
Q 3050 -91 2638 -91 
Q 1578 -91 968 557 
Q 359 1206 359 2328 
Q 359 3453 968 4101 
Q 1578 4750 2638 4750 
Q 3056 4750 3426 4639 
Q 3797 4528 4122 4306 
z
" transform="scale(0.015625)"/>
      </defs>
      <use xlink:href="#DejaVuSans-4e"/>
      <use xlink:href="#DejaVuSans-43" x="74.804688"/>
      <use xlink:href="#DejaVuSans-43" x="144.628906"/>
     </g>
    </g>
   </g>
   <g id="text_8">
    <g clip-path="url(#p0b07d56724)">
     <!-- GGC -->
     <g transform="translate(372.858903 427.350308) scale(0.12 -0.12)">
      <defs>
       <path id="DejaVuSans-47" d="M 3809 666 
L 3809 1919 
L 2778 1919 
L 2778 2438 
L 4434 2438 
L 4434 434 
Q 4069 175 3628 42 
Q 3188 -91 2688 -91 
Q 1594 -91 976 548 
Q 359 1188 359 2328 
Q 359 3472 976 4111 
Q 1594 4750 2688 4750 
Q 3144 4750 3555 4637 
Q 3966 4525 4313 4306 
L 4313 3634 
Q 3963 3931 3569 4081 
Q 3175 4231 2741 4231 
Q 1884 4231 1454 3753 
Q 1025 3275 1025 2328 
Q 1025 1384 1454 906 
Q 1884 428 2741 428 
Q 3075 428 3337 486 
Q 3600 544 3809 666 
z
" transform="scale(0.015625)"/>
      </defs>
      <use xlink:href="#DejaVuSans-47"/>
      <use xlink:href="#DejaVuSans-47" x="77.490234"/>
      <use xlink:href="#DejaVuSans-43" x="154.980469"/>
     </g>
    </g>
   </g>
   <g id="text_9">
    <g clip-path="url(#p0b07d56724)">
     <!-- GGT -->
     <g transform="translate(476.845567 248.526157) scale(0.12 -0.12)">
      <defs>
       <path id="DejaVuSans-54" d="M -19 4666 
L 3928 4666 
L 3928 4134 
L 2272 4134 
L 2272 0 
L 1638 0 
L 1638 4134 
L -19 4134 
L -19 4666 
z
" transform="scale(0.015625)"/>
      </defs>
      <use xlink:href="#DejaVuSans-47"/>
      <use xlink:href="#DejaVuSans-47" x="77.490234"/>
      <use xlink:href="#DejaVuSans-54" x="151.355469"/>
     </g>
    </g>
   </g>
   <g id="text_10">
    <g clip-path="url(#p0b07d56724)">
     <!-- GGA -->
     <g transform="translate(372.944154 69.702041) scale(0.12 -0.12)">
      <defs>
       <path id="DejaVuSans-41" d="M 2188 4044 
L 1331 1722 
L 3047 1722 
L 2188 4044 
z
M 1831 4666 
L 2547 4666 
L 4325 0 
L 3669 0 
L 3244 1197 
L 1141 1197 
L 716 0 
L 50 0 
L 1831 4666 
z
" transform="scale(0.015625)"/>
      </defs>
      <use xlink:href="#DejaVuSans-47"/>
      <use xlink:href="#DejaVuSans-47" x="77.490234"/>
      <use xlink:href="#DejaVuSans-41" x="154.980469"/>
     </g>
    </g>
   </g>
   <g id="text_11">
    <g clip-path="url(#p0b07d56724)">
     <!-- GGG -->
     <g transform="translate(165.911205 69.702115) scale(0.12 -0.12)">
      <use xlink:href="#DejaVuSans-47"/>
      <use xlink:href="#DejaVuSans-47" x="77.490234"/>
      <use xlink:href="#DejaVuSans-47" x="154.980469"/>
     </g>
    </g>
   </g>
   <g id="legend_1">
    <g id="patch_19">
     <path d="M 14.2 44.55625 
L 116.278125 44.55625 
Q 118.278125 44.55625 118.278125 42.55625 
L 118.278125 14.2 
Q 118.278125 12.2 116.278125 12.2 
L 14.2 12.2 
Q 12.2 12.2 12.2 14.2 
L 12.2 42.55625 
Q 12.2 44.55625 14.2 44.55625 
z
" style="fill: #ffffff; opacity: 0.8; stroke: #cccccc; stroke-linejoin: miter"/>
    </g>
    <g id="patch_20">
     <path d="M 16.2 23.798437 
L 36.2 23.798437 
L 36.2 16.798437 
L 16.2 16.798437 
z
" style="fill: #0000ff"/>
    </g>
    <g id="text_12">
     <!-- Genomic data -->
     <g transform="translate(44.2 23.798437) scale(0.1 -0.1)">
      <defs>
       <path id="DejaVuSans-65" d="M 3597 1894 
L 3597 1613 
L 953 1613 
Q 991 1019 1311 708 
Q 1631 397 2203 397 
Q 2534 397 2845 478 
Q 3156 559 3463 722 
L 3463 178 
Q 3153 47 2828 -22 
Q 2503 -91 2169 -91 
Q 1331 -91 842 396 
Q 353 884 353 1716 
Q 353 2575 817 3079 
Q 1281 3584 2069 3584 
Q 2775 3584 3186 3129 
Q 3597 2675 3597 1894 
z
M 3022 2063 
Q 3016 2534 2758 2815 
Q 2500 3097 2075 3097 
Q 1594 3097 1305 2825 
Q 1016 2553 972 2059 
L 3022 2063 
z
" transform="scale(0.015625)"/>
       <path id="DejaVuSans-6e" d="M 3513 2113 
L 3513 0 
L 2938 0 
L 2938 2094 
Q 2938 2591 2744 2837 
Q 2550 3084 2163 3084 
Q 1697 3084 1428 2787 
Q 1159 2491 1159 1978 
L 1159 0 
L 581 0 
L 581 3500 
L 1159 3500 
L 1159 2956 
Q 1366 3272 1645 3428 
Q 1925 3584 2291 3584 
Q 2894 3584 3203 3211 
Q 3513 2838 3513 2113 
z
" transform="scale(0.015625)"/>
       <path id="DejaVuSans-6f" d="M 1959 3097 
Q 1497 3097 1228 2736 
Q 959 2375 959 1747 
Q 959 1119 1226 758 
Q 1494 397 1959 397 
Q 2419 397 2687 759 
Q 2956 1122 2956 1747 
Q 2956 2369 2687 2733 
Q 2419 3097 1959 3097 
z
M 1959 3584 
Q 2709 3584 3137 3096 
Q 3566 2609 3566 1747 
Q 3566 888 3137 398 
Q 2709 -91 1959 -91 
Q 1206 -91 779 398 
Q 353 888 353 1747 
Q 353 2609 779 3096 
Q 1206 3584 1959 3584 
z
" transform="scale(0.015625)"/>
       <path id="DejaVuSans-6d" d="M 3328 2828 
Q 3544 3216 3844 3400 
Q 4144 3584 4550 3584 
Q 5097 3584 5394 3201 
Q 5691 2819 5691 2113 
L 5691 0 
L 5113 0 
L 5113 2094 
Q 5113 2597 4934 2840 
Q 4756 3084 4391 3084 
Q 3944 3084 3684 2787 
Q 3425 2491 3425 1978 
L 3425 0 
L 2847 0 
L 2847 2094 
Q 2847 2600 2669 2842 
Q 2491 3084 2119 3084 
Q 1678 3084 1418 2786 
Q 1159 2488 1159 1978 
L 1159 0 
L 581 0 
L 581 3500 
L 1159 3500 
L 1159 2956 
Q 1356 3278 1631 3431 
Q 1906 3584 2284 3584 
Q 2666 3584 2933 3390 
Q 3200 3197 3328 2828 
z
" transform="scale(0.015625)"/>
       <path id="DejaVuSans-69" d="M 603 3500 
L 1178 3500 
L 1178 0 
L 603 0 
L 603 3500 
z
M 603 4863 
L 1178 4863 
L 1178 4134 
L 603 4134 
L 603 4863 
z
" transform="scale(0.015625)"/>
       <path id="DejaVuSans-63" d="M 3122 3366 
L 3122 2828 
Q 2878 2963 2633 3030 
Q 2388 3097 2138 3097 
Q 1578 3097 1268 2742 
Q 959 2388 959 1747 
Q 959 1106 1268 751 
Q 1578 397 2138 397 
Q 2388 397 2633 464 
Q 2878 531 3122 666 
L 3122 134 
Q 2881 22 2623 -34 
Q 2366 -91 2075 -91 
Q 1284 -91 818 406 
Q 353 903 353 1747 
Q 353 2603 823 3093 
Q 1294 3584 2113 3584 
Q 2378 3584 2631 3529 
Q 2884 3475 3122 3366 
z
" transform="scale(0.015625)"/>
       <path id="DejaVuSans-20" transform="scale(0.015625)"/>
       <path id="DejaVuSans-64" d="M 2906 2969 
L 2906 4863 
L 3481 4863 
L 3481 0 
L 2906 0 
L 2906 525 
Q 2725 213 2448 61 
Q 2172 -91 1784 -91 
Q 1150 -91 751 415 
Q 353 922 353 1747 
Q 353 2572 751 3078 
Q 1150 3584 1784 3584 
Q 2172 3584 2448 3432 
Q 2725 3281 2906 2969 
z
M 947 1747 
Q 947 1113 1208 752 
Q 1469 391 1925 391 
Q 2381 391 2643 752 
Q 2906 1113 2906 1747 
Q 2906 2381 2643 2742 
Q 2381 3103 1925 3103 
Q 1469 3103 1208 2742 
Q 947 2381 947 1747 
z
" transform="scale(0.015625)"/>
       <path id="DejaVuSans-61" d="M 2194 1759 
Q 1497 1759 1228 1600 
Q 959 1441 959 1056 
Q 959 750 1161 570 
Q 1363 391 1709 391 
Q 2188 391 2477 730 
Q 2766 1069 2766 1631 
L 2766 1759 
L 2194 1759 
z
M 3341 1997 
L 3341 0 
L 2766 0 
L 2766 531 
Q 2569 213 2275 61 
Q 1981 -91 1556 -91 
Q 1019 -91 701 211 
Q 384 513 384 1019 
Q 384 1609 779 1909 
Q 1175 2209 1959 2209 
L 2766 2209 
L 2766 2266 
Q 2766 2663 2505 2880 
Q 2244 3097 1772 3097 
Q 1472 3097 1187 3025 
Q 903 2953 641 2809 
L 641 3341 
Q 956 3463 1253 3523 
Q 1550 3584 1831 3584 
Q 2591 3584 2966 3190 
Q 3341 2797 3341 1997 
z
" transform="scale(0.015625)"/>
       <path id="DejaVuSans-74" d="M 1172 4494 
L 1172 3500 
L 2356 3500 
L 2356 3053 
L 1172 3053 
L 1172 1153 
Q 1172 725 1289 603 
Q 1406 481 1766 481 
L 2356 481 
L 2356 0 
L 1766 0 
Q 1100 0 847 248 
Q 594 497 594 1153 
L 594 3053 
L 172 3053 
L 172 3500 
L 594 3500 
L 594 4494 
L 1172 4494 
z
" transform="scale(0.015625)"/>
      </defs>
      <use xlink:href="#DejaVuSans-47"/>
      <use xlink:href="#DejaVuSans-65" x="77.490234"/>
      <use xlink:href="#DejaVuSans-6e" x="139.013672"/>
      <use xlink:href="#DejaVuSans-6f" x="202.392578"/>
      <use xlink:href="#DejaVuSans-6d" x="263.574219"/>
      <use xlink:href="#DejaVuSans-69" x="360.986328"/>
      <use xlink:href="#DejaVuSans-63" x="388.769531"/>
      <use xlink:href="#DejaVuSans-20" x="443.75"/>
      <use xlink:href="#DejaVuSans-64" x="475.537109"/>
      <use xlink:href="#DejaVuSans-61" x="539.013672"/>
      <use xlink:href="#DejaVuSans-74" x="600.292969"/>
      <use xlink:href="#DejaVuSans-61" x="639.501953"/>
     </g>
    </g>
    <g id="patch_21">
     <path d="M 16.2 38.476562 
L 36.2 38.476562 
L 36.2 31.476562 
L 16.2 31.476562 
z
" style="fill: #ff0000"/>
    </g>
    <g id="text_13">
     <!-- Genetic code -->
     <g transform="translate(44.2 38.476562) scale(0.1 -0.1)">
      <use xlink:href="#DejaVuSans-47"/>
      <use xlink:href="#DejaVuSans-65" x="77.490234"/>
      <use xlink:href="#DejaVuSans-6e" x="139.013672"/>
      <use xlink:href="#DejaVuSans-65" x="202.392578"/>
      <use xlink:href="#DejaVuSans-74" x="263.916016"/>
      <use xlink:href="#DejaVuSans-69" x="303.125"/>
      <use xlink:href="#DejaVuSans-63" x="330.908203"/>
      <use xlink:href="#DejaVuSans-20" x="385.888672"/>
      <use xlink:href="#DejaVuSans-63" x="417.675781"/>
      <use xlink:href="#DejaVuSans-6f" x="472.65625"/>
      <use xlink:href="#DejaVuSans-64" x="533.837891"/>
      <use xlink:href="#DejaVuSans-65" x="597.314453"/>
     </g>
    </g>
   </g>
  </g>
 </g>
 <defs>
  <clipPath id="p0b07d56724">
   <rect x="7.2" y="7.2" width="558" height="476.029844"/>
  </clipPath>
 </defs>
</svg>
