<?xml version="1.0" encoding="utf-8" standalone="no"?>
<!DOCTYPE svg PUBLIC "-//W3C//DTD SVG 1.1//EN"
  "http://www.w3.org/Graphics/SVG/1.1/DTD/svg11.dtd">
<svg xmlns:xlink="http://www.w3.org/1999/xlink" width="894.34375pt" height="649.55625pt" viewBox="0 0 894.34375 649.55625" xmlns="http://www.w3.org/2000/svg" version="1.1">
 <metadata>
  <rdf:RDF xmlns:dc="http://purl.org/dc/elements/1.1/" xmlns:cc="http://creativecommons.org/ns#" xmlns:rdf="http://www.w3.org/1999/02/22-rdf-syntax-ns#">
   <cc:Work>
    <dc:type rdf:resource="http://purl.org/dc/dcmitype/StillImage"/>
    <dc:date>2024-09-25T14:40:37.702845</dc:date>
    <dc:format>image/svg+xml</dc:format>
    <dc:creator>
     <cc:Agent>
      <dc:title>Matplotlib v3.8.3, https://matplotlib.org/</dc:title>
     </cc:Agent>
    </dc:creator>
   </cc:Work>
  </rdf:RDF>
 </metadata>
 <defs>
  <style type="text/css">*{stroke-linejoin: round; stroke-linecap: butt}</style>
 </defs>
 <g id="figure_1">
  <g id="patch_1">
   <path d="M 0 649.55625 
L 894.34375 649.55625 
L 894.34375 0 
L 0 0 
z
" style="fill: #ffffff"/>
  </g>
  <g id="axes_1">
   <g id="patch_2">
    <path d="M 50.14375 309.6 
L 448.715179 309.6 
L 448.715179 57.6 
L 50.14375 57.6 
z
" style="fill: #ffffff"/>
   </g>
   <g id="PathCollection_1">
    <defs>
     <path id="mbc2bf44bda" d="M 0 3.535534 
C 0.937635 3.535534 1.836992 3.163008 2.5 2.5 
C 3.163008 1.836992 3.535534 0.937635 3.535534 0 
C 3.535534 -0.937635 3.163008 -1.836992 2.5 -2.5 
C 1.836992 -3.163008 0.937635 -3.535534 0 -3.535534 
C -0.937635 -3.535534 -1.836992 -3.163008 -2.5 -2.5 
C -3.163008 -1.836992 -3.535534 -0.937635 -3.535534 0 
C -3.535534 0.937635 -3.163008 1.836992 -2.5 2.5 
C -1.836992 3.163008 -0.937635 3.535534 0 3.535534 
z
" style="stroke: #1f77b4; stroke-opacity: 0.8"/>
    </defs>
    <g clip-path="url(#p3d63c2c5ab)">
     <use xlink:href="#mbc2bf44bda" x="68.260633" y="261.689331" style="fill: #1f77b4; fill-opacity: 0.8; stroke: #1f77b4; stroke-opacity: 0.8"/>
     <use xlink:href="#mbc2bf44bda" x="68.260633" y="298.145455" style="fill: #1f77b4; fill-opacity: 0.8; stroke: #1f77b4; stroke-opacity: 0.8"/>
     <use xlink:href="#mbc2bf44bda" x="128.650244" y="293.65464" style="fill: #1f77b4; fill-opacity: 0.8; stroke: #1f77b4; stroke-opacity: 0.8"/>
     <use xlink:href="#mbc2bf44bda" x="128.650244" y="181.625965" style="fill: #1f77b4; fill-opacity: 0.8; stroke: #1f77b4; stroke-opacity: 0.8"/>
     <use xlink:href="#mbc2bf44bda" x="128.650244" y="141.63246" style="fill: #1f77b4; fill-opacity: 0.8; stroke: #1f77b4; stroke-opacity: 0.8"/>
     <use xlink:href="#mbc2bf44bda" x="128.650244" y="249.177903" style="fill: #1f77b4; fill-opacity: 0.8; stroke: #1f77b4; stroke-opacity: 0.8"/>
     <use xlink:href="#mbc2bf44bda" x="128.650244" y="275.836032" style="fill: #1f77b4; fill-opacity: 0.8; stroke: #1f77b4; stroke-opacity: 0.8"/>
     <use xlink:href="#mbc2bf44bda" x="128.650244" y="175.991537" style="fill: #1f77b4; fill-opacity: 0.8; stroke: #1f77b4; stroke-opacity: 0.8"/>
     <use xlink:href="#mbc2bf44bda" x="128.650244" y="242.840685" style="fill: #1f77b4; fill-opacity: 0.8; stroke: #1f77b4; stroke-opacity: 0.8"/>
     <use xlink:href="#mbc2bf44bda" x="128.650244" y="267.410556" style="fill: #1f77b4; fill-opacity: 0.8; stroke: #1f77b4; stroke-opacity: 0.8"/>
     <use xlink:href="#mbc2bf44bda" x="128.650244" y="244.322907" style="fill: #1f77b4; fill-opacity: 0.8; stroke: #1f77b4; stroke-opacity: 0.8"/>
     <use xlink:href="#mbc2bf44bda" x="189.039854" y="155.123704" style="fill: #1f77b4; fill-opacity: 0.8; stroke: #1f77b4; stroke-opacity: 0.8"/>
     <use xlink:href="#mbc2bf44bda" x="249.429464" y="157.133994" style="fill: #1f77b4; fill-opacity: 0.8; stroke: #1f77b4; stroke-opacity: 0.8"/>
     <use xlink:href="#mbc2bf44bda" x="249.429464" y="151.107249" style="fill: #1f77b4; fill-opacity: 0.8; stroke: #1f77b4; stroke-opacity: 0.8"/>
     <use xlink:href="#mbc2bf44bda" x="249.429464" y="224.723215" style="fill: #1f77b4; fill-opacity: 0.8; stroke: #1f77b4; stroke-opacity: 0.8"/>
     <use xlink:href="#mbc2bf44bda" x="249.429464" y="212.159737" style="fill: #1f77b4; fill-opacity: 0.8; stroke: #1f77b4; stroke-opacity: 0.8"/>
     <use xlink:href="#mbc2bf44bda" x="249.429464" y="131.721673" style="fill: #1f77b4; fill-opacity: 0.8; stroke: #1f77b4; stroke-opacity: 0.8"/>
     <use xlink:href="#mbc2bf44bda" x="430.598295" y="127.478813" style="fill: #1f77b4; fill-opacity: 0.8; stroke: #1f77b4; stroke-opacity: 0.8"/>
     <use xlink:href="#mbc2bf44bda" x="370.208685" y="185.154115" style="fill: #1f77b4; fill-opacity: 0.8; stroke: #1f77b4; stroke-opacity: 0.8"/>
     <use xlink:href="#mbc2bf44bda" x="309.819075" y="198.209509" style="fill: #1f77b4; fill-opacity: 0.8; stroke: #1f77b4; stroke-opacity: 0.8"/>
    </g>
   </g>
   <g id="PolyCollection_1">
    <path d="M 68.260633 217.995584 
L 68.260633 281.187697 
L 71.92061 279.73866 
L 75.580586 277.990353 
L 79.240562 276.375699 
L 82.900539 274.449 
L 86.560515 272.28547 
L 90.220491 270.560272 
L 93.880468 268.949453 
L 97.540444 267.115181 
L 101.200421 264.992932 
L 104.860397 263.432584 
L 108.520373 261.384023 
L 112.18035 259.764552 
L 115.840326 257.667248 
L 119.500303 256.046957 
L 123.160279 254.452899 
L 126.820255 252.738031 
L 130.480232 250.928746 
L 134.140208 249.407045 
L 137.800184 247.862608 
L 141.460161 246.526005 
L 145.120137 245.095924 
L 148.780114 243.639965 
L 152.44009 242.14909 
L 156.100066 240.517913 
L 159.760043 239.206743 
L 163.420019 237.884643 
L 167.079996 236.408214 
L 170.739972 235.045455 
L 174.399948 233.845102 
L 178.059925 232.381858 
L 181.719901 230.832961 
L 185.379878 229.438581 
L 189.039854 228.087186 
L 192.69983 226.768385 
L 196.359807 225.436147 
L 200.019783 223.930643 
L 203.679759 222.330817 
L 207.339736 221.019372 
L 210.999712 219.502405 
L 214.659689 218.399402 
L 218.319665 217.079125 
L 221.979641 215.578701 
L 225.639618 214.140775 
L 229.299594 212.880083 
L 232.959571 211.680789 
L 236.619547 210.358561 
L 240.279523 208.988493 
L 243.9395 207.594704 
L 247.599476 206.247381 
L 251.259452 204.927562 
L 254.919429 203.658099 
L 258.579405 202.387682 
L 262.239382 201.487418 
L 265.899358 200.486357 
L 269.559334 199.156035 
L 273.219311 198.120326 
L 276.879287 197.173965 
L 280.539264 196.09401 
L 284.19924 194.897328 
L 287.859216 193.776361 
L 291.519193 192.809732 
L 295.179169 191.755547 
L 298.839146 190.703675 
L 302.499122 189.731969 
L 306.159098 188.720916 
L 309.819075 187.714141 
L 313.479051 186.759556 
L 317.139027 185.928493 
L 320.799004 185.066495 
L 324.45898 183.686382 
L 328.118957 182.659756 
L 331.778933 181.645343 
L 335.438909 180.630929 
L 339.098886 179.854311 
L 342.758862 178.948926 
L 346.418839 178.060703 
L 350.078815 177.248657 
L 353.738791 176.256364 
L 357.398768 175.243441 
L 361.058744 174.520969 
L 364.71872 173.794175 
L 368.378697 172.734049 
L 372.038673 171.835745 
L 375.69865 171.014402 
L 379.358626 170.257369 
L 383.018602 169.742608 
L 386.678579 168.94289 
L 390.338555 168.043717 
L 393.998532 167.299049 
L 397.658508 166.547247 
L 401.318484 165.725703 
L 404.978461 164.902528 
L 408.638437 164.277286 
L 412.298414 163.475668 
L 415.95839 162.670139 
L 419.618366 161.857466 
L 423.278343 161.039854 
L 426.938319 160.294076 
L 430.598295 159.61639 
L 430.598295 69.054545 
L 430.598295 69.054545 
L 426.938319 71.15523 
L 423.278343 73.255915 
L 419.618366 75.3566 
L 415.95839 77.457284 
L 412.298414 79.413411 
L 408.638437 81.246595 
L 404.978461 83.079779 
L 401.318484 84.9294 
L 397.658508 86.91006 
L 393.998532 88.765299 
L 390.338555 90.620539 
L 386.678579 92.475778 
L 383.018602 94.335363 
L 379.358626 96.204386 
L 375.69865 98.201866 
L 372.038673 100.199346 
L 368.378697 102.196826 
L 364.71872 104.194306 
L 361.058744 106.199469 
L 357.398768 108.006765 
L 353.738791 110.195635 
L 350.078815 112.187402 
L 346.418839 114.181706 
L 342.758862 116.179186 
L 339.098886 118.176666 
L 335.438909 120.17643 
L 331.778933 122.182542 
L 328.118957 124.188654 
L 324.45898 126.194766 
L 320.799004 128.200878 
L 317.139027 130.20699 
L 313.479051 132.213102 
L 309.819075 134.219214 
L 306.159098 136.225326 
L 302.499122 138.367262 
L 298.839146 140.223807 
L 295.179169 142.215482 
L 291.519193 144.087782 
L 287.859216 145.862091 
L 284.19924 147.650497 
L 280.539264 149.439158 
L 276.879287 151.395465 
L 273.219311 153.658931 
L 269.559334 155.846429 
L 265.899358 156.62314 
L 262.239382 158.333153 
L 258.579405 160.338736 
L 254.919429 162.005041 
L 251.259452 163.66359 
L 247.599476 165.437523 
L 243.9395 167.200436 
L 240.279523 168.864852 
L 236.619547 170.773547 
L 232.959571 172.55182 
L 229.299594 174.230372 
L 225.639618 175.690873 
L 221.979641 176.970198 
L 218.319665 178.319642 
L 214.659689 179.859727 
L 210.999712 181.24603 
L 207.339736 182.986844 
L 203.679759 184.200673 
L 200.019783 185.691873 
L 196.359807 186.988709 
L 192.69983 188.136626 
L 189.039854 189.026863 
L 185.379878 190.358189 
L 181.719901 191.32875 
L 178.059925 192.359805 
L 174.399948 193.678747 
L 170.739972 194.97813 
L 167.079996 195.882856 
L 163.420019 196.789424 
L 159.760043 197.691031 
L 156.100066 198.589946 
L 152.44009 199.163591 
L 148.780114 200.389357 
L 145.120137 201.124989 
L 141.460161 202.010561 
L 137.800184 203.00159 
L 134.140208 203.924985 
L 130.480232 204.661156 
L 126.820255 205.606962 
L 123.160279 206.441078 
L 119.500303 207.076367 
L 115.840326 207.691534 
L 112.18035 208.312447 
L 108.520373 209.450414 
L 104.860397 210.035729 
L 101.200421 210.615551 
L 97.540444 211.289695 
L 93.880468 212.108331 
L 90.220491 212.988711 
L 86.560515 213.873715 
L 82.900539 214.758997 
L 79.240562 215.612576 
L 75.580586 216.451919 
L 71.92061 217.230541 
L 68.260633 217.995584 
z
" clip-path="url(#p3d63c2c5ab)" style="fill: #ffa500; fill-opacity: 0.15"/>
   </g>
   <g id="matplotlib.axis_1">
    <g id="xtick_1">
     <g id="line2d_1">
      <defs>
       <path id="macdb675ad1" d="M 0 0 
L 0 3.5 
" style="stroke: #000000; stroke-width: 0.8"/>
      </defs>
      <g>
       <use xlink:href="#macdb675ad1" x="81.546347" y="309.6" style="stroke: #000000; stroke-width: 0.8"/>
      </g>
     </g>
     <g id="text_1">
      <!-- 0.02 -->
      <g transform="translate(70.413535 324.198437) scale(0.1 -0.1)">
       <defs>
        <path id="DejaVuSans-30" d="M 2034 4250 
Q 1547 4250 1301 3770 
Q 1056 3291 1056 2328 
Q 1056 1369 1301 889 
Q 1547 409 2034 409 
Q 2525 409 2770 889 
Q 3016 1369 3016 2328 
Q 3016 3291 2770 3770 
Q 2525 4250 2034 4250 
z
M 2034 4750 
Q 2819 4750 3233 4129 
Q 3647 3509 3647 2328 
Q 3647 1150 3233 529 
Q 2819 -91 2034 -91 
Q 1250 -91 836 529 
Q 422 1150 422 2328 
Q 422 3509 836 4129 
Q 1250 4750 2034 4750 
z
" transform="scale(0.015625)"/>
        <path id="DejaVuSans-2e" d="M 684 794 
L 1344 794 
L 1344 0 
L 684 0 
L 684 794 
z
" transform="scale(0.015625)"/>
        <path id="DejaVuSans-32" d="M 1228 531 
L 3431 531 
L 3431 0 
L 469 0 
L 469 531 
Q 828 903 1448 1529 
Q 2069 2156 2228 2338 
Q 2531 2678 2651 2914 
Q 2772 3150 2772 3378 
Q 2772 3750 2511 3984 
Q 2250 4219 1831 4219 
Q 1534 4219 1204 4116 
Q 875 4013 500 3803 
L 500 4441 
Q 881 4594 1212 4672 
Q 1544 4750 1819 4750 
Q 2544 4750 2975 4387 
Q 3406 4025 3406 3419 
Q 3406 3131 3298 2873 
Q 3191 2616 2906 2266 
Q 2828 2175 2409 1742 
Q 1991 1309 1228 531 
z
" transform="scale(0.015625)"/>
       </defs>
       <use xlink:href="#DejaVuSans-30"/>
       <use xlink:href="#DejaVuSans-2e" x="63.623047"/>
       <use xlink:href="#DejaVuSans-30" x="95.410156"/>
       <use xlink:href="#DejaVuSans-32" x="159.033203"/>
      </g>
     </g>
    </g>
    <g id="xtick_2">
     <g id="line2d_2">
      <g>
       <use xlink:href="#macdb675ad1" x="155.221672" y="309.6" style="stroke: #000000; stroke-width: 0.8"/>
      </g>
     </g>
     <g id="text_2">
      <!-- 0.04 -->
      <g transform="translate(144.08886 324.198437) scale(0.1 -0.1)">
       <defs>
        <path id="DejaVuSans-34" d="M 2419 4116 
L 825 1625 
L 2419 1625 
L 2419 4116 
z
M 2253 4666 
L 3047 4666 
L 3047 1625 
L 3713 1625 
L 3713 1100 
L 3047 1100 
L 3047 0 
L 2419 0 
L 2419 1100 
L 313 1100 
L 313 1709 
L 2253 4666 
z
" transform="scale(0.015625)"/>
       </defs>
       <use xlink:href="#DejaVuSans-30"/>
       <use xlink:href="#DejaVuSans-2e" x="63.623047"/>
       <use xlink:href="#DejaVuSans-30" x="95.410156"/>
       <use xlink:href="#DejaVuSans-34" x="159.033203"/>
      </g>
     </g>
    </g>
    <g id="xtick_3">
     <g id="line2d_3">
      <g>
       <use xlink:href="#macdb675ad1" x="228.896997" y="309.6" style="stroke: #000000; stroke-width: 0.8"/>
      </g>
     </g>
     <g id="text_3">
      <!-- 0.06 -->
      <g transform="translate(217.764184 324.198437) scale(0.1 -0.1)">
       <defs>
        <path id="DejaVuSans-36" d="M 2113 2584 
Q 1688 2584 1439 2293 
Q 1191 2003 1191 1497 
Q 1191 994 1439 701 
Q 1688 409 2113 409 
Q 2538 409 2786 701 
Q 3034 994 3034 1497 
Q 3034 2003 2786 2293 
Q 2538 2584 2113 2584 
z
M 3366 4563 
L 3366 3988 
Q 3128 4100 2886 4159 
Q 2644 4219 2406 4219 
Q 1781 4219 1451 3797 
Q 1122 3375 1075 2522 
Q 1259 2794 1537 2939 
Q 1816 3084 2150 3084 
Q 2853 3084 3261 2657 
Q 3669 2231 3669 1497 
Q 3669 778 3244 343 
Q 2819 -91 2113 -91 
Q 1303 -91 875 529 
Q 447 1150 447 2328 
Q 447 3434 972 4092 
Q 1497 4750 2381 4750 
Q 2619 4750 2861 4703 
Q 3103 4656 3366 4563 
z
" transform="scale(0.015625)"/>
       </defs>
       <use xlink:href="#DejaVuSans-30"/>
       <use xlink:href="#DejaVuSans-2e" x="63.623047"/>
       <use xlink:href="#DejaVuSans-30" x="95.410156"/>
       <use xlink:href="#DejaVuSans-36" x="159.033203"/>
      </g>
     </g>
    </g>
    <g id="xtick_4">
     <g id="line2d_4">
      <g>
       <use xlink:href="#macdb675ad1" x="302.572321" y="309.6" style="stroke: #000000; stroke-width: 0.8"/>
      </g>
     </g>
     <g id="text_4">
      <!-- 0.08 -->
      <g transform="translate(291.439509 324.198437) scale(0.1 -0.1)">
       <defs>
        <path id="DejaVuSans-38" d="M 2034 2216 
Q 1584 2216 1326 1975 
Q 1069 1734 1069 1313 
Q 1069 891 1326 650 
Q 1584 409 2034 409 
Q 2484 409 2743 651 
Q 3003 894 3003 1313 
Q 3003 1734 2745 1975 
Q 2488 2216 2034 2216 
z
M 1403 2484 
Q 997 2584 770 2862 
Q 544 3141 544 3541 
Q 544 4100 942 4425 
Q 1341 4750 2034 4750 
Q 2731 4750 3128 4425 
Q 3525 4100 3525 3541 
Q 3525 3141 3298 2862 
Q 3072 2584 2669 2484 
Q 3125 2378 3379 2068 
Q 3634 1759 3634 1313 
Q 3634 634 3220 271 
Q 2806 -91 2034 -91 
Q 1263 -91 848 271 
Q 434 634 434 1313 
Q 434 1759 690 2068 
Q 947 2378 1403 2484 
z
M 1172 3481 
Q 1172 3119 1398 2916 
Q 1625 2713 2034 2713 
Q 2441 2713 2670 2916 
Q 2900 3119 2900 3481 
Q 2900 3844 2670 4047 
Q 2441 4250 2034 4250 
Q 1625 4250 1398 4047 
Q 1172 3844 1172 3481 
z
" transform="scale(0.015625)"/>
       </defs>
       <use xlink:href="#DejaVuSans-30"/>
       <use xlink:href="#DejaVuSans-2e" x="63.623047"/>
       <use xlink:href="#DejaVuSans-30" x="95.410156"/>
       <use xlink:href="#DejaVuSans-38" x="159.033203"/>
      </g>
     </g>
    </g>
    <g id="xtick_5">
     <g id="line2d_5">
      <g>
       <use xlink:href="#macdb675ad1" x="376.247646" y="309.6" style="stroke: #000000; stroke-width: 0.8"/>
      </g>
     </g>
     <g id="text_5">
      <!-- 0.10 -->
      <g transform="translate(365.114834 324.198437) scale(0.1 -0.1)">
       <defs>
        <path id="DejaVuSans-31" d="M 794 531 
L 1825 531 
L 1825 4091 
L 703 3866 
L 703 4441 
L 1819 4666 
L 2450 4666 
L 2450 531 
L 3481 531 
L 3481 0 
L 794 0 
L 794 531 
z
" transform="scale(0.015625)"/>
       </defs>
       <use xlink:href="#DejaVuSans-30"/>
       <use xlink:href="#DejaVuSans-2e" x="63.623047"/>
       <use xlink:href="#DejaVuSans-31" x="95.410156"/>
       <use xlink:href="#DejaVuSans-30" x="159.033203"/>
      </g>
     </g>
    </g>
    <g id="text_6">
     <!-- Codon -->
     <g transform="translate(233.476339 337.876562) scale(0.1 -0.1)">
      <defs>
       <path id="DejaVuSans-43" d="M 4122 4306 
L 4122 3641 
Q 3803 3938 3442 4084 
Q 3081 4231 2675 4231 
Q 1875 4231 1450 3742 
Q 1025 3253 1025 2328 
Q 1025 1406 1450 917 
Q 1875 428 2675 428 
Q 3081 428 3442 575 
Q 3803 722 4122 1019 
L 4122 359 
Q 3791 134 3420 21 
Q 3050 -91 2638 -91 
Q 1578 -91 968 557 
Q 359 1206 359 2328 
Q 359 3453 968 4101 
Q 1578 4750 2638 4750 
Q 3056 4750 3426 4639 
Q 3797 4528 4122 4306 
z
" transform="scale(0.015625)"/>
       <path id="DejaVuSans-6f" d="M 1959 3097 
Q 1497 3097 1228 2736 
Q 959 2375 959 1747 
Q 959 1119 1226 758 
Q 1494 397 1959 397 
Q 2419 397 2687 759 
Q 2956 1122 2956 1747 
Q 2956 2369 2687 2733 
Q 2419 3097 1959 3097 
z
M 1959 3584 
Q 2709 3584 3137 3096 
Q 3566 2609 3566 1747 
Q 3566 888 3137 398 
Q 2709 -91 1959 -91 
Q 1206 -91 779 398 
Q 353 888 353 1747 
Q 353 2609 779 3096 
Q 1206 3584 1959 3584 
z
" transform="scale(0.015625)"/>
       <path id="DejaVuSans-64" d="M 2906 2969 
L 2906 4863 
L 3481 4863 
L 3481 0 
L 2906 0 
L 2906 525 
Q 2725 213 2448 61 
Q 2172 -91 1784 -91 
Q 1150 -91 751 415 
Q 353 922 353 1747 
Q 353 2572 751 3078 
Q 1150 3584 1784 3584 
Q 2172 3584 2448 3432 
Q 2725 3281 2906 2969 
z
M 947 1747 
Q 947 1113 1208 752 
Q 1469 391 1925 391 
Q 2381 391 2643 752 
Q 2906 1113 2906 1747 
Q 2906 2381 2643 2742 
Q 2381 3103 1925 3103 
Q 1469 3103 1208 2742 
Q 947 2381 947 1747 
z
" transform="scale(0.015625)"/>
       <path id="DejaVuSans-6e" d="M 3513 2113 
L 3513 0 
L 2938 0 
L 2938 2094 
Q 2938 2591 2744 2837 
Q 2550 3084 2163 3084 
Q 1697 3084 1428 2787 
Q 1159 2491 1159 1978 
L 1159 0 
L 581 0 
L 581 3500 
L 1159 3500 
L 1159 2956 
Q 1366 3272 1645 3428 
Q 1925 3584 2291 3584 
Q 2894 3584 3203 3211 
Q 3513 2838 3513 2113 
z
" transform="scale(0.015625)"/>
      </defs>
      <use xlink:href="#DejaVuSans-43"/>
      <use xlink:href="#DejaVuSans-6f" x="69.824219"/>
      <use xlink:href="#DejaVuSans-64" x="131.005859"/>
      <use xlink:href="#DejaVuSans-6f" x="194.482422"/>
      <use xlink:href="#DejaVuSans-6e" x="255.664062"/>
     </g>
    </g>
   </g>
   <g id="matplotlib.axis_2">
    <g id="ytick_1">
     <g id="line2d_6">
      <defs>
       <path id="m76fa5a367c" d="M 0 0 
L -3.5 0 
" style="stroke: #000000; stroke-width: 0.8"/>
      </defs>
      <g>
       <use xlink:href="#m76fa5a367c" x="50.14375" y="272.795539" style="stroke: #000000; stroke-width: 0.8"/>
      </g>
     </g>
     <g id="text_7">
      <!-- 0.02 -->
      <g transform="translate(20.878125 276.594758) scale(0.1 -0.1)">
       <use xlink:href="#DejaVuSans-30"/>
       <use xlink:href="#DejaVuSans-2e" x="63.623047"/>
       <use xlink:href="#DejaVuSans-30" x="95.410156"/>
       <use xlink:href="#DejaVuSans-32" x="159.033203"/>
      </g>
     </g>
    </g>
    <g id="ytick_2">
     <g id="line2d_7">
      <g>
       <use xlink:href="#m76fa5a367c" x="50.14375" y="230.103162" style="stroke: #000000; stroke-width: 0.8"/>
      </g>
     </g>
     <g id="text_8">
      <!-- 0.04 -->
      <g transform="translate(20.878125 233.902381) scale(0.1 -0.1)">
       <use xlink:href="#DejaVuSans-30"/>
       <use xlink:href="#DejaVuSans-2e" x="63.623047"/>
       <use xlink:href="#DejaVuSans-30" x="95.410156"/>
       <use xlink:href="#DejaVuSans-34" x="159.033203"/>
      </g>
     </g>
    </g>
    <g id="ytick_3">
     <g id="line2d_8">
      <g>
       <use xlink:href="#m76fa5a367c" x="50.14375" y="187.410786" style="stroke: #000000; stroke-width: 0.8"/>
      </g>
     </g>
     <g id="text_9">
      <!-- 0.06 -->
      <g transform="translate(20.878125 191.210004) scale(0.1 -0.1)">
       <use xlink:href="#DejaVuSans-30"/>
       <use xlink:href="#DejaVuSans-2e" x="63.623047"/>
       <use xlink:href="#DejaVuSans-30" x="95.410156"/>
       <use xlink:href="#DejaVuSans-36" x="159.033203"/>
      </g>
     </g>
    </g>
    <g id="ytick_4">
     <g id="line2d_9">
      <g>
       <use xlink:href="#m76fa5a367c" x="50.14375" y="144.718409" style="stroke: #000000; stroke-width: 0.8"/>
      </g>
     </g>
     <g id="text_10">
      <!-- 0.08 -->
      <g transform="translate(20.878125 148.517628) scale(0.1 -0.1)">
       <use xlink:href="#DejaVuSans-30"/>
       <use xlink:href="#DejaVuSans-2e" x="63.623047"/>
       <use xlink:href="#DejaVuSans-30" x="95.410156"/>
       <use xlink:href="#DejaVuSans-38" x="159.033203"/>
      </g>
     </g>
    </g>
    <g id="ytick_5">
     <g id="line2d_10">
      <g>
       <use xlink:href="#m76fa5a367c" x="50.14375" y="102.026032" style="stroke: #000000; stroke-width: 0.8"/>
      </g>
     </g>
     <g id="text_11">
      <!-- 0.10 -->
      <g transform="translate(20.878125 105.825251) scale(0.1 -0.1)">
       <use xlink:href="#DejaVuSans-30"/>
       <use xlink:href="#DejaVuSans-2e" x="63.623047"/>
       <use xlink:href="#DejaVuSans-31" x="95.410156"/>
       <use xlink:href="#DejaVuSans-30" x="159.033203"/>
      </g>
     </g>
    </g>
    <g id="ytick_6">
     <g id="line2d_11">
      <g>
       <use xlink:href="#m76fa5a367c" x="50.14375" y="59.333655" style="stroke: #000000; stroke-width: 0.8"/>
      </g>
     </g>
     <g id="text_12">
      <!-- 0.12 -->
      <g transform="translate(20.878125 63.132874) scale(0.1 -0.1)">
       <use xlink:href="#DejaVuSans-30"/>
       <use xlink:href="#DejaVuSans-2e" x="63.623047"/>
       <use xlink:href="#DejaVuSans-31" x="95.410156"/>
       <use xlink:href="#DejaVuSans-32" x="159.033203"/>
      </g>
     </g>
    </g>
    <g id="text_13">
     <!-- Amino acid frequency -->
     <g transform="translate(14.798438 238.139062) rotate(-90) scale(0.1 -0.1)">
      <defs>
       <path id="DejaVuSans-41" d="M 2188 4044 
L 1331 1722 
L 3047 1722 
L 2188 4044 
z
M 1831 4666 
L 2547 4666 
L 4325 0 
L 3669 0 
L 3244 1197 
L 1141 1197 
L 716 0 
L 50 0 
L 1831 4666 
z
" transform="scale(0.015625)"/>
       <path id="DejaVuSans-6d" d="M 3328 2828 
Q 3544 3216 3844 3400 
Q 4144 3584 4550 3584 
Q 5097 3584 5394 3201 
Q 5691 2819 5691 2113 
L 5691 0 
L 5113 0 
L 5113 2094 
Q 5113 2597 4934 2840 
Q 4756 3084 4391 3084 
Q 3944 3084 3684 2787 
Q 3425 2491 3425 1978 
L 3425 0 
L 2847 0 
L 2847 2094 
Q 2847 2600 2669 2842 
Q 2491 3084 2119 3084 
Q 1678 3084 1418 2786 
Q 1159 2488 1159 1978 
L 1159 0 
L 581 0 
L 581 3500 
L 1159 3500 
L 1159 2956 
Q 1356 3278 1631 3431 
Q 1906 3584 2284 3584 
Q 2666 3584 2933 3390 
Q 3200 3197 3328 2828 
z
" transform="scale(0.015625)"/>
       <path id="DejaVuSans-69" d="M 603 3500 
L 1178 3500 
L 1178 0 
L 603 0 
L 603 3500 
z
M 603 4863 
L 1178 4863 
L 1178 4134 
L 603 4134 
L 603 4863 
z
" transform="scale(0.015625)"/>
       <path id="DejaVuSans-20" transform="scale(0.015625)"/>
       <path id="DejaVuSans-61" d="M 2194 1759 
Q 1497 1759 1228 1600 
Q 959 1441 959 1056 
Q 959 750 1161 570 
Q 1363 391 1709 391 
Q 2188 391 2477 730 
Q 2766 1069 2766 1631 
L 2766 1759 
L 2194 1759 
z
M 3341 1997 
L 3341 0 
L 2766 0 
L 2766 531 
Q 2569 213 2275 61 
Q 1981 -91 1556 -91 
Q 1019 -91 701 211 
Q 384 513 384 1019 
Q 384 1609 779 1909 
Q 1175 2209 1959 2209 
L 2766 2209 
L 2766 2266 
Q 2766 2663 2505 2880 
Q 2244 3097 1772 3097 
Q 1472 3097 1187 3025 
Q 903 2953 641 2809 
L 641 3341 
Q 956 3463 1253 3523 
Q 1550 3584 1831 3584 
Q 2591 3584 2966 3190 
Q 3341 2797 3341 1997 
z
" transform="scale(0.015625)"/>
       <path id="DejaVuSans-63" d="M 3122 3366 
L 3122 2828 
Q 2878 2963 2633 3030 
Q 2388 3097 2138 3097 
Q 1578 3097 1268 2742 
Q 959 2388 959 1747 
Q 959 1106 1268 751 
Q 1578 397 2138 397 
Q 2388 397 2633 464 
Q 2878 531 3122 666 
L 3122 134 
Q 2881 22 2623 -34 
Q 2366 -91 2075 -91 
Q 1284 -91 818 406 
Q 353 903 353 1747 
Q 353 2603 823 3093 
Q 1294 3584 2113 3584 
Q 2378 3584 2631 3529 
Q 2884 3475 3122 3366 
z
" transform="scale(0.015625)"/>
       <path id="DejaVuSans-66" d="M 2375 4863 
L 2375 4384 
L 1825 4384 
Q 1516 4384 1395 4259 
Q 1275 4134 1275 3809 
L 1275 3500 
L 2222 3500 
L 2222 3053 
L 1275 3053 
L 1275 0 
L 697 0 
L 697 3053 
L 147 3053 
L 147 3500 
L 697 3500 
L 697 3744 
Q 697 4328 969 4595 
Q 1241 4863 1831 4863 
L 2375 4863 
z
" transform="scale(0.015625)"/>
       <path id="DejaVuSans-72" d="M 2631 2963 
Q 2534 3019 2420 3045 
Q 2306 3072 2169 3072 
Q 1681 3072 1420 2755 
Q 1159 2438 1159 1844 
L 1159 0 
L 581 0 
L 581 3500 
L 1159 3500 
L 1159 2956 
Q 1341 3275 1631 3429 
Q 1922 3584 2338 3584 
Q 2397 3584 2469 3576 
Q 2541 3569 2628 3553 
L 2631 2963 
z
" transform="scale(0.015625)"/>
       <path id="DejaVuSans-65" d="M 3597 1894 
L 3597 1613 
L 953 1613 
Q 991 1019 1311 708 
Q 1631 397 2203 397 
Q 2534 397 2845 478 
Q 3156 559 3463 722 
L 3463 178 
Q 3153 47 2828 -22 
Q 2503 -91 2169 -91 
Q 1331 -91 842 396 
Q 353 884 353 1716 
Q 353 2575 817 3079 
Q 1281 3584 2069 3584 
Q 2775 3584 3186 3129 
Q 3597 2675 3597 1894 
z
M 3022 2063 
Q 3016 2534 2758 2815 
Q 2500 3097 2075 3097 
Q 1594 3097 1305 2825 
Q 1016 2553 972 2059 
L 3022 2063 
z
" transform="scale(0.015625)"/>
       <path id="DejaVuSans-71" d="M 947 1747 
Q 947 1113 1208 752 
Q 1469 391 1925 391 
Q 2381 391 2643 752 
Q 2906 1113 2906 1747 
Q 2906 2381 2643 2742 
Q 2381 3103 1925 3103 
Q 1469 3103 1208 2742 
Q 947 2381 947 1747 
z
M 2906 525 
Q 2725 213 2448 61 
Q 2172 -91 1784 -91 
Q 1150 -91 751 415 
Q 353 922 353 1747 
Q 353 2572 751 3078 
Q 1150 3584 1784 3584 
Q 2172 3584 2448 3432 
Q 2725 3281 2906 2969 
L 2906 3500 
L 3481 3500 
L 3481 -1331 
L 2906 -1331 
L 2906 525 
z
" transform="scale(0.015625)"/>
       <path id="DejaVuSans-75" d="M 544 1381 
L 544 3500 
L 1119 3500 
L 1119 1403 
Q 1119 906 1312 657 
Q 1506 409 1894 409 
Q 2359 409 2629 706 
Q 2900 1003 2900 1516 
L 2900 3500 
L 3475 3500 
L 3475 0 
L 2900 0 
L 2900 538 
Q 2691 219 2414 64 
Q 2138 -91 1772 -91 
Q 1169 -91 856 284 
Q 544 659 544 1381 
z
M 1991 3584 
L 1991 3584 
z
" transform="scale(0.015625)"/>
       <path id="DejaVuSans-79" d="M 2059 -325 
Q 1816 -950 1584 -1140 
Q 1353 -1331 966 -1331 
L 506 -1331 
L 506 -850 
L 844 -850 
Q 1081 -850 1212 -737 
Q 1344 -625 1503 -206 
L 1606 56 
L 191 3500 
L 800 3500 
L 1894 763 
L 2988 3500 
L 3597 3500 
L 2059 -325 
z
" transform="scale(0.015625)"/>
      </defs>
      <use xlink:href="#DejaVuSans-41"/>
      <use xlink:href="#DejaVuSans-6d" x="68.408203"/>
      <use xlink:href="#DejaVuSans-69" x="165.820312"/>
      <use xlink:href="#DejaVuSans-6e" x="193.603516"/>
      <use xlink:href="#DejaVuSans-6f" x="256.982422"/>
      <use xlink:href="#DejaVuSans-20" x="318.164062"/>
      <use xlink:href="#DejaVuSans-61" x="349.951172"/>
      <use xlink:href="#DejaVuSans-63" x="411.230469"/>
      <use xlink:href="#DejaVuSans-69" x="466.210938"/>
      <use xlink:href="#DejaVuSans-64" x="493.994141"/>
      <use xlink:href="#DejaVuSans-20" x="557.470703"/>
      <use xlink:href="#DejaVuSans-66" x="589.257812"/>
      <use xlink:href="#DejaVuSans-72" x="624.462891"/>
      <use xlink:href="#DejaVuSans-65" x="663.326172"/>
      <use xlink:href="#DejaVuSans-71" x="724.849609"/>
      <use xlink:href="#DejaVuSans-75" x="788.326172"/>
      <use xlink:href="#DejaVuSans-65" x="851.705078"/>
      <use xlink:href="#DejaVuSans-6e" x="913.228516"/>
      <use xlink:href="#DejaVuSans-63" x="976.607422"/>
      <use xlink:href="#DejaVuSans-79" x="1031.587891"/>
     </g>
    </g>
   </g>
   <g id="line2d_12">
    <path d="M 68.260633 251.498236 
L 71.92061 250.234637 
L 75.580586 248.971037 
L 79.240562 247.707437 
L 82.900539 246.443837 
L 86.560515 245.180238 
L 90.220491 243.916638 
L 93.880468 242.653038 
L 97.540444 241.389438 
L 101.200421 240.125838 
L 104.860397 238.862239 
L 108.520373 237.598639 
L 112.18035 236.335039 
L 115.840326 235.071439 
L 119.500303 233.80784 
L 123.160279 232.54424 
L 126.820255 231.28064 
L 130.480232 230.01704 
L 134.140208 228.75344 
L 137.800184 227.489841 
L 141.460161 226.226241 
L 145.120137 224.962641 
L 148.780114 223.699041 
L 152.44009 222.435442 
L 156.100066 221.171842 
L 159.760043 219.908242 
L 163.420019 218.644642 
L 167.079996 217.381042 
L 170.739972 216.117443 
L 174.399948 214.853843 
L 178.059925 213.590243 
L 181.719901 212.326643 
L 185.379878 211.063044 
L 189.039854 209.799444 
L 192.69983 208.535844 
L 196.359807 207.272244 
L 200.019783 206.008644 
L 203.679759 204.745045 
L 207.339736 203.481445 
L 210.999712 202.217845 
L 214.659689 200.954245 
L 218.319665 199.690646 
L 221.979641 198.427046 
L 225.639618 197.163446 
L 229.299594 195.899846 
L 232.959571 194.636246 
L 236.619547 193.372647 
L 240.279523 192.109047 
L 243.9395 190.845447 
L 247.599476 189.581847 
L 251.259452 188.318248 
L 254.919429 187.054648 
L 258.579405 185.791048 
L 262.239382 184.527448 
L 265.899358 183.263848 
L 269.559334 182.000249 
L 273.219311 180.736649 
L 276.879287 179.473049 
L 280.539264 178.209449 
L 284.19924 176.94585 
L 287.859216 175.68225 
L 291.519193 174.41865 
L 295.179169 173.15505 
L 298.839146 171.89145 
L 302.499122 170.627851 
L 306.159098 169.364251 
L 309.819075 168.100651 
L 313.479051 166.837051 
L 317.139027 165.573452 
L 320.799004 164.309852 
L 324.45898 163.046252 
L 328.118957 161.782652 
L 331.778933 160.519052 
L 335.438909 159.255453 
L 339.098886 157.991853 
L 342.758862 156.728253 
L 346.418839 155.464653 
L 350.078815 154.201054 
L 353.738791 152.937454 
L 357.398768 151.673854 
L 361.058744 150.410254 
L 364.71872 149.146654 
L 368.378697 147.883055 
L 372.038673 146.619455 
L 375.69865 145.355855 
L 379.358626 144.092255 
L 383.018602 142.828656 
L 386.678579 141.565056 
L 390.338555 140.301456 
L 393.998532 139.037856 
L 397.658508 137.774256 
L 401.318484 136.510657 
L 404.978461 135.247057 
L 408.638437 133.983457 
L 412.298414 132.719857 
L 415.95839 131.456258 
L 419.618366 130.192658 
L 423.278343 128.929058 
L 426.938319 127.665458 
L 430.598295 126.401858 
" clip-path="url(#p3d63c2c5ab)" style="fill: none; stroke: #ffa500; stroke-width: 2.25; stroke-linecap: square"/>
   </g>
   <g id="patch_3">
    <path d="M 50.14375 309.6 
L 50.14375 57.6 
" style="fill: none; stroke: #000000; stroke-width: 0.8; stroke-linejoin: miter; stroke-linecap: square"/>
   </g>
   <g id="patch_4">
    <path d="M 448.715179 309.6 
L 448.715179 57.6 
" style="fill: none; stroke: #000000; stroke-width: 0.8; stroke-linejoin: miter; stroke-linecap: square"/>
   </g>
   <g id="patch_5">
    <path d="M 50.14375 309.6 
L 448.715179 309.6 
" style="fill: none; stroke: #000000; stroke-width: 0.8; stroke-linejoin: miter; stroke-linecap: square"/>
   </g>
   <g id="patch_6">
    <path d="M 50.14375 57.6 
L 448.715179 57.6 
" style="fill: none; stroke: #000000; stroke-width: 0.8; stroke-linejoin: miter; stroke-linecap: square"/>
   </g>
  </g>
  <g id="axes_2">
   <g id="patch_7">
    <path d="M 488.572321 309.6 
L 887.14375 309.6 
L 887.14375 57.6 
L 488.572321 57.6 
z
" style="fill: #ffffff"/>
   </g>
   <g id="PathCollection_2">
    <g clip-path="url(#p0cd6914dd7)">
     <use xlink:href="#mbc2bf44bda" x="506.689205" y="262.020455" style="fill: #1f77b4; fill-opacity: 0.8; stroke: #1f77b4; stroke-opacity: 0.8"/>
     <use xlink:href="#mbc2bf44bda" x="506.689205" y="298.145455" style="fill: #1f77b4; fill-opacity: 0.8; stroke: #1f77b4; stroke-opacity: 0.8"/>
     <use xlink:href="#mbc2bf44bda" x="567.078815" y="293.695429" style="fill: #1f77b4; fill-opacity: 0.8; stroke: #1f77b4; stroke-opacity: 0.8"/>
     <use xlink:href="#mbc2bf44bda" x="567.078815" y="182.684291" style="fill: #1f77b4; fill-opacity: 0.8; stroke: #1f77b4; stroke-opacity: 0.8"/>
     <use xlink:href="#mbc2bf44bda" x="567.078815" y="143.054039" style="fill: #1f77b4; fill-opacity: 0.8; stroke: #1f77b4; stroke-opacity: 0.8"/>
     <use xlink:href="#mbc2bf44bda" x="567.078815" y="249.622666" style="fill: #1f77b4; fill-opacity: 0.8; stroke: #1f77b4; stroke-opacity: 0.8"/>
     <use xlink:href="#mbc2bf44bda" x="567.078815" y="276.038665" style="fill: #1f77b4; fill-opacity: 0.8; stroke: #1f77b4; stroke-opacity: 0.8"/>
     <use xlink:href="#mbc2bf44bda" x="567.078815" y="177.101039" style="fill: #1f77b4; fill-opacity: 0.8; stroke: #1f77b4; stroke-opacity: 0.8"/>
     <use xlink:href="#mbc2bf44bda" x="567.078815" y="243.343008" style="fill: #1f77b4; fill-opacity: 0.8; stroke: #1f77b4; stroke-opacity: 0.8"/>
     <use xlink:href="#mbc2bf44bda" x="567.078815" y="267.689716" style="fill: #1f77b4; fill-opacity: 0.8; stroke: #1f77b4; stroke-opacity: 0.8"/>
     <use xlink:href="#mbc2bf44bda" x="567.078815" y="244.811767" style="fill: #1f77b4; fill-opacity: 0.8; stroke: #1f77b4; stroke-opacity: 0.8"/>
     <use xlink:href="#mbc2bf44bda" x="627.468425" y="156.422745" style="fill: #1f77b4; fill-opacity: 0.8; stroke: #1f77b4; stroke-opacity: 0.8"/>
     <use xlink:href="#mbc2bf44bda" x="687.858036" y="158.414776" style="fill: #1f77b4; fill-opacity: 0.8; stroke: #1f77b4; stroke-opacity: 0.8"/>
     <use xlink:href="#mbc2bf44bda" x="687.858036" y="152.442771" style="fill: #1f77b4; fill-opacity: 0.8; stroke: #1f77b4; stroke-opacity: 0.8"/>
     <use xlink:href="#mbc2bf44bda" x="687.858036" y="225.390096" style="fill: #1f77b4; fill-opacity: 0.8; stroke: #1f77b4; stroke-opacity: 0.8"/>
     <use xlink:href="#mbc2bf44bda" x="687.858036" y="212.94073" style="fill: #1f77b4; fill-opacity: 0.8; stroke: #1f77b4; stroke-opacity: 0.8"/>
     <use xlink:href="#mbc2bf44bda" x="687.858036" y="133.233271" style="fill: #1f77b4; fill-opacity: 0.8; stroke: #1f77b4; stroke-opacity: 0.8"/>
     <use xlink:href="#mbc2bf44bda" x="869.026867" y="129.028948" style="fill: #1f77b4; fill-opacity: 0.8; stroke: #1f77b4; stroke-opacity: 0.8"/>
     <use xlink:href="#mbc2bf44bda" x="808.637256" y="186.180395" style="fill: #1f77b4; fill-opacity: 0.8; stroke: #1f77b4; stroke-opacity: 0.8"/>
     <use xlink:href="#mbc2bf44bda" x="748.247646" y="199.11721" style="fill: #1f77b4; fill-opacity: 0.8; stroke: #1f77b4; stroke-opacity: 0.8"/>
    </g>
   </g>
   <g id="PolyCollection_2">
    <path d="M 506.689205 214.888114 
L 506.689205 279.933312 
L 510.349181 278.286864 
L 514.009157 276.605231 
L 517.669134 274.817624 
L 521.32911 273.214125 
L 524.989086 271.557206 
L 528.649063 270.009206 
L 532.309039 268.389478 
L 535.969016 266.808103 
L 539.628992 265.200104 
L 543.288968 263.691559 
L 546.948945 262.010362 
L 550.608921 260.409825 
L 554.268898 258.809287 
L 557.928874 257.32759 
L 561.58885 255.718064 
L 565.248827 254.007674 
L 568.908803 252.458128 
L 572.56878 250.882804 
L 576.228756 249.4644 
L 579.888732 248.045995 
L 583.548709 246.627591 
L 587.208685 245.202271 
L 590.868661 243.446992 
L 594.528638 241.798245 
L 598.188614 240.222302 
L 601.848591 238.548287 
L 605.508567 237.150101 
L 609.168543 235.786414 
L 612.82852 234.453125 
L 616.488496 232.955542 
L 620.148473 231.566229 
L 623.808449 230.198359 
L 627.468425 228.833627 
L 631.128402 227.481426 
L 634.788378 226.256938 
L 638.448354 225.03245 
L 642.108331 223.896846 
L 645.768307 222.58087 
L 649.428284 221.344685 
L 653.08826 219.654176 
L 656.748236 218.235701 
L 660.408213 217.107225 
L 664.068189 215.827123 
L 667.728166 214.779493 
L 671.388142 213.738 
L 675.048118 212.310602 
L 678.708095 211.004536 
L 682.368071 209.62927 
L 686.028048 208.248363 
L 689.688024 206.857066 
L 693.348 205.381027 
L 697.007977 204.196965 
L 700.667953 203.004207 
L 704.327929 201.849043 
L 707.987906 200.677128 
L 711.647882 199.315758 
L 715.307859 198.086249 
L 718.967835 196.685487 
L 722.627811 195.295971 
L 726.287788 194.216451 
L 729.947764 193.456514 
L 733.607741 192.574158 
L 737.267717 191.373123 
L 740.927693 189.978607 
L 744.58767 188.9 
L 748.247646 187.9865 
L 751.907622 187.069766 
L 755.567599 186.055596 
L 759.227575 184.89244 
L 762.887552 183.899423 
L 766.547528 182.845367 
L 770.207504 181.8712 
L 773.867481 180.942577 
L 777.527457 179.984265 
L 781.187434 178.949173 
L 784.84741 177.902821 
L 788.507386 176.856469 
L 792.167363 175.990969 
L 795.827339 175.269867 
L 799.487316 174.477734 
L 803.147292 173.897531 
L 806.807268 173.113871 
L 810.467245 172.483311 
L 814.127221 172.053163 
L 817.787197 171.521854 
L 821.447174 170.87394 
L 825.10715 169.906356 
L 828.767127 169.08609 
L 832.427103 168.595058 
L 836.087079 167.808184 
L 839.747056 167.154403 
L 843.407032 166.146478 
L 847.067009 165.127307 
L 850.726985 164.124545 
L 854.386961 163.561761 
L 858.046938 163.029786 
L 861.706914 162.485263 
L 865.36689 161.936496 
L 869.026867 161.176311 
L 869.026867 69.054545 
L 869.026867 69.054545 
L 865.36689 71.15453 
L 861.706914 73.254514 
L 858.046938 75.354498 
L 854.386961 77.454483 
L 850.726985 79.554467 
L 847.067009 81.654451 
L 843.407032 83.717204 
L 839.747056 85.600722 
L 836.087079 87.48424 
L 832.427103 89.367758 
L 828.767127 91.251276 
L 825.10715 93.166992 
L 821.447174 95.287232 
L 817.787197 97.407473 
L 814.127221 99.527714 
L 810.467245 101.647954 
L 806.807268 103.768195 
L 803.147292 105.888436 
L 799.487316 108.008676 
L 795.827339 110.128917 
L 792.167363 112.249158 
L 788.507386 114.369398 
L 784.84741 116.489639 
L 781.187434 118.60988 
L 777.527457 120.733086 
L 773.867481 122.860742 
L 770.207504 124.967237 
L 766.547528 126.669013 
L 762.887552 128.370789 
L 759.227575 130.072566 
L 755.567599 131.774342 
L 751.907622 133.476118 
L 748.247646 135.177894 
L 744.58767 137.213509 
L 740.927693 139.375287 
L 737.267717 140.926803 
L 733.607741 142.428644 
L 729.947764 144.077109 
L 726.287788 146.384648 
L 722.627811 148.199704 
L 718.967835 150.398089 
L 715.307859 152.610917 
L 711.647882 154.822901 
L 707.987906 157.012257 
L 704.327929 158.679905 
L 700.667953 160.249196 
L 697.007977 161.728265 
L 693.348 163.207335 
L 689.688024 164.686404 
L 686.028048 166.165473 
L 682.368071 167.656285 
L 678.708095 169.59177 
L 675.048118 171.465674 
L 671.388142 173.39137 
L 667.728166 174.714447 
L 664.068189 176.173793 
L 660.408213 177.637214 
L 656.748236 178.783175 
L 653.08826 179.734795 
L 649.428284 181.035183 
L 645.768307 182.782301 
L 642.108331 184.096749 
L 638.448354 185.306513 
L 634.788378 186.339789 
L 631.128402 187.743072 
L 627.468425 188.962253 
L 623.808449 189.748622 
L 620.148473 190.793072 
L 616.488496 192.180056 
L 612.82852 193.219147 
L 609.168543 193.988409 
L 605.508567 194.857677 
L 601.848591 196.622792 
L 598.188614 197.455069 
L 594.528638 198.177272 
L 590.868661 198.920865 
L 587.208685 199.652523 
L 583.548709 200.39281 
L 579.888732 201.140765 
L 576.228756 201.888719 
L 572.56878 202.794942 
L 568.908803 203.781495 
L 565.248827 204.276662 
L 561.58885 204.854752 
L 557.928874 205.592404 
L 554.268898 206.335413 
L 550.608921 207.072428 
L 546.948945 207.632312 
L 543.288968 208.165603 
L 539.628992 208.80176 
L 535.969016 209.57464 
L 532.309039 210.350961 
L 528.649063 211.086038 
L 524.989086 211.726567 
L 521.32911 212.395952 
L 517.669134 212.972761 
L 514.009157 213.624919 
L 510.349181 214.256516 
L 506.689205 214.888114 
z
" clip-path="url(#p0cd6914dd7)" style="fill: #ffa500; fill-opacity: 0.15"/>
   </g>
   <g id="matplotlib.axis_3">
    <g id="xtick_6">
     <g id="line2d_13">
      <g>
       <use xlink:href="#macdb675ad1" x="519.974919" y="309.6" style="stroke: #000000; stroke-width: 0.8"/>
      </g>
     </g>
     <g id="text_14">
      <!-- 0.02 -->
      <g transform="translate(508.842106 324.198437) scale(0.1 -0.1)">
       <use xlink:href="#DejaVuSans-30"/>
       <use xlink:href="#DejaVuSans-2e" x="63.623047"/>
       <use xlink:href="#DejaVuSans-30" x="95.410156"/>
       <use xlink:href="#DejaVuSans-32" x="159.033203"/>
      </g>
     </g>
    </g>
    <g id="xtick_7">
     <g id="line2d_14">
      <g>
       <use xlink:href="#macdb675ad1" x="593.650244" y="309.6" style="stroke: #000000; stroke-width: 0.8"/>
      </g>
     </g>
     <g id="text_15">
      <!-- 0.04 -->
      <g transform="translate(582.517431 324.198437) scale(0.1 -0.1)">
       <use xlink:href="#DejaVuSans-30"/>
       <use xlink:href="#DejaVuSans-2e" x="63.623047"/>
       <use xlink:href="#DejaVuSans-30" x="95.410156"/>
       <use xlink:href="#DejaVuSans-34" x="159.033203"/>
      </g>
     </g>
    </g>
    <g id="xtick_8">
     <g id="line2d_15">
      <g>
       <use xlink:href="#macdb675ad1" x="667.325568" y="309.6" style="stroke: #000000; stroke-width: 0.8"/>
      </g>
     </g>
     <g id="text_16">
      <!-- 0.06 -->
      <g transform="translate(656.192756 324.198437) scale(0.1 -0.1)">
       <use xlink:href="#DejaVuSans-30"/>
       <use xlink:href="#DejaVuSans-2e" x="63.623047"/>
       <use xlink:href="#DejaVuSans-30" x="95.410156"/>
       <use xlink:href="#DejaVuSans-36" x="159.033203"/>
      </g>
     </g>
    </g>
    <g id="xtick_9">
     <g id="line2d_16">
      <g>
       <use xlink:href="#macdb675ad1" x="741.000893" y="309.6" style="stroke: #000000; stroke-width: 0.8"/>
      </g>
     </g>
     <g id="text_17">
      <!-- 0.08 -->
      <g transform="translate(729.86808 324.198437) scale(0.1 -0.1)">
       <use xlink:href="#DejaVuSans-30"/>
       <use xlink:href="#DejaVuSans-2e" x="63.623047"/>
       <use xlink:href="#DejaVuSans-30" x="95.410156"/>
       <use xlink:href="#DejaVuSans-38" x="159.033203"/>
      </g>
     </g>
    </g>
    <g id="xtick_10">
     <g id="line2d_17">
      <g>
       <use xlink:href="#macdb675ad1" x="814.676218" y="309.6" style="stroke: #000000; stroke-width: 0.8"/>
      </g>
     </g>
     <g id="text_18">
      <!-- 0.10 -->
      <g transform="translate(803.543405 324.198437) scale(0.1 -0.1)">
       <use xlink:href="#DejaVuSans-30"/>
       <use xlink:href="#DejaVuSans-2e" x="63.623047"/>
       <use xlink:href="#DejaVuSans-31" x="95.410156"/>
       <use xlink:href="#DejaVuSans-30" x="159.033203"/>
      </g>
     </g>
    </g>
    <g id="text_19">
     <!-- Codon+Cost -->
     <g transform="translate(656.599442 337.876562) scale(0.1 -0.1)">
      <defs>
       <path id="DejaVuSans-2b" d="M 2944 4013 
L 2944 2272 
L 4684 2272 
L 4684 1741 
L 2944 1741 
L 2944 0 
L 2419 0 
L 2419 1741 
L 678 1741 
L 678 2272 
L 2419 2272 
L 2419 4013 
L 2944 4013 
z
" transform="scale(0.015625)"/>
       <path id="DejaVuSans-73" d="M 2834 3397 
L 2834 2853 
Q 2591 2978 2328 3040 
Q 2066 3103 1784 3103 
Q 1356 3103 1142 2972 
Q 928 2841 928 2578 
Q 928 2378 1081 2264 
Q 1234 2150 1697 2047 
L 1894 2003 
Q 2506 1872 2764 1633 
Q 3022 1394 3022 966 
Q 3022 478 2636 193 
Q 2250 -91 1575 -91 
Q 1294 -91 989 -36 
Q 684 19 347 128 
L 347 722 
Q 666 556 975 473 
Q 1284 391 1588 391 
Q 1994 391 2212 530 
Q 2431 669 2431 922 
Q 2431 1156 2273 1281 
Q 2116 1406 1581 1522 
L 1381 1569 
Q 847 1681 609 1914 
Q 372 2147 372 2553 
Q 372 3047 722 3315 
Q 1072 3584 1716 3584 
Q 2034 3584 2315 3537 
Q 2597 3491 2834 3397 
z
" transform="scale(0.015625)"/>
       <path id="DejaVuSans-74" d="M 1172 4494 
L 1172 3500 
L 2356 3500 
L 2356 3053 
L 1172 3053 
L 1172 1153 
Q 1172 725 1289 603 
Q 1406 481 1766 481 
L 2356 481 
L 2356 0 
L 1766 0 
Q 1100 0 847 248 
Q 594 497 594 1153 
L 594 3053 
L 172 3053 
L 172 3500 
L 594 3500 
L 594 4494 
L 1172 4494 
z
" transform="scale(0.015625)"/>
      </defs>
      <use xlink:href="#DejaVuSans-43"/>
      <use xlink:href="#DejaVuSans-6f" x="69.824219"/>
      <use xlink:href="#DejaVuSans-64" x="131.005859"/>
      <use xlink:href="#DejaVuSans-6f" x="194.482422"/>
      <use xlink:href="#DejaVuSans-6e" x="255.664062"/>
      <use xlink:href="#DejaVuSans-2b" x="319.042969"/>
      <use xlink:href="#DejaVuSans-43" x="402.832031"/>
      <use xlink:href="#DejaVuSans-6f" x="472.65625"/>
      <use xlink:href="#DejaVuSans-73" x="533.837891"/>
      <use xlink:href="#DejaVuSans-74" x="585.9375"/>
     </g>
    </g>
   </g>
   <g id="matplotlib.axis_4">
    <g id="ytick_7">
     <g id="line2d_18">
      <g>
       <use xlink:href="#m76fa5a367c" x="488.572321" y="273.025788" style="stroke: #000000; stroke-width: 0.8"/>
      </g>
     </g>
     <g id="text_20">
      <!-- 0.02 -->
      <g transform="translate(459.306696 276.825007) scale(0.1 -0.1)">
       <use xlink:href="#DejaVuSans-30"/>
       <use xlink:href="#DejaVuSans-2e" x="63.623047"/>
       <use xlink:href="#DejaVuSans-30" x="95.410156"/>
       <use xlink:href="#DejaVuSans-32" x="159.033203"/>
      </g>
     </g>
    </g>
    <g id="ytick_8">
     <g id="line2d_19">
      <g>
       <use xlink:href="#m76fa5a367c" x="488.572321" y="230.721178" style="stroke: #000000; stroke-width: 0.8"/>
      </g>
     </g>
     <g id="text_21">
      <!-- 0.04 -->
      <g transform="translate(459.306696 234.520397) scale(0.1 -0.1)">
       <use xlink:href="#DejaVuSans-30"/>
       <use xlink:href="#DejaVuSans-2e" x="63.623047"/>
       <use xlink:href="#DejaVuSans-30" x="95.410156"/>
       <use xlink:href="#DejaVuSans-34" x="159.033203"/>
      </g>
     </g>
    </g>
    <g id="ytick_9">
     <g id="line2d_20">
      <g>
       <use xlink:href="#m76fa5a367c" x="488.572321" y="188.416569" style="stroke: #000000; stroke-width: 0.8"/>
      </g>
     </g>
     <g id="text_22">
      <!-- 0.06 -->
      <g transform="translate(459.306696 192.215788) scale(0.1 -0.1)">
       <use xlink:href="#DejaVuSans-30"/>
       <use xlink:href="#DejaVuSans-2e" x="63.623047"/>
       <use xlink:href="#DejaVuSans-30" x="95.410156"/>
       <use xlink:href="#DejaVuSans-36" x="159.033203"/>
      </g>
     </g>
    </g>
    <g id="ytick_10">
     <g id="line2d_21">
      <g>
       <use xlink:href="#m76fa5a367c" x="488.572321" y="146.111959" style="stroke: #000000; stroke-width: 0.8"/>
      </g>
     </g>
     <g id="text_23">
      <!-- 0.08 -->
      <g transform="translate(459.306696 149.911178) scale(0.1 -0.1)">
       <use xlink:href="#DejaVuSans-30"/>
       <use xlink:href="#DejaVuSans-2e" x="63.623047"/>
       <use xlink:href="#DejaVuSans-30" x="95.410156"/>
       <use xlink:href="#DejaVuSans-38" x="159.033203"/>
      </g>
     </g>
    </g>
    <g id="ytick_11">
     <g id="line2d_22">
      <g>
       <use xlink:href="#m76fa5a367c" x="488.572321" y="103.80735" style="stroke: #000000; stroke-width: 0.8"/>
      </g>
     </g>
     <g id="text_24">
      <!-- 0.10 -->
      <g transform="translate(459.306696 107.606568) scale(0.1 -0.1)">
       <use xlink:href="#DejaVuSans-30"/>
       <use xlink:href="#DejaVuSans-2e" x="63.623047"/>
       <use xlink:href="#DejaVuSans-31" x="95.410156"/>
       <use xlink:href="#DejaVuSans-30" x="159.033203"/>
      </g>
     </g>
    </g>
    <g id="ytick_12">
     <g id="line2d_23">
      <g>
       <use xlink:href="#m76fa5a367c" x="488.572321" y="61.50274" style="stroke: #000000; stroke-width: 0.8"/>
      </g>
     </g>
     <g id="text_25">
      <!-- 0.12 -->
      <g transform="translate(459.306696 65.301959) scale(0.1 -0.1)">
       <use xlink:href="#DejaVuSans-30"/>
       <use xlink:href="#DejaVuSans-2e" x="63.623047"/>
       <use xlink:href="#DejaVuSans-31" x="95.410156"/>
       <use xlink:href="#DejaVuSans-32" x="159.033203"/>
      </g>
     </g>
    </g>
   </g>
   <g id="line2d_24">
    <path d="M 506.689205 251.921925 
L 510.349181 250.669802 
L 514.009157 249.417679 
L 517.669134 248.165557 
L 521.32911 246.913434 
L 524.989086 245.661311 
L 528.649063 244.409188 
L 532.309039 243.157066 
L 535.969016 241.904943 
L 539.628992 240.65282 
L 543.288968 239.400698 
L 546.948945 238.148575 
L 550.608921 236.896452 
L 554.268898 235.644329 
L 557.928874 234.392207 
L 561.58885 233.140084 
L 565.248827 231.887961 
L 568.908803 230.635838 
L 572.56878 229.383716 
L 576.228756 228.131593 
L 579.888732 226.87947 
L 583.548709 225.627348 
L 587.208685 224.375225 
L 590.868661 223.123102 
L 594.528638 221.870979 
L 598.188614 220.618857 
L 601.848591 219.366734 
L 605.508567 218.114611 
L 609.168543 216.862488 
L 612.82852 215.610366 
L 616.488496 214.358243 
L 620.148473 213.10612 
L 623.808449 211.853998 
L 627.468425 210.601875 
L 631.128402 209.349752 
L 634.788378 208.097629 
L 638.448354 206.845507 
L 642.108331 205.593384 
L 645.768307 204.341261 
L 649.428284 203.089138 
L 653.08826 201.837016 
L 656.748236 200.584893 
L 660.408213 199.33277 
L 664.068189 198.080648 
L 667.728166 196.828525 
L 671.388142 195.576402 
L 675.048118 194.324279 
L 678.708095 193.072157 
L 682.368071 191.820034 
L 686.028048 190.567911 
L 689.688024 189.315788 
L 693.348 188.063666 
L 697.007977 186.811543 
L 700.667953 185.55942 
L 704.327929 184.307298 
L 707.987906 183.055175 
L 711.647882 181.803052 
L 715.307859 180.550929 
L 718.967835 179.298807 
L 722.627811 178.046684 
L 726.287788 176.794561 
L 729.947764 175.542438 
L 733.607741 174.290316 
L 737.267717 173.038193 
L 740.927693 171.78607 
L 744.58767 170.533948 
L 748.247646 169.281825 
L 751.907622 168.029702 
L 755.567599 166.777579 
L 759.227575 165.525457 
L 762.887552 164.273334 
L 766.547528 163.021211 
L 770.207504 161.769088 
L 773.867481 160.516966 
L 777.527457 159.264843 
L 781.187434 158.01272 
L 784.84741 156.760598 
L 788.507386 155.508475 
L 792.167363 154.256352 
L 795.827339 153.004229 
L 799.487316 151.752107 
L 803.147292 150.499984 
L 806.807268 149.247861 
L 810.467245 147.995738 
L 814.127221 146.743616 
L 817.787197 145.491493 
L 821.447174 144.23937 
L 825.10715 142.987248 
L 828.767127 141.735125 
L 832.427103 140.483002 
L 836.087079 139.230879 
L 839.747056 137.978757 
L 843.407032 136.726634 
L 847.067009 135.474511 
L 850.726985 134.222389 
L 854.386961 132.970266 
L 858.046938 131.718143 
L 861.706914 130.46602 
L 865.36689 129.213898 
L 869.026867 127.961775 
" clip-path="url(#p0cd6914dd7)" style="fill: none; stroke: #ffa500; stroke-width: 2.25; stroke-linecap: square"/>
   </g>
   <g id="patch_8">
    <path d="M 488.572321 309.6 
L 488.572321 57.6 
" style="fill: none; stroke: #000000; stroke-width: 0.8; stroke-linejoin: miter; stroke-linecap: square"/>
   </g>
   <g id="patch_9">
    <path d="M 887.14375 309.6 
L 887.14375 57.6 
" style="fill: none; stroke: #000000; stroke-width: 0.8; stroke-linejoin: miter; stroke-linecap: square"/>
   </g>
   <g id="patch_10">
    <path d="M 488.572321 309.6 
L 887.14375 309.6 
" style="fill: none; stroke: #000000; stroke-width: 0.8; stroke-linejoin: miter; stroke-linecap: square"/>
   </g>
   <g id="patch_11">
    <path d="M 488.572321 57.6 
L 887.14375 57.6 
" style="fill: none; stroke: #000000; stroke-width: 0.8; stroke-linejoin: miter; stroke-linecap: square"/>
   </g>
  </g>
  <g id="axes_3">
   <g id="patch_12">
    <path d="M 50.14375 612 
L 448.715179 612 
L 448.715179 360 
L 50.14375 360 
z
" style="fill: #ffffff"/>
   </g>
   <g id="PathCollection_3">
    <g clip-path="url(#p4c6fdfec0f)">
     <use xlink:href="#mbc2bf44bda" x="69.738734" y="563.717569" style="fill: #1f77b4; fill-opacity: 0.8; stroke: #1f77b4; stroke-opacity: 0.8"/>
     <use xlink:href="#mbc2bf44bda" x="68.260633" y="600.545455" style="fill: #1f77b4; fill-opacity: 0.8; stroke: #1f77b4; stroke-opacity: 0.8"/>
     <use xlink:href="#mbc2bf44bda" x="126.726681" y="596.008845" style="fill: #1f77b4; fill-opacity: 0.8; stroke: #1f77b4; stroke-opacity: 0.8"/>
     <use xlink:href="#mbc2bf44bda" x="126.726681" y="482.837754" style="fill: #1f77b4; fill-opacity: 0.8; stroke: #1f77b4; stroke-opacity: 0.8"/>
     <use xlink:href="#mbc2bf44bda" x="126.726681" y="442.436415" style="fill: #1f77b4; fill-opacity: 0.8; stroke: #1f77b4; stroke-opacity: 0.8"/>
     <use xlink:href="#mbc2bf44bda" x="141.224255" y="551.078555" style="fill: #1f77b4; fill-opacity: 0.8; stroke: #1f77b4; stroke-opacity: 0.8"/>
     <use xlink:href="#mbc2bf44bda" x="126.726681" y="578.008531" style="fill: #1f77b4; fill-opacity: 0.8; stroke: #1f77b4; stroke-opacity: 0.8"/>
     <use xlink:href="#mbc2bf44bda" x="141.224255" y="477.145869" style="fill: #1f77b4; fill-opacity: 0.8; stroke: #1f77b4; stroke-opacity: 0.8"/>
     <use xlink:href="#mbc2bf44bda" x="141.224255" y="544.676713" style="fill: #1f77b4; fill-opacity: 0.8; stroke: #1f77b4; stroke-opacity: 0.8"/>
     <use xlink:href="#mbc2bf44bda" x="126.726681" y="569.497136" style="fill: #1f77b4; fill-opacity: 0.8; stroke: #1f77b4; stroke-opacity: 0.8"/>
     <use xlink:href="#mbc2bf44bda" x="141.224255" y="546.17405" style="fill: #1f77b4; fill-opacity: 0.8; stroke: #1f77b4; stroke-opacity: 0.8"/>
     <use xlink:href="#mbc2bf44bda" x="212.709777" y="456.065236" style="fill: #1f77b4; fill-opacity: 0.8; stroke: #1f77b4; stroke-opacity: 0.8"/>
     <use xlink:href="#mbc2bf44bda" x="257.035749" y="458.096026" style="fill: #1f77b4; fill-opacity: 0.8; stroke: #1f77b4; stroke-opacity: 0.8"/>
     <use xlink:href="#mbc2bf44bda" x="257.035749" y="452.007823" style="fill: #1f77b4; fill-opacity: 0.8; stroke: #1f77b4; stroke-opacity: 0.8"/>
     <use xlink:href="#mbc2bf44bda" x="257.035749" y="526.37449" style="fill: #1f77b4; fill-opacity: 0.8; stroke: #1f77b4; stroke-opacity: 0.8"/>
     <use xlink:href="#mbc2bf44bda" x="242.180677" y="513.682896" style="fill: #1f77b4; fill-opacity: 0.8; stroke: #1f77b4; stroke-opacity: 0.8"/>
     <use xlink:href="#mbc2bf44bda" x="242.180677" y="432.424562" style="fill: #1f77b4; fill-opacity: 0.8; stroke: #1f77b4; stroke-opacity: 0.8"/>
     <use xlink:href="#mbc2bf44bda" x="430.598295" y="428.138436" style="fill: #1f77b4; fill-opacity: 0.8; stroke: #1f77b4; stroke-opacity: 0.8"/>
     <use xlink:href="#mbc2bf44bda" x="372.489745" y="486.401883" style="fill: #1f77b4; fill-opacity: 0.8; stroke: #1f77b4; stroke-opacity: 0.8"/>
     <use xlink:href="#mbc2bf44bda" x="299.168625" y="499.59041" style="fill: #1f77b4; fill-opacity: 0.8; stroke: #1f77b4; stroke-opacity: 0.8"/>
    </g>
   </g>
   <g id="PolyCollection_3">
    <path d="M 68.260633 514.372779 
L 68.260633 587.212826 
L 71.92061 585.25927 
L 75.580586 583.181139 
L 79.240562 581.557269 
L 82.900539 579.936777 
L 86.560515 578.150448 
L 90.220491 576.208305 
L 93.880468 574.561587 
L 97.540444 572.887382 
L 101.200421 570.857497 
L 104.860397 568.891627 
L 108.520373 566.921387 
L 112.18035 565.163796 
L 115.840326 563.396921 
L 119.500303 561.635028 
L 123.160279 559.735721 
L 126.820255 558.120138 
L 130.480232 556.503496 
L 134.140208 554.649204 
L 137.800184 552.497054 
L 141.460161 550.458413 
L 145.120137 549.021435 
L 148.780114 547.589083 
L 152.44009 546.080846 
L 156.100066 544.307795 
L 159.760043 542.800734 
L 163.420019 540.994401 
L 167.079996 539.454303 
L 170.739972 537.904284 
L 174.399948 536.366963 
L 178.059925 534.8363 
L 181.719901 533.341164 
L 185.379878 531.797799 
L 189.039854 530.394498 
L 192.69983 528.9191 
L 196.359807 527.441606 
L 200.019783 525.88816 
L 203.679759 524.444817 
L 207.339736 523.199605 
L 210.999712 521.947966 
L 214.659689 520.570616 
L 218.319665 519.171263 
L 221.979641 517.978512 
L 225.639618 516.840611 
L 229.299594 515.38733 
L 232.959571 514.011169 
L 236.619547 512.658431 
L 240.279523 511.360107 
L 243.9395 510.037819 
L 247.599476 508.831512 
L 251.259452 507.556714 
L 254.919429 506.352768 
L 258.579405 505.069418 
L 262.239382 504.023076 
L 265.899358 502.811007 
L 269.559334 501.74804 
L 273.219311 500.583324 
L 276.879287 499.427231 
L 280.539264 498.307816 
L 284.19924 497.107455 
L 287.859216 495.951521 
L 291.519193 495.118149 
L 295.179169 493.729003 
L 298.839146 492.380632 
L 302.499122 491.483569 
L 306.159098 490.579697 
L 309.819075 489.865955 
L 313.479051 488.771954 
L 317.139027 487.867595 
L 320.799004 486.765505 
L 324.45898 485.863103 
L 328.118957 484.964762 
L 331.778933 483.754611 
L 335.438909 482.65463 
L 339.098886 481.961329 
L 342.758862 481.293605 
L 346.418839 480.348602 
L 350.078815 479.397669 
L 353.738791 478.444078 
L 357.398768 477.490121 
L 361.058744 476.687419 
L 364.71872 475.672785 
L 368.378697 474.648601 
L 372.038673 473.681987 
L 375.69865 472.830743 
L 379.358626 471.898937 
L 383.018602 471.002117 
L 386.678579 470.252657 
L 390.338555 469.493746 
L 393.998532 468.73389 
L 397.658508 468.011558 
L 401.318484 467.114033 
L 404.978461 466.249606 
L 408.638437 465.701007 
L 412.298414 465.038546 
L 415.95839 464.438822 
L 419.618366 463.712883 
L 423.278343 462.770743 
L 426.938319 461.899044 
L 430.598295 461.004849 
L 430.598295 371.454545 
L 430.598295 371.454545 
L 426.938319 373.46915 
L 423.278343 375.679492 
L 419.618366 377.917764 
L 415.95839 380.156037 
L 412.298414 382.394309 
L 408.638437 384.632582 
L 404.978461 386.870855 
L 401.318484 389.109127 
L 397.658508 391.3474 
L 393.998532 393.585672 
L 390.338555 395.561985 
L 386.678579 397.459395 
L 383.018602 399.356804 
L 379.358626 401.256847 
L 375.69865 403.157033 
L 372.038673 405.057219 
L 368.378697 406.928587 
L 364.71872 408.550348 
L 361.058744 410.383635 
L 357.398768 412.497282 
L 353.738791 414.54169 
L 350.078815 416.443396 
L 346.418839 418.389888 
L 342.758862 420.610695 
L 339.098886 422.7537 
L 335.438909 425.026026 
L 331.778933 427.275113 
L 328.118957 429.109958 
L 324.45898 431.167475 
L 320.799004 433.103471 
L 317.139027 435.053647 
L 313.479051 437.132284 
L 309.819075 439.527602 
L 306.159098 441.788547 
L 302.499122 443.44286 
L 298.839146 445.097173 
L 295.179169 446.751486 
L 291.519193 448.721572 
L 287.859216 450.675836 
L 284.19924 452.543216 
L 280.539264 454.483932 
L 276.879287 456.419332 
L 273.219311 458.063802 
L 269.559334 459.80808 
L 265.899358 461.252983 
L 262.239382 462.692593 
L 258.579405 464.407462 
L 254.919429 466.122331 
L 251.259452 467.841891 
L 247.599476 469.559461 
L 243.9395 471.269452 
L 240.279523 473.071462 
L 236.619547 474.70966 
L 232.959571 476.422434 
L 229.299594 477.97337 
L 225.639618 479.057153 
L 221.979641 480.050632 
L 218.319665 481.300433 
L 214.659689 482.50193 
L 210.999712 483.551805 
L 207.339736 484.634581 
L 203.679759 485.820357 
L 200.019783 486.747227 
L 196.359807 487.860704 
L 192.69983 489.033862 
L 189.039854 490.745501 
L 185.379878 491.48375 
L 181.719901 492.31219 
L 178.059925 493.252207 
L 174.399948 494.299488 
L 170.739972 495.114465 
L 167.079996 495.778128 
L 163.420019 497.039823 
L 159.760043 498.165977 
L 156.100066 499.041232 
L 152.44009 499.726283 
L 148.780114 500.338314 
L 145.120137 500.969838 
L 141.460161 501.929116 
L 137.800184 502.893574 
L 134.140208 503.45998 
L 130.480232 504.364417 
L 126.820255 505.268855 
L 123.160279 506.14405 
L 119.500303 506.562779 
L 115.840326 506.842776 
L 112.18035 507.350382 
L 108.520373 507.798216 
L 104.860397 508.185709 
L 101.200421 508.892576 
L 97.540444 509.408609 
L 93.880468 509.928506 
L 90.220491 510.609471 
L 86.560515 511.339295 
L 82.900539 512.069119 
L 79.240562 512.716649 
L 75.580586 513.268693 
L 71.92061 513.820736 
L 68.260633 514.372779 
z
" clip-path="url(#p4c6fdfec0f)" style="fill: #ffa500; fill-opacity: 0.15"/>
   </g>
   <g id="matplotlib.axis_5">
    <g id="xtick_11">
     <g id="line2d_25">
      <g>
       <use xlink:href="#macdb675ad1" x="88.671261" y="612" style="stroke: #000000; stroke-width: 0.8"/>
      </g>
     </g>
     <g id="text_26">
      <!-- 0.02 -->
      <g transform="translate(77.538448 626.598437) scale(0.1 -0.1)">
       <use xlink:href="#DejaVuSans-30"/>
       <use xlink:href="#DejaVuSans-2e" x="63.623047"/>
       <use xlink:href="#DejaVuSans-30" x="95.410156"/>
       <use xlink:href="#DejaVuSans-32" x="159.033203"/>
      </g>
     </g>
    </g>
    <g id="xtick_12">
     <g id="line2d_26">
      <g>
       <use xlink:href="#macdb675ad1" x="166.069835" y="612" style="stroke: #000000; stroke-width: 0.8"/>
      </g>
     </g>
     <g id="text_27">
      <!-- 0.04 -->
      <g transform="translate(154.937023 626.598437) scale(0.1 -0.1)">
       <use xlink:href="#DejaVuSans-30"/>
       <use xlink:href="#DejaVuSans-2e" x="63.623047"/>
       <use xlink:href="#DejaVuSans-30" x="95.410156"/>
       <use xlink:href="#DejaVuSans-34" x="159.033203"/>
      </g>
     </g>
    </g>
    <g id="xtick_13">
     <g id="line2d_27">
      <g>
       <use xlink:href="#macdb675ad1" x="243.46841" y="612" style="stroke: #000000; stroke-width: 0.8"/>
      </g>
     </g>
     <g id="text_28">
      <!-- 0.06 -->
      <g transform="translate(232.335598 626.598437) scale(0.1 -0.1)">
       <use xlink:href="#DejaVuSans-30"/>
       <use xlink:href="#DejaVuSans-2e" x="63.623047"/>
       <use xlink:href="#DejaVuSans-30" x="95.410156"/>
       <use xlink:href="#DejaVuSans-36" x="159.033203"/>
      </g>
     </g>
    </g>
    <g id="xtick_14">
     <g id="line2d_28">
      <g>
       <use xlink:href="#macdb675ad1" x="320.866985" y="612" style="stroke: #000000; stroke-width: 0.8"/>
      </g>
     </g>
     <g id="text_29">
      <!-- 0.08 -->
      <g transform="translate(309.734173 626.598437) scale(0.1 -0.1)">
       <use xlink:href="#DejaVuSans-30"/>
       <use xlink:href="#DejaVuSans-2e" x="63.623047"/>
       <use xlink:href="#DejaVuSans-30" x="95.410156"/>
       <use xlink:href="#DejaVuSans-38" x="159.033203"/>
      </g>
     </g>
    </g>
    <g id="xtick_15">
     <g id="line2d_29">
      <g>
       <use xlink:href="#macdb675ad1" x="398.26556" y="612" style="stroke: #000000; stroke-width: 0.8"/>
      </g>
     </g>
     <g id="text_30">
      <!-- 0.10 -->
      <g transform="translate(387.132748 626.598437) scale(0.1 -0.1)">
       <use xlink:href="#DejaVuSans-30"/>
       <use xlink:href="#DejaVuSans-2e" x="63.623047"/>
       <use xlink:href="#DejaVuSans-31" x="95.410156"/>
       <use xlink:href="#DejaVuSans-30" x="159.033203"/>
      </g>
     </g>
    </g>
    <g id="text_31">
     <!-- Codon+GC -->
     <g transform="translate(221.920871 640.276562) scale(0.1 -0.1)">
      <defs>
       <path id="DejaVuSans-47" d="M 3809 666 
L 3809 1919 
L 2778 1919 
L 2778 2438 
L 4434 2438 
L 4434 434 
Q 4069 175 3628 42 
Q 3188 -91 2688 -91 
Q 1594 -91 976 548 
Q 359 1188 359 2328 
Q 359 3472 976 4111 
Q 1594 4750 2688 4750 
Q 3144 4750 3555 4637 
Q 3966 4525 4313 4306 
L 4313 3634 
Q 3963 3931 3569 4081 
Q 3175 4231 2741 4231 
Q 1884 4231 1454 3753 
Q 1025 3275 1025 2328 
Q 1025 1384 1454 906 
Q 1884 428 2741 428 
Q 3075 428 3337 486 
Q 3600 544 3809 666 
z
" transform="scale(0.015625)"/>
      </defs>
      <use xlink:href="#DejaVuSans-43"/>
      <use xlink:href="#DejaVuSans-6f" x="69.824219"/>
      <use xlink:href="#DejaVuSans-64" x="131.005859"/>
      <use xlink:href="#DejaVuSans-6f" x="194.482422"/>
      <use xlink:href="#DejaVuSans-6e" x="255.664062"/>
      <use xlink:href="#DejaVuSans-2b" x="319.042969"/>
      <use xlink:href="#DejaVuSans-47" x="402.832031"/>
      <use xlink:href="#DejaVuSans-43" x="480.322266"/>
     </g>
    </g>
   </g>
   <g id="matplotlib.axis_6">
    <g id="ytick_13">
     <g id="line2d_30">
      <g>
       <use xlink:href="#m76fa5a367c" x="50.14375" y="574.937033" style="stroke: #000000; stroke-width: 0.8"/>
      </g>
     </g>
     <g id="text_32">
      <!-- 0.02 -->
      <g transform="translate(20.878125 578.736251) scale(0.1 -0.1)">
       <use xlink:href="#DejaVuSans-30"/>
       <use xlink:href="#DejaVuSans-2e" x="63.623047"/>
       <use xlink:href="#DejaVuSans-30" x="95.410156"/>
       <use xlink:href="#DejaVuSans-32" x="159.033203"/>
      </g>
     </g>
    </g>
    <g id="ytick_14">
     <g id="line2d_31">
      <g>
       <use xlink:href="#m76fa5a367c" x="50.14375" y="531.809299" style="stroke: #000000; stroke-width: 0.8"/>
      </g>
     </g>
     <g id="text_33">
      <!-- 0.04 -->
      <g transform="translate(20.878125 535.608518) scale(0.1 -0.1)">
       <use xlink:href="#DejaVuSans-30"/>
       <use xlink:href="#DejaVuSans-2e" x="63.623047"/>
       <use xlink:href="#DejaVuSans-30" x="95.410156"/>
       <use xlink:href="#DejaVuSans-34" x="159.033203"/>
      </g>
     </g>
    </g>
    <g id="ytick_15">
     <g id="line2d_32">
      <g>
       <use xlink:href="#m76fa5a367c" x="50.14375" y="488.681566" style="stroke: #000000; stroke-width: 0.8"/>
      </g>
     </g>
     <g id="text_34">
      <!-- 0.06 -->
      <g transform="translate(20.878125 492.480785) scale(0.1 -0.1)">
       <use xlink:href="#DejaVuSans-30"/>
       <use xlink:href="#DejaVuSans-2e" x="63.623047"/>
       <use xlink:href="#DejaVuSans-30" x="95.410156"/>
       <use xlink:href="#DejaVuSans-36" x="159.033203"/>
      </g>
     </g>
    </g>
    <g id="ytick_16">
     <g id="line2d_33">
      <g>
       <use xlink:href="#m76fa5a367c" x="50.14375" y="445.553833" style="stroke: #000000; stroke-width: 0.8"/>
      </g>
     </g>
     <g id="text_35">
      <!-- 0.08 -->
      <g transform="translate(20.878125 449.353051) scale(0.1 -0.1)">
       <use xlink:href="#DejaVuSans-30"/>
       <use xlink:href="#DejaVuSans-2e" x="63.623047"/>
       <use xlink:href="#DejaVuSans-30" x="95.410156"/>
       <use xlink:href="#DejaVuSans-38" x="159.033203"/>
      </g>
     </g>
    </g>
    <g id="ytick_17">
     <g id="line2d_34">
      <g>
       <use xlink:href="#m76fa5a367c" x="50.14375" y="402.426099" style="stroke: #000000; stroke-width: 0.8"/>
      </g>
     </g>
     <g id="text_36">
      <!-- 0.10 -->
      <g transform="translate(20.878125 406.225318) scale(0.1 -0.1)">
       <use xlink:href="#DejaVuSans-30"/>
       <use xlink:href="#DejaVuSans-2e" x="63.623047"/>
       <use xlink:href="#DejaVuSans-31" x="95.410156"/>
       <use xlink:href="#DejaVuSans-30" x="159.033203"/>
      </g>
     </g>
    </g>
    <g id="text_37">
     <!-- Amino acid frequency -->
     <g transform="translate(14.798438 540.539062) rotate(-90) scale(0.1 -0.1)">
      <use xlink:href="#DejaVuSans-41"/>
      <use xlink:href="#DejaVuSans-6d" x="68.408203"/>
      <use xlink:href="#DejaVuSans-69" x="165.820312"/>
      <use xlink:href="#DejaVuSans-6e" x="193.603516"/>
      <use xlink:href="#DejaVuSans-6f" x="256.982422"/>
      <use xlink:href="#DejaVuSans-20" x="318.164062"/>
      <use xlink:href="#DejaVuSans-61" x="349.951172"/>
      <use xlink:href="#DejaVuSans-63" x="411.230469"/>
      <use xlink:href="#DejaVuSans-69" x="466.210938"/>
      <use xlink:href="#DejaVuSans-64" x="493.994141"/>
      <use xlink:href="#DejaVuSans-20" x="557.470703"/>
      <use xlink:href="#DejaVuSans-66" x="589.257812"/>
      <use xlink:href="#DejaVuSans-72" x="624.462891"/>
      <use xlink:href="#DejaVuSans-65" x="663.326172"/>
      <use xlink:href="#DejaVuSans-71" x="724.849609"/>
      <use xlink:href="#DejaVuSans-75" x="788.326172"/>
      <use xlink:href="#DejaVuSans-65" x="851.705078"/>
      <use xlink:href="#DejaVuSans-6e" x="913.228516"/>
      <use xlink:href="#DejaVuSans-63" x="976.607422"/>
      <use xlink:href="#DejaVuSans-79" x="1031.587891"/>
     </g>
    </g>
   </g>
   <g id="line2d_35">
    <path d="M 68.260633 556.196954 
L 71.92061 554.873603 
L 75.580586 553.550252 
L 79.240562 552.226902 
L 82.900539 550.903551 
L 86.560515 549.5802 
L 90.220491 548.256849 
L 93.880468 546.933499 
L 97.540444 545.610148 
L 101.200421 544.286797 
L 104.860397 542.963446 
L 108.520373 541.640096 
L 112.18035 540.316745 
L 115.840326 538.993394 
L 119.500303 537.670043 
L 123.160279 536.346693 
L 126.820255 535.023342 
L 130.480232 533.699991 
L 134.140208 532.37664 
L 137.800184 531.05329 
L 141.460161 529.729939 
L 145.120137 528.406588 
L 148.780114 527.083237 
L 152.44009 525.759887 
L 156.100066 524.436536 
L 159.760043 523.113185 
L 163.420019 521.789834 
L 167.079996 520.466484 
L 170.739972 519.143133 
L 174.399948 517.819782 
L 178.059925 516.496431 
L 181.719901 515.173081 
L 185.379878 513.84973 
L 189.039854 512.526379 
L 192.69983 511.203028 
L 196.359807 509.879678 
L 200.019783 508.556327 
L 203.679759 507.232976 
L 207.339736 505.909625 
L 210.999712 504.586275 
L 214.659689 503.262924 
L 218.319665 501.939573 
L 221.979641 500.616222 
L 225.639618 499.292872 
L 229.299594 497.969521 
L 232.959571 496.64617 
L 236.619547 495.322819 
L 240.279523 493.999469 
L 243.9395 492.676118 
L 247.599476 491.352767 
L 251.259452 490.029416 
L 254.919429 488.706066 
L 258.579405 487.382715 
L 262.239382 486.059364 
L 265.899358 484.736013 
L 269.559334 483.412663 
L 273.219311 482.089312 
L 276.879287 480.765961 
L 280.539264 479.44261 
L 284.19924 478.11926 
L 287.859216 476.795909 
L 291.519193 475.472558 
L 295.179169 474.149207 
L 298.839146 472.825857 
L 302.499122 471.502506 
L 306.159098 470.179155 
L 309.819075 468.855804 
L 313.479051 467.532454 
L 317.139027 466.209103 
L 320.799004 464.885752 
L 324.45898 463.562401 
L 328.118957 462.239051 
L 331.778933 460.9157 
L 335.438909 459.592349 
L 339.098886 458.268998 
L 342.758862 456.945648 
L 346.418839 455.622297 
L 350.078815 454.298946 
L 353.738791 452.975595 
L 357.398768 451.652245 
L 361.058744 450.328894 
L 364.71872 449.005543 
L 368.378697 447.682192 
L 372.038673 446.358842 
L 375.69865 445.035491 
L 379.358626 443.71214 
L 383.018602 442.388789 
L 386.678579 441.065439 
L 390.338555 439.742088 
L 393.998532 438.418737 
L 397.658508 437.095386 
L 401.318484 435.772036 
L 404.978461 434.448685 
L 408.638437 433.125334 
L 412.298414 431.801983 
L 415.95839 430.478633 
L 419.618366 429.155282 
L 423.278343 427.831931 
L 426.938319 426.50858 
L 430.598295 425.18523 
" clip-path="url(#p4c6fdfec0f)" style="fill: none; stroke: #ffa500; stroke-width: 2.25; stroke-linecap: square"/>
   </g>
   <g id="patch_13">
    <path d="M 50.14375 612 
L 50.14375 360 
" style="fill: none; stroke: #000000; stroke-width: 0.8; stroke-linejoin: miter; stroke-linecap: square"/>
   </g>
   <g id="patch_14">
    <path d="M 448.715179 612 
L 448.715179 360 
" style="fill: none; stroke: #000000; stroke-width: 0.8; stroke-linejoin: miter; stroke-linecap: square"/>
   </g>
   <g id="patch_15">
    <path d="M 50.14375 612 
L 448.715179 612 
" style="fill: none; stroke: #000000; stroke-width: 0.8; stroke-linejoin: miter; stroke-linecap: square"/>
   </g>
   <g id="patch_16">
    <path d="M 50.14375 360 
L 448.715179 360 
" style="fill: none; stroke: #000000; stroke-width: 0.8; stroke-linejoin: miter; stroke-linecap: square"/>
   </g>
  </g>
  <g id="axes_4">
   <g id="patch_17">
    <path d="M 488.572321 612 
L 887.14375 612 
L 887.14375 360 
L 488.572321 360 
z
" style="fill: #ffffff"/>
   </g>
   <g id="PathCollection_4">
    <g clip-path="url(#p26d56b2a50)">
     <use xlink:href="#mbc2bf44bda" x="508.568197" y="565.541318" style="fill: #1f77b4; fill-opacity: 0.8; stroke: #1f77b4; stroke-opacity: 0.8"/>
     <use xlink:href="#mbc2bf44bda" x="506.689205" y="600.545455" style="fill: #1f77b4; fill-opacity: 0.8; stroke: #1f77b4; stroke-opacity: 0.8"/>
     <use xlink:href="#mbc2bf44bda" x="565.142374" y="596.233502" style="fill: #1f77b4; fill-opacity: 0.8; stroke: #1f77b4; stroke-opacity: 0.8"/>
     <use xlink:href="#mbc2bf44bda" x="565.142374" y="488.666743" style="fill: #1f77b4; fill-opacity: 0.8; stroke: #1f77b4; stroke-opacity: 0.8"/>
     <use xlink:href="#mbc2bf44bda" x="565.142374" y="450.266113" style="fill: #1f77b4; fill-opacity: 0.8; stroke: #1f77b4; stroke-opacity: 0.8"/>
     <use xlink:href="#mbc2bf44bda" x="580.519004" y="553.528199" style="fill: #1f77b4; fill-opacity: 0.8; stroke: #1f77b4; stroke-opacity: 0.8"/>
     <use xlink:href="#mbc2bf44bda" x="565.142374" y="579.12458" style="fill: #1f77b4; fill-opacity: 0.8; stroke: #1f77b4; stroke-opacity: 0.8"/>
     <use xlink:href="#mbc2bf44bda" x="580.519004" y="483.256725" style="fill: #1f77b4; fill-opacity: 0.8; stroke: #1f77b4; stroke-opacity: 0.8"/>
     <use xlink:href="#mbc2bf44bda" x="580.519004" y="547.443382" style="fill: #1f77b4; fill-opacity: 0.8; stroke: #1f77b4; stroke-opacity: 0.8"/>
     <use xlink:href="#mbc2bf44bda" x="565.142374" y="571.034676" style="fill: #1f77b4; fill-opacity: 0.8; stroke: #1f77b4; stroke-opacity: 0.8"/>
     <use xlink:href="#mbc2bf44bda" x="580.519004" y="548.866569" style="fill: #1f77b4; fill-opacity: 0.8; stroke: #1f77b4; stroke-opacity: 0.8"/>
     <use xlink:href="#mbc2bf44bda" x="652.469811" y="463.220023" style="fill: #1f77b4; fill-opacity: 0.8; stroke: #1f77b4; stroke-opacity: 0.8"/>
     <use xlink:href="#mbc2bf44bda" x="693.285805" y="465.150247" style="fill: #1f77b4; fill-opacity: 0.8; stroke: #1f77b4; stroke-opacity: 0.8"/>
     <use xlink:href="#mbc2bf44bda" x="693.285805" y="459.363537" style="fill: #1f77b4; fill-opacity: 0.8; stroke: #1f77b4; stroke-opacity: 0.8"/>
     <use xlink:href="#mbc2bf44bda" x="693.285805" y="530.047501" style="fill: #1f77b4; fill-opacity: 0.8; stroke: #1f77b4; stroke-opacity: 0.8"/>
     <use xlink:href="#mbc2bf44bda" x="680.169721" y="517.984406" style="fill: #1f77b4; fill-opacity: 0.8; stroke: #1f77b4; stroke-opacity: 0.8"/>
     <use xlink:href="#mbc2bf44bda" x="680.169721" y="440.750056" style="fill: #1f77b4; fill-opacity: 0.8; stroke: #1f77b4; stroke-opacity: 0.8"/>
     <use xlink:href="#mbc2bf44bda" x="869.026867" y="436.676182" style="fill: #1f77b4; fill-opacity: 0.8; stroke: #1f77b4; stroke-opacity: 0.8"/>
     <use xlink:href="#mbc2bf44bda" x="808.313152" y="492.054373" style="fill: #1f77b4; fill-opacity: 0.8; stroke: #1f77b4; stroke-opacity: 0.8"/>
     <use xlink:href="#mbc2bf44bda" x="736.743898" y="504.589792" style="fill: #1f77b4; fill-opacity: 0.8; stroke: #1f77b4; stroke-opacity: 0.8"/>
    </g>
   </g>
   <g id="PolyCollection_4">
    <path d="M 506.689205 523.542496 
L 506.689205 588.428143 
L 510.349181 586.672196 
L 514.009157 584.397401 
L 517.669134 582.115976 
L 521.32911 580.455021 
L 524.989086 578.805418 
L 528.649063 577.306562 
L 532.309039 574.969913 
L 535.969016 573.241956 
L 539.628992 571.433228 
L 543.288968 569.960431 
L 546.948945 568.329543 
L 550.608921 566.879819 
L 554.268898 565.332982 
L 557.928874 563.825675 
L 561.58885 562.227846 
L 565.248827 560.616213 
L 568.908803 558.88381 
L 572.56878 557.202991 
L 576.228756 555.841173 
L 579.888732 554.424192 
L 583.548709 552.68169 
L 587.208685 551.223797 
L 590.868661 549.765259 
L 594.528638 547.992778 
L 598.188614 546.260232 
L 601.848591 544.668318 
L 605.508567 543.227397 
L 609.168543 541.813968 
L 612.82852 540.362776 
L 616.488496 538.907327 
L 620.148473 537.529768 
L 623.808449 536.433882 
L 627.468425 535.076272 
L 631.128402 533.426629 
L 634.788378 531.952685 
L 638.448354 530.808708 
L 642.108331 529.388839 
L 645.768307 527.900193 
L 649.428284 526.482622 
L 653.08826 525.035655 
L 656.748236 523.575837 
L 660.408213 522.210838 
L 664.068189 520.909105 
L 667.728166 520.102988 
L 671.388142 518.764496 
L 675.048118 517.443067 
L 678.708095 516.140884 
L 682.368071 514.993707 
L 686.028048 513.836183 
L 689.688024 512.698986 
L 693.348 511.744382 
L 697.007977 510.785298 
L 700.667953 509.70017 
L 704.327929 508.343285 
L 707.987906 506.996943 
L 711.647882 505.81797 
L 715.307859 504.96651 
L 718.967835 503.753728 
L 722.627811 502.599787 
L 726.287788 501.73675 
L 729.947764 500.674138 
L 733.607741 499.477597 
L 737.267717 498.422934 
L 740.927693 497.291389 
L 744.58767 496.376775 
L 748.247646 495.284361 
L 751.907622 494.304393 
L 755.567599 493.4625 
L 759.227575 492.615611 
L 762.887552 491.770999 
L 766.547528 490.925712 
L 770.207504 489.919835 
L 773.867481 488.851846 
L 777.527457 487.99133 
L 781.187434 487.334335 
L 784.84741 486.403242 
L 788.507386 485.353926 
L 792.167363 484.866401 
L 795.827339 484.158559 
L 799.487316 483.313085 
L 803.147292 482.468579 
L 806.807268 481.625601 
L 810.467245 480.724654 
L 814.127221 479.854911 
L 817.787197 479.085477 
L 821.447174 478.323372 
L 825.10715 477.609134 
L 828.767127 476.918036 
L 832.427103 475.864984 
L 836.087079 474.982682 
L 839.747056 474.447905 
L 843.407032 473.913127 
L 847.067009 473.376712 
L 850.726985 472.436413 
L 854.386961 471.717928 
L 858.046938 471.223312 
L 861.706914 470.694853 
L 865.36689 469.805524 
L 869.026867 468.91459 
L 869.026867 371.454545 
L 869.026867 371.454545 
L 865.36689 373.572958 
L 861.706914 375.691371 
L 858.046938 377.809784 
L 854.386961 379.928197 
L 850.726985 382.04661 
L 847.067009 384.165023 
L 843.407032 386.283436 
L 839.747056 388.301252 
L 836.087079 390.317207 
L 832.427103 392.333163 
L 828.767127 394.349119 
L 825.10715 396.365075 
L 821.447174 398.381031 
L 817.787197 400.396987 
L 814.127221 402.412942 
L 810.467245 404.428898 
L 806.807268 406.484636 
L 803.147292 408.559985 
L 799.487316 410.635333 
L 795.827339 412.710682 
L 792.167363 414.786031 
L 788.507386 416.86138 
L 784.84741 418.936728 
L 781.187434 420.80073 
L 777.527457 422.576392 
L 773.867481 424.595478 
L 770.207504 426.784137 
L 766.547528 428.972924 
L 762.887552 431.169205 
L 759.227575 433.365486 
L 755.567599 435.562428 
L 751.907622 437.751924 
L 748.247646 439.942146 
L 744.58767 441.900511 
L 740.927693 443.865803 
L 737.267717 445.935673 
L 733.607741 448.005542 
L 729.947764 450.075412 
L 726.287788 451.814696 
L 722.627811 453.457745 
L 718.967835 455.103247 
L 715.307859 456.92392 
L 711.647882 458.971653 
L 707.987906 461.02336 
L 704.327929 463.359527 
L 700.667953 465.732262 
L 697.007977 468.104997 
L 693.348 470.477732 
L 689.688024 472.66705 
L 686.028048 474.612901 
L 682.368071 476.457753 
L 678.708095 477.85349 
L 675.048118 479.813742 
L 671.388142 481.447499 
L 667.728166 483.039537 
L 664.068189 484.492527 
L 660.408213 485.58067 
L 656.748236 487.263178 
L 653.08826 488.944977 
L 649.428284 490.179333 
L 645.768307 491.796004 
L 642.108331 493.174351 
L 638.448354 494.445535 
L 634.788378 495.866016 
L 631.128402 497.338052 
L 627.468425 498.387555 
L 623.808449 499.422879 
L 620.148473 500.282038 
L 616.488496 501.302415 
L 612.82852 502.527751 
L 609.168543 503.441392 
L 605.508567 504.269226 
L 601.848591 505.178021 
L 598.188614 505.972223 
L 594.528638 506.71132 
L 590.868661 507.599627 
L 587.208685 508.36701 
L 583.548709 509.132945 
L 579.888732 509.722762 
L 576.228756 510.524932 
L 572.56878 511.142406 
L 568.908803 511.645336 
L 565.248827 512.208284 
L 561.58885 512.77224 
L 557.928874 513.344174 
L 554.268898 513.957254 
L 550.608921 514.740729 
L 546.948945 515.466755 
L 543.288968 516.217559 
L 539.628992 516.971889 
L 535.969016 517.525863 
L 532.309039 518.384257 
L 528.649063 519.231747 
L 524.989086 519.986142 
L 521.32911 520.606397 
L 517.669134 521.180324 
L 514.009157 521.912081 
L 510.349181 522.78424 
L 506.689205 523.542496 
z
" clip-path="url(#p26d56b2a50)" style="fill: #ffa500; fill-opacity: 0.15"/>
   </g>
   <g id="matplotlib.axis_7">
    <g id="xtick_16">
     <g id="line2d_36">
      <g>
       <use xlink:href="#macdb675ad1" x="523.464934" y="612" style="stroke: #000000; stroke-width: 0.8"/>
      </g>
     </g>
     <g id="text_38">
      <!-- 0.02 -->
      <g transform="translate(512.332121 626.598437) scale(0.1 -0.1)">
       <use xlink:href="#DejaVuSans-30"/>
       <use xlink:href="#DejaVuSans-2e" x="63.623047"/>
       <use xlink:href="#DejaVuSans-30" x="95.410156"/>
       <use xlink:href="#DejaVuSans-32" x="159.033203"/>
      </g>
     </g>
    </g>
    <g id="xtick_17">
     <g id="line2d_37">
      <g>
       <use xlink:href="#macdb675ad1" x="596.81484" y="612" style="stroke: #000000; stroke-width: 0.8"/>
      </g>
     </g>
     <g id="text_39">
      <!-- 0.04 -->
      <g transform="translate(585.682028 626.598437) scale(0.1 -0.1)">
       <use xlink:href="#DejaVuSans-30"/>
       <use xlink:href="#DejaVuSans-2e" x="63.623047"/>
       <use xlink:href="#DejaVuSans-30" x="95.410156"/>
       <use xlink:href="#DejaVuSans-34" x="159.033203"/>
      </g>
     </g>
    </g>
    <g id="xtick_18">
     <g id="line2d_38">
      <g>
       <use xlink:href="#macdb675ad1" x="670.164747" y="612" style="stroke: #000000; stroke-width: 0.8"/>
      </g>
     </g>
     <g id="text_40">
      <!-- 0.06 -->
      <g transform="translate(659.031934 626.598437) scale(0.1 -0.1)">
       <use xlink:href="#DejaVuSans-30"/>
       <use xlink:href="#DejaVuSans-2e" x="63.623047"/>
       <use xlink:href="#DejaVuSans-30" x="95.410156"/>
       <use xlink:href="#DejaVuSans-36" x="159.033203"/>
      </g>
     </g>
    </g>
    <g id="xtick_19">
     <g id="line2d_39">
      <g>
       <use xlink:href="#macdb675ad1" x="743.514654" y="612" style="stroke: #000000; stroke-width: 0.8"/>
      </g>
     </g>
     <g id="text_41">
      <!-- 0.08 -->
      <g transform="translate(732.381841 626.598437) scale(0.1 -0.1)">
       <use xlink:href="#DejaVuSans-30"/>
       <use xlink:href="#DejaVuSans-2e" x="63.623047"/>
       <use xlink:href="#DejaVuSans-30" x="95.410156"/>
       <use xlink:href="#DejaVuSans-38" x="159.033203"/>
      </g>
     </g>
    </g>
    <g id="xtick_20">
     <g id="line2d_40">
      <g>
       <use xlink:href="#macdb675ad1" x="816.86456" y="612" style="stroke: #000000; stroke-width: 0.8"/>
      </g>
     </g>
     <g id="text_42">
      <!-- 0.10 -->
      <g transform="translate(805.731748 626.598437) scale(0.1 -0.1)">
       <use xlink:href="#DejaVuSans-30"/>
       <use xlink:href="#DejaVuSans-2e" x="63.623047"/>
       <use xlink:href="#DejaVuSans-31" x="95.410156"/>
       <use xlink:href="#DejaVuSans-30" x="159.033203"/>
      </g>
     </g>
    </g>
    <g id="text_43">
     <!-- Codon+GC+Cost -->
     <g transform="translate(645.043973 640.276562) scale(0.1 -0.1)">
      <use xlink:href="#DejaVuSans-43"/>
      <use xlink:href="#DejaVuSans-6f" x="69.824219"/>
      <use xlink:href="#DejaVuSans-64" x="131.005859"/>
      <use xlink:href="#DejaVuSans-6f" x="194.482422"/>
      <use xlink:href="#DejaVuSans-6e" x="255.664062"/>
      <use xlink:href="#DejaVuSans-2b" x="319.042969"/>
      <use xlink:href="#DejaVuSans-47" x="402.832031"/>
      <use xlink:href="#DejaVuSans-43" x="480.322266"/>
      <use xlink:href="#DejaVuSans-2b" x="550.146484"/>
      <use xlink:href="#DejaVuSans-43" x="633.935547"/>
      <use xlink:href="#DejaVuSans-6f" x="703.759766"/>
      <use xlink:href="#DejaVuSans-73" x="764.941406"/>
      <use xlink:href="#DejaVuSans-74" x="817.041016"/>
     </g>
    </g>
   </g>
   <g id="matplotlib.axis_8">
    <g id="ytick_18">
     <g id="line2d_41">
      <g>
       <use xlink:href="#m76fa5a367c" x="488.572321" y="576.205184" style="stroke: #000000; stroke-width: 0.8"/>
      </g>
     </g>
     <g id="text_44">
      <!-- 0.02 -->
      <g transform="translate(459.306696 580.004403) scale(0.1 -0.1)">
       <use xlink:href="#DejaVuSans-30"/>
       <use xlink:href="#DejaVuSans-2e" x="63.623047"/>
       <use xlink:href="#DejaVuSans-30" x="95.410156"/>
       <use xlink:href="#DejaVuSans-32" x="159.033203"/>
      </g>
     </g>
    </g>
    <g id="ytick_19">
     <g id="line2d_42">
      <g>
       <use xlink:href="#m76fa5a367c" x="488.572321" y="535.213174" style="stroke: #000000; stroke-width: 0.8"/>
      </g>
     </g>
     <g id="text_45">
      <!-- 0.04 -->
      <g transform="translate(459.306696 539.012393) scale(0.1 -0.1)">
       <use xlink:href="#DejaVuSans-30"/>
       <use xlink:href="#DejaVuSans-2e" x="63.623047"/>
       <use xlink:href="#DejaVuSans-30" x="95.410156"/>
       <use xlink:href="#DejaVuSans-34" x="159.033203"/>
      </g>
     </g>
    </g>
    <g id="ytick_20">
     <g id="line2d_43">
      <g>
       <use xlink:href="#m76fa5a367c" x="488.572321" y="494.221164" style="stroke: #000000; stroke-width: 0.8"/>
      </g>
     </g>
     <g id="text_46">
      <!-- 0.06 -->
      <g transform="translate(459.306696 498.020382) scale(0.1 -0.1)">
       <use xlink:href="#DejaVuSans-30"/>
       <use xlink:href="#DejaVuSans-2e" x="63.623047"/>
       <use xlink:href="#DejaVuSans-30" x="95.410156"/>
       <use xlink:href="#DejaVuSans-36" x="159.033203"/>
      </g>
     </g>
    </g>
    <g id="ytick_21">
     <g id="line2d_44">
      <g>
       <use xlink:href="#m76fa5a367c" x="488.572321" y="453.229153" style="stroke: #000000; stroke-width: 0.8"/>
      </g>
     </g>
     <g id="text_47">
      <!-- 0.08 -->
      <g transform="translate(459.306696 457.028372) scale(0.1 -0.1)">
       <use xlink:href="#DejaVuSans-30"/>
       <use xlink:href="#DejaVuSans-2e" x="63.623047"/>
       <use xlink:href="#DejaVuSans-30" x="95.410156"/>
       <use xlink:href="#DejaVuSans-38" x="159.033203"/>
      </g>
     </g>
    </g>
    <g id="ytick_22">
     <g id="line2d_45">
      <g>
       <use xlink:href="#m76fa5a367c" x="488.572321" y="412.237143" style="stroke: #000000; stroke-width: 0.8"/>
      </g>
     </g>
     <g id="text_48">
      <!-- 0.10 -->
      <g transform="translate(459.306696 416.036362) scale(0.1 -0.1)">
       <use xlink:href="#DejaVuSans-30"/>
       <use xlink:href="#DejaVuSans-2e" x="63.623047"/>
       <use xlink:href="#DejaVuSans-31" x="95.410156"/>
       <use xlink:href="#DejaVuSans-30" x="159.033203"/>
      </g>
     </g>
    </g>
    <g id="ytick_23">
     <g id="line2d_46">
      <g>
       <use xlink:href="#m76fa5a367c" x="488.572321" y="371.245133" style="stroke: #000000; stroke-width: 0.8"/>
      </g>
     </g>
     <g id="text_49">
      <!-- 0.12 -->
      <g transform="translate(459.306696 375.044352) scale(0.1 -0.1)">
       <use xlink:href="#DejaVuSans-30"/>
       <use xlink:href="#DejaVuSans-2e" x="63.623047"/>
       <use xlink:href="#DejaVuSans-31" x="95.410156"/>
       <use xlink:href="#DejaVuSans-32" x="159.033203"/>
      </g>
     </g>
    </g>
   </g>
   <g id="line2d_47">
    <path d="M 506.689205 558.65748 
L 510.349181 557.389186 
L 514.009157 556.120891 
L 517.669134 554.852597 
L 521.32911 553.584302 
L 524.989086 552.316007 
L 528.649063 551.047713 
L 532.309039 549.779418 
L 535.969016 548.511124 
L 539.628992 547.242829 
L 543.288968 545.974534 
L 546.948945 544.70624 
L 550.608921 543.437945 
L 554.268898 542.169651 
L 557.928874 540.901356 
L 561.58885 539.633061 
L 565.248827 538.364767 
L 568.908803 537.096472 
L 572.56878 535.828177 
L 576.228756 534.559883 
L 579.888732 533.291588 
L 583.548709 532.023294 
L 587.208685 530.754999 
L 590.868661 529.486704 
L 594.528638 528.21841 
L 598.188614 526.950115 
L 601.848591 525.681821 
L 605.508567 524.413526 
L 609.168543 523.145231 
L 612.82852 521.876937 
L 616.488496 520.608642 
L 620.148473 519.340348 
L 623.808449 518.072053 
L 627.468425 516.803758 
L 631.128402 515.535464 
L 634.788378 514.267169 
L 638.448354 512.998875 
L 642.108331 511.73058 
L 645.768307 510.462285 
L 649.428284 509.193991 
L 653.08826 507.925696 
L 656.748236 506.657402 
L 660.408213 505.389107 
L 664.068189 504.120812 
L 667.728166 502.852518 
L 671.388142 501.584223 
L 675.048118 500.315929 
L 678.708095 499.047634 
L 682.368071 497.779339 
L 686.028048 496.511045 
L 689.688024 495.24275 
L 693.348 493.974456 
L 697.007977 492.706161 
L 700.667953 491.437866 
L 704.327929 490.169572 
L 707.987906 488.901277 
L 711.647882 487.632983 
L 715.307859 486.364688 
L 718.967835 485.096393 
L 722.627811 483.828099 
L 726.287788 482.559804 
L 729.947764 481.29151 
L 733.607741 480.023215 
L 737.267717 478.75492 
L 740.927693 477.486626 
L 744.58767 476.218331 
L 748.247646 474.950036 
L 751.907622 473.681742 
L 755.567599 472.413447 
L 759.227575 471.145153 
L 762.887552 469.876858 
L 766.547528 468.608563 
L 770.207504 467.340269 
L 773.867481 466.071974 
L 777.527457 464.80368 
L 781.187434 463.535385 
L 784.84741 462.26709 
L 788.507386 460.998796 
L 792.167363 459.730501 
L 795.827339 458.462207 
L 799.487316 457.193912 
L 803.147292 455.925617 
L 806.807268 454.657323 
L 810.467245 453.389028 
L 814.127221 452.120734 
L 817.787197 450.852439 
L 821.447174 449.584144 
L 825.10715 448.31585 
L 828.767127 447.047555 
L 832.427103 445.779261 
L 836.087079 444.510966 
L 839.747056 443.242671 
L 843.407032 441.974377 
L 847.067009 440.706082 
L 850.726985 439.437788 
L 854.386961 438.169493 
L 858.046938 436.901198 
L 861.706914 435.632904 
L 865.36689 434.364609 
L 869.026867 433.096315 
" clip-path="url(#p26d56b2a50)" style="fill: none; stroke: #ffa500; stroke-width: 2.25; stroke-linecap: square"/>
   </g>
   <g id="patch_18">
    <path d="M 488.572321 612 
L 488.572321 360 
" style="fill: none; stroke: #000000; stroke-width: 0.8; stroke-linejoin: miter; stroke-linecap: square"/>
   </g>
   <g id="patch_19">
    <path d="M 887.14375 612 
L 887.14375 360 
" style="fill: none; stroke: #000000; stroke-width: 0.8; stroke-linejoin: miter; stroke-linecap: square"/>
   </g>
   <g id="patch_20">
    <path d="M 488.572321 612 
L 887.14375 612 
" style="fill: none; stroke: #000000; stroke-width: 0.8; stroke-linejoin: miter; stroke-linecap: square"/>
   </g>
   <g id="patch_21">
    <path d="M 488.572321 360 
L 887.14375 360 
" style="fill: none; stroke: #000000; stroke-width: 0.8; stroke-linejoin: miter; stroke-linecap: square"/>
   </g>
  </g>
  <g id="text_50">
   <!-- Archaea - Comparison between amino acid and factor frequencies for genetic code: Scenedesmus -->
   <g transform="translate(86.074609 18.597656) scale(0.15 -0.15)">
    <defs>
     <path id="DejaVuSans-68" d="M 3513 2113 
L 3513 0 
L 2938 0 
L 2938 2094 
Q 2938 2591 2744 2837 
Q 2550 3084 2163 3084 
Q 1697 3084 1428 2787 
Q 1159 2491 1159 1978 
L 1159 0 
L 581 0 
L 581 4863 
L 1159 4863 
L 1159 2956 
Q 1366 3272 1645 3428 
Q 1925 3584 2291 3584 
Q 2894 3584 3203 3211 
Q 3513 2838 3513 2113 
z
" transform="scale(0.015625)"/>
     <path id="DejaVuSans-2d" d="M 313 2009 
L 1997 2009 
L 1997 1497 
L 313 1497 
L 313 2009 
z
" transform="scale(0.015625)"/>
     <path id="DejaVuSans-70" d="M 1159 525 
L 1159 -1331 
L 581 -1331 
L 581 3500 
L 1159 3500 
L 1159 2969 
Q 1341 3281 1617 3432 
Q 1894 3584 2278 3584 
Q 2916 3584 3314 3078 
Q 3713 2572 3713 1747 
Q 3713 922 3314 415 
Q 2916 -91 2278 -91 
Q 1894 -91 1617 61 
Q 1341 213 1159 525 
z
M 3116 1747 
Q 3116 2381 2855 2742 
Q 2594 3103 2138 3103 
Q 1681 3103 1420 2742 
Q 1159 2381 1159 1747 
Q 1159 1113 1420 752 
Q 1681 391 2138 391 
Q 2594 391 2855 752 
Q 3116 1113 3116 1747 
z
" transform="scale(0.015625)"/>
     <path id="DejaVuSans-62" d="M 3116 1747 
Q 3116 2381 2855 2742 
Q 2594 3103 2138 3103 
Q 1681 3103 1420 2742 
Q 1159 2381 1159 1747 
Q 1159 1113 1420 752 
Q 1681 391 2138 391 
Q 2594 391 2855 752 
Q 3116 1113 3116 1747 
z
M 1159 2969 
Q 1341 3281 1617 3432 
Q 1894 3584 2278 3584 
Q 2916 3584 3314 3078 
Q 3713 2572 3713 1747 
Q 3713 922 3314 415 
Q 2916 -91 2278 -91 
Q 1894 -91 1617 61 
Q 1341 213 1159 525 
L 1159 0 
L 581 0 
L 581 4863 
L 1159 4863 
L 1159 2969 
z
" transform="scale(0.015625)"/>
     <path id="DejaVuSans-77" d="M 269 3500 
L 844 3500 
L 1563 769 
L 2278 3500 
L 2956 3500 
L 3675 769 
L 4391 3500 
L 4966 3500 
L 4050 0 
L 3372 0 
L 2619 2869 
L 1863 0 
L 1184 0 
L 269 3500 
z
" transform="scale(0.015625)"/>
     <path id="DejaVuSans-67" d="M 2906 1791 
Q 2906 2416 2648 2759 
Q 2391 3103 1925 3103 
Q 1463 3103 1205 2759 
Q 947 2416 947 1791 
Q 947 1169 1205 825 
Q 1463 481 1925 481 
Q 2391 481 2648 825 
Q 2906 1169 2906 1791 
z
M 3481 434 
Q 3481 -459 3084 -895 
Q 2688 -1331 1869 -1331 
Q 1566 -1331 1297 -1286 
Q 1028 -1241 775 -1147 
L 775 -588 
Q 1028 -725 1275 -790 
Q 1522 -856 1778 -856 
Q 2344 -856 2625 -561 
Q 2906 -266 2906 331 
L 2906 616 
Q 2728 306 2450 153 
Q 2172 0 1784 0 
Q 1141 0 747 490 
Q 353 981 353 1791 
Q 353 2603 747 3093 
Q 1141 3584 1784 3584 
Q 2172 3584 2450 3431 
Q 2728 3278 2906 2969 
L 2906 3500 
L 3481 3500 
L 3481 434 
z
" transform="scale(0.015625)"/>
     <path id="DejaVuSans-3a" d="M 750 794 
L 1409 794 
L 1409 0 
L 750 0 
L 750 794 
z
M 750 3309 
L 1409 3309 
L 1409 2516 
L 750 2516 
L 750 3309 
z
" transform="scale(0.015625)"/>
     <path id="DejaVuSans-53" d="M 3425 4513 
L 3425 3897 
Q 3066 4069 2747 4153 
Q 2428 4238 2131 4238 
Q 1616 4238 1336 4038 
Q 1056 3838 1056 3469 
Q 1056 3159 1242 3001 
Q 1428 2844 1947 2747 
L 2328 2669 
Q 3034 2534 3370 2195 
Q 3706 1856 3706 1288 
Q 3706 609 3251 259 
Q 2797 -91 1919 -91 
Q 1588 -91 1214 -16 
Q 841 59 441 206 
L 441 856 
Q 825 641 1194 531 
Q 1563 422 1919 422 
Q 2459 422 2753 634 
Q 3047 847 3047 1241 
Q 3047 1584 2836 1778 
Q 2625 1972 2144 2069 
L 1759 2144 
Q 1053 2284 737 2584 
Q 422 2884 422 3419 
Q 422 4038 858 4394 
Q 1294 4750 2059 4750 
Q 2388 4750 2728 4690 
Q 3069 4631 3425 4513 
z
" transform="scale(0.015625)"/>
    </defs>
    <use xlink:href="#DejaVuSans-41"/>
    <use xlink:href="#DejaVuSans-72" x="68.408203"/>
    <use xlink:href="#DejaVuSans-63" x="107.271484"/>
    <use xlink:href="#DejaVuSans-68" x="162.251953"/>
    <use xlink:href="#DejaVuSans-61" x="225.630859"/>
    <use xlink:href="#DejaVuSans-65" x="286.910156"/>
    <use xlink:href="#DejaVuSans-61" x="348.433594"/>
    <use xlink:href="#DejaVuSans-20" x="409.712891"/>
    <use xlink:href="#DejaVuSans-2d" x="441.5"/>
    <use xlink:href="#DejaVuSans-20" x="477.583984"/>
    <use xlink:href="#DejaVuSans-43" x="509.371094"/>
    <use xlink:href="#DejaVuSans-6f" x="579.195312"/>
    <use xlink:href="#DejaVuSans-6d" x="640.376953"/>
    <use xlink:href="#DejaVuSans-70" x="737.789062"/>
    <use xlink:href="#DejaVuSans-61" x="801.265625"/>
    <use xlink:href="#DejaVuSans-72" x="862.544922"/>
    <use xlink:href="#DejaVuSans-69" x="903.658203"/>
    <use xlink:href="#DejaVuSans-73" x="931.441406"/>
    <use xlink:href="#DejaVuSans-6f" x="983.541016"/>
    <use xlink:href="#DejaVuSans-6e" x="1044.722656"/>
    <use xlink:href="#DejaVuSans-20" x="1108.101562"/>
    <use xlink:href="#DejaVuSans-62" x="1139.888672"/>
    <use xlink:href="#DejaVuSans-65" x="1203.365234"/>
    <use xlink:href="#DejaVuSans-74" x="1264.888672"/>
    <use xlink:href="#DejaVuSans-77" x="1304.097656"/>
    <use xlink:href="#DejaVuSans-65" x="1385.884766"/>
    <use xlink:href="#DejaVuSans-65" x="1447.408203"/>
    <use xlink:href="#DejaVuSans-6e" x="1508.931641"/>
    <use xlink:href="#DejaVuSans-20" x="1572.310547"/>
    <use xlink:href="#DejaVuSans-61" x="1604.097656"/>
    <use xlink:href="#DejaVuSans-6d" x="1665.376953"/>
    <use xlink:href="#DejaVuSans-69" x="1762.789062"/>
    <use xlink:href="#DejaVuSans-6e" x="1790.572266"/>
    <use xlink:href="#DejaVuSans-6f" x="1853.951172"/>
    <use xlink:href="#DejaVuSans-20" x="1915.132812"/>
    <use xlink:href="#DejaVuSans-61" x="1946.919922"/>
    <use xlink:href="#DejaVuSans-63" x="2008.199219"/>
    <use xlink:href="#DejaVuSans-69" x="2063.179688"/>
    <use xlink:href="#DejaVuSans-64" x="2090.962891"/>
    <use xlink:href="#DejaVuSans-20" x="2154.439453"/>
    <use xlink:href="#DejaVuSans-61" x="2186.226562"/>
    <use xlink:href="#DejaVuSans-6e" x="2247.505859"/>
    <use xlink:href="#DejaVuSans-64" x="2310.884766"/>
    <use xlink:href="#DejaVuSans-20" x="2374.361328"/>
    <use xlink:href="#DejaVuSans-66" x="2406.148438"/>
    <use xlink:href="#DejaVuSans-61" x="2441.353516"/>
    <use xlink:href="#DejaVuSans-63" x="2502.632812"/>
    <use xlink:href="#DejaVuSans-74" x="2557.613281"/>
    <use xlink:href="#DejaVuSans-6f" x="2596.822266"/>
    <use xlink:href="#DejaVuSans-72" x="2658.003906"/>
    <use xlink:href="#DejaVuSans-20" x="2699.117188"/>
    <use xlink:href="#DejaVuSans-66" x="2730.904297"/>
    <use xlink:href="#DejaVuSans-72" x="2766.109375"/>
    <use xlink:href="#DejaVuSans-65" x="2804.972656"/>
    <use xlink:href="#DejaVuSans-71" x="2866.496094"/>
    <use xlink:href="#DejaVuSans-75" x="2929.972656"/>
    <use xlink:href="#DejaVuSans-65" x="2993.351562"/>
    <use xlink:href="#DejaVuSans-6e" x="3054.875"/>
    <use xlink:href="#DejaVuSans-63" x="3118.253906"/>
    <use xlink:href="#DejaVuSans-69" x="3173.234375"/>
    <use xlink:href="#DejaVuSans-65" x="3201.017578"/>
    <use xlink:href="#DejaVuSans-73" x="3262.541016"/>
    <use xlink:href="#DejaVuSans-20" x="3314.640625"/>
    <use xlink:href="#DejaVuSans-66" x="3346.427734"/>
    <use xlink:href="#DejaVuSans-6f" x="3381.632812"/>
    <use xlink:href="#DejaVuSans-72" x="3442.814453"/>
    <use xlink:href="#DejaVuSans-20" x="3483.927734"/>
    <use xlink:href="#DejaVuSans-67" x="3515.714844"/>
    <use xlink:href="#DejaVuSans-65" x="3579.191406"/>
    <use xlink:href="#DejaVuSans-6e" x="3640.714844"/>
    <use xlink:href="#DejaVuSans-65" x="3704.09375"/>
    <use xlink:href="#DejaVuSans-74" x="3765.617188"/>
    <use xlink:href="#DejaVuSans-69" x="3804.826172"/>
    <use xlink:href="#DejaVuSans-63" x="3832.609375"/>
    <use xlink:href="#DejaVuSans-20" x="3887.589844"/>
    <use xlink:href="#DejaVuSans-63" x="3919.376953"/>
    <use xlink:href="#DejaVuSans-6f" x="3974.357422"/>
    <use xlink:href="#DejaVuSans-64" x="4035.539062"/>
    <use xlink:href="#DejaVuSans-65" x="4099.015625"/>
    <use xlink:href="#DejaVuSans-3a" x="4160.539062"/>
    <use xlink:href="#DejaVuSans-20" x="4194.230469"/>
    <use xlink:href="#DejaVuSans-53" x="4226.017578"/>
    <use xlink:href="#DejaVuSans-63" x="4289.494141"/>
    <use xlink:href="#DejaVuSans-65" x="4344.474609"/>
    <use xlink:href="#DejaVuSans-6e" x="4405.998047"/>
    <use xlink:href="#DejaVuSans-65" x="4469.376953"/>
    <use xlink:href="#DejaVuSans-64" x="4530.900391"/>
    <use xlink:href="#DejaVuSans-65" x="4594.376953"/>
    <use xlink:href="#DejaVuSans-73" x="4655.900391"/>
    <use xlink:href="#DejaVuSans-6d" x="4708"/>
    <use xlink:href="#DejaVuSans-75" x="4805.412109"/>
    <use xlink:href="#DejaVuSans-73" x="4868.791016"/>
   </g>
   <!-- obliquus mitochondrial -->
   <g transform="translate(369.322656 35.394375) scale(0.15 -0.15)">
    <defs>
     <path id="DejaVuSans-6c" d="M 603 4863 
L 1178 4863 
L 1178 0 
L 603 0 
L 603 4863 
z
" transform="scale(0.015625)"/>
    </defs>
    <use xlink:href="#DejaVuSans-6f"/>
    <use xlink:href="#DejaVuSans-62" x="61.181641"/>
    <use xlink:href="#DejaVuSans-6c" x="124.658203"/>
    <use xlink:href="#DejaVuSans-69" x="152.441406"/>
    <use xlink:href="#DejaVuSans-71" x="180.224609"/>
    <use xlink:href="#DejaVuSans-75" x="243.701172"/>
    <use xlink:href="#DejaVuSans-75" x="307.080078"/>
    <use xlink:href="#DejaVuSans-73" x="370.458984"/>
    <use xlink:href="#DejaVuSans-20" x="422.558594"/>
    <use xlink:href="#DejaVuSans-6d" x="454.345703"/>
    <use xlink:href="#DejaVuSans-69" x="551.757812"/>
    <use xlink:href="#DejaVuSans-74" x="579.541016"/>
    <use xlink:href="#DejaVuSans-6f" x="618.75"/>
    <use xlink:href="#DejaVuSans-63" x="679.931641"/>
    <use xlink:href="#DejaVuSans-68" x="734.912109"/>
    <use xlink:href="#DejaVuSans-6f" x="798.291016"/>
    <use xlink:href="#DejaVuSans-6e" x="859.472656"/>
    <use xlink:href="#DejaVuSans-64" x="922.851562"/>
    <use xlink:href="#DejaVuSans-72" x="986.328125"/>
    <use xlink:href="#DejaVuSans-69" x="1027.441406"/>
    <use xlink:href="#DejaVuSans-61" x="1055.224609"/>
    <use xlink:href="#DejaVuSans-6c" x="1116.503906"/>
   </g>
  </g>
 </g>
 <defs>
  <clipPath id="p3d63c2c5ab">
   <rect x="50.14375" y="57.6" width="398.571429" height="252"/>
  </clipPath>
  <clipPath id="p0cd6914dd7">
   <rect x="488.572321" y="57.6" width="398.571429" height="252"/>
  </clipPath>
  <clipPath id="p4c6fdfec0f">
   <rect x="50.14375" y="360" width="398.571429" height="252"/>
  </clipPath>
  <clipPath id="p26d56b2a50">
   <rect x="488.572321" y="360" width="398.571429" height="252"/>
  </clipPath>
 </defs>
</svg>
