<?xml version="1.0" encoding="utf-8" standalone="no"?>
<!DOCTYPE svg PUBLIC "-//W3C//DTD SVG 1.1//EN"
  "http://www.w3.org/Graphics/SVG/1.1/DTD/svg11.dtd">
<svg xmlns:xlink="http://www.w3.org/1999/xlink" width="894.34375pt" height="649.55625pt" viewBox="0 0 894.34375 649.55625" xmlns="http://www.w3.org/2000/svg" version="1.1">
 <metadata>
  <rdf:RDF xmlns:dc="http://purl.org/dc/elements/1.1/" xmlns:cc="http://creativecommons.org/ns#" xmlns:rdf="http://www.w3.org/1999/02/22-rdf-syntax-ns#">
   <cc:Work>
    <dc:type rdf:resource="http://purl.org/dc/dcmitype/StillImage"/>
    <dc:date>2024-09-24T16:26:20.200538</dc:date>
    <dc:format>image/svg+xml</dc:format>
    <dc:creator>
     <cc:Agent>
      <dc:title>Matplotlib v3.8.3, https://matplotlib.org/</dc:title>
     </cc:Agent>
    </dc:creator>
   </cc:Work>
  </rdf:RDF>
 </metadata>
 <defs>
  <style type="text/css">*{stroke-linejoin: round; stroke-linecap: butt}</style>
 </defs>
 <g id="figure_1">
  <g id="patch_1">
   <path d="M 0 649.55625 
L 894.34375 649.55625 
L 894.34375 0 
L 0 0 
z
" style="fill: #ffffff"/>
  </g>
  <g id="axes_1">
   <g id="patch_2">
    <path d="M 50.14375 309.6 
L 448.715179 309.6 
L 448.715179 57.6 
L 50.14375 57.6 
z
" style="fill: #ffffff"/>
   </g>
   <g id="PathCollection_1">
    <defs>
     <path id="m6220692086" d="M 0 3.535534 
C 0.937635 3.535534 1.836992 3.163008 2.5 2.5 
C 3.163008 1.836992 3.535534 0.937635 3.535534 0 
C 3.535534 -0.937635 3.163008 -1.836992 2.5 -2.5 
C 1.836992 -3.163008 0.937635 -3.535534 0 -3.535534 
C -0.937635 -3.535534 -1.836992 -3.163008 -2.5 -2.5 
C -3.163008 -1.836992 -3.535534 -0.937635 -3.535534 0 
C -3.535534 0.937635 -3.163008 1.836992 -2.5 2.5 
C -1.836992 3.163008 -0.937635 3.535534 0 3.535534 
z
" style="stroke: #1f77b4; stroke-opacity: 0.8"/>
    </defs>
    <g clip-path="url(#pc4cb7c7ab8)">
     <use xlink:href="#m6220692086" x="68.260633" y="261.713397" style="fill: #1f77b4; fill-opacity: 0.8; stroke: #1f77b4; stroke-opacity: 0.8"/>
     <use xlink:href="#m6220692086" x="68.260633" y="298.145455" style="fill: #1f77b4; fill-opacity: 0.8; stroke: #1f77b4; stroke-opacity: 0.8"/>
     <use xlink:href="#m6220692086" x="128.650244" y="296.022314" style="fill: #1f77b4; fill-opacity: 0.8; stroke: #1f77b4; stroke-opacity: 0.8"/>
     <use xlink:href="#m6220692086" x="128.650244" y="176.701869" style="fill: #1f77b4; fill-opacity: 0.8; stroke: #1f77b4; stroke-opacity: 0.8"/>
     <use xlink:href="#m6220692086" x="128.650244" y="139.529843" style="fill: #1f77b4; fill-opacity: 0.8; stroke: #1f77b4; stroke-opacity: 0.8"/>
     <use xlink:href="#m6220692086" x="128.650244" y="247.764791" style="fill: #1f77b4; fill-opacity: 0.8; stroke: #1f77b4; stroke-opacity: 0.8"/>
     <use xlink:href="#m6220692086" x="128.650244" y="275.472436" style="fill: #1f77b4; fill-opacity: 0.8; stroke: #1f77b4; stroke-opacity: 0.8"/>
     <use xlink:href="#m6220692086" x="128.650244" y="178.841552" style="fill: #1f77b4; fill-opacity: 0.8; stroke: #1f77b4; stroke-opacity: 0.8"/>
     <use xlink:href="#m6220692086" x="128.650244" y="241.427414" style="fill: #1f77b4; fill-opacity: 0.8; stroke: #1f77b4; stroke-opacity: 0.8"/>
     <use xlink:href="#m6220692086" x="128.650244" y="267.112344" style="fill: #1f77b4; fill-opacity: 0.8; stroke: #1f77b4; stroke-opacity: 0.8"/>
     <use xlink:href="#m6220692086" x="128.650244" y="242.874145" style="fill: #1f77b4; fill-opacity: 0.8; stroke: #1f77b4; stroke-opacity: 0.8"/>
     <use xlink:href="#m6220692086" x="189.039854" y="154.835008" style="fill: #1f77b4; fill-opacity: 0.8; stroke: #1f77b4; stroke-opacity: 0.8"/>
     <use xlink:href="#m6220692086" x="249.429464" y="157.67598" style="fill: #1f77b4; fill-opacity: 0.8; stroke: #1f77b4; stroke-opacity: 0.8"/>
     <use xlink:href="#m6220692086" x="249.429464" y="148.676741" style="fill: #1f77b4; fill-opacity: 0.8; stroke: #1f77b4; stroke-opacity: 0.8"/>
     <use xlink:href="#m6220692086" x="249.429464" y="223.02718" style="fill: #1f77b4; fill-opacity: 0.8; stroke: #1f77b4; stroke-opacity: 0.8"/>
     <use xlink:href="#m6220692086" x="249.429464" y="210.331668" style="fill: #1f77b4; fill-opacity: 0.8; stroke: #1f77b4; stroke-opacity: 0.8"/>
     <use xlink:href="#m6220692086" x="249.429464" y="130.104842" style="fill: #1f77b4; fill-opacity: 0.8; stroke: #1f77b4; stroke-opacity: 0.8"/>
     <use xlink:href="#m6220692086" x="430.598295" y="124.650634" style="fill: #1f77b4; fill-opacity: 0.8; stroke: #1f77b4; stroke-opacity: 0.8"/>
     <use xlink:href="#m6220692086" x="370.208685" y="187.045352" style="fill: #1f77b4; fill-opacity: 0.8; stroke: #1f77b4; stroke-opacity: 0.8"/>
     <use xlink:href="#m6220692086" x="309.819075" y="197.074693" style="fill: #1f77b4; fill-opacity: 0.8; stroke: #1f77b4; stroke-opacity: 0.8"/>
    </g>
   </g>
   <g id="PolyCollection_1">
    <path d="M 68.260633 216.453641 
L 68.260633 280.316384 
L 71.92061 278.499999 
L 75.580586 276.586447 
L 79.240562 274.837222 
L 82.900539 272.886251 
L 86.560515 271.117153 
L 90.220491 269.505209 
L 93.880468 267.730146 
L 97.540444 266.151533 
L 101.200421 264.385921 
L 104.860397 262.622871 
L 108.520373 261.039397 
L 112.18035 259.244221 
L 115.840326 257.404975 
L 119.500303 255.948598 
L 123.160279 254.283834 
L 126.820255 252.753132 
L 130.480232 251.311824 
L 134.140208 249.553851 
L 137.800184 247.891246 
L 141.460161 246.275367 
L 145.120137 244.652923 
L 148.780114 243.030479 
L 152.44009 241.588044 
L 156.100066 240.020331 
L 159.760043 238.759012 
L 163.420019 237.445764 
L 167.079996 235.820453 
L 170.739972 234.443438 
L 174.399948 233.064024 
L 178.059925 231.567153 
L 181.719901 230.31822 
L 185.379878 228.948407 
L 189.039854 227.572279 
L 192.69983 226.194864 
L 196.359807 224.783488 
L 200.019783 223.285457 
L 203.679759 221.839324 
L 207.339736 220.391718 
L 210.999712 218.943498 
L 214.659689 217.501624 
L 218.319665 216.09027 
L 221.979641 214.835305 
L 225.639618 213.2846 
L 229.299594 212.196849 
L 232.959571 211.085258 
L 236.619547 209.785706 
L 240.279523 208.58332 
L 243.9395 207.442934 
L 247.599476 206.109799 
L 251.259452 204.944867 
L 254.919429 203.715314 
L 258.579405 202.684878 
L 262.239382 201.489758 
L 265.899358 200.296165 
L 269.559334 198.913462 
L 273.219311 197.919082 
L 276.879287 196.811594 
L 280.539264 195.64815 
L 284.19924 194.474629 
L 287.859216 193.24246 
L 291.519193 192.161435 
L 295.179169 191.001057 
L 298.839146 189.66029 
L 302.499122 188.555913 
L 306.159098 187.474909 
L 309.819075 186.352513 
L 313.479051 185.391118 
L 317.139027 184.594893 
L 320.799004 183.659936 
L 324.45898 182.68775 
L 328.118957 181.857169 
L 331.778933 180.718684 
L 335.438909 179.557134 
L 339.098886 178.72189 
L 342.758862 178.070073 
L 346.418839 177.416267 
L 350.078815 176.541867 
L 353.738791 175.467474 
L 357.398768 174.38833 
L 361.058744 173.419646 
L 364.71872 172.684345 
L 368.378697 171.944778 
L 372.038673 171.170518 
L 375.69865 170.104691 
L 379.358626 169.304716 
L 383.018602 168.508984 
L 386.678579 167.705714 
L 390.338555 166.902445 
L 393.998532 166.099175 
L 397.658508 165.252726 
L 401.318484 164.605906 
L 404.978461 164.094517 
L 408.638437 163.355627 
L 412.298414 162.522708 
L 415.95839 161.68525 
L 419.618366 160.846707 
L 423.278343 160.026017 
L 426.938319 159.465401 
L 430.598295 158.9675 
L 430.598295 69.054545 
L 430.598295 69.054545 
L 426.938319 71.011277 
L 423.278343 73.045899 
L 419.618366 75.156868 
L 415.95839 77.267838 
L 412.298414 79.381214 
L 408.638437 81.496452 
L 404.978461 83.611691 
L 401.318484 85.72693 
L 397.658508 87.842168 
L 393.998532 89.957407 
L 390.338555 91.902944 
L 386.678579 93.783451 
L 383.018602 95.726053 
L 379.358626 97.623792 
L 375.69865 99.521531 
L 372.038673 101.419269 
L 368.378697 103.317008 
L 364.71872 105.214747 
L 361.058744 107.112486 
L 357.398768 109.010225 
L 353.738791 110.907963 
L 350.078815 112.805702 
L 346.418839 114.703441 
L 342.758862 116.601491 
L 339.098886 118.468985 
L 335.438909 120.16391 
L 331.778933 121.858835 
L 328.118957 123.730781 
L 324.45898 125.686828 
L 320.799004 128.003865 
L 317.139027 129.904261 
L 313.479051 131.804656 
L 309.819075 133.55059 
L 306.159098 135.451254 
L 302.499122 137.398957 
L 298.839146 139.346661 
L 295.179169 141.298318 
L 291.519193 143.203992 
L 287.859216 145.212082 
L 284.19924 146.999044 
L 280.539264 148.883578 
L 276.879287 150.771731 
L 273.219311 152.38359 
L 269.559334 154.215828 
L 265.899358 156.46871 
L 262.239382 158.374251 
L 258.579405 160.279792 
L 254.919429 162.185333 
L 251.259452 164.090874 
L 247.599476 165.728196 
L 243.9395 167.383405 
L 240.279523 169.605058 
L 236.619547 171.469297 
L 232.959571 173.187295 
L 229.299594 174.601417 
L 225.639618 176.118833 
L 221.979641 177.543341 
L 218.319665 178.693784 
L 214.659689 180.452987 
L 210.999712 181.585959 
L 207.339736 182.790768 
L 203.679759 184.233112 
L 200.019783 185.588442 
L 196.359807 187.286562 
L 192.69983 188.412843 
L 189.039854 189.502846 
L 185.379878 190.551226 
L 181.719901 191.804419 
L 178.059925 192.726798 
L 174.399948 193.900754 
L 170.739972 194.638104 
L 167.079996 195.214626 
L 163.420019 196.009052 
L 159.760043 197.019813 
L 156.100066 198.061491 
L 152.44009 198.964037 
L 148.780114 199.82917 
L 145.120137 200.561254 
L 141.460161 201.317998 
L 137.800184 201.871179 
L 134.140208 202.560715 
L 130.480232 203.039458 
L 126.820255 203.518201 
L 123.160279 204.805097 
L 119.500303 205.376855 
L 115.840326 206.231367 
L 112.18035 207.189701 
L 108.520373 208.150148 
L 104.860397 209.10434 
L 101.200421 209.846206 
L 97.540444 210.551978 
L 93.880468 211.214687 
L 90.220491 212.066351 
L 86.560515 212.797566 
L 82.900539 213.528781 
L 79.240562 214.259996 
L 75.580586 214.991211 
L 71.92061 215.722426 
L 68.260633 216.453641 
z
" clip-path="url(#pc4cb7c7ab8)" style="fill: #ffa500; fill-opacity: 0.15"/>
   </g>
   <g id="matplotlib.axis_1">
    <g id="xtick_1">
     <g id="line2d_1">
      <defs>
       <path id="m88d9b213e8" d="M 0 0 
L 0 3.5 
" style="stroke: #000000; stroke-width: 0.8"/>
      </defs>
      <g>
       <use xlink:href="#m88d9b213e8" x="85.169724" y="309.6" style="stroke: #000000; stroke-width: 0.8"/>
      </g>
     </g>
     <g id="text_1">
      <!-- 0.02 -->
      <g transform="translate(74.036912 324.198437) scale(0.1 -0.1)">
       <defs>
        <path id="DejaVuSans-30" d="M 2034 4250 
Q 1547 4250 1301 3770 
Q 1056 3291 1056 2328 
Q 1056 1369 1301 889 
Q 1547 409 2034 409 
Q 2525 409 2770 889 
Q 3016 1369 3016 2328 
Q 3016 3291 2770 3770 
Q 2525 4250 2034 4250 
z
M 2034 4750 
Q 2819 4750 3233 4129 
Q 3647 3509 3647 2328 
Q 3647 1150 3233 529 
Q 2819 -91 2034 -91 
Q 1250 -91 836 529 
Q 422 1150 422 2328 
Q 422 3509 836 4129 
Q 1250 4750 2034 4750 
z
" transform="scale(0.015625)"/>
        <path id="DejaVuSans-2e" d="M 684 794 
L 1344 794 
L 1344 0 
L 684 0 
L 684 794 
z
" transform="scale(0.015625)"/>
        <path id="DejaVuSans-32" d="M 1228 531 
L 3431 531 
L 3431 0 
L 469 0 
L 469 531 
Q 828 903 1448 1529 
Q 2069 2156 2228 2338 
Q 2531 2678 2651 2914 
Q 2772 3150 2772 3378 
Q 2772 3750 2511 3984 
Q 2250 4219 1831 4219 
Q 1534 4219 1204 4116 
Q 875 4013 500 3803 
L 500 4441 
Q 881 4594 1212 4672 
Q 1544 4750 1819 4750 
Q 2544 4750 2975 4387 
Q 3406 4025 3406 3419 
Q 3406 3131 3298 2873 
Q 3191 2616 2906 2266 
Q 2828 2175 2409 1742 
Q 1991 1309 1228 531 
z
" transform="scale(0.015625)"/>
       </defs>
       <use xlink:href="#DejaVuSans-30"/>
       <use xlink:href="#DejaVuSans-2e" x="63.623047"/>
       <use xlink:href="#DejaVuSans-30" x="95.410156"/>
       <use xlink:href="#DejaVuSans-32" x="159.033203"/>
      </g>
     </g>
    </g>
    <g id="xtick_2">
     <g id="line2d_2">
      <g>
       <use xlink:href="#m88d9b213e8" x="162.468425" y="309.6" style="stroke: #000000; stroke-width: 0.8"/>
      </g>
     </g>
     <g id="text_2">
      <!-- 0.04 -->
      <g transform="translate(151.335613 324.198437) scale(0.1 -0.1)">
       <defs>
        <path id="DejaVuSans-34" d="M 2419 4116 
L 825 1625 
L 2419 1625 
L 2419 4116 
z
M 2253 4666 
L 3047 4666 
L 3047 1625 
L 3713 1625 
L 3713 1100 
L 3047 1100 
L 3047 0 
L 2419 0 
L 2419 1100 
L 313 1100 
L 313 1709 
L 2253 4666 
z
" transform="scale(0.015625)"/>
       </defs>
       <use xlink:href="#DejaVuSans-30"/>
       <use xlink:href="#DejaVuSans-2e" x="63.623047"/>
       <use xlink:href="#DejaVuSans-30" x="95.410156"/>
       <use xlink:href="#DejaVuSans-34" x="159.033203"/>
      </g>
     </g>
    </g>
    <g id="xtick_3">
     <g id="line2d_3">
      <g>
       <use xlink:href="#m88d9b213e8" x="239.767127" y="309.6" style="stroke: #000000; stroke-width: 0.8"/>
      </g>
     </g>
     <g id="text_3">
      <!-- 0.06 -->
      <g transform="translate(228.634314 324.198437) scale(0.1 -0.1)">
       <defs>
        <path id="DejaVuSans-36" d="M 2113 2584 
Q 1688 2584 1439 2293 
Q 1191 2003 1191 1497 
Q 1191 994 1439 701 
Q 1688 409 2113 409 
Q 2538 409 2786 701 
Q 3034 994 3034 1497 
Q 3034 2003 2786 2293 
Q 2538 2584 2113 2584 
z
M 3366 4563 
L 3366 3988 
Q 3128 4100 2886 4159 
Q 2644 4219 2406 4219 
Q 1781 4219 1451 3797 
Q 1122 3375 1075 2522 
Q 1259 2794 1537 2939 
Q 1816 3084 2150 3084 
Q 2853 3084 3261 2657 
Q 3669 2231 3669 1497 
Q 3669 778 3244 343 
Q 2819 -91 2113 -91 
Q 1303 -91 875 529 
Q 447 1150 447 2328 
Q 447 3434 972 4092 
Q 1497 4750 2381 4750 
Q 2619 4750 2861 4703 
Q 3103 4656 3366 4563 
z
" transform="scale(0.015625)"/>
       </defs>
       <use xlink:href="#DejaVuSans-30"/>
       <use xlink:href="#DejaVuSans-2e" x="63.623047"/>
       <use xlink:href="#DejaVuSans-30" x="95.410156"/>
       <use xlink:href="#DejaVuSans-36" x="159.033203"/>
      </g>
     </g>
    </g>
    <g id="xtick_4">
     <g id="line2d_4">
      <g>
       <use xlink:href="#m88d9b213e8" x="317.065828" y="309.6" style="stroke: #000000; stroke-width: 0.8"/>
      </g>
     </g>
     <g id="text_4">
      <!-- 0.08 -->
      <g transform="translate(305.933015 324.198437) scale(0.1 -0.1)">
       <defs>
        <path id="DejaVuSans-38" d="M 2034 2216 
Q 1584 2216 1326 1975 
Q 1069 1734 1069 1313 
Q 1069 891 1326 650 
Q 1584 409 2034 409 
Q 2484 409 2743 651 
Q 3003 894 3003 1313 
Q 3003 1734 2745 1975 
Q 2488 2216 2034 2216 
z
M 1403 2484 
Q 997 2584 770 2862 
Q 544 3141 544 3541 
Q 544 4100 942 4425 
Q 1341 4750 2034 4750 
Q 2731 4750 3128 4425 
Q 3525 4100 3525 3541 
Q 3525 3141 3298 2862 
Q 3072 2584 2669 2484 
Q 3125 2378 3379 2068 
Q 3634 1759 3634 1313 
Q 3634 634 3220 271 
Q 2806 -91 2034 -91 
Q 1263 -91 848 271 
Q 434 634 434 1313 
Q 434 1759 690 2068 
Q 947 2378 1403 2484 
z
M 1172 3481 
Q 1172 3119 1398 2916 
Q 1625 2713 2034 2713 
Q 2441 2713 2670 2916 
Q 2900 3119 2900 3481 
Q 2900 3844 2670 4047 
Q 2441 4250 2034 4250 
Q 1625 4250 1398 4047 
Q 1172 3844 1172 3481 
z
" transform="scale(0.015625)"/>
       </defs>
       <use xlink:href="#DejaVuSans-30"/>
       <use xlink:href="#DejaVuSans-2e" x="63.623047"/>
       <use xlink:href="#DejaVuSans-30" x="95.410156"/>
       <use xlink:href="#DejaVuSans-38" x="159.033203"/>
      </g>
     </g>
    </g>
    <g id="xtick_5">
     <g id="line2d_5">
      <g>
       <use xlink:href="#m88d9b213e8" x="394.364529" y="309.6" style="stroke: #000000; stroke-width: 0.8"/>
      </g>
     </g>
     <g id="text_5">
      <!-- 0.10 -->
      <g transform="translate(383.231717 324.198437) scale(0.1 -0.1)">
       <defs>
        <path id="DejaVuSans-31" d="M 794 531 
L 1825 531 
L 1825 4091 
L 703 3866 
L 703 4441 
L 1819 4666 
L 2450 4666 
L 2450 531 
L 3481 531 
L 3481 0 
L 794 0 
L 794 531 
z
" transform="scale(0.015625)"/>
       </defs>
       <use xlink:href="#DejaVuSans-30"/>
       <use xlink:href="#DejaVuSans-2e" x="63.623047"/>
       <use xlink:href="#DejaVuSans-31" x="95.410156"/>
       <use xlink:href="#DejaVuSans-30" x="159.033203"/>
      </g>
     </g>
    </g>
    <g id="text_6">
     <!-- Codon -->
     <g transform="translate(233.476339 337.876562) scale(0.1 -0.1)">
      <defs>
       <path id="DejaVuSans-43" d="M 4122 4306 
L 4122 3641 
Q 3803 3938 3442 4084 
Q 3081 4231 2675 4231 
Q 1875 4231 1450 3742 
Q 1025 3253 1025 2328 
Q 1025 1406 1450 917 
Q 1875 428 2675 428 
Q 3081 428 3442 575 
Q 3803 722 4122 1019 
L 4122 359 
Q 3791 134 3420 21 
Q 3050 -91 2638 -91 
Q 1578 -91 968 557 
Q 359 1206 359 2328 
Q 359 3453 968 4101 
Q 1578 4750 2638 4750 
Q 3056 4750 3426 4639 
Q 3797 4528 4122 4306 
z
" transform="scale(0.015625)"/>
       <path id="DejaVuSans-6f" d="M 1959 3097 
Q 1497 3097 1228 2736 
Q 959 2375 959 1747 
Q 959 1119 1226 758 
Q 1494 397 1959 397 
Q 2419 397 2687 759 
Q 2956 1122 2956 1747 
Q 2956 2369 2687 2733 
Q 2419 3097 1959 3097 
z
M 1959 3584 
Q 2709 3584 3137 3096 
Q 3566 2609 3566 1747 
Q 3566 888 3137 398 
Q 2709 -91 1959 -91 
Q 1206 -91 779 398 
Q 353 888 353 1747 
Q 353 2609 779 3096 
Q 1206 3584 1959 3584 
z
" transform="scale(0.015625)"/>
       <path id="DejaVuSans-64" d="M 2906 2969 
L 2906 4863 
L 3481 4863 
L 3481 0 
L 2906 0 
L 2906 525 
Q 2725 213 2448 61 
Q 2172 -91 1784 -91 
Q 1150 -91 751 415 
Q 353 922 353 1747 
Q 353 2572 751 3078 
Q 1150 3584 1784 3584 
Q 2172 3584 2448 3432 
Q 2725 3281 2906 2969 
z
M 947 1747 
Q 947 1113 1208 752 
Q 1469 391 1925 391 
Q 2381 391 2643 752 
Q 2906 1113 2906 1747 
Q 2906 2381 2643 2742 
Q 2381 3103 1925 3103 
Q 1469 3103 1208 2742 
Q 947 2381 947 1747 
z
" transform="scale(0.015625)"/>
       <path id="DejaVuSans-6e" d="M 3513 2113 
L 3513 0 
L 2938 0 
L 2938 2094 
Q 2938 2591 2744 2837 
Q 2550 3084 2163 3084 
Q 1697 3084 1428 2787 
Q 1159 2491 1159 1978 
L 1159 0 
L 581 0 
L 581 3500 
L 1159 3500 
L 1159 2956 
Q 1366 3272 1645 3428 
Q 1925 3584 2291 3584 
Q 2894 3584 3203 3211 
Q 3513 2838 3513 2113 
z
" transform="scale(0.015625)"/>
      </defs>
      <use xlink:href="#DejaVuSans-43"/>
      <use xlink:href="#DejaVuSans-6f" x="69.824219"/>
      <use xlink:href="#DejaVuSans-64" x="131.005859"/>
      <use xlink:href="#DejaVuSans-6f" x="194.482422"/>
      <use xlink:href="#DejaVuSans-6e" x="255.664062"/>
     </g>
    </g>
   </g>
   <g id="matplotlib.axis_2">
    <g id="ytick_1">
     <g id="line2d_6">
      <defs>
       <path id="mff339303b8" d="M 0 0 
L -3.5 0 
" style="stroke: #000000; stroke-width: 0.8"/>
      </defs>
      <g>
       <use xlink:href="#mff339303b8" x="50.14375" y="270.153104" style="stroke: #000000; stroke-width: 0.8"/>
      </g>
     </g>
     <g id="text_7">
      <!-- 0.02 -->
      <g transform="translate(20.878125 273.952322) scale(0.1 -0.1)">
       <use xlink:href="#DejaVuSans-30"/>
       <use xlink:href="#DejaVuSans-2e" x="63.623047"/>
       <use xlink:href="#DejaVuSans-30" x="95.410156"/>
       <use xlink:href="#DejaVuSans-32" x="159.033203"/>
      </g>
     </g>
    </g>
    <g id="ytick_2">
     <g id="line2d_7">
      <g>
       <use xlink:href="#mff339303b8" x="50.14375" y="227.310609" style="stroke: #000000; stroke-width: 0.8"/>
      </g>
     </g>
     <g id="text_8">
      <!-- 0.04 -->
      <g transform="translate(20.878125 231.109828) scale(0.1 -0.1)">
       <use xlink:href="#DejaVuSans-30"/>
       <use xlink:href="#DejaVuSans-2e" x="63.623047"/>
       <use xlink:href="#DejaVuSans-30" x="95.410156"/>
       <use xlink:href="#DejaVuSans-34" x="159.033203"/>
      </g>
     </g>
    </g>
    <g id="ytick_3">
     <g id="line2d_8">
      <g>
       <use xlink:href="#mff339303b8" x="50.14375" y="184.468114" style="stroke: #000000; stroke-width: 0.8"/>
      </g>
     </g>
     <g id="text_9">
      <!-- 0.06 -->
      <g transform="translate(20.878125 188.267333) scale(0.1 -0.1)">
       <use xlink:href="#DejaVuSans-30"/>
       <use xlink:href="#DejaVuSans-2e" x="63.623047"/>
       <use xlink:href="#DejaVuSans-30" x="95.410156"/>
       <use xlink:href="#DejaVuSans-36" x="159.033203"/>
      </g>
     </g>
    </g>
    <g id="ytick_4">
     <g id="line2d_9">
      <g>
       <use xlink:href="#mff339303b8" x="50.14375" y="141.62562" style="stroke: #000000; stroke-width: 0.8"/>
      </g>
     </g>
     <g id="text_10">
      <!-- 0.08 -->
      <g transform="translate(20.878125 145.424839) scale(0.1 -0.1)">
       <use xlink:href="#DejaVuSans-30"/>
       <use xlink:href="#DejaVuSans-2e" x="63.623047"/>
       <use xlink:href="#DejaVuSans-30" x="95.410156"/>
       <use xlink:href="#DejaVuSans-38" x="159.033203"/>
      </g>
     </g>
    </g>
    <g id="ytick_5">
     <g id="line2d_10">
      <g>
       <use xlink:href="#mff339303b8" x="50.14375" y="98.783125" style="stroke: #000000; stroke-width: 0.8"/>
      </g>
     </g>
     <g id="text_11">
      <!-- 0.10 -->
      <g transform="translate(20.878125 102.582344) scale(0.1 -0.1)">
       <use xlink:href="#DejaVuSans-30"/>
       <use xlink:href="#DejaVuSans-2e" x="63.623047"/>
       <use xlink:href="#DejaVuSans-31" x="95.410156"/>
       <use xlink:href="#DejaVuSans-30" x="159.033203"/>
      </g>
     </g>
    </g>
    <g id="text_12">
     <!-- Amino acid frequency -->
     <g transform="translate(14.798438 238.139062) rotate(-90) scale(0.1 -0.1)">
      <defs>
       <path id="DejaVuSans-41" d="M 2188 4044 
L 1331 1722 
L 3047 1722 
L 2188 4044 
z
M 1831 4666 
L 2547 4666 
L 4325 0 
L 3669 0 
L 3244 1197 
L 1141 1197 
L 716 0 
L 50 0 
L 1831 4666 
z
" transform="scale(0.015625)"/>
       <path id="DejaVuSans-6d" d="M 3328 2828 
Q 3544 3216 3844 3400 
Q 4144 3584 4550 3584 
Q 5097 3584 5394 3201 
Q 5691 2819 5691 2113 
L 5691 0 
L 5113 0 
L 5113 2094 
Q 5113 2597 4934 2840 
Q 4756 3084 4391 3084 
Q 3944 3084 3684 2787 
Q 3425 2491 3425 1978 
L 3425 0 
L 2847 0 
L 2847 2094 
Q 2847 2600 2669 2842 
Q 2491 3084 2119 3084 
Q 1678 3084 1418 2786 
Q 1159 2488 1159 1978 
L 1159 0 
L 581 0 
L 581 3500 
L 1159 3500 
L 1159 2956 
Q 1356 3278 1631 3431 
Q 1906 3584 2284 3584 
Q 2666 3584 2933 3390 
Q 3200 3197 3328 2828 
z
" transform="scale(0.015625)"/>
       <path id="DejaVuSans-69" d="M 603 3500 
L 1178 3500 
L 1178 0 
L 603 0 
L 603 3500 
z
M 603 4863 
L 1178 4863 
L 1178 4134 
L 603 4134 
L 603 4863 
z
" transform="scale(0.015625)"/>
       <path id="DejaVuSans-20" transform="scale(0.015625)"/>
       <path id="DejaVuSans-61" d="M 2194 1759 
Q 1497 1759 1228 1600 
Q 959 1441 959 1056 
Q 959 750 1161 570 
Q 1363 391 1709 391 
Q 2188 391 2477 730 
Q 2766 1069 2766 1631 
L 2766 1759 
L 2194 1759 
z
M 3341 1997 
L 3341 0 
L 2766 0 
L 2766 531 
Q 2569 213 2275 61 
Q 1981 -91 1556 -91 
Q 1019 -91 701 211 
Q 384 513 384 1019 
Q 384 1609 779 1909 
Q 1175 2209 1959 2209 
L 2766 2209 
L 2766 2266 
Q 2766 2663 2505 2880 
Q 2244 3097 1772 3097 
Q 1472 3097 1187 3025 
Q 903 2953 641 2809 
L 641 3341 
Q 956 3463 1253 3523 
Q 1550 3584 1831 3584 
Q 2591 3584 2966 3190 
Q 3341 2797 3341 1997 
z
" transform="scale(0.015625)"/>
       <path id="DejaVuSans-63" d="M 3122 3366 
L 3122 2828 
Q 2878 2963 2633 3030 
Q 2388 3097 2138 3097 
Q 1578 3097 1268 2742 
Q 959 2388 959 1747 
Q 959 1106 1268 751 
Q 1578 397 2138 397 
Q 2388 397 2633 464 
Q 2878 531 3122 666 
L 3122 134 
Q 2881 22 2623 -34 
Q 2366 -91 2075 -91 
Q 1284 -91 818 406 
Q 353 903 353 1747 
Q 353 2603 823 3093 
Q 1294 3584 2113 3584 
Q 2378 3584 2631 3529 
Q 2884 3475 3122 3366 
z
" transform="scale(0.015625)"/>
       <path id="DejaVuSans-66" d="M 2375 4863 
L 2375 4384 
L 1825 4384 
Q 1516 4384 1395 4259 
Q 1275 4134 1275 3809 
L 1275 3500 
L 2222 3500 
L 2222 3053 
L 1275 3053 
L 1275 0 
L 697 0 
L 697 3053 
L 147 3053 
L 147 3500 
L 697 3500 
L 697 3744 
Q 697 4328 969 4595 
Q 1241 4863 1831 4863 
L 2375 4863 
z
" transform="scale(0.015625)"/>
       <path id="DejaVuSans-72" d="M 2631 2963 
Q 2534 3019 2420 3045 
Q 2306 3072 2169 3072 
Q 1681 3072 1420 2755 
Q 1159 2438 1159 1844 
L 1159 0 
L 581 0 
L 581 3500 
L 1159 3500 
L 1159 2956 
Q 1341 3275 1631 3429 
Q 1922 3584 2338 3584 
Q 2397 3584 2469 3576 
Q 2541 3569 2628 3553 
L 2631 2963 
z
" transform="scale(0.015625)"/>
       <path id="DejaVuSans-65" d="M 3597 1894 
L 3597 1613 
L 953 1613 
Q 991 1019 1311 708 
Q 1631 397 2203 397 
Q 2534 397 2845 478 
Q 3156 559 3463 722 
L 3463 178 
Q 3153 47 2828 -22 
Q 2503 -91 2169 -91 
Q 1331 -91 842 396 
Q 353 884 353 1716 
Q 353 2575 817 3079 
Q 1281 3584 2069 3584 
Q 2775 3584 3186 3129 
Q 3597 2675 3597 1894 
z
M 3022 2063 
Q 3016 2534 2758 2815 
Q 2500 3097 2075 3097 
Q 1594 3097 1305 2825 
Q 1016 2553 972 2059 
L 3022 2063 
z
" transform="scale(0.015625)"/>
       <path id="DejaVuSans-71" d="M 947 1747 
Q 947 1113 1208 752 
Q 1469 391 1925 391 
Q 2381 391 2643 752 
Q 2906 1113 2906 1747 
Q 2906 2381 2643 2742 
Q 2381 3103 1925 3103 
Q 1469 3103 1208 2742 
Q 947 2381 947 1747 
z
M 2906 525 
Q 2725 213 2448 61 
Q 2172 -91 1784 -91 
Q 1150 -91 751 415 
Q 353 922 353 1747 
Q 353 2572 751 3078 
Q 1150 3584 1784 3584 
Q 2172 3584 2448 3432 
Q 2725 3281 2906 2969 
L 2906 3500 
L 3481 3500 
L 3481 -1331 
L 2906 -1331 
L 2906 525 
z
" transform="scale(0.015625)"/>
       <path id="DejaVuSans-75" d="M 544 1381 
L 544 3500 
L 1119 3500 
L 1119 1403 
Q 1119 906 1312 657 
Q 1506 409 1894 409 
Q 2359 409 2629 706 
Q 2900 1003 2900 1516 
L 2900 3500 
L 3475 3500 
L 3475 0 
L 2900 0 
L 2900 538 
Q 2691 219 2414 64 
Q 2138 -91 1772 -91 
Q 1169 -91 856 284 
Q 544 659 544 1381 
z
M 1991 3584 
L 1991 3584 
z
" transform="scale(0.015625)"/>
       <path id="DejaVuSans-79" d="M 2059 -325 
Q 1816 -950 1584 -1140 
Q 1353 -1331 966 -1331 
L 506 -1331 
L 506 -850 
L 844 -850 
Q 1081 -850 1212 -737 
Q 1344 -625 1503 -206 
L 1606 56 
L 191 3500 
L 800 3500 
L 1894 763 
L 2988 3500 
L 3597 3500 
L 2059 -325 
z
" transform="scale(0.015625)"/>
      </defs>
      <use xlink:href="#DejaVuSans-41"/>
      <use xlink:href="#DejaVuSans-6d" x="68.408203"/>
      <use xlink:href="#DejaVuSans-69" x="165.820312"/>
      <use xlink:href="#DejaVuSans-6e" x="193.603516"/>
      <use xlink:href="#DejaVuSans-6f" x="256.982422"/>
      <use xlink:href="#DejaVuSans-20" x="318.164062"/>
      <use xlink:href="#DejaVuSans-61" x="349.951172"/>
      <use xlink:href="#DejaVuSans-63" x="411.230469"/>
      <use xlink:href="#DejaVuSans-69" x="466.210938"/>
      <use xlink:href="#DejaVuSans-64" x="493.994141"/>
      <use xlink:href="#DejaVuSans-20" x="557.470703"/>
      <use xlink:href="#DejaVuSans-66" x="589.257812"/>
      <use xlink:href="#DejaVuSans-72" x="624.462891"/>
      <use xlink:href="#DejaVuSans-65" x="663.326172"/>
      <use xlink:href="#DejaVuSans-71" x="724.849609"/>
      <use xlink:href="#DejaVuSans-75" x="788.326172"/>
      <use xlink:href="#DejaVuSans-65" x="851.705078"/>
      <use xlink:href="#DejaVuSans-6e" x="913.228516"/>
      <use xlink:href="#DejaVuSans-63" x="976.607422"/>
      <use xlink:href="#DejaVuSans-79" x="1031.587891"/>
     </g>
    </g>
   </g>
   <g id="line2d_11">
    <path d="M 68.260633 250.991783 
L 71.92061 249.719339 
L 75.580586 248.446896 
L 79.240562 247.174453 
L 82.900539 245.902009 
L 86.560515 244.629566 
L 90.220491 243.357122 
L 93.880468 242.084679 
L 97.540444 240.812235 
L 101.200421 239.539792 
L 104.860397 238.267348 
L 108.520373 236.994905 
L 112.18035 235.722461 
L 115.840326 234.450018 
L 119.500303 233.177574 
L 123.160279 231.905131 
L 126.820255 230.632688 
L 130.480232 229.360244 
L 134.140208 228.087801 
L 137.800184 226.815357 
L 141.460161 225.542914 
L 145.120137 224.27047 
L 148.780114 222.998027 
L 152.44009 221.725583 
L 156.100066 220.45314 
L 159.760043 219.180696 
L 163.420019 217.908253 
L 167.079996 216.63581 
L 170.739972 215.363366 
L 174.399948 214.090923 
L 178.059925 212.818479 
L 181.719901 211.546036 
L 185.379878 210.273592 
L 189.039854 209.001149 
L 192.69983 207.728705 
L 196.359807 206.456262 
L 200.019783 205.183818 
L 203.679759 203.911375 
L 207.339736 202.638931 
L 210.999712 201.366488 
L 214.659689 200.094045 
L 218.319665 198.821601 
L 221.979641 197.549158 
L 225.639618 196.276714 
L 229.299594 195.004271 
L 232.959571 193.731827 
L 236.619547 192.459384 
L 240.279523 191.18694 
L 243.9395 189.914497 
L 247.599476 188.642053 
L 251.259452 187.36961 
L 254.919429 186.097167 
L 258.579405 184.824723 
L 262.239382 183.55228 
L 265.899358 182.279836 
L 269.559334 181.007393 
L 273.219311 179.734949 
L 276.879287 178.462506 
L 280.539264 177.190062 
L 284.19924 175.917619 
L 287.859216 174.645175 
L 291.519193 173.372732 
L 295.179169 172.100288 
L 298.839146 170.827845 
L 302.499122 169.555402 
L 306.159098 168.282958 
L 309.819075 167.010515 
L 313.479051 165.738071 
L 317.139027 164.465628 
L 320.799004 163.193184 
L 324.45898 161.920741 
L 328.118957 160.648297 
L 331.778933 159.375854 
L 335.438909 158.10341 
L 339.098886 156.830967 
L 342.758862 155.558524 
L 346.418839 154.28608 
L 350.078815 153.013637 
L 353.738791 151.741193 
L 357.398768 150.46875 
L 361.058744 149.196306 
L 364.71872 147.923863 
L 368.378697 146.651419 
L 372.038673 145.378976 
L 375.69865 144.106532 
L 379.358626 142.834089 
L 383.018602 141.561645 
L 386.678579 140.289202 
L 390.338555 139.016759 
L 393.998532 137.744315 
L 397.658508 136.471872 
L 401.318484 135.199428 
L 404.978461 133.926985 
L 408.638437 132.654541 
L 412.298414 131.382098 
L 415.95839 130.109654 
L 419.618366 128.837211 
L 423.278343 127.564767 
L 426.938319 126.292324 
L 430.598295 125.019881 
" clip-path="url(#pc4cb7c7ab8)" style="fill: none; stroke: #ffa500; stroke-width: 2.25; stroke-linecap: square"/>
   </g>
   <g id="patch_3">
    <path d="M 50.14375 309.6 
L 50.14375 57.6 
" style="fill: none; stroke: #000000; stroke-width: 0.8; stroke-linejoin: miter; stroke-linecap: square"/>
   </g>
   <g id="patch_4">
    <path d="M 448.715179 309.6 
L 448.715179 57.6 
" style="fill: none; stroke: #000000; stroke-width: 0.8; stroke-linejoin: miter; stroke-linecap: square"/>
   </g>
   <g id="patch_5">
    <path d="M 50.14375 309.6 
L 448.715179 309.6 
" style="fill: none; stroke: #000000; stroke-width: 0.8; stroke-linejoin: miter; stroke-linecap: square"/>
   </g>
   <g id="patch_6">
    <path d="M 50.14375 57.6 
L 448.715179 57.6 
" style="fill: none; stroke: #000000; stroke-width: 0.8; stroke-linejoin: miter; stroke-linecap: square"/>
   </g>
  </g>
  <g id="axes_2">
   <g id="patch_7">
    <path d="M 488.572321 309.6 
L 887.14375 309.6 
L 887.14375 57.6 
L 488.572321 57.6 
z
" style="fill: #ffffff"/>
   </g>
   <g id="PathCollection_2">
    <g clip-path="url(#p39b96b7570)">
     <use xlink:href="#m6220692086" x="506.689205" y="261.833574" style="fill: #1f77b4; fill-opacity: 0.8; stroke: #1f77b4; stroke-opacity: 0.8"/>
     <use xlink:href="#m6220692086" x="506.689205" y="298.145455" style="fill: #1f77b4; fill-opacity: 0.8; stroke: #1f77b4; stroke-opacity: 0.8"/>
     <use xlink:href="#m6220692086" x="567.078815" y="296.029318" style="fill: #1f77b4; fill-opacity: 0.8; stroke: #1f77b4; stroke-opacity: 0.8"/>
     <use xlink:href="#m6220692086" x="567.078815" y="177.102473" style="fill: #1f77b4; fill-opacity: 0.8; stroke: #1f77b4; stroke-opacity: 0.8"/>
     <use xlink:href="#m6220692086" x="567.078815" y="140.053066" style="fill: #1f77b4; fill-opacity: 0.8; stroke: #1f77b4; stroke-opacity: 0.8"/>
     <use xlink:href="#m6220692086" x="567.078815" y="247.930981" style="fill: #1f77b4; fill-opacity: 0.8; stroke: #1f77b4; stroke-opacity: 0.8"/>
     <use xlink:href="#m6220692086" x="567.078815" y="275.547227" style="fill: #1f77b4; fill-opacity: 0.8; stroke: #1f77b4; stroke-opacity: 0.8"/>
     <use xlink:href="#m6220692086" x="567.078815" y="179.235098" style="fill: #1f77b4; fill-opacity: 0.8; stroke: #1f77b4; stroke-opacity: 0.8"/>
     <use xlink:href="#m6220692086" x="567.078815" y="241.614509" style="fill: #1f77b4; fill-opacity: 0.8; stroke: #1f77b4; stroke-opacity: 0.8"/>
     <use xlink:href="#m6220692086" x="567.078815" y="267.214713" style="fill: #1f77b4; fill-opacity: 0.8; stroke: #1f77b4; stroke-opacity: 0.8"/>
     <use xlink:href="#m6220692086" x="567.078815" y="243.056468" style="fill: #1f77b4; fill-opacity: 0.8; stroke: #1f77b4; stroke-opacity: 0.8"/>
     <use xlink:href="#m6220692086" x="627.468425" y="155.307744" style="fill: #1f77b4; fill-opacity: 0.8; stroke: #1f77b4; stroke-opacity: 0.8"/>
     <use xlink:href="#m6220692086" x="687.858036" y="158.139345" style="fill: #1f77b4; fill-opacity: 0.8; stroke: #1f77b4; stroke-opacity: 0.8"/>
     <use xlink:href="#m6220692086" x="687.858036" y="149.169791" style="fill: #1f77b4; fill-opacity: 0.8; stroke: #1f77b4; stroke-opacity: 0.8"/>
     <use xlink:href="#m6220692086" x="687.858036" y="223.274971" style="fill: #1f77b4; fill-opacity: 0.8; stroke: #1f77b4; stroke-opacity: 0.8"/>
     <use xlink:href="#m6220692086" x="687.858036" y="210.621338" style="fill: #1f77b4; fill-opacity: 0.8; stroke: #1f77b4; stroke-opacity: 0.8"/>
     <use xlink:href="#m6220692086" x="687.858036" y="130.659155" style="fill: #1f77b4; fill-opacity: 0.8; stroke: #1f77b4; stroke-opacity: 0.8"/>
     <use xlink:href="#m6220692086" x="869.026867" y="125.222938" style="fill: #1f77b4; fill-opacity: 0.8; stroke: #1f77b4; stroke-opacity: 0.8"/>
     <use xlink:href="#m6220692086" x="808.637256" y="187.411836" style="fill: #1f77b4; fill-opacity: 0.8; stroke: #1f77b4; stroke-opacity: 0.8"/>
     <use xlink:href="#m6220692086" x="748.247646" y="197.408094" style="fill: #1f77b4; fill-opacity: 0.8; stroke: #1f77b4; stroke-opacity: 0.8"/>
    </g>
   </g>
   <g id="PolyCollection_2">
    <path d="M 506.689205 217.199548 
L 506.689205 279.685497 
L 510.349181 277.887466 
L 514.009157 276.176713 
L 517.669134 274.502611 
L 521.32911 272.618353 
L 524.989086 270.877273 
L 528.649063 269.129934 
L 532.309039 267.171494 
L 535.969016 265.279323 
L 539.628992 263.74068 
L 543.288968 262.169128 
L 546.948945 260.618064 
L 550.608921 259.068112 
L 554.268898 257.516997 
L 557.928874 255.714631 
L 561.58885 254.145813 
L 565.248827 252.683081 
L 568.908803 251.22012 
L 572.56878 249.667263 
L 576.228756 248.186916 
L 579.888732 246.662644 
L 583.548709 245.279419 
L 587.208685 243.775326 
L 590.868661 242.208912 
L 594.528638 240.576604 
L 598.188614 239.178306 
L 601.848591 237.752831 
L 605.508567 236.357026 
L 609.168543 234.829717 
L 612.82852 233.617664 
L 616.488496 232.170891 
L 620.148473 230.753492 
L 623.808449 229.448379 
L 627.468425 227.836463 
L 631.128402 226.375271 
L 634.788378 224.914079 
L 638.448354 223.452887 
L 642.108331 222.153621 
L 645.768307 220.788013 
L 649.428284 219.330817 
L 653.08826 217.80483 
L 656.748236 216.422536 
L 660.408213 215.140891 
L 664.068189 213.639984 
L 667.728166 212.128842 
L 671.388142 210.692661 
L 675.048118 209.625304 
L 678.708095 208.537363 
L 682.368071 207.462348 
L 686.028048 206.5237 
L 689.688024 205.351326 
L 693.348 204.040268 
L 697.007977 202.666876 
L 700.667953 201.392171 
L 704.327929 200.347922 
L 707.987906 199.328092 
L 711.647882 198.311583 
L 715.307859 197.517332 
L 718.967835 196.613039 
L 722.627811 195.508774 
L 726.287788 194.366362 
L 729.947764 193.414632 
L 733.607741 192.446873 
L 737.267717 191.293857 
L 740.927693 190.143122 
L 744.58767 188.993905 
L 748.247646 187.8479 
L 751.907622 187.24681 
L 755.567599 186.484968 
L 759.227575 185.399744 
L 762.887552 184.501528 
L 766.547528 183.799653 
L 770.207504 183.018944 
L 773.867481 182.062703 
L 777.527457 181.117634 
L 781.187434 180.162926 
L 784.84741 179.039405 
L 788.507386 178.046533 
L 792.167363 177.342621 
L 795.827339 176.884147 
L 799.487316 176.422256 
L 803.147292 175.354272 
L 806.807268 174.018232 
L 810.467245 173.431426 
L 814.127221 172.843573 
L 817.787197 171.940752 
L 821.447174 171.143404 
L 825.10715 170.436545 
L 828.767127 169.539123 
L 832.427103 168.898457 
L 836.087079 167.987975 
L 839.747056 167.050571 
L 843.407032 166.398035 
L 847.067009 165.69798 
L 850.726985 164.866397 
L 854.386961 164.034815 
L 858.046938 163.203233 
L 861.706914 162.488844 
L 865.36689 161.827217 
L 869.026867 161.163286 
L 869.026867 69.054545 
L 869.026867 69.054545 
L 865.36689 70.994591 
L 861.706914 72.736062 
L 858.046938 74.477533 
L 854.386961 76.219004 
L 850.726985 77.960475 
L 847.067009 79.858003 
L 843.407032 81.863309 
L 839.747056 83.87539 
L 836.087079 85.968927 
L 832.427103 88.01685 
L 828.767127 89.893314 
L 825.10715 91.890386 
L 821.447174 93.889947 
L 817.787197 95.896374 
L 814.127221 97.9028 
L 810.467245 99.909227 
L 806.807268 101.915654 
L 803.147292 103.922081 
L 799.487316 105.928507 
L 795.827339 107.934934 
L 792.167363 109.941361 
L 788.507386 111.955032 
L 784.84741 113.968917 
L 781.187434 115.982803 
L 777.527457 117.996688 
L 773.867481 119.90203 
L 770.207504 122.008356 
L 766.547528 124.01667 
L 762.887552 126.008485 
L 759.227575 127.926995 
L 755.567599 129.916399 
L 751.907622 131.751661 
L 748.247646 133.640897 
L 744.58767 135.444351 
L 740.927693 137.252124 
L 737.267717 139.071171 
L 733.607741 141.312536 
L 729.947764 143.331922 
L 726.287788 145.131455 
L 722.627811 147.03348 
L 718.967835 148.9248 
L 715.307859 150.633709 
L 711.647882 152.185413 
L 707.987906 153.652928 
L 704.327929 155.42888 
L 700.667953 157.460755 
L 697.007977 159.336505 
L 693.348 161.016606 
L 689.688024 162.791284 
L 686.028048 164.414015 
L 682.368071 166.35011 
L 678.708095 167.979586 
L 675.048118 169.419057 
L 671.388142 171.054961 
L 667.728166 172.360197 
L 664.068189 173.493203 
L 660.408213 174.344794 
L 656.748236 175.464888 
L 653.08826 177.041255 
L 649.428284 178.219705 
L 645.768307 179.883796 
L 642.108331 181.734177 
L 638.448354 183.212209 
L 634.788378 184.772991 
L 631.128402 186.11589 
L 627.468425 187.192962 
L 623.808449 188.099861 
L 620.148473 189.039754 
L 616.488496 190.390789 
L 612.82852 191.911612 
L 609.168543 193.024218 
L 605.508567 194.176921 
L 601.848591 195.040177 
L 598.188614 195.723517 
L 594.528638 196.530924 
L 590.868661 197.241572 
L 587.208685 198.032963 
L 583.548709 199.173432 
L 579.888732 200.099255 
L 576.228756 201.276895 
L 572.56878 201.825716 
L 568.908803 202.800446 
L 565.248827 204.024359 
L 561.58885 205.261924 
L 557.928874 206.323734 
L 554.268898 206.728581 
L 550.608921 207.520048 
L 546.948945 208.082302 
L 543.288968 208.881057 
L 539.628992 209.82529 
L 535.969016 210.789364 
L 532.309039 211.753438 
L 528.649063 212.566073 
L 524.989086 213.286484 
L 521.32911 214.029897 
L 517.669134 214.627133 
L 514.009157 215.54052 
L 510.349181 216.701749 
L 506.689205 217.199548 
z
" clip-path="url(#p39b96b7570)" style="fill: #ffa500; fill-opacity: 0.15"/>
   </g>
   <g id="matplotlib.axis_3">
    <g id="xtick_6">
     <g id="line2d_12">
      <g>
       <use xlink:href="#m88d9b213e8" x="519.974919" y="309.6" style="stroke: #000000; stroke-width: 0.8"/>
      </g>
     </g>
     <g id="text_13">
      <!-- 0.02 -->
      <g transform="translate(508.842106 324.198437) scale(0.1 -0.1)">
       <use xlink:href="#DejaVuSans-30"/>
       <use xlink:href="#DejaVuSans-2e" x="63.623047"/>
       <use xlink:href="#DejaVuSans-30" x="95.410156"/>
       <use xlink:href="#DejaVuSans-32" x="159.033203"/>
      </g>
     </g>
    </g>
    <g id="xtick_7">
     <g id="line2d_13">
      <g>
       <use xlink:href="#m88d9b213e8" x="593.650244" y="309.6" style="stroke: #000000; stroke-width: 0.8"/>
      </g>
     </g>
     <g id="text_14">
      <!-- 0.04 -->
      <g transform="translate(582.517431 324.198437) scale(0.1 -0.1)">
       <use xlink:href="#DejaVuSans-30"/>
       <use xlink:href="#DejaVuSans-2e" x="63.623047"/>
       <use xlink:href="#DejaVuSans-30" x="95.410156"/>
       <use xlink:href="#DejaVuSans-34" x="159.033203"/>
      </g>
     </g>
    </g>
    <g id="xtick_8">
     <g id="line2d_14">
      <g>
       <use xlink:href="#m88d9b213e8" x="667.325568" y="309.6" style="stroke: #000000; stroke-width: 0.8"/>
      </g>
     </g>
     <g id="text_15">
      <!-- 0.06 -->
      <g transform="translate(656.192756 324.198437) scale(0.1 -0.1)">
       <use xlink:href="#DejaVuSans-30"/>
       <use xlink:href="#DejaVuSans-2e" x="63.623047"/>
       <use xlink:href="#DejaVuSans-30" x="95.410156"/>
       <use xlink:href="#DejaVuSans-36" x="159.033203"/>
      </g>
     </g>
    </g>
    <g id="xtick_9">
     <g id="line2d_15">
      <g>
       <use xlink:href="#m88d9b213e8" x="741.000893" y="309.6" style="stroke: #000000; stroke-width: 0.8"/>
      </g>
     </g>
     <g id="text_16">
      <!-- 0.08 -->
      <g transform="translate(729.86808 324.198437) scale(0.1 -0.1)">
       <use xlink:href="#DejaVuSans-30"/>
       <use xlink:href="#DejaVuSans-2e" x="63.623047"/>
       <use xlink:href="#DejaVuSans-30" x="95.410156"/>
       <use xlink:href="#DejaVuSans-38" x="159.033203"/>
      </g>
     </g>
    </g>
    <g id="xtick_10">
     <g id="line2d_16">
      <g>
       <use xlink:href="#m88d9b213e8" x="814.676218" y="309.6" style="stroke: #000000; stroke-width: 0.8"/>
      </g>
     </g>
     <g id="text_17">
      <!-- 0.10 -->
      <g transform="translate(803.543405 324.198437) scale(0.1 -0.1)">
       <use xlink:href="#DejaVuSans-30"/>
       <use xlink:href="#DejaVuSans-2e" x="63.623047"/>
       <use xlink:href="#DejaVuSans-31" x="95.410156"/>
       <use xlink:href="#DejaVuSans-30" x="159.033203"/>
      </g>
     </g>
    </g>
    <g id="text_18">
     <!-- Codon+Cost -->
     <g transform="translate(656.599442 337.876562) scale(0.1 -0.1)">
      <defs>
       <path id="DejaVuSans-2b" d="M 2944 4013 
L 2944 2272 
L 4684 2272 
L 4684 1741 
L 2944 1741 
L 2944 0 
L 2419 0 
L 2419 1741 
L 678 1741 
L 678 2272 
L 2419 2272 
L 2419 4013 
L 2944 4013 
z
" transform="scale(0.015625)"/>
       <path id="DejaVuSans-73" d="M 2834 3397 
L 2834 2853 
Q 2591 2978 2328 3040 
Q 2066 3103 1784 3103 
Q 1356 3103 1142 2972 
Q 928 2841 928 2578 
Q 928 2378 1081 2264 
Q 1234 2150 1697 2047 
L 1894 2003 
Q 2506 1872 2764 1633 
Q 3022 1394 3022 966 
Q 3022 478 2636 193 
Q 2250 -91 1575 -91 
Q 1294 -91 989 -36 
Q 684 19 347 128 
L 347 722 
Q 666 556 975 473 
Q 1284 391 1588 391 
Q 1994 391 2212 530 
Q 2431 669 2431 922 
Q 2431 1156 2273 1281 
Q 2116 1406 1581 1522 
L 1381 1569 
Q 847 1681 609 1914 
Q 372 2147 372 2553 
Q 372 3047 722 3315 
Q 1072 3584 1716 3584 
Q 2034 3584 2315 3537 
Q 2597 3491 2834 3397 
z
" transform="scale(0.015625)"/>
       <path id="DejaVuSans-74" d="M 1172 4494 
L 1172 3500 
L 2356 3500 
L 2356 3053 
L 1172 3053 
L 1172 1153 
Q 1172 725 1289 603 
Q 1406 481 1766 481 
L 2356 481 
L 2356 0 
L 1766 0 
Q 1100 0 847 248 
Q 594 497 594 1153 
L 594 3053 
L 172 3053 
L 172 3500 
L 594 3500 
L 594 4494 
L 1172 4494 
z
" transform="scale(0.015625)"/>
      </defs>
      <use xlink:href="#DejaVuSans-43"/>
      <use xlink:href="#DejaVuSans-6f" x="69.824219"/>
      <use xlink:href="#DejaVuSans-64" x="131.005859"/>
      <use xlink:href="#DejaVuSans-6f" x="194.482422"/>
      <use xlink:href="#DejaVuSans-6e" x="255.664062"/>
      <use xlink:href="#DejaVuSans-2b" x="319.042969"/>
      <use xlink:href="#DejaVuSans-43" x="402.832031"/>
      <use xlink:href="#DejaVuSans-6f" x="472.65625"/>
      <use xlink:href="#DejaVuSans-73" x="533.837891"/>
      <use xlink:href="#DejaVuSans-74" x="585.9375"/>
     </g>
    </g>
   </g>
   <g id="matplotlib.axis_4">
    <g id="ytick_6">
     <g id="line2d_17">
      <g>
       <use xlink:href="#mff339303b8" x="488.572321" y="270.245441" style="stroke: #000000; stroke-width: 0.8"/>
      </g>
     </g>
     <g id="text_19">
      <!-- 0.02 -->
      <g transform="translate(459.306696 274.04466) scale(0.1 -0.1)">
       <use xlink:href="#DejaVuSans-30"/>
       <use xlink:href="#DejaVuSans-2e" x="63.623047"/>
       <use xlink:href="#DejaVuSans-30" x="95.410156"/>
       <use xlink:href="#DejaVuSans-32" x="159.033203"/>
      </g>
     </g>
    </g>
    <g id="ytick_7">
     <g id="line2d_18">
      <g>
       <use xlink:href="#mff339303b8" x="488.572321" y="227.544271" style="stroke: #000000; stroke-width: 0.8"/>
      </g>
     </g>
     <g id="text_20">
      <!-- 0.04 -->
      <g transform="translate(459.306696 231.343489) scale(0.1 -0.1)">
       <use xlink:href="#DejaVuSans-30"/>
       <use xlink:href="#DejaVuSans-2e" x="63.623047"/>
       <use xlink:href="#DejaVuSans-30" x="95.410156"/>
       <use xlink:href="#DejaVuSans-34" x="159.033203"/>
      </g>
     </g>
    </g>
    <g id="ytick_8">
     <g id="line2d_19">
      <g>
       <use xlink:href="#mff339303b8" x="488.572321" y="184.8431" style="stroke: #000000; stroke-width: 0.8"/>
      </g>
     </g>
     <g id="text_21">
      <!-- 0.06 -->
      <g transform="translate(459.306696 188.642319) scale(0.1 -0.1)">
       <use xlink:href="#DejaVuSans-30"/>
       <use xlink:href="#DejaVuSans-2e" x="63.623047"/>
       <use xlink:href="#DejaVuSans-30" x="95.410156"/>
       <use xlink:href="#DejaVuSans-36" x="159.033203"/>
      </g>
     </g>
    </g>
    <g id="ytick_9">
     <g id="line2d_20">
      <g>
       <use xlink:href="#mff339303b8" x="488.572321" y="142.141929" style="stroke: #000000; stroke-width: 0.8"/>
      </g>
     </g>
     <g id="text_22">
      <!-- 0.08 -->
      <g transform="translate(459.306696 145.941148) scale(0.1 -0.1)">
       <use xlink:href="#DejaVuSans-30"/>
       <use xlink:href="#DejaVuSans-2e" x="63.623047"/>
       <use xlink:href="#DejaVuSans-30" x="95.410156"/>
       <use xlink:href="#DejaVuSans-38" x="159.033203"/>
      </g>
     </g>
    </g>
    <g id="ytick_10">
     <g id="line2d_21">
      <g>
       <use xlink:href="#mff339303b8" x="488.572321" y="99.440759" style="stroke: #000000; stroke-width: 0.8"/>
      </g>
     </g>
     <g id="text_23">
      <!-- 0.10 -->
      <g transform="translate(459.306696 103.239977) scale(0.1 -0.1)">
       <use xlink:href="#DejaVuSans-30"/>
       <use xlink:href="#DejaVuSans-2e" x="63.623047"/>
       <use xlink:href="#DejaVuSans-31" x="95.410156"/>
       <use xlink:href="#DejaVuSans-30" x="159.033203"/>
      </g>
     </g>
    </g>
   </g>
   <g id="line2d_22">
    <path d="M 506.689205 251.147328 
L 510.349181 249.879082 
L 514.009157 248.610836 
L 517.669134 247.34259 
L 521.32911 246.074344 
L 524.989086 244.806098 
L 528.649063 243.537852 
L 532.309039 242.269605 
L 535.969016 241.001359 
L 539.628992 239.733113 
L 543.288968 238.464867 
L 546.948945 237.196621 
L 550.608921 235.928375 
L 554.268898 234.660129 
L 557.928874 233.391883 
L 561.58885 232.123637 
L 565.248827 230.855391 
L 568.908803 229.587145 
L 572.56878 228.318899 
L 576.228756 227.050653 
L 579.888732 225.782407 
L 583.548709 224.514161 
L 587.208685 223.245914 
L 590.868661 221.977668 
L 594.528638 220.709422 
L 598.188614 219.441176 
L 601.848591 218.17293 
L 605.508567 216.904684 
L 609.168543 215.636438 
L 612.82852 214.368192 
L 616.488496 213.099946 
L 620.148473 211.8317 
L 623.808449 210.563454 
L 627.468425 209.295208 
L 631.128402 208.026962 
L 634.788378 206.758716 
L 638.448354 205.490469 
L 642.108331 204.222223 
L 645.768307 202.953977 
L 649.428284 201.685731 
L 653.08826 200.417485 
L 656.748236 199.149239 
L 660.408213 197.880993 
L 664.068189 196.612747 
L 667.728166 195.344501 
L 671.388142 194.076255 
L 675.048118 192.808009 
L 678.708095 191.539763 
L 682.368071 190.271517 
L 686.028048 189.003271 
L 689.688024 187.735025 
L 693.348 186.466778 
L 697.007977 185.198532 
L 700.667953 183.930286 
L 704.327929 182.66204 
L 707.987906 181.393794 
L 711.647882 180.125548 
L 715.307859 178.857302 
L 718.967835 177.589056 
L 722.627811 176.32081 
L 726.287788 175.052564 
L 729.947764 173.784318 
L 733.607741 172.516072 
L 737.267717 171.247826 
L 740.927693 169.97958 
L 744.58767 168.711333 
L 748.247646 167.443087 
L 751.907622 166.174841 
L 755.567599 164.906595 
L 759.227575 163.638349 
L 762.887552 162.370103 
L 766.547528 161.101857 
L 770.207504 159.833611 
L 773.867481 158.565365 
L 777.527457 157.297119 
L 781.187434 156.028873 
L 784.84741 154.760627 
L 788.507386 153.492381 
L 792.167363 152.224135 
L 795.827339 150.955889 
L 799.487316 149.687642 
L 803.147292 148.419396 
L 806.807268 147.15115 
L 810.467245 145.882904 
L 814.127221 144.614658 
L 817.787197 143.346412 
L 821.447174 142.078166 
L 825.10715 140.80992 
L 828.767127 139.541674 
L 832.427103 138.273428 
L 836.087079 137.005182 
L 839.747056 135.736936 
L 843.407032 134.46869 
L 847.067009 133.200444 
L 850.726985 131.932197 
L 854.386961 130.663951 
L 858.046938 129.395705 
L 861.706914 128.127459 
L 865.36689 126.859213 
L 869.026867 125.590967 
" clip-path="url(#p39b96b7570)" style="fill: none; stroke: #ffa500; stroke-width: 2.25; stroke-linecap: square"/>
   </g>
   <g id="patch_8">
    <path d="M 488.572321 309.6 
L 488.572321 57.6 
" style="fill: none; stroke: #000000; stroke-width: 0.8; stroke-linejoin: miter; stroke-linecap: square"/>
   </g>
   <g id="patch_9">
    <path d="M 887.14375 309.6 
L 887.14375 57.6 
" style="fill: none; stroke: #000000; stroke-width: 0.8; stroke-linejoin: miter; stroke-linecap: square"/>
   </g>
   <g id="patch_10">
    <path d="M 488.572321 309.6 
L 887.14375 309.6 
" style="fill: none; stroke: #000000; stroke-width: 0.8; stroke-linejoin: miter; stroke-linecap: square"/>
   </g>
   <g id="patch_11">
    <path d="M 488.572321 57.6 
L 887.14375 57.6 
" style="fill: none; stroke: #000000; stroke-width: 0.8; stroke-linejoin: miter; stroke-linecap: square"/>
   </g>
  </g>
  <g id="axes_3">
   <g id="patch_12">
    <path d="M 50.14375 612 
L 448.715179 612 
L 448.715179 360 
L 50.14375 360 
z
" style="fill: #ffffff"/>
   </g>
   <g id="PathCollection_3">
    <g clip-path="url(#pc5ba916491)">
     <use xlink:href="#m6220692086" x="69.60215" y="563.708017" style="fill: #1f77b4; fill-opacity: 0.8; stroke: #1f77b4; stroke-opacity: 0.8"/>
     <use xlink:href="#m6220692086" x="68.260633" y="600.545455" style="fill: #1f77b4; fill-opacity: 0.8; stroke: #1f77b4; stroke-opacity: 0.8"/>
     <use xlink:href="#m6220692086" x="126.702565" y="598.39869" style="fill: #1f77b4; fill-opacity: 0.8; stroke: #1f77b4; stroke-opacity: 0.8"/>
     <use xlink:href="#m6220692086" x="126.702565" y="477.750565" style="fill: #1f77b4; fill-opacity: 0.8; stroke: #1f77b4; stroke-opacity: 0.8"/>
     <use xlink:href="#m6220692086" x="126.702565" y="440.164926" style="fill: #1f77b4; fill-opacity: 0.8; stroke: #1f77b4; stroke-opacity: 0.8"/>
     <use xlink:href="#m6220692086" x="141.07167" y="549.604205" style="fill: #1f77b4; fill-opacity: 0.8; stroke: #1f77b4; stroke-opacity: 0.8"/>
     <use xlink:href="#m6220692086" x="126.702565" y="577.620153" style="fill: #1f77b4; fill-opacity: 0.8; stroke: #1f77b4; stroke-opacity: 0.8"/>
     <use xlink:href="#m6220692086" x="141.07167" y="479.914056" style="fill: #1f77b4; fill-opacity: 0.8; stroke: #1f77b4; stroke-opacity: 0.8"/>
     <use xlink:href="#m6220692086" x="141.07167" y="543.196312" style="fill: #1f77b4; fill-opacity: 0.8; stroke: #1f77b4; stroke-opacity: 0.8"/>
     <use xlink:href="#m6220692086" x="126.702565" y="569.167038" style="fill: #1f77b4; fill-opacity: 0.8; stroke: #1f77b4; stroke-opacity: 0.8"/>
     <use xlink:href="#m6220692086" x="141.07167" y="544.659141" style="fill: #1f77b4; fill-opacity: 0.8; stroke: #1f77b4; stroke-opacity: 0.8"/>
     <use xlink:href="#m6220692086" x="212.541191" y="455.640391" style="fill: #1f77b4; fill-opacity: 0.8; stroke: #1f77b4; stroke-opacity: 0.8"/>
     <use xlink:href="#m6220692086" x="258.035992" y="458.512975" style="fill: #1f77b4; fill-opacity: 0.8; stroke: #1f77b4; stroke-opacity: 0.8"/>
     <use xlink:href="#m6220692086" x="258.035992" y="449.413601" style="fill: #1f77b4; fill-opacity: 0.8; stroke: #1f77b4; stroke-opacity: 0.8"/>
     <use xlink:href="#m6220692086" x="258.035992" y="524.591338" style="fill: #1f77b4; fill-opacity: 0.8; stroke: #1f77b4; stroke-opacity: 0.8"/>
     <use xlink:href="#m6220692086" x="242.244912" y="511.754564" style="fill: #1f77b4; fill-opacity: 0.8; stroke: #1f77b4; stroke-opacity: 0.8"/>
     <use xlink:href="#m6220692086" x="242.244912" y="430.635053" style="fill: #1f77b4; fill-opacity: 0.8; stroke: #1f77b4; stroke-opacity: 0.8"/>
     <use xlink:href="#m6220692086" x="430.598295" y="425.120155" style="fill: #1f77b4; fill-opacity: 0.8; stroke: #1f77b4; stroke-opacity: 0.8"/>
     <use xlink:href="#m6220692086" x="373.578339" y="488.20914" style="fill: #1f77b4; fill-opacity: 0.8; stroke: #1f77b4; stroke-opacity: 0.8"/>
     <use xlink:href="#m6220692086" x="299.345327" y="498.350078" style="fill: #1f77b4; fill-opacity: 0.8; stroke: #1f77b4; stroke-opacity: 0.8"/>
    </g>
   </g>
   <g id="PolyCollection_3">
    <path d="M 68.260633 520.552656 
L 68.260633 585.371044 
L 71.92061 583.376936 
L 75.580586 581.65631 
L 79.240562 579.925815 
L 82.900539 578.05975 
L 86.560515 575.902624 
L 90.220491 573.741975 
L 93.880468 571.752222 
L 97.540444 569.826011 
L 101.200421 568.062622 
L 104.860397 566.031547 
L 108.520373 564.635601 
L 112.18035 562.410392 
L 115.840326 560.673551 
L 119.500303 558.806417 
L 123.160279 557.218238 
L 126.820255 555.48773 
L 130.480232 553.589311 
L 134.140208 551.934922 
L 137.800184 550.304077 
L 141.460161 548.689174 
L 145.120137 547.002611 
L 148.780114 545.313299 
L 152.44009 543.668752 
L 156.100066 541.942514 
L 159.760043 540.364642 
L 163.420019 538.932468 
L 167.079996 537.437562 
L 170.739972 535.764663 
L 174.399948 534.343001 
L 178.059925 533.141822 
L 181.719901 531.533882 
L 185.379878 529.92736 
L 189.039854 528.633071 
L 192.69983 527.40428 
L 196.359807 525.999053 
L 200.019783 524.777817 
L 203.679759 523.33521 
L 207.339736 521.522772 
L 210.999712 519.961279 
L 214.659689 518.517085 
L 218.319665 517.112163 
L 221.979641 515.704642 
L 225.639618 514.297122 
L 229.299594 512.965429 
L 232.959571 511.81341 
L 236.619547 510.557268 
L 240.279523 509.445922 
L 243.9395 508.184759 
L 247.599476 506.731344 
L 251.259452 505.923516 
L 254.919429 504.849153 
L 258.579405 503.842976 
L 262.239382 502.742162 
L 265.899358 501.673445 
L 269.559334 500.430846 
L 273.219311 498.921456 
L 276.879287 497.866302 
L 280.539264 496.78318 
L 284.19924 495.567171 
L 287.859216 494.395225 
L 291.519193 493.46725 
L 295.179169 492.421232 
L 298.839146 491.334694 
L 302.499122 490.424196 
L 306.159098 489.353458 
L 309.819075 487.952024 
L 313.479051 486.933503 
L 317.139027 485.695485 
L 320.799004 484.758578 
L 324.45898 483.818976 
L 328.118957 482.885391 
L 331.778933 482.180308 
L 335.438909 481.153128 
L 339.098886 480.090796 
L 342.758862 479.141687 
L 346.418839 478.337938 
L 350.078815 477.684261 
L 353.738791 476.711956 
L 357.398768 475.827218 
L 361.058744 475.161836 
L 364.71872 474.38458 
L 368.378697 473.406421 
L 372.038673 472.463052 
L 375.69865 471.702924 
L 379.358626 470.908533 
L 383.018602 469.782412 
L 386.678579 468.836028 
L 390.338555 468.070244 
L 393.998532 467.146538 
L 397.658508 466.36647 
L 401.318484 465.616476 
L 404.978461 464.863165 
L 408.638437 464.109855 
L 412.298414 463.356544 
L 415.95839 462.603234 
L 419.618366 461.849923 
L 423.278343 461.096613 
L 426.938319 460.343302 
L 430.598295 459.589992 
L 430.598295 371.454545 
L 430.598295 371.454545 
L 426.938319 373.307448 
L 423.278343 375.16035 
L 419.618366 377.013253 
L 415.95839 378.866155 
L 412.298414 380.719058 
L 408.638437 382.57196 
L 404.978461 384.424863 
L 401.318484 386.277765 
L 397.658508 388.130667 
L 393.998532 389.98357 
L 390.338555 391.836472 
L 386.678579 393.826837 
L 383.018602 395.872582 
L 379.358626 397.92049 
L 375.69865 399.975776 
L 372.038673 402.031062 
L 368.378697 404.154637 
L 364.71872 406.134999 
L 361.058744 408.174102 
L 357.398768 410.213206 
L 353.738791 412.111098 
L 350.078815 413.864023 
L 346.418839 415.70091 
L 342.758862 417.964674 
L 339.098886 420.177239 
L 335.438909 421.84144 
L 331.778933 423.512875 
L 328.118957 425.235138 
L 324.45898 426.920336 
L 320.799004 428.780637 
L 317.139027 430.779626 
L 313.479051 432.779008 
L 309.819075 434.788169 
L 306.159098 436.79733 
L 302.499122 438.806491 
L 298.839146 440.815651 
L 295.179169 442.829786 
L 291.519193 444.84555 
L 287.859216 446.896294 
L 284.19924 448.858471 
L 280.539264 450.861455 
L 276.879287 452.870616 
L 273.219311 454.879777 
L 269.559334 456.881088 
L 265.899358 458.748415 
L 262.239382 460.820656 
L 258.579405 462.623478 
L 254.919429 464.903022 
L 251.259452 466.328344 
L 247.599476 468.119252 
L 243.9395 469.885154 
L 240.279523 471.319595 
L 236.619547 473.321955 
L 232.959571 475.26252 
L 229.299594 476.934726 
L 225.639618 477.59278 
L 221.979641 478.894241 
L 218.319665 480.473624 
L 214.659689 481.53577 
L 210.999712 482.84627 
L 207.339736 484.185395 
L 203.679759 485.488918 
L 200.019783 486.861488 
L 196.359807 488.195642 
L 192.69983 489.85351 
L 189.039854 491.150671 
L 185.379878 492.209574 
L 181.719901 493.619578 
L 178.059925 494.878118 
L 174.399948 496.134216 
L 170.739972 497.10067 
L 167.079996 498.107521 
L 163.420019 499.004664 
L 159.760043 499.799904 
L 156.100066 500.725958 
L 152.44009 501.594132 
L 148.780114 502.491449 
L 145.120137 503.391326 
L 141.460161 504.315274 
L 137.800184 505.328826 
L 134.140208 506.216082 
L 130.480232 507.185752 
L 126.820255 508.090975 
L 123.160279 508.853874 
L 119.500303 509.678538 
L 115.840326 510.5742 
L 112.18035 511.473217 
L 108.520373 512.338277 
L 104.860397 513.267184 
L 101.200421 514.159666 
L 97.540444 514.995978 
L 93.880468 515.487857 
L 90.220491 516.206864 
L 86.560515 517.026463 
L 82.900539 517.852863 
L 79.240562 518.679263 
L 75.580586 519.505662 
L 71.92061 520.074497 
L 68.260633 520.552656 
z
" clip-path="url(#pc5ba916491)" style="fill: #ffa500; fill-opacity: 0.15"/>
   </g>
   <g id="matplotlib.axis_5">
    <g id="xtick_11">
     <g id="line2d_23">
      <g>
       <use xlink:href="#m88d9b213e8" x="88.669663" y="612" style="stroke: #000000; stroke-width: 0.8"/>
      </g>
     </g>
     <g id="text_24">
      <!-- 0.02 -->
      <g transform="translate(77.536851 626.598437) scale(0.1 -0.1)">
       <use xlink:href="#DejaVuSans-30"/>
       <use xlink:href="#DejaVuSans-2e" x="63.623047"/>
       <use xlink:href="#DejaVuSans-30" x="95.410156"/>
       <use xlink:href="#DejaVuSans-32" x="159.033203"/>
      </g>
     </g>
    </g>
    <g id="xtick_12">
     <g id="line2d_24">
      <g>
       <use xlink:href="#m88d9b213e8" x="166.179109" y="612" style="stroke: #000000; stroke-width: 0.8"/>
      </g>
     </g>
     <g id="text_25">
      <!-- 0.04 -->
      <g transform="translate(155.046296 626.598437) scale(0.1 -0.1)">
       <use xlink:href="#DejaVuSans-30"/>
       <use xlink:href="#DejaVuSans-2e" x="63.623047"/>
       <use xlink:href="#DejaVuSans-30" x="95.410156"/>
       <use xlink:href="#DejaVuSans-34" x="159.033203"/>
      </g>
     </g>
    </g>
    <g id="xtick_13">
     <g id="line2d_25">
      <g>
       <use xlink:href="#m88d9b213e8" x="243.688554" y="612" style="stroke: #000000; stroke-width: 0.8"/>
      </g>
     </g>
     <g id="text_26">
      <!-- 0.06 -->
      <g transform="translate(232.555741 626.598437) scale(0.1 -0.1)">
       <use xlink:href="#DejaVuSans-30"/>
       <use xlink:href="#DejaVuSans-2e" x="63.623047"/>
       <use xlink:href="#DejaVuSans-30" x="95.410156"/>
       <use xlink:href="#DejaVuSans-36" x="159.033203"/>
      </g>
     </g>
    </g>
    <g id="xtick_14">
     <g id="line2d_26">
      <g>
       <use xlink:href="#m88d9b213e8" x="321.197999" y="612" style="stroke: #000000; stroke-width: 0.8"/>
      </g>
     </g>
     <g id="text_27">
      <!-- 0.08 -->
      <g transform="translate(310.065187 626.598437) scale(0.1 -0.1)">
       <use xlink:href="#DejaVuSans-30"/>
       <use xlink:href="#DejaVuSans-2e" x="63.623047"/>
       <use xlink:href="#DejaVuSans-30" x="95.410156"/>
       <use xlink:href="#DejaVuSans-38" x="159.033203"/>
      </g>
     </g>
    </g>
    <g id="xtick_15">
     <g id="line2d_27">
      <g>
       <use xlink:href="#m88d9b213e8" x="398.707444" y="612" style="stroke: #000000; stroke-width: 0.8"/>
      </g>
     </g>
     <g id="text_28">
      <!-- 0.10 -->
      <g transform="translate(387.574632 626.598437) scale(0.1 -0.1)">
       <use xlink:href="#DejaVuSans-30"/>
       <use xlink:href="#DejaVuSans-2e" x="63.623047"/>
       <use xlink:href="#DejaVuSans-31" x="95.410156"/>
       <use xlink:href="#DejaVuSans-30" x="159.033203"/>
      </g>
     </g>
    </g>
    <g id="text_29">
     <!-- Codon+GC -->
     <g transform="translate(221.920871 640.276562) scale(0.1 -0.1)">
      <defs>
       <path id="DejaVuSans-47" d="M 3809 666 
L 3809 1919 
L 2778 1919 
L 2778 2438 
L 4434 2438 
L 4434 434 
Q 4069 175 3628 42 
Q 3188 -91 2688 -91 
Q 1594 -91 976 548 
Q 359 1188 359 2328 
Q 359 3472 976 4111 
Q 1594 4750 2688 4750 
Q 3144 4750 3555 4637 
Q 3966 4525 4313 4306 
L 4313 3634 
Q 3963 3931 3569 4081 
Q 3175 4231 2741 4231 
Q 1884 4231 1454 3753 
Q 1025 3275 1025 2328 
Q 1025 1384 1454 906 
Q 1884 428 2741 428 
Q 3075 428 3337 486 
Q 3600 544 3809 666 
z
" transform="scale(0.015625)"/>
      </defs>
      <use xlink:href="#DejaVuSans-43"/>
      <use xlink:href="#DejaVuSans-6f" x="69.824219"/>
      <use xlink:href="#DejaVuSans-64" x="131.005859"/>
      <use xlink:href="#DejaVuSans-6f" x="194.482422"/>
      <use xlink:href="#DejaVuSans-6e" x="255.664062"/>
      <use xlink:href="#DejaVuSans-2b" x="319.042969"/>
      <use xlink:href="#DejaVuSans-47" x="402.832031"/>
      <use xlink:href="#DejaVuSans-43" x="480.322266"/>
     </g>
    </g>
   </g>
   <g id="matplotlib.axis_6">
    <g id="ytick_11">
     <g id="line2d_28">
      <g>
       <use xlink:href="#mff339303b8" x="50.14375" y="572.241632" style="stroke: #000000; stroke-width: 0.8"/>
      </g>
     </g>
     <g id="text_30">
      <!-- 0.02 -->
      <g transform="translate(20.878125 576.040851) scale(0.1 -0.1)">
       <use xlink:href="#DejaVuSans-30"/>
       <use xlink:href="#DejaVuSans-2e" x="63.623047"/>
       <use xlink:href="#DejaVuSans-30" x="95.410156"/>
       <use xlink:href="#DejaVuSans-32" x="159.033203"/>
      </g>
     </g>
    </g>
    <g id="ytick_12">
     <g id="line2d_29">
      <g>
       <use xlink:href="#mff339303b8" x="50.14375" y="528.922429" style="stroke: #000000; stroke-width: 0.8"/>
      </g>
     </g>
     <g id="text_31">
      <!-- 0.04 -->
      <g transform="translate(20.878125 532.721648) scale(0.1 -0.1)">
       <use xlink:href="#DejaVuSans-30"/>
       <use xlink:href="#DejaVuSans-2e" x="63.623047"/>
       <use xlink:href="#DejaVuSans-30" x="95.410156"/>
       <use xlink:href="#DejaVuSans-34" x="159.033203"/>
      </g>
     </g>
    </g>
    <g id="ytick_13">
     <g id="line2d_30">
      <g>
       <use xlink:href="#mff339303b8" x="50.14375" y="485.603226" style="stroke: #000000; stroke-width: 0.8"/>
      </g>
     </g>
     <g id="text_32">
      <!-- 0.06 -->
      <g transform="translate(20.878125 489.402444) scale(0.1 -0.1)">
       <use xlink:href="#DejaVuSans-30"/>
       <use xlink:href="#DejaVuSans-2e" x="63.623047"/>
       <use xlink:href="#DejaVuSans-30" x="95.410156"/>
       <use xlink:href="#DejaVuSans-36" x="159.033203"/>
      </g>
     </g>
    </g>
    <g id="ytick_14">
     <g id="line2d_31">
      <g>
       <use xlink:href="#mff339303b8" x="50.14375" y="442.284022" style="stroke: #000000; stroke-width: 0.8"/>
      </g>
     </g>
     <g id="text_33">
      <!-- 0.08 -->
      <g transform="translate(20.878125 446.083241) scale(0.1 -0.1)">
       <use xlink:href="#DejaVuSans-30"/>
       <use xlink:href="#DejaVuSans-2e" x="63.623047"/>
       <use xlink:href="#DejaVuSans-30" x="95.410156"/>
       <use xlink:href="#DejaVuSans-38" x="159.033203"/>
      </g>
     </g>
    </g>
    <g id="ytick_15">
     <g id="line2d_32">
      <g>
       <use xlink:href="#mff339303b8" x="50.14375" y="398.964819" style="stroke: #000000; stroke-width: 0.8"/>
      </g>
     </g>
     <g id="text_34">
      <!-- 0.10 -->
      <g transform="translate(20.878125 402.764038) scale(0.1 -0.1)">
       <use xlink:href="#DejaVuSans-30"/>
       <use xlink:href="#DejaVuSans-2e" x="63.623047"/>
       <use xlink:href="#DejaVuSans-31" x="95.410156"/>
       <use xlink:href="#DejaVuSans-30" x="159.033203"/>
      </g>
     </g>
    </g>
    <g id="text_35">
     <!-- Amino acid frequency -->
     <g transform="translate(14.798438 540.539062) rotate(-90) scale(0.1 -0.1)">
      <use xlink:href="#DejaVuSans-41"/>
      <use xlink:href="#DejaVuSans-6d" x="68.408203"/>
      <use xlink:href="#DejaVuSans-69" x="165.820312"/>
      <use xlink:href="#DejaVuSans-6e" x="193.603516"/>
      <use xlink:href="#DejaVuSans-6f" x="256.982422"/>
      <use xlink:href="#DejaVuSans-20" x="318.164062"/>
      <use xlink:href="#DejaVuSans-61" x="349.951172"/>
      <use xlink:href="#DejaVuSans-63" x="411.230469"/>
      <use xlink:href="#DejaVuSans-69" x="466.210938"/>
      <use xlink:href="#DejaVuSans-64" x="493.994141"/>
      <use xlink:href="#DejaVuSans-20" x="557.470703"/>
      <use xlink:href="#DejaVuSans-66" x="589.257812"/>
      <use xlink:href="#DejaVuSans-72" x="624.462891"/>
      <use xlink:href="#DejaVuSans-65" x="663.326172"/>
      <use xlink:href="#DejaVuSans-71" x="724.849609"/>
      <use xlink:href="#DejaVuSans-75" x="788.326172"/>
      <use xlink:href="#DejaVuSans-65" x="851.705078"/>
      <use xlink:href="#DejaVuSans-6e" x="913.228516"/>
      <use xlink:href="#DejaVuSans-63" x="976.607422"/>
      <use xlink:href="#DejaVuSans-79" x="1031.587891"/>
     </g>
    </g>
   </g>
   <g id="line2d_33">
    <path d="M 68.260633 555.54718 
L 71.92061 554.218447 
L 75.580586 552.889713 
L 79.240562 551.56098 
L 82.900539 550.232246 
L 86.560515 548.903513 
L 90.220491 547.57478 
L 93.880468 546.246046 
L 97.540444 544.917313 
L 101.200421 543.58858 
L 104.860397 542.259846 
L 108.520373 540.931113 
L 112.18035 539.60238 
L 115.840326 538.273646 
L 119.500303 536.944913 
L 123.160279 535.61618 
L 126.820255 534.287446 
L 130.480232 532.958713 
L 134.140208 531.629979 
L 137.800184 530.301246 
L 141.460161 528.972513 
L 145.120137 527.643779 
L 148.780114 526.315046 
L 152.44009 524.986313 
L 156.100066 523.657579 
L 159.760043 522.328846 
L 163.420019 521.000113 
L 167.079996 519.671379 
L 170.739972 518.342646 
L 174.399948 517.013912 
L 178.059925 515.685179 
L 181.719901 514.356446 
L 185.379878 513.027712 
L 189.039854 511.698979 
L 192.69983 510.370246 
L 196.359807 509.041512 
L 200.019783 507.712779 
L 203.679759 506.384046 
L 207.339736 505.055312 
L 210.999712 503.726579 
L 214.659689 502.397846 
L 218.319665 501.069112 
L 221.979641 499.740379 
L 225.639618 498.411645 
L 229.299594 497.082912 
L 232.959571 495.754179 
L 236.619547 494.425445 
L 240.279523 493.096712 
L 243.9395 491.767979 
L 247.599476 490.439245 
L 251.259452 489.110512 
L 254.919429 487.781779 
L 258.579405 486.453045 
L 262.239382 485.124312 
L 265.899358 483.795579 
L 269.559334 482.466845 
L 273.219311 481.138112 
L 276.879287 479.809378 
L 280.539264 478.480645 
L 284.19924 477.151912 
L 287.859216 475.823178 
L 291.519193 474.494445 
L 295.179169 473.165712 
L 298.839146 471.836978 
L 302.499122 470.508245 
L 306.159098 469.179512 
L 309.819075 467.850778 
L 313.479051 466.522045 
L 317.139027 465.193311 
L 320.799004 463.864578 
L 324.45898 462.535845 
L 328.118957 461.207111 
L 331.778933 459.878378 
L 335.438909 458.549645 
L 339.098886 457.220911 
L 342.758862 455.892178 
L 346.418839 454.563445 
L 350.078815 453.234711 
L 353.738791 451.905978 
L 357.398768 450.577245 
L 361.058744 449.248511 
L 364.71872 447.919778 
L 368.378697 446.591044 
L 372.038673 445.262311 
L 375.69865 443.933578 
L 379.358626 442.604844 
L 383.018602 441.276111 
L 386.678579 439.947378 
L 390.338555 438.618644 
L 393.998532 437.289911 
L 397.658508 435.961178 
L 401.318484 434.632444 
L 404.978461 433.303711 
L 408.638437 431.974978 
L 412.298414 430.646244 
L 415.95839 429.317511 
L 419.618366 427.988777 
L 423.278343 426.660044 
L 426.938319 425.331311 
L 430.598295 424.002577 
" clip-path="url(#pc5ba916491)" style="fill: none; stroke: #ffa500; stroke-width: 2.25; stroke-linecap: square"/>
   </g>
   <g id="patch_13">
    <path d="M 50.14375 612 
L 50.14375 360 
" style="fill: none; stroke: #000000; stroke-width: 0.8; stroke-linejoin: miter; stroke-linecap: square"/>
   </g>
   <g id="patch_14">
    <path d="M 448.715179 612 
L 448.715179 360 
" style="fill: none; stroke: #000000; stroke-width: 0.8; stroke-linejoin: miter; stroke-linecap: square"/>
   </g>
   <g id="patch_15">
    <path d="M 50.14375 612 
L 448.715179 612 
" style="fill: none; stroke: #000000; stroke-width: 0.8; stroke-linejoin: miter; stroke-linecap: square"/>
   </g>
   <g id="patch_16">
    <path d="M 50.14375 360 
L 448.715179 360 
" style="fill: none; stroke: #000000; stroke-width: 0.8; stroke-linejoin: miter; stroke-linecap: square"/>
   </g>
  </g>
  <g id="axes_4">
   <g id="patch_17">
    <path d="M 488.572321 612 
L 887.14375 612 
L 887.14375 360 
L 488.572321 360 
z
" style="fill: #ffffff"/>
   </g>
   <g id="PathCollection_4">
    <g clip-path="url(#pa9794f61fe)">
     <use xlink:href="#m6220692086" x="508.437486" y="565.059456" style="fill: #1f77b4; fill-opacity: 0.8; stroke: #1f77b4; stroke-opacity: 0.8"/>
     <use xlink:href="#m6220692086" x="506.689205" y="600.545455" style="fill: #1f77b4; fill-opacity: 0.8; stroke: #1f77b4; stroke-opacity: 0.8"/>
     <use xlink:href="#m6220692086" x="565.118082" y="598.477447" style="fill: #1f77b4; fill-opacity: 0.8; stroke: #1f77b4; stroke-opacity: 0.8"/>
     <use xlink:href="#m6220692086" x="565.118082" y="482.255488" style="fill: #1f77b4; fill-opacity: 0.8; stroke: #1f77b4; stroke-opacity: 0.8"/>
     <use xlink:href="#m6220692086" x="565.118082" y="446.048736" style="fill: #1f77b4; fill-opacity: 0.8; stroke: #1f77b4; stroke-opacity: 0.8"/>
     <use xlink:href="#m6220692086" x="580.379045" y="551.473064" style="fill: #1f77b4; fill-opacity: 0.8; stroke: #1f77b4; stroke-opacity: 0.8"/>
     <use xlink:href="#m6220692086" x="565.118082" y="578.461203" style="fill: #1f77b4; fill-opacity: 0.8; stroke: #1f77b4; stroke-opacity: 0.8"/>
     <use xlink:href="#m6220692086" x="580.379045" y="484.339607" style="fill: #1f77b4; fill-opacity: 0.8; stroke: #1f77b4; stroke-opacity: 0.8"/>
     <use xlink:href="#m6220692086" x="580.379045" y="545.300255" style="fill: #1f77b4; fill-opacity: 0.8; stroke: #1f77b4; stroke-opacity: 0.8"/>
     <use xlink:href="#m6220692086" x="565.118082" y="570.318205" style="fill: #1f77b4; fill-opacity: 0.8; stroke: #1f77b4; stroke-opacity: 0.8"/>
     <use xlink:href="#m6220692086" x="580.379045" y="546.709417" style="fill: #1f77b4; fill-opacity: 0.8; stroke: #1f77b4; stroke-opacity: 0.8"/>
     <use xlink:href="#m6220692086" x="652.320603" y="460.95646" style="fill: #1f77b4; fill-opacity: 0.8; stroke: #1f77b4; stroke-opacity: 0.8"/>
     <use xlink:href="#m6220692086" x="694.246695" y="463.723659" style="fill: #1f77b4; fill-opacity: 0.8; stroke: #1f77b4; stroke-opacity: 0.8"/>
     <use xlink:href="#m6220692086" x="694.246695" y="454.958109" style="fill: #1f77b4; fill-opacity: 0.8; stroke: #1f77b4; stroke-opacity: 0.8"/>
     <use xlink:href="#m6220692086" x="694.246695" y="527.377833" style="fill: #1f77b4; fill-opacity: 0.8; stroke: #1f77b4; stroke-opacity: 0.8"/>
     <use xlink:href="#m6220692086" x="680.227554" y="515.011996" style="fill: #1f77b4; fill-opacity: 0.8; stroke: #1f77b4; stroke-opacity: 0.8"/>
     <use xlink:href="#m6220692086" x="680.227554" y="436.868482" style="fill: #1f77b4; fill-opacity: 0.8; stroke: #1f77b4; stroke-opacity: 0.8"/>
     <use xlink:href="#m6220692086" x="869.026867" y="431.555907" style="fill: #1f77b4; fill-opacity: 0.8; stroke: #1f77b4; stroke-opacity: 0.8"/>
     <use xlink:href="#m6220692086" x="809.356168" y="492.330373" style="fill: #1f77b4; fill-opacity: 0.8; stroke: #1f77b4; stroke-opacity: 0.8"/>
     <use xlink:href="#m6220692086" x="736.90815" y="502.099275" style="fill: #1f77b4; fill-opacity: 0.8; stroke: #1f77b4; stroke-opacity: 0.8"/>
    </g>
   </g>
   <g id="PolyCollection_4">
    <path d="M 506.689205 523.089084 
L 506.689205 587.543435 
L 510.349181 585.533899 
L 514.009157 583.663031 
L 517.669134 581.811443 
L 521.32911 580.145762 
L 524.989086 578.196999 
L 528.649063 576.25668 
L 532.309039 574.513642 
L 535.969016 572.736891 
L 539.628992 570.951787 
L 543.288968 569.305132 
L 546.948945 567.668158 
L 550.608921 566.092878 
L 554.268898 564.523883 
L 557.928874 562.954888 
L 561.58885 561.122553 
L 565.248827 559.106814 
L 568.908803 557.48699 
L 572.56878 555.807707 
L 576.228756 554.180761 
L 579.888732 552.620526 
L 583.548709 550.954936 
L 587.208685 549.358416 
L 590.868661 547.734736 
L 594.528638 546.189403 
L 598.188614 544.601315 
L 601.848591 543.064241 
L 605.508567 541.507619 
L 609.168543 539.90095 
L 612.82852 538.467696 
L 616.488496 536.947702 
L 620.148473 535.201747 
L 623.808449 533.71502 
L 627.468425 532.314765 
L 631.128402 530.747087 
L 634.788378 529.183324 
L 638.448354 527.701558 
L 642.108331 526.232764 
L 645.768307 524.769128 
L 649.428284 523.372549 
L 653.08826 522.127925 
L 656.748236 520.559987 
L 660.408213 519.221304 
L 664.068189 517.725106 
L 667.728166 516.52179 
L 671.388142 515.090634 
L 675.048118 513.833004 
L 678.708095 512.725707 
L 682.368071 511.336354 
L 686.028048 510.029455 
L 689.688024 508.656566 
L 693.348 507.474656 
L 697.007977 506.292746 
L 700.667953 505.110456 
L 704.327929 503.914476 
L 707.987906 502.676373 
L 711.647882 501.571597 
L 715.307859 500.429625 
L 718.967835 499.209636 
L 722.627811 498.048479 
L 726.287788 496.930678 
L 729.947764 496.045779 
L 733.607741 494.845907 
L 737.267717 493.865525 
L 740.927693 492.898769 
L 744.58767 491.902439 
L 748.247646 490.839838 
L 751.907622 489.770539 
L 755.567599 488.513177 
L 759.227575 487.640852 
L 762.887552 486.577751 
L 766.547528 485.796014 
L 770.207504 485.007391 
L 773.867481 484.463841 
L 777.527457 483.298613 
L 781.187434 482.490552 
L 784.84741 481.738191 
L 788.507386 480.836818 
L 792.167363 479.820679 
L 795.827339 478.881355 
L 799.487316 478.33464 
L 803.147292 477.56664 
L 806.807268 476.751477 
L 810.467245 476.38003 
L 814.127221 475.684654 
L 817.787197 474.72159 
L 821.447174 473.778166 
L 825.10715 473.185927 
L 828.767127 472.593687 
L 832.427103 471.906746 
L 836.087079 471.203224 
L 839.747056 470.731727 
L 843.407032 469.919055 
L 847.067009 469.338355 
L 850.726985 468.635156 
L 854.386961 467.996783 
L 858.046938 467.356788 
L 861.706914 466.711569 
L 865.36689 466.058385 
L 869.026867 465.088853 
L 869.026867 371.454545 
L 869.026867 371.454545 
L 865.36689 373.473139 
L 861.706914 375.491732 
L 858.046938 377.510326 
L 854.386961 379.528919 
L 850.726985 381.547513 
L 847.067009 383.566106 
L 843.407032 385.5847 
L 839.747056 387.612728 
L 836.087079 389.641238 
L 832.427103 391.669749 
L 828.767127 393.69826 
L 825.10715 395.726771 
L 821.447174 397.755281 
L 817.787197 399.783792 
L 814.127221 401.812303 
L 810.467245 403.840813 
L 806.807268 406.044794 
L 803.147292 408.186463 
L 799.487316 410.109398 
L 795.827339 412.032333 
L 792.167363 413.960016 
L 788.507386 415.981287 
L 784.84741 418.002558 
L 781.187434 420.023829 
L 777.527457 422.048093 
L 773.867481 424.076506 
L 770.207504 426.103095 
L 766.547528 428.119269 
L 762.887552 430.135444 
L 759.227575 432.151618 
L 755.567599 433.825418 
L 751.907622 435.58491 
L 748.247646 437.772811 
L 744.58767 439.934672 
L 740.927693 442.152958 
L 737.267717 444.285525 
L 733.607741 446.313368 
L 729.947764 448.083296 
L 726.287788 450.120262 
L 722.627811 452.122487 
L 718.967835 453.946319 
L 715.307859 455.775513 
L 711.647882 457.616254 
L 707.987906 459.441883 
L 704.327929 461.25311 
L 700.667953 463.11746 
L 697.007977 465.459599 
L 693.348 467.466689 
L 689.688024 469.537905 
L 686.028048 471.053029 
L 682.368071 473.281014 
L 678.708095 475.498424 
L 675.048118 476.635154 
L 671.388142 478.131459 
L 667.728166 479.856879 
L 664.068189 481.359939 
L 660.408213 482.653064 
L 656.748236 484.413061 
L 653.08826 486.29641 
L 649.428284 486.708259 
L 645.768307 488.131082 
L 642.108331 489.516227 
L 638.448354 490.889073 
L 634.788378 491.952986 
L 631.128402 492.786927 
L 627.468425 493.796595 
L 623.808449 494.807485 
L 620.148473 495.790279 
L 616.488496 496.985928 
L 612.82852 498.175023 
L 609.168543 499.157876 
L 605.508567 500.182931 
L 601.848591 501.243923 
L 598.188614 502.031283 
L 594.528638 502.959642 
L 590.868661 503.736681 
L 587.208685 504.51372 
L 583.548709 505.25313 
L 579.888732 506.092157 
L 576.228756 506.949127 
L 572.56878 507.863962 
L 568.908803 508.734276 
L 565.248827 509.510974 
L 561.58885 510.366146 
L 557.928874 511.227265 
L 554.268898 512.071154 
L 550.608921 512.931875 
L 546.948945 513.782813 
L 543.288968 514.63733 
L 539.628992 515.491848 
L 535.969016 516.346696 
L 532.309039 517.208324 
L 528.649063 518.069953 
L 524.989086 518.788183 
L 521.32911 519.582334 
L 517.669134 520.281026 
L 514.009157 521.178553 
L 510.349181 522.182795 
L 506.689205 523.089084 
z
" clip-path="url(#pa9794f61fe)" style="fill: #ffa500; fill-opacity: 0.15"/>
   </g>
   <g id="matplotlib.axis_7">
    <g id="xtick_16">
     <g id="line2d_34">
      <g>
       <use xlink:href="#m88d9b213e8" x="523.465971" y="612" style="stroke: #000000; stroke-width: 0.8"/>
      </g>
     </g>
     <g id="text_36">
      <!-- 0.02 -->
      <g transform="translate(512.333158 626.598437) scale(0.1 -0.1)">
       <use xlink:href="#DejaVuSans-30"/>
       <use xlink:href="#DejaVuSans-2e" x="63.623047"/>
       <use xlink:href="#DejaVuSans-30" x="95.410156"/>
       <use xlink:href="#DejaVuSans-32" x="159.033203"/>
      </g>
     </g>
    </g>
    <g id="xtick_17">
     <g id="line2d_35">
      <g>
       <use xlink:href="#m88d9b213e8" x="596.923332" y="612" style="stroke: #000000; stroke-width: 0.8"/>
      </g>
     </g>
     <g id="text_37">
      <!-- 0.04 -->
      <g transform="translate(585.79052 626.598437) scale(0.1 -0.1)">
       <use xlink:href="#DejaVuSans-30"/>
       <use xlink:href="#DejaVuSans-2e" x="63.623047"/>
       <use xlink:href="#DejaVuSans-30" x="95.410156"/>
       <use xlink:href="#DejaVuSans-34" x="159.033203"/>
      </g>
     </g>
    </g>
    <g id="xtick_18">
     <g id="line2d_36">
      <g>
       <use xlink:href="#m88d9b213e8" x="670.380694" y="612" style="stroke: #000000; stroke-width: 0.8"/>
      </g>
     </g>
     <g id="text_38">
      <!-- 0.06 -->
      <g transform="translate(659.247881 626.598437) scale(0.1 -0.1)">
       <use xlink:href="#DejaVuSans-30"/>
       <use xlink:href="#DejaVuSans-2e" x="63.623047"/>
       <use xlink:href="#DejaVuSans-30" x="95.410156"/>
       <use xlink:href="#DejaVuSans-36" x="159.033203"/>
      </g>
     </g>
    </g>
    <g id="xtick_19">
     <g id="line2d_37">
      <g>
       <use xlink:href="#m88d9b213e8" x="743.838055" y="612" style="stroke: #000000; stroke-width: 0.8"/>
      </g>
     </g>
     <g id="text_39">
      <!-- 0.08 -->
      <g transform="translate(732.705243 626.598437) scale(0.1 -0.1)">
       <use xlink:href="#DejaVuSans-30"/>
       <use xlink:href="#DejaVuSans-2e" x="63.623047"/>
       <use xlink:href="#DejaVuSans-30" x="95.410156"/>
       <use xlink:href="#DejaVuSans-38" x="159.033203"/>
      </g>
     </g>
    </g>
    <g id="xtick_20">
     <g id="line2d_38">
      <g>
       <use xlink:href="#m88d9b213e8" x="817.295417" y="612" style="stroke: #000000; stroke-width: 0.8"/>
      </g>
     </g>
     <g id="text_40">
      <!-- 0.10 -->
      <g transform="translate(806.162604 626.598437) scale(0.1 -0.1)">
       <use xlink:href="#DejaVuSans-30"/>
       <use xlink:href="#DejaVuSans-2e" x="63.623047"/>
       <use xlink:href="#DejaVuSans-31" x="95.410156"/>
       <use xlink:href="#DejaVuSans-30" x="159.033203"/>
      </g>
     </g>
    </g>
    <g id="text_41">
     <!-- Codon+GC+Cost -->
     <g transform="translate(645.043973 640.276562) scale(0.1 -0.1)">
      <use xlink:href="#DejaVuSans-43"/>
      <use xlink:href="#DejaVuSans-6f" x="69.824219"/>
      <use xlink:href="#DejaVuSans-64" x="131.005859"/>
      <use xlink:href="#DejaVuSans-6f" x="194.482422"/>
      <use xlink:href="#DejaVuSans-6e" x="255.664062"/>
      <use xlink:href="#DejaVuSans-2b" x="319.042969"/>
      <use xlink:href="#DejaVuSans-47" x="402.832031"/>
      <use xlink:href="#DejaVuSans-43" x="480.322266"/>
      <use xlink:href="#DejaVuSans-2b" x="550.146484"/>
      <use xlink:href="#DejaVuSans-43" x="633.935547"/>
      <use xlink:href="#DejaVuSans-6f" x="703.759766"/>
      <use xlink:href="#DejaVuSans-73" x="764.941406"/>
      <use xlink:href="#DejaVuSans-74" x="817.041016"/>
     </g>
    </g>
   </g>
   <g id="matplotlib.axis_8">
    <g id="ytick_16">
     <g id="line2d_39">
      <g>
       <use xlink:href="#mff339303b8" x="488.572321" y="573.280002" style="stroke: #000000; stroke-width: 0.8"/>
      </g>
     </g>
     <g id="text_42">
      <!-- 0.02 -->
      <g transform="translate(459.306696 577.079221) scale(0.1 -0.1)">
       <use xlink:href="#DejaVuSans-30"/>
       <use xlink:href="#DejaVuSans-2e" x="63.623047"/>
       <use xlink:href="#DejaVuSans-30" x="95.410156"/>
       <use xlink:href="#DejaVuSans-32" x="159.033203"/>
      </g>
     </g>
    </g>
    <g id="ytick_17">
     <g id="line2d_40">
      <g>
       <use xlink:href="#mff339303b8" x="488.572321" y="531.550032" style="stroke: #000000; stroke-width: 0.8"/>
      </g>
     </g>
     <g id="text_43">
      <!-- 0.04 -->
      <g transform="translate(459.306696 535.34925) scale(0.1 -0.1)">
       <use xlink:href="#DejaVuSans-30"/>
       <use xlink:href="#DejaVuSans-2e" x="63.623047"/>
       <use xlink:href="#DejaVuSans-30" x="95.410156"/>
       <use xlink:href="#DejaVuSans-34" x="159.033203"/>
      </g>
     </g>
    </g>
    <g id="ytick_18">
     <g id="line2d_41">
      <g>
       <use xlink:href="#mff339303b8" x="488.572321" y="489.820061" style="stroke: #000000; stroke-width: 0.8"/>
      </g>
     </g>
     <g id="text_44">
      <!-- 0.06 -->
      <g transform="translate(459.306696 493.61928) scale(0.1 -0.1)">
       <use xlink:href="#DejaVuSans-30"/>
       <use xlink:href="#DejaVuSans-2e" x="63.623047"/>
       <use xlink:href="#DejaVuSans-30" x="95.410156"/>
       <use xlink:href="#DejaVuSans-36" x="159.033203"/>
      </g>
     </g>
    </g>
    <g id="ytick_19">
     <g id="line2d_42">
      <g>
       <use xlink:href="#mff339303b8" x="488.572321" y="448.09009" style="stroke: #000000; stroke-width: 0.8"/>
      </g>
     </g>
     <g id="text_45">
      <!-- 0.08 -->
      <g transform="translate(459.306696 451.889309) scale(0.1 -0.1)">
       <use xlink:href="#DejaVuSans-30"/>
       <use xlink:href="#DejaVuSans-2e" x="63.623047"/>
       <use xlink:href="#DejaVuSans-30" x="95.410156"/>
       <use xlink:href="#DejaVuSans-38" x="159.033203"/>
      </g>
     </g>
    </g>
    <g id="ytick_20">
     <g id="line2d_43">
      <g>
       <use xlink:href="#mff339303b8" x="488.572321" y="406.360119" style="stroke: #000000; stroke-width: 0.8"/>
      </g>
     </g>
     <g id="text_46">
      <!-- 0.10 -->
      <g transform="translate(459.306696 410.159338) scale(0.1 -0.1)">
       <use xlink:href="#DejaVuSans-30"/>
       <use xlink:href="#DejaVuSans-2e" x="63.623047"/>
       <use xlink:href="#DejaVuSans-31" x="95.410156"/>
       <use xlink:href="#DejaVuSans-30" x="159.033203"/>
      </g>
     </g>
    </g>
    <g id="ytick_21">
     <g id="line2d_44">
      <g>
       <use xlink:href="#mff339303b8" x="488.572321" y="364.630149" style="stroke: #000000; stroke-width: 0.8"/>
      </g>
     </g>
     <g id="text_47">
      <!-- 0.12 -->
      <g transform="translate(459.306696 368.429367) scale(0.1 -0.1)">
       <use xlink:href="#DejaVuSans-30"/>
       <use xlink:href="#DejaVuSans-2e" x="63.623047"/>
       <use xlink:href="#DejaVuSans-31" x="95.410156"/>
       <use xlink:href="#DejaVuSans-32" x="159.033203"/>
      </g>
     </g>
    </g>
   </g>
   <g id="line2d_45">
    <path d="M 506.689205 557.475743 
L 510.349181 556.184799 
L 514.009157 554.893855 
L 517.669134 553.602911 
L 521.32911 552.311967 
L 524.989086 551.021023 
L 528.649063 549.730079 
L 532.309039 548.439135 
L 535.969016 547.148191 
L 539.628992 545.857247 
L 543.288968 544.566303 
L 546.948945 543.275359 
L 550.608921 541.984415 
L 554.268898 540.693471 
L 557.928874 539.402527 
L 561.58885 538.111583 
L 565.248827 536.820639 
L 568.908803 535.529695 
L 572.56878 534.238751 
L 576.228756 532.947807 
L 579.888732 531.656863 
L 583.548709 530.365919 
L 587.208685 529.074975 
L 590.868661 527.784031 
L 594.528638 526.493087 
L 598.188614 525.202143 
L 601.848591 523.911199 
L 605.508567 522.620255 
L 609.168543 521.329311 
L 612.82852 520.038367 
L 616.488496 518.747424 
L 620.148473 517.45648 
L 623.808449 516.165536 
L 627.468425 514.874592 
L 631.128402 513.583648 
L 634.788378 512.292704 
L 638.448354 511.00176 
L 642.108331 509.710816 
L 645.768307 508.419872 
L 649.428284 507.128928 
L 653.08826 505.837984 
L 656.748236 504.54704 
L 660.408213 503.256096 
L 664.068189 501.965152 
L 667.728166 500.674208 
L 671.388142 499.383264 
L 675.048118 498.09232 
L 678.708095 496.801376 
L 682.368071 495.510432 
L 686.028048 494.219488 
L 689.688024 492.928544 
L 693.348 491.6376 
L 697.007977 490.346656 
L 700.667953 489.055712 
L 704.327929 487.764768 
L 707.987906 486.473824 
L 711.647882 485.18288 
L 715.307859 483.891936 
L 718.967835 482.600992 
L 722.627811 481.310048 
L 726.287788 480.019104 
L 729.947764 478.72816 
L 733.607741 477.437216 
L 737.267717 476.146272 
L 740.927693 474.855328 
L 744.58767 473.564384 
L 748.247646 472.27344 
L 751.907622 470.982496 
L 755.567599 469.691552 
L 759.227575 468.400608 
L 762.887552 467.109664 
L 766.547528 465.81872 
L 770.207504 464.527776 
L 773.867481 463.236832 
L 777.527457 461.945888 
L 781.187434 460.654944 
L 784.84741 459.364 
L 788.507386 458.073056 
L 792.167363 456.782112 
L 795.827339 455.491168 
L 799.487316 454.200224 
L 803.147292 452.90928 
L 806.807268 451.618336 
L 810.467245 450.327392 
L 814.127221 449.036448 
L 817.787197 447.745505 
L 821.447174 446.454561 
L 825.10715 445.163617 
L 828.767127 443.872673 
L 832.427103 442.581729 
L 836.087079 441.290785 
L 839.747056 439.999841 
L 843.407032 438.708897 
L 847.067009 437.417953 
L 850.726985 436.127009 
L 854.386961 434.836065 
L 858.046938 433.545121 
L 861.706914 432.254177 
L 865.36689 430.963233 
L 869.026867 429.672289 
" clip-path="url(#pa9794f61fe)" style="fill: none; stroke: #ffa500; stroke-width: 2.25; stroke-linecap: square"/>
   </g>
   <g id="patch_18">
    <path d="M 488.572321 612 
L 488.572321 360 
" style="fill: none; stroke: #000000; stroke-width: 0.8; stroke-linejoin: miter; stroke-linecap: square"/>
   </g>
   <g id="patch_19">
    <path d="M 887.14375 612 
L 887.14375 360 
" style="fill: none; stroke: #000000; stroke-width: 0.8; stroke-linejoin: miter; stroke-linecap: square"/>
   </g>
   <g id="patch_20">
    <path d="M 488.572321 612 
L 887.14375 612 
" style="fill: none; stroke: #000000; stroke-width: 0.8; stroke-linejoin: miter; stroke-linecap: square"/>
   </g>
   <g id="patch_21">
    <path d="M 488.572321 360 
L 887.14375 360 
" style="fill: none; stroke: #000000; stroke-width: 0.8; stroke-linejoin: miter; stroke-linecap: square"/>
   </g>
  </g>
  <g id="text_48">
   <!-- Archaea - Comparison between amino acid and factor frequencies for genetic code: Scenedesmus -->
   <g transform="translate(86.074609 18.597656) scale(0.15 -0.15)">
    <defs>
     <path id="DejaVuSans-68" d="M 3513 2113 
L 3513 0 
L 2938 0 
L 2938 2094 
Q 2938 2591 2744 2837 
Q 2550 3084 2163 3084 
Q 1697 3084 1428 2787 
Q 1159 2491 1159 1978 
L 1159 0 
L 581 0 
L 581 4863 
L 1159 4863 
L 1159 2956 
Q 1366 3272 1645 3428 
Q 1925 3584 2291 3584 
Q 2894 3584 3203 3211 
Q 3513 2838 3513 2113 
z
" transform="scale(0.015625)"/>
     <path id="DejaVuSans-2d" d="M 313 2009 
L 1997 2009 
L 1997 1497 
L 313 1497 
L 313 2009 
z
" transform="scale(0.015625)"/>
     <path id="DejaVuSans-70" d="M 1159 525 
L 1159 -1331 
L 581 -1331 
L 581 3500 
L 1159 3500 
L 1159 2969 
Q 1341 3281 1617 3432 
Q 1894 3584 2278 3584 
Q 2916 3584 3314 3078 
Q 3713 2572 3713 1747 
Q 3713 922 3314 415 
Q 2916 -91 2278 -91 
Q 1894 -91 1617 61 
Q 1341 213 1159 525 
z
M 3116 1747 
Q 3116 2381 2855 2742 
Q 2594 3103 2138 3103 
Q 1681 3103 1420 2742 
Q 1159 2381 1159 1747 
Q 1159 1113 1420 752 
Q 1681 391 2138 391 
Q 2594 391 2855 752 
Q 3116 1113 3116 1747 
z
" transform="scale(0.015625)"/>
     <path id="DejaVuSans-62" d="M 3116 1747 
Q 3116 2381 2855 2742 
Q 2594 3103 2138 3103 
Q 1681 3103 1420 2742 
Q 1159 2381 1159 1747 
Q 1159 1113 1420 752 
Q 1681 391 2138 391 
Q 2594 391 2855 752 
Q 3116 1113 3116 1747 
z
M 1159 2969 
Q 1341 3281 1617 3432 
Q 1894 3584 2278 3584 
Q 2916 3584 3314 3078 
Q 3713 2572 3713 1747 
Q 3713 922 3314 415 
Q 2916 -91 2278 -91 
Q 1894 -91 1617 61 
Q 1341 213 1159 525 
L 1159 0 
L 581 0 
L 581 4863 
L 1159 4863 
L 1159 2969 
z
" transform="scale(0.015625)"/>
     <path id="DejaVuSans-77" d="M 269 3500 
L 844 3500 
L 1563 769 
L 2278 3500 
L 2956 3500 
L 3675 769 
L 4391 3500 
L 4966 3500 
L 4050 0 
L 3372 0 
L 2619 2869 
L 1863 0 
L 1184 0 
L 269 3500 
z
" transform="scale(0.015625)"/>
     <path id="DejaVuSans-67" d="M 2906 1791 
Q 2906 2416 2648 2759 
Q 2391 3103 1925 3103 
Q 1463 3103 1205 2759 
Q 947 2416 947 1791 
Q 947 1169 1205 825 
Q 1463 481 1925 481 
Q 2391 481 2648 825 
Q 2906 1169 2906 1791 
z
M 3481 434 
Q 3481 -459 3084 -895 
Q 2688 -1331 1869 -1331 
Q 1566 -1331 1297 -1286 
Q 1028 -1241 775 -1147 
L 775 -588 
Q 1028 -725 1275 -790 
Q 1522 -856 1778 -856 
Q 2344 -856 2625 -561 
Q 2906 -266 2906 331 
L 2906 616 
Q 2728 306 2450 153 
Q 2172 0 1784 0 
Q 1141 0 747 490 
Q 353 981 353 1791 
Q 353 2603 747 3093 
Q 1141 3584 1784 3584 
Q 2172 3584 2450 3431 
Q 2728 3278 2906 2969 
L 2906 3500 
L 3481 3500 
L 3481 434 
z
" transform="scale(0.015625)"/>
     <path id="DejaVuSans-3a" d="M 750 794 
L 1409 794 
L 1409 0 
L 750 0 
L 750 794 
z
M 750 3309 
L 1409 3309 
L 1409 2516 
L 750 2516 
L 750 3309 
z
" transform="scale(0.015625)"/>
     <path id="DejaVuSans-53" d="M 3425 4513 
L 3425 3897 
Q 3066 4069 2747 4153 
Q 2428 4238 2131 4238 
Q 1616 4238 1336 4038 
Q 1056 3838 1056 3469 
Q 1056 3159 1242 3001 
Q 1428 2844 1947 2747 
L 2328 2669 
Q 3034 2534 3370 2195 
Q 3706 1856 3706 1288 
Q 3706 609 3251 259 
Q 2797 -91 1919 -91 
Q 1588 -91 1214 -16 
Q 841 59 441 206 
L 441 856 
Q 825 641 1194 531 
Q 1563 422 1919 422 
Q 2459 422 2753 634 
Q 3047 847 3047 1241 
Q 3047 1584 2836 1778 
Q 2625 1972 2144 2069 
L 1759 2144 
Q 1053 2284 737 2584 
Q 422 2884 422 3419 
Q 422 4038 858 4394 
Q 1294 4750 2059 4750 
Q 2388 4750 2728 4690 
Q 3069 4631 3425 4513 
z
" transform="scale(0.015625)"/>
    </defs>
    <use xlink:href="#DejaVuSans-41"/>
    <use xlink:href="#DejaVuSans-72" x="68.408203"/>
    <use xlink:href="#DejaVuSans-63" x="107.271484"/>
    <use xlink:href="#DejaVuSans-68" x="162.251953"/>
    <use xlink:href="#DejaVuSans-61" x="225.630859"/>
    <use xlink:href="#DejaVuSans-65" x="286.910156"/>
    <use xlink:href="#DejaVuSans-61" x="348.433594"/>
    <use xlink:href="#DejaVuSans-20" x="409.712891"/>
    <use xlink:href="#DejaVuSans-2d" x="441.5"/>
    <use xlink:href="#DejaVuSans-20" x="477.583984"/>
    <use xlink:href="#DejaVuSans-43" x="509.371094"/>
    <use xlink:href="#DejaVuSans-6f" x="579.195312"/>
    <use xlink:href="#DejaVuSans-6d" x="640.376953"/>
    <use xlink:href="#DejaVuSans-70" x="737.789062"/>
    <use xlink:href="#DejaVuSans-61" x="801.265625"/>
    <use xlink:href="#DejaVuSans-72" x="862.544922"/>
    <use xlink:href="#DejaVuSans-69" x="903.658203"/>
    <use xlink:href="#DejaVuSans-73" x="931.441406"/>
    <use xlink:href="#DejaVuSans-6f" x="983.541016"/>
    <use xlink:href="#DejaVuSans-6e" x="1044.722656"/>
    <use xlink:href="#DejaVuSans-20" x="1108.101562"/>
    <use xlink:href="#DejaVuSans-62" x="1139.888672"/>
    <use xlink:href="#DejaVuSans-65" x="1203.365234"/>
    <use xlink:href="#DejaVuSans-74" x="1264.888672"/>
    <use xlink:href="#DejaVuSans-77" x="1304.097656"/>
    <use xlink:href="#DejaVuSans-65" x="1385.884766"/>
    <use xlink:href="#DejaVuSans-65" x="1447.408203"/>
    <use xlink:href="#DejaVuSans-6e" x="1508.931641"/>
    <use xlink:href="#DejaVuSans-20" x="1572.310547"/>
    <use xlink:href="#DejaVuSans-61" x="1604.097656"/>
    <use xlink:href="#DejaVuSans-6d" x="1665.376953"/>
    <use xlink:href="#DejaVuSans-69" x="1762.789062"/>
    <use xlink:href="#DejaVuSans-6e" x="1790.572266"/>
    <use xlink:href="#DejaVuSans-6f" x="1853.951172"/>
    <use xlink:href="#DejaVuSans-20" x="1915.132812"/>
    <use xlink:href="#DejaVuSans-61" x="1946.919922"/>
    <use xlink:href="#DejaVuSans-63" x="2008.199219"/>
    <use xlink:href="#DejaVuSans-69" x="2063.179688"/>
    <use xlink:href="#DejaVuSans-64" x="2090.962891"/>
    <use xlink:href="#DejaVuSans-20" x="2154.439453"/>
    <use xlink:href="#DejaVuSans-61" x="2186.226562"/>
    <use xlink:href="#DejaVuSans-6e" x="2247.505859"/>
    <use xlink:href="#DejaVuSans-64" x="2310.884766"/>
    <use xlink:href="#DejaVuSans-20" x="2374.361328"/>
    <use xlink:href="#DejaVuSans-66" x="2406.148438"/>
    <use xlink:href="#DejaVuSans-61" x="2441.353516"/>
    <use xlink:href="#DejaVuSans-63" x="2502.632812"/>
    <use xlink:href="#DejaVuSans-74" x="2557.613281"/>
    <use xlink:href="#DejaVuSans-6f" x="2596.822266"/>
    <use xlink:href="#DejaVuSans-72" x="2658.003906"/>
    <use xlink:href="#DejaVuSans-20" x="2699.117188"/>
    <use xlink:href="#DejaVuSans-66" x="2730.904297"/>
    <use xlink:href="#DejaVuSans-72" x="2766.109375"/>
    <use xlink:href="#DejaVuSans-65" x="2804.972656"/>
    <use xlink:href="#DejaVuSans-71" x="2866.496094"/>
    <use xlink:href="#DejaVuSans-75" x="2929.972656"/>
    <use xlink:href="#DejaVuSans-65" x="2993.351562"/>
    <use xlink:href="#DejaVuSans-6e" x="3054.875"/>
    <use xlink:href="#DejaVuSans-63" x="3118.253906"/>
    <use xlink:href="#DejaVuSans-69" x="3173.234375"/>
    <use xlink:href="#DejaVuSans-65" x="3201.017578"/>
    <use xlink:href="#DejaVuSans-73" x="3262.541016"/>
    <use xlink:href="#DejaVuSans-20" x="3314.640625"/>
    <use xlink:href="#DejaVuSans-66" x="3346.427734"/>
    <use xlink:href="#DejaVuSans-6f" x="3381.632812"/>
    <use xlink:href="#DejaVuSans-72" x="3442.814453"/>
    <use xlink:href="#DejaVuSans-20" x="3483.927734"/>
    <use xlink:href="#DejaVuSans-67" x="3515.714844"/>
    <use xlink:href="#DejaVuSans-65" x="3579.191406"/>
    <use xlink:href="#DejaVuSans-6e" x="3640.714844"/>
    <use xlink:href="#DejaVuSans-65" x="3704.09375"/>
    <use xlink:href="#DejaVuSans-74" x="3765.617188"/>
    <use xlink:href="#DejaVuSans-69" x="3804.826172"/>
    <use xlink:href="#DejaVuSans-63" x="3832.609375"/>
    <use xlink:href="#DejaVuSans-20" x="3887.589844"/>
    <use xlink:href="#DejaVuSans-63" x="3919.376953"/>
    <use xlink:href="#DejaVuSans-6f" x="3974.357422"/>
    <use xlink:href="#DejaVuSans-64" x="4035.539062"/>
    <use xlink:href="#DejaVuSans-65" x="4099.015625"/>
    <use xlink:href="#DejaVuSans-3a" x="4160.539062"/>
    <use xlink:href="#DejaVuSans-20" x="4194.230469"/>
    <use xlink:href="#DejaVuSans-53" x="4226.017578"/>
    <use xlink:href="#DejaVuSans-63" x="4289.494141"/>
    <use xlink:href="#DejaVuSans-65" x="4344.474609"/>
    <use xlink:href="#DejaVuSans-6e" x="4405.998047"/>
    <use xlink:href="#DejaVuSans-65" x="4469.376953"/>
    <use xlink:href="#DejaVuSans-64" x="4530.900391"/>
    <use xlink:href="#DejaVuSans-65" x="4594.376953"/>
    <use xlink:href="#DejaVuSans-73" x="4655.900391"/>
    <use xlink:href="#DejaVuSans-6d" x="4708"/>
    <use xlink:href="#DejaVuSans-75" x="4805.412109"/>
    <use xlink:href="#DejaVuSans-73" x="4868.791016"/>
   </g>
   <!-- obliquus mitochondrial -->
   <g transform="translate(369.322656 35.394375) scale(0.15 -0.15)">
    <defs>
     <path id="DejaVuSans-6c" d="M 603 4863 
L 1178 4863 
L 1178 0 
L 603 0 
L 603 4863 
z
" transform="scale(0.015625)"/>
    </defs>
    <use xlink:href="#DejaVuSans-6f"/>
    <use xlink:href="#DejaVuSans-62" x="61.181641"/>
    <use xlink:href="#DejaVuSans-6c" x="124.658203"/>
    <use xlink:href="#DejaVuSans-69" x="152.441406"/>
    <use xlink:href="#DejaVuSans-71" x="180.224609"/>
    <use xlink:href="#DejaVuSans-75" x="243.701172"/>
    <use xlink:href="#DejaVuSans-75" x="307.080078"/>
    <use xlink:href="#DejaVuSans-73" x="370.458984"/>
    <use xlink:href="#DejaVuSans-20" x="422.558594"/>
    <use xlink:href="#DejaVuSans-6d" x="454.345703"/>
    <use xlink:href="#DejaVuSans-69" x="551.757812"/>
    <use xlink:href="#DejaVuSans-74" x="579.541016"/>
    <use xlink:href="#DejaVuSans-6f" x="618.75"/>
    <use xlink:href="#DejaVuSans-63" x="679.931641"/>
    <use xlink:href="#DejaVuSans-68" x="734.912109"/>
    <use xlink:href="#DejaVuSans-6f" x="798.291016"/>
    <use xlink:href="#DejaVuSans-6e" x="859.472656"/>
    <use xlink:href="#DejaVuSans-64" x="922.851562"/>
    <use xlink:href="#DejaVuSans-72" x="986.328125"/>
    <use xlink:href="#DejaVuSans-69" x="1027.441406"/>
    <use xlink:href="#DejaVuSans-61" x="1055.224609"/>
    <use xlink:href="#DejaVuSans-6c" x="1116.503906"/>
   </g>
  </g>
 </g>
 <defs>
  <clipPath id="pc4cb7c7ab8">
   <rect x="50.14375" y="57.6" width="398.571429" height="252"/>
  </clipPath>
  <clipPath id="p39b96b7570">
   <rect x="488.572321" y="57.6" width="398.571429" height="252"/>
  </clipPath>
  <clipPath id="pc5ba916491">
   <rect x="50.14375" y="360" width="398.571429" height="252"/>
  </clipPath>
  <clipPath id="pa9794f61fe">
   <rect x="488.572321" y="360" width="398.571429" height="252"/>
  </clipPath>
 </defs>
</svg>
