<?xml version="1.0" encoding="utf-8" standalone="no"?>
<!DOCTYPE svg PUBLIC "-//W3C//DTD SVG 1.1//EN"
  "http://www.w3.org/Graphics/SVG/1.1/DTD/svg11.dtd">
<svg xmlns:xlink="http://www.w3.org/1999/xlink" width="887.98125pt" height="635.878125pt" viewBox="0 0 887.98125 635.878125" xmlns="http://www.w3.org/2000/svg" version="1.1">
 <metadata>
  <rdf:RDF xmlns:dc="http://purl.org/dc/elements/1.1/" xmlns:cc="http://creativecommons.org/ns#" xmlns:rdf="http://www.w3.org/1999/02/22-rdf-syntax-ns#">
   <cc:Work>
    <dc:type rdf:resource="http://purl.org/dc/dcmitype/StillImage"/>
    <dc:date>2024-09-25T14:42:21.105288</dc:date>
    <dc:format>image/svg+xml</dc:format>
    <dc:creator>
     <cc:Agent>
      <dc:title>Matplotlib v3.8.3, https://matplotlib.org/</dc:title>
     </cc:Agent>
    </dc:creator>
   </cc:Work>
  </rdf:RDF>
 </metadata>
 <defs>
  <style type="text/css">*{stroke-linejoin: round; stroke-linecap: butt}</style>
 </defs>
 <g id="figure_1">
  <g id="patch_1">
   <path d="M 0 635.878125 
L 887.98125 635.878125 
L 887.98125 0 
L 0 0 
z
" style="fill: #ffffff"/>
  </g>
  <g id="axes_1">
   <g id="patch_2">
    <path d="M 43.78125 298.643478 
L 880.78125 298.643478 
L 880.78125 57.6 
L 43.78125 57.6 
z
" style="fill: #ffffff"/>
   </g>
   <g id="PolyCollection_1">
    <defs>
     <path id="mebeb420b13" d="M 114.138149 -337.254294 
L 114.138149 -337.234647 
L 117.752119 -337.234647 
L 121.36609 -337.234647 
L 124.98006 -337.234647 
L 128.59403 -337.234647 
L 132.208001 -337.234647 
L 135.821971 -337.234647 
L 139.435941 -337.234647 
L 143.049912 -337.234647 
L 146.663882 -337.234647 
L 150.277852 -337.234647 
L 153.891823 -337.234647 
L 157.505793 -337.234647 
L 161.119763 -337.234647 
L 164.733734 -337.234647 
L 168.347704 -337.234647 
L 171.961674 -337.234647 
L 175.575645 -337.234647 
L 179.189615 -337.234647 
L 182.803585 -337.234647 
L 186.417556 -337.234647 
L 190.031526 -337.234647 
L 193.645496 -337.234647 
L 197.259466 -337.234647 
L 200.873437 -337.234647 
L 204.487407 -337.234647 
L 208.101377 -337.234647 
L 211.715348 -337.234647 
L 215.329318 -337.234647 
L 218.943288 -337.234647 
L 222.557259 -337.234647 
L 226.171229 -337.234647 
L 229.785199 -337.234647 
L 233.39917 -337.234647 
L 237.01314 -337.234647 
L 240.62711 -337.234647 
L 244.241081 -337.234647 
L 247.855051 -337.234647 
L 251.469021 -337.234647 
L 255.082992 -337.234647 
L 258.696962 -337.234647 
L 262.310932 -337.234647 
L 265.924903 -337.234647 
L 269.538873 -337.234647 
L 273.152843 -337.234647 
L 276.766814 -337.234647 
L 280.380784 -337.234647 
L 283.994754 -337.234647 
L 287.608724 -337.234647 
L 291.222695 -337.234647 
L 294.836665 -337.234647 
L 298.450635 -337.234647 
L 302.064606 -337.234647 
L 305.678576 -337.234647 
L 309.292546 -337.234647 
L 312.906517 -337.234647 
L 316.520487 -337.234647 
L 320.134457 -337.234647 
L 323.748428 -337.234647 
L 327.362398 -337.234647 
L 330.976368 -337.234647 
L 334.590339 -337.234647 
L 338.204309 -337.234647 
L 341.818279 -337.234647 
L 345.43225 -337.234647 
L 349.04622 -337.234647 
L 352.66019 -337.234647 
L 356.274161 -337.234647 
L 359.888131 -337.234647 
L 363.502101 -337.234647 
L 367.116071 -337.234647 
L 370.730042 -337.234647 
L 374.344012 -337.234647 
L 377.957982 -337.234647 
L 381.571953 -337.234647 
L 385.185923 -337.234647 
L 388.799893 -337.234647 
L 392.413864 -337.234647 
L 396.027834 -337.234647 
L 399.641804 -337.234647 
L 403.255775 -337.234647 
L 406.869745 -337.234647 
L 410.483715 -337.234647 
L 414.097686 -337.234647 
L 417.711656 -337.234647 
L 421.325626 -337.234647 
L 424.939597 -337.234647 
L 428.553567 -337.234647 
L 432.167537 -337.234647 
L 435.781508 -337.234647 
L 439.395478 -337.234647 
L 443.009448 -337.234647 
L 446.623418 -337.234647 
L 450.237389 -337.234647 
L 453.851359 -337.234647 
L 457.465329 -337.234647 
L 461.0793 -337.234647 
L 464.69327 -337.234647 
L 468.30724 -337.234647 
L 471.921211 -337.234647 
L 475.535181 -337.234647 
L 479.149151 -337.234647 
L 482.763122 -337.234647 
L 486.377092 -337.234647 
L 489.991062 -337.234647 
L 493.605033 -337.234647 
L 497.219003 -337.234647 
L 500.832973 -337.234647 
L 504.446944 -337.234647 
L 508.060914 -337.234647 
L 511.674884 -337.234647 
L 515.288855 -337.234647 
L 518.902825 -337.234647 
L 522.516795 -337.234647 
L 526.130765 -337.234647 
L 529.744736 -337.234647 
L 533.358706 -337.234647 
L 536.972676 -337.234647 
L 540.586647 -337.234647 
L 544.200617 -337.234647 
L 547.814587 -337.234647 
L 551.428558 -337.234647 
L 555.042528 -337.234647 
L 558.656498 -337.234647 
L 562.270469 -337.234647 
L 565.884439 -337.234647 
L 569.498409 -337.234647 
L 573.11238 -337.234647 
L 576.72635 -337.234647 
L 580.34032 -337.234647 
L 583.954291 -337.234647 
L 587.568261 -337.234647 
L 591.182231 -337.234647 
L 594.796202 -337.234647 
L 598.410172 -337.234647 
L 602.024142 -337.234647 
L 605.638113 -337.234647 
L 609.252083 -337.234647 
L 612.866053 -337.234647 
L 616.480023 -337.234647 
L 620.093994 -337.234647 
L 623.707964 -337.234647 
L 627.321934 -337.234647 
L 630.935905 -337.234647 
L 634.549875 -337.234647 
L 638.163845 -337.234647 
L 641.777816 -337.234647 
L 645.391786 -337.234647 
L 649.005756 -337.234647 
L 652.619727 -337.234647 
L 656.233697 -337.234647 
L 659.847667 -337.234647 
L 663.461638 -337.234647 
L 667.075608 -337.234647 
L 670.689578 -337.234647 
L 674.303549 -337.234647 
L 677.917519 -337.234647 
L 681.531489 -337.234647 
L 685.14546 -337.234647 
L 688.75943 -337.234647 
L 692.3734 -337.234647 
L 695.98737 -337.234647 
L 699.601341 -337.234647 
L 703.215311 -337.234647 
L 706.829281 -337.234647 
L 710.443252 -337.234647 
L 714.057222 -337.234647 
L 717.671192 -337.234647 
L 721.285163 -337.234647 
L 724.899133 -337.234647 
L 728.513103 -337.234647 
L 732.127074 -337.234647 
L 735.741044 -337.234647 
L 739.355014 -337.234647 
L 742.968985 -337.234647 
L 746.582955 -337.234647 
L 750.196925 -337.234647 
L 753.810896 -337.234647 
L 757.424866 -337.234647 
L 761.038836 -337.234647 
L 764.652807 -337.234647 
L 768.266777 -337.234647 
L 771.880747 -337.234647 
L 775.494717 -337.234647 
L 779.108688 -337.234647 
L 782.722658 -337.234647 
L 786.336628 -337.234647 
L 789.950599 -337.234647 
L 793.564569 -337.234647 
L 797.178539 -337.234647 
L 800.79251 -337.234647 
L 804.40648 -337.234647 
L 808.02045 -337.234647 
L 811.634421 -337.234647 
L 815.248391 -337.234647 
L 818.862361 -337.234647 
L 822.476332 -337.234647 
L 826.090302 -337.234647 
L 829.704272 -337.234647 
L 833.318243 -337.234647 
L 833.318243 -337.256191 
L 833.318243 -337.256191 
L 829.704272 -337.266964 
L 826.090302 -337.282342 
L 822.476332 -337.303913 
L 818.862361 -337.333663 
L 815.248391 -337.374012 
L 811.634421 -337.427851 
L 808.02045 -337.498572 
L 804.40648 -337.59008 
L 800.79251 -337.706815 
L 797.178539 -337.853779 
L 793.564569 -338.036591 
L 789.950599 -338.261596 
L 786.336628 -338.536039 
L 782.722658 -338.868342 
L 779.108688 -339.268489 
L 775.494717 -339.748534 
L 771.880747 -340.323221 
L 768.266777 -341.010696 
L 764.652807 -341.833267 
L 761.038836 -342.818149 
L 757.424866 -343.998128 
L 753.810896 -345.41205 
L 750.196925 -347.10505 
L 746.582955 -349.128453 
L 742.968985 -351.539257 
L 739.355014 -354.399158 
L 735.741044 -357.773071 
L 732.127074 -361.727139 
L 728.513103 -366.326228 
L 724.899133 -371.630939 
L 721.285163 -377.694199 
L 717.671192 -384.557499 
L 714.057222 -392.246924 
L 710.443252 -400.769136 
L 706.829281 -410.107547 
L 703.215311 -420.218943 
L 699.601341 -431.030908 
L 695.98737 -442.440378 
L 692.3734 -454.313682 
L 688.75943 -466.488343 
L 685.14546 -478.776853 
L 681.531489 -490.972442 
L 677.917519 -502.856712 
L 674.303549 -514.208777 
L 670.689578 -524.815358 
L 667.075608 -534.481116 
L 663.461638 -543.03841 
L 659.847667 -550.355638 
L 656.233697 -556.343433 
L 652.619727 -560.958118 
L 649.005756 -564.202134 
L 645.391786 -566.121391 
L 641.777816 -566.799864 
L 638.163845 -566.351954 
L 634.549875 -564.913397 
L 630.935905 -562.631576 
L 627.321934 -559.656083 
L 623.707964 -556.130324 
L 620.093994 -552.184737 
L 616.480023 -547.931999 
L 612.866053 -543.464361 
L 609.252083 -538.85302 
L 605.638113 -534.149251 
L 602.024142 -529.386926 
L 598.410172 -524.585959 
L 594.796202 -519.756215 
L 591.182231 -514.90148 
L 587.568261 -510.023127 
L 583.954291 -505.123225 
L 580.34032 -500.206925 
L 576.72635 -495.284019 
L 573.11238 -490.369673 
L 569.498409 -485.484364 
L 565.884439 -480.653129 
L 562.270469 -475.90422 
L 558.656498 -471.267338 
L 555.042528 -466.771583 
L 551.428558 -462.443304 
L 547.814587 -458.30401 
L 544.200617 -454.368524 
L 540.586647 -450.643533 
L 536.972676 -447.126674 
L 533.358706 -443.806287 
L 529.744736 -440.661884 
L 526.130765 -437.665365 
L 522.516795 -434.782925 
L 518.902825 -431.977529 
L 515.288855 -429.21177 
L 511.674884 -426.450876 
L 508.060914 -423.665573 
L 504.446944 -420.834555 
L 500.832973 -417.94628 
L 497.219003 -414.99994 
L 493.605033 -412.005469 
L 489.991062 -408.982612 
L 486.377092 -405.959133 
L 482.763122 -402.968369 
L 479.149151 -400.046356 
L 475.535181 -397.228829 
L 471.921211 -394.548381 
L 468.30724 -392.032016 
L 464.69327 -389.699314 
L 461.0793 -387.561308 
L 457.465329 -385.620144 
L 453.851359 -383.869477 
L 450.237389 -382.295524 
L 446.623418 -380.87864 
L 443.009448 -379.59525 
L 439.395478 -378.419947 
L 435.781508 -377.327581 
L 432.167537 -376.295166 
L 428.553567 -375.303441 
L 424.939597 -374.337976 
L 421.325626 -373.389732 
L 417.711656 -372.455046 
L 414.097686 -371.535059 
L 410.483715 -370.634643 
L 406.869745 -369.760977 
L 403.255775 -368.921899 
L 399.641804 -368.124239 
L 396.027834 -367.372315 
L 392.413864 -366.666768 
L 388.799893 -366.003863 
L 385.185923 -365.375358 
L 381.571953 -364.76895 
L 377.957982 -364.169256 
L 374.344012 -363.559225 
L 370.730042 -362.921821 
L 367.116071 -362.241782 
L 363.502101 -361.507264 
L 359.888131 -360.711168 
L 356.274161 -359.852 
L 352.66019 -358.934167 
L 349.04622 -357.967665 
L 345.43225 -356.967208 
L 341.818279 -355.950883 
L 338.204309 -354.938506 
L 334.590339 -353.94985 
L 330.976368 -353.002958 
L 327.362398 -352.112705 
L 323.748428 -351.289765 
L 320.134457 -350.54006 
L 316.520487 -349.8647 
L 312.906517 -349.2604 
L 309.292546 -348.720242 
L 305.678576 -348.234696 
L 302.064606 -347.792722 
L 298.450635 -347.38285 
L 294.836665 -346.994115 
L 291.222695 -346.616792 
L 287.608724 -346.242879 
L 283.994754 -345.866366 
L 280.380784 -345.483304 
L 276.766814 -345.091725 
L 273.152843 -344.691484 
L 269.538873 -344.28405 
L 265.924903 -343.872286 
L 262.310932 -343.46022 
L 258.696962 -343.05282 
L 255.082992 -342.655729 
L 251.469021 -342.274977 
L 247.855051 -341.916627 
L 244.241081 -341.586377 
L 240.62711 -341.289122 
L 237.01314 -341.028521 
L 233.39917 -340.806595 
L 229.785199 -340.623429 
L 226.171229 -340.477015 
L 222.557259 -340.363267 
L 218.943288 -340.276238 
L 215.329318 -340.208522 
L 211.715348 -340.151814 
L 208.101377 -340.097573 
L 204.487407 -340.037714 
L 200.873437 -339.965262 
L 197.259466 -339.874891 
L 193.645496 -339.763292 
L 190.031526 -339.629336 
L 186.417556 -339.474026 
L 182.803585 -339.300249 
L 179.189615 -339.112377 
L 175.575645 -338.915763 
L 171.961674 -338.7162 
L 168.347704 -338.519404 
L 164.733734 -338.330566 
L 161.119763 -338.154015 
L 157.505793 -337.993012 
L 153.891823 -337.849664 
L 150.277852 -337.724958 
L 146.663882 -337.618883 
L 143.049912 -337.530612 
L 139.435941 -337.458714 
L 135.821971 -337.401371 
L 132.208001 -337.35657 
L 128.59403 -337.322273 
L 124.98006 -337.296539 
L 121.36609 -337.277608 
L 117.752119 -337.263954 
L 114.138149 -337.254294 
z
" style="stroke: #ff7f0e; stroke-width: 2.5"/>
    </defs>
    <g clip-path="url(#p72a8a42060)">
     <use xlink:href="#mebeb420b13" x="0" y="635.878125" style="fill: #ff7f0e; fill-opacity: 0.5; stroke: #ff7f0e; stroke-width: 2.5"/>
    </g>
   </g>
   <g id="PolyCollection_2">
    <defs>
     <path id="mc4a99fdca2" d="M 81.770698 -337.254061 
L 81.770698 -337.234647 
L 85.588732 -337.234647 
L 89.406767 -337.234647 
L 93.224802 -337.234647 
L 97.042837 -337.234647 
L 100.860872 -337.234647 
L 104.678907 -337.234647 
L 108.496942 -337.234647 
L 112.314977 -337.234647 
L 116.133012 -337.234647 
L 119.951047 -337.234647 
L 123.769082 -337.234647 
L 127.587117 -337.234647 
L 131.405152 -337.234647 
L 135.223187 -337.234647 
L 139.041222 -337.234647 
L 142.859256 -337.234647 
L 146.677291 -337.234647 
L 150.495326 -337.234647 
L 154.313361 -337.234647 
L 158.131396 -337.234647 
L 161.949431 -337.234647 
L 165.767466 -337.234647 
L 169.585501 -337.234647 
L 173.403536 -337.234647 
L 177.221571 -337.234647 
L 181.039606 -337.234647 
L 184.857641 -337.234647 
L 188.675676 -337.234647 
L 192.493711 -337.234647 
L 196.311745 -337.234647 
L 200.12978 -337.234647 
L 203.947815 -337.234647 
L 207.76585 -337.234647 
L 211.583885 -337.234647 
L 215.40192 -337.234647 
L 219.219955 -337.234647 
L 223.03799 -337.234647 
L 226.856025 -337.234647 
L 230.67406 -337.234647 
L 234.492095 -337.234647 
L 238.31013 -337.234647 
L 242.128165 -337.234647 
L 245.9462 -337.234647 
L 249.764235 -337.234647 
L 253.582269 -337.234647 
L 257.400304 -337.234647 
L 261.218339 -337.234647 
L 265.036374 -337.234647 
L 268.854409 -337.234647 
L 272.672444 -337.234647 
L 276.490479 -337.234647 
L 280.308514 -337.234647 
L 284.126549 -337.234647 
L 287.944584 -337.234647 
L 291.762619 -337.234647 
L 295.580654 -337.234647 
L 299.398689 -337.234647 
L 303.216724 -337.234647 
L 307.034758 -337.234647 
L 310.852793 -337.234647 
L 314.670828 -337.234647 
L 318.488863 -337.234647 
L 322.306898 -337.234647 
L 326.124933 -337.234647 
L 329.942968 -337.234647 
L 333.761003 -337.234647 
L 337.579038 -337.234647 
L 341.397073 -337.234647 
L 345.215108 -337.234647 
L 349.033143 -337.234647 
L 352.851178 -337.234647 
L 356.669213 -337.234647 
L 360.487248 -337.234647 
L 364.305282 -337.234647 
L 368.123317 -337.234647 
L 371.941352 -337.234647 
L 375.759387 -337.234647 
L 379.577422 -337.234647 
L 383.395457 -337.234647 
L 387.213492 -337.234647 
L 391.031527 -337.234647 
L 394.849562 -337.234647 
L 398.667597 -337.234647 
L 402.485632 -337.234647 
L 406.303667 -337.234647 
L 410.121702 -337.234647 
L 413.939737 -337.234647 
L 417.757771 -337.234647 
L 421.575806 -337.234647 
L 425.393841 -337.234647 
L 429.211876 -337.234647 
L 433.029911 -337.234647 
L 436.847946 -337.234647 
L 440.665981 -337.234647 
L 444.484016 -337.234647 
L 448.302051 -337.234647 
L 452.120086 -337.234647 
L 455.938121 -337.234647 
L 459.756156 -337.234647 
L 463.574191 -337.234647 
L 467.392226 -337.234647 
L 471.210261 -337.234647 
L 475.028295 -337.234647 
L 478.84633 -337.234647 
L 482.664365 -337.234647 
L 486.4824 -337.234647 
L 490.300435 -337.234647 
L 494.11847 -337.234647 
L 497.936505 -337.234647 
L 501.75454 -337.234647 
L 505.572575 -337.234647 
L 509.39061 -337.234647 
L 513.208645 -337.234647 
L 517.02668 -337.234647 
L 520.844715 -337.234647 
L 524.66275 -337.234647 
L 528.480784 -337.234647 
L 532.298819 -337.234647 
L 536.116854 -337.234647 
L 539.934889 -337.234647 
L 543.752924 -337.234647 
L 547.570959 -337.234647 
L 551.388994 -337.234647 
L 555.207029 -337.234647 
L 559.025064 -337.234647 
L 562.843099 -337.234647 
L 566.661134 -337.234647 
L 570.479169 -337.234647 
L 574.297204 -337.234647 
L 578.115239 -337.234647 
L 581.933274 -337.234647 
L 585.751308 -337.234647 
L 589.569343 -337.234647 
L 593.387378 -337.234647 
L 597.205413 -337.234647 
L 601.023448 -337.234647 
L 604.841483 -337.234647 
L 608.659518 -337.234647 
L 612.477553 -337.234647 
L 616.295588 -337.234647 
L 620.113623 -337.234647 
L 623.931658 -337.234647 
L 627.749693 -337.234647 
L 631.567728 -337.234647 
L 635.385763 -337.234647 
L 639.203798 -337.234647 
L 643.021832 -337.234647 
L 646.839867 -337.234647 
L 650.657902 -337.234647 
L 654.475937 -337.234647 
L 658.293972 -337.234647 
L 662.112007 -337.234647 
L 665.930042 -337.234647 
L 669.748077 -337.234647 
L 673.566112 -337.234647 
L 677.384147 -337.234647 
L 681.202182 -337.234647 
L 685.020217 -337.234647 
L 688.838252 -337.234647 
L 692.656287 -337.234647 
L 696.474321 -337.234647 
L 700.292356 -337.234647 
L 704.110391 -337.234647 
L 707.928426 -337.234647 
L 711.746461 -337.234647 
L 715.564496 -337.234647 
L 719.382531 -337.234647 
L 723.200566 -337.234647 
L 727.018601 -337.234647 
L 730.836636 -337.234647 
L 734.654671 -337.234647 
L 738.472706 -337.234647 
L 742.290741 -337.234647 
L 746.108776 -337.234647 
L 749.926811 -337.234647 
L 753.744845 -337.234647 
L 757.56288 -337.234647 
L 761.380915 -337.234647 
L 765.19895 -337.234647 
L 769.016985 -337.234647 
L 772.83502 -337.234647 
L 776.653055 -337.234647 
L 780.47109 -337.234647 
L 784.289125 -337.234647 
L 788.10716 -337.234647 
L 791.925195 -337.234647 
L 795.74323 -337.234647 
L 799.561265 -337.234647 
L 803.3793 -337.234647 
L 807.197334 -337.234647 
L 811.015369 -337.234647 
L 814.833404 -337.234647 
L 818.651439 -337.234647 
L 822.469474 -337.234647 
L 826.287509 -337.234647 
L 830.105544 -337.234647 
L 833.923579 -337.234647 
L 837.741614 -337.234647 
L 841.559649 -337.234647 
L 841.559649 -337.257489 
L 841.559649 -337.257489 
L 837.741614 -337.268306 
L 833.923579 -337.283567 
L 830.105544 -337.30479 
L 826.287509 -337.333885 
L 822.469474 -337.373215 
L 818.651439 -337.425656 
L 814.833404 -337.494647 
L 811.015369 -337.584245 
L 807.197334 -337.699163 
L 803.3793 -337.844815 
L 799.561265 -338.027365 
L 795.74323 -338.25378 
L 791.925195 -338.531916 
L 788.10716 -338.870635 
L 784.289125 -339.27997 
L 780.47109 -339.771348 
L 776.653055 -340.357877 
L 772.83502 -341.054682 
L 769.016985 -341.879298 
L 765.19895 -342.852064 
L 761.380915 -343.99651 
L 757.56288 -345.339661 
L 753.744845 -346.912222 
L 749.926811 -348.748571 
L 746.108776 -350.886508 
L 742.290741 -353.366717 
L 738.472706 -356.231895 
L 734.654671 -359.525554 
L 730.836636 -363.290482 
L 727.018601 -367.566924 
L 723.200566 -372.390518 
L 719.382531 -377.79007 
L 715.564496 -383.785275 
L 711.746461 -390.384462 
L 707.928426 -397.582503 
L 704.110391 -405.358978 
L 700.292356 -413.67673 
L 696.474321 -422.480898 
L 692.656287 -431.698565 
L 688.838252 -441.239082 
L 685.020217 -450.995174 
L 681.202182 -460.844866 
L 677.384147 -470.654255 
L 673.566112 -480.281097 
L 669.748077 -489.579118 
L 665.930042 -498.402895 
L 662.112007 -506.613085 
L 658.293972 -514.081723 
L 654.475937 -520.697245 
L 650.657902 -526.368912 
L 646.839867 -531.030281 
L 643.021832 -534.641469 
L 639.203798 -537.190001 
L 635.385763 -538.69018 
L 631.567728 -539.181034 
L 627.749693 -538.723028 
L 623.931658 -537.393841 
L 620.113623 -535.283592 
L 616.295588 -532.489949 
L 612.477553 -529.113499 
L 608.659518 -525.253768 
L 604.841483 -521.006111 
L 601.023448 -516.459617 
L 597.205413 -511.69604 
L 593.387378 -506.789601 
L 589.569343 -501.807483 
L 585.751308 -496.810718 
L 581.933274 -491.855179 
L 578.115239 -486.992401 
L 574.297204 -482.270038 
L 570.479169 -477.731796 
L 566.661134 -473.416839 
L 562.843099 -469.358706 
L 559.025064 -465.583891 
L 555.207029 -462.110279 
L 551.388994 -458.945667 
L 547.570959 -456.086595 
L 543.752924 -453.51771 
L 539.934889 -451.211785 
L 536.116854 -449.130538 
L 532.298819 -447.226226 
L 528.480784 -445.444003 
L 524.66275 -443.724908 
L 520.844715 -442.009298 
L 517.02668 -440.240509 
L 513.208645 -438.368473 
L 509.39061 -436.353015 
L 505.572575 -434.166561 
L 501.75454 -431.796018 
L 497.936505 -429.243629 
L 494.11847 -426.526714 
L 490.300435 -423.676249 
L 486.4824 -420.734389 
L 482.664365 -417.751095 
L 478.84633 -414.780147 
L 475.028295 -411.874882 
L 471.210261 -409.08401 
L 467.392226 -406.447905 
L 463.574191 -403.995685 
L 459.756156 -401.743343 
L 455.938121 -399.693085 
L 452.120086 -397.833904 
L 448.302051 -396.143302 
L 444.484016 -394.589971 
L 440.665981 -393.137113 
L 436.847946 -391.746102 
L 433.029911 -390.380076 
L 429.211876 -389.007161 
L 425.393841 -387.60302 
L 421.575806 -386.15254 
L 417.757771 -384.650547 
L 413.939737 -383.101558 
L 410.121702 -381.518664 
L 406.303667 -379.921715 
L 402.485632 -378.335035 
L 398.667597 -376.784933 
L 394.849562 -375.297233 
L 391.031527 -373.895072 
L 387.213492 -372.597125 
L 383.395457 -371.416381 
L 379.577422 -370.359507 
L 375.759387 -369.426806 
L 371.941352 -368.612678 
L 368.123317 -367.906498 
L 364.305282 -367.293763 
L 360.487248 -366.75738 
L 356.669213 -366.278952 
L 352.851178 -365.839967 
L 349.033143 -365.422785 
L 345.215108 -365.011408 
L 341.397073 -364.591984 
L 337.579038 -364.153084 
L 333.761003 -363.685766 
L 329.942968 -363.183496 
L 326.124933 -362.641949 
L 322.306898 -362.058764 
L 318.488863 -361.433276 
L 314.670828 -360.766267 
L 310.852793 -360.059743 
L 307.034758 -359.316749 
L 303.216724 -358.54122 
L 299.398689 -357.737862 
L 295.580654 -356.912045 
L 291.762619 -356.069707 
L 287.944584 -355.217244 
L 284.126549 -354.361388 
L 280.308514 -353.509061 
L 276.490479 -352.667199 
L 272.672444 -351.842557 
L 268.854409 -351.041487 
L 265.036374 -350.269716 
L 261.218339 -349.53213 
L 257.400304 -348.832583 
L 253.582269 -348.173761 
L 249.764235 -347.557097 
L 245.9462 -346.982775 
L 242.128165 -346.449801 
L 238.31013 -345.956158 
L 234.492095 -345.499007 
L 230.67406 -345.074938 
L 226.856025 -344.680223 
L 223.03799 -344.311047 
L 219.219955 -343.963711 
L 215.40192 -343.634764 
L 211.583885 -343.321086 
L 207.76585 -343.019904 
L 203.947815 -342.728776 
L 200.12978 -342.445538 
L 196.311745 -342.168269 
L 192.493711 -341.895251 
L 188.675676 -341.624982 
L 184.857641 -341.356205 
L 181.039606 -341.087977 
L 177.221571 -340.819751 
L 173.403536 -340.551459 
L 169.585501 -340.283564 
L 165.767466 -340.017091 
L 161.949431 -339.753592 
L 158.131396 -339.495073 
L 154.313361 -339.243863 
L 150.495326 -339.002453 
L 146.677291 -338.773315 
L 142.859256 -338.558726 
L 139.041222 -338.360607 
L 135.223187 -338.1804 
L 131.405152 -338.018993 
L 127.587117 -337.876688 
L 123.769082 -337.753224 
L 119.951047 -337.647833 
L 116.133012 -337.559333 
L 112.314977 -337.486231 
L 108.496942 -337.426837 
L 104.678907 -337.379373 
L 100.860872 -337.342066 
L 97.042837 -337.313222 
L 93.224802 -337.291286 
L 89.406767 -337.274877 
L 85.588732 -337.262802 
L 81.770698 -337.254061 
z
" style="stroke: #1f77b4; stroke-width: 2.5"/>
    </defs>
    <g clip-path="url(#p72a8a42060)">
     <use xlink:href="#mc4a99fdca2" x="0" y="635.878125" style="fill: #1f77b4; fill-opacity: 0.5; stroke: #1f77b4; stroke-width: 2.5"/>
    </g>
   </g>
   <g id="matplotlib.axis_1">
    <g id="xtick_1">
     <g id="line2d_1">
      <defs>
       <path id="mae58bda3e2" d="M 0 0 
L 0 3.5 
" style="stroke: #000000; stroke-width: 0.8"/>
      </defs>
      <g>
       <use xlink:href="#mae58bda3e2" x="66.363173" y="298.643478" style="stroke: #000000; stroke-width: 0.8"/>
      </g>
     </g>
     <g id="text_1">
      <!-- 0.0 -->
      <g transform="translate(58.41161 313.241916) scale(0.1 -0.1)">
       <defs>
        <path id="DejaVuSans-30" d="M 2034 4250 
Q 1547 4250 1301 3770 
Q 1056 3291 1056 2328 
Q 1056 1369 1301 889 
Q 1547 409 2034 409 
Q 2525 409 2770 889 
Q 3016 1369 3016 2328 
Q 3016 3291 2770 3770 
Q 2525 4250 2034 4250 
z
M 2034 4750 
Q 2819 4750 3233 4129 
Q 3647 3509 3647 2328 
Q 3647 1150 3233 529 
Q 2819 -91 2034 -91 
Q 1250 -91 836 529 
Q 422 1150 422 2328 
Q 422 3509 836 4129 
Q 1250 4750 2034 4750 
z
" transform="scale(0.015625)"/>
        <path id="DejaVuSans-2e" d="M 684 794 
L 1344 794 
L 1344 0 
L 684 0 
L 684 794 
z
" transform="scale(0.015625)"/>
       </defs>
       <use xlink:href="#DejaVuSans-30"/>
       <use xlink:href="#DejaVuSans-2e" x="63.623047"/>
       <use xlink:href="#DejaVuSans-30" x="95.410156"/>
      </g>
     </g>
    </g>
    <g id="xtick_2">
     <g id="line2d_2">
      <g>
       <use xlink:href="#mae58bda3e2" x="219.784857" y="298.643478" style="stroke: #000000; stroke-width: 0.8"/>
      </g>
     </g>
     <g id="text_2">
      <!-- 0.2 -->
      <g transform="translate(211.833294 313.241916) scale(0.1 -0.1)">
       <defs>
        <path id="DejaVuSans-32" d="M 1228 531 
L 3431 531 
L 3431 0 
L 469 0 
L 469 531 
Q 828 903 1448 1529 
Q 2069 2156 2228 2338 
Q 2531 2678 2651 2914 
Q 2772 3150 2772 3378 
Q 2772 3750 2511 3984 
Q 2250 4219 1831 4219 
Q 1534 4219 1204 4116 
Q 875 4013 500 3803 
L 500 4441 
Q 881 4594 1212 4672 
Q 1544 4750 1819 4750 
Q 2544 4750 2975 4387 
Q 3406 4025 3406 3419 
Q 3406 3131 3298 2873 
Q 3191 2616 2906 2266 
Q 2828 2175 2409 1742 
Q 1991 1309 1228 531 
z
" transform="scale(0.015625)"/>
       </defs>
       <use xlink:href="#DejaVuSans-30"/>
       <use xlink:href="#DejaVuSans-2e" x="63.623047"/>
       <use xlink:href="#DejaVuSans-32" x="95.410156"/>
      </g>
     </g>
    </g>
    <g id="xtick_3">
     <g id="line2d_3">
      <g>
       <use xlink:href="#mae58bda3e2" x="373.20654" y="298.643478" style="stroke: #000000; stroke-width: 0.8"/>
      </g>
     </g>
     <g id="text_3">
      <!-- 0.4 -->
      <g transform="translate(365.254978 313.241916) scale(0.1 -0.1)">
       <defs>
        <path id="DejaVuSans-34" d="M 2419 4116 
L 825 1625 
L 2419 1625 
L 2419 4116 
z
M 2253 4666 
L 3047 4666 
L 3047 1625 
L 3713 1625 
L 3713 1100 
L 3047 1100 
L 3047 0 
L 2419 0 
L 2419 1100 
L 313 1100 
L 313 1709 
L 2253 4666 
z
" transform="scale(0.015625)"/>
       </defs>
       <use xlink:href="#DejaVuSans-30"/>
       <use xlink:href="#DejaVuSans-2e" x="63.623047"/>
       <use xlink:href="#DejaVuSans-34" x="95.410156"/>
      </g>
     </g>
    </g>
    <g id="xtick_4">
     <g id="line2d_4">
      <g>
       <use xlink:href="#mae58bda3e2" x="526.628224" y="298.643478" style="stroke: #000000; stroke-width: 0.8"/>
      </g>
     </g>
     <g id="text_4">
      <!-- 0.6 -->
      <g transform="translate(518.676662 313.241916) scale(0.1 -0.1)">
       <defs>
        <path id="DejaVuSans-36" d="M 2113 2584 
Q 1688 2584 1439 2293 
Q 1191 2003 1191 1497 
Q 1191 994 1439 701 
Q 1688 409 2113 409 
Q 2538 409 2786 701 
Q 3034 994 3034 1497 
Q 3034 2003 2786 2293 
Q 2538 2584 2113 2584 
z
M 3366 4563 
L 3366 3988 
Q 3128 4100 2886 4159 
Q 2644 4219 2406 4219 
Q 1781 4219 1451 3797 
Q 1122 3375 1075 2522 
Q 1259 2794 1537 2939 
Q 1816 3084 2150 3084 
Q 2853 3084 3261 2657 
Q 3669 2231 3669 1497 
Q 3669 778 3244 343 
Q 2819 -91 2113 -91 
Q 1303 -91 875 529 
Q 447 1150 447 2328 
Q 447 3434 972 4092 
Q 1497 4750 2381 4750 
Q 2619 4750 2861 4703 
Q 3103 4656 3366 4563 
z
" transform="scale(0.015625)"/>
       </defs>
       <use xlink:href="#DejaVuSans-30"/>
       <use xlink:href="#DejaVuSans-2e" x="63.623047"/>
       <use xlink:href="#DejaVuSans-36" x="95.410156"/>
      </g>
     </g>
    </g>
    <g id="xtick_5">
     <g id="line2d_5">
      <g>
       <use xlink:href="#mae58bda3e2" x="680.049908" y="298.643478" style="stroke: #000000; stroke-width: 0.8"/>
      </g>
     </g>
     <g id="text_5">
      <!-- 0.8 -->
      <g transform="translate(672.098345 313.241916) scale(0.1 -0.1)">
       <defs>
        <path id="DejaVuSans-38" d="M 2034 2216 
Q 1584 2216 1326 1975 
Q 1069 1734 1069 1313 
Q 1069 891 1326 650 
Q 1584 409 2034 409 
Q 2484 409 2743 651 
Q 3003 894 3003 1313 
Q 3003 1734 2745 1975 
Q 2488 2216 2034 2216 
z
M 1403 2484 
Q 997 2584 770 2862 
Q 544 3141 544 3541 
Q 544 4100 942 4425 
Q 1341 4750 2034 4750 
Q 2731 4750 3128 4425 
Q 3525 4100 3525 3541 
Q 3525 3141 3298 2862 
Q 3072 2584 2669 2484 
Q 3125 2378 3379 2068 
Q 3634 1759 3634 1313 
Q 3634 634 3220 271 
Q 2806 -91 2034 -91 
Q 1263 -91 848 271 
Q 434 634 434 1313 
Q 434 1759 690 2068 
Q 947 2378 1403 2484 
z
M 1172 3481 
Q 1172 3119 1398 2916 
Q 1625 2713 2034 2713 
Q 2441 2713 2670 2916 
Q 2900 3119 2900 3481 
Q 2900 3844 2670 4047 
Q 2441 4250 2034 4250 
Q 1625 4250 1398 4047 
Q 1172 3844 1172 3481 
z
" transform="scale(0.015625)"/>
       </defs>
       <use xlink:href="#DejaVuSans-30"/>
       <use xlink:href="#DejaVuSans-2e" x="63.623047"/>
       <use xlink:href="#DejaVuSans-38" x="95.410156"/>
      </g>
     </g>
    </g>
    <g id="xtick_6">
     <g id="line2d_6">
      <g>
       <use xlink:href="#mae58bda3e2" x="833.471592" y="298.643478" style="stroke: #000000; stroke-width: 0.8"/>
      </g>
     </g>
     <g id="text_6">
      <!-- 1.0 -->
      <g transform="translate(825.520029 313.241916) scale(0.1 -0.1)">
       <defs>
        <path id="DejaVuSans-31" d="M 794 531 
L 1825 531 
L 1825 4091 
L 703 3866 
L 703 4441 
L 1819 4666 
L 2450 4666 
L 2450 531 
L 3481 531 
L 3481 0 
L 794 0 
L 794 531 
z
" transform="scale(0.015625)"/>
       </defs>
       <use xlink:href="#DejaVuSans-31"/>
       <use xlink:href="#DejaVuSans-2e" x="63.623047"/>
       <use xlink:href="#DejaVuSans-30" x="95.410156"/>
      </g>
     </g>
    </g>
   </g>
   <g id="matplotlib.axis_2">
    <g id="ytick_1">
     <g id="line2d_7">
      <defs>
       <path id="m7d61d85e30" d="M 0 0 
L -3.5 0 
" style="stroke: #000000; stroke-width: 0.8"/>
      </defs>
      <g>
       <use xlink:href="#m7d61d85e30" x="43.78125" y="298.643478" style="stroke: #000000; stroke-width: 0.8"/>
      </g>
     </g>
     <g id="text_7">
      <!-- 0.0 -->
      <g transform="translate(20.878125 302.442697) scale(0.1 -0.1)">
       <use xlink:href="#DejaVuSans-30"/>
       <use xlink:href="#DejaVuSans-2e" x="63.623047"/>
       <use xlink:href="#DejaVuSans-30" x="95.410156"/>
      </g>
     </g>
    </g>
    <g id="ytick_2">
     <g id="line2d_8">
      <g>
       <use xlink:href="#m7d61d85e30" x="43.78125" y="271.352052" style="stroke: #000000; stroke-width: 0.8"/>
      </g>
     </g>
     <g id="text_8">
      <!-- 0.5 -->
      <g transform="translate(20.878125 275.151271) scale(0.1 -0.1)">
       <defs>
        <path id="DejaVuSans-35" d="M 691 4666 
L 3169 4666 
L 3169 4134 
L 1269 4134 
L 1269 2991 
Q 1406 3038 1543 3061 
Q 1681 3084 1819 3084 
Q 2600 3084 3056 2656 
Q 3513 2228 3513 1497 
Q 3513 744 3044 326 
Q 2575 -91 1722 -91 
Q 1428 -91 1123 -41 
Q 819 9 494 109 
L 494 744 
Q 775 591 1075 516 
Q 1375 441 1709 441 
Q 2250 441 2565 725 
Q 2881 1009 2881 1497 
Q 2881 1984 2565 2268 
Q 2250 2553 1709 2553 
Q 1456 2553 1204 2497 
Q 953 2441 691 2322 
L 691 4666 
z
" transform="scale(0.015625)"/>
       </defs>
       <use xlink:href="#DejaVuSans-30"/>
       <use xlink:href="#DejaVuSans-2e" x="63.623047"/>
       <use xlink:href="#DejaVuSans-35" x="95.410156"/>
      </g>
     </g>
    </g>
    <g id="ytick_3">
     <g id="line2d_9">
      <g>
       <use xlink:href="#m7d61d85e30" x="43.78125" y="244.060627" style="stroke: #000000; stroke-width: 0.8"/>
      </g>
     </g>
     <g id="text_9">
      <!-- 1.0 -->
      <g transform="translate(20.878125 247.859845) scale(0.1 -0.1)">
       <use xlink:href="#DejaVuSans-31"/>
       <use xlink:href="#DejaVuSans-2e" x="63.623047"/>
       <use xlink:href="#DejaVuSans-30" x="95.410156"/>
      </g>
     </g>
    </g>
    <g id="ytick_4">
     <g id="line2d_10">
      <g>
       <use xlink:href="#m7d61d85e30" x="43.78125" y="216.769201" style="stroke: #000000; stroke-width: 0.8"/>
      </g>
     </g>
     <g id="text_10">
      <!-- 1.5 -->
      <g transform="translate(20.878125 220.56842) scale(0.1 -0.1)">
       <use xlink:href="#DejaVuSans-31"/>
       <use xlink:href="#DejaVuSans-2e" x="63.623047"/>
       <use xlink:href="#DejaVuSans-35" x="95.410156"/>
      </g>
     </g>
    </g>
    <g id="ytick_5">
     <g id="line2d_11">
      <g>
       <use xlink:href="#m7d61d85e30" x="43.78125" y="189.477775" style="stroke: #000000; stroke-width: 0.8"/>
      </g>
     </g>
     <g id="text_11">
      <!-- 2.0 -->
      <g transform="translate(20.878125 193.276994) scale(0.1 -0.1)">
       <use xlink:href="#DejaVuSans-32"/>
       <use xlink:href="#DejaVuSans-2e" x="63.623047"/>
       <use xlink:href="#DejaVuSans-30" x="95.410156"/>
      </g>
     </g>
    </g>
    <g id="ytick_6">
     <g id="line2d_12">
      <g>
       <use xlink:href="#m7d61d85e30" x="43.78125" y="162.186349" style="stroke: #000000; stroke-width: 0.8"/>
      </g>
     </g>
     <g id="text_12">
      <!-- 2.5 -->
      <g transform="translate(20.878125 165.985568) scale(0.1 -0.1)">
       <use xlink:href="#DejaVuSans-32"/>
       <use xlink:href="#DejaVuSans-2e" x="63.623047"/>
       <use xlink:href="#DejaVuSans-35" x="95.410156"/>
      </g>
     </g>
    </g>
    <g id="ytick_7">
     <g id="line2d_13">
      <g>
       <use xlink:href="#m7d61d85e30" x="43.78125" y="134.894923" style="stroke: #000000; stroke-width: 0.8"/>
      </g>
     </g>
     <g id="text_13">
      <!-- 3.0 -->
      <g transform="translate(20.878125 138.694142) scale(0.1 -0.1)">
       <defs>
        <path id="DejaVuSans-33" d="M 2597 2516 
Q 3050 2419 3304 2112 
Q 3559 1806 3559 1356 
Q 3559 666 3084 287 
Q 2609 -91 1734 -91 
Q 1441 -91 1130 -33 
Q 819 25 488 141 
L 488 750 
Q 750 597 1062 519 
Q 1375 441 1716 441 
Q 2309 441 2620 675 
Q 2931 909 2931 1356 
Q 2931 1769 2642 2001 
Q 2353 2234 1838 2234 
L 1294 2234 
L 1294 2753 
L 1863 2753 
Q 2328 2753 2575 2939 
Q 2822 3125 2822 3475 
Q 2822 3834 2567 4026 
Q 2313 4219 1838 4219 
Q 1578 4219 1281 4162 
Q 984 4106 628 3988 
L 628 4550 
Q 988 4650 1302 4700 
Q 1616 4750 1894 4750 
Q 2613 4750 3031 4423 
Q 3450 4097 3450 3541 
Q 3450 3153 3228 2886 
Q 3006 2619 2597 2516 
z
" transform="scale(0.015625)"/>
       </defs>
       <use xlink:href="#DejaVuSans-33"/>
       <use xlink:href="#DejaVuSans-2e" x="63.623047"/>
       <use xlink:href="#DejaVuSans-30" x="95.410156"/>
      </g>
     </g>
    </g>
    <g id="ytick_8">
     <g id="line2d_14">
      <g>
       <use xlink:href="#m7d61d85e30" x="43.78125" y="107.603498" style="stroke: #000000; stroke-width: 0.8"/>
      </g>
     </g>
     <g id="text_14">
      <!-- 3.5 -->
      <g transform="translate(20.878125 111.402716) scale(0.1 -0.1)">
       <use xlink:href="#DejaVuSans-33"/>
       <use xlink:href="#DejaVuSans-2e" x="63.623047"/>
       <use xlink:href="#DejaVuSans-35" x="95.410156"/>
      </g>
     </g>
    </g>
    <g id="ytick_9">
     <g id="line2d_15">
      <g>
       <use xlink:href="#m7d61d85e30" x="43.78125" y="80.312072" style="stroke: #000000; stroke-width: 0.8"/>
      </g>
     </g>
     <g id="text_15">
      <!-- 4.0 -->
      <g transform="translate(20.878125 84.111291) scale(0.1 -0.1)">
       <use xlink:href="#DejaVuSans-34"/>
       <use xlink:href="#DejaVuSans-2e" x="63.623047"/>
       <use xlink:href="#DejaVuSans-30" x="95.410156"/>
      </g>
     </g>
    </g>
    <g id="text_16">
     <!-- Density -->
     <g transform="translate(14.798438 197.130333) rotate(-90) scale(0.1 -0.1)">
      <defs>
       <path id="DejaVuSans-44" d="M 1259 4147 
L 1259 519 
L 2022 519 
Q 2988 519 3436 956 
Q 3884 1394 3884 2338 
Q 3884 3275 3436 3711 
Q 2988 4147 2022 4147 
L 1259 4147 
z
M 628 4666 
L 1925 4666 
Q 3281 4666 3915 4102 
Q 4550 3538 4550 2338 
Q 4550 1131 3912 565 
Q 3275 0 1925 0 
L 628 0 
L 628 4666 
z
" transform="scale(0.015625)"/>
       <path id="DejaVuSans-65" d="M 3597 1894 
L 3597 1613 
L 953 1613 
Q 991 1019 1311 708 
Q 1631 397 2203 397 
Q 2534 397 2845 478 
Q 3156 559 3463 722 
L 3463 178 
Q 3153 47 2828 -22 
Q 2503 -91 2169 -91 
Q 1331 -91 842 396 
Q 353 884 353 1716 
Q 353 2575 817 3079 
Q 1281 3584 2069 3584 
Q 2775 3584 3186 3129 
Q 3597 2675 3597 1894 
z
M 3022 2063 
Q 3016 2534 2758 2815 
Q 2500 3097 2075 3097 
Q 1594 3097 1305 2825 
Q 1016 2553 972 2059 
L 3022 2063 
z
" transform="scale(0.015625)"/>
       <path id="DejaVuSans-6e" d="M 3513 2113 
L 3513 0 
L 2938 0 
L 2938 2094 
Q 2938 2591 2744 2837 
Q 2550 3084 2163 3084 
Q 1697 3084 1428 2787 
Q 1159 2491 1159 1978 
L 1159 0 
L 581 0 
L 581 3500 
L 1159 3500 
L 1159 2956 
Q 1366 3272 1645 3428 
Q 1925 3584 2291 3584 
Q 2894 3584 3203 3211 
Q 3513 2838 3513 2113 
z
" transform="scale(0.015625)"/>
       <path id="DejaVuSans-73" d="M 2834 3397 
L 2834 2853 
Q 2591 2978 2328 3040 
Q 2066 3103 1784 3103 
Q 1356 3103 1142 2972 
Q 928 2841 928 2578 
Q 928 2378 1081 2264 
Q 1234 2150 1697 2047 
L 1894 2003 
Q 2506 1872 2764 1633 
Q 3022 1394 3022 966 
Q 3022 478 2636 193 
Q 2250 -91 1575 -91 
Q 1294 -91 989 -36 
Q 684 19 347 128 
L 347 722 
Q 666 556 975 473 
Q 1284 391 1588 391 
Q 1994 391 2212 530 
Q 2431 669 2431 922 
Q 2431 1156 2273 1281 
Q 2116 1406 1581 1522 
L 1381 1569 
Q 847 1681 609 1914 
Q 372 2147 372 2553 
Q 372 3047 722 3315 
Q 1072 3584 1716 3584 
Q 2034 3584 2315 3537 
Q 2597 3491 2834 3397 
z
" transform="scale(0.015625)"/>
       <path id="DejaVuSans-69" d="M 603 3500 
L 1178 3500 
L 1178 0 
L 603 0 
L 603 3500 
z
M 603 4863 
L 1178 4863 
L 1178 4134 
L 603 4134 
L 603 4863 
z
" transform="scale(0.015625)"/>
       <path id="DejaVuSans-74" d="M 1172 4494 
L 1172 3500 
L 2356 3500 
L 2356 3053 
L 1172 3053 
L 1172 1153 
Q 1172 725 1289 603 
Q 1406 481 1766 481 
L 2356 481 
L 2356 0 
L 1766 0 
Q 1100 0 847 248 
Q 594 497 594 1153 
L 594 3053 
L 172 3053 
L 172 3500 
L 594 3500 
L 594 4494 
L 1172 4494 
z
" transform="scale(0.015625)"/>
       <path id="DejaVuSans-79" d="M 2059 -325 
Q 1816 -950 1584 -1140 
Q 1353 -1331 966 -1331 
L 506 -1331 
L 506 -850 
L 844 -850 
Q 1081 -850 1212 -737 
Q 1344 -625 1503 -206 
L 1606 56 
L 191 3500 
L 800 3500 
L 1894 763 
L 2988 3500 
L 3597 3500 
L 2059 -325 
z
" transform="scale(0.015625)"/>
      </defs>
      <use xlink:href="#DejaVuSans-44"/>
      <use xlink:href="#DejaVuSans-65" x="77.001953"/>
      <use xlink:href="#DejaVuSans-6e" x="138.525391"/>
      <use xlink:href="#DejaVuSans-73" x="201.904297"/>
      <use xlink:href="#DejaVuSans-69" x="254.003906"/>
      <use xlink:href="#DejaVuSans-74" x="281.787109"/>
      <use xlink:href="#DejaVuSans-79" x="320.996094"/>
     </g>
    </g>
   </g>
   <g id="patch_3">
    <path d="M 43.78125 298.643478 
L 43.78125 57.6 
" style="fill: none; stroke: #000000; stroke-width: 0.8; stroke-linejoin: miter; stroke-linecap: square"/>
   </g>
   <g id="patch_4">
    <path d="M 880.78125 298.643478 
L 880.78125 57.6 
" style="fill: none; stroke: #000000; stroke-width: 0.8; stroke-linejoin: miter; stroke-linecap: square"/>
   </g>
   <g id="patch_5">
    <path d="M 43.78125 298.643478 
L 880.78125 298.643478 
" style="fill: none; stroke: #000000; stroke-width: 0.8; stroke-linejoin: miter; stroke-linecap: square"/>
   </g>
   <g id="patch_6">
    <path d="M 43.78125 57.6 
L 880.78125 57.6 
" style="fill: none; stroke: #000000; stroke-width: 0.8; stroke-linejoin: miter; stroke-linecap: square"/>
   </g>
   <g id="text_17">
    <!-- Pearson correlation coefficients -->
    <g transform="translate(367.949062 51.6) scale(0.12 -0.12)">
     <defs>
      <path id="DejaVuSans-50" d="M 1259 4147 
L 1259 2394 
L 2053 2394 
Q 2494 2394 2734 2622 
Q 2975 2850 2975 3272 
Q 2975 3691 2734 3919 
Q 2494 4147 2053 4147 
L 1259 4147 
z
M 628 4666 
L 2053 4666 
Q 2838 4666 3239 4311 
Q 3641 3956 3641 3272 
Q 3641 2581 3239 2228 
Q 2838 1875 2053 1875 
L 1259 1875 
L 1259 0 
L 628 0 
L 628 4666 
z
" transform="scale(0.015625)"/>
      <path id="DejaVuSans-61" d="M 2194 1759 
Q 1497 1759 1228 1600 
Q 959 1441 959 1056 
Q 959 750 1161 570 
Q 1363 391 1709 391 
Q 2188 391 2477 730 
Q 2766 1069 2766 1631 
L 2766 1759 
L 2194 1759 
z
M 3341 1997 
L 3341 0 
L 2766 0 
L 2766 531 
Q 2569 213 2275 61 
Q 1981 -91 1556 -91 
Q 1019 -91 701 211 
Q 384 513 384 1019 
Q 384 1609 779 1909 
Q 1175 2209 1959 2209 
L 2766 2209 
L 2766 2266 
Q 2766 2663 2505 2880 
Q 2244 3097 1772 3097 
Q 1472 3097 1187 3025 
Q 903 2953 641 2809 
L 641 3341 
Q 956 3463 1253 3523 
Q 1550 3584 1831 3584 
Q 2591 3584 2966 3190 
Q 3341 2797 3341 1997 
z
" transform="scale(0.015625)"/>
      <path id="DejaVuSans-72" d="M 2631 2963 
Q 2534 3019 2420 3045 
Q 2306 3072 2169 3072 
Q 1681 3072 1420 2755 
Q 1159 2438 1159 1844 
L 1159 0 
L 581 0 
L 581 3500 
L 1159 3500 
L 1159 2956 
Q 1341 3275 1631 3429 
Q 1922 3584 2338 3584 
Q 2397 3584 2469 3576 
Q 2541 3569 2628 3553 
L 2631 2963 
z
" transform="scale(0.015625)"/>
      <path id="DejaVuSans-6f" d="M 1959 3097 
Q 1497 3097 1228 2736 
Q 959 2375 959 1747 
Q 959 1119 1226 758 
Q 1494 397 1959 397 
Q 2419 397 2687 759 
Q 2956 1122 2956 1747 
Q 2956 2369 2687 2733 
Q 2419 3097 1959 3097 
z
M 1959 3584 
Q 2709 3584 3137 3096 
Q 3566 2609 3566 1747 
Q 3566 888 3137 398 
Q 2709 -91 1959 -91 
Q 1206 -91 779 398 
Q 353 888 353 1747 
Q 353 2609 779 3096 
Q 1206 3584 1959 3584 
z
" transform="scale(0.015625)"/>
      <path id="DejaVuSans-20" transform="scale(0.015625)"/>
      <path id="DejaVuSans-63" d="M 3122 3366 
L 3122 2828 
Q 2878 2963 2633 3030 
Q 2388 3097 2138 3097 
Q 1578 3097 1268 2742 
Q 959 2388 959 1747 
Q 959 1106 1268 751 
Q 1578 397 2138 397 
Q 2388 397 2633 464 
Q 2878 531 3122 666 
L 3122 134 
Q 2881 22 2623 -34 
Q 2366 -91 2075 -91 
Q 1284 -91 818 406 
Q 353 903 353 1747 
Q 353 2603 823 3093 
Q 1294 3584 2113 3584 
Q 2378 3584 2631 3529 
Q 2884 3475 3122 3366 
z
" transform="scale(0.015625)"/>
      <path id="DejaVuSans-6c" d="M 603 4863 
L 1178 4863 
L 1178 0 
L 603 0 
L 603 4863 
z
" transform="scale(0.015625)"/>
      <path id="DejaVuSans-66" d="M 2375 4863 
L 2375 4384 
L 1825 4384 
Q 1516 4384 1395 4259 
Q 1275 4134 1275 3809 
L 1275 3500 
L 2222 3500 
L 2222 3053 
L 1275 3053 
L 1275 0 
L 697 0 
L 697 3053 
L 147 3053 
L 147 3500 
L 697 3500 
L 697 3744 
Q 697 4328 969 4595 
Q 1241 4863 1831 4863 
L 2375 4863 
z
" transform="scale(0.015625)"/>
     </defs>
     <use xlink:href="#DejaVuSans-50"/>
     <use xlink:href="#DejaVuSans-65" x="56.677734"/>
     <use xlink:href="#DejaVuSans-61" x="118.201172"/>
     <use xlink:href="#DejaVuSans-72" x="179.480469"/>
     <use xlink:href="#DejaVuSans-73" x="220.59375"/>
     <use xlink:href="#DejaVuSans-6f" x="272.693359"/>
     <use xlink:href="#DejaVuSans-6e" x="333.875"/>
     <use xlink:href="#DejaVuSans-20" x="397.253906"/>
     <use xlink:href="#DejaVuSans-63" x="429.041016"/>
     <use xlink:href="#DejaVuSans-6f" x="484.021484"/>
     <use xlink:href="#DejaVuSans-72" x="545.203125"/>
     <use xlink:href="#DejaVuSans-72" x="584.566406"/>
     <use xlink:href="#DejaVuSans-65" x="623.429688"/>
     <use xlink:href="#DejaVuSans-6c" x="684.953125"/>
     <use xlink:href="#DejaVuSans-61" x="712.736328"/>
     <use xlink:href="#DejaVuSans-74" x="774.015625"/>
     <use xlink:href="#DejaVuSans-69" x="813.224609"/>
     <use xlink:href="#DejaVuSans-6f" x="841.007812"/>
     <use xlink:href="#DejaVuSans-6e" x="902.189453"/>
     <use xlink:href="#DejaVuSans-20" x="965.568359"/>
     <use xlink:href="#DejaVuSans-63" x="997.355469"/>
     <use xlink:href="#DejaVuSans-6f" x="1052.335938"/>
     <use xlink:href="#DejaVuSans-65" x="1113.517578"/>
     <use xlink:href="#DejaVuSans-66" x="1175.041016"/>
     <use xlink:href="#DejaVuSans-66" x="1210.246094"/>
     <use xlink:href="#DejaVuSans-69" x="1245.451172"/>
     <use xlink:href="#DejaVuSans-63" x="1273.234375"/>
     <use xlink:href="#DejaVuSans-69" x="1328.214844"/>
     <use xlink:href="#DejaVuSans-65" x="1355.998047"/>
     <use xlink:href="#DejaVuSans-6e" x="1417.521484"/>
     <use xlink:href="#DejaVuSans-74" x="1480.900391"/>
     <use xlink:href="#DejaVuSans-73" x="1520.109375"/>
    </g>
   </g>
   <g id="legend_1">
    <g id="patch_7">
     <path d="M 50.78125 109.634375 
L 138.80625 109.634375 
Q 140.80625 109.634375 140.80625 107.634375 
L 140.80625 64.6 
Q 140.80625 62.6 138.80625 62.6 
L 50.78125 62.6 
Q 48.78125 62.6 48.78125 64.6 
L 48.78125 107.634375 
Q 48.78125 109.634375 50.78125 109.634375 
z
" style="fill: #ffffff; opacity: 0.8; stroke: #cccccc; stroke-linejoin: miter"/>
    </g>
    <g id="text_18">
     <!-- Correlation type: -->
     <g transform="translate(52.78125 74.198437) scale(0.1 -0.1)">
      <defs>
       <path id="DejaVuSans-43" d="M 4122 4306 
L 4122 3641 
Q 3803 3938 3442 4084 
Q 3081 4231 2675 4231 
Q 1875 4231 1450 3742 
Q 1025 3253 1025 2328 
Q 1025 1406 1450 917 
Q 1875 428 2675 428 
Q 3081 428 3442 575 
Q 3803 722 4122 1019 
L 4122 359 
Q 3791 134 3420 21 
Q 3050 -91 2638 -91 
Q 1578 -91 968 557 
Q 359 1206 359 2328 
Q 359 3453 968 4101 
Q 1578 4750 2638 4750 
Q 3056 4750 3426 4639 
Q 3797 4528 4122 4306 
z
" transform="scale(0.015625)"/>
       <path id="DejaVuSans-70" d="M 1159 525 
L 1159 -1331 
L 581 -1331 
L 581 3500 
L 1159 3500 
L 1159 2969 
Q 1341 3281 1617 3432 
Q 1894 3584 2278 3584 
Q 2916 3584 3314 3078 
Q 3713 2572 3713 1747 
Q 3713 922 3314 415 
Q 2916 -91 2278 -91 
Q 1894 -91 1617 61 
Q 1341 213 1159 525 
z
M 3116 1747 
Q 3116 2381 2855 2742 
Q 2594 3103 2138 3103 
Q 1681 3103 1420 2742 
Q 1159 2381 1159 1747 
Q 1159 1113 1420 752 
Q 1681 391 2138 391 
Q 2594 391 2855 752 
Q 3116 1113 3116 1747 
z
" transform="scale(0.015625)"/>
       <path id="DejaVuSans-3a" d="M 750 794 
L 1409 794 
L 1409 0 
L 750 0 
L 750 794 
z
M 750 3309 
L 1409 3309 
L 1409 2516 
L 750 2516 
L 750 3309 
z
" transform="scale(0.015625)"/>
      </defs>
      <use xlink:href="#DejaVuSans-43"/>
      <use xlink:href="#DejaVuSans-6f" x="69.824219"/>
      <use xlink:href="#DejaVuSans-72" x="131.005859"/>
      <use xlink:href="#DejaVuSans-72" x="170.369141"/>
      <use xlink:href="#DejaVuSans-65" x="209.232422"/>
      <use xlink:href="#DejaVuSans-6c" x="270.755859"/>
      <use xlink:href="#DejaVuSans-61" x="298.539062"/>
      <use xlink:href="#DejaVuSans-74" x="359.818359"/>
      <use xlink:href="#DejaVuSans-69" x="399.027344"/>
      <use xlink:href="#DejaVuSans-6f" x="426.810547"/>
      <use xlink:href="#DejaVuSans-6e" x="487.992188"/>
      <use xlink:href="#DejaVuSans-20" x="551.371094"/>
      <use xlink:href="#DejaVuSans-74" x="583.158203"/>
      <use xlink:href="#DejaVuSans-79" x="622.367188"/>
      <use xlink:href="#DejaVuSans-70" x="681.546875"/>
      <use xlink:href="#DejaVuSans-65" x="745.023438"/>
      <use xlink:href="#DejaVuSans-3a" x="806.546875"/>
     </g>
    </g>
    <g id="patch_8">
     <path d="M 53.285156 88.876562 
L 73.285156 88.876562 
L 73.285156 81.876562 
L 53.285156 81.876562 
z
" style="fill: #1f77b4; fill-opacity: 0.5; stroke: #1f77b4; stroke-width: 2.5; stroke-linejoin: miter"/>
    </g>
    <g id="text_19">
     <!-- Codon -->
     <g transform="translate(81.285156 88.876562) scale(0.1 -0.1)">
      <defs>
       <path id="DejaVuSans-64" d="M 2906 2969 
L 2906 4863 
L 3481 4863 
L 3481 0 
L 2906 0 
L 2906 525 
Q 2725 213 2448 61 
Q 2172 -91 1784 -91 
Q 1150 -91 751 415 
Q 353 922 353 1747 
Q 353 2572 751 3078 
Q 1150 3584 1784 3584 
Q 2172 3584 2448 3432 
Q 2725 3281 2906 2969 
z
M 947 1747 
Q 947 1113 1208 752 
Q 1469 391 1925 391 
Q 2381 391 2643 752 
Q 2906 1113 2906 1747 
Q 2906 2381 2643 2742 
Q 2381 3103 1925 3103 
Q 1469 3103 1208 2742 
Q 947 2381 947 1747 
z
" transform="scale(0.015625)"/>
      </defs>
      <use xlink:href="#DejaVuSans-43"/>
      <use xlink:href="#DejaVuSans-6f" x="69.824219"/>
      <use xlink:href="#DejaVuSans-64" x="131.005859"/>
      <use xlink:href="#DejaVuSans-6f" x="194.482422"/>
      <use xlink:href="#DejaVuSans-6e" x="255.664062"/>
     </g>
    </g>
    <g id="patch_9">
     <path d="M 53.285156 103.554688 
L 73.285156 103.554688 
L 73.285156 96.554688 
L 53.285156 96.554688 
z
" style="fill: #ff7f0e; fill-opacity: 0.5; stroke: #ff7f0e; stroke-width: 2.5; stroke-linejoin: miter"/>
    </g>
    <g id="text_20">
     <!-- Codon+GC -->
     <g transform="translate(81.285156 103.554688) scale(0.1 -0.1)">
      <defs>
       <path id="DejaVuSans-2b" d="M 2944 4013 
L 2944 2272 
L 4684 2272 
L 4684 1741 
L 2944 1741 
L 2944 0 
L 2419 0 
L 2419 1741 
L 678 1741 
L 678 2272 
L 2419 2272 
L 2419 4013 
L 2944 4013 
z
" transform="scale(0.015625)"/>
       <path id="DejaVuSans-47" d="M 3809 666 
L 3809 1919 
L 2778 1919 
L 2778 2438 
L 4434 2438 
L 4434 434 
Q 4069 175 3628 42 
Q 3188 -91 2688 -91 
Q 1594 -91 976 548 
Q 359 1188 359 2328 
Q 359 3472 976 4111 
Q 1594 4750 2688 4750 
Q 3144 4750 3555 4637 
Q 3966 4525 4313 4306 
L 4313 3634 
Q 3963 3931 3569 4081 
Q 3175 4231 2741 4231 
Q 1884 4231 1454 3753 
Q 1025 3275 1025 2328 
Q 1025 1384 1454 906 
Q 1884 428 2741 428 
Q 3075 428 3337 486 
Q 3600 544 3809 666 
z
" transform="scale(0.015625)"/>
      </defs>
      <use xlink:href="#DejaVuSans-43"/>
      <use xlink:href="#DejaVuSans-6f" x="69.824219"/>
      <use xlink:href="#DejaVuSans-64" x="131.005859"/>
      <use xlink:href="#DejaVuSans-6f" x="194.482422"/>
      <use xlink:href="#DejaVuSans-6e" x="255.664062"/>
      <use xlink:href="#DejaVuSans-2b" x="319.042969"/>
      <use xlink:href="#DejaVuSans-47" x="402.832031"/>
      <use xlink:href="#DejaVuSans-43" x="480.322266"/>
     </g>
    </g>
   </g>
  </g>
  <g id="axes_2">
   <g id="patch_10">
    <path d="M 43.78125 612 
L 880.78125 612 
L 880.78125 370.956522 
L 43.78125 370.956522 
z
" style="fill: #ffffff"/>
   </g>
   <g id="PolyCollection_3">
    <defs>
     <path id="m4adafa94f4" d="M 188.462676 -23.939037 
L 188.462676 -23.878125 
L 191.734409 -23.878125 
L 195.006142 -23.878125 
L 198.277875 -23.878125 
L 201.549607 -23.878125 
L 204.82134 -23.878125 
L 208.093073 -23.878125 
L 211.364806 -23.878125 
L 214.636539 -23.878125 
L 217.908271 -23.878125 
L 221.180004 -23.878125 
L 224.451737 -23.878125 
L 227.72347 -23.878125 
L 230.995203 -23.878125 
L 234.266935 -23.878125 
L 237.538668 -23.878125 
L 240.810401 -23.878125 
L 244.082134 -23.878125 
L 247.353866 -23.878125 
L 250.625599 -23.878125 
L 253.897332 -23.878125 
L 257.169065 -23.878125 
L 260.440798 -23.878125 
L 263.71253 -23.878125 
L 266.984263 -23.878125 
L 270.255996 -23.878125 
L 273.527729 -23.878125 
L 276.799461 -23.878125 
L 280.071194 -23.878125 
L 283.342927 -23.878125 
L 286.61466 -23.878125 
L 289.886393 -23.878125 
L 293.158125 -23.878125 
L 296.429858 -23.878125 
L 299.701591 -23.878125 
L 302.973324 -23.878125 
L 306.245057 -23.878125 
L 309.516789 -23.878125 
L 312.788522 -23.878125 
L 316.060255 -23.878125 
L 319.331988 -23.878125 
L 322.60372 -23.878125 
L 325.875453 -23.878125 
L 329.147186 -23.878125 
L 332.418919 -23.878125 
L 335.690652 -23.878125 
L 338.962384 -23.878125 
L 342.234117 -23.878125 
L 345.50585 -23.878125 
L 348.777583 -23.878125 
L 352.049315 -23.878125 
L 355.321048 -23.878125 
L 358.592781 -23.878125 
L 361.864514 -23.878125 
L 365.136247 -23.878125 
L 368.407979 -23.878125 
L 371.679712 -23.878125 
L 374.951445 -23.878125 
L 378.223178 -23.878125 
L 381.494911 -23.878125 
L 384.766643 -23.878125 
L 388.038376 -23.878125 
L 391.310109 -23.878125 
L 394.581842 -23.878125 
L 397.853574 -23.878125 
L 401.125307 -23.878125 
L 404.39704 -23.878125 
L 407.668773 -23.878125 
L 410.940506 -23.878125 
L 414.212238 -23.878125 
L 417.483971 -23.878125 
L 420.755704 -23.878125 
L 424.027437 -23.878125 
L 427.29917 -23.878125 
L 430.570902 -23.878125 
L 433.842635 -23.878125 
L 437.114368 -23.878125 
L 440.386101 -23.878125 
L 443.657833 -23.878125 
L 446.929566 -23.878125 
L 450.201299 -23.878125 
L 453.473032 -23.878125 
L 456.744765 -23.878125 
L 460.016497 -23.878125 
L 463.28823 -23.878125 
L 466.559963 -23.878125 
L 469.831696 -23.878125 
L 473.103428 -23.878125 
L 476.375161 -23.878125 
L 479.646894 -23.878125 
L 482.918627 -23.878125 
L 486.19036 -23.878125 
L 489.462092 -23.878125 
L 492.733825 -23.878125 
L 496.005558 -23.878125 
L 499.277291 -23.878125 
L 502.549024 -23.878125 
L 505.820756 -23.878125 
L 509.092489 -23.878125 
L 512.364222 -23.878125 
L 515.635955 -23.878125 
L 518.907687 -23.878125 
L 522.17942 -23.878125 
L 525.451153 -23.878125 
L 528.722886 -23.878125 
L 531.994619 -23.878125 
L 535.266351 -23.878125 
L 538.538084 -23.878125 
L 541.809817 -23.878125 
L 545.08155 -23.878125 
L 548.353282 -23.878125 
L 551.625015 -23.878125 
L 554.896748 -23.878125 
L 558.168481 -23.878125 
L 561.440214 -23.878125 
L 564.711946 -23.878125 
L 567.983679 -23.878125 
L 571.255412 -23.878125 
L 574.527145 -23.878125 
L 577.798878 -23.878125 
L 581.07061 -23.878125 
L 584.342343 -23.878125 
L 587.614076 -23.878125 
L 590.885809 -23.878125 
L 594.157541 -23.878125 
L 597.429274 -23.878125 
L 600.701007 -23.878125 
L 603.97274 -23.878125 
L 607.244473 -23.878125 
L 610.516205 -23.878125 
L 613.787938 -23.878125 
L 617.059671 -23.878125 
L 620.331404 -23.878125 
L 623.603136 -23.878125 
L 626.874869 -23.878125 
L 630.146602 -23.878125 
L 633.418335 -23.878125 
L 636.690068 -23.878125 
L 639.9618 -23.878125 
L 643.233533 -23.878125 
L 646.505266 -23.878125 
L 649.776999 -23.878125 
L 653.048732 -23.878125 
L 656.320464 -23.878125 
L 659.592197 -23.878125 
L 662.86393 -23.878125 
L 666.135663 -23.878125 
L 669.407395 -23.878125 
L 672.679128 -23.878125 
L 675.950861 -23.878125 
L 679.222594 -23.878125 
L 682.494327 -23.878125 
L 685.766059 -23.878125 
L 689.037792 -23.878125 
L 692.309525 -23.878125 
L 695.581258 -23.878125 
L 698.852991 -23.878125 
L 702.124723 -23.878125 
L 705.396456 -23.878125 
L 708.668189 -23.878125 
L 711.939922 -23.878125 
L 715.211654 -23.878125 
L 718.483387 -23.878125 
L 721.75512 -23.878125 
L 725.026853 -23.878125 
L 728.298586 -23.878125 
L 731.570318 -23.878125 
L 734.842051 -23.878125 
L 738.113784 -23.878125 
L 741.385517 -23.878125 
L 744.657249 -23.878125 
L 747.928982 -23.878125 
L 751.200715 -23.878125 
L 754.472448 -23.878125 
L 757.744181 -23.878125 
L 761.015913 -23.878125 
L 764.287646 -23.878125 
L 767.559379 -23.878125 
L 770.831112 -23.878125 
L 774.102845 -23.878125 
L 777.374577 -23.878125 
L 780.64631 -23.878125 
L 783.918043 -23.878125 
L 787.189776 -23.878125 
L 790.461508 -23.878125 
L 793.733241 -23.878125 
L 797.004974 -23.878125 
L 800.276707 -23.878125 
L 803.54844 -23.878125 
L 806.820172 -23.878125 
L 810.091905 -23.878125 
L 813.363638 -23.878125 
L 816.635371 -23.878125 
L 819.907103 -23.878125 
L 823.178836 -23.878125 
L 826.450569 -23.878125 
L 829.722302 -23.878125 
L 832.994035 -23.878125 
L 836.265767 -23.878125 
L 839.5375 -23.878125 
L 839.5375 -23.895386 
L 839.5375 -23.895386 
L 836.265767 -23.903163 
L 832.994035 -23.914031 
L 829.722302 -23.929038 
L 826.450569 -23.949527 
L 823.178836 -23.977186 
L 819.907103 -24.014118 
L 816.635371 -24.062907 
L 813.363638 -24.126692 
L 810.091905 -24.209246 
L 806.820172 -24.31505 
L 803.54844 -24.449367 
L 800.276707 -24.618315 
L 797.004974 -24.828933 
L 793.733241 -25.089226 
L 790.461508 -25.408212 
L 787.189776 -25.795935 
L 783.918043 -26.263464 
L 780.64631 -26.822869 
L 777.374577 -27.487171 
L 774.102845 -28.270265 
L 770.831112 -29.186833 
L 767.559379 -30.25224 
L 764.287646 -31.482427 
L 761.015913 -32.893818 
L 757.744181 -34.503248 
L 754.472448 -36.327911 
L 751.200715 -38.385352 
L 747.928982 -40.693479 
L 744.657249 -43.270602 
L 741.385517 -46.13545 
L 738.113784 -49.307166 
L 734.842051 -52.805197 
L 731.570318 -56.649074 
L 728.298586 -60.858001 
L 725.026853 -65.450237 
L 721.75512 -70.442232 
L 718.483387 -75.847517 
L 715.211654 -81.675375 
L 711.939922 -87.929321 
L 708.668189 -94.605488 
L 705.396456 -101.691004 
L 702.124723 -109.162477 
L 698.852991 -116.984731 
L 695.581258 -125.109892 
L 692.309525 -133.476974 
L 689.037792 -142.012037 
L 685.766059 -150.628998 
L 682.494327 -159.231123 
L 679.222594 -167.713197 
L 675.950861 -175.964315 
L 672.679128 -183.871204 
L 669.407395 -191.321944 
L 666.135663 -198.209925 
L 662.86393 -204.437836 
L 659.592197 -209.921487 
L 656.320464 -214.593245 
L 653.048732 -218.404879 
L 649.776999 -221.329623 
L 646.505266 -223.363316 
L 643.233533 -224.524518 
L 639.9618 -224.853557 
L 636.690068 -224.410529 
L 633.418335 -223.272366 
L 630.146602 -221.5291 
L 626.874869 -219.279564 
L 623.603136 -216.626774 
L 620.331404 -213.673288 
L 617.059671 -210.516812 
L 613.787938 -207.246338 
L 610.516205 -203.939036 
L 607.244473 -200.658072 
L 603.97274 -197.451464 
L 600.701007 -194.351983 
L 597.429274 -191.378064 
L 594.157541 -188.535577 
L 590.885809 -185.820261 
L 587.614076 -183.220585 
L 584.342343 -180.720752 
L 581.07061 -178.303562 
L 577.798878 -175.952889 
L 574.527145 -173.655548 
L 571.255412 -171.402418 
L 567.983679 -169.188737 
L 564.711946 -167.013623 
L 561.440214 -164.878902 
L 558.168481 -162.787446 
L 554.896748 -160.741257 
L 551.625015 -158.739568 
L 548.353282 -156.777208 
L 545.08155 -154.84348 
L 541.809817 -152.921704 
L 538.538084 -150.989511 
L 535.266351 -149.01988 
L 531.994619 -146.982833 
L 528.722886 -144.847605 
L 525.451153 -142.585077 
L 522.17942 -140.170229 
L 518.907687 -137.584353 
L 515.635955 -134.816842 
L 512.364222 -131.866376 
L 509.092489 -128.741424 
L 505.820756 -125.460045 
L 502.549024 -122.049022 
L 499.277291 -118.54244 
L 496.005558 -114.97985 
L 492.733825 -111.404163 
L 489.462092 -107.85947 
L 486.19036 -104.388911 
L 482.918627 -101.03275 
L 479.646894 -97.826741 
L 476.375161 -94.800876 
L 473.103428 -91.978524 
L 469.831696 -89.375992 
L 466.559963 -87.00247 
L 463.28823 -84.860318 
L 460.016497 -82.945628 
L 456.744765 -81.24899 
L 453.473032 -79.756375 
L 450.201299 -78.450059 
L 446.929566 -77.309524 
L 443.657833 -76.31226 
L 440.386101 -75.434469 
L 437.114368 -74.651618 
L 433.842635 -73.938893 
L 430.570902 -73.271557 
L 427.29917 -72.625268 
L 424.027437 -71.976415 
L 420.755704 -71.302492 
L 417.483971 -70.582571 
L 414.212238 -69.797851 
L 410.940506 -68.932288 
L 407.668773 -67.973244 
L 404.39704 -66.912114 
L 401.125307 -65.744825 
L 397.853574 -64.472167 
L 394.581842 -63.09987 
L 391.310109 -61.63839 
L 388.038376 -60.102407 
L 384.766643 -58.510046 
L 381.494911 -56.881877 
L 378.223178 -55.239787 
L 374.951445 -53.605802 
L 371.679712 -52.000976 
L 368.407979 -50.444423 
L 365.136247 -48.95258 
L 361.864514 -47.538735 
L 358.592781 -46.212835 
L 355.321048 -44.981568 
L 352.049315 -43.848666 
L 348.777583 -42.815364 
L 345.50585 -41.880955 
L 342.234117 -41.043343 
L 338.962384 -40.29954 
L 335.690652 -39.646049 
L 332.418919 -39.079081 
L 329.147186 -38.594619 
L 325.875453 -38.188319 
L 322.60372 -37.855276 
L 319.331988 -37.589727 
L 316.060255 -37.384716 
L 312.788522 -37.231812 
L 309.516789 -37.120919 
L 306.245057 -37.040244 
L 302.973324 -36.976438 
L 299.701591 -36.914947 
L 296.429858 -36.840535 
L 293.158125 -36.737974 
L 289.886393 -36.592831 
L 286.61466 -36.392295 
L 283.342927 -36.125964 
L 280.071194 -35.786525 
L 276.799461 -35.370251 
L 273.527729 -34.877278 
L 270.255996 -34.311618 
L 266.984263 -33.680916 
L 263.71253 -32.995966 
L 260.440798 -32.270019 
L 257.169065 -31.517971 
L 253.897332 -30.75546 
L 250.625599 -29.997985 
L 247.353866 -29.260088 
L 244.082134 -28.554668 
L 240.810401 -27.892461 
L 237.538668 -27.281716 
L 234.266935 -26.728062 
L 230.995203 -26.234555 
L 227.72347 -25.801875 
L 224.451737 -25.428643 
L 221.180004 -25.111807 
L 217.908271 -24.847062 
L 214.636539 -24.629272 
L 211.364806 -24.452858 
L 208.093073 -24.312132 
L 204.82134 -24.201565 
L 201.549607 -24.115996 
L 198.277875 -24.050757 
L 195.006142 -24.001753 
L 191.734409 -23.965486 
L 188.462676 -23.939037 
z
" style="stroke: #ff7f0e; stroke-width: 2.5"/>
    </defs>
    <g clip-path="url(#p8380471003)">
     <use xlink:href="#m4adafa94f4" x="0" y="635.878125" style="fill: #ff7f0e; fill-opacity: 0.5; stroke: #ff7f0e; stroke-width: 2.5"/>
    </g>
   </g>
   <g id="PolyCollection_4">
    <defs>
     <path id="me0dc13f7a9" d="M 111.904075 -23.891443 
L 111.904075 -23.878125 
L 115.583793 -23.878125 
L 119.263512 -23.878125 
L 122.94323 -23.878125 
L 126.622949 -23.878125 
L 130.302667 -23.878125 
L 133.982386 -23.878125 
L 137.662104 -23.878125 
L 141.341823 -23.878125 
L 145.021541 -23.878125 
L 148.70126 -23.878125 
L 152.380978 -23.878125 
L 156.060697 -23.878125 
L 159.740415 -23.878125 
L 163.420134 -23.878125 
L 167.099852 -23.878125 
L 170.779571 -23.878125 
L 174.459289 -23.878125 
L 178.139008 -23.878125 
L 181.818726 -23.878125 
L 185.498444 -23.878125 
L 189.178163 -23.878125 
L 192.857881 -23.878125 
L 196.5376 -23.878125 
L 200.217318 -23.878125 
L 203.897037 -23.878125 
L 207.576755 -23.878125 
L 211.256474 -23.878125 
L 214.936192 -23.878125 
L 218.615911 -23.878125 
L 222.295629 -23.878125 
L 225.975348 -23.878125 
L 229.655066 -23.878125 
L 233.334785 -23.878125 
L 237.014503 -23.878125 
L 240.694222 -23.878125 
L 244.37394 -23.878125 
L 248.053658 -23.878125 
L 251.733377 -23.878125 
L 255.413095 -23.878125 
L 259.092814 -23.878125 
L 262.772532 -23.878125 
L 266.452251 -23.878125 
L 270.131969 -23.878125 
L 273.811688 -23.878125 
L 277.491406 -23.878125 
L 281.171125 -23.878125 
L 284.850843 -23.878125 
L 288.530562 -23.878125 
L 292.21028 -23.878125 
L 295.889999 -23.878125 
L 299.569717 -23.878125 
L 303.249436 -23.878125 
L 306.929154 -23.878125 
L 310.608873 -23.878125 
L 314.288591 -23.878125 
L 317.968309 -23.878125 
L 321.648028 -23.878125 
L 325.327746 -23.878125 
L 329.007465 -23.878125 
L 332.687183 -23.878125 
L 336.366902 -23.878125 
L 340.04662 -23.878125 
L 343.726339 -23.878125 
L 347.406057 -23.878125 
L 351.085776 -23.878125 
L 354.765494 -23.878125 
L 358.445213 -23.878125 
L 362.124931 -23.878125 
L 365.80465 -23.878125 
L 369.484368 -23.878125 
L 373.164087 -23.878125 
L 376.843805 -23.878125 
L 380.523524 -23.878125 
L 384.203242 -23.878125 
L 387.88296 -23.878125 
L 391.562679 -23.878125 
L 395.242397 -23.878125 
L 398.922116 -23.878125 
L 402.601834 -23.878125 
L 406.281553 -23.878125 
L 409.961271 -23.878125 
L 413.64099 -23.878125 
L 417.320708 -23.878125 
L 421.000427 -23.878125 
L 424.680145 -23.878125 
L 428.359864 -23.878125 
L 432.039582 -23.878125 
L 435.719301 -23.878125 
L 439.399019 -23.878125 
L 443.078738 -23.878125 
L 446.758456 -23.878125 
L 450.438175 -23.878125 
L 454.117893 -23.878125 
L 457.797611 -23.878125 
L 461.47733 -23.878125 
L 465.157048 -23.878125 
L 468.836767 -23.878125 
L 472.516485 -23.878125 
L 476.196204 -23.878125 
L 479.875922 -23.878125 
L 483.555641 -23.878125 
L 487.235359 -23.878125 
L 490.915078 -23.878125 
L 494.594796 -23.878125 
L 498.274515 -23.878125 
L 501.954233 -23.878125 
L 505.633952 -23.878125 
L 509.31367 -23.878125 
L 512.993389 -23.878125 
L 516.673107 -23.878125 
L 520.352826 -23.878125 
L 524.032544 -23.878125 
L 527.712262 -23.878125 
L 531.391981 -23.878125 
L 535.071699 -23.878125 
L 538.751418 -23.878125 
L 542.431136 -23.878125 
L 546.110855 -23.878125 
L 549.790573 -23.878125 
L 553.470292 -23.878125 
L 557.15001 -23.878125 
L 560.829729 -23.878125 
L 564.509447 -23.878125 
L 568.189166 -23.878125 
L 571.868884 -23.878125 
L 575.548603 -23.878125 
L 579.228321 -23.878125 
L 582.90804 -23.878125 
L 586.587758 -23.878125 
L 590.267477 -23.878125 
L 593.947195 -23.878125 
L 597.626913 -23.878125 
L 601.306632 -23.878125 
L 604.98635 -23.878125 
L 608.666069 -23.878125 
L 612.345787 -23.878125 
L 616.025506 -23.878125 
L 619.705224 -23.878125 
L 623.384943 -23.878125 
L 627.064661 -23.878125 
L 630.74438 -23.878125 
L 634.424098 -23.878125 
L 638.103817 -23.878125 
L 641.783535 -23.878125 
L 645.463254 -23.878125 
L 649.142972 -23.878125 
L 652.822691 -23.878125 
L 656.502409 -23.878125 
L 660.182128 -23.878125 
L 663.861846 -23.878125 
L 667.541564 -23.878125 
L 671.221283 -23.878125 
L 674.901001 -23.878125 
L 678.58072 -23.878125 
L 682.260438 -23.878125 
L 685.940157 -23.878125 
L 689.619875 -23.878125 
L 693.299594 -23.878125 
L 696.979312 -23.878125 
L 700.659031 -23.878125 
L 704.338749 -23.878125 
L 708.018468 -23.878125 
L 711.698186 -23.878125 
L 715.377905 -23.878125 
L 719.057623 -23.878125 
L 722.737342 -23.878125 
L 726.41706 -23.878125 
L 730.096779 -23.878125 
L 733.776497 -23.878125 
L 737.456215 -23.878125 
L 741.135934 -23.878125 
L 744.815652 -23.878125 
L 748.495371 -23.878125 
L 752.175089 -23.878125 
L 755.854808 -23.878125 
L 759.534526 -23.878125 
L 763.214245 -23.878125 
L 766.893963 -23.878125 
L 770.573682 -23.878125 
L 774.2534 -23.878125 
L 777.933119 -23.878125 
L 781.612837 -23.878125 
L 785.292556 -23.878125 
L 788.972274 -23.878125 
L 792.651993 -23.878125 
L 796.331711 -23.878125 
L 800.01143 -23.878125 
L 803.691148 -23.878125 
L 807.370866 -23.878125 
L 811.050585 -23.878125 
L 814.730303 -23.878125 
L 818.410022 -23.878125 
L 822.08974 -23.878125 
L 825.769459 -23.878125 
L 829.449177 -23.878125 
L 833.128896 -23.878125 
L 836.808614 -23.878125 
L 840.488333 -23.878125 
L 844.168051 -23.878125 
L 844.168051 -23.909784 
L 844.168051 -23.909784 
L 840.488333 -23.924891 
L 836.808614 -23.946397 
L 833.128896 -23.976635 
L 829.449177 -24.018636 
L 825.769459 -24.076281 
L 822.08974 -24.154464 
L 818.410022 -24.25928 
L 814.730303 -24.398209 
L 811.050585 -24.580312 
L 807.370866 -24.816427 
L 803.691148 -25.11935 
L 800.01143 -25.50401 
L 796.331711 -25.987619 
L 792.651993 -26.589805 
L 788.972274 -27.332699 
L 785.292556 -28.240991 
L 781.612837 -29.341934 
L 777.933119 -30.665278 
L 774.2534 -32.243124 
L 770.573682 -34.109674 
L 766.893963 -36.300842 
L 763.214245 -38.853713 
L 759.534526 -41.805795 
L 755.854808 -45.194062 
L 752.175089 -49.053748 
L 748.495371 -53.416906 
L 744.815652 -58.310729 
L 741.135934 -63.755689 
L 737.456215 -69.763547 
L 733.776497 -76.335334 
L 730.096779 -83.459424 
L 726.41706 -91.109827 
L 722.737342 -99.244861 
L 719.057623 -107.806339 
L 715.377905 -116.719406 
L 711.698186 -125.893132 
L 708.018468 -135.221922 
L 704.338749 -144.587756 
L 700.659031 -153.863227 
L 696.979312 -162.915264 
L 693.299594 -171.609393 
L 689.619875 -179.814337 
L 685.940157 -187.406701 
L 682.260438 -194.275489 
L 678.58072 -200.326194 
L 674.901001 -205.484201 
L 671.221283 -209.697305 
L 667.541564 -212.937183 
L 663.861846 -215.199736 
L 660.182128 -216.504286 
L 656.502409 -216.891707 
L 652.822691 -216.421619 
L 649.142972 -215.168862 
L 645.463254 -213.219481 
L 641.783535 -210.666522 
L 638.103817 -207.605876 
L 634.424098 -204.132448 
L 630.74438 -200.336843 
L 627.064661 -196.302728 
L 623.384943 -192.104959 
L 619.705224 -187.808489 
L 616.025506 -183.468037 
L 612.345787 -179.128415 
L 608.666069 -174.825396 
L 604.98635 -170.586973 
L 601.306632 -166.434848 
L 597.626913 -162.385997 
L 593.947195 -158.454162 
L 590.267477 -154.651162 
L 586.587758 -150.987917 
L 582.90804 -147.475133 
L 579.228321 -144.123624 
L 575.548603 -140.944264 
L 571.868884 -137.947626 
L 568.189166 -135.143363 
L 564.509447 -132.539411 
L 560.829729 -130.141127 
L 557.15001 -127.95045 
L 553.470292 -125.965193 
L 549.790573 -124.178538 
L 546.110855 -122.578798 
L 542.431136 -121.149483 
L 538.751418 -119.869655 
L 535.071699 -118.714569 
L 531.391981 -117.656537 
L 527.712262 -116.665952 
L 524.032544 -115.712415 
L 520.352826 -114.765868 
L 516.673107 -113.797707 
L 512.993389 -112.781785 
L 509.31367 -111.695304 
L 505.633952 -110.519546 
L 501.954233 -109.240438 
L 498.274515 -107.848956 
L 494.594796 -106.341331 
L 490.915078 -104.719086 
L 487.235359 -102.988877 
L 483.555641 -101.162135 
L 479.875922 -99.25452 
L 476.196204 -97.285188 
L 472.516485 -95.275889 
L 468.836767 -93.24995 
L 465.157048 -91.231169 
L 461.47733 -89.242715 
L 457.797611 -87.306072 
L 454.117893 -85.440121 
L 450.438175 -83.660415 
L 446.758456 -81.978675 
L 443.078738 -80.402549 
L 439.399019 -78.935625 
L 435.719301 -77.577658 
L 432.039582 -76.32498 
L 428.359864 -75.171037 
L 424.680145 -74.106968 
L 421.000427 -73.122197 
L 417.320708 -72.204968 
L 413.64099 -71.342819 
L 409.961271 -70.522953 
L 406.281553 -69.732542 
L 402.601834 -68.958962 
L 398.922116 -68.189999 
L 395.242397 -67.414041 
L 391.562679 -66.620283 
L 387.88296 -65.79896 
L 384.203242 -64.941596 
L 380.523524 -64.041265 
L 376.843805 -63.092838 
L 373.164087 -62.093185 
L 369.484368 -61.041301 
L 365.80465 -59.938331 
L 362.124931 -58.787482 
L 358.445213 -57.593804 
L 354.765494 -56.363865 
L 351.085776 -55.105329 
L 347.406057 -53.826483 
L 343.726339 -52.535753 
L 340.04662 -51.241246 
L 336.366902 -49.950377 
L 332.687183 -48.669601 
L 329.007465 -47.404288 
L 325.327746 -46.158726 
L 321.648028 -44.936266 
L 317.968309 -43.739569 
L 314.288591 -42.570915 
L 310.608873 -41.432541 
L 306.929154 -40.326941 
L 303.249436 -39.257105 
L 299.569717 -38.226637 
L 295.889999 -37.239758 
L 292.21028 -36.301165 
L 288.530562 -35.415779 
L 284.850843 -34.588395 
L 281.171125 -33.823275 
L 277.491406 -33.123739 
L 273.811688 -32.491787 
L 270.131969 -31.927801 
L 266.452251 -31.43036 
L 262.772532 -30.996186 
L 259.092814 -30.620229 
L 255.413095 -30.295879 
L 251.733377 -30.015301 
L 248.053658 -29.769841 
L 244.37394 -29.55049 
L 240.694222 -29.348352 
L 237.014503 -29.155088 
L 233.334785 -28.963308 
L 229.655066 -28.766875 
L 225.975348 -28.561117 
L 222.295629 -28.342934 
L 218.615911 -28.1108 
L 214.936192 -27.864676 
L 211.256474 -27.60584 
L 207.576755 -27.336666 
L 203.897037 -27.060357 
L 200.217318 -26.780666 
L 196.5376 -26.501619 
L 192.857881 -26.227255 
L 189.178163 -25.961403 
L 185.498444 -25.707498 
L 181.818726 -25.468441 
L 178.139008 -25.246516 
L 174.459289 -25.043343 
L 170.779571 -24.859879 
L 167.099852 -24.696453 
L 163.420134 -24.552833 
L 159.740415 -24.428301 
L 156.060697 -24.321756 
L 152.380978 -24.231808 
L 148.70126 -24.156876 
L 145.021541 -24.095279 
L 141.341823 -24.045315 
L 137.662104 -24.005326 
L 133.982386 -23.973745 
L 130.302667 -23.949137 
L 126.622949 -23.93022 
L 122.94323 -23.915872 
L 119.263512 -23.905137 
L 115.583793 -23.897213 
L 111.904075 -23.891443 
z
" style="stroke: #1f77b4; stroke-width: 2.5"/>
    </defs>
    <g clip-path="url(#p8380471003)">
     <use xlink:href="#me0dc13f7a9" x="0" y="635.878125" style="fill: #1f77b4; fill-opacity: 0.5; stroke: #1f77b4; stroke-width: 2.5"/>
    </g>
   </g>
   <g id="matplotlib.axis_3">
    <g id="xtick_7">
     <g id="line2d_16">
      <g>
       <use xlink:href="#mae58bda3e2" x="66.363173" y="612" style="stroke: #000000; stroke-width: 0.8"/>
      </g>
     </g>
     <g id="text_21">
      <!-- 0.0 -->
      <g transform="translate(58.41161 626.598438) scale(0.1 -0.1)">
       <use xlink:href="#DejaVuSans-30"/>
       <use xlink:href="#DejaVuSans-2e" x="63.623047"/>
       <use xlink:href="#DejaVuSans-30" x="95.410156"/>
      </g>
     </g>
    </g>
    <g id="xtick_8">
     <g id="line2d_17">
      <g>
       <use xlink:href="#mae58bda3e2" x="219.784857" y="612" style="stroke: #000000; stroke-width: 0.8"/>
      </g>
     </g>
     <g id="text_22">
      <!-- 0.2 -->
      <g transform="translate(211.833294 626.598438) scale(0.1 -0.1)">
       <use xlink:href="#DejaVuSans-30"/>
       <use xlink:href="#DejaVuSans-2e" x="63.623047"/>
       <use xlink:href="#DejaVuSans-32" x="95.410156"/>
      </g>
     </g>
    </g>
    <g id="xtick_9">
     <g id="line2d_18">
      <g>
       <use xlink:href="#mae58bda3e2" x="373.20654" y="612" style="stroke: #000000; stroke-width: 0.8"/>
      </g>
     </g>
     <g id="text_23">
      <!-- 0.4 -->
      <g transform="translate(365.254978 626.598438) scale(0.1 -0.1)">
       <use xlink:href="#DejaVuSans-30"/>
       <use xlink:href="#DejaVuSans-2e" x="63.623047"/>
       <use xlink:href="#DejaVuSans-34" x="95.410156"/>
      </g>
     </g>
    </g>
    <g id="xtick_10">
     <g id="line2d_19">
      <g>
       <use xlink:href="#mae58bda3e2" x="526.628224" y="612" style="stroke: #000000; stroke-width: 0.8"/>
      </g>
     </g>
     <g id="text_24">
      <!-- 0.6 -->
      <g transform="translate(518.676662 626.598438) scale(0.1 -0.1)">
       <use xlink:href="#DejaVuSans-30"/>
       <use xlink:href="#DejaVuSans-2e" x="63.623047"/>
       <use xlink:href="#DejaVuSans-36" x="95.410156"/>
      </g>
     </g>
    </g>
    <g id="xtick_11">
     <g id="line2d_20">
      <g>
       <use xlink:href="#mae58bda3e2" x="680.049908" y="612" style="stroke: #000000; stroke-width: 0.8"/>
      </g>
     </g>
     <g id="text_25">
      <!-- 0.8 -->
      <g transform="translate(672.098345 626.598438) scale(0.1 -0.1)">
       <use xlink:href="#DejaVuSans-30"/>
       <use xlink:href="#DejaVuSans-2e" x="63.623047"/>
       <use xlink:href="#DejaVuSans-38" x="95.410156"/>
      </g>
     </g>
    </g>
    <g id="xtick_12">
     <g id="line2d_21">
      <g>
       <use xlink:href="#mae58bda3e2" x="833.471592" y="612" style="stroke: #000000; stroke-width: 0.8"/>
      </g>
     </g>
     <g id="text_26">
      <!-- 1.0 -->
      <g transform="translate(825.520029 626.598438) scale(0.1 -0.1)">
       <use xlink:href="#DejaVuSans-31"/>
       <use xlink:href="#DejaVuSans-2e" x="63.623047"/>
       <use xlink:href="#DejaVuSans-30" x="95.410156"/>
      </g>
     </g>
    </g>
   </g>
   <g id="matplotlib.axis_4">
    <g id="ytick_10">
     <g id="line2d_22">
      <g>
       <use xlink:href="#m7d61d85e30" x="43.78125" y="612" style="stroke: #000000; stroke-width: 0.8"/>
      </g>
     </g>
     <g id="text_27">
      <!-- 0.0 -->
      <g transform="translate(20.878125 615.799219) scale(0.1 -0.1)">
       <use xlink:href="#DejaVuSans-30"/>
       <use xlink:href="#DejaVuSans-2e" x="63.623047"/>
       <use xlink:href="#DejaVuSans-30" x="95.410156"/>
      </g>
     </g>
    </g>
    <g id="ytick_11">
     <g id="line2d_23">
      <g>
       <use xlink:href="#m7d61d85e30" x="43.78125" y="584.708574" style="stroke: #000000; stroke-width: 0.8"/>
      </g>
     </g>
     <g id="text_28">
      <!-- 0.5 -->
      <g transform="translate(20.878125 588.507793) scale(0.1 -0.1)">
       <use xlink:href="#DejaVuSans-30"/>
       <use xlink:href="#DejaVuSans-2e" x="63.623047"/>
       <use xlink:href="#DejaVuSans-35" x="95.410156"/>
      </g>
     </g>
    </g>
    <g id="ytick_12">
     <g id="line2d_24">
      <g>
       <use xlink:href="#m7d61d85e30" x="43.78125" y="557.417148" style="stroke: #000000; stroke-width: 0.8"/>
      </g>
     </g>
     <g id="text_29">
      <!-- 1.0 -->
      <g transform="translate(20.878125 561.216367) scale(0.1 -0.1)">
       <use xlink:href="#DejaVuSans-31"/>
       <use xlink:href="#DejaVuSans-2e" x="63.623047"/>
       <use xlink:href="#DejaVuSans-30" x="95.410156"/>
      </g>
     </g>
    </g>
    <g id="ytick_13">
     <g id="line2d_25">
      <g>
       <use xlink:href="#m7d61d85e30" x="43.78125" y="530.125723" style="stroke: #000000; stroke-width: 0.8"/>
      </g>
     </g>
     <g id="text_30">
      <!-- 1.5 -->
      <g transform="translate(20.878125 533.924941) scale(0.1 -0.1)">
       <use xlink:href="#DejaVuSans-31"/>
       <use xlink:href="#DejaVuSans-2e" x="63.623047"/>
       <use xlink:href="#DejaVuSans-35" x="95.410156"/>
      </g>
     </g>
    </g>
    <g id="ytick_14">
     <g id="line2d_26">
      <g>
       <use xlink:href="#m7d61d85e30" x="43.78125" y="502.834297" style="stroke: #000000; stroke-width: 0.8"/>
      </g>
     </g>
     <g id="text_31">
      <!-- 2.0 -->
      <g transform="translate(20.878125 506.633516) scale(0.1 -0.1)">
       <use xlink:href="#DejaVuSans-32"/>
       <use xlink:href="#DejaVuSans-2e" x="63.623047"/>
       <use xlink:href="#DejaVuSans-30" x="95.410156"/>
      </g>
     </g>
    </g>
    <g id="ytick_15">
     <g id="line2d_27">
      <g>
       <use xlink:href="#m7d61d85e30" x="43.78125" y="475.542871" style="stroke: #000000; stroke-width: 0.8"/>
      </g>
     </g>
     <g id="text_32">
      <!-- 2.5 -->
      <g transform="translate(20.878125 479.34209) scale(0.1 -0.1)">
       <use xlink:href="#DejaVuSans-32"/>
       <use xlink:href="#DejaVuSans-2e" x="63.623047"/>
       <use xlink:href="#DejaVuSans-35" x="95.410156"/>
      </g>
     </g>
    </g>
    <g id="ytick_16">
     <g id="line2d_28">
      <g>
       <use xlink:href="#m7d61d85e30" x="43.78125" y="448.251445" style="stroke: #000000; stroke-width: 0.8"/>
      </g>
     </g>
     <g id="text_33">
      <!-- 3.0 -->
      <g transform="translate(20.878125 452.050664) scale(0.1 -0.1)">
       <use xlink:href="#DejaVuSans-33"/>
       <use xlink:href="#DejaVuSans-2e" x="63.623047"/>
       <use xlink:href="#DejaVuSans-30" x="95.410156"/>
      </g>
     </g>
    </g>
    <g id="ytick_17">
     <g id="line2d_29">
      <g>
       <use xlink:href="#m7d61d85e30" x="43.78125" y="420.960019" style="stroke: #000000; stroke-width: 0.8"/>
      </g>
     </g>
     <g id="text_34">
      <!-- 3.5 -->
      <g transform="translate(20.878125 424.759238) scale(0.1 -0.1)">
       <use xlink:href="#DejaVuSans-33"/>
       <use xlink:href="#DejaVuSans-2e" x="63.623047"/>
       <use xlink:href="#DejaVuSans-35" x="95.410156"/>
      </g>
     </g>
    </g>
    <g id="ytick_18">
     <g id="line2d_30">
      <g>
       <use xlink:href="#m7d61d85e30" x="43.78125" y="393.668594" style="stroke: #000000; stroke-width: 0.8"/>
      </g>
     </g>
     <g id="text_35">
      <!-- 4.0 -->
      <g transform="translate(20.878125 397.467812) scale(0.1 -0.1)">
       <use xlink:href="#DejaVuSans-34"/>
       <use xlink:href="#DejaVuSans-2e" x="63.623047"/>
       <use xlink:href="#DejaVuSans-30" x="95.410156"/>
      </g>
     </g>
    </g>
    <g id="text_36">
     <!-- Density -->
     <g transform="translate(14.798438 510.486855) rotate(-90) scale(0.1 -0.1)">
      <use xlink:href="#DejaVuSans-44"/>
      <use xlink:href="#DejaVuSans-65" x="77.001953"/>
      <use xlink:href="#DejaVuSans-6e" x="138.525391"/>
      <use xlink:href="#DejaVuSans-73" x="201.904297"/>
      <use xlink:href="#DejaVuSans-69" x="254.003906"/>
      <use xlink:href="#DejaVuSans-74" x="281.787109"/>
      <use xlink:href="#DejaVuSans-79" x="320.996094"/>
     </g>
    </g>
   </g>
   <g id="patch_11">
    <path d="M 43.78125 612 
L 43.78125 370.956522 
" style="fill: none; stroke: #000000; stroke-width: 0.8; stroke-linejoin: miter; stroke-linecap: square"/>
   </g>
   <g id="patch_12">
    <path d="M 880.78125 612 
L 880.78125 370.956522 
" style="fill: none; stroke: #000000; stroke-width: 0.8; stroke-linejoin: miter; stroke-linecap: square"/>
   </g>
   <g id="patch_13">
    <path d="M 43.78125 612 
L 880.78125 612 
" style="fill: none; stroke: #000000; stroke-width: 0.8; stroke-linejoin: miter; stroke-linecap: square"/>
   </g>
   <g id="patch_14">
    <path d="M 43.78125 370.956522 
L 880.78125 370.956522 
" style="fill: none; stroke: #000000; stroke-width: 0.8; stroke-linejoin: miter; stroke-linecap: square"/>
   </g>
   <g id="text_37">
    <!-- Spearman correlation coefficients -->
    <g transform="translate(361.111875 364.956522) scale(0.12 -0.12)">
     <defs>
      <path id="DejaVuSans-53" d="M 3425 4513 
L 3425 3897 
Q 3066 4069 2747 4153 
Q 2428 4238 2131 4238 
Q 1616 4238 1336 4038 
Q 1056 3838 1056 3469 
Q 1056 3159 1242 3001 
Q 1428 2844 1947 2747 
L 2328 2669 
Q 3034 2534 3370 2195 
Q 3706 1856 3706 1288 
Q 3706 609 3251 259 
Q 2797 -91 1919 -91 
Q 1588 -91 1214 -16 
Q 841 59 441 206 
L 441 856 
Q 825 641 1194 531 
Q 1563 422 1919 422 
Q 2459 422 2753 634 
Q 3047 847 3047 1241 
Q 3047 1584 2836 1778 
Q 2625 1972 2144 2069 
L 1759 2144 
Q 1053 2284 737 2584 
Q 422 2884 422 3419 
Q 422 4038 858 4394 
Q 1294 4750 2059 4750 
Q 2388 4750 2728 4690 
Q 3069 4631 3425 4513 
z
" transform="scale(0.015625)"/>
      <path id="DejaVuSans-6d" d="M 3328 2828 
Q 3544 3216 3844 3400 
Q 4144 3584 4550 3584 
Q 5097 3584 5394 3201 
Q 5691 2819 5691 2113 
L 5691 0 
L 5113 0 
L 5113 2094 
Q 5113 2597 4934 2840 
Q 4756 3084 4391 3084 
Q 3944 3084 3684 2787 
Q 3425 2491 3425 1978 
L 3425 0 
L 2847 0 
L 2847 2094 
Q 2847 2600 2669 2842 
Q 2491 3084 2119 3084 
Q 1678 3084 1418 2786 
Q 1159 2488 1159 1978 
L 1159 0 
L 581 0 
L 581 3500 
L 1159 3500 
L 1159 2956 
Q 1356 3278 1631 3431 
Q 1906 3584 2284 3584 
Q 2666 3584 2933 3390 
Q 3200 3197 3328 2828 
z
" transform="scale(0.015625)"/>
     </defs>
     <use xlink:href="#DejaVuSans-53"/>
     <use xlink:href="#DejaVuSans-70" x="63.476562"/>
     <use xlink:href="#DejaVuSans-65" x="126.953125"/>
     <use xlink:href="#DejaVuSans-61" x="188.476562"/>
     <use xlink:href="#DejaVuSans-72" x="249.755859"/>
     <use xlink:href="#DejaVuSans-6d" x="289.119141"/>
     <use xlink:href="#DejaVuSans-61" x="386.53125"/>
     <use xlink:href="#DejaVuSans-6e" x="447.810547"/>
     <use xlink:href="#DejaVuSans-20" x="511.189453"/>
     <use xlink:href="#DejaVuSans-63" x="542.976562"/>
     <use xlink:href="#DejaVuSans-6f" x="597.957031"/>
     <use xlink:href="#DejaVuSans-72" x="659.138672"/>
     <use xlink:href="#DejaVuSans-72" x="698.501953"/>
     <use xlink:href="#DejaVuSans-65" x="737.365234"/>
     <use xlink:href="#DejaVuSans-6c" x="798.888672"/>
     <use xlink:href="#DejaVuSans-61" x="826.671875"/>
     <use xlink:href="#DejaVuSans-74" x="887.951172"/>
     <use xlink:href="#DejaVuSans-69" x="927.160156"/>
     <use xlink:href="#DejaVuSans-6f" x="954.943359"/>
     <use xlink:href="#DejaVuSans-6e" x="1016.125"/>
     <use xlink:href="#DejaVuSans-20" x="1079.503906"/>
     <use xlink:href="#DejaVuSans-63" x="1111.291016"/>
     <use xlink:href="#DejaVuSans-6f" x="1166.271484"/>
     <use xlink:href="#DejaVuSans-65" x="1227.453125"/>
     <use xlink:href="#DejaVuSans-66" x="1288.976562"/>
     <use xlink:href="#DejaVuSans-66" x="1324.181641"/>
     <use xlink:href="#DejaVuSans-69" x="1359.386719"/>
     <use xlink:href="#DejaVuSans-63" x="1387.169922"/>
     <use xlink:href="#DejaVuSans-69" x="1442.150391"/>
     <use xlink:href="#DejaVuSans-65" x="1469.933594"/>
     <use xlink:href="#DejaVuSans-6e" x="1531.457031"/>
     <use xlink:href="#DejaVuSans-74" x="1594.835938"/>
     <use xlink:href="#DejaVuSans-73" x="1634.044922"/>
    </g>
   </g>
   <g id="legend_2">
    <g id="patch_15">
     <path d="M 50.78125 422.990897 
L 138.80625 422.990897 
Q 140.80625 422.990897 140.80625 420.990897 
L 140.80625 377.956522 
Q 140.80625 375.956522 138.80625 375.956522 
L 50.78125 375.956522 
Q 48.78125 375.956522 48.78125 377.956522 
L 48.78125 420.990897 
Q 48.78125 422.990897 50.78125 422.990897 
z
" style="fill: #ffffff; opacity: 0.8; stroke: #cccccc; stroke-linejoin: miter"/>
    </g>
    <g id="text_38">
     <!-- Correlation type: -->
     <g transform="translate(52.78125 387.554959) scale(0.1 -0.1)">
      <use xlink:href="#DejaVuSans-43"/>
      <use xlink:href="#DejaVuSans-6f" x="69.824219"/>
      <use xlink:href="#DejaVuSans-72" x="131.005859"/>
      <use xlink:href="#DejaVuSans-72" x="170.369141"/>
      <use xlink:href="#DejaVuSans-65" x="209.232422"/>
      <use xlink:href="#DejaVuSans-6c" x="270.755859"/>
      <use xlink:href="#DejaVuSans-61" x="298.539062"/>
      <use xlink:href="#DejaVuSans-74" x="359.818359"/>
      <use xlink:href="#DejaVuSans-69" x="399.027344"/>
      <use xlink:href="#DejaVuSans-6f" x="426.810547"/>
      <use xlink:href="#DejaVuSans-6e" x="487.992188"/>
      <use xlink:href="#DejaVuSans-20" x="551.371094"/>
      <use xlink:href="#DejaVuSans-74" x="583.158203"/>
      <use xlink:href="#DejaVuSans-79" x="622.367188"/>
      <use xlink:href="#DejaVuSans-70" x="681.546875"/>
      <use xlink:href="#DejaVuSans-65" x="745.023438"/>
      <use xlink:href="#DejaVuSans-3a" x="806.546875"/>
     </g>
    </g>
    <g id="patch_16">
     <path d="M 53.285156 402.233084 
L 73.285156 402.233084 
L 73.285156 395.233084 
L 53.285156 395.233084 
z
" style="fill: #1f77b4; fill-opacity: 0.5; stroke: #1f77b4; stroke-width: 2.5; stroke-linejoin: miter"/>
    </g>
    <g id="text_39">
     <!-- Codon -->
     <g transform="translate(81.285156 402.233084) scale(0.1 -0.1)">
      <use xlink:href="#DejaVuSans-43"/>
      <use xlink:href="#DejaVuSans-6f" x="69.824219"/>
      <use xlink:href="#DejaVuSans-64" x="131.005859"/>
      <use xlink:href="#DejaVuSans-6f" x="194.482422"/>
      <use xlink:href="#DejaVuSans-6e" x="255.664062"/>
     </g>
    </g>
    <g id="patch_17">
     <path d="M 53.285156 416.911209 
L 73.285156 416.911209 
L 73.285156 409.911209 
L 53.285156 409.911209 
z
" style="fill: #ff7f0e; fill-opacity: 0.5; stroke: #ff7f0e; stroke-width: 2.5; stroke-linejoin: miter"/>
    </g>
    <g id="text_40">
     <!-- Codon+GC -->
     <g transform="translate(81.285156 416.911209) scale(0.1 -0.1)">
      <use xlink:href="#DejaVuSans-43"/>
      <use xlink:href="#DejaVuSans-6f" x="69.824219"/>
      <use xlink:href="#DejaVuSans-64" x="131.005859"/>
      <use xlink:href="#DejaVuSans-6f" x="194.482422"/>
      <use xlink:href="#DejaVuSans-6e" x="255.664062"/>
      <use xlink:href="#DejaVuSans-2b" x="319.042969"/>
      <use xlink:href="#DejaVuSans-47" x="402.832031"/>
      <use xlink:href="#DejaVuSans-43" x="480.322266"/>
     </g>
    </g>
   </g>
  </g>
  <g id="text_41">
   <!-- Eukaryota - Density of correlation coefficients for genetic code: Rhabdopleuridae mitochondrial -->
   <g transform="translate(90.605859 18.597656) scale(0.15 -0.15)">
    <defs>
     <path id="DejaVuSans-45" d="M 628 4666 
L 3578 4666 
L 3578 4134 
L 1259 4134 
L 1259 2753 
L 3481 2753 
L 3481 2222 
L 1259 2222 
L 1259 531 
L 3634 531 
L 3634 0 
L 628 0 
L 628 4666 
z
" transform="scale(0.015625)"/>
     <path id="DejaVuSans-75" d="M 544 1381 
L 544 3500 
L 1119 3500 
L 1119 1403 
Q 1119 906 1312 657 
Q 1506 409 1894 409 
Q 2359 409 2629 706 
Q 2900 1003 2900 1516 
L 2900 3500 
L 3475 3500 
L 3475 0 
L 2900 0 
L 2900 538 
Q 2691 219 2414 64 
Q 2138 -91 1772 -91 
Q 1169 -91 856 284 
Q 544 659 544 1381 
z
M 1991 3584 
L 1991 3584 
z
" transform="scale(0.015625)"/>
     <path id="DejaVuSans-6b" d="M 581 4863 
L 1159 4863 
L 1159 1991 
L 2875 3500 
L 3609 3500 
L 1753 1863 
L 3688 0 
L 2938 0 
L 1159 1709 
L 1159 0 
L 581 0 
L 581 4863 
z
" transform="scale(0.015625)"/>
     <path id="DejaVuSans-2d" d="M 313 2009 
L 1997 2009 
L 1997 1497 
L 313 1497 
L 313 2009 
z
" transform="scale(0.015625)"/>
     <path id="DejaVuSans-67" d="M 2906 1791 
Q 2906 2416 2648 2759 
Q 2391 3103 1925 3103 
Q 1463 3103 1205 2759 
Q 947 2416 947 1791 
Q 947 1169 1205 825 
Q 1463 481 1925 481 
Q 2391 481 2648 825 
Q 2906 1169 2906 1791 
z
M 3481 434 
Q 3481 -459 3084 -895 
Q 2688 -1331 1869 -1331 
Q 1566 -1331 1297 -1286 
Q 1028 -1241 775 -1147 
L 775 -588 
Q 1028 -725 1275 -790 
Q 1522 -856 1778 -856 
Q 2344 -856 2625 -561 
Q 2906 -266 2906 331 
L 2906 616 
Q 2728 306 2450 153 
Q 2172 0 1784 0 
Q 1141 0 747 490 
Q 353 981 353 1791 
Q 353 2603 747 3093 
Q 1141 3584 1784 3584 
Q 2172 3584 2450 3431 
Q 2728 3278 2906 2969 
L 2906 3500 
L 3481 3500 
L 3481 434 
z
" transform="scale(0.015625)"/>
     <path id="DejaVuSans-52" d="M 2841 2188 
Q 3044 2119 3236 1894 
Q 3428 1669 3622 1275 
L 4263 0 
L 3584 0 
L 2988 1197 
Q 2756 1666 2539 1819 
Q 2322 1972 1947 1972 
L 1259 1972 
L 1259 0 
L 628 0 
L 628 4666 
L 2053 4666 
Q 2853 4666 3247 4331 
Q 3641 3997 3641 3322 
Q 3641 2881 3436 2590 
Q 3231 2300 2841 2188 
z
M 1259 4147 
L 1259 2491 
L 2053 2491 
Q 2509 2491 2742 2702 
Q 2975 2913 2975 3322 
Q 2975 3731 2742 3939 
Q 2509 4147 2053 4147 
L 1259 4147 
z
" transform="scale(0.015625)"/>
     <path id="DejaVuSans-68" d="M 3513 2113 
L 3513 0 
L 2938 0 
L 2938 2094 
Q 2938 2591 2744 2837 
Q 2550 3084 2163 3084 
Q 1697 3084 1428 2787 
Q 1159 2491 1159 1978 
L 1159 0 
L 581 0 
L 581 4863 
L 1159 4863 
L 1159 2956 
Q 1366 3272 1645 3428 
Q 1925 3584 2291 3584 
Q 2894 3584 3203 3211 
Q 3513 2838 3513 2113 
z
" transform="scale(0.015625)"/>
     <path id="DejaVuSans-62" d="M 3116 1747 
Q 3116 2381 2855 2742 
Q 2594 3103 2138 3103 
Q 1681 3103 1420 2742 
Q 1159 2381 1159 1747 
Q 1159 1113 1420 752 
Q 1681 391 2138 391 
Q 2594 391 2855 752 
Q 3116 1113 3116 1747 
z
M 1159 2969 
Q 1341 3281 1617 3432 
Q 1894 3584 2278 3584 
Q 2916 3584 3314 3078 
Q 3713 2572 3713 1747 
Q 3713 922 3314 415 
Q 2916 -91 2278 -91 
Q 1894 -91 1617 61 
Q 1341 213 1159 525 
L 1159 0 
L 581 0 
L 581 4863 
L 1159 4863 
L 1159 2969 
z
" transform="scale(0.015625)"/>
    </defs>
    <use xlink:href="#DejaVuSans-45"/>
    <use xlink:href="#DejaVuSans-75" x="63.183594"/>
    <use xlink:href="#DejaVuSans-6b" x="126.5625"/>
    <use xlink:href="#DejaVuSans-61" x="182.722656"/>
    <use xlink:href="#DejaVuSans-72" x="244.001953"/>
    <use xlink:href="#DejaVuSans-79" x="285.115234"/>
    <use xlink:href="#DejaVuSans-6f" x="344.294922"/>
    <use xlink:href="#DejaVuSans-74" x="405.476562"/>
    <use xlink:href="#DejaVuSans-61" x="444.685547"/>
    <use xlink:href="#DejaVuSans-20" x="505.964844"/>
    <use xlink:href="#DejaVuSans-2d" x="537.751953"/>
    <use xlink:href="#DejaVuSans-20" x="573.835938"/>
    <use xlink:href="#DejaVuSans-44" x="605.623047"/>
    <use xlink:href="#DejaVuSans-65" x="682.625"/>
    <use xlink:href="#DejaVuSans-6e" x="744.148438"/>
    <use xlink:href="#DejaVuSans-73" x="807.527344"/>
    <use xlink:href="#DejaVuSans-69" x="859.626953"/>
    <use xlink:href="#DejaVuSans-74" x="887.410156"/>
    <use xlink:href="#DejaVuSans-79" x="926.619141"/>
    <use xlink:href="#DejaVuSans-20" x="985.798828"/>
    <use xlink:href="#DejaVuSans-6f" x="1017.585938"/>
    <use xlink:href="#DejaVuSans-66" x="1078.767578"/>
    <use xlink:href="#DejaVuSans-20" x="1113.972656"/>
    <use xlink:href="#DejaVuSans-63" x="1145.759766"/>
    <use xlink:href="#DejaVuSans-6f" x="1200.740234"/>
    <use xlink:href="#DejaVuSans-72" x="1261.921875"/>
    <use xlink:href="#DejaVuSans-72" x="1301.285156"/>
    <use xlink:href="#DejaVuSans-65" x="1340.148438"/>
    <use xlink:href="#DejaVuSans-6c" x="1401.671875"/>
    <use xlink:href="#DejaVuSans-61" x="1429.455078"/>
    <use xlink:href="#DejaVuSans-74" x="1490.734375"/>
    <use xlink:href="#DejaVuSans-69" x="1529.943359"/>
    <use xlink:href="#DejaVuSans-6f" x="1557.726562"/>
    <use xlink:href="#DejaVuSans-6e" x="1618.908203"/>
    <use xlink:href="#DejaVuSans-20" x="1682.287109"/>
    <use xlink:href="#DejaVuSans-63" x="1714.074219"/>
    <use xlink:href="#DejaVuSans-6f" x="1769.054688"/>
    <use xlink:href="#DejaVuSans-65" x="1830.236328"/>
    <use xlink:href="#DejaVuSans-66" x="1891.759766"/>
    <use xlink:href="#DejaVuSans-66" x="1926.964844"/>
    <use xlink:href="#DejaVuSans-69" x="1962.169922"/>
    <use xlink:href="#DejaVuSans-63" x="1989.953125"/>
    <use xlink:href="#DejaVuSans-69" x="2044.933594"/>
    <use xlink:href="#DejaVuSans-65" x="2072.716797"/>
    <use xlink:href="#DejaVuSans-6e" x="2134.240234"/>
    <use xlink:href="#DejaVuSans-74" x="2197.619141"/>
    <use xlink:href="#DejaVuSans-73" x="2236.828125"/>
    <use xlink:href="#DejaVuSans-20" x="2288.927734"/>
    <use xlink:href="#DejaVuSans-66" x="2320.714844"/>
    <use xlink:href="#DejaVuSans-6f" x="2355.919922"/>
    <use xlink:href="#DejaVuSans-72" x="2417.101562"/>
    <use xlink:href="#DejaVuSans-20" x="2458.214844"/>
    <use xlink:href="#DejaVuSans-67" x="2490.001953"/>
    <use xlink:href="#DejaVuSans-65" x="2553.478516"/>
    <use xlink:href="#DejaVuSans-6e" x="2615.001953"/>
    <use xlink:href="#DejaVuSans-65" x="2678.380859"/>
    <use xlink:href="#DejaVuSans-74" x="2739.904297"/>
    <use xlink:href="#DejaVuSans-69" x="2779.113281"/>
    <use xlink:href="#DejaVuSans-63" x="2806.896484"/>
    <use xlink:href="#DejaVuSans-20" x="2861.876953"/>
    <use xlink:href="#DejaVuSans-63" x="2893.664062"/>
    <use xlink:href="#DejaVuSans-6f" x="2948.644531"/>
    <use xlink:href="#DejaVuSans-64" x="3009.826172"/>
    <use xlink:href="#DejaVuSans-65" x="3073.302734"/>
    <use xlink:href="#DejaVuSans-3a" x="3134.826172"/>
    <use xlink:href="#DejaVuSans-20" x="3168.517578"/>
    <use xlink:href="#DejaVuSans-52" x="3200.304688"/>
    <use xlink:href="#DejaVuSans-68" x="3269.787109"/>
    <use xlink:href="#DejaVuSans-61" x="3333.166016"/>
    <use xlink:href="#DejaVuSans-62" x="3394.445312"/>
    <use xlink:href="#DejaVuSans-64" x="3457.921875"/>
    <use xlink:href="#DejaVuSans-6f" x="3521.398438"/>
    <use xlink:href="#DejaVuSans-70" x="3582.580078"/>
    <use xlink:href="#DejaVuSans-6c" x="3646.056641"/>
    <use xlink:href="#DejaVuSans-65" x="3673.839844"/>
    <use xlink:href="#DejaVuSans-75" x="3735.363281"/>
    <use xlink:href="#DejaVuSans-72" x="3798.742188"/>
    <use xlink:href="#DejaVuSans-69" x="3839.855469"/>
    <use xlink:href="#DejaVuSans-64" x="3867.638672"/>
    <use xlink:href="#DejaVuSans-61" x="3931.115234"/>
    <use xlink:href="#DejaVuSans-65" x="3992.394531"/>
    <use xlink:href="#DejaVuSans-20" x="4053.917969"/>
    <use xlink:href="#DejaVuSans-6d" x="4085.705078"/>
    <use xlink:href="#DejaVuSans-69" x="4183.117188"/>
    <use xlink:href="#DejaVuSans-74" x="4210.900391"/>
    <use xlink:href="#DejaVuSans-6f" x="4250.109375"/>
    <use xlink:href="#DejaVuSans-63" x="4311.291016"/>
    <use xlink:href="#DejaVuSans-68" x="4366.271484"/>
    <use xlink:href="#DejaVuSans-6f" x="4429.650391"/>
    <use xlink:href="#DejaVuSans-6e" x="4490.832031"/>
    <use xlink:href="#DejaVuSans-64" x="4554.210938"/>
    <use xlink:href="#DejaVuSans-72" x="4617.6875"/>
    <use xlink:href="#DejaVuSans-69" x="4658.800781"/>
    <use xlink:href="#DejaVuSans-61" x="4686.583984"/>
    <use xlink:href="#DejaVuSans-6c" x="4747.863281"/>
   </g>
  </g>
 </g>
 <defs>
  <clipPath id="p72a8a42060">
   <rect x="43.78125" y="57.6" width="837" height="241.043478"/>
  </clipPath>
  <clipPath id="p8380471003">
   <rect x="43.78125" y="370.956522" width="837" height="241.043478"/>
  </clipPath>
 </defs>
</svg>
