<?xml version="1.0" encoding="utf-8" standalone="no"?>
<!DOCTYPE svg PUBLIC "-//W3C//DTD SVG 1.1//EN"
  "http://www.w3.org/Graphics/SVG/1.1/DTD/svg11.dtd">
<svg xmlns:xlink="http://www.w3.org/1999/xlink" width="564.795918pt" height="568.8pt" viewBox="0 0 564.795918 568.8" xmlns="http://www.w3.org/2000/svg" version="1.1">
 <metadata>
  <rdf:RDF xmlns:dc="http://purl.org/dc/elements/1.1/" xmlns:cc="http://creativecommons.org/ns#" xmlns:rdf="http://www.w3.org/1999/02/22-rdf-syntax-ns#">
   <cc:Work>
    <dc:type rdf:resource="http://purl.org/dc/dcmitype/StillImage"/>
    <dc:date>2024-08-01T13:58:37.731778</dc:date>
    <dc:format>image/svg+xml</dc:format>
    <dc:creator>
     <cc:Agent>
      <dc:title>Matplotlib v3.8.3, https://matplotlib.org/</dc:title>
     </cc:Agent>
    </dc:creator>
   </cc:Work>
  </rdf:RDF>
 </metadata>
 <defs>
  <style type="text/css">*{stroke-linejoin: round; stroke-linecap: butt}</style>
 </defs>
 <g id="figure_1">
  <g id="patch_1">
   <path d="M 0 568.8 
L 564.795918 568.8 
L 564.795918 0 
L 0 0 
z
" style="fill: #ffffff"/>
  </g>
  <g id="axes_1">
   <g id="patch_2">
    <path d="M 7.2 561.6 
L 557.595918 561.6 
L 557.595918 7.2 
L 7.2 7.2 
z
" style="fill: #ffffff"/>
   </g>
   <g id="patch_3">
    <path d="M 81.546993 292.200828 
Q 118.005452 367.907566 153.978814 442.606991 
" clip-path="url(#pa54132d6ad)" style="fill: none; stroke: #000000; stroke-linecap: round"/>
    <path d="M 154.045216 438.135348 
L 153.978814 442.606991 
L 150.441341 439.870883 
z
" clip-path="url(#pa54132d6ad)" style="stroke: #000000; stroke-linecap: round"/>
   </g>
   <g id="patch_4">
    <path d="M 84.562687 289.800805 
Q 208.367525 388.531851 331.29825 486.565814 
" clip-path="url(#pa54132d6ad)" style="fill: none; stroke: #000000; stroke-linecap: round"/>
    <path d="M 329.417903 482.508192 
L 331.29825 486.565814 
L 326.923944 485.635519 
z
" clip-path="url(#pa54132d6ad)" style="stroke: #000000; stroke-linecap: round"/>
   </g>
   <g id="patch_5">
    <path d="M 86.232885 286.326986 
Q 280.832937 330.743171 474.342986 374.91057 
" clip-path="url(#pa54132d6ad)" style="fill: none; stroke: #000000; stroke-linecap: round"/>
    <path d="M 470.888316 372.07063 
L 474.342986 374.91057 
L 469.998232 375.970342 
z
" clip-path="url(#pa54132d6ad)" style="stroke: #000000; stroke-linecap: round"/>
   </g>
   <g id="patch_6">
    <path d="M 86.232885 282.473067 
Q 280.832943 238.056876 474.342998 193.889471 
" clip-path="url(#pa54132d6ad)" style="fill: none; stroke: #000000; stroke-linecap: round"/>
    <path d="M 469.998245 192.829699 
L 474.342998 193.889471 
L 470.888328 196.729411 
z
" clip-path="url(#pa54132d6ad)" style="stroke: #000000; stroke-linecap: round"/>
   </g>
   <g id="patch_7">
    <path d="M 84.562685 278.999247 
Q 208.367489 180.268177 331.298179 82.23419 
" clip-path="url(#pa54132d6ad)" style="fill: none; stroke: #000000; stroke-linecap: round"/>
    <path d="M 326.923874 83.164487 
L 331.298179 82.23419 
L 329.417833 86.291812 
z
" clip-path="url(#pa54132d6ad)" style="stroke: #000000; stroke-linecap: round"/>
   </g>
   <g id="patch_8">
    <path d="M 81.546994 276.599222 
Q 118.005458 200.892461 153.978826 126.193014 
" clip-path="url(#pa54132d6ad)" style="fill: none; stroke: #000000; stroke-linecap: round"/>
    <path d="M 150.441353 128.929122 
L 153.978826 126.193014 
L 154.045229 130.664657 
z
" clip-path="url(#pa54132d6ad)" style="stroke: #000000; stroke-linecap: round"/>
   </g>
   <g id="text_1">
    <g id="patch_9">
     <path d="M 102.660943 354.111567 
L 119.22446 388.506051 
Q 120.526112 391.208958 123.229018 389.907306 
L 131.948707 385.708123 
Q 134.651613 384.406472 133.349961 381.703565 
L 116.786444 347.309082 
Q 115.484792 344.606175 112.781886 345.907827 
L 104.062197 350.107009 
Q 101.359291 351.408661 102.660943 354.111567 
z
" clip-path="url(#pa54132d6ad)" style="fill: #ffffff; stroke: #ffffff; stroke-linejoin: miter"/>
    </g>
    <g clip-path="url(#pa54132d6ad)">
     <!-- 625992 -->
     <g transform="translate(107.237583 351.907573) rotate(-295.714295) scale(0.1 -0.1)">
      <defs>
       <path id="DejaVuSans-36" d="M 2113 2584 
Q 1688 2584 1439 2293 
Q 1191 2003 1191 1497 
Q 1191 994 1439 701 
Q 1688 409 2113 409 
Q 2538 409 2786 701 
Q 3034 994 3034 1497 
Q 3034 2003 2786 2293 
Q 2538 2584 2113 2584 
z
M 3366 4563 
L 3366 3988 
Q 3128 4100 2886 4159 
Q 2644 4219 2406 4219 
Q 1781 4219 1451 3797 
Q 1122 3375 1075 2522 
Q 1259 2794 1537 2939 
Q 1816 3084 2150 3084 
Q 2853 3084 3261 2657 
Q 3669 2231 3669 1497 
Q 3669 778 3244 343 
Q 2819 -91 2113 -91 
Q 1303 -91 875 529 
Q 447 1150 447 2328 
Q 447 3434 972 4092 
Q 1497 4750 2381 4750 
Q 2619 4750 2861 4703 
Q 3103 4656 3366 4563 
z
" transform="scale(0.015625)"/>
       <path id="DejaVuSans-32" d="M 1228 531 
L 3431 531 
L 3431 0 
L 469 0 
L 469 531 
Q 828 903 1448 1529 
Q 2069 2156 2228 2338 
Q 2531 2678 2651 2914 
Q 2772 3150 2772 3378 
Q 2772 3750 2511 3984 
Q 2250 4219 1831 4219 
Q 1534 4219 1204 4116 
Q 875 4013 500 3803 
L 500 4441 
Q 881 4594 1212 4672 
Q 1544 4750 1819 4750 
Q 2544 4750 2975 4387 
Q 3406 4025 3406 3419 
Q 3406 3131 3298 2873 
Q 3191 2616 2906 2266 
Q 2828 2175 2409 1742 
Q 1991 1309 1228 531 
z
" transform="scale(0.015625)"/>
       <path id="DejaVuSans-35" d="M 691 4666 
L 3169 4666 
L 3169 4134 
L 1269 4134 
L 1269 2991 
Q 1406 3038 1543 3061 
Q 1681 3084 1819 3084 
Q 2600 3084 3056 2656 
Q 3513 2228 3513 1497 
Q 3513 744 3044 326 
Q 2575 -91 1722 -91 
Q 1428 -91 1123 -41 
Q 819 9 494 109 
L 494 744 
Q 775 591 1075 516 
Q 1375 441 1709 441 
Q 2250 441 2565 725 
Q 2881 1009 2881 1497 
Q 2881 1984 2565 2268 
Q 2250 2553 1709 2553 
Q 1456 2553 1204 2497 
Q 953 2441 691 2322 
L 691 4666 
z
" transform="scale(0.015625)"/>
       <path id="DejaVuSans-39" d="M 703 97 
L 703 672 
Q 941 559 1184 500 
Q 1428 441 1663 441 
Q 2288 441 2617 861 
Q 2947 1281 2994 2138 
Q 2813 1869 2534 1725 
Q 2256 1581 1919 1581 
Q 1219 1581 811 2004 
Q 403 2428 403 3163 
Q 403 3881 828 4315 
Q 1253 4750 1959 4750 
Q 2769 4750 3195 4129 
Q 3622 3509 3622 2328 
Q 3622 1225 3098 567 
Q 2575 -91 1691 -91 
Q 1453 -91 1209 -44 
Q 966 3 703 97 
z
M 1959 2075 
Q 2384 2075 2632 2365 
Q 2881 2656 2881 3163 
Q 2881 3666 2632 3958 
Q 2384 4250 1959 4250 
Q 1534 4250 1286 3958 
Q 1038 3666 1038 3163 
Q 1038 2656 1286 2365 
Q 1534 2075 1959 2075 
z
" transform="scale(0.015625)"/>
      </defs>
      <use xlink:href="#DejaVuSans-36"/>
      <use xlink:href="#DejaVuSans-32" x="63.623047"/>
      <use xlink:href="#DejaVuSans-35" x="127.246094"/>
      <use xlink:href="#DejaVuSans-39" x="190.869141"/>
      <use xlink:href="#DejaVuSans-39" x="254.492188"/>
      <use xlink:href="#DejaVuSans-32" x="318.115234"/>
     </g>
    </g>
   </g>
   <g id="text_2">
    <g id="patch_10">
     <path d="M 188.556741 382.759817 
L 218.40316 406.561537 
Q 220.748655 408.432007 222.619124 406.086512 
L 228.653335 398.519849 
Q 230.523804 396.174354 228.17831 394.303885 
L 198.331891 370.502164 
Q 195.986396 368.631695 194.115927 370.97719 
L 188.081716 378.543853 
Q 186.211246 380.889348 188.556741 382.759817 
z
" clip-path="url(#pa54132d6ad)" style="fill: #ffffff; stroke: #ffffff; stroke-linejoin: miter"/>
    </g>
    <g clip-path="url(#pa54132d6ad)">
     <!-- 872563 -->
     <g transform="translate(191.723874 378.788357) rotate(-321.428577) scale(0.1 -0.1)">
      <defs>
       <path id="DejaVuSans-38" d="M 2034 2216 
Q 1584 2216 1326 1975 
Q 1069 1734 1069 1313 
Q 1069 891 1326 650 
Q 1584 409 2034 409 
Q 2484 409 2743 651 
Q 3003 894 3003 1313 
Q 3003 1734 2745 1975 
Q 2488 2216 2034 2216 
z
M 1403 2484 
Q 997 2584 770 2862 
Q 544 3141 544 3541 
Q 544 4100 942 4425 
Q 1341 4750 2034 4750 
Q 2731 4750 3128 4425 
Q 3525 4100 3525 3541 
Q 3525 3141 3298 2862 
Q 3072 2584 2669 2484 
Q 3125 2378 3379 2068 
Q 3634 1759 3634 1313 
Q 3634 634 3220 271 
Q 2806 -91 2034 -91 
Q 1263 -91 848 271 
Q 434 634 434 1313 
Q 434 1759 690 2068 
Q 947 2378 1403 2484 
z
M 1172 3481 
Q 1172 3119 1398 2916 
Q 1625 2713 2034 2713 
Q 2441 2713 2670 2916 
Q 2900 3119 2900 3481 
Q 2900 3844 2670 4047 
Q 2441 4250 2034 4250 
Q 1625 4250 1398 4047 
Q 1172 3844 1172 3481 
z
" transform="scale(0.015625)"/>
       <path id="DejaVuSans-37" d="M 525 4666 
L 3525 4666 
L 3525 4397 
L 1831 0 
L 1172 0 
L 2766 4134 
L 525 4134 
L 525 4666 
z
" transform="scale(0.015625)"/>
       <path id="DejaVuSans-33" d="M 2597 2516 
Q 3050 2419 3304 2112 
Q 3559 1806 3559 1356 
Q 3559 666 3084 287 
Q 2609 -91 1734 -91 
Q 1441 -91 1130 -33 
Q 819 25 488 141 
L 488 750 
Q 750 597 1062 519 
Q 1375 441 1716 441 
Q 2309 441 2620 675 
Q 2931 909 2931 1356 
Q 2931 1769 2642 2001 
Q 2353 2234 1838 2234 
L 1294 2234 
L 1294 2753 
L 1863 2753 
Q 2328 2753 2575 2939 
Q 2822 3125 2822 3475 
Q 2822 3834 2567 4026 
Q 2313 4219 1838 4219 
Q 1578 4219 1281 4162 
Q 984 4106 628 3988 
L 628 4550 
Q 988 4650 1302 4700 
Q 1616 4750 1894 4750 
Q 2613 4750 3031 4423 
Q 3450 4097 3450 3541 
Q 3450 3153 3228 2886 
Q 3006 2619 2597 2516 
z
" transform="scale(0.015625)"/>
      </defs>
      <use xlink:href="#DejaVuSans-38"/>
      <use xlink:href="#DejaVuSans-37" x="63.623047"/>
      <use xlink:href="#DejaVuSans-32" x="127.246094"/>
      <use xlink:href="#DejaVuSans-35" x="190.869141"/>
      <use xlink:href="#DejaVuSans-36" x="254.492188"/>
      <use xlink:href="#DejaVuSans-33" x="318.115234"/>
     </g>
    </g>
   </g>
   <g id="text_3">
    <g id="patch_11">
     <path d="M 260.479645 334.138324 
L 297.697518 342.633059 
Q 300.622302 343.300622 301.289864 340.375838 
L 303.44345 330.940364 
Q 304.111012 328.01558 301.186228 327.348018 
L 263.968355 318.853282 
Q 261.043571 318.185719 260.376009 321.110503 
L 258.222424 330.545977 
Q 257.554861 333.470761 260.479645 334.138324 
z
" clip-path="url(#pa54132d6ad)" style="fill: #ffffff; stroke: #ffffff; stroke-linejoin: miter"/>
    </g>
    <g clip-path="url(#pa54132d6ad)">
     <!-- 360941 -->
     <g transform="translate(261.609981 329.185995) rotate(-347.142859) scale(0.1 -0.1)">
      <defs>
       <path id="DejaVuSans-30" d="M 2034 4250 
Q 1547 4250 1301 3770 
Q 1056 3291 1056 2328 
Q 1056 1369 1301 889 
Q 1547 409 2034 409 
Q 2525 409 2770 889 
Q 3016 1369 3016 2328 
Q 3016 3291 2770 3770 
Q 2525 4250 2034 4250 
z
M 2034 4750 
Q 2819 4750 3233 4129 
Q 3647 3509 3647 2328 
Q 3647 1150 3233 529 
Q 2819 -91 2034 -91 
Q 1250 -91 836 529 
Q 422 1150 422 2328 
Q 422 3509 836 4129 
Q 1250 4750 2034 4750 
z
" transform="scale(0.015625)"/>
       <path id="DejaVuSans-34" d="M 2419 4116 
L 825 1625 
L 2419 1625 
L 2419 4116 
z
M 2253 4666 
L 3047 4666 
L 3047 1625 
L 3713 1625 
L 3713 1100 
L 3047 1100 
L 3047 0 
L 2419 0 
L 2419 1100 
L 313 1100 
L 313 1709 
L 2253 4666 
z
" transform="scale(0.015625)"/>
       <path id="DejaVuSans-31" d="M 794 531 
L 1825 531 
L 1825 4091 
L 703 3866 
L 703 4441 
L 1819 4666 
L 2450 4666 
L 2450 531 
L 3481 531 
L 3481 0 
L 794 0 
L 794 531 
z
" transform="scale(0.015625)"/>
      </defs>
      <use xlink:href="#DejaVuSans-33"/>
      <use xlink:href="#DejaVuSans-36" x="63.623047"/>
      <use xlink:href="#DejaVuSans-30" x="127.246094"/>
      <use xlink:href="#DejaVuSans-39" x="190.869141"/>
      <use xlink:href="#DejaVuSans-34" x="254.492188"/>
      <use xlink:href="#DejaVuSans-31" x="318.115234"/>
     </g>
    </g>
   </g>
   <g id="text_4">
    <g id="patch_12">
     <path d="M 263.968362 249.946765 
L 301.186235 241.452029 
Q 304.111019 240.784466 303.443456 237.859682 
L 301.289871 228.424208 
Q 300.622308 225.499424 297.697524 226.166987 
L 260.479651 234.661723 
Q 257.554867 235.329286 258.22243 238.25407 
L 260.376015 247.689544 
Q 261.043578 250.614328 263.968362 249.946765 
z
" clip-path="url(#pa54132d6ad)" style="fill: #ffffff; stroke: #ffffff; stroke-linejoin: miter"/>
    </g>
    <g clip-path="url(#pa54132d6ad)">
     <!-- 661800 -->
     <g transform="translate(262.838025 244.994436) rotate(-12.857142) scale(0.1 -0.1)">
      <use xlink:href="#DejaVuSans-36"/>
      <use xlink:href="#DejaVuSans-36" x="63.623047"/>
      <use xlink:href="#DejaVuSans-31" x="127.246094"/>
      <use xlink:href="#DejaVuSans-38" x="190.869141"/>
      <use xlink:href="#DejaVuSans-30" x="254.492188"/>
      <use xlink:href="#DejaVuSans-30" x="318.115234"/>
     </g>
    </g>
   </g>
   <g id="text_5">
    <g id="patch_13">
     <path d="M 198.331859 198.297866 
L 228.178272 174.496138 
Q 230.523766 172.625668 228.653296 170.280174 
L 222.619083 162.713512 
Q 220.748613 160.368018 218.403119 162.238488 
L 188.556706 186.040216 
Q 186.211212 187.910685 188.081681 190.25618 
L 194.115895 197.822841 
Q 195.986365 200.168336 198.331859 198.297866 
z
" clip-path="url(#pa54132d6ad)" style="fill: #ffffff; stroke: #ffffff; stroke-linejoin: miter"/>
    </g>
    <g clip-path="url(#pa54132d6ad)">
     <!-- 762164 -->
     <g transform="translate(195.164725 194.326407) rotate(-38.571438) scale(0.1 -0.1)">
      <use xlink:href="#DejaVuSans-37"/>
      <use xlink:href="#DejaVuSans-36" x="63.623047"/>
      <use xlink:href="#DejaVuSans-32" x="127.246094"/>
      <use xlink:href="#DejaVuSans-31" x="190.869141"/>
      <use xlink:href="#DejaVuSans-36" x="254.492188"/>
      <use xlink:href="#DejaVuSans-34" x="318.115234"/>
     </g>
    </g>
   </g>
   <g id="text_6">
    <g id="patch_14">
     <path d="M 116.786452 221.490946 
L 133.349967 187.096461 
Q 134.651619 184.393555 131.948712 183.091903 
L 123.229023 178.892721 
Q 120.526117 177.59107 119.224465 180.293976 
L 102.66095 214.688461 
Q 101.359298 217.391368 104.062205 218.693019 
L 112.781894 222.892201 
Q 115.4848 224.193853 116.786452 221.490946 
z
" clip-path="url(#pa54132d6ad)" style="fill: #ffffff; stroke: #ffffff; stroke-linejoin: miter"/>
    </g>
    <g clip-path="url(#pa54132d6ad)">
     <!-- 701354 -->
     <g transform="translate(112.209812 219.286952) rotate(-64.285708) scale(0.1 -0.1)">
      <use xlink:href="#DejaVuSans-37"/>
      <use xlink:href="#DejaVuSans-30" x="63.623047"/>
      <use xlink:href="#DejaVuSans-31" x="127.246094"/>
      <use xlink:href="#DejaVuSans-33" x="190.869141"/>
      <use xlink:href="#DejaVuSans-35" x="254.492188"/>
      <use xlink:href="#DejaVuSans-34" x="318.115234"/>
     </g>
    </g>
   </g>
   <g id="patch_15">
    <path d="M 77.790323 255.917311 
C 73.694158 255.917311 69.645785 256.800929 65.922152 258.507719 
C 62.198519 260.214508 58.886518 262.704639 56.212722 265.807764 
C 53.538926 268.910889 51.565728 272.554595 50.428113 276.489618 
C 49.290499 280.424641 49.015016 284.559156 49.620508 288.610322 
C 50.226 292.661489 51.69834 296.534772 53.936804 299.965202 
C 56.175268 303.395632 59.127621 306.303159 62.591895 308.48888 
C 66.056169 310.674601 69.951524 312.087512 74.011479 312.630957 
C 78.071435 313.174401 82.201252 312.835697 86.11841 311.638016 
L 77.790323 284.400026 
z
" style="fill: #0000ff"/>
   </g>
   <g id="patch_16">
    <path d="M 86.11841 311.638016 
C 92.643027 309.643097 98.23853 305.368723 101.879178 299.598453 
C 105.519825 293.828183 106.968678 286.937556 105.960138 280.189728 
C 104.951599 273.4419 101.551305 267.276032 96.382583 262.822422 
C 91.21386 258.368813 84.613099 255.917309 77.790318 255.917311 
L 77.790323 284.400026 
z
" style="fill: #ff0000"/>
   </g>
   <g id="matplotlib.axis_1">
    <g id="xtick_1"/>
    <g id="xtick_2"/>
    <g id="xtick_3"/>
    <g id="xtick_4"/>
    <g id="xtick_5"/>
    <g id="xtick_6"/>
    <g id="xtick_7"/>
   </g>
   <g id="matplotlib.axis_2">
    <g id="ytick_1"/>
    <g id="ytick_2"/>
    <g id="ytick_3"/>
    <g id="ytick_4"/>
    <g id="ytick_5"/>
    <g id="ytick_6"/>
    <g id="ytick_7"/>
   </g>
   <g id="PathCollection_1">
    <path d="M 77.790323 300.211415 
C 81.983553 300.211415 86.005602 298.545427 88.970663 295.580366 
C 91.935724 292.615305 93.601712 288.593255 93.601712 284.400026 
C 93.601712 280.206797 91.935724 276.184747 88.970663 273.219686 
C 86.005602 270.254626 81.983553 268.588638 77.790323 268.588638 
C 73.597094 268.588638 69.575044 270.254626 66.609983 273.219686 
C 63.644923 276.184747 61.978935 280.206797 61.978935 284.400026 
C 61.978935 288.593255 63.644923 292.615305 66.609983 295.580366 
C 69.575044 298.545427 73.597094 300.211415 77.790323 300.211415 
z
" clip-path="url(#pa54132d6ad)" style="fill: #87ceeb; stroke: #000000"/>
    <path d="M 158.220609 489.040097 
C 168.198858 489.040097 177.769766 485.075697 184.825454 478.02001 
C 191.881141 470.964323 195.845541 461.393414 195.845541 451.415166 
C 195.845541 441.436917 191.881141 431.866009 184.825454 424.810322 
C 177.769766 417.754634 168.198858 413.790234 158.220609 413.790234 
C 148.242361 413.790234 138.671452 417.754634 131.615765 424.810322 
C 124.560078 431.866009 120.595678 441.436917 120.595678 451.415166 
C 120.595678 461.393414 124.560078 470.964323 131.615765 478.02001 
C 138.671452 485.075697 148.242361 489.040097 158.220609 489.040097 
z
" clip-path="url(#pa54132d6ad)" style="fill: #90ee90; stroke: #000000"/>
    <path d="M 338.945716 542.664464 
C 352.205871 542.664464 364.92471 537.396149 374.301055 528.019803 
C 383.677401 518.643458 388.945716 505.924619 388.945716 492.664464 
C 388.945716 479.404309 383.677401 466.685471 374.301055 457.309125 
C 364.92471 447.932779 352.205871 442.664464 338.945716 442.664464 
C 325.685561 442.664464 312.966723 447.932779 303.590377 457.309125 
C 294.214032 466.685471 288.945716 479.404309 288.945716 492.664464 
C 288.945716 505.924619 294.214032 518.643458 303.590377 528.019803 
C 312.966723 537.396149 325.685561 542.664464 338.945716 542.664464 
z
" clip-path="url(#pa54132d6ad)" style="fill: #90ee90; stroke: #000000"/>
    <path d="M 483.875987 392.897803 
C 488.069216 392.897803 492.091266 391.231816 495.056327 388.266755 
C 498.021388 385.301694 499.687375 381.279644 499.687375 377.086415 
C 499.687375 372.893186 498.021388 368.871136 495.056327 365.906075 
C 492.091266 362.941014 488.069216 361.275027 483.875987 361.275027 
C 479.682758 361.275027 475.660708 362.941014 472.695647 365.906075 
C 469.730586 368.871136 468.064599 372.893186 468.064599 377.086415 
C 468.064599 381.279644 469.730586 385.301694 472.695647 388.266755 
C 475.660708 391.231816 479.682758 392.897803 483.875987 392.897803 
z
" clip-path="url(#pa54132d6ad)" style="fill: #90ee90; stroke: #000000"/>
    <path d="M 483.876 231.37609 
C 494.394608 231.37609 504.483818 227.197003 511.921598 219.759223 
C 519.359377 212.321444 523.538464 202.232234 523.538464 191.713626 
C 523.538464 181.195017 519.359377 171.105807 511.921598 163.668028 
C 504.483818 156.230249 494.394608 152.051161 483.876 152.051161 
C 473.357391 152.051161 463.268181 156.230249 455.830402 163.668028 
C 448.392623 171.105807 444.213535 181.195017 444.213535 191.713626 
C 444.213535 202.232234 448.392623 212.321444 455.830402 219.759223 
C 463.268181 227.197003 473.357391 231.37609 483.876 231.37609 
z
" clip-path="url(#pa54132d6ad)" style="fill: #90ee90; stroke: #000000"/>
    <path d="M 338.945643 121.018605 
C 350.848771 121.018605 362.265981 116.289442 370.682764 107.872659 
C 379.099547 99.455877 383.82871 88.038667 383.82871 76.135538 
C 383.82871 64.23241 379.099547 52.8152 370.682764 44.398417 
C 362.265981 35.981635 350.848771 31.252471 338.945643 31.252471 
C 327.042514 31.252471 315.625305 35.981635 307.208522 44.398417 
C 298.791739 52.8152 294.062576 64.23241 294.062576 76.135538 
C 294.062576 88.038667 298.791739 99.455877 307.208522 107.872659 
C 315.625305 116.289442 327.042514 121.018605 338.945643 121.018605 
z
" clip-path="url(#pa54132d6ad)" style="fill: #90ee90; stroke: #000000"/>
    <path d="M 158.220622 159.182693 
C 169.305543 159.182693 179.937947 154.778607 187.77617 146.940385 
C 195.614393 139.102162 200.018479 128.469758 200.018479 117.384837 
C 200.018479 106.299916 195.614393 95.667512 187.77617 87.829289 
C 179.937947 79.991066 169.305543 75.58698 158.220622 75.58698 
C 147.135701 75.58698 136.503297 79.991066 128.665074 87.829289 
C 120.826851 95.667512 116.422765 106.299916 116.422765 117.384837 
C 116.422765 128.469758 120.826851 139.102162 128.665074 146.940385 
C 136.503297 154.778607 147.135701 159.182693 158.220622 159.182693 
z
" clip-path="url(#pa54132d6ad)" style="fill: #90ee90; stroke: #000000"/>
   </g>
   <g id="patch_17">
    <path d="M 7.2 561.6 
L 7.2 7.2 
" style="fill: none; stroke: #000000; stroke-width: 0.8; stroke-linejoin: miter; stroke-linecap: square"/>
   </g>
   <g id="patch_18">
    <path d="M 557.595918 561.6 
L 557.595918 7.2 
" style="fill: none; stroke: #000000; stroke-width: 0.8; stroke-linejoin: miter; stroke-linecap: square"/>
   </g>
   <g id="patch_19">
    <path d="M 7.2 561.6 
L 557.595918 561.6 
" style="fill: none; stroke: #000000; stroke-width: 0.8; stroke-linejoin: miter; stroke-linecap: square"/>
   </g>
   <g id="patch_20">
    <path d="M 7.2 7.2 
L 557.595918 7.2 
" style="fill: none; stroke: #000000; stroke-width: 0.8; stroke-linejoin: miter; stroke-linecap: square"/>
   </g>
   <g id="text_7">
    <g clip-path="url(#pa54132d6ad)">
     <!-- $\mathbf{L}$ -->
     <g transform="translate(73.950323 287.711276) scale(0.12 -0.12)">
      <defs>
       <path id="DejaVuSans-Bold-4c" d="M 588 4666 
L 1791 4666 
L 1791 909 
L 3903 909 
L 3903 0 
L 588 0 
L 588 4666 
z
" transform="scale(0.015625)"/>
      </defs>
      <use xlink:href="#DejaVuSans-Bold-4c" transform="translate(0 0.09375)"/>
     </g>
    </g>
   </g>
   <g id="text_8">
    <g clip-path="url(#pa54132d6ad)">
     <!-- NCC -->
     <g transform="translate(145.352484 454.726416) scale(0.12 -0.12)">
      <defs>
       <path id="DejaVuSans-4e" d="M 628 4666 
L 1478 4666 
L 3547 763 
L 3547 4666 
L 4159 4666 
L 4159 0 
L 3309 0 
L 1241 3903 
L 1241 0 
L 628 0 
L 628 4666 
z
" transform="scale(0.015625)"/>
       <path id="DejaVuSans-43" d="M 4122 4306 
L 4122 3641 
Q 3803 3938 3442 4084 
Q 3081 4231 2675 4231 
Q 1875 4231 1450 3742 
Q 1025 3253 1025 2328 
Q 1025 1406 1450 917 
Q 1875 428 2675 428 
Q 3081 428 3442 575 
Q 3803 722 4122 1019 
L 4122 359 
Q 3791 134 3420 21 
Q 3050 -91 2638 -91 
Q 1578 -91 968 557 
Q 359 1206 359 2328 
Q 359 3453 968 4101 
Q 1578 4750 2638 4750 
Q 3056 4750 3426 4639 
Q 3797 4528 4122 4306 
z
" transform="scale(0.015625)"/>
      </defs>
      <use xlink:href="#DejaVuSans-4e"/>
      <use xlink:href="#DejaVuSans-43" x="74.804688"/>
      <use xlink:href="#DejaVuSans-43" x="144.628906"/>
     </g>
    </g>
   </g>
   <g id="text_9">
    <g clip-path="url(#pa54132d6ad)">
     <!-- CTG -->
     <g transform="translate(326.442279 495.975714) scale(0.12 -0.12)">
      <defs>
       <path id="DejaVuSans-54" d="M -19 4666 
L 3928 4666 
L 3928 4134 
L 2272 4134 
L 2272 0 
L 1638 0 
L 1638 4134 
L -19 4134 
L -19 4666 
z
" transform="scale(0.015625)"/>
       <path id="DejaVuSans-47" d="M 3809 666 
L 3809 1919 
L 2778 1919 
L 2778 2438 
L 4434 2438 
L 4434 434 
Q 4069 175 3628 42 
Q 3188 -91 2688 -91 
Q 1594 -91 976 548 
Q 359 1188 359 2328 
Q 359 3472 976 4111 
Q 1594 4750 2688 4750 
Q 3144 4750 3555 4637 
Q 3966 4525 4313 4306 
L 4313 3634 
Q 3963 3931 3569 4081 
Q 3175 4231 2741 4231 
Q 1884 4231 1454 3753 
Q 1025 3275 1025 2328 
Q 1025 1384 1454 906 
Q 1884 428 2741 428 
Q 3075 428 3337 486 
Q 3600 544 3809 666 
z
" transform="scale(0.015625)"/>
      </defs>
      <use xlink:href="#DejaVuSans-43"/>
      <use xlink:href="#DejaVuSans-54" x="69.824219"/>
      <use xlink:href="#DejaVuSans-47" x="130.908203"/>
     </g>
    </g>
   </g>
   <g id="text_10">
    <g clip-path="url(#pa54132d6ad)">
     <!-- CTA -->
     <g transform="translate(472.382237 380.397665) scale(0.12 -0.12)">
      <defs>
       <path id="DejaVuSans-41" d="M 2188 4044 
L 1331 1722 
L 3047 1722 
L 2188 4044 
z
M 1831 4666 
L 2547 4666 
L 4325 0 
L 3669 0 
L 3244 1197 
L 1141 1197 
L 716 0 
L 50 0 
L 1831 4666 
z
" transform="scale(0.015625)"/>
      </defs>
      <use xlink:href="#DejaVuSans-43"/>
      <use xlink:href="#DejaVuSans-54" x="69.824219"/>
      <use xlink:href="#DejaVuSans-41" x="123.158203"/>
     </g>
    </g>
   </g>
   <g id="text_11">
    <g clip-path="url(#pa54132d6ad)">
     <!-- CTC -->
     <g transform="translate(472.184437 195.024876) scale(0.12 -0.12)">
      <use xlink:href="#DejaVuSans-43"/>
      <use xlink:href="#DejaVuSans-54" x="69.824219"/>
      <use xlink:href="#DejaVuSans-43" x="125.033203"/>
     </g>
    </g>
   </g>
   <g id="text_12">
    <g clip-path="url(#pa54132d6ad)">
     <!-- TTG -->
     <g transform="translate(327.072205 79.446788) scale(0.12 -0.12)">
      <use xlink:href="#DejaVuSans-54"/>
      <use xlink:href="#DejaVuSans-54" x="59.333984"/>
      <use xlink:href="#DejaVuSans-47" x="120.417969"/>
     </g>
    </g>
   </g>
   <g id="text_13">
    <g clip-path="url(#pa54132d6ad)">
     <!-- CTT -->
     <g transform="translate(146.80656 120.696087) scale(0.12 -0.12)">
      <use xlink:href="#DejaVuSans-43"/>
      <use xlink:href="#DejaVuSans-54" x="69.824219"/>
      <use xlink:href="#DejaVuSans-54" x="129.158203"/>
     </g>
    </g>
   </g>
   <g id="legend_1">
    <g id="patch_21">
     <path d="M 14.2 44.55625 
L 116.278125 44.55625 
Q 118.278125 44.55625 118.278125 42.55625 
L 118.278125 14.2 
Q 118.278125 12.2 116.278125 12.2 
L 14.2 12.2 
Q 12.2 12.2 12.2 14.2 
L 12.2 42.55625 
Q 12.2 44.55625 14.2 44.55625 
z
" style="fill: #ffffff; opacity: 0.8; stroke: #cccccc; stroke-linejoin: miter"/>
    </g>
    <g id="patch_22">
     <path d="M 16.2 23.798438 
L 36.2 23.798438 
L 36.2 16.798438 
L 16.2 16.798438 
z
" style="fill: #0000ff"/>
    </g>
    <g id="text_14">
     <!-- Genomic data -->
     <g transform="translate(44.2 23.798438) scale(0.1 -0.1)">
      <defs>
       <path id="DejaVuSans-65" d="M 3597 1894 
L 3597 1613 
L 953 1613 
Q 991 1019 1311 708 
Q 1631 397 2203 397 
Q 2534 397 2845 478 
Q 3156 559 3463 722 
L 3463 178 
Q 3153 47 2828 -22 
Q 2503 -91 2169 -91 
Q 1331 -91 842 396 
Q 353 884 353 1716 
Q 353 2575 817 3079 
Q 1281 3584 2069 3584 
Q 2775 3584 3186 3129 
Q 3597 2675 3597 1894 
z
M 3022 2063 
Q 3016 2534 2758 2815 
Q 2500 3097 2075 3097 
Q 1594 3097 1305 2825 
Q 1016 2553 972 2059 
L 3022 2063 
z
" transform="scale(0.015625)"/>
       <path id="DejaVuSans-6e" d="M 3513 2113 
L 3513 0 
L 2938 0 
L 2938 2094 
Q 2938 2591 2744 2837 
Q 2550 3084 2163 3084 
Q 1697 3084 1428 2787 
Q 1159 2491 1159 1978 
L 1159 0 
L 581 0 
L 581 3500 
L 1159 3500 
L 1159 2956 
Q 1366 3272 1645 3428 
Q 1925 3584 2291 3584 
Q 2894 3584 3203 3211 
Q 3513 2838 3513 2113 
z
" transform="scale(0.015625)"/>
       <path id="DejaVuSans-6f" d="M 1959 3097 
Q 1497 3097 1228 2736 
Q 959 2375 959 1747 
Q 959 1119 1226 758 
Q 1494 397 1959 397 
Q 2419 397 2687 759 
Q 2956 1122 2956 1747 
Q 2956 2369 2687 2733 
Q 2419 3097 1959 3097 
z
M 1959 3584 
Q 2709 3584 3137 3096 
Q 3566 2609 3566 1747 
Q 3566 888 3137 398 
Q 2709 -91 1959 -91 
Q 1206 -91 779 398 
Q 353 888 353 1747 
Q 353 2609 779 3096 
Q 1206 3584 1959 3584 
z
" transform="scale(0.015625)"/>
       <path id="DejaVuSans-6d" d="M 3328 2828 
Q 3544 3216 3844 3400 
Q 4144 3584 4550 3584 
Q 5097 3584 5394 3201 
Q 5691 2819 5691 2113 
L 5691 0 
L 5113 0 
L 5113 2094 
Q 5113 2597 4934 2840 
Q 4756 3084 4391 3084 
Q 3944 3084 3684 2787 
Q 3425 2491 3425 1978 
L 3425 0 
L 2847 0 
L 2847 2094 
Q 2847 2600 2669 2842 
Q 2491 3084 2119 3084 
Q 1678 3084 1418 2786 
Q 1159 2488 1159 1978 
L 1159 0 
L 581 0 
L 581 3500 
L 1159 3500 
L 1159 2956 
Q 1356 3278 1631 3431 
Q 1906 3584 2284 3584 
Q 2666 3584 2933 3390 
Q 3200 3197 3328 2828 
z
" transform="scale(0.015625)"/>
       <path id="DejaVuSans-69" d="M 603 3500 
L 1178 3500 
L 1178 0 
L 603 0 
L 603 3500 
z
M 603 4863 
L 1178 4863 
L 1178 4134 
L 603 4134 
L 603 4863 
z
" transform="scale(0.015625)"/>
       <path id="DejaVuSans-63" d="M 3122 3366 
L 3122 2828 
Q 2878 2963 2633 3030 
Q 2388 3097 2138 3097 
Q 1578 3097 1268 2742 
Q 959 2388 959 1747 
Q 959 1106 1268 751 
Q 1578 397 2138 397 
Q 2388 397 2633 464 
Q 2878 531 3122 666 
L 3122 134 
Q 2881 22 2623 -34 
Q 2366 -91 2075 -91 
Q 1284 -91 818 406 
Q 353 903 353 1747 
Q 353 2603 823 3093 
Q 1294 3584 2113 3584 
Q 2378 3584 2631 3529 
Q 2884 3475 3122 3366 
z
" transform="scale(0.015625)"/>
       <path id="DejaVuSans-20" transform="scale(0.015625)"/>
       <path id="DejaVuSans-64" d="M 2906 2969 
L 2906 4863 
L 3481 4863 
L 3481 0 
L 2906 0 
L 2906 525 
Q 2725 213 2448 61 
Q 2172 -91 1784 -91 
Q 1150 -91 751 415 
Q 353 922 353 1747 
Q 353 2572 751 3078 
Q 1150 3584 1784 3584 
Q 2172 3584 2448 3432 
Q 2725 3281 2906 2969 
z
M 947 1747 
Q 947 1113 1208 752 
Q 1469 391 1925 391 
Q 2381 391 2643 752 
Q 2906 1113 2906 1747 
Q 2906 2381 2643 2742 
Q 2381 3103 1925 3103 
Q 1469 3103 1208 2742 
Q 947 2381 947 1747 
z
" transform="scale(0.015625)"/>
       <path id="DejaVuSans-61" d="M 2194 1759 
Q 1497 1759 1228 1600 
Q 959 1441 959 1056 
Q 959 750 1161 570 
Q 1363 391 1709 391 
Q 2188 391 2477 730 
Q 2766 1069 2766 1631 
L 2766 1759 
L 2194 1759 
z
M 3341 1997 
L 3341 0 
L 2766 0 
L 2766 531 
Q 2569 213 2275 61 
Q 1981 -91 1556 -91 
Q 1019 -91 701 211 
Q 384 513 384 1019 
Q 384 1609 779 1909 
Q 1175 2209 1959 2209 
L 2766 2209 
L 2766 2266 
Q 2766 2663 2505 2880 
Q 2244 3097 1772 3097 
Q 1472 3097 1187 3025 
Q 903 2953 641 2809 
L 641 3341 
Q 956 3463 1253 3523 
Q 1550 3584 1831 3584 
Q 2591 3584 2966 3190 
Q 3341 2797 3341 1997 
z
" transform="scale(0.015625)"/>
       <path id="DejaVuSans-74" d="M 1172 4494 
L 1172 3500 
L 2356 3500 
L 2356 3053 
L 1172 3053 
L 1172 1153 
Q 1172 725 1289 603 
Q 1406 481 1766 481 
L 2356 481 
L 2356 0 
L 1766 0 
Q 1100 0 847 248 
Q 594 497 594 1153 
L 594 3053 
L 172 3053 
L 172 3500 
L 594 3500 
L 594 4494 
L 1172 4494 
z
" transform="scale(0.015625)"/>
      </defs>
      <use xlink:href="#DejaVuSans-47"/>
      <use xlink:href="#DejaVuSans-65" x="77.490234"/>
      <use xlink:href="#DejaVuSans-6e" x="139.013672"/>
      <use xlink:href="#DejaVuSans-6f" x="202.392578"/>
      <use xlink:href="#DejaVuSans-6d" x="263.574219"/>
      <use xlink:href="#DejaVuSans-69" x="360.986328"/>
      <use xlink:href="#DejaVuSans-63" x="388.769531"/>
      <use xlink:href="#DejaVuSans-20" x="443.75"/>
      <use xlink:href="#DejaVuSans-64" x="475.537109"/>
      <use xlink:href="#DejaVuSans-61" x="539.013672"/>
      <use xlink:href="#DejaVuSans-74" x="600.292969"/>
      <use xlink:href="#DejaVuSans-61" x="639.501953"/>
     </g>
    </g>
    <g id="patch_23">
     <path d="M 16.2 38.476563 
L 36.2 38.476563 
L 36.2 31.476563 
L 16.2 31.476563 
z
" style="fill: #ff0000"/>
    </g>
    <g id="text_15">
     <!-- Genetic code -->
     <g transform="translate(44.2 38.476563) scale(0.1 -0.1)">
      <use xlink:href="#DejaVuSans-47"/>
      <use xlink:href="#DejaVuSans-65" x="77.490234"/>
      <use xlink:href="#DejaVuSans-6e" x="139.013672"/>
      <use xlink:href="#DejaVuSans-65" x="202.392578"/>
      <use xlink:href="#DejaVuSans-74" x="263.916016"/>
      <use xlink:href="#DejaVuSans-69" x="303.125"/>
      <use xlink:href="#DejaVuSans-63" x="330.908203"/>
      <use xlink:href="#DejaVuSans-20" x="385.888672"/>
      <use xlink:href="#DejaVuSans-63" x="417.675781"/>
      <use xlink:href="#DejaVuSans-6f" x="472.65625"/>
      <use xlink:href="#DejaVuSans-64" x="533.837891"/>
      <use xlink:href="#DejaVuSans-65" x="597.314453"/>
     </g>
    </g>
   </g>
  </g>
 </g>
 <defs>
  <clipPath id="pa54132d6ad">
   <rect x="7.2" y="7.2" width="550.395918" height="554.4"/>
  </clipPath>
 </defs>
</svg>
