<?xml version="1.0" encoding="utf-8" standalone="no"?>
<!DOCTYPE svg PUBLIC "-//W3C//DTD SVG 1.1//EN"
  "http://www.w3.org/Graphics/SVG/1.1/DTD/svg11.dtd">
<svg xmlns:xlink="http://www.w3.org/1999/xlink" width="572.4pt" height="537.169044pt" viewBox="0 0 572.4 537.169044" xmlns="http://www.w3.org/2000/svg" version="1.1">
 <metadata>
  <rdf:RDF xmlns:dc="http://purl.org/dc/elements/1.1/" xmlns:cc="http://creativecommons.org/ns#" xmlns:rdf="http://www.w3.org/1999/02/22-rdf-syntax-ns#">
   <cc:Work>
    <dc:type rdf:resource="http://purl.org/dc/dcmitype/StillImage"/>
    <dc:date>2024-08-01T13:56:26.236217</dc:date>
    <dc:format>image/svg+xml</dc:format>
    <dc:creator>
     <cc:Agent>
      <dc:title>Matplotlib v3.8.3, https://matplotlib.org/</dc:title>
     </cc:Agent>
    </dc:creator>
   </cc:Work>
  </rdf:RDF>
 </metadata>
 <defs>
  <style type="text/css">*{stroke-linejoin: round; stroke-linecap: butt}</style>
 </defs>
 <g id="figure_1">
  <g id="patch_1">
   <path d="M 0 537.169044 
L 572.4 537.169044 
L 572.4 0 
L 0 0 
z
" style="fill: #ffffff"/>
  </g>
  <g id="axes_1">
   <g id="patch_2">
    <path d="M 7.2 529.969044 
L 565.2 529.969044 
L 565.2 7.2 
L 7.2 7.2 
z
" style="fill: #ffffff"/>
   </g>
   <g id="patch_3">
    <path d="M 79.289594 276.818418 
Q 96.332013 329.269572 113.02894 380.657413 
" clip-path="url(#pb3246bf336)" style="fill: none; stroke: #000000; stroke-linecap: round"/>
    <path d="M 113.694985 376.235153 
L 113.02894 380.657413 
L 109.890759 377.471221 
z
" clip-path="url(#pb3246bf336)" style="stroke: #000000; stroke-linecap: round"/>
   </g>
   <g id="patch_4">
    <path d="M 81.706538 275.593489 
Q 147.954791 366.776392 213.54588 457.054786 
" clip-path="url(#pb3246bf336)" style="fill: none; stroke: #000000; stroke-linecap: round"/>
    <path d="M 212.812773 452.643147 
L 213.54588 457.054786 
L 209.576705 454.994288 
z
" clip-path="url(#pb3246bf336)" style="stroke: #000000; stroke-linecap: round"/>
   </g>
   <g id="patch_5">
    <path d="M 83.619544 273.674198 
Q 211.764006 366.776578 339.00396 459.221795 
" clip-path="url(#pb3246bf336)" style="fill: none; stroke: #000000; stroke-linecap: round"/>
    <path d="M 336.943462 455.25262 
L 339.00396 459.221795 
L 334.592321 458.488688 
z
" clip-path="url(#pb3246bf336)" style="stroke: #000000; stroke-linecap: round"/>
   </g>
   <g id="patch_6">
    <path d="M 84.853284 271.261577 
Q 263.386385 329.270451 440.856173 386.933834 
" clip-path="url(#pb3246bf336)" style="fill: none; stroke: #000000; stroke-linecap: round"/>
    <path d="M 437.66998 383.795654 
L 440.856173 386.933834 
L 436.433913 387.59988 
z
" clip-path="url(#pb3246bf336)" style="stroke: #000000; stroke-linecap: round"/>
   </g>
   <g id="patch_7">
    <path d="M 85.275693 268.584553 
Q 283.103935 268.584527 479.814143 268.584501 
" clip-path="url(#pb3246bf336)" style="fill: none; stroke: #000000; stroke-linecap: round"/>
    <path d="M 475.814143 266.584502 
L 479.814143 268.584501 
L 475.814144 270.584502 
z
" clip-path="url(#pb3246bf336)" style="stroke: #000000; stroke-linecap: round"/>
   </g>
   <g id="patch_8">
    <path d="M 84.853283 265.90753 
Q 263.386361 207.898609 440.856125 150.235179 
" clip-path="url(#pb3246bf336)" style="fill: none; stroke: #000000; stroke-linecap: round"/>
    <path d="M 436.433865 149.569134 
L 440.856125 150.235179 
L 437.669933 153.37336 
z
" clip-path="url(#pb3246bf336)" style="stroke: #000000; stroke-linecap: round"/>
   </g>
   <g id="patch_9">
    <path d="M 83.619542 263.494909 
Q 211.763972 170.3925 339.003894 77.947255 
" clip-path="url(#pb3246bf336)" style="fill: none; stroke: #000000; stroke-linecap: round"/>
    <path d="M 334.592255 78.680363 
L 339.003894 77.947255 
L 336.943397 81.91643 
z
" clip-path="url(#pb3246bf336)" style="stroke: #000000; stroke-linecap: round"/>
   </g>
   <g id="patch_10">
    <path d="M 81.706536 261.575619 
Q 147.95476 170.392711 213.545821 80.114312 
" clip-path="url(#pb3246bf336)" style="fill: none; stroke: #000000; stroke-linecap: round"/>
    <path d="M 209.576646 82.174811 
L 213.545821 80.114312 
L 212.812715 84.525951 
z
" clip-path="url(#pb3246bf336)" style="stroke: #000000; stroke-linecap: round"/>
   </g>
   <g id="patch_11">
    <path d="M 79.289596 260.350686 
Q 96.332025 207.8995 113.028963 156.511627 
" clip-path="url(#pb3246bf336)" style="fill: none; stroke: #000000; stroke-linecap: round"/>
    <path d="M 109.890782 159.697819 
L 113.028963 156.511627 
L 113.695008 160.933887 
z
" clip-path="url(#pb3246bf336)" style="stroke: #000000; stroke-linecap: round"/>
   </g>
   <g id="text_1">
    <g id="patch_12">
     <path d="M 84.944379 319.589783 
L 92.808864 343.79417 
Q 93.735915 346.64734 96.589085 345.720289 
L 105.793528 342.729583 
Q 108.646698 341.802531 107.719647 338.949362 
L 99.855162 314.744974 
Q 98.928111 311.891805 96.074941 312.818856 
L 86.870498 315.809562 
Q 84.017328 316.736613 84.944379 319.589783 
z
" clip-path="url(#pb3246bf336)" style="fill: #ffffff; stroke: #ffffff; stroke-linejoin: miter"/>
    </g>
    <g clip-path="url(#pb3246bf336)">
     <!-- 7206 -->
     <g transform="translate(89.775449 318.020073) rotate(-288.000006) scale(0.1 -0.1)">
      <defs>
       <path id="DejaVuSans-37" d="M 525 4666 
L 3525 4666 
L 3525 4397 
L 1831 0 
L 1172 0 
L 2766 4134 
L 525 4134 
L 525 4666 
z
" transform="scale(0.015625)"/>
       <path id="DejaVuSans-32" d="M 1228 531 
L 3431 531 
L 3431 0 
L 469 0 
L 469 531 
Q 828 903 1448 1529 
Q 2069 2156 2228 2338 
Q 2531 2678 2651 2914 
Q 2772 3150 2772 3378 
Q 2772 3750 2511 3984 
Q 2250 4219 1831 4219 
Q 1534 4219 1204 4116 
Q 875 4013 500 3803 
L 500 4441 
Q 881 4594 1212 4672 
Q 1544 4750 1819 4750 
Q 2544 4750 2975 4387 
Q 3406 4025 3406 3419 
Q 3406 3131 3298 2873 
Q 3191 2616 2906 2266 
Q 2828 2175 2409 1742 
Q 1991 1309 1228 531 
z
" transform="scale(0.015625)"/>
       <path id="DejaVuSans-30" d="M 2034 4250 
Q 1547 4250 1301 3770 
Q 1056 3291 1056 2328 
Q 1056 1369 1301 889 
Q 1547 409 2034 409 
Q 2525 409 2770 889 
Q 3016 1369 3016 2328 
Q 3016 3291 2770 3770 
Q 2525 4250 2034 4250 
z
M 2034 4750 
Q 2819 4750 3233 4129 
Q 3647 3509 3647 2328 
Q 3647 1150 3233 529 
Q 2819 -91 2034 -91 
Q 1250 -91 836 529 
Q 422 1150 422 2328 
Q 422 3509 836 4129 
Q 1250 4750 2034 4750 
z
" transform="scale(0.015625)"/>
       <path id="DejaVuSans-36" d="M 2113 2584 
Q 1688 2584 1439 2293 
Q 1191 2003 1191 1497 
Q 1191 994 1439 701 
Q 1688 409 2113 409 
Q 2538 409 2786 701 
Q 3034 994 3034 1497 
Q 3034 2003 2786 2293 
Q 2538 2584 2113 2584 
z
M 3366 4563 
L 3366 3988 
Q 3128 4100 2886 4159 
Q 2644 4219 2406 4219 
Q 1781 4219 1451 3797 
Q 1122 3375 1075 2522 
Q 1259 2794 1537 2939 
Q 1816 3084 2150 3084 
Q 2853 3084 3261 2657 
Q 3669 2231 3669 1497 
Q 3669 778 3244 343 
Q 2819 -91 2113 -91 
Q 1303 -91 875 529 
Q 447 1150 447 2328 
Q 447 3434 972 4092 
Q 1497 4750 2381 4750 
Q 2619 4750 2861 4703 
Q 3103 4656 3366 4563 
z
" transform="scale(0.015625)"/>
      </defs>
      <use xlink:href="#DejaVuSans-37"/>
      <use xlink:href="#DejaVuSans-32" x="63.623047"/>
      <use xlink:href="#DejaVuSans-30" x="127.246094"/>
      <use xlink:href="#DejaVuSans-36" x="190.869141"/>
     </g>
    </g>
   </g>
   <g id="text_2">
    <g id="patch_13">
     <path d="M 130.393505 355.941965 
L 152.832206 386.826189 
Q 154.595562 389.25324 157.022613 387.489884 
L 164.852381 381.801226 
Q 167.279432 380.03787 165.516076 377.610819 
L 143.077375 346.726594 
Q 141.314019 344.299543 138.886968 346.062899 
L 131.057201 351.751558 
Q 128.63015 353.514914 130.393505 355.941965 
z
" clip-path="url(#pb3246bf336)" style="fill: #ffffff; stroke: #ffffff; stroke-linejoin: miter"/>
    </g>
    <g clip-path="url(#pb3246bf336)">
     <!-- 756908 -->
     <g transform="translate(134.503059 352.9562) rotate(-305.999999) scale(0.1 -0.1)">
      <defs>
       <path id="DejaVuSans-35" d="M 691 4666 
L 3169 4666 
L 3169 4134 
L 1269 4134 
L 1269 2991 
Q 1406 3038 1543 3061 
Q 1681 3084 1819 3084 
Q 2600 3084 3056 2656 
Q 3513 2228 3513 1497 
Q 3513 744 3044 326 
Q 2575 -91 1722 -91 
Q 1428 -91 1123 -41 
Q 819 9 494 109 
L 494 744 
Q 775 591 1075 516 
Q 1375 441 1709 441 
Q 2250 441 2565 725 
Q 2881 1009 2881 1497 
Q 2881 1984 2565 2268 
Q 2250 2553 1709 2553 
Q 1456 2553 1204 2497 
Q 953 2441 691 2322 
L 691 4666 
z
" transform="scale(0.015625)"/>
       <path id="DejaVuSans-39" d="M 703 97 
L 703 672 
Q 941 559 1184 500 
Q 1428 441 1663 441 
Q 2288 441 2617 861 
Q 2947 1281 2994 2138 
Q 2813 1869 2534 1725 
Q 2256 1581 1919 1581 
Q 1219 1581 811 2004 
Q 403 2428 403 3163 
Q 403 3881 828 4315 
Q 1253 4750 1959 4750 
Q 2769 4750 3195 4129 
Q 3622 3509 3622 2328 
Q 3622 1225 3098 567 
Q 2575 -91 1691 -91 
Q 1453 -91 1209 -44 
Q 966 3 703 97 
z
M 1959 2075 
Q 2384 2075 2632 2365 
Q 2881 2656 2881 3163 
Q 2881 3666 2632 3958 
Q 2384 4250 1959 4250 
Q 1534 4250 1286 3958 
Q 1038 3666 1038 3163 
Q 1038 2656 1286 2365 
Q 1534 2075 1959 2075 
z
" transform="scale(0.015625)"/>
       <path id="DejaVuSans-38" d="M 2034 2216 
Q 1584 2216 1326 1975 
Q 1069 1734 1069 1313 
Q 1069 891 1326 650 
Q 1584 409 2034 409 
Q 2484 409 2743 651 
Q 3003 894 3003 1313 
Q 3003 1734 2745 1975 
Q 2488 2216 2034 2216 
z
M 1403 2484 
Q 997 2584 770 2862 
Q 544 3141 544 3541 
Q 544 4100 942 4425 
Q 1341 4750 2034 4750 
Q 2731 4750 3128 4425 
Q 3525 4100 3525 3541 
Q 3525 3141 3298 2862 
Q 3072 2584 2669 2484 
Q 3125 2378 3379 2068 
Q 3634 1759 3634 1313 
Q 3634 634 3220 271 
Q 2806 -91 2034 -91 
Q 1263 -91 848 271 
Q 434 634 434 1313 
Q 434 1759 690 2068 
Q 947 2378 1403 2484 
z
M 1172 3481 
Q 1172 3119 1398 2916 
Q 1625 2713 2034 2713 
Q 2441 2713 2670 2916 
Q 2900 3119 2900 3481 
Q 2900 3844 2670 4047 
Q 2441 4250 2034 4250 
Q 1625 4250 1398 4047 
Q 1172 3844 1172 3481 
z
" transform="scale(0.015625)"/>
      </defs>
      <use xlink:href="#DejaVuSans-37"/>
      <use xlink:href="#DejaVuSans-35" x="63.623047"/>
      <use xlink:href="#DejaVuSans-36" x="127.246094"/>
      <use xlink:href="#DejaVuSans-39" x="190.869141"/>
      <use xlink:href="#DejaVuSans-30" x="254.492188"/>
      <use xlink:href="#DejaVuSans-38" x="318.115234"/>
     </g>
    </g>
   </g>
   <g id="text_3">
    <g id="patch_14">
     <path d="M 191.714208 361.899164 
L 222.598434 384.337863 
Q 225.025486 386.101218 226.788841 383.674167 
L 232.477499 375.844399 
Q 234.240855 373.417348 231.813804 371.653992 
L 200.929578 349.215294 
Q 198.502526 347.451938 196.739171 349.878989 
L 191.050513 357.708758 
Q 189.287157 360.135809 191.714208 361.899164 
z
" clip-path="url(#pb3246bf336)" style="fill: #ffffff; stroke: #ffffff; stroke-linejoin: miter"/>
    </g>
    <g clip-path="url(#pb3246bf336)">
     <!-- 584330 -->
     <g transform="translate(194.699973 357.78961) rotate(-324.000006) scale(0.1 -0.1)">
      <defs>
       <path id="DejaVuSans-34" d="M 2419 4116 
L 825 1625 
L 2419 1625 
L 2419 4116 
z
M 2253 4666 
L 3047 4666 
L 3047 1625 
L 3713 1625 
L 3713 1100 
L 3047 1100 
L 3047 0 
L 2419 0 
L 2419 1100 
L 313 1100 
L 313 1709 
L 2253 4666 
z
" transform="scale(0.015625)"/>
       <path id="DejaVuSans-33" d="M 2597 2516 
Q 3050 2419 3304 2112 
Q 3559 1806 3559 1356 
Q 3559 666 3084 287 
Q 2609 -91 1734 -91 
Q 1441 -91 1130 -33 
Q 819 25 488 141 
L 488 750 
Q 750 597 1062 519 
Q 1375 441 1716 441 
Q 2309 441 2620 675 
Q 2931 909 2931 1356 
Q 2931 1769 2642 2001 
Q 2353 2234 1838 2234 
L 1294 2234 
L 1294 2753 
L 1863 2753 
Q 2328 2753 2575 2939 
Q 2822 3125 2822 3475 
Q 2822 3834 2567 4026 
Q 2313 4219 1838 4219 
Q 1578 4219 1281 4162 
Q 984 4106 628 3988 
L 628 4550 
Q 988 4650 1302 4700 
Q 1616 4750 1894 4750 
Q 2613 4750 3031 4423 
Q 3450 4097 3450 3541 
Q 3450 3153 3228 2886 
Q 3006 2619 2597 2516 
z
" transform="scale(0.015625)"/>
      </defs>
      <use xlink:href="#DejaVuSans-35"/>
      <use xlink:href="#DejaVuSans-38" x="63.623047"/>
      <use xlink:href="#DejaVuSans-34" x="127.246094"/>
      <use xlink:href="#DejaVuSans-33" x="190.869141"/>
      <use xlink:href="#DejaVuSans-33" x="254.492188"/>
      <use xlink:href="#DejaVuSans-30" x="318.115234"/>
     </g>
    </g>
   </g>
   <g id="text_4">
    <g id="patch_15">
     <path d="M 242.810691 330.827486 
L 279.117276 342.624201 
Q 281.970446 343.551251 282.897496 340.698081 
L 285.888199 331.493637 
Q 286.815249 328.640467 283.96208 327.713417 
L 247.655494 315.916702 
Q 244.802324 314.989651 243.875274 317.842821 
L 240.884571 327.047266 
Q 239.957521 329.900435 242.810691 330.827486 
z
" clip-path="url(#pb3246bf336)" style="fill: #ffffff; stroke: #ffffff; stroke-linejoin: miter"/>
    </g>
    <g clip-path="url(#pb3246bf336)">
     <!-- 560370 -->
     <g transform="translate(244.380399 325.996415) rotate(-342.000014) scale(0.1 -0.1)">
      <use xlink:href="#DejaVuSans-35"/>
      <use xlink:href="#DejaVuSans-36" x="63.623047"/>
      <use xlink:href="#DejaVuSans-30" x="127.246094"/>
      <use xlink:href="#DejaVuSans-33" x="190.869141"/>
      <use xlink:href="#DejaVuSans-37" x="254.492188"/>
      <use xlink:href="#DejaVuSans-30" x="318.115234"/>
     </g>
    </g>
   </g>
   <g id="text_5">
    <g id="patch_16">
     <path d="M 264.016436 276.423592 
L 302.191436 276.423587 
Q 305.191436 276.423587 305.191436 273.423587 
L 305.191434 263.745462 
Q 305.191434 260.745462 302.191434 260.745462 
L 264.016434 260.745467 
Q 261.016434 260.745468 261.016434 263.745468 
L 261.016436 273.423593 
Q 261.016436 276.423593 264.016436 276.423592 
z
" clip-path="url(#pb3246bf336)" style="fill: #ffffff; stroke: #ffffff; stroke-linejoin: miter"/>
    </g>
    <g clip-path="url(#pb3246bf336)">
     <!-- 376416 -->
     <g transform="translate(264.016435 271.343905) rotate(-0.000008) scale(0.1 -0.1)">
      <defs>
       <path id="DejaVuSans-31" d="M 794 531 
L 1825 531 
L 1825 4091 
L 703 3866 
L 703 4441 
L 1819 4666 
L 2450 4666 
L 2450 531 
L 3481 531 
L 3481 0 
L 794 0 
L 794 531 
z
" transform="scale(0.015625)"/>
      </defs>
      <use xlink:href="#DejaVuSans-33"/>
      <use xlink:href="#DejaVuSans-37" x="63.623047"/>
      <use xlink:href="#DejaVuSans-36" x="127.246094"/>
      <use xlink:href="#DejaVuSans-34" x="190.869141"/>
      <use xlink:href="#DejaVuSans-31" x="254.492188"/>
      <use xlink:href="#DejaVuSans-36" x="318.115234"/>
     </g>
    </g>
   </g>
   <g id="text_6">
    <g id="patch_17">
     <path d="M 247.655473 221.252363 
L 283.962055 209.455637 
Q 286.815225 208.528586 285.888174 205.675417 
L 282.897468 196.470973 
Q 281.970417 193.617804 279.117248 194.544855 
L 242.810666 206.34158 
Q 239.957496 207.268631 240.884547 210.1218 
L 243.875253 219.326244 
Q 244.802304 222.179414 247.655473 221.252363 
z
" clip-path="url(#pb3246bf336)" style="fill: #ffffff; stroke: #ffffff; stroke-linejoin: miter"/>
    </g>
    <g clip-path="url(#pb3246bf336)">
     <!-- 536295 -->
     <g transform="translate(246.085763 216.421293) rotate(-18.000002) scale(0.1 -0.1)">
      <use xlink:href="#DejaVuSans-35"/>
      <use xlink:href="#DejaVuSans-33" x="63.623047"/>
      <use xlink:href="#DejaVuSans-36" x="127.246094"/>
      <use xlink:href="#DejaVuSans-32" x="190.869141"/>
      <use xlink:href="#DejaVuSans-39" x="254.492188"/>
      <use xlink:href="#DejaVuSans-35" x="318.115234"/>
     </g>
    </g>
   </g>
   <g id="text_7">
    <g id="patch_18">
     <path d="M 200.929548 187.953788 
L 231.813769 165.515081 
Q 234.240819 163.751725 232.477463 161.324674 
L 226.788803 153.494907 
Q 225.025447 151.067856 222.598396 152.831213 
L 191.714176 175.269919 
Q 189.287125 177.033276 191.050481 179.460326 
L 196.739142 187.290093 
Q 198.502498 189.717144 200.929548 187.953788 
z
" clip-path="url(#pb3246bf336)" style="fill: #ffffff; stroke: #ffffff; stroke-linejoin: miter"/>
    </g>
    <g clip-path="url(#pb3246bf336)">
     <!-- 683688 -->
     <g transform="translate(197.943782 183.844235) rotate(-36.000009) scale(0.1 -0.1)">
      <use xlink:href="#DejaVuSans-36"/>
      <use xlink:href="#DejaVuSans-38" x="63.623047"/>
      <use xlink:href="#DejaVuSans-33" x="127.246094"/>
      <use xlink:href="#DejaVuSans-36" x="190.869141"/>
      <use xlink:href="#DejaVuSans-38" x="254.492188"/>
      <use xlink:href="#DejaVuSans-38" x="318.115234"/>
     </g>
    </g>
   </g>
   <g id="text_8">
    <g id="patch_19">
     <path d="M 150.556914 180.147766 
L 158.036478 169.853023 
Q 159.799833 167.425972 157.372782 165.662617 
L 149.543013 159.97396 
Q 147.115962 158.210604 145.352606 160.637656 
L 137.873042 170.932399 
Q 136.109687 173.35945 138.536738 175.122806 
L 146.366507 180.811463 
Q 148.793559 182.574818 150.556914 180.147766 
z
" clip-path="url(#pb3246bf336)" style="fill: #ffffff; stroke: #ffffff; stroke-linejoin: miter"/>
    </g>
    <g clip-path="url(#pb3246bf336)">
     <!-- 82 -->
     <g transform="translate(146.447359 177.162002) rotate(-54.000015) scale(0.1 -0.1)">
      <use xlink:href="#DejaVuSans-38"/>
      <use xlink:href="#DejaVuSans-32" x="63.623047"/>
     </g>
    </g>
   </g>
   <g id="text_9">
    <g id="patch_20">
     <path d="M 100.838235 219.39855 
L 106.736598 201.245259 
Q 107.66365 198.392089 104.81048 197.465038 
L 95.606037 194.474332 
Q 92.752867 193.547281 91.825816 196.40045 
L 85.927452 214.553741 
Q 85.000401 217.40691 87.85357 218.333962 
L 97.058014 221.324668 
Q 99.911183 222.251719 100.838235 219.39855 
z
" clip-path="url(#pb3246bf336)" style="fill: #ffffff; stroke: #ffffff; stroke-linejoin: miter"/>
    </g>
    <g clip-path="url(#pb3246bf336)">
     <!-- 351 -->
     <g transform="translate(96.007165 217.828839) rotate(-71.999994) scale(0.1 -0.1)">
      <use xlink:href="#DejaVuSans-33"/>
      <use xlink:href="#DejaVuSans-35" x="63.623047"/>
      <use xlink:href="#DejaVuSans-31" x="127.246094"/>
     </g>
    </g>
   </g>
   <g id="patch_21">
    <path d="M 76.614249 241.052779 
C 70.812306 241.052779 65.156215 242.886799 60.458251 246.291453 
C 55.760287 249.696107 52.256648 254.50022 50.450495 260.013872 
C 48.644341 265.527523 48.626481 271.473502 50.399479 276.997904 
C 52.172476 282.522306 55.647191 287.347381 60.324617 290.780197 
L 76.614249 268.584554 
z
" style="fill: #0000ff"/>
   </g>
   <g id="patch_22">
    <path d="M 60.324617 290.780197 
C 63.831655 293.354051 67.899294 295.060435 72.193014 295.759015 
C 76.486734 296.457595 80.885512 296.128682 85.027595 294.799326 
C 89.169678 293.469969 92.938319 291.177638 96.023585 288.110852 
C 99.108851 285.044066 101.423783 281.289266 102.778001 277.155244 
C 104.132219 273.021223 104.487553 268.6245 103.814782 264.326661 
C 103.14201 260.028822 101.460095 255.951004 98.907357 252.428566 
C 96.354619 248.906128 93.003008 246.038352 89.12816 244.061083 
C 85.253312 242.083813 80.964442 241.052782 76.614264 241.052779 
L 76.614249 268.584554 
z
" style="fill: #ff0000"/>
   </g>
   <g id="matplotlib.axis_1">
    <g id="xtick_1"/>
    <g id="xtick_2"/>
    <g id="xtick_3"/>
    <g id="xtick_4"/>
    <g id="xtick_5"/>
    <g id="xtick_6"/>
    <g id="xtick_7"/>
    <g id="xtick_8"/>
    <g id="xtick_9"/>
   </g>
   <g id="matplotlib.axis_2">
    <g id="ytick_1"/>
    <g id="ytick_2"/>
    <g id="ytick_3"/>
    <g id="ytick_4"/>
    <g id="ytick_5"/>
    <g id="ytick_6"/>
    <g id="ytick_7"/>
   </g>
   <g id="PathCollection_1">
    <path d="M 76.614249 284.395943 
C 80.807478 284.395943 84.829528 282.729955 87.794589 279.764894 
C 90.75965 276.799833 92.425637 272.777784 92.425637 268.584554 
C 92.425637 264.391325 90.75965 260.369275 87.794589 257.404214 
C 84.829528 254.439154 80.807478 252.773166 76.614249 252.773166 
C 72.42102 252.773166 68.39897 254.439154 65.433909 257.404214 
C 62.468848 260.369275 60.802861 264.391325 60.802861 268.584554 
C 60.802861 272.777784 62.468848 276.799833 65.433909 279.764894 
C 68.39897 282.729955 72.42102 284.395943 76.614249 284.395943 
z
" clip-path="url(#pb3246bf336)" style="fill: #87ceeb; stroke: #000000"/>
    <path d="M 116.050018 406.422853 
C 120.417256 406.422853 124.60621 404.687731 127.694314 401.599627 
C 130.782417 398.511524 132.517539 394.322569 132.517539 389.955332 
C 132.517539 385.588094 130.782417 381.39914 127.694314 378.311036 
C 124.60621 375.222933 120.417256 373.487811 116.050018 373.487811 
C 111.68278 373.487811 107.493826 375.222933 104.405722 378.311036 
C 101.317619 381.39914 99.582497 385.588094 99.582497 389.955332 
C 99.582497 394.322569 101.317619 398.511524 104.405722 401.599627 
C 107.493826 404.687731 111.68278 406.422853 116.050018 406.422853 
z
" clip-path="url(#pb3246bf336)" style="fill: #90ee90; stroke: #000000"/>
    <path d="M 219.294137 514.966584 
C 232.554292 514.966584 245.273131 509.698269 254.649477 500.321923 
C 264.025822 490.945578 269.294137 478.226739 269.294137 464.966584 
C 269.294137 451.706429 264.025822 438.987591 254.649477 429.611245 
C 245.273131 420.2349 232.554292 414.966584 219.294137 414.966584 
C 206.033982 414.966584 193.315144 420.2349 183.938798 429.611245 
C 174.562453 438.987591 169.294137 451.706429 169.294137 464.966584 
C 169.294137 478.226739 174.562453 490.945578 183.938798 500.321923 
C 193.315144 509.698269 206.033982 514.966584 219.294137 514.966584 
z
" clip-path="url(#pb3246bf336)" style="fill: #90ee90; stroke: #000000"/>
    <path d="M 346.910986 509.54164 
C 358.732429 509.54164 370.071287 504.844931 378.43031 496.485908 
C 386.789332 488.126886 391.486041 476.788027 391.486041 464.966584 
C 391.486041 453.145141 386.789332 441.806283 378.43031 433.44726 
C 370.071287 425.088238 358.732429 420.391529 346.910986 420.391529 
C 335.089543 420.391529 323.750684 425.088238 315.391662 433.44726 
C 307.032639 441.806283 302.33593 453.145141 302.33593 464.966584 
C 302.33593 476.788027 307.032639 488.126886 315.391662 496.485908 
C 323.750684 504.844931 335.089543 509.54164 346.910986 509.54164 
z
" clip-path="url(#pb3246bf336)" style="fill: #90ee90; stroke: #000000"/>
    <path d="M 450.155167 433.724013 
C 461.762776 433.724013 472.89653 429.11226 481.10435 420.904441 
C 489.312169 412.696622 493.923921 401.562867 493.923921 389.955258 
C 493.923921 378.347649 489.312169 367.213894 481.10435 359.006075 
C 472.89653 350.798256 461.762776 346.186503 450.155167 346.186503 
C 438.547557 346.186503 427.413803 350.798256 419.205983 359.006075 
C 410.998164 367.213894 406.386412 378.347649 406.386412 389.955258 
C 406.386412 401.562867 410.998164 412.696622 419.205983 420.904441 
C 427.413803 429.11226 438.547557 433.724013 450.155167 433.724013 
z
" clip-path="url(#pb3246bf336)" style="fill: #90ee90; stroke: #000000"/>
    <path d="M 489.590874 305.582058 
C 499.402741 305.582058 508.81406 301.683762 515.752098 294.745724 
C 522.690136 287.807686 526.588432 278.396367 526.588432 268.5845 
C 526.588432 258.772633 522.690136 249.361314 515.752098 242.423276 
C 508.81406 235.485239 499.402741 231.586943 489.590874 231.586943 
C 479.779007 231.586943 470.367688 235.485239 463.42965 242.423276 
C 456.491613 249.361314 452.593317 258.772633 452.593317 268.5845 
C 452.593317 278.396367 456.491613 287.807686 463.42965 294.745724 
C 470.367688 301.683762 479.779007 305.582058 489.590874 305.582058 
z
" clip-path="url(#pb3246bf336)" style="fill: #90ee90; stroke: #000000"/>
    <path d="M 450.155117 190.157091 
C 461.543824 190.157091 472.467611 185.63231 480.520643 177.579279 
C 488.573674 169.526247 493.098455 158.602459 493.098455 147.213753 
C 493.098455 135.825047 488.573674 124.901259 480.520643 116.848227 
C 472.467611 108.795196 461.543824 104.270415 450.155117 104.270415 
C 438.766411 104.270415 427.842623 108.795196 419.789592 116.848227 
C 411.73656 124.901259 407.211779 135.825047 407.211779 147.213753 
C 407.211779 158.602459 411.73656 169.526247 419.789592 177.579279 
C 427.842623 185.63231 438.766411 190.157091 450.155117 190.157091 
z
" clip-path="url(#pb3246bf336)" style="fill: #90ee90; stroke: #000000"/>
    <path d="M 346.910918 119.976109 
C 359.580637 119.976109 371.733142 114.942376 380.691986 105.983532 
C 389.65083 97.024688 394.684563 84.872183 394.684563 72.202464 
C 394.684563 59.532745 389.65083 47.380239 380.691986 38.421395 
C 371.733142 29.462551 359.580637 24.428819 346.910918 24.428819 
C 334.241199 24.428819 322.088694 29.462551 313.129849 38.421395 
C 304.171005 47.380239 299.137273 59.532745 299.137273 72.202464 
C 299.137273 84.872183 304.171005 97.024688 313.129849 105.983532 
C 322.088694 114.942376 334.241199 119.976109 346.910918 119.976109 
z
" clip-path="url(#pb3246bf336)" style="fill: #90ee90; stroke: #000000"/>
    <path d="M 219.294076 88.013901 
C 223.487305 88.013901 227.509355 86.347914 230.474416 83.382853 
C 233.439477 80.417792 235.105464 76.395742 235.105464 72.202513 
C 235.105464 68.009284 233.439477 63.987234 230.474416 61.022173 
C 227.509355 58.057112 223.487305 56.391125 219.294076 56.391125 
C 215.100847 56.391125 211.078797 58.057112 208.113736 61.022173 
C 205.148675 63.987234 203.482688 68.009284 203.482688 72.202513 
C 203.482688 76.395742 205.148675 80.417792 208.113736 83.382853 
C 211.078797 86.347914 215.100847 88.013901 219.294076 88.013901 
z
" clip-path="url(#pb3246bf336)" style="fill: #90ee90; stroke: #000000"/>
    <path d="M 116.050043 163.050361 
C 120.249973 163.050361 124.278451 161.381711 127.248251 158.411912 
C 130.21805 155.442112 131.8867 151.413634 131.8867 147.213704 
C 131.8867 143.013773 130.21805 138.985295 127.248251 136.015496 
C 124.278451 133.045696 120.249973 131.377046 116.050043 131.377046 
C 111.850112 131.377046 107.821634 133.045696 104.851835 136.015496 
C 101.882035 138.985295 100.213385 143.013773 100.213385 147.213704 
C 100.213385 151.413634 101.882035 155.442112 104.851835 158.411912 
C 107.821634 161.381711 111.850112 163.050361 116.050043 163.050361 
z
" clip-path="url(#pb3246bf336)" style="fill: #90ee90; stroke: #000000"/>
   </g>
   <g id="patch_23">
    <path d="M 7.2 529.969044 
L 7.2 7.2 
" style="fill: none; stroke: #000000; stroke-width: 0.8; stroke-linejoin: miter; stroke-linecap: square"/>
   </g>
   <g id="patch_24">
    <path d="M 565.2 529.969044 
L 565.2 7.2 
" style="fill: none; stroke: #000000; stroke-width: 0.8; stroke-linejoin: miter; stroke-linecap: square"/>
   </g>
   <g id="patch_25">
    <path d="M 7.2 529.969044 
L 565.2 529.969044 
" style="fill: none; stroke: #000000; stroke-width: 0.8; stroke-linejoin: miter; stroke-linecap: square"/>
   </g>
   <g id="patch_26">
    <path d="M 7.2 7.2 
L 565.2 7.2 
" style="fill: none; stroke: #000000; stroke-width: 0.8; stroke-linejoin: miter; stroke-linecap: square"/>
   </g>
   <g id="text_10">
    <g clip-path="url(#pb3246bf336)">
     <!-- $\mathbf{S}$ -->
     <g transform="translate(72.234249 271.895804) scale(0.12 -0.12)">
      <defs>
       <path id="DejaVuSans-Bold-53" d="M 3834 4519 
L 3834 3531 
Q 3450 3703 3084 3790 
Q 2719 3878 2394 3878 
Q 1963 3878 1756 3759 
Q 1550 3641 1550 3391 
Q 1550 3203 1689 3098 
Q 1828 2994 2194 2919 
L 2706 2816 
Q 3484 2659 3812 2340 
Q 4141 2022 4141 1434 
Q 4141 663 3683 286 
Q 3225 -91 2284 -91 
Q 1841 -91 1394 -6 
Q 947 78 500 244 
L 500 1259 
Q 947 1022 1364 901 
Q 1781 781 2169 781 
Q 2563 781 2772 912 
Q 2981 1044 2981 1288 
Q 2981 1506 2839 1625 
Q 2697 1744 2272 1838 
L 1806 1941 
Q 1106 2091 782 2419 
Q 459 2747 459 3303 
Q 459 4000 909 4375 
Q 1359 4750 2203 4750 
Q 2588 4750 2994 4692 
Q 3400 4634 3834 4519 
z
" transform="scale(0.015625)"/>
      </defs>
      <use xlink:href="#DejaVuSans-Bold-53" transform="translate(0 0.78125)"/>
     </g>
    </g>
   </g>
   <g id="text_11">
    <g clip-path="url(#pb3246bf336)">
     <!-- NCC -->
     <g transform="translate(103.181893 393.266582) scale(0.12 -0.12)">
      <defs>
       <path id="DejaVuSans-4e" d="M 628 4666 
L 1478 4666 
L 3547 763 
L 3547 4666 
L 4159 4666 
L 4159 0 
L 3309 0 
L 1241 3903 
L 1241 0 
L 628 0 
L 628 4666 
z
" transform="scale(0.015625)"/>
       <path id="DejaVuSans-43" d="M 4122 4306 
L 4122 3641 
Q 3803 3938 3442 4084 
Q 3081 4231 2675 4231 
Q 1875 4231 1450 3742 
Q 1025 3253 1025 2328 
Q 1025 1406 1450 917 
Q 1875 428 2675 428 
Q 3081 428 3442 575 
Q 3803 722 4122 1019 
L 4122 359 
Q 3791 134 3420 21 
Q 3050 -91 2638 -91 
Q 1578 -91 968 557 
Q 359 1206 359 2328 
Q 359 3453 968 4101 
Q 1578 4750 2638 4750 
Q 3056 4750 3426 4639 
Q 3797 4528 4122 4306 
z
" transform="scale(0.015625)"/>
      </defs>
      <use xlink:href="#DejaVuSans-4e"/>
      <use xlink:href="#DejaVuSans-43" x="74.804688"/>
      <use xlink:href="#DejaVuSans-43" x="144.628906"/>
     </g>
    </g>
   </g>
   <g id="text_12">
    <g clip-path="url(#pb3246bf336)">
     <!-- TCT -->
     <g transform="translate(208.127575 468.277834) scale(0.12 -0.12)">
      <defs>
       <path id="DejaVuSans-54" d="M -19 4666 
L 3928 4666 
L 3928 4134 
L 2272 4134 
L 2272 0 
L 1638 0 
L 1638 4134 
L -19 4134 
L -19 4666 
z
" transform="scale(0.015625)"/>
      </defs>
      <use xlink:href="#DejaVuSans-54"/>
      <use xlink:href="#DejaVuSans-43" x="55.208984"/>
      <use xlink:href="#DejaVuSans-54" x="125.033203"/>
     </g>
    </g>
   </g>
   <g id="text_13">
    <g clip-path="url(#pb3246bf336)">
     <!-- TCC -->
     <g transform="translate(335.219423 468.277834) scale(0.12 -0.12)">
      <use xlink:href="#DejaVuSans-54"/>
      <use xlink:href="#DejaVuSans-43" x="55.208984"/>
      <use xlink:href="#DejaVuSans-43" x="125.033203"/>
     </g>
    </g>
   </g>
   <g id="text_14">
    <g clip-path="url(#pb3246bf336)">
     <!-- AGC -->
     <g transform="translate(437.317042 393.266508) scale(0.12 -0.12)">
      <defs>
       <path id="DejaVuSans-41" d="M 2188 4044 
L 1331 1722 
L 3047 1722 
L 2188 4044 
z
M 1831 4666 
L 2547 4666 
L 4325 0 
L 3669 0 
L 3244 1197 
L 1141 1197 
L 716 0 
L 50 0 
L 1831 4666 
z
" transform="scale(0.015625)"/>
       <path id="DejaVuSans-47" d="M 3809 666 
L 3809 1919 
L 2778 1919 
L 2778 2438 
L 4434 2438 
L 4434 434 
Q 4069 175 3628 42 
Q 3188 -91 2688 -91 
Q 1594 -91 976 548 
Q 359 1188 359 2328 
Q 359 3472 976 4111 
Q 1594 4750 2688 4750 
Q 3144 4750 3555 4637 
Q 3966 4525 4313 4306 
L 4313 3634 
Q 3963 3931 3569 4081 
Q 3175 4231 2741 4231 
Q 1884 4231 1454 3753 
Q 1025 3275 1025 2328 
Q 1025 1384 1454 906 
Q 1884 428 2741 428 
Q 3075 428 3337 486 
Q 3600 544 3809 666 
z
" transform="scale(0.015625)"/>
      </defs>
      <use xlink:href="#DejaVuSans-41"/>
      <use xlink:href="#DejaVuSans-47" x="66.658203"/>
      <use xlink:href="#DejaVuSans-43" x="144.148438"/>
     </g>
    </g>
   </g>
   <g id="text_15">
    <g clip-path="url(#pb3246bf336)">
     <!-- TCG -->
     <g transform="translate(477.439937 271.89575) scale(0.12 -0.12)">
      <use xlink:href="#DejaVuSans-54"/>
      <use xlink:href="#DejaVuSans-43" x="55.208984"/>
      <use xlink:href="#DejaVuSans-47" x="125.033203"/>
     </g>
    </g>
   </g>
   <g id="text_16">
    <g clip-path="url(#pb3246bf336)">
     <!-- AGT -->
     <g transform="translate(438.059492 150.525003) scale(0.12 -0.12)">
      <use xlink:href="#DejaVuSans-41"/>
      <use xlink:href="#DejaVuSans-47" x="66.658203"/>
      <use xlink:href="#DejaVuSans-54" x="140.523438"/>
     </g>
    </g>
   </g>
   <g id="text_17">
    <g clip-path="url(#pb3246bf336)">
     <!-- TCA -->
     <g transform="translate(335.304668 75.513714) scale(0.12 -0.12)">
      <use xlink:href="#DejaVuSans-54"/>
      <use xlink:href="#DejaVuSans-43" x="55.208984"/>
      <use xlink:href="#DejaVuSans-41" x="125.033203"/>
     </g>
    </g>
   </g>
   <g id="text_18">
    <g clip-path="url(#pb3246bf336)">
     <!-- AGG -->
     <g transform="translate(205.996576 75.513763) scale(0.12 -0.12)">
      <use xlink:href="#DejaVuSans-41"/>
      <use xlink:href="#DejaVuSans-47" x="66.658203"/>
      <use xlink:href="#DejaVuSans-47" x="144.148438"/>
     </g>
    </g>
   </g>
   <g id="text_19">
    <g clip-path="url(#pb3246bf336)">
     <!-- AGA -->
     <g transform="translate(103.29723 150.524954) scale(0.12 -0.12)">
      <use xlink:href="#DejaVuSans-41"/>
      <use xlink:href="#DejaVuSans-47" x="66.658203"/>
      <use xlink:href="#DejaVuSans-41" x="144.148438"/>
     </g>
    </g>
   </g>
   <g id="legend_1">
    <g id="patch_27">
     <path d="M 14.2 44.55625 
L 116.278125 44.55625 
Q 118.278125 44.55625 118.278125 42.55625 
L 118.278125 14.2 
Q 118.278125 12.2 116.278125 12.2 
L 14.2 12.2 
Q 12.2 12.2 12.2 14.2 
L 12.2 42.55625 
Q 12.2 44.55625 14.2 44.55625 
z
" style="fill: #ffffff; opacity: 0.8; stroke: #cccccc; stroke-linejoin: miter"/>
    </g>
    <g id="patch_28">
     <path d="M 16.2 23.798437 
L 36.2 23.798437 
L 36.2 16.798437 
L 16.2 16.798437 
z
" style="fill: #0000ff"/>
    </g>
    <g id="text_20">
     <!-- Genomic data -->
     <g transform="translate(44.2 23.798437) scale(0.1 -0.1)">
      <defs>
       <path id="DejaVuSans-65" d="M 3597 1894 
L 3597 1613 
L 953 1613 
Q 991 1019 1311 708 
Q 1631 397 2203 397 
Q 2534 397 2845 478 
Q 3156 559 3463 722 
L 3463 178 
Q 3153 47 2828 -22 
Q 2503 -91 2169 -91 
Q 1331 -91 842 396 
Q 353 884 353 1716 
Q 353 2575 817 3079 
Q 1281 3584 2069 3584 
Q 2775 3584 3186 3129 
Q 3597 2675 3597 1894 
z
M 3022 2063 
Q 3016 2534 2758 2815 
Q 2500 3097 2075 3097 
Q 1594 3097 1305 2825 
Q 1016 2553 972 2059 
L 3022 2063 
z
" transform="scale(0.015625)"/>
       <path id="DejaVuSans-6e" d="M 3513 2113 
L 3513 0 
L 2938 0 
L 2938 2094 
Q 2938 2591 2744 2837 
Q 2550 3084 2163 3084 
Q 1697 3084 1428 2787 
Q 1159 2491 1159 1978 
L 1159 0 
L 581 0 
L 581 3500 
L 1159 3500 
L 1159 2956 
Q 1366 3272 1645 3428 
Q 1925 3584 2291 3584 
Q 2894 3584 3203 3211 
Q 3513 2838 3513 2113 
z
" transform="scale(0.015625)"/>
       <path id="DejaVuSans-6f" d="M 1959 3097 
Q 1497 3097 1228 2736 
Q 959 2375 959 1747 
Q 959 1119 1226 758 
Q 1494 397 1959 397 
Q 2419 397 2687 759 
Q 2956 1122 2956 1747 
Q 2956 2369 2687 2733 
Q 2419 3097 1959 3097 
z
M 1959 3584 
Q 2709 3584 3137 3096 
Q 3566 2609 3566 1747 
Q 3566 888 3137 398 
Q 2709 -91 1959 -91 
Q 1206 -91 779 398 
Q 353 888 353 1747 
Q 353 2609 779 3096 
Q 1206 3584 1959 3584 
z
" transform="scale(0.015625)"/>
       <path id="DejaVuSans-6d" d="M 3328 2828 
Q 3544 3216 3844 3400 
Q 4144 3584 4550 3584 
Q 5097 3584 5394 3201 
Q 5691 2819 5691 2113 
L 5691 0 
L 5113 0 
L 5113 2094 
Q 5113 2597 4934 2840 
Q 4756 3084 4391 3084 
Q 3944 3084 3684 2787 
Q 3425 2491 3425 1978 
L 3425 0 
L 2847 0 
L 2847 2094 
Q 2847 2600 2669 2842 
Q 2491 3084 2119 3084 
Q 1678 3084 1418 2786 
Q 1159 2488 1159 1978 
L 1159 0 
L 581 0 
L 581 3500 
L 1159 3500 
L 1159 2956 
Q 1356 3278 1631 3431 
Q 1906 3584 2284 3584 
Q 2666 3584 2933 3390 
Q 3200 3197 3328 2828 
z
" transform="scale(0.015625)"/>
       <path id="DejaVuSans-69" d="M 603 3500 
L 1178 3500 
L 1178 0 
L 603 0 
L 603 3500 
z
M 603 4863 
L 1178 4863 
L 1178 4134 
L 603 4134 
L 603 4863 
z
" transform="scale(0.015625)"/>
       <path id="DejaVuSans-63" d="M 3122 3366 
L 3122 2828 
Q 2878 2963 2633 3030 
Q 2388 3097 2138 3097 
Q 1578 3097 1268 2742 
Q 959 2388 959 1747 
Q 959 1106 1268 751 
Q 1578 397 2138 397 
Q 2388 397 2633 464 
Q 2878 531 3122 666 
L 3122 134 
Q 2881 22 2623 -34 
Q 2366 -91 2075 -91 
Q 1284 -91 818 406 
Q 353 903 353 1747 
Q 353 2603 823 3093 
Q 1294 3584 2113 3584 
Q 2378 3584 2631 3529 
Q 2884 3475 3122 3366 
z
" transform="scale(0.015625)"/>
       <path id="DejaVuSans-20" transform="scale(0.015625)"/>
       <path id="DejaVuSans-64" d="M 2906 2969 
L 2906 4863 
L 3481 4863 
L 3481 0 
L 2906 0 
L 2906 525 
Q 2725 213 2448 61 
Q 2172 -91 1784 -91 
Q 1150 -91 751 415 
Q 353 922 353 1747 
Q 353 2572 751 3078 
Q 1150 3584 1784 3584 
Q 2172 3584 2448 3432 
Q 2725 3281 2906 2969 
z
M 947 1747 
Q 947 1113 1208 752 
Q 1469 391 1925 391 
Q 2381 391 2643 752 
Q 2906 1113 2906 1747 
Q 2906 2381 2643 2742 
Q 2381 3103 1925 3103 
Q 1469 3103 1208 2742 
Q 947 2381 947 1747 
z
" transform="scale(0.015625)"/>
       <path id="DejaVuSans-61" d="M 2194 1759 
Q 1497 1759 1228 1600 
Q 959 1441 959 1056 
Q 959 750 1161 570 
Q 1363 391 1709 391 
Q 2188 391 2477 730 
Q 2766 1069 2766 1631 
L 2766 1759 
L 2194 1759 
z
M 3341 1997 
L 3341 0 
L 2766 0 
L 2766 531 
Q 2569 213 2275 61 
Q 1981 -91 1556 -91 
Q 1019 -91 701 211 
Q 384 513 384 1019 
Q 384 1609 779 1909 
Q 1175 2209 1959 2209 
L 2766 2209 
L 2766 2266 
Q 2766 2663 2505 2880 
Q 2244 3097 1772 3097 
Q 1472 3097 1187 3025 
Q 903 2953 641 2809 
L 641 3341 
Q 956 3463 1253 3523 
Q 1550 3584 1831 3584 
Q 2591 3584 2966 3190 
Q 3341 2797 3341 1997 
z
" transform="scale(0.015625)"/>
       <path id="DejaVuSans-74" d="M 1172 4494 
L 1172 3500 
L 2356 3500 
L 2356 3053 
L 1172 3053 
L 1172 1153 
Q 1172 725 1289 603 
Q 1406 481 1766 481 
L 2356 481 
L 2356 0 
L 1766 0 
Q 1100 0 847 248 
Q 594 497 594 1153 
L 594 3053 
L 172 3053 
L 172 3500 
L 594 3500 
L 594 4494 
L 1172 4494 
z
" transform="scale(0.015625)"/>
      </defs>
      <use xlink:href="#DejaVuSans-47"/>
      <use xlink:href="#DejaVuSans-65" x="77.490234"/>
      <use xlink:href="#DejaVuSans-6e" x="139.013672"/>
      <use xlink:href="#DejaVuSans-6f" x="202.392578"/>
      <use xlink:href="#DejaVuSans-6d" x="263.574219"/>
      <use xlink:href="#DejaVuSans-69" x="360.986328"/>
      <use xlink:href="#DejaVuSans-63" x="388.769531"/>
      <use xlink:href="#DejaVuSans-20" x="443.75"/>
      <use xlink:href="#DejaVuSans-64" x="475.537109"/>
      <use xlink:href="#DejaVuSans-61" x="539.013672"/>
      <use xlink:href="#DejaVuSans-74" x="600.292969"/>
      <use xlink:href="#DejaVuSans-61" x="639.501953"/>
     </g>
    </g>
    <g id="patch_29">
     <path d="M 16.2 38.476562 
L 36.2 38.476562 
L 36.2 31.476562 
L 16.2 31.476562 
z
" style="fill: #ff0000"/>
    </g>
    <g id="text_21">
     <!-- Genetic code -->
     <g transform="translate(44.2 38.476562) scale(0.1 -0.1)">
      <use xlink:href="#DejaVuSans-47"/>
      <use xlink:href="#DejaVuSans-65" x="77.490234"/>
      <use xlink:href="#DejaVuSans-6e" x="139.013672"/>
      <use xlink:href="#DejaVuSans-65" x="202.392578"/>
      <use xlink:href="#DejaVuSans-74" x="263.916016"/>
      <use xlink:href="#DejaVuSans-69" x="303.125"/>
      <use xlink:href="#DejaVuSans-63" x="330.908203"/>
      <use xlink:href="#DejaVuSans-20" x="385.888672"/>
      <use xlink:href="#DejaVuSans-63" x="417.675781"/>
      <use xlink:href="#DejaVuSans-6f" x="472.65625"/>
      <use xlink:href="#DejaVuSans-64" x="533.837891"/>
      <use xlink:href="#DejaVuSans-65" x="597.314453"/>
     </g>
    </g>
   </g>
  </g>
 </g>
 <defs>
  <clipPath id="pb3246bf336">
   <rect x="7.2" y="7.2" width="558" height="522.769044"/>
  </clipPath>
 </defs>
</svg>
