<?xml version="1.0" encoding="utf-8" standalone="no"?>
<!DOCTYPE svg PUBLIC "-//W3C//DTD SVG 1.1//EN"
  "http://www.w3.org/Graphics/SVG/1.1/DTD/svg11.dtd">
<svg xmlns:xlink="http://www.w3.org/1999/xlink" width="1008pt" height="504pt" viewBox="0 0 1008 504" xmlns="http://www.w3.org/2000/svg" version="1.1">
 <metadata>
  <rdf:RDF xmlns:dc="http://purl.org/dc/elements/1.1/" xmlns:cc="http://creativecommons.org/ns#" xmlns:rdf="http://www.w3.org/1999/02/22-rdf-syntax-ns#">
   <cc:Work>
    <dc:type rdf:resource="http://purl.org/dc/dcmitype/StillImage"/>
    <dc:date>2024-11-29T12:54:13.045913</dc:date>
    <dc:format>image/svg+xml</dc:format>
    <dc:creator>
     <cc:Agent>
      <dc:title>Matplotlib v3.6.3, https://matplotlib.org/</dc:title>
     </cc:Agent>
    </dc:creator>
   </cc:Work>
  </rdf:RDF>
 </metadata>
 <defs>
  <style type="text/css">*{stroke-linejoin: round; stroke-linecap: butt}</style>
 </defs>
 <g id="figure_1">
  <g id="patch_1">
   <path d="M 0 504 
L 1008 504 
L 1008 0 
L 0 0 
z
" style="fill: #ffffff"/>
  </g>
  <g id="axes_1">
   <g id="patch_2">
    <path d="M 57.045 461.94 
L 997.2 461.94 
L 997.2 29.04 
L 57.045 29.04 
z
" style="fill: #ffffff"/>
   </g>
   <g id="patch_3">
    <path d="M 68.623264 461.94 
L 77.885874 461.94 
L 77.885874 384.902208 
L 68.623264 384.902208 
z
" clip-path="url(#pfc59b9026a)" style="fill: #0000ff"/>
   </g>
   <g id="patch_4">
    <path d="M 114.936318 461.94 
L 124.198929 461.94 
L 124.198929 427.075758 
L 114.936318 427.075758 
z
" clip-path="url(#pfc59b9026a)" style="fill: #0000ff"/>
   </g>
   <g id="patch_5">
    <path d="M 161.249372 461.94 
L 170.511983 461.94 
L 170.511983 425.687115 
L 161.249372 425.687115 
z
" clip-path="url(#pfc59b9026a)" style="fill: #0000ff"/>
   </g>
   <g id="patch_6">
    <path d="M 207.562426 461.94 
L 216.825037 461.94 
L 216.825037 265.558767 
L 207.562426 265.558767 
z
" clip-path="url(#pfc59b9026a)" style="fill: #0000ff"/>
   </g>
   <g id="patch_7">
    <path d="M 253.87548 461.94 
L 263.138091 461.94 
L 263.138091 205.69979 
L 253.87548 205.69979 
z
" clip-path="url(#pfc59b9026a)" style="fill: #0000ff"/>
   </g>
   <g id="patch_8">
    <path d="M 300.188534 461.94 
L 309.451145 461.94 
L 309.451145 345.96545 
L 300.188534 345.96545 
z
" clip-path="url(#pfc59b9026a)" style="fill: #0000ff"/>
   </g>
   <g id="patch_9">
    <path d="M 346.501589 461.94 
L 355.7642 461.94 
L 355.7642 406.589993 
L 346.501589 406.589993 
z
" clip-path="url(#pfc59b9026a)" style="fill: #0000ff"/>
   </g>
   <g id="patch_10">
    <path d="M 392.814643 461.94 
L 402.077254 461.94 
L 402.077254 274.470238 
L 392.814643 274.470238 
z
" clip-path="url(#pfc59b9026a)" style="fill: #0000ff"/>
   </g>
   <g id="patch_11">
    <path d="M 439.127697 461.94 
L 448.390308 461.94 
L 448.390308 350.472212 
L 439.127697 350.472212 
z
" clip-path="url(#pfc59b9026a)" style="fill: #0000ff"/>
   </g>
   <g id="patch_12">
    <path d="M 485.440751 461.94 
L 494.703362 461.94 
L 494.703362 392.820882 
L 485.440751 392.820882 
z
" clip-path="url(#pfc59b9026a)" style="fill: #0000ff"/>
   </g>
   <g id="patch_13">
    <path d="M 531.753805 461.94 
L 541.016416 461.94 
L 541.016416 348.601961 
L 531.753805 348.601961 
z
" clip-path="url(#pfc59b9026a)" style="fill: #0000ff"/>
   </g>
   <g id="patch_14">
    <path d="M 578.06686 461.94 
L 587.32947 461.94 
L 587.32947 227.938408 
L 578.06686 227.938408 
z
" clip-path="url(#pfc59b9026a)" style="fill: #0000ff"/>
   </g>
   <g id="patch_15">
    <path d="M 624.379914 461.94 
L 633.642525 461.94 
L 633.642525 212.642591 
L 624.379914 212.642591 
z
" clip-path="url(#pfc59b9026a)" style="fill: #0000ff"/>
   </g>
   <g id="patch_16">
    <path d="M 670.692968 461.94 
L 679.955579 461.94 
L 679.955579 223.807238 
L 670.692968 223.807238 
z
" clip-path="url(#pfc59b9026a)" style="fill: #0000ff"/>
   </g>
   <g id="patch_17">
    <path d="M 717.006022 461.94 
L 726.268633 461.94 
L 726.268633 327.43994 
L 717.006022 327.43994 
z
" clip-path="url(#pfc59b9026a)" style="fill: #0000ff"/>
   </g>
   <g id="patch_18">
    <path d="M 763.319076 461.94 
L 772.581687 461.94 
L 772.581687 302.173501 
L 763.319076 302.173501 
z
" clip-path="url(#pfc59b9026a)" style="fill: #0000ff"/>
   </g>
   <g id="patch_19">
    <path d="M 809.632131 461.94 
L 818.894741 461.94 
L 818.894741 206.029641 
L 809.632131 206.029641 
z
" clip-path="url(#pfc59b9026a)" style="fill: #0000ff"/>
   </g>
   <g id="patch_20">
    <path d="M 855.945185 461.94 
L 865.207796 461.94 
L 865.207796 161.069598 
L 855.945185 161.069598 
z
" clip-path="url(#pfc59b9026a)" style="fill: #0000ff"/>
   </g>
   <g id="patch_21">
    <path d="M 902.258239 461.94 
L 911.52085 461.94 
L 911.52085 279.10338 
L 902.258239 279.10338 
z
" clip-path="url(#pfc59b9026a)" style="fill: #0000ff"/>
   </g>
   <g id="patch_22">
    <path d="M 948.571293 461.94 
L 957.833904 461.94 
L 957.833904 273.615192 
L 948.571293 273.615192 
z
" clip-path="url(#pfc59b9026a)" style="fill: #0000ff"/>
   </g>
   <g id="patch_23">
    <path d="M 77.885874 461.94 
L 87.148485 461.94 
L 87.148485 386.279721 
L 77.885874 386.279721 
z
" clip-path="url(#pfc59b9026a)" style="fill: #008000"/>
   </g>
   <g id="patch_24">
    <path d="M 124.198929 461.94 
L 133.461539 461.94 
L 133.461539 420.768245 
L 124.198929 420.768245 
z
" clip-path="url(#pfc59b9026a)" style="fill: #008000"/>
   </g>
   <g id="patch_25">
    <path d="M 170.511983 461.94 
L 179.774594 461.94 
L 179.774594 426.724899 
L 170.511983 426.724899 
z
" clip-path="url(#pfc59b9026a)" style="fill: #008000"/>
   </g>
   <g id="patch_26">
    <path d="M 216.825037 461.94 
L 226.087648 461.94 
L 226.087648 282.872381 
L 216.825037 282.872381 
z
" clip-path="url(#pfc59b9026a)" style="fill: #008000"/>
   </g>
   <g id="patch_27">
    <path d="M 263.138091 461.94 
L 272.400702 461.94 
L 272.400702 258.409172 
L 263.138091 258.409172 
z
" clip-path="url(#pfc59b9026a)" style="fill: #008000"/>
   </g>
   <g id="patch_28">
    <path d="M 309.451145 461.94 
L 318.713756 461.94 
L 318.713756 340.221846 
L 309.451145 340.221846 
z
" clip-path="url(#pfc59b9026a)" style="fill: #008000"/>
   </g>
   <g id="patch_29">
    <path d="M 355.7642 461.94 
L 365.02681 461.94 
L 365.02681 394.027981 
L 355.7642 394.027981 
z
" clip-path="url(#pfc59b9026a)" style="fill: #008000"/>
   </g>
   <g id="patch_30">
    <path d="M 402.077254 461.94 
L 411.339865 461.94 
L 411.339865 306.416425 
L 402.077254 306.416425 
z
" clip-path="url(#pfc59b9026a)" style="fill: #008000"/>
   </g>
   <g id="patch_31">
    <path d="M 448.390308 461.94 
L 457.652919 461.94 
L 457.652919 349.392094 
L 448.390308 349.392094 
z
" clip-path="url(#pfc59b9026a)" style="fill: #008000"/>
   </g>
   <g id="patch_32">
    <path d="M 494.703362 461.94 
L 503.965973 461.94 
L 503.965973 350.168154 
L 494.703362 350.168154 
z
" clip-path="url(#pfc59b9026a)" style="fill: #008000"/>
   </g>
   <g id="patch_33">
    <path d="M 541.016416 461.94 
L 550.279027 461.94 
L 550.279027 370.757448 
L 541.016416 370.757448 
z
" clip-path="url(#pfc59b9026a)" style="fill: #008000"/>
   </g>
   <g id="patch_34">
    <path d="M 587.32947 461.94 
L 596.592081 461.94 
L 596.592081 268.614802 
L 587.32947 268.614802 
z
" clip-path="url(#pfc59b9026a)" style="fill: #008000"/>
   </g>
   <g id="patch_35">
    <path d="M 633.642525 461.94 
L 642.905135 461.94 
L 642.905135 146.054363 
L 633.642525 146.054363 
z
" clip-path="url(#pfc59b9026a)" style="fill: #008000"/>
   </g>
   <g id="patch_36">
    <path d="M 679.955579 461.94 
L 689.21819 461.94 
L 689.21819 221.057451 
L 679.955579 221.057451 
z
" clip-path="url(#pfc59b9026a)" style="fill: #008000"/>
   </g>
   <g id="patch_37">
    <path d="M 726.268633 461.94 
L 735.531244 461.94 
L 735.531244 316.157444 
L 726.268633 316.157444 
z
" clip-path="url(#pfc59b9026a)" style="fill: #008000"/>
   </g>
   <g id="patch_38">
    <path d="M 772.581687 461.94 
L 781.844298 461.94 
L 781.844298 292.648726 
L 772.581687 292.648726 
z
" clip-path="url(#pfc59b9026a)" style="fill: #008000"/>
   </g>
   <g id="patch_39">
    <path d="M 818.894741 461.94 
L 828.157352 461.94 
L 828.157352 228.85588 
L 818.894741 228.85588 
z
" clip-path="url(#pfc59b9026a)" style="fill: #008000"/>
   </g>
   <g id="patch_40">
    <path d="M 865.207796 461.94 
L 874.470406 461.94 
L 874.470406 134.532119 
L 865.207796 134.532119 
z
" clip-path="url(#pfc59b9026a)" style="fill: #008000"/>
   </g>
   <g id="patch_41">
    <path d="M 911.52085 461.94 
L 920.783461 461.94 
L 920.783461 269.854966 
L 911.52085 269.854966 
z
" clip-path="url(#pfc59b9026a)" style="fill: #008000"/>
   </g>
   <g id="patch_42">
    <path d="M 957.833904 461.94 
L 967.096515 461.94 
L 967.096515 277.849745 
L 957.833904 277.849745 
z
" clip-path="url(#pfc59b9026a)" style="fill: #008000"/>
   </g>
   <g id="patch_43">
    <path d="M 87.148485 461.94 
L 96.411096 461.94 
L 96.411096 386.828402 
L 87.148485 386.828402 
z
" clip-path="url(#pfc59b9026a)" style="fill: #ffa500"/>
   </g>
   <g id="patch_44">
    <path d="M 133.461539 461.94 
L 142.72415 461.94 
L 142.72415 418.826381 
L 133.461539 418.826381 
z
" clip-path="url(#pfc59b9026a)" style="fill: #ffa500"/>
   </g>
   <g id="patch_45">
    <path d="M 179.774594 461.94 
L 189.037204 461.94 
L 189.037204 400.927781 
L 179.774594 400.927781 
z
" clip-path="url(#pfc59b9026a)" style="fill: #ffa500"/>
   </g>
   <g id="patch_46">
    <path d="M 226.087648 461.94 
L 235.350259 461.94 
L 235.350259 290.699158 
L 226.087648 290.699158 
z
" clip-path="url(#pfc59b9026a)" style="fill: #ffa500"/>
   </g>
   <g id="patch_47">
    <path d="M 272.400702 461.94 
L 281.663313 461.94 
L 281.663313 260.007367 
L 272.400702 260.007367 
z
" clip-path="url(#pfc59b9026a)" style="fill: #ffa500"/>
   </g>
   <g id="patch_48">
    <path d="M 318.713756 461.94 
L 327.976367 461.94 
L 327.976367 334.884013 
L 318.713756 334.884013 
z
" clip-path="url(#pfc59b9026a)" style="fill: #ffa500"/>
   </g>
   <g id="patch_49">
    <path d="M 365.02681 461.94 
L 374.289421 461.94 
L 374.289421 381.248979 
L 365.02681 381.248979 
z
" clip-path="url(#pfc59b9026a)" style="fill: #ffa500"/>
   </g>
   <g id="patch_50">
    <path d="M 411.339865 461.94 
L 420.602475 461.94 
L 420.602475 279.525266 
L 411.339865 279.525266 
z
" clip-path="url(#pfc59b9026a)" style="fill: #ffa500"/>
   </g>
   <g id="patch_51">
    <path d="M 457.652919 461.94 
L 466.91553 461.94 
L 466.91553 326.42751 
L 457.652919 326.42751 
z
" clip-path="url(#pfc59b9026a)" style="fill: #ffa500"/>
   </g>
   <g id="patch_52">
    <path d="M 503.965973 461.94 
L 513.228584 461.94 
L 513.228584 332.909773 
L 503.965973 332.909773 
z
" clip-path="url(#pfc59b9026a)" style="fill: #ffa500"/>
   </g>
   <g id="patch_53">
    <path d="M 550.279027 461.94 
L 559.541638 461.94 
L 559.541638 365.776328 
L 550.279027 365.776328 
z
" clip-path="url(#pfc59b9026a)" style="fill: #ffa500"/>
   </g>
   <g id="patch_54">
    <path d="M 596.592081 461.94 
L 605.854692 461.94 
L 605.854692 295.476812 
L 596.592081 295.476812 
z
" clip-path="url(#pfc59b9026a)" style="fill: #ffa500"/>
   </g>
   <g id="patch_55">
    <path d="M 642.905135 461.94 
L 652.167746 461.94 
L 652.167746 228.307317 
L 642.905135 228.307317 
z
" clip-path="url(#pfc59b9026a)" style="fill: #ffa500"/>
   </g>
   <g id="patch_56">
    <path d="M 689.21819 461.94 
L 698.4808 461.94 
L 698.4808 261.602824 
L 689.21819 261.602824 
z
" clip-path="url(#pfc59b9026a)" style="fill: #ffa500"/>
   </g>
   <g id="patch_57">
    <path d="M 735.531244 461.94 
L 744.793855 461.94 
L 744.793855 294.798576 
L 735.531244 294.798576 
z
" clip-path="url(#pfc59b9026a)" style="fill: #ffa500"/>
   </g>
   <g id="patch_58">
    <path d="M 781.844298 461.94 
L 791.106909 461.94 
L 791.106909 283.954186 
L 781.844298 283.954186 
z
" clip-path="url(#pfc59b9026a)" style="fill: #ffa500"/>
   </g>
   <g id="patch_59">
    <path d="M 828.157352 461.94 
L 837.419963 461.94 
L 837.419963 259.228285 
L 828.157352 259.228285 
z
" clip-path="url(#pfc59b9026a)" style="fill: #ffa500"/>
   </g>
   <g id="patch_60">
    <path d="M 874.470406 461.94 
L 883.733017 461.94 
L 883.733017 157.457898 
L 874.470406 157.457898 
z
" clip-path="url(#pfc59b9026a)" style="fill: #ffa500"/>
   </g>
   <g id="patch_61">
    <path d="M 920.783461 461.94 
L 930.046071 461.94 
L 930.046071 279.076973 
L 920.783461 279.076973 
z
" clip-path="url(#pfc59b9026a)" style="fill: #ffa500"/>
   </g>
   <g id="patch_62">
    <path d="M 967.096515 461.94 
L 976.359126 461.94 
L 976.359126 203.700033 
L 967.096515 203.700033 
z
" clip-path="url(#pfc59b9026a)" style="fill: #ffa500"/>
   </g>
   <g id="patch_63">
    <path d="M 96.411096 461.94 
L 105.673707 461.94 
L 105.673707 385.242252 
L 96.411096 385.242252 
z
" clip-path="url(#pfc59b9026a)" style="fill: #ff0000"/>
   </g>
   <g id="patch_64">
    <path d="M 142.72415 461.94 
L 151.986761 461.94 
L 151.986761 411.236873 
L 142.72415 411.236873 
z
" clip-path="url(#pfc59b9026a)" style="fill: #ff0000"/>
   </g>
   <g id="patch_65">
    <path d="M 189.037204 461.94 
L 198.299815 461.94 
L 198.299815 398.781553 
L 189.037204 398.781553 
z
" clip-path="url(#pfc59b9026a)" style="fill: #ff0000"/>
   </g>
   <g id="patch_66">
    <path d="M 235.350259 461.94 
L 244.612869 461.94 
L 244.612869 290.014169 
L 235.350259 290.014169 
z
" clip-path="url(#pfc59b9026a)" style="fill: #ff0000"/>
   </g>
   <g id="patch_67">
    <path d="M 281.663313 461.94 
L 290.925924 461.94 
L 290.925924 273.255945 
L 281.663313 273.255945 
z
" clip-path="url(#pfc59b9026a)" style="fill: #ff0000"/>
   </g>
   <g id="patch_68">
    <path d="M 327.976367 461.94 
L 337.238978 461.94 
L 337.238978 331.081336 
L 327.976367 331.081336 
z
" clip-path="url(#pfc59b9026a)" style="fill: #ff0000"/>
   </g>
   <g id="patch_69">
    <path d="M 374.289421 461.94 
L 383.552032 461.94 
L 383.552032 388.508763 
L 374.289421 388.508763 
z
" clip-path="url(#pfc59b9026a)" style="fill: #ff0000"/>
   </g>
   <g id="patch_70">
    <path d="M 420.602475 461.94 
L 429.865086 461.94 
L 429.865086 270.780878 
L 420.602475 270.780878 
z
" clip-path="url(#pfc59b9026a)" style="fill: #ff0000"/>
   </g>
   <g id="patch_71">
    <path d="M 466.91553 461.94 
L 476.17814 461.94 
L 476.17814 314.279054 
L 466.91553 314.279054 
z
" clip-path="url(#pfc59b9026a)" style="fill: #ff0000"/>
   </g>
   <g id="patch_72">
    <path d="M 513.228584 461.94 
L 522.491195 461.94 
L 522.491195 339.358811 
L 513.228584 339.358811 
z
" clip-path="url(#pfc59b9026a)" style="fill: #ff0000"/>
   </g>
   <g id="patch_73">
    <path d="M 559.541638 461.94 
L 568.804249 461.94 
L 568.804249 346.544706 
L 559.541638 346.544706 
z
" clip-path="url(#pfc59b9026a)" style="fill: #ff0000"/>
   </g>
   <g id="patch_74">
    <path d="M 605.854692 461.94 
L 615.117303 461.94 
L 615.117303 278.270662 
L 605.854692 278.270662 
z
" clip-path="url(#pfc59b9026a)" style="fill: #ff0000"/>
   </g>
   <g id="patch_75">
    <path d="M 652.167746 461.94 
L 661.430357 461.94 
L 661.430357 249.967165 
L 652.167746 249.967165 
z
" clip-path="url(#pfc59b9026a)" style="fill: #ff0000"/>
   </g>
   <g id="patch_76">
    <path d="M 698.4808 461.94 
L 707.743411 461.94 
L 707.743411 268.113039 
L 698.4808 268.113039 
z
" clip-path="url(#pfc59b9026a)" style="fill: #ff0000"/>
   </g>
   <g id="patch_77">
    <path d="M 744.793855 461.94 
L 754.056466 461.94 
L 754.056466 299.145412 
L 744.793855 299.145412 
z
" clip-path="url(#pfc59b9026a)" style="fill: #ff0000"/>
   </g>
   <g id="patch_78">
    <path d="M 791.106909 461.94 
L 800.36952 461.94 
L 800.36952 266.401857 
L 791.106909 266.401857 
z
" clip-path="url(#pfc59b9026a)" style="fill: #ff0000"/>
   </g>
   <g id="patch_79">
    <path d="M 837.419963 461.94 
L 846.682574 461.94 
L 846.682574 254.343039 
L 837.419963 254.343039 
z
" clip-path="url(#pfc59b9026a)" style="fill: #ff0000"/>
   </g>
   <g id="patch_80">
    <path d="M 883.733017 461.94 
L 892.995628 461.94 
L 892.995628 170.281019 
L 883.733017 170.281019 
z
" clip-path="url(#pfc59b9026a)" style="fill: #ff0000"/>
   </g>
   <g id="patch_81">
    <path d="M 930.046071 461.94 
L 939.308682 461.94 
L 939.308682 278.410026 
L 930.046071 278.410026 
z
" clip-path="url(#pfc59b9026a)" style="fill: #ff0000"/>
   </g>
   <g id="patch_82">
    <path d="M 976.359126 461.94 
L 985.621736 461.94 
L 985.621736 227.647301 
L 976.359126 227.647301 
z
" clip-path="url(#pfc59b9026a)" style="fill: #ff0000"/>
   </g>
   <g id="matplotlib.axis_1">
    <g id="xtick_1">
     <g id="line2d_1">
      <defs>
       <path id="md3ee66dc0b" d="M 0 0 
L 0 -3.5 
" style="stroke: #1a1a1a; stroke-width: 0.8"/>
      </defs>
      <g>
       <use xlink:href="#md3ee66dc0b" x="87.148485" y="461.94" style="fill: #1a1a1a; stroke: #1a1a1a; stroke-width: 0.8"/>
      </g>
     </g>
     <g id="text_1">
      <!-- M -->
      <g style="fill: #1a1a1a" transform="translate(81.97161 474.558125) scale(0.12 -0.12)">
       <defs>
        <path id="DejaVuSans-4d" d="M 628 4666 
L 1569 4666 
L 2759 1491 
L 3956 4666 
L 4897 4666 
L 4897 0 
L 4281 0 
L 4281 4097 
L 3078 897 
L 2444 897 
L 1241 4097 
L 1241 0 
L 628 0 
L 628 4666 
z
" transform="scale(0.015625)"/>
       </defs>
       <use xlink:href="#DejaVuSans-4d"/>
      </g>
     </g>
    </g>
    <g id="xtick_2">
     <g id="line2d_2">
      <g>
       <use xlink:href="#md3ee66dc0b" x="133.461539" y="461.94" style="fill: #1a1a1a; stroke: #1a1a1a; stroke-width: 0.8"/>
      </g>
     </g>
     <g id="text_2">
      <!-- W -->
      <g style="fill: #1a1a1a" transform="translate(127.529039 474.558125) scale(0.12 -0.12)">
       <defs>
        <path id="DejaVuSans-57" d="M 213 4666 
L 850 4666 
L 1831 722 
L 2809 4666 
L 3519 4666 
L 4500 722 
L 5478 4666 
L 6119 4666 
L 4947 0 
L 4153 0 
L 3169 4050 
L 2175 0 
L 1381 0 
L 213 4666 
z
" transform="scale(0.015625)"/>
       </defs>
       <use xlink:href="#DejaVuSans-57"/>
      </g>
     </g>
    </g>
    <g id="xtick_3">
     <g id="line2d_3">
      <g>
       <use xlink:href="#md3ee66dc0b" x="179.774594" y="461.94" style="fill: #1a1a1a; stroke: #1a1a1a; stroke-width: 0.8"/>
      </g>
     </g>
     <g id="text_3">
      <!-- C -->
      <g style="fill: #1a1a1a" transform="translate(175.584906 474.558125) scale(0.12 -0.12)">
       <defs>
        <path id="DejaVuSans-43" d="M 4122 4306 
L 4122 3641 
Q 3803 3938 3442 4084 
Q 3081 4231 2675 4231 
Q 1875 4231 1450 3742 
Q 1025 3253 1025 2328 
Q 1025 1406 1450 917 
Q 1875 428 2675 428 
Q 3081 428 3442 575 
Q 3803 722 4122 1019 
L 4122 359 
Q 3791 134 3420 21 
Q 3050 -91 2638 -91 
Q 1578 -91 968 557 
Q 359 1206 359 2328 
Q 359 3453 968 4101 
Q 1578 4750 2638 4750 
Q 3056 4750 3426 4639 
Q 3797 4528 4122 4306 
z
" transform="scale(0.015625)"/>
       </defs>
       <use xlink:href="#DejaVuSans-43"/>
      </g>
     </g>
    </g>
    <g id="xtick_4">
     <g id="line2d_4">
      <g>
       <use xlink:href="#md3ee66dc0b" x="226.087648" y="461.94" style="fill: #1a1a1a; stroke: #1a1a1a; stroke-width: 0.8"/>
      </g>
     </g>
     <g id="text_4">
      <!-- D -->
      <g style="fill: #1a1a1a" transform="translate(221.467648 474.558125) scale(0.12 -0.12)">
       <defs>
        <path id="DejaVuSans-44" d="M 1259 4147 
L 1259 519 
L 2022 519 
Q 2988 519 3436 956 
Q 3884 1394 3884 2338 
Q 3884 3275 3436 3711 
Q 2988 4147 2022 4147 
L 1259 4147 
z
M 628 4666 
L 1925 4666 
Q 3281 4666 3915 4102 
Q 4550 3538 4550 2338 
Q 4550 1131 3912 565 
Q 3275 0 1925 0 
L 628 0 
L 628 4666 
z
" transform="scale(0.015625)"/>
       </defs>
       <use xlink:href="#DejaVuSans-44"/>
      </g>
     </g>
    </g>
    <g id="xtick_5">
     <g id="line2d_5">
      <g>
       <use xlink:href="#md3ee66dc0b" x="272.400702" y="461.94" style="fill: #1a1a1a; stroke: #1a1a1a; stroke-width: 0.8"/>
      </g>
     </g>
     <g id="text_5">
      <!-- E -->
      <g style="fill: #1a1a1a" transform="translate(268.609452 474.558125) scale(0.12 -0.12)">
       <defs>
        <path id="DejaVuSans-45" d="M 628 4666 
L 3578 4666 
L 3578 4134 
L 1259 4134 
L 1259 2753 
L 3481 2753 
L 3481 2222 
L 1259 2222 
L 1259 531 
L 3634 531 
L 3634 0 
L 628 0 
L 628 4666 
z
" transform="scale(0.015625)"/>
       </defs>
       <use xlink:href="#DejaVuSans-45"/>
      </g>
     </g>
    </g>
    <g id="xtick_6">
     <g id="line2d_6">
      <g>
       <use xlink:href="#md3ee66dc0b" x="318.713756" y="461.94" style="fill: #1a1a1a; stroke: #1a1a1a; stroke-width: 0.8"/>
      </g>
     </g>
     <g id="text_6">
      <!-- F -->
      <g style="fill: #1a1a1a" transform="translate(315.262819 474.558125) scale(0.12 -0.12)">
       <defs>
        <path id="DejaVuSans-46" d="M 628 4666 
L 3309 4666 
L 3309 4134 
L 1259 4134 
L 1259 2759 
L 3109 2759 
L 3109 2228 
L 1259 2228 
L 1259 0 
L 628 0 
L 628 4666 
z
" transform="scale(0.015625)"/>
       </defs>
       <use xlink:href="#DejaVuSans-46"/>
      </g>
     </g>
    </g>
    <g id="xtick_7">
     <g id="line2d_7">
      <g>
       <use xlink:href="#md3ee66dc0b" x="365.02681" y="461.94" style="fill: #1a1a1a; stroke: #1a1a1a; stroke-width: 0.8"/>
      </g>
     </g>
     <g id="text_7">
      <!-- H -->
      <g style="fill: #1a1a1a" transform="translate(360.514623 474.558125) scale(0.12 -0.12)">
       <defs>
        <path id="DejaVuSans-48" d="M 628 4666 
L 1259 4666 
L 1259 2753 
L 3553 2753 
L 3553 4666 
L 4184 4666 
L 4184 0 
L 3553 0 
L 3553 2222 
L 1259 2222 
L 1259 0 
L 628 0 
L 628 4666 
z
" transform="scale(0.015625)"/>
       </defs>
       <use xlink:href="#DejaVuSans-48"/>
      </g>
     </g>
    </g>
    <g id="xtick_8">
     <g id="line2d_8">
      <g>
       <use xlink:href="#md3ee66dc0b" x="411.339865" y="461.94" style="fill: #1a1a1a; stroke: #1a1a1a; stroke-width: 0.8"/>
      </g>
     </g>
     <g id="text_8">
      <!-- K -->
      <g style="fill: #1a1a1a" transform="translate(407.405177 474.558125) scale(0.12 -0.12)">
       <defs>
        <path id="DejaVuSans-4b" d="M 628 4666 
L 1259 4666 
L 1259 2694 
L 3353 4666 
L 4166 4666 
L 1850 2491 
L 4331 0 
L 3500 0 
L 1259 2247 
L 1259 0 
L 628 0 
L 628 4666 
z
" transform="scale(0.015625)"/>
       </defs>
       <use xlink:href="#DejaVuSans-4b"/>
      </g>
     </g>
    </g>
    <g id="xtick_9">
     <g id="line2d_9">
      <g>
       <use xlink:href="#md3ee66dc0b" x="457.652919" y="461.94" style="fill: #1a1a1a; stroke: #1a1a1a; stroke-width: 0.8"/>
      </g>
     </g>
     <g id="text_9">
      <!-- N -->
      <g style="fill: #1a1a1a" transform="translate(453.164169 474.558125) scale(0.12 -0.12)">
       <defs>
        <path id="DejaVuSans-4e" d="M 628 4666 
L 1478 4666 
L 3547 763 
L 3547 4666 
L 4159 4666 
L 4159 0 
L 3309 0 
L 1241 3903 
L 1241 0 
L 628 0 
L 628 4666 
z
" transform="scale(0.015625)"/>
       </defs>
       <use xlink:href="#DejaVuSans-4e"/>
      </g>
     </g>
    </g>
    <g id="xtick_10">
     <g id="line2d_10">
      <g>
       <use xlink:href="#md3ee66dc0b" x="503.965973" y="461.94" style="fill: #1a1a1a; stroke: #1a1a1a; stroke-width: 0.8"/>
      </g>
     </g>
     <g id="text_10">
      <!-- Q -->
      <g style="fill: #1a1a1a" transform="translate(499.242848 474.558125) scale(0.12 -0.12)">
       <defs>
        <path id="DejaVuSans-51" d="M 2522 4238 
Q 1834 4238 1429 3725 
Q 1025 3213 1025 2328 
Q 1025 1447 1429 934 
Q 1834 422 2522 422 
Q 3209 422 3611 934 
Q 4013 1447 4013 2328 
Q 4013 3213 3611 3725 
Q 3209 4238 2522 4238 
z
M 3406 84 
L 4238 -825 
L 3475 -825 
L 2784 -78 
Q 2681 -84 2626 -87 
Q 2572 -91 2522 -91 
Q 1538 -91 948 567 
Q 359 1225 359 2328 
Q 359 3434 948 4092 
Q 1538 4750 2522 4750 
Q 3503 4750 4090 4092 
Q 4678 3434 4678 2328 
Q 4678 1516 4351 937 
Q 4025 359 3406 84 
z
" transform="scale(0.015625)"/>
       </defs>
       <use xlink:href="#DejaVuSans-51"/>
      </g>
     </g>
    </g>
    <g id="xtick_11">
     <g id="line2d_11">
      <g>
       <use xlink:href="#md3ee66dc0b" x="550.279027" y="461.94" style="fill: #1a1a1a; stroke: #1a1a1a; stroke-width: 0.8"/>
      </g>
     </g>
     <g id="text_11">
      <!-- Y -->
      <g style="fill: #1a1a1a" transform="translate(546.61434 474.558125) scale(0.12 -0.12)">
       <defs>
        <path id="DejaVuSans-59" d="M -13 4666 
L 666 4666 
L 1959 2747 
L 3244 4666 
L 3922 4666 
L 2272 2222 
L 2272 0 
L 1638 0 
L 1638 2222 
L -13 4666 
z
" transform="scale(0.015625)"/>
       </defs>
       <use xlink:href="#DejaVuSans-59"/>
      </g>
     </g>
    </g>
    <g id="xtick_12">
     <g id="line2d_12">
      <g>
       <use xlink:href="#md3ee66dc0b" x="596.592081" y="461.94" style="fill: #1a1a1a; stroke: #1a1a1a; stroke-width: 0.8"/>
      </g>
     </g>
     <g id="text_12">
      <!-- I -->
      <g style="fill: #1a1a1a" transform="translate(594.822081 474.558125) scale(0.12 -0.12)">
       <defs>
        <path id="DejaVuSans-49" d="M 628 4666 
L 1259 4666 
L 1259 0 
L 628 0 
L 628 4666 
z
" transform="scale(0.015625)"/>
       </defs>
       <use xlink:href="#DejaVuSans-49"/>
      </g>
     </g>
    </g>
    <g id="xtick_13">
     <g id="line2d_13">
      <g>
       <use xlink:href="#md3ee66dc0b" x="642.905135" y="461.94" style="fill: #1a1a1a; stroke: #1a1a1a; stroke-width: 0.8"/>
      </g>
     </g>
     <g id="text_13">
      <!-- A -->
      <g style="fill: #1a1a1a" transform="translate(638.80076 474.558125) scale(0.12 -0.12)">
       <defs>
        <path id="DejaVuSans-41" d="M 2188 4044 
L 1331 1722 
L 3047 1722 
L 2188 4044 
z
M 1831 4666 
L 2547 4666 
L 4325 0 
L 3669 0 
L 3244 1197 
L 1141 1197 
L 716 0 
L 50 0 
L 1831 4666 
z
" transform="scale(0.015625)"/>
       </defs>
       <use xlink:href="#DejaVuSans-41"/>
      </g>
     </g>
    </g>
    <g id="xtick_14">
     <g id="line2d_14">
      <g>
       <use xlink:href="#md3ee66dc0b" x="689.21819" y="461.94" style="fill: #1a1a1a; stroke: #1a1a1a; stroke-width: 0.8"/>
      </g>
     </g>
     <g id="text_14">
      <!-- G -->
      <g style="fill: #1a1a1a" transform="translate(684.569127 474.558125) scale(0.12 -0.12)">
       <defs>
        <path id="DejaVuSans-47" d="M 3809 666 
L 3809 1919 
L 2778 1919 
L 2778 2438 
L 4434 2438 
L 4434 434 
Q 4069 175 3628 42 
Q 3188 -91 2688 -91 
Q 1594 -91 976 548 
Q 359 1188 359 2328 
Q 359 3472 976 4111 
Q 1594 4750 2688 4750 
Q 3144 4750 3555 4637 
Q 3966 4525 4313 4306 
L 4313 3634 
Q 3963 3931 3569 4081 
Q 3175 4231 2741 4231 
Q 1884 4231 1454 3753 
Q 1025 3275 1025 2328 
Q 1025 1384 1454 906 
Q 1884 428 2741 428 
Q 3075 428 3337 486 
Q 3600 544 3809 666 
z
" transform="scale(0.015625)"/>
       </defs>
       <use xlink:href="#DejaVuSans-47"/>
      </g>
     </g>
    </g>
    <g id="xtick_15">
     <g id="line2d_15">
      <g>
       <use xlink:href="#md3ee66dc0b" x="735.531244" y="461.94" style="fill: #1a1a1a; stroke: #1a1a1a; stroke-width: 0.8"/>
      </g>
     </g>
     <g id="text_15">
      <!-- P -->
      <g style="fill: #1a1a1a" transform="translate(731.913431 474.558125) scale(0.12 -0.12)">
       <defs>
        <path id="DejaVuSans-50" d="M 1259 4147 
L 1259 2394 
L 2053 2394 
Q 2494 2394 2734 2622 
Q 2975 2850 2975 3272 
Q 2975 3691 2734 3919 
Q 2494 4147 2053 4147 
L 1259 4147 
z
M 628 4666 
L 2053 4666 
Q 2838 4666 3239 4311 
Q 3641 3956 3641 3272 
Q 3641 2581 3239 2228 
Q 2838 1875 2053 1875 
L 1259 1875 
L 1259 0 
L 628 0 
L 628 4666 
z
" transform="scale(0.015625)"/>
       </defs>
       <use xlink:href="#DejaVuSans-50"/>
      </g>
     </g>
    </g>
    <g id="xtick_16">
     <g id="line2d_16">
      <g>
       <use xlink:href="#md3ee66dc0b" x="781.844298" y="461.94" style="fill: #1a1a1a; stroke: #1a1a1a; stroke-width: 0.8"/>
      </g>
     </g>
     <g id="text_16">
      <!-- T -->
      <g style="fill: #1a1a1a" transform="translate(778.179611 474.558125) scale(0.12 -0.12)">
       <defs>
        <path id="DejaVuSans-54" d="M -19 4666 
L 3928 4666 
L 3928 4134 
L 2272 4134 
L 2272 0 
L 1638 0 
L 1638 4134 
L -19 4134 
L -19 4666 
z
" transform="scale(0.015625)"/>
       </defs>
       <use xlink:href="#DejaVuSans-54"/>
      </g>
     </g>
    </g>
    <g id="xtick_17">
     <g id="line2d_17">
      <g>
       <use xlink:href="#md3ee66dc0b" x="828.157352" y="461.94" style="fill: #1a1a1a; stroke: #1a1a1a; stroke-width: 0.8"/>
      </g>
     </g>
     <g id="text_17">
      <!-- V -->
      <g style="fill: #1a1a1a" transform="translate(824.052977 474.558125) scale(0.12 -0.12)">
       <defs>
        <path id="DejaVuSans-56" d="M 1831 0 
L 50 4666 
L 709 4666 
L 2188 738 
L 3669 4666 
L 4325 4666 
L 2547 0 
L 1831 0 
z
" transform="scale(0.015625)"/>
       </defs>
       <use xlink:href="#DejaVuSans-56"/>
      </g>
     </g>
    </g>
    <g id="xtick_18">
     <g id="line2d_18">
      <g>
       <use xlink:href="#md3ee66dc0b" x="874.470406" y="461.94" style="fill: #1a1a1a; stroke: #1a1a1a; stroke-width: 0.8"/>
      </g>
     </g>
     <g id="text_18">
      <!-- L -->
      <g style="fill: #1a1a1a" transform="translate(871.127281 474.558125) scale(0.12 -0.12)">
       <defs>
        <path id="DejaVuSans-4c" d="M 628 4666 
L 1259 4666 
L 1259 531 
L 3531 531 
L 3531 0 
L 628 0 
L 628 4666 
z
" transform="scale(0.015625)"/>
       </defs>
       <use xlink:href="#DejaVuSans-4c"/>
      </g>
     </g>
    </g>
    <g id="xtick_19">
     <g id="line2d_19">
      <g>
       <use xlink:href="#md3ee66dc0b" x="920.783461" y="461.94" style="fill: #1a1a1a; stroke: #1a1a1a; stroke-width: 0.8"/>
      </g>
     </g>
     <g id="text_19">
      <!-- R -->
      <g style="fill: #1a1a1a" transform="translate(916.614398 474.558125) scale(0.12 -0.12)">
       <defs>
        <path id="DejaVuSans-52" d="M 2841 2188 
Q 3044 2119 3236 1894 
Q 3428 1669 3622 1275 
L 4263 0 
L 3584 0 
L 2988 1197 
Q 2756 1666 2539 1819 
Q 2322 1972 1947 1972 
L 1259 1972 
L 1259 0 
L 628 0 
L 628 4666 
L 2053 4666 
Q 2853 4666 3247 4331 
Q 3641 3997 3641 3322 
Q 3641 2881 3436 2590 
Q 3231 2300 2841 2188 
z
M 1259 4147 
L 1259 2491 
L 2053 2491 
Q 2509 2491 2742 2702 
Q 2975 2913 2975 3322 
Q 2975 3731 2742 3939 
Q 2509 4147 2053 4147 
L 1259 4147 
z
" transform="scale(0.015625)"/>
       </defs>
       <use xlink:href="#DejaVuSans-52"/>
      </g>
     </g>
    </g>
    <g id="xtick_20">
     <g id="line2d_20">
      <g>
       <use xlink:href="#md3ee66dc0b" x="967.096515" y="461.94" style="fill: #1a1a1a; stroke: #1a1a1a; stroke-width: 0.8"/>
      </g>
     </g>
     <g id="text_20">
      <!-- S -->
      <g style="fill: #1a1a1a" transform="translate(963.287452 474.558125) scale(0.12 -0.12)">
       <defs>
        <path id="DejaVuSans-53" d="M 3425 4513 
L 3425 3897 
Q 3066 4069 2747 4153 
Q 2428 4238 2131 4238 
Q 1616 4238 1336 4038 
Q 1056 3838 1056 3469 
Q 1056 3159 1242 3001 
Q 1428 2844 1947 2747 
L 2328 2669 
Q 3034 2534 3370 2195 
Q 3706 1856 3706 1288 
Q 3706 609 3251 259 
Q 2797 -91 1919 -91 
Q 1588 -91 1214 -16 
Q 841 59 441 206 
L 441 856 
Q 825 641 1194 531 
Q 1563 422 1919 422 
Q 2459 422 2753 634 
Q 3047 847 3047 1241 
Q 3047 1584 2836 1778 
Q 2625 1972 2144 2069 
L 1759 2144 
Q 1053 2284 737 2584 
Q 422 2884 422 3419 
Q 422 4038 858 4394 
Q 1294 4750 2059 4750 
Q 2388 4750 2728 4690 
Q 3069 4631 3425 4513 
z
" transform="scale(0.015625)"/>
       </defs>
       <use xlink:href="#DejaVuSans-53"/>
      </g>
     </g>
    </g>
    <g id="text_21">
     <!-- Amino acids -->
     <g style="fill: #1a1a1a" transform="translate(490.54875 490.171875) scale(0.12 -0.12)">
      <defs>
       <path id="DejaVuSans-6d" d="M 3328 2828 
Q 3544 3216 3844 3400 
Q 4144 3584 4550 3584 
Q 5097 3584 5394 3201 
Q 5691 2819 5691 2113 
L 5691 0 
L 5113 0 
L 5113 2094 
Q 5113 2597 4934 2840 
Q 4756 3084 4391 3084 
Q 3944 3084 3684 2787 
Q 3425 2491 3425 1978 
L 3425 0 
L 2847 0 
L 2847 2094 
Q 2847 2600 2669 2842 
Q 2491 3084 2119 3084 
Q 1678 3084 1418 2786 
Q 1159 2488 1159 1978 
L 1159 0 
L 581 0 
L 581 3500 
L 1159 3500 
L 1159 2956 
Q 1356 3278 1631 3431 
Q 1906 3584 2284 3584 
Q 2666 3584 2933 3390 
Q 3200 3197 3328 2828 
z
" transform="scale(0.015625)"/>
       <path id="DejaVuSans-69" d="M 603 3500 
L 1178 3500 
L 1178 0 
L 603 0 
L 603 3500 
z
M 603 4863 
L 1178 4863 
L 1178 4134 
L 603 4134 
L 603 4863 
z
" transform="scale(0.015625)"/>
       <path id="DejaVuSans-6e" d="M 3513 2113 
L 3513 0 
L 2938 0 
L 2938 2094 
Q 2938 2591 2744 2837 
Q 2550 3084 2163 3084 
Q 1697 3084 1428 2787 
Q 1159 2491 1159 1978 
L 1159 0 
L 581 0 
L 581 3500 
L 1159 3500 
L 1159 2956 
Q 1366 3272 1645 3428 
Q 1925 3584 2291 3584 
Q 2894 3584 3203 3211 
Q 3513 2838 3513 2113 
z
" transform="scale(0.015625)"/>
       <path id="DejaVuSans-6f" d="M 1959 3097 
Q 1497 3097 1228 2736 
Q 959 2375 959 1747 
Q 959 1119 1226 758 
Q 1494 397 1959 397 
Q 2419 397 2687 759 
Q 2956 1122 2956 1747 
Q 2956 2369 2687 2733 
Q 2419 3097 1959 3097 
z
M 1959 3584 
Q 2709 3584 3137 3096 
Q 3566 2609 3566 1747 
Q 3566 888 3137 398 
Q 2709 -91 1959 -91 
Q 1206 -91 779 398 
Q 353 888 353 1747 
Q 353 2609 779 3096 
Q 1206 3584 1959 3584 
z
" transform="scale(0.015625)"/>
       <path id="DejaVuSans-20" transform="scale(0.015625)"/>
       <path id="DejaVuSans-61" d="M 2194 1759 
Q 1497 1759 1228 1600 
Q 959 1441 959 1056 
Q 959 750 1161 570 
Q 1363 391 1709 391 
Q 2188 391 2477 730 
Q 2766 1069 2766 1631 
L 2766 1759 
L 2194 1759 
z
M 3341 1997 
L 3341 0 
L 2766 0 
L 2766 531 
Q 2569 213 2275 61 
Q 1981 -91 1556 -91 
Q 1019 -91 701 211 
Q 384 513 384 1019 
Q 384 1609 779 1909 
Q 1175 2209 1959 2209 
L 2766 2209 
L 2766 2266 
Q 2766 2663 2505 2880 
Q 2244 3097 1772 3097 
Q 1472 3097 1187 3025 
Q 903 2953 641 2809 
L 641 3341 
Q 956 3463 1253 3523 
Q 1550 3584 1831 3584 
Q 2591 3584 2966 3190 
Q 3341 2797 3341 1997 
z
" transform="scale(0.015625)"/>
       <path id="DejaVuSans-63" d="M 3122 3366 
L 3122 2828 
Q 2878 2963 2633 3030 
Q 2388 3097 2138 3097 
Q 1578 3097 1268 2742 
Q 959 2388 959 1747 
Q 959 1106 1268 751 
Q 1578 397 2138 397 
Q 2388 397 2633 464 
Q 2878 531 3122 666 
L 3122 134 
Q 2881 22 2623 -34 
Q 2366 -91 2075 -91 
Q 1284 -91 818 406 
Q 353 903 353 1747 
Q 353 2603 823 3093 
Q 1294 3584 2113 3584 
Q 2378 3584 2631 3529 
Q 2884 3475 3122 3366 
z
" transform="scale(0.015625)"/>
       <path id="DejaVuSans-64" d="M 2906 2969 
L 2906 4863 
L 3481 4863 
L 3481 0 
L 2906 0 
L 2906 525 
Q 2725 213 2448 61 
Q 2172 -91 1784 -91 
Q 1150 -91 751 415 
Q 353 922 353 1747 
Q 353 2572 751 3078 
Q 1150 3584 1784 3584 
Q 2172 3584 2448 3432 
Q 2725 3281 2906 2969 
z
M 947 1747 
Q 947 1113 1208 752 
Q 1469 391 1925 391 
Q 2381 391 2643 752 
Q 2906 1113 2906 1747 
Q 2906 2381 2643 2742 
Q 2381 3103 1925 3103 
Q 1469 3103 1208 2742 
Q 947 2381 947 1747 
z
" transform="scale(0.015625)"/>
       <path id="DejaVuSans-73" d="M 2834 3397 
L 2834 2853 
Q 2591 2978 2328 3040 
Q 2066 3103 1784 3103 
Q 1356 3103 1142 2972 
Q 928 2841 928 2578 
Q 928 2378 1081 2264 
Q 1234 2150 1697 2047 
L 1894 2003 
Q 2506 1872 2764 1633 
Q 3022 1394 3022 966 
Q 3022 478 2636 193 
Q 2250 -91 1575 -91 
Q 1294 -91 989 -36 
Q 684 19 347 128 
L 347 722 
Q 666 556 975 473 
Q 1284 391 1588 391 
Q 1994 391 2212 530 
Q 2431 669 2431 922 
Q 2431 1156 2273 1281 
Q 2116 1406 1581 1522 
L 1381 1569 
Q 847 1681 609 1914 
Q 372 2147 372 2553 
Q 372 3047 722 3315 
Q 1072 3584 1716 3584 
Q 2034 3584 2315 3537 
Q 2597 3491 2834 3397 
z
" transform="scale(0.015625)"/>
      </defs>
      <use xlink:href="#DejaVuSans-41"/>
      <use xlink:href="#DejaVuSans-6d" x="68.408203"/>
      <use xlink:href="#DejaVuSans-69" x="165.820312"/>
      <use xlink:href="#DejaVuSans-6e" x="193.603516"/>
      <use xlink:href="#DejaVuSans-6f" x="256.982422"/>
      <use xlink:href="#DejaVuSans-20" x="318.164062"/>
      <use xlink:href="#DejaVuSans-61" x="349.951172"/>
      <use xlink:href="#DejaVuSans-63" x="411.230469"/>
      <use xlink:href="#DejaVuSans-69" x="466.210938"/>
      <use xlink:href="#DejaVuSans-64" x="493.994141"/>
      <use xlink:href="#DejaVuSans-73" x="557.470703"/>
     </g>
    </g>
   </g>
   <g id="matplotlib.axis_2">
    <g id="ytick_1">
     <g id="line2d_21">
      <defs>
       <path id="m2131910c23" d="M 0 0 
L 3.5 0 
" style="stroke: #1a1a1a; stroke-width: 0.8"/>
      </defs>
      <g>
       <use xlink:href="#m2131910c23" x="57.045" y="461.94" style="fill: #1a1a1a; stroke: #1a1a1a; stroke-width: 0.8"/>
      </g>
     </g>
     <g id="text_22">
      <!-- 0.00 -->
      <g style="fill: #1a1a1a" transform="translate(26.82625 466.499063) scale(0.12 -0.12)">
       <defs>
        <path id="DejaVuSans-30" d="M 2034 4250 
Q 1547 4250 1301 3770 
Q 1056 3291 1056 2328 
Q 1056 1369 1301 889 
Q 1547 409 2034 409 
Q 2525 409 2770 889 
Q 3016 1369 3016 2328 
Q 3016 3291 2770 3770 
Q 2525 4250 2034 4250 
z
M 2034 4750 
Q 2819 4750 3233 4129 
Q 3647 3509 3647 2328 
Q 3647 1150 3233 529 
Q 2819 -91 2034 -91 
Q 1250 -91 836 529 
Q 422 1150 422 2328 
Q 422 3509 836 4129 
Q 1250 4750 2034 4750 
z
" transform="scale(0.015625)"/>
        <path id="DejaVuSans-2e" d="M 684 794 
L 1344 794 
L 1344 0 
L 684 0 
L 684 794 
z
" transform="scale(0.015625)"/>
       </defs>
       <use xlink:href="#DejaVuSans-30"/>
       <use xlink:href="#DejaVuSans-2e" x="63.623047"/>
       <use xlink:href="#DejaVuSans-30" x="95.410156"/>
       <use xlink:href="#DejaVuSans-30" x="159.033203"/>
      </g>
     </g>
    </g>
    <g id="ytick_2">
     <g id="line2d_22">
      <g>
       <use xlink:href="#m2131910c23" x="57.045" y="397.997277" style="fill: #1a1a1a; stroke: #1a1a1a; stroke-width: 0.8"/>
      </g>
     </g>
     <g id="text_23">
      <!-- 0.02 -->
      <g style="fill: #1a1a1a" transform="translate(26.82625 402.55634) scale(0.12 -0.12)">
       <defs>
        <path id="DejaVuSans-32" d="M 1228 531 
L 3431 531 
L 3431 0 
L 469 0 
L 469 531 
Q 828 903 1448 1529 
Q 2069 2156 2228 2338 
Q 2531 2678 2651 2914 
Q 2772 3150 2772 3378 
Q 2772 3750 2511 3984 
Q 2250 4219 1831 4219 
Q 1534 4219 1204 4116 
Q 875 4013 500 3803 
L 500 4441 
Q 881 4594 1212 4672 
Q 1544 4750 1819 4750 
Q 2544 4750 2975 4387 
Q 3406 4025 3406 3419 
Q 3406 3131 3298 2873 
Q 3191 2616 2906 2266 
Q 2828 2175 2409 1742 
Q 1991 1309 1228 531 
z
" transform="scale(0.015625)"/>
       </defs>
       <use xlink:href="#DejaVuSans-30"/>
       <use xlink:href="#DejaVuSans-2e" x="63.623047"/>
       <use xlink:href="#DejaVuSans-30" x="95.410156"/>
       <use xlink:href="#DejaVuSans-32" x="159.033203"/>
      </g>
     </g>
    </g>
    <g id="ytick_3">
     <g id="line2d_23">
      <g>
       <use xlink:href="#m2131910c23" x="57.045" y="334.054554" style="fill: #1a1a1a; stroke: #1a1a1a; stroke-width: 0.8"/>
      </g>
     </g>
     <g id="text_24">
      <!-- 0.04 -->
      <g style="fill: #1a1a1a" transform="translate(26.82625 338.613617) scale(0.12 -0.12)">
       <defs>
        <path id="DejaVuSans-34" d="M 2419 4116 
L 825 1625 
L 2419 1625 
L 2419 4116 
z
M 2253 4666 
L 3047 4666 
L 3047 1625 
L 3713 1625 
L 3713 1100 
L 3047 1100 
L 3047 0 
L 2419 0 
L 2419 1100 
L 313 1100 
L 313 1709 
L 2253 4666 
z
" transform="scale(0.015625)"/>
       </defs>
       <use xlink:href="#DejaVuSans-30"/>
       <use xlink:href="#DejaVuSans-2e" x="63.623047"/>
       <use xlink:href="#DejaVuSans-30" x="95.410156"/>
       <use xlink:href="#DejaVuSans-34" x="159.033203"/>
      </g>
     </g>
    </g>
    <g id="ytick_4">
     <g id="line2d_24">
      <g>
       <use xlink:href="#m2131910c23" x="57.045" y="270.111832" style="fill: #1a1a1a; stroke: #1a1a1a; stroke-width: 0.8"/>
      </g>
     </g>
     <g id="text_25">
      <!-- 0.06 -->
      <g style="fill: #1a1a1a" transform="translate(26.82625 274.670894) scale(0.12 -0.12)">
       <defs>
        <path id="DejaVuSans-36" d="M 2113 2584 
Q 1688 2584 1439 2293 
Q 1191 2003 1191 1497 
Q 1191 994 1439 701 
Q 1688 409 2113 409 
Q 2538 409 2786 701 
Q 3034 994 3034 1497 
Q 3034 2003 2786 2293 
Q 2538 2584 2113 2584 
z
M 3366 4563 
L 3366 3988 
Q 3128 4100 2886 4159 
Q 2644 4219 2406 4219 
Q 1781 4219 1451 3797 
Q 1122 3375 1075 2522 
Q 1259 2794 1537 2939 
Q 1816 3084 2150 3084 
Q 2853 3084 3261 2657 
Q 3669 2231 3669 1497 
Q 3669 778 3244 343 
Q 2819 -91 2113 -91 
Q 1303 -91 875 529 
Q 447 1150 447 2328 
Q 447 3434 972 4092 
Q 1497 4750 2381 4750 
Q 2619 4750 2861 4703 
Q 3103 4656 3366 4563 
z
" transform="scale(0.015625)"/>
       </defs>
       <use xlink:href="#DejaVuSans-30"/>
       <use xlink:href="#DejaVuSans-2e" x="63.623047"/>
       <use xlink:href="#DejaVuSans-30" x="95.410156"/>
       <use xlink:href="#DejaVuSans-36" x="159.033203"/>
      </g>
     </g>
    </g>
    <g id="ytick_5">
     <g id="line2d_25">
      <g>
       <use xlink:href="#m2131910c23" x="57.045" y="206.169109" style="fill: #1a1a1a; stroke: #1a1a1a; stroke-width: 0.8"/>
      </g>
     </g>
     <g id="text_26">
      <!-- 0.08 -->
      <g style="fill: #1a1a1a" transform="translate(26.82625 210.728171) scale(0.12 -0.12)">
       <defs>
        <path id="DejaVuSans-38" d="M 2034 2216 
Q 1584 2216 1326 1975 
Q 1069 1734 1069 1313 
Q 1069 891 1326 650 
Q 1584 409 2034 409 
Q 2484 409 2743 651 
Q 3003 894 3003 1313 
Q 3003 1734 2745 1975 
Q 2488 2216 2034 2216 
z
M 1403 2484 
Q 997 2584 770 2862 
Q 544 3141 544 3541 
Q 544 4100 942 4425 
Q 1341 4750 2034 4750 
Q 2731 4750 3128 4425 
Q 3525 4100 3525 3541 
Q 3525 3141 3298 2862 
Q 3072 2584 2669 2484 
Q 3125 2378 3379 2068 
Q 3634 1759 3634 1313 
Q 3634 634 3220 271 
Q 2806 -91 2034 -91 
Q 1263 -91 848 271 
Q 434 634 434 1313 
Q 434 1759 690 2068 
Q 947 2378 1403 2484 
z
M 1172 3481 
Q 1172 3119 1398 2916 
Q 1625 2713 2034 2713 
Q 2441 2713 2670 2916 
Q 2900 3119 2900 3481 
Q 2900 3844 2670 4047 
Q 2441 4250 2034 4250 
Q 1625 4250 1398 4047 
Q 1172 3844 1172 3481 
z
" transform="scale(0.015625)"/>
       </defs>
       <use xlink:href="#DejaVuSans-30"/>
       <use xlink:href="#DejaVuSans-2e" x="63.623047"/>
       <use xlink:href="#DejaVuSans-30" x="95.410156"/>
       <use xlink:href="#DejaVuSans-38" x="159.033203"/>
      </g>
     </g>
    </g>
    <g id="ytick_6">
     <g id="line2d_26">
      <g>
       <use xlink:href="#m2131910c23" x="57.045" y="142.226386" style="fill: #1a1a1a; stroke: #1a1a1a; stroke-width: 0.8"/>
      </g>
     </g>
     <g id="text_27">
      <!-- 0.10 -->
      <g style="fill: #1a1a1a" transform="translate(26.82625 146.785449) scale(0.12 -0.12)">
       <defs>
        <path id="DejaVuSans-31" d="M 794 531 
L 1825 531 
L 1825 4091 
L 703 3866 
L 703 4441 
L 1819 4666 
L 2450 4666 
L 2450 531 
L 3481 531 
L 3481 0 
L 794 0 
L 794 531 
z
" transform="scale(0.015625)"/>
       </defs>
       <use xlink:href="#DejaVuSans-30"/>
       <use xlink:href="#DejaVuSans-2e" x="63.623047"/>
       <use xlink:href="#DejaVuSans-31" x="95.410156"/>
       <use xlink:href="#DejaVuSans-30" x="159.033203"/>
      </g>
     </g>
    </g>
    <g id="ytick_7">
     <g id="line2d_27">
      <g>
       <use xlink:href="#m2131910c23" x="57.045" y="78.283663" style="fill: #1a1a1a; stroke: #1a1a1a; stroke-width: 0.8"/>
      </g>
     </g>
     <g id="text_28">
      <!-- 0.12 -->
      <g style="fill: #1a1a1a" transform="translate(26.82625 82.842726) scale(0.12 -0.12)">
       <use xlink:href="#DejaVuSans-30"/>
       <use xlink:href="#DejaVuSans-2e" x="63.623047"/>
       <use xlink:href="#DejaVuSans-31" x="95.410156"/>
       <use xlink:href="#DejaVuSans-32" x="159.033203"/>
      </g>
     </g>
    </g>
    <g id="text_29">
     <!-- Mean distribution -->
     <g style="fill: #1a1a1a" transform="translate(20.330625 297.936563) rotate(-90) scale(0.12 -0.12)">
      <defs>
       <path id="DejaVuSans-65" d="M 3597 1894 
L 3597 1613 
L 953 1613 
Q 991 1019 1311 708 
Q 1631 397 2203 397 
Q 2534 397 2845 478 
Q 3156 559 3463 722 
L 3463 178 
Q 3153 47 2828 -22 
Q 2503 -91 2169 -91 
Q 1331 -91 842 396 
Q 353 884 353 1716 
Q 353 2575 817 3079 
Q 1281 3584 2069 3584 
Q 2775 3584 3186 3129 
Q 3597 2675 3597 1894 
z
M 3022 2063 
Q 3016 2534 2758 2815 
Q 2500 3097 2075 3097 
Q 1594 3097 1305 2825 
Q 1016 2553 972 2059 
L 3022 2063 
z
" transform="scale(0.015625)"/>
       <path id="DejaVuSans-74" d="M 1172 4494 
L 1172 3500 
L 2356 3500 
L 2356 3053 
L 1172 3053 
L 1172 1153 
Q 1172 725 1289 603 
Q 1406 481 1766 481 
L 2356 481 
L 2356 0 
L 1766 0 
Q 1100 0 847 248 
Q 594 497 594 1153 
L 594 3053 
L 172 3053 
L 172 3500 
L 594 3500 
L 594 4494 
L 1172 4494 
z
" transform="scale(0.015625)"/>
       <path id="DejaVuSans-72" d="M 2631 2963 
Q 2534 3019 2420 3045 
Q 2306 3072 2169 3072 
Q 1681 3072 1420 2755 
Q 1159 2438 1159 1844 
L 1159 0 
L 581 0 
L 581 3500 
L 1159 3500 
L 1159 2956 
Q 1341 3275 1631 3429 
Q 1922 3584 2338 3584 
Q 2397 3584 2469 3576 
Q 2541 3569 2628 3553 
L 2631 2963 
z
" transform="scale(0.015625)"/>
       <path id="DejaVuSans-62" d="M 3116 1747 
Q 3116 2381 2855 2742 
Q 2594 3103 2138 3103 
Q 1681 3103 1420 2742 
Q 1159 2381 1159 1747 
Q 1159 1113 1420 752 
Q 1681 391 2138 391 
Q 2594 391 2855 752 
Q 3116 1113 3116 1747 
z
M 1159 2969 
Q 1341 3281 1617 3432 
Q 1894 3584 2278 3584 
Q 2916 3584 3314 3078 
Q 3713 2572 3713 1747 
Q 3713 922 3314 415 
Q 2916 -91 2278 -91 
Q 1894 -91 1617 61 
Q 1341 213 1159 525 
L 1159 0 
L 581 0 
L 581 4863 
L 1159 4863 
L 1159 2969 
z
" transform="scale(0.015625)"/>
       <path id="DejaVuSans-75" d="M 544 1381 
L 544 3500 
L 1119 3500 
L 1119 1403 
Q 1119 906 1312 657 
Q 1506 409 1894 409 
Q 2359 409 2629 706 
Q 2900 1003 2900 1516 
L 2900 3500 
L 3475 3500 
L 3475 0 
L 2900 0 
L 2900 538 
Q 2691 219 2414 64 
Q 2138 -91 1772 -91 
Q 1169 -91 856 284 
Q 544 659 544 1381 
z
M 1991 3584 
L 1991 3584 
z
" transform="scale(0.015625)"/>
      </defs>
      <use xlink:href="#DejaVuSans-4d"/>
      <use xlink:href="#DejaVuSans-65" x="86.279297"/>
      <use xlink:href="#DejaVuSans-61" x="147.802734"/>
      <use xlink:href="#DejaVuSans-6e" x="209.082031"/>
      <use xlink:href="#DejaVuSans-20" x="272.460938"/>
      <use xlink:href="#DejaVuSans-64" x="304.248047"/>
      <use xlink:href="#DejaVuSans-69" x="367.724609"/>
      <use xlink:href="#DejaVuSans-73" x="395.507812"/>
      <use xlink:href="#DejaVuSans-74" x="447.607422"/>
      <use xlink:href="#DejaVuSans-72" x="486.816406"/>
      <use xlink:href="#DejaVuSans-69" x="527.929688"/>
      <use xlink:href="#DejaVuSans-62" x="555.712891"/>
      <use xlink:href="#DejaVuSans-75" x="619.189453"/>
      <use xlink:href="#DejaVuSans-74" x="682.568359"/>
      <use xlink:href="#DejaVuSans-69" x="721.777344"/>
      <use xlink:href="#DejaVuSans-6f" x="749.560547"/>
      <use xlink:href="#DejaVuSans-6e" x="810.742188"/>
     </g>
    </g>
   </g>
   <g id="LineCollection_1">
    <path d="M 73.254569 401.127573 
L 73.254569 368.676843 
" clip-path="url(#pfc59b9026a)" style="fill: none; stroke: #1a1a1a"/>
    <path d="M 119.567623 432.374667 
L 119.567623 421.776849 
" clip-path="url(#pfc59b9026a)" style="fill: none; stroke: #1a1a1a"/>
    <path d="M 165.880677 437.637847 
L 165.880677 413.736383 
" clip-path="url(#pfc59b9026a)" style="fill: none; stroke: #1a1a1a"/>
    <path d="M 212.193732 315.08635 
L 212.193732 216.031184 
" clip-path="url(#pfc59b9026a)" style="fill: none; stroke: #1a1a1a"/>
    <path d="M 258.506786 237.738757 
L 258.506786 173.660823 
" clip-path="url(#pfc59b9026a)" style="fill: none; stroke: #1a1a1a"/>
    <path d="M 304.81984 362.220299 
L 304.81984 329.710601 
" clip-path="url(#pfc59b9026a)" style="fill: none; stroke: #1a1a1a"/>
    <path d="M 351.132894 415.018026 
L 351.132894 398.16196 
" clip-path="url(#pfc59b9026a)" style="fill: none; stroke: #1a1a1a"/>
    <path d="M 397.445948 361.496406 
L 397.445948 187.44407 
" clip-path="url(#pfc59b9026a)" style="fill: none; stroke: #1a1a1a"/>
    <path d="M 443.759002 389.152739 
L 443.759002 311.791685 
" clip-path="url(#pfc59b9026a)" style="fill: none; stroke: #1a1a1a"/>
    <path d="M 490.072057 408.355069 
L 490.072057 377.286695 
" clip-path="url(#pfc59b9026a)" style="fill: none; stroke: #1a1a1a"/>
    <path d="M 536.385111 370.779491 
L 536.385111 326.424431 
" clip-path="url(#pfc59b9026a)" style="fill: none; stroke: #1a1a1a"/>
    <path d="M 582.698165 296.681513 
L 582.698165 159.195303 
" clip-path="url(#pfc59b9026a)" style="fill: none; stroke: #1a1a1a"/>
    <path d="M 629.011219 277.542885 
L 629.011219 147.742298 
" clip-path="url(#pfc59b9026a)" style="fill: none; stroke: #1a1a1a"/>
    <path d="M 675.324273 251.126075 
L 675.324273 196.488401 
" clip-path="url(#pfc59b9026a)" style="fill: none; stroke: #1a1a1a"/>
    <path d="M 721.637328 344.910825 
L 721.637328 309.969055 
" clip-path="url(#pfc59b9026a)" style="fill: none; stroke: #1a1a1a"/>
    <path d="M 767.950382 333.295846 
L 767.950382 271.051155 
" clip-path="url(#pfc59b9026a)" style="fill: none; stroke: #1a1a1a"/>
    <path d="M 814.263436 240.160477 
L 814.263436 171.898806 
" clip-path="url(#pfc59b9026a)" style="fill: none; stroke: #1a1a1a"/>
    <path d="M 860.57649 191.523426 
L 860.57649 130.615769 
" clip-path="url(#pfc59b9026a)" style="fill: none; stroke: #1a1a1a"/>
    <path d="M 906.889544 324.274054 
L 906.889544 233.932705 
" clip-path="url(#pfc59b9026a)" style="fill: none; stroke: #1a1a1a"/>
    <path d="M 953.202599 298.426073 
L 953.202599 248.804311 
" clip-path="url(#pfc59b9026a)" style="fill: none; stroke: #1a1a1a"/>
   </g>
   <g id="line2d_28">
    <defs>
     <path id="m9cc97e4739" d="M 3 0 
L -3 -0 
"/>
    </defs>
    <g clip-path="url(#pfc59b9026a)">
     <use xlink:href="#m9cc97e4739" x="73.254569" y="401.127573" style="fill: #1a1a1a"/>
     <use xlink:href="#m9cc97e4739" x="119.567623" y="432.374667" style="fill: #1a1a1a"/>
     <use xlink:href="#m9cc97e4739" x="165.880677" y="437.637847" style="fill: #1a1a1a"/>
     <use xlink:href="#m9cc97e4739" x="212.193732" y="315.08635" style="fill: #1a1a1a"/>
     <use xlink:href="#m9cc97e4739" x="258.506786" y="237.738757" style="fill: #1a1a1a"/>
     <use xlink:href="#m9cc97e4739" x="304.81984" y="362.220299" style="fill: #1a1a1a"/>
     <use xlink:href="#m9cc97e4739" x="351.132894" y="415.018026" style="fill: #1a1a1a"/>
     <use xlink:href="#m9cc97e4739" x="397.445948" y="361.496406" style="fill: #1a1a1a"/>
     <use xlink:href="#m9cc97e4739" x="443.759002" y="389.152739" style="fill: #1a1a1a"/>
     <use xlink:href="#m9cc97e4739" x="490.072057" y="408.355069" style="fill: #1a1a1a"/>
     <use xlink:href="#m9cc97e4739" x="536.385111" y="370.779491" style="fill: #1a1a1a"/>
     <use xlink:href="#m9cc97e4739" x="582.698165" y="296.681513" style="fill: #1a1a1a"/>
     <use xlink:href="#m9cc97e4739" x="629.011219" y="277.542885" style="fill: #1a1a1a"/>
     <use xlink:href="#m9cc97e4739" x="675.324273" y="251.126075" style="fill: #1a1a1a"/>
     <use xlink:href="#m9cc97e4739" x="721.637328" y="344.910825" style="fill: #1a1a1a"/>
     <use xlink:href="#m9cc97e4739" x="767.950382" y="333.295846" style="fill: #1a1a1a"/>
     <use xlink:href="#m9cc97e4739" x="814.263436" y="240.160477" style="fill: #1a1a1a"/>
     <use xlink:href="#m9cc97e4739" x="860.57649" y="191.523426" style="fill: #1a1a1a"/>
     <use xlink:href="#m9cc97e4739" x="906.889544" y="324.274054" style="fill: #1a1a1a"/>
     <use xlink:href="#m9cc97e4739" x="953.202599" y="298.426073" style="fill: #1a1a1a"/>
    </g>
   </g>
   <g id="line2d_29">
    <g clip-path="url(#pfc59b9026a)">
     <use xlink:href="#m9cc97e4739" x="73.254569" y="368.676843" style="fill: #1a1a1a"/>
     <use xlink:href="#m9cc97e4739" x="119.567623" y="421.776849" style="fill: #1a1a1a"/>
     <use xlink:href="#m9cc97e4739" x="165.880677" y="413.736383" style="fill: #1a1a1a"/>
     <use xlink:href="#m9cc97e4739" x="212.193732" y="216.031184" style="fill: #1a1a1a"/>
     <use xlink:href="#m9cc97e4739" x="258.506786" y="173.660823" style="fill: #1a1a1a"/>
     <use xlink:href="#m9cc97e4739" x="304.81984" y="329.710601" style="fill: #1a1a1a"/>
     <use xlink:href="#m9cc97e4739" x="351.132894" y="398.16196" style="fill: #1a1a1a"/>
     <use xlink:href="#m9cc97e4739" x="397.445948" y="187.44407" style="fill: #1a1a1a"/>
     <use xlink:href="#m9cc97e4739" x="443.759002" y="311.791685" style="fill: #1a1a1a"/>
     <use xlink:href="#m9cc97e4739" x="490.072057" y="377.286695" style="fill: #1a1a1a"/>
     <use xlink:href="#m9cc97e4739" x="536.385111" y="326.424431" style="fill: #1a1a1a"/>
     <use xlink:href="#m9cc97e4739" x="582.698165" y="159.195303" style="fill: #1a1a1a"/>
     <use xlink:href="#m9cc97e4739" x="629.011219" y="147.742298" style="fill: #1a1a1a"/>
     <use xlink:href="#m9cc97e4739" x="675.324273" y="196.488401" style="fill: #1a1a1a"/>
     <use xlink:href="#m9cc97e4739" x="721.637328" y="309.969055" style="fill: #1a1a1a"/>
     <use xlink:href="#m9cc97e4739" x="767.950382" y="271.051155" style="fill: #1a1a1a"/>
     <use xlink:href="#m9cc97e4739" x="814.263436" y="171.898806" style="fill: #1a1a1a"/>
     <use xlink:href="#m9cc97e4739" x="860.57649" y="130.615769" style="fill: #1a1a1a"/>
     <use xlink:href="#m9cc97e4739" x="906.889544" y="233.932705" style="fill: #1a1a1a"/>
     <use xlink:href="#m9cc97e4739" x="953.202599" y="248.804311" style="fill: #1a1a1a"/>
    </g>
   </g>
   <g id="LineCollection_2">
    <path d="M 82.51718 399.444639 
L 82.51718 373.114804 
" clip-path="url(#pfc59b9026a)" style="fill: none; stroke: #1a1a1a"/>
    <path d="M 128.830234 428.729952 
L 128.830234 412.806537 
" clip-path="url(#pfc59b9026a)" style="fill: none; stroke: #1a1a1a"/>
    <path d="M 175.143288 435.552671 
L 175.143288 417.897127 
" clip-path="url(#pfc59b9026a)" style="fill: none; stroke: #1a1a1a"/>
    <path d="M 221.456342 301.153458 
L 221.456342 264.591304 
" clip-path="url(#pfc59b9026a)" style="fill: none; stroke: #1a1a1a"/>
    <path d="M 267.769397 288.251243 
L 267.769397 228.567101 
" clip-path="url(#pfc59b9026a)" style="fill: none; stroke: #1a1a1a"/>
    <path d="M 314.082451 364.783441 
L 314.082451 315.660252 
" clip-path="url(#pfc59b9026a)" style="fill: none; stroke: #1a1a1a"/>
    <path d="M 360.395505 403.749903 
L 360.395505 384.306058 
" clip-path="url(#pfc59b9026a)" style="fill: none; stroke: #1a1a1a"/>
    <path d="M 406.708559 393.374697 
L 406.708559 219.458152 
" clip-path="url(#pfc59b9026a)" style="fill: none; stroke: #1a1a1a"/>
    <path d="M 453.021613 398.963252 
L 453.021613 299.820935 
" clip-path="url(#pfc59b9026a)" style="fill: none; stroke: #1a1a1a"/>
    <path d="M 499.334667 376.316056 
L 499.334667 324.020251 
" clip-path="url(#pfc59b9026a)" style="fill: none; stroke: #1a1a1a"/>
    <path d="M 545.647722 395.644174 
L 545.647722 345.870723 
" clip-path="url(#pfc59b9026a)" style="fill: none; stroke: #1a1a1a"/>
    <path d="M 591.960776 336.805397 
L 591.960776 200.424206 
" clip-path="url(#pfc59b9026a)" style="fill: none; stroke: #1a1a1a"/>
    <path d="M 638.27383 242.454441 
L 638.27383 49.654286 
" clip-path="url(#pfc59b9026a)" style="fill: none; stroke: #1a1a1a"/>
    <path d="M 684.586884 261.618562 
L 684.586884 180.496341 
" clip-path="url(#pfc59b9026a)" style="fill: none; stroke: #1a1a1a"/>
    <path d="M 730.899938 349.663675 
L 730.899938 282.651213 
" clip-path="url(#pfc59b9026a)" style="fill: none; stroke: #1a1a1a"/>
    <path d="M 777.212993 309.621686 
L 777.212993 275.675766 
" clip-path="url(#pfc59b9026a)" style="fill: none; stroke: #1a1a1a"/>
    <path d="M 823.526047 261.5653 
L 823.526047 196.146461 
" clip-path="url(#pfc59b9026a)" style="fill: none; stroke: #1a1a1a"/>
    <path d="M 869.839101 157.704543 
L 869.839101 111.359695 
" clip-path="url(#pfc59b9026a)" style="fill: none; stroke: #1a1a1a"/>
    <path d="M 916.152155 329.185984 
L 916.152155 210.523949 
" clip-path="url(#pfc59b9026a)" style="fill: none; stroke: #1a1a1a"/>
    <path d="M 962.465209 300.776239 
L 962.465209 254.92325 
" clip-path="url(#pfc59b9026a)" style="fill: none; stroke: #1a1a1a"/>
   </g>
   <g id="line2d_30">
    <g clip-path="url(#pfc59b9026a)">
     <use xlink:href="#m9cc97e4739" x="82.51718" y="399.444639" style="fill: #1a1a1a"/>
     <use xlink:href="#m9cc97e4739" x="128.830234" y="428.729952" style="fill: #1a1a1a"/>
     <use xlink:href="#m9cc97e4739" x="175.143288" y="435.552671" style="fill: #1a1a1a"/>
     <use xlink:href="#m9cc97e4739" x="221.456342" y="301.153458" style="fill: #1a1a1a"/>
     <use xlink:href="#m9cc97e4739" x="267.769397" y="288.251243" style="fill: #1a1a1a"/>
     <use xlink:href="#m9cc97e4739" x="314.082451" y="364.783441" style="fill: #1a1a1a"/>
     <use xlink:href="#m9cc97e4739" x="360.395505" y="403.749903" style="fill: #1a1a1a"/>
     <use xlink:href="#m9cc97e4739" x="406.708559" y="393.374697" style="fill: #1a1a1a"/>
     <use xlink:href="#m9cc97e4739" x="453.021613" y="398.963252" style="fill: #1a1a1a"/>
     <use xlink:href="#m9cc97e4739" x="499.334667" y="376.316056" style="fill: #1a1a1a"/>
     <use xlink:href="#m9cc97e4739" x="545.647722" y="395.644174" style="fill: #1a1a1a"/>
     <use xlink:href="#m9cc97e4739" x="591.960776" y="336.805397" style="fill: #1a1a1a"/>
     <use xlink:href="#m9cc97e4739" x="638.27383" y="242.454441" style="fill: #1a1a1a"/>
     <use xlink:href="#m9cc97e4739" x="684.586884" y="261.618562" style="fill: #1a1a1a"/>
     <use xlink:href="#m9cc97e4739" x="730.899938" y="349.663675" style="fill: #1a1a1a"/>
     <use xlink:href="#m9cc97e4739" x="777.212993" y="309.621686" style="fill: #1a1a1a"/>
     <use xlink:href="#m9cc97e4739" x="823.526047" y="261.5653" style="fill: #1a1a1a"/>
     <use xlink:href="#m9cc97e4739" x="869.839101" y="157.704543" style="fill: #1a1a1a"/>
     <use xlink:href="#m9cc97e4739" x="916.152155" y="329.185984" style="fill: #1a1a1a"/>
     <use xlink:href="#m9cc97e4739" x="962.465209" y="300.776239" style="fill: #1a1a1a"/>
    </g>
   </g>
   <g id="line2d_31">
    <g clip-path="url(#pfc59b9026a)">
     <use xlink:href="#m9cc97e4739" x="82.51718" y="373.114804" style="fill: #1a1a1a"/>
     <use xlink:href="#m9cc97e4739" x="128.830234" y="412.806537" style="fill: #1a1a1a"/>
     <use xlink:href="#m9cc97e4739" x="175.143288" y="417.897127" style="fill: #1a1a1a"/>
     <use xlink:href="#m9cc97e4739" x="221.456342" y="264.591304" style="fill: #1a1a1a"/>
     <use xlink:href="#m9cc97e4739" x="267.769397" y="228.567101" style="fill: #1a1a1a"/>
     <use xlink:href="#m9cc97e4739" x="314.082451" y="315.660252" style="fill: #1a1a1a"/>
     <use xlink:href="#m9cc97e4739" x="360.395505" y="384.306058" style="fill: #1a1a1a"/>
     <use xlink:href="#m9cc97e4739" x="406.708559" y="219.458152" style="fill: #1a1a1a"/>
     <use xlink:href="#m9cc97e4739" x="453.021613" y="299.820935" style="fill: #1a1a1a"/>
     <use xlink:href="#m9cc97e4739" x="499.334667" y="324.020251" style="fill: #1a1a1a"/>
     <use xlink:href="#m9cc97e4739" x="545.647722" y="345.870723" style="fill: #1a1a1a"/>
     <use xlink:href="#m9cc97e4739" x="591.960776" y="200.424206" style="fill: #1a1a1a"/>
     <use xlink:href="#m9cc97e4739" x="638.27383" y="49.654286" style="fill: #1a1a1a"/>
     <use xlink:href="#m9cc97e4739" x="684.586884" y="180.496341" style="fill: #1a1a1a"/>
     <use xlink:href="#m9cc97e4739" x="730.899938" y="282.651213" style="fill: #1a1a1a"/>
     <use xlink:href="#m9cc97e4739" x="777.212993" y="275.675766" style="fill: #1a1a1a"/>
     <use xlink:href="#m9cc97e4739" x="823.526047" y="196.146461" style="fill: #1a1a1a"/>
     <use xlink:href="#m9cc97e4739" x="869.839101" y="111.359695" style="fill: #1a1a1a"/>
     <use xlink:href="#m9cc97e4739" x="916.152155" y="210.523949" style="fill: #1a1a1a"/>
     <use xlink:href="#m9cc97e4739" x="962.465209" y="254.92325" style="fill: #1a1a1a"/>
    </g>
   </g>
   <g id="LineCollection_3">
    <path d="M 91.779791 394.256589 
L 91.779791 379.400215 
" clip-path="url(#pfc59b9026a)" style="fill: none; stroke: #1a1a1a"/>
    <path d="M 138.092845 426.377927 
L 138.092845 411.274834 
" clip-path="url(#pfc59b9026a)" style="fill: none; stroke: #1a1a1a"/>
    <path d="M 184.405899 416.187545 
L 184.405899 385.668018 
" clip-path="url(#pfc59b9026a)" style="fill: none; stroke: #1a1a1a"/>
    <path d="M 230.718953 305.252321 
L 230.718953 276.145994 
" clip-path="url(#pfc59b9026a)" style="fill: none; stroke: #1a1a1a"/>
    <path d="M 277.032007 275.334356 
L 277.032007 244.680378 
" clip-path="url(#pfc59b9026a)" style="fill: none; stroke: #1a1a1a"/>
    <path d="M 323.345062 351.377138 
L 323.345062 318.390889 
" clip-path="url(#pfc59b9026a)" style="fill: none; stroke: #1a1a1a"/>
    <path d="M 369.658116 389.367323 
L 369.658116 373.130634 
" clip-path="url(#pfc59b9026a)" style="fill: none; stroke: #1a1a1a"/>
    <path d="M 415.97117 320.008722 
L 415.97117 239.04181 
" clip-path="url(#pfc59b9026a)" style="fill: none; stroke: #1a1a1a"/>
    <path d="M 462.284224 366.873614 
L 462.284224 285.981407 
" clip-path="url(#pfc59b9026a)" style="fill: none; stroke: #1a1a1a"/>
    <path d="M 508.597278 352.034454 
L 508.597278 313.785093 
" clip-path="url(#pfc59b9026a)" style="fill: none; stroke: #1a1a1a"/>
    <path d="M 554.910333 381.227942 
L 554.910333 350.324714 
" clip-path="url(#pfc59b9026a)" style="fill: none; stroke: #1a1a1a"/>
    <path d="M 601.223387 331.42423 
L 601.223387 259.529394 
" clip-path="url(#pfc59b9026a)" style="fill: none; stroke: #1a1a1a"/>
    <path d="M 647.536441 287.89247 
L 647.536441 168.722164 
" clip-path="url(#pfc59b9026a)" style="fill: none; stroke: #1a1a1a"/>
    <path d="M 693.849495 291.876119 
L 693.849495 231.329529 
" clip-path="url(#pfc59b9026a)" style="fill: none; stroke: #1a1a1a"/>
    <path d="M 740.162549 320.05724 
L 740.162549 269.539912 
" clip-path="url(#pfc59b9026a)" style="fill: none; stroke: #1a1a1a"/>
    <path d="M 786.475603 298.623458 
L 786.475603 269.284913 
" clip-path="url(#pfc59b9026a)" style="fill: none; stroke: #1a1a1a"/>
    <path d="M 832.788658 275.809986 
L 832.788658 242.646585 
" clip-path="url(#pfc59b9026a)" style="fill: none; stroke: #1a1a1a"/>
    <path d="M 879.101712 179.165845 
L 879.101712 135.749951 
" clip-path="url(#pfc59b9026a)" style="fill: none; stroke: #1a1a1a"/>
    <path d="M 925.414766 305.457326 
L 925.414766 252.696619 
" clip-path="url(#pfc59b9026a)" style="fill: none; stroke: #1a1a1a"/>
    <path d="M 971.72782 226.071727 
L 971.72782 181.32834 
" clip-path="url(#pfc59b9026a)" style="fill: none; stroke: #1a1a1a"/>
   </g>
   <g id="line2d_32">
    <g clip-path="url(#pfc59b9026a)">
     <use xlink:href="#m9cc97e4739" x="91.779791" y="394.256589" style="fill: #1a1a1a"/>
     <use xlink:href="#m9cc97e4739" x="138.092845" y="426.377927" style="fill: #1a1a1a"/>
     <use xlink:href="#m9cc97e4739" x="184.405899" y="416.187545" style="fill: #1a1a1a"/>
     <use xlink:href="#m9cc97e4739" x="230.718953" y="305.252321" style="fill: #1a1a1a"/>
     <use xlink:href="#m9cc97e4739" x="277.032007" y="275.334356" style="fill: #1a1a1a"/>
     <use xlink:href="#m9cc97e4739" x="323.345062" y="351.377138" style="fill: #1a1a1a"/>
     <use xlink:href="#m9cc97e4739" x="369.658116" y="389.367323" style="fill: #1a1a1a"/>
     <use xlink:href="#m9cc97e4739" x="415.97117" y="320.008722" style="fill: #1a1a1a"/>
     <use xlink:href="#m9cc97e4739" x="462.284224" y="366.873614" style="fill: #1a1a1a"/>
     <use xlink:href="#m9cc97e4739" x="508.597278" y="352.034454" style="fill: #1a1a1a"/>
     <use xlink:href="#m9cc97e4739" x="554.910333" y="381.227942" style="fill: #1a1a1a"/>
     <use xlink:href="#m9cc97e4739" x="601.223387" y="331.42423" style="fill: #1a1a1a"/>
     <use xlink:href="#m9cc97e4739" x="647.536441" y="287.89247" style="fill: #1a1a1a"/>
     <use xlink:href="#m9cc97e4739" x="693.849495" y="291.876119" style="fill: #1a1a1a"/>
     <use xlink:href="#m9cc97e4739" x="740.162549" y="320.05724" style="fill: #1a1a1a"/>
     <use xlink:href="#m9cc97e4739" x="786.475603" y="298.623458" style="fill: #1a1a1a"/>
     <use xlink:href="#m9cc97e4739" x="832.788658" y="275.809986" style="fill: #1a1a1a"/>
     <use xlink:href="#m9cc97e4739" x="879.101712" y="179.165845" style="fill: #1a1a1a"/>
     <use xlink:href="#m9cc97e4739" x="925.414766" y="305.457326" style="fill: #1a1a1a"/>
     <use xlink:href="#m9cc97e4739" x="971.72782" y="226.071727" style="fill: #1a1a1a"/>
    </g>
   </g>
   <g id="line2d_33">
    <g clip-path="url(#pfc59b9026a)">
     <use xlink:href="#m9cc97e4739" x="91.779791" y="379.400215" style="fill: #1a1a1a"/>
     <use xlink:href="#m9cc97e4739" x="138.092845" y="411.274834" style="fill: #1a1a1a"/>
     <use xlink:href="#m9cc97e4739" x="184.405899" y="385.668018" style="fill: #1a1a1a"/>
     <use xlink:href="#m9cc97e4739" x="230.718953" y="276.145994" style="fill: #1a1a1a"/>
     <use xlink:href="#m9cc97e4739" x="277.032007" y="244.680378" style="fill: #1a1a1a"/>
     <use xlink:href="#m9cc97e4739" x="323.345062" y="318.390889" style="fill: #1a1a1a"/>
     <use xlink:href="#m9cc97e4739" x="369.658116" y="373.130634" style="fill: #1a1a1a"/>
     <use xlink:href="#m9cc97e4739" x="415.97117" y="239.04181" style="fill: #1a1a1a"/>
     <use xlink:href="#m9cc97e4739" x="462.284224" y="285.981407" style="fill: #1a1a1a"/>
     <use xlink:href="#m9cc97e4739" x="508.597278" y="313.785093" style="fill: #1a1a1a"/>
     <use xlink:href="#m9cc97e4739" x="554.910333" y="350.324714" style="fill: #1a1a1a"/>
     <use xlink:href="#m9cc97e4739" x="601.223387" y="259.529394" style="fill: #1a1a1a"/>
     <use xlink:href="#m9cc97e4739" x="647.536441" y="168.722164" style="fill: #1a1a1a"/>
     <use xlink:href="#m9cc97e4739" x="693.849495" y="231.329529" style="fill: #1a1a1a"/>
     <use xlink:href="#m9cc97e4739" x="740.162549" y="269.539912" style="fill: #1a1a1a"/>
     <use xlink:href="#m9cc97e4739" x="786.475603" y="269.284913" style="fill: #1a1a1a"/>
     <use xlink:href="#m9cc97e4739" x="832.788658" y="242.646585" style="fill: #1a1a1a"/>
     <use xlink:href="#m9cc97e4739" x="879.101712" y="135.749951" style="fill: #1a1a1a"/>
     <use xlink:href="#m9cc97e4739" x="925.414766" y="252.696619" style="fill: #1a1a1a"/>
     <use xlink:href="#m9cc97e4739" x="971.72782" y="181.32834" style="fill: #1a1a1a"/>
    </g>
   </g>
   <g id="LineCollection_4">
    <path d="M 101.042401 405.34608 
L 101.042401 365.138425 
" clip-path="url(#pfc59b9026a)" style="fill: none; stroke: #1a1a1a"/>
    <path d="M 147.355456 430.68191 
L 147.355456 391.791837 
" clip-path="url(#pfc59b9026a)" style="fill: none; stroke: #1a1a1a"/>
    <path d="M 193.66851 422.635335 
L 193.66851 374.927772 
" clip-path="url(#pfc59b9026a)" style="fill: none; stroke: #1a1a1a"/>
    <path d="M 239.981564 321.983438 
L 239.981564 258.0449 
" clip-path="url(#pfc59b9026a)" style="fill: none; stroke: #1a1a1a"/>
    <path d="M 286.294618 320.234943 
L 286.294618 226.276947 
" clip-path="url(#pfc59b9026a)" style="fill: none; stroke: #1a1a1a"/>
    <path d="M 332.607672 361.880872 
L 332.607672 300.281801 
" clip-path="url(#pfc59b9026a)" style="fill: none; stroke: #1a1a1a"/>
    <path d="M 378.920727 408.794409 
L 378.920727 368.223118 
" clip-path="url(#pfc59b9026a)" style="fill: none; stroke: #1a1a1a"/>
    <path d="M 425.233781 331.999188 
L 425.233781 209.562568 
" clip-path="url(#pfc59b9026a)" style="fill: none; stroke: #1a1a1a"/>
    <path d="M 471.546835 360.739068 
L 471.546835 267.819041 
" clip-path="url(#pfc59b9026a)" style="fill: none; stroke: #1a1a1a"/>
    <path d="M 517.859889 370.999948 
L 517.859889 307.717675 
" clip-path="url(#pfc59b9026a)" style="fill: none; stroke: #1a1a1a"/>
    <path d="M 564.172943 376.212444 
L 564.172943 316.876969 
" clip-path="url(#pfc59b9026a)" style="fill: none; stroke: #1a1a1a"/>
    <path d="M 610.485998 333.712646 
L 610.485998 222.828678 
" clip-path="url(#pfc59b9026a)" style="fill: none; stroke: #1a1a1a"/>
    <path d="M 656.799052 313.964018 
L 656.799052 185.970313 
" clip-path="url(#pfc59b9026a)" style="fill: none; stroke: #1a1a1a"/>
    <path d="M 703.112106 311.584562 
L 703.112106 224.641517 
" clip-path="url(#pfc59b9026a)" style="fill: none; stroke: #1a1a1a"/>
    <path d="M 749.42516 360.888474 
L 749.42516 237.402351 
" clip-path="url(#pfc59b9026a)" style="fill: none; stroke: #1a1a1a"/>
    <path d="M 795.738214 301.632022 
L 795.738214 231.171692 
" clip-path="url(#pfc59b9026a)" style="fill: none; stroke: #1a1a1a"/>
    <path d="M 842.051268 296.16423 
L 842.051268 212.521848 
" clip-path="url(#pfc59b9026a)" style="fill: none; stroke: #1a1a1a"/>
    <path d="M 888.364323 212.923176 
L 888.364323 127.638861 
" clip-path="url(#pfc59b9026a)" style="fill: none; stroke: #1a1a1a"/>
    <path d="M 934.677377 328.927664 
L 934.677377 227.892389 
" clip-path="url(#pfc59b9026a)" style="fill: none; stroke: #1a1a1a"/>
    <path d="M 980.990431 275.147433 
L 980.990431 180.147168 
" clip-path="url(#pfc59b9026a)" style="fill: none; stroke: #1a1a1a"/>
   </g>
   <g id="line2d_34">
    <g clip-path="url(#pfc59b9026a)">
     <use xlink:href="#m9cc97e4739" x="101.042401" y="405.34608" style="fill: #1a1a1a"/>
     <use xlink:href="#m9cc97e4739" x="147.355456" y="430.68191" style="fill: #1a1a1a"/>
     <use xlink:href="#m9cc97e4739" x="193.66851" y="422.635335" style="fill: #1a1a1a"/>
     <use xlink:href="#m9cc97e4739" x="239.981564" y="321.983438" style="fill: #1a1a1a"/>
     <use xlink:href="#m9cc97e4739" x="286.294618" y="320.234943" style="fill: #1a1a1a"/>
     <use xlink:href="#m9cc97e4739" x="332.607672" y="361.880872" style="fill: #1a1a1a"/>
     <use xlink:href="#m9cc97e4739" x="378.920727" y="408.794409" style="fill: #1a1a1a"/>
     <use xlink:href="#m9cc97e4739" x="425.233781" y="331.999188" style="fill: #1a1a1a"/>
     <use xlink:href="#m9cc97e4739" x="471.546835" y="360.739068" style="fill: #1a1a1a"/>
     <use xlink:href="#m9cc97e4739" x="517.859889" y="370.999948" style="fill: #1a1a1a"/>
     <use xlink:href="#m9cc97e4739" x="564.172943" y="376.212444" style="fill: #1a1a1a"/>
     <use xlink:href="#m9cc97e4739" x="610.485998" y="333.712646" style="fill: #1a1a1a"/>
     <use xlink:href="#m9cc97e4739" x="656.799052" y="313.964018" style="fill: #1a1a1a"/>
     <use xlink:href="#m9cc97e4739" x="703.112106" y="311.584562" style="fill: #1a1a1a"/>
     <use xlink:href="#m9cc97e4739" x="749.42516" y="360.888474" style="fill: #1a1a1a"/>
     <use xlink:href="#m9cc97e4739" x="795.738214" y="301.632022" style="fill: #1a1a1a"/>
     <use xlink:href="#m9cc97e4739" x="842.051268" y="296.16423" style="fill: #1a1a1a"/>
     <use xlink:href="#m9cc97e4739" x="888.364323" y="212.923176" style="fill: #1a1a1a"/>
     <use xlink:href="#m9cc97e4739" x="934.677377" y="328.927664" style="fill: #1a1a1a"/>
     <use xlink:href="#m9cc97e4739" x="980.990431" y="275.147433" style="fill: #1a1a1a"/>
    </g>
   </g>
   <g id="line2d_35">
    <g clip-path="url(#pfc59b9026a)">
     <use xlink:href="#m9cc97e4739" x="101.042401" y="365.138425" style="fill: #1a1a1a"/>
     <use xlink:href="#m9cc97e4739" x="147.355456" y="391.791837" style="fill: #1a1a1a"/>
     <use xlink:href="#m9cc97e4739" x="193.66851" y="374.927772" style="fill: #1a1a1a"/>
     <use xlink:href="#m9cc97e4739" x="239.981564" y="258.0449" style="fill: #1a1a1a"/>
     <use xlink:href="#m9cc97e4739" x="286.294618" y="226.276947" style="fill: #1a1a1a"/>
     <use xlink:href="#m9cc97e4739" x="332.607672" y="300.281801" style="fill: #1a1a1a"/>
     <use xlink:href="#m9cc97e4739" x="378.920727" y="368.223118" style="fill: #1a1a1a"/>
     <use xlink:href="#m9cc97e4739" x="425.233781" y="209.562568" style="fill: #1a1a1a"/>
     <use xlink:href="#m9cc97e4739" x="471.546835" y="267.819041" style="fill: #1a1a1a"/>
     <use xlink:href="#m9cc97e4739" x="517.859889" y="307.717675" style="fill: #1a1a1a"/>
     <use xlink:href="#m9cc97e4739" x="564.172943" y="316.876969" style="fill: #1a1a1a"/>
     <use xlink:href="#m9cc97e4739" x="610.485998" y="222.828678" style="fill: #1a1a1a"/>
     <use xlink:href="#m9cc97e4739" x="656.799052" y="185.970313" style="fill: #1a1a1a"/>
     <use xlink:href="#m9cc97e4739" x="703.112106" y="224.641517" style="fill: #1a1a1a"/>
     <use xlink:href="#m9cc97e4739" x="749.42516" y="237.402351" style="fill: #1a1a1a"/>
     <use xlink:href="#m9cc97e4739" x="795.738214" y="231.171692" style="fill: #1a1a1a"/>
     <use xlink:href="#m9cc97e4739" x="842.051268" y="212.521848" style="fill: #1a1a1a"/>
     <use xlink:href="#m9cc97e4739" x="888.364323" y="127.638861" style="fill: #1a1a1a"/>
     <use xlink:href="#m9cc97e4739" x="934.677377" y="227.892389" style="fill: #1a1a1a"/>
     <use xlink:href="#m9cc97e4739" x="980.990431" y="180.147168" style="fill: #1a1a1a"/>
    </g>
   </g>
   <g id="patch_83">
    <path d="M 57.045 461.94 
L 57.045 29.04 
" style="fill: none; stroke: #000000; stroke-linejoin: miter; stroke-linecap: square"/>
   </g>
   <g id="patch_84">
    <path d="M 997.2 461.94 
L 997.2 29.04 
" style="fill: none; stroke: #000000; stroke-linejoin: miter; stroke-linecap: square"/>
   </g>
   <g id="patch_85">
    <path d="M 57.045 461.94 
L 997.2 461.94 
" style="fill: none; stroke: #000000; stroke-linejoin: miter; stroke-linecap: square"/>
   </g>
   <g id="patch_86">
    <path d="M 57.045 29.04 
L 997.2 29.04 
" style="fill: none; stroke: #000000; stroke-linejoin: miter; stroke-linecap: square"/>
   </g>
   <g id="text_30">
    <!-- Mean amino acid distribution across kingdoms -->
    <g style="fill: #333333" transform="translate(340.96125 23.04) scale(0.16 -0.16)">
     <defs>
      <path id="DejaVuSans-6b" d="M 581 4863 
L 1159 4863 
L 1159 1991 
L 2875 3500 
L 3609 3500 
L 1753 1863 
L 3688 0 
L 2938 0 
L 1159 1709 
L 1159 0 
L 581 0 
L 581 4863 
z
" transform="scale(0.015625)"/>
      <path id="DejaVuSans-67" d="M 2906 1791 
Q 2906 2416 2648 2759 
Q 2391 3103 1925 3103 
Q 1463 3103 1205 2759 
Q 947 2416 947 1791 
Q 947 1169 1205 825 
Q 1463 481 1925 481 
Q 2391 481 2648 825 
Q 2906 1169 2906 1791 
z
M 3481 434 
Q 3481 -459 3084 -895 
Q 2688 -1331 1869 -1331 
Q 1566 -1331 1297 -1286 
Q 1028 -1241 775 -1147 
L 775 -588 
Q 1028 -725 1275 -790 
Q 1522 -856 1778 -856 
Q 2344 -856 2625 -561 
Q 2906 -266 2906 331 
L 2906 616 
Q 2728 306 2450 153 
Q 2172 0 1784 0 
Q 1141 0 747 490 
Q 353 981 353 1791 
Q 353 2603 747 3093 
Q 1141 3584 1784 3584 
Q 2172 3584 2450 3431 
Q 2728 3278 2906 2969 
L 2906 3500 
L 3481 3500 
L 3481 434 
z
" transform="scale(0.015625)"/>
     </defs>
     <use xlink:href="#DejaVuSans-4d"/>
     <use xlink:href="#DejaVuSans-65" x="86.279297"/>
     <use xlink:href="#DejaVuSans-61" x="147.802734"/>
     <use xlink:href="#DejaVuSans-6e" x="209.082031"/>
     <use xlink:href="#DejaVuSans-20" x="272.460938"/>
     <use xlink:href="#DejaVuSans-61" x="304.248047"/>
     <use xlink:href="#DejaVuSans-6d" x="365.527344"/>
     <use xlink:href="#DejaVuSans-69" x="462.939453"/>
     <use xlink:href="#DejaVuSans-6e" x="490.722656"/>
     <use xlink:href="#DejaVuSans-6f" x="554.101562"/>
     <use xlink:href="#DejaVuSans-20" x="615.283203"/>
     <use xlink:href="#DejaVuSans-61" x="647.070312"/>
     <use xlink:href="#DejaVuSans-63" x="708.349609"/>
     <use xlink:href="#DejaVuSans-69" x="763.330078"/>
     <use xlink:href="#DejaVuSans-64" x="791.113281"/>
     <use xlink:href="#DejaVuSans-20" x="854.589844"/>
     <use xlink:href="#DejaVuSans-64" x="886.376953"/>
     <use xlink:href="#DejaVuSans-69" x="949.853516"/>
     <use xlink:href="#DejaVuSans-73" x="977.636719"/>
     <use xlink:href="#DejaVuSans-74" x="1029.736328"/>
     <use xlink:href="#DejaVuSans-72" x="1068.945312"/>
     <use xlink:href="#DejaVuSans-69" x="1110.058594"/>
     <use xlink:href="#DejaVuSans-62" x="1137.841797"/>
     <use xlink:href="#DejaVuSans-75" x="1201.318359"/>
     <use xlink:href="#DejaVuSans-74" x="1264.697266"/>
     <use xlink:href="#DejaVuSans-69" x="1303.90625"/>
     <use xlink:href="#DejaVuSans-6f" x="1331.689453"/>
     <use xlink:href="#DejaVuSans-6e" x="1392.871094"/>
     <use xlink:href="#DejaVuSans-20" x="1456.25"/>
     <use xlink:href="#DejaVuSans-61" x="1488.037109"/>
     <use xlink:href="#DejaVuSans-63" x="1549.316406"/>
     <use xlink:href="#DejaVuSans-72" x="1604.296875"/>
     <use xlink:href="#DejaVuSans-6f" x="1643.160156"/>
     <use xlink:href="#DejaVuSans-73" x="1704.341797"/>
     <use xlink:href="#DejaVuSans-73" x="1756.441406"/>
     <use xlink:href="#DejaVuSans-20" x="1808.541016"/>
     <use xlink:href="#DejaVuSans-6b" x="1840.328125"/>
     <use xlink:href="#DejaVuSans-69" x="1898.238281"/>
     <use xlink:href="#DejaVuSans-6e" x="1926.021484"/>
     <use xlink:href="#DejaVuSans-67" x="1989.400391"/>
     <use xlink:href="#DejaVuSans-64" x="2052.876953"/>
     <use xlink:href="#DejaVuSans-6f" x="2116.353516"/>
     <use xlink:href="#DejaVuSans-6d" x="2177.535156"/>
     <use xlink:href="#DejaVuSans-73" x="2274.947266"/>
    </g>
   </g>
   <g id="legend_1">
    <g id="patch_87">
     <path d="M 907.603125 110.430625 
L 990.2 110.430625 
Q 992.2 110.430625 992.2 108.430625 
L 992.2 36.04 
Q 992.2 34.04 990.2 34.04 
L 907.603125 34.04 
Q 905.603125 34.04 905.603125 36.04 
L 905.603125 108.430625 
Q 905.603125 110.430625 907.603125 110.430625 
z
" style="fill: #ffffff; opacity: 0.8; stroke: #cccccc; stroke-linejoin: miter"/>
    </g>
    <g id="text_31">
     <!-- Kingdom -->
     <g style="fill: #333333" transform="translate(926.786719 45.638437) scale(0.1 -0.1)">
      <use xlink:href="#DejaVuSans-4b"/>
      <use xlink:href="#DejaVuSans-69" x="65.576172"/>
      <use xlink:href="#DejaVuSans-6e" x="93.359375"/>
      <use xlink:href="#DejaVuSans-67" x="156.738281"/>
      <use xlink:href="#DejaVuSans-64" x="220.214844"/>
      <use xlink:href="#DejaVuSans-6f" x="283.691406"/>
      <use xlink:href="#DejaVuSans-6d" x="344.873047"/>
     </g>
    </g>
    <g id="patch_88">
     <path d="M 909.603125 60.316562 
L 929.603125 60.316562 
L 929.603125 53.316562 
L 909.603125 53.316562 
z
" style="fill: #0000ff"/>
    </g>
    <g id="text_32">
     <!-- Archaea -->
     <g style="fill: #333333" transform="translate(937.603125 60.316562) scale(0.1 -0.1)">
      <defs>
       <path id="DejaVuSans-68" d="M 3513 2113 
L 3513 0 
L 2938 0 
L 2938 2094 
Q 2938 2591 2744 2837 
Q 2550 3084 2163 3084 
Q 1697 3084 1428 2787 
Q 1159 2491 1159 1978 
L 1159 0 
L 581 0 
L 581 4863 
L 1159 4863 
L 1159 2956 
Q 1366 3272 1645 3428 
Q 1925 3584 2291 3584 
Q 2894 3584 3203 3211 
Q 3513 2838 3513 2113 
z
" transform="scale(0.015625)"/>
      </defs>
      <use xlink:href="#DejaVuSans-41"/>
      <use xlink:href="#DejaVuSans-72" x="68.408203"/>
      <use xlink:href="#DejaVuSans-63" x="107.271484"/>
      <use xlink:href="#DejaVuSans-68" x="162.251953"/>
      <use xlink:href="#DejaVuSans-61" x="225.630859"/>
      <use xlink:href="#DejaVuSans-65" x="286.910156"/>
      <use xlink:href="#DejaVuSans-61" x="348.433594"/>
     </g>
    </g>
    <g id="patch_89">
     <path d="M 909.603125 74.994687 
L 929.603125 74.994687 
L 929.603125 67.994687 
L 909.603125 67.994687 
z
" style="fill: #008000"/>
    </g>
    <g id="text_33">
     <!-- Bacteria -->
     <g style="fill: #333333" transform="translate(937.603125 74.994687) scale(0.1 -0.1)">
      <defs>
       <path id="DejaVuSans-42" d="M 1259 2228 
L 1259 519 
L 2272 519 
Q 2781 519 3026 730 
Q 3272 941 3272 1375 
Q 3272 1813 3026 2020 
Q 2781 2228 2272 2228 
L 1259 2228 
z
M 1259 4147 
L 1259 2741 
L 2194 2741 
Q 2656 2741 2882 2914 
Q 3109 3088 3109 3444 
Q 3109 3797 2882 3972 
Q 2656 4147 2194 4147 
L 1259 4147 
z
M 628 4666 
L 2241 4666 
Q 2963 4666 3353 4366 
Q 3744 4066 3744 3513 
Q 3744 3084 3544 2831 
Q 3344 2578 2956 2516 
Q 3422 2416 3680 2098 
Q 3938 1781 3938 1306 
Q 3938 681 3513 340 
Q 3088 0 2303 0 
L 628 0 
L 628 4666 
z
" transform="scale(0.015625)"/>
      </defs>
      <use xlink:href="#DejaVuSans-42"/>
      <use xlink:href="#DejaVuSans-61" x="68.603516"/>
      <use xlink:href="#DejaVuSans-63" x="129.882812"/>
      <use xlink:href="#DejaVuSans-74" x="184.863281"/>
      <use xlink:href="#DejaVuSans-65" x="224.072266"/>
      <use xlink:href="#DejaVuSans-72" x="285.595703"/>
      <use xlink:href="#DejaVuSans-69" x="326.708984"/>
      <use xlink:href="#DejaVuSans-61" x="354.492188"/>
     </g>
    </g>
    <g id="patch_90">
     <path d="M 909.603125 89.672812 
L 929.603125 89.672812 
L 929.603125 82.672812 
L 909.603125 82.672812 
z
" style="fill: #ffa500"/>
    </g>
    <g id="text_34">
     <!-- Eukaryota -->
     <g style="fill: #333333" transform="translate(937.603125 89.672812) scale(0.1 -0.1)">
      <defs>
       <path id="DejaVuSans-79" d="M 2059 -325 
Q 1816 -950 1584 -1140 
Q 1353 -1331 966 -1331 
L 506 -1331 
L 506 -850 
L 844 -850 
Q 1081 -850 1212 -737 
Q 1344 -625 1503 -206 
L 1606 56 
L 191 3500 
L 800 3500 
L 1894 763 
L 2988 3500 
L 3597 3500 
L 2059 -325 
z
" transform="scale(0.015625)"/>
      </defs>
      <use xlink:href="#DejaVuSans-45"/>
      <use xlink:href="#DejaVuSans-75" x="63.183594"/>
      <use xlink:href="#DejaVuSans-6b" x="126.5625"/>
      <use xlink:href="#DejaVuSans-61" x="182.722656"/>
      <use xlink:href="#DejaVuSans-72" x="244.001953"/>
      <use xlink:href="#DejaVuSans-79" x="285.115234"/>
      <use xlink:href="#DejaVuSans-6f" x="344.294922"/>
      <use xlink:href="#DejaVuSans-74" x="405.476562"/>
      <use xlink:href="#DejaVuSans-61" x="444.685547"/>
     </g>
    </g>
    <g id="patch_91">
     <path d="M 909.603125 104.350937 
L 929.603125 104.350937 
L 929.603125 97.350937 
L 909.603125 97.350937 
z
" style="fill: #ff0000"/>
    </g>
    <g id="text_35">
     <!-- Viruses -->
     <g style="fill: #333333" transform="translate(937.603125 104.350937) scale(0.1 -0.1)">
      <use xlink:href="#DejaVuSans-56"/>
      <use xlink:href="#DejaVuSans-69" x="66.158203"/>
      <use xlink:href="#DejaVuSans-72" x="93.941406"/>
      <use xlink:href="#DejaVuSans-75" x="135.054688"/>
      <use xlink:href="#DejaVuSans-73" x="198.433594"/>
      <use xlink:href="#DejaVuSans-65" x="250.533203"/>
      <use xlink:href="#DejaVuSans-73" x="312.056641"/>
     </g>
    </g>
   </g>
  </g>
 </g>
 <defs>
  <clipPath id="pfc59b9026a">
   <rect x="57.045" y="29.04" width="940.155" height="432.9"/>
  </clipPath>
 </defs>
</svg>
