<?xml version="1.0" encoding="utf-8" standalone="no"?>
<!DOCTYPE svg PUBLIC "-//W3C//DTD SVG 1.1//EN"
  "http://www.w3.org/Graphics/SVG/1.1/DTD/svg11.dtd">
<svg xmlns:xlink="http://www.w3.org/1999/xlink" width="887.98125pt" height="635.878125pt" viewBox="0 0 887.98125 635.878125" xmlns="http://www.w3.org/2000/svg" version="1.1">
 <metadata>
  <rdf:RDF xmlns:dc="http://purl.org/dc/elements/1.1/" xmlns:cc="http://creativecommons.org/ns#" xmlns:rdf="http://www.w3.org/1999/02/22-rdf-syntax-ns#">
   <cc:Work>
    <dc:type rdf:resource="http://purl.org/dc/dcmitype/StillImage"/>
    <dc:date>2024-09-24T17:07:26.551649</dc:date>
    <dc:format>image/svg+xml</dc:format>
    <dc:creator>
     <cc:Agent>
      <dc:title>Matplotlib v3.8.3, https://matplotlib.org/</dc:title>
     </cc:Agent>
    </dc:creator>
   </cc:Work>
  </rdf:RDF>
 </metadata>
 <defs>
  <style type="text/css">*{stroke-linejoin: round; stroke-linecap: butt}</style>
 </defs>
 <g id="figure_1">
  <g id="patch_1">
   <path d="M 0 635.878125 
L 887.98125 635.878125 
L 887.98125 0 
L 0 0 
z
" style="fill: #ffffff"/>
  </g>
  <g id="axes_1">
   <g id="patch_2">
    <path d="M 43.78125 298.643478 
L 880.78125 298.643478 
L 880.78125 57.6 
L 43.78125 57.6 
z
" style="fill: #ffffff"/>
   </g>
   <g id="PolyCollection_1">
    <defs>
     <path id="m36811371cd" d="M 105.709521 -337.247846 
L 105.709521 -337.234647 
L 109.401193 -337.234647 
L 113.092864 -337.234647 
L 116.784535 -337.234647 
L 120.476206 -337.234647 
L 124.167878 -337.234647 
L 127.859549 -337.234647 
L 131.55122 -337.234647 
L 135.242891 -337.234647 
L 138.934563 -337.234647 
L 142.626234 -337.234647 
L 146.317905 -337.234647 
L 150.009576 -337.234647 
L 153.701248 -337.234647 
L 157.392919 -337.234647 
L 161.08459 -337.234647 
L 164.776262 -337.234647 
L 168.467933 -337.234647 
L 172.159604 -337.234647 
L 175.851275 -337.234647 
L 179.542947 -337.234647 
L 183.234618 -337.234647 
L 186.926289 -337.234647 
L 190.61796 -337.234647 
L 194.309632 -337.234647 
L 198.001303 -337.234647 
L 201.692974 -337.234647 
L 205.384645 -337.234647 
L 209.076317 -337.234647 
L 212.767988 -337.234647 
L 216.459659 -337.234647 
L 220.15133 -337.234647 
L 223.843002 -337.234647 
L 227.534673 -337.234647 
L 231.226344 -337.234647 
L 234.918015 -337.234647 
L 238.609687 -337.234647 
L 242.301358 -337.234647 
L 245.993029 -337.234647 
L 249.6847 -337.234647 
L 253.376372 -337.234647 
L 257.068043 -337.234647 
L 260.759714 -337.234647 
L 264.451385 -337.234647 
L 268.143057 -337.234647 
L 271.834728 -337.234647 
L 275.526399 -337.234647 
L 279.21807 -337.234647 
L 282.909742 -337.234647 
L 286.601413 -337.234647 
L 290.293084 -337.234647 
L 293.984755 -337.234647 
L 297.676427 -337.234647 
L 301.368098 -337.234647 
L 305.059769 -337.234647 
L 308.75144 -337.234647 
L 312.443112 -337.234647 
L 316.134783 -337.234647 
L 319.826454 -337.234647 
L 323.518125 -337.234647 
L 327.209797 -337.234647 
L 330.901468 -337.234647 
L 334.593139 -337.234647 
L 338.28481 -337.234647 
L 341.976482 -337.234647 
L 345.668153 -337.234647 
L 349.359824 -337.234647 
L 353.051495 -337.234647 
L 356.743167 -337.234647 
L 360.434838 -337.234647 
L 364.126509 -337.234647 
L 367.81818 -337.234647 
L 371.509852 -337.234647 
L 375.201523 -337.234647 
L 378.893194 -337.234647 
L 382.584865 -337.234647 
L 386.276537 -337.234647 
L 389.968208 -337.234647 
L 393.659879 -337.234647 
L 397.35155 -337.234647 
L 401.043222 -337.234647 
L 404.734893 -337.234647 
L 408.426564 -337.234647 
L 412.118235 -337.234647 
L 415.809907 -337.234647 
L 419.501578 -337.234647 
L 423.193249 -337.234647 
L 426.88492 -337.234647 
L 430.576592 -337.234647 
L 434.268263 -337.234647 
L 437.959934 -337.234647 
L 441.651605 -337.234647 
L 445.343277 -337.234647 
L 449.034948 -337.234647 
L 452.726619 -337.234647 
L 456.41829 -337.234647 
L 460.109962 -337.234647 
L 463.801633 -337.234647 
L 467.493304 -337.234647 
L 471.184975 -337.234647 
L 474.876647 -337.234647 
L 478.568318 -337.234647 
L 482.259989 -337.234647 
L 485.95166 -337.234647 
L 489.643332 -337.234647 
L 493.335003 -337.234647 
L 497.026674 -337.234647 
L 500.718345 -337.234647 
L 504.410017 -337.234647 
L 508.101688 -337.234647 
L 511.793359 -337.234647 
L 515.48503 -337.234647 
L 519.176702 -337.234647 
L 522.868373 -337.234647 
L 526.560044 -337.234647 
L 530.251715 -337.234647 
L 533.943387 -337.234647 
L 537.635058 -337.234647 
L 541.326729 -337.234647 
L 545.0184 -337.234647 
L 548.710072 -337.234647 
L 552.401743 -337.234647 
L 556.093414 -337.234647 
L 559.785085 -337.234647 
L 563.476757 -337.234647 
L 567.168428 -337.234647 
L 570.860099 -337.234647 
L 574.55177 -337.234647 
L 578.243442 -337.234647 
L 581.935113 -337.234647 
L 585.626784 -337.234647 
L 589.318455 -337.234647 
L 593.010127 -337.234647 
L 596.701798 -337.234647 
L 600.393469 -337.234647 
L 604.08514 -337.234647 
L 607.776812 -337.234647 
L 611.468483 -337.234647 
L 615.160154 -337.234647 
L 618.851825 -337.234647 
L 622.543497 -337.234647 
L 626.235168 -337.234647 
L 629.926839 -337.234647 
L 633.61851 -337.234647 
L 637.310182 -337.234647 
L 641.001853 -337.234647 
L 644.693524 -337.234647 
L 648.385195 -337.234647 
L 652.076867 -337.234647 
L 655.768538 -337.234647 
L 659.460209 -337.234647 
L 663.15188 -337.234647 
L 666.843552 -337.234647 
L 670.535223 -337.234647 
L 674.226894 -337.234647 
L 677.918565 -337.234647 
L 681.610237 -337.234647 
L 685.301908 -337.234647 
L 688.993579 -337.234647 
L 692.68525 -337.234647 
L 696.376922 -337.234647 
L 700.068593 -337.234647 
L 703.760264 -337.234647 
L 707.451935 -337.234647 
L 711.143607 -337.234647 
L 714.835278 -337.234647 
L 718.526949 -337.234647 
L 722.21862 -337.234647 
L 725.910292 -337.234647 
L 729.601963 -337.234647 
L 733.293634 -337.234647 
L 736.985305 -337.234647 
L 740.676977 -337.234647 
L 744.368648 -337.234647 
L 748.060319 -337.234647 
L 751.75199 -337.234647 
L 755.443662 -337.234647 
L 759.135333 -337.234647 
L 762.827004 -337.234647 
L 766.518675 -337.234647 
L 770.210347 -337.234647 
L 773.902018 -337.234647 
L 777.593689 -337.234647 
L 781.28536 -337.234647 
L 784.977032 -337.234647 
L 788.668703 -337.234647 
L 792.360374 -337.234647 
L 796.052045 -337.234647 
L 799.743717 -337.234647 
L 803.435388 -337.234647 
L 807.127059 -337.234647 
L 810.81873 -337.234647 
L 814.510402 -337.234647 
L 818.202073 -337.234647 
L 821.893744 -337.234647 
L 825.585415 -337.234647 
L 829.277087 -337.234647 
L 832.968758 -337.234647 
L 836.660429 -337.234647 
L 840.3521 -337.234647 
L 840.3521 -337.252901 
L 840.3521 -337.252901 
L 836.660429 -337.263702 
L 832.968758 -337.279991 
L 829.277087 -337.304056 
L 825.585415 -337.338901 
L 821.893744 -337.388378 
L 818.202073 -337.457316 
L 814.510402 -337.551652 
L 810.81873 -337.678557 
L 807.127059 -337.846569 
L 803.435388 -338.065766 
L 799.743717 -338.347973 
L 796.052045 -338.707074 
L 792.360374 -339.159422 
L 788.668703 -339.724383 
L 784.977032 -340.425016 
L 781.28536 -341.288847 
L 777.593689 -342.348693 
L 773.902018 -343.643433 
L 770.210347 -345.218619 
L 766.518675 -347.126793 
L 762.827004 -349.427386 
L 759.135333 -352.186097 
L 755.443662 -355.473656 
L 751.75199 -359.363937 
L 748.060319 -363.931395 
L 744.368648 -369.247836 
L 740.676977 -375.378538 
L 736.985305 -382.377787 
L 733.293634 -390.283912 
L 729.601963 -399.113956 
L 725.910292 -408.858264 
L 722.21862 -419.475324 
L 718.526949 -430.887394 
L 714.835278 -442.977535 
L 711.143607 -455.588716 
L 707.451935 -468.525645 
L 703.760264 -481.55979 
L 700.068593 -494.437753 
L 696.376922 -506.89277 
L 692.68525 -518.658606 
L 688.993579 -529.484712 
L 685.301908 -539.151133 
L 681.610237 -547.481558 
L 677.918565 -554.352968 
L 674.226894 -559.700767 
L 670.535223 -563.518812 
L 666.843552 -565.854515 
L 663.15188 -566.799864 
L 659.460209 -566.479789 
L 655.768538 -565.039567 
L 652.076867 -562.632957 
L 648.385195 -559.412382 
L 644.693524 -555.521942 
L 641.001853 -551.093363 
L 637.310182 -546.24441 
L 633.61851 -541.078929 
L 629.926839 -535.687558 
L 626.235168 -530.148337 
L 622.543497 -524.526807 
L 618.851825 -518.875632 
L 615.160154 -513.23412 
L 611.468483 -507.628222 
L 607.776812 -502.071537 
L 604.08514 -496.567604 
L 600.393469 -491.113395 
L 596.701798 -485.703575 
L 593.010127 -480.334808 
L 589.318455 -475.009327 
L 585.626784 -469.737089 
L 581.935113 -464.536125 
L 578.243442 -459.43105 
L 574.55177 -454.450072 
L 570.860099 -449.62112 
L 567.168428 -444.967833 
L 563.476757 -440.506155 
L 559.785085 -436.242117 
L 556.093414 -432.17116 
L 552.401743 -428.279031 
L 548.710072 -424.544077 
L 545.0184 -420.9405 
L 541.326729 -417.442037 
L 537.635058 -414.025507 
L 533.943387 -410.673698 
L 530.251715 -407.377224 
L 526.560044 -404.135153 
L 522.868373 -400.954394 
L 519.176702 -397.848036 
L 515.48503 -394.832984 
L 511.793359 -391.92728 
L 508.101688 -389.147575 
L 504.410017 -386.50709 
L 500.718345 -384.014308 
L 497.026674 -381.672508 
L 493.335003 -379.48006 
L 489.643332 -377.431307 
L 485.95166 -375.517793 
L 482.259989 -373.729582 
L 478.568318 -372.056468 
L 474.876647 -370.488951 
L 471.184975 -369.018941 
L 467.493304 -367.640221 
L 463.801633 -366.348716 
L 460.109962 -365.142615 
L 456.41829 -364.022366 
L 452.726619 -362.990488 
L 449.034948 -362.051141 
L 445.343277 -361.209391 
L 441.651605 -360.470132 
L 437.959934 -359.836727 
L 434.268263 -359.309484 
L 430.576592 -358.884219 
L 426.88492 -358.551146 
L 423.193249 -358.294366 
L 419.501578 -358.092161 
L 415.809907 -357.918175 
L 412.118235 -357.743426 
L 408.426564 -357.538946 
L 404.734893 -357.278724 
L 401.043222 -356.942556 
L 397.35155 -356.518394 
L 393.659879 -356.003839 
L 389.968208 -355.406535 
L 386.276537 -354.743373 
L 382.584865 -354.038554 
L 378.893194 -353.320739 
L 375.201523 -352.61962 
L 371.509852 -351.962328 
L 367.81818 -351.370128 
L 364.126509 -350.855814 
L 360.434838 -350.42214 
L 356.743167 -350.061489 
L 353.051495 -349.756828 
L 349.359824 -349.483825 
L 345.668153 -349.213847 
L 341.976482 -348.917439 
L 338.28481 -348.567826 
L 334.593139 -348.143982 
L 330.901468 -347.632886 
L 327.209797 -347.030706 
L 323.518125 -346.342848 
L 319.826454 -345.582923 
L 316.134783 -344.770884 
L 312.443112 -343.93063 
L 308.75144 -343.087454 
L 305.059769 -342.26565 
L 301.368098 -341.48655 
L 297.676427 -340.767161 
L 293.984755 -340.119436 
L 290.293084 -339.550165 
L 286.601413 -339.061366 
L 282.909742 -338.651024 
L 279.21807 -338.314034 
L 275.526399 -338.043198 
L 271.834728 -337.830159 
L 268.143057 -337.666219 
L 264.451385 -337.542969 
L 260.759714 -337.452757 
L 257.068043 -337.388973 
L 253.376372 -337.346207 
L 249.6847 -337.320285 
L 245.993029 -337.308225 
L 242.301358 -337.308129 
L 238.609687 -337.31903 
L 234.918015 -337.340703 
L 231.226344 -337.373436 
L 227.534673 -337.417785 
L 223.843002 -337.474289 
L 220.15133 -337.54319 
L 216.459659 -337.624151 
L 212.767988 -337.716021 
L 209.076317 -337.816659 
L 205.384645 -337.922876 
L 201.692974 -338.030495 
L 198.001303 -338.134554 
L 194.309632 -338.229652 
L 190.61796 -338.310389 
L 186.926289 -338.371867 
L 183.234618 -338.410176 
L 179.542947 -338.422804 
L 175.851275 -338.408913 
L 172.159604 -338.369425 
L 168.467933 -338.306924 
L 164.776262 -338.225376 
L 161.08459 -338.129712 
L 157.392919 -338.025336 
L 153.701248 -337.917628 
L 150.009576 -337.811497 
L 146.317905 -337.711044 
L 142.626234 -337.619352 
L 138.934563 -337.538412 
L 135.242891 -337.469177 
L 131.55122 -337.411703 
L 127.859549 -337.365347 
L 124.167878 -337.328986 
L 120.476206 -337.301229 
L 116.784535 -337.280596 
L 113.092864 -337.265653 
L 109.401193 -337.255105 
L 105.709521 -337.247846 
z
" style="stroke: #ff7f0e; stroke-width: 2.5"/>
    </defs>
    <g clip-path="url(#p0694965b12)">
     <use xlink:href="#m36811371cd" x="0" y="635.878125" style="fill: #ff7f0e; fill-opacity: 0.5; stroke: #ff7f0e; stroke-width: 2.5"/>
    </g>
   </g>
   <g id="PolyCollection_2">
    <defs>
     <path id="mb6ed1e25b1" d="M 82.176615 -337.245919 
L 82.176615 -337.234647 
L 86.035446 -337.234647 
L 89.894277 -337.234647 
L 93.753107 -337.234647 
L 97.611938 -337.234647 
L 101.470769 -337.234647 
L 105.3296 -337.234647 
L 109.18843 -337.234647 
L 113.047261 -337.234647 
L 116.906092 -337.234647 
L 120.764922 -337.234647 
L 124.623753 -337.234647 
L 128.482584 -337.234647 
L 132.341414 -337.234647 
L 136.200245 -337.234647 
L 140.059076 -337.234647 
L 143.917907 -337.234647 
L 147.776737 -337.234647 
L 151.635568 -337.234647 
L 155.494399 -337.234647 
L 159.353229 -337.234647 
L 163.21206 -337.234647 
L 167.070891 -337.234647 
L 170.929721 -337.234647 
L 174.788552 -337.234647 
L 178.647383 -337.234647 
L 182.506213 -337.234647 
L 186.365044 -337.234647 
L 190.223875 -337.234647 
L 194.082706 -337.234647 
L 197.941536 -337.234647 
L 201.800367 -337.234647 
L 205.659198 -337.234647 
L 209.518028 -337.234647 
L 213.376859 -337.234647 
L 217.23569 -337.234647 
L 221.09452 -337.234647 
L 224.953351 -337.234647 
L 228.812182 -337.234647 
L 232.671012 -337.234647 
L 236.529843 -337.234647 
L 240.388674 -337.234647 
L 244.247505 -337.234647 
L 248.106335 -337.234647 
L 251.965166 -337.234647 
L 255.823997 -337.234647 
L 259.682827 -337.234647 
L 263.541658 -337.234647 
L 267.400489 -337.234647 
L 271.259319 -337.234647 
L 275.11815 -337.234647 
L 278.976981 -337.234647 
L 282.835812 -337.234647 
L 286.694642 -337.234647 
L 290.553473 -337.234647 
L 294.412304 -337.234647 
L 298.271134 -337.234647 
L 302.129965 -337.234647 
L 305.988796 -337.234647 
L 309.847626 -337.234647 
L 313.706457 -337.234647 
L 317.565288 -337.234647 
L 321.424118 -337.234647 
L 325.282949 -337.234647 
L 329.14178 -337.234647 
L 333.000611 -337.234647 
L 336.859441 -337.234647 
L 340.718272 -337.234647 
L 344.577103 -337.234647 
L 348.435933 -337.234647 
L 352.294764 -337.234647 
L 356.153595 -337.234647 
L 360.012425 -337.234647 
L 363.871256 -337.234647 
L 367.730087 -337.234647 
L 371.588917 -337.234647 
L 375.447748 -337.234647 
L 379.306579 -337.234647 
L 383.16541 -337.234647 
L 387.02424 -337.234647 
L 390.883071 -337.234647 
L 394.741902 -337.234647 
L 398.600732 -337.234647 
L 402.459563 -337.234647 
L 406.318394 -337.234647 
L 410.177224 -337.234647 
L 414.036055 -337.234647 
L 417.894886 -337.234647 
L 421.753716 -337.234647 
L 425.612547 -337.234647 
L 429.471378 -337.234647 
L 433.330209 -337.234647 
L 437.189039 -337.234647 
L 441.04787 -337.234647 
L 444.906701 -337.234647 
L 448.765531 -337.234647 
L 452.624362 -337.234647 
L 456.483193 -337.234647 
L 460.342023 -337.234647 
L 464.200854 -337.234647 
L 468.059685 -337.234647 
L 471.918516 -337.234647 
L 475.777346 -337.234647 
L 479.636177 -337.234647 
L 483.495008 -337.234647 
L 487.353838 -337.234647 
L 491.212669 -337.234647 
L 495.0715 -337.234647 
L 498.93033 -337.234647 
L 502.789161 -337.234647 
L 506.647992 -337.234647 
L 510.506822 -337.234647 
L 514.365653 -337.234647 
L 518.224484 -337.234647 
L 522.083315 -337.234647 
L 525.942145 -337.234647 
L 529.800976 -337.234647 
L 533.659807 -337.234647 
L 537.518637 -337.234647 
L 541.377468 -337.234647 
L 545.236299 -337.234647 
L 549.095129 -337.234647 
L 552.95396 -337.234647 
L 556.812791 -337.234647 
L 560.671621 -337.234647 
L 564.530452 -337.234647 
L 568.389283 -337.234647 
L 572.248114 -337.234647 
L 576.106944 -337.234647 
L 579.965775 -337.234647 
L 583.824606 -337.234647 
L 587.683436 -337.234647 
L 591.542267 -337.234647 
L 595.401098 -337.234647 
L 599.259928 -337.234647 
L 603.118759 -337.234647 
L 606.97759 -337.234647 
L 610.836421 -337.234647 
L 614.695251 -337.234647 
L 618.554082 -337.234647 
L 622.412913 -337.234647 
L 626.271743 -337.234647 
L 630.130574 -337.234647 
L 633.989405 -337.234647 
L 637.848235 -337.234647 
L 641.707066 -337.234647 
L 645.565897 -337.234647 
L 649.424727 -337.234647 
L 653.283558 -337.234647 
L 657.142389 -337.234647 
L 661.00122 -337.234647 
L 664.86005 -337.234647 
L 668.718881 -337.234647 
L 672.577712 -337.234647 
L 676.436542 -337.234647 
L 680.295373 -337.234647 
L 684.154204 -337.234647 
L 688.013034 -337.234647 
L 691.871865 -337.234647 
L 695.730696 -337.234647 
L 699.589526 -337.234647 
L 703.448357 -337.234647 
L 707.307188 -337.234647 
L 711.166019 -337.234647 
L 715.024849 -337.234647 
L 718.88368 -337.234647 
L 722.742511 -337.234647 
L 726.601341 -337.234647 
L 730.460172 -337.234647 
L 734.319003 -337.234647 
L 738.177833 -337.234647 
L 742.036664 -337.234647 
L 745.895495 -337.234647 
L 749.754325 -337.234647 
L 753.613156 -337.234647 
L 757.471987 -337.234647 
L 761.330818 -337.234647 
L 765.189648 -337.234647 
L 769.048479 -337.234647 
L 772.90731 -337.234647 
L 776.76614 -337.234647 
L 780.624971 -337.234647 
L 784.483802 -337.234647 
L 788.342632 -337.234647 
L 792.201463 -337.234647 
L 796.060294 -337.234647 
L 799.919125 -337.234647 
L 803.777955 -337.234647 
L 807.636786 -337.234647 
L 811.495617 -337.234647 
L 815.354447 -337.234647 
L 819.213278 -337.234647 
L 823.072109 -337.234647 
L 826.930939 -337.234647 
L 830.78977 -337.234647 
L 834.648601 -337.234647 
L 838.507431 -337.234647 
L 842.366262 -337.234647 
L 846.225093 -337.234647 
L 850.083924 -337.234647 
L 850.083924 -337.252564 
L 850.083924 -337.252564 
L 846.225093 -337.262192 
L 842.366262 -337.276387 
L 838.507431 -337.297014 
L 834.648601 -337.326567 
L 830.78977 -337.36833 
L 826.930939 -337.42657 
L 823.072109 -337.506755 
L 819.213278 -337.615805 
L 815.354447 -337.762366 
L 811.495617 -337.957115 
L 807.636786 -338.213088 
L 803.777955 -338.546019 
L 799.919125 -338.974677 
L 796.060294 -339.52119 
L 792.201463 -340.211315 
L 788.342632 -341.074643 
L 784.483802 -342.144668 
L 780.624971 -343.45872 
L 776.76614 -345.057673 
L 772.90731 -346.985429 
L 769.048479 -349.288124 
L 765.189648 -352.013045 
L 761.330818 -355.20726 
L 757.471987 -358.915968 
L 753.613156 -363.180602 
L 749.754325 -368.036729 
L 745.895495 -373.511799 
L 742.036664 -379.622817 
L 738.177833 -386.374008 
L 734.319003 -393.754565 
L 730.460172 -401.736613 
L 726.601341 -410.273498 
L 722.742511 -419.298595 
L 718.88368 -428.724797 
L 715.024849 -438.444908 
L 711.166019 -448.333094 
L 707.307188 -458.247557 
L 703.448357 -468.034469 
L 699.589526 -477.533114 
L 695.730696 -486.582042 
L 691.871865 -495.025892 
L 688.013034 -502.722412 
L 684.154204 -509.54913 
L 680.295373 -515.409089 
L 676.436542 -520.235131 
L 672.577712 -523.992315 
L 668.718881 -526.678263 
L 664.86005 -528.321421 
L 661.00122 -528.977469 
L 657.142389 -528.724277 
L 653.283558 -527.655962 
L 649.424727 -525.876616 
L 645.565897 -523.494291 
L 641.707066 -520.615687 
L 637.848235 -517.341876 
L 633.989405 -513.765193 
L 630.130574 -509.967318 
L 626.271743 -506.018384 
L 622.412913 -501.976925 
L 618.554082 -497.890401 
L 614.695251 -493.796078 
L 610.836421 -489.722058 
L 606.97759 -485.688334 
L 603.118759 -481.707785 
L 599.259928 -477.787106 
L 595.401098 -473.927672 
L 591.542267 -470.126397 
L 587.683436 -466.376632 
L 583.824606 -462.669151 
L 579.965775 -458.993259 
L 576.106944 -455.338023 
L 572.248114 -451.693603 
L 568.389283 -448.052616 
L 564.530452 -444.411425 
L 560.671621 -440.771234 
L 556.812791 -437.138828 
L 552.95396 -433.526829 
L 549.095129 -429.953362 
L 545.236299 -426.441077 
L 541.377468 -423.015565 
L 537.518637 -419.703274 
L 533.659807 -416.529134 
L 529.800976 -413.514137 
L 525.942145 -410.673173 
L 522.083315 -408.01339 
L 518.224484 -405.533321 
L 514.365653 -403.222907 
L 510.506822 -401.064453 
L 506.647992 -399.034438 
L 502.789161 -397.105967 
L 498.93033 -395.251605 
L 495.0715 -393.446244 
L 491.212669 -391.669685 
L 487.353838 -389.908636 
L 483.495008 -388.157899 
L 479.636177 -386.420645 
L 475.777346 -384.707762 
L 471.918516 -383.036385 
L 468.059685 -381.427822 
L 464.200854 -379.905113 
L 460.342023 -378.490529 
L 456.483193 -377.20327 
L 452.624362 -376.057582 
L 448.765531 -375.06145 
L 444.906701 -374.21593 
L 441.04787 -373.515095 
L 437.189039 -372.946537 
L 433.330209 -372.492263 
L 429.471378 -372.129882 
L 425.612547 -371.833906 
L 421.753716 -371.577089 
L 417.894886 -371.331696 
L 414.036055 -371.070692 
L 410.177224 -370.768804 
L 406.318394 -370.403495 
L 402.459563 -369.95581 
L 398.600732 -369.41113 
L 394.741902 -368.75977 
L 390.883071 -367.997407 
L 387.02424 -367.125273 
L 383.16541 -366.150079 
L 379.306579 -365.083625 
L 375.447748 -363.942093 
L 371.588917 -362.745056 
L 367.730087 -361.514251 
L 363.871256 -360.272211 
L 360.012425 -359.040867 
L 356.153595 -357.84022 
L 352.294764 -356.687214 
L 348.435933 -355.59488 
L 344.577103 -354.571818 
L 340.718272 -353.622055 
L 336.859441 -352.745251 
L 333.000611 -351.937235 
L 329.14178 -351.190785 
L 325.282949 -350.49658 
L 321.424118 -349.844225 
L 317.565288 -349.223247 
L 313.706457 -348.623982 
L 309.847626 -348.038285 
L 305.988796 -347.460014 
L 302.129965 -346.885258 
L 298.271134 -346.312336 
L 294.412304 -345.741576 
L 290.553473 -345.174936 
L 286.694642 -344.615522 
L 282.835812 -344.067069 
L 278.976981 -343.533453 
L 275.11815 -343.018278 
L 271.259319 -342.524571 
L 267.400489 -342.05462 
L 263.541658 -341.609929 
L 259.682827 -341.191301 
L 255.823997 -340.79899 
L 251.965166 -340.432912 
L 248.106335 -340.092857 
L 244.247505 -339.778681 
L 240.388674 -339.49044 
L 236.529843 -339.228451 
L 232.671012 -338.99328 
L 228.812182 -338.785654 
L 224.953351 -338.606308 
L 221.09452 -338.455801 
L 217.23569 -338.334314 
L 213.376859 -338.241455 
L 209.518028 -338.176102 
L 205.659198 -338.136302 
L 201.800367 -338.119234 
L 197.941536 -338.121261 
L 194.082706 -338.138048 
L 190.223875 -338.164763 
L 186.365044 -338.196331 
L 182.506213 -338.227725 
L 178.647383 -338.254271 
L 174.788552 -338.27193 
L 170.929721 -338.27754 
L 167.070891 -338.268988 
L 163.21206 -338.245299 
L 159.353229 -338.206622 
L 155.494399 -338.15414 
L 151.635568 -338.089894 
L 147.776737 -338.016552 
L 143.917907 -337.937145 
L 140.059076 -337.854807 
L 136.200245 -337.772529 
L 132.341414 -337.692964 
L 128.482584 -337.618284 
L 124.623753 -337.550102 
L 120.764922 -337.489452 
L 116.906092 -337.43682 
L 113.047261 -337.39222 
L 109.18843 -337.355283 
L 105.3296 -337.325368 
L 101.470769 -337.301663 
L 97.611938 -337.283274 
L 93.753107 -337.269306 
L 89.894277 -337.258912 
L 86.035446 -337.251334 
L 82.176615 -337.245919 
z
" style="stroke: #1f77b4; stroke-width: 2.5"/>
    </defs>
    <g clip-path="url(#p0694965b12)">
     <use xlink:href="#mb6ed1e25b1" x="0" y="635.878125" style="fill: #1f77b4; fill-opacity: 0.5; stroke: #1f77b4; stroke-width: 2.5"/>
    </g>
   </g>
   <g id="matplotlib.axis_1">
    <g id="xtick_1">
     <g id="line2d_1">
      <defs>
       <path id="m79290da58f" d="M 0 0 
L 0 3.5 
" style="stroke: #000000; stroke-width: 0.8"/>
      </defs>
      <g>
       <use xlink:href="#m79290da58f" x="151.050819" y="298.643478" style="stroke: #000000; stroke-width: 0.8"/>
      </g>
     </g>
     <g id="text_1">
      <!-- 0.0 -->
      <g transform="translate(143.099257 313.241916) scale(0.1 -0.1)">
       <defs>
        <path id="DejaVuSans-30" d="M 2034 4250 
Q 1547 4250 1301 3770 
Q 1056 3291 1056 2328 
Q 1056 1369 1301 889 
Q 1547 409 2034 409 
Q 2525 409 2770 889 
Q 3016 1369 3016 2328 
Q 3016 3291 2770 3770 
Q 2525 4250 2034 4250 
z
M 2034 4750 
Q 2819 4750 3233 4129 
Q 3647 3509 3647 2328 
Q 3647 1150 3233 529 
Q 2819 -91 2034 -91 
Q 1250 -91 836 529 
Q 422 1150 422 2328 
Q 422 3509 836 4129 
Q 1250 4750 2034 4750 
z
" transform="scale(0.015625)"/>
        <path id="DejaVuSans-2e" d="M 684 794 
L 1344 794 
L 1344 0 
L 684 0 
L 684 794 
z
" transform="scale(0.015625)"/>
       </defs>
       <use xlink:href="#DejaVuSans-30"/>
       <use xlink:href="#DejaVuSans-2e" x="63.623047"/>
       <use xlink:href="#DejaVuSans-30" x="95.410156"/>
      </g>
     </g>
    </g>
    <g id="xtick_2">
     <g id="line2d_2">
      <g>
       <use xlink:href="#m79290da58f" x="286.365752" y="298.643478" style="stroke: #000000; stroke-width: 0.8"/>
      </g>
     </g>
     <g id="text_2">
      <!-- 0.2 -->
      <g transform="translate(278.414189 313.241916) scale(0.1 -0.1)">
       <defs>
        <path id="DejaVuSans-32" d="M 1228 531 
L 3431 531 
L 3431 0 
L 469 0 
L 469 531 
Q 828 903 1448 1529 
Q 2069 2156 2228 2338 
Q 2531 2678 2651 2914 
Q 2772 3150 2772 3378 
Q 2772 3750 2511 3984 
Q 2250 4219 1831 4219 
Q 1534 4219 1204 4116 
Q 875 4013 500 3803 
L 500 4441 
Q 881 4594 1212 4672 
Q 1544 4750 1819 4750 
Q 2544 4750 2975 4387 
Q 3406 4025 3406 3419 
Q 3406 3131 3298 2873 
Q 3191 2616 2906 2266 
Q 2828 2175 2409 1742 
Q 1991 1309 1228 531 
z
" transform="scale(0.015625)"/>
       </defs>
       <use xlink:href="#DejaVuSans-30"/>
       <use xlink:href="#DejaVuSans-2e" x="63.623047"/>
       <use xlink:href="#DejaVuSans-32" x="95.410156"/>
      </g>
     </g>
    </g>
    <g id="xtick_3">
     <g id="line2d_3">
      <g>
       <use xlink:href="#m79290da58f" x="421.680684" y="298.643478" style="stroke: #000000; stroke-width: 0.8"/>
      </g>
     </g>
     <g id="text_3">
      <!-- 0.4 -->
      <g transform="translate(413.729121 313.241916) scale(0.1 -0.1)">
       <defs>
        <path id="DejaVuSans-34" d="M 2419 4116 
L 825 1625 
L 2419 1625 
L 2419 4116 
z
M 2253 4666 
L 3047 4666 
L 3047 1625 
L 3713 1625 
L 3713 1100 
L 3047 1100 
L 3047 0 
L 2419 0 
L 2419 1100 
L 313 1100 
L 313 1709 
L 2253 4666 
z
" transform="scale(0.015625)"/>
       </defs>
       <use xlink:href="#DejaVuSans-30"/>
       <use xlink:href="#DejaVuSans-2e" x="63.623047"/>
       <use xlink:href="#DejaVuSans-34" x="95.410156"/>
      </g>
     </g>
    </g>
    <g id="xtick_4">
     <g id="line2d_4">
      <g>
       <use xlink:href="#m79290da58f" x="556.995616" y="298.643478" style="stroke: #000000; stroke-width: 0.8"/>
      </g>
     </g>
     <g id="text_4">
      <!-- 0.6 -->
      <g transform="translate(549.044054 313.241916) scale(0.1 -0.1)">
       <defs>
        <path id="DejaVuSans-36" d="M 2113 2584 
Q 1688 2584 1439 2293 
Q 1191 2003 1191 1497 
Q 1191 994 1439 701 
Q 1688 409 2113 409 
Q 2538 409 2786 701 
Q 3034 994 3034 1497 
Q 3034 2003 2786 2293 
Q 2538 2584 2113 2584 
z
M 3366 4563 
L 3366 3988 
Q 3128 4100 2886 4159 
Q 2644 4219 2406 4219 
Q 1781 4219 1451 3797 
Q 1122 3375 1075 2522 
Q 1259 2794 1537 2939 
Q 1816 3084 2150 3084 
Q 2853 3084 3261 2657 
Q 3669 2231 3669 1497 
Q 3669 778 3244 343 
Q 2819 -91 2113 -91 
Q 1303 -91 875 529 
Q 447 1150 447 2328 
Q 447 3434 972 4092 
Q 1497 4750 2381 4750 
Q 2619 4750 2861 4703 
Q 3103 4656 3366 4563 
z
" transform="scale(0.015625)"/>
       </defs>
       <use xlink:href="#DejaVuSans-30"/>
       <use xlink:href="#DejaVuSans-2e" x="63.623047"/>
       <use xlink:href="#DejaVuSans-36" x="95.410156"/>
      </g>
     </g>
    </g>
    <g id="xtick_5">
     <g id="line2d_5">
      <g>
       <use xlink:href="#m79290da58f" x="692.310549" y="298.643478" style="stroke: #000000; stroke-width: 0.8"/>
      </g>
     </g>
     <g id="text_5">
      <!-- 0.8 -->
      <g transform="translate(684.358986 313.241916) scale(0.1 -0.1)">
       <defs>
        <path id="DejaVuSans-38" d="M 2034 2216 
Q 1584 2216 1326 1975 
Q 1069 1734 1069 1313 
Q 1069 891 1326 650 
Q 1584 409 2034 409 
Q 2484 409 2743 651 
Q 3003 894 3003 1313 
Q 3003 1734 2745 1975 
Q 2488 2216 2034 2216 
z
M 1403 2484 
Q 997 2584 770 2862 
Q 544 3141 544 3541 
Q 544 4100 942 4425 
Q 1341 4750 2034 4750 
Q 2731 4750 3128 4425 
Q 3525 4100 3525 3541 
Q 3525 3141 3298 2862 
Q 3072 2584 2669 2484 
Q 3125 2378 3379 2068 
Q 3634 1759 3634 1313 
Q 3634 634 3220 271 
Q 2806 -91 2034 -91 
Q 1263 -91 848 271 
Q 434 634 434 1313 
Q 434 1759 690 2068 
Q 947 2378 1403 2484 
z
M 1172 3481 
Q 1172 3119 1398 2916 
Q 1625 2713 2034 2713 
Q 2441 2713 2670 2916 
Q 2900 3119 2900 3481 
Q 2900 3844 2670 4047 
Q 2441 4250 2034 4250 
Q 1625 4250 1398 4047 
Q 1172 3844 1172 3481 
z
" transform="scale(0.015625)"/>
       </defs>
       <use xlink:href="#DejaVuSans-30"/>
       <use xlink:href="#DejaVuSans-2e" x="63.623047"/>
       <use xlink:href="#DejaVuSans-38" x="95.410156"/>
      </g>
     </g>
    </g>
    <g id="xtick_6">
     <g id="line2d_6">
      <g>
       <use xlink:href="#m79290da58f" x="827.625481" y="298.643478" style="stroke: #000000; stroke-width: 0.8"/>
      </g>
     </g>
     <g id="text_6">
      <!-- 1.0 -->
      <g transform="translate(819.673918 313.241916) scale(0.1 -0.1)">
       <defs>
        <path id="DejaVuSans-31" d="M 794 531 
L 1825 531 
L 1825 4091 
L 703 3866 
L 703 4441 
L 1819 4666 
L 2450 4666 
L 2450 531 
L 3481 531 
L 3481 0 
L 794 0 
L 794 531 
z
" transform="scale(0.015625)"/>
       </defs>
       <use xlink:href="#DejaVuSans-31"/>
       <use xlink:href="#DejaVuSans-2e" x="63.623047"/>
       <use xlink:href="#DejaVuSans-30" x="95.410156"/>
      </g>
     </g>
    </g>
   </g>
   <g id="matplotlib.axis_2">
    <g id="ytick_1">
     <g id="line2d_7">
      <defs>
       <path id="m8e5ac7a471" d="M 0 0 
L -3.5 0 
" style="stroke: #000000; stroke-width: 0.8"/>
      </defs>
      <g>
       <use xlink:href="#m8e5ac7a471" x="43.78125" y="298.643478" style="stroke: #000000; stroke-width: 0.8"/>
      </g>
     </g>
     <g id="text_7">
      <!-- 0.0 -->
      <g transform="translate(20.878125 302.442697) scale(0.1 -0.1)">
       <use xlink:href="#DejaVuSans-30"/>
       <use xlink:href="#DejaVuSans-2e" x="63.623047"/>
       <use xlink:href="#DejaVuSans-30" x="95.410156"/>
      </g>
     </g>
    </g>
    <g id="ytick_2">
     <g id="line2d_8">
      <g>
       <use xlink:href="#m8e5ac7a471" x="43.78125" y="270.658737" style="stroke: #000000; stroke-width: 0.8"/>
      </g>
     </g>
     <g id="text_8">
      <!-- 0.5 -->
      <g transform="translate(20.878125 274.457955) scale(0.1 -0.1)">
       <defs>
        <path id="DejaVuSans-35" d="M 691 4666 
L 3169 4666 
L 3169 4134 
L 1269 4134 
L 1269 2991 
Q 1406 3038 1543 3061 
Q 1681 3084 1819 3084 
Q 2600 3084 3056 2656 
Q 3513 2228 3513 1497 
Q 3513 744 3044 326 
Q 2575 -91 1722 -91 
Q 1428 -91 1123 -41 
Q 819 9 494 109 
L 494 744 
Q 775 591 1075 516 
Q 1375 441 1709 441 
Q 2250 441 2565 725 
Q 2881 1009 2881 1497 
Q 2881 1984 2565 2268 
Q 2250 2553 1709 2553 
Q 1456 2553 1204 2497 
Q 953 2441 691 2322 
L 691 4666 
z
" transform="scale(0.015625)"/>
       </defs>
       <use xlink:href="#DejaVuSans-30"/>
       <use xlink:href="#DejaVuSans-2e" x="63.623047"/>
       <use xlink:href="#DejaVuSans-35" x="95.410156"/>
      </g>
     </g>
    </g>
    <g id="ytick_3">
     <g id="line2d_9">
      <g>
       <use xlink:href="#m8e5ac7a471" x="43.78125" y="242.673995" style="stroke: #000000; stroke-width: 0.8"/>
      </g>
     </g>
     <g id="text_9">
      <!-- 1.0 -->
      <g transform="translate(20.878125 246.473214) scale(0.1 -0.1)">
       <use xlink:href="#DejaVuSans-31"/>
       <use xlink:href="#DejaVuSans-2e" x="63.623047"/>
       <use xlink:href="#DejaVuSans-30" x="95.410156"/>
      </g>
     </g>
    </g>
    <g id="ytick_4">
     <g id="line2d_10">
      <g>
       <use xlink:href="#m8e5ac7a471" x="43.78125" y="214.689253" style="stroke: #000000; stroke-width: 0.8"/>
      </g>
     </g>
     <g id="text_10">
      <!-- 1.5 -->
      <g transform="translate(20.878125 218.488472) scale(0.1 -0.1)">
       <use xlink:href="#DejaVuSans-31"/>
       <use xlink:href="#DejaVuSans-2e" x="63.623047"/>
       <use xlink:href="#DejaVuSans-35" x="95.410156"/>
      </g>
     </g>
    </g>
    <g id="ytick_5">
     <g id="line2d_11">
      <g>
       <use xlink:href="#m8e5ac7a471" x="43.78125" y="186.704511" style="stroke: #000000; stroke-width: 0.8"/>
      </g>
     </g>
     <g id="text_11">
      <!-- 2.0 -->
      <g transform="translate(20.878125 190.50373) scale(0.1 -0.1)">
       <use xlink:href="#DejaVuSans-32"/>
       <use xlink:href="#DejaVuSans-2e" x="63.623047"/>
       <use xlink:href="#DejaVuSans-30" x="95.410156"/>
      </g>
     </g>
    </g>
    <g id="ytick_6">
     <g id="line2d_12">
      <g>
       <use xlink:href="#m8e5ac7a471" x="43.78125" y="158.71977" style="stroke: #000000; stroke-width: 0.8"/>
      </g>
     </g>
     <g id="text_12">
      <!-- 2.5 -->
      <g transform="translate(20.878125 162.518988) scale(0.1 -0.1)">
       <use xlink:href="#DejaVuSans-32"/>
       <use xlink:href="#DejaVuSans-2e" x="63.623047"/>
       <use xlink:href="#DejaVuSans-35" x="95.410156"/>
      </g>
     </g>
    </g>
    <g id="ytick_7">
     <g id="line2d_13">
      <g>
       <use xlink:href="#m8e5ac7a471" x="43.78125" y="130.735028" style="stroke: #000000; stroke-width: 0.8"/>
      </g>
     </g>
     <g id="text_13">
      <!-- 3.0 -->
      <g transform="translate(20.878125 134.534247) scale(0.1 -0.1)">
       <defs>
        <path id="DejaVuSans-33" d="M 2597 2516 
Q 3050 2419 3304 2112 
Q 3559 1806 3559 1356 
Q 3559 666 3084 287 
Q 2609 -91 1734 -91 
Q 1441 -91 1130 -33 
Q 819 25 488 141 
L 488 750 
Q 750 597 1062 519 
Q 1375 441 1716 441 
Q 2309 441 2620 675 
Q 2931 909 2931 1356 
Q 2931 1769 2642 2001 
Q 2353 2234 1838 2234 
L 1294 2234 
L 1294 2753 
L 1863 2753 
Q 2328 2753 2575 2939 
Q 2822 3125 2822 3475 
Q 2822 3834 2567 4026 
Q 2313 4219 1838 4219 
Q 1578 4219 1281 4162 
Q 984 4106 628 3988 
L 628 4550 
Q 988 4650 1302 4700 
Q 1616 4750 1894 4750 
Q 2613 4750 3031 4423 
Q 3450 4097 3450 3541 
Q 3450 3153 3228 2886 
Q 3006 2619 2597 2516 
z
" transform="scale(0.015625)"/>
       </defs>
       <use xlink:href="#DejaVuSans-33"/>
       <use xlink:href="#DejaVuSans-2e" x="63.623047"/>
       <use xlink:href="#DejaVuSans-30" x="95.410156"/>
      </g>
     </g>
    </g>
    <g id="ytick_8">
     <g id="line2d_14">
      <g>
       <use xlink:href="#m8e5ac7a471" x="43.78125" y="102.750286" style="stroke: #000000; stroke-width: 0.8"/>
      </g>
     </g>
     <g id="text_14">
      <!-- 3.5 -->
      <g transform="translate(20.878125 106.549505) scale(0.1 -0.1)">
       <use xlink:href="#DejaVuSans-33"/>
       <use xlink:href="#DejaVuSans-2e" x="63.623047"/>
       <use xlink:href="#DejaVuSans-35" x="95.410156"/>
      </g>
     </g>
    </g>
    <g id="ytick_9">
     <g id="line2d_15">
      <g>
       <use xlink:href="#m8e5ac7a471" x="43.78125" y="74.765544" style="stroke: #000000; stroke-width: 0.8"/>
      </g>
     </g>
     <g id="text_15">
      <!-- 4.0 -->
      <g transform="translate(20.878125 78.564763) scale(0.1 -0.1)">
       <use xlink:href="#DejaVuSans-34"/>
       <use xlink:href="#DejaVuSans-2e" x="63.623047"/>
       <use xlink:href="#DejaVuSans-30" x="95.410156"/>
      </g>
     </g>
    </g>
    <g id="text_16">
     <!-- Density -->
     <g transform="translate(14.798438 197.130333) rotate(-90) scale(0.1 -0.1)">
      <defs>
       <path id="DejaVuSans-44" d="M 1259 4147 
L 1259 519 
L 2022 519 
Q 2988 519 3436 956 
Q 3884 1394 3884 2338 
Q 3884 3275 3436 3711 
Q 2988 4147 2022 4147 
L 1259 4147 
z
M 628 4666 
L 1925 4666 
Q 3281 4666 3915 4102 
Q 4550 3538 4550 2338 
Q 4550 1131 3912 565 
Q 3275 0 1925 0 
L 628 0 
L 628 4666 
z
" transform="scale(0.015625)"/>
       <path id="DejaVuSans-65" d="M 3597 1894 
L 3597 1613 
L 953 1613 
Q 991 1019 1311 708 
Q 1631 397 2203 397 
Q 2534 397 2845 478 
Q 3156 559 3463 722 
L 3463 178 
Q 3153 47 2828 -22 
Q 2503 -91 2169 -91 
Q 1331 -91 842 396 
Q 353 884 353 1716 
Q 353 2575 817 3079 
Q 1281 3584 2069 3584 
Q 2775 3584 3186 3129 
Q 3597 2675 3597 1894 
z
M 3022 2063 
Q 3016 2534 2758 2815 
Q 2500 3097 2075 3097 
Q 1594 3097 1305 2825 
Q 1016 2553 972 2059 
L 3022 2063 
z
" transform="scale(0.015625)"/>
       <path id="DejaVuSans-6e" d="M 3513 2113 
L 3513 0 
L 2938 0 
L 2938 2094 
Q 2938 2591 2744 2837 
Q 2550 3084 2163 3084 
Q 1697 3084 1428 2787 
Q 1159 2491 1159 1978 
L 1159 0 
L 581 0 
L 581 3500 
L 1159 3500 
L 1159 2956 
Q 1366 3272 1645 3428 
Q 1925 3584 2291 3584 
Q 2894 3584 3203 3211 
Q 3513 2838 3513 2113 
z
" transform="scale(0.015625)"/>
       <path id="DejaVuSans-73" d="M 2834 3397 
L 2834 2853 
Q 2591 2978 2328 3040 
Q 2066 3103 1784 3103 
Q 1356 3103 1142 2972 
Q 928 2841 928 2578 
Q 928 2378 1081 2264 
Q 1234 2150 1697 2047 
L 1894 2003 
Q 2506 1872 2764 1633 
Q 3022 1394 3022 966 
Q 3022 478 2636 193 
Q 2250 -91 1575 -91 
Q 1294 -91 989 -36 
Q 684 19 347 128 
L 347 722 
Q 666 556 975 473 
Q 1284 391 1588 391 
Q 1994 391 2212 530 
Q 2431 669 2431 922 
Q 2431 1156 2273 1281 
Q 2116 1406 1581 1522 
L 1381 1569 
Q 847 1681 609 1914 
Q 372 2147 372 2553 
Q 372 3047 722 3315 
Q 1072 3584 1716 3584 
Q 2034 3584 2315 3537 
Q 2597 3491 2834 3397 
z
" transform="scale(0.015625)"/>
       <path id="DejaVuSans-69" d="M 603 3500 
L 1178 3500 
L 1178 0 
L 603 0 
L 603 3500 
z
M 603 4863 
L 1178 4863 
L 1178 4134 
L 603 4134 
L 603 4863 
z
" transform="scale(0.015625)"/>
       <path id="DejaVuSans-74" d="M 1172 4494 
L 1172 3500 
L 2356 3500 
L 2356 3053 
L 1172 3053 
L 1172 1153 
Q 1172 725 1289 603 
Q 1406 481 1766 481 
L 2356 481 
L 2356 0 
L 1766 0 
Q 1100 0 847 248 
Q 594 497 594 1153 
L 594 3053 
L 172 3053 
L 172 3500 
L 594 3500 
L 594 4494 
L 1172 4494 
z
" transform="scale(0.015625)"/>
       <path id="DejaVuSans-79" d="M 2059 -325 
Q 1816 -950 1584 -1140 
Q 1353 -1331 966 -1331 
L 506 -1331 
L 506 -850 
L 844 -850 
Q 1081 -850 1212 -737 
Q 1344 -625 1503 -206 
L 1606 56 
L 191 3500 
L 800 3500 
L 1894 763 
L 2988 3500 
L 3597 3500 
L 2059 -325 
z
" transform="scale(0.015625)"/>
      </defs>
      <use xlink:href="#DejaVuSans-44"/>
      <use xlink:href="#DejaVuSans-65" x="77.001953"/>
      <use xlink:href="#DejaVuSans-6e" x="138.525391"/>
      <use xlink:href="#DejaVuSans-73" x="201.904297"/>
      <use xlink:href="#DejaVuSans-69" x="254.003906"/>
      <use xlink:href="#DejaVuSans-74" x="281.787109"/>
      <use xlink:href="#DejaVuSans-79" x="320.996094"/>
     </g>
    </g>
   </g>
   <g id="patch_3">
    <path d="M 43.78125 298.643478 
L 43.78125 57.6 
" style="fill: none; stroke: #000000; stroke-width: 0.8; stroke-linejoin: miter; stroke-linecap: square"/>
   </g>
   <g id="patch_4">
    <path d="M 880.78125 298.643478 
L 880.78125 57.6 
" style="fill: none; stroke: #000000; stroke-width: 0.8; stroke-linejoin: miter; stroke-linecap: square"/>
   </g>
   <g id="patch_5">
    <path d="M 43.78125 298.643478 
L 880.78125 298.643478 
" style="fill: none; stroke: #000000; stroke-width: 0.8; stroke-linejoin: miter; stroke-linecap: square"/>
   </g>
   <g id="patch_6">
    <path d="M 43.78125 57.6 
L 880.78125 57.6 
" style="fill: none; stroke: #000000; stroke-width: 0.8; stroke-linejoin: miter; stroke-linecap: square"/>
   </g>
   <g id="text_17">
    <!-- Pearson correlation coefficients -->
    <g transform="translate(367.949062 51.6) scale(0.12 -0.12)">
     <defs>
      <path id="DejaVuSans-50" d="M 1259 4147 
L 1259 2394 
L 2053 2394 
Q 2494 2394 2734 2622 
Q 2975 2850 2975 3272 
Q 2975 3691 2734 3919 
Q 2494 4147 2053 4147 
L 1259 4147 
z
M 628 4666 
L 2053 4666 
Q 2838 4666 3239 4311 
Q 3641 3956 3641 3272 
Q 3641 2581 3239 2228 
Q 2838 1875 2053 1875 
L 1259 1875 
L 1259 0 
L 628 0 
L 628 4666 
z
" transform="scale(0.015625)"/>
      <path id="DejaVuSans-61" d="M 2194 1759 
Q 1497 1759 1228 1600 
Q 959 1441 959 1056 
Q 959 750 1161 570 
Q 1363 391 1709 391 
Q 2188 391 2477 730 
Q 2766 1069 2766 1631 
L 2766 1759 
L 2194 1759 
z
M 3341 1997 
L 3341 0 
L 2766 0 
L 2766 531 
Q 2569 213 2275 61 
Q 1981 -91 1556 -91 
Q 1019 -91 701 211 
Q 384 513 384 1019 
Q 384 1609 779 1909 
Q 1175 2209 1959 2209 
L 2766 2209 
L 2766 2266 
Q 2766 2663 2505 2880 
Q 2244 3097 1772 3097 
Q 1472 3097 1187 3025 
Q 903 2953 641 2809 
L 641 3341 
Q 956 3463 1253 3523 
Q 1550 3584 1831 3584 
Q 2591 3584 2966 3190 
Q 3341 2797 3341 1997 
z
" transform="scale(0.015625)"/>
      <path id="DejaVuSans-72" d="M 2631 2963 
Q 2534 3019 2420 3045 
Q 2306 3072 2169 3072 
Q 1681 3072 1420 2755 
Q 1159 2438 1159 1844 
L 1159 0 
L 581 0 
L 581 3500 
L 1159 3500 
L 1159 2956 
Q 1341 3275 1631 3429 
Q 1922 3584 2338 3584 
Q 2397 3584 2469 3576 
Q 2541 3569 2628 3553 
L 2631 2963 
z
" transform="scale(0.015625)"/>
      <path id="DejaVuSans-6f" d="M 1959 3097 
Q 1497 3097 1228 2736 
Q 959 2375 959 1747 
Q 959 1119 1226 758 
Q 1494 397 1959 397 
Q 2419 397 2687 759 
Q 2956 1122 2956 1747 
Q 2956 2369 2687 2733 
Q 2419 3097 1959 3097 
z
M 1959 3584 
Q 2709 3584 3137 3096 
Q 3566 2609 3566 1747 
Q 3566 888 3137 398 
Q 2709 -91 1959 -91 
Q 1206 -91 779 398 
Q 353 888 353 1747 
Q 353 2609 779 3096 
Q 1206 3584 1959 3584 
z
" transform="scale(0.015625)"/>
      <path id="DejaVuSans-20" transform="scale(0.015625)"/>
      <path id="DejaVuSans-63" d="M 3122 3366 
L 3122 2828 
Q 2878 2963 2633 3030 
Q 2388 3097 2138 3097 
Q 1578 3097 1268 2742 
Q 959 2388 959 1747 
Q 959 1106 1268 751 
Q 1578 397 2138 397 
Q 2388 397 2633 464 
Q 2878 531 3122 666 
L 3122 134 
Q 2881 22 2623 -34 
Q 2366 -91 2075 -91 
Q 1284 -91 818 406 
Q 353 903 353 1747 
Q 353 2603 823 3093 
Q 1294 3584 2113 3584 
Q 2378 3584 2631 3529 
Q 2884 3475 3122 3366 
z
" transform="scale(0.015625)"/>
      <path id="DejaVuSans-6c" d="M 603 4863 
L 1178 4863 
L 1178 0 
L 603 0 
L 603 4863 
z
" transform="scale(0.015625)"/>
      <path id="DejaVuSans-66" d="M 2375 4863 
L 2375 4384 
L 1825 4384 
Q 1516 4384 1395 4259 
Q 1275 4134 1275 3809 
L 1275 3500 
L 2222 3500 
L 2222 3053 
L 1275 3053 
L 1275 0 
L 697 0 
L 697 3053 
L 147 3053 
L 147 3500 
L 697 3500 
L 697 3744 
Q 697 4328 969 4595 
Q 1241 4863 1831 4863 
L 2375 4863 
z
" transform="scale(0.015625)"/>
     </defs>
     <use xlink:href="#DejaVuSans-50"/>
     <use xlink:href="#DejaVuSans-65" x="56.677734"/>
     <use xlink:href="#DejaVuSans-61" x="118.201172"/>
     <use xlink:href="#DejaVuSans-72" x="179.480469"/>
     <use xlink:href="#DejaVuSans-73" x="220.59375"/>
     <use xlink:href="#DejaVuSans-6f" x="272.693359"/>
     <use xlink:href="#DejaVuSans-6e" x="333.875"/>
     <use xlink:href="#DejaVuSans-20" x="397.253906"/>
     <use xlink:href="#DejaVuSans-63" x="429.041016"/>
     <use xlink:href="#DejaVuSans-6f" x="484.021484"/>
     <use xlink:href="#DejaVuSans-72" x="545.203125"/>
     <use xlink:href="#DejaVuSans-72" x="584.566406"/>
     <use xlink:href="#DejaVuSans-65" x="623.429688"/>
     <use xlink:href="#DejaVuSans-6c" x="684.953125"/>
     <use xlink:href="#DejaVuSans-61" x="712.736328"/>
     <use xlink:href="#DejaVuSans-74" x="774.015625"/>
     <use xlink:href="#DejaVuSans-69" x="813.224609"/>
     <use xlink:href="#DejaVuSans-6f" x="841.007812"/>
     <use xlink:href="#DejaVuSans-6e" x="902.189453"/>
     <use xlink:href="#DejaVuSans-20" x="965.568359"/>
     <use xlink:href="#DejaVuSans-63" x="997.355469"/>
     <use xlink:href="#DejaVuSans-6f" x="1052.335938"/>
     <use xlink:href="#DejaVuSans-65" x="1113.517578"/>
     <use xlink:href="#DejaVuSans-66" x="1175.041016"/>
     <use xlink:href="#DejaVuSans-66" x="1210.246094"/>
     <use xlink:href="#DejaVuSans-69" x="1245.451172"/>
     <use xlink:href="#DejaVuSans-63" x="1273.234375"/>
     <use xlink:href="#DejaVuSans-69" x="1328.214844"/>
     <use xlink:href="#DejaVuSans-65" x="1355.998047"/>
     <use xlink:href="#DejaVuSans-6e" x="1417.521484"/>
     <use xlink:href="#DejaVuSans-74" x="1480.900391"/>
     <use xlink:href="#DejaVuSans-73" x="1520.109375"/>
    </g>
   </g>
   <g id="legend_1">
    <g id="patch_7">
     <path d="M 50.78125 109.634375 
L 138.80625 109.634375 
Q 140.80625 109.634375 140.80625 107.634375 
L 140.80625 64.6 
Q 140.80625 62.6 138.80625 62.6 
L 50.78125 62.6 
Q 48.78125 62.6 48.78125 64.6 
L 48.78125 107.634375 
Q 48.78125 109.634375 50.78125 109.634375 
z
" style="fill: #ffffff; opacity: 0.8; stroke: #cccccc; stroke-linejoin: miter"/>
    </g>
    <g id="text_18">
     <!-- Correlation type: -->
     <g transform="translate(52.78125 74.198437) scale(0.1 -0.1)">
      <defs>
       <path id="DejaVuSans-43" d="M 4122 4306 
L 4122 3641 
Q 3803 3938 3442 4084 
Q 3081 4231 2675 4231 
Q 1875 4231 1450 3742 
Q 1025 3253 1025 2328 
Q 1025 1406 1450 917 
Q 1875 428 2675 428 
Q 3081 428 3442 575 
Q 3803 722 4122 1019 
L 4122 359 
Q 3791 134 3420 21 
Q 3050 -91 2638 -91 
Q 1578 -91 968 557 
Q 359 1206 359 2328 
Q 359 3453 968 4101 
Q 1578 4750 2638 4750 
Q 3056 4750 3426 4639 
Q 3797 4528 4122 4306 
z
" transform="scale(0.015625)"/>
       <path id="DejaVuSans-70" d="M 1159 525 
L 1159 -1331 
L 581 -1331 
L 581 3500 
L 1159 3500 
L 1159 2969 
Q 1341 3281 1617 3432 
Q 1894 3584 2278 3584 
Q 2916 3584 3314 3078 
Q 3713 2572 3713 1747 
Q 3713 922 3314 415 
Q 2916 -91 2278 -91 
Q 1894 -91 1617 61 
Q 1341 213 1159 525 
z
M 3116 1747 
Q 3116 2381 2855 2742 
Q 2594 3103 2138 3103 
Q 1681 3103 1420 2742 
Q 1159 2381 1159 1747 
Q 1159 1113 1420 752 
Q 1681 391 2138 391 
Q 2594 391 2855 752 
Q 3116 1113 3116 1747 
z
" transform="scale(0.015625)"/>
       <path id="DejaVuSans-3a" d="M 750 794 
L 1409 794 
L 1409 0 
L 750 0 
L 750 794 
z
M 750 3309 
L 1409 3309 
L 1409 2516 
L 750 2516 
L 750 3309 
z
" transform="scale(0.015625)"/>
      </defs>
      <use xlink:href="#DejaVuSans-43"/>
      <use xlink:href="#DejaVuSans-6f" x="69.824219"/>
      <use xlink:href="#DejaVuSans-72" x="131.005859"/>
      <use xlink:href="#DejaVuSans-72" x="170.369141"/>
      <use xlink:href="#DejaVuSans-65" x="209.232422"/>
      <use xlink:href="#DejaVuSans-6c" x="270.755859"/>
      <use xlink:href="#DejaVuSans-61" x="298.539062"/>
      <use xlink:href="#DejaVuSans-74" x="359.818359"/>
      <use xlink:href="#DejaVuSans-69" x="399.027344"/>
      <use xlink:href="#DejaVuSans-6f" x="426.810547"/>
      <use xlink:href="#DejaVuSans-6e" x="487.992188"/>
      <use xlink:href="#DejaVuSans-20" x="551.371094"/>
      <use xlink:href="#DejaVuSans-74" x="583.158203"/>
      <use xlink:href="#DejaVuSans-79" x="622.367188"/>
      <use xlink:href="#DejaVuSans-70" x="681.546875"/>
      <use xlink:href="#DejaVuSans-65" x="745.023438"/>
      <use xlink:href="#DejaVuSans-3a" x="806.546875"/>
     </g>
    </g>
    <g id="patch_8">
     <path d="M 53.285156 88.876562 
L 73.285156 88.876562 
L 73.285156 81.876562 
L 53.285156 81.876562 
z
" style="fill: #1f77b4; fill-opacity: 0.5; stroke: #1f77b4; stroke-width: 2.5; stroke-linejoin: miter"/>
    </g>
    <g id="text_19">
     <!-- Codon -->
     <g transform="translate(81.285156 88.876562) scale(0.1 -0.1)">
      <defs>
       <path id="DejaVuSans-64" d="M 2906 2969 
L 2906 4863 
L 3481 4863 
L 3481 0 
L 2906 0 
L 2906 525 
Q 2725 213 2448 61 
Q 2172 -91 1784 -91 
Q 1150 -91 751 415 
Q 353 922 353 1747 
Q 353 2572 751 3078 
Q 1150 3584 1784 3584 
Q 2172 3584 2448 3432 
Q 2725 3281 2906 2969 
z
M 947 1747 
Q 947 1113 1208 752 
Q 1469 391 1925 391 
Q 2381 391 2643 752 
Q 2906 1113 2906 1747 
Q 2906 2381 2643 2742 
Q 2381 3103 1925 3103 
Q 1469 3103 1208 2742 
Q 947 2381 947 1747 
z
" transform="scale(0.015625)"/>
      </defs>
      <use xlink:href="#DejaVuSans-43"/>
      <use xlink:href="#DejaVuSans-6f" x="69.824219"/>
      <use xlink:href="#DejaVuSans-64" x="131.005859"/>
      <use xlink:href="#DejaVuSans-6f" x="194.482422"/>
      <use xlink:href="#DejaVuSans-6e" x="255.664062"/>
     </g>
    </g>
    <g id="patch_9">
     <path d="M 53.285156 103.554688 
L 73.285156 103.554688 
L 73.285156 96.554688 
L 53.285156 96.554688 
z
" style="fill: #ff7f0e; fill-opacity: 0.5; stroke: #ff7f0e; stroke-width: 2.5; stroke-linejoin: miter"/>
    </g>
    <g id="text_20">
     <!-- Codon+GC -->
     <g transform="translate(81.285156 103.554688) scale(0.1 -0.1)">
      <defs>
       <path id="DejaVuSans-2b" d="M 2944 4013 
L 2944 2272 
L 4684 2272 
L 4684 1741 
L 2944 1741 
L 2944 0 
L 2419 0 
L 2419 1741 
L 678 1741 
L 678 2272 
L 2419 2272 
L 2419 4013 
L 2944 4013 
z
" transform="scale(0.015625)"/>
       <path id="DejaVuSans-47" d="M 3809 666 
L 3809 1919 
L 2778 1919 
L 2778 2438 
L 4434 2438 
L 4434 434 
Q 4069 175 3628 42 
Q 3188 -91 2688 -91 
Q 1594 -91 976 548 
Q 359 1188 359 2328 
Q 359 3472 976 4111 
Q 1594 4750 2688 4750 
Q 3144 4750 3555 4637 
Q 3966 4525 4313 4306 
L 4313 3634 
Q 3963 3931 3569 4081 
Q 3175 4231 2741 4231 
Q 1884 4231 1454 3753 
Q 1025 3275 1025 2328 
Q 1025 1384 1454 906 
Q 1884 428 2741 428 
Q 3075 428 3337 486 
Q 3600 544 3809 666 
z
" transform="scale(0.015625)"/>
      </defs>
      <use xlink:href="#DejaVuSans-43"/>
      <use xlink:href="#DejaVuSans-6f" x="69.824219"/>
      <use xlink:href="#DejaVuSans-64" x="131.005859"/>
      <use xlink:href="#DejaVuSans-6f" x="194.482422"/>
      <use xlink:href="#DejaVuSans-6e" x="255.664062"/>
      <use xlink:href="#DejaVuSans-2b" x="319.042969"/>
      <use xlink:href="#DejaVuSans-47" x="402.832031"/>
      <use xlink:href="#DejaVuSans-43" x="480.322266"/>
     </g>
    </g>
   </g>
  </g>
  <g id="axes_2">
   <g id="patch_10">
    <path d="M 43.78125 612 
L 880.78125 612 
L 880.78125 370.956522 
L 43.78125 370.956522 
z
" style="fill: #ffffff"/>
   </g>
   <g id="PolyCollection_3">
    <defs>
     <path id="mea6344d6c2" d="M 175.867557 -23.891595 
L 175.867557 -23.878125 
L 179.238926 -23.878125 
L 182.610296 -23.878125 
L 185.981665 -23.878125 
L 189.353035 -23.878125 
L 192.724404 -23.878125 
L 196.095774 -23.878125 
L 199.467144 -23.878125 
L 202.838513 -23.878125 
L 206.209883 -23.878125 
L 209.581252 -23.878125 
L 212.952622 -23.878125 
L 216.323991 -23.878125 
L 219.695361 -23.878125 
L 223.066731 -23.878125 
L 226.4381 -23.878125 
L 229.80947 -23.878125 
L 233.180839 -23.878125 
L 236.552209 -23.878125 
L 239.923578 -23.878125 
L 243.294948 -23.878125 
L 246.666318 -23.878125 
L 250.037687 -23.878125 
L 253.409057 -23.878125 
L 256.780426 -23.878125 
L 260.151796 -23.878125 
L 263.523165 -23.878125 
L 266.894535 -23.878125 
L 270.265904 -23.878125 
L 273.637274 -23.878125 
L 277.008644 -23.878125 
L 280.380013 -23.878125 
L 283.751383 -23.878125 
L 287.122752 -23.878125 
L 290.494122 -23.878125 
L 293.865491 -23.878125 
L 297.236861 -23.878125 
L 300.608231 -23.878125 
L 303.9796 -23.878125 
L 307.35097 -23.878125 
L 310.722339 -23.878125 
L 314.093709 -23.878125 
L 317.465078 -23.878125 
L 320.836448 -23.878125 
L 324.207818 -23.878125 
L 327.579187 -23.878125 
L 330.950557 -23.878125 
L 334.321926 -23.878125 
L 337.693296 -23.878125 
L 341.064665 -23.878125 
L 344.436035 -23.878125 
L 347.807405 -23.878125 
L 351.178774 -23.878125 
L 354.550144 -23.878125 
L 357.921513 -23.878125 
L 361.292883 -23.878125 
L 364.664252 -23.878125 
L 368.035622 -23.878125 
L 371.406992 -23.878125 
L 374.778361 -23.878125 
L 378.149731 -23.878125 
L 381.5211 -23.878125 
L 384.89247 -23.878125 
L 388.263839 -23.878125 
L 391.635209 -23.878125 
L 395.006579 -23.878125 
L 398.377948 -23.878125 
L 401.749318 -23.878125 
L 405.120687 -23.878125 
L 408.492057 -23.878125 
L 411.863426 -23.878125 
L 415.234796 -23.878125 
L 418.606166 -23.878125 
L 421.977535 -23.878125 
L 425.348905 -23.878125 
L 428.720274 -23.878125 
L 432.091644 -23.878125 
L 435.463013 -23.878125 
L 438.834383 -23.878125 
L 442.205753 -23.878125 
L 445.577122 -23.878125 
L 448.948492 -23.878125 
L 452.319861 -23.878125 
L 455.691231 -23.878125 
L 459.0626 -23.878125 
L 462.43397 -23.878125 
L 465.80534 -23.878125 
L 469.176709 -23.878125 
L 472.548079 -23.878125 
L 475.919448 -23.878125 
L 479.290818 -23.878125 
L 482.662187 -23.878125 
L 486.033557 -23.878125 
L 489.404926 -23.878125 
L 492.776296 -23.878125 
L 496.147666 -23.878125 
L 499.519035 -23.878125 
L 502.890405 -23.878125 
L 506.261774 -23.878125 
L 509.633144 -23.878125 
L 513.004513 -23.878125 
L 516.375883 -23.878125 
L 519.747253 -23.878125 
L 523.118622 -23.878125 
L 526.489992 -23.878125 
L 529.861361 -23.878125 
L 533.232731 -23.878125 
L 536.6041 -23.878125 
L 539.97547 -23.878125 
L 543.34684 -23.878125 
L 546.718209 -23.878125 
L 550.089579 -23.878125 
L 553.460948 -23.878125 
L 556.832318 -23.878125 
L 560.203687 -23.878125 
L 563.575057 -23.878125 
L 566.946427 -23.878125 
L 570.317796 -23.878125 
L 573.689166 -23.878125 
L 577.060535 -23.878125 
L 580.431905 -23.878125 
L 583.803274 -23.878125 
L 587.174644 -23.878125 
L 590.546014 -23.878125 
L 593.917383 -23.878125 
L 597.288753 -23.878125 
L 600.660122 -23.878125 
L 604.031492 -23.878125 
L 607.402861 -23.878125 
L 610.774231 -23.878125 
L 614.145601 -23.878125 
L 617.51697 -23.878125 
L 620.88834 -23.878125 
L 624.259709 -23.878125 
L 627.631079 -23.878125 
L 631.002448 -23.878125 
L 634.373818 -23.878125 
L 637.745188 -23.878125 
L 641.116557 -23.878125 
L 644.487927 -23.878125 
L 647.859296 -23.878125 
L 651.230666 -23.878125 
L 654.602035 -23.878125 
L 657.973405 -23.878125 
L 661.344775 -23.878125 
L 664.716144 -23.878125 
L 668.087514 -23.878125 
L 671.458883 -23.878125 
L 674.830253 -23.878125 
L 678.201622 -23.878125 
L 681.572992 -23.878125 
L 684.944361 -23.878125 
L 688.315731 -23.878125 
L 691.687101 -23.878125 
L 695.05847 -23.878125 
L 698.42984 -23.878125 
L 701.801209 -23.878125 
L 705.172579 -23.878125 
L 708.543948 -23.878125 
L 711.915318 -23.878125 
L 715.286688 -23.878125 
L 718.658057 -23.878125 
L 722.029427 -23.878125 
L 725.400796 -23.878125 
L 728.772166 -23.878125 
L 732.143535 -23.878125 
L 735.514905 -23.878125 
L 738.886275 -23.878125 
L 742.257644 -23.878125 
L 745.629014 -23.878125 
L 749.000383 -23.878125 
L 752.371753 -23.878125 
L 755.743122 -23.878125 
L 759.114492 -23.878125 
L 762.485862 -23.878125 
L 765.857231 -23.878125 
L 769.228601 -23.878125 
L 772.59997 -23.878125 
L 775.97134 -23.878125 
L 779.342709 -23.878125 
L 782.714079 -23.878125 
L 786.085449 -23.878125 
L 789.456818 -23.878125 
L 792.828188 -23.878125 
L 796.199557 -23.878125 
L 799.570927 -23.878125 
L 802.942296 -23.878125 
L 806.313666 -23.878125 
L 809.685036 -23.878125 
L 813.056405 -23.878125 
L 816.427775 -23.878125 
L 819.799144 -23.878125 
L 823.170514 -23.878125 
L 826.541883 -23.878125 
L 829.913253 -23.878125 
L 833.284623 -23.878125 
L 836.655992 -23.878125 
L 840.027362 -23.878125 
L 843.398731 -23.878125 
L 846.770101 -23.878125 
L 846.770101 -23.894719 
L 846.770101 -23.894719 
L 843.398731 -23.903721 
L 840.027362 -23.916961 
L 836.655992 -23.936105 
L 833.284623 -23.963336 
L 829.913253 -24.001454 
L 826.541883 -24.053995 
L 823.170514 -24.125346 
L 819.799144 -24.220866 
L 816.427775 -24.347007 
L 813.056405 -24.511424 
L 809.685036 -24.723071 
L 806.313666 -24.992283 
L 802.942296 -25.33081 
L 799.570927 -25.751818 
L 796.199557 -26.26981 
L 792.828188 -26.900473 
L 789.456818 -27.660441 
L 786.085449 -28.566962 
L 782.714079 -29.637504 
L 779.342709 -30.889342 
L 775.97134 -32.339172 
L 772.59997 -34.002858 
L 769.228601 -35.895366 
L 765.857231 -38.030978 
L 762.485862 -40.423809 
L 759.114492 -43.088605 
L 755.743122 -46.041731 
L 752.371753 -49.302191 
L 749.000383 -52.89243 
L 745.629014 -56.838678 
L 742.257644 -61.170565 
L 738.886275 -65.919808 
L 735.514905 -71.117886 
L 732.143535 -76.792741 
L 728.772166 -82.964721 
L 725.400796 -89.642107 
L 722.029427 -96.816704 
L 718.658057 -104.459989 
L 715.286688 -112.520329 
L 711.915318 -120.921675 
L 708.543948 -129.564 
L 705.172579 -138.325582 
L 701.801209 -147.067064 
L 698.42984 -155.637043 
L 695.05847 -163.878836 
L 691.687101 -171.637982 
L 688.315731 -178.769995 
L 684.944361 -185.147873 
L 681.572992 -190.668894 
L 678.201622 -195.260271 
L 674.830253 -198.883266 
L 671.458883 -201.535466 
L 668.087514 -203.251003 
L 664.716144 -204.098625 
L 661.344775 -204.177669 
L 657.973405 -203.612153 
L 654.602035 -202.543376 
L 651.230666 -201.121544 
L 647.859296 -199.497045 
L 644.487927 -197.812053 
L 641.116557 -196.193058 
L 637.745188 -194.744871 
L 634.373818 -193.546437 
L 631.002448 -192.648606 
L 627.631079 -192.073824 
L 624.259709 -191.817495 
L 620.88834 -191.850682 
L 617.51697 -192.123716 
L 614.145601 -192.570338 
L 610.774231 -193.112012 
L 607.402861 -193.662186 
L 604.031492 -194.130361 
L 600.660122 -194.4259 
L 597.288753 -194.461583 
L 593.917383 -194.156904 
L 590.546014 -193.441086 
L 587.174644 -192.25576 
L 583.803274 -190.557186 
L 580.431905 -188.317905 
L 577.060535 -185.527691 
L 573.689166 -182.19372 
L 570.317796 -178.339948 
L 566.946427 -174.005742 
L 563.575057 -169.243898 
L 560.203687 -164.118214 
L 556.832318 -158.700807 
L 553.460948 -153.069362 
L 550.089579 -147.304433 
L 546.718209 -141.486906 
L 543.34684 -135.695666 
L 539.97547 -130.005457 
L 536.6041 -124.484958 
L 533.232731 -119.195032 
L 529.861361 -114.187186 
L 526.489992 -109.502255 
L 523.118622 -105.169377 
L 519.747253 -101.205331 
L 516.375883 -97.614304 
L 513.004513 -94.388162 
L 509.633144 -91.507251 
L 506.261774 -88.941736 
L 502.890405 -86.65344 
L 499.519035 -84.598101 
L 496.147666 -82.727918 
L 492.776296 -80.994251 
L 489.404926 -79.350288 
L 486.033557 -77.753519 
L 482.662187 -76.167828 
L 479.290818 -74.565093 
L 475.919448 -72.926159 
L 472.548079 -71.241175 
L 469.176709 -69.509278 
L 465.80534 -67.737701 
L 462.43397 -65.940437 
L 459.0626 -64.136588 
L 455.691231 -62.348573 
L 452.319861 -60.600345 
L 448.948492 -58.915734 
L 445.577122 -57.317 
L 442.205753 -55.823627 
L 438.834383 -54.451352 
L 435.463013 -53.211402 
L 432.091644 -52.109914 
L 428.720274 -51.147499 
L 425.348905 -50.318987 
L 421.977535 -49.613348 
L 418.606166 -49.013888 
L 415.234796 -48.498745 
L 411.863426 -48.041763 
L 408.492057 -47.613744 
L 405.120687 -47.184046 
L 401.749318 -46.722448 
L 398.377948 -46.201127 
L 395.006579 -45.596579 
L 391.635209 -44.891288 
L 388.263839 -44.074965 
L 384.89247 -43.14522 
L 381.5211 -42.107585 
L 378.149731 -40.974905 
L 374.778361 -39.766145 
L 371.406992 -38.504779 
L 368.035622 -37.21693 
L 364.664252 -35.929467 
L 361.292883 -34.668238 
L 357.921513 -33.456601 
L 354.550144 -32.314332 
L 351.178774 -31.256964 
L 347.807405 -30.295519 
L 344.436035 -29.436578 
L 341.064665 -28.682605 
L 337.693296 -28.032426 
L 334.321926 -27.481796 
L 330.950557 -27.023983 
L 327.579187 -26.650345 
L 324.207818 -26.350901 
L 320.836448 -26.114868 
L 317.465078 -25.931208 
L 314.093709 -25.789145 
L 310.722339 -25.678673 
L 307.35097 -25.591 
L 303.9796 -25.518908 
L 300.608231 -25.456984 
L 297.236861 -25.401694 
L 293.865491 -25.35128 
L 290.494122 -25.305486 
L 287.122752 -25.265139 
L 283.751383 -25.231643 
L 280.380013 -25.206441 
L 277.008644 -25.19051 
L 273.637274 -25.183973 
L 270.265904 -25.185854 
L 266.894535 -25.19403 
L 263.523165 -25.205354 
L 260.151796 -25.215949 
L 256.780426 -25.22162 
L 253.409057 -25.218309 
L 250.037687 -25.202557 
L 246.666318 -25.171871 
L 243.294948 -25.124992 
L 239.923578 -25.062 
L 236.552209 -24.984267 
L 233.180839 -24.894271 
L 229.80947 -24.795308 
L 226.4381 -24.691134 
L 223.066731 -24.585607 
L 219.695361 -24.482349 
L 216.323991 -24.38448 
L 212.952622 -24.294442 
L 209.581252 -24.213906 
L 206.209883 -24.143779 
L 202.838513 -24.084274 
L 199.467144 -24.035028 
L 196.095774 -23.995251 
L 192.724404 -23.963875 
L 189.353035 -23.939695 
L 185.981665 -23.921482 
L 182.610296 -23.908068 
L 179.238926 -23.898405 
L 175.867557 -23.891595 
z
" style="stroke: #ff7f0e; stroke-width: 2.5"/>
    </defs>
    <g clip-path="url(#pe0364df5ee)">
     <use xlink:href="#mea6344d6c2" x="0" y="635.878125" style="fill: #ff7f0e; fill-opacity: 0.5; stroke: #ff7f0e; stroke-width: 2.5"/>
    </g>
   </g>
   <g id="PolyCollection_4">
    <defs>
     <path id="m93e8f8d530" d="M 166.547117 -23.889635 
L 166.547117 -23.878125 
L 169.946993 -23.878125 
L 173.346869 -23.878125 
L 176.746746 -23.878125 
L 180.146622 -23.878125 
L 183.546498 -23.878125 
L 186.946374 -23.878125 
L 190.346251 -23.878125 
L 193.746127 -23.878125 
L 197.146003 -23.878125 
L 200.545879 -23.878125 
L 203.945756 -23.878125 
L 207.345632 -23.878125 
L 210.745508 -23.878125 
L 214.145384 -23.878125 
L 217.545261 -23.878125 
L 220.945137 -23.878125 
L 224.345013 -23.878125 
L 227.744889 -23.878125 
L 231.144766 -23.878125 
L 234.544642 -23.878125 
L 237.944518 -23.878125 
L 241.344394 -23.878125 
L 244.744271 -23.878125 
L 248.144147 -23.878125 
L 251.544023 -23.878125 
L 254.943899 -23.878125 
L 258.343775 -23.878125 
L 261.743652 -23.878125 
L 265.143528 -23.878125 
L 268.543404 -23.878125 
L 271.94328 -23.878125 
L 275.343157 -23.878125 
L 278.743033 -23.878125 
L 282.142909 -23.878125 
L 285.542785 -23.878125 
L 288.942662 -23.878125 
L 292.342538 -23.878125 
L 295.742414 -23.878125 
L 299.14229 -23.878125 
L 302.542167 -23.878125 
L 305.942043 -23.878125 
L 309.341919 -23.878125 
L 312.741795 -23.878125 
L 316.141672 -23.878125 
L 319.541548 -23.878125 
L 322.941424 -23.878125 
L 326.3413 -23.878125 
L 329.741177 -23.878125 
L 333.141053 -23.878125 
L 336.540929 -23.878125 
L 339.940805 -23.878125 
L 343.340681 -23.878125 
L 346.740558 -23.878125 
L 350.140434 -23.878125 
L 353.54031 -23.878125 
L 356.940186 -23.878125 
L 360.340063 -23.878125 
L 363.739939 -23.878125 
L 367.139815 -23.878125 
L 370.539691 -23.878125 
L 373.939568 -23.878125 
L 377.339444 -23.878125 
L 380.73932 -23.878125 
L 384.139196 -23.878125 
L 387.539073 -23.878125 
L 390.938949 -23.878125 
L 394.338825 -23.878125 
L 397.738701 -23.878125 
L 401.138578 -23.878125 
L 404.538454 -23.878125 
L 407.93833 -23.878125 
L 411.338206 -23.878125 
L 414.738083 -23.878125 
L 418.137959 -23.878125 
L 421.537835 -23.878125 
L 424.937711 -23.878125 
L 428.337588 -23.878125 
L 431.737464 -23.878125 
L 435.13734 -23.878125 
L 438.537216 -23.878125 
L 441.937092 -23.878125 
L 445.336969 -23.878125 
L 448.736845 -23.878125 
L 452.136721 -23.878125 
L 455.536597 -23.878125 
L 458.936474 -23.878125 
L 462.33635 -23.878125 
L 465.736226 -23.878125 
L 469.136102 -23.878125 
L 472.535979 -23.878125 
L 475.935855 -23.878125 
L 479.335731 -23.878125 
L 482.735607 -23.878125 
L 486.135484 -23.878125 
L 489.53536 -23.878125 
L 492.935236 -23.878125 
L 496.335112 -23.878125 
L 499.734989 -23.878125 
L 503.134865 -23.878125 
L 506.534741 -23.878125 
L 509.934617 -23.878125 
L 513.334494 -23.878125 
L 516.73437 -23.878125 
L 520.134246 -23.878125 
L 523.534122 -23.878125 
L 526.933998 -23.878125 
L 530.333875 -23.878125 
L 533.733751 -23.878125 
L 537.133627 -23.878125 
L 540.533503 -23.878125 
L 543.93338 -23.878125 
L 547.333256 -23.878125 
L 550.733132 -23.878125 
L 554.133008 -23.878125 
L 557.532885 -23.878125 
L 560.932761 -23.878125 
L 564.332637 -23.878125 
L 567.732513 -23.878125 
L 571.13239 -23.878125 
L 574.532266 -23.878125 
L 577.932142 -23.878125 
L 581.332018 -23.878125 
L 584.731895 -23.878125 
L 588.131771 -23.878125 
L 591.531647 -23.878125 
L 594.931523 -23.878125 
L 598.3314 -23.878125 
L 601.731276 -23.878125 
L 605.131152 -23.878125 
L 608.531028 -23.878125 
L 611.930905 -23.878125 
L 615.330781 -23.878125 
L 618.730657 -23.878125 
L 622.130533 -23.878125 
L 625.530409 -23.878125 
L 628.930286 -23.878125 
L 632.330162 -23.878125 
L 635.730038 -23.878125 
L 639.129914 -23.878125 
L 642.529791 -23.878125 
L 645.929667 -23.878125 
L 649.329543 -23.878125 
L 652.729419 -23.878125 
L 656.129296 -23.878125 
L 659.529172 -23.878125 
L 662.929048 -23.878125 
L 666.328924 -23.878125 
L 669.728801 -23.878125 
L 673.128677 -23.878125 
L 676.528553 -23.878125 
L 679.928429 -23.878125 
L 683.328306 -23.878125 
L 686.728182 -23.878125 
L 690.128058 -23.878125 
L 693.527934 -23.878125 
L 696.927811 -23.878125 
L 700.327687 -23.878125 
L 703.727563 -23.878125 
L 707.127439 -23.878125 
L 710.527315 -23.878125 
L 713.927192 -23.878125 
L 717.327068 -23.878125 
L 720.726944 -23.878125 
L 724.12682 -23.878125 
L 727.526697 -23.878125 
L 730.926573 -23.878125 
L 734.326449 -23.878125 
L 737.726325 -23.878125 
L 741.126202 -23.878125 
L 744.526078 -23.878125 
L 747.925954 -23.878125 
L 751.32583 -23.878125 
L 754.725707 -23.878125 
L 758.125583 -23.878125 
L 761.525459 -23.878125 
L 764.925335 -23.878125 
L 768.325212 -23.878125 
L 771.725088 -23.878125 
L 775.124964 -23.878125 
L 778.52484 -23.878125 
L 781.924717 -23.878125 
L 785.324593 -23.878125 
L 788.724469 -23.878125 
L 792.124345 -23.878125 
L 795.524222 -23.878125 
L 798.924098 -23.878125 
L 802.323974 -23.878125 
L 805.72385 -23.878125 
L 809.123726 -23.878125 
L 812.523603 -23.878125 
L 815.923479 -23.878125 
L 819.323355 -23.878125 
L 822.723231 -23.878125 
L 826.123108 -23.878125 
L 829.522984 -23.878125 
L 832.92286 -23.878125 
L 836.322736 -23.878125 
L 839.722613 -23.878125 
L 843.122489 -23.878125 
L 843.122489 -23.943786 
L 843.122489 -23.943786 
L 839.722613 -23.975518 
L 836.322736 -24.020774 
L 832.92286 -24.084467 
L 829.522984 -24.172932 
L 826.123108 -24.29421 
L 822.723231 -24.458338 
L 819.323355 -24.677632 
L 815.923479 -24.96696 
L 812.523603 -25.343959 
L 809.123726 -25.829202 
L 805.72385 -26.44626 
L 802.323974 -27.221668 
L 798.924098 -28.184748 
L 795.524222 -29.367289 
L 792.124345 -30.803073 
L 788.724469 -32.527234 
L 785.324593 -34.575461 
L 781.924717 -36.983058 
L 778.52484 -39.78386 
L 775.124964 -43.009046 
L 771.725088 -46.685848 
L 768.325212 -50.836209 
L 764.925335 -55.475396 
L 761.525459 -60.610622 
L 758.125583 -66.239717 
L 754.725707 -72.3499 
L 751.32583 -78.916718 
L 747.925954 -85.903235 
L 744.526078 -93.259547 
L 741.126202 -100.922722 
L 737.726325 -108.817256 
L 734.326449 -116.856105 
L 730.926573 -124.94236 
L 727.526697 -132.971571 
L 724.12682 -140.834686 
L 720.726944 -148.421529 
L 717.327068 -155.624661 
L 713.927192 -162.343457 
L 710.527315 -168.48814 
L 707.127439 -173.983548 
L 703.727563 -178.772365 
L 700.327687 -182.817579 
L 696.927811 -186.103988 
L 693.527934 -188.638621 
L 690.128058 -190.450021 
L 686.728182 -191.586407 
L 683.328306 -192.112848 
L 679.928429 -192.10759 
L 676.528553 -191.657794 
L 673.128677 -190.854934 
L 669.728801 -189.790131 
L 666.328924 -188.549709 
L 662.929048 -187.211205 
L 659.529172 -185.840051 
L 656.129296 -184.487086 
L 652.729419 -183.187017 
L 649.329543 -181.957866 
L 645.929667 -180.801412 
L 642.529791 -179.704564 
L 639.129914 -178.641552 
L 635.730038 -177.576784 
L 632.330162 -176.468164 
L 628.930286 -175.270652 
L 625.530409 -173.939818 
L 622.130533 -172.435148 
L 618.730657 -170.72288 
L 615.330781 -168.778192 
L 611.930905 -166.586597 
L 608.531028 -164.1445 
L 605.131152 -161.458928 
L 601.731276 -158.546516 
L 598.3314 -155.431916 
L 594.931523 -152.145812 
L 591.531647 -148.722777 
L 588.131771 -145.199177 
L 584.731895 -141.611321 
L 581.332018 -137.993976 
L 577.932142 -134.379345 
L 574.532266 -130.796489 
L 571.13239 -127.271154 
L 567.732513 -123.825908 
L 564.332637 -120.48045 
L 560.932761 -117.251979 
L 557.532885 -114.155507 
L 554.133008 -111.204047 
L 550.733132 -108.408643 
L 547.333256 -105.778255 
L 543.93338 -103.319548 
L 540.533503 -101.036648 
L 537.133627 -98.930952 
L 533.733751 -97.001038 
L 530.333875 -95.242731 
L 526.933998 -93.649323 
L 523.534122 -92.211925 
L 520.134246 -90.919899 
L 516.73437 -89.761312 
L 513.334494 -88.723335 
L 509.934617 -87.792541 
L 506.534741 -86.955074 
L 503.134865 -86.196689 
L 499.734989 -85.502703 
L 496.335112 -84.85791 
L 492.935236 -84.24654 
L 489.53536 -83.65232 
L 486.135484 -83.058711 
L 482.735607 -82.449327 
L 479.335731 -81.808534 
L 475.935855 -81.122183 
L 472.535979 -80.378389 
L 469.136102 -79.568258 
L 465.736226 -78.686457 
L 462.33635 -77.731537 
L 458.936474 -76.705937 
L 455.536597 -75.61565 
L 452.136721 -74.469565 
L 448.736845 -73.278553 
L 445.336969 -72.054392 
L 441.937092 -70.80864 
L 438.537216 -69.551604 
L 435.13734 -68.291492 
L 431.737464 -67.033848 
L 428.337588 -65.78132 
L 424.937711 -64.53376 
L 421.537835 -63.28863 
L 418.137959 -62.041638 
L 414.738083 -60.787524 
L 411.338206 -59.520889 
L 407.93833 -58.236967 
L 404.538454 -56.932278 
L 401.138578 -55.605086 
L 397.738701 -54.255648 
L 394.338825 -52.886261 
L 390.938949 -51.501122 
L 387.539073 -50.106046 
L 384.139196 -48.708106 
L 380.73932 -47.315231 
L 377.339444 -45.93581 
L 373.939568 -44.578344 
L 370.539691 -43.251143 
L 367.139815 -41.962087 
L 363.739939 -40.718435 
L 360.340063 -39.526678 
L 356.940186 -38.392407 
L 353.54031 -37.320199 
L 350.140434 -36.31351 
L 346.740558 -35.374576 
L 343.340681 -34.504334 
L 339.940805 -33.702381 
L 336.540929 -32.96698 
L 333.141053 -32.295135 
L 329.741177 -31.682736 
L 326.3413 -31.124779 
L 322.941424 -30.615646 
L 319.541548 -30.149429 
L 316.141672 -29.720271 
L 312.741795 -29.322692 
L 309.341919 -28.951874 
L 305.942043 -28.603863 
L 302.542167 -28.275696 
L 299.14229 -27.965413 
L 295.742414 -27.671982 
L 292.342538 -27.395131 
L 288.942662 -27.135122 
L 285.542785 -26.892492 
L 282.142909 -26.667785 
L 278.743033 -26.461319 
L 275.343157 -26.272999 
L 271.94328 -26.102206 
L 268.543404 -25.947758 
L 265.143528 -25.807958 
L 261.743652 -25.680699 
L 258.343775 -25.563624 
L 254.943899 -25.454312 
L 251.544023 -25.350466 
L 248.144147 -25.250084 
L 244.744271 -25.151593 
L 241.344394 -25.053935 
L 237.944518 -24.956593 
L 234.544642 -24.859573 
L 231.144766 -24.763328 
L 227.744889 -24.668665 
L 224.345013 -24.576611 
L 220.945137 -24.488292 
L 217.545261 -24.40481 
L 214.145384 -24.32714 
L 210.745508 -24.256055 
L 207.345632 -24.19208 
L 203.945756 -24.135472 
L 200.545879 -24.086227 
L 197.146003 -24.04411 
L 193.746127 -24.008693 
L 190.346251 -23.979408 
L 186.946374 -23.955594 
L 183.546498 -23.936547 
L 180.146622 -23.921563 
L 176.746746 -23.909965 
L 173.346869 -23.901133 
L 169.946993 -23.894515 
L 166.547117 -23.889635 
z
" style="stroke: #1f77b4; stroke-width: 2.5"/>
    </defs>
    <g clip-path="url(#pe0364df5ee)">
     <use xlink:href="#m93e8f8d530" x="0" y="635.878125" style="fill: #1f77b4; fill-opacity: 0.5; stroke: #1f77b4; stroke-width: 2.5"/>
    </g>
   </g>
   <g id="matplotlib.axis_3">
    <g id="xtick_7">
     <g id="line2d_16">
      <g>
       <use xlink:href="#m79290da58f" x="151.050819" y="612" style="stroke: #000000; stroke-width: 0.8"/>
      </g>
     </g>
     <g id="text_21">
      <!-- 0.0 -->
      <g transform="translate(143.099257 626.598438) scale(0.1 -0.1)">
       <use xlink:href="#DejaVuSans-30"/>
       <use xlink:href="#DejaVuSans-2e" x="63.623047"/>
       <use xlink:href="#DejaVuSans-30" x="95.410156"/>
      </g>
     </g>
    </g>
    <g id="xtick_8">
     <g id="line2d_17">
      <g>
       <use xlink:href="#m79290da58f" x="286.365752" y="612" style="stroke: #000000; stroke-width: 0.8"/>
      </g>
     </g>
     <g id="text_22">
      <!-- 0.2 -->
      <g transform="translate(278.414189 626.598438) scale(0.1 -0.1)">
       <use xlink:href="#DejaVuSans-30"/>
       <use xlink:href="#DejaVuSans-2e" x="63.623047"/>
       <use xlink:href="#DejaVuSans-32" x="95.410156"/>
      </g>
     </g>
    </g>
    <g id="xtick_9">
     <g id="line2d_18">
      <g>
       <use xlink:href="#m79290da58f" x="421.680684" y="612" style="stroke: #000000; stroke-width: 0.8"/>
      </g>
     </g>
     <g id="text_23">
      <!-- 0.4 -->
      <g transform="translate(413.729121 626.598438) scale(0.1 -0.1)">
       <use xlink:href="#DejaVuSans-30"/>
       <use xlink:href="#DejaVuSans-2e" x="63.623047"/>
       <use xlink:href="#DejaVuSans-34" x="95.410156"/>
      </g>
     </g>
    </g>
    <g id="xtick_10">
     <g id="line2d_19">
      <g>
       <use xlink:href="#m79290da58f" x="556.995616" y="612" style="stroke: #000000; stroke-width: 0.8"/>
      </g>
     </g>
     <g id="text_24">
      <!-- 0.6 -->
      <g transform="translate(549.044054 626.598438) scale(0.1 -0.1)">
       <use xlink:href="#DejaVuSans-30"/>
       <use xlink:href="#DejaVuSans-2e" x="63.623047"/>
       <use xlink:href="#DejaVuSans-36" x="95.410156"/>
      </g>
     </g>
    </g>
    <g id="xtick_11">
     <g id="line2d_20">
      <g>
       <use xlink:href="#m79290da58f" x="692.310549" y="612" style="stroke: #000000; stroke-width: 0.8"/>
      </g>
     </g>
     <g id="text_25">
      <!-- 0.8 -->
      <g transform="translate(684.358986 626.598438) scale(0.1 -0.1)">
       <use xlink:href="#DejaVuSans-30"/>
       <use xlink:href="#DejaVuSans-2e" x="63.623047"/>
       <use xlink:href="#DejaVuSans-38" x="95.410156"/>
      </g>
     </g>
    </g>
    <g id="xtick_12">
     <g id="line2d_21">
      <g>
       <use xlink:href="#m79290da58f" x="827.625481" y="612" style="stroke: #000000; stroke-width: 0.8"/>
      </g>
     </g>
     <g id="text_26">
      <!-- 1.0 -->
      <g transform="translate(819.673918 626.598438) scale(0.1 -0.1)">
       <use xlink:href="#DejaVuSans-31"/>
       <use xlink:href="#DejaVuSans-2e" x="63.623047"/>
       <use xlink:href="#DejaVuSans-30" x="95.410156"/>
      </g>
     </g>
    </g>
   </g>
   <g id="matplotlib.axis_4">
    <g id="ytick_10">
     <g id="line2d_22">
      <g>
       <use xlink:href="#m8e5ac7a471" x="43.78125" y="612" style="stroke: #000000; stroke-width: 0.8"/>
      </g>
     </g>
     <g id="text_27">
      <!-- 0.0 -->
      <g transform="translate(20.878125 615.799219) scale(0.1 -0.1)">
       <use xlink:href="#DejaVuSans-30"/>
       <use xlink:href="#DejaVuSans-2e" x="63.623047"/>
       <use xlink:href="#DejaVuSans-30" x="95.410156"/>
      </g>
     </g>
    </g>
    <g id="ytick_11">
     <g id="line2d_23">
      <g>
       <use xlink:href="#m8e5ac7a471" x="43.78125" y="584.015258" style="stroke: #000000; stroke-width: 0.8"/>
      </g>
     </g>
     <g id="text_28">
      <!-- 0.5 -->
      <g transform="translate(20.878125 587.814477) scale(0.1 -0.1)">
       <use xlink:href="#DejaVuSans-30"/>
       <use xlink:href="#DejaVuSans-2e" x="63.623047"/>
       <use xlink:href="#DejaVuSans-35" x="95.410156"/>
      </g>
     </g>
    </g>
    <g id="ytick_12">
     <g id="line2d_24">
      <g>
       <use xlink:href="#m8e5ac7a471" x="43.78125" y="556.030517" style="stroke: #000000; stroke-width: 0.8"/>
      </g>
     </g>
     <g id="text_29">
      <!-- 1.0 -->
      <g transform="translate(20.878125 559.829735) scale(0.1 -0.1)">
       <use xlink:href="#DejaVuSans-31"/>
       <use xlink:href="#DejaVuSans-2e" x="63.623047"/>
       <use xlink:href="#DejaVuSans-30" x="95.410156"/>
      </g>
     </g>
    </g>
    <g id="ytick_13">
     <g id="line2d_25">
      <g>
       <use xlink:href="#m8e5ac7a471" x="43.78125" y="528.045775" style="stroke: #000000; stroke-width: 0.8"/>
      </g>
     </g>
     <g id="text_30">
      <!-- 1.5 -->
      <g transform="translate(20.878125 531.844994) scale(0.1 -0.1)">
       <use xlink:href="#DejaVuSans-31"/>
       <use xlink:href="#DejaVuSans-2e" x="63.623047"/>
       <use xlink:href="#DejaVuSans-35" x="95.410156"/>
      </g>
     </g>
    </g>
    <g id="ytick_14">
     <g id="line2d_26">
      <g>
       <use xlink:href="#m8e5ac7a471" x="43.78125" y="500.061033" style="stroke: #000000; stroke-width: 0.8"/>
      </g>
     </g>
     <g id="text_31">
      <!-- 2.0 -->
      <g transform="translate(20.878125 503.860252) scale(0.1 -0.1)">
       <use xlink:href="#DejaVuSans-32"/>
       <use xlink:href="#DejaVuSans-2e" x="63.623047"/>
       <use xlink:href="#DejaVuSans-30" x="95.410156"/>
      </g>
     </g>
    </g>
    <g id="ytick_15">
     <g id="line2d_27">
      <g>
       <use xlink:href="#m8e5ac7a471" x="43.78125" y="472.076291" style="stroke: #000000; stroke-width: 0.8"/>
      </g>
     </g>
     <g id="text_32">
      <!-- 2.5 -->
      <g transform="translate(20.878125 475.87551) scale(0.1 -0.1)">
       <use xlink:href="#DejaVuSans-32"/>
       <use xlink:href="#DejaVuSans-2e" x="63.623047"/>
       <use xlink:href="#DejaVuSans-35" x="95.410156"/>
      </g>
     </g>
    </g>
    <g id="ytick_16">
     <g id="line2d_28">
      <g>
       <use xlink:href="#m8e5ac7a471" x="43.78125" y="444.09155" style="stroke: #000000; stroke-width: 0.8"/>
      </g>
     </g>
     <g id="text_33">
      <!-- 3.0 -->
      <g transform="translate(20.878125 447.890768) scale(0.1 -0.1)">
       <use xlink:href="#DejaVuSans-33"/>
       <use xlink:href="#DejaVuSans-2e" x="63.623047"/>
       <use xlink:href="#DejaVuSans-30" x="95.410156"/>
      </g>
     </g>
    </g>
    <g id="ytick_17">
     <g id="line2d_29">
      <g>
       <use xlink:href="#m8e5ac7a471" x="43.78125" y="416.106808" style="stroke: #000000; stroke-width: 0.8"/>
      </g>
     </g>
     <g id="text_34">
      <!-- 3.5 -->
      <g transform="translate(20.878125 419.906027) scale(0.1 -0.1)">
       <use xlink:href="#DejaVuSans-33"/>
       <use xlink:href="#DejaVuSans-2e" x="63.623047"/>
       <use xlink:href="#DejaVuSans-35" x="95.410156"/>
      </g>
     </g>
    </g>
    <g id="ytick_18">
     <g id="line2d_30">
      <g>
       <use xlink:href="#m8e5ac7a471" x="43.78125" y="388.122066" style="stroke: #000000; stroke-width: 0.8"/>
      </g>
     </g>
     <g id="text_35">
      <!-- 4.0 -->
      <g transform="translate(20.878125 391.921285) scale(0.1 -0.1)">
       <use xlink:href="#DejaVuSans-34"/>
       <use xlink:href="#DejaVuSans-2e" x="63.623047"/>
       <use xlink:href="#DejaVuSans-30" x="95.410156"/>
      </g>
     </g>
    </g>
    <g id="text_36">
     <!-- Density -->
     <g transform="translate(14.798438 510.486855) rotate(-90) scale(0.1 -0.1)">
      <use xlink:href="#DejaVuSans-44"/>
      <use xlink:href="#DejaVuSans-65" x="77.001953"/>
      <use xlink:href="#DejaVuSans-6e" x="138.525391"/>
      <use xlink:href="#DejaVuSans-73" x="201.904297"/>
      <use xlink:href="#DejaVuSans-69" x="254.003906"/>
      <use xlink:href="#DejaVuSans-74" x="281.787109"/>
      <use xlink:href="#DejaVuSans-79" x="320.996094"/>
     </g>
    </g>
   </g>
   <g id="patch_11">
    <path d="M 43.78125 612 
L 43.78125 370.956522 
" style="fill: none; stroke: #000000; stroke-width: 0.8; stroke-linejoin: miter; stroke-linecap: square"/>
   </g>
   <g id="patch_12">
    <path d="M 880.78125 612 
L 880.78125 370.956522 
" style="fill: none; stroke: #000000; stroke-width: 0.8; stroke-linejoin: miter; stroke-linecap: square"/>
   </g>
   <g id="patch_13">
    <path d="M 43.78125 612 
L 880.78125 612 
" style="fill: none; stroke: #000000; stroke-width: 0.8; stroke-linejoin: miter; stroke-linecap: square"/>
   </g>
   <g id="patch_14">
    <path d="M 43.78125 370.956522 
L 880.78125 370.956522 
" style="fill: none; stroke: #000000; stroke-width: 0.8; stroke-linejoin: miter; stroke-linecap: square"/>
   </g>
   <g id="text_37">
    <!-- Spearman correlation coefficients -->
    <g transform="translate(361.111875 364.956522) scale(0.12 -0.12)">
     <defs>
      <path id="DejaVuSans-53" d="M 3425 4513 
L 3425 3897 
Q 3066 4069 2747 4153 
Q 2428 4238 2131 4238 
Q 1616 4238 1336 4038 
Q 1056 3838 1056 3469 
Q 1056 3159 1242 3001 
Q 1428 2844 1947 2747 
L 2328 2669 
Q 3034 2534 3370 2195 
Q 3706 1856 3706 1288 
Q 3706 609 3251 259 
Q 2797 -91 1919 -91 
Q 1588 -91 1214 -16 
Q 841 59 441 206 
L 441 856 
Q 825 641 1194 531 
Q 1563 422 1919 422 
Q 2459 422 2753 634 
Q 3047 847 3047 1241 
Q 3047 1584 2836 1778 
Q 2625 1972 2144 2069 
L 1759 2144 
Q 1053 2284 737 2584 
Q 422 2884 422 3419 
Q 422 4038 858 4394 
Q 1294 4750 2059 4750 
Q 2388 4750 2728 4690 
Q 3069 4631 3425 4513 
z
" transform="scale(0.015625)"/>
      <path id="DejaVuSans-6d" d="M 3328 2828 
Q 3544 3216 3844 3400 
Q 4144 3584 4550 3584 
Q 5097 3584 5394 3201 
Q 5691 2819 5691 2113 
L 5691 0 
L 5113 0 
L 5113 2094 
Q 5113 2597 4934 2840 
Q 4756 3084 4391 3084 
Q 3944 3084 3684 2787 
Q 3425 2491 3425 1978 
L 3425 0 
L 2847 0 
L 2847 2094 
Q 2847 2600 2669 2842 
Q 2491 3084 2119 3084 
Q 1678 3084 1418 2786 
Q 1159 2488 1159 1978 
L 1159 0 
L 581 0 
L 581 3500 
L 1159 3500 
L 1159 2956 
Q 1356 3278 1631 3431 
Q 1906 3584 2284 3584 
Q 2666 3584 2933 3390 
Q 3200 3197 3328 2828 
z
" transform="scale(0.015625)"/>
     </defs>
     <use xlink:href="#DejaVuSans-53"/>
     <use xlink:href="#DejaVuSans-70" x="63.476562"/>
     <use xlink:href="#DejaVuSans-65" x="126.953125"/>
     <use xlink:href="#DejaVuSans-61" x="188.476562"/>
     <use xlink:href="#DejaVuSans-72" x="249.755859"/>
     <use xlink:href="#DejaVuSans-6d" x="289.119141"/>
     <use xlink:href="#DejaVuSans-61" x="386.53125"/>
     <use xlink:href="#DejaVuSans-6e" x="447.810547"/>
     <use xlink:href="#DejaVuSans-20" x="511.189453"/>
     <use xlink:href="#DejaVuSans-63" x="542.976562"/>
     <use xlink:href="#DejaVuSans-6f" x="597.957031"/>
     <use xlink:href="#DejaVuSans-72" x="659.138672"/>
     <use xlink:href="#DejaVuSans-72" x="698.501953"/>
     <use xlink:href="#DejaVuSans-65" x="737.365234"/>
     <use xlink:href="#DejaVuSans-6c" x="798.888672"/>
     <use xlink:href="#DejaVuSans-61" x="826.671875"/>
     <use xlink:href="#DejaVuSans-74" x="887.951172"/>
     <use xlink:href="#DejaVuSans-69" x="927.160156"/>
     <use xlink:href="#DejaVuSans-6f" x="954.943359"/>
     <use xlink:href="#DejaVuSans-6e" x="1016.125"/>
     <use xlink:href="#DejaVuSans-20" x="1079.503906"/>
     <use xlink:href="#DejaVuSans-63" x="1111.291016"/>
     <use xlink:href="#DejaVuSans-6f" x="1166.271484"/>
     <use xlink:href="#DejaVuSans-65" x="1227.453125"/>
     <use xlink:href="#DejaVuSans-66" x="1288.976562"/>
     <use xlink:href="#DejaVuSans-66" x="1324.181641"/>
     <use xlink:href="#DejaVuSans-69" x="1359.386719"/>
     <use xlink:href="#DejaVuSans-63" x="1387.169922"/>
     <use xlink:href="#DejaVuSans-69" x="1442.150391"/>
     <use xlink:href="#DejaVuSans-65" x="1469.933594"/>
     <use xlink:href="#DejaVuSans-6e" x="1531.457031"/>
     <use xlink:href="#DejaVuSans-74" x="1594.835938"/>
     <use xlink:href="#DejaVuSans-73" x="1634.044922"/>
    </g>
   </g>
   <g id="legend_2">
    <g id="patch_15">
     <path d="M 50.78125 422.990897 
L 138.80625 422.990897 
Q 140.80625 422.990897 140.80625 420.990897 
L 140.80625 377.956522 
Q 140.80625 375.956522 138.80625 375.956522 
L 50.78125 375.956522 
Q 48.78125 375.956522 48.78125 377.956522 
L 48.78125 420.990897 
Q 48.78125 422.990897 50.78125 422.990897 
z
" style="fill: #ffffff; opacity: 0.8; stroke: #cccccc; stroke-linejoin: miter"/>
    </g>
    <g id="text_38">
     <!-- Correlation type: -->
     <g transform="translate(52.78125 387.554959) scale(0.1 -0.1)">
      <use xlink:href="#DejaVuSans-43"/>
      <use xlink:href="#DejaVuSans-6f" x="69.824219"/>
      <use xlink:href="#DejaVuSans-72" x="131.005859"/>
      <use xlink:href="#DejaVuSans-72" x="170.369141"/>
      <use xlink:href="#DejaVuSans-65" x="209.232422"/>
      <use xlink:href="#DejaVuSans-6c" x="270.755859"/>
      <use xlink:href="#DejaVuSans-61" x="298.539062"/>
      <use xlink:href="#DejaVuSans-74" x="359.818359"/>
      <use xlink:href="#DejaVuSans-69" x="399.027344"/>
      <use xlink:href="#DejaVuSans-6f" x="426.810547"/>
      <use xlink:href="#DejaVuSans-6e" x="487.992188"/>
      <use xlink:href="#DejaVuSans-20" x="551.371094"/>
      <use xlink:href="#DejaVuSans-74" x="583.158203"/>
      <use xlink:href="#DejaVuSans-79" x="622.367188"/>
      <use xlink:href="#DejaVuSans-70" x="681.546875"/>
      <use xlink:href="#DejaVuSans-65" x="745.023438"/>
      <use xlink:href="#DejaVuSans-3a" x="806.546875"/>
     </g>
    </g>
    <g id="patch_16">
     <path d="M 53.285156 402.233084 
L 73.285156 402.233084 
L 73.285156 395.233084 
L 53.285156 395.233084 
z
" style="fill: #1f77b4; fill-opacity: 0.5; stroke: #1f77b4; stroke-width: 2.5; stroke-linejoin: miter"/>
    </g>
    <g id="text_39">
     <!-- Codon -->
     <g transform="translate(81.285156 402.233084) scale(0.1 -0.1)">
      <use xlink:href="#DejaVuSans-43"/>
      <use xlink:href="#DejaVuSans-6f" x="69.824219"/>
      <use xlink:href="#DejaVuSans-64" x="131.005859"/>
      <use xlink:href="#DejaVuSans-6f" x="194.482422"/>
      <use xlink:href="#DejaVuSans-6e" x="255.664062"/>
     </g>
    </g>
    <g id="patch_17">
     <path d="M 53.285156 416.911209 
L 73.285156 416.911209 
L 73.285156 409.911209 
L 53.285156 409.911209 
z
" style="fill: #ff7f0e; fill-opacity: 0.5; stroke: #ff7f0e; stroke-width: 2.5; stroke-linejoin: miter"/>
    </g>
    <g id="text_40">
     <!-- Codon+GC -->
     <g transform="translate(81.285156 416.911209) scale(0.1 -0.1)">
      <use xlink:href="#DejaVuSans-43"/>
      <use xlink:href="#DejaVuSans-6f" x="69.824219"/>
      <use xlink:href="#DejaVuSans-64" x="131.005859"/>
      <use xlink:href="#DejaVuSans-6f" x="194.482422"/>
      <use xlink:href="#DejaVuSans-6e" x="255.664062"/>
      <use xlink:href="#DejaVuSans-2b" x="319.042969"/>
      <use xlink:href="#DejaVuSans-47" x="402.832031"/>
      <use xlink:href="#DejaVuSans-43" x="480.322266"/>
     </g>
    </g>
   </g>
  </g>
  <g id="text_41">
   <!-- Eukaryota - Density of correlation coefficients for genetic code: Chlorophycean mitochondrial -->
   <g transform="translate(98.422266 18.597656) scale(0.15 -0.15)">
    <defs>
     <path id="DejaVuSans-45" d="M 628 4666 
L 3578 4666 
L 3578 4134 
L 1259 4134 
L 1259 2753 
L 3481 2753 
L 3481 2222 
L 1259 2222 
L 1259 531 
L 3634 531 
L 3634 0 
L 628 0 
L 628 4666 
z
" transform="scale(0.015625)"/>
     <path id="DejaVuSans-75" d="M 544 1381 
L 544 3500 
L 1119 3500 
L 1119 1403 
Q 1119 906 1312 657 
Q 1506 409 1894 409 
Q 2359 409 2629 706 
Q 2900 1003 2900 1516 
L 2900 3500 
L 3475 3500 
L 3475 0 
L 2900 0 
L 2900 538 
Q 2691 219 2414 64 
Q 2138 -91 1772 -91 
Q 1169 -91 856 284 
Q 544 659 544 1381 
z
M 1991 3584 
L 1991 3584 
z
" transform="scale(0.015625)"/>
     <path id="DejaVuSans-6b" d="M 581 4863 
L 1159 4863 
L 1159 1991 
L 2875 3500 
L 3609 3500 
L 1753 1863 
L 3688 0 
L 2938 0 
L 1159 1709 
L 1159 0 
L 581 0 
L 581 4863 
z
" transform="scale(0.015625)"/>
     <path id="DejaVuSans-2d" d="M 313 2009 
L 1997 2009 
L 1997 1497 
L 313 1497 
L 313 2009 
z
" transform="scale(0.015625)"/>
     <path id="DejaVuSans-67" d="M 2906 1791 
Q 2906 2416 2648 2759 
Q 2391 3103 1925 3103 
Q 1463 3103 1205 2759 
Q 947 2416 947 1791 
Q 947 1169 1205 825 
Q 1463 481 1925 481 
Q 2391 481 2648 825 
Q 2906 1169 2906 1791 
z
M 3481 434 
Q 3481 -459 3084 -895 
Q 2688 -1331 1869 -1331 
Q 1566 -1331 1297 -1286 
Q 1028 -1241 775 -1147 
L 775 -588 
Q 1028 -725 1275 -790 
Q 1522 -856 1778 -856 
Q 2344 -856 2625 -561 
Q 2906 -266 2906 331 
L 2906 616 
Q 2728 306 2450 153 
Q 2172 0 1784 0 
Q 1141 0 747 490 
Q 353 981 353 1791 
Q 353 2603 747 3093 
Q 1141 3584 1784 3584 
Q 2172 3584 2450 3431 
Q 2728 3278 2906 2969 
L 2906 3500 
L 3481 3500 
L 3481 434 
z
" transform="scale(0.015625)"/>
     <path id="DejaVuSans-68" d="M 3513 2113 
L 3513 0 
L 2938 0 
L 2938 2094 
Q 2938 2591 2744 2837 
Q 2550 3084 2163 3084 
Q 1697 3084 1428 2787 
Q 1159 2491 1159 1978 
L 1159 0 
L 581 0 
L 581 4863 
L 1159 4863 
L 1159 2956 
Q 1366 3272 1645 3428 
Q 1925 3584 2291 3584 
Q 2894 3584 3203 3211 
Q 3513 2838 3513 2113 
z
" transform="scale(0.015625)"/>
    </defs>
    <use xlink:href="#DejaVuSans-45"/>
    <use xlink:href="#DejaVuSans-75" x="63.183594"/>
    <use xlink:href="#DejaVuSans-6b" x="126.5625"/>
    <use xlink:href="#DejaVuSans-61" x="182.722656"/>
    <use xlink:href="#DejaVuSans-72" x="244.001953"/>
    <use xlink:href="#DejaVuSans-79" x="285.115234"/>
    <use xlink:href="#DejaVuSans-6f" x="344.294922"/>
    <use xlink:href="#DejaVuSans-74" x="405.476562"/>
    <use xlink:href="#DejaVuSans-61" x="444.685547"/>
    <use xlink:href="#DejaVuSans-20" x="505.964844"/>
    <use xlink:href="#DejaVuSans-2d" x="537.751953"/>
    <use xlink:href="#DejaVuSans-20" x="573.835938"/>
    <use xlink:href="#DejaVuSans-44" x="605.623047"/>
    <use xlink:href="#DejaVuSans-65" x="682.625"/>
    <use xlink:href="#DejaVuSans-6e" x="744.148438"/>
    <use xlink:href="#DejaVuSans-73" x="807.527344"/>
    <use xlink:href="#DejaVuSans-69" x="859.626953"/>
    <use xlink:href="#DejaVuSans-74" x="887.410156"/>
    <use xlink:href="#DejaVuSans-79" x="926.619141"/>
    <use xlink:href="#DejaVuSans-20" x="985.798828"/>
    <use xlink:href="#DejaVuSans-6f" x="1017.585938"/>
    <use xlink:href="#DejaVuSans-66" x="1078.767578"/>
    <use xlink:href="#DejaVuSans-20" x="1113.972656"/>
    <use xlink:href="#DejaVuSans-63" x="1145.759766"/>
    <use xlink:href="#DejaVuSans-6f" x="1200.740234"/>
    <use xlink:href="#DejaVuSans-72" x="1261.921875"/>
    <use xlink:href="#DejaVuSans-72" x="1301.285156"/>
    <use xlink:href="#DejaVuSans-65" x="1340.148438"/>
    <use xlink:href="#DejaVuSans-6c" x="1401.671875"/>
    <use xlink:href="#DejaVuSans-61" x="1429.455078"/>
    <use xlink:href="#DejaVuSans-74" x="1490.734375"/>
    <use xlink:href="#DejaVuSans-69" x="1529.943359"/>
    <use xlink:href="#DejaVuSans-6f" x="1557.726562"/>
    <use xlink:href="#DejaVuSans-6e" x="1618.908203"/>
    <use xlink:href="#DejaVuSans-20" x="1682.287109"/>
    <use xlink:href="#DejaVuSans-63" x="1714.074219"/>
    <use xlink:href="#DejaVuSans-6f" x="1769.054688"/>
    <use xlink:href="#DejaVuSans-65" x="1830.236328"/>
    <use xlink:href="#DejaVuSans-66" x="1891.759766"/>
    <use xlink:href="#DejaVuSans-66" x="1926.964844"/>
    <use xlink:href="#DejaVuSans-69" x="1962.169922"/>
    <use xlink:href="#DejaVuSans-63" x="1989.953125"/>
    <use xlink:href="#DejaVuSans-69" x="2044.933594"/>
    <use xlink:href="#DejaVuSans-65" x="2072.716797"/>
    <use xlink:href="#DejaVuSans-6e" x="2134.240234"/>
    <use xlink:href="#DejaVuSans-74" x="2197.619141"/>
    <use xlink:href="#DejaVuSans-73" x="2236.828125"/>
    <use xlink:href="#DejaVuSans-20" x="2288.927734"/>
    <use xlink:href="#DejaVuSans-66" x="2320.714844"/>
    <use xlink:href="#DejaVuSans-6f" x="2355.919922"/>
    <use xlink:href="#DejaVuSans-72" x="2417.101562"/>
    <use xlink:href="#DejaVuSans-20" x="2458.214844"/>
    <use xlink:href="#DejaVuSans-67" x="2490.001953"/>
    <use xlink:href="#DejaVuSans-65" x="2553.478516"/>
    <use xlink:href="#DejaVuSans-6e" x="2615.001953"/>
    <use xlink:href="#DejaVuSans-65" x="2678.380859"/>
    <use xlink:href="#DejaVuSans-74" x="2739.904297"/>
    <use xlink:href="#DejaVuSans-69" x="2779.113281"/>
    <use xlink:href="#DejaVuSans-63" x="2806.896484"/>
    <use xlink:href="#DejaVuSans-20" x="2861.876953"/>
    <use xlink:href="#DejaVuSans-63" x="2893.664062"/>
    <use xlink:href="#DejaVuSans-6f" x="2948.644531"/>
    <use xlink:href="#DejaVuSans-64" x="3009.826172"/>
    <use xlink:href="#DejaVuSans-65" x="3073.302734"/>
    <use xlink:href="#DejaVuSans-3a" x="3134.826172"/>
    <use xlink:href="#DejaVuSans-20" x="3168.517578"/>
    <use xlink:href="#DejaVuSans-43" x="3200.304688"/>
    <use xlink:href="#DejaVuSans-68" x="3270.128906"/>
    <use xlink:href="#DejaVuSans-6c" x="3333.507812"/>
    <use xlink:href="#DejaVuSans-6f" x="3361.291016"/>
    <use xlink:href="#DejaVuSans-72" x="3422.472656"/>
    <use xlink:href="#DejaVuSans-6f" x="3461.335938"/>
    <use xlink:href="#DejaVuSans-70" x="3522.517578"/>
    <use xlink:href="#DejaVuSans-68" x="3585.994141"/>
    <use xlink:href="#DejaVuSans-79" x="3649.373047"/>
    <use xlink:href="#DejaVuSans-63" x="3708.552734"/>
    <use xlink:href="#DejaVuSans-65" x="3763.533203"/>
    <use xlink:href="#DejaVuSans-61" x="3825.056641"/>
    <use xlink:href="#DejaVuSans-6e" x="3886.335938"/>
    <use xlink:href="#DejaVuSans-20" x="3949.714844"/>
    <use xlink:href="#DejaVuSans-6d" x="3981.501953"/>
    <use xlink:href="#DejaVuSans-69" x="4078.914062"/>
    <use xlink:href="#DejaVuSans-74" x="4106.697266"/>
    <use xlink:href="#DejaVuSans-6f" x="4145.90625"/>
    <use xlink:href="#DejaVuSans-63" x="4207.087891"/>
    <use xlink:href="#DejaVuSans-68" x="4262.068359"/>
    <use xlink:href="#DejaVuSans-6f" x="4325.447266"/>
    <use xlink:href="#DejaVuSans-6e" x="4386.628906"/>
    <use xlink:href="#DejaVuSans-64" x="4450.007812"/>
    <use xlink:href="#DejaVuSans-72" x="4513.484375"/>
    <use xlink:href="#DejaVuSans-69" x="4554.597656"/>
    <use xlink:href="#DejaVuSans-61" x="4582.380859"/>
    <use xlink:href="#DejaVuSans-6c" x="4643.660156"/>
   </g>
  </g>
 </g>
 <defs>
  <clipPath id="p0694965b12">
   <rect x="43.78125" y="57.6" width="837" height="241.043478"/>
  </clipPath>
  <clipPath id="pe0364df5ee">
   <rect x="43.78125" y="370.956522" width="837" height="241.043478"/>
  </clipPath>
 </defs>
</svg>
