<?xml version="1.0" encoding="utf-8" standalone="no"?>
<!DOCTYPE svg PUBLIC "-//W3C//DTD SVG 1.1//EN"
  "http://www.w3.org/Graphics/SVG/1.1/DTD/svg11.dtd">
<svg xmlns:xlink="http://www.w3.org/1999/xlink" width="511.498478pt" height="568.8pt" viewBox="0 0 511.498478 568.8" xmlns="http://www.w3.org/2000/svg" version="1.1">
 <metadata>
  <rdf:RDF xmlns:dc="http://purl.org/dc/elements/1.1/" xmlns:cc="http://creativecommons.org/ns#" xmlns:rdf="http://www.w3.org/1999/02/22-rdf-syntax-ns#">
   <cc:Work>
    <dc:type rdf:resource="http://purl.org/dc/dcmitype/StillImage"/>
    <dc:date>2024-08-01T13:47:09.439126</dc:date>
    <dc:format>image/svg+xml</dc:format>
    <dc:creator>
     <cc:Agent>
      <dc:title>Matplotlib v3.8.3, https://matplotlib.org/</dc:title>
     </cc:Agent>
    </dc:creator>
   </cc:Work>
  </rdf:RDF>
 </metadata>
 <defs>
  <style type="text/css">*{stroke-linejoin: round; stroke-linecap: butt}</style>
 </defs>
 <g id="figure_1">
  <g id="patch_1">
   <path d="M 0 568.8 
L 511.498478 568.8 
L 511.498478 0 
L 0 0 
z
" style="fill: #ffffff"/>
  </g>
  <g id="axes_1">
   <g id="patch_2">
    <path d="M 7.2 561.6 
L 504.298478 561.6 
L 504.298478 7.2 
L 7.2 7.2 
z
" style="fill: #ffffff"/>
   </g>
   <g id="patch_3">
    <path d="M 88.597936 288.729884 
Q 261.460519 388.532143 433.354856 487.775386 
" clip-path="url(#p6be3bfed16)" style="fill: none; stroke: #000000; stroke-linecap: round"/>
    <path d="M 430.890754 484.043335 
L 433.354856 487.775386 
L 428.890754 487.507437 
z
" clip-path="url(#p6be3bfed16)" style="stroke: #000000; stroke-linecap: round"/>
   </g>
   <g id="patch_4">
    <path d="M 88.597934 280.070205 
Q 261.460483 180.267905 433.354786 81.024621 
" clip-path="url(#p6be3bfed16)" style="fill: none; stroke: #000000; stroke-linecap: round"/>
    <path d="M 428.890684 81.292572 
L 433.354786 81.024621 
L 430.890685 84.756673 
z
" clip-path="url(#p6be3bfed16)" style="stroke: #000000; stroke-linecap: round"/>
   </g>
   <g id="text_1">
    <g id="patch_5">
     <path d="M 241.010728 385.777221 
L 274.071247 404.864721 
Q 276.669323 406.364721 278.169323 403.766645 
L 283.008386 395.385142 
Q 284.508386 392.787066 281.91031 391.287066 
L 248.84979 372.199566 
Q 246.251714 370.699566 244.751714 373.297642 
L 239.912651 381.679144 
Q 238.412651 384.277221 241.010728 385.777221 
z
" clip-path="url(#p6be3bfed16)" style="fill: #ffffff; stroke: #ffffff; stroke-linejoin: miter"/>
    </g>
    <g clip-path="url(#p6be3bfed16)">
     <!-- 114665 -->
     <g transform="translate(243.550571 381.378082) rotate(-330) scale(0.1 -0.1)">
      <defs>
       <path id="DejaVuSans-31" d="M 794 531 
L 1825 531 
L 1825 4091 
L 703 3866 
L 703 4441 
L 1819 4666 
L 2450 4666 
L 2450 531 
L 3481 531 
L 3481 0 
L 794 0 
L 794 531 
z
" transform="scale(0.015625)"/>
       <path id="DejaVuSans-34" d="M 2419 4116 
L 825 1625 
L 2419 1625 
L 2419 4116 
z
M 2253 4666 
L 3047 4666 
L 3047 1625 
L 3713 1625 
L 3713 1100 
L 3047 1100 
L 3047 0 
L 2419 0 
L 2419 1100 
L 313 1100 
L 313 1709 
L 2253 4666 
z
" transform="scale(0.015625)"/>
       <path id="DejaVuSans-36" d="M 2113 2584 
Q 1688 2584 1439 2293 
Q 1191 2003 1191 1497 
Q 1191 994 1439 701 
Q 1688 409 2113 409 
Q 2538 409 2786 701 
Q 3034 994 3034 1497 
Q 3034 2003 2786 2293 
Q 2538 2584 2113 2584 
z
M 3366 4563 
L 3366 3988 
Q 3128 4100 2886 4159 
Q 2644 4219 2406 4219 
Q 1781 4219 1451 3797 
Q 1122 3375 1075 2522 
Q 1259 2794 1537 2939 
Q 1816 3084 2150 3084 
Q 2853 3084 3261 2657 
Q 3669 2231 3669 1497 
Q 3669 778 3244 343 
Q 2819 -91 2113 -91 
Q 1303 -91 875 529 
Q 447 1150 447 2328 
Q 447 3434 972 4092 
Q 1497 4750 2381 4750 
Q 2619 4750 2861 4703 
Q 3103 4656 3366 4563 
z
" transform="scale(0.015625)"/>
       <path id="DejaVuSans-35" d="M 691 4666 
L 3169 4666 
L 3169 4134 
L 1269 4134 
L 1269 2991 
Q 1406 3038 1543 3061 
Q 1681 3084 1819 3084 
Q 2600 3084 3056 2656 
Q 3513 2228 3513 1497 
Q 3513 744 3044 326 
Q 2575 -91 1722 -91 
Q 1428 -91 1123 -41 
Q 819 9 494 109 
L 494 744 
Q 775 591 1075 516 
Q 1375 441 1709 441 
Q 2250 441 2565 725 
Q 2881 1009 2881 1497 
Q 2881 1984 2565 2268 
Q 2250 2553 1709 2553 
Q 1456 2553 1204 2497 
Q 953 2441 691 2322 
L 691 4666 
z
" transform="scale(0.015625)"/>
      </defs>
      <use xlink:href="#DejaVuSans-31"/>
      <use xlink:href="#DejaVuSans-31" x="63.623047"/>
      <use xlink:href="#DejaVuSans-34" x="127.246094"/>
      <use xlink:href="#DejaVuSans-36" x="190.869141"/>
      <use xlink:href="#DejaVuSans-36" x="254.492188"/>
      <use xlink:href="#DejaVuSans-35" x="318.115234"/>
     </g>
    </g>
   </g>
   <g id="text_2">
    <g id="patch_6">
     <path d="M 248.849759 196.600485 
L 281.910273 177.512977 
Q 284.508349 176.012976 283.008348 173.4149 
L 278.169284 165.033399 
Q 276.669283 162.435324 274.071207 163.935324 
L 241.010692 183.022833 
Q 238.412617 184.522834 239.912617 187.12091 
L 244.751682 195.50241 
Q 246.251683 198.100486 248.849759 196.600485 
z
" clip-path="url(#p6be3bfed16)" style="fill: #ffffff; stroke: #ffffff; stroke-linejoin: miter"/>
    </g>
    <g clip-path="url(#p6be3bfed16)">
     <!-- 112489 -->
     <g transform="translate(246.309914 192.201348) rotate(-30.000015) scale(0.1 -0.1)">
      <defs>
       <path id="DejaVuSans-32" d="M 1228 531 
L 3431 531 
L 3431 0 
L 469 0 
L 469 531 
Q 828 903 1448 1529 
Q 2069 2156 2228 2338 
Q 2531 2678 2651 2914 
Q 2772 3150 2772 3378 
Q 2772 3750 2511 3984 
Q 2250 4219 1831 4219 
Q 1534 4219 1204 4116 
Q 875 4013 500 3803 
L 500 4441 
Q 881 4594 1212 4672 
Q 1544 4750 1819 4750 
Q 2544 4750 2975 4387 
Q 3406 4025 3406 3419 
Q 3406 3131 3298 2873 
Q 3191 2616 2906 2266 
Q 2828 2175 2409 1742 
Q 1991 1309 1228 531 
z
" transform="scale(0.015625)"/>
       <path id="DejaVuSans-38" d="M 2034 2216 
Q 1584 2216 1326 1975 
Q 1069 1734 1069 1313 
Q 1069 891 1326 650 
Q 1584 409 2034 409 
Q 2484 409 2743 651 
Q 3003 894 3003 1313 
Q 3003 1734 2745 1975 
Q 2488 2216 2034 2216 
z
M 1403 2484 
Q 997 2584 770 2862 
Q 544 3141 544 3541 
Q 544 4100 942 4425 
Q 1341 4750 2034 4750 
Q 2731 4750 3128 4425 
Q 3525 4100 3525 3541 
Q 3525 3141 3298 2862 
Q 3072 2584 2669 2484 
Q 3125 2378 3379 2068 
Q 3634 1759 3634 1313 
Q 3634 634 3220 271 
Q 2806 -91 2034 -91 
Q 1263 -91 848 271 
Q 434 634 434 1313 
Q 434 1759 690 2068 
Q 947 2378 1403 2484 
z
M 1172 3481 
Q 1172 3119 1398 2916 
Q 1625 2713 2034 2713 
Q 2441 2713 2670 2916 
Q 2900 3119 2900 3481 
Q 2900 3844 2670 4047 
Q 2441 4250 2034 4250 
Q 1625 4250 1398 4047 
Q 1172 3844 1172 3481 
z
" transform="scale(0.015625)"/>
       <path id="DejaVuSans-39" d="M 703 97 
L 703 672 
Q 941 559 1184 500 
Q 1428 441 1663 441 
Q 2288 441 2617 861 
Q 2947 1281 2994 2138 
Q 2813 1869 2534 1725 
Q 2256 1581 1919 1581 
Q 1219 1581 811 2004 
Q 403 2428 403 3163 
Q 403 3881 828 4315 
Q 1253 4750 1959 4750 
Q 2769 4750 3195 4129 
Q 3622 3509 3622 2328 
Q 3622 1225 3098 567 
Q 2575 -91 1691 -91 
Q 1453 -91 1209 -44 
Q 966 3 703 97 
z
M 1959 2075 
Q 2384 2075 2632 2365 
Q 2881 2656 2881 3163 
Q 2881 3666 2632 3958 
Q 2384 4250 1959 4250 
Q 1534 4250 1286 3958 
Q 1038 3666 1038 3163 
Q 1038 2656 1286 2365 
Q 1534 2075 1959 2075 
z
" transform="scale(0.015625)"/>
      </defs>
      <use xlink:href="#DejaVuSans-31"/>
      <use xlink:href="#DejaVuSans-31" x="63.623047"/>
      <use xlink:href="#DejaVuSans-32" x="127.246094"/>
      <use xlink:href="#DejaVuSans-34" x="190.869141"/>
      <use xlink:href="#DejaVuSans-38" x="254.492188"/>
      <use xlink:href="#DejaVuSans-39" x="318.115234"/>
     </g>
    </g>
   </g>
   <g id="patch_7">
    <path d="M 81.098436 252.335639 
C 77.675954 252.335639 74.27544 252.883601 71.026198 253.958689 
C 67.776956 255.033777 64.7207 256.622189 61.973642 258.663526 
C 59.226584 260.704863 56.823991 263.17292 54.85722 265.973848 
C 52.890449 268.774776 51.38475 271.872618 50.397376 275.14958 
C 49.410002 278.426542 48.95363 281.840554 49.045611 285.2618 
C 49.137593 288.683046 49.776749 292.067605 50.938774 295.286779 
C 52.100799 298.505953 53.770777 301.518416 55.885206 304.209619 
C 57.999635 306.900822 60.531372 309.236217 63.384146 311.127 
C 66.236921 313.017784 69.374111 314.439682 72.676426 315.338628 
C 75.97874 316.237575 79.403785 316.602029 82.821323 316.418131 
C 86.238861 316.234234 89.605019 315.504347 92.7918 314.256224 
C 95.978581 313.008101 98.945074 311.257764 101.578478 309.071771 
C 104.211883 306.885777 106.478391 304.29219 108.291821 301.38963 
C 110.105251 298.487069 111.442322 295.312798 112.252191 291.987516 
C 113.062061 288.662235 113.334332 285.228632 113.058653 281.817271 
C 112.782973 278.40591 111.962882 275.060584 110.629562 271.908498 
L 81.098436 284.400045 
z
" style="fill: #0000ff"/>
   </g>
   <g id="patch_8">
    <path d="M 110.629562 271.908498 
C 108.175152 266.106054 104.064188 261.153693 98.812723 257.673089 
C 93.561258 254.192485 87.398628 252.335637 81.09843 252.335639 
L 81.098436 284.400045 
z
" style="fill: #ff0000"/>
   </g>
   <g id="matplotlib.axis_1">
    <g id="xtick_1"/>
    <g id="xtick_2"/>
    <g id="xtick_3"/>
    <g id="xtick_4"/>
    <g id="xtick_5"/>
    <g id="xtick_6"/>
   </g>
   <g id="matplotlib.axis_2">
    <g id="ytick_1"/>
    <g id="ytick_2"/>
    <g id="ytick_3"/>
    <g id="ytick_4"/>
    <g id="ytick_5"/>
    <g id="ytick_6"/>
    <g id="ytick_7"/>
   </g>
   <g id="PathCollection_1">
    <path d="M 81.098436 300.211434 
C 85.291665 300.211434 89.313715 298.545446 92.278776 295.580385 
C 95.243837 292.615324 96.909824 288.593275 96.909824 284.400045 
C 96.909824 280.206816 95.243837 276.184766 92.278776 273.219705 
C 89.313715 270.254645 85.291665 268.588657 81.098436 268.588657 
C 76.905207 268.588657 72.883157 270.254645 69.918096 273.219705 
C 66.953035 276.184766 65.287048 280.206816 65.287048 284.400045 
C 65.287048 288.593275 66.953035 292.615324 69.918096 295.580385 
C 72.883157 298.545446 76.905207 300.211434 81.098436 300.211434 
z
" clip-path="url(#p6be3bfed16)" style="fill: #87ceeb; stroke: #000000"/>
    <path d="M 441.82299 542.664466 
C 455.083145 542.664466 467.801983 537.39615 477.178329 528.019805 
C 486.554674 518.643459 491.82299 505.924621 491.82299 492.664466 
C 491.82299 479.404311 486.554674 466.685472 477.178329 457.309127 
C 467.801983 447.932781 455.083145 442.664466 441.82299 442.664466 
C 428.562835 442.664466 415.843996 447.932781 406.467651 457.309127 
C 397.091305 466.685472 391.82299 479.404311 391.82299 492.664466 
C 391.82299 505.924621 397.091305 518.643459 406.467651 528.019805 
C 415.843996 537.39615 428.562835 542.664466 441.82299 542.664466 
z
" clip-path="url(#p6be3bfed16)" style="fill: #90ee90; stroke: #000000"/>
    <path d="M 441.822918 91.946928 
C 446.016147 91.946928 450.038197 90.280941 453.003258 87.31588 
C 455.968319 84.350819 457.634306 80.328769 457.634306 76.13554 
C 457.634306 71.942311 455.968319 67.920261 453.003258 64.9552 
C 450.038197 61.990139 446.016147 60.324152 441.822918 60.324152 
C 437.629689 60.324152 433.607639 61.990139 430.642578 64.9552 
C 427.677517 67.920261 426.01153 71.942311 426.01153 76.13554 
C 426.01153 80.328769 427.677517 84.350819 430.642578 87.31588 
C 433.607639 90.280941 437.629689 91.946928 441.822918 91.946928 
z
" clip-path="url(#p6be3bfed16)" style="fill: #90ee90; stroke: #000000"/>
   </g>
   <g id="patch_9">
    <path d="M 7.2 561.6 
L 7.2 7.2 
" style="fill: none; stroke: #000000; stroke-width: 0.8; stroke-linejoin: miter; stroke-linecap: square"/>
   </g>
   <g id="patch_10">
    <path d="M 504.298478 561.6 
L 504.298478 7.2 
" style="fill: none; stroke: #000000; stroke-width: 0.8; stroke-linejoin: miter; stroke-linecap: square"/>
   </g>
   <g id="patch_11">
    <path d="M 7.2 561.6 
L 504.298478 561.6 
" style="fill: none; stroke: #000000; stroke-width: 0.8; stroke-linejoin: miter; stroke-linecap: square"/>
   </g>
   <g id="patch_12">
    <path d="M 7.2 7.2 
L 504.298478 7.2 
" style="fill: none; stroke: #000000; stroke-width: 0.8; stroke-linejoin: miter; stroke-linecap: square"/>
   </g>
   <g id="text_3">
    <g clip-path="url(#p6be3bfed16)">
     <!-- $\mathbf{K}$ -->
     <g transform="translate(76.418436 287.711295) scale(0.12 -0.12)">
      <defs>
       <path id="DejaVuSans-Bold-4b" d="M 588 4666 
L 1791 4666 
L 1791 2963 
L 3525 4666 
L 4922 4666 
L 2675 2456 
L 5153 0 
L 3647 0 
L 1791 1838 
L 1791 0 
L 588 0 
L 588 4666 
z
" transform="scale(0.015625)"/>
      </defs>
      <use xlink:href="#DejaVuSans-Bold-4b" transform="translate(0 0.09375)"/>
     </g>
    </g>
   </g>
   <g id="text_4">
    <g clip-path="url(#p6be3bfed16)">
     <!-- NCC -->
     <g transform="translate(428.954865 495.975716) scale(0.12 -0.12)">
      <defs>
       <path id="DejaVuSans-4e" d="M 628 4666 
L 1478 4666 
L 3547 763 
L 3547 4666 
L 4159 4666 
L 4159 0 
L 3309 0 
L 1241 3903 
L 1241 0 
L 628 0 
L 628 4666 
z
" transform="scale(0.015625)"/>
       <path id="DejaVuSans-43" d="M 4122 4306 
L 4122 3641 
Q 3803 3938 3442 4084 
Q 3081 4231 2675 4231 
Q 1875 4231 1450 3742 
Q 1025 3253 1025 2328 
Q 1025 1406 1450 917 
Q 1875 428 2675 428 
Q 3081 428 3442 575 
Q 3803 722 4122 1019 
L 4122 359 
Q 3791 134 3420 21 
Q 3050 -91 2638 -91 
Q 1578 -91 968 557 
Q 359 1206 359 2328 
Q 359 3453 968 4101 
Q 1578 4750 2638 4750 
Q 3056 4750 3426 4639 
Q 3797 4528 4122 4306 
z
" transform="scale(0.015625)"/>
      </defs>
      <use xlink:href="#DejaVuSans-4e"/>
      <use xlink:href="#DejaVuSans-43" x="74.804688"/>
      <use xlink:href="#DejaVuSans-43" x="144.628906"/>
     </g>
    </g>
   </g>
   <g id="text_5">
    <g clip-path="url(#p6be3bfed16)">
     <!-- AAG -->
     <g transform="translate(428.905106 79.44679) scale(0.12 -0.12)">
      <defs>
       <path id="DejaVuSans-41" d="M 2188 4044 
L 1331 1722 
L 3047 1722 
L 2188 4044 
z
M 1831 4666 
L 2547 4666 
L 4325 0 
L 3669 0 
L 3244 1197 
L 1141 1197 
L 716 0 
L 50 0 
L 1831 4666 
z
" transform="scale(0.015625)"/>
       <path id="DejaVuSans-47" d="M 3809 666 
L 3809 1919 
L 2778 1919 
L 2778 2438 
L 4434 2438 
L 4434 434 
Q 4069 175 3628 42 
Q 3188 -91 2688 -91 
Q 1594 -91 976 548 
Q 359 1188 359 2328 
Q 359 3472 976 4111 
Q 1594 4750 2688 4750 
Q 3144 4750 3555 4637 
Q 3966 4525 4313 4306 
L 4313 3634 
Q 3963 3931 3569 4081 
Q 3175 4231 2741 4231 
Q 1884 4231 1454 3753 
Q 1025 3275 1025 2328 
Q 1025 1384 1454 906 
Q 1884 428 2741 428 
Q 3075 428 3337 486 
Q 3600 544 3809 666 
z
" transform="scale(0.015625)"/>
      </defs>
      <use xlink:href="#DejaVuSans-41"/>
      <use xlink:href="#DejaVuSans-41" x="71.158203"/>
      <use xlink:href="#DejaVuSans-47" x="137.816406"/>
     </g>
    </g>
   </g>
   <g id="legend_1">
    <g id="patch_13">
     <path d="M 14.2 44.55625 
L 116.278125 44.55625 
Q 118.278125 44.55625 118.278125 42.55625 
L 118.278125 14.2 
Q 118.278125 12.2 116.278125 12.2 
L 14.2 12.2 
Q 12.2 12.2 12.2 14.2 
L 12.2 42.55625 
Q 12.2 44.55625 14.2 44.55625 
z
" style="fill: #ffffff; opacity: 0.8; stroke: #cccccc; stroke-linejoin: miter"/>
    </g>
    <g id="patch_14">
     <path d="M 16.2 23.798438 
L 36.2 23.798438 
L 36.2 16.798438 
L 16.2 16.798438 
z
" style="fill: #0000ff"/>
    </g>
    <g id="text_6">
     <!-- Genomic data -->
     <g transform="translate(44.2 23.798438) scale(0.1 -0.1)">
      <defs>
       <path id="DejaVuSans-65" d="M 3597 1894 
L 3597 1613 
L 953 1613 
Q 991 1019 1311 708 
Q 1631 397 2203 397 
Q 2534 397 2845 478 
Q 3156 559 3463 722 
L 3463 178 
Q 3153 47 2828 -22 
Q 2503 -91 2169 -91 
Q 1331 -91 842 396 
Q 353 884 353 1716 
Q 353 2575 817 3079 
Q 1281 3584 2069 3584 
Q 2775 3584 3186 3129 
Q 3597 2675 3597 1894 
z
M 3022 2063 
Q 3016 2534 2758 2815 
Q 2500 3097 2075 3097 
Q 1594 3097 1305 2825 
Q 1016 2553 972 2059 
L 3022 2063 
z
" transform="scale(0.015625)"/>
       <path id="DejaVuSans-6e" d="M 3513 2113 
L 3513 0 
L 2938 0 
L 2938 2094 
Q 2938 2591 2744 2837 
Q 2550 3084 2163 3084 
Q 1697 3084 1428 2787 
Q 1159 2491 1159 1978 
L 1159 0 
L 581 0 
L 581 3500 
L 1159 3500 
L 1159 2956 
Q 1366 3272 1645 3428 
Q 1925 3584 2291 3584 
Q 2894 3584 3203 3211 
Q 3513 2838 3513 2113 
z
" transform="scale(0.015625)"/>
       <path id="DejaVuSans-6f" d="M 1959 3097 
Q 1497 3097 1228 2736 
Q 959 2375 959 1747 
Q 959 1119 1226 758 
Q 1494 397 1959 397 
Q 2419 397 2687 759 
Q 2956 1122 2956 1747 
Q 2956 2369 2687 2733 
Q 2419 3097 1959 3097 
z
M 1959 3584 
Q 2709 3584 3137 3096 
Q 3566 2609 3566 1747 
Q 3566 888 3137 398 
Q 2709 -91 1959 -91 
Q 1206 -91 779 398 
Q 353 888 353 1747 
Q 353 2609 779 3096 
Q 1206 3584 1959 3584 
z
" transform="scale(0.015625)"/>
       <path id="DejaVuSans-6d" d="M 3328 2828 
Q 3544 3216 3844 3400 
Q 4144 3584 4550 3584 
Q 5097 3584 5394 3201 
Q 5691 2819 5691 2113 
L 5691 0 
L 5113 0 
L 5113 2094 
Q 5113 2597 4934 2840 
Q 4756 3084 4391 3084 
Q 3944 3084 3684 2787 
Q 3425 2491 3425 1978 
L 3425 0 
L 2847 0 
L 2847 2094 
Q 2847 2600 2669 2842 
Q 2491 3084 2119 3084 
Q 1678 3084 1418 2786 
Q 1159 2488 1159 1978 
L 1159 0 
L 581 0 
L 581 3500 
L 1159 3500 
L 1159 2956 
Q 1356 3278 1631 3431 
Q 1906 3584 2284 3584 
Q 2666 3584 2933 3390 
Q 3200 3197 3328 2828 
z
" transform="scale(0.015625)"/>
       <path id="DejaVuSans-69" d="M 603 3500 
L 1178 3500 
L 1178 0 
L 603 0 
L 603 3500 
z
M 603 4863 
L 1178 4863 
L 1178 4134 
L 603 4134 
L 603 4863 
z
" transform="scale(0.015625)"/>
       <path id="DejaVuSans-63" d="M 3122 3366 
L 3122 2828 
Q 2878 2963 2633 3030 
Q 2388 3097 2138 3097 
Q 1578 3097 1268 2742 
Q 959 2388 959 1747 
Q 959 1106 1268 751 
Q 1578 397 2138 397 
Q 2388 397 2633 464 
Q 2878 531 3122 666 
L 3122 134 
Q 2881 22 2623 -34 
Q 2366 -91 2075 -91 
Q 1284 -91 818 406 
Q 353 903 353 1747 
Q 353 2603 823 3093 
Q 1294 3584 2113 3584 
Q 2378 3584 2631 3529 
Q 2884 3475 3122 3366 
z
" transform="scale(0.015625)"/>
       <path id="DejaVuSans-20" transform="scale(0.015625)"/>
       <path id="DejaVuSans-64" d="M 2906 2969 
L 2906 4863 
L 3481 4863 
L 3481 0 
L 2906 0 
L 2906 525 
Q 2725 213 2448 61 
Q 2172 -91 1784 -91 
Q 1150 -91 751 415 
Q 353 922 353 1747 
Q 353 2572 751 3078 
Q 1150 3584 1784 3584 
Q 2172 3584 2448 3432 
Q 2725 3281 2906 2969 
z
M 947 1747 
Q 947 1113 1208 752 
Q 1469 391 1925 391 
Q 2381 391 2643 752 
Q 2906 1113 2906 1747 
Q 2906 2381 2643 2742 
Q 2381 3103 1925 3103 
Q 1469 3103 1208 2742 
Q 947 2381 947 1747 
z
" transform="scale(0.015625)"/>
       <path id="DejaVuSans-61" d="M 2194 1759 
Q 1497 1759 1228 1600 
Q 959 1441 959 1056 
Q 959 750 1161 570 
Q 1363 391 1709 391 
Q 2188 391 2477 730 
Q 2766 1069 2766 1631 
L 2766 1759 
L 2194 1759 
z
M 3341 1997 
L 3341 0 
L 2766 0 
L 2766 531 
Q 2569 213 2275 61 
Q 1981 -91 1556 -91 
Q 1019 -91 701 211 
Q 384 513 384 1019 
Q 384 1609 779 1909 
Q 1175 2209 1959 2209 
L 2766 2209 
L 2766 2266 
Q 2766 2663 2505 2880 
Q 2244 3097 1772 3097 
Q 1472 3097 1187 3025 
Q 903 2953 641 2809 
L 641 3341 
Q 956 3463 1253 3523 
Q 1550 3584 1831 3584 
Q 2591 3584 2966 3190 
Q 3341 2797 3341 1997 
z
" transform="scale(0.015625)"/>
       <path id="DejaVuSans-74" d="M 1172 4494 
L 1172 3500 
L 2356 3500 
L 2356 3053 
L 1172 3053 
L 1172 1153 
Q 1172 725 1289 603 
Q 1406 481 1766 481 
L 2356 481 
L 2356 0 
L 1766 0 
Q 1100 0 847 248 
Q 594 497 594 1153 
L 594 3053 
L 172 3053 
L 172 3500 
L 594 3500 
L 594 4494 
L 1172 4494 
z
" transform="scale(0.015625)"/>
      </defs>
      <use xlink:href="#DejaVuSans-47"/>
      <use xlink:href="#DejaVuSans-65" x="77.490234"/>
      <use xlink:href="#DejaVuSans-6e" x="139.013672"/>
      <use xlink:href="#DejaVuSans-6f" x="202.392578"/>
      <use xlink:href="#DejaVuSans-6d" x="263.574219"/>
      <use xlink:href="#DejaVuSans-69" x="360.986328"/>
      <use xlink:href="#DejaVuSans-63" x="388.769531"/>
      <use xlink:href="#DejaVuSans-20" x="443.75"/>
      <use xlink:href="#DejaVuSans-64" x="475.537109"/>
      <use xlink:href="#DejaVuSans-61" x="539.013672"/>
      <use xlink:href="#DejaVuSans-74" x="600.292969"/>
      <use xlink:href="#DejaVuSans-61" x="639.501953"/>
     </g>
    </g>
    <g id="patch_15">
     <path d="M 16.2 38.476563 
L 36.2 38.476563 
L 36.2 31.476563 
L 16.2 31.476563 
z
" style="fill: #ff0000"/>
    </g>
    <g id="text_7">
     <!-- Genetic code -->
     <g transform="translate(44.2 38.476563) scale(0.1 -0.1)">
      <use xlink:href="#DejaVuSans-47"/>
      <use xlink:href="#DejaVuSans-65" x="77.490234"/>
      <use xlink:href="#DejaVuSans-6e" x="139.013672"/>
      <use xlink:href="#DejaVuSans-65" x="202.392578"/>
      <use xlink:href="#DejaVuSans-74" x="263.916016"/>
      <use xlink:href="#DejaVuSans-69" x="303.125"/>
      <use xlink:href="#DejaVuSans-63" x="330.908203"/>
      <use xlink:href="#DejaVuSans-20" x="385.888672"/>
      <use xlink:href="#DejaVuSans-63" x="417.675781"/>
      <use xlink:href="#DejaVuSans-6f" x="472.65625"/>
      <use xlink:href="#DejaVuSans-64" x="533.837891"/>
      <use xlink:href="#DejaVuSans-65" x="597.314453"/>
     </g>
    </g>
   </g>
  </g>
 </g>
 <defs>
  <clipPath id="p6be3bfed16">
   <rect x="7.2" y="7.2" width="497.098478" height="554.4"/>
  </clipPath>
 </defs>
</svg>
