<?xml version="1.0" encoding="utf-8" standalone="no"?>
<!DOCTYPE svg PUBLIC "-//W3C//DTD SVG 1.1//EN"
  "http://www.w3.org/Graphics/SVG/1.1/DTD/svg11.dtd">
<svg xmlns:xlink="http://www.w3.org/1999/xlink" width="572.4pt" height="490.429695pt" viewBox="0 0 572.4 490.429695" xmlns="http://www.w3.org/2000/svg" version="1.1">
 <metadata>
  <rdf:RDF xmlns:dc="http://purl.org/dc/elements/1.1/" xmlns:cc="http://creativecommons.org/ns#" xmlns:rdf="http://www.w3.org/1999/02/22-rdf-syntax-ns#">
   <cc:Work>
    <dc:type rdf:resource="http://purl.org/dc/dcmitype/StillImage"/>
    <dc:date>2024-08-01T13:47:12.177275</dc:date>
    <dc:format>image/svg+xml</dc:format>
    <dc:creator>
     <cc:Agent>
      <dc:title>Matplotlib v3.8.3, https://matplotlib.org/</dc:title>
     </cc:Agent>
    </dc:creator>
   </cc:Work>
  </rdf:RDF>
 </metadata>
 <defs>
  <style type="text/css">*{stroke-linejoin: round; stroke-linecap: butt}</style>
 </defs>
 <g id="figure_1">
  <g id="patch_1">
   <path d="M 0 490.429695 
L 572.4 490.429695 
L 572.4 0 
L 0 0 
z
" style="fill: #ffffff"/>
  </g>
  <g id="axes_1">
   <g id="patch_2">
    <path d="M 7.2 483.229695 
L 565.2 483.229695 
L 565.2 7.2 
L 7.2 7.2 
z
" style="fill: #ffffff"/>
   </g>
   <g id="patch_3">
    <path d="M 80.945162 252.715913 
Q 128.236778 334.627377 174.969377 415.570594 
" clip-path="url(#p3b932d48a6)" style="fill: none; stroke: #000000; stroke-linecap: round"/>
    <path d="M 174.701428 411.106493 
L 174.969377 415.570594 
L 171.237326 413.106493 
z
" clip-path="url(#p3b932d48a6)" style="stroke: #000000; stroke-linecap: round"/>
   </g>
   <g id="patch_4">
    <path d="M 84.112462 249.543871 
Q 231.479124 334.626054 377.877539 419.149219 
" clip-path="url(#p3b932d48a6)" style="fill: none; stroke: #000000; stroke-linecap: round"/>
    <path d="M 375.413438 415.417168 
L 377.877539 419.149219 
L 373.413438 418.88127 
z
" clip-path="url(#p3b932d48a6)" style="stroke: #000000; stroke-linecap: round"/>
   </g>
   <g id="patch_5">
    <path d="M 85.275881 245.214885 
Q 283.104041 245.214859 479.814168 245.214834 
" clip-path="url(#p3b932d48a6)" style="fill: none; stroke: #000000; stroke-linecap: round"/>
    <path d="M 475.814168 243.214834 
L 479.814168 245.214834 
L 475.814168 247.214834 
z
" clip-path="url(#p3b932d48a6)" style="stroke: #000000; stroke-linecap: round"/>
   </g>
   <g id="patch_6">
    <path d="M 84.112461 240.8859 
Q 231.479093 155.803683 377.877479 71.280483 
" clip-path="url(#p3b932d48a6)" style="fill: none; stroke: #000000; stroke-linecap: round"/>
    <path d="M 373.413378 71.548433 
L 377.877479 71.280483 
L 375.413379 75.012534 
z
" clip-path="url(#p3b932d48a6)" style="stroke: #000000; stroke-linecap: round"/>
   </g>
   <g id="patch_7">
    <path d="M 80.945159 237.71386 
Q 128.236744 155.802397 174.969313 74.859179 
" clip-path="url(#p3b932d48a6)" style="fill: none; stroke: #000000; stroke-linecap: round"/>
    <path d="M 171.237262 77.323282 
L 174.969313 74.859179 
L 174.701364 79.323281 
z
" clip-path="url(#p3b932d48a6)" style="stroke: #000000; stroke-linecap: round"/>
   </g>
   <g id="text_1">
    <g id="patch_8">
     <path d="M 111.9042 322.01665 
L 130.991703 355.077168 
Q 132.491703 357.675244 135.089779 356.175243 
L 143.471281 351.33618 
Q 146.069357 349.83618 144.569357 347.238104 
L 125.481853 314.177586 
Q 123.981853 311.57951 121.383777 313.07951 
L 113.002275 317.918573 
Q 110.404199 319.418574 111.9042 322.01665 
z
" clip-path="url(#p3b932d48a6)" style="fill: #ffffff; stroke: #ffffff; stroke-linejoin: miter"/>
    </g>
    <g clip-path="url(#p3b932d48a6)">
     <!-- 124260 -->
     <g transform="translate(116.303338 319.476806) rotate(-300.000006) scale(0.1 -0.1)">
      <defs>
       <path id="DejaVuSans-31" d="M 794 531 
L 1825 531 
L 1825 4091 
L 703 3866 
L 703 4441 
L 1819 4666 
L 2450 4666 
L 2450 531 
L 3481 531 
L 3481 0 
L 794 0 
L 794 531 
z
" transform="scale(0.015625)"/>
       <path id="DejaVuSans-32" d="M 1228 531 
L 3431 531 
L 3431 0 
L 469 0 
L 469 531 
Q 828 903 1448 1529 
Q 2069 2156 2228 2338 
Q 2531 2678 2651 2914 
Q 2772 3150 2772 3378 
Q 2772 3750 2511 3984 
Q 2250 4219 1831 4219 
Q 1534 4219 1204 4116 
Q 875 4013 500 3803 
L 500 4441 
Q 881 4594 1212 4672 
Q 1544 4750 1819 4750 
Q 2544 4750 2975 4387 
Q 3406 4025 3406 3419 
Q 3406 3131 3298 2873 
Q 3191 2616 2906 2266 
Q 2828 2175 2409 1742 
Q 1991 1309 1228 531 
z
" transform="scale(0.015625)"/>
       <path id="DejaVuSans-34" d="M 2419 4116 
L 825 1625 
L 2419 1625 
L 2419 4116 
z
M 2253 4666 
L 3047 4666 
L 3047 1625 
L 3713 1625 
L 3713 1100 
L 3047 1100 
L 3047 0 
L 2419 0 
L 2419 1100 
L 313 1100 
L 313 1709 
L 2253 4666 
z
" transform="scale(0.015625)"/>
       <path id="DejaVuSans-36" d="M 2113 2584 
Q 1688 2584 1439 2293 
Q 1191 2003 1191 1497 
Q 1191 994 1439 701 
Q 1688 409 2113 409 
Q 2538 409 2786 701 
Q 3034 994 3034 1497 
Q 3034 2003 2786 2293 
Q 2538 2584 2113 2584 
z
M 3366 4563 
L 3366 3988 
Q 3128 4100 2886 4159 
Q 2644 4219 2406 4219 
Q 1781 4219 1451 3797 
Q 1122 3375 1075 2522 
Q 1259 2794 1537 2939 
Q 1816 3084 2150 3084 
Q 2853 3084 3261 2657 
Q 3669 2231 3669 1497 
Q 3669 778 3244 343 
Q 2819 -91 2113 -91 
Q 1303 -91 875 529 
Q 447 1150 447 2328 
Q 447 3434 972 4092 
Q 1497 4750 2381 4750 
Q 2619 4750 2861 4703 
Q 3103 4656 3366 4563 
z
" transform="scale(0.015625)"/>
       <path id="DejaVuSans-30" d="M 2034 4250 
Q 1547 4250 1301 3770 
Q 1056 3291 1056 2328 
Q 1056 1369 1301 889 
Q 1547 409 2034 409 
Q 2525 409 2770 889 
Q 3016 1369 3016 2328 
Q 3016 3291 2770 3770 
Q 2525 4250 2034 4250 
z
M 2034 4750 
Q 2819 4750 3233 4129 
Q 3647 3509 3647 2328 
Q 3647 1150 3233 529 
Q 2819 -91 2034 -91 
Q 1250 -91 836 529 
Q 422 1150 422 2328 
Q 422 3509 836 4129 
Q 1250 4750 2034 4750 
z
" transform="scale(0.015625)"/>
      </defs>
      <use xlink:href="#DejaVuSans-31"/>
      <use xlink:href="#DejaVuSans-32" x="63.623047"/>
      <use xlink:href="#DejaVuSans-34" x="127.246094"/>
      <use xlink:href="#DejaVuSans-32" x="190.869141"/>
      <use xlink:href="#DejaVuSans-36" x="254.492188"/>
      <use xlink:href="#DejaVuSans-30" x="318.115234"/>
     </g>
    </g>
   </g>
   <g id="text_2">
    <g id="patch_9">
     <path d="M 213.784376 333.461756 
L 241.334809 349.368006 
Q 243.932885 350.868006 245.432885 348.26993 
L 250.271948 339.888428 
Q 251.771948 337.290351 249.173872 335.790351 
L 221.623438 319.884101 
Q 219.025362 318.384101 217.525362 320.982177 
L 212.6863 329.36368 
Q 211.1863 331.961756 213.784376 333.461756 
z
" clip-path="url(#p3b932d48a6)" style="fill: #ffffff; stroke: #ffffff; stroke-linejoin: miter"/>
    </g>
    <g clip-path="url(#p3b932d48a6)">
     <!-- 12369 -->
     <g transform="translate(216.32422 329.062617) rotate(-330) scale(0.1 -0.1)">
      <defs>
       <path id="DejaVuSans-33" d="M 2597 2516 
Q 3050 2419 3304 2112 
Q 3559 1806 3559 1356 
Q 3559 666 3084 287 
Q 2609 -91 1734 -91 
Q 1441 -91 1130 -33 
Q 819 25 488 141 
L 488 750 
Q 750 597 1062 519 
Q 1375 441 1716 441 
Q 2309 441 2620 675 
Q 2931 909 2931 1356 
Q 2931 1769 2642 2001 
Q 2353 2234 1838 2234 
L 1294 2234 
L 1294 2753 
L 1863 2753 
Q 2328 2753 2575 2939 
Q 2822 3125 2822 3475 
Q 2822 3834 2567 4026 
Q 2313 4219 1838 4219 
Q 1578 4219 1281 4162 
Q 984 4106 628 3988 
L 628 4550 
Q 988 4650 1302 4700 
Q 1616 4750 1894 4750 
Q 2613 4750 3031 4423 
Q 3450 4097 3450 3541 
Q 3450 3153 3228 2886 
Q 3006 2619 2597 2516 
z
" transform="scale(0.015625)"/>
       <path id="DejaVuSans-39" d="M 703 97 
L 703 672 
Q 941 559 1184 500 
Q 1428 441 1663 441 
Q 2288 441 2617 861 
Q 2947 1281 2994 2138 
Q 2813 1869 2534 1725 
Q 2256 1581 1919 1581 
Q 1219 1581 811 2004 
Q 403 2428 403 3163 
Q 403 3881 828 4315 
Q 1253 4750 1959 4750 
Q 2769 4750 3195 4129 
Q 3622 3509 3622 2328 
Q 3622 1225 3098 567 
Q 2575 -91 1691 -91 
Q 1453 -91 1209 -44 
Q 966 3 703 97 
z
M 1959 2075 
Q 2384 2075 2632 2365 
Q 2881 2656 2881 3163 
Q 2881 3666 2632 3958 
Q 2384 4250 1959 4250 
Q 1534 4250 1286 3958 
Q 1038 3666 1038 3163 
Q 1038 2656 1286 2365 
Q 1534 2075 1959 2075 
z
" transform="scale(0.015625)"/>
      </defs>
      <use xlink:href="#DejaVuSans-31"/>
      <use xlink:href="#DejaVuSans-32" x="63.623047"/>
      <use xlink:href="#DejaVuSans-33" x="127.246094"/>
      <use xlink:href="#DejaVuSans-36" x="190.869141"/>
      <use xlink:href="#DejaVuSans-39" x="254.492188"/>
     </g>
    </g>
   </g>
   <g id="text_3">
    <g id="patch_10">
     <path d="M 270.379042 253.053924 
L 295.829042 253.05392 
Q 298.829042 253.05392 298.829042 250.05392 
L 298.829041 240.375795 
Q 298.82904 237.375795 295.82904 237.375795 
L 270.37904 237.375799 
Q 267.37904 237.375799 267.379041 240.375799 
L 267.379042 250.053924 
Q 267.379042 253.053924 270.379042 253.053924 
z
" clip-path="url(#p3b932d48a6)" style="fill: #ffffff; stroke: #ffffff; stroke-linejoin: miter"/>
    </g>
    <g clip-path="url(#p3b932d48a6)">
     <!-- 8969 -->
     <g transform="translate(270.379042 247.974236) rotate(-0.000008) scale(0.1 -0.1)">
      <defs>
       <path id="DejaVuSans-38" d="M 2034 2216 
Q 1584 2216 1326 1975 
Q 1069 1734 1069 1313 
Q 1069 891 1326 650 
Q 1584 409 2034 409 
Q 2484 409 2743 651 
Q 3003 894 3003 1313 
Q 3003 1734 2745 1975 
Q 2488 2216 2034 2216 
z
M 1403 2484 
Q 997 2584 770 2862 
Q 544 3141 544 3541 
Q 544 4100 942 4425 
Q 1341 4750 2034 4750 
Q 2731 4750 3128 4425 
Q 3525 4100 3525 3541 
Q 3525 3141 3298 2862 
Q 3072 2584 2669 2484 
Q 3125 2378 3379 2068 
Q 3634 1759 3634 1313 
Q 3634 634 3220 271 
Q 2806 -91 2034 -91 
Q 1263 -91 848 271 
Q 434 634 434 1313 
Q 434 1759 690 2068 
Q 947 2378 1403 2484 
z
M 1172 3481 
Q 1172 3119 1398 2916 
Q 1625 2713 2034 2713 
Q 2441 2713 2670 2916 
Q 2900 3119 2900 3481 
Q 2900 3844 2670 4047 
Q 2441 4250 2034 4250 
Q 1625 4250 1398 4047 
Q 1172 3844 1172 3481 
z
" transform="scale(0.015625)"/>
      </defs>
      <use xlink:href="#DejaVuSans-38"/>
      <use xlink:href="#DejaVuSans-39" x="63.623047"/>
      <use xlink:href="#DejaVuSans-36" x="127.246094"/>
      <use xlink:href="#DejaVuSans-39" x="190.869141"/>
     </g>
    </g>
   </g>
   <g id="text_4">
    <g id="patch_11">
     <path d="M 221.623412 170.545638 
L 249.173841 154.63938 
Q 251.771916 153.13938 250.271916 150.541304 
L 245.432851 142.159803 
Q 243.93285 139.561727 241.334774 141.061728 
L 213.784345 156.967985 
Q 211.18627 158.467986 212.68627 161.066062 
L 217.525335 169.447563 
Q 219.025336 172.045638 221.623412 170.545638 
z
" clip-path="url(#p3b932d48a6)" style="fill: #ffffff; stroke: #ffffff; stroke-linejoin: miter"/>
    </g>
    <g clip-path="url(#p3b932d48a6)">
     <!-- 26008 -->
     <g transform="translate(219.083567 166.1465) rotate(-30.000015) scale(0.1 -0.1)">
      <use xlink:href="#DejaVuSans-32"/>
      <use xlink:href="#DejaVuSans-36" x="63.623047"/>
      <use xlink:href="#DejaVuSans-30" x="127.246094"/>
      <use xlink:href="#DejaVuSans-30" x="190.869141"/>
      <use xlink:href="#DejaVuSans-38" x="254.492188"/>
     </g>
    </g>
   </g>
   <g id="text_5">
    <g id="patch_12">
     <path d="M 127.07245 173.497145 
L 142.978695 145.946709 
Q 144.478694 143.348632 141.880618 141.848633 
L 133.499115 137.009572 
Q 130.901038 135.509572 129.401039 138.107649 
L 113.494794 165.658085 
Q 111.994794 168.256161 114.592871 169.756161 
L 122.974374 174.595222 
Q 125.57245 176.095221 127.07245 173.497145 
z
" clip-path="url(#p3b932d48a6)" style="fill: #ffffff; stroke: #ffffff; stroke-linejoin: miter"/>
    </g>
    <g clip-path="url(#p3b932d48a6)">
     <!-- 21104 -->
     <g transform="translate(122.673311 170.957302) rotate(-60.00001) scale(0.1 -0.1)">
      <use xlink:href="#DejaVuSans-32"/>
      <use xlink:href="#DejaVuSans-31" x="63.623047"/>
      <use xlink:href="#DejaVuSans-31" x="127.246094"/>
      <use xlink:href="#DejaVuSans-30" x="190.869141"/>
      <use xlink:href="#DejaVuSans-34" x="254.492188"/>
     </g>
    </g>
   </g>
   <g id="patch_13">
    <path d="M 76.614441 217.683123 
C 69.601178 217.683123 62.846279 220.362893 57.740366 225.170753 
C 52.634453 229.978613 49.553724 236.560324 49.132403 243.560921 
C 48.711083 250.561518 50.980214 257.465203 55.472653 262.850725 
C 59.965093 268.236248 66.349843 271.706808 73.312485 272.547927 
L 76.614441 245.214886 
z
" style="fill: #0000ff"/>
   </g>
   <g id="patch_14">
    <path d="M 73.312485 272.547927 
C 77.040107 272.998241 80.820749 272.681283 84.421358 271.616592 
C 88.021967 270.551901 91.367007 268.761813 94.25028 266.356674 
C 97.133552 263.951536 99.49457 260.981804 101.187791 257.630542 
C 102.881011 254.27928 103.870915 250.616794 104.096479 246.868852 
C 104.322043 243.120909 103.778537 239.366137 102.499463 235.835993 
C 101.220389 232.305848 99.232581 229.074388 96.658575 226.340811 
C 94.084568 223.607235 90.978362 221.428888 87.531433 219.940051 
C 84.084504 218.451215 80.369165 217.683123 76.614441 217.683123 
L 76.614441 245.214886 
z
" style="fill: #ff0000"/>
   </g>
   <g id="matplotlib.axis_1">
    <g id="xtick_1"/>
    <g id="xtick_2"/>
    <g id="xtick_3"/>
    <g id="xtick_4"/>
    <g id="xtick_5"/>
    <g id="xtick_6"/>
    <g id="xtick_7"/>
    <g id="xtick_8"/>
    <g id="xtick_9"/>
   </g>
   <g id="matplotlib.axis_2">
    <g id="ytick_1"/>
    <g id="ytick_2"/>
    <g id="ytick_3"/>
    <g id="ytick_4"/>
    <g id="ytick_5"/>
    <g id="ytick_6"/>
    <g id="ytick_7"/>
   </g>
   <g id="PathCollection_1">
    <path d="M 76.614441 261.026275 
C 80.80767 261.026275 84.82972 259.360287 87.794781 256.395226 
C 90.759842 253.430166 92.425829 249.408116 92.425829 245.214886 
C 92.425829 241.021657 90.759842 236.999607 87.794781 234.034547 
C 84.82972 231.069486 80.80767 229.403498 76.614441 229.403498 
C 72.421212 229.403498 68.399162 231.069486 65.434101 234.034547 
C 62.46904 236.999607 60.803053 241.021657 60.803053 245.214886 
C 60.803053 249.408116 62.46904 253.430166 65.434101 256.395226 
C 68.399162 259.360287 72.421212 261.026275 76.614441 261.026275 
z
" clip-path="url(#p3b932d48a6)" style="fill: #87ceeb; stroke: #000000"/>
    <path d="M 179.858573 474.038928 
C 193.118728 474.038928 205.837567 468.770612 215.213912 459.394267 
C 224.590258 450.017921 229.858573 437.299083 229.858573 424.038928 
C 229.858573 410.778773 224.590258 398.059934 215.213912 388.683589 
C 205.837567 379.307243 193.118728 374.038928 179.858573 374.038928 
C 166.598418 374.038928 153.879579 379.307243 144.503234 388.683589 
C 135.126888 398.059934 129.858573 410.778773 129.858573 424.038928 
C 129.858573 437.299083 135.126888 450.017921 144.503234 459.394267 
C 153.879579 468.770612 166.598418 474.038928 179.858573 474.038928 
z
" clip-path="url(#p3b932d48a6)" style="fill: #90ee90; stroke: #000000"/>
    <path d="M 386.346763 441.825266 
C 391.063755 441.825266 395.588187 439.951185 398.923604 436.615768 
C 402.259021 433.280351 404.133102 428.75592 404.133102 424.038928 
C 404.133102 419.321936 402.259021 414.797504 398.923604 411.462087 
C 395.588187 408.12667 391.063755 406.252589 386.346763 406.252589 
C 381.629771 406.252589 377.10534 408.12667 373.769923 411.462087 
C 370.434505 414.797504 368.560425 419.321936 368.560425 424.038928 
C 368.560425 428.75592 370.434505 433.280351 373.769923 436.615768 
C 377.10534 439.951185 381.629771 441.825266 386.346763 441.825266 
z
" clip-path="url(#p3b932d48a6)" style="fill: #90ee90; stroke: #000000"/>
    <path d="M 489.590895 261.026221 
C 493.784124 261.026221 497.806174 259.360233 500.771235 256.395172 
C 503.736296 253.430111 505.402283 249.408061 505.402283 245.214832 
C 505.402283 241.021603 503.736296 236.999553 500.771235 234.034492 
C 497.806174 231.069432 493.784124 229.403444 489.590895 229.403444 
C 485.397666 229.403444 481.375616 231.069432 478.410555 234.034492 
C 475.445494 236.999553 473.779507 241.021603 473.779507 245.214832 
C 473.779507 249.408061 475.445494 253.430111 478.410555 256.395172 
C 481.375616 259.360233 485.397666 261.026221 489.590895 261.026221 
z
" clip-path="url(#p3b932d48a6)" style="fill: #90ee90; stroke: #000000"/>
    <path d="M 386.346702 90.526437 
C 392.747555 90.526437 398.887107 87.983351 403.413193 83.457264 
C 407.93928 78.931178 410.482366 72.791625 410.482366 66.390772 
C 410.482366 59.989919 407.93928 53.850367 403.413193 49.32428 
C 398.887107 44.798194 392.747555 42.255108 386.346702 42.255108 
C 379.945849 42.255108 373.806296 44.798194 369.28021 49.32428 
C 364.754123 53.850367 362.211037 59.989919 362.211037 66.390772 
C 362.211037 72.791625 364.754123 78.931178 369.28021 83.457264 
C 373.806296 87.983351 379.945849 90.526437 386.346702 90.526437 
z
" clip-path="url(#p3b932d48a6)" style="fill: #90ee90; stroke: #000000"/>
    <path d="M 179.858505 88.454949 
C 185.709974 88.454949 191.322569 86.130136 195.460182 81.992523 
C 199.597795 77.85491 201.922608 72.242315 201.922608 66.390846 
C 201.922608 60.539378 199.597795 54.926782 195.460182 50.789169 
C 191.322569 46.651556 185.709974 44.326743 179.858505 44.326743 
C 174.007037 44.326743 168.394441 46.651556 164.256828 50.789169 
C 160.119215 54.926782 157.794402 60.539378 157.794402 66.390846 
C 157.794402 72.242315 160.119215 77.85491 164.256828 81.992523 
C 168.394441 86.130136 174.007037 88.454949 179.858505 88.454949 
z
" clip-path="url(#p3b932d48a6)" style="fill: #90ee90; stroke: #000000"/>
   </g>
   <g id="patch_15">
    <path d="M 7.2 483.229695 
L 7.2 7.2 
" style="fill: none; stroke: #000000; stroke-width: 0.8; stroke-linejoin: miter; stroke-linecap: square"/>
   </g>
   <g id="patch_16">
    <path d="M 565.2 483.229695 
L 565.2 7.2 
" style="fill: none; stroke: #000000; stroke-width: 0.8; stroke-linejoin: miter; stroke-linecap: square"/>
   </g>
   <g id="patch_17">
    <path d="M 7.2 483.229695 
L 565.2 483.229695 
" style="fill: none; stroke: #000000; stroke-width: 0.8; stroke-linejoin: miter; stroke-linecap: square"/>
   </g>
   <g id="patch_18">
    <path d="M 7.2 7.2 
L 565.2 7.2 
" style="fill: none; stroke: #000000; stroke-width: 0.8; stroke-linejoin: miter; stroke-linecap: square"/>
   </g>
   <g id="text_6">
    <g clip-path="url(#p3b932d48a6)">
     <!-- $\mathbf{R}$ -->
     <g transform="translate(71.934441 248.526136) scale(0.12 -0.12)">
      <defs>
       <path id="DejaVuSans-Bold-52" d="M 2297 2597 
Q 2675 2597 2839 2737 
Q 3003 2878 3003 3200 
Q 3003 3519 2839 3656 
Q 2675 3794 2297 3794 
L 1791 3794 
L 1791 2597 
L 2297 2597 
z
M 1791 1766 
L 1791 0 
L 588 0 
L 588 4666 
L 2425 4666 
Q 3347 4666 3776 4356 
Q 4206 4047 4206 3378 
Q 4206 2916 3982 2619 
Q 3759 2322 3309 2181 
Q 3556 2125 3751 1926 
Q 3947 1728 4147 1325 
L 4800 0 
L 3519 0 
L 2950 1159 
Q 2778 1509 2601 1637 
Q 2425 1766 2131 1766 
L 1791 1766 
z
" transform="scale(0.015625)"/>
      </defs>
      <use xlink:href="#DejaVuSans-Bold-52" transform="translate(0 0.09375)"/>
     </g>
    </g>
   </g>
   <g id="text_7">
    <g clip-path="url(#p3b932d48a6)">
     <!-- NCC -->
     <g transform="translate(166.990448 427.350178) scale(0.12 -0.12)">
      <defs>
       <path id="DejaVuSans-4e" d="M 628 4666 
L 1478 4666 
L 3547 763 
L 3547 4666 
L 4159 4666 
L 4159 0 
L 3309 0 
L 1241 3903 
L 1241 0 
L 628 0 
L 628 4666 
z
" transform="scale(0.015625)"/>
       <path id="DejaVuSans-43" d="M 4122 4306 
L 4122 3641 
Q 3803 3938 3442 4084 
Q 3081 4231 2675 4231 
Q 1875 4231 1450 3742 
Q 1025 3253 1025 2328 
Q 1025 1406 1450 917 
Q 1875 428 2675 428 
Q 3081 428 3442 575 
Q 3803 722 4122 1019 
L 4122 359 
Q 3791 134 3420 21 
Q 3050 -91 2638 -91 
Q 1578 -91 968 557 
Q 359 1206 359 2328 
Q 359 3453 968 4101 
Q 1578 4750 2638 4750 
Q 3056 4750 3426 4639 
Q 3797 4528 4122 4306 
z
" transform="scale(0.015625)"/>
      </defs>
      <use xlink:href="#DejaVuSans-4e"/>
      <use xlink:href="#DejaVuSans-43" x="74.804688"/>
      <use xlink:href="#DejaVuSans-43" x="144.628906"/>
     </g>
    </g>
   </g>
   <g id="text_8">
    <g clip-path="url(#p3b932d48a6)">
     <!-- CGT -->
     <g transform="translate(374.060826 427.350178) scale(0.12 -0.12)">
      <defs>
       <path id="DejaVuSans-47" d="M 3809 666 
L 3809 1919 
L 2778 1919 
L 2778 2438 
L 4434 2438 
L 4434 434 
Q 4069 175 3628 42 
Q 3188 -91 2688 -91 
Q 1594 -91 976 548 
Q 359 1188 359 2328 
Q 359 3472 976 4111 
Q 1594 4750 2688 4750 
Q 3144 4750 3555 4637 
Q 3966 4525 4313 4306 
L 4313 3634 
Q 3963 3931 3569 4081 
Q 3175 4231 2741 4231 
Q 1884 4231 1454 3753 
Q 1025 3275 1025 2328 
Q 1025 1384 1454 906 
Q 1884 428 2741 428 
Q 3075 428 3337 486 
Q 3600 544 3809 666 
z
" transform="scale(0.015625)"/>
       <path id="DejaVuSans-54" d="M -19 4666 
L 3928 4666 
L 3928 4134 
L 2272 4134 
L 2272 0 
L 1638 0 
L 1638 4134 
L -19 4134 
L -19 4666 
z
" transform="scale(0.015625)"/>
      </defs>
      <use xlink:href="#DejaVuSans-43"/>
      <use xlink:href="#DejaVuSans-47" x="69.824219"/>
      <use xlink:href="#DejaVuSans-54" x="143.689453"/>
     </g>
    </g>
   </g>
   <g id="text_9">
    <g clip-path="url(#p3b932d48a6)">
     <!-- CGA -->
     <g transform="translate(476.64777 248.526082) scale(0.12 -0.12)">
      <defs>
       <path id="DejaVuSans-41" d="M 2188 4044 
L 1331 1722 
L 3047 1722 
L 2188 4044 
z
M 1831 4666 
L 2547 4666 
L 4325 0 
L 3669 0 
L 3244 1197 
L 1141 1197 
L 716 0 
L 50 0 
L 1831 4666 
z
" transform="scale(0.015625)"/>
      </defs>
      <use xlink:href="#DejaVuSans-43"/>
      <use xlink:href="#DejaVuSans-47" x="69.824219"/>
      <use xlink:href="#DejaVuSans-41" x="147.314453"/>
     </g>
    </g>
   </g>
   <g id="text_10">
    <g clip-path="url(#p3b932d48a6)">
     <!-- CGC -->
     <g transform="translate(373.318264 69.702022) scale(0.12 -0.12)">
      <use xlink:href="#DejaVuSans-43"/>
      <use xlink:href="#DejaVuSans-47" x="69.824219"/>
      <use xlink:href="#DejaVuSans-43" x="147.314453"/>
     </g>
    </g>
   </g>
   <g id="text_11">
    <g clip-path="url(#p3b932d48a6)">
     <!-- CGG -->
     <g transform="translate(166.370693 69.702096) scale(0.12 -0.12)">
      <use xlink:href="#DejaVuSans-43"/>
      <use xlink:href="#DejaVuSans-47" x="69.824219"/>
      <use xlink:href="#DejaVuSans-47" x="147.314453"/>
     </g>
    </g>
   </g>
   <g id="legend_1">
    <g id="patch_19">
     <path d="M 14.2 44.55625 
L 116.278125 44.55625 
Q 118.278125 44.55625 118.278125 42.55625 
L 118.278125 14.2 
Q 118.278125 12.2 116.278125 12.2 
L 14.2 12.2 
Q 12.2 12.2 12.2 14.2 
L 12.2 42.55625 
Q 12.2 44.55625 14.2 44.55625 
z
" style="fill: #ffffff; opacity: 0.8; stroke: #cccccc; stroke-linejoin: miter"/>
    </g>
    <g id="patch_20">
     <path d="M 16.2 23.798437 
L 36.2 23.798437 
L 36.2 16.798437 
L 16.2 16.798437 
z
" style="fill: #0000ff"/>
    </g>
    <g id="text_12">
     <!-- Genomic data -->
     <g transform="translate(44.2 23.798437) scale(0.1 -0.1)">
      <defs>
       <path id="DejaVuSans-65" d="M 3597 1894 
L 3597 1613 
L 953 1613 
Q 991 1019 1311 708 
Q 1631 397 2203 397 
Q 2534 397 2845 478 
Q 3156 559 3463 722 
L 3463 178 
Q 3153 47 2828 -22 
Q 2503 -91 2169 -91 
Q 1331 -91 842 396 
Q 353 884 353 1716 
Q 353 2575 817 3079 
Q 1281 3584 2069 3584 
Q 2775 3584 3186 3129 
Q 3597 2675 3597 1894 
z
M 3022 2063 
Q 3016 2534 2758 2815 
Q 2500 3097 2075 3097 
Q 1594 3097 1305 2825 
Q 1016 2553 972 2059 
L 3022 2063 
z
" transform="scale(0.015625)"/>
       <path id="DejaVuSans-6e" d="M 3513 2113 
L 3513 0 
L 2938 0 
L 2938 2094 
Q 2938 2591 2744 2837 
Q 2550 3084 2163 3084 
Q 1697 3084 1428 2787 
Q 1159 2491 1159 1978 
L 1159 0 
L 581 0 
L 581 3500 
L 1159 3500 
L 1159 2956 
Q 1366 3272 1645 3428 
Q 1925 3584 2291 3584 
Q 2894 3584 3203 3211 
Q 3513 2838 3513 2113 
z
" transform="scale(0.015625)"/>
       <path id="DejaVuSans-6f" d="M 1959 3097 
Q 1497 3097 1228 2736 
Q 959 2375 959 1747 
Q 959 1119 1226 758 
Q 1494 397 1959 397 
Q 2419 397 2687 759 
Q 2956 1122 2956 1747 
Q 2956 2369 2687 2733 
Q 2419 3097 1959 3097 
z
M 1959 3584 
Q 2709 3584 3137 3096 
Q 3566 2609 3566 1747 
Q 3566 888 3137 398 
Q 2709 -91 1959 -91 
Q 1206 -91 779 398 
Q 353 888 353 1747 
Q 353 2609 779 3096 
Q 1206 3584 1959 3584 
z
" transform="scale(0.015625)"/>
       <path id="DejaVuSans-6d" d="M 3328 2828 
Q 3544 3216 3844 3400 
Q 4144 3584 4550 3584 
Q 5097 3584 5394 3201 
Q 5691 2819 5691 2113 
L 5691 0 
L 5113 0 
L 5113 2094 
Q 5113 2597 4934 2840 
Q 4756 3084 4391 3084 
Q 3944 3084 3684 2787 
Q 3425 2491 3425 1978 
L 3425 0 
L 2847 0 
L 2847 2094 
Q 2847 2600 2669 2842 
Q 2491 3084 2119 3084 
Q 1678 3084 1418 2786 
Q 1159 2488 1159 1978 
L 1159 0 
L 581 0 
L 581 3500 
L 1159 3500 
L 1159 2956 
Q 1356 3278 1631 3431 
Q 1906 3584 2284 3584 
Q 2666 3584 2933 3390 
Q 3200 3197 3328 2828 
z
" transform="scale(0.015625)"/>
       <path id="DejaVuSans-69" d="M 603 3500 
L 1178 3500 
L 1178 0 
L 603 0 
L 603 3500 
z
M 603 4863 
L 1178 4863 
L 1178 4134 
L 603 4134 
L 603 4863 
z
" transform="scale(0.015625)"/>
       <path id="DejaVuSans-63" d="M 3122 3366 
L 3122 2828 
Q 2878 2963 2633 3030 
Q 2388 3097 2138 3097 
Q 1578 3097 1268 2742 
Q 959 2388 959 1747 
Q 959 1106 1268 751 
Q 1578 397 2138 397 
Q 2388 397 2633 464 
Q 2878 531 3122 666 
L 3122 134 
Q 2881 22 2623 -34 
Q 2366 -91 2075 -91 
Q 1284 -91 818 406 
Q 353 903 353 1747 
Q 353 2603 823 3093 
Q 1294 3584 2113 3584 
Q 2378 3584 2631 3529 
Q 2884 3475 3122 3366 
z
" transform="scale(0.015625)"/>
       <path id="DejaVuSans-20" transform="scale(0.015625)"/>
       <path id="DejaVuSans-64" d="M 2906 2969 
L 2906 4863 
L 3481 4863 
L 3481 0 
L 2906 0 
L 2906 525 
Q 2725 213 2448 61 
Q 2172 -91 1784 -91 
Q 1150 -91 751 415 
Q 353 922 353 1747 
Q 353 2572 751 3078 
Q 1150 3584 1784 3584 
Q 2172 3584 2448 3432 
Q 2725 3281 2906 2969 
z
M 947 1747 
Q 947 1113 1208 752 
Q 1469 391 1925 391 
Q 2381 391 2643 752 
Q 2906 1113 2906 1747 
Q 2906 2381 2643 2742 
Q 2381 3103 1925 3103 
Q 1469 3103 1208 2742 
Q 947 2381 947 1747 
z
" transform="scale(0.015625)"/>
       <path id="DejaVuSans-61" d="M 2194 1759 
Q 1497 1759 1228 1600 
Q 959 1441 959 1056 
Q 959 750 1161 570 
Q 1363 391 1709 391 
Q 2188 391 2477 730 
Q 2766 1069 2766 1631 
L 2766 1759 
L 2194 1759 
z
M 3341 1997 
L 3341 0 
L 2766 0 
L 2766 531 
Q 2569 213 2275 61 
Q 1981 -91 1556 -91 
Q 1019 -91 701 211 
Q 384 513 384 1019 
Q 384 1609 779 1909 
Q 1175 2209 1959 2209 
L 2766 2209 
L 2766 2266 
Q 2766 2663 2505 2880 
Q 2244 3097 1772 3097 
Q 1472 3097 1187 3025 
Q 903 2953 641 2809 
L 641 3341 
Q 956 3463 1253 3523 
Q 1550 3584 1831 3584 
Q 2591 3584 2966 3190 
Q 3341 2797 3341 1997 
z
" transform="scale(0.015625)"/>
       <path id="DejaVuSans-74" d="M 1172 4494 
L 1172 3500 
L 2356 3500 
L 2356 3053 
L 1172 3053 
L 1172 1153 
Q 1172 725 1289 603 
Q 1406 481 1766 481 
L 2356 481 
L 2356 0 
L 1766 0 
Q 1100 0 847 248 
Q 594 497 594 1153 
L 594 3053 
L 172 3053 
L 172 3500 
L 594 3500 
L 594 4494 
L 1172 4494 
z
" transform="scale(0.015625)"/>
      </defs>
      <use xlink:href="#DejaVuSans-47"/>
      <use xlink:href="#DejaVuSans-65" x="77.490234"/>
      <use xlink:href="#DejaVuSans-6e" x="139.013672"/>
      <use xlink:href="#DejaVuSans-6f" x="202.392578"/>
      <use xlink:href="#DejaVuSans-6d" x="263.574219"/>
      <use xlink:href="#DejaVuSans-69" x="360.986328"/>
      <use xlink:href="#DejaVuSans-63" x="388.769531"/>
      <use xlink:href="#DejaVuSans-20" x="443.75"/>
      <use xlink:href="#DejaVuSans-64" x="475.537109"/>
      <use xlink:href="#DejaVuSans-61" x="539.013672"/>
      <use xlink:href="#DejaVuSans-74" x="600.292969"/>
      <use xlink:href="#DejaVuSans-61" x="639.501953"/>
     </g>
    </g>
    <g id="patch_21">
     <path d="M 16.2 38.476562 
L 36.2 38.476562 
L 36.2 31.476562 
L 16.2 31.476562 
z
" style="fill: #ff0000"/>
    </g>
    <g id="text_13">
     <!-- Genetic code -->
     <g transform="translate(44.2 38.476562) scale(0.1 -0.1)">
      <use xlink:href="#DejaVuSans-47"/>
      <use xlink:href="#DejaVuSans-65" x="77.490234"/>
      <use xlink:href="#DejaVuSans-6e" x="139.013672"/>
      <use xlink:href="#DejaVuSans-65" x="202.392578"/>
      <use xlink:href="#DejaVuSans-74" x="263.916016"/>
      <use xlink:href="#DejaVuSans-69" x="303.125"/>
      <use xlink:href="#DejaVuSans-63" x="330.908203"/>
      <use xlink:href="#DejaVuSans-20" x="385.888672"/>
      <use xlink:href="#DejaVuSans-63" x="417.675781"/>
      <use xlink:href="#DejaVuSans-6f" x="472.65625"/>
      <use xlink:href="#DejaVuSans-64" x="533.837891"/>
      <use xlink:href="#DejaVuSans-65" x="597.314453"/>
     </g>
    </g>
   </g>
  </g>
 </g>
 <defs>
  <clipPath id="p3b932d48a6">
   <rect x="7.2" y="7.2" width="558" height="476.029695"/>
  </clipPath>
 </defs>
</svg>
