<?xml version="1.0" encoding="utf-8" standalone="no"?>
<!DOCTYPE svg PUBLIC "-//W3C//DTD SVG 1.1//EN"
  "http://www.w3.org/Graphics/SVG/1.1/DTD/svg11.dtd">
<svg xmlns:xlink="http://www.w3.org/1999/xlink" width="569.678328pt" height="568.8pt" viewBox="0 0 569.678328 568.8" xmlns="http://www.w3.org/2000/svg" version="1.1">
 <metadata>
  <rdf:RDF xmlns:dc="http://purl.org/dc/elements/1.1/" xmlns:cc="http://creativecommons.org/ns#" xmlns:rdf="http://www.w3.org/1999/02/22-rdf-syntax-ns#">
   <cc:Work>
    <dc:type rdf:resource="http://purl.org/dc/dcmitype/StillImage"/>
    <dc:date>2024-08-01T14:00:49.837556</dc:date>
    <dc:format>image/svg+xml</dc:format>
    <dc:creator>
     <cc:Agent>
      <dc:title>Matplotlib v3.8.3, https://matplotlib.org/</dc:title>
     </cc:Agent>
    </dc:creator>
   </cc:Work>
  </rdf:RDF>
 </metadata>
 <defs>
  <style type="text/css">*{stroke-linejoin: round; stroke-linecap: butt}</style>
 </defs>
 <g id="figure_1">
  <g id="patch_1">
   <path d="M 0 568.8 
L 569.678328 568.8 
L 569.678328 0 
L 0 0 
z
" style="fill: #ffffff"/>
  </g>
  <g id="axes_1">
   <g id="patch_2">
    <path d="M 7.2 561.6 
L 562.478328 561.6 
L 562.478328 7.2 
L 7.2 7.2 
z
" style="fill: #ffffff"/>
   </g>
   <g id="patch_3">
    <path d="M 80.515745 292.535031 
Q 102.292159 352.365211 123.686183 411.144783 
" clip-path="url(#p3bc0b59b83)" style="fill: none; stroke: #000000; stroke-linecap: round"/>
    <path d="M 124.197488 406.701972 
L 123.686183 411.144783 
L 120.438717 408.070053 
z
" clip-path="url(#p3bc0b59b83)" style="stroke: #000000; stroke-linecap: round"/>
   </g>
   <g id="patch_4">
    <path d="M 83.119915 291.032206 
Q 164.930414 388.530152 246.022254 485.171634 
" clip-path="url(#p3bc0b59b83)" style="fill: none; stroke: #000000; stroke-linecap: round"/>
    <path d="M 244.983192 480.821881 
L 246.022254 485.171634 
L 241.919015 483.393032 
z
" clip-path="url(#p3bc0b59b83)" style="stroke: #000000; stroke-linecap: round"/>
   </g>
   <g id="patch_5">
    <path d="M 85.054929 288.730186 
Q 236.161662 375.971699 386.300149 462.654196 
" clip-path="url(#p3bc0b59b83)" style="fill: none; stroke: #000000; stroke-linecap: round"/>
    <path d="M 383.836047 458.922145 
L 386.300149 462.654196 
L 381.836047 462.386247 
z
" clip-path="url(#p3bc0b59b83)" style="stroke: #000000; stroke-linecap: round"/>
   </g>
   <g id="patch_6">
    <path d="M 86.082955 285.903743 
Q 282.655072 320.564726 478.12614 355.031563 
" clip-path="url(#p3bc0b59b83)" style="fill: none; stroke: #000000; stroke-linecap: round"/>
    <path d="M 474.534205 352.367355 
L 478.12614 355.031563 
L 473.839612 356.306586 
z
" clip-path="url(#p3bc0b59b83)" style="stroke: #000000; stroke-linecap: round"/>
   </g>
   <g id="patch_7">
    <path d="M 86.082955 282.896267 
Q 282.655072 248.235279 478.12614 213.768436 
" clip-path="url(#p3bc0b59b83)" style="fill: none; stroke: #000000; stroke-linecap: round"/>
    <path d="M 473.839612 212.493413 
L 478.12614 213.768436 
L 474.534205 216.432644 
z
" clip-path="url(#p3bc0b59b83)" style="stroke: #000000; stroke-linecap: round"/>
   </g>
   <g id="patch_8">
    <path d="M 85.054927 280.069823 
Q 236.16163 192.828274 386.300087 106.145742 
" clip-path="url(#p3bc0b59b83)" style="fill: none; stroke: #000000; stroke-linecap: round"/>
    <path d="M 381.835986 106.413692 
L 386.300087 106.145742 
L 383.835987 109.877793 
z
" clip-path="url(#p3bc0b59b83)" style="stroke: #000000; stroke-linecap: round"/>
   </g>
   <g id="patch_9">
    <path d="M 83.119912 277.767804 
Q 164.930377 180.269853 246.022184 83.628365 
" clip-path="url(#p3bc0b59b83)" style="fill: none; stroke: #000000; stroke-linecap: round"/>
    <path d="M 241.918945 85.406968 
L 246.022184 83.628365 
L 244.983123 87.978118 
z
" clip-path="url(#p3bc0b59b83)" style="stroke: #000000; stroke-linecap: round"/>
   </g>
   <g id="patch_10">
    <path d="M 80.515742 276.264981 
Q 102.292134 216.434806 123.686136 157.65524 
" clip-path="url(#p3bc0b59b83)" style="fill: none; stroke: #000000; stroke-linecap: round"/>
    <path d="M 120.438671 160.729971 
L 123.686136 157.65524 
L 124.197442 162.098051 
z
" clip-path="url(#p3bc0b59b83)" style="stroke: #000000; stroke-linecap: round"/>
   </g>
   <g id="text_1">
    <g id="patch_11">
     <path d="M 90.573643 343.088741 
L 99.278059 367.003917 
Q 100.304119 369.822995 103.123197 368.796934 
L 112.217659 365.486819 
Q 115.036737 364.460758 114.010676 361.641681 
L 105.30626 337.726505 
Q 104.280199 334.907427 101.461122 335.933488 
L 92.366659 339.243603 
Q 89.547582 340.269664 90.573643 343.088741 
z
" clip-path="url(#p3bc0b59b83)" style="fill: #ffffff; stroke: #ffffff; stroke-linejoin: miter"/>
    </g>
    <g clip-path="url(#p3bc0b59b83)">
     <!-- 7288 -->
     <g transform="translate(95.346987 341.351385) rotate(-290.000008) scale(0.1 -0.1)">
      <defs>
       <path id="DejaVuSans-37" d="M 525 4666 
L 3525 4666 
L 3525 4397 
L 1831 0 
L 1172 0 
L 2766 4134 
L 525 4134 
L 525 4666 
z
" transform="scale(0.015625)"/>
       <path id="DejaVuSans-32" d="M 1228 531 
L 3431 531 
L 3431 0 
L 469 0 
L 469 531 
Q 828 903 1448 1529 
Q 2069 2156 2228 2338 
Q 2531 2678 2651 2914 
Q 2772 3150 2772 3378 
Q 2772 3750 2511 3984 
Q 2250 4219 1831 4219 
Q 1534 4219 1204 4116 
Q 875 4013 500 3803 
L 500 4441 
Q 881 4594 1212 4672 
Q 1544 4750 1819 4750 
Q 2544 4750 2975 4387 
Q 3406 4025 3406 3419 
Q 3406 3131 3298 2873 
Q 3191 2616 2906 2266 
Q 2828 2175 2409 1742 
Q 1991 1309 1228 531 
z
" transform="scale(0.015625)"/>
       <path id="DejaVuSans-38" d="M 2034 2216 
Q 1584 2216 1326 1975 
Q 1069 1734 1069 1313 
Q 1069 891 1326 650 
Q 1584 409 2034 409 
Q 2484 409 2743 651 
Q 3003 894 3003 1313 
Q 3003 1734 2745 1975 
Q 2488 2216 2034 2216 
z
M 1403 2484 
Q 997 2584 770 2862 
Q 544 3141 544 3541 
Q 544 4100 942 4425 
Q 1341 4750 2034 4750 
Q 2731 4750 3128 4425 
Q 3525 4100 3525 3541 
Q 3525 3141 3298 2862 
Q 3072 2584 2669 2484 
Q 3125 2378 3379 2068 
Q 3634 1759 3634 1313 
Q 3634 634 3220 271 
Q 2806 -91 2034 -91 
Q 1263 -91 848 271 
Q 434 634 434 1313 
Q 434 1759 690 2068 
Q 947 2378 1403 2484 
z
M 1172 3481 
Q 1172 3119 1398 2916 
Q 1625 2713 2034 2713 
Q 2441 2713 2670 2916 
Q 2900 3119 2900 3481 
Q 2900 3844 2670 4047 
Q 2441 4250 2034 4250 
Q 1625 4250 1398 4047 
Q 1172 3844 1172 3481 
z
" transform="scale(0.015625)"/>
      </defs>
      <use xlink:href="#DejaVuSans-37"/>
      <use xlink:href="#DejaVuSans-32" x="63.623047"/>
      <use xlink:href="#DejaVuSans-38" x="127.246094"/>
      <use xlink:href="#DejaVuSans-38" x="190.869141"/>
     </g>
    </g>
   </g>
   <g id="text_2">
    <g id="patch_12">
     <path d="M 146.656134 378.947132 
L 171.194553 408.190877 
Q 173.122916 410.48901 175.421049 408.560648 
L 182.834923 402.339668 
Q 185.133056 400.411305 183.204693 398.113172 
L 158.666274 368.869427 
Q 156.737911 366.571294 154.439778 368.499656 
L 147.025905 374.720636 
Q 144.727771 376.648999 146.656134 378.947132 
z
" clip-path="url(#p3bc0b59b83)" style="fill: #ffffff; stroke: #ffffff; stroke-linejoin: miter"/>
    </g>
    <g clip-path="url(#p3bc0b59b83)">
     <!-- 756908 -->
     <g transform="translate(150.5474 375.681971) rotate(-310.000003) scale(0.1 -0.1)">
      <defs>
       <path id="DejaVuSans-35" d="M 691 4666 
L 3169 4666 
L 3169 4134 
L 1269 4134 
L 1269 2991 
Q 1406 3038 1543 3061 
Q 1681 3084 1819 3084 
Q 2600 3084 3056 2656 
Q 3513 2228 3513 1497 
Q 3513 744 3044 326 
Q 2575 -91 1722 -91 
Q 1428 -91 1123 -41 
Q 819 9 494 109 
L 494 744 
Q 775 591 1075 516 
Q 1375 441 1709 441 
Q 2250 441 2565 725 
Q 2881 1009 2881 1497 
Q 2881 1984 2565 2268 
Q 2250 2553 1709 2553 
Q 1456 2553 1204 2497 
Q 953 2441 691 2322 
L 691 4666 
z
" transform="scale(0.015625)"/>
       <path id="DejaVuSans-36" d="M 2113 2584 
Q 1688 2584 1439 2293 
Q 1191 2003 1191 1497 
Q 1191 994 1439 701 
Q 1688 409 2113 409 
Q 2538 409 2786 701 
Q 3034 994 3034 1497 
Q 3034 2003 2786 2293 
Q 2538 2584 2113 2584 
z
M 3366 4563 
L 3366 3988 
Q 3128 4100 2886 4159 
Q 2644 4219 2406 4219 
Q 1781 4219 1451 3797 
Q 1122 3375 1075 2522 
Q 1259 2794 1537 2939 
Q 1816 3084 2150 3084 
Q 2853 3084 3261 2657 
Q 3669 2231 3669 1497 
Q 3669 778 3244 343 
Q 2819 -91 2113 -91 
Q 1303 -91 875 529 
Q 447 1150 447 2328 
Q 447 3434 972 4092 
Q 1497 4750 2381 4750 
Q 2619 4750 2861 4703 
Q 3103 4656 3366 4563 
z
" transform="scale(0.015625)"/>
       <path id="DejaVuSans-39" d="M 703 97 
L 703 672 
Q 941 559 1184 500 
Q 1428 441 1663 441 
Q 2288 441 2617 861 
Q 2947 1281 2994 2138 
Q 2813 1869 2534 1725 
Q 2256 1581 1919 1581 
Q 1219 1581 811 2004 
Q 403 2428 403 3163 
Q 403 3881 828 4315 
Q 1253 4750 1959 4750 
Q 2769 4750 3195 4129 
Q 3622 3509 3622 2328 
Q 3622 1225 3098 567 
Q 2575 -91 1691 -91 
Q 1453 -91 1209 -44 
Q 966 3 703 97 
z
M 1959 2075 
Q 2384 2075 2632 2365 
Q 2881 2656 2881 3163 
Q 2881 3666 2632 3958 
Q 2384 4250 1959 4250 
Q 1534 4250 1286 3958 
Q 1038 3666 1038 3163 
Q 1038 2656 1286 2365 
Q 1534 2075 1959 2075 
z
" transform="scale(0.015625)"/>
       <path id="DejaVuSans-30" d="M 2034 4250 
Q 1547 4250 1301 3770 
Q 1056 3291 1056 2328 
Q 1056 1369 1301 889 
Q 1547 409 2034 409 
Q 2525 409 2770 889 
Q 3016 1369 3016 2328 
Q 3016 3291 2770 3770 
Q 2525 4250 2034 4250 
z
M 2034 4750 
Q 2819 4750 3233 4129 
Q 3647 3509 3647 2328 
Q 3647 1150 3233 529 
Q 2819 -91 2034 -91 
Q 1250 -91 836 529 
Q 422 1150 422 2328 
Q 422 3509 836 4129 
Q 1250 4750 2034 4750 
z
" transform="scale(0.015625)"/>
      </defs>
      <use xlink:href="#DejaVuSans-37"/>
      <use xlink:href="#DejaVuSans-35" x="63.623047"/>
      <use xlink:href="#DejaVuSans-36" x="127.246094"/>
      <use xlink:href="#DejaVuSans-39" x="190.869141"/>
      <use xlink:href="#DejaVuSans-30" x="254.492188"/>
      <use xlink:href="#DejaVuSans-38" x="318.115234"/>
     </g>
    </g>
   </g>
   <g id="text_3">
    <g id="patch_13">
     <path d="M 215.711871 373.216776 
L 248.77239 392.304277 
Q 251.370466 393.804277 252.870466 391.2062 
L 257.709529 382.824698 
Q 259.209529 380.226622 256.611453 378.726622 
L 223.550933 359.639122 
Q 220.952857 358.139122 219.452857 360.737198 
L 214.613794 369.1187 
Q 213.113794 371.716776 215.711871 373.216776 
z
" clip-path="url(#p3bc0b59b83)" style="fill: #ffffff; stroke: #ffffff; stroke-linejoin: miter"/>
    </g>
    <g clip-path="url(#p3bc0b59b83)">
     <!-- 584330 -->
     <g transform="translate(218.251714 368.817638) rotate(-330) scale(0.1 -0.1)">
      <defs>
       <path id="DejaVuSans-34" d="M 2419 4116 
L 825 1625 
L 2419 1625 
L 2419 4116 
z
M 2253 4666 
L 3047 4666 
L 3047 1625 
L 3713 1625 
L 3713 1100 
L 3047 1100 
L 3047 0 
L 2419 0 
L 2419 1100 
L 313 1100 
L 313 1709 
L 2253 4666 
z
" transform="scale(0.015625)"/>
       <path id="DejaVuSans-33" d="M 2597 2516 
Q 3050 2419 3304 2112 
Q 3559 1806 3559 1356 
Q 3559 666 3084 287 
Q 2609 -91 1734 -91 
Q 1441 -91 1130 -33 
Q 819 25 488 141 
L 488 750 
Q 750 597 1062 519 
Q 1375 441 1716 441 
Q 2309 441 2620 675 
Q 2931 909 2931 1356 
Q 2931 1769 2642 2001 
Q 2353 2234 1838 2234 
L 1294 2234 
L 1294 2753 
L 1863 2753 
Q 2328 2753 2575 2939 
Q 2822 3125 2822 3475 
Q 2822 3834 2567 4026 
Q 2313 4219 1838 4219 
Q 1578 4219 1281 4162 
Q 984 4106 628 3988 
L 628 4550 
Q 988 4650 1302 4700 
Q 1616 4750 1894 4750 
Q 2613 4750 3031 4423 
Q 3450 4097 3450 3541 
Q 3450 3153 3228 2886 
Q 3006 2619 2597 2516 
z
" transform="scale(0.015625)"/>
      </defs>
      <use xlink:href="#DejaVuSans-35"/>
      <use xlink:href="#DejaVuSans-38" x="63.623047"/>
      <use xlink:href="#DejaVuSans-34" x="127.246094"/>
      <use xlink:href="#DejaVuSans-33" x="190.869141"/>
      <use xlink:href="#DejaVuSans-33" x="254.492188"/>
      <use xlink:href="#DejaVuSans-30" x="318.115234"/>
     </g>
    </g>
   </g>
   <g id="text_4">
    <g id="patch_14">
     <path d="M 262.496314 324.970184 
L 300.09135 331.599206 
Q 303.045773 332.120151 303.566718 329.165727 
L 305.247307 319.634635 
Q 305.768252 316.680212 302.813829 316.159267 
L 265.218793 309.530245 
Q 262.26437 309.0093 261.743425 311.963724 
L 260.062836 321.494816 
Q 259.541891 324.449239 262.496314 324.970184 
z
" clip-path="url(#p3bc0b59b83)" style="fill: #ffffff; stroke: #ffffff; stroke-linejoin: miter"/>
    </g>
    <g clip-path="url(#p3bc0b59b83)">
     <!-- 560370 -->
     <g transform="translate(263.378393 319.967668) rotate(-349.999996) scale(0.1 -0.1)">
      <use xlink:href="#DejaVuSans-35"/>
      <use xlink:href="#DejaVuSans-36" x="63.623047"/>
      <use xlink:href="#DejaVuSans-30" x="127.246094"/>
      <use xlink:href="#DejaVuSans-33" x="190.869141"/>
      <use xlink:href="#DejaVuSans-37" x="254.492188"/>
      <use xlink:href="#DejaVuSans-30" x="318.115234"/>
     </g>
    </g>
   </g>
   <g id="text_5">
    <g id="patch_15">
     <path d="M 265.218794 259.26976 
L 302.813829 252.640737 
Q 305.768252 252.119792 305.247307 249.165369 
L 303.566718 239.634277 
Q 303.045773 236.679853 300.091349 237.200798 
L 262.496314 243.829821 
Q 259.541891 244.350766 260.062836 247.305189 
L 261.743426 256.836282 
Q 262.26437 259.790705 265.218794 259.26976 
z
" clip-path="url(#p3bc0b59b83)" style="fill: #ffffff; stroke: #ffffff; stroke-linejoin: miter"/>
    </g>
    <g clip-path="url(#p3bc0b59b83)">
     <!-- 376416 -->
     <g transform="translate(264.336715 254.267244) rotate(-10.000006) scale(0.1 -0.1)">
      <defs>
       <path id="DejaVuSans-31" d="M 794 531 
L 1825 531 
L 1825 4091 
L 703 3866 
L 703 4441 
L 1819 4666 
L 2450 4666 
L 2450 531 
L 3481 531 
L 3481 0 
L 794 0 
L 794 531 
z
" transform="scale(0.015625)"/>
      </defs>
      <use xlink:href="#DejaVuSans-33"/>
      <use xlink:href="#DejaVuSans-37" x="63.623047"/>
      <use xlink:href="#DejaVuSans-36" x="127.246094"/>
      <use xlink:href="#DejaVuSans-34" x="190.869141"/>
      <use xlink:href="#DejaVuSans-31" x="254.492188"/>
      <use xlink:href="#DejaVuSans-36" x="318.115234"/>
     </g>
    </g>
   </g>
   <g id="text_6">
    <g id="patch_16">
     <path d="M 223.550906 209.160854 
L 256.611421 190.073346 
Q 259.209496 188.573345 257.709496 185.975269 
L 252.870431 177.593768 
Q 251.37043 174.995693 248.772354 176.495693 
L 215.71184 195.583202 
Q 213.113764 197.083203 214.613765 199.681279 
L 219.452829 208.062779 
Q 220.95283 210.660855 223.550906 209.160854 
z
" clip-path="url(#p3bc0b59b83)" style="fill: #ffffff; stroke: #ffffff; stroke-linejoin: miter"/>
    </g>
    <g clip-path="url(#p3bc0b59b83)">
     <!-- 536295 -->
     <g transform="translate(221.011061 204.761717) rotate(-30.000015) scale(0.1 -0.1)">
      <use xlink:href="#DejaVuSans-35"/>
      <use xlink:href="#DejaVuSans-33" x="63.623047"/>
      <use xlink:href="#DejaVuSans-36" x="127.246094"/>
      <use xlink:href="#DejaVuSans-32" x="190.869141"/>
      <use xlink:href="#DejaVuSans-39" x="254.492188"/>
      <use xlink:href="#DejaVuSans-35" x="318.115234"/>
     </g>
    </g>
   </g>
   <g id="text_7">
    <g id="patch_17">
     <path d="M 158.666243 199.930579 
L 183.204654 170.686828 
Q 185.133017 168.388695 182.834883 166.460332 
L 175.421008 160.239355 
Q 173.122874 158.310992 171.194512 160.609126 
L 146.6561 189.852877 
Q 144.727738 192.151011 147.025872 194.079373 
L 154.439747 200.300351 
Q 156.73788 202.228713 158.666243 199.930579 
z
" clip-path="url(#p3bc0b59b83)" style="fill: #ffffff; stroke: #ffffff; stroke-linejoin: miter"/>
    </g>
    <g clip-path="url(#p3bc0b59b83)">
     <!-- 683688 -->
     <g transform="translate(154.774976 196.66542) rotate(-50.00001) scale(0.1 -0.1)">
      <use xlink:href="#DejaVuSans-36"/>
      <use xlink:href="#DejaVuSans-38" x="63.623047"/>
      <use xlink:href="#DejaVuSans-33" x="127.246094"/>
      <use xlink:href="#DejaVuSans-36" x="190.869141"/>
      <use xlink:href="#DejaVuSans-38" x="254.492188"/>
      <use xlink:href="#DejaVuSans-38" x="318.115234"/>
     </g>
    </g>
   </g>
   <g id="text_8">
    <g id="patch_18">
     <path d="M 106.39429 228.084114 
L 112.922597 210.14773 
Q 113.948657 207.328652 111.129579 206.302592 
L 102.035116 202.99248 
Q 99.216038 201.96642 98.189978 204.785498 
L 91.661671 222.721882 
Q 90.635611 225.54096 93.454689 226.56702 
L 102.549152 229.877132 
Q 105.36823 230.903192 106.39429 228.084114 
z
" clip-path="url(#p3bc0b59b83)" style="fill: #ffffff; stroke: #ffffff; stroke-linejoin: miter"/>
    </g>
    <g clip-path="url(#p3bc0b59b83)">
     <!-- 351 -->
     <g transform="translate(101.620945 226.34676) rotate(-70.000009) scale(0.1 -0.1)">
      <use xlink:href="#DejaVuSans-33"/>
      <use xlink:href="#DejaVuSans-35" x="63.623047"/>
      <use xlink:href="#DejaVuSans-31" x="127.246094"/>
     </g>
    </g>
   </g>
   <g id="patch_19">
    <path d="M 77.554837 256.203034 
C 71.12161 256.203034 64.878149 258.404675 59.867906 262.440004 
C 54.857664 266.475332 51.376221 272.10628 50.005422 278.391765 
C 48.634624 284.67725 49.45534 291.246454 52.330407 297.001487 
C 55.205474 302.756519 59.965276 307.357857 65.814321 310.036492 
L 77.554837 284.400005 
z
" style="fill: #0000ff"/>
   </g>
   <g id="patch_20">
    <path d="M 65.814321 310.036492 
C 69.644631 311.790626 73.819817 312.664242 78.032082 312.592937 
C 82.244347 312.521633 86.387573 311.507204 90.156318 309.624435 
C 93.925063 307.741666 97.224384 305.037989 99.811051 301.71272 
C 102.397719 298.387451 104.206569 294.524363 105.104251 290.408245 
C 106.001933 286.292127 105.965833 282.026675 104.998613 277.926341 
C 104.031392 273.826006 102.157417 269.994087 99.514838 266.713075 
C 96.87226 263.432063 93.527651 260.784616 89.727579 258.965904 
C 85.927507 257.147192 81.767705 256.203034 77.554837 256.203034 
L 77.554837 284.400005 
z
" style="fill: #ff0000"/>
   </g>
   <g id="matplotlib.axis_1">
    <g id="xtick_1"/>
    <g id="xtick_2"/>
    <g id="xtick_3"/>
    <g id="xtick_4"/>
    <g id="xtick_5"/>
    <g id="xtick_6"/>
    <g id="xtick_7"/>
   </g>
   <g id="matplotlib.axis_2">
    <g id="ytick_1"/>
    <g id="ytick_2"/>
    <g id="ytick_3"/>
    <g id="ytick_4"/>
    <g id="ytick_5"/>
    <g id="ytick_6"/>
    <g id="ytick_7"/>
   </g>
   <g id="PathCollection_1">
    <path d="M 77.554837 300.211394 
C 81.748066 300.211394 85.770116 298.545406 88.735177 295.580345 
C 91.700237 292.615284 93.366225 288.593234 93.366225 284.400005 
C 93.366225 280.206776 91.700237 276.184726 88.735177 273.219665 
C 85.770116 270.254605 81.748066 268.588617 77.554837 268.588617 
C 73.361607 268.588617 69.339558 270.254605 66.374497 273.219665 
C 63.409436 276.184726 61.743448 280.206776 61.743448 284.400005 
C 61.743448 288.593234 63.409436 292.615284 66.374497 295.580345 
C 69.339558 298.545406 73.361607 300.211394 77.554837 300.211394 
z
" clip-path="url(#p3bc0b59b83)" style="fill: #87ceeb; stroke: #000000"/>
    <path d="M 127.031148 436.78585 
C 131.393966 436.78585 135.578682 435.052484 138.66366 431.967506 
C 141.748638 428.882528 143.482004 424.697812 143.482004 420.334995 
C 143.482004 415.972177 141.748638 411.787461 138.66366 408.702483 
C 135.578682 405.617505 131.393966 403.884139 127.031148 403.884139 
C 122.668331 403.884139 118.483615 405.617505 115.398637 408.702483 
C 112.313659 411.787461 110.580293 415.972177 110.580293 420.334995 
C 110.580293 424.697812 112.313659 428.882528 115.398637 431.967506 
C 118.483615 435.052484 122.668331 436.78585 127.031148 436.78585 
z
" clip-path="url(#p3bc0b59b83)" style="fill: #90ee90; stroke: #000000"/>
    <path d="M 252.309484 542.664462 
C 265.569639 542.664462 278.288478 537.396147 287.664823 528.019801 
C 297.041169 518.643456 302.309484 505.924617 302.309484 492.664462 
C 302.309484 479.404307 297.041169 466.685469 287.664823 457.309123 
C 278.288478 447.932778 265.569639 442.664462 252.309484 442.664462 
C 239.049329 442.664462 226.33049 447.932778 216.954145 457.309123 
C 207.577799 466.685469 202.309484 479.404307 202.309484 492.664462 
C 202.309484 505.924617 207.577799 518.643456 216.954145 528.019801 
C 226.33049 537.396147 239.049329 542.664462 252.309484 542.664462 
z
" clip-path="url(#p3bc0b59b83)" style="fill: #90ee90; stroke: #000000"/>
    <path d="M 394.770742 512.117705 
C 406.591642 512.117705 417.92998 507.421211 426.288619 499.062572 
C 434.647258 490.703934 439.343751 479.365596 439.343751 467.544695 
C 439.343751 455.723795 434.647258 444.385457 426.288619 436.026818 
C 417.92998 427.66818 406.591642 422.971686 394.770742 422.971686 
C 382.949842 422.971686 371.611504 427.66818 363.252865 436.026818 
C 354.894226 444.385457 350.197733 455.723795 350.197733 467.544695 
C 350.197733 479.365596 354.894226 490.703934 363.252865 499.062572 
C 371.611504 507.421211 382.949842 512.117705 394.770742 512.117705 
z
" clip-path="url(#p3bc0b59b83)" style="fill: #90ee90; stroke: #000000"/>
    <path d="M 487.755748 400.495905 
C 499.362728 400.495905 510.495879 395.884403 518.703253 387.677029 
C 526.910627 379.469654 531.522129 368.336504 531.522129 356.729524 
C 531.522129 345.122544 526.910627 333.989393 518.703253 325.782019 
C 510.495879 317.574645 499.362728 312.963143 487.755748 312.963143 
C 476.148768 312.963143 465.015617 317.574645 456.808243 325.782019 
C 448.600869 333.989393 443.989367 345.122544 443.989367 356.729524 
C 443.989367 368.336504 448.600869 379.469654 456.808243 387.677029 
C 465.015617 395.884403 476.148768 400.495905 487.755748 400.495905 
z
" clip-path="url(#p3bc0b59b83)" style="fill: #90ee90; stroke: #000000"/>
    <path d="M 487.755748 249.062596 
C 497.566173 249.062596 506.97611 245.164873 513.913128 238.227855 
C 520.850146 231.290837 524.74787 221.8809 524.74787 212.070475 
C 524.74787 202.26005 520.850146 192.850113 513.913128 185.913095 
C 506.97611 178.976077 497.566173 175.078354 487.755748 175.078354 
C 477.945323 175.078354 468.535386 178.976077 461.598368 185.913095 
C 454.66135 192.850113 450.763627 202.26005 450.763627 212.070475 
C 450.763627 221.8809 454.66135 231.290837 461.598368 238.227855 
C 468.535386 245.164873 477.945323 249.062596 487.755748 249.062596 
z
" clip-path="url(#p3bc0b59b83)" style="fill: #90ee90; stroke: #000000"/>
    <path d="M 394.770679 144.195863 
C 406.158665 144.195863 417.081762 139.671368 425.134285 131.618846 
C 433.186807 123.566324 437.711302 112.643227 437.711302 101.25524 
C 437.711302 89.867254 433.186807 78.944157 425.134285 70.891635 
C 417.081762 62.839112 406.158665 58.314618 394.770679 58.314618 
C 383.382693 58.314618 372.459596 62.839112 364.407073 70.891635 
C 356.354551 78.944157 351.830056 89.867254 351.830056 101.25524 
C 351.830056 112.643227 356.354551 123.566324 364.407073 131.618846 
C 372.459596 139.671368 383.382693 144.195863 394.770679 144.195863 
z
" clip-path="url(#p3bc0b59b83)" style="fill: #90ee90; stroke: #000000"/>
    <path d="M 252.309411 123.908372 
C 264.978915 123.908372 277.131215 118.874724 286.089907 109.916032 
C 295.048599 100.95734 300.082247 88.805041 300.082247 76.135537 
C 300.082247 63.466033 295.048599 51.313733 286.089907 42.355041 
C 277.131215 33.396349 264.978915 28.362701 252.309411 28.362701 
C 239.639908 28.362701 227.487608 33.396349 218.528916 42.355041 
C 209.570224 51.313733 204.536576 63.466033 204.536576 76.135537 
C 204.536576 88.805041 209.570224 100.95734 218.528916 109.916032 
C 227.487608 118.874724 239.639908 123.908372 252.309411 123.908372 
z
" clip-path="url(#p3bc0b59b83)" style="fill: #90ee90; stroke: #000000"/>
    <path d="M 127.031098 164.276418 
C 131.224327 164.276418 135.246377 162.61043 138.211438 159.645369 
C 141.176499 156.680308 142.842486 152.658259 142.842486 148.465029 
C 142.842486 144.2718 141.176499 140.24975 138.211438 137.28469 
C 135.246377 134.319629 131.224327 132.653641 127.031098 132.653641 
C 122.837869 132.653641 118.815819 134.319629 115.850758 137.28469 
C 112.885697 140.24975 111.21971 144.2718 111.21971 148.465029 
C 111.21971 152.658259 112.885697 156.680308 115.850758 159.645369 
C 118.815819 162.61043 122.837869 164.276418 127.031098 164.276418 
z
" clip-path="url(#p3bc0b59b83)" style="fill: #90ee90; stroke: #000000"/>
   </g>
   <g id="patch_21">
    <path d="M 7.2 561.6 
L 7.2 7.2 
" style="fill: none; stroke: #000000; stroke-width: 0.8; stroke-linejoin: miter; stroke-linecap: square"/>
   </g>
   <g id="patch_22">
    <path d="M 562.478328 561.6 
L 562.478328 7.2 
" style="fill: none; stroke: #000000; stroke-width: 0.8; stroke-linejoin: miter; stroke-linecap: square"/>
   </g>
   <g id="patch_23">
    <path d="M 7.2 561.6 
L 562.478328 561.6 
" style="fill: none; stroke: #000000; stroke-width: 0.8; stroke-linejoin: miter; stroke-linecap: square"/>
   </g>
   <g id="patch_24">
    <path d="M 7.2 7.2 
L 562.478328 7.2 
" style="fill: none; stroke: #000000; stroke-width: 0.8; stroke-linejoin: miter; stroke-linecap: square"/>
   </g>
   <g id="text_9">
    <g clip-path="url(#p3bc0b59b83)">
     <!-- $\mathbf{S}$ -->
     <g transform="translate(73.174837 287.711255) scale(0.12 -0.12)">
      <defs>
       <path id="DejaVuSans-Bold-53" d="M 3834 4519 
L 3834 3531 
Q 3450 3703 3084 3790 
Q 2719 3878 2394 3878 
Q 1963 3878 1756 3759 
Q 1550 3641 1550 3391 
Q 1550 3203 1689 3098 
Q 1828 2994 2194 2919 
L 2706 2816 
Q 3484 2659 3812 2340 
Q 4141 2022 4141 1434 
Q 4141 663 3683 286 
Q 3225 -91 2284 -91 
Q 1841 -91 1394 -6 
Q 947 78 500 244 
L 500 1259 
Q 947 1022 1364 901 
Q 1781 781 2169 781 
Q 2563 781 2772 912 
Q 2981 1044 2981 1288 
Q 2981 1506 2839 1625 
Q 2697 1744 2272 1838 
L 1806 1941 
Q 1106 2091 782 2419 
Q 459 2747 459 3303 
Q 459 4000 909 4375 
Q 1359 4750 2203 4750 
Q 2588 4750 2994 4692 
Q 3400 4634 3834 4519 
z
" transform="scale(0.015625)"/>
      </defs>
      <use xlink:href="#DejaVuSans-Bold-53" transform="translate(0 0.78125)"/>
     </g>
    </g>
   </g>
   <g id="text_10">
    <g clip-path="url(#p3bc0b59b83)">
     <!-- NCC -->
     <g transform="translate(114.163023 423.646245) scale(0.12 -0.12)">
      <defs>
       <path id="DejaVuSans-4e" d="M 628 4666 
L 1478 4666 
L 3547 763 
L 3547 4666 
L 4159 4666 
L 4159 0 
L 3309 0 
L 1241 3903 
L 1241 0 
L 628 0 
L 628 4666 
z
" transform="scale(0.015625)"/>
       <path id="DejaVuSans-43" d="M 4122 4306 
L 4122 3641 
Q 3803 3938 3442 4084 
Q 3081 4231 2675 4231 
Q 1875 4231 1450 3742 
Q 1025 3253 1025 2328 
Q 1025 1406 1450 917 
Q 1875 428 2675 428 
Q 3081 428 3442 575 
Q 3803 722 4122 1019 
L 4122 359 
Q 3791 134 3420 21 
Q 3050 -91 2638 -91 
Q 1578 -91 968 557 
Q 359 1206 359 2328 
Q 359 3453 968 4101 
Q 1578 4750 2638 4750 
Q 3056 4750 3426 4639 
Q 3797 4528 4122 4306 
z
" transform="scale(0.015625)"/>
      </defs>
      <use xlink:href="#DejaVuSans-4e"/>
      <use xlink:href="#DejaVuSans-43" x="74.804688"/>
      <use xlink:href="#DejaVuSans-43" x="144.628906"/>
     </g>
    </g>
   </g>
   <g id="text_11">
    <g clip-path="url(#p3bc0b59b83)">
     <!-- TCT -->
     <g transform="translate(241.142921 495.975712) scale(0.12 -0.12)">
      <defs>
       <path id="DejaVuSans-54" d="M -19 4666 
L 3928 4666 
L 3928 4134 
L 2272 4134 
L 2272 0 
L 1638 0 
L 1638 4134 
L -19 4134 
L -19 4666 
z
" transform="scale(0.015625)"/>
      </defs>
      <use xlink:href="#DejaVuSans-54"/>
      <use xlink:href="#DejaVuSans-43" x="55.208984"/>
      <use xlink:href="#DejaVuSans-54" x="125.033203"/>
     </g>
    </g>
   </g>
   <g id="text_12">
    <g clip-path="url(#p3bc0b59b83)">
     <!-- TCC -->
     <g transform="translate(383.07918 470.855945) scale(0.12 -0.12)">
      <use xlink:href="#DejaVuSans-54"/>
      <use xlink:href="#DejaVuSans-43" x="55.208984"/>
      <use xlink:href="#DejaVuSans-43" x="125.033203"/>
     </g>
    </g>
   </g>
   <g id="text_13">
    <g clip-path="url(#p3bc0b59b83)">
     <!-- AGC -->
     <g transform="translate(474.917623 360.040774) scale(0.12 -0.12)">
      <defs>
       <path id="DejaVuSans-41" d="M 2188 4044 
L 1331 1722 
L 3047 1722 
L 2188 4044 
z
M 1831 4666 
L 2547 4666 
L 4325 0 
L 3669 0 
L 3244 1197 
L 1141 1197 
L 716 0 
L 50 0 
L 1831 4666 
z
" transform="scale(0.015625)"/>
       <path id="DejaVuSans-47" d="M 3809 666 
L 3809 1919 
L 2778 1919 
L 2778 2438 
L 4434 2438 
L 4434 434 
Q 4069 175 3628 42 
Q 3188 -91 2688 -91 
Q 1594 -91 976 548 
Q 359 1188 359 2328 
Q 359 3472 976 4111 
Q 1594 4750 2688 4750 
Q 3144 4750 3555 4637 
Q 3966 4525 4313 4306 
L 4313 3634 
Q 3963 3931 3569 4081 
Q 3175 4231 2741 4231 
Q 1884 4231 1454 3753 
Q 1025 3275 1025 2328 
Q 1025 1384 1454 906 
Q 1884 428 2741 428 
Q 3075 428 3337 486 
Q 3600 544 3809 666 
z
" transform="scale(0.015625)"/>
      </defs>
      <use xlink:href="#DejaVuSans-41"/>
      <use xlink:href="#DejaVuSans-47" x="66.658203"/>
      <use xlink:href="#DejaVuSans-43" x="144.148438"/>
     </g>
    </g>
   </g>
   <g id="text_14">
    <g clip-path="url(#p3bc0b59b83)">
     <!-- TCG -->
     <g transform="translate(475.604811 215.381725) scale(0.12 -0.12)">
      <use xlink:href="#DejaVuSans-54"/>
      <use xlink:href="#DejaVuSans-43" x="55.208984"/>
      <use xlink:href="#DejaVuSans-47" x="125.033203"/>
     </g>
    </g>
   </g>
   <g id="text_15">
    <g clip-path="url(#p3bc0b59b83)">
     <!-- AGT -->
     <g transform="translate(382.675054 104.56649) scale(0.12 -0.12)">
      <use xlink:href="#DejaVuSans-41"/>
      <use xlink:href="#DejaVuSans-47" x="66.658203"/>
      <use xlink:href="#DejaVuSans-54" x="140.523438"/>
     </g>
    </g>
   </g>
   <g id="text_16">
    <g clip-path="url(#p3bc0b59b83)">
     <!-- TCA -->
     <g transform="translate(240.703161 79.446787) scale(0.12 -0.12)">
      <use xlink:href="#DejaVuSans-54"/>
      <use xlink:href="#DejaVuSans-43" x="55.208984"/>
      <use xlink:href="#DejaVuSans-41" x="125.033203"/>
     </g>
    </g>
   </g>
   <g id="text_17">
    <g clip-path="url(#p3bc0b59b83)">
     <!-- AGA -->
     <g transform="translate(114.278286 151.776279) scale(0.12 -0.12)">
      <use xlink:href="#DejaVuSans-41"/>
      <use xlink:href="#DejaVuSans-47" x="66.658203"/>
      <use xlink:href="#DejaVuSans-41" x="144.148438"/>
     </g>
    </g>
   </g>
   <g id="legend_1">
    <g id="patch_25">
     <path d="M 14.2 44.55625 
L 116.278125 44.55625 
Q 118.278125 44.55625 118.278125 42.55625 
L 118.278125 14.2 
Q 118.278125 12.2 116.278125 12.2 
L 14.2 12.2 
Q 12.2 12.2 12.2 14.2 
L 12.2 42.55625 
Q 12.2 44.55625 14.2 44.55625 
z
" style="fill: #ffffff; opacity: 0.8; stroke: #cccccc; stroke-linejoin: miter"/>
    </g>
    <g id="patch_26">
     <path d="M 16.2 23.798438 
L 36.2 23.798438 
L 36.2 16.798438 
L 16.2 16.798438 
z
" style="fill: #0000ff"/>
    </g>
    <g id="text_18">
     <!-- Genomic data -->
     <g transform="translate(44.2 23.798438) scale(0.1 -0.1)">
      <defs>
       <path id="DejaVuSans-65" d="M 3597 1894 
L 3597 1613 
L 953 1613 
Q 991 1019 1311 708 
Q 1631 397 2203 397 
Q 2534 397 2845 478 
Q 3156 559 3463 722 
L 3463 178 
Q 3153 47 2828 -22 
Q 2503 -91 2169 -91 
Q 1331 -91 842 396 
Q 353 884 353 1716 
Q 353 2575 817 3079 
Q 1281 3584 2069 3584 
Q 2775 3584 3186 3129 
Q 3597 2675 3597 1894 
z
M 3022 2063 
Q 3016 2534 2758 2815 
Q 2500 3097 2075 3097 
Q 1594 3097 1305 2825 
Q 1016 2553 972 2059 
L 3022 2063 
z
" transform="scale(0.015625)"/>
       <path id="DejaVuSans-6e" d="M 3513 2113 
L 3513 0 
L 2938 0 
L 2938 2094 
Q 2938 2591 2744 2837 
Q 2550 3084 2163 3084 
Q 1697 3084 1428 2787 
Q 1159 2491 1159 1978 
L 1159 0 
L 581 0 
L 581 3500 
L 1159 3500 
L 1159 2956 
Q 1366 3272 1645 3428 
Q 1925 3584 2291 3584 
Q 2894 3584 3203 3211 
Q 3513 2838 3513 2113 
z
" transform="scale(0.015625)"/>
       <path id="DejaVuSans-6f" d="M 1959 3097 
Q 1497 3097 1228 2736 
Q 959 2375 959 1747 
Q 959 1119 1226 758 
Q 1494 397 1959 397 
Q 2419 397 2687 759 
Q 2956 1122 2956 1747 
Q 2956 2369 2687 2733 
Q 2419 3097 1959 3097 
z
M 1959 3584 
Q 2709 3584 3137 3096 
Q 3566 2609 3566 1747 
Q 3566 888 3137 398 
Q 2709 -91 1959 -91 
Q 1206 -91 779 398 
Q 353 888 353 1747 
Q 353 2609 779 3096 
Q 1206 3584 1959 3584 
z
" transform="scale(0.015625)"/>
       <path id="DejaVuSans-6d" d="M 3328 2828 
Q 3544 3216 3844 3400 
Q 4144 3584 4550 3584 
Q 5097 3584 5394 3201 
Q 5691 2819 5691 2113 
L 5691 0 
L 5113 0 
L 5113 2094 
Q 5113 2597 4934 2840 
Q 4756 3084 4391 3084 
Q 3944 3084 3684 2787 
Q 3425 2491 3425 1978 
L 3425 0 
L 2847 0 
L 2847 2094 
Q 2847 2600 2669 2842 
Q 2491 3084 2119 3084 
Q 1678 3084 1418 2786 
Q 1159 2488 1159 1978 
L 1159 0 
L 581 0 
L 581 3500 
L 1159 3500 
L 1159 2956 
Q 1356 3278 1631 3431 
Q 1906 3584 2284 3584 
Q 2666 3584 2933 3390 
Q 3200 3197 3328 2828 
z
" transform="scale(0.015625)"/>
       <path id="DejaVuSans-69" d="M 603 3500 
L 1178 3500 
L 1178 0 
L 603 0 
L 603 3500 
z
M 603 4863 
L 1178 4863 
L 1178 4134 
L 603 4134 
L 603 4863 
z
" transform="scale(0.015625)"/>
       <path id="DejaVuSans-63" d="M 3122 3366 
L 3122 2828 
Q 2878 2963 2633 3030 
Q 2388 3097 2138 3097 
Q 1578 3097 1268 2742 
Q 959 2388 959 1747 
Q 959 1106 1268 751 
Q 1578 397 2138 397 
Q 2388 397 2633 464 
Q 2878 531 3122 666 
L 3122 134 
Q 2881 22 2623 -34 
Q 2366 -91 2075 -91 
Q 1284 -91 818 406 
Q 353 903 353 1747 
Q 353 2603 823 3093 
Q 1294 3584 2113 3584 
Q 2378 3584 2631 3529 
Q 2884 3475 3122 3366 
z
" transform="scale(0.015625)"/>
       <path id="DejaVuSans-20" transform="scale(0.015625)"/>
       <path id="DejaVuSans-64" d="M 2906 2969 
L 2906 4863 
L 3481 4863 
L 3481 0 
L 2906 0 
L 2906 525 
Q 2725 213 2448 61 
Q 2172 -91 1784 -91 
Q 1150 -91 751 415 
Q 353 922 353 1747 
Q 353 2572 751 3078 
Q 1150 3584 1784 3584 
Q 2172 3584 2448 3432 
Q 2725 3281 2906 2969 
z
M 947 1747 
Q 947 1113 1208 752 
Q 1469 391 1925 391 
Q 2381 391 2643 752 
Q 2906 1113 2906 1747 
Q 2906 2381 2643 2742 
Q 2381 3103 1925 3103 
Q 1469 3103 1208 2742 
Q 947 2381 947 1747 
z
" transform="scale(0.015625)"/>
       <path id="DejaVuSans-61" d="M 2194 1759 
Q 1497 1759 1228 1600 
Q 959 1441 959 1056 
Q 959 750 1161 570 
Q 1363 391 1709 391 
Q 2188 391 2477 730 
Q 2766 1069 2766 1631 
L 2766 1759 
L 2194 1759 
z
M 3341 1997 
L 3341 0 
L 2766 0 
L 2766 531 
Q 2569 213 2275 61 
Q 1981 -91 1556 -91 
Q 1019 -91 701 211 
Q 384 513 384 1019 
Q 384 1609 779 1909 
Q 1175 2209 1959 2209 
L 2766 2209 
L 2766 2266 
Q 2766 2663 2505 2880 
Q 2244 3097 1772 3097 
Q 1472 3097 1187 3025 
Q 903 2953 641 2809 
L 641 3341 
Q 956 3463 1253 3523 
Q 1550 3584 1831 3584 
Q 2591 3584 2966 3190 
Q 3341 2797 3341 1997 
z
" transform="scale(0.015625)"/>
       <path id="DejaVuSans-74" d="M 1172 4494 
L 1172 3500 
L 2356 3500 
L 2356 3053 
L 1172 3053 
L 1172 1153 
Q 1172 725 1289 603 
Q 1406 481 1766 481 
L 2356 481 
L 2356 0 
L 1766 0 
Q 1100 0 847 248 
Q 594 497 594 1153 
L 594 3053 
L 172 3053 
L 172 3500 
L 594 3500 
L 594 4494 
L 1172 4494 
z
" transform="scale(0.015625)"/>
      </defs>
      <use xlink:href="#DejaVuSans-47"/>
      <use xlink:href="#DejaVuSans-65" x="77.490234"/>
      <use xlink:href="#DejaVuSans-6e" x="139.013672"/>
      <use xlink:href="#DejaVuSans-6f" x="202.392578"/>
      <use xlink:href="#DejaVuSans-6d" x="263.574219"/>
      <use xlink:href="#DejaVuSans-69" x="360.986328"/>
      <use xlink:href="#DejaVuSans-63" x="388.769531"/>
      <use xlink:href="#DejaVuSans-20" x="443.75"/>
      <use xlink:href="#DejaVuSans-64" x="475.537109"/>
      <use xlink:href="#DejaVuSans-61" x="539.013672"/>
      <use xlink:href="#DejaVuSans-74" x="600.292969"/>
      <use xlink:href="#DejaVuSans-61" x="639.501953"/>
     </g>
    </g>
    <g id="patch_27">
     <path d="M 16.2 38.476563 
L 36.2 38.476563 
L 36.2 31.476563 
L 16.2 31.476563 
z
" style="fill: #ff0000"/>
    </g>
    <g id="text_19">
     <!-- Genetic code -->
     <g transform="translate(44.2 38.476563) scale(0.1 -0.1)">
      <use xlink:href="#DejaVuSans-47"/>
      <use xlink:href="#DejaVuSans-65" x="77.490234"/>
      <use xlink:href="#DejaVuSans-6e" x="139.013672"/>
      <use xlink:href="#DejaVuSans-65" x="202.392578"/>
      <use xlink:href="#DejaVuSans-74" x="263.916016"/>
      <use xlink:href="#DejaVuSans-69" x="303.125"/>
      <use xlink:href="#DejaVuSans-63" x="330.908203"/>
      <use xlink:href="#DejaVuSans-20" x="385.888672"/>
      <use xlink:href="#DejaVuSans-63" x="417.675781"/>
      <use xlink:href="#DejaVuSans-6f" x="472.65625"/>
      <use xlink:href="#DejaVuSans-64" x="533.837891"/>
      <use xlink:href="#DejaVuSans-65" x="597.314453"/>
     </g>
    </g>
   </g>
  </g>
 </g>
 <defs>
  <clipPath id="p3bc0b59b83">
   <rect x="7.2" y="7.2" width="555.278328" height="554.4"/>
  </clipPath>
 </defs>
</svg>
