<?xml version="1.0" encoding="utf-8" standalone="no"?>
<!DOCTYPE svg PUBLIC "-//W3C//DTD SVG 1.1//EN"
  "http://www.w3.org/Graphics/SVG/1.1/DTD/svg11.dtd">
<svg xmlns:xlink="http://www.w3.org/1999/xlink" width="984.45625pt" height="680.422917pt" viewBox="0 0 984.45625 680.422917" xmlns="http://www.w3.org/2000/svg" version="1.1">
 <metadata>
  <rdf:RDF xmlns:dc="http://purl.org/dc/elements/1.1/" xmlns:cc="http://creativecommons.org/ns#" xmlns:rdf="http://www.w3.org/1999/02/22-rdf-syntax-ns#">
   <cc:Work>
    <dc:type rdf:resource="http://purl.org/dc/dcmitype/StillImage"/>
    <dc:date>2025-01-28T17:05:41.728643</dc:date>
    <dc:format>image/svg+xml</dc:format>
    <dc:creator>
     <cc:Agent>
      <dc:title>Matplotlib v3.6.3, https://matplotlib.org/</dc:title>
     </cc:Agent>
    </dc:creator>
   </cc:Work>
  </rdf:RDF>
 </metadata>
 <defs>
  <style type="text/css">*{stroke-linejoin: round; stroke-linecap: butt}</style>
 </defs>
 <g id="figure_1">
  <g id="patch_1">
   <path d="M 0 680.422917 
L 984.45625 680.422917 
L 984.45625 0 
L 0 0 
z
" style="fill: #ffffff"/>
  </g>
  <g id="axes_1">
   <g id="patch_2">
    <path d="M 43.78125 642.866667 
L 817.231964 642.866667 
L 817.231964 151.965714 
L 43.78125 151.965714 
z
" style="fill: #ffffff"/>
   </g>
   <g id="PathCollection_1">
    <defs>
     <path id="ma9db59c555" d="M 0 3 
C 0.795609 3 1.55874 2.683901 2.12132 2.12132 
C 2.683901 1.55874 3 0.795609 3 0 
C 3 -0.795609 2.683901 -1.55874 2.12132 -2.12132 
C 1.55874 -2.683901 0.795609 -3 0 -3 
C -0.795609 -3 -1.55874 -2.683901 -2.12132 -2.12132 
C -2.683901 -1.55874 -3 -0.795609 -3 0 
C -3 0.795609 -2.683901 1.55874 -2.12132 2.12132 
C -1.55874 2.683901 -0.795609 3 0 3 
z
" style="stroke: #000000; stroke-opacity: 0.5"/>
    </defs>
    <g clip-path="url(#pc4ec2647e2)">
     <use xlink:href="#ma9db59c555" x="342.846231" y="436.080382" style="fill: #4169e1; fill-opacity: 0.5; stroke: #000000; stroke-opacity: 0.5"/>
     <use xlink:href="#ma9db59c555" x="368.895453" y="279.398333" style="fill: #4169e1; fill-opacity: 0.5; stroke: #000000; stroke-opacity: 0.5"/>
     <use xlink:href="#ma9db59c555" x="380.076906" y="307.460789" style="fill: #4169e1; fill-opacity: 0.5; stroke: #000000; stroke-opacity: 0.5"/>
     <use xlink:href="#ma9db59c555" x="379.644972" y="412.695001" style="fill: #4169e1; fill-opacity: 0.5; stroke: #000000; stroke-opacity: 0.5"/>
     <use xlink:href="#ma9db59c555" x="408.620871" y="309.799327" style="fill: #4169e1; fill-opacity: 0.5; stroke: #000000; stroke-opacity: 0.5"/>
     <use xlink:href="#ma9db59c555" x="317.633689" y="406.848656" style="fill: #4169e1; fill-opacity: 0.5; stroke: #000000; stroke-opacity: 0.5"/>
     <use xlink:href="#ma9db59c555" x="419.357518" y="418.541346" style="fill: #4169e1; fill-opacity: 0.5; stroke: #000000; stroke-opacity: 0.5"/>
     <use xlink:href="#ma9db59c555" x="389.340914" y="339.031053" style="fill: #4169e1; fill-opacity: 0.5; stroke: #000000; stroke-opacity: 0.5"/>
     <use xlink:href="#ma9db59c555" x="602.415657" y="236.135379" style="fill: #4169e1; fill-opacity: 0.5; stroke: #000000; stroke-opacity: 0.5"/>
     <use xlink:href="#ma9db59c555" x="196.891875" y="536.50253" style="fill: #4169e1; fill-opacity: 0.5; stroke: #000000; stroke-opacity: 0.5"/>
     <use xlink:href="#ma9db59c555" x="271.166585" y="433.643323" style="fill: #4169e1; fill-opacity: 0.5; stroke: #000000; stroke-opacity: 0.5"/>
     <use xlink:href="#ma9db59c555" x="432.925299" y="288.752485" style="fill: #4169e1; fill-opacity: 0.5; stroke: #000000; stroke-opacity: 0.5"/>
     <use xlink:href="#ma9db59c555" x="333.356849" y="382.03712" style="fill: #4169e1; fill-opacity: 0.5; stroke: #000000; stroke-opacity: 0.5"/>
     <use xlink:href="#ma9db59c555" x="363.272853" y="498.05164" style="fill: #4169e1; fill-opacity: 0.5; stroke: #000000; stroke-opacity: 0.5"/>
     <use xlink:href="#ma9db59c555" x="411.373988" y="485.189681" style="fill: #4169e1; fill-opacity: 0.5; stroke: #000000; stroke-opacity: 0.5"/>
     <use xlink:href="#ma9db59c555" x="365.75493" y="264.197835" style="fill: #4169e1; fill-opacity: 0.5; stroke: #000000; stroke-opacity: 0.5"/>
     <use xlink:href="#ma9db59c555" x="345.140675" y="420.879885" style="fill: #4169e1; fill-opacity: 0.5; stroke: #000000; stroke-opacity: 0.5"/>
     <use xlink:href="#ma9db59c555" x="476.909403" y="320.322749" style="fill: #4169e1; fill-opacity: 0.5; stroke: #000000; stroke-opacity: 0.5"/>
     <use xlink:href="#ma9db59c555" x="341.56926" y="329.676901" style="fill: #4169e1; fill-opacity: 0.5; stroke: #000000; stroke-opacity: 0.5"/>
     <use xlink:href="#ma9db59c555" x="382.434037" y="542.483863" style="fill: #4169e1; fill-opacity: 0.5; stroke: #000000; stroke-opacity: 0.5"/>
     <use xlink:href="#ma9db59c555" x="418.420488" y="278.229064" style="fill: #4169e1; fill-opacity: 0.5; stroke: #000000; stroke-opacity: 0.5"/>
     <use xlink:href="#ma9db59c555" x="384.820368" y="270.044181" style="fill: #4169e1; fill-opacity: 0.5; stroke: #000000; stroke-opacity: 0.5"/>
     <use xlink:href="#ma9db59c555" x="370.885977" y="316.814941" style="fill: #4169e1; fill-opacity: 0.5; stroke: #000000; stroke-opacity: 0.5"/>
     <use xlink:href="#ma9db59c555" x="389.261422" y="464.142838" style="fill: #4169e1; fill-opacity: 0.5; stroke: #000000; stroke-opacity: 0.5"/>
     <use xlink:href="#ma9db59c555" x="563.124013" y="188.195349" style="fill: #4169e1; fill-opacity: 0.5; stroke: #000000; stroke-opacity: 0.5"/>
     <use xlink:href="#ma9db59c555" x="395.439242" y="322.661287" style="fill: #4169e1; fill-opacity: 0.5; stroke: #000000; stroke-opacity: 0.5"/>
     <use xlink:href="#ma9db59c555" x="407.458966" y="330.84617" style="fill: #4169e1; fill-opacity: 0.5; stroke: #000000; stroke-opacity: 0.5"/>
     <use xlink:href="#ma9db59c555" x="194.444435" y="350.919355" style="fill: #4169e1; fill-opacity: 0.5; stroke: #000000; stroke-opacity: 0.5"/>
     <use xlink:href="#ma9db59c555" x="468.142657" y="371.770586" style="fill: #4169e1; fill-opacity: 0.5; stroke: #000000; stroke-opacity: 0.5"/>
     <use xlink:href="#ma9db59c555" x="370.81006" y="275.890526" style="fill: #4169e1; fill-opacity: 0.5; stroke: #000000; stroke-opacity: 0.5"/>
     <use xlink:href="#ma9db59c555" x="782.075114" y="344.613355" style="fill: #4169e1; fill-opacity: 0.5; stroke: #000000; stroke-opacity: 0.5"/>
     <use xlink:href="#ma9db59c555" x="78.938101" y="346.046667" style="fill: #4169e1; fill-opacity: 0.5; stroke: #000000; stroke-opacity: 0.5"/>
     <use xlink:href="#ma9db59c555" x="395.331086" y="300.445175" style="fill: #4169e1; fill-opacity: 0.5; stroke: #000000; stroke-opacity: 0.5"/>
     <use xlink:href="#ma9db59c555" x="411.825114" y="436.080382" style="fill: #4169e1; fill-opacity: 0.5; stroke: #000000; stroke-opacity: 0.5"/>
     <use xlink:href="#ma9db59c555" x="384.217237" y="320.322749" style="fill: #4169e1; fill-opacity: 0.5; stroke: #000000; stroke-opacity: 0.5"/>
     <use xlink:href="#ma9db59c555" x="431.749635" y="313.307134" style="fill: #4169e1; fill-opacity: 0.5; stroke: #000000; stroke-opacity: 0.5"/>
     <use xlink:href="#ma9db59c555" x="355.551936" y="439.588189" style="fill: #4169e1; fill-opacity: 0.5; stroke: #000000; stroke-opacity: 0.5"/>
     <use xlink:href="#ma9db59c555" x="433.130842" y="320.322749" style="fill: #4169e1; fill-opacity: 0.5; stroke: #000000; stroke-opacity: 0.5"/>
     <use xlink:href="#ma9db59c555" x="413.718106" y="239.643186" style="fill: #4169e1; fill-opacity: 0.5; stroke: #000000; stroke-opacity: 0.5"/>
     <use xlink:href="#ma9db59c555" x="191.984011" y="386.858389" style="fill: #4169e1; fill-opacity: 0.5; stroke: #000000; stroke-opacity: 0.5"/>
     <use xlink:href="#ma9db59c555" x="299.60158" y="341.369591" style="fill: #4169e1; fill-opacity: 0.5; stroke: #000000; stroke-opacity: 0.5"/>
     <use xlink:href="#ma9db59c555" x="304.114161" y="370.601317" style="fill: #4169e1; fill-opacity: 0.5; stroke: #000000; stroke-opacity: 0.5"/>
     <use xlink:href="#ma9db59c555" x="400.342233" y="229.119765" style="fill: #4169e1; fill-opacity: 0.5; stroke: #000000; stroke-opacity: 0.5"/>
     <use xlink:href="#ma9db59c555" x="396.987113" y="427.895499" style="fill: #4169e1; fill-opacity: 0.5; stroke: #000000; stroke-opacity: 0.5"/>
     <use xlink:href="#ma9db59c555" x="506.623663" y="406.848656" style="fill: #4169e1; fill-opacity: 0.5; stroke: #000000; stroke-opacity: 0.5"/>
     <use xlink:href="#ma9db59c555" x="411.569871" y="357.739357" style="fill: #4169e1; fill-opacity: 0.5; stroke: #000000; stroke-opacity: 0.5"/>
     <use xlink:href="#ma9db59c555" x="406.406549" y="313.163312" style="fill: #4169e1; fill-opacity: 0.5; stroke: #000000; stroke-opacity: 0.5"/>
     <use xlink:href="#ma9db59c555" x="449.215025" y="379.955469" style="fill: #4169e1; fill-opacity: 0.5; stroke: #000000; stroke-opacity: 0.5"/>
     <use xlink:href="#ma9db59c555" x="363.153159" y="309.799327" style="fill: #4169e1; fill-opacity: 0.5; stroke: #000000; stroke-opacity: 0.5"/>
     <use xlink:href="#ma9db59c555" x="346.849633" y="279.398333" style="fill: #4169e1; fill-opacity: 0.5; stroke: #000000; stroke-opacity: 0.5"/>
     <use xlink:href="#ma9db59c555" x="471.111372" y="294.59883" style="fill: #4169e1; fill-opacity: 0.5; stroke: #000000; stroke-opacity: 0.5"/>
     <use xlink:href="#ma9db59c555" x="411.430984" y="382.294007" style="fill: #4169e1; fill-opacity: 0.5; stroke: #000000; stroke-opacity: 0.5"/>
     <use xlink:href="#ma9db59c555" x="459.447792" y="462.973569" style="fill: #4169e1; fill-opacity: 0.5; stroke: #000000; stroke-opacity: 0.5"/>
     <use xlink:href="#ma9db59c555" x="200.538988" y="471.158453" style="fill: #4169e1; fill-opacity: 0.5; stroke: #000000; stroke-opacity: 0.5"/>
     <use xlink:href="#ma9db59c555" x="190.130089" y="441.926727" style="fill: #4169e1; fill-opacity: 0.5; stroke: #000000; stroke-opacity: 0.5"/>
     <use xlink:href="#ma9db59c555" x="472.205067" y="354.23155" style="fill: #4169e1; fill-opacity: 0.5; stroke: #000000; stroke-opacity: 0.5"/>
     <use xlink:href="#ma9db59c555" x="394.231203" y="473.496991" style="fill: #4169e1; fill-opacity: 0.5; stroke: #000000; stroke-opacity: 0.5"/>
     <use xlink:href="#ma9db59c555" x="419.428725" y="444.092169" style="fill: #4169e1; fill-opacity: 0.5; stroke: #000000; stroke-opacity: 0.5"/>
     <use xlink:href="#ma9db59c555" x="429.342489" y="384.632545" style="fill: #4169e1; fill-opacity: 0.5; stroke: #000000; stroke-opacity: 0.5"/>
     <use xlink:href="#ma9db59c555" x="426.363664" y="227.950496" style="fill: #4169e1; fill-opacity: 0.5; stroke: #000000; stroke-opacity: 0.5"/>
     <use xlink:href="#ma9db59c555" x="346.669147" y="357.739357" style="fill: #4169e1; fill-opacity: 0.5; stroke: #000000; stroke-opacity: 0.5"/>
     <use xlink:href="#ma9db59c555" x="422.440351" y="463.267541" style="fill: #4169e1; fill-opacity: 0.5; stroke: #000000; stroke-opacity: 0.5"/>
     <use xlink:href="#ma9db59c555" x="326.63958" y="270.044181" style="fill: #4169e1; fill-opacity: 0.5; stroke: #000000; stroke-opacity: 0.5"/>
     <use xlink:href="#ma9db59c555" x="403.400345" y="289.921754" style="fill: #4169e1; fill-opacity: 0.5; stroke: #000000; stroke-opacity: 0.5"/>
     <use xlink:href="#ma9db59c555" x="412.99973" y="250.166607" style="fill: #4169e1; fill-opacity: 0.5; stroke: #000000; stroke-opacity: 0.5"/>
     <use xlink:href="#ma9db59c555" x="370.059853" y="531.341545" style="fill: #4169e1; fill-opacity: 0.5; stroke: #000000; stroke-opacity: 0.5"/>
     <use xlink:href="#ma9db59c555" x="416.397415" y="534.801672" style="fill: #4169e1; fill-opacity: 0.5; stroke: #000000; stroke-opacity: 0.5"/>
    </g>
   </g>
   <g id="PathCollection_2">
    <defs>
     <path id="m0f47838a60" d="M 0 3 
C 0.795609 3 1.55874 2.683901 2.12132 2.12132 
C 2.683901 1.55874 3 0.795609 3 0 
C 3 -0.795609 2.683901 -1.55874 2.12132 -2.12132 
C 1.55874 -2.683901 0.795609 -3 0 -3 
C -0.795609 -3 -1.55874 -2.683901 -2.12132 -2.12132 
C -2.683901 -1.55874 -3 -0.795609 -3 0 
C -3 0.795609 -2.683901 1.55874 -2.12132 2.12132 
C -1.55874 2.683901 -0.795609 3 0 3 
z
" style="stroke: #000000; stroke-opacity: 0.5"/>
    </defs>
    <g clip-path="url(#pc4ec2647e2)">
     <use xlink:href="#m0f47838a60" x="342.846231" y="449.334326" style="fill: #ff8c00; fill-opacity: 0.5; stroke: #000000; stroke-opacity: 0.5"/>
     <use xlink:href="#m0f47838a60" x="368.895453" y="366.351049" style="fill: #ff8c00; fill-opacity: 0.5; stroke: #000000; stroke-opacity: 0.5"/>
     <use xlink:href="#m0f47838a60" x="380.076906" y="385.783842" style="fill: #ff8c00; fill-opacity: 0.5; stroke: #000000; stroke-opacity: 0.5"/>
     <use xlink:href="#m0f47838a60" x="379.644972" y="392.086369" style="fill: #ff8c00; fill-opacity: 0.5; stroke: #000000; stroke-opacity: 0.5"/>
     <use xlink:href="#m0f47838a60" x="408.620871" y="290.72072" style="fill: #ff8c00; fill-opacity: 0.5; stroke: #000000; stroke-opacity: 0.5"/>
     <use xlink:href="#m0f47838a60" x="317.633689" y="370.552734" style="fill: #ff8c00; fill-opacity: 0.5; stroke: #000000; stroke-opacity: 0.5"/>
     <use xlink:href="#m0f47838a60" x="419.357518" y="374.754419" style="fill: #ff8c00; fill-opacity: 0.5; stroke: #000000; stroke-opacity: 0.5"/>
     <use xlink:href="#m0f47838a60" x="389.340914" y="298.59888" style="fill: #ff8c00; fill-opacity: 0.5; stroke: #000000; stroke-opacity: 0.5"/>
     <use xlink:href="#m0f47838a60" x="602.415657" y="318.556883" style="fill: #ff8c00; fill-opacity: 0.5; stroke: #000000; stroke-opacity: 0.5"/>
     <use xlink:href="#m0f47838a60" x="196.891875" y="392.026525" style="fill: #ff8c00; fill-opacity: 0.5; stroke: #000000; stroke-opacity: 0.5"/>
     <use xlink:href="#m0f47838a60" x="271.166585" y="438.733508" style="fill: #ff8c00; fill-opacity: 0.5; stroke: #000000; stroke-opacity: 0.5"/>
     <use xlink:href="#m0f47838a60" x="432.925299" y="282.31735" style="fill: #ff8c00; fill-opacity: 0.5; stroke: #000000; stroke-opacity: 0.5"/>
     <use xlink:href="#m0f47838a60" x="333.356849" y="488.182703" style="fill: #ff8c00; fill-opacity: 0.5; stroke: #000000; stroke-opacity: 0.5"/>
     <use xlink:href="#m0f47838a60" x="363.272853" y="620.552987" style="fill: #ff8c00; fill-opacity: 0.5; stroke: #000000; stroke-opacity: 0.5"/>
     <use xlink:href="#m0f47838a60" x="411.373988" y="501.330177" style="fill: #ff8c00; fill-opacity: 0.5; stroke: #000000; stroke-opacity: 0.5"/>
     <use xlink:href="#m0f47838a60" x="365.75493" y="349.019099" style="fill: #ff8c00; fill-opacity: 0.5; stroke: #000000; stroke-opacity: 0.5"/>
     <use xlink:href="#m0f47838a60" x="345.140675" y="430.951955" style="fill: #ff8c00; fill-opacity: 0.5; stroke: #000000; stroke-opacity: 0.5"/>
     <use xlink:href="#m0f47838a60" x="476.909403" y="394.712422" style="fill: #ff8c00; fill-opacity: 0.5; stroke: #000000; stroke-opacity: 0.5"/>
     <use xlink:href="#m0f47838a60" x="341.56926" y="302.275354" style="fill: #ff8c00; fill-opacity: 0.5; stroke: #000000; stroke-opacity: 0.5"/>
     <use xlink:href="#m0f47838a60" x="382.434037" y="477.6957" style="fill: #ff8c00; fill-opacity: 0.5; stroke: #000000; stroke-opacity: 0.5"/>
     <use xlink:href="#m0f47838a60" x="418.420488" y="258.682873" style="fill: #ff8c00; fill-opacity: 0.5; stroke: #000000; stroke-opacity: 0.5"/>
     <use xlink:href="#m0f47838a60" x="384.820368" y="242.401344" style="fill: #ff8c00; fill-opacity: 0.5; stroke: #000000; stroke-opacity: 0.5"/>
     <use xlink:href="#m0f47838a60" x="370.885977" y="417.296479" style="fill: #ff8c00; fill-opacity: 0.5; stroke: #000000; stroke-opacity: 0.5"/>
     <use xlink:href="#m0f47838a60" x="389.261422" y="395.237633" style="fill: #ff8c00; fill-opacity: 0.5; stroke: #000000; stroke-opacity: 0.5"/>
     <use xlink:href="#m0f47838a60" x="563.124013" y="251.855135" style="fill: #ff8c00; fill-opacity: 0.5; stroke: #000000; stroke-opacity: 0.5"/>
     <use xlink:href="#m0f47838a60" x="395.439242" y="389.460316" style="fill: #ff8c00; fill-opacity: 0.5; stroke: #000000; stroke-opacity: 0.5"/>
     <use xlink:href="#m0f47838a60" x="407.458966" y="376.855261" style="fill: #ff8c00; fill-opacity: 0.5; stroke: #000000; stroke-opacity: 0.5"/>
     <use xlink:href="#m0f47838a60" x="194.444435" y="449.318949" style="fill: #ff8c00; fill-opacity: 0.5; stroke: #000000; stroke-opacity: 0.5"/>
     <use xlink:href="#m0f47838a60" x="468.142657" y="345.867835" style="fill: #ff8c00; fill-opacity: 0.5; stroke: #000000; stroke-opacity: 0.5"/>
     <use xlink:href="#m0f47838a60" x="370.81006" y="360.573732" style="fill: #ff8c00; fill-opacity: 0.5; stroke: #000000; stroke-opacity: 0.5"/>
     <use xlink:href="#m0f47838a60" x="782.075114" y="388.17862" style="fill: #ff8c00; fill-opacity: 0.5; stroke: #000000; stroke-opacity: 0.5"/>
     <use xlink:href="#m0f47838a60" x="78.938101" y="313.304777" style="fill: #ff8c00; fill-opacity: 0.5; stroke: #000000; stroke-opacity: 0.5"/>
     <use xlink:href="#m0f47838a60" x="395.331086" y="403.115792" style="fill: #ff8c00; fill-opacity: 0.5; stroke: #000000; stroke-opacity: 0.5"/>
     <use xlink:href="#m0f47838a60" x="411.825114" y="395.762843" style="fill: #ff8c00; fill-opacity: 0.5; stroke: #000000; stroke-opacity: 0.5"/>
     <use xlink:href="#m0f47838a60" x="384.217237" y="417.821689" style="fill: #ff8c00; fill-opacity: 0.5; stroke: #000000; stroke-opacity: 0.5"/>
     <use xlink:href="#m0f47838a60" x="431.749635" y="305.426618" style="fill: #ff8c00; fill-opacity: 0.5; stroke: #000000; stroke-opacity: 0.5"/>
     <use xlink:href="#m0f47838a60" x="355.551936" y="396.813265" style="fill: #ff8c00; fill-opacity: 0.5; stroke: #000000; stroke-opacity: 0.5"/>
     <use xlink:href="#m0f47838a60" x="433.130842" y="306.477039" style="fill: #ff8c00; fill-opacity: 0.5; stroke: #000000; stroke-opacity: 0.5"/>
     <use xlink:href="#m0f47838a60" x="413.718106" y="331.687148" style="fill: #ff8c00; fill-opacity: 0.5; stroke: #000000; stroke-opacity: 0.5"/>
     <use xlink:href="#m0f47838a60" x="191.984011" y="481.15038" style="fill: #ff8c00; fill-opacity: 0.5; stroke: #000000; stroke-opacity: 0.5"/>
     <use xlink:href="#m0f47838a60" x="299.60158" y="354.796415" style="fill: #ff8c00; fill-opacity: 0.5; stroke: #000000; stroke-opacity: 0.5"/>
     <use xlink:href="#m0f47838a60" x="304.114161" y="333.26278" style="fill: #ff8c00; fill-opacity: 0.5; stroke: #000000; stroke-opacity: 0.5"/>
     <use xlink:href="#m0f47838a60" x="400.342233" y="327.485463" style="fill: #ff8c00; fill-opacity: 0.5; stroke: #000000; stroke-opacity: 0.5"/>
     <use xlink:href="#m0f47838a60" x="396.987113" y="560.678977" style="fill: #ff8c00; fill-opacity: 0.5; stroke: #000000; stroke-opacity: 0.5"/>
     <use xlink:href="#m0f47838a60" x="506.623663" y="367.40147" style="fill: #ff8c00; fill-opacity: 0.5; stroke: #000000; stroke-opacity: 0.5"/>
     <use xlink:href="#m0f47838a60" x="411.569871" y="437.254482" style="fill: #ff8c00; fill-opacity: 0.5; stroke: #000000; stroke-opacity: 0.5"/>
     <use xlink:href="#m0f47838a60" x="406.406549" y="302.127382" style="fill: #ff8c00; fill-opacity: 0.5; stroke: #000000; stroke-opacity: 0.5"/>
     <use xlink:href="#m0f47838a60" x="449.215025" y="349.019099" style="fill: #ff8c00; fill-opacity: 0.5; stroke: #000000; stroke-opacity: 0.5"/>
     <use xlink:href="#m0f47838a60" x="363.153159" y="303.325775" style="fill: #ff8c00; fill-opacity: 0.5; stroke: #000000; stroke-opacity: 0.5"/>
     <use xlink:href="#m0f47838a60" x="346.849633" y="360.048522" style="fill: #ff8c00; fill-opacity: 0.5; stroke: #000000; stroke-opacity: 0.5"/>
     <use xlink:href="#m0f47838a60" x="471.111372" y="308.052671" style="fill: #ff8c00; fill-opacity: 0.5; stroke: #000000; stroke-opacity: 0.5"/>
     <use xlink:href="#m0f47838a60" x="411.430984" y="349.019099" style="fill: #ff8c00; fill-opacity: 0.5; stroke: #000000; stroke-opacity: 0.5"/>
     <use xlink:href="#m0f47838a60" x="459.447792" y="559.103345" style="fill: #ff8c00; fill-opacity: 0.5; stroke: #000000; stroke-opacity: 0.5"/>
     <use xlink:href="#m0f47838a60" x="200.538988" y="389.985527" style="fill: #ff8c00; fill-opacity: 0.5; stroke: #000000; stroke-opacity: 0.5"/>
     <use xlink:href="#m0f47838a60" x="190.130089" y="381.582157" style="fill: #ff8c00; fill-opacity: 0.5; stroke: #000000; stroke-opacity: 0.5"/>
     <use xlink:href="#m0f47838a60" x="472.205067" y="322.233357" style="fill: #ff8c00; fill-opacity: 0.5; stroke: #000000; stroke-opacity: 0.5"/>
     <use xlink:href="#m0f47838a60" x="394.231203" y="570.657979" style="fill: #ff8c00; fill-opacity: 0.5; stroke: #000000; stroke-opacity: 0.5"/>
     <use xlink:href="#m0f47838a60" x="419.428725" y="566.329354" style="fill: #ff8c00; fill-opacity: 0.5; stroke: #000000; stroke-opacity: 0.5"/>
     <use xlink:href="#m0f47838a60" x="429.342489" y="322.233357" style="fill: #ff8c00; fill-opacity: 0.5; stroke: #000000; stroke-opacity: 0.5"/>
     <use xlink:href="#m0f47838a60" x="426.363664" y="278.115666" style="fill: #ff8c00; fill-opacity: 0.5; stroke: #000000; stroke-opacity: 0.5"/>
     <use xlink:href="#m0f47838a60" x="346.669147" y="443.55701" style="fill: #ff8c00; fill-opacity: 0.5; stroke: #000000; stroke-opacity: 0.5"/>
     <use xlink:href="#m0f47838a60" x="422.440351" y="546.197955" style="fill: #ff8c00; fill-opacity: 0.5; stroke: #000000; stroke-opacity: 0.5"/>
     <use xlink:href="#m0f47838a60" x="326.63958" y="281.266929" style="fill: #ff8c00; fill-opacity: 0.5; stroke: #000000; stroke-opacity: 0.5"/>
     <use xlink:href="#m0f47838a60" x="403.400345" y="380.006525" style="fill: #ff8c00; fill-opacity: 0.5; stroke: #000000; stroke-opacity: 0.5"/>
     <use xlink:href="#m0f47838a60" x="412.99973" y="261.308926" style="fill: #ff8c00; fill-opacity: 0.5; stroke: #000000; stroke-opacity: 0.5"/>
     <use xlink:href="#m0f47838a60" x="370.059853" y="618.951044" style="fill: #ff8c00; fill-opacity: 0.5; stroke: #000000; stroke-opacity: 0.5"/>
     <use xlink:href="#m0f47838a60" x="416.397415" y="397.151909" style="fill: #ff8c00; fill-opacity: 0.5; stroke: #000000; stroke-opacity: 0.5"/>
    </g>
   </g>
   <g id="PolyCollection_1">
    <path d="M 78.938101 375.857766 
L 78.938101 506.302566 
L 86.040495 503.138401 
L 93.142889 499.974237 
L 100.245283 496.810072 
L 107.347677 493.645908 
L 114.450071 490.481743 
L 121.552465 487.317578 
L 128.654859 484.153414 
L 135.757253 480.989249 
L 142.859647 477.825085 
L 149.962041 474.66092 
L 157.064435 471.496755 
L 164.166829 468.332591 
L 171.269224 465.180049 
L 178.371618 462.047877 
L 185.474012 458.850203 
L 192.576406 455.440904 
L 199.6788 452.362238 
L 206.781194 449.378418 
L 213.883588 445.613658 
L 220.985982 442.102522 
L 228.088376 439.336305 
L 235.19077 436.180602 
L 242.293164 433.062536 
L 249.395558 430.235997 
L 256.497952 427.277385 
L 263.600346 424.23573 
L 270.702741 421.475254 
L 277.805135 418.75545 
L 284.907529 415.770253 
L 292.009923 412.661709 
L 299.112317 409.767282 
L 306.214711 406.876114 
L 313.317105 403.989469 
L 320.419499 401.846468 
L 327.521893 398.834869 
L 334.624287 396.405747 
L 341.726681 394.293956 
L 348.829075 392.501981 
L 355.931469 389.83382 
L 363.033863 388.164952 
L 370.136258 386.141815 
L 377.238652 384.313852 
L 384.341046 382.538786 
L 391.44344 381.119036 
L 398.545834 379.705058 
L 405.648228 378.177986 
L 412.750622 376.591594 
L 419.853016 375.240323 
L 426.95541 374.344368 
L 434.057804 373.359037 
L 441.160198 372.349001 
L 448.262592 371.190256 
L 455.364986 370.284438 
L 462.46738 369.255818 
L 469.569775 368.586039 
L 476.672169 368.174572 
L 483.774563 367.609663 
L 490.876957 366.96853 
L 497.979351 366.179951 
L 505.081745 365.504335 
L 512.184139 365.300782 
L 519.286533 364.72764 
L 526.388927 364.15354 
L 533.491321 363.161381 
L 540.593715 362.39917 
L 547.696109 362.205489 
L 554.798503 361.825045 
L 561.900897 361.188012 
L 569.003292 360.671202 
L 576.105686 359.913011 
L 583.20808 359.020146 
L 590.310474 358.32724 
L 597.412868 357.472534 
L 604.515262 356.763362 
L 611.617656 356.725683 
L 618.72005 356.319194 
L 625.822444 355.919808 
L 632.924838 355.562695 
L 640.027232 355.16535 
L 647.129626 354.580467 
L 654.23202 354.083857 
L 661.334414 353.58643 
L 668.436809 353.089003 
L 675.539203 352.538706 
L 682.641597 351.918913 
L 689.743991 351.299119 
L 696.846385 350.826388 
L 703.948779 350.59607 
L 711.051173 350.128184 
L 718.153567 349.640743 
L 725.255961 349.153303 
L 732.358355 348.665862 
L 739.460749 348.178421 
L 746.563143 347.770634 
L 753.665537 347.506114 
L 760.767931 347.241594 
L 767.870325 346.977074 
L 774.97272 346.712553 
L 782.075114 346.448033 
L 782.075114 174.279394 
L 782.075114 174.279394 
L 774.97272 177.550744 
L 767.870325 180.577681 
L 760.767931 183.604618 
L 753.665537 186.978044 
L 746.563143 190.470026 
L 739.460749 193.943617 
L 732.358355 197.214349 
L 725.255961 200.489158 
L 718.153567 203.778224 
L 711.051173 207.067291 
L 703.948779 210.356357 
L 696.846385 213.83179 
L 689.743991 217.568111 
L 682.641597 221.312399 
L 675.539203 224.396558 
L 668.436809 228.078008 
L 661.334414 230.896304 
L 654.23202 233.659039 
L 647.129626 236.580491 
L 640.027232 239.897714 
L 632.924838 243.501353 
L 625.822444 246.552254 
L 618.72005 249.827419 
L 611.617656 253.445124 
L 604.515262 257.06283 
L 597.412868 260.680536 
L 590.310474 263.967131 
L 583.20808 266.627725 
L 576.105686 269.447772 
L 569.003292 272.868408 
L 561.900897 275.900397 
L 554.798503 279.061845 
L 547.696109 281.474015 
L 540.593715 284.454103 
L 533.491321 287.318046 
L 526.388927 290.095362 
L 519.286533 293.659451 
L 512.184139 296.176843 
L 505.081745 299.163807 
L 497.979351 303.13984 
L 490.876957 306.951619 
L 483.774563 310.098222 
L 476.672169 312.626862 
L 469.569775 315.168737 
L 462.46738 318.308651 
L 455.364986 321.96088 
L 448.262592 324.415139 
L 441.160198 326.687873 
L 434.057804 328.735981 
L 426.95541 331.006276 
L 419.853016 333.330421 
L 412.750622 335.491553 
L 405.648228 337.766752 
L 398.545834 340.066862 
L 391.44344 342.846009 
L 384.341046 344.427798 
L 377.238652 346.127495 
L 370.136258 347.913025 
L 363.033863 349.224214 
L 355.931469 350.930088 
L 348.829075 352.496337 
L 341.726681 353.365007 
L 334.624287 354.705677 
L 327.521893 355.754468 
L 320.419499 356.902065 
L 313.317105 358.267253 
L 306.214711 358.835493 
L 299.112317 359.975185 
L 292.009923 360.942002 
L 284.907529 361.600656 
L 277.805135 362.173681 
L 270.702741 363.100025 
L 263.600346 363.59588 
L 256.497952 364.087422 
L 249.395558 364.32501 
L 242.293164 364.84421 
L 235.19077 365.348338 
L 228.088376 366.019355 
L 220.985982 366.534098 
L 213.883588 366.986685 
L 206.781194 367.495526 
L 199.6788 367.99635 
L 192.576406 368.463039 
L 185.474012 368.95049 
L 178.371618 369.344613 
L 171.269224 369.243236 
L 164.166829 369.512849 
L 157.064435 370.157314 
L 149.962041 370.889316 
L 142.859647 371.621319 
L 135.757253 372.147181 
L 128.654859 372.610184 
L 121.552465 372.990472 
L 114.450071 373.179149 
L 107.347677 373.442798 
L 100.245283 374.051548 
L 93.142889 374.664765 
L 86.040495 375.279555 
L 78.938101 375.857766 
z
" clip-path="url(#pc4ec2647e2)" style="fill: #1f77b4; fill-opacity: 0.15"/>
   </g>
   <g id="PolyCollection_2">
    <path d="M 78.938101 374.054668 
L 78.938101 489.51063 
L 86.040495 487.082532 
L 93.142889 484.648511 
L 100.245283 482.21405 
L 107.347677 479.778479 
L 114.450071 477.342909 
L 121.552465 474.907338 
L 128.654859 472.471768 
L 135.757253 470.196423 
L 142.859647 467.987972 
L 149.962041 465.771933 
L 157.064435 463.555853 
L 164.166829 461.339773 
L 171.269224 458.940793 
L 178.371618 456.380151 
L 185.474012 453.813293 
L 192.576406 451.28775 
L 199.6788 449.201834 
L 206.781194 446.69513 
L 213.883588 444.805541 
L 220.985982 442.674834 
L 228.088376 440.829144 
L 235.19077 438.816427 
L 242.293164 436.731536 
L 249.395558 434.489807 
L 256.497952 432.577198 
L 263.600346 430.663607 
L 270.702741 428.597582 
L 277.805135 426.976799 
L 284.907529 425.565201 
L 292.009923 424.145224 
L 299.112317 423.000157 
L 306.214711 420.721895 
L 313.317105 419.227674 
L 320.419499 417.58111 
L 327.521893 415.986856 
L 334.624287 414.747829 
L 341.726681 413.707227 
L 348.829075 412.393096 
L 355.931469 411.148885 
L 363.033863 410.116911 
L 370.136258 409.018557 
L 377.238652 407.892228 
L 384.341046 406.547266 
L 391.44344 406.372827 
L 398.545834 405.611097 
L 405.648228 404.914448 
L 412.750622 404.081246 
L 419.853016 403.251699 
L 426.95541 402.919358 
L 434.057804 402.571806 
L 441.160198 402.147821 
L 448.262592 401.368962 
L 455.364986 400.615522 
L 462.46738 400.684117 
L 469.569775 400.680579 
L 476.672169 400.557242 
L 483.774563 400.462261 
L 490.876957 400.239422 
L 497.979351 400.032098 
L 505.081745 399.324633 
L 512.184139 399.163691 
L 519.286533 399.324185 
L 526.388927 399.558068 
L 533.491321 399.787367 
L 540.593715 399.978784 
L 547.696109 399.577464 
L 554.798503 398.865656 
L 561.900897 398.593021 
L 569.003292 398.697948 
L 576.105686 398.870431 
L 583.20808 399.032962 
L 590.310474 398.785071 
L 597.412868 398.599041 
L 604.515262 398.580737 
L 611.617656 398.551958 
L 618.72005 398.52318 
L 625.822444 398.661324 
L 632.924838 398.487621 
L 640.027232 398.455626 
L 647.129626 398.435988 
L 654.23202 398.63503 
L 661.334414 399.114772 
L 668.436809 399.451989 
L 675.539203 399.324871 
L 682.641597 399.764255 
L 689.743991 400.202748 
L 696.846385 400.177026 
L 703.948779 400.062907 
L 711.051173 399.980606 
L 718.153567 400.254179 
L 725.255961 400.527752 
L 732.358355 400.801326 
L 739.460749 401.074899 
L 746.563143 401.348472 
L 753.665537 401.622045 
L 760.767931 401.895618 
L 767.870325 402.169191 
L 774.97272 402.442765 
L 782.075114 402.702538 
L 782.075114 249.719251 
L 782.075114 249.719251 
L 774.97272 252.113761 
L 767.870325 254.563967 
L 760.767931 257.014172 
L 753.665537 259.464377 
L 746.563143 261.922756 
L 739.460749 264.382143 
L 732.358355 266.84153 
L 725.255961 269.300917 
L 718.153567 271.354111 
L 711.051173 273.373738 
L 703.948779 275.394757 
L 696.846385 277.627346 
L 689.743991 280.388871 
L 682.641597 283.154762 
L 675.539203 285.920653 
L 668.436809 288.403158 
L 661.334414 290.70301 
L 654.23202 293.002862 
L 647.129626 295.302715 
L 640.027232 297.602567 
L 632.924838 299.902419 
L 625.822444 302.202272 
L 618.72005 304.502124 
L 611.617656 306.801976 
L 604.515262 309.101829 
L 597.412868 311.393894 
L 590.310474 313.443583 
L 583.20808 315.558211 
L 576.105686 317.540578 
L 569.003292 319.533518 
L 561.900897 321.729738 
L 554.798503 324.170767 
L 547.696109 326.622703 
L 540.593715 329.088488 
L 533.491321 331.85455 
L 526.388927 333.999177 
L 519.286533 336.128495 
L 512.184139 337.845639 
L 505.081745 339.643966 
L 497.979351 341.325679 
L 490.876957 343.147815 
L 483.774563 344.788401 
L 476.672169 346.311576 
L 469.569775 347.815857 
L 462.46738 349.257176 
L 455.364986 351.235999 
L 448.262592 352.714478 
L 441.160198 354.494499 
L 434.057804 356.135051 
L 426.95541 357.708401 
L 419.853016 359.371111 
L 412.750622 360.203099 
L 405.648228 361.258095 
L 398.545834 362.402258 
L 391.44344 363.904376 
L 384.341046 364.973969 
L 377.238652 365.757145 
L 370.136258 366.338743 
L 363.033863 366.779953 
L 355.931469 367.904722 
L 348.829075 368.590405 
L 341.726681 369.129629 
L 334.624287 369.653256 
L 327.521893 370.371596 
L 320.419499 371.089207 
L 313.317105 371.543189 
L 306.214711 371.878839 
L 299.112317 372.466777 
L 292.009923 372.661412 
L 284.907529 372.903386 
L 277.805135 373.005007 
L 270.702741 373.630057 
L 263.600346 374.051015 
L 256.497952 374.634878 
L 249.395558 374.979358 
L 242.293164 374.660214 
L 235.19077 374.695206 
L 228.088376 374.675766 
L 220.985982 374.97305 
L 213.883588 375.252047 
L 206.781194 375.169684 
L 199.6788 375.314082 
L 192.576406 375.27586 
L 185.474012 375.348851 
L 178.371618 375.203322 
L 171.269224 375.120964 
L 164.166829 375.065965 
L 157.064435 374.754753 
L 149.962041 374.608276 
L 142.859647 374.571037 
L 135.757253 374.523629 
L 128.654859 374.323246 
L 121.552465 374.447241 
L 114.450071 374.023227 
L 107.347677 373.900021 
L 100.245283 373.80806 
L 93.142889 373.826456 
L 86.040495 373.873535 
L 78.938101 374.054668 
z
" clip-path="url(#pc4ec2647e2)" style="fill: #ff7f0e; fill-opacity: 0.15"/>
   </g>
   <g id="matplotlib.axis_1">
    <g id="xtick_1">
     <g id="line2d_1">
      <defs>
       <path id="m113629ce6c" d="M 0 0 
L 0 3.5 
" style="stroke: #000000; stroke-width: 0.8"/>
      </defs>
      <g>
       <use xlink:href="#m113629ce6c" x="112.789865" y="642.866667" style="stroke: #000000; stroke-width: 0.8"/>
      </g>
     </g>
     <g id="text_1">
      <!-- 2.2 -->
      <g transform="translate(104.838303 657.465104) scale(0.1 -0.1)">
       <defs>
        <path id="DejaVuSans-32" d="M 1228 531 
L 3431 531 
L 3431 0 
L 469 0 
L 469 531 
Q 828 903 1448 1529 
Q 2069 2156 2228 2338 
Q 2531 2678 2651 2914 
Q 2772 3150 2772 3378 
Q 2772 3750 2511 3984 
Q 2250 4219 1831 4219 
Q 1534 4219 1204 4116 
Q 875 4013 500 3803 
L 500 4441 
Q 881 4594 1212 4672 
Q 1544 4750 1819 4750 
Q 2544 4750 2975 4387 
Q 3406 4025 3406 3419 
Q 3406 3131 3298 2873 
Q 3191 2616 2906 2266 
Q 2828 2175 2409 1742 
Q 1991 1309 1228 531 
z
" transform="scale(0.015625)"/>
        <path id="DejaVuSans-2e" d="M 684 794 
L 1344 794 
L 1344 0 
L 684 0 
L 684 794 
z
" transform="scale(0.015625)"/>
       </defs>
       <use xlink:href="#DejaVuSans-32"/>
       <use xlink:href="#DejaVuSans-2e" x="63.623047"/>
       <use xlink:href="#DejaVuSans-32" x="95.410156"/>
      </g>
     </g>
    </g>
    <g id="xtick_2">
     <g id="line2d_2">
      <g>
       <use xlink:href="#m113629ce6c" x="219.581185" y="642.866667" style="stroke: #000000; stroke-width: 0.8"/>
      </g>
     </g>
     <g id="text_2">
      <!-- 2.3 -->
      <g transform="translate(211.629622 657.465104) scale(0.1 -0.1)">
       <defs>
        <path id="DejaVuSans-33" d="M 2597 2516 
Q 3050 2419 3304 2112 
Q 3559 1806 3559 1356 
Q 3559 666 3084 287 
Q 2609 -91 1734 -91 
Q 1441 -91 1130 -33 
Q 819 25 488 141 
L 488 750 
Q 750 597 1062 519 
Q 1375 441 1716 441 
Q 2309 441 2620 675 
Q 2931 909 2931 1356 
Q 2931 1769 2642 2001 
Q 2353 2234 1838 2234 
L 1294 2234 
L 1294 2753 
L 1863 2753 
Q 2328 2753 2575 2939 
Q 2822 3125 2822 3475 
Q 2822 3834 2567 4026 
Q 2313 4219 1838 4219 
Q 1578 4219 1281 4162 
Q 984 4106 628 3988 
L 628 4550 
Q 988 4650 1302 4700 
Q 1616 4750 1894 4750 
Q 2613 4750 3031 4423 
Q 3450 4097 3450 3541 
Q 3450 3153 3228 2886 
Q 3006 2619 2597 2516 
z
" transform="scale(0.015625)"/>
       </defs>
       <use xlink:href="#DejaVuSans-32"/>
       <use xlink:href="#DejaVuSans-2e" x="63.623047"/>
       <use xlink:href="#DejaVuSans-33" x="95.410156"/>
      </g>
     </g>
    </g>
    <g id="xtick_3">
     <g id="line2d_3">
      <g>
       <use xlink:href="#m113629ce6c" x="326.372504" y="642.866667" style="stroke: #000000; stroke-width: 0.8"/>
      </g>
     </g>
     <g id="text_3">
      <!-- 2.4 -->
      <g transform="translate(318.420942 657.465104) scale(0.1 -0.1)">
       <defs>
        <path id="DejaVuSans-34" d="M 2419 4116 
L 825 1625 
L 2419 1625 
L 2419 4116 
z
M 2253 4666 
L 3047 4666 
L 3047 1625 
L 3713 1625 
L 3713 1100 
L 3047 1100 
L 3047 0 
L 2419 0 
L 2419 1100 
L 313 1100 
L 313 1709 
L 2253 4666 
z
" transform="scale(0.015625)"/>
       </defs>
       <use xlink:href="#DejaVuSans-32"/>
       <use xlink:href="#DejaVuSans-2e" x="63.623047"/>
       <use xlink:href="#DejaVuSans-34" x="95.410156"/>
      </g>
     </g>
    </g>
    <g id="xtick_4">
     <g id="line2d_4">
      <g>
       <use xlink:href="#m113629ce6c" x="433.163824" y="642.866667" style="stroke: #000000; stroke-width: 0.8"/>
      </g>
     </g>
     <g id="text_4">
      <!-- 2.5 -->
      <g transform="translate(425.212261 657.465104) scale(0.1 -0.1)">
       <defs>
        <path id="DejaVuSans-35" d="M 691 4666 
L 3169 4666 
L 3169 4134 
L 1269 4134 
L 1269 2991 
Q 1406 3038 1543 3061 
Q 1681 3084 1819 3084 
Q 2600 3084 3056 2656 
Q 3513 2228 3513 1497 
Q 3513 744 3044 326 
Q 2575 -91 1722 -91 
Q 1428 -91 1123 -41 
Q 819 9 494 109 
L 494 744 
Q 775 591 1075 516 
Q 1375 441 1709 441 
Q 2250 441 2565 725 
Q 2881 1009 2881 1497 
Q 2881 1984 2565 2268 
Q 2250 2553 1709 2553 
Q 1456 2553 1204 2497 
Q 953 2441 691 2322 
L 691 4666 
z
" transform="scale(0.015625)"/>
       </defs>
       <use xlink:href="#DejaVuSans-32"/>
       <use xlink:href="#DejaVuSans-2e" x="63.623047"/>
       <use xlink:href="#DejaVuSans-35" x="95.410156"/>
      </g>
     </g>
    </g>
    <g id="xtick_5">
     <g id="line2d_5">
      <g>
       <use xlink:href="#m113629ce6c" x="539.955143" y="642.866667" style="stroke: #000000; stroke-width: 0.8"/>
      </g>
     </g>
     <g id="text_5">
      <!-- 2.6 -->
      <g transform="translate(532.00358 657.465104) scale(0.1 -0.1)">
       <defs>
        <path id="DejaVuSans-36" d="M 2113 2584 
Q 1688 2584 1439 2293 
Q 1191 2003 1191 1497 
Q 1191 994 1439 701 
Q 1688 409 2113 409 
Q 2538 409 2786 701 
Q 3034 994 3034 1497 
Q 3034 2003 2786 2293 
Q 2538 2584 2113 2584 
z
M 3366 4563 
L 3366 3988 
Q 3128 4100 2886 4159 
Q 2644 4219 2406 4219 
Q 1781 4219 1451 3797 
Q 1122 3375 1075 2522 
Q 1259 2794 1537 2939 
Q 1816 3084 2150 3084 
Q 2853 3084 3261 2657 
Q 3669 2231 3669 1497 
Q 3669 778 3244 343 
Q 2819 -91 2113 -91 
Q 1303 -91 875 529 
Q 447 1150 447 2328 
Q 447 3434 972 4092 
Q 1497 4750 2381 4750 
Q 2619 4750 2861 4703 
Q 3103 4656 3366 4563 
z
" transform="scale(0.015625)"/>
       </defs>
       <use xlink:href="#DejaVuSans-32"/>
       <use xlink:href="#DejaVuSans-2e" x="63.623047"/>
       <use xlink:href="#DejaVuSans-36" x="95.410156"/>
      </g>
     </g>
    </g>
    <g id="xtick_6">
     <g id="line2d_6">
      <g>
       <use xlink:href="#m113629ce6c" x="646.746462" y="642.866667" style="stroke: #000000; stroke-width: 0.8"/>
      </g>
     </g>
     <g id="text_6">
      <!-- 2.7 -->
      <g transform="translate(638.7949 657.465104) scale(0.1 -0.1)">
       <defs>
        <path id="DejaVuSans-37" d="M 525 4666 
L 3525 4666 
L 3525 4397 
L 1831 0 
L 1172 0 
L 2766 4134 
L 525 4134 
L 525 4666 
z
" transform="scale(0.015625)"/>
       </defs>
       <use xlink:href="#DejaVuSans-32"/>
       <use xlink:href="#DejaVuSans-2e" x="63.623047"/>
       <use xlink:href="#DejaVuSans-37" x="95.410156"/>
      </g>
     </g>
    </g>
    <g id="xtick_7">
     <g id="line2d_7">
      <g>
       <use xlink:href="#m113629ce6c" x="753.537782" y="642.866667" style="stroke: #000000; stroke-width: 0.8"/>
      </g>
     </g>
     <g id="text_7">
      <!-- 2.8 -->
      <g transform="translate(745.586219 657.465104) scale(0.1 -0.1)">
       <defs>
        <path id="DejaVuSans-38" d="M 2034 2216 
Q 1584 2216 1326 1975 
Q 1069 1734 1069 1313 
Q 1069 891 1326 650 
Q 1584 409 2034 409 
Q 2484 409 2743 651 
Q 3003 894 3003 1313 
Q 3003 1734 2745 1975 
Q 2488 2216 2034 2216 
z
M 1403 2484 
Q 997 2584 770 2862 
Q 544 3141 544 3541 
Q 544 4100 942 4425 
Q 1341 4750 2034 4750 
Q 2731 4750 3128 4425 
Q 3525 4100 3525 3541 
Q 3525 3141 3298 2862 
Q 3072 2584 2669 2484 
Q 3125 2378 3379 2068 
Q 3634 1759 3634 1313 
Q 3634 634 3220 271 
Q 2806 -91 2034 -91 
Q 1263 -91 848 271 
Q 434 634 434 1313 
Q 434 1759 690 2068 
Q 947 2378 1403 2484 
z
M 1172 3481 
Q 1172 3119 1398 2916 
Q 1625 2713 2034 2713 
Q 2441 2713 2670 2916 
Q 2900 3119 2900 3481 
Q 2900 3844 2670 4047 
Q 2441 4250 2034 4250 
Q 1625 4250 1398 4047 
Q 1172 3844 1172 3481 
z
" transform="scale(0.015625)"/>
       </defs>
       <use xlink:href="#DejaVuSans-32"/>
       <use xlink:href="#DejaVuSans-2e" x="63.623047"/>
       <use xlink:href="#DejaVuSans-38" x="95.410156"/>
      </g>
     </g>
    </g>
    <g id="text_8">
     <!-- Protein log10-length -->
     <g transform="translate(379.666763 671.143229) scale(0.1 -0.1)">
      <defs>
       <path id="DejaVuSans-50" d="M 1259 4147 
L 1259 2394 
L 2053 2394 
Q 2494 2394 2734 2622 
Q 2975 2850 2975 3272 
Q 2975 3691 2734 3919 
Q 2494 4147 2053 4147 
L 1259 4147 
z
M 628 4666 
L 2053 4666 
Q 2838 4666 3239 4311 
Q 3641 3956 3641 3272 
Q 3641 2581 3239 2228 
Q 2838 1875 2053 1875 
L 1259 1875 
L 1259 0 
L 628 0 
L 628 4666 
z
" transform="scale(0.015625)"/>
       <path id="DejaVuSans-72" d="M 2631 2963 
Q 2534 3019 2420 3045 
Q 2306 3072 2169 3072 
Q 1681 3072 1420 2755 
Q 1159 2438 1159 1844 
L 1159 0 
L 581 0 
L 581 3500 
L 1159 3500 
L 1159 2956 
Q 1341 3275 1631 3429 
Q 1922 3584 2338 3584 
Q 2397 3584 2469 3576 
Q 2541 3569 2628 3553 
L 2631 2963 
z
" transform="scale(0.015625)"/>
       <path id="DejaVuSans-6f" d="M 1959 3097 
Q 1497 3097 1228 2736 
Q 959 2375 959 1747 
Q 959 1119 1226 758 
Q 1494 397 1959 397 
Q 2419 397 2687 759 
Q 2956 1122 2956 1747 
Q 2956 2369 2687 2733 
Q 2419 3097 1959 3097 
z
M 1959 3584 
Q 2709 3584 3137 3096 
Q 3566 2609 3566 1747 
Q 3566 888 3137 398 
Q 2709 -91 1959 -91 
Q 1206 -91 779 398 
Q 353 888 353 1747 
Q 353 2609 779 3096 
Q 1206 3584 1959 3584 
z
" transform="scale(0.015625)"/>
       <path id="DejaVuSans-74" d="M 1172 4494 
L 1172 3500 
L 2356 3500 
L 2356 3053 
L 1172 3053 
L 1172 1153 
Q 1172 725 1289 603 
Q 1406 481 1766 481 
L 2356 481 
L 2356 0 
L 1766 0 
Q 1100 0 847 248 
Q 594 497 594 1153 
L 594 3053 
L 172 3053 
L 172 3500 
L 594 3500 
L 594 4494 
L 1172 4494 
z
" transform="scale(0.015625)"/>
       <path id="DejaVuSans-65" d="M 3597 1894 
L 3597 1613 
L 953 1613 
Q 991 1019 1311 708 
Q 1631 397 2203 397 
Q 2534 397 2845 478 
Q 3156 559 3463 722 
L 3463 178 
Q 3153 47 2828 -22 
Q 2503 -91 2169 -91 
Q 1331 -91 842 396 
Q 353 884 353 1716 
Q 353 2575 817 3079 
Q 1281 3584 2069 3584 
Q 2775 3584 3186 3129 
Q 3597 2675 3597 1894 
z
M 3022 2063 
Q 3016 2534 2758 2815 
Q 2500 3097 2075 3097 
Q 1594 3097 1305 2825 
Q 1016 2553 972 2059 
L 3022 2063 
z
" transform="scale(0.015625)"/>
       <path id="DejaVuSans-69" d="M 603 3500 
L 1178 3500 
L 1178 0 
L 603 0 
L 603 3500 
z
M 603 4863 
L 1178 4863 
L 1178 4134 
L 603 4134 
L 603 4863 
z
" transform="scale(0.015625)"/>
       <path id="DejaVuSans-6e" d="M 3513 2113 
L 3513 0 
L 2938 0 
L 2938 2094 
Q 2938 2591 2744 2837 
Q 2550 3084 2163 3084 
Q 1697 3084 1428 2787 
Q 1159 2491 1159 1978 
L 1159 0 
L 581 0 
L 581 3500 
L 1159 3500 
L 1159 2956 
Q 1366 3272 1645 3428 
Q 1925 3584 2291 3584 
Q 2894 3584 3203 3211 
Q 3513 2838 3513 2113 
z
" transform="scale(0.015625)"/>
       <path id="DejaVuSans-20" transform="scale(0.015625)"/>
       <path id="DejaVuSans-6c" d="M 603 4863 
L 1178 4863 
L 1178 0 
L 603 0 
L 603 4863 
z
" transform="scale(0.015625)"/>
       <path id="DejaVuSans-67" d="M 2906 1791 
Q 2906 2416 2648 2759 
Q 2391 3103 1925 3103 
Q 1463 3103 1205 2759 
Q 947 2416 947 1791 
Q 947 1169 1205 825 
Q 1463 481 1925 481 
Q 2391 481 2648 825 
Q 2906 1169 2906 1791 
z
M 3481 434 
Q 3481 -459 3084 -895 
Q 2688 -1331 1869 -1331 
Q 1566 -1331 1297 -1286 
Q 1028 -1241 775 -1147 
L 775 -588 
Q 1028 -725 1275 -790 
Q 1522 -856 1778 -856 
Q 2344 -856 2625 -561 
Q 2906 -266 2906 331 
L 2906 616 
Q 2728 306 2450 153 
Q 2172 0 1784 0 
Q 1141 0 747 490 
Q 353 981 353 1791 
Q 353 2603 747 3093 
Q 1141 3584 1784 3584 
Q 2172 3584 2450 3431 
Q 2728 3278 2906 2969 
L 2906 3500 
L 3481 3500 
L 3481 434 
z
" transform="scale(0.015625)"/>
       <path id="DejaVuSans-31" d="M 794 531 
L 1825 531 
L 1825 4091 
L 703 3866 
L 703 4441 
L 1819 4666 
L 2450 4666 
L 2450 531 
L 3481 531 
L 3481 0 
L 794 0 
L 794 531 
z
" transform="scale(0.015625)"/>
       <path id="DejaVuSans-30" d="M 2034 4250 
Q 1547 4250 1301 3770 
Q 1056 3291 1056 2328 
Q 1056 1369 1301 889 
Q 1547 409 2034 409 
Q 2525 409 2770 889 
Q 3016 1369 3016 2328 
Q 3016 3291 2770 3770 
Q 2525 4250 2034 4250 
z
M 2034 4750 
Q 2819 4750 3233 4129 
Q 3647 3509 3647 2328 
Q 3647 1150 3233 529 
Q 2819 -91 2034 -91 
Q 1250 -91 836 529 
Q 422 1150 422 2328 
Q 422 3509 836 4129 
Q 1250 4750 2034 4750 
z
" transform="scale(0.015625)"/>
       <path id="DejaVuSans-2d" d="M 313 2009 
L 1997 2009 
L 1997 1497 
L 313 1497 
L 313 2009 
z
" transform="scale(0.015625)"/>
       <path id="DejaVuSans-68" d="M 3513 2113 
L 3513 0 
L 2938 0 
L 2938 2094 
Q 2938 2591 2744 2837 
Q 2550 3084 2163 3084 
Q 1697 3084 1428 2787 
Q 1159 2491 1159 1978 
L 1159 0 
L 581 0 
L 581 4863 
L 1159 4863 
L 1159 2956 
Q 1366 3272 1645 3428 
Q 1925 3584 2291 3584 
Q 2894 3584 3203 3211 
Q 3513 2838 3513 2113 
z
" transform="scale(0.015625)"/>
      </defs>
      <use xlink:href="#DejaVuSans-50"/>
      <use xlink:href="#DejaVuSans-72" x="58.552734"/>
      <use xlink:href="#DejaVuSans-6f" x="97.416016"/>
      <use xlink:href="#DejaVuSans-74" x="158.597656"/>
      <use xlink:href="#DejaVuSans-65" x="197.806641"/>
      <use xlink:href="#DejaVuSans-69" x="259.330078"/>
      <use xlink:href="#DejaVuSans-6e" x="287.113281"/>
      <use xlink:href="#DejaVuSans-20" x="350.492188"/>
      <use xlink:href="#DejaVuSans-6c" x="382.279297"/>
      <use xlink:href="#DejaVuSans-6f" x="410.0625"/>
      <use xlink:href="#DejaVuSans-67" x="471.244141"/>
      <use xlink:href="#DejaVuSans-31" x="534.720703"/>
      <use xlink:href="#DejaVuSans-30" x="598.34375"/>
      <use xlink:href="#DejaVuSans-2d" x="661.966797"/>
      <use xlink:href="#DejaVuSans-6c" x="698.050781"/>
      <use xlink:href="#DejaVuSans-65" x="725.833984"/>
      <use xlink:href="#DejaVuSans-6e" x="787.357422"/>
      <use xlink:href="#DejaVuSans-67" x="850.736328"/>
      <use xlink:href="#DejaVuSans-74" x="914.212891"/>
      <use xlink:href="#DejaVuSans-68" x="953.421875"/>
     </g>
    </g>
   </g>
   <g id="matplotlib.axis_2">
    <g id="ytick_1">
     <g id="line2d_8">
      <defs>
       <path id="mc5ed7d13bd" d="M 0 0 
L -3.5 0 
" style="stroke: #000000; stroke-width: 0.8"/>
      </defs>
      <g>
       <use xlink:href="#mc5ed7d13bd" x="43.78125" y="627.965608" style="stroke: #000000; stroke-width: 0.8"/>
      </g>
     </g>
     <g id="text_9">
      <!-- 0.1 -->
      <g transform="translate(20.878125 631.764827) scale(0.1 -0.1)">
       <use xlink:href="#DejaVuSans-30"/>
       <use xlink:href="#DejaVuSans-2e" x="63.623047"/>
       <use xlink:href="#DejaVuSans-31" x="95.410156"/>
      </g>
     </g>
    </g>
    <g id="ytick_2">
     <g id="line2d_9">
      <g>
       <use xlink:href="#mc5ed7d13bd" x="43.78125" y="560.273111" style="stroke: #000000; stroke-width: 0.8"/>
      </g>
     </g>
     <g id="text_10">
      <!-- 0.2 -->
      <g transform="translate(20.878125 564.07233) scale(0.1 -0.1)">
       <use xlink:href="#DejaVuSans-30"/>
       <use xlink:href="#DejaVuSans-2e" x="63.623047"/>
       <use xlink:href="#DejaVuSans-32" x="95.410156"/>
      </g>
     </g>
    </g>
    <g id="ytick_3">
     <g id="line2d_10">
      <g>
       <use xlink:href="#mc5ed7d13bd" x="43.78125" y="492.580614" style="stroke: #000000; stroke-width: 0.8"/>
      </g>
     </g>
     <g id="text_11">
      <!-- 0.3 -->
      <g transform="translate(20.878125 496.379832) scale(0.1 -0.1)">
       <use xlink:href="#DejaVuSans-30"/>
       <use xlink:href="#DejaVuSans-2e" x="63.623047"/>
       <use xlink:href="#DejaVuSans-33" x="95.410156"/>
      </g>
     </g>
    </g>
    <g id="ytick_4">
     <g id="line2d_11">
      <g>
       <use xlink:href="#mc5ed7d13bd" x="43.78125" y="424.888116" style="stroke: #000000; stroke-width: 0.8"/>
      </g>
     </g>
     <g id="text_12">
      <!-- 0.4 -->
      <g transform="translate(20.878125 428.687335) scale(0.1 -0.1)">
       <use xlink:href="#DejaVuSans-30"/>
       <use xlink:href="#DejaVuSans-2e" x="63.623047"/>
       <use xlink:href="#DejaVuSans-34" x="95.410156"/>
      </g>
     </g>
    </g>
    <g id="ytick_5">
     <g id="line2d_12">
      <g>
       <use xlink:href="#mc5ed7d13bd" x="43.78125" y="357.195619" style="stroke: #000000; stroke-width: 0.8"/>
      </g>
     </g>
     <g id="text_13">
      <!-- 0.5 -->
      <g transform="translate(20.878125 360.994838) scale(0.1 -0.1)">
       <use xlink:href="#DejaVuSans-30"/>
       <use xlink:href="#DejaVuSans-2e" x="63.623047"/>
       <use xlink:href="#DejaVuSans-35" x="95.410156"/>
      </g>
     </g>
    </g>
    <g id="ytick_6">
     <g id="line2d_13">
      <g>
       <use xlink:href="#mc5ed7d13bd" x="43.78125" y="289.503122" style="stroke: #000000; stroke-width: 0.8"/>
      </g>
     </g>
     <g id="text_14">
      <!-- 0.6 -->
      <g transform="translate(20.878125 293.302341) scale(0.1 -0.1)">
       <use xlink:href="#DejaVuSans-30"/>
       <use xlink:href="#DejaVuSans-2e" x="63.623047"/>
       <use xlink:href="#DejaVuSans-36" x="95.410156"/>
      </g>
     </g>
    </g>
    <g id="ytick_7">
     <g id="line2d_14">
      <g>
       <use xlink:href="#mc5ed7d13bd" x="43.78125" y="221.810625" style="stroke: #000000; stroke-width: 0.8"/>
      </g>
     </g>
     <g id="text_15">
      <!-- 0.7 -->
      <g transform="translate(20.878125 225.609844) scale(0.1 -0.1)">
       <use xlink:href="#DejaVuSans-30"/>
       <use xlink:href="#DejaVuSans-2e" x="63.623047"/>
       <use xlink:href="#DejaVuSans-37" x="95.410156"/>
      </g>
     </g>
    </g>
    <g id="ytick_8">
     <g id="line2d_15">
      <g>
       <use xlink:href="#mc5ed7d13bd" x="43.78125" y="154.118128" style="stroke: #000000; stroke-width: 0.8"/>
      </g>
     </g>
     <g id="text_16">
      <!-- 0.8 -->
      <g transform="translate(20.878125 157.917347) scale(0.1 -0.1)">
       <use xlink:href="#DejaVuSans-30"/>
       <use xlink:href="#DejaVuSans-2e" x="63.623047"/>
       <use xlink:href="#DejaVuSans-38" x="95.410156"/>
      </g>
     </g>
    </g>
    <g id="text_17">
     <!-- Correlation coefficient -->
     <g transform="translate(14.798438 452.712284) rotate(-90) scale(0.1 -0.1)">
      <defs>
       <path id="DejaVuSans-43" d="M 4122 4306 
L 4122 3641 
Q 3803 3938 3442 4084 
Q 3081 4231 2675 4231 
Q 1875 4231 1450 3742 
Q 1025 3253 1025 2328 
Q 1025 1406 1450 917 
Q 1875 428 2675 428 
Q 3081 428 3442 575 
Q 3803 722 4122 1019 
L 4122 359 
Q 3791 134 3420 21 
Q 3050 -91 2638 -91 
Q 1578 -91 968 557 
Q 359 1206 359 2328 
Q 359 3453 968 4101 
Q 1578 4750 2638 4750 
Q 3056 4750 3426 4639 
Q 3797 4528 4122 4306 
z
" transform="scale(0.015625)"/>
       <path id="DejaVuSans-61" d="M 2194 1759 
Q 1497 1759 1228 1600 
Q 959 1441 959 1056 
Q 959 750 1161 570 
Q 1363 391 1709 391 
Q 2188 391 2477 730 
Q 2766 1069 2766 1631 
L 2766 1759 
L 2194 1759 
z
M 3341 1997 
L 3341 0 
L 2766 0 
L 2766 531 
Q 2569 213 2275 61 
Q 1981 -91 1556 -91 
Q 1019 -91 701 211 
Q 384 513 384 1019 
Q 384 1609 779 1909 
Q 1175 2209 1959 2209 
L 2766 2209 
L 2766 2266 
Q 2766 2663 2505 2880 
Q 2244 3097 1772 3097 
Q 1472 3097 1187 3025 
Q 903 2953 641 2809 
L 641 3341 
Q 956 3463 1253 3523 
Q 1550 3584 1831 3584 
Q 2591 3584 2966 3190 
Q 3341 2797 3341 1997 
z
" transform="scale(0.015625)"/>
       <path id="DejaVuSans-63" d="M 3122 3366 
L 3122 2828 
Q 2878 2963 2633 3030 
Q 2388 3097 2138 3097 
Q 1578 3097 1268 2742 
Q 959 2388 959 1747 
Q 959 1106 1268 751 
Q 1578 397 2138 397 
Q 2388 397 2633 464 
Q 2878 531 3122 666 
L 3122 134 
Q 2881 22 2623 -34 
Q 2366 -91 2075 -91 
Q 1284 -91 818 406 
Q 353 903 353 1747 
Q 353 2603 823 3093 
Q 1294 3584 2113 3584 
Q 2378 3584 2631 3529 
Q 2884 3475 3122 3366 
z
" transform="scale(0.015625)"/>
       <path id="DejaVuSans-66" d="M 2375 4863 
L 2375 4384 
L 1825 4384 
Q 1516 4384 1395 4259 
Q 1275 4134 1275 3809 
L 1275 3500 
L 2222 3500 
L 2222 3053 
L 1275 3053 
L 1275 0 
L 697 0 
L 697 3053 
L 147 3053 
L 147 3500 
L 697 3500 
L 697 3744 
Q 697 4328 969 4595 
Q 1241 4863 1831 4863 
L 2375 4863 
z
" transform="scale(0.015625)"/>
      </defs>
      <use xlink:href="#DejaVuSans-43"/>
      <use xlink:href="#DejaVuSans-6f" x="69.824219"/>
      <use xlink:href="#DejaVuSans-72" x="131.005859"/>
      <use xlink:href="#DejaVuSans-72" x="170.369141"/>
      <use xlink:href="#DejaVuSans-65" x="209.232422"/>
      <use xlink:href="#DejaVuSans-6c" x="270.755859"/>
      <use xlink:href="#DejaVuSans-61" x="298.539062"/>
      <use xlink:href="#DejaVuSans-74" x="359.818359"/>
      <use xlink:href="#DejaVuSans-69" x="399.027344"/>
      <use xlink:href="#DejaVuSans-6f" x="426.810547"/>
      <use xlink:href="#DejaVuSans-6e" x="487.992188"/>
      <use xlink:href="#DejaVuSans-20" x="551.371094"/>
      <use xlink:href="#DejaVuSans-63" x="583.158203"/>
      <use xlink:href="#DejaVuSans-6f" x="638.138672"/>
      <use xlink:href="#DejaVuSans-65" x="699.320312"/>
      <use xlink:href="#DejaVuSans-66" x="760.84375"/>
      <use xlink:href="#DejaVuSans-66" x="796.048828"/>
      <use xlink:href="#DejaVuSans-69" x="831.253906"/>
      <use xlink:href="#DejaVuSans-63" x="859.037109"/>
      <use xlink:href="#DejaVuSans-69" x="914.017578"/>
      <use xlink:href="#DejaVuSans-65" x="941.800781"/>
      <use xlink:href="#DejaVuSans-6e" x="1003.324219"/>
      <use xlink:href="#DejaVuSans-74" x="1066.703125"/>
     </g>
    </g>
   </g>
   <g id="line2d_16">
    <path d="M 78.938101 431.530501 
L 86.040495 429.940731 
L 93.142889 428.35096 
L 100.245283 426.76119 
L 107.347677 425.17142 
L 114.450071 423.581649 
L 121.552465 421.991879 
L 128.654859 420.402108 
L 135.757253 418.812338 
L 142.859647 417.222568 
L 149.962041 415.632797 
L 157.064435 414.043027 
L 164.166829 412.453256 
L 171.269224 410.863486 
L 178.371618 409.273716 
L 185.474012 407.683945 
L 192.576406 406.094175 
L 199.6788 404.504404 
L 206.781194 402.914634 
L 213.883588 401.324864 
L 220.985982 399.735093 
L 228.088376 398.145323 
L 235.19077 396.555552 
L 242.293164 394.965782 
L 249.395558 393.376011 
L 256.497952 391.786241 
L 263.600346 390.196471 
L 270.702741 388.6067 
L 277.805135 387.01693 
L 284.907529 385.427159 
L 292.009923 383.837389 
L 299.112317 382.247619 
L 306.214711 380.657848 
L 313.317105 379.068078 
L 320.419499 377.478307 
L 327.521893 375.888537 
L 334.624287 374.298767 
L 341.726681 372.708996 
L 348.829075 371.119226 
L 355.931469 369.529455 
L 363.033863 367.939685 
L 370.136258 366.349915 
L 377.238652 364.760144 
L 384.341046 363.170374 
L 391.44344 361.580603 
L 398.545834 359.990833 
L 405.648228 358.401063 
L 412.750622 356.811292 
L 419.853016 355.221522 
L 426.95541 353.631751 
L 434.057804 352.041981 
L 441.160198 350.452211 
L 448.262592 348.86244 
L 455.364986 347.27267 
L 462.46738 345.682899 
L 469.569775 344.093129 
L 476.672169 342.503359 
L 483.774563 340.913588 
L 490.876957 339.323818 
L 497.979351 337.734047 
L 505.081745 336.144277 
L 512.184139 334.554507 
L 519.286533 332.964736 
L 526.388927 331.374966 
L 533.491321 329.785195 
L 540.593715 328.195425 
L 547.696109 326.605655 
L 554.798503 325.015884 
L 561.900897 323.426114 
L 569.003292 321.836343 
L 576.105686 320.246573 
L 583.20808 318.656803 
L 590.310474 317.067032 
L 597.412868 315.477262 
L 604.515262 313.887491 
L 611.617656 312.297721 
L 618.72005 310.707951 
L 625.822444 309.11818 
L 632.924838 307.52841 
L 640.027232 305.938639 
L 647.129626 304.348869 
L 654.23202 302.759099 
L 661.334414 301.169328 
L 668.436809 299.579558 
L 675.539203 297.989787 
L 682.641597 296.400017 
L 689.743991 294.810247 
L 696.846385 293.220476 
L 703.948779 291.630706 
L 711.051173 290.040935 
L 718.153567 288.451165 
L 725.255961 286.861395 
L 732.358355 285.271624 
L 739.460749 283.681854 
L 746.563143 282.092083 
L 753.665537 280.502313 
L 760.767931 278.912543 
L 767.870325 277.322772 
L 774.97272 275.733002 
L 782.075114 274.143231 
" clip-path="url(#pc4ec2647e2)" style="fill: none; stroke: #1f77b4; stroke-width: 2.25; stroke-linecap: square"/>
   </g>
   <g id="line2d_17">
    <path d="M 78.938101 420.944344 
L 86.040495 420.12127 
L 93.142889 419.298196 
L 100.245283 418.475122 
L 107.347677 417.652048 
L 114.450071 416.828973 
L 121.552465 416.005899 
L 128.654859 415.182825 
L 135.757253 414.359751 
L 142.859647 413.536677 
L 149.962041 412.713603 
L 157.064435 411.890529 
L 164.166829 411.067455 
L 171.269224 410.244381 
L 178.371618 409.421307 
L 185.474012 408.598233 
L 192.576406 407.775159 
L 199.6788 406.952085 
L 206.781194 406.129011 
L 213.883588 405.305937 
L 220.985982 404.482862 
L 228.088376 403.659788 
L 235.19077 402.836714 
L 242.293164 402.01364 
L 249.395558 401.190566 
L 256.497952 400.367492 
L 263.600346 399.544418 
L 270.702741 398.721344 
L 277.805135 397.89827 
L 284.907529 397.075196 
L 292.009923 396.252122 
L 299.112317 395.429048 
L 306.214711 394.605974 
L 313.317105 393.7829 
L 320.419499 392.959826 
L 327.521893 392.136752 
L 334.624287 391.313677 
L 341.726681 390.490603 
L 348.829075 389.667529 
L 355.931469 388.844455 
L 363.033863 388.021381 
L 370.136258 387.198307 
L 377.238652 386.375233 
L 384.341046 385.552159 
L 391.44344 384.729085 
L 398.545834 383.906011 
L 405.648228 383.082937 
L 412.750622 382.259863 
L 419.853016 381.436789 
L 426.95541 380.613715 
L 434.057804 379.790641 
L 441.160198 378.967566 
L 448.262592 378.144492 
L 455.364986 377.321418 
L 462.46738 376.498344 
L 469.569775 375.67527 
L 476.672169 374.852196 
L 483.774563 374.029122 
L 490.876957 373.206048 
L 497.979351 372.382974 
L 505.081745 371.5599 
L 512.184139 370.736826 
L 519.286533 369.913752 
L 526.388927 369.090678 
L 533.491321 368.267604 
L 540.593715 367.44453 
L 547.696109 366.621456 
L 554.798503 365.798381 
L 561.900897 364.975307 
L 569.003292 364.152233 
L 576.105686 363.329159 
L 583.20808 362.506085 
L 590.310474 361.683011 
L 597.412868 360.859937 
L 604.515262 360.036863 
L 611.617656 359.213789 
L 618.72005 358.390715 
L 625.822444 357.567641 
L 632.924838 356.744567 
L 640.027232 355.921493 
L 647.129626 355.098419 
L 654.23202 354.275345 
L 661.334414 353.45227 
L 668.436809 352.629196 
L 675.539203 351.806122 
L 682.641597 350.983048 
L 689.743991 350.159974 
L 696.846385 349.3369 
L 703.948779 348.513826 
L 711.051173 347.690752 
L 718.153567 346.867678 
L 725.255961 346.044604 
L 732.358355 345.22153 
L 739.460749 344.398456 
L 746.563143 343.575382 
L 753.665537 342.752308 
L 760.767931 341.929234 
L 767.870325 341.106159 
L 774.97272 340.283085 
L 782.075114 339.460011 
" clip-path="url(#pc4ec2647e2)" style="fill: none; stroke: #ff7f0e; stroke-width: 2.25; stroke-linecap: square"/>
   </g>
   <g id="patch_3">
    <path d="M 43.78125 642.866667 
L 43.78125 151.965714 
" style="fill: none; stroke: #000000; stroke-width: 0.8; stroke-linejoin: miter; stroke-linecap: square"/>
   </g>
   <g id="patch_4">
    <path d="M 43.78125 642.866667 
L 817.231964 642.866667 
" style="fill: none; stroke: #000000; stroke-width: 0.8; stroke-linejoin: miter; stroke-linecap: square"/>
   </g>
   <g id="legend_1">
    <g id="patch_5">
     <path d="M 704.119464 637.866667 
L 810.231964 637.866667 
Q 812.231964 637.866667 812.231964 635.866667 
L 812.231964 607.510417 
Q 812.231964 605.510417 810.231964 605.510417 
L 704.119464 605.510417 
Q 702.119464 605.510417 702.119464 607.510417 
L 702.119464 635.866667 
Q 702.119464 637.866667 704.119464 637.866667 
z
" style="fill: #ffffff; opacity: 0.8; stroke: #cccccc; stroke-linejoin: miter"/>
    </g>
    <g id="PathCollection_3">
     <g>
      <use xlink:href="#ma9db59c555" x="716.119464" y="614.483854" style="fill: #4169e1; fill-opacity: 0.5; stroke: #000000; stroke-opacity: 0.5"/>
     </g>
    </g>
    <g id="text_18">
     <!-- Codon number -->
     <g transform="translate(734.119464 617.108854) scale(0.1 -0.1)">
      <defs>
       <path id="DejaVuSans-64" d="M 2906 2969 
L 2906 4863 
L 3481 4863 
L 3481 0 
L 2906 0 
L 2906 525 
Q 2725 213 2448 61 
Q 2172 -91 1784 -91 
Q 1150 -91 751 415 
Q 353 922 353 1747 
Q 353 2572 751 3078 
Q 1150 3584 1784 3584 
Q 2172 3584 2448 3432 
Q 2725 3281 2906 2969 
z
M 947 1747 
Q 947 1113 1208 752 
Q 1469 391 1925 391 
Q 2381 391 2643 752 
Q 2906 1113 2906 1747 
Q 2906 2381 2643 2742 
Q 2381 3103 1925 3103 
Q 1469 3103 1208 2742 
Q 947 2381 947 1747 
z
" transform="scale(0.015625)"/>
       <path id="DejaVuSans-75" d="M 544 1381 
L 544 3500 
L 1119 3500 
L 1119 1403 
Q 1119 906 1312 657 
Q 1506 409 1894 409 
Q 2359 409 2629 706 
Q 2900 1003 2900 1516 
L 2900 3500 
L 3475 3500 
L 3475 0 
L 2900 0 
L 2900 538 
Q 2691 219 2414 64 
Q 2138 -91 1772 -91 
Q 1169 -91 856 284 
Q 544 659 544 1381 
z
M 1991 3584 
L 1991 3584 
z
" transform="scale(0.015625)"/>
       <path id="DejaVuSans-6d" d="M 3328 2828 
Q 3544 3216 3844 3400 
Q 4144 3584 4550 3584 
Q 5097 3584 5394 3201 
Q 5691 2819 5691 2113 
L 5691 0 
L 5113 0 
L 5113 2094 
Q 5113 2597 4934 2840 
Q 4756 3084 4391 3084 
Q 3944 3084 3684 2787 
Q 3425 2491 3425 1978 
L 3425 0 
L 2847 0 
L 2847 2094 
Q 2847 2600 2669 2842 
Q 2491 3084 2119 3084 
Q 1678 3084 1418 2786 
Q 1159 2488 1159 1978 
L 1159 0 
L 581 0 
L 581 3500 
L 1159 3500 
L 1159 2956 
Q 1356 3278 1631 3431 
Q 1906 3584 2284 3584 
Q 2666 3584 2933 3390 
Q 3200 3197 3328 2828 
z
" transform="scale(0.015625)"/>
       <path id="DejaVuSans-62" d="M 3116 1747 
Q 3116 2381 2855 2742 
Q 2594 3103 2138 3103 
Q 1681 3103 1420 2742 
Q 1159 2381 1159 1747 
Q 1159 1113 1420 752 
Q 1681 391 2138 391 
Q 2594 391 2855 752 
Q 3116 1113 3116 1747 
z
M 1159 2969 
Q 1341 3281 1617 3432 
Q 1894 3584 2278 3584 
Q 2916 3584 3314 3078 
Q 3713 2572 3713 1747 
Q 3713 922 3314 415 
Q 2916 -91 2278 -91 
Q 1894 -91 1617 61 
Q 1341 213 1159 525 
L 1159 0 
L 581 0 
L 581 4863 
L 1159 4863 
L 1159 2969 
z
" transform="scale(0.015625)"/>
      </defs>
      <use xlink:href="#DejaVuSans-43"/>
      <use xlink:href="#DejaVuSans-6f" x="69.824219"/>
      <use xlink:href="#DejaVuSans-64" x="131.005859"/>
      <use xlink:href="#DejaVuSans-6f" x="194.482422"/>
      <use xlink:href="#DejaVuSans-6e" x="255.664062"/>
      <use xlink:href="#DejaVuSans-20" x="319.042969"/>
      <use xlink:href="#DejaVuSans-6e" x="350.830078"/>
      <use xlink:href="#DejaVuSans-75" x="414.208984"/>
      <use xlink:href="#DejaVuSans-6d" x="477.587891"/>
      <use xlink:href="#DejaVuSans-62" x="575"/>
      <use xlink:href="#DejaVuSans-65" x="638.476562"/>
      <use xlink:href="#DejaVuSans-72" x="700"/>
     </g>
    </g>
    <g id="PathCollection_4">
     <g>
      <use xlink:href="#m0f47838a60" x="716.119464" y="629.161979" style="fill: #ff8c00; fill-opacity: 0.5; stroke: #000000; stroke-opacity: 0.5"/>
     </g>
    </g>
    <g id="text_19">
     <!-- Codon+GC -->
     <g transform="translate(734.119464 631.786979) scale(0.1 -0.1)">
      <defs>
       <path id="DejaVuSans-2b" d="M 2944 4013 
L 2944 2272 
L 4684 2272 
L 4684 1741 
L 2944 1741 
L 2944 0 
L 2419 0 
L 2419 1741 
L 678 1741 
L 678 2272 
L 2419 2272 
L 2419 4013 
L 2944 4013 
z
" transform="scale(0.015625)"/>
       <path id="DejaVuSans-47" d="M 3809 666 
L 3809 1919 
L 2778 1919 
L 2778 2438 
L 4434 2438 
L 4434 434 
Q 4069 175 3628 42 
Q 3188 -91 2688 -91 
Q 1594 -91 976 548 
Q 359 1188 359 2328 
Q 359 3472 976 4111 
Q 1594 4750 2688 4750 
Q 3144 4750 3555 4637 
Q 3966 4525 4313 4306 
L 4313 3634 
Q 3963 3931 3569 4081 
Q 3175 4231 2741 4231 
Q 1884 4231 1454 3753 
Q 1025 3275 1025 2328 
Q 1025 1384 1454 906 
Q 1884 428 2741 428 
Q 3075 428 3337 486 
Q 3600 544 3809 666 
z
" transform="scale(0.015625)"/>
      </defs>
      <use xlink:href="#DejaVuSans-43"/>
      <use xlink:href="#DejaVuSans-6f" x="69.824219"/>
      <use xlink:href="#DejaVuSans-64" x="131.005859"/>
      <use xlink:href="#DejaVuSans-6f" x="194.482422"/>
      <use xlink:href="#DejaVuSans-6e" x="255.664062"/>
      <use xlink:href="#DejaVuSans-2b" x="319.042969"/>
      <use xlink:href="#DejaVuSans-47" x="402.832031"/>
      <use xlink:href="#DejaVuSans-43" x="480.322266"/>
     </g>
    </g>
   </g>
  </g>
  <g id="axes_2">
   <g id="patch_6">
    <path d="M 43.78125 135.038095 
L 817.231964 135.038095 
L 817.231964 50.4 
L 43.78125 50.4 
z
" style="fill: #ffffff"/>
   </g>
   <g id="PolyCollection_3">
    <defs>
     <path id="m2eaf6e512b" d="M 78.938101 -549.415207 
L 78.938101 -545.384821 
L 112.420816 -545.384821 
L 112.420816 -545.384821 
L 145.90353 -545.384821 
L 145.90353 -545.384821 
L 179.386245 -545.384821 
L 179.386245 -545.384821 
L 212.86896 -545.384821 
L 212.86896 -545.384821 
L 246.351675 -545.384821 
L 246.351675 -545.384821 
L 279.83439 -545.384821 
L 279.83439 -545.384821 
L 313.317105 -545.384821 
L 313.317105 -545.384821 
L 346.79982 -545.384821 
L 346.79982 -545.384821 
L 380.282535 -545.384821 
L 380.282535 -545.384821 
L 413.76525 -545.384821 
L 413.76525 -545.384821 
L 447.247965 -545.384821 
L 447.247965 -545.384821 
L 480.730679 -545.384821 
L 480.730679 -545.384821 
L 514.213394 -545.384821 
L 514.213394 -545.384821 
L 547.696109 -545.384821 
L 547.696109 -545.384821 
L 581.178824 -545.384821 
L 581.178824 -545.384821 
L 614.661539 -545.384821 
L 614.661539 -545.384821 
L 648.144254 -545.384821 
L 648.144254 -545.384821 
L 681.626969 -545.384821 
L 681.626969 -545.384821 
L 715.109684 -545.384821 
L 715.109684 -545.384821 
L 748.592399 -545.384821 
L 748.592399 -545.384821 
L 782.075114 -545.384821 
L 782.075114 -545.384821 
L 782.075114 -549.415207 
L 782.075114 -549.415207 
L 782.075114 -549.415207 
L 748.592399 -549.415207 
L 748.592399 -545.384821 
L 715.109684 -545.384821 
L 715.109684 -545.384821 
L 681.626969 -545.384821 
L 681.626969 -545.384821 
L 648.144254 -545.384821 
L 648.144254 -545.384821 
L 614.661539 -545.384821 
L 614.661539 -549.415207 
L 581.178824 -549.415207 
L 581.178824 -549.415207 
L 547.696109 -549.415207 
L 547.696109 -545.384821 
L 514.213394 -545.384821 
L 514.213394 -549.415207 
L 480.730679 -549.415207 
L 480.730679 -569.567134 
L 447.247965 -569.567134 
L 447.247965 -585.688676 
L 413.76525 -585.688676 
L 413.76525 -625.992531 
L 380.282535 -625.992531 
L 380.282535 -589.719062 
L 346.79982 -589.719062 
L 346.79982 -573.59752 
L 313.317105 -573.59752 
L 313.317105 -553.445592 
L 279.83439 -553.445592 
L 279.83439 -549.415207 
L 246.351675 -549.415207 
L 246.351675 -545.384821 
L 212.86896 -545.384821 
L 212.86896 -565.536749 
L 179.386245 -565.536749 
L 179.386245 -545.384821 
L 145.90353 -545.384821 
L 145.90353 -545.384821 
L 112.420816 -545.384821 
L 112.420816 -549.415207 
L 78.938101 -549.415207 
z
" style="stroke: #000000"/>
    </defs>
    <g clip-path="url(#pf8f6873d80)">
     <use xlink:href="#m2eaf6e512b" x="0" y="680.422917" style="fill: #800080; fill-opacity: 0.75; stroke: #000000"/>
    </g>
   </g>
   <g id="matplotlib.axis_3">
    <g id="xtick_8">
     <g id="line2d_18">
      <g>
       <use xlink:href="#m113629ce6c" x="112.789865" y="135.038095" style="stroke: #000000; stroke-width: 0.8"/>
      </g>
     </g>
    </g>
    <g id="xtick_9">
     <g id="line2d_19">
      <g>
       <use xlink:href="#m113629ce6c" x="219.581185" y="135.038095" style="stroke: #000000; stroke-width: 0.8"/>
      </g>
     </g>
    </g>
    <g id="xtick_10">
     <g id="line2d_20">
      <g>
       <use xlink:href="#m113629ce6c" x="326.372504" y="135.038095" style="stroke: #000000; stroke-width: 0.8"/>
      </g>
     </g>
    </g>
    <g id="xtick_11">
     <g id="line2d_21">
      <g>
       <use xlink:href="#m113629ce6c" x="433.163824" y="135.038095" style="stroke: #000000; stroke-width: 0.8"/>
      </g>
     </g>
    </g>
    <g id="xtick_12">
     <g id="line2d_22">
      <g>
       <use xlink:href="#m113629ce6c" x="539.955143" y="135.038095" style="stroke: #000000; stroke-width: 0.8"/>
      </g>
     </g>
    </g>
    <g id="xtick_13">
     <g id="line2d_23">
      <g>
       <use xlink:href="#m113629ce6c" x="646.746462" y="135.038095" style="stroke: #000000; stroke-width: 0.8"/>
      </g>
     </g>
    </g>
    <g id="xtick_14">
     <g id="line2d_24">
      <g>
       <use xlink:href="#m113629ce6c" x="753.537782" y="135.038095" style="stroke: #000000; stroke-width: 0.8"/>
      </g>
     </g>
    </g>
   </g>
   <g id="matplotlib.axis_4">
    <g id="ytick_9"/>
    <g id="ytick_10"/>
    <g id="ytick_11"/>
   </g>
   <g id="patch_7">
    <path d="M 43.78125 135.038095 
L 817.231964 135.038095 
" style="fill: none; stroke: #000000; stroke-width: 0.8; stroke-linejoin: miter; stroke-linecap: square"/>
   </g>
  </g>
  <g id="axes_3">
   <g id="patch_8">
    <path d="M 843.902679 642.866667 
L 977.25625 642.866667 
L 977.25625 151.965714 
L 843.902679 151.965714 
z
" style="fill: #ffffff"/>
   </g>
   <g id="PolyCollection_4">
    <defs>
     <path id="ma2d35b6475" d="M 886.33336 -137.939054 
L 849.964205 -137.939054 
L 849.964205 -137.939054 
L 849.964205 -196.987139 
L 849.964205 -196.987139 
L 849.964205 -256.035225 
L 849.964205 -256.035225 
L 849.964205 -315.083311 
L 849.964205 -315.083311 
L 849.964205 -374.131396 
L 849.964205 -374.131396 
L 849.964205 -433.179482 
L 880.271834 -433.179482 
L 880.271834 -433.179482 
L 880.271834 -374.131396 
L 922.702516 -374.131396 
L 922.702516 -315.083311 
L 971.194724 -315.083311 
L 971.194724 -256.035225 
L 922.702516 -256.035225 
L 922.702516 -196.987139 
L 922.702516 -196.987139 
L 922.702516 -137.939054 
L 886.33336 -137.939054 
z
" style="stroke: #000000; stroke-opacity: 0.5"/>
    </defs>
    <g clip-path="url(#p1fff7f1fd9)">
     <use xlink:href="#ma2d35b6475" x="0" y="680.422917" style="fill: #4169e1; fill-opacity: 0.5; stroke: #000000; stroke-opacity: 0.5"/>
    </g>
   </g>
   <g id="PolyCollection_5">
    <defs>
     <path id="m767bb1a50f" d="M 865.108246 -59.86993 
L 849.964205 -59.86993 
L 849.964205 -59.86993 
L 849.964205 -107.138885 
L 849.964205 -107.138885 
L 849.964205 -154.40784 
L 849.964205 -154.40784 
L 849.964205 -201.676796 
L 849.964205 -201.676796 
L 849.964205 -248.945751 
L 849.964205 -248.945751 
L 849.964205 -296.214707 
L 849.964205 -296.214707 
L 849.964205 -343.483662 
L 849.964205 -343.483662 
L 849.964205 -390.752618 
L 902.968349 -390.752618 
L 902.968349 -390.752618 
L 902.968349 -343.483662 
L 963.544514 -343.483662 
L 963.544514 -296.214707 
L 955.972493 -296.214707 
L 955.972493 -248.945751 
L 963.544514 -248.945751 
L 963.544514 -201.676796 
L 895.396328 -201.676796 
L 895.396328 -154.40784 
L 872.680266 -154.40784 
L 872.680266 -107.138885 
L 887.824308 -107.138885 
L 887.824308 -59.86993 
L 865.108246 -59.86993 
z
" style="stroke: #000000; stroke-opacity: 0.5"/>
    </defs>
    <g clip-path="url(#p1fff7f1fd9)">
     <use xlink:href="#m767bb1a50f" x="0" y="680.422917" style="fill: #ff8c00; fill-opacity: 0.5; stroke: #000000; stroke-opacity: 0.5"/>
    </g>
   </g>
   <g id="matplotlib.axis_5">
    <g id="xtick_15"/>
    <g id="xtick_16"/>
    <g id="xtick_17"/>
    <g id="xtick_18"/>
   </g>
   <g id="matplotlib.axis_6">
    <g id="ytick_12">
     <g id="line2d_25">
      <g>
       <use xlink:href="#mc5ed7d13bd" x="843.902679" y="627.965608" style="stroke: #000000; stroke-width: 0.8"/>
      </g>
     </g>
    </g>
    <g id="ytick_13">
     <g id="line2d_26">
      <g>
       <use xlink:href="#mc5ed7d13bd" x="843.902679" y="560.273111" style="stroke: #000000; stroke-width: 0.8"/>
      </g>
     </g>
    </g>
    <g id="ytick_14">
     <g id="line2d_27">
      <g>
       <use xlink:href="#mc5ed7d13bd" x="843.902679" y="492.580614" style="stroke: #000000; stroke-width: 0.8"/>
      </g>
     </g>
    </g>
    <g id="ytick_15">
     <g id="line2d_28">
      <g>
       <use xlink:href="#mc5ed7d13bd" x="843.902679" y="424.888116" style="stroke: #000000; stroke-width: 0.8"/>
      </g>
     </g>
    </g>
    <g id="ytick_16">
     <g id="line2d_29">
      <g>
       <use xlink:href="#mc5ed7d13bd" x="843.902679" y="357.195619" style="stroke: #000000; stroke-width: 0.8"/>
      </g>
     </g>
    </g>
    <g id="ytick_17">
     <g id="line2d_30">
      <g>
       <use xlink:href="#mc5ed7d13bd" x="843.902679" y="289.503122" style="stroke: #000000; stroke-width: 0.8"/>
      </g>
     </g>
    </g>
    <g id="ytick_18">
     <g id="line2d_31">
      <g>
       <use xlink:href="#mc5ed7d13bd" x="843.902679" y="221.810625" style="stroke: #000000; stroke-width: 0.8"/>
      </g>
     </g>
    </g>
    <g id="ytick_19">
     <g id="line2d_32">
      <g>
       <use xlink:href="#mc5ed7d13bd" x="843.902679" y="154.118128" style="stroke: #000000; stroke-width: 0.8"/>
      </g>
     </g>
    </g>
   </g>
   <g id="patch_9">
    <path d="M 843.902679 642.866667 
L 843.902679 151.965714 
" style="fill: none; stroke: #000000; stroke-width: 0.8; stroke-linejoin: miter; stroke-linecap: square"/>
   </g>
  </g>
  <g id="text_20">
   <!-- Archaea - Spearman correlation coefficients for genetic code: VM -->
   <g transform="translate(268.560625 16.318125) scale(0.12 -0.12)">
    <defs>
     <path id="DejaVuSans-41" d="M 2188 4044 
L 1331 1722 
L 3047 1722 
L 2188 4044 
z
M 1831 4666 
L 2547 4666 
L 4325 0 
L 3669 0 
L 3244 1197 
L 1141 1197 
L 716 0 
L 50 0 
L 1831 4666 
z
" transform="scale(0.015625)"/>
     <path id="DejaVuSans-53" d="M 3425 4513 
L 3425 3897 
Q 3066 4069 2747 4153 
Q 2428 4238 2131 4238 
Q 1616 4238 1336 4038 
Q 1056 3838 1056 3469 
Q 1056 3159 1242 3001 
Q 1428 2844 1947 2747 
L 2328 2669 
Q 3034 2534 3370 2195 
Q 3706 1856 3706 1288 
Q 3706 609 3251 259 
Q 2797 -91 1919 -91 
Q 1588 -91 1214 -16 
Q 841 59 441 206 
L 441 856 
Q 825 641 1194 531 
Q 1563 422 1919 422 
Q 2459 422 2753 634 
Q 3047 847 3047 1241 
Q 3047 1584 2836 1778 
Q 2625 1972 2144 2069 
L 1759 2144 
Q 1053 2284 737 2584 
Q 422 2884 422 3419 
Q 422 4038 858 4394 
Q 1294 4750 2059 4750 
Q 2388 4750 2728 4690 
Q 3069 4631 3425 4513 
z
" transform="scale(0.015625)"/>
     <path id="DejaVuSans-70" d="M 1159 525 
L 1159 -1331 
L 581 -1331 
L 581 3500 
L 1159 3500 
L 1159 2969 
Q 1341 3281 1617 3432 
Q 1894 3584 2278 3584 
Q 2916 3584 3314 3078 
Q 3713 2572 3713 1747 
Q 3713 922 3314 415 
Q 2916 -91 2278 -91 
Q 1894 -91 1617 61 
Q 1341 213 1159 525 
z
M 3116 1747 
Q 3116 2381 2855 2742 
Q 2594 3103 2138 3103 
Q 1681 3103 1420 2742 
Q 1159 2381 1159 1747 
Q 1159 1113 1420 752 
Q 1681 391 2138 391 
Q 2594 391 2855 752 
Q 3116 1113 3116 1747 
z
" transform="scale(0.015625)"/>
     <path id="DejaVuSans-73" d="M 2834 3397 
L 2834 2853 
Q 2591 2978 2328 3040 
Q 2066 3103 1784 3103 
Q 1356 3103 1142 2972 
Q 928 2841 928 2578 
Q 928 2378 1081 2264 
Q 1234 2150 1697 2047 
L 1894 2003 
Q 2506 1872 2764 1633 
Q 3022 1394 3022 966 
Q 3022 478 2636 193 
Q 2250 -91 1575 -91 
Q 1294 -91 989 -36 
Q 684 19 347 128 
L 347 722 
Q 666 556 975 473 
Q 1284 391 1588 391 
Q 1994 391 2212 530 
Q 2431 669 2431 922 
Q 2431 1156 2273 1281 
Q 2116 1406 1581 1522 
L 1381 1569 
Q 847 1681 609 1914 
Q 372 2147 372 2553 
Q 372 3047 722 3315 
Q 1072 3584 1716 3584 
Q 2034 3584 2315 3537 
Q 2597 3491 2834 3397 
z
" transform="scale(0.015625)"/>
     <path id="DejaVuSans-3a" d="M 750 794 
L 1409 794 
L 1409 0 
L 750 0 
L 750 794 
z
M 750 3309 
L 1409 3309 
L 1409 2516 
L 750 2516 
L 750 3309 
z
" transform="scale(0.015625)"/>
     <path id="DejaVuSans-56" d="M 1831 0 
L 50 4666 
L 709 4666 
L 2188 738 
L 3669 4666 
L 4325 4666 
L 2547 0 
L 1831 0 
z
" transform="scale(0.015625)"/>
     <path id="DejaVuSans-4d" d="M 628 4666 
L 1569 4666 
L 2759 1491 
L 3956 4666 
L 4897 4666 
L 4897 0 
L 4281 0 
L 4281 4097 
L 3078 897 
L 2444 897 
L 1241 4097 
L 1241 0 
L 628 0 
L 628 4666 
z
" transform="scale(0.015625)"/>
    </defs>
    <use xlink:href="#DejaVuSans-41"/>
    <use xlink:href="#DejaVuSans-72" x="68.408203"/>
    <use xlink:href="#DejaVuSans-63" x="107.271484"/>
    <use xlink:href="#DejaVuSans-68" x="162.251953"/>
    <use xlink:href="#DejaVuSans-61" x="225.630859"/>
    <use xlink:href="#DejaVuSans-65" x="286.910156"/>
    <use xlink:href="#DejaVuSans-61" x="348.433594"/>
    <use xlink:href="#DejaVuSans-20" x="409.712891"/>
    <use xlink:href="#DejaVuSans-2d" x="441.5"/>
    <use xlink:href="#DejaVuSans-20" x="477.583984"/>
    <use xlink:href="#DejaVuSans-53" x="509.371094"/>
    <use xlink:href="#DejaVuSans-70" x="572.847656"/>
    <use xlink:href="#DejaVuSans-65" x="636.324219"/>
    <use xlink:href="#DejaVuSans-61" x="697.847656"/>
    <use xlink:href="#DejaVuSans-72" x="759.126953"/>
    <use xlink:href="#DejaVuSans-6d" x="798.490234"/>
    <use xlink:href="#DejaVuSans-61" x="895.902344"/>
    <use xlink:href="#DejaVuSans-6e" x="957.181641"/>
    <use xlink:href="#DejaVuSans-20" x="1020.560547"/>
    <use xlink:href="#DejaVuSans-63" x="1052.347656"/>
    <use xlink:href="#DejaVuSans-6f" x="1107.328125"/>
    <use xlink:href="#DejaVuSans-72" x="1168.509766"/>
    <use xlink:href="#DejaVuSans-72" x="1207.873047"/>
    <use xlink:href="#DejaVuSans-65" x="1246.736328"/>
    <use xlink:href="#DejaVuSans-6c" x="1308.259766"/>
    <use xlink:href="#DejaVuSans-61" x="1336.042969"/>
    <use xlink:href="#DejaVuSans-74" x="1397.322266"/>
    <use xlink:href="#DejaVuSans-69" x="1436.53125"/>
    <use xlink:href="#DejaVuSans-6f" x="1464.314453"/>
    <use xlink:href="#DejaVuSans-6e" x="1525.496094"/>
    <use xlink:href="#DejaVuSans-20" x="1588.875"/>
    <use xlink:href="#DejaVuSans-63" x="1620.662109"/>
    <use xlink:href="#DejaVuSans-6f" x="1675.642578"/>
    <use xlink:href="#DejaVuSans-65" x="1736.824219"/>
    <use xlink:href="#DejaVuSans-66" x="1798.347656"/>
    <use xlink:href="#DejaVuSans-66" x="1833.552734"/>
    <use xlink:href="#DejaVuSans-69" x="1868.757812"/>
    <use xlink:href="#DejaVuSans-63" x="1896.541016"/>
    <use xlink:href="#DejaVuSans-69" x="1951.521484"/>
    <use xlink:href="#DejaVuSans-65" x="1979.304688"/>
    <use xlink:href="#DejaVuSans-6e" x="2040.828125"/>
    <use xlink:href="#DejaVuSans-74" x="2104.207031"/>
    <use xlink:href="#DejaVuSans-73" x="2143.416016"/>
    <use xlink:href="#DejaVuSans-20" x="2195.515625"/>
    <use xlink:href="#DejaVuSans-66" x="2227.302734"/>
    <use xlink:href="#DejaVuSans-6f" x="2262.507812"/>
    <use xlink:href="#DejaVuSans-72" x="2323.689453"/>
    <use xlink:href="#DejaVuSans-20" x="2364.802734"/>
    <use xlink:href="#DejaVuSans-67" x="2396.589844"/>
    <use xlink:href="#DejaVuSans-65" x="2460.066406"/>
    <use xlink:href="#DejaVuSans-6e" x="2521.589844"/>
    <use xlink:href="#DejaVuSans-65" x="2584.96875"/>
    <use xlink:href="#DejaVuSans-74" x="2646.492188"/>
    <use xlink:href="#DejaVuSans-69" x="2685.701172"/>
    <use xlink:href="#DejaVuSans-63" x="2713.484375"/>
    <use xlink:href="#DejaVuSans-20" x="2768.464844"/>
    <use xlink:href="#DejaVuSans-63" x="2800.251953"/>
    <use xlink:href="#DejaVuSans-6f" x="2855.232422"/>
    <use xlink:href="#DejaVuSans-64" x="2916.414062"/>
    <use xlink:href="#DejaVuSans-65" x="2979.890625"/>
    <use xlink:href="#DejaVuSans-3a" x="3041.414062"/>
    <use xlink:href="#DejaVuSans-20" x="3075.105469"/>
    <use xlink:href="#DejaVuSans-56" x="3106.892578"/>
    <use xlink:href="#DejaVuSans-4d" x="3175.300781"/>
   </g>
  </g>
 </g>
 <defs>
  <clipPath id="pc4ec2647e2">
   <rect x="43.78125" y="151.965714" width="773.450714" height="490.900952"/>
  </clipPath>
  <clipPath id="pf8f6873d80">
   <rect x="43.78125" y="50.4" width="773.450714" height="84.638095"/>
  </clipPath>
  <clipPath id="p1fff7f1fd9">
   <rect x="843.902679" y="151.965714" width="133.353571" height="490.900952"/>
  </clipPath>
 </defs>
</svg>
