<?xml version="1.0" encoding="utf-8" standalone="no"?>
<!DOCTYPE svg PUBLIC "-//W3C//DTD SVG 1.1//EN"
  "http://www.w3.org/Graphics/SVG/1.1/DTD/svg11.dtd">
<svg xmlns:xlink="http://www.w3.org/1999/xlink" width="992.835937pt" height="680.422917pt" viewBox="0 0 992.835937 680.422917" xmlns="http://www.w3.org/2000/svg" version="1.1">
 <metadata>
  <rdf:RDF xmlns:dc="http://purl.org/dc/elements/1.1/" xmlns:cc="http://creativecommons.org/ns#" xmlns:rdf="http://www.w3.org/1999/02/22-rdf-syntax-ns#">
   <cc:Work>
    <dc:type rdf:resource="http://purl.org/dc/dcmitype/StillImage"/>
    <dc:date>2025-01-27T09:32:05.878875</dc:date>
    <dc:format>image/svg+xml</dc:format>
    <dc:creator>
     <cc:Agent>
      <dc:title>Matplotlib v3.6.3, https://matplotlib.org/</dc:title>
     </cc:Agent>
    </dc:creator>
   </cc:Work>
  </rdf:RDF>
 </metadata>
 <defs>
  <style type="text/css">*{stroke-linejoin: round; stroke-linecap: butt}</style>
 </defs>
 <g id="figure_1">
  <g id="patch_1">
   <path d="M 0 680.422917 
L 992.835937 680.422917 
L 992.835937 0 
L 0 0 
z
" style="fill: #ffffff"/>
  </g>
  <g id="axes_1">
   <g id="patch_2">
    <path d="M 52.160938 642.866667 
L 825.611652 642.866667 
L 825.611652 151.965714 
L 52.160938 151.965714 
z
" style="fill: #ffffff"/>
   </g>
   <g id="PathCollection_1">
    <defs>
     <path id="m15476cb4cb" d="M 0 3 
C 0.795609 3 1.55874 2.683901 2.12132 2.12132 
C 2.683901 1.55874 3 0.795609 3 0 
C 3 -0.795609 2.683901 -1.55874 2.12132 -2.12132 
C 1.55874 -2.683901 0.795609 -3 0 -3 
C -0.795609 -3 -1.55874 -2.683901 -2.12132 -2.12132 
C -2.683901 -1.55874 -3 -0.795609 -3 0 
C -3 0.795609 -2.683901 1.55874 -2.12132 2.12132 
C -1.55874 2.683901 -0.795609 3 0 3 
z
" style="stroke: #000000; stroke-opacity: 0.5"/>
    </defs>
    <g clip-path="url(#p84ca653db0)">
     <use xlink:href="#m15476cb4cb" x="238.961553" y="453.419086" style="fill: #4169e1; fill-opacity: 0.5; stroke: #000000; stroke-opacity: 0.5"/>
     <use xlink:href="#m15476cb4cb" x="259.151678" y="352.868602" style="fill: #4169e1; fill-opacity: 0.5; stroke: #000000; stroke-opacity: 0.5"/>
     <use xlink:href="#m15476cb4cb" x="268.172112" y="367.232957" style="fill: #4169e1; fill-opacity: 0.5; stroke: #000000; stroke-opacity: 0.5"/>
     <use xlink:href="#m15476cb4cb" x="267.819604" y="424.690376" style="fill: #4169e1; fill-opacity: 0.5; stroke: #000000; stroke-opacity: 0.5"/>
     <use xlink:href="#m15476cb4cb" x="292.210264" y="367.232957" style="fill: #4169e1; fill-opacity: 0.5; stroke: #000000; stroke-opacity: 0.5"/>
     <use xlink:href="#m15476cb4cb" x="220.470723" y="403.143844" style="fill: #4169e1; fill-opacity: 0.5; stroke: #000000; stroke-opacity: 0.5"/>
     <use xlink:href="#m15476cb4cb" x="301.641919" y="417.508199" style="fill: #4169e1; fill-opacity: 0.5; stroke: #000000; stroke-opacity: 0.5"/>
     <use xlink:href="#m15476cb4cb" x="275.812185" y="381.597311" style="fill: #4169e1; fill-opacity: 0.5; stroke: #000000; stroke-opacity: 0.5"/>
     <use xlink:href="#m15476cb4cb" x="501.098927" y="302.59336" style="fill: #4169e1; fill-opacity: 0.5; stroke: #000000; stroke-opacity: 0.5"/>
     <use xlink:href="#m15476cb4cb" x="144.607118" y="505.801968" style="fill: #4169e1; fill-opacity: 0.5; stroke: #000000; stroke-opacity: 0.5"/>
     <use xlink:href="#m15476cb4cb" x="188.916835" y="449.495928" style="fill: #4169e1; fill-opacity: 0.5; stroke: #000000; stroke-opacity: 0.5"/>
     <use xlink:href="#m15476cb4cb" x="313.877181" y="324.139892" style="fill: #4169e1; fill-opacity: 0.5; stroke: #000000; stroke-opacity: 0.5"/>
     <use xlink:href="#m15476cb4cb" x="231.883832" y="412.268951" style="fill: #4169e1; fill-opacity: 0.5; stroke: #000000; stroke-opacity: 0.5"/>
     <use xlink:href="#m15476cb4cb" x="254.697262" y="489.329973" style="fill: #4169e1; fill-opacity: 0.5; stroke: #000000; stroke-opacity: 0.5"/>
     <use xlink:href="#m15476cb4cb" x="294.607976" y="446.236908" style="fill: #4169e1; fill-opacity: 0.5; stroke: #000000; stroke-opacity: 0.5"/>
     <use xlink:href="#m15476cb4cb" x="256.656992" y="324.139892" style="fill: #4169e1; fill-opacity: 0.5; stroke: #000000; stroke-opacity: 0.5"/>
     <use xlink:href="#m15476cb4cb" x="240.69473" y="439.054731" style="fill: #4169e1; fill-opacity: 0.5; stroke: #000000; stroke-opacity: 0.5"/>
     <use xlink:href="#m15476cb4cb" x="356.094765" y="360.050779" style="fill: #4169e1; fill-opacity: 0.5; stroke: #000000; stroke-opacity: 0.5"/>
     <use xlink:href="#m15476cb4cb" x="238.000662" y="395.961666" style="fill: #4169e1; fill-opacity: 0.5; stroke: #000000; stroke-opacity: 0.5"/>
     <use xlink:href="#m15476cb4cb" x="270.101598" y="496.512151" style="fill: #4169e1; fill-opacity: 0.5; stroke: #000000; stroke-opacity: 0.5"/>
     <use xlink:href="#m15476cb4cb" x="300.810058" y="345.686424" style="fill: #4169e1; fill-opacity: 0.5; stroke: #000000; stroke-opacity: 0.5"/>
     <use xlink:href="#m15476cb4cb" x="272.065002" y="324.139892" style="fill: #4169e1; fill-opacity: 0.5; stroke: #000000; stroke-opacity: 0.5"/>
     <use xlink:href="#m15476cb4cb" x="260.741627" y="381.597311" style="fill: #4169e1; fill-opacity: 0.5; stroke: #000000; stroke-opacity: 0.5"/>
     <use xlink:href="#m15476cb4cb" x="275.745976" y="453.419086" style="fill: #4169e1; fill-opacity: 0.5; stroke: #000000; stroke-opacity: 0.5"/>
     <use xlink:href="#m15476cb4cb" x="451.418336" y="288.229005" style="fill: #4169e1; fill-opacity: 0.5; stroke: #000000; stroke-opacity: 0.5"/>
     <use xlink:href="#m15476cb4cb" x="280.925445" y="360.050779" style="fill: #4169e1; fill-opacity: 0.5; stroke: #000000; stroke-opacity: 0.5"/>
     <use xlink:href="#m15476cb4cb" x="291.202615" y="381.597311" style="fill: #4169e1; fill-opacity: 0.5; stroke: #000000; stroke-opacity: 0.5"/>
     <use xlink:href="#m15476cb4cb" x="143.2644" y="361.949104" style="fill: #4169e1; fill-opacity: 0.5; stroke: #000000; stroke-opacity: 0.5"/>
     <use xlink:href="#m15476cb4cb" x="347.357638" y="388.779489" style="fill: #4169e1; fill-opacity: 0.5; stroke: #000000; stroke-opacity: 0.5"/>
     <use xlink:href="#m15476cb4cb" x="260.680863" y="345.686424" style="fill: #4169e1; fill-opacity: 0.5; stroke: #000000; stroke-opacity: 0.5"/>
     <use xlink:href="#m15476cb4cb" x="790.454801" y="344.46716" style="fill: #4169e1; fill-opacity: 0.5; stroke: #000000; stroke-opacity: 0.5"/>
     <use xlink:href="#m15476cb4cb" x="87.317788" y="360.050779" style="fill: #4169e1; fill-opacity: 0.5; stroke: #000000; stroke-opacity: 0.5"/>
     <use xlink:href="#m15476cb4cb" x="280.834173" y="345.686424" style="fill: #4169e1; fill-opacity: 0.5; stroke: #000000; stroke-opacity: 0.5"/>
     <use xlink:href="#m15476cb4cb" x="295.002224" y="453.419086" style="fill: #4169e1; fill-opacity: 0.5; stroke: #000000; stroke-opacity: 0.5"/>
     <use xlink:href="#m15476cb4cb" x="271.567809" y="374.415134" style="fill: #4169e1; fill-opacity: 0.5; stroke: #000000; stroke-opacity: 0.5"/>
     <use xlink:href="#m15476cb4cb" x="312.80276" y="345.686424" style="fill: #4169e1; fill-opacity: 0.5; stroke: #000000; stroke-opacity: 0.5"/>
     <use xlink:href="#m15476cb4cb" x="248.667816" y="417.508199" style="fill: #4169e1; fill-opacity: 0.5; stroke: #000000; stroke-opacity: 0.5"/>
     <use xlink:href="#m15476cb4cb" x="314.065303" y="367.232957" style="fill: #4169e1; fill-opacity: 0.5; stroke: #000000; stroke-opacity: 0.5"/>
     <use xlink:href="#m15476cb4cb" x="296.660735" y="316.957714" style="fill: #4169e1; fill-opacity: 0.5; stroke: #000000; stroke-opacity: 0.5"/>
     <use xlink:href="#m15476cb4cb" x="141.921681" y="393.551432" style="fill: #4169e1; fill-opacity: 0.5; stroke: #000000; stroke-opacity: 0.5"/>
     <use xlink:href="#m15476cb4cb" x="207.849168" y="324.139892" style="fill: #4169e1; fill-opacity: 0.5; stroke: #000000; stroke-opacity: 0.5"/>
     <use xlink:href="#m15476cb4cb" x="210.961858" y="410.326021" style="fill: #4169e1; fill-opacity: 0.5; stroke: #000000; stroke-opacity: 0.5"/>
     <use xlink:href="#m15476cb4cb" x="285.085489" y="316.957714" style="fill: #4169e1; fill-opacity: 0.5; stroke: #000000; stroke-opacity: 0.5"/>
     <use xlink:href="#m15476cb4cb" x="282.23402" y="431.872554" style="fill: #4169e1; fill-opacity: 0.5; stroke: #000000; stroke-opacity: 0.5"/>
     <use xlink:href="#m15476cb4cb" x="386.967839" y="417.508199" style="fill: #4169e1; fill-opacity: 0.5; stroke: #000000; stroke-opacity: 0.5"/>
     <use xlink:href="#m15476cb4cb" x="294.779115" y="403.143844" style="fill: #4169e1; fill-opacity: 0.5; stroke: #000000; stroke-opacity: 0.5"/>
     <use xlink:href="#m15476cb4cb" x="290.292095" y="337.878058" style="fill: #4169e1; fill-opacity: 0.5; stroke: #000000; stroke-opacity: 0.5"/>
     <use xlink:href="#m15476cb4cb" x="329.047838" y="410.326021" style="fill: #4169e1; fill-opacity: 0.5; stroke: #000000; stroke-opacity: 0.5"/>
     <use xlink:href="#m15476cb4cb" x="254.603021" y="374.415134" style="fill: #4169e1; fill-opacity: 0.5; stroke: #000000; stroke-opacity: 0.5"/>
     <use xlink:href="#m15476cb4cb" x="241.991226" y="360.050779" style="fill: #4169e1; fill-opacity: 0.5; stroke: #000000; stroke-opacity: 0.5"/>
     <use xlink:href="#m15476cb4cb" x="350.297848" y="331.322069" style="fill: #4169e1; fill-opacity: 0.5; stroke: #000000; stroke-opacity: 0.5"/>
     <use xlink:href="#m15476cb4cb" x="294.657765" y="395.961666" style="fill: #4169e1; fill-opacity: 0.5; stroke: #000000; stroke-opacity: 0.5"/>
     <use xlink:href="#m15476cb4cb" x="338.853753" y="453.419086" style="fill: #4169e1; fill-opacity: 0.5; stroke: #000000; stroke-opacity: 0.5"/>
     <use xlink:href="#m15476cb4cb" x="146.621196" y="482.147796" style="fill: #4169e1; fill-opacity: 0.5; stroke: #000000; stroke-opacity: 0.5"/>
     <use xlink:href="#m15476cb4cb" x="140.914642" y="467.783441" style="fill: #4169e1; fill-opacity: 0.5; stroke: #000000; stroke-opacity: 0.5"/>
     <use xlink:href="#m15476cb4cb" x="351.385794" y="388.779489" style="fill: #4169e1; fill-opacity: 0.5; stroke: #000000; stroke-opacity: 0.5"/>
     <use xlink:href="#m15476cb4cb" x="279.907194" y="453.419086" style="fill: #4169e1; fill-opacity: 0.5; stroke: #000000; stroke-opacity: 0.5"/>
     <use xlink:href="#m15476cb4cb" x="301.705203" y="410.855423" style="fill: #4169e1; fill-opacity: 0.5; stroke: #000000; stroke-opacity: 0.5"/>
     <use xlink:href="#m15476cb4cb" x="310.611386" y="410.326021" style="fill: #4169e1; fill-opacity: 0.5; stroke: #000000; stroke-opacity: 0.5"/>
     <use xlink:href="#m15476cb4cb" x="307.915277" y="331.322069" style="fill: #4169e1; fill-opacity: 0.5; stroke: #000000; stroke-opacity: 0.5"/>
     <use xlink:href="#m15476cb4cb" x="241.854075" y="403.143844" style="fill: #4169e1; fill-opacity: 0.5; stroke: #000000; stroke-opacity: 0.5"/>
     <use xlink:href="#m15476cb4cb" x="304.390641" y="414.072843" style="fill: #4169e1; fill-opacity: 0.5; stroke: #000000; stroke-opacity: 0.5"/>
     <use xlink:href="#m15476cb4cb" x="226.96053" y="302.59336" style="fill: #4169e1; fill-opacity: 0.5; stroke: #000000; stroke-opacity: 0.5"/>
     <use xlink:href="#m15476cb4cb" x="287.702566" y="345.686424" style="fill: #4169e1; fill-opacity: 0.5; stroke: #000000; stroke-opacity: 0.5"/>
     <use xlink:href="#m15476cb4cb" x="296.030546" y="316.957714" style="fill: #4169e1; fill-opacity: 0.5; stroke: #000000; stroke-opacity: 0.5"/>
     <use xlink:href="#m15476cb4cb" x="260.080924" y="491.125308" style="fill: #4169e1; fill-opacity: 0.5; stroke: #000000; stroke-opacity: 0.5"/>
     <use xlink:href="#m15476cb4cb" x="299.019766" y="483.533931" style="fill: #4169e1; fill-opacity: 0.5; stroke: #000000; stroke-opacity: 0.5"/>
    </g>
   </g>
   <g id="PathCollection_2">
    <defs>
     <path id="mfe2fc9a9ee" d="M 0 3 
C 0.795609 3 1.55874 2.683901 2.12132 2.12132 
C 2.683901 1.55874 3 0.795609 3 0 
C 3 -0.795609 2.683901 -1.55874 2.12132 -2.12132 
C 1.55874 -2.683901 0.795609 -3 0 -3 
C -0.795609 -3 -1.55874 -2.683901 -2.12132 -2.12132 
C -2.683901 -1.55874 -3 -0.795609 -3 0 
C -3 0.795609 -2.683901 1.55874 -2.12132 2.12132 
C -1.55874 2.683901 -0.795609 3 0 3 
z
" style="stroke: #000000; stroke-opacity: 0.5"/>
    </defs>
    <g clip-path="url(#p84ca653db0)">
     <use xlink:href="#mfe2fc9a9ee" x="238.961553" y="517.611537" style="fill: #ff8c00; fill-opacity: 0.5; stroke: #000000; stroke-opacity: 0.5"/>
     <use xlink:href="#mfe2fc9a9ee" x="259.151678" y="401.802405" style="fill: #ff8c00; fill-opacity: 0.5; stroke: #000000; stroke-opacity: 0.5"/>
     <use xlink:href="#mfe2fc9a9ee" x="268.172112" y="408.236246" style="fill: #ff8c00; fill-opacity: 0.5; stroke: #000000; stroke-opacity: 0.5"/>
     <use xlink:href="#mfe2fc9a9ee" x="267.819604" y="472.574652" style="fill: #ff8c00; fill-opacity: 0.5; stroke: #000000; stroke-opacity: 0.5"/>
     <use xlink:href="#mfe2fc9a9ee" x="292.210264" y="388.934724" style="fill: #ff8c00; fill-opacity: 0.5; stroke: #000000; stroke-opacity: 0.5"/>
     <use xlink:href="#mfe2fc9a9ee" x="220.470723" y="421.103927" style="fill: #ff8c00; fill-opacity: 0.5; stroke: #000000; stroke-opacity: 0.5"/>
     <use xlink:href="#mfe2fc9a9ee" x="301.641919" y="446.83929" style="fill: #ff8c00; fill-opacity: 0.5; stroke: #000000; stroke-opacity: 0.5"/>
     <use xlink:href="#mfe2fc9a9ee" x="275.812185" y="363.199361" style="fill: #ff8c00; fill-opacity: 0.5; stroke: #000000; stroke-opacity: 0.5"/>
     <use xlink:href="#mfe2fc9a9ee" x="501.098927" y="382.500883" style="fill: #ff8c00; fill-opacity: 0.5; stroke: #000000; stroke-opacity: 0.5"/>
     <use xlink:href="#mfe2fc9a9ee" x="144.607118" y="453.902225" style="fill: #ff8c00; fill-opacity: 0.5; stroke: #000000; stroke-opacity: 0.5"/>
     <use xlink:href="#mfe2fc9a9ee" x="188.916835" y="501.331455" style="fill: #ff8c00; fill-opacity: 0.5; stroke: #000000; stroke-opacity: 0.5"/>
     <use xlink:href="#mfe2fc9a9ee" x="313.877181" y="343.897839" style="fill: #ff8c00; fill-opacity: 0.5; stroke: #000000; stroke-opacity: 0.5"/>
     <use xlink:href="#mfe2fc9a9ee" x="231.883832" y="462.514131" style="fill: #ff8c00; fill-opacity: 0.5; stroke: #000000; stroke-opacity: 0.5"/>
     <use xlink:href="#mfe2fc9a9ee" x="254.697262" y="620.552987" style="fill: #ff8c00; fill-opacity: 0.5; stroke: #000000; stroke-opacity: 0.5"/>
     <use xlink:href="#mfe2fc9a9ee" x="294.607976" y="524.045377" style="fill: #ff8c00; fill-opacity: 0.5; stroke: #000000; stroke-opacity: 0.5"/>
     <use xlink:href="#mfe2fc9a9ee" x="256.656992" y="376.067043" style="fill: #ff8c00; fill-opacity: 0.5; stroke: #000000; stroke-opacity: 0.5"/>
     <use xlink:href="#mfe2fc9a9ee" x="240.69473" y="504.743855" style="fill: #ff8c00; fill-opacity: 0.5; stroke: #000000; stroke-opacity: 0.5"/>
     <use xlink:href="#mfe2fc9a9ee" x="356.094765" y="376.067043" style="fill: #ff8c00; fill-opacity: 0.5; stroke: #000000; stroke-opacity: 0.5"/>
     <use xlink:href="#mfe2fc9a9ee" x="238.000662" y="388.934724" style="fill: #ff8c00; fill-opacity: 0.5; stroke: #000000; stroke-opacity: 0.5"/>
     <use xlink:href="#mfe2fc9a9ee" x="270.101598" y="524.045377" style="fill: #ff8c00; fill-opacity: 0.5; stroke: #000000; stroke-opacity: 0.5"/>
     <use xlink:href="#mfe2fc9a9ee" x="300.810058" y="331.030158" style="fill: #ff8c00; fill-opacity: 0.5; stroke: #000000; stroke-opacity: 0.5"/>
     <use xlink:href="#mfe2fc9a9ee" x="272.065002" y="337.463999" style="fill: #ff8c00; fill-opacity: 0.5; stroke: #000000; stroke-opacity: 0.5"/>
     <use xlink:href="#mfe2fc9a9ee" x="260.741627" y="433.971608" style="fill: #ff8c00; fill-opacity: 0.5; stroke: #000000; stroke-opacity: 0.5"/>
     <use xlink:href="#mfe2fc9a9ee" x="275.745976" y="466.140812" style="fill: #ff8c00; fill-opacity: 0.5; stroke: #000000; stroke-opacity: 0.5"/>
     <use xlink:href="#mfe2fc9a9ee" x="451.418336" y="343.897839" style="fill: #ff8c00; fill-opacity: 0.5; stroke: #000000; stroke-opacity: 0.5"/>
     <use xlink:href="#mfe2fc9a9ee" x="280.925445" y="414.670086" style="fill: #ff8c00; fill-opacity: 0.5; stroke: #000000; stroke-opacity: 0.5"/>
     <use xlink:href="#mfe2fc9a9ee" x="291.202615" y="466.140812" style="fill: #ff8c00; fill-opacity: 0.5; stroke: #000000; stroke-opacity: 0.5"/>
     <use xlink:href="#mfe2fc9a9ee" x="143.2644" y="429.59812" style="fill: #ff8c00; fill-opacity: 0.5; stroke: #000000; stroke-opacity: 0.5"/>
     <use xlink:href="#mfe2fc9a9ee" x="347.357638" y="401.802405" style="fill: #ff8c00; fill-opacity: 0.5; stroke: #000000; stroke-opacity: 0.5"/>
     <use xlink:href="#mfe2fc9a9ee" x="260.680863" y="395.368565" style="fill: #ff8c00; fill-opacity: 0.5; stroke: #000000; stroke-opacity: 0.5"/>
     <use xlink:href="#mfe2fc9a9ee" x="790.454801" y="378.242936" style="fill: #ff8c00; fill-opacity: 0.5; stroke: #000000; stroke-opacity: 0.5"/>
     <use xlink:href="#mfe2fc9a9ee" x="87.317788" y="363.199361" style="fill: #ff8c00; fill-opacity: 0.5; stroke: #000000; stroke-opacity: 0.5"/>
     <use xlink:href="#mfe2fc9a9ee" x="280.834173" y="401.802405" style="fill: #ff8c00; fill-opacity: 0.5; stroke: #000000; stroke-opacity: 0.5"/>
     <use xlink:href="#mfe2fc9a9ee" x="295.002224" y="472.574652" style="fill: #ff8c00; fill-opacity: 0.5; stroke: #000000; stroke-opacity: 0.5"/>
     <use xlink:href="#mfe2fc9a9ee" x="271.567809" y="421.103927" style="fill: #ff8c00; fill-opacity: 0.5; stroke: #000000; stroke-opacity: 0.5"/>
     <use xlink:href="#mfe2fc9a9ee" x="312.80276" y="343.897839" style="fill: #ff8c00; fill-opacity: 0.5; stroke: #000000; stroke-opacity: 0.5"/>
     <use xlink:href="#mfe2fc9a9ee" x="248.667816" y="433.971608" style="fill: #ff8c00; fill-opacity: 0.5; stroke: #000000; stroke-opacity: 0.5"/>
     <use xlink:href="#mfe2fc9a9ee" x="314.065303" y="388.934724" style="fill: #ff8c00; fill-opacity: 0.5; stroke: #000000; stroke-opacity: 0.5"/>
     <use xlink:href="#mfe2fc9a9ee" x="296.660735" y="369.633202" style="fill: #ff8c00; fill-opacity: 0.5; stroke: #000000; stroke-opacity: 0.5"/>
     <use xlink:href="#mfe2fc9a9ee" x="141.921681" y="471.192826" style="fill: #ff8c00; fill-opacity: 0.5; stroke: #000000; stroke-opacity: 0.5"/>
     <use xlink:href="#mfe2fc9a9ee" x="207.849168" y="369.633202" style="fill: #ff8c00; fill-opacity: 0.5; stroke: #000000; stroke-opacity: 0.5"/>
     <use xlink:href="#mfe2fc9a9ee" x="210.961858" y="388.934724" style="fill: #ff8c00; fill-opacity: 0.5; stroke: #000000; stroke-opacity: 0.5"/>
     <use xlink:href="#mfe2fc9a9ee" x="285.085489" y="376.067043" style="fill: #ff8c00; fill-opacity: 0.5; stroke: #000000; stroke-opacity: 0.5"/>
     <use xlink:href="#mfe2fc9a9ee" x="282.23402" y="581.949943" style="fill: #ff8c00; fill-opacity: 0.5; stroke: #000000; stroke-opacity: 0.5"/>
     <use xlink:href="#mfe2fc9a9ee" x="386.967839" y="453.27313" style="fill: #ff8c00; fill-opacity: 0.5; stroke: #000000; stroke-opacity: 0.5"/>
     <use xlink:href="#mfe2fc9a9ee" x="294.779115" y="453.27313" style="fill: #ff8c00; fill-opacity: 0.5; stroke: #000000; stroke-opacity: 0.5"/>
     <use xlink:href="#mfe2fc9a9ee" x="290.292095" y="346.511321" style="fill: #ff8c00; fill-opacity: 0.5; stroke: #000000; stroke-opacity: 0.5"/>
     <use xlink:href="#mfe2fc9a9ee" x="329.047838" y="421.103927" style="fill: #ff8c00; fill-opacity: 0.5; stroke: #000000; stroke-opacity: 0.5"/>
     <use xlink:href="#mfe2fc9a9ee" x="254.603021" y="388.934724" style="fill: #ff8c00; fill-opacity: 0.5; stroke: #000000; stroke-opacity: 0.5"/>
     <use xlink:href="#mfe2fc9a9ee" x="241.991226" y="408.236246" style="fill: #ff8c00; fill-opacity: 0.5; stroke: #000000; stroke-opacity: 0.5"/>
     <use xlink:href="#mfe2fc9a9ee" x="350.297848" y="376.067043" style="fill: #ff8c00; fill-opacity: 0.5; stroke: #000000; stroke-opacity: 0.5"/>
     <use xlink:href="#mfe2fc9a9ee" x="294.657765" y="440.405449" style="fill: #ff8c00; fill-opacity: 0.5; stroke: #000000; stroke-opacity: 0.5"/>
     <use xlink:href="#mfe2fc9a9ee" x="338.853753" y="575.516103" style="fill: #ff8c00; fill-opacity: 0.5; stroke: #000000; stroke-opacity: 0.5"/>
     <use xlink:href="#mfe2fc9a9ee" x="146.621196" y="472.574652" style="fill: #ff8c00; fill-opacity: 0.5; stroke: #000000; stroke-opacity: 0.5"/>
     <use xlink:href="#mfe2fc9a9ee" x="140.914642" y="459.706971" style="fill: #ff8c00; fill-opacity: 0.5; stroke: #000000; stroke-opacity: 0.5"/>
     <use xlink:href="#mfe2fc9a9ee" x="351.385794" y="382.500883" style="fill: #ff8c00; fill-opacity: 0.5; stroke: #000000; stroke-opacity: 0.5"/>
     <use xlink:href="#mfe2fc9a9ee" x="279.907194" y="581.949943" style="fill: #ff8c00; fill-opacity: 0.5; stroke: #000000; stroke-opacity: 0.5"/>
     <use xlink:href="#mfe2fc9a9ee" x="301.705203" y="509.958728" style="fill: #ff8c00; fill-opacity: 0.5; stroke: #000000; stroke-opacity: 0.5"/>
     <use xlink:href="#mfe2fc9a9ee" x="310.611386" y="388.934724" style="fill: #ff8c00; fill-opacity: 0.5; stroke: #000000; stroke-opacity: 0.5"/>
     <use xlink:href="#mfe2fc9a9ee" x="307.915277" y="376.067043" style="fill: #ff8c00; fill-opacity: 0.5; stroke: #000000; stroke-opacity: 0.5"/>
     <use xlink:href="#mfe2fc9a9ee" x="241.854075" y="453.27313" style="fill: #ff8c00; fill-opacity: 0.5; stroke: #000000; stroke-opacity: 0.5"/>
     <use xlink:href="#mfe2fc9a9ee" x="304.390641" y="460.475948" style="fill: #ff8c00; fill-opacity: 0.5; stroke: #000000; stroke-opacity: 0.5"/>
     <use xlink:href="#mfe2fc9a9ee" x="226.96053" y="337.463999" style="fill: #ff8c00; fill-opacity: 0.5; stroke: #000000; stroke-opacity: 0.5"/>
     <use xlink:href="#mfe2fc9a9ee" x="287.702566" y="388.934724" style="fill: #ff8c00; fill-opacity: 0.5; stroke: #000000; stroke-opacity: 0.5"/>
     <use xlink:href="#mfe2fc9a9ee" x="296.030546" y="324.596317" style="fill: #ff8c00; fill-opacity: 0.5; stroke: #000000; stroke-opacity: 0.5"/>
     <use xlink:href="#mfe2fc9a9ee" x="260.080924" y="532.786902" style="fill: #ff8c00; fill-opacity: 0.5; stroke: #000000; stroke-opacity: 0.5"/>
     <use xlink:href="#mfe2fc9a9ee" x="299.019766" y="427.199308" style="fill: #ff8c00; fill-opacity: 0.5; stroke: #000000; stroke-opacity: 0.5"/>
    </g>
   </g>
   <g id="PolyCollection_1">
    <path d="M 87.317788 398.229966 
L 87.317788 472.386492 
L 94.420182 469.219213 
L 101.522576 466.07899 
L 108.62497 463.627049 
L 115.727364 460.647091 
L 122.829759 457.631681 
L 129.932153 454.702639 
L 137.034547 452.18911 
L 144.136941 449.464578 
L 151.239335 446.262816 
L 158.341729 443.272273 
L 165.444123 440.529555 
L 172.546517 437.60307 
L 179.648911 434.769751 
L 186.751305 431.804765 
L 193.853699 428.888031 
L 200.956093 426.182251 
L 208.058487 423.741756 
L 215.160881 421.061263 
L 222.263275 418.226097 
L 229.36567 415.982492 
L 236.468064 413.608528 
L 243.570458 411.558673 
L 250.672852 409.690662 
L 257.775246 407.88023 
L 264.87764 405.94434 
L 271.980034 404.337629 
L 279.082428 403.176467 
L 286.184822 401.64471 
L 293.287216 400.321481 
L 300.38961 398.593323 
L 307.492004 397.194129 
L 314.594398 396.360469 
L 321.696792 395.258622 
L 328.799187 394.09806 
L 335.901581 393.159617 
L 343.003975 392.333993 
L 350.106369 391.507911 
L 357.208763 390.506139 
L 364.311157 389.767914 
L 371.413551 388.975679 
L 378.515945 388.199619 
L 385.618339 387.372052 
L 392.720733 386.554393 
L 399.823127 385.78555 
L 406.925521 385.367286 
L 414.027915 384.702832 
L 421.130309 384.061013 
L 428.232704 383.501301 
L 435.335098 383.281154 
L 442.437492 382.622968 
L 449.539886 382.179549 
L 456.64228 381.2197 
L 463.744674 380.491568 
L 470.847068 380.047942 
L 477.949462 379.196209 
L 485.051856 378.335689 
L 492.15425 377.754766 
L 499.256644 377.501201 
L 506.359038 377.286579 
L 513.461432 376.659298 
L 520.563826 375.855751 
L 527.666221 375.050221 
L 534.768615 374.309479 
L 541.871009 373.903192 
L 548.973403 373.481668 
L 556.075797 373.039418 
L 563.178191 372.280166 
L 570.280585 371.50808 
L 577.382979 370.764322 
L 584.485373 370.181785 
L 591.587767 369.599248 
L 598.690161 369.146952 
L 605.792555 368.765873 
L 612.894949 368.159883 
L 619.997343 367.669339 
L 627.099738 367.257205 
L 634.202132 366.845071 
L 641.304526 366.432936 
L 648.40692 366.020802 
L 655.509314 365.608668 
L 662.611708 365.195055 
L 669.714102 364.776182 
L 676.816496 364.357308 
L 683.91889 363.938435 
L 691.021284 363.377103 
L 698.123678 362.756671 
L 705.226072 362.136239 
L 712.328466 361.515806 
L 719.43086 360.895374 
L 726.533255 360.274942 
L 733.635649 359.65451 
L 740.738043 359.034077 
L 747.840437 358.413645 
L 754.942831 357.791222 
L 762.045225 357.168372 
L 769.147619 356.545523 
L 776.250013 355.922673 
L 783.352407 355.299823 
L 790.454801 354.676974 
L 790.454801 174.279394 
L 790.454801 174.279394 
L 783.352407 177.321443 
L 776.250013 180.363492 
L 769.147619 183.405541 
L 762.045225 186.44759 
L 754.942831 189.489639 
L 747.840437 192.533657 
L 740.738043 195.580124 
L 733.635649 198.62659 
L 726.533255 201.673057 
L 719.43086 204.719524 
L 712.328466 207.765991 
L 705.226072 210.812457 
L 698.123678 213.858924 
L 691.021284 216.905391 
L 683.91889 219.951858 
L 676.816496 222.998324 
L 669.714102 226.044791 
L 662.611708 229.091258 
L 655.509314 232.137725 
L 648.40692 235.184191 
L 641.304526 238.230658 
L 634.202132 241.277125 
L 627.099738 244.323592 
L 619.997343 247.370059 
L 612.894949 250.416525 
L 605.792555 253.292889 
L 598.690161 256.101567 
L 591.587767 258.910245 
L 584.485373 261.718924 
L 577.382979 264.527602 
L 570.280585 267.33628 
L 563.178191 270.144958 
L 556.075797 273.126804 
L 548.973403 276.172985 
L 541.871009 279.141532 
L 534.768615 282.27072 
L 527.666221 285.312359 
L 520.563826 288.353999 
L 513.461432 291.396075 
L 506.359038 294.447749 
L 499.256644 297.499424 
L 492.15425 300.551098 
L 485.051856 303.602773 
L 477.949462 306.654447 
L 470.847068 309.706121 
L 463.744674 312.757796 
L 456.64228 315.799716 
L 449.539886 318.483559 
L 442.437492 321.214788 
L 435.335098 324.322262 
L 428.232704 327.429737 
L 421.130309 330.390154 
L 414.027915 333.236601 
L 406.925521 336.085716 
L 399.823127 338.934831 
L 392.720733 342.019291 
L 385.618339 344.673544 
L 378.515945 347.530777 
L 371.413551 350.582761 
L 364.311157 353.370925 
L 357.208763 356.096988 
L 350.106369 358.752241 
L 343.003975 361.012065 
L 335.901581 363.33505 
L 328.799187 365.629742 
L 321.696792 367.644086 
L 314.594398 369.771393 
L 307.492004 372.071291 
L 300.38961 374.124817 
L 293.287216 375.907295 
L 286.184822 377.281185 
L 279.082428 378.571483 
L 271.980034 379.785278 
L 264.87764 381.182247 
L 257.775246 382.478001 
L 250.672852 383.550827 
L 243.570458 384.736872 
L 236.468064 385.517022 
L 229.36567 386.311765 
L 222.263275 387.089042 
L 215.160881 387.524076 
L 208.058487 387.971906 
L 200.956093 388.479412 
L 193.853699 389.180915 
L 186.751305 389.566378 
L 179.648911 390.153264 
L 172.546517 390.732864 
L 165.444123 391.402658 
L 158.341729 391.996788 
L 151.239335 392.743025 
L 144.136941 393.315977 
L 137.034547 393.770382 
L 129.932153 394.491277 
L 122.829759 395.199445 
L 115.727364 395.907613 
L 108.62497 396.615781 
L 101.522576 397.306728 
L 94.420182 397.730161 
L 87.317788 398.229966 
z
" clip-path="url(#p84ca653db0)" style="fill: #1f77b4; fill-opacity: 0.15"/>
   </g>
   <g id="PolyCollection_2">
    <path d="M 87.317788 426.153572 
L 87.317788 488.654478 
L 94.420182 486.33885 
L 101.522576 484.688525 
L 108.62497 482.577066 
L 115.727364 480.782828 
L 122.829759 479.171403 
L 129.932153 477.500368 
L 137.034547 475.530425 
L 144.136941 473.939462 
L 151.239335 471.533435 
L 158.341729 469.543968 
L 165.444123 467.179255 
L 172.546517 465.249117 
L 179.648911 463.6119 
L 186.751305 461.798096 
L 193.853699 460.131405 
L 200.956093 458.312654 
L 208.058487 456.483653 
L 215.160881 454.702973 
L 222.263275 453.225222 
L 229.36567 451.993415 
L 236.468064 450.483775 
L 243.570458 448.95013 
L 250.672852 447.508979 
L 257.775246 446.61307 
L 264.87764 445.437395 
L 271.980034 444.46299 
L 279.082428 443.836976 
L 286.184822 442.710172 
L 293.287216 441.781583 
L 300.38961 440.922681 
L 307.492004 440.014089 
L 314.594398 438.975541 
L 321.696792 438.455439 
L 328.799187 437.872701 
L 335.901581 437.190361 
L 343.003975 436.54284 
L 350.106369 435.930709 
L 357.208763 435.296613 
L 364.311157 434.671768 
L 371.413551 433.9237 
L 378.515945 433.413067 
L 385.618339 432.912969 
L 392.720733 432.259852 
L 399.823127 431.901928 
L 406.925521 431.390204 
L 414.027915 430.783535 
L 421.130309 430.31409 
L 428.232704 429.959722 
L 435.335098 429.769023 
L 442.437492 429.586962 
L 449.539886 429.55608 
L 456.64228 429.39043 
L 463.744674 429.024452 
L 470.847068 428.631561 
L 477.949462 428.578823 
L 485.051856 428.467764 
L 492.15425 428.281518 
L 499.256644 428.09038 
L 506.359038 427.855423 
L 513.461432 427.583655 
L 520.563826 427.530329 
L 527.666221 427.350235 
L 534.768615 427.140247 
L 541.871009 426.458732 
L 548.973403 426.391193 
L 556.075797 426.323654 
L 563.178191 426.256114 
L 570.280585 426.188575 
L 577.382979 426.036261 
L 584.485373 425.852679 
L 591.587767 425.665817 
L 598.690161 425.478258 
L 605.792555 425.290698 
L 612.894949 425.103138 
L 619.997343 424.915579 
L 627.099738 424.728019 
L 634.202132 424.522238 
L 641.304526 424.299595 
L 648.40692 424.076952 
L 655.509314 423.85431 
L 662.611708 423.631667 
L 669.714102 423.409025 
L 676.816496 423.186382 
L 683.91889 422.96374 
L 691.021284 422.741097 
L 698.123678 422.513076 
L 705.226072 422.2107 
L 712.328466 421.892238 
L 719.43086 421.723955 
L 726.533255 421.555671 
L 733.635649 421.387388 
L 740.738043 421.169574 
L 747.840437 420.947426 
L 754.942831 420.850135 
L 762.045225 420.577611 
L 769.147619 420.305086 
L 776.250013 420.058833 
L 783.352407 419.876031 
L 790.454801 419.874242 
L 790.454801 266.010643 
L 790.454801 266.010643 
L 783.352407 268.242067 
L 776.250013 270.473492 
L 769.147619 272.71415 
L 762.045225 274.955343 
L 754.942831 277.196536 
L 747.840437 279.43773 
L 740.738043 281.678923 
L 733.635649 283.920116 
L 726.533255 286.161309 
L 719.43086 288.402502 
L 712.328466 290.643695 
L 705.226072 292.884888 
L 698.123678 295.126081 
L 691.021284 297.367275 
L 683.91889 299.608468 
L 676.816496 301.844528 
L 669.714102 304.083288 
L 662.611708 306.316664 
L 655.509314 308.516255 
L 648.40692 310.645841 
L 641.304526 312.775427 
L 634.202132 314.90623 
L 627.099738 317.395987 
L 619.997343 319.717532 
L 612.894949 321.950297 
L 605.792555 324.183673 
L 598.690161 326.266181 
L 591.587767 328.312532 
L 584.485373 330.358883 
L 577.382979 332.405235 
L 570.280585 334.451586 
L 563.178191 336.497937 
L 556.075797 338.596517 
L 548.973403 340.755501 
L 541.871009 342.726667 
L 534.768615 344.708957 
L 527.666221 347.110848 
L 520.563826 349.053086 
L 513.461432 351.090347 
L 506.359038 353.223976 
L 499.256644 355.65468 
L 492.15425 358.037963 
L 485.051856 360.214739 
L 477.949462 362.374428 
L 470.847068 364.538932 
L 463.744674 366.929292 
L 456.64228 369.412134 
L 449.539886 371.708092 
L 442.437492 373.495447 
L 435.335098 375.345283 
L 428.232704 377.510327 
L 421.130309 379.672566 
L 414.027915 382.07507 
L 406.925521 384.172565 
L 399.823127 386.177347 
L 392.720733 388.317373 
L 385.618339 390.181816 
L 378.515945 391.78086 
L 371.413551 393.663781 
L 364.311157 395.412409 
L 357.208763 396.996665 
L 350.106369 398.28482 
L 343.003975 400.399876 
L 335.901581 402.220361 
L 328.799187 403.542315 
L 321.696792 404.489812 
L 314.594398 405.541712 
L 307.492004 407.161635 
L 300.38961 408.493635 
L 293.287216 409.731874 
L 286.184822 410.999594 
L 279.082428 411.922754 
L 271.980034 412.983525 
L 264.87764 414.029203 
L 257.775246 414.849834 
L 250.672852 415.54497 
L 243.570458 416.361313 
L 236.468064 417.103741 
L 229.36567 417.847951 
L 222.263275 418.592161 
L 215.160881 419.124982 
L 208.058487 419.640852 
L 200.956093 420.312925 
L 193.853699 420.996291 
L 186.751305 421.285843 
L 179.648911 421.753381 
L 172.546517 421.773151 
L 165.444123 422.220873 
L 158.341729 423.024617 
L 151.239335 423.0934 
L 144.136941 422.692012 
L 137.034547 423.176619 
L 129.932153 423.511525 
L 122.829759 423.775826 
L 115.727364 424.326011 
L 108.62497 424.466788 
L 101.522576 425.118693 
L 94.420182 425.779763 
L 87.317788 426.153572 
z
" clip-path="url(#p84ca653db0)" style="fill: #ff7f0e; fill-opacity: 0.15"/>
   </g>
   <g id="matplotlib.axis_1">
    <g id="xtick_1">
     <g id="line2d_1">
      <defs>
       <path id="m810ab7049d" d="M 0 0 
L 0 3.5 
" style="stroke: #000000; stroke-width: 0.8"/>
      </defs>
      <g>
       <use xlink:href="#m810ab7049d" x="158.034305" y="642.866667" style="stroke: #000000; stroke-width: 0.8"/>
      </g>
     </g>
     <g id="text_1">
      <!-- 200 -->
      <g transform="translate(148.490555 657.465104) scale(0.1 -0.1)">
       <defs>
        <path id="DejaVuSans-32" d="M 1228 531 
L 3431 531 
L 3431 0 
L 469 0 
L 469 531 
Q 828 903 1448 1529 
Q 2069 2156 2228 2338 
Q 2531 2678 2651 2914 
Q 2772 3150 2772 3378 
Q 2772 3750 2511 3984 
Q 2250 4219 1831 4219 
Q 1534 4219 1204 4116 
Q 875 4013 500 3803 
L 500 4441 
Q 881 4594 1212 4672 
Q 1544 4750 1819 4750 
Q 2544 4750 2975 4387 
Q 3406 4025 3406 3419 
Q 3406 3131 3298 2873 
Q 3191 2616 2906 2266 
Q 2828 2175 2409 1742 
Q 1991 1309 1228 531 
z
" transform="scale(0.015625)"/>
        <path id="DejaVuSans-30" d="M 2034 4250 
Q 1547 4250 1301 3770 
Q 1056 3291 1056 2328 
Q 1056 1369 1301 889 
Q 1547 409 2034 409 
Q 2525 409 2770 889 
Q 3016 1369 3016 2328 
Q 3016 3291 2770 3770 
Q 2525 4250 2034 4250 
z
M 2034 4750 
Q 2819 4750 3233 4129 
Q 3647 3509 3647 2328 
Q 3647 1150 3233 529 
Q 2819 -91 2034 -91 
Q 1250 -91 836 529 
Q 422 1150 422 2328 
Q 422 3509 836 4129 
Q 1250 4750 2034 4750 
z
" transform="scale(0.015625)"/>
       </defs>
       <use xlink:href="#DejaVuSans-32"/>
       <use xlink:href="#DejaVuSans-30" x="63.623047"/>
       <use xlink:href="#DejaVuSans-30" x="127.246094"/>
      </g>
     </g>
    </g>
    <g id="xtick_2">
     <g id="line2d_2">
      <g>
       <use xlink:href="#m810ab7049d" x="292.306173" y="642.866667" style="stroke: #000000; stroke-width: 0.8"/>
      </g>
     </g>
     <g id="text_2">
      <!-- 300 -->
      <g transform="translate(282.762423 657.465104) scale(0.1 -0.1)">
       <defs>
        <path id="DejaVuSans-33" d="M 2597 2516 
Q 3050 2419 3304 2112 
Q 3559 1806 3559 1356 
Q 3559 666 3084 287 
Q 2609 -91 1734 -91 
Q 1441 -91 1130 -33 
Q 819 25 488 141 
L 488 750 
Q 750 597 1062 519 
Q 1375 441 1716 441 
Q 2309 441 2620 675 
Q 2931 909 2931 1356 
Q 2931 1769 2642 2001 
Q 2353 2234 1838 2234 
L 1294 2234 
L 1294 2753 
L 1863 2753 
Q 2328 2753 2575 2939 
Q 2822 3125 2822 3475 
Q 2822 3834 2567 4026 
Q 2313 4219 1838 4219 
Q 1578 4219 1281 4162 
Q 984 4106 628 3988 
L 628 4550 
Q 988 4650 1302 4700 
Q 1616 4750 1894 4750 
Q 2613 4750 3031 4423 
Q 3450 4097 3450 3541 
Q 3450 3153 3228 2886 
Q 3006 2619 2597 2516 
z
" transform="scale(0.015625)"/>
       </defs>
       <use xlink:href="#DejaVuSans-33"/>
       <use xlink:href="#DejaVuSans-30" x="63.623047"/>
       <use xlink:href="#DejaVuSans-30" x="127.246094"/>
      </g>
     </g>
    </g>
    <g id="xtick_3">
     <g id="line2d_3">
      <g>
       <use xlink:href="#m810ab7049d" x="426.57804" y="642.866667" style="stroke: #000000; stroke-width: 0.8"/>
      </g>
     </g>
     <g id="text_3">
      <!-- 400 -->
      <g transform="translate(417.03429 657.465104) scale(0.1 -0.1)">
       <defs>
        <path id="DejaVuSans-34" d="M 2419 4116 
L 825 1625 
L 2419 1625 
L 2419 4116 
z
M 2253 4666 
L 3047 4666 
L 3047 1625 
L 3713 1625 
L 3713 1100 
L 3047 1100 
L 3047 0 
L 2419 0 
L 2419 1100 
L 313 1100 
L 313 1709 
L 2253 4666 
z
" transform="scale(0.015625)"/>
       </defs>
       <use xlink:href="#DejaVuSans-34"/>
       <use xlink:href="#DejaVuSans-30" x="63.623047"/>
       <use xlink:href="#DejaVuSans-30" x="127.246094"/>
      </g>
     </g>
    </g>
    <g id="xtick_4">
     <g id="line2d_4">
      <g>
       <use xlink:href="#m810ab7049d" x="560.849908" y="642.866667" style="stroke: #000000; stroke-width: 0.8"/>
      </g>
     </g>
     <g id="text_4">
      <!-- 500 -->
      <g transform="translate(551.306158 657.465104) scale(0.1 -0.1)">
       <defs>
        <path id="DejaVuSans-35" d="M 691 4666 
L 3169 4666 
L 3169 4134 
L 1269 4134 
L 1269 2991 
Q 1406 3038 1543 3061 
Q 1681 3084 1819 3084 
Q 2600 3084 3056 2656 
Q 3513 2228 3513 1497 
Q 3513 744 3044 326 
Q 2575 -91 1722 -91 
Q 1428 -91 1123 -41 
Q 819 9 494 109 
L 494 744 
Q 775 591 1075 516 
Q 1375 441 1709 441 
Q 2250 441 2565 725 
Q 2881 1009 2881 1497 
Q 2881 1984 2565 2268 
Q 2250 2553 1709 2553 
Q 1456 2553 1204 2497 
Q 953 2441 691 2322 
L 691 4666 
z
" transform="scale(0.015625)"/>
       </defs>
       <use xlink:href="#DejaVuSans-35"/>
       <use xlink:href="#DejaVuSans-30" x="63.623047"/>
       <use xlink:href="#DejaVuSans-30" x="127.246094"/>
      </g>
     </g>
    </g>
    <g id="xtick_5">
     <g id="line2d_5">
      <g>
       <use xlink:href="#m810ab7049d" x="695.121775" y="642.866667" style="stroke: #000000; stroke-width: 0.8"/>
      </g>
     </g>
     <g id="text_5">
      <!-- 600 -->
      <g transform="translate(685.578025 657.465104) scale(0.1 -0.1)">
       <defs>
        <path id="DejaVuSans-36" d="M 2113 2584 
Q 1688 2584 1439 2293 
Q 1191 2003 1191 1497 
Q 1191 994 1439 701 
Q 1688 409 2113 409 
Q 2538 409 2786 701 
Q 3034 994 3034 1497 
Q 3034 2003 2786 2293 
Q 2538 2584 2113 2584 
z
M 3366 4563 
L 3366 3988 
Q 3128 4100 2886 4159 
Q 2644 4219 2406 4219 
Q 1781 4219 1451 3797 
Q 1122 3375 1075 2522 
Q 1259 2794 1537 2939 
Q 1816 3084 2150 3084 
Q 2853 3084 3261 2657 
Q 3669 2231 3669 1497 
Q 3669 778 3244 343 
Q 2819 -91 2113 -91 
Q 1303 -91 875 529 
Q 447 1150 447 2328 
Q 447 3434 972 4092 
Q 1497 4750 2381 4750 
Q 2619 4750 2861 4703 
Q 3103 4656 3366 4563 
z
" transform="scale(0.015625)"/>
       </defs>
       <use xlink:href="#DejaVuSans-36"/>
       <use xlink:href="#DejaVuSans-30" x="63.623047"/>
       <use xlink:href="#DejaVuSans-30" x="127.246094"/>
      </g>
     </g>
    </g>
    <g id="text_6">
     <!-- Protein length -->
     <g transform="translate(403.835513 671.143229) scale(0.1 -0.1)">
      <defs>
       <path id="DejaVuSans-50" d="M 1259 4147 
L 1259 2394 
L 2053 2394 
Q 2494 2394 2734 2622 
Q 2975 2850 2975 3272 
Q 2975 3691 2734 3919 
Q 2494 4147 2053 4147 
L 1259 4147 
z
M 628 4666 
L 2053 4666 
Q 2838 4666 3239 4311 
Q 3641 3956 3641 3272 
Q 3641 2581 3239 2228 
Q 2838 1875 2053 1875 
L 1259 1875 
L 1259 0 
L 628 0 
L 628 4666 
z
" transform="scale(0.015625)"/>
       <path id="DejaVuSans-72" d="M 2631 2963 
Q 2534 3019 2420 3045 
Q 2306 3072 2169 3072 
Q 1681 3072 1420 2755 
Q 1159 2438 1159 1844 
L 1159 0 
L 581 0 
L 581 3500 
L 1159 3500 
L 1159 2956 
Q 1341 3275 1631 3429 
Q 1922 3584 2338 3584 
Q 2397 3584 2469 3576 
Q 2541 3569 2628 3553 
L 2631 2963 
z
" transform="scale(0.015625)"/>
       <path id="DejaVuSans-6f" d="M 1959 3097 
Q 1497 3097 1228 2736 
Q 959 2375 959 1747 
Q 959 1119 1226 758 
Q 1494 397 1959 397 
Q 2419 397 2687 759 
Q 2956 1122 2956 1747 
Q 2956 2369 2687 2733 
Q 2419 3097 1959 3097 
z
M 1959 3584 
Q 2709 3584 3137 3096 
Q 3566 2609 3566 1747 
Q 3566 888 3137 398 
Q 2709 -91 1959 -91 
Q 1206 -91 779 398 
Q 353 888 353 1747 
Q 353 2609 779 3096 
Q 1206 3584 1959 3584 
z
" transform="scale(0.015625)"/>
       <path id="DejaVuSans-74" d="M 1172 4494 
L 1172 3500 
L 2356 3500 
L 2356 3053 
L 1172 3053 
L 1172 1153 
Q 1172 725 1289 603 
Q 1406 481 1766 481 
L 2356 481 
L 2356 0 
L 1766 0 
Q 1100 0 847 248 
Q 594 497 594 1153 
L 594 3053 
L 172 3053 
L 172 3500 
L 594 3500 
L 594 4494 
L 1172 4494 
z
" transform="scale(0.015625)"/>
       <path id="DejaVuSans-65" d="M 3597 1894 
L 3597 1613 
L 953 1613 
Q 991 1019 1311 708 
Q 1631 397 2203 397 
Q 2534 397 2845 478 
Q 3156 559 3463 722 
L 3463 178 
Q 3153 47 2828 -22 
Q 2503 -91 2169 -91 
Q 1331 -91 842 396 
Q 353 884 353 1716 
Q 353 2575 817 3079 
Q 1281 3584 2069 3584 
Q 2775 3584 3186 3129 
Q 3597 2675 3597 1894 
z
M 3022 2063 
Q 3016 2534 2758 2815 
Q 2500 3097 2075 3097 
Q 1594 3097 1305 2825 
Q 1016 2553 972 2059 
L 3022 2063 
z
" transform="scale(0.015625)"/>
       <path id="DejaVuSans-69" d="M 603 3500 
L 1178 3500 
L 1178 0 
L 603 0 
L 603 3500 
z
M 603 4863 
L 1178 4863 
L 1178 4134 
L 603 4134 
L 603 4863 
z
" transform="scale(0.015625)"/>
       <path id="DejaVuSans-6e" d="M 3513 2113 
L 3513 0 
L 2938 0 
L 2938 2094 
Q 2938 2591 2744 2837 
Q 2550 3084 2163 3084 
Q 1697 3084 1428 2787 
Q 1159 2491 1159 1978 
L 1159 0 
L 581 0 
L 581 3500 
L 1159 3500 
L 1159 2956 
Q 1366 3272 1645 3428 
Q 1925 3584 2291 3584 
Q 2894 3584 3203 3211 
Q 3513 2838 3513 2113 
z
" transform="scale(0.015625)"/>
       <path id="DejaVuSans-20" transform="scale(0.015625)"/>
       <path id="DejaVuSans-6c" d="M 603 4863 
L 1178 4863 
L 1178 0 
L 603 0 
L 603 4863 
z
" transform="scale(0.015625)"/>
       <path id="DejaVuSans-67" d="M 2906 1791 
Q 2906 2416 2648 2759 
Q 2391 3103 1925 3103 
Q 1463 3103 1205 2759 
Q 947 2416 947 1791 
Q 947 1169 1205 825 
Q 1463 481 1925 481 
Q 2391 481 2648 825 
Q 2906 1169 2906 1791 
z
M 3481 434 
Q 3481 -459 3084 -895 
Q 2688 -1331 1869 -1331 
Q 1566 -1331 1297 -1286 
Q 1028 -1241 775 -1147 
L 775 -588 
Q 1028 -725 1275 -790 
Q 1522 -856 1778 -856 
Q 2344 -856 2625 -561 
Q 2906 -266 2906 331 
L 2906 616 
Q 2728 306 2450 153 
Q 2172 0 1784 0 
Q 1141 0 747 490 
Q 353 981 353 1791 
Q 353 2603 747 3093 
Q 1141 3584 1784 3584 
Q 2172 3584 2450 3431 
Q 2728 3278 2906 2969 
L 2906 3500 
L 3481 3500 
L 3481 434 
z
" transform="scale(0.015625)"/>
       <path id="DejaVuSans-68" d="M 3513 2113 
L 3513 0 
L 2938 0 
L 2938 2094 
Q 2938 2591 2744 2837 
Q 2550 3084 2163 3084 
Q 1697 3084 1428 2787 
Q 1159 2491 1159 1978 
L 1159 0 
L 581 0 
L 581 4863 
L 1159 4863 
L 1159 2956 
Q 1366 3272 1645 3428 
Q 1925 3584 2291 3584 
Q 2894 3584 3203 3211 
Q 3513 2838 3513 2113 
z
" transform="scale(0.015625)"/>
      </defs>
      <use xlink:href="#DejaVuSans-50"/>
      <use xlink:href="#DejaVuSans-72" x="58.552734"/>
      <use xlink:href="#DejaVuSans-6f" x="97.416016"/>
      <use xlink:href="#DejaVuSans-74" x="158.597656"/>
      <use xlink:href="#DejaVuSans-65" x="197.806641"/>
      <use xlink:href="#DejaVuSans-69" x="259.330078"/>
      <use xlink:href="#DejaVuSans-6e" x="287.113281"/>
      <use xlink:href="#DejaVuSans-20" x="350.492188"/>
      <use xlink:href="#DejaVuSans-6c" x="382.279297"/>
      <use xlink:href="#DejaVuSans-65" x="410.0625"/>
      <use xlink:href="#DejaVuSans-6e" x="471.585938"/>
      <use xlink:href="#DejaVuSans-67" x="534.964844"/>
      <use xlink:href="#DejaVuSans-74" x="598.441406"/>
      <use xlink:href="#DejaVuSans-68" x="637.650391"/>
     </g>
    </g>
   </g>
   <g id="matplotlib.axis_2">
    <g id="ytick_1">
     <g id="line2d_6">
      <defs>
       <path id="m06ef187fd9" d="M 0 0 
L -3.5 0 
" style="stroke: #000000; stroke-width: 0.8"/>
      </defs>
      <g>
       <use xlink:href="#m06ef187fd9" x="52.160938" y="631.954492" style="stroke: #000000; stroke-width: 0.8"/>
      </g>
     </g>
     <g id="text_7">
      <!-- −0.1 -->
      <g transform="translate(20.878125 635.753711) scale(0.1 -0.1)">
       <defs>
        <path id="DejaVuSans-2212" d="M 678 2272 
L 4684 2272 
L 4684 1741 
L 678 1741 
L 678 2272 
z
" transform="scale(0.015625)"/>
        <path id="DejaVuSans-2e" d="M 684 794 
L 1344 794 
L 1344 0 
L 684 0 
L 684 794 
z
" transform="scale(0.015625)"/>
        <path id="DejaVuSans-31" d="M 794 531 
L 1825 531 
L 1825 4091 
L 703 3866 
L 703 4441 
L 1819 4666 
L 2450 4666 
L 2450 531 
L 3481 531 
L 3481 0 
L 794 0 
L 794 531 
z
" transform="scale(0.015625)"/>
       </defs>
       <use xlink:href="#DejaVuSans-2212"/>
       <use xlink:href="#DejaVuSans-30" x="83.789062"/>
       <use xlink:href="#DejaVuSans-2e" x="147.412109"/>
       <use xlink:href="#DejaVuSans-31" x="179.199219"/>
      </g>
     </g>
    </g>
    <g id="ytick_2">
     <g id="line2d_7">
      <g>
       <use xlink:href="#m06ef187fd9" x="52.160938" y="575.516103" style="stroke: #000000; stroke-width: 0.8"/>
      </g>
     </g>
     <g id="text_8">
      <!-- 0.0 -->
      <g transform="translate(29.257813 579.315321) scale(0.1 -0.1)">
       <use xlink:href="#DejaVuSans-30"/>
       <use xlink:href="#DejaVuSans-2e" x="63.623047"/>
       <use xlink:href="#DejaVuSans-30" x="95.410156"/>
      </g>
     </g>
    </g>
    <g id="ytick_3">
     <g id="line2d_8">
      <g>
       <use xlink:href="#m06ef187fd9" x="52.160938" y="519.077713" style="stroke: #000000; stroke-width: 0.8"/>
      </g>
     </g>
     <g id="text_9">
      <!-- 0.1 -->
      <g transform="translate(29.257813 522.876932) scale(0.1 -0.1)">
       <use xlink:href="#DejaVuSans-30"/>
       <use xlink:href="#DejaVuSans-2e" x="63.623047"/>
       <use xlink:href="#DejaVuSans-31" x="95.410156"/>
      </g>
     </g>
    </g>
    <g id="ytick_4">
     <g id="line2d_9">
      <g>
       <use xlink:href="#m06ef187fd9" x="52.160938" y="462.639324" style="stroke: #000000; stroke-width: 0.8"/>
      </g>
     </g>
     <g id="text_10">
      <!-- 0.2 -->
      <g transform="translate(29.257813 466.438542) scale(0.1 -0.1)">
       <use xlink:href="#DejaVuSans-30"/>
       <use xlink:href="#DejaVuSans-2e" x="63.623047"/>
       <use xlink:href="#DejaVuSans-32" x="95.410156"/>
      </g>
     </g>
    </g>
    <g id="ytick_5">
     <g id="line2d_10">
      <g>
       <use xlink:href="#m06ef187fd9" x="52.160938" y="406.200934" style="stroke: #000000; stroke-width: 0.8"/>
      </g>
     </g>
     <g id="text_11">
      <!-- 0.3 -->
      <g transform="translate(29.257813 410.000153) scale(0.1 -0.1)">
       <use xlink:href="#DejaVuSans-30"/>
       <use xlink:href="#DejaVuSans-2e" x="63.623047"/>
       <use xlink:href="#DejaVuSans-33" x="95.410156"/>
      </g>
     </g>
    </g>
    <g id="ytick_6">
     <g id="line2d_11">
      <g>
       <use xlink:href="#m06ef187fd9" x="52.160938" y="349.762545" style="stroke: #000000; stroke-width: 0.8"/>
      </g>
     </g>
     <g id="text_12">
      <!-- 0.4 -->
      <g transform="translate(29.257813 353.561764) scale(0.1 -0.1)">
       <use xlink:href="#DejaVuSans-30"/>
       <use xlink:href="#DejaVuSans-2e" x="63.623047"/>
       <use xlink:href="#DejaVuSans-34" x="95.410156"/>
      </g>
     </g>
    </g>
    <g id="ytick_7">
     <g id="line2d_12">
      <g>
       <use xlink:href="#m06ef187fd9" x="52.160938" y="293.324155" style="stroke: #000000; stroke-width: 0.8"/>
      </g>
     </g>
     <g id="text_13">
      <!-- 0.5 -->
      <g transform="translate(29.257813 297.123374) scale(0.1 -0.1)">
       <use xlink:href="#DejaVuSans-30"/>
       <use xlink:href="#DejaVuSans-2e" x="63.623047"/>
       <use xlink:href="#DejaVuSans-35" x="95.410156"/>
      </g>
     </g>
    </g>
    <g id="ytick_8">
     <g id="line2d_13">
      <g>
       <use xlink:href="#m06ef187fd9" x="52.160938" y="236.885766" style="stroke: #000000; stroke-width: 0.8"/>
      </g>
     </g>
     <g id="text_14">
      <!-- 0.6 -->
      <g transform="translate(29.257813 240.684985) scale(0.1 -0.1)">
       <use xlink:href="#DejaVuSans-30"/>
       <use xlink:href="#DejaVuSans-2e" x="63.623047"/>
       <use xlink:href="#DejaVuSans-36" x="95.410156"/>
      </g>
     </g>
    </g>
    <g id="ytick_9">
     <g id="line2d_14">
      <g>
       <use xlink:href="#m06ef187fd9" x="52.160938" y="180.447377" style="stroke: #000000; stroke-width: 0.8"/>
      </g>
     </g>
     <g id="text_15">
      <!-- 0.7 -->
      <g transform="translate(29.257813 184.246595) scale(0.1 -0.1)">
       <defs>
        <path id="DejaVuSans-37" d="M 525 4666 
L 3525 4666 
L 3525 4397 
L 1831 0 
L 1172 0 
L 2766 4134 
L 525 4134 
L 525 4666 
z
" transform="scale(0.015625)"/>
       </defs>
       <use xlink:href="#DejaVuSans-30"/>
       <use xlink:href="#DejaVuSans-2e" x="63.623047"/>
       <use xlink:href="#DejaVuSans-37" x="95.410156"/>
      </g>
     </g>
    </g>
    <g id="text_16">
     <!-- Correlation coefficient -->
     <g transform="translate(14.798438 452.712284) rotate(-90) scale(0.1 -0.1)">
      <defs>
       <path id="DejaVuSans-43" d="M 4122 4306 
L 4122 3641 
Q 3803 3938 3442 4084 
Q 3081 4231 2675 4231 
Q 1875 4231 1450 3742 
Q 1025 3253 1025 2328 
Q 1025 1406 1450 917 
Q 1875 428 2675 428 
Q 3081 428 3442 575 
Q 3803 722 4122 1019 
L 4122 359 
Q 3791 134 3420 21 
Q 3050 -91 2638 -91 
Q 1578 -91 968 557 
Q 359 1206 359 2328 
Q 359 3453 968 4101 
Q 1578 4750 2638 4750 
Q 3056 4750 3426 4639 
Q 3797 4528 4122 4306 
z
" transform="scale(0.015625)"/>
       <path id="DejaVuSans-61" d="M 2194 1759 
Q 1497 1759 1228 1600 
Q 959 1441 959 1056 
Q 959 750 1161 570 
Q 1363 391 1709 391 
Q 2188 391 2477 730 
Q 2766 1069 2766 1631 
L 2766 1759 
L 2194 1759 
z
M 3341 1997 
L 3341 0 
L 2766 0 
L 2766 531 
Q 2569 213 2275 61 
Q 1981 -91 1556 -91 
Q 1019 -91 701 211 
Q 384 513 384 1019 
Q 384 1609 779 1909 
Q 1175 2209 1959 2209 
L 2766 2209 
L 2766 2266 
Q 2766 2663 2505 2880 
Q 2244 3097 1772 3097 
Q 1472 3097 1187 3025 
Q 903 2953 641 2809 
L 641 3341 
Q 956 3463 1253 3523 
Q 1550 3584 1831 3584 
Q 2591 3584 2966 3190 
Q 3341 2797 3341 1997 
z
" transform="scale(0.015625)"/>
       <path id="DejaVuSans-63" d="M 3122 3366 
L 3122 2828 
Q 2878 2963 2633 3030 
Q 2388 3097 2138 3097 
Q 1578 3097 1268 2742 
Q 959 2388 959 1747 
Q 959 1106 1268 751 
Q 1578 397 2138 397 
Q 2388 397 2633 464 
Q 2878 531 3122 666 
L 3122 134 
Q 2881 22 2623 -34 
Q 2366 -91 2075 -91 
Q 1284 -91 818 406 
Q 353 903 353 1747 
Q 353 2603 823 3093 
Q 1294 3584 2113 3584 
Q 2378 3584 2631 3529 
Q 2884 3475 3122 3366 
z
" transform="scale(0.015625)"/>
       <path id="DejaVuSans-66" d="M 2375 4863 
L 2375 4384 
L 1825 4384 
Q 1516 4384 1395 4259 
Q 1275 4134 1275 3809 
L 1275 3500 
L 2222 3500 
L 2222 3053 
L 1275 3053 
L 1275 0 
L 697 0 
L 697 3053 
L 147 3053 
L 147 3500 
L 697 3500 
L 697 3744 
Q 697 4328 969 4595 
Q 1241 4863 1831 4863 
L 2375 4863 
z
" transform="scale(0.015625)"/>
      </defs>
      <use xlink:href="#DejaVuSans-43"/>
      <use xlink:href="#DejaVuSans-6f" x="69.824219"/>
      <use xlink:href="#DejaVuSans-72" x="131.005859"/>
      <use xlink:href="#DejaVuSans-72" x="170.369141"/>
      <use xlink:href="#DejaVuSans-65" x="209.232422"/>
      <use xlink:href="#DejaVuSans-6c" x="270.755859"/>
      <use xlink:href="#DejaVuSans-61" x="298.539062"/>
      <use xlink:href="#DejaVuSans-74" x="359.818359"/>
      <use xlink:href="#DejaVuSans-69" x="399.027344"/>
      <use xlink:href="#DejaVuSans-6f" x="426.810547"/>
      <use xlink:href="#DejaVuSans-6e" x="487.992188"/>
      <use xlink:href="#DejaVuSans-20" x="551.371094"/>
      <use xlink:href="#DejaVuSans-63" x="583.158203"/>
      <use xlink:href="#DejaVuSans-6f" x="638.138672"/>
      <use xlink:href="#DejaVuSans-65" x="699.320312"/>
      <use xlink:href="#DejaVuSans-66" x="760.84375"/>
      <use xlink:href="#DejaVuSans-66" x="796.048828"/>
      <use xlink:href="#DejaVuSans-69" x="831.253906"/>
      <use xlink:href="#DejaVuSans-63" x="859.037109"/>
      <use xlink:href="#DejaVuSans-69" x="914.017578"/>
      <use xlink:href="#DejaVuSans-65" x="941.800781"/>
      <use xlink:href="#DejaVuSans-6e" x="1003.324219"/>
      <use xlink:href="#DejaVuSans-74" x="1066.703125"/>
     </g>
    </g>
   </g>
   <g id="line2d_15">
    <path d="M 87.317788 424.765002 
L 94.420182 423.494899 
L 101.522576 422.224797 
L 108.62497 420.954694 
L 115.727364 419.684591 
L 122.829759 418.414488 
L 129.932153 417.144385 
L 137.034547 415.874282 
L 144.136941 414.604179 
L 151.239335 413.334076 
L 158.341729 412.063974 
L 165.444123 410.793871 
L 172.546517 409.523768 
L 179.648911 408.253665 
L 186.751305 406.983562 
L 193.853699 405.713459 
L 200.956093 404.443356 
L 208.058487 403.173253 
L 215.160881 401.903151 
L 222.263275 400.633048 
L 229.36567 399.362945 
L 236.468064 398.092842 
L 243.570458 396.822739 
L 250.672852 395.552636 
L 257.775246 394.282533 
L 264.87764 393.01243 
L 271.980034 391.742328 
L 279.082428 390.472225 
L 286.184822 389.202122 
L 293.287216 387.932019 
L 300.38961 386.661916 
L 307.492004 385.391813 
L 314.594398 384.12171 
L 321.696792 382.851607 
L 328.799187 381.581505 
L 335.901581 380.311402 
L 343.003975 379.041299 
L 350.106369 377.771196 
L 357.208763 376.501093 
L 364.311157 375.23099 
L 371.413551 373.960887 
L 378.515945 372.690784 
L 385.618339 371.420682 
L 392.720733 370.150579 
L 399.823127 368.880476 
L 406.925521 367.610373 
L 414.027915 366.34027 
L 421.130309 365.070167 
L 428.232704 363.800064 
L 435.335098 362.529961 
L 442.437492 361.259859 
L 449.539886 359.989756 
L 456.64228 358.719653 
L 463.744674 357.44955 
L 470.847068 356.179447 
L 477.949462 354.909344 
L 485.051856 353.639241 
L 492.15425 352.369138 
L 499.256644 351.099036 
L 506.359038 349.828933 
L 513.461432 348.55883 
L 520.563826 347.288727 
L 527.666221 346.018624 
L 534.768615 344.748521 
L 541.871009 343.478418 
L 548.973403 342.208316 
L 556.075797 340.938213 
L 563.178191 339.66811 
L 570.280585 338.398007 
L 577.382979 337.127904 
L 584.485373 335.857801 
L 591.587767 334.587698 
L 598.690161 333.317595 
L 605.792555 332.047493 
L 612.894949 330.77739 
L 619.997343 329.507287 
L 627.099738 328.237184 
L 634.202132 326.967081 
L 641.304526 325.696978 
L 648.40692 324.426875 
L 655.509314 323.156772 
L 662.611708 321.88667 
L 669.714102 320.616567 
L 676.816496 319.346464 
L 683.91889 318.076361 
L 691.021284 316.806258 
L 698.123678 315.536155 
L 705.226072 314.266052 
L 712.328466 312.995949 
L 719.43086 311.725847 
L 726.533255 310.455744 
L 733.635649 309.185641 
L 740.738043 307.915538 
L 747.840437 306.645435 
L 754.942831 305.375332 
L 762.045225 304.105229 
L 769.147619 302.835126 
L 776.250013 301.565024 
L 783.352407 300.294921 
L 790.454801 299.024818 
" clip-path="url(#p84ca653db0)" style="fill: none; stroke: #1f77b4; stroke-width: 2.25; stroke-linecap: square"/>
   </g>
   <g id="line2d_16">
    <path d="M 87.317788 453.178165 
L 94.420182 452.226698 
L 101.522576 451.275231 
L 108.62497 450.323763 
L 115.727364 449.372296 
L 122.829759 448.420829 
L 129.932153 447.469362 
L 137.034547 446.517895 
L 144.136941 445.566428 
L 151.239335 444.61496 
L 158.341729 443.663493 
L 165.444123 442.712026 
L 172.546517 441.760559 
L 179.648911 440.809092 
L 186.751305 439.857624 
L 193.853699 438.906157 
L 200.956093 437.95469 
L 208.058487 437.003223 
L 215.160881 436.051756 
L 222.263275 435.100289 
L 229.36567 434.148821 
L 236.468064 433.197354 
L 243.570458 432.245887 
L 250.672852 431.29442 
L 257.775246 430.342953 
L 264.87764 429.391486 
L 271.980034 428.440018 
L 279.082428 427.488551 
L 286.184822 426.537084 
L 293.287216 425.585617 
L 300.38961 424.63415 
L 307.492004 423.682682 
L 314.594398 422.731215 
L 321.696792 421.779748 
L 328.799187 420.828281 
L 335.901581 419.876814 
L 343.003975 418.925347 
L 350.106369 417.973879 
L 357.208763 417.022412 
L 364.311157 416.070945 
L 371.413551 415.119478 
L 378.515945 414.168011 
L 385.618339 413.216544 
L 392.720733 412.265076 
L 399.823127 411.313609 
L 406.925521 410.362142 
L 414.027915 409.410675 
L 421.130309 408.459208 
L 428.232704 407.50774 
L 435.335098 406.556273 
L 442.437492 405.604806 
L 449.539886 404.653339 
L 456.64228 403.701872 
L 463.744674 402.750405 
L 470.847068 401.798937 
L 477.949462 400.84747 
L 485.051856 399.896003 
L 492.15425 398.944536 
L 499.256644 397.993069 
L 506.359038 397.041601 
L 513.461432 396.090134 
L 520.563826 395.138667 
L 527.666221 394.1872 
L 534.768615 393.235733 
L 541.871009 392.284266 
L 548.973403 391.332798 
L 556.075797 390.381331 
L 563.178191 389.429864 
L 570.280585 388.478397 
L 577.382979 387.52693 
L 584.485373 386.575463 
L 591.587767 385.623995 
L 598.690161 384.672528 
L 605.792555 383.721061 
L 612.894949 382.769594 
L 619.997343 381.818127 
L 627.099738 380.866659 
L 634.202132 379.915192 
L 641.304526 378.963725 
L 648.40692 378.012258 
L 655.509314 377.060791 
L 662.611708 376.109324 
L 669.714102 375.157856 
L 676.816496 374.206389 
L 683.91889 373.254922 
L 691.021284 372.303455 
L 698.123678 371.351988 
L 705.226072 370.40052 
L 712.328466 369.449053 
L 719.43086 368.497586 
L 726.533255 367.546119 
L 733.635649 366.594652 
L 740.738043 365.643185 
L 747.840437 364.691717 
L 754.942831 363.74025 
L 762.045225 362.788783 
L 769.147619 361.837316 
L 776.250013 360.885849 
L 783.352407 359.934382 
L 790.454801 358.982914 
" clip-path="url(#p84ca653db0)" style="fill: none; stroke: #ff7f0e; stroke-width: 2.25; stroke-linecap: square"/>
   </g>
   <g id="patch_3">
    <path d="M 52.160938 642.866667 
L 52.160938 151.965714 
" style="fill: none; stroke: #000000; stroke-width: 0.8; stroke-linejoin: miter; stroke-linecap: square"/>
   </g>
   <g id="patch_4">
    <path d="M 52.160938 642.866667 
L 825.611652 642.866667 
" style="fill: none; stroke: #000000; stroke-width: 0.8; stroke-linejoin: miter; stroke-linecap: square"/>
   </g>
   <g id="legend_1">
    <g id="patch_5">
     <path d="M 712.499152 637.866667 
L 818.611652 637.866667 
Q 820.611652 637.866667 820.611652 635.866667 
L 820.611652 607.510417 
Q 820.611652 605.510417 818.611652 605.510417 
L 712.499152 605.510417 
Q 710.499152 605.510417 710.499152 607.510417 
L 710.499152 635.866667 
Q 710.499152 637.866667 712.499152 637.866667 
z
" style="fill: #ffffff; opacity: 0.8; stroke: #cccccc; stroke-linejoin: miter"/>
    </g>
    <g id="PathCollection_3">
     <g>
      <use xlink:href="#m15476cb4cb" x="724.499152" y="614.483854" style="fill: #4169e1; fill-opacity: 0.5; stroke: #000000; stroke-opacity: 0.5"/>
     </g>
    </g>
    <g id="text_17">
     <!-- Codon number -->
     <g transform="translate(742.499152 617.108854) scale(0.1 -0.1)">
      <defs>
       <path id="DejaVuSans-64" d="M 2906 2969 
L 2906 4863 
L 3481 4863 
L 3481 0 
L 2906 0 
L 2906 525 
Q 2725 213 2448 61 
Q 2172 -91 1784 -91 
Q 1150 -91 751 415 
Q 353 922 353 1747 
Q 353 2572 751 3078 
Q 1150 3584 1784 3584 
Q 2172 3584 2448 3432 
Q 2725 3281 2906 2969 
z
M 947 1747 
Q 947 1113 1208 752 
Q 1469 391 1925 391 
Q 2381 391 2643 752 
Q 2906 1113 2906 1747 
Q 2906 2381 2643 2742 
Q 2381 3103 1925 3103 
Q 1469 3103 1208 2742 
Q 947 2381 947 1747 
z
" transform="scale(0.015625)"/>
       <path id="DejaVuSans-75" d="M 544 1381 
L 544 3500 
L 1119 3500 
L 1119 1403 
Q 1119 906 1312 657 
Q 1506 409 1894 409 
Q 2359 409 2629 706 
Q 2900 1003 2900 1516 
L 2900 3500 
L 3475 3500 
L 3475 0 
L 2900 0 
L 2900 538 
Q 2691 219 2414 64 
Q 2138 -91 1772 -91 
Q 1169 -91 856 284 
Q 544 659 544 1381 
z
M 1991 3584 
L 1991 3584 
z
" transform="scale(0.015625)"/>
       <path id="DejaVuSans-6d" d="M 3328 2828 
Q 3544 3216 3844 3400 
Q 4144 3584 4550 3584 
Q 5097 3584 5394 3201 
Q 5691 2819 5691 2113 
L 5691 0 
L 5113 0 
L 5113 2094 
Q 5113 2597 4934 2840 
Q 4756 3084 4391 3084 
Q 3944 3084 3684 2787 
Q 3425 2491 3425 1978 
L 3425 0 
L 2847 0 
L 2847 2094 
Q 2847 2600 2669 2842 
Q 2491 3084 2119 3084 
Q 1678 3084 1418 2786 
Q 1159 2488 1159 1978 
L 1159 0 
L 581 0 
L 581 3500 
L 1159 3500 
L 1159 2956 
Q 1356 3278 1631 3431 
Q 1906 3584 2284 3584 
Q 2666 3584 2933 3390 
Q 3200 3197 3328 2828 
z
" transform="scale(0.015625)"/>
       <path id="DejaVuSans-62" d="M 3116 1747 
Q 3116 2381 2855 2742 
Q 2594 3103 2138 3103 
Q 1681 3103 1420 2742 
Q 1159 2381 1159 1747 
Q 1159 1113 1420 752 
Q 1681 391 2138 391 
Q 2594 391 2855 752 
Q 3116 1113 3116 1747 
z
M 1159 2969 
Q 1341 3281 1617 3432 
Q 1894 3584 2278 3584 
Q 2916 3584 3314 3078 
Q 3713 2572 3713 1747 
Q 3713 922 3314 415 
Q 2916 -91 2278 -91 
Q 1894 -91 1617 61 
Q 1341 213 1159 525 
L 1159 0 
L 581 0 
L 581 4863 
L 1159 4863 
L 1159 2969 
z
" transform="scale(0.015625)"/>
      </defs>
      <use xlink:href="#DejaVuSans-43"/>
      <use xlink:href="#DejaVuSans-6f" x="69.824219"/>
      <use xlink:href="#DejaVuSans-64" x="131.005859"/>
      <use xlink:href="#DejaVuSans-6f" x="194.482422"/>
      <use xlink:href="#DejaVuSans-6e" x="255.664062"/>
      <use xlink:href="#DejaVuSans-20" x="319.042969"/>
      <use xlink:href="#DejaVuSans-6e" x="350.830078"/>
      <use xlink:href="#DejaVuSans-75" x="414.208984"/>
      <use xlink:href="#DejaVuSans-6d" x="477.587891"/>
      <use xlink:href="#DejaVuSans-62" x="575"/>
      <use xlink:href="#DejaVuSans-65" x="638.476562"/>
      <use xlink:href="#DejaVuSans-72" x="700"/>
     </g>
    </g>
    <g id="PathCollection_4">
     <g>
      <use xlink:href="#mfe2fc9a9ee" x="724.499152" y="629.161979" style="fill: #ff8c00; fill-opacity: 0.5; stroke: #000000; stroke-opacity: 0.5"/>
     </g>
    </g>
    <g id="text_18">
     <!-- Codon+GC -->
     <g transform="translate(742.499152 631.786979) scale(0.1 -0.1)">
      <defs>
       <path id="DejaVuSans-2b" d="M 2944 4013 
L 2944 2272 
L 4684 2272 
L 4684 1741 
L 2944 1741 
L 2944 0 
L 2419 0 
L 2419 1741 
L 678 1741 
L 678 2272 
L 2419 2272 
L 2419 4013 
L 2944 4013 
z
" transform="scale(0.015625)"/>
       <path id="DejaVuSans-47" d="M 3809 666 
L 3809 1919 
L 2778 1919 
L 2778 2438 
L 4434 2438 
L 4434 434 
Q 4069 175 3628 42 
Q 3188 -91 2688 -91 
Q 1594 -91 976 548 
Q 359 1188 359 2328 
Q 359 3472 976 4111 
Q 1594 4750 2688 4750 
Q 3144 4750 3555 4637 
Q 3966 4525 4313 4306 
L 4313 3634 
Q 3963 3931 3569 4081 
Q 3175 4231 2741 4231 
Q 1884 4231 1454 3753 
Q 1025 3275 1025 2328 
Q 1025 1384 1454 906 
Q 1884 428 2741 428 
Q 3075 428 3337 486 
Q 3600 544 3809 666 
z
" transform="scale(0.015625)"/>
      </defs>
      <use xlink:href="#DejaVuSans-43"/>
      <use xlink:href="#DejaVuSans-6f" x="69.824219"/>
      <use xlink:href="#DejaVuSans-64" x="131.005859"/>
      <use xlink:href="#DejaVuSans-6f" x="194.482422"/>
      <use xlink:href="#DejaVuSans-6e" x="255.664062"/>
      <use xlink:href="#DejaVuSans-2b" x="319.042969"/>
      <use xlink:href="#DejaVuSans-47" x="402.832031"/>
      <use xlink:href="#DejaVuSans-43" x="480.322266"/>
     </g>
    </g>
   </g>
  </g>
  <g id="axes_2">
   <g id="patch_6">
    <path d="M 52.160938 135.038095 
L 825.611652 135.038095 
L 825.611652 50.4 
L 52.160938 50.4 
z
" style="fill: #ffffff"/>
   </g>
   <g id="PolyCollection_3">
    <defs>
     <path id="m38c93c0916" d="M 87.317788 -549.627332 
L 87.317788 -545.384821 
L 114.361519 -545.384821 
L 114.361519 -545.384821 
L 141.405251 -545.384821 
L 141.405251 -545.384821 
L 168.448982 -545.384821 
L 168.448982 -545.384821 
L 195.492713 -545.384821 
L 195.492713 -545.384821 
L 222.536444 -545.384821 
L 222.536444 -545.384821 
L 249.580176 -545.384821 
L 249.580176 -545.384821 
L 276.623907 -545.384821 
L 276.623907 -545.384821 
L 303.667638 -545.384821 
L 303.667638 -545.384821 
L 330.71137 -545.384821 
L 330.71137 -545.384821 
L 357.755101 -545.384821 
L 357.755101 -545.384821 
L 384.798832 -545.384821 
L 384.798832 -545.384821 
L 411.842563 -545.384821 
L 411.842563 -545.384821 
L 438.886295 -545.384821 
L 438.886295 -545.384821 
L 465.930026 -545.384821 
L 465.930026 -545.384821 
L 492.973757 -545.384821 
L 492.973757 -545.384821 
L 520.017488 -545.384821 
L 520.017488 -545.384821 
L 547.06122 -545.384821 
L 547.06122 -545.384821 
L 574.104951 -545.384821 
L 574.104951 -545.384821 
L 601.148682 -545.384821 
L 601.148682 -545.384821 
L 628.192414 -545.384821 
L 628.192414 -545.384821 
L 655.236145 -545.384821 
L 655.236145 -545.384821 
L 682.279876 -545.384821 
L 682.279876 -545.384821 
L 709.323607 -545.384821 
L 709.323607 -545.384821 
L 736.367339 -545.384821 
L 736.367339 -545.384821 
L 763.41107 -545.384821 
L 763.41107 -545.384821 
L 790.454801 -545.384821 
L 790.454801 -545.384821 
L 790.454801 -549.627332 
L 790.454801 -549.627332 
L 790.454801 -549.627332 
L 763.41107 -549.627332 
L 763.41107 -545.384821 
L 736.367339 -545.384821 
L 736.367339 -545.384821 
L 709.323607 -545.384821 
L 709.323607 -545.384821 
L 682.279876 -545.384821 
L 682.279876 -545.384821 
L 655.236145 -545.384821 
L 655.236145 -545.384821 
L 628.192414 -545.384821 
L 628.192414 -545.384821 
L 601.148682 -545.384821 
L 601.148682 -545.384821 
L 574.104951 -545.384821 
L 574.104951 -545.384821 
L 547.06122 -545.384821 
L 547.06122 -545.384821 
L 520.017488 -545.384821 
L 520.017488 -549.627332 
L 492.973757 -549.627332 
L 492.973757 -545.384821 
L 465.930026 -545.384821 
L 465.930026 -549.627332 
L 438.886295 -549.627332 
L 438.886295 -545.384821 
L 411.842563 -545.384821 
L 411.842563 -549.627332 
L 384.798832 -549.627332 
L 384.798832 -545.384821 
L 357.755101 -545.384821 
L 357.755101 -566.597377 
L 330.71137 -566.597377 
L 330.71137 -575.082399 
L 303.667638 -575.082399 
L 303.667638 -625.992531 
L 276.623907 -625.992531 
L 276.623907 -604.779976 
L 249.580176 -604.779976 
L 249.580176 -579.32491 
L 222.536444 -579.32491 
L 222.536444 -558.112355 
L 195.492713 -558.112355 
L 195.492713 -549.627332 
L 168.448982 -549.627332 
L 168.448982 -562.354866 
L 141.405251 -562.354866 
L 141.405251 -549.627332 
L 114.361519 -549.627332 
L 114.361519 -549.627332 
L 87.317788 -549.627332 
z
" style="stroke: #000000"/>
    </defs>
    <g clip-path="url(#pf15f8d4fce)">
     <use xlink:href="#m38c93c0916" x="0" y="680.422917" style="fill: #800080; fill-opacity: 0.75; stroke: #000000"/>
    </g>
   </g>
   <g id="matplotlib.axis_3">
    <g id="xtick_6">
     <g id="line2d_17">
      <g>
       <use xlink:href="#m810ab7049d" x="158.034305" y="135.038095" style="stroke: #000000; stroke-width: 0.8"/>
      </g>
     </g>
    </g>
    <g id="xtick_7">
     <g id="line2d_18">
      <g>
       <use xlink:href="#m810ab7049d" x="292.306173" y="135.038095" style="stroke: #000000; stroke-width: 0.8"/>
      </g>
     </g>
    </g>
    <g id="xtick_8">
     <g id="line2d_19">
      <g>
       <use xlink:href="#m810ab7049d" x="426.57804" y="135.038095" style="stroke: #000000; stroke-width: 0.8"/>
      </g>
     </g>
    </g>
    <g id="xtick_9">
     <g id="line2d_20">
      <g>
       <use xlink:href="#m810ab7049d" x="560.849908" y="135.038095" style="stroke: #000000; stroke-width: 0.8"/>
      </g>
     </g>
    </g>
    <g id="xtick_10">
     <g id="line2d_21">
      <g>
       <use xlink:href="#m810ab7049d" x="695.121775" y="135.038095" style="stroke: #000000; stroke-width: 0.8"/>
      </g>
     </g>
    </g>
   </g>
   <g id="matplotlib.axis_4">
    <g id="ytick_10"/>
    <g id="ytick_11"/>
    <g id="ytick_12"/>
    <g id="ytick_13"/>
   </g>
   <g id="patch_7">
    <path d="M 52.160938 135.038095 
L 825.611652 135.038095 
" style="fill: none; stroke: #000000; stroke-width: 0.8; stroke-linejoin: miter; stroke-linecap: square"/>
   </g>
  </g>
  <g id="axes_3">
   <g id="patch_8">
    <path d="M 852.282366 642.866667 
L 985.635937 642.866667 
L 985.635937 151.965714 
L 852.282366 151.965714 
z
" style="fill: #ffffff"/>
   </g>
   <g id="PolyCollection_4">
    <defs>
     <path id="m30ce077709" d="M 895.217174 -174.620949 
L 858.343892 -174.620949 
L 858.343892 -174.620949 
L 858.343892 -210.88311 
L 858.343892 -210.88311 
L 858.343892 -247.14527 
L 858.343892 -247.14527 
L 858.343892 -283.407431 
L 858.343892 -283.407431 
L 858.343892 -319.669591 
L 858.343892 -319.669591 
L 858.343892 -355.931752 
L 919.799362 -355.931752 
L 919.799362 -355.931752 
L 919.799362 -319.669591 
L 944.38155 -319.669591 
L 944.38155 -283.407431 
L 944.38155 -283.407431 
L 944.38155 -247.14527 
L 944.38155 -247.14527 
L 944.38155 -210.88311 
L 913.653815 -210.88311 
L 913.653815 -174.620949 
L 895.217174 -174.620949 
z
" style="stroke: #000000; stroke-opacity: 0.5"/>
    </defs>
    <g clip-path="url(#pbb756782d8)">
     <use xlink:href="#m30ce077709" x="0" y="680.422917" style="fill: #4169e1; fill-opacity: 0.5; stroke: #000000; stroke-opacity: 0.5"/>
    </g>
   </g>
   <g id="PolyCollection_5">
    <defs>
     <path id="m4c8320d105" d="M 874.156568 -59.86993 
L 858.343892 -59.86993 
L 858.343892 -59.86993 
L 858.343892 -102.149454 
L 858.343892 -102.149454 
L 858.343892 -144.428978 
L 858.343892 -144.428978 
L 858.343892 -186.708502 
L 858.343892 -186.708502 
L 858.343892 -228.988027 
L 858.343892 -228.988027 
L 858.343892 -271.267551 
L 858.343892 -271.267551 
L 858.343892 -313.547075 
L 911.052814 -313.547075 
L 911.052814 -313.547075 
L 911.052814 -271.267551 
L 979.574412 -271.267551 
L 979.574412 -228.988027 
L 911.052814 -228.988027 
L 911.052814 -186.708502 
L 926.86549 -186.708502 
L 926.86549 -144.428978 
L 895.240137 -144.428978 
L 895.240137 -102.149454 
L 863.614784 -102.149454 
L 863.614784 -59.86993 
L 874.156568 -59.86993 
z
" style="stroke: #000000; stroke-opacity: 0.5"/>
    </defs>
    <g clip-path="url(#pbb756782d8)">
     <use xlink:href="#m4c8320d105" x="0" y="680.422917" style="fill: #ff8c00; fill-opacity: 0.5; stroke: #000000; stroke-opacity: 0.5"/>
    </g>
   </g>
   <g id="matplotlib.axis_5">
    <g id="xtick_11"/>
    <g id="xtick_12"/>
    <g id="xtick_13"/>
   </g>
   <g id="matplotlib.axis_6">
    <g id="ytick_14">
     <g id="line2d_22">
      <g>
       <use xlink:href="#m06ef187fd9" x="852.282366" y="631.954492" style="stroke: #000000; stroke-width: 0.8"/>
      </g>
     </g>
    </g>
    <g id="ytick_15">
     <g id="line2d_23">
      <g>
       <use xlink:href="#m06ef187fd9" x="852.282366" y="575.516103" style="stroke: #000000; stroke-width: 0.8"/>
      </g>
     </g>
    </g>
    <g id="ytick_16">
     <g id="line2d_24">
      <g>
       <use xlink:href="#m06ef187fd9" x="852.282366" y="519.077713" style="stroke: #000000; stroke-width: 0.8"/>
      </g>
     </g>
    </g>
    <g id="ytick_17">
     <g id="line2d_25">
      <g>
       <use xlink:href="#m06ef187fd9" x="852.282366" y="462.639324" style="stroke: #000000; stroke-width: 0.8"/>
      </g>
     </g>
    </g>
    <g id="ytick_18">
     <g id="line2d_26">
      <g>
       <use xlink:href="#m06ef187fd9" x="852.282366" y="406.200934" style="stroke: #000000; stroke-width: 0.8"/>
      </g>
     </g>
    </g>
    <g id="ytick_19">
     <g id="line2d_27">
      <g>
       <use xlink:href="#m06ef187fd9" x="852.282366" y="349.762545" style="stroke: #000000; stroke-width: 0.8"/>
      </g>
     </g>
    </g>
    <g id="ytick_20">
     <g id="line2d_28">
      <g>
       <use xlink:href="#m06ef187fd9" x="852.282366" y="293.324155" style="stroke: #000000; stroke-width: 0.8"/>
      </g>
     </g>
    </g>
    <g id="ytick_21">
     <g id="line2d_29">
      <g>
       <use xlink:href="#m06ef187fd9" x="852.282366" y="236.885766" style="stroke: #000000; stroke-width: 0.8"/>
      </g>
     </g>
    </g>
    <g id="ytick_22">
     <g id="line2d_30">
      <g>
       <use xlink:href="#m06ef187fd9" x="852.282366" y="180.447377" style="stroke: #000000; stroke-width: 0.8"/>
      </g>
     </g>
    </g>
   </g>
   <g id="patch_9">
    <path d="M 852.282366 642.866667 
L 852.282366 151.965714 
" style="fill: none; stroke: #000000; stroke-width: 0.8; stroke-linejoin: miter; stroke-linecap: square"/>
   </g>
  </g>
  <g id="text_19">
   <!-- Archaea - Kendall's Tau correlation coefficients for genetic code: TrM -->
   <g transform="translate(267.68625 16.318125) scale(0.12 -0.12)">
    <defs>
     <path id="DejaVuSans-41" d="M 2188 4044 
L 1331 1722 
L 3047 1722 
L 2188 4044 
z
M 1831 4666 
L 2547 4666 
L 4325 0 
L 3669 0 
L 3244 1197 
L 1141 1197 
L 716 0 
L 50 0 
L 1831 4666 
z
" transform="scale(0.015625)"/>
     <path id="DejaVuSans-2d" d="M 313 2009 
L 1997 2009 
L 1997 1497 
L 313 1497 
L 313 2009 
z
" transform="scale(0.015625)"/>
     <path id="DejaVuSans-4b" d="M 628 4666 
L 1259 4666 
L 1259 2694 
L 3353 4666 
L 4166 4666 
L 1850 2491 
L 4331 0 
L 3500 0 
L 1259 2247 
L 1259 0 
L 628 0 
L 628 4666 
z
" transform="scale(0.015625)"/>
     <path id="DejaVuSans-27" d="M 1147 4666 
L 1147 2931 
L 616 2931 
L 616 4666 
L 1147 4666 
z
" transform="scale(0.015625)"/>
     <path id="DejaVuSans-73" d="M 2834 3397 
L 2834 2853 
Q 2591 2978 2328 3040 
Q 2066 3103 1784 3103 
Q 1356 3103 1142 2972 
Q 928 2841 928 2578 
Q 928 2378 1081 2264 
Q 1234 2150 1697 2047 
L 1894 2003 
Q 2506 1872 2764 1633 
Q 3022 1394 3022 966 
Q 3022 478 2636 193 
Q 2250 -91 1575 -91 
Q 1294 -91 989 -36 
Q 684 19 347 128 
L 347 722 
Q 666 556 975 473 
Q 1284 391 1588 391 
Q 1994 391 2212 530 
Q 2431 669 2431 922 
Q 2431 1156 2273 1281 
Q 2116 1406 1581 1522 
L 1381 1569 
Q 847 1681 609 1914 
Q 372 2147 372 2553 
Q 372 3047 722 3315 
Q 1072 3584 1716 3584 
Q 2034 3584 2315 3537 
Q 2597 3491 2834 3397 
z
" transform="scale(0.015625)"/>
     <path id="DejaVuSans-54" d="M -19 4666 
L 3928 4666 
L 3928 4134 
L 2272 4134 
L 2272 0 
L 1638 0 
L 1638 4134 
L -19 4134 
L -19 4666 
z
" transform="scale(0.015625)"/>
     <path id="DejaVuSans-3a" d="M 750 794 
L 1409 794 
L 1409 0 
L 750 0 
L 750 794 
z
M 750 3309 
L 1409 3309 
L 1409 2516 
L 750 2516 
L 750 3309 
z
" transform="scale(0.015625)"/>
     <path id="DejaVuSans-4d" d="M 628 4666 
L 1569 4666 
L 2759 1491 
L 3956 4666 
L 4897 4666 
L 4897 0 
L 4281 0 
L 4281 4097 
L 3078 897 
L 2444 897 
L 1241 4097 
L 1241 0 
L 628 0 
L 628 4666 
z
" transform="scale(0.015625)"/>
    </defs>
    <use xlink:href="#DejaVuSans-41"/>
    <use xlink:href="#DejaVuSans-72" x="68.408203"/>
    <use xlink:href="#DejaVuSans-63" x="107.271484"/>
    <use xlink:href="#DejaVuSans-68" x="162.251953"/>
    <use xlink:href="#DejaVuSans-61" x="225.630859"/>
    <use xlink:href="#DejaVuSans-65" x="286.910156"/>
    <use xlink:href="#DejaVuSans-61" x="348.433594"/>
    <use xlink:href="#DejaVuSans-20" x="409.712891"/>
    <use xlink:href="#DejaVuSans-2d" x="441.5"/>
    <use xlink:href="#DejaVuSans-20" x="477.583984"/>
    <use xlink:href="#DejaVuSans-4b" x="509.371094"/>
    <use xlink:href="#DejaVuSans-65" x="569.947266"/>
    <use xlink:href="#DejaVuSans-6e" x="631.470703"/>
    <use xlink:href="#DejaVuSans-64" x="694.849609"/>
    <use xlink:href="#DejaVuSans-61" x="758.326172"/>
    <use xlink:href="#DejaVuSans-6c" x="819.605469"/>
    <use xlink:href="#DejaVuSans-6c" x="847.388672"/>
    <use xlink:href="#DejaVuSans-27" x="875.171875"/>
    <use xlink:href="#DejaVuSans-73" x="902.662109"/>
    <use xlink:href="#DejaVuSans-20" x="954.761719"/>
    <use xlink:href="#DejaVuSans-54" x="986.548828"/>
    <use xlink:href="#DejaVuSans-61" x="1031.132812"/>
    <use xlink:href="#DejaVuSans-75" x="1092.412109"/>
    <use xlink:href="#DejaVuSans-20" x="1155.791016"/>
    <use xlink:href="#DejaVuSans-63" x="1187.578125"/>
    <use xlink:href="#DejaVuSans-6f" x="1242.558594"/>
    <use xlink:href="#DejaVuSans-72" x="1303.740234"/>
    <use xlink:href="#DejaVuSans-72" x="1343.103516"/>
    <use xlink:href="#DejaVuSans-65" x="1381.966797"/>
    <use xlink:href="#DejaVuSans-6c" x="1443.490234"/>
    <use xlink:href="#DejaVuSans-61" x="1471.273438"/>
    <use xlink:href="#DejaVuSans-74" x="1532.552734"/>
    <use xlink:href="#DejaVuSans-69" x="1571.761719"/>
    <use xlink:href="#DejaVuSans-6f" x="1599.544922"/>
    <use xlink:href="#DejaVuSans-6e" x="1660.726562"/>
    <use xlink:href="#DejaVuSans-20" x="1724.105469"/>
    <use xlink:href="#DejaVuSans-63" x="1755.892578"/>
    <use xlink:href="#DejaVuSans-6f" x="1810.873047"/>
    <use xlink:href="#DejaVuSans-65" x="1872.054688"/>
    <use xlink:href="#DejaVuSans-66" x="1933.578125"/>
    <use xlink:href="#DejaVuSans-66" x="1968.783203"/>
    <use xlink:href="#DejaVuSans-69" x="2003.988281"/>
    <use xlink:href="#DejaVuSans-63" x="2031.771484"/>
    <use xlink:href="#DejaVuSans-69" x="2086.751953"/>
    <use xlink:href="#DejaVuSans-65" x="2114.535156"/>
    <use xlink:href="#DejaVuSans-6e" x="2176.058594"/>
    <use xlink:href="#DejaVuSans-74" x="2239.4375"/>
    <use xlink:href="#DejaVuSans-73" x="2278.646484"/>
    <use xlink:href="#DejaVuSans-20" x="2330.746094"/>
    <use xlink:href="#DejaVuSans-66" x="2362.533203"/>
    <use xlink:href="#DejaVuSans-6f" x="2397.738281"/>
    <use xlink:href="#DejaVuSans-72" x="2458.919922"/>
    <use xlink:href="#DejaVuSans-20" x="2500.033203"/>
    <use xlink:href="#DejaVuSans-67" x="2531.820312"/>
    <use xlink:href="#DejaVuSans-65" x="2595.296875"/>
    <use xlink:href="#DejaVuSans-6e" x="2656.820312"/>
    <use xlink:href="#DejaVuSans-65" x="2720.199219"/>
    <use xlink:href="#DejaVuSans-74" x="2781.722656"/>
    <use xlink:href="#DejaVuSans-69" x="2820.931641"/>
    <use xlink:href="#DejaVuSans-63" x="2848.714844"/>
    <use xlink:href="#DejaVuSans-20" x="2903.695312"/>
    <use xlink:href="#DejaVuSans-63" x="2935.482422"/>
    <use xlink:href="#DejaVuSans-6f" x="2990.462891"/>
    <use xlink:href="#DejaVuSans-64" x="3051.644531"/>
    <use xlink:href="#DejaVuSans-65" x="3115.121094"/>
    <use xlink:href="#DejaVuSans-3a" x="3176.644531"/>
    <use xlink:href="#DejaVuSans-20" x="3210.335938"/>
    <use xlink:href="#DejaVuSans-54" x="3242.123047"/>
    <use xlink:href="#DejaVuSans-72" x="3288.457031"/>
    <use xlink:href="#DejaVuSans-4d" x="3329.570312"/>
   </g>
  </g>
 </g>
 <defs>
  <clipPath id="p84ca653db0">
   <rect x="52.160938" y="151.965714" width="773.450714" height="490.900952"/>
  </clipPath>
  <clipPath id="pf15f8d4fce">
   <rect x="52.160938" y="50.4" width="773.450714" height="84.638095"/>
  </clipPath>
  <clipPath id="pbb756782d8">
   <rect x="852.282366" y="151.965714" width="133.353571" height="490.900952"/>
  </clipPath>
 </defs>
</svg>
