<?xml version="1.0" encoding="utf-8" standalone="no"?>
<!DOCTYPE svg PUBLIC "-//W3C//DTD SVG 1.1//EN"
  "http://www.w3.org/Graphics/SVG/1.1/DTD/svg11.dtd">
<svg xmlns:xlink="http://www.w3.org/1999/xlink" width="992.835937pt" height="680.422917pt" viewBox="0 0 992.835937 680.422917" xmlns="http://www.w3.org/2000/svg" version="1.1">
 <metadata>
  <rdf:RDF xmlns:dc="http://purl.org/dc/elements/1.1/" xmlns:cc="http://creativecommons.org/ns#" xmlns:rdf="http://www.w3.org/1999/02/22-rdf-syntax-ns#">
   <cc:Work>
    <dc:type rdf:resource="http://purl.org/dc/dcmitype/StillImage"/>
    <dc:date>2025-01-27T13:12:15.937041</dc:date>
    <dc:format>image/svg+xml</dc:format>
    <dc:creator>
     <cc:Agent>
      <dc:title>Matplotlib v3.6.3, https://matplotlib.org/</dc:title>
     </cc:Agent>
    </dc:creator>
   </cc:Work>
  </rdf:RDF>
 </metadata>
 <defs>
  <style type="text/css">*{stroke-linejoin: round; stroke-linecap: butt}</style>
 </defs>
 <g id="figure_1">
  <g id="patch_1">
   <path d="M 0 680.422917 
L 992.835937 680.422917 
L 992.835937 0 
L 0 0 
z
" style="fill: #ffffff"/>
  </g>
  <g id="axes_1">
   <g id="patch_2">
    <path d="M 52.160938 642.866667 
L 825.611652 642.866667 
L 825.611652 151.965714 
L 52.160938 151.965714 
z
" style="fill: #ffffff"/>
   </g>
   <g id="PathCollection_1">
    <defs>
     <path id="m007faae305" d="M 0 3 
C 0.795609 3 1.55874 2.683901 2.12132 2.12132 
C 2.683901 1.55874 3 0.795609 3 0 
C 3 -0.795609 2.683901 -1.55874 2.12132 -2.12132 
C 1.55874 -2.683901 0.795609 -3 0 -3 
C -0.795609 -3 -1.55874 -2.683901 -2.12132 -2.12132 
C -2.683901 -1.55874 -3 -0.795609 -3 0 
C -3 0.795609 -2.683901 1.55874 -2.12132 2.12132 
C -1.55874 2.683901 -0.795609 3 0 3 
z
" style="stroke: #000000; stroke-opacity: 0.5"/>
    </defs>
    <g clip-path="url(#pac7b2d1c18)">
     <use xlink:href="#m007faae305" x="238.961553" y="448.817582" style="fill: #4169e1; fill-opacity: 0.5; stroke: #000000; stroke-opacity: 0.5"/>
     <use xlink:href="#m007faae305" x="259.151678" y="345.498757" style="fill: #4169e1; fill-opacity: 0.5; stroke: #000000; stroke-opacity: 0.5"/>
     <use xlink:href="#m007faae305" x="268.172112" y="360.258589" style="fill: #4169e1; fill-opacity: 0.5; stroke: #000000; stroke-opacity: 0.5"/>
     <use xlink:href="#m007faae305" x="267.819604" y="419.297918" style="fill: #4169e1; fill-opacity: 0.5; stroke: #000000; stroke-opacity: 0.5"/>
     <use xlink:href="#m007faae305" x="292.210264" y="360.258589" style="fill: #4169e1; fill-opacity: 0.5; stroke: #000000; stroke-opacity: 0.5"/>
     <use xlink:href="#m007faae305" x="220.470723" y="397.15817" style="fill: #4169e1; fill-opacity: 0.5; stroke: #000000; stroke-opacity: 0.5"/>
     <use xlink:href="#m007faae305" x="301.641919" y="411.918002" style="fill: #4169e1; fill-opacity: 0.5; stroke: #000000; stroke-opacity: 0.5"/>
     <use xlink:href="#m007faae305" x="275.812185" y="375.018421" style="fill: #4169e1; fill-opacity: 0.5; stroke: #000000; stroke-opacity: 0.5"/>
     <use xlink:href="#m007faae305" x="501.098927" y="293.839345" style="fill: #4169e1; fill-opacity: 0.5; stroke: #000000; stroke-opacity: 0.5"/>
     <use xlink:href="#m007faae305" x="144.607118" y="502.642661" style="fill: #4169e1; fill-opacity: 0.5; stroke: #000000; stroke-opacity: 0.5"/>
     <use xlink:href="#m007faae305" x="188.916835" y="444.786412" style="fill: #4169e1; fill-opacity: 0.5; stroke: #000000; stroke-opacity: 0.5"/>
     <use xlink:href="#m007faae305" x="313.877181" y="315.979093" style="fill: #4169e1; fill-opacity: 0.5; stroke: #000000; stroke-opacity: 0.5"/>
     <use xlink:href="#m007faae305" x="231.883832" y="406.534508" style="fill: #4169e1; fill-opacity: 0.5; stroke: #000000; stroke-opacity: 0.5"/>
     <use xlink:href="#m007faae305" x="254.697262" y="485.717162" style="fill: #4169e1; fill-opacity: 0.5; stroke: #000000; stroke-opacity: 0.5"/>
     <use xlink:href="#m007faae305" x="294.607976" y="441.437666" style="fill: #4169e1; fill-opacity: 0.5; stroke: #000000; stroke-opacity: 0.5"/>
     <use xlink:href="#m007faae305" x="256.656992" y="315.979093" style="fill: #4169e1; fill-opacity: 0.5; stroke: #000000; stroke-opacity: 0.5"/>
     <use xlink:href="#m007faae305" x="240.69473" y="434.05775" style="fill: #4169e1; fill-opacity: 0.5; stroke: #000000; stroke-opacity: 0.5"/>
     <use xlink:href="#m007faae305" x="356.094765" y="352.878673" style="fill: #4169e1; fill-opacity: 0.5; stroke: #000000; stroke-opacity: 0.5"/>
     <use xlink:href="#m007faae305" x="238.000662" y="389.778253" style="fill: #4169e1; fill-opacity: 0.5; stroke: #000000; stroke-opacity: 0.5"/>
     <use xlink:href="#m007faae305" x="270.101598" y="493.097078" style="fill: #4169e1; fill-opacity: 0.5; stroke: #000000; stroke-opacity: 0.5"/>
     <use xlink:href="#m007faae305" x="300.810058" y="338.118841" style="fill: #4169e1; fill-opacity: 0.5; stroke: #000000; stroke-opacity: 0.5"/>
     <use xlink:href="#m007faae305" x="272.065002" y="315.979093" style="fill: #4169e1; fill-opacity: 0.5; stroke: #000000; stroke-opacity: 0.5"/>
     <use xlink:href="#m007faae305" x="260.741627" y="375.018421" style="fill: #4169e1; fill-opacity: 0.5; stroke: #000000; stroke-opacity: 0.5"/>
     <use xlink:href="#m007faae305" x="275.745976" y="448.817582" style="fill: #4169e1; fill-opacity: 0.5; stroke: #000000; stroke-opacity: 0.5"/>
     <use xlink:href="#m007faae305" x="451.418336" y="279.079513" style="fill: #4169e1; fill-opacity: 0.5; stroke: #000000; stroke-opacity: 0.5"/>
     <use xlink:href="#m007faae305" x="280.925445" y="352.878673" style="fill: #4169e1; fill-opacity: 0.5; stroke: #000000; stroke-opacity: 0.5"/>
     <use xlink:href="#m007faae305" x="291.202615" y="375.018421" style="fill: #4169e1; fill-opacity: 0.5; stroke: #000000; stroke-opacity: 0.5"/>
     <use xlink:href="#m007faae305" x="143.2644" y="354.829263" style="fill: #4169e1; fill-opacity: 0.5; stroke: #000000; stroke-opacity: 0.5"/>
     <use xlink:href="#m007faae305" x="347.357638" y="382.398337" style="fill: #4169e1; fill-opacity: 0.5; stroke: #000000; stroke-opacity: 0.5"/>
     <use xlink:href="#m007faae305" x="260.680863" y="338.118841" style="fill: #4169e1; fill-opacity: 0.5; stroke: #000000; stroke-opacity: 0.5"/>
     <use xlink:href="#m007faae305" x="790.454801" y="336.866009" style="fill: #4169e1; fill-opacity: 0.5; stroke: #000000; stroke-opacity: 0.5"/>
     <use xlink:href="#m007faae305" x="87.317788" y="352.878673" style="fill: #4169e1; fill-opacity: 0.5; stroke: #000000; stroke-opacity: 0.5"/>
     <use xlink:href="#m007faae305" x="280.834173" y="338.118841" style="fill: #4169e1; fill-opacity: 0.5; stroke: #000000; stroke-opacity: 0.5"/>
     <use xlink:href="#m007faae305" x="295.002224" y="448.817582" style="fill: #4169e1; fill-opacity: 0.5; stroke: #000000; stroke-opacity: 0.5"/>
     <use xlink:href="#m007faae305" x="271.567809" y="367.638505" style="fill: #4169e1; fill-opacity: 0.5; stroke: #000000; stroke-opacity: 0.5"/>
     <use xlink:href="#m007faae305" x="312.80276" y="338.118841" style="fill: #4169e1; fill-opacity: 0.5; stroke: #000000; stroke-opacity: 0.5"/>
     <use xlink:href="#m007faae305" x="248.667816" y="411.918002" style="fill: #4169e1; fill-opacity: 0.5; stroke: #000000; stroke-opacity: 0.5"/>
     <use xlink:href="#m007faae305" x="314.065303" y="360.258589" style="fill: #4169e1; fill-opacity: 0.5; stroke: #000000; stroke-opacity: 0.5"/>
     <use xlink:href="#m007faae305" x="296.660735" y="308.599177" style="fill: #4169e1; fill-opacity: 0.5; stroke: #000000; stroke-opacity: 0.5"/>
     <use xlink:href="#m007faae305" x="141.921681" y="387.301661" style="fill: #4169e1; fill-opacity: 0.5; stroke: #000000; stroke-opacity: 0.5"/>
     <use xlink:href="#m007faae305" x="207.849168" y="315.979093" style="fill: #4169e1; fill-opacity: 0.5; stroke: #000000; stroke-opacity: 0.5"/>
     <use xlink:href="#m007faae305" x="210.961858" y="404.538086" style="fill: #4169e1; fill-opacity: 0.5; stroke: #000000; stroke-opacity: 0.5"/>
     <use xlink:href="#m007faae305" x="285.085489" y="308.599177" style="fill: #4169e1; fill-opacity: 0.5; stroke: #000000; stroke-opacity: 0.5"/>
     <use xlink:href="#m007faae305" x="282.23402" y="426.677834" style="fill: #4169e1; fill-opacity: 0.5; stroke: #000000; stroke-opacity: 0.5"/>
     <use xlink:href="#m007faae305" x="386.967839" y="411.918002" style="fill: #4169e1; fill-opacity: 0.5; stroke: #000000; stroke-opacity: 0.5"/>
     <use xlink:href="#m007faae305" x="294.779115" y="397.15817" style="fill: #4169e1; fill-opacity: 0.5; stroke: #000000; stroke-opacity: 0.5"/>
     <use xlink:href="#m007faae305" x="290.292095" y="330.095497" style="fill: #4169e1; fill-opacity: 0.5; stroke: #000000; stroke-opacity: 0.5"/>
     <use xlink:href="#m007faae305" x="329.047838" y="404.538086" style="fill: #4169e1; fill-opacity: 0.5; stroke: #000000; stroke-opacity: 0.5"/>
     <use xlink:href="#m007faae305" x="254.603021" y="367.638505" style="fill: #4169e1; fill-opacity: 0.5; stroke: #000000; stroke-opacity: 0.5"/>
     <use xlink:href="#m007faae305" x="241.991226" y="352.878673" style="fill: #4169e1; fill-opacity: 0.5; stroke: #000000; stroke-opacity: 0.5"/>
     <use xlink:href="#m007faae305" x="350.297848" y="323.359009" style="fill: #4169e1; fill-opacity: 0.5; stroke: #000000; stroke-opacity: 0.5"/>
     <use xlink:href="#m007faae305" x="294.657765" y="389.778253" style="fill: #4169e1; fill-opacity: 0.5; stroke: #000000; stroke-opacity: 0.5"/>
     <use xlink:href="#m007faae305" x="338.853753" y="448.817582" style="fill: #4169e1; fill-opacity: 0.5; stroke: #000000; stroke-opacity: 0.5"/>
     <use xlink:href="#m007faae305" x="146.621196" y="478.337246" style="fill: #4169e1; fill-opacity: 0.5; stroke: #000000; stroke-opacity: 0.5"/>
     <use xlink:href="#m007faae305" x="140.914642" y="463.577414" style="fill: #4169e1; fill-opacity: 0.5; stroke: #000000; stroke-opacity: 0.5"/>
     <use xlink:href="#m007faae305" x="351.385794" y="382.398337" style="fill: #4169e1; fill-opacity: 0.5; stroke: #000000; stroke-opacity: 0.5"/>
     <use xlink:href="#m007faae305" x="279.907194" y="448.817582" style="fill: #4169e1; fill-opacity: 0.5; stroke: #000000; stroke-opacity: 0.5"/>
     <use xlink:href="#m007faae305" x="301.705203" y="405.082062" style="fill: #4169e1; fill-opacity: 0.5; stroke: #000000; stroke-opacity: 0.5"/>
     <use xlink:href="#m007faae305" x="310.611386" y="404.538086" style="fill: #4169e1; fill-opacity: 0.5; stroke: #000000; stroke-opacity: 0.5"/>
     <use xlink:href="#m007faae305" x="307.915277" y="323.359009" style="fill: #4169e1; fill-opacity: 0.5; stroke: #000000; stroke-opacity: 0.5"/>
     <use xlink:href="#m007faae305" x="241.854075" y="397.15817" style="fill: #4169e1; fill-opacity: 0.5; stroke: #000000; stroke-opacity: 0.5"/>
     <use xlink:href="#m007faae305" x="304.390641" y="408.388064" style="fill: #4169e1; fill-opacity: 0.5; stroke: #000000; stroke-opacity: 0.5"/>
     <use xlink:href="#m007faae305" x="226.96053" y="293.839345" style="fill: #4169e1; fill-opacity: 0.5; stroke: #000000; stroke-opacity: 0.5"/>
     <use xlink:href="#m007faae305" x="287.702566" y="338.118841" style="fill: #4169e1; fill-opacity: 0.5; stroke: #000000; stroke-opacity: 0.5"/>
     <use xlink:href="#m007faae305" x="296.030546" y="308.599177" style="fill: #4169e1; fill-opacity: 0.5; stroke: #000000; stroke-opacity: 0.5"/>
     <use xlink:href="#m007faae305" x="260.080924" y="487.561925" style="fill: #4169e1; fill-opacity: 0.5; stroke: #000000; stroke-opacity: 0.5"/>
     <use xlink:href="#m007faae305" x="299.019766" y="479.761544" style="fill: #4169e1; fill-opacity: 0.5; stroke: #000000; stroke-opacity: 0.5"/>
    </g>
   </g>
   <g id="PathCollection_2">
    <defs>
     <path id="m6c304054de" d="M 0 3 
C 0.795609 3 1.55874 2.683901 2.12132 2.12132 
C 2.683901 1.55874 3 0.795609 3 0 
C 3 -0.795609 2.683901 -1.55874 2.12132 -2.12132 
C 1.55874 -2.683901 0.795609 -3 0 -3 
C -0.795609 -3 -1.55874 -2.683901 -2.12132 -2.12132 
C -2.683901 -1.55874 -3 -0.795609 -3 0 
C -3 0.795609 -2.683901 1.55874 -2.12132 2.12132 
C -1.55874 2.683901 -0.795609 3 0 3 
z
" style="stroke: #000000; stroke-opacity: 0.5"/>
    </defs>
    <g clip-path="url(#pac7b2d1c18)">
     <use xlink:href="#m6c304054de" x="238.961553" y="514.777369" style="fill: #ff8c00; fill-opacity: 0.5; stroke: #000000; stroke-opacity: 0.5"/>
     <use xlink:href="#m6c304054de" x="259.151678" y="395.779799" style="fill: #ff8c00; fill-opacity: 0.5; stroke: #000000; stroke-opacity: 0.5"/>
     <use xlink:href="#m6c304054de" x="268.172112" y="402.390775" style="fill: #ff8c00; fill-opacity: 0.5; stroke: #000000; stroke-opacity: 0.5"/>
     <use xlink:href="#m6c304054de" x="267.819604" y="468.500536" style="fill: #ff8c00; fill-opacity: 0.5; stroke: #000000; stroke-opacity: 0.5"/>
     <use xlink:href="#m6c304054de" x="292.210264" y="382.557846" style="fill: #ff8c00; fill-opacity: 0.5; stroke: #000000; stroke-opacity: 0.5"/>
     <use xlink:href="#m6c304054de" x="220.470723" y="415.612727" style="fill: #ff8c00; fill-opacity: 0.5; stroke: #000000; stroke-opacity: 0.5"/>
     <use xlink:href="#m6c304054de" x="301.641919" y="442.056632" style="fill: #ff8c00; fill-opacity: 0.5; stroke: #000000; stroke-opacity: 0.5"/>
     <use xlink:href="#m6c304054de" x="275.812185" y="356.113942" style="fill: #ff8c00; fill-opacity: 0.5; stroke: #000000; stroke-opacity: 0.5"/>
     <use xlink:href="#m6c304054de" x="501.098927" y="375.94687" style="fill: #ff8c00; fill-opacity: 0.5; stroke: #000000; stroke-opacity: 0.5"/>
     <use xlink:href="#m6c304054de" x="144.607118" y="449.314023" style="fill: #ff8c00; fill-opacity: 0.5; stroke: #000000; stroke-opacity: 0.5"/>
     <use xlink:href="#m6c304054de" x="188.916835" y="498.049066" style="fill: #ff8c00; fill-opacity: 0.5; stroke: #000000; stroke-opacity: 0.5"/>
     <use xlink:href="#m6c304054de" x="313.877181" y="336.281013" style="fill: #ff8c00; fill-opacity: 0.5; stroke: #000000; stroke-opacity: 0.5"/>
     <use xlink:href="#m6c304054de" x="231.883832" y="458.16303" style="fill: #ff8c00; fill-opacity: 0.5; stroke: #000000; stroke-opacity: 0.5"/>
     <use xlink:href="#m6c304054de" x="254.697262" y="620.552987" style="fill: #ff8c00; fill-opacity: 0.5; stroke: #000000; stroke-opacity: 0.5"/>
     <use xlink:href="#m6c304054de" x="294.607976" y="521.388345" style="fill: #ff8c00; fill-opacity: 0.5; stroke: #000000; stroke-opacity: 0.5"/>
     <use xlink:href="#m6c304054de" x="256.656992" y="369.335894" style="fill: #ff8c00; fill-opacity: 0.5; stroke: #000000; stroke-opacity: 0.5"/>
     <use xlink:href="#m6c304054de" x="240.69473" y="501.555417" style="fill: #ff8c00; fill-opacity: 0.5; stroke: #000000; stroke-opacity: 0.5"/>
     <use xlink:href="#m6c304054de" x="356.094765" y="369.335894" style="fill: #ff8c00; fill-opacity: 0.5; stroke: #000000; stroke-opacity: 0.5"/>
     <use xlink:href="#m6c304054de" x="238.000662" y="382.557846" style="fill: #ff8c00; fill-opacity: 0.5; stroke: #000000; stroke-opacity: 0.5"/>
     <use xlink:href="#m6c304054de" x="270.101598" y="521.388345" style="fill: #ff8c00; fill-opacity: 0.5; stroke: #000000; stroke-opacity: 0.5"/>
     <use xlink:href="#m6c304054de" x="300.810058" y="323.059061" style="fill: #ff8c00; fill-opacity: 0.5; stroke: #000000; stroke-opacity: 0.5"/>
     <use xlink:href="#m6c304054de" x="272.065002" y="329.670037" style="fill: #ff8c00; fill-opacity: 0.5; stroke: #000000; stroke-opacity: 0.5"/>
     <use xlink:href="#m6c304054de" x="260.741627" y="428.834679" style="fill: #ff8c00; fill-opacity: 0.5; stroke: #000000; stroke-opacity: 0.5"/>
     <use xlink:href="#m6c304054de" x="275.745976" y="461.88956" style="fill: #ff8c00; fill-opacity: 0.5; stroke: #000000; stroke-opacity: 0.5"/>
     <use xlink:href="#m6c304054de" x="451.418336" y="336.281013" style="fill: #ff8c00; fill-opacity: 0.5; stroke: #000000; stroke-opacity: 0.5"/>
     <use xlink:href="#m6c304054de" x="280.925445" y="409.001751" style="fill: #ff8c00; fill-opacity: 0.5; stroke: #000000; stroke-opacity: 0.5"/>
     <use xlink:href="#m6c304054de" x="291.202615" y="461.88956" style="fill: #ff8c00; fill-opacity: 0.5; stroke: #000000; stroke-opacity: 0.5"/>
     <use xlink:href="#m6c304054de" x="143.2644" y="424.340781" style="fill: #ff8c00; fill-opacity: 0.5; stroke: #000000; stroke-opacity: 0.5"/>
     <use xlink:href="#m6c304054de" x="347.357638" y="395.779799" style="fill: #ff8c00; fill-opacity: 0.5; stroke: #000000; stroke-opacity: 0.5"/>
     <use xlink:href="#m6c304054de" x="260.680863" y="389.168823" style="fill: #ff8c00; fill-opacity: 0.5; stroke: #000000; stroke-opacity: 0.5"/>
     <use xlink:href="#m6c304054de" x="790.454801" y="371.571694" style="fill: #ff8c00; fill-opacity: 0.5; stroke: #000000; stroke-opacity: 0.5"/>
     <use xlink:href="#m6c304054de" x="87.317788" y="356.113942" style="fill: #ff8c00; fill-opacity: 0.5; stroke: #000000; stroke-opacity: 0.5"/>
     <use xlink:href="#m6c304054de" x="280.834173" y="395.779799" style="fill: #ff8c00; fill-opacity: 0.5; stroke: #000000; stroke-opacity: 0.5"/>
     <use xlink:href="#m6c304054de" x="295.002224" y="468.500536" style="fill: #ff8c00; fill-opacity: 0.5; stroke: #000000; stroke-opacity: 0.5"/>
     <use xlink:href="#m6c304054de" x="271.567809" y="415.612727" style="fill: #ff8c00; fill-opacity: 0.5; stroke: #000000; stroke-opacity: 0.5"/>
     <use xlink:href="#m6c304054de" x="312.80276" y="336.281013" style="fill: #ff8c00; fill-opacity: 0.5; stroke: #000000; stroke-opacity: 0.5"/>
     <use xlink:href="#m6c304054de" x="248.667816" y="428.834679" style="fill: #ff8c00; fill-opacity: 0.5; stroke: #000000; stroke-opacity: 0.5"/>
     <use xlink:href="#m6c304054de" x="314.065303" y="382.557846" style="fill: #ff8c00; fill-opacity: 0.5; stroke: #000000; stroke-opacity: 0.5"/>
     <use xlink:href="#m6c304054de" x="296.660735" y="362.724918" style="fill: #ff8c00; fill-opacity: 0.5; stroke: #000000; stroke-opacity: 0.5"/>
     <use xlink:href="#m6c304054de" x="141.921681" y="467.080666" style="fill: #ff8c00; fill-opacity: 0.5; stroke: #000000; stroke-opacity: 0.5"/>
     <use xlink:href="#m6c304054de" x="207.849168" y="362.724918" style="fill: #ff8c00; fill-opacity: 0.5; stroke: #000000; stroke-opacity: 0.5"/>
     <use xlink:href="#m6c304054de" x="210.961858" y="382.557846" style="fill: #ff8c00; fill-opacity: 0.5; stroke: #000000; stroke-opacity: 0.5"/>
     <use xlink:href="#m6c304054de" x="285.085489" y="369.335894" style="fill: #ff8c00; fill-opacity: 0.5; stroke: #000000; stroke-opacity: 0.5"/>
     <use xlink:href="#m6c304054de" x="282.23402" y="580.88713" style="fill: #ff8c00; fill-opacity: 0.5; stroke: #000000; stroke-opacity: 0.5"/>
     <use xlink:href="#m6c304054de" x="386.967839" y="448.667608" style="fill: #ff8c00; fill-opacity: 0.5; stroke: #000000; stroke-opacity: 0.5"/>
     <use xlink:href="#m6c304054de" x="294.779115" y="448.667608" style="fill: #ff8c00; fill-opacity: 0.5; stroke: #000000; stroke-opacity: 0.5"/>
     <use xlink:href="#m6c304054de" x="290.292095" y="338.966449" style="fill: #ff8c00; fill-opacity: 0.5; stroke: #000000; stroke-opacity: 0.5"/>
     <use xlink:href="#m6c304054de" x="329.047838" y="415.612727" style="fill: #ff8c00; fill-opacity: 0.5; stroke: #000000; stroke-opacity: 0.5"/>
     <use xlink:href="#m6c304054de" x="254.603021" y="382.557846" style="fill: #ff8c00; fill-opacity: 0.5; stroke: #000000; stroke-opacity: 0.5"/>
     <use xlink:href="#m6c304054de" x="241.991226" y="402.390775" style="fill: #ff8c00; fill-opacity: 0.5; stroke: #000000; stroke-opacity: 0.5"/>
     <use xlink:href="#m6c304054de" x="350.297848" y="369.335894" style="fill: #ff8c00; fill-opacity: 0.5; stroke: #000000; stroke-opacity: 0.5"/>
     <use xlink:href="#m6c304054de" x="294.657765" y="435.445655" style="fill: #ff8c00; fill-opacity: 0.5; stroke: #000000; stroke-opacity: 0.5"/>
     <use xlink:href="#m6c304054de" x="338.853753" y="574.276154" style="fill: #ff8c00; fill-opacity: 0.5; stroke: #000000; stroke-opacity: 0.5"/>
     <use xlink:href="#m6c304054de" x="146.621196" y="468.500536" style="fill: #ff8c00; fill-opacity: 0.5; stroke: #000000; stroke-opacity: 0.5"/>
     <use xlink:href="#m6c304054de" x="140.914642" y="455.278584" style="fill: #ff8c00; fill-opacity: 0.5; stroke: #000000; stroke-opacity: 0.5"/>
     <use xlink:href="#m6c304054de" x="351.385794" y="375.94687" style="fill: #ff8c00; fill-opacity: 0.5; stroke: #000000; stroke-opacity: 0.5"/>
     <use xlink:href="#m6c304054de" x="279.907194" y="580.88713" style="fill: #ff8c00; fill-opacity: 0.5; stroke: #000000; stroke-opacity: 0.5"/>
     <use xlink:href="#m6c304054de" x="301.705203" y="506.913864" style="fill: #ff8c00; fill-opacity: 0.5; stroke: #000000; stroke-opacity: 0.5"/>
     <use xlink:href="#m6c304054de" x="310.611386" y="382.557846" style="fill: #ff8c00; fill-opacity: 0.5; stroke: #000000; stroke-opacity: 0.5"/>
     <use xlink:href="#m6c304054de" x="307.915277" y="369.335894" style="fill: #ff8c00; fill-opacity: 0.5; stroke: #000000; stroke-opacity: 0.5"/>
     <use xlink:href="#m6c304054de" x="241.854075" y="448.667608" style="fill: #ff8c00; fill-opacity: 0.5; stroke: #000000; stroke-opacity: 0.5"/>
     <use xlink:href="#m6c304054de" x="304.390641" y="456.068733" style="fill: #ff8c00; fill-opacity: 0.5; stroke: #000000; stroke-opacity: 0.5"/>
     <use xlink:href="#m6c304054de" x="226.96053" y="329.670037" style="fill: #ff8c00; fill-opacity: 0.5; stroke: #000000; stroke-opacity: 0.5"/>
     <use xlink:href="#m6c304054de" x="287.702566" y="382.557846" style="fill: #ff8c00; fill-opacity: 0.5; stroke: #000000; stroke-opacity: 0.5"/>
     <use xlink:href="#m6c304054de" x="296.030546" y="316.448085" style="fill: #ff8c00; fill-opacity: 0.5; stroke: #000000; stroke-opacity: 0.5"/>
     <use xlink:href="#m6c304054de" x="260.080924" y="530.37054" style="fill: #ff8c00; fill-opacity: 0.5; stroke: #000000; stroke-opacity: 0.5"/>
     <use xlink:href="#m6c304054de" x="299.019766" y="421.875925" style="fill: #ff8c00; fill-opacity: 0.5; stroke: #000000; stroke-opacity: 0.5"/>
    </g>
   </g>
   <g id="PolyCollection_1">
    <path d="M 87.317788 391.858698 
L 87.317788 467.213839 
L 94.420182 464.078694 
L 101.522576 461.360959 
L 108.62497 458.282133 
L 115.727364 455.363965 
L 122.829759 452.378947 
L 129.932153 449.465464 
L 137.034547 446.551981 
L 144.136941 443.681874 
L 151.239335 440.825769 
L 158.341729 437.982135 
L 165.444123 435.257169 
L 172.546517 432.298916 
L 179.648911 429.456047 
L 186.751305 427.004207 
L 193.853699 424.007229 
L 200.956093 421.48081 
L 208.058487 418.763785 
L 215.160881 416.123614 
L 222.263275 414.000946 
L 229.36567 411.694744 
L 236.468064 409.285775 
L 243.570458 407.096055 
L 250.672852 404.647112 
L 257.775246 402.439536 
L 264.87764 400.83566 
L 271.980034 398.978067 
L 279.082428 397.588482 
L 286.184822 395.803238 
L 293.287216 394.506167 
L 300.38961 393.288419 
L 307.492004 391.986782 
L 314.594398 390.837741 
L 321.696792 389.666085 
L 328.799187 388.765974 
L 335.901581 387.822367 
L 343.003975 386.973736 
L 350.106369 386.612293 
L 357.208763 385.730252 
L 364.311157 384.44971 
L 371.413551 383.539312 
L 378.515945 382.528169 
L 385.618339 381.934248 
L 392.720733 381.300618 
L 399.823127 380.553525 
L 406.925521 379.681663 
L 414.027915 378.823158 
L 421.130309 378.123187 
L 428.232704 377.425748 
L 435.335098 376.734396 
L 442.437492 376.043044 
L 449.539886 375.351693 
L 456.64228 374.65464 
L 463.744674 373.961045 
L 470.847068 373.268795 
L 477.949462 372.502806 
L 485.051856 371.796753 
L 492.15425 371.045681 
L 499.256644 370.365452 
L 506.359038 369.685814 
L 513.461432 369.005881 
L 520.563826 368.419141 
L 527.666221 367.73437 
L 534.768615 367.11247 
L 541.871009 366.56495 
L 548.973403 366.101848 
L 556.075797 365.755407 
L 563.178191 365.344929 
L 570.280585 364.731173 
L 577.382979 364.111248 
L 584.485373 363.491323 
L 591.587767 362.866323 
L 598.690161 362.184795 
L 605.792555 361.624079 
L 612.894949 361.006017 
L 619.997343 360.512296 
L 627.099738 360.076297 
L 634.202132 359.454989 
L 641.304526 358.912571 
L 648.40692 358.364994 
L 655.509314 357.786084 
L 662.611708 357.155923 
L 669.714102 356.525762 
L 676.816496 355.895601 
L 683.91889 355.265441 
L 691.021284 354.786943 
L 698.123678 354.316899 
L 705.226072 353.846854 
L 712.328466 353.375068 
L 719.43086 352.700291 
L 726.533255 352.01584 
L 733.635649 351.331384 
L 740.738043 350.646927 
L 747.840437 349.96247 
L 754.942831 349.278014 
L 762.045225 348.593557 
L 769.147619 347.9091 
L 776.250013 347.224644 
L 783.352407 346.540187 
L 790.454801 345.855731 
L 790.454801 174.279394 
L 790.454801 174.279394 
L 783.352407 177.178772 
L 776.250013 180.07815 
L 769.147619 182.977527 
L 762.045225 185.876905 
L 754.942831 188.776283 
L 747.840437 191.675661 
L 740.738043 194.575039 
L 733.635649 197.474417 
L 726.533255 200.373794 
L 719.43086 203.273172 
L 712.328466 206.17255 
L 705.226072 209.071928 
L 698.123678 211.971306 
L 691.021284 214.870684 
L 683.91889 217.770061 
L 676.816496 220.669439 
L 669.714102 223.619523 
L 662.611708 226.609741 
L 655.509314 229.599959 
L 648.40692 232.590178 
L 641.304526 235.580396 
L 634.202132 238.570614 
L 627.099738 241.560833 
L 619.997343 244.551051 
L 612.894949 247.541269 
L 605.792555 250.531487 
L 598.690161 253.368917 
L 591.587767 256.180068 
L 584.485373 258.991219 
L 577.382979 261.80237 
L 570.280585 264.61352 
L 563.178191 267.424671 
L 556.075797 270.235822 
L 548.973403 273.048046 
L 541.871009 275.949423 
L 534.768615 278.770731 
L 527.666221 281.56593 
L 520.563826 284.40315 
L 513.461432 287.155068 
L 506.359038 289.94878 
L 499.256644 292.743292 
L 492.15425 295.537804 
L 485.051856 298.612323 
L 477.949462 301.5542 
L 470.847068 304.136914 
L 463.744674 306.759244 
L 456.64228 309.694897 
L 449.539886 312.772339 
L 442.437492 315.54065 
L 435.335098 318.583036 
L 428.232704 321.695054 
L 421.130309 324.621468 
L 414.027915 327.193787 
L 406.925521 329.770074 
L 399.823127 332.346361 
L 392.720733 335.037653 
L 385.618339 337.658041 
L 378.515945 340.296051 
L 371.413551 342.935138 
L 364.311157 345.778329 
L 357.208763 348.56512 
L 350.106369 351.302683 
L 343.003975 354.201199 
L 335.901581 357.007149 
L 328.799187 359.204383 
L 321.696792 361.261919 
L 314.594398 363.616274 
L 307.492004 365.509959 
L 300.38961 367.089129 
L 293.287216 368.728985 
L 286.184822 370.423069 
L 279.082428 371.783125 
L 271.980034 373.005586 
L 264.87764 374.090325 
L 257.775246 375.262203 
L 250.672852 376.309556 
L 243.570458 376.948718 
L 236.468064 377.777932 
L 229.36567 378.664655 
L 222.263275 379.391921 
L 215.160881 380.273585 
L 208.058487 381.179878 
L 200.956093 382.088988 
L 193.853699 382.994637 
L 186.751305 383.708654 
L 179.648911 384.43296 
L 172.546517 385.051924 
L 165.444123 385.698865 
L 158.341729 386.355003 
L 151.239335 387.00798 
L 144.136941 387.621548 
L 137.034547 388.117137 
L 129.932153 388.249331 
L 122.829759 389.110807 
L 115.727364 389.756522 
L 108.62497 390.530608 
L 101.522576 391.005245 
L 94.420182 391.333428 
L 87.317788 391.858698 
z
" clip-path="url(#pac7b2d1c18)" style="fill: #1f77b4; fill-opacity: 0.15"/>
   </g>
   <g id="PolyCollection_2">
    <path d="M 87.317788 419.042559 
L 87.317788 487.418774 
L 94.420182 484.896423 
L 101.522576 482.374073 
L 108.62497 479.851722 
L 115.727364 477.82125 
L 122.829759 475.99427 
L 129.932153 474.612623 
L 137.034547 473.192414 
L 144.136941 470.95721 
L 151.239335 469.150164 
L 158.341729 466.724594 
L 165.444123 464.654402 
L 172.546517 462.539588 
L 179.648911 460.078204 
L 186.751305 457.953437 
L 193.853699 456.690262 
L 200.956093 454.696354 
L 208.058487 453.0814 
L 215.160881 451.498633 
L 222.263275 450.424654 
L 229.36567 448.819088 
L 236.468064 447.107701 
L 243.570458 444.855789 
L 250.672852 443.068335 
L 257.775246 441.760433 
L 264.87764 440.518397 
L 271.980034 439.590855 
L 279.082428 438.753472 
L 286.184822 438.100984 
L 293.287216 437.056856 
L 300.38961 436.353903 
L 307.492004 435.778649 
L 314.594398 435.174107 
L 321.696792 434.668235 
L 328.799187 434.380147 
L 335.901581 433.649483 
L 343.003975 432.641775 
L 350.106369 431.650042 
L 357.208763 431.082267 
L 364.311157 430.047063 
L 371.413551 429.003675 
L 378.515945 428.188871 
L 385.618339 427.463403 
L 392.720733 427.285385 
L 399.823127 426.864908 
L 406.925521 426.707592 
L 414.027915 426.322032 
L 421.130309 426.125924 
L 428.232704 425.697493 
L 435.335098 425.521367 
L 442.437492 425.197633 
L 449.539886 424.608854 
L 456.64228 424.05328 
L 463.744674 423.761855 
L 470.847068 423.584693 
L 477.949462 423.149908 
L 485.051856 422.621384 
L 492.15425 422.39825 
L 499.256644 422.336759 
L 506.359038 422.065062 
L 513.461432 421.785349 
L 520.563826 421.50459 
L 527.666221 421.22383 
L 534.768615 420.943071 
L 541.871009 420.662312 
L 548.973403 420.373387 
L 556.075797 420.080987 
L 563.178191 419.788587 
L 570.280585 419.496187 
L 577.382979 419.276082 
L 584.485373 418.996034 
L 591.587767 419.287178 
L 598.690161 419.55642 
L 605.792555 419.602629 
L 612.894949 419.648838 
L 619.997343 419.695047 
L 627.099738 419.733783 
L 634.202132 419.768707 
L 641.304526 419.802638 
L 648.40692 419.836568 
L 655.509314 419.739342 
L 662.611708 419.545384 
L 669.714102 419.350046 
L 676.816496 419.133362 
L 683.91889 418.869699 
L 691.021284 418.606037 
L 698.123678 418.342374 
L 705.226072 418.078711 
L 712.328466 417.815048 
L 719.43086 417.551386 
L 726.533255 417.287723 
L 733.635649 417.02406 
L 740.738043 416.760398 
L 747.840437 416.496735 
L 754.942831 416.369209 
L 762.045225 416.379308 
L 769.147619 416.389407 
L 776.250013 416.34281 
L 783.352407 416.031684 
L 790.454801 415.719373 
L 790.454801 253.675663 
L 790.454801 253.675663 
L 783.352407 256.135019 
L 776.250013 258.594375 
L 769.147619 261.053731 
L 762.045225 263.513087 
L 754.942831 265.911322 
L 747.840437 268.095424 
L 740.738043 270.279526 
L 733.635649 272.463629 
L 726.533255 274.647731 
L 719.43086 276.831833 
L 712.328466 279.015935 
L 705.226072 281.200037 
L 698.123678 283.38414 
L 691.021284 285.568242 
L 683.91889 287.752344 
L 676.816496 289.936446 
L 669.714102 292.244648 
L 662.611708 294.570513 
L 655.509314 296.89982 
L 648.40692 299.234982 
L 641.304526 301.716354 
L 634.202132 304.26302 
L 627.099738 306.809686 
L 619.997343 309.270472 
L 612.894949 311.526792 
L 605.792555 313.783111 
L 598.690161 316.039431 
L 591.587767 318.295751 
L 584.485373 320.552071 
L 577.382979 322.80839 
L 570.280585 325.06471 
L 563.178191 327.32103 
L 556.075797 329.577349 
L 548.973403 332.000588 
L 541.871009 334.432956 
L 534.768615 336.698208 
L 527.666221 338.963461 
L 520.563826 341.228714 
L 513.461432 343.484126 
L 506.359038 345.7475 
L 499.256644 348.154773 
L 492.15425 350.482718 
L 485.051856 352.593447 
L 477.949462 354.672027 
L 470.847068 356.750008 
L 463.744674 359.047785 
L 456.64228 361.139943 
L 449.539886 363.388337 
L 442.437492 365.636732 
L 435.335098 367.885379 
L 428.232704 370.135437 
L 421.130309 372.395616 
L 414.027915 374.65712 
L 406.925521 376.918625 
L 399.823127 379.318794 
L 392.720733 381.848732 
L 385.618339 384.069553 
L 378.515945 386.488884 
L 371.413551 388.190765 
L 364.311157 390.503365 
L 357.208763 392.558662 
L 350.106369 394.098018 
L 343.003975 396.080934 
L 335.901581 397.491491 
L 328.799187 399.058979 
L 321.696792 400.084781 
L 314.594398 401.227107 
L 307.492004 402.860875 
L 300.38961 403.79789 
L 293.287216 404.722681 
L 286.184822 406.203401 
L 279.082428 406.792501 
L 271.980034 407.27543 
L 264.87764 408.10421 
L 257.775246 408.81807 
L 250.672852 409.517822 
L 243.570458 410.348202 
L 236.468064 410.825377 
L 229.36567 411.49498 
L 222.263275 412.234202 
L 215.160881 413.033148 
L 208.058487 413.554556 
L 200.956093 414.099364 
L 193.853699 414.57056 
L 186.751305 415.00844 
L 179.648911 415.110706 
L 172.546517 415.328788 
L 165.444123 415.579393 
L 158.341729 415.550958 
L 151.239335 415.840189 
L 144.136941 416.017088 
L 137.034547 416.500788 
L 129.932153 416.764246 
L 122.829759 417.005694 
L 115.727364 417.353018 
L 108.62497 417.606394 
L 101.522576 418.128028 
L 94.420182 418.662677 
L 87.317788 419.042559 
z
" clip-path="url(#pac7b2d1c18)" style="fill: #ff7f0e; fill-opacity: 0.15"/>
   </g>
   <g id="matplotlib.axis_1">
    <g id="xtick_1">
     <g id="line2d_1">
      <defs>
       <path id="mdd8685602c" d="M 0 0 
L 0 3.5 
" style="stroke: #000000; stroke-width: 0.8"/>
      </defs>
      <g>
       <use xlink:href="#mdd8685602c" x="158.034305" y="642.866667" style="stroke: #000000; stroke-width: 0.8"/>
      </g>
     </g>
     <g id="text_1">
      <!-- 200 -->
      <g transform="translate(148.490555 657.465104) scale(0.1 -0.1)">
       <defs>
        <path id="DejaVuSans-32" d="M 1228 531 
L 3431 531 
L 3431 0 
L 469 0 
L 469 531 
Q 828 903 1448 1529 
Q 2069 2156 2228 2338 
Q 2531 2678 2651 2914 
Q 2772 3150 2772 3378 
Q 2772 3750 2511 3984 
Q 2250 4219 1831 4219 
Q 1534 4219 1204 4116 
Q 875 4013 500 3803 
L 500 4441 
Q 881 4594 1212 4672 
Q 1544 4750 1819 4750 
Q 2544 4750 2975 4387 
Q 3406 4025 3406 3419 
Q 3406 3131 3298 2873 
Q 3191 2616 2906 2266 
Q 2828 2175 2409 1742 
Q 1991 1309 1228 531 
z
" transform="scale(0.015625)"/>
        <path id="DejaVuSans-30" d="M 2034 4250 
Q 1547 4250 1301 3770 
Q 1056 3291 1056 2328 
Q 1056 1369 1301 889 
Q 1547 409 2034 409 
Q 2525 409 2770 889 
Q 3016 1369 3016 2328 
Q 3016 3291 2770 3770 
Q 2525 4250 2034 4250 
z
M 2034 4750 
Q 2819 4750 3233 4129 
Q 3647 3509 3647 2328 
Q 3647 1150 3233 529 
Q 2819 -91 2034 -91 
Q 1250 -91 836 529 
Q 422 1150 422 2328 
Q 422 3509 836 4129 
Q 1250 4750 2034 4750 
z
" transform="scale(0.015625)"/>
       </defs>
       <use xlink:href="#DejaVuSans-32"/>
       <use xlink:href="#DejaVuSans-30" x="63.623047"/>
       <use xlink:href="#DejaVuSans-30" x="127.246094"/>
      </g>
     </g>
    </g>
    <g id="xtick_2">
     <g id="line2d_2">
      <g>
       <use xlink:href="#mdd8685602c" x="292.306173" y="642.866667" style="stroke: #000000; stroke-width: 0.8"/>
      </g>
     </g>
     <g id="text_2">
      <!-- 300 -->
      <g transform="translate(282.762423 657.465104) scale(0.1 -0.1)">
       <defs>
        <path id="DejaVuSans-33" d="M 2597 2516 
Q 3050 2419 3304 2112 
Q 3559 1806 3559 1356 
Q 3559 666 3084 287 
Q 2609 -91 1734 -91 
Q 1441 -91 1130 -33 
Q 819 25 488 141 
L 488 750 
Q 750 597 1062 519 
Q 1375 441 1716 441 
Q 2309 441 2620 675 
Q 2931 909 2931 1356 
Q 2931 1769 2642 2001 
Q 2353 2234 1838 2234 
L 1294 2234 
L 1294 2753 
L 1863 2753 
Q 2328 2753 2575 2939 
Q 2822 3125 2822 3475 
Q 2822 3834 2567 4026 
Q 2313 4219 1838 4219 
Q 1578 4219 1281 4162 
Q 984 4106 628 3988 
L 628 4550 
Q 988 4650 1302 4700 
Q 1616 4750 1894 4750 
Q 2613 4750 3031 4423 
Q 3450 4097 3450 3541 
Q 3450 3153 3228 2886 
Q 3006 2619 2597 2516 
z
" transform="scale(0.015625)"/>
       </defs>
       <use xlink:href="#DejaVuSans-33"/>
       <use xlink:href="#DejaVuSans-30" x="63.623047"/>
       <use xlink:href="#DejaVuSans-30" x="127.246094"/>
      </g>
     </g>
    </g>
    <g id="xtick_3">
     <g id="line2d_3">
      <g>
       <use xlink:href="#mdd8685602c" x="426.57804" y="642.866667" style="stroke: #000000; stroke-width: 0.8"/>
      </g>
     </g>
     <g id="text_3">
      <!-- 400 -->
      <g transform="translate(417.03429 657.465104) scale(0.1 -0.1)">
       <defs>
        <path id="DejaVuSans-34" d="M 2419 4116 
L 825 1625 
L 2419 1625 
L 2419 4116 
z
M 2253 4666 
L 3047 4666 
L 3047 1625 
L 3713 1625 
L 3713 1100 
L 3047 1100 
L 3047 0 
L 2419 0 
L 2419 1100 
L 313 1100 
L 313 1709 
L 2253 4666 
z
" transform="scale(0.015625)"/>
       </defs>
       <use xlink:href="#DejaVuSans-34"/>
       <use xlink:href="#DejaVuSans-30" x="63.623047"/>
       <use xlink:href="#DejaVuSans-30" x="127.246094"/>
      </g>
     </g>
    </g>
    <g id="xtick_4">
     <g id="line2d_4">
      <g>
       <use xlink:href="#mdd8685602c" x="560.849908" y="642.866667" style="stroke: #000000; stroke-width: 0.8"/>
      </g>
     </g>
     <g id="text_4">
      <!-- 500 -->
      <g transform="translate(551.306158 657.465104) scale(0.1 -0.1)">
       <defs>
        <path id="DejaVuSans-35" d="M 691 4666 
L 3169 4666 
L 3169 4134 
L 1269 4134 
L 1269 2991 
Q 1406 3038 1543 3061 
Q 1681 3084 1819 3084 
Q 2600 3084 3056 2656 
Q 3513 2228 3513 1497 
Q 3513 744 3044 326 
Q 2575 -91 1722 -91 
Q 1428 -91 1123 -41 
Q 819 9 494 109 
L 494 744 
Q 775 591 1075 516 
Q 1375 441 1709 441 
Q 2250 441 2565 725 
Q 2881 1009 2881 1497 
Q 2881 1984 2565 2268 
Q 2250 2553 1709 2553 
Q 1456 2553 1204 2497 
Q 953 2441 691 2322 
L 691 4666 
z
" transform="scale(0.015625)"/>
       </defs>
       <use xlink:href="#DejaVuSans-35"/>
       <use xlink:href="#DejaVuSans-30" x="63.623047"/>
       <use xlink:href="#DejaVuSans-30" x="127.246094"/>
      </g>
     </g>
    </g>
    <g id="xtick_5">
     <g id="line2d_5">
      <g>
       <use xlink:href="#mdd8685602c" x="695.121775" y="642.866667" style="stroke: #000000; stroke-width: 0.8"/>
      </g>
     </g>
     <g id="text_5">
      <!-- 600 -->
      <g transform="translate(685.578025 657.465104) scale(0.1 -0.1)">
       <defs>
        <path id="DejaVuSans-36" d="M 2113 2584 
Q 1688 2584 1439 2293 
Q 1191 2003 1191 1497 
Q 1191 994 1439 701 
Q 1688 409 2113 409 
Q 2538 409 2786 701 
Q 3034 994 3034 1497 
Q 3034 2003 2786 2293 
Q 2538 2584 2113 2584 
z
M 3366 4563 
L 3366 3988 
Q 3128 4100 2886 4159 
Q 2644 4219 2406 4219 
Q 1781 4219 1451 3797 
Q 1122 3375 1075 2522 
Q 1259 2794 1537 2939 
Q 1816 3084 2150 3084 
Q 2853 3084 3261 2657 
Q 3669 2231 3669 1497 
Q 3669 778 3244 343 
Q 2819 -91 2113 -91 
Q 1303 -91 875 529 
Q 447 1150 447 2328 
Q 447 3434 972 4092 
Q 1497 4750 2381 4750 
Q 2619 4750 2861 4703 
Q 3103 4656 3366 4563 
z
" transform="scale(0.015625)"/>
       </defs>
       <use xlink:href="#DejaVuSans-36"/>
       <use xlink:href="#DejaVuSans-30" x="63.623047"/>
       <use xlink:href="#DejaVuSans-30" x="127.246094"/>
      </g>
     </g>
    </g>
    <g id="text_6">
     <!-- Protein length -->
     <g transform="translate(403.835513 671.143229) scale(0.1 -0.1)">
      <defs>
       <path id="DejaVuSans-50" d="M 1259 4147 
L 1259 2394 
L 2053 2394 
Q 2494 2394 2734 2622 
Q 2975 2850 2975 3272 
Q 2975 3691 2734 3919 
Q 2494 4147 2053 4147 
L 1259 4147 
z
M 628 4666 
L 2053 4666 
Q 2838 4666 3239 4311 
Q 3641 3956 3641 3272 
Q 3641 2581 3239 2228 
Q 2838 1875 2053 1875 
L 1259 1875 
L 1259 0 
L 628 0 
L 628 4666 
z
" transform="scale(0.015625)"/>
       <path id="DejaVuSans-72" d="M 2631 2963 
Q 2534 3019 2420 3045 
Q 2306 3072 2169 3072 
Q 1681 3072 1420 2755 
Q 1159 2438 1159 1844 
L 1159 0 
L 581 0 
L 581 3500 
L 1159 3500 
L 1159 2956 
Q 1341 3275 1631 3429 
Q 1922 3584 2338 3584 
Q 2397 3584 2469 3576 
Q 2541 3569 2628 3553 
L 2631 2963 
z
" transform="scale(0.015625)"/>
       <path id="DejaVuSans-6f" d="M 1959 3097 
Q 1497 3097 1228 2736 
Q 959 2375 959 1747 
Q 959 1119 1226 758 
Q 1494 397 1959 397 
Q 2419 397 2687 759 
Q 2956 1122 2956 1747 
Q 2956 2369 2687 2733 
Q 2419 3097 1959 3097 
z
M 1959 3584 
Q 2709 3584 3137 3096 
Q 3566 2609 3566 1747 
Q 3566 888 3137 398 
Q 2709 -91 1959 -91 
Q 1206 -91 779 398 
Q 353 888 353 1747 
Q 353 2609 779 3096 
Q 1206 3584 1959 3584 
z
" transform="scale(0.015625)"/>
       <path id="DejaVuSans-74" d="M 1172 4494 
L 1172 3500 
L 2356 3500 
L 2356 3053 
L 1172 3053 
L 1172 1153 
Q 1172 725 1289 603 
Q 1406 481 1766 481 
L 2356 481 
L 2356 0 
L 1766 0 
Q 1100 0 847 248 
Q 594 497 594 1153 
L 594 3053 
L 172 3053 
L 172 3500 
L 594 3500 
L 594 4494 
L 1172 4494 
z
" transform="scale(0.015625)"/>
       <path id="DejaVuSans-65" d="M 3597 1894 
L 3597 1613 
L 953 1613 
Q 991 1019 1311 708 
Q 1631 397 2203 397 
Q 2534 397 2845 478 
Q 3156 559 3463 722 
L 3463 178 
Q 3153 47 2828 -22 
Q 2503 -91 2169 -91 
Q 1331 -91 842 396 
Q 353 884 353 1716 
Q 353 2575 817 3079 
Q 1281 3584 2069 3584 
Q 2775 3584 3186 3129 
Q 3597 2675 3597 1894 
z
M 3022 2063 
Q 3016 2534 2758 2815 
Q 2500 3097 2075 3097 
Q 1594 3097 1305 2825 
Q 1016 2553 972 2059 
L 3022 2063 
z
" transform="scale(0.015625)"/>
       <path id="DejaVuSans-69" d="M 603 3500 
L 1178 3500 
L 1178 0 
L 603 0 
L 603 3500 
z
M 603 4863 
L 1178 4863 
L 1178 4134 
L 603 4134 
L 603 4863 
z
" transform="scale(0.015625)"/>
       <path id="DejaVuSans-6e" d="M 3513 2113 
L 3513 0 
L 2938 0 
L 2938 2094 
Q 2938 2591 2744 2837 
Q 2550 3084 2163 3084 
Q 1697 3084 1428 2787 
Q 1159 2491 1159 1978 
L 1159 0 
L 581 0 
L 581 3500 
L 1159 3500 
L 1159 2956 
Q 1366 3272 1645 3428 
Q 1925 3584 2291 3584 
Q 2894 3584 3203 3211 
Q 3513 2838 3513 2113 
z
" transform="scale(0.015625)"/>
       <path id="DejaVuSans-20" transform="scale(0.015625)"/>
       <path id="DejaVuSans-6c" d="M 603 4863 
L 1178 4863 
L 1178 0 
L 603 0 
L 603 4863 
z
" transform="scale(0.015625)"/>
       <path id="DejaVuSans-67" d="M 2906 1791 
Q 2906 2416 2648 2759 
Q 2391 3103 1925 3103 
Q 1463 3103 1205 2759 
Q 947 2416 947 1791 
Q 947 1169 1205 825 
Q 1463 481 1925 481 
Q 2391 481 2648 825 
Q 2906 1169 2906 1791 
z
M 3481 434 
Q 3481 -459 3084 -895 
Q 2688 -1331 1869 -1331 
Q 1566 -1331 1297 -1286 
Q 1028 -1241 775 -1147 
L 775 -588 
Q 1028 -725 1275 -790 
Q 1522 -856 1778 -856 
Q 2344 -856 2625 -561 
Q 2906 -266 2906 331 
L 2906 616 
Q 2728 306 2450 153 
Q 2172 0 1784 0 
Q 1141 0 747 490 
Q 353 981 353 1791 
Q 353 2603 747 3093 
Q 1141 3584 1784 3584 
Q 2172 3584 2450 3431 
Q 2728 3278 2906 2969 
L 2906 3500 
L 3481 3500 
L 3481 434 
z
" transform="scale(0.015625)"/>
       <path id="DejaVuSans-68" d="M 3513 2113 
L 3513 0 
L 2938 0 
L 2938 2094 
Q 2938 2591 2744 2837 
Q 2550 3084 2163 3084 
Q 1697 3084 1428 2787 
Q 1159 2491 1159 1978 
L 1159 0 
L 581 0 
L 581 4863 
L 1159 4863 
L 1159 2956 
Q 1366 3272 1645 3428 
Q 1925 3584 2291 3584 
Q 2894 3584 3203 3211 
Q 3513 2838 3513 2113 
z
" transform="scale(0.015625)"/>
      </defs>
      <use xlink:href="#DejaVuSans-50"/>
      <use xlink:href="#DejaVuSans-72" x="58.552734"/>
      <use xlink:href="#DejaVuSans-6f" x="97.416016"/>
      <use xlink:href="#DejaVuSans-74" x="158.597656"/>
      <use xlink:href="#DejaVuSans-65" x="197.806641"/>
      <use xlink:href="#DejaVuSans-69" x="259.330078"/>
      <use xlink:href="#DejaVuSans-6e" x="287.113281"/>
      <use xlink:href="#DejaVuSans-20" x="350.492188"/>
      <use xlink:href="#DejaVuSans-6c" x="382.279297"/>
      <use xlink:href="#DejaVuSans-65" x="410.0625"/>
      <use xlink:href="#DejaVuSans-6e" x="471.585938"/>
      <use xlink:href="#DejaVuSans-67" x="534.964844"/>
      <use xlink:href="#DejaVuSans-74" x="598.441406"/>
      <use xlink:href="#DejaVuSans-68" x="637.650391"/>
     </g>
    </g>
   </g>
   <g id="matplotlib.axis_2">
    <g id="ytick_1">
     <g id="line2d_6">
      <defs>
       <path id="ma279c8e7c6" d="M 0 0 
L -3.5 0 
" style="stroke: #000000; stroke-width: 0.8"/>
      </defs>
      <g>
       <use xlink:href="#ma279c8e7c6" x="52.160938" y="632.268396" style="stroke: #000000; stroke-width: 0.8"/>
      </g>
     </g>
     <g id="text_7">
      <!-- −0.1 -->
      <g transform="translate(20.878125 636.067615) scale(0.1 -0.1)">
       <defs>
        <path id="DejaVuSans-2212" d="M 678 2272 
L 4684 2272 
L 4684 1741 
L 678 1741 
L 678 2272 
z
" transform="scale(0.015625)"/>
        <path id="DejaVuSans-2e" d="M 684 794 
L 1344 794 
L 1344 0 
L 684 0 
L 684 794 
z
" transform="scale(0.015625)"/>
        <path id="DejaVuSans-31" d="M 794 531 
L 1825 531 
L 1825 4091 
L 703 3866 
L 703 4441 
L 1819 4666 
L 2450 4666 
L 2450 531 
L 3481 531 
L 3481 0 
L 794 0 
L 794 531 
z
" transform="scale(0.015625)"/>
       </defs>
       <use xlink:href="#DejaVuSans-2212"/>
       <use xlink:href="#DejaVuSans-30" x="83.789062"/>
       <use xlink:href="#DejaVuSans-2e" x="147.412109"/>
       <use xlink:href="#DejaVuSans-31" x="179.199219"/>
      </g>
     </g>
    </g>
    <g id="ytick_2">
     <g id="line2d_7">
      <g>
       <use xlink:href="#ma279c8e7c6" x="52.160938" y="574.276154" style="stroke: #000000; stroke-width: 0.8"/>
      </g>
     </g>
     <g id="text_8">
      <!-- 0.0 -->
      <g transform="translate(29.257813 578.075373) scale(0.1 -0.1)">
       <use xlink:href="#DejaVuSans-30"/>
       <use xlink:href="#DejaVuSans-2e" x="63.623047"/>
       <use xlink:href="#DejaVuSans-30" x="95.410156"/>
      </g>
     </g>
    </g>
    <g id="ytick_3">
     <g id="line2d_8">
      <g>
       <use xlink:href="#ma279c8e7c6" x="52.160938" y="516.283912" style="stroke: #000000; stroke-width: 0.8"/>
      </g>
     </g>
     <g id="text_9">
      <!-- 0.1 -->
      <g transform="translate(29.257813 520.083131) scale(0.1 -0.1)">
       <use xlink:href="#DejaVuSans-30"/>
       <use xlink:href="#DejaVuSans-2e" x="63.623047"/>
       <use xlink:href="#DejaVuSans-31" x="95.410156"/>
      </g>
     </g>
    </g>
    <g id="ytick_4">
     <g id="line2d_9">
      <g>
       <use xlink:href="#ma279c8e7c6" x="52.160938" y="458.29167" style="stroke: #000000; stroke-width: 0.8"/>
      </g>
     </g>
     <g id="text_10">
      <!-- 0.2 -->
      <g transform="translate(29.257813 462.090888) scale(0.1 -0.1)">
       <use xlink:href="#DejaVuSans-30"/>
       <use xlink:href="#DejaVuSans-2e" x="63.623047"/>
       <use xlink:href="#DejaVuSans-32" x="95.410156"/>
      </g>
     </g>
    </g>
    <g id="ytick_5">
     <g id="line2d_10">
      <g>
       <use xlink:href="#ma279c8e7c6" x="52.160938" y="400.299427" style="stroke: #000000; stroke-width: 0.8"/>
      </g>
     </g>
     <g id="text_11">
      <!-- 0.3 -->
      <g transform="translate(29.257813 404.098646) scale(0.1 -0.1)">
       <use xlink:href="#DejaVuSans-30"/>
       <use xlink:href="#DejaVuSans-2e" x="63.623047"/>
       <use xlink:href="#DejaVuSans-33" x="95.410156"/>
      </g>
     </g>
    </g>
    <g id="ytick_6">
     <g id="line2d_11">
      <g>
       <use xlink:href="#ma279c8e7c6" x="52.160938" y="342.307185" style="stroke: #000000; stroke-width: 0.8"/>
      </g>
     </g>
     <g id="text_12">
      <!-- 0.4 -->
      <g transform="translate(29.257813 346.106404) scale(0.1 -0.1)">
       <use xlink:href="#DejaVuSans-30"/>
       <use xlink:href="#DejaVuSans-2e" x="63.623047"/>
       <use xlink:href="#DejaVuSans-34" x="95.410156"/>
      </g>
     </g>
    </g>
    <g id="ytick_7">
     <g id="line2d_12">
      <g>
       <use xlink:href="#ma279c8e7c6" x="52.160938" y="284.314943" style="stroke: #000000; stroke-width: 0.8"/>
      </g>
     </g>
     <g id="text_13">
      <!-- 0.5 -->
      <g transform="translate(29.257813 288.114162) scale(0.1 -0.1)">
       <use xlink:href="#DejaVuSans-30"/>
       <use xlink:href="#DejaVuSans-2e" x="63.623047"/>
       <use xlink:href="#DejaVuSans-35" x="95.410156"/>
      </g>
     </g>
    </g>
    <g id="ytick_8">
     <g id="line2d_13">
      <g>
       <use xlink:href="#ma279c8e7c6" x="52.160938" y="226.322701" style="stroke: #000000; stroke-width: 0.8"/>
      </g>
     </g>
     <g id="text_14">
      <!-- 0.6 -->
      <g transform="translate(29.257813 230.121919) scale(0.1 -0.1)">
       <use xlink:href="#DejaVuSans-30"/>
       <use xlink:href="#DejaVuSans-2e" x="63.623047"/>
       <use xlink:href="#DejaVuSans-36" x="95.410156"/>
      </g>
     </g>
    </g>
    <g id="ytick_9">
     <g id="line2d_14">
      <g>
       <use xlink:href="#ma279c8e7c6" x="52.160938" y="168.330458" style="stroke: #000000; stroke-width: 0.8"/>
      </g>
     </g>
     <g id="text_15">
      <!-- 0.7 -->
      <g transform="translate(29.257813 172.129677) scale(0.1 -0.1)">
       <defs>
        <path id="DejaVuSans-37" d="M 525 4666 
L 3525 4666 
L 3525 4397 
L 1831 0 
L 1172 0 
L 2766 4134 
L 525 4134 
L 525 4666 
z
" transform="scale(0.015625)"/>
       </defs>
       <use xlink:href="#DejaVuSans-30"/>
       <use xlink:href="#DejaVuSans-2e" x="63.623047"/>
       <use xlink:href="#DejaVuSans-37" x="95.410156"/>
      </g>
     </g>
    </g>
    <g id="text_16">
     <!-- Correlation coefficient -->
     <g transform="translate(14.798438 452.712284) rotate(-90) scale(0.1 -0.1)">
      <defs>
       <path id="DejaVuSans-43" d="M 4122 4306 
L 4122 3641 
Q 3803 3938 3442 4084 
Q 3081 4231 2675 4231 
Q 1875 4231 1450 3742 
Q 1025 3253 1025 2328 
Q 1025 1406 1450 917 
Q 1875 428 2675 428 
Q 3081 428 3442 575 
Q 3803 722 4122 1019 
L 4122 359 
Q 3791 134 3420 21 
Q 3050 -91 2638 -91 
Q 1578 -91 968 557 
Q 359 1206 359 2328 
Q 359 3453 968 4101 
Q 1578 4750 2638 4750 
Q 3056 4750 3426 4639 
Q 3797 4528 4122 4306 
z
" transform="scale(0.015625)"/>
       <path id="DejaVuSans-61" d="M 2194 1759 
Q 1497 1759 1228 1600 
Q 959 1441 959 1056 
Q 959 750 1161 570 
Q 1363 391 1709 391 
Q 2188 391 2477 730 
Q 2766 1069 2766 1631 
L 2766 1759 
L 2194 1759 
z
M 3341 1997 
L 3341 0 
L 2766 0 
L 2766 531 
Q 2569 213 2275 61 
Q 1981 -91 1556 -91 
Q 1019 -91 701 211 
Q 384 513 384 1019 
Q 384 1609 779 1909 
Q 1175 2209 1959 2209 
L 2766 2209 
L 2766 2266 
Q 2766 2663 2505 2880 
Q 2244 3097 1772 3097 
Q 1472 3097 1187 3025 
Q 903 2953 641 2809 
L 641 3341 
Q 956 3463 1253 3523 
Q 1550 3584 1831 3584 
Q 2591 3584 2966 3190 
Q 3341 2797 3341 1997 
z
" transform="scale(0.015625)"/>
       <path id="DejaVuSans-63" d="M 3122 3366 
L 3122 2828 
Q 2878 2963 2633 3030 
Q 2388 3097 2138 3097 
Q 1578 3097 1268 2742 
Q 959 2388 959 1747 
Q 959 1106 1268 751 
Q 1578 397 2138 397 
Q 2388 397 2633 464 
Q 2878 531 3122 666 
L 3122 134 
Q 2881 22 2623 -34 
Q 2366 -91 2075 -91 
Q 1284 -91 818 406 
Q 353 903 353 1747 
Q 353 2603 823 3093 
Q 1294 3584 2113 3584 
Q 2378 3584 2631 3529 
Q 2884 3475 3122 3366 
z
" transform="scale(0.015625)"/>
       <path id="DejaVuSans-66" d="M 2375 4863 
L 2375 4384 
L 1825 4384 
Q 1516 4384 1395 4259 
Q 1275 4134 1275 3809 
L 1275 3500 
L 2222 3500 
L 2222 3053 
L 1275 3053 
L 1275 0 
L 697 0 
L 697 3053 
L 147 3053 
L 147 3500 
L 697 3500 
L 697 3744 
Q 697 4328 969 4595 
Q 1241 4863 1831 4863 
L 2375 4863 
z
" transform="scale(0.015625)"/>
      </defs>
      <use xlink:href="#DejaVuSans-43"/>
      <use xlink:href="#DejaVuSans-6f" x="69.824219"/>
      <use xlink:href="#DejaVuSans-72" x="131.005859"/>
      <use xlink:href="#DejaVuSans-72" x="170.369141"/>
      <use xlink:href="#DejaVuSans-65" x="209.232422"/>
      <use xlink:href="#DejaVuSans-6c" x="270.755859"/>
      <use xlink:href="#DejaVuSans-61" x="298.539062"/>
      <use xlink:href="#DejaVuSans-74" x="359.818359"/>
      <use xlink:href="#DejaVuSans-69" x="399.027344"/>
      <use xlink:href="#DejaVuSans-6f" x="426.810547"/>
      <use xlink:href="#DejaVuSans-6e" x="487.992188"/>
      <use xlink:href="#DejaVuSans-20" x="551.371094"/>
      <use xlink:href="#DejaVuSans-63" x="583.158203"/>
      <use xlink:href="#DejaVuSans-6f" x="638.138672"/>
      <use xlink:href="#DejaVuSans-65" x="699.320312"/>
      <use xlink:href="#DejaVuSans-66" x="760.84375"/>
      <use xlink:href="#DejaVuSans-66" x="796.048828"/>
      <use xlink:href="#DejaVuSans-69" x="831.253906"/>
      <use xlink:href="#DejaVuSans-63" x="859.037109"/>
      <use xlink:href="#DejaVuSans-69" x="914.017578"/>
      <use xlink:href="#DejaVuSans-65" x="941.800781"/>
      <use xlink:href="#DejaVuSans-6e" x="1003.324219"/>
      <use xlink:href="#DejaVuSans-74" x="1066.703125"/>
     </g>
    </g>
   </g>
   <g id="line2d_15">
    <path d="M 87.317788 419.374598 
L 94.420182 418.069527 
L 101.522576 416.764456 
L 108.62497 415.459385 
L 115.727364 414.154314 
L 122.829759 412.849243 
L 129.932153 411.544172 
L 137.034547 410.2391 
L 144.136941 408.934029 
L 151.239335 407.628958 
L 158.341729 406.323887 
L 165.444123 405.018816 
L 172.546517 403.713745 
L 179.648911 402.408673 
L 186.751305 401.103602 
L 193.853699 399.798531 
L 200.956093 398.49346 
L 208.058487 397.188389 
L 215.160881 395.883318 
L 222.263275 394.578247 
L 229.36567 393.273175 
L 236.468064 391.968104 
L 243.570458 390.663033 
L 250.672852 389.357962 
L 257.775246 388.052891 
L 264.87764 386.74782 
L 271.980034 385.442749 
L 279.082428 384.137677 
L 286.184822 382.832606 
L 293.287216 381.527535 
L 300.38961 380.222464 
L 307.492004 378.917393 
L 314.594398 377.612322 
L 321.696792 376.307251 
L 328.799187 375.002179 
L 335.901581 373.697108 
L 343.003975 372.392037 
L 350.106369 371.086966 
L 357.208763 369.781895 
L 364.311157 368.476824 
L 371.413551 367.171753 
L 378.515945 365.866681 
L 385.618339 364.56161 
L 392.720733 363.256539 
L 399.823127 361.951468 
L 406.925521 360.646397 
L 414.027915 359.341326 
L 421.130309 358.036255 
L 428.232704 356.731183 
L 435.335098 355.426112 
L 442.437492 354.121041 
L 449.539886 352.81597 
L 456.64228 351.510899 
L 463.744674 350.205828 
L 470.847068 348.900756 
L 477.949462 347.595685 
L 485.051856 346.290614 
L 492.15425 344.985543 
L 499.256644 343.680472 
L 506.359038 342.375401 
L 513.461432 341.07033 
L 520.563826 339.765258 
L 527.666221 338.460187 
L 534.768615 337.155116 
L 541.871009 335.850045 
L 548.973403 334.544974 
L 556.075797 333.239903 
L 563.178191 331.934832 
L 570.280585 330.62976 
L 577.382979 329.324689 
L 584.485373 328.019618 
L 591.587767 326.714547 
L 598.690161 325.409476 
L 605.792555 324.104405 
L 612.894949 322.799334 
L 619.997343 321.494262 
L 627.099738 320.189191 
L 634.202132 318.88412 
L 641.304526 317.579049 
L 648.40692 316.273978 
L 655.509314 314.968907 
L 662.611708 313.663836 
L 669.714102 312.358764 
L 676.816496 311.053693 
L 683.91889 309.748622 
L 691.021284 308.443551 
L 698.123678 307.13848 
L 705.226072 305.833409 
L 712.328466 304.528337 
L 719.43086 303.223266 
L 726.533255 301.918195 
L 733.635649 300.613124 
L 740.738043 299.308053 
L 747.840437 298.002982 
L 754.942831 296.697911 
L 762.045225 295.392839 
L 769.147619 294.087768 
L 776.250013 292.782697 
L 783.352407 291.477626 
L 790.454801 290.172555 
" clip-path="url(#pac7b2d1c18)" style="fill: none; stroke: #1f77b4; stroke-width: 2.25; stroke-linecap: square"/>
   </g>
   <g id="line2d_16">
    <path d="M 87.317788 448.570028 
L 94.420182 447.592365 
L 101.522576 446.614702 
L 108.62497 445.637039 
L 115.727364 444.659376 
L 122.829759 443.681714 
L 129.932153 442.704051 
L 137.034547 441.726388 
L 144.136941 440.748725 
L 151.239335 439.771062 
L 158.341729 438.7934 
L 165.444123 437.815737 
L 172.546517 436.838074 
L 179.648911 435.860411 
L 186.751305 434.882748 
L 193.853699 433.905085 
L 200.956093 432.927423 
L 208.058487 431.94976 
L 215.160881 430.972097 
L 222.263275 429.994434 
L 229.36567 429.016771 
L 236.468064 428.039108 
L 243.570458 427.061446 
L 250.672852 426.083783 
L 257.775246 425.10612 
L 264.87764 424.128457 
L 271.980034 423.150794 
L 279.082428 422.173132 
L 286.184822 421.195469 
L 293.287216 420.217806 
L 300.38961 419.240143 
L 307.492004 418.26248 
L 314.594398 417.284817 
L 321.696792 416.307155 
L 328.799187 415.329492 
L 335.901581 414.351829 
L 343.003975 413.374166 
L 350.106369 412.396503 
L 357.208763 411.418841 
L 364.311157 410.441178 
L 371.413551 409.463515 
L 378.515945 408.485852 
L 385.618339 407.508189 
L 392.720733 406.530526 
L 399.823127 405.552864 
L 406.925521 404.575201 
L 414.027915 403.597538 
L 421.130309 402.619875 
L 428.232704 401.642212 
L 435.335098 400.664549 
L 442.437492 399.686887 
L 449.539886 398.709224 
L 456.64228 397.731561 
L 463.744674 396.753898 
L 470.847068 395.776235 
L 477.949462 394.798573 
L 485.051856 393.82091 
L 492.15425 392.843247 
L 499.256644 391.865584 
L 506.359038 390.887921 
L 513.461432 389.910258 
L 520.563826 388.932596 
L 527.666221 387.954933 
L 534.768615 386.97727 
L 541.871009 385.999607 
L 548.973403 385.021944 
L 556.075797 384.044281 
L 563.178191 383.066619 
L 570.280585 382.088956 
L 577.382979 381.111293 
L 584.485373 380.13363 
L 591.587767 379.155967 
L 598.690161 378.178305 
L 605.792555 377.200642 
L 612.894949 376.222979 
L 619.997343 375.245316 
L 627.099738 374.267653 
L 634.202132 373.28999 
L 641.304526 372.312328 
L 648.40692 371.334665 
L 655.509314 370.357002 
L 662.611708 369.379339 
L 669.714102 368.401676 
L 676.816496 367.424013 
L 683.91889 366.446351 
L 691.021284 365.468688 
L 698.123678 364.491025 
L 705.226072 363.513362 
L 712.328466 362.535699 
L 719.43086 361.558037 
L 726.533255 360.580374 
L 733.635649 359.602711 
L 740.738043 358.625048 
L 747.840437 357.647385 
L 754.942831 356.669722 
L 762.045225 355.69206 
L 769.147619 354.714397 
L 776.250013 353.736734 
L 783.352407 352.759071 
L 790.454801 351.781408 
" clip-path="url(#pac7b2d1c18)" style="fill: none; stroke: #ff7f0e; stroke-width: 2.25; stroke-linecap: square"/>
   </g>
   <g id="patch_3">
    <path d="M 52.160938 642.866667 
L 52.160938 151.965714 
" style="fill: none; stroke: #000000; stroke-width: 0.8; stroke-linejoin: miter; stroke-linecap: square"/>
   </g>
   <g id="patch_4">
    <path d="M 52.160938 642.866667 
L 825.611652 642.866667 
" style="fill: none; stroke: #000000; stroke-width: 0.8; stroke-linejoin: miter; stroke-linecap: square"/>
   </g>
   <g id="legend_1">
    <g id="patch_5">
     <path d="M 712.499152 637.866667 
L 818.611652 637.866667 
Q 820.611652 637.866667 820.611652 635.866667 
L 820.611652 607.510417 
Q 820.611652 605.510417 818.611652 605.510417 
L 712.499152 605.510417 
Q 710.499152 605.510417 710.499152 607.510417 
L 710.499152 635.866667 
Q 710.499152 637.866667 712.499152 637.866667 
z
" style="fill: #ffffff; opacity: 0.8; stroke: #cccccc; stroke-linejoin: miter"/>
    </g>
    <g id="PathCollection_3">
     <g>
      <use xlink:href="#m007faae305" x="724.499152" y="614.483854" style="fill: #4169e1; fill-opacity: 0.5; stroke: #000000; stroke-opacity: 0.5"/>
     </g>
    </g>
    <g id="text_17">
     <!-- Codon number -->
     <g transform="translate(742.499152 617.108854) scale(0.1 -0.1)">
      <defs>
       <path id="DejaVuSans-64" d="M 2906 2969 
L 2906 4863 
L 3481 4863 
L 3481 0 
L 2906 0 
L 2906 525 
Q 2725 213 2448 61 
Q 2172 -91 1784 -91 
Q 1150 -91 751 415 
Q 353 922 353 1747 
Q 353 2572 751 3078 
Q 1150 3584 1784 3584 
Q 2172 3584 2448 3432 
Q 2725 3281 2906 2969 
z
M 947 1747 
Q 947 1113 1208 752 
Q 1469 391 1925 391 
Q 2381 391 2643 752 
Q 2906 1113 2906 1747 
Q 2906 2381 2643 2742 
Q 2381 3103 1925 3103 
Q 1469 3103 1208 2742 
Q 947 2381 947 1747 
z
" transform="scale(0.015625)"/>
       <path id="DejaVuSans-75" d="M 544 1381 
L 544 3500 
L 1119 3500 
L 1119 1403 
Q 1119 906 1312 657 
Q 1506 409 1894 409 
Q 2359 409 2629 706 
Q 2900 1003 2900 1516 
L 2900 3500 
L 3475 3500 
L 3475 0 
L 2900 0 
L 2900 538 
Q 2691 219 2414 64 
Q 2138 -91 1772 -91 
Q 1169 -91 856 284 
Q 544 659 544 1381 
z
M 1991 3584 
L 1991 3584 
z
" transform="scale(0.015625)"/>
       <path id="DejaVuSans-6d" d="M 3328 2828 
Q 3544 3216 3844 3400 
Q 4144 3584 4550 3584 
Q 5097 3584 5394 3201 
Q 5691 2819 5691 2113 
L 5691 0 
L 5113 0 
L 5113 2094 
Q 5113 2597 4934 2840 
Q 4756 3084 4391 3084 
Q 3944 3084 3684 2787 
Q 3425 2491 3425 1978 
L 3425 0 
L 2847 0 
L 2847 2094 
Q 2847 2600 2669 2842 
Q 2491 3084 2119 3084 
Q 1678 3084 1418 2786 
Q 1159 2488 1159 1978 
L 1159 0 
L 581 0 
L 581 3500 
L 1159 3500 
L 1159 2956 
Q 1356 3278 1631 3431 
Q 1906 3584 2284 3584 
Q 2666 3584 2933 3390 
Q 3200 3197 3328 2828 
z
" transform="scale(0.015625)"/>
       <path id="DejaVuSans-62" d="M 3116 1747 
Q 3116 2381 2855 2742 
Q 2594 3103 2138 3103 
Q 1681 3103 1420 2742 
Q 1159 2381 1159 1747 
Q 1159 1113 1420 752 
Q 1681 391 2138 391 
Q 2594 391 2855 752 
Q 3116 1113 3116 1747 
z
M 1159 2969 
Q 1341 3281 1617 3432 
Q 1894 3584 2278 3584 
Q 2916 3584 3314 3078 
Q 3713 2572 3713 1747 
Q 3713 922 3314 415 
Q 2916 -91 2278 -91 
Q 1894 -91 1617 61 
Q 1341 213 1159 525 
L 1159 0 
L 581 0 
L 581 4863 
L 1159 4863 
L 1159 2969 
z
" transform="scale(0.015625)"/>
      </defs>
      <use xlink:href="#DejaVuSans-43"/>
      <use xlink:href="#DejaVuSans-6f" x="69.824219"/>
      <use xlink:href="#DejaVuSans-64" x="131.005859"/>
      <use xlink:href="#DejaVuSans-6f" x="194.482422"/>
      <use xlink:href="#DejaVuSans-6e" x="255.664062"/>
      <use xlink:href="#DejaVuSans-20" x="319.042969"/>
      <use xlink:href="#DejaVuSans-6e" x="350.830078"/>
      <use xlink:href="#DejaVuSans-75" x="414.208984"/>
      <use xlink:href="#DejaVuSans-6d" x="477.587891"/>
      <use xlink:href="#DejaVuSans-62" x="575"/>
      <use xlink:href="#DejaVuSans-65" x="638.476562"/>
      <use xlink:href="#DejaVuSans-72" x="700"/>
     </g>
    </g>
    <g id="PathCollection_4">
     <g>
      <use xlink:href="#m6c304054de" x="724.499152" y="629.161979" style="fill: #ff8c00; fill-opacity: 0.5; stroke: #000000; stroke-opacity: 0.5"/>
     </g>
    </g>
    <g id="text_18">
     <!-- Codon+GC -->
     <g transform="translate(742.499152 631.786979) scale(0.1 -0.1)">
      <defs>
       <path id="DejaVuSans-2b" d="M 2944 4013 
L 2944 2272 
L 4684 2272 
L 4684 1741 
L 2944 1741 
L 2944 0 
L 2419 0 
L 2419 1741 
L 678 1741 
L 678 2272 
L 2419 2272 
L 2419 4013 
L 2944 4013 
z
" transform="scale(0.015625)"/>
       <path id="DejaVuSans-47" d="M 3809 666 
L 3809 1919 
L 2778 1919 
L 2778 2438 
L 4434 2438 
L 4434 434 
Q 4069 175 3628 42 
Q 3188 -91 2688 -91 
Q 1594 -91 976 548 
Q 359 1188 359 2328 
Q 359 3472 976 4111 
Q 1594 4750 2688 4750 
Q 3144 4750 3555 4637 
Q 3966 4525 4313 4306 
L 4313 3634 
Q 3963 3931 3569 4081 
Q 3175 4231 2741 4231 
Q 1884 4231 1454 3753 
Q 1025 3275 1025 2328 
Q 1025 1384 1454 906 
Q 1884 428 2741 428 
Q 3075 428 3337 486 
Q 3600 544 3809 666 
z
" transform="scale(0.015625)"/>
      </defs>
      <use xlink:href="#DejaVuSans-43"/>
      <use xlink:href="#DejaVuSans-6f" x="69.824219"/>
      <use xlink:href="#DejaVuSans-64" x="131.005859"/>
      <use xlink:href="#DejaVuSans-6f" x="194.482422"/>
      <use xlink:href="#DejaVuSans-6e" x="255.664062"/>
      <use xlink:href="#DejaVuSans-2b" x="319.042969"/>
      <use xlink:href="#DejaVuSans-47" x="402.832031"/>
      <use xlink:href="#DejaVuSans-43" x="480.322266"/>
     </g>
    </g>
   </g>
  </g>
  <g id="axes_2">
   <g id="patch_6">
    <path d="M 52.160938 135.038095 
L 825.611652 135.038095 
L 825.611652 50.4 
L 52.160938 50.4 
z
" style="fill: #ffffff"/>
   </g>
   <g id="PolyCollection_3">
    <defs>
     <path id="m7a459adb9d" d="M 87.317788 -549.627332 
L 87.317788 -545.384821 
L 114.361519 -545.384821 
L 114.361519 -545.384821 
L 141.405251 -545.384821 
L 141.405251 -545.384821 
L 168.448982 -545.384821 
L 168.448982 -545.384821 
L 195.492713 -545.384821 
L 195.492713 -545.384821 
L 222.536444 -545.384821 
L 222.536444 -545.384821 
L 249.580176 -545.384821 
L 249.580176 -545.384821 
L 276.623907 -545.384821 
L 276.623907 -545.384821 
L 303.667638 -545.384821 
L 303.667638 -545.384821 
L 330.71137 -545.384821 
L 330.71137 -545.384821 
L 357.755101 -545.384821 
L 357.755101 -545.384821 
L 384.798832 -545.384821 
L 384.798832 -545.384821 
L 411.842563 -545.384821 
L 411.842563 -545.384821 
L 438.886295 -545.384821 
L 438.886295 -545.384821 
L 465.930026 -545.384821 
L 465.930026 -545.384821 
L 492.973757 -545.384821 
L 492.973757 -545.384821 
L 520.017488 -545.384821 
L 520.017488 -545.384821 
L 547.06122 -545.384821 
L 547.06122 -545.384821 
L 574.104951 -545.384821 
L 574.104951 -545.384821 
L 601.148682 -545.384821 
L 601.148682 -545.384821 
L 628.192414 -545.384821 
L 628.192414 -545.384821 
L 655.236145 -545.384821 
L 655.236145 -545.384821 
L 682.279876 -545.384821 
L 682.279876 -545.384821 
L 709.323607 -545.384821 
L 709.323607 -545.384821 
L 736.367339 -545.384821 
L 736.367339 -545.384821 
L 763.41107 -545.384821 
L 763.41107 -545.384821 
L 790.454801 -545.384821 
L 790.454801 -545.384821 
L 790.454801 -549.627332 
L 790.454801 -549.627332 
L 790.454801 -549.627332 
L 763.41107 -549.627332 
L 763.41107 -545.384821 
L 736.367339 -545.384821 
L 736.367339 -545.384821 
L 709.323607 -545.384821 
L 709.323607 -545.384821 
L 682.279876 -545.384821 
L 682.279876 -545.384821 
L 655.236145 -545.384821 
L 655.236145 -545.384821 
L 628.192414 -545.384821 
L 628.192414 -545.384821 
L 601.148682 -545.384821 
L 601.148682 -545.384821 
L 574.104951 -545.384821 
L 574.104951 -545.384821 
L 547.06122 -545.384821 
L 547.06122 -545.384821 
L 520.017488 -545.384821 
L 520.017488 -549.627332 
L 492.973757 -549.627332 
L 492.973757 -545.384821 
L 465.930026 -545.384821 
L 465.930026 -549.627332 
L 438.886295 -549.627332 
L 438.886295 -545.384821 
L 411.842563 -545.384821 
L 411.842563 -549.627332 
L 384.798832 -549.627332 
L 384.798832 -545.384821 
L 357.755101 -545.384821 
L 357.755101 -566.597377 
L 330.71137 -566.597377 
L 330.71137 -575.082399 
L 303.667638 -575.082399 
L 303.667638 -625.992531 
L 276.623907 -625.992531 
L 276.623907 -604.779976 
L 249.580176 -604.779976 
L 249.580176 -579.32491 
L 222.536444 -579.32491 
L 222.536444 -558.112355 
L 195.492713 -558.112355 
L 195.492713 -549.627332 
L 168.448982 -549.627332 
L 168.448982 -562.354866 
L 141.405251 -562.354866 
L 141.405251 -549.627332 
L 114.361519 -549.627332 
L 114.361519 -549.627332 
L 87.317788 -549.627332 
z
" style="stroke: #000000"/>
    </defs>
    <g clip-path="url(#p97283ea0e9)">
     <use xlink:href="#m7a459adb9d" x="0" y="680.422917" style="fill: #800080; fill-opacity: 0.75; stroke: #000000"/>
    </g>
   </g>
   <g id="matplotlib.axis_3">
    <g id="xtick_6">
     <g id="line2d_17">
      <g>
       <use xlink:href="#mdd8685602c" x="158.034305" y="135.038095" style="stroke: #000000; stroke-width: 0.8"/>
      </g>
     </g>
    </g>
    <g id="xtick_7">
     <g id="line2d_18">
      <g>
       <use xlink:href="#mdd8685602c" x="292.306173" y="135.038095" style="stroke: #000000; stroke-width: 0.8"/>
      </g>
     </g>
    </g>
    <g id="xtick_8">
     <g id="line2d_19">
      <g>
       <use xlink:href="#mdd8685602c" x="426.57804" y="135.038095" style="stroke: #000000; stroke-width: 0.8"/>
      </g>
     </g>
    </g>
    <g id="xtick_9">
     <g id="line2d_20">
      <g>
       <use xlink:href="#mdd8685602c" x="560.849908" y="135.038095" style="stroke: #000000; stroke-width: 0.8"/>
      </g>
     </g>
    </g>
    <g id="xtick_10">
     <g id="line2d_21">
      <g>
       <use xlink:href="#mdd8685602c" x="695.121775" y="135.038095" style="stroke: #000000; stroke-width: 0.8"/>
      </g>
     </g>
    </g>
   </g>
   <g id="matplotlib.axis_4">
    <g id="ytick_10"/>
    <g id="ytick_11"/>
    <g id="ytick_12"/>
    <g id="ytick_13"/>
   </g>
   <g id="patch_7">
    <path d="M 52.160938 135.038095 
L 825.611652 135.038095 
" style="fill: none; stroke: #000000; stroke-width: 0.8; stroke-linejoin: miter; stroke-linecap: square"/>
   </g>
  </g>
  <g id="axes_3">
   <g id="patch_8">
    <path d="M 852.282366 642.866667 
L 985.635937 642.866667 
L 985.635937 151.965714 
L 852.282366 151.965714 
z
" style="fill: #ffffff"/>
   </g>
   <g id="PolyCollection_4">
    <defs>
     <path id="maae55cd33d" d="M 895.217174 -177.780256 
L 858.343892 -177.780256 
L 858.343892 -177.780256 
L 858.343892 -215.040781 
L 858.343892 -215.040781 
L 858.343892 -252.301305 
L 858.343892 -252.301305 
L 858.343892 -289.56183 
L 858.343892 -289.56183 
L 858.343892 -326.822354 
L 858.343892 -326.822354 
L 858.343892 -364.082879 
L 919.799362 -364.082879 
L 919.799362 -364.082879 
L 919.799362 -326.822354 
L 944.38155 -326.822354 
L 944.38155 -289.56183 
L 944.38155 -289.56183 
L 944.38155 -252.301305 
L 944.38155 -252.301305 
L 944.38155 -215.040781 
L 913.653815 -215.040781 
L 913.653815 -177.780256 
L 895.217174 -177.780256 
z
" style="stroke: #000000; stroke-opacity: 0.5"/>
    </defs>
    <g clip-path="url(#p891db7fa21)">
     <use xlink:href="#maae55cd33d" x="0" y="680.422917" style="fill: #4169e1; fill-opacity: 0.5; stroke: #000000; stroke-opacity: 0.5"/>
    </g>
   </g>
   <g id="PolyCollection_5">
    <defs>
     <path id="m16b95d93a4" d="M 874.156568 -59.86993 
L 858.343892 -59.86993 
L 858.343892 -59.86993 
L 858.343892 -103.313487 
L 858.343892 -103.313487 
L 858.343892 -146.757044 
L 858.343892 -146.757044 
L 858.343892 -190.200602 
L 858.343892 -190.200602 
L 858.343892 -233.644159 
L 858.343892 -233.644159 
L 858.343892 -277.087717 
L 858.343892 -277.087717 
L 858.343892 -320.531274 
L 911.052814 -320.531274 
L 911.052814 -320.531274 
L 911.052814 -277.087717 
L 979.574412 -277.087717 
L 979.574412 -233.644159 
L 911.052814 -233.644159 
L 911.052814 -190.200602 
L 926.86549 -190.200602 
L 926.86549 -146.757044 
L 895.240137 -146.757044 
L 895.240137 -103.313487 
L 863.614784 -103.313487 
L 863.614784 -59.86993 
L 874.156568 -59.86993 
z
" style="stroke: #000000; stroke-opacity: 0.5"/>
    </defs>
    <g clip-path="url(#p891db7fa21)">
     <use xlink:href="#m16b95d93a4" x="0" y="680.422917" style="fill: #ff8c00; fill-opacity: 0.5; stroke: #000000; stroke-opacity: 0.5"/>
    </g>
   </g>
   <g id="matplotlib.axis_5">
    <g id="xtick_11"/>
    <g id="xtick_12"/>
    <g id="xtick_13"/>
   </g>
   <g id="matplotlib.axis_6">
    <g id="ytick_14">
     <g id="line2d_22">
      <g>
       <use xlink:href="#ma279c8e7c6" x="852.282366" y="632.268396" style="stroke: #000000; stroke-width: 0.8"/>
      </g>
     </g>
    </g>
    <g id="ytick_15">
     <g id="line2d_23">
      <g>
       <use xlink:href="#ma279c8e7c6" x="852.282366" y="574.276154" style="stroke: #000000; stroke-width: 0.8"/>
      </g>
     </g>
    </g>
    <g id="ytick_16">
     <g id="line2d_24">
      <g>
       <use xlink:href="#ma279c8e7c6" x="852.282366" y="516.283912" style="stroke: #000000; stroke-width: 0.8"/>
      </g>
     </g>
    </g>
    <g id="ytick_17">
     <g id="line2d_25">
      <g>
       <use xlink:href="#ma279c8e7c6" x="852.282366" y="458.29167" style="stroke: #000000; stroke-width: 0.8"/>
      </g>
     </g>
    </g>
    <g id="ytick_18">
     <g id="line2d_26">
      <g>
       <use xlink:href="#ma279c8e7c6" x="852.282366" y="400.299427" style="stroke: #000000; stroke-width: 0.8"/>
      </g>
     </g>
    </g>
    <g id="ytick_19">
     <g id="line2d_27">
      <g>
       <use xlink:href="#ma279c8e7c6" x="852.282366" y="342.307185" style="stroke: #000000; stroke-width: 0.8"/>
      </g>
     </g>
    </g>
    <g id="ytick_20">
     <g id="line2d_28">
      <g>
       <use xlink:href="#ma279c8e7c6" x="852.282366" y="284.314943" style="stroke: #000000; stroke-width: 0.8"/>
      </g>
     </g>
    </g>
    <g id="ytick_21">
     <g id="line2d_29">
      <g>
       <use xlink:href="#ma279c8e7c6" x="852.282366" y="226.322701" style="stroke: #000000; stroke-width: 0.8"/>
      </g>
     </g>
    </g>
    <g id="ytick_22">
     <g id="line2d_30">
      <g>
       <use xlink:href="#ma279c8e7c6" x="852.282366" y="168.330458" style="stroke: #000000; stroke-width: 0.8"/>
      </g>
     </g>
    </g>
   </g>
   <g id="patch_9">
    <path d="M 852.282366 642.866667 
L 852.282366 151.965714 
" style="fill: none; stroke: #000000; stroke-width: 0.8; stroke-linejoin: miter; stroke-linecap: square"/>
   </g>
  </g>
  <g id="text_19">
   <!-- Archaea - Kendall's Tau correlation coefficients for genetic code: TrM -->
   <g transform="translate(267.68625 16.318125) scale(0.12 -0.12)">
    <defs>
     <path id="DejaVuSans-41" d="M 2188 4044 
L 1331 1722 
L 3047 1722 
L 2188 4044 
z
M 1831 4666 
L 2547 4666 
L 4325 0 
L 3669 0 
L 3244 1197 
L 1141 1197 
L 716 0 
L 50 0 
L 1831 4666 
z
" transform="scale(0.015625)"/>
     <path id="DejaVuSans-2d" d="M 313 2009 
L 1997 2009 
L 1997 1497 
L 313 1497 
L 313 2009 
z
" transform="scale(0.015625)"/>
     <path id="DejaVuSans-4b" d="M 628 4666 
L 1259 4666 
L 1259 2694 
L 3353 4666 
L 4166 4666 
L 1850 2491 
L 4331 0 
L 3500 0 
L 1259 2247 
L 1259 0 
L 628 0 
L 628 4666 
z
" transform="scale(0.015625)"/>
     <path id="DejaVuSans-27" d="M 1147 4666 
L 1147 2931 
L 616 2931 
L 616 4666 
L 1147 4666 
z
" transform="scale(0.015625)"/>
     <path id="DejaVuSans-73" d="M 2834 3397 
L 2834 2853 
Q 2591 2978 2328 3040 
Q 2066 3103 1784 3103 
Q 1356 3103 1142 2972 
Q 928 2841 928 2578 
Q 928 2378 1081 2264 
Q 1234 2150 1697 2047 
L 1894 2003 
Q 2506 1872 2764 1633 
Q 3022 1394 3022 966 
Q 3022 478 2636 193 
Q 2250 -91 1575 -91 
Q 1294 -91 989 -36 
Q 684 19 347 128 
L 347 722 
Q 666 556 975 473 
Q 1284 391 1588 391 
Q 1994 391 2212 530 
Q 2431 669 2431 922 
Q 2431 1156 2273 1281 
Q 2116 1406 1581 1522 
L 1381 1569 
Q 847 1681 609 1914 
Q 372 2147 372 2553 
Q 372 3047 722 3315 
Q 1072 3584 1716 3584 
Q 2034 3584 2315 3537 
Q 2597 3491 2834 3397 
z
" transform="scale(0.015625)"/>
     <path id="DejaVuSans-54" d="M -19 4666 
L 3928 4666 
L 3928 4134 
L 2272 4134 
L 2272 0 
L 1638 0 
L 1638 4134 
L -19 4134 
L -19 4666 
z
" transform="scale(0.015625)"/>
     <path id="DejaVuSans-3a" d="M 750 794 
L 1409 794 
L 1409 0 
L 750 0 
L 750 794 
z
M 750 3309 
L 1409 3309 
L 1409 2516 
L 750 2516 
L 750 3309 
z
" transform="scale(0.015625)"/>
     <path id="DejaVuSans-4d" d="M 628 4666 
L 1569 4666 
L 2759 1491 
L 3956 4666 
L 4897 4666 
L 4897 0 
L 4281 0 
L 4281 4097 
L 3078 897 
L 2444 897 
L 1241 4097 
L 1241 0 
L 628 0 
L 628 4666 
z
" transform="scale(0.015625)"/>
    </defs>
    <use xlink:href="#DejaVuSans-41"/>
    <use xlink:href="#DejaVuSans-72" x="68.408203"/>
    <use xlink:href="#DejaVuSans-63" x="107.271484"/>
    <use xlink:href="#DejaVuSans-68" x="162.251953"/>
    <use xlink:href="#DejaVuSans-61" x="225.630859"/>
    <use xlink:href="#DejaVuSans-65" x="286.910156"/>
    <use xlink:href="#DejaVuSans-61" x="348.433594"/>
    <use xlink:href="#DejaVuSans-20" x="409.712891"/>
    <use xlink:href="#DejaVuSans-2d" x="441.5"/>
    <use xlink:href="#DejaVuSans-20" x="477.583984"/>
    <use xlink:href="#DejaVuSans-4b" x="509.371094"/>
    <use xlink:href="#DejaVuSans-65" x="569.947266"/>
    <use xlink:href="#DejaVuSans-6e" x="631.470703"/>
    <use xlink:href="#DejaVuSans-64" x="694.849609"/>
    <use xlink:href="#DejaVuSans-61" x="758.326172"/>
    <use xlink:href="#DejaVuSans-6c" x="819.605469"/>
    <use xlink:href="#DejaVuSans-6c" x="847.388672"/>
    <use xlink:href="#DejaVuSans-27" x="875.171875"/>
    <use xlink:href="#DejaVuSans-73" x="902.662109"/>
    <use xlink:href="#DejaVuSans-20" x="954.761719"/>
    <use xlink:href="#DejaVuSans-54" x="986.548828"/>
    <use xlink:href="#DejaVuSans-61" x="1031.132812"/>
    <use xlink:href="#DejaVuSans-75" x="1092.412109"/>
    <use xlink:href="#DejaVuSans-20" x="1155.791016"/>
    <use xlink:href="#DejaVuSans-63" x="1187.578125"/>
    <use xlink:href="#DejaVuSans-6f" x="1242.558594"/>
    <use xlink:href="#DejaVuSans-72" x="1303.740234"/>
    <use xlink:href="#DejaVuSans-72" x="1343.103516"/>
    <use xlink:href="#DejaVuSans-65" x="1381.966797"/>
    <use xlink:href="#DejaVuSans-6c" x="1443.490234"/>
    <use xlink:href="#DejaVuSans-61" x="1471.273438"/>
    <use xlink:href="#DejaVuSans-74" x="1532.552734"/>
    <use xlink:href="#DejaVuSans-69" x="1571.761719"/>
    <use xlink:href="#DejaVuSans-6f" x="1599.544922"/>
    <use xlink:href="#DejaVuSans-6e" x="1660.726562"/>
    <use xlink:href="#DejaVuSans-20" x="1724.105469"/>
    <use xlink:href="#DejaVuSans-63" x="1755.892578"/>
    <use xlink:href="#DejaVuSans-6f" x="1810.873047"/>
    <use xlink:href="#DejaVuSans-65" x="1872.054688"/>
    <use xlink:href="#DejaVuSans-66" x="1933.578125"/>
    <use xlink:href="#DejaVuSans-66" x="1968.783203"/>
    <use xlink:href="#DejaVuSans-69" x="2003.988281"/>
    <use xlink:href="#DejaVuSans-63" x="2031.771484"/>
    <use xlink:href="#DejaVuSans-69" x="2086.751953"/>
    <use xlink:href="#DejaVuSans-65" x="2114.535156"/>
    <use xlink:href="#DejaVuSans-6e" x="2176.058594"/>
    <use xlink:href="#DejaVuSans-74" x="2239.4375"/>
    <use xlink:href="#DejaVuSans-73" x="2278.646484"/>
    <use xlink:href="#DejaVuSans-20" x="2330.746094"/>
    <use xlink:href="#DejaVuSans-66" x="2362.533203"/>
    <use xlink:href="#DejaVuSans-6f" x="2397.738281"/>
    <use xlink:href="#DejaVuSans-72" x="2458.919922"/>
    <use xlink:href="#DejaVuSans-20" x="2500.033203"/>
    <use xlink:href="#DejaVuSans-67" x="2531.820312"/>
    <use xlink:href="#DejaVuSans-65" x="2595.296875"/>
    <use xlink:href="#DejaVuSans-6e" x="2656.820312"/>
    <use xlink:href="#DejaVuSans-65" x="2720.199219"/>
    <use xlink:href="#DejaVuSans-74" x="2781.722656"/>
    <use xlink:href="#DejaVuSans-69" x="2820.931641"/>
    <use xlink:href="#DejaVuSans-63" x="2848.714844"/>
    <use xlink:href="#DejaVuSans-20" x="2903.695312"/>
    <use xlink:href="#DejaVuSans-63" x="2935.482422"/>
    <use xlink:href="#DejaVuSans-6f" x="2990.462891"/>
    <use xlink:href="#DejaVuSans-64" x="3051.644531"/>
    <use xlink:href="#DejaVuSans-65" x="3115.121094"/>
    <use xlink:href="#DejaVuSans-3a" x="3176.644531"/>
    <use xlink:href="#DejaVuSans-20" x="3210.335938"/>
    <use xlink:href="#DejaVuSans-54" x="3242.123047"/>
    <use xlink:href="#DejaVuSans-72" x="3288.457031"/>
    <use xlink:href="#DejaVuSans-4d" x="3329.570312"/>
   </g>
  </g>
 </g>
 <defs>
  <clipPath id="pac7b2d1c18">
   <rect x="52.160938" y="151.965714" width="773.450714" height="490.900952"/>
  </clipPath>
  <clipPath id="p97283ea0e9">
   <rect x="52.160938" y="50.4" width="773.450714" height="84.638095"/>
  </clipPath>
  <clipPath id="p891db7fa21">
   <rect x="852.282366" y="151.965714" width="133.353571" height="490.900952"/>
  </clipPath>
 </defs>
</svg>
