<?xml version="1.0" encoding="utf-8" standalone="no"?>
<!DOCTYPE svg PUBLIC "-//W3C//DTD SVG 1.1//EN"
  "http://www.w3.org/Graphics/SVG/1.1/DTD/svg11.dtd">
<svg xmlns:xlink="http://www.w3.org/1999/xlink" width="992.835937pt" height="680.422917pt" viewBox="0 0 992.835937 680.422917" xmlns="http://www.w3.org/2000/svg" version="1.1">
 <metadata>
  <rdf:RDF xmlns:dc="http://purl.org/dc/elements/1.1/" xmlns:cc="http://creativecommons.org/ns#" xmlns:rdf="http://www.w3.org/1999/02/22-rdf-syntax-ns#">
   <cc:Work>
    <dc:type rdf:resource="http://purl.org/dc/dcmitype/StillImage"/>
    <dc:date>2025-01-27T09:32:03.609462</dc:date>
    <dc:format>image/svg+xml</dc:format>
    <dc:creator>
     <cc:Agent>
      <dc:title>Matplotlib v3.6.3, https://matplotlib.org/</dc:title>
     </cc:Agent>
    </dc:creator>
   </cc:Work>
  </rdf:RDF>
 </metadata>
 <defs>
  <style type="text/css">*{stroke-linejoin: round; stroke-linecap: butt}</style>
 </defs>
 <g id="figure_1">
  <g id="patch_1">
   <path d="M 0 680.422917 
L 992.835937 680.422917 
L 992.835937 0 
L 0 0 
z
" style="fill: #ffffff"/>
  </g>
  <g id="axes_1">
   <g id="patch_2">
    <path d="M 52.160938 642.866667 
L 825.611652 642.866667 
L 825.611652 151.965714 
L 52.160938 151.965714 
z
" style="fill: #ffffff"/>
   </g>
   <g id="PathCollection_1">
    <defs>
     <path id="m61ea0ce657" d="M 0 3 
C 0.795609 3 1.55874 2.683901 2.12132 2.12132 
C 2.683901 1.55874 3 0.795609 3 0 
C 3 -0.795609 2.683901 -1.55874 2.12132 -2.12132 
C 1.55874 -2.683901 0.795609 -3 0 -3 
C -0.795609 -3 -1.55874 -2.683901 -2.12132 -2.12132 
C -2.683901 -1.55874 -3 -0.795609 -3 0 
C -3 0.795609 -2.683901 1.55874 -2.12132 2.12132 
C -1.55874 2.683901 -0.795609 3 0 3 
z
" style="stroke: #000000; stroke-opacity: 0.5"/>
    </defs>
    <g clip-path="url(#pe71b630965)">
     <use xlink:href="#m61ea0ce657" x="256.092348" y="414.009078" style="fill: #4169e1; fill-opacity: 0.5; stroke: #000000; stroke-opacity: 0.5"/>
     <use xlink:href="#m61ea0ce657" x="475.510733" y="263.945729" style="fill: #4169e1; fill-opacity: 0.5; stroke: #000000; stroke-opacity: 0.5"/>
     <use xlink:href="#m61ea0ce657" x="446.409142" y="285.781572" style="fill: #4169e1; fill-opacity: 0.5; stroke: #000000; stroke-opacity: 0.5"/>
     <use xlink:href="#m61ea0ce657" x="165.760283" y="378.700055" style="fill: #4169e1; fill-opacity: 0.5; stroke: #000000; stroke-opacity: 0.5"/>
     <use xlink:href="#m61ea0ce657" x="717.455011" y="259.764397" style="fill: #4169e1; fill-opacity: 0.5; stroke: #000000; stroke-opacity: 0.5"/>
     <use xlink:href="#m61ea0ce657" x="323.581686" y="364.29769" style="fill: #4169e1; fill-opacity: 0.5; stroke: #000000; stroke-opacity: 0.5"/>
     <use xlink:href="#m61ea0ce657" x="174.117256" y="372.660353" style="fill: #4169e1; fill-opacity: 0.5; stroke: #000000; stroke-opacity: 0.5"/>
     <use xlink:href="#m61ea0ce657" x="382.028329" y="321.090596" style="fill: #4169e1; fill-opacity: 0.5; stroke: #000000; stroke-opacity: 0.5"/>
     <use xlink:href="#m61ea0ce657" x="664.99668" y="206.800863" style="fill: #4169e1; fill-opacity: 0.5; stroke: #000000; stroke-opacity: 0.5"/>
     <use xlink:href="#m61ea0ce657" x="249.483608" y="464.263485" style="fill: #4169e1; fill-opacity: 0.5; stroke: #000000; stroke-opacity: 0.5"/>
     <use xlink:href="#m61ea0ce657" x="218.416226" y="398.388348" style="fill: #4169e1; fill-opacity: 0.5; stroke: #000000; stroke-opacity: 0.5"/>
     <use xlink:href="#m61ea0ce657" x="767.9696" y="217.486488" style="fill: #4169e1; fill-opacity: 0.5; stroke: #000000; stroke-opacity: 0.5"/>
     <use xlink:href="#m61ea0ce657" x="446.822571" y="365.673247" style="fill: #4169e1; fill-opacity: 0.5; stroke: #000000; stroke-opacity: 0.5"/>
     <use xlink:href="#m61ea0ce657" x="120.386742" y="453.964025" style="fill: #4169e1; fill-opacity: 0.5; stroke: #000000; stroke-opacity: 0.5"/>
     <use xlink:href="#m61ea0ce657" x="106.981483" y="400.535898" style="fill: #4169e1; fill-opacity: 0.5; stroke: #000000; stroke-opacity: 0.5"/>
     <use xlink:href="#m61ea0ce657" x="594.109569" y="225.849151" style="fill: #4169e1; fill-opacity: 0.5; stroke: #000000; stroke-opacity: 0.5"/>
     <use xlink:href="#m61ea0ce657" x="206.779743" y="401.465083" style="fill: #4169e1; fill-opacity: 0.5; stroke: #000000; stroke-opacity: 0.5"/>
     <use xlink:href="#m61ea0ce657" x="415.836698" y="257.906028" style="fill: #4169e1; fill-opacity: 0.5; stroke: #000000; stroke-opacity: 0.5"/>
     <use xlink:href="#m61ea0ce657" x="726.915648" y="279.741871" style="fill: #4169e1; fill-opacity: 0.5; stroke: #000000; stroke-opacity: 0.5"/>
     <use xlink:href="#m61ea0ce657" x="95.184821" y="466.972613" style="fill: #4169e1; fill-opacity: 0.5; stroke: #000000; stroke-opacity: 0.5"/>
     <use xlink:href="#m61ea0ce657" x="405.746727" y="255.583066" style="fill: #4169e1; fill-opacity: 0.5; stroke: #000000; stroke-opacity: 0.5"/>
     <use xlink:href="#m61ea0ce657" x="363.235719" y="240.251516" style="fill: #4169e1; fill-opacity: 0.5; stroke: #000000; stroke-opacity: 0.5"/>
     <use xlink:href="#m61ea0ce657" x="569.509357" y="308.546601" style="fill: #4169e1; fill-opacity: 0.5; stroke: #000000; stroke-opacity: 0.5"/>
     <use xlink:href="#m61ea0ce657" x="164.590837" y="413.544485" style="fill: #4169e1; fill-opacity: 0.5; stroke: #000000; stroke-opacity: 0.5"/>
     <use xlink:href="#m61ea0ce657" x="657.233287" y="174.279394" style="fill: #4169e1; fill-opacity: 0.5; stroke: #000000; stroke-opacity: 0.5"/>
     <use xlink:href="#m61ea0ce657" x="457.151047" y="282.064833" style="fill: #4169e1; fill-opacity: 0.5; stroke: #000000; stroke-opacity: 0.5"/>
     <use xlink:href="#m61ea0ce657" x="644.205397" y="294.608828" style="fill: #4169e1; fill-opacity: 0.5; stroke: #000000; stroke-opacity: 0.5"/>
     <use xlink:href="#m61ea0ce657" x="511.355351" y="301.297437" style="fill: #4169e1; fill-opacity: 0.5; stroke: #000000; stroke-opacity: 0.5"/>
     <use xlink:href="#m61ea0ce657" x="294.000749" y="314.586302" style="fill: #4169e1; fill-opacity: 0.5; stroke: #000000; stroke-opacity: 0.5"/>
     <use xlink:href="#m61ea0ce657" x="541.693899" y="260.693582" style="fill: #4169e1; fill-opacity: 0.5; stroke: #000000; stroke-opacity: 0.5"/>
     <use xlink:href="#m61ea0ce657" x="470.897193" y="246.99274" style="fill: #4169e1; fill-opacity: 0.5; stroke: #000000; stroke-opacity: 0.5"/>
     <use xlink:href="#m61ea0ce657" x="692.658895" y="263.481137" style="fill: #4169e1; fill-opacity: 0.5; stroke: #000000; stroke-opacity: 0.5"/>
     <use xlink:href="#m61ea0ce657" x="489.291277" y="270.450023" style="fill: #4169e1; fill-opacity: 0.5; stroke: #000000; stroke-opacity: 0.5"/>
     <use xlink:href="#m61ea0ce657" x="286.554245" y="414.009078" style="fill: #4169e1; fill-opacity: 0.5; stroke: #000000; stroke-opacity: 0.5"/>
     <use xlink:href="#m61ea0ce657" x="595.287108" y="290.427497" style="fill: #4169e1; fill-opacity: 0.5; stroke: #000000; stroke-opacity: 0.5"/>
     <use xlink:href="#m61ea0ce657" x="408.466785" y="279.741871" style="fill: #4169e1; fill-opacity: 0.5; stroke: #000000; stroke-opacity: 0.5"/>
     <use xlink:href="#m61ea0ce657" x="222.363575" y="358.722581" style="fill: #4169e1; fill-opacity: 0.5; stroke: #000000; stroke-opacity: 0.5"/>
     <use xlink:href="#m61ea0ce657" x="696.536155" y="263.016544" style="fill: #4169e1; fill-opacity: 0.5; stroke: #000000; stroke-opacity: 0.5"/>
     <use xlink:href="#m61ea0ce657" x="546.263231" y="221.203227" style="fill: #4169e1; fill-opacity: 0.5; stroke: #000000; stroke-opacity: 0.5"/>
     <use xlink:href="#m61ea0ce657" x="596.490365" y="326.859445" style="fill: #4169e1; fill-opacity: 0.5; stroke: #000000; stroke-opacity: 0.5"/>
     <use xlink:href="#m61ea0ce657" x="615.846021" y="238.857739" style="fill: #4169e1; fill-opacity: 0.5; stroke: #000000; stroke-opacity: 0.5"/>
     <use xlink:href="#m61ea0ce657" x="413.094457" y="351.289102" style="fill: #4169e1; fill-opacity: 0.5; stroke: #000000; stroke-opacity: 0.5"/>
     <use xlink:href="#m61ea0ce657" x="581.105359" y="217.951081" style="fill: #4169e1; fill-opacity: 0.5; stroke: #000000; stroke-opacity: 0.5"/>
     <use xlink:href="#m61ea0ce657" x="123.824462" y="395.425381" style="fill: #4169e1; fill-opacity: 0.5; stroke: #000000; stroke-opacity: 0.5"/>
     <use xlink:href="#m61ea0ce657" x="147.183538" y="374.518723" style="fill: #4169e1; fill-opacity: 0.5; stroke: #000000; stroke-opacity: 0.5"/>
     <use xlink:href="#m61ea0ce657" x="538.555832" y="331.776221" style="fill: #4169e1; fill-opacity: 0.5; stroke: #000000; stroke-opacity: 0.5"/>
     <use xlink:href="#m61ea0ce657" x="339.491294" y="238.740826" style="fill: #4169e1; fill-opacity: 0.5; stroke: #000000; stroke-opacity: 0.5"/>
     <use xlink:href="#m61ea0ce657" x="341.193295" y="354.541249" style="fill: #4169e1; fill-opacity: 0.5; stroke: #000000; stroke-opacity: 0.5"/>
     <use xlink:href="#m61ea0ce657" x="772.366124" y="264.874914" style="fill: #4169e1; fill-opacity: 0.5; stroke: #000000; stroke-opacity: 0.5"/>
     <use xlink:href="#m61ea0ce657" x="498.841325" y="269.056246" style="fill: #4169e1; fill-opacity: 0.5; stroke: #000000; stroke-opacity: 0.5"/>
     <use xlink:href="#m61ea0ce657" x="724.355649" y="227.707521" style="fill: #4169e1; fill-opacity: 0.5; stroke: #000000; stroke-opacity: 0.5"/>
     <use xlink:href="#m61ea0ce657" x="187.832657" y="349.430733" style="fill: #4169e1; fill-opacity: 0.5; stroke: #000000; stroke-opacity: 0.5"/>
     <use xlink:href="#m61ea0ce657" x="107.924674" y="417.725817" style="fill: #4169e1; fill-opacity: 0.5; stroke: #000000; stroke-opacity: 0.5"/>
     <use xlink:href="#m61ea0ce657" x="282.785196" y="429.340627" style="fill: #4169e1; fill-opacity: 0.5; stroke: #000000; stroke-opacity: 0.5"/>
     <use xlink:href="#m61ea0ce657" x="349.359266" y="427.482258" style="fill: #4169e1; fill-opacity: 0.5; stroke: #000000; stroke-opacity: 0.5"/>
     <use xlink:href="#m61ea0ce657" x="400.663668" y="332.705406" style="fill: #4169e1; fill-opacity: 0.5; stroke: #000000; stroke-opacity: 0.5"/>
     <use xlink:href="#m61ea0ce657" x="87.317788" y="421.907149" style="fill: #4169e1; fill-opacity: 0.5; stroke: #000000; stroke-opacity: 0.5"/>
     <use xlink:href="#m61ea0ce657" x="609.18284" y="321.332014" style="fill: #4169e1; fill-opacity: 0.5; stroke: #000000; stroke-opacity: 0.5"/>
     <use xlink:href="#m61ea0ce657" x="402.060571" y="340.603477" style="fill: #4169e1; fill-opacity: 0.5; stroke: #000000; stroke-opacity: 0.5"/>
     <use xlink:href="#m61ea0ce657" x="670.492166" y="222.132412" style="fill: #4169e1; fill-opacity: 0.5; stroke: #000000; stroke-opacity: 0.5"/>
     <use xlink:href="#m61ea0ce657" x="554.178479" y="341.997254" style="fill: #4169e1; fill-opacity: 0.5; stroke: #000000; stroke-opacity: 0.5"/>
     <use xlink:href="#m61ea0ce657" x="573.649759" y="340.978924" style="fill: #4169e1; fill-opacity: 0.5; stroke: #000000; stroke-opacity: 0.5"/>
     <use xlink:href="#m61ea0ce657" x="790.454801" y="199.367384" style="fill: #4169e1; fill-opacity: 0.5; stroke: #000000; stroke-opacity: 0.5"/>
     <use xlink:href="#m61ea0ce657" x="580.341626" y="262.08736" style="fill: #4169e1; fill-opacity: 0.5; stroke: #000000; stroke-opacity: 0.5"/>
     <use xlink:href="#m61ea0ce657" x="426.462302" y="219.344858" style="fill: #4169e1; fill-opacity: 0.5; stroke: #000000; stroke-opacity: 0.5"/>
     <use xlink:href="#m61ea0ce657" x="574.600919" y="443.34251" style="fill: #4169e1; fill-opacity: 0.5; stroke: #000000; stroke-opacity: 0.5"/>
     <use xlink:href="#m61ea0ce657" x="240.701096" y="442.135898" style="fill: #4169e1; fill-opacity: 0.5; stroke: #000000; stroke-opacity: 0.5"/>
    </g>
   </g>
   <g id="PathCollection_2">
    <defs>
     <path id="m8c5f507acc" d="M 0 3 
C 0.795609 3 1.55874 2.683901 2.12132 2.12132 
C 2.683901 1.55874 3 0.795609 3 0 
C 3 -0.795609 2.683901 -1.55874 2.12132 -2.12132 
C 1.55874 -2.683901 0.795609 -3 0 -3 
C -0.795609 -3 -1.55874 -2.683901 -2.12132 -2.12132 
C -2.683901 -1.55874 -3 -0.795609 -3 0 
C -3 0.795609 -2.683901 1.55874 -2.12132 2.12132 
C -1.55874 2.683901 -0.795609 3 0 3 
z
" style="stroke: #000000; stroke-opacity: 0.5"/>
    </defs>
    <g clip-path="url(#pe71b630965)">
     <use xlink:href="#m8c5f507acc" x="256.092348" y="485.787919" style="fill: #ff8c00; fill-opacity: 0.5; stroke: #000000; stroke-opacity: 0.5"/>
     <use xlink:href="#m8c5f507acc" x="475.510733" y="294.57904" style="fill: #ff8c00; fill-opacity: 0.5; stroke: #000000; stroke-opacity: 0.5"/>
     <use xlink:href="#m8c5f507acc" x="446.409142" y="317.769133" style="fill: #ff8c00; fill-opacity: 0.5; stroke: #000000; stroke-opacity: 0.5"/>
     <use xlink:href="#m8c5f507acc" x="165.760283" y="427.156363" style="fill: #ff8c00; fill-opacity: 0.5; stroke: #000000; stroke-opacity: 0.5"/>
     <use xlink:href="#m8c5f507acc" x="717.455011" y="230.259348" style="fill: #ff8c00; fill-opacity: 0.5; stroke: #000000; stroke-opacity: 0.5"/>
     <use xlink:href="#m8c5f507acc" x="323.581686" y="374.212944" style="fill: #ff8c00; fill-opacity: 0.5; stroke: #000000; stroke-opacity: 0.5"/>
     <use xlink:href="#m8c5f507acc" x="174.117256" y="390.839803" style="fill: #ff8c00; fill-opacity: 0.5; stroke: #000000; stroke-opacity: 0.5"/>
     <use xlink:href="#m8c5f507acc" x="382.028329" y="309.018154" style="fill: #ff8c00; fill-opacity: 0.5; stroke: #000000; stroke-opacity: 0.5"/>
     <use xlink:href="#m8c5f507acc" x="664.99668" y="243.385816" style="fill: #ff8c00; fill-opacity: 0.5; stroke: #000000; stroke-opacity: 0.5"/>
     <use xlink:href="#m8c5f507acc" x="249.483608" y="406.381232" style="fill: #ff8c00; fill-opacity: 0.5; stroke: #000000; stroke-opacity: 0.5"/>
     <use xlink:href="#m8c5f507acc" x="218.416226" y="449.652525" style="fill: #ff8c00; fill-opacity: 0.5; stroke: #000000; stroke-opacity: 0.5"/>
     <use xlink:href="#m8c5f507acc" x="767.9696" y="200.94357" style="fill: #ff8c00; fill-opacity: 0.5; stroke: #000000; stroke-opacity: 0.5"/>
     <use xlink:href="#m8c5f507acc" x="446.822571" y="409.85183" style="fill: #ff8c00; fill-opacity: 0.5; stroke: #000000; stroke-opacity: 0.5"/>
     <use xlink:href="#m8c5f507acc" x="120.386742" y="620.552987" style="fill: #ff8c00; fill-opacity: 0.5; stroke: #000000; stroke-opacity: 0.5"/>
     <use xlink:href="#m8c5f507acc" x="106.981483" y="477.474489" style="fill: #ff8c00; fill-opacity: 0.5; stroke: #000000; stroke-opacity: 0.5"/>
     <use xlink:href="#m8c5f507acc" x="594.109569" y="266.575909" style="fill: #ff8c00; fill-opacity: 0.5; stroke: #000000; stroke-opacity: 0.5"/>
     <use xlink:href="#m8c5f507acc" x="206.779743" y="468.723511" style="fill: #ff8c00; fill-opacity: 0.5; stroke: #000000; stroke-opacity: 0.5"/>
     <use xlink:href="#m8c5f507acc" x="415.836698" y="299.392078" style="fill: #ff8c00; fill-opacity: 0.5; stroke: #000000; stroke-opacity: 0.5"/>
     <use xlink:href="#m8c5f507acc" x="726.915648" y="240.322973" style="fill: #ff8c00; fill-opacity: 0.5; stroke: #000000; stroke-opacity: 0.5"/>
     <use xlink:href="#m8c5f507acc" x="95.184821" y="490.163408" style="fill: #ff8c00; fill-opacity: 0.5; stroke: #000000; stroke-opacity: 0.5"/>
     <use xlink:href="#m8c5f507acc" x="405.746727" y="228.071604" style="fill: #ff8c00; fill-opacity: 0.5; stroke: #000000; stroke-opacity: 0.5"/>
     <use xlink:href="#m8c5f507acc" x="363.235719" y="252.136794" style="fill: #ff8c00; fill-opacity: 0.5; stroke: #000000; stroke-opacity: 0.5"/>
     <use xlink:href="#m8c5f507acc" x="569.509357" y="343.584519" style="fill: #ff8c00; fill-opacity: 0.5; stroke: #000000; stroke-opacity: 0.5"/>
     <use xlink:href="#m8c5f507acc" x="164.590837" y="425.843717" style="fill: #ff8c00; fill-opacity: 0.5; stroke: #000000; stroke-opacity: 0.5"/>
     <use xlink:href="#m8c5f507acc" x="657.233287" y="195.255434" style="fill: #ff8c00; fill-opacity: 0.5; stroke: #000000; stroke-opacity: 0.5"/>
     <use xlink:href="#m8c5f507acc" x="457.151047" y="311.643448" style="fill: #ff8c00; fill-opacity: 0.5; stroke: #000000; stroke-opacity: 0.5"/>
     <use xlink:href="#m8c5f507acc" x="644.205397" y="318.206682" style="fill: #ff8c00; fill-opacity: 0.5; stroke: #000000; stroke-opacity: 0.5"/>
     <use xlink:href="#m8c5f507acc" x="511.355351" y="348.170173" style="fill: #ff8c00; fill-opacity: 0.5; stroke: #000000; stroke-opacity: 0.5"/>
     <use xlink:href="#m8c5f507acc" x="294.000749" y="318.644231" style="fill: #ff8c00; fill-opacity: 0.5; stroke: #000000; stroke-opacity: 0.5"/>
     <use xlink:href="#m8c5f507acc" x="541.693899" y="290.641099" style="fill: #ff8c00; fill-opacity: 0.5; stroke: #000000; stroke-opacity: 0.5"/>
     <use xlink:href="#m8c5f507acc" x="470.897193" y="280.812799" style="fill: #ff8c00; fill-opacity: 0.5; stroke: #000000; stroke-opacity: 0.5"/>
     <use xlink:href="#m8c5f507acc" x="692.658895" y="237.260131" style="fill: #ff8c00; fill-opacity: 0.5; stroke: #000000; stroke-opacity: 0.5"/>
     <use xlink:href="#m8c5f507acc" x="489.291277" y="309.455703" style="fill: #ff8c00; fill-opacity: 0.5; stroke: #000000; stroke-opacity: 0.5"/>
     <use xlink:href="#m8c5f507acc" x="286.554245" y="436.78244" style="fill: #ff8c00; fill-opacity: 0.5; stroke: #000000; stroke-opacity: 0.5"/>
     <use xlink:href="#m8c5f507acc" x="595.287108" y="325.645013" style="fill: #ff8c00; fill-opacity: 0.5; stroke: #000000; stroke-opacity: 0.5"/>
     <use xlink:href="#m8c5f507acc" x="408.466785" y="282.32767" style="fill: #ff8c00; fill-opacity: 0.5; stroke: #000000; stroke-opacity: 0.5"/>
     <use xlink:href="#m8c5f507acc" x="222.363575" y="364.586867" style="fill: #ff8c00; fill-opacity: 0.5; stroke: #000000; stroke-opacity: 0.5"/>
     <use xlink:href="#m8c5f507acc" x="696.536155" y="240.322973" style="fill: #ff8c00; fill-opacity: 0.5; stroke: #000000; stroke-opacity: 0.5"/>
     <use xlink:href="#m8c5f507acc" x="546.263231" y="259.575126" style="fill: #ff8c00; fill-opacity: 0.5; stroke: #000000; stroke-opacity: 0.5"/>
     <use xlink:href="#m8c5f507acc" x="596.490365" y="384.998582" style="fill: #ff8c00; fill-opacity: 0.5; stroke: #000000; stroke-opacity: 0.5"/>
     <use xlink:href="#m8c5f507acc" x="615.846021" y="252.574343" style="fill: #ff8c00; fill-opacity: 0.5; stroke: #000000; stroke-opacity: 0.5"/>
     <use xlink:href="#m8c5f507acc" x="413.094457" y="333.083345" style="fill: #ff8c00; fill-opacity: 0.5; stroke: #000000; stroke-opacity: 0.5"/>
     <use xlink:href="#m8c5f507acc" x="581.105359" y="262.637968" style="fill: #ff8c00; fill-opacity: 0.5; stroke: #000000; stroke-opacity: 0.5"/>
     <use xlink:href="#m8c5f507acc" x="123.824462" y="571.547508" style="fill: #ff8c00; fill-opacity: 0.5; stroke: #000000; stroke-opacity: 0.5"/>
     <use xlink:href="#m8c5f507acc" x="147.183538" y="396.09039" style="fill: #ff8c00; fill-opacity: 0.5; stroke: #000000; stroke-opacity: 0.5"/>
     <use xlink:href="#m8c5f507acc" x="538.555832" y="359.33628" style="fill: #ff8c00; fill-opacity: 0.5; stroke: #000000; stroke-opacity: 0.5"/>
     <use xlink:href="#m8c5f507acc" x="339.491294" y="249.398596" style="fill: #ff8c00; fill-opacity: 0.5; stroke: #000000; stroke-opacity: 0.5"/>
     <use xlink:href="#m8c5f507acc" x="341.193295" y="365.024416" style="fill: #ff8c00; fill-opacity: 0.5; stroke: #000000; stroke-opacity: 0.5"/>
     <use xlink:href="#m8c5f507acc" x="772.366124" y="231.571995" style="fill: #ff8c00; fill-opacity: 0.5; stroke: #000000; stroke-opacity: 0.5"/>
     <use xlink:href="#m8c5f507acc" x="498.841325" y="297.641882" style="fill: #ff8c00; fill-opacity: 0.5; stroke: #000000; stroke-opacity: 0.5"/>
     <use xlink:href="#m8c5f507acc" x="724.355649" y="234.197288" style="fill: #ff8c00; fill-opacity: 0.5; stroke: #000000; stroke-opacity: 0.5"/>
     <use xlink:href="#m8c5f507acc" x="187.832657" y="376.838237" style="fill: #ff8c00; fill-opacity: 0.5; stroke: #000000; stroke-opacity: 0.5"/>
     <use xlink:href="#m8c5f507acc" x="107.924674" y="567.172018" style="fill: #ff8c00; fill-opacity: 0.5; stroke: #000000; stroke-opacity: 0.5"/>
     <use xlink:href="#m8c5f507acc" x="282.785196" y="416.21764" style="fill: #ff8c00; fill-opacity: 0.5; stroke: #000000; stroke-opacity: 0.5"/>
     <use xlink:href="#m8c5f507acc" x="349.359266" y="419.718032" style="fill: #ff8c00; fill-opacity: 0.5; stroke: #000000; stroke-opacity: 0.5"/>
     <use xlink:href="#m8c5f507acc" x="400.663668" y="326.082562" style="fill: #ff8c00; fill-opacity: 0.5; stroke: #000000; stroke-opacity: 0.5"/>
     <use xlink:href="#m8c5f507acc" x="87.317788" y="563.234078" style="fill: #ff8c00; fill-opacity: 0.5; stroke: #000000; stroke-opacity: 0.5"/>
     <use xlink:href="#m8c5f507acc" x="609.18284" y="427.663972" style="fill: #ff8c00; fill-opacity: 0.5; stroke: #000000; stroke-opacity: 0.5"/>
     <use xlink:href="#m8c5f507acc" x="402.060571" y="310.76835" style="fill: #ff8c00; fill-opacity: 0.5; stroke: #000000; stroke-opacity: 0.5"/>
     <use xlink:href="#m8c5f507acc" x="670.492166" y="235.947484" style="fill: #ff8c00; fill-opacity: 0.5; stroke: #000000; stroke-opacity: 0.5"/>
     <use xlink:href="#m8c5f507acc" x="554.178479" y="368.087259" style="fill: #ff8c00; fill-opacity: 0.5; stroke: #000000; stroke-opacity: 0.5"/>
     <use xlink:href="#m8c5f507acc" x="573.649759" y="381.235643" style="fill: #ff8c00; fill-opacity: 0.5; stroke: #000000; stroke-opacity: 0.5"/>
     <use xlink:href="#m8c5f507acc" x="790.454801" y="197.880728" style="fill: #ff8c00; fill-opacity: 0.5; stroke: #000000; stroke-opacity: 0.5"/>
     <use xlink:href="#m8c5f507acc" x="580.341626" y="296.329235" style="fill: #ff8c00; fill-opacity: 0.5; stroke: #000000; stroke-opacity: 0.5"/>
     <use xlink:href="#m8c5f507acc" x="426.462302" y="221.070821" style="fill: #ff8c00; fill-opacity: 0.5; stroke: #000000; stroke-opacity: 0.5"/>
     <use xlink:href="#m8c5f507acc" x="574.600919" y="489.060023" style="fill: #ff8c00; fill-opacity: 0.5; stroke: #000000; stroke-opacity: 0.5"/>
     <use xlink:href="#m8c5f507acc" x="240.701096" y="368.869456" style="fill: #ff8c00; fill-opacity: 0.5; stroke: #000000; stroke-opacity: 0.5"/>
    </g>
   </g>
   <g id="PolyCollection_1">
    <path d="M 87.317788 401.187023 
L 87.317788 438.732872 
L 94.420182 436.481227 
L 101.522576 434.177211 
L 108.62497 431.805309 
L 115.727364 429.505525 
L 122.829759 427.204218 
L 129.932153 424.900359 
L 137.034547 422.71837 
L 144.136941 420.384486 
L 151.239335 418.000238 
L 158.341729 415.688523 
L 165.444123 413.385905 
L 172.546517 411.0313 
L 179.648911 408.639679 
L 186.751305 406.248457 
L 193.853699 403.858838 
L 200.956093 401.563499 
L 208.058487 399.347896 
L 215.160881 397.040573 
L 222.263275 394.633344 
L 229.36567 392.279847 
L 236.468064 390.095418 
L 243.570458 387.770114 
L 250.672852 385.565517 
L 257.775246 383.398277 
L 264.87764 381.070142 
L 271.980034 378.858616 
L 279.082428 376.513615 
L 286.184822 374.145902 
L 293.287216 371.877623 
L 300.38961 369.632923 
L 307.492004 367.349541 
L 314.594398 365.029121 
L 321.696792 362.739624 
L 328.799187 360.50587 
L 335.901581 358.34029 
L 343.003975 356.248751 
L 350.106369 354.192185 
L 357.208763 352.210372 
L 364.311157 350.115482 
L 371.413551 348.030372 
L 378.515945 346.010646 
L 385.618339 344.017133 
L 392.720733 341.865263 
L 399.823127 339.711479 
L 406.925521 337.659032 
L 414.027915 335.58905 
L 421.130309 333.495148 
L 428.232704 331.517924 
L 435.335098 329.542642 
L 442.437492 327.639214 
L 449.539886 325.690848 
L 456.64228 323.680868 
L 463.744674 321.805537 
L 470.847068 319.864756 
L 477.949462 317.941825 
L 485.051856 316.067337 
L 492.15425 314.130924 
L 499.256644 312.194007 
L 506.359038 310.256942 
L 513.461432 308.325646 
L 520.563826 306.631906 
L 527.666221 304.755633 
L 534.768615 302.893491 
L 541.871009 300.983028 
L 548.973403 299.150838 
L 556.075797 297.360772 
L 563.178191 295.500547 
L 570.280585 293.679155 
L 577.382979 291.866377 
L 584.485373 290.051985 
L 591.587767 288.220874 
L 598.690161 286.406875 
L 605.792555 284.610627 
L 612.894949 282.79947 
L 619.997343 280.988312 
L 627.099738 279.175345 
L 634.202132 277.466707 
L 641.304526 275.631169 
L 648.40692 273.72946 
L 655.509314 271.894882 
L 662.611708 270.102544 
L 669.714102 268.28936 
L 676.816496 266.474877 
L 683.91889 264.660393 
L 691.021284 262.824886 
L 698.123678 261.010887 
L 705.226072 259.196888 
L 712.328466 257.382889 
L 719.43086 255.56889 
L 726.533255 253.79374 
L 733.635649 252.038088 
L 740.738043 250.279745 
L 747.840437 248.468148 
L 754.942831 246.691188 
L 762.045225 245.003847 
L 769.147619 243.255192 
L 776.250013 241.500554 
L 783.352407 239.74242 
L 790.454801 237.945733 
L 790.454801 191.80948 
L 790.454801 191.80948 
L 783.352407 194.127978 
L 776.250013 196.446772 
L 769.147619 198.76649 
L 762.045225 201.089495 
L 754.942831 203.413783 
L 747.840437 205.738071 
L 740.738043 208.130614 
L 733.635649 210.632414 
L 726.533255 213.134547 
L 719.43086 215.501772 
L 712.328466 217.877761 
L 705.226072 220.217433 
L 698.123678 222.572615 
L 691.021284 224.927798 
L 683.91889 227.28298 
L 676.816496 229.638286 
L 669.714102 231.99703 
L 662.611708 234.351865 
L 655.509314 236.703836 
L 648.40692 239.058893 
L 641.304526 241.417037 
L 634.202132 243.792205 
L 627.099738 246.273095 
L 619.997343 248.56171 
L 612.894949 250.850326 
L 605.792555 253.19964 
L 598.690161 255.555151 
L 591.587767 257.922936 
L 584.485373 260.307563 
L 577.382979 262.622392 
L 570.280585 264.976051 
L 563.178191 267.281778 
L 556.075797 269.542219 
L 548.973403 271.894807 
L 541.871009 274.253121 
L 534.768615 276.474737 
L 527.666221 278.696433 
L 520.563826 280.895908 
L 513.461432 283.090112 
L 506.359038 285.362278 
L 499.256644 287.583407 
L 492.15425 289.804433 
L 485.051856 292.025589 
L 477.949462 294.25308 
L 470.847068 296.465789 
L 463.744674 298.687162 
L 456.64228 300.973412 
L 449.539886 303.258763 
L 442.437492 305.483991 
L 435.335098 307.697567 
L 428.232704 309.774179 
L 421.130309 311.90879 
L 414.027915 314.150505 
L 406.925521 316.322039 
L 399.823127 318.188606 
L 392.720733 320.426782 
L 385.618339 322.462386 
L 378.515945 324.400512 
L 371.413551 326.343974 
L 364.311157 328.287436 
L 357.208763 330.230897 
L 350.106369 332.324646 
L 343.003975 334.328856 
L 335.901581 336.333583 
L 328.799187 338.262527 
L 321.696792 340.250826 
L 314.594398 342.169081 
L 307.492004 344.225069 
L 300.38961 346.26807 
L 293.287216 348.132445 
L 286.184822 350.095164 
L 279.082428 352.162376 
L 271.980034 354.097028 
L 264.87764 355.968891 
L 257.775246 357.786325 
L 250.672852 359.581324 
L 243.570458 361.466602 
L 236.468064 363.413125 
L 229.36567 365.422123 
L 222.263275 367.237331 
L 215.160881 369.063757 
L 208.058487 371.001476 
L 200.956093 372.943259 
L 193.853699 374.885042 
L 186.751305 376.826825 
L 179.648911 378.646432 
L 172.546517 380.362546 
L 165.444123 382.066411 
L 158.341729 383.693842 
L 151.239335 385.37683 
L 144.136941 387.198622 
L 137.034547 389.084666 
L 129.932153 390.887192 
L 122.829759 392.596369 
L 115.727364 394.3145 
L 108.62497 396.032631 
L 101.522576 397.750762 
L 94.420182 399.468892 
L 87.317788 401.187023 
z
" clip-path="url(#pe71b630965)" style="fill: #1f77b4; fill-opacity: 0.15"/>
   </g>
   <g id="PolyCollection_2">
    <path d="M 87.317788 439.62582 
L 87.317788 505.073614 
L 94.420182 501.880529 
L 101.522576 498.687762 
L 108.62497 495.676613 
L 115.727364 492.617805 
L 122.829759 489.188118 
L 129.932153 485.967964 
L 137.034547 482.993045 
L 144.136941 480.018126 
L 151.239335 477.043207 
L 158.341729 473.966534 
L 165.444123 471.076054 
L 172.546517 468.131479 
L 179.648911 465.164037 
L 186.751305 462.196596 
L 193.853699 459.222184 
L 200.956093 456.246554 
L 208.058487 453.270924 
L 215.160881 450.138592 
L 222.263275 447.003887 
L 229.36567 443.869181 
L 236.468064 440.848441 
L 243.570458 438.075588 
L 250.672852 434.979536 
L 257.775246 431.818534 
L 264.87764 428.694408 
L 271.980034 425.482829 
L 279.082428 422.475735 
L 286.184822 419.663655 
L 293.287216 416.854312 
L 300.38961 413.928394 
L 307.492004 410.746986 
L 314.594398 407.554436 
L 321.696792 404.581467 
L 328.799187 401.659625 
L 335.901581 398.844711 
L 343.003975 395.93976 
L 350.106369 392.886433 
L 357.208763 389.961387 
L 364.311157 387.018097 
L 371.413551 384.377437 
L 378.515945 381.539066 
L 385.618339 378.57718 
L 392.720733 375.363054 
L 399.823127 372.441212 
L 406.925521 369.641106 
L 414.027915 366.747512 
L 421.130309 363.848226 
L 428.232704 360.834426 
L 435.335098 358.053872 
L 442.437492 355.334627 
L 449.539886 352.710038 
L 456.64228 349.599461 
L 463.744674 347.075423 
L 470.847068 344.577071 
L 477.949462 341.91372 
L 485.051856 339.274667 
L 492.15425 336.57353 
L 499.256644 334.017718 
L 506.359038 331.460459 
L 513.461432 329.026046 
L 520.563826 326.493525 
L 527.666221 323.872616 
L 534.768615 321.341575 
L 541.871009 318.985975 
L 548.973403 316.555889 
L 556.075797 313.961065 
L 563.178191 311.367306 
L 570.280585 308.758186 
L 577.382979 306.267582 
L 584.485373 303.98182 
L 591.587767 301.417501 
L 598.690161 299.274548 
L 605.792555 296.776151 
L 612.894949 294.420477 
L 619.997343 292.017734 
L 627.099738 289.747011 
L 634.202132 287.4967 
L 641.304526 284.96787 
L 648.40692 282.433304 
L 655.509314 280.154007 
L 662.611708 277.931411 
L 669.714102 275.551947 
L 676.816496 273.164918 
L 683.91889 270.839873 
L 691.021284 268.626821 
L 698.123678 266.43439 
L 705.226072 264.199968 
L 712.328466 262.068704 
L 719.43086 259.937602 
L 726.533255 257.767187 
L 733.635649 255.36044 
L 740.738043 253.558675 
L 747.840437 251.232339 
L 754.942831 248.877946 
L 762.045225 246.523553 
L 769.147619 244.309073 
L 776.250013 242.098173 
L 783.352407 239.887273 
L 790.454801 237.675113 
L 790.454801 183.139393 
L 790.454801 183.139393 
L 783.352407 186.154602 
L 776.250013 189.378294 
L 769.147619 192.500762 
L 762.045225 195.681451 
L 754.942831 198.841612 
L 747.840437 202.044019 
L 740.738043 205.248572 
L 733.635649 208.440076 
L 726.533255 211.629939 
L 719.43086 214.812913 
L 712.328466 217.712125 
L 705.226072 220.61317 
L 698.123678 223.668492 
L 691.021284 226.618605 
L 683.91889 229.711942 
L 676.816496 232.683645 
L 669.714102 235.772737 
L 662.611708 238.591115 
L 655.509314 241.572577 
L 648.40692 244.740117 
L 641.304526 247.893858 
L 634.202132 250.641779 
L 627.099738 253.575786 
L 619.997343 256.766466 
L 612.894949 259.640749 
L 605.792555 262.637536 
L 598.690161 265.567455 
L 591.587767 268.55626 
L 584.485373 271.39391 
L 577.382979 274.240289 
L 570.280585 276.988754 
L 563.178191 279.73668 
L 556.075797 282.627186 
L 548.973403 285.240247 
L 541.871009 287.986558 
L 534.768615 290.466312 
L 527.666221 293.468919 
L 520.563826 296.144804 
L 513.461432 298.988317 
L 506.359038 301.742343 
L 499.256644 304.539866 
L 492.15425 307.367896 
L 485.051856 310.149364 
L 477.949462 312.844865 
L 470.847068 315.441923 
L 463.744674 318.173565 
L 456.64228 320.484885 
L 449.539886 323.009378 
L 442.437492 325.549458 
L 435.335098 328.394108 
L 428.232704 330.936811 
L 421.130309 333.360991 
L 414.027915 335.699302 
L 406.925521 338.592236 
L 399.823127 341.101546 
L 392.720733 343.644497 
L 385.618339 346.034405 
L 378.515945 348.456139 
L 371.413551 351.101433 
L 364.311157 353.747255 
L 357.208763 355.913678 
L 350.106369 358.452523 
L 343.003975 360.644393 
L 335.901581 362.806819 
L 328.799187 364.97456 
L 321.696792 367.14271 
L 314.594398 369.434834 
L 307.492004 372.071988 
L 300.38961 374.179561 
L 293.287216 376.284628 
L 286.184822 378.386558 
L 279.082428 380.48837 
L 271.980034 382.590182 
L 264.87764 384.691994 
L 257.775246 386.793806 
L 250.672852 388.895618 
L 243.570458 391.125846 
L 236.468064 393.429428 
L 229.36567 395.490771 
L 222.263275 397.604032 
L 215.160881 400.042545 
L 208.058487 402.482158 
L 200.956093 404.497558 
L 193.853699 406.477072 
L 186.751305 408.659303 
L 179.648911 410.909718 
L 172.546517 413.162006 
L 165.444123 415.414293 
L 158.341729 417.532958 
L 151.239335 419.626702 
L 144.136941 421.767886 
L 137.034547 423.983053 
L 129.932153 426.05716 
L 122.829759 428.310356 
L 115.727364 430.56453 
L 108.62497 432.827296 
L 101.522576 435.090062 
L 94.420182 437.352828 
L 87.317788 439.62582 
z
" clip-path="url(#pe71b630965)" style="fill: #ff7f0e; fill-opacity: 0.15"/>
   </g>
   <g id="matplotlib.axis_1">
    <g id="xtick_1">
     <g id="line2d_1">
      <defs>
       <path id="me5ad00f56b" d="M 0 0 
L 0 3.5 
" style="stroke: #000000; stroke-width: 0.8"/>
      </defs>
      <g>
       <use xlink:href="#me5ad00f56b" x="64.94765" y="642.866667" style="stroke: #000000; stroke-width: 0.8"/>
      </g>
     </g>
     <g id="text_1">
      <!-- 0.30 -->
      <g transform="translate(53.814838 657.465104) scale(0.1 -0.1)">
       <defs>
        <path id="DejaVuSans-30" d="M 2034 4250 
Q 1547 4250 1301 3770 
Q 1056 3291 1056 2328 
Q 1056 1369 1301 889 
Q 1547 409 2034 409 
Q 2525 409 2770 889 
Q 3016 1369 3016 2328 
Q 3016 3291 2770 3770 
Q 2525 4250 2034 4250 
z
M 2034 4750 
Q 2819 4750 3233 4129 
Q 3647 3509 3647 2328 
Q 3647 1150 3233 529 
Q 2819 -91 2034 -91 
Q 1250 -91 836 529 
Q 422 1150 422 2328 
Q 422 3509 836 4129 
Q 1250 4750 2034 4750 
z
" transform="scale(0.015625)"/>
        <path id="DejaVuSans-2e" d="M 684 794 
L 1344 794 
L 1344 0 
L 684 0 
L 684 794 
z
" transform="scale(0.015625)"/>
        <path id="DejaVuSans-33" d="M 2597 2516 
Q 3050 2419 3304 2112 
Q 3559 1806 3559 1356 
Q 3559 666 3084 287 
Q 2609 -91 1734 -91 
Q 1441 -91 1130 -33 
Q 819 25 488 141 
L 488 750 
Q 750 597 1062 519 
Q 1375 441 1716 441 
Q 2309 441 2620 675 
Q 2931 909 2931 1356 
Q 2931 1769 2642 2001 
Q 2353 2234 1838 2234 
L 1294 2234 
L 1294 2753 
L 1863 2753 
Q 2328 2753 2575 2939 
Q 2822 3125 2822 3475 
Q 2822 3834 2567 4026 
Q 2313 4219 1838 4219 
Q 1578 4219 1281 4162 
Q 984 4106 628 3988 
L 628 4550 
Q 988 4650 1302 4700 
Q 1616 4750 1894 4750 
Q 2613 4750 3031 4423 
Q 3450 4097 3450 3541 
Q 3450 3153 3228 2886 
Q 3006 2619 2597 2516 
z
" transform="scale(0.015625)"/>
       </defs>
       <use xlink:href="#DejaVuSans-30"/>
       <use xlink:href="#DejaVuSans-2e" x="63.623047"/>
       <use xlink:href="#DejaVuSans-33" x="95.410156"/>
       <use xlink:href="#DejaVuSans-30" x="159.033203"/>
      </g>
     </g>
    </g>
    <g id="xtick_2">
     <g id="line2d_2">
      <g>
       <use xlink:href="#me5ad00f56b" x="159.189276" y="642.866667" style="stroke: #000000; stroke-width: 0.8"/>
      </g>
     </g>
     <g id="text_2">
      <!-- 0.35 -->
      <g transform="translate(148.056463 657.465104) scale(0.1 -0.1)">
       <defs>
        <path id="DejaVuSans-35" d="M 691 4666 
L 3169 4666 
L 3169 4134 
L 1269 4134 
L 1269 2991 
Q 1406 3038 1543 3061 
Q 1681 3084 1819 3084 
Q 2600 3084 3056 2656 
Q 3513 2228 3513 1497 
Q 3513 744 3044 326 
Q 2575 -91 1722 -91 
Q 1428 -91 1123 -41 
Q 819 9 494 109 
L 494 744 
Q 775 591 1075 516 
Q 1375 441 1709 441 
Q 2250 441 2565 725 
Q 2881 1009 2881 1497 
Q 2881 1984 2565 2268 
Q 2250 2553 1709 2553 
Q 1456 2553 1204 2497 
Q 953 2441 691 2322 
L 691 4666 
z
" transform="scale(0.015625)"/>
       </defs>
       <use xlink:href="#DejaVuSans-30"/>
       <use xlink:href="#DejaVuSans-2e" x="63.623047"/>
       <use xlink:href="#DejaVuSans-33" x="95.410156"/>
       <use xlink:href="#DejaVuSans-35" x="159.033203"/>
      </g>
     </g>
    </g>
    <g id="xtick_3">
     <g id="line2d_3">
      <g>
       <use xlink:href="#me5ad00f56b" x="253.430902" y="642.866667" style="stroke: #000000; stroke-width: 0.8"/>
      </g>
     </g>
     <g id="text_3">
      <!-- 0.40 -->
      <g transform="translate(242.298089 657.465104) scale(0.1 -0.1)">
       <defs>
        <path id="DejaVuSans-34" d="M 2419 4116 
L 825 1625 
L 2419 1625 
L 2419 4116 
z
M 2253 4666 
L 3047 4666 
L 3047 1625 
L 3713 1625 
L 3713 1100 
L 3047 1100 
L 3047 0 
L 2419 0 
L 2419 1100 
L 313 1100 
L 313 1709 
L 2253 4666 
z
" transform="scale(0.015625)"/>
       </defs>
       <use xlink:href="#DejaVuSans-30"/>
       <use xlink:href="#DejaVuSans-2e" x="63.623047"/>
       <use xlink:href="#DejaVuSans-34" x="95.410156"/>
       <use xlink:href="#DejaVuSans-30" x="159.033203"/>
      </g>
     </g>
    </g>
    <g id="xtick_4">
     <g id="line2d_4">
      <g>
       <use xlink:href="#me5ad00f56b" x="347.672527" y="642.866667" style="stroke: #000000; stroke-width: 0.8"/>
      </g>
     </g>
     <g id="text_4">
      <!-- 0.45 -->
      <g transform="translate(336.539715 657.465104) scale(0.1 -0.1)">
       <use xlink:href="#DejaVuSans-30"/>
       <use xlink:href="#DejaVuSans-2e" x="63.623047"/>
       <use xlink:href="#DejaVuSans-34" x="95.410156"/>
       <use xlink:href="#DejaVuSans-35" x="159.033203"/>
      </g>
     </g>
    </g>
    <g id="xtick_5">
     <g id="line2d_5">
      <g>
       <use xlink:href="#me5ad00f56b" x="441.914153" y="642.866667" style="stroke: #000000; stroke-width: 0.8"/>
      </g>
     </g>
     <g id="text_5">
      <!-- 0.50 -->
      <g transform="translate(430.781341 657.465104) scale(0.1 -0.1)">
       <use xlink:href="#DejaVuSans-30"/>
       <use xlink:href="#DejaVuSans-2e" x="63.623047"/>
       <use xlink:href="#DejaVuSans-35" x="95.410156"/>
       <use xlink:href="#DejaVuSans-30" x="159.033203"/>
      </g>
     </g>
    </g>
    <g id="xtick_6">
     <g id="line2d_6">
      <g>
       <use xlink:href="#me5ad00f56b" x="536.155779" y="642.866667" style="stroke: #000000; stroke-width: 0.8"/>
      </g>
     </g>
     <g id="text_6">
      <!-- 0.55 -->
      <g transform="translate(525.022966 657.465104) scale(0.1 -0.1)">
       <use xlink:href="#DejaVuSans-30"/>
       <use xlink:href="#DejaVuSans-2e" x="63.623047"/>
       <use xlink:href="#DejaVuSans-35" x="95.410156"/>
       <use xlink:href="#DejaVuSans-35" x="159.033203"/>
      </g>
     </g>
    </g>
    <g id="xtick_7">
     <g id="line2d_7">
      <g>
       <use xlink:href="#me5ad00f56b" x="630.397405" y="642.866667" style="stroke: #000000; stroke-width: 0.8"/>
      </g>
     </g>
     <g id="text_7">
      <!-- 0.60 -->
      <g transform="translate(619.264592 657.465104) scale(0.1 -0.1)">
       <defs>
        <path id="DejaVuSans-36" d="M 2113 2584 
Q 1688 2584 1439 2293 
Q 1191 2003 1191 1497 
Q 1191 994 1439 701 
Q 1688 409 2113 409 
Q 2538 409 2786 701 
Q 3034 994 3034 1497 
Q 3034 2003 2786 2293 
Q 2538 2584 2113 2584 
z
M 3366 4563 
L 3366 3988 
Q 3128 4100 2886 4159 
Q 2644 4219 2406 4219 
Q 1781 4219 1451 3797 
Q 1122 3375 1075 2522 
Q 1259 2794 1537 2939 
Q 1816 3084 2150 3084 
Q 2853 3084 3261 2657 
Q 3669 2231 3669 1497 
Q 3669 778 3244 343 
Q 2819 -91 2113 -91 
Q 1303 -91 875 529 
Q 447 1150 447 2328 
Q 447 3434 972 4092 
Q 1497 4750 2381 4750 
Q 2619 4750 2861 4703 
Q 3103 4656 3366 4563 
z
" transform="scale(0.015625)"/>
       </defs>
       <use xlink:href="#DejaVuSans-30"/>
       <use xlink:href="#DejaVuSans-2e" x="63.623047"/>
       <use xlink:href="#DejaVuSans-36" x="95.410156"/>
       <use xlink:href="#DejaVuSans-30" x="159.033203"/>
      </g>
     </g>
    </g>
    <g id="xtick_8">
     <g id="line2d_8">
      <g>
       <use xlink:href="#me5ad00f56b" x="724.639031" y="642.866667" style="stroke: #000000; stroke-width: 0.8"/>
      </g>
     </g>
     <g id="text_8">
      <!-- 0.65 -->
      <g transform="translate(713.506218 657.465104) scale(0.1 -0.1)">
       <use xlink:href="#DejaVuSans-30"/>
       <use xlink:href="#DejaVuSans-2e" x="63.623047"/>
       <use xlink:href="#DejaVuSans-36" x="95.410156"/>
       <use xlink:href="#DejaVuSans-35" x="159.033203"/>
      </g>
     </g>
    </g>
    <g id="xtick_9">
     <g id="line2d_9">
      <g>
       <use xlink:href="#me5ad00f56b" x="818.880656" y="642.866667" style="stroke: #000000; stroke-width: 0.8"/>
      </g>
     </g>
     <g id="text_9">
      <!-- 0.70 -->
      <g transform="translate(807.747844 657.465104) scale(0.1 -0.1)">
       <defs>
        <path id="DejaVuSans-37" d="M 525 4666 
L 3525 4666 
L 3525 4397 
L 1831 0 
L 1172 0 
L 2766 4134 
L 525 4134 
L 525 4666 
z
" transform="scale(0.015625)"/>
       </defs>
       <use xlink:href="#DejaVuSans-30"/>
       <use xlink:href="#DejaVuSans-2e" x="63.623047"/>
       <use xlink:href="#DejaVuSans-37" x="95.410156"/>
       <use xlink:href="#DejaVuSans-30" x="159.033203"/>
      </g>
     </g>
    </g>
    <g id="text_10">
     <!-- Proteomic GC content -->
     <g transform="translate(384.165201 671.143229) scale(0.1 -0.1)">
      <defs>
       <path id="DejaVuSans-50" d="M 1259 4147 
L 1259 2394 
L 2053 2394 
Q 2494 2394 2734 2622 
Q 2975 2850 2975 3272 
Q 2975 3691 2734 3919 
Q 2494 4147 2053 4147 
L 1259 4147 
z
M 628 4666 
L 2053 4666 
Q 2838 4666 3239 4311 
Q 3641 3956 3641 3272 
Q 3641 2581 3239 2228 
Q 2838 1875 2053 1875 
L 1259 1875 
L 1259 0 
L 628 0 
L 628 4666 
z
" transform="scale(0.015625)"/>
       <path id="DejaVuSans-72" d="M 2631 2963 
Q 2534 3019 2420 3045 
Q 2306 3072 2169 3072 
Q 1681 3072 1420 2755 
Q 1159 2438 1159 1844 
L 1159 0 
L 581 0 
L 581 3500 
L 1159 3500 
L 1159 2956 
Q 1341 3275 1631 3429 
Q 1922 3584 2338 3584 
Q 2397 3584 2469 3576 
Q 2541 3569 2628 3553 
L 2631 2963 
z
" transform="scale(0.015625)"/>
       <path id="DejaVuSans-6f" d="M 1959 3097 
Q 1497 3097 1228 2736 
Q 959 2375 959 1747 
Q 959 1119 1226 758 
Q 1494 397 1959 397 
Q 2419 397 2687 759 
Q 2956 1122 2956 1747 
Q 2956 2369 2687 2733 
Q 2419 3097 1959 3097 
z
M 1959 3584 
Q 2709 3584 3137 3096 
Q 3566 2609 3566 1747 
Q 3566 888 3137 398 
Q 2709 -91 1959 -91 
Q 1206 -91 779 398 
Q 353 888 353 1747 
Q 353 2609 779 3096 
Q 1206 3584 1959 3584 
z
" transform="scale(0.015625)"/>
       <path id="DejaVuSans-74" d="M 1172 4494 
L 1172 3500 
L 2356 3500 
L 2356 3053 
L 1172 3053 
L 1172 1153 
Q 1172 725 1289 603 
Q 1406 481 1766 481 
L 2356 481 
L 2356 0 
L 1766 0 
Q 1100 0 847 248 
Q 594 497 594 1153 
L 594 3053 
L 172 3053 
L 172 3500 
L 594 3500 
L 594 4494 
L 1172 4494 
z
" transform="scale(0.015625)"/>
       <path id="DejaVuSans-65" d="M 3597 1894 
L 3597 1613 
L 953 1613 
Q 991 1019 1311 708 
Q 1631 397 2203 397 
Q 2534 397 2845 478 
Q 3156 559 3463 722 
L 3463 178 
Q 3153 47 2828 -22 
Q 2503 -91 2169 -91 
Q 1331 -91 842 396 
Q 353 884 353 1716 
Q 353 2575 817 3079 
Q 1281 3584 2069 3584 
Q 2775 3584 3186 3129 
Q 3597 2675 3597 1894 
z
M 3022 2063 
Q 3016 2534 2758 2815 
Q 2500 3097 2075 3097 
Q 1594 3097 1305 2825 
Q 1016 2553 972 2059 
L 3022 2063 
z
" transform="scale(0.015625)"/>
       <path id="DejaVuSans-6d" d="M 3328 2828 
Q 3544 3216 3844 3400 
Q 4144 3584 4550 3584 
Q 5097 3584 5394 3201 
Q 5691 2819 5691 2113 
L 5691 0 
L 5113 0 
L 5113 2094 
Q 5113 2597 4934 2840 
Q 4756 3084 4391 3084 
Q 3944 3084 3684 2787 
Q 3425 2491 3425 1978 
L 3425 0 
L 2847 0 
L 2847 2094 
Q 2847 2600 2669 2842 
Q 2491 3084 2119 3084 
Q 1678 3084 1418 2786 
Q 1159 2488 1159 1978 
L 1159 0 
L 581 0 
L 581 3500 
L 1159 3500 
L 1159 2956 
Q 1356 3278 1631 3431 
Q 1906 3584 2284 3584 
Q 2666 3584 2933 3390 
Q 3200 3197 3328 2828 
z
" transform="scale(0.015625)"/>
       <path id="DejaVuSans-69" d="M 603 3500 
L 1178 3500 
L 1178 0 
L 603 0 
L 603 3500 
z
M 603 4863 
L 1178 4863 
L 1178 4134 
L 603 4134 
L 603 4863 
z
" transform="scale(0.015625)"/>
       <path id="DejaVuSans-63" d="M 3122 3366 
L 3122 2828 
Q 2878 2963 2633 3030 
Q 2388 3097 2138 3097 
Q 1578 3097 1268 2742 
Q 959 2388 959 1747 
Q 959 1106 1268 751 
Q 1578 397 2138 397 
Q 2388 397 2633 464 
Q 2878 531 3122 666 
L 3122 134 
Q 2881 22 2623 -34 
Q 2366 -91 2075 -91 
Q 1284 -91 818 406 
Q 353 903 353 1747 
Q 353 2603 823 3093 
Q 1294 3584 2113 3584 
Q 2378 3584 2631 3529 
Q 2884 3475 3122 3366 
z
" transform="scale(0.015625)"/>
       <path id="DejaVuSans-20" transform="scale(0.015625)"/>
       <path id="DejaVuSans-47" d="M 3809 666 
L 3809 1919 
L 2778 1919 
L 2778 2438 
L 4434 2438 
L 4434 434 
Q 4069 175 3628 42 
Q 3188 -91 2688 -91 
Q 1594 -91 976 548 
Q 359 1188 359 2328 
Q 359 3472 976 4111 
Q 1594 4750 2688 4750 
Q 3144 4750 3555 4637 
Q 3966 4525 4313 4306 
L 4313 3634 
Q 3963 3931 3569 4081 
Q 3175 4231 2741 4231 
Q 1884 4231 1454 3753 
Q 1025 3275 1025 2328 
Q 1025 1384 1454 906 
Q 1884 428 2741 428 
Q 3075 428 3337 486 
Q 3600 544 3809 666 
z
" transform="scale(0.015625)"/>
       <path id="DejaVuSans-43" d="M 4122 4306 
L 4122 3641 
Q 3803 3938 3442 4084 
Q 3081 4231 2675 4231 
Q 1875 4231 1450 3742 
Q 1025 3253 1025 2328 
Q 1025 1406 1450 917 
Q 1875 428 2675 428 
Q 3081 428 3442 575 
Q 3803 722 4122 1019 
L 4122 359 
Q 3791 134 3420 21 
Q 3050 -91 2638 -91 
Q 1578 -91 968 557 
Q 359 1206 359 2328 
Q 359 3453 968 4101 
Q 1578 4750 2638 4750 
Q 3056 4750 3426 4639 
Q 3797 4528 4122 4306 
z
" transform="scale(0.015625)"/>
       <path id="DejaVuSans-6e" d="M 3513 2113 
L 3513 0 
L 2938 0 
L 2938 2094 
Q 2938 2591 2744 2837 
Q 2550 3084 2163 3084 
Q 1697 3084 1428 2787 
Q 1159 2491 1159 1978 
L 1159 0 
L 581 0 
L 581 3500 
L 1159 3500 
L 1159 2956 
Q 1366 3272 1645 3428 
Q 1925 3584 2291 3584 
Q 2894 3584 3203 3211 
Q 3513 2838 3513 2113 
z
" transform="scale(0.015625)"/>
      </defs>
      <use xlink:href="#DejaVuSans-50"/>
      <use xlink:href="#DejaVuSans-72" x="58.552734"/>
      <use xlink:href="#DejaVuSans-6f" x="97.416016"/>
      <use xlink:href="#DejaVuSans-74" x="158.597656"/>
      <use xlink:href="#DejaVuSans-65" x="197.806641"/>
      <use xlink:href="#DejaVuSans-6f" x="259.330078"/>
      <use xlink:href="#DejaVuSans-6d" x="320.511719"/>
      <use xlink:href="#DejaVuSans-69" x="417.923828"/>
      <use xlink:href="#DejaVuSans-63" x="445.707031"/>
      <use xlink:href="#DejaVuSans-20" x="500.6875"/>
      <use xlink:href="#DejaVuSans-47" x="532.474609"/>
      <use xlink:href="#DejaVuSans-43" x="609.964844"/>
      <use xlink:href="#DejaVuSans-20" x="679.789062"/>
      <use xlink:href="#DejaVuSans-63" x="711.576172"/>
      <use xlink:href="#DejaVuSans-6f" x="766.556641"/>
      <use xlink:href="#DejaVuSans-6e" x="827.738281"/>
      <use xlink:href="#DejaVuSans-74" x="891.117188"/>
      <use xlink:href="#DejaVuSans-65" x="930.326172"/>
      <use xlink:href="#DejaVuSans-6e" x="991.849609"/>
      <use xlink:href="#DejaVuSans-74" x="1055.228516"/>
     </g>
    </g>
   </g>
   <g id="matplotlib.axis_2">
    <g id="ytick_1">
     <g id="line2d_10">
      <defs>
       <path id="md1b094965d" d="M 0 0 
L -3.5 0 
" style="stroke: #000000; stroke-width: 0.8"/>
      </defs>
      <g>
       <use xlink:href="#md1b094965d" x="52.160938" y="606.625756" style="stroke: #000000; stroke-width: 0.8"/>
      </g>
     </g>
     <g id="text_11">
      <!-- −0.1 -->
      <g transform="translate(20.878125 610.424975) scale(0.1 -0.1)">
       <defs>
        <path id="DejaVuSans-2212" d="M 678 2272 
L 4684 2272 
L 4684 1741 
L 678 1741 
L 678 2272 
z
" transform="scale(0.015625)"/>
        <path id="DejaVuSans-31" d="M 794 531 
L 1825 531 
L 1825 4091 
L 703 3866 
L 703 4441 
L 1819 4666 
L 2450 4666 
L 2450 531 
L 3481 531 
L 3481 0 
L 794 0 
L 794 531 
z
" transform="scale(0.015625)"/>
       </defs>
       <use xlink:href="#DejaVuSans-2212"/>
       <use xlink:href="#DejaVuSans-30" x="83.789062"/>
       <use xlink:href="#DejaVuSans-2e" x="147.412109"/>
       <use xlink:href="#DejaVuSans-31" x="179.199219"/>
      </g>
     </g>
    </g>
    <g id="ytick_2">
     <g id="line2d_11">
      <g>
       <use xlink:href="#md1b094965d" x="52.160938" y="549.670062" style="stroke: #000000; stroke-width: 0.8"/>
      </g>
     </g>
     <g id="text_12">
      <!-- 0.0 -->
      <g transform="translate(29.257813 553.46928) scale(0.1 -0.1)">
       <use xlink:href="#DejaVuSans-30"/>
       <use xlink:href="#DejaVuSans-2e" x="63.623047"/>
       <use xlink:href="#DejaVuSans-30" x="95.410156"/>
      </g>
     </g>
    </g>
    <g id="ytick_3">
     <g id="line2d_12">
      <g>
       <use xlink:href="#md1b094965d" x="52.160938" y="492.714367" style="stroke: #000000; stroke-width: 0.8"/>
      </g>
     </g>
     <g id="text_13">
      <!-- 0.1 -->
      <g transform="translate(29.257813 496.513586) scale(0.1 -0.1)">
       <use xlink:href="#DejaVuSans-30"/>
       <use xlink:href="#DejaVuSans-2e" x="63.623047"/>
       <use xlink:href="#DejaVuSans-31" x="95.410156"/>
      </g>
     </g>
    </g>
    <g id="ytick_4">
     <g id="line2d_13">
      <g>
       <use xlink:href="#md1b094965d" x="52.160938" y="435.758672" style="stroke: #000000; stroke-width: 0.8"/>
      </g>
     </g>
     <g id="text_14">
      <!-- 0.2 -->
      <g transform="translate(29.257813 439.557891) scale(0.1 -0.1)">
       <defs>
        <path id="DejaVuSans-32" d="M 1228 531 
L 3431 531 
L 3431 0 
L 469 0 
L 469 531 
Q 828 903 1448 1529 
Q 2069 2156 2228 2338 
Q 2531 2678 2651 2914 
Q 2772 3150 2772 3378 
Q 2772 3750 2511 3984 
Q 2250 4219 1831 4219 
Q 1534 4219 1204 4116 
Q 875 4013 500 3803 
L 500 4441 
Q 881 4594 1212 4672 
Q 1544 4750 1819 4750 
Q 2544 4750 2975 4387 
Q 3406 4025 3406 3419 
Q 3406 3131 3298 2873 
Q 3191 2616 2906 2266 
Q 2828 2175 2409 1742 
Q 1991 1309 1228 531 
z
" transform="scale(0.015625)"/>
       </defs>
       <use xlink:href="#DejaVuSans-30"/>
       <use xlink:href="#DejaVuSans-2e" x="63.623047"/>
       <use xlink:href="#DejaVuSans-32" x="95.410156"/>
      </g>
     </g>
    </g>
    <g id="ytick_5">
     <g id="line2d_14">
      <g>
       <use xlink:href="#md1b094965d" x="52.160938" y="378.802978" style="stroke: #000000; stroke-width: 0.8"/>
      </g>
     </g>
     <g id="text_15">
      <!-- 0.3 -->
      <g transform="translate(29.257813 382.602196) scale(0.1 -0.1)">
       <use xlink:href="#DejaVuSans-30"/>
       <use xlink:href="#DejaVuSans-2e" x="63.623047"/>
       <use xlink:href="#DejaVuSans-33" x="95.410156"/>
      </g>
     </g>
    </g>
    <g id="ytick_6">
     <g id="line2d_15">
      <g>
       <use xlink:href="#md1b094965d" x="52.160938" y="321.847283" style="stroke: #000000; stroke-width: 0.8"/>
      </g>
     </g>
     <g id="text_16">
      <!-- 0.4 -->
      <g transform="translate(29.257813 325.646502) scale(0.1 -0.1)">
       <use xlink:href="#DejaVuSans-30"/>
       <use xlink:href="#DejaVuSans-2e" x="63.623047"/>
       <use xlink:href="#DejaVuSans-34" x="95.410156"/>
      </g>
     </g>
    </g>
    <g id="ytick_7">
     <g id="line2d_16">
      <g>
       <use xlink:href="#md1b094965d" x="52.160938" y="264.891588" style="stroke: #000000; stroke-width: 0.8"/>
      </g>
     </g>
     <g id="text_17">
      <!-- 0.5 -->
      <g transform="translate(29.257813 268.690807) scale(0.1 -0.1)">
       <use xlink:href="#DejaVuSans-30"/>
       <use xlink:href="#DejaVuSans-2e" x="63.623047"/>
       <use xlink:href="#DejaVuSans-35" x="95.410156"/>
      </g>
     </g>
    </g>
    <g id="ytick_8">
     <g id="line2d_17">
      <g>
       <use xlink:href="#md1b094965d" x="52.160938" y="207.935894" style="stroke: #000000; stroke-width: 0.8"/>
      </g>
     </g>
     <g id="text_18">
      <!-- 0.6 -->
      <g transform="translate(29.257813 211.735112) scale(0.1 -0.1)">
       <use xlink:href="#DejaVuSans-30"/>
       <use xlink:href="#DejaVuSans-2e" x="63.623047"/>
       <use xlink:href="#DejaVuSans-36" x="95.410156"/>
      </g>
     </g>
    </g>
    <g id="text_19">
     <!-- Correlation coefficient -->
     <g transform="translate(14.798438 452.712284) rotate(-90) scale(0.1 -0.1)">
      <defs>
       <path id="DejaVuSans-6c" d="M 603 4863 
L 1178 4863 
L 1178 0 
L 603 0 
L 603 4863 
z
" transform="scale(0.015625)"/>
       <path id="DejaVuSans-61" d="M 2194 1759 
Q 1497 1759 1228 1600 
Q 959 1441 959 1056 
Q 959 750 1161 570 
Q 1363 391 1709 391 
Q 2188 391 2477 730 
Q 2766 1069 2766 1631 
L 2766 1759 
L 2194 1759 
z
M 3341 1997 
L 3341 0 
L 2766 0 
L 2766 531 
Q 2569 213 2275 61 
Q 1981 -91 1556 -91 
Q 1019 -91 701 211 
Q 384 513 384 1019 
Q 384 1609 779 1909 
Q 1175 2209 1959 2209 
L 2766 2209 
L 2766 2266 
Q 2766 2663 2505 2880 
Q 2244 3097 1772 3097 
Q 1472 3097 1187 3025 
Q 903 2953 641 2809 
L 641 3341 
Q 956 3463 1253 3523 
Q 1550 3584 1831 3584 
Q 2591 3584 2966 3190 
Q 3341 2797 3341 1997 
z
" transform="scale(0.015625)"/>
       <path id="DejaVuSans-66" d="M 2375 4863 
L 2375 4384 
L 1825 4384 
Q 1516 4384 1395 4259 
Q 1275 4134 1275 3809 
L 1275 3500 
L 2222 3500 
L 2222 3053 
L 1275 3053 
L 1275 0 
L 697 0 
L 697 3053 
L 147 3053 
L 147 3500 
L 697 3500 
L 697 3744 
Q 697 4328 969 4595 
Q 1241 4863 1831 4863 
L 2375 4863 
z
" transform="scale(0.015625)"/>
      </defs>
      <use xlink:href="#DejaVuSans-43"/>
      <use xlink:href="#DejaVuSans-6f" x="69.824219"/>
      <use xlink:href="#DejaVuSans-72" x="131.005859"/>
      <use xlink:href="#DejaVuSans-72" x="170.369141"/>
      <use xlink:href="#DejaVuSans-65" x="209.232422"/>
      <use xlink:href="#DejaVuSans-6c" x="270.755859"/>
      <use xlink:href="#DejaVuSans-61" x="298.539062"/>
      <use xlink:href="#DejaVuSans-74" x="359.818359"/>
      <use xlink:href="#DejaVuSans-69" x="399.027344"/>
      <use xlink:href="#DejaVuSans-6f" x="426.810547"/>
      <use xlink:href="#DejaVuSans-6e" x="487.992188"/>
      <use xlink:href="#DejaVuSans-20" x="551.371094"/>
      <use xlink:href="#DejaVuSans-63" x="583.158203"/>
      <use xlink:href="#DejaVuSans-6f" x="638.138672"/>
      <use xlink:href="#DejaVuSans-65" x="699.320312"/>
      <use xlink:href="#DejaVuSans-66" x="760.84375"/>
      <use xlink:href="#DejaVuSans-66" x="796.048828"/>
      <use xlink:href="#DejaVuSans-69" x="831.253906"/>
      <use xlink:href="#DejaVuSans-63" x="859.037109"/>
      <use xlink:href="#DejaVuSans-69" x="914.017578"/>
      <use xlink:href="#DejaVuSans-65" x="941.800781"/>
      <use xlink:href="#DejaVuSans-6e" x="1003.324219"/>
      <use xlink:href="#DejaVuSans-74" x="1066.703125"/>
     </g>
    </g>
   </g>
   <g id="line2d_18">
    <path d="M 87.317788 419.915129 
L 94.420182 417.844762 
L 101.522576 415.774395 
L 108.62497 413.704028 
L 115.727364 411.633661 
L 122.829759 409.563294 
L 129.932153 407.492927 
L 137.034547 405.422561 
L 144.136941 403.352194 
L 151.239335 401.281827 
L 158.341729 399.21146 
L 165.444123 397.141093 
L 172.546517 395.070726 
L 179.648911 393.000359 
L 186.751305 390.929992 
L 193.853699 388.859625 
L 200.956093 386.789258 
L 208.058487 384.718891 
L 215.160881 382.648524 
L 222.263275 380.578157 
L 229.36567 378.50779 
L 236.468064 376.437423 
L 243.570458 374.367056 
L 250.672852 372.296689 
L 257.775246 370.226322 
L 264.87764 368.155955 
L 271.980034 366.085588 
L 279.082428 364.015221 
L 286.184822 361.944854 
L 293.287216 359.874487 
L 300.38961 357.80412 
L 307.492004 355.733753 
L 314.594398 353.663386 
L 321.696792 351.593019 
L 328.799187 349.522652 
L 335.901581 347.452285 
L 343.003975 345.381918 
L 350.106369 343.311551 
L 357.208763 341.241185 
L 364.311157 339.170818 
L 371.413551 337.100451 
L 378.515945 335.030084 
L 385.618339 332.959717 
L 392.720733 330.88935 
L 399.823127 328.818983 
L 406.925521 326.748616 
L 414.027915 324.678249 
L 421.130309 322.607882 
L 428.232704 320.537515 
L 435.335098 318.467148 
L 442.437492 316.396781 
L 449.539886 314.326414 
L 456.64228 312.256047 
L 463.744674 310.18568 
L 470.847068 308.115313 
L 477.949462 306.044946 
L 485.051856 303.974579 
L 492.15425 301.904212 
L 499.256644 299.833845 
L 506.359038 297.763478 
L 513.461432 295.693111 
L 520.563826 293.622744 
L 527.666221 291.552377 
L 534.768615 289.48201 
L 541.871009 287.411643 
L 548.973403 285.341276 
L 556.075797 283.270909 
L 563.178191 281.200542 
L 570.280585 279.130175 
L 577.382979 277.059809 
L 584.485373 274.989442 
L 591.587767 272.919075 
L 598.690161 270.848708 
L 605.792555 268.778341 
L 612.894949 266.707974 
L 619.997343 264.637607 
L 627.099738 262.56724 
L 634.202132 260.496873 
L 641.304526 258.426506 
L 648.40692 256.356139 
L 655.509314 254.285772 
L 662.611708 252.215405 
L 669.714102 250.145038 
L 676.816496 248.074671 
L 683.91889 246.004304 
L 691.021284 243.933937 
L 698.123678 241.86357 
L 705.226072 239.793203 
L 712.328466 237.722836 
L 719.43086 235.652469 
L 726.533255 233.582102 
L 733.635649 231.511735 
L 740.738043 229.441368 
L 747.840437 227.371001 
L 754.942831 225.300634 
L 762.045225 223.230267 
L 769.147619 221.1599 
L 776.250013 219.089533 
L 783.352407 217.019166 
L 790.454801 214.948799 
" clip-path="url(#pe71b630965)" style="fill: none; stroke: #1f77b4; stroke-width: 2.25; stroke-linecap: square"/>
   </g>
   <g id="line2d_19">
    <path d="M 87.317788 474.986138 
L 94.420182 472.314094 
L 101.522576 469.64205 
L 108.62497 466.970007 
L 115.727364 464.297963 
L 122.829759 461.625919 
L 129.932153 458.953876 
L 137.034547 456.281832 
L 144.136941 453.609788 
L 151.239335 450.937745 
L 158.341729 448.265701 
L 165.444123 445.593657 
L 172.546517 442.921614 
L 179.648911 440.24957 
L 186.751305 437.577526 
L 193.853699 434.905483 
L 200.956093 432.233439 
L 208.058487 429.561395 
L 215.160881 426.889351 
L 222.263275 424.217308 
L 229.36567 421.545264 
L 236.468064 418.87322 
L 243.570458 416.201177 
L 250.672852 413.529133 
L 257.775246 410.857089 
L 264.87764 408.185046 
L 271.980034 405.513002 
L 279.082428 402.840958 
L 286.184822 400.168915 
L 293.287216 397.496871 
L 300.38961 394.824827 
L 307.492004 392.152784 
L 314.594398 389.48074 
L 321.696792 386.808696 
L 328.799187 384.136653 
L 335.901581 381.464609 
L 343.003975 378.792565 
L 350.106369 376.120522 
L 357.208763 373.448478 
L 364.311157 370.776434 
L 371.413551 368.10439 
L 378.515945 365.432347 
L 385.618339 362.760303 
L 392.720733 360.088259 
L 399.823127 357.416216 
L 406.925521 354.744172 
L 414.027915 352.072128 
L 421.130309 349.400085 
L 428.232704 346.728041 
L 435.335098 344.055997 
L 442.437492 341.383954 
L 449.539886 338.71191 
L 456.64228 336.039866 
L 463.744674 333.367823 
L 470.847068 330.695779 
L 477.949462 328.023735 
L 485.051856 325.351692 
L 492.15425 322.679648 
L 499.256644 320.007604 
L 506.359038 317.335561 
L 513.461432 314.663517 
L 520.563826 311.991473 
L 527.666221 309.31943 
L 534.768615 306.647386 
L 541.871009 303.975342 
L 548.973403 301.303298 
L 556.075797 298.631255 
L 563.178191 295.959211 
L 570.280585 293.287167 
L 577.382979 290.615124 
L 584.485373 287.94308 
L 591.587767 285.271036 
L 598.690161 282.598993 
L 605.792555 279.926949 
L 612.894949 277.254905 
L 619.997343 274.582862 
L 627.099738 271.910818 
L 634.202132 269.238774 
L 641.304526 266.566731 
L 648.40692 263.894687 
L 655.509314 261.222643 
L 662.611708 258.5506 
L 669.714102 255.878556 
L 676.816496 253.206512 
L 683.91889 250.534469 
L 691.021284 247.862425 
L 698.123678 245.190381 
L 705.226072 242.518337 
L 712.328466 239.846294 
L 719.43086 237.17425 
L 726.533255 234.502206 
L 733.635649 231.830163 
L 740.738043 229.158119 
L 747.840437 226.486075 
L 754.942831 223.814032 
L 762.045225 221.141988 
L 769.147619 218.469944 
L 776.250013 215.797901 
L 783.352407 213.125857 
L 790.454801 210.453813 
" clip-path="url(#pe71b630965)" style="fill: none; stroke: #ff7f0e; stroke-width: 2.25; stroke-linecap: square"/>
   </g>
   <g id="patch_3">
    <path d="M 52.160938 642.866667 
L 52.160938 151.965714 
" style="fill: none; stroke: #000000; stroke-width: 0.8; stroke-linejoin: miter; stroke-linecap: square"/>
   </g>
   <g id="patch_4">
    <path d="M 52.160938 642.866667 
L 825.611652 642.866667 
" style="fill: none; stroke: #000000; stroke-width: 0.8; stroke-linejoin: miter; stroke-linecap: square"/>
   </g>
   <g id="legend_1">
    <g id="patch_5">
     <path d="M 712.499152 637.866667 
L 818.611652 637.866667 
Q 820.611652 637.866667 820.611652 635.866667 
L 820.611652 607.510417 
Q 820.611652 605.510417 818.611652 605.510417 
L 712.499152 605.510417 
Q 710.499152 605.510417 710.499152 607.510417 
L 710.499152 635.866667 
Q 710.499152 637.866667 712.499152 637.866667 
z
" style="fill: #ffffff; opacity: 0.8; stroke: #cccccc; stroke-linejoin: miter"/>
    </g>
    <g id="PathCollection_3">
     <g>
      <use xlink:href="#m61ea0ce657" x="724.499152" y="614.483854" style="fill: #4169e1; fill-opacity: 0.5; stroke: #000000; stroke-opacity: 0.5"/>
     </g>
    </g>
    <g id="text_20">
     <!-- Codon number -->
     <g transform="translate(742.499152 617.108854) scale(0.1 -0.1)">
      <defs>
       <path id="DejaVuSans-64" d="M 2906 2969 
L 2906 4863 
L 3481 4863 
L 3481 0 
L 2906 0 
L 2906 525 
Q 2725 213 2448 61 
Q 2172 -91 1784 -91 
Q 1150 -91 751 415 
Q 353 922 353 1747 
Q 353 2572 751 3078 
Q 1150 3584 1784 3584 
Q 2172 3584 2448 3432 
Q 2725 3281 2906 2969 
z
M 947 1747 
Q 947 1113 1208 752 
Q 1469 391 1925 391 
Q 2381 391 2643 752 
Q 2906 1113 2906 1747 
Q 2906 2381 2643 2742 
Q 2381 3103 1925 3103 
Q 1469 3103 1208 2742 
Q 947 2381 947 1747 
z
" transform="scale(0.015625)"/>
       <path id="DejaVuSans-75" d="M 544 1381 
L 544 3500 
L 1119 3500 
L 1119 1403 
Q 1119 906 1312 657 
Q 1506 409 1894 409 
Q 2359 409 2629 706 
Q 2900 1003 2900 1516 
L 2900 3500 
L 3475 3500 
L 3475 0 
L 2900 0 
L 2900 538 
Q 2691 219 2414 64 
Q 2138 -91 1772 -91 
Q 1169 -91 856 284 
Q 544 659 544 1381 
z
M 1991 3584 
L 1991 3584 
z
" transform="scale(0.015625)"/>
       <path id="DejaVuSans-62" d="M 3116 1747 
Q 3116 2381 2855 2742 
Q 2594 3103 2138 3103 
Q 1681 3103 1420 2742 
Q 1159 2381 1159 1747 
Q 1159 1113 1420 752 
Q 1681 391 2138 391 
Q 2594 391 2855 752 
Q 3116 1113 3116 1747 
z
M 1159 2969 
Q 1341 3281 1617 3432 
Q 1894 3584 2278 3584 
Q 2916 3584 3314 3078 
Q 3713 2572 3713 1747 
Q 3713 922 3314 415 
Q 2916 -91 2278 -91 
Q 1894 -91 1617 61 
Q 1341 213 1159 525 
L 1159 0 
L 581 0 
L 581 4863 
L 1159 4863 
L 1159 2969 
z
" transform="scale(0.015625)"/>
      </defs>
      <use xlink:href="#DejaVuSans-43"/>
      <use xlink:href="#DejaVuSans-6f" x="69.824219"/>
      <use xlink:href="#DejaVuSans-64" x="131.005859"/>
      <use xlink:href="#DejaVuSans-6f" x="194.482422"/>
      <use xlink:href="#DejaVuSans-6e" x="255.664062"/>
      <use xlink:href="#DejaVuSans-20" x="319.042969"/>
      <use xlink:href="#DejaVuSans-6e" x="350.830078"/>
      <use xlink:href="#DejaVuSans-75" x="414.208984"/>
      <use xlink:href="#DejaVuSans-6d" x="477.587891"/>
      <use xlink:href="#DejaVuSans-62" x="575"/>
      <use xlink:href="#DejaVuSans-65" x="638.476562"/>
      <use xlink:href="#DejaVuSans-72" x="700"/>
     </g>
    </g>
    <g id="PathCollection_4">
     <g>
      <use xlink:href="#m8c5f507acc" x="724.499152" y="629.161979" style="fill: #ff8c00; fill-opacity: 0.5; stroke: #000000; stroke-opacity: 0.5"/>
     </g>
    </g>
    <g id="text_21">
     <!-- Codon+GC -->
     <g transform="translate(742.499152 631.786979) scale(0.1 -0.1)">
      <defs>
       <path id="DejaVuSans-2b" d="M 2944 4013 
L 2944 2272 
L 4684 2272 
L 4684 1741 
L 2944 1741 
L 2944 0 
L 2419 0 
L 2419 1741 
L 678 1741 
L 678 2272 
L 2419 2272 
L 2419 4013 
L 2944 4013 
z
" transform="scale(0.015625)"/>
      </defs>
      <use xlink:href="#DejaVuSans-43"/>
      <use xlink:href="#DejaVuSans-6f" x="69.824219"/>
      <use xlink:href="#DejaVuSans-64" x="131.005859"/>
      <use xlink:href="#DejaVuSans-6f" x="194.482422"/>
      <use xlink:href="#DejaVuSans-6e" x="255.664062"/>
      <use xlink:href="#DejaVuSans-2b" x="319.042969"/>
      <use xlink:href="#DejaVuSans-47" x="402.832031"/>
      <use xlink:href="#DejaVuSans-43" x="480.322266"/>
     </g>
    </g>
   </g>
  </g>
  <g id="axes_2">
   <g id="patch_6">
    <path d="M 52.160938 135.038095 
L 825.611652 135.038095 
L 825.611652 50.4 
L 52.160938 50.4 
z
" style="fill: #ffffff"/>
   </g>
   <g id="PolyCollection_3">
    <defs>
     <path id="mc95f11a35b" d="M 87.317788 -607.390752 
L 87.317788 -545.384821 
L 175.209915 -545.384821 
L 175.209915 -545.384821 
L 263.102041 -545.384821 
L 263.102041 -545.384821 
L 350.994168 -545.384821 
L 350.994168 -545.384821 
L 438.886295 -545.384821 
L 438.886295 -545.384821 
L 526.778421 -545.384821 
L 526.778421 -545.384821 
L 614.670548 -545.384821 
L 614.670548 -545.384821 
L 702.562675 -545.384821 
L 702.562675 -545.384821 
L 790.454801 -545.384821 
L 790.454801 -545.384821 
L 790.454801 -582.58838 
L 790.454801 -582.58838 
L 790.454801 -582.58838 
L 702.562675 -582.58838 
L 702.562675 -588.788973 
L 614.670548 -588.788973 
L 614.670548 -625.992531 
L 526.778421 -625.992531 
L 526.778421 -594.989566 
L 438.886295 -594.989566 
L 438.886295 -601.190159 
L 350.994168 -601.190159 
L 350.994168 -588.788973 
L 263.102041 -588.788973 
L 263.102041 -588.788973 
L 175.209915 -588.788973 
L 175.209915 -607.390752 
L 87.317788 -607.390752 
z
" style="stroke: #000000"/>
    </defs>
    <g clip-path="url(#pc809e075b7)">
     <use xlink:href="#mc95f11a35b" x="0" y="680.422917" style="fill: #800080; fill-opacity: 0.75; stroke: #000000"/>
    </g>
   </g>
   <g id="matplotlib.axis_3">
    <g id="xtick_10">
     <g id="line2d_20">
      <g>
       <use xlink:href="#me5ad00f56b" x="64.94765" y="135.038095" style="stroke: #000000; stroke-width: 0.8"/>
      </g>
     </g>
    </g>
    <g id="xtick_11">
     <g id="line2d_21">
      <g>
       <use xlink:href="#me5ad00f56b" x="159.189276" y="135.038095" style="stroke: #000000; stroke-width: 0.8"/>
      </g>
     </g>
    </g>
    <g id="xtick_12">
     <g id="line2d_22">
      <g>
       <use xlink:href="#me5ad00f56b" x="253.430902" y="135.038095" style="stroke: #000000; stroke-width: 0.8"/>
      </g>
     </g>
    </g>
    <g id="xtick_13">
     <g id="line2d_23">
      <g>
       <use xlink:href="#me5ad00f56b" x="347.672527" y="135.038095" style="stroke: #000000; stroke-width: 0.8"/>
      </g>
     </g>
    </g>
    <g id="xtick_14">
     <g id="line2d_24">
      <g>
       <use xlink:href="#me5ad00f56b" x="441.914153" y="135.038095" style="stroke: #000000; stroke-width: 0.8"/>
      </g>
     </g>
    </g>
    <g id="xtick_15">
     <g id="line2d_25">
      <g>
       <use xlink:href="#me5ad00f56b" x="536.155779" y="135.038095" style="stroke: #000000; stroke-width: 0.8"/>
      </g>
     </g>
    </g>
    <g id="xtick_16">
     <g id="line2d_26">
      <g>
       <use xlink:href="#me5ad00f56b" x="630.397405" y="135.038095" style="stroke: #000000; stroke-width: 0.8"/>
      </g>
     </g>
    </g>
    <g id="xtick_17">
     <g id="line2d_27">
      <g>
       <use xlink:href="#me5ad00f56b" x="724.639031" y="135.038095" style="stroke: #000000; stroke-width: 0.8"/>
      </g>
     </g>
    </g>
    <g id="xtick_18">
     <g id="line2d_28">
      <g>
       <use xlink:href="#me5ad00f56b" x="818.880656" y="135.038095" style="stroke: #000000; stroke-width: 0.8"/>
      </g>
     </g>
    </g>
   </g>
   <g id="matplotlib.axis_4">
    <g id="ytick_9"/>
    <g id="ytick_10"/>
    <g id="ytick_11"/>
   </g>
   <g id="patch_7">
    <path d="M 52.160938 135.038095 
L 825.611652 135.038095 
" style="fill: none; stroke: #000000; stroke-width: 0.8; stroke-linejoin: miter; stroke-linecap: square"/>
   </g>
  </g>
  <g id="axes_3">
   <g id="patch_8">
    <path d="M 852.282366 642.866667 
L 985.635937 642.866667 
L 985.635937 151.965714 
L 852.282366 151.965714 
z
" style="fill: #ffffff"/>
   </g>
   <g id="PolyCollection_4">
    <defs>
     <path id="m7798082f3b" d="M 915.393548 -213.450304 
L 858.343892 -213.450304 
L 858.343892 -213.450304 
L 858.343892 -262.232507 
L 858.343892 -262.232507 
L 858.343892 -311.01471 
L 858.343892 -311.01471 
L 858.343892 -359.796913 
L 858.343892 -359.796913 
L 858.343892 -408.579117 
L 858.343892 -408.579117 
L 858.343892 -457.36132 
L 915.393548 -457.36132 
L 915.393548 -457.36132 
L 915.393548 -408.579117 
L 979.574412 -408.579117 
L 979.574412 -359.796913 
L 922.524755 -359.796913 
L 922.524755 -311.01471 
L 958.18079 -311.01471 
L 958.18079 -262.232507 
L 936.787169 -262.232507 
L 936.787169 -213.450304 
L 915.393548 -213.450304 
z
" style="stroke: #000000; stroke-opacity: 0.5"/>
    </defs>
    <g clip-path="url(#p9e68dc33bc)">
     <use xlink:href="#m7798082f3b" x="0" y="680.422917" style="fill: #4169e1; fill-opacity: 0.5; stroke: #000000; stroke-opacity: 0.5"/>
    </g>
   </g>
   <g id="PolyCollection_5">
    <defs>
     <path id="m3365bcbbcc" d="M 877.97491 -59.86993 
L 858.343892 -59.86993 
L 858.343892 -59.86993 
L 858.343892 -130.752855 
L 858.343892 -130.752855 
L 858.343892 -201.635781 
L 858.343892 -201.635781 
L 858.343892 -272.518706 
L 858.343892 -272.518706 
L 858.343892 -343.401631 
L 858.343892 -343.401631 
L 858.343892 -414.284557 
L 946.683471 -414.284557 
L 946.683471 -414.284557 
L 946.683471 -343.401631 
L 946.683471 -343.401631 
L 946.683471 -272.518706 
L 927.052454 -272.518706 
L 927.052454 -201.635781 
L 907.421436 -201.635781 
L 907.421436 -130.752855 
L 873.067155 -130.752855 
L 873.067155 -59.86993 
L 877.97491 -59.86993 
z
" style="stroke: #000000; stroke-opacity: 0.5"/>
    </defs>
    <g clip-path="url(#p9e68dc33bc)">
     <use xlink:href="#m3365bcbbcc" x="0" y="680.422917" style="fill: #ff8c00; fill-opacity: 0.5; stroke: #000000; stroke-opacity: 0.5"/>
    </g>
   </g>
   <g id="matplotlib.axis_5">
    <g id="xtick_19"/>
    <g id="xtick_20"/>
    <g id="xtick_21"/>
    <g id="xtick_22"/>
   </g>
   <g id="matplotlib.axis_6">
    <g id="ytick_12">
     <g id="line2d_29">
      <g>
       <use xlink:href="#md1b094965d" x="852.282366" y="606.625756" style="stroke: #000000; stroke-width: 0.8"/>
      </g>
     </g>
    </g>
    <g id="ytick_13">
     <g id="line2d_30">
      <g>
       <use xlink:href="#md1b094965d" x="852.282366" y="549.670062" style="stroke: #000000; stroke-width: 0.8"/>
      </g>
     </g>
    </g>
    <g id="ytick_14">
     <g id="line2d_31">
      <g>
       <use xlink:href="#md1b094965d" x="852.282366" y="492.714367" style="stroke: #000000; stroke-width: 0.8"/>
      </g>
     </g>
    </g>
    <g id="ytick_15">
     <g id="line2d_32">
      <g>
       <use xlink:href="#md1b094965d" x="852.282366" y="435.758672" style="stroke: #000000; stroke-width: 0.8"/>
      </g>
     </g>
    </g>
    <g id="ytick_16">
     <g id="line2d_33">
      <g>
       <use xlink:href="#md1b094965d" x="852.282366" y="378.802978" style="stroke: #000000; stroke-width: 0.8"/>
      </g>
     </g>
    </g>
    <g id="ytick_17">
     <g id="line2d_34">
      <g>
       <use xlink:href="#md1b094965d" x="852.282366" y="321.847283" style="stroke: #000000; stroke-width: 0.8"/>
      </g>
     </g>
    </g>
    <g id="ytick_18">
     <g id="line2d_35">
      <g>
       <use xlink:href="#md1b094965d" x="852.282366" y="264.891588" style="stroke: #000000; stroke-width: 0.8"/>
      </g>
     </g>
    </g>
    <g id="ytick_19">
     <g id="line2d_36">
      <g>
       <use xlink:href="#md1b094965d" x="852.282366" y="207.935894" style="stroke: #000000; stroke-width: 0.8"/>
      </g>
     </g>
    </g>
   </g>
   <g id="patch_9">
    <path d="M 852.282366 642.866667 
L 852.282366 151.965714 
" style="fill: none; stroke: #000000; stroke-width: 0.8; stroke-linejoin: miter; stroke-linecap: square"/>
   </g>
  </g>
  <g id="text_22">
   <!-- Archaea - Spearman correlation coefficients for genetic code: TrM -->
   <g transform="translate(275.798437 16.318125) scale(0.12 -0.12)">
    <defs>
     <path id="DejaVuSans-41" d="M 2188 4044 
L 1331 1722 
L 3047 1722 
L 2188 4044 
z
M 1831 4666 
L 2547 4666 
L 4325 0 
L 3669 0 
L 3244 1197 
L 1141 1197 
L 716 0 
L 50 0 
L 1831 4666 
z
" transform="scale(0.015625)"/>
     <path id="DejaVuSans-68" d="M 3513 2113 
L 3513 0 
L 2938 0 
L 2938 2094 
Q 2938 2591 2744 2837 
Q 2550 3084 2163 3084 
Q 1697 3084 1428 2787 
Q 1159 2491 1159 1978 
L 1159 0 
L 581 0 
L 581 4863 
L 1159 4863 
L 1159 2956 
Q 1366 3272 1645 3428 
Q 1925 3584 2291 3584 
Q 2894 3584 3203 3211 
Q 3513 2838 3513 2113 
z
" transform="scale(0.015625)"/>
     <path id="DejaVuSans-2d" d="M 313 2009 
L 1997 2009 
L 1997 1497 
L 313 1497 
L 313 2009 
z
" transform="scale(0.015625)"/>
     <path id="DejaVuSans-53" d="M 3425 4513 
L 3425 3897 
Q 3066 4069 2747 4153 
Q 2428 4238 2131 4238 
Q 1616 4238 1336 4038 
Q 1056 3838 1056 3469 
Q 1056 3159 1242 3001 
Q 1428 2844 1947 2747 
L 2328 2669 
Q 3034 2534 3370 2195 
Q 3706 1856 3706 1288 
Q 3706 609 3251 259 
Q 2797 -91 1919 -91 
Q 1588 -91 1214 -16 
Q 841 59 441 206 
L 441 856 
Q 825 641 1194 531 
Q 1563 422 1919 422 
Q 2459 422 2753 634 
Q 3047 847 3047 1241 
Q 3047 1584 2836 1778 
Q 2625 1972 2144 2069 
L 1759 2144 
Q 1053 2284 737 2584 
Q 422 2884 422 3419 
Q 422 4038 858 4394 
Q 1294 4750 2059 4750 
Q 2388 4750 2728 4690 
Q 3069 4631 3425 4513 
z
" transform="scale(0.015625)"/>
     <path id="DejaVuSans-70" d="M 1159 525 
L 1159 -1331 
L 581 -1331 
L 581 3500 
L 1159 3500 
L 1159 2969 
Q 1341 3281 1617 3432 
Q 1894 3584 2278 3584 
Q 2916 3584 3314 3078 
Q 3713 2572 3713 1747 
Q 3713 922 3314 415 
Q 2916 -91 2278 -91 
Q 1894 -91 1617 61 
Q 1341 213 1159 525 
z
M 3116 1747 
Q 3116 2381 2855 2742 
Q 2594 3103 2138 3103 
Q 1681 3103 1420 2742 
Q 1159 2381 1159 1747 
Q 1159 1113 1420 752 
Q 1681 391 2138 391 
Q 2594 391 2855 752 
Q 3116 1113 3116 1747 
z
" transform="scale(0.015625)"/>
     <path id="DejaVuSans-73" d="M 2834 3397 
L 2834 2853 
Q 2591 2978 2328 3040 
Q 2066 3103 1784 3103 
Q 1356 3103 1142 2972 
Q 928 2841 928 2578 
Q 928 2378 1081 2264 
Q 1234 2150 1697 2047 
L 1894 2003 
Q 2506 1872 2764 1633 
Q 3022 1394 3022 966 
Q 3022 478 2636 193 
Q 2250 -91 1575 -91 
Q 1294 -91 989 -36 
Q 684 19 347 128 
L 347 722 
Q 666 556 975 473 
Q 1284 391 1588 391 
Q 1994 391 2212 530 
Q 2431 669 2431 922 
Q 2431 1156 2273 1281 
Q 2116 1406 1581 1522 
L 1381 1569 
Q 847 1681 609 1914 
Q 372 2147 372 2553 
Q 372 3047 722 3315 
Q 1072 3584 1716 3584 
Q 2034 3584 2315 3537 
Q 2597 3491 2834 3397 
z
" transform="scale(0.015625)"/>
     <path id="DejaVuSans-67" d="M 2906 1791 
Q 2906 2416 2648 2759 
Q 2391 3103 1925 3103 
Q 1463 3103 1205 2759 
Q 947 2416 947 1791 
Q 947 1169 1205 825 
Q 1463 481 1925 481 
Q 2391 481 2648 825 
Q 2906 1169 2906 1791 
z
M 3481 434 
Q 3481 -459 3084 -895 
Q 2688 -1331 1869 -1331 
Q 1566 -1331 1297 -1286 
Q 1028 -1241 775 -1147 
L 775 -588 
Q 1028 -725 1275 -790 
Q 1522 -856 1778 -856 
Q 2344 -856 2625 -561 
Q 2906 -266 2906 331 
L 2906 616 
Q 2728 306 2450 153 
Q 2172 0 1784 0 
Q 1141 0 747 490 
Q 353 981 353 1791 
Q 353 2603 747 3093 
Q 1141 3584 1784 3584 
Q 2172 3584 2450 3431 
Q 2728 3278 2906 2969 
L 2906 3500 
L 3481 3500 
L 3481 434 
z
" transform="scale(0.015625)"/>
     <path id="DejaVuSans-3a" d="M 750 794 
L 1409 794 
L 1409 0 
L 750 0 
L 750 794 
z
M 750 3309 
L 1409 3309 
L 1409 2516 
L 750 2516 
L 750 3309 
z
" transform="scale(0.015625)"/>
     <path id="DejaVuSans-54" d="M -19 4666 
L 3928 4666 
L 3928 4134 
L 2272 4134 
L 2272 0 
L 1638 0 
L 1638 4134 
L -19 4134 
L -19 4666 
z
" transform="scale(0.015625)"/>
     <path id="DejaVuSans-4d" d="M 628 4666 
L 1569 4666 
L 2759 1491 
L 3956 4666 
L 4897 4666 
L 4897 0 
L 4281 0 
L 4281 4097 
L 3078 897 
L 2444 897 
L 1241 4097 
L 1241 0 
L 628 0 
L 628 4666 
z
" transform="scale(0.015625)"/>
    </defs>
    <use xlink:href="#DejaVuSans-41"/>
    <use xlink:href="#DejaVuSans-72" x="68.408203"/>
    <use xlink:href="#DejaVuSans-63" x="107.271484"/>
    <use xlink:href="#DejaVuSans-68" x="162.251953"/>
    <use xlink:href="#DejaVuSans-61" x="225.630859"/>
    <use xlink:href="#DejaVuSans-65" x="286.910156"/>
    <use xlink:href="#DejaVuSans-61" x="348.433594"/>
    <use xlink:href="#DejaVuSans-20" x="409.712891"/>
    <use xlink:href="#DejaVuSans-2d" x="441.5"/>
    <use xlink:href="#DejaVuSans-20" x="477.583984"/>
    <use xlink:href="#DejaVuSans-53" x="509.371094"/>
    <use xlink:href="#DejaVuSans-70" x="572.847656"/>
    <use xlink:href="#DejaVuSans-65" x="636.324219"/>
    <use xlink:href="#DejaVuSans-61" x="697.847656"/>
    <use xlink:href="#DejaVuSans-72" x="759.126953"/>
    <use xlink:href="#DejaVuSans-6d" x="798.490234"/>
    <use xlink:href="#DejaVuSans-61" x="895.902344"/>
    <use xlink:href="#DejaVuSans-6e" x="957.181641"/>
    <use xlink:href="#DejaVuSans-20" x="1020.560547"/>
    <use xlink:href="#DejaVuSans-63" x="1052.347656"/>
    <use xlink:href="#DejaVuSans-6f" x="1107.328125"/>
    <use xlink:href="#DejaVuSans-72" x="1168.509766"/>
    <use xlink:href="#DejaVuSans-72" x="1207.873047"/>
    <use xlink:href="#DejaVuSans-65" x="1246.736328"/>
    <use xlink:href="#DejaVuSans-6c" x="1308.259766"/>
    <use xlink:href="#DejaVuSans-61" x="1336.042969"/>
    <use xlink:href="#DejaVuSans-74" x="1397.322266"/>
    <use xlink:href="#DejaVuSans-69" x="1436.53125"/>
    <use xlink:href="#DejaVuSans-6f" x="1464.314453"/>
    <use xlink:href="#DejaVuSans-6e" x="1525.496094"/>
    <use xlink:href="#DejaVuSans-20" x="1588.875"/>
    <use xlink:href="#DejaVuSans-63" x="1620.662109"/>
    <use xlink:href="#DejaVuSans-6f" x="1675.642578"/>
    <use xlink:href="#DejaVuSans-65" x="1736.824219"/>
    <use xlink:href="#DejaVuSans-66" x="1798.347656"/>
    <use xlink:href="#DejaVuSans-66" x="1833.552734"/>
    <use xlink:href="#DejaVuSans-69" x="1868.757812"/>
    <use xlink:href="#DejaVuSans-63" x="1896.541016"/>
    <use xlink:href="#DejaVuSans-69" x="1951.521484"/>
    <use xlink:href="#DejaVuSans-65" x="1979.304688"/>
    <use xlink:href="#DejaVuSans-6e" x="2040.828125"/>
    <use xlink:href="#DejaVuSans-74" x="2104.207031"/>
    <use xlink:href="#DejaVuSans-73" x="2143.416016"/>
    <use xlink:href="#DejaVuSans-20" x="2195.515625"/>
    <use xlink:href="#DejaVuSans-66" x="2227.302734"/>
    <use xlink:href="#DejaVuSans-6f" x="2262.507812"/>
    <use xlink:href="#DejaVuSans-72" x="2323.689453"/>
    <use xlink:href="#DejaVuSans-20" x="2364.802734"/>
    <use xlink:href="#DejaVuSans-67" x="2396.589844"/>
    <use xlink:href="#DejaVuSans-65" x="2460.066406"/>
    <use xlink:href="#DejaVuSans-6e" x="2521.589844"/>
    <use xlink:href="#DejaVuSans-65" x="2584.96875"/>
    <use xlink:href="#DejaVuSans-74" x="2646.492188"/>
    <use xlink:href="#DejaVuSans-69" x="2685.701172"/>
    <use xlink:href="#DejaVuSans-63" x="2713.484375"/>
    <use xlink:href="#DejaVuSans-20" x="2768.464844"/>
    <use xlink:href="#DejaVuSans-63" x="2800.251953"/>
    <use xlink:href="#DejaVuSans-6f" x="2855.232422"/>
    <use xlink:href="#DejaVuSans-64" x="2916.414062"/>
    <use xlink:href="#DejaVuSans-65" x="2979.890625"/>
    <use xlink:href="#DejaVuSans-3a" x="3041.414062"/>
    <use xlink:href="#DejaVuSans-20" x="3075.105469"/>
    <use xlink:href="#DejaVuSans-54" x="3106.892578"/>
    <use xlink:href="#DejaVuSans-72" x="3153.226562"/>
    <use xlink:href="#DejaVuSans-4d" x="3194.339844"/>
   </g>
  </g>
 </g>
 <defs>
  <clipPath id="pe71b630965">
   <rect x="52.160938" y="151.965714" width="773.450714" height="490.900952"/>
  </clipPath>
  <clipPath id="pc809e075b7">
   <rect x="52.160938" y="50.4" width="773.450714" height="84.638095"/>
  </clipPath>
  <clipPath id="p9e68dc33bc">
   <rect x="852.282366" y="151.965714" width="133.353571" height="490.900952"/>
  </clipPath>
 </defs>
</svg>
