<?xml version="1.0" encoding="utf-8" standalone="no"?>
<!DOCTYPE svg PUBLIC "-//W3C//DTD SVG 1.1//EN"
  "http://www.w3.org/Graphics/SVG/1.1/DTD/svg11.dtd">
<svg xmlns:xlink="http://www.w3.org/1999/xlink" width="572.4pt" height="564.071676pt" viewBox="0 0 572.4 564.071676" xmlns="http://www.w3.org/2000/svg" version="1.1">
 <metadata>
  <rdf:RDF xmlns:dc="http://purl.org/dc/elements/1.1/" xmlns:cc="http://creativecommons.org/ns#" xmlns:rdf="http://www.w3.org/1999/02/22-rdf-syntax-ns#">
   <cc:Work>
    <dc:type rdf:resource="http://purl.org/dc/dcmitype/StillImage"/>
    <dc:date>2024-08-01T13:47:57.268237</dc:date>
    <dc:format>image/svg+xml</dc:format>
    <dc:creator>
     <cc:Agent>
      <dc:title>Matplotlib v3.8.3, https://matplotlib.org/</dc:title>
     </cc:Agent>
    </dc:creator>
   </cc:Work>
  </rdf:RDF>
 </metadata>
 <defs>
  <style type="text/css">*{stroke-linejoin: round; stroke-linecap: butt}</style>
 </defs>
 <g id="figure_1">
  <g id="patch_1">
   <path d="M 0 564.071676 
L 572.4 564.071676 
L 572.4 0 
L 0 0 
z
" style="fill: #ffffff"/>
  </g>
  <g id="axes_1">
   <g id="patch_2">
    <path d="M 7.2 556.871676 
L 565.2 556.871676 
L 565.2 7.2 
L 7.2 7.2 
z
" style="fill: #ffffff"/>
   </g>
   <g id="patch_3">
    <path d="M 79.927411 290.034104 
Q 106.85396 355.04053 133.352656 419.014028 
" clip-path="url(#pd210264c8c)" style="fill: none; stroke: #000000; stroke-linecap: round"/>
    <path d="M 133.669681 414.553143 
L 133.352656 419.014028 
L 129.974163 416.083877 
z
" clip-path="url(#pd210264c8c)" style="stroke: #000000; stroke-linecap: round"/>
   </g>
   <g id="patch_4">
    <path d="M 82.736355 288.157784 
Q 179.857576 385.278995 276.188227 481.609636 
" clip-path="url(#pd210264c8c)" style="fill: none; stroke: #000000; stroke-linecap: round"/>
    <path d="M 274.774013 477.366996 
L 276.188227 481.609636 
L 271.945586 480.195423 
z
" clip-path="url(#pd210264c8c)" style="stroke: #000000; stroke-linecap: round"/>
   </g>
   <g id="patch_5">
    <path d="M 84.615222 285.349892 
Q 252.861991 355.039943 420.075831 424.302141 
" clip-path="url(#pd210264c8c)" style="fill: none; stroke: #000000; stroke-linecap: round"/>
    <path d="M 417.145679 420.923649 
L 420.075831 424.302141 
L 415.614946 424.619168 
z
" clip-path="url(#pd210264c8c)" style="stroke: #000000; stroke-linecap: round"/>
   </g>
   <g id="patch_6">
    <path d="M 85.275868 282.035856 
Q 283.104034 282.03583 479.814166 282.035804 
" clip-path="url(#pd210264c8c)" style="fill: none; stroke: #000000; stroke-linecap: round"/>
    <path d="M 475.814166 280.035804 
L 479.814166 282.035804 
L 475.814166 284.035804 
z
" clip-path="url(#pd210264c8c)" style="stroke: #000000; stroke-linecap: round"/>
   </g>
   <g id="patch_7">
    <path d="M 84.615221 278.721819 
Q 252.861966 209.031728 420.075783 139.769489 
" clip-path="url(#pd210264c8c)" style="fill: none; stroke: #000000; stroke-linecap: round"/>
    <path d="M 415.614898 139.452464 
L 420.075783 139.769489 
L 417.145632 143.147982 
z
" clip-path="url(#pd210264c8c)" style="stroke: #000000; stroke-linecap: round"/>
   </g>
   <g id="patch_8">
    <path d="M 82.736353 275.913929 
Q 179.85754 178.792701 276.188157 82.462042 
" clip-path="url(#pd210264c8c)" style="fill: none; stroke: #000000; stroke-linecap: round"/>
    <path d="M 271.945517 83.876257 
L 276.188157 82.462042 
L 274.773945 86.704683 
z
" clip-path="url(#pd210264c8c)" style="stroke: #000000; stroke-linecap: round"/>
   </g>
   <g id="patch_9">
    <path d="M 79.927412 274.037606 
Q 106.853972 209.031153 133.352679 145.057628 
" clip-path="url(#pd210264c8c)" style="fill: none; stroke: #000000; stroke-linecap: round"/>
    <path d="M 129.974186 147.987779 
L 133.352679 145.057628 
L 133.669704 149.518513 
z
" clip-path="url(#pd210264c8c)" style="stroke: #000000; stroke-linecap: round"/>
   </g>
   <g id="text_1">
    <g id="patch_10">
     <path d="M 98.394199 355.101319 
L 100.829023 360.979502 
Q 101.977073 363.75114 104.748712 362.60309 
L 113.690133 358.899431 
Q 116.461772 357.751381 115.313721 354.979742 
L 112.878897 349.101559 
Q 111.730847 346.32992 108.959208 347.477971 
L 100.017787 351.18163 
Q 97.246148 352.32968 98.394199 355.101319 
z
" clip-path="url(#pd210264c8c)" style="fill: #ffffff; stroke: #ffffff; stroke-linejoin: miter"/>
    </g>
    <g clip-path="url(#pd210264c8c)">
     <!-- 0 -->
     <g transform="translate(103.087218 353.157406) rotate(-292.500004) scale(0.1 -0.1)">
      <defs>
       <path id="DejaVuSans-30" d="M 2034 4250 
Q 1547 4250 1301 3770 
Q 1056 3291 1056 2328 
Q 1056 1369 1301 889 
Q 1547 409 2034 409 
Q 2525 409 2770 889 
Q 3016 1369 3016 2328 
Q 3016 3291 2770 3770 
Q 2525 4250 2034 4250 
z
M 2034 4750 
Q 2819 4750 3233 4129 
Q 3647 3509 3647 2328 
Q 3647 1150 3233 529 
Q 2819 -91 2034 -91 
Q 1250 -91 836 529 
Q 422 1150 422 2328 
Q 422 3509 836 4129 
Q 1250 4750 2034 4750 
z
" transform="scale(0.015625)"/>
      </defs>
      <use xlink:href="#DejaVuSans-30"/>
     </g>
    </g>
   </g>
   <g id="text_2">
    <g id="patch_11">
     <path d="M 163.067104 379.574633 
L 185.56194 402.069466 
Q 187.68326 404.190786 189.80458 402.069466 
L 196.648048 395.225998 
Q 198.769368 393.104677 196.648048 390.983357 
L 174.153212 368.488524 
Q 172.031892 366.367203 169.910571 368.488524 
L 163.067104 375.331992 
Q 160.945784 377.453312 163.067104 379.574633 
z
" clip-path="url(#pd210264c8c)" style="fill: #ffffff; stroke: #ffffff; stroke-linejoin: miter"/>
    </g>
    <g clip-path="url(#pd210264c8c)">
     <!-- 25366 -->
     <g transform="translate(166.658985 375.982751) rotate(-315.000003) scale(0.1 -0.1)">
      <defs>
       <path id="DejaVuSans-32" d="M 1228 531 
L 3431 531 
L 3431 0 
L 469 0 
L 469 531 
Q 828 903 1448 1529 
Q 2069 2156 2228 2338 
Q 2531 2678 2651 2914 
Q 2772 3150 2772 3378 
Q 2772 3750 2511 3984 
Q 2250 4219 1831 4219 
Q 1534 4219 1204 4116 
Q 875 4013 500 3803 
L 500 4441 
Q 881 4594 1212 4672 
Q 1544 4750 1819 4750 
Q 2544 4750 2975 4387 
Q 3406 4025 3406 3419 
Q 3406 3131 3298 2873 
Q 3191 2616 2906 2266 
Q 2828 2175 2409 1742 
Q 1991 1309 1228 531 
z
" transform="scale(0.015625)"/>
       <path id="DejaVuSans-35" d="M 691 4666 
L 3169 4666 
L 3169 4134 
L 1269 4134 
L 1269 2991 
Q 1406 3038 1543 3061 
Q 1681 3084 1819 3084 
Q 2600 3084 3056 2656 
Q 3513 2228 3513 1497 
Q 3513 744 3044 326 
Q 2575 -91 1722 -91 
Q 1428 -91 1123 -41 
Q 819 9 494 109 
L 494 744 
Q 775 591 1075 516 
Q 1375 441 1709 441 
Q 2250 441 2565 725 
Q 2881 1009 2881 1497 
Q 2881 1984 2565 2268 
Q 2250 2553 1709 2553 
Q 1456 2553 1204 2497 
Q 953 2441 691 2322 
L 691 4666 
z
" transform="scale(0.015625)"/>
       <path id="DejaVuSans-33" d="M 2597 2516 
Q 3050 2419 3304 2112 
Q 3559 1806 3559 1356 
Q 3559 666 3084 287 
Q 2609 -91 1734 -91 
Q 1441 -91 1130 -33 
Q 819 25 488 141 
L 488 750 
Q 750 597 1062 519 
Q 1375 441 1716 441 
Q 2309 441 2620 675 
Q 2931 909 2931 1356 
Q 2931 1769 2642 2001 
Q 2353 2234 1838 2234 
L 1294 2234 
L 1294 2753 
L 1863 2753 
Q 2328 2753 2575 2939 
Q 2822 3125 2822 3475 
Q 2822 3834 2567 4026 
Q 2313 4219 1838 4219 
Q 1578 4219 1281 4162 
Q 984 4106 628 3988 
L 628 4550 
Q 988 4650 1302 4700 
Q 1616 4750 1894 4750 
Q 2613 4750 3031 4423 
Q 3450 4097 3450 3541 
Q 3450 3153 3228 2886 
Q 3006 2619 2597 2516 
z
" transform="scale(0.015625)"/>
       <path id="DejaVuSans-36" d="M 2113 2584 
Q 1688 2584 1439 2293 
Q 1191 2003 1191 1497 
Q 1191 994 1439 701 
Q 1688 409 2113 409 
Q 2538 409 2786 701 
Q 3034 994 3034 1497 
Q 3034 2003 2786 2293 
Q 2538 2584 2113 2584 
z
M 3366 4563 
L 3366 3988 
Q 3128 4100 2886 4159 
Q 2644 4219 2406 4219 
Q 1781 4219 1451 3797 
Q 1122 3375 1075 2522 
Q 1259 2794 1537 2939 
Q 1816 3084 2150 3084 
Q 2853 3084 3261 2657 
Q 3669 2231 3669 1497 
Q 3669 778 3244 343 
Q 2819 -91 2113 -91 
Q 1303 -91 875 529 
Q 447 1150 447 2328 
Q 447 3434 972 4092 
Q 1497 4750 2381 4750 
Q 2619 4750 2861 4703 
Q 3103 4656 3366 4563 
z
" transform="scale(0.015625)"/>
      </defs>
      <use xlink:href="#DejaVuSans-32"/>
      <use xlink:href="#DejaVuSans-35" x="63.623047"/>
      <use xlink:href="#DejaVuSans-33" x="127.246094"/>
      <use xlink:href="#DejaVuSans-36" x="190.869141"/>
      <use xlink:href="#DejaVuSans-36" x="254.492188"/>
     </g>
    </g>
   </g>
   <g id="text_3">
    <g id="patch_12">
     <path d="M 235.166653 356.195238 
L 264.557573 368.369348 
Q 267.329212 369.517398 268.477261 366.745759 
L 272.180918 357.804337 
Q 273.328967 355.032698 270.557329 353.884648 
L 241.166408 341.710538 
Q 238.394769 340.562488 237.24672 343.334127 
L 233.543064 352.27555 
Q 232.395014 355.047188 235.166653 356.195238 
z
" clip-path="url(#pd210264c8c)" style="fill: #ffffff; stroke: #ffffff; stroke-linejoin: miter"/>
    </g>
    <g clip-path="url(#pd210264c8c)">
     <!-- 34645 -->
     <g transform="translate(237.110564 351.502218) rotate(-337.500012) scale(0.1 -0.1)">
      <defs>
       <path id="DejaVuSans-34" d="M 2419 4116 
L 825 1625 
L 2419 1625 
L 2419 4116 
z
M 2253 4666 
L 3047 4666 
L 3047 1625 
L 3713 1625 
L 3713 1100 
L 3047 1100 
L 3047 0 
L 2419 0 
L 2419 1100 
L 313 1100 
L 313 1709 
L 2253 4666 
z
" transform="scale(0.015625)"/>
      </defs>
      <use xlink:href="#DejaVuSans-33"/>
      <use xlink:href="#DejaVuSans-34" x="63.623047"/>
      <use xlink:href="#DejaVuSans-36" x="127.246094"/>
      <use xlink:href="#DejaVuSans-34" x="190.869141"/>
      <use xlink:href="#DejaVuSans-35" x="254.492188"/>
     </g>
    </g>
   </g>
   <g id="text_4">
    <g id="patch_13">
     <path d="M 267.197785 289.874894 
L 299.010285 289.87489 
Q 302.010285 289.87489 302.010285 286.87489 
L 302.010283 277.196765 
Q 302.010283 274.196765 299.010283 274.196765 
L 267.197783 274.196769 
Q 264.197783 274.19677 264.197783 277.19677 
L 264.197785 286.874895 
Q 264.197785 289.874895 267.197785 289.874894 
z
" clip-path="url(#pd210264c8c)" style="fill: #ffffff; stroke: #ffffff; stroke-linejoin: miter"/>
    </g>
    <g clip-path="url(#pd210264c8c)">
     <!-- 25612 -->
     <g transform="translate(267.197784 284.795207) rotate(-0.000008) scale(0.1 -0.1)">
      <defs>
       <path id="DejaVuSans-31" d="M 794 531 
L 1825 531 
L 1825 4091 
L 703 3866 
L 703 4441 
L 1819 4666 
L 2450 4666 
L 2450 531 
L 3481 531 
L 3481 0 
L 794 0 
L 794 531 
z
" transform="scale(0.015625)"/>
      </defs>
      <use xlink:href="#DejaVuSans-32"/>
      <use xlink:href="#DejaVuSans-35" x="63.623047"/>
      <use xlink:href="#DejaVuSans-36" x="127.246094"/>
      <use xlink:href="#DejaVuSans-31" x="190.869141"/>
      <use xlink:href="#DejaVuSans-32" x="254.492188"/>
     </g>
    </g>
   </g>
   <g id="text_5">
    <g id="patch_14">
     <path d="M 241.166387 222.361136 
L 270.557304 210.187018 
Q 273.328943 209.038968 272.180892 206.267329 
L 268.477234 197.325908 
Q 267.329183 194.554269 264.557545 195.70232 
L 235.166628 207.876437 
Q 232.394989 209.024488 233.54304 211.796126 
L 237.246698 220.737548 
Q 238.394749 223.509186 241.166387 222.361136 
z
" clip-path="url(#pd210264c8c)" style="fill: #ffffff; stroke: #ffffff; stroke-linejoin: miter"/>
    </g>
    <g clip-path="url(#pd210264c8c)">
     <!-- 28812 -->
     <g transform="translate(239.222475 217.668117) rotate(-22.500002) scale(0.1 -0.1)">
      <defs>
       <path id="DejaVuSans-38" d="M 2034 2216 
Q 1584 2216 1326 1975 
Q 1069 1734 1069 1313 
Q 1069 891 1326 650 
Q 1584 409 2034 409 
Q 2484 409 2743 651 
Q 3003 894 3003 1313 
Q 3003 1734 2745 1975 
Q 2488 2216 2034 2216 
z
M 1403 2484 
Q 997 2584 770 2862 
Q 544 3141 544 3541 
Q 544 4100 942 4425 
Q 1341 4750 2034 4750 
Q 2731 4750 3128 4425 
Q 3525 4100 3525 3541 
Q 3525 3141 3298 2862 
Q 3072 2584 2669 2484 
Q 3125 2378 3379 2068 
Q 3634 1759 3634 1313 
Q 3634 634 3220 271 
Q 2806 -91 2034 -91 
Q 1263 -91 848 271 
Q 434 634 434 1313 
Q 434 1759 690 2068 
Q 947 2378 1403 2484 
z
M 1172 3481 
Q 1172 3119 1398 2916 
Q 1625 2713 2034 2713 
Q 2441 2713 2670 2916 
Q 2900 3119 2900 3481 
Q 2900 3844 2670 4047 
Q 2441 4250 2034 4250 
Q 1625 4250 1398 4047 
Q 1172 3844 1172 3481 
z
" transform="scale(0.015625)"/>
      </defs>
      <use xlink:href="#DejaVuSans-32"/>
      <use xlink:href="#DejaVuSans-38" x="63.623047"/>
      <use xlink:href="#DejaVuSans-38" x="127.246094"/>
      <use xlink:href="#DejaVuSans-31" x="190.869141"/>
      <use xlink:href="#DejaVuSans-32" x="254.492188"/>
     </g>
    </g>
   </g>
   <g id="text_6">
    <g id="patch_15">
     <path d="M 174.15318 195.583173 
L 196.64801 173.088334 
Q 198.76933 170.967013 196.648009 168.845694 
L 189.80454 162.002227 
Q 187.683219 159.880907 185.561899 162.002228 
L 163.067069 184.497067 
Q 160.94575 186.618388 163.06707 188.739708 
L 169.91054 195.583174 
Q 172.03186 197.704494 174.15318 195.583173 
z
" clip-path="url(#pd210264c8c)" style="fill: #ffffff; stroke: #ffffff; stroke-linejoin: miter"/>
    </g>
    <g clip-path="url(#pd210264c8c)">
     <!-- 36604 -->
     <g transform="translate(170.561298 191.991293) rotate(-45.000012) scale(0.1 -0.1)">
      <use xlink:href="#DejaVuSans-33"/>
      <use xlink:href="#DejaVuSans-36" x="63.623047"/>
      <use xlink:href="#DejaVuSans-36" x="127.246094"/>
      <use xlink:href="#DejaVuSans-30" x="190.869141"/>
      <use xlink:href="#DejaVuSans-34" x="254.492188"/>
     </g>
    </g>
   </g>
   <g id="text_7">
    <g id="patch_16">
     <path d="M 108.009262 226.726491 
L 120.183381 197.335574 
Q 121.331431 194.563936 118.559793 193.415885 
L 109.618372 189.712227 
Q 106.846733 188.564176 105.698683 191.335815 
L 93.524564 220.726731 
Q 92.376513 223.49837 95.148152 224.64642 
L 104.089573 228.350079 
Q 106.861212 229.49813 108.009262 226.726491 
z
" clip-path="url(#pd210264c8c)" style="fill: #ffffff; stroke: #ffffff; stroke-linejoin: miter"/>
    </g>
    <g clip-path="url(#pd210264c8c)">
     <!-- 22695 -->
     <g transform="translate(103.316243 224.782579) rotate(-67.499996) scale(0.1 -0.1)">
      <defs>
       <path id="DejaVuSans-39" d="M 703 97 
L 703 672 
Q 941 559 1184 500 
Q 1428 441 1663 441 
Q 2288 441 2617 861 
Q 2947 1281 2994 2138 
Q 2813 1869 2534 1725 
Q 2256 1581 1919 1581 
Q 1219 1581 811 2004 
Q 403 2428 403 3163 
Q 403 3881 828 4315 
Q 1253 4750 1959 4750 
Q 2769 4750 3195 4129 
Q 3622 3509 3622 2328 
Q 3622 1225 3098 567 
Q 2575 -91 1691 -91 
Q 1453 -91 1209 -44 
Q 966 3 703 97 
z
M 1959 2075 
Q 2384 2075 2632 2365 
Q 2881 2656 2881 3163 
Q 2881 3666 2632 3958 
Q 2384 4250 1959 4250 
Q 1534 4250 1286 3958 
Q 1038 3666 1038 3163 
Q 1038 2656 1286 2365 
Q 1534 2075 1959 2075 
z
" transform="scale(0.015625)"/>
      </defs>
      <use xlink:href="#DejaVuSans-32"/>
      <use xlink:href="#DejaVuSans-32" x="63.623047"/>
      <use xlink:href="#DejaVuSans-36" x="127.246094"/>
      <use xlink:href="#DejaVuSans-39" x="190.869141"/>
      <use xlink:href="#DejaVuSans-35" x="254.492188"/>
     </g>
    </g>
   </g>
   <g id="patch_17">
    <path d="M 76.614428 254.504092 
C 71.42544 254.504092 66.340656 255.971067 61.949095 258.735083 
C 57.557533 261.499099 54.035576 265.449143 51.791202 270.127645 
C 49.546828 274.806147 48.670181 280.025201 49.262811 285.180236 
C 49.855441 290.335271 51.893545 295.219241 55.141032 299.266392 
L 76.614428 282.035857 
z
" style="fill: #0000ff"/>
   </g>
   <g id="patch_18">
    <path d="M 55.141032 299.266392 
C 58.05404 302.896701 61.84064 305.729696 66.145555 307.499572 
C 70.450471 309.269447 75.134721 309.919065 79.758807 309.387473 
C 84.382893 308.855882 88.797529 307.160245 92.588513 304.459653 
C 96.379498 301.759061 99.424442 298.140703 101.437653 293.944069 
C 103.450865 289.747435 104.36735 285.108011 104.101118 280.461089 
C 103.834887 275.814167 102.394534 271.309771 99.915202 267.370524 
C 97.435869 263.431277 93.9976 260.184355 89.922988 257.934399 
C 85.848377 255.684443 81.268969 254.504092 76.614428 254.504092 
L 76.614428 282.035857 
z
" style="fill: #ff0000"/>
   </g>
   <g id="matplotlib.axis_1">
    <g id="xtick_1"/>
    <g id="xtick_2"/>
    <g id="xtick_3"/>
    <g id="xtick_4"/>
    <g id="xtick_5"/>
    <g id="xtick_6"/>
    <g id="xtick_7"/>
    <g id="xtick_8"/>
    <g id="xtick_9"/>
   </g>
   <g id="matplotlib.axis_2">
    <g id="ytick_1"/>
    <g id="ytick_2"/>
    <g id="ytick_3"/>
    <g id="ytick_4"/>
    <g id="ytick_5"/>
    <g id="ytick_6"/>
    <g id="ytick_7"/>
   </g>
   <g id="PathCollection_1">
    <path d="M 76.614428 297.847245 
C 80.807657 297.847245 84.829707 296.181257 87.794767 293.216197 
C 90.759828 290.251136 92.425816 286.229086 92.425816 282.035857 
C 92.425816 277.842628 90.759828 273.820578 87.794767 270.855517 
C 84.829707 267.890456 80.807657 266.224468 76.614428 266.224468 
C 72.421198 266.224468 68.399148 267.890456 65.434088 270.855517 
C 62.469027 273.820578 60.803039 277.842628 60.803039 282.035857 
C 60.803039 286.229086 62.469027 290.251136 65.434088 293.216197 
C 68.399148 296.181257 72.421198 297.847245 76.614428 297.847245 
z
" clip-path="url(#pd210264c8c)" style="fill: #87ceeb; stroke: #000000"/>
    <path d="M 137.093446 443.856479 
C 141.286675 443.856479 145.308725 442.190491 148.273785 439.225431 
C 151.238846 436.26037 152.904834 432.23832 152.904834 428.045091 
C 152.904834 423.851861 151.238846 419.829812 148.273785 416.864751 
C 145.308725 413.89969 141.286675 412.233702 137.093446 412.233702 
C 132.900216 412.233702 128.878167 413.89969 125.913106 416.864751 
C 122.948045 419.829812 121.282057 423.851861 121.282057 428.045091 
C 121.282057 432.23832 122.948045 436.26037 125.913106 439.225431 
C 128.878167 442.190491 132.900216 443.856479 137.093446 443.856479 
z
" clip-path="url(#pd210264c8c)" style="fill: #90ee90; stroke: #000000"/>
    <path d="M 283.102663 531.058938 
C 294.383041 531.058938 305.202923 526.577196 313.179355 518.600764 
C 321.155787 510.624332 325.637529 499.80445 325.637529 488.524072 
C 325.637529 477.243693 321.155787 466.423811 313.179355 458.447379 
C 305.202923 450.470947 294.383041 445.989206 283.102663 445.989206 
C 271.822285 445.989206 261.002403 450.470947 253.025971 458.447379 
C 245.049539 466.423811 240.567797 477.243693 240.567797 488.524072 
C 240.567797 499.80445 245.049539 510.624332 253.025971 518.600764 
C 261.002403 526.577196 271.822285 531.058938 283.102663 531.058938 
z
" clip-path="url(#pd210264c8c)" style="fill: #90ee90; stroke: #000000"/>
    <path d="M 429.111937 476.825985 
C 442.048801 476.825985 454.457546 471.686114 463.60529 462.53837 
C 472.753035 453.390626 477.892905 440.981881 477.892905 428.045017 
C 477.892905 415.108153 472.753035 402.699408 463.60529 393.551664 
C 454.457546 384.403919 442.048801 379.264049 429.111937 379.264049 
C 416.175073 379.264049 403.766328 384.403919 394.618584 393.551664 
C 385.47084 402.699408 380.330969 415.108153 380.330969 428.045017 
C 380.330969 440.981881 385.47084 453.390626 394.618584 462.53837 
C 403.766328 471.686114 416.175073 476.825985 429.111937 476.825985 
z
" clip-path="url(#pd210264c8c)" style="fill: #90ee90; stroke: #000000"/>
    <path d="M 489.590894 324.748051 
C 500.918314 324.748051 511.783318 320.247619 519.793014 312.237923 
C 527.80271 304.228227 532.303142 293.363223 532.303142 282.035803 
C 532.303142 270.708382 527.80271 259.843378 519.793014 251.833682 
C 511.783318 243.823986 500.918314 239.323555 489.590894 239.323555 
C 478.263473 239.323555 467.398469 243.823986 459.388773 251.833682 
C 451.379077 259.843378 446.878645 270.708382 446.878645 282.035803 
C 446.878645 293.363223 451.379077 304.228227 459.388773 312.237923 
C 467.398469 320.247619 478.263473 324.748051 489.590894 324.748051 
z
" clip-path="url(#pd210264c8c)" style="fill: #90ee90; stroke: #000000"/>
    <path d="M 429.111888 180.982545 
C 441.034341 180.982545 452.470086 176.245704 460.900533 167.815257 
C 469.330981 159.38481 474.067821 147.949064 474.067821 136.026611 
C 474.067821 124.104159 469.330981 112.668413 460.900533 104.237966 
C 452.470086 95.807519 441.034341 91.070678 429.111888 91.070678 
C 417.189435 91.070678 405.75369 95.807519 397.323242 104.237966 
C 388.892795 112.668413 384.155954 124.104159 384.155954 136.026611 
C 384.155954 147.949064 388.892795 159.38481 397.323242 167.815257 
C 405.75369 176.245704 417.189435 180.982545 429.111888 180.982545 
z
" clip-path="url(#pd210264c8c)" style="fill: #90ee90; stroke: #000000"/>
    <path d="M 283.102591 125.547606 
C 296.362746 125.547606 309.081584 120.27929 318.45793 110.902945 
C 327.834275 101.526599 333.102591 88.807761 333.102591 75.547606 
C 333.102591 62.287451 327.834275 49.568612 318.45793 40.192267 
C 309.081584 30.815921 296.362746 25.547606 283.102591 25.547606 
C 269.842436 25.547606 257.123597 30.815921 247.747252 40.192267 
C 238.370906 49.568612 233.102591 62.287451 233.102591 75.547606 
C 233.102591 88.807761 238.370906 101.526599 247.747252 110.902945 
C 257.123597 120.27929 269.842436 125.547606 283.102591 125.547606 
z
" clip-path="url(#pd210264c8c)" style="fill: #90ee90; stroke: #000000"/>
    <path d="M 137.09347 176.585556 
C 147.849841 176.585556 158.167107 172.312004 165.77301 164.706102 
C 173.378912 157.100199 177.652464 146.782933 177.652464 136.026562 
C 177.652464 125.270191 173.378912 114.952926 165.77301 107.347023 
C 158.167107 99.74112 147.849841 95.467569 137.09347 95.467569 
C 126.337099 95.467569 116.019834 99.74112 108.413931 107.347023 
C 100.808028 114.952926 96.534477 125.270191 96.534477 136.026562 
C 96.534477 146.782933 100.808028 157.100199 108.413931 164.706102 
C 116.019834 172.312004 126.337099 176.585556 137.09347 176.585556 
z
" clip-path="url(#pd210264c8c)" style="fill: #90ee90; stroke: #000000"/>
   </g>
   <g id="patch_19">
    <path d="M 7.2 556.871676 
L 7.2 7.2 
" style="fill: none; stroke: #000000; stroke-width: 0.8; stroke-linejoin: miter; stroke-linecap: square"/>
   </g>
   <g id="patch_20">
    <path d="M 565.2 556.871676 
L 565.2 7.2 
" style="fill: none; stroke: #000000; stroke-width: 0.8; stroke-linejoin: miter; stroke-linecap: square"/>
   </g>
   <g id="patch_21">
    <path d="M 7.2 556.871676 
L 565.2 556.871676 
" style="fill: none; stroke: #000000; stroke-width: 0.8; stroke-linejoin: miter; stroke-linecap: square"/>
   </g>
   <g id="patch_22">
    <path d="M 7.2 7.2 
L 565.2 7.2 
" style="fill: none; stroke: #000000; stroke-width: 0.8; stroke-linejoin: miter; stroke-linecap: square"/>
   </g>
   <g id="text_8">
    <g clip-path="url(#pd210264c8c)">
     <!-- $\mathbf{S}$ -->
     <g transform="translate(72.234428 285.347107) scale(0.12 -0.12)">
      <defs>
       <path id="DejaVuSans-Bold-53" d="M 3834 4519 
L 3834 3531 
Q 3450 3703 3084 3790 
Q 2719 3878 2394 3878 
Q 1963 3878 1756 3759 
Q 1550 3641 1550 3391 
Q 1550 3203 1689 3098 
Q 1828 2994 2194 2919 
L 2706 2816 
Q 3484 2659 3812 2340 
Q 4141 2022 4141 1434 
Q 4141 663 3683 286 
Q 3225 -91 2284 -91 
Q 1841 -91 1394 -6 
Q 947 78 500 244 
L 500 1259 
Q 947 1022 1364 901 
Q 1781 781 2169 781 
Q 2563 781 2772 912 
Q 2981 1044 2981 1288 
Q 2981 1506 2839 1625 
Q 2697 1744 2272 1838 
L 1806 1941 
Q 1106 2091 782 2419 
Q 459 2747 459 3303 
Q 459 4000 909 4375 
Q 1359 4750 2203 4750 
Q 2588 4750 2994 4692 
Q 3400 4634 3834 4519 
z
" transform="scale(0.015625)"/>
      </defs>
      <use xlink:href="#DejaVuSans-Bold-53" transform="translate(0 0.78125)"/>
     </g>
    </g>
   </g>
   <g id="text_9">
    <g clip-path="url(#pd210264c8c)">
     <!-- NCC -->
     <g transform="translate(124.225321 431.356341) scale(0.12 -0.12)">
      <defs>
       <path id="DejaVuSans-4e" d="M 628 4666 
L 1478 4666 
L 3547 763 
L 3547 4666 
L 4159 4666 
L 4159 0 
L 3309 0 
L 1241 3903 
L 1241 0 
L 628 0 
L 628 4666 
z
" transform="scale(0.015625)"/>
       <path id="DejaVuSans-43" d="M 4122 4306 
L 4122 3641 
Q 3803 3938 3442 4084 
Q 3081 4231 2675 4231 
Q 1875 4231 1450 3742 
Q 1025 3253 1025 2328 
Q 1025 1406 1450 917 
Q 1875 428 2675 428 
Q 3081 428 3442 575 
Q 3803 722 4122 1019 
L 4122 359 
Q 3791 134 3420 21 
Q 3050 -91 2638 -91 
Q 1578 -91 968 557 
Q 359 1206 359 2328 
Q 359 3453 968 4101 
Q 1578 4750 2638 4750 
Q 3056 4750 3426 4639 
Q 3797 4528 4122 4306 
z
" transform="scale(0.015625)"/>
      </defs>
      <use xlink:href="#DejaVuSans-4e"/>
      <use xlink:href="#DejaVuSans-43" x="74.804688"/>
      <use xlink:href="#DejaVuSans-43" x="144.628906"/>
     </g>
    </g>
   </g>
   <g id="text_10">
    <g clip-path="url(#pd210264c8c)">
     <!-- AGT -->
     <g transform="translate(271.007038 491.835322) scale(0.12 -0.12)">
      <defs>
       <path id="DejaVuSans-41" d="M 2188 4044 
L 1331 1722 
L 3047 1722 
L 2188 4044 
z
M 1831 4666 
L 2547 4666 
L 4325 0 
L 3669 0 
L 3244 1197 
L 1141 1197 
L 716 0 
L 50 0 
L 1831 4666 
z
" transform="scale(0.015625)"/>
       <path id="DejaVuSans-47" d="M 3809 666 
L 3809 1919 
L 2778 1919 
L 2778 2438 
L 4434 2438 
L 4434 434 
Q 4069 175 3628 42 
Q 3188 -91 2688 -91 
Q 1594 -91 976 548 
Q 359 1188 359 2328 
Q 359 3472 976 4111 
Q 1594 4750 2688 4750 
Q 3144 4750 3555 4637 
Q 3966 4525 4313 4306 
L 4313 3634 
Q 3963 3931 3569 4081 
Q 3175 4231 2741 4231 
Q 1884 4231 1454 3753 
Q 1025 3275 1025 2328 
Q 1025 1384 1454 906 
Q 1884 428 2741 428 
Q 3075 428 3337 486 
Q 3600 544 3809 666 
z
" transform="scale(0.015625)"/>
       <path id="DejaVuSans-54" d="M -19 4666 
L 3928 4666 
L 3928 4134 
L 2272 4134 
L 2272 0 
L 1638 0 
L 1638 4134 
L -19 4134 
L -19 4666 
z
" transform="scale(0.015625)"/>
      </defs>
      <use xlink:href="#DejaVuSans-41"/>
      <use xlink:href="#DejaVuSans-47" x="66.658203"/>
      <use xlink:href="#DejaVuSans-54" x="140.523438"/>
     </g>
    </g>
   </g>
   <g id="text_11">
    <g clip-path="url(#pd210264c8c)">
     <!-- TCA -->
     <g transform="translate(417.505687 431.356267) scale(0.12 -0.12)">
      <use xlink:href="#DejaVuSans-54"/>
      <use xlink:href="#DejaVuSans-43" x="55.208984"/>
      <use xlink:href="#DejaVuSans-41" x="125.033203"/>
     </g>
    </g>
   </g>
   <g id="text_12">
    <g clip-path="url(#pd210264c8c)">
     <!-- TCT -->
     <g transform="translate(478.424331 285.347053) scale(0.12 -0.12)">
      <use xlink:href="#DejaVuSans-54"/>
      <use xlink:href="#DejaVuSans-43" x="55.208984"/>
      <use xlink:href="#DejaVuSans-54" x="125.033203"/>
     </g>
    </g>
   </g>
   <g id="text_13">
    <g clip-path="url(#pd210264c8c)">
     <!-- TCC -->
     <g transform="translate(417.420325 139.337861) scale(0.12 -0.12)">
      <use xlink:href="#DejaVuSans-54"/>
      <use xlink:href="#DejaVuSans-43" x="55.208984"/>
      <use xlink:href="#DejaVuSans-43" x="125.033203"/>
     </g>
    </g>
   </g>
   <g id="text_14">
    <g clip-path="url(#pd210264c8c)">
     <!-- AGC -->
     <g transform="translate(270.264466 78.858856) scale(0.12 -0.12)">
      <use xlink:href="#DejaVuSans-41"/>
      <use xlink:href="#DejaVuSans-47" x="66.658203"/>
      <use xlink:href="#DejaVuSans-43" x="144.148438"/>
     </g>
    </g>
   </g>
   <g id="text_15">
    <g clip-path="url(#pd210264c8c)">
     <!-- TCG -->
     <g transform="translate(124.942533 139.337812) scale(0.12 -0.12)">
      <use xlink:href="#DejaVuSans-54"/>
      <use xlink:href="#DejaVuSans-43" x="55.208984"/>
      <use xlink:href="#DejaVuSans-47" x="125.033203"/>
     </g>
    </g>
   </g>
   <g id="legend_1">
    <g id="patch_23">
     <path d="M 14.2 44.55625 
L 116.278125 44.55625 
Q 118.278125 44.55625 118.278125 42.55625 
L 118.278125 14.2 
Q 118.278125 12.2 116.278125 12.2 
L 14.2 12.2 
Q 12.2 12.2 12.2 14.2 
L 12.2 42.55625 
Q 12.2 44.55625 14.2 44.55625 
z
" style="fill: #ffffff; opacity: 0.8; stroke: #cccccc; stroke-linejoin: miter"/>
    </g>
    <g id="patch_24">
     <path d="M 16.2 23.798437 
L 36.2 23.798437 
L 36.2 16.798437 
L 16.2 16.798437 
z
" style="fill: #0000ff"/>
    </g>
    <g id="text_16">
     <!-- Genomic data -->
     <g transform="translate(44.2 23.798437) scale(0.1 -0.1)">
      <defs>
       <path id="DejaVuSans-65" d="M 3597 1894 
L 3597 1613 
L 953 1613 
Q 991 1019 1311 708 
Q 1631 397 2203 397 
Q 2534 397 2845 478 
Q 3156 559 3463 722 
L 3463 178 
Q 3153 47 2828 -22 
Q 2503 -91 2169 -91 
Q 1331 -91 842 396 
Q 353 884 353 1716 
Q 353 2575 817 3079 
Q 1281 3584 2069 3584 
Q 2775 3584 3186 3129 
Q 3597 2675 3597 1894 
z
M 3022 2063 
Q 3016 2534 2758 2815 
Q 2500 3097 2075 3097 
Q 1594 3097 1305 2825 
Q 1016 2553 972 2059 
L 3022 2063 
z
" transform="scale(0.015625)"/>
       <path id="DejaVuSans-6e" d="M 3513 2113 
L 3513 0 
L 2938 0 
L 2938 2094 
Q 2938 2591 2744 2837 
Q 2550 3084 2163 3084 
Q 1697 3084 1428 2787 
Q 1159 2491 1159 1978 
L 1159 0 
L 581 0 
L 581 3500 
L 1159 3500 
L 1159 2956 
Q 1366 3272 1645 3428 
Q 1925 3584 2291 3584 
Q 2894 3584 3203 3211 
Q 3513 2838 3513 2113 
z
" transform="scale(0.015625)"/>
       <path id="DejaVuSans-6f" d="M 1959 3097 
Q 1497 3097 1228 2736 
Q 959 2375 959 1747 
Q 959 1119 1226 758 
Q 1494 397 1959 397 
Q 2419 397 2687 759 
Q 2956 1122 2956 1747 
Q 2956 2369 2687 2733 
Q 2419 3097 1959 3097 
z
M 1959 3584 
Q 2709 3584 3137 3096 
Q 3566 2609 3566 1747 
Q 3566 888 3137 398 
Q 2709 -91 1959 -91 
Q 1206 -91 779 398 
Q 353 888 353 1747 
Q 353 2609 779 3096 
Q 1206 3584 1959 3584 
z
" transform="scale(0.015625)"/>
       <path id="DejaVuSans-6d" d="M 3328 2828 
Q 3544 3216 3844 3400 
Q 4144 3584 4550 3584 
Q 5097 3584 5394 3201 
Q 5691 2819 5691 2113 
L 5691 0 
L 5113 0 
L 5113 2094 
Q 5113 2597 4934 2840 
Q 4756 3084 4391 3084 
Q 3944 3084 3684 2787 
Q 3425 2491 3425 1978 
L 3425 0 
L 2847 0 
L 2847 2094 
Q 2847 2600 2669 2842 
Q 2491 3084 2119 3084 
Q 1678 3084 1418 2786 
Q 1159 2488 1159 1978 
L 1159 0 
L 581 0 
L 581 3500 
L 1159 3500 
L 1159 2956 
Q 1356 3278 1631 3431 
Q 1906 3584 2284 3584 
Q 2666 3584 2933 3390 
Q 3200 3197 3328 2828 
z
" transform="scale(0.015625)"/>
       <path id="DejaVuSans-69" d="M 603 3500 
L 1178 3500 
L 1178 0 
L 603 0 
L 603 3500 
z
M 603 4863 
L 1178 4863 
L 1178 4134 
L 603 4134 
L 603 4863 
z
" transform="scale(0.015625)"/>
       <path id="DejaVuSans-63" d="M 3122 3366 
L 3122 2828 
Q 2878 2963 2633 3030 
Q 2388 3097 2138 3097 
Q 1578 3097 1268 2742 
Q 959 2388 959 1747 
Q 959 1106 1268 751 
Q 1578 397 2138 397 
Q 2388 397 2633 464 
Q 2878 531 3122 666 
L 3122 134 
Q 2881 22 2623 -34 
Q 2366 -91 2075 -91 
Q 1284 -91 818 406 
Q 353 903 353 1747 
Q 353 2603 823 3093 
Q 1294 3584 2113 3584 
Q 2378 3584 2631 3529 
Q 2884 3475 3122 3366 
z
" transform="scale(0.015625)"/>
       <path id="DejaVuSans-20" transform="scale(0.015625)"/>
       <path id="DejaVuSans-64" d="M 2906 2969 
L 2906 4863 
L 3481 4863 
L 3481 0 
L 2906 0 
L 2906 525 
Q 2725 213 2448 61 
Q 2172 -91 1784 -91 
Q 1150 -91 751 415 
Q 353 922 353 1747 
Q 353 2572 751 3078 
Q 1150 3584 1784 3584 
Q 2172 3584 2448 3432 
Q 2725 3281 2906 2969 
z
M 947 1747 
Q 947 1113 1208 752 
Q 1469 391 1925 391 
Q 2381 391 2643 752 
Q 2906 1113 2906 1747 
Q 2906 2381 2643 2742 
Q 2381 3103 1925 3103 
Q 1469 3103 1208 2742 
Q 947 2381 947 1747 
z
" transform="scale(0.015625)"/>
       <path id="DejaVuSans-61" d="M 2194 1759 
Q 1497 1759 1228 1600 
Q 959 1441 959 1056 
Q 959 750 1161 570 
Q 1363 391 1709 391 
Q 2188 391 2477 730 
Q 2766 1069 2766 1631 
L 2766 1759 
L 2194 1759 
z
M 3341 1997 
L 3341 0 
L 2766 0 
L 2766 531 
Q 2569 213 2275 61 
Q 1981 -91 1556 -91 
Q 1019 -91 701 211 
Q 384 513 384 1019 
Q 384 1609 779 1909 
Q 1175 2209 1959 2209 
L 2766 2209 
L 2766 2266 
Q 2766 2663 2505 2880 
Q 2244 3097 1772 3097 
Q 1472 3097 1187 3025 
Q 903 2953 641 2809 
L 641 3341 
Q 956 3463 1253 3523 
Q 1550 3584 1831 3584 
Q 2591 3584 2966 3190 
Q 3341 2797 3341 1997 
z
" transform="scale(0.015625)"/>
       <path id="DejaVuSans-74" d="M 1172 4494 
L 1172 3500 
L 2356 3500 
L 2356 3053 
L 1172 3053 
L 1172 1153 
Q 1172 725 1289 603 
Q 1406 481 1766 481 
L 2356 481 
L 2356 0 
L 1766 0 
Q 1100 0 847 248 
Q 594 497 594 1153 
L 594 3053 
L 172 3053 
L 172 3500 
L 594 3500 
L 594 4494 
L 1172 4494 
z
" transform="scale(0.015625)"/>
      </defs>
      <use xlink:href="#DejaVuSans-47"/>
      <use xlink:href="#DejaVuSans-65" x="77.490234"/>
      <use xlink:href="#DejaVuSans-6e" x="139.013672"/>
      <use xlink:href="#DejaVuSans-6f" x="202.392578"/>
      <use xlink:href="#DejaVuSans-6d" x="263.574219"/>
      <use xlink:href="#DejaVuSans-69" x="360.986328"/>
      <use xlink:href="#DejaVuSans-63" x="388.769531"/>
      <use xlink:href="#DejaVuSans-20" x="443.75"/>
      <use xlink:href="#DejaVuSans-64" x="475.537109"/>
      <use xlink:href="#DejaVuSans-61" x="539.013672"/>
      <use xlink:href="#DejaVuSans-74" x="600.292969"/>
      <use xlink:href="#DejaVuSans-61" x="639.501953"/>
     </g>
    </g>
    <g id="patch_25">
     <path d="M 16.2 38.476562 
L 36.2 38.476562 
L 36.2 31.476562 
L 16.2 31.476562 
z
" style="fill: #ff0000"/>
    </g>
    <g id="text_17">
     <!-- Genetic code -->
     <g transform="translate(44.2 38.476562) scale(0.1 -0.1)">
      <use xlink:href="#DejaVuSans-47"/>
      <use xlink:href="#DejaVuSans-65" x="77.490234"/>
      <use xlink:href="#DejaVuSans-6e" x="139.013672"/>
      <use xlink:href="#DejaVuSans-65" x="202.392578"/>
      <use xlink:href="#DejaVuSans-74" x="263.916016"/>
      <use xlink:href="#DejaVuSans-69" x="303.125"/>
      <use xlink:href="#DejaVuSans-63" x="330.908203"/>
      <use xlink:href="#DejaVuSans-20" x="385.888672"/>
      <use xlink:href="#DejaVuSans-63" x="417.675781"/>
      <use xlink:href="#DejaVuSans-6f" x="472.65625"/>
      <use xlink:href="#DejaVuSans-64" x="533.837891"/>
      <use xlink:href="#DejaVuSans-65" x="597.314453"/>
     </g>
    </g>
   </g>
  </g>
 </g>
 <defs>
  <clipPath id="pd210264c8c">
   <rect x="7.2" y="7.2" width="558" height="549.671676"/>
  </clipPath>
 </defs>
</svg>
