<?xml version="1.0" encoding="utf-8" standalone="no"?>
<!DOCTYPE svg PUBLIC "-//W3C//DTD SVG 1.1//EN"
  "http://www.w3.org/Graphics/SVG/1.1/DTD/svg11.dtd">
<svg xmlns:xlink="http://www.w3.org/1999/xlink" width="887.98125pt" height="635.878125pt" viewBox="0 0 887.98125 635.878125" xmlns="http://www.w3.org/2000/svg" version="1.1">
 <metadata>
  <rdf:RDF xmlns:dc="http://purl.org/dc/elements/1.1/" xmlns:cc="http://creativecommons.org/ns#" xmlns:rdf="http://www.w3.org/1999/02/22-rdf-syntax-ns#">
   <cc:Work>
    <dc:type rdf:resource="http://purl.org/dc/dcmitype/StillImage"/>
    <dc:date>2024-09-24T17:05:12.770258</dc:date>
    <dc:format>image/svg+xml</dc:format>
    <dc:creator>
     <cc:Agent>
      <dc:title>Matplotlib v3.8.3, https://matplotlib.org/</dc:title>
     </cc:Agent>
    </dc:creator>
   </cc:Work>
  </rdf:RDF>
 </metadata>
 <defs>
  <style type="text/css">*{stroke-linejoin: round; stroke-linecap: butt}</style>
 </defs>
 <g id="figure_1">
  <g id="patch_1">
   <path d="M 0 635.878125 
L 887.98125 635.878125 
L 887.98125 0 
L 0 0 
z
" style="fill: #ffffff"/>
  </g>
  <g id="axes_1">
   <g id="patch_2">
    <path d="M 43.78125 298.643478 
L 880.78125 298.643478 
L 880.78125 57.6 
L 43.78125 57.6 
z
" style="fill: #ffffff"/>
   </g>
   <g id="PolyCollection_1">
    <defs>
     <path id="mb9fee36a98" d="M 174.801434 -337.251409 
L 174.801434 -337.234647 
L 177.803336 -337.234647 
L 180.805238 -337.234647 
L 183.80714 -337.234647 
L 186.809042 -337.234647 
L 189.810944 -337.234647 
L 192.812846 -337.234647 
L 195.814748 -337.234647 
L 198.816649 -337.234647 
L 201.818551 -337.234647 
L 204.820453 -337.234647 
L 207.822355 -337.234647 
L 210.824257 -337.234647 
L 213.826159 -337.234647 
L 216.828061 -337.234647 
L 219.829963 -337.234647 
L 222.831864 -337.234647 
L 225.833766 -337.234647 
L 228.835668 -337.234647 
L 231.83757 -337.234647 
L 234.839472 -337.234647 
L 237.841374 -337.234647 
L 240.843276 -337.234647 
L 243.845178 -337.234647 
L 246.847079 -337.234647 
L 249.848981 -337.234647 
L 252.850883 -337.234647 
L 255.852785 -337.234647 
L 258.854687 -337.234647 
L 261.856589 -337.234647 
L 264.858491 -337.234647 
L 267.860393 -337.234647 
L 270.862294 -337.234647 
L 273.864196 -337.234647 
L 276.866098 -337.234647 
L 279.868 -337.234647 
L 282.869902 -337.234647 
L 285.871804 -337.234647 
L 288.873706 -337.234647 
L 291.875607 -337.234647 
L 294.877509 -337.234647 
L 297.879411 -337.234647 
L 300.881313 -337.234647 
L 303.883215 -337.234647 
L 306.885117 -337.234647 
L 309.887019 -337.234647 
L 312.888921 -337.234647 
L 315.890822 -337.234647 
L 318.892724 -337.234647 
L 321.894626 -337.234647 
L 324.896528 -337.234647 
L 327.89843 -337.234647 
L 330.900332 -337.234647 
L 333.902234 -337.234647 
L 336.904136 -337.234647 
L 339.906037 -337.234647 
L 342.907939 -337.234647 
L 345.909841 -337.234647 
L 348.911743 -337.234647 
L 351.913645 -337.234647 
L 354.915547 -337.234647 
L 357.917449 -337.234647 
L 360.919351 -337.234647 
L 363.921252 -337.234647 
L 366.923154 -337.234647 
L 369.925056 -337.234647 
L 372.926958 -337.234647 
L 375.92886 -337.234647 
L 378.930762 -337.234647 
L 381.932664 -337.234647 
L 384.934566 -337.234647 
L 387.936467 -337.234647 
L 390.938369 -337.234647 
L 393.940271 -337.234647 
L 396.942173 -337.234647 
L 399.944075 -337.234647 
L 402.945977 -337.234647 
L 405.947879 -337.234647 
L 408.949781 -337.234647 
L 411.951682 -337.234647 
L 414.953584 -337.234647 
L 417.955486 -337.234647 
L 420.957388 -337.234647 
L 423.95929 -337.234647 
L 426.961192 -337.234647 
L 429.963094 -337.234647 
L 432.964996 -337.234647 
L 435.966897 -337.234647 
L 438.968799 -337.234647 
L 441.970701 -337.234647 
L 444.972603 -337.234647 
L 447.974505 -337.234647 
L 450.976407 -337.234647 
L 453.978309 -337.234647 
L 456.980211 -337.234647 
L 459.982112 -337.234647 
L 462.984014 -337.234647 
L 465.985916 -337.234647 
L 468.987818 -337.234647 
L 471.98972 -337.234647 
L 474.991622 -337.234647 
L 477.993524 -337.234647 
L 480.995425 -337.234647 
L 483.997327 -337.234647 
L 486.999229 -337.234647 
L 490.001131 -337.234647 
L 493.003033 -337.234647 
L 496.004935 -337.234647 
L 499.006837 -337.234647 
L 502.008739 -337.234647 
L 505.01064 -337.234647 
L 508.012542 -337.234647 
L 511.014444 -337.234647 
L 514.016346 -337.234647 
L 517.018248 -337.234647 
L 520.02015 -337.234647 
L 523.022052 -337.234647 
L 526.023954 -337.234647 
L 529.025855 -337.234647 
L 532.027757 -337.234647 
L 535.029659 -337.234647 
L 538.031561 -337.234647 
L 541.033463 -337.234647 
L 544.035365 -337.234647 
L 547.037267 -337.234647 
L 550.039169 -337.234647 
L 553.04107 -337.234647 
L 556.042972 -337.234647 
L 559.044874 -337.234647 
L 562.046776 -337.234647 
L 565.048678 -337.234647 
L 568.05058 -337.234647 
L 571.052482 -337.234647 
L 574.054384 -337.234647 
L 577.056285 -337.234647 
L 580.058187 -337.234647 
L 583.060089 -337.234647 
L 586.061991 -337.234647 
L 589.063893 -337.234647 
L 592.065795 -337.234647 
L 595.067697 -337.234647 
L 598.069599 -337.234647 
L 601.0715 -337.234647 
L 604.073402 -337.234647 
L 607.075304 -337.234647 
L 610.077206 -337.234647 
L 613.079108 -337.234647 
L 616.08101 -337.234647 
L 619.082912 -337.234647 
L 622.084814 -337.234647 
L 625.086715 -337.234647 
L 628.088617 -337.234647 
L 631.090519 -337.234647 
L 634.092421 -337.234647 
L 637.094323 -337.234647 
L 640.096225 -337.234647 
L 643.098127 -337.234647 
L 646.100029 -337.234647 
L 649.10193 -337.234647 
L 652.103832 -337.234647 
L 655.105734 -337.234647 
L 658.107636 -337.234647 
L 661.109538 -337.234647 
L 664.11144 -337.234647 
L 667.113342 -337.234647 
L 670.115243 -337.234647 
L 673.117145 -337.234647 
L 676.119047 -337.234647 
L 679.120949 -337.234647 
L 682.122851 -337.234647 
L 685.124753 -337.234647 
L 688.126655 -337.234647 
L 691.128557 -337.234647 
L 694.130458 -337.234647 
L 697.13236 -337.234647 
L 700.134262 -337.234647 
L 703.136164 -337.234647 
L 706.138066 -337.234647 
L 709.139968 -337.234647 
L 712.14187 -337.234647 
L 715.143772 -337.234647 
L 718.145673 -337.234647 
L 721.147575 -337.234647 
L 724.149477 -337.234647 
L 727.151379 -337.234647 
L 730.153281 -337.234647 
L 733.155183 -337.234647 
L 736.157085 -337.234647 
L 739.158987 -337.234647 
L 742.160888 -337.234647 
L 745.16279 -337.234647 
L 748.164692 -337.234647 
L 751.166594 -337.234647 
L 754.168496 -337.234647 
L 757.170398 -337.234647 
L 760.1723 -337.234647 
L 763.174202 -337.234647 
L 766.176103 -337.234647 
L 769.178005 -337.234647 
L 772.179907 -337.234647 
L 772.179907 -337.269397 
L 772.179907 -337.269397 
L 769.178005 -337.287319 
L 766.176103 -337.313063 
L 763.174202 -337.349337 
L 760.1723 -337.399486 
L 757.170398 -337.467529 
L 754.168496 -337.558171 
L 751.166594 -337.676766 
L 748.164692 -337.829254 
L 745.16279 -338.02205 
L 742.160888 -338.261907 
L 739.158987 -338.555776 
L 736.157085 -338.910662 
L 733.155183 -339.333499 
L 730.153281 -339.83105 
L 727.151379 -340.40983 
L 724.149477 -341.076019 
L 721.147575 -341.835358 
L 718.145673 -342.692957 
L 715.143772 -343.653021 
L 712.14187 -344.718431 
L 709.139968 -345.890242 
L 706.138066 -347.167103 
L 703.136164 -348.544737 
L 700.134262 -350.015593 
L 697.13236 -351.568838 
L 694.130458 -353.190836 
L 691.128557 -354.866245 
L 688.126655 -356.579768 
L 685.124753 -358.318512 
L 682.122851 -360.074789 
L 679.120949 -361.849096 
L 676.119047 -363.652894 
L 673.117145 -365.510788 
L 670.115243 -367.461688 
L 667.113342 -369.558612 
L 664.11144 -371.866927 
L 661.109538 -374.460945 
L 658.107636 -377.419056 
L 655.105734 -380.817707 
L 652.103832 -384.724746 
L 649.10193 -389.19275 
L 646.100029 -394.253007 
L 643.098127 -399.910815 
L 640.096225 -406.142626 
L 637.094323 -412.89544 
L 634.092421 -420.088615 
L 631.090519 -427.618006 
L 628.088617 -435.362128 
L 625.086715 -443.189792 
L 622.084814 -450.968478 
L 619.082912 -458.572632 
L 616.08101 -465.891047 
L 613.079108 -472.83256 
L 610.077206 -479.329519 
L 607.075304 -485.338709 
L 604.073402 -490.839758 
L 601.0715 -495.831388 
L 598.069599 -500.326139 
L 595.067697 -504.344409 
L 592.065795 -507.908766 
L 589.063893 -511.039383 
L 586.061991 -513.751298 
L 583.060089 -516.053891 
L 580.058187 -517.952622 
L 577.056285 -519.452686 
L 574.054384 -520.563971 
L 571.052482 -521.306442 
L 568.05058 -521.715034 
L 565.048678 -521.843148 
L 562.046776 -521.764036 
L 559.044874 -521.569619 
L 556.042972 -521.366622 
L 553.04107 -521.270217 
L 550.039169 -521.395712 
L 547.037267 -521.849047 
L 544.035365 -522.717028 
L 541.033463 -524.058303 
L 538.031561 -525.896026 
L 535.029659 -528.213016 
L 532.027757 -530.949995 
L 529.025855 -534.007184 
L 526.023954 -537.249211 
L 523.022052 -540.512991 
L 520.02015 -543.6179 
L 517.018248 -546.377417 
L 514.016346 -548.611243 
L 511.014444 -550.156903 
L 508.012542 -550.879923 
L 505.01064 -550.681821 
L 502.008739 -549.505406 
L 499.006837 -547.337103 
L 496.004935 -544.20631 
L 493.003033 -540.182011 
L 490.001131 -535.367084 
L 486.999229 -529.890876 
L 483.997327 -523.900694 
L 480.995425 -517.552897 
L 477.993524 -511.004212 
L 474.991622 -504.403824 
L 471.98972 -497.886672 
L 468.987818 -491.568218 
L 465.985916 -485.540841 
L 462.984014 -479.871848 
L 459.982112 -474.603004 
L 456.980211 -469.751394 
L 453.978309 -465.311394 
L 450.976407 -461.257499 
L 447.974505 -457.547777 
L 444.972603 -454.127709 
L 441.970701 -450.934234 
L 438.968799 -447.899786 
L 435.966897 -444.956185 
L 432.964996 -442.0382 
L 429.963094 -439.08667 
L 426.961192 -436.051037 
L 423.95929 -432.891221 
L 420.957388 -429.578751 
L 417.955486 -426.097159 
L 414.953584 -422.441675 
L 411.951682 -418.618298 
L 408.949781 -414.642398 
L 405.947879 -410.537015 
L 402.945977 -406.331048 
L 399.944075 -402.05749 
L 396.942173 -397.751888 
L 393.940271 -393.451088 
L 390.938369 -389.192312 
L 387.936467 -385.012532 
L 384.934566 -380.948047 
L 381.932664 -377.034148 
L 378.930762 -373.30473 
L 375.92886 -369.791759 
L 372.926958 -366.524494 
L 369.925056 -363.52848 
L 366.923154 -360.824349 
L 363.921252 -358.426533 
L 360.919351 -356.342063 
L 357.917449 -354.569595 
L 354.915547 -353.098854 
L 351.913645 -351.910627 
L 348.911743 -350.977368 
L 345.909841 -350.264447 
L 342.907939 -349.731968 
L 339.906037 -349.33702 
L 336.904136 -349.036172 
L 333.902234 -348.787977 
L 330.900332 -348.555273 
L 327.89843 -348.307053 
L 324.896528 -348.019768 
L 321.894626 -347.677968 
L 318.892724 -347.274274 
L 315.890822 -346.808761 
L 312.888921 -346.287846 
L 309.887019 -345.722871 
L 306.885117 -345.12852 
L 303.883215 -344.521239 
L 300.881313 -343.917785 
L 297.879411 -343.333982 
L 294.877509 -342.783737 
L 291.875607 -342.278344 
L 288.873706 -341.826048 
L 285.871804 -341.431869 
L 282.869902 -341.097634 
L 279.868 -340.822204 
L 276.866098 -340.601836 
L 273.864196 -340.430663 
L 270.862294 -340.30123 
L 267.860393 -340.205069 
L 264.858491 -340.133252 
L 261.856589 -340.076901 
L 258.854687 -340.027636 
L 255.852785 -339.977931 
L 252.850883 -339.921395 
L 249.848981 -339.852958 
L 246.847079 -339.768986 
L 243.845178 -339.667328 
L 240.843276 -339.547293 
L 237.841374 -339.40957 
L 234.839472 -339.256091 
L 231.83757 -339.089828 
L 228.835668 -338.914549 
L 225.833766 -338.734523 
L 222.831864 -338.554216 
L 219.829963 -338.37798 
L 216.828061 -338.209772 
L 213.826159 -338.052922 
L 210.824257 -337.909979 
L 207.822355 -337.782619 
L 204.820453 -337.671652 
L 201.818551 -337.577085 
L 198.816649 -337.498243 
L 195.814748 -337.433927 
L 192.812846 -337.382584 
L 189.810944 -337.342469 
L 186.809042 -337.311791 
L 183.80714 -337.288822 
L 180.805238 -337.271986 
L 177.803336 -337.259902 
L 174.801434 -337.251409 
z
" style="stroke: #ff7f0e; stroke-width: 2.5"/>
    </defs>
    <g clip-path="url(#p4812bdc572)">
     <use xlink:href="#mb9fee36a98" x="0" y="635.878125" style="fill: #ff7f0e; fill-opacity: 0.5; stroke: #ff7f0e; stroke-width: 2.5"/>
    </g>
   </g>
   <g id="PolyCollection_2">
    <defs>
     <path id="m4dce7f5440" d="M 78.675103 -337.249046 
L 78.675103 -337.234647 
L 82.182023 -337.234647 
L 85.688943 -337.234647 
L 89.195863 -337.234647 
L 92.702783 -337.234647 
L 96.209703 -337.234647 
L 99.716623 -337.234647 
L 103.223543 -337.234647 
L 106.730463 -337.234647 
L 110.237383 -337.234647 
L 113.744303 -337.234647 
L 117.251223 -337.234647 
L 120.758143 -337.234647 
L 124.265063 -337.234647 
L 127.771983 -337.234647 
L 131.278903 -337.234647 
L 134.785822 -337.234647 
L 138.292742 -337.234647 
L 141.799662 -337.234647 
L 145.306582 -337.234647 
L 148.813502 -337.234647 
L 152.320422 -337.234647 
L 155.827342 -337.234647 
L 159.334262 -337.234647 
L 162.841182 -337.234647 
L 166.348102 -337.234647 
L 169.855022 -337.234647 
L 173.361942 -337.234647 
L 176.868862 -337.234647 
L 180.375782 -337.234647 
L 183.882702 -337.234647 
L 187.389622 -337.234647 
L 190.896542 -337.234647 
L 194.403461 -337.234647 
L 197.910381 -337.234647 
L 201.417301 -337.234647 
L 204.924221 -337.234647 
L 208.431141 -337.234647 
L 211.938061 -337.234647 
L 215.444981 -337.234647 
L 218.951901 -337.234647 
L 222.458821 -337.234647 
L 225.965741 -337.234647 
L 229.472661 -337.234647 
L 232.979581 -337.234647 
L 236.486501 -337.234647 
L 239.993421 -337.234647 
L 243.500341 -337.234647 
L 247.007261 -337.234647 
L 250.514181 -337.234647 
L 254.021101 -337.234647 
L 257.52802 -337.234647 
L 261.03494 -337.234647 
L 264.54186 -337.234647 
L 268.04878 -337.234647 
L 271.5557 -337.234647 
L 275.06262 -337.234647 
L 278.56954 -337.234647 
L 282.07646 -337.234647 
L 285.58338 -337.234647 
L 289.0903 -337.234647 
L 292.59722 -337.234647 
L 296.10414 -337.234647 
L 299.61106 -337.234647 
L 303.11798 -337.234647 
L 306.6249 -337.234647 
L 310.13182 -337.234647 
L 313.63874 -337.234647 
L 317.145659 -337.234647 
L 320.652579 -337.234647 
L 324.159499 -337.234647 
L 327.666419 -337.234647 
L 331.173339 -337.234647 
L 334.680259 -337.234647 
L 338.187179 -337.234647 
L 341.694099 -337.234647 
L 345.201019 -337.234647 
L 348.707939 -337.234647 
L 352.214859 -337.234647 
L 355.721779 -337.234647 
L 359.228699 -337.234647 
L 362.735619 -337.234647 
L 366.242539 -337.234647 
L 369.749459 -337.234647 
L 373.256379 -337.234647 
L 376.763298 -337.234647 
L 380.270218 -337.234647 
L 383.777138 -337.234647 
L 387.284058 -337.234647 
L 390.790978 -337.234647 
L 394.297898 -337.234647 
L 397.804818 -337.234647 
L 401.311738 -337.234647 
L 404.818658 -337.234647 
L 408.325578 -337.234647 
L 411.832498 -337.234647 
L 415.339418 -337.234647 
L 418.846338 -337.234647 
L 422.353258 -337.234647 
L 425.860178 -337.234647 
L 429.367098 -337.234647 
L 432.874018 -337.234647 
L 436.380937 -337.234647 
L 439.887857 -337.234647 
L 443.394777 -337.234647 
L 446.901697 -337.234647 
L 450.408617 -337.234647 
L 453.915537 -337.234647 
L 457.422457 -337.234647 
L 460.929377 -337.234647 
L 464.436297 -337.234647 
L 467.943217 -337.234647 
L 471.450137 -337.234647 
L 474.957057 -337.234647 
L 478.463977 -337.234647 
L 481.970897 -337.234647 
L 485.477817 -337.234647 
L 488.984737 -337.234647 
L 492.491657 -337.234647 
L 495.998576 -337.234647 
L 499.505496 -337.234647 
L 503.012416 -337.234647 
L 506.519336 -337.234647 
L 510.026256 -337.234647 
L 513.533176 -337.234647 
L 517.040096 -337.234647 
L 520.547016 -337.234647 
L 524.053936 -337.234647 
L 527.560856 -337.234647 
L 531.067776 -337.234647 
L 534.574696 -337.234647 
L 538.081616 -337.234647 
L 541.588536 -337.234647 
L 545.095456 -337.234647 
L 548.602376 -337.234647 
L 552.109296 -337.234647 
L 555.616215 -337.234647 
L 559.123135 -337.234647 
L 562.630055 -337.234647 
L 566.136975 -337.234647 
L 569.643895 -337.234647 
L 573.150815 -337.234647 
L 576.657735 -337.234647 
L 580.164655 -337.234647 
L 583.671575 -337.234647 
L 587.178495 -337.234647 
L 590.685415 -337.234647 
L 594.192335 -337.234647 
L 597.699255 -337.234647 
L 601.206175 -337.234647 
L 604.713095 -337.234647 
L 608.220015 -337.234647 
L 611.726935 -337.234647 
L 615.233854 -337.234647 
L 618.740774 -337.234647 
L 622.247694 -337.234647 
L 625.754614 -337.234647 
L 629.261534 -337.234647 
L 632.768454 -337.234647 
L 636.275374 -337.234647 
L 639.782294 -337.234647 
L 643.289214 -337.234647 
L 646.796134 -337.234647 
L 650.303054 -337.234647 
L 653.809974 -337.234647 
L 657.316894 -337.234647 
L 660.823814 -337.234647 
L 664.330734 -337.234647 
L 667.837654 -337.234647 
L 671.344574 -337.234647 
L 674.851494 -337.234647 
L 678.358413 -337.234647 
L 681.865333 -337.234647 
L 685.372253 -337.234647 
L 688.879173 -337.234647 
L 692.386093 -337.234647 
L 695.893013 -337.234647 
L 699.399933 -337.234647 
L 702.906853 -337.234647 
L 706.413773 -337.234647 
L 709.920693 -337.234647 
L 713.427613 -337.234647 
L 716.934533 -337.234647 
L 720.441453 -337.234647 
L 723.948373 -337.234647 
L 727.455293 -337.234647 
L 730.962213 -337.234647 
L 734.469133 -337.234647 
L 737.976052 -337.234647 
L 741.482972 -337.234647 
L 744.989892 -337.234647 
L 748.496812 -337.234647 
L 752.003732 -337.234647 
L 755.510652 -337.234647 
L 759.017572 -337.234647 
L 762.524492 -337.234647 
L 766.031412 -337.234647 
L 769.538332 -337.234647 
L 773.045252 -337.234647 
L 776.552172 -337.234647 
L 776.552172 -337.249543 
L 776.552172 -337.249543 
L 773.045252 -337.257345 
L 769.538332 -337.268595 
L 766.031412 -337.284498 
L 762.524492 -337.306542 
L 759.017572 -337.336521 
L 755.510652 -337.376542 
L 752.003732 -337.429017 
L 748.496812 -337.496659 
L 744.989892 -337.582456 
L 741.482972 -337.689663 
L 737.976052 -337.821802 
L 734.469133 -337.982688 
L 730.962213 -338.176484 
L 727.455293 -338.407776 
L 723.948373 -338.681671 
L 720.441453 -339.003885 
L 716.934533 -339.380799 
L 713.427613 -339.819447 
L 709.920693 -340.327422 
L 706.413773 -340.912673 
L 702.906853 -341.583227 
L 699.399933 -342.346851 
L 695.893013 -343.210742 
L 692.386093 -344.181319 
L 688.879173 -345.264216 
L 685.372253 -346.464561 
L 681.865333 -347.787592 
L 678.358413 -349.239636 
L 674.851494 -350.82938 
L 671.344574 -352.569355 
L 667.837654 -354.477451 
L 664.330734 -356.578262 
L 660.823814 -358.904055 
L 657.316894 -361.495108 
L 653.809974 -364.399254 
L 650.303054 -367.67047 
L 646.796134 -371.366454 
L 643.289214 -375.545198 
L 639.782294 -380.2607 
L 636.275374 -385.558033 
L 632.768454 -391.468113 
L 629.261534 -398.0026 
L 625.754614 -405.149405 
L 622.247694 -412.869314 
L 618.740774 -421.094199 
L 615.233854 -429.72718 
L 611.726935 -438.644947 
L 608.220015 -447.702278 
L 604.713095 -456.738521 
L 601.206175 -465.585645 
L 597.699255 -474.077234 
L 594.192335 -482.057728 
L 590.685415 -489.391153 
L 587.178495 -495.968638 
L 583.671575 -501.714146 
L 580.164655 -506.588016 
L 576.657735 -510.588125 
L 573.150815 -513.748671 
L 569.643895 -516.136745 
L 566.136975 -517.84701 
L 562.630055 -518.99487 
L 559.123135 -519.708578 
L 555.616215 -520.120742 
L 552.109296 -520.359723 
L 548.602376 -520.541394 
L 545.095456 -520.761756 
L 541.588536 -521.090891 
L 538.081616 -521.568681 
L 534.574696 -522.202679 
L 531.067776 -522.968368 
L 527.560856 -523.811896 
L 524.053936 -524.655164 
L 520.547016 -525.402921 
L 517.040096 -525.9513 
L 513.533176 -526.197083 
L 510.026256 -526.046835 
L 506.519336 -525.425061 
L 503.012416 -524.280609 
L 499.505496 -522.590691 
L 495.998576 -520.362156 
L 492.491657 -517.629927 
L 488.984737 -514.452835 
L 485.477817 -510.907365 
L 481.970897 -507.080073 
L 478.463977 -503.059585 
L 474.957057 -498.929093 
L 471.450137 -494.760219 
L 467.943217 -490.608864 
L 464.436297 -486.513381 
L 460.929377 -482.495075 
L 457.422457 -478.560672 
L 453.915537 -474.706155 
L 450.408617 -470.921185 
L 446.901697 -467.19331 
L 443.394777 -463.511303 
L 439.887857 -459.867175 
L 436.380937 -456.256745 
L 432.874018 -452.678918 
L 429.367098 -449.134112 
L 425.860178 -445.622392 
L 422.353258 -442.141908 
L 418.846338 -438.688108 
L 415.339418 -435.254012 
L 411.832498 -431.831558 
L 408.325578 -428.413767 
L 404.818658 -424.9973 
L 401.311738 -421.584831 
L 397.804818 -418.186703 
L 394.297898 -414.821415 
L 390.790978 -411.51473 
L 387.284058 -408.297395 
L 383.777138 -405.201766 
L 380.270218 -402.257802 
L 376.763298 -399.489038 
L 373.256379 -396.909172 
L 369.749459 -394.519804 
L 366.242539 -392.309706 
L 362.735619 -390.255752 
L 359.228699 -388.3254 
L 355.721779 -386.480344 
L 352.214859 -384.680834 
L 348.707939 -382.890028 
L 345.201019 -381.077802 
L 341.694099 -379.223509 
L 338.187179 -377.317409 
L 334.680259 -375.360663 
L 331.173339 -373.364038 
L 327.666419 -371.345622 
L 324.159499 -369.327967 
L 320.652579 -367.335135 
L 317.145659 -365.39004 
L 313.63874 -363.51243 
L 310.13182 -361.717666 
L 306.6249 -360.016338 
L 303.11798 -358.414603 
L 299.61106 -356.915047 
L 296.10414 -355.51779 
L 292.59722 -354.22161 
L 289.0903 -353.024836 
L 285.58338 -351.925911 
L 282.07646 -350.923546 
L 278.56954 -350.016532 
L 275.06262 -349.2033 
L 271.5557 -348.481379 
L 268.04878 -347.846884 
L 264.54186 -347.294166 
L 261.03494 -346.815678 
L 257.52802 -346.402101 
L 254.021101 -346.04267 
L 250.514181 -345.725667 
L 247.007261 -345.438994 
L 243.500341 -345.170755 
L 239.993421 -344.909795 
L 236.486501 -344.646159 
L 232.979581 -344.371477 
L 229.472661 -344.079261 
L 225.965741 -343.765131 
L 222.458821 -343.426979 
L 218.951901 -343.065054 
L 215.444981 -342.681952 
L 211.938061 -342.282487 
L 208.431141 -341.873421 
L 204.924221 -341.463035 
L 201.417301 -341.060554 
L 197.910381 -340.675455 
L 194.403461 -340.316711 
L 190.896542 -339.992048 
L 187.389622 -339.707284 
L 183.882702 -339.465834 
L 180.375782 -339.26843 
L 176.868862 -339.1131 
L 173.361942 -338.995401 
L 169.855022 -338.908886 
L 166.348102 -338.845747 
L 162.841182 -338.797563 
L 159.334262 -338.756067 
L 155.827342 -338.713848 
L 152.320422 -338.664925 
L 148.813502 -338.605119 
L 145.306582 -338.532224 
L 141.799662 -338.445955 
L 138.292742 -338.347714 
L 134.785822 -338.240212 
L 131.278903 -338.127014 
L 127.771983 -338.012056 
L 124.265063 -337.899208 
L 120.758143 -337.791912 
L 117.251223 -337.692931 
L 113.744303 -337.604205 
L 110.237383 -337.526833 
L 106.730463 -337.461127 
L 103.223543 -337.406742 
L 99.716623 -337.362839 
L 96.209703 -337.32825 
L 92.702783 -337.301644 
L 89.195863 -337.281652 
L 85.688943 -337.266973 
L 82.182023 -337.256438 
L 78.675103 -337.249046 
z
" style="stroke: #1f77b4; stroke-width: 2.5"/>
    </defs>
    <g clip-path="url(#p4812bdc572)">
     <use xlink:href="#m4dce7f5440" x="0" y="635.878125" style="fill: #1f77b4; fill-opacity: 0.5; stroke: #1f77b4; stroke-width: 2.5"/>
    </g>
   </g>
   <g id="matplotlib.axis_1">
    <g id="xtick_1">
     <g id="line2d_1">
      <defs>
       <path id="mb9ea61fbe3" d="M 0 0 
L 0 3.5 
" style="stroke: #000000; stroke-width: 0.8"/>
      </defs>
      <g>
       <use xlink:href="#mb9ea61fbe3" x="78.169117" y="298.643478" style="stroke: #000000; stroke-width: 0.8"/>
      </g>
     </g>
     <g id="text_1">
      <!-- −0.4 -->
      <g transform="translate(66.027711 313.241916) scale(0.1 -0.1)">
       <defs>
        <path id="DejaVuSans-2212" d="M 678 2272 
L 4684 2272 
L 4684 1741 
L 678 1741 
L 678 2272 
z
" transform="scale(0.015625)"/>
        <path id="DejaVuSans-30" d="M 2034 4250 
Q 1547 4250 1301 3770 
Q 1056 3291 1056 2328 
Q 1056 1369 1301 889 
Q 1547 409 2034 409 
Q 2525 409 2770 889 
Q 3016 1369 3016 2328 
Q 3016 3291 2770 3770 
Q 2525 4250 2034 4250 
z
M 2034 4750 
Q 2819 4750 3233 4129 
Q 3647 3509 3647 2328 
Q 3647 1150 3233 529 
Q 2819 -91 2034 -91 
Q 1250 -91 836 529 
Q 422 1150 422 2328 
Q 422 3509 836 4129 
Q 1250 4750 2034 4750 
z
" transform="scale(0.015625)"/>
        <path id="DejaVuSans-2e" d="M 684 794 
L 1344 794 
L 1344 0 
L 684 0 
L 684 794 
z
" transform="scale(0.015625)"/>
        <path id="DejaVuSans-34" d="M 2419 4116 
L 825 1625 
L 2419 1625 
L 2419 4116 
z
M 2253 4666 
L 3047 4666 
L 3047 1625 
L 3713 1625 
L 3713 1100 
L 3047 1100 
L 3047 0 
L 2419 0 
L 2419 1100 
L 313 1100 
L 313 1709 
L 2253 4666 
z
" transform="scale(0.015625)"/>
       </defs>
       <use xlink:href="#DejaVuSans-2212"/>
       <use xlink:href="#DejaVuSans-30" x="83.789062"/>
       <use xlink:href="#DejaVuSans-2e" x="147.412109"/>
       <use xlink:href="#DejaVuSans-34" x="179.199219"/>
      </g>
     </g>
    </g>
    <g id="xtick_2">
     <g id="line2d_2">
      <g>
       <use xlink:href="#mb9ea61fbe3" x="196.40103" y="298.643478" style="stroke: #000000; stroke-width: 0.8"/>
      </g>
     </g>
     <g id="text_2">
      <!-- −0.2 -->
      <g transform="translate(184.259624 313.241916) scale(0.1 -0.1)">
       <defs>
        <path id="DejaVuSans-32" d="M 1228 531 
L 3431 531 
L 3431 0 
L 469 0 
L 469 531 
Q 828 903 1448 1529 
Q 2069 2156 2228 2338 
Q 2531 2678 2651 2914 
Q 2772 3150 2772 3378 
Q 2772 3750 2511 3984 
Q 2250 4219 1831 4219 
Q 1534 4219 1204 4116 
Q 875 4013 500 3803 
L 500 4441 
Q 881 4594 1212 4672 
Q 1544 4750 1819 4750 
Q 2544 4750 2975 4387 
Q 3406 4025 3406 3419 
Q 3406 3131 3298 2873 
Q 3191 2616 2906 2266 
Q 2828 2175 2409 1742 
Q 1991 1309 1228 531 
z
" transform="scale(0.015625)"/>
       </defs>
       <use xlink:href="#DejaVuSans-2212"/>
       <use xlink:href="#DejaVuSans-30" x="83.789062"/>
       <use xlink:href="#DejaVuSans-2e" x="147.412109"/>
       <use xlink:href="#DejaVuSans-32" x="179.199219"/>
      </g>
     </g>
    </g>
    <g id="xtick_3">
     <g id="line2d_3">
      <g>
       <use xlink:href="#mb9ea61fbe3" x="314.632943" y="298.643478" style="stroke: #000000; stroke-width: 0.8"/>
      </g>
     </g>
     <g id="text_3">
      <!-- 0.0 -->
      <g transform="translate(306.681381 313.241916) scale(0.1 -0.1)">
       <use xlink:href="#DejaVuSans-30"/>
       <use xlink:href="#DejaVuSans-2e" x="63.623047"/>
       <use xlink:href="#DejaVuSans-30" x="95.410156"/>
      </g>
     </g>
    </g>
    <g id="xtick_4">
     <g id="line2d_4">
      <g>
       <use xlink:href="#mb9ea61fbe3" x="432.864856" y="298.643478" style="stroke: #000000; stroke-width: 0.8"/>
      </g>
     </g>
     <g id="text_4">
      <!-- 0.2 -->
      <g transform="translate(424.913294 313.241916) scale(0.1 -0.1)">
       <use xlink:href="#DejaVuSans-30"/>
       <use xlink:href="#DejaVuSans-2e" x="63.623047"/>
       <use xlink:href="#DejaVuSans-32" x="95.410156"/>
      </g>
     </g>
    </g>
    <g id="xtick_5">
     <g id="line2d_5">
      <g>
       <use xlink:href="#mb9ea61fbe3" x="551.096769" y="298.643478" style="stroke: #000000; stroke-width: 0.8"/>
      </g>
     </g>
     <g id="text_5">
      <!-- 0.4 -->
      <g transform="translate(543.145207 313.241916) scale(0.1 -0.1)">
       <use xlink:href="#DejaVuSans-30"/>
       <use xlink:href="#DejaVuSans-2e" x="63.623047"/>
       <use xlink:href="#DejaVuSans-34" x="95.410156"/>
      </g>
     </g>
    </g>
    <g id="xtick_6">
     <g id="line2d_6">
      <g>
       <use xlink:href="#mb9ea61fbe3" x="669.328682" y="298.643478" style="stroke: #000000; stroke-width: 0.8"/>
      </g>
     </g>
     <g id="text_6">
      <!-- 0.6 -->
      <g transform="translate(661.37712 313.241916) scale(0.1 -0.1)">
       <defs>
        <path id="DejaVuSans-36" d="M 2113 2584 
Q 1688 2584 1439 2293 
Q 1191 2003 1191 1497 
Q 1191 994 1439 701 
Q 1688 409 2113 409 
Q 2538 409 2786 701 
Q 3034 994 3034 1497 
Q 3034 2003 2786 2293 
Q 2538 2584 2113 2584 
z
M 3366 4563 
L 3366 3988 
Q 3128 4100 2886 4159 
Q 2644 4219 2406 4219 
Q 1781 4219 1451 3797 
Q 1122 3375 1075 2522 
Q 1259 2794 1537 2939 
Q 1816 3084 2150 3084 
Q 2853 3084 3261 2657 
Q 3669 2231 3669 1497 
Q 3669 778 3244 343 
Q 2819 -91 2113 -91 
Q 1303 -91 875 529 
Q 447 1150 447 2328 
Q 447 3434 972 4092 
Q 1497 4750 2381 4750 
Q 2619 4750 2861 4703 
Q 3103 4656 3366 4563 
z
" transform="scale(0.015625)"/>
       </defs>
       <use xlink:href="#DejaVuSans-30"/>
       <use xlink:href="#DejaVuSans-2e" x="63.623047"/>
       <use xlink:href="#DejaVuSans-36" x="95.410156"/>
      </g>
     </g>
    </g>
    <g id="xtick_7">
     <g id="line2d_7">
      <g>
       <use xlink:href="#mb9ea61fbe3" x="787.560595" y="298.643478" style="stroke: #000000; stroke-width: 0.8"/>
      </g>
     </g>
     <g id="text_7">
      <!-- 0.8 -->
      <g transform="translate(779.609033 313.241916) scale(0.1 -0.1)">
       <defs>
        <path id="DejaVuSans-38" d="M 2034 2216 
Q 1584 2216 1326 1975 
Q 1069 1734 1069 1313 
Q 1069 891 1326 650 
Q 1584 409 2034 409 
Q 2484 409 2743 651 
Q 3003 894 3003 1313 
Q 3003 1734 2745 1975 
Q 2488 2216 2034 2216 
z
M 1403 2484 
Q 997 2584 770 2862 
Q 544 3141 544 3541 
Q 544 4100 942 4425 
Q 1341 4750 2034 4750 
Q 2731 4750 3128 4425 
Q 3525 4100 3525 3541 
Q 3525 3141 3298 2862 
Q 3072 2584 2669 2484 
Q 3125 2378 3379 2068 
Q 3634 1759 3634 1313 
Q 3634 634 3220 271 
Q 2806 -91 2034 -91 
Q 1263 -91 848 271 
Q 434 634 434 1313 
Q 434 1759 690 2068 
Q 947 2378 1403 2484 
z
M 1172 3481 
Q 1172 3119 1398 2916 
Q 1625 2713 2034 2713 
Q 2441 2713 2670 2916 
Q 2900 3119 2900 3481 
Q 2900 3844 2670 4047 
Q 2441 4250 2034 4250 
Q 1625 4250 1398 4047 
Q 1172 3844 1172 3481 
z
" transform="scale(0.015625)"/>
       </defs>
       <use xlink:href="#DejaVuSans-30"/>
       <use xlink:href="#DejaVuSans-2e" x="63.623047"/>
       <use xlink:href="#DejaVuSans-38" x="95.410156"/>
      </g>
     </g>
    </g>
   </g>
   <g id="matplotlib.axis_2">
    <g id="ytick_1">
     <g id="line2d_8">
      <defs>
       <path id="mcb08cd87a2" d="M 0 0 
L -3.5 0 
" style="stroke: #000000; stroke-width: 0.8"/>
      </defs>
      <g>
       <use xlink:href="#mcb08cd87a2" x="43.78125" y="298.643478" style="stroke: #000000; stroke-width: 0.8"/>
      </g>
     </g>
     <g id="text_8">
      <!-- 0.0 -->
      <g transform="translate(20.878125 302.442697) scale(0.1 -0.1)">
       <use xlink:href="#DejaVuSans-30"/>
       <use xlink:href="#DejaVuSans-2e" x="63.623047"/>
       <use xlink:href="#DejaVuSans-30" x="95.410156"/>
      </g>
     </g>
    </g>
    <g id="ytick_2">
     <g id="line2d_9">
      <g>
       <use xlink:href="#mcb08cd87a2" x="43.78125" y="263.489773" style="stroke: #000000; stroke-width: 0.8"/>
      </g>
     </g>
     <g id="text_9">
      <!-- 0.5 -->
      <g transform="translate(20.878125 267.288992) scale(0.1 -0.1)">
       <defs>
        <path id="DejaVuSans-35" d="M 691 4666 
L 3169 4666 
L 3169 4134 
L 1269 4134 
L 1269 2991 
Q 1406 3038 1543 3061 
Q 1681 3084 1819 3084 
Q 2600 3084 3056 2656 
Q 3513 2228 3513 1497 
Q 3513 744 3044 326 
Q 2575 -91 1722 -91 
Q 1428 -91 1123 -41 
Q 819 9 494 109 
L 494 744 
Q 775 591 1075 516 
Q 1375 441 1709 441 
Q 2250 441 2565 725 
Q 2881 1009 2881 1497 
Q 2881 1984 2565 2268 
Q 2250 2553 1709 2553 
Q 1456 2553 1204 2497 
Q 953 2441 691 2322 
L 691 4666 
z
" transform="scale(0.015625)"/>
       </defs>
       <use xlink:href="#DejaVuSans-30"/>
       <use xlink:href="#DejaVuSans-2e" x="63.623047"/>
       <use xlink:href="#DejaVuSans-35" x="95.410156"/>
      </g>
     </g>
    </g>
    <g id="ytick_3">
     <g id="line2d_10">
      <g>
       <use xlink:href="#mcb08cd87a2" x="43.78125" y="228.336069" style="stroke: #000000; stroke-width: 0.8"/>
      </g>
     </g>
     <g id="text_10">
      <!-- 1.0 -->
      <g transform="translate(20.878125 232.135287) scale(0.1 -0.1)">
       <defs>
        <path id="DejaVuSans-31" d="M 794 531 
L 1825 531 
L 1825 4091 
L 703 3866 
L 703 4441 
L 1819 4666 
L 2450 4666 
L 2450 531 
L 3481 531 
L 3481 0 
L 794 0 
L 794 531 
z
" transform="scale(0.015625)"/>
       </defs>
       <use xlink:href="#DejaVuSans-31"/>
       <use xlink:href="#DejaVuSans-2e" x="63.623047"/>
       <use xlink:href="#DejaVuSans-30" x="95.410156"/>
      </g>
     </g>
    </g>
    <g id="ytick_4">
     <g id="line2d_11">
      <g>
       <use xlink:href="#mcb08cd87a2" x="43.78125" y="193.182364" style="stroke: #000000; stroke-width: 0.8"/>
      </g>
     </g>
     <g id="text_11">
      <!-- 1.5 -->
      <g transform="translate(20.878125 196.981583) scale(0.1 -0.1)">
       <use xlink:href="#DejaVuSans-31"/>
       <use xlink:href="#DejaVuSans-2e" x="63.623047"/>
       <use xlink:href="#DejaVuSans-35" x="95.410156"/>
      </g>
     </g>
    </g>
    <g id="ytick_5">
     <g id="line2d_12">
      <g>
       <use xlink:href="#mcb08cd87a2" x="43.78125" y="158.028659" style="stroke: #000000; stroke-width: 0.8"/>
      </g>
     </g>
     <g id="text_12">
      <!-- 2.0 -->
      <g transform="translate(20.878125 161.827878) scale(0.1 -0.1)">
       <use xlink:href="#DejaVuSans-32"/>
       <use xlink:href="#DejaVuSans-2e" x="63.623047"/>
       <use xlink:href="#DejaVuSans-30" x="95.410156"/>
      </g>
     </g>
    </g>
    <g id="ytick_6">
     <g id="line2d_13">
      <g>
       <use xlink:href="#mcb08cd87a2" x="43.78125" y="122.874954" style="stroke: #000000; stroke-width: 0.8"/>
      </g>
     </g>
     <g id="text_13">
      <!-- 2.5 -->
      <g transform="translate(20.878125 126.674173) scale(0.1 -0.1)">
       <use xlink:href="#DejaVuSans-32"/>
       <use xlink:href="#DejaVuSans-2e" x="63.623047"/>
       <use xlink:href="#DejaVuSans-35" x="95.410156"/>
      </g>
     </g>
    </g>
    <g id="ytick_7">
     <g id="line2d_14">
      <g>
       <use xlink:href="#mcb08cd87a2" x="43.78125" y="87.72125" style="stroke: #000000; stroke-width: 0.8"/>
      </g>
     </g>
     <g id="text_14">
      <!-- 3.0 -->
      <g transform="translate(20.878125 91.520468) scale(0.1 -0.1)">
       <defs>
        <path id="DejaVuSans-33" d="M 2597 2516 
Q 3050 2419 3304 2112 
Q 3559 1806 3559 1356 
Q 3559 666 3084 287 
Q 2609 -91 1734 -91 
Q 1441 -91 1130 -33 
Q 819 25 488 141 
L 488 750 
Q 750 597 1062 519 
Q 1375 441 1716 441 
Q 2309 441 2620 675 
Q 2931 909 2931 1356 
Q 2931 1769 2642 2001 
Q 2353 2234 1838 2234 
L 1294 2234 
L 1294 2753 
L 1863 2753 
Q 2328 2753 2575 2939 
Q 2822 3125 2822 3475 
Q 2822 3834 2567 4026 
Q 2313 4219 1838 4219 
Q 1578 4219 1281 4162 
Q 984 4106 628 3988 
L 628 4550 
Q 988 4650 1302 4700 
Q 1616 4750 1894 4750 
Q 2613 4750 3031 4423 
Q 3450 4097 3450 3541 
Q 3450 3153 3228 2886 
Q 3006 2619 2597 2516 
z
" transform="scale(0.015625)"/>
       </defs>
       <use xlink:href="#DejaVuSans-33"/>
       <use xlink:href="#DejaVuSans-2e" x="63.623047"/>
       <use xlink:href="#DejaVuSans-30" x="95.410156"/>
      </g>
     </g>
    </g>
    <g id="text_15">
     <!-- Density -->
     <g transform="translate(14.798438 197.130333) rotate(-90) scale(0.1 -0.1)">
      <defs>
       <path id="DejaVuSans-44" d="M 1259 4147 
L 1259 519 
L 2022 519 
Q 2988 519 3436 956 
Q 3884 1394 3884 2338 
Q 3884 3275 3436 3711 
Q 2988 4147 2022 4147 
L 1259 4147 
z
M 628 4666 
L 1925 4666 
Q 3281 4666 3915 4102 
Q 4550 3538 4550 2338 
Q 4550 1131 3912 565 
Q 3275 0 1925 0 
L 628 0 
L 628 4666 
z
" transform="scale(0.015625)"/>
       <path id="DejaVuSans-65" d="M 3597 1894 
L 3597 1613 
L 953 1613 
Q 991 1019 1311 708 
Q 1631 397 2203 397 
Q 2534 397 2845 478 
Q 3156 559 3463 722 
L 3463 178 
Q 3153 47 2828 -22 
Q 2503 -91 2169 -91 
Q 1331 -91 842 396 
Q 353 884 353 1716 
Q 353 2575 817 3079 
Q 1281 3584 2069 3584 
Q 2775 3584 3186 3129 
Q 3597 2675 3597 1894 
z
M 3022 2063 
Q 3016 2534 2758 2815 
Q 2500 3097 2075 3097 
Q 1594 3097 1305 2825 
Q 1016 2553 972 2059 
L 3022 2063 
z
" transform="scale(0.015625)"/>
       <path id="DejaVuSans-6e" d="M 3513 2113 
L 3513 0 
L 2938 0 
L 2938 2094 
Q 2938 2591 2744 2837 
Q 2550 3084 2163 3084 
Q 1697 3084 1428 2787 
Q 1159 2491 1159 1978 
L 1159 0 
L 581 0 
L 581 3500 
L 1159 3500 
L 1159 2956 
Q 1366 3272 1645 3428 
Q 1925 3584 2291 3584 
Q 2894 3584 3203 3211 
Q 3513 2838 3513 2113 
z
" transform="scale(0.015625)"/>
       <path id="DejaVuSans-73" d="M 2834 3397 
L 2834 2853 
Q 2591 2978 2328 3040 
Q 2066 3103 1784 3103 
Q 1356 3103 1142 2972 
Q 928 2841 928 2578 
Q 928 2378 1081 2264 
Q 1234 2150 1697 2047 
L 1894 2003 
Q 2506 1872 2764 1633 
Q 3022 1394 3022 966 
Q 3022 478 2636 193 
Q 2250 -91 1575 -91 
Q 1294 -91 989 -36 
Q 684 19 347 128 
L 347 722 
Q 666 556 975 473 
Q 1284 391 1588 391 
Q 1994 391 2212 530 
Q 2431 669 2431 922 
Q 2431 1156 2273 1281 
Q 2116 1406 1581 1522 
L 1381 1569 
Q 847 1681 609 1914 
Q 372 2147 372 2553 
Q 372 3047 722 3315 
Q 1072 3584 1716 3584 
Q 2034 3584 2315 3537 
Q 2597 3491 2834 3397 
z
" transform="scale(0.015625)"/>
       <path id="DejaVuSans-69" d="M 603 3500 
L 1178 3500 
L 1178 0 
L 603 0 
L 603 3500 
z
M 603 4863 
L 1178 4863 
L 1178 4134 
L 603 4134 
L 603 4863 
z
" transform="scale(0.015625)"/>
       <path id="DejaVuSans-74" d="M 1172 4494 
L 1172 3500 
L 2356 3500 
L 2356 3053 
L 1172 3053 
L 1172 1153 
Q 1172 725 1289 603 
Q 1406 481 1766 481 
L 2356 481 
L 2356 0 
L 1766 0 
Q 1100 0 847 248 
Q 594 497 594 1153 
L 594 3053 
L 172 3053 
L 172 3500 
L 594 3500 
L 594 4494 
L 1172 4494 
z
" transform="scale(0.015625)"/>
       <path id="DejaVuSans-79" d="M 2059 -325 
Q 1816 -950 1584 -1140 
Q 1353 -1331 966 -1331 
L 506 -1331 
L 506 -850 
L 844 -850 
Q 1081 -850 1212 -737 
Q 1344 -625 1503 -206 
L 1606 56 
L 191 3500 
L 800 3500 
L 1894 763 
L 2988 3500 
L 3597 3500 
L 2059 -325 
z
" transform="scale(0.015625)"/>
      </defs>
      <use xlink:href="#DejaVuSans-44"/>
      <use xlink:href="#DejaVuSans-65" x="77.001953"/>
      <use xlink:href="#DejaVuSans-6e" x="138.525391"/>
      <use xlink:href="#DejaVuSans-73" x="201.904297"/>
      <use xlink:href="#DejaVuSans-69" x="254.003906"/>
      <use xlink:href="#DejaVuSans-74" x="281.787109"/>
      <use xlink:href="#DejaVuSans-79" x="320.996094"/>
     </g>
    </g>
   </g>
   <g id="patch_3">
    <path d="M 43.78125 298.643478 
L 43.78125 57.6 
" style="fill: none; stroke: #000000; stroke-width: 0.8; stroke-linejoin: miter; stroke-linecap: square"/>
   </g>
   <g id="patch_4">
    <path d="M 880.78125 298.643478 
L 880.78125 57.6 
" style="fill: none; stroke: #000000; stroke-width: 0.8; stroke-linejoin: miter; stroke-linecap: square"/>
   </g>
   <g id="patch_5">
    <path d="M 43.78125 298.643478 
L 880.78125 298.643478 
" style="fill: none; stroke: #000000; stroke-width: 0.8; stroke-linejoin: miter; stroke-linecap: square"/>
   </g>
   <g id="patch_6">
    <path d="M 43.78125 57.6 
L 880.78125 57.6 
" style="fill: none; stroke: #000000; stroke-width: 0.8; stroke-linejoin: miter; stroke-linecap: square"/>
   </g>
   <g id="text_16">
    <!-- Pearson correlation coefficients -->
    <g transform="translate(367.949062 51.6) scale(0.12 -0.12)">
     <defs>
      <path id="DejaVuSans-50" d="M 1259 4147 
L 1259 2394 
L 2053 2394 
Q 2494 2394 2734 2622 
Q 2975 2850 2975 3272 
Q 2975 3691 2734 3919 
Q 2494 4147 2053 4147 
L 1259 4147 
z
M 628 4666 
L 2053 4666 
Q 2838 4666 3239 4311 
Q 3641 3956 3641 3272 
Q 3641 2581 3239 2228 
Q 2838 1875 2053 1875 
L 1259 1875 
L 1259 0 
L 628 0 
L 628 4666 
z
" transform="scale(0.015625)"/>
      <path id="DejaVuSans-61" d="M 2194 1759 
Q 1497 1759 1228 1600 
Q 959 1441 959 1056 
Q 959 750 1161 570 
Q 1363 391 1709 391 
Q 2188 391 2477 730 
Q 2766 1069 2766 1631 
L 2766 1759 
L 2194 1759 
z
M 3341 1997 
L 3341 0 
L 2766 0 
L 2766 531 
Q 2569 213 2275 61 
Q 1981 -91 1556 -91 
Q 1019 -91 701 211 
Q 384 513 384 1019 
Q 384 1609 779 1909 
Q 1175 2209 1959 2209 
L 2766 2209 
L 2766 2266 
Q 2766 2663 2505 2880 
Q 2244 3097 1772 3097 
Q 1472 3097 1187 3025 
Q 903 2953 641 2809 
L 641 3341 
Q 956 3463 1253 3523 
Q 1550 3584 1831 3584 
Q 2591 3584 2966 3190 
Q 3341 2797 3341 1997 
z
" transform="scale(0.015625)"/>
      <path id="DejaVuSans-72" d="M 2631 2963 
Q 2534 3019 2420 3045 
Q 2306 3072 2169 3072 
Q 1681 3072 1420 2755 
Q 1159 2438 1159 1844 
L 1159 0 
L 581 0 
L 581 3500 
L 1159 3500 
L 1159 2956 
Q 1341 3275 1631 3429 
Q 1922 3584 2338 3584 
Q 2397 3584 2469 3576 
Q 2541 3569 2628 3553 
L 2631 2963 
z
" transform="scale(0.015625)"/>
      <path id="DejaVuSans-6f" d="M 1959 3097 
Q 1497 3097 1228 2736 
Q 959 2375 959 1747 
Q 959 1119 1226 758 
Q 1494 397 1959 397 
Q 2419 397 2687 759 
Q 2956 1122 2956 1747 
Q 2956 2369 2687 2733 
Q 2419 3097 1959 3097 
z
M 1959 3584 
Q 2709 3584 3137 3096 
Q 3566 2609 3566 1747 
Q 3566 888 3137 398 
Q 2709 -91 1959 -91 
Q 1206 -91 779 398 
Q 353 888 353 1747 
Q 353 2609 779 3096 
Q 1206 3584 1959 3584 
z
" transform="scale(0.015625)"/>
      <path id="DejaVuSans-20" transform="scale(0.015625)"/>
      <path id="DejaVuSans-63" d="M 3122 3366 
L 3122 2828 
Q 2878 2963 2633 3030 
Q 2388 3097 2138 3097 
Q 1578 3097 1268 2742 
Q 959 2388 959 1747 
Q 959 1106 1268 751 
Q 1578 397 2138 397 
Q 2388 397 2633 464 
Q 2878 531 3122 666 
L 3122 134 
Q 2881 22 2623 -34 
Q 2366 -91 2075 -91 
Q 1284 -91 818 406 
Q 353 903 353 1747 
Q 353 2603 823 3093 
Q 1294 3584 2113 3584 
Q 2378 3584 2631 3529 
Q 2884 3475 3122 3366 
z
" transform="scale(0.015625)"/>
      <path id="DejaVuSans-6c" d="M 603 4863 
L 1178 4863 
L 1178 0 
L 603 0 
L 603 4863 
z
" transform="scale(0.015625)"/>
      <path id="DejaVuSans-66" d="M 2375 4863 
L 2375 4384 
L 1825 4384 
Q 1516 4384 1395 4259 
Q 1275 4134 1275 3809 
L 1275 3500 
L 2222 3500 
L 2222 3053 
L 1275 3053 
L 1275 0 
L 697 0 
L 697 3053 
L 147 3053 
L 147 3500 
L 697 3500 
L 697 3744 
Q 697 4328 969 4595 
Q 1241 4863 1831 4863 
L 2375 4863 
z
" transform="scale(0.015625)"/>
     </defs>
     <use xlink:href="#DejaVuSans-50"/>
     <use xlink:href="#DejaVuSans-65" x="56.677734"/>
     <use xlink:href="#DejaVuSans-61" x="118.201172"/>
     <use xlink:href="#DejaVuSans-72" x="179.480469"/>
     <use xlink:href="#DejaVuSans-73" x="220.59375"/>
     <use xlink:href="#DejaVuSans-6f" x="272.693359"/>
     <use xlink:href="#DejaVuSans-6e" x="333.875"/>
     <use xlink:href="#DejaVuSans-20" x="397.253906"/>
     <use xlink:href="#DejaVuSans-63" x="429.041016"/>
     <use xlink:href="#DejaVuSans-6f" x="484.021484"/>
     <use xlink:href="#DejaVuSans-72" x="545.203125"/>
     <use xlink:href="#DejaVuSans-72" x="584.566406"/>
     <use xlink:href="#DejaVuSans-65" x="623.429688"/>
     <use xlink:href="#DejaVuSans-6c" x="684.953125"/>
     <use xlink:href="#DejaVuSans-61" x="712.736328"/>
     <use xlink:href="#DejaVuSans-74" x="774.015625"/>
     <use xlink:href="#DejaVuSans-69" x="813.224609"/>
     <use xlink:href="#DejaVuSans-6f" x="841.007812"/>
     <use xlink:href="#DejaVuSans-6e" x="902.189453"/>
     <use xlink:href="#DejaVuSans-20" x="965.568359"/>
     <use xlink:href="#DejaVuSans-63" x="997.355469"/>
     <use xlink:href="#DejaVuSans-6f" x="1052.335938"/>
     <use xlink:href="#DejaVuSans-65" x="1113.517578"/>
     <use xlink:href="#DejaVuSans-66" x="1175.041016"/>
     <use xlink:href="#DejaVuSans-66" x="1210.246094"/>
     <use xlink:href="#DejaVuSans-69" x="1245.451172"/>
     <use xlink:href="#DejaVuSans-63" x="1273.234375"/>
     <use xlink:href="#DejaVuSans-69" x="1328.214844"/>
     <use xlink:href="#DejaVuSans-65" x="1355.998047"/>
     <use xlink:href="#DejaVuSans-6e" x="1417.521484"/>
     <use xlink:href="#DejaVuSans-74" x="1480.900391"/>
     <use xlink:href="#DejaVuSans-73" x="1520.109375"/>
    </g>
   </g>
   <g id="legend_1">
    <g id="patch_7">
     <path d="M 50.78125 109.634375 
L 138.80625 109.634375 
Q 140.80625 109.634375 140.80625 107.634375 
L 140.80625 64.6 
Q 140.80625 62.6 138.80625 62.6 
L 50.78125 62.6 
Q 48.78125 62.6 48.78125 64.6 
L 48.78125 107.634375 
Q 48.78125 109.634375 50.78125 109.634375 
z
" style="fill: #ffffff; opacity: 0.8; stroke: #cccccc; stroke-linejoin: miter"/>
    </g>
    <g id="text_17">
     <!-- Correlation type: -->
     <g transform="translate(52.78125 74.198437) scale(0.1 -0.1)">
      <defs>
       <path id="DejaVuSans-43" d="M 4122 4306 
L 4122 3641 
Q 3803 3938 3442 4084 
Q 3081 4231 2675 4231 
Q 1875 4231 1450 3742 
Q 1025 3253 1025 2328 
Q 1025 1406 1450 917 
Q 1875 428 2675 428 
Q 3081 428 3442 575 
Q 3803 722 4122 1019 
L 4122 359 
Q 3791 134 3420 21 
Q 3050 -91 2638 -91 
Q 1578 -91 968 557 
Q 359 1206 359 2328 
Q 359 3453 968 4101 
Q 1578 4750 2638 4750 
Q 3056 4750 3426 4639 
Q 3797 4528 4122 4306 
z
" transform="scale(0.015625)"/>
       <path id="DejaVuSans-70" d="M 1159 525 
L 1159 -1331 
L 581 -1331 
L 581 3500 
L 1159 3500 
L 1159 2969 
Q 1341 3281 1617 3432 
Q 1894 3584 2278 3584 
Q 2916 3584 3314 3078 
Q 3713 2572 3713 1747 
Q 3713 922 3314 415 
Q 2916 -91 2278 -91 
Q 1894 -91 1617 61 
Q 1341 213 1159 525 
z
M 3116 1747 
Q 3116 2381 2855 2742 
Q 2594 3103 2138 3103 
Q 1681 3103 1420 2742 
Q 1159 2381 1159 1747 
Q 1159 1113 1420 752 
Q 1681 391 2138 391 
Q 2594 391 2855 752 
Q 3116 1113 3116 1747 
z
" transform="scale(0.015625)"/>
       <path id="DejaVuSans-3a" d="M 750 794 
L 1409 794 
L 1409 0 
L 750 0 
L 750 794 
z
M 750 3309 
L 1409 3309 
L 1409 2516 
L 750 2516 
L 750 3309 
z
" transform="scale(0.015625)"/>
      </defs>
      <use xlink:href="#DejaVuSans-43"/>
      <use xlink:href="#DejaVuSans-6f" x="69.824219"/>
      <use xlink:href="#DejaVuSans-72" x="131.005859"/>
      <use xlink:href="#DejaVuSans-72" x="170.369141"/>
      <use xlink:href="#DejaVuSans-65" x="209.232422"/>
      <use xlink:href="#DejaVuSans-6c" x="270.755859"/>
      <use xlink:href="#DejaVuSans-61" x="298.539062"/>
      <use xlink:href="#DejaVuSans-74" x="359.818359"/>
      <use xlink:href="#DejaVuSans-69" x="399.027344"/>
      <use xlink:href="#DejaVuSans-6f" x="426.810547"/>
      <use xlink:href="#DejaVuSans-6e" x="487.992188"/>
      <use xlink:href="#DejaVuSans-20" x="551.371094"/>
      <use xlink:href="#DejaVuSans-74" x="583.158203"/>
      <use xlink:href="#DejaVuSans-79" x="622.367188"/>
      <use xlink:href="#DejaVuSans-70" x="681.546875"/>
      <use xlink:href="#DejaVuSans-65" x="745.023438"/>
      <use xlink:href="#DejaVuSans-3a" x="806.546875"/>
     </g>
    </g>
    <g id="patch_8">
     <path d="M 53.285156 88.876562 
L 73.285156 88.876562 
L 73.285156 81.876562 
L 53.285156 81.876562 
z
" style="fill: #1f77b4; fill-opacity: 0.5; stroke: #1f77b4; stroke-width: 2.5; stroke-linejoin: miter"/>
    </g>
    <g id="text_18">
     <!-- Codon -->
     <g transform="translate(81.285156 88.876562) scale(0.1 -0.1)">
      <defs>
       <path id="DejaVuSans-64" d="M 2906 2969 
L 2906 4863 
L 3481 4863 
L 3481 0 
L 2906 0 
L 2906 525 
Q 2725 213 2448 61 
Q 2172 -91 1784 -91 
Q 1150 -91 751 415 
Q 353 922 353 1747 
Q 353 2572 751 3078 
Q 1150 3584 1784 3584 
Q 2172 3584 2448 3432 
Q 2725 3281 2906 2969 
z
M 947 1747 
Q 947 1113 1208 752 
Q 1469 391 1925 391 
Q 2381 391 2643 752 
Q 2906 1113 2906 1747 
Q 2906 2381 2643 2742 
Q 2381 3103 1925 3103 
Q 1469 3103 1208 2742 
Q 947 2381 947 1747 
z
" transform="scale(0.015625)"/>
      </defs>
      <use xlink:href="#DejaVuSans-43"/>
      <use xlink:href="#DejaVuSans-6f" x="69.824219"/>
      <use xlink:href="#DejaVuSans-64" x="131.005859"/>
      <use xlink:href="#DejaVuSans-6f" x="194.482422"/>
      <use xlink:href="#DejaVuSans-6e" x="255.664062"/>
     </g>
    </g>
    <g id="patch_9">
     <path d="M 53.285156 103.554688 
L 73.285156 103.554688 
L 73.285156 96.554688 
L 53.285156 96.554688 
z
" style="fill: #ff7f0e; fill-opacity: 0.5; stroke: #ff7f0e; stroke-width: 2.5; stroke-linejoin: miter"/>
    </g>
    <g id="text_19">
     <!-- Codon+GC -->
     <g transform="translate(81.285156 103.554688) scale(0.1 -0.1)">
      <defs>
       <path id="DejaVuSans-2b" d="M 2944 4013 
L 2944 2272 
L 4684 2272 
L 4684 1741 
L 2944 1741 
L 2944 0 
L 2419 0 
L 2419 1741 
L 678 1741 
L 678 2272 
L 2419 2272 
L 2419 4013 
L 2944 4013 
z
" transform="scale(0.015625)"/>
       <path id="DejaVuSans-47" d="M 3809 666 
L 3809 1919 
L 2778 1919 
L 2778 2438 
L 4434 2438 
L 4434 434 
Q 4069 175 3628 42 
Q 3188 -91 2688 -91 
Q 1594 -91 976 548 
Q 359 1188 359 2328 
Q 359 3472 976 4111 
Q 1594 4750 2688 4750 
Q 3144 4750 3555 4637 
Q 3966 4525 4313 4306 
L 4313 3634 
Q 3963 3931 3569 4081 
Q 3175 4231 2741 4231 
Q 1884 4231 1454 3753 
Q 1025 3275 1025 2328 
Q 1025 1384 1454 906 
Q 1884 428 2741 428 
Q 3075 428 3337 486 
Q 3600 544 3809 666 
z
" transform="scale(0.015625)"/>
      </defs>
      <use xlink:href="#DejaVuSans-43"/>
      <use xlink:href="#DejaVuSans-6f" x="69.824219"/>
      <use xlink:href="#DejaVuSans-64" x="131.005859"/>
      <use xlink:href="#DejaVuSans-6f" x="194.482422"/>
      <use xlink:href="#DejaVuSans-6e" x="255.664062"/>
      <use xlink:href="#DejaVuSans-2b" x="319.042969"/>
      <use xlink:href="#DejaVuSans-47" x="402.832031"/>
      <use xlink:href="#DejaVuSans-43" x="480.322266"/>
     </g>
    </g>
   </g>
  </g>
  <g id="axes_2">
   <g id="patch_10">
    <path d="M 43.78125 612 
L 880.78125 612 
L 880.78125 370.956522 
L 43.78125 370.956522 
z
" style="fill: #ffffff"/>
   </g>
   <g id="PolyCollection_3">
    <defs>
     <path id="m852bd70882" d="M 191.770886 -23.894006 
L 191.770886 -23.878125 
L 194.943225 -23.878125 
L 198.115564 -23.878125 
L 201.287904 -23.878125 
L 204.460243 -23.878125 
L 207.632582 -23.878125 
L 210.804921 -23.878125 
L 213.97726 -23.878125 
L 217.149599 -23.878125 
L 220.321938 -23.878125 
L 223.494277 -23.878125 
L 226.666616 -23.878125 
L 229.838955 -23.878125 
L 233.011294 -23.878125 
L 236.183633 -23.878125 
L 239.355973 -23.878125 
L 242.528312 -23.878125 
L 245.700651 -23.878125 
L 248.87299 -23.878125 
L 252.045329 -23.878125 
L 255.217668 -23.878125 
L 258.390007 -23.878125 
L 261.562346 -23.878125 
L 264.734685 -23.878125 
L 267.907024 -23.878125 
L 271.079363 -23.878125 
L 274.251703 -23.878125 
L 277.424042 -23.878125 
L 280.596381 -23.878125 
L 283.76872 -23.878125 
L 286.941059 -23.878125 
L 290.113398 -23.878125 
L 293.285737 -23.878125 
L 296.458076 -23.878125 
L 299.630415 -23.878125 
L 302.802754 -23.878125 
L 305.975093 -23.878125 
L 309.147432 -23.878125 
L 312.319772 -23.878125 
L 315.492111 -23.878125 
L 318.66445 -23.878125 
L 321.836789 -23.878125 
L 325.009128 -23.878125 
L 328.181467 -23.878125 
L 331.353806 -23.878125 
L 334.526145 -23.878125 
L 337.698484 -23.878125 
L 340.870823 -23.878125 
L 344.043162 -23.878125 
L 347.215502 -23.878125 
L 350.387841 -23.878125 
L 353.56018 -23.878125 
L 356.732519 -23.878125 
L 359.904858 -23.878125 
L 363.077197 -23.878125 
L 366.249536 -23.878125 
L 369.421875 -23.878125 
L 372.594214 -23.878125 
L 375.766553 -23.878125 
L 378.938892 -23.878125 
L 382.111231 -23.878125 
L 385.283571 -23.878125 
L 388.45591 -23.878125 
L 391.628249 -23.878125 
L 394.800588 -23.878125 
L 397.972927 -23.878125 
L 401.145266 -23.878125 
L 404.317605 -23.878125 
L 407.489944 -23.878125 
L 410.662283 -23.878125 
L 413.834622 -23.878125 
L 417.006961 -23.878125 
L 420.179301 -23.878125 
L 423.35164 -23.878125 
L 426.523979 -23.878125 
L 429.696318 -23.878125 
L 432.868657 -23.878125 
L 436.040996 -23.878125 
L 439.213335 -23.878125 
L 442.385674 -23.878125 
L 445.558013 -23.878125 
L 448.730352 -23.878125 
L 451.902691 -23.878125 
L 455.07503 -23.878125 
L 458.24737 -23.878125 
L 461.419709 -23.878125 
L 464.592048 -23.878125 
L 467.764387 -23.878125 
L 470.936726 -23.878125 
L 474.109065 -23.878125 
L 477.281404 -23.878125 
L 480.453743 -23.878125 
L 483.626082 -23.878125 
L 486.798421 -23.878125 
L 489.97076 -23.878125 
L 493.1431 -23.878125 
L 496.315439 -23.878125 
L 499.487778 -23.878125 
L 502.660117 -23.878125 
L 505.832456 -23.878125 
L 509.004795 -23.878125 
L 512.177134 -23.878125 
L 515.349473 -23.878125 
L 518.521812 -23.878125 
L 521.694151 -23.878125 
L 524.86649 -23.878125 
L 528.03883 -23.878125 
L 531.211169 -23.878125 
L 534.383508 -23.878125 
L 537.555847 -23.878125 
L 540.728186 -23.878125 
L 543.900525 -23.878125 
L 547.072864 -23.878125 
L 550.245203 -23.878125 
L 553.417542 -23.878125 
L 556.589881 -23.878125 
L 559.76222 -23.878125 
L 562.934559 -23.878125 
L 566.106899 -23.878125 
L 569.279238 -23.878125 
L 572.451577 -23.878125 
L 575.623916 -23.878125 
L 578.796255 -23.878125 
L 581.968594 -23.878125 
L 585.140933 -23.878125 
L 588.313272 -23.878125 
L 591.485611 -23.878125 
L 594.65795 -23.878125 
L 597.830289 -23.878125 
L 601.002629 -23.878125 
L 604.174968 -23.878125 
L 607.347307 -23.878125 
L 610.519646 -23.878125 
L 613.691985 -23.878125 
L 616.864324 -23.878125 
L 620.036663 -23.878125 
L 623.209002 -23.878125 
L 626.381341 -23.878125 
L 629.55368 -23.878125 
L 632.726019 -23.878125 
L 635.898358 -23.878125 
L 639.070698 -23.878125 
L 642.243037 -23.878125 
L 645.415376 -23.878125 
L 648.587715 -23.878125 
L 651.760054 -23.878125 
L 654.932393 -23.878125 
L 658.104732 -23.878125 
L 661.277071 -23.878125 
L 664.44941 -23.878125 
L 667.621749 -23.878125 
L 670.794088 -23.878125 
L 673.966428 -23.878125 
L 677.138767 -23.878125 
L 680.311106 -23.878125 
L 683.483445 -23.878125 
L 686.655784 -23.878125 
L 689.828123 -23.878125 
L 693.000462 -23.878125 
L 696.172801 -23.878125 
L 699.34514 -23.878125 
L 702.517479 -23.878125 
L 705.689818 -23.878125 
L 708.862157 -23.878125 
L 712.034497 -23.878125 
L 715.206836 -23.878125 
L 718.379175 -23.878125 
L 721.551514 -23.878125 
L 724.723853 -23.878125 
L 727.896192 -23.878125 
L 731.068531 -23.878125 
L 734.24087 -23.878125 
L 737.413209 -23.878125 
L 740.585548 -23.878125 
L 743.757887 -23.878125 
L 746.930227 -23.878125 
L 750.102566 -23.878125 
L 753.274905 -23.878125 
L 756.447244 -23.878125 
L 759.619583 -23.878125 
L 762.791922 -23.878125 
L 765.964261 -23.878125 
L 769.1366 -23.878125 
L 772.308939 -23.878125 
L 775.481278 -23.878125 
L 778.653617 -23.878125 
L 781.825956 -23.878125 
L 784.998296 -23.878125 
L 788.170635 -23.878125 
L 791.342974 -23.878125 
L 794.515313 -23.878125 
L 797.687652 -23.878125 
L 800.859991 -23.878125 
L 804.03233 -23.878125 
L 807.204669 -23.878125 
L 810.377008 -23.878125 
L 813.549347 -23.878125 
L 816.721686 -23.878125 
L 819.894026 -23.878125 
L 823.066365 -23.878125 
L 823.066365 -23.925418 
L 823.066365 -23.925418 
L 819.894026 -23.951243 
L 816.721686 -23.989088 
L 813.549347 -24.043445 
L 810.377008 -24.119967 
L 807.204669 -24.225556 
L 804.03233 -24.368378 
L 800.859991 -24.557771 
L 797.687652 -24.804017 
L 794.515313 -25.117983 
L 791.342974 -25.510613 
L 788.170635 -25.992311 
L 784.998296 -26.572242 
L 781.825956 -27.257632 
L 778.653617 -28.053119 
L 775.481278 -28.960265 
L 772.308939 -29.977257 
L 769.1366 -31.098885 
L 765.964261 -32.31679 
L 762.791922 -33.619968 
L 759.619583 -34.995492 
L 756.447244 -36.429357 
L 753.274905 -37.907373 
L 750.102566 -39.416001 
L 746.930227 -40.943067 
L 743.757887 -42.478294 
L 740.585548 -44.01362 
L 737.413209 -45.543317 
L 734.24087 -47.063921 
L 731.068531 -48.57402 
L 727.896192 -50.073944 
L 724.723853 -51.565405 
L 721.551514 -53.05115 
L 718.379175 -54.534682 
L 715.206836 -56.020114 
L 712.034497 -57.512213 
L 708.862157 -59.016699 
L 705.689818 -60.540824 
L 702.517479 -62.094235 
L 699.34514 -63.69005 
L 696.172801 -65.346056 
L 693.000462 -67.08583 
L 689.828123 -68.939562 
L 686.655784 -70.944353 
L 683.483445 -73.14375 
L 680.311106 -75.586352 
L 677.138767 -78.323444 
L 673.966428 -81.405699 
L 670.794088 -84.879181 
L 667.621749 -88.780982 
L 664.44941 -93.134941 
L 661.277071 -97.947948 
L 658.104732 -103.20732 
L 654.932393 -108.879668 
L 651.760054 -114.911533 
L 648.587715 -121.23187 
L 645.415376 -127.756279 
L 642.243037 -134.392636 
L 639.070698 -141.047624 
L 635.898358 -147.633521 
L 632.726019 -154.074541 
L 629.55368 -160.312076 
L 626.381341 -166.308258 
L 623.209002 -172.047473 
L 620.036663 -177.535666 
L 616.864324 -182.797539 
L 613.691985 -187.871958 
L 610.519646 -192.806104 
L 607.347307 -197.648973 
L 604.174968 -202.444907 
L 601.002629 -207.227763 
L 597.830289 -212.0162 
L 594.65795 -216.81043 
L 591.485611 -221.590583 
L 588.313272 -226.316676 
L 585.140933 -230.930061 
L 581.968594 -235.356137 
L 578.796255 -239.508065 
L 575.623916 -243.291206 
L 572.451577 -246.608033 
L 569.279238 -249.363242 
L 566.106899 -251.468809 
L 562.934559 -252.848754 
L 559.76222 -253.443342 
L 556.589881 -253.2125 
L 553.417542 -252.138219 
L 550.245203 -250.225809 
L 547.072864 -247.503907 
L 543.900525 -244.023268 
L 540.728186 -239.854466 
L 537.555847 -235.084696 
L 534.383508 -229.813979 
L 531.211169 -224.15104 
L 528.03883 -218.209141 
L 524.86649 -212.102075 
L 521.694151 -205.940434 
L 518.521812 -199.828168 
L 515.349473 -193.859413 
L 512.177134 -188.115491 
L 509.004795 -182.662067 
L 505.832456 -177.546495 
L 502.660117 -172.795508 
L 499.487778 -168.413524 
L 496.315439 -164.381897 
L 493.1431 -160.659485 
L 489.97076 -157.184796 
L 486.798421 -153.879853 
L 483.626082 -150.655676 
L 480.453743 -147.419051 
L 477.281404 -144.080014 
L 474.109065 -140.559334 
L 470.936726 -136.795199 
L 467.764387 -132.748359 
L 464.592048 -128.40515 
L 461.419709 -123.778059 
L 458.24737 -118.903793 
L 455.07503 -113.839118 
L 451.902691 -108.655013 
L 448.730352 -103.429851 
L 445.558013 -98.242433 
L 442.385674 -93.165657 
L 439.213335 -88.261484 
L 436.040996 -83.577666 
L 432.868657 -79.146425 
L 429.696318 -74.985004 
L 426.523979 -71.097796 
L 423.35164 -67.479542 
L 420.179301 -64.119032 
L 417.006961 -61.002709 
L 413.834622 -58.117672 
L 410.662283 -55.453733 
L 407.489944 -53.004347 
L 404.317605 -50.766442 
L 401.145266 -48.739335 
L 397.972927 -46.923051 
L 394.800588 -45.316403 
L 391.628249 -43.915213 
L 388.45591 -42.710956 
L 385.283571 -41.690066 
L 382.111231 -40.833968 
L 378.938892 -40.119811 
L 375.766553 -39.521781 
L 372.594214 -39.012769 
L 369.421875 -38.566173 
L 366.249536 -38.157569 
L 363.077197 -37.766079 
L 359.904858 -37.375249 
L 356.732519 -36.973414 
L 353.56018 -36.553528 
L 350.387841 -36.112561 
L 347.215502 -35.650597 
L 344.043162 -35.169796 
L 340.870823 -34.673385 
L 337.698484 -34.164827 
L 334.526145 -33.647243 
L 331.353806 -33.123152 
L 328.181467 -32.594487 
L 325.009128 -32.062836 
L 321.836789 -31.529817 
L 318.66445 -30.99748 
L 315.492111 -30.468641 
L 312.319772 -29.947078 
L 309.147432 -29.437556 
L 305.975093 -28.945656 
L 302.802754 -28.477455 
L 299.630415 -28.039067 
L 296.458076 -27.636132 
L 293.285737 -27.273291 
L 290.113398 -26.953719 
L 286.941059 -26.678762 
L 283.76872 -26.447732 
L 280.596381 -26.257873 
L 277.424042 -26.10452 
L 274.251703 -25.981441 
L 271.079363 -25.881331 
L 267.907024 -25.796408 
L 264.734685 -25.719051 
L 261.562346 -25.642414 
L 258.390007 -25.560941 
L 255.217668 -25.47073 
L 252.045329 -25.369716 
L 248.87299 -25.257651 
L 245.700651 -25.135903 
L 242.528312 -25.007113 
L 239.355973 -24.874761 
L 236.183633 -24.742699 
L 233.011294 -24.614714 
L 229.838955 -24.494165 
L 226.666616 -24.383722 
L 223.494277 -24.285225 
L 220.321938 -24.199649 
L 217.149599 -24.127171 
L 213.97726 -24.067294 
L 210.804921 -24.019018 
L 207.632582 -23.981015 
L 204.460243 -23.951793 
L 201.287904 -23.929837 
L 198.115564 -23.913713 
L 194.943225 -23.902135 
L 191.770886 -23.894006 
z
" style="stroke: #ff7f0e; stroke-width: 2.5"/>
    </defs>
    <g clip-path="url(#p3c5b4e7593)">
     <use xlink:href="#m852bd70882" x="0" y="635.878125" style="fill: #ff7f0e; fill-opacity: 0.5; stroke: #ff7f0e; stroke-width: 2.5"/>
    </g>
   </g>
   <g id="PolyCollection_4">
    <defs>
     <path id="m89aa713093" d="M 111.970769 -23.890448 
L 111.970769 -23.878125 
L 115.650168 -23.878125 
L 119.329567 -23.878125 
L 123.008966 -23.878125 
L 126.688366 -23.878125 
L 130.367765 -23.878125 
L 134.047164 -23.878125 
L 137.726564 -23.878125 
L 141.405963 -23.878125 
L 145.085362 -23.878125 
L 148.764762 -23.878125 
L 152.444161 -23.878125 
L 156.12356 -23.878125 
L 159.802959 -23.878125 
L 163.482359 -23.878125 
L 167.161758 -23.878125 
L 170.841157 -23.878125 
L 174.520557 -23.878125 
L 178.199956 -23.878125 
L 181.879355 -23.878125 
L 185.558754 -23.878125 
L 189.238154 -23.878125 
L 192.917553 -23.878125 
L 196.596952 -23.878125 
L 200.276352 -23.878125 
L 203.955751 -23.878125 
L 207.63515 -23.878125 
L 211.314549 -23.878125 
L 214.993949 -23.878125 
L 218.673348 -23.878125 
L 222.352747 -23.878125 
L 226.032147 -23.878125 
L 229.711546 -23.878125 
L 233.390945 -23.878125 
L 237.070344 -23.878125 
L 240.749744 -23.878125 
L 244.429143 -23.878125 
L 248.108542 -23.878125 
L 251.787942 -23.878125 
L 255.467341 -23.878125 
L 259.14674 -23.878125 
L 262.826139 -23.878125 
L 266.505539 -23.878125 
L 270.184938 -23.878125 
L 273.864337 -23.878125 
L 277.543737 -23.878125 
L 281.223136 -23.878125 
L 284.902535 -23.878125 
L 288.581934 -23.878125 
L 292.261334 -23.878125 
L 295.940733 -23.878125 
L 299.620132 -23.878125 
L 303.299532 -23.878125 
L 306.978931 -23.878125 
L 310.65833 -23.878125 
L 314.337729 -23.878125 
L 318.017129 -23.878125 
L 321.696528 -23.878125 
L 325.375927 -23.878125 
L 329.055327 -23.878125 
L 332.734726 -23.878125 
L 336.414125 -23.878125 
L 340.093525 -23.878125 
L 343.772924 -23.878125 
L 347.452323 -23.878125 
L 351.131722 -23.878125 
L 354.811122 -23.878125 
L 358.490521 -23.878125 
L 362.16992 -23.878125 
L 365.84932 -23.878125 
L 369.528719 -23.878125 
L 373.208118 -23.878125 
L 376.887517 -23.878125 
L 380.566917 -23.878125 
L 384.246316 -23.878125 
L 387.925715 -23.878125 
L 391.605115 -23.878125 
L 395.284514 -23.878125 
L 398.963913 -23.878125 
L 402.643312 -23.878125 
L 406.322712 -23.878125 
L 410.002111 -23.878125 
L 413.68151 -23.878125 
L 417.36091 -23.878125 
L 421.040309 -23.878125 
L 424.719708 -23.878125 
L 428.399107 -23.878125 
L 432.078507 -23.878125 
L 435.757906 -23.878125 
L 439.437305 -23.878125 
L 443.116705 -23.878125 
L 446.796104 -23.878125 
L 450.475503 -23.878125 
L 454.154902 -23.878125 
L 457.834302 -23.878125 
L 461.513701 -23.878125 
L 465.1931 -23.878125 
L 468.8725 -23.878125 
L 472.551899 -23.878125 
L 476.231298 -23.878125 
L 479.910697 -23.878125 
L 483.590097 -23.878125 
L 487.269496 -23.878125 
L 490.948895 -23.878125 
L 494.628295 -23.878125 
L 498.307694 -23.878125 
L 501.987093 -23.878125 
L 505.666493 -23.878125 
L 509.345892 -23.878125 
L 513.025291 -23.878125 
L 516.70469 -23.878125 
L 520.38409 -23.878125 
L 524.063489 -23.878125 
L 527.742888 -23.878125 
L 531.422288 -23.878125 
L 535.101687 -23.878125 
L 538.781086 -23.878125 
L 542.460485 -23.878125 
L 546.139885 -23.878125 
L 549.819284 -23.878125 
L 553.498683 -23.878125 
L 557.178083 -23.878125 
L 560.857482 -23.878125 
L 564.536881 -23.878125 
L 568.21628 -23.878125 
L 571.89568 -23.878125 
L 575.575079 -23.878125 
L 579.254478 -23.878125 
L 582.933878 -23.878125 
L 586.613277 -23.878125 
L 590.292676 -23.878125 
L 593.972075 -23.878125 
L 597.651475 -23.878125 
L 601.330874 -23.878125 
L 605.010273 -23.878125 
L 608.689673 -23.878125 
L 612.369072 -23.878125 
L 616.048471 -23.878125 
L 619.72787 -23.878125 
L 623.40727 -23.878125 
L 627.086669 -23.878125 
L 630.766068 -23.878125 
L 634.445468 -23.878125 
L 638.124867 -23.878125 
L 641.804266 -23.878125 
L 645.483665 -23.878125 
L 649.163065 -23.878125 
L 652.842464 -23.878125 
L 656.521863 -23.878125 
L 660.201263 -23.878125 
L 663.880662 -23.878125 
L 667.560061 -23.878125 
L 671.239461 -23.878125 
L 674.91886 -23.878125 
L 678.598259 -23.878125 
L 682.277658 -23.878125 
L 685.957058 -23.878125 
L 689.636457 -23.878125 
L 693.315856 -23.878125 
L 696.995256 -23.878125 
L 700.674655 -23.878125 
L 704.354054 -23.878125 
L 708.033453 -23.878125 
L 711.712853 -23.878125 
L 715.392252 -23.878125 
L 719.071651 -23.878125 
L 722.751051 -23.878125 
L 726.43045 -23.878125 
L 730.109849 -23.878125 
L 733.789248 -23.878125 
L 737.468648 -23.878125 
L 741.148047 -23.878125 
L 744.827446 -23.878125 
L 748.506846 -23.878125 
L 752.186245 -23.878125 
L 755.865644 -23.878125 
L 759.545043 -23.878125 
L 763.224443 -23.878125 
L 766.903842 -23.878125 
L 770.583241 -23.878125 
L 774.262641 -23.878125 
L 777.94204 -23.878125 
L 781.621439 -23.878125 
L 785.300838 -23.878125 
L 788.980238 -23.878125 
L 792.659637 -23.878125 
L 796.339036 -23.878125 
L 800.018436 -23.878125 
L 803.697835 -23.878125 
L 807.377234 -23.878125 
L 811.056633 -23.878125 
L 814.736033 -23.878125 
L 818.415432 -23.878125 
L 822.094831 -23.878125 
L 825.774231 -23.878125 
L 829.45363 -23.878125 
L 833.133029 -23.878125 
L 836.812428 -23.878125 
L 840.491828 -23.878125 
L 844.171227 -23.878125 
L 844.171227 -23.895311 
L 844.171227 -23.895311 
L 840.491828 -23.903718 
L 836.812428 -23.915722 
L 833.133029 -23.932623 
L 829.45363 -23.956092 
L 825.774231 -23.988245 
L 822.094831 -24.031722 
L 818.415432 -24.089768 
L 814.736033 -24.166318 
L 811.056633 -24.266092 
L 807.377234 -24.394681 
L 803.697835 -24.558654 
L 800.018436 -24.765658 
L 796.339036 -25.024544 
L 792.659637 -25.345498 
L 788.980238 -25.740196 
L 785.300838 -26.221966 
L 781.621439 -26.805977 
L 777.94204 -27.509414 
L 774.262641 -28.351654 
L 770.583241 -29.3544 
L 766.903842 -30.541749 
L 763.224443 -31.940173 
L 759.545043 -33.57836 
L 755.865644 -35.486904 
L 752.186245 -37.697788 
L 748.506846 -40.243673 
L 744.827446 -43.156953 
L 741.148047 -46.468601 
L 737.468648 -50.206829 
L 733.789248 -54.395586 
L 730.109849 -59.052969 
L 726.43045 -64.189608 
L 722.751051 -69.807119 
L 719.071651 -75.896716 
L 715.392252 -82.438097 
L 711.712853 -89.398694 
L 708.033453 -96.733388 
L 704.354054 -104.384765 
L 700.674655 -112.283951 
L 696.995256 -120.352045 
L 693.315856 -128.502111 
L 689.636457 -136.641643 
L 685.957058 -144.675391 
L 682.277658 -152.508381 
L 678.598259 -160.048957 
L 674.91886 -167.211671 
L 671.239461 -173.919849 
L 667.560061 -180.107723 
L 663.880662 -185.722045 
L 660.201263 -190.72314 
L 656.521863 -195.085445 
L 652.842464 -198.797539 
L 649.163065 -201.861772 
L 645.483665 -204.293523 
L 641.804266 -206.120138 
L 638.124867 -207.379578 
L 634.445468 -208.118759 
L 630.766068 -208.391567 
L 627.086669 -208.256546 
L 623.40727 -207.774262 
L 619.72787 -207.004416 
L 616.048471 -206.002815 
L 612.369072 -204.818396 
L 608.689673 -203.490528 
L 605.010273 -202.04684 
L 601.330874 -200.501834 
L 597.651475 -198.856477 
L 593.972075 -197.098894 
L 590.292676 -195.206173 
L 586.613277 -193.147198 
L 582.933878 -190.886276 
L 579.254478 -188.387259 
L 575.575079 -185.617797 
L 571.89568 -182.553319 
L 568.21628 -179.180389 
L 564.536881 -175.499123 
L 560.857482 -171.524463 
L 557.178083 -167.286211 
L 553.498683 -162.827854 
L 549.819284 -158.204313 
L 546.139885 -153.478858 
L 542.460485 -148.719481 
L 538.781086 -143.995062 
L 535.101687 -139.37166 
L 531.422288 -134.909205 
L 527.742888 -130.658838 
L 524.063489 -126.661022 
L 520.38409 -122.944513 
L 516.70469 -119.526127 
L 513.025291 -116.411238 
L 509.345892 -113.594828 
L 505.666493 -111.062931 
L 501.987093 -108.794275 
L 498.307694 -106.761983 
L 494.628295 -104.935187 
L 490.948895 -103.280502 
L 487.269496 -101.763318 
L 483.590097 -100.348913 
L 479.910697 -99.003428 
L 476.231298 -97.694742 
L 472.551899 -96.393266 
L 468.8725 -95.072699 
L 465.1931 -93.710715 
L 461.513701 -92.289582 
L 457.834302 -90.796652 
L 454.154902 -89.224678 
L 450.475503 -87.571938 
L 446.796104 -85.842102 
L 443.116705 -84.043867 
L 439.437305 -82.190348 
L 435.757906 -80.298279 
L 432.078507 -78.387055 
L 428.399107 -76.477679 
L 424.719708 -74.591662 
L 421.040309 -72.749942 
L 417.36091 -70.971844 
L 413.68151 -69.274136 
L 410.002111 -67.670209 
L 406.322712 -66.1694 
L 402.643312 -64.776511 
L 398.963913 -63.491534 
L 395.284514 -62.309636 
L 391.605115 -61.221407 
L 387.925715 -60.2134 
L 384.246316 -59.26894 
L 380.566917 -58.369188 
L 376.887517 -57.49437 
L 373.208118 -56.625118 
L 369.528719 -55.743784 
L 365.84932 -54.83564 
L 362.16992 -53.889843 
L 358.490521 -52.90008 
L 354.811122 -51.86484 
L 351.131722 -50.787285 
L 347.452323 -49.674761 
L 343.772924 -48.537994 
L 340.093525 -47.390081 
L 336.414125 -46.245373 
L 332.734726 -45.118372 
L 329.055327 -44.022738 
L 325.375927 -42.97049 
L 321.696528 -41.971438 
L 318.017129 -41.03286 
L 314.337729 -40.15941 
L 310.65833 -39.353203 
L 306.978931 -38.614033 
L 303.299532 -37.939655 
L 299.620132 -37.326092 
L 295.940733 -36.767925 
L 292.261334 -36.258563 
L 288.581934 -35.790486 
L 284.902535 -35.355491 
L 281.223136 -34.94495 
L 277.543737 -34.550114 
L 273.864337 -34.162458 
L 270.184938 -33.774083 
L 266.505539 -33.378122 
L 262.826139 -32.969151 
L 259.14674 -32.543528 
L 255.467341 -32.099632 
L 251.787942 -31.637964 
L 248.108542 -31.161077 
L 244.429143 -30.673338 
L 240.749744 -30.180532 
L 237.070344 -29.689358 
L 233.390945 -29.20685 
L 229.711546 -28.739798 
L 226.032147 -28.294223 
L 222.352747 -27.87496 
L 218.673348 -27.48538 
L 214.993949 -27.127278 
L 211.314549 -26.800921 
L 207.63515 -26.505231 
L 203.955751 -26.238081 
L 200.276352 -25.996643 
L 196.596952 -25.777756 
L 192.917553 -25.578268 
L 189.238154 -25.395307 
L 185.558754 -25.226479 
L 181.879355 -25.06997 
L 178.199956 -24.924559 
L 174.520557 -24.789557 
L 170.841157 -24.664701 
L 167.161758 -24.550009 
L 163.482359 -24.445634 
L 159.802959 -24.351736 
L 156.12356 -24.268371 
L 152.444161 -24.195425 
L 148.764762 -24.132575 
L 145.085362 -24.079296 
L 141.405963 -24.034876 
L 137.726564 -23.998469 
L 134.047164 -23.96914 
L 130.367765 -23.94592 
L 126.688366 -23.927854 
L 123.008966 -23.914043 
L 119.329567 -23.903667 
L 115.650168 -23.896006 
L 111.970769 -23.890448 
z
" style="stroke: #1f77b4; stroke-width: 2.5"/>
    </defs>
    <g clip-path="url(#p3c5b4e7593)">
     <use xlink:href="#m89aa713093" x="0" y="635.878125" style="fill: #1f77b4; fill-opacity: 0.5; stroke: #1f77b4; stroke-width: 2.5"/>
    </g>
   </g>
   <g id="matplotlib.axis_3">
    <g id="xtick_8">
     <g id="line2d_15">
      <g>
       <use xlink:href="#mb9ea61fbe3" x="78.169117" y="612" style="stroke: #000000; stroke-width: 0.8"/>
      </g>
     </g>
     <g id="text_20">
      <!-- −0.4 -->
      <g transform="translate(66.027711 626.598438) scale(0.1 -0.1)">
       <use xlink:href="#DejaVuSans-2212"/>
       <use xlink:href="#DejaVuSans-30" x="83.789062"/>
       <use xlink:href="#DejaVuSans-2e" x="147.412109"/>
       <use xlink:href="#DejaVuSans-34" x="179.199219"/>
      </g>
     </g>
    </g>
    <g id="xtick_9">
     <g id="line2d_16">
      <g>
       <use xlink:href="#mb9ea61fbe3" x="196.40103" y="612" style="stroke: #000000; stroke-width: 0.8"/>
      </g>
     </g>
     <g id="text_21">
      <!-- −0.2 -->
      <g transform="translate(184.259624 626.598438) scale(0.1 -0.1)">
       <use xlink:href="#DejaVuSans-2212"/>
       <use xlink:href="#DejaVuSans-30" x="83.789062"/>
       <use xlink:href="#DejaVuSans-2e" x="147.412109"/>
       <use xlink:href="#DejaVuSans-32" x="179.199219"/>
      </g>
     </g>
    </g>
    <g id="xtick_10">
     <g id="line2d_17">
      <g>
       <use xlink:href="#mb9ea61fbe3" x="314.632943" y="612" style="stroke: #000000; stroke-width: 0.8"/>
      </g>
     </g>
     <g id="text_22">
      <!-- 0.0 -->
      <g transform="translate(306.681381 626.598438) scale(0.1 -0.1)">
       <use xlink:href="#DejaVuSans-30"/>
       <use xlink:href="#DejaVuSans-2e" x="63.623047"/>
       <use xlink:href="#DejaVuSans-30" x="95.410156"/>
      </g>
     </g>
    </g>
    <g id="xtick_11">
     <g id="line2d_18">
      <g>
       <use xlink:href="#mb9ea61fbe3" x="432.864856" y="612" style="stroke: #000000; stroke-width: 0.8"/>
      </g>
     </g>
     <g id="text_23">
      <!-- 0.2 -->
      <g transform="translate(424.913294 626.598438) scale(0.1 -0.1)">
       <use xlink:href="#DejaVuSans-30"/>
       <use xlink:href="#DejaVuSans-2e" x="63.623047"/>
       <use xlink:href="#DejaVuSans-32" x="95.410156"/>
      </g>
     </g>
    </g>
    <g id="xtick_12">
     <g id="line2d_19">
      <g>
       <use xlink:href="#mb9ea61fbe3" x="551.096769" y="612" style="stroke: #000000; stroke-width: 0.8"/>
      </g>
     </g>
     <g id="text_24">
      <!-- 0.4 -->
      <g transform="translate(543.145207 626.598438) scale(0.1 -0.1)">
       <use xlink:href="#DejaVuSans-30"/>
       <use xlink:href="#DejaVuSans-2e" x="63.623047"/>
       <use xlink:href="#DejaVuSans-34" x="95.410156"/>
      </g>
     </g>
    </g>
    <g id="xtick_13">
     <g id="line2d_20">
      <g>
       <use xlink:href="#mb9ea61fbe3" x="669.328682" y="612" style="stroke: #000000; stroke-width: 0.8"/>
      </g>
     </g>
     <g id="text_25">
      <!-- 0.6 -->
      <g transform="translate(661.37712 626.598438) scale(0.1 -0.1)">
       <use xlink:href="#DejaVuSans-30"/>
       <use xlink:href="#DejaVuSans-2e" x="63.623047"/>
       <use xlink:href="#DejaVuSans-36" x="95.410156"/>
      </g>
     </g>
    </g>
    <g id="xtick_14">
     <g id="line2d_21">
      <g>
       <use xlink:href="#mb9ea61fbe3" x="787.560595" y="612" style="stroke: #000000; stroke-width: 0.8"/>
      </g>
     </g>
     <g id="text_26">
      <!-- 0.8 -->
      <g transform="translate(779.609033 626.598438) scale(0.1 -0.1)">
       <use xlink:href="#DejaVuSans-30"/>
       <use xlink:href="#DejaVuSans-2e" x="63.623047"/>
       <use xlink:href="#DejaVuSans-38" x="95.410156"/>
      </g>
     </g>
    </g>
   </g>
   <g id="matplotlib.axis_4">
    <g id="ytick_8">
     <g id="line2d_22">
      <g>
       <use xlink:href="#mcb08cd87a2" x="43.78125" y="612" style="stroke: #000000; stroke-width: 0.8"/>
      </g>
     </g>
     <g id="text_27">
      <!-- 0.0 -->
      <g transform="translate(20.878125 615.799219) scale(0.1 -0.1)">
       <use xlink:href="#DejaVuSans-30"/>
       <use xlink:href="#DejaVuSans-2e" x="63.623047"/>
       <use xlink:href="#DejaVuSans-30" x="95.410156"/>
      </g>
     </g>
    </g>
    <g id="ytick_9">
     <g id="line2d_23">
      <g>
       <use xlink:href="#mcb08cd87a2" x="43.78125" y="576.846295" style="stroke: #000000; stroke-width: 0.8"/>
      </g>
     </g>
     <g id="text_28">
      <!-- 0.5 -->
      <g transform="translate(20.878125 580.645514) scale(0.1 -0.1)">
       <use xlink:href="#DejaVuSans-30"/>
       <use xlink:href="#DejaVuSans-2e" x="63.623047"/>
       <use xlink:href="#DejaVuSans-35" x="95.410156"/>
      </g>
     </g>
    </g>
    <g id="ytick_10">
     <g id="line2d_24">
      <g>
       <use xlink:href="#mcb08cd87a2" x="43.78125" y="541.69259" style="stroke: #000000; stroke-width: 0.8"/>
      </g>
     </g>
     <g id="text_29">
      <!-- 1.0 -->
      <g transform="translate(20.878125 545.491809) scale(0.1 -0.1)">
       <use xlink:href="#DejaVuSans-31"/>
       <use xlink:href="#DejaVuSans-2e" x="63.623047"/>
       <use xlink:href="#DejaVuSans-30" x="95.410156"/>
      </g>
     </g>
    </g>
    <g id="ytick_11">
     <g id="line2d_25">
      <g>
       <use xlink:href="#mcb08cd87a2" x="43.78125" y="506.538886" style="stroke: #000000; stroke-width: 0.8"/>
      </g>
     </g>
     <g id="text_30">
      <!-- 1.5 -->
      <g transform="translate(20.878125 510.338104) scale(0.1 -0.1)">
       <use xlink:href="#DejaVuSans-31"/>
       <use xlink:href="#DejaVuSans-2e" x="63.623047"/>
       <use xlink:href="#DejaVuSans-35" x="95.410156"/>
      </g>
     </g>
    </g>
    <g id="ytick_12">
     <g id="line2d_26">
      <g>
       <use xlink:href="#mcb08cd87a2" x="43.78125" y="471.385181" style="stroke: #000000; stroke-width: 0.8"/>
      </g>
     </g>
     <g id="text_31">
      <!-- 2.0 -->
      <g transform="translate(20.878125 475.1844) scale(0.1 -0.1)">
       <use xlink:href="#DejaVuSans-32"/>
       <use xlink:href="#DejaVuSans-2e" x="63.623047"/>
       <use xlink:href="#DejaVuSans-30" x="95.410156"/>
      </g>
     </g>
    </g>
    <g id="ytick_13">
     <g id="line2d_27">
      <g>
       <use xlink:href="#mcb08cd87a2" x="43.78125" y="436.231476" style="stroke: #000000; stroke-width: 0.8"/>
      </g>
     </g>
     <g id="text_32">
      <!-- 2.5 -->
      <g transform="translate(20.878125 440.030695) scale(0.1 -0.1)">
       <use xlink:href="#DejaVuSans-32"/>
       <use xlink:href="#DejaVuSans-2e" x="63.623047"/>
       <use xlink:href="#DejaVuSans-35" x="95.410156"/>
      </g>
     </g>
    </g>
    <g id="ytick_14">
     <g id="line2d_28">
      <g>
       <use xlink:href="#mcb08cd87a2" x="43.78125" y="401.077771" style="stroke: #000000; stroke-width: 0.8"/>
      </g>
     </g>
     <g id="text_33">
      <!-- 3.0 -->
      <g transform="translate(20.878125 404.87699) scale(0.1 -0.1)">
       <use xlink:href="#DejaVuSans-33"/>
       <use xlink:href="#DejaVuSans-2e" x="63.623047"/>
       <use xlink:href="#DejaVuSans-30" x="95.410156"/>
      </g>
     </g>
    </g>
    <g id="text_34">
     <!-- Density -->
     <g transform="translate(14.798438 510.486855) rotate(-90) scale(0.1 -0.1)">
      <use xlink:href="#DejaVuSans-44"/>
      <use xlink:href="#DejaVuSans-65" x="77.001953"/>
      <use xlink:href="#DejaVuSans-6e" x="138.525391"/>
      <use xlink:href="#DejaVuSans-73" x="201.904297"/>
      <use xlink:href="#DejaVuSans-69" x="254.003906"/>
      <use xlink:href="#DejaVuSans-74" x="281.787109"/>
      <use xlink:href="#DejaVuSans-79" x="320.996094"/>
     </g>
    </g>
   </g>
   <g id="patch_11">
    <path d="M 43.78125 612 
L 43.78125 370.956522 
" style="fill: none; stroke: #000000; stroke-width: 0.8; stroke-linejoin: miter; stroke-linecap: square"/>
   </g>
   <g id="patch_12">
    <path d="M 880.78125 612 
L 880.78125 370.956522 
" style="fill: none; stroke: #000000; stroke-width: 0.8; stroke-linejoin: miter; stroke-linecap: square"/>
   </g>
   <g id="patch_13">
    <path d="M 43.78125 612 
L 880.78125 612 
" style="fill: none; stroke: #000000; stroke-width: 0.8; stroke-linejoin: miter; stroke-linecap: square"/>
   </g>
   <g id="patch_14">
    <path d="M 43.78125 370.956522 
L 880.78125 370.956522 
" style="fill: none; stroke: #000000; stroke-width: 0.8; stroke-linejoin: miter; stroke-linecap: square"/>
   </g>
   <g id="text_35">
    <!-- Spearman correlation coefficients -->
    <g transform="translate(361.111875 364.956522) scale(0.12 -0.12)">
     <defs>
      <path id="DejaVuSans-53" d="M 3425 4513 
L 3425 3897 
Q 3066 4069 2747 4153 
Q 2428 4238 2131 4238 
Q 1616 4238 1336 4038 
Q 1056 3838 1056 3469 
Q 1056 3159 1242 3001 
Q 1428 2844 1947 2747 
L 2328 2669 
Q 3034 2534 3370 2195 
Q 3706 1856 3706 1288 
Q 3706 609 3251 259 
Q 2797 -91 1919 -91 
Q 1588 -91 1214 -16 
Q 841 59 441 206 
L 441 856 
Q 825 641 1194 531 
Q 1563 422 1919 422 
Q 2459 422 2753 634 
Q 3047 847 3047 1241 
Q 3047 1584 2836 1778 
Q 2625 1972 2144 2069 
L 1759 2144 
Q 1053 2284 737 2584 
Q 422 2884 422 3419 
Q 422 4038 858 4394 
Q 1294 4750 2059 4750 
Q 2388 4750 2728 4690 
Q 3069 4631 3425 4513 
z
" transform="scale(0.015625)"/>
      <path id="DejaVuSans-6d" d="M 3328 2828 
Q 3544 3216 3844 3400 
Q 4144 3584 4550 3584 
Q 5097 3584 5394 3201 
Q 5691 2819 5691 2113 
L 5691 0 
L 5113 0 
L 5113 2094 
Q 5113 2597 4934 2840 
Q 4756 3084 4391 3084 
Q 3944 3084 3684 2787 
Q 3425 2491 3425 1978 
L 3425 0 
L 2847 0 
L 2847 2094 
Q 2847 2600 2669 2842 
Q 2491 3084 2119 3084 
Q 1678 3084 1418 2786 
Q 1159 2488 1159 1978 
L 1159 0 
L 581 0 
L 581 3500 
L 1159 3500 
L 1159 2956 
Q 1356 3278 1631 3431 
Q 1906 3584 2284 3584 
Q 2666 3584 2933 3390 
Q 3200 3197 3328 2828 
z
" transform="scale(0.015625)"/>
     </defs>
     <use xlink:href="#DejaVuSans-53"/>
     <use xlink:href="#DejaVuSans-70" x="63.476562"/>
     <use xlink:href="#DejaVuSans-65" x="126.953125"/>
     <use xlink:href="#DejaVuSans-61" x="188.476562"/>
     <use xlink:href="#DejaVuSans-72" x="249.755859"/>
     <use xlink:href="#DejaVuSans-6d" x="289.119141"/>
     <use xlink:href="#DejaVuSans-61" x="386.53125"/>
     <use xlink:href="#DejaVuSans-6e" x="447.810547"/>
     <use xlink:href="#DejaVuSans-20" x="511.189453"/>
     <use xlink:href="#DejaVuSans-63" x="542.976562"/>
     <use xlink:href="#DejaVuSans-6f" x="597.957031"/>
     <use xlink:href="#DejaVuSans-72" x="659.138672"/>
     <use xlink:href="#DejaVuSans-72" x="698.501953"/>
     <use xlink:href="#DejaVuSans-65" x="737.365234"/>
     <use xlink:href="#DejaVuSans-6c" x="798.888672"/>
     <use xlink:href="#DejaVuSans-61" x="826.671875"/>
     <use xlink:href="#DejaVuSans-74" x="887.951172"/>
     <use xlink:href="#DejaVuSans-69" x="927.160156"/>
     <use xlink:href="#DejaVuSans-6f" x="954.943359"/>
     <use xlink:href="#DejaVuSans-6e" x="1016.125"/>
     <use xlink:href="#DejaVuSans-20" x="1079.503906"/>
     <use xlink:href="#DejaVuSans-63" x="1111.291016"/>
     <use xlink:href="#DejaVuSans-6f" x="1166.271484"/>
     <use xlink:href="#DejaVuSans-65" x="1227.453125"/>
     <use xlink:href="#DejaVuSans-66" x="1288.976562"/>
     <use xlink:href="#DejaVuSans-66" x="1324.181641"/>
     <use xlink:href="#DejaVuSans-69" x="1359.386719"/>
     <use xlink:href="#DejaVuSans-63" x="1387.169922"/>
     <use xlink:href="#DejaVuSans-69" x="1442.150391"/>
     <use xlink:href="#DejaVuSans-65" x="1469.933594"/>
     <use xlink:href="#DejaVuSans-6e" x="1531.457031"/>
     <use xlink:href="#DejaVuSans-74" x="1594.835938"/>
     <use xlink:href="#DejaVuSans-73" x="1634.044922"/>
    </g>
   </g>
   <g id="legend_2">
    <g id="patch_15">
     <path d="M 50.78125 422.990897 
L 138.80625 422.990897 
Q 140.80625 422.990897 140.80625 420.990897 
L 140.80625 377.956522 
Q 140.80625 375.956522 138.80625 375.956522 
L 50.78125 375.956522 
Q 48.78125 375.956522 48.78125 377.956522 
L 48.78125 420.990897 
Q 48.78125 422.990897 50.78125 422.990897 
z
" style="fill: #ffffff; opacity: 0.8; stroke: #cccccc; stroke-linejoin: miter"/>
    </g>
    <g id="text_36">
     <!-- Correlation type: -->
     <g transform="translate(52.78125 387.554959) scale(0.1 -0.1)">
      <use xlink:href="#DejaVuSans-43"/>
      <use xlink:href="#DejaVuSans-6f" x="69.824219"/>
      <use xlink:href="#DejaVuSans-72" x="131.005859"/>
      <use xlink:href="#DejaVuSans-72" x="170.369141"/>
      <use xlink:href="#DejaVuSans-65" x="209.232422"/>
      <use xlink:href="#DejaVuSans-6c" x="270.755859"/>
      <use xlink:href="#DejaVuSans-61" x="298.539062"/>
      <use xlink:href="#DejaVuSans-74" x="359.818359"/>
      <use xlink:href="#DejaVuSans-69" x="399.027344"/>
      <use xlink:href="#DejaVuSans-6f" x="426.810547"/>
      <use xlink:href="#DejaVuSans-6e" x="487.992188"/>
      <use xlink:href="#DejaVuSans-20" x="551.371094"/>
      <use xlink:href="#DejaVuSans-74" x="583.158203"/>
      <use xlink:href="#DejaVuSans-79" x="622.367188"/>
      <use xlink:href="#DejaVuSans-70" x="681.546875"/>
      <use xlink:href="#DejaVuSans-65" x="745.023438"/>
      <use xlink:href="#DejaVuSans-3a" x="806.546875"/>
     </g>
    </g>
    <g id="patch_16">
     <path d="M 53.285156 402.233084 
L 73.285156 402.233084 
L 73.285156 395.233084 
L 53.285156 395.233084 
z
" style="fill: #1f77b4; fill-opacity: 0.5; stroke: #1f77b4; stroke-width: 2.5; stroke-linejoin: miter"/>
    </g>
    <g id="text_37">
     <!-- Codon -->
     <g transform="translate(81.285156 402.233084) scale(0.1 -0.1)">
      <use xlink:href="#DejaVuSans-43"/>
      <use xlink:href="#DejaVuSans-6f" x="69.824219"/>
      <use xlink:href="#DejaVuSans-64" x="131.005859"/>
      <use xlink:href="#DejaVuSans-6f" x="194.482422"/>
      <use xlink:href="#DejaVuSans-6e" x="255.664062"/>
     </g>
    </g>
    <g id="patch_17">
     <path d="M 53.285156 416.911209 
L 73.285156 416.911209 
L 73.285156 409.911209 
L 53.285156 409.911209 
z
" style="fill: #ff7f0e; fill-opacity: 0.5; stroke: #ff7f0e; stroke-width: 2.5; stroke-linejoin: miter"/>
    </g>
    <g id="text_38">
     <!-- Codon+GC -->
     <g transform="translate(81.285156 416.911209) scale(0.1 -0.1)">
      <use xlink:href="#DejaVuSans-43"/>
      <use xlink:href="#DejaVuSans-6f" x="69.824219"/>
      <use xlink:href="#DejaVuSans-64" x="131.005859"/>
      <use xlink:href="#DejaVuSans-6f" x="194.482422"/>
      <use xlink:href="#DejaVuSans-6e" x="255.664062"/>
      <use xlink:href="#DejaVuSans-2b" x="319.042969"/>
      <use xlink:href="#DejaVuSans-47" x="402.832031"/>
      <use xlink:href="#DejaVuSans-43" x="480.322266"/>
     </g>
    </g>
   </g>
  </g>
  <g id="text_39">
   <!-- Eukaryota - Density of correlation coefficients for genetic code: Yeast mitochondrial -->
   <g transform="translate(134.984766 18.597656) scale(0.15 -0.15)">
    <defs>
     <path id="DejaVuSans-45" d="M 628 4666 
L 3578 4666 
L 3578 4134 
L 1259 4134 
L 1259 2753 
L 3481 2753 
L 3481 2222 
L 1259 2222 
L 1259 531 
L 3634 531 
L 3634 0 
L 628 0 
L 628 4666 
z
" transform="scale(0.015625)"/>
     <path id="DejaVuSans-75" d="M 544 1381 
L 544 3500 
L 1119 3500 
L 1119 1403 
Q 1119 906 1312 657 
Q 1506 409 1894 409 
Q 2359 409 2629 706 
Q 2900 1003 2900 1516 
L 2900 3500 
L 3475 3500 
L 3475 0 
L 2900 0 
L 2900 538 
Q 2691 219 2414 64 
Q 2138 -91 1772 -91 
Q 1169 -91 856 284 
Q 544 659 544 1381 
z
M 1991 3584 
L 1991 3584 
z
" transform="scale(0.015625)"/>
     <path id="DejaVuSans-6b" d="M 581 4863 
L 1159 4863 
L 1159 1991 
L 2875 3500 
L 3609 3500 
L 1753 1863 
L 3688 0 
L 2938 0 
L 1159 1709 
L 1159 0 
L 581 0 
L 581 4863 
z
" transform="scale(0.015625)"/>
     <path id="DejaVuSans-2d" d="M 313 2009 
L 1997 2009 
L 1997 1497 
L 313 1497 
L 313 2009 
z
" transform="scale(0.015625)"/>
     <path id="DejaVuSans-67" d="M 2906 1791 
Q 2906 2416 2648 2759 
Q 2391 3103 1925 3103 
Q 1463 3103 1205 2759 
Q 947 2416 947 1791 
Q 947 1169 1205 825 
Q 1463 481 1925 481 
Q 2391 481 2648 825 
Q 2906 1169 2906 1791 
z
M 3481 434 
Q 3481 -459 3084 -895 
Q 2688 -1331 1869 -1331 
Q 1566 -1331 1297 -1286 
Q 1028 -1241 775 -1147 
L 775 -588 
Q 1028 -725 1275 -790 
Q 1522 -856 1778 -856 
Q 2344 -856 2625 -561 
Q 2906 -266 2906 331 
L 2906 616 
Q 2728 306 2450 153 
Q 2172 0 1784 0 
Q 1141 0 747 490 
Q 353 981 353 1791 
Q 353 2603 747 3093 
Q 1141 3584 1784 3584 
Q 2172 3584 2450 3431 
Q 2728 3278 2906 2969 
L 2906 3500 
L 3481 3500 
L 3481 434 
z
" transform="scale(0.015625)"/>
     <path id="DejaVuSans-59" d="M -13 4666 
L 666 4666 
L 1959 2747 
L 3244 4666 
L 3922 4666 
L 2272 2222 
L 2272 0 
L 1638 0 
L 1638 2222 
L -13 4666 
z
" transform="scale(0.015625)"/>
     <path id="DejaVuSans-68" d="M 3513 2113 
L 3513 0 
L 2938 0 
L 2938 2094 
Q 2938 2591 2744 2837 
Q 2550 3084 2163 3084 
Q 1697 3084 1428 2787 
Q 1159 2491 1159 1978 
L 1159 0 
L 581 0 
L 581 4863 
L 1159 4863 
L 1159 2956 
Q 1366 3272 1645 3428 
Q 1925 3584 2291 3584 
Q 2894 3584 3203 3211 
Q 3513 2838 3513 2113 
z
" transform="scale(0.015625)"/>
    </defs>
    <use xlink:href="#DejaVuSans-45"/>
    <use xlink:href="#DejaVuSans-75" x="63.183594"/>
    <use xlink:href="#DejaVuSans-6b" x="126.5625"/>
    <use xlink:href="#DejaVuSans-61" x="182.722656"/>
    <use xlink:href="#DejaVuSans-72" x="244.001953"/>
    <use xlink:href="#DejaVuSans-79" x="285.115234"/>
    <use xlink:href="#DejaVuSans-6f" x="344.294922"/>
    <use xlink:href="#DejaVuSans-74" x="405.476562"/>
    <use xlink:href="#DejaVuSans-61" x="444.685547"/>
    <use xlink:href="#DejaVuSans-20" x="505.964844"/>
    <use xlink:href="#DejaVuSans-2d" x="537.751953"/>
    <use xlink:href="#DejaVuSans-20" x="573.835938"/>
    <use xlink:href="#DejaVuSans-44" x="605.623047"/>
    <use xlink:href="#DejaVuSans-65" x="682.625"/>
    <use xlink:href="#DejaVuSans-6e" x="744.148438"/>
    <use xlink:href="#DejaVuSans-73" x="807.527344"/>
    <use xlink:href="#DejaVuSans-69" x="859.626953"/>
    <use xlink:href="#DejaVuSans-74" x="887.410156"/>
    <use xlink:href="#DejaVuSans-79" x="926.619141"/>
    <use xlink:href="#DejaVuSans-20" x="985.798828"/>
    <use xlink:href="#DejaVuSans-6f" x="1017.585938"/>
    <use xlink:href="#DejaVuSans-66" x="1078.767578"/>
    <use xlink:href="#DejaVuSans-20" x="1113.972656"/>
    <use xlink:href="#DejaVuSans-63" x="1145.759766"/>
    <use xlink:href="#DejaVuSans-6f" x="1200.740234"/>
    <use xlink:href="#DejaVuSans-72" x="1261.921875"/>
    <use xlink:href="#DejaVuSans-72" x="1301.285156"/>
    <use xlink:href="#DejaVuSans-65" x="1340.148438"/>
    <use xlink:href="#DejaVuSans-6c" x="1401.671875"/>
    <use xlink:href="#DejaVuSans-61" x="1429.455078"/>
    <use xlink:href="#DejaVuSans-74" x="1490.734375"/>
    <use xlink:href="#DejaVuSans-69" x="1529.943359"/>
    <use xlink:href="#DejaVuSans-6f" x="1557.726562"/>
    <use xlink:href="#DejaVuSans-6e" x="1618.908203"/>
    <use xlink:href="#DejaVuSans-20" x="1682.287109"/>
    <use xlink:href="#DejaVuSans-63" x="1714.074219"/>
    <use xlink:href="#DejaVuSans-6f" x="1769.054688"/>
    <use xlink:href="#DejaVuSans-65" x="1830.236328"/>
    <use xlink:href="#DejaVuSans-66" x="1891.759766"/>
    <use xlink:href="#DejaVuSans-66" x="1926.964844"/>
    <use xlink:href="#DejaVuSans-69" x="1962.169922"/>
    <use xlink:href="#DejaVuSans-63" x="1989.953125"/>
    <use xlink:href="#DejaVuSans-69" x="2044.933594"/>
    <use xlink:href="#DejaVuSans-65" x="2072.716797"/>
    <use xlink:href="#DejaVuSans-6e" x="2134.240234"/>
    <use xlink:href="#DejaVuSans-74" x="2197.619141"/>
    <use xlink:href="#DejaVuSans-73" x="2236.828125"/>
    <use xlink:href="#DejaVuSans-20" x="2288.927734"/>
    <use xlink:href="#DejaVuSans-66" x="2320.714844"/>
    <use xlink:href="#DejaVuSans-6f" x="2355.919922"/>
    <use xlink:href="#DejaVuSans-72" x="2417.101562"/>
    <use xlink:href="#DejaVuSans-20" x="2458.214844"/>
    <use xlink:href="#DejaVuSans-67" x="2490.001953"/>
    <use xlink:href="#DejaVuSans-65" x="2553.478516"/>
    <use xlink:href="#DejaVuSans-6e" x="2615.001953"/>
    <use xlink:href="#DejaVuSans-65" x="2678.380859"/>
    <use xlink:href="#DejaVuSans-74" x="2739.904297"/>
    <use xlink:href="#DejaVuSans-69" x="2779.113281"/>
    <use xlink:href="#DejaVuSans-63" x="2806.896484"/>
    <use xlink:href="#DejaVuSans-20" x="2861.876953"/>
    <use xlink:href="#DejaVuSans-63" x="2893.664062"/>
    <use xlink:href="#DejaVuSans-6f" x="2948.644531"/>
    <use xlink:href="#DejaVuSans-64" x="3009.826172"/>
    <use xlink:href="#DejaVuSans-65" x="3073.302734"/>
    <use xlink:href="#DejaVuSans-3a" x="3134.826172"/>
    <use xlink:href="#DejaVuSans-20" x="3168.517578"/>
    <use xlink:href="#DejaVuSans-59" x="3200.304688"/>
    <use xlink:href="#DejaVuSans-65" x="3248.138672"/>
    <use xlink:href="#DejaVuSans-61" x="3309.662109"/>
    <use xlink:href="#DejaVuSans-73" x="3370.941406"/>
    <use xlink:href="#DejaVuSans-74" x="3423.041016"/>
    <use xlink:href="#DejaVuSans-20" x="3462.25"/>
    <use xlink:href="#DejaVuSans-6d" x="3494.037109"/>
    <use xlink:href="#DejaVuSans-69" x="3591.449219"/>
    <use xlink:href="#DejaVuSans-74" x="3619.232422"/>
    <use xlink:href="#DejaVuSans-6f" x="3658.441406"/>
    <use xlink:href="#DejaVuSans-63" x="3719.623047"/>
    <use xlink:href="#DejaVuSans-68" x="3774.603516"/>
    <use xlink:href="#DejaVuSans-6f" x="3837.982422"/>
    <use xlink:href="#DejaVuSans-6e" x="3899.164062"/>
    <use xlink:href="#DejaVuSans-64" x="3962.542969"/>
    <use xlink:href="#DejaVuSans-72" x="4026.019531"/>
    <use xlink:href="#DejaVuSans-69" x="4067.132812"/>
    <use xlink:href="#DejaVuSans-61" x="4094.916016"/>
    <use xlink:href="#DejaVuSans-6c" x="4156.195312"/>
   </g>
  </g>
 </g>
 <defs>
  <clipPath id="p4812bdc572">
   <rect x="43.78125" y="57.6" width="837" height="241.043478"/>
  </clipPath>
  <clipPath id="p3c5b4e7593">
   <rect x="43.78125" y="370.956522" width="837" height="241.043478"/>
  </clipPath>
 </defs>
</svg>
