<?xml version="1.0" encoding="utf-8" standalone="no"?>
<!DOCTYPE svg PUBLIC "-//W3C//DTD SVG 1.1//EN"
  "http://www.w3.org/Graphics/SVG/1.1/DTD/svg11.dtd">
<svg xmlns:xlink="http://www.w3.org/1999/xlink" width="984.45625pt" height="680.422917pt" viewBox="0 0 984.45625 680.422917" xmlns="http://www.w3.org/2000/svg" version="1.1">
 <metadata>
  <rdf:RDF xmlns:dc="http://purl.org/dc/elements/1.1/" xmlns:cc="http://creativecommons.org/ns#" xmlns:rdf="http://www.w3.org/1999/02/22-rdf-syntax-ns#">
   <cc:Work>
    <dc:type rdf:resource="http://purl.org/dc/dcmitype/StillImage"/>
    <dc:date>2025-02-07T10:52:49.394034</dc:date>
    <dc:format>image/svg+xml</dc:format>
    <dc:creator>
     <cc:Agent>
      <dc:title>Matplotlib v3.6.3, https://matplotlib.org/</dc:title>
     </cc:Agent>
    </dc:creator>
   </cc:Work>
  </rdf:RDF>
 </metadata>
 <defs>
  <style type="text/css">*{stroke-linejoin: round; stroke-linecap: butt}</style>
 </defs>
 <g id="figure_1">
  <g id="patch_1">
   <path d="M 0 680.422917 
L 984.45625 680.422917 
L 984.45625 0 
L 0 0 
z
" style="fill: #ffffff"/>
  </g>
  <g id="axes_1">
   <g id="patch_2">
    <path d="M 43.78125 642.866667 
L 817.231964 642.866667 
L 817.231964 151.965714 
L 43.78125 151.965714 
z
" style="fill: #ffffff"/>
   </g>
   <g id="PathCollection_1">
    <defs>
     <path id="me5a016f053" d="M 0 3 
C 0.795609 3 1.55874 2.683901 2.12132 2.12132 
C 2.683901 1.55874 3 0.795609 3 0 
C 3 -0.795609 2.683901 -1.55874 2.12132 -2.12132 
C 1.55874 -2.683901 0.795609 -3 0 -3 
C -0.795609 -3 -1.55874 -2.683901 -2.12132 -2.12132 
C -2.683901 -1.55874 -3 -0.795609 -3 0 
C -3 0.795609 -2.683901 1.55874 -2.12132 2.12132 
C -1.55874 2.683901 -0.795609 3 0 3 
z
" style="stroke: #000000; stroke-opacity: 0.5"/>
    </defs>
    <g clip-path="url(#p654c3c6e0f)">
     <use xlink:href="#me5a016f053" x="342.846231" y="452.130076" style="fill: #4169e1; fill-opacity: 0.5; stroke: #000000; stroke-opacity: 0.5"/>
     <use xlink:href="#me5a016f053" x="368.895453" y="300.163389" style="fill: #4169e1; fill-opacity: 0.5; stroke: #000000; stroke-opacity: 0.5"/>
     <use xlink:href="#me5a016f053" x="380.076906" y="320.682098" style="fill: #4169e1; fill-opacity: 0.5; stroke: #000000; stroke-opacity: 0.5"/>
     <use xlink:href="#me5a016f053" x="379.644972" y="432.252577" style="fill: #4169e1; fill-opacity: 0.5; stroke: #000000; stroke-opacity: 0.5"/>
     <use xlink:href="#me5a016f053" x="408.620871" y="354.025" style="fill: #4169e1; fill-opacity: 0.5; stroke: #000000; stroke-opacity: 0.5"/>
     <use xlink:href="#me5a016f053" x="317.633689" y="416.222335" style="fill: #4169e1; fill-opacity: 0.5; stroke: #000000; stroke-opacity: 0.5"/>
     <use xlink:href="#me5a016f053" x="419.357518" y="404.680562" style="fill: #4169e1; fill-opacity: 0.5; stroke: #000000; stroke-opacity: 0.5"/>
     <use xlink:href="#me5a016f053" x="389.340914" y="366.849193" style="fill: #4169e1; fill-opacity: 0.5; stroke: #000000; stroke-opacity: 0.5"/>
     <use xlink:href="#me5a016f053" x="602.415657" y="250.790247" style="fill: #4169e1; fill-opacity: 0.5; stroke: #000000; stroke-opacity: 0.5"/>
     <use xlink:href="#me5a016f053" x="196.891875" y="588.392458" style="fill: #4169e1; fill-opacity: 0.5; stroke: #000000; stroke-opacity: 0.5"/>
     <use xlink:href="#me5a016f053" x="271.166585" y="475.385533" style="fill: #4169e1; fill-opacity: 0.5; stroke: #000000; stroke-opacity: 0.5"/>
     <use xlink:href="#me5a016f053" x="432.925299" y="337.994759" style="fill: #4169e1; fill-opacity: 0.5; stroke: #000000; stroke-opacity: 0.5"/>
     <use xlink:href="#me5a016f053" x="333.356849" y="397.477722" style="fill: #4169e1; fill-opacity: 0.5; stroke: #000000; stroke-opacity: 0.5"/>
     <use xlink:href="#me5a016f053" x="363.272853" y="488.037816" style="fill: #4169e1; fill-opacity: 0.5; stroke: #000000; stroke-opacity: 0.5"/>
     <use xlink:href="#me5a016f053" x="411.373988" y="500.862009" style="fill: #4169e1; fill-opacity: 0.5; stroke: #000000; stroke-opacity: 0.5"/>
     <use xlink:href="#me5a016f053" x="365.75493" y="284.774358" style="fill: #4169e1; fill-opacity: 0.5; stroke: #000000; stroke-opacity: 0.5"/>
     <use xlink:href="#me5a016f053" x="345.140675" y="408.52782" style="fill: #4169e1; fill-opacity: 0.5; stroke: #000000; stroke-opacity: 0.5"/>
     <use xlink:href="#me5a016f053" x="476.909403" y="362.360725" style="fill: #4169e1; fill-opacity: 0.5; stroke: #000000; stroke-opacity: 0.5"/>
     <use xlink:href="#me5a016f053" x="341.56926" y="366.207983" style="fill: #4169e1; fill-opacity: 0.5; stroke: #000000; stroke-opacity: 0.5"/>
     <use xlink:href="#me5a016f053" x="382.434037" y="556.647248" style="fill: #4169e1; fill-opacity: 0.5; stroke: #000000; stroke-opacity: 0.5"/>
     <use xlink:href="#me5a016f053" x="418.420488" y="288.621616" style="fill: #4169e1; fill-opacity: 0.5; stroke: #000000; stroke-opacity: 0.5"/>
     <use xlink:href="#me5a016f053" x="384.820368" y="272.591375" style="fill: #4169e1; fill-opacity: 0.5; stroke: #000000; stroke-opacity: 0.5"/>
     <use xlink:href="#me5a016f053" x="370.885977" y="348.254113" style="fill: #4169e1; fill-opacity: 0.5; stroke: #000000; stroke-opacity: 0.5"/>
     <use xlink:href="#me5a016f053" x="389.261422" y="479.702091" style="fill: #4169e1; fill-opacity: 0.5; stroke: #000000; stroke-opacity: 0.5"/>
     <use xlink:href="#me5a016f053" x="563.124013" y="212.958877" style="fill: #4169e1; fill-opacity: 0.5; stroke: #000000; stroke-opacity: 0.5"/>
     <use xlink:href="#me5a016f053" x="395.439242" y="355.307419" style="fill: #4169e1; fill-opacity: 0.5; stroke: #000000; stroke-opacity: 0.5"/>
     <use xlink:href="#me5a016f053" x="407.458966" y="357.231048" style="fill: #4169e1; fill-opacity: 0.5; stroke: #000000; stroke-opacity: 0.5"/>
     <use xlink:href="#me5a016f053" x="194.444435" y="347.342764" style="fill: #4169e1; fill-opacity: 0.5; stroke: #000000; stroke-opacity: 0.5"/>
     <use xlink:href="#me5a016f053" x="468.142657" y="399.550885" style="fill: #4169e1; fill-opacity: 0.5; stroke: #000000; stroke-opacity: 0.5"/>
     <use xlink:href="#me5a016f053" x="370.81006" y="286.056777" style="fill: #4169e1; fill-opacity: 0.5; stroke: #000000; stroke-opacity: 0.5"/>
     <use xlink:href="#me5a016f053" x="782.075114" y="419.409439" style="fill: #4169e1; fill-opacity: 0.5; stroke: #000000; stroke-opacity: 0.5"/>
     <use xlink:href="#me5a016f053" x="78.938101" y="402.115723" style="fill: #4169e1; fill-opacity: 0.5; stroke: #000000; stroke-opacity: 0.5"/>
     <use xlink:href="#me5a016f053" x="395.331086" y="330.941452" style="fill: #4169e1; fill-opacity: 0.5; stroke: #000000; stroke-opacity: 0.5"/>
     <use xlink:href="#me5a016f053" x="411.825114" y="452.130076" style="fill: #4169e1; fill-opacity: 0.5; stroke: #000000; stroke-opacity: 0.5"/>
     <use xlink:href="#me5a016f053" x="384.217237" y="367.490402" style="fill: #4169e1; fill-opacity: 0.5; stroke: #000000; stroke-opacity: 0.5"/>
     <use xlink:href="#me5a016f053" x="431.749635" y="346.330484" style="fill: #4169e1; fill-opacity: 0.5; stroke: #000000; stroke-opacity: 0.5"/>
     <use xlink:href="#me5a016f053" x="355.551936" y="461.74822" style="fill: #4169e1; fill-opacity: 0.5; stroke: #000000; stroke-opacity: 0.5"/>
     <use xlink:href="#me5a016f053" x="433.130842" y="357.872258" style="fill: #4169e1; fill-opacity: 0.5; stroke: #000000; stroke-opacity: 0.5"/>
     <use xlink:href="#me5a016f053" x="413.718106" y="272.591375" style="fill: #4169e1; fill-opacity: 0.5; stroke: #000000; stroke-opacity: 0.5"/>
     <use xlink:href="#me5a016f053" x="191.984011" y="437.3652" style="fill: #4169e1; fill-opacity: 0.5; stroke: #000000; stroke-opacity: 0.5"/>
     <use xlink:href="#me5a016f053" x="299.60158" y="393.138788" style="fill: #4169e1; fill-opacity: 0.5; stroke: #000000; stroke-opacity: 0.5"/>
     <use xlink:href="#me5a016f053" x="304.114161" y="390.57395" style="fill: #4169e1; fill-opacity: 0.5; stroke: #000000; stroke-opacity: 0.5"/>
     <use xlink:href="#me5a016f053" x="400.342233" y="250.790247" style="fill: #4169e1; fill-opacity: 0.5; stroke: #000000; stroke-opacity: 0.5"/>
     <use xlink:href="#me5a016f053" x="396.987113" y="426.48169" style="fill: #4169e1; fill-opacity: 0.5; stroke: #000000; stroke-opacity: 0.5"/>
     <use xlink:href="#me5a016f053" x="506.623663" y="382.238224" style="fill: #4169e1; fill-opacity: 0.5; stroke: #000000; stroke-opacity: 0.5"/>
     <use xlink:href="#me5a016f053" x="411.569871" y="393.138788" style="fill: #4169e1; fill-opacity: 0.5; stroke: #000000; stroke-opacity: 0.5"/>
     <use xlink:href="#me5a016f053" x="406.406549" y="284.874634" style="fill: #4169e1; fill-opacity: 0.5; stroke: #000000; stroke-opacity: 0.5"/>
     <use xlink:href="#me5a016f053" x="449.215025" y="386.726692" style="fill: #4169e1; fill-opacity: 0.5; stroke: #000000; stroke-opacity: 0.5"/>
     <use xlink:href="#me5a016f053" x="363.153159" y="354.025" style="fill: #4169e1; fill-opacity: 0.5; stroke: #000000; stroke-opacity: 0.5"/>
     <use xlink:href="#me5a016f053" x="346.849633" y="286.697987" style="fill: #4169e1; fill-opacity: 0.5; stroke: #000000; stroke-opacity: 0.5"/>
     <use xlink:href="#me5a016f053" x="471.111372" y="337.994759" style="fill: #4169e1; fill-opacity: 0.5; stroke: #000000; stroke-opacity: 0.5"/>
     <use xlink:href="#me5a016f053" x="411.430984" y="380.955805" style="fill: #4169e1; fill-opacity: 0.5; stroke: #000000; stroke-opacity: 0.5"/>
     <use xlink:href="#me5a016f053" x="459.447792" y="484.831768" style="fill: #4169e1; fill-opacity: 0.5; stroke: #000000; stroke-opacity: 0.5"/>
     <use xlink:href="#me5a016f053" x="200.538988" y="513.044992" style="fill: #4169e1; fill-opacity: 0.5; stroke: #000000; stroke-opacity: 0.5"/>
     <use xlink:href="#me5a016f053" x="190.130089" y="457.900963" style="fill: #4169e1; fill-opacity: 0.5; stroke: #000000; stroke-opacity: 0.5"/>
     <use xlink:href="#me5a016f053" x="472.205067" y="351.460161" style="fill: #4169e1; fill-opacity: 0.5; stroke: #000000; stroke-opacity: 0.5"/>
     <use xlink:href="#me5a016f053" x="394.231203" y="475.213623" style="fill: #4169e1; fill-opacity: 0.5; stroke: #000000; stroke-opacity: 0.5"/>
     <use xlink:href="#me5a016f053" x="419.428725" y="467.586906" style="fill: #4169e1; fill-opacity: 0.5; stroke: #000000; stroke-opacity: 0.5"/>
     <use xlink:href="#me5a016f053" x="429.342489" y="377.749757" style="fill: #4169e1; fill-opacity: 0.5; stroke: #000000; stroke-opacity: 0.5"/>
     <use xlink:href="#me5a016f053" x="426.363664" y="271.308955" style="fill: #4169e1; fill-opacity: 0.5; stroke: #000000; stroke-opacity: 0.5"/>
     <use xlink:href="#me5a016f053" x="346.669147" y="395.062417" style="fill: #4169e1; fill-opacity: 0.5; stroke: #000000; stroke-opacity: 0.5"/>
     <use xlink:href="#me5a016f053" x="422.440351" y="497.53232" style="fill: #4169e1; fill-opacity: 0.5; stroke: #000000; stroke-opacity: 0.5"/>
     <use xlink:href="#me5a016f053" x="326.63958" y="332.865081" style="fill: #4169e1; fill-opacity: 0.5; stroke: #000000; stroke-opacity: 0.5"/>
     <use xlink:href="#me5a016f053" x="403.400345" y="302.728228" style="fill: #4169e1; fill-opacity: 0.5; stroke: #000000; stroke-opacity: 0.5"/>
     <use xlink:href="#me5a016f053" x="412.99973" y="248.866618" style="fill: #4169e1; fill-opacity: 0.5; stroke: #000000; stroke-opacity: 0.5"/>
     <use xlink:href="#me5a016f053" x="370.059853" y="576.699288" style="fill: #4169e1; fill-opacity: 0.5; stroke: #000000; stroke-opacity: 0.5"/>
     <use xlink:href="#me5a016f053" x="416.397415" y="546.969428" style="fill: #4169e1; fill-opacity: 0.5; stroke: #000000; stroke-opacity: 0.5"/>
    </g>
   </g>
   <g id="PathCollection_2">
    <defs>
     <path id="mf21fad3d77" d="M 0 3 
C 0.795609 3 1.55874 2.683901 2.12132 2.12132 
C 2.683901 1.55874 3 0.795609 3 0 
C 3 -0.795609 2.683901 -1.55874 2.12132 -2.12132 
C 1.55874 -2.683901 0.795609 -3 0 -3 
C -0.795609 -3 -1.55874 -2.683901 -2.12132 -2.12132 
C -2.683901 -1.55874 -3 -0.795609 -3 0 
C -3 0.795609 -2.683901 1.55874 -2.12132 2.12132 
C -1.55874 2.683901 -0.795609 3 0 3 
z
" style="stroke: #000000; stroke-opacity: 0.5"/>
    </defs>
    <g clip-path="url(#p654c3c6e0f)">
     <use xlink:href="#mf21fad3d77" x="342.846231" y="450.762412" style="fill: #ff8c00; fill-opacity: 0.5; stroke: #000000; stroke-opacity: 0.5"/>
     <use xlink:href="#mf21fad3d77" x="368.895453" y="335.302498" style="fill: #ff8c00; fill-opacity: 0.5; stroke: #000000; stroke-opacity: 0.5"/>
     <use xlink:href="#mf21fad3d77" x="380.076906" y="346.35717" style="fill: #ff8c00; fill-opacity: 0.5; stroke: #000000; stroke-opacity: 0.5"/>
     <use xlink:href="#mf21fad3d77" x="379.644972" y="408.386167" style="fill: #ff8c00; fill-opacity: 0.5; stroke: #000000; stroke-opacity: 0.5"/>
     <use xlink:href="#mf21fad3d77" x="408.620871" y="338.987389" style="fill: #ff8c00; fill-opacity: 0.5; stroke: #000000; stroke-opacity: 0.5"/>
     <use xlink:href="#mf21fad3d77" x="317.633689" y="383.820228" style="fill: #ff8c00; fill-opacity: 0.5; stroke: #000000; stroke-opacity: 0.5"/>
     <use xlink:href="#mf21fad3d77" x="419.357518" y="340.829834" style="fill: #ff8c00; fill-opacity: 0.5; stroke: #000000; stroke-opacity: 0.5"/>
     <use xlink:href="#mf21fad3d77" x="389.340914" y="350.042061" style="fill: #ff8c00; fill-opacity: 0.5; stroke: #000000; stroke-opacity: 0.5"/>
     <use xlink:href="#mf21fad3d77" x="602.415657" y="365.395773" style="fill: #ff8c00; fill-opacity: 0.5; stroke: #000000; stroke-opacity: 0.5"/>
     <use xlink:href="#mf21fad3d77" x="196.891875" y="505.921167" style="fill: #ff8c00; fill-opacity: 0.5; stroke: #000000; stroke-opacity: 0.5"/>
     <use xlink:href="#mf21fad3d77" x="271.166585" y="490.846257" style="fill: #ff8c00; fill-opacity: 0.5; stroke: #000000; stroke-opacity: 0.5"/>
     <use xlink:href="#mf21fad3d77" x="432.925299" y="343.900576" style="fill: #ff8c00; fill-opacity: 0.5; stroke: #000000; stroke-opacity: 0.5"/>
     <use xlink:href="#mf21fad3d77" x="333.356849" y="446.815469" style="fill: #ff8c00; fill-opacity: 0.5; stroke: #000000; stroke-opacity: 0.5"/>
     <use xlink:href="#mf21fad3d77" x="363.272853" y="523.846082" style="fill: #ff8c00; fill-opacity: 0.5; stroke: #000000; stroke-opacity: 0.5"/>
     <use xlink:href="#mf21fad3d77" x="411.373988" y="466.730273" style="fill: #ff8c00; fill-opacity: 0.5; stroke: #000000; stroke-opacity: 0.5"/>
     <use xlink:href="#mf21fad3d77" x="365.75493" y="295.996995" style="fill: #ff8c00; fill-opacity: 0.5; stroke: #000000; stroke-opacity: 0.5"/>
     <use xlink:href="#mf21fad3d77" x="345.140675" y="393.032455" style="fill: #ff8c00; fill-opacity: 0.5; stroke: #000000; stroke-opacity: 0.5"/>
     <use xlink:href="#mf21fad3d77" x="476.909403" y="430.495513" style="fill: #ff8c00; fill-opacity: 0.5; stroke: #000000; stroke-opacity: 0.5"/>
     <use xlink:href="#mf21fad3d77" x="341.56926" y="343.286428" style="fill: #ff8c00; fill-opacity: 0.5; stroke: #000000; stroke-opacity: 0.5"/>
     <use xlink:href="#mf21fad3d77" x="382.434037" y="443.392631" style="fill: #ff8c00; fill-opacity: 0.5; stroke: #000000; stroke-opacity: 0.5"/>
     <use xlink:href="#mf21fad3d77" x="418.420488" y="300.296034" style="fill: #ff8c00; fill-opacity: 0.5; stroke: #000000; stroke-opacity: 0.5"/>
     <use xlink:href="#mf21fad3d77" x="384.820368" y="268.360313" style="fill: #ff8c00; fill-opacity: 0.5; stroke: #000000; stroke-opacity: 0.5"/>
     <use xlink:href="#mf21fad3d77" x="370.885977" y="403.472979" style="fill: #ff8c00; fill-opacity: 0.5; stroke: #000000; stroke-opacity: 0.5"/>
     <use xlink:href="#mf21fad3d77" x="389.261422" y="410.228613" style="fill: #ff8c00; fill-opacity: 0.5; stroke: #000000; stroke-opacity: 0.5"/>
     <use xlink:href="#mf21fad3d77" x="563.124013" y="257.30564" style="fill: #ff8c00; fill-opacity: 0.5; stroke: #000000; stroke-opacity: 0.5"/>
     <use xlink:href="#mf21fad3d77" x="395.439242" y="365.395773" style="fill: #ff8c00; fill-opacity: 0.5; stroke: #000000; stroke-opacity: 0.5"/>
     <use xlink:href="#mf21fad3d77" x="407.458966" y="389.347564" style="fill: #ff8c00; fill-opacity: 0.5; stroke: #000000; stroke-opacity: 0.5"/>
     <use xlink:href="#mf21fad3d77" x="194.444435" y="382.347763" style="fill: #ff8c00; fill-opacity: 0.5; stroke: #000000; stroke-opacity: 0.5"/>
     <use xlink:href="#mf21fad3d77" x="468.142657" y="372.151407" style="fill: #ff8c00; fill-opacity: 0.5; stroke: #000000; stroke-opacity: 0.5"/>
     <use xlink:href="#mf21fad3d77" x="370.81006" y="327.318567" style="fill: #ff8c00; fill-opacity: 0.5; stroke: #000000; stroke-opacity: 0.5"/>
     <use xlink:href="#mf21fad3d77" x="782.075114" y="450.753513" style="fill: #ff8c00; fill-opacity: 0.5; stroke: #000000; stroke-opacity: 0.5"/>
     <use xlink:href="#mf21fad3d77" x="78.938101" y="361.710882" style="fill: #ff8c00; fill-opacity: 0.5; stroke: #000000; stroke-opacity: 0.5"/>
     <use xlink:href="#mf21fad3d77" x="395.331086" y="369.694813" style="fill: #ff8c00; fill-opacity: 0.5; stroke: #000000; stroke-opacity: 0.5"/>
     <use xlink:href="#mf21fad3d77" x="411.825114" y="423.739879" style="fill: #ff8c00; fill-opacity: 0.5; stroke: #000000; stroke-opacity: 0.5"/>
     <use xlink:href="#mf21fad3d77" x="384.217237" y="401.016385" style="fill: #ff8c00; fill-opacity: 0.5; stroke: #000000; stroke-opacity: 0.5"/>
     <use xlink:href="#mf21fad3d77" x="431.749635" y="362.325031" style="fill: #ff8c00; fill-opacity: 0.5; stroke: #000000; stroke-opacity: 0.5"/>
     <use xlink:href="#mf21fad3d77" x="355.551936" y="436.022849" style="fill: #ff8c00; fill-opacity: 0.5; stroke: #000000; stroke-opacity: 0.5"/>
     <use xlink:href="#mf21fad3d77" x="433.130842" y="352.498655" style="fill: #ff8c00; fill-opacity: 0.5; stroke: #000000; stroke-opacity: 0.5"/>
     <use xlink:href="#mf21fad3d77" x="413.718106" y="303.980925" style="fill: #ff8c00; fill-opacity: 0.5; stroke: #000000; stroke-opacity: 0.5"/>
     <use xlink:href="#mf21fad3d77" x="191.984011" y="454.12042" style="fill: #ff8c00; fill-opacity: 0.5; stroke: #000000; stroke-opacity: 0.5"/>
     <use xlink:href="#mf21fad3d77" x="299.60158" y="383.206079" style="fill: #ff8c00; fill-opacity: 0.5; stroke: #000000; stroke-opacity: 0.5"/>
     <use xlink:href="#mf21fad3d77" x="304.114161" y="378.90704" style="fill: #ff8c00; fill-opacity: 0.5; stroke: #000000; stroke-opacity: 0.5"/>
     <use xlink:href="#mf21fad3d77" x="400.342233" y="293.540401" style="fill: #ff8c00; fill-opacity: 0.5; stroke: #000000; stroke-opacity: 0.5"/>
     <use xlink:href="#mf21fad3d77" x="396.987113" y="482.698134" style="fill: #ff8c00; fill-opacity: 0.5; stroke: #000000; stroke-opacity: 0.5"/>
     <use xlink:href="#mf21fad3d77" x="506.623663" y="303.366776" style="fill: #ff8c00; fill-opacity: 0.5; stroke: #000000; stroke-opacity: 0.5"/>
     <use xlink:href="#mf21fad3d77" x="411.569871" y="429.881364" style="fill: #ff8c00; fill-opacity: 0.5; stroke: #000000; stroke-opacity: 0.5"/>
     <use xlink:href="#mf21fad3d77" x="406.406549" y="284.107556" style="fill: #ff8c00; fill-opacity: 0.5; stroke: #000000; stroke-opacity: 0.5"/>
     <use xlink:href="#mf21fad3d77" x="449.215025" y="377.064594" style="fill: #ff8c00; fill-opacity: 0.5; stroke: #000000; stroke-opacity: 0.5"/>
     <use xlink:href="#mf21fad3d77" x="363.153159" y="366.009922" style="fill: #ff8c00; fill-opacity: 0.5; stroke: #000000; stroke-opacity: 0.5"/>
     <use xlink:href="#mf21fad3d77" x="346.849633" y="318.720489" style="fill: #ff8c00; fill-opacity: 0.5; stroke: #000000; stroke-opacity: 0.5"/>
     <use xlink:href="#mf21fad3d77" x="471.111372" y="360.482585" style="fill: #ff8c00; fill-opacity: 0.5; stroke: #000000; stroke-opacity: 0.5"/>
     <use xlink:href="#mf21fad3d77" x="411.430984" y="326.704419" style="fill: #ff8c00; fill-opacity: 0.5; stroke: #000000; stroke-opacity: 0.5"/>
     <use xlink:href="#mf21fad3d77" x="459.447792" y="522.003637" style="fill: #ff8c00; fill-opacity: 0.5; stroke: #000000; stroke-opacity: 0.5"/>
     <use xlink:href="#mf21fad3d77" x="200.538988" y="456.289749" style="fill: #ff8c00; fill-opacity: 0.5; stroke: #000000; stroke-opacity: 0.5"/>
     <use xlink:href="#mf21fad3d77" x="190.130089" y="416.984246" style="fill: #ff8c00; fill-opacity: 0.5; stroke: #000000; stroke-opacity: 0.5"/>
     <use xlink:href="#mf21fad3d77" x="472.205067" y="342.672279" style="fill: #ff8c00; fill-opacity: 0.5; stroke: #000000; stroke-opacity: 0.5"/>
     <use xlink:href="#mf21fad3d77" x="394.231203" y="504.807479" style="fill: #ff8c00; fill-opacity: 0.5; stroke: #000000; stroke-opacity: 0.5"/>
     <use xlink:href="#mf21fad3d77" x="419.428725" y="567.150042" style="fill: #ff8c00; fill-opacity: 0.5; stroke: #000000; stroke-opacity: 0.5"/>
     <use xlink:href="#mf21fad3d77" x="429.342489" y="360.482585" style="fill: #ff8c00; fill-opacity: 0.5; stroke: #000000; stroke-opacity: 0.5"/>
     <use xlink:href="#mf21fad3d77" x="426.363664" y="338.987389" style="fill: #ff8c00; fill-opacity: 0.5; stroke: #000000; stroke-opacity: 0.5"/>
     <use xlink:href="#mf21fad3d77" x="346.669147" y="439.70774" style="fill: #ff8c00; fill-opacity: 0.5; stroke: #000000; stroke-opacity: 0.5"/>
     <use xlink:href="#mf21fad3d77" x="422.440351" y="544.418891" style="fill: #ff8c00; fill-opacity: 0.5; stroke: #000000; stroke-opacity: 0.5"/>
     <use xlink:href="#mf21fad3d77" x="326.63958" y="351.884507" style="fill: #ff8c00; fill-opacity: 0.5; stroke: #000000; stroke-opacity: 0.5"/>
     <use xlink:href="#mf21fad3d77" x="403.400345" y="335.916646" style="fill: #ff8c00; fill-opacity: 0.5; stroke: #000000; stroke-opacity: 0.5"/>
     <use xlink:href="#mf21fad3d77" x="412.99973" y="283.099877" style="fill: #ff8c00; fill-opacity: 0.5; stroke: #000000; stroke-opacity: 0.5"/>
     <use xlink:href="#mf21fad3d77" x="370.059853" y="620.552987" style="fill: #ff8c00; fill-opacity: 0.5; stroke: #000000; stroke-opacity: 0.5"/>
     <use xlink:href="#mf21fad3d77" x="416.397415" y="407.078523" style="fill: #ff8c00; fill-opacity: 0.5; stroke: #000000; stroke-opacity: 0.5"/>
    </g>
   </g>
   <g id="PolyCollection_1">
    <path d="M 78.938101 395.531636 
L 78.938101 550.358045 
L 86.040495 546.735934 
L 93.142889 543.113824 
L 100.245283 539.491713 
L 107.347677 535.863663 
L 114.450071 532.230374 
L 121.552465 528.597085 
L 128.654859 524.963796 
L 135.757253 521.330507 
L 142.859647 517.506917 
L 149.962041 513.520891 
L 157.064435 509.534864 
L 164.166829 505.842539 
L 171.269224 502.274123 
L 178.371618 498.705708 
L 185.474012 495.137292 
L 192.576406 491.564925 
L 199.6788 487.958555 
L 206.781194 483.756681 
L 213.883588 480.315963 
L 220.985982 477.017159 
L 228.088376 472.365476 
L 235.19077 468.654532 
L 242.293164 465.461837 
L 249.395558 461.492461 
L 256.497952 457.713023 
L 263.600346 454.242965 
L 270.702741 450.772907 
L 277.805135 447.045184 
L 284.907529 443.481986 
L 292.009923 440.072472 
L 299.112317 436.422836 
L 306.214711 433.135448 
L 313.317105 430.203132 
L 320.419499 427.102175 
L 327.521893 423.778686 
L 334.624287 420.627618 
L 341.726681 417.729566 
L 348.829075 414.90288 
L 355.931469 412.202266 
L 363.033863 409.984092 
L 370.136258 408.162072 
L 377.238652 406.203082 
L 384.341046 404.175068 
L 391.44344 402.212657 
L 398.545834 400.832138 
L 405.648228 399.448582 
L 412.750622 398.085956 
L 419.853016 396.914721 
L 426.95541 395.967254 
L 434.057804 395.029078 
L 441.160198 394.093415 
L 448.262592 393.346482 
L 455.364986 392.483335 
L 462.46738 391.615511 
L 469.569775 390.779824 
L 476.672169 389.88099 
L 483.774563 388.980843 
L 490.876957 388.23134 
L 497.979351 387.700865 
L 505.081745 386.736876 
L 512.184139 386.415741 
L 519.286533 385.88133 
L 526.388927 385.371109 
L 533.491321 384.845402 
L 540.593715 384.313613 
L 547.696109 383.773438 
L 554.798503 383.092241 
L 561.900897 382.411044 
L 569.003292 382.130794 
L 576.105686 381.65396 
L 583.20808 381.300655 
L 590.310474 381.002318 
L 597.412868 380.663283 
L 604.515262 380.015693 
L 611.617656 379.654954 
L 618.72005 379.243664 
L 625.822444 378.567234 
L 632.924838 377.840569 
L 640.027232 377.149034 
L 647.129626 376.311644 
L 654.23202 375.341394 
L 661.334414 374.586891 
L 668.436809 374.29557 
L 675.539203 374.004249 
L 682.641597 373.712929 
L 689.743991 373.286429 
L 696.846385 372.758788 
L 703.948779 372.231146 
L 711.051173 371.885995 
L 718.153567 371.725898 
L 725.255961 371.248874 
L 732.358355 370.481458 
L 739.460749 370.295334 
L 746.563143 369.642255 
L 753.665537 369.420624 
L 760.767931 369.19145 
L 767.870325 368.962275 
L 774.97272 368.733101 
L 782.075114 368.295952 
L 782.075114 174.279394 
L 782.075114 174.279394 
L 774.97272 177.975048 
L 767.870325 181.538732 
L 760.767931 185.102417 
L 753.665537 188.666101 
L 746.563143 192.229785 
L 739.460749 195.793469 
L 732.358355 199.456181 
L 725.255961 202.90816 
L 718.153567 206.453548 
L 711.051173 210.147974 
L 703.948779 214.282755 
L 696.846385 218.087312 
L 689.743991 221.207887 
L 682.641597 224.56089 
L 675.539203 228.47138 
L 668.436809 232.384097 
L 661.334414 236.296814 
L 654.23202 240.209531 
L 647.129626 244.122248 
L 640.027232 248.040057 
L 632.924838 251.967816 
L 625.822444 255.895575 
L 618.72005 259.516488 
L 611.617656 262.846545 
L 604.515262 266.552088 
L 597.412868 270.208746 
L 590.310474 273.587212 
L 583.20808 276.965677 
L 576.105686 280.352491 
L 569.003292 283.766134 
L 561.900897 287.787351 
L 554.798503 291.694707 
L 547.696109 295.360283 
L 540.593715 299.029685 
L 533.491321 302.448812 
L 526.388927 305.873321 
L 519.286533 309.355594 
L 512.184139 313.543491 
L 505.081745 317.143291 
L 497.979351 320.269603 
L 490.876957 322.992105 
L 483.774563 326.361164 
L 476.672169 329.592476 
L 469.569775 333.199515 
L 462.46738 336.481478 
L 455.364986 339.908632 
L 448.262592 343.022157 
L 441.160198 346.185604 
L 434.057804 348.785919 
L 426.95541 352.221477 
L 419.853016 354.73147 
L 412.750622 357.409199 
L 405.648228 360.211577 
L 398.545834 362.895242 
L 391.44344 364.454501 
L 384.341046 366.511145 
L 377.238652 368.210421 
L 370.136258 370.125624 
L 363.033863 371.116635 
L 355.931469 372.049208 
L 348.829075 372.932546 
L 341.726681 374.308717 
L 334.624287 376.346778 
L 327.521893 377.411604 
L 320.419499 378.276526 
L 313.317105 379.20878 
L 306.214711 379.753694 
L 299.112317 380.562397 
L 292.009923 381.486279 
L 284.907529 382.222315 
L 277.805135 382.746368 
L 270.702741 383.281127 
L 263.600346 384.042165 
L 256.497952 384.501487 
L 249.395558 384.866117 
L 242.293164 385.388609 
L 235.19077 385.792434 
L 228.088376 386.221557 
L 220.985982 386.712417 
L 213.883588 387.488 
L 206.781194 387.827681 
L 199.6788 388.204664 
L 192.576406 388.981422 
L 185.474012 389.566158 
L 178.371618 390.134951 
L 171.269224 390.664103 
L 164.166829 391.212697 
L 157.064435 391.712781 
L 149.962041 392.229909 
L 142.859647 392.751516 
L 135.757253 393.275789 
L 128.654859 393.800063 
L 121.552465 394.06246 
L 114.450071 394.010294 
L 107.347677 393.958129 
L 100.245283 394.319944 
L 93.142889 394.719177 
L 86.040495 395.118411 
L 78.938101 395.531636 
z
" clip-path="url(#p654c3c6e0f)" style="fill: #1f77b4; fill-opacity: 0.15"/>
   </g>
   <g id="PolyCollection_2">
    <path d="M 78.938101 379.35312 
L 78.938101 502.516938 
L 86.040495 499.822613 
L 93.142889 497.128289 
L 100.245283 494.433964 
L 107.347677 491.895223 
L 114.450071 489.361351 
L 121.552465 486.827479 
L 128.654859 484.293607 
L 135.757253 481.759736 
L 142.859647 479.225864 
L 149.962041 476.786564 
L 157.064435 474.555602 
L 164.166829 472.356499 
L 171.269224 469.830135 
L 178.371618 467.160535 
L 185.474012 464.777407 
L 192.576406 462.326222 
L 199.6788 459.725657 
L 206.781194 457.035453 
L 213.883588 454.341888 
L 220.985982 451.647734 
L 228.088376 448.960948 
L 235.19077 446.491475 
L 242.293164 443.734765 
L 249.395558 441.629233 
L 256.497952 439.44148 
L 263.600346 437.164614 
L 270.702741 435.169423 
L 277.805135 433.00959 
L 284.907529 430.6005 
L 292.009923 428.702122 
L 299.112317 426.305158 
L 306.214711 423.897489 
L 313.317105 421.743839 
L 320.419499 420.153031 
L 327.521893 418.054001 
L 334.624287 416.453003 
L 341.726681 415.02767 
L 348.829075 414.024118 
L 355.931469 412.669851 
L 363.033863 411.159658 
L 370.136258 410.029661 
L 377.238652 409.218298 
L 384.341046 409.134004 
L 391.44344 408.607602 
L 398.545834 407.877394 
L 405.648228 407.525764 
L 412.750622 406.622966 
L 419.853016 406.350064 
L 426.95541 405.866927 
L 434.057804 404.905656 
L 441.160198 404.577637 
L 448.262592 404.454792 
L 455.364986 404.014237 
L 462.46738 403.752946 
L 469.569775 403.588883 
L 476.672169 403.401402 
L 483.774563 403.35402 
L 490.876957 402.983472 
L 497.979351 402.611011 
L 505.081745 402.374599 
L 512.184139 402.158588 
L 519.286533 401.956329 
L 526.388927 402.156012 
L 533.491321 402.211018 
L 540.593715 402.828216 
L 547.696109 402.619878 
L 554.798503 402.238129 
L 561.900897 402.290269 
L 569.003292 402.458217 
L 576.105686 402.626165 
L 583.20808 402.794113 
L 590.310474 402.94735 
L 597.412868 402.809563 
L 604.515262 403.013823 
L 611.617656 403.003174 
L 618.72005 403.111638 
L 625.822444 403.344947 
L 632.924838 403.578256 
L 640.027232 403.808892 
L 647.129626 404.037933 
L 654.23202 404.071661 
L 661.334414 404.079568 
L 668.436809 404.087474 
L 675.539203 404.09538 
L 682.641597 404.27312 
L 689.743991 404.56595 
L 696.846385 404.856833 
L 703.948779 404.786489 
L 711.051173 405.024766 
L 718.153567 405.222895 
L 725.255961 404.965398 
L 732.358355 404.705859 
L 739.460749 404.942128 
L 746.563143 405.337906 
L 753.665537 405.733683 
L 760.767931 405.963382 
L 767.870325 406.007684 
L 774.97272 406.051986 
L 782.075114 406.096288 
L 782.075114 241.27083 
L 782.075114 241.27083 
L 774.97272 243.44719 
L 767.870325 245.62355 
L 760.767931 247.801995 
L 753.665537 249.985646 
L 746.563143 252.517487 
L 739.460749 255.291443 
L 732.358355 258.065399 
L 725.255961 260.839355 
L 718.153567 263.344524 
L 711.051173 265.793897 
L 703.948779 268.474923 
L 696.846385 271.155949 
L 689.743991 273.683389 
L 682.641597 276.021765 
L 675.539203 278.360142 
L 668.436809 280.698519 
L 661.334414 283.561204 
L 654.23202 286.578981 
L 647.129626 289.548184 
L 640.027232 292.063609 
L 632.924838 294.579035 
L 625.822444 297.083289 
L 618.72005 299.597757 
L 611.617656 302.188828 
L 604.515262 304.908511 
L 597.412868 307.487156 
L 590.310474 309.87559 
L 583.20808 312.245829 
L 576.105686 314.651367 
L 569.003292 317.036163 
L 561.900897 319.33765 
L 554.798503 321.70348 
L 547.696109 324.302881 
L 540.593715 326.983084 
L 533.491321 329.364308 
L 526.388927 331.588574 
L 519.286533 333.996422 
L 512.184139 336.117339 
L 505.081745 338.499326 
L 497.979351 340.884122 
L 490.876957 343.273311 
L 483.774563 345.771016 
L 476.672169 348.390758 
L 469.569775 350.988989 
L 462.46738 353.629313 
L 455.364986 355.601928 
L 448.262592 358.145355 
L 441.160198 360.215181 
L 434.057804 362.35315 
L 426.95541 364.727696 
L 419.853016 366.93123 
L 412.750622 368.44254 
L 405.648228 370.328642 
L 398.545834 371.698415 
L 391.44344 373.336209 
L 384.341046 374.470164 
L 377.238652 375.471514 
L 370.136258 376.465654 
L 363.033863 377.146165 
L 355.931469 377.518145 
L 348.829075 377.914827 
L 341.726681 378.534761 
L 334.624287 379.066633 
L 327.521893 379.213463 
L 320.419499 379.245882 
L 313.317105 379.532062 
L 306.214711 379.510566 
L 299.112317 379.799405 
L 292.009923 379.686614 
L 284.907529 379.92388 
L 277.805135 380.17472 
L 270.702741 380.408303 
L 263.600346 380.652456 
L 256.497952 380.886115 
L 249.395558 381.126095 
L 242.293164 381.366841 
L 235.19077 381.594884 
L 228.088376 381.348746 
L 220.985982 381.280016 
L 213.883588 381.395681 
L 206.781194 381.606011 
L 199.6788 381.626187 
L 192.576406 381.521326 
L 185.474012 381.822894 
L 178.371618 381.575127 
L 171.269224 381.669875 
L 164.166829 381.998663 
L 157.064435 381.825909 
L 149.962041 381.527452 
L 142.859647 381.228994 
L 135.757253 380.930537 
L 128.654859 380.63208 
L 121.552465 380.333683 
L 114.450071 380.177072 
L 107.347677 379.898852 
L 100.245283 379.760838 
L 93.142889 379.622824 
L 86.040495 379.484809 
L 78.938101 379.35312 
z
" clip-path="url(#p654c3c6e0f)" style="fill: #ff7f0e; fill-opacity: 0.15"/>
   </g>
   <g id="matplotlib.axis_1">
    <g id="xtick_1">
     <g id="line2d_1">
      <defs>
       <path id="mb19fb3bc61" d="M 0 0 
L 0 3.5 
" style="stroke: #000000; stroke-width: 0.8"/>
      </defs>
      <g>
       <use xlink:href="#mb19fb3bc61" x="112.789865" y="642.866667" style="stroke: #000000; stroke-width: 0.8"/>
      </g>
     </g>
     <g id="text_1">
      <!-- 2.2 -->
      <g transform="translate(104.838303 657.465104) scale(0.1 -0.1)">
       <defs>
        <path id="DejaVuSans-32" d="M 1228 531 
L 3431 531 
L 3431 0 
L 469 0 
L 469 531 
Q 828 903 1448 1529 
Q 2069 2156 2228 2338 
Q 2531 2678 2651 2914 
Q 2772 3150 2772 3378 
Q 2772 3750 2511 3984 
Q 2250 4219 1831 4219 
Q 1534 4219 1204 4116 
Q 875 4013 500 3803 
L 500 4441 
Q 881 4594 1212 4672 
Q 1544 4750 1819 4750 
Q 2544 4750 2975 4387 
Q 3406 4025 3406 3419 
Q 3406 3131 3298 2873 
Q 3191 2616 2906 2266 
Q 2828 2175 2409 1742 
Q 1991 1309 1228 531 
z
" transform="scale(0.015625)"/>
        <path id="DejaVuSans-2e" d="M 684 794 
L 1344 794 
L 1344 0 
L 684 0 
L 684 794 
z
" transform="scale(0.015625)"/>
       </defs>
       <use xlink:href="#DejaVuSans-32"/>
       <use xlink:href="#DejaVuSans-2e" x="63.623047"/>
       <use xlink:href="#DejaVuSans-32" x="95.410156"/>
      </g>
     </g>
    </g>
    <g id="xtick_2">
     <g id="line2d_2">
      <g>
       <use xlink:href="#mb19fb3bc61" x="219.581185" y="642.866667" style="stroke: #000000; stroke-width: 0.8"/>
      </g>
     </g>
     <g id="text_2">
      <!-- 2.3 -->
      <g transform="translate(211.629622 657.465104) scale(0.1 -0.1)">
       <defs>
        <path id="DejaVuSans-33" d="M 2597 2516 
Q 3050 2419 3304 2112 
Q 3559 1806 3559 1356 
Q 3559 666 3084 287 
Q 2609 -91 1734 -91 
Q 1441 -91 1130 -33 
Q 819 25 488 141 
L 488 750 
Q 750 597 1062 519 
Q 1375 441 1716 441 
Q 2309 441 2620 675 
Q 2931 909 2931 1356 
Q 2931 1769 2642 2001 
Q 2353 2234 1838 2234 
L 1294 2234 
L 1294 2753 
L 1863 2753 
Q 2328 2753 2575 2939 
Q 2822 3125 2822 3475 
Q 2822 3834 2567 4026 
Q 2313 4219 1838 4219 
Q 1578 4219 1281 4162 
Q 984 4106 628 3988 
L 628 4550 
Q 988 4650 1302 4700 
Q 1616 4750 1894 4750 
Q 2613 4750 3031 4423 
Q 3450 4097 3450 3541 
Q 3450 3153 3228 2886 
Q 3006 2619 2597 2516 
z
" transform="scale(0.015625)"/>
       </defs>
       <use xlink:href="#DejaVuSans-32"/>
       <use xlink:href="#DejaVuSans-2e" x="63.623047"/>
       <use xlink:href="#DejaVuSans-33" x="95.410156"/>
      </g>
     </g>
    </g>
    <g id="xtick_3">
     <g id="line2d_3">
      <g>
       <use xlink:href="#mb19fb3bc61" x="326.372504" y="642.866667" style="stroke: #000000; stroke-width: 0.8"/>
      </g>
     </g>
     <g id="text_3">
      <!-- 2.4 -->
      <g transform="translate(318.420942 657.465104) scale(0.1 -0.1)">
       <defs>
        <path id="DejaVuSans-34" d="M 2419 4116 
L 825 1625 
L 2419 1625 
L 2419 4116 
z
M 2253 4666 
L 3047 4666 
L 3047 1625 
L 3713 1625 
L 3713 1100 
L 3047 1100 
L 3047 0 
L 2419 0 
L 2419 1100 
L 313 1100 
L 313 1709 
L 2253 4666 
z
" transform="scale(0.015625)"/>
       </defs>
       <use xlink:href="#DejaVuSans-32"/>
       <use xlink:href="#DejaVuSans-2e" x="63.623047"/>
       <use xlink:href="#DejaVuSans-34" x="95.410156"/>
      </g>
     </g>
    </g>
    <g id="xtick_4">
     <g id="line2d_4">
      <g>
       <use xlink:href="#mb19fb3bc61" x="433.163824" y="642.866667" style="stroke: #000000; stroke-width: 0.8"/>
      </g>
     </g>
     <g id="text_4">
      <!-- 2.5 -->
      <g transform="translate(425.212261 657.465104) scale(0.1 -0.1)">
       <defs>
        <path id="DejaVuSans-35" d="M 691 4666 
L 3169 4666 
L 3169 4134 
L 1269 4134 
L 1269 2991 
Q 1406 3038 1543 3061 
Q 1681 3084 1819 3084 
Q 2600 3084 3056 2656 
Q 3513 2228 3513 1497 
Q 3513 744 3044 326 
Q 2575 -91 1722 -91 
Q 1428 -91 1123 -41 
Q 819 9 494 109 
L 494 744 
Q 775 591 1075 516 
Q 1375 441 1709 441 
Q 2250 441 2565 725 
Q 2881 1009 2881 1497 
Q 2881 1984 2565 2268 
Q 2250 2553 1709 2553 
Q 1456 2553 1204 2497 
Q 953 2441 691 2322 
L 691 4666 
z
" transform="scale(0.015625)"/>
       </defs>
       <use xlink:href="#DejaVuSans-32"/>
       <use xlink:href="#DejaVuSans-2e" x="63.623047"/>
       <use xlink:href="#DejaVuSans-35" x="95.410156"/>
      </g>
     </g>
    </g>
    <g id="xtick_5">
     <g id="line2d_5">
      <g>
       <use xlink:href="#mb19fb3bc61" x="539.955143" y="642.866667" style="stroke: #000000; stroke-width: 0.8"/>
      </g>
     </g>
     <g id="text_5">
      <!-- 2.6 -->
      <g transform="translate(532.00358 657.465104) scale(0.1 -0.1)">
       <defs>
        <path id="DejaVuSans-36" d="M 2113 2584 
Q 1688 2584 1439 2293 
Q 1191 2003 1191 1497 
Q 1191 994 1439 701 
Q 1688 409 2113 409 
Q 2538 409 2786 701 
Q 3034 994 3034 1497 
Q 3034 2003 2786 2293 
Q 2538 2584 2113 2584 
z
M 3366 4563 
L 3366 3988 
Q 3128 4100 2886 4159 
Q 2644 4219 2406 4219 
Q 1781 4219 1451 3797 
Q 1122 3375 1075 2522 
Q 1259 2794 1537 2939 
Q 1816 3084 2150 3084 
Q 2853 3084 3261 2657 
Q 3669 2231 3669 1497 
Q 3669 778 3244 343 
Q 2819 -91 2113 -91 
Q 1303 -91 875 529 
Q 447 1150 447 2328 
Q 447 3434 972 4092 
Q 1497 4750 2381 4750 
Q 2619 4750 2861 4703 
Q 3103 4656 3366 4563 
z
" transform="scale(0.015625)"/>
       </defs>
       <use xlink:href="#DejaVuSans-32"/>
       <use xlink:href="#DejaVuSans-2e" x="63.623047"/>
       <use xlink:href="#DejaVuSans-36" x="95.410156"/>
      </g>
     </g>
    </g>
    <g id="xtick_6">
     <g id="line2d_6">
      <g>
       <use xlink:href="#mb19fb3bc61" x="646.746462" y="642.866667" style="stroke: #000000; stroke-width: 0.8"/>
      </g>
     </g>
     <g id="text_6">
      <!-- 2.7 -->
      <g transform="translate(638.7949 657.465104) scale(0.1 -0.1)">
       <defs>
        <path id="DejaVuSans-37" d="M 525 4666 
L 3525 4666 
L 3525 4397 
L 1831 0 
L 1172 0 
L 2766 4134 
L 525 4134 
L 525 4666 
z
" transform="scale(0.015625)"/>
       </defs>
       <use xlink:href="#DejaVuSans-32"/>
       <use xlink:href="#DejaVuSans-2e" x="63.623047"/>
       <use xlink:href="#DejaVuSans-37" x="95.410156"/>
      </g>
     </g>
    </g>
    <g id="xtick_7">
     <g id="line2d_7">
      <g>
       <use xlink:href="#mb19fb3bc61" x="753.537782" y="642.866667" style="stroke: #000000; stroke-width: 0.8"/>
      </g>
     </g>
     <g id="text_7">
      <!-- 2.8 -->
      <g transform="translate(745.586219 657.465104) scale(0.1 -0.1)">
       <defs>
        <path id="DejaVuSans-38" d="M 2034 2216 
Q 1584 2216 1326 1975 
Q 1069 1734 1069 1313 
Q 1069 891 1326 650 
Q 1584 409 2034 409 
Q 2484 409 2743 651 
Q 3003 894 3003 1313 
Q 3003 1734 2745 1975 
Q 2488 2216 2034 2216 
z
M 1403 2484 
Q 997 2584 770 2862 
Q 544 3141 544 3541 
Q 544 4100 942 4425 
Q 1341 4750 2034 4750 
Q 2731 4750 3128 4425 
Q 3525 4100 3525 3541 
Q 3525 3141 3298 2862 
Q 3072 2584 2669 2484 
Q 3125 2378 3379 2068 
Q 3634 1759 3634 1313 
Q 3634 634 3220 271 
Q 2806 -91 2034 -91 
Q 1263 -91 848 271 
Q 434 634 434 1313 
Q 434 1759 690 2068 
Q 947 2378 1403 2484 
z
M 1172 3481 
Q 1172 3119 1398 2916 
Q 1625 2713 2034 2713 
Q 2441 2713 2670 2916 
Q 2900 3119 2900 3481 
Q 2900 3844 2670 4047 
Q 2441 4250 2034 4250 
Q 1625 4250 1398 4047 
Q 1172 3844 1172 3481 
z
" transform="scale(0.015625)"/>
       </defs>
       <use xlink:href="#DejaVuSans-32"/>
       <use xlink:href="#DejaVuSans-2e" x="63.623047"/>
       <use xlink:href="#DejaVuSans-38" x="95.410156"/>
      </g>
     </g>
    </g>
    <g id="text_8">
     <!-- Protein log10-length -->
     <g transform="translate(379.666763 671.143229) scale(0.1 -0.1)">
      <defs>
       <path id="DejaVuSans-50" d="M 1259 4147 
L 1259 2394 
L 2053 2394 
Q 2494 2394 2734 2622 
Q 2975 2850 2975 3272 
Q 2975 3691 2734 3919 
Q 2494 4147 2053 4147 
L 1259 4147 
z
M 628 4666 
L 2053 4666 
Q 2838 4666 3239 4311 
Q 3641 3956 3641 3272 
Q 3641 2581 3239 2228 
Q 2838 1875 2053 1875 
L 1259 1875 
L 1259 0 
L 628 0 
L 628 4666 
z
" transform="scale(0.015625)"/>
       <path id="DejaVuSans-72" d="M 2631 2963 
Q 2534 3019 2420 3045 
Q 2306 3072 2169 3072 
Q 1681 3072 1420 2755 
Q 1159 2438 1159 1844 
L 1159 0 
L 581 0 
L 581 3500 
L 1159 3500 
L 1159 2956 
Q 1341 3275 1631 3429 
Q 1922 3584 2338 3584 
Q 2397 3584 2469 3576 
Q 2541 3569 2628 3553 
L 2631 2963 
z
" transform="scale(0.015625)"/>
       <path id="DejaVuSans-6f" d="M 1959 3097 
Q 1497 3097 1228 2736 
Q 959 2375 959 1747 
Q 959 1119 1226 758 
Q 1494 397 1959 397 
Q 2419 397 2687 759 
Q 2956 1122 2956 1747 
Q 2956 2369 2687 2733 
Q 2419 3097 1959 3097 
z
M 1959 3584 
Q 2709 3584 3137 3096 
Q 3566 2609 3566 1747 
Q 3566 888 3137 398 
Q 2709 -91 1959 -91 
Q 1206 -91 779 398 
Q 353 888 353 1747 
Q 353 2609 779 3096 
Q 1206 3584 1959 3584 
z
" transform="scale(0.015625)"/>
       <path id="DejaVuSans-74" d="M 1172 4494 
L 1172 3500 
L 2356 3500 
L 2356 3053 
L 1172 3053 
L 1172 1153 
Q 1172 725 1289 603 
Q 1406 481 1766 481 
L 2356 481 
L 2356 0 
L 1766 0 
Q 1100 0 847 248 
Q 594 497 594 1153 
L 594 3053 
L 172 3053 
L 172 3500 
L 594 3500 
L 594 4494 
L 1172 4494 
z
" transform="scale(0.015625)"/>
       <path id="DejaVuSans-65" d="M 3597 1894 
L 3597 1613 
L 953 1613 
Q 991 1019 1311 708 
Q 1631 397 2203 397 
Q 2534 397 2845 478 
Q 3156 559 3463 722 
L 3463 178 
Q 3153 47 2828 -22 
Q 2503 -91 2169 -91 
Q 1331 -91 842 396 
Q 353 884 353 1716 
Q 353 2575 817 3079 
Q 1281 3584 2069 3584 
Q 2775 3584 3186 3129 
Q 3597 2675 3597 1894 
z
M 3022 2063 
Q 3016 2534 2758 2815 
Q 2500 3097 2075 3097 
Q 1594 3097 1305 2825 
Q 1016 2553 972 2059 
L 3022 2063 
z
" transform="scale(0.015625)"/>
       <path id="DejaVuSans-69" d="M 603 3500 
L 1178 3500 
L 1178 0 
L 603 0 
L 603 3500 
z
M 603 4863 
L 1178 4863 
L 1178 4134 
L 603 4134 
L 603 4863 
z
" transform="scale(0.015625)"/>
       <path id="DejaVuSans-6e" d="M 3513 2113 
L 3513 0 
L 2938 0 
L 2938 2094 
Q 2938 2591 2744 2837 
Q 2550 3084 2163 3084 
Q 1697 3084 1428 2787 
Q 1159 2491 1159 1978 
L 1159 0 
L 581 0 
L 581 3500 
L 1159 3500 
L 1159 2956 
Q 1366 3272 1645 3428 
Q 1925 3584 2291 3584 
Q 2894 3584 3203 3211 
Q 3513 2838 3513 2113 
z
" transform="scale(0.015625)"/>
       <path id="DejaVuSans-20" transform="scale(0.015625)"/>
       <path id="DejaVuSans-6c" d="M 603 4863 
L 1178 4863 
L 1178 0 
L 603 0 
L 603 4863 
z
" transform="scale(0.015625)"/>
       <path id="DejaVuSans-67" d="M 2906 1791 
Q 2906 2416 2648 2759 
Q 2391 3103 1925 3103 
Q 1463 3103 1205 2759 
Q 947 2416 947 1791 
Q 947 1169 1205 825 
Q 1463 481 1925 481 
Q 2391 481 2648 825 
Q 2906 1169 2906 1791 
z
M 3481 434 
Q 3481 -459 3084 -895 
Q 2688 -1331 1869 -1331 
Q 1566 -1331 1297 -1286 
Q 1028 -1241 775 -1147 
L 775 -588 
Q 1028 -725 1275 -790 
Q 1522 -856 1778 -856 
Q 2344 -856 2625 -561 
Q 2906 -266 2906 331 
L 2906 616 
Q 2728 306 2450 153 
Q 2172 0 1784 0 
Q 1141 0 747 490 
Q 353 981 353 1791 
Q 353 2603 747 3093 
Q 1141 3584 1784 3584 
Q 2172 3584 2450 3431 
Q 2728 3278 2906 2969 
L 2906 3500 
L 3481 3500 
L 3481 434 
z
" transform="scale(0.015625)"/>
       <path id="DejaVuSans-31" d="M 794 531 
L 1825 531 
L 1825 4091 
L 703 3866 
L 703 4441 
L 1819 4666 
L 2450 4666 
L 2450 531 
L 3481 531 
L 3481 0 
L 794 0 
L 794 531 
z
" transform="scale(0.015625)"/>
       <path id="DejaVuSans-30" d="M 2034 4250 
Q 1547 4250 1301 3770 
Q 1056 3291 1056 2328 
Q 1056 1369 1301 889 
Q 1547 409 2034 409 
Q 2525 409 2770 889 
Q 3016 1369 3016 2328 
Q 3016 3291 2770 3770 
Q 2525 4250 2034 4250 
z
M 2034 4750 
Q 2819 4750 3233 4129 
Q 3647 3509 3647 2328 
Q 3647 1150 3233 529 
Q 2819 -91 2034 -91 
Q 1250 -91 836 529 
Q 422 1150 422 2328 
Q 422 3509 836 4129 
Q 1250 4750 2034 4750 
z
" transform="scale(0.015625)"/>
       <path id="DejaVuSans-2d" d="M 313 2009 
L 1997 2009 
L 1997 1497 
L 313 1497 
L 313 2009 
z
" transform="scale(0.015625)"/>
       <path id="DejaVuSans-68" d="M 3513 2113 
L 3513 0 
L 2938 0 
L 2938 2094 
Q 2938 2591 2744 2837 
Q 2550 3084 2163 3084 
Q 1697 3084 1428 2787 
Q 1159 2491 1159 1978 
L 1159 0 
L 581 0 
L 581 4863 
L 1159 4863 
L 1159 2956 
Q 1366 3272 1645 3428 
Q 1925 3584 2291 3584 
Q 2894 3584 3203 3211 
Q 3513 2838 3513 2113 
z
" transform="scale(0.015625)"/>
      </defs>
      <use xlink:href="#DejaVuSans-50"/>
      <use xlink:href="#DejaVuSans-72" x="58.552734"/>
      <use xlink:href="#DejaVuSans-6f" x="97.416016"/>
      <use xlink:href="#DejaVuSans-74" x="158.597656"/>
      <use xlink:href="#DejaVuSans-65" x="197.806641"/>
      <use xlink:href="#DejaVuSans-69" x="259.330078"/>
      <use xlink:href="#DejaVuSans-6e" x="287.113281"/>
      <use xlink:href="#DejaVuSans-20" x="350.492188"/>
      <use xlink:href="#DejaVuSans-6c" x="382.279297"/>
      <use xlink:href="#DejaVuSans-6f" x="410.0625"/>
      <use xlink:href="#DejaVuSans-67" x="471.244141"/>
      <use xlink:href="#DejaVuSans-31" x="534.720703"/>
      <use xlink:href="#DejaVuSans-30" x="598.34375"/>
      <use xlink:href="#DejaVuSans-2d" x="661.966797"/>
      <use xlink:href="#DejaVuSans-6c" x="698.050781"/>
      <use xlink:href="#DejaVuSans-65" x="725.833984"/>
      <use xlink:href="#DejaVuSans-6e" x="787.357422"/>
      <use xlink:href="#DejaVuSans-67" x="850.736328"/>
      <use xlink:href="#DejaVuSans-74" x="914.212891"/>
      <use xlink:href="#DejaVuSans-68" x="953.421875"/>
     </g>
    </g>
   </g>
   <g id="matplotlib.axis_2">
    <g id="ytick_1">
     <g id="line2d_8">
      <defs>
       <path id="m0a59120464" d="M 0 0 
L -3.5 0 
" style="stroke: #000000; stroke-width: 0.8"/>
      </defs>
      <g>
       <use xlink:href="#m0a59120464" x="43.78125" y="629.040506" style="stroke: #000000; stroke-width: 0.8"/>
      </g>
     </g>
     <g id="text_9">
      <!-- 0.3 -->
      <g transform="translate(20.878125 632.839725) scale(0.1 -0.1)">
       <use xlink:href="#DejaVuSans-30"/>
       <use xlink:href="#DejaVuSans-2e" x="63.623047"/>
       <use xlink:href="#DejaVuSans-33" x="95.410156"/>
      </g>
     </g>
    </g>
    <g id="ytick_2">
     <g id="line2d_9">
      <g>
       <use xlink:href="#m0a59120464" x="43.78125" y="548.440683" style="stroke: #000000; stroke-width: 0.8"/>
      </g>
     </g>
     <g id="text_10">
      <!-- 0.4 -->
      <g transform="translate(20.878125 552.239902) scale(0.1 -0.1)">
       <use xlink:href="#DejaVuSans-30"/>
       <use xlink:href="#DejaVuSans-2e" x="63.623047"/>
       <use xlink:href="#DejaVuSans-34" x="95.410156"/>
      </g>
     </g>
    </g>
    <g id="ytick_3">
     <g id="line2d_10">
      <g>
       <use xlink:href="#m0a59120464" x="43.78125" y="467.84086" style="stroke: #000000; stroke-width: 0.8"/>
      </g>
     </g>
     <g id="text_11">
      <!-- 0.5 -->
      <g transform="translate(20.878125 471.640079) scale(0.1 -0.1)">
       <use xlink:href="#DejaVuSans-30"/>
       <use xlink:href="#DejaVuSans-2e" x="63.623047"/>
       <use xlink:href="#DejaVuSans-35" x="95.410156"/>
      </g>
     </g>
    </g>
    <g id="ytick_4">
     <g id="line2d_11">
      <g>
       <use xlink:href="#m0a59120464" x="43.78125" y="387.241037" style="stroke: #000000; stroke-width: 0.8"/>
      </g>
     </g>
     <g id="text_12">
      <!-- 0.6 -->
      <g transform="translate(20.878125 391.040256) scale(0.1 -0.1)">
       <use xlink:href="#DejaVuSans-30"/>
       <use xlink:href="#DejaVuSans-2e" x="63.623047"/>
       <use xlink:href="#DejaVuSans-36" x="95.410156"/>
      </g>
     </g>
    </g>
    <g id="ytick_5">
     <g id="line2d_12">
      <g>
       <use xlink:href="#m0a59120464" x="43.78125" y="306.641214" style="stroke: #000000; stroke-width: 0.8"/>
      </g>
     </g>
     <g id="text_13">
      <!-- 0.7 -->
      <g transform="translate(20.878125 310.440432) scale(0.1 -0.1)">
       <use xlink:href="#DejaVuSans-30"/>
       <use xlink:href="#DejaVuSans-2e" x="63.623047"/>
       <use xlink:href="#DejaVuSans-37" x="95.410156"/>
      </g>
     </g>
    </g>
    <g id="ytick_6">
     <g id="line2d_13">
      <g>
       <use xlink:href="#m0a59120464" x="43.78125" y="226.041391" style="stroke: #000000; stroke-width: 0.8"/>
      </g>
     </g>
     <g id="text_14">
      <!-- 0.8 -->
      <g transform="translate(20.878125 229.840609) scale(0.1 -0.1)">
       <use xlink:href="#DejaVuSans-30"/>
       <use xlink:href="#DejaVuSans-2e" x="63.623047"/>
       <use xlink:href="#DejaVuSans-38" x="95.410156"/>
      </g>
     </g>
    </g>
    <g id="text_15">
     <!-- Correlation coefficient -->
     <g transform="translate(14.798438 452.712284) rotate(-90) scale(0.1 -0.1)">
      <defs>
       <path id="DejaVuSans-43" d="M 4122 4306 
L 4122 3641 
Q 3803 3938 3442 4084 
Q 3081 4231 2675 4231 
Q 1875 4231 1450 3742 
Q 1025 3253 1025 2328 
Q 1025 1406 1450 917 
Q 1875 428 2675 428 
Q 3081 428 3442 575 
Q 3803 722 4122 1019 
L 4122 359 
Q 3791 134 3420 21 
Q 3050 -91 2638 -91 
Q 1578 -91 968 557 
Q 359 1206 359 2328 
Q 359 3453 968 4101 
Q 1578 4750 2638 4750 
Q 3056 4750 3426 4639 
Q 3797 4528 4122 4306 
z
" transform="scale(0.015625)"/>
       <path id="DejaVuSans-61" d="M 2194 1759 
Q 1497 1759 1228 1600 
Q 959 1441 959 1056 
Q 959 750 1161 570 
Q 1363 391 1709 391 
Q 2188 391 2477 730 
Q 2766 1069 2766 1631 
L 2766 1759 
L 2194 1759 
z
M 3341 1997 
L 3341 0 
L 2766 0 
L 2766 531 
Q 2569 213 2275 61 
Q 1981 -91 1556 -91 
Q 1019 -91 701 211 
Q 384 513 384 1019 
Q 384 1609 779 1909 
Q 1175 2209 1959 2209 
L 2766 2209 
L 2766 2266 
Q 2766 2663 2505 2880 
Q 2244 3097 1772 3097 
Q 1472 3097 1187 3025 
Q 903 2953 641 2809 
L 641 3341 
Q 956 3463 1253 3523 
Q 1550 3584 1831 3584 
Q 2591 3584 2966 3190 
Q 3341 2797 3341 1997 
z
" transform="scale(0.015625)"/>
       <path id="DejaVuSans-63" d="M 3122 3366 
L 3122 2828 
Q 2878 2963 2633 3030 
Q 2388 3097 2138 3097 
Q 1578 3097 1268 2742 
Q 959 2388 959 1747 
Q 959 1106 1268 751 
Q 1578 397 2138 397 
Q 2388 397 2633 464 
Q 2878 531 3122 666 
L 3122 134 
Q 2881 22 2623 -34 
Q 2366 -91 2075 -91 
Q 1284 -91 818 406 
Q 353 903 353 1747 
Q 353 2603 823 3093 
Q 1294 3584 2113 3584 
Q 2378 3584 2631 3529 
Q 2884 3475 3122 3366 
z
" transform="scale(0.015625)"/>
       <path id="DejaVuSans-66" d="M 2375 4863 
L 2375 4384 
L 1825 4384 
Q 1516 4384 1395 4259 
Q 1275 4134 1275 3809 
L 1275 3500 
L 2222 3500 
L 2222 3053 
L 1275 3053 
L 1275 0 
L 697 0 
L 697 3053 
L 147 3053 
L 147 3500 
L 697 3500 
L 697 3744 
Q 697 4328 969 4595 
Q 1241 4863 1831 4863 
L 2375 4863 
z
" transform="scale(0.015625)"/>
      </defs>
      <use xlink:href="#DejaVuSans-43"/>
      <use xlink:href="#DejaVuSans-6f" x="69.824219"/>
      <use xlink:href="#DejaVuSans-72" x="131.005859"/>
      <use xlink:href="#DejaVuSans-72" x="170.369141"/>
      <use xlink:href="#DejaVuSans-65" x="209.232422"/>
      <use xlink:href="#DejaVuSans-6c" x="270.755859"/>
      <use xlink:href="#DejaVuSans-61" x="298.539062"/>
      <use xlink:href="#DejaVuSans-74" x="359.818359"/>
      <use xlink:href="#DejaVuSans-69" x="399.027344"/>
      <use xlink:href="#DejaVuSans-6f" x="426.810547"/>
      <use xlink:href="#DejaVuSans-6e" x="487.992188"/>
      <use xlink:href="#DejaVuSans-20" x="551.371094"/>
      <use xlink:href="#DejaVuSans-63" x="583.158203"/>
      <use xlink:href="#DejaVuSans-6f" x="638.138672"/>
      <use xlink:href="#DejaVuSans-65" x="699.320312"/>
      <use xlink:href="#DejaVuSans-66" x="760.84375"/>
      <use xlink:href="#DejaVuSans-66" x="796.048828"/>
      <use xlink:href="#DejaVuSans-69" x="831.253906"/>
      <use xlink:href="#DejaVuSans-63" x="859.037109"/>
      <use xlink:href="#DejaVuSans-69" x="914.017578"/>
      <use xlink:href="#DejaVuSans-65" x="941.800781"/>
      <use xlink:href="#DejaVuSans-6e" x="1003.324219"/>
      <use xlink:href="#DejaVuSans-74" x="1066.703125"/>
     </g>
    </g>
   </g>
   <g id="line2d_14">
    <path d="M 78.938101 458.867412 
L 86.040495 457.167322 
L 93.142889 455.467232 
L 100.245283 453.767142 
L 107.347677 452.067052 
L 114.450071 450.366961 
L 121.552465 448.666871 
L 128.654859 446.966781 
L 135.757253 445.266691 
L 142.859647 443.566601 
L 149.962041 441.866511 
L 157.064435 440.166421 
L 164.166829 438.466331 
L 171.269224 436.766241 
L 178.371618 435.06615 
L 185.474012 433.36606 
L 192.576406 431.66597 
L 199.6788 429.96588 
L 206.781194 428.26579 
L 213.883588 426.5657 
L 220.985982 424.86561 
L 228.088376 423.16552 
L 235.19077 421.46543 
L 242.293164 419.765339 
L 249.395558 418.065249 
L 256.497952 416.365159 
L 263.600346 414.665069 
L 270.702741 412.964979 
L 277.805135 411.264889 
L 284.907529 409.564799 
L 292.009923 407.864709 
L 299.112317 406.164619 
L 306.214711 404.464528 
L 313.317105 402.764438 
L 320.419499 401.064348 
L 327.521893 399.364258 
L 334.624287 397.664168 
L 341.726681 395.964078 
L 348.829075 394.263988 
L 355.931469 392.563898 
L 363.033863 390.863808 
L 370.136258 389.163718 
L 377.238652 387.463627 
L 384.341046 385.763537 
L 391.44344 384.063447 
L 398.545834 382.363357 
L 405.648228 380.663267 
L 412.750622 378.963177 
L 419.853016 377.263087 
L 426.95541 375.562997 
L 434.057804 373.862907 
L 441.160198 372.162816 
L 448.262592 370.462726 
L 455.364986 368.762636 
L 462.46738 367.062546 
L 469.569775 365.362456 
L 476.672169 363.662366 
L 483.774563 361.962276 
L 490.876957 360.262186 
L 497.979351 358.562096 
L 505.081745 356.862005 
L 512.184139 355.161915 
L 519.286533 353.461825 
L 526.388927 351.761735 
L 533.491321 350.061645 
L 540.593715 348.361555 
L 547.696109 346.661465 
L 554.798503 344.961375 
L 561.900897 343.261285 
L 569.003292 341.561194 
L 576.105686 339.861104 
L 583.20808 338.161014 
L 590.310474 336.460924 
L 597.412868 334.760834 
L 604.515262 333.060744 
L 611.617656 331.360654 
L 618.72005 329.660564 
L 625.822444 327.960474 
L 632.924838 326.260384 
L 640.027232 324.560293 
L 647.129626 322.860203 
L 654.23202 321.160113 
L 661.334414 319.460023 
L 668.436809 317.759933 
L 675.539203 316.059843 
L 682.641597 314.359753 
L 689.743991 312.659663 
L 696.846385 310.959573 
L 703.948779 309.259482 
L 711.051173 307.559392 
L 718.153567 305.859302 
L 725.255961 304.159212 
L 732.358355 302.459122 
L 739.460749 300.759032 
L 746.563143 299.058942 
L 753.665537 297.358852 
L 760.767931 295.658762 
L 767.870325 293.958671 
L 774.97272 292.258581 
L 782.075114 290.558491 
" clip-path="url(#p654c3c6e0f)" style="fill: none; stroke: #1f77b4; stroke-width: 2.25; stroke-linecap: square"/>
   </g>
   <g id="line2d_15">
    <path d="M 78.938101 426.892535 
L 86.040495 426.05959 
L 93.142889 425.226645 
L 100.245283 424.393701 
L 107.347677 423.560756 
L 114.450071 422.727811 
L 121.552465 421.894867 
L 128.654859 421.061922 
L 135.757253 420.228977 
L 142.859647 419.396032 
L 149.962041 418.563088 
L 157.064435 417.730143 
L 164.166829 416.897198 
L 171.269224 416.064254 
L 178.371618 415.231309 
L 185.474012 414.398364 
L 192.576406 413.56542 
L 199.6788 412.732475 
L 206.781194 411.89953 
L 213.883588 411.066586 
L 220.985982 410.233641 
L 228.088376 409.400696 
L 235.19077 408.567752 
L 242.293164 407.734807 
L 249.395558 406.901862 
L 256.497952 406.068918 
L 263.600346 405.235973 
L 270.702741 404.403028 
L 277.805135 403.570084 
L 284.907529 402.737139 
L 292.009923 401.904194 
L 299.112317 401.07125 
L 306.214711 400.238305 
L 313.317105 399.40536 
L 320.419499 398.572416 
L 327.521893 397.739471 
L 334.624287 396.906526 
L 341.726681 396.073582 
L 348.829075 395.240637 
L 355.931469 394.407692 
L 363.033863 393.574747 
L 370.136258 392.741803 
L 377.238652 391.908858 
L 384.341046 391.075913 
L 391.44344 390.242969 
L 398.545834 389.410024 
L 405.648228 388.577079 
L 412.750622 387.744135 
L 419.853016 386.91119 
L 426.95541 386.078245 
L 434.057804 385.245301 
L 441.160198 384.412356 
L 448.262592 383.579411 
L 455.364986 382.746467 
L 462.46738 381.913522 
L 469.569775 381.080577 
L 476.672169 380.247633 
L 483.774563 379.414688 
L 490.876957 378.581743 
L 497.979351 377.748799 
L 505.081745 376.915854 
L 512.184139 376.082909 
L 519.286533 375.249965 
L 526.388927 374.41702 
L 533.491321 373.584075 
L 540.593715 372.751131 
L 547.696109 371.918186 
L 554.798503 371.085241 
L 561.900897 370.252296 
L 569.003292 369.419352 
L 576.105686 368.586407 
L 583.20808 367.753462 
L 590.310474 366.920518 
L 597.412868 366.087573 
L 604.515262 365.254628 
L 611.617656 364.421684 
L 618.72005 363.588739 
L 625.822444 362.755794 
L 632.924838 361.92285 
L 640.027232 361.089905 
L 647.129626 360.25696 
L 654.23202 359.424016 
L 661.334414 358.591071 
L 668.436809 357.758126 
L 675.539203 356.925182 
L 682.641597 356.092237 
L 689.743991 355.259292 
L 696.846385 354.426348 
L 703.948779 353.593403 
L 711.051173 352.760458 
L 718.153567 351.927514 
L 725.255961 351.094569 
L 732.358355 350.261624 
L 739.460749 349.42868 
L 746.563143 348.595735 
L 753.665537 347.76279 
L 760.767931 346.929846 
L 767.870325 346.096901 
L 774.97272 345.263956 
L 782.075114 344.431011 
" clip-path="url(#p654c3c6e0f)" style="fill: none; stroke: #ff7f0e; stroke-width: 2.25; stroke-linecap: square"/>
   </g>
   <g id="patch_3">
    <path d="M 43.78125 642.866667 
L 43.78125 151.965714 
" style="fill: none; stroke: #000000; stroke-width: 0.8; stroke-linejoin: miter; stroke-linecap: square"/>
   </g>
   <g id="patch_4">
    <path d="M 43.78125 642.866667 
L 817.231964 642.866667 
" style="fill: none; stroke: #000000; stroke-width: 0.8; stroke-linejoin: miter; stroke-linecap: square"/>
   </g>
   <g id="legend_1">
    <g id="patch_5">
     <path d="M 704.119464 637.866667 
L 810.231964 637.866667 
Q 812.231964 637.866667 812.231964 635.866667 
L 812.231964 607.510417 
Q 812.231964 605.510417 810.231964 605.510417 
L 704.119464 605.510417 
Q 702.119464 605.510417 702.119464 607.510417 
L 702.119464 635.866667 
Q 702.119464 637.866667 704.119464 637.866667 
z
" style="fill: #ffffff; opacity: 0.8; stroke: #cccccc; stroke-linejoin: miter"/>
    </g>
    <g id="PathCollection_3">
     <g>
      <use xlink:href="#me5a016f053" x="716.119464" y="614.483854" style="fill: #4169e1; fill-opacity: 0.5; stroke: #000000; stroke-opacity: 0.5"/>
     </g>
    </g>
    <g id="text_16">
     <!-- Codon number -->
     <g transform="translate(734.119464 617.108854) scale(0.1 -0.1)">
      <defs>
       <path id="DejaVuSans-64" d="M 2906 2969 
L 2906 4863 
L 3481 4863 
L 3481 0 
L 2906 0 
L 2906 525 
Q 2725 213 2448 61 
Q 2172 -91 1784 -91 
Q 1150 -91 751 415 
Q 353 922 353 1747 
Q 353 2572 751 3078 
Q 1150 3584 1784 3584 
Q 2172 3584 2448 3432 
Q 2725 3281 2906 2969 
z
M 947 1747 
Q 947 1113 1208 752 
Q 1469 391 1925 391 
Q 2381 391 2643 752 
Q 2906 1113 2906 1747 
Q 2906 2381 2643 2742 
Q 2381 3103 1925 3103 
Q 1469 3103 1208 2742 
Q 947 2381 947 1747 
z
" transform="scale(0.015625)"/>
       <path id="DejaVuSans-75" d="M 544 1381 
L 544 3500 
L 1119 3500 
L 1119 1403 
Q 1119 906 1312 657 
Q 1506 409 1894 409 
Q 2359 409 2629 706 
Q 2900 1003 2900 1516 
L 2900 3500 
L 3475 3500 
L 3475 0 
L 2900 0 
L 2900 538 
Q 2691 219 2414 64 
Q 2138 -91 1772 -91 
Q 1169 -91 856 284 
Q 544 659 544 1381 
z
M 1991 3584 
L 1991 3584 
z
" transform="scale(0.015625)"/>
       <path id="DejaVuSans-6d" d="M 3328 2828 
Q 3544 3216 3844 3400 
Q 4144 3584 4550 3584 
Q 5097 3584 5394 3201 
Q 5691 2819 5691 2113 
L 5691 0 
L 5113 0 
L 5113 2094 
Q 5113 2597 4934 2840 
Q 4756 3084 4391 3084 
Q 3944 3084 3684 2787 
Q 3425 2491 3425 1978 
L 3425 0 
L 2847 0 
L 2847 2094 
Q 2847 2600 2669 2842 
Q 2491 3084 2119 3084 
Q 1678 3084 1418 2786 
Q 1159 2488 1159 1978 
L 1159 0 
L 581 0 
L 581 3500 
L 1159 3500 
L 1159 2956 
Q 1356 3278 1631 3431 
Q 1906 3584 2284 3584 
Q 2666 3584 2933 3390 
Q 3200 3197 3328 2828 
z
" transform="scale(0.015625)"/>
       <path id="DejaVuSans-62" d="M 3116 1747 
Q 3116 2381 2855 2742 
Q 2594 3103 2138 3103 
Q 1681 3103 1420 2742 
Q 1159 2381 1159 1747 
Q 1159 1113 1420 752 
Q 1681 391 2138 391 
Q 2594 391 2855 752 
Q 3116 1113 3116 1747 
z
M 1159 2969 
Q 1341 3281 1617 3432 
Q 1894 3584 2278 3584 
Q 2916 3584 3314 3078 
Q 3713 2572 3713 1747 
Q 3713 922 3314 415 
Q 2916 -91 2278 -91 
Q 1894 -91 1617 61 
Q 1341 213 1159 525 
L 1159 0 
L 581 0 
L 581 4863 
L 1159 4863 
L 1159 2969 
z
" transform="scale(0.015625)"/>
      </defs>
      <use xlink:href="#DejaVuSans-43"/>
      <use xlink:href="#DejaVuSans-6f" x="69.824219"/>
      <use xlink:href="#DejaVuSans-64" x="131.005859"/>
      <use xlink:href="#DejaVuSans-6f" x="194.482422"/>
      <use xlink:href="#DejaVuSans-6e" x="255.664062"/>
      <use xlink:href="#DejaVuSans-20" x="319.042969"/>
      <use xlink:href="#DejaVuSans-6e" x="350.830078"/>
      <use xlink:href="#DejaVuSans-75" x="414.208984"/>
      <use xlink:href="#DejaVuSans-6d" x="477.587891"/>
      <use xlink:href="#DejaVuSans-62" x="575"/>
      <use xlink:href="#DejaVuSans-65" x="638.476562"/>
      <use xlink:href="#DejaVuSans-72" x="700"/>
     </g>
    </g>
    <g id="PathCollection_4">
     <g>
      <use xlink:href="#mf21fad3d77" x="716.119464" y="629.161979" style="fill: #ff8c00; fill-opacity: 0.5; stroke: #000000; stroke-opacity: 0.5"/>
     </g>
    </g>
    <g id="text_17">
     <!-- Codon+GC -->
     <g transform="translate(734.119464 631.786979) scale(0.1 -0.1)">
      <defs>
       <path id="DejaVuSans-2b" d="M 2944 4013 
L 2944 2272 
L 4684 2272 
L 4684 1741 
L 2944 1741 
L 2944 0 
L 2419 0 
L 2419 1741 
L 678 1741 
L 678 2272 
L 2419 2272 
L 2419 4013 
L 2944 4013 
z
" transform="scale(0.015625)"/>
       <path id="DejaVuSans-47" d="M 3809 666 
L 3809 1919 
L 2778 1919 
L 2778 2438 
L 4434 2438 
L 4434 434 
Q 4069 175 3628 42 
Q 3188 -91 2688 -91 
Q 1594 -91 976 548 
Q 359 1188 359 2328 
Q 359 3472 976 4111 
Q 1594 4750 2688 4750 
Q 3144 4750 3555 4637 
Q 3966 4525 4313 4306 
L 4313 3634 
Q 3963 3931 3569 4081 
Q 3175 4231 2741 4231 
Q 1884 4231 1454 3753 
Q 1025 3275 1025 2328 
Q 1025 1384 1454 906 
Q 1884 428 2741 428 
Q 3075 428 3337 486 
Q 3600 544 3809 666 
z
" transform="scale(0.015625)"/>
      </defs>
      <use xlink:href="#DejaVuSans-43"/>
      <use xlink:href="#DejaVuSans-6f" x="69.824219"/>
      <use xlink:href="#DejaVuSans-64" x="131.005859"/>
      <use xlink:href="#DejaVuSans-6f" x="194.482422"/>
      <use xlink:href="#DejaVuSans-6e" x="255.664062"/>
      <use xlink:href="#DejaVuSans-2b" x="319.042969"/>
      <use xlink:href="#DejaVuSans-47" x="402.832031"/>
      <use xlink:href="#DejaVuSans-43" x="480.322266"/>
     </g>
    </g>
   </g>
  </g>
  <g id="axes_2">
   <g id="patch_6">
    <path d="M 43.78125 135.038095 
L 817.231964 135.038095 
L 817.231964 50.4 
L 43.78125 50.4 
z
" style="fill: #ffffff"/>
   </g>
   <g id="PolyCollection_3">
    <defs>
     <path id="m455417c22f" d="M 78.938101 -549.415207 
L 78.938101 -545.384821 
L 112.420816 -545.384821 
L 112.420816 -545.384821 
L 145.90353 -545.384821 
L 145.90353 -545.384821 
L 179.386245 -545.384821 
L 179.386245 -545.384821 
L 212.86896 -545.384821 
L 212.86896 -545.384821 
L 246.351675 -545.384821 
L 246.351675 -545.384821 
L 279.83439 -545.384821 
L 279.83439 -545.384821 
L 313.317105 -545.384821 
L 313.317105 -545.384821 
L 346.79982 -545.384821 
L 346.79982 -545.384821 
L 380.282535 -545.384821 
L 380.282535 -545.384821 
L 413.76525 -545.384821 
L 413.76525 -545.384821 
L 447.247965 -545.384821 
L 447.247965 -545.384821 
L 480.730679 -545.384821 
L 480.730679 -545.384821 
L 514.213394 -545.384821 
L 514.213394 -545.384821 
L 547.696109 -545.384821 
L 547.696109 -545.384821 
L 581.178824 -545.384821 
L 581.178824 -545.384821 
L 614.661539 -545.384821 
L 614.661539 -545.384821 
L 648.144254 -545.384821 
L 648.144254 -545.384821 
L 681.626969 -545.384821 
L 681.626969 -545.384821 
L 715.109684 -545.384821 
L 715.109684 -545.384821 
L 748.592399 -545.384821 
L 748.592399 -545.384821 
L 782.075114 -545.384821 
L 782.075114 -545.384821 
L 782.075114 -549.415207 
L 782.075114 -549.415207 
L 782.075114 -549.415207 
L 748.592399 -549.415207 
L 748.592399 -545.384821 
L 715.109684 -545.384821 
L 715.109684 -545.384821 
L 681.626969 -545.384821 
L 681.626969 -545.384821 
L 648.144254 -545.384821 
L 648.144254 -545.384821 
L 614.661539 -545.384821 
L 614.661539 -549.415207 
L 581.178824 -549.415207 
L 581.178824 -549.415207 
L 547.696109 -549.415207 
L 547.696109 -545.384821 
L 514.213394 -545.384821 
L 514.213394 -549.415207 
L 480.730679 -549.415207 
L 480.730679 -569.567134 
L 447.247965 -569.567134 
L 447.247965 -585.688676 
L 413.76525 -585.688676 
L 413.76525 -625.992531 
L 380.282535 -625.992531 
L 380.282535 -589.719062 
L 346.79982 -589.719062 
L 346.79982 -573.59752 
L 313.317105 -573.59752 
L 313.317105 -553.445592 
L 279.83439 -553.445592 
L 279.83439 -549.415207 
L 246.351675 -549.415207 
L 246.351675 -545.384821 
L 212.86896 -545.384821 
L 212.86896 -565.536749 
L 179.386245 -565.536749 
L 179.386245 -545.384821 
L 145.90353 -545.384821 
L 145.90353 -545.384821 
L 112.420816 -545.384821 
L 112.420816 -549.415207 
L 78.938101 -549.415207 
z
" style="stroke: #000000"/>
    </defs>
    <g clip-path="url(#p7f3cf2574a)">
     <use xlink:href="#m455417c22f" x="0" y="680.422917" style="fill: #800080; fill-opacity: 0.75; stroke: #000000"/>
    </g>
   </g>
   <g id="matplotlib.axis_3">
    <g id="xtick_8">
     <g id="line2d_16">
      <g>
       <use xlink:href="#mb19fb3bc61" x="112.789865" y="135.038095" style="stroke: #000000; stroke-width: 0.8"/>
      </g>
     </g>
    </g>
    <g id="xtick_9">
     <g id="line2d_17">
      <g>
       <use xlink:href="#mb19fb3bc61" x="219.581185" y="135.038095" style="stroke: #000000; stroke-width: 0.8"/>
      </g>
     </g>
    </g>
    <g id="xtick_10">
     <g id="line2d_18">
      <g>
       <use xlink:href="#mb19fb3bc61" x="326.372504" y="135.038095" style="stroke: #000000; stroke-width: 0.8"/>
      </g>
     </g>
    </g>
    <g id="xtick_11">
     <g id="line2d_19">
      <g>
       <use xlink:href="#mb19fb3bc61" x="433.163824" y="135.038095" style="stroke: #000000; stroke-width: 0.8"/>
      </g>
     </g>
    </g>
    <g id="xtick_12">
     <g id="line2d_20">
      <g>
       <use xlink:href="#mb19fb3bc61" x="539.955143" y="135.038095" style="stroke: #000000; stroke-width: 0.8"/>
      </g>
     </g>
    </g>
    <g id="xtick_13">
     <g id="line2d_21">
      <g>
       <use xlink:href="#mb19fb3bc61" x="646.746462" y="135.038095" style="stroke: #000000; stroke-width: 0.8"/>
      </g>
     </g>
    </g>
    <g id="xtick_14">
     <g id="line2d_22">
      <g>
       <use xlink:href="#mb19fb3bc61" x="753.537782" y="135.038095" style="stroke: #000000; stroke-width: 0.8"/>
      </g>
     </g>
    </g>
   </g>
   <g id="matplotlib.axis_4">
    <g id="ytick_7"/>
    <g id="ytick_8"/>
    <g id="ytick_9"/>
   </g>
   <g id="patch_7">
    <path d="M 43.78125 135.038095 
L 817.231964 135.038095 
" style="fill: none; stroke: #000000; stroke-width: 0.8; stroke-linejoin: miter; stroke-linecap: square"/>
   </g>
  </g>
  <g id="axes_3">
   <g id="patch_8">
    <path d="M 843.902679 642.866667 
L 977.25625 642.866667 
L 977.25625 151.965714 
L 843.902679 151.965714 
z
" style="fill: #ffffff"/>
   </g>
   <g id="PolyCollection_4">
    <defs>
     <path id="m7ad660e2ea" d="M 871.571268 -92.030458 
L 849.964205 -92.030458 
L 849.964205 -92.030458 
L 849.964205 -145.663827 
L 849.964205 -145.663827 
L 849.964205 -199.297196 
L 849.964205 -199.297196 
L 849.964205 -252.930564 
L 849.964205 -252.930564 
L 849.964205 -306.563933 
L 849.964205 -306.563933 
L 849.964205 -360.197302 
L 849.964205 -360.197302 
L 849.964205 -413.830671 
L 871.571268 -413.830671 
L 871.571268 -413.830671 
L 871.571268 -360.197302 
L 903.981863 -360.197302 
L 903.981863 -306.563933 
L 947.195989 -306.563933 
L 947.195989 -252.930564 
L 936.392458 -252.930564 
L 936.392458 -199.297196 
L 903.981863 -199.297196 
L 903.981863 -145.663827 
L 876.973034 -145.663827 
L 876.973034 -92.030458 
L 871.571268 -92.030458 
z
" style="stroke: #000000; stroke-opacity: 0.5"/>
    </defs>
    <g clip-path="url(#p8183d9b6ae)">
     <use xlink:href="#m7ad660e2ea" x="0" y="680.422917" style="fill: #4169e1; fill-opacity: 0.5; stroke: #000000; stroke-opacity: 0.5"/>
    </g>
   </g>
   <g id="PolyCollection_5">
    <defs>
     <path id="m07fe704c7b" d="M 856.344758 -59.86993 
L 849.964205 -59.86993 
L 849.964205 -59.86993 
L 849.964205 -105.275848 
L 849.964205 -105.275848 
L 849.964205 -150.681766 
L 849.964205 -150.681766 
L 849.964205 -196.087685 
L 849.964205 -196.087685 
L 849.964205 -241.493603 
L 849.964205 -241.493603 
L 849.964205 -286.899521 
L 849.964205 -286.899521 
L 849.964205 -332.30544 
L 849.964205 -332.30544 
L 849.964205 -377.711358 
L 894.62808 -377.711358 
L 894.62808 -377.711358 
L 894.62808 -332.30544 
L 939.291956 -332.30544 
L 939.291956 -286.899521 
L 971.194724 -286.899521 
L 971.194724 -241.493603 
L 913.769741 -241.493603 
L 913.769741 -196.087685 
L 907.389187 -196.087685 
L 907.389187 -150.681766 
L 881.866973 -150.681766 
L 881.866973 -105.275848 
L 862.725312 -105.275848 
L 862.725312 -59.86993 
L 856.344758 -59.86993 
z
" style="stroke: #000000; stroke-opacity: 0.5"/>
    </defs>
    <g clip-path="url(#p8183d9b6ae)">
     <use xlink:href="#m07fe704c7b" x="0" y="680.422917" style="fill: #ff8c00; fill-opacity: 0.5; stroke: #000000; stroke-opacity: 0.5"/>
    </g>
   </g>
   <g id="matplotlib.axis_5">
    <g id="xtick_15"/>
    <g id="xtick_16"/>
    <g id="xtick_17"/>
   </g>
   <g id="matplotlib.axis_6">
    <g id="ytick_10">
     <g id="line2d_23">
      <g>
       <use xlink:href="#m0a59120464" x="843.902679" y="629.040506" style="stroke: #000000; stroke-width: 0.8"/>
      </g>
     </g>
    </g>
    <g id="ytick_11">
     <g id="line2d_24">
      <g>
       <use xlink:href="#m0a59120464" x="843.902679" y="548.440683" style="stroke: #000000; stroke-width: 0.8"/>
      </g>
     </g>
    </g>
    <g id="ytick_12">
     <g id="line2d_25">
      <g>
       <use xlink:href="#m0a59120464" x="843.902679" y="467.84086" style="stroke: #000000; stroke-width: 0.8"/>
      </g>
     </g>
    </g>
    <g id="ytick_13">
     <g id="line2d_26">
      <g>
       <use xlink:href="#m0a59120464" x="843.902679" y="387.241037" style="stroke: #000000; stroke-width: 0.8"/>
      </g>
     </g>
    </g>
    <g id="ytick_14">
     <g id="line2d_27">
      <g>
       <use xlink:href="#m0a59120464" x="843.902679" y="306.641214" style="stroke: #000000; stroke-width: 0.8"/>
      </g>
     </g>
    </g>
    <g id="ytick_15">
     <g id="line2d_28">
      <g>
       <use xlink:href="#m0a59120464" x="843.902679" y="226.041391" style="stroke: #000000; stroke-width: 0.8"/>
      </g>
     </g>
    </g>
   </g>
   <g id="patch_9">
    <path d="M 843.902679 642.866667 
L 843.902679 151.965714 
" style="fill: none; stroke: #000000; stroke-width: 0.8; stroke-linejoin: miter; stroke-linecap: square"/>
   </g>
  </g>
  <g id="text_18">
   <!-- Archaea - Spearman correlation coefficients for genetic code: CM -->
   <g transform="translate(268.475313 16.318125) scale(0.12 -0.12)">
    <defs>
     <path id="DejaVuSans-41" d="M 2188 4044 
L 1331 1722 
L 3047 1722 
L 2188 4044 
z
M 1831 4666 
L 2547 4666 
L 4325 0 
L 3669 0 
L 3244 1197 
L 1141 1197 
L 716 0 
L 50 0 
L 1831 4666 
z
" transform="scale(0.015625)"/>
     <path id="DejaVuSans-53" d="M 3425 4513 
L 3425 3897 
Q 3066 4069 2747 4153 
Q 2428 4238 2131 4238 
Q 1616 4238 1336 4038 
Q 1056 3838 1056 3469 
Q 1056 3159 1242 3001 
Q 1428 2844 1947 2747 
L 2328 2669 
Q 3034 2534 3370 2195 
Q 3706 1856 3706 1288 
Q 3706 609 3251 259 
Q 2797 -91 1919 -91 
Q 1588 -91 1214 -16 
Q 841 59 441 206 
L 441 856 
Q 825 641 1194 531 
Q 1563 422 1919 422 
Q 2459 422 2753 634 
Q 3047 847 3047 1241 
Q 3047 1584 2836 1778 
Q 2625 1972 2144 2069 
L 1759 2144 
Q 1053 2284 737 2584 
Q 422 2884 422 3419 
Q 422 4038 858 4394 
Q 1294 4750 2059 4750 
Q 2388 4750 2728 4690 
Q 3069 4631 3425 4513 
z
" transform="scale(0.015625)"/>
     <path id="DejaVuSans-70" d="M 1159 525 
L 1159 -1331 
L 581 -1331 
L 581 3500 
L 1159 3500 
L 1159 2969 
Q 1341 3281 1617 3432 
Q 1894 3584 2278 3584 
Q 2916 3584 3314 3078 
Q 3713 2572 3713 1747 
Q 3713 922 3314 415 
Q 2916 -91 2278 -91 
Q 1894 -91 1617 61 
Q 1341 213 1159 525 
z
M 3116 1747 
Q 3116 2381 2855 2742 
Q 2594 3103 2138 3103 
Q 1681 3103 1420 2742 
Q 1159 2381 1159 1747 
Q 1159 1113 1420 752 
Q 1681 391 2138 391 
Q 2594 391 2855 752 
Q 3116 1113 3116 1747 
z
" transform="scale(0.015625)"/>
     <path id="DejaVuSans-73" d="M 2834 3397 
L 2834 2853 
Q 2591 2978 2328 3040 
Q 2066 3103 1784 3103 
Q 1356 3103 1142 2972 
Q 928 2841 928 2578 
Q 928 2378 1081 2264 
Q 1234 2150 1697 2047 
L 1894 2003 
Q 2506 1872 2764 1633 
Q 3022 1394 3022 966 
Q 3022 478 2636 193 
Q 2250 -91 1575 -91 
Q 1294 -91 989 -36 
Q 684 19 347 128 
L 347 722 
Q 666 556 975 473 
Q 1284 391 1588 391 
Q 1994 391 2212 530 
Q 2431 669 2431 922 
Q 2431 1156 2273 1281 
Q 2116 1406 1581 1522 
L 1381 1569 
Q 847 1681 609 1914 
Q 372 2147 372 2553 
Q 372 3047 722 3315 
Q 1072 3584 1716 3584 
Q 2034 3584 2315 3537 
Q 2597 3491 2834 3397 
z
" transform="scale(0.015625)"/>
     <path id="DejaVuSans-3a" d="M 750 794 
L 1409 794 
L 1409 0 
L 750 0 
L 750 794 
z
M 750 3309 
L 1409 3309 
L 1409 2516 
L 750 2516 
L 750 3309 
z
" transform="scale(0.015625)"/>
     <path id="DejaVuSans-4d" d="M 628 4666 
L 1569 4666 
L 2759 1491 
L 3956 4666 
L 4897 4666 
L 4897 0 
L 4281 0 
L 4281 4097 
L 3078 897 
L 2444 897 
L 1241 4097 
L 1241 0 
L 628 0 
L 628 4666 
z
" transform="scale(0.015625)"/>
    </defs>
    <use xlink:href="#DejaVuSans-41"/>
    <use xlink:href="#DejaVuSans-72" x="68.408203"/>
    <use xlink:href="#DejaVuSans-63" x="107.271484"/>
    <use xlink:href="#DejaVuSans-68" x="162.251953"/>
    <use xlink:href="#DejaVuSans-61" x="225.630859"/>
    <use xlink:href="#DejaVuSans-65" x="286.910156"/>
    <use xlink:href="#DejaVuSans-61" x="348.433594"/>
    <use xlink:href="#DejaVuSans-20" x="409.712891"/>
    <use xlink:href="#DejaVuSans-2d" x="441.5"/>
    <use xlink:href="#DejaVuSans-20" x="477.583984"/>
    <use xlink:href="#DejaVuSans-53" x="509.371094"/>
    <use xlink:href="#DejaVuSans-70" x="572.847656"/>
    <use xlink:href="#DejaVuSans-65" x="636.324219"/>
    <use xlink:href="#DejaVuSans-61" x="697.847656"/>
    <use xlink:href="#DejaVuSans-72" x="759.126953"/>
    <use xlink:href="#DejaVuSans-6d" x="798.490234"/>
    <use xlink:href="#DejaVuSans-61" x="895.902344"/>
    <use xlink:href="#DejaVuSans-6e" x="957.181641"/>
    <use xlink:href="#DejaVuSans-20" x="1020.560547"/>
    <use xlink:href="#DejaVuSans-63" x="1052.347656"/>
    <use xlink:href="#DejaVuSans-6f" x="1107.328125"/>
    <use xlink:href="#DejaVuSans-72" x="1168.509766"/>
    <use xlink:href="#DejaVuSans-72" x="1207.873047"/>
    <use xlink:href="#DejaVuSans-65" x="1246.736328"/>
    <use xlink:href="#DejaVuSans-6c" x="1308.259766"/>
    <use xlink:href="#DejaVuSans-61" x="1336.042969"/>
    <use xlink:href="#DejaVuSans-74" x="1397.322266"/>
    <use xlink:href="#DejaVuSans-69" x="1436.53125"/>
    <use xlink:href="#DejaVuSans-6f" x="1464.314453"/>
    <use xlink:href="#DejaVuSans-6e" x="1525.496094"/>
    <use xlink:href="#DejaVuSans-20" x="1588.875"/>
    <use xlink:href="#DejaVuSans-63" x="1620.662109"/>
    <use xlink:href="#DejaVuSans-6f" x="1675.642578"/>
    <use xlink:href="#DejaVuSans-65" x="1736.824219"/>
    <use xlink:href="#DejaVuSans-66" x="1798.347656"/>
    <use xlink:href="#DejaVuSans-66" x="1833.552734"/>
    <use xlink:href="#DejaVuSans-69" x="1868.757812"/>
    <use xlink:href="#DejaVuSans-63" x="1896.541016"/>
    <use xlink:href="#DejaVuSans-69" x="1951.521484"/>
    <use xlink:href="#DejaVuSans-65" x="1979.304688"/>
    <use xlink:href="#DejaVuSans-6e" x="2040.828125"/>
    <use xlink:href="#DejaVuSans-74" x="2104.207031"/>
    <use xlink:href="#DejaVuSans-73" x="2143.416016"/>
    <use xlink:href="#DejaVuSans-20" x="2195.515625"/>
    <use xlink:href="#DejaVuSans-66" x="2227.302734"/>
    <use xlink:href="#DejaVuSans-6f" x="2262.507812"/>
    <use xlink:href="#DejaVuSans-72" x="2323.689453"/>
    <use xlink:href="#DejaVuSans-20" x="2364.802734"/>
    <use xlink:href="#DejaVuSans-67" x="2396.589844"/>
    <use xlink:href="#DejaVuSans-65" x="2460.066406"/>
    <use xlink:href="#DejaVuSans-6e" x="2521.589844"/>
    <use xlink:href="#DejaVuSans-65" x="2584.96875"/>
    <use xlink:href="#DejaVuSans-74" x="2646.492188"/>
    <use xlink:href="#DejaVuSans-69" x="2685.701172"/>
    <use xlink:href="#DejaVuSans-63" x="2713.484375"/>
    <use xlink:href="#DejaVuSans-20" x="2768.464844"/>
    <use xlink:href="#DejaVuSans-63" x="2800.251953"/>
    <use xlink:href="#DejaVuSans-6f" x="2855.232422"/>
    <use xlink:href="#DejaVuSans-64" x="2916.414062"/>
    <use xlink:href="#DejaVuSans-65" x="2979.890625"/>
    <use xlink:href="#DejaVuSans-3a" x="3041.414062"/>
    <use xlink:href="#DejaVuSans-20" x="3075.105469"/>
    <use xlink:href="#DejaVuSans-43" x="3106.892578"/>
    <use xlink:href="#DejaVuSans-4d" x="3176.716797"/>
   </g>
  </g>
 </g>
 <defs>
  <clipPath id="p654c3c6e0f">
   <rect x="43.78125" y="151.965714" width="773.450714" height="490.900952"/>
  </clipPath>
  <clipPath id="p7f3cf2574a">
   <rect x="43.78125" y="50.4" width="773.450714" height="84.638095"/>
  </clipPath>
  <clipPath id="p8183d9b6ae">
   <rect x="843.902679" y="151.965714" width="133.353571" height="490.900952"/>
  </clipPath>
 </defs>
</svg>
