<?xml version="1.0" encoding="utf-8" standalone="no"?>
<!DOCTYPE svg PUBLIC "-//W3C//DTD SVG 1.1//EN"
  "http://www.w3.org/Graphics/SVG/1.1/DTD/svg11.dtd">
<svg xmlns:xlink="http://www.w3.org/1999/xlink" width="984.45625pt" height="680.422917pt" viewBox="0 0 984.45625 680.422917" xmlns="http://www.w3.org/2000/svg" version="1.1">
 <metadata>
  <rdf:RDF xmlns:dc="http://purl.org/dc/elements/1.1/" xmlns:cc="http://creativecommons.org/ns#" xmlns:rdf="http://www.w3.org/1999/02/22-rdf-syntax-ns#">
   <cc:Work>
    <dc:type rdf:resource="http://purl.org/dc/dcmitype/StillImage"/>
    <dc:date>2025-01-27T09:31:47.684513</dc:date>
    <dc:format>image/svg+xml</dc:format>
    <dc:creator>
     <cc:Agent>
      <dc:title>Matplotlib v3.6.3, https://matplotlib.org/</dc:title>
     </cc:Agent>
    </dc:creator>
   </cc:Work>
  </rdf:RDF>
 </metadata>
 <defs>
  <style type="text/css">*{stroke-linejoin: round; stroke-linecap: butt}</style>
 </defs>
 <g id="figure_1">
  <g id="patch_1">
   <path d="M 0 680.422917 
L 984.45625 680.422917 
L 984.45625 0 
L 0 0 
z
" style="fill: #ffffff"/>
  </g>
  <g id="axes_1">
   <g id="patch_2">
    <path d="M 43.78125 642.866667 
L 817.231964 642.866667 
L 817.231964 151.965714 
L 43.78125 151.965714 
z
" style="fill: #ffffff"/>
   </g>
   <g id="PathCollection_1">
    <defs>
     <path id="mcc28343fac" d="M 0 3 
C 0.795609 3 1.55874 2.683901 2.12132 2.12132 
C 2.683901 1.55874 3 0.795609 3 0 
C 3 -0.795609 2.683901 -1.55874 2.12132 -2.12132 
C 1.55874 -2.683901 0.795609 -3 0 -3 
C -0.795609 -3 -1.55874 -2.683901 -2.12132 -2.12132 
C -2.683901 -1.55874 -3 -0.795609 -3 0 
C -3 0.795609 -2.683901 1.55874 -2.12132 2.12132 
C -1.55874 2.683901 -0.795609 3 0 3 
z
" style="stroke: #000000; stroke-opacity: 0.5"/>
    </defs>
    <g clip-path="url(#p23350c2b30)">
     <use xlink:href="#mcc28343fac" x="230.581865" y="479.345613" style="fill: #4169e1; fill-opacity: 0.5; stroke: #000000; stroke-opacity: 0.5"/>
     <use xlink:href="#mcc28343fac" x="250.77199" y="359.304601" style="fill: #4169e1; fill-opacity: 0.5; stroke: #000000; stroke-opacity: 0.5"/>
     <use xlink:href="#mcc28343fac" x="259.792425" y="374.940195" style="fill: #4169e1; fill-opacity: 0.5; stroke: #000000; stroke-opacity: 0.5"/>
     <use xlink:href="#mcc28343fac" x="259.439917" y="467.745011" style="fill: #4169e1; fill-opacity: 0.5; stroke: #000000; stroke-opacity: 0.5"/>
     <use xlink:href="#mcc28343fac" x="283.830577" y="403.185139" style="fill: #4169e1; fill-opacity: 0.5; stroke: #000000; stroke-opacity: 0.5"/>
     <use xlink:href="#mcc28343fac" x="212.091036" y="454.126913" style="fill: #4169e1; fill-opacity: 0.5; stroke: #000000; stroke-opacity: 0.5"/>
     <use xlink:href="#mcc28343fac" x="293.262232" y="445.048181" style="fill: #4169e1; fill-opacity: 0.5; stroke: #000000; stroke-opacity: 0.5"/>
     <use xlink:href="#mcc28343fac" x="267.432497" y="413.776993" style="fill: #4169e1; fill-opacity: 0.5; stroke: #000000; stroke-opacity: 0.5"/>
     <use xlink:href="#mcc28343fac" x="492.719239" y="321.980925" style="fill: #4169e1; fill-opacity: 0.5; stroke: #000000; stroke-opacity: 0.5"/>
     <use xlink:href="#mcc28343fac" x="136.227431" y="591.586768" style="fill: #4169e1; fill-opacity: 0.5; stroke: #000000; stroke-opacity: 0.5"/>
     <use xlink:href="#mcc28343fac" x="180.537147" y="498.142105" style="fill: #4169e1; fill-opacity: 0.5; stroke: #000000; stroke-opacity: 0.5"/>
     <use xlink:href="#mcc28343fac" x="305.497493" y="391.080163" style="fill: #4169e1; fill-opacity: 0.5; stroke: #000000; stroke-opacity: 0.5"/>
     <use xlink:href="#mcc28343fac" x="223.504145" y="438.373696" style="fill: #4169e1; fill-opacity: 0.5; stroke: #000000; stroke-opacity: 0.5"/>
     <use xlink:href="#mcc28343fac" x="246.317574" y="506.077435" style="fill: #4169e1; fill-opacity: 0.5; stroke: #000000; stroke-opacity: 0.5"/>
     <use xlink:href="#mcc28343fac" x="286.228289" y="522.217403" style="fill: #4169e1; fill-opacity: 0.5; stroke: #000000; stroke-opacity: 0.5"/>
     <use xlink:href="#mcc28343fac" x="248.277304" y="348.208373" style="fill: #4169e1; fill-opacity: 0.5; stroke: #000000; stroke-opacity: 0.5"/>
     <use xlink:href="#mcc28343fac" x="232.315042" y="444.543807" style="fill: #4169e1; fill-opacity: 0.5; stroke: #000000; stroke-opacity: 0.5"/>
     <use xlink:href="#mcc28343fac" x="347.715078" y="410.246375" style="fill: #4169e1; fill-opacity: 0.5; stroke: #000000; stroke-opacity: 0.5"/>
     <use xlink:href="#mcc28343fac" x="229.620974" y="412.263871" style="fill: #4169e1; fill-opacity: 0.5; stroke: #000000; stroke-opacity: 0.5"/>
     <use xlink:href="#mcc28343fac" x="261.721911" y="565.593567" style="fill: #4169e1; fill-opacity: 0.5; stroke: #000000; stroke-opacity: 0.5"/>
     <use xlink:href="#mcc28343fac" x="292.43037" y="355.773983" style="fill: #4169e1; fill-opacity: 0.5; stroke: #000000; stroke-opacity: 0.5"/>
     <use xlink:href="#mcc28343fac" x="263.685315" y="338.625267" style="fill: #4169e1; fill-opacity: 0.5; stroke: #000000; stroke-opacity: 0.5"/>
     <use xlink:href="#mcc28343fac" x="252.36194" y="398.141399" style="fill: #4169e1; fill-opacity: 0.5; stroke: #000000; stroke-opacity: 0.5"/>
     <use xlink:href="#mcc28343fac" x="267.366288" y="505.068687" style="fill: #4169e1; fill-opacity: 0.5; stroke: #000000; stroke-opacity: 0.5"/>
     <use xlink:href="#mcc28343fac" x="443.038648" y="292.222859" style="fill: #4169e1; fill-opacity: 0.5; stroke: #000000; stroke-opacity: 0.5"/>
     <use xlink:href="#mcc28343fac" x="272.545757" y="404.193887" style="fill: #4169e1; fill-opacity: 0.5; stroke: #000000; stroke-opacity: 0.5"/>
     <use xlink:href="#mcc28343fac" x="282.822927" y="402.680765" style="fill: #4169e1; fill-opacity: 0.5; stroke: #000000; stroke-opacity: 0.5"/>
     <use xlink:href="#mcc28343fac" x="134.884712" y="397.675297" style="fill: #4169e1; fill-opacity: 0.5; stroke: #000000; stroke-opacity: 0.5"/>
     <use xlink:href="#mcc28343fac" x="338.977951" y="443.030685" style="fill: #4169e1; fill-opacity: 0.5; stroke: #000000; stroke-opacity: 0.5"/>
     <use xlink:href="#mcc28343fac" x="252.301175" y="348.208373" style="fill: #4169e1; fill-opacity: 0.5; stroke: #000000; stroke-opacity: 0.5"/>
     <use xlink:href="#mcc28343fac" x="782.075114" y="461.682177" style="fill: #4169e1; fill-opacity: 0.5; stroke: #000000; stroke-opacity: 0.5"/>
     <use xlink:href="#mcc28343fac" x="78.938101" y="441.013189" style="fill: #4169e1; fill-opacity: 0.5; stroke: #000000; stroke-opacity: 0.5"/>
     <use xlink:href="#mcc28343fac" x="272.454485" y="384.523301" style="fill: #4169e1; fill-opacity: 0.5; stroke: #000000; stroke-opacity: 0.5"/>
     <use xlink:href="#mcc28343fac" x="286.622537" y="479.345613" style="fill: #4169e1; fill-opacity: 0.5; stroke: #000000; stroke-opacity: 0.5"/>
     <use xlink:href="#mcc28343fac" x="263.188121" y="413.272619" style="fill: #4169e1; fill-opacity: 0.5; stroke: #000000; stroke-opacity: 0.5"/>
     <use xlink:href="#mcc28343fac" x="304.423073" y="398.645773" style="fill: #4169e1; fill-opacity: 0.5; stroke: #000000; stroke-opacity: 0.5"/>
     <use xlink:href="#mcc28343fac" x="240.288128" y="492.459337" style="fill: #4169e1; fill-opacity: 0.5; stroke: #000000; stroke-opacity: 0.5"/>
     <use xlink:href="#mcc28343fac" x="305.685615" y="406.211383" style="fill: #4169e1; fill-opacity: 0.5; stroke: #000000; stroke-opacity: 0.5"/>
     <use xlink:href="#mcc28343fac" x="288.281048" y="338.120893" style="fill: #4169e1; fill-opacity: 0.5; stroke: #000000; stroke-opacity: 0.5"/>
     <use xlink:href="#mcc28343fac" x="133.541993" y="471.771155" style="fill: #4169e1; fill-opacity: 0.5; stroke: #000000; stroke-opacity: 0.5"/>
     <use xlink:href="#mcc28343fac" x="199.46948" y="435.465075" style="fill: #4169e1; fill-opacity: 0.5; stroke: #000000; stroke-opacity: 0.5"/>
     <use xlink:href="#mcc28343fac" x="202.58217" y="432.438831" style="fill: #4169e1; fill-opacity: 0.5; stroke: #000000; stroke-opacity: 0.5"/>
     <use xlink:href="#mcc28343fac" x="276.705801" y="320.467803" style="fill: #4169e1; fill-opacity: 0.5; stroke: #000000; stroke-opacity: 0.5"/>
     <use xlink:href="#mcc28343fac" x="273.854333" y="462.196897" style="fill: #4169e1; fill-opacity: 0.5; stroke: #000000; stroke-opacity: 0.5"/>
     <use xlink:href="#mcc28343fac" x="378.588152" y="424.368847" style="fill: #4169e1; fill-opacity: 0.5; stroke: #000000; stroke-opacity: 0.5"/>
     <use xlink:href="#mcc28343fac" x="286.399428" y="432.943205" style="fill: #4169e1; fill-opacity: 0.5; stroke: #000000; stroke-opacity: 0.5"/>
     <use xlink:href="#mcc28343fac" x="281.912407" y="346.772989" style="fill: #4169e1; fill-opacity: 0.5; stroke: #000000; stroke-opacity: 0.5"/>
     <use xlink:href="#mcc28343fac" x="320.668151" y="428.403839" style="fill: #4169e1; fill-opacity: 0.5; stroke: #000000; stroke-opacity: 0.5"/>
     <use xlink:href="#mcc28343fac" x="246.223334" y="403.185139" style="fill: #4169e1; fill-opacity: 0.5; stroke: #000000; stroke-opacity: 0.5"/>
     <use xlink:href="#mcc28343fac" x="233.611539" y="347.199625" style="fill: #4169e1; fill-opacity: 0.5; stroke: #000000; stroke-opacity: 0.5"/>
     <use xlink:href="#mcc28343fac" x="341.91816" y="390.575789" style="fill: #4169e1; fill-opacity: 0.5; stroke: #000000; stroke-opacity: 0.5"/>
     <use xlink:href="#mcc28343fac" x="286.278077" y="426.386343" style="fill: #4169e1; fill-opacity: 0.5; stroke: #000000; stroke-opacity: 0.5"/>
     <use xlink:href="#mcc28343fac" x="330.474066" y="509.103679" style="fill: #4169e1; fill-opacity: 0.5; stroke: #000000; stroke-opacity: 0.5"/>
     <use xlink:href="#mcc28343fac" x="138.241509" y="528.269891" style="fill: #4169e1; fill-opacity: 0.5; stroke: #000000; stroke-opacity: 0.5"/>
     <use xlink:href="#mcc28343fac" x="132.534954" y="485.398101" style="fill: #4169e1; fill-opacity: 0.5; stroke: #000000; stroke-opacity: 0.5"/>
     <use xlink:href="#mcc28343fac" x="343.006107" y="401.167643" style="fill: #4169e1; fill-opacity: 0.5; stroke: #000000; stroke-opacity: 0.5"/>
     <use xlink:href="#mcc28343fac" x="271.527506" y="500.529321" style="fill: #4169e1; fill-opacity: 0.5; stroke: #000000; stroke-opacity: 0.5"/>
     <use xlink:href="#mcc28343fac" x="293.325516" y="493.521415" style="fill: #4169e1; fill-opacity: 0.5; stroke: #000000; stroke-opacity: 0.5"/>
     <use xlink:href="#mcc28343fac" x="302.231699" y="422.351351" style="fill: #4169e1; fill-opacity: 0.5; stroke: #000000; stroke-opacity: 0.5"/>
     <use xlink:href="#mcc28343fac" x="299.53559" y="337.112145" style="fill: #4169e1; fill-opacity: 0.5; stroke: #000000; stroke-opacity: 0.5"/>
     <use xlink:href="#mcc28343fac" x="233.474387" y="433.951953" style="fill: #4169e1; fill-opacity: 0.5; stroke: #000000; stroke-opacity: 0.5"/>
     <use xlink:href="#mcc28343fac" x="296.010953" y="519.101531" style="fill: #4169e1; fill-opacity: 0.5; stroke: #000000; stroke-opacity: 0.5"/>
     <use xlink:href="#mcc28343fac" x="218.580843" y="387.045171" style="fill: #4169e1; fill-opacity: 0.5; stroke: #000000; stroke-opacity: 0.5"/>
     <use xlink:href="#mcc28343fac" x="279.322878" y="361.826471" style="fill: #4169e1; fill-opacity: 0.5; stroke: #000000; stroke-opacity: 0.5"/>
     <use xlink:href="#mcc28343fac" x="287.650859" y="320.972177" style="fill: #4169e1; fill-opacity: 0.5; stroke: #000000; stroke-opacity: 0.5"/>
     <use xlink:href="#mcc28343fac" x="251.701237" y="574.79243" style="fill: #4169e1; fill-opacity: 0.5; stroke: #000000; stroke-opacity: 0.5"/>
     <use xlink:href="#mcc28343fac" x="290.640078" y="559.508829" style="fill: #4169e1; fill-opacity: 0.5; stroke: #000000; stroke-opacity: 0.5"/>
    </g>
   </g>
   <g id="PathCollection_2">
    <defs>
     <path id="m87d0c7d2d5" d="M 0 3 
C 0.795609 3 1.55874 2.683901 2.12132 2.12132 
C 2.683901 1.55874 3 0.795609 3 0 
C 3 -0.795609 2.683901 -1.55874 2.12132 -2.12132 
C 1.55874 -2.683901 0.795609 -3 0 -3 
C -0.795609 -3 -1.55874 -2.683901 -2.12132 -2.12132 
C -2.683901 -1.55874 -3 -0.795609 -3 0 
C -3 0.795609 -2.683901 1.55874 -2.12132 2.12132 
C -1.55874 2.683901 -0.795609 3 0 3 
z
" style="stroke: #000000; stroke-opacity: 0.5"/>
    </defs>
    <g clip-path="url(#p23350c2b30)">
     <use xlink:href="#m87d0c7d2d5" x="230.581865" y="480.148267" style="fill: #ff8c00; fill-opacity: 0.5; stroke: #000000; stroke-opacity: 0.5"/>
     <use xlink:href="#m87d0c7d2d5" x="250.77199" y="389.289553" style="fill: #ff8c00; fill-opacity: 0.5; stroke: #000000; stroke-opacity: 0.5"/>
     <use xlink:href="#m87d0c7d2d5" x="259.792425" y="397.988792" style="fill: #ff8c00; fill-opacity: 0.5; stroke: #000000; stroke-opacity: 0.5"/>
     <use xlink:href="#m87d0c7d2d5" x="259.439917" y="446.801186" style="fill: #ff8c00; fill-opacity: 0.5; stroke: #000000; stroke-opacity: 0.5"/>
     <use xlink:href="#m87d0c7d2d5" x="283.830577" y="389.289553" style="fill: #ff8c00; fill-opacity: 0.5; stroke: #000000; stroke-opacity: 0.5"/>
     <use xlink:href="#m87d0c7d2d5" x="212.091036" y="429.402709" style="fill: #ff8c00; fill-opacity: 0.5; stroke: #000000; stroke-opacity: 0.5"/>
     <use xlink:href="#m87d0c7d2d5" x="293.262232" y="387.83968" style="fill: #ff8c00; fill-opacity: 0.5; stroke: #000000; stroke-opacity: 0.5"/>
     <use xlink:href="#m87d0c7d2d5" x="267.432497" y="399.921956" style="fill: #ff8c00; fill-opacity: 0.5; stroke: #000000; stroke-opacity: 0.5"/>
     <use xlink:href="#m87d0c7d2d5" x="492.719239" y="409.104485" style="fill: #ff8c00; fill-opacity: 0.5; stroke: #000000; stroke-opacity: 0.5"/>
     <use xlink:href="#m87d0c7d2d5" x="136.227431" y="514.330033" style="fill: #ff8c00; fill-opacity: 0.5; stroke: #000000; stroke-opacity: 0.5"/>
     <use xlink:href="#m87d0c7d2d5" x="180.537147" y="502.021935" style="fill: #ff8c00; fill-opacity: 0.5; stroke: #000000; stroke-opacity: 0.5"/>
     <use xlink:href="#m87d0c7d2d5" x="305.497493" y="393.155881" style="fill: #ff8c00; fill-opacity: 0.5; stroke: #000000; stroke-opacity: 0.5"/>
     <use xlink:href="#m87d0c7d2d5" x="223.504145" y="477.042304" style="fill: #ff8c00; fill-opacity: 0.5; stroke: #000000; stroke-opacity: 0.5"/>
     <use xlink:href="#m87d0c7d2d5" x="246.317574" y="537.659899" style="fill: #ff8c00; fill-opacity: 0.5; stroke: #000000; stroke-opacity: 0.5"/>
     <use xlink:href="#m87d0c7d2d5" x="286.228289" y="492.713833" style="fill: #ff8c00; fill-opacity: 0.5; stroke: #000000; stroke-opacity: 0.5"/>
     <use xlink:href="#m87d0c7d2d5" x="248.277304" y="344.826779" style="fill: #ff8c00; fill-opacity: 0.5; stroke: #000000; stroke-opacity: 0.5"/>
     <use xlink:href="#m87d0c7d2d5" x="232.315042" y="426.019671" style="fill: #ff8c00; fill-opacity: 0.5; stroke: #000000; stroke-opacity: 0.5"/>
     <use xlink:href="#m87d0c7d2d5" x="347.715078" y="463.233081" style="fill: #ff8c00; fill-opacity: 0.5; stroke: #000000; stroke-opacity: 0.5"/>
     <use xlink:href="#m87d0c7d2d5" x="229.620974" y="394.605755" style="fill: #ff8c00; fill-opacity: 0.5; stroke: #000000; stroke-opacity: 0.5"/>
     <use xlink:href="#m87d0c7d2d5" x="261.721911" y="474.348774" style="fill: #ff8c00; fill-opacity: 0.5; stroke: #000000; stroke-opacity: 0.5"/>
     <use xlink:href="#m87d0c7d2d5" x="292.43037" y="367.541457" style="fill: #ff8c00; fill-opacity: 0.5; stroke: #000000; stroke-opacity: 0.5"/>
     <use xlink:href="#m87d0c7d2d5" x="263.685315" y="333.711085" style="fill: #ff8c00; fill-opacity: 0.5; stroke: #000000; stroke-opacity: 0.5"/>
     <use xlink:href="#m87d0c7d2d5" x="252.36194" y="433.269037" style="fill: #ff8c00; fill-opacity: 0.5; stroke: #000000; stroke-opacity: 0.5"/>
     <use xlink:href="#m87d0c7d2d5" x="267.366288" y="448.251059" style="fill: #ff8c00; fill-opacity: 0.5; stroke: #000000; stroke-opacity: 0.5"/>
     <use xlink:href="#m87d0c7d2d5" x="443.038648" y="327.911593" style="fill: #ff8c00; fill-opacity: 0.5; stroke: #000000; stroke-opacity: 0.5"/>
     <use xlink:href="#m87d0c7d2d5" x="272.545757" y="412.970814" style="fill: #ff8c00; fill-opacity: 0.5; stroke: #000000; stroke-opacity: 0.5"/>
     <use xlink:href="#m87d0c7d2d5" x="282.822927" y="431.819164" style="fill: #ff8c00; fill-opacity: 0.5; stroke: #000000; stroke-opacity: 0.5"/>
     <use xlink:href="#m87d0c7d2d5" x="134.884712" y="426.31082" style="fill: #ff8c00; fill-opacity: 0.5; stroke: #000000; stroke-opacity: 0.5"/>
     <use xlink:href="#m87d0c7d2d5" x="338.977951" y="424.086507" style="fill: #ff8c00; fill-opacity: 0.5; stroke: #000000; stroke-opacity: 0.5"/>
     <use xlink:href="#m87d0c7d2d5" x="252.301175" y="383.00677" style="fill: #ff8c00; fill-opacity: 0.5; stroke: #000000; stroke-opacity: 0.5"/>
     <use xlink:href="#m87d0c7d2d5" x="782.075114" y="480.141264" style="fill: #ff8c00; fill-opacity: 0.5; stroke: #000000; stroke-opacity: 0.5"/>
     <use xlink:href="#m87d0c7d2d5" x="78.938101" y="406.204739" style="fill: #ff8c00; fill-opacity: 0.5; stroke: #000000; stroke-opacity: 0.5"/>
     <use xlink:href="#m87d0c7d2d5" x="272.454485" y="416.353851" style="fill: #ff8c00; fill-opacity: 0.5; stroke: #000000; stroke-opacity: 0.5"/>
     <use xlink:href="#m87d0c7d2d5" x="286.622537" y="455.017133" style="fill: #ff8c00; fill-opacity: 0.5; stroke: #000000; stroke-opacity: 0.5"/>
     <use xlink:href="#m87d0c7d2d5" x="263.188121" y="424.569798" style="fill: #ff8c00; fill-opacity: 0.5; stroke: #000000; stroke-opacity: 0.5"/>
     <use xlink:href="#m87d0c7d2d5" x="304.423073" y="411.520941" style="fill: #ff8c00; fill-opacity: 0.5; stroke: #000000; stroke-opacity: 0.5"/>
     <use xlink:href="#m87d0c7d2d5" x="240.288128" y="462.74979" style="fill: #ff8c00; fill-opacity: 0.5; stroke: #000000; stroke-opacity: 0.5"/>
     <use xlink:href="#m87d0c7d2d5" x="305.685615" y="399.921956" style="fill: #ff8c00; fill-opacity: 0.5; stroke: #000000; stroke-opacity: 0.5"/>
     <use xlink:href="#m87d0c7d2d5" x="288.281048" y="364.641711" style="fill: #ff8c00; fill-opacity: 0.5; stroke: #000000; stroke-opacity: 0.5"/>
     <use xlink:href="#m87d0c7d2d5" x="133.541993" y="482.790779" style="fill: #ff8c00; fill-opacity: 0.5; stroke: #000000; stroke-opacity: 0.5"/>
     <use xlink:href="#m87d0c7d2d5" x="199.46948" y="419.253597" style="fill: #ff8c00; fill-opacity: 0.5; stroke: #000000; stroke-opacity: 0.5"/>
     <use xlink:href="#m87d0c7d2d5" x="202.58217" y="422.636634" style="fill: #ff8c00; fill-opacity: 0.5; stroke: #000000; stroke-opacity: 0.5"/>
     <use xlink:href="#m87d0c7d2d5" x="276.705801" y="351.592853" style="fill: #ff8c00; fill-opacity: 0.5; stroke: #000000; stroke-opacity: 0.5"/>
     <use xlink:href="#m87d0c7d2d5" x="273.854333" y="505.2794" style="fill: #ff8c00; fill-opacity: 0.5; stroke: #000000; stroke-opacity: 0.5"/>
     <use xlink:href="#m87d0c7d2d5" x="378.588152" y="364.15842" style="fill: #ff8c00; fill-opacity: 0.5; stroke: #000000; stroke-opacity: 0.5"/>
     <use xlink:href="#m87d0c7d2d5" x="286.399428" y="463.716372" style="fill: #ff8c00; fill-opacity: 0.5; stroke: #000000; stroke-opacity: 0.5"/>
     <use xlink:href="#m87d0c7d2d5" x="281.912407" y="343.201114" style="fill: #ff8c00; fill-opacity: 0.5; stroke: #000000; stroke-opacity: 0.5"/>
     <use xlink:href="#m87d0c7d2d5" x="320.668151" y="419.253597" style="fill: #ff8c00; fill-opacity: 0.5; stroke: #000000; stroke-opacity: 0.5"/>
     <use xlink:href="#m87d0c7d2d5" x="246.223334" y="410.554358" style="fill: #ff8c00; fill-opacity: 0.5; stroke: #000000; stroke-opacity: 0.5"/>
     <use xlink:href="#m87d0c7d2d5" x="233.611539" y="376.240695" style="fill: #ff8c00; fill-opacity: 0.5; stroke: #000000; stroke-opacity: 0.5"/>
     <use xlink:href="#m87d0c7d2d5" x="341.91816" y="405.238157" style="fill: #ff8c00; fill-opacity: 0.5; stroke: #000000; stroke-opacity: 0.5"/>
     <use xlink:href="#m87d0c7d2d5" x="286.278077" y="377.690569" style="fill: #ff8c00; fill-opacity: 0.5; stroke: #000000; stroke-opacity: 0.5"/>
     <use xlink:href="#m87d0c7d2d5" x="330.474066" y="536.210026" style="fill: #ff8c00; fill-opacity: 0.5; stroke: #000000; stroke-opacity: 0.5"/>
     <use xlink:href="#m87d0c7d2d5" x="138.241509" y="482.564722" style="fill: #ff8c00; fill-opacity: 0.5; stroke: #000000; stroke-opacity: 0.5"/>
     <use xlink:href="#m87d0c7d2d5" x="132.534954" y="452.600678" style="fill: #ff8c00; fill-opacity: 0.5; stroke: #000000; stroke-opacity: 0.5"/>
     <use xlink:href="#m87d0c7d2d5" x="343.006107" y="393.155881" style="fill: #ff8c00; fill-opacity: 0.5; stroke: #000000; stroke-opacity: 0.5"/>
     <use xlink:href="#m87d0c7d2d5" x="271.527506" y="522.677877" style="fill: #ff8c00; fill-opacity: 0.5; stroke: #000000; stroke-opacity: 0.5"/>
     <use xlink:href="#m87d0c7d2d5" x="293.325516" y="563.496256" style="fill: #ff8c00; fill-opacity: 0.5; stroke: #000000; stroke-opacity: 0.5"/>
     <use xlink:href="#m87d0c7d2d5" x="302.231699" y="408.137903" style="fill: #ff8c00; fill-opacity: 0.5; stroke: #000000; stroke-opacity: 0.5"/>
     <use xlink:href="#m87d0c7d2d5" x="299.53559" y="385.423225" style="fill: #ff8c00; fill-opacity: 0.5; stroke: #000000; stroke-opacity: 0.5"/>
     <use xlink:href="#m87d0c7d2d5" x="233.474387" y="471.449028" style="fill: #ff8c00; fill-opacity: 0.5; stroke: #000000; stroke-opacity: 0.5"/>
     <use xlink:href="#m87d0c7d2d5" x="296.010953" y="568.887896" style="fill: #ff8c00; fill-opacity: 0.5; stroke: #000000; stroke-opacity: 0.5"/>
     <use xlink:href="#m87d0c7d2d5" x="218.580843" y="395.572337" style="fill: #ff8c00; fill-opacity: 0.5; stroke: #000000; stroke-opacity: 0.5"/>
     <use xlink:href="#m87d0c7d2d5" x="279.322878" y="373.340949" style="fill: #ff8c00; fill-opacity: 0.5; stroke: #000000; stroke-opacity: 0.5"/>
     <use xlink:href="#m87d0c7d2d5" x="287.650859" y="347.243234" style="fill: #ff8c00; fill-opacity: 0.5; stroke: #000000; stroke-opacity: 0.5"/>
     <use xlink:href="#m87d0c7d2d5" x="251.701237" y="620.552987" style="fill: #ff8c00; fill-opacity: 0.5; stroke: #000000; stroke-opacity: 0.5"/>
     <use xlink:href="#m87d0c7d2d5" x="290.640078" y="441.889747" style="fill: #ff8c00; fill-opacity: 0.5; stroke: #000000; stroke-opacity: 0.5"/>
    </g>
   </g>
   <g id="PolyCollection_1">
    <path d="M 78.938101 423.272659 
L 78.938101 523.843324 
L 86.040495 520.520181 
L 93.142889 517.173079 
L 100.245283 513.855057 
L 107.347677 510.577952 
L 114.450071 507.130673 
L 121.552465 503.7473 
L 128.654859 500.433763 
L 135.757253 496.899202 
L 142.859647 493.465842 
L 149.962041 489.829677 
L 157.064435 486.182255 
L 164.166829 482.909307 
L 171.269224 479.5898 
L 178.371618 476.500936 
L 185.474012 473.286512 
L 192.576406 469.932939 
L 199.6788 465.897787 
L 206.781194 462.995268 
L 213.883588 459.921861 
L 220.985982 456.960949 
L 228.088376 454.55139 
L 235.19077 451.825909 
L 242.293164 449.698795 
L 249.395558 448.138264 
L 256.497952 446.769328 
L 263.600346 445.204669 
L 270.702741 444.00947 
L 277.805135 443.042307 
L 284.907529 441.924001 
L 292.009923 440.834687 
L 299.112317 440.145318 
L 306.214711 439.151875 
L 313.317105 438.560515 
L 320.419499 437.887814 
L 327.521893 437.236058 
L 334.624287 436.856358 
L 341.726681 436.461375 
L 348.829075 436.048513 
L 355.931469 435.672429 
L 363.033863 435.427632 
L 370.136258 435.170838 
L 377.238652 434.846175 
L 384.341046 434.501931 
L 391.44344 434.071875 
L 398.545834 433.881296 
L 405.648228 433.656601 
L 412.750622 433.433543 
L 419.853016 433.291884 
L 426.95541 433.158311 
L 434.057804 432.98827 
L 441.160198 432.543093 
L 448.262592 432.433455 
L 455.364986 432.449622 
L 462.46738 432.227567 
L 469.569775 431.848889 
L 476.672169 431.508444 
L 483.774563 431.438932 
L 490.876957 431.182332 
L 497.979351 430.925733 
L 505.081745 430.669133 
L 512.184139 430.410924 
L 519.286533 430.150594 
L 526.388927 430.090164 
L 533.491321 430.262462 
L 540.593715 430.31346 
L 547.696109 430.005336 
L 554.798503 429.741368 
L 561.900897 430.140142 
L 569.003292 430.402146 
L 576.105686 430.271761 
L 583.20808 430.135407 
L 590.310474 429.993419 
L 597.412868 429.827347 
L 604.515262 429.504914 
L 611.617656 429.291808 
L 618.72005 429.442971 
L 625.822444 429.315684 
L 632.924838 429.182699 
L 640.027232 429.040119 
L 647.129626 428.897538 
L 654.23202 428.754957 
L 661.334414 428.440252 
L 668.436809 428.293702 
L 675.539203 428.25335 
L 682.641597 428.205387 
L 689.743991 428.070631 
L 696.846385 428.051859 
L 703.948779 428.100855 
L 711.051173 428.066442 
L 718.153567 428.03203 
L 725.255961 427.997617 
L 732.358355 427.963204 
L 739.460749 427.928791 
L 746.563143 428.057735 
L 753.665537 428.299696 
L 760.767931 428.538348 
L 767.870325 428.603962 
L 774.97272 428.386843 
L 782.075114 428.169724 
L 782.075114 174.279394 
L 782.075114 174.279394 
L 774.97272 177.638694 
L 767.870325 181.010854 
L 760.767931 184.395515 
L 753.665537 187.780606 
L 746.563143 191.166439 
L 739.460749 194.552271 
L 732.358355 197.948251 
L 725.255961 201.353222 
L 718.153567 204.756165 
L 711.051173 208.113714 
L 703.948779 211.478951 
L 696.846385 214.863567 
L 689.743991 218.248184 
L 682.641597 221.632801 
L 675.539203 225.051306 
L 668.436809 228.592985 
L 661.334414 231.997956 
L 654.23202 235.402926 
L 647.129626 238.807896 
L 640.027232 242.212867 
L 632.924838 245.601126 
L 625.822444 248.922173 
L 618.72005 252.24322 
L 611.617656 255.564267 
L 604.515262 258.885314 
L 597.412868 262.257736 
L 590.310474 265.641417 
L 583.20808 268.982951 
L 576.105686 272.29136 
L 569.003292 275.795356 
L 561.900897 279.184056 
L 554.798503 282.6371 
L 547.696109 286.153878 
L 540.593715 289.670657 
L 533.491321 293.191487 
L 526.388927 296.702982 
L 519.286533 300.180932 
L 512.184139 303.753651 
L 505.081745 307.179016 
L 497.979351 310.394989 
L 490.876957 313.731465 
L 483.774563 317.13208 
L 476.672169 320.544056 
L 469.569775 324.337367 
L 462.46738 327.651928 
L 455.364986 330.75613 
L 448.262592 334.165949 
L 441.160198 337.577806 
L 434.057804 340.977917 
L 426.95541 344.659974 
L 419.853016 348.486054 
L 412.750622 351.634009 
L 405.648228 354.670317 
L 398.545834 357.86897 
L 391.44344 361.08752 
L 384.341046 364.799059 
L 377.238652 367.86805 
L 370.136258 371.616901 
L 363.033863 375.028641 
L 355.931469 378.431628 
L 348.829075 381.823108 
L 341.726681 385.136047 
L 334.624287 388.214758 
L 327.521893 391.188189 
L 320.419499 394.363609 
L 313.317105 397.627909 
L 306.214711 400.496769 
L 299.112317 403.593095 
L 292.009923 406.021285 
L 284.907529 408.690849 
L 277.805135 411.038521 
L 270.702741 412.677439 
L 263.600346 414.071814 
L 256.497952 415.240953 
L 249.395558 416.158726 
L 242.293164 416.904958 
L 235.19077 417.805344 
L 228.088376 418.477938 
L 220.985982 419.267703 
L 213.883588 419.680005 
L 206.781194 419.637321 
L 199.6788 420.075529 
L 192.576406 420.654038 
L 185.474012 420.935223 
L 178.371618 421.211508 
L 171.269224 421.269253 
L 164.166829 421.611481 
L 157.064435 421.830915 
L 149.962041 422.199358 
L 142.859647 422.192959 
L 135.757253 422.294617 
L 128.654859 422.44696 
L 121.552465 422.603574 
L 114.450071 422.758291 
L 107.347677 422.901013 
L 100.245283 423.021726 
L 93.142889 423.102236 
L 86.040495 423.185278 
L 78.938101 423.272659 
z
" clip-path="url(#p23350c2b30)" style="fill: #1f77b4; fill-opacity: 0.15"/>
   </g>
   <g id="PolyCollection_2">
    <path d="M 78.938101 415.229781 
L 78.938101 496.168353 
L 86.040495 493.748963 
L 93.142889 491.25646 
L 100.245283 489.215454 
L 107.347677 486.592085 
L 114.450071 483.86167 
L 121.552465 481.801175 
L 128.654859 479.571484 
L 135.757253 477.308854 
L 142.859647 474.628755 
L 149.962041 472.987719 
L 157.064435 471.135691 
L 164.166829 468.91629 
L 171.269224 466.599355 
L 178.371618 464.74824 
L 185.474012 462.761225 
L 192.576406 460.832863 
L 199.6788 459.065995 
L 206.781194 457.280632 
L 213.883588 455.225293 
L 220.985982 453.167897 
L 228.088376 451.781945 
L 235.19077 450.459311 
L 242.293164 449.301893 
L 249.395558 447.797739 
L 256.497952 446.761631 
L 263.600346 446.201961 
L 270.702741 445.75106 
L 277.805135 445.298743 
L 284.907529 444.884058 
L 292.009923 444.547555 
L 299.112317 444.050102 
L 306.214711 443.912639 
L 313.317105 443.764436 
L 320.419499 443.134352 
L 327.521893 443.048401 
L 334.624287 442.817623 
L 341.726681 442.813063 
L 348.829075 442.947447 
L 355.931469 442.907736 
L 363.033863 442.769254 
L 370.136258 442.738951 
L 377.238652 442.951326 
L 384.341046 442.885587 
L 391.44344 442.975147 
L 398.545834 443.163222 
L 405.648228 443.204805 
L 412.750622 443.346736 
L 419.853016 443.569938 
L 426.95541 443.723049 
L 434.057804 443.557851 
L 441.160198 443.80503 
L 448.262592 443.952539 
L 455.364986 444.0289 
L 462.46738 444.105261 
L 469.569775 444.181622 
L 476.672169 444.638048 
L 483.774563 445.212724 
L 490.876957 445.396869 
L 497.979351 445.576907 
L 505.081745 445.657216 
L 512.184139 445.664045 
L 519.286533 445.876965 
L 526.388927 446.307703 
L 533.491321 446.709896 
L 540.593715 446.940073 
L 547.696109 447.131447 
L 554.798503 447.429199 
L 561.900897 447.786987 
L 569.003292 448.144774 
L 576.105686 448.502561 
L 583.20808 448.837258 
L 590.310474 449.036297 
L 597.412868 449.09065 
L 604.515262 449.476603 
L 611.617656 449.843841 
L 618.72005 450.098959 
L 625.822444 450.354076 
L 632.924838 450.606609 
L 640.027232 450.857532 
L 647.129626 451.108455 
L 654.23202 451.358498 
L 661.334414 451.606241 
L 668.436809 451.74908 
L 675.539203 451.847443 
L 682.641597 452.063209 
L 689.743991 452.415051 
L 696.846385 452.766894 
L 703.948779 453.115212 
L 711.051173 453.365581 
L 718.153567 453.619086 
L 725.255961 453.874301 
L 732.358355 454.129517 
L 739.460749 454.384732 
L 746.563143 454.634815 
L 753.665537 454.881919 
L 760.767931 455.152148 
L 767.870325 455.38881 
L 774.97272 455.643754 
L 782.075114 455.893677 
L 782.075114 252.712766 
L 782.075114 252.712766 
L 774.97272 255.065265 
L 767.870325 257.417764 
L 760.767931 259.770262 
L 753.665537 262.122761 
L 746.563143 264.47526 
L 739.460749 266.827759 
L 732.358355 269.180258 
L 725.255961 271.532757 
L 718.153567 274.056398 
L 711.051173 276.448029 
L 703.948779 278.773472 
L 696.846385 281.100159 
L 689.743991 283.478652 
L 682.641597 285.980179 
L 675.539203 288.481707 
L 668.436809 290.983234 
L 661.334414 293.484762 
L 654.23202 295.986289 
L 647.129626 298.487817 
L 640.027232 300.875254 
L 632.924838 303.028275 
L 625.822444 305.181296 
L 618.72005 307.334316 
L 611.617656 309.487337 
L 604.515262 311.640358 
L 597.412868 313.793379 
L 590.310474 316.136845 
L 583.20808 318.48587 
L 576.105686 320.836365 
L 569.003292 323.283134 
L 561.900897 325.556144 
L 554.798503 327.877285 
L 547.696109 330.221839 
L 540.593715 332.567358 
L 533.491321 334.914575 
L 526.388927 337.269307 
L 519.286533 339.615134 
L 512.184139 342.176412 
L 505.081745 344.8789 
L 497.979351 347.581387 
L 490.876957 350.26932 
L 483.774563 352.72451 
L 476.672169 355.184531 
L 469.569775 357.644552 
L 462.46738 360.087684 
L 455.364986 362.326713 
L 448.262592 364.691851 
L 441.160198 366.837358 
L 434.057804 369.022395 
L 426.95541 371.252922 
L 419.853016 373.906673 
L 412.750622 376.640785 
L 405.648228 379.029598 
L 398.545834 381.08555 
L 391.44344 383.411046 
L 384.341046 385.689901 
L 377.238652 388.053174 
L 370.136258 390.416976 
L 363.033863 392.796635 
L 355.931469 395.049795 
L 348.829075 397.302955 
L 341.726681 399.288191 
L 334.624287 401.176712 
L 327.521893 403.351362 
L 320.419499 405.349787 
L 313.317105 407.662413 
L 306.214711 409.585964 
L 299.112317 411.54377 
L 292.009923 413.180558 
L 284.907529 414.320181 
L 277.805135 415.699264 
L 270.702741 416.595641 
L 263.600346 417.284526 
L 256.497952 417.786817 
L 249.395558 418.483536 
L 242.293164 418.744711 
L 235.19077 419.016099 
L 228.088376 418.964021 
L 220.985982 419.297656 
L 213.883588 419.201534 
L 206.781194 419.177173 
L 199.6788 418.876592 
L 192.576406 418.770907 
L 185.474012 418.574336 
L 178.371618 418.481643 
L 171.269224 418.21007 
L 164.166829 417.923 
L 157.064435 417.603439 
L 149.962041 417.262747 
L 142.859647 417.106864 
L 135.757253 416.85801 
L 128.654859 416.589891 
L 121.552465 416.348817 
L 114.450071 416.180436 
L 107.347677 416.012055 
L 100.245283 415.843675 
L 93.142889 415.678109 
L 86.040495 415.295601 
L 78.938101 415.229781 
z
" clip-path="url(#p23350c2b30)" style="fill: #ff7f0e; fill-opacity: 0.15"/>
   </g>
   <g id="matplotlib.axis_1">
    <g id="xtick_1">
     <g id="line2d_1">
      <defs>
       <path id="m3a78cf2a17" d="M 0 0 
L 0 3.5 
" style="stroke: #000000; stroke-width: 0.8"/>
      </defs>
      <g>
       <use xlink:href="#m3a78cf2a17" x="149.654618" y="642.866667" style="stroke: #000000; stroke-width: 0.8"/>
      </g>
     </g>
     <g id="text_1">
      <!-- 200 -->
      <g transform="translate(140.110868 657.465104) scale(0.1 -0.1)">
       <defs>
        <path id="DejaVuSans-32" d="M 1228 531 
L 3431 531 
L 3431 0 
L 469 0 
L 469 531 
Q 828 903 1448 1529 
Q 2069 2156 2228 2338 
Q 2531 2678 2651 2914 
Q 2772 3150 2772 3378 
Q 2772 3750 2511 3984 
Q 2250 4219 1831 4219 
Q 1534 4219 1204 4116 
Q 875 4013 500 3803 
L 500 4441 
Q 881 4594 1212 4672 
Q 1544 4750 1819 4750 
Q 2544 4750 2975 4387 
Q 3406 4025 3406 3419 
Q 3406 3131 3298 2873 
Q 3191 2616 2906 2266 
Q 2828 2175 2409 1742 
Q 1991 1309 1228 531 
z
" transform="scale(0.015625)"/>
        <path id="DejaVuSans-30" d="M 2034 4250 
Q 1547 4250 1301 3770 
Q 1056 3291 1056 2328 
Q 1056 1369 1301 889 
Q 1547 409 2034 409 
Q 2525 409 2770 889 
Q 3016 1369 3016 2328 
Q 3016 3291 2770 3770 
Q 2525 4250 2034 4250 
z
M 2034 4750 
Q 2819 4750 3233 4129 
Q 3647 3509 3647 2328 
Q 3647 1150 3233 529 
Q 2819 -91 2034 -91 
Q 1250 -91 836 529 
Q 422 1150 422 2328 
Q 422 3509 836 4129 
Q 1250 4750 2034 4750 
z
" transform="scale(0.015625)"/>
       </defs>
       <use xlink:href="#DejaVuSans-32"/>
       <use xlink:href="#DejaVuSans-30" x="63.623047"/>
       <use xlink:href="#DejaVuSans-30" x="127.246094"/>
      </g>
     </g>
    </g>
    <g id="xtick_2">
     <g id="line2d_2">
      <g>
       <use xlink:href="#m3a78cf2a17" x="283.926485" y="642.866667" style="stroke: #000000; stroke-width: 0.8"/>
      </g>
     </g>
     <g id="text_2">
      <!-- 300 -->
      <g transform="translate(274.382735 657.465104) scale(0.1 -0.1)">
       <defs>
        <path id="DejaVuSans-33" d="M 2597 2516 
Q 3050 2419 3304 2112 
Q 3559 1806 3559 1356 
Q 3559 666 3084 287 
Q 2609 -91 1734 -91 
Q 1441 -91 1130 -33 
Q 819 25 488 141 
L 488 750 
Q 750 597 1062 519 
Q 1375 441 1716 441 
Q 2309 441 2620 675 
Q 2931 909 2931 1356 
Q 2931 1769 2642 2001 
Q 2353 2234 1838 2234 
L 1294 2234 
L 1294 2753 
L 1863 2753 
Q 2328 2753 2575 2939 
Q 2822 3125 2822 3475 
Q 2822 3834 2567 4026 
Q 2313 4219 1838 4219 
Q 1578 4219 1281 4162 
Q 984 4106 628 3988 
L 628 4550 
Q 988 4650 1302 4700 
Q 1616 4750 1894 4750 
Q 2613 4750 3031 4423 
Q 3450 4097 3450 3541 
Q 3450 3153 3228 2886 
Q 3006 2619 2597 2516 
z
" transform="scale(0.015625)"/>
       </defs>
       <use xlink:href="#DejaVuSans-33"/>
       <use xlink:href="#DejaVuSans-30" x="63.623047"/>
       <use xlink:href="#DejaVuSans-30" x="127.246094"/>
      </g>
     </g>
    </g>
    <g id="xtick_3">
     <g id="line2d_3">
      <g>
       <use xlink:href="#m3a78cf2a17" x="418.198353" y="642.866667" style="stroke: #000000; stroke-width: 0.8"/>
      </g>
     </g>
     <g id="text_3">
      <!-- 400 -->
      <g transform="translate(408.654603 657.465104) scale(0.1 -0.1)">
       <defs>
        <path id="DejaVuSans-34" d="M 2419 4116 
L 825 1625 
L 2419 1625 
L 2419 4116 
z
M 2253 4666 
L 3047 4666 
L 3047 1625 
L 3713 1625 
L 3713 1100 
L 3047 1100 
L 3047 0 
L 2419 0 
L 2419 1100 
L 313 1100 
L 313 1709 
L 2253 4666 
z
" transform="scale(0.015625)"/>
       </defs>
       <use xlink:href="#DejaVuSans-34"/>
       <use xlink:href="#DejaVuSans-30" x="63.623047"/>
       <use xlink:href="#DejaVuSans-30" x="127.246094"/>
      </g>
     </g>
    </g>
    <g id="xtick_4">
     <g id="line2d_4">
      <g>
       <use xlink:href="#m3a78cf2a17" x="552.47022" y="642.866667" style="stroke: #000000; stroke-width: 0.8"/>
      </g>
     </g>
     <g id="text_4">
      <!-- 500 -->
      <g transform="translate(542.92647 657.465104) scale(0.1 -0.1)">
       <defs>
        <path id="DejaVuSans-35" d="M 691 4666 
L 3169 4666 
L 3169 4134 
L 1269 4134 
L 1269 2991 
Q 1406 3038 1543 3061 
Q 1681 3084 1819 3084 
Q 2600 3084 3056 2656 
Q 3513 2228 3513 1497 
Q 3513 744 3044 326 
Q 2575 -91 1722 -91 
Q 1428 -91 1123 -41 
Q 819 9 494 109 
L 494 744 
Q 775 591 1075 516 
Q 1375 441 1709 441 
Q 2250 441 2565 725 
Q 2881 1009 2881 1497 
Q 2881 1984 2565 2268 
Q 2250 2553 1709 2553 
Q 1456 2553 1204 2497 
Q 953 2441 691 2322 
L 691 4666 
z
" transform="scale(0.015625)"/>
       </defs>
       <use xlink:href="#DejaVuSans-35"/>
       <use xlink:href="#DejaVuSans-30" x="63.623047"/>
       <use xlink:href="#DejaVuSans-30" x="127.246094"/>
      </g>
     </g>
    </g>
    <g id="xtick_5">
     <g id="line2d_5">
      <g>
       <use xlink:href="#m3a78cf2a17" x="686.742088" y="642.866667" style="stroke: #000000; stroke-width: 0.8"/>
      </g>
     </g>
     <g id="text_5">
      <!-- 600 -->
      <g transform="translate(677.198338 657.465104) scale(0.1 -0.1)">
       <defs>
        <path id="DejaVuSans-36" d="M 2113 2584 
Q 1688 2584 1439 2293 
Q 1191 2003 1191 1497 
Q 1191 994 1439 701 
Q 1688 409 2113 409 
Q 2538 409 2786 701 
Q 3034 994 3034 1497 
Q 3034 2003 2786 2293 
Q 2538 2584 2113 2584 
z
M 3366 4563 
L 3366 3988 
Q 3128 4100 2886 4159 
Q 2644 4219 2406 4219 
Q 1781 4219 1451 3797 
Q 1122 3375 1075 2522 
Q 1259 2794 1537 2939 
Q 1816 3084 2150 3084 
Q 2853 3084 3261 2657 
Q 3669 2231 3669 1497 
Q 3669 778 3244 343 
Q 2819 -91 2113 -91 
Q 1303 -91 875 529 
Q 447 1150 447 2328 
Q 447 3434 972 4092 
Q 1497 4750 2381 4750 
Q 2619 4750 2861 4703 
Q 3103 4656 3366 4563 
z
" transform="scale(0.015625)"/>
       </defs>
       <use xlink:href="#DejaVuSans-36"/>
       <use xlink:href="#DejaVuSans-30" x="63.623047"/>
       <use xlink:href="#DejaVuSans-30" x="127.246094"/>
      </g>
     </g>
    </g>
    <g id="text_6">
     <!-- Protein length -->
     <g transform="translate(395.455826 671.143229) scale(0.1 -0.1)">
      <defs>
       <path id="DejaVuSans-50" d="M 1259 4147 
L 1259 2394 
L 2053 2394 
Q 2494 2394 2734 2622 
Q 2975 2850 2975 3272 
Q 2975 3691 2734 3919 
Q 2494 4147 2053 4147 
L 1259 4147 
z
M 628 4666 
L 2053 4666 
Q 2838 4666 3239 4311 
Q 3641 3956 3641 3272 
Q 3641 2581 3239 2228 
Q 2838 1875 2053 1875 
L 1259 1875 
L 1259 0 
L 628 0 
L 628 4666 
z
" transform="scale(0.015625)"/>
       <path id="DejaVuSans-72" d="M 2631 2963 
Q 2534 3019 2420 3045 
Q 2306 3072 2169 3072 
Q 1681 3072 1420 2755 
Q 1159 2438 1159 1844 
L 1159 0 
L 581 0 
L 581 3500 
L 1159 3500 
L 1159 2956 
Q 1341 3275 1631 3429 
Q 1922 3584 2338 3584 
Q 2397 3584 2469 3576 
Q 2541 3569 2628 3553 
L 2631 2963 
z
" transform="scale(0.015625)"/>
       <path id="DejaVuSans-6f" d="M 1959 3097 
Q 1497 3097 1228 2736 
Q 959 2375 959 1747 
Q 959 1119 1226 758 
Q 1494 397 1959 397 
Q 2419 397 2687 759 
Q 2956 1122 2956 1747 
Q 2956 2369 2687 2733 
Q 2419 3097 1959 3097 
z
M 1959 3584 
Q 2709 3584 3137 3096 
Q 3566 2609 3566 1747 
Q 3566 888 3137 398 
Q 2709 -91 1959 -91 
Q 1206 -91 779 398 
Q 353 888 353 1747 
Q 353 2609 779 3096 
Q 1206 3584 1959 3584 
z
" transform="scale(0.015625)"/>
       <path id="DejaVuSans-74" d="M 1172 4494 
L 1172 3500 
L 2356 3500 
L 2356 3053 
L 1172 3053 
L 1172 1153 
Q 1172 725 1289 603 
Q 1406 481 1766 481 
L 2356 481 
L 2356 0 
L 1766 0 
Q 1100 0 847 248 
Q 594 497 594 1153 
L 594 3053 
L 172 3053 
L 172 3500 
L 594 3500 
L 594 4494 
L 1172 4494 
z
" transform="scale(0.015625)"/>
       <path id="DejaVuSans-65" d="M 3597 1894 
L 3597 1613 
L 953 1613 
Q 991 1019 1311 708 
Q 1631 397 2203 397 
Q 2534 397 2845 478 
Q 3156 559 3463 722 
L 3463 178 
Q 3153 47 2828 -22 
Q 2503 -91 2169 -91 
Q 1331 -91 842 396 
Q 353 884 353 1716 
Q 353 2575 817 3079 
Q 1281 3584 2069 3584 
Q 2775 3584 3186 3129 
Q 3597 2675 3597 1894 
z
M 3022 2063 
Q 3016 2534 2758 2815 
Q 2500 3097 2075 3097 
Q 1594 3097 1305 2825 
Q 1016 2553 972 2059 
L 3022 2063 
z
" transform="scale(0.015625)"/>
       <path id="DejaVuSans-69" d="M 603 3500 
L 1178 3500 
L 1178 0 
L 603 0 
L 603 3500 
z
M 603 4863 
L 1178 4863 
L 1178 4134 
L 603 4134 
L 603 4863 
z
" transform="scale(0.015625)"/>
       <path id="DejaVuSans-6e" d="M 3513 2113 
L 3513 0 
L 2938 0 
L 2938 2094 
Q 2938 2591 2744 2837 
Q 2550 3084 2163 3084 
Q 1697 3084 1428 2787 
Q 1159 2491 1159 1978 
L 1159 0 
L 581 0 
L 581 3500 
L 1159 3500 
L 1159 2956 
Q 1366 3272 1645 3428 
Q 1925 3584 2291 3584 
Q 2894 3584 3203 3211 
Q 3513 2838 3513 2113 
z
" transform="scale(0.015625)"/>
       <path id="DejaVuSans-20" transform="scale(0.015625)"/>
       <path id="DejaVuSans-6c" d="M 603 4863 
L 1178 4863 
L 1178 0 
L 603 0 
L 603 4863 
z
" transform="scale(0.015625)"/>
       <path id="DejaVuSans-67" d="M 2906 1791 
Q 2906 2416 2648 2759 
Q 2391 3103 1925 3103 
Q 1463 3103 1205 2759 
Q 947 2416 947 1791 
Q 947 1169 1205 825 
Q 1463 481 1925 481 
Q 2391 481 2648 825 
Q 2906 1169 2906 1791 
z
M 3481 434 
Q 3481 -459 3084 -895 
Q 2688 -1331 1869 -1331 
Q 1566 -1331 1297 -1286 
Q 1028 -1241 775 -1147 
L 775 -588 
Q 1028 -725 1275 -790 
Q 1522 -856 1778 -856 
Q 2344 -856 2625 -561 
Q 2906 -266 2906 331 
L 2906 616 
Q 2728 306 2450 153 
Q 2172 0 1784 0 
Q 1141 0 747 490 
Q 353 981 353 1791 
Q 353 2603 747 3093 
Q 1141 3584 1784 3584 
Q 2172 3584 2450 3431 
Q 2728 3278 2906 2969 
L 2906 3500 
L 3481 3500 
L 3481 434 
z
" transform="scale(0.015625)"/>
       <path id="DejaVuSans-68" d="M 3513 2113 
L 3513 0 
L 2938 0 
L 2938 2094 
Q 2938 2591 2744 2837 
Q 2550 3084 2163 3084 
Q 1697 3084 1428 2787 
Q 1159 2491 1159 1978 
L 1159 0 
L 581 0 
L 581 4863 
L 1159 4863 
L 1159 2956 
Q 1366 3272 1645 3428 
Q 1925 3584 2291 3584 
Q 2894 3584 3203 3211 
Q 3513 2838 3513 2113 
z
" transform="scale(0.015625)"/>
      </defs>
      <use xlink:href="#DejaVuSans-50"/>
      <use xlink:href="#DejaVuSans-72" x="58.552734"/>
      <use xlink:href="#DejaVuSans-6f" x="97.416016"/>
      <use xlink:href="#DejaVuSans-74" x="158.597656"/>
      <use xlink:href="#DejaVuSans-65" x="197.806641"/>
      <use xlink:href="#DejaVuSans-69" x="259.330078"/>
      <use xlink:href="#DejaVuSans-6e" x="287.113281"/>
      <use xlink:href="#DejaVuSans-20" x="350.492188"/>
      <use xlink:href="#DejaVuSans-6c" x="382.279297"/>
      <use xlink:href="#DejaVuSans-65" x="410.0625"/>
      <use xlink:href="#DejaVuSans-6e" x="471.585938"/>
      <use xlink:href="#DejaVuSans-67" x="534.964844"/>
      <use xlink:href="#DejaVuSans-74" x="598.441406"/>
      <use xlink:href="#DejaVuSans-68" x="637.650391"/>
     </g>
    </g>
   </g>
   <g id="matplotlib.axis_2">
    <g id="ytick_1">
     <g id="line2d_6">
      <defs>
       <path id="ma671fc764c" d="M 0 0 
L -3.5 0 
" style="stroke: #000000; stroke-width: 0.8"/>
      </defs>
      <g>
       <use xlink:href="#ma671fc764c" x="43.78125" y="620.440404" style="stroke: #000000; stroke-width: 0.8"/>
      </g>
     </g>
     <g id="text_7">
      <!-- 0.3 -->
      <g transform="translate(20.878125 624.239622) scale(0.1 -0.1)">
       <defs>
        <path id="DejaVuSans-2e" d="M 684 794 
L 1344 794 
L 1344 0 
L 684 0 
L 684 794 
z
" transform="scale(0.015625)"/>
       </defs>
       <use xlink:href="#DejaVuSans-30"/>
       <use xlink:href="#DejaVuSans-2e" x="63.623047"/>
       <use xlink:href="#DejaVuSans-33" x="95.410156"/>
      </g>
     </g>
    </g>
    <g id="ytick_2">
     <g id="line2d_7">
      <g>
       <use xlink:href="#ma671fc764c" x="43.78125" y="557.014095" style="stroke: #000000; stroke-width: 0.8"/>
      </g>
     </g>
     <g id="text_8">
      <!-- 0.4 -->
      <g transform="translate(20.878125 560.813313) scale(0.1 -0.1)">
       <use xlink:href="#DejaVuSans-30"/>
       <use xlink:href="#DejaVuSans-2e" x="63.623047"/>
       <use xlink:href="#DejaVuSans-34" x="95.410156"/>
      </g>
     </g>
    </g>
    <g id="ytick_3">
     <g id="line2d_8">
      <g>
       <use xlink:href="#ma671fc764c" x="43.78125" y="493.587786" style="stroke: #000000; stroke-width: 0.8"/>
      </g>
     </g>
     <g id="text_9">
      <!-- 0.5 -->
      <g transform="translate(20.878125 497.387005) scale(0.1 -0.1)">
       <use xlink:href="#DejaVuSans-30"/>
       <use xlink:href="#DejaVuSans-2e" x="63.623047"/>
       <use xlink:href="#DejaVuSans-35" x="95.410156"/>
      </g>
     </g>
    </g>
    <g id="ytick_4">
     <g id="line2d_9">
      <g>
       <use xlink:href="#ma671fc764c" x="43.78125" y="430.161477" style="stroke: #000000; stroke-width: 0.8"/>
      </g>
     </g>
     <g id="text_10">
      <!-- 0.6 -->
      <g transform="translate(20.878125 433.960696) scale(0.1 -0.1)">
       <use xlink:href="#DejaVuSans-30"/>
       <use xlink:href="#DejaVuSans-2e" x="63.623047"/>
       <use xlink:href="#DejaVuSans-36" x="95.410156"/>
      </g>
     </g>
    </g>
    <g id="ytick_5">
     <g id="line2d_10">
      <g>
       <use xlink:href="#ma671fc764c" x="43.78125" y="366.735168" style="stroke: #000000; stroke-width: 0.8"/>
      </g>
     </g>
     <g id="text_11">
      <!-- 0.7 -->
      <g transform="translate(20.878125 370.534387) scale(0.1 -0.1)">
       <defs>
        <path id="DejaVuSans-37" d="M 525 4666 
L 3525 4666 
L 3525 4397 
L 1831 0 
L 1172 0 
L 2766 4134 
L 525 4134 
L 525 4666 
z
" transform="scale(0.015625)"/>
       </defs>
       <use xlink:href="#DejaVuSans-30"/>
       <use xlink:href="#DejaVuSans-2e" x="63.623047"/>
       <use xlink:href="#DejaVuSans-37" x="95.410156"/>
      </g>
     </g>
    </g>
    <g id="ytick_6">
     <g id="line2d_11">
      <g>
       <use xlink:href="#ma671fc764c" x="43.78125" y="303.308859" style="stroke: #000000; stroke-width: 0.8"/>
      </g>
     </g>
     <g id="text_12">
      <!-- 0.8 -->
      <g transform="translate(20.878125 307.108078) scale(0.1 -0.1)">
       <defs>
        <path id="DejaVuSans-38" d="M 2034 2216 
Q 1584 2216 1326 1975 
Q 1069 1734 1069 1313 
Q 1069 891 1326 650 
Q 1584 409 2034 409 
Q 2484 409 2743 651 
Q 3003 894 3003 1313 
Q 3003 1734 2745 1975 
Q 2488 2216 2034 2216 
z
M 1403 2484 
Q 997 2584 770 2862 
Q 544 3141 544 3541 
Q 544 4100 942 4425 
Q 1341 4750 2034 4750 
Q 2731 4750 3128 4425 
Q 3525 4100 3525 3541 
Q 3525 3141 3298 2862 
Q 3072 2584 2669 2484 
Q 3125 2378 3379 2068 
Q 3634 1759 3634 1313 
Q 3634 634 3220 271 
Q 2806 -91 2034 -91 
Q 1263 -91 848 271 
Q 434 634 434 1313 
Q 434 1759 690 2068 
Q 947 2378 1403 2484 
z
M 1172 3481 
Q 1172 3119 1398 2916 
Q 1625 2713 2034 2713 
Q 2441 2713 2670 2916 
Q 2900 3119 2900 3481 
Q 2900 3844 2670 4047 
Q 2441 4250 2034 4250 
Q 1625 4250 1398 4047 
Q 1172 3844 1172 3481 
z
" transform="scale(0.015625)"/>
       </defs>
       <use xlink:href="#DejaVuSans-30"/>
       <use xlink:href="#DejaVuSans-2e" x="63.623047"/>
       <use xlink:href="#DejaVuSans-38" x="95.410156"/>
      </g>
     </g>
    </g>
    <g id="ytick_7">
     <g id="line2d_12">
      <g>
       <use xlink:href="#ma671fc764c" x="43.78125" y="239.88255" style="stroke: #000000; stroke-width: 0.8"/>
      </g>
     </g>
     <g id="text_13">
      <!-- 0.9 -->
      <g transform="translate(20.878125 243.681769) scale(0.1 -0.1)">
       <defs>
        <path id="DejaVuSans-39" d="M 703 97 
L 703 672 
Q 941 559 1184 500 
Q 1428 441 1663 441 
Q 2288 441 2617 861 
Q 2947 1281 2994 2138 
Q 2813 1869 2534 1725 
Q 2256 1581 1919 1581 
Q 1219 1581 811 2004 
Q 403 2428 403 3163 
Q 403 3881 828 4315 
Q 1253 4750 1959 4750 
Q 2769 4750 3195 4129 
Q 3622 3509 3622 2328 
Q 3622 1225 3098 567 
Q 2575 -91 1691 -91 
Q 1453 -91 1209 -44 
Q 966 3 703 97 
z
M 1959 2075 
Q 2384 2075 2632 2365 
Q 2881 2656 2881 3163 
Q 2881 3666 2632 3958 
Q 2384 4250 1959 4250 
Q 1534 4250 1286 3958 
Q 1038 3666 1038 3163 
Q 1038 2656 1286 2365 
Q 1534 2075 1959 2075 
z
" transform="scale(0.015625)"/>
       </defs>
       <use xlink:href="#DejaVuSans-30"/>
       <use xlink:href="#DejaVuSans-2e" x="63.623047"/>
       <use xlink:href="#DejaVuSans-39" x="95.410156"/>
      </g>
     </g>
    </g>
    <g id="ytick_8">
     <g id="line2d_13">
      <g>
       <use xlink:href="#ma671fc764c" x="43.78125" y="176.456242" style="stroke: #000000; stroke-width: 0.8"/>
      </g>
     </g>
     <g id="text_14">
      <!-- 1.0 -->
      <g transform="translate(20.878125 180.25546) scale(0.1 -0.1)">
       <defs>
        <path id="DejaVuSans-31" d="M 794 531 
L 1825 531 
L 1825 4091 
L 703 3866 
L 703 4441 
L 1819 4666 
L 2450 4666 
L 2450 531 
L 3481 531 
L 3481 0 
L 794 0 
L 794 531 
z
" transform="scale(0.015625)"/>
       </defs>
       <use xlink:href="#DejaVuSans-31"/>
       <use xlink:href="#DejaVuSans-2e" x="63.623047"/>
       <use xlink:href="#DejaVuSans-30" x="95.410156"/>
      </g>
     </g>
    </g>
    <g id="text_15">
     <!-- Correlation coefficient -->
     <g transform="translate(14.798438 452.712284) rotate(-90) scale(0.1 -0.1)">
      <defs>
       <path id="DejaVuSans-43" d="M 4122 4306 
L 4122 3641 
Q 3803 3938 3442 4084 
Q 3081 4231 2675 4231 
Q 1875 4231 1450 3742 
Q 1025 3253 1025 2328 
Q 1025 1406 1450 917 
Q 1875 428 2675 428 
Q 3081 428 3442 575 
Q 3803 722 4122 1019 
L 4122 359 
Q 3791 134 3420 21 
Q 3050 -91 2638 -91 
Q 1578 -91 968 557 
Q 359 1206 359 2328 
Q 359 3453 968 4101 
Q 1578 4750 2638 4750 
Q 3056 4750 3426 4639 
Q 3797 4528 4122 4306 
z
" transform="scale(0.015625)"/>
       <path id="DejaVuSans-61" d="M 2194 1759 
Q 1497 1759 1228 1600 
Q 959 1441 959 1056 
Q 959 750 1161 570 
Q 1363 391 1709 391 
Q 2188 391 2477 730 
Q 2766 1069 2766 1631 
L 2766 1759 
L 2194 1759 
z
M 3341 1997 
L 3341 0 
L 2766 0 
L 2766 531 
Q 2569 213 2275 61 
Q 1981 -91 1556 -91 
Q 1019 -91 701 211 
Q 384 513 384 1019 
Q 384 1609 779 1909 
Q 1175 2209 1959 2209 
L 2766 2209 
L 2766 2266 
Q 2766 2663 2505 2880 
Q 2244 3097 1772 3097 
Q 1472 3097 1187 3025 
Q 903 2953 641 2809 
L 641 3341 
Q 956 3463 1253 3523 
Q 1550 3584 1831 3584 
Q 2591 3584 2966 3190 
Q 3341 2797 3341 1997 
z
" transform="scale(0.015625)"/>
       <path id="DejaVuSans-63" d="M 3122 3366 
L 3122 2828 
Q 2878 2963 2633 3030 
Q 2388 3097 2138 3097 
Q 1578 3097 1268 2742 
Q 959 2388 959 1747 
Q 959 1106 1268 751 
Q 1578 397 2138 397 
Q 2388 397 2633 464 
Q 2878 531 3122 666 
L 3122 134 
Q 2881 22 2623 -34 
Q 2366 -91 2075 -91 
Q 1284 -91 818 406 
Q 353 903 353 1747 
Q 353 2603 823 3093 
Q 1294 3584 2113 3584 
Q 2378 3584 2631 3529 
Q 2884 3475 3122 3366 
z
" transform="scale(0.015625)"/>
       <path id="DejaVuSans-66" d="M 2375 4863 
L 2375 4384 
L 1825 4384 
Q 1516 4384 1395 4259 
Q 1275 4134 1275 3809 
L 1275 3500 
L 2222 3500 
L 2222 3053 
L 1275 3053 
L 1275 0 
L 697 0 
L 697 3053 
L 147 3053 
L 147 3500 
L 697 3500 
L 697 3744 
Q 697 4328 969 4595 
Q 1241 4863 1831 4863 
L 2375 4863 
z
" transform="scale(0.015625)"/>
      </defs>
      <use xlink:href="#DejaVuSans-43"/>
      <use xlink:href="#DejaVuSans-6f" x="69.824219"/>
      <use xlink:href="#DejaVuSans-72" x="131.005859"/>
      <use xlink:href="#DejaVuSans-72" x="170.369141"/>
      <use xlink:href="#DejaVuSans-65" x="209.232422"/>
      <use xlink:href="#DejaVuSans-6c" x="270.755859"/>
      <use xlink:href="#DejaVuSans-61" x="298.539062"/>
      <use xlink:href="#DejaVuSans-74" x="359.818359"/>
      <use xlink:href="#DejaVuSans-69" x="399.027344"/>
      <use xlink:href="#DejaVuSans-6f" x="426.810547"/>
      <use xlink:href="#DejaVuSans-6e" x="487.992188"/>
      <use xlink:href="#DejaVuSans-20" x="551.371094"/>
      <use xlink:href="#DejaVuSans-63" x="583.158203"/>
      <use xlink:href="#DejaVuSans-6f" x="638.138672"/>
      <use xlink:href="#DejaVuSans-65" x="699.320312"/>
      <use xlink:href="#DejaVuSans-66" x="760.84375"/>
      <use xlink:href="#DejaVuSans-66" x="796.048828"/>
      <use xlink:href="#DejaVuSans-69" x="831.253906"/>
      <use xlink:href="#DejaVuSans-63" x="859.037109"/>
      <use xlink:href="#DejaVuSans-69" x="914.017578"/>
      <use xlink:href="#DejaVuSans-65" x="941.800781"/>
      <use xlink:href="#DejaVuSans-6e" x="1003.324219"/>
      <use xlink:href="#DejaVuSans-74" x="1066.703125"/>
     </g>
    </g>
   </g>
   <g id="line2d_14">
    <path d="M 78.938101 459.886174 
L 86.040495 458.736124 
L 93.142889 457.586074 
L 100.245283 456.436024 
L 107.347677 455.285975 
L 114.450071 454.135925 
L 121.552465 452.985875 
L 128.654859 451.835825 
L 135.757253 450.685775 
L 142.859647 449.535726 
L 149.962041 448.385676 
L 157.064435 447.235626 
L 164.166829 446.085576 
L 171.269224 444.935526 
L 178.371618 443.785477 
L 185.474012 442.635427 
L 192.576406 441.485377 
L 199.6788 440.335327 
L 206.781194 439.185277 
L 213.883588 438.035228 
L 220.985982 436.885178 
L 228.088376 435.735128 
L 235.19077 434.585078 
L 242.293164 433.435028 
L 249.395558 432.284979 
L 256.497952 431.134929 
L 263.600346 429.984879 
L 270.702741 428.834829 
L 277.805135 427.684779 
L 284.907529 426.53473 
L 292.009923 425.38468 
L 299.112317 424.23463 
L 306.214711 423.08458 
L 313.317105 421.93453 
L 320.419499 420.784481 
L 327.521893 419.634431 
L 334.624287 418.484381 
L 341.726681 417.334331 
L 348.829075 416.184281 
L 355.931469 415.034232 
L 363.033863 413.884182 
L 370.136258 412.734132 
L 377.238652 411.584082 
L 384.341046 410.434032 
L 391.44344 409.283983 
L 398.545834 408.133933 
L 405.648228 406.983883 
L 412.750622 405.833833 
L 419.853016 404.683783 
L 426.95541 403.533734 
L 434.057804 402.383684 
L 441.160198 401.233634 
L 448.262592 400.083584 
L 455.364986 398.933534 
L 462.46738 397.783485 
L 469.569775 396.633435 
L 476.672169 395.483385 
L 483.774563 394.333335 
L 490.876957 393.183285 
L 497.979351 392.033236 
L 505.081745 390.883186 
L 512.184139 389.733136 
L 519.286533 388.583086 
L 526.388927 387.433036 
L 533.491321 386.282987 
L 540.593715 385.132937 
L 547.696109 383.982887 
L 554.798503 382.832837 
L 561.900897 381.682787 
L 569.003292 380.532738 
L 576.105686 379.382688 
L 583.20808 378.232638 
L 590.310474 377.082588 
L 597.412868 375.932538 
L 604.515262 374.782489 
L 611.617656 373.632439 
L 618.72005 372.482389 
L 625.822444 371.332339 
L 632.924838 370.182289 
L 640.027232 369.03224 
L 647.129626 367.88219 
L 654.23202 366.73214 
L 661.334414 365.58209 
L 668.436809 364.43204 
L 675.539203 363.281991 
L 682.641597 362.131941 
L 689.743991 360.981891 
L 696.846385 359.831841 
L 703.948779 358.681791 
L 711.051173 357.531742 
L 718.153567 356.381692 
L 725.255961 355.231642 
L 732.358355 354.081592 
L 739.460749 352.931542 
L 746.563143 351.781493 
L 753.665537 350.631443 
L 760.767931 349.481393 
L 767.870325 348.331343 
L 774.97272 347.181293 
L 782.075114 346.031244 
" clip-path="url(#p23350c2b30)" style="fill: none; stroke: #1f77b4; stroke-width: 2.25; stroke-linecap: square"/>
   </g>
   <g id="line2d_15">
    <path d="M 78.938101 443.499921 
L 86.040495 443.035973 
L 93.142889 442.572025 
L 100.245283 442.108077 
L 107.347677 441.644129 
L 114.450071 441.18018 
L 121.552465 440.716232 
L 128.654859 440.252284 
L 135.757253 439.788336 
L 142.859647 439.324388 
L 149.962041 438.860439 
L 157.064435 438.396491 
L 164.166829 437.932543 
L 171.269224 437.468595 
L 178.371618 437.004647 
L 185.474012 436.540699 
L 192.576406 436.07675 
L 199.6788 435.612802 
L 206.781194 435.148854 
L 213.883588 434.684906 
L 220.985982 434.220958 
L 228.088376 433.75701 
L 235.19077 433.293061 
L 242.293164 432.829113 
L 249.395558 432.365165 
L 256.497952 431.901217 
L 263.600346 431.437269 
L 270.702741 430.973321 
L 277.805135 430.509372 
L 284.907529 430.045424 
L 292.009923 429.581476 
L 299.112317 429.117528 
L 306.214711 428.65358 
L 313.317105 428.189631 
L 320.419499 427.725683 
L 327.521893 427.261735 
L 334.624287 426.797787 
L 341.726681 426.333839 
L 348.829075 425.869891 
L 355.931469 425.405942 
L 363.033863 424.941994 
L 370.136258 424.478046 
L 377.238652 424.014098 
L 384.341046 423.55015 
L 391.44344 423.086202 
L 398.545834 422.622253 
L 405.648228 422.158305 
L 412.750622 421.694357 
L 419.853016 421.230409 
L 426.95541 420.766461 
L 434.057804 420.302513 
L 441.160198 419.838564 
L 448.262592 419.374616 
L 455.364986 418.910668 
L 462.46738 418.44672 
L 469.569775 417.982772 
L 476.672169 417.518823 
L 483.774563 417.054875 
L 490.876957 416.590927 
L 497.979351 416.126979 
L 505.081745 415.663031 
L 512.184139 415.199083 
L 519.286533 414.735134 
L 526.388927 414.271186 
L 533.491321 413.807238 
L 540.593715 413.34329 
L 547.696109 412.879342 
L 554.798503 412.415394 
L 561.900897 411.951445 
L 569.003292 411.487497 
L 576.105686 411.023549 
L 583.20808 410.559601 
L 590.310474 410.095653 
L 597.412868 409.631705 
L 604.515262 409.167756 
L 611.617656 408.703808 
L 618.72005 408.23986 
L 625.822444 407.775912 
L 632.924838 407.311964 
L 640.027232 406.848015 
L 647.129626 406.384067 
L 654.23202 405.920119 
L 661.334414 405.456171 
L 668.436809 404.992223 
L 675.539203 404.528275 
L 682.641597 404.064326 
L 689.743991 403.600378 
L 696.846385 403.13643 
L 703.948779 402.672482 
L 711.051173 402.208534 
L 718.153567 401.744586 
L 725.255961 401.280637 
L 732.358355 400.816689 
L 739.460749 400.352741 
L 746.563143 399.888793 
L 753.665537 399.424845 
L 760.767931 398.960896 
L 767.870325 398.496948 
L 774.97272 398.033 
L 782.075114 397.569052 
" clip-path="url(#p23350c2b30)" style="fill: none; stroke: #ff7f0e; stroke-width: 2.25; stroke-linecap: square"/>
   </g>
   <g id="patch_3">
    <path d="M 43.78125 642.866667 
L 43.78125 151.965714 
" style="fill: none; stroke: #000000; stroke-width: 0.8; stroke-linejoin: miter; stroke-linecap: square"/>
   </g>
   <g id="patch_4">
    <path d="M 43.78125 642.866667 
L 817.231964 642.866667 
" style="fill: none; stroke: #000000; stroke-width: 0.8; stroke-linejoin: miter; stroke-linecap: square"/>
   </g>
   <g id="legend_1">
    <g id="patch_5">
     <path d="M 704.119464 637.866667 
L 810.231964 637.866667 
Q 812.231964 637.866667 812.231964 635.866667 
L 812.231964 607.510417 
Q 812.231964 605.510417 810.231964 605.510417 
L 704.119464 605.510417 
Q 702.119464 605.510417 702.119464 607.510417 
L 702.119464 635.866667 
Q 702.119464 637.866667 704.119464 637.866667 
z
" style="fill: #ffffff; opacity: 0.8; stroke: #cccccc; stroke-linejoin: miter"/>
    </g>
    <g id="PathCollection_3">
     <g>
      <use xlink:href="#mcc28343fac" x="716.119464" y="614.483854" style="fill: #4169e1; fill-opacity: 0.5; stroke: #000000; stroke-opacity: 0.5"/>
     </g>
    </g>
    <g id="text_16">
     <!-- Codon number -->
     <g transform="translate(734.119464 617.108854) scale(0.1 -0.1)">
      <defs>
       <path id="DejaVuSans-64" d="M 2906 2969 
L 2906 4863 
L 3481 4863 
L 3481 0 
L 2906 0 
L 2906 525 
Q 2725 213 2448 61 
Q 2172 -91 1784 -91 
Q 1150 -91 751 415 
Q 353 922 353 1747 
Q 353 2572 751 3078 
Q 1150 3584 1784 3584 
Q 2172 3584 2448 3432 
Q 2725 3281 2906 2969 
z
M 947 1747 
Q 947 1113 1208 752 
Q 1469 391 1925 391 
Q 2381 391 2643 752 
Q 2906 1113 2906 1747 
Q 2906 2381 2643 2742 
Q 2381 3103 1925 3103 
Q 1469 3103 1208 2742 
Q 947 2381 947 1747 
z
" transform="scale(0.015625)"/>
       <path id="DejaVuSans-75" d="M 544 1381 
L 544 3500 
L 1119 3500 
L 1119 1403 
Q 1119 906 1312 657 
Q 1506 409 1894 409 
Q 2359 409 2629 706 
Q 2900 1003 2900 1516 
L 2900 3500 
L 3475 3500 
L 3475 0 
L 2900 0 
L 2900 538 
Q 2691 219 2414 64 
Q 2138 -91 1772 -91 
Q 1169 -91 856 284 
Q 544 659 544 1381 
z
M 1991 3584 
L 1991 3584 
z
" transform="scale(0.015625)"/>
       <path id="DejaVuSans-6d" d="M 3328 2828 
Q 3544 3216 3844 3400 
Q 4144 3584 4550 3584 
Q 5097 3584 5394 3201 
Q 5691 2819 5691 2113 
L 5691 0 
L 5113 0 
L 5113 2094 
Q 5113 2597 4934 2840 
Q 4756 3084 4391 3084 
Q 3944 3084 3684 2787 
Q 3425 2491 3425 1978 
L 3425 0 
L 2847 0 
L 2847 2094 
Q 2847 2600 2669 2842 
Q 2491 3084 2119 3084 
Q 1678 3084 1418 2786 
Q 1159 2488 1159 1978 
L 1159 0 
L 581 0 
L 581 3500 
L 1159 3500 
L 1159 2956 
Q 1356 3278 1631 3431 
Q 1906 3584 2284 3584 
Q 2666 3584 2933 3390 
Q 3200 3197 3328 2828 
z
" transform="scale(0.015625)"/>
       <path id="DejaVuSans-62" d="M 3116 1747 
Q 3116 2381 2855 2742 
Q 2594 3103 2138 3103 
Q 1681 3103 1420 2742 
Q 1159 2381 1159 1747 
Q 1159 1113 1420 752 
Q 1681 391 2138 391 
Q 2594 391 2855 752 
Q 3116 1113 3116 1747 
z
M 1159 2969 
Q 1341 3281 1617 3432 
Q 1894 3584 2278 3584 
Q 2916 3584 3314 3078 
Q 3713 2572 3713 1747 
Q 3713 922 3314 415 
Q 2916 -91 2278 -91 
Q 1894 -91 1617 61 
Q 1341 213 1159 525 
L 1159 0 
L 581 0 
L 581 4863 
L 1159 4863 
L 1159 2969 
z
" transform="scale(0.015625)"/>
      </defs>
      <use xlink:href="#DejaVuSans-43"/>
      <use xlink:href="#DejaVuSans-6f" x="69.824219"/>
      <use xlink:href="#DejaVuSans-64" x="131.005859"/>
      <use xlink:href="#DejaVuSans-6f" x="194.482422"/>
      <use xlink:href="#DejaVuSans-6e" x="255.664062"/>
      <use xlink:href="#DejaVuSans-20" x="319.042969"/>
      <use xlink:href="#DejaVuSans-6e" x="350.830078"/>
      <use xlink:href="#DejaVuSans-75" x="414.208984"/>
      <use xlink:href="#DejaVuSans-6d" x="477.587891"/>
      <use xlink:href="#DejaVuSans-62" x="575"/>
      <use xlink:href="#DejaVuSans-65" x="638.476562"/>
      <use xlink:href="#DejaVuSans-72" x="700"/>
     </g>
    </g>
    <g id="PathCollection_4">
     <g>
      <use xlink:href="#m87d0c7d2d5" x="716.119464" y="629.161979" style="fill: #ff8c00; fill-opacity: 0.5; stroke: #000000; stroke-opacity: 0.5"/>
     </g>
    </g>
    <g id="text_17">
     <!-- Codon+GC -->
     <g transform="translate(734.119464 631.786979) scale(0.1 -0.1)">
      <defs>
       <path id="DejaVuSans-2b" d="M 2944 4013 
L 2944 2272 
L 4684 2272 
L 4684 1741 
L 2944 1741 
L 2944 0 
L 2419 0 
L 2419 1741 
L 678 1741 
L 678 2272 
L 2419 2272 
L 2419 4013 
L 2944 4013 
z
" transform="scale(0.015625)"/>
       <path id="DejaVuSans-47" d="M 3809 666 
L 3809 1919 
L 2778 1919 
L 2778 2438 
L 4434 2438 
L 4434 434 
Q 4069 175 3628 42 
Q 3188 -91 2688 -91 
Q 1594 -91 976 548 
Q 359 1188 359 2328 
Q 359 3472 976 4111 
Q 1594 4750 2688 4750 
Q 3144 4750 3555 4637 
Q 3966 4525 4313 4306 
L 4313 3634 
Q 3963 3931 3569 4081 
Q 3175 4231 2741 4231 
Q 1884 4231 1454 3753 
Q 1025 3275 1025 2328 
Q 1025 1384 1454 906 
Q 1884 428 2741 428 
Q 3075 428 3337 486 
Q 3600 544 3809 666 
z
" transform="scale(0.015625)"/>
      </defs>
      <use xlink:href="#DejaVuSans-43"/>
      <use xlink:href="#DejaVuSans-6f" x="69.824219"/>
      <use xlink:href="#DejaVuSans-64" x="131.005859"/>
      <use xlink:href="#DejaVuSans-6f" x="194.482422"/>
      <use xlink:href="#DejaVuSans-6e" x="255.664062"/>
      <use xlink:href="#DejaVuSans-2b" x="319.042969"/>
      <use xlink:href="#DejaVuSans-47" x="402.832031"/>
      <use xlink:href="#DejaVuSans-43" x="480.322266"/>
     </g>
    </g>
   </g>
  </g>
  <g id="axes_2">
   <g id="patch_6">
    <path d="M 43.78125 135.038095 
L 817.231964 135.038095 
L 817.231964 50.4 
L 43.78125 50.4 
z
" style="fill: #ffffff"/>
   </g>
   <g id="PolyCollection_3">
    <defs>
     <path id="md7933c7f86" d="M 78.938101 -549.627332 
L 78.938101 -545.384821 
L 105.981832 -545.384821 
L 105.981832 -545.384821 
L 133.025563 -545.384821 
L 133.025563 -545.384821 
L 160.069294 -545.384821 
L 160.069294 -545.384821 
L 187.113026 -545.384821 
L 187.113026 -545.384821 
L 214.156757 -545.384821 
L 214.156757 -545.384821 
L 241.200488 -545.384821 
L 241.200488 -545.384821 
L 268.24422 -545.384821 
L 268.24422 -545.384821 
L 295.287951 -545.384821 
L 295.287951 -545.384821 
L 322.331682 -545.384821 
L 322.331682 -545.384821 
L 349.375413 -545.384821 
L 349.375413 -545.384821 
L 376.419145 -545.384821 
L 376.419145 -545.384821 
L 403.462876 -545.384821 
L 403.462876 -545.384821 
L 430.506607 -545.384821 
L 430.506607 -545.384821 
L 457.550338 -545.384821 
L 457.550338 -545.384821 
L 484.59407 -545.384821 
L 484.59407 -545.384821 
L 511.637801 -545.384821 
L 511.637801 -545.384821 
L 538.681532 -545.384821 
L 538.681532 -545.384821 
L 565.725263 -545.384821 
L 565.725263 -545.384821 
L 592.768995 -545.384821 
L 592.768995 -545.384821 
L 619.812726 -545.384821 
L 619.812726 -545.384821 
L 646.856457 -545.384821 
L 646.856457 -545.384821 
L 673.900189 -545.384821 
L 673.900189 -545.384821 
L 700.94392 -545.384821 
L 700.94392 -545.384821 
L 727.987651 -545.384821 
L 727.987651 -545.384821 
L 755.031382 -545.384821 
L 755.031382 -545.384821 
L 782.075114 -545.384821 
L 782.075114 -545.384821 
L 782.075114 -549.627332 
L 782.075114 -549.627332 
L 782.075114 -549.627332 
L 755.031382 -549.627332 
L 755.031382 -545.384821 
L 727.987651 -545.384821 
L 727.987651 -545.384821 
L 700.94392 -545.384821 
L 700.94392 -545.384821 
L 673.900189 -545.384821 
L 673.900189 -545.384821 
L 646.856457 -545.384821 
L 646.856457 -545.384821 
L 619.812726 -545.384821 
L 619.812726 -545.384821 
L 592.768995 -545.384821 
L 592.768995 -545.384821 
L 565.725263 -545.384821 
L 565.725263 -545.384821 
L 538.681532 -545.384821 
L 538.681532 -545.384821 
L 511.637801 -545.384821 
L 511.637801 -549.627332 
L 484.59407 -549.627332 
L 484.59407 -545.384821 
L 457.550338 -545.384821 
L 457.550338 -549.627332 
L 430.506607 -549.627332 
L 430.506607 -545.384821 
L 403.462876 -545.384821 
L 403.462876 -549.627332 
L 376.419145 -549.627332 
L 376.419145 -545.384821 
L 349.375413 -545.384821 
L 349.375413 -566.597377 
L 322.331682 -566.597377 
L 322.331682 -575.082399 
L 295.287951 -575.082399 
L 295.287951 -625.992531 
L 268.24422 -625.992531 
L 268.24422 -604.779976 
L 241.200488 -604.779976 
L 241.200488 -579.32491 
L 214.156757 -579.32491 
L 214.156757 -558.112355 
L 187.113026 -558.112355 
L 187.113026 -549.627332 
L 160.069294 -549.627332 
L 160.069294 -562.354866 
L 133.025563 -562.354866 
L 133.025563 -549.627332 
L 105.981832 -549.627332 
L 105.981832 -549.627332 
L 78.938101 -549.627332 
z
" style="stroke: #000000"/>
    </defs>
    <g clip-path="url(#pdc4f39a7ba)">
     <use xlink:href="#md7933c7f86" x="0" y="680.422917" style="fill: #800080; fill-opacity: 0.75; stroke: #000000"/>
    </g>
   </g>
   <g id="matplotlib.axis_3">
    <g id="xtick_6">
     <g id="line2d_16">
      <g>
       <use xlink:href="#m3a78cf2a17" x="149.654618" y="135.038095" style="stroke: #000000; stroke-width: 0.8"/>
      </g>
     </g>
    </g>
    <g id="xtick_7">
     <g id="line2d_17">
      <g>
       <use xlink:href="#m3a78cf2a17" x="283.926485" y="135.038095" style="stroke: #000000; stroke-width: 0.8"/>
      </g>
     </g>
    </g>
    <g id="xtick_8">
     <g id="line2d_18">
      <g>
       <use xlink:href="#m3a78cf2a17" x="418.198353" y="135.038095" style="stroke: #000000; stroke-width: 0.8"/>
      </g>
     </g>
    </g>
    <g id="xtick_9">
     <g id="line2d_19">
      <g>
       <use xlink:href="#m3a78cf2a17" x="552.47022" y="135.038095" style="stroke: #000000; stroke-width: 0.8"/>
      </g>
     </g>
    </g>
    <g id="xtick_10">
     <g id="line2d_20">
      <g>
       <use xlink:href="#m3a78cf2a17" x="686.742088" y="135.038095" style="stroke: #000000; stroke-width: 0.8"/>
      </g>
     </g>
    </g>
   </g>
   <g id="matplotlib.axis_4">
    <g id="ytick_9"/>
    <g id="ytick_10"/>
    <g id="ytick_11"/>
    <g id="ytick_12"/>
   </g>
   <g id="patch_7">
    <path d="M 43.78125 135.038095 
L 817.231964 135.038095 
" style="fill: none; stroke: #000000; stroke-width: 0.8; stroke-linejoin: miter; stroke-linecap: square"/>
   </g>
  </g>
  <g id="axes_3">
   <g id="patch_8">
    <path d="M 843.902679 642.866667 
L 977.25625 642.866667 
L 977.25625 151.965714 
L 843.902679 151.965714 
z
" style="fill: #ffffff"/>
   </g>
   <g id="PolyCollection_4">
    <defs>
     <path id="m40109dc5c6" d="M 876.299353 -88.836149 
L 849.964205 -88.836149 
L 849.964205 -88.836149 
L 849.964205 -126.256638 
L 849.964205 -126.256638 
L 849.964205 -163.677126 
L 849.964205 -163.677126 
L 849.964205 -201.097615 
L 849.964205 -201.097615 
L 849.964205 -238.518103 
L 849.964205 -238.518103 
L 849.964205 -275.938592 
L 849.964205 -275.938592 
L 849.964205 -313.35908 
L 849.964205 -313.35908 
L 849.964205 -350.779569 
L 876.299353 -350.779569 
L 876.299353 -350.779569 
L 876.299353 -313.35908 
L 915.802075 -313.35908 
L 915.802075 -275.938592 
L 935.553437 -275.938592 
L 935.553437 -238.518103 
L 948.721011 -238.518103 
L 948.721011 -201.097615 
L 902.634501 -201.097615 
L 902.634501 -163.677126 
L 915.802075 -163.677126 
L 915.802075 -126.256638 
L 869.715566 -126.256638 
L 869.715566 -88.836149 
L 876.299353 -88.836149 
z
" style="stroke: #000000; stroke-opacity: 0.5"/>
    </defs>
    <g clip-path="url(#pd55abf6e19)">
     <use xlink:href="#m40109dc5c6" x="0" y="680.422917" style="fill: #4169e1; fill-opacity: 0.5; stroke: #000000; stroke-opacity: 0.5"/>
    </g>
   </g>
   <g id="PolyCollection_5">
    <defs>
     <path id="m744c4990bf" d="M 856.699233 -59.86993 
L 849.964205 -59.86993 
L 849.964205 -59.86993 
L 849.964205 -96.450104 
L 849.964205 -96.450104 
L 849.964205 -133.030278 
L 849.964205 -133.030278 
L 849.964205 -169.610453 
L 849.964205 -169.610453 
L 849.964205 -206.190627 
L 849.964205 -206.190627 
L 849.964205 -242.770801 
L 849.964205 -242.770801 
L 849.964205 -279.350975 
L 849.964205 -279.350975 
L 849.964205 -315.93115 
L 897.109407 -315.93115 
L 897.109407 -315.93115 
L 897.109407 -279.350975 
L 964.459695 -279.350975 
L 964.459695 -242.770801 
L 971.194724 -242.770801 
L 971.194724 -206.190627 
L 910.579464 -206.190627 
L 910.579464 -169.610453 
L 910.579464 -169.610453 
L 910.579464 -133.030278 
L 876.90432 -133.030278 
L 876.90432 -96.450104 
L 863.434262 -96.450104 
L 863.434262 -59.86993 
L 856.699233 -59.86993 
z
" style="stroke: #000000; stroke-opacity: 0.5"/>
    </defs>
    <g clip-path="url(#pd55abf6e19)">
     <use xlink:href="#m744c4990bf" x="0" y="680.422917" style="fill: #ff8c00; fill-opacity: 0.5; stroke: #000000; stroke-opacity: 0.5"/>
    </g>
   </g>
   <g id="matplotlib.axis_5">
    <g id="xtick_11"/>
    <g id="xtick_12"/>
    <g id="xtick_13"/>
   </g>
   <g id="matplotlib.axis_6">
    <g id="ytick_13">
     <g id="line2d_21">
      <g>
       <use xlink:href="#ma671fc764c" x="843.902679" y="620.440404" style="stroke: #000000; stroke-width: 0.8"/>
      </g>
     </g>
    </g>
    <g id="ytick_14">
     <g id="line2d_22">
      <g>
       <use xlink:href="#ma671fc764c" x="843.902679" y="557.014095" style="stroke: #000000; stroke-width: 0.8"/>
      </g>
     </g>
    </g>
    <g id="ytick_15">
     <g id="line2d_23">
      <g>
       <use xlink:href="#ma671fc764c" x="843.902679" y="493.587786" style="stroke: #000000; stroke-width: 0.8"/>
      </g>
     </g>
    </g>
    <g id="ytick_16">
     <g id="line2d_24">
      <g>
       <use xlink:href="#ma671fc764c" x="843.902679" y="430.161477" style="stroke: #000000; stroke-width: 0.8"/>
      </g>
     </g>
    </g>
    <g id="ytick_17">
     <g id="line2d_25">
      <g>
       <use xlink:href="#ma671fc764c" x="843.902679" y="366.735168" style="stroke: #000000; stroke-width: 0.8"/>
      </g>
     </g>
    </g>
    <g id="ytick_18">
     <g id="line2d_26">
      <g>
       <use xlink:href="#ma671fc764c" x="843.902679" y="303.308859" style="stroke: #000000; stroke-width: 0.8"/>
      </g>
     </g>
    </g>
    <g id="ytick_19">
     <g id="line2d_27">
      <g>
       <use xlink:href="#ma671fc764c" x="843.902679" y="239.88255" style="stroke: #000000; stroke-width: 0.8"/>
      </g>
     </g>
    </g>
    <g id="ytick_20">
     <g id="line2d_28">
      <g>
       <use xlink:href="#ma671fc764c" x="843.902679" y="176.456242" style="stroke: #000000; stroke-width: 0.8"/>
      </g>
     </g>
    </g>
   </g>
   <g id="patch_9">
    <path d="M 843.902679 642.866667 
L 843.902679 151.965714 
" style="fill: none; stroke: #000000; stroke-width: 0.8; stroke-linejoin: miter; stroke-linecap: square"/>
   </g>
  </g>
  <g id="text_18">
   <!-- Archaea - Spearman correlation coefficients for genetic code: SOM -->
   <g transform="translate(264.132812 16.318125) scale(0.12 -0.12)">
    <defs>
     <path id="DejaVuSans-41" d="M 2188 4044 
L 1331 1722 
L 3047 1722 
L 2188 4044 
z
M 1831 4666 
L 2547 4666 
L 4325 0 
L 3669 0 
L 3244 1197 
L 1141 1197 
L 716 0 
L 50 0 
L 1831 4666 
z
" transform="scale(0.015625)"/>
     <path id="DejaVuSans-2d" d="M 313 2009 
L 1997 2009 
L 1997 1497 
L 313 1497 
L 313 2009 
z
" transform="scale(0.015625)"/>
     <path id="DejaVuSans-53" d="M 3425 4513 
L 3425 3897 
Q 3066 4069 2747 4153 
Q 2428 4238 2131 4238 
Q 1616 4238 1336 4038 
Q 1056 3838 1056 3469 
Q 1056 3159 1242 3001 
Q 1428 2844 1947 2747 
L 2328 2669 
Q 3034 2534 3370 2195 
Q 3706 1856 3706 1288 
Q 3706 609 3251 259 
Q 2797 -91 1919 -91 
Q 1588 -91 1214 -16 
Q 841 59 441 206 
L 441 856 
Q 825 641 1194 531 
Q 1563 422 1919 422 
Q 2459 422 2753 634 
Q 3047 847 3047 1241 
Q 3047 1584 2836 1778 
Q 2625 1972 2144 2069 
L 1759 2144 
Q 1053 2284 737 2584 
Q 422 2884 422 3419 
Q 422 4038 858 4394 
Q 1294 4750 2059 4750 
Q 2388 4750 2728 4690 
Q 3069 4631 3425 4513 
z
" transform="scale(0.015625)"/>
     <path id="DejaVuSans-70" d="M 1159 525 
L 1159 -1331 
L 581 -1331 
L 581 3500 
L 1159 3500 
L 1159 2969 
Q 1341 3281 1617 3432 
Q 1894 3584 2278 3584 
Q 2916 3584 3314 3078 
Q 3713 2572 3713 1747 
Q 3713 922 3314 415 
Q 2916 -91 2278 -91 
Q 1894 -91 1617 61 
Q 1341 213 1159 525 
z
M 3116 1747 
Q 3116 2381 2855 2742 
Q 2594 3103 2138 3103 
Q 1681 3103 1420 2742 
Q 1159 2381 1159 1747 
Q 1159 1113 1420 752 
Q 1681 391 2138 391 
Q 2594 391 2855 752 
Q 3116 1113 3116 1747 
z
" transform="scale(0.015625)"/>
     <path id="DejaVuSans-73" d="M 2834 3397 
L 2834 2853 
Q 2591 2978 2328 3040 
Q 2066 3103 1784 3103 
Q 1356 3103 1142 2972 
Q 928 2841 928 2578 
Q 928 2378 1081 2264 
Q 1234 2150 1697 2047 
L 1894 2003 
Q 2506 1872 2764 1633 
Q 3022 1394 3022 966 
Q 3022 478 2636 193 
Q 2250 -91 1575 -91 
Q 1294 -91 989 -36 
Q 684 19 347 128 
L 347 722 
Q 666 556 975 473 
Q 1284 391 1588 391 
Q 1994 391 2212 530 
Q 2431 669 2431 922 
Q 2431 1156 2273 1281 
Q 2116 1406 1581 1522 
L 1381 1569 
Q 847 1681 609 1914 
Q 372 2147 372 2553 
Q 372 3047 722 3315 
Q 1072 3584 1716 3584 
Q 2034 3584 2315 3537 
Q 2597 3491 2834 3397 
z
" transform="scale(0.015625)"/>
     <path id="DejaVuSans-3a" d="M 750 794 
L 1409 794 
L 1409 0 
L 750 0 
L 750 794 
z
M 750 3309 
L 1409 3309 
L 1409 2516 
L 750 2516 
L 750 3309 
z
" transform="scale(0.015625)"/>
     <path id="DejaVuSans-4f" d="M 2522 4238 
Q 1834 4238 1429 3725 
Q 1025 3213 1025 2328 
Q 1025 1447 1429 934 
Q 1834 422 2522 422 
Q 3209 422 3611 934 
Q 4013 1447 4013 2328 
Q 4013 3213 3611 3725 
Q 3209 4238 2522 4238 
z
M 2522 4750 
Q 3503 4750 4090 4092 
Q 4678 3434 4678 2328 
Q 4678 1225 4090 567 
Q 3503 -91 2522 -91 
Q 1538 -91 948 565 
Q 359 1222 359 2328 
Q 359 3434 948 4092 
Q 1538 4750 2522 4750 
z
" transform="scale(0.015625)"/>
     <path id="DejaVuSans-4d" d="M 628 4666 
L 1569 4666 
L 2759 1491 
L 3956 4666 
L 4897 4666 
L 4897 0 
L 4281 0 
L 4281 4097 
L 3078 897 
L 2444 897 
L 1241 4097 
L 1241 0 
L 628 0 
L 628 4666 
z
" transform="scale(0.015625)"/>
    </defs>
    <use xlink:href="#DejaVuSans-41"/>
    <use xlink:href="#DejaVuSans-72" x="68.408203"/>
    <use xlink:href="#DejaVuSans-63" x="107.271484"/>
    <use xlink:href="#DejaVuSans-68" x="162.251953"/>
    <use xlink:href="#DejaVuSans-61" x="225.630859"/>
    <use xlink:href="#DejaVuSans-65" x="286.910156"/>
    <use xlink:href="#DejaVuSans-61" x="348.433594"/>
    <use xlink:href="#DejaVuSans-20" x="409.712891"/>
    <use xlink:href="#DejaVuSans-2d" x="441.5"/>
    <use xlink:href="#DejaVuSans-20" x="477.583984"/>
    <use xlink:href="#DejaVuSans-53" x="509.371094"/>
    <use xlink:href="#DejaVuSans-70" x="572.847656"/>
    <use xlink:href="#DejaVuSans-65" x="636.324219"/>
    <use xlink:href="#DejaVuSans-61" x="697.847656"/>
    <use xlink:href="#DejaVuSans-72" x="759.126953"/>
    <use xlink:href="#DejaVuSans-6d" x="798.490234"/>
    <use xlink:href="#DejaVuSans-61" x="895.902344"/>
    <use xlink:href="#DejaVuSans-6e" x="957.181641"/>
    <use xlink:href="#DejaVuSans-20" x="1020.560547"/>
    <use xlink:href="#DejaVuSans-63" x="1052.347656"/>
    <use xlink:href="#DejaVuSans-6f" x="1107.328125"/>
    <use xlink:href="#DejaVuSans-72" x="1168.509766"/>
    <use xlink:href="#DejaVuSans-72" x="1207.873047"/>
    <use xlink:href="#DejaVuSans-65" x="1246.736328"/>
    <use xlink:href="#DejaVuSans-6c" x="1308.259766"/>
    <use xlink:href="#DejaVuSans-61" x="1336.042969"/>
    <use xlink:href="#DejaVuSans-74" x="1397.322266"/>
    <use xlink:href="#DejaVuSans-69" x="1436.53125"/>
    <use xlink:href="#DejaVuSans-6f" x="1464.314453"/>
    <use xlink:href="#DejaVuSans-6e" x="1525.496094"/>
    <use xlink:href="#DejaVuSans-20" x="1588.875"/>
    <use xlink:href="#DejaVuSans-63" x="1620.662109"/>
    <use xlink:href="#DejaVuSans-6f" x="1675.642578"/>
    <use xlink:href="#DejaVuSans-65" x="1736.824219"/>
    <use xlink:href="#DejaVuSans-66" x="1798.347656"/>
    <use xlink:href="#DejaVuSans-66" x="1833.552734"/>
    <use xlink:href="#DejaVuSans-69" x="1868.757812"/>
    <use xlink:href="#DejaVuSans-63" x="1896.541016"/>
    <use xlink:href="#DejaVuSans-69" x="1951.521484"/>
    <use xlink:href="#DejaVuSans-65" x="1979.304688"/>
    <use xlink:href="#DejaVuSans-6e" x="2040.828125"/>
    <use xlink:href="#DejaVuSans-74" x="2104.207031"/>
    <use xlink:href="#DejaVuSans-73" x="2143.416016"/>
    <use xlink:href="#DejaVuSans-20" x="2195.515625"/>
    <use xlink:href="#DejaVuSans-66" x="2227.302734"/>
    <use xlink:href="#DejaVuSans-6f" x="2262.507812"/>
    <use xlink:href="#DejaVuSans-72" x="2323.689453"/>
    <use xlink:href="#DejaVuSans-20" x="2364.802734"/>
    <use xlink:href="#DejaVuSans-67" x="2396.589844"/>
    <use xlink:href="#DejaVuSans-65" x="2460.066406"/>
    <use xlink:href="#DejaVuSans-6e" x="2521.589844"/>
    <use xlink:href="#DejaVuSans-65" x="2584.96875"/>
    <use xlink:href="#DejaVuSans-74" x="2646.492188"/>
    <use xlink:href="#DejaVuSans-69" x="2685.701172"/>
    <use xlink:href="#DejaVuSans-63" x="2713.484375"/>
    <use xlink:href="#DejaVuSans-20" x="2768.464844"/>
    <use xlink:href="#DejaVuSans-63" x="2800.251953"/>
    <use xlink:href="#DejaVuSans-6f" x="2855.232422"/>
    <use xlink:href="#DejaVuSans-64" x="2916.414062"/>
    <use xlink:href="#DejaVuSans-65" x="2979.890625"/>
    <use xlink:href="#DejaVuSans-3a" x="3041.414062"/>
    <use xlink:href="#DejaVuSans-20" x="3075.105469"/>
    <use xlink:href="#DejaVuSans-53" x="3106.892578"/>
    <use xlink:href="#DejaVuSans-4f" x="3170.369141"/>
    <use xlink:href="#DejaVuSans-4d" x="3249.080078"/>
   </g>
  </g>
 </g>
 <defs>
  <clipPath id="p23350c2b30">
   <rect x="43.78125" y="151.965714" width="773.450714" height="490.900952"/>
  </clipPath>
  <clipPath id="pdc4f39a7ba">
   <rect x="43.78125" y="50.4" width="773.450714" height="84.638095"/>
  </clipPath>
  <clipPath id="pd55abf6e19">
   <rect x="843.902679" y="151.965714" width="133.353571" height="490.900952"/>
  </clipPath>
 </defs>
</svg>
