<?xml version="1.0" encoding="utf-8" standalone="no"?>
<!DOCTYPE svg PUBLIC "-//W3C//DTD SVG 1.1//EN"
  "http://www.w3.org/Graphics/SVG/1.1/DTD/svg11.dtd">
<svg xmlns:xlink="http://www.w3.org/1999/xlink" width="984.45625pt" height="680.422917pt" viewBox="0 0 984.45625 680.422917" xmlns="http://www.w3.org/2000/svg" version="1.1">
 <metadata>
  <rdf:RDF xmlns:dc="http://purl.org/dc/elements/1.1/" xmlns:cc="http://creativecommons.org/ns#" xmlns:rdf="http://www.w3.org/1999/02/22-rdf-syntax-ns#">
   <cc:Work>
    <dc:type rdf:resource="http://purl.org/dc/dcmitype/StillImage"/>
    <dc:date>2025-01-27T13:11:05.871272</dc:date>
    <dc:format>image/svg+xml</dc:format>
    <dc:creator>
     <cc:Agent>
      <dc:title>Matplotlib v3.6.3, https://matplotlib.org/</dc:title>
     </cc:Agent>
    </dc:creator>
   </cc:Work>
  </rdf:RDF>
 </metadata>
 <defs>
  <style type="text/css">*{stroke-linejoin: round; stroke-linecap: butt}</style>
 </defs>
 <g id="figure_1">
  <g id="patch_1">
   <path d="M 0 680.422917 
L 984.45625 680.422917 
L 984.45625 0 
L 0 0 
z
" style="fill: #ffffff"/>
  </g>
  <g id="axes_1">
   <g id="patch_2">
    <path d="M 43.78125 642.866667 
L 817.231964 642.866667 
L 817.231964 151.965714 
L 43.78125 151.965714 
z
" style="fill: #ffffff"/>
   </g>
   <g id="PathCollection_1">
    <defs>
     <path id="m898783bd64" d="M 0 3 
C 0.795609 3 1.55874 2.683901 2.12132 2.12132 
C 2.683901 1.55874 3 0.795609 3 0 
C 3 -0.795609 2.683901 -1.55874 2.12132 -2.12132 
C 1.55874 -2.683901 0.795609 -3 0 -3 
C -0.795609 -3 -1.55874 -2.683901 -2.12132 -2.12132 
C -2.683901 -1.55874 -3 -0.795609 -3 0 
C -3 0.795609 -2.683901 1.55874 -2.12132 2.12132 
C -1.55874 2.683901 -0.795609 3 0 3 
z
" style="stroke: #000000; stroke-opacity: 0.5"/>
    </defs>
    <g clip-path="url(#p15735908df)">
     <use xlink:href="#m898783bd64" x="230.581865" y="476.944768" style="fill: #4169e1; fill-opacity: 0.5; stroke: #000000; stroke-opacity: 0.5"/>
     <use xlink:href="#m898783bd64" x="250.77199" y="364.495539" style="fill: #4169e1; fill-opacity: 0.5; stroke: #000000; stroke-opacity: 0.5"/>
     <use xlink:href="#m898783bd64" x="259.792425" y="386.985384" style="fill: #4169e1; fill-opacity: 0.5; stroke: #000000; stroke-opacity: 0.5"/>
     <use xlink:href="#m898783bd64" x="259.439917" y="439.461691" style="fill: #4169e1; fill-opacity: 0.5; stroke: #000000; stroke-opacity: 0.5"/>
     <use xlink:href="#m898783bd64" x="283.830577" y="379.488769" style="fill: #4169e1; fill-opacity: 0.5; stroke: #000000; stroke-opacity: 0.5"/>
     <use xlink:href="#m898783bd64" x="212.091036" y="424.468461" style="fill: #4169e1; fill-opacity: 0.5; stroke: #000000; stroke-opacity: 0.5"/>
     <use xlink:href="#m898783bd64" x="293.262232" y="424.468461" style="fill: #4169e1; fill-opacity: 0.5; stroke: #000000; stroke-opacity: 0.5"/>
     <use xlink:href="#m898783bd64" x="267.432497" y="401.978615" style="fill: #4169e1; fill-opacity: 0.5; stroke: #000000; stroke-opacity: 0.5"/>
     <use xlink:href="#m898783bd64" x="492.719239" y="319.515847" style="fill: #4169e1; fill-opacity: 0.5; stroke: #000000; stroke-opacity: 0.5"/>
     <use xlink:href="#m898783bd64" x="136.227431" y="523.227933" style="fill: #4169e1; fill-opacity: 0.5; stroke: #000000; stroke-opacity: 0.5"/>
     <use xlink:href="#m898783bd64" x="180.537147" y="472.760725" style="fill: #4169e1; fill-opacity: 0.5; stroke: #000000; stroke-opacity: 0.5"/>
     <use xlink:href="#m898783bd64" x="305.497493" y="334.509078" style="fill: #4169e1; fill-opacity: 0.5; stroke: #000000; stroke-opacity: 0.5"/>
     <use xlink:href="#m898783bd64" x="223.504145" y="425.129297" style="fill: #4169e1; fill-opacity: 0.5; stroke: #000000; stroke-opacity: 0.5"/>
     <use xlink:href="#m898783bd64" x="246.317574" y="499.434613" style="fill: #4169e1; fill-opacity: 0.5; stroke: #000000; stroke-opacity: 0.5"/>
     <use xlink:href="#m898783bd64" x="286.228289" y="461.951537" style="fill: #4169e1; fill-opacity: 0.5; stroke: #000000; stroke-opacity: 0.5"/>
     <use xlink:href="#m898783bd64" x="248.277304" y="342.005693" style="fill: #4169e1; fill-opacity: 0.5; stroke: #000000; stroke-opacity: 0.5"/>
     <use xlink:href="#m898783bd64" x="232.315042" y="454.454922" style="fill: #4169e1; fill-opacity: 0.5; stroke: #000000; stroke-opacity: 0.5"/>
     <use xlink:href="#m898783bd64" x="347.715078" y="371.992154" style="fill: #4169e1; fill-opacity: 0.5; stroke: #000000; stroke-opacity: 0.5"/>
     <use xlink:href="#m898783bd64" x="229.620974" y="409.47523" style="fill: #4169e1; fill-opacity: 0.5; stroke: #000000; stroke-opacity: 0.5"/>
     <use xlink:href="#m898783bd64" x="261.721911" y="514.427844" style="fill: #4169e1; fill-opacity: 0.5; stroke: #000000; stroke-opacity: 0.5"/>
     <use xlink:href="#m898783bd64" x="292.43037" y="349.502308" style="fill: #4169e1; fill-opacity: 0.5; stroke: #000000; stroke-opacity: 0.5"/>
     <use xlink:href="#m898783bd64" x="263.685315" y="334.509078" style="fill: #4169e1; fill-opacity: 0.5; stroke: #000000; stroke-opacity: 0.5"/>
     <use xlink:href="#m898783bd64" x="252.36194" y="401.978615" style="fill: #4169e1; fill-opacity: 0.5; stroke: #000000; stroke-opacity: 0.5"/>
     <use xlink:href="#m898783bd64" x="267.366288" y="469.448152" style="fill: #4169e1; fill-opacity: 0.5; stroke: #000000; stroke-opacity: 0.5"/>
     <use xlink:href="#m898783bd64" x="443.038648" y="297.026001" style="fill: #4169e1; fill-opacity: 0.5; stroke: #000000; stroke-opacity: 0.5"/>
     <use xlink:href="#m898783bd64" x="272.545757" y="386.985384" style="fill: #4169e1; fill-opacity: 0.5; stroke: #000000; stroke-opacity: 0.5"/>
     <use xlink:href="#m898783bd64" x="282.822927" y="409.47523" style="fill: #4169e1; fill-opacity: 0.5; stroke: #000000; stroke-opacity: 0.5"/>
     <use xlink:href="#m898783bd64" x="134.884712" y="381.20068" style="fill: #4169e1; fill-opacity: 0.5; stroke: #000000; stroke-opacity: 0.5"/>
     <use xlink:href="#m898783bd64" x="338.977951" y="401.978615" style="fill: #4169e1; fill-opacity: 0.5; stroke: #000000; stroke-opacity: 0.5"/>
     <use xlink:href="#m898783bd64" x="252.301175" y="356.998923" style="fill: #4169e1; fill-opacity: 0.5; stroke: #000000; stroke-opacity: 0.5"/>
     <use xlink:href="#m898783bd64" x="782.075114" y="355.507544" style="fill: #4169e1; fill-opacity: 0.5; stroke: #000000; stroke-opacity: 0.5"/>
     <use xlink:href="#m898783bd64" x="78.938101" y="386.985384" style="fill: #4169e1; fill-opacity: 0.5; stroke: #000000; stroke-opacity: 0.5"/>
     <use xlink:href="#m898783bd64" x="272.454485" y="371.992154" style="fill: #4169e1; fill-opacity: 0.5; stroke: #000000; stroke-opacity: 0.5"/>
     <use xlink:href="#m898783bd64" x="286.622537" y="476.944768" style="fill: #4169e1; fill-opacity: 0.5; stroke: #000000; stroke-opacity: 0.5"/>
     <use xlink:href="#m898783bd64" x="263.188121" y="409.47523" style="fill: #4169e1; fill-opacity: 0.5; stroke: #000000; stroke-opacity: 0.5"/>
     <use xlink:href="#m898783bd64" x="304.423073" y="371.992154" style="fill: #4169e1; fill-opacity: 0.5; stroke: #000000; stroke-opacity: 0.5"/>
     <use xlink:href="#m898783bd64" x="240.288128" y="439.461691" style="fill: #4169e1; fill-opacity: 0.5; stroke: #000000; stroke-opacity: 0.5"/>
     <use xlink:href="#m898783bd64" x="305.685615" y="379.488769" style="fill: #4169e1; fill-opacity: 0.5; stroke: #000000; stroke-opacity: 0.5"/>
     <use xlink:href="#m898783bd64" x="288.281048" y="349.502308" style="fill: #4169e1; fill-opacity: 0.5; stroke: #000000; stroke-opacity: 0.5"/>
     <use xlink:href="#m898783bd64" x="133.541993" y="429.197745" style="fill: #4169e1; fill-opacity: 0.5; stroke: #000000; stroke-opacity: 0.5"/>
     <use xlink:href="#m898783bd64" x="199.46948" y="349.502308" style="fill: #4169e1; fill-opacity: 0.5; stroke: #000000; stroke-opacity: 0.5"/>
     <use xlink:href="#m898783bd64" x="202.58217" y="431.965076" style="fill: #4169e1; fill-opacity: 0.5; stroke: #000000; stroke-opacity: 0.5"/>
     <use xlink:href="#m898783bd64" x="276.705801" y="334.509078" style="fill: #4169e1; fill-opacity: 0.5; stroke: #000000; stroke-opacity: 0.5"/>
     <use xlink:href="#m898783bd64" x="273.854333" y="439.461691" style="fill: #4169e1; fill-opacity: 0.5; stroke: #000000; stroke-opacity: 0.5"/>
     <use xlink:href="#m898783bd64" x="378.588152" y="431.965076" style="fill: #4169e1; fill-opacity: 0.5; stroke: #000000; stroke-opacity: 0.5"/>
     <use xlink:href="#m898783bd64" x="286.399428" y="424.468461" style="fill: #4169e1; fill-opacity: 0.5; stroke: #000000; stroke-opacity: 0.5"/>
     <use xlink:href="#m898783bd64" x="281.912407" y="344.981561" style="fill: #4169e1; fill-opacity: 0.5; stroke: #000000; stroke-opacity: 0.5"/>
     <use xlink:href="#m898783bd64" x="320.668151" y="431.965076" style="fill: #4169e1; fill-opacity: 0.5; stroke: #000000; stroke-opacity: 0.5"/>
     <use xlink:href="#m898783bd64" x="246.223334" y="386.985384" style="fill: #4169e1; fill-opacity: 0.5; stroke: #000000; stroke-opacity: 0.5"/>
     <use xlink:href="#m898783bd64" x="233.611539" y="371.992154" style="fill: #4169e1; fill-opacity: 0.5; stroke: #000000; stroke-opacity: 0.5"/>
     <use xlink:href="#m898783bd64" x="341.91816" y="342.005693" style="fill: #4169e1; fill-opacity: 0.5; stroke: #000000; stroke-opacity: 0.5"/>
     <use xlink:href="#m898783bd64" x="286.278077" y="401.978615" style="fill: #4169e1; fill-opacity: 0.5; stroke: #000000; stroke-opacity: 0.5"/>
     <use xlink:href="#m898783bd64" x="330.474066" y="469.448152" style="fill: #4169e1; fill-opacity: 0.5; stroke: #000000; stroke-opacity: 0.5"/>
     <use xlink:href="#m898783bd64" x="138.241509" y="514.427844" style="fill: #4169e1; fill-opacity: 0.5; stroke: #000000; stroke-opacity: 0.5"/>
     <use xlink:href="#m898783bd64" x="132.534954" y="484.441383" style="fill: #4169e1; fill-opacity: 0.5; stroke: #000000; stroke-opacity: 0.5"/>
     <use xlink:href="#m898783bd64" x="343.006107" y="386.985384" style="fill: #4169e1; fill-opacity: 0.5; stroke: #000000; stroke-opacity: 0.5"/>
     <use xlink:href="#m898783bd64" x="271.527506" y="461.951537" style="fill: #4169e1; fill-opacity: 0.5; stroke: #000000; stroke-opacity: 0.5"/>
     <use xlink:href="#m898783bd64" x="293.325516" y="424.239861" style="fill: #4169e1; fill-opacity: 0.5; stroke: #000000; stroke-opacity: 0.5"/>
     <use xlink:href="#m898783bd64" x="302.231699" y="424.468461" style="fill: #4169e1; fill-opacity: 0.5; stroke: #000000; stroke-opacity: 0.5"/>
     <use xlink:href="#m898783bd64" x="299.53559" y="356.998923" style="fill: #4169e1; fill-opacity: 0.5; stroke: #000000; stroke-opacity: 0.5"/>
     <use xlink:href="#m898783bd64" x="233.474387" y="424.468461" style="fill: #4169e1; fill-opacity: 0.5; stroke: #000000; stroke-opacity: 0.5"/>
     <use xlink:href="#m898783bd64" x="296.010953" y="442.802088" style="fill: #4169e1; fill-opacity: 0.5; stroke: #000000; stroke-opacity: 0.5"/>
     <use xlink:href="#m898783bd64" x="218.580843" y="327.012462" style="fill: #4169e1; fill-opacity: 0.5; stroke: #000000; stroke-opacity: 0.5"/>
     <use xlink:href="#m898783bd64" x="279.322878" y="356.998923" style="fill: #4169e1; fill-opacity: 0.5; stroke: #000000; stroke-opacity: 0.5"/>
     <use xlink:href="#m898783bd64" x="287.650859" y="319.515847" style="fill: #4169e1; fill-opacity: 0.5; stroke: #000000; stroke-opacity: 0.5"/>
     <use xlink:href="#m898783bd64" x="251.701237" y="530.887537" style="fill: #4169e1; fill-opacity: 0.5; stroke: #000000; stroke-opacity: 0.5"/>
     <use xlink:href="#m898783bd64" x="290.640078" y="492.188046" style="fill: #4169e1; fill-opacity: 0.5; stroke: #000000; stroke-opacity: 0.5"/>
    </g>
   </g>
   <g id="PathCollection_2">
    <defs>
     <path id="mf989e042e9" d="M 0 3 
C 0.795609 3 1.55874 2.683901 2.12132 2.12132 
C 2.683901 1.55874 3 0.795609 3 0 
C 3 -0.795609 2.683901 -1.55874 2.12132 -2.12132 
C 1.55874 -2.683901 0.795609 -3 0 -3 
C -0.795609 -3 -1.55874 -2.683901 -2.12132 -2.12132 
C -2.683901 -1.55874 -3 -0.795609 -3 0 
C -3 0.795609 -2.683901 1.55874 -2.12132 2.12132 
C -1.55874 2.683901 -0.795609 3 0 3 
z
" style="stroke: #000000; stroke-opacity: 0.5"/>
    </defs>
    <g clip-path="url(#p15735908df)">
     <use xlink:href="#mf989e042e9" x="230.581865" y="522.166538" style="fill: #ff8c00; fill-opacity: 0.5; stroke: #000000; stroke-opacity: 0.5"/>
     <use xlink:href="#mf989e042e9" x="250.77199" y="395.669674" style="fill: #ff8c00; fill-opacity: 0.5; stroke: #000000; stroke-opacity: 0.5"/>
     <use xlink:href="#mf989e042e9" x="259.792425" y="402.697278" style="fill: #ff8c00; fill-opacity: 0.5; stroke: #000000; stroke-opacity: 0.5"/>
     <use xlink:href="#mf989e042e9" x="259.439917" y="465.945709" style="fill: #ff8c00; fill-opacity: 0.5; stroke: #000000; stroke-opacity: 0.5"/>
     <use xlink:href="#mf989e042e9" x="283.830577" y="409.724881" style="fill: #ff8c00; fill-opacity: 0.5; stroke: #000000; stroke-opacity: 0.5"/>
     <use xlink:href="#mf989e042e9" x="212.091036" y="423.780088" style="fill: #ff8c00; fill-opacity: 0.5; stroke: #000000; stroke-opacity: 0.5"/>
     <use xlink:href="#mf989e042e9" x="293.262232" y="430.807692" style="fill: #ff8c00; fill-opacity: 0.5; stroke: #000000; stroke-opacity: 0.5"/>
     <use xlink:href="#mf989e042e9" x="267.432497" y="395.669674" style="fill: #ff8c00; fill-opacity: 0.5; stroke: #000000; stroke-opacity: 0.5"/>
     <use xlink:href="#mf989e042e9" x="492.719239" y="402.697278" style="fill: #ff8c00; fill-opacity: 0.5; stroke: #000000; stroke-opacity: 0.5"/>
     <use xlink:href="#mf989e042e9" x="136.227431" y="487.333693" style="fill: #ff8c00; fill-opacity: 0.5; stroke: #000000; stroke-opacity: 0.5"/>
     <use xlink:href="#mf989e042e9" x="180.537147" y="525.383267" style="fill: #ff8c00; fill-opacity: 0.5; stroke: #000000; stroke-opacity: 0.5"/>
     <use xlink:href="#mf989e042e9" x="305.497493" y="360.531657" style="fill: #ff8c00; fill-opacity: 0.5; stroke: #000000; stroke-opacity: 0.5"/>
     <use xlink:href="#mf989e042e9" x="223.504145" y="449.345726" style="fill: #ff8c00; fill-opacity: 0.5; stroke: #000000; stroke-opacity: 0.5"/>
     <use xlink:href="#mf989e042e9" x="246.317574" y="620.552987" style="fill: #ff8c00; fill-opacity: 0.5; stroke: #000000; stroke-opacity: 0.5"/>
     <use xlink:href="#mf989e042e9" x="286.228289" y="529.194141" style="fill: #ff8c00; fill-opacity: 0.5; stroke: #000000; stroke-opacity: 0.5"/>
     <use xlink:href="#mf989e042e9" x="248.277304" y="367.55926" style="fill: #ff8c00; fill-opacity: 0.5; stroke: #000000; stroke-opacity: 0.5"/>
     <use xlink:href="#mf989e042e9" x="232.315042" y="508.111331" style="fill: #ff8c00; fill-opacity: 0.5; stroke: #000000; stroke-opacity: 0.5"/>
     <use xlink:href="#mf989e042e9" x="347.715078" y="381.614467" style="fill: #ff8c00; fill-opacity: 0.5; stroke: #000000; stroke-opacity: 0.5"/>
     <use xlink:href="#mf989e042e9" x="229.620974" y="409.724881" style="fill: #ff8c00; fill-opacity: 0.5; stroke: #000000; stroke-opacity: 0.5"/>
     <use xlink:href="#mf989e042e9" x="261.721911" y="529.194141" style="fill: #ff8c00; fill-opacity: 0.5; stroke: #000000; stroke-opacity: 0.5"/>
     <use xlink:href="#mf989e042e9" x="292.43037" y="346.47645" style="fill: #ff8c00; fill-opacity: 0.5; stroke: #000000; stroke-opacity: 0.5"/>
     <use xlink:href="#mf989e042e9" x="263.685315" y="353.504053" style="fill: #ff8c00; fill-opacity: 0.5; stroke: #000000; stroke-opacity: 0.5"/>
     <use xlink:href="#mf989e042e9" x="252.36194" y="430.807692" style="fill: #ff8c00; fill-opacity: 0.5; stroke: #000000; stroke-opacity: 0.5"/>
     <use xlink:href="#mf989e042e9" x="267.366288" y="465.945709" style="fill: #ff8c00; fill-opacity: 0.5; stroke: #000000; stroke-opacity: 0.5"/>
     <use xlink:href="#mf989e042e9" x="443.038648" y="360.531657" style="fill: #ff8c00; fill-opacity: 0.5; stroke: #000000; stroke-opacity: 0.5"/>
     <use xlink:href="#mf989e042e9" x="272.545757" y="416.752485" style="fill: #ff8c00; fill-opacity: 0.5; stroke: #000000; stroke-opacity: 0.5"/>
     <use xlink:href="#mf989e042e9" x="282.822927" y="494.056124" style="fill: #ff8c00; fill-opacity: 0.5; stroke: #000000; stroke-opacity: 0.5"/>
     <use xlink:href="#mf989e042e9" x="134.884712" y="418.525734" style="fill: #ff8c00; fill-opacity: 0.5; stroke: #000000; stroke-opacity: 0.5"/>
     <use xlink:href="#mf989e042e9" x="338.977951" y="402.697278" style="fill: #ff8c00; fill-opacity: 0.5; stroke: #000000; stroke-opacity: 0.5"/>
     <use xlink:href="#mf989e042e9" x="252.301175" y="388.642071" style="fill: #ff8c00; fill-opacity: 0.5; stroke: #000000; stroke-opacity: 0.5"/>
     <use xlink:href="#mf989e042e9" x="782.075114" y="394.383446" style="fill: #ff8c00; fill-opacity: 0.5; stroke: #000000; stroke-opacity: 0.5"/>
     <use xlink:href="#mf989e042e9" x="78.938101" y="395.669674" style="fill: #ff8c00; fill-opacity: 0.5; stroke: #000000; stroke-opacity: 0.5"/>
     <use xlink:href="#mf989e042e9" x="272.454485" y="402.697278" style="fill: #ff8c00; fill-opacity: 0.5; stroke: #000000; stroke-opacity: 0.5"/>
     <use xlink:href="#mf989e042e9" x="286.622537" y="472.973313" style="fill: #ff8c00; fill-opacity: 0.5; stroke: #000000; stroke-opacity: 0.5"/>
     <use xlink:href="#mf989e042e9" x="263.188121" y="430.807692" style="fill: #ff8c00; fill-opacity: 0.5; stroke: #000000; stroke-opacity: 0.5"/>
     <use xlink:href="#mf989e042e9" x="304.423073" y="381.614467" style="fill: #ff8c00; fill-opacity: 0.5; stroke: #000000; stroke-opacity: 0.5"/>
     <use xlink:href="#mf989e042e9" x="240.288128" y="437.835295" style="fill: #ff8c00; fill-opacity: 0.5; stroke: #000000; stroke-opacity: 0.5"/>
     <use xlink:href="#mf989e042e9" x="305.685615" y="409.724881" style="fill: #ff8c00; fill-opacity: 0.5; stroke: #000000; stroke-opacity: 0.5"/>
     <use xlink:href="#mf989e042e9" x="288.281048" y="374.586864" style="fill: #ff8c00; fill-opacity: 0.5; stroke: #000000; stroke-opacity: 0.5"/>
     <use xlink:href="#mf989e042e9" x="133.541993" y="485.000329" style="fill: #ff8c00; fill-opacity: 0.5; stroke: #000000; stroke-opacity: 0.5"/>
     <use xlink:href="#mf989e042e9" x="199.46948" y="402.697278" style="fill: #ff8c00; fill-opacity: 0.5; stroke: #000000; stroke-opacity: 0.5"/>
     <use xlink:href="#mf989e042e9" x="202.58217" y="423.780088" style="fill: #ff8c00; fill-opacity: 0.5; stroke: #000000; stroke-opacity: 0.5"/>
     <use xlink:href="#mf989e042e9" x="276.705801" y="367.55926" style="fill: #ff8c00; fill-opacity: 0.5; stroke: #000000; stroke-opacity: 0.5"/>
     <use xlink:href="#mf989e042e9" x="273.854333" y="578.387366" style="fill: #ff8c00; fill-opacity: 0.5; stroke: #000000; stroke-opacity: 0.5"/>
     <use xlink:href="#mf989e042e9" x="378.588152" y="451.890502" style="fill: #ff8c00; fill-opacity: 0.5; stroke: #000000; stroke-opacity: 0.5"/>
     <use xlink:href="#mf989e042e9" x="286.399428" y="451.890502" style="fill: #ff8c00; fill-opacity: 0.5; stroke: #000000; stroke-opacity: 0.5"/>
     <use xlink:href="#mf989e042e9" x="281.912407" y="356.275174" style="fill: #ff8c00; fill-opacity: 0.5; stroke: #000000; stroke-opacity: 0.5"/>
     <use xlink:href="#mf989e042e9" x="320.668151" y="430.807692" style="fill: #ff8c00; fill-opacity: 0.5; stroke: #000000; stroke-opacity: 0.5"/>
     <use xlink:href="#mf989e042e9" x="246.223334" y="409.724881" style="fill: #ff8c00; fill-opacity: 0.5; stroke: #000000; stroke-opacity: 0.5"/>
     <use xlink:href="#mf989e042e9" x="233.611539" y="402.697278" style="fill: #ff8c00; fill-opacity: 0.5; stroke: #000000; stroke-opacity: 0.5"/>
     <use xlink:href="#mf989e042e9" x="341.91816" y="395.669674" style="fill: #ff8c00; fill-opacity: 0.5; stroke: #000000; stroke-opacity: 0.5"/>
     <use xlink:href="#mf989e042e9" x="286.278077" y="423.780088" style="fill: #ff8c00; fill-opacity: 0.5; stroke: #000000; stroke-opacity: 0.5"/>
     <use xlink:href="#mf989e042e9" x="330.474066" y="585.414969" style="fill: #ff8c00; fill-opacity: 0.5; stroke: #000000; stroke-opacity: 0.5"/>
     <use xlink:href="#mf989e042e9" x="138.241509" y="501.083727" style="fill: #ff8c00; fill-opacity: 0.5; stroke: #000000; stroke-opacity: 0.5"/>
     <use xlink:href="#mf989e042e9" x="132.534954" y="472.973313" style="fill: #ff8c00; fill-opacity: 0.5; stroke: #000000; stroke-opacity: 0.5"/>
     <use xlink:href="#mf989e042e9" x="343.006107" y="388.642071" style="fill: #ff8c00; fill-opacity: 0.5; stroke: #000000; stroke-opacity: 0.5"/>
     <use xlink:href="#mf989e042e9" x="271.527506" y="578.387366" style="fill: #ff8c00; fill-opacity: 0.5; stroke: #000000; stroke-opacity: 0.5"/>
     <use xlink:href="#mf989e042e9" x="293.325516" y="541.451872" style="fill: #ff8c00; fill-opacity: 0.5; stroke: #000000; stroke-opacity: 0.5"/>
     <use xlink:href="#mf989e042e9" x="302.231699" y="423.780088" style="fill: #ff8c00; fill-opacity: 0.5; stroke: #000000; stroke-opacity: 0.5"/>
     <use xlink:href="#mf989e042e9" x="299.53559" y="402.697278" style="fill: #ff8c00; fill-opacity: 0.5; stroke: #000000; stroke-opacity: 0.5"/>
     <use xlink:href="#mf989e042e9" x="233.474387" y="451.890502" style="fill: #ff8c00; fill-opacity: 0.5; stroke: #000000; stroke-opacity: 0.5"/>
     <use xlink:href="#mf989e042e9" x="296.010953" y="465.792507" style="fill: #ff8c00; fill-opacity: 0.5; stroke: #000000; stroke-opacity: 0.5"/>
     <use xlink:href="#mf989e042e9" x="218.580843" y="367.55926" style="fill: #ff8c00; fill-opacity: 0.5; stroke: #000000; stroke-opacity: 0.5"/>
     <use xlink:href="#mf989e042e9" x="279.322878" y="374.586864" style="fill: #ff8c00; fill-opacity: 0.5; stroke: #000000; stroke-opacity: 0.5"/>
     <use xlink:href="#mf989e042e9" x="287.650859" y="339.448846" style="fill: #ff8c00; fill-opacity: 0.5; stroke: #000000; stroke-opacity: 0.5"/>
     <use xlink:href="#mf989e042e9" x="251.701237" y="559.137647" style="fill: #ff8c00; fill-opacity: 0.5; stroke: #000000; stroke-opacity: 0.5"/>
     <use xlink:href="#mf989e042e9" x="290.640078" y="407.715487" style="fill: #ff8c00; fill-opacity: 0.5; stroke: #000000; stroke-opacity: 0.5"/>
    </g>
   </g>
   <g id="PolyCollection_1">
    <path d="M 78.938101 419.705376 
L 78.938101 493.682431 
L 86.040495 490.692896 
L 93.142889 487.702712 
L 100.245283 484.949674 
L 107.347677 481.724291 
L 114.450071 478.687997 
L 121.552465 475.517531 
L 128.654859 472.341531 
L 135.757253 469.161456 
L 142.859647 465.988161 
L 149.962041 462.841971 
L 157.064435 459.873355 
L 164.166829 457.04244 
L 171.269224 454.223866 
L 178.371618 451.404453 
L 185.474012 448.581364 
L 192.576406 445.765635 
L 199.6788 442.919354 
L 206.781194 439.886454 
L 213.883588 437.132789 
L 220.985982 435.050973 
L 228.088376 432.751316 
L 235.19077 430.361075 
L 242.293164 427.701282 
L 249.395558 425.667095 
L 256.497952 423.944825 
L 263.600346 422.133579 
L 270.702741 420.227153 
L 277.805135 418.682489 
L 284.907529 417.302634 
L 292.009923 415.869505 
L 299.112317 414.222637 
L 306.214711 413.393213 
L 313.317105 412.463423 
L 320.419499 411.348381 
L 327.521893 410.149671 
L 334.624287 408.947925 
L 341.726681 407.709092 
L 348.829075 406.378316 
L 355.931469 405.351573 
L 363.033863 404.452916 
L 370.136258 403.307558 
L 377.238652 402.446394 
L 384.341046 401.308593 
L 391.44344 400.275168 
L 398.545834 399.27394 
L 405.648228 398.200641 
L 412.750622 397.230991 
L 419.853016 396.267974 
L 426.95541 395.318147 
L 434.057804 394.33484 
L 441.160198 393.544106 
L 448.262592 392.499913 
L 455.364986 391.755991 
L 462.46738 391.011432 
L 469.569775 389.978431 
L 476.672169 389.068158 
L 483.774563 388.245436 
L 490.876957 387.422263 
L 497.979351 386.610457 
L 505.081745 385.95083 
L 512.184139 385.205923 
L 519.286533 384.29448 
L 526.388927 383.437892 
L 533.491321 382.754129 
L 540.593715 382.091262 
L 547.696109 381.305347 
L 554.798503 380.548463 
L 561.900897 379.826943 
L 569.003292 379.105422 
L 576.105686 378.383902 
L 583.20808 377.700147 
L 590.310474 377.033764 
L 597.412868 376.236044 
L 604.515262 375.487566 
L 611.617656 374.766094 
L 618.72005 374.042018 
L 625.822444 373.312701 
L 632.924838 372.347885 
L 640.027232 371.383069 
L 647.129626 370.651534 
L 654.23202 369.974712 
L 661.334414 369.297889 
L 668.436809 368.694192 
L 675.539203 367.954372 
L 682.641597 367.267421 
L 689.743991 366.590599 
L 696.846385 365.913776 
L 703.948779 365.236953 
L 711.051173 364.560131 
L 718.153567 363.883308 
L 725.255961 363.190883 
L 732.358355 362.533687 
L 739.460749 361.857649 
L 746.563143 361.178207 
L 753.665537 360.421652 
L 760.767931 359.665098 
L 767.870325 358.993427 
L 774.97272 358.420925 
L 782.075114 357.802264 
L 782.075114 174.279394 
L 782.075114 174.279394 
L 774.97272 177.423872 
L 767.870325 180.568351 
L 760.767931 183.731471 
L 753.665537 186.968584 
L 746.563143 190.207652 
L 739.460749 193.44672 
L 732.358355 196.685788 
L 725.255961 199.924856 
L 718.153567 203.163924 
L 711.051173 206.403156 
L 703.948779 209.720859 
L 696.846385 213.074697 
L 689.743991 216.428536 
L 682.641597 219.782375 
L 675.539203 223.136213 
L 668.436809 226.490078 
L 661.334414 229.844106 
L 654.23202 233.125754 
L 647.129626 236.163266 
L 640.027232 239.200779 
L 632.924838 242.238292 
L 625.822444 245.316228 
L 618.72005 248.562417 
L 611.617656 251.809687 
L 604.515262 255.161253 
L 597.412868 258.534353 
L 590.310474 261.907454 
L 583.20808 264.995578 
L 576.105686 268.065953 
L 569.003292 271.286454 
L 561.900897 274.532745 
L 554.798503 277.779036 
L 547.696109 281.025327 
L 540.593715 284.271618 
L 533.491321 287.517909 
L 526.388927 290.7642 
L 519.286533 294.010491 
L 512.184139 297.256782 
L 505.081745 300.503073 
L 497.979351 303.65421 
L 490.876957 306.801206 
L 483.774563 310.045856 
L 476.672169 313.331965 
L 469.569775 316.493499 
L 462.46738 319.569986 
L 455.364986 322.646472 
L 448.262592 325.737405 
L 441.160198 328.83006 
L 434.057804 331.922716 
L 426.95541 335.015371 
L 419.853016 338.108026 
L 412.750622 341.168431 
L 405.648228 344.139222 
L 398.545834 347.110013 
L 391.44344 350.335635 
L 384.341046 353.503255 
L 377.238652 356.318954 
L 370.136258 359.350797 
L 363.033863 362.131553 
L 355.931469 365.14337 
L 348.829075 368.036011 
L 341.726681 371.003149 
L 334.624287 374.236747 
L 327.521893 376.913311 
L 320.419499 379.612661 
L 313.317105 382.316912 
L 306.214711 384.801303 
L 299.112317 387.571938 
L 292.009923 389.749884 
L 284.907529 391.89312 
L 277.805135 393.849132 
L 270.702741 395.530017 
L 263.600346 397.110991 
L 256.497952 398.36588 
L 249.395558 399.758879 
L 242.293164 400.951334 
L 235.19077 401.747925 
L 228.088376 402.986513 
L 220.985982 404.242229 
L 213.883588 405.355765 
L 206.781194 406.54574 
L 199.6788 407.579462 
L 192.576406 408.531206 
L 185.474012 409.438898 
L 178.371618 410.122486 
L 171.269224 410.420659 
L 164.166829 411.095 
L 157.064435 411.712367 
L 149.962041 412.546708 
L 142.859647 413.251209 
L 135.757253 414.121019 
L 128.654859 414.876441 
L 121.552465 415.214103 
L 114.450071 416.182871 
L 107.347677 417.034409 
L 100.245283 417.696367 
L 93.142889 418.372105 
L 86.040495 419.030532 
L 78.938101 419.705376 
z
" clip-path="url(#p15735908df)" style="fill: #1f77b4; fill-opacity: 0.15"/>
   </g>
   <g id="PolyCollection_2">
    <path d="M 78.938101 438.912464 
L 78.938101 496.92936 
L 86.040495 494.813438 
L 93.142889 493.155011 
L 100.245283 490.913305 
L 107.347677 488.72285 
L 114.450071 486.323767 
L 121.552465 484.214832 
L 128.654859 482.637805 
L 135.757253 481.212748 
L 142.859647 478.64359 
L 149.962041 476.568895 
L 157.064435 474.780145 
L 164.166829 472.845816 
L 171.269224 471.398087 
L 178.371618 469.655712 
L 185.474012 467.862158 
L 192.576406 466.937086 
L 199.6788 465.665584 
L 206.781194 463.659074 
L 213.883588 462.122137 
L 220.985982 461.021245 
L 228.088376 459.70778 
L 235.19077 458.619821 
L 242.293164 457.12075 
L 249.395558 455.717326 
L 256.497952 454.268062 
L 263.600346 453.037589 
L 270.702741 451.877977 
L 277.805135 450.739959 
L 284.907529 449.702337 
L 292.009923 448.664786 
L 299.112317 447.576099 
L 306.214711 446.258554 
L 313.317105 445.295305 
L 320.419499 444.533545 
L 327.521893 443.709169 
L 334.624287 443.010618 
L 341.726681 442.24914 
L 348.829075 441.513134 
L 355.931469 440.796153 
L 363.033863 440.069802 
L 370.136258 439.517109 
L 377.238652 438.918202 
L 384.341046 438.518187 
L 391.44344 437.913465 
L 398.545834 436.960257 
L 405.648228 436.313561 
L 412.750622 435.758256 
L 419.853016 435.012406 
L 426.95541 434.511857 
L 434.057804 434.324193 
L 441.160198 433.980128 
L 448.262592 433.713657 
L 455.364986 433.452792 
L 462.46738 433.191927 
L 469.569775 432.931062 
L 476.672169 432.666555 
L 483.774563 432.394093 
L 490.876957 432.134524 
L 497.979351 431.876566 
L 505.081745 431.618607 
L 512.184139 431.352478 
L 519.286533 431.077071 
L 526.388927 430.453984 
L 533.491321 429.735375 
L 540.593715 429.016766 
L 547.696109 428.298158 
L 554.798503 427.578645 
L 561.900897 426.855178 
L 569.003292 426.289239 
L 576.105686 426.024116 
L 583.20808 425.758994 
L 590.310474 425.493871 
L 597.412868 425.228749 
L 604.515262 424.963626 
L 611.617656 424.698504 
L 618.72005 424.430844 
L 625.822444 424.161308 
L 632.924838 423.891772 
L 640.027232 423.592449 
L 647.129626 422.967195 
L 654.23202 422.335428 
L 661.334414 421.702557 
L 668.436809 421.350629 
L 675.539203 421.084485 
L 682.641597 420.755666 
L 689.743991 420.478611 
L 696.846385 420.198913 
L 703.948779 419.560026 
L 711.051173 418.91835 
L 718.153567 418.272204 
L 725.255961 417.626057 
L 732.358355 416.977969 
L 739.460749 416.336922 
L 746.563143 416.02932 
L 753.665537 415.721717 
L 760.767931 415.414114 
L 767.870325 414.982634 
L 774.97272 414.349054 
L 782.075114 413.739128 
L 782.075114 277.037396 
L 782.075114 277.037396 
L 774.97272 279.244238 
L 767.870325 281.451699 
L 760.767931 283.659159 
L 753.665537 285.866619 
L 746.563143 288.07408 
L 739.460749 290.28154 
L 732.358355 292.489 
L 725.255961 294.69646 
L 718.153567 296.903921 
L 711.051173 299.111381 
L 703.948779 301.318841 
L 696.846385 303.526302 
L 689.743991 305.733762 
L 682.641597 307.856539 
L 675.539203 309.824815 
L 668.436809 311.793092 
L 661.334414 313.761368 
L 654.23202 315.93123 
L 647.129626 318.221867 
L 640.027232 320.645924 
L 632.924838 323.069981 
L 625.822444 325.494037 
L 618.72005 327.884426 
L 611.617656 330.300086 
L 604.515262 332.715745 
L 597.412868 335.131404 
L 590.310474 337.547064 
L 583.20808 339.677012 
L 576.105686 341.76456 
L 569.003292 343.852109 
L 561.900897 345.939657 
L 554.798503 348.027205 
L 547.696109 350.114754 
L 540.593715 352.20326 
L 533.491321 354.422503 
L 526.388927 356.685811 
L 519.286533 358.744125 
L 512.184139 360.541798 
L 505.081745 362.524016 
L 497.979351 364.263963 
L 490.876957 366.145908 
L 483.774563 368.318139 
L 476.672169 370.490371 
L 469.569775 372.10589 
L 462.46738 373.714099 
L 455.364986 375.553572 
L 448.262592 377.945724 
L 441.160198 380.337995 
L 434.057804 382.719855 
L 426.95541 384.43301 
L 419.853016 386.146165 
L 412.750622 387.85932 
L 405.648228 389.761657 
L 398.545834 392.103514 
L 391.44344 394.130195 
L 384.341046 396.369532 
L 377.238652 398.11861 
L 370.136258 399.621406 
L 363.033863 401.114642 
L 355.931469 403.225272 
L 348.829075 405.798935 
L 341.726681 407.939057 
L 334.624287 409.735614 
L 327.521893 411.415381 
L 320.419499 412.50725 
L 313.317105 414.351026 
L 306.214711 416.054991 
L 299.112317 417.478089 
L 292.009923 418.951797 
L 284.907529 420.221915 
L 277.805135 420.958527 
L 270.702741 421.805094 
L 263.600346 422.605281 
L 256.497952 423.587996 
L 249.395558 424.342223 
L 242.293164 425.020378 
L 235.19077 426.0417 
L 228.088376 427.221362 
L 220.985982 428.129148 
L 213.883588 428.937103 
L 206.781194 429.790706 
L 199.6788 430.174406 
L 192.576406 431.44822 
L 185.474012 432.023104 
L 178.371618 432.380455 
L 171.269224 432.848775 
L 164.166829 433.410795 
L 157.064435 433.846716 
L 149.962041 434.024986 
L 142.859647 434.654921 
L 135.757253 435.562762 
L 128.654859 436.477057 
L 121.552465 437.060842 
L 114.450071 437.413226 
L 107.347677 437.59729 
L 100.245283 438.090135 
L 93.142889 438.386955 
L 86.040495 438.649709 
L 78.938101 438.912464 
z
" clip-path="url(#p15735908df)" style="fill: #ff7f0e; fill-opacity: 0.15"/>
   </g>
   <g id="matplotlib.axis_1">
    <g id="xtick_1">
     <g id="line2d_1">
      <defs>
       <path id="m5169789017" d="M 0 0 
L 0 3.5 
" style="stroke: #000000; stroke-width: 0.8"/>
      </defs>
      <g>
       <use xlink:href="#m5169789017" x="149.654618" y="642.866667" style="stroke: #000000; stroke-width: 0.8"/>
      </g>
     </g>
     <g id="text_1">
      <!-- 200 -->
      <g transform="translate(140.110868 657.465104) scale(0.1 -0.1)">
       <defs>
        <path id="DejaVuSans-32" d="M 1228 531 
L 3431 531 
L 3431 0 
L 469 0 
L 469 531 
Q 828 903 1448 1529 
Q 2069 2156 2228 2338 
Q 2531 2678 2651 2914 
Q 2772 3150 2772 3378 
Q 2772 3750 2511 3984 
Q 2250 4219 1831 4219 
Q 1534 4219 1204 4116 
Q 875 4013 500 3803 
L 500 4441 
Q 881 4594 1212 4672 
Q 1544 4750 1819 4750 
Q 2544 4750 2975 4387 
Q 3406 4025 3406 3419 
Q 3406 3131 3298 2873 
Q 3191 2616 2906 2266 
Q 2828 2175 2409 1742 
Q 1991 1309 1228 531 
z
" transform="scale(0.015625)"/>
        <path id="DejaVuSans-30" d="M 2034 4250 
Q 1547 4250 1301 3770 
Q 1056 3291 1056 2328 
Q 1056 1369 1301 889 
Q 1547 409 2034 409 
Q 2525 409 2770 889 
Q 3016 1369 3016 2328 
Q 3016 3291 2770 3770 
Q 2525 4250 2034 4250 
z
M 2034 4750 
Q 2819 4750 3233 4129 
Q 3647 3509 3647 2328 
Q 3647 1150 3233 529 
Q 2819 -91 2034 -91 
Q 1250 -91 836 529 
Q 422 1150 422 2328 
Q 422 3509 836 4129 
Q 1250 4750 2034 4750 
z
" transform="scale(0.015625)"/>
       </defs>
       <use xlink:href="#DejaVuSans-32"/>
       <use xlink:href="#DejaVuSans-30" x="63.623047"/>
       <use xlink:href="#DejaVuSans-30" x="127.246094"/>
      </g>
     </g>
    </g>
    <g id="xtick_2">
     <g id="line2d_2">
      <g>
       <use xlink:href="#m5169789017" x="283.926485" y="642.866667" style="stroke: #000000; stroke-width: 0.8"/>
      </g>
     </g>
     <g id="text_2">
      <!-- 300 -->
      <g transform="translate(274.382735 657.465104) scale(0.1 -0.1)">
       <defs>
        <path id="DejaVuSans-33" d="M 2597 2516 
Q 3050 2419 3304 2112 
Q 3559 1806 3559 1356 
Q 3559 666 3084 287 
Q 2609 -91 1734 -91 
Q 1441 -91 1130 -33 
Q 819 25 488 141 
L 488 750 
Q 750 597 1062 519 
Q 1375 441 1716 441 
Q 2309 441 2620 675 
Q 2931 909 2931 1356 
Q 2931 1769 2642 2001 
Q 2353 2234 1838 2234 
L 1294 2234 
L 1294 2753 
L 1863 2753 
Q 2328 2753 2575 2939 
Q 2822 3125 2822 3475 
Q 2822 3834 2567 4026 
Q 2313 4219 1838 4219 
Q 1578 4219 1281 4162 
Q 984 4106 628 3988 
L 628 4550 
Q 988 4650 1302 4700 
Q 1616 4750 1894 4750 
Q 2613 4750 3031 4423 
Q 3450 4097 3450 3541 
Q 3450 3153 3228 2886 
Q 3006 2619 2597 2516 
z
" transform="scale(0.015625)"/>
       </defs>
       <use xlink:href="#DejaVuSans-33"/>
       <use xlink:href="#DejaVuSans-30" x="63.623047"/>
       <use xlink:href="#DejaVuSans-30" x="127.246094"/>
      </g>
     </g>
    </g>
    <g id="xtick_3">
     <g id="line2d_3">
      <g>
       <use xlink:href="#m5169789017" x="418.198353" y="642.866667" style="stroke: #000000; stroke-width: 0.8"/>
      </g>
     </g>
     <g id="text_3">
      <!-- 400 -->
      <g transform="translate(408.654603 657.465104) scale(0.1 -0.1)">
       <defs>
        <path id="DejaVuSans-34" d="M 2419 4116 
L 825 1625 
L 2419 1625 
L 2419 4116 
z
M 2253 4666 
L 3047 4666 
L 3047 1625 
L 3713 1625 
L 3713 1100 
L 3047 1100 
L 3047 0 
L 2419 0 
L 2419 1100 
L 313 1100 
L 313 1709 
L 2253 4666 
z
" transform="scale(0.015625)"/>
       </defs>
       <use xlink:href="#DejaVuSans-34"/>
       <use xlink:href="#DejaVuSans-30" x="63.623047"/>
       <use xlink:href="#DejaVuSans-30" x="127.246094"/>
      </g>
     </g>
    </g>
    <g id="xtick_4">
     <g id="line2d_4">
      <g>
       <use xlink:href="#m5169789017" x="552.47022" y="642.866667" style="stroke: #000000; stroke-width: 0.8"/>
      </g>
     </g>
     <g id="text_4">
      <!-- 500 -->
      <g transform="translate(542.92647 657.465104) scale(0.1 -0.1)">
       <defs>
        <path id="DejaVuSans-35" d="M 691 4666 
L 3169 4666 
L 3169 4134 
L 1269 4134 
L 1269 2991 
Q 1406 3038 1543 3061 
Q 1681 3084 1819 3084 
Q 2600 3084 3056 2656 
Q 3513 2228 3513 1497 
Q 3513 744 3044 326 
Q 2575 -91 1722 -91 
Q 1428 -91 1123 -41 
Q 819 9 494 109 
L 494 744 
Q 775 591 1075 516 
Q 1375 441 1709 441 
Q 2250 441 2565 725 
Q 2881 1009 2881 1497 
Q 2881 1984 2565 2268 
Q 2250 2553 1709 2553 
Q 1456 2553 1204 2497 
Q 953 2441 691 2322 
L 691 4666 
z
" transform="scale(0.015625)"/>
       </defs>
       <use xlink:href="#DejaVuSans-35"/>
       <use xlink:href="#DejaVuSans-30" x="63.623047"/>
       <use xlink:href="#DejaVuSans-30" x="127.246094"/>
      </g>
     </g>
    </g>
    <g id="xtick_5">
     <g id="line2d_5">
      <g>
       <use xlink:href="#m5169789017" x="686.742088" y="642.866667" style="stroke: #000000; stroke-width: 0.8"/>
      </g>
     </g>
     <g id="text_5">
      <!-- 600 -->
      <g transform="translate(677.198338 657.465104) scale(0.1 -0.1)">
       <defs>
        <path id="DejaVuSans-36" d="M 2113 2584 
Q 1688 2584 1439 2293 
Q 1191 2003 1191 1497 
Q 1191 994 1439 701 
Q 1688 409 2113 409 
Q 2538 409 2786 701 
Q 3034 994 3034 1497 
Q 3034 2003 2786 2293 
Q 2538 2584 2113 2584 
z
M 3366 4563 
L 3366 3988 
Q 3128 4100 2886 4159 
Q 2644 4219 2406 4219 
Q 1781 4219 1451 3797 
Q 1122 3375 1075 2522 
Q 1259 2794 1537 2939 
Q 1816 3084 2150 3084 
Q 2853 3084 3261 2657 
Q 3669 2231 3669 1497 
Q 3669 778 3244 343 
Q 2819 -91 2113 -91 
Q 1303 -91 875 529 
Q 447 1150 447 2328 
Q 447 3434 972 4092 
Q 1497 4750 2381 4750 
Q 2619 4750 2861 4703 
Q 3103 4656 3366 4563 
z
" transform="scale(0.015625)"/>
       </defs>
       <use xlink:href="#DejaVuSans-36"/>
       <use xlink:href="#DejaVuSans-30" x="63.623047"/>
       <use xlink:href="#DejaVuSans-30" x="127.246094"/>
      </g>
     </g>
    </g>
    <g id="text_6">
     <!-- Protein length -->
     <g transform="translate(395.455826 671.143229) scale(0.1 -0.1)">
      <defs>
       <path id="DejaVuSans-50" d="M 1259 4147 
L 1259 2394 
L 2053 2394 
Q 2494 2394 2734 2622 
Q 2975 2850 2975 3272 
Q 2975 3691 2734 3919 
Q 2494 4147 2053 4147 
L 1259 4147 
z
M 628 4666 
L 2053 4666 
Q 2838 4666 3239 4311 
Q 3641 3956 3641 3272 
Q 3641 2581 3239 2228 
Q 2838 1875 2053 1875 
L 1259 1875 
L 1259 0 
L 628 0 
L 628 4666 
z
" transform="scale(0.015625)"/>
       <path id="DejaVuSans-72" d="M 2631 2963 
Q 2534 3019 2420 3045 
Q 2306 3072 2169 3072 
Q 1681 3072 1420 2755 
Q 1159 2438 1159 1844 
L 1159 0 
L 581 0 
L 581 3500 
L 1159 3500 
L 1159 2956 
Q 1341 3275 1631 3429 
Q 1922 3584 2338 3584 
Q 2397 3584 2469 3576 
Q 2541 3569 2628 3553 
L 2631 2963 
z
" transform="scale(0.015625)"/>
       <path id="DejaVuSans-6f" d="M 1959 3097 
Q 1497 3097 1228 2736 
Q 959 2375 959 1747 
Q 959 1119 1226 758 
Q 1494 397 1959 397 
Q 2419 397 2687 759 
Q 2956 1122 2956 1747 
Q 2956 2369 2687 2733 
Q 2419 3097 1959 3097 
z
M 1959 3584 
Q 2709 3584 3137 3096 
Q 3566 2609 3566 1747 
Q 3566 888 3137 398 
Q 2709 -91 1959 -91 
Q 1206 -91 779 398 
Q 353 888 353 1747 
Q 353 2609 779 3096 
Q 1206 3584 1959 3584 
z
" transform="scale(0.015625)"/>
       <path id="DejaVuSans-74" d="M 1172 4494 
L 1172 3500 
L 2356 3500 
L 2356 3053 
L 1172 3053 
L 1172 1153 
Q 1172 725 1289 603 
Q 1406 481 1766 481 
L 2356 481 
L 2356 0 
L 1766 0 
Q 1100 0 847 248 
Q 594 497 594 1153 
L 594 3053 
L 172 3053 
L 172 3500 
L 594 3500 
L 594 4494 
L 1172 4494 
z
" transform="scale(0.015625)"/>
       <path id="DejaVuSans-65" d="M 3597 1894 
L 3597 1613 
L 953 1613 
Q 991 1019 1311 708 
Q 1631 397 2203 397 
Q 2534 397 2845 478 
Q 3156 559 3463 722 
L 3463 178 
Q 3153 47 2828 -22 
Q 2503 -91 2169 -91 
Q 1331 -91 842 396 
Q 353 884 353 1716 
Q 353 2575 817 3079 
Q 1281 3584 2069 3584 
Q 2775 3584 3186 3129 
Q 3597 2675 3597 1894 
z
M 3022 2063 
Q 3016 2534 2758 2815 
Q 2500 3097 2075 3097 
Q 1594 3097 1305 2825 
Q 1016 2553 972 2059 
L 3022 2063 
z
" transform="scale(0.015625)"/>
       <path id="DejaVuSans-69" d="M 603 3500 
L 1178 3500 
L 1178 0 
L 603 0 
L 603 3500 
z
M 603 4863 
L 1178 4863 
L 1178 4134 
L 603 4134 
L 603 4863 
z
" transform="scale(0.015625)"/>
       <path id="DejaVuSans-6e" d="M 3513 2113 
L 3513 0 
L 2938 0 
L 2938 2094 
Q 2938 2591 2744 2837 
Q 2550 3084 2163 3084 
Q 1697 3084 1428 2787 
Q 1159 2491 1159 1978 
L 1159 0 
L 581 0 
L 581 3500 
L 1159 3500 
L 1159 2956 
Q 1366 3272 1645 3428 
Q 1925 3584 2291 3584 
Q 2894 3584 3203 3211 
Q 3513 2838 3513 2113 
z
" transform="scale(0.015625)"/>
       <path id="DejaVuSans-20" transform="scale(0.015625)"/>
       <path id="DejaVuSans-6c" d="M 603 4863 
L 1178 4863 
L 1178 0 
L 603 0 
L 603 4863 
z
" transform="scale(0.015625)"/>
       <path id="DejaVuSans-67" d="M 2906 1791 
Q 2906 2416 2648 2759 
Q 2391 3103 1925 3103 
Q 1463 3103 1205 2759 
Q 947 2416 947 1791 
Q 947 1169 1205 825 
Q 1463 481 1925 481 
Q 2391 481 2648 825 
Q 2906 1169 2906 1791 
z
M 3481 434 
Q 3481 -459 3084 -895 
Q 2688 -1331 1869 -1331 
Q 1566 -1331 1297 -1286 
Q 1028 -1241 775 -1147 
L 775 -588 
Q 1028 -725 1275 -790 
Q 1522 -856 1778 -856 
Q 2344 -856 2625 -561 
Q 2906 -266 2906 331 
L 2906 616 
Q 2728 306 2450 153 
Q 2172 0 1784 0 
Q 1141 0 747 490 
Q 353 981 353 1791 
Q 353 2603 747 3093 
Q 1141 3584 1784 3584 
Q 2172 3584 2450 3431 
Q 2728 3278 2906 2969 
L 2906 3500 
L 3481 3500 
L 3481 434 
z
" transform="scale(0.015625)"/>
       <path id="DejaVuSans-68" d="M 3513 2113 
L 3513 0 
L 2938 0 
L 2938 2094 
Q 2938 2591 2744 2837 
Q 2550 3084 2163 3084 
Q 1697 3084 1428 2787 
Q 1159 2491 1159 1978 
L 1159 0 
L 581 0 
L 581 4863 
L 1159 4863 
L 1159 2956 
Q 1366 3272 1645 3428 
Q 1925 3584 2291 3584 
Q 2894 3584 3203 3211 
Q 3513 2838 3513 2113 
z
" transform="scale(0.015625)"/>
      </defs>
      <use xlink:href="#DejaVuSans-50"/>
      <use xlink:href="#DejaVuSans-72" x="58.552734"/>
      <use xlink:href="#DejaVuSans-6f" x="97.416016"/>
      <use xlink:href="#DejaVuSans-74" x="158.597656"/>
      <use xlink:href="#DejaVuSans-65" x="197.806641"/>
      <use xlink:href="#DejaVuSans-69" x="259.330078"/>
      <use xlink:href="#DejaVuSans-6e" x="287.113281"/>
      <use xlink:href="#DejaVuSans-20" x="350.492188"/>
      <use xlink:href="#DejaVuSans-6c" x="382.279297"/>
      <use xlink:href="#DejaVuSans-65" x="410.0625"/>
      <use xlink:href="#DejaVuSans-6e" x="471.585938"/>
      <use xlink:href="#DejaVuSans-67" x="534.964844"/>
      <use xlink:href="#DejaVuSans-74" x="598.441406"/>
      <use xlink:href="#DejaVuSans-68" x="637.650391"/>
     </g>
    </g>
   </g>
   <g id="matplotlib.axis_2">
    <g id="ytick_1">
     <g id="line2d_6">
      <defs>
       <path id="m2df1b13c29" d="M 0 0 
L -3.5 0 
" style="stroke: #000000; stroke-width: 0.8"/>
      </defs>
      <g>
       <use xlink:href="#m2df1b13c29" x="43.78125" y="638.121996" style="stroke: #000000; stroke-width: 0.8"/>
      </g>
     </g>
     <g id="text_7">
      <!-- 0.0 -->
      <g transform="translate(20.878125 641.921215) scale(0.1 -0.1)">
       <defs>
        <path id="DejaVuSans-2e" d="M 684 794 
L 1344 794 
L 1344 0 
L 684 0 
L 684 794 
z
" transform="scale(0.015625)"/>
       </defs>
       <use xlink:href="#DejaVuSans-30"/>
       <use xlink:href="#DejaVuSans-2e" x="63.623047"/>
       <use xlink:href="#DejaVuSans-30" x="95.410156"/>
      </g>
     </g>
    </g>
    <g id="ytick_2">
     <g id="line2d_7">
      <g>
       <use xlink:href="#m2df1b13c29" x="43.78125" y="575.906864" style="stroke: #000000; stroke-width: 0.8"/>
      </g>
     </g>
     <g id="text_8">
      <!-- 0.1 -->
      <g transform="translate(20.878125 579.706082) scale(0.1 -0.1)">
       <defs>
        <path id="DejaVuSans-31" d="M 794 531 
L 1825 531 
L 1825 4091 
L 703 3866 
L 703 4441 
L 1819 4666 
L 2450 4666 
L 2450 531 
L 3481 531 
L 3481 0 
L 794 0 
L 794 531 
z
" transform="scale(0.015625)"/>
       </defs>
       <use xlink:href="#DejaVuSans-30"/>
       <use xlink:href="#DejaVuSans-2e" x="63.623047"/>
       <use xlink:href="#DejaVuSans-31" x="95.410156"/>
      </g>
     </g>
    </g>
    <g id="ytick_3">
     <g id="line2d_8">
      <g>
       <use xlink:href="#m2df1b13c29" x="43.78125" y="513.691731" style="stroke: #000000; stroke-width: 0.8"/>
      </g>
     </g>
     <g id="text_9">
      <!-- 0.2 -->
      <g transform="translate(20.878125 517.49095) scale(0.1 -0.1)">
       <use xlink:href="#DejaVuSans-30"/>
       <use xlink:href="#DejaVuSans-2e" x="63.623047"/>
       <use xlink:href="#DejaVuSans-32" x="95.410156"/>
      </g>
     </g>
    </g>
    <g id="ytick_4">
     <g id="line2d_9">
      <g>
       <use xlink:href="#m2df1b13c29" x="43.78125" y="451.476599" style="stroke: #000000; stroke-width: 0.8"/>
      </g>
     </g>
     <g id="text_10">
      <!-- 0.3 -->
      <g transform="translate(20.878125 455.275818) scale(0.1 -0.1)">
       <use xlink:href="#DejaVuSans-30"/>
       <use xlink:href="#DejaVuSans-2e" x="63.623047"/>
       <use xlink:href="#DejaVuSans-33" x="95.410156"/>
      </g>
     </g>
    </g>
    <g id="ytick_5">
     <g id="line2d_10">
      <g>
       <use xlink:href="#m2df1b13c29" x="43.78125" y="389.261467" style="stroke: #000000; stroke-width: 0.8"/>
      </g>
     </g>
     <g id="text_11">
      <!-- 0.4 -->
      <g transform="translate(20.878125 393.060685) scale(0.1 -0.1)">
       <use xlink:href="#DejaVuSans-30"/>
       <use xlink:href="#DejaVuSans-2e" x="63.623047"/>
       <use xlink:href="#DejaVuSans-34" x="95.410156"/>
      </g>
     </g>
    </g>
    <g id="ytick_6">
     <g id="line2d_11">
      <g>
       <use xlink:href="#m2df1b13c29" x="43.78125" y="327.046334" style="stroke: #000000; stroke-width: 0.8"/>
      </g>
     </g>
     <g id="text_12">
      <!-- 0.5 -->
      <g transform="translate(20.878125 330.845553) scale(0.1 -0.1)">
       <use xlink:href="#DejaVuSans-30"/>
       <use xlink:href="#DejaVuSans-2e" x="63.623047"/>
       <use xlink:href="#DejaVuSans-35" x="95.410156"/>
      </g>
     </g>
    </g>
    <g id="ytick_7">
     <g id="line2d_12">
      <g>
       <use xlink:href="#m2df1b13c29" x="43.78125" y="264.831202" style="stroke: #000000; stroke-width: 0.8"/>
      </g>
     </g>
     <g id="text_13">
      <!-- 0.6 -->
      <g transform="translate(20.878125 268.630421) scale(0.1 -0.1)">
       <use xlink:href="#DejaVuSans-30"/>
       <use xlink:href="#DejaVuSans-2e" x="63.623047"/>
       <use xlink:href="#DejaVuSans-36" x="95.410156"/>
      </g>
     </g>
    </g>
    <g id="ytick_8">
     <g id="line2d_13">
      <g>
       <use xlink:href="#m2df1b13c29" x="43.78125" y="202.61607" style="stroke: #000000; stroke-width: 0.8"/>
      </g>
     </g>
     <g id="text_14">
      <!-- 0.7 -->
      <g transform="translate(20.878125 206.415289) scale(0.1 -0.1)">
       <defs>
        <path id="DejaVuSans-37" d="M 525 4666 
L 3525 4666 
L 3525 4397 
L 1831 0 
L 1172 0 
L 2766 4134 
L 525 4134 
L 525 4666 
z
" transform="scale(0.015625)"/>
       </defs>
       <use xlink:href="#DejaVuSans-30"/>
       <use xlink:href="#DejaVuSans-2e" x="63.623047"/>
       <use xlink:href="#DejaVuSans-37" x="95.410156"/>
      </g>
     </g>
    </g>
    <g id="text_15">
     <!-- Correlation coefficient -->
     <g transform="translate(14.798438 452.712284) rotate(-90) scale(0.1 -0.1)">
      <defs>
       <path id="DejaVuSans-43" d="M 4122 4306 
L 4122 3641 
Q 3803 3938 3442 4084 
Q 3081 4231 2675 4231 
Q 1875 4231 1450 3742 
Q 1025 3253 1025 2328 
Q 1025 1406 1450 917 
Q 1875 428 2675 428 
Q 3081 428 3442 575 
Q 3803 722 4122 1019 
L 4122 359 
Q 3791 134 3420 21 
Q 3050 -91 2638 -91 
Q 1578 -91 968 557 
Q 359 1206 359 2328 
Q 359 3453 968 4101 
Q 1578 4750 2638 4750 
Q 3056 4750 3426 4639 
Q 3797 4528 4122 4306 
z
" transform="scale(0.015625)"/>
       <path id="DejaVuSans-61" d="M 2194 1759 
Q 1497 1759 1228 1600 
Q 959 1441 959 1056 
Q 959 750 1161 570 
Q 1363 391 1709 391 
Q 2188 391 2477 730 
Q 2766 1069 2766 1631 
L 2766 1759 
L 2194 1759 
z
M 3341 1997 
L 3341 0 
L 2766 0 
L 2766 531 
Q 2569 213 2275 61 
Q 1981 -91 1556 -91 
Q 1019 -91 701 211 
Q 384 513 384 1019 
Q 384 1609 779 1909 
Q 1175 2209 1959 2209 
L 2766 2209 
L 2766 2266 
Q 2766 2663 2505 2880 
Q 2244 3097 1772 3097 
Q 1472 3097 1187 3025 
Q 903 2953 641 2809 
L 641 3341 
Q 956 3463 1253 3523 
Q 1550 3584 1831 3584 
Q 2591 3584 2966 3190 
Q 3341 2797 3341 1997 
z
" transform="scale(0.015625)"/>
       <path id="DejaVuSans-63" d="M 3122 3366 
L 3122 2828 
Q 2878 2963 2633 3030 
Q 2388 3097 2138 3097 
Q 1578 3097 1268 2742 
Q 959 2388 959 1747 
Q 959 1106 1268 751 
Q 1578 397 2138 397 
Q 2388 397 2633 464 
Q 2878 531 3122 666 
L 3122 134 
Q 2881 22 2623 -34 
Q 2366 -91 2075 -91 
Q 1284 -91 818 406 
Q 353 903 353 1747 
Q 353 2603 823 3093 
Q 1294 3584 2113 3584 
Q 2378 3584 2631 3529 
Q 2884 3475 3122 3366 
z
" transform="scale(0.015625)"/>
       <path id="DejaVuSans-66" d="M 2375 4863 
L 2375 4384 
L 1825 4384 
Q 1516 4384 1395 4259 
Q 1275 4134 1275 3809 
L 1275 3500 
L 2222 3500 
L 2222 3053 
L 1275 3053 
L 1275 0 
L 697 0 
L 697 3053 
L 147 3053 
L 147 3500 
L 697 3500 
L 697 3744 
Q 697 4328 969 4595 
Q 1241 4863 1831 4863 
L 2375 4863 
z
" transform="scale(0.015625)"/>
      </defs>
      <use xlink:href="#DejaVuSans-43"/>
      <use xlink:href="#DejaVuSans-6f" x="69.824219"/>
      <use xlink:href="#DejaVuSans-72" x="131.005859"/>
      <use xlink:href="#DejaVuSans-72" x="170.369141"/>
      <use xlink:href="#DejaVuSans-65" x="209.232422"/>
      <use xlink:href="#DejaVuSans-6c" x="270.755859"/>
      <use xlink:href="#DejaVuSans-61" x="298.539062"/>
      <use xlink:href="#DejaVuSans-74" x="359.818359"/>
      <use xlink:href="#DejaVuSans-69" x="399.027344"/>
      <use xlink:href="#DejaVuSans-6f" x="426.810547"/>
      <use xlink:href="#DejaVuSans-6e" x="487.992188"/>
      <use xlink:href="#DejaVuSans-20" x="551.371094"/>
      <use xlink:href="#DejaVuSans-63" x="583.158203"/>
      <use xlink:href="#DejaVuSans-6f" x="638.138672"/>
      <use xlink:href="#DejaVuSans-65" x="699.320312"/>
      <use xlink:href="#DejaVuSans-66" x="760.84375"/>
      <use xlink:href="#DejaVuSans-66" x="796.048828"/>
      <use xlink:href="#DejaVuSans-69" x="831.253906"/>
      <use xlink:href="#DejaVuSans-63" x="859.037109"/>
      <use xlink:href="#DejaVuSans-69" x="914.017578"/>
      <use xlink:href="#DejaVuSans-65" x="941.800781"/>
      <use xlink:href="#DejaVuSans-6e" x="1003.324219"/>
      <use xlink:href="#DejaVuSans-74" x="1066.703125"/>
     </g>
    </g>
   </g>
   <g id="line2d_14">
    <path d="M 78.938101 447.924268 
L 86.040495 446.441997 
L 93.142889 444.959727 
L 100.245283 443.477456 
L 107.347677 441.995186 
L 114.450071 440.512915 
L 121.552465 439.030645 
L 128.654859 437.548374 
L 135.757253 436.066104 
L 142.859647 434.583834 
L 149.962041 433.101563 
L 157.064435 431.619293 
L 164.166829 430.137022 
L 171.269224 428.654752 
L 178.371618 427.172481 
L 185.474012 425.690211 
L 192.576406 424.207941 
L 199.6788 422.72567 
L 206.781194 421.2434 
L 213.883588 419.761129 
L 220.985982 418.278859 
L 228.088376 416.796588 
L 235.19077 415.314318 
L 242.293164 413.832047 
L 249.395558 412.349777 
L 256.497952 410.867507 
L 263.600346 409.385236 
L 270.702741 407.902966 
L 277.805135 406.420695 
L 284.907529 404.938425 
L 292.009923 403.456154 
L 299.112317 401.973884 
L 306.214711 400.491613 
L 313.317105 399.009343 
L 320.419499 397.527073 
L 327.521893 396.044802 
L 334.624287 394.562532 
L 341.726681 393.080261 
L 348.829075 391.597991 
L 355.931469 390.11572 
L 363.033863 388.63345 
L 370.136258 387.151179 
L 377.238652 385.668909 
L 384.341046 384.186639 
L 391.44344 382.704368 
L 398.545834 381.222098 
L 405.648228 379.739827 
L 412.750622 378.257557 
L 419.853016 376.775286 
L 426.95541 375.293016 
L 434.057804 373.810746 
L 441.160198 372.328475 
L 448.262592 370.846205 
L 455.364986 369.363934 
L 462.46738 367.881664 
L 469.569775 366.399393 
L 476.672169 364.917123 
L 483.774563 363.434852 
L 490.876957 361.952582 
L 497.979351 360.470312 
L 505.081745 358.988041 
L 512.184139 357.505771 
L 519.286533 356.0235 
L 526.388927 354.54123 
L 533.491321 353.058959 
L 540.593715 351.576689 
L 547.696109 350.094418 
L 554.798503 348.612148 
L 561.900897 347.129878 
L 569.003292 345.647607 
L 576.105686 344.165337 
L 583.20808 342.683066 
L 590.310474 341.200796 
L 597.412868 339.718525 
L 604.515262 338.236255 
L 611.617656 336.753984 
L 618.72005 335.271714 
L 625.822444 333.789444 
L 632.924838 332.307173 
L 640.027232 330.824903 
L 647.129626 329.342632 
L 654.23202 327.860362 
L 661.334414 326.378091 
L 668.436809 324.895821 
L 675.539203 323.413551 
L 682.641597 321.93128 
L 689.743991 320.44901 
L 696.846385 318.966739 
L 703.948779 317.484469 
L 711.051173 316.002198 
L 718.153567 314.519928 
L 725.255961 313.037657 
L 732.358355 311.555387 
L 739.460749 310.073117 
L 746.563143 308.590846 
L 753.665537 307.108576 
L 760.767931 305.626305 
L 767.870325 304.144035 
L 774.97272 302.661764 
L 782.075114 301.179494 
" clip-path="url(#p15735908df)" style="fill: none; stroke: #1f77b4; stroke-width: 2.25; stroke-linecap: square"/>
   </g>
   <g id="line2d_15">
    <path d="M 78.938101 463.624545 
L 86.040495 462.627705 
L 93.142889 461.630866 
L 100.245283 460.634026 
L 107.347677 459.637186 
L 114.450071 458.640347 
L 121.552465 457.643507 
L 128.654859 456.646667 
L 135.757253 455.649828 
L 142.859647 454.652988 
L 149.962041 453.656148 
L 157.064435 452.659309 
L 164.166829 451.662469 
L 171.269224 450.66563 
L 178.371618 449.66879 
L 185.474012 448.67195 
L 192.576406 447.675111 
L 199.6788 446.678271 
L 206.781194 445.681431 
L 213.883588 444.684592 
L 220.985982 443.687752 
L 228.088376 442.690913 
L 235.19077 441.694073 
L 242.293164 440.697233 
L 249.395558 439.700394 
L 256.497952 438.703554 
L 263.600346 437.706714 
L 270.702741 436.709875 
L 277.805135 435.713035 
L 284.907529 434.716195 
L 292.009923 433.719356 
L 299.112317 432.722516 
L 306.214711 431.725677 
L 313.317105 430.728837 
L 320.419499 429.731997 
L 327.521893 428.735158 
L 334.624287 427.738318 
L 341.726681 426.741478 
L 348.829075 425.744639 
L 355.931469 424.747799 
L 363.033863 423.750959 
L 370.136258 422.75412 
L 377.238652 421.75728 
L 384.341046 420.760441 
L 391.44344 419.763601 
L 398.545834 418.766761 
L 405.648228 417.769922 
L 412.750622 416.773082 
L 419.853016 415.776242 
L 426.95541 414.779403 
L 434.057804 413.782563 
L 441.160198 412.785723 
L 448.262592 411.788884 
L 455.364986 410.792044 
L 462.46738 409.795205 
L 469.569775 408.798365 
L 476.672169 407.801525 
L 483.774563 406.804686 
L 490.876957 405.807846 
L 497.979351 404.811006 
L 505.081745 403.814167 
L 512.184139 402.817327 
L 519.286533 401.820487 
L 526.388927 400.823648 
L 533.491321 399.826808 
L 540.593715 398.829969 
L 547.696109 397.833129 
L 554.798503 396.836289 
L 561.900897 395.83945 
L 569.003292 394.84261 
L 576.105686 393.84577 
L 583.20808 392.848931 
L 590.310474 391.852091 
L 597.412868 390.855251 
L 604.515262 389.858412 
L 611.617656 388.861572 
L 618.72005 387.864733 
L 625.822444 386.867893 
L 632.924838 385.871053 
L 640.027232 384.874214 
L 647.129626 383.877374 
L 654.23202 382.880534 
L 661.334414 381.883695 
L 668.436809 380.886855 
L 675.539203 379.890016 
L 682.641597 378.893176 
L 689.743991 377.896336 
L 696.846385 376.899497 
L 703.948779 375.902657 
L 711.051173 374.905817 
L 718.153567 373.908978 
L 725.255961 372.912138 
L 732.358355 371.915298 
L 739.460749 370.918459 
L 746.563143 369.921619 
L 753.665537 368.92478 
L 760.767931 367.92794 
L 767.870325 366.9311 
L 774.97272 365.934261 
L 782.075114 364.937421 
" clip-path="url(#p15735908df)" style="fill: none; stroke: #ff7f0e; stroke-width: 2.25; stroke-linecap: square"/>
   </g>
   <g id="patch_3">
    <path d="M 43.78125 642.866667 
L 43.78125 151.965714 
" style="fill: none; stroke: #000000; stroke-width: 0.8; stroke-linejoin: miter; stroke-linecap: square"/>
   </g>
   <g id="patch_4">
    <path d="M 43.78125 642.866667 
L 817.231964 642.866667 
" style="fill: none; stroke: #000000; stroke-width: 0.8; stroke-linejoin: miter; stroke-linecap: square"/>
   </g>
   <g id="legend_1">
    <g id="patch_5">
     <path d="M 704.119464 637.866667 
L 810.231964 637.866667 
Q 812.231964 637.866667 812.231964 635.866667 
L 812.231964 607.510417 
Q 812.231964 605.510417 810.231964 605.510417 
L 704.119464 605.510417 
Q 702.119464 605.510417 702.119464 607.510417 
L 702.119464 635.866667 
Q 702.119464 637.866667 704.119464 637.866667 
z
" style="fill: #ffffff; opacity: 0.8; stroke: #cccccc; stroke-linejoin: miter"/>
    </g>
    <g id="PathCollection_3">
     <g>
      <use xlink:href="#m898783bd64" x="716.119464" y="614.483854" style="fill: #4169e1; fill-opacity: 0.5; stroke: #000000; stroke-opacity: 0.5"/>
     </g>
    </g>
    <g id="text_16">
     <!-- Codon number -->
     <g transform="translate(734.119464 617.108854) scale(0.1 -0.1)">
      <defs>
       <path id="DejaVuSans-64" d="M 2906 2969 
L 2906 4863 
L 3481 4863 
L 3481 0 
L 2906 0 
L 2906 525 
Q 2725 213 2448 61 
Q 2172 -91 1784 -91 
Q 1150 -91 751 415 
Q 353 922 353 1747 
Q 353 2572 751 3078 
Q 1150 3584 1784 3584 
Q 2172 3584 2448 3432 
Q 2725 3281 2906 2969 
z
M 947 1747 
Q 947 1113 1208 752 
Q 1469 391 1925 391 
Q 2381 391 2643 752 
Q 2906 1113 2906 1747 
Q 2906 2381 2643 2742 
Q 2381 3103 1925 3103 
Q 1469 3103 1208 2742 
Q 947 2381 947 1747 
z
" transform="scale(0.015625)"/>
       <path id="DejaVuSans-75" d="M 544 1381 
L 544 3500 
L 1119 3500 
L 1119 1403 
Q 1119 906 1312 657 
Q 1506 409 1894 409 
Q 2359 409 2629 706 
Q 2900 1003 2900 1516 
L 2900 3500 
L 3475 3500 
L 3475 0 
L 2900 0 
L 2900 538 
Q 2691 219 2414 64 
Q 2138 -91 1772 -91 
Q 1169 -91 856 284 
Q 544 659 544 1381 
z
M 1991 3584 
L 1991 3584 
z
" transform="scale(0.015625)"/>
       <path id="DejaVuSans-6d" d="M 3328 2828 
Q 3544 3216 3844 3400 
Q 4144 3584 4550 3584 
Q 5097 3584 5394 3201 
Q 5691 2819 5691 2113 
L 5691 0 
L 5113 0 
L 5113 2094 
Q 5113 2597 4934 2840 
Q 4756 3084 4391 3084 
Q 3944 3084 3684 2787 
Q 3425 2491 3425 1978 
L 3425 0 
L 2847 0 
L 2847 2094 
Q 2847 2600 2669 2842 
Q 2491 3084 2119 3084 
Q 1678 3084 1418 2786 
Q 1159 2488 1159 1978 
L 1159 0 
L 581 0 
L 581 3500 
L 1159 3500 
L 1159 2956 
Q 1356 3278 1631 3431 
Q 1906 3584 2284 3584 
Q 2666 3584 2933 3390 
Q 3200 3197 3328 2828 
z
" transform="scale(0.015625)"/>
       <path id="DejaVuSans-62" d="M 3116 1747 
Q 3116 2381 2855 2742 
Q 2594 3103 2138 3103 
Q 1681 3103 1420 2742 
Q 1159 2381 1159 1747 
Q 1159 1113 1420 752 
Q 1681 391 2138 391 
Q 2594 391 2855 752 
Q 3116 1113 3116 1747 
z
M 1159 2969 
Q 1341 3281 1617 3432 
Q 1894 3584 2278 3584 
Q 2916 3584 3314 3078 
Q 3713 2572 3713 1747 
Q 3713 922 3314 415 
Q 2916 -91 2278 -91 
Q 1894 -91 1617 61 
Q 1341 213 1159 525 
L 1159 0 
L 581 0 
L 581 4863 
L 1159 4863 
L 1159 2969 
z
" transform="scale(0.015625)"/>
      </defs>
      <use xlink:href="#DejaVuSans-43"/>
      <use xlink:href="#DejaVuSans-6f" x="69.824219"/>
      <use xlink:href="#DejaVuSans-64" x="131.005859"/>
      <use xlink:href="#DejaVuSans-6f" x="194.482422"/>
      <use xlink:href="#DejaVuSans-6e" x="255.664062"/>
      <use xlink:href="#DejaVuSans-20" x="319.042969"/>
      <use xlink:href="#DejaVuSans-6e" x="350.830078"/>
      <use xlink:href="#DejaVuSans-75" x="414.208984"/>
      <use xlink:href="#DejaVuSans-6d" x="477.587891"/>
      <use xlink:href="#DejaVuSans-62" x="575"/>
      <use xlink:href="#DejaVuSans-65" x="638.476562"/>
      <use xlink:href="#DejaVuSans-72" x="700"/>
     </g>
    </g>
    <g id="PathCollection_4">
     <g>
      <use xlink:href="#mf989e042e9" x="716.119464" y="629.161979" style="fill: #ff8c00; fill-opacity: 0.5; stroke: #000000; stroke-opacity: 0.5"/>
     </g>
    </g>
    <g id="text_17">
     <!-- Codon+GC -->
     <g transform="translate(734.119464 631.786979) scale(0.1 -0.1)">
      <defs>
       <path id="DejaVuSans-2b" d="M 2944 4013 
L 2944 2272 
L 4684 2272 
L 4684 1741 
L 2944 1741 
L 2944 0 
L 2419 0 
L 2419 1741 
L 678 1741 
L 678 2272 
L 2419 2272 
L 2419 4013 
L 2944 4013 
z
" transform="scale(0.015625)"/>
       <path id="DejaVuSans-47" d="M 3809 666 
L 3809 1919 
L 2778 1919 
L 2778 2438 
L 4434 2438 
L 4434 434 
Q 4069 175 3628 42 
Q 3188 -91 2688 -91 
Q 1594 -91 976 548 
Q 359 1188 359 2328 
Q 359 3472 976 4111 
Q 1594 4750 2688 4750 
Q 3144 4750 3555 4637 
Q 3966 4525 4313 4306 
L 4313 3634 
Q 3963 3931 3569 4081 
Q 3175 4231 2741 4231 
Q 1884 4231 1454 3753 
Q 1025 3275 1025 2328 
Q 1025 1384 1454 906 
Q 1884 428 2741 428 
Q 3075 428 3337 486 
Q 3600 544 3809 666 
z
" transform="scale(0.015625)"/>
      </defs>
      <use xlink:href="#DejaVuSans-43"/>
      <use xlink:href="#DejaVuSans-6f" x="69.824219"/>
      <use xlink:href="#DejaVuSans-64" x="131.005859"/>
      <use xlink:href="#DejaVuSans-6f" x="194.482422"/>
      <use xlink:href="#DejaVuSans-6e" x="255.664062"/>
      <use xlink:href="#DejaVuSans-2b" x="319.042969"/>
      <use xlink:href="#DejaVuSans-47" x="402.832031"/>
      <use xlink:href="#DejaVuSans-43" x="480.322266"/>
     </g>
    </g>
   </g>
  </g>
  <g id="axes_2">
   <g id="patch_6">
    <path d="M 43.78125 135.038095 
L 817.231964 135.038095 
L 817.231964 50.4 
L 43.78125 50.4 
z
" style="fill: #ffffff"/>
   </g>
   <g id="PolyCollection_3">
    <defs>
     <path id="mdd79d395dc" d="M 78.938101 -549.627332 
L 78.938101 -545.384821 
L 105.981832 -545.384821 
L 105.981832 -545.384821 
L 133.025563 -545.384821 
L 133.025563 -545.384821 
L 160.069294 -545.384821 
L 160.069294 -545.384821 
L 187.113026 -545.384821 
L 187.113026 -545.384821 
L 214.156757 -545.384821 
L 214.156757 -545.384821 
L 241.200488 -545.384821 
L 241.200488 -545.384821 
L 268.24422 -545.384821 
L 268.24422 -545.384821 
L 295.287951 -545.384821 
L 295.287951 -545.384821 
L 322.331682 -545.384821 
L 322.331682 -545.384821 
L 349.375413 -545.384821 
L 349.375413 -545.384821 
L 376.419145 -545.384821 
L 376.419145 -545.384821 
L 403.462876 -545.384821 
L 403.462876 -545.384821 
L 430.506607 -545.384821 
L 430.506607 -545.384821 
L 457.550338 -545.384821 
L 457.550338 -545.384821 
L 484.59407 -545.384821 
L 484.59407 -545.384821 
L 511.637801 -545.384821 
L 511.637801 -545.384821 
L 538.681532 -545.384821 
L 538.681532 -545.384821 
L 565.725263 -545.384821 
L 565.725263 -545.384821 
L 592.768995 -545.384821 
L 592.768995 -545.384821 
L 619.812726 -545.384821 
L 619.812726 -545.384821 
L 646.856457 -545.384821 
L 646.856457 -545.384821 
L 673.900189 -545.384821 
L 673.900189 -545.384821 
L 700.94392 -545.384821 
L 700.94392 -545.384821 
L 727.987651 -545.384821 
L 727.987651 -545.384821 
L 755.031382 -545.384821 
L 755.031382 -545.384821 
L 782.075114 -545.384821 
L 782.075114 -545.384821 
L 782.075114 -549.627332 
L 782.075114 -549.627332 
L 782.075114 -549.627332 
L 755.031382 -549.627332 
L 755.031382 -545.384821 
L 727.987651 -545.384821 
L 727.987651 -545.384821 
L 700.94392 -545.384821 
L 700.94392 -545.384821 
L 673.900189 -545.384821 
L 673.900189 -545.384821 
L 646.856457 -545.384821 
L 646.856457 -545.384821 
L 619.812726 -545.384821 
L 619.812726 -545.384821 
L 592.768995 -545.384821 
L 592.768995 -545.384821 
L 565.725263 -545.384821 
L 565.725263 -545.384821 
L 538.681532 -545.384821 
L 538.681532 -545.384821 
L 511.637801 -545.384821 
L 511.637801 -549.627332 
L 484.59407 -549.627332 
L 484.59407 -545.384821 
L 457.550338 -545.384821 
L 457.550338 -549.627332 
L 430.506607 -549.627332 
L 430.506607 -545.384821 
L 403.462876 -545.384821 
L 403.462876 -549.627332 
L 376.419145 -549.627332 
L 376.419145 -545.384821 
L 349.375413 -545.384821 
L 349.375413 -566.597377 
L 322.331682 -566.597377 
L 322.331682 -575.082399 
L 295.287951 -575.082399 
L 295.287951 -625.992531 
L 268.24422 -625.992531 
L 268.24422 -604.779976 
L 241.200488 -604.779976 
L 241.200488 -579.32491 
L 214.156757 -579.32491 
L 214.156757 -558.112355 
L 187.113026 -558.112355 
L 187.113026 -549.627332 
L 160.069294 -549.627332 
L 160.069294 -562.354866 
L 133.025563 -562.354866 
L 133.025563 -549.627332 
L 105.981832 -549.627332 
L 105.981832 -549.627332 
L 78.938101 -549.627332 
z
" style="stroke: #000000"/>
    </defs>
    <g clip-path="url(#pa80153005f)">
     <use xlink:href="#mdd79d395dc" x="0" y="680.422917" style="fill: #800080; fill-opacity: 0.75; stroke: #000000"/>
    </g>
   </g>
   <g id="matplotlib.axis_3">
    <g id="xtick_6">
     <g id="line2d_16">
      <g>
       <use xlink:href="#m5169789017" x="149.654618" y="135.038095" style="stroke: #000000; stroke-width: 0.8"/>
      </g>
     </g>
    </g>
    <g id="xtick_7">
     <g id="line2d_17">
      <g>
       <use xlink:href="#m5169789017" x="283.926485" y="135.038095" style="stroke: #000000; stroke-width: 0.8"/>
      </g>
     </g>
    </g>
    <g id="xtick_8">
     <g id="line2d_18">
      <g>
       <use xlink:href="#m5169789017" x="418.198353" y="135.038095" style="stroke: #000000; stroke-width: 0.8"/>
      </g>
     </g>
    </g>
    <g id="xtick_9">
     <g id="line2d_19">
      <g>
       <use xlink:href="#m5169789017" x="552.47022" y="135.038095" style="stroke: #000000; stroke-width: 0.8"/>
      </g>
     </g>
    </g>
    <g id="xtick_10">
     <g id="line2d_20">
      <g>
       <use xlink:href="#m5169789017" x="686.742088" y="135.038095" style="stroke: #000000; stroke-width: 0.8"/>
      </g>
     </g>
    </g>
   </g>
   <g id="matplotlib.axis_4">
    <g id="ytick_9"/>
    <g id="ytick_10"/>
    <g id="ytick_11"/>
    <g id="ytick_12"/>
   </g>
   <g id="patch_7">
    <path d="M 43.78125 135.038095 
L 817.231964 135.038095 
" style="fill: none; stroke: #000000; stroke-width: 0.8; stroke-linejoin: miter; stroke-linecap: square"/>
   </g>
  </g>
  <g id="axes_3">
   <g id="patch_8">
    <path d="M 843.902679 642.866667 
L 977.25625 642.866667 
L 977.25625 151.965714 
L 843.902679 151.965714 
z
" style="fill: #ffffff"/>
   </g>
   <g id="PolyCollection_4">
    <defs>
     <path id="mb9fb01a750" d="M 880.322625 -149.53538 
L 849.964205 -149.53538 
L 849.964205 -149.53538 
L 849.964205 -182.944171 
L 849.964205 -182.944171 
L 849.964205 -216.352961 
L 849.964205 -216.352961 
L 849.964205 -249.761752 
L 849.964205 -249.761752 
L 849.964205 -283.170543 
L 849.964205 -283.170543 
L 849.964205 -316.579334 
L 849.964205 -316.579334 
L 849.964205 -349.988125 
L 874.250941 -349.988125 
L 874.250941 -349.988125 
L 874.250941 -316.579334 
L 928.896098 -316.579334 
L 928.896098 -283.170543 
L 928.896098 -283.170543 
L 928.896098 -249.761752 
L 941.039467 -249.761752 
L 941.039467 -216.352961 
L 910.681046 -216.352961 
L 910.681046 -182.944171 
L 892.465994 -182.944171 
L 892.465994 -149.53538 
L 880.322625 -149.53538 
z
" style="stroke: #000000; stroke-opacity: 0.5"/>
    </defs>
    <g clip-path="url(#p27be5ac18b)">
     <use xlink:href="#mb9fb01a750" x="0" y="680.422917" style="fill: #4169e1; fill-opacity: 0.5; stroke: #000000; stroke-opacity: 0.5"/>
    </g>
   </g>
   <g id="PolyCollection_5">
    <defs>
     <path id="mee1c4012a7" d="M 861.509968 -59.86993 
L 849.964205 -59.86993 
L 849.964205 -59.86993 
L 849.964205 -95.007947 
L 849.964205 -95.007947 
L 849.964205 -130.145965 
L 849.964205 -130.145965 
L 849.964205 -165.283983 
L 849.964205 -165.283983 
L 849.964205 -200.422 
L 849.964205 -200.422 
L 849.964205 -235.560018 
L 849.964205 -235.560018 
L 849.964205 -270.698035 
L 849.964205 -270.698035 
L 849.964205 -305.836053 
L 913.465905 -305.836053 
L 913.465905 -305.836053 
L 913.465905 -270.698035 
L 971.194724 -270.698035 
L 971.194724 -235.560018 
L 913.465905 -235.560018 
L 913.465905 -200.422 
L 901.920141 -200.422 
L 901.920141 -165.283983 
L 878.828614 -165.283983 
L 878.828614 -130.145965 
L 878.828614 -130.145965 
L 878.828614 -95.007947 
L 867.28285 -95.007947 
L 867.28285 -59.86993 
L 861.509968 -59.86993 
z
" style="stroke: #000000; stroke-opacity: 0.5"/>
    </defs>
    <g clip-path="url(#p27be5ac18b)">
     <use xlink:href="#mee1c4012a7" x="0" y="680.422917" style="fill: #ff8c00; fill-opacity: 0.5; stroke: #000000; stroke-opacity: 0.5"/>
    </g>
   </g>
   <g id="matplotlib.axis_5">
    <g id="xtick_11"/>
    <g id="xtick_12"/>
    <g id="xtick_13"/>
   </g>
   <g id="matplotlib.axis_6">
    <g id="ytick_13">
     <g id="line2d_21">
      <g>
       <use xlink:href="#m2df1b13c29" x="843.902679" y="638.121996" style="stroke: #000000; stroke-width: 0.8"/>
      </g>
     </g>
    </g>
    <g id="ytick_14">
     <g id="line2d_22">
      <g>
       <use xlink:href="#m2df1b13c29" x="843.902679" y="575.906864" style="stroke: #000000; stroke-width: 0.8"/>
      </g>
     </g>
    </g>
    <g id="ytick_15">
     <g id="line2d_23">
      <g>
       <use xlink:href="#m2df1b13c29" x="843.902679" y="513.691731" style="stroke: #000000; stroke-width: 0.8"/>
      </g>
     </g>
    </g>
    <g id="ytick_16">
     <g id="line2d_24">
      <g>
       <use xlink:href="#m2df1b13c29" x="843.902679" y="451.476599" style="stroke: #000000; stroke-width: 0.8"/>
      </g>
     </g>
    </g>
    <g id="ytick_17">
     <g id="line2d_25">
      <g>
       <use xlink:href="#m2df1b13c29" x="843.902679" y="389.261467" style="stroke: #000000; stroke-width: 0.8"/>
      </g>
     </g>
    </g>
    <g id="ytick_18">
     <g id="line2d_26">
      <g>
       <use xlink:href="#m2df1b13c29" x="843.902679" y="327.046334" style="stroke: #000000; stroke-width: 0.8"/>
      </g>
     </g>
    </g>
    <g id="ytick_19">
     <g id="line2d_27">
      <g>
       <use xlink:href="#m2df1b13c29" x="843.902679" y="264.831202" style="stroke: #000000; stroke-width: 0.8"/>
      </g>
     </g>
    </g>
    <g id="ytick_20">
     <g id="line2d_28">
      <g>
       <use xlink:href="#m2df1b13c29" x="843.902679" y="202.61607" style="stroke: #000000; stroke-width: 0.8"/>
      </g>
     </g>
    </g>
   </g>
   <g id="patch_9">
    <path d="M 843.902679 642.866667 
L 843.902679 151.965714 
" style="fill: none; stroke: #000000; stroke-width: 0.8; stroke-linejoin: miter; stroke-linecap: square"/>
   </g>
  </g>
  <g id="text_18">
   <!-- Archaea - Kendall's Tau correlation coefficients for genetic code: EFM -->
   <g transform="translate(257.310625 16.318125) scale(0.12 -0.12)">
    <defs>
     <path id="DejaVuSans-41" d="M 2188 4044 
L 1331 1722 
L 3047 1722 
L 2188 4044 
z
M 1831 4666 
L 2547 4666 
L 4325 0 
L 3669 0 
L 3244 1197 
L 1141 1197 
L 716 0 
L 50 0 
L 1831 4666 
z
" transform="scale(0.015625)"/>
     <path id="DejaVuSans-2d" d="M 313 2009 
L 1997 2009 
L 1997 1497 
L 313 1497 
L 313 2009 
z
" transform="scale(0.015625)"/>
     <path id="DejaVuSans-4b" d="M 628 4666 
L 1259 4666 
L 1259 2694 
L 3353 4666 
L 4166 4666 
L 1850 2491 
L 4331 0 
L 3500 0 
L 1259 2247 
L 1259 0 
L 628 0 
L 628 4666 
z
" transform="scale(0.015625)"/>
     <path id="DejaVuSans-27" d="M 1147 4666 
L 1147 2931 
L 616 2931 
L 616 4666 
L 1147 4666 
z
" transform="scale(0.015625)"/>
     <path id="DejaVuSans-73" d="M 2834 3397 
L 2834 2853 
Q 2591 2978 2328 3040 
Q 2066 3103 1784 3103 
Q 1356 3103 1142 2972 
Q 928 2841 928 2578 
Q 928 2378 1081 2264 
Q 1234 2150 1697 2047 
L 1894 2003 
Q 2506 1872 2764 1633 
Q 3022 1394 3022 966 
Q 3022 478 2636 193 
Q 2250 -91 1575 -91 
Q 1294 -91 989 -36 
Q 684 19 347 128 
L 347 722 
Q 666 556 975 473 
Q 1284 391 1588 391 
Q 1994 391 2212 530 
Q 2431 669 2431 922 
Q 2431 1156 2273 1281 
Q 2116 1406 1581 1522 
L 1381 1569 
Q 847 1681 609 1914 
Q 372 2147 372 2553 
Q 372 3047 722 3315 
Q 1072 3584 1716 3584 
Q 2034 3584 2315 3537 
Q 2597 3491 2834 3397 
z
" transform="scale(0.015625)"/>
     <path id="DejaVuSans-54" d="M -19 4666 
L 3928 4666 
L 3928 4134 
L 2272 4134 
L 2272 0 
L 1638 0 
L 1638 4134 
L -19 4134 
L -19 4666 
z
" transform="scale(0.015625)"/>
     <path id="DejaVuSans-3a" d="M 750 794 
L 1409 794 
L 1409 0 
L 750 0 
L 750 794 
z
M 750 3309 
L 1409 3309 
L 1409 2516 
L 750 2516 
L 750 3309 
z
" transform="scale(0.015625)"/>
     <path id="DejaVuSans-45" d="M 628 4666 
L 3578 4666 
L 3578 4134 
L 1259 4134 
L 1259 2753 
L 3481 2753 
L 3481 2222 
L 1259 2222 
L 1259 531 
L 3634 531 
L 3634 0 
L 628 0 
L 628 4666 
z
" transform="scale(0.015625)"/>
     <path id="DejaVuSans-46" d="M 628 4666 
L 3309 4666 
L 3309 4134 
L 1259 4134 
L 1259 2759 
L 3109 2759 
L 3109 2228 
L 1259 2228 
L 1259 0 
L 628 0 
L 628 4666 
z
" transform="scale(0.015625)"/>
     <path id="DejaVuSans-4d" d="M 628 4666 
L 1569 4666 
L 2759 1491 
L 3956 4666 
L 4897 4666 
L 4897 0 
L 4281 0 
L 4281 4097 
L 3078 897 
L 2444 897 
L 1241 4097 
L 1241 0 
L 628 0 
L 628 4666 
z
" transform="scale(0.015625)"/>
    </defs>
    <use xlink:href="#DejaVuSans-41"/>
    <use xlink:href="#DejaVuSans-72" x="68.408203"/>
    <use xlink:href="#DejaVuSans-63" x="107.271484"/>
    <use xlink:href="#DejaVuSans-68" x="162.251953"/>
    <use xlink:href="#DejaVuSans-61" x="225.630859"/>
    <use xlink:href="#DejaVuSans-65" x="286.910156"/>
    <use xlink:href="#DejaVuSans-61" x="348.433594"/>
    <use xlink:href="#DejaVuSans-20" x="409.712891"/>
    <use xlink:href="#DejaVuSans-2d" x="441.5"/>
    <use xlink:href="#DejaVuSans-20" x="477.583984"/>
    <use xlink:href="#DejaVuSans-4b" x="509.371094"/>
    <use xlink:href="#DejaVuSans-65" x="569.947266"/>
    <use xlink:href="#DejaVuSans-6e" x="631.470703"/>
    <use xlink:href="#DejaVuSans-64" x="694.849609"/>
    <use xlink:href="#DejaVuSans-61" x="758.326172"/>
    <use xlink:href="#DejaVuSans-6c" x="819.605469"/>
    <use xlink:href="#DejaVuSans-6c" x="847.388672"/>
    <use xlink:href="#DejaVuSans-27" x="875.171875"/>
    <use xlink:href="#DejaVuSans-73" x="902.662109"/>
    <use xlink:href="#DejaVuSans-20" x="954.761719"/>
    <use xlink:href="#DejaVuSans-54" x="986.548828"/>
    <use xlink:href="#DejaVuSans-61" x="1031.132812"/>
    <use xlink:href="#DejaVuSans-75" x="1092.412109"/>
    <use xlink:href="#DejaVuSans-20" x="1155.791016"/>
    <use xlink:href="#DejaVuSans-63" x="1187.578125"/>
    <use xlink:href="#DejaVuSans-6f" x="1242.558594"/>
    <use xlink:href="#DejaVuSans-72" x="1303.740234"/>
    <use xlink:href="#DejaVuSans-72" x="1343.103516"/>
    <use xlink:href="#DejaVuSans-65" x="1381.966797"/>
    <use xlink:href="#DejaVuSans-6c" x="1443.490234"/>
    <use xlink:href="#DejaVuSans-61" x="1471.273438"/>
    <use xlink:href="#DejaVuSans-74" x="1532.552734"/>
    <use xlink:href="#DejaVuSans-69" x="1571.761719"/>
    <use xlink:href="#DejaVuSans-6f" x="1599.544922"/>
    <use xlink:href="#DejaVuSans-6e" x="1660.726562"/>
    <use xlink:href="#DejaVuSans-20" x="1724.105469"/>
    <use xlink:href="#DejaVuSans-63" x="1755.892578"/>
    <use xlink:href="#DejaVuSans-6f" x="1810.873047"/>
    <use xlink:href="#DejaVuSans-65" x="1872.054688"/>
    <use xlink:href="#DejaVuSans-66" x="1933.578125"/>
    <use xlink:href="#DejaVuSans-66" x="1968.783203"/>
    <use xlink:href="#DejaVuSans-69" x="2003.988281"/>
    <use xlink:href="#DejaVuSans-63" x="2031.771484"/>
    <use xlink:href="#DejaVuSans-69" x="2086.751953"/>
    <use xlink:href="#DejaVuSans-65" x="2114.535156"/>
    <use xlink:href="#DejaVuSans-6e" x="2176.058594"/>
    <use xlink:href="#DejaVuSans-74" x="2239.4375"/>
    <use xlink:href="#DejaVuSans-73" x="2278.646484"/>
    <use xlink:href="#DejaVuSans-20" x="2330.746094"/>
    <use xlink:href="#DejaVuSans-66" x="2362.533203"/>
    <use xlink:href="#DejaVuSans-6f" x="2397.738281"/>
    <use xlink:href="#DejaVuSans-72" x="2458.919922"/>
    <use xlink:href="#DejaVuSans-20" x="2500.033203"/>
    <use xlink:href="#DejaVuSans-67" x="2531.820312"/>
    <use xlink:href="#DejaVuSans-65" x="2595.296875"/>
    <use xlink:href="#DejaVuSans-6e" x="2656.820312"/>
    <use xlink:href="#DejaVuSans-65" x="2720.199219"/>
    <use xlink:href="#DejaVuSans-74" x="2781.722656"/>
    <use xlink:href="#DejaVuSans-69" x="2820.931641"/>
    <use xlink:href="#DejaVuSans-63" x="2848.714844"/>
    <use xlink:href="#DejaVuSans-20" x="2903.695312"/>
    <use xlink:href="#DejaVuSans-63" x="2935.482422"/>
    <use xlink:href="#DejaVuSans-6f" x="2990.462891"/>
    <use xlink:href="#DejaVuSans-64" x="3051.644531"/>
    <use xlink:href="#DejaVuSans-65" x="3115.121094"/>
    <use xlink:href="#DejaVuSans-3a" x="3176.644531"/>
    <use xlink:href="#DejaVuSans-20" x="3210.335938"/>
    <use xlink:href="#DejaVuSans-45" x="3242.123047"/>
    <use xlink:href="#DejaVuSans-46" x="3305.306641"/>
    <use xlink:href="#DejaVuSans-4d" x="3362.826172"/>
   </g>
  </g>
 </g>
 <defs>
  <clipPath id="p15735908df">
   <rect x="43.78125" y="151.965714" width="773.450714" height="490.900952"/>
  </clipPath>
  <clipPath id="pa80153005f">
   <rect x="43.78125" y="50.4" width="773.450714" height="84.638095"/>
  </clipPath>
  <clipPath id="p27be5ac18b">
   <rect x="843.902679" y="151.965714" width="133.353571" height="490.900952"/>
  </clipPath>
 </defs>
</svg>
