<?xml version="1.0" encoding="utf-8" standalone="no"?>
<!DOCTYPE svg PUBLIC "-//W3C//DTD SVG 1.1//EN"
  "http://www.w3.org/Graphics/SVG/1.1/DTD/svg11.dtd">
<svg xmlns:xlink="http://www.w3.org/1999/xlink" width="984.45625pt" height="680.422917pt" viewBox="0 0 984.45625 680.422917" xmlns="http://www.w3.org/2000/svg" version="1.1">
 <metadata>
  <rdf:RDF xmlns:dc="http://purl.org/dc/elements/1.1/" xmlns:cc="http://creativecommons.org/ns#" xmlns:rdf="http://www.w3.org/1999/02/22-rdf-syntax-ns#">
   <cc:Work>
    <dc:type rdf:resource="http://purl.org/dc/dcmitype/StillImage"/>
    <dc:date>2025-02-13T12:44:22.907679</dc:date>
    <dc:format>image/svg+xml</dc:format>
    <dc:creator>
     <cc:Agent>
      <dc:title>Matplotlib v3.6.3, https://matplotlib.org/</dc:title>
     </cc:Agent>
    </dc:creator>
   </cc:Work>
  </rdf:RDF>
 </metadata>
 <defs>
  <style type="text/css">*{stroke-linejoin: round; stroke-linecap: butt}</style>
 </defs>
 <g id="figure_1">
  <g id="patch_1">
   <path d="M 0 680.422917 
L 984.45625 680.422917 
L 984.45625 0 
L 0 0 
z
" style="fill: #ffffff"/>
  </g>
  <g id="axes_1">
   <g id="patch_2">
    <path d="M 43.78125 642.866667 
L 817.231964 642.866667 
L 817.231964 151.965714 
L 43.78125 151.965714 
z
" style="fill: #ffffff"/>
   </g>
   <g id="PathCollection_1">
    <defs>
     <path id="me34a31b1be" d="M 0 3 
C 0.795609 3 1.55874 2.683901 2.12132 2.12132 
C 2.683901 1.55874 3 0.795609 3 0 
C 3 -0.795609 2.683901 -1.55874 2.12132 -2.12132 
C 1.55874 -2.683901 0.795609 -3 0 -3 
C -0.795609 -3 -1.55874 -2.683901 -2.12132 -2.12132 
C -2.683901 -1.55874 -3 -0.795609 -3 0 
C -3 0.795609 -2.683901 1.55874 -2.12132 2.12132 
C -1.55874 2.683901 -0.795609 3 0 3 
z
" style="stroke: #000000; stroke-opacity: 0.5"/>
    </defs>
    <g clip-path="url(#pa740d00bf3)">
     <use xlink:href="#me34a31b1be" x="342.846231" y="441.333693" style="fill: #4169e1; fill-opacity: 0.5; stroke: #000000; stroke-opacity: 0.5"/>
     <use xlink:href="#me34a31b1be" x="368.895453" y="301.000002" style="fill: #4169e1; fill-opacity: 0.5; stroke: #000000; stroke-opacity: 0.5"/>
     <use xlink:href="#me34a31b1be" x="380.076906" y="329.06674" style="fill: #4169e1; fill-opacity: 0.5; stroke: #000000; stroke-opacity: 0.5"/>
     <use xlink:href="#me34a31b1be" x="379.644972" y="394.555796" style="fill: #4169e1; fill-opacity: 0.5; stroke: #000000; stroke-opacity: 0.5"/>
     <use xlink:href="#me34a31b1be" x="408.620871" y="319.711161" style="fill: #4169e1; fill-opacity: 0.5; stroke: #000000; stroke-opacity: 0.5"/>
     <use xlink:href="#me34a31b1be" x="317.633689" y="375.844637" style="fill: #4169e1; fill-opacity: 0.5; stroke: #000000; stroke-opacity: 0.5"/>
     <use xlink:href="#me34a31b1be" x="419.357518" y="375.844637" style="fill: #4169e1; fill-opacity: 0.5; stroke: #000000; stroke-opacity: 0.5"/>
     <use xlink:href="#me34a31b1be" x="389.340914" y="347.777899" style="fill: #4169e1; fill-opacity: 0.5; stroke: #000000; stroke-opacity: 0.5"/>
     <use xlink:href="#me34a31b1be" x="602.415657" y="244.866526" style="fill: #4169e1; fill-opacity: 0.5; stroke: #000000; stroke-opacity: 0.5"/>
     <use xlink:href="#me34a31b1be" x="196.891875" y="499.09387" style="fill: #4169e1; fill-opacity: 0.5; stroke: #000000; stroke-opacity: 0.5"/>
     <use xlink:href="#me34a31b1be" x="271.166585" y="436.112117" style="fill: #4169e1; fill-opacity: 0.5; stroke: #000000; stroke-opacity: 0.5"/>
     <use xlink:href="#me34a31b1be" x="432.925299" y="263.577685" style="fill: #4169e1; fill-opacity: 0.5; stroke: #000000; stroke-opacity: 0.5"/>
     <use xlink:href="#me34a31b1be" x="333.356849" y="376.669344" style="fill: #4169e1; fill-opacity: 0.5; stroke: #000000; stroke-opacity: 0.5"/>
     <use xlink:href="#me34a31b1be" x="363.272853" y="469.400431" style="fill: #4169e1; fill-opacity: 0.5; stroke: #000000; stroke-opacity: 0.5"/>
     <use xlink:href="#me34a31b1be" x="411.373988" y="422.622534" style="fill: #4169e1; fill-opacity: 0.5; stroke: #000000; stroke-opacity: 0.5"/>
     <use xlink:href="#me34a31b1be" x="365.75493" y="272.933264" style="fill: #4169e1; fill-opacity: 0.5; stroke: #000000; stroke-opacity: 0.5"/>
     <use xlink:href="#me34a31b1be" x="345.140675" y="413.266955" style="fill: #4169e1; fill-opacity: 0.5; stroke: #000000; stroke-opacity: 0.5"/>
     <use xlink:href="#me34a31b1be" x="476.909403" y="310.355582" style="fill: #4169e1; fill-opacity: 0.5; stroke: #000000; stroke-opacity: 0.5"/>
     <use xlink:href="#me34a31b1be" x="341.56926" y="357.133478" style="fill: #4169e1; fill-opacity: 0.5; stroke: #000000; stroke-opacity: 0.5"/>
     <use xlink:href="#me34a31b1be" x="382.434037" y="488.11159" style="fill: #4169e1; fill-opacity: 0.5; stroke: #000000; stroke-opacity: 0.5"/>
     <use xlink:href="#me34a31b1be" x="418.420488" y="282.288843" style="fill: #4169e1; fill-opacity: 0.5; stroke: #000000; stroke-opacity: 0.5"/>
     <use xlink:href="#me34a31b1be" x="384.820368" y="263.577685" style="fill: #4169e1; fill-opacity: 0.5; stroke: #000000; stroke-opacity: 0.5"/>
     <use xlink:href="#me34a31b1be" x="370.885977" y="347.777899" style="fill: #4169e1; fill-opacity: 0.5; stroke: #000000; stroke-opacity: 0.5"/>
     <use xlink:href="#me34a31b1be" x="389.261422" y="431.978113" style="fill: #4169e1; fill-opacity: 0.5; stroke: #000000; stroke-opacity: 0.5"/>
     <use xlink:href="#me34a31b1be" x="563.124013" y="216.799788" style="fill: #4169e1; fill-opacity: 0.5; stroke: #000000; stroke-opacity: 0.5"/>
     <use xlink:href="#me34a31b1be" x="395.439242" y="329.06674" style="fill: #4169e1; fill-opacity: 0.5; stroke: #000000; stroke-opacity: 0.5"/>
     <use xlink:href="#me34a31b1be" x="407.458966" y="357.133478" style="fill: #4169e1; fill-opacity: 0.5; stroke: #000000; stroke-opacity: 0.5"/>
     <use xlink:href="#me34a31b1be" x="194.444435" y="321.847581" style="fill: #4169e1; fill-opacity: 0.5; stroke: #000000; stroke-opacity: 0.5"/>
     <use xlink:href="#me34a31b1be" x="468.142657" y="347.777899" style="fill: #4169e1; fill-opacity: 0.5; stroke: #000000; stroke-opacity: 0.5"/>
     <use xlink:href="#me34a31b1be" x="370.81006" y="291.644423" style="fill: #4169e1; fill-opacity: 0.5; stroke: #000000; stroke-opacity: 0.5"/>
     <use xlink:href="#me34a31b1be" x="782.075114" y="289.78322" style="fill: #4169e1; fill-opacity: 0.5; stroke: #000000; stroke-opacity: 0.5"/>
     <use xlink:href="#me34a31b1be" x="78.938101" y="329.06674" style="fill: #4169e1; fill-opacity: 0.5; stroke: #000000; stroke-opacity: 0.5"/>
     <use xlink:href="#me34a31b1be" x="395.331086" y="310.355582" style="fill: #4169e1; fill-opacity: 0.5; stroke: #000000; stroke-opacity: 0.5"/>
     <use xlink:href="#me34a31b1be" x="411.825114" y="441.333693" style="fill: #4169e1; fill-opacity: 0.5; stroke: #000000; stroke-opacity: 0.5"/>
     <use xlink:href="#me34a31b1be" x="384.217237" y="357.133478" style="fill: #4169e1; fill-opacity: 0.5; stroke: #000000; stroke-opacity: 0.5"/>
     <use xlink:href="#me34a31b1be" x="431.749635" y="310.355582" style="fill: #4169e1; fill-opacity: 0.5; stroke: #000000; stroke-opacity: 0.5"/>
     <use xlink:href="#me34a31b1be" x="355.551936" y="394.555796" style="fill: #4169e1; fill-opacity: 0.5; stroke: #000000; stroke-opacity: 0.5"/>
     <use xlink:href="#me34a31b1be" x="433.130842" y="319.711161" style="fill: #4169e1; fill-opacity: 0.5; stroke: #000000; stroke-opacity: 0.5"/>
     <use xlink:href="#me34a31b1be" x="413.718106" y="282.288843" style="fill: #4169e1; fill-opacity: 0.5; stroke: #000000; stroke-opacity: 0.5"/>
     <use xlink:href="#me34a31b1be" x="191.984011" y="381.74666" style="fill: #4169e1; fill-opacity: 0.5; stroke: #000000; stroke-opacity: 0.5"/>
     <use xlink:href="#me34a31b1be" x="299.60158" y="282.288843" style="fill: #4169e1; fill-opacity: 0.5; stroke: #000000; stroke-opacity: 0.5"/>
     <use xlink:href="#me34a31b1be" x="304.114161" y="385.200217" style="fill: #4169e1; fill-opacity: 0.5; stroke: #000000; stroke-opacity: 0.5"/>
     <use xlink:href="#me34a31b1be" x="400.342233" y="263.577685" style="fill: #4169e1; fill-opacity: 0.5; stroke: #000000; stroke-opacity: 0.5"/>
     <use xlink:href="#me34a31b1be" x="396.987113" y="394.555796" style="fill: #4169e1; fill-opacity: 0.5; stroke: #000000; stroke-opacity: 0.5"/>
     <use xlink:href="#me34a31b1be" x="506.623663" y="385.200217" style="fill: #4169e1; fill-opacity: 0.5; stroke: #000000; stroke-opacity: 0.5"/>
     <use xlink:href="#me34a31b1be" x="411.569871" y="375.844637" style="fill: #4169e1; fill-opacity: 0.5; stroke: #000000; stroke-opacity: 0.5"/>
     <use xlink:href="#me34a31b1be" x="406.406549" y="276.647069" style="fill: #4169e1; fill-opacity: 0.5; stroke: #000000; stroke-opacity: 0.5"/>
     <use xlink:href="#me34a31b1be" x="449.215025" y="385.200217" style="fill: #4169e1; fill-opacity: 0.5; stroke: #000000; stroke-opacity: 0.5"/>
     <use xlink:href="#me34a31b1be" x="363.153159" y="329.06674" style="fill: #4169e1; fill-opacity: 0.5; stroke: #000000; stroke-opacity: 0.5"/>
     <use xlink:href="#me34a31b1be" x="346.849633" y="310.355582" style="fill: #4169e1; fill-opacity: 0.5; stroke: #000000; stroke-opacity: 0.5"/>
     <use xlink:href="#me34a31b1be" x="471.111372" y="272.933264" style="fill: #4169e1; fill-opacity: 0.5; stroke: #000000; stroke-opacity: 0.5"/>
     <use xlink:href="#me34a31b1be" x="411.430984" y="347.777899" style="fill: #4169e1; fill-opacity: 0.5; stroke: #000000; stroke-opacity: 0.5"/>
     <use xlink:href="#me34a31b1be" x="459.447792" y="431.978113" style="fill: #4169e1; fill-opacity: 0.5; stroke: #000000; stroke-opacity: 0.5"/>
     <use xlink:href="#me34a31b1be" x="200.538988" y="488.11159" style="fill: #4169e1; fill-opacity: 0.5; stroke: #000000; stroke-opacity: 0.5"/>
     <use xlink:href="#me34a31b1be" x="190.130089" y="450.689272" style="fill: #4169e1; fill-opacity: 0.5; stroke: #000000; stroke-opacity: 0.5"/>
     <use xlink:href="#me34a31b1be" x="472.205067" y="329.06674" style="fill: #4169e1; fill-opacity: 0.5; stroke: #000000; stroke-opacity: 0.5"/>
     <use xlink:href="#me34a31b1be" x="394.231203" y="422.622534" style="fill: #4169e1; fill-opacity: 0.5; stroke: #000000; stroke-opacity: 0.5"/>
     <use xlink:href="#me34a31b1be" x="419.428725" y="375.559351" style="fill: #4169e1; fill-opacity: 0.5; stroke: #000000; stroke-opacity: 0.5"/>
     <use xlink:href="#me34a31b1be" x="429.342489" y="375.844637" style="fill: #4169e1; fill-opacity: 0.5; stroke: #000000; stroke-opacity: 0.5"/>
     <use xlink:href="#me34a31b1be" x="426.363664" y="291.644423" style="fill: #4169e1; fill-opacity: 0.5; stroke: #000000; stroke-opacity: 0.5"/>
     <use xlink:href="#me34a31b1be" x="346.669147" y="375.844637" style="fill: #4169e1; fill-opacity: 0.5; stroke: #000000; stroke-opacity: 0.5"/>
     <use xlink:href="#me34a31b1be" x="422.440351" y="398.724524" style="fill: #4169e1; fill-opacity: 0.5; stroke: #000000; stroke-opacity: 0.5"/>
     <use xlink:href="#me34a31b1be" x="326.63958" y="254.222105" style="fill: #4169e1; fill-opacity: 0.5; stroke: #000000; stroke-opacity: 0.5"/>
     <use xlink:href="#me34a31b1be" x="403.400345" y="291.644423" style="fill: #4169e1; fill-opacity: 0.5; stroke: #000000; stroke-opacity: 0.5"/>
     <use xlink:href="#me34a31b1be" x="412.99973" y="244.866526" style="fill: #4169e1; fill-opacity: 0.5; stroke: #000000; stroke-opacity: 0.5"/>
     <use xlink:href="#me34a31b1be" x="370.059853" y="508.652855" style="fill: #4169e1; fill-opacity: 0.5; stroke: #000000; stroke-opacity: 0.5"/>
     <use xlink:href="#me34a31b1be" x="416.397415" y="460.356905" style="fill: #4169e1; fill-opacity: 0.5; stroke: #000000; stroke-opacity: 0.5"/>
    </g>
   </g>
   <g id="PathCollection_2">
    <defs>
     <path id="m7bbd071745" d="M 0 3 
C 0.795609 3 1.55874 2.683901 2.12132 2.12132 
C 2.683901 1.55874 3 0.795609 3 0 
C 3 -0.795609 2.683901 -1.55874 2.12132 -2.12132 
C 1.55874 -2.683901 0.795609 -3 0 -3 
C -0.795609 -3 -1.55874 -2.683901 -2.12132 -2.12132 
C -2.683901 -1.55874 -3 -0.795609 -3 0 
C -3 0.795609 -2.683901 1.55874 -2.12132 2.12132 
C -1.55874 2.683901 -0.795609 3 0 3 
z
" style="stroke: #000000; stroke-opacity: 0.5"/>
    </defs>
    <g clip-path="url(#pa740d00bf3)">
     <use xlink:href="#m7bbd071745" x="342.846231" y="497.769277" style="fill: #ff8c00; fill-opacity: 0.5; stroke: #000000; stroke-opacity: 0.5"/>
     <use xlink:href="#m7bbd071745" x="368.895453" y="339.904506" style="fill: #ff8c00; fill-opacity: 0.5; stroke: #000000; stroke-opacity: 0.5"/>
     <use xlink:href="#m7bbd071745" x="380.076906" y="348.674771" style="fill: #ff8c00; fill-opacity: 0.5; stroke: #000000; stroke-opacity: 0.5"/>
     <use xlink:href="#m7bbd071745" x="379.644972" y="427.607157" style="fill: #ff8c00; fill-opacity: 0.5; stroke: #000000; stroke-opacity: 0.5"/>
     <use xlink:href="#m7bbd071745" x="408.620871" y="357.445036" style="fill: #ff8c00; fill-opacity: 0.5; stroke: #000000; stroke-opacity: 0.5"/>
     <use xlink:href="#m7bbd071745" x="317.633689" y="374.985566" style="fill: #ff8c00; fill-opacity: 0.5; stroke: #000000; stroke-opacity: 0.5"/>
     <use xlink:href="#m7bbd071745" x="419.357518" y="383.755831" style="fill: #ff8c00; fill-opacity: 0.5; stroke: #000000; stroke-opacity: 0.5"/>
     <use xlink:href="#m7bbd071745" x="389.340914" y="339.904506" style="fill: #ff8c00; fill-opacity: 0.5; stroke: #000000; stroke-opacity: 0.5"/>
     <use xlink:href="#m7bbd071745" x="602.415657" y="348.674771" style="fill: #ff8c00; fill-opacity: 0.5; stroke: #000000; stroke-opacity: 0.5"/>
     <use xlink:href="#m7bbd071745" x="196.891875" y="454.298799" style="fill: #ff8c00; fill-opacity: 0.5; stroke: #000000; stroke-opacity: 0.5"/>
     <use xlink:href="#m7bbd071745" x="271.166585" y="501.783671" style="fill: #ff8c00; fill-opacity: 0.5; stroke: #000000; stroke-opacity: 0.5"/>
     <use xlink:href="#m7bbd071745" x="432.925299" y="296.053181" style="fill: #ff8c00; fill-opacity: 0.5; stroke: #000000; stroke-opacity: 0.5"/>
     <use xlink:href="#m7bbd071745" x="333.356849" y="406.890813" style="fill: #ff8c00; fill-opacity: 0.5; stroke: #000000; stroke-opacity: 0.5"/>
     <use xlink:href="#m7bbd071745" x="363.272853" y="620.552987" style="fill: #ff8c00; fill-opacity: 0.5; stroke: #000000; stroke-opacity: 0.5"/>
     <use xlink:href="#m7bbd071745" x="411.373988" y="506.539542" style="fill: #ff8c00; fill-opacity: 0.5; stroke: #000000; stroke-opacity: 0.5"/>
     <use xlink:href="#m7bbd071745" x="365.75493" y="304.823446" style="fill: #ff8c00; fill-opacity: 0.5; stroke: #000000; stroke-opacity: 0.5"/>
     <use xlink:href="#m7bbd071745" x="345.140675" y="480.228747" style="fill: #ff8c00; fill-opacity: 0.5; stroke: #000000; stroke-opacity: 0.5"/>
     <use xlink:href="#m7bbd071745" x="476.909403" y="322.363976" style="fill: #ff8c00; fill-opacity: 0.5; stroke: #000000; stroke-opacity: 0.5"/>
     <use xlink:href="#m7bbd071745" x="341.56926" y="357.445036" style="fill: #ff8c00; fill-opacity: 0.5; stroke: #000000; stroke-opacity: 0.5"/>
     <use xlink:href="#m7bbd071745" x="382.434037" y="506.539542" style="fill: #ff8c00; fill-opacity: 0.5; stroke: #000000; stroke-opacity: 0.5"/>
     <use xlink:href="#m7bbd071745" x="418.420488" y="278.512651" style="fill: #ff8c00; fill-opacity: 0.5; stroke: #000000; stroke-opacity: 0.5"/>
     <use xlink:href="#m7bbd071745" x="384.820368" y="287.282916" style="fill: #ff8c00; fill-opacity: 0.5; stroke: #000000; stroke-opacity: 0.5"/>
     <use xlink:href="#m7bbd071745" x="370.885977" y="383.755831" style="fill: #ff8c00; fill-opacity: 0.5; stroke: #000000; stroke-opacity: 0.5"/>
     <use xlink:href="#m7bbd071745" x="389.261422" y="427.607157" style="fill: #ff8c00; fill-opacity: 0.5; stroke: #000000; stroke-opacity: 0.5"/>
     <use xlink:href="#m7bbd071745" x="563.124013" y="296.053181" style="fill: #ff8c00; fill-opacity: 0.5; stroke: #000000; stroke-opacity: 0.5"/>
     <use xlink:href="#m7bbd071745" x="395.439242" y="366.215301" style="fill: #ff8c00; fill-opacity: 0.5; stroke: #000000; stroke-opacity: 0.5"/>
     <use xlink:href="#m7bbd071745" x="407.458966" y="462.688217" style="fill: #ff8c00; fill-opacity: 0.5; stroke: #000000; stroke-opacity: 0.5"/>
     <use xlink:href="#m7bbd071745" x="194.444435" y="368.42827" style="fill: #ff8c00; fill-opacity: 0.5; stroke: #000000; stroke-opacity: 0.5"/>
     <use xlink:href="#m7bbd071745" x="468.142657" y="348.674771" style="fill: #ff8c00; fill-opacity: 0.5; stroke: #000000; stroke-opacity: 0.5"/>
     <use xlink:href="#m7bbd071745" x="370.81006" y="331.134241" style="fill: #ff8c00; fill-opacity: 0.5; stroke: #000000; stroke-opacity: 0.5"/>
     <use xlink:href="#m7bbd071745" x="782.075114" y="338.299327" style="fill: #ff8c00; fill-opacity: 0.5; stroke: #000000; stroke-opacity: 0.5"/>
     <use xlink:href="#m7bbd071745" x="78.938101" y="339.904506" style="fill: #ff8c00; fill-opacity: 0.5; stroke: #000000; stroke-opacity: 0.5"/>
     <use xlink:href="#m7bbd071745" x="395.331086" y="348.674771" style="fill: #ff8c00; fill-opacity: 0.5; stroke: #000000; stroke-opacity: 0.5"/>
     <use xlink:href="#m7bbd071745" x="411.825114" y="436.377422" style="fill: #ff8c00; fill-opacity: 0.5; stroke: #000000; stroke-opacity: 0.5"/>
     <use xlink:href="#m7bbd071745" x="384.217237" y="383.755831" style="fill: #ff8c00; fill-opacity: 0.5; stroke: #000000; stroke-opacity: 0.5"/>
     <use xlink:href="#m7bbd071745" x="431.749635" y="322.363976" style="fill: #ff8c00; fill-opacity: 0.5; stroke: #000000; stroke-opacity: 0.5"/>
     <use xlink:href="#m7bbd071745" x="355.551936" y="392.526096" style="fill: #ff8c00; fill-opacity: 0.5; stroke: #000000; stroke-opacity: 0.5"/>
     <use xlink:href="#m7bbd071745" x="433.130842" y="357.445036" style="fill: #ff8c00; fill-opacity: 0.5; stroke: #000000; stroke-opacity: 0.5"/>
     <use xlink:href="#m7bbd071745" x="413.718106" y="313.593711" style="fill: #ff8c00; fill-opacity: 0.5; stroke: #000000; stroke-opacity: 0.5"/>
     <use xlink:href="#m7bbd071745" x="191.984011" y="451.386822" style="fill: #ff8c00; fill-opacity: 0.5; stroke: #000000; stroke-opacity: 0.5"/>
     <use xlink:href="#m7bbd071745" x="299.60158" y="348.674771" style="fill: #ff8c00; fill-opacity: 0.5; stroke: #000000; stroke-opacity: 0.5"/>
     <use xlink:href="#m7bbd071745" x="304.114161" y="374.985566" style="fill: #ff8c00; fill-opacity: 0.5; stroke: #000000; stroke-opacity: 0.5"/>
     <use xlink:href="#m7bbd071745" x="400.342233" y="304.823446" style="fill: #ff8c00; fill-opacity: 0.5; stroke: #000000; stroke-opacity: 0.5"/>
     <use xlink:href="#m7bbd071745" x="396.987113" y="567.931397" style="fill: #ff8c00; fill-opacity: 0.5; stroke: #000000; stroke-opacity: 0.5"/>
     <use xlink:href="#m7bbd071745" x="506.623663" y="410.066627" style="fill: #ff8c00; fill-opacity: 0.5; stroke: #000000; stroke-opacity: 0.5"/>
     <use xlink:href="#m7bbd071745" x="411.569871" y="410.066627" style="fill: #ff8c00; fill-opacity: 0.5; stroke: #000000; stroke-opacity: 0.5"/>
     <use xlink:href="#m7bbd071745" x="406.406549" y="290.741203" style="fill: #ff8c00; fill-opacity: 0.5; stroke: #000000; stroke-opacity: 0.5"/>
     <use xlink:href="#m7bbd071745" x="449.215025" y="383.755831" style="fill: #ff8c00; fill-opacity: 0.5; stroke: #000000; stroke-opacity: 0.5"/>
     <use xlink:href="#m7bbd071745" x="363.153159" y="357.445036" style="fill: #ff8c00; fill-opacity: 0.5; stroke: #000000; stroke-opacity: 0.5"/>
     <use xlink:href="#m7bbd071745" x="346.849633" y="348.674771" style="fill: #ff8c00; fill-opacity: 0.5; stroke: #000000; stroke-opacity: 0.5"/>
     <use xlink:href="#m7bbd071745" x="471.111372" y="339.904506" style="fill: #ff8c00; fill-opacity: 0.5; stroke: #000000; stroke-opacity: 0.5"/>
     <use xlink:href="#m7bbd071745" x="411.430984" y="374.985566" style="fill: #ff8c00; fill-opacity: 0.5; stroke: #000000; stroke-opacity: 0.5"/>
     <use xlink:href="#m7bbd071745" x="459.447792" y="576.701662" style="fill: #ff8c00; fill-opacity: 0.5; stroke: #000000; stroke-opacity: 0.5"/>
     <use xlink:href="#m7bbd071745" x="200.538988" y="471.458482" style="fill: #ff8c00; fill-opacity: 0.5; stroke: #000000; stroke-opacity: 0.5"/>
     <use xlink:href="#m7bbd071745" x="190.130089" y="436.377422" style="fill: #ff8c00; fill-opacity: 0.5; stroke: #000000; stroke-opacity: 0.5"/>
     <use xlink:href="#m7bbd071745" x="472.205067" y="331.134241" style="fill: #ff8c00; fill-opacity: 0.5; stroke: #000000; stroke-opacity: 0.5"/>
     <use xlink:href="#m7bbd071745" x="394.231203" y="567.931397" style="fill: #ff8c00; fill-opacity: 0.5; stroke: #000000; stroke-opacity: 0.5"/>
     <use xlink:href="#m7bbd071745" x="419.428725" y="521.836868" style="fill: #ff8c00; fill-opacity: 0.5; stroke: #000000; stroke-opacity: 0.5"/>
     <use xlink:href="#m7bbd071745" x="429.342489" y="374.985566" style="fill: #ff8c00; fill-opacity: 0.5; stroke: #000000; stroke-opacity: 0.5"/>
     <use xlink:href="#m7bbd071745" x="426.363664" y="348.674771" style="fill: #ff8c00; fill-opacity: 0.5; stroke: #000000; stroke-opacity: 0.5"/>
     <use xlink:href="#m7bbd071745" x="346.669147" y="410.066627" style="fill: #ff8c00; fill-opacity: 0.5; stroke: #000000; stroke-opacity: 0.5"/>
     <use xlink:href="#m7bbd071745" x="422.440351" y="427.415964" style="fill: #ff8c00; fill-opacity: 0.5; stroke: #000000; stroke-opacity: 0.5"/>
     <use xlink:href="#m7bbd071745" x="326.63958" y="304.823446" style="fill: #ff8c00; fill-opacity: 0.5; stroke: #000000; stroke-opacity: 0.5"/>
     <use xlink:href="#m7bbd071745" x="403.400345" y="313.593711" style="fill: #ff8c00; fill-opacity: 0.5; stroke: #000000; stroke-opacity: 0.5"/>
     <use xlink:href="#m7bbd071745" x="412.99973" y="269.742386" style="fill: #ff8c00; fill-opacity: 0.5; stroke: #000000; stroke-opacity: 0.5"/>
     <use xlink:href="#m7bbd071745" x="370.059853" y="543.908252" style="fill: #ff8c00; fill-opacity: 0.5; stroke: #000000; stroke-opacity: 0.5"/>
     <use xlink:href="#m7bbd071745" x="416.397415" y="354.937365" style="fill: #ff8c00; fill-opacity: 0.5; stroke: #000000; stroke-opacity: 0.5"/>
    </g>
   </g>
   <g id="PolyCollection_1">
    <path d="M 78.938101 376.328522 
L 78.938101 501.612086 
L 86.040495 498.472115 
L 93.142889 495.266681 
L 100.245283 492.02798 
L 107.347677 488.782448 
L 114.450071 485.536916 
L 121.552465 482.291384 
L 128.654859 479.045852 
L 135.757253 475.800321 
L 142.859647 472.548201 
L 149.962041 469.053383 
L 157.064435 465.537233 
L 164.166829 462.021083 
L 171.269224 458.785 
L 178.371618 455.745065 
L 185.474012 452.702364 
L 192.576406 449.46645 
L 199.6788 445.978852 
L 206.781194 442.828501 
L 213.883588 439.680659 
L 220.985982 436.276625 
L 228.088376 433.357896 
L 235.19077 430.346386 
L 242.293164 427.16797 
L 249.395558 424.31158 
L 256.497952 421.344249 
L 263.600346 418.333856 
L 270.702741 415.123319 
L 277.805135 411.944541 
L 284.907529 408.749892 
L 292.009923 405.548785 
L 299.112317 402.970412 
L 306.214711 399.96991 
L 313.317105 397.004795 
L 320.419499 394.353448 
L 327.521893 391.31655 
L 334.624287 388.960042 
L 341.726681 385.934913 
L 348.829075 382.905761 
L 355.931469 379.881842 
L 363.033863 377.505288 
L 370.136258 374.632991 
L 377.238652 372.030146 
L 384.341046 370.073867 
L 391.44344 367.85476 
L 398.545834 365.767301 
L 405.648228 363.926128 
L 412.750622 362.421229 
L 419.853016 360.756148 
L 426.95541 359.4989 
L 434.057804 358.04891 
L 441.160198 356.619298 
L 448.262592 355.432682 
L 455.364986 354.101388 
L 462.46738 352.798721 
L 469.569775 351.865045 
L 476.672169 350.800075 
L 483.774563 349.827232 
L 490.876957 348.84202 
L 497.979351 347.797501 
L 505.081745 346.689233 
L 512.184139 345.869241 
L 519.286533 345.020147 
L 526.388927 344.332324 
L 533.491321 343.096841 
L 540.593715 342.145839 
L 547.696109 341.034434 
L 554.798503 340.150744 
L 561.900897 339.374574 
L 569.003292 338.623802 
L 576.105686 337.773441 
L 583.20808 336.889799 
L 590.310474 336.277589 
L 597.412868 335.311292 
L 604.515262 334.455133 
L 611.617656 333.957555 
L 618.72005 333.229791 
L 625.822444 332.621101 
L 632.924838 332.012411 
L 640.027232 331.407036 
L 647.129626 330.842497 
L 654.23202 330.26924 
L 661.334414 329.695983 
L 668.436809 329.122726 
L 675.539203 328.538004 
L 682.641597 327.724756 
L 689.743991 327.095489 
L 696.846385 326.48325 
L 703.948779 325.871011 
L 711.051173 325.253097 
L 718.153567 324.631527 
L 725.255961 323.781018 
L 732.358355 322.93051 
L 739.460749 322.415873 
L 746.563143 321.972923 
L 753.665537 321.529973 
L 760.767931 320.956697 
L 767.870325 320.347667 
L 774.97272 319.738637 
L 782.075114 319.12443 
L 782.075114 174.279394 
L 782.075114 174.279394 
L 774.97272 177.583679 
L 767.870325 180.953712 
L 760.767931 184.250008 
L 753.665537 187.51173 
L 746.563143 190.777901 
L 739.460749 194.046798 
L 732.358355 197.222832 
L 725.255961 200.540019 
L 718.153567 203.843808 
L 711.051173 207.11059 
L 703.948779 210.377372 
L 696.846385 213.662737 
L 689.743991 217.015877 
L 682.641597 220.369017 
L 675.539203 223.554204 
L 668.436809 226.697786 
L 661.334414 229.955378 
L 654.23202 233.165104 
L 647.129626 236.149776 
L 640.027232 239.226936 
L 632.924838 241.997432 
L 625.822444 245.516191 
L 618.72005 249.045055 
L 611.617656 252.346405 
L 604.515262 254.980886 
L 597.412868 257.962895 
L 590.310474 261.147213 
L 583.20808 264.082399 
L 576.105686 266.891143 
L 569.003292 269.719248 
L 561.900897 272.887955 
L 554.798503 276.369766 
L 547.696109 280.047559 
L 540.593715 283.563898 
L 533.491321 286.286836 
L 526.388927 289.505927 
L 519.286533 292.916343 
L 512.184139 296.329461 
L 505.081745 299.741132 
L 497.979351 302.967396 
L 490.876957 305.704206 
L 483.774563 308.626491 
L 476.672169 311.616303 
L 469.569775 313.851312 
L 462.46738 316.766366 
L 455.364986 319.494684 
L 448.262592 321.818025 
L 441.160198 324.356361 
L 434.057804 326.752742 
L 426.95541 328.550396 
L 419.853016 330.317151 
L 412.750622 332.613759 
L 405.648228 334.637709 
L 398.545834 336.462948 
L 391.44344 337.888514 
L 384.341046 339.962467 
L 377.238652 341.410881 
L 370.136258 342.984164 
L 363.033863 344.197323 
L 355.931469 345.188548 
L 348.829075 346.700447 
L 341.726681 348.016126 
L 334.624287 348.976273 
L 327.521893 350.545654 
L 320.419499 351.546759 
L 313.317105 352.184082 
L 306.214711 353.502707 
L 299.112317 354.438357 
L 292.009923 355.154766 
L 284.907529 356.207717 
L 277.805135 357.240143 
L 270.702741 358.279576 
L 263.600346 359.325352 
L 256.497952 359.424025 
L 249.395558 360.302788 
L 242.293164 361.305946 
L 235.19077 361.520706 
L 228.088376 361.857581 
L 220.985982 362.809135 
L 213.883588 363.631141 
L 206.781194 364.492566 
L 199.6788 365.477049 
L 192.576406 365.805225 
L 185.474012 366.444455 
L 178.371618 367.650471 
L 171.269224 368.258746 
L 164.166829 368.5711 
L 157.064435 368.883454 
L 149.962041 369.272705 
L 142.859647 369.973753 
L 135.757253 370.681241 
L 128.654859 371.38873 
L 121.552465 372.096218 
L 114.450071 372.800767 
L 107.347677 373.496396 
L 100.245283 374.208692 
L 93.142889 374.93411 
L 86.040495 375.626215 
L 78.938101 376.328522 
z
" clip-path="url(#pa740d00bf3)" style="fill: #1f77b4; fill-opacity: 0.15"/>
   </g>
   <g id="PolyCollection_2">
    <path d="M 78.938101 396.017895 
L 78.938101 494.549961 
L 86.040495 492.726952 
L 93.142889 490.903943 
L 100.245283 488.806819 
L 107.347677 486.480044 
L 114.450071 484.153082 
L 121.552465 481.818422 
L 128.654859 479.48179 
L 135.757253 477.136495 
L 142.859647 475.097628 
L 149.962041 473.23013 
L 157.064435 470.941006 
L 164.166829 468.40799 
L 171.269224 466.469204 
L 178.371618 464.526601 
L 185.474012 462.583998 
L 192.576406 460.518512 
L 199.6788 458.218441 
L 206.781194 455.919463 
L 213.883588 453.622937 
L 220.985982 451.117178 
L 228.088376 448.708825 
L 235.19077 446.613782 
L 242.293164 444.578706 
L 249.395558 442.602553 
L 256.497952 440.595426 
L 263.600346 438.646888 
L 270.702741 436.540645 
L 277.805135 433.469528 
L 284.907529 431.459941 
L 292.009923 429.609368 
L 299.112317 427.494127 
L 306.214711 425.669373 
L 313.317105 424.000244 
L 320.419499 422.02763 
L 327.521893 420.286552 
L 334.624287 418.743603 
L 341.726681 417.378113 
L 348.829075 415.99415 
L 355.931469 414.40658 
L 363.033863 412.980586 
L 370.136258 411.559048 
L 377.238652 410.139564 
L 384.341046 408.769599 
L 391.44344 407.654023 
L 398.545834 406.95777 
L 405.648228 405.650007 
L 412.750622 404.515954 
L 419.853016 403.647645 
L 426.95541 402.647909 
L 434.057804 401.65204 
L 441.160198 400.656542 
L 448.262592 400.067926 
L 455.364986 399.334106 
L 462.46738 398.524479 
L 469.569775 397.852565 
L 476.672169 396.947769 
L 483.774563 396.392469 
L 490.876957 396.145578 
L 497.979351 395.58084 
L 505.081745 395.135876 
L 512.184139 394.778951 
L 519.286533 394.43514 
L 526.388927 394.061042 
L 533.491321 393.527074 
L 540.593715 393.215845 
L 547.696109 392.883863 
L 554.798503 392.495442 
L 561.900897 392.113241 
L 569.003292 391.974348 
L 576.105686 391.700913 
L 583.20808 391.366798 
L 590.310474 391.032682 
L 597.412868 390.718172 
L 604.515262 390.6124 
L 611.617656 390.503932 
L 618.72005 390.390529 
L 625.822444 390.277126 
L 632.924838 390.126694 
L 640.027232 389.671594 
L 647.129626 389.204021 
L 654.23202 388.948278 
L 661.334414 388.931132 
L 668.436809 388.909694 
L 675.539203 388.637759 
L 682.641597 388.227145 
L 689.743991 387.816531 
L 696.846385 387.447878 
L 703.948779 387.554092 
L 711.051173 387.660305 
L 718.153567 387.766519 
L 725.255961 387.728264 
L 732.358355 387.475691 
L 739.460749 387.219902 
L 746.563143 386.964113 
L 753.665537 386.708324 
L 760.767931 386.452534 
L 767.870325 386.196745 
L 774.97272 385.977655 
L 782.075114 385.935995 
L 782.075114 261.537852 
L 782.075114 261.537852 
L 774.97272 263.889686 
L 767.870325 266.107808 
L 760.767931 268.325929 
L 753.665537 270.549743 
L 746.563143 272.773934 
L 739.460749 275.09327 
L 732.358355 277.499656 
L 725.255961 279.906041 
L 718.153567 282.250823 
L 711.051173 284.36841 
L 703.948779 286.485996 
L 696.846385 288.603583 
L 689.743991 290.721169 
L 682.641597 292.838756 
L 675.539203 294.969837 
L 668.436809 297.186623 
L 661.334414 299.40341 
L 654.23202 301.624261 
L 647.129626 304.040834 
L 640.027232 306.614007 
L 632.924838 309.187181 
L 625.822444 311.760354 
L 618.72005 314.260979 
L 611.617656 316.443122 
L 604.515262 318.61901 
L 597.412868 320.70388 
L 590.310474 322.656226 
L 583.20808 324.675393 
L 576.105686 326.477321 
L 569.003292 328.333198 
L 561.900897 330.605272 
L 554.798503 332.697677 
L 547.696109 334.856573 
L 540.593715 336.695377 
L 533.491321 339.000129 
L 526.388927 341.23772 
L 519.286533 342.9945 
L 512.184139 344.733002 
L 505.081745 347.140512 
L 497.979351 349.124536 
L 490.876957 351.177086 
L 483.774563 352.884079 
L 476.672169 354.621929 
L 469.569775 356.62882 
L 462.46738 358.366292 
L 455.364986 360.073586 
L 448.262592 361.554409 
L 441.160198 362.949269 
L 434.057804 364.334869 
L 426.95541 365.632274 
L 419.853016 367.209979 
L 412.750622 368.760116 
L 405.648228 369.733493 
L 398.545834 370.877818 
L 391.44344 371.846861 
L 384.341046 372.847869 
L 377.238652 374.161709 
L 370.136258 375.384373 
L 363.033863 376.292877 
L 355.931469 377.270158 
L 348.829075 378.066126 
L 341.726681 378.998573 
L 334.624287 380.056603 
L 327.521893 381.104346 
L 320.419499 381.837475 
L 313.317105 382.826295 
L 306.214711 383.326945 
L 299.112317 383.576792 
L 292.009923 384.592976 
L 284.907529 385.479816 
L 277.805135 386.194162 
L 270.702741 386.632301 
L 263.600346 387.178261 
L 256.497952 387.638446 
L 249.395558 388.099363 
L 242.293164 388.508371 
L 235.19077 388.803137 
L 228.088376 389.371725 
L 220.985982 389.758131 
L 213.883588 390.097506 
L 206.781194 390.320874 
L 199.6788 390.938399 
L 192.576406 391.335748 
L 185.474012 391.697871 
L 178.371618 391.845076 
L 171.269224 392.033162 
L 164.166829 392.217127 
L 157.064435 392.435837 
L 149.962041 392.658612 
L 142.859647 392.896594 
L 135.757253 393.242127 
L 128.654859 393.74667 
L 121.552465 394.336822 
L 114.450071 394.931475 
L 107.347677 395.437713 
L 100.245283 395.708115 
L 93.142889 395.731463 
L 86.040495 395.764001 
L 78.938101 396.017895 
z
" clip-path="url(#pa740d00bf3)" style="fill: #ff7f0e; fill-opacity: 0.15"/>
   </g>
   <g id="matplotlib.axis_1">
    <g id="xtick_1">
     <g id="line2d_1">
      <defs>
       <path id="m71e7899174" d="M 0 0 
L 0 3.5 
" style="stroke: #000000; stroke-width: 0.8"/>
      </defs>
      <g>
       <use xlink:href="#m71e7899174" x="112.789865" y="642.866667" style="stroke: #000000; stroke-width: 0.8"/>
      </g>
     </g>
     <g id="text_1">
      <!-- 2.2 -->
      <g transform="translate(104.838303 657.465104) scale(0.1 -0.1)">
       <defs>
        <path id="DejaVuSans-32" d="M 1228 531 
L 3431 531 
L 3431 0 
L 469 0 
L 469 531 
Q 828 903 1448 1529 
Q 2069 2156 2228 2338 
Q 2531 2678 2651 2914 
Q 2772 3150 2772 3378 
Q 2772 3750 2511 3984 
Q 2250 4219 1831 4219 
Q 1534 4219 1204 4116 
Q 875 4013 500 3803 
L 500 4441 
Q 881 4594 1212 4672 
Q 1544 4750 1819 4750 
Q 2544 4750 2975 4387 
Q 3406 4025 3406 3419 
Q 3406 3131 3298 2873 
Q 3191 2616 2906 2266 
Q 2828 2175 2409 1742 
Q 1991 1309 1228 531 
z
" transform="scale(0.015625)"/>
        <path id="DejaVuSans-2e" d="M 684 794 
L 1344 794 
L 1344 0 
L 684 0 
L 684 794 
z
" transform="scale(0.015625)"/>
       </defs>
       <use xlink:href="#DejaVuSans-32"/>
       <use xlink:href="#DejaVuSans-2e" x="63.623047"/>
       <use xlink:href="#DejaVuSans-32" x="95.410156"/>
      </g>
     </g>
    </g>
    <g id="xtick_2">
     <g id="line2d_2">
      <g>
       <use xlink:href="#m71e7899174" x="219.581185" y="642.866667" style="stroke: #000000; stroke-width: 0.8"/>
      </g>
     </g>
     <g id="text_2">
      <!-- 2.3 -->
      <g transform="translate(211.629622 657.465104) scale(0.1 -0.1)">
       <defs>
        <path id="DejaVuSans-33" d="M 2597 2516 
Q 3050 2419 3304 2112 
Q 3559 1806 3559 1356 
Q 3559 666 3084 287 
Q 2609 -91 1734 -91 
Q 1441 -91 1130 -33 
Q 819 25 488 141 
L 488 750 
Q 750 597 1062 519 
Q 1375 441 1716 441 
Q 2309 441 2620 675 
Q 2931 909 2931 1356 
Q 2931 1769 2642 2001 
Q 2353 2234 1838 2234 
L 1294 2234 
L 1294 2753 
L 1863 2753 
Q 2328 2753 2575 2939 
Q 2822 3125 2822 3475 
Q 2822 3834 2567 4026 
Q 2313 4219 1838 4219 
Q 1578 4219 1281 4162 
Q 984 4106 628 3988 
L 628 4550 
Q 988 4650 1302 4700 
Q 1616 4750 1894 4750 
Q 2613 4750 3031 4423 
Q 3450 4097 3450 3541 
Q 3450 3153 3228 2886 
Q 3006 2619 2597 2516 
z
" transform="scale(0.015625)"/>
       </defs>
       <use xlink:href="#DejaVuSans-32"/>
       <use xlink:href="#DejaVuSans-2e" x="63.623047"/>
       <use xlink:href="#DejaVuSans-33" x="95.410156"/>
      </g>
     </g>
    </g>
    <g id="xtick_3">
     <g id="line2d_3">
      <g>
       <use xlink:href="#m71e7899174" x="326.372504" y="642.866667" style="stroke: #000000; stroke-width: 0.8"/>
      </g>
     </g>
     <g id="text_3">
      <!-- 2.4 -->
      <g transform="translate(318.420942 657.465104) scale(0.1 -0.1)">
       <defs>
        <path id="DejaVuSans-34" d="M 2419 4116 
L 825 1625 
L 2419 1625 
L 2419 4116 
z
M 2253 4666 
L 3047 4666 
L 3047 1625 
L 3713 1625 
L 3713 1100 
L 3047 1100 
L 3047 0 
L 2419 0 
L 2419 1100 
L 313 1100 
L 313 1709 
L 2253 4666 
z
" transform="scale(0.015625)"/>
       </defs>
       <use xlink:href="#DejaVuSans-32"/>
       <use xlink:href="#DejaVuSans-2e" x="63.623047"/>
       <use xlink:href="#DejaVuSans-34" x="95.410156"/>
      </g>
     </g>
    </g>
    <g id="xtick_4">
     <g id="line2d_4">
      <g>
       <use xlink:href="#m71e7899174" x="433.163824" y="642.866667" style="stroke: #000000; stroke-width: 0.8"/>
      </g>
     </g>
     <g id="text_4">
      <!-- 2.5 -->
      <g transform="translate(425.212261 657.465104) scale(0.1 -0.1)">
       <defs>
        <path id="DejaVuSans-35" d="M 691 4666 
L 3169 4666 
L 3169 4134 
L 1269 4134 
L 1269 2991 
Q 1406 3038 1543 3061 
Q 1681 3084 1819 3084 
Q 2600 3084 3056 2656 
Q 3513 2228 3513 1497 
Q 3513 744 3044 326 
Q 2575 -91 1722 -91 
Q 1428 -91 1123 -41 
Q 819 9 494 109 
L 494 744 
Q 775 591 1075 516 
Q 1375 441 1709 441 
Q 2250 441 2565 725 
Q 2881 1009 2881 1497 
Q 2881 1984 2565 2268 
Q 2250 2553 1709 2553 
Q 1456 2553 1204 2497 
Q 953 2441 691 2322 
L 691 4666 
z
" transform="scale(0.015625)"/>
       </defs>
       <use xlink:href="#DejaVuSans-32"/>
       <use xlink:href="#DejaVuSans-2e" x="63.623047"/>
       <use xlink:href="#DejaVuSans-35" x="95.410156"/>
      </g>
     </g>
    </g>
    <g id="xtick_5">
     <g id="line2d_5">
      <g>
       <use xlink:href="#m71e7899174" x="539.955143" y="642.866667" style="stroke: #000000; stroke-width: 0.8"/>
      </g>
     </g>
     <g id="text_5">
      <!-- 2.6 -->
      <g transform="translate(532.00358 657.465104) scale(0.1 -0.1)">
       <defs>
        <path id="DejaVuSans-36" d="M 2113 2584 
Q 1688 2584 1439 2293 
Q 1191 2003 1191 1497 
Q 1191 994 1439 701 
Q 1688 409 2113 409 
Q 2538 409 2786 701 
Q 3034 994 3034 1497 
Q 3034 2003 2786 2293 
Q 2538 2584 2113 2584 
z
M 3366 4563 
L 3366 3988 
Q 3128 4100 2886 4159 
Q 2644 4219 2406 4219 
Q 1781 4219 1451 3797 
Q 1122 3375 1075 2522 
Q 1259 2794 1537 2939 
Q 1816 3084 2150 3084 
Q 2853 3084 3261 2657 
Q 3669 2231 3669 1497 
Q 3669 778 3244 343 
Q 2819 -91 2113 -91 
Q 1303 -91 875 529 
Q 447 1150 447 2328 
Q 447 3434 972 4092 
Q 1497 4750 2381 4750 
Q 2619 4750 2861 4703 
Q 3103 4656 3366 4563 
z
" transform="scale(0.015625)"/>
       </defs>
       <use xlink:href="#DejaVuSans-32"/>
       <use xlink:href="#DejaVuSans-2e" x="63.623047"/>
       <use xlink:href="#DejaVuSans-36" x="95.410156"/>
      </g>
     </g>
    </g>
    <g id="xtick_6">
     <g id="line2d_6">
      <g>
       <use xlink:href="#m71e7899174" x="646.746462" y="642.866667" style="stroke: #000000; stroke-width: 0.8"/>
      </g>
     </g>
     <g id="text_6">
      <!-- 2.7 -->
      <g transform="translate(638.7949 657.465104) scale(0.1 -0.1)">
       <defs>
        <path id="DejaVuSans-37" d="M 525 4666 
L 3525 4666 
L 3525 4397 
L 1831 0 
L 1172 0 
L 2766 4134 
L 525 4134 
L 525 4666 
z
" transform="scale(0.015625)"/>
       </defs>
       <use xlink:href="#DejaVuSans-32"/>
       <use xlink:href="#DejaVuSans-2e" x="63.623047"/>
       <use xlink:href="#DejaVuSans-37" x="95.410156"/>
      </g>
     </g>
    </g>
    <g id="xtick_7">
     <g id="line2d_7">
      <g>
       <use xlink:href="#m71e7899174" x="753.537782" y="642.866667" style="stroke: #000000; stroke-width: 0.8"/>
      </g>
     </g>
     <g id="text_7">
      <!-- 2.8 -->
      <g transform="translate(745.586219 657.465104) scale(0.1 -0.1)">
       <defs>
        <path id="DejaVuSans-38" d="M 2034 2216 
Q 1584 2216 1326 1975 
Q 1069 1734 1069 1313 
Q 1069 891 1326 650 
Q 1584 409 2034 409 
Q 2484 409 2743 651 
Q 3003 894 3003 1313 
Q 3003 1734 2745 1975 
Q 2488 2216 2034 2216 
z
M 1403 2484 
Q 997 2584 770 2862 
Q 544 3141 544 3541 
Q 544 4100 942 4425 
Q 1341 4750 2034 4750 
Q 2731 4750 3128 4425 
Q 3525 4100 3525 3541 
Q 3525 3141 3298 2862 
Q 3072 2584 2669 2484 
Q 3125 2378 3379 2068 
Q 3634 1759 3634 1313 
Q 3634 634 3220 271 
Q 2806 -91 2034 -91 
Q 1263 -91 848 271 
Q 434 634 434 1313 
Q 434 1759 690 2068 
Q 947 2378 1403 2484 
z
M 1172 3481 
Q 1172 3119 1398 2916 
Q 1625 2713 2034 2713 
Q 2441 2713 2670 2916 
Q 2900 3119 2900 3481 
Q 2900 3844 2670 4047 
Q 2441 4250 2034 4250 
Q 1625 4250 1398 4047 
Q 1172 3844 1172 3481 
z
" transform="scale(0.015625)"/>
       </defs>
       <use xlink:href="#DejaVuSans-32"/>
       <use xlink:href="#DejaVuSans-2e" x="63.623047"/>
       <use xlink:href="#DejaVuSans-38" x="95.410156"/>
      </g>
     </g>
    </g>
    <g id="text_8">
     <!-- Protein log10-length -->
     <g transform="translate(379.666763 671.143229) scale(0.1 -0.1)">
      <defs>
       <path id="DejaVuSans-50" d="M 1259 4147 
L 1259 2394 
L 2053 2394 
Q 2494 2394 2734 2622 
Q 2975 2850 2975 3272 
Q 2975 3691 2734 3919 
Q 2494 4147 2053 4147 
L 1259 4147 
z
M 628 4666 
L 2053 4666 
Q 2838 4666 3239 4311 
Q 3641 3956 3641 3272 
Q 3641 2581 3239 2228 
Q 2838 1875 2053 1875 
L 1259 1875 
L 1259 0 
L 628 0 
L 628 4666 
z
" transform="scale(0.015625)"/>
       <path id="DejaVuSans-72" d="M 2631 2963 
Q 2534 3019 2420 3045 
Q 2306 3072 2169 3072 
Q 1681 3072 1420 2755 
Q 1159 2438 1159 1844 
L 1159 0 
L 581 0 
L 581 3500 
L 1159 3500 
L 1159 2956 
Q 1341 3275 1631 3429 
Q 1922 3584 2338 3584 
Q 2397 3584 2469 3576 
Q 2541 3569 2628 3553 
L 2631 2963 
z
" transform="scale(0.015625)"/>
       <path id="DejaVuSans-6f" d="M 1959 3097 
Q 1497 3097 1228 2736 
Q 959 2375 959 1747 
Q 959 1119 1226 758 
Q 1494 397 1959 397 
Q 2419 397 2687 759 
Q 2956 1122 2956 1747 
Q 2956 2369 2687 2733 
Q 2419 3097 1959 3097 
z
M 1959 3584 
Q 2709 3584 3137 3096 
Q 3566 2609 3566 1747 
Q 3566 888 3137 398 
Q 2709 -91 1959 -91 
Q 1206 -91 779 398 
Q 353 888 353 1747 
Q 353 2609 779 3096 
Q 1206 3584 1959 3584 
z
" transform="scale(0.015625)"/>
       <path id="DejaVuSans-74" d="M 1172 4494 
L 1172 3500 
L 2356 3500 
L 2356 3053 
L 1172 3053 
L 1172 1153 
Q 1172 725 1289 603 
Q 1406 481 1766 481 
L 2356 481 
L 2356 0 
L 1766 0 
Q 1100 0 847 248 
Q 594 497 594 1153 
L 594 3053 
L 172 3053 
L 172 3500 
L 594 3500 
L 594 4494 
L 1172 4494 
z
" transform="scale(0.015625)"/>
       <path id="DejaVuSans-65" d="M 3597 1894 
L 3597 1613 
L 953 1613 
Q 991 1019 1311 708 
Q 1631 397 2203 397 
Q 2534 397 2845 478 
Q 3156 559 3463 722 
L 3463 178 
Q 3153 47 2828 -22 
Q 2503 -91 2169 -91 
Q 1331 -91 842 396 
Q 353 884 353 1716 
Q 353 2575 817 3079 
Q 1281 3584 2069 3584 
Q 2775 3584 3186 3129 
Q 3597 2675 3597 1894 
z
M 3022 2063 
Q 3016 2534 2758 2815 
Q 2500 3097 2075 3097 
Q 1594 3097 1305 2825 
Q 1016 2553 972 2059 
L 3022 2063 
z
" transform="scale(0.015625)"/>
       <path id="DejaVuSans-69" d="M 603 3500 
L 1178 3500 
L 1178 0 
L 603 0 
L 603 3500 
z
M 603 4863 
L 1178 4863 
L 1178 4134 
L 603 4134 
L 603 4863 
z
" transform="scale(0.015625)"/>
       <path id="DejaVuSans-6e" d="M 3513 2113 
L 3513 0 
L 2938 0 
L 2938 2094 
Q 2938 2591 2744 2837 
Q 2550 3084 2163 3084 
Q 1697 3084 1428 2787 
Q 1159 2491 1159 1978 
L 1159 0 
L 581 0 
L 581 3500 
L 1159 3500 
L 1159 2956 
Q 1366 3272 1645 3428 
Q 1925 3584 2291 3584 
Q 2894 3584 3203 3211 
Q 3513 2838 3513 2113 
z
" transform="scale(0.015625)"/>
       <path id="DejaVuSans-20" transform="scale(0.015625)"/>
       <path id="DejaVuSans-6c" d="M 603 4863 
L 1178 4863 
L 1178 0 
L 603 0 
L 603 4863 
z
" transform="scale(0.015625)"/>
       <path id="DejaVuSans-67" d="M 2906 1791 
Q 2906 2416 2648 2759 
Q 2391 3103 1925 3103 
Q 1463 3103 1205 2759 
Q 947 2416 947 1791 
Q 947 1169 1205 825 
Q 1463 481 1925 481 
Q 2391 481 2648 825 
Q 2906 1169 2906 1791 
z
M 3481 434 
Q 3481 -459 3084 -895 
Q 2688 -1331 1869 -1331 
Q 1566 -1331 1297 -1286 
Q 1028 -1241 775 -1147 
L 775 -588 
Q 1028 -725 1275 -790 
Q 1522 -856 1778 -856 
Q 2344 -856 2625 -561 
Q 2906 -266 2906 331 
L 2906 616 
Q 2728 306 2450 153 
Q 2172 0 1784 0 
Q 1141 0 747 490 
Q 353 981 353 1791 
Q 353 2603 747 3093 
Q 1141 3584 1784 3584 
Q 2172 3584 2450 3431 
Q 2728 3278 2906 2969 
L 2906 3500 
L 3481 3500 
L 3481 434 
z
" transform="scale(0.015625)"/>
       <path id="DejaVuSans-31" d="M 794 531 
L 1825 531 
L 1825 4091 
L 703 3866 
L 703 4441 
L 1819 4666 
L 2450 4666 
L 2450 531 
L 3481 531 
L 3481 0 
L 794 0 
L 794 531 
z
" transform="scale(0.015625)"/>
       <path id="DejaVuSans-30" d="M 2034 4250 
Q 1547 4250 1301 3770 
Q 1056 3291 1056 2328 
Q 1056 1369 1301 889 
Q 1547 409 2034 409 
Q 2525 409 2770 889 
Q 3016 1369 3016 2328 
Q 3016 3291 2770 3770 
Q 2525 4250 2034 4250 
z
M 2034 4750 
Q 2819 4750 3233 4129 
Q 3647 3509 3647 2328 
Q 3647 1150 3233 529 
Q 2819 -91 2034 -91 
Q 1250 -91 836 529 
Q 422 1150 422 2328 
Q 422 3509 836 4129 
Q 1250 4750 2034 4750 
z
" transform="scale(0.015625)"/>
       <path id="DejaVuSans-2d" d="M 313 2009 
L 1997 2009 
L 1997 1497 
L 313 1497 
L 313 2009 
z
" transform="scale(0.015625)"/>
       <path id="DejaVuSans-68" d="M 3513 2113 
L 3513 0 
L 2938 0 
L 2938 2094 
Q 2938 2591 2744 2837 
Q 2550 3084 2163 3084 
Q 1697 3084 1428 2787 
Q 1159 2491 1159 1978 
L 1159 0 
L 581 0 
L 581 4863 
L 1159 4863 
L 1159 2956 
Q 1366 3272 1645 3428 
Q 1925 3584 2291 3584 
Q 2894 3584 3203 3211 
Q 3513 2838 3513 2113 
z
" transform="scale(0.015625)"/>
      </defs>
      <use xlink:href="#DejaVuSans-50"/>
      <use xlink:href="#DejaVuSans-72" x="58.552734"/>
      <use xlink:href="#DejaVuSans-6f" x="97.416016"/>
      <use xlink:href="#DejaVuSans-74" x="158.597656"/>
      <use xlink:href="#DejaVuSans-65" x="197.806641"/>
      <use xlink:href="#DejaVuSans-69" x="259.330078"/>
      <use xlink:href="#DejaVuSans-6e" x="287.113281"/>
      <use xlink:href="#DejaVuSans-20" x="350.492188"/>
      <use xlink:href="#DejaVuSans-6c" x="382.279297"/>
      <use xlink:href="#DejaVuSans-6f" x="410.0625"/>
      <use xlink:href="#DejaVuSans-67" x="471.244141"/>
      <use xlink:href="#DejaVuSans-31" x="534.720703"/>
      <use xlink:href="#DejaVuSans-30" x="598.34375"/>
      <use xlink:href="#DejaVuSans-2d" x="661.966797"/>
      <use xlink:href="#DejaVuSans-6c" x="698.050781"/>
      <use xlink:href="#DejaVuSans-65" x="725.833984"/>
      <use xlink:href="#DejaVuSans-6e" x="787.357422"/>
      <use xlink:href="#DejaVuSans-67" x="850.736328"/>
      <use xlink:href="#DejaVuSans-74" x="914.212891"/>
      <use xlink:href="#DejaVuSans-68" x="953.421875"/>
     </g>
    </g>
   </g>
   <g id="matplotlib.axis_2">
    <g id="ytick_1">
     <g id="line2d_8">
      <defs>
       <path id="m116a2d1eb6" d="M 0 0 
L -3.5 0 
" style="stroke: #000000; stroke-width: 0.8"/>
      </defs>
      <g>
       <use xlink:href="#m116a2d1eb6" x="43.78125" y="642.47865" style="stroke: #000000; stroke-width: 0.8"/>
      </g>
     </g>
     <g id="text_9">
      <!-- 0.0 -->
      <g transform="translate(20.878125 646.277868) scale(0.1 -0.1)">
       <use xlink:href="#DejaVuSans-30"/>
       <use xlink:href="#DejaVuSans-2e" x="63.623047"/>
       <use xlink:href="#DejaVuSans-30" x="95.410156"/>
      </g>
     </g>
    </g>
    <g id="ytick_2">
     <g id="line2d_9">
      <g>
       <use xlink:href="#m116a2d1eb6" x="43.78125" y="564.835795" style="stroke: #000000; stroke-width: 0.8"/>
      </g>
     </g>
     <g id="text_10">
      <!-- 0.1 -->
      <g transform="translate(20.878125 568.635014) scale(0.1 -0.1)">
       <use xlink:href="#DejaVuSans-30"/>
       <use xlink:href="#DejaVuSans-2e" x="63.623047"/>
       <use xlink:href="#DejaVuSans-31" x="95.410156"/>
      </g>
     </g>
    </g>
    <g id="ytick_3">
     <g id="line2d_10">
      <g>
       <use xlink:href="#m116a2d1eb6" x="43.78125" y="487.19294" style="stroke: #000000; stroke-width: 0.8"/>
      </g>
     </g>
     <g id="text_11">
      <!-- 0.2 -->
      <g transform="translate(20.878125 490.992159) scale(0.1 -0.1)">
       <use xlink:href="#DejaVuSans-30"/>
       <use xlink:href="#DejaVuSans-2e" x="63.623047"/>
       <use xlink:href="#DejaVuSans-32" x="95.410156"/>
      </g>
     </g>
    </g>
    <g id="ytick_4">
     <g id="line2d_11">
      <g>
       <use xlink:href="#m116a2d1eb6" x="43.78125" y="409.550086" style="stroke: #000000; stroke-width: 0.8"/>
      </g>
     </g>
     <g id="text_12">
      <!-- 0.3 -->
      <g transform="translate(20.878125 413.349305) scale(0.1 -0.1)">
       <use xlink:href="#DejaVuSans-30"/>
       <use xlink:href="#DejaVuSans-2e" x="63.623047"/>
       <use xlink:href="#DejaVuSans-33" x="95.410156"/>
      </g>
     </g>
    </g>
    <g id="ytick_5">
     <g id="line2d_12">
      <g>
       <use xlink:href="#m116a2d1eb6" x="43.78125" y="331.907231" style="stroke: #000000; stroke-width: 0.8"/>
      </g>
     </g>
     <g id="text_13">
      <!-- 0.4 -->
      <g transform="translate(20.878125 335.70645) scale(0.1 -0.1)">
       <use xlink:href="#DejaVuSans-30"/>
       <use xlink:href="#DejaVuSans-2e" x="63.623047"/>
       <use xlink:href="#DejaVuSans-34" x="95.410156"/>
      </g>
     </g>
    </g>
    <g id="ytick_6">
     <g id="line2d_13">
      <g>
       <use xlink:href="#m116a2d1eb6" x="43.78125" y="254.264377" style="stroke: #000000; stroke-width: 0.8"/>
      </g>
     </g>
     <g id="text_14">
      <!-- 0.5 -->
      <g transform="translate(20.878125 258.063595) scale(0.1 -0.1)">
       <use xlink:href="#DejaVuSans-30"/>
       <use xlink:href="#DejaVuSans-2e" x="63.623047"/>
       <use xlink:href="#DejaVuSans-35" x="95.410156"/>
      </g>
     </g>
    </g>
    <g id="ytick_7">
     <g id="line2d_14">
      <g>
       <use xlink:href="#m116a2d1eb6" x="43.78125" y="176.621522" style="stroke: #000000; stroke-width: 0.8"/>
      </g>
     </g>
     <g id="text_15">
      <!-- 0.6 -->
      <g transform="translate(20.878125 180.420741) scale(0.1 -0.1)">
       <use xlink:href="#DejaVuSans-30"/>
       <use xlink:href="#DejaVuSans-2e" x="63.623047"/>
       <use xlink:href="#DejaVuSans-36" x="95.410156"/>
      </g>
     </g>
    </g>
    <g id="text_16">
     <!-- Correlation coefficient -->
     <g transform="translate(14.798438 452.712284) rotate(-90) scale(0.1 -0.1)">
      <defs>
       <path id="DejaVuSans-43" d="M 4122 4306 
L 4122 3641 
Q 3803 3938 3442 4084 
Q 3081 4231 2675 4231 
Q 1875 4231 1450 3742 
Q 1025 3253 1025 2328 
Q 1025 1406 1450 917 
Q 1875 428 2675 428 
Q 3081 428 3442 575 
Q 3803 722 4122 1019 
L 4122 359 
Q 3791 134 3420 21 
Q 3050 -91 2638 -91 
Q 1578 -91 968 557 
Q 359 1206 359 2328 
Q 359 3453 968 4101 
Q 1578 4750 2638 4750 
Q 3056 4750 3426 4639 
Q 3797 4528 4122 4306 
z
" transform="scale(0.015625)"/>
       <path id="DejaVuSans-61" d="M 2194 1759 
Q 1497 1759 1228 1600 
Q 959 1441 959 1056 
Q 959 750 1161 570 
Q 1363 391 1709 391 
Q 2188 391 2477 730 
Q 2766 1069 2766 1631 
L 2766 1759 
L 2194 1759 
z
M 3341 1997 
L 3341 0 
L 2766 0 
L 2766 531 
Q 2569 213 2275 61 
Q 1981 -91 1556 -91 
Q 1019 -91 701 211 
Q 384 513 384 1019 
Q 384 1609 779 1909 
Q 1175 2209 1959 2209 
L 2766 2209 
L 2766 2266 
Q 2766 2663 2505 2880 
Q 2244 3097 1772 3097 
Q 1472 3097 1187 3025 
Q 903 2953 641 2809 
L 641 3341 
Q 956 3463 1253 3523 
Q 1550 3584 1831 3584 
Q 2591 3584 2966 3190 
Q 3341 2797 3341 1997 
z
" transform="scale(0.015625)"/>
       <path id="DejaVuSans-63" d="M 3122 3366 
L 3122 2828 
Q 2878 2963 2633 3030 
Q 2388 3097 2138 3097 
Q 1578 3097 1268 2742 
Q 959 2388 959 1747 
Q 959 1106 1268 751 
Q 1578 397 2138 397 
Q 2388 397 2633 464 
Q 2878 531 3122 666 
L 3122 134 
Q 2881 22 2623 -34 
Q 2366 -91 2075 -91 
Q 1284 -91 818 406 
Q 353 903 353 1747 
Q 353 2603 823 3093 
Q 1294 3584 2113 3584 
Q 2378 3584 2631 3529 
Q 2884 3475 3122 3366 
z
" transform="scale(0.015625)"/>
       <path id="DejaVuSans-66" d="M 2375 4863 
L 2375 4384 
L 1825 4384 
Q 1516 4384 1395 4259 
Q 1275 4134 1275 3809 
L 1275 3500 
L 2222 3500 
L 2222 3053 
L 1275 3053 
L 1275 0 
L 697 0 
L 697 3053 
L 147 3053 
L 147 3500 
L 697 3500 
L 697 3744 
Q 697 4328 969 4595 
Q 1241 4863 1831 4863 
L 2375 4863 
z
" transform="scale(0.015625)"/>
      </defs>
      <use xlink:href="#DejaVuSans-43"/>
      <use xlink:href="#DejaVuSans-6f" x="69.824219"/>
      <use xlink:href="#DejaVuSans-72" x="131.005859"/>
      <use xlink:href="#DejaVuSans-72" x="170.369141"/>
      <use xlink:href="#DejaVuSans-65" x="209.232422"/>
      <use xlink:href="#DejaVuSans-6c" x="270.755859"/>
      <use xlink:href="#DejaVuSans-61" x="298.539062"/>
      <use xlink:href="#DejaVuSans-74" x="359.818359"/>
      <use xlink:href="#DejaVuSans-69" x="399.027344"/>
      <use xlink:href="#DejaVuSans-6f" x="426.810547"/>
      <use xlink:href="#DejaVuSans-6e" x="487.992188"/>
      <use xlink:href="#DejaVuSans-20" x="551.371094"/>
      <use xlink:href="#DejaVuSans-63" x="583.158203"/>
      <use xlink:href="#DejaVuSans-6f" x="638.138672"/>
      <use xlink:href="#DejaVuSans-65" x="699.320312"/>
      <use xlink:href="#DejaVuSans-66" x="760.84375"/>
      <use xlink:href="#DejaVuSans-66" x="796.048828"/>
      <use xlink:href="#DejaVuSans-69" x="831.253906"/>
      <use xlink:href="#DejaVuSans-63" x="859.037109"/>
      <use xlink:href="#DejaVuSans-69" x="914.017578"/>
      <use xlink:href="#DejaVuSans-65" x="941.800781"/>
      <use xlink:href="#DejaVuSans-6e" x="1003.324219"/>
      <use xlink:href="#DejaVuSans-74" x="1066.703125"/>
     </g>
    </g>
   </g>
   <g id="line2d_15">
    <path d="M 78.938101 430.890851 
L 86.040495 429.121907 
L 93.142889 427.352962 
L 100.245283 425.584017 
L 107.347677 423.815072 
L 114.450071 422.046127 
L 121.552465 420.277182 
L 128.654859 418.508237 
L 135.757253 416.739292 
L 142.859647 414.970347 
L 149.962041 413.201402 
L 157.064435 411.432457 
L 164.166829 409.663512 
L 171.269224 407.894567 
L 178.371618 406.125622 
L 185.474012 404.356677 
L 192.576406 402.587732 
L 199.6788 400.818788 
L 206.781194 399.049843 
L 213.883588 397.280898 
L 220.985982 395.511953 
L 228.088376 393.743008 
L 235.19077 391.974063 
L 242.293164 390.205118 
L 249.395558 388.436173 
L 256.497952 386.667228 
L 263.600346 384.898283 
L 270.702741 383.129338 
L 277.805135 381.360393 
L 284.907529 379.591448 
L 292.009923 377.822503 
L 299.112317 376.053558 
L 306.214711 374.284613 
L 313.317105 372.515668 
L 320.419499 370.746724 
L 327.521893 368.977779 
L 334.624287 367.208834 
L 341.726681 365.439889 
L 348.829075 363.670944 
L 355.931469 361.901999 
L 363.033863 360.133054 
L 370.136258 358.364109 
L 377.238652 356.595164 
L 384.341046 354.826219 
L 391.44344 353.057274 
L 398.545834 351.288329 
L 405.648228 349.519384 
L 412.750622 347.750439 
L 419.853016 345.981494 
L 426.95541 344.212549 
L 434.057804 342.443605 
L 441.160198 340.67466 
L 448.262592 338.905715 
L 455.364986 337.13677 
L 462.46738 335.367825 
L 469.569775 333.59888 
L 476.672169 331.829935 
L 483.774563 330.06099 
L 490.876957 328.292045 
L 497.979351 326.5231 
L 505.081745 324.754155 
L 512.184139 322.98521 
L 519.286533 321.216265 
L 526.388927 319.44732 
L 533.491321 317.678375 
L 540.593715 315.90943 
L 547.696109 314.140485 
L 554.798503 312.371541 
L 561.900897 310.602596 
L 569.003292 308.833651 
L 576.105686 307.064706 
L 583.20808 305.295761 
L 590.310474 303.526816 
L 597.412868 301.757871 
L 604.515262 299.988926 
L 611.617656 298.219981 
L 618.72005 296.451036 
L 625.822444 294.682091 
L 632.924838 292.913146 
L 640.027232 291.144201 
L 647.129626 289.375256 
L 654.23202 287.606311 
L 661.334414 285.837366 
L 668.436809 284.068422 
L 675.539203 282.299477 
L 682.641597 280.530532 
L 689.743991 278.761587 
L 696.846385 276.992642 
L 703.948779 275.223697 
L 711.051173 273.454752 
L 718.153567 271.685807 
L 725.255961 269.916862 
L 732.358355 268.147917 
L 739.460749 266.378972 
L 746.563143 264.610027 
L 753.665537 262.841082 
L 760.767931 261.072137 
L 767.870325 259.303192 
L 774.97272 257.534247 
L 782.075114 255.765302 
" clip-path="url(#pa740d00bf3)" style="fill: none; stroke: #1f77b4; stroke-width: 2.25; stroke-linecap: square"/>
   </g>
   <g id="line2d_16">
    <path d="M 78.938101 440.225369 
L 86.040495 439.077864 
L 93.142889 437.930358 
L 100.245283 436.782852 
L 107.347677 435.635346 
L 114.450071 434.487841 
L 121.552465 433.340335 
L 128.654859 432.192829 
L 135.757253 431.045323 
L 142.859647 429.897817 
L 149.962041 428.750312 
L 157.064435 427.602806 
L 164.166829 426.4553 
L 171.269224 425.307794 
L 178.371618 424.160289 
L 185.474012 423.012783 
L 192.576406 421.865277 
L 199.6788 420.717771 
L 206.781194 419.570265 
L 213.883588 418.42276 
L 220.985982 417.275254 
L 228.088376 416.127748 
L 235.19077 414.980242 
L 242.293164 413.832737 
L 249.395558 412.685231 
L 256.497952 411.537725 
L 263.600346 410.390219 
L 270.702741 409.242713 
L 277.805135 408.095208 
L 284.907529 406.947702 
L 292.009923 405.800196 
L 299.112317 404.65269 
L 306.214711 403.505184 
L 313.317105 402.357679 
L 320.419499 401.210173 
L 327.521893 400.062667 
L 334.624287 398.915161 
L 341.726681 397.767656 
L 348.829075 396.62015 
L 355.931469 395.472644 
L 363.033863 394.325138 
L 370.136258 393.177632 
L 377.238652 392.030127 
L 384.341046 390.882621 
L 391.44344 389.735115 
L 398.545834 388.587609 
L 405.648228 387.440104 
L 412.750622 386.292598 
L 419.853016 385.145092 
L 426.95541 383.997586 
L 434.057804 382.85008 
L 441.160198 381.702575 
L 448.262592 380.555069 
L 455.364986 379.407563 
L 462.46738 378.260057 
L 469.569775 377.112552 
L 476.672169 375.965046 
L 483.774563 374.81754 
L 490.876957 373.670034 
L 497.979351 372.522528 
L 505.081745 371.375023 
L 512.184139 370.227517 
L 519.286533 369.080011 
L 526.388927 367.932505 
L 533.491321 366.784999 
L 540.593715 365.637494 
L 547.696109 364.489988 
L 554.798503 363.342482 
L 561.900897 362.194976 
L 569.003292 361.047471 
L 576.105686 359.899965 
L 583.20808 358.752459 
L 590.310474 357.604953 
L 597.412868 356.457447 
L 604.515262 355.309942 
L 611.617656 354.162436 
L 618.72005 353.01493 
L 625.822444 351.867424 
L 632.924838 350.719919 
L 640.027232 349.572413 
L 647.129626 348.424907 
L 654.23202 347.277401 
L 661.334414 346.129895 
L 668.436809 344.98239 
L 675.539203 343.834884 
L 682.641597 342.687378 
L 689.743991 341.539872 
L 696.846385 340.392367 
L 703.948779 339.244861 
L 711.051173 338.097355 
L 718.153567 336.949849 
L 725.255961 335.802343 
L 732.358355 334.654838 
L 739.460749 333.507332 
L 746.563143 332.359826 
L 753.665537 331.21232 
L 760.767931 330.064814 
L 767.870325 328.917309 
L 774.97272 327.769803 
L 782.075114 326.622297 
" clip-path="url(#pa740d00bf3)" style="fill: none; stroke: #ff7f0e; stroke-width: 2.25; stroke-linecap: square"/>
   </g>
   <g id="patch_3">
    <path d="M 43.78125 642.866667 
L 43.78125 151.965714 
" style="fill: none; stroke: #000000; stroke-width: 0.8; stroke-linejoin: miter; stroke-linecap: square"/>
   </g>
   <g id="patch_4">
    <path d="M 43.78125 642.866667 
L 817.231964 642.866667 
" style="fill: none; stroke: #000000; stroke-width: 0.8; stroke-linejoin: miter; stroke-linecap: square"/>
   </g>
   <g id="legend_1">
    <g id="patch_5">
     <path d="M 704.119464 637.866667 
L 810.231964 637.866667 
Q 812.231964 637.866667 812.231964 635.866667 
L 812.231964 607.510417 
Q 812.231964 605.510417 810.231964 605.510417 
L 704.119464 605.510417 
Q 702.119464 605.510417 702.119464 607.510417 
L 702.119464 635.866667 
Q 702.119464 637.866667 704.119464 637.866667 
z
" style="fill: #ffffff; opacity: 0.8; stroke: #cccccc; stroke-linejoin: miter"/>
    </g>
    <g id="PathCollection_3">
     <g>
      <use xlink:href="#me34a31b1be" x="716.119464" y="614.483854" style="fill: #4169e1; fill-opacity: 0.5; stroke: #000000; stroke-opacity: 0.5"/>
     </g>
    </g>
    <g id="text_17">
     <!-- Codon number -->
     <g transform="translate(734.119464 617.108854) scale(0.1 -0.1)">
      <defs>
       <path id="DejaVuSans-64" d="M 2906 2969 
L 2906 4863 
L 3481 4863 
L 3481 0 
L 2906 0 
L 2906 525 
Q 2725 213 2448 61 
Q 2172 -91 1784 -91 
Q 1150 -91 751 415 
Q 353 922 353 1747 
Q 353 2572 751 3078 
Q 1150 3584 1784 3584 
Q 2172 3584 2448 3432 
Q 2725 3281 2906 2969 
z
M 947 1747 
Q 947 1113 1208 752 
Q 1469 391 1925 391 
Q 2381 391 2643 752 
Q 2906 1113 2906 1747 
Q 2906 2381 2643 2742 
Q 2381 3103 1925 3103 
Q 1469 3103 1208 2742 
Q 947 2381 947 1747 
z
" transform="scale(0.015625)"/>
       <path id="DejaVuSans-75" d="M 544 1381 
L 544 3500 
L 1119 3500 
L 1119 1403 
Q 1119 906 1312 657 
Q 1506 409 1894 409 
Q 2359 409 2629 706 
Q 2900 1003 2900 1516 
L 2900 3500 
L 3475 3500 
L 3475 0 
L 2900 0 
L 2900 538 
Q 2691 219 2414 64 
Q 2138 -91 1772 -91 
Q 1169 -91 856 284 
Q 544 659 544 1381 
z
M 1991 3584 
L 1991 3584 
z
" transform="scale(0.015625)"/>
       <path id="DejaVuSans-6d" d="M 3328 2828 
Q 3544 3216 3844 3400 
Q 4144 3584 4550 3584 
Q 5097 3584 5394 3201 
Q 5691 2819 5691 2113 
L 5691 0 
L 5113 0 
L 5113 2094 
Q 5113 2597 4934 2840 
Q 4756 3084 4391 3084 
Q 3944 3084 3684 2787 
Q 3425 2491 3425 1978 
L 3425 0 
L 2847 0 
L 2847 2094 
Q 2847 2600 2669 2842 
Q 2491 3084 2119 3084 
Q 1678 3084 1418 2786 
Q 1159 2488 1159 1978 
L 1159 0 
L 581 0 
L 581 3500 
L 1159 3500 
L 1159 2956 
Q 1356 3278 1631 3431 
Q 1906 3584 2284 3584 
Q 2666 3584 2933 3390 
Q 3200 3197 3328 2828 
z
" transform="scale(0.015625)"/>
       <path id="DejaVuSans-62" d="M 3116 1747 
Q 3116 2381 2855 2742 
Q 2594 3103 2138 3103 
Q 1681 3103 1420 2742 
Q 1159 2381 1159 1747 
Q 1159 1113 1420 752 
Q 1681 391 2138 391 
Q 2594 391 2855 752 
Q 3116 1113 3116 1747 
z
M 1159 2969 
Q 1341 3281 1617 3432 
Q 1894 3584 2278 3584 
Q 2916 3584 3314 3078 
Q 3713 2572 3713 1747 
Q 3713 922 3314 415 
Q 2916 -91 2278 -91 
Q 1894 -91 1617 61 
Q 1341 213 1159 525 
L 1159 0 
L 581 0 
L 581 4863 
L 1159 4863 
L 1159 2969 
z
" transform="scale(0.015625)"/>
      </defs>
      <use xlink:href="#DejaVuSans-43"/>
      <use xlink:href="#DejaVuSans-6f" x="69.824219"/>
      <use xlink:href="#DejaVuSans-64" x="131.005859"/>
      <use xlink:href="#DejaVuSans-6f" x="194.482422"/>
      <use xlink:href="#DejaVuSans-6e" x="255.664062"/>
      <use xlink:href="#DejaVuSans-20" x="319.042969"/>
      <use xlink:href="#DejaVuSans-6e" x="350.830078"/>
      <use xlink:href="#DejaVuSans-75" x="414.208984"/>
      <use xlink:href="#DejaVuSans-6d" x="477.587891"/>
      <use xlink:href="#DejaVuSans-62" x="575"/>
      <use xlink:href="#DejaVuSans-65" x="638.476562"/>
      <use xlink:href="#DejaVuSans-72" x="700"/>
     </g>
    </g>
    <g id="PathCollection_4">
     <g>
      <use xlink:href="#m7bbd071745" x="716.119464" y="629.161979" style="fill: #ff8c00; fill-opacity: 0.5; stroke: #000000; stroke-opacity: 0.5"/>
     </g>
    </g>
    <g id="text_18">
     <!-- Codon+GC -->
     <g transform="translate(734.119464 631.786979) scale(0.1 -0.1)">
      <defs>
       <path id="DejaVuSans-2b" d="M 2944 4013 
L 2944 2272 
L 4684 2272 
L 4684 1741 
L 2944 1741 
L 2944 0 
L 2419 0 
L 2419 1741 
L 678 1741 
L 678 2272 
L 2419 2272 
L 2419 4013 
L 2944 4013 
z
" transform="scale(0.015625)"/>
       <path id="DejaVuSans-47" d="M 3809 666 
L 3809 1919 
L 2778 1919 
L 2778 2438 
L 4434 2438 
L 4434 434 
Q 4069 175 3628 42 
Q 3188 -91 2688 -91 
Q 1594 -91 976 548 
Q 359 1188 359 2328 
Q 359 3472 976 4111 
Q 1594 4750 2688 4750 
Q 3144 4750 3555 4637 
Q 3966 4525 4313 4306 
L 4313 3634 
Q 3963 3931 3569 4081 
Q 3175 4231 2741 4231 
Q 1884 4231 1454 3753 
Q 1025 3275 1025 2328 
Q 1025 1384 1454 906 
Q 1884 428 2741 428 
Q 3075 428 3337 486 
Q 3600 544 3809 666 
z
" transform="scale(0.015625)"/>
      </defs>
      <use xlink:href="#DejaVuSans-43"/>
      <use xlink:href="#DejaVuSans-6f" x="69.824219"/>
      <use xlink:href="#DejaVuSans-64" x="131.005859"/>
      <use xlink:href="#DejaVuSans-6f" x="194.482422"/>
      <use xlink:href="#DejaVuSans-6e" x="255.664062"/>
      <use xlink:href="#DejaVuSans-2b" x="319.042969"/>
      <use xlink:href="#DejaVuSans-47" x="402.832031"/>
      <use xlink:href="#DejaVuSans-43" x="480.322266"/>
     </g>
    </g>
   </g>
  </g>
  <g id="axes_2">
   <g id="patch_6">
    <path d="M 43.78125 135.038095 
L 817.231964 135.038095 
L 817.231964 50.4 
L 43.78125 50.4 
z
" style="fill: #ffffff"/>
   </g>
   <g id="PolyCollection_3">
    <defs>
     <path id="mfc14e3f8b0" d="M 78.938101 -549.415207 
L 78.938101 -545.384821 
L 112.420816 -545.384821 
L 112.420816 -545.384821 
L 145.90353 -545.384821 
L 145.90353 -545.384821 
L 179.386245 -545.384821 
L 179.386245 -545.384821 
L 212.86896 -545.384821 
L 212.86896 -545.384821 
L 246.351675 -545.384821 
L 246.351675 -545.384821 
L 279.83439 -545.384821 
L 279.83439 -545.384821 
L 313.317105 -545.384821 
L 313.317105 -545.384821 
L 346.79982 -545.384821 
L 346.79982 -545.384821 
L 380.282535 -545.384821 
L 380.282535 -545.384821 
L 413.76525 -545.384821 
L 413.76525 -545.384821 
L 447.247965 -545.384821 
L 447.247965 -545.384821 
L 480.730679 -545.384821 
L 480.730679 -545.384821 
L 514.213394 -545.384821 
L 514.213394 -545.384821 
L 547.696109 -545.384821 
L 547.696109 -545.384821 
L 581.178824 -545.384821 
L 581.178824 -545.384821 
L 614.661539 -545.384821 
L 614.661539 -545.384821 
L 648.144254 -545.384821 
L 648.144254 -545.384821 
L 681.626969 -545.384821 
L 681.626969 -545.384821 
L 715.109684 -545.384821 
L 715.109684 -545.384821 
L 748.592399 -545.384821 
L 748.592399 -545.384821 
L 782.075114 -545.384821 
L 782.075114 -545.384821 
L 782.075114 -549.415207 
L 782.075114 -549.415207 
L 782.075114 -549.415207 
L 748.592399 -549.415207 
L 748.592399 -545.384821 
L 715.109684 -545.384821 
L 715.109684 -545.384821 
L 681.626969 -545.384821 
L 681.626969 -545.384821 
L 648.144254 -545.384821 
L 648.144254 -545.384821 
L 614.661539 -545.384821 
L 614.661539 -549.415207 
L 581.178824 -549.415207 
L 581.178824 -549.415207 
L 547.696109 -549.415207 
L 547.696109 -545.384821 
L 514.213394 -545.384821 
L 514.213394 -549.415207 
L 480.730679 -549.415207 
L 480.730679 -569.567134 
L 447.247965 -569.567134 
L 447.247965 -585.688676 
L 413.76525 -585.688676 
L 413.76525 -625.992531 
L 380.282535 -625.992531 
L 380.282535 -589.719062 
L 346.79982 -589.719062 
L 346.79982 -573.59752 
L 313.317105 -573.59752 
L 313.317105 -553.445592 
L 279.83439 -553.445592 
L 279.83439 -549.415207 
L 246.351675 -549.415207 
L 246.351675 -545.384821 
L 212.86896 -545.384821 
L 212.86896 -565.536749 
L 179.386245 -565.536749 
L 179.386245 -545.384821 
L 145.90353 -545.384821 
L 145.90353 -545.384821 
L 112.420816 -545.384821 
L 112.420816 -549.415207 
L 78.938101 -549.415207 
z
" style="stroke: #000000"/>
    </defs>
    <g clip-path="url(#pfe95770048)">
     <use xlink:href="#mfc14e3f8b0" x="0" y="680.422917" style="fill: #800080; fill-opacity: 0.75; stroke: #000000"/>
    </g>
   </g>
   <g id="matplotlib.axis_3">
    <g id="xtick_8">
     <g id="line2d_17">
      <g>
       <use xlink:href="#m71e7899174" x="112.789865" y="135.038095" style="stroke: #000000; stroke-width: 0.8"/>
      </g>
     </g>
    </g>
    <g id="xtick_9">
     <g id="line2d_18">
      <g>
       <use xlink:href="#m71e7899174" x="219.581185" y="135.038095" style="stroke: #000000; stroke-width: 0.8"/>
      </g>
     </g>
    </g>
    <g id="xtick_10">
     <g id="line2d_19">
      <g>
       <use xlink:href="#m71e7899174" x="326.372504" y="135.038095" style="stroke: #000000; stroke-width: 0.8"/>
      </g>
     </g>
    </g>
    <g id="xtick_11">
     <g id="line2d_20">
      <g>
       <use xlink:href="#m71e7899174" x="433.163824" y="135.038095" style="stroke: #000000; stroke-width: 0.8"/>
      </g>
     </g>
    </g>
    <g id="xtick_12">
     <g id="line2d_21">
      <g>
       <use xlink:href="#m71e7899174" x="539.955143" y="135.038095" style="stroke: #000000; stroke-width: 0.8"/>
      </g>
     </g>
    </g>
    <g id="xtick_13">
     <g id="line2d_22">
      <g>
       <use xlink:href="#m71e7899174" x="646.746462" y="135.038095" style="stroke: #000000; stroke-width: 0.8"/>
      </g>
     </g>
    </g>
    <g id="xtick_14">
     <g id="line2d_23">
      <g>
       <use xlink:href="#m71e7899174" x="753.537782" y="135.038095" style="stroke: #000000; stroke-width: 0.8"/>
      </g>
     </g>
    </g>
   </g>
   <g id="matplotlib.axis_4">
    <g id="ytick_8"/>
    <g id="ytick_9"/>
    <g id="ytick_10"/>
   </g>
   <g id="patch_7">
    <path d="M 43.78125 135.038095 
L 817.231964 135.038095 
" style="fill: none; stroke: #000000; stroke-width: 0.8; stroke-linejoin: miter; stroke-linecap: square"/>
   </g>
  </g>
  <g id="axes_3">
   <g id="patch_8">
    <path d="M 843.902679 642.866667 
L 977.25625 642.866667 
L 977.25625 151.965714 
L 843.902679 151.965714 
z
" style="fill: #ffffff"/>
   </g>
   <g id="PolyCollection_4">
    <defs>
     <path id="m99cd13b286" d="M 880.322625 -171.770062 
L 849.964205 -171.770062 
L 849.964205 -171.770062 
L 849.964205 -213.463357 
L 849.964205 -213.463357 
L 849.964205 -255.156652 
L 849.964205 -255.156652 
L 849.964205 -296.849948 
L 849.964205 -296.849948 
L 849.964205 -338.543243 
L 849.964205 -338.543243 
L 849.964205 -380.236538 
L 849.964205 -380.236538 
L 849.964205 -421.929834 
L 874.250941 -421.929834 
L 874.250941 -421.929834 
L 874.250941 -380.236538 
L 928.896098 -380.236538 
L 928.896098 -338.543243 
L 928.896098 -338.543243 
L 928.896098 -296.849948 
L 941.039467 -296.849948 
L 941.039467 -255.156652 
L 910.681046 -255.156652 
L 910.681046 -213.463357 
L 892.465994 -213.463357 
L 892.465994 -171.770062 
L 880.322625 -171.770062 
z
" style="stroke: #000000; stroke-opacity: 0.5"/>
    </defs>
    <g clip-path="url(#p5be09a2f08)">
     <use xlink:href="#m99cd13b286" x="0" y="680.422917" style="fill: #4169e1; fill-opacity: 0.5; stroke: #000000; stroke-opacity: 0.5"/>
    </g>
   </g>
   <g id="PolyCollection_5">
    <defs>
     <path id="m6ce598f29e" d="M 861.509968 -59.86993 
L 849.964205 -59.86993 
L 849.964205 -59.86993 
L 849.964205 -103.721255 
L 849.964205 -103.721255 
L 849.964205 -147.57258 
L 849.964205 -147.57258 
L 849.964205 -191.423905 
L 849.964205 -191.423905 
L 849.964205 -235.27523 
L 849.964205 -235.27523 
L 849.964205 -279.126555 
L 849.964205 -279.126555 
L 849.964205 -322.97788 
L 849.964205 -322.97788 
L 849.964205 -366.829205 
L 913.465905 -366.829205 
L 913.465905 -366.829205 
L 913.465905 -322.97788 
L 971.194724 -322.97788 
L 971.194724 -279.126555 
L 913.465905 -279.126555 
L 913.465905 -235.27523 
L 901.920141 -235.27523 
L 901.920141 -191.423905 
L 878.828614 -191.423905 
L 878.828614 -147.57258 
L 878.828614 -147.57258 
L 878.828614 -103.721255 
L 867.28285 -103.721255 
L 867.28285 -59.86993 
L 861.509968 -59.86993 
z
" style="stroke: #000000; stroke-opacity: 0.5"/>
    </defs>
    <g clip-path="url(#p5be09a2f08)">
     <use xlink:href="#m6ce598f29e" x="0" y="680.422917" style="fill: #ff8c00; fill-opacity: 0.5; stroke: #000000; stroke-opacity: 0.5"/>
    </g>
   </g>
   <g id="matplotlib.axis_5">
    <g id="xtick_15"/>
    <g id="xtick_16"/>
    <g id="xtick_17"/>
   </g>
   <g id="matplotlib.axis_6">
    <g id="ytick_11">
     <g id="line2d_24">
      <g>
       <use xlink:href="#m116a2d1eb6" x="843.902679" y="642.47865" style="stroke: #000000; stroke-width: 0.8"/>
      </g>
     </g>
    </g>
    <g id="ytick_12">
     <g id="line2d_25">
      <g>
       <use xlink:href="#m116a2d1eb6" x="843.902679" y="564.835795" style="stroke: #000000; stroke-width: 0.8"/>
      </g>
     </g>
    </g>
    <g id="ytick_13">
     <g id="line2d_26">
      <g>
       <use xlink:href="#m116a2d1eb6" x="843.902679" y="487.19294" style="stroke: #000000; stroke-width: 0.8"/>
      </g>
     </g>
    </g>
    <g id="ytick_14">
     <g id="line2d_27">
      <g>
       <use xlink:href="#m116a2d1eb6" x="843.902679" y="409.550086" style="stroke: #000000; stroke-width: 0.8"/>
      </g>
     </g>
    </g>
    <g id="ytick_15">
     <g id="line2d_28">
      <g>
       <use xlink:href="#m116a2d1eb6" x="843.902679" y="331.907231" style="stroke: #000000; stroke-width: 0.8"/>
      </g>
     </g>
    </g>
    <g id="ytick_16">
     <g id="line2d_29">
      <g>
       <use xlink:href="#m116a2d1eb6" x="843.902679" y="254.264377" style="stroke: #000000; stroke-width: 0.8"/>
      </g>
     </g>
    </g>
    <g id="ytick_17">
     <g id="line2d_30">
      <g>
       <use xlink:href="#m116a2d1eb6" x="843.902679" y="176.621522" style="stroke: #000000; stroke-width: 0.8"/>
      </g>
     </g>
    </g>
   </g>
   <g id="patch_9">
    <path d="M 843.902679 642.866667 
L 843.902679 151.965714 
" style="fill: none; stroke: #000000; stroke-width: 0.8; stroke-linejoin: miter; stroke-linecap: square"/>
   </g>
  </g>
  <g id="text_19">
   <!-- Archaea - Kendall's Tau correlation coefficients for genetic code: EFM -->
   <g transform="translate(257.310625 16.318125) scale(0.12 -0.12)">
    <defs>
     <path id="DejaVuSans-41" d="M 2188 4044 
L 1331 1722 
L 3047 1722 
L 2188 4044 
z
M 1831 4666 
L 2547 4666 
L 4325 0 
L 3669 0 
L 3244 1197 
L 1141 1197 
L 716 0 
L 50 0 
L 1831 4666 
z
" transform="scale(0.015625)"/>
     <path id="DejaVuSans-4b" d="M 628 4666 
L 1259 4666 
L 1259 2694 
L 3353 4666 
L 4166 4666 
L 1850 2491 
L 4331 0 
L 3500 0 
L 1259 2247 
L 1259 0 
L 628 0 
L 628 4666 
z
" transform="scale(0.015625)"/>
     <path id="DejaVuSans-27" d="M 1147 4666 
L 1147 2931 
L 616 2931 
L 616 4666 
L 1147 4666 
z
" transform="scale(0.015625)"/>
     <path id="DejaVuSans-73" d="M 2834 3397 
L 2834 2853 
Q 2591 2978 2328 3040 
Q 2066 3103 1784 3103 
Q 1356 3103 1142 2972 
Q 928 2841 928 2578 
Q 928 2378 1081 2264 
Q 1234 2150 1697 2047 
L 1894 2003 
Q 2506 1872 2764 1633 
Q 3022 1394 3022 966 
Q 3022 478 2636 193 
Q 2250 -91 1575 -91 
Q 1294 -91 989 -36 
Q 684 19 347 128 
L 347 722 
Q 666 556 975 473 
Q 1284 391 1588 391 
Q 1994 391 2212 530 
Q 2431 669 2431 922 
Q 2431 1156 2273 1281 
Q 2116 1406 1581 1522 
L 1381 1569 
Q 847 1681 609 1914 
Q 372 2147 372 2553 
Q 372 3047 722 3315 
Q 1072 3584 1716 3584 
Q 2034 3584 2315 3537 
Q 2597 3491 2834 3397 
z
" transform="scale(0.015625)"/>
     <path id="DejaVuSans-54" d="M -19 4666 
L 3928 4666 
L 3928 4134 
L 2272 4134 
L 2272 0 
L 1638 0 
L 1638 4134 
L -19 4134 
L -19 4666 
z
" transform="scale(0.015625)"/>
     <path id="DejaVuSans-3a" d="M 750 794 
L 1409 794 
L 1409 0 
L 750 0 
L 750 794 
z
M 750 3309 
L 1409 3309 
L 1409 2516 
L 750 2516 
L 750 3309 
z
" transform="scale(0.015625)"/>
     <path id="DejaVuSans-45" d="M 628 4666 
L 3578 4666 
L 3578 4134 
L 1259 4134 
L 1259 2753 
L 3481 2753 
L 3481 2222 
L 1259 2222 
L 1259 531 
L 3634 531 
L 3634 0 
L 628 0 
L 628 4666 
z
" transform="scale(0.015625)"/>
     <path id="DejaVuSans-46" d="M 628 4666 
L 3309 4666 
L 3309 4134 
L 1259 4134 
L 1259 2759 
L 3109 2759 
L 3109 2228 
L 1259 2228 
L 1259 0 
L 628 0 
L 628 4666 
z
" transform="scale(0.015625)"/>
     <path id="DejaVuSans-4d" d="M 628 4666 
L 1569 4666 
L 2759 1491 
L 3956 4666 
L 4897 4666 
L 4897 0 
L 4281 0 
L 4281 4097 
L 3078 897 
L 2444 897 
L 1241 4097 
L 1241 0 
L 628 0 
L 628 4666 
z
" transform="scale(0.015625)"/>
    </defs>
    <use xlink:href="#DejaVuSans-41"/>
    <use xlink:href="#DejaVuSans-72" x="68.408203"/>
    <use xlink:href="#DejaVuSans-63" x="107.271484"/>
    <use xlink:href="#DejaVuSans-68" x="162.251953"/>
    <use xlink:href="#DejaVuSans-61" x="225.630859"/>
    <use xlink:href="#DejaVuSans-65" x="286.910156"/>
    <use xlink:href="#DejaVuSans-61" x="348.433594"/>
    <use xlink:href="#DejaVuSans-20" x="409.712891"/>
    <use xlink:href="#DejaVuSans-2d" x="441.5"/>
    <use xlink:href="#DejaVuSans-20" x="477.583984"/>
    <use xlink:href="#DejaVuSans-4b" x="509.371094"/>
    <use xlink:href="#DejaVuSans-65" x="569.947266"/>
    <use xlink:href="#DejaVuSans-6e" x="631.470703"/>
    <use xlink:href="#DejaVuSans-64" x="694.849609"/>
    <use xlink:href="#DejaVuSans-61" x="758.326172"/>
    <use xlink:href="#DejaVuSans-6c" x="819.605469"/>
    <use xlink:href="#DejaVuSans-6c" x="847.388672"/>
    <use xlink:href="#DejaVuSans-27" x="875.171875"/>
    <use xlink:href="#DejaVuSans-73" x="902.662109"/>
    <use xlink:href="#DejaVuSans-20" x="954.761719"/>
    <use xlink:href="#DejaVuSans-54" x="986.548828"/>
    <use xlink:href="#DejaVuSans-61" x="1031.132812"/>
    <use xlink:href="#DejaVuSans-75" x="1092.412109"/>
    <use xlink:href="#DejaVuSans-20" x="1155.791016"/>
    <use xlink:href="#DejaVuSans-63" x="1187.578125"/>
    <use xlink:href="#DejaVuSans-6f" x="1242.558594"/>
    <use xlink:href="#DejaVuSans-72" x="1303.740234"/>
    <use xlink:href="#DejaVuSans-72" x="1343.103516"/>
    <use xlink:href="#DejaVuSans-65" x="1381.966797"/>
    <use xlink:href="#DejaVuSans-6c" x="1443.490234"/>
    <use xlink:href="#DejaVuSans-61" x="1471.273438"/>
    <use xlink:href="#DejaVuSans-74" x="1532.552734"/>
    <use xlink:href="#DejaVuSans-69" x="1571.761719"/>
    <use xlink:href="#DejaVuSans-6f" x="1599.544922"/>
    <use xlink:href="#DejaVuSans-6e" x="1660.726562"/>
    <use xlink:href="#DejaVuSans-20" x="1724.105469"/>
    <use xlink:href="#DejaVuSans-63" x="1755.892578"/>
    <use xlink:href="#DejaVuSans-6f" x="1810.873047"/>
    <use xlink:href="#DejaVuSans-65" x="1872.054688"/>
    <use xlink:href="#DejaVuSans-66" x="1933.578125"/>
    <use xlink:href="#DejaVuSans-66" x="1968.783203"/>
    <use xlink:href="#DejaVuSans-69" x="2003.988281"/>
    <use xlink:href="#DejaVuSans-63" x="2031.771484"/>
    <use xlink:href="#DejaVuSans-69" x="2086.751953"/>
    <use xlink:href="#DejaVuSans-65" x="2114.535156"/>
    <use xlink:href="#DejaVuSans-6e" x="2176.058594"/>
    <use xlink:href="#DejaVuSans-74" x="2239.4375"/>
    <use xlink:href="#DejaVuSans-73" x="2278.646484"/>
    <use xlink:href="#DejaVuSans-20" x="2330.746094"/>
    <use xlink:href="#DejaVuSans-66" x="2362.533203"/>
    <use xlink:href="#DejaVuSans-6f" x="2397.738281"/>
    <use xlink:href="#DejaVuSans-72" x="2458.919922"/>
    <use xlink:href="#DejaVuSans-20" x="2500.033203"/>
    <use xlink:href="#DejaVuSans-67" x="2531.820312"/>
    <use xlink:href="#DejaVuSans-65" x="2595.296875"/>
    <use xlink:href="#DejaVuSans-6e" x="2656.820312"/>
    <use xlink:href="#DejaVuSans-65" x="2720.199219"/>
    <use xlink:href="#DejaVuSans-74" x="2781.722656"/>
    <use xlink:href="#DejaVuSans-69" x="2820.931641"/>
    <use xlink:href="#DejaVuSans-63" x="2848.714844"/>
    <use xlink:href="#DejaVuSans-20" x="2903.695312"/>
    <use xlink:href="#DejaVuSans-63" x="2935.482422"/>
    <use xlink:href="#DejaVuSans-6f" x="2990.462891"/>
    <use xlink:href="#DejaVuSans-64" x="3051.644531"/>
    <use xlink:href="#DejaVuSans-65" x="3115.121094"/>
    <use xlink:href="#DejaVuSans-3a" x="3176.644531"/>
    <use xlink:href="#DejaVuSans-20" x="3210.335938"/>
    <use xlink:href="#DejaVuSans-45" x="3242.123047"/>
    <use xlink:href="#DejaVuSans-46" x="3305.306641"/>
    <use xlink:href="#DejaVuSans-4d" x="3362.826172"/>
   </g>
  </g>
 </g>
 <defs>
  <clipPath id="pa740d00bf3">
   <rect x="43.78125" y="151.965714" width="773.450714" height="490.900952"/>
  </clipPath>
  <clipPath id="pfe95770048">
   <rect x="43.78125" y="50.4" width="773.450714" height="84.638095"/>
  </clipPath>
  <clipPath id="p5be09a2f08">
   <rect x="843.902679" y="151.965714" width="133.353571" height="490.900952"/>
  </clipPath>
 </defs>
</svg>
