<?xml version="1.0" encoding="utf-8" standalone="no"?>
<!DOCTYPE svg PUBLIC "-//W3C//DTD SVG 1.1//EN"
  "http://www.w3.org/Graphics/SVG/1.1/DTD/svg11.dtd">
<svg xmlns:xlink="http://www.w3.org/1999/xlink" width="572.4pt" height="564.071711pt" viewBox="0 0 572.4 564.071711" xmlns="http://www.w3.org/2000/svg" version="1.1">
 <metadata>
  <rdf:RDF xmlns:dc="http://purl.org/dc/elements/1.1/" xmlns:cc="http://creativecommons.org/ns#" xmlns:rdf="http://www.w3.org/1999/02/22-rdf-syntax-ns#">
   <cc:Work>
    <dc:type rdf:resource="http://purl.org/dc/dcmitype/StillImage"/>
    <dc:date>2024-08-01T13:46:55.825183</dc:date>
    <dc:format>image/svg+xml</dc:format>
    <dc:creator>
     <cc:Agent>
      <dc:title>Matplotlib v3.8.3, https://matplotlib.org/</dc:title>
     </cc:Agent>
    </dc:creator>
   </cc:Work>
  </rdf:RDF>
 </metadata>
 <defs>
  <style type="text/css">*{stroke-linejoin: round; stroke-linecap: butt}</style>
 </defs>
 <g id="figure_1">
  <g id="patch_1">
   <path d="M 0 564.071711 
L 572.4 564.071711 
L 572.4 0 
L 0 0 
z
" style="fill: #ffffff"/>
  </g>
  <g id="axes_1">
   <g id="patch_2">
    <path d="M 7.2 556.871711 
L 565.2 556.871711 
L 565.2 7.2 
L 7.2 7.2 
z
" style="fill: #ffffff"/>
   </g>
   <g id="patch_3">
    <path d="M 82.736326 288.157801 
Q 179.857553 385.279018 276.188211 481.609666 
" clip-path="url(#pf8875b9cdc)" style="fill: none; stroke: #000000; stroke-linecap: round"/>
    <path d="M 274.773997 477.367026 
L 276.188211 481.609666 
L 271.94557 480.195453 
z
" clip-path="url(#pf8875b9cdc)" style="stroke: #000000; stroke-linecap: round"/>
   </g>
   <g id="patch_4">
    <path d="M 85.275839 282.035873 
Q 283.104018 282.035847 479.814162 282.035821 
" clip-path="url(#pf8875b9cdc)" style="fill: none; stroke: #000000; stroke-linecap: round"/>
    <path d="M 475.814162 280.035822 
L 479.814162 282.035821 
L 475.814163 284.035822 
z
" clip-path="url(#pf8875b9cdc)" style="stroke: #000000; stroke-linecap: round"/>
   </g>
   <g id="patch_5">
    <path d="M 82.736324 275.913946 
Q 179.857517 178.792712 276.188141 82.462047 
" clip-path="url(#pf8875b9cdc)" style="fill: none; stroke: #000000; stroke-linecap: round"/>
    <path d="M 271.9455 83.876261 
L 276.188141 82.462047 
L 274.773928 86.704688 
z
" clip-path="url(#pf8875b9cdc)" style="stroke: #000000; stroke-linecap: round"/>
   </g>
   <g id="text_1">
    <g id="patch_6">
     <path d="M 172.065016 388.57259 
L 176.563983 393.071556 
Q 178.685303 395.192877 180.806624 393.071556 
L 187.650091 386.228088 
Q 189.771411 384.106768 187.650091 381.985447 
L 183.151124 377.486481 
Q 181.029803 375.36516 178.908483 377.486481 
L 172.065016 384.329949 
Q 169.943695 386.451269 172.065016 388.57259 
z
" clip-path="url(#pf8875b9cdc)" style="fill: #ffffff; stroke: #ffffff; stroke-linejoin: miter"/>
    </g>
    <g clip-path="url(#pf8875b9cdc)">
     <!-- 0 -->
     <g transform="translate(175.656897 384.980708) rotate(-315.000003) scale(0.1 -0.1)">
      <defs>
       <path id="DejaVuSans-30" d="M 2034 4250 
Q 1547 4250 1301 3770 
Q 1056 3291 1056 2328 
Q 1056 1369 1301 889 
Q 1547 409 2034 409 
Q 2525 409 2770 889 
Q 3016 1369 3016 2328 
Q 3016 3291 2770 3770 
Q 2525 4250 2034 4250 
z
M 2034 4750 
Q 2819 4750 3233 4129 
Q 3647 3509 3647 2328 
Q 3647 1150 3233 529 
Q 2819 -91 2034 -91 
Q 1250 -91 836 529 
Q 422 1150 422 2328 
Q 422 3509 836 4129 
Q 1250 4750 2034 4750 
z
" transform="scale(0.015625)"/>
      </defs>
      <use xlink:href="#DejaVuSans-30"/>
     </g>
    </g>
   </g>
   <g id="text_2">
    <g id="patch_7">
     <path d="M 264.016519 289.874912 
L 302.191519 289.874907 
Q 305.191519 289.874907 305.191519 286.874907 
L 305.191517 277.196782 
Q 305.191517 274.196782 302.191517 274.196782 
L 264.016517 274.196787 
Q 261.016517 274.196787 261.016517 277.196787 
L 261.016519 286.874912 
Q 261.016519 289.874912 264.016519 289.874912 
z
" clip-path="url(#pf8875b9cdc)" style="fill: #ffffff; stroke: #ffffff; stroke-linejoin: miter"/>
    </g>
    <g clip-path="url(#pf8875b9cdc)">
     <!-- 127867 -->
     <g transform="translate(264.016518 284.795224) rotate(-0.000008) scale(0.1 -0.1)">
      <defs>
       <path id="DejaVuSans-31" d="M 794 531 
L 1825 531 
L 1825 4091 
L 703 3866 
L 703 4441 
L 1819 4666 
L 2450 4666 
L 2450 531 
L 3481 531 
L 3481 0 
L 794 0 
L 794 531 
z
" transform="scale(0.015625)"/>
       <path id="DejaVuSans-32" d="M 1228 531 
L 3431 531 
L 3431 0 
L 469 0 
L 469 531 
Q 828 903 1448 1529 
Q 2069 2156 2228 2338 
Q 2531 2678 2651 2914 
Q 2772 3150 2772 3378 
Q 2772 3750 2511 3984 
Q 2250 4219 1831 4219 
Q 1534 4219 1204 4116 
Q 875 4013 500 3803 
L 500 4441 
Q 881 4594 1212 4672 
Q 1544 4750 1819 4750 
Q 2544 4750 2975 4387 
Q 3406 4025 3406 3419 
Q 3406 3131 3298 2873 
Q 3191 2616 2906 2266 
Q 2828 2175 2409 1742 
Q 1991 1309 1228 531 
z
" transform="scale(0.015625)"/>
       <path id="DejaVuSans-37" d="M 525 4666 
L 3525 4666 
L 3525 4397 
L 1831 0 
L 1172 0 
L 2766 4134 
L 525 4134 
L 525 4666 
z
" transform="scale(0.015625)"/>
       <path id="DejaVuSans-38" d="M 2034 2216 
Q 1584 2216 1326 1975 
Q 1069 1734 1069 1313 
Q 1069 891 1326 650 
Q 1584 409 2034 409 
Q 2484 409 2743 651 
Q 3003 894 3003 1313 
Q 3003 1734 2745 1975 
Q 2488 2216 2034 2216 
z
M 1403 2484 
Q 997 2584 770 2862 
Q 544 3141 544 3541 
Q 544 4100 942 4425 
Q 1341 4750 2034 4750 
Q 2731 4750 3128 4425 
Q 3525 4100 3525 3541 
Q 3525 3141 3298 2862 
Q 3072 2584 2669 2484 
Q 3125 2378 3379 2068 
Q 3634 1759 3634 1313 
Q 3634 634 3220 271 
Q 2806 -91 2034 -91 
Q 1263 -91 848 271 
Q 434 634 434 1313 
Q 434 1759 690 2068 
Q 947 2378 1403 2484 
z
M 1172 3481 
Q 1172 3119 1398 2916 
Q 1625 2713 2034 2713 
Q 2441 2713 2670 2916 
Q 2900 3119 2900 3481 
Q 2900 3844 2670 4047 
Q 2441 4250 2034 4250 
Q 1625 4250 1398 4047 
Q 1172 3844 1172 3481 
z
" transform="scale(0.015625)"/>
       <path id="DejaVuSans-36" d="M 2113 2584 
Q 1688 2584 1439 2293 
Q 1191 2003 1191 1497 
Q 1191 994 1439 701 
Q 1688 409 2113 409 
Q 2538 409 2786 701 
Q 3034 994 3034 1497 
Q 3034 2003 2786 2293 
Q 2538 2584 2113 2584 
z
M 3366 4563 
L 3366 3988 
Q 3128 4100 2886 4159 
Q 2644 4219 2406 4219 
Q 1781 4219 1451 3797 
Q 1122 3375 1075 2522 
Q 1259 2794 1537 2939 
Q 1816 3084 2150 3084 
Q 2853 3084 3261 2657 
Q 3669 2231 3669 1497 
Q 3669 778 3244 343 
Q 2819 -91 2113 -91 
Q 1303 -91 875 529 
Q 447 1150 447 2328 
Q 447 3434 972 4092 
Q 1497 4750 2381 4750 
Q 2619 4750 2861 4703 
Q 3103 4656 3366 4563 
z
" transform="scale(0.015625)"/>
      </defs>
      <use xlink:href="#DejaVuSans-31"/>
      <use xlink:href="#DejaVuSans-32" x="63.623047"/>
      <use xlink:href="#DejaVuSans-37" x="127.246094"/>
      <use xlink:href="#DejaVuSans-38" x="190.869141"/>
      <use xlink:href="#DejaVuSans-36" x="254.492188"/>
      <use xlink:href="#DejaVuSans-37" x="318.115234"/>
     </g>
    </g>
   </g>
   <g id="text_3">
    <g id="patch_8">
     <path d="M 171.903675 197.832668 
L 198.89747 170.838861 
Q 201.01879 168.71754 198.89747 166.59622 
L 192.054 159.752754 
Q 189.932679 157.631434 187.81136 159.752755 
L 160.817564 186.746562 
Q 158.696244 188.867883 160.817565 190.989203 
L 167.661034 197.832669 
Q 169.782355 199.953989 171.903675 197.832668 
z
" clip-path="url(#pf8875b9cdc)" style="fill: #ffffff; stroke: #ffffff; stroke-linejoin: miter"/>
    </g>
    <g clip-path="url(#pf8875b9cdc)">
     <!-- 155524 -->
     <g transform="translate(168.311793 194.240787) rotate(-45.000012) scale(0.1 -0.1)">
      <defs>
       <path id="DejaVuSans-35" d="M 691 4666 
L 3169 4666 
L 3169 4134 
L 1269 4134 
L 1269 2991 
Q 1406 3038 1543 3061 
Q 1681 3084 1819 3084 
Q 2600 3084 3056 2656 
Q 3513 2228 3513 1497 
Q 3513 744 3044 326 
Q 2575 -91 1722 -91 
Q 1428 -91 1123 -41 
Q 819 9 494 109 
L 494 744 
Q 775 591 1075 516 
Q 1375 441 1709 441 
Q 2250 441 2565 725 
Q 2881 1009 2881 1497 
Q 2881 1984 2565 2268 
Q 2250 2553 1709 2553 
Q 1456 2553 1204 2497 
Q 953 2441 691 2322 
L 691 4666 
z
" transform="scale(0.015625)"/>
       <path id="DejaVuSans-34" d="M 2419 4116 
L 825 1625 
L 2419 1625 
L 2419 4116 
z
M 2253 4666 
L 3047 4666 
L 3047 1625 
L 3713 1625 
L 3713 1100 
L 3047 1100 
L 3047 0 
L 2419 0 
L 2419 1100 
L 313 1100 
L 313 1709 
L 2253 4666 
z
" transform="scale(0.015625)"/>
      </defs>
      <use xlink:href="#DejaVuSans-31"/>
      <use xlink:href="#DejaVuSans-35" x="63.623047"/>
      <use xlink:href="#DejaVuSans-35" x="127.246094"/>
      <use xlink:href="#DejaVuSans-35" x="190.869141"/>
      <use xlink:href="#DejaVuSans-32" x="254.492188"/>
      <use xlink:href="#DejaVuSans-34" x="318.115234"/>
     </g>
    </g>
   </g>
   <g id="patch_9">
    <path d="M 76.614399 254.504108 
C 71.305955 254.504108 66.109106 256.039402 61.652898 258.924153 
C 57.19669 261.808904 53.668481 265.921824 51.49534 270.76507 
C 49.322198 275.608316 48.595491 280.978257 49.403183 286.224895 
C 50.210875 291.471533 52.519006 296.374277 56.048193 300.33968 
C 59.577379 304.305083 64.179237 307.166423 69.296742 308.577352 
C 74.414247 309.988281 79.832236 309.889478 84.894896 308.292902 
C 89.957555 306.696326 94.452029 303.669104 97.83429 299.577663 
C 101.21655 295.486222 103.344392 290.502583 103.960254 285.229985 
L 76.614399 282.035874 
z
" style="fill: #0000ff"/>
   </g>
   <g id="patch_10">
    <path d="M 103.960254 285.229985 
C 104.41097 281.371254 104.039874 277.460465 102.871426 273.755377 
C 101.702979 270.050289 99.763426 266.634133 97.180605 263.732068 
C 94.597783 260.830003 91.429713 258.50722 87.885202 256.916815 
C 84.340692 255.32641 80.499363 254.504108 76.614399 254.504108 
L 76.614399 282.035874 
z
" style="fill: #ff0000"/>
   </g>
   <g id="matplotlib.axis_1">
    <g id="xtick_1"/>
    <g id="xtick_2"/>
    <g id="xtick_3"/>
    <g id="xtick_4"/>
    <g id="xtick_5"/>
    <g id="xtick_6"/>
    <g id="xtick_7"/>
    <g id="xtick_8"/>
    <g id="xtick_9"/>
   </g>
   <g id="matplotlib.axis_2">
    <g id="ytick_1"/>
    <g id="ytick_2"/>
    <g id="ytick_3"/>
    <g id="ytick_4"/>
    <g id="ytick_5"/>
    <g id="ytick_6"/>
    <g id="ytick_7"/>
   </g>
   <g id="PathCollection_1">
    <path d="M 76.614399 297.847262 
C 80.807628 297.847262 84.829678 296.181275 87.794738 293.216214 
C 90.759799 290.251153 92.425787 286.229103 92.425787 282.035874 
C 92.425787 277.842645 90.759799 273.820595 87.794738 270.855534 
C 84.829678 267.890473 80.807628 266.224486 76.614399 266.224486 
C 72.421169 266.224486 68.399119 267.890473 65.434059 270.855534 
C 62.468998 273.820595 60.80301 277.842645 60.80301 282.035874 
C 60.80301 286.229103 62.468998 290.251153 65.434059 293.216214 
C 68.399119 296.181275 72.421169 297.847262 76.614399 297.847262 
z
" clip-path="url(#pf8875b9cdc)" style="fill: #87ceeb; stroke: #000000"/>
    <path d="M 283.102647 504.33549 
C 287.295876 504.33549 291.317926 502.669503 294.282987 499.704442 
C 297.248048 496.739381 298.914035 492.717331 298.914035 488.524102 
C 298.914035 484.330873 297.248048 480.308823 294.282987 477.343762 
C 291.317926 474.378701 287.295876 472.712714 283.102647 472.712714 
C 278.909418 472.712714 274.887368 474.378701 271.922307 477.343762 
C 268.957246 480.308823 267.291259 484.330873 267.291259 488.524102 
C 267.291259 492.717331 268.957246 496.739381 271.922307 499.704442 
C 274.887368 502.669503 278.909418 504.33549 283.102647 504.33549 
z
" clip-path="url(#pf8875b9cdc)" style="fill: #90ee90; stroke: #000000"/>
    <path d="M 489.59089 327.860268 
C 501.743676 327.860268 513.400351 323.031915 521.993669 314.438598 
C 530.586986 305.845281 535.415339 294.188606 535.415339 282.03582 
C 535.415339 269.883034 530.586986 258.226359 521.993669 249.633042 
C 513.400351 241.039724 501.743676 236.211371 489.59089 236.211371 
C 477.438105 236.211371 465.781429 241.039724 457.188112 249.633042 
C 448.594795 258.226359 443.766442 269.883034 443.766442 282.03582 
C 443.766442 294.188606 448.594795 305.845281 457.188112 314.438598 
C 465.781429 323.031915 477.438105 327.860268 489.59089 327.860268 
z
" clip-path="url(#pf8875b9cdc)" style="fill: #90ee90; stroke: #000000"/>
    <path d="M 283.102575 125.54761 
C 296.36273 125.54761 309.081568 120.279295 318.457914 110.902949 
C 327.834259 101.526604 333.102575 88.807765 333.102575 75.54761 
C 333.102575 62.287455 327.834259 49.568616 318.457914 40.192271 
C 309.081568 30.815925 296.36273 25.54761 283.102575 25.54761 
C 269.84242 25.54761 257.123581 30.815925 247.747236 40.192271 
C 238.37089 49.568616 233.102575 62.287455 233.102575 75.54761 
C 233.102575 88.807765 238.37089 101.526604 247.747236 110.902949 
C 257.123581 120.279295 269.84242 125.54761 283.102575 125.54761 
z
" clip-path="url(#pf8875b9cdc)" style="fill: #90ee90; stroke: #000000"/>
   </g>
   <g id="patch_11">
    <path d="M 7.2 556.871711 
L 7.2 7.2 
" style="fill: none; stroke: #000000; stroke-width: 0.8; stroke-linejoin: miter; stroke-linecap: square"/>
   </g>
   <g id="patch_12">
    <path d="M 565.2 556.871711 
L 565.2 7.2 
" style="fill: none; stroke: #000000; stroke-width: 0.8; stroke-linejoin: miter; stroke-linecap: square"/>
   </g>
   <g id="patch_13">
    <path d="M 7.2 556.871711 
L 565.2 556.871711 
" style="fill: none; stroke: #000000; stroke-width: 0.8; stroke-linejoin: miter; stroke-linecap: square"/>
   </g>
   <g id="patch_14">
    <path d="M 7.2 7.2 
L 565.2 7.2 
" style="fill: none; stroke: #000000; stroke-width: 0.8; stroke-linejoin: miter; stroke-linecap: square"/>
   </g>
   <g id="text_4">
    <g clip-path="url(#pf8875b9cdc)">
     <!-- $\mathbf{E}$ -->
     <g transform="translate(72.474399 285.347124) scale(0.12 -0.12)">
      <defs>
       <path id="DejaVuSans-Bold-45" d="M 588 4666 
L 3834 4666 
L 3834 3756 
L 1791 3756 
L 1791 2888 
L 3713 2888 
L 3713 1978 
L 1791 1978 
L 1791 909 
L 3903 909 
L 3903 0 
L 588 0 
L 588 4666 
z
" transform="scale(0.015625)"/>
      </defs>
      <use xlink:href="#DejaVuSans-Bold-45" transform="translate(0 0.09375)"/>
     </g>
    </g>
   </g>
   <g id="text_5">
    <g clip-path="url(#pf8875b9cdc)">
     <!-- NCC -->
     <g transform="translate(270.234522 491.835352) scale(0.12 -0.12)">
      <defs>
       <path id="DejaVuSans-4e" d="M 628 4666 
L 1478 4666 
L 3547 763 
L 3547 4666 
L 4159 4666 
L 4159 0 
L 3309 0 
L 1241 3903 
L 1241 0 
L 628 0 
L 628 4666 
z
" transform="scale(0.015625)"/>
       <path id="DejaVuSans-43" d="M 4122 4306 
L 4122 3641 
Q 3803 3938 3442 4084 
Q 3081 4231 2675 4231 
Q 1875 4231 1450 3742 
Q 1025 3253 1025 2328 
Q 1025 1406 1450 917 
Q 1875 428 2675 428 
Q 3081 428 3442 575 
Q 3803 722 4122 1019 
L 4122 359 
Q 3791 134 3420 21 
Q 3050 -91 2638 -91 
Q 1578 -91 968 557 
Q 359 1206 359 2328 
Q 359 3453 968 4101 
Q 1578 4750 2638 4750 
Q 3056 4750 3426 4639 
Q 3797 4528 4122 4306 
z
" transform="scale(0.015625)"/>
      </defs>
      <use xlink:href="#DejaVuSans-4e"/>
      <use xlink:href="#DejaVuSans-43" x="74.804688"/>
      <use xlink:href="#DejaVuSans-43" x="144.628906"/>
     </g>
    </g>
   </g>
   <g id="text_6">
    <g clip-path="url(#pf8875b9cdc)">
     <!-- GAA -->
     <g transform="translate(476.568078 285.34707) scale(0.12 -0.12)">
      <defs>
       <path id="DejaVuSans-47" d="M 3809 666 
L 3809 1919 
L 2778 1919 
L 2778 2438 
L 4434 2438 
L 4434 434 
Q 4069 175 3628 42 
Q 3188 -91 2688 -91 
Q 1594 -91 976 548 
Q 359 1188 359 2328 
Q 359 3472 976 4111 
Q 1594 4750 2688 4750 
Q 3144 4750 3555 4637 
Q 3966 4525 4313 4306 
L 4313 3634 
Q 3963 3931 3569 4081 
Q 3175 4231 2741 4231 
Q 1884 4231 1454 3753 
Q 1025 3275 1025 2328 
Q 1025 1384 1454 906 
Q 1884 428 2741 428 
Q 3075 428 3337 486 
Q 3600 544 3809 666 
z
" transform="scale(0.015625)"/>
       <path id="DejaVuSans-41" d="M 2188 4044 
L 1331 1722 
L 3047 1722 
L 2188 4044 
z
M 1831 4666 
L 2547 4666 
L 4325 0 
L 3669 0 
L 3244 1197 
L 1141 1197 
L 716 0 
L 50 0 
L 1831 4666 
z
" transform="scale(0.015625)"/>
      </defs>
      <use xlink:href="#DejaVuSans-47"/>
      <use xlink:href="#DejaVuSans-41" x="77.490234"/>
      <use xlink:href="#DejaVuSans-41" x="148.648438"/>
     </g>
    </g>
   </g>
   <g id="text_7">
    <g clip-path="url(#pf8875b9cdc)">
     <!-- GAG -->
     <g transform="translate(269.805075 78.85886) scale(0.12 -0.12)">
      <use xlink:href="#DejaVuSans-47"/>
      <use xlink:href="#DejaVuSans-41" x="77.490234"/>
      <use xlink:href="#DejaVuSans-47" x="144.148438"/>
     </g>
    </g>
   </g>
   <g id="legend_1">
    <g id="patch_15">
     <path d="M 14.2 44.55625 
L 116.278125 44.55625 
Q 118.278125 44.55625 118.278125 42.55625 
L 118.278125 14.2 
Q 118.278125 12.2 116.278125 12.2 
L 14.2 12.2 
Q 12.2 12.2 12.2 14.2 
L 12.2 42.55625 
Q 12.2 44.55625 14.2 44.55625 
z
" style="fill: #ffffff; opacity: 0.8; stroke: #cccccc; stroke-linejoin: miter"/>
    </g>
    <g id="patch_16">
     <path d="M 16.2 23.798437 
L 36.2 23.798437 
L 36.2 16.798437 
L 16.2 16.798437 
z
" style="fill: #0000ff"/>
    </g>
    <g id="text_8">
     <!-- Genomic data -->
     <g transform="translate(44.2 23.798437) scale(0.1 -0.1)">
      <defs>
       <path id="DejaVuSans-65" d="M 3597 1894 
L 3597 1613 
L 953 1613 
Q 991 1019 1311 708 
Q 1631 397 2203 397 
Q 2534 397 2845 478 
Q 3156 559 3463 722 
L 3463 178 
Q 3153 47 2828 -22 
Q 2503 -91 2169 -91 
Q 1331 -91 842 396 
Q 353 884 353 1716 
Q 353 2575 817 3079 
Q 1281 3584 2069 3584 
Q 2775 3584 3186 3129 
Q 3597 2675 3597 1894 
z
M 3022 2063 
Q 3016 2534 2758 2815 
Q 2500 3097 2075 3097 
Q 1594 3097 1305 2825 
Q 1016 2553 972 2059 
L 3022 2063 
z
" transform="scale(0.015625)"/>
       <path id="DejaVuSans-6e" d="M 3513 2113 
L 3513 0 
L 2938 0 
L 2938 2094 
Q 2938 2591 2744 2837 
Q 2550 3084 2163 3084 
Q 1697 3084 1428 2787 
Q 1159 2491 1159 1978 
L 1159 0 
L 581 0 
L 581 3500 
L 1159 3500 
L 1159 2956 
Q 1366 3272 1645 3428 
Q 1925 3584 2291 3584 
Q 2894 3584 3203 3211 
Q 3513 2838 3513 2113 
z
" transform="scale(0.015625)"/>
       <path id="DejaVuSans-6f" d="M 1959 3097 
Q 1497 3097 1228 2736 
Q 959 2375 959 1747 
Q 959 1119 1226 758 
Q 1494 397 1959 397 
Q 2419 397 2687 759 
Q 2956 1122 2956 1747 
Q 2956 2369 2687 2733 
Q 2419 3097 1959 3097 
z
M 1959 3584 
Q 2709 3584 3137 3096 
Q 3566 2609 3566 1747 
Q 3566 888 3137 398 
Q 2709 -91 1959 -91 
Q 1206 -91 779 398 
Q 353 888 353 1747 
Q 353 2609 779 3096 
Q 1206 3584 1959 3584 
z
" transform="scale(0.015625)"/>
       <path id="DejaVuSans-6d" d="M 3328 2828 
Q 3544 3216 3844 3400 
Q 4144 3584 4550 3584 
Q 5097 3584 5394 3201 
Q 5691 2819 5691 2113 
L 5691 0 
L 5113 0 
L 5113 2094 
Q 5113 2597 4934 2840 
Q 4756 3084 4391 3084 
Q 3944 3084 3684 2787 
Q 3425 2491 3425 1978 
L 3425 0 
L 2847 0 
L 2847 2094 
Q 2847 2600 2669 2842 
Q 2491 3084 2119 3084 
Q 1678 3084 1418 2786 
Q 1159 2488 1159 1978 
L 1159 0 
L 581 0 
L 581 3500 
L 1159 3500 
L 1159 2956 
Q 1356 3278 1631 3431 
Q 1906 3584 2284 3584 
Q 2666 3584 2933 3390 
Q 3200 3197 3328 2828 
z
" transform="scale(0.015625)"/>
       <path id="DejaVuSans-69" d="M 603 3500 
L 1178 3500 
L 1178 0 
L 603 0 
L 603 3500 
z
M 603 4863 
L 1178 4863 
L 1178 4134 
L 603 4134 
L 603 4863 
z
" transform="scale(0.015625)"/>
       <path id="DejaVuSans-63" d="M 3122 3366 
L 3122 2828 
Q 2878 2963 2633 3030 
Q 2388 3097 2138 3097 
Q 1578 3097 1268 2742 
Q 959 2388 959 1747 
Q 959 1106 1268 751 
Q 1578 397 2138 397 
Q 2388 397 2633 464 
Q 2878 531 3122 666 
L 3122 134 
Q 2881 22 2623 -34 
Q 2366 -91 2075 -91 
Q 1284 -91 818 406 
Q 353 903 353 1747 
Q 353 2603 823 3093 
Q 1294 3584 2113 3584 
Q 2378 3584 2631 3529 
Q 2884 3475 3122 3366 
z
" transform="scale(0.015625)"/>
       <path id="DejaVuSans-20" transform="scale(0.015625)"/>
       <path id="DejaVuSans-64" d="M 2906 2969 
L 2906 4863 
L 3481 4863 
L 3481 0 
L 2906 0 
L 2906 525 
Q 2725 213 2448 61 
Q 2172 -91 1784 -91 
Q 1150 -91 751 415 
Q 353 922 353 1747 
Q 353 2572 751 3078 
Q 1150 3584 1784 3584 
Q 2172 3584 2448 3432 
Q 2725 3281 2906 2969 
z
M 947 1747 
Q 947 1113 1208 752 
Q 1469 391 1925 391 
Q 2381 391 2643 752 
Q 2906 1113 2906 1747 
Q 2906 2381 2643 2742 
Q 2381 3103 1925 3103 
Q 1469 3103 1208 2742 
Q 947 2381 947 1747 
z
" transform="scale(0.015625)"/>
       <path id="DejaVuSans-61" d="M 2194 1759 
Q 1497 1759 1228 1600 
Q 959 1441 959 1056 
Q 959 750 1161 570 
Q 1363 391 1709 391 
Q 2188 391 2477 730 
Q 2766 1069 2766 1631 
L 2766 1759 
L 2194 1759 
z
M 3341 1997 
L 3341 0 
L 2766 0 
L 2766 531 
Q 2569 213 2275 61 
Q 1981 -91 1556 -91 
Q 1019 -91 701 211 
Q 384 513 384 1019 
Q 384 1609 779 1909 
Q 1175 2209 1959 2209 
L 2766 2209 
L 2766 2266 
Q 2766 2663 2505 2880 
Q 2244 3097 1772 3097 
Q 1472 3097 1187 3025 
Q 903 2953 641 2809 
L 641 3341 
Q 956 3463 1253 3523 
Q 1550 3584 1831 3584 
Q 2591 3584 2966 3190 
Q 3341 2797 3341 1997 
z
" transform="scale(0.015625)"/>
       <path id="DejaVuSans-74" d="M 1172 4494 
L 1172 3500 
L 2356 3500 
L 2356 3053 
L 1172 3053 
L 1172 1153 
Q 1172 725 1289 603 
Q 1406 481 1766 481 
L 2356 481 
L 2356 0 
L 1766 0 
Q 1100 0 847 248 
Q 594 497 594 1153 
L 594 3053 
L 172 3053 
L 172 3500 
L 594 3500 
L 594 4494 
L 1172 4494 
z
" transform="scale(0.015625)"/>
      </defs>
      <use xlink:href="#DejaVuSans-47"/>
      <use xlink:href="#DejaVuSans-65" x="77.490234"/>
      <use xlink:href="#DejaVuSans-6e" x="139.013672"/>
      <use xlink:href="#DejaVuSans-6f" x="202.392578"/>
      <use xlink:href="#DejaVuSans-6d" x="263.574219"/>
      <use xlink:href="#DejaVuSans-69" x="360.986328"/>
      <use xlink:href="#DejaVuSans-63" x="388.769531"/>
      <use xlink:href="#DejaVuSans-20" x="443.75"/>
      <use xlink:href="#DejaVuSans-64" x="475.537109"/>
      <use xlink:href="#DejaVuSans-61" x="539.013672"/>
      <use xlink:href="#DejaVuSans-74" x="600.292969"/>
      <use xlink:href="#DejaVuSans-61" x="639.501953"/>
     </g>
    </g>
    <g id="patch_17">
     <path d="M 16.2 38.476562 
L 36.2 38.476562 
L 36.2 31.476562 
L 16.2 31.476562 
z
" style="fill: #ff0000"/>
    </g>
    <g id="text_9">
     <!-- Genetic code -->
     <g transform="translate(44.2 38.476562) scale(0.1 -0.1)">
      <use xlink:href="#DejaVuSans-47"/>
      <use xlink:href="#DejaVuSans-65" x="77.490234"/>
      <use xlink:href="#DejaVuSans-6e" x="139.013672"/>
      <use xlink:href="#DejaVuSans-65" x="202.392578"/>
      <use xlink:href="#DejaVuSans-74" x="263.916016"/>
      <use xlink:href="#DejaVuSans-69" x="303.125"/>
      <use xlink:href="#DejaVuSans-63" x="330.908203"/>
      <use xlink:href="#DejaVuSans-20" x="385.888672"/>
      <use xlink:href="#DejaVuSans-63" x="417.675781"/>
      <use xlink:href="#DejaVuSans-6f" x="472.65625"/>
      <use xlink:href="#DejaVuSans-64" x="533.837891"/>
      <use xlink:href="#DejaVuSans-65" x="597.314453"/>
     </g>
    </g>
   </g>
  </g>
 </g>
 <defs>
  <clipPath id="pf8875b9cdc">
   <rect x="7.2" y="7.2" width="558" height="549.671711"/>
  </clipPath>
 </defs>
</svg>
