<?xml version="1.0" encoding="utf-8" standalone="no"?>
<!DOCTYPE svg PUBLIC "-//W3C//DTD SVG 1.1//EN"
  "http://www.w3.org/Graphics/SVG/1.1/DTD/svg11.dtd">
<svg xmlns:xlink="http://www.w3.org/1999/xlink" width="887.98125pt" height="635.878125pt" viewBox="0 0 887.98125 635.878125" xmlns="http://www.w3.org/2000/svg" version="1.1">
 <metadata>
  <rdf:RDF xmlns:dc="http://purl.org/dc/elements/1.1/" xmlns:cc="http://creativecommons.org/ns#" xmlns:rdf="http://www.w3.org/1999/02/22-rdf-syntax-ns#">
   <cc:Work>
    <dc:type rdf:resource="http://purl.org/dc/dcmitype/StillImage"/>
    <dc:date>2024-09-24T16:02:43.081077</dc:date>
    <dc:format>image/svg+xml</dc:format>
    <dc:creator>
     <cc:Agent>
      <dc:title>Matplotlib v3.8.3, https://matplotlib.org/</dc:title>
     </cc:Agent>
    </dc:creator>
   </cc:Work>
  </rdf:RDF>
 </metadata>
 <defs>
  <style type="text/css">*{stroke-linejoin: round; stroke-linecap: butt}</style>
 </defs>
 <g id="figure_1">
  <g id="patch_1">
   <path d="M 0 635.878125 
L 887.98125 635.878125 
L 887.98125 0 
L 0 0 
z
" style="fill: #ffffff"/>
  </g>
  <g id="axes_1">
   <g id="patch_2">
    <path d="M 43.78125 298.643478 
L 880.78125 298.643478 
L 880.78125 57.6 
L 43.78125 57.6 
z
" style="fill: #ffffff"/>
   </g>
   <g id="PolyCollection_1">
    <defs>
     <path id="me3fbabb5cf" d="M 111.701287 -337.308758 
L 111.701287 -337.234647 
L 115.531252 -337.234647 
L 119.361218 -337.234647 
L 123.191184 -337.234647 
L 127.02115 -337.234647 
L 130.851116 -337.234647 
L 134.681082 -337.234647 
L 138.511048 -337.234647 
L 142.341014 -337.234647 
L 146.170979 -337.234647 
L 150.000945 -337.234647 
L 153.830911 -337.234647 
L 157.660877 -337.234647 
L 161.490843 -337.234647 
L 165.320809 -337.234647 
L 169.150775 -337.234647 
L 172.98074 -337.234647 
L 176.810706 -337.234647 
L 180.640672 -337.234647 
L 184.470638 -337.234647 
L 188.300604 -337.234647 
L 192.13057 -337.234647 
L 195.960536 -337.234647 
L 199.790502 -337.234647 
L 203.620467 -337.234647 
L 207.450433 -337.234647 
L 211.280399 -337.234647 
L 215.110365 -337.234647 
L 218.940331 -337.234647 
L 222.770297 -337.234647 
L 226.600263 -337.234647 
L 230.430228 -337.234647 
L 234.260194 -337.234647 
L 238.09016 -337.234647 
L 241.920126 -337.234647 
L 245.750092 -337.234647 
L 249.580058 -337.234647 
L 253.410024 -337.234647 
L 257.23999 -337.234647 
L 261.069955 -337.234647 
L 264.899921 -337.234647 
L 268.729887 -337.234647 
L 272.559853 -337.234647 
L 276.389819 -337.234647 
L 280.219785 -337.234647 
L 284.049751 -337.234647 
L 287.879716 -337.234647 
L 291.709682 -337.234647 
L 295.539648 -337.234647 
L 299.369614 -337.234647 
L 303.19958 -337.234647 
L 307.029546 -337.234647 
L 310.859512 -337.234647 
L 314.689478 -337.234647 
L 318.519443 -337.234647 
L 322.349409 -337.234647 
L 326.179375 -337.234647 
L 330.009341 -337.234647 
L 333.839307 -337.234647 
L 337.669273 -337.234647 
L 341.499239 -337.234647 
L 345.329204 -337.234647 
L 349.15917 -337.234647 
L 352.989136 -337.234647 
L 356.819102 -337.234647 
L 360.649068 -337.234647 
L 364.479034 -337.234647 
L 368.309 -337.234647 
L 372.138966 -337.234647 
L 375.968931 -337.234647 
L 379.798897 -337.234647 
L 383.628863 -337.234647 
L 387.458829 -337.234647 
L 391.288795 -337.234647 
L 395.118761 -337.234647 
L 398.948727 -337.234647 
L 402.778693 -337.234647 
L 406.608658 -337.234647 
L 410.438624 -337.234647 
L 414.26859 -337.234647 
L 418.098556 -337.234647 
L 421.928522 -337.234647 
L 425.758488 -337.234647 
L 429.588454 -337.234647 
L 433.418419 -337.234647 
L 437.248385 -337.234647 
L 441.078351 -337.234647 
L 444.908317 -337.234647 
L 448.738283 -337.234647 
L 452.568249 -337.234647 
L 456.398215 -337.234647 
L 460.228181 -337.234647 
L 464.058146 -337.234647 
L 467.888112 -337.234647 
L 471.718078 -337.234647 
L 475.548044 -337.234647 
L 479.37801 -337.234647 
L 483.207976 -337.234647 
L 487.037942 -337.234647 
L 490.867907 -337.234647 
L 494.697873 -337.234647 
L 498.527839 -337.234647 
L 502.357805 -337.234647 
L 506.187771 -337.234647 
L 510.017737 -337.234647 
L 513.847703 -337.234647 
L 517.677669 -337.234647 
L 521.507634 -337.234647 
L 525.3376 -337.234647 
L 529.167566 -337.234647 
L 532.997532 -337.234647 
L 536.827498 -337.234647 
L 540.657464 -337.234647 
L 544.48743 -337.234647 
L 548.317395 -337.234647 
L 552.147361 -337.234647 
L 555.977327 -337.234647 
L 559.807293 -337.234647 
L 563.637259 -337.234647 
L 567.467225 -337.234647 
L 571.297191 -337.234647 
L 575.127157 -337.234647 
L 578.957122 -337.234647 
L 582.787088 -337.234647 
L 586.617054 -337.234647 
L 590.44702 -337.234647 
L 594.276986 -337.234647 
L 598.106952 -337.234647 
L 601.936918 -337.234647 
L 605.766883 -337.234647 
L 609.596849 -337.234647 
L 613.426815 -337.234647 
L 617.256781 -337.234647 
L 621.086747 -337.234647 
L 624.916713 -337.234647 
L 628.746679 -337.234647 
L 632.576645 -337.234647 
L 636.40661 -337.234647 
L 640.236576 -337.234647 
L 644.066542 -337.234647 
L 647.896508 -337.234647 
L 651.726474 -337.234647 
L 655.55644 -337.234647 
L 659.386406 -337.234647 
L 663.216371 -337.234647 
L 667.046337 -337.234647 
L 670.876303 -337.234647 
L 674.706269 -337.234647 
L 678.536235 -337.234647 
L 682.366201 -337.234647 
L 686.196167 -337.234647 
L 690.026133 -337.234647 
L 693.856098 -337.234647 
L 697.686064 -337.234647 
L 701.51603 -337.234647 
L 705.345996 -337.234647 
L 709.175962 -337.234647 
L 713.005928 -337.234647 
L 716.835894 -337.234647 
L 720.665859 -337.234647 
L 724.495825 -337.234647 
L 728.325791 -337.234647 
L 732.155757 -337.234647 
L 735.985723 -337.234647 
L 739.815689 -337.234647 
L 743.645655 -337.234647 
L 747.475621 -337.234647 
L 751.305586 -337.234647 
L 755.135552 -337.234647 
L 758.965518 -337.234647 
L 762.795484 -337.234647 
L 766.62545 -337.234647 
L 770.455416 -337.234647 
L 774.285382 -337.234647 
L 778.115348 -337.234647 
L 781.945313 -337.234647 
L 785.775279 -337.234647 
L 789.605245 -337.234647 
L 793.435211 -337.234647 
L 797.265177 -337.234647 
L 801.095143 -337.234647 
L 804.925109 -337.234647 
L 808.755074 -337.234647 
L 812.58504 -337.234647 
L 816.415006 -337.234647 
L 820.244972 -337.234647 
L 824.074938 -337.234647 
L 827.904904 -337.234647 
L 831.73487 -337.234647 
L 835.564836 -337.234647 
L 839.394801 -337.234647 
L 843.224767 -337.234647 
L 847.054733 -337.234647 
L 850.884699 -337.234647 
L 854.714665 -337.234647 
L 858.544631 -337.234647 
L 862.374597 -337.234647 
L 866.204562 -337.234647 
L 870.034528 -337.234647 
L 873.864494 -337.234647 
L 873.864494 -337.305057 
L 873.864494 -337.305057 
L 870.034528 -337.326806 
L 866.204562 -337.354278 
L 862.374597 -337.388657 
L 858.544631 -337.431279 
L 854.714665 -337.483625 
L 850.884699 -337.547308 
L 847.054733 -337.624043 
L 843.224767 -337.715617 
L 839.394801 -337.823838 
L 835.564836 -337.950478 
L 831.73487 -338.0972 
L 827.904904 -338.265479 
L 824.074938 -338.456514 
L 820.244972 -338.671141 
L 816.415006 -338.909741 
L 812.58504 -339.17216 
L 808.755074 -339.45764 
L 804.925109 -339.764774 
L 801.095143 -340.091482 
L 797.265177 -340.435026 
L 793.435211 -340.792059 
L 789.605245 -341.158719 
L 785.775279 -341.530761 
L 781.945313 -341.903737 
L 778.115348 -342.273213 
L 774.285382 -342.635009 
L 770.455416 -342.985477 
L 766.62545 -343.321776 
L 762.795484 -343.64215 
L 758.965518 -343.946187 
L 755.135552 -344.235044 
L 751.305586 -344.511623 
L 747.475621 -344.780689 
L 743.645655 -345.048913 
L 739.815689 -345.324839 
L 735.985723 -345.618763 
L 732.155757 -345.94254 
L 728.325791 -346.309311 
L 724.495825 -346.733174 
L 720.665859 -347.228801 
L 716.835894 -347.811033 
L 713.005928 -348.494474 
L 709.175962 -349.293097 
L 705.345996 -350.219894 
L 701.51603 -351.2866 
L 697.686064 -352.503488 
L 693.856098 -353.879275 
L 690.026133 -355.421124 
L 686.196167 -357.134764 
L 682.366201 -359.024705 
L 678.536235 -361.094544 
L 674.706269 -363.347337 
L 670.876303 -365.786006 
L 667.046337 -368.413751 
L 663.216371 -371.234429 
L 659.386406 -374.252857 
L 655.55644 -377.475015 
L 651.726474 -380.908097 
L 647.896508 -384.560403 
L 644.066542 -388.441052 
L 640.236576 -392.559498 
L 636.40661 -396.924882 
L 632.576645 -401.545221 
L 628.746679 -406.426476 
L 624.916713 -411.571547 
L 621.086747 -416.97925 
L 617.256781 -422.643329 
L 613.426815 -428.55158 
L 609.596849 -434.685137 
L 605.766883 -441.017986 
L 601.936918 -447.516745 
L 598.106952 -454.140747 
L 594.276986 -460.842452 
L 590.44702 -467.568167 
L 586.617054 -474.259083 
L 582.787088 -480.852566 
L 578.957122 -487.283676 
L 575.127157 -493.486831 
L 571.297191 -499.397549 
L 567.467225 -504.954196 
L 563.637259 -510.099656 
L 559.807293 -514.782846 
L 555.977327 -518.960022 
L 552.147361 -522.595815 
L 548.317395 -525.66396 
L 544.48743 -528.147699 
L 540.657464 -530.039851 
L 536.827498 -531.342563 
L 532.997532 -532.06676 
L 529.167566 -532.231353 
L 525.3376 -531.862226 
L 521.507634 -530.991081 
L 517.677669 -529.65419 
L 513.847703 -527.89111 
L 510.017737 -525.743432 
L 506.187771 -523.253597 
L 502.357805 -520.46383 
L 498.527839 -517.41524 
L 494.697873 -514.147084 
L 490.867907 -510.696228 
L 487.037942 -507.096806 
L 483.207976 -503.380051 
L 479.37801 -499.574299 
L 475.548044 -495.705131 
L 471.718078 -491.795612 
L 467.888112 -487.866603 
L 464.058146 -483.937089 
L 460.228181 -480.024504 
L 456.398215 -476.144997 
L 452.568249 -472.313628 
L 448.738283 -468.544467 
L 444.908317 -464.850581 
L 441.078351 -461.243924 
L 437.248385 -457.735132 
L 433.418419 -454.33325 
L 429.588454 -451.045419 
L 425.758488 -447.876569 
L 421.928522 -444.82914 
L 418.098556 -441.902884 
L 414.26859 -439.09478 
L 410.438624 -436.399066 
L 406.608658 -433.807435 
L 402.778693 -431.309368 
L 398.948727 -428.89261 
L 395.118761 -426.543758 
L 391.288795 -424.248935 
L 387.458829 -421.994501 
L 383.628863 -419.767752 
L 379.798897 -417.557578 
L 375.968931 -415.355008 
L 372.138966 -413.153635 
L 368.309 -410.949859 
L 364.479034 -408.742967 
L 360.649068 -406.53502 
L 356.819102 -404.330565 
L 352.989136 -402.13621 
L 349.15917 -399.960061 
L 345.329204 -397.811104 
L 341.499239 -395.698538 
L 337.669273 -393.631137 
L 333.839307 -391.616656 
L 330.009341 -389.661347 
L 326.179375 -387.769585 
L 322.349409 -385.94365 
L 318.519443 -384.183647 
L 314.689478 -382.487583 
L 310.859512 -380.85157 
L 307.029546 -379.270137 
L 303.19958 -377.73663 
L 299.369614 -376.243653 
L 295.539648 -374.78353 
L 291.709682 -373.348745 
L 287.879716 -371.932347 
L 284.049751 -370.52828 
L 280.219785 -369.131643 
L 276.389819 -367.738854 
L 272.559853 -366.347731 
L 268.729887 -364.957489 
L 264.899921 -363.568667 
L 261.069955 -362.182995 
L 257.23999 -360.803223 
L 253.410024 -359.432921 
L 249.580058 -358.076273 
L 245.750092 -356.737873 
L 241.920126 -355.422536 
L 238.09016 -354.135126 
L 234.260194 -352.880412 
L 230.430228 -351.662952 
L 226.600263 -350.486992 
L 222.770297 -349.3564 
L 218.940331 -348.274609 
L 215.110365 -347.244575 
L 211.280399 -346.268754 
L 207.450433 -345.349079 
L 203.620467 -344.486946 
L 199.790502 -343.683213 
L 195.960536 -342.938194 
L 192.13057 -342.251669 
L 188.300604 -341.622899 
L 184.470638 -341.050646 
L 180.640672 -340.533207 
L 176.810706 -340.068457 
L 172.98074 -339.653893 
L 169.150775 -339.286699 
L 165.320809 -338.963805 
L 161.490843 -338.681956 
L 157.660877 -338.43778 
L 153.830911 -338.227856 
L 150.000945 -338.048778 
L 146.170979 -337.897215 
L 142.341014 -337.76996 
L 138.511048 -337.663973 
L 134.681082 -337.576417 
L 130.851116 -337.50468 
L 127.02115 -337.446387 
L 123.191184 -337.399413 
L 119.361218 -337.361875 
L 115.531252 -337.33213 
L 111.701287 -337.308758 
z
" style="stroke: #ff7f0e; stroke-width: 2.5"/>
    </defs>
    <g clip-path="url(#p96e26bcff0)">
     <use xlink:href="#me3fbabb5cf" x="0" y="635.878125" style="fill: #ff7f0e; fill-opacity: 0.5; stroke: #ff7f0e; stroke-width: 2.5"/>
    </g>
   </g>
   <g id="PolyCollection_2">
    <defs>
     <path id="ma965b26bf4" d="M 83.309024 -337.311605 
L 83.309024 -337.234647 
L 86.953297 -337.234647 
L 90.597571 -337.234647 
L 94.241845 -337.234647 
L 97.886119 -337.234647 
L 101.530393 -337.234647 
L 105.174667 -337.234647 
L 108.818941 -337.234647 
L 112.463215 -337.234647 
L 116.107489 -337.234647 
L 119.751763 -337.234647 
L 123.396037 -337.234647 
L 127.040311 -337.234647 
L 130.684585 -337.234647 
L 134.328859 -337.234647 
L 137.973133 -337.234647 
L 141.617407 -337.234647 
L 145.261681 -337.234647 
L 148.905955 -337.234647 
L 152.550229 -337.234647 
L 156.194503 -337.234647 
L 159.838777 -337.234647 
L 163.483051 -337.234647 
L 167.127325 -337.234647 
L 170.771599 -337.234647 
L 174.415873 -337.234647 
L 178.060147 -337.234647 
L 181.70442 -337.234647 
L 185.348694 -337.234647 
L 188.992968 -337.234647 
L 192.637242 -337.234647 
L 196.281516 -337.234647 
L 199.92579 -337.234647 
L 203.570064 -337.234647 
L 207.214338 -337.234647 
L 210.858612 -337.234647 
L 214.502886 -337.234647 
L 218.14716 -337.234647 
L 221.791434 -337.234647 
L 225.435708 -337.234647 
L 229.079982 -337.234647 
L 232.724256 -337.234647 
L 236.36853 -337.234647 
L 240.012804 -337.234647 
L 243.657078 -337.234647 
L 247.301352 -337.234647 
L 250.945626 -337.234647 
L 254.5899 -337.234647 
L 258.234174 -337.234647 
L 261.878448 -337.234647 
L 265.522722 -337.234647 
L 269.166996 -337.234647 
L 272.81127 -337.234647 
L 276.455543 -337.234647 
L 280.099817 -337.234647 
L 283.744091 -337.234647 
L 287.388365 -337.234647 
L 291.032639 -337.234647 
L 294.676913 -337.234647 
L 298.321187 -337.234647 
L 301.965461 -337.234647 
L 305.609735 -337.234647 
L 309.254009 -337.234647 
L 312.898283 -337.234647 
L 316.542557 -337.234647 
L 320.186831 -337.234647 
L 323.831105 -337.234647 
L 327.475379 -337.234647 
L 331.119653 -337.234647 
L 334.763927 -337.234647 
L 338.408201 -337.234647 
L 342.052475 -337.234647 
L 345.696749 -337.234647 
L 349.341023 -337.234647 
L 352.985297 -337.234647 
L 356.629571 -337.234647 
L 360.273845 -337.234647 
L 363.918119 -337.234647 
L 367.562393 -337.234647 
L 371.206666 -337.234647 
L 374.85094 -337.234647 
L 378.495214 -337.234647 
L 382.139488 -337.234647 
L 385.783762 -337.234647 
L 389.428036 -337.234647 
L 393.07231 -337.234647 
L 396.716584 -337.234647 
L 400.360858 -337.234647 
L 404.005132 -337.234647 
L 407.649406 -337.234647 
L 411.29368 -337.234647 
L 414.937954 -337.234647 
L 418.582228 -337.234647 
L 422.226502 -337.234647 
L 425.870776 -337.234647 
L 429.51505 -337.234647 
L 433.159324 -337.234647 
L 436.803598 -337.234647 
L 440.447872 -337.234647 
L 444.092146 -337.234647 
L 447.73642 -337.234647 
L 451.380694 -337.234647 
L 455.024968 -337.234647 
L 458.669242 -337.234647 
L 462.313516 -337.234647 
L 465.957789 -337.234647 
L 469.602063 -337.234647 
L 473.246337 -337.234647 
L 476.890611 -337.234647 
L 480.534885 -337.234647 
L 484.179159 -337.234647 
L 487.823433 -337.234647 
L 491.467707 -337.234647 
L 495.111981 -337.234647 
L 498.756255 -337.234647 
L 502.400529 -337.234647 
L 506.044803 -337.234647 
L 509.689077 -337.234647 
L 513.333351 -337.234647 
L 516.977625 -337.234647 
L 520.621899 -337.234647 
L 524.266173 -337.234647 
L 527.910447 -337.234647 
L 531.554721 -337.234647 
L 535.198995 -337.234647 
L 538.843269 -337.234647 
L 542.487543 -337.234647 
L 546.131817 -337.234647 
L 549.776091 -337.234647 
L 553.420365 -337.234647 
L 557.064639 -337.234647 
L 560.708912 -337.234647 
L 564.353186 -337.234647 
L 567.99746 -337.234647 
L 571.641734 -337.234647 
L 575.286008 -337.234647 
L 578.930282 -337.234647 
L 582.574556 -337.234647 
L 586.21883 -337.234647 
L 589.863104 -337.234647 
L 593.507378 -337.234647 
L 597.151652 -337.234647 
L 600.795926 -337.234647 
L 604.4402 -337.234647 
L 608.084474 -337.234647 
L 611.728748 -337.234647 
L 615.373022 -337.234647 
L 619.017296 -337.234647 
L 622.66157 -337.234647 
L 626.305844 -337.234647 
L 629.950118 -337.234647 
L 633.594392 -337.234647 
L 637.238666 -337.234647 
L 640.88294 -337.234647 
L 644.527214 -337.234647 
L 648.171488 -337.234647 
L 651.815762 -337.234647 
L 655.460035 -337.234647 
L 659.104309 -337.234647 
L 662.748583 -337.234647 
L 666.392857 -337.234647 
L 670.037131 -337.234647 
L 673.681405 -337.234647 
L 677.325679 -337.234647 
L 680.969953 -337.234647 
L 684.614227 -337.234647 
L 688.258501 -337.234647 
L 691.902775 -337.234647 
L 695.547049 -337.234647 
L 699.191323 -337.234647 
L 702.835597 -337.234647 
L 706.479871 -337.234647 
L 710.124145 -337.234647 
L 713.768419 -337.234647 
L 717.412693 -337.234647 
L 721.056967 -337.234647 
L 724.701241 -337.234647 
L 728.345515 -337.234647 
L 731.989789 -337.234647 
L 735.634063 -337.234647 
L 739.278337 -337.234647 
L 742.922611 -337.234647 
L 746.566885 -337.234647 
L 750.211158 -337.234647 
L 753.855432 -337.234647 
L 757.499706 -337.234647 
L 761.14398 -337.234647 
L 764.788254 -337.234647 
L 768.432528 -337.234647 
L 772.076802 -337.234647 
L 775.721076 -337.234647 
L 779.36535 -337.234647 
L 783.009624 -337.234647 
L 786.653898 -337.234647 
L 790.298172 -337.234647 
L 793.942446 -337.234647 
L 797.58672 -337.234647 
L 801.230994 -337.234647 
L 804.875268 -337.234647 
L 808.519542 -337.234647 
L 808.519542 -337.311837 
L 808.519542 -337.311837 
L 804.875268 -337.336798 
L 801.230994 -337.368635 
L 797.58672 -337.408842 
L 793.942446 -337.459118 
L 790.298172 -337.521359 
L 786.653898 -337.597643 
L 783.009624 -337.690199 
L 779.36535 -337.801365 
L 775.721076 -337.933528 
L 772.076802 -338.08905 
L 768.432528 -338.270179 
L 764.788254 -338.478957 
L 761.14398 -338.717106 
L 757.499706 -338.985928 
L 753.855432 -339.286199 
L 750.211158 -339.618081 
L 746.566885 -339.98105 
L 742.922611 -340.373857 
L 739.278337 -340.794524 
L 735.634063 -341.240379 
L 731.989789 -341.708138 
L 728.345515 -342.194042 
L 724.701241 -342.69403 
L 721.056967 -343.203958 
L 717.412693 -343.719861 
L 713.768419 -344.238225 
L 710.124145 -344.75628 
L 706.479871 -345.272291 
L 702.835597 -345.785825 
L 699.191323 -346.297998 
L 695.547049 -346.811667 
L 691.902775 -347.331576 
L 688.258501 -347.864441 
L 684.614227 -348.418969 
L 680.969953 -349.005812 
L 677.325679 -349.637458 
L 673.681405 -350.32807 
L 670.037131 -351.093266 
L 666.392857 -351.949861 
L 662.748583 -352.915569 
L 659.104309 -354.008676 
L 655.460035 -355.247684 
L 651.815762 -356.650935 
L 648.171488 -358.236212 
L 644.527214 -360.020321 
L 640.88294 -362.01866 
L 637.238666 -364.244768 
L 633.594392 -366.709873 
L 629.950118 -369.42244 
L 626.305844 -372.387734 
L 622.66157 -375.607417 
L 619.017296 -379.079207 
L 615.373022 -382.796607 
L 611.728748 -386.748754 
L 608.084474 -390.92039 
L 604.4402 -395.291999 
L 600.795926 -399.84011 
L 597.151652 -404.537782 
L 593.507378 -409.355269 
L 589.863104 -414.260853 
L 586.21883 -419.221801 
L 582.574556 -424.205433 
L 578.930282 -429.18022 
L 575.286008 -434.116873 
L 571.641734 -438.989352 
L 567.99746 -443.775727 
L 564.353186 -448.458833 
L 560.708912 -453.026685 
L 557.064639 -457.472595 
L 553.420365 -461.795003 
L 549.776091 -465.997013 
L 546.131817 -470.085663 
L 542.487543 -474.070984 
L 538.843269 -477.964907 
L 535.198995 -481.780076 
L 531.554721 -485.528676 
L 527.910447 -489.221308 
L 524.266173 -492.86601 
L 520.621899 -496.46746 
L 516.977625 -500.026381 
L 513.333351 -503.539185 
L 509.689077 -506.997825 
L 506.044803 -510.389848 
L 502.400529 -513.698604 
L 498.756255 -516.903575 
L 495.111981 -519.980779 
L 491.467707 -522.903225 
L 487.823433 -525.641385 
L 484.179159 -528.163673 
L 480.534885 -530.43695 
L 476.890611 -532.427048 
L 473.246337 -534.099359 
L 469.602063 -535.419501 
L 465.957789 -536.354096 
L 462.313516 -536.871665 
L 458.669242 -536.943643 
L 455.024968 -536.545495 
L 451.380694 -535.65789 
L 447.73642 -534.267882 
L 444.092146 -532.370016 
L 440.447872 -529.967286 
L 436.803598 -527.071854 
L 433.159324 -523.705461 
L 429.51505 -519.899462 
L 425.870776 -515.694451 
L 422.226502 -511.13945 
L 418.582228 -506.290697 
L 414.937954 -501.21005 
L 411.29368 -495.9631 
L 407.649406 -490.617068 
L 404.005132 -485.238602 
L 400.360858 -479.891574 
L 396.716584 -474.635004 
L 393.07231 -469.521196 
L 389.428036 -464.594193 
L 385.783762 -459.8886 
L 382.139488 -455.428838 
L 378.495214 -451.228842 
L 374.85094 -447.292193 
L 371.206666 -443.612682 
L 367.562393 -440.175233 
L 363.918119 -436.957154 
L 360.273845 -433.929626 
L 356.629571 -431.059362 
L 352.985297 -428.310353 
L 349.341023 -425.645623 
L 345.696749 -423.02892 
L 342.052475 -420.426266 
L 338.408201 -417.807317 
L 334.763927 -415.146487 
L 331.119653 -412.423789 
L 327.475379 -409.62539 
L 323.831105 -406.743864 
L 320.186831 -403.778149 
L 316.542557 -400.733243 
L 312.898283 -397.619656 
L 309.254009 -394.452675 
L 305.609735 -391.251473 
L 301.965461 -388.038137 
L 298.321187 -384.836649 
L 294.676913 -381.671876 
L 291.032639 -378.568622 
L 287.388365 -375.550762 
L 283.744091 -372.6405 
L 280.099817 -369.857762 
L 276.455543 -367.219736 
L 272.81127 -364.740545 
L 269.166996 -362.43106 
L 265.522722 -360.298833 
L 261.878448 -358.34812 
L 258.234174 -356.58 
L 254.5899 -354.992543 
L 250.945626 -353.581039 
L 247.301352 -352.338251 
L 243.657078 -351.254703 
L 240.012804 -350.318986 
L 236.36853 -349.518075 
L 232.724256 -348.837679 
L 229.079982 -348.262586 
L 225.435708 -347.777036 
L 221.791434 -347.365099 
L 218.14716 -347.011053 
L 214.502886 -346.69976 
L 210.858612 -346.417026 
L 207.214338 -346.149926 
L 203.570064 -345.887098 
L 199.92579 -345.618963 
L 196.281516 -345.3379 
L 192.637242 -345.038327 
L 188.992968 -344.716719 
L 185.348694 -344.371531 
L 181.70442 -344.003063 
L 178.060147 -343.613248 
L 174.415873 -343.205392 
L 170.771599 -342.783875 
L 167.127325 -342.353835 
L 163.483051 -341.920843 
L 159.838777 -341.490596 
L 156.194503 -341.068637 
L 152.550229 -340.660112 
L 148.905955 -340.269578 
L 145.261681 -339.900858 
L 141.617407 -339.556957 
L 137.973133 -339.240024 
L 134.328859 -338.951356 
L 130.684585 -338.691453 
L 127.040311 -338.460094 
L 123.396037 -338.256434 
L 119.751763 -338.079124 
L 116.107489 -337.926425 
L 112.463215 -337.796329 
L 108.818941 -337.68666 
L 105.174667 -337.595178 
L 101.530393 -337.519658 
L 97.886119 -337.457955 
L 94.241845 -337.408054 
L 90.597571 -337.368106 
L 86.953297 -337.336446 
L 83.309024 -337.311605 
z
" style="stroke: #1f77b4; stroke-width: 2.5"/>
    </defs>
    <g clip-path="url(#p96e26bcff0)">
     <use xlink:href="#ma965b26bf4" x="0" y="635.878125" style="fill: #1f77b4; fill-opacity: 0.5; stroke: #1f77b4; stroke-width: 2.5"/>
    </g>
   </g>
   <g id="matplotlib.axis_1">
    <g id="xtick_1">
     <g id="line2d_1">
      <defs>
       <path id="maf4fe0813e" d="M 0 0 
L 0 3.5 
" style="stroke: #000000; stroke-width: 0.8"/>
      </defs>
      <g>
       <use xlink:href="#maf4fe0813e" x="133.519269" y="298.643478" style="stroke: #000000; stroke-width: 0.8"/>
      </g>
     </g>
     <g id="text_1">
      <!-- 0.0 -->
      <g transform="translate(125.567707 313.241916) scale(0.1 -0.1)">
       <defs>
        <path id="DejaVuSans-30" d="M 2034 4250 
Q 1547 4250 1301 3770 
Q 1056 3291 1056 2328 
Q 1056 1369 1301 889 
Q 1547 409 2034 409 
Q 2525 409 2770 889 
Q 3016 1369 3016 2328 
Q 3016 3291 2770 3770 
Q 2525 4250 2034 4250 
z
M 2034 4750 
Q 2819 4750 3233 4129 
Q 3647 3509 3647 2328 
Q 3647 1150 3233 529 
Q 2819 -91 2034 -91 
Q 1250 -91 836 529 
Q 422 1150 422 2328 
Q 422 3509 836 4129 
Q 1250 4750 2034 4750 
z
" transform="scale(0.015625)"/>
        <path id="DejaVuSans-2e" d="M 684 794 
L 1344 794 
L 1344 0 
L 684 0 
L 684 794 
z
" transform="scale(0.015625)"/>
       </defs>
       <use xlink:href="#DejaVuSans-30"/>
       <use xlink:href="#DejaVuSans-2e" x="63.623047"/>
       <use xlink:href="#DejaVuSans-30" x="95.410156"/>
      </g>
     </g>
    </g>
    <g id="xtick_2">
     <g id="line2d_2">
      <g>
       <use xlink:href="#maf4fe0813e" x="290.085885" y="298.643478" style="stroke: #000000; stroke-width: 0.8"/>
      </g>
     </g>
     <g id="text_2">
      <!-- 0.2 -->
      <g transform="translate(282.134322 313.241916) scale(0.1 -0.1)">
       <defs>
        <path id="DejaVuSans-32" d="M 1228 531 
L 3431 531 
L 3431 0 
L 469 0 
L 469 531 
Q 828 903 1448 1529 
Q 2069 2156 2228 2338 
Q 2531 2678 2651 2914 
Q 2772 3150 2772 3378 
Q 2772 3750 2511 3984 
Q 2250 4219 1831 4219 
Q 1534 4219 1204 4116 
Q 875 4013 500 3803 
L 500 4441 
Q 881 4594 1212 4672 
Q 1544 4750 1819 4750 
Q 2544 4750 2975 4387 
Q 3406 4025 3406 3419 
Q 3406 3131 3298 2873 
Q 3191 2616 2906 2266 
Q 2828 2175 2409 1742 
Q 1991 1309 1228 531 
z
" transform="scale(0.015625)"/>
       </defs>
       <use xlink:href="#DejaVuSans-30"/>
       <use xlink:href="#DejaVuSans-2e" x="63.623047"/>
       <use xlink:href="#DejaVuSans-32" x="95.410156"/>
      </g>
     </g>
    </g>
    <g id="xtick_3">
     <g id="line2d_3">
      <g>
       <use xlink:href="#maf4fe0813e" x="446.652501" y="298.643478" style="stroke: #000000; stroke-width: 0.8"/>
      </g>
     </g>
     <g id="text_3">
      <!-- 0.4 -->
      <g transform="translate(438.700938 313.241916) scale(0.1 -0.1)">
       <defs>
        <path id="DejaVuSans-34" d="M 2419 4116 
L 825 1625 
L 2419 1625 
L 2419 4116 
z
M 2253 4666 
L 3047 4666 
L 3047 1625 
L 3713 1625 
L 3713 1100 
L 3047 1100 
L 3047 0 
L 2419 0 
L 2419 1100 
L 313 1100 
L 313 1709 
L 2253 4666 
z
" transform="scale(0.015625)"/>
       </defs>
       <use xlink:href="#DejaVuSans-30"/>
       <use xlink:href="#DejaVuSans-2e" x="63.623047"/>
       <use xlink:href="#DejaVuSans-34" x="95.410156"/>
      </g>
     </g>
    </g>
    <g id="xtick_4">
     <g id="line2d_4">
      <g>
       <use xlink:href="#maf4fe0813e" x="603.219117" y="298.643478" style="stroke: #000000; stroke-width: 0.8"/>
      </g>
     </g>
     <g id="text_4">
      <!-- 0.6 -->
      <g transform="translate(595.267554 313.241916) scale(0.1 -0.1)">
       <defs>
        <path id="DejaVuSans-36" d="M 2113 2584 
Q 1688 2584 1439 2293 
Q 1191 2003 1191 1497 
Q 1191 994 1439 701 
Q 1688 409 2113 409 
Q 2538 409 2786 701 
Q 3034 994 3034 1497 
Q 3034 2003 2786 2293 
Q 2538 2584 2113 2584 
z
M 3366 4563 
L 3366 3988 
Q 3128 4100 2886 4159 
Q 2644 4219 2406 4219 
Q 1781 4219 1451 3797 
Q 1122 3375 1075 2522 
Q 1259 2794 1537 2939 
Q 1816 3084 2150 3084 
Q 2853 3084 3261 2657 
Q 3669 2231 3669 1497 
Q 3669 778 3244 343 
Q 2819 -91 2113 -91 
Q 1303 -91 875 529 
Q 447 1150 447 2328 
Q 447 3434 972 4092 
Q 1497 4750 2381 4750 
Q 2619 4750 2861 4703 
Q 3103 4656 3366 4563 
z
" transform="scale(0.015625)"/>
       </defs>
       <use xlink:href="#DejaVuSans-30"/>
       <use xlink:href="#DejaVuSans-2e" x="63.623047"/>
       <use xlink:href="#DejaVuSans-36" x="95.410156"/>
      </g>
     </g>
    </g>
    <g id="xtick_5">
     <g id="line2d_5">
      <g>
       <use xlink:href="#maf4fe0813e" x="759.785733" y="298.643478" style="stroke: #000000; stroke-width: 0.8"/>
      </g>
     </g>
     <g id="text_5">
      <!-- 0.8 -->
      <g transform="translate(751.83417 313.241916) scale(0.1 -0.1)">
       <defs>
        <path id="DejaVuSans-38" d="M 2034 2216 
Q 1584 2216 1326 1975 
Q 1069 1734 1069 1313 
Q 1069 891 1326 650 
Q 1584 409 2034 409 
Q 2484 409 2743 651 
Q 3003 894 3003 1313 
Q 3003 1734 2745 1975 
Q 2488 2216 2034 2216 
z
M 1403 2484 
Q 997 2584 770 2862 
Q 544 3141 544 3541 
Q 544 4100 942 4425 
Q 1341 4750 2034 4750 
Q 2731 4750 3128 4425 
Q 3525 4100 3525 3541 
Q 3525 3141 3298 2862 
Q 3072 2584 2669 2484 
Q 3125 2378 3379 2068 
Q 3634 1759 3634 1313 
Q 3634 634 3220 271 
Q 2806 -91 2034 -91 
Q 1263 -91 848 271 
Q 434 634 434 1313 
Q 434 1759 690 2068 
Q 947 2378 1403 2484 
z
M 1172 3481 
Q 1172 3119 1398 2916 
Q 1625 2713 2034 2713 
Q 2441 2713 2670 2916 
Q 2900 3119 2900 3481 
Q 2900 3844 2670 4047 
Q 2441 4250 2034 4250 
Q 1625 4250 1398 4047 
Q 1172 3844 1172 3481 
z
" transform="scale(0.015625)"/>
       </defs>
       <use xlink:href="#DejaVuSans-30"/>
       <use xlink:href="#DejaVuSans-2e" x="63.623047"/>
       <use xlink:href="#DejaVuSans-38" x="95.410156"/>
      </g>
     </g>
    </g>
   </g>
   <g id="matplotlib.axis_2">
    <g id="ytick_1">
     <g id="line2d_6">
      <defs>
       <path id="m93c6052d8f" d="M 0 0 
L -3.5 0 
" style="stroke: #000000; stroke-width: 0.8"/>
      </defs>
      <g>
       <use xlink:href="#m93c6052d8f" x="43.78125" y="298.643478" style="stroke: #000000; stroke-width: 0.8"/>
      </g>
     </g>
     <g id="text_6">
      <!-- 0.0 -->
      <g transform="translate(20.878125 302.442697) scale(0.1 -0.1)">
       <use xlink:href="#DejaVuSans-30"/>
       <use xlink:href="#DejaVuSans-2e" x="63.623047"/>
       <use xlink:href="#DejaVuSans-30" x="95.410156"/>
      </g>
     </g>
    </g>
    <g id="ytick_2">
     <g id="line2d_7">
      <g>
       <use xlink:href="#m93c6052d8f" x="43.78125" y="269.638027" style="stroke: #000000; stroke-width: 0.8"/>
      </g>
     </g>
     <g id="text_7">
      <!-- 0.5 -->
      <g transform="translate(20.878125 273.437246) scale(0.1 -0.1)">
       <defs>
        <path id="DejaVuSans-35" d="M 691 4666 
L 3169 4666 
L 3169 4134 
L 1269 4134 
L 1269 2991 
Q 1406 3038 1543 3061 
Q 1681 3084 1819 3084 
Q 2600 3084 3056 2656 
Q 3513 2228 3513 1497 
Q 3513 744 3044 326 
Q 2575 -91 1722 -91 
Q 1428 -91 1123 -41 
Q 819 9 494 109 
L 494 744 
Q 775 591 1075 516 
Q 1375 441 1709 441 
Q 2250 441 2565 725 
Q 2881 1009 2881 1497 
Q 2881 1984 2565 2268 
Q 2250 2553 1709 2553 
Q 1456 2553 1204 2497 
Q 953 2441 691 2322 
L 691 4666 
z
" transform="scale(0.015625)"/>
       </defs>
       <use xlink:href="#DejaVuSans-30"/>
       <use xlink:href="#DejaVuSans-2e" x="63.623047"/>
       <use xlink:href="#DejaVuSans-35" x="95.410156"/>
      </g>
     </g>
    </g>
    <g id="ytick_3">
     <g id="line2d_8">
      <g>
       <use xlink:href="#m93c6052d8f" x="43.78125" y="240.632575" style="stroke: #000000; stroke-width: 0.8"/>
      </g>
     </g>
     <g id="text_8">
      <!-- 1.0 -->
      <g transform="translate(20.878125 244.431794) scale(0.1 -0.1)">
       <defs>
        <path id="DejaVuSans-31" d="M 794 531 
L 1825 531 
L 1825 4091 
L 703 3866 
L 703 4441 
L 1819 4666 
L 2450 4666 
L 2450 531 
L 3481 531 
L 3481 0 
L 794 0 
L 794 531 
z
" transform="scale(0.015625)"/>
       </defs>
       <use xlink:href="#DejaVuSans-31"/>
       <use xlink:href="#DejaVuSans-2e" x="63.623047"/>
       <use xlink:href="#DejaVuSans-30" x="95.410156"/>
      </g>
     </g>
    </g>
    <g id="ytick_4">
     <g id="line2d_9">
      <g>
       <use xlink:href="#m93c6052d8f" x="43.78125" y="211.627124" style="stroke: #000000; stroke-width: 0.8"/>
      </g>
     </g>
     <g id="text_9">
      <!-- 1.5 -->
      <g transform="translate(20.878125 215.426343) scale(0.1 -0.1)">
       <use xlink:href="#DejaVuSans-31"/>
       <use xlink:href="#DejaVuSans-2e" x="63.623047"/>
       <use xlink:href="#DejaVuSans-35" x="95.410156"/>
      </g>
     </g>
    </g>
    <g id="ytick_5">
     <g id="line2d_10">
      <g>
       <use xlink:href="#m93c6052d8f" x="43.78125" y="182.621672" style="stroke: #000000; stroke-width: 0.8"/>
      </g>
     </g>
     <g id="text_10">
      <!-- 2.0 -->
      <g transform="translate(20.878125 186.420891) scale(0.1 -0.1)">
       <use xlink:href="#DejaVuSans-32"/>
       <use xlink:href="#DejaVuSans-2e" x="63.623047"/>
       <use xlink:href="#DejaVuSans-30" x="95.410156"/>
      </g>
     </g>
    </g>
    <g id="ytick_6">
     <g id="line2d_11">
      <g>
       <use xlink:href="#m93c6052d8f" x="43.78125" y="153.616221" style="stroke: #000000; stroke-width: 0.8"/>
      </g>
     </g>
     <g id="text_11">
      <!-- 2.5 -->
      <g transform="translate(20.878125 157.41544) scale(0.1 -0.1)">
       <use xlink:href="#DejaVuSans-32"/>
       <use xlink:href="#DejaVuSans-2e" x="63.623047"/>
       <use xlink:href="#DejaVuSans-35" x="95.410156"/>
      </g>
     </g>
    </g>
    <g id="ytick_7">
     <g id="line2d_12">
      <g>
       <use xlink:href="#m93c6052d8f" x="43.78125" y="124.61077" style="stroke: #000000; stroke-width: 0.8"/>
      </g>
     </g>
     <g id="text_12">
      <!-- 3.0 -->
      <g transform="translate(20.878125 128.409988) scale(0.1 -0.1)">
       <defs>
        <path id="DejaVuSans-33" d="M 2597 2516 
Q 3050 2419 3304 2112 
Q 3559 1806 3559 1356 
Q 3559 666 3084 287 
Q 2609 -91 1734 -91 
Q 1441 -91 1130 -33 
Q 819 25 488 141 
L 488 750 
Q 750 597 1062 519 
Q 1375 441 1716 441 
Q 2309 441 2620 675 
Q 2931 909 2931 1356 
Q 2931 1769 2642 2001 
Q 2353 2234 1838 2234 
L 1294 2234 
L 1294 2753 
L 1863 2753 
Q 2328 2753 2575 2939 
Q 2822 3125 2822 3475 
Q 2822 3834 2567 4026 
Q 2313 4219 1838 4219 
Q 1578 4219 1281 4162 
Q 984 4106 628 3988 
L 628 4550 
Q 988 4650 1302 4700 
Q 1616 4750 1894 4750 
Q 2613 4750 3031 4423 
Q 3450 4097 3450 3541 
Q 3450 3153 3228 2886 
Q 3006 2619 2597 2516 
z
" transform="scale(0.015625)"/>
       </defs>
       <use xlink:href="#DejaVuSans-33"/>
       <use xlink:href="#DejaVuSans-2e" x="63.623047"/>
       <use xlink:href="#DejaVuSans-30" x="95.410156"/>
      </g>
     </g>
    </g>
    <g id="ytick_8">
     <g id="line2d_13">
      <g>
       <use xlink:href="#m93c6052d8f" x="43.78125" y="95.605318" style="stroke: #000000; stroke-width: 0.8"/>
      </g>
     </g>
     <g id="text_13">
      <!-- 3.5 -->
      <g transform="translate(20.878125 99.404537) scale(0.1 -0.1)">
       <use xlink:href="#DejaVuSans-33"/>
       <use xlink:href="#DejaVuSans-2e" x="63.623047"/>
       <use xlink:href="#DejaVuSans-35" x="95.410156"/>
      </g>
     </g>
    </g>
    <g id="ytick_9">
     <g id="line2d_14">
      <g>
       <use xlink:href="#m93c6052d8f" x="43.78125" y="66.599867" style="stroke: #000000; stroke-width: 0.8"/>
      </g>
     </g>
     <g id="text_14">
      <!-- 4.0 -->
      <g transform="translate(20.878125 70.399085) scale(0.1 -0.1)">
       <use xlink:href="#DejaVuSans-34"/>
       <use xlink:href="#DejaVuSans-2e" x="63.623047"/>
       <use xlink:href="#DejaVuSans-30" x="95.410156"/>
      </g>
     </g>
    </g>
    <g id="text_15">
     <!-- Density -->
     <g transform="translate(14.798438 197.130333) rotate(-90) scale(0.1 -0.1)">
      <defs>
       <path id="DejaVuSans-44" d="M 1259 4147 
L 1259 519 
L 2022 519 
Q 2988 519 3436 956 
Q 3884 1394 3884 2338 
Q 3884 3275 3436 3711 
Q 2988 4147 2022 4147 
L 1259 4147 
z
M 628 4666 
L 1925 4666 
Q 3281 4666 3915 4102 
Q 4550 3538 4550 2338 
Q 4550 1131 3912 565 
Q 3275 0 1925 0 
L 628 0 
L 628 4666 
z
" transform="scale(0.015625)"/>
       <path id="DejaVuSans-65" d="M 3597 1894 
L 3597 1613 
L 953 1613 
Q 991 1019 1311 708 
Q 1631 397 2203 397 
Q 2534 397 2845 478 
Q 3156 559 3463 722 
L 3463 178 
Q 3153 47 2828 -22 
Q 2503 -91 2169 -91 
Q 1331 -91 842 396 
Q 353 884 353 1716 
Q 353 2575 817 3079 
Q 1281 3584 2069 3584 
Q 2775 3584 3186 3129 
Q 3597 2675 3597 1894 
z
M 3022 2063 
Q 3016 2534 2758 2815 
Q 2500 3097 2075 3097 
Q 1594 3097 1305 2825 
Q 1016 2553 972 2059 
L 3022 2063 
z
" transform="scale(0.015625)"/>
       <path id="DejaVuSans-6e" d="M 3513 2113 
L 3513 0 
L 2938 0 
L 2938 2094 
Q 2938 2591 2744 2837 
Q 2550 3084 2163 3084 
Q 1697 3084 1428 2787 
Q 1159 2491 1159 1978 
L 1159 0 
L 581 0 
L 581 3500 
L 1159 3500 
L 1159 2956 
Q 1366 3272 1645 3428 
Q 1925 3584 2291 3584 
Q 2894 3584 3203 3211 
Q 3513 2838 3513 2113 
z
" transform="scale(0.015625)"/>
       <path id="DejaVuSans-73" d="M 2834 3397 
L 2834 2853 
Q 2591 2978 2328 3040 
Q 2066 3103 1784 3103 
Q 1356 3103 1142 2972 
Q 928 2841 928 2578 
Q 928 2378 1081 2264 
Q 1234 2150 1697 2047 
L 1894 2003 
Q 2506 1872 2764 1633 
Q 3022 1394 3022 966 
Q 3022 478 2636 193 
Q 2250 -91 1575 -91 
Q 1294 -91 989 -36 
Q 684 19 347 128 
L 347 722 
Q 666 556 975 473 
Q 1284 391 1588 391 
Q 1994 391 2212 530 
Q 2431 669 2431 922 
Q 2431 1156 2273 1281 
Q 2116 1406 1581 1522 
L 1381 1569 
Q 847 1681 609 1914 
Q 372 2147 372 2553 
Q 372 3047 722 3315 
Q 1072 3584 1716 3584 
Q 2034 3584 2315 3537 
Q 2597 3491 2834 3397 
z
" transform="scale(0.015625)"/>
       <path id="DejaVuSans-69" d="M 603 3500 
L 1178 3500 
L 1178 0 
L 603 0 
L 603 3500 
z
M 603 4863 
L 1178 4863 
L 1178 4134 
L 603 4134 
L 603 4863 
z
" transform="scale(0.015625)"/>
       <path id="DejaVuSans-74" d="M 1172 4494 
L 1172 3500 
L 2356 3500 
L 2356 3053 
L 1172 3053 
L 1172 1153 
Q 1172 725 1289 603 
Q 1406 481 1766 481 
L 2356 481 
L 2356 0 
L 1766 0 
Q 1100 0 847 248 
Q 594 497 594 1153 
L 594 3053 
L 172 3053 
L 172 3500 
L 594 3500 
L 594 4494 
L 1172 4494 
z
" transform="scale(0.015625)"/>
       <path id="DejaVuSans-79" d="M 2059 -325 
Q 1816 -950 1584 -1140 
Q 1353 -1331 966 -1331 
L 506 -1331 
L 506 -850 
L 844 -850 
Q 1081 -850 1212 -737 
Q 1344 -625 1503 -206 
L 1606 56 
L 191 3500 
L 800 3500 
L 1894 763 
L 2988 3500 
L 3597 3500 
L 2059 -325 
z
" transform="scale(0.015625)"/>
      </defs>
      <use xlink:href="#DejaVuSans-44"/>
      <use xlink:href="#DejaVuSans-65" x="77.001953"/>
      <use xlink:href="#DejaVuSans-6e" x="138.525391"/>
      <use xlink:href="#DejaVuSans-73" x="201.904297"/>
      <use xlink:href="#DejaVuSans-69" x="254.003906"/>
      <use xlink:href="#DejaVuSans-74" x="281.787109"/>
      <use xlink:href="#DejaVuSans-79" x="320.996094"/>
     </g>
    </g>
   </g>
   <g id="patch_3">
    <path d="M 43.78125 298.643478 
L 43.78125 57.6 
" style="fill: none; stroke: #000000; stroke-width: 0.8; stroke-linejoin: miter; stroke-linecap: square"/>
   </g>
   <g id="patch_4">
    <path d="M 880.78125 298.643478 
L 880.78125 57.6 
" style="fill: none; stroke: #000000; stroke-width: 0.8; stroke-linejoin: miter; stroke-linecap: square"/>
   </g>
   <g id="patch_5">
    <path d="M 43.78125 298.643478 
L 880.78125 298.643478 
" style="fill: none; stroke: #000000; stroke-width: 0.8; stroke-linejoin: miter; stroke-linecap: square"/>
   </g>
   <g id="patch_6">
    <path d="M 43.78125 57.6 
L 880.78125 57.6 
" style="fill: none; stroke: #000000; stroke-width: 0.8; stroke-linejoin: miter; stroke-linecap: square"/>
   </g>
   <g id="text_16">
    <!-- Pearson correlation coefficients -->
    <g transform="translate(367.949062 51.6) scale(0.12 -0.12)">
     <defs>
      <path id="DejaVuSans-50" d="M 1259 4147 
L 1259 2394 
L 2053 2394 
Q 2494 2394 2734 2622 
Q 2975 2850 2975 3272 
Q 2975 3691 2734 3919 
Q 2494 4147 2053 4147 
L 1259 4147 
z
M 628 4666 
L 2053 4666 
Q 2838 4666 3239 4311 
Q 3641 3956 3641 3272 
Q 3641 2581 3239 2228 
Q 2838 1875 2053 1875 
L 1259 1875 
L 1259 0 
L 628 0 
L 628 4666 
z
" transform="scale(0.015625)"/>
      <path id="DejaVuSans-61" d="M 2194 1759 
Q 1497 1759 1228 1600 
Q 959 1441 959 1056 
Q 959 750 1161 570 
Q 1363 391 1709 391 
Q 2188 391 2477 730 
Q 2766 1069 2766 1631 
L 2766 1759 
L 2194 1759 
z
M 3341 1997 
L 3341 0 
L 2766 0 
L 2766 531 
Q 2569 213 2275 61 
Q 1981 -91 1556 -91 
Q 1019 -91 701 211 
Q 384 513 384 1019 
Q 384 1609 779 1909 
Q 1175 2209 1959 2209 
L 2766 2209 
L 2766 2266 
Q 2766 2663 2505 2880 
Q 2244 3097 1772 3097 
Q 1472 3097 1187 3025 
Q 903 2953 641 2809 
L 641 3341 
Q 956 3463 1253 3523 
Q 1550 3584 1831 3584 
Q 2591 3584 2966 3190 
Q 3341 2797 3341 1997 
z
" transform="scale(0.015625)"/>
      <path id="DejaVuSans-72" d="M 2631 2963 
Q 2534 3019 2420 3045 
Q 2306 3072 2169 3072 
Q 1681 3072 1420 2755 
Q 1159 2438 1159 1844 
L 1159 0 
L 581 0 
L 581 3500 
L 1159 3500 
L 1159 2956 
Q 1341 3275 1631 3429 
Q 1922 3584 2338 3584 
Q 2397 3584 2469 3576 
Q 2541 3569 2628 3553 
L 2631 2963 
z
" transform="scale(0.015625)"/>
      <path id="DejaVuSans-6f" d="M 1959 3097 
Q 1497 3097 1228 2736 
Q 959 2375 959 1747 
Q 959 1119 1226 758 
Q 1494 397 1959 397 
Q 2419 397 2687 759 
Q 2956 1122 2956 1747 
Q 2956 2369 2687 2733 
Q 2419 3097 1959 3097 
z
M 1959 3584 
Q 2709 3584 3137 3096 
Q 3566 2609 3566 1747 
Q 3566 888 3137 398 
Q 2709 -91 1959 -91 
Q 1206 -91 779 398 
Q 353 888 353 1747 
Q 353 2609 779 3096 
Q 1206 3584 1959 3584 
z
" transform="scale(0.015625)"/>
      <path id="DejaVuSans-20" transform="scale(0.015625)"/>
      <path id="DejaVuSans-63" d="M 3122 3366 
L 3122 2828 
Q 2878 2963 2633 3030 
Q 2388 3097 2138 3097 
Q 1578 3097 1268 2742 
Q 959 2388 959 1747 
Q 959 1106 1268 751 
Q 1578 397 2138 397 
Q 2388 397 2633 464 
Q 2878 531 3122 666 
L 3122 134 
Q 2881 22 2623 -34 
Q 2366 -91 2075 -91 
Q 1284 -91 818 406 
Q 353 903 353 1747 
Q 353 2603 823 3093 
Q 1294 3584 2113 3584 
Q 2378 3584 2631 3529 
Q 2884 3475 3122 3366 
z
" transform="scale(0.015625)"/>
      <path id="DejaVuSans-6c" d="M 603 4863 
L 1178 4863 
L 1178 0 
L 603 0 
L 603 4863 
z
" transform="scale(0.015625)"/>
      <path id="DejaVuSans-66" d="M 2375 4863 
L 2375 4384 
L 1825 4384 
Q 1516 4384 1395 4259 
Q 1275 4134 1275 3809 
L 1275 3500 
L 2222 3500 
L 2222 3053 
L 1275 3053 
L 1275 0 
L 697 0 
L 697 3053 
L 147 3053 
L 147 3500 
L 697 3500 
L 697 3744 
Q 697 4328 969 4595 
Q 1241 4863 1831 4863 
L 2375 4863 
z
" transform="scale(0.015625)"/>
     </defs>
     <use xlink:href="#DejaVuSans-50"/>
     <use xlink:href="#DejaVuSans-65" x="56.677734"/>
     <use xlink:href="#DejaVuSans-61" x="118.201172"/>
     <use xlink:href="#DejaVuSans-72" x="179.480469"/>
     <use xlink:href="#DejaVuSans-73" x="220.59375"/>
     <use xlink:href="#DejaVuSans-6f" x="272.693359"/>
     <use xlink:href="#DejaVuSans-6e" x="333.875"/>
     <use xlink:href="#DejaVuSans-20" x="397.253906"/>
     <use xlink:href="#DejaVuSans-63" x="429.041016"/>
     <use xlink:href="#DejaVuSans-6f" x="484.021484"/>
     <use xlink:href="#DejaVuSans-72" x="545.203125"/>
     <use xlink:href="#DejaVuSans-72" x="584.566406"/>
     <use xlink:href="#DejaVuSans-65" x="623.429688"/>
     <use xlink:href="#DejaVuSans-6c" x="684.953125"/>
     <use xlink:href="#DejaVuSans-61" x="712.736328"/>
     <use xlink:href="#DejaVuSans-74" x="774.015625"/>
     <use xlink:href="#DejaVuSans-69" x="813.224609"/>
     <use xlink:href="#DejaVuSans-6f" x="841.007812"/>
     <use xlink:href="#DejaVuSans-6e" x="902.189453"/>
     <use xlink:href="#DejaVuSans-20" x="965.568359"/>
     <use xlink:href="#DejaVuSans-63" x="997.355469"/>
     <use xlink:href="#DejaVuSans-6f" x="1052.335938"/>
     <use xlink:href="#DejaVuSans-65" x="1113.517578"/>
     <use xlink:href="#DejaVuSans-66" x="1175.041016"/>
     <use xlink:href="#DejaVuSans-66" x="1210.246094"/>
     <use xlink:href="#DejaVuSans-69" x="1245.451172"/>
     <use xlink:href="#DejaVuSans-63" x="1273.234375"/>
     <use xlink:href="#DejaVuSans-69" x="1328.214844"/>
     <use xlink:href="#DejaVuSans-65" x="1355.998047"/>
     <use xlink:href="#DejaVuSans-6e" x="1417.521484"/>
     <use xlink:href="#DejaVuSans-74" x="1480.900391"/>
     <use xlink:href="#DejaVuSans-73" x="1520.109375"/>
    </g>
   </g>
   <g id="legend_1">
    <g id="patch_7">
     <path d="M 50.78125 109.634375 
L 138.80625 109.634375 
Q 140.80625 109.634375 140.80625 107.634375 
L 140.80625 64.6 
Q 140.80625 62.6 138.80625 62.6 
L 50.78125 62.6 
Q 48.78125 62.6 48.78125 64.6 
L 48.78125 107.634375 
Q 48.78125 109.634375 50.78125 109.634375 
z
" style="fill: #ffffff; opacity: 0.8; stroke: #cccccc; stroke-linejoin: miter"/>
    </g>
    <g id="text_17">
     <!-- Correlation type: -->
     <g transform="translate(52.78125 74.198437) scale(0.1 -0.1)">
      <defs>
       <path id="DejaVuSans-43" d="M 4122 4306 
L 4122 3641 
Q 3803 3938 3442 4084 
Q 3081 4231 2675 4231 
Q 1875 4231 1450 3742 
Q 1025 3253 1025 2328 
Q 1025 1406 1450 917 
Q 1875 428 2675 428 
Q 3081 428 3442 575 
Q 3803 722 4122 1019 
L 4122 359 
Q 3791 134 3420 21 
Q 3050 -91 2638 -91 
Q 1578 -91 968 557 
Q 359 1206 359 2328 
Q 359 3453 968 4101 
Q 1578 4750 2638 4750 
Q 3056 4750 3426 4639 
Q 3797 4528 4122 4306 
z
" transform="scale(0.015625)"/>
       <path id="DejaVuSans-70" d="M 1159 525 
L 1159 -1331 
L 581 -1331 
L 581 3500 
L 1159 3500 
L 1159 2969 
Q 1341 3281 1617 3432 
Q 1894 3584 2278 3584 
Q 2916 3584 3314 3078 
Q 3713 2572 3713 1747 
Q 3713 922 3314 415 
Q 2916 -91 2278 -91 
Q 1894 -91 1617 61 
Q 1341 213 1159 525 
z
M 3116 1747 
Q 3116 2381 2855 2742 
Q 2594 3103 2138 3103 
Q 1681 3103 1420 2742 
Q 1159 2381 1159 1747 
Q 1159 1113 1420 752 
Q 1681 391 2138 391 
Q 2594 391 2855 752 
Q 3116 1113 3116 1747 
z
" transform="scale(0.015625)"/>
       <path id="DejaVuSans-3a" d="M 750 794 
L 1409 794 
L 1409 0 
L 750 0 
L 750 794 
z
M 750 3309 
L 1409 3309 
L 1409 2516 
L 750 2516 
L 750 3309 
z
" transform="scale(0.015625)"/>
      </defs>
      <use xlink:href="#DejaVuSans-43"/>
      <use xlink:href="#DejaVuSans-6f" x="69.824219"/>
      <use xlink:href="#DejaVuSans-72" x="131.005859"/>
      <use xlink:href="#DejaVuSans-72" x="170.369141"/>
      <use xlink:href="#DejaVuSans-65" x="209.232422"/>
      <use xlink:href="#DejaVuSans-6c" x="270.755859"/>
      <use xlink:href="#DejaVuSans-61" x="298.539062"/>
      <use xlink:href="#DejaVuSans-74" x="359.818359"/>
      <use xlink:href="#DejaVuSans-69" x="399.027344"/>
      <use xlink:href="#DejaVuSans-6f" x="426.810547"/>
      <use xlink:href="#DejaVuSans-6e" x="487.992188"/>
      <use xlink:href="#DejaVuSans-20" x="551.371094"/>
      <use xlink:href="#DejaVuSans-74" x="583.158203"/>
      <use xlink:href="#DejaVuSans-79" x="622.367188"/>
      <use xlink:href="#DejaVuSans-70" x="681.546875"/>
      <use xlink:href="#DejaVuSans-65" x="745.023438"/>
      <use xlink:href="#DejaVuSans-3a" x="806.546875"/>
     </g>
    </g>
    <g id="patch_8">
     <path d="M 53.285156 88.876562 
L 73.285156 88.876562 
L 73.285156 81.876562 
L 53.285156 81.876562 
z
" style="fill: #1f77b4; fill-opacity: 0.5; stroke: #1f77b4; stroke-width: 2.5; stroke-linejoin: miter"/>
    </g>
    <g id="text_18">
     <!-- Codon -->
     <g transform="translate(81.285156 88.876562) scale(0.1 -0.1)">
      <defs>
       <path id="DejaVuSans-64" d="M 2906 2969 
L 2906 4863 
L 3481 4863 
L 3481 0 
L 2906 0 
L 2906 525 
Q 2725 213 2448 61 
Q 2172 -91 1784 -91 
Q 1150 -91 751 415 
Q 353 922 353 1747 
Q 353 2572 751 3078 
Q 1150 3584 1784 3584 
Q 2172 3584 2448 3432 
Q 2725 3281 2906 2969 
z
M 947 1747 
Q 947 1113 1208 752 
Q 1469 391 1925 391 
Q 2381 391 2643 752 
Q 2906 1113 2906 1747 
Q 2906 2381 2643 2742 
Q 2381 3103 1925 3103 
Q 1469 3103 1208 2742 
Q 947 2381 947 1747 
z
" transform="scale(0.015625)"/>
      </defs>
      <use xlink:href="#DejaVuSans-43"/>
      <use xlink:href="#DejaVuSans-6f" x="69.824219"/>
      <use xlink:href="#DejaVuSans-64" x="131.005859"/>
      <use xlink:href="#DejaVuSans-6f" x="194.482422"/>
      <use xlink:href="#DejaVuSans-6e" x="255.664062"/>
     </g>
    </g>
    <g id="patch_9">
     <path d="M 53.285156 103.554688 
L 73.285156 103.554688 
L 73.285156 96.554688 
L 53.285156 96.554688 
z
" style="fill: #ff7f0e; fill-opacity: 0.5; stroke: #ff7f0e; stroke-width: 2.5; stroke-linejoin: miter"/>
    </g>
    <g id="text_19">
     <!-- Codon+GC -->
     <g transform="translate(81.285156 103.554688) scale(0.1 -0.1)">
      <defs>
       <path id="DejaVuSans-2b" d="M 2944 4013 
L 2944 2272 
L 4684 2272 
L 4684 1741 
L 2944 1741 
L 2944 0 
L 2419 0 
L 2419 1741 
L 678 1741 
L 678 2272 
L 2419 2272 
L 2419 4013 
L 2944 4013 
z
" transform="scale(0.015625)"/>
       <path id="DejaVuSans-47" d="M 3809 666 
L 3809 1919 
L 2778 1919 
L 2778 2438 
L 4434 2438 
L 4434 434 
Q 4069 175 3628 42 
Q 3188 -91 2688 -91 
Q 1594 -91 976 548 
Q 359 1188 359 2328 
Q 359 3472 976 4111 
Q 1594 4750 2688 4750 
Q 3144 4750 3555 4637 
Q 3966 4525 4313 4306 
L 4313 3634 
Q 3963 3931 3569 4081 
Q 3175 4231 2741 4231 
Q 1884 4231 1454 3753 
Q 1025 3275 1025 2328 
Q 1025 1384 1454 906 
Q 1884 428 2741 428 
Q 3075 428 3337 486 
Q 3600 544 3809 666 
z
" transform="scale(0.015625)"/>
      </defs>
      <use xlink:href="#DejaVuSans-43"/>
      <use xlink:href="#DejaVuSans-6f" x="69.824219"/>
      <use xlink:href="#DejaVuSans-64" x="131.005859"/>
      <use xlink:href="#DejaVuSans-6f" x="194.482422"/>
      <use xlink:href="#DejaVuSans-6e" x="255.664062"/>
      <use xlink:href="#DejaVuSans-2b" x="319.042969"/>
      <use xlink:href="#DejaVuSans-47" x="402.832031"/>
      <use xlink:href="#DejaVuSans-43" x="480.322266"/>
     </g>
    </g>
   </g>
  </g>
  <g id="axes_2">
   <g id="patch_10">
    <path d="M 43.78125 612 
L 880.78125 612 
L 880.78125 370.956522 
L 43.78125 370.956522 
z
" style="fill: #ffffff"/>
   </g>
   <g id="PolyCollection_3">
    <defs>
     <path id="m4044663883" d="M 143.82555 -24.002364 
L 143.82555 -23.878125 
L 146.957007 -23.878125 
L 150.088464 -23.878125 
L 153.219921 -23.878125 
L 156.351377 -23.878125 
L 159.482834 -23.878125 
L 162.614291 -23.878125 
L 165.745748 -23.878125 
L 168.877205 -23.878125 
L 172.008662 -23.878125 
L 175.140118 -23.878125 
L 178.271575 -23.878125 
L 181.403032 -23.878125 
L 184.534489 -23.878125 
L 187.665946 -23.878125 
L 190.797403 -23.878125 
L 193.92886 -23.878125 
L 197.060316 -23.878125 
L 200.191773 -23.878125 
L 203.32323 -23.878125 
L 206.454687 -23.878125 
L 209.586144 -23.878125 
L 212.717601 -23.878125 
L 215.849057 -23.878125 
L 218.980514 -23.878125 
L 222.111971 -23.878125 
L 225.243428 -23.878125 
L 228.374885 -23.878125 
L 231.506342 -23.878125 
L 234.637799 -23.878125 
L 237.769255 -23.878125 
L 240.900712 -23.878125 
L 244.032169 -23.878125 
L 247.163626 -23.878125 
L 250.295083 -23.878125 
L 253.42654 -23.878125 
L 256.557997 -23.878125 
L 259.689453 -23.878125 
L 262.82091 -23.878125 
L 265.952367 -23.878125 
L 269.083824 -23.878125 
L 272.215281 -23.878125 
L 275.346738 -23.878125 
L 278.478194 -23.878125 
L 281.609651 -23.878125 
L 284.741108 -23.878125 
L 287.872565 -23.878125 
L 291.004022 -23.878125 
L 294.135479 -23.878125 
L 297.266936 -23.878125 
L 300.398392 -23.878125 
L 303.529849 -23.878125 
L 306.661306 -23.878125 
L 309.792763 -23.878125 
L 312.92422 -23.878125 
L 316.055677 -23.878125 
L 319.187133 -23.878125 
L 322.31859 -23.878125 
L 325.450047 -23.878125 
L 328.581504 -23.878125 
L 331.712961 -23.878125 
L 334.844418 -23.878125 
L 337.975875 -23.878125 
L 341.107331 -23.878125 
L 344.238788 -23.878125 
L 347.370245 -23.878125 
L 350.501702 -23.878125 
L 353.633159 -23.878125 
L 356.764616 -23.878125 
L 359.896072 -23.878125 
L 363.027529 -23.878125 
L 366.158986 -23.878125 
L 369.290443 -23.878125 
L 372.4219 -23.878125 
L 375.553357 -23.878125 
L 378.684814 -23.878125 
L 381.81627 -23.878125 
L 384.947727 -23.878125 
L 388.079184 -23.878125 
L 391.210641 -23.878125 
L 394.342098 -23.878125 
L 397.473555 -23.878125 
L 400.605011 -23.878125 
L 403.736468 -23.878125 
L 406.867925 -23.878125 
L 409.999382 -23.878125 
L 413.130839 -23.878125 
L 416.262296 -23.878125 
L 419.393753 -23.878125 
L 422.525209 -23.878125 
L 425.656666 -23.878125 
L 428.788123 -23.878125 
L 431.91958 -23.878125 
L 435.051037 -23.878125 
L 438.182494 -23.878125 
L 441.31395 -23.878125 
L 444.445407 -23.878125 
L 447.576864 -23.878125 
L 450.708321 -23.878125 
L 453.839778 -23.878125 
L 456.971235 -23.878125 
L 460.102692 -23.878125 
L 463.234148 -23.878125 
L 466.365605 -23.878125 
L 469.497062 -23.878125 
L 472.628519 -23.878125 
L 475.759976 -23.878125 
L 478.891433 -23.878125 
L 482.02289 -23.878125 
L 485.154346 -23.878125 
L 488.285803 -23.878125 
L 491.41726 -23.878125 
L 494.548717 -23.878125 
L 497.680174 -23.878125 
L 500.811631 -23.878125 
L 503.943087 -23.878125 
L 507.074544 -23.878125 
L 510.206001 -23.878125 
L 513.337458 -23.878125 
L 516.468915 -23.878125 
L 519.600372 -23.878125 
L 522.731829 -23.878125 
L 525.863285 -23.878125 
L 528.994742 -23.878125 
L 532.126199 -23.878125 
L 535.257656 -23.878125 
L 538.389113 -23.878125 
L 541.52057 -23.878125 
L 544.652026 -23.878125 
L 547.783483 -23.878125 
L 550.91494 -23.878125 
L 554.046397 -23.878125 
L 557.177854 -23.878125 
L 560.309311 -23.878125 
L 563.440768 -23.878125 
L 566.572224 -23.878125 
L 569.703681 -23.878125 
L 572.835138 -23.878125 
L 575.966595 -23.878125 
L 579.098052 -23.878125 
L 582.229509 -23.878125 
L 585.360965 -23.878125 
L 588.492422 -23.878125 
L 591.623879 -23.878125 
L 594.755336 -23.878125 
L 597.886793 -23.878125 
L 601.01825 -23.878125 
L 604.149707 -23.878125 
L 607.281163 -23.878125 
L 610.41262 -23.878125 
L 613.544077 -23.878125 
L 616.675534 -23.878125 
L 619.806991 -23.878125 
L 622.938448 -23.878125 
L 626.069904 -23.878125 
L 629.201361 -23.878125 
L 632.332818 -23.878125 
L 635.464275 -23.878125 
L 638.595732 -23.878125 
L 641.727189 -23.878125 
L 644.858646 -23.878125 
L 647.990102 -23.878125 
L 651.121559 -23.878125 
L 654.253016 -23.878125 
L 657.384473 -23.878125 
L 660.51593 -23.878125 
L 663.647387 -23.878125 
L 666.778843 -23.878125 
L 669.9103 -23.878125 
L 673.041757 -23.878125 
L 676.173214 -23.878125 
L 679.304671 -23.878125 
L 682.436128 -23.878125 
L 685.567585 -23.878125 
L 688.699041 -23.878125 
L 691.830498 -23.878125 
L 694.961955 -23.878125 
L 698.093412 -23.878125 
L 701.224869 -23.878125 
L 704.356326 -23.878125 
L 707.487783 -23.878125 
L 710.619239 -23.878125 
L 713.750696 -23.878125 
L 716.882153 -23.878125 
L 720.01361 -23.878125 
L 723.145067 -23.878125 
L 726.276524 -23.878125 
L 729.40798 -23.878125 
L 732.539437 -23.878125 
L 735.670894 -23.878125 
L 738.802351 -23.878125 
L 741.933808 -23.878125 
L 745.065265 -23.878125 
L 748.196722 -23.878125 
L 751.328178 -23.878125 
L 754.459635 -23.878125 
L 757.591092 -23.878125 
L 760.722549 -23.878125 
L 763.854006 -23.878125 
L 766.985463 -23.878125 
L 766.985463 -24.00881 
L 766.985463 -24.00881 
L 763.854006 -24.04597 
L 760.722549 -24.092375 
L 757.591092 -24.149948 
L 754.459635 -24.220915 
L 751.328178 -24.307826 
L 748.196722 -24.413586 
L 745.065265 -24.541474 
L 741.933808 -24.695156 
L 738.802351 -24.878706 
L 735.670894 -25.096609 
L 732.539437 -25.353768 
L 729.40798 -25.655507 
L 726.276524 -26.007567 
L 723.145067 -26.416102 
L 720.01361 -26.887674 
L 716.882153 -27.429252 
L 713.750696 -28.048208 
L 710.619239 -28.75233 
L 707.487783 -29.549827 
L 704.356326 -30.44936 
L 701.224869 -31.46007 
L 698.093412 -32.591619 
L 694.961955 -33.854245 
L 691.830498 -35.258813 
L 688.699041 -36.816874 
L 685.567585 -38.540712 
L 682.436128 -40.443382 
L 679.304671 -42.538722 
L 676.173214 -44.841328 
L 673.041757 -47.366493 
L 669.9103 -50.130073 
L 666.778843 -53.148311 
L 663.647387 -56.43756 
L 660.51593 -60.013948 
L 657.384473 -63.892953 
L 654.253016 -68.088896 
L 651.121559 -72.61437 
L 647.990102 -77.47961 
L 644.858646 -82.691814 
L 641.727189 -88.254461 
L 638.595732 -94.166627 
L 635.464275 -100.42235 
L 632.332818 -107.010055 
L 629.201361 -113.9121 
L 626.069904 -121.104443 
L 622.938448 -128.556483 
L 619.806991 -136.231074 
L 616.675534 -144.084752 
L 613.544077 -152.068165 
L 610.41262 -160.126707 
L 607.281163 -168.201358 
L 604.149707 -176.229693 
L 601.01825 -184.147043 
L 597.886793 -191.887778 
L 594.755336 -199.386647 
L 591.623879 -206.580159 
L 588.492422 -213.407935 
L 585.360965 -219.814 
L 582.229509 -225.74795 
L 579.098052 -231.165983 
L 575.966595 -236.031729 
L 572.835138 -240.316876 
L 569.703681 -244.001563 
L 566.572224 -247.074535 
L 563.440768 -249.533059 
L 560.309311 -251.382618 
L 557.177854 -252.636388 
L 554.046397 -253.314531 
L 550.91494 -253.443342 
L 547.783483 -253.054267 
L 544.652026 -252.182839 
L 541.52057 -250.867579 
L 538.389113 -249.14888 
L 535.257656 -247.067929 
L 532.126199 -244.665684 
L 528.994742 -241.981957 
L 525.863285 -239.054596 
L 522.731829 -235.918816 
L 519.600372 -232.606671 
L 516.468915 -229.146683 
L 513.337458 -225.563626 
L 510.206001 -221.878459 
L 507.074544 -218.108406 
L 503.943087 -214.267153 
L 500.811631 -210.365159 
L 497.680174 -206.410049 
L 494.548717 -202.407073 
L 491.41726 -198.359599 
L 488.285803 -194.269625 
L 485.154346 -190.138281 
L 482.02289 -185.966304 
L 478.891433 -181.754466 
L 475.759976 -177.503946 
L 472.628519 -173.216633 
L 469.497062 -168.89535 
L 466.365605 -164.544012 
L 463.234148 -160.167698 
L 460.102692 -155.77267 
L 456.971235 -151.366317 
L 453.839778 -146.957055 
L 450.708321 -142.554193 
L 447.576864 -138.167758 
L 444.445407 -133.808321 
L 441.31395 -129.486797 
L 438.182494 -125.21427 
L 435.051037 -121.00181 
L 431.91958 -116.860323 
L 428.788123 -112.800418 
L 425.656666 -108.832296 
L 422.525209 -104.965667 
L 419.393753 -101.2097 
L 416.262296 -97.572984 
L 413.130839 -94.06352 
L 409.999382 -90.688724 
L 406.867925 -87.455442 
L 403.736468 -84.369975 
L 400.605011 -81.438099 
L 397.473555 -78.665086 
L 394.342098 -76.055711 
L 391.210641 -73.614242 
L 388.079184 -71.344416 
L 384.947727 -69.249394 
L 381.81627 -67.331684 
L 378.684814 -65.593052 
L 375.553357 -64.034409 
L 372.4219 -62.655679 
L 369.290443 -61.455663 
L 366.158986 -60.431897 
L 363.027529 -59.580515 
L 359.896072 -58.89613 
L 356.764616 -58.371743 
L 353.633159 -57.99868 
L 350.501702 -57.766578 
L 347.370245 -57.663418 
L 344.238788 -57.675609 
L 341.107331 -57.788133 
L 337.975875 -57.984739 
L 334.844418 -58.248183 
L 331.712961 -58.560517 
L 328.581504 -58.903409 
L 325.450047 -59.258475 
L 322.31859 -59.607631 
L 319.187133 -59.933437 
L 316.055677 -60.219413 
L 312.92422 -60.450345 
L 309.792763 -60.612533 
L 306.661306 -60.694009 
L 303.529849 -60.684687 
L 300.398392 -60.576479 
L 297.266936 -60.363338 
L 294.135479 -60.041264 
L 291.004022 -59.608262 
L 287.872565 -59.064255 
L 284.741108 -58.410971 
L 281.609651 -57.651802 
L 278.478194 -56.791647 
L 275.346738 -55.836743 
L 272.215281 -54.794485 
L 269.083824 -53.67326 
L 265.952367 -52.482263 
L 262.82091 -51.23133 
L 259.689453 -49.930774 
L 256.557997 -48.591222 
L 253.42654 -47.223459 
L 250.295083 -45.838279 
L 247.163626 -44.446336 
L 244.032169 -43.058007 
L 240.900712 -41.683255 
L 237.769255 -40.3315 
L 234.637799 -39.011504 
L 231.506342 -37.731263 
L 228.374885 -36.497914 
L 225.243428 -35.317662 
L 222.111971 -34.19572 
L 218.980514 -33.136277 
L 215.849057 -32.14248 
L 212.717601 -31.216445 
L 209.586144 -30.359285 
L 206.454687 -29.571163 
L 203.32323 -28.85136 
L 200.191773 -28.198357 
L 197.060316 -27.609935 
L 193.92886 -27.083281 
L 190.797403 -26.615097 
L 187.665946 -26.201711 
L 184.534489 -25.839189 
L 181.403032 -25.523436 
L 178.271575 -25.250293 
L 175.140118 -25.015624 
L 172.008662 -24.81539 
L 168.877205 -24.645706 
L 165.745748 -24.502898 
L 162.614291 -24.383534 
L 159.482834 -24.284448 
L 156.351377 -24.202762 
L 153.219921 -24.135881 
L 150.088464 -24.081499 
L 146.957007 -24.037584 
L 143.82555 -24.002364 
z
" style="stroke: #ff7f0e; stroke-width: 2.5"/>
    </defs>
    <g clip-path="url(#p4cdb69e127)">
     <use xlink:href="#m4044663883" x="0" y="635.878125" style="fill: #ff7f0e; fill-opacity: 0.5; stroke: #ff7f0e; stroke-width: 2.5"/>
    </g>
   </g>
   <g id="PolyCollection_4">
    <defs>
     <path id="mf2f5626b1e" d="M 220.015536 -24.003666 
L 220.015536 -23.878125 
L 223.15962 -23.878125 
L 226.303703 -23.878125 
L 229.447786 -23.878125 
L 232.59187 -23.878125 
L 235.735953 -23.878125 
L 238.880036 -23.878125 
L 242.02412 -23.878125 
L 245.168203 -23.878125 
L 248.312286 -23.878125 
L 251.45637 -23.878125 
L 254.600453 -23.878125 
L 257.744536 -23.878125 
L 260.88862 -23.878125 
L 264.032703 -23.878125 
L 267.176786 -23.878125 
L 270.32087 -23.878125 
L 273.464953 -23.878125 
L 276.609036 -23.878125 
L 279.75312 -23.878125 
L 282.897203 -23.878125 
L 286.041286 -23.878125 
L 289.18537 -23.878125 
L 292.329453 -23.878125 
L 295.473536 -23.878125 
L 298.61762 -23.878125 
L 301.761703 -23.878125 
L 304.905787 -23.878125 
L 308.04987 -23.878125 
L 311.193953 -23.878125 
L 314.338037 -23.878125 
L 317.48212 -23.878125 
L 320.626203 -23.878125 
L 323.770287 -23.878125 
L 326.91437 -23.878125 
L 330.058453 -23.878125 
L 333.202537 -23.878125 
L 336.34662 -23.878125 
L 339.490703 -23.878125 
L 342.634787 -23.878125 
L 345.77887 -23.878125 
L 348.922953 -23.878125 
L 352.067037 -23.878125 
L 355.21112 -23.878125 
L 358.355203 -23.878125 
L 361.499287 -23.878125 
L 364.64337 -23.878125 
L 367.787453 -23.878125 
L 370.931537 -23.878125 
L 374.07562 -23.878125 
L 377.219703 -23.878125 
L 380.363787 -23.878125 
L 383.50787 -23.878125 
L 386.651953 -23.878125 
L 389.796037 -23.878125 
L 392.94012 -23.878125 
L 396.084203 -23.878125 
L 399.228287 -23.878125 
L 402.37237 -23.878125 
L 405.516453 -23.878125 
L 408.660537 -23.878125 
L 411.80462 -23.878125 
L 414.948704 -23.878125 
L 418.092787 -23.878125 
L 421.23687 -23.878125 
L 424.380954 -23.878125 
L 427.525037 -23.878125 
L 430.66912 -23.878125 
L 433.813204 -23.878125 
L 436.957287 -23.878125 
L 440.10137 -23.878125 
L 443.245454 -23.878125 
L 446.389537 -23.878125 
L 449.53362 -23.878125 
L 452.677704 -23.878125 
L 455.821787 -23.878125 
L 458.96587 -23.878125 
L 462.109954 -23.878125 
L 465.254037 -23.878125 
L 468.39812 -23.878125 
L 471.542204 -23.878125 
L 474.686287 -23.878125 
L 477.83037 -23.878125 
L 480.974454 -23.878125 
L 484.118537 -23.878125 
L 487.26262 -23.878125 
L 490.406704 -23.878125 
L 493.550787 -23.878125 
L 496.69487 -23.878125 
L 499.838954 -23.878125 
L 502.983037 -23.878125 
L 506.12712 -23.878125 
L 509.271204 -23.878125 
L 512.415287 -23.878125 
L 515.55937 -23.878125 
L 518.703454 -23.878125 
L 521.847537 -23.878125 
L 524.99162 -23.878125 
L 528.135704 -23.878125 
L 531.279787 -23.878125 
L 534.423871 -23.878125 
L 537.567954 -23.878125 
L 540.712037 -23.878125 
L 543.856121 -23.878125 
L 547.000204 -23.878125 
L 550.144287 -23.878125 
L 553.288371 -23.878125 
L 556.432454 -23.878125 
L 559.576537 -23.878125 
L 562.720621 -23.878125 
L 565.864704 -23.878125 
L 569.008787 -23.878125 
L 572.152871 -23.878125 
L 575.296954 -23.878125 
L 578.441037 -23.878125 
L 581.585121 -23.878125 
L 584.729204 -23.878125 
L 587.873287 -23.878125 
L 591.017371 -23.878125 
L 594.161454 -23.878125 
L 597.305537 -23.878125 
L 600.449621 -23.878125 
L 603.593704 -23.878125 
L 606.737787 -23.878125 
L 609.881871 -23.878125 
L 613.025954 -23.878125 
L 616.170037 -23.878125 
L 619.314121 -23.878125 
L 622.458204 -23.878125 
L 625.602287 -23.878125 
L 628.746371 -23.878125 
L 631.890454 -23.878125 
L 635.034537 -23.878125 
L 638.178621 -23.878125 
L 641.322704 -23.878125 
L 644.466788 -23.878125 
L 647.610871 -23.878125 
L 650.754954 -23.878125 
L 653.899038 -23.878125 
L 657.043121 -23.878125 
L 660.187204 -23.878125 
L 663.331288 -23.878125 
L 666.475371 -23.878125 
L 669.619454 -23.878125 
L 672.763538 -23.878125 
L 675.907621 -23.878125 
L 679.051704 -23.878125 
L 682.195788 -23.878125 
L 685.339871 -23.878125 
L 688.483954 -23.878125 
L 691.628038 -23.878125 
L 694.772121 -23.878125 
L 697.916204 -23.878125 
L 701.060288 -23.878125 
L 704.204371 -23.878125 
L 707.348454 -23.878125 
L 710.492538 -23.878125 
L 713.636621 -23.878125 
L 716.780704 -23.878125 
L 719.924788 -23.878125 
L 723.068871 -23.878125 
L 726.212954 -23.878125 
L 729.357038 -23.878125 
L 732.501121 -23.878125 
L 735.645204 -23.878125 
L 738.789288 -23.878125 
L 741.933371 -23.878125 
L 745.077454 -23.878125 
L 748.221538 -23.878125 
L 751.365621 -23.878125 
L 754.509704 -23.878125 
L 757.653788 -23.878125 
L 760.797871 -23.878125 
L 763.941955 -23.878125 
L 767.086038 -23.878125 
L 770.230121 -23.878125 
L 773.374205 -23.878125 
L 776.518288 -23.878125 
L 779.662371 -23.878125 
L 782.806455 -23.878125 
L 785.950538 -23.878125 
L 789.094621 -23.878125 
L 792.238705 -23.878125 
L 795.382788 -23.878125 
L 798.526871 -23.878125 
L 801.670955 -23.878125 
L 804.815038 -23.878125 
L 807.959121 -23.878125 
L 811.103205 -23.878125 
L 814.247288 -23.878125 
L 817.391371 -23.878125 
L 820.535455 -23.878125 
L 823.679538 -23.878125 
L 826.823621 -23.878125 
L 829.967705 -23.878125 
L 833.111788 -23.878125 
L 836.255871 -23.878125 
L 839.399955 -23.878125 
L 842.544038 -23.878125 
L 845.688121 -23.878125 
L 845.688121 -23.963998 
L 845.688121 -23.963998 
L 842.544038 -23.988871 
L 839.399955 -24.020027 
L 836.255871 -24.058783 
L 833.111788 -24.106661 
L 829.967705 -24.165402 
L 826.823621 -24.236979 
L 823.679538 -24.323606 
L 820.535455 -24.427743 
L 817.391371 -24.552091 
L 814.247288 -24.699594 
L 811.103205 -24.873415 
L 807.959121 -25.076926 
L 804.815038 -25.313671 
L 801.670955 -25.587339 
L 798.526871 -25.901721 
L 795.382788 -26.260663 
L 792.238705 -26.668018 
L 789.094621 -27.127589 
L 785.950538 -27.643077 
L 782.806455 -28.218029 
L 779.662371 -28.855779 
L 776.518288 -29.559409 
L 773.374205 -30.3317 
L 770.230121 -31.175101 
L 767.086038 -32.091702 
L 763.941955 -33.083217 
L 760.797871 -34.150971 
L 757.653788 -35.295906 
L 754.509704 -36.518588 
L 751.365621 -37.819221 
L 748.221538 -39.197671 
L 745.077454 -40.65349 
L 741.933371 -42.185949 
L 738.789288 -43.794066 
L 735.645204 -45.476637 
L 732.501121 -47.232266 
L 729.357038 -49.059389 
L 726.212954 -50.9563 
L 723.068871 -52.921168 
L 719.924788 -54.952052 
L 716.780704 -57.04691 
L 713.636621 -59.203608 
L 710.492538 -61.41992 
L 707.348454 -63.693526 
L 704.204371 -66.022015 
L 701.060288 -68.402875 
L 697.916204 -70.833497 
L 694.772121 -73.311167 
L 691.628038 -75.833074 
L 688.483954 -78.396317 
L 685.339871 -80.997923 
L 682.195788 -83.634871 
L 679.051704 -86.304137 
L 675.907621 -89.002742 
L 672.763538 -91.727825 
L 669.619454 -94.476729 
L 666.475371 -97.247102 
L 663.331288 -100.037015 
L 660.187204 -102.845093 
L 657.043121 -105.670651 
L 653.899038 -108.513832 
L 650.754954 -111.375744 
L 647.610871 -114.258574 
L 644.466788 -117.165688 
L 641.322704 -120.101681 
L 638.178621 -123.072398 
L 635.034537 -126.084881 
L 631.890454 -129.147261 
L 628.746371 -132.268576 
L 625.602287 -135.458506 
L 622.458204 -138.727036 
L 619.314121 -142.084039 
L 616.170037 -145.538799 
L 613.025954 -149.099476 
L 609.881871 -152.772529 
L 606.737787 -156.562132 
L 603.593704 -160.469594 
L 600.449621 -164.492808 
L 597.305537 -168.625781 
L 594.161454 -172.858233 
L 591.017371 -177.175337 
L 587.873287 -181.557583 
L 584.729204 -185.980813 
L 581.585121 -190.416422 
L 578.441037 -194.831732 
L 575.296954 -199.190545 
L 572.152871 -203.45385 
L 569.008787 -207.580663 
L 565.864704 -211.528982 
L 562.720621 -215.256813 
L 559.576537 -218.723223 
L 556.432454 -221.889388 
L 553.288371 -224.719586 
L 550.144287 -227.182085 
L 547.000204 -229.249911 
L 543.856121 -230.901437 
L 540.712037 -232.120797 
L 537.567954 -232.898093 
L 534.423871 -233.229399 
L 531.279787 -233.116575 
L 528.135704 -232.566894 
L 524.99162 -231.592528 
L 521.847537 -230.209895 
L 518.703454 -228.438943 
L 515.55937 -226.302365 
L 512.415287 -223.824824 
L 509.271204 -221.032194 
L 506.12712 -217.950868 
L 502.983037 -214.607149 
L 499.838954 -211.026741 
L 496.69487 -207.234368 
L 493.550787 -203.253503 
L 490.406704 -199.10622 
L 487.26262 -194.813162 
L 484.118537 -190.393594 
L 480.974454 -185.865547 
L 477.83037 -181.246021 
L 474.686287 -176.551218 
L 471.542204 -171.796812 
L 468.39812 -166.9982 
L 465.254037 -162.17075 
L 462.109954 -157.33001 
L 458.96587 -152.491865 
L 455.821787 -147.672648 
L 452.677704 -142.889181 
L 449.53362 -138.15875 
L 446.389537 -133.499011 
L 443.245454 -128.927833 
L 440.10137 -124.463072 
L 436.957287 -120.1223 
L 433.813204 -115.922479 
L 430.66912 -111.879614 
L 427.525037 -108.008374 
L 424.380954 -104.321725 
L 421.23687 -100.830562 
L 418.092787 -97.543378 
L 414.948704 -94.465981 
L 411.80462 -91.601257 
L 408.660537 -88.949024 
L 405.516453 -86.505949 
L 402.37237 -84.265569 
L 399.228287 -82.21839 
L 396.084203 -80.352084 
L 392.94012 -78.651766 
L 389.796037 -77.100353 
L 386.651953 -75.67898 
L 383.50787 -74.367472 
L 380.363787 -73.144852 
L 377.219703 -71.989859 
L 374.07562 -70.881476 
L 370.931537 -69.799435 
L 367.787453 -68.724691 
L 364.64337 -67.639853 
L 361.499287 -66.529552 
L 358.355203 -65.380747 
L 355.21112 -64.182954 
L 352.067037 -62.928394 
L 348.922953 -61.61207 
L 345.77887 -60.231756 
L 342.634787 -58.787914 
L 339.490703 -57.283548 
L 336.34662 -55.723982 
L 333.202537 -54.116598 
L 330.058453 -52.470521 
L 326.91437 -50.796278 
L 323.770287 -49.10543 
L 320.626203 -47.410203 
L 317.48212 -45.723113 
L 314.338037 -44.056611 
L 311.193953 -42.422747 
L 308.04987 -40.832873 
L 304.905787 -39.297381 
L 301.761703 -37.82549 
L 298.61762 -36.425079 
L 295.473536 -35.102579 
L 292.329453 -33.862906 
L 289.18537 -32.709458 
L 286.041286 -31.644138 
L 282.897203 -30.66744 
L 279.75312 -29.778548 
L 276.609036 -28.975479 
L 273.464953 -28.255235 
L 270.32087 -27.613973 
L 267.176786 -27.047175 
L 264.032703 -26.549826 
L 260.88862 -26.116574 
L 257.744536 -25.741884 
L 254.600453 -25.420179 
L 251.45637 -25.145956 
L 248.312286 -24.913889 
L 245.168203 -24.718909 
L 242.02412 -24.556266 
L 238.880036 -24.42157 
L 235.735953 -24.310818 
L 232.59187 -24.220405 
L 229.447786 -24.147125 
L 226.303703 -24.088156 
L 223.15962 -24.041041 
L 220.015536 -24.003666 
z
" style="stroke: #1f77b4; stroke-width: 2.5"/>
    </defs>
    <g clip-path="url(#p4cdb69e127)">
     <use xlink:href="#mf2f5626b1e" x="0" y="635.878125" style="fill: #1f77b4; fill-opacity: 0.5; stroke: #1f77b4; stroke-width: 2.5"/>
    </g>
   </g>
   <g id="matplotlib.axis_3">
    <g id="xtick_6">
     <g id="line2d_15">
      <g>
       <use xlink:href="#maf4fe0813e" x="133.519269" y="612" style="stroke: #000000; stroke-width: 0.8"/>
      </g>
     </g>
     <g id="text_20">
      <!-- 0.0 -->
      <g transform="translate(125.567707 626.598438) scale(0.1 -0.1)">
       <use xlink:href="#DejaVuSans-30"/>
       <use xlink:href="#DejaVuSans-2e" x="63.623047"/>
       <use xlink:href="#DejaVuSans-30" x="95.410156"/>
      </g>
     </g>
    </g>
    <g id="xtick_7">
     <g id="line2d_16">
      <g>
       <use xlink:href="#maf4fe0813e" x="290.085885" y="612" style="stroke: #000000; stroke-width: 0.8"/>
      </g>
     </g>
     <g id="text_21">
      <!-- 0.2 -->
      <g transform="translate(282.134322 626.598438) scale(0.1 -0.1)">
       <use xlink:href="#DejaVuSans-30"/>
       <use xlink:href="#DejaVuSans-2e" x="63.623047"/>
       <use xlink:href="#DejaVuSans-32" x="95.410156"/>
      </g>
     </g>
    </g>
    <g id="xtick_8">
     <g id="line2d_17">
      <g>
       <use xlink:href="#maf4fe0813e" x="446.652501" y="612" style="stroke: #000000; stroke-width: 0.8"/>
      </g>
     </g>
     <g id="text_22">
      <!-- 0.4 -->
      <g transform="translate(438.700938 626.598438) scale(0.1 -0.1)">
       <use xlink:href="#DejaVuSans-30"/>
       <use xlink:href="#DejaVuSans-2e" x="63.623047"/>
       <use xlink:href="#DejaVuSans-34" x="95.410156"/>
      </g>
     </g>
    </g>
    <g id="xtick_9">
     <g id="line2d_18">
      <g>
       <use xlink:href="#maf4fe0813e" x="603.219117" y="612" style="stroke: #000000; stroke-width: 0.8"/>
      </g>
     </g>
     <g id="text_23">
      <!-- 0.6 -->
      <g transform="translate(595.267554 626.598438) scale(0.1 -0.1)">
       <use xlink:href="#DejaVuSans-30"/>
       <use xlink:href="#DejaVuSans-2e" x="63.623047"/>
       <use xlink:href="#DejaVuSans-36" x="95.410156"/>
      </g>
     </g>
    </g>
    <g id="xtick_10">
     <g id="line2d_19">
      <g>
       <use xlink:href="#maf4fe0813e" x="759.785733" y="612" style="stroke: #000000; stroke-width: 0.8"/>
      </g>
     </g>
     <g id="text_24">
      <!-- 0.8 -->
      <g transform="translate(751.83417 626.598438) scale(0.1 -0.1)">
       <use xlink:href="#DejaVuSans-30"/>
       <use xlink:href="#DejaVuSans-2e" x="63.623047"/>
       <use xlink:href="#DejaVuSans-38" x="95.410156"/>
      </g>
     </g>
    </g>
   </g>
   <g id="matplotlib.axis_4">
    <g id="ytick_10">
     <g id="line2d_20">
      <g>
       <use xlink:href="#m93c6052d8f" x="43.78125" y="612" style="stroke: #000000; stroke-width: 0.8"/>
      </g>
     </g>
     <g id="text_25">
      <!-- 0.0 -->
      <g transform="translate(20.878125 615.799219) scale(0.1 -0.1)">
       <use xlink:href="#DejaVuSans-30"/>
       <use xlink:href="#DejaVuSans-2e" x="63.623047"/>
       <use xlink:href="#DejaVuSans-30" x="95.410156"/>
      </g>
     </g>
    </g>
    <g id="ytick_11">
     <g id="line2d_21">
      <g>
       <use xlink:href="#m93c6052d8f" x="43.78125" y="582.994549" style="stroke: #000000; stroke-width: 0.8"/>
      </g>
     </g>
     <g id="text_26">
      <!-- 0.5 -->
      <g transform="translate(20.878125 586.793767) scale(0.1 -0.1)">
       <use xlink:href="#DejaVuSans-30"/>
       <use xlink:href="#DejaVuSans-2e" x="63.623047"/>
       <use xlink:href="#DejaVuSans-35" x="95.410156"/>
      </g>
     </g>
    </g>
    <g id="ytick_12">
     <g id="line2d_22">
      <g>
       <use xlink:href="#m93c6052d8f" x="43.78125" y="553.989097" style="stroke: #000000; stroke-width: 0.8"/>
      </g>
     </g>
     <g id="text_27">
      <!-- 1.0 -->
      <g transform="translate(20.878125 557.788316) scale(0.1 -0.1)">
       <use xlink:href="#DejaVuSans-31"/>
       <use xlink:href="#DejaVuSans-2e" x="63.623047"/>
       <use xlink:href="#DejaVuSans-30" x="95.410156"/>
      </g>
     </g>
    </g>
    <g id="ytick_13">
     <g id="line2d_23">
      <g>
       <use xlink:href="#m93c6052d8f" x="43.78125" y="524.983646" style="stroke: #000000; stroke-width: 0.8"/>
      </g>
     </g>
     <g id="text_28">
      <!-- 1.5 -->
      <g transform="translate(20.878125 528.782864) scale(0.1 -0.1)">
       <use xlink:href="#DejaVuSans-31"/>
       <use xlink:href="#DejaVuSans-2e" x="63.623047"/>
       <use xlink:href="#DejaVuSans-35" x="95.410156"/>
      </g>
     </g>
    </g>
    <g id="ytick_14">
     <g id="line2d_24">
      <g>
       <use xlink:href="#m93c6052d8f" x="43.78125" y="495.978194" style="stroke: #000000; stroke-width: 0.8"/>
      </g>
     </g>
     <g id="text_29">
      <!-- 2.0 -->
      <g transform="translate(20.878125 499.777413) scale(0.1 -0.1)">
       <use xlink:href="#DejaVuSans-32"/>
       <use xlink:href="#DejaVuSans-2e" x="63.623047"/>
       <use xlink:href="#DejaVuSans-30" x="95.410156"/>
      </g>
     </g>
    </g>
    <g id="ytick_15">
     <g id="line2d_25">
      <g>
       <use xlink:href="#m93c6052d8f" x="43.78125" y="466.972743" style="stroke: #000000; stroke-width: 0.8"/>
      </g>
     </g>
     <g id="text_30">
      <!-- 2.5 -->
      <g transform="translate(20.878125 470.771961) scale(0.1 -0.1)">
       <use xlink:href="#DejaVuSans-32"/>
       <use xlink:href="#DejaVuSans-2e" x="63.623047"/>
       <use xlink:href="#DejaVuSans-35" x="95.410156"/>
      </g>
     </g>
    </g>
    <g id="ytick_16">
     <g id="line2d_26">
      <g>
       <use xlink:href="#m93c6052d8f" x="43.78125" y="437.967291" style="stroke: #000000; stroke-width: 0.8"/>
      </g>
     </g>
     <g id="text_31">
      <!-- 3.0 -->
      <g transform="translate(20.878125 441.76651) scale(0.1 -0.1)">
       <use xlink:href="#DejaVuSans-33"/>
       <use xlink:href="#DejaVuSans-2e" x="63.623047"/>
       <use xlink:href="#DejaVuSans-30" x="95.410156"/>
      </g>
     </g>
    </g>
    <g id="ytick_17">
     <g id="line2d_27">
      <g>
       <use xlink:href="#m93c6052d8f" x="43.78125" y="408.96184" style="stroke: #000000; stroke-width: 0.8"/>
      </g>
     </g>
     <g id="text_32">
      <!-- 3.5 -->
      <g transform="translate(20.878125 412.761059) scale(0.1 -0.1)">
       <use xlink:href="#DejaVuSans-33"/>
       <use xlink:href="#DejaVuSans-2e" x="63.623047"/>
       <use xlink:href="#DejaVuSans-35" x="95.410156"/>
      </g>
     </g>
    </g>
    <g id="ytick_18">
     <g id="line2d_28">
      <g>
       <use xlink:href="#m93c6052d8f" x="43.78125" y="379.956388" style="stroke: #000000; stroke-width: 0.8"/>
      </g>
     </g>
     <g id="text_33">
      <!-- 4.0 -->
      <g transform="translate(20.878125 383.755607) scale(0.1 -0.1)">
       <use xlink:href="#DejaVuSans-34"/>
       <use xlink:href="#DejaVuSans-2e" x="63.623047"/>
       <use xlink:href="#DejaVuSans-30" x="95.410156"/>
      </g>
     </g>
    </g>
    <g id="text_34">
     <!-- Density -->
     <g transform="translate(14.798438 510.486855) rotate(-90) scale(0.1 -0.1)">
      <use xlink:href="#DejaVuSans-44"/>
      <use xlink:href="#DejaVuSans-65" x="77.001953"/>
      <use xlink:href="#DejaVuSans-6e" x="138.525391"/>
      <use xlink:href="#DejaVuSans-73" x="201.904297"/>
      <use xlink:href="#DejaVuSans-69" x="254.003906"/>
      <use xlink:href="#DejaVuSans-74" x="281.787109"/>
      <use xlink:href="#DejaVuSans-79" x="320.996094"/>
     </g>
    </g>
   </g>
   <g id="patch_11">
    <path d="M 43.78125 612 
L 43.78125 370.956522 
" style="fill: none; stroke: #000000; stroke-width: 0.8; stroke-linejoin: miter; stroke-linecap: square"/>
   </g>
   <g id="patch_12">
    <path d="M 880.78125 612 
L 880.78125 370.956522 
" style="fill: none; stroke: #000000; stroke-width: 0.8; stroke-linejoin: miter; stroke-linecap: square"/>
   </g>
   <g id="patch_13">
    <path d="M 43.78125 612 
L 880.78125 612 
" style="fill: none; stroke: #000000; stroke-width: 0.8; stroke-linejoin: miter; stroke-linecap: square"/>
   </g>
   <g id="patch_14">
    <path d="M 43.78125 370.956522 
L 880.78125 370.956522 
" style="fill: none; stroke: #000000; stroke-width: 0.8; stroke-linejoin: miter; stroke-linecap: square"/>
   </g>
   <g id="text_35">
    <!-- Spearman correlation coefficients -->
    <g transform="translate(361.111875 364.956522) scale(0.12 -0.12)">
     <defs>
      <path id="DejaVuSans-53" d="M 3425 4513 
L 3425 3897 
Q 3066 4069 2747 4153 
Q 2428 4238 2131 4238 
Q 1616 4238 1336 4038 
Q 1056 3838 1056 3469 
Q 1056 3159 1242 3001 
Q 1428 2844 1947 2747 
L 2328 2669 
Q 3034 2534 3370 2195 
Q 3706 1856 3706 1288 
Q 3706 609 3251 259 
Q 2797 -91 1919 -91 
Q 1588 -91 1214 -16 
Q 841 59 441 206 
L 441 856 
Q 825 641 1194 531 
Q 1563 422 1919 422 
Q 2459 422 2753 634 
Q 3047 847 3047 1241 
Q 3047 1584 2836 1778 
Q 2625 1972 2144 2069 
L 1759 2144 
Q 1053 2284 737 2584 
Q 422 2884 422 3419 
Q 422 4038 858 4394 
Q 1294 4750 2059 4750 
Q 2388 4750 2728 4690 
Q 3069 4631 3425 4513 
z
" transform="scale(0.015625)"/>
      <path id="DejaVuSans-6d" d="M 3328 2828 
Q 3544 3216 3844 3400 
Q 4144 3584 4550 3584 
Q 5097 3584 5394 3201 
Q 5691 2819 5691 2113 
L 5691 0 
L 5113 0 
L 5113 2094 
Q 5113 2597 4934 2840 
Q 4756 3084 4391 3084 
Q 3944 3084 3684 2787 
Q 3425 2491 3425 1978 
L 3425 0 
L 2847 0 
L 2847 2094 
Q 2847 2600 2669 2842 
Q 2491 3084 2119 3084 
Q 1678 3084 1418 2786 
Q 1159 2488 1159 1978 
L 1159 0 
L 581 0 
L 581 3500 
L 1159 3500 
L 1159 2956 
Q 1356 3278 1631 3431 
Q 1906 3584 2284 3584 
Q 2666 3584 2933 3390 
Q 3200 3197 3328 2828 
z
" transform="scale(0.015625)"/>
     </defs>
     <use xlink:href="#DejaVuSans-53"/>
     <use xlink:href="#DejaVuSans-70" x="63.476562"/>
     <use xlink:href="#DejaVuSans-65" x="126.953125"/>
     <use xlink:href="#DejaVuSans-61" x="188.476562"/>
     <use xlink:href="#DejaVuSans-72" x="249.755859"/>
     <use xlink:href="#DejaVuSans-6d" x="289.119141"/>
     <use xlink:href="#DejaVuSans-61" x="386.53125"/>
     <use xlink:href="#DejaVuSans-6e" x="447.810547"/>
     <use xlink:href="#DejaVuSans-20" x="511.189453"/>
     <use xlink:href="#DejaVuSans-63" x="542.976562"/>
     <use xlink:href="#DejaVuSans-6f" x="597.957031"/>
     <use xlink:href="#DejaVuSans-72" x="659.138672"/>
     <use xlink:href="#DejaVuSans-72" x="698.501953"/>
     <use xlink:href="#DejaVuSans-65" x="737.365234"/>
     <use xlink:href="#DejaVuSans-6c" x="798.888672"/>
     <use xlink:href="#DejaVuSans-61" x="826.671875"/>
     <use xlink:href="#DejaVuSans-74" x="887.951172"/>
     <use xlink:href="#DejaVuSans-69" x="927.160156"/>
     <use xlink:href="#DejaVuSans-6f" x="954.943359"/>
     <use xlink:href="#DejaVuSans-6e" x="1016.125"/>
     <use xlink:href="#DejaVuSans-20" x="1079.503906"/>
     <use xlink:href="#DejaVuSans-63" x="1111.291016"/>
     <use xlink:href="#DejaVuSans-6f" x="1166.271484"/>
     <use xlink:href="#DejaVuSans-65" x="1227.453125"/>
     <use xlink:href="#DejaVuSans-66" x="1288.976562"/>
     <use xlink:href="#DejaVuSans-66" x="1324.181641"/>
     <use xlink:href="#DejaVuSans-69" x="1359.386719"/>
     <use xlink:href="#DejaVuSans-63" x="1387.169922"/>
     <use xlink:href="#DejaVuSans-69" x="1442.150391"/>
     <use xlink:href="#DejaVuSans-65" x="1469.933594"/>
     <use xlink:href="#DejaVuSans-6e" x="1531.457031"/>
     <use xlink:href="#DejaVuSans-74" x="1594.835938"/>
     <use xlink:href="#DejaVuSans-73" x="1634.044922"/>
    </g>
   </g>
   <g id="legend_2">
    <g id="patch_15">
     <path d="M 50.78125 422.990897 
L 138.80625 422.990897 
Q 140.80625 422.990897 140.80625 420.990897 
L 140.80625 377.956522 
Q 140.80625 375.956522 138.80625 375.956522 
L 50.78125 375.956522 
Q 48.78125 375.956522 48.78125 377.956522 
L 48.78125 420.990897 
Q 48.78125 422.990897 50.78125 422.990897 
z
" style="fill: #ffffff; opacity: 0.8; stroke: #cccccc; stroke-linejoin: miter"/>
    </g>
    <g id="text_36">
     <!-- Correlation type: -->
     <g transform="translate(52.78125 387.554959) scale(0.1 -0.1)">
      <use xlink:href="#DejaVuSans-43"/>
      <use xlink:href="#DejaVuSans-6f" x="69.824219"/>
      <use xlink:href="#DejaVuSans-72" x="131.005859"/>
      <use xlink:href="#DejaVuSans-72" x="170.369141"/>
      <use xlink:href="#DejaVuSans-65" x="209.232422"/>
      <use xlink:href="#DejaVuSans-6c" x="270.755859"/>
      <use xlink:href="#DejaVuSans-61" x="298.539062"/>
      <use xlink:href="#DejaVuSans-74" x="359.818359"/>
      <use xlink:href="#DejaVuSans-69" x="399.027344"/>
      <use xlink:href="#DejaVuSans-6f" x="426.810547"/>
      <use xlink:href="#DejaVuSans-6e" x="487.992188"/>
      <use xlink:href="#DejaVuSans-20" x="551.371094"/>
      <use xlink:href="#DejaVuSans-74" x="583.158203"/>
      <use xlink:href="#DejaVuSans-79" x="622.367188"/>
      <use xlink:href="#DejaVuSans-70" x="681.546875"/>
      <use xlink:href="#DejaVuSans-65" x="745.023438"/>
      <use xlink:href="#DejaVuSans-3a" x="806.546875"/>
     </g>
    </g>
    <g id="patch_16">
     <path d="M 53.285156 402.233084 
L 73.285156 402.233084 
L 73.285156 395.233084 
L 53.285156 395.233084 
z
" style="fill: #1f77b4; fill-opacity: 0.5; stroke: #1f77b4; stroke-width: 2.5; stroke-linejoin: miter"/>
    </g>
    <g id="text_37">
     <!-- Codon -->
     <g transform="translate(81.285156 402.233084) scale(0.1 -0.1)">
      <use xlink:href="#DejaVuSans-43"/>
      <use xlink:href="#DejaVuSans-6f" x="69.824219"/>
      <use xlink:href="#DejaVuSans-64" x="131.005859"/>
      <use xlink:href="#DejaVuSans-6f" x="194.482422"/>
      <use xlink:href="#DejaVuSans-6e" x="255.664062"/>
     </g>
    </g>
    <g id="patch_17">
     <path d="M 53.285156 416.911209 
L 73.285156 416.911209 
L 73.285156 409.911209 
L 53.285156 409.911209 
z
" style="fill: #ff7f0e; fill-opacity: 0.5; stroke: #ff7f0e; stroke-width: 2.5; stroke-linejoin: miter"/>
    </g>
    <g id="text_38">
     <!-- Codon+GC -->
     <g transform="translate(81.285156 416.911209) scale(0.1 -0.1)">
      <use xlink:href="#DejaVuSans-43"/>
      <use xlink:href="#DejaVuSans-6f" x="69.824219"/>
      <use xlink:href="#DejaVuSans-64" x="131.005859"/>
      <use xlink:href="#DejaVuSans-6f" x="194.482422"/>
      <use xlink:href="#DejaVuSans-6e" x="255.664062"/>
      <use xlink:href="#DejaVuSans-2b" x="319.042969"/>
      <use xlink:href="#DejaVuSans-47" x="402.832031"/>
      <use xlink:href="#DejaVuSans-43" x="480.322266"/>
     </g>
    </g>
   </g>
  </g>
  <g id="text_39">
   <!-- Archaea - Density of correlation coefficients for genetic code: Invertebrate mitochondrial -->
   <g transform="translate(115.195312 18.597656) scale(0.15 -0.15)">
    <defs>
     <path id="DejaVuSans-41" d="M 2188 4044 
L 1331 1722 
L 3047 1722 
L 2188 4044 
z
M 1831 4666 
L 2547 4666 
L 4325 0 
L 3669 0 
L 3244 1197 
L 1141 1197 
L 716 0 
L 50 0 
L 1831 4666 
z
" transform="scale(0.015625)"/>
     <path id="DejaVuSans-68" d="M 3513 2113 
L 3513 0 
L 2938 0 
L 2938 2094 
Q 2938 2591 2744 2837 
Q 2550 3084 2163 3084 
Q 1697 3084 1428 2787 
Q 1159 2491 1159 1978 
L 1159 0 
L 581 0 
L 581 4863 
L 1159 4863 
L 1159 2956 
Q 1366 3272 1645 3428 
Q 1925 3584 2291 3584 
Q 2894 3584 3203 3211 
Q 3513 2838 3513 2113 
z
" transform="scale(0.015625)"/>
     <path id="DejaVuSans-2d" d="M 313 2009 
L 1997 2009 
L 1997 1497 
L 313 1497 
L 313 2009 
z
" transform="scale(0.015625)"/>
     <path id="DejaVuSans-67" d="M 2906 1791 
Q 2906 2416 2648 2759 
Q 2391 3103 1925 3103 
Q 1463 3103 1205 2759 
Q 947 2416 947 1791 
Q 947 1169 1205 825 
Q 1463 481 1925 481 
Q 2391 481 2648 825 
Q 2906 1169 2906 1791 
z
M 3481 434 
Q 3481 -459 3084 -895 
Q 2688 -1331 1869 -1331 
Q 1566 -1331 1297 -1286 
Q 1028 -1241 775 -1147 
L 775 -588 
Q 1028 -725 1275 -790 
Q 1522 -856 1778 -856 
Q 2344 -856 2625 -561 
Q 2906 -266 2906 331 
L 2906 616 
Q 2728 306 2450 153 
Q 2172 0 1784 0 
Q 1141 0 747 490 
Q 353 981 353 1791 
Q 353 2603 747 3093 
Q 1141 3584 1784 3584 
Q 2172 3584 2450 3431 
Q 2728 3278 2906 2969 
L 2906 3500 
L 3481 3500 
L 3481 434 
z
" transform="scale(0.015625)"/>
     <path id="DejaVuSans-49" d="M 628 4666 
L 1259 4666 
L 1259 0 
L 628 0 
L 628 4666 
z
" transform="scale(0.015625)"/>
     <path id="DejaVuSans-76" d="M 191 3500 
L 800 3500 
L 1894 563 
L 2988 3500 
L 3597 3500 
L 2284 0 
L 1503 0 
L 191 3500 
z
" transform="scale(0.015625)"/>
     <path id="DejaVuSans-62" d="M 3116 1747 
Q 3116 2381 2855 2742 
Q 2594 3103 2138 3103 
Q 1681 3103 1420 2742 
Q 1159 2381 1159 1747 
Q 1159 1113 1420 752 
Q 1681 391 2138 391 
Q 2594 391 2855 752 
Q 3116 1113 3116 1747 
z
M 1159 2969 
Q 1341 3281 1617 3432 
Q 1894 3584 2278 3584 
Q 2916 3584 3314 3078 
Q 3713 2572 3713 1747 
Q 3713 922 3314 415 
Q 2916 -91 2278 -91 
Q 1894 -91 1617 61 
Q 1341 213 1159 525 
L 1159 0 
L 581 0 
L 581 4863 
L 1159 4863 
L 1159 2969 
z
" transform="scale(0.015625)"/>
    </defs>
    <use xlink:href="#DejaVuSans-41"/>
    <use xlink:href="#DejaVuSans-72" x="68.408203"/>
    <use xlink:href="#DejaVuSans-63" x="107.271484"/>
    <use xlink:href="#DejaVuSans-68" x="162.251953"/>
    <use xlink:href="#DejaVuSans-61" x="225.630859"/>
    <use xlink:href="#DejaVuSans-65" x="286.910156"/>
    <use xlink:href="#DejaVuSans-61" x="348.433594"/>
    <use xlink:href="#DejaVuSans-20" x="409.712891"/>
    <use xlink:href="#DejaVuSans-2d" x="441.5"/>
    <use xlink:href="#DejaVuSans-20" x="477.583984"/>
    <use xlink:href="#DejaVuSans-44" x="509.371094"/>
    <use xlink:href="#DejaVuSans-65" x="586.373047"/>
    <use xlink:href="#DejaVuSans-6e" x="647.896484"/>
    <use xlink:href="#DejaVuSans-73" x="711.275391"/>
    <use xlink:href="#DejaVuSans-69" x="763.375"/>
    <use xlink:href="#DejaVuSans-74" x="791.158203"/>
    <use xlink:href="#DejaVuSans-79" x="830.367188"/>
    <use xlink:href="#DejaVuSans-20" x="889.546875"/>
    <use xlink:href="#DejaVuSans-6f" x="921.333984"/>
    <use xlink:href="#DejaVuSans-66" x="982.515625"/>
    <use xlink:href="#DejaVuSans-20" x="1017.720703"/>
    <use xlink:href="#DejaVuSans-63" x="1049.507812"/>
    <use xlink:href="#DejaVuSans-6f" x="1104.488281"/>
    <use xlink:href="#DejaVuSans-72" x="1165.669922"/>
    <use xlink:href="#DejaVuSans-72" x="1205.033203"/>
    <use xlink:href="#DejaVuSans-65" x="1243.896484"/>
    <use xlink:href="#DejaVuSans-6c" x="1305.419922"/>
    <use xlink:href="#DejaVuSans-61" x="1333.203125"/>
    <use xlink:href="#DejaVuSans-74" x="1394.482422"/>
    <use xlink:href="#DejaVuSans-69" x="1433.691406"/>
    <use xlink:href="#DejaVuSans-6f" x="1461.474609"/>
    <use xlink:href="#DejaVuSans-6e" x="1522.65625"/>
    <use xlink:href="#DejaVuSans-20" x="1586.035156"/>
    <use xlink:href="#DejaVuSans-63" x="1617.822266"/>
    <use xlink:href="#DejaVuSans-6f" x="1672.802734"/>
    <use xlink:href="#DejaVuSans-65" x="1733.984375"/>
    <use xlink:href="#DejaVuSans-66" x="1795.507812"/>
    <use xlink:href="#DejaVuSans-66" x="1830.712891"/>
    <use xlink:href="#DejaVuSans-69" x="1865.917969"/>
    <use xlink:href="#DejaVuSans-63" x="1893.701172"/>
    <use xlink:href="#DejaVuSans-69" x="1948.681641"/>
    <use xlink:href="#DejaVuSans-65" x="1976.464844"/>
    <use xlink:href="#DejaVuSans-6e" x="2037.988281"/>
    <use xlink:href="#DejaVuSans-74" x="2101.367188"/>
    <use xlink:href="#DejaVuSans-73" x="2140.576172"/>
    <use xlink:href="#DejaVuSans-20" x="2192.675781"/>
    <use xlink:href="#DejaVuSans-66" x="2224.462891"/>
    <use xlink:href="#DejaVuSans-6f" x="2259.667969"/>
    <use xlink:href="#DejaVuSans-72" x="2320.849609"/>
    <use xlink:href="#DejaVuSans-20" x="2361.962891"/>
    <use xlink:href="#DejaVuSans-67" x="2393.75"/>
    <use xlink:href="#DejaVuSans-65" x="2457.226562"/>
    <use xlink:href="#DejaVuSans-6e" x="2518.75"/>
    <use xlink:href="#DejaVuSans-65" x="2582.128906"/>
    <use xlink:href="#DejaVuSans-74" x="2643.652344"/>
    <use xlink:href="#DejaVuSans-69" x="2682.861328"/>
    <use xlink:href="#DejaVuSans-63" x="2710.644531"/>
    <use xlink:href="#DejaVuSans-20" x="2765.625"/>
    <use xlink:href="#DejaVuSans-63" x="2797.412109"/>
    <use xlink:href="#DejaVuSans-6f" x="2852.392578"/>
    <use xlink:href="#DejaVuSans-64" x="2913.574219"/>
    <use xlink:href="#DejaVuSans-65" x="2977.050781"/>
    <use xlink:href="#DejaVuSans-3a" x="3038.574219"/>
    <use xlink:href="#DejaVuSans-20" x="3072.265625"/>
    <use xlink:href="#DejaVuSans-49" x="3104.052734"/>
    <use xlink:href="#DejaVuSans-6e" x="3133.544922"/>
    <use xlink:href="#DejaVuSans-76" x="3196.923828"/>
    <use xlink:href="#DejaVuSans-65" x="3256.103516"/>
    <use xlink:href="#DejaVuSans-72" x="3317.626953"/>
    <use xlink:href="#DejaVuSans-74" x="3358.740234"/>
    <use xlink:href="#DejaVuSans-65" x="3397.949219"/>
    <use xlink:href="#DejaVuSans-62" x="3459.472656"/>
    <use xlink:href="#DejaVuSans-72" x="3522.949219"/>
    <use xlink:href="#DejaVuSans-61" x="3564.0625"/>
    <use xlink:href="#DejaVuSans-74" x="3625.341797"/>
    <use xlink:href="#DejaVuSans-65" x="3664.550781"/>
    <use xlink:href="#DejaVuSans-20" x="3726.074219"/>
    <use xlink:href="#DejaVuSans-6d" x="3757.861328"/>
    <use xlink:href="#DejaVuSans-69" x="3855.273438"/>
    <use xlink:href="#DejaVuSans-74" x="3883.056641"/>
    <use xlink:href="#DejaVuSans-6f" x="3922.265625"/>
    <use xlink:href="#DejaVuSans-63" x="3983.447266"/>
    <use xlink:href="#DejaVuSans-68" x="4038.427734"/>
    <use xlink:href="#DejaVuSans-6f" x="4101.806641"/>
    <use xlink:href="#DejaVuSans-6e" x="4162.988281"/>
    <use xlink:href="#DejaVuSans-64" x="4226.367188"/>
    <use xlink:href="#DejaVuSans-72" x="4289.84375"/>
    <use xlink:href="#DejaVuSans-69" x="4330.957031"/>
    <use xlink:href="#DejaVuSans-61" x="4358.740234"/>
    <use xlink:href="#DejaVuSans-6c" x="4420.019531"/>
   </g>
  </g>
 </g>
 <defs>
  <clipPath id="p96e26bcff0">
   <rect x="43.78125" y="57.6" width="837" height="241.043478"/>
  </clipPath>
  <clipPath id="p4cdb69e127">
   <rect x="43.78125" y="370.956522" width="837" height="241.043478"/>
  </clipPath>
 </defs>
</svg>
