<?xml version="1.0" encoding="utf-8" standalone="no"?>
<!DOCTYPE svg PUBLIC "-//W3C//DTD SVG 1.1//EN"
  "http://www.w3.org/Graphics/SVG/1.1/DTD/svg11.dtd">
<svg xmlns:xlink="http://www.w3.org/1999/xlink" width="894.34375pt" height="649.55625pt" viewBox="0 0 894.34375 649.55625" xmlns="http://www.w3.org/2000/svg" version="1.1">
 <metadata>
  <rdf:RDF xmlns:dc="http://purl.org/dc/elements/1.1/" xmlns:cc="http://creativecommons.org/ns#" xmlns:rdf="http://www.w3.org/1999/02/22-rdf-syntax-ns#">
   <cc:Work>
    <dc:type rdf:resource="http://purl.org/dc/dcmitype/StillImage"/>
    <dc:date>2024-09-24T17:16:21.029271</dc:date>
    <dc:format>image/svg+xml</dc:format>
    <dc:creator>
     <cc:Agent>
      <dc:title>Matplotlib v3.8.3, https://matplotlib.org/</dc:title>
     </cc:Agent>
    </dc:creator>
   </cc:Work>
  </rdf:RDF>
 </metadata>
 <defs>
  <style type="text/css">*{stroke-linejoin: round; stroke-linecap: butt}</style>
 </defs>
 <g id="figure_1">
  <g id="patch_1">
   <path d="M 0 649.55625 
L 894.34375 649.55625 
L 894.34375 0 
L 0 0 
z
" style="fill: #ffffff"/>
  </g>
  <g id="axes_1">
   <g id="patch_2">
    <path d="M 50.14375 309.6 
L 448.715179 309.6 
L 448.715179 57.6 
L 50.14375 57.6 
z
" style="fill: #ffffff"/>
   </g>
   <g id="PathCollection_1">
    <defs>
     <path id="m6feff37729" d="M 0 3.535534 
C 0.937635 3.535534 1.836992 3.163008 2.5 2.5 
C 3.163008 1.836992 3.535534 0.937635 3.535534 0 
C 3.535534 -0.937635 3.163008 -1.836992 2.5 -2.5 
C 1.836992 -3.163008 0.937635 -3.535534 0 -3.535534 
C -0.937635 -3.535534 -1.836992 -3.163008 -2.5 -2.5 
C -3.163008 -1.836992 -3.535534 -0.937635 -3.535534 0 
C -3.535534 0.937635 -3.163008 1.836992 -2.5 2.5 
C -1.836992 3.163008 -0.937635 3.535534 0 3.535534 
z
" style="stroke: #1f77b4; stroke-opacity: 0.8"/>
    </defs>
    <g clip-path="url(#p317c9e3e0f)">
     <use xlink:href="#m6feff37729" x="68.260633" y="268.356147" style="fill: #1f77b4; fill-opacity: 0.8; stroke: #1f77b4; stroke-opacity: 0.8"/>
     <use xlink:href="#m6feff37729" x="128.650244" y="296.868167" style="fill: #1f77b4; fill-opacity: 0.8; stroke: #1f77b4; stroke-opacity: 0.8"/>
     <use xlink:href="#m6feff37729" x="128.650244" y="286.723048" style="fill: #1f77b4; fill-opacity: 0.8; stroke: #1f77b4; stroke-opacity: 0.8"/>
     <use xlink:href="#m6feff37729" x="128.650244" y="210.027771" style="fill: #1f77b4; fill-opacity: 0.8; stroke: #1f77b4; stroke-opacity: 0.8"/>
     <use xlink:href="#m6feff37729" x="128.650244" y="195.336987" style="fill: #1f77b4; fill-opacity: 0.8; stroke: #1f77b4; stroke-opacity: 0.8"/>
     <use xlink:href="#m6feff37729" x="128.650244" y="230.51808" style="fill: #1f77b4; fill-opacity: 0.8; stroke: #1f77b4; stroke-opacity: 0.8"/>
     <use xlink:href="#m6feff37729" x="128.650244" y="273.495821" style="fill: #1f77b4; fill-opacity: 0.8; stroke: #1f77b4; stroke-opacity: 0.8"/>
     <use xlink:href="#m6feff37729" x="189.039854" y="198.218154" style="fill: #1f77b4; fill-opacity: 0.8; stroke: #1f77b4; stroke-opacity: 0.8"/>
     <use xlink:href="#m6feff37729" x="128.650244" y="230.380441" style="fill: #1f77b4; fill-opacity: 0.8; stroke: #1f77b4; stroke-opacity: 0.8"/>
     <use xlink:href="#m6feff37729" x="128.650244" y="241.250641" style="fill: #1f77b4; fill-opacity: 0.8; stroke: #1f77b4; stroke-opacity: 0.8"/>
     <use xlink:href="#m6feff37729" x="189.039854" y="254.327054" style="fill: #1f77b4; fill-opacity: 0.8; stroke: #1f77b4; stroke-opacity: 0.8"/>
     <use xlink:href="#m6feff37729" x="189.039854" y="204.141249" style="fill: #1f77b4; fill-opacity: 0.8; stroke: #1f77b4; stroke-opacity: 0.8"/>
     <use xlink:href="#m6feff37729" x="249.429464" y="152.480032" style="fill: #1f77b4; fill-opacity: 0.8; stroke: #1f77b4; stroke-opacity: 0.8"/>
     <use xlink:href="#m6feff37729" x="249.429464" y="174.99939" style="fill: #1f77b4; fill-opacity: 0.8; stroke: #1f77b4; stroke-opacity: 0.8"/>
     <use xlink:href="#m6feff37729" x="249.429464" y="214.972777" style="fill: #1f77b4; fill-opacity: 0.8; stroke: #1f77b4; stroke-opacity: 0.8"/>
     <use xlink:href="#m6feff37729" x="249.429464" y="198.840878" style="fill: #1f77b4; fill-opacity: 0.8; stroke: #1f77b4; stroke-opacity: 0.8"/>
     <use xlink:href="#m6feff37729" x="249.429464" y="178.015149" style="fill: #1f77b4; fill-opacity: 0.8; stroke: #1f77b4; stroke-opacity: 0.8"/>
     <use xlink:href="#m6feff37729" x="370.208685" y="109.165864" style="fill: #1f77b4; fill-opacity: 0.8; stroke: #1f77b4; stroke-opacity: 0.8"/>
     <use xlink:href="#m6feff37729" x="249.429464" y="215.638987" style="fill: #1f77b4; fill-opacity: 0.8; stroke: #1f77b4; stroke-opacity: 0.8"/>
     <use xlink:href="#m6feff37729" x="430.598295" y="159.606179" style="fill: #1f77b4; fill-opacity: 0.8; stroke: #1f77b4; stroke-opacity: 0.8"/>
    </g>
   </g>
   <g id="PolyCollection_1">
    <path d="M 68.260633 244.298025 
L 68.260633 298.145455 
L 71.92061 296.025466 
L 75.580586 293.857455 
L 79.240562 291.689443 
L 82.900539 289.521432 
L 86.560515 287.353421 
L 90.220491 285.18541 
L 93.880468 283.219841 
L 97.540444 281.266794 
L 101.200421 279.186163 
L 104.860397 276.908285 
L 108.520373 274.966675 
L 112.18035 273.069776 
L 115.840326 270.921063 
L 119.500303 268.765942 
L 123.160279 266.439544 
L 126.820255 264.454471 
L 130.480232 262.561911 
L 134.140208 260.651684 
L 137.800184 258.550978 
L 141.460161 256.338973 
L 145.120137 254.331188 
L 148.780114 252.420652 
L 152.44009 250.535889 
L 156.100066 248.640396 
L 159.760043 246.779927 
L 163.420019 244.465408 
L 167.079996 242.497357 
L 170.739972 240.694133 
L 174.399948 238.899636 
L 178.059925 237.486197 
L 181.719901 235.517828 
L 185.379878 233.831684 
L 189.039854 231.877305 
L 192.69983 230.199449 
L 196.359807 228.655482 
L 200.019783 226.949717 
L 203.679759 225.534951 
L 207.339736 223.896701 
L 210.999712 222.569893 
L 214.659689 221.085647 
L 218.319665 219.641146 
L 221.979641 217.906149 
L 225.639618 216.659419 
L 229.299594 215.38279 
L 232.959571 214.110081 
L 236.619547 212.73938 
L 240.279523 211.478413 
L 243.9395 210.201209 
L 247.599476 208.873287 
L 251.259452 207.612666 
L 254.919429 206.234314 
L 258.579405 205.109335 
L 262.239382 203.65251 
L 265.899358 202.518231 
L 269.559334 201.325659 
L 273.219311 200.061764 
L 276.879287 198.913626 
L 280.539264 197.783684 
L 284.19924 196.420229 
L 287.859216 195.041808 
L 291.519193 193.87377 
L 295.179169 192.763596 
L 298.839146 191.64696 
L 302.499122 190.480555 
L 306.159098 189.331863 
L 309.819075 188.152496 
L 313.479051 186.981409 
L 317.139027 185.840906 
L 320.799004 184.766354 
L 324.45898 183.690503 
L 328.118957 182.519062 
L 331.778933 181.298925 
L 335.438909 180.343911 
L 339.098886 179.192453 
L 342.758862 178.096567 
L 346.418839 177.1713 
L 350.078815 176.108939 
L 353.738791 175.004926 
L 357.398768 173.857748 
L 361.058744 172.785372 
L 364.71872 171.687257 
L 368.378697 170.731465 
L 372.038673 169.689262 
L 375.69865 168.644097 
L 379.358626 167.684131 
L 383.018602 166.612006 
L 386.678579 165.50083 
L 390.338555 164.389654 
L 393.998532 163.356257 
L 397.658508 162.377511 
L 401.318484 161.398385 
L 404.978461 160.418747 
L 408.638437 159.441273 
L 412.298414 158.423822 
L 415.95839 157.396175 
L 419.618366 156.368528 
L 423.278343 155.336571 
L 426.938319 154.137111 
L 430.598295 152.916032 
L 430.598295 69.054545 
L 430.598295 69.054545 
L 426.938319 71.255702 
L 423.278343 73.561 
L 419.618366 75.866674 
L 415.95839 78.172348 
L 412.298414 80.478022 
L 408.638437 82.783695 
L 404.978461 85.089369 
L 401.318484 87.395043 
L 397.658508 89.700717 
L 393.998532 92.006391 
L 390.338555 94.312065 
L 386.678579 96.617873 
L 383.018602 98.933265 
L 379.358626 101.229087 
L 375.69865 103.53476 
L 372.038673 105.840434 
L 368.378697 108.049546 
L 364.71872 110.218409 
L 361.058744 112.351365 
L 357.398768 114.456442 
L 353.738791 116.573928 
L 350.078815 118.695062 
L 346.418839 120.836442 
L 342.758862 123.025019 
L 339.098886 125.205786 
L 335.438909 127.224466 
L 331.778933 129.291155 
L 328.118957 131.469789 
L 324.45898 133.691948 
L 320.799004 135.814982 
L 317.139027 138.158639 
L 313.479051 140.218646 
L 309.819075 142.200402 
L 306.159098 144.41156 
L 302.499122 146.423173 
L 298.839146 148.815314 
L 295.179169 151.055481 
L 291.519193 153.120727 
L 287.859216 155.220779 
L 284.19924 157.200945 
L 280.539264 159.154867 
L 276.879287 161.161276 
L 273.219311 163.18082 
L 269.559334 165.321782 
L 265.899358 167.561262 
L 262.239382 169.828369 
L 258.579405 172.027578 
L 254.919429 174.001217 
L 251.259452 176.023444 
L 247.599476 177.788908 
L 243.9395 179.818284 
L 240.279523 181.944644 
L 236.619547 183.895378 
L 232.959571 185.958112 
L 229.299594 187.742303 
L 225.639618 189.389268 
L 221.979641 191.045184 
L 218.319665 192.71125 
L 214.659689 194.507459 
L 210.999712 196.043178 
L 207.339736 197.707986 
L 203.679759 199.326581 
L 200.019783 201.017762 
L 196.359807 202.713838 
L 192.69983 204.145648 
L 189.039854 205.831488 
L 185.379878 207.246261 
L 181.719901 208.831071 
L 178.059925 210.240423 
L 174.399948 211.47792 
L 170.739972 212.745462 
L 167.079996 214.010109 
L 163.420019 215.310644 
L 159.760043 216.56685 
L 156.100066 217.839259 
L 152.44009 219.110047 
L 148.780114 220.286173 
L 145.120137 221.487577 
L 141.460161 222.53178 
L 137.800184 223.581429 
L 134.140208 224.662646 
L 130.480232 225.82873 
L 126.820255 226.971147 
L 123.160279 227.9732 
L 119.500303 228.986914 
L 115.840326 230.155211 
L 112.18035 231.326003 
L 108.520373 232.280833 
L 104.860397 233.412405 
L 101.200421 234.481873 
L 97.540444 235.487601 
L 93.880468 236.580797 
L 90.220491 237.544678 
L 86.560515 238.617807 
L 82.900539 239.811443 
L 79.240562 240.973543 
L 75.580586 242.073524 
L 71.92061 243.173506 
L 68.260633 244.298025 
z
" clip-path="url(#p317c9e3e0f)" style="fill: #ffa500; fill-opacity: 0.15"/>
   </g>
   <g id="matplotlib.axis_1">
    <g id="xtick_1">
     <g id="line2d_1">
      <defs>
       <path id="m148b3592f6" d="M 0 0 
L 0 3.5 
" style="stroke: #000000; stroke-width: 0.8"/>
      </defs>
      <g>
       <use xlink:href="#m148b3592f6" x="85.169724" y="309.6" style="stroke: #000000; stroke-width: 0.8"/>
      </g>
     </g>
     <g id="text_1">
      <!-- 0.02 -->
      <g transform="translate(74.036912 324.198437) scale(0.1 -0.1)">
       <defs>
        <path id="DejaVuSans-30" d="M 2034 4250 
Q 1547 4250 1301 3770 
Q 1056 3291 1056 2328 
Q 1056 1369 1301 889 
Q 1547 409 2034 409 
Q 2525 409 2770 889 
Q 3016 1369 3016 2328 
Q 3016 3291 2770 3770 
Q 2525 4250 2034 4250 
z
M 2034 4750 
Q 2819 4750 3233 4129 
Q 3647 3509 3647 2328 
Q 3647 1150 3233 529 
Q 2819 -91 2034 -91 
Q 1250 -91 836 529 
Q 422 1150 422 2328 
Q 422 3509 836 4129 
Q 1250 4750 2034 4750 
z
" transform="scale(0.015625)"/>
        <path id="DejaVuSans-2e" d="M 684 794 
L 1344 794 
L 1344 0 
L 684 0 
L 684 794 
z
" transform="scale(0.015625)"/>
        <path id="DejaVuSans-32" d="M 1228 531 
L 3431 531 
L 3431 0 
L 469 0 
L 469 531 
Q 828 903 1448 1529 
Q 2069 2156 2228 2338 
Q 2531 2678 2651 2914 
Q 2772 3150 2772 3378 
Q 2772 3750 2511 3984 
Q 2250 4219 1831 4219 
Q 1534 4219 1204 4116 
Q 875 4013 500 3803 
L 500 4441 
Q 881 4594 1212 4672 
Q 1544 4750 1819 4750 
Q 2544 4750 2975 4387 
Q 3406 4025 3406 3419 
Q 3406 3131 3298 2873 
Q 3191 2616 2906 2266 
Q 2828 2175 2409 1742 
Q 1991 1309 1228 531 
z
" transform="scale(0.015625)"/>
       </defs>
       <use xlink:href="#DejaVuSans-30"/>
       <use xlink:href="#DejaVuSans-2e" x="63.623047"/>
       <use xlink:href="#DejaVuSans-30" x="95.410156"/>
       <use xlink:href="#DejaVuSans-32" x="159.033203"/>
      </g>
     </g>
    </g>
    <g id="xtick_2">
     <g id="line2d_2">
      <g>
       <use xlink:href="#m148b3592f6" x="162.468425" y="309.6" style="stroke: #000000; stroke-width: 0.8"/>
      </g>
     </g>
     <g id="text_2">
      <!-- 0.04 -->
      <g transform="translate(151.335613 324.198437) scale(0.1 -0.1)">
       <defs>
        <path id="DejaVuSans-34" d="M 2419 4116 
L 825 1625 
L 2419 1625 
L 2419 4116 
z
M 2253 4666 
L 3047 4666 
L 3047 1625 
L 3713 1625 
L 3713 1100 
L 3047 1100 
L 3047 0 
L 2419 0 
L 2419 1100 
L 313 1100 
L 313 1709 
L 2253 4666 
z
" transform="scale(0.015625)"/>
       </defs>
       <use xlink:href="#DejaVuSans-30"/>
       <use xlink:href="#DejaVuSans-2e" x="63.623047"/>
       <use xlink:href="#DejaVuSans-30" x="95.410156"/>
       <use xlink:href="#DejaVuSans-34" x="159.033203"/>
      </g>
     </g>
    </g>
    <g id="xtick_3">
     <g id="line2d_3">
      <g>
       <use xlink:href="#m148b3592f6" x="239.767127" y="309.6" style="stroke: #000000; stroke-width: 0.8"/>
      </g>
     </g>
     <g id="text_3">
      <!-- 0.06 -->
      <g transform="translate(228.634314 324.198437) scale(0.1 -0.1)">
       <defs>
        <path id="DejaVuSans-36" d="M 2113 2584 
Q 1688 2584 1439 2293 
Q 1191 2003 1191 1497 
Q 1191 994 1439 701 
Q 1688 409 2113 409 
Q 2538 409 2786 701 
Q 3034 994 3034 1497 
Q 3034 2003 2786 2293 
Q 2538 2584 2113 2584 
z
M 3366 4563 
L 3366 3988 
Q 3128 4100 2886 4159 
Q 2644 4219 2406 4219 
Q 1781 4219 1451 3797 
Q 1122 3375 1075 2522 
Q 1259 2794 1537 2939 
Q 1816 3084 2150 3084 
Q 2853 3084 3261 2657 
Q 3669 2231 3669 1497 
Q 3669 778 3244 343 
Q 2819 -91 2113 -91 
Q 1303 -91 875 529 
Q 447 1150 447 2328 
Q 447 3434 972 4092 
Q 1497 4750 2381 4750 
Q 2619 4750 2861 4703 
Q 3103 4656 3366 4563 
z
" transform="scale(0.015625)"/>
       </defs>
       <use xlink:href="#DejaVuSans-30"/>
       <use xlink:href="#DejaVuSans-2e" x="63.623047"/>
       <use xlink:href="#DejaVuSans-30" x="95.410156"/>
       <use xlink:href="#DejaVuSans-36" x="159.033203"/>
      </g>
     </g>
    </g>
    <g id="xtick_4">
     <g id="line2d_4">
      <g>
       <use xlink:href="#m148b3592f6" x="317.065828" y="309.6" style="stroke: #000000; stroke-width: 0.8"/>
      </g>
     </g>
     <g id="text_4">
      <!-- 0.08 -->
      <g transform="translate(305.933015 324.198437) scale(0.1 -0.1)">
       <defs>
        <path id="DejaVuSans-38" d="M 2034 2216 
Q 1584 2216 1326 1975 
Q 1069 1734 1069 1313 
Q 1069 891 1326 650 
Q 1584 409 2034 409 
Q 2484 409 2743 651 
Q 3003 894 3003 1313 
Q 3003 1734 2745 1975 
Q 2488 2216 2034 2216 
z
M 1403 2484 
Q 997 2584 770 2862 
Q 544 3141 544 3541 
Q 544 4100 942 4425 
Q 1341 4750 2034 4750 
Q 2731 4750 3128 4425 
Q 3525 4100 3525 3541 
Q 3525 3141 3298 2862 
Q 3072 2584 2669 2484 
Q 3125 2378 3379 2068 
Q 3634 1759 3634 1313 
Q 3634 634 3220 271 
Q 2806 -91 2034 -91 
Q 1263 -91 848 271 
Q 434 634 434 1313 
Q 434 1759 690 2068 
Q 947 2378 1403 2484 
z
M 1172 3481 
Q 1172 3119 1398 2916 
Q 1625 2713 2034 2713 
Q 2441 2713 2670 2916 
Q 2900 3119 2900 3481 
Q 2900 3844 2670 4047 
Q 2441 4250 2034 4250 
Q 1625 4250 1398 4047 
Q 1172 3844 1172 3481 
z
" transform="scale(0.015625)"/>
       </defs>
       <use xlink:href="#DejaVuSans-30"/>
       <use xlink:href="#DejaVuSans-2e" x="63.623047"/>
       <use xlink:href="#DejaVuSans-30" x="95.410156"/>
       <use xlink:href="#DejaVuSans-38" x="159.033203"/>
      </g>
     </g>
    </g>
    <g id="xtick_5">
     <g id="line2d_5">
      <g>
       <use xlink:href="#m148b3592f6" x="394.364529" y="309.6" style="stroke: #000000; stroke-width: 0.8"/>
      </g>
     </g>
     <g id="text_5">
      <!-- 0.10 -->
      <g transform="translate(383.231717 324.198437) scale(0.1 -0.1)">
       <defs>
        <path id="DejaVuSans-31" d="M 794 531 
L 1825 531 
L 1825 4091 
L 703 3866 
L 703 4441 
L 1819 4666 
L 2450 4666 
L 2450 531 
L 3481 531 
L 3481 0 
L 794 0 
L 794 531 
z
" transform="scale(0.015625)"/>
       </defs>
       <use xlink:href="#DejaVuSans-30"/>
       <use xlink:href="#DejaVuSans-2e" x="63.623047"/>
       <use xlink:href="#DejaVuSans-31" x="95.410156"/>
       <use xlink:href="#DejaVuSans-30" x="159.033203"/>
      </g>
     </g>
    </g>
    <g id="text_6">
     <!-- Codon -->
     <g transform="translate(233.476339 337.876562) scale(0.1 -0.1)">
      <defs>
       <path id="DejaVuSans-43" d="M 4122 4306 
L 4122 3641 
Q 3803 3938 3442 4084 
Q 3081 4231 2675 4231 
Q 1875 4231 1450 3742 
Q 1025 3253 1025 2328 
Q 1025 1406 1450 917 
Q 1875 428 2675 428 
Q 3081 428 3442 575 
Q 3803 722 4122 1019 
L 4122 359 
Q 3791 134 3420 21 
Q 3050 -91 2638 -91 
Q 1578 -91 968 557 
Q 359 1206 359 2328 
Q 359 3453 968 4101 
Q 1578 4750 2638 4750 
Q 3056 4750 3426 4639 
Q 3797 4528 4122 4306 
z
" transform="scale(0.015625)"/>
       <path id="DejaVuSans-6f" d="M 1959 3097 
Q 1497 3097 1228 2736 
Q 959 2375 959 1747 
Q 959 1119 1226 758 
Q 1494 397 1959 397 
Q 2419 397 2687 759 
Q 2956 1122 2956 1747 
Q 2956 2369 2687 2733 
Q 2419 3097 1959 3097 
z
M 1959 3584 
Q 2709 3584 3137 3096 
Q 3566 2609 3566 1747 
Q 3566 888 3137 398 
Q 2709 -91 1959 -91 
Q 1206 -91 779 398 
Q 353 888 353 1747 
Q 353 2609 779 3096 
Q 1206 3584 1959 3584 
z
" transform="scale(0.015625)"/>
       <path id="DejaVuSans-64" d="M 2906 2969 
L 2906 4863 
L 3481 4863 
L 3481 0 
L 2906 0 
L 2906 525 
Q 2725 213 2448 61 
Q 2172 -91 1784 -91 
Q 1150 -91 751 415 
Q 353 922 353 1747 
Q 353 2572 751 3078 
Q 1150 3584 1784 3584 
Q 2172 3584 2448 3432 
Q 2725 3281 2906 2969 
z
M 947 1747 
Q 947 1113 1208 752 
Q 1469 391 1925 391 
Q 2381 391 2643 752 
Q 2906 1113 2906 1747 
Q 2906 2381 2643 2742 
Q 2381 3103 1925 3103 
Q 1469 3103 1208 2742 
Q 947 2381 947 1747 
z
" transform="scale(0.015625)"/>
       <path id="DejaVuSans-6e" d="M 3513 2113 
L 3513 0 
L 2938 0 
L 2938 2094 
Q 2938 2591 2744 2837 
Q 2550 3084 2163 3084 
Q 1697 3084 1428 2787 
Q 1159 2491 1159 1978 
L 1159 0 
L 581 0 
L 581 3500 
L 1159 3500 
L 1159 2956 
Q 1366 3272 1645 3428 
Q 1925 3584 2291 3584 
Q 2894 3584 3203 3211 
Q 3513 2838 3513 2113 
z
" transform="scale(0.015625)"/>
      </defs>
      <use xlink:href="#DejaVuSans-43"/>
      <use xlink:href="#DejaVuSans-6f" x="69.824219"/>
      <use xlink:href="#DejaVuSans-64" x="131.005859"/>
      <use xlink:href="#DejaVuSans-6f" x="194.482422"/>
      <use xlink:href="#DejaVuSans-6e" x="255.664062"/>
     </g>
    </g>
   </g>
   <g id="matplotlib.axis_2">
    <g id="ytick_1">
     <g id="line2d_6">
      <defs>
       <path id="mcd6b3c479c" d="M 0 0 
L -3.5 0 
" style="stroke: #000000; stroke-width: 0.8"/>
      </defs>
      <g>
       <use xlink:href="#mcd6b3c479c" x="50.14375" y="280.225009" style="stroke: #000000; stroke-width: 0.8"/>
      </g>
     </g>
     <g id="text_7">
      <!-- 0.02 -->
      <g transform="translate(20.878125 284.024228) scale(0.1 -0.1)">
       <use xlink:href="#DejaVuSans-30"/>
       <use xlink:href="#DejaVuSans-2e" x="63.623047"/>
       <use xlink:href="#DejaVuSans-30" x="95.410156"/>
       <use xlink:href="#DejaVuSans-32" x="159.033203"/>
      </g>
     </g>
    </g>
    <g id="ytick_2">
     <g id="line2d_7">
      <g>
       <use xlink:href="#mcd6b3c479c" x="50.14375" y="234.886267" style="stroke: #000000; stroke-width: 0.8"/>
      </g>
     </g>
     <g id="text_8">
      <!-- 0.04 -->
      <g transform="translate(20.878125 238.685486) scale(0.1 -0.1)">
       <use xlink:href="#DejaVuSans-30"/>
       <use xlink:href="#DejaVuSans-2e" x="63.623047"/>
       <use xlink:href="#DejaVuSans-30" x="95.410156"/>
       <use xlink:href="#DejaVuSans-34" x="159.033203"/>
      </g>
     </g>
    </g>
    <g id="ytick_3">
     <g id="line2d_8">
      <g>
       <use xlink:href="#mcd6b3c479c" x="50.14375" y="189.547526" style="stroke: #000000; stroke-width: 0.8"/>
      </g>
     </g>
     <g id="text_9">
      <!-- 0.06 -->
      <g transform="translate(20.878125 193.346745) scale(0.1 -0.1)">
       <use xlink:href="#DejaVuSans-30"/>
       <use xlink:href="#DejaVuSans-2e" x="63.623047"/>
       <use xlink:href="#DejaVuSans-30" x="95.410156"/>
       <use xlink:href="#DejaVuSans-36" x="159.033203"/>
      </g>
     </g>
    </g>
    <g id="ytick_4">
     <g id="line2d_9">
      <g>
       <use xlink:href="#mcd6b3c479c" x="50.14375" y="144.208784" style="stroke: #000000; stroke-width: 0.8"/>
      </g>
     </g>
     <g id="text_10">
      <!-- 0.08 -->
      <g transform="translate(20.878125 148.008003) scale(0.1 -0.1)">
       <use xlink:href="#DejaVuSans-30"/>
       <use xlink:href="#DejaVuSans-2e" x="63.623047"/>
       <use xlink:href="#DejaVuSans-30" x="95.410156"/>
       <use xlink:href="#DejaVuSans-38" x="159.033203"/>
      </g>
     </g>
    </g>
    <g id="ytick_5">
     <g id="line2d_10">
      <g>
       <use xlink:href="#mcd6b3c479c" x="50.14375" y="98.870043" style="stroke: #000000; stroke-width: 0.8"/>
      </g>
     </g>
     <g id="text_11">
      <!-- 0.10 -->
      <g transform="translate(20.878125 102.669261) scale(0.1 -0.1)">
       <use xlink:href="#DejaVuSans-30"/>
       <use xlink:href="#DejaVuSans-2e" x="63.623047"/>
       <use xlink:href="#DejaVuSans-31" x="95.410156"/>
       <use xlink:href="#DejaVuSans-30" x="159.033203"/>
      </g>
     </g>
    </g>
    <g id="text_12">
     <!-- Amino acid frequency -->
     <g transform="translate(14.798438 238.139062) rotate(-90) scale(0.1 -0.1)">
      <defs>
       <path id="DejaVuSans-41" d="M 2188 4044 
L 1331 1722 
L 3047 1722 
L 2188 4044 
z
M 1831 4666 
L 2547 4666 
L 4325 0 
L 3669 0 
L 3244 1197 
L 1141 1197 
L 716 0 
L 50 0 
L 1831 4666 
z
" transform="scale(0.015625)"/>
       <path id="DejaVuSans-6d" d="M 3328 2828 
Q 3544 3216 3844 3400 
Q 4144 3584 4550 3584 
Q 5097 3584 5394 3201 
Q 5691 2819 5691 2113 
L 5691 0 
L 5113 0 
L 5113 2094 
Q 5113 2597 4934 2840 
Q 4756 3084 4391 3084 
Q 3944 3084 3684 2787 
Q 3425 2491 3425 1978 
L 3425 0 
L 2847 0 
L 2847 2094 
Q 2847 2600 2669 2842 
Q 2491 3084 2119 3084 
Q 1678 3084 1418 2786 
Q 1159 2488 1159 1978 
L 1159 0 
L 581 0 
L 581 3500 
L 1159 3500 
L 1159 2956 
Q 1356 3278 1631 3431 
Q 1906 3584 2284 3584 
Q 2666 3584 2933 3390 
Q 3200 3197 3328 2828 
z
" transform="scale(0.015625)"/>
       <path id="DejaVuSans-69" d="M 603 3500 
L 1178 3500 
L 1178 0 
L 603 0 
L 603 3500 
z
M 603 4863 
L 1178 4863 
L 1178 4134 
L 603 4134 
L 603 4863 
z
" transform="scale(0.015625)"/>
       <path id="DejaVuSans-20" transform="scale(0.015625)"/>
       <path id="DejaVuSans-61" d="M 2194 1759 
Q 1497 1759 1228 1600 
Q 959 1441 959 1056 
Q 959 750 1161 570 
Q 1363 391 1709 391 
Q 2188 391 2477 730 
Q 2766 1069 2766 1631 
L 2766 1759 
L 2194 1759 
z
M 3341 1997 
L 3341 0 
L 2766 0 
L 2766 531 
Q 2569 213 2275 61 
Q 1981 -91 1556 -91 
Q 1019 -91 701 211 
Q 384 513 384 1019 
Q 384 1609 779 1909 
Q 1175 2209 1959 2209 
L 2766 2209 
L 2766 2266 
Q 2766 2663 2505 2880 
Q 2244 3097 1772 3097 
Q 1472 3097 1187 3025 
Q 903 2953 641 2809 
L 641 3341 
Q 956 3463 1253 3523 
Q 1550 3584 1831 3584 
Q 2591 3584 2966 3190 
Q 3341 2797 3341 1997 
z
" transform="scale(0.015625)"/>
       <path id="DejaVuSans-63" d="M 3122 3366 
L 3122 2828 
Q 2878 2963 2633 3030 
Q 2388 3097 2138 3097 
Q 1578 3097 1268 2742 
Q 959 2388 959 1747 
Q 959 1106 1268 751 
Q 1578 397 2138 397 
Q 2388 397 2633 464 
Q 2878 531 3122 666 
L 3122 134 
Q 2881 22 2623 -34 
Q 2366 -91 2075 -91 
Q 1284 -91 818 406 
Q 353 903 353 1747 
Q 353 2603 823 3093 
Q 1294 3584 2113 3584 
Q 2378 3584 2631 3529 
Q 2884 3475 3122 3366 
z
" transform="scale(0.015625)"/>
       <path id="DejaVuSans-66" d="M 2375 4863 
L 2375 4384 
L 1825 4384 
Q 1516 4384 1395 4259 
Q 1275 4134 1275 3809 
L 1275 3500 
L 2222 3500 
L 2222 3053 
L 1275 3053 
L 1275 0 
L 697 0 
L 697 3053 
L 147 3053 
L 147 3500 
L 697 3500 
L 697 3744 
Q 697 4328 969 4595 
Q 1241 4863 1831 4863 
L 2375 4863 
z
" transform="scale(0.015625)"/>
       <path id="DejaVuSans-72" d="M 2631 2963 
Q 2534 3019 2420 3045 
Q 2306 3072 2169 3072 
Q 1681 3072 1420 2755 
Q 1159 2438 1159 1844 
L 1159 0 
L 581 0 
L 581 3500 
L 1159 3500 
L 1159 2956 
Q 1341 3275 1631 3429 
Q 1922 3584 2338 3584 
Q 2397 3584 2469 3576 
Q 2541 3569 2628 3553 
L 2631 2963 
z
" transform="scale(0.015625)"/>
       <path id="DejaVuSans-65" d="M 3597 1894 
L 3597 1613 
L 953 1613 
Q 991 1019 1311 708 
Q 1631 397 2203 397 
Q 2534 397 2845 478 
Q 3156 559 3463 722 
L 3463 178 
Q 3153 47 2828 -22 
Q 2503 -91 2169 -91 
Q 1331 -91 842 396 
Q 353 884 353 1716 
Q 353 2575 817 3079 
Q 1281 3584 2069 3584 
Q 2775 3584 3186 3129 
Q 3597 2675 3597 1894 
z
M 3022 2063 
Q 3016 2534 2758 2815 
Q 2500 3097 2075 3097 
Q 1594 3097 1305 2825 
Q 1016 2553 972 2059 
L 3022 2063 
z
" transform="scale(0.015625)"/>
       <path id="DejaVuSans-71" d="M 947 1747 
Q 947 1113 1208 752 
Q 1469 391 1925 391 
Q 2381 391 2643 752 
Q 2906 1113 2906 1747 
Q 2906 2381 2643 2742 
Q 2381 3103 1925 3103 
Q 1469 3103 1208 2742 
Q 947 2381 947 1747 
z
M 2906 525 
Q 2725 213 2448 61 
Q 2172 -91 1784 -91 
Q 1150 -91 751 415 
Q 353 922 353 1747 
Q 353 2572 751 3078 
Q 1150 3584 1784 3584 
Q 2172 3584 2448 3432 
Q 2725 3281 2906 2969 
L 2906 3500 
L 3481 3500 
L 3481 -1331 
L 2906 -1331 
L 2906 525 
z
" transform="scale(0.015625)"/>
       <path id="DejaVuSans-75" d="M 544 1381 
L 544 3500 
L 1119 3500 
L 1119 1403 
Q 1119 906 1312 657 
Q 1506 409 1894 409 
Q 2359 409 2629 706 
Q 2900 1003 2900 1516 
L 2900 3500 
L 3475 3500 
L 3475 0 
L 2900 0 
L 2900 538 
Q 2691 219 2414 64 
Q 2138 -91 1772 -91 
Q 1169 -91 856 284 
Q 544 659 544 1381 
z
M 1991 3584 
L 1991 3584 
z
" transform="scale(0.015625)"/>
       <path id="DejaVuSans-79" d="M 2059 -325 
Q 1816 -950 1584 -1140 
Q 1353 -1331 966 -1331 
L 506 -1331 
L 506 -850 
L 844 -850 
Q 1081 -850 1212 -737 
Q 1344 -625 1503 -206 
L 1606 56 
L 191 3500 
L 800 3500 
L 1894 763 
L 2988 3500 
L 3597 3500 
L 2059 -325 
z
" transform="scale(0.015625)"/>
      </defs>
      <use xlink:href="#DejaVuSans-41"/>
      <use xlink:href="#DejaVuSans-6d" x="68.408203"/>
      <use xlink:href="#DejaVuSans-69" x="165.820312"/>
      <use xlink:href="#DejaVuSans-6e" x="193.603516"/>
      <use xlink:href="#DejaVuSans-6f" x="256.982422"/>
      <use xlink:href="#DejaVuSans-20" x="318.164062"/>
      <use xlink:href="#DejaVuSans-61" x="349.951172"/>
      <use xlink:href="#DejaVuSans-63" x="411.230469"/>
      <use xlink:href="#DejaVuSans-69" x="466.210938"/>
      <use xlink:href="#DejaVuSans-64" x="493.994141"/>
      <use xlink:href="#DejaVuSans-20" x="557.470703"/>
      <use xlink:href="#DejaVuSans-66" x="589.257812"/>
      <use xlink:href="#DejaVuSans-72" x="624.462891"/>
      <use xlink:href="#DejaVuSans-65" x="663.326172"/>
      <use xlink:href="#DejaVuSans-71" x="724.849609"/>
      <use xlink:href="#DejaVuSans-75" x="788.326172"/>
      <use xlink:href="#DejaVuSans-65" x="851.705078"/>
      <use xlink:href="#DejaVuSans-6e" x="913.228516"/>
      <use xlink:href="#DejaVuSans-63" x="976.607422"/>
      <use xlink:href="#DejaVuSans-79" x="1031.587891"/>
     </g>
    </g>
   </g>
   <g id="line2d_11">
    <path d="M 68.260633 267.442841 
L 71.92061 265.955183 
L 75.580586 264.467524 
L 79.240562 262.979865 
L 82.900539 261.492206 
L 86.560515 260.004547 
L 90.220491 258.516888 
L 93.880468 257.029229 
L 97.540444 255.54157 
L 101.200421 254.053911 
L 104.860397 252.566252 
L 108.520373 251.078593 
L 112.18035 249.590934 
L 115.840326 248.103275 
L 119.500303 246.615616 
L 123.160279 245.127957 
L 126.820255 243.640299 
L 130.480232 242.15264 
L 134.140208 240.664981 
L 137.800184 239.177322 
L 141.460161 237.689663 
L 145.120137 236.202004 
L 148.780114 234.714345 
L 152.44009 233.226686 
L 156.100066 231.739027 
L 159.760043 230.251368 
L 163.420019 228.763709 
L 167.079996 227.27605 
L 170.739972 225.788391 
L 174.399948 224.300732 
L 178.059925 222.813073 
L 181.719901 221.325414 
L 185.379878 219.837756 
L 189.039854 218.350097 
L 192.69983 216.862438 
L 196.359807 215.374779 
L 200.019783 213.88712 
L 203.679759 212.399461 
L 207.339736 210.911802 
L 210.999712 209.424143 
L 214.659689 207.936484 
L 218.319665 206.448825 
L 221.979641 204.961166 
L 225.639618 203.473507 
L 229.299594 201.985848 
L 232.959571 200.498189 
L 236.619547 199.01053 
L 240.279523 197.522872 
L 243.9395 196.035213 
L 247.599476 194.547554 
L 251.259452 193.059895 
L 254.919429 191.572236 
L 258.579405 190.084577 
L 262.239382 188.596918 
L 265.899358 187.109259 
L 269.559334 185.6216 
L 273.219311 184.133941 
L 276.879287 182.646282 
L 280.539264 181.158623 
L 284.19924 179.670964 
L 287.859216 178.183305 
L 291.519193 176.695646 
L 295.179169 175.207987 
L 298.839146 173.720329 
L 302.499122 172.23267 
L 306.159098 170.745011 
L 309.819075 169.257352 
L 313.479051 167.769693 
L 317.139027 166.282034 
L 320.799004 164.794375 
L 324.45898 163.306716 
L 328.118957 161.819057 
L 331.778933 160.331398 
L 335.438909 158.843739 
L 339.098886 157.35608 
L 342.758862 155.868421 
L 346.418839 154.380762 
L 350.078815 152.893103 
L 353.738791 151.405445 
L 357.398768 149.917786 
L 361.058744 148.430127 
L 364.71872 146.942468 
L 368.378697 145.454809 
L 372.038673 143.96715 
L 375.69865 142.479491 
L 379.358626 140.991832 
L 383.018602 139.504173 
L 386.678579 138.016514 
L 390.338555 136.528855 
L 393.998532 135.041196 
L 397.658508 133.553537 
L 401.318484 132.065878 
L 404.978461 130.578219 
L 408.638437 129.09056 
L 412.298414 127.602902 
L 415.95839 126.115243 
L 419.618366 124.627584 
L 423.278343 123.139925 
L 426.938319 121.652266 
L 430.598295 120.164607 
" clip-path="url(#p317c9e3e0f)" style="fill: none; stroke: #ffa500; stroke-width: 2.25; stroke-linecap: square"/>
   </g>
   <g id="patch_3">
    <path d="M 50.14375 309.6 
L 50.14375 57.6 
" style="fill: none; stroke: #000000; stroke-width: 0.8; stroke-linejoin: miter; stroke-linecap: square"/>
   </g>
   <g id="patch_4">
    <path d="M 448.715179 309.6 
L 448.715179 57.6 
" style="fill: none; stroke: #000000; stroke-width: 0.8; stroke-linejoin: miter; stroke-linecap: square"/>
   </g>
   <g id="patch_5">
    <path d="M 50.14375 309.6 
L 448.715179 309.6 
" style="fill: none; stroke: #000000; stroke-width: 0.8; stroke-linejoin: miter; stroke-linecap: square"/>
   </g>
   <g id="patch_6">
    <path d="M 50.14375 57.6 
L 448.715179 57.6 
" style="fill: none; stroke: #000000; stroke-width: 0.8; stroke-linejoin: miter; stroke-linecap: square"/>
   </g>
  </g>
  <g id="axes_2">
   <g id="patch_7">
    <path d="M 488.572321 309.6 
L 887.14375 309.6 
L 887.14375 57.6 
L 488.572321 57.6 
z
" style="fill: #ffffff"/>
   </g>
   <g id="PathCollection_2">
    <g clip-path="url(#p9104c98395)">
     <use xlink:href="#m6feff37729" x="506.689205" y="269.326462" style="fill: #1f77b4; fill-opacity: 0.8; stroke: #1f77b4; stroke-opacity: 0.8"/>
     <use xlink:href="#m6feff37729" x="567.078815" y="298.145455" style="fill: #1f77b4; fill-opacity: 0.8; stroke: #1f77b4; stroke-opacity: 0.8"/>
     <use xlink:href="#m6feff37729" x="567.078815" y="287.891109" style="fill: #1f77b4; fill-opacity: 0.8; stroke: #1f77b4; stroke-opacity: 0.8"/>
     <use xlink:href="#m6feff37729" x="567.078815" y="210.3701" style="fill: #1f77b4; fill-opacity: 0.8; stroke: #1f77b4; stroke-opacity: 0.8"/>
     <use xlink:href="#m6feff37729" x="567.078815" y="195.521149" style="fill: #1f77b4; fill-opacity: 0.8; stroke: #1f77b4; stroke-opacity: 0.8"/>
     <use xlink:href="#m6feff37729" x="567.078815" y="231.081016" style="fill: #1f77b4; fill-opacity: 0.8; stroke: #1f77b4; stroke-opacity: 0.8"/>
     <use xlink:href="#m6feff37729" x="567.078815" y="274.521472" style="fill: #1f77b4; fill-opacity: 0.8; stroke: #1f77b4; stroke-opacity: 0.8"/>
     <use xlink:href="#m6feff37729" x="627.468425" y="198.433335" style="fill: #1f77b4; fill-opacity: 0.8; stroke: #1f77b4; stroke-opacity: 0.8"/>
     <use xlink:href="#m6feff37729" x="567.078815" y="230.941895" style="fill: #1f77b4; fill-opacity: 0.8; stroke: #1f77b4; stroke-opacity: 0.8"/>
     <use xlink:href="#m6feff37729" x="567.078815" y="241.929128" style="fill: #1f77b4; fill-opacity: 0.8; stroke: #1f77b4; stroke-opacity: 0.8"/>
     <use xlink:href="#m6feff37729" x="627.468425" y="255.146327" style="fill: #1f77b4; fill-opacity: 0.8; stroke: #1f77b4; stroke-opacity: 0.8"/>
     <use xlink:href="#m6feff37729" x="627.468425" y="204.420202" style="fill: #1f77b4; fill-opacity: 0.8; stroke: #1f77b4; stroke-opacity: 0.8"/>
     <use xlink:href="#m6feff37729" x="687.858036" y="152.202779" style="fill: #1f77b4; fill-opacity: 0.8; stroke: #1f77b4; stroke-opacity: 0.8"/>
     <use xlink:href="#m6feff37729" x="687.858036" y="174.964589" style="fill: #1f77b4; fill-opacity: 0.8; stroke: #1f77b4; stroke-opacity: 0.8"/>
     <use xlink:href="#m6feff37729" x="687.858036" y="215.368346" style="fill: #1f77b4; fill-opacity: 0.8; stroke: #1f77b4; stroke-opacity: 0.8"/>
     <use xlink:href="#m6feff37729" x="687.858036" y="199.062764" style="fill: #1f77b4; fill-opacity: 0.8; stroke: #1f77b4; stroke-opacity: 0.8"/>
     <use xlink:href="#m6feff37729" x="687.858036" y="178.012818" style="fill: #1f77b4; fill-opacity: 0.8; stroke: #1f77b4; stroke-opacity: 0.8"/>
     <use xlink:href="#m6feff37729" x="808.637256" y="108.422273" style="fill: #1f77b4; fill-opacity: 0.8; stroke: #1f77b4; stroke-opacity: 0.8"/>
     <use xlink:href="#m6feff37729" x="687.858036" y="216.041728" style="fill: #1f77b4; fill-opacity: 0.8; stroke: #1f77b4; stroke-opacity: 0.8"/>
     <use xlink:href="#m6feff37729" x="869.026867" y="159.405649" style="fill: #1f77b4; fill-opacity: 0.8; stroke: #1f77b4; stroke-opacity: 0.8"/>
    </g>
   </g>
   <g id="PolyCollection_2">
    <path d="M 506.689205 242.957254 
L 506.689205 297.93748 
L 510.349181 295.725301 
L 514.009157 293.560881 
L 517.669134 291.370635 
L 521.32911 289.030001 
L 524.989086 286.688271 
L 528.649063 284.346541 
L 532.309039 282.004812 
L 535.969016 279.663082 
L 539.628992 277.363233 
L 543.288968 275.103246 
L 546.948945 272.789444 
L 550.608921 270.49886 
L 554.268898 268.340219 
L 557.928874 266.08471 
L 561.58885 263.908923 
L 565.248827 261.790617 
L 568.908803 259.905983 
L 572.56878 257.728762 
L 576.228756 256.010971 
L 579.888732 254.170571 
L 583.548709 252.116463 
L 587.208685 250.323965 
L 590.868661 248.271828 
L 594.528638 246.203127 
L 598.188614 244.433521 
L 601.848591 242.801718 
L 605.508567 240.923263 
L 609.168543 239.301861 
L 612.82852 237.664268 
L 616.488496 235.717071 
L 620.148473 234.264199 
L 623.808449 232.84283 
L 627.468425 231.467725 
L 631.128402 229.907372 
L 634.788378 228.249992 
L 638.448354 226.708057 
L 642.108331 225.227998 
L 645.768307 223.864312 
L 649.428284 222.418462 
L 653.08826 221.135522 
L 656.748236 219.712682 
L 660.408213 218.273764 
L 664.068189 216.897443 
L 667.728166 215.514838 
L 671.388142 214.29527 
L 675.048118 213.032477 
L 678.708095 211.874704 
L 682.368071 210.664839 
L 686.028048 209.452062 
L 689.688024 207.975487 
L 693.348 206.689199 
L 697.007977 205.578039 
L 700.667953 204.370323 
L 704.327929 203.01186 
L 707.987906 201.768938 
L 711.647882 200.510296 
L 715.307859 199.464932 
L 718.967835 198.351285 
L 722.627811 197.026101 
L 726.287788 195.894119 
L 729.947764 194.795052 
L 733.607741 193.598021 
L 737.267717 192.399898 
L 740.927693 191.201884 
L 744.58767 190.079563 
L 748.247646 188.871165 
L 751.907622 187.686836 
L 755.567599 186.45266 
L 759.227575 185.277723 
L 762.887552 184.249193 
L 766.547528 183.219967 
L 770.207504 182.277439 
L 773.867481 181.161282 
L 777.527457 179.993757 
L 781.187434 178.896525 
L 784.84741 177.935388 
L 788.507386 176.968852 
L 792.167363 175.923433 
L 795.827339 174.845041 
L 799.487316 173.658092 
L 803.147292 172.684018 
L 806.807268 171.623872 
L 810.467245 170.549125 
L 814.127221 169.471495 
L 817.787197 168.400683 
L 821.447174 167.32495 
L 825.10715 166.335542 
L 828.767127 165.228673 
L 832.427103 164.09775 
L 836.087079 162.976515 
L 839.747056 161.906922 
L 843.407032 160.80051 
L 847.067009 159.706921 
L 850.726985 158.751112 
L 854.386961 157.823213 
L 858.046938 156.789718 
L 861.706914 155.778069 
L 865.36689 154.845084 
L 869.026867 153.834595 
L 869.026867 69.054545 
L 869.026867 69.054545 
L 865.36689 71.201326 
L 861.706914 73.348107 
L 858.046938 75.497667 
L 854.386961 77.648256 
L 850.726985 79.88097 
L 847.067009 82.271554 
L 843.407032 84.665134 
L 839.747056 87.023639 
L 836.087079 89.156961 
L 832.427103 91.27597 
L 828.767127 93.385028 
L 825.10715 95.502275 
L 821.447174 97.619521 
L 817.787197 99.736767 
L 814.127221 101.911673 
L 810.467245 104.153077 
L 806.807268 106.397993 
L 803.147292 108.696247 
L 799.487316 111.027479 
L 795.827339 113.259002 
L 792.167363 115.483478 
L 788.507386 117.629675 
L 784.84741 119.800792 
L 781.187434 121.93143 
L 777.527457 124.21739 
L 773.867481 126.599284 
L 770.207504 128.976253 
L 766.547528 131.106602 
L 762.887552 133.100913 
L 759.227575 135.127839 
L 755.567599 137.158764 
L 751.907622 139.473924 
L 748.247646 141.95348 
L 744.58767 144.033003 
L 740.927693 146.116913 
L 737.267717 148.202651 
L 733.607741 150.06034 
L 729.947764 152.214536 
L 726.287788 154.452556 
L 722.627811 156.536466 
L 718.967835 158.673557 
L 715.307859 161.182871 
L 711.647882 163.050712 
L 707.987906 164.874875 
L 704.327929 166.95602 
L 700.667953 169.076996 
L 697.007977 171.116838 
L 693.348 173.014482 
L 689.688024 175.140754 
L 686.028048 177.121818 
L 682.368071 179.043728 
L 678.708095 180.873803 
L 675.048118 182.874008 
L 671.388142 184.864285 
L 667.728166 186.819945 
L 664.068189 188.679266 
L 660.408213 190.544553 
L 656.748236 192.292341 
L 653.08826 193.941356 
L 649.428284 195.73247 
L 645.768307 197.483329 
L 642.108331 199.216189 
L 638.448354 200.935942 
L 634.788378 202.399367 
L 631.128402 203.849845 
L 627.468425 205.55567 
L 623.808449 206.845541 
L 620.148473 208.490529 
L 616.488496 210.156964 
L 612.82852 211.710235 
L 609.168543 213.026357 
L 605.508567 214.21127 
L 601.848591 215.738825 
L 598.188614 216.93057 
L 594.528638 218.010038 
L 590.868661 219.0354 
L 587.208685 220.066099 
L 583.548709 221.096236 
L 579.888732 222.102833 
L 576.228756 223.123883 
L 572.56878 224.36725 
L 568.908803 225.547773 
L 565.248827 226.341497 
L 561.58885 227.428261 
L 557.928874 228.547197 
L 554.268898 229.545196 
L 550.608921 230.498578 
L 546.948945 231.512576 
L 543.288968 232.448067 
L 539.628992 233.468589 
L 535.969016 234.716354 
L 532.309039 235.989666 
L 528.649063 236.896005 
L 524.989086 237.906077 
L 521.32911 239.184017 
L 517.669134 240.077678 
L 514.009157 240.868478 
L 510.349181 241.905888 
L 506.689205 242.957254 
z
" clip-path="url(#p9104c98395)" style="fill: #ffa500; fill-opacity: 0.15"/>
   </g>
   <g id="matplotlib.axis_3">
    <g id="xtick_6">
     <g id="line2d_12">
      <g>
       <use xlink:href="#m148b3592f6" x="522.390503" y="309.6" style="stroke: #000000; stroke-width: 0.8"/>
      </g>
     </g>
     <g id="text_13">
      <!-- 0.02 -->
      <g transform="translate(511.257691 324.198437) scale(0.1 -0.1)">
       <use xlink:href="#DejaVuSans-30"/>
       <use xlink:href="#DejaVuSans-2e" x="63.623047"/>
       <use xlink:href="#DejaVuSans-30" x="95.410156"/>
       <use xlink:href="#DejaVuSans-32" x="159.033203"/>
      </g>
     </g>
    </g>
    <g id="xtick_7">
     <g id="line2d_13">
      <g>
       <use xlink:href="#m148b3592f6" x="598.481412" y="309.6" style="stroke: #000000; stroke-width: 0.8"/>
      </g>
     </g>
     <g id="text_14">
      <!-- 0.04 -->
      <g transform="translate(587.3486 324.198437) scale(0.1 -0.1)">
       <use xlink:href="#DejaVuSans-30"/>
       <use xlink:href="#DejaVuSans-2e" x="63.623047"/>
       <use xlink:href="#DejaVuSans-30" x="95.410156"/>
       <use xlink:href="#DejaVuSans-34" x="159.033203"/>
      </g>
     </g>
    </g>
    <g id="xtick_8">
     <g id="line2d_14">
      <g>
       <use xlink:href="#m148b3592f6" x="674.572321" y="309.6" style="stroke: #000000; stroke-width: 0.8"/>
      </g>
     </g>
     <g id="text_15">
      <!-- 0.06 -->
      <g transform="translate(663.439509 324.198437) scale(0.1 -0.1)">
       <use xlink:href="#DejaVuSans-30"/>
       <use xlink:href="#DejaVuSans-2e" x="63.623047"/>
       <use xlink:href="#DejaVuSans-30" x="95.410156"/>
       <use xlink:href="#DejaVuSans-36" x="159.033203"/>
      </g>
     </g>
    </g>
    <g id="xtick_9">
     <g id="line2d_15">
      <g>
       <use xlink:href="#m148b3592f6" x="750.663231" y="309.6" style="stroke: #000000; stroke-width: 0.8"/>
      </g>
     </g>
     <g id="text_16">
      <!-- 0.08 -->
      <g transform="translate(739.530418 324.198437) scale(0.1 -0.1)">
       <use xlink:href="#DejaVuSans-30"/>
       <use xlink:href="#DejaVuSans-2e" x="63.623047"/>
       <use xlink:href="#DejaVuSans-30" x="95.410156"/>
       <use xlink:href="#DejaVuSans-38" x="159.033203"/>
      </g>
     </g>
    </g>
    <g id="xtick_10">
     <g id="line2d_16">
      <g>
       <use xlink:href="#m148b3592f6" x="826.75414" y="309.6" style="stroke: #000000; stroke-width: 0.8"/>
      </g>
     </g>
     <g id="text_17">
      <!-- 0.10 -->
      <g transform="translate(815.621327 324.198437) scale(0.1 -0.1)">
       <use xlink:href="#DejaVuSans-30"/>
       <use xlink:href="#DejaVuSans-2e" x="63.623047"/>
       <use xlink:href="#DejaVuSans-31" x="95.410156"/>
       <use xlink:href="#DejaVuSans-30" x="159.033203"/>
      </g>
     </g>
    </g>
    <g id="text_18">
     <!-- Codon+Cost -->
     <g transform="translate(656.599442 337.876562) scale(0.1 -0.1)">
      <defs>
       <path id="DejaVuSans-2b" d="M 2944 4013 
L 2944 2272 
L 4684 2272 
L 4684 1741 
L 2944 1741 
L 2944 0 
L 2419 0 
L 2419 1741 
L 678 1741 
L 678 2272 
L 2419 2272 
L 2419 4013 
L 2944 4013 
z
" transform="scale(0.015625)"/>
       <path id="DejaVuSans-73" d="M 2834 3397 
L 2834 2853 
Q 2591 2978 2328 3040 
Q 2066 3103 1784 3103 
Q 1356 3103 1142 2972 
Q 928 2841 928 2578 
Q 928 2378 1081 2264 
Q 1234 2150 1697 2047 
L 1894 2003 
Q 2506 1872 2764 1633 
Q 3022 1394 3022 966 
Q 3022 478 2636 193 
Q 2250 -91 1575 -91 
Q 1294 -91 989 -36 
Q 684 19 347 128 
L 347 722 
Q 666 556 975 473 
Q 1284 391 1588 391 
Q 1994 391 2212 530 
Q 2431 669 2431 922 
Q 2431 1156 2273 1281 
Q 2116 1406 1581 1522 
L 1381 1569 
Q 847 1681 609 1914 
Q 372 2147 372 2553 
Q 372 3047 722 3315 
Q 1072 3584 1716 3584 
Q 2034 3584 2315 3537 
Q 2597 3491 2834 3397 
z
" transform="scale(0.015625)"/>
       <path id="DejaVuSans-74" d="M 1172 4494 
L 1172 3500 
L 2356 3500 
L 2356 3053 
L 1172 3053 
L 1172 1153 
Q 1172 725 1289 603 
Q 1406 481 1766 481 
L 2356 481 
L 2356 0 
L 1766 0 
Q 1100 0 847 248 
Q 594 497 594 1153 
L 594 3053 
L 172 3053 
L 172 3500 
L 594 3500 
L 594 4494 
L 1172 4494 
z
" transform="scale(0.015625)"/>
      </defs>
      <use xlink:href="#DejaVuSans-43"/>
      <use xlink:href="#DejaVuSans-6f" x="69.824219"/>
      <use xlink:href="#DejaVuSans-64" x="131.005859"/>
      <use xlink:href="#DejaVuSans-6f" x="194.482422"/>
      <use xlink:href="#DejaVuSans-6e" x="255.664062"/>
      <use xlink:href="#DejaVuSans-2b" x="319.042969"/>
      <use xlink:href="#DejaVuSans-43" x="402.832031"/>
      <use xlink:href="#DejaVuSans-6f" x="472.65625"/>
      <use xlink:href="#DejaVuSans-73" x="533.837891"/>
      <use xlink:href="#DejaVuSans-74" x="585.9375"/>
     </g>
    </g>
   </g>
   <g id="matplotlib.axis_4">
    <g id="ytick_6">
     <g id="line2d_17">
      <g>
       <use xlink:href="#mcd6b3c479c" x="488.572321" y="281.32311" style="stroke: #000000; stroke-width: 0.8"/>
      </g>
     </g>
     <g id="text_19">
      <!-- 0.02 -->
      <g transform="translate(459.306696 285.122328) scale(0.1 -0.1)">
       <use xlink:href="#DejaVuSans-30"/>
       <use xlink:href="#DejaVuSans-2e" x="63.623047"/>
       <use xlink:href="#DejaVuSans-30" x="95.410156"/>
       <use xlink:href="#DejaVuSans-32" x="159.033203"/>
      </g>
     </g>
    </g>
    <g id="ytick_7">
     <g id="line2d_18">
      <g>
       <use xlink:href="#mcd6b3c479c" x="488.572321" y="235.496233" style="stroke: #000000; stroke-width: 0.8"/>
      </g>
     </g>
     <g id="text_20">
      <!-- 0.04 -->
      <g transform="translate(459.306696 239.295452) scale(0.1 -0.1)">
       <use xlink:href="#DejaVuSans-30"/>
       <use xlink:href="#DejaVuSans-2e" x="63.623047"/>
       <use xlink:href="#DejaVuSans-30" x="95.410156"/>
       <use xlink:href="#DejaVuSans-34" x="159.033203"/>
      </g>
     </g>
    </g>
    <g id="ytick_8">
     <g id="line2d_19">
      <g>
       <use xlink:href="#mcd6b3c479c" x="488.572321" y="189.669356" style="stroke: #000000; stroke-width: 0.8"/>
      </g>
     </g>
     <g id="text_21">
      <!-- 0.06 -->
      <g transform="translate(459.306696 193.468575) scale(0.1 -0.1)">
       <use xlink:href="#DejaVuSans-30"/>
       <use xlink:href="#DejaVuSans-2e" x="63.623047"/>
       <use xlink:href="#DejaVuSans-30" x="95.410156"/>
       <use xlink:href="#DejaVuSans-36" x="159.033203"/>
      </g>
     </g>
    </g>
    <g id="ytick_9">
     <g id="line2d_20">
      <g>
       <use xlink:href="#mcd6b3c479c" x="488.572321" y="143.84248" style="stroke: #000000; stroke-width: 0.8"/>
      </g>
     </g>
     <g id="text_22">
      <!-- 0.08 -->
      <g transform="translate(459.306696 147.641698) scale(0.1 -0.1)">
       <use xlink:href="#DejaVuSans-30"/>
       <use xlink:href="#DejaVuSans-2e" x="63.623047"/>
       <use xlink:href="#DejaVuSans-30" x="95.410156"/>
       <use xlink:href="#DejaVuSans-38" x="159.033203"/>
      </g>
     </g>
    </g>
    <g id="ytick_10">
     <g id="line2d_21">
      <g>
       <use xlink:href="#mcd6b3c479c" x="488.572321" y="98.015603" style="stroke: #000000; stroke-width: 0.8"/>
      </g>
     </g>
     <g id="text_23">
      <!-- 0.10 -->
      <g transform="translate(459.306696 101.814822) scale(0.1 -0.1)">
       <use xlink:href="#DejaVuSans-30"/>
       <use xlink:href="#DejaVuSans-2e" x="63.623047"/>
       <use xlink:href="#DejaVuSans-31" x="95.410156"/>
       <use xlink:href="#DejaVuSans-30" x="159.033203"/>
      </g>
     </g>
    </g>
   </g>
   <g id="line2d_22">
    <path d="M 506.689205 268.403324 
L 510.349181 266.899649 
L 514.009157 265.395973 
L 517.669134 263.892297 
L 521.32911 262.388622 
L 524.989086 260.884946 
L 528.649063 259.38127 
L 532.309039 257.877595 
L 535.969016 256.373919 
L 539.628992 254.870243 
L 543.288968 253.366567 
L 546.948945 251.862892 
L 550.608921 250.359216 
L 554.268898 248.85554 
L 557.928874 247.351865 
L 561.58885 245.848189 
L 565.248827 244.344513 
L 568.908803 242.840838 
L 572.56878 241.337162 
L 576.228756 239.833486 
L 579.888732 238.329811 
L 583.548709 236.826135 
L 587.208685 235.322459 
L 590.868661 233.818784 
L 594.528638 232.315108 
L 598.188614 230.811432 
L 601.848591 229.307757 
L 605.508567 227.804081 
L 609.168543 226.300405 
L 612.82852 224.79673 
L 616.488496 223.293054 
L 620.148473 221.789378 
L 623.808449 220.285703 
L 627.468425 218.782027 
L 631.128402 217.278351 
L 634.788378 215.774676 
L 638.448354 214.271 
L 642.108331 212.767324 
L 645.768307 211.263649 
L 649.428284 209.759973 
L 653.08826 208.256297 
L 656.748236 206.752622 
L 660.408213 205.248946 
L 664.068189 203.74527 
L 667.728166 202.241595 
L 671.388142 200.737919 
L 675.048118 199.234243 
L 678.708095 197.730568 
L 682.368071 196.226892 
L 686.028048 194.723216 
L 689.688024 193.219541 
L 693.348 191.715865 
L 697.007977 190.212189 
L 700.667953 188.708514 
L 704.327929 187.204838 
L 707.987906 185.701162 
L 711.647882 184.197487 
L 715.307859 182.693811 
L 718.967835 181.190135 
L 722.627811 179.68646 
L 726.287788 178.182784 
L 729.947764 176.679108 
L 733.607741 175.175433 
L 737.267717 173.671757 
L 740.927693 172.168081 
L 744.58767 170.664406 
L 748.247646 169.16073 
L 751.907622 167.657054 
L 755.567599 166.153379 
L 759.227575 164.649703 
L 762.887552 163.146027 
L 766.547528 161.642352 
L 770.207504 160.138676 
L 773.867481 158.635 
L 777.527457 157.131325 
L 781.187434 155.627649 
L 784.84741 154.123973 
L 788.507386 152.620298 
L 792.167363 151.116622 
L 795.827339 149.612946 
L 799.487316 148.109271 
L 803.147292 146.605595 
L 806.807268 145.101919 
L 810.467245 143.598244 
L 814.127221 142.094568 
L 817.787197 140.590892 
L 821.447174 139.087217 
L 825.10715 137.583541 
L 828.767127 136.079865 
L 832.427103 134.57619 
L 836.087079 133.072514 
L 839.747056 131.568838 
L 843.407032 130.065163 
L 847.067009 128.561487 
L 850.726985 127.057811 
L 854.386961 125.554136 
L 858.046938 124.05046 
L 861.706914 122.546784 
L 865.36689 121.043109 
L 869.026867 119.539433 
" clip-path="url(#p9104c98395)" style="fill: none; stroke: #ffa500; stroke-width: 2.25; stroke-linecap: square"/>
   </g>
   <g id="patch_8">
    <path d="M 488.572321 309.6 
L 488.572321 57.6 
" style="fill: none; stroke: #000000; stroke-width: 0.8; stroke-linejoin: miter; stroke-linecap: square"/>
   </g>
   <g id="patch_9">
    <path d="M 887.14375 309.6 
L 887.14375 57.6 
" style="fill: none; stroke: #000000; stroke-width: 0.8; stroke-linejoin: miter; stroke-linecap: square"/>
   </g>
   <g id="patch_10">
    <path d="M 488.572321 309.6 
L 887.14375 309.6 
" style="fill: none; stroke: #000000; stroke-width: 0.8; stroke-linejoin: miter; stroke-linecap: square"/>
   </g>
   <g id="patch_11">
    <path d="M 488.572321 57.6 
L 887.14375 57.6 
" style="fill: none; stroke: #000000; stroke-width: 0.8; stroke-linejoin: miter; stroke-linecap: square"/>
   </g>
  </g>
  <g id="axes_3">
   <g id="patch_12">
    <path d="M 50.14375 612 
L 448.715179 612 
L 448.715179 360 
L 50.14375 360 
z
" style="fill: #ffffff"/>
   </g>
   <g id="PathCollection_3">
    <g clip-path="url(#p56ef132949)">
     <use xlink:href="#m6feff37729" x="68.260633" y="569.897371" style="fill: #1f77b4; fill-opacity: 0.8; stroke: #1f77b4; stroke-opacity: 0.8"/>
     <use xlink:href="#m6feff37729" x="128.217766" y="599.371543" style="fill: #1f77b4; fill-opacity: 0.8; stroke: #1f77b4; stroke-opacity: 0.8"/>
     <use xlink:href="#m6feff37729" x="128.217766" y="588.884072" style="fill: #1f77b4; fill-opacity: 0.8; stroke: #1f77b4; stroke-opacity: 0.8"/>
     <use xlink:href="#m6feff37729" x="128.217766" y="509.600678" style="fill: #1f77b4; fill-opacity: 0.8; stroke: #1f77b4; stroke-opacity: 0.8"/>
     <use xlink:href="#m6feff37729" x="128.217766" y="494.414147" style="fill: #1f77b4; fill-opacity: 0.8; stroke: #1f77b4; stroke-opacity: 0.8"/>
     <use xlink:href="#m6feff37729" x="136.681886" y="530.782442" style="fill: #1f77b4; fill-opacity: 0.8; stroke: #1f77b4; stroke-opacity: 0.8"/>
     <use xlink:href="#m6feff37729" x="128.217766" y="575.210486" style="fill: #1f77b4; fill-opacity: 0.8; stroke: #1f77b4; stroke-opacity: 0.8"/>
     <use xlink:href="#m6feff37729" x="196.639019" y="497.39254" style="fill: #1f77b4; fill-opacity: 0.8; stroke: #1f77b4; stroke-opacity: 0.8"/>
     <use xlink:href="#m6feff37729" x="136.681886" y="530.640158" style="fill: #1f77b4; fill-opacity: 0.8; stroke: #1f77b4; stroke-opacity: 0.8"/>
     <use xlink:href="#m6feff37729" x="128.217766" y="541.877178" style="fill: #1f77b4; fill-opacity: 0.8; stroke: #1f77b4; stroke-opacity: 0.8"/>
     <use xlink:href="#m6feff37729" x="205.103139" y="555.39486" style="fill: #1f77b4; fill-opacity: 0.8; stroke: #1f77b4; stroke-opacity: 0.8"/>
     <use xlink:href="#m6feff37729" x="205.103139" y="503.515513" style="fill: #1f77b4; fill-opacity: 0.8; stroke: #1f77b4; stroke-opacity: 0.8"/>
     <use xlink:href="#m6feff37729" x="256.480066" y="450.110964" style="fill: #1f77b4; fill-opacity: 0.8; stroke: #1f77b4; stroke-opacity: 0.8"/>
     <use xlink:href="#m6feff37729" x="256.480066" y="473.390248" style="fill: #1f77b4; fill-opacity: 0.8; stroke: #1f77b4; stroke-opacity: 0.8"/>
     <use xlink:href="#m6feff37729" x="256.480066" y="514.712556" style="fill: #1f77b4; fill-opacity: 0.8; stroke: #1f77b4; stroke-opacity: 0.8"/>
     <use xlink:href="#m6feff37729" x="248.996986" y="498.036278" style="fill: #1f77b4; fill-opacity: 0.8; stroke: #1f77b4; stroke-opacity: 0.8"/>
     <use xlink:href="#m6feff37729" x="248.996986" y="476.507776" style="fill: #1f77b4; fill-opacity: 0.8; stroke: #1f77b4; stroke-opacity: 0.8"/>
     <use xlink:href="#m6feff37729" x="378.240328" y="405.33514" style="fill: #1f77b4; fill-opacity: 0.8; stroke: #1f77b4; stroke-opacity: 0.8"/>
     <use xlink:href="#m6feff37729" x="256.480066" y="515.401247" style="fill: #1f77b4; fill-opacity: 0.8; stroke: #1f77b4; stroke-opacity: 0.8"/>
     <use xlink:href="#m6feff37729" x="430.598295" y="457.477586" style="fill: #1f77b4; fill-opacity: 0.8; stroke: #1f77b4; stroke-opacity: 0.8"/>
    </g>
   </g>
   <g id="PolyCollection_3">
    <path d="M 68.260633 544.092394 
L 68.260633 600.545455 
L 71.92061 598.452579 
L 75.580586 596.479726 
L 79.240562 594.436354 
L 82.900539 592.216385 
L 86.560515 589.996416 
L 90.220491 587.908057 
L 93.880468 585.801738 
L 97.540444 583.616176 
L 101.200421 581.472455 
L 104.860397 579.304122 
L 108.520373 577.073493 
L 112.18035 574.80074 
L 115.840326 572.776992 
L 119.500303 570.617009 
L 123.160279 568.430445 
L 126.820255 566.240738 
L 130.480232 564.074085 
L 134.140208 561.979623 
L 137.800184 559.950191 
L 141.460161 557.745394 
L 145.120137 555.671493 
L 148.780114 553.653426 
L 152.44009 551.630855 
L 156.100066 549.591371 
L 159.760043 547.522211 
L 163.420019 545.987983 
L 167.079996 544.178942 
L 170.739972 542.298221 
L 174.399948 540.57321 
L 178.059925 538.979049 
L 181.719901 537.257046 
L 185.379878 535.602864 
L 189.039854 533.89249 
L 192.69983 532.071024 
L 196.359807 530.613119 
L 200.019783 528.896298 
L 203.679759 527.474298 
L 207.339736 525.631164 
L 210.999712 523.950938 
L 214.659689 522.317148 
L 218.319665 520.685884 
L 221.979641 519.585155 
L 225.639618 518.316979 
L 229.299594 516.925261 
L 232.959571 515.733233 
L 236.619547 514.520407 
L 240.279523 513.197229 
L 243.9395 511.754275 
L 247.599476 510.455387 
L 251.259452 509.087035 
L 254.919429 507.849057 
L 258.579405 506.573274 
L 262.239382 505.125407 
L 265.899358 503.644016 
L 269.559334 502.377332 
L 273.219311 501.189029 
L 276.879287 500.000726 
L 280.539264 498.887486 
L 284.19924 497.732778 
L 287.859216 496.694063 
L 291.519193 495.541696 
L 295.179169 494.333968 
L 298.839146 493.09127 
L 302.499122 491.900046 
L 306.159098 490.835055 
L 309.819075 489.480729 
L 313.479051 488.150603 
L 317.139027 486.960639 
L 320.799004 485.770369 
L 324.45898 484.637471 
L 328.118957 483.402699 
L 331.778933 482.309682 
L 335.438909 481.226884 
L 339.098886 480.170853 
L 342.758862 479.189892 
L 346.418839 478.206866 
L 350.078815 477.12744 
L 353.738791 476.20404 
L 357.398768 475.267168 
L 361.058744 474.065504 
L 364.71872 472.71756 
L 368.378697 471.49826 
L 372.038673 470.51564 
L 375.69865 469.3384 
L 379.358626 468.360816 
L 383.018602 467.40362 
L 386.678579 466.446424 
L 390.338555 465.489228 
L 393.998532 464.595315 
L 397.658508 463.626518 
L 401.318484 462.551299 
L 404.978461 461.435589 
L 408.638437 460.536374 
L 412.298414 459.564576 
L 415.95839 458.690853 
L 419.618366 457.734328 
L 423.278343 456.686499 
L 426.938319 455.619047 
L 430.598295 454.551595 
L 430.598295 371.454545 
L 430.598295 371.454545 
L 426.938319 373.824291 
L 423.278343 376.195831 
L 419.618366 378.571659 
L 415.95839 380.947488 
L 412.298414 383.080868 
L 408.638437 385.280005 
L 404.978461 387.7517 
L 401.318484 389.909636 
L 397.658508 392.075535 
L 393.998532 394.283901 
L 390.338555 396.848299 
L 386.678579 399.309124 
L 383.018602 401.462615 
L 379.358626 403.580444 
L 375.69865 405.699002 
L 372.038673 407.833866 
L 368.378697 409.985375 
L 364.71872 412.036115 
L 361.058744 414.143284 
L 357.398768 416.263028 
L 353.738791 418.630554 
L 350.078815 420.590464 
L 346.418839 422.856733 
L 342.758862 425.108314 
L 339.098886 427.236824 
L 335.438909 429.378056 
L 331.778933 431.485317 
L 328.118957 433.849566 
L 324.45898 436.271179 
L 320.799004 438.298717 
L 317.139027 440.305696 
L 313.479051 442.399676 
L 309.819075 444.595614 
L 306.159098 446.694607 
L 302.499122 448.767437 
L 298.839146 450.675394 
L 295.179169 452.725857 
L 291.519193 454.746084 
L 287.859216 456.881163 
L 284.19924 458.975587 
L 280.539264 461.200559 
L 276.879287 463.176695 
L 273.219311 465.122002 
L 269.559334 467.067309 
L 265.899358 469.060042 
L 262.239382 471.068013 
L 258.579405 473.227663 
L 254.919429 475.341258 
L 251.259452 477.31746 
L 247.599476 479.302378 
L 243.9395 481.279205 
L 240.279523 483.176228 
L 236.619547 485.005512 
L 232.959571 486.730915 
L 229.299594 488.649599 
L 225.639618 490.22247 
L 221.979641 491.843585 
L 218.319665 493.544603 
L 214.659689 495.438537 
L 210.999712 497.268566 
L 207.339736 498.84851 
L 203.679759 500.325871 
L 200.019783 501.935236 
L 196.359807 503.27738 
L 192.69983 504.791718 
L 189.039854 506.1008 
L 185.379878 507.766682 
L 181.719901 509.25599 
L 178.059925 510.655637 
L 174.399948 511.87221 
L 170.739972 513.086268 
L 167.079996 514.241475 
L 163.420019 515.269525 
L 159.760043 516.528162 
L 156.100066 517.669717 
L 152.44009 518.98068 
L 148.780114 520.246282 
L 145.120137 521.556917 
L 141.460161 522.637418 
L 137.800184 523.760893 
L 134.140208 524.699277 
L 130.480232 525.619614 
L 126.820255 526.677285 
L 123.160279 527.663298 
L 119.500303 528.629081 
L 115.840326 530.003823 
L 112.18035 531.030172 
L 108.520373 532.104351 
L 104.860397 533.148897 
L 101.200421 534.17764 
L 97.540444 535.320965 
L 93.880468 536.465164 
L 90.220491 537.608937 
L 86.560515 538.632755 
L 82.900539 539.780655 
L 79.240562 540.8602 
L 75.580586 541.818463 
L 71.92061 542.935395 
L 68.260633 544.092394 
z
" clip-path="url(#p56ef132949)" style="fill: #ffa500; fill-opacity: 0.15"/>
   </g>
   <g id="matplotlib.axis_5">
    <g id="xtick_11">
     <g id="line2d_23">
      <g>
       <use xlink:href="#m148b3592f6" x="86.690152" y="612" style="stroke: #000000; stroke-width: 0.8"/>
      </g>
     </g>
     <g id="text_24">
      <!-- 0.02 -->
      <g transform="translate(75.557339 626.598437) scale(0.1 -0.1)">
       <use xlink:href="#DejaVuSans-30"/>
       <use xlink:href="#DejaVuSans-2e" x="63.623047"/>
       <use xlink:href="#DejaVuSans-30" x="95.410156"/>
       <use xlink:href="#DejaVuSans-32" x="159.033203"/>
      </g>
     </g>
    </g>
    <g id="xtick_12">
     <g id="line2d_24">
      <g>
       <use xlink:href="#m148b3592f6" x="165.941759" y="612" style="stroke: #000000; stroke-width: 0.8"/>
      </g>
     </g>
     <g id="text_25">
      <!-- 0.04 -->
      <g transform="translate(154.808946 626.598437) scale(0.1 -0.1)">
       <use xlink:href="#DejaVuSans-30"/>
       <use xlink:href="#DejaVuSans-2e" x="63.623047"/>
       <use xlink:href="#DejaVuSans-30" x="95.410156"/>
       <use xlink:href="#DejaVuSans-34" x="159.033203"/>
      </g>
     </g>
    </g>
    <g id="xtick_13">
     <g id="line2d_25">
      <g>
       <use xlink:href="#m148b3592f6" x="245.193366" y="612" style="stroke: #000000; stroke-width: 0.8"/>
      </g>
     </g>
     <g id="text_26">
      <!-- 0.06 -->
      <g transform="translate(234.060553 626.598437) scale(0.1 -0.1)">
       <use xlink:href="#DejaVuSans-30"/>
       <use xlink:href="#DejaVuSans-2e" x="63.623047"/>
       <use xlink:href="#DejaVuSans-30" x="95.410156"/>
       <use xlink:href="#DejaVuSans-36" x="159.033203"/>
      </g>
     </g>
    </g>
    <g id="xtick_14">
     <g id="line2d_26">
      <g>
       <use xlink:href="#m148b3592f6" x="324.444973" y="612" style="stroke: #000000; stroke-width: 0.8"/>
      </g>
     </g>
     <g id="text_27">
      <!-- 0.08 -->
      <g transform="translate(313.31216 626.598437) scale(0.1 -0.1)">
       <use xlink:href="#DejaVuSans-30"/>
       <use xlink:href="#DejaVuSans-2e" x="63.623047"/>
       <use xlink:href="#DejaVuSans-30" x="95.410156"/>
       <use xlink:href="#DejaVuSans-38" x="159.033203"/>
      </g>
     </g>
    </g>
    <g id="xtick_15">
     <g id="line2d_27">
      <g>
       <use xlink:href="#m148b3592f6" x="403.696579" y="612" style="stroke: #000000; stroke-width: 0.8"/>
      </g>
     </g>
     <g id="text_28">
      <!-- 0.10 -->
      <g transform="translate(392.563767 626.598437) scale(0.1 -0.1)">
       <use xlink:href="#DejaVuSans-30"/>
       <use xlink:href="#DejaVuSans-2e" x="63.623047"/>
       <use xlink:href="#DejaVuSans-31" x="95.410156"/>
       <use xlink:href="#DejaVuSans-30" x="159.033203"/>
      </g>
     </g>
    </g>
    <g id="text_29">
     <!-- Codon+GC -->
     <g transform="translate(221.920871 640.276562) scale(0.1 -0.1)">
      <defs>
       <path id="DejaVuSans-47" d="M 3809 666 
L 3809 1919 
L 2778 1919 
L 2778 2438 
L 4434 2438 
L 4434 434 
Q 4069 175 3628 42 
Q 3188 -91 2688 -91 
Q 1594 -91 976 548 
Q 359 1188 359 2328 
Q 359 3472 976 4111 
Q 1594 4750 2688 4750 
Q 3144 4750 3555 4637 
Q 3966 4525 4313 4306 
L 4313 3634 
Q 3963 3931 3569 4081 
Q 3175 4231 2741 4231 
Q 1884 4231 1454 3753 
Q 1025 3275 1025 2328 
Q 1025 1384 1454 906 
Q 1884 428 2741 428 
Q 3075 428 3337 486 
Q 3600 544 3809 666 
z
" transform="scale(0.015625)"/>
      </defs>
      <use xlink:href="#DejaVuSans-43"/>
      <use xlink:href="#DejaVuSans-6f" x="69.824219"/>
      <use xlink:href="#DejaVuSans-64" x="131.005859"/>
      <use xlink:href="#DejaVuSans-6f" x="194.482422"/>
      <use xlink:href="#DejaVuSans-6e" x="255.664062"/>
      <use xlink:href="#DejaVuSans-2b" x="319.042969"/>
      <use xlink:href="#DejaVuSans-47" x="402.832031"/>
      <use xlink:href="#DejaVuSans-43" x="480.322266"/>
     </g>
    </g>
   </g>
   <g id="matplotlib.axis_6">
    <g id="ytick_11">
     <g id="line2d_28">
      <g>
       <use xlink:href="#mcd6b3c479c" x="50.14375" y="582.166754" style="stroke: #000000; stroke-width: 0.8"/>
      </g>
     </g>
     <g id="text_30">
      <!-- 0.02 -->
      <g transform="translate(20.878125 585.965973) scale(0.1 -0.1)">
       <use xlink:href="#DejaVuSans-30"/>
       <use xlink:href="#DejaVuSans-2e" x="63.623047"/>
       <use xlink:href="#DejaVuSans-30" x="95.410156"/>
       <use xlink:href="#DejaVuSans-32" x="159.033203"/>
      </g>
     </g>
    </g>
    <g id="ytick_12">
     <g id="line2d_29">
      <g>
       <use xlink:href="#mcd6b3c479c" x="50.14375" y="535.298036" style="stroke: #000000; stroke-width: 0.8"/>
      </g>
     </g>
     <g id="text_31">
      <!-- 0.04 -->
      <g transform="translate(20.878125 539.097254) scale(0.1 -0.1)">
       <use xlink:href="#DejaVuSans-30"/>
       <use xlink:href="#DejaVuSans-2e" x="63.623047"/>
       <use xlink:href="#DejaVuSans-30" x="95.410156"/>
       <use xlink:href="#DejaVuSans-34" x="159.033203"/>
      </g>
     </g>
    </g>
    <g id="ytick_13">
     <g id="line2d_30">
      <g>
       <use xlink:href="#mcd6b3c479c" x="50.14375" y="488.429318" style="stroke: #000000; stroke-width: 0.8"/>
      </g>
     </g>
     <g id="text_32">
      <!-- 0.06 -->
      <g transform="translate(20.878125 492.228536) scale(0.1 -0.1)">
       <use xlink:href="#DejaVuSans-30"/>
       <use xlink:href="#DejaVuSans-2e" x="63.623047"/>
       <use xlink:href="#DejaVuSans-30" x="95.410156"/>
       <use xlink:href="#DejaVuSans-36" x="159.033203"/>
      </g>
     </g>
    </g>
    <g id="ytick_14">
     <g id="line2d_31">
      <g>
       <use xlink:href="#mcd6b3c479c" x="50.14375" y="441.560599" style="stroke: #000000; stroke-width: 0.8"/>
      </g>
     </g>
     <g id="text_33">
      <!-- 0.08 -->
      <g transform="translate(20.878125 445.359818) scale(0.1 -0.1)">
       <use xlink:href="#DejaVuSans-30"/>
       <use xlink:href="#DejaVuSans-2e" x="63.623047"/>
       <use xlink:href="#DejaVuSans-30" x="95.410156"/>
       <use xlink:href="#DejaVuSans-38" x="159.033203"/>
      </g>
     </g>
    </g>
    <g id="ytick_15">
     <g id="line2d_32">
      <g>
       <use xlink:href="#mcd6b3c479c" x="50.14375" y="394.691881" style="stroke: #000000; stroke-width: 0.8"/>
      </g>
     </g>
     <g id="text_34">
      <!-- 0.10 -->
      <g transform="translate(20.878125 398.4911) scale(0.1 -0.1)">
       <use xlink:href="#DejaVuSans-30"/>
       <use xlink:href="#DejaVuSans-2e" x="63.623047"/>
       <use xlink:href="#DejaVuSans-31" x="95.410156"/>
       <use xlink:href="#DejaVuSans-30" x="159.033203"/>
      </g>
     </g>
    </g>
    <g id="text_35">
     <!-- Amino acid frequency -->
     <g transform="translate(14.798438 540.539062) rotate(-90) scale(0.1 -0.1)">
      <use xlink:href="#DejaVuSans-41"/>
      <use xlink:href="#DejaVuSans-6d" x="68.408203"/>
      <use xlink:href="#DejaVuSans-69" x="165.820312"/>
      <use xlink:href="#DejaVuSans-6e" x="193.603516"/>
      <use xlink:href="#DejaVuSans-6f" x="256.982422"/>
      <use xlink:href="#DejaVuSans-20" x="318.164062"/>
      <use xlink:href="#DejaVuSans-61" x="349.951172"/>
      <use xlink:href="#DejaVuSans-63" x="411.230469"/>
      <use xlink:href="#DejaVuSans-69" x="466.210938"/>
      <use xlink:href="#DejaVuSans-64" x="493.994141"/>
      <use xlink:href="#DejaVuSans-20" x="557.470703"/>
      <use xlink:href="#DejaVuSans-66" x="589.257812"/>
      <use xlink:href="#DejaVuSans-72" x="624.462891"/>
      <use xlink:href="#DejaVuSans-65" x="663.326172"/>
      <use xlink:href="#DejaVuSans-71" x="724.849609"/>
      <use xlink:href="#DejaVuSans-75" x="788.326172"/>
      <use xlink:href="#DejaVuSans-65" x="851.705078"/>
      <use xlink:href="#DejaVuSans-6e" x="913.228516"/>
      <use xlink:href="#DejaVuSans-63" x="976.607422"/>
      <use xlink:href="#DejaVuSans-79" x="1031.587891"/>
     </g>
    </g>
   </g>
   <g id="line2d_33">
    <path d="M 68.260633 570.45114 
L 71.92061 568.923167 
L 75.580586 567.395195 
L 79.240562 565.867222 
L 82.900539 564.33925 
L 86.560515 562.811277 
L 90.220491 561.283305 
L 93.880468 559.755332 
L 97.540444 558.22736 
L 101.200421 556.699387 
L 104.860397 555.171415 
L 108.520373 553.643442 
L 112.18035 552.11547 
L 115.840326 550.587497 
L 119.500303 549.059525 
L 123.160279 547.531552 
L 126.820255 546.00358 
L 130.480232 544.475607 
L 134.140208 542.947635 
L 137.800184 541.419662 
L 141.460161 539.89169 
L 145.120137 538.363717 
L 148.780114 536.835745 
L 152.44009 535.307772 
L 156.100066 533.7798 
L 159.760043 532.251827 
L 163.420019 530.723855 
L 167.079996 529.195882 
L 170.739972 527.66791 
L 174.399948 526.139937 
L 178.059925 524.611965 
L 181.719901 523.083992 
L 185.379878 521.55602 
L 189.039854 520.028047 
L 192.69983 518.500075 
L 196.359807 516.972102 
L 200.019783 515.44413 
L 203.679759 513.916157 
L 207.339736 512.388184 
L 210.999712 510.860212 
L 214.659689 509.332239 
L 218.319665 507.804267 
L 221.979641 506.276294 
L 225.639618 504.748322 
L 229.299594 503.220349 
L 232.959571 501.692377 
L 236.619547 500.164404 
L 240.279523 498.636432 
L 243.9395 497.108459 
L 247.599476 495.580487 
L 251.259452 494.052514 
L 254.919429 492.524542 
L 258.579405 490.996569 
L 262.239382 489.468597 
L 265.899358 487.940624 
L 269.559334 486.412652 
L 273.219311 484.884679 
L 276.879287 483.356707 
L 280.539264 481.828734 
L 284.19924 480.300762 
L 287.859216 478.772789 
L 291.519193 477.244817 
L 295.179169 475.716844 
L 298.839146 474.188872 
L 302.499122 472.660899 
L 306.159098 471.132927 
L 309.819075 469.604954 
L 313.479051 468.076982 
L 317.139027 466.549009 
L 320.799004 465.021037 
L 324.45898 463.493064 
L 328.118957 461.965092 
L 331.778933 460.437119 
L 335.438909 458.909147 
L 339.098886 457.381174 
L 342.758862 455.853202 
L 346.418839 454.325229 
L 350.078815 452.797257 
L 353.738791 451.269284 
L 357.398768 449.741312 
L 361.058744 448.213339 
L 364.71872 446.685367 
L 368.378697 445.157394 
L 372.038673 443.629422 
L 375.69865 442.101449 
L 379.358626 440.573477 
L 383.018602 439.045504 
L 386.678579 437.517532 
L 390.338555 435.989559 
L 393.998532 434.461587 
L 397.658508 432.933614 
L 401.318484 431.405642 
L 404.978461 429.877669 
L 408.638437 428.349697 
L 412.298414 426.821724 
L 415.95839 425.293752 
L 419.618366 423.765779 
L 423.278343 422.237807 
L 426.938319 420.709834 
L 430.598295 419.181862 
" clip-path="url(#p56ef132949)" style="fill: none; stroke: #ffa500; stroke-width: 2.25; stroke-linecap: square"/>
   </g>
   <g id="patch_13">
    <path d="M 50.14375 612 
L 50.14375 360 
" style="fill: none; stroke: #000000; stroke-width: 0.8; stroke-linejoin: miter; stroke-linecap: square"/>
   </g>
   <g id="patch_14">
    <path d="M 448.715179 612 
L 448.715179 360 
" style="fill: none; stroke: #000000; stroke-width: 0.8; stroke-linejoin: miter; stroke-linecap: square"/>
   </g>
   <g id="patch_15">
    <path d="M 50.14375 612 
L 448.715179 612 
" style="fill: none; stroke: #000000; stroke-width: 0.8; stroke-linejoin: miter; stroke-linecap: square"/>
   </g>
   <g id="patch_16">
    <path d="M 50.14375 360 
L 448.715179 360 
" style="fill: none; stroke: #000000; stroke-width: 0.8; stroke-linejoin: miter; stroke-linecap: square"/>
   </g>
  </g>
  <g id="axes_4">
   <g id="patch_17">
    <path d="M 488.572321 612 
L 887.14375 612 
L 887.14375 360 
L 488.572321 360 
z
" style="fill: #ffffff"/>
   </g>
   <g id="PathCollection_4">
    <g clip-path="url(#p50dd13c6c7)">
     <use xlink:href="#m6feff37729" x="506.689205" y="570.560198" style="fill: #1f77b4; fill-opacity: 0.8; stroke: #1f77b4; stroke-opacity: 0.8"/>
     <use xlink:href="#m6feff37729" x="566.627886" y="600.285594" style="fill: #1f77b4; fill-opacity: 0.8; stroke: #1f77b4; stroke-opacity: 0.8"/>
     <use xlink:href="#m6feff37729" x="566.627886" y="589.708733" style="fill: #1f77b4; fill-opacity: 0.8; stroke: #1f77b4; stroke-opacity: 0.8"/>
     <use xlink:href="#m6feff37729" x="566.627886" y="509.749565" style="fill: #1f77b4; fill-opacity: 0.8; stroke: #1f77b4; stroke-opacity: 0.8"/>
     <use xlink:href="#m6feff37729" x="566.627886" y="494.433592" style="fill: #1f77b4; fill-opacity: 0.8; stroke: #1f77b4; stroke-opacity: 0.8"/>
     <use xlink:href="#m6feff37729" x="575.17296" y="531.111872" style="fill: #1f77b4; fill-opacity: 0.8; stroke: #1f77b4; stroke-opacity: 0.8"/>
     <use xlink:href="#m6feff37729" x="566.627886" y="575.9186" style="fill: #1f77b4; fill-opacity: 0.8; stroke: #1f77b4; stroke-opacity: 0.8"/>
     <use xlink:href="#m6feff37729" x="635.111642" y="497.437371" style="fill: #1f77b4; fill-opacity: 0.8; stroke: #1f77b4; stroke-opacity: 0.8"/>
     <use xlink:href="#m6feff37729" x="575.17296" y="530.968376" style="fill: #1f77b4; fill-opacity: 0.8; stroke: #1f77b4; stroke-opacity: 0.8"/>
     <use xlink:href="#m6feff37729" x="566.627886" y="542.301174" style="fill: #1f77b4; fill-opacity: 0.8; stroke: #1f77b4; stroke-opacity: 0.8"/>
     <use xlink:href="#m6feff37729" x="643.656716" y="555.934075" style="fill: #1f77b4; fill-opacity: 0.8; stroke: #1f77b4; stroke-opacity: 0.8"/>
     <use xlink:href="#m6feff37729" x="643.656716" y="503.612534" style="fill: #1f77b4; fill-opacity: 0.8; stroke: #1f77b4; stroke-opacity: 0.8"/>
     <use xlink:href="#m6feff37729" x="694.73524" y="449.752791" style="fill: #1f77b4; fill-opacity: 0.8; stroke: #1f77b4; stroke-opacity: 0.8"/>
     <use xlink:href="#m6feff37729" x="694.73524" y="473.230496" style="fill: #1f77b4; fill-opacity: 0.8; stroke: #1f77b4; stroke-opacity: 0.8"/>
     <use xlink:href="#m6feff37729" x="694.73524" y="514.905014" style="fill: #1f77b4; fill-opacity: 0.8; stroke: #1f77b4; stroke-opacity: 0.8"/>
     <use xlink:href="#m6feff37729" x="687.407107" y="498.086596" style="fill: #1f77b4; fill-opacity: 0.8; stroke: #1f77b4; stroke-opacity: 0.8"/>
     <use xlink:href="#m6feff37729" x="687.407107" y="476.374596" style="fill: #1f77b4; fill-opacity: 0.8; stroke: #1f77b4; stroke-opacity: 0.8"/>
     <use xlink:href="#m6feff37729" x="816.731402" y="404.595319" style="fill: #1f77b4; fill-opacity: 0.8; stroke: #1f77b4; stroke-opacity: 0.8"/>
     <use xlink:href="#m6feff37729" x="694.73524" y="515.599576" style="fill: #1f77b4; fill-opacity: 0.8; stroke: #1f77b4; stroke-opacity: 0.8"/>
     <use xlink:href="#m6feff37729" x="869.026867" y="457.182202" style="fill: #1f77b4; fill-opacity: 0.8; stroke: #1f77b4; stroke-opacity: 0.8"/>
    </g>
   </g>
   <g id="PolyCollection_4">
    <path d="M 506.689205 544.097645 
L 506.689205 600.545455 
L 510.349181 598.317547 
L 514.009157 596.08678 
L 517.669134 593.965088 
L 521.32911 591.803032 
L 524.989086 589.401912 
L 528.649063 587.217915 
L 532.309039 585.449298 
L 535.969016 583.195686 
L 539.628992 580.939479 
L 543.288968 578.666026 
L 546.948945 576.37549 
L 550.608921 573.906681 
L 554.268898 571.802665 
L 557.928874 569.667866 
L 561.58885 567.504315 
L 565.248827 565.182955 
L 568.908803 563.294536 
L 572.56878 561.447644 
L 576.228756 559.579101 
L 579.888732 557.500866 
L 583.548709 555.419693 
L 587.208685 553.570184 
L 590.868661 551.50358 
L 594.528638 549.467895 
L 598.188614 547.463846 
L 601.848591 545.788093 
L 605.508567 544.176675 
L 609.168543 542.502 
L 612.82852 540.827014 
L 616.488496 539.194256 
L 620.148473 537.201851 
L 623.808449 535.603666 
L 627.468425 534.009373 
L 631.128402 532.561492 
L 634.788378 531.113611 
L 638.448354 529.641122 
L 642.108331 528.029219 
L 645.768307 526.479719 
L 649.428284 524.820927 
L 653.08826 523.238332 
L 656.748236 521.683506 
L 660.408213 520.235842 
L 664.068189 518.639776 
L 667.728166 517.419538 
L 671.388142 515.932011 
L 675.048118 514.701419 
L 678.708095 513.363927 
L 682.368071 511.932949 
L 686.028048 510.289269 
L 689.688024 508.896395 
L 693.348 507.46142 
L 697.007977 506.138866 
L 700.667953 504.954406 
L 704.327929 503.675204 
L 707.987906 502.450316 
L 711.647882 501.202449 
L 715.307859 500.107783 
L 718.967835 498.826687 
L 722.627811 497.47404 
L 726.287788 496.273309 
L 729.947764 495.112313 
L 733.607741 494.078668 
L 737.267717 493.034672 
L 740.927693 491.809395 
L 744.58767 490.692827 
L 748.247646 489.668825 
L 751.907622 488.204084 
L 755.567599 486.919297 
L 759.227575 485.729239 
L 762.887552 484.751428 
L 766.547528 483.787165 
L 770.207504 482.615676 
L 773.867481 481.262486 
L 777.527457 480.036908 
L 781.187434 479.089935 
L 784.84741 477.920202 
L 788.507386 476.742331 
L 792.167363 475.531366 
L 795.827339 474.179313 
L 799.487316 473.133429 
L 803.147292 472.039947 
L 806.807268 470.943191 
L 810.467245 470.1208 
L 814.127221 469.2173 
L 817.787197 468.242258 
L 821.447174 467.262887 
L 825.10715 466.11697 
L 828.767127 464.749114 
L 832.427103 463.380243 
L 836.087079 462.31145 
L 839.747056 461.283751 
L 843.407032 460.256051 
L 847.067009 459.228351 
L 850.726985 458.200651 
L 854.386961 457.171761 
L 858.046938 456.142865 
L 861.706914 455.164412 
L 865.36689 454.089852 
L 869.026867 453.060371 
L 869.026867 371.454545 
L 869.026867 371.454545 
L 865.36689 373.733107 
L 861.706914 376.06683 
L 858.046938 378.228227 
L 854.386961 380.389852 
L 850.726985 382.692311 
L 847.067009 384.821977 
L 843.407032 386.877718 
L 839.747056 389.079647 
L 836.087079 391.210976 
L 832.427103 393.354345 
L 828.767127 395.513889 
L 825.10715 397.673433 
L 821.447174 399.832977 
L 817.787197 401.992522 
L 814.127221 404.152066 
L 810.467245 406.31268 
L 806.807268 408.493237 
L 803.147292 410.635466 
L 799.487316 412.796422 
L 795.827339 414.98143 
L 792.167363 417.159114 
L 788.507386 419.277321 
L 784.84741 421.435255 
L 781.187434 423.593189 
L 777.527457 425.725446 
L 773.867481 427.858502 
L 770.207504 429.883148 
L 766.547528 431.853269 
L 762.887552 434.008516 
L 759.227575 436.129907 
L 755.567599 438.284166 
L 751.907622 440.554458 
L 748.247646 442.616528 
L 744.58767 444.680124 
L 740.927693 446.766469 
L 737.267717 448.805175 
L 733.607741 450.866319 
L 729.947764 452.94506 
L 726.287788 455.076272 
L 722.627811 457.306462 
L 718.967835 459.352696 
L 715.307859 461.417061 
L 711.647882 463.471316 
L 707.987906 465.432778 
L 704.327929 467.461343 
L 700.667953 469.489908 
L 697.007977 471.519049 
L 693.348 473.547037 
L 689.688024 475.598404 
L 686.028048 477.659892 
L 682.368071 479.603586 
L 678.708095 481.334104 
L 675.048118 483.291247 
L 671.388142 485.284172 
L 667.728166 487.116664 
L 664.068189 489.152304 
L 660.408213 490.765231 
L 656.748236 492.536647 
L 653.08826 494.398468 
L 649.428284 496.177901 
L 645.768307 497.609901 
L 642.108331 499.485098 
L 638.448354 501.03671 
L 634.788378 502.779506 
L 631.128402 504.101491 
L 627.468425 505.8327 
L 623.808449 507.18467 
L 620.148473 508.468733 
L 616.488496 509.751695 
L 612.82852 510.956096 
L 609.168543 512.249599 
L 605.508567 513.385187 
L 601.848591 514.813105 
L 598.188614 516.117162 
L 594.528638 517.285795 
L 590.868661 518.460117 
L 587.208685 519.580273 
L 583.548709 520.600255 
L 579.888732 521.803182 
L 576.228756 522.798918 
L 572.56878 523.669136 
L 568.908803 524.539355 
L 565.248827 525.508972 
L 561.58885 526.790164 
L 557.928874 528.348341 
L 554.268898 529.724798 
L 550.608921 530.727469 
L 546.948945 531.733565 
L 543.288968 532.739661 
L 539.628992 534.025051 
L 535.969016 535.3283 
L 532.309039 536.432231 
L 528.649063 537.435382 
L 524.989086 538.290592 
L 521.32911 539.514489 
L 517.669134 540.812468 
L 514.009157 541.907527 
L 510.349181 543.002586 
L 506.689205 544.097645 
z
" clip-path="url(#p50dd13c6c7)" style="fill: #ffa500; fill-opacity: 0.15"/>
   </g>
   <g id="matplotlib.axis_7">
    <g id="xtick_16">
     <g id="line2d_34">
      <g>
       <use xlink:href="#m148b3592f6" x="523.884018" y="612" style="stroke: #000000; stroke-width: 0.8"/>
      </g>
     </g>
     <g id="text_36">
      <!-- 0.02 -->
      <g transform="translate(512.751206 626.598437) scale(0.1 -0.1)">
       <use xlink:href="#DejaVuSans-30"/>
       <use xlink:href="#DejaVuSans-2e" x="63.623047"/>
       <use xlink:href="#DejaVuSans-30" x="95.410156"/>
       <use xlink:href="#DejaVuSans-32" x="159.033203"/>
      </g>
     </g>
    </g>
    <g id="xtick_17">
     <g id="line2d_35">
      <g>
       <use xlink:href="#m148b3592f6" x="601.919371" y="612" style="stroke: #000000; stroke-width: 0.8"/>
      </g>
     </g>
     <g id="text_37">
      <!-- 0.04 -->
      <g transform="translate(590.786559 626.598437) scale(0.1 -0.1)">
       <use xlink:href="#DejaVuSans-30"/>
       <use xlink:href="#DejaVuSans-2e" x="63.623047"/>
       <use xlink:href="#DejaVuSans-30" x="95.410156"/>
       <use xlink:href="#DejaVuSans-34" x="159.033203"/>
      </g>
     </g>
    </g>
    <g id="xtick_18">
     <g id="line2d_36">
      <g>
       <use xlink:href="#m148b3592f6" x="679.954724" y="612" style="stroke: #000000; stroke-width: 0.8"/>
      </g>
     </g>
     <g id="text_38">
      <!-- 0.06 -->
      <g transform="translate(668.821912 626.598437) scale(0.1 -0.1)">
       <use xlink:href="#DejaVuSans-30"/>
       <use xlink:href="#DejaVuSans-2e" x="63.623047"/>
       <use xlink:href="#DejaVuSans-30" x="95.410156"/>
       <use xlink:href="#DejaVuSans-36" x="159.033203"/>
      </g>
     </g>
    </g>
    <g id="xtick_19">
     <g id="line2d_37">
      <g>
       <use xlink:href="#m148b3592f6" x="757.990077" y="612" style="stroke: #000000; stroke-width: 0.8"/>
      </g>
     </g>
     <g id="text_39">
      <!-- 0.08 -->
      <g transform="translate(746.857265 626.598437) scale(0.1 -0.1)">
       <use xlink:href="#DejaVuSans-30"/>
       <use xlink:href="#DejaVuSans-2e" x="63.623047"/>
       <use xlink:href="#DejaVuSans-30" x="95.410156"/>
       <use xlink:href="#DejaVuSans-38" x="159.033203"/>
      </g>
     </g>
    </g>
    <g id="xtick_20">
     <g id="line2d_38">
      <g>
       <use xlink:href="#m148b3592f6" x="836.02543" y="612" style="stroke: #000000; stroke-width: 0.8"/>
      </g>
     </g>
     <g id="text_40">
      <!-- 0.10 -->
      <g transform="translate(824.892618 626.598437) scale(0.1 -0.1)">
       <use xlink:href="#DejaVuSans-30"/>
       <use xlink:href="#DejaVuSans-2e" x="63.623047"/>
       <use xlink:href="#DejaVuSans-31" x="95.410156"/>
       <use xlink:href="#DejaVuSans-30" x="159.033203"/>
      </g>
     </g>
    </g>
    <g id="text_41">
     <!-- Codon+GC+Cost -->
     <g transform="translate(645.043973 640.276562) scale(0.1 -0.1)">
      <use xlink:href="#DejaVuSans-43"/>
      <use xlink:href="#DejaVuSans-6f" x="69.824219"/>
      <use xlink:href="#DejaVuSans-64" x="131.005859"/>
      <use xlink:href="#DejaVuSans-6f" x="194.482422"/>
      <use xlink:href="#DejaVuSans-6e" x="255.664062"/>
      <use xlink:href="#DejaVuSans-2b" x="319.042969"/>
      <use xlink:href="#DejaVuSans-47" x="402.832031"/>
      <use xlink:href="#DejaVuSans-43" x="480.322266"/>
      <use xlink:href="#DejaVuSans-2b" x="550.146484"/>
      <use xlink:href="#DejaVuSans-43" x="633.935547"/>
      <use xlink:href="#DejaVuSans-6f" x="703.759766"/>
      <use xlink:href="#DejaVuSans-73" x="764.941406"/>
      <use xlink:href="#DejaVuSans-74" x="817.041016"/>
     </g>
    </g>
   </g>
   <g id="matplotlib.axis_8">
    <g id="ytick_16">
     <g id="line2d_39">
      <g>
       <use xlink:href="#mcd6b3c479c" x="488.572321" y="582.934159" style="stroke: #000000; stroke-width: 0.8"/>
      </g>
     </g>
     <g id="text_42">
      <!-- 0.02 -->
      <g transform="translate(459.306696 586.733378) scale(0.1 -0.1)">
       <use xlink:href="#DejaVuSans-30"/>
       <use xlink:href="#DejaVuSans-2e" x="63.623047"/>
       <use xlink:href="#DejaVuSans-30" x="95.410156"/>
       <use xlink:href="#DejaVuSans-32" x="159.033203"/>
      </g>
     </g>
    </g>
    <g id="ytick_17">
     <g id="line2d_40">
      <g>
       <use xlink:href="#mcd6b3c479c" x="488.572321" y="535.665955" style="stroke: #000000; stroke-width: 0.8"/>
      </g>
     </g>
     <g id="text_43">
      <!-- 0.04 -->
      <g transform="translate(459.306696 539.465174) scale(0.1 -0.1)">
       <use xlink:href="#DejaVuSans-30"/>
       <use xlink:href="#DejaVuSans-2e" x="63.623047"/>
       <use xlink:href="#DejaVuSans-30" x="95.410156"/>
       <use xlink:href="#DejaVuSans-34" x="159.033203"/>
      </g>
     </g>
    </g>
    <g id="ytick_18">
     <g id="line2d_41">
      <g>
       <use xlink:href="#mcd6b3c479c" x="488.572321" y="488.397751" style="stroke: #000000; stroke-width: 0.8"/>
      </g>
     </g>
     <g id="text_44">
      <!-- 0.06 -->
      <g transform="translate(459.306696 492.196969) scale(0.1 -0.1)">
       <use xlink:href="#DejaVuSans-30"/>
       <use xlink:href="#DejaVuSans-2e" x="63.623047"/>
       <use xlink:href="#DejaVuSans-30" x="95.410156"/>
       <use xlink:href="#DejaVuSans-36" x="159.033203"/>
      </g>
     </g>
    </g>
    <g id="ytick_19">
     <g id="line2d_42">
      <g>
       <use xlink:href="#mcd6b3c479c" x="488.572321" y="441.129546" style="stroke: #000000; stroke-width: 0.8"/>
      </g>
     </g>
     <g id="text_45">
      <!-- 0.08 -->
      <g transform="translate(459.306696 444.928765) scale(0.1 -0.1)">
       <use xlink:href="#DejaVuSans-30"/>
       <use xlink:href="#DejaVuSans-2e" x="63.623047"/>
       <use xlink:href="#DejaVuSans-30" x="95.410156"/>
       <use xlink:href="#DejaVuSans-38" x="159.033203"/>
      </g>
     </g>
    </g>
    <g id="ytick_20">
     <g id="line2d_43">
      <g>
       <use xlink:href="#mcd6b3c479c" x="488.572321" y="393.861342" style="stroke: #000000; stroke-width: 0.8"/>
      </g>
     </g>
     <g id="text_46">
      <!-- 0.10 -->
      <g transform="translate(459.306696 397.660561) scale(0.1 -0.1)">
       <use xlink:href="#DejaVuSans-30"/>
       <use xlink:href="#DejaVuSans-2e" x="63.623047"/>
       <use xlink:href="#DejaVuSans-31" x="95.410156"/>
       <use xlink:href="#DejaVuSans-30" x="159.033203"/>
      </g>
     </g>
    </g>
   </g>
   <g id="line2d_44">
    <path d="M 506.689205 571.119622 
L 510.349181 569.578394 
L 514.009157 568.037166 
L 517.669134 566.495938 
L 521.32911 564.95471 
L 524.989086 563.413481 
L 528.649063 561.872253 
L 532.309039 560.331025 
L 535.969016 558.789797 
L 539.628992 557.248569 
L 543.288968 555.707341 
L 546.948945 554.166113 
L 550.608921 552.624885 
L 554.268898 551.083657 
L 557.928874 549.542429 
L 561.58885 548.001201 
L 565.248827 546.459972 
L 568.908803 544.918744 
L 572.56878 543.377516 
L 576.228756 541.836288 
L 579.888732 540.29506 
L 583.548709 538.753832 
L 587.208685 537.212604 
L 590.868661 535.671376 
L 594.528638 534.130148 
L 598.188614 532.58892 
L 601.848591 531.047692 
L 605.508567 529.506463 
L 609.168543 527.965235 
L 612.82852 526.424007 
L 616.488496 524.882779 
L 620.148473 523.341551 
L 623.808449 521.800323 
L 627.468425 520.259095 
L 631.128402 518.717867 
L 634.788378 517.176639 
L 638.448354 515.635411 
L 642.108331 514.094183 
L 645.768307 512.552954 
L 649.428284 511.011726 
L 653.08826 509.470498 
L 656.748236 507.92927 
L 660.408213 506.388042 
L 664.068189 504.846814 
L 667.728166 503.305586 
L 671.388142 501.764358 
L 675.048118 500.22313 
L 678.708095 498.681902 
L 682.368071 497.140674 
L 686.028048 495.599445 
L 689.688024 494.058217 
L 693.348 492.516989 
L 697.007977 490.975761 
L 700.667953 489.434533 
L 704.327929 487.893305 
L 707.987906 486.352077 
L 711.647882 484.810849 
L 715.307859 483.269621 
L 718.967835 481.728393 
L 722.627811 480.187165 
L 726.287788 478.645936 
L 729.947764 477.104708 
L 733.607741 475.56348 
L 737.267717 474.022252 
L 740.927693 472.481024 
L 744.58767 470.939796 
L 748.247646 469.398568 
L 751.907622 467.85734 
L 755.567599 466.316112 
L 759.227575 464.774884 
L 762.887552 463.233656 
L 766.547528 461.692428 
L 770.207504 460.151199 
L 773.867481 458.609971 
L 777.527457 457.068743 
L 781.187434 455.527515 
L 784.84741 453.986287 
L 788.507386 452.445059 
L 792.167363 450.903831 
L 795.827339 449.362603 
L 799.487316 447.821375 
L 803.147292 446.280147 
L 806.807268 444.738919 
L 810.467245 443.19769 
L 814.127221 441.656462 
L 817.787197 440.115234 
L 821.447174 438.574006 
L 825.10715 437.032778 
L 828.767127 435.49155 
L 832.427103 433.950322 
L 836.087079 432.409094 
L 839.747056 430.867866 
L 843.407032 429.326638 
L 847.067009 427.78541 
L 850.726985 426.244181 
L 854.386961 424.702953 
L 858.046938 423.161725 
L 861.706914 421.620497 
L 865.36689 420.079269 
L 869.026867 418.538041 
" clip-path="url(#p50dd13c6c7)" style="fill: none; stroke: #ffa500; stroke-width: 2.25; stroke-linecap: square"/>
   </g>
   <g id="patch_18">
    <path d="M 488.572321 612 
L 488.572321 360 
" style="fill: none; stroke: #000000; stroke-width: 0.8; stroke-linejoin: miter; stroke-linecap: square"/>
   </g>
   <g id="patch_19">
    <path d="M 887.14375 612 
L 887.14375 360 
" style="fill: none; stroke: #000000; stroke-width: 0.8; stroke-linejoin: miter; stroke-linecap: square"/>
   </g>
   <g id="patch_20">
    <path d="M 488.572321 612 
L 887.14375 612 
" style="fill: none; stroke: #000000; stroke-width: 0.8; stroke-linejoin: miter; stroke-linecap: square"/>
   </g>
   <g id="patch_21">
    <path d="M 488.572321 360 
L 887.14375 360 
" style="fill: none; stroke: #000000; stroke-width: 0.8; stroke-linejoin: miter; stroke-linecap: square"/>
   </g>
  </g>
  <g id="text_47">
   <!-- Eukaryota - Comparison between amino acid and factor frequencies for genetic code: Cephalodiscidae -->
   <g transform="translate(69.405859 18.597656) scale(0.15 -0.15)">
    <defs>
     <path id="DejaVuSans-45" d="M 628 4666 
L 3578 4666 
L 3578 4134 
L 1259 4134 
L 1259 2753 
L 3481 2753 
L 3481 2222 
L 1259 2222 
L 1259 531 
L 3634 531 
L 3634 0 
L 628 0 
L 628 4666 
z
" transform="scale(0.015625)"/>
     <path id="DejaVuSans-6b" d="M 581 4863 
L 1159 4863 
L 1159 1991 
L 2875 3500 
L 3609 3500 
L 1753 1863 
L 3688 0 
L 2938 0 
L 1159 1709 
L 1159 0 
L 581 0 
L 581 4863 
z
" transform="scale(0.015625)"/>
     <path id="DejaVuSans-2d" d="M 313 2009 
L 1997 2009 
L 1997 1497 
L 313 1497 
L 313 2009 
z
" transform="scale(0.015625)"/>
     <path id="DejaVuSans-70" d="M 1159 525 
L 1159 -1331 
L 581 -1331 
L 581 3500 
L 1159 3500 
L 1159 2969 
Q 1341 3281 1617 3432 
Q 1894 3584 2278 3584 
Q 2916 3584 3314 3078 
Q 3713 2572 3713 1747 
Q 3713 922 3314 415 
Q 2916 -91 2278 -91 
Q 1894 -91 1617 61 
Q 1341 213 1159 525 
z
M 3116 1747 
Q 3116 2381 2855 2742 
Q 2594 3103 2138 3103 
Q 1681 3103 1420 2742 
Q 1159 2381 1159 1747 
Q 1159 1113 1420 752 
Q 1681 391 2138 391 
Q 2594 391 2855 752 
Q 3116 1113 3116 1747 
z
" transform="scale(0.015625)"/>
     <path id="DejaVuSans-62" d="M 3116 1747 
Q 3116 2381 2855 2742 
Q 2594 3103 2138 3103 
Q 1681 3103 1420 2742 
Q 1159 2381 1159 1747 
Q 1159 1113 1420 752 
Q 1681 391 2138 391 
Q 2594 391 2855 752 
Q 3116 1113 3116 1747 
z
M 1159 2969 
Q 1341 3281 1617 3432 
Q 1894 3584 2278 3584 
Q 2916 3584 3314 3078 
Q 3713 2572 3713 1747 
Q 3713 922 3314 415 
Q 2916 -91 2278 -91 
Q 1894 -91 1617 61 
Q 1341 213 1159 525 
L 1159 0 
L 581 0 
L 581 4863 
L 1159 4863 
L 1159 2969 
z
" transform="scale(0.015625)"/>
     <path id="DejaVuSans-77" d="M 269 3500 
L 844 3500 
L 1563 769 
L 2278 3500 
L 2956 3500 
L 3675 769 
L 4391 3500 
L 4966 3500 
L 4050 0 
L 3372 0 
L 2619 2869 
L 1863 0 
L 1184 0 
L 269 3500 
z
" transform="scale(0.015625)"/>
     <path id="DejaVuSans-67" d="M 2906 1791 
Q 2906 2416 2648 2759 
Q 2391 3103 1925 3103 
Q 1463 3103 1205 2759 
Q 947 2416 947 1791 
Q 947 1169 1205 825 
Q 1463 481 1925 481 
Q 2391 481 2648 825 
Q 2906 1169 2906 1791 
z
M 3481 434 
Q 3481 -459 3084 -895 
Q 2688 -1331 1869 -1331 
Q 1566 -1331 1297 -1286 
Q 1028 -1241 775 -1147 
L 775 -588 
Q 1028 -725 1275 -790 
Q 1522 -856 1778 -856 
Q 2344 -856 2625 -561 
Q 2906 -266 2906 331 
L 2906 616 
Q 2728 306 2450 153 
Q 2172 0 1784 0 
Q 1141 0 747 490 
Q 353 981 353 1791 
Q 353 2603 747 3093 
Q 1141 3584 1784 3584 
Q 2172 3584 2450 3431 
Q 2728 3278 2906 2969 
L 2906 3500 
L 3481 3500 
L 3481 434 
z
" transform="scale(0.015625)"/>
     <path id="DejaVuSans-3a" d="M 750 794 
L 1409 794 
L 1409 0 
L 750 0 
L 750 794 
z
M 750 3309 
L 1409 3309 
L 1409 2516 
L 750 2516 
L 750 3309 
z
" transform="scale(0.015625)"/>
     <path id="DejaVuSans-68" d="M 3513 2113 
L 3513 0 
L 2938 0 
L 2938 2094 
Q 2938 2591 2744 2837 
Q 2550 3084 2163 3084 
Q 1697 3084 1428 2787 
Q 1159 2491 1159 1978 
L 1159 0 
L 581 0 
L 581 4863 
L 1159 4863 
L 1159 2956 
Q 1366 3272 1645 3428 
Q 1925 3584 2291 3584 
Q 2894 3584 3203 3211 
Q 3513 2838 3513 2113 
z
" transform="scale(0.015625)"/>
     <path id="DejaVuSans-6c" d="M 603 4863 
L 1178 4863 
L 1178 0 
L 603 0 
L 603 4863 
z
" transform="scale(0.015625)"/>
    </defs>
    <use xlink:href="#DejaVuSans-45"/>
    <use xlink:href="#DejaVuSans-75" x="63.183594"/>
    <use xlink:href="#DejaVuSans-6b" x="126.5625"/>
    <use xlink:href="#DejaVuSans-61" x="182.722656"/>
    <use xlink:href="#DejaVuSans-72" x="244.001953"/>
    <use xlink:href="#DejaVuSans-79" x="285.115234"/>
    <use xlink:href="#DejaVuSans-6f" x="344.294922"/>
    <use xlink:href="#DejaVuSans-74" x="405.476562"/>
    <use xlink:href="#DejaVuSans-61" x="444.685547"/>
    <use xlink:href="#DejaVuSans-20" x="505.964844"/>
    <use xlink:href="#DejaVuSans-2d" x="537.751953"/>
    <use xlink:href="#DejaVuSans-20" x="573.835938"/>
    <use xlink:href="#DejaVuSans-43" x="605.623047"/>
    <use xlink:href="#DejaVuSans-6f" x="675.447266"/>
    <use xlink:href="#DejaVuSans-6d" x="736.628906"/>
    <use xlink:href="#DejaVuSans-70" x="834.041016"/>
    <use xlink:href="#DejaVuSans-61" x="897.517578"/>
    <use xlink:href="#DejaVuSans-72" x="958.796875"/>
    <use xlink:href="#DejaVuSans-69" x="999.910156"/>
    <use xlink:href="#DejaVuSans-73" x="1027.693359"/>
    <use xlink:href="#DejaVuSans-6f" x="1079.792969"/>
    <use xlink:href="#DejaVuSans-6e" x="1140.974609"/>
    <use xlink:href="#DejaVuSans-20" x="1204.353516"/>
    <use xlink:href="#DejaVuSans-62" x="1236.140625"/>
    <use xlink:href="#DejaVuSans-65" x="1299.617188"/>
    <use xlink:href="#DejaVuSans-74" x="1361.140625"/>
    <use xlink:href="#DejaVuSans-77" x="1400.349609"/>
    <use xlink:href="#DejaVuSans-65" x="1482.136719"/>
    <use xlink:href="#DejaVuSans-65" x="1543.660156"/>
    <use xlink:href="#DejaVuSans-6e" x="1605.183594"/>
    <use xlink:href="#DejaVuSans-20" x="1668.5625"/>
    <use xlink:href="#DejaVuSans-61" x="1700.349609"/>
    <use xlink:href="#DejaVuSans-6d" x="1761.628906"/>
    <use xlink:href="#DejaVuSans-69" x="1859.041016"/>
    <use xlink:href="#DejaVuSans-6e" x="1886.824219"/>
    <use xlink:href="#DejaVuSans-6f" x="1950.203125"/>
    <use xlink:href="#DejaVuSans-20" x="2011.384766"/>
    <use xlink:href="#DejaVuSans-61" x="2043.171875"/>
    <use xlink:href="#DejaVuSans-63" x="2104.451172"/>
    <use xlink:href="#DejaVuSans-69" x="2159.431641"/>
    <use xlink:href="#DejaVuSans-64" x="2187.214844"/>
    <use xlink:href="#DejaVuSans-20" x="2250.691406"/>
    <use xlink:href="#DejaVuSans-61" x="2282.478516"/>
    <use xlink:href="#DejaVuSans-6e" x="2343.757812"/>
    <use xlink:href="#DejaVuSans-64" x="2407.136719"/>
    <use xlink:href="#DejaVuSans-20" x="2470.613281"/>
    <use xlink:href="#DejaVuSans-66" x="2502.400391"/>
    <use xlink:href="#DejaVuSans-61" x="2537.605469"/>
    <use xlink:href="#DejaVuSans-63" x="2598.884766"/>
    <use xlink:href="#DejaVuSans-74" x="2653.865234"/>
    <use xlink:href="#DejaVuSans-6f" x="2693.074219"/>
    <use xlink:href="#DejaVuSans-72" x="2754.255859"/>
    <use xlink:href="#DejaVuSans-20" x="2795.369141"/>
    <use xlink:href="#DejaVuSans-66" x="2827.15625"/>
    <use xlink:href="#DejaVuSans-72" x="2862.361328"/>
    <use xlink:href="#DejaVuSans-65" x="2901.224609"/>
    <use xlink:href="#DejaVuSans-71" x="2962.748047"/>
    <use xlink:href="#DejaVuSans-75" x="3026.224609"/>
    <use xlink:href="#DejaVuSans-65" x="3089.603516"/>
    <use xlink:href="#DejaVuSans-6e" x="3151.126953"/>
    <use xlink:href="#DejaVuSans-63" x="3214.505859"/>
    <use xlink:href="#DejaVuSans-69" x="3269.486328"/>
    <use xlink:href="#DejaVuSans-65" x="3297.269531"/>
    <use xlink:href="#DejaVuSans-73" x="3358.792969"/>
    <use xlink:href="#DejaVuSans-20" x="3410.892578"/>
    <use xlink:href="#DejaVuSans-66" x="3442.679688"/>
    <use xlink:href="#DejaVuSans-6f" x="3477.884766"/>
    <use xlink:href="#DejaVuSans-72" x="3539.066406"/>
    <use xlink:href="#DejaVuSans-20" x="3580.179688"/>
    <use xlink:href="#DejaVuSans-67" x="3611.966797"/>
    <use xlink:href="#DejaVuSans-65" x="3675.443359"/>
    <use xlink:href="#DejaVuSans-6e" x="3736.966797"/>
    <use xlink:href="#DejaVuSans-65" x="3800.345703"/>
    <use xlink:href="#DejaVuSans-74" x="3861.869141"/>
    <use xlink:href="#DejaVuSans-69" x="3901.078125"/>
    <use xlink:href="#DejaVuSans-63" x="3928.861328"/>
    <use xlink:href="#DejaVuSans-20" x="3983.841797"/>
    <use xlink:href="#DejaVuSans-63" x="4015.628906"/>
    <use xlink:href="#DejaVuSans-6f" x="4070.609375"/>
    <use xlink:href="#DejaVuSans-64" x="4131.791016"/>
    <use xlink:href="#DejaVuSans-65" x="4195.267578"/>
    <use xlink:href="#DejaVuSans-3a" x="4256.791016"/>
    <use xlink:href="#DejaVuSans-20" x="4290.482422"/>
    <use xlink:href="#DejaVuSans-43" x="4322.269531"/>
    <use xlink:href="#DejaVuSans-65" x="4392.09375"/>
    <use xlink:href="#DejaVuSans-70" x="4453.617188"/>
    <use xlink:href="#DejaVuSans-68" x="4517.09375"/>
    <use xlink:href="#DejaVuSans-61" x="4580.472656"/>
    <use xlink:href="#DejaVuSans-6c" x="4641.751953"/>
    <use xlink:href="#DejaVuSans-6f" x="4669.535156"/>
    <use xlink:href="#DejaVuSans-64" x="4730.716797"/>
    <use xlink:href="#DejaVuSans-69" x="4794.193359"/>
    <use xlink:href="#DejaVuSans-73" x="4821.976562"/>
    <use xlink:href="#DejaVuSans-63" x="4874.076172"/>
    <use xlink:href="#DejaVuSans-69" x="4929.056641"/>
    <use xlink:href="#DejaVuSans-64" x="4956.839844"/>
    <use xlink:href="#DejaVuSans-61" x="5020.316406"/>
    <use xlink:href="#DejaVuSans-65" x="5081.595703"/>
   </g>
   <!-- mitochondrial uaa-tyr -->
   <g transform="translate(373.901172 35.394375) scale(0.15 -0.15)">
    <use xlink:href="#DejaVuSans-6d"/>
    <use xlink:href="#DejaVuSans-69" x="97.412109"/>
    <use xlink:href="#DejaVuSans-74" x="125.195312"/>
    <use xlink:href="#DejaVuSans-6f" x="164.404297"/>
    <use xlink:href="#DejaVuSans-63" x="225.585938"/>
    <use xlink:href="#DejaVuSans-68" x="280.566406"/>
    <use xlink:href="#DejaVuSans-6f" x="343.945312"/>
    <use xlink:href="#DejaVuSans-6e" x="405.126953"/>
    <use xlink:href="#DejaVuSans-64" x="468.505859"/>
    <use xlink:href="#DejaVuSans-72" x="531.982422"/>
    <use xlink:href="#DejaVuSans-69" x="573.095703"/>
    <use xlink:href="#DejaVuSans-61" x="600.878906"/>
    <use xlink:href="#DejaVuSans-6c" x="662.158203"/>
    <use xlink:href="#DejaVuSans-20" x="689.941406"/>
    <use xlink:href="#DejaVuSans-75" x="721.728516"/>
    <use xlink:href="#DejaVuSans-61" x="785.107422"/>
    <use xlink:href="#DejaVuSans-61" x="846.386719"/>
    <use xlink:href="#DejaVuSans-2d" x="907.666016"/>
    <use xlink:href="#DejaVuSans-74" x="943.75"/>
    <use xlink:href="#DejaVuSans-79" x="982.958984"/>
    <use xlink:href="#DejaVuSans-72" x="1042.138672"/>
   </g>
  </g>
 </g>
 <defs>
  <clipPath id="p317c9e3e0f">
   <rect x="50.14375" y="57.6" width="398.571429" height="252"/>
  </clipPath>
  <clipPath id="p9104c98395">
   <rect x="488.572321" y="57.6" width="398.571429" height="252"/>
  </clipPath>
  <clipPath id="p56ef132949">
   <rect x="50.14375" y="360" width="398.571429" height="252"/>
  </clipPath>
  <clipPath id="p50dd13c6c7">
   <rect x="488.572321" y="360" width="398.571429" height="252"/>
  </clipPath>
 </defs>
</svg>
