<?xml version="1.0" encoding="utf-8" standalone="no"?>
<!DOCTYPE svg PUBLIC "-//W3C//DTD SVG 1.1//EN"
  "http://www.w3.org/Graphics/SVG/1.1/DTD/svg11.dtd">
<svg xmlns:xlink="http://www.w3.org/1999/xlink" width="894.34375pt" height="649.55625pt" viewBox="0 0 894.34375 649.55625" xmlns="http://www.w3.org/2000/svg" version="1.1">
 <metadata>
  <rdf:RDF xmlns:dc="http://purl.org/dc/elements/1.1/" xmlns:cc="http://creativecommons.org/ns#" xmlns:rdf="http://www.w3.org/1999/02/22-rdf-syntax-ns#">
   <cc:Work>
    <dc:type rdf:resource="http://purl.org/dc/dcmitype/StillImage"/>
    <dc:date>2024-09-25T14:43:01.559903</dc:date>
    <dc:format>image/svg+xml</dc:format>
    <dc:creator>
     <cc:Agent>
      <dc:title>Matplotlib v3.8.3, https://matplotlib.org/</dc:title>
     </cc:Agent>
    </dc:creator>
   </cc:Work>
  </rdf:RDF>
 </metadata>
 <defs>
  <style type="text/css">*{stroke-linejoin: round; stroke-linecap: butt}</style>
 </defs>
 <g id="figure_1">
  <g id="patch_1">
   <path d="M 0 649.55625 
L 894.34375 649.55625 
L 894.34375 0 
L 0 0 
z
" style="fill: #ffffff"/>
  </g>
  <g id="axes_1">
   <g id="patch_2">
    <path d="M 50.14375 309.6 
L 448.715179 309.6 
L 448.715179 57.6 
L 50.14375 57.6 
z
" style="fill: #ffffff"/>
   </g>
   <g id="PathCollection_1">
    <defs>
     <path id="me3811e46ed" d="M 0 3.535534 
C 0.937635 3.535534 1.836992 3.163008 2.5 2.5 
C 3.163008 1.836992 3.535534 0.937635 3.535534 0 
C 3.535534 -0.937635 3.163008 -1.836992 2.5 -2.5 
C 1.836992 -3.163008 0.937635 -3.535534 0 -3.535534 
C -0.937635 -3.535534 -1.836992 -3.163008 -2.5 -2.5 
C -3.163008 -1.836992 -3.535534 -0.937635 -3.535534 0 
C -3.535534 0.937635 -3.163008 1.836992 -2.5 2.5 
C -1.836992 3.163008 -0.937635 3.535534 0 3.535534 
z
" style="stroke: #1f77b4; stroke-opacity: 0.8"/>
    </defs>
    <g clip-path="url(#p1023ef4453)">
     <use xlink:href="#me3811e46ed" x="68.260633" y="268.372832" style="fill: #1f77b4; fill-opacity: 0.8; stroke: #1f77b4; stroke-opacity: 0.8"/>
     <use xlink:href="#me3811e46ed" x="128.650244" y="298.145455" style="fill: #1f77b4; fill-opacity: 0.8; stroke: #1f77b4; stroke-opacity: 0.8"/>
     <use xlink:href="#me3811e46ed" x="128.650244" y="286.658371" style="fill: #1f77b4; fill-opacity: 0.8; stroke: #1f77b4; stroke-opacity: 0.8"/>
     <use xlink:href="#me3811e46ed" x="128.650244" y="211.661737" style="fill: #1f77b4; fill-opacity: 0.8; stroke: #1f77b4; stroke-opacity: 0.8"/>
     <use xlink:href="#me3811e46ed" x="128.650244" y="195.480713" style="fill: #1f77b4; fill-opacity: 0.8; stroke: #1f77b4; stroke-opacity: 0.8"/>
     <use xlink:href="#me3811e46ed" x="128.650244" y="231.115432" style="fill: #1f77b4; fill-opacity: 0.8; stroke: #1f77b4; stroke-opacity: 0.8"/>
     <use xlink:href="#me3811e46ed" x="128.650244" y="275.337159" style="fill: #1f77b4; fill-opacity: 0.8; stroke: #1f77b4; stroke-opacity: 0.8"/>
     <use xlink:href="#me3811e46ed" x="189.039854" y="196.650532" style="fill: #1f77b4; fill-opacity: 0.8; stroke: #1f77b4; stroke-opacity: 0.8"/>
     <use xlink:href="#me3811e46ed" x="128.650244" y="231.299115" style="fill: #1f77b4; fill-opacity: 0.8; stroke: #1f77b4; stroke-opacity: 0.8"/>
     <use xlink:href="#me3811e46ed" x="128.650244" y="241.059502" style="fill: #1f77b4; fill-opacity: 0.8; stroke: #1f77b4; stroke-opacity: 0.8"/>
     <use xlink:href="#me3811e46ed" x="189.039854" y="256.12007" style="fill: #1f77b4; fill-opacity: 0.8; stroke: #1f77b4; stroke-opacity: 0.8"/>
     <use xlink:href="#me3811e46ed" x="189.039854" y="204.912687" style="fill: #1f77b4; fill-opacity: 0.8; stroke: #1f77b4; stroke-opacity: 0.8"/>
     <use xlink:href="#me3811e46ed" x="249.429464" y="150.669244" style="fill: #1f77b4; fill-opacity: 0.8; stroke: #1f77b4; stroke-opacity: 0.8"/>
     <use xlink:href="#me3811e46ed" x="249.429464" y="174.171842" style="fill: #1f77b4; fill-opacity: 0.8; stroke: #1f77b4; stroke-opacity: 0.8"/>
     <use xlink:href="#me3811e46ed" x="249.429464" y="214.016749" style="fill: #1f77b4; fill-opacity: 0.8; stroke: #1f77b4; stroke-opacity: 0.8"/>
     <use xlink:href="#me3811e46ed" x="249.429464" y="199.263448" style="fill: #1f77b4; fill-opacity: 0.8; stroke: #1f77b4; stroke-opacity: 0.8"/>
     <use xlink:href="#me3811e46ed" x="249.429464" y="179.063348" style="fill: #1f77b4; fill-opacity: 0.8; stroke: #1f77b4; stroke-opacity: 0.8"/>
     <use xlink:href="#me3811e46ed" x="370.208685" y="109.026258" style="fill: #1f77b4; fill-opacity: 0.8; stroke: #1f77b4; stroke-opacity: 0.8"/>
     <use xlink:href="#me3811e46ed" x="249.429464" y="213.963987" style="fill: #1f77b4; fill-opacity: 0.8; stroke: #1f77b4; stroke-opacity: 0.8"/>
     <use xlink:href="#me3811e46ed" x="430.598295" y="158.894358" style="fill: #1f77b4; fill-opacity: 0.8; stroke: #1f77b4; stroke-opacity: 0.8"/>
    </g>
   </g>
   <g id="PolyCollection_1">
    <path d="M 68.260633 242.668629 
L 68.260633 296.465824 
L 71.92061 294.546719 
L 75.580586 292.424839 
L 79.240562 290.299651 
L 82.900539 288.002267 
L 86.560515 285.622411 
L 90.220491 283.348811 
L 93.880468 281.194758 
L 97.540444 278.898546 
L 101.200421 276.896555 
L 104.860397 274.742337 
L 108.520373 272.75049 
L 112.18035 270.767651 
L 115.840326 268.875662 
L 119.500303 266.844545 
L 123.160279 264.398787 
L 126.820255 262.342011 
L 130.480232 260.463086 
L 134.140208 258.370045 
L 137.800184 256.134221 
L 141.460161 254.415094 
L 145.120137 252.48165 
L 148.780114 250.550497 
L 152.44009 248.960372 
L 156.100066 247.050264 
L 159.760043 245.41908 
L 163.420019 243.527998 
L 167.079996 242.14925 
L 170.739972 240.294845 
L 174.399948 238.394286 
L 178.059925 236.627336 
L 181.719901 234.787052 
L 185.379878 233.088315 
L 189.039854 231.593242 
L 192.69983 230.072542 
L 196.359807 228.502732 
L 200.019783 226.943936 
L 203.679759 225.53841 
L 207.339736 224.109826 
L 210.999712 222.650092 
L 214.659689 221.253181 
L 218.319665 219.98762 
L 221.979641 218.711829 
L 225.639618 217.409766 
L 229.299594 216.08731 
L 232.959571 214.805013 
L 236.619547 213.442204 
L 240.279523 212.200583 
L 243.9395 210.89816 
L 247.599476 209.596125 
L 251.259452 208.079585 
L 254.919429 206.734688 
L 258.579405 205.39339 
L 262.239382 204.252691 
L 265.899358 203.022887 
L 269.559334 201.784537 
L 273.219311 200.422728 
L 276.879287 199.105491 
L 280.539264 197.877617 
L 284.19924 196.815879 
L 287.859216 195.653959 
L 291.519193 194.465056 
L 295.179169 193.275154 
L 298.839146 192.346059 
L 302.499122 191.179249 
L 306.159098 189.861708 
L 309.819075 188.588008 
L 313.479051 187.48075 
L 317.139027 186.512297 
L 320.799004 185.565211 
L 324.45898 184.553398 
L 328.118957 183.436474 
L 331.778933 182.169077 
L 335.438909 180.960379 
L 339.098886 179.912748 
L 342.758862 178.713609 
L 346.418839 177.735684 
L 350.078815 176.661761 
L 353.738791 175.508017 
L 357.398768 174.354274 
L 361.058744 173.20053 
L 364.71872 172.020075 
L 368.378697 170.832187 
L 372.038673 169.643595 
L 375.69865 168.484761 
L 379.358626 167.302734 
L 383.018602 166.110046 
L 386.678579 165.068279 
L 390.338555 163.93936 
L 393.998532 162.825568 
L 397.658508 161.702261 
L 401.318484 160.605149 
L 404.978461 159.506354 
L 408.638437 158.419823 
L 412.298414 157.5619 
L 415.95839 156.528636 
L 419.618366 155.447199 
L 423.278343 154.365762 
L 426.938319 153.373166 
L 430.598295 152.41387 
L 430.598295 69.054545 
L 430.598295 69.054545 
L 426.938319 71.245623 
L 423.278343 73.441125 
L 419.618366 75.63719 
L 415.95839 77.773952 
L 412.298414 79.949385 
L 408.638437 82.013287 
L 404.978461 84.117341 
L 401.318484 86.229903 
L 397.658508 88.342465 
L 393.998532 90.455027 
L 390.338555 92.572127 
L 386.678579 94.808376 
L 383.018602 97.107019 
L 379.358626 99.405662 
L 375.69865 101.642173 
L 372.038673 103.731756 
L 368.378697 105.821338 
L 364.71872 107.910921 
L 361.058744 110.000503 
L 357.398768 112.090151 
L 353.738791 114.184527 
L 350.078815 116.211669 
L 346.418839 118.379775 
L 342.758862 120.701993 
L 339.098886 123.024211 
L 335.438909 125.346429 
L 331.778933 127.673233 
L 328.118957 129.895722 
L 324.45898 131.818847 
L 320.799004 134.057931 
L 317.139027 136.44119 
L 313.479051 138.614136 
L 309.819075 140.607823 
L 306.159098 142.485594 
L 302.499122 144.566503 
L 298.839146 146.887688 
L 295.179169 149.209393 
L 291.519193 151.530316 
L 287.859216 153.852778 
L 284.19924 156.465382 
L 280.539264 158.484912 
L 276.879287 160.715256 
L 273.219311 163.08001 
L 269.559334 165.218568 
L 265.899358 167.463476 
L 262.239382 169.430158 
L 258.579405 171.380077 
L 254.919429 173.323208 
L 251.259452 175.254985 
L 247.599476 177.107499 
L 243.9395 178.939286 
L 240.279523 180.568576 
L 236.619547 182.552197 
L 232.959571 184.419892 
L 229.299594 185.661241 
L 225.639618 188.08548 
L 221.979641 189.92295 
L 218.319665 191.920176 
L 214.659689 193.806865 
L 210.999712 195.579026 
L 207.339736 197.243773 
L 203.679759 199.097239 
L 200.019783 200.903467 
L 196.359807 202.563861 
L 192.69983 204.239464 
L 189.039854 205.766954 
L 185.379878 207.065173 
L 181.719901 208.554766 
L 178.059925 210.065182 
L 174.399948 211.749597 
L 170.739972 212.845158 
L 167.079996 214.333319 
L 163.420019 215.487697 
L 159.760043 216.731529 
L 156.100066 217.85488 
L 152.44009 219.157551 
L 148.780114 220.416468 
L 145.120137 221.283702 
L 141.460161 222.646282 
L 137.800184 223.541522 
L 134.140208 224.664774 
L 130.480232 225.841248 
L 126.820255 226.991112 
L 123.160279 228.102651 
L 119.500303 229.231628 
L 115.840326 230.211059 
L 112.18035 231.287872 
L 108.520373 232.21747 
L 104.860397 233.15274 
L 101.200421 234.207147 
L 97.540444 235.340175 
L 93.880468 236.353586 
L 90.220491 237.243223 
L 86.560515 238.132859 
L 82.900539 239.023938 
L 79.240562 239.915952 
L 75.580586 240.809609 
L 71.92061 241.703356 
L 68.260633 242.668629 
z
" clip-path="url(#p1023ef4453)" style="fill: #ffa500; fill-opacity: 0.15"/>
   </g>
   <g id="matplotlib.axis_1">
    <g id="xtick_1">
     <g id="line2d_1">
      <defs>
       <path id="mbc22ed6913" d="M 0 0 
L 0 3.5 
" style="stroke: #000000; stroke-width: 0.8"/>
      </defs>
      <g>
       <use xlink:href="#mbc22ed6913" x="83.961932" y="309.6" style="stroke: #000000; stroke-width: 0.8"/>
      </g>
     </g>
     <g id="text_1">
      <!-- 0.02 -->
      <g transform="translate(72.829119 324.198437) scale(0.1 -0.1)">
       <defs>
        <path id="DejaVuSans-30" d="M 2034 4250 
Q 1547 4250 1301 3770 
Q 1056 3291 1056 2328 
Q 1056 1369 1301 889 
Q 1547 409 2034 409 
Q 2525 409 2770 889 
Q 3016 1369 3016 2328 
Q 3016 3291 2770 3770 
Q 2525 4250 2034 4250 
z
M 2034 4750 
Q 2819 4750 3233 4129 
Q 3647 3509 3647 2328 
Q 3647 1150 3233 529 
Q 2819 -91 2034 -91 
Q 1250 -91 836 529 
Q 422 1150 422 2328 
Q 422 3509 836 4129 
Q 1250 4750 2034 4750 
z
" transform="scale(0.015625)"/>
        <path id="DejaVuSans-2e" d="M 684 794 
L 1344 794 
L 1344 0 
L 684 0 
L 684 794 
z
" transform="scale(0.015625)"/>
        <path id="DejaVuSans-32" d="M 1228 531 
L 3431 531 
L 3431 0 
L 469 0 
L 469 531 
Q 828 903 1448 1529 
Q 2069 2156 2228 2338 
Q 2531 2678 2651 2914 
Q 2772 3150 2772 3378 
Q 2772 3750 2511 3984 
Q 2250 4219 1831 4219 
Q 1534 4219 1204 4116 
Q 875 4013 500 3803 
L 500 4441 
Q 881 4594 1212 4672 
Q 1544 4750 1819 4750 
Q 2544 4750 2975 4387 
Q 3406 4025 3406 3419 
Q 3406 3131 3298 2873 
Q 3191 2616 2906 2266 
Q 2828 2175 2409 1742 
Q 1991 1309 1228 531 
z
" transform="scale(0.015625)"/>
       </defs>
       <use xlink:href="#DejaVuSans-30"/>
       <use xlink:href="#DejaVuSans-2e" x="63.623047"/>
       <use xlink:href="#DejaVuSans-30" x="95.410156"/>
       <use xlink:href="#DejaVuSans-32" x="159.033203"/>
      </g>
     </g>
    </g>
    <g id="xtick_2">
     <g id="line2d_2">
      <g>
       <use xlink:href="#mbc22ed6913" x="160.052841" y="309.6" style="stroke: #000000; stroke-width: 0.8"/>
      </g>
     </g>
     <g id="text_2">
      <!-- 0.04 -->
      <g transform="translate(148.920028 324.198437) scale(0.1 -0.1)">
       <defs>
        <path id="DejaVuSans-34" d="M 2419 4116 
L 825 1625 
L 2419 1625 
L 2419 4116 
z
M 2253 4666 
L 3047 4666 
L 3047 1625 
L 3713 1625 
L 3713 1100 
L 3047 1100 
L 3047 0 
L 2419 0 
L 2419 1100 
L 313 1100 
L 313 1709 
L 2253 4666 
z
" transform="scale(0.015625)"/>
       </defs>
       <use xlink:href="#DejaVuSans-30"/>
       <use xlink:href="#DejaVuSans-2e" x="63.623047"/>
       <use xlink:href="#DejaVuSans-30" x="95.410156"/>
       <use xlink:href="#DejaVuSans-34" x="159.033203"/>
      </g>
     </g>
    </g>
    <g id="xtick_3">
     <g id="line2d_3">
      <g>
       <use xlink:href="#mbc22ed6913" x="236.14375" y="309.6" style="stroke: #000000; stroke-width: 0.8"/>
      </g>
     </g>
     <g id="text_3">
      <!-- 0.06 -->
      <g transform="translate(225.010938 324.198437) scale(0.1 -0.1)">
       <defs>
        <path id="DejaVuSans-36" d="M 2113 2584 
Q 1688 2584 1439 2293 
Q 1191 2003 1191 1497 
Q 1191 994 1439 701 
Q 1688 409 2113 409 
Q 2538 409 2786 701 
Q 3034 994 3034 1497 
Q 3034 2003 2786 2293 
Q 2538 2584 2113 2584 
z
M 3366 4563 
L 3366 3988 
Q 3128 4100 2886 4159 
Q 2644 4219 2406 4219 
Q 1781 4219 1451 3797 
Q 1122 3375 1075 2522 
Q 1259 2794 1537 2939 
Q 1816 3084 2150 3084 
Q 2853 3084 3261 2657 
Q 3669 2231 3669 1497 
Q 3669 778 3244 343 
Q 2819 -91 2113 -91 
Q 1303 -91 875 529 
Q 447 1150 447 2328 
Q 447 3434 972 4092 
Q 1497 4750 2381 4750 
Q 2619 4750 2861 4703 
Q 3103 4656 3366 4563 
z
" transform="scale(0.015625)"/>
       </defs>
       <use xlink:href="#DejaVuSans-30"/>
       <use xlink:href="#DejaVuSans-2e" x="63.623047"/>
       <use xlink:href="#DejaVuSans-30" x="95.410156"/>
       <use xlink:href="#DejaVuSans-36" x="159.033203"/>
      </g>
     </g>
    </g>
    <g id="xtick_4">
     <g id="line2d_4">
      <g>
       <use xlink:href="#mbc22ed6913" x="312.234659" y="309.6" style="stroke: #000000; stroke-width: 0.8"/>
      </g>
     </g>
     <g id="text_4">
      <!-- 0.08 -->
      <g transform="translate(301.101847 324.198437) scale(0.1 -0.1)">
       <defs>
        <path id="DejaVuSans-38" d="M 2034 2216 
Q 1584 2216 1326 1975 
Q 1069 1734 1069 1313 
Q 1069 891 1326 650 
Q 1584 409 2034 409 
Q 2484 409 2743 651 
Q 3003 894 3003 1313 
Q 3003 1734 2745 1975 
Q 2488 2216 2034 2216 
z
M 1403 2484 
Q 997 2584 770 2862 
Q 544 3141 544 3541 
Q 544 4100 942 4425 
Q 1341 4750 2034 4750 
Q 2731 4750 3128 4425 
Q 3525 4100 3525 3541 
Q 3525 3141 3298 2862 
Q 3072 2584 2669 2484 
Q 3125 2378 3379 2068 
Q 3634 1759 3634 1313 
Q 3634 634 3220 271 
Q 2806 -91 2034 -91 
Q 1263 -91 848 271 
Q 434 634 434 1313 
Q 434 1759 690 2068 
Q 947 2378 1403 2484 
z
M 1172 3481 
Q 1172 3119 1398 2916 
Q 1625 2713 2034 2713 
Q 2441 2713 2670 2916 
Q 2900 3119 2900 3481 
Q 2900 3844 2670 4047 
Q 2441 4250 2034 4250 
Q 1625 4250 1398 4047 
Q 1172 3844 1172 3481 
z
" transform="scale(0.015625)"/>
       </defs>
       <use xlink:href="#DejaVuSans-30"/>
       <use xlink:href="#DejaVuSans-2e" x="63.623047"/>
       <use xlink:href="#DejaVuSans-30" x="95.410156"/>
       <use xlink:href="#DejaVuSans-38" x="159.033203"/>
      </g>
     </g>
    </g>
    <g id="xtick_5">
     <g id="line2d_5">
      <g>
       <use xlink:href="#mbc22ed6913" x="388.325568" y="309.6" style="stroke: #000000; stroke-width: 0.8"/>
      </g>
     </g>
     <g id="text_5">
      <!-- 0.10 -->
      <g transform="translate(377.192756 324.198437) scale(0.1 -0.1)">
       <defs>
        <path id="DejaVuSans-31" d="M 794 531 
L 1825 531 
L 1825 4091 
L 703 3866 
L 703 4441 
L 1819 4666 
L 2450 4666 
L 2450 531 
L 3481 531 
L 3481 0 
L 794 0 
L 794 531 
z
" transform="scale(0.015625)"/>
       </defs>
       <use xlink:href="#DejaVuSans-30"/>
       <use xlink:href="#DejaVuSans-2e" x="63.623047"/>
       <use xlink:href="#DejaVuSans-31" x="95.410156"/>
       <use xlink:href="#DejaVuSans-30" x="159.033203"/>
      </g>
     </g>
    </g>
    <g id="text_6">
     <!-- Codon -->
     <g transform="translate(233.476339 337.876562) scale(0.1 -0.1)">
      <defs>
       <path id="DejaVuSans-43" d="M 4122 4306 
L 4122 3641 
Q 3803 3938 3442 4084 
Q 3081 4231 2675 4231 
Q 1875 4231 1450 3742 
Q 1025 3253 1025 2328 
Q 1025 1406 1450 917 
Q 1875 428 2675 428 
Q 3081 428 3442 575 
Q 3803 722 4122 1019 
L 4122 359 
Q 3791 134 3420 21 
Q 3050 -91 2638 -91 
Q 1578 -91 968 557 
Q 359 1206 359 2328 
Q 359 3453 968 4101 
Q 1578 4750 2638 4750 
Q 3056 4750 3426 4639 
Q 3797 4528 4122 4306 
z
" transform="scale(0.015625)"/>
       <path id="DejaVuSans-6f" d="M 1959 3097 
Q 1497 3097 1228 2736 
Q 959 2375 959 1747 
Q 959 1119 1226 758 
Q 1494 397 1959 397 
Q 2419 397 2687 759 
Q 2956 1122 2956 1747 
Q 2956 2369 2687 2733 
Q 2419 3097 1959 3097 
z
M 1959 3584 
Q 2709 3584 3137 3096 
Q 3566 2609 3566 1747 
Q 3566 888 3137 398 
Q 2709 -91 1959 -91 
Q 1206 -91 779 398 
Q 353 888 353 1747 
Q 353 2609 779 3096 
Q 1206 3584 1959 3584 
z
" transform="scale(0.015625)"/>
       <path id="DejaVuSans-64" d="M 2906 2969 
L 2906 4863 
L 3481 4863 
L 3481 0 
L 2906 0 
L 2906 525 
Q 2725 213 2448 61 
Q 2172 -91 1784 -91 
Q 1150 -91 751 415 
Q 353 922 353 1747 
Q 353 2572 751 3078 
Q 1150 3584 1784 3584 
Q 2172 3584 2448 3432 
Q 2725 3281 2906 2969 
z
M 947 1747 
Q 947 1113 1208 752 
Q 1469 391 1925 391 
Q 2381 391 2643 752 
Q 2906 1113 2906 1747 
Q 2906 2381 2643 2742 
Q 2381 3103 1925 3103 
Q 1469 3103 1208 2742 
Q 947 2381 947 1747 
z
" transform="scale(0.015625)"/>
       <path id="DejaVuSans-6e" d="M 3513 2113 
L 3513 0 
L 2938 0 
L 2938 2094 
Q 2938 2591 2744 2837 
Q 2550 3084 2163 3084 
Q 1697 3084 1428 2787 
Q 1159 2491 1159 1978 
L 1159 0 
L 581 0 
L 581 3500 
L 1159 3500 
L 1159 2956 
Q 1366 3272 1645 3428 
Q 1925 3584 2291 3584 
Q 2894 3584 3203 3211 
Q 3513 2838 3513 2113 
z
" transform="scale(0.015625)"/>
      </defs>
      <use xlink:href="#DejaVuSans-43"/>
      <use xlink:href="#DejaVuSans-6f" x="69.824219"/>
      <use xlink:href="#DejaVuSans-64" x="131.005859"/>
      <use xlink:href="#DejaVuSans-6f" x="194.482422"/>
      <use xlink:href="#DejaVuSans-6e" x="255.664062"/>
     </g>
    </g>
   </g>
   <g id="matplotlib.axis_2">
    <g id="ytick_1">
     <g id="line2d_6">
      <defs>
       <path id="m69b92c95b7" d="M 0 0 
L -3.5 0 
" style="stroke: #000000; stroke-width: 0.8"/>
      </defs>
      <g>
       <use xlink:href="#m69b92c95b7" x="50.14375" y="283.567605" style="stroke: #000000; stroke-width: 0.8"/>
      </g>
     </g>
     <g id="text_7">
      <!-- 0.02 -->
      <g transform="translate(20.878125 287.366824) scale(0.1 -0.1)">
       <use xlink:href="#DejaVuSans-30"/>
       <use xlink:href="#DejaVuSans-2e" x="63.623047"/>
       <use xlink:href="#DejaVuSans-30" x="95.410156"/>
       <use xlink:href="#DejaVuSans-32" x="159.033203"/>
      </g>
     </g>
    </g>
    <g id="ytick_2">
     <g id="line2d_7">
      <g>
       <use xlink:href="#m69b92c95b7" x="50.14375" y="237.71863" style="stroke: #000000; stroke-width: 0.8"/>
      </g>
     </g>
     <g id="text_8">
      <!-- 0.04 -->
      <g transform="translate(20.878125 241.517849) scale(0.1 -0.1)">
       <use xlink:href="#DejaVuSans-30"/>
       <use xlink:href="#DejaVuSans-2e" x="63.623047"/>
       <use xlink:href="#DejaVuSans-30" x="95.410156"/>
       <use xlink:href="#DejaVuSans-34" x="159.033203"/>
      </g>
     </g>
    </g>
    <g id="ytick_3">
     <g id="line2d_8">
      <g>
       <use xlink:href="#m69b92c95b7" x="50.14375" y="191.869654" style="stroke: #000000; stroke-width: 0.8"/>
      </g>
     </g>
     <g id="text_9">
      <!-- 0.06 -->
      <g transform="translate(20.878125 195.668873) scale(0.1 -0.1)">
       <use xlink:href="#DejaVuSans-30"/>
       <use xlink:href="#DejaVuSans-2e" x="63.623047"/>
       <use xlink:href="#DejaVuSans-30" x="95.410156"/>
       <use xlink:href="#DejaVuSans-36" x="159.033203"/>
      </g>
     </g>
    </g>
    <g id="ytick_4">
     <g id="line2d_9">
      <g>
       <use xlink:href="#m69b92c95b7" x="50.14375" y="146.020678" style="stroke: #000000; stroke-width: 0.8"/>
      </g>
     </g>
     <g id="text_10">
      <!-- 0.08 -->
      <g transform="translate(20.878125 149.819897) scale(0.1 -0.1)">
       <use xlink:href="#DejaVuSans-30"/>
       <use xlink:href="#DejaVuSans-2e" x="63.623047"/>
       <use xlink:href="#DejaVuSans-30" x="95.410156"/>
       <use xlink:href="#DejaVuSans-38" x="159.033203"/>
      </g>
     </g>
    </g>
    <g id="ytick_5">
     <g id="line2d_10">
      <g>
       <use xlink:href="#m69b92c95b7" x="50.14375" y="100.171703" style="stroke: #000000; stroke-width: 0.8"/>
      </g>
     </g>
     <g id="text_11">
      <!-- 0.10 -->
      <g transform="translate(20.878125 103.970922) scale(0.1 -0.1)">
       <use xlink:href="#DejaVuSans-30"/>
       <use xlink:href="#DejaVuSans-2e" x="63.623047"/>
       <use xlink:href="#DejaVuSans-31" x="95.410156"/>
       <use xlink:href="#DejaVuSans-30" x="159.033203"/>
      </g>
     </g>
    </g>
    <g id="text_12">
     <!-- Amino acid frequency -->
     <g transform="translate(14.798438 238.139062) rotate(-90) scale(0.1 -0.1)">
      <defs>
       <path id="DejaVuSans-41" d="M 2188 4044 
L 1331 1722 
L 3047 1722 
L 2188 4044 
z
M 1831 4666 
L 2547 4666 
L 4325 0 
L 3669 0 
L 3244 1197 
L 1141 1197 
L 716 0 
L 50 0 
L 1831 4666 
z
" transform="scale(0.015625)"/>
       <path id="DejaVuSans-6d" d="M 3328 2828 
Q 3544 3216 3844 3400 
Q 4144 3584 4550 3584 
Q 5097 3584 5394 3201 
Q 5691 2819 5691 2113 
L 5691 0 
L 5113 0 
L 5113 2094 
Q 5113 2597 4934 2840 
Q 4756 3084 4391 3084 
Q 3944 3084 3684 2787 
Q 3425 2491 3425 1978 
L 3425 0 
L 2847 0 
L 2847 2094 
Q 2847 2600 2669 2842 
Q 2491 3084 2119 3084 
Q 1678 3084 1418 2786 
Q 1159 2488 1159 1978 
L 1159 0 
L 581 0 
L 581 3500 
L 1159 3500 
L 1159 2956 
Q 1356 3278 1631 3431 
Q 1906 3584 2284 3584 
Q 2666 3584 2933 3390 
Q 3200 3197 3328 2828 
z
" transform="scale(0.015625)"/>
       <path id="DejaVuSans-69" d="M 603 3500 
L 1178 3500 
L 1178 0 
L 603 0 
L 603 3500 
z
M 603 4863 
L 1178 4863 
L 1178 4134 
L 603 4134 
L 603 4863 
z
" transform="scale(0.015625)"/>
       <path id="DejaVuSans-20" transform="scale(0.015625)"/>
       <path id="DejaVuSans-61" d="M 2194 1759 
Q 1497 1759 1228 1600 
Q 959 1441 959 1056 
Q 959 750 1161 570 
Q 1363 391 1709 391 
Q 2188 391 2477 730 
Q 2766 1069 2766 1631 
L 2766 1759 
L 2194 1759 
z
M 3341 1997 
L 3341 0 
L 2766 0 
L 2766 531 
Q 2569 213 2275 61 
Q 1981 -91 1556 -91 
Q 1019 -91 701 211 
Q 384 513 384 1019 
Q 384 1609 779 1909 
Q 1175 2209 1959 2209 
L 2766 2209 
L 2766 2266 
Q 2766 2663 2505 2880 
Q 2244 3097 1772 3097 
Q 1472 3097 1187 3025 
Q 903 2953 641 2809 
L 641 3341 
Q 956 3463 1253 3523 
Q 1550 3584 1831 3584 
Q 2591 3584 2966 3190 
Q 3341 2797 3341 1997 
z
" transform="scale(0.015625)"/>
       <path id="DejaVuSans-63" d="M 3122 3366 
L 3122 2828 
Q 2878 2963 2633 3030 
Q 2388 3097 2138 3097 
Q 1578 3097 1268 2742 
Q 959 2388 959 1747 
Q 959 1106 1268 751 
Q 1578 397 2138 397 
Q 2388 397 2633 464 
Q 2878 531 3122 666 
L 3122 134 
Q 2881 22 2623 -34 
Q 2366 -91 2075 -91 
Q 1284 -91 818 406 
Q 353 903 353 1747 
Q 353 2603 823 3093 
Q 1294 3584 2113 3584 
Q 2378 3584 2631 3529 
Q 2884 3475 3122 3366 
z
" transform="scale(0.015625)"/>
       <path id="DejaVuSans-66" d="M 2375 4863 
L 2375 4384 
L 1825 4384 
Q 1516 4384 1395 4259 
Q 1275 4134 1275 3809 
L 1275 3500 
L 2222 3500 
L 2222 3053 
L 1275 3053 
L 1275 0 
L 697 0 
L 697 3053 
L 147 3053 
L 147 3500 
L 697 3500 
L 697 3744 
Q 697 4328 969 4595 
Q 1241 4863 1831 4863 
L 2375 4863 
z
" transform="scale(0.015625)"/>
       <path id="DejaVuSans-72" d="M 2631 2963 
Q 2534 3019 2420 3045 
Q 2306 3072 2169 3072 
Q 1681 3072 1420 2755 
Q 1159 2438 1159 1844 
L 1159 0 
L 581 0 
L 581 3500 
L 1159 3500 
L 1159 2956 
Q 1341 3275 1631 3429 
Q 1922 3584 2338 3584 
Q 2397 3584 2469 3576 
Q 2541 3569 2628 3553 
L 2631 2963 
z
" transform="scale(0.015625)"/>
       <path id="DejaVuSans-65" d="M 3597 1894 
L 3597 1613 
L 953 1613 
Q 991 1019 1311 708 
Q 1631 397 2203 397 
Q 2534 397 2845 478 
Q 3156 559 3463 722 
L 3463 178 
Q 3153 47 2828 -22 
Q 2503 -91 2169 -91 
Q 1331 -91 842 396 
Q 353 884 353 1716 
Q 353 2575 817 3079 
Q 1281 3584 2069 3584 
Q 2775 3584 3186 3129 
Q 3597 2675 3597 1894 
z
M 3022 2063 
Q 3016 2534 2758 2815 
Q 2500 3097 2075 3097 
Q 1594 3097 1305 2825 
Q 1016 2553 972 2059 
L 3022 2063 
z
" transform="scale(0.015625)"/>
       <path id="DejaVuSans-71" d="M 947 1747 
Q 947 1113 1208 752 
Q 1469 391 1925 391 
Q 2381 391 2643 752 
Q 2906 1113 2906 1747 
Q 2906 2381 2643 2742 
Q 2381 3103 1925 3103 
Q 1469 3103 1208 2742 
Q 947 2381 947 1747 
z
M 2906 525 
Q 2725 213 2448 61 
Q 2172 -91 1784 -91 
Q 1150 -91 751 415 
Q 353 922 353 1747 
Q 353 2572 751 3078 
Q 1150 3584 1784 3584 
Q 2172 3584 2448 3432 
Q 2725 3281 2906 2969 
L 2906 3500 
L 3481 3500 
L 3481 -1331 
L 2906 -1331 
L 2906 525 
z
" transform="scale(0.015625)"/>
       <path id="DejaVuSans-75" d="M 544 1381 
L 544 3500 
L 1119 3500 
L 1119 1403 
Q 1119 906 1312 657 
Q 1506 409 1894 409 
Q 2359 409 2629 706 
Q 2900 1003 2900 1516 
L 2900 3500 
L 3475 3500 
L 3475 0 
L 2900 0 
L 2900 538 
Q 2691 219 2414 64 
Q 2138 -91 1772 -91 
Q 1169 -91 856 284 
Q 544 659 544 1381 
z
M 1991 3584 
L 1991 3584 
z
" transform="scale(0.015625)"/>
       <path id="DejaVuSans-79" d="M 2059 -325 
Q 1816 -950 1584 -1140 
Q 1353 -1331 966 -1331 
L 506 -1331 
L 506 -850 
L 844 -850 
Q 1081 -850 1212 -737 
Q 1344 -625 1503 -206 
L 1606 56 
L 191 3500 
L 800 3500 
L 1894 763 
L 2988 3500 
L 3597 3500 
L 2059 -325 
z
" transform="scale(0.015625)"/>
      </defs>
      <use xlink:href="#DejaVuSans-41"/>
      <use xlink:href="#DejaVuSans-6d" x="68.408203"/>
      <use xlink:href="#DejaVuSans-69" x="165.820312"/>
      <use xlink:href="#DejaVuSans-6e" x="193.603516"/>
      <use xlink:href="#DejaVuSans-6f" x="256.982422"/>
      <use xlink:href="#DejaVuSans-20" x="318.164062"/>
      <use xlink:href="#DejaVuSans-61" x="349.951172"/>
      <use xlink:href="#DejaVuSans-63" x="411.230469"/>
      <use xlink:href="#DejaVuSans-69" x="466.210938"/>
      <use xlink:href="#DejaVuSans-64" x="493.994141"/>
      <use xlink:href="#DejaVuSans-20" x="557.470703"/>
      <use xlink:href="#DejaVuSans-66" x="589.257812"/>
      <use xlink:href="#DejaVuSans-72" x="624.462891"/>
      <use xlink:href="#DejaVuSans-65" x="663.326172"/>
      <use xlink:href="#DejaVuSans-71" x="724.849609"/>
      <use xlink:href="#DejaVuSans-75" x="788.326172"/>
      <use xlink:href="#DejaVuSans-65" x="851.705078"/>
      <use xlink:href="#DejaVuSans-6e" x="913.228516"/>
      <use xlink:href="#DejaVuSans-63" x="976.607422"/>
      <use xlink:href="#DejaVuSans-79" x="1031.587891"/>
     </g>
    </g>
   </g>
   <g id="line2d_11">
    <path d="M 68.260633 268.257682 
L 71.92061 266.750605 
L 75.580586 265.243529 
L 79.240562 263.736452 
L 82.900539 262.229375 
L 86.560515 260.722299 
L 90.220491 259.215222 
L 93.880468 257.708146 
L 97.540444 256.201069 
L 101.200421 254.693993 
L 104.860397 253.186916 
L 108.520373 251.67984 
L 112.18035 250.172763 
L 115.840326 248.665687 
L 119.500303 247.15861 
L 123.160279 245.651534 
L 126.820255 244.144457 
L 130.480232 242.637381 
L 134.140208 241.130304 
L 137.800184 239.623228 
L 141.460161 238.116151 
L 145.120137 236.609075 
L 148.780114 235.101998 
L 152.44009 233.594922 
L 156.100066 232.087845 
L 159.760043 230.580769 
L 163.420019 229.073692 
L 167.079996 227.566615 
L 170.739972 226.059539 
L 174.399948 224.552462 
L 178.059925 223.045386 
L 181.719901 221.538309 
L 185.379878 220.031233 
L 189.039854 218.524156 
L 192.69983 217.01708 
L 196.359807 215.510003 
L 200.019783 214.002927 
L 203.679759 212.49585 
L 207.339736 210.988774 
L 210.999712 209.481697 
L 214.659689 207.974621 
L 218.319665 206.467544 
L 221.979641 204.960468 
L 225.639618 203.453391 
L 229.299594 201.946315 
L 232.959571 200.439238 
L 236.619547 198.932162 
L 240.279523 197.425085 
L 243.9395 195.918009 
L 247.599476 194.410932 
L 251.259452 192.903856 
L 254.919429 191.396779 
L 258.579405 189.889702 
L 262.239382 188.382626 
L 265.899358 186.875549 
L 269.559334 185.368473 
L 273.219311 183.861396 
L 276.879287 182.35432 
L 280.539264 180.847243 
L 284.19924 179.340167 
L 287.859216 177.83309 
L 291.519193 176.326014 
L 295.179169 174.818937 
L 298.839146 173.311861 
L 302.499122 171.804784 
L 306.159098 170.297708 
L 309.819075 168.790631 
L 313.479051 167.283555 
L 317.139027 165.776478 
L 320.799004 164.269402 
L 324.45898 162.762325 
L 328.118957 161.255249 
L 331.778933 159.748172 
L 335.438909 158.241096 
L 339.098886 156.734019 
L 342.758862 155.226942 
L 346.418839 153.719866 
L 350.078815 152.212789 
L 353.738791 150.705713 
L 357.398768 149.198636 
L 361.058744 147.69156 
L 364.71872 146.184483 
L 368.378697 144.677407 
L 372.038673 143.17033 
L 375.69865 141.663254 
L 379.358626 140.156177 
L 383.018602 138.649101 
L 386.678579 137.142024 
L 390.338555 135.634948 
L 393.998532 134.127871 
L 397.658508 132.620795 
L 401.318484 131.113718 
L 404.978461 129.606642 
L 408.638437 128.099565 
L 412.298414 126.592489 
L 415.95839 125.085412 
L 419.618366 123.578336 
L 423.278343 122.071259 
L 426.938319 120.564182 
L 430.598295 119.057106 
" clip-path="url(#p1023ef4453)" style="fill: none; stroke: #ffa500; stroke-width: 2.25; stroke-linecap: square"/>
   </g>
   <g id="patch_3">
    <path d="M 50.14375 309.6 
L 50.14375 57.6 
" style="fill: none; stroke: #000000; stroke-width: 0.8; stroke-linejoin: miter; stroke-linecap: square"/>
   </g>
   <g id="patch_4">
    <path d="M 448.715179 309.6 
L 448.715179 57.6 
" style="fill: none; stroke: #000000; stroke-width: 0.8; stroke-linejoin: miter; stroke-linecap: square"/>
   </g>
   <g id="patch_5">
    <path d="M 50.14375 309.6 
L 448.715179 309.6 
" style="fill: none; stroke: #000000; stroke-width: 0.8; stroke-linejoin: miter; stroke-linecap: square"/>
   </g>
   <g id="patch_6">
    <path d="M 50.14375 57.6 
L 448.715179 57.6 
" style="fill: none; stroke: #000000; stroke-width: 0.8; stroke-linejoin: miter; stroke-linecap: square"/>
   </g>
  </g>
  <g id="axes_2">
   <g id="patch_7">
    <path d="M 488.572321 309.6 
L 887.14375 309.6 
L 887.14375 57.6 
L 488.572321 57.6 
z
" style="fill: #ffffff"/>
   </g>
   <g id="PathCollection_2">
    <g clip-path="url(#p59f815aae9)">
     <use xlink:href="#me3811e46ed" x="506.689205" y="268.006348" style="fill: #1f77b4; fill-opacity: 0.8; stroke: #1f77b4; stroke-opacity: 0.8"/>
     <use xlink:href="#me3811e46ed" x="567.078815" y="297.941847" style="fill: #1f77b4; fill-opacity: 0.8; stroke: #1f77b4; stroke-opacity: 0.8"/>
     <use xlink:href="#me3811e46ed" x="567.078815" y="286.391922" style="fill: #1f77b4; fill-opacity: 0.8; stroke: #1f77b4; stroke-opacity: 0.8"/>
     <use xlink:href="#me3811e46ed" x="567.078815" y="210.985008" style="fill: #1f77b4; fill-opacity: 0.8; stroke: #1f77b4; stroke-opacity: 0.8"/>
     <use xlink:href="#me3811e46ed" x="567.078815" y="194.715463" style="fill: #1f77b4; fill-opacity: 0.8; stroke: #1f77b4; stroke-opacity: 0.8"/>
     <use xlink:href="#me3811e46ed" x="567.078815" y="230.545127" style="fill: #1f77b4; fill-opacity: 0.8; stroke: #1f77b4; stroke-opacity: 0.8"/>
     <use xlink:href="#me3811e46ed" x="567.078815" y="275.008775" style="fill: #1f77b4; fill-opacity: 0.8; stroke: #1f77b4; stroke-opacity: 0.8"/>
     <use xlink:href="#me3811e46ed" x="627.468425" y="195.891681" style="fill: #1f77b4; fill-opacity: 0.8; stroke: #1f77b4; stroke-opacity: 0.8"/>
     <use xlink:href="#me3811e46ed" x="567.078815" y="230.729815" style="fill: #1f77b4; fill-opacity: 0.8; stroke: #1f77b4; stroke-opacity: 0.8"/>
     <use xlink:href="#me3811e46ed" x="567.078815" y="240.543598" style="fill: #1f77b4; fill-opacity: 0.8; stroke: #1f77b4; stroke-opacity: 0.8"/>
     <use xlink:href="#me3811e46ed" x="627.468425" y="255.686556" style="fill: #1f77b4; fill-opacity: 0.8; stroke: #1f77b4; stroke-opacity: 0.8"/>
     <use xlink:href="#me3811e46ed" x="627.468425" y="204.199037" style="fill: #1f77b4; fill-opacity: 0.8; stroke: #1f77b4; stroke-opacity: 0.8"/>
     <use xlink:href="#me3811e46ed" x="687.858036" y="149.658847" style="fill: #1f77b4; fill-opacity: 0.8; stroke: #1f77b4; stroke-opacity: 0.8"/>
     <use xlink:href="#me3811e46ed" x="687.858036" y="173.290019" style="fill: #1f77b4; fill-opacity: 0.8; stroke: #1f77b4; stroke-opacity: 0.8"/>
     <use xlink:href="#me3811e46ed" x="687.858036" y="213.352903" style="fill: #1f77b4; fill-opacity: 0.8; stroke: #1f77b4; stroke-opacity: 0.8"/>
     <use xlink:href="#me3811e46ed" x="687.858036" y="198.518892" style="fill: #1f77b4; fill-opacity: 0.8; stroke: #1f77b4; stroke-opacity: 0.8"/>
     <use xlink:href="#me3811e46ed" x="687.858036" y="178.208284" style="fill: #1f77b4; fill-opacity: 0.8; stroke: #1f77b4; stroke-opacity: 0.8"/>
     <use xlink:href="#me3811e46ed" x="808.637256" y="107.788046" style="fill: #1f77b4; fill-opacity: 0.8; stroke: #1f77b4; stroke-opacity: 0.8"/>
     <use xlink:href="#me3811e46ed" x="687.858036" y="213.299853" style="fill: #1f77b4; fill-opacity: 0.8; stroke: #1f77b4; stroke-opacity: 0.8"/>
     <use xlink:href="#me3811e46ed" x="869.026867" y="157.928958" style="fill: #1f77b4; fill-opacity: 0.8; stroke: #1f77b4; stroke-opacity: 0.8"/>
    </g>
   </g>
   <g id="PolyCollection_2">
    <path d="M 506.689205 244.564506 
L 506.689205 298.145455 
L 510.349181 295.771241 
L 514.009157 293.395856 
L 517.669134 291.235862 
L 521.32911 288.939853 
L 524.989086 286.5178 
L 528.649063 284.145194 
L 532.309039 281.943327 
L 535.969016 279.636261 
L 539.628992 277.540704 
L 543.288968 275.675873 
L 546.948945 273.505922 
L 550.608921 271.525822 
L 554.268898 269.515115 
L 557.928874 267.578184 
L 561.58885 265.647066 
L 565.248827 263.485895 
L 568.908803 261.291867 
L 572.56878 259.302038 
L 576.228756 257.429573 
L 579.888732 255.494271 
L 583.548709 253.540439 
L 587.208685 251.423307 
L 590.868661 249.662748 
L 594.528638 247.789861 
L 598.188614 245.868102 
L 601.848591 243.955775 
L 605.508567 242.038822 
L 609.168543 240.424454 
L 612.82852 238.560633 
L 616.488496 236.749588 
L 620.148473 234.878076 
L 623.808449 233.088198 
L 627.468425 231.326425 
L 631.128402 229.866018 
L 634.788378 228.378698 
L 638.448354 226.888415 
L 642.108331 225.277911 
L 645.768307 224.093926 
L 649.428284 222.386094 
L 653.08826 221.177027 
L 656.748236 219.581962 
L 660.408213 218.32761 
L 664.068189 217.106113 
L 667.728166 215.915687 
L 671.388142 214.727083 
L 675.048118 213.280745 
L 678.708095 212.036528 
L 682.368071 210.796146 
L 686.028048 209.557459 
L 689.688024 208.2182 
L 693.348 206.766077 
L 697.007977 205.328633 
L 700.667953 204.028718 
L 704.327929 202.899669 
L 707.987906 201.770621 
L 711.647882 200.641572 
L 715.307859 199.512524 
L 718.967835 198.331234 
L 722.627811 197.032156 
L 726.287788 195.82744 
L 729.947764 194.525958 
L 733.607741 193.414321 
L 737.267717 192.07311 
L 740.927693 190.933902 
L 744.58767 189.917893 
L 748.247646 188.624089 
L 751.907622 187.395662 
L 755.567599 186.315633 
L 759.227575 185.229201 
L 762.887552 184.048313 
L 766.547528 182.967683 
L 770.207504 181.887054 
L 773.867481 180.834436 
L 777.527457 179.945479 
L 781.187434 178.803963 
L 784.84741 177.665444 
L 788.507386 176.580618 
L 792.167363 175.416871 
L 795.827339 174.322647 
L 799.487316 173.242017 
L 803.147292 172.161387 
L 806.807268 171.079412 
L 810.467245 169.942045 
L 814.127221 168.765697 
L 817.787197 167.607269 
L 821.447174 166.71036 
L 825.10715 165.67654 
L 828.767127 164.598678 
L 832.427103 163.605288 
L 836.087079 162.557452 
L 839.747056 161.575293 
L 843.407032 160.593134 
L 847.067009 159.580804 
L 850.726985 158.576187 
L 854.386961 157.642352 
L 858.046938 156.661359 
L 861.706914 155.680366 
L 865.36689 154.697289 
L 869.026867 153.696999 
L 869.026867 69.054545 
L 869.026867 69.054545 
L 865.36689 71.332966 
L 861.706914 73.611387 
L 858.046938 75.889807 
L 854.386961 77.97438 
L 850.726985 80.055172 
L 847.067009 82.135964 
L 843.407032 84.219897 
L 839.747056 86.307501 
L 836.087079 88.395105 
L 832.427103 90.482708 
L 828.767127 92.676537 
L 825.10715 95.003173 
L 821.447174 97.048884 
L 817.787197 99.094594 
L 814.127221 101.140305 
L 810.467245 103.186352 
L 806.807268 105.270794 
L 803.147292 107.561036 
L 799.487316 109.851279 
L 795.827339 112.153618 
L 792.167363 114.458168 
L 788.507386 116.762719 
L 784.84741 119.009959 
L 781.187434 121.174382 
L 777.527457 123.252106 
L 773.867481 125.325978 
L 770.207504 127.396102 
L 766.547528 129.470318 
L 762.887552 131.540545 
L 759.227575 133.621161 
L 755.567599 135.723497 
L 751.907622 138.005086 
L 748.247646 140.368141 
L 744.58767 142.736075 
L 740.927693 145.109193 
L 737.267717 147.237677 
L 733.607741 149.544756 
L 729.947764 151.435055 
L 726.287788 153.525792 
L 722.627811 155.560111 
L 718.967835 157.582242 
L 715.307859 159.512192 
L 711.647882 161.486755 
L 707.987906 163.46661 
L 704.327929 165.441049 
L 700.667953 167.415487 
L 697.007977 169.378378 
L 693.348 171.45188 
L 689.688024 173.893662 
L 686.028048 176.332392 
L 682.368071 178.197843 
L 678.708095 180.044065 
L 675.048118 181.937267 
L 671.388142 183.903944 
L 667.728166 185.591205 
L 664.068189 187.55726 
L 660.408213 189.476471 
L 656.748236 191.183561 
L 653.08826 193.117895 
L 649.428284 194.987897 
L 645.768307 196.642348 
L 642.108331 198.220338 
L 638.448354 199.723646 
L 634.788378 201.245715 
L 631.128402 202.875596 
L 627.468425 204.365163 
L 623.808449 206.02007 
L 620.148473 207.470904 
L 616.488496 208.789706 
L 612.82852 210.435211 
L 609.168543 211.992574 
L 605.508567 213.437196 
L 601.848591 214.829993 
L 598.188614 216.166171 
L 594.528638 217.508448 
L 590.868661 218.746678 
L 587.208685 219.866991 
L 583.548709 220.990454 
L 579.888732 222.165924 
L 576.228756 223.321304 
L 572.56878 224.486187 
L 568.908803 225.563699 
L 565.248827 226.741723 
L 561.58885 227.821529 
L 557.928874 229.001006 
L 554.268898 230.007169 
L 550.608921 231.122917 
L 546.948945 232.23961 
L 543.288968 233.465208 
L 539.628992 234.589748 
L 535.969016 235.775797 
L 532.309039 236.964039 
L 528.649063 238.08151 
L 524.989086 239.089686 
L 521.32911 240.198803 
L 517.669134 241.238646 
L 514.009157 242.320116 
L 510.349181 243.442311 
L 506.689205 244.564506 
z
" clip-path="url(#p59f815aae9)" style="fill: #ffa500; fill-opacity: 0.15"/>
   </g>
   <g id="matplotlib.axis_3">
    <g id="xtick_6">
     <g id="line2d_12">
      <g>
       <use xlink:href="#mbc22ed6913" x="522.390503" y="309.6" style="stroke: #000000; stroke-width: 0.8"/>
      </g>
     </g>
     <g id="text_13">
      <!-- 0.02 -->
      <g transform="translate(511.257691 324.198437) scale(0.1 -0.1)">
       <use xlink:href="#DejaVuSans-30"/>
       <use xlink:href="#DejaVuSans-2e" x="63.623047"/>
       <use xlink:href="#DejaVuSans-30" x="95.410156"/>
       <use xlink:href="#DejaVuSans-32" x="159.033203"/>
      </g>
     </g>
    </g>
    <g id="xtick_7">
     <g id="line2d_13">
      <g>
       <use xlink:href="#mbc22ed6913" x="598.481412" y="309.6" style="stroke: #000000; stroke-width: 0.8"/>
      </g>
     </g>
     <g id="text_14">
      <!-- 0.04 -->
      <g transform="translate(587.3486 324.198437) scale(0.1 -0.1)">
       <use xlink:href="#DejaVuSans-30"/>
       <use xlink:href="#DejaVuSans-2e" x="63.623047"/>
       <use xlink:href="#DejaVuSans-30" x="95.410156"/>
       <use xlink:href="#DejaVuSans-34" x="159.033203"/>
      </g>
     </g>
    </g>
    <g id="xtick_8">
     <g id="line2d_14">
      <g>
       <use xlink:href="#mbc22ed6913" x="674.572321" y="309.6" style="stroke: #000000; stroke-width: 0.8"/>
      </g>
     </g>
     <g id="text_15">
      <!-- 0.06 -->
      <g transform="translate(663.439509 324.198437) scale(0.1 -0.1)">
       <use xlink:href="#DejaVuSans-30"/>
       <use xlink:href="#DejaVuSans-2e" x="63.623047"/>
       <use xlink:href="#DejaVuSans-30" x="95.410156"/>
       <use xlink:href="#DejaVuSans-36" x="159.033203"/>
      </g>
     </g>
    </g>
    <g id="xtick_9">
     <g id="line2d_15">
      <g>
       <use xlink:href="#mbc22ed6913" x="750.663231" y="309.6" style="stroke: #000000; stroke-width: 0.8"/>
      </g>
     </g>
     <g id="text_16">
      <!-- 0.08 -->
      <g transform="translate(739.530418 324.198437) scale(0.1 -0.1)">
       <use xlink:href="#DejaVuSans-30"/>
       <use xlink:href="#DejaVuSans-2e" x="63.623047"/>
       <use xlink:href="#DejaVuSans-30" x="95.410156"/>
       <use xlink:href="#DejaVuSans-38" x="159.033203"/>
      </g>
     </g>
    </g>
    <g id="xtick_10">
     <g id="line2d_16">
      <g>
       <use xlink:href="#mbc22ed6913" x="826.75414" y="309.6" style="stroke: #000000; stroke-width: 0.8"/>
      </g>
     </g>
     <g id="text_17">
      <!-- 0.10 -->
      <g transform="translate(815.621327 324.198437) scale(0.1 -0.1)">
       <use xlink:href="#DejaVuSans-30"/>
       <use xlink:href="#DejaVuSans-2e" x="63.623047"/>
       <use xlink:href="#DejaVuSans-31" x="95.410156"/>
       <use xlink:href="#DejaVuSans-30" x="159.033203"/>
      </g>
     </g>
    </g>
    <g id="text_18">
     <!-- Codon+Cost -->
     <g transform="translate(656.599442 337.876562) scale(0.1 -0.1)">
      <defs>
       <path id="DejaVuSans-2b" d="M 2944 4013 
L 2944 2272 
L 4684 2272 
L 4684 1741 
L 2944 1741 
L 2944 0 
L 2419 0 
L 2419 1741 
L 678 1741 
L 678 2272 
L 2419 2272 
L 2419 4013 
L 2944 4013 
z
" transform="scale(0.015625)"/>
       <path id="DejaVuSans-73" d="M 2834 3397 
L 2834 2853 
Q 2591 2978 2328 3040 
Q 2066 3103 1784 3103 
Q 1356 3103 1142 2972 
Q 928 2841 928 2578 
Q 928 2378 1081 2264 
Q 1234 2150 1697 2047 
L 1894 2003 
Q 2506 1872 2764 1633 
Q 3022 1394 3022 966 
Q 3022 478 2636 193 
Q 2250 -91 1575 -91 
Q 1294 -91 989 -36 
Q 684 19 347 128 
L 347 722 
Q 666 556 975 473 
Q 1284 391 1588 391 
Q 1994 391 2212 530 
Q 2431 669 2431 922 
Q 2431 1156 2273 1281 
Q 2116 1406 1581 1522 
L 1381 1569 
Q 847 1681 609 1914 
Q 372 2147 372 2553 
Q 372 3047 722 3315 
Q 1072 3584 1716 3584 
Q 2034 3584 2315 3537 
Q 2597 3491 2834 3397 
z
" transform="scale(0.015625)"/>
       <path id="DejaVuSans-74" d="M 1172 4494 
L 1172 3500 
L 2356 3500 
L 2356 3053 
L 1172 3053 
L 1172 1153 
Q 1172 725 1289 603 
Q 1406 481 1766 481 
L 2356 481 
L 2356 0 
L 1766 0 
Q 1100 0 847 248 
Q 594 497 594 1153 
L 594 3053 
L 172 3053 
L 172 3500 
L 594 3500 
L 594 4494 
L 1172 4494 
z
" transform="scale(0.015625)"/>
      </defs>
      <use xlink:href="#DejaVuSans-43"/>
      <use xlink:href="#DejaVuSans-6f" x="69.824219"/>
      <use xlink:href="#DejaVuSans-64" x="131.005859"/>
      <use xlink:href="#DejaVuSans-6f" x="194.482422"/>
      <use xlink:href="#DejaVuSans-6e" x="255.664062"/>
      <use xlink:href="#DejaVuSans-2b" x="319.042969"/>
      <use xlink:href="#DejaVuSans-43" x="402.832031"/>
      <use xlink:href="#DejaVuSans-6f" x="472.65625"/>
      <use xlink:href="#DejaVuSans-73" x="533.837891"/>
      <use xlink:href="#DejaVuSans-74" x="585.9375"/>
     </g>
    </g>
   </g>
   <g id="matplotlib.axis_4">
    <g id="ytick_6">
     <g id="line2d_17">
      <g>
       <use xlink:href="#m69b92c95b7" x="488.572321" y="283.284247" style="stroke: #000000; stroke-width: 0.8"/>
      </g>
     </g>
     <g id="text_19">
      <!-- 0.02 -->
      <g transform="translate(459.306696 287.083466) scale(0.1 -0.1)">
       <use xlink:href="#DejaVuSans-30"/>
       <use xlink:href="#DejaVuSans-2e" x="63.623047"/>
       <use xlink:href="#DejaVuSans-30" x="95.410156"/>
       <use xlink:href="#DejaVuSans-32" x="159.033203"/>
      </g>
     </g>
    </g>
    <g id="ytick_7">
     <g id="line2d_18">
      <g>
       <use xlink:href="#m69b92c95b7" x="488.572321" y="237.184448" style="stroke: #000000; stroke-width: 0.8"/>
      </g>
     </g>
     <g id="text_20">
      <!-- 0.04 -->
      <g transform="translate(459.306696 240.983667) scale(0.1 -0.1)">
       <use xlink:href="#DejaVuSans-30"/>
       <use xlink:href="#DejaVuSans-2e" x="63.623047"/>
       <use xlink:href="#DejaVuSans-30" x="95.410156"/>
       <use xlink:href="#DejaVuSans-34" x="159.033203"/>
      </g>
     </g>
    </g>
    <g id="ytick_8">
     <g id="line2d_19">
      <g>
       <use xlink:href="#m69b92c95b7" x="488.572321" y="191.084649" style="stroke: #000000; stroke-width: 0.8"/>
      </g>
     </g>
     <g id="text_21">
      <!-- 0.06 -->
      <g transform="translate(459.306696 194.883868) scale(0.1 -0.1)">
       <use xlink:href="#DejaVuSans-30"/>
       <use xlink:href="#DejaVuSans-2e" x="63.623047"/>
       <use xlink:href="#DejaVuSans-30" x="95.410156"/>
       <use xlink:href="#DejaVuSans-36" x="159.033203"/>
      </g>
     </g>
    </g>
    <g id="ytick_9">
     <g id="line2d_20">
      <g>
       <use xlink:href="#m69b92c95b7" x="488.572321" y="144.98485" style="stroke: #000000; stroke-width: 0.8"/>
      </g>
     </g>
     <g id="text_22">
      <!-- 0.08 -->
      <g transform="translate(459.306696 148.784069) scale(0.1 -0.1)">
       <use xlink:href="#DejaVuSans-30"/>
       <use xlink:href="#DejaVuSans-2e" x="63.623047"/>
       <use xlink:href="#DejaVuSans-30" x="95.410156"/>
       <use xlink:href="#DejaVuSans-38" x="159.033203"/>
      </g>
     </g>
    </g>
    <g id="ytick_10">
     <g id="line2d_21">
      <g>
       <use xlink:href="#m69b92c95b7" x="488.572321" y="98.885051" style="stroke: #000000; stroke-width: 0.8"/>
      </g>
     </g>
     <g id="text_23">
      <!-- 0.10 -->
      <g transform="translate(459.306696 102.68427) scale(0.1 -0.1)">
       <use xlink:href="#DejaVuSans-30"/>
       <use xlink:href="#DejaVuSans-2e" x="63.623047"/>
       <use xlink:href="#DejaVuSans-31" x="95.410156"/>
       <use xlink:href="#DejaVuSans-30" x="159.033203"/>
      </g>
     </g>
    </g>
   </g>
   <g id="line2d_22">
    <path d="M 506.689205 267.890568 
L 510.349181 266.375247 
L 514.009157 264.859926 
L 517.669134 263.344605 
L 521.32911 261.829284 
L 524.989086 260.313962 
L 528.649063 258.798641 
L 532.309039 257.28332 
L 535.969016 255.767999 
L 539.628992 254.252678 
L 543.288968 252.737356 
L 546.948945 251.222035 
L 550.608921 249.706714 
L 554.268898 248.191393 
L 557.928874 246.676072 
L 561.58885 245.16075 
L 565.248827 243.645429 
L 568.908803 242.130108 
L 572.56878 240.614787 
L 576.228756 239.099466 
L 579.888732 237.584144 
L 583.548709 236.068823 
L 587.208685 234.553502 
L 590.868661 233.038181 
L 594.528638 231.52286 
L 598.188614 230.007538 
L 601.848591 228.492217 
L 605.508567 226.976896 
L 609.168543 225.461575 
L 612.82852 223.946254 
L 616.488496 222.430932 
L 620.148473 220.915611 
L 623.808449 219.40029 
L 627.468425 217.884969 
L 631.128402 216.369648 
L 634.788378 214.854326 
L 638.448354 213.339005 
L 642.108331 211.823684 
L 645.768307 210.308363 
L 649.428284 208.793042 
L 653.08826 207.27772 
L 656.748236 205.762399 
L 660.408213 204.247078 
L 664.068189 202.731757 
L 667.728166 201.216436 
L 671.388142 199.701114 
L 675.048118 198.185793 
L 678.708095 196.670472 
L 682.368071 195.155151 
L 686.028048 193.63983 
L 689.688024 192.124509 
L 693.348 190.609187 
L 697.007977 189.093866 
L 700.667953 187.578545 
L 704.327929 186.063224 
L 707.987906 184.547903 
L 711.647882 183.032581 
L 715.307859 181.51726 
L 718.967835 180.001939 
L 722.627811 178.486618 
L 726.287788 176.971297 
L 729.947764 175.455975 
L 733.607741 173.940654 
L 737.267717 172.425333 
L 740.927693 170.910012 
L 744.58767 169.394691 
L 748.247646 167.879369 
L 751.907622 166.364048 
L 755.567599 164.848727 
L 759.227575 163.333406 
L 762.887552 161.818085 
L 766.547528 160.302763 
L 770.207504 158.787442 
L 773.867481 157.272121 
L 777.527457 155.7568 
L 781.187434 154.241479 
L 784.84741 152.726157 
L 788.507386 151.210836 
L 792.167363 149.695515 
L 795.827339 148.180194 
L 799.487316 146.664873 
L 803.147292 145.149551 
L 806.807268 143.63423 
L 810.467245 142.118909 
L 814.127221 140.603588 
L 817.787197 139.088267 
L 821.447174 137.572945 
L 825.10715 136.057624 
L 828.767127 134.542303 
L 832.427103 133.026982 
L 836.087079 131.511661 
L 839.747056 129.996339 
L 843.407032 128.481018 
L 847.067009 126.965697 
L 850.726985 125.450376 
L 854.386961 123.935055 
L 858.046938 122.419733 
L 861.706914 120.904412 
L 865.36689 119.389091 
L 869.026867 117.87377 
" clip-path="url(#p59f815aae9)" style="fill: none; stroke: #ffa500; stroke-width: 2.25; stroke-linecap: square"/>
   </g>
   <g id="patch_8">
    <path d="M 488.572321 309.6 
L 488.572321 57.6 
" style="fill: none; stroke: #000000; stroke-width: 0.8; stroke-linejoin: miter; stroke-linecap: square"/>
   </g>
   <g id="patch_9">
    <path d="M 887.14375 309.6 
L 887.14375 57.6 
" style="fill: none; stroke: #000000; stroke-width: 0.8; stroke-linejoin: miter; stroke-linecap: square"/>
   </g>
   <g id="patch_10">
    <path d="M 488.572321 309.6 
L 887.14375 309.6 
" style="fill: none; stroke: #000000; stroke-width: 0.8; stroke-linejoin: miter; stroke-linecap: square"/>
   </g>
   <g id="patch_11">
    <path d="M 488.572321 57.6 
L 887.14375 57.6 
" style="fill: none; stroke: #000000; stroke-width: 0.8; stroke-linejoin: miter; stroke-linecap: square"/>
   </g>
  </g>
  <g id="axes_3">
   <g id="patch_12">
    <path d="M 50.14375 612 
L 448.715179 612 
L 448.715179 360 
L 50.14375 360 
z
" style="fill: #ffffff"/>
   </g>
   <g id="PathCollection_3">
    <g clip-path="url(#p57de3de00c)">
     <use xlink:href="#me3811e46ed" x="68.260633" y="569.727391" style="fill: #1f77b4; fill-opacity: 0.8; stroke: #1f77b4; stroke-opacity: 0.8"/>
     <use xlink:href="#me3811e46ed" x="128.348723" y="600.545455" style="fill: #1f77b4; fill-opacity: 0.8; stroke: #1f77b4; stroke-opacity: 0.8"/>
     <use xlink:href="#me3811e46ed" x="128.348723" y="588.655012" style="fill: #1f77b4; fill-opacity: 0.8; stroke: #1f77b4; stroke-opacity: 0.8"/>
     <use xlink:href="#me3811e46ed" x="128.348723" y="511.024933" style="fill: #1f77b4; fill-opacity: 0.8; stroke: #1f77b4; stroke-opacity: 0.8"/>
     <use xlink:href="#me3811e46ed" x="128.348723" y="494.275726" style="fill: #1f77b4; fill-opacity: 0.8; stroke: #1f77b4; stroke-opacity: 0.8"/>
     <use xlink:href="#me3811e46ed" x="136.065216" y="531.161729" style="fill: #1f77b4; fill-opacity: 0.8; stroke: #1f77b4; stroke-opacity: 0.8"/>
     <use xlink:href="#me3811e46ed" x="128.348723" y="576.936264" style="fill: #1f77b4; fill-opacity: 0.8; stroke: #1f77b4; stroke-opacity: 0.8"/>
     <use xlink:href="#me3811e46ed" x="196.153305" y="495.486622" style="fill: #1f77b4; fill-opacity: 0.8; stroke: #1f77b4; stroke-opacity: 0.8"/>
     <use xlink:href="#me3811e46ed" x="136.065216" y="531.351861" style="fill: #1f77b4; fill-opacity: 0.8; stroke: #1f77b4; stroke-opacity: 0.8"/>
     <use xlink:href="#me3811e46ed" x="128.348723" y="541.454977" style="fill: #1f77b4; fill-opacity: 0.8; stroke: #1f77b4; stroke-opacity: 0.8"/>
     <use xlink:href="#me3811e46ed" x="203.869798" y="557.044384" style="fill: #1f77b4; fill-opacity: 0.8; stroke: #1f77b4; stroke-opacity: 0.8"/>
     <use xlink:href="#me3811e46ed" x="203.869798" y="504.038896" style="fill: #1f77b4; fill-opacity: 0.8; stroke: #1f77b4; stroke-opacity: 0.8"/>
     <use xlink:href="#me3811e46ed" x="257.291329" y="447.89074" style="fill: #1f77b4; fill-opacity: 0.8; stroke: #1f77b4; stroke-opacity: 0.8"/>
     <use xlink:href="#me3811e46ed" x="257.291329" y="472.218612" style="fill: #1f77b4; fill-opacity: 0.8; stroke: #1f77b4; stroke-opacity: 0.8"/>
     <use xlink:href="#me3811e46ed" x="257.291329" y="513.462639" style="fill: #1f77b4; fill-opacity: 0.8; stroke: #1f77b4; stroke-opacity: 0.8"/>
     <use xlink:href="#me3811e46ed" x="249.127944" y="498.191289" style="fill: #1f77b4; fill-opacity: 0.8; stroke: #1f77b4; stroke-opacity: 0.8"/>
     <use xlink:href="#me3811e46ed" x="249.127944" y="477.281878" style="fill: #1f77b4; fill-opacity: 0.8; stroke: #1f77b4; stroke-opacity: 0.8"/>
     <use xlink:href="#me3811e46ed" x="377.623657" y="404.785494" style="fill: #1f77b4; fill-opacity: 0.8; stroke: #1f77b4; stroke-opacity: 0.8"/>
     <use xlink:href="#me3811e46ed" x="257.291329" y="513.408025" style="fill: #1f77b4; fill-opacity: 0.8; stroke: #1f77b4; stroke-opacity: 0.8"/>
     <use xlink:href="#me3811e46ed" x="430.598295" y="456.404672" style="fill: #1f77b4; fill-opacity: 0.8; stroke: #1f77b4; stroke-opacity: 0.8"/>
    </g>
   </g>
   <g id="PolyCollection_3">
    <path d="M 68.260633 546.687801 
L 68.260633 599.515217 
L 71.92061 597.434127 
L 75.580586 595.046472 
L 79.240562 592.823674 
L 82.900539 590.708504 
L 86.560515 588.611404 
L 90.220491 586.293266 
L 93.880468 583.973772 
L 97.540444 581.726061 
L 101.200421 579.457706 
L 104.860397 577.184903 
L 108.520373 575.068771 
L 112.18035 572.85158 
L 115.840326 570.630302 
L 119.500303 568.355642 
L 123.160279 566.093008 
L 126.820255 564.02159 
L 130.480232 561.945725 
L 134.140208 559.877411 
L 137.800184 557.807967 
L 141.460161 556.025274 
L 145.120137 554.023413 
L 148.780114 552.243822 
L 152.44009 550.641555 
L 156.100066 548.83892 
L 159.760043 546.779851 
L 163.420019 545.337917 
L 167.079996 543.42551 
L 170.739972 541.554991 
L 174.399948 539.783548 
L 178.059925 538.094854 
L 181.719901 536.336428 
L 185.379878 534.614693 
L 189.039854 532.780861 
L 192.69983 531.123805 
L 196.359807 529.601857 
L 200.019783 528.104445 
L 203.679759 526.514073 
L 207.339736 525.022588 
L 210.999712 523.698008 
L 214.659689 522.245131 
L 218.319665 520.757937 
L 221.979641 519.445431 
L 225.639618 518.082867 
L 229.299594 516.730698 
L 232.959571 515.315104 
L 236.619547 514.024402 
L 240.279523 512.664914 
L 243.9395 511.246941 
L 247.599476 510.025358 
L 251.259452 508.686547 
L 254.919429 507.476566 
L 258.579405 506.121531 
L 262.239382 504.909633 
L 265.899358 503.668137 
L 269.559334 502.427188 
L 273.219311 501.179275 
L 276.879287 500.152659 
L 280.539264 499.057281 
L 284.19924 497.824828 
L 287.859216 496.718924 
L 291.519193 495.535288 
L 295.179169 494.445838 
L 298.839146 493.305113 
L 302.499122 492.265099 
L 306.159098 490.852719 
L 309.819075 489.64521 
L 313.479051 488.38893 
L 317.139027 487.500342 
L 320.799004 486.556221 
L 324.45898 485.6331 
L 328.118957 484.343435 
L 331.778933 483.233907 
L 335.438909 482.12438 
L 339.098886 480.961043 
L 342.758862 479.949355 
L 346.418839 478.972813 
L 350.078815 477.762846 
L 353.738791 476.639927 
L 357.398768 475.604891 
L 361.058744 474.56843 
L 364.71872 473.531984 
L 368.378697 472.498073 
L 372.038673 471.42547 
L 375.69865 470.4285 
L 379.358626 469.395389 
L 383.018602 468.322265 
L 386.678579 467.273695 
L 390.338555 466.18157 
L 393.998532 465.077185 
L 397.658508 463.972575 
L 401.318484 462.892732 
L 404.978461 462.04514 
L 408.638437 461.116962 
L 412.298414 460.086007 
L 415.95839 459.05229 
L 419.618366 458.062807 
L 423.278343 457.10901 
L 426.938319 455.951139 
L 430.598295 454.917422 
L 430.598295 371.454545 
L 430.598295 371.454545 
L 426.938319 373.614414 
L 423.278343 375.849195 
L 419.618366 378.094923 
L 415.95839 380.271076 
L 412.298414 382.503484 
L 408.638437 384.735893 
L 404.978461 386.97316 
L 401.318484 389.210569 
L 397.658508 391.447977 
L 393.998532 393.683579 
L 390.338555 395.91599 
L 386.678579 398.152971 
L 383.018602 400.389951 
L 379.358626 402.685762 
L 375.69865 404.925249 
L 372.038673 407.16644 
L 368.378697 409.409956 
L 364.71872 411.564504 
L 361.058744 413.798651 
L 357.398768 416.030245 
L 353.738791 418.077239 
L 350.078815 420.029989 
L 346.418839 422.249324 
L 342.758862 424.674955 
L 339.098886 427.100587 
L 335.438909 429.337198 
L 331.778933 431.319924 
L 328.118957 433.302651 
L 324.45898 435.286044 
L 320.799004 437.274877 
L 317.139027 439.26371 
L 313.479051 441.566559 
L 309.819075 443.79736 
L 306.159098 446.179221 
L 302.499122 448.511177 
L 298.839146 450.914046 
L 295.179169 453.080978 
L 291.519193 455.068806 
L 287.859216 456.980203 
L 284.19924 459.152481 
L 280.539264 461.173899 
L 276.879287 463.032607 
L 273.219311 464.775266 
L 269.559334 466.932408 
L 265.899358 469.110194 
L 262.239382 471.13783 
L 258.579405 472.879979 
L 254.919429 474.979118 
L 251.259452 477.120057 
L 247.599476 478.798577 
L 243.9395 480.478102 
L 240.279523 482.557501 
L 236.619547 484.606502 
L 232.959571 486.216449 
L 229.299594 487.807526 
L 225.639618 489.615026 
L 221.979641 491.303355 
L 218.319665 493.206287 
L 214.659689 494.963304 
L 210.999712 496.648512 
L 207.339736 498.408151 
L 203.679759 500.102797 
L 200.019783 501.808769 
L 196.359807 503.491302 
L 192.69983 505.136717 
L 189.039854 506.569563 
L 185.379878 508.022992 
L 181.719901 509.399338 
L 178.059925 510.744709 
L 174.399948 512.056584 
L 170.739972 513.361411 
L 167.079996 514.92028 
L 163.420019 516.161297 
L 159.760043 517.691631 
L 156.100066 518.831126 
L 152.44009 520.165243 
L 148.780114 521.403459 
L 145.120137 522.578578 
L 141.460161 523.763677 
L 137.800184 525.098381 
L 134.140208 526.261047 
L 130.480232 527.546838 
L 126.820255 528.757526 
L 123.160279 529.929356 
L 119.500303 531.083913 
L 115.840326 532.200113 
L 112.18035 533.442807 
L 108.520373 534.537553 
L 104.860397 535.544287 
L 101.200421 536.660154 
L 97.540444 537.817838 
L 93.880468 538.896021 
L 90.220491 539.967776 
L 86.560515 541.035481 
L 82.900539 542.120816 
L 79.240562 543.346096 
L 75.580586 544.459998 
L 71.92061 545.573899 
L 68.260633 546.687801 
z
" clip-path="url(#p57de3de00c)" style="fill: #ffa500; fill-opacity: 0.15"/>
   </g>
   <g id="matplotlib.axis_5">
    <g id="xtick_11">
     <g id="line2d_23">
      <g>
       <use xlink:href="#mbc22ed6913" x="86.755913" y="612" style="stroke: #000000; stroke-width: 0.8"/>
      </g>
     </g>
     <g id="text_24">
      <!-- 0.02 -->
      <g transform="translate(75.623101 626.598437) scale(0.1 -0.1)">
       <use xlink:href="#DejaVuSans-30"/>
       <use xlink:href="#DejaVuSans-2e" x="63.623047"/>
       <use xlink:href="#DejaVuSans-30" x="95.410156"/>
       <use xlink:href="#DejaVuSans-32" x="159.033203"/>
      </g>
     </g>
    </g>
    <g id="xtick_12">
     <g id="line2d_24">
      <g>
       <use xlink:href="#mbc22ed6913" x="165.942324" y="612" style="stroke: #000000; stroke-width: 0.8"/>
      </g>
     </g>
     <g id="text_25">
      <!-- 0.04 -->
      <g transform="translate(154.809512 626.598437) scale(0.1 -0.1)">
       <use xlink:href="#DejaVuSans-30"/>
       <use xlink:href="#DejaVuSans-2e" x="63.623047"/>
       <use xlink:href="#DejaVuSans-30" x="95.410156"/>
       <use xlink:href="#DejaVuSans-34" x="159.033203"/>
      </g>
     </g>
    </g>
    <g id="xtick_13">
     <g id="line2d_25">
      <g>
       <use xlink:href="#mbc22ed6913" x="245.128735" y="612" style="stroke: #000000; stroke-width: 0.8"/>
      </g>
     </g>
     <g id="text_26">
      <!-- 0.06 -->
      <g transform="translate(233.995923 626.598437) scale(0.1 -0.1)">
       <use xlink:href="#DejaVuSans-30"/>
       <use xlink:href="#DejaVuSans-2e" x="63.623047"/>
       <use xlink:href="#DejaVuSans-30" x="95.410156"/>
       <use xlink:href="#DejaVuSans-36" x="159.033203"/>
      </g>
     </g>
    </g>
    <g id="xtick_14">
     <g id="line2d_26">
      <g>
       <use xlink:href="#mbc22ed6913" x="324.315146" y="612" style="stroke: #000000; stroke-width: 0.8"/>
      </g>
     </g>
     <g id="text_27">
      <!-- 0.08 -->
      <g transform="translate(313.182334 626.598437) scale(0.1 -0.1)">
       <use xlink:href="#DejaVuSans-30"/>
       <use xlink:href="#DejaVuSans-2e" x="63.623047"/>
       <use xlink:href="#DejaVuSans-30" x="95.410156"/>
       <use xlink:href="#DejaVuSans-38" x="159.033203"/>
      </g>
     </g>
    </g>
    <g id="xtick_15">
     <g id="line2d_27">
      <g>
       <use xlink:href="#mbc22ed6913" x="403.501557" y="612" style="stroke: #000000; stroke-width: 0.8"/>
      </g>
     </g>
     <g id="text_28">
      <!-- 0.10 -->
      <g transform="translate(392.368745 626.598437) scale(0.1 -0.1)">
       <use xlink:href="#DejaVuSans-30"/>
       <use xlink:href="#DejaVuSans-2e" x="63.623047"/>
       <use xlink:href="#DejaVuSans-31" x="95.410156"/>
       <use xlink:href="#DejaVuSans-30" x="159.033203"/>
      </g>
     </g>
    </g>
    <g id="text_29">
     <!-- Codon+GC -->
     <g transform="translate(221.920871 640.276562) scale(0.1 -0.1)">
      <defs>
       <path id="DejaVuSans-47" d="M 3809 666 
L 3809 1919 
L 2778 1919 
L 2778 2438 
L 4434 2438 
L 4434 434 
Q 4069 175 3628 42 
Q 3188 -91 2688 -91 
Q 1594 -91 976 548 
Q 359 1188 359 2328 
Q 359 3472 976 4111 
Q 1594 4750 2688 4750 
Q 3144 4750 3555 4637 
Q 3966 4525 4313 4306 
L 4313 3634 
Q 3963 3931 3569 4081 
Q 3175 4231 2741 4231 
Q 1884 4231 1454 3753 
Q 1025 3275 1025 2328 
Q 1025 1384 1454 906 
Q 1884 428 2741 428 
Q 3075 428 3337 486 
Q 3600 544 3809 666 
z
" transform="scale(0.015625)"/>
      </defs>
      <use xlink:href="#DejaVuSans-43"/>
      <use xlink:href="#DejaVuSans-6f" x="69.824219"/>
      <use xlink:href="#DejaVuSans-64" x="131.005859"/>
      <use xlink:href="#DejaVuSans-6f" x="194.482422"/>
      <use xlink:href="#DejaVuSans-6e" x="255.664062"/>
      <use xlink:href="#DejaVuSans-2b" x="319.042969"/>
      <use xlink:href="#DejaVuSans-47" x="402.832031"/>
      <use xlink:href="#DejaVuSans-43" x="480.322266"/>
     </g>
    </g>
   </g>
   <g id="matplotlib.axis_6">
    <g id="ytick_11">
     <g id="line2d_28">
      <g>
       <use xlink:href="#m69b92c95b7" x="50.14375" y="585.455716" style="stroke: #000000; stroke-width: 0.8"/>
      </g>
     </g>
     <g id="text_30">
      <!-- 0.02 -->
      <g transform="translate(20.878125 589.254935) scale(0.1 -0.1)">
       <use xlink:href="#DejaVuSans-30"/>
       <use xlink:href="#DejaVuSans-2e" x="63.623047"/>
       <use xlink:href="#DejaVuSans-30" x="95.410156"/>
       <use xlink:href="#DejaVuSans-32" x="159.033203"/>
      </g>
     </g>
    </g>
    <g id="ytick_12">
     <g id="line2d_29">
      <g>
       <use xlink:href="#m69b92c95b7" x="50.14375" y="537.996792" style="stroke: #000000; stroke-width: 0.8"/>
      </g>
     </g>
     <g id="text_31">
      <!-- 0.04 -->
      <g transform="translate(20.878125 541.796011) scale(0.1 -0.1)">
       <use xlink:href="#DejaVuSans-30"/>
       <use xlink:href="#DejaVuSans-2e" x="63.623047"/>
       <use xlink:href="#DejaVuSans-30" x="95.410156"/>
       <use xlink:href="#DejaVuSans-34" x="159.033203"/>
      </g>
     </g>
    </g>
    <g id="ytick_13">
     <g id="line2d_30">
      <g>
       <use xlink:href="#m69b92c95b7" x="50.14375" y="490.537868" style="stroke: #000000; stroke-width: 0.8"/>
      </g>
     </g>
     <g id="text_32">
      <!-- 0.06 -->
      <g transform="translate(20.878125 494.337086) scale(0.1 -0.1)">
       <use xlink:href="#DejaVuSans-30"/>
       <use xlink:href="#DejaVuSans-2e" x="63.623047"/>
       <use xlink:href="#DejaVuSans-30" x="95.410156"/>
       <use xlink:href="#DejaVuSans-36" x="159.033203"/>
      </g>
     </g>
    </g>
    <g id="ytick_14">
     <g id="line2d_31">
      <g>
       <use xlink:href="#m69b92c95b7" x="50.14375" y="443.078943" style="stroke: #000000; stroke-width: 0.8"/>
      </g>
     </g>
     <g id="text_33">
      <!-- 0.08 -->
      <g transform="translate(20.878125 446.878162) scale(0.1 -0.1)">
       <use xlink:href="#DejaVuSans-30"/>
       <use xlink:href="#DejaVuSans-2e" x="63.623047"/>
       <use xlink:href="#DejaVuSans-30" x="95.410156"/>
       <use xlink:href="#DejaVuSans-38" x="159.033203"/>
      </g>
     </g>
    </g>
    <g id="ytick_15">
     <g id="line2d_32">
      <g>
       <use xlink:href="#m69b92c95b7" x="50.14375" y="395.620019" style="stroke: #000000; stroke-width: 0.8"/>
      </g>
     </g>
     <g id="text_34">
      <!-- 0.10 -->
      <g transform="translate(20.878125 399.419238) scale(0.1 -0.1)">
       <use xlink:href="#DejaVuSans-30"/>
       <use xlink:href="#DejaVuSans-2e" x="63.623047"/>
       <use xlink:href="#DejaVuSans-31" x="95.410156"/>
       <use xlink:href="#DejaVuSans-30" x="159.033203"/>
      </g>
     </g>
    </g>
    <g id="text_35">
     <!-- Amino acid frequency -->
     <g transform="translate(14.798438 540.539062) rotate(-90) scale(0.1 -0.1)">
      <use xlink:href="#DejaVuSans-41"/>
      <use xlink:href="#DejaVuSans-6d" x="68.408203"/>
      <use xlink:href="#DejaVuSans-69" x="165.820312"/>
      <use xlink:href="#DejaVuSans-6e" x="193.603516"/>
      <use xlink:href="#DejaVuSans-6f" x="256.982422"/>
      <use xlink:href="#DejaVuSans-20" x="318.164062"/>
      <use xlink:href="#DejaVuSans-61" x="349.951172"/>
      <use xlink:href="#DejaVuSans-63" x="411.230469"/>
      <use xlink:href="#DejaVuSans-69" x="466.210938"/>
      <use xlink:href="#DejaVuSans-64" x="493.994141"/>
      <use xlink:href="#DejaVuSans-20" x="557.470703"/>
      <use xlink:href="#DejaVuSans-66" x="589.257812"/>
      <use xlink:href="#DejaVuSans-72" x="624.462891"/>
      <use xlink:href="#DejaVuSans-65" x="663.326172"/>
      <use xlink:href="#DejaVuSans-71" x="724.849609"/>
      <use xlink:href="#DejaVuSans-75" x="788.326172"/>
      <use xlink:href="#DejaVuSans-65" x="851.705078"/>
      <use xlink:href="#DejaVuSans-6e" x="913.228516"/>
      <use xlink:href="#DejaVuSans-63" x="976.607422"/>
      <use xlink:href="#DejaVuSans-79" x="1031.587891"/>
     </g>
    </g>
   </g>
   <g id="line2d_33">
    <path d="M 68.260633 571.084587 
L 71.92061 569.535501 
L 75.580586 567.986416 
L 79.240562 566.43733 
L 82.900539 564.888244 
L 86.560515 563.339158 
L 90.220491 561.790072 
L 93.880468 560.240986 
L 97.540444 558.6919 
L 101.200421 557.142814 
L 104.860397 555.593728 
L 108.520373 554.044642 
L 112.18035 552.495556 
L 115.840326 550.94647 
L 119.500303 549.397384 
L 123.160279 547.848299 
L 126.820255 546.299213 
L 130.480232 544.750127 
L 134.140208 543.201041 
L 137.800184 541.651955 
L 141.460161 540.102869 
L 145.120137 538.553783 
L 148.780114 537.004697 
L 152.44009 535.455611 
L 156.100066 533.906525 
L 159.760043 532.357439 
L 163.420019 530.808353 
L 167.079996 529.259267 
L 170.739972 527.710182 
L 174.399948 526.161096 
L 178.059925 524.61201 
L 181.719901 523.062924 
L 185.379878 521.513838 
L 189.039854 519.964752 
L 192.69983 518.415666 
L 196.359807 516.86658 
L 200.019783 515.317494 
L 203.679759 513.768408 
L 207.339736 512.219322 
L 210.999712 510.670236 
L 214.659689 509.12115 
L 218.319665 507.572065 
L 221.979641 506.022979 
L 225.639618 504.473893 
L 229.299594 502.924807 
L 232.959571 501.375721 
L 236.619547 499.826635 
L 240.279523 498.277549 
L 243.9395 496.728463 
L 247.599476 495.179377 
L 251.259452 493.630291 
L 254.919429 492.081205 
L 258.579405 490.532119 
L 262.239382 488.983033 
L 265.899358 487.433948 
L 269.559334 485.884862 
L 273.219311 484.335776 
L 276.879287 482.78669 
L 280.539264 481.237604 
L 284.19924 479.688518 
L 287.859216 478.139432 
L 291.519193 476.590346 
L 295.179169 475.04126 
L 298.839146 473.492174 
L 302.499122 471.943088 
L 306.159098 470.394002 
L 309.819075 468.844916 
L 313.479051 467.295831 
L 317.139027 465.746745 
L 320.799004 464.197659 
L 324.45898 462.648573 
L 328.118957 461.099487 
L 331.778933 459.550401 
L 335.438909 458.001315 
L 339.098886 456.452229 
L 342.758862 454.903143 
L 346.418839 453.354057 
L 350.078815 451.804971 
L 353.738791 450.255885 
L 357.398768 448.706799 
L 361.058744 447.157714 
L 364.71872 445.608628 
L 368.378697 444.059542 
L 372.038673 442.510456 
L 375.69865 440.96137 
L 379.358626 439.412284 
L 383.018602 437.863198 
L 386.678579 436.314112 
L 390.338555 434.765026 
L 393.998532 433.21594 
L 397.658508 431.666854 
L 401.318484 430.117768 
L 404.978461 428.568682 
L 408.638437 427.019597 
L 412.298414 425.470511 
L 415.95839 423.921425 
L 419.618366 422.372339 
L 423.278343 420.823253 
L 426.938319 419.274167 
L 430.598295 417.725081 
" clip-path="url(#p57de3de00c)" style="fill: none; stroke: #ffa500; stroke-width: 2.25; stroke-linecap: square"/>
   </g>
   <g id="patch_13">
    <path d="M 50.14375 612 
L 50.14375 360 
" style="fill: none; stroke: #000000; stroke-width: 0.8; stroke-linejoin: miter; stroke-linecap: square"/>
   </g>
   <g id="patch_14">
    <path d="M 448.715179 612 
L 448.715179 360 
" style="fill: none; stroke: #000000; stroke-width: 0.8; stroke-linejoin: miter; stroke-linecap: square"/>
   </g>
   <g id="patch_15">
    <path d="M 50.14375 612 
L 448.715179 612 
" style="fill: none; stroke: #000000; stroke-width: 0.8; stroke-linejoin: miter; stroke-linecap: square"/>
   </g>
   <g id="patch_16">
    <path d="M 50.14375 360 
L 448.715179 360 
" style="fill: none; stroke: #000000; stroke-width: 0.8; stroke-linejoin: miter; stroke-linecap: square"/>
   </g>
  </g>
  <g id="axes_4">
   <g id="patch_17">
    <path d="M 488.572321 612 
L 887.14375 612 
L 887.14375 360 
L 488.572321 360 
z
" style="fill: #ffffff"/>
   </g>
   <g id="PathCollection_4">
    <g clip-path="url(#pa9ab79e4f9)">
     <use xlink:href="#me3811e46ed" x="506.689205" y="568.225497" style="fill: #1f77b4; fill-opacity: 0.8; stroke: #1f77b4; stroke-opacity: 0.8"/>
     <use xlink:href="#me3811e46ed" x="566.759459" y="598.464844" style="fill: #1f77b4; fill-opacity: 0.8; stroke: #1f77b4; stroke-opacity: 0.8"/>
     <use xlink:href="#me3811e46ed" x="566.759459" y="586.797686" style="fill: #1f77b4; fill-opacity: 0.8; stroke: #1f77b4; stroke-opacity: 0.8"/>
     <use xlink:href="#me3811e46ed" x="566.759459" y="510.625383" style="fill: #1f77b4; fill-opacity: 0.8; stroke: #1f77b4; stroke-opacity: 0.8"/>
     <use xlink:href="#me3811e46ed" x="566.759459" y="494.190701" style="fill: #1f77b4; fill-opacity: 0.8; stroke: #1f77b4; stroke-opacity: 0.8"/>
     <use xlink:href="#me3811e46ed" x="574.55442" y="530.38404" style="fill: #1f77b4; fill-opacity: 0.8; stroke: #1f77b4; stroke-opacity: 0.8"/>
     <use xlink:href="#me3811e46ed" x="566.759459" y="575.298999" style="fill: #1f77b4; fill-opacity: 0.8; stroke: #1f77b4; stroke-opacity: 0.8"/>
     <use xlink:href="#me3811e46ed" x="634.624674" y="495.378858" style="fill: #1f77b4; fill-opacity: 0.8; stroke: #1f77b4; stroke-opacity: 0.8"/>
     <use xlink:href="#me3811e46ed" x="574.55442" y="530.570602" style="fill: #1f77b4; fill-opacity: 0.8; stroke: #1f77b4; stroke-opacity: 0.8"/>
     <use xlink:href="#me3811e46ed" x="566.759459" y="540.483996" style="fill: #1f77b4; fill-opacity: 0.8; stroke: #1f77b4; stroke-opacity: 0.8"/>
     <use xlink:href="#me3811e46ed" x="642.419636" y="555.780658" style="fill: #1f77b4; fill-opacity: 0.8; stroke: #1f77b4; stroke-opacity: 0.8"/>
     <use xlink:href="#me3811e46ed" x="642.419636" y="503.770534" style="fill: #1f77b4; fill-opacity: 0.8; stroke: #1f77b4; stroke-opacity: 0.8"/>
     <use xlink:href="#me3811e46ed" x="695.552819" y="448.676755" style="fill: #1f77b4; fill-opacity: 0.8; stroke: #1f77b4; stroke-opacity: 0.8"/>
     <use xlink:href="#me3811e46ed" x="695.552819" y="472.547786" style="fill: #1f77b4; fill-opacity: 0.8; stroke: #1f77b4; stroke-opacity: 0.8"/>
     <use xlink:href="#me3811e46ed" x="695.552819" y="513.017313" style="fill: #1f77b4; fill-opacity: 0.8; stroke: #1f77b4; stroke-opacity: 0.8"/>
     <use xlink:href="#me3811e46ed" x="687.53868" y="498.032735" style="fill: #1f77b4; fill-opacity: 0.8; stroke: #1f77b4; stroke-opacity: 0.8"/>
     <use xlink:href="#me3811e46ed" x="687.53868" y="477.515972" style="fill: #1f77b4; fill-opacity: 0.8; stroke: #1f77b4; stroke-opacity: 0.8"/>
     <use xlink:href="#me3811e46ed" x="816.112862" y="406.380961" style="fill: #1f77b4; fill-opacity: 0.8; stroke: #1f77b4; stroke-opacity: 0.8"/>
     <use xlink:href="#me3811e46ed" x="695.552819" y="512.963724" style="fill: #1f77b4; fill-opacity: 0.8; stroke: #1f77b4; stroke-opacity: 0.8"/>
     <use xlink:href="#me3811e46ed" x="869.026867" y="457.030808" style="fill: #1f77b4; fill-opacity: 0.8; stroke: #1f77b4; stroke-opacity: 0.8"/>
    </g>
   </g>
   <g id="PolyCollection_4">
    <path d="M 506.689205 545.308349 
L 506.689205 600.545455 
L 510.349181 598.379641 
L 514.009157 596.218341 
L 517.669134 594.064485 
L 521.32911 591.944636 
L 524.989086 589.728632 
L 528.649063 587.493372 
L 532.309039 585.271885 
L 535.969016 583.025671 
L 539.628992 580.808459 
L 543.288968 578.53982 
L 546.948945 576.380777 
L 550.608921 574.159976 
L 554.268898 572.264796 
L 557.928874 570.130711 
L 561.58885 567.993928 
L 565.248827 565.867128 
L 568.908803 563.831838 
L 572.56878 562.090709 
L 576.228756 560.345569 
L 579.888732 558.792349 
L 583.548709 556.618382 
L 587.208685 554.436969 
L 590.868661 552.394631 
L 594.528638 550.186568 
L 598.188614 548.338308 
L 601.848591 545.921036 
L 605.508567 543.687372 
L 609.168543 541.549145 
L 612.82852 539.963927 
L 616.488496 538.484878 
L 620.148473 537.004217 
L 623.808449 535.489564 
L 627.468425 533.571576 
L 631.128402 532.088556 
L 634.788378 530.63102 
L 638.448354 529.134735 
L 642.108331 527.466767 
L 645.768307 525.903936 
L 649.428284 524.450823 
L 653.08826 522.833129 
L 656.748236 521.013812 
L 660.408213 519.498243 
L 664.068189 518.155699 
L 667.728166 516.568495 
L 671.388142 515.264086 
L 675.048118 513.70928 
L 678.708095 512.331807 
L 682.368071 510.913972 
L 686.028048 509.464056 
L 689.688024 508.089152 
L 693.348 506.900405 
L 697.007977 505.675077 
L 700.667953 504.351733 
L 704.327929 503.0239 
L 707.987906 501.707238 
L 711.647882 500.3856 
L 715.307859 499.063337 
L 718.967835 497.854715 
L 722.627811 496.65436 
L 726.287788 495.389636 
L 729.947764 494.244825 
L 733.607741 493.061411 
L 737.267717 491.948554 
L 740.927693 490.798472 
L 744.58767 489.809585 
L 748.247646 488.686781 
L 751.907622 487.572151 
L 755.567599 486.514022 
L 759.227575 485.199334 
L 762.887552 483.997889 
L 766.547528 482.876327 
L 770.207504 481.814492 
L 773.867481 480.759049 
L 777.527457 479.766314 
L 781.187434 478.635212 
L 784.84741 477.444913 
L 788.507386 476.363034 
L 792.167363 475.281612 
L 795.827339 474.255644 
L 799.487316 473.263876 
L 803.147292 472.237266 
L 806.807268 471.285699 
L 810.467245 470.230544 
L 814.127221 469.001287 
L 817.787197 468.02921 
L 821.447174 467.102514 
L 825.10715 466.183189 
L 828.767127 465.254716 
L 832.427103 464.162638 
L 836.087079 463.162348 
L 839.747056 461.975639 
L 843.407032 460.911698 
L 847.067009 459.835022 
L 850.726985 458.713377 
L 854.386961 457.591629 
L 858.046938 456.465919 
L 861.706914 455.340209 
L 865.36689 454.214499 
L 869.026867 453.088789 
L 869.026867 371.454545 
L 869.026867 371.454545 
L 865.36689 373.759346 
L 861.706914 376.066605 
L 858.046938 378.375393 
L 854.386961 380.684181 
L 850.726985 382.992969 
L 847.067009 385.15784 
L 843.407032 387.218737 
L 839.747056 389.286371 
L 836.087079 391.355377 
L 832.427103 393.598586 
L 828.767127 396.01187 
L 825.10715 398.425154 
L 821.447174 400.661541 
L 817.787197 402.8374 
L 814.127221 405.01326 
L 810.467245 407.189119 
L 806.807268 409.364978 
L 803.147292 411.540838 
L 799.487316 413.676115 
L 795.827339 415.872082 
L 792.167363 418.019593 
L 788.507386 420.125224 
L 784.84741 422.313737 
L 781.187434 424.470712 
L 777.527457 426.61819 
L 773.867481 428.765669 
L 770.207504 430.913147 
L 766.547528 433.066202 
L 762.887552 435.222536 
L 759.227575 437.378871 
L 755.567599 439.466557 
L 751.907622 441.538549 
L 748.247646 443.547566 
L 744.58767 445.48044 
L 740.927693 447.576483 
L 737.267717 449.820529 
L 733.607741 451.993412 
L 729.947764 454.079438 
L 726.287788 456.173803 
L 722.627811 458.294622 
L 718.967835 460.301088 
L 715.307859 462.443034 
L 711.647882 464.607354 
L 707.987906 466.62079 
L 704.327929 468.706513 
L 700.667953 470.703191 
L 697.007977 472.886051 
L 693.348 474.811858 
L 689.688024 476.792373 
L 686.028048 478.845557 
L 682.368071 481.040502 
L 678.708095 482.94998 
L 675.048118 485.301275 
L 671.388142 486.948354 
L 667.728166 488.525592 
L 664.068189 490.240869 
L 660.408213 491.967885 
L 656.748236 493.585603 
L 653.08826 495.390348 
L 649.428284 497.005814 
L 645.768307 498.749653 
L 642.108331 500.348944 
L 638.448354 501.776472 
L 634.788378 503.443196 
L 631.128402 505.058961 
L 627.468425 506.700021 
L 623.808449 508.018479 
L 620.148473 509.305695 
L 616.488496 510.612933 
L 612.82852 511.8788 
L 609.168543 513.169332 
L 605.508567 514.578702 
L 601.848591 515.838113 
L 598.188614 517.027525 
L 594.528638 518.309261 
L 590.868661 519.601237 
L 587.208685 520.890351 
L 583.548709 522.066821 
L 579.888732 523.118032 
L 576.228756 524.029198 
L 572.56878 525.024391 
L 568.908803 525.824795 
L 565.248827 526.743823 
L 561.58885 527.853125 
L 557.928874 529.015261 
L 554.268898 530.177397 
L 550.608921 531.339534 
L 546.948945 532.467462 
L 543.288968 533.380293 
L 539.628992 534.641343 
L 535.969016 535.960248 
L 532.309039 537.155231 
L 528.649063 538.322602 
L 524.989086 539.488569 
L 521.32911 540.651724 
L 517.669134 541.813353 
L 514.009157 542.978109 
L 510.349181 544.168984 
L 506.689205 545.308349 
z
" clip-path="url(#pa9ab79e4f9)" style="fill: #ffa500; fill-opacity: 0.15"/>
   </g>
   <g id="matplotlib.axis_7">
    <g id="xtick_16">
     <g id="line2d_34">
      <g>
       <use xlink:href="#mbc22ed6913" x="523.953085" y="612" style="stroke: #000000; stroke-width: 0.8"/>
      </g>
     </g>
     <g id="text_36">
      <!-- 0.02 -->
      <g transform="translate(512.820272 626.598437) scale(0.1 -0.1)">
       <use xlink:href="#DejaVuSans-30"/>
       <use xlink:href="#DejaVuSans-2e" x="63.623047"/>
       <use xlink:href="#DejaVuSans-30" x="95.410156"/>
       <use xlink:href="#DejaVuSans-32" x="159.033203"/>
      </g>
     </g>
    </g>
    <g id="xtick_17">
     <g id="line2d_35">
      <g>
       <use xlink:href="#mbc22ed6913" x="601.925932" y="612" style="stroke: #000000; stroke-width: 0.8"/>
      </g>
     </g>
     <g id="text_37">
      <!-- 0.04 -->
      <g transform="translate(590.793119 626.598437) scale(0.1 -0.1)">
       <use xlink:href="#DejaVuSans-30"/>
       <use xlink:href="#DejaVuSans-2e" x="63.623047"/>
       <use xlink:href="#DejaVuSans-30" x="95.410156"/>
       <use xlink:href="#DejaVuSans-34" x="159.033203"/>
      </g>
     </g>
    </g>
    <g id="xtick_18">
     <g id="line2d_36">
      <g>
       <use xlink:href="#mbc22ed6913" x="679.898779" y="612" style="stroke: #000000; stroke-width: 0.8"/>
      </g>
     </g>
     <g id="text_38">
      <!-- 0.06 -->
      <g transform="translate(668.765966 626.598437) scale(0.1 -0.1)">
       <use xlink:href="#DejaVuSans-30"/>
       <use xlink:href="#DejaVuSans-2e" x="63.623047"/>
       <use xlink:href="#DejaVuSans-30" x="95.410156"/>
       <use xlink:href="#DejaVuSans-36" x="159.033203"/>
      </g>
     </g>
    </g>
    <g id="xtick_19">
     <g id="line2d_37">
      <g>
       <use xlink:href="#mbc22ed6913" x="757.871626" y="612" style="stroke: #000000; stroke-width: 0.8"/>
      </g>
     </g>
     <g id="text_39">
      <!-- 0.08 -->
      <g transform="translate(746.738813 626.598437) scale(0.1 -0.1)">
       <use xlink:href="#DejaVuSans-30"/>
       <use xlink:href="#DejaVuSans-2e" x="63.623047"/>
       <use xlink:href="#DejaVuSans-30" x="95.410156"/>
       <use xlink:href="#DejaVuSans-38" x="159.033203"/>
      </g>
     </g>
    </g>
    <g id="xtick_20">
     <g id="line2d_38">
      <g>
       <use xlink:href="#mbc22ed6913" x="835.844473" y="612" style="stroke: #000000; stroke-width: 0.8"/>
      </g>
     </g>
     <g id="text_40">
      <!-- 0.10 -->
      <g transform="translate(824.71166 626.598437) scale(0.1 -0.1)">
       <use xlink:href="#DejaVuSans-30"/>
       <use xlink:href="#DejaVuSans-2e" x="63.623047"/>
       <use xlink:href="#DejaVuSans-31" x="95.410156"/>
       <use xlink:href="#DejaVuSans-30" x="159.033203"/>
      </g>
     </g>
    </g>
    <g id="text_41">
     <!-- Codon+GC+Cost -->
     <g transform="translate(645.043973 640.276562) scale(0.1 -0.1)">
      <use xlink:href="#DejaVuSans-43"/>
      <use xlink:href="#DejaVuSans-6f" x="69.824219"/>
      <use xlink:href="#DejaVuSans-64" x="131.005859"/>
      <use xlink:href="#DejaVuSans-6f" x="194.482422"/>
      <use xlink:href="#DejaVuSans-6e" x="255.664062"/>
      <use xlink:href="#DejaVuSans-2b" x="319.042969"/>
      <use xlink:href="#DejaVuSans-47" x="402.832031"/>
      <use xlink:href="#DejaVuSans-43" x="480.322266"/>
      <use xlink:href="#DejaVuSans-2b" x="550.146484"/>
      <use xlink:href="#DejaVuSans-43" x="633.935547"/>
      <use xlink:href="#DejaVuSans-6f" x="703.759766"/>
      <use xlink:href="#DejaVuSans-73" x="764.941406"/>
      <use xlink:href="#DejaVuSans-74" x="817.041016"/>
     </g>
    </g>
   </g>
   <g id="matplotlib.axis_8">
    <g id="ytick_16">
     <g id="line2d_39">
      <g>
       <use xlink:href="#m69b92c95b7" x="488.572321" y="583.658469" style="stroke: #000000; stroke-width: 0.8"/>
      </g>
     </g>
     <g id="text_42">
      <!-- 0.02 -->
      <g transform="translate(459.306696 587.457687) scale(0.1 -0.1)">
       <use xlink:href="#DejaVuSans-30"/>
       <use xlink:href="#DejaVuSans-2e" x="63.623047"/>
       <use xlink:href="#DejaVuSans-30" x="95.410156"/>
       <use xlink:href="#DejaVuSans-32" x="159.033203"/>
      </g>
     </g>
    </g>
    <g id="ytick_17">
     <g id="line2d_40">
      <g>
       <use xlink:href="#m69b92c95b7" x="488.572321" y="537.090751" style="stroke: #000000; stroke-width: 0.8"/>
      </g>
     </g>
     <g id="text_43">
      <!-- 0.04 -->
      <g transform="translate(459.306696 540.88997) scale(0.1 -0.1)">
       <use xlink:href="#DejaVuSans-30"/>
       <use xlink:href="#DejaVuSans-2e" x="63.623047"/>
       <use xlink:href="#DejaVuSans-30" x="95.410156"/>
       <use xlink:href="#DejaVuSans-34" x="159.033203"/>
      </g>
     </g>
    </g>
    <g id="ytick_18">
     <g id="line2d_41">
      <g>
       <use xlink:href="#m69b92c95b7" x="488.572321" y="490.523034" style="stroke: #000000; stroke-width: 0.8"/>
      </g>
     </g>
     <g id="text_44">
      <!-- 0.06 -->
      <g transform="translate(459.306696 494.322253) scale(0.1 -0.1)">
       <use xlink:href="#DejaVuSans-30"/>
       <use xlink:href="#DejaVuSans-2e" x="63.623047"/>
       <use xlink:href="#DejaVuSans-30" x="95.410156"/>
       <use xlink:href="#DejaVuSans-36" x="159.033203"/>
      </g>
     </g>
    </g>
    <g id="ytick_19">
     <g id="line2d_42">
      <g>
       <use xlink:href="#m69b92c95b7" x="488.572321" y="443.955317" style="stroke: #000000; stroke-width: 0.8"/>
      </g>
     </g>
     <g id="text_45">
      <!-- 0.08 -->
      <g transform="translate(459.306696 447.754535) scale(0.1 -0.1)">
       <use xlink:href="#DejaVuSans-30"/>
       <use xlink:href="#DejaVuSans-2e" x="63.623047"/>
       <use xlink:href="#DejaVuSans-30" x="95.410156"/>
       <use xlink:href="#DejaVuSans-38" x="159.033203"/>
      </g>
     </g>
    </g>
    <g id="ytick_20">
     <g id="line2d_43">
      <g>
       <use xlink:href="#m69b92c95b7" x="488.572321" y="397.387599" style="stroke: #000000; stroke-width: 0.8"/>
      </g>
     </g>
     <g id="text_46">
      <!-- 0.10 -->
      <g transform="translate(459.306696 401.186818) scale(0.1 -0.1)">
       <use xlink:href="#DejaVuSans-30"/>
       <use xlink:href="#DejaVuSans-2e" x="63.623047"/>
       <use xlink:href="#DejaVuSans-31" x="95.410156"/>
       <use xlink:href="#DejaVuSans-30" x="159.033203"/>
      </g>
     </g>
    </g>
   </g>
   <g id="line2d_44">
    <path d="M 506.689205 569.557988 
L 510.349181 568.037775 
L 514.009157 566.517563 
L 517.669134 564.997351 
L 521.32911 563.477138 
L 524.989086 561.956926 
L 528.649063 560.436714 
L 532.309039 558.916501 
L 535.969016 557.396289 
L 539.628992 555.876077 
L 543.288968 554.355864 
L 546.948945 552.835652 
L 550.608921 551.315439 
L 554.268898 549.795227 
L 557.928874 548.275015 
L 561.58885 546.754802 
L 565.248827 545.23459 
L 568.908803 543.714378 
L 572.56878 542.194165 
L 576.228756 540.673953 
L 579.888732 539.153741 
L 583.548709 537.633528 
L 587.208685 536.113316 
L 590.868661 534.593104 
L 594.528638 533.072891 
L 598.188614 531.552679 
L 601.848591 530.032467 
L 605.508567 528.512254 
L 609.168543 526.992042 
L 612.82852 525.47183 
L 616.488496 523.951617 
L 620.148473 522.431405 
L 623.808449 520.911192 
L 627.468425 519.39098 
L 631.128402 517.870768 
L 634.788378 516.350555 
L 638.448354 514.830343 
L 642.108331 513.310131 
L 645.768307 511.789918 
L 649.428284 510.269706 
L 653.08826 508.749494 
L 656.748236 507.229281 
L 660.408213 505.709069 
L 664.068189 504.188857 
L 667.728166 502.668644 
L 671.388142 501.148432 
L 675.048118 499.62822 
L 678.708095 498.108007 
L 682.368071 496.587795 
L 686.028048 495.067583 
L 689.688024 493.54737 
L 693.348 492.027158 
L 697.007977 490.506945 
L 700.667953 488.986733 
L 704.327929 487.466521 
L 707.987906 485.946308 
L 711.647882 484.426096 
L 715.307859 482.905884 
L 718.967835 481.385671 
L 722.627811 479.865459 
L 726.287788 478.345247 
L 729.947764 476.825034 
L 733.607741 475.304822 
L 737.267717 473.78461 
L 740.927693 472.264397 
L 744.58767 470.744185 
L 748.247646 469.223973 
L 751.907622 467.70376 
L 755.567599 466.183548 
L 759.227575 464.663336 
L 762.887552 463.143123 
L 766.547528 461.622911 
L 770.207504 460.102698 
L 773.867481 458.582486 
L 777.527457 457.062274 
L 781.187434 455.542061 
L 784.84741 454.021849 
L 788.507386 452.501637 
L 792.167363 450.981424 
L 795.827339 449.461212 
L 799.487316 447.941 
L 803.147292 446.420787 
L 806.807268 444.900575 
L 810.467245 443.380363 
L 814.127221 441.86015 
L 817.787197 440.339938 
L 821.447174 438.819726 
L 825.10715 437.299513 
L 828.767127 435.779301 
L 832.427103 434.259089 
L 836.087079 432.738876 
L 839.747056 431.218664 
L 843.407032 429.698451 
L 847.067009 428.178239 
L 850.726985 426.658027 
L 854.386961 425.137814 
L 858.046938 423.617602 
L 861.706914 422.09739 
L 865.36689 420.577177 
L 869.026867 419.056965 
" clip-path="url(#pa9ab79e4f9)" style="fill: none; stroke: #ffa500; stroke-width: 2.25; stroke-linecap: square"/>
   </g>
   <g id="patch_18">
    <path d="M 488.572321 612 
L 488.572321 360 
" style="fill: none; stroke: #000000; stroke-width: 0.8; stroke-linejoin: miter; stroke-linecap: square"/>
   </g>
   <g id="patch_19">
    <path d="M 887.14375 612 
L 887.14375 360 
" style="fill: none; stroke: #000000; stroke-width: 0.8; stroke-linejoin: miter; stroke-linecap: square"/>
   </g>
   <g id="patch_20">
    <path d="M 488.572321 612 
L 887.14375 612 
" style="fill: none; stroke: #000000; stroke-width: 0.8; stroke-linejoin: miter; stroke-linecap: square"/>
   </g>
   <g id="patch_21">
    <path d="M 488.572321 360 
L 887.14375 360 
" style="fill: none; stroke: #000000; stroke-width: 0.8; stroke-linejoin: miter; stroke-linecap: square"/>
   </g>
  </g>
  <g id="text_47">
   <!-- Eukaryota - Comparison between amino acid and factor frequencies for genetic code: Cephalodiscidae -->
   <g transform="translate(69.405859 18.597656) scale(0.15 -0.15)">
    <defs>
     <path id="DejaVuSans-45" d="M 628 4666 
L 3578 4666 
L 3578 4134 
L 1259 4134 
L 1259 2753 
L 3481 2753 
L 3481 2222 
L 1259 2222 
L 1259 531 
L 3634 531 
L 3634 0 
L 628 0 
L 628 4666 
z
" transform="scale(0.015625)"/>
     <path id="DejaVuSans-6b" d="M 581 4863 
L 1159 4863 
L 1159 1991 
L 2875 3500 
L 3609 3500 
L 1753 1863 
L 3688 0 
L 2938 0 
L 1159 1709 
L 1159 0 
L 581 0 
L 581 4863 
z
" transform="scale(0.015625)"/>
     <path id="DejaVuSans-2d" d="M 313 2009 
L 1997 2009 
L 1997 1497 
L 313 1497 
L 313 2009 
z
" transform="scale(0.015625)"/>
     <path id="DejaVuSans-70" d="M 1159 525 
L 1159 -1331 
L 581 -1331 
L 581 3500 
L 1159 3500 
L 1159 2969 
Q 1341 3281 1617 3432 
Q 1894 3584 2278 3584 
Q 2916 3584 3314 3078 
Q 3713 2572 3713 1747 
Q 3713 922 3314 415 
Q 2916 -91 2278 -91 
Q 1894 -91 1617 61 
Q 1341 213 1159 525 
z
M 3116 1747 
Q 3116 2381 2855 2742 
Q 2594 3103 2138 3103 
Q 1681 3103 1420 2742 
Q 1159 2381 1159 1747 
Q 1159 1113 1420 752 
Q 1681 391 2138 391 
Q 2594 391 2855 752 
Q 3116 1113 3116 1747 
z
" transform="scale(0.015625)"/>
     <path id="DejaVuSans-62" d="M 3116 1747 
Q 3116 2381 2855 2742 
Q 2594 3103 2138 3103 
Q 1681 3103 1420 2742 
Q 1159 2381 1159 1747 
Q 1159 1113 1420 752 
Q 1681 391 2138 391 
Q 2594 391 2855 752 
Q 3116 1113 3116 1747 
z
M 1159 2969 
Q 1341 3281 1617 3432 
Q 1894 3584 2278 3584 
Q 2916 3584 3314 3078 
Q 3713 2572 3713 1747 
Q 3713 922 3314 415 
Q 2916 -91 2278 -91 
Q 1894 -91 1617 61 
Q 1341 213 1159 525 
L 1159 0 
L 581 0 
L 581 4863 
L 1159 4863 
L 1159 2969 
z
" transform="scale(0.015625)"/>
     <path id="DejaVuSans-77" d="M 269 3500 
L 844 3500 
L 1563 769 
L 2278 3500 
L 2956 3500 
L 3675 769 
L 4391 3500 
L 4966 3500 
L 4050 0 
L 3372 0 
L 2619 2869 
L 1863 0 
L 1184 0 
L 269 3500 
z
" transform="scale(0.015625)"/>
     <path id="DejaVuSans-67" d="M 2906 1791 
Q 2906 2416 2648 2759 
Q 2391 3103 1925 3103 
Q 1463 3103 1205 2759 
Q 947 2416 947 1791 
Q 947 1169 1205 825 
Q 1463 481 1925 481 
Q 2391 481 2648 825 
Q 2906 1169 2906 1791 
z
M 3481 434 
Q 3481 -459 3084 -895 
Q 2688 -1331 1869 -1331 
Q 1566 -1331 1297 -1286 
Q 1028 -1241 775 -1147 
L 775 -588 
Q 1028 -725 1275 -790 
Q 1522 -856 1778 -856 
Q 2344 -856 2625 -561 
Q 2906 -266 2906 331 
L 2906 616 
Q 2728 306 2450 153 
Q 2172 0 1784 0 
Q 1141 0 747 490 
Q 353 981 353 1791 
Q 353 2603 747 3093 
Q 1141 3584 1784 3584 
Q 2172 3584 2450 3431 
Q 2728 3278 2906 2969 
L 2906 3500 
L 3481 3500 
L 3481 434 
z
" transform="scale(0.015625)"/>
     <path id="DejaVuSans-3a" d="M 750 794 
L 1409 794 
L 1409 0 
L 750 0 
L 750 794 
z
M 750 3309 
L 1409 3309 
L 1409 2516 
L 750 2516 
L 750 3309 
z
" transform="scale(0.015625)"/>
     <path id="DejaVuSans-68" d="M 3513 2113 
L 3513 0 
L 2938 0 
L 2938 2094 
Q 2938 2591 2744 2837 
Q 2550 3084 2163 3084 
Q 1697 3084 1428 2787 
Q 1159 2491 1159 1978 
L 1159 0 
L 581 0 
L 581 4863 
L 1159 4863 
L 1159 2956 
Q 1366 3272 1645 3428 
Q 1925 3584 2291 3584 
Q 2894 3584 3203 3211 
Q 3513 2838 3513 2113 
z
" transform="scale(0.015625)"/>
     <path id="DejaVuSans-6c" d="M 603 4863 
L 1178 4863 
L 1178 0 
L 603 0 
L 603 4863 
z
" transform="scale(0.015625)"/>
    </defs>
    <use xlink:href="#DejaVuSans-45"/>
    <use xlink:href="#DejaVuSans-75" x="63.183594"/>
    <use xlink:href="#DejaVuSans-6b" x="126.5625"/>
    <use xlink:href="#DejaVuSans-61" x="182.722656"/>
    <use xlink:href="#DejaVuSans-72" x="244.001953"/>
    <use xlink:href="#DejaVuSans-79" x="285.115234"/>
    <use xlink:href="#DejaVuSans-6f" x="344.294922"/>
    <use xlink:href="#DejaVuSans-74" x="405.476562"/>
    <use xlink:href="#DejaVuSans-61" x="444.685547"/>
    <use xlink:href="#DejaVuSans-20" x="505.964844"/>
    <use xlink:href="#DejaVuSans-2d" x="537.751953"/>
    <use xlink:href="#DejaVuSans-20" x="573.835938"/>
    <use xlink:href="#DejaVuSans-43" x="605.623047"/>
    <use xlink:href="#DejaVuSans-6f" x="675.447266"/>
    <use xlink:href="#DejaVuSans-6d" x="736.628906"/>
    <use xlink:href="#DejaVuSans-70" x="834.041016"/>
    <use xlink:href="#DejaVuSans-61" x="897.517578"/>
    <use xlink:href="#DejaVuSans-72" x="958.796875"/>
    <use xlink:href="#DejaVuSans-69" x="999.910156"/>
    <use xlink:href="#DejaVuSans-73" x="1027.693359"/>
    <use xlink:href="#DejaVuSans-6f" x="1079.792969"/>
    <use xlink:href="#DejaVuSans-6e" x="1140.974609"/>
    <use xlink:href="#DejaVuSans-20" x="1204.353516"/>
    <use xlink:href="#DejaVuSans-62" x="1236.140625"/>
    <use xlink:href="#DejaVuSans-65" x="1299.617188"/>
    <use xlink:href="#DejaVuSans-74" x="1361.140625"/>
    <use xlink:href="#DejaVuSans-77" x="1400.349609"/>
    <use xlink:href="#DejaVuSans-65" x="1482.136719"/>
    <use xlink:href="#DejaVuSans-65" x="1543.660156"/>
    <use xlink:href="#DejaVuSans-6e" x="1605.183594"/>
    <use xlink:href="#DejaVuSans-20" x="1668.5625"/>
    <use xlink:href="#DejaVuSans-61" x="1700.349609"/>
    <use xlink:href="#DejaVuSans-6d" x="1761.628906"/>
    <use xlink:href="#DejaVuSans-69" x="1859.041016"/>
    <use xlink:href="#DejaVuSans-6e" x="1886.824219"/>
    <use xlink:href="#DejaVuSans-6f" x="1950.203125"/>
    <use xlink:href="#DejaVuSans-20" x="2011.384766"/>
    <use xlink:href="#DejaVuSans-61" x="2043.171875"/>
    <use xlink:href="#DejaVuSans-63" x="2104.451172"/>
    <use xlink:href="#DejaVuSans-69" x="2159.431641"/>
    <use xlink:href="#DejaVuSans-64" x="2187.214844"/>
    <use xlink:href="#DejaVuSans-20" x="2250.691406"/>
    <use xlink:href="#DejaVuSans-61" x="2282.478516"/>
    <use xlink:href="#DejaVuSans-6e" x="2343.757812"/>
    <use xlink:href="#DejaVuSans-64" x="2407.136719"/>
    <use xlink:href="#DejaVuSans-20" x="2470.613281"/>
    <use xlink:href="#DejaVuSans-66" x="2502.400391"/>
    <use xlink:href="#DejaVuSans-61" x="2537.605469"/>
    <use xlink:href="#DejaVuSans-63" x="2598.884766"/>
    <use xlink:href="#DejaVuSans-74" x="2653.865234"/>
    <use xlink:href="#DejaVuSans-6f" x="2693.074219"/>
    <use xlink:href="#DejaVuSans-72" x="2754.255859"/>
    <use xlink:href="#DejaVuSans-20" x="2795.369141"/>
    <use xlink:href="#DejaVuSans-66" x="2827.15625"/>
    <use xlink:href="#DejaVuSans-72" x="2862.361328"/>
    <use xlink:href="#DejaVuSans-65" x="2901.224609"/>
    <use xlink:href="#DejaVuSans-71" x="2962.748047"/>
    <use xlink:href="#DejaVuSans-75" x="3026.224609"/>
    <use xlink:href="#DejaVuSans-65" x="3089.603516"/>
    <use xlink:href="#DejaVuSans-6e" x="3151.126953"/>
    <use xlink:href="#DejaVuSans-63" x="3214.505859"/>
    <use xlink:href="#DejaVuSans-69" x="3269.486328"/>
    <use xlink:href="#DejaVuSans-65" x="3297.269531"/>
    <use xlink:href="#DejaVuSans-73" x="3358.792969"/>
    <use xlink:href="#DejaVuSans-20" x="3410.892578"/>
    <use xlink:href="#DejaVuSans-66" x="3442.679688"/>
    <use xlink:href="#DejaVuSans-6f" x="3477.884766"/>
    <use xlink:href="#DejaVuSans-72" x="3539.066406"/>
    <use xlink:href="#DejaVuSans-20" x="3580.179688"/>
    <use xlink:href="#DejaVuSans-67" x="3611.966797"/>
    <use xlink:href="#DejaVuSans-65" x="3675.443359"/>
    <use xlink:href="#DejaVuSans-6e" x="3736.966797"/>
    <use xlink:href="#DejaVuSans-65" x="3800.345703"/>
    <use xlink:href="#DejaVuSans-74" x="3861.869141"/>
    <use xlink:href="#DejaVuSans-69" x="3901.078125"/>
    <use xlink:href="#DejaVuSans-63" x="3928.861328"/>
    <use xlink:href="#DejaVuSans-20" x="3983.841797"/>
    <use xlink:href="#DejaVuSans-63" x="4015.628906"/>
    <use xlink:href="#DejaVuSans-6f" x="4070.609375"/>
    <use xlink:href="#DejaVuSans-64" x="4131.791016"/>
    <use xlink:href="#DejaVuSans-65" x="4195.267578"/>
    <use xlink:href="#DejaVuSans-3a" x="4256.791016"/>
    <use xlink:href="#DejaVuSans-20" x="4290.482422"/>
    <use xlink:href="#DejaVuSans-43" x="4322.269531"/>
    <use xlink:href="#DejaVuSans-65" x="4392.09375"/>
    <use xlink:href="#DejaVuSans-70" x="4453.617188"/>
    <use xlink:href="#DejaVuSans-68" x="4517.09375"/>
    <use xlink:href="#DejaVuSans-61" x="4580.472656"/>
    <use xlink:href="#DejaVuSans-6c" x="4641.751953"/>
    <use xlink:href="#DejaVuSans-6f" x="4669.535156"/>
    <use xlink:href="#DejaVuSans-64" x="4730.716797"/>
    <use xlink:href="#DejaVuSans-69" x="4794.193359"/>
    <use xlink:href="#DejaVuSans-73" x="4821.976562"/>
    <use xlink:href="#DejaVuSans-63" x="4874.076172"/>
    <use xlink:href="#DejaVuSans-69" x="4929.056641"/>
    <use xlink:href="#DejaVuSans-64" x="4956.839844"/>
    <use xlink:href="#DejaVuSans-61" x="5020.316406"/>
    <use xlink:href="#DejaVuSans-65" x="5081.595703"/>
   </g>
   <!-- mitochondrial uaa-tyr -->
   <g transform="translate(373.901172 35.394375) scale(0.15 -0.15)">
    <use xlink:href="#DejaVuSans-6d"/>
    <use xlink:href="#DejaVuSans-69" x="97.412109"/>
    <use xlink:href="#DejaVuSans-74" x="125.195312"/>
    <use xlink:href="#DejaVuSans-6f" x="164.404297"/>
    <use xlink:href="#DejaVuSans-63" x="225.585938"/>
    <use xlink:href="#DejaVuSans-68" x="280.566406"/>
    <use xlink:href="#DejaVuSans-6f" x="343.945312"/>
    <use xlink:href="#DejaVuSans-6e" x="405.126953"/>
    <use xlink:href="#DejaVuSans-64" x="468.505859"/>
    <use xlink:href="#DejaVuSans-72" x="531.982422"/>
    <use xlink:href="#DejaVuSans-69" x="573.095703"/>
    <use xlink:href="#DejaVuSans-61" x="600.878906"/>
    <use xlink:href="#DejaVuSans-6c" x="662.158203"/>
    <use xlink:href="#DejaVuSans-20" x="689.941406"/>
    <use xlink:href="#DejaVuSans-75" x="721.728516"/>
    <use xlink:href="#DejaVuSans-61" x="785.107422"/>
    <use xlink:href="#DejaVuSans-61" x="846.386719"/>
    <use xlink:href="#DejaVuSans-2d" x="907.666016"/>
    <use xlink:href="#DejaVuSans-74" x="943.75"/>
    <use xlink:href="#DejaVuSans-79" x="982.958984"/>
    <use xlink:href="#DejaVuSans-72" x="1042.138672"/>
   </g>
  </g>
 </g>
 <defs>
  <clipPath id="p1023ef4453">
   <rect x="50.14375" y="57.6" width="398.571429" height="252"/>
  </clipPath>
  <clipPath id="p59f815aae9">
   <rect x="488.572321" y="57.6" width="398.571429" height="252"/>
  </clipPath>
  <clipPath id="p57de3de00c">
   <rect x="50.14375" y="360" width="398.571429" height="252"/>
  </clipPath>
  <clipPath id="pa9ab79e4f9">
   <rect x="488.572321" y="360" width="398.571429" height="252"/>
  </clipPath>
 </defs>
</svg>
