<?xml version="1.0" encoding="utf-8" standalone="no"?>
<!DOCTYPE svg PUBLIC "-//W3C//DTD SVG 1.1//EN"
  "http://www.w3.org/Graphics/SVG/1.1/DTD/svg11.dtd">
<svg xmlns:xlink="http://www.w3.org/1999/xlink" width="984.45625pt" height="680.422917pt" viewBox="0 0 984.45625 680.422917" xmlns="http://www.w3.org/2000/svg" version="1.1">
 <metadata>
  <rdf:RDF xmlns:dc="http://purl.org/dc/elements/1.1/" xmlns:cc="http://creativecommons.org/ns#" xmlns:rdf="http://www.w3.org/1999/02/22-rdf-syntax-ns#">
   <cc:Work>
    <dc:type rdf:resource="http://purl.org/dc/dcmitype/StillImage"/>
    <dc:date>2025-02-13T12:44:41.315011</dc:date>
    <dc:format>image/svg+xml</dc:format>
    <dc:creator>
     <cc:Agent>
      <dc:title>Matplotlib v3.6.3, https://matplotlib.org/</dc:title>
     </cc:Agent>
    </dc:creator>
   </cc:Work>
  </rdf:RDF>
 </metadata>
 <defs>
  <style type="text/css">*{stroke-linejoin: round; stroke-linecap: butt}</style>
 </defs>
 <g id="figure_1">
  <g id="patch_1">
   <path d="M 0 680.422917 
L 984.45625 680.422917 
L 984.45625 0 
L 0 0 
z
" style="fill: #ffffff"/>
  </g>
  <g id="axes_1">
   <g id="patch_2">
    <path d="M 43.78125 642.866667 
L 817.231964 642.866667 
L 817.231964 151.965714 
L 43.78125 151.965714 
z
" style="fill: #ffffff"/>
   </g>
   <g id="PathCollection_1">
    <defs>
     <path id="m8d2be8d1d4" d="M 0 3 
C 0.795609 3 1.55874 2.683901 2.12132 2.12132 
C 2.683901 1.55874 3 0.795609 3 0 
C 3 -0.795609 2.683901 -1.55874 2.12132 -2.12132 
C 1.55874 -2.683901 0.795609 -3 0 -3 
C -0.795609 -3 -1.55874 -2.683901 -2.12132 -2.12132 
C -2.683901 -1.55874 -3 -0.795609 -3 0 
C -3 0.795609 -2.683901 1.55874 -2.12132 2.12132 
C -1.55874 2.683901 -0.795609 3 0 3 
z
" style="stroke: #000000; stroke-opacity: 0.5"/>
    </defs>
    <g clip-path="url(#p7ff5dea213)">
     <use xlink:href="#m8d2be8d1d4" x="247.712661" y="478.842722" style="fill: #4169e1; fill-opacity: 0.5; stroke: #000000; stroke-opacity: 0.5"/>
     <use xlink:href="#m8d2be8d1d4" x="467.131046" y="283.922192" style="fill: #4169e1; fill-opacity: 0.5; stroke: #000000; stroke-opacity: 0.5"/>
     <use xlink:href="#m8d2be8d1d4" x="438.029454" y="296.104725" style="fill: #4169e1; fill-opacity: 0.5; stroke: #000000; stroke-opacity: 0.5"/>
     <use xlink:href="#m8d2be8d1d4" x="157.380596" y="430.11259" style="fill: #4169e1; fill-opacity: 0.5; stroke: #000000; stroke-opacity: 0.5"/>
     <use xlink:href="#m8d2be8d1d4" x="709.075323" y="320.469792" style="fill: #4169e1; fill-opacity: 0.5; stroke: #000000; stroke-opacity: 0.5"/>
     <use xlink:href="#m8d2be8d1d4" x="315.201999" y="417.930057" style="fill: #4169e1; fill-opacity: 0.5; stroke: #000000; stroke-opacity: 0.5"/>
     <use xlink:href="#m8d2be8d1d4" x="165.737569" y="393.56499" style="fill: #4169e1; fill-opacity: 0.5; stroke: #000000; stroke-opacity: 0.5"/>
     <use xlink:href="#m8d2be8d1d4" x="373.648641" y="369.199924" style="fill: #4169e1; fill-opacity: 0.5; stroke: #000000; stroke-opacity: 0.5"/>
     <use xlink:href="#m8d2be8d1d4" x="656.616993" y="210.826993" style="fill: #4169e1; fill-opacity: 0.5; stroke: #000000; stroke-opacity: 0.5"/>
     <use xlink:href="#m8d2be8d1d4" x="241.103921" y="564.64948" style="fill: #4169e1; fill-opacity: 0.5; stroke: #000000; stroke-opacity: 0.5"/>
     <use xlink:href="#m8d2be8d1d4" x="210.036539" y="496.247489" style="fill: #4169e1; fill-opacity: 0.5; stroke: #000000; stroke-opacity: 0.5"/>
     <use xlink:href="#m8d2be8d1d4" x="759.589912" y="308.287259" style="fill: #4169e1; fill-opacity: 0.5; stroke: #000000; stroke-opacity: 0.5"/>
     <use xlink:href="#m8d2be8d1d4" x="438.442884" y="366.63828" style="fill: #4169e1; fill-opacity: 0.5; stroke: #000000; stroke-opacity: 0.5"/>
     <use xlink:href="#m8d2be8d1d4" x="112.007054" y="503.207789" style="fill: #4169e1; fill-opacity: 0.5; stroke: #000000; stroke-opacity: 0.5"/>
     <use xlink:href="#m8d2be8d1d4" x="98.601795" y="503.207789" style="fill: #4169e1; fill-opacity: 0.5; stroke: #000000; stroke-opacity: 0.5"/>
     <use xlink:href="#m8d2be8d1d4" x="585.729881" y="271.739659" style="fill: #4169e1; fill-opacity: 0.5; stroke: #000000; stroke-opacity: 0.5"/>
     <use xlink:href="#m8d2be8d1d4" x="198.400056" y="405.747524" style="fill: #4169e1; fill-opacity: 0.5; stroke: #000000; stroke-opacity: 0.5"/>
     <use xlink:href="#m8d2be8d1d4" x="407.457011" y="344.834858" style="fill: #4169e1; fill-opacity: 0.5; stroke: #000000; stroke-opacity: 0.5"/>
     <use xlink:href="#m8d2be8d1d4" x="718.535961" y="332.652325" style="fill: #4169e1; fill-opacity: 0.5; stroke: #000000; stroke-opacity: 0.5"/>
     <use xlink:href="#m8d2be8d1d4" x="86.805134" y="551.937921" style="fill: #4169e1; fill-opacity: 0.5; stroke: #000000; stroke-opacity: 0.5"/>
     <use xlink:href="#m8d2be8d1d4" x="397.36704" y="271.739659" style="fill: #4169e1; fill-opacity: 0.5; stroke: #000000; stroke-opacity: 0.5"/>
     <use xlink:href="#m8d2be8d1d4" x="354.856032" y="259.557126" style="fill: #4169e1; fill-opacity: 0.5; stroke: #000000; stroke-opacity: 0.5"/>
     <use xlink:href="#m8d2be8d1d4" x="561.129669" y="344.834858" style="fill: #4169e1; fill-opacity: 0.5; stroke: #000000; stroke-opacity: 0.5"/>
     <use xlink:href="#m8d2be8d1d4" x="156.21115" y="478.842722" style="fill: #4169e1; fill-opacity: 0.5; stroke: #000000; stroke-opacity: 0.5"/>
     <use xlink:href="#m8d2be8d1d4" x="648.853599" y="174.279394" style="fill: #4169e1; fill-opacity: 0.5; stroke: #000000; stroke-opacity: 0.5"/>
     <use xlink:href="#m8d2be8d1d4" x="448.771359" y="344.834858" style="fill: #4169e1; fill-opacity: 0.5; stroke: #000000; stroke-opacity: 0.5"/>
     <use xlink:href="#m8d2be8d1d4" x="635.825709" y="344.834858" style="fill: #4169e1; fill-opacity: 0.5; stroke: #000000; stroke-opacity: 0.5"/>
     <use xlink:href="#m8d2be8d1d4" x="502.975664" y="334.85031" style="fill: #4169e1; fill-opacity: 0.5; stroke: #000000; stroke-opacity: 0.5"/>
     <use xlink:href="#m8d2be8d1d4" x="285.621062" y="393.56499" style="fill: #4169e1; fill-opacity: 0.5; stroke: #000000; stroke-opacity: 0.5"/>
     <use xlink:href="#m8d2be8d1d4" x="533.314211" y="247.374593" style="fill: #4169e1; fill-opacity: 0.5; stroke: #000000; stroke-opacity: 0.5"/>
     <use xlink:href="#m8d2be8d1d4" x="462.517505" y="366.776326" style="fill: #4169e1; fill-opacity: 0.5; stroke: #000000; stroke-opacity: 0.5"/>
     <use xlink:href="#m8d2be8d1d4" x="684.279207" y="405.747524" style="fill: #4169e1; fill-opacity: 0.5; stroke: #000000; stroke-opacity: 0.5"/>
     <use xlink:href="#m8d2be8d1d4" x="480.911589" y="320.469792" style="fill: #4169e1; fill-opacity: 0.5; stroke: #000000; stroke-opacity: 0.5"/>
     <use xlink:href="#m8d2be8d1d4" x="278.174558" y="478.842722" style="fill: #4169e1; fill-opacity: 0.5; stroke: #000000; stroke-opacity: 0.5"/>
     <use xlink:href="#m8d2be8d1d4" x="586.90742" y="381.382457" style="fill: #4169e1; fill-opacity: 0.5; stroke: #000000; stroke-opacity: 0.5"/>
     <use xlink:href="#m8d2be8d1d4" x="400.087098" y="320.469792" style="fill: #4169e1; fill-opacity: 0.5; stroke: #000000; stroke-opacity: 0.5"/>
     <use xlink:href="#m8d2be8d1d4" x="213.983888" y="466.660189" style="fill: #4169e1; fill-opacity: 0.5; stroke: #000000; stroke-opacity: 0.5"/>
     <use xlink:href="#m8d2be8d1d4" x="688.156468" y="332.652325" style="fill: #4169e1; fill-opacity: 0.5; stroke: #000000; stroke-opacity: 0.5"/>
     <use xlink:href="#m8d2be8d1d4" x="537.883543" y="259.557126" style="fill: #4169e1; fill-opacity: 0.5; stroke: #000000; stroke-opacity: 0.5"/>
     <use xlink:href="#m8d2be8d1d4" x="588.110677" y="449.489953" style="fill: #4169e1; fill-opacity: 0.5; stroke: #000000; stroke-opacity: 0.5"/>
     <use xlink:href="#m8d2be8d1d4" x="607.466334" y="381.382457" style="fill: #4169e1; fill-opacity: 0.5; stroke: #000000; stroke-opacity: 0.5"/>
     <use xlink:href="#m8d2be8d1d4" x="404.714769" y="393.56499" style="fill: #4169e1; fill-opacity: 0.5; stroke: #000000; stroke-opacity: 0.5"/>
     <use xlink:href="#m8d2be8d1d4" x="572.725671" y="223.009527" style="fill: #4169e1; fill-opacity: 0.5; stroke: #000000; stroke-opacity: 0.5"/>
     <use xlink:href="#m8d2be8d1d4" x="115.444774" y="417.930057" style="fill: #4169e1; fill-opacity: 0.5; stroke: #000000; stroke-opacity: 0.5"/>
     <use xlink:href="#m8d2be8d1d4" x="138.80385" y="369.199924" style="fill: #4169e1; fill-opacity: 0.5; stroke: #000000; stroke-opacity: 0.5"/>
     <use xlink:href="#m8d2be8d1d4" x="530.176144" y="393.56499" style="fill: #4169e1; fill-opacity: 0.5; stroke: #000000; stroke-opacity: 0.5"/>
     <use xlink:href="#m8d2be8d1d4" x="331.111607" y="264.167818" style="fill: #4169e1; fill-opacity: 0.5; stroke: #000000; stroke-opacity: 0.5"/>
     <use xlink:href="#m8d2be8d1d4" x="332.813608" y="393.56499" style="fill: #4169e1; fill-opacity: 0.5; stroke: #000000; stroke-opacity: 0.5"/>
     <use xlink:href="#m8d2be8d1d4" x="763.986436" y="320.469792" style="fill: #4169e1; fill-opacity: 0.5; stroke: #000000; stroke-opacity: 0.5"/>
     <use xlink:href="#m8d2be8d1d4" x="490.461637" y="259.557126" style="fill: #4169e1; fill-opacity: 0.5; stroke: #000000; stroke-opacity: 0.5"/>
     <use xlink:href="#m8d2be8d1d4" x="715.975962" y="308.287259" style="fill: #4169e1; fill-opacity: 0.5; stroke: #000000; stroke-opacity: 0.5"/>
     <use xlink:href="#m8d2be8d1d4" x="179.45297" y="369.199924" style="fill: #4169e1; fill-opacity: 0.5; stroke: #000000; stroke-opacity: 0.5"/>
     <use xlink:href="#m8d2be8d1d4" x="99.544987" y="491.025256" style="fill: #4169e1; fill-opacity: 0.5; stroke: #000000; stroke-opacity: 0.5"/>
     <use xlink:href="#m8d2be8d1d4" x="274.405508" y="539.755388" style="fill: #4169e1; fill-opacity: 0.5; stroke: #000000; stroke-opacity: 0.5"/>
     <use xlink:href="#m8d2be8d1d4" x="340.979578" y="466.660189" style="fill: #4169e1; fill-opacity: 0.5; stroke: #000000; stroke-opacity: 0.5"/>
     <use xlink:href="#m8d2be8d1d4" x="392.28398" y="320.469792" style="fill: #4169e1; fill-opacity: 0.5; stroke: #000000; stroke-opacity: 0.5"/>
     <use xlink:href="#m8d2be8d1d4" x="78.938101" y="466.660189" style="fill: #4169e1; fill-opacity: 0.5; stroke: #000000; stroke-opacity: 0.5"/>
     <use xlink:href="#m8d2be8d1d4" x="600.803152" y="472.264559" style="fill: #4169e1; fill-opacity: 0.5; stroke: #000000; stroke-opacity: 0.5"/>
     <use xlink:href="#m8d2be8d1d4" x="393.680883" y="393.56499" style="fill: #4169e1; fill-opacity: 0.5; stroke: #000000; stroke-opacity: 0.5"/>
     <use xlink:href="#m8d2be8d1d4" x="662.112478" y="259.557126" style="fill: #4169e1; fill-opacity: 0.5; stroke: #000000; stroke-opacity: 0.5"/>
     <use xlink:href="#m8d2be8d1d4" x="545.798792" y="393.56499" style="fill: #4169e1; fill-opacity: 0.5; stroke: #000000; stroke-opacity: 0.5"/>
     <use xlink:href="#m8d2be8d1d4" x="565.270072" y="471.293966" style="fill: #4169e1; fill-opacity: 0.5; stroke: #000000; stroke-opacity: 0.5"/>
     <use xlink:href="#m8d2be8d1d4" x="782.075114" y="320.469792" style="fill: #4169e1; fill-opacity: 0.5; stroke: #000000; stroke-opacity: 0.5"/>
     <use xlink:href="#m8d2be8d1d4" x="571.961939" y="283.922192" style="fill: #4169e1; fill-opacity: 0.5; stroke: #000000; stroke-opacity: 0.5"/>
     <use xlink:href="#m8d2be8d1d4" x="418.082615" y="223.009527" style="fill: #4169e1; fill-opacity: 0.5; stroke: #000000; stroke-opacity: 0.5"/>
     <use xlink:href="#m8d2be8d1d4" x="566.221231" y="545.978377" style="fill: #4169e1; fill-opacity: 0.5; stroke: #000000; stroke-opacity: 0.5"/>
     <use xlink:href="#m8d2be8d1d4" x="232.321409" y="532.724039" style="fill: #4169e1; fill-opacity: 0.5; stroke: #000000; stroke-opacity: 0.5"/>
    </g>
   </g>
   <g id="PathCollection_2">
    <defs>
     <path id="m35db3f5010" d="M 0 3 
C 0.795609 3 1.55874 2.683901 2.12132 2.12132 
C 2.683901 1.55874 3 0.795609 3 0 
C 3 -0.795609 2.683901 -1.55874 2.12132 -2.12132 
C 1.55874 -2.683901 0.795609 -3 0 -3 
C -0.795609 -3 -1.55874 -2.683901 -2.12132 -2.12132 
C -2.683901 -1.55874 -3 -0.795609 -3 0 
C -3 0.795609 -2.683901 1.55874 -2.12132 2.12132 
C -1.55874 2.683901 -0.795609 3 0 3 
z
" style="stroke: #000000; stroke-opacity: 0.5"/>
    </defs>
    <g clip-path="url(#p7ff5dea213)">
     <use xlink:href="#m35db3f5010" x="247.712661" y="434.979687" style="fill: #ff8c00; fill-opacity: 0.5; stroke: #000000; stroke-opacity: 0.5"/>
     <use xlink:href="#m35db3f5010" x="467.131046" y="367.939934" style="fill: #ff8c00; fill-opacity: 0.5; stroke: #000000; stroke-opacity: 0.5"/>
     <use xlink:href="#m35db3f5010" x="438.029454" y="367.939934" style="fill: #ff8c00; fill-opacity: 0.5; stroke: #000000; stroke-opacity: 0.5"/>
     <use xlink:href="#m35db3f5010" x="157.380596" y="379.113226" style="fill: #ff8c00; fill-opacity: 0.5; stroke: #000000; stroke-opacity: 0.5"/>
     <use xlink:href="#m35db3f5010" x="709.075323" y="367.939934" style="fill: #ff8c00; fill-opacity: 0.5; stroke: #000000; stroke-opacity: 0.5"/>
     <use xlink:href="#m35db3f5010" x="315.201999" y="356.766641" style="fill: #ff8c00; fill-opacity: 0.5; stroke: #000000; stroke-opacity: 0.5"/>
     <use xlink:href="#m35db3f5010" x="165.737569" y="300.90018" style="fill: #ff8c00; fill-opacity: 0.5; stroke: #000000; stroke-opacity: 0.5"/>
     <use xlink:href="#m35db3f5010" x="373.648641" y="345.593349" style="fill: #ff8c00; fill-opacity: 0.5; stroke: #000000; stroke-opacity: 0.5"/>
     <use xlink:href="#m35db3f5010" x="656.616993" y="390.286518" style="fill: #ff8c00; fill-opacity: 0.5; stroke: #000000; stroke-opacity: 0.5"/>
     <use xlink:href="#m35db3f5010" x="241.103921" y="489.266476" style="fill: #ff8c00; fill-opacity: 0.5; stroke: #000000; stroke-opacity: 0.5"/>
     <use xlink:href="#m35db3f5010" x="210.036539" y="495.561955" style="fill: #ff8c00; fill-opacity: 0.5; stroke: #000000; stroke-opacity: 0.5"/>
     <use xlink:href="#m35db3f5010" x="759.589912" y="367.939934" style="fill: #ff8c00; fill-opacity: 0.5; stroke: #000000; stroke-opacity: 0.5"/>
     <use xlink:href="#m35db3f5010" x="438.442884" y="445.100249" style="fill: #ff8c00; fill-opacity: 0.5; stroke: #000000; stroke-opacity: 0.5"/>
     <use xlink:href="#m35db3f5010" x="112.007054" y="513.192733" style="fill: #ff8c00; fill-opacity: 0.5; stroke: #000000; stroke-opacity: 0.5"/>
     <use xlink:href="#m35db3f5010" x="98.601795" y="434.979687" style="fill: #ff8c00; fill-opacity: 0.5; stroke: #000000; stroke-opacity: 0.5"/>
     <use xlink:href="#m35db3f5010" x="585.729881" y="300.90018" style="fill: #ff8c00; fill-opacity: 0.5; stroke: #000000; stroke-opacity: 0.5"/>
     <use xlink:href="#m35db3f5010" x="198.400056" y="379.113226" style="fill: #ff8c00; fill-opacity: 0.5; stroke: #000000; stroke-opacity: 0.5"/>
     <use xlink:href="#m35db3f5010" x="407.457011" y="401.45981" style="fill: #ff8c00; fill-opacity: 0.5; stroke: #000000; stroke-opacity: 0.5"/>
     <use xlink:href="#m35db3f5010" x="718.535961" y="345.593349" style="fill: #ff8c00; fill-opacity: 0.5; stroke: #000000; stroke-opacity: 0.5"/>
     <use xlink:href="#m35db3f5010" x="86.805134" y="401.45981" style="fill: #ff8c00; fill-opacity: 0.5; stroke: #000000; stroke-opacity: 0.5"/>
     <use xlink:href="#m35db3f5010" x="397.36704" y="300.90018" style="fill: #ff8c00; fill-opacity: 0.5; stroke: #000000; stroke-opacity: 0.5"/>
     <use xlink:href="#m35db3f5010" x="354.856032" y="245.033718" style="fill: #ff8c00; fill-opacity: 0.5; stroke: #000000; stroke-opacity: 0.5"/>
     <use xlink:href="#m35db3f5010" x="561.129669" y="446.152979" style="fill: #ff8c00; fill-opacity: 0.5; stroke: #000000; stroke-opacity: 0.5"/>
     <use xlink:href="#m35db3f5010" x="156.21115" y="401.45981" style="fill: #ff8c00; fill-opacity: 0.5; stroke: #000000; stroke-opacity: 0.5"/>
     <use xlink:href="#m35db3f5010" x="648.853599" y="256.207011" style="fill: #ff8c00; fill-opacity: 0.5; stroke: #000000; stroke-opacity: 0.5"/>
     <use xlink:href="#m35db3f5010" x="448.771359" y="412.633103" style="fill: #ff8c00; fill-opacity: 0.5; stroke: #000000; stroke-opacity: 0.5"/>
     <use xlink:href="#m35db3f5010" x="635.825709" y="446.152979" style="fill: #ff8c00; fill-opacity: 0.5; stroke: #000000; stroke-opacity: 0.5"/>
     <use xlink:href="#m35db3f5010" x="502.975664" y="414.96144" style="fill: #ff8c00; fill-opacity: 0.5; stroke: #000000; stroke-opacity: 0.5"/>
     <use xlink:href="#m35db3f5010" x="285.621062" y="367.939934" style="fill: #ff8c00; fill-opacity: 0.5; stroke: #000000; stroke-opacity: 0.5"/>
     <use xlink:href="#m35db3f5010" x="533.314211" y="367.939934" style="fill: #ff8c00; fill-opacity: 0.5; stroke: #000000; stroke-opacity: 0.5"/>
     <use xlink:href="#m35db3f5010" x="462.517505" y="410.439921" style="fill: #ff8c00; fill-opacity: 0.5; stroke: #000000; stroke-opacity: 0.5"/>
     <use xlink:href="#m35db3f5010" x="684.279207" y="412.633103" style="fill: #ff8c00; fill-opacity: 0.5; stroke: #000000; stroke-opacity: 0.5"/>
     <use xlink:href="#m35db3f5010" x="480.911589" y="401.45981" style="fill: #ff8c00; fill-opacity: 0.5; stroke: #000000; stroke-opacity: 0.5"/>
     <use xlink:href="#m35db3f5010" x="278.174558" y="401.45981" style="fill: #ff8c00; fill-opacity: 0.5; stroke: #000000; stroke-opacity: 0.5"/>
     <use xlink:href="#m35db3f5010" x="586.90742" y="423.806395" style="fill: #ff8c00; fill-opacity: 0.5; stroke: #000000; stroke-opacity: 0.5"/>
     <use xlink:href="#m35db3f5010" x="400.087098" y="334.420057" style="fill: #ff8c00; fill-opacity: 0.5; stroke: #000000; stroke-opacity: 0.5"/>
     <use xlink:href="#m35db3f5010" x="213.983888" y="446.152979" style="fill: #ff8c00; fill-opacity: 0.5; stroke: #000000; stroke-opacity: 0.5"/>
     <use xlink:href="#m35db3f5010" x="688.156468" y="390.286518" style="fill: #ff8c00; fill-opacity: 0.5; stroke: #000000; stroke-opacity: 0.5"/>
     <use xlink:href="#m35db3f5010" x="537.883543" y="367.939934" style="fill: #ff8c00; fill-opacity: 0.5; stroke: #000000; stroke-opacity: 0.5"/>
     <use xlink:href="#m35db3f5010" x="588.110677" y="542.963015" style="fill: #ff8c00; fill-opacity: 0.5; stroke: #000000; stroke-opacity: 0.5"/>
     <use xlink:href="#m35db3f5010" x="607.466334" y="412.633103" style="fill: #ff8c00; fill-opacity: 0.5; stroke: #000000; stroke-opacity: 0.5"/>
     <use xlink:href="#m35db3f5010" x="404.714769" y="379.113226" style="fill: #ff8c00; fill-opacity: 0.5; stroke: #000000; stroke-opacity: 0.5"/>
     <use xlink:href="#m35db3f5010" x="572.725671" y="334.420057" style="fill: #ff8c00; fill-opacity: 0.5; stroke: #000000; stroke-opacity: 0.5"/>
     <use xlink:href="#m35db3f5010" x="115.444774" y="479.672856" style="fill: #ff8c00; fill-opacity: 0.5; stroke: #000000; stroke-opacity: 0.5"/>
     <use xlink:href="#m35db3f5010" x="138.80385" y="278.553595" style="fill: #ff8c00; fill-opacity: 0.5; stroke: #000000; stroke-opacity: 0.5"/>
     <use xlink:href="#m35db3f5010" x="530.176144" y="502.019441" style="fill: #ff8c00; fill-opacity: 0.5; stroke: #000000; stroke-opacity: 0.5"/>
     <use xlink:href="#m35db3f5010" x="331.111607" y="237.897273" style="fill: #ff8c00; fill-opacity: 0.5; stroke: #000000; stroke-opacity: 0.5"/>
     <use xlink:href="#m35db3f5010" x="332.813608" y="345.593349" style="fill: #ff8c00; fill-opacity: 0.5; stroke: #000000; stroke-opacity: 0.5"/>
     <use xlink:href="#m35db3f5010" x="763.986436" y="401.45981" style="fill: #ff8c00; fill-opacity: 0.5; stroke: #000000; stroke-opacity: 0.5"/>
     <use xlink:href="#m35db3f5010" x="490.461637" y="334.420057" style="fill: #ff8c00; fill-opacity: 0.5; stroke: #000000; stroke-opacity: 0.5"/>
     <use xlink:href="#m35db3f5010" x="715.975962" y="390.286518" style="fill: #ff8c00; fill-opacity: 0.5; stroke: #000000; stroke-opacity: 0.5"/>
     <use xlink:href="#m35db3f5010" x="179.45297" y="278.553595" style="fill: #ff8c00; fill-opacity: 0.5; stroke: #000000; stroke-opacity: 0.5"/>
     <use xlink:href="#m35db3f5010" x="99.544987" y="502.019441" style="fill: #ff8c00; fill-opacity: 0.5; stroke: #000000; stroke-opacity: 0.5"/>
     <use xlink:href="#m35db3f5010" x="274.405508" y="457.326272" style="fill: #ff8c00; fill-opacity: 0.5; stroke: #000000; stroke-opacity: 0.5"/>
     <use xlink:href="#m35db3f5010" x="340.979578" y="390.286518" style="fill: #ff8c00; fill-opacity: 0.5; stroke: #000000; stroke-opacity: 0.5"/>
     <use xlink:href="#m35db3f5010" x="392.28398" y="312.073472" style="fill: #ff8c00; fill-opacity: 0.5; stroke: #000000; stroke-opacity: 0.5"/>
     <use xlink:href="#m35db3f5010" x="78.938101" y="479.672856" style="fill: #ff8c00; fill-opacity: 0.5; stroke: #000000; stroke-opacity: 0.5"/>
     <use xlink:href="#m35db3f5010" x="600.803152" y="615.422718" style="fill: #ff8c00; fill-opacity: 0.5; stroke: #000000; stroke-opacity: 0.5"/>
     <use xlink:href="#m35db3f5010" x="393.680883" y="379.113226" style="fill: #ff8c00; fill-opacity: 0.5; stroke: #000000; stroke-opacity: 0.5"/>
     <use xlink:href="#m35db3f5010" x="662.112478" y="390.286518" style="fill: #ff8c00; fill-opacity: 0.5; stroke: #000000; stroke-opacity: 0.5"/>
     <use xlink:href="#m35db3f5010" x="545.798792" y="502.019441" style="fill: #ff8c00; fill-opacity: 0.5; stroke: #000000; stroke-opacity: 0.5"/>
     <use xlink:href="#m35db3f5010" x="565.270072" y="569.180005" style="fill: #ff8c00; fill-opacity: 0.5; stroke: #000000; stroke-opacity: 0.5"/>
     <use xlink:href="#m35db3f5010" x="782.075114" y="412.633103" style="fill: #ff8c00; fill-opacity: 0.5; stroke: #000000; stroke-opacity: 0.5"/>
     <use xlink:href="#m35db3f5010" x="571.961939" y="345.593349" style="fill: #ff8c00; fill-opacity: 0.5; stroke: #000000; stroke-opacity: 0.5"/>
     <use xlink:href="#m35db3f5010" x="418.082615" y="278.553595" style="fill: #ff8c00; fill-opacity: 0.5; stroke: #000000; stroke-opacity: 0.5"/>
     <use xlink:href="#m35db3f5010" x="566.221231" y="620.552987" style="fill: #ff8c00; fill-opacity: 0.5; stroke: #000000; stroke-opacity: 0.5"/>
     <use xlink:href="#m35db3f5010" x="232.321409" y="385.308028" style="fill: #ff8c00; fill-opacity: 0.5; stroke: #000000; stroke-opacity: 0.5"/>
    </g>
   </g>
   <g id="PolyCollection_1">
    <path d="M 78.938101 432.518402 
L 78.938101 497.893746 
L 86.040495 495.681642 
L 93.142889 493.467013 
L 100.245283 491.238618 
L 107.347677 488.815197 
L 114.450071 486.617443 
L 121.552465 484.073743 
L 128.654859 481.843476 
L 135.757253 479.604017 
L 142.859647 477.206854 
L 149.962041 475.052265 
L 157.064435 472.897676 
L 164.166829 470.674328 
L 171.269224 468.442201 
L 178.371618 466.052073 
L 185.474012 463.647669 
L 192.576406 461.361644 
L 199.6788 458.984613 
L 206.781194 456.618258 
L 213.883588 454.437701 
L 220.985982 452.339124 
L 228.088376 450.238743 
L 235.19077 448.141156 
L 242.293164 446.113359 
L 249.395558 443.896482 
L 256.497952 441.664783 
L 263.600346 439.304273 
L 270.702741 437.141409 
L 277.805135 435.032983 
L 284.907529 432.966702 
L 292.009923 430.803945 
L 299.112317 428.716125 
L 306.214711 426.7554 
L 313.317105 424.694811 
L 320.419499 422.570106 
L 327.521893 420.529489 
L 334.624287 418.331202 
L 341.726681 416.40631 
L 348.829075 414.519366 
L 355.931469 412.464589 
L 363.033863 410.364491 
L 370.136258 408.321265 
L 377.238652 406.170206 
L 384.341046 404.128819 
L 391.44344 402.228038 
L 398.545834 400.525238 
L 405.648228 398.875429 
L 412.750622 396.910942 
L 419.853016 394.863038 
L 426.95541 393.070282 
L 434.057804 391.073683 
L 441.160198 389.306577 
L 448.262592 387.541301 
L 455.364986 386.214889 
L 462.46738 384.328859 
L 469.569775 382.474515 
L 476.672169 380.690369 
L 483.774563 378.734598 
L 490.876957 377.151653 
L 497.979351 375.483571 
L 505.081745 373.858571 
L 512.184139 371.823596 
L 519.286533 370.086514 
L 526.388927 368.524486 
L 533.491321 366.962457 
L 540.593715 365.531934 
L 547.696109 364.12847 
L 554.798503 362.518864 
L 561.900897 360.947931 
L 569.003292 359.454898 
L 576.105686 357.713622 
L 583.20808 356.272508 
L 590.310474 354.704303 
L 597.412868 353.395559 
L 604.515262 351.94328 
L 611.617656 350.516319 
L 618.72005 349.033584 
L 625.822444 347.380389 
L 632.924838 345.654535 
L 640.027232 343.926464 
L 647.129626 342.29809 
L 654.23202 340.837255 
L 661.334414 339.614366 
L 668.436809 338.386924 
L 675.539203 336.900641 
L 682.641597 335.26382 
L 689.743991 333.627 
L 696.846385 332.282054 
L 703.948779 331.002522 
L 711.051173 329.686834 
L 718.153567 328.203986 
L 725.255961 326.71271 
L 732.358355 325.210607 
L 739.460749 323.806865 
L 746.563143 322.570179 
L 753.665537 321.31604 
L 760.767931 319.947926 
L 767.870325 318.409198 
L 774.97272 316.814327 
L 782.075114 315.216762 
L 782.075114 241.528345 
L 782.075114 241.528345 
L 774.97272 243.927465 
L 767.870325 246.326586 
L 760.767931 248.725706 
L 753.665537 251.124827 
L 746.563143 253.531605 
L 739.460749 255.941213 
L 732.358355 258.350822 
L 725.255961 260.76043 
L 718.153567 263.170039 
L 711.051173 265.730758 
L 703.948779 268.039415 
L 696.846385 270.38178 
L 689.743991 272.653245 
L 682.641597 274.953603 
L 675.539203 277.262977 
L 668.436809 279.759426 
L 661.334414 282.363627 
L 654.23202 284.79806 
L 647.129626 287.133874 
L 640.027232 289.611001 
L 632.924838 291.931604 
L 625.822444 294.151492 
L 618.72005 296.371379 
L 611.617656 298.618987 
L 604.515262 300.913934 
L 597.412868 303.208881 
L 590.310474 305.506666 
L 583.20808 307.905728 
L 576.105686 310.163636 
L 569.003292 312.562982 
L 561.900897 314.88703 
L 554.798503 317.069012 
L 547.696109 319.302101 
L 540.593715 321.588905 
L 533.491321 324.009274 
L 526.388927 326.330239 
L 519.286533 328.782738 
L 512.184139 330.921199 
L 505.081745 333.064216 
L 497.979351 335.20366 
L 490.876957 337.664456 
L 483.774563 339.786886 
L 476.672169 341.938027 
L 469.569775 344.286662 
L 462.46738 346.551964 
L 455.364986 348.794637 
L 448.262592 351.060041 
L 441.160198 352.896314 
L 434.057804 355.10335 
L 426.95541 357.086997 
L 419.853016 358.829491 
L 412.750622 360.728133 
L 405.648228 362.907479 
L 398.545834 364.771498 
L 391.44344 366.392489 
L 384.341046 368.438447 
L 377.238652 370.307143 
L 370.136258 371.968368 
L 363.033863 373.597708 
L 355.931469 375.223829 
L 348.829075 376.859304 
L 341.726681 378.193948 
L 334.624287 380.001293 
L 327.521893 381.753629 
L 320.419499 383.18591 
L 313.317105 385.017469 
L 306.214711 386.668942 
L 299.112317 388.288694 
L 292.009923 389.912601 
L 284.907529 391.384443 
L 277.805135 392.938874 
L 270.702741 394.353068 
L 263.600346 395.831255 
L 256.497952 397.299603 
L 249.395558 398.581536 
L 242.293164 399.901896 
L 235.19077 401.204964 
L 228.088376 402.508033 
L 220.985982 404.113226 
L 213.883588 405.403241 
L 206.781194 406.767915 
L 199.6788 408.229123 
L 192.576406 409.612448 
L 185.474012 411.109141 
L 178.371618 412.619517 
L 171.269224 414.131892 
L 164.166829 415.728938 
L 157.064435 417.223507 
L 149.962041 418.789809 
L 142.859647 420.347679 
L 135.757253 421.715219 
L 128.654859 423.195735 
L 121.552465 424.58772 
L 114.450071 425.910223 
L 107.347677 427.232725 
L 100.245283 428.555228 
L 93.142889 429.898551 
L 86.040495 431.238261 
L 78.938101 432.518402 
z
" clip-path="url(#p7ff5dea213)" style="fill: #1f77b4; fill-opacity: 0.15"/>
   </g>
   <g id="PolyCollection_2">
    <path d="M 78.938101 358.752078 
L 78.938101 429.359086 
L 86.040495 429.069459 
L 93.142889 428.776874 
L 100.245283 428.446528 
L 107.347677 427.934334 
L 114.450071 427.418443 
L 121.552465 427.096829 
L 128.654859 426.824921 
L 135.757253 426.481874 
L 142.859647 426.127272 
L 149.962041 425.485209 
L 157.064435 424.702209 
L 164.166829 424.473016 
L 171.269224 424.216083 
L 178.371618 424.061561 
L 185.474012 423.835964 
L 192.576406 423.298799 
L 199.6788 422.663875 
L 206.781194 422.639846 
L 213.883588 422.20195 
L 220.985982 421.743025 
L 228.088376 421.439705 
L 235.19077 421.140645 
L 242.293164 420.794535 
L 249.395558 420.445487 
L 256.497952 420.021 
L 263.600346 419.525705 
L 270.702741 419.252278 
L 277.805135 419.008773 
L 284.907529 418.917336 
L 292.009923 418.568725 
L 299.112317 418.276028 
L 306.214711 418.137936 
L 313.317105 418.147306 
L 320.419499 418.210924 
L 327.521893 418.278402 
L 334.624287 418.342735 
L 341.726681 418.098046 
L 348.829075 417.746315 
L 355.931469 417.769441 
L 363.033863 417.568855 
L 370.136258 417.37555 
L 377.238652 417.090609 
L 384.341046 416.891443 
L 391.44344 417.093126 
L 398.545834 416.867434 
L 405.648228 416.802931 
L 412.750622 416.716414 
L 419.853016 417.057078 
L 426.95541 417.091622 
L 434.057804 417.375361 
L 441.160198 417.461111 
L 448.262592 417.347604 
L 455.364986 417.450158 
L 462.46738 417.693639 
L 469.569775 417.703171 
L 476.672169 418.095947 
L 483.774563 418.400576 
L 490.876957 418.371391 
L 497.979351 418.537226 
L 505.081745 419.025581 
L 512.184139 419.428904 
L 519.286533 419.745423 
L 526.388927 420.239184 
L 533.491321 420.785751 
L 540.593715 421.376024 
L 547.696109 421.511456 
L 554.798503 422.078806 
L 561.900897 423.004631 
L 569.003292 423.041543 
L 576.105686 423.006696 
L 583.20808 423.260849 
L 590.310474 424.089353 
L 597.412868 424.835466 
L 604.515262 425.196977 
L 611.617656 425.262366 
L 618.72005 425.900603 
L 625.822444 426.680243 
L 632.924838 427.392054 
L 640.027232 427.61275 
L 647.129626 427.824053 
L 654.23202 428.025424 
L 661.334414 428.609727 
L 668.436809 429.067194 
L 675.539203 429.76796 
L 682.641597 430.192362 
L 689.743991 430.758562 
L 696.846385 431.311652 
L 703.948779 431.864594 
L 711.051173 432.537726 
L 718.153567 433.068379 
L 725.255961 433.582999 
L 732.358355 434.116061 
L 739.460749 435.000727 
L 746.563143 435.867485 
L 753.665537 436.253185 
L 760.767931 436.638885 
L 767.870325 437.018614 
L 774.97272 437.476042 
L 782.075114 438.027365 
L 782.075114 363.854398 
L 782.075114 363.854398 
L 774.97272 364.167412 
L 767.870325 364.560171 
L 760.767931 364.966639 
L 753.665537 365.373108 
L 746.563143 365.779576 
L 739.460749 366.188883 
L 732.358355 366.601564 
L 725.255961 367.014244 
L 718.153567 367.50899 
L 711.051173 368.06426 
L 703.948779 368.626812 
L 696.846385 369.186341 
L 689.743991 369.668124 
L 682.641597 370.215997 
L 675.539203 370.853525 
L 668.436809 371.188247 
L 661.334414 371.327513 
L 654.23202 371.47805 
L 647.129626 371.994155 
L 640.027232 372.676154 
L 632.924838 373.358153 
L 625.822444 373.97768 
L 618.72005 374.227539 
L 611.617656 374.485273 
L 604.515262 374.756814 
L 597.412868 374.970163 
L 590.310474 375.214268 
L 583.20808 375.462496 
L 576.105686 375.697208 
L 569.003292 375.954542 
L 561.900897 376.200981 
L 554.798503 376.738622 
L 547.696109 377.234919 
L 540.593715 377.644449 
L 533.491321 377.917733 
L 526.388927 378.084208 
L 519.286533 378.255166 
L 512.184139 378.492574 
L 505.081745 378.591528 
L 497.979351 378.844241 
L 490.876957 378.784252 
L 483.774563 378.849841 
L 476.672169 378.638347 
L 469.569775 378.725059 
L 462.46738 378.665502 
L 455.364986 378.886078 
L 448.262592 378.859642 
L 441.160198 378.919009 
L 434.057804 378.92323 
L 426.95541 378.827536 
L 419.853016 378.648079 
L 412.750622 378.924235 
L 405.648228 378.92435 
L 398.545834 378.889127 
L 391.44344 378.758374 
L 384.341046 378.753573 
L 377.238652 378.500078 
L 370.136258 377.851752 
L 363.033863 377.482835 
L 355.931469 377.387727 
L 348.829075 377.349449 
L 341.726681 377.342813 
L 334.624287 377.16734 
L 327.521893 376.797438 
L 320.419499 376.538757 
L 313.317105 376.143356 
L 306.214711 375.321586 
L 299.112317 374.77794 
L 292.009923 374.333222 
L 284.907529 373.859776 
L 277.805135 373.098131 
L 270.702741 372.774902 
L 263.600346 372.451673 
L 256.497952 371.614794 
L 249.395558 371.216424 
L 242.293164 370.850751 
L 235.19077 370.482678 
L 228.088376 369.971527 
L 220.985982 369.653583 
L 213.883588 369.363159 
L 206.781194 368.999375 
L 199.6788 368.473021 
L 192.576406 367.776792 
L 185.474012 367.080563 
L 178.371618 366.384333 
L 171.269224 365.688104 
L 164.166829 364.991875 
L 157.064435 364.295646 
L 149.962041 363.599417 
L 142.859647 362.903188 
L 135.757253 362.205732 
L 128.654859 361.505553 
L 121.552465 360.939978 
L 114.450071 360.451025 
L 107.347677 359.859818 
L 100.245283 359.428026 
L 93.142889 359.20271 
L 86.040495 358.977394 
L 78.938101 358.752078 
z
" clip-path="url(#p7ff5dea213)" style="fill: #ff7f0e; fill-opacity: 0.15"/>
   </g>
   <g id="matplotlib.axis_1">
    <g id="xtick_1">
     <g id="line2d_1">
      <defs>
       <path id="m1b04bf0b25" d="M 0 0 
L 0 3.5 
" style="stroke: #000000; stroke-width: 0.8"/>
      </defs>
      <g>
       <use xlink:href="#m1b04bf0b25" x="56.567963" y="642.866667" style="stroke: #000000; stroke-width: 0.8"/>
      </g>
     </g>
     <g id="text_1">
      <!-- 0.30 -->
      <g transform="translate(45.43515 657.465104) scale(0.1 -0.1)">
       <defs>
        <path id="DejaVuSans-30" d="M 2034 4250 
Q 1547 4250 1301 3770 
Q 1056 3291 1056 2328 
Q 1056 1369 1301 889 
Q 1547 409 2034 409 
Q 2525 409 2770 889 
Q 3016 1369 3016 2328 
Q 3016 3291 2770 3770 
Q 2525 4250 2034 4250 
z
M 2034 4750 
Q 2819 4750 3233 4129 
Q 3647 3509 3647 2328 
Q 3647 1150 3233 529 
Q 2819 -91 2034 -91 
Q 1250 -91 836 529 
Q 422 1150 422 2328 
Q 422 3509 836 4129 
Q 1250 4750 2034 4750 
z
" transform="scale(0.015625)"/>
        <path id="DejaVuSans-2e" d="M 684 794 
L 1344 794 
L 1344 0 
L 684 0 
L 684 794 
z
" transform="scale(0.015625)"/>
        <path id="DejaVuSans-33" d="M 2597 2516 
Q 3050 2419 3304 2112 
Q 3559 1806 3559 1356 
Q 3559 666 3084 287 
Q 2609 -91 1734 -91 
Q 1441 -91 1130 -33 
Q 819 25 488 141 
L 488 750 
Q 750 597 1062 519 
Q 1375 441 1716 441 
Q 2309 441 2620 675 
Q 2931 909 2931 1356 
Q 2931 1769 2642 2001 
Q 2353 2234 1838 2234 
L 1294 2234 
L 1294 2753 
L 1863 2753 
Q 2328 2753 2575 2939 
Q 2822 3125 2822 3475 
Q 2822 3834 2567 4026 
Q 2313 4219 1838 4219 
Q 1578 4219 1281 4162 
Q 984 4106 628 3988 
L 628 4550 
Q 988 4650 1302 4700 
Q 1616 4750 1894 4750 
Q 2613 4750 3031 4423 
Q 3450 4097 3450 3541 
Q 3450 3153 3228 2886 
Q 3006 2619 2597 2516 
z
" transform="scale(0.015625)"/>
       </defs>
       <use xlink:href="#DejaVuSans-30"/>
       <use xlink:href="#DejaVuSans-2e" x="63.623047"/>
       <use xlink:href="#DejaVuSans-33" x="95.410156"/>
       <use xlink:href="#DejaVuSans-30" x="159.033203"/>
      </g>
     </g>
    </g>
    <g id="xtick_2">
     <g id="line2d_2">
      <g>
       <use xlink:href="#m1b04bf0b25" x="150.809588" y="642.866667" style="stroke: #000000; stroke-width: 0.8"/>
      </g>
     </g>
     <g id="text_2">
      <!-- 0.35 -->
      <g transform="translate(139.676776 657.465104) scale(0.1 -0.1)">
       <defs>
        <path id="DejaVuSans-35" d="M 691 4666 
L 3169 4666 
L 3169 4134 
L 1269 4134 
L 1269 2991 
Q 1406 3038 1543 3061 
Q 1681 3084 1819 3084 
Q 2600 3084 3056 2656 
Q 3513 2228 3513 1497 
Q 3513 744 3044 326 
Q 2575 -91 1722 -91 
Q 1428 -91 1123 -41 
Q 819 9 494 109 
L 494 744 
Q 775 591 1075 516 
Q 1375 441 1709 441 
Q 2250 441 2565 725 
Q 2881 1009 2881 1497 
Q 2881 1984 2565 2268 
Q 2250 2553 1709 2553 
Q 1456 2553 1204 2497 
Q 953 2441 691 2322 
L 691 4666 
z
" transform="scale(0.015625)"/>
       </defs>
       <use xlink:href="#DejaVuSans-30"/>
       <use xlink:href="#DejaVuSans-2e" x="63.623047"/>
       <use xlink:href="#DejaVuSans-33" x="95.410156"/>
       <use xlink:href="#DejaVuSans-35" x="159.033203"/>
      </g>
     </g>
    </g>
    <g id="xtick_3">
     <g id="line2d_3">
      <g>
       <use xlink:href="#m1b04bf0b25" x="245.051214" y="642.866667" style="stroke: #000000; stroke-width: 0.8"/>
      </g>
     </g>
     <g id="text_3">
      <!-- 0.40 -->
      <g transform="translate(233.918402 657.465104) scale(0.1 -0.1)">
       <defs>
        <path id="DejaVuSans-34" d="M 2419 4116 
L 825 1625 
L 2419 1625 
L 2419 4116 
z
M 2253 4666 
L 3047 4666 
L 3047 1625 
L 3713 1625 
L 3713 1100 
L 3047 1100 
L 3047 0 
L 2419 0 
L 2419 1100 
L 313 1100 
L 313 1709 
L 2253 4666 
z
" transform="scale(0.015625)"/>
       </defs>
       <use xlink:href="#DejaVuSans-30"/>
       <use xlink:href="#DejaVuSans-2e" x="63.623047"/>
       <use xlink:href="#DejaVuSans-34" x="95.410156"/>
       <use xlink:href="#DejaVuSans-30" x="159.033203"/>
      </g>
     </g>
    </g>
    <g id="xtick_4">
     <g id="line2d_4">
      <g>
       <use xlink:href="#m1b04bf0b25" x="339.29284" y="642.866667" style="stroke: #000000; stroke-width: 0.8"/>
      </g>
     </g>
     <g id="text_4">
      <!-- 0.45 -->
      <g transform="translate(328.160027 657.465104) scale(0.1 -0.1)">
       <use xlink:href="#DejaVuSans-30"/>
       <use xlink:href="#DejaVuSans-2e" x="63.623047"/>
       <use xlink:href="#DejaVuSans-34" x="95.410156"/>
       <use xlink:href="#DejaVuSans-35" x="159.033203"/>
      </g>
     </g>
    </g>
    <g id="xtick_5">
     <g id="line2d_5">
      <g>
       <use xlink:href="#m1b04bf0b25" x="433.534466" y="642.866667" style="stroke: #000000; stroke-width: 0.8"/>
      </g>
     </g>
     <g id="text_5">
      <!-- 0.50 -->
      <g transform="translate(422.401653 657.465104) scale(0.1 -0.1)">
       <use xlink:href="#DejaVuSans-30"/>
       <use xlink:href="#DejaVuSans-2e" x="63.623047"/>
       <use xlink:href="#DejaVuSans-35" x="95.410156"/>
       <use xlink:href="#DejaVuSans-30" x="159.033203"/>
      </g>
     </g>
    </g>
    <g id="xtick_6">
     <g id="line2d_6">
      <g>
       <use xlink:href="#m1b04bf0b25" x="527.776091" y="642.866667" style="stroke: #000000; stroke-width: 0.8"/>
      </g>
     </g>
     <g id="text_6">
      <!-- 0.55 -->
      <g transform="translate(516.643279 657.465104) scale(0.1 -0.1)">
       <use xlink:href="#DejaVuSans-30"/>
       <use xlink:href="#DejaVuSans-2e" x="63.623047"/>
       <use xlink:href="#DejaVuSans-35" x="95.410156"/>
       <use xlink:href="#DejaVuSans-35" x="159.033203"/>
      </g>
     </g>
    </g>
    <g id="xtick_7">
     <g id="line2d_7">
      <g>
       <use xlink:href="#m1b04bf0b25" x="622.017717" y="642.866667" style="stroke: #000000; stroke-width: 0.8"/>
      </g>
     </g>
     <g id="text_7">
      <!-- 0.60 -->
      <g transform="translate(610.884905 657.465104) scale(0.1 -0.1)">
       <defs>
        <path id="DejaVuSans-36" d="M 2113 2584 
Q 1688 2584 1439 2293 
Q 1191 2003 1191 1497 
Q 1191 994 1439 701 
Q 1688 409 2113 409 
Q 2538 409 2786 701 
Q 3034 994 3034 1497 
Q 3034 2003 2786 2293 
Q 2538 2584 2113 2584 
z
M 3366 4563 
L 3366 3988 
Q 3128 4100 2886 4159 
Q 2644 4219 2406 4219 
Q 1781 4219 1451 3797 
Q 1122 3375 1075 2522 
Q 1259 2794 1537 2939 
Q 1816 3084 2150 3084 
Q 2853 3084 3261 2657 
Q 3669 2231 3669 1497 
Q 3669 778 3244 343 
Q 2819 -91 2113 -91 
Q 1303 -91 875 529 
Q 447 1150 447 2328 
Q 447 3434 972 4092 
Q 1497 4750 2381 4750 
Q 2619 4750 2861 4703 
Q 3103 4656 3366 4563 
z
" transform="scale(0.015625)"/>
       </defs>
       <use xlink:href="#DejaVuSans-30"/>
       <use xlink:href="#DejaVuSans-2e" x="63.623047"/>
       <use xlink:href="#DejaVuSans-36" x="95.410156"/>
       <use xlink:href="#DejaVuSans-30" x="159.033203"/>
      </g>
     </g>
    </g>
    <g id="xtick_8">
     <g id="line2d_8">
      <g>
       <use xlink:href="#m1b04bf0b25" x="716.259343" y="642.866667" style="stroke: #000000; stroke-width: 0.8"/>
      </g>
     </g>
     <g id="text_8">
      <!-- 0.65 -->
      <g transform="translate(705.126531 657.465104) scale(0.1 -0.1)">
       <use xlink:href="#DejaVuSans-30"/>
       <use xlink:href="#DejaVuSans-2e" x="63.623047"/>
       <use xlink:href="#DejaVuSans-36" x="95.410156"/>
       <use xlink:href="#DejaVuSans-35" x="159.033203"/>
      </g>
     </g>
    </g>
    <g id="xtick_9">
     <g id="line2d_9">
      <g>
       <use xlink:href="#m1b04bf0b25" x="810.500969" y="642.866667" style="stroke: #000000; stroke-width: 0.8"/>
      </g>
     </g>
     <g id="text_9">
      <!-- 0.70 -->
      <g transform="translate(799.368156 657.465104) scale(0.1 -0.1)">
       <defs>
        <path id="DejaVuSans-37" d="M 525 4666 
L 3525 4666 
L 3525 4397 
L 1831 0 
L 1172 0 
L 2766 4134 
L 525 4134 
L 525 4666 
z
" transform="scale(0.015625)"/>
       </defs>
       <use xlink:href="#DejaVuSans-30"/>
       <use xlink:href="#DejaVuSans-2e" x="63.623047"/>
       <use xlink:href="#DejaVuSans-37" x="95.410156"/>
       <use xlink:href="#DejaVuSans-30" x="159.033203"/>
      </g>
     </g>
    </g>
    <g id="text_10">
     <!-- Proteomic GC content -->
     <g transform="translate(375.785513 671.143229) scale(0.1 -0.1)">
      <defs>
       <path id="DejaVuSans-50" d="M 1259 4147 
L 1259 2394 
L 2053 2394 
Q 2494 2394 2734 2622 
Q 2975 2850 2975 3272 
Q 2975 3691 2734 3919 
Q 2494 4147 2053 4147 
L 1259 4147 
z
M 628 4666 
L 2053 4666 
Q 2838 4666 3239 4311 
Q 3641 3956 3641 3272 
Q 3641 2581 3239 2228 
Q 2838 1875 2053 1875 
L 1259 1875 
L 1259 0 
L 628 0 
L 628 4666 
z
" transform="scale(0.015625)"/>
       <path id="DejaVuSans-72" d="M 2631 2963 
Q 2534 3019 2420 3045 
Q 2306 3072 2169 3072 
Q 1681 3072 1420 2755 
Q 1159 2438 1159 1844 
L 1159 0 
L 581 0 
L 581 3500 
L 1159 3500 
L 1159 2956 
Q 1341 3275 1631 3429 
Q 1922 3584 2338 3584 
Q 2397 3584 2469 3576 
Q 2541 3569 2628 3553 
L 2631 2963 
z
" transform="scale(0.015625)"/>
       <path id="DejaVuSans-6f" d="M 1959 3097 
Q 1497 3097 1228 2736 
Q 959 2375 959 1747 
Q 959 1119 1226 758 
Q 1494 397 1959 397 
Q 2419 397 2687 759 
Q 2956 1122 2956 1747 
Q 2956 2369 2687 2733 
Q 2419 3097 1959 3097 
z
M 1959 3584 
Q 2709 3584 3137 3096 
Q 3566 2609 3566 1747 
Q 3566 888 3137 398 
Q 2709 -91 1959 -91 
Q 1206 -91 779 398 
Q 353 888 353 1747 
Q 353 2609 779 3096 
Q 1206 3584 1959 3584 
z
" transform="scale(0.015625)"/>
       <path id="DejaVuSans-74" d="M 1172 4494 
L 1172 3500 
L 2356 3500 
L 2356 3053 
L 1172 3053 
L 1172 1153 
Q 1172 725 1289 603 
Q 1406 481 1766 481 
L 2356 481 
L 2356 0 
L 1766 0 
Q 1100 0 847 248 
Q 594 497 594 1153 
L 594 3053 
L 172 3053 
L 172 3500 
L 594 3500 
L 594 4494 
L 1172 4494 
z
" transform="scale(0.015625)"/>
       <path id="DejaVuSans-65" d="M 3597 1894 
L 3597 1613 
L 953 1613 
Q 991 1019 1311 708 
Q 1631 397 2203 397 
Q 2534 397 2845 478 
Q 3156 559 3463 722 
L 3463 178 
Q 3153 47 2828 -22 
Q 2503 -91 2169 -91 
Q 1331 -91 842 396 
Q 353 884 353 1716 
Q 353 2575 817 3079 
Q 1281 3584 2069 3584 
Q 2775 3584 3186 3129 
Q 3597 2675 3597 1894 
z
M 3022 2063 
Q 3016 2534 2758 2815 
Q 2500 3097 2075 3097 
Q 1594 3097 1305 2825 
Q 1016 2553 972 2059 
L 3022 2063 
z
" transform="scale(0.015625)"/>
       <path id="DejaVuSans-6d" d="M 3328 2828 
Q 3544 3216 3844 3400 
Q 4144 3584 4550 3584 
Q 5097 3584 5394 3201 
Q 5691 2819 5691 2113 
L 5691 0 
L 5113 0 
L 5113 2094 
Q 5113 2597 4934 2840 
Q 4756 3084 4391 3084 
Q 3944 3084 3684 2787 
Q 3425 2491 3425 1978 
L 3425 0 
L 2847 0 
L 2847 2094 
Q 2847 2600 2669 2842 
Q 2491 3084 2119 3084 
Q 1678 3084 1418 2786 
Q 1159 2488 1159 1978 
L 1159 0 
L 581 0 
L 581 3500 
L 1159 3500 
L 1159 2956 
Q 1356 3278 1631 3431 
Q 1906 3584 2284 3584 
Q 2666 3584 2933 3390 
Q 3200 3197 3328 2828 
z
" transform="scale(0.015625)"/>
       <path id="DejaVuSans-69" d="M 603 3500 
L 1178 3500 
L 1178 0 
L 603 0 
L 603 3500 
z
M 603 4863 
L 1178 4863 
L 1178 4134 
L 603 4134 
L 603 4863 
z
" transform="scale(0.015625)"/>
       <path id="DejaVuSans-63" d="M 3122 3366 
L 3122 2828 
Q 2878 2963 2633 3030 
Q 2388 3097 2138 3097 
Q 1578 3097 1268 2742 
Q 959 2388 959 1747 
Q 959 1106 1268 751 
Q 1578 397 2138 397 
Q 2388 397 2633 464 
Q 2878 531 3122 666 
L 3122 134 
Q 2881 22 2623 -34 
Q 2366 -91 2075 -91 
Q 1284 -91 818 406 
Q 353 903 353 1747 
Q 353 2603 823 3093 
Q 1294 3584 2113 3584 
Q 2378 3584 2631 3529 
Q 2884 3475 3122 3366 
z
" transform="scale(0.015625)"/>
       <path id="DejaVuSans-20" transform="scale(0.015625)"/>
       <path id="DejaVuSans-47" d="M 3809 666 
L 3809 1919 
L 2778 1919 
L 2778 2438 
L 4434 2438 
L 4434 434 
Q 4069 175 3628 42 
Q 3188 -91 2688 -91 
Q 1594 -91 976 548 
Q 359 1188 359 2328 
Q 359 3472 976 4111 
Q 1594 4750 2688 4750 
Q 3144 4750 3555 4637 
Q 3966 4525 4313 4306 
L 4313 3634 
Q 3963 3931 3569 4081 
Q 3175 4231 2741 4231 
Q 1884 4231 1454 3753 
Q 1025 3275 1025 2328 
Q 1025 1384 1454 906 
Q 1884 428 2741 428 
Q 3075 428 3337 486 
Q 3600 544 3809 666 
z
" transform="scale(0.015625)"/>
       <path id="DejaVuSans-43" d="M 4122 4306 
L 4122 3641 
Q 3803 3938 3442 4084 
Q 3081 4231 2675 4231 
Q 1875 4231 1450 3742 
Q 1025 3253 1025 2328 
Q 1025 1406 1450 917 
Q 1875 428 2675 428 
Q 3081 428 3442 575 
Q 3803 722 4122 1019 
L 4122 359 
Q 3791 134 3420 21 
Q 3050 -91 2638 -91 
Q 1578 -91 968 557 
Q 359 1206 359 2328 
Q 359 3453 968 4101 
Q 1578 4750 2638 4750 
Q 3056 4750 3426 4639 
Q 3797 4528 4122 4306 
z
" transform="scale(0.015625)"/>
       <path id="DejaVuSans-6e" d="M 3513 2113 
L 3513 0 
L 2938 0 
L 2938 2094 
Q 2938 2591 2744 2837 
Q 2550 3084 2163 3084 
Q 1697 3084 1428 2787 
Q 1159 2491 1159 1978 
L 1159 0 
L 581 0 
L 581 3500 
L 1159 3500 
L 1159 2956 
Q 1366 3272 1645 3428 
Q 1925 3584 2291 3584 
Q 2894 3584 3203 3211 
Q 3513 2838 3513 2113 
z
" transform="scale(0.015625)"/>
      </defs>
      <use xlink:href="#DejaVuSans-50"/>
      <use xlink:href="#DejaVuSans-72" x="58.552734"/>
      <use xlink:href="#DejaVuSans-6f" x="97.416016"/>
      <use xlink:href="#DejaVuSans-74" x="158.597656"/>
      <use xlink:href="#DejaVuSans-65" x="197.806641"/>
      <use xlink:href="#DejaVuSans-6f" x="259.330078"/>
      <use xlink:href="#DejaVuSans-6d" x="320.511719"/>
      <use xlink:href="#DejaVuSans-69" x="417.923828"/>
      <use xlink:href="#DejaVuSans-63" x="445.707031"/>
      <use xlink:href="#DejaVuSans-20" x="500.6875"/>
      <use xlink:href="#DejaVuSans-47" x="532.474609"/>
      <use xlink:href="#DejaVuSans-43" x="609.964844"/>
      <use xlink:href="#DejaVuSans-20" x="679.789062"/>
      <use xlink:href="#DejaVuSans-63" x="711.576172"/>
      <use xlink:href="#DejaVuSans-6f" x="766.556641"/>
      <use xlink:href="#DejaVuSans-6e" x="827.738281"/>
      <use xlink:href="#DejaVuSans-74" x="891.117188"/>
      <use xlink:href="#DejaVuSans-65" x="930.326172"/>
      <use xlink:href="#DejaVuSans-6e" x="991.849609"/>
      <use xlink:href="#DejaVuSans-74" x="1055.228516"/>
     </g>
    </g>
   </g>
   <g id="matplotlib.axis_2">
    <g id="ytick_1">
     <g id="line2d_10">
      <defs>
       <path id="m126427f9bf" d="M 0 0 
L -3.5 0 
" style="stroke: #000000; stroke-width: 0.8"/>
      </defs>
      <g>
       <use xlink:href="#m126427f9bf" x="43.78125" y="625.236265" style="stroke: #000000; stroke-width: 0.8"/>
      </g>
     </g>
     <g id="text_11">
      <!-- 0.2 -->
      <g transform="translate(20.878125 629.035484) scale(0.1 -0.1)">
       <defs>
        <path id="DejaVuSans-32" d="M 1228 531 
L 3431 531 
L 3431 0 
L 469 0 
L 469 531 
Q 828 903 1448 1529 
Q 2069 2156 2228 2338 
Q 2531 2678 2651 2914 
Q 2772 3150 2772 3378 
Q 2772 3750 2511 3984 
Q 2250 4219 1831 4219 
Q 1534 4219 1204 4116 
Q 875 4013 500 3803 
L 500 4441 
Q 881 4594 1212 4672 
Q 1544 4750 1819 4750 
Q 2544 4750 2975 4387 
Q 3406 4025 3406 3419 
Q 3406 3131 3298 2873 
Q 3191 2616 2906 2266 
Q 2828 2175 2409 1742 
Q 1991 1309 1228 531 
z
" transform="scale(0.015625)"/>
       </defs>
       <use xlink:href="#DejaVuSans-30"/>
       <use xlink:href="#DejaVuSans-2e" x="63.623047"/>
       <use xlink:href="#DejaVuSans-32" x="95.410156"/>
      </g>
     </g>
    </g>
    <g id="ytick_2">
     <g id="line2d_11">
      <g>
       <use xlink:href="#m126427f9bf" x="43.78125" y="524.831939" style="stroke: #000000; stroke-width: 0.8"/>
      </g>
     </g>
     <g id="text_12">
      <!-- 0.3 -->
      <g transform="translate(20.878125 528.631158) scale(0.1 -0.1)">
       <use xlink:href="#DejaVuSans-30"/>
       <use xlink:href="#DejaVuSans-2e" x="63.623047"/>
       <use xlink:href="#DejaVuSans-33" x="95.410156"/>
      </g>
     </g>
    </g>
    <g id="ytick_3">
     <g id="line2d_12">
      <g>
       <use xlink:href="#m126427f9bf" x="43.78125" y="424.427613" style="stroke: #000000; stroke-width: 0.8"/>
      </g>
     </g>
     <g id="text_13">
      <!-- 0.4 -->
      <g transform="translate(20.878125 428.226832) scale(0.1 -0.1)">
       <use xlink:href="#DejaVuSans-30"/>
       <use xlink:href="#DejaVuSans-2e" x="63.623047"/>
       <use xlink:href="#DejaVuSans-34" x="95.410156"/>
      </g>
     </g>
    </g>
    <g id="ytick_4">
     <g id="line2d_13">
      <g>
       <use xlink:href="#m126427f9bf" x="43.78125" y="324.023287" style="stroke: #000000; stroke-width: 0.8"/>
      </g>
     </g>
     <g id="text_14">
      <!-- 0.5 -->
      <g transform="translate(20.878125 327.822506) scale(0.1 -0.1)">
       <use xlink:href="#DejaVuSans-30"/>
       <use xlink:href="#DejaVuSans-2e" x="63.623047"/>
       <use xlink:href="#DejaVuSans-35" x="95.410156"/>
      </g>
     </g>
    </g>
    <g id="ytick_5">
     <g id="line2d_14">
      <g>
       <use xlink:href="#m126427f9bf" x="43.78125" y="223.618961" style="stroke: #000000; stroke-width: 0.8"/>
      </g>
     </g>
     <g id="text_15">
      <!-- 0.6 -->
      <g transform="translate(20.878125 227.41818) scale(0.1 -0.1)">
       <use xlink:href="#DejaVuSans-30"/>
       <use xlink:href="#DejaVuSans-2e" x="63.623047"/>
       <use xlink:href="#DejaVuSans-36" x="95.410156"/>
      </g>
     </g>
    </g>
    <g id="text_16">
     <!-- Correlation coefficient -->
     <g transform="translate(14.798438 452.712284) rotate(-90) scale(0.1 -0.1)">
      <defs>
       <path id="DejaVuSans-6c" d="M 603 4863 
L 1178 4863 
L 1178 0 
L 603 0 
L 603 4863 
z
" transform="scale(0.015625)"/>
       <path id="DejaVuSans-61" d="M 2194 1759 
Q 1497 1759 1228 1600 
Q 959 1441 959 1056 
Q 959 750 1161 570 
Q 1363 391 1709 391 
Q 2188 391 2477 730 
Q 2766 1069 2766 1631 
L 2766 1759 
L 2194 1759 
z
M 3341 1997 
L 3341 0 
L 2766 0 
L 2766 531 
Q 2569 213 2275 61 
Q 1981 -91 1556 -91 
Q 1019 -91 701 211 
Q 384 513 384 1019 
Q 384 1609 779 1909 
Q 1175 2209 1959 2209 
L 2766 2209 
L 2766 2266 
Q 2766 2663 2505 2880 
Q 2244 3097 1772 3097 
Q 1472 3097 1187 3025 
Q 903 2953 641 2809 
L 641 3341 
Q 956 3463 1253 3523 
Q 1550 3584 1831 3584 
Q 2591 3584 2966 3190 
Q 3341 2797 3341 1997 
z
" transform="scale(0.015625)"/>
       <path id="DejaVuSans-66" d="M 2375 4863 
L 2375 4384 
L 1825 4384 
Q 1516 4384 1395 4259 
Q 1275 4134 1275 3809 
L 1275 3500 
L 2222 3500 
L 2222 3053 
L 1275 3053 
L 1275 0 
L 697 0 
L 697 3053 
L 147 3053 
L 147 3500 
L 697 3500 
L 697 3744 
Q 697 4328 969 4595 
Q 1241 4863 1831 4863 
L 2375 4863 
z
" transform="scale(0.015625)"/>
      </defs>
      <use xlink:href="#DejaVuSans-43"/>
      <use xlink:href="#DejaVuSans-6f" x="69.824219"/>
      <use xlink:href="#DejaVuSans-72" x="131.005859"/>
      <use xlink:href="#DejaVuSans-72" x="170.369141"/>
      <use xlink:href="#DejaVuSans-65" x="209.232422"/>
      <use xlink:href="#DejaVuSans-6c" x="270.755859"/>
      <use xlink:href="#DejaVuSans-61" x="298.539062"/>
      <use xlink:href="#DejaVuSans-74" x="359.818359"/>
      <use xlink:href="#DejaVuSans-69" x="399.027344"/>
      <use xlink:href="#DejaVuSans-6f" x="426.810547"/>
      <use xlink:href="#DejaVuSans-6e" x="487.992188"/>
      <use xlink:href="#DejaVuSans-20" x="551.371094"/>
      <use xlink:href="#DejaVuSans-63" x="583.158203"/>
      <use xlink:href="#DejaVuSans-6f" x="638.138672"/>
      <use xlink:href="#DejaVuSans-65" x="699.320312"/>
      <use xlink:href="#DejaVuSans-66" x="760.84375"/>
      <use xlink:href="#DejaVuSans-66" x="796.048828"/>
      <use xlink:href="#DejaVuSans-69" x="831.253906"/>
      <use xlink:href="#DejaVuSans-63" x="859.037109"/>
      <use xlink:href="#DejaVuSans-69" x="914.017578"/>
      <use xlink:href="#DejaVuSans-65" x="941.800781"/>
      <use xlink:href="#DejaVuSans-6e" x="1003.324219"/>
      <use xlink:href="#DejaVuSans-74" x="1066.703125"/>
     </g>
    </g>
   </g>
   <g id="line2d_15">
    <path d="M 78.938101 466.927599 
L 86.040495 465.039148 
L 93.142889 463.150697 
L 100.245283 461.262246 
L 107.347677 459.373795 
L 114.450071 457.485344 
L 121.552465 455.596893 
L 128.654859 453.708442 
L 135.757253 451.819991 
L 142.859647 449.93154 
L 149.962041 448.043089 
L 157.064435 446.154638 
L 164.166829 444.266187 
L 171.269224 442.377736 
L 178.371618 440.489286 
L 185.474012 438.600835 
L 192.576406 436.712384 
L 199.6788 434.823933 
L 206.781194 432.935482 
L 213.883588 431.047031 
L 220.985982 429.15858 
L 228.088376 427.270129 
L 235.19077 425.381678 
L 242.293164 423.493227 
L 249.395558 421.604776 
L 256.497952 419.716325 
L 263.600346 417.827874 
L 270.702741 415.939423 
L 277.805135 414.050972 
L 284.907529 412.162521 
L 292.009923 410.27407 
L 299.112317 408.385619 
L 306.214711 406.497168 
L 313.317105 404.608717 
L 320.419499 402.720267 
L 327.521893 400.831816 
L 334.624287 398.943365 
L 341.726681 397.054914 
L 348.829075 395.166463 
L 355.931469 393.278012 
L 363.033863 391.389561 
L 370.136258 389.50111 
L 377.238652 387.612659 
L 384.341046 385.724208 
L 391.44344 383.835757 
L 398.545834 381.947306 
L 405.648228 380.058855 
L 412.750622 378.170404 
L 419.853016 376.281953 
L 426.95541 374.393502 
L 434.057804 372.505051 
L 441.160198 370.6166 
L 448.262592 368.728149 
L 455.364986 366.839699 
L 462.46738 364.951248 
L 469.569775 363.062797 
L 476.672169 361.174346 
L 483.774563 359.285895 
L 490.876957 357.397444 
L 497.979351 355.508993 
L 505.081745 353.620542 
L 512.184139 351.732091 
L 519.286533 349.84364 
L 526.388927 347.955189 
L 533.491321 346.066738 
L 540.593715 344.178287 
L 547.696109 342.289836 
L 554.798503 340.401385 
L 561.900897 338.512934 
L 569.003292 336.624483 
L 576.105686 334.736032 
L 583.20808 332.847581 
L 590.310474 330.95913 
L 597.412868 329.07068 
L 604.515262 327.182229 
L 611.617656 325.293778 
L 618.72005 323.405327 
L 625.822444 321.516876 
L 632.924838 319.628425 
L 640.027232 317.739974 
L 647.129626 315.851523 
L 654.23202 313.963072 
L 661.334414 312.074621 
L 668.436809 310.18617 
L 675.539203 308.297719 
L 682.641597 306.409268 
L 689.743991 304.520817 
L 696.846385 302.632366 
L 703.948779 300.743915 
L 711.051173 298.855464 
L 718.153567 296.967013 
L 725.255961 295.078562 
L 732.358355 293.190111 
L 739.460749 291.301661 
L 746.563143 289.41321 
L 753.665537 287.524759 
L 760.767931 285.636308 
L 767.870325 283.747857 
L 774.97272 281.859406 
L 782.075114 279.970955 
" clip-path="url(#p7ff5dea213)" style="fill: none; stroke: #1f77b4; stroke-width: 2.25; stroke-linecap: square"/>
   </g>
   <g id="line2d_16">
    <path d="M 78.938101 397.169916 
L 86.040495 397.194734 
L 93.142889 397.219552 
L 100.245283 397.24437 
L 107.347677 397.269188 
L 114.450071 397.294006 
L 121.552465 397.318824 
L 128.654859 397.343642 
L 135.757253 397.36846 
L 142.859647 397.393278 
L 149.962041 397.418096 
L 157.064435 397.442914 
L 164.166829 397.467731 
L 171.269224 397.492549 
L 178.371618 397.517367 
L 185.474012 397.542185 
L 192.576406 397.567003 
L 199.6788 397.591821 
L 206.781194 397.616639 
L 213.883588 397.641457 
L 220.985982 397.666275 
L 228.088376 397.691093 
L 235.19077 397.715911 
L 242.293164 397.740729 
L 249.395558 397.765547 
L 256.497952 397.790365 
L 263.600346 397.815183 
L 270.702741 397.840001 
L 277.805135 397.864819 
L 284.907529 397.889637 
L 292.009923 397.914455 
L 299.112317 397.939273 
L 306.214711 397.964091 
L 313.317105 397.988909 
L 320.419499 398.013727 
L 327.521893 398.038545 
L 334.624287 398.063363 
L 341.726681 398.088181 
L 348.829075 398.112999 
L 355.931469 398.137816 
L 363.033863 398.162634 
L 370.136258 398.187452 
L 377.238652 398.21227 
L 384.341046 398.237088 
L 391.44344 398.261906 
L 398.545834 398.286724 
L 405.648228 398.311542 
L 412.750622 398.33636 
L 419.853016 398.361178 
L 426.95541 398.385996 
L 434.057804 398.410814 
L 441.160198 398.435632 
L 448.262592 398.46045 
L 455.364986 398.485268 
L 462.46738 398.510086 
L 469.569775 398.534904 
L 476.672169 398.559722 
L 483.774563 398.58454 
L 490.876957 398.609358 
L 497.979351 398.634176 
L 505.081745 398.658994 
L 512.184139 398.683812 
L 519.286533 398.70863 
L 526.388927 398.733448 
L 533.491321 398.758266 
L 540.593715 398.783084 
L 547.696109 398.807901 
L 554.798503 398.832719 
L 561.900897 398.857537 
L 569.003292 398.882355 
L 576.105686 398.907173 
L 583.20808 398.931991 
L 590.310474 398.956809 
L 597.412868 398.981627 
L 604.515262 399.006445 
L 611.617656 399.031263 
L 618.72005 399.056081 
L 625.822444 399.080899 
L 632.924838 399.105717 
L 640.027232 399.130535 
L 647.129626 399.155353 
L 654.23202 399.180171 
L 661.334414 399.204989 
L 668.436809 399.229807 
L 675.539203 399.254625 
L 682.641597 399.279443 
L 689.743991 399.304261 
L 696.846385 399.329079 
L 703.948779 399.353897 
L 711.051173 399.378715 
L 718.153567 399.403533 
L 725.255961 399.428351 
L 732.358355 399.453169 
L 739.460749 399.477986 
L 746.563143 399.502804 
L 753.665537 399.527622 
L 760.767931 399.55244 
L 767.870325 399.577258 
L 774.97272 399.602076 
L 782.075114 399.626894 
" clip-path="url(#p7ff5dea213)" style="fill: none; stroke: #ff7f0e; stroke-width: 2.25; stroke-linecap: square"/>
   </g>
   <g id="patch_3">
    <path d="M 43.78125 642.866667 
L 43.78125 151.965714 
" style="fill: none; stroke: #000000; stroke-width: 0.8; stroke-linejoin: miter; stroke-linecap: square"/>
   </g>
   <g id="patch_4">
    <path d="M 43.78125 642.866667 
L 817.231964 642.866667 
" style="fill: none; stroke: #000000; stroke-width: 0.8; stroke-linejoin: miter; stroke-linecap: square"/>
   </g>
   <g id="legend_1">
    <g id="patch_5">
     <path d="M 704.119464 637.866667 
L 810.231964 637.866667 
Q 812.231964 637.866667 812.231964 635.866667 
L 812.231964 607.510417 
Q 812.231964 605.510417 810.231964 605.510417 
L 704.119464 605.510417 
Q 702.119464 605.510417 702.119464 607.510417 
L 702.119464 635.866667 
Q 702.119464 637.866667 704.119464 637.866667 
z
" style="fill: #ffffff; opacity: 0.8; stroke: #cccccc; stroke-linejoin: miter"/>
    </g>
    <g id="PathCollection_3">
     <g>
      <use xlink:href="#m8d2be8d1d4" x="716.119464" y="614.483854" style="fill: #4169e1; fill-opacity: 0.5; stroke: #000000; stroke-opacity: 0.5"/>
     </g>
    </g>
    <g id="text_17">
     <!-- Codon number -->
     <g transform="translate(734.119464 617.108854) scale(0.1 -0.1)">
      <defs>
       <path id="DejaVuSans-64" d="M 2906 2969 
L 2906 4863 
L 3481 4863 
L 3481 0 
L 2906 0 
L 2906 525 
Q 2725 213 2448 61 
Q 2172 -91 1784 -91 
Q 1150 -91 751 415 
Q 353 922 353 1747 
Q 353 2572 751 3078 
Q 1150 3584 1784 3584 
Q 2172 3584 2448 3432 
Q 2725 3281 2906 2969 
z
M 947 1747 
Q 947 1113 1208 752 
Q 1469 391 1925 391 
Q 2381 391 2643 752 
Q 2906 1113 2906 1747 
Q 2906 2381 2643 2742 
Q 2381 3103 1925 3103 
Q 1469 3103 1208 2742 
Q 947 2381 947 1747 
z
" transform="scale(0.015625)"/>
       <path id="DejaVuSans-75" d="M 544 1381 
L 544 3500 
L 1119 3500 
L 1119 1403 
Q 1119 906 1312 657 
Q 1506 409 1894 409 
Q 2359 409 2629 706 
Q 2900 1003 2900 1516 
L 2900 3500 
L 3475 3500 
L 3475 0 
L 2900 0 
L 2900 538 
Q 2691 219 2414 64 
Q 2138 -91 1772 -91 
Q 1169 -91 856 284 
Q 544 659 544 1381 
z
M 1991 3584 
L 1991 3584 
z
" transform="scale(0.015625)"/>
       <path id="DejaVuSans-62" d="M 3116 1747 
Q 3116 2381 2855 2742 
Q 2594 3103 2138 3103 
Q 1681 3103 1420 2742 
Q 1159 2381 1159 1747 
Q 1159 1113 1420 752 
Q 1681 391 2138 391 
Q 2594 391 2855 752 
Q 3116 1113 3116 1747 
z
M 1159 2969 
Q 1341 3281 1617 3432 
Q 1894 3584 2278 3584 
Q 2916 3584 3314 3078 
Q 3713 2572 3713 1747 
Q 3713 922 3314 415 
Q 2916 -91 2278 -91 
Q 1894 -91 1617 61 
Q 1341 213 1159 525 
L 1159 0 
L 581 0 
L 581 4863 
L 1159 4863 
L 1159 2969 
z
" transform="scale(0.015625)"/>
      </defs>
      <use xlink:href="#DejaVuSans-43"/>
      <use xlink:href="#DejaVuSans-6f" x="69.824219"/>
      <use xlink:href="#DejaVuSans-64" x="131.005859"/>
      <use xlink:href="#DejaVuSans-6f" x="194.482422"/>
      <use xlink:href="#DejaVuSans-6e" x="255.664062"/>
      <use xlink:href="#DejaVuSans-20" x="319.042969"/>
      <use xlink:href="#DejaVuSans-6e" x="350.830078"/>
      <use xlink:href="#DejaVuSans-75" x="414.208984"/>
      <use xlink:href="#DejaVuSans-6d" x="477.587891"/>
      <use xlink:href="#DejaVuSans-62" x="575"/>
      <use xlink:href="#DejaVuSans-65" x="638.476562"/>
      <use xlink:href="#DejaVuSans-72" x="700"/>
     </g>
    </g>
    <g id="PathCollection_4">
     <g>
      <use xlink:href="#m35db3f5010" x="716.119464" y="629.161979" style="fill: #ff8c00; fill-opacity: 0.5; stroke: #000000; stroke-opacity: 0.5"/>
     </g>
    </g>
    <g id="text_18">
     <!-- Codon+GC -->
     <g transform="translate(734.119464 631.786979) scale(0.1 -0.1)">
      <defs>
       <path id="DejaVuSans-2b" d="M 2944 4013 
L 2944 2272 
L 4684 2272 
L 4684 1741 
L 2944 1741 
L 2944 0 
L 2419 0 
L 2419 1741 
L 678 1741 
L 678 2272 
L 2419 2272 
L 2419 4013 
L 2944 4013 
z
" transform="scale(0.015625)"/>
      </defs>
      <use xlink:href="#DejaVuSans-43"/>
      <use xlink:href="#DejaVuSans-6f" x="69.824219"/>
      <use xlink:href="#DejaVuSans-64" x="131.005859"/>
      <use xlink:href="#DejaVuSans-6f" x="194.482422"/>
      <use xlink:href="#DejaVuSans-6e" x="255.664062"/>
      <use xlink:href="#DejaVuSans-2b" x="319.042969"/>
      <use xlink:href="#DejaVuSans-47" x="402.832031"/>
      <use xlink:href="#DejaVuSans-43" x="480.322266"/>
     </g>
    </g>
   </g>
  </g>
  <g id="axes_2">
   <g id="patch_6">
    <path d="M 43.78125 135.038095 
L 817.231964 135.038095 
L 817.231964 50.4 
L 43.78125 50.4 
z
" style="fill: #ffffff"/>
   </g>
   <g id="PolyCollection_3">
    <defs>
     <path id="mf767685214" d="M 78.938101 -607.390752 
L 78.938101 -545.384821 
L 166.830227 -545.384821 
L 166.830227 -545.384821 
L 254.722354 -545.384821 
L 254.722354 -545.384821 
L 342.614481 -545.384821 
L 342.614481 -545.384821 
L 430.506607 -545.384821 
L 430.506607 -545.384821 
L 518.398734 -545.384821 
L 518.398734 -545.384821 
L 606.29086 -545.384821 
L 606.29086 -545.384821 
L 694.182987 -545.384821 
L 694.182987 -545.384821 
L 782.075114 -545.384821 
L 782.075114 -545.384821 
L 782.075114 -582.58838 
L 782.075114 -582.58838 
L 782.075114 -582.58838 
L 694.182987 -582.58838 
L 694.182987 -588.788973 
L 606.29086 -588.788973 
L 606.29086 -625.992531 
L 518.398734 -625.992531 
L 518.398734 -594.989566 
L 430.506607 -594.989566 
L 430.506607 -601.190159 
L 342.614481 -601.190159 
L 342.614481 -588.788973 
L 254.722354 -588.788973 
L 254.722354 -588.788973 
L 166.830227 -588.788973 
L 166.830227 -607.390752 
L 78.938101 -607.390752 
z
" style="stroke: #000000"/>
    </defs>
    <g clip-path="url(#p987b024167)">
     <use xlink:href="#mf767685214" x="0" y="680.422917" style="fill: #800080; fill-opacity: 0.75; stroke: #000000"/>
    </g>
   </g>
   <g id="matplotlib.axis_3">
    <g id="xtick_10">
     <g id="line2d_17">
      <g>
       <use xlink:href="#m1b04bf0b25" x="56.567963" y="135.038095" style="stroke: #000000; stroke-width: 0.8"/>
      </g>
     </g>
    </g>
    <g id="xtick_11">
     <g id="line2d_18">
      <g>
       <use xlink:href="#m1b04bf0b25" x="150.809588" y="135.038095" style="stroke: #000000; stroke-width: 0.8"/>
      </g>
     </g>
    </g>
    <g id="xtick_12">
     <g id="line2d_19">
      <g>
       <use xlink:href="#m1b04bf0b25" x="245.051214" y="135.038095" style="stroke: #000000; stroke-width: 0.8"/>
      </g>
     </g>
    </g>
    <g id="xtick_13">
     <g id="line2d_20">
      <g>
       <use xlink:href="#m1b04bf0b25" x="339.29284" y="135.038095" style="stroke: #000000; stroke-width: 0.8"/>
      </g>
     </g>
    </g>
    <g id="xtick_14">
     <g id="line2d_21">
      <g>
       <use xlink:href="#m1b04bf0b25" x="433.534466" y="135.038095" style="stroke: #000000; stroke-width: 0.8"/>
      </g>
     </g>
    </g>
    <g id="xtick_15">
     <g id="line2d_22">
      <g>
       <use xlink:href="#m1b04bf0b25" x="527.776091" y="135.038095" style="stroke: #000000; stroke-width: 0.8"/>
      </g>
     </g>
    </g>
    <g id="xtick_16">
     <g id="line2d_23">
      <g>
       <use xlink:href="#m1b04bf0b25" x="622.017717" y="135.038095" style="stroke: #000000; stroke-width: 0.8"/>
      </g>
     </g>
    </g>
    <g id="xtick_17">
     <g id="line2d_24">
      <g>
       <use xlink:href="#m1b04bf0b25" x="716.259343" y="135.038095" style="stroke: #000000; stroke-width: 0.8"/>
      </g>
     </g>
    </g>
    <g id="xtick_18">
     <g id="line2d_25">
      <g>
       <use xlink:href="#m1b04bf0b25" x="810.500969" y="135.038095" style="stroke: #000000; stroke-width: 0.8"/>
      </g>
     </g>
    </g>
   </g>
   <g id="matplotlib.axis_4">
    <g id="ytick_6"/>
    <g id="ytick_7"/>
    <g id="ytick_8"/>
   </g>
   <g id="patch_7">
    <path d="M 43.78125 135.038095 
L 817.231964 135.038095 
" style="fill: none; stroke: #000000; stroke-width: 0.8; stroke-linejoin: miter; stroke-linecap: square"/>
   </g>
  </g>
  <g id="axes_3">
   <g id="patch_8">
    <path d="M 843.902679 642.866667 
L 977.25625 642.866667 
L 977.25625 151.965714 
L 843.902679 151.965714 
z
" style="fill: #ffffff"/>
   </g>
   <g id="PolyCollection_4">
    <defs>
     <path id="m6576029a3b" d="M 874.075613 -115.773437 
L 849.964205 -115.773437 
L 849.964205 -115.773437 
L 849.964205 -180.835118 
L 849.964205 -180.835118 
L 849.964205 -245.896799 
L 849.964205 -245.896799 
L 849.964205 -310.95848 
L 849.964205 -310.95848 
L 849.964205 -376.020161 
L 849.964205 -376.020161 
L 849.964205 -441.081842 
L 863.742152 -441.081842 
L 863.742152 -441.081842 
L 863.742152 -376.020161 
L 887.853561 -376.020161 
L 887.853561 -310.95848 
L 918.853943 -310.95848 
L 918.853943 -245.896799 
L 898.187022 -245.896799 
L 898.187022 -180.835118 
L 887.853561 -180.835118 
L 887.853561 -115.773437 
L 874.075613 -115.773437 
z
" style="stroke: #000000; stroke-opacity: 0.5"/>
    </defs>
    <g clip-path="url(#pee456a71ed)">
     <use xlink:href="#m6576029a3b" x="0" y="680.422917" style="fill: #4169e1; fill-opacity: 0.5; stroke: #000000; stroke-opacity: 0.5"/>
    </g>
   </g>
   <g id="PolyCollection_5">
    <defs>
     <path id="m92122fb1d9" d="M 860.505989 -59.86993 
L 849.964205 -59.86993 
L 849.964205 -59.86993 
L 849.964205 -102.387231 
L 849.964205 -102.387231 
L 849.964205 -144.904533 
L 849.964205 -144.904533 
L 849.964205 -187.421834 
L 849.964205 -187.421834 
L 849.964205 -229.939136 
L 849.964205 -229.939136 
L 849.964205 -272.456437 
L 849.964205 -272.456437 
L 849.964205 -314.973739 
L 849.964205 -314.973739 
L 849.964205 -357.49104 
L 849.964205 -357.49104 
L 849.964205 -400.008342 
L 881.589557 -400.008342 
L 881.589557 -400.008342 
L 881.589557 -357.49104 
L 871.047773 -357.49104 
L 871.047773 -314.973739 
L 892.131342 -314.973739 
L 892.131342 -272.456437 
L 971.194724 -272.456437 
L 971.194724 -229.939136 
L 918.485803 -229.939136 
L 918.485803 -187.421834 
L 871.047773 -187.421834 
L 871.047773 -144.904533 
L 876.318665 -144.904533 
L 876.318665 -102.387231 
L 860.505989 -102.387231 
L 860.505989 -59.86993 
L 860.505989 -59.86993 
z
" style="stroke: #000000; stroke-opacity: 0.5"/>
    </defs>
    <g clip-path="url(#pee456a71ed)">
     <use xlink:href="#m92122fb1d9" x="0" y="680.422917" style="fill: #ff8c00; fill-opacity: 0.5; stroke: #000000; stroke-opacity: 0.5"/>
    </g>
   </g>
   <g id="matplotlib.axis_5">
    <g id="xtick_19"/>
    <g id="xtick_20"/>
    <g id="xtick_21"/>
    <g id="xtick_22"/>
   </g>
   <g id="matplotlib.axis_6">
    <g id="ytick_9">
     <g id="line2d_26">
      <g>
       <use xlink:href="#m126427f9bf" x="843.902679" y="625.236265" style="stroke: #000000; stroke-width: 0.8"/>
      </g>
     </g>
    </g>
    <g id="ytick_10">
     <g id="line2d_27">
      <g>
       <use xlink:href="#m126427f9bf" x="843.902679" y="524.831939" style="stroke: #000000; stroke-width: 0.8"/>
      </g>
     </g>
    </g>
    <g id="ytick_11">
     <g id="line2d_28">
      <g>
       <use xlink:href="#m126427f9bf" x="843.902679" y="424.427613" style="stroke: #000000; stroke-width: 0.8"/>
      </g>
     </g>
    </g>
    <g id="ytick_12">
     <g id="line2d_29">
      <g>
       <use xlink:href="#m126427f9bf" x="843.902679" y="324.023287" style="stroke: #000000; stroke-width: 0.8"/>
      </g>
     </g>
    </g>
    <g id="ytick_13">
     <g id="line2d_30">
      <g>
       <use xlink:href="#m126427f9bf" x="843.902679" y="223.618961" style="stroke: #000000; stroke-width: 0.8"/>
      </g>
     </g>
    </g>
   </g>
   <g id="patch_9">
    <path d="M 843.902679 642.866667 
L 843.902679 151.965714 
" style="fill: none; stroke: #000000; stroke-width: 0.8; stroke-linejoin: miter; stroke-linecap: square"/>
   </g>
  </g>
  <g id="text_19">
   <!-- Archaea - Kendall's Tau correlation coefficients for genetic code: AY -->
   <g transform="translate(262.425625 16.318125) scale(0.12 -0.12)">
    <defs>
     <path id="DejaVuSans-41" d="M 2188 4044 
L 1331 1722 
L 3047 1722 
L 2188 4044 
z
M 1831 4666 
L 2547 4666 
L 4325 0 
L 3669 0 
L 3244 1197 
L 1141 1197 
L 716 0 
L 50 0 
L 1831 4666 
z
" transform="scale(0.015625)"/>
     <path id="DejaVuSans-68" d="M 3513 2113 
L 3513 0 
L 2938 0 
L 2938 2094 
Q 2938 2591 2744 2837 
Q 2550 3084 2163 3084 
Q 1697 3084 1428 2787 
Q 1159 2491 1159 1978 
L 1159 0 
L 581 0 
L 581 4863 
L 1159 4863 
L 1159 2956 
Q 1366 3272 1645 3428 
Q 1925 3584 2291 3584 
Q 2894 3584 3203 3211 
Q 3513 2838 3513 2113 
z
" transform="scale(0.015625)"/>
     <path id="DejaVuSans-2d" d="M 313 2009 
L 1997 2009 
L 1997 1497 
L 313 1497 
L 313 2009 
z
" transform="scale(0.015625)"/>
     <path id="DejaVuSans-4b" d="M 628 4666 
L 1259 4666 
L 1259 2694 
L 3353 4666 
L 4166 4666 
L 1850 2491 
L 4331 0 
L 3500 0 
L 1259 2247 
L 1259 0 
L 628 0 
L 628 4666 
z
" transform="scale(0.015625)"/>
     <path id="DejaVuSans-27" d="M 1147 4666 
L 1147 2931 
L 616 2931 
L 616 4666 
L 1147 4666 
z
" transform="scale(0.015625)"/>
     <path id="DejaVuSans-73" d="M 2834 3397 
L 2834 2853 
Q 2591 2978 2328 3040 
Q 2066 3103 1784 3103 
Q 1356 3103 1142 2972 
Q 928 2841 928 2578 
Q 928 2378 1081 2264 
Q 1234 2150 1697 2047 
L 1894 2003 
Q 2506 1872 2764 1633 
Q 3022 1394 3022 966 
Q 3022 478 2636 193 
Q 2250 -91 1575 -91 
Q 1294 -91 989 -36 
Q 684 19 347 128 
L 347 722 
Q 666 556 975 473 
Q 1284 391 1588 391 
Q 1994 391 2212 530 
Q 2431 669 2431 922 
Q 2431 1156 2273 1281 
Q 2116 1406 1581 1522 
L 1381 1569 
Q 847 1681 609 1914 
Q 372 2147 372 2553 
Q 372 3047 722 3315 
Q 1072 3584 1716 3584 
Q 2034 3584 2315 3537 
Q 2597 3491 2834 3397 
z
" transform="scale(0.015625)"/>
     <path id="DejaVuSans-54" d="M -19 4666 
L 3928 4666 
L 3928 4134 
L 2272 4134 
L 2272 0 
L 1638 0 
L 1638 4134 
L -19 4134 
L -19 4666 
z
" transform="scale(0.015625)"/>
     <path id="DejaVuSans-67" d="M 2906 1791 
Q 2906 2416 2648 2759 
Q 2391 3103 1925 3103 
Q 1463 3103 1205 2759 
Q 947 2416 947 1791 
Q 947 1169 1205 825 
Q 1463 481 1925 481 
Q 2391 481 2648 825 
Q 2906 1169 2906 1791 
z
M 3481 434 
Q 3481 -459 3084 -895 
Q 2688 -1331 1869 -1331 
Q 1566 -1331 1297 -1286 
Q 1028 -1241 775 -1147 
L 775 -588 
Q 1028 -725 1275 -790 
Q 1522 -856 1778 -856 
Q 2344 -856 2625 -561 
Q 2906 -266 2906 331 
L 2906 616 
Q 2728 306 2450 153 
Q 2172 0 1784 0 
Q 1141 0 747 490 
Q 353 981 353 1791 
Q 353 2603 747 3093 
Q 1141 3584 1784 3584 
Q 2172 3584 2450 3431 
Q 2728 3278 2906 2969 
L 2906 3500 
L 3481 3500 
L 3481 434 
z
" transform="scale(0.015625)"/>
     <path id="DejaVuSans-3a" d="M 750 794 
L 1409 794 
L 1409 0 
L 750 0 
L 750 794 
z
M 750 3309 
L 1409 3309 
L 1409 2516 
L 750 2516 
L 750 3309 
z
" transform="scale(0.015625)"/>
     <path id="DejaVuSans-59" d="M -13 4666 
L 666 4666 
L 1959 2747 
L 3244 4666 
L 3922 4666 
L 2272 2222 
L 2272 0 
L 1638 0 
L 1638 2222 
L -13 4666 
z
" transform="scale(0.015625)"/>
    </defs>
    <use xlink:href="#DejaVuSans-41"/>
    <use xlink:href="#DejaVuSans-72" x="68.408203"/>
    <use xlink:href="#DejaVuSans-63" x="107.271484"/>
    <use xlink:href="#DejaVuSans-68" x="162.251953"/>
    <use xlink:href="#DejaVuSans-61" x="225.630859"/>
    <use xlink:href="#DejaVuSans-65" x="286.910156"/>
    <use xlink:href="#DejaVuSans-61" x="348.433594"/>
    <use xlink:href="#DejaVuSans-20" x="409.712891"/>
    <use xlink:href="#DejaVuSans-2d" x="441.5"/>
    <use xlink:href="#DejaVuSans-20" x="477.583984"/>
    <use xlink:href="#DejaVuSans-4b" x="509.371094"/>
    <use xlink:href="#DejaVuSans-65" x="569.947266"/>
    <use xlink:href="#DejaVuSans-6e" x="631.470703"/>
    <use xlink:href="#DejaVuSans-64" x="694.849609"/>
    <use xlink:href="#DejaVuSans-61" x="758.326172"/>
    <use xlink:href="#DejaVuSans-6c" x="819.605469"/>
    <use xlink:href="#DejaVuSans-6c" x="847.388672"/>
    <use xlink:href="#DejaVuSans-27" x="875.171875"/>
    <use xlink:href="#DejaVuSans-73" x="902.662109"/>
    <use xlink:href="#DejaVuSans-20" x="954.761719"/>
    <use xlink:href="#DejaVuSans-54" x="986.548828"/>
    <use xlink:href="#DejaVuSans-61" x="1031.132812"/>
    <use xlink:href="#DejaVuSans-75" x="1092.412109"/>
    <use xlink:href="#DejaVuSans-20" x="1155.791016"/>
    <use xlink:href="#DejaVuSans-63" x="1187.578125"/>
    <use xlink:href="#DejaVuSans-6f" x="1242.558594"/>
    <use xlink:href="#DejaVuSans-72" x="1303.740234"/>
    <use xlink:href="#DejaVuSans-72" x="1343.103516"/>
    <use xlink:href="#DejaVuSans-65" x="1381.966797"/>
    <use xlink:href="#DejaVuSans-6c" x="1443.490234"/>
    <use xlink:href="#DejaVuSans-61" x="1471.273438"/>
    <use xlink:href="#DejaVuSans-74" x="1532.552734"/>
    <use xlink:href="#DejaVuSans-69" x="1571.761719"/>
    <use xlink:href="#DejaVuSans-6f" x="1599.544922"/>
    <use xlink:href="#DejaVuSans-6e" x="1660.726562"/>
    <use xlink:href="#DejaVuSans-20" x="1724.105469"/>
    <use xlink:href="#DejaVuSans-63" x="1755.892578"/>
    <use xlink:href="#DejaVuSans-6f" x="1810.873047"/>
    <use xlink:href="#DejaVuSans-65" x="1872.054688"/>
    <use xlink:href="#DejaVuSans-66" x="1933.578125"/>
    <use xlink:href="#DejaVuSans-66" x="1968.783203"/>
    <use xlink:href="#DejaVuSans-69" x="2003.988281"/>
    <use xlink:href="#DejaVuSans-63" x="2031.771484"/>
    <use xlink:href="#DejaVuSans-69" x="2086.751953"/>
    <use xlink:href="#DejaVuSans-65" x="2114.535156"/>
    <use xlink:href="#DejaVuSans-6e" x="2176.058594"/>
    <use xlink:href="#DejaVuSans-74" x="2239.4375"/>
    <use xlink:href="#DejaVuSans-73" x="2278.646484"/>
    <use xlink:href="#DejaVuSans-20" x="2330.746094"/>
    <use xlink:href="#DejaVuSans-66" x="2362.533203"/>
    <use xlink:href="#DejaVuSans-6f" x="2397.738281"/>
    <use xlink:href="#DejaVuSans-72" x="2458.919922"/>
    <use xlink:href="#DejaVuSans-20" x="2500.033203"/>
    <use xlink:href="#DejaVuSans-67" x="2531.820312"/>
    <use xlink:href="#DejaVuSans-65" x="2595.296875"/>
    <use xlink:href="#DejaVuSans-6e" x="2656.820312"/>
    <use xlink:href="#DejaVuSans-65" x="2720.199219"/>
    <use xlink:href="#DejaVuSans-74" x="2781.722656"/>
    <use xlink:href="#DejaVuSans-69" x="2820.931641"/>
    <use xlink:href="#DejaVuSans-63" x="2848.714844"/>
    <use xlink:href="#DejaVuSans-20" x="2903.695312"/>
    <use xlink:href="#DejaVuSans-63" x="2935.482422"/>
    <use xlink:href="#DejaVuSans-6f" x="2990.462891"/>
    <use xlink:href="#DejaVuSans-64" x="3051.644531"/>
    <use xlink:href="#DejaVuSans-65" x="3115.121094"/>
    <use xlink:href="#DejaVuSans-3a" x="3176.644531"/>
    <use xlink:href="#DejaVuSans-20" x="3210.335938"/>
    <use xlink:href="#DejaVuSans-41" x="3242.123047"/>
    <use xlink:href="#DejaVuSans-59" x="3302.78125"/>
   </g>
  </g>
 </g>
 <defs>
  <clipPath id="p7ff5dea213">
   <rect x="43.78125" y="151.965714" width="773.450714" height="490.900952"/>
  </clipPath>
  <clipPath id="p987b024167">
   <rect x="43.78125" y="50.4" width="773.450714" height="84.638095"/>
  </clipPath>
  <clipPath id="pee456a71ed">
   <rect x="843.902679" y="151.965714" width="133.353571" height="490.900952"/>
  </clipPath>
 </defs>
</svg>
