<?xml version="1.0" encoding="utf-8" standalone="no"?>
<!DOCTYPE svg PUBLIC "-//W3C//DTD SVG 1.1//EN"
  "http://www.w3.org/Graphics/SVG/1.1/DTD/svg11.dtd">
<svg xmlns:xlink="http://www.w3.org/1999/xlink" width="894.34375pt" height="649.55625pt" viewBox="0 0 894.34375 649.55625" xmlns="http://www.w3.org/2000/svg" version="1.1">
 <metadata>
  <rdf:RDF xmlns:dc="http://purl.org/dc/elements/1.1/" xmlns:cc="http://creativecommons.org/ns#" xmlns:rdf="http://www.w3.org/1999/02/22-rdf-syntax-ns#">
   <cc:Work>
    <dc:type rdf:resource="http://purl.org/dc/dcmitype/StillImage"/>
    <dc:date>2024-09-24T16:09:03.929059</dc:date>
    <dc:format>image/svg+xml</dc:format>
    <dc:creator>
     <cc:Agent>
      <dc:title>Matplotlib v3.8.3, https://matplotlib.org/</dc:title>
     </cc:Agent>
    </dc:creator>
   </cc:Work>
  </rdf:RDF>
 </metadata>
 <defs>
  <style type="text/css">*{stroke-linejoin: round; stroke-linecap: butt}</style>
 </defs>
 <g id="figure_1">
  <g id="patch_1">
   <path d="M 0 649.55625 
L 894.34375 649.55625 
L 894.34375 0 
L 0 0 
z
" style="fill: #ffffff"/>
  </g>
  <g id="axes_1">
   <g id="patch_2">
    <path d="M 50.14375 309.6 
L 448.715179 309.6 
L 448.715179 57.6 
L 50.14375 57.6 
z
" style="fill: #ffffff"/>
   </g>
   <g id="PathCollection_1">
    <defs>
     <path id="m4bacc490dd" d="M 0 3.535534 
C 0.937635 3.535534 1.836992 3.163008 2.5 2.5 
C 3.163008 1.836992 3.535534 0.937635 3.535534 0 
C 3.535534 -0.937635 3.163008 -1.836992 2.5 -2.5 
C 1.836992 -3.163008 0.937635 -3.535534 0 -3.535534 
C -0.937635 -3.535534 -1.836992 -3.163008 -2.5 -2.5 
C -3.163008 -1.836992 -3.535534 -0.937635 -3.535534 0 
C -3.535534 0.937635 -3.163008 1.836992 -2.5 2.5 
C -1.836992 3.163008 -0.937635 3.535534 0 3.535534 
z
" style="stroke: #1f77b4; stroke-opacity: 0.8"/>
    </defs>
    <g clip-path="url(#pff8edc85a0)">
     <use xlink:href="#m4bacc490dd" x="68.260633" y="259.583166" style="fill: #1f77b4; fill-opacity: 0.8; stroke: #1f77b4; stroke-opacity: 0.8"/>
     <use xlink:href="#m4bacc490dd" x="68.260633" y="298.145455" style="fill: #1f77b4; fill-opacity: 0.8; stroke: #1f77b4; stroke-opacity: 0.8"/>
     <use xlink:href="#m4bacc490dd" x="128.650244" y="295.898171" style="fill: #1f77b4; fill-opacity: 0.8; stroke: #1f77b4; stroke-opacity: 0.8"/>
     <use xlink:href="#m4bacc490dd" x="128.650244" y="169.600902" style="fill: #1f77b4; fill-opacity: 0.8; stroke: #1f77b4; stroke-opacity: 0.8"/>
     <use xlink:href="#m4bacc490dd" x="128.650244" y="130.255379" style="fill: #1f77b4; fill-opacity: 0.8; stroke: #1f77b4; stroke-opacity: 0.8"/>
     <use xlink:href="#m4bacc490dd" x="128.650244" y="244.818967" style="fill: #1f77b4; fill-opacity: 0.8; stroke: #1f77b4; stroke-opacity: 0.8"/>
     <use xlink:href="#m4bacc490dd" x="128.650244" y="274.146714" style="fill: #1f77b4; fill-opacity: 0.8; stroke: #1f77b4; stroke-opacity: 0.8"/>
     <use xlink:href="#m4bacc490dd" x="128.650244" y="171.865695" style="fill: #1f77b4; fill-opacity: 0.8; stroke: #1f77b4; stroke-opacity: 0.8"/>
     <use xlink:href="#m4bacc490dd" x="128.650244" y="238.111035" style="fill: #1f77b4; fill-opacity: 0.8; stroke: #1f77b4; stroke-opacity: 0.8"/>
     <use xlink:href="#m4bacc490dd" x="128.650244" y="265.297797" style="fill: #1f77b4; fill-opacity: 0.8; stroke: #1f77b4; stroke-opacity: 0.8"/>
     <use xlink:href="#m4bacc490dd" x="128.650244" y="239.642358" style="fill: #1f77b4; fill-opacity: 0.8; stroke: #1f77b4; stroke-opacity: 0.8"/>
     <use xlink:href="#m4bacc490dd" x="189.039854" y="146.455457" style="fill: #1f77b4; fill-opacity: 0.8; stroke: #1f77b4; stroke-opacity: 0.8"/>
     <use xlink:href="#m4bacc490dd" x="249.429464" y="149.462544" style="fill: #1f77b4; fill-opacity: 0.8; stroke: #1f77b4; stroke-opacity: 0.8"/>
     <use xlink:href="#m4bacc490dd" x="249.429464" y="139.937108" style="fill: #1f77b4; fill-opacity: 0.8; stroke: #1f77b4; stroke-opacity: 0.8"/>
     <use xlink:href="#m4bacc490dd" x="249.429464" y="218.634915" style="fill: #1f77b4; fill-opacity: 0.8; stroke: #1f77b4; stroke-opacity: 0.8"/>
     <use xlink:href="#m4bacc490dd" x="249.429464" y="205.19708" style="fill: #1f77b4; fill-opacity: 0.8; stroke: #1f77b4; stroke-opacity: 0.8"/>
     <use xlink:href="#m4bacc490dd" x="249.429464" y="120.279285" style="fill: #1f77b4; fill-opacity: 0.8; stroke: #1f77b4; stroke-opacity: 0.8"/>
     <use xlink:href="#m4bacc490dd" x="430.598295" y="114.506162" style="fill: #1f77b4; fill-opacity: 0.8; stroke: #1f77b4; stroke-opacity: 0.8"/>
     <use xlink:href="#m4bacc490dd" x="370.208685" y="180.549182" style="fill: #1f77b4; fill-opacity: 0.8; stroke: #1f77b4; stroke-opacity: 0.8"/>
     <use xlink:href="#m4bacc490dd" x="370.208685" y="191.164952" style="fill: #1f77b4; fill-opacity: 0.8; stroke: #1f77b4; stroke-opacity: 0.8"/>
    </g>
   </g>
   <g id="PolyCollection_1">
    <path d="M 68.260633 208.484843 
L 68.260633 275.660231 
L 71.92061 274.131144 
L 75.580586 272.41668 
L 79.240562 270.520137 
L 82.900539 268.88646 
L 86.560515 267.234033 
L 90.220491 265.340046 
L 93.880468 263.664043 
L 97.540444 262.108344 
L 101.200421 260.376454 
L 104.860397 258.25581 
L 108.520373 256.766682 
L 112.18035 254.973568 
L 115.840326 253.458596 
L 119.500303 251.803492 
L 123.160279 250.420079 
L 126.820255 248.820545 
L 130.480232 247.622844 
L 134.140208 246.014371 
L 137.800184 244.786259 
L 141.460161 243.5091 
L 145.120137 242.035805 
L 148.780114 240.599099 
L 152.44009 239.086276 
L 156.100066 237.610812 
L 159.760043 235.955111 
L 163.420019 234.64799 
L 167.079996 233.188485 
L 170.739972 231.822074 
L 174.399948 230.557595 
L 178.059925 229.30018 
L 181.719901 228.028637 
L 185.379878 226.573688 
L 189.039854 225.161904 
L 192.69983 223.740796 
L 196.359807 222.325405 
L 200.019783 220.627704 
L 203.679759 219.254609 
L 207.339736 217.885001 
L 210.999712 216.559689 
L 214.659689 215.368756 
L 218.319665 214.181836 
L 221.979641 212.992585 
L 225.639618 211.803439 
L 229.299594 210.292911 
L 232.959571 208.728185 
L 236.619547 207.309816 
L 240.279523 206.349008 
L 243.9395 205.333287 
L 247.599476 203.85019 
L 251.259452 202.367093 
L 254.919429 201.248085 
L 258.579405 199.956763 
L 262.239382 199.015808 
L 265.899358 198.168769 
L 269.559334 197.187523 
L 273.219311 196.350167 
L 276.879287 195.123895 
L 280.539264 193.913026 
L 284.19924 192.651398 
L 287.859216 191.38977 
L 291.519193 190.404512 
L 295.179169 189.170688 
L 298.839146 188.232383 
L 302.499122 187.139615 
L 306.159098 186.359834 
L 309.819075 185.637972 
L 313.479051 184.678895 
L 317.139027 183.588123 
L 320.799004 182.681064 
L 324.45898 181.959388 
L 328.118957 180.835375 
L 331.778933 179.951531 
L 335.438909 179.280797 
L 339.098886 178.616217 
L 342.758862 177.498016 
L 346.418839 176.513293 
L 350.078815 175.764036 
L 353.738791 174.810011 
L 357.398768 173.935448 
L 361.058744 173.450894 
L 364.71872 172.592029 
L 368.378697 171.752808 
L 372.038673 170.663197 
L 375.69865 169.635167 
L 379.358626 169.071321 
L 383.018602 168.659223 
L 386.678579 167.887425 
L 390.338555 166.892064 
L 393.998532 166.271757 
L 397.658508 165.243499 
L 401.318484 164.215242 
L 404.978461 163.571253 
L 408.638437 163.028857 
L 412.298414 162.485071 
L 415.95839 161.941286 
L 419.618366 161.397501 
L 423.278343 160.559008 
L 426.938319 159.582659 
L 430.598295 158.60631 
L 430.598295 69.054545 
L 430.598295 69.054545 
L 426.938319 71.072076 
L 423.278343 73.194486 
L 419.618366 75.317486 
L 415.95839 77.299607 
L 412.298414 79.076355 
L 408.638437 80.853104 
L 404.978461 82.662907 
L 401.318484 84.626413 
L 397.658508 86.71394 
L 393.998532 88.802332 
L 390.338555 90.890724 
L 386.678579 92.979116 
L 383.018602 94.706794 
L 379.358626 96.420255 
L 375.69865 98.359115 
L 372.038673 100.315384 
L 368.378697 102.271653 
L 364.71872 104.135586 
L 361.058744 105.762804 
L 357.398768 107.39369 
L 353.738791 109.025752 
L 350.078815 110.657814 
L 346.418839 112.71018 
L 342.758862 114.516486 
L 339.098886 116.639746 
L 335.438909 118.789519 
L 331.778933 120.939291 
L 328.118957 123.089064 
L 324.45898 125.238836 
L 320.799004 126.734254 
L 317.139027 128.218258 
L 313.479051 129.702262 
L 309.819075 131.511884 
L 306.159098 133.402014 
L 302.499122 135.301431 
L 298.839146 137.203272 
L 295.179169 139.105113 
L 291.519193 141.006953 
L 287.859216 142.908794 
L 284.19924 144.810635 
L 280.539264 146.380788 
L 276.879287 148.084081 
L 273.219311 149.560559 
L 269.559334 150.982395 
L 265.899358 152.517112 
L 262.239382 154.046208 
L 258.579405 155.421185 
L 254.919429 156.510025 
L 251.259452 157.896877 
L 247.599476 159.480574 
L 243.9395 160.793579 
L 240.279523 162.193255 
L 236.619547 163.457076 
L 232.959571 165.053008 
L 229.299594 166.631849 
L 225.639618 167.809076 
L 221.979641 169.601097 
L 218.319665 170.984661 
L 214.659689 172.997345 
L 210.999712 174.061572 
L 207.339736 175.733422 
L 203.679759 177.667997 
L 200.019783 179.441066 
L 196.359807 180.664192 
L 192.69983 181.75529 
L 189.039854 182.663181 
L 185.379878 183.786763 
L 181.719901 184.949359 
L 178.059925 185.728393 
L 174.399948 186.351326 
L 170.739972 187.024578 
L 167.079996 188.077265 
L 163.420019 189.053118 
L 159.760043 190.398717 
L 156.100066 191.247416 
L 152.44009 192.146753 
L 148.780114 193.592836 
L 145.120137 194.265765 
L 141.460161 194.937145 
L 137.800184 195.606438 
L 134.140208 196.321514 
L 130.480232 197.165383 
L 126.820255 198.011216 
L 123.160279 198.736812 
L 119.500303 199.517291 
L 115.840326 200.279836 
L 112.18035 200.76213 
L 108.520373 201.415637 
L 104.860397 202.069143 
L 101.200421 202.6983 
L 97.540444 203.283301 
L 93.880468 204.029663 
L 90.220491 204.68317 
L 86.560515 205.336676 
L 82.900539 205.886486 
L 79.240562 206.532998 
L 75.580586 207.183613 
L 71.92061 207.834228 
L 68.260633 208.484843 
z
" clip-path="url(#pff8edc85a0)" style="fill: #ffa500; fill-opacity: 0.15"/>
   </g>
   <g id="matplotlib.axis_1">
    <g id="xtick_1">
     <g id="line2d_1">
      <defs>
       <path id="m9b7ee1cb30" d="M 0 0 
L 0 3.5 
" style="stroke: #000000; stroke-width: 0.8"/>
      </defs>
      <g>
       <use xlink:href="#m9b7ee1cb30" x="85.169724" y="309.6" style="stroke: #000000; stroke-width: 0.8"/>
      </g>
     </g>
     <g id="text_1">
      <!-- 0.02 -->
      <g transform="translate(74.036912 324.198437) scale(0.1 -0.1)">
       <defs>
        <path id="DejaVuSans-30" d="M 2034 4250 
Q 1547 4250 1301 3770 
Q 1056 3291 1056 2328 
Q 1056 1369 1301 889 
Q 1547 409 2034 409 
Q 2525 409 2770 889 
Q 3016 1369 3016 2328 
Q 3016 3291 2770 3770 
Q 2525 4250 2034 4250 
z
M 2034 4750 
Q 2819 4750 3233 4129 
Q 3647 3509 3647 2328 
Q 3647 1150 3233 529 
Q 2819 -91 2034 -91 
Q 1250 -91 836 529 
Q 422 1150 422 2328 
Q 422 3509 836 4129 
Q 1250 4750 2034 4750 
z
" transform="scale(0.015625)"/>
        <path id="DejaVuSans-2e" d="M 684 794 
L 1344 794 
L 1344 0 
L 684 0 
L 684 794 
z
" transform="scale(0.015625)"/>
        <path id="DejaVuSans-32" d="M 1228 531 
L 3431 531 
L 3431 0 
L 469 0 
L 469 531 
Q 828 903 1448 1529 
Q 2069 2156 2228 2338 
Q 2531 2678 2651 2914 
Q 2772 3150 2772 3378 
Q 2772 3750 2511 3984 
Q 2250 4219 1831 4219 
Q 1534 4219 1204 4116 
Q 875 4013 500 3803 
L 500 4441 
Q 881 4594 1212 4672 
Q 1544 4750 1819 4750 
Q 2544 4750 2975 4387 
Q 3406 4025 3406 3419 
Q 3406 3131 3298 2873 
Q 3191 2616 2906 2266 
Q 2828 2175 2409 1742 
Q 1991 1309 1228 531 
z
" transform="scale(0.015625)"/>
       </defs>
       <use xlink:href="#DejaVuSans-30"/>
       <use xlink:href="#DejaVuSans-2e" x="63.623047"/>
       <use xlink:href="#DejaVuSans-30" x="95.410156"/>
       <use xlink:href="#DejaVuSans-32" x="159.033203"/>
      </g>
     </g>
    </g>
    <g id="xtick_2">
     <g id="line2d_2">
      <g>
       <use xlink:href="#m9b7ee1cb30" x="162.468425" y="309.6" style="stroke: #000000; stroke-width: 0.8"/>
      </g>
     </g>
     <g id="text_2">
      <!-- 0.04 -->
      <g transform="translate(151.335613 324.198437) scale(0.1 -0.1)">
       <defs>
        <path id="DejaVuSans-34" d="M 2419 4116 
L 825 1625 
L 2419 1625 
L 2419 4116 
z
M 2253 4666 
L 3047 4666 
L 3047 1625 
L 3713 1625 
L 3713 1100 
L 3047 1100 
L 3047 0 
L 2419 0 
L 2419 1100 
L 313 1100 
L 313 1709 
L 2253 4666 
z
" transform="scale(0.015625)"/>
       </defs>
       <use xlink:href="#DejaVuSans-30"/>
       <use xlink:href="#DejaVuSans-2e" x="63.623047"/>
       <use xlink:href="#DejaVuSans-30" x="95.410156"/>
       <use xlink:href="#DejaVuSans-34" x="159.033203"/>
      </g>
     </g>
    </g>
    <g id="xtick_3">
     <g id="line2d_3">
      <g>
       <use xlink:href="#m9b7ee1cb30" x="239.767127" y="309.6" style="stroke: #000000; stroke-width: 0.8"/>
      </g>
     </g>
     <g id="text_3">
      <!-- 0.06 -->
      <g transform="translate(228.634314 324.198437) scale(0.1 -0.1)">
       <defs>
        <path id="DejaVuSans-36" d="M 2113 2584 
Q 1688 2584 1439 2293 
Q 1191 2003 1191 1497 
Q 1191 994 1439 701 
Q 1688 409 2113 409 
Q 2538 409 2786 701 
Q 3034 994 3034 1497 
Q 3034 2003 2786 2293 
Q 2538 2584 2113 2584 
z
M 3366 4563 
L 3366 3988 
Q 3128 4100 2886 4159 
Q 2644 4219 2406 4219 
Q 1781 4219 1451 3797 
Q 1122 3375 1075 2522 
Q 1259 2794 1537 2939 
Q 1816 3084 2150 3084 
Q 2853 3084 3261 2657 
Q 3669 2231 3669 1497 
Q 3669 778 3244 343 
Q 2819 -91 2113 -91 
Q 1303 -91 875 529 
Q 447 1150 447 2328 
Q 447 3434 972 4092 
Q 1497 4750 2381 4750 
Q 2619 4750 2861 4703 
Q 3103 4656 3366 4563 
z
" transform="scale(0.015625)"/>
       </defs>
       <use xlink:href="#DejaVuSans-30"/>
       <use xlink:href="#DejaVuSans-2e" x="63.623047"/>
       <use xlink:href="#DejaVuSans-30" x="95.410156"/>
       <use xlink:href="#DejaVuSans-36" x="159.033203"/>
      </g>
     </g>
    </g>
    <g id="xtick_4">
     <g id="line2d_4">
      <g>
       <use xlink:href="#m9b7ee1cb30" x="317.065828" y="309.6" style="stroke: #000000; stroke-width: 0.8"/>
      </g>
     </g>
     <g id="text_4">
      <!-- 0.08 -->
      <g transform="translate(305.933015 324.198437) scale(0.1 -0.1)">
       <defs>
        <path id="DejaVuSans-38" d="M 2034 2216 
Q 1584 2216 1326 1975 
Q 1069 1734 1069 1313 
Q 1069 891 1326 650 
Q 1584 409 2034 409 
Q 2484 409 2743 651 
Q 3003 894 3003 1313 
Q 3003 1734 2745 1975 
Q 2488 2216 2034 2216 
z
M 1403 2484 
Q 997 2584 770 2862 
Q 544 3141 544 3541 
Q 544 4100 942 4425 
Q 1341 4750 2034 4750 
Q 2731 4750 3128 4425 
Q 3525 4100 3525 3541 
Q 3525 3141 3298 2862 
Q 3072 2584 2669 2484 
Q 3125 2378 3379 2068 
Q 3634 1759 3634 1313 
Q 3634 634 3220 271 
Q 2806 -91 2034 -91 
Q 1263 -91 848 271 
Q 434 634 434 1313 
Q 434 1759 690 2068 
Q 947 2378 1403 2484 
z
M 1172 3481 
Q 1172 3119 1398 2916 
Q 1625 2713 2034 2713 
Q 2441 2713 2670 2916 
Q 2900 3119 2900 3481 
Q 2900 3844 2670 4047 
Q 2441 4250 2034 4250 
Q 1625 4250 1398 4047 
Q 1172 3844 1172 3481 
z
" transform="scale(0.015625)"/>
       </defs>
       <use xlink:href="#DejaVuSans-30"/>
       <use xlink:href="#DejaVuSans-2e" x="63.623047"/>
       <use xlink:href="#DejaVuSans-30" x="95.410156"/>
       <use xlink:href="#DejaVuSans-38" x="159.033203"/>
      </g>
     </g>
    </g>
    <g id="xtick_5">
     <g id="line2d_5">
      <g>
       <use xlink:href="#m9b7ee1cb30" x="394.364529" y="309.6" style="stroke: #000000; stroke-width: 0.8"/>
      </g>
     </g>
     <g id="text_5">
      <!-- 0.10 -->
      <g transform="translate(383.231717 324.198437) scale(0.1 -0.1)">
       <defs>
        <path id="DejaVuSans-31" d="M 794 531 
L 1825 531 
L 1825 4091 
L 703 3866 
L 703 4441 
L 1819 4666 
L 2450 4666 
L 2450 531 
L 3481 531 
L 3481 0 
L 794 0 
L 794 531 
z
" transform="scale(0.015625)"/>
       </defs>
       <use xlink:href="#DejaVuSans-30"/>
       <use xlink:href="#DejaVuSans-2e" x="63.623047"/>
       <use xlink:href="#DejaVuSans-31" x="95.410156"/>
       <use xlink:href="#DejaVuSans-30" x="159.033203"/>
      </g>
     </g>
    </g>
    <g id="text_6">
     <!-- Codon -->
     <g transform="translate(233.476339 337.876562) scale(0.1 -0.1)">
      <defs>
       <path id="DejaVuSans-43" d="M 4122 4306 
L 4122 3641 
Q 3803 3938 3442 4084 
Q 3081 4231 2675 4231 
Q 1875 4231 1450 3742 
Q 1025 3253 1025 2328 
Q 1025 1406 1450 917 
Q 1875 428 2675 428 
Q 3081 428 3442 575 
Q 3803 722 4122 1019 
L 4122 359 
Q 3791 134 3420 21 
Q 3050 -91 2638 -91 
Q 1578 -91 968 557 
Q 359 1206 359 2328 
Q 359 3453 968 4101 
Q 1578 4750 2638 4750 
Q 3056 4750 3426 4639 
Q 3797 4528 4122 4306 
z
" transform="scale(0.015625)"/>
       <path id="DejaVuSans-6f" d="M 1959 3097 
Q 1497 3097 1228 2736 
Q 959 2375 959 1747 
Q 959 1119 1226 758 
Q 1494 397 1959 397 
Q 2419 397 2687 759 
Q 2956 1122 2956 1747 
Q 2956 2369 2687 2733 
Q 2419 3097 1959 3097 
z
M 1959 3584 
Q 2709 3584 3137 3096 
Q 3566 2609 3566 1747 
Q 3566 888 3137 398 
Q 2709 -91 1959 -91 
Q 1206 -91 779 398 
Q 353 888 353 1747 
Q 353 2609 779 3096 
Q 1206 3584 1959 3584 
z
" transform="scale(0.015625)"/>
       <path id="DejaVuSans-64" d="M 2906 2969 
L 2906 4863 
L 3481 4863 
L 3481 0 
L 2906 0 
L 2906 525 
Q 2725 213 2448 61 
Q 2172 -91 1784 -91 
Q 1150 -91 751 415 
Q 353 922 353 1747 
Q 353 2572 751 3078 
Q 1150 3584 1784 3584 
Q 2172 3584 2448 3432 
Q 2725 3281 2906 2969 
z
M 947 1747 
Q 947 1113 1208 752 
Q 1469 391 1925 391 
Q 2381 391 2643 752 
Q 2906 1113 2906 1747 
Q 2906 2381 2643 2742 
Q 2381 3103 1925 3103 
Q 1469 3103 1208 2742 
Q 947 2381 947 1747 
z
" transform="scale(0.015625)"/>
       <path id="DejaVuSans-6e" d="M 3513 2113 
L 3513 0 
L 2938 0 
L 2938 2094 
Q 2938 2591 2744 2837 
Q 2550 3084 2163 3084 
Q 1697 3084 1428 2787 
Q 1159 2491 1159 1978 
L 1159 0 
L 581 0 
L 581 3500 
L 1159 3500 
L 1159 2956 
Q 1366 3272 1645 3428 
Q 1925 3584 2291 3584 
Q 2894 3584 3203 3211 
Q 3513 2838 3513 2113 
z
" transform="scale(0.015625)"/>
      </defs>
      <use xlink:href="#DejaVuSans-43"/>
      <use xlink:href="#DejaVuSans-6f" x="69.824219"/>
      <use xlink:href="#DejaVuSans-64" x="131.005859"/>
      <use xlink:href="#DejaVuSans-6f" x="194.482422"/>
      <use xlink:href="#DejaVuSans-6e" x="255.664062"/>
     </g>
    </g>
   </g>
   <g id="matplotlib.axis_2">
    <g id="ytick_1">
     <g id="line2d_6">
      <defs>
       <path id="m4159eec5bf" d="M 0 0 
L -3.5 0 
" style="stroke: #000000; stroke-width: 0.8"/>
      </defs>
      <g>
       <use xlink:href="#m4159eec5bf" x="50.14375" y="268.516354" style="stroke: #000000; stroke-width: 0.8"/>
      </g>
     </g>
     <g id="text_7">
      <!-- 0.02 -->
      <g transform="translate(20.878125 272.315572) scale(0.1 -0.1)">
       <use xlink:href="#DejaVuSans-30"/>
       <use xlink:href="#DejaVuSans-2e" x="63.623047"/>
       <use xlink:href="#DejaVuSans-30" x="95.410156"/>
       <use xlink:href="#DejaVuSans-32" x="159.033203"/>
      </g>
     </g>
    </g>
    <g id="ytick_2">
     <g id="line2d_7">
      <g>
       <use xlink:href="#m4159eec5bf" x="50.14375" y="223.168802" style="stroke: #000000; stroke-width: 0.8"/>
      </g>
     </g>
     <g id="text_8">
      <!-- 0.04 -->
      <g transform="translate(20.878125 226.968021) scale(0.1 -0.1)">
       <use xlink:href="#DejaVuSans-30"/>
       <use xlink:href="#DejaVuSans-2e" x="63.623047"/>
       <use xlink:href="#DejaVuSans-30" x="95.410156"/>
       <use xlink:href="#DejaVuSans-34" x="159.033203"/>
      </g>
     </g>
    </g>
    <g id="ytick_3">
     <g id="line2d_8">
      <g>
       <use xlink:href="#m4159eec5bf" x="50.14375" y="177.82125" style="stroke: #000000; stroke-width: 0.8"/>
      </g>
     </g>
     <g id="text_9">
      <!-- 0.06 -->
      <g transform="translate(20.878125 181.620469) scale(0.1 -0.1)">
       <use xlink:href="#DejaVuSans-30"/>
       <use xlink:href="#DejaVuSans-2e" x="63.623047"/>
       <use xlink:href="#DejaVuSans-30" x="95.410156"/>
       <use xlink:href="#DejaVuSans-36" x="159.033203"/>
      </g>
     </g>
    </g>
    <g id="ytick_4">
     <g id="line2d_9">
      <g>
       <use xlink:href="#m4159eec5bf" x="50.14375" y="132.473698" style="stroke: #000000; stroke-width: 0.8"/>
      </g>
     </g>
     <g id="text_10">
      <!-- 0.08 -->
      <g transform="translate(20.878125 136.272917) scale(0.1 -0.1)">
       <use xlink:href="#DejaVuSans-30"/>
       <use xlink:href="#DejaVuSans-2e" x="63.623047"/>
       <use xlink:href="#DejaVuSans-30" x="95.410156"/>
       <use xlink:href="#DejaVuSans-38" x="159.033203"/>
      </g>
     </g>
    </g>
    <g id="ytick_5">
     <g id="line2d_10">
      <g>
       <use xlink:href="#m4159eec5bf" x="50.14375" y="87.126146" style="stroke: #000000; stroke-width: 0.8"/>
      </g>
     </g>
     <g id="text_11">
      <!-- 0.10 -->
      <g transform="translate(20.878125 90.925365) scale(0.1 -0.1)">
       <use xlink:href="#DejaVuSans-30"/>
       <use xlink:href="#DejaVuSans-2e" x="63.623047"/>
       <use xlink:href="#DejaVuSans-31" x="95.410156"/>
       <use xlink:href="#DejaVuSans-30" x="159.033203"/>
      </g>
     </g>
    </g>
    <g id="text_12">
     <!-- Amino acid frequency -->
     <g transform="translate(14.798438 238.139062) rotate(-90) scale(0.1 -0.1)">
      <defs>
       <path id="DejaVuSans-41" d="M 2188 4044 
L 1331 1722 
L 3047 1722 
L 2188 4044 
z
M 1831 4666 
L 2547 4666 
L 4325 0 
L 3669 0 
L 3244 1197 
L 1141 1197 
L 716 0 
L 50 0 
L 1831 4666 
z
" transform="scale(0.015625)"/>
       <path id="DejaVuSans-6d" d="M 3328 2828 
Q 3544 3216 3844 3400 
Q 4144 3584 4550 3584 
Q 5097 3584 5394 3201 
Q 5691 2819 5691 2113 
L 5691 0 
L 5113 0 
L 5113 2094 
Q 5113 2597 4934 2840 
Q 4756 3084 4391 3084 
Q 3944 3084 3684 2787 
Q 3425 2491 3425 1978 
L 3425 0 
L 2847 0 
L 2847 2094 
Q 2847 2600 2669 2842 
Q 2491 3084 2119 3084 
Q 1678 3084 1418 2786 
Q 1159 2488 1159 1978 
L 1159 0 
L 581 0 
L 581 3500 
L 1159 3500 
L 1159 2956 
Q 1356 3278 1631 3431 
Q 1906 3584 2284 3584 
Q 2666 3584 2933 3390 
Q 3200 3197 3328 2828 
z
" transform="scale(0.015625)"/>
       <path id="DejaVuSans-69" d="M 603 3500 
L 1178 3500 
L 1178 0 
L 603 0 
L 603 3500 
z
M 603 4863 
L 1178 4863 
L 1178 4134 
L 603 4134 
L 603 4863 
z
" transform="scale(0.015625)"/>
       <path id="DejaVuSans-20" transform="scale(0.015625)"/>
       <path id="DejaVuSans-61" d="M 2194 1759 
Q 1497 1759 1228 1600 
Q 959 1441 959 1056 
Q 959 750 1161 570 
Q 1363 391 1709 391 
Q 2188 391 2477 730 
Q 2766 1069 2766 1631 
L 2766 1759 
L 2194 1759 
z
M 3341 1997 
L 3341 0 
L 2766 0 
L 2766 531 
Q 2569 213 2275 61 
Q 1981 -91 1556 -91 
Q 1019 -91 701 211 
Q 384 513 384 1019 
Q 384 1609 779 1909 
Q 1175 2209 1959 2209 
L 2766 2209 
L 2766 2266 
Q 2766 2663 2505 2880 
Q 2244 3097 1772 3097 
Q 1472 3097 1187 3025 
Q 903 2953 641 2809 
L 641 3341 
Q 956 3463 1253 3523 
Q 1550 3584 1831 3584 
Q 2591 3584 2966 3190 
Q 3341 2797 3341 1997 
z
" transform="scale(0.015625)"/>
       <path id="DejaVuSans-63" d="M 3122 3366 
L 3122 2828 
Q 2878 2963 2633 3030 
Q 2388 3097 2138 3097 
Q 1578 3097 1268 2742 
Q 959 2388 959 1747 
Q 959 1106 1268 751 
Q 1578 397 2138 397 
Q 2388 397 2633 464 
Q 2878 531 3122 666 
L 3122 134 
Q 2881 22 2623 -34 
Q 2366 -91 2075 -91 
Q 1284 -91 818 406 
Q 353 903 353 1747 
Q 353 2603 823 3093 
Q 1294 3584 2113 3584 
Q 2378 3584 2631 3529 
Q 2884 3475 3122 3366 
z
" transform="scale(0.015625)"/>
       <path id="DejaVuSans-66" d="M 2375 4863 
L 2375 4384 
L 1825 4384 
Q 1516 4384 1395 4259 
Q 1275 4134 1275 3809 
L 1275 3500 
L 2222 3500 
L 2222 3053 
L 1275 3053 
L 1275 0 
L 697 0 
L 697 3053 
L 147 3053 
L 147 3500 
L 697 3500 
L 697 3744 
Q 697 4328 969 4595 
Q 1241 4863 1831 4863 
L 2375 4863 
z
" transform="scale(0.015625)"/>
       <path id="DejaVuSans-72" d="M 2631 2963 
Q 2534 3019 2420 3045 
Q 2306 3072 2169 3072 
Q 1681 3072 1420 2755 
Q 1159 2438 1159 1844 
L 1159 0 
L 581 0 
L 581 3500 
L 1159 3500 
L 1159 2956 
Q 1341 3275 1631 3429 
Q 1922 3584 2338 3584 
Q 2397 3584 2469 3576 
Q 2541 3569 2628 3553 
L 2631 2963 
z
" transform="scale(0.015625)"/>
       <path id="DejaVuSans-65" d="M 3597 1894 
L 3597 1613 
L 953 1613 
Q 991 1019 1311 708 
Q 1631 397 2203 397 
Q 2534 397 2845 478 
Q 3156 559 3463 722 
L 3463 178 
Q 3153 47 2828 -22 
Q 2503 -91 2169 -91 
Q 1331 -91 842 396 
Q 353 884 353 1716 
Q 353 2575 817 3079 
Q 1281 3584 2069 3584 
Q 2775 3584 3186 3129 
Q 3597 2675 3597 1894 
z
M 3022 2063 
Q 3016 2534 2758 2815 
Q 2500 3097 2075 3097 
Q 1594 3097 1305 2825 
Q 1016 2553 972 2059 
L 3022 2063 
z
" transform="scale(0.015625)"/>
       <path id="DejaVuSans-71" d="M 947 1747 
Q 947 1113 1208 752 
Q 1469 391 1925 391 
Q 2381 391 2643 752 
Q 2906 1113 2906 1747 
Q 2906 2381 2643 2742 
Q 2381 3103 1925 3103 
Q 1469 3103 1208 2742 
Q 947 2381 947 1747 
z
M 2906 525 
Q 2725 213 2448 61 
Q 2172 -91 1784 -91 
Q 1150 -91 751 415 
Q 353 922 353 1747 
Q 353 2572 751 3078 
Q 1150 3584 1784 3584 
Q 2172 3584 2448 3432 
Q 2725 3281 2906 2969 
L 2906 3500 
L 3481 3500 
L 3481 -1331 
L 2906 -1331 
L 2906 525 
z
" transform="scale(0.015625)"/>
       <path id="DejaVuSans-75" d="M 544 1381 
L 544 3500 
L 1119 3500 
L 1119 1403 
Q 1119 906 1312 657 
Q 1506 409 1894 409 
Q 2359 409 2629 706 
Q 2900 1003 2900 1516 
L 2900 3500 
L 3475 3500 
L 3475 0 
L 2900 0 
L 2900 538 
Q 2691 219 2414 64 
Q 2138 -91 1772 -91 
Q 1169 -91 856 284 
Q 544 659 544 1381 
z
M 1991 3584 
L 1991 3584 
z
" transform="scale(0.015625)"/>
       <path id="DejaVuSans-79" d="M 2059 -325 
Q 1816 -950 1584 -1140 
Q 1353 -1331 966 -1331 
L 506 -1331 
L 506 -850 
L 844 -850 
Q 1081 -850 1212 -737 
Q 1344 -625 1503 -206 
L 1606 56 
L 191 3500 
L 800 3500 
L 1894 763 
L 2988 3500 
L 3597 3500 
L 2059 -325 
z
" transform="scale(0.015625)"/>
      </defs>
      <use xlink:href="#DejaVuSans-41"/>
      <use xlink:href="#DejaVuSans-6d" x="68.408203"/>
      <use xlink:href="#DejaVuSans-69" x="165.820312"/>
      <use xlink:href="#DejaVuSans-6e" x="193.603516"/>
      <use xlink:href="#DejaVuSans-6f" x="256.982422"/>
      <use xlink:href="#DejaVuSans-20" x="318.164062"/>
      <use xlink:href="#DejaVuSans-61" x="349.951172"/>
      <use xlink:href="#DejaVuSans-63" x="411.230469"/>
      <use xlink:href="#DejaVuSans-69" x="466.210938"/>
      <use xlink:href="#DejaVuSans-64" x="493.994141"/>
      <use xlink:href="#DejaVuSans-20" x="557.470703"/>
      <use xlink:href="#DejaVuSans-66" x="589.257812"/>
      <use xlink:href="#DejaVuSans-72" x="624.462891"/>
      <use xlink:href="#DejaVuSans-65" x="663.326172"/>
      <use xlink:href="#DejaVuSans-71" x="724.849609"/>
      <use xlink:href="#DejaVuSans-75" x="788.326172"/>
      <use xlink:href="#DejaVuSans-65" x="851.705078"/>
      <use xlink:href="#DejaVuSans-6e" x="913.228516"/>
      <use xlink:href="#DejaVuSans-63" x="976.607422"/>
      <use xlink:href="#DejaVuSans-79" x="1031.587891"/>
     </g>
    </g>
   </g>
   <g id="line2d_11">
    <path d="M 68.260633 245.722781 
L 71.92061 244.480496 
L 75.580586 243.238211 
L 79.240562 241.995927 
L 82.900539 240.753642 
L 86.560515 239.511357 
L 90.220491 238.269072 
L 93.880468 237.026788 
L 97.540444 235.784503 
L 101.200421 234.542218 
L 104.860397 233.299934 
L 108.520373 232.057649 
L 112.18035 230.815364 
L 115.840326 229.57308 
L 119.500303 228.330795 
L 123.160279 227.08851 
L 126.820255 225.846226 
L 130.480232 224.603941 
L 134.140208 223.361656 
L 137.800184 222.119372 
L 141.460161 220.877087 
L 145.120137 219.634802 
L 148.780114 218.392517 
L 152.44009 217.150233 
L 156.100066 215.907948 
L 159.760043 214.665663 
L 163.420019 213.423379 
L 167.079996 212.181094 
L 170.739972 210.938809 
L 174.399948 209.696525 
L 178.059925 208.45424 
L 181.719901 207.211955 
L 185.379878 205.969671 
L 189.039854 204.727386 
L 192.69983 203.485101 
L 196.359807 202.242817 
L 200.019783 201.000532 
L 203.679759 199.758247 
L 207.339736 198.515963 
L 210.999712 197.273678 
L 214.659689 196.031393 
L 218.319665 194.789108 
L 221.979641 193.546824 
L 225.639618 192.304539 
L 229.299594 191.062254 
L 232.959571 189.81997 
L 236.619547 188.577685 
L 240.279523 187.3354 
L 243.9395 186.093116 
L 247.599476 184.850831 
L 251.259452 183.608546 
L 254.919429 182.366262 
L 258.579405 181.123977 
L 262.239382 179.881692 
L 265.899358 178.639408 
L 269.559334 177.397123 
L 273.219311 176.154838 
L 276.879287 174.912554 
L 280.539264 173.670269 
L 284.19924 172.427984 
L 287.859216 171.185699 
L 291.519193 169.943415 
L 295.179169 168.70113 
L 298.839146 167.458845 
L 302.499122 166.216561 
L 306.159098 164.974276 
L 309.819075 163.731991 
L 313.479051 162.489707 
L 317.139027 161.247422 
L 320.799004 160.005137 
L 324.45898 158.762853 
L 328.118957 157.520568 
L 331.778933 156.278283 
L 335.438909 155.035999 
L 339.098886 153.793714 
L 342.758862 152.551429 
L 346.418839 151.309144 
L 350.078815 150.06686 
L 353.738791 148.824575 
L 357.398768 147.58229 
L 361.058744 146.340006 
L 364.71872 145.097721 
L 368.378697 143.855436 
L 372.038673 142.613152 
L 375.69865 141.370867 
L 379.358626 140.128582 
L 383.018602 138.886298 
L 386.678579 137.644013 
L 390.338555 136.401728 
L 393.998532 135.159444 
L 397.658508 133.917159 
L 401.318484 132.674874 
L 404.978461 131.43259 
L 408.638437 130.190305 
L 412.298414 128.94802 
L 415.95839 127.705735 
L 419.618366 126.463451 
L 423.278343 125.221166 
L 426.938319 123.978881 
L 430.598295 122.736597 
" clip-path="url(#pff8edc85a0)" style="fill: none; stroke: #ffa500; stroke-width: 2.25; stroke-linecap: square"/>
   </g>
   <g id="patch_3">
    <path d="M 50.14375 309.6 
L 50.14375 57.6 
" style="fill: none; stroke: #000000; stroke-width: 0.8; stroke-linejoin: miter; stroke-linecap: square"/>
   </g>
   <g id="patch_4">
    <path d="M 448.715179 309.6 
L 448.715179 57.6 
" style="fill: none; stroke: #000000; stroke-width: 0.8; stroke-linejoin: miter; stroke-linecap: square"/>
   </g>
   <g id="patch_5">
    <path d="M 50.14375 309.6 
L 448.715179 309.6 
" style="fill: none; stroke: #000000; stroke-width: 0.8; stroke-linejoin: miter; stroke-linecap: square"/>
   </g>
   <g id="patch_6">
    <path d="M 50.14375 57.6 
L 448.715179 57.6 
" style="fill: none; stroke: #000000; stroke-width: 0.8; stroke-linejoin: miter; stroke-linecap: square"/>
   </g>
  </g>
  <g id="axes_2">
   <g id="patch_7">
    <path d="M 488.572321 309.6 
L 887.14375 309.6 
L 887.14375 57.6 
L 488.572321 57.6 
z
" style="fill: #ffffff"/>
   </g>
   <g id="PathCollection_2">
    <g clip-path="url(#pc06b725b37)">
     <use xlink:href="#m4bacc490dd" x="506.689205" y="260.264936" style="fill: #1f77b4; fill-opacity: 0.8; stroke: #1f77b4; stroke-opacity: 0.8"/>
     <use xlink:href="#m4bacc490dd" x="506.689205" y="298.145455" style="fill: #1f77b4; fill-opacity: 0.8; stroke: #1f77b4; stroke-opacity: 0.8"/>
     <use xlink:href="#m4bacc490dd" x="567.078815" y="295.937903" style="fill: #1f77b4; fill-opacity: 0.8; stroke: #1f77b4; stroke-opacity: 0.8"/>
     <use xlink:href="#m4bacc490dd" x="567.078815" y="171.873532" style="fill: #1f77b4; fill-opacity: 0.8; stroke: #1f77b4; stroke-opacity: 0.8"/>
     <use xlink:href="#m4bacc490dd" x="567.078815" y="133.223625" style="fill: #1f77b4; fill-opacity: 0.8; stroke: #1f77b4; stroke-opacity: 0.8"/>
     <use xlink:href="#m4bacc490dd" x="567.078815" y="245.761763" style="fill: #1f77b4; fill-opacity: 0.8; stroke: #1f77b4; stroke-opacity: 0.8"/>
     <use xlink:href="#m4bacc490dd" x="567.078815" y="274.571005" style="fill: #1f77b4; fill-opacity: 0.8; stroke: #1f77b4; stroke-opacity: 0.8"/>
     <use xlink:href="#m4bacc490dd" x="567.078815" y="174.098283" style="fill: #1f77b4; fill-opacity: 0.8; stroke: #1f77b4; stroke-opacity: 0.8"/>
     <use xlink:href="#m4bacc490dd" x="567.078815" y="239.172426" style="fill: #1f77b4; fill-opacity: 0.8; stroke: #1f77b4; stroke-opacity: 0.8"/>
     <use xlink:href="#m4bacc490dd" x="567.078815" y="265.878534" style="fill: #1f77b4; fill-opacity: 0.8; stroke: #1f77b4; stroke-opacity: 0.8"/>
     <use xlink:href="#m4bacc490dd" x="567.078815" y="240.676676" style="fill: #1f77b4; fill-opacity: 0.8; stroke: #1f77b4; stroke-opacity: 0.8"/>
     <use xlink:href="#m4bacc490dd" x="627.468425" y="149.137291" style="fill: #1f77b4; fill-opacity: 0.8; stroke: #1f77b4; stroke-opacity: 0.8"/>
     <use xlink:href="#m4bacc490dd" x="687.858036" y="152.091214" style="fill: #1f77b4; fill-opacity: 0.8; stroke: #1f77b4; stroke-opacity: 0.8"/>
     <use xlink:href="#m4bacc490dd" x="687.858036" y="142.734184" style="fill: #1f77b4; fill-opacity: 0.8; stroke: #1f77b4; stroke-opacity: 0.8"/>
     <use xlink:href="#m4bacc490dd" x="687.858036" y="220.040638" style="fill: #1f77b4; fill-opacity: 0.8; stroke: #1f77b4; stroke-opacity: 0.8"/>
     <use xlink:href="#m4bacc490dd" x="687.858036" y="206.84038" style="fill: #1f77b4; fill-opacity: 0.8; stroke: #1f77b4; stroke-opacity: 0.8"/>
     <use xlink:href="#m4bacc490dd" x="687.858036" y="123.423907" style="fill: #1f77b4; fill-opacity: 0.8; stroke: #1f77b4; stroke-opacity: 0.8"/>
     <use xlink:href="#m4bacc490dd" x="869.026867" y="117.75285" style="fill: #1f77b4; fill-opacity: 0.8; stroke: #1f77b4; stroke-opacity: 0.8"/>
     <use xlink:href="#m4bacc490dd" x="808.637256" y="182.628249" style="fill: #1f77b4; fill-opacity: 0.8; stroke: #1f77b4; stroke-opacity: 0.8"/>
     <use xlink:href="#m4bacc490dd" x="808.637256" y="193.056336" style="fill: #1f77b4; fill-opacity: 0.8; stroke: #1f77b4; stroke-opacity: 0.8"/>
    </g>
   </g>
   <g id="PolyCollection_2">
    <path d="M 506.689205 209.121318 
L 506.689205 276.147584 
L 510.349181 274.418781 
L 514.009157 272.753667 
L 517.669134 270.854794 
L 521.32911 269.081316 
L 524.989086 266.878304 
L 528.649063 264.979824 
L 532.309039 263.487986 
L 535.969016 262.062544 
L 539.628992 260.392624 
L 543.288968 258.487463 
L 546.948945 256.994503 
L 550.608921 255.237841 
L 554.268898 253.6636 
L 557.928874 252.222528 
L 561.58885 250.805603 
L 565.248827 249.012104 
L 568.908803 247.559457 
L 572.56878 246.065426 
L 576.228756 244.587304 
L 579.888732 243.295572 
L 583.548709 241.928578 
L 587.208685 240.287982 
L 590.868661 238.75873 
L 594.528638 237.4832 
L 598.188614 236.140832 
L 601.848591 234.546427 
L 605.508567 233.23274 
L 609.168543 231.874849 
L 612.82852 230.267737 
L 616.488496 228.530468 
L 620.148473 227.249062 
L 623.808449 225.874782 
L 627.468425 224.484429 
L 631.128402 223.126658 
L 634.788378 221.792457 
L 638.448354 220.318989 
L 642.108331 218.90941 
L 645.768307 217.843716 
L 649.428284 216.597111 
L 653.08826 215.272667 
L 656.748236 214.085908 
L 660.408213 212.829399 
L 664.068189 211.547843 
L 667.728166 210.26262 
L 671.388142 208.97648 
L 675.048118 207.686288 
L 678.708095 206.400535 
L 682.368071 205.344026 
L 686.028048 204.141729 
L 689.688024 203.067514 
L 693.348 202.137715 
L 697.007977 200.853499 
L 700.667953 200.002797 
L 704.327929 198.906422 
L 707.987906 197.966035 
L 711.647882 196.817341 
L 715.307859 195.54808 
L 718.967835 194.27882 
L 722.627811 193.21775 
L 726.287788 192.074205 
L 729.947764 191.179455 
L 733.607741 190.24704 
L 737.267717 189.304607 
L 740.927693 188.194118 
L 744.58767 187.416423 
L 748.247646 186.369464 
L 751.907622 185.512423 
L 755.567599 184.434041 
L 759.227575 183.35566 
L 762.887552 182.708343 
L 766.547528 181.781772 
L 770.207504 181.125075 
L 773.867481 180.70231 
L 777.527457 180.274998 
L 781.187434 179.510664 
L 784.84741 178.31784 
L 788.507386 177.124624 
L 792.167363 176.178053 
L 795.827339 175.201933 
L 799.487316 174.626541 
L 803.147292 173.780969 
L 806.807268 172.794051 
L 810.467245 171.993365 
L 814.127221 170.984093 
L 817.787197 170.231181 
L 821.447174 170.061924 
L 825.10715 169.640325 
L 828.767127 169.003322 
L 832.427103 168.327951 
L 836.087079 167.806173 
L 839.747056 167.384744 
L 843.407032 166.611248 
L 847.067009 165.78226 
L 850.726985 164.904065 
L 854.386961 164.233269 
L 858.046938 163.440593 
L 861.706914 162.647917 
L 865.36689 161.85524 
L 869.026867 161.062564 
L 869.026867 69.054545 
L 869.026867 69.054545 
L 865.36689 70.785904 
L 861.706914 72.517263 
L 858.046938 74.248622 
L 854.386961 75.979981 
L 850.726985 77.711341 
L 847.067009 79.4427 
L 843.407032 81.174059 
L 839.747056 82.905418 
L 836.087079 84.636777 
L 832.427103 86.368136 
L 828.767127 88.193274 
L 825.10715 90.087186 
L 821.447174 91.981099 
L 817.787197 93.879859 
L 814.127221 95.782326 
L 810.467245 97.684793 
L 806.807268 99.58726 
L 803.147292 101.489728 
L 799.487316 103.392195 
L 795.827339 105.294662 
L 792.167363 107.130582 
L 788.507386 109.015897 
L 784.84741 110.912044 
L 781.187434 112.80819 
L 777.527457 114.704337 
L 773.867481 116.65181 
L 770.207504 118.611932 
L 766.547528 120.516686 
L 762.887552 122.611244 
L 759.227575 124.613917 
L 755.567599 126.603736 
L 751.907622 128.593556 
L 748.247646 130.588452 
L 744.58767 132.474798 
L 740.927693 134.443395 
L 737.267717 136.372802 
L 733.607741 138.171009 
L 729.947764 140.059814 
L 726.287788 142.191455 
L 722.627811 144.082799 
L 718.967835 145.475972 
L 715.307859 147.155313 
L 711.647882 149.055317 
L 707.987906 150.802396 
L 704.327929 152.53454 
L 700.667953 154.324144 
L 697.007977 156.03007 
L 693.348 157.920239 
L 689.688024 159.971614 
L 686.028048 161.57879 
L 682.368071 163.367118 
L 678.708095 165.10223 
L 675.048118 166.6551 
L 671.388142 168.29242 
L 667.728166 169.808967 
L 664.068189 171.262676 
L 660.408213 172.706523 
L 656.748236 174.126903 
L 653.08826 175.919806 
L 649.428284 177.45094 
L 645.768307 178.365378 
L 642.108331 179.244946 
L 638.448354 180.953369 
L 634.788378 182.63353 
L 631.128402 183.916773 
L 627.468425 185.024901 
L 623.808449 185.887537 
L 620.148473 186.441082 
L 616.488496 187.14567 
L 612.82852 187.847284 
L 609.168543 188.553965 
L 605.508567 189.533888 
L 601.848591 190.570923 
L 598.188614 191.294552 
L 594.528638 192.407282 
L 590.868661 193.29395 
L 587.208685 193.908089 
L 583.548709 194.738954 
L 579.888732 195.704751 
L 576.228756 196.532095 
L 572.56878 197.237275 
L 568.908803 197.723881 
L 565.248827 198.466215 
L 561.58885 199.305073 
L 557.928874 199.92715 
L 554.268898 200.752048 
L 550.608921 201.261875 
L 546.948945 202.053782 
L 543.288968 202.707854 
L 539.628992 203.46672 
L 535.969016 204.256369 
L 532.309039 204.869764 
L 528.649063 205.74427 
L 524.989086 206.172206 
L 521.32911 206.561297 
L 517.669134 207.202726 
L 514.009157 207.841308 
L 510.349181 208.481313 
L 506.689205 209.121318 
z
" clip-path="url(#pc06b725b37)" style="fill: #ffa500; fill-opacity: 0.15"/>
   </g>
   <g id="matplotlib.axis_3">
    <g id="xtick_6">
     <g id="line2d_12">
      <g>
       <use xlink:href="#m9b7ee1cb30" x="521.182711" y="309.6" style="stroke: #000000; stroke-width: 0.8"/>
      </g>
     </g>
     <g id="text_13">
      <!-- 0.02 -->
      <g transform="translate(510.049899 324.198437) scale(0.1 -0.1)">
       <use xlink:href="#DejaVuSans-30"/>
       <use xlink:href="#DejaVuSans-2e" x="63.623047"/>
       <use xlink:href="#DejaVuSans-30" x="95.410156"/>
       <use xlink:href="#DejaVuSans-32" x="159.033203"/>
      </g>
     </g>
    </g>
    <g id="xtick_7">
     <g id="line2d_13">
      <g>
       <use xlink:href="#m9b7ee1cb30" x="596.065828" y="309.6" style="stroke: #000000; stroke-width: 0.8"/>
      </g>
     </g>
     <g id="text_14">
      <!-- 0.04 -->
      <g transform="translate(584.933015 324.198437) scale(0.1 -0.1)">
       <use xlink:href="#DejaVuSans-30"/>
       <use xlink:href="#DejaVuSans-2e" x="63.623047"/>
       <use xlink:href="#DejaVuSans-30" x="95.410156"/>
       <use xlink:href="#DejaVuSans-34" x="159.033203"/>
      </g>
     </g>
    </g>
    <g id="xtick_8">
     <g id="line2d_14">
      <g>
       <use xlink:href="#m9b7ee1cb30" x="670.948945" y="309.6" style="stroke: #000000; stroke-width: 0.8"/>
      </g>
     </g>
     <g id="text_15">
      <!-- 0.06 -->
      <g transform="translate(659.816132 324.198437) scale(0.1 -0.1)">
       <use xlink:href="#DejaVuSans-30"/>
       <use xlink:href="#DejaVuSans-2e" x="63.623047"/>
       <use xlink:href="#DejaVuSans-30" x="95.410156"/>
       <use xlink:href="#DejaVuSans-36" x="159.033203"/>
      </g>
     </g>
    </g>
    <g id="xtick_9">
     <g id="line2d_15">
      <g>
       <use xlink:href="#m9b7ee1cb30" x="745.832062" y="309.6" style="stroke: #000000; stroke-width: 0.8"/>
      </g>
     </g>
     <g id="text_16">
      <!-- 0.08 -->
      <g transform="translate(734.699249 324.198437) scale(0.1 -0.1)">
       <use xlink:href="#DejaVuSans-30"/>
       <use xlink:href="#DejaVuSans-2e" x="63.623047"/>
       <use xlink:href="#DejaVuSans-30" x="95.410156"/>
       <use xlink:href="#DejaVuSans-38" x="159.033203"/>
      </g>
     </g>
    </g>
    <g id="xtick_10">
     <g id="line2d_16">
      <g>
       <use xlink:href="#m9b7ee1cb30" x="820.715179" y="309.6" style="stroke: #000000; stroke-width: 0.8"/>
      </g>
     </g>
     <g id="text_17">
      <!-- 0.10 -->
      <g transform="translate(809.582366 324.198437) scale(0.1 -0.1)">
       <use xlink:href="#DejaVuSans-30"/>
       <use xlink:href="#DejaVuSans-2e" x="63.623047"/>
       <use xlink:href="#DejaVuSans-31" x="95.410156"/>
       <use xlink:href="#DejaVuSans-30" x="159.033203"/>
      </g>
     </g>
    </g>
    <g id="text_18">
     <!-- Codon+Cost -->
     <g transform="translate(656.599442 337.876562) scale(0.1 -0.1)">
      <defs>
       <path id="DejaVuSans-2b" d="M 2944 4013 
L 2944 2272 
L 4684 2272 
L 4684 1741 
L 2944 1741 
L 2944 0 
L 2419 0 
L 2419 1741 
L 678 1741 
L 678 2272 
L 2419 2272 
L 2419 4013 
L 2944 4013 
z
" transform="scale(0.015625)"/>
       <path id="DejaVuSans-73" d="M 2834 3397 
L 2834 2853 
Q 2591 2978 2328 3040 
Q 2066 3103 1784 3103 
Q 1356 3103 1142 2972 
Q 928 2841 928 2578 
Q 928 2378 1081 2264 
Q 1234 2150 1697 2047 
L 1894 2003 
Q 2506 1872 2764 1633 
Q 3022 1394 3022 966 
Q 3022 478 2636 193 
Q 2250 -91 1575 -91 
Q 1294 -91 989 -36 
Q 684 19 347 128 
L 347 722 
Q 666 556 975 473 
Q 1284 391 1588 391 
Q 1994 391 2212 530 
Q 2431 669 2431 922 
Q 2431 1156 2273 1281 
Q 2116 1406 1581 1522 
L 1381 1569 
Q 847 1681 609 1914 
Q 372 2147 372 2553 
Q 372 3047 722 3315 
Q 1072 3584 1716 3584 
Q 2034 3584 2315 3537 
Q 2597 3491 2834 3397 
z
" transform="scale(0.015625)"/>
       <path id="DejaVuSans-74" d="M 1172 4494 
L 1172 3500 
L 2356 3500 
L 2356 3053 
L 1172 3053 
L 1172 1153 
Q 1172 725 1289 603 
Q 1406 481 1766 481 
L 2356 481 
L 2356 0 
L 1766 0 
Q 1100 0 847 248 
Q 594 497 594 1153 
L 594 3053 
L 172 3053 
L 172 3500 
L 594 3500 
L 594 4494 
L 1172 4494 
z
" transform="scale(0.015625)"/>
      </defs>
      <use xlink:href="#DejaVuSans-43"/>
      <use xlink:href="#DejaVuSans-6f" x="69.824219"/>
      <use xlink:href="#DejaVuSans-64" x="131.005859"/>
      <use xlink:href="#DejaVuSans-6f" x="194.482422"/>
      <use xlink:href="#DejaVuSans-6e" x="255.664062"/>
      <use xlink:href="#DejaVuSans-2b" x="319.042969"/>
      <use xlink:href="#DejaVuSans-43" x="402.832031"/>
      <use xlink:href="#DejaVuSans-6f" x="472.65625"/>
      <use xlink:href="#DejaVuSans-73" x="533.837891"/>
      <use xlink:href="#DejaVuSans-74" x="585.9375"/>
     </g>
    </g>
   </g>
   <g id="matplotlib.axis_4">
    <g id="ytick_6">
     <g id="line2d_17">
      <g>
       <use xlink:href="#m4159eec5bf" x="488.572321" y="269.040187" style="stroke: #000000; stroke-width: 0.8"/>
      </g>
     </g>
     <g id="text_19">
      <!-- 0.02 -->
      <g transform="translate(459.306696 272.839406) scale(0.1 -0.1)">
       <use xlink:href="#DejaVuSans-30"/>
       <use xlink:href="#DejaVuSans-2e" x="63.623047"/>
       <use xlink:href="#DejaVuSans-30" x="95.410156"/>
       <use xlink:href="#DejaVuSans-32" x="159.033203"/>
      </g>
     </g>
    </g>
    <g id="ytick_7">
     <g id="line2d_18">
      <g>
       <use xlink:href="#m4159eec5bf" x="488.572321" y="224.494367" style="stroke: #000000; stroke-width: 0.8"/>
      </g>
     </g>
     <g id="text_20">
      <!-- 0.04 -->
      <g transform="translate(459.306696 228.293586) scale(0.1 -0.1)">
       <use xlink:href="#DejaVuSans-30"/>
       <use xlink:href="#DejaVuSans-2e" x="63.623047"/>
       <use xlink:href="#DejaVuSans-30" x="95.410156"/>
       <use xlink:href="#DejaVuSans-34" x="159.033203"/>
      </g>
     </g>
    </g>
    <g id="ytick_8">
     <g id="line2d_19">
      <g>
       <use xlink:href="#m4159eec5bf" x="488.572321" y="179.948546" style="stroke: #000000; stroke-width: 0.8"/>
      </g>
     </g>
     <g id="text_21">
      <!-- 0.06 -->
      <g transform="translate(459.306696 183.747765) scale(0.1 -0.1)">
       <use xlink:href="#DejaVuSans-30"/>
       <use xlink:href="#DejaVuSans-2e" x="63.623047"/>
       <use xlink:href="#DejaVuSans-30" x="95.410156"/>
       <use xlink:href="#DejaVuSans-36" x="159.033203"/>
      </g>
     </g>
    </g>
    <g id="ytick_9">
     <g id="line2d_20">
      <g>
       <use xlink:href="#m4159eec5bf" x="488.572321" y="135.402726" style="stroke: #000000; stroke-width: 0.8"/>
      </g>
     </g>
     <g id="text_22">
      <!-- 0.08 -->
      <g transform="translate(459.306696 139.201944) scale(0.1 -0.1)">
       <use xlink:href="#DejaVuSans-30"/>
       <use xlink:href="#DejaVuSans-2e" x="63.623047"/>
       <use xlink:href="#DejaVuSans-30" x="95.410156"/>
       <use xlink:href="#DejaVuSans-38" x="159.033203"/>
      </g>
     </g>
    </g>
    <g id="ytick_10">
     <g id="line2d_21">
      <g>
       <use xlink:href="#m4159eec5bf" x="488.572321" y="90.856905" style="stroke: #000000; stroke-width: 0.8"/>
      </g>
     </g>
     <g id="text_23">
      <!-- 0.10 -->
      <g transform="translate(459.306696 94.656124) scale(0.1 -0.1)">
       <use xlink:href="#DejaVuSans-30"/>
       <use xlink:href="#DejaVuSans-2e" x="63.623047"/>
       <use xlink:href="#DejaVuSans-31" x="95.410156"/>
       <use xlink:href="#DejaVuSans-30" x="159.033203"/>
      </g>
     </g>
    </g>
   </g>
   <g id="line2d_22">
    <path d="M 506.689205 246.649598 
L 510.349181 245.429276 
L 514.009157 244.208955 
L 517.669134 242.988634 
L 521.32911 241.768312 
L 524.989086 240.547991 
L 528.649063 239.327669 
L 532.309039 238.107348 
L 535.969016 236.887026 
L 539.628992 235.666705 
L 543.288968 234.446383 
L 546.948945 233.226062 
L 550.608921 232.00574 
L 554.268898 230.785419 
L 557.928874 229.565097 
L 561.58885 228.344776 
L 565.248827 227.124455 
L 568.908803 225.904133 
L 572.56878 224.683812 
L 576.228756 223.46349 
L 579.888732 222.243169 
L 583.548709 221.022847 
L 587.208685 219.802526 
L 590.868661 218.582204 
L 594.528638 217.361883 
L 598.188614 216.141561 
L 601.848591 214.92124 
L 605.508567 213.700919 
L 609.168543 212.480597 
L 612.82852 211.260276 
L 616.488496 210.039954 
L 620.148473 208.819633 
L 623.808449 207.599311 
L 627.468425 206.37899 
L 631.128402 205.158668 
L 634.788378 203.938347 
L 638.448354 202.718025 
L 642.108331 201.497704 
L 645.768307 200.277382 
L 649.428284 199.057061 
L 653.08826 197.83674 
L 656.748236 196.616418 
L 660.408213 195.396097 
L 664.068189 194.175775 
L 667.728166 192.955454 
L 671.388142 191.735132 
L 675.048118 190.514811 
L 678.708095 189.294489 
L 682.368071 188.074168 
L 686.028048 186.853846 
L 689.688024 185.633525 
L 693.348 184.413203 
L 697.007977 183.192882 
L 700.667953 181.972561 
L 704.327929 180.752239 
L 707.987906 179.531918 
L 711.647882 178.311596 
L 715.307859 177.091275 
L 718.967835 175.870953 
L 722.627811 174.650632 
L 726.287788 173.43031 
L 729.947764 172.209989 
L 733.607741 170.989667 
L 737.267717 169.769346 
L 740.927693 168.549025 
L 744.58767 167.328703 
L 748.247646 166.108382 
L 751.907622 164.88806 
L 755.567599 163.667739 
L 759.227575 162.447417 
L 762.887552 161.227096 
L 766.547528 160.006774 
L 770.207504 158.786453 
L 773.867481 157.566131 
L 777.527457 156.34581 
L 781.187434 155.125488 
L 784.84741 153.905167 
L 788.507386 152.684846 
L 792.167363 151.464524 
L 795.827339 150.244203 
L 799.487316 149.023881 
L 803.147292 147.80356 
L 806.807268 146.583238 
L 810.467245 145.362917 
L 814.127221 144.142595 
L 817.787197 142.922274 
L 821.447174 141.701952 
L 825.10715 140.481631 
L 828.767127 139.261309 
L 832.427103 138.040988 
L 836.087079 136.820667 
L 839.747056 135.600345 
L 843.407032 134.380024 
L 847.067009 133.159702 
L 850.726985 131.939381 
L 854.386961 130.719059 
L 858.046938 129.498738 
L 861.706914 128.278416 
L 865.36689 127.058095 
L 869.026867 125.837773 
" clip-path="url(#pc06b725b37)" style="fill: none; stroke: #ffa500; stroke-width: 2.25; stroke-linecap: square"/>
   </g>
   <g id="patch_8">
    <path d="M 488.572321 309.6 
L 488.572321 57.6 
" style="fill: none; stroke: #000000; stroke-width: 0.8; stroke-linejoin: miter; stroke-linecap: square"/>
   </g>
   <g id="patch_9">
    <path d="M 887.14375 309.6 
L 887.14375 57.6 
" style="fill: none; stroke: #000000; stroke-width: 0.8; stroke-linejoin: miter; stroke-linecap: square"/>
   </g>
   <g id="patch_10">
    <path d="M 488.572321 309.6 
L 887.14375 309.6 
" style="fill: none; stroke: #000000; stroke-width: 0.8; stroke-linejoin: miter; stroke-linecap: square"/>
   </g>
   <g id="patch_11">
    <path d="M 488.572321 57.6 
L 887.14375 57.6 
" style="fill: none; stroke: #000000; stroke-width: 0.8; stroke-linejoin: miter; stroke-linecap: square"/>
   </g>
  </g>
  <g id="axes_3">
   <g id="patch_12">
    <path d="M 50.14375 612 
L 448.715179 612 
L 448.715179 360 
L 50.14375 360 
z
" style="fill: #ffffff"/>
   </g>
   <g id="PathCollection_3">
    <g clip-path="url(#p79e9bd91db)">
     <use xlink:href="#m4bacc490dd" x="69.60215" y="563.358544" style="fill: #1f77b4; fill-opacity: 0.8; stroke: #1f77b4; stroke-opacity: 0.8"/>
     <use xlink:href="#m4bacc490dd" x="68.260633" y="600.545455" style="fill: #1f77b4; fill-opacity: 0.8; stroke: #1f77b4; stroke-opacity: 0.8"/>
     <use xlink:href="#m4bacc490dd" x="126.702565" y="598.378324" style="fill: #1f77b4; fill-opacity: 0.8; stroke: #1f77b4; stroke-opacity: 0.8"/>
     <use xlink:href="#m4bacc490dd" x="126.702565" y="476.585624" style="fill: #1f77b4; fill-opacity: 0.8; stroke: #1f77b4; stroke-opacity: 0.8"/>
     <use xlink:href="#m4bacc490dd" x="126.702565" y="438.643414" style="fill: #1f77b4; fill-opacity: 0.8; stroke: #1f77b4; stroke-opacity: 0.8"/>
     <use xlink:href="#m4bacc490dd" x="141.07167" y="549.120931" style="fill: #1f77b4; fill-opacity: 0.8; stroke: #1f77b4; stroke-opacity: 0.8"/>
     <use xlink:href="#m4bacc490dd" x="126.702565" y="577.402663" style="fill: #1f77b4; fill-opacity: 0.8; stroke: #1f77b4; stroke-opacity: 0.8"/>
     <use xlink:href="#m4bacc490dd" x="141.07167" y="478.76964" style="fill: #1f77b4; fill-opacity: 0.8; stroke: #1f77b4; stroke-opacity: 0.8"/>
     <use xlink:href="#m4bacc490dd" x="141.07167" y="542.652247" style="fill: #1f77b4; fill-opacity: 0.8; stroke: #1f77b4; stroke-opacity: 0.8"/>
     <use xlink:href="#m4bacc490dd" x="126.702565" y="568.869355" style="fill: #1f77b4; fill-opacity: 0.8; stroke: #1f77b4; stroke-opacity: 0.8"/>
     <use xlink:href="#m4bacc490dd" x="141.07167" y="544.128954" style="fill: #1f77b4; fill-opacity: 0.8; stroke: #1f77b4; stroke-opacity: 0.8"/>
     <use xlink:href="#m4bacc490dd" x="212.541191" y="454.265694" style="fill: #1f77b4; fill-opacity: 0.8; stroke: #1f77b4; stroke-opacity: 0.8"/>
     <use xlink:href="#m4bacc490dd" x="258.035992" y="457.16553" style="fill: #1f77b4; fill-opacity: 0.8; stroke: #1f77b4; stroke-opacity: 0.8"/>
     <use xlink:href="#m4bacc490dd" x="258.035992" y="447.979831" style="fill: #1f77b4; fill-opacity: 0.8; stroke: #1f77b4; stroke-opacity: 0.8"/>
     <use xlink:href="#m4bacc490dd" x="258.035992" y="523.87077" style="fill: #1f77b4; fill-opacity: 0.8; stroke: #1f77b4; stroke-opacity: 0.8"/>
     <use xlink:href="#m4bacc490dd" x="242.244912" y="510.912215" style="fill: #1f77b4; fill-opacity: 0.8; stroke: #1f77b4; stroke-opacity: 0.8"/>
     <use xlink:href="#m4bacc490dd" x="242.244912" y="429.023133" style="fill: #1f77b4; fill-opacity: 0.8; stroke: #1f77b4; stroke-opacity: 0.8"/>
     <use xlink:href="#m4bacc490dd" x="430.598295" y="423.455916" style="fill: #1f77b4; fill-opacity: 0.8; stroke: #1f77b4; stroke-opacity: 0.8"/>
     <use xlink:href="#m4bacc490dd" x="373.578339" y="487.143419" style="fill: #1f77b4; fill-opacity: 0.8; stroke: #1f77b4; stroke-opacity: 0.8"/>
     <use xlink:href="#m4bacc490dd" x="357.787258" y="497.380562" style="fill: #1f77b4; fill-opacity: 0.8; stroke: #1f77b4; stroke-opacity: 0.8"/>
    </g>
   </g>
   <g id="PolyCollection_3">
    <path d="M 68.260633 519.715257 
L 68.260633 583.246778 
L 71.92061 581.267571 
L 75.580586 579.694787 
L 79.240562 577.768596 
L 82.900539 575.911272 
L 86.560515 574.171209 
L 90.220491 572.342987 
L 93.880468 570.954943 
L 97.540444 569.139798 
L 101.200421 567.75008 
L 104.860397 565.662831 
L 108.520373 563.840689 
L 112.18035 562.097687 
L 115.840326 560.02284 
L 119.500303 558.311482 
L 123.160279 556.743269 
L 126.820255 555.254238 
L 130.480232 553.560444 
L 134.140208 552.276324 
L 137.800184 550.692574 
L 141.460161 549.061308 
L 145.120137 547.582008 
L 148.780114 546.262702 
L 152.44009 544.7563 
L 156.100066 543.378552 
L 159.760043 541.868965 
L 163.420019 540.382918 
L 167.079996 539.079688 
L 170.739972 537.636044 
L 174.399948 536.424739 
L 178.059925 535.018646 
L 181.719901 533.597042 
L 185.379878 532.361856 
L 189.039854 530.818011 
L 192.69983 529.623386 
L 196.359807 528.350936 
L 200.019783 527.185347 
L 203.679759 525.923466 
L 207.339736 524.300298 
L 210.999712 523.102641 
L 214.659689 521.870724 
L 218.319665 520.524113 
L 221.979641 519.495536 
L 225.639618 518.155525 
L 229.299594 517.142939 
L 232.959571 515.971049 
L 236.619547 514.76239 
L 240.279523 513.393707 
L 243.9395 512.381769 
L 247.599476 511.312601 
L 251.259452 510.140674 
L 254.919429 509.108828 
L 258.579405 508.109513 
L 262.239382 506.731387 
L 265.899358 505.511202 
L 269.559334 504.963219 
L 273.219311 503.81115 
L 276.879287 502.619452 
L 280.539264 501.542331 
L 284.19924 500.638895 
L 287.859216 499.67692 
L 291.519193 498.578386 
L 295.179169 497.414814 
L 298.839146 496.248143 
L 302.499122 495.200771 
L 306.159098 494.354332 
L 309.819075 493.62709 
L 313.479051 492.659285 
L 317.139027 491.850492 
L 320.799004 491.088882 
L 324.45898 490.386543 
L 328.118957 489.629875 
L 331.778933 488.807789 
L 335.438909 487.956716 
L 339.098886 486.986688 
L 342.758862 485.949643 
L 346.418839 484.775768 
L 350.078815 484.001187 
L 353.738791 483.130953 
L 357.398768 482.465176 
L 361.058744 481.702031 
L 364.71872 480.966311 
L 368.378697 480.366718 
L 372.038673 479.447295 
L 375.69865 478.615336 
L 379.358626 477.807441 
L 383.018602 477.024282 
L 386.678579 476.226557 
L 390.338555 475.534482 
L 393.998532 474.767713 
L 397.658508 474.15514 
L 401.318484 473.470685 
L 404.978461 472.734853 
L 408.638437 471.735506 
L 412.298414 471.056398 
L 415.95839 470.544827 
L 419.618366 470.015574 
L 423.278343 469.435757 
L 426.938319 468.894323 
L 430.598295 468.239055 
L 430.598295 371.454545 
L 430.598295 371.454545 
L 426.938319 373.573004 
L 423.278343 375.575951 
L 419.618366 377.529924 
L 415.95839 379.43586 
L 412.298414 381.176523 
L 408.638437 382.917186 
L 404.978461 384.94549 
L 401.318484 387.099358 
L 397.658508 389.224443 
L 393.998532 391.167541 
L 390.338555 393.11064 
L 386.678579 395.066627 
L 383.018602 397.02279 
L 379.358626 398.978953 
L 375.69865 400.935116 
L 372.038673 402.891279 
L 368.378697 405.07065 
L 364.71872 407.31541 
L 361.058744 409.560171 
L 357.398768 411.761789 
L 353.738791 413.739211 
L 350.078815 415.716634 
L 346.418839 417.694056 
L 342.758862 419.672895 
L 339.098886 421.575929 
L 335.438909 423.168121 
L 331.778933 425.059237 
L 328.118957 427.304379 
L 324.45898 429.225572 
L 320.799004 431.101827 
L 317.139027 433.378746 
L 313.479051 435.499608 
L 309.819075 437.271559 
L 306.159098 438.947844 
L 302.499122 440.62787 
L 298.839146 442.307896 
L 295.179169 443.987922 
L 291.519193 445.770199 
L 287.859216 447.828933 
L 284.19924 449.988666 
L 280.539264 451.950341 
L 276.879287 453.535493 
L 273.219311 455.312084 
L 269.559334 457.084855 
L 265.899358 458.853458 
L 262.239382 460.443052 
L 258.579405 461.99621 
L 254.919429 463.914726 
L 251.259452 465.714798 
L 247.599476 467.647828 
L 243.9395 469.252487 
L 240.279523 471.230613 
L 236.619547 473.151207 
L 232.959571 474.783465 
L 229.299594 476.170872 
L 225.639618 477.792551 
L 221.979641 479.377793 
L 218.319665 480.76952 
L 214.659689 482.03388 
L 210.999712 483.440306 
L 207.339736 484.611212 
L 203.679759 485.681455 
L 200.019783 486.803041 
L 196.359807 488.175399 
L 192.69983 489.539111 
L 189.039854 490.579376 
L 185.379878 491.914498 
L 181.719901 493.032639 
L 178.059925 494.362239 
L 174.399948 495.481959 
L 170.739972 496.270229 
L 167.079996 497.106154 
L 163.420019 498.218093 
L 159.760043 499.329982 
L 156.100066 500.378485 
L 152.44009 501.478239 
L 148.780114 502.559053 
L 145.120137 503.178136 
L 141.460161 503.749243 
L 137.800184 504.443619 
L 134.140208 505.34649 
L 130.480232 506.388541 
L 126.820255 507.458294 
L 123.160279 508.422641 
L 119.500303 509.092188 
L 115.840326 509.721959 
L 112.18035 510.369728 
L 108.520373 511.024919 
L 104.860397 511.67071 
L 101.200421 512.316501 
L 97.540444 512.964257 
L 93.880468 513.620786 
L 90.220491 514.278066 
L 86.560515 515.11037 
L 82.900539 516.027788 
L 79.240562 516.946892 
L 75.580586 517.867684 
L 71.92061 518.791466 
L 68.260633 519.715257 
z
" clip-path="url(#p79e9bd91db)" style="fill: #ffa500; fill-opacity: 0.15"/>
   </g>
   <g id="matplotlib.axis_5">
    <g id="xtick_11">
     <g id="line2d_23">
      <g>
       <use xlink:href="#m9b7ee1cb30" x="88.669663" y="612" style="stroke: #000000; stroke-width: 0.8"/>
      </g>
     </g>
     <g id="text_24">
      <!-- 0.02 -->
      <g transform="translate(77.536851 626.598437) scale(0.1 -0.1)">
       <use xlink:href="#DejaVuSans-30"/>
       <use xlink:href="#DejaVuSans-2e" x="63.623047"/>
       <use xlink:href="#DejaVuSans-30" x="95.410156"/>
       <use xlink:href="#DejaVuSans-32" x="159.033203"/>
      </g>
     </g>
    </g>
    <g id="xtick_12">
     <g id="line2d_24">
      <g>
       <use xlink:href="#m9b7ee1cb30" x="166.179109" y="612" style="stroke: #000000; stroke-width: 0.8"/>
      </g>
     </g>
     <g id="text_25">
      <!-- 0.04 -->
      <g transform="translate(155.046296 626.598437) scale(0.1 -0.1)">
       <use xlink:href="#DejaVuSans-30"/>
       <use xlink:href="#DejaVuSans-2e" x="63.623047"/>
       <use xlink:href="#DejaVuSans-30" x="95.410156"/>
       <use xlink:href="#DejaVuSans-34" x="159.033203"/>
      </g>
     </g>
    </g>
    <g id="xtick_13">
     <g id="line2d_25">
      <g>
       <use xlink:href="#m9b7ee1cb30" x="243.688554" y="612" style="stroke: #000000; stroke-width: 0.8"/>
      </g>
     </g>
     <g id="text_26">
      <!-- 0.06 -->
      <g transform="translate(232.555741 626.598437) scale(0.1 -0.1)">
       <use xlink:href="#DejaVuSans-30"/>
       <use xlink:href="#DejaVuSans-2e" x="63.623047"/>
       <use xlink:href="#DejaVuSans-30" x="95.410156"/>
       <use xlink:href="#DejaVuSans-36" x="159.033203"/>
      </g>
     </g>
    </g>
    <g id="xtick_14">
     <g id="line2d_26">
      <g>
       <use xlink:href="#m9b7ee1cb30" x="321.197999" y="612" style="stroke: #000000; stroke-width: 0.8"/>
      </g>
     </g>
     <g id="text_27">
      <!-- 0.08 -->
      <g transform="translate(310.065187 626.598437) scale(0.1 -0.1)">
       <use xlink:href="#DejaVuSans-30"/>
       <use xlink:href="#DejaVuSans-2e" x="63.623047"/>
       <use xlink:href="#DejaVuSans-30" x="95.410156"/>
       <use xlink:href="#DejaVuSans-38" x="159.033203"/>
      </g>
     </g>
    </g>
    <g id="xtick_15">
     <g id="line2d_27">
      <g>
       <use xlink:href="#m9b7ee1cb30" x="398.707444" y="612" style="stroke: #000000; stroke-width: 0.8"/>
      </g>
     </g>
     <g id="text_28">
      <!-- 0.10 -->
      <g transform="translate(387.574632 626.598437) scale(0.1 -0.1)">
       <use xlink:href="#DejaVuSans-30"/>
       <use xlink:href="#DejaVuSans-2e" x="63.623047"/>
       <use xlink:href="#DejaVuSans-31" x="95.410156"/>
       <use xlink:href="#DejaVuSans-30" x="159.033203"/>
      </g>
     </g>
    </g>
    <g id="text_29">
     <!-- Codon+GC -->
     <g transform="translate(221.920871 640.276562) scale(0.1 -0.1)">
      <defs>
       <path id="DejaVuSans-47" d="M 3809 666 
L 3809 1919 
L 2778 1919 
L 2778 2438 
L 4434 2438 
L 4434 434 
Q 4069 175 3628 42 
Q 3188 -91 2688 -91 
Q 1594 -91 976 548 
Q 359 1188 359 2328 
Q 359 3472 976 4111 
Q 1594 4750 2688 4750 
Q 3144 4750 3555 4637 
Q 3966 4525 4313 4306 
L 4313 3634 
Q 3963 3931 3569 4081 
Q 3175 4231 2741 4231 
Q 1884 4231 1454 3753 
Q 1025 3275 1025 2328 
Q 1025 1384 1454 906 
Q 1884 428 2741 428 
Q 3075 428 3337 486 
Q 3600 544 3809 666 
z
" transform="scale(0.015625)"/>
      </defs>
      <use xlink:href="#DejaVuSans-43"/>
      <use xlink:href="#DejaVuSans-6f" x="69.824219"/>
      <use xlink:href="#DejaVuSans-64" x="131.005859"/>
      <use xlink:href="#DejaVuSans-6f" x="194.482422"/>
      <use xlink:href="#DejaVuSans-6e" x="255.664062"/>
      <use xlink:href="#DejaVuSans-2b" x="319.042969"/>
      <use xlink:href="#DejaVuSans-47" x="402.832031"/>
      <use xlink:href="#DejaVuSans-43" x="480.322266"/>
     </g>
    </g>
   </g>
   <g id="matplotlib.axis_6">
    <g id="ytick_11">
     <g id="line2d_28">
      <g>
       <use xlink:href="#m4159eec5bf" x="50.14375" y="571.973117" style="stroke: #000000; stroke-width: 0.8"/>
      </g>
     </g>
     <g id="text_30">
      <!-- 0.02 -->
      <g transform="translate(20.878125 575.772336) scale(0.1 -0.1)">
       <use xlink:href="#DejaVuSans-30"/>
       <use xlink:href="#DejaVuSans-2e" x="63.623047"/>
       <use xlink:href="#DejaVuSans-30" x="95.410156"/>
       <use xlink:href="#DejaVuSans-32" x="159.033203"/>
      </g>
     </g>
    </g>
    <g id="ytick_12">
     <g id="line2d_29">
      <g>
       <use xlink:href="#m4159eec5bf" x="50.14375" y="528.24295" style="stroke: #000000; stroke-width: 0.8"/>
      </g>
     </g>
     <g id="text_31">
      <!-- 0.04 -->
      <g transform="translate(20.878125 532.042168) scale(0.1 -0.1)">
       <use xlink:href="#DejaVuSans-30"/>
       <use xlink:href="#DejaVuSans-2e" x="63.623047"/>
       <use xlink:href="#DejaVuSans-30" x="95.410156"/>
       <use xlink:href="#DejaVuSans-34" x="159.033203"/>
      </g>
     </g>
    </g>
    <g id="ytick_13">
     <g id="line2d_30">
      <g>
       <use xlink:href="#m4159eec5bf" x="50.14375" y="484.512782" style="stroke: #000000; stroke-width: 0.8"/>
      </g>
     </g>
     <g id="text_32">
      <!-- 0.06 -->
      <g transform="translate(20.878125 488.312001) scale(0.1 -0.1)">
       <use xlink:href="#DejaVuSans-30"/>
       <use xlink:href="#DejaVuSans-2e" x="63.623047"/>
       <use xlink:href="#DejaVuSans-30" x="95.410156"/>
       <use xlink:href="#DejaVuSans-36" x="159.033203"/>
      </g>
     </g>
    </g>
    <g id="ytick_14">
     <g id="line2d_31">
      <g>
       <use xlink:href="#m4159eec5bf" x="50.14375" y="440.782614" style="stroke: #000000; stroke-width: 0.8"/>
      </g>
     </g>
     <g id="text_33">
      <!-- 0.08 -->
      <g transform="translate(20.878125 444.581833) scale(0.1 -0.1)">
       <use xlink:href="#DejaVuSans-30"/>
       <use xlink:href="#DejaVuSans-2e" x="63.623047"/>
       <use xlink:href="#DejaVuSans-30" x="95.410156"/>
       <use xlink:href="#DejaVuSans-38" x="159.033203"/>
      </g>
     </g>
    </g>
    <g id="ytick_15">
     <g id="line2d_32">
      <g>
       <use xlink:href="#m4159eec5bf" x="50.14375" y="397.052447" style="stroke: #000000; stroke-width: 0.8"/>
      </g>
     </g>
     <g id="text_34">
      <!-- 0.10 -->
      <g transform="translate(20.878125 400.851665) scale(0.1 -0.1)">
       <use xlink:href="#DejaVuSans-30"/>
       <use xlink:href="#DejaVuSans-2e" x="63.623047"/>
       <use xlink:href="#DejaVuSans-31" x="95.410156"/>
       <use xlink:href="#DejaVuSans-30" x="159.033203"/>
      </g>
     </g>
    </g>
    <g id="text_35">
     <!-- Amino acid frequency -->
     <g transform="translate(14.798438 540.539062) rotate(-90) scale(0.1 -0.1)">
      <use xlink:href="#DejaVuSans-41"/>
      <use xlink:href="#DejaVuSans-6d" x="68.408203"/>
      <use xlink:href="#DejaVuSans-69" x="165.820312"/>
      <use xlink:href="#DejaVuSans-6e" x="193.603516"/>
      <use xlink:href="#DejaVuSans-6f" x="256.982422"/>
      <use xlink:href="#DejaVuSans-20" x="318.164062"/>
      <use xlink:href="#DejaVuSans-61" x="349.951172"/>
      <use xlink:href="#DejaVuSans-63" x="411.230469"/>
      <use xlink:href="#DejaVuSans-69" x="466.210938"/>
      <use xlink:href="#DejaVuSans-64" x="493.994141"/>
      <use xlink:href="#DejaVuSans-20" x="557.470703"/>
      <use xlink:href="#DejaVuSans-66" x="589.257812"/>
      <use xlink:href="#DejaVuSans-72" x="624.462891"/>
      <use xlink:href="#DejaVuSans-65" x="663.326172"/>
      <use xlink:href="#DejaVuSans-71" x="724.849609"/>
      <use xlink:href="#DejaVuSans-75" x="788.326172"/>
      <use xlink:href="#DejaVuSans-65" x="851.705078"/>
      <use xlink:href="#DejaVuSans-6e" x="913.228516"/>
      <use xlink:href="#DejaVuSans-63" x="976.607422"/>
      <use xlink:href="#DejaVuSans-79" x="1031.587891"/>
     </g>
    </g>
   </g>
   <g id="line2d_33">
    <path d="M 68.260633 552.89673 
L 71.92061 551.648016 
L 75.580586 550.399302 
L 79.240562 549.150588 
L 82.900539 547.901874 
L 86.560515 546.65316 
L 90.220491 545.404446 
L 93.880468 544.155732 
L 97.540444 542.907018 
L 101.200421 541.658304 
L 104.860397 540.40959 
L 108.520373 539.160876 
L 112.18035 537.912162 
L 115.840326 536.663448 
L 119.500303 535.414734 
L 123.160279 534.16602 
L 126.820255 532.917306 
L 130.480232 531.668592 
L 134.140208 530.419878 
L 137.800184 529.171164 
L 141.460161 527.92245 
L 145.120137 526.673736 
L 148.780114 525.425022 
L 152.44009 524.176308 
L 156.100066 522.927593 
L 159.760043 521.678879 
L 163.420019 520.430165 
L 167.079996 519.181451 
L 170.739972 517.932737 
L 174.399948 516.684023 
L 178.059925 515.435309 
L 181.719901 514.186595 
L 185.379878 512.937881 
L 189.039854 511.689167 
L 192.69983 510.440453 
L 196.359807 509.191739 
L 200.019783 507.943025 
L 203.679759 506.694311 
L 207.339736 505.445597 
L 210.999712 504.196883 
L 214.659689 502.948169 
L 218.319665 501.699455 
L 221.979641 500.450741 
L 225.639618 499.202027 
L 229.299594 497.953313 
L 232.959571 496.704599 
L 236.619547 495.455885 
L 240.279523 494.207171 
L 243.9395 492.958457 
L 247.599476 491.709743 
L 251.259452 490.461028 
L 254.919429 489.212314 
L 258.579405 487.9636 
L 262.239382 486.714886 
L 265.899358 485.466172 
L 269.559334 484.217458 
L 273.219311 482.968744 
L 276.879287 481.72003 
L 280.539264 480.471316 
L 284.19924 479.222602 
L 287.859216 477.973888 
L 291.519193 476.725174 
L 295.179169 475.47646 
L 298.839146 474.227746 
L 302.499122 472.979032 
L 306.159098 471.730318 
L 309.819075 470.481604 
L 313.479051 469.23289 
L 317.139027 467.984176 
L 320.799004 466.735462 
L 324.45898 465.486748 
L 328.118957 464.238034 
L 331.778933 462.98932 
L 335.438909 461.740606 
L 339.098886 460.491892 
L 342.758862 459.243178 
L 346.418839 457.994463 
L 350.078815 456.745749 
L 353.738791 455.497035 
L 357.398768 454.248321 
L 361.058744 452.999607 
L 364.71872 451.750893 
L 368.378697 450.502179 
L 372.038673 449.253465 
L 375.69865 448.004751 
L 379.358626 446.756037 
L 383.018602 445.507323 
L 386.678579 444.258609 
L 390.338555 443.009895 
L 393.998532 441.761181 
L 397.658508 440.512467 
L 401.318484 439.263753 
L 404.978461 438.015039 
L 408.638437 436.766325 
L 412.298414 435.517611 
L 415.95839 434.268897 
L 419.618366 433.020183 
L 423.278343 431.771469 
L 426.938319 430.522755 
L 430.598295 429.274041 
" clip-path="url(#p79e9bd91db)" style="fill: none; stroke: #ffa500; stroke-width: 2.25; stroke-linecap: square"/>
   </g>
   <g id="patch_13">
    <path d="M 50.14375 612 
L 50.14375 360 
" style="fill: none; stroke: #000000; stroke-width: 0.8; stroke-linejoin: miter; stroke-linecap: square"/>
   </g>
   <g id="patch_14">
    <path d="M 448.715179 612 
L 448.715179 360 
" style="fill: none; stroke: #000000; stroke-width: 0.8; stroke-linejoin: miter; stroke-linecap: square"/>
   </g>
   <g id="patch_15">
    <path d="M 50.14375 612 
L 448.715179 612 
" style="fill: none; stroke: #000000; stroke-width: 0.8; stroke-linejoin: miter; stroke-linecap: square"/>
   </g>
   <g id="patch_16">
    <path d="M 50.14375 360 
L 448.715179 360 
" style="fill: none; stroke: #000000; stroke-width: 0.8; stroke-linejoin: miter; stroke-linecap: square"/>
   </g>
  </g>
  <g id="axes_4">
   <g id="patch_17">
    <path d="M 488.572321 612 
L 887.14375 612 
L 887.14375 360 
L 488.572321 360 
z
" style="fill: #ffffff"/>
   </g>
   <g id="PathCollection_4">
    <g clip-path="url(#pac30b21a90)">
     <use xlink:href="#m4bacc490dd" x="508.360519" y="562.832039" style="fill: #1f77b4; fill-opacity: 0.8; stroke: #1f77b4; stroke-opacity: 0.8"/>
     <use xlink:href="#m4bacc490dd" x="506.689205" y="600.545455" style="fill: #1f77b4; fill-opacity: 0.8; stroke: #1f77b4; stroke-opacity: 0.8"/>
     <use xlink:href="#m4bacc490dd" x="565.119124" y="598.347641" style="fill: #1f77b4; fill-opacity: 0.8; stroke: #1f77b4; stroke-opacity: 0.8"/>
     <use xlink:href="#m4bacc490dd" x="565.119124" y="474.830558" style="fill: #1f77b4; fill-opacity: 0.8; stroke: #1f77b4; stroke-opacity: 0.8"/>
     <use xlink:href="#m4bacc490dd" x="565.119124" y="436.351149" style="fill: #1f77b4; fill-opacity: 0.8; stroke: #1f77b4; stroke-opacity: 0.8"/>
     <use xlink:href="#m4bacc490dd" x="580.2199" y="548.392845" style="fill: #1f77b4; fill-opacity: 0.8; stroke: #1f77b4; stroke-opacity: 0.8"/>
     <use xlink:href="#m4bacc490dd" x="565.119124" y="577.074999" style="fill: #1f77b4; fill-opacity: 0.8; stroke: #1f77b4; stroke-opacity: 0.8"/>
     <use xlink:href="#m4bacc490dd" x="580.2199" y="477.045495" style="fill: #1f77b4; fill-opacity: 0.8; stroke: #1f77b4; stroke-opacity: 0.8"/>
     <use xlink:href="#m4bacc490dd" x="580.2199" y="541.832575" style="fill: #1f77b4; fill-opacity: 0.8; stroke: #1f77b4; stroke-opacity: 0.8"/>
     <use xlink:href="#m4bacc490dd" x="565.119124" y="568.420874" style="fill: #1f77b4; fill-opacity: 0.8; stroke: #1f77b4; stroke-opacity: 0.8"/>
     <use xlink:href="#m4bacc490dd" x="580.2199" y="543.330189" style="fill: #1f77b4; fill-opacity: 0.8; stroke: #1f77b4; stroke-opacity: 0.8"/>
     <use xlink:href="#m4bacc490dd" x="652.079281" y="452.194614" style="fill: #1f77b4; fill-opacity: 0.8; stroke: #1f77b4; stroke-opacity: 0.8"/>
     <use xlink:href="#m4bacc490dd" x="694.67724" y="455.135506" style="fill: #1f77b4; fill-opacity: 0.8; stroke: #1f77b4; stroke-opacity: 0.8"/>
     <use xlink:href="#m4bacc490dd" x="694.67724" y="445.819753" style="fill: #1f77b4; fill-opacity: 0.8; stroke: #1f77b4; stroke-opacity: 0.8"/>
     <use xlink:href="#m4bacc490dd" x="694.67724" y="522.785183" style="fill: #1f77b4; fill-opacity: 0.8; stroke: #1f77b4; stroke-opacity: 0.8"/>
     <use xlink:href="#m4bacc490dd" x="680.307648" y="509.643156" style="fill: #1f77b4; fill-opacity: 0.8; stroke: #1f77b4; stroke-opacity: 0.8"/>
     <use xlink:href="#m4bacc490dd" x="680.307648" y="426.59466" style="fill: #1f77b4; fill-opacity: 0.8; stroke: #1f77b4; stroke-opacity: 0.8"/>
     <use xlink:href="#m4bacc490dd" x="869.026867" y="420.94862" style="fill: #1f77b4; fill-opacity: 0.8; stroke: #1f77b4; stroke-opacity: 0.8"/>
     <use xlink:href="#m4bacc490dd" x="809.865764" y="485.537833" style="fill: #1f77b4; fill-opacity: 0.8; stroke: #1f77b4; stroke-opacity: 0.8"/>
     <use xlink:href="#m4bacc490dd" x="795.496172" y="495.919917" style="fill: #1f77b4; fill-opacity: 0.8; stroke: #1f77b4; stroke-opacity: 0.8"/>
    </g>
   </g>
   <g id="PolyCollection_4">
    <path d="M 506.689205 516.243458 
L 506.689205 583.937321 
L 510.349181 582.051209 
L 514.009157 580.070443 
L 517.669134 578.144646 
L 521.32911 576.342287 
L 524.989086 574.596212 
L 528.649063 572.777289 
L 532.309039 570.924104 
L 535.969016 569.309331 
L 539.628992 567.234023 
L 543.288968 565.194011 
L 546.948945 563.596274 
L 550.608921 562.241657 
L 554.268898 560.722775 
L 557.928874 559.321725 
L 561.58885 557.569264 
L 565.248827 555.599459 
L 568.908803 554.26056 
L 572.56878 552.705793 
L 576.228756 551.159405 
L 579.888732 549.679458 
L 583.548709 547.885432 
L 587.208685 546.105379 
L 590.868661 544.802847 
L 594.528638 543.056115 
L 598.188614 541.474163 
L 601.848591 539.949674 
L 605.508567 538.391995 
L 609.168543 537.00389 
L 612.82852 535.500341 
L 616.488496 534.159563 
L 620.148473 532.731347 
L 623.808449 531.531267 
L 627.468425 530.203032 
L 631.128402 528.653538 
L 634.788378 527.325394 
L 638.448354 525.876461 
L 642.108331 524.470316 
L 645.768307 522.770281 
L 649.428284 521.073989 
L 653.08826 519.936006 
L 656.748236 518.937731 
L 660.408213 517.991076 
L 664.068189 516.65643 
L 667.728166 515.243479 
L 671.388142 514.288969 
L 675.048118 512.968666 
L 678.708095 511.719545 
L 682.368071 510.305364 
L 686.028048 508.99129 
L 689.688024 507.673303 
L 693.348 506.680323 
L 697.007977 505.419948 
L 700.667953 504.153786 
L 704.327929 503.086022 
L 707.987906 501.923324 
L 711.647882 500.966819 
L 715.307859 499.918943 
L 718.967835 498.867378 
L 722.627811 497.801425 
L 726.287788 496.735471 
L 729.947764 495.669518 
L 733.607741 494.482497 
L 737.267717 493.555634 
L 740.927693 492.753941 
L 744.58767 491.915261 
L 748.247646 490.885708 
L 751.907622 489.75203 
L 755.567599 488.628696 
L 759.227575 487.418835 
L 762.887552 486.473453 
L 766.547528 485.488105 
L 770.207504 484.5751 
L 773.867481 483.900699 
L 777.527457 483.263024 
L 781.187434 482.588471 
L 784.84741 481.917985 
L 788.507386 481.203096 
L 792.167363 480.492574 
L 795.827339 479.854295 
L 799.487316 479.179894 
L 803.147292 478.499125 
L 806.807268 477.430004 
L 810.467245 476.37499 
L 814.127221 475.672234 
L 817.787197 474.514949 
L 821.447174 473.372706 
L 825.10715 472.638762 
L 828.767127 471.667532 
L 832.427103 470.531922 
L 836.087079 469.864674 
L 839.747056 469.403881 
L 843.407032 468.943088 
L 847.067009 468.297225 
L 850.726985 467.451005 
L 854.386961 466.847803 
L 858.046938 466.128789 
L 861.706914 465.40563 
L 865.36689 464.575324 
L 869.026867 463.553981 
L 869.026867 371.454545 
L 869.026867 371.454545 
L 865.36689 373.548802 
L 861.706914 375.643058 
L 858.046938 377.737315 
L 854.386961 379.835181 
L 850.726985 381.937066 
L 847.067009 384.038951 
L 843.407032 386.140836 
L 839.747056 388.242721 
L 836.087079 390.344606 
L 832.427103 392.44649 
L 828.767127 394.54319 
L 825.10715 396.43081 
L 821.447174 398.318431 
L 817.787197 400.283186 
L 814.127221 402.471844 
L 810.467245 404.280308 
L 806.807268 406.291183 
L 803.147292 408.091431 
L 799.487316 409.893672 
L 795.827339 411.69728 
L 792.167363 413.500888 
L 788.507386 415.304495 
L 784.84741 417.120967 
L 781.187434 418.909258 
L 777.527457 420.774448 
L 773.867481 422.60322 
L 770.207504 424.808765 
L 766.547528 426.950359 
L 762.887552 429.091952 
L 759.227575 431.233546 
L 755.567599 433.375139 
L 751.907622 435.516733 
L 748.247646 437.396792 
L 744.58767 438.928921 
L 740.927693 440.461051 
L 737.267717 441.99318 
L 733.607741 443.525309 
L 729.947764 445.310131 
L 726.287788 446.958426 
L 722.627811 448.403219 
L 718.967835 449.848011 
L 715.307859 451.338176 
L 711.647882 453.13448 
L 707.987906 454.978234 
L 704.327929 456.806521 
L 700.667953 458.540766 
L 697.007977 460.335723 
L 693.348 462.138215 
L 689.688024 463.947981 
L 686.028048 465.738359 
L 682.368071 467.55061 
L 678.708095 469.347304 
L 675.048118 470.846193 
L 671.388142 471.970416 
L 667.728166 472.730135 
L 664.068189 474.457515 
L 660.408213 476.199665 
L 656.748236 477.965325 
L 653.08826 479.497945 
L 649.428284 480.940327 
L 645.768307 482.348295 
L 642.108331 483.503441 
L 638.448354 484.488795 
L 634.788378 485.821422 
L 631.128402 486.988506 
L 627.468425 488.336313 
L 623.808449 489.312173 
L 620.148473 490.622682 
L 616.488496 491.624189 
L 612.82852 492.643881 
L 609.168543 493.469332 
L 605.508567 494.576466 
L 601.848591 496.010224 
L 598.188614 496.684597 
L 594.528638 497.609399 
L 590.868661 498.658547 
L 587.208685 499.790599 
L 583.548709 500.482835 
L 579.888732 501.409044 
L 576.228756 502.052087 
L 572.56878 502.538353 
L 568.908803 503.185126 
L 565.248827 504.060393 
L 561.58885 504.948854 
L 557.928874 505.538081 
L 554.268898 506.417771 
L 550.608921 507.205474 
L 546.948945 507.774922 
L 543.288968 508.610708 
L 539.628992 509.432099 
L 535.969016 510.096676 
L 532.309039 510.771556 
L 528.649063 511.591367 
L 524.989086 512.08106 
L 521.32911 512.963688 
L 517.669134 513.880696 
L 514.009157 514.797705 
L 510.349181 515.623389 
L 506.689205 516.243458 
z
" clip-path="url(#pac30b21a90)" style="fill: #ffa500; fill-opacity: 0.15"/>
   </g>
   <g id="matplotlib.axis_7">
    <g id="xtick_16">
     <g id="line2d_34">
      <g>
       <use xlink:href="#m9b7ee1cb30" x="524.61116" y="612" style="stroke: #000000; stroke-width: 0.8"/>
      </g>
     </g>
     <g id="text_36">
      <!-- 0.02 -->
      <g transform="translate(513.478348 626.598437) scale(0.1 -0.1)">
       <use xlink:href="#DejaVuSans-30"/>
       <use xlink:href="#DejaVuSans-2e" x="63.623047"/>
       <use xlink:href="#DejaVuSans-30" x="95.410156"/>
       <use xlink:href="#DejaVuSans-32" x="159.033203"/>
      </g>
     </g>
    </g>
    <g id="xtick_17">
     <g id="line2d_35">
      <g>
       <use xlink:href="#m9b7ee1cb30" x="599.291721" y="612" style="stroke: #000000; stroke-width: 0.8"/>
      </g>
     </g>
     <g id="text_37">
      <!-- 0.04 -->
      <g transform="translate(588.158909 626.598437) scale(0.1 -0.1)">
       <use xlink:href="#DejaVuSans-30"/>
       <use xlink:href="#DejaVuSans-2e" x="63.623047"/>
       <use xlink:href="#DejaVuSans-30" x="95.410156"/>
       <use xlink:href="#DejaVuSans-34" x="159.033203"/>
      </g>
     </g>
    </g>
    <g id="xtick_18">
     <g id="line2d_36">
      <g>
       <use xlink:href="#m9b7ee1cb30" x="673.972282" y="612" style="stroke: #000000; stroke-width: 0.8"/>
      </g>
     </g>
     <g id="text_38">
      <!-- 0.06 -->
      <g transform="translate(662.83947 626.598437) scale(0.1 -0.1)">
       <use xlink:href="#DejaVuSans-30"/>
       <use xlink:href="#DejaVuSans-2e" x="63.623047"/>
       <use xlink:href="#DejaVuSans-30" x="95.410156"/>
       <use xlink:href="#DejaVuSans-36" x="159.033203"/>
      </g>
     </g>
    </g>
    <g id="xtick_19">
     <g id="line2d_37">
      <g>
       <use xlink:href="#m9b7ee1cb30" x="748.652843" y="612" style="stroke: #000000; stroke-width: 0.8"/>
      </g>
     </g>
     <g id="text_39">
      <!-- 0.08 -->
      <g transform="translate(737.520031 626.598437) scale(0.1 -0.1)">
       <use xlink:href="#DejaVuSans-30"/>
       <use xlink:href="#DejaVuSans-2e" x="63.623047"/>
       <use xlink:href="#DejaVuSans-30" x="95.410156"/>
       <use xlink:href="#DejaVuSans-38" x="159.033203"/>
      </g>
     </g>
    </g>
    <g id="xtick_20">
     <g id="line2d_38">
      <g>
       <use xlink:href="#m9b7ee1cb30" x="823.333404" y="612" style="stroke: #000000; stroke-width: 0.8"/>
      </g>
     </g>
     <g id="text_40">
      <!-- 0.10 -->
      <g transform="translate(812.200592 626.598437) scale(0.1 -0.1)">
       <use xlink:href="#DejaVuSans-30"/>
       <use xlink:href="#DejaVuSans-2e" x="63.623047"/>
       <use xlink:href="#DejaVuSans-31" x="95.410156"/>
       <use xlink:href="#DejaVuSans-30" x="159.033203"/>
      </g>
     </g>
    </g>
    <g id="text_41">
     <!-- Codon+GC+Cost -->
     <g transform="translate(645.043973 640.276562) scale(0.1 -0.1)">
      <use xlink:href="#DejaVuSans-43"/>
      <use xlink:href="#DejaVuSans-6f" x="69.824219"/>
      <use xlink:href="#DejaVuSans-64" x="131.005859"/>
      <use xlink:href="#DejaVuSans-6f" x="194.482422"/>
      <use xlink:href="#DejaVuSans-6e" x="255.664062"/>
      <use xlink:href="#DejaVuSans-2b" x="319.042969"/>
      <use xlink:href="#DejaVuSans-47" x="402.832031"/>
      <use xlink:href="#DejaVuSans-43" x="480.322266"/>
      <use xlink:href="#DejaVuSans-2b" x="550.146484"/>
      <use xlink:href="#DejaVuSans-43" x="633.935547"/>
      <use xlink:href="#DejaVuSans-6f" x="703.759766"/>
      <use xlink:href="#DejaVuSans-73" x="764.941406"/>
      <use xlink:href="#DejaVuSans-74" x="817.041016"/>
     </g>
    </g>
   </g>
   <g id="matplotlib.axis_8">
    <g id="ytick_16">
     <g id="line2d_39">
      <g>
       <use xlink:href="#m4159eec5bf" x="488.572321" y="571.56858" style="stroke: #000000; stroke-width: 0.8"/>
      </g>
     </g>
     <g id="text_42">
      <!-- 0.02 -->
      <g transform="translate(459.306696 575.367799) scale(0.1 -0.1)">
       <use xlink:href="#DejaVuSans-30"/>
       <use xlink:href="#DejaVuSans-2e" x="63.623047"/>
       <use xlink:href="#DejaVuSans-30" x="95.410156"/>
       <use xlink:href="#DejaVuSans-32" x="159.033203"/>
      </g>
     </g>
    </g>
    <g id="ytick_17">
     <g id="line2d_40">
      <g>
       <use xlink:href="#m4159eec5bf" x="488.572321" y="527.219265" style="stroke: #000000; stroke-width: 0.8"/>
      </g>
     </g>
     <g id="text_43">
      <!-- 0.04 -->
      <g transform="translate(459.306696 531.018484) scale(0.1 -0.1)">
       <use xlink:href="#DejaVuSans-30"/>
       <use xlink:href="#DejaVuSans-2e" x="63.623047"/>
       <use xlink:href="#DejaVuSans-30" x="95.410156"/>
       <use xlink:href="#DejaVuSans-34" x="159.033203"/>
      </g>
     </g>
    </g>
    <g id="ytick_18">
     <g id="line2d_41">
      <g>
       <use xlink:href="#m4159eec5bf" x="488.572321" y="482.869951" style="stroke: #000000; stroke-width: 0.8"/>
      </g>
     </g>
     <g id="text_44">
      <!-- 0.06 -->
      <g transform="translate(459.306696 486.669169) scale(0.1 -0.1)">
       <use xlink:href="#DejaVuSans-30"/>
       <use xlink:href="#DejaVuSans-2e" x="63.623047"/>
       <use xlink:href="#DejaVuSans-30" x="95.410156"/>
       <use xlink:href="#DejaVuSans-36" x="159.033203"/>
      </g>
     </g>
    </g>
    <g id="ytick_19">
     <g id="line2d_42">
      <g>
       <use xlink:href="#m4159eec5bf" x="488.572321" y="438.520636" style="stroke: #000000; stroke-width: 0.8"/>
      </g>
     </g>
     <g id="text_45">
      <!-- 0.08 -->
      <g transform="translate(459.306696 442.319855) scale(0.1 -0.1)">
       <use xlink:href="#DejaVuSans-30"/>
       <use xlink:href="#DejaVuSans-2e" x="63.623047"/>
       <use xlink:href="#DejaVuSans-30" x="95.410156"/>
       <use xlink:href="#DejaVuSans-38" x="159.033203"/>
      </g>
     </g>
    </g>
    <g id="ytick_20">
     <g id="line2d_43">
      <g>
       <use xlink:href="#m4159eec5bf" x="488.572321" y="394.171321" style="stroke: #000000; stroke-width: 0.8"/>
      </g>
     </g>
     <g id="text_46">
      <!-- 0.10 -->
      <g transform="translate(459.306696 397.97054) scale(0.1 -0.1)">
       <use xlink:href="#DejaVuSans-30"/>
       <use xlink:href="#DejaVuSans-2e" x="63.623047"/>
       <use xlink:href="#DejaVuSans-31" x="95.410156"/>
       <use xlink:href="#DejaVuSans-30" x="159.033203"/>
      </g>
     </g>
    </g>
   </g>
   <g id="line2d_44">
    <path d="M 506.689205 552.429596 
L 510.349181 551.155069 
L 514.009157 549.880543 
L 517.669134 548.606016 
L 521.32911 547.33149 
L 524.989086 546.056963 
L 528.649063 544.782436 
L 532.309039 543.50791 
L 535.969016 542.233383 
L 539.628992 540.958856 
L 543.288968 539.68433 
L 546.948945 538.409803 
L 550.608921 537.135277 
L 554.268898 535.86075 
L 557.928874 534.586223 
L 561.58885 533.311697 
L 565.248827 532.03717 
L 568.908803 530.762644 
L 572.56878 529.488117 
L 576.228756 528.21359 
L 579.888732 526.939064 
L 583.548709 525.664537 
L 587.208685 524.390011 
L 590.868661 523.115484 
L 594.528638 521.840957 
L 598.188614 520.566431 
L 601.848591 519.291904 
L 605.508567 518.017378 
L 609.168543 516.742851 
L 612.82852 515.468324 
L 616.488496 514.193798 
L 620.148473 512.919271 
L 623.808449 511.644744 
L 627.468425 510.370218 
L 631.128402 509.095691 
L 634.788378 507.821165 
L 638.448354 506.546638 
L 642.108331 505.272111 
L 645.768307 503.997585 
L 649.428284 502.723058 
L 653.08826 501.448532 
L 656.748236 500.174005 
L 660.408213 498.899478 
L 664.068189 497.624952 
L 667.728166 496.350425 
L 671.388142 495.075899 
L 675.048118 493.801372 
L 678.708095 492.526845 
L 682.368071 491.252319 
L 686.028048 489.977792 
L 689.688024 488.703266 
L 693.348 487.428739 
L 697.007977 486.154212 
L 700.667953 484.879686 
L 704.327929 483.605159 
L 707.987906 482.330632 
L 711.647882 481.056106 
L 715.307859 479.781579 
L 718.967835 478.507053 
L 722.627811 477.232526 
L 726.287788 475.957999 
L 729.947764 474.683473 
L 733.607741 473.408946 
L 737.267717 472.13442 
L 740.927693 470.859893 
L 744.58767 469.585366 
L 748.247646 468.31084 
L 751.907622 467.036313 
L 755.567599 465.761787 
L 759.227575 464.48726 
L 762.887552 463.212733 
L 766.547528 461.938207 
L 770.207504 460.66368 
L 773.867481 459.389154 
L 777.527457 458.114627 
L 781.187434 456.8401 
L 784.84741 455.565574 
L 788.507386 454.291047 
L 792.167363 453.01652 
L 795.827339 451.741994 
L 799.487316 450.467467 
L 803.147292 449.192941 
L 806.807268 447.918414 
L 810.467245 446.643887 
L 814.127221 445.369361 
L 817.787197 444.094834 
L 821.447174 442.820308 
L 825.10715 441.545781 
L 828.767127 440.271254 
L 832.427103 438.996728 
L 836.087079 437.722201 
L 839.747056 436.447675 
L 843.407032 435.173148 
L 847.067009 433.898621 
L 850.726985 432.624095 
L 854.386961 431.349568 
L 858.046938 430.075042 
L 861.706914 428.800515 
L 865.36689 427.525988 
L 869.026867 426.251462 
" clip-path="url(#pac30b21a90)" style="fill: none; stroke: #ffa500; stroke-width: 2.25; stroke-linecap: square"/>
   </g>
   <g id="patch_18">
    <path d="M 488.572321 612 
L 488.572321 360 
" style="fill: none; stroke: #000000; stroke-width: 0.8; stroke-linejoin: miter; stroke-linecap: square"/>
   </g>
   <g id="patch_19">
    <path d="M 887.14375 612 
L 887.14375 360 
" style="fill: none; stroke: #000000; stroke-width: 0.8; stroke-linejoin: miter; stroke-linecap: square"/>
   </g>
   <g id="patch_20">
    <path d="M 488.572321 612 
L 887.14375 612 
" style="fill: none; stroke: #000000; stroke-width: 0.8; stroke-linejoin: miter; stroke-linecap: square"/>
   </g>
   <g id="patch_21">
    <path d="M 488.572321 360 
L 887.14375 360 
" style="fill: none; stroke: #000000; stroke-width: 0.8; stroke-linejoin: miter; stroke-linecap: square"/>
   </g>
  </g>
  <g id="text_47">
   <!-- Archaea - Comparison between amino acid and factor frequencies for genetic code: Chlorophycean -->
   <g transform="translate(81.983594 18.597656) scale(0.15 -0.15)">
    <defs>
     <path id="DejaVuSans-68" d="M 3513 2113 
L 3513 0 
L 2938 0 
L 2938 2094 
Q 2938 2591 2744 2837 
Q 2550 3084 2163 3084 
Q 1697 3084 1428 2787 
Q 1159 2491 1159 1978 
L 1159 0 
L 581 0 
L 581 4863 
L 1159 4863 
L 1159 2956 
Q 1366 3272 1645 3428 
Q 1925 3584 2291 3584 
Q 2894 3584 3203 3211 
Q 3513 2838 3513 2113 
z
" transform="scale(0.015625)"/>
     <path id="DejaVuSans-2d" d="M 313 2009 
L 1997 2009 
L 1997 1497 
L 313 1497 
L 313 2009 
z
" transform="scale(0.015625)"/>
     <path id="DejaVuSans-70" d="M 1159 525 
L 1159 -1331 
L 581 -1331 
L 581 3500 
L 1159 3500 
L 1159 2969 
Q 1341 3281 1617 3432 
Q 1894 3584 2278 3584 
Q 2916 3584 3314 3078 
Q 3713 2572 3713 1747 
Q 3713 922 3314 415 
Q 2916 -91 2278 -91 
Q 1894 -91 1617 61 
Q 1341 213 1159 525 
z
M 3116 1747 
Q 3116 2381 2855 2742 
Q 2594 3103 2138 3103 
Q 1681 3103 1420 2742 
Q 1159 2381 1159 1747 
Q 1159 1113 1420 752 
Q 1681 391 2138 391 
Q 2594 391 2855 752 
Q 3116 1113 3116 1747 
z
" transform="scale(0.015625)"/>
     <path id="DejaVuSans-62" d="M 3116 1747 
Q 3116 2381 2855 2742 
Q 2594 3103 2138 3103 
Q 1681 3103 1420 2742 
Q 1159 2381 1159 1747 
Q 1159 1113 1420 752 
Q 1681 391 2138 391 
Q 2594 391 2855 752 
Q 3116 1113 3116 1747 
z
M 1159 2969 
Q 1341 3281 1617 3432 
Q 1894 3584 2278 3584 
Q 2916 3584 3314 3078 
Q 3713 2572 3713 1747 
Q 3713 922 3314 415 
Q 2916 -91 2278 -91 
Q 1894 -91 1617 61 
Q 1341 213 1159 525 
L 1159 0 
L 581 0 
L 581 4863 
L 1159 4863 
L 1159 2969 
z
" transform="scale(0.015625)"/>
     <path id="DejaVuSans-77" d="M 269 3500 
L 844 3500 
L 1563 769 
L 2278 3500 
L 2956 3500 
L 3675 769 
L 4391 3500 
L 4966 3500 
L 4050 0 
L 3372 0 
L 2619 2869 
L 1863 0 
L 1184 0 
L 269 3500 
z
" transform="scale(0.015625)"/>
     <path id="DejaVuSans-67" d="M 2906 1791 
Q 2906 2416 2648 2759 
Q 2391 3103 1925 3103 
Q 1463 3103 1205 2759 
Q 947 2416 947 1791 
Q 947 1169 1205 825 
Q 1463 481 1925 481 
Q 2391 481 2648 825 
Q 2906 1169 2906 1791 
z
M 3481 434 
Q 3481 -459 3084 -895 
Q 2688 -1331 1869 -1331 
Q 1566 -1331 1297 -1286 
Q 1028 -1241 775 -1147 
L 775 -588 
Q 1028 -725 1275 -790 
Q 1522 -856 1778 -856 
Q 2344 -856 2625 -561 
Q 2906 -266 2906 331 
L 2906 616 
Q 2728 306 2450 153 
Q 2172 0 1784 0 
Q 1141 0 747 490 
Q 353 981 353 1791 
Q 353 2603 747 3093 
Q 1141 3584 1784 3584 
Q 2172 3584 2450 3431 
Q 2728 3278 2906 2969 
L 2906 3500 
L 3481 3500 
L 3481 434 
z
" transform="scale(0.015625)"/>
     <path id="DejaVuSans-3a" d="M 750 794 
L 1409 794 
L 1409 0 
L 750 0 
L 750 794 
z
M 750 3309 
L 1409 3309 
L 1409 2516 
L 750 2516 
L 750 3309 
z
" transform="scale(0.015625)"/>
     <path id="DejaVuSans-6c" d="M 603 4863 
L 1178 4863 
L 1178 0 
L 603 0 
L 603 4863 
z
" transform="scale(0.015625)"/>
    </defs>
    <use xlink:href="#DejaVuSans-41"/>
    <use xlink:href="#DejaVuSans-72" x="68.408203"/>
    <use xlink:href="#DejaVuSans-63" x="107.271484"/>
    <use xlink:href="#DejaVuSans-68" x="162.251953"/>
    <use xlink:href="#DejaVuSans-61" x="225.630859"/>
    <use xlink:href="#DejaVuSans-65" x="286.910156"/>
    <use xlink:href="#DejaVuSans-61" x="348.433594"/>
    <use xlink:href="#DejaVuSans-20" x="409.712891"/>
    <use xlink:href="#DejaVuSans-2d" x="441.5"/>
    <use xlink:href="#DejaVuSans-20" x="477.583984"/>
    <use xlink:href="#DejaVuSans-43" x="509.371094"/>
    <use xlink:href="#DejaVuSans-6f" x="579.195312"/>
    <use xlink:href="#DejaVuSans-6d" x="640.376953"/>
    <use xlink:href="#DejaVuSans-70" x="737.789062"/>
    <use xlink:href="#DejaVuSans-61" x="801.265625"/>
    <use xlink:href="#DejaVuSans-72" x="862.544922"/>
    <use xlink:href="#DejaVuSans-69" x="903.658203"/>
    <use xlink:href="#DejaVuSans-73" x="931.441406"/>
    <use xlink:href="#DejaVuSans-6f" x="983.541016"/>
    <use xlink:href="#DejaVuSans-6e" x="1044.722656"/>
    <use xlink:href="#DejaVuSans-20" x="1108.101562"/>
    <use xlink:href="#DejaVuSans-62" x="1139.888672"/>
    <use xlink:href="#DejaVuSans-65" x="1203.365234"/>
    <use xlink:href="#DejaVuSans-74" x="1264.888672"/>
    <use xlink:href="#DejaVuSans-77" x="1304.097656"/>
    <use xlink:href="#DejaVuSans-65" x="1385.884766"/>
    <use xlink:href="#DejaVuSans-65" x="1447.408203"/>
    <use xlink:href="#DejaVuSans-6e" x="1508.931641"/>
    <use xlink:href="#DejaVuSans-20" x="1572.310547"/>
    <use xlink:href="#DejaVuSans-61" x="1604.097656"/>
    <use xlink:href="#DejaVuSans-6d" x="1665.376953"/>
    <use xlink:href="#DejaVuSans-69" x="1762.789062"/>
    <use xlink:href="#DejaVuSans-6e" x="1790.572266"/>
    <use xlink:href="#DejaVuSans-6f" x="1853.951172"/>
    <use xlink:href="#DejaVuSans-20" x="1915.132812"/>
    <use xlink:href="#DejaVuSans-61" x="1946.919922"/>
    <use xlink:href="#DejaVuSans-63" x="2008.199219"/>
    <use xlink:href="#DejaVuSans-69" x="2063.179688"/>
    <use xlink:href="#DejaVuSans-64" x="2090.962891"/>
    <use xlink:href="#DejaVuSans-20" x="2154.439453"/>
    <use xlink:href="#DejaVuSans-61" x="2186.226562"/>
    <use xlink:href="#DejaVuSans-6e" x="2247.505859"/>
    <use xlink:href="#DejaVuSans-64" x="2310.884766"/>
    <use xlink:href="#DejaVuSans-20" x="2374.361328"/>
    <use xlink:href="#DejaVuSans-66" x="2406.148438"/>
    <use xlink:href="#DejaVuSans-61" x="2441.353516"/>
    <use xlink:href="#DejaVuSans-63" x="2502.632812"/>
    <use xlink:href="#DejaVuSans-74" x="2557.613281"/>
    <use xlink:href="#DejaVuSans-6f" x="2596.822266"/>
    <use xlink:href="#DejaVuSans-72" x="2658.003906"/>
    <use xlink:href="#DejaVuSans-20" x="2699.117188"/>
    <use xlink:href="#DejaVuSans-66" x="2730.904297"/>
    <use xlink:href="#DejaVuSans-72" x="2766.109375"/>
    <use xlink:href="#DejaVuSans-65" x="2804.972656"/>
    <use xlink:href="#DejaVuSans-71" x="2866.496094"/>
    <use xlink:href="#DejaVuSans-75" x="2929.972656"/>
    <use xlink:href="#DejaVuSans-65" x="2993.351562"/>
    <use xlink:href="#DejaVuSans-6e" x="3054.875"/>
    <use xlink:href="#DejaVuSans-63" x="3118.253906"/>
    <use xlink:href="#DejaVuSans-69" x="3173.234375"/>
    <use xlink:href="#DejaVuSans-65" x="3201.017578"/>
    <use xlink:href="#DejaVuSans-73" x="3262.541016"/>
    <use xlink:href="#DejaVuSans-20" x="3314.640625"/>
    <use xlink:href="#DejaVuSans-66" x="3346.427734"/>
    <use xlink:href="#DejaVuSans-6f" x="3381.632812"/>
    <use xlink:href="#DejaVuSans-72" x="3442.814453"/>
    <use xlink:href="#DejaVuSans-20" x="3483.927734"/>
    <use xlink:href="#DejaVuSans-67" x="3515.714844"/>
    <use xlink:href="#DejaVuSans-65" x="3579.191406"/>
    <use xlink:href="#DejaVuSans-6e" x="3640.714844"/>
    <use xlink:href="#DejaVuSans-65" x="3704.09375"/>
    <use xlink:href="#DejaVuSans-74" x="3765.617188"/>
    <use xlink:href="#DejaVuSans-69" x="3804.826172"/>
    <use xlink:href="#DejaVuSans-63" x="3832.609375"/>
    <use xlink:href="#DejaVuSans-20" x="3887.589844"/>
    <use xlink:href="#DejaVuSans-63" x="3919.376953"/>
    <use xlink:href="#DejaVuSans-6f" x="3974.357422"/>
    <use xlink:href="#DejaVuSans-64" x="4035.539062"/>
    <use xlink:href="#DejaVuSans-65" x="4099.015625"/>
    <use xlink:href="#DejaVuSans-3a" x="4160.539062"/>
    <use xlink:href="#DejaVuSans-20" x="4194.230469"/>
    <use xlink:href="#DejaVuSans-43" x="4226.017578"/>
    <use xlink:href="#DejaVuSans-68" x="4295.841797"/>
    <use xlink:href="#DejaVuSans-6c" x="4359.220703"/>
    <use xlink:href="#DejaVuSans-6f" x="4387.003906"/>
    <use xlink:href="#DejaVuSans-72" x="4448.185547"/>
    <use xlink:href="#DejaVuSans-6f" x="4487.048828"/>
    <use xlink:href="#DejaVuSans-70" x="4548.230469"/>
    <use xlink:href="#DejaVuSans-68" x="4611.707031"/>
    <use xlink:href="#DejaVuSans-79" x="4675.085938"/>
    <use xlink:href="#DejaVuSans-63" x="4734.265625"/>
    <use xlink:href="#DejaVuSans-65" x="4789.246094"/>
    <use xlink:href="#DejaVuSans-61" x="4850.769531"/>
    <use xlink:href="#DejaVuSans-6e" x="4912.048828"/>
   </g>
   <!-- mitochondrial -->
   <g transform="translate(403.398438 35.394375) scale(0.15 -0.15)">
    <use xlink:href="#DejaVuSans-6d"/>
    <use xlink:href="#DejaVuSans-69" x="97.412109"/>
    <use xlink:href="#DejaVuSans-74" x="125.195312"/>
    <use xlink:href="#DejaVuSans-6f" x="164.404297"/>
    <use xlink:href="#DejaVuSans-63" x="225.585938"/>
    <use xlink:href="#DejaVuSans-68" x="280.566406"/>
    <use xlink:href="#DejaVuSans-6f" x="343.945312"/>
    <use xlink:href="#DejaVuSans-6e" x="405.126953"/>
    <use xlink:href="#DejaVuSans-64" x="468.505859"/>
    <use xlink:href="#DejaVuSans-72" x="531.982422"/>
    <use xlink:href="#DejaVuSans-69" x="573.095703"/>
    <use xlink:href="#DejaVuSans-61" x="600.878906"/>
    <use xlink:href="#DejaVuSans-6c" x="662.158203"/>
   </g>
  </g>
 </g>
 <defs>
  <clipPath id="pff8edc85a0">
   <rect x="50.14375" y="57.6" width="398.571429" height="252"/>
  </clipPath>
  <clipPath id="pc06b725b37">
   <rect x="488.572321" y="57.6" width="398.571429" height="252"/>
  </clipPath>
  <clipPath id="p79e9bd91db">
   <rect x="50.14375" y="360" width="398.571429" height="252"/>
  </clipPath>
  <clipPath id="pac30b21a90">
   <rect x="488.572321" y="360" width="398.571429" height="252"/>
  </clipPath>
 </defs>
</svg>
