<?xml version="1.0" encoding="utf-8" standalone="no"?>
<!DOCTYPE svg PUBLIC "-//W3C//DTD SVG 1.1//EN"
  "http://www.w3.org/Graphics/SVG/1.1/DTD/svg11.dtd">
<svg xmlns:xlink="http://www.w3.org/1999/xlink" width="984.45625pt" height="680.422917pt" viewBox="0 0 984.45625 680.422917" xmlns="http://www.w3.org/2000/svg" version="1.1">
 <metadata>
  <rdf:RDF xmlns:dc="http://purl.org/dc/elements/1.1/" xmlns:cc="http://creativecommons.org/ns#" xmlns:rdf="http://www.w3.org/1999/02/22-rdf-syntax-ns#">
   <cc:Work>
    <dc:type rdf:resource="http://purl.org/dc/dcmitype/StillImage"/>
    <dc:date>2025-01-27T13:11:55.107318</dc:date>
    <dc:format>image/svg+xml</dc:format>
    <dc:creator>
     <cc:Agent>
      <dc:title>Matplotlib v3.6.3, https://matplotlib.org/</dc:title>
     </cc:Agent>
    </dc:creator>
   </cc:Work>
  </rdf:RDF>
 </metadata>
 <defs>
  <style type="text/css">*{stroke-linejoin: round; stroke-linecap: butt}</style>
 </defs>
 <g id="figure_1">
  <g id="patch_1">
   <path d="M 0 680.422917 
L 984.45625 680.422917 
L 984.45625 0 
L 0 0 
z
" style="fill: #ffffff"/>
  </g>
  <g id="axes_1">
   <g id="patch_2">
    <path d="M 43.78125 642.866667 
L 817.231964 642.866667 
L 817.231964 151.965714 
L 43.78125 151.965714 
z
" style="fill: #ffffff"/>
   </g>
   <g id="PathCollection_1">
    <defs>
     <path id="m324d1c26c5" d="M 0 3 
C 0.795609 3 1.55874 2.683901 2.12132 2.12132 
C 2.683901 1.55874 3 0.795609 3 0 
C 3 -0.795609 2.683901 -1.55874 2.12132 -2.12132 
C 1.55874 -2.683901 0.795609 -3 0 -3 
C -0.795609 -3 -1.55874 -2.683901 -2.12132 -2.12132 
C -2.683901 -1.55874 -3 -0.795609 -3 0 
C -3 0.795609 -2.683901 1.55874 -2.12132 2.12132 
C -1.55874 2.683901 -0.795609 3 0 3 
z
" style="stroke: #000000; stroke-opacity: 0.5"/>
    </defs>
    <g clip-path="url(#pb08fc73611)">
     <use xlink:href="#m324d1c26c5" x="230.581865" y="453.493498" style="fill: #4169e1; fill-opacity: 0.5; stroke: #000000; stroke-opacity: 0.5"/>
     <use xlink:href="#m324d1c26c5" x="250.77199" y="346.060813" style="fill: #4169e1; fill-opacity: 0.5; stroke: #000000; stroke-opacity: 0.5"/>
     <use xlink:href="#m324d1c26c5" x="259.792425" y="346.060813" style="fill: #4169e1; fill-opacity: 0.5; stroke: #000000; stroke-opacity: 0.5"/>
     <use xlink:href="#m324d1c26c5" x="259.439917" y="436.965393" style="fill: #4169e1; fill-opacity: 0.5; stroke: #000000; stroke-opacity: 0.5"/>
     <use xlink:href="#m324d1c26c5" x="283.830577" y="403.909182" style="fill: #4169e1; fill-opacity: 0.5; stroke: #000000; stroke-opacity: 0.5"/>
     <use xlink:href="#m324d1c26c5" x="212.091036" y="445.229445" style="fill: #4169e1; fill-opacity: 0.5; stroke: #000000; stroke-opacity: 0.5"/>
     <use xlink:href="#m324d1c26c5" x="293.262232" y="436.965393" style="fill: #4169e1; fill-opacity: 0.5; stroke: #000000; stroke-opacity: 0.5"/>
     <use xlink:href="#m324d1c26c5" x="267.432497" y="379.117024" style="fill: #4169e1; fill-opacity: 0.5; stroke: #000000; stroke-opacity: 0.5"/>
     <use xlink:href="#m324d1c26c5" x="492.719239" y="304.74055" style="fill: #4169e1; fill-opacity: 0.5; stroke: #000000; stroke-opacity: 0.5"/>
     <use xlink:href="#m324d1c26c5" x="136.227431" y="545.834989" style="fill: #4169e1; fill-opacity: 0.5; stroke: #000000; stroke-opacity: 0.5"/>
     <use xlink:href="#m324d1c26c5" x="180.537147" y="469.486677" style="fill: #4169e1; fill-opacity: 0.5; stroke: #000000; stroke-opacity: 0.5"/>
     <use xlink:href="#m324d1c26c5" x="305.497493" y="420.437287" style="fill: #4169e1; fill-opacity: 0.5; stroke: #000000; stroke-opacity: 0.5"/>
     <use xlink:href="#m324d1c26c5" x="223.504145" y="390.734477" style="fill: #4169e1; fill-opacity: 0.5; stroke: #000000; stroke-opacity: 0.5"/>
     <use xlink:href="#m324d1c26c5" x="246.317574" y="486.549709" style="fill: #4169e1; fill-opacity: 0.5; stroke: #000000; stroke-opacity: 0.5"/>
     <use xlink:href="#m324d1c26c5" x="286.228289" y="511.341867" style="fill: #4169e1; fill-opacity: 0.5; stroke: #000000; stroke-opacity: 0.5"/>
     <use xlink:href="#m324d1c26c5" x="248.277304" y="354.324866" style="fill: #4169e1; fill-opacity: 0.5; stroke: #000000; stroke-opacity: 0.5"/>
     <use xlink:href="#m324d1c26c5" x="232.315042" y="420.437287" style="fill: #4169e1; fill-opacity: 0.5; stroke: #000000; stroke-opacity: 0.5"/>
     <use xlink:href="#m324d1c26c5" x="347.715078" y="420.437287" style="fill: #4169e1; fill-opacity: 0.5; stroke: #000000; stroke-opacity: 0.5"/>
     <use xlink:href="#m324d1c26c5" x="229.620974" y="428.70134" style="fill: #4169e1; fill-opacity: 0.5; stroke: #000000; stroke-opacity: 0.5"/>
     <use xlink:href="#m324d1c26c5" x="261.721911" y="536.134025" style="fill: #4169e1; fill-opacity: 0.5; stroke: #000000; stroke-opacity: 0.5"/>
     <use xlink:href="#m324d1c26c5" x="292.43037" y="362.588919" style="fill: #4169e1; fill-opacity: 0.5; stroke: #000000; stroke-opacity: 0.5"/>
     <use xlink:href="#m324d1c26c5" x="263.685315" y="346.060813" style="fill: #4169e1; fill-opacity: 0.5; stroke: #000000; stroke-opacity: 0.5"/>
     <use xlink:href="#m324d1c26c5" x="252.36194" y="379.117024" style="fill: #4169e1; fill-opacity: 0.5; stroke: #000000; stroke-opacity: 0.5"/>
     <use xlink:href="#m324d1c26c5" x="267.366288" y="470.021603" style="fill: #4169e1; fill-opacity: 0.5; stroke: #000000; stroke-opacity: 0.5"/>
     <use xlink:href="#m324d1c26c5" x="443.038648" y="279.948392" style="fill: #4169e1; fill-opacity: 0.5; stroke: #000000; stroke-opacity: 0.5"/>
     <use xlink:href="#m324d1c26c5" x="272.545757" y="387.381077" style="fill: #4169e1; fill-opacity: 0.5; stroke: #000000; stroke-opacity: 0.5"/>
     <use xlink:href="#m324d1c26c5" x="282.822927" y="387.381077" style="fill: #4169e1; fill-opacity: 0.5; stroke: #000000; stroke-opacity: 0.5"/>
     <use xlink:href="#m324d1c26c5" x="134.884712" y="397.598316" style="fill: #4169e1; fill-opacity: 0.5; stroke: #000000; stroke-opacity: 0.5"/>
     <use xlink:href="#m324d1c26c5" x="338.977951" y="436.965393" style="fill: #4169e1; fill-opacity: 0.5; stroke: #000000; stroke-opacity: 0.5"/>
     <use xlink:href="#m324d1c26c5" x="252.301175" y="321.268655" style="fill: #4169e1; fill-opacity: 0.5; stroke: #000000; stroke-opacity: 0.5"/>
     <use xlink:href="#m324d1c26c5" x="782.075114" y="444.023806" style="fill: #4169e1; fill-opacity: 0.5; stroke: #000000; stroke-opacity: 0.5"/>
     <use xlink:href="#m324d1c26c5" x="78.938101" y="486.549709" style="fill: #4169e1; fill-opacity: 0.5; stroke: #000000; stroke-opacity: 0.5"/>
     <use xlink:href="#m324d1c26c5" x="272.454485" y="370.852971" style="fill: #4169e1; fill-opacity: 0.5; stroke: #000000; stroke-opacity: 0.5"/>
     <use xlink:href="#m324d1c26c5" x="286.622537" y="461.757551" style="fill: #4169e1; fill-opacity: 0.5; stroke: #000000; stroke-opacity: 0.5"/>
     <use xlink:href="#m324d1c26c5" x="263.188121" y="387.381077" style="fill: #4169e1; fill-opacity: 0.5; stroke: #000000; stroke-opacity: 0.5"/>
     <use xlink:href="#m324d1c26c5" x="304.423073" y="370.852971" style="fill: #4169e1; fill-opacity: 0.5; stroke: #000000; stroke-opacity: 0.5"/>
     <use xlink:href="#m324d1c26c5" x="240.288128" y="478.285656" style="fill: #4169e1; fill-opacity: 0.5; stroke: #000000; stroke-opacity: 0.5"/>
     <use xlink:href="#m324d1c26c5" x="305.685615" y="412.173235" style="fill: #4169e1; fill-opacity: 0.5; stroke: #000000; stroke-opacity: 0.5"/>
     <use xlink:href="#m324d1c26c5" x="288.281048" y="313.004603" style="fill: #4169e1; fill-opacity: 0.5; stroke: #000000; stroke-opacity: 0.5"/>
     <use xlink:href="#m324d1c26c5" x="133.541993" y="450.553804" style="fill: #4169e1; fill-opacity: 0.5; stroke: #000000; stroke-opacity: 0.5"/>
     <use xlink:href="#m324d1c26c5" x="199.46948" y="470.021603" style="fill: #4169e1; fill-opacity: 0.5; stroke: #000000; stroke-opacity: 0.5"/>
     <use xlink:href="#m324d1c26c5" x="202.58217" y="412.173235" style="fill: #4169e1; fill-opacity: 0.5; stroke: #000000; stroke-opacity: 0.5"/>
     <use xlink:href="#m324d1c26c5" x="276.705801" y="296.476497" style="fill: #4169e1; fill-opacity: 0.5; stroke: #000000; stroke-opacity: 0.5"/>
     <use xlink:href="#m324d1c26c5" x="273.854333" y="436.965393" style="fill: #4169e1; fill-opacity: 0.5; stroke: #000000; stroke-opacity: 0.5"/>
     <use xlink:href="#m324d1c26c5" x="378.588152" y="412.173235" style="fill: #4169e1; fill-opacity: 0.5; stroke: #000000; stroke-opacity: 0.5"/>
     <use xlink:href="#m324d1c26c5" x="286.399428" y="403.909182" style="fill: #4169e1; fill-opacity: 0.5; stroke: #000000; stroke-opacity: 0.5"/>
     <use xlink:href="#m324d1c26c5" x="281.912407" y="370.05604" style="fill: #4169e1; fill-opacity: 0.5; stroke: #000000; stroke-opacity: 0.5"/>
     <use xlink:href="#m324d1c26c5" x="320.668151" y="428.70134" style="fill: #4169e1; fill-opacity: 0.5; stroke: #000000; stroke-opacity: 0.5"/>
     <use xlink:href="#m324d1c26c5" x="246.223334" y="395.645129" style="fill: #4169e1; fill-opacity: 0.5; stroke: #000000; stroke-opacity: 0.5"/>
     <use xlink:href="#m324d1c26c5" x="233.611539" y="329.532708" style="fill: #4169e1; fill-opacity: 0.5; stroke: #000000; stroke-opacity: 0.5"/>
     <use xlink:href="#m324d1c26c5" x="341.91816" y="412.173235" style="fill: #4169e1; fill-opacity: 0.5; stroke: #000000; stroke-opacity: 0.5"/>
     <use xlink:href="#m324d1c26c5" x="286.278077" y="412.173235" style="fill: #4169e1; fill-opacity: 0.5; stroke: #000000; stroke-opacity: 0.5"/>
     <use xlink:href="#m324d1c26c5" x="330.474066" y="478.285656" style="fill: #4169e1; fill-opacity: 0.5; stroke: #000000; stroke-opacity: 0.5"/>
     <use xlink:href="#m324d1c26c5" x="138.241509" y="486.549709" style="fill: #4169e1; fill-opacity: 0.5; stroke: #000000; stroke-opacity: 0.5"/>
     <use xlink:href="#m324d1c26c5" x="132.534954" y="453.493498" style="fill: #4169e1; fill-opacity: 0.5; stroke: #000000; stroke-opacity: 0.5"/>
     <use xlink:href="#m324d1c26c5" x="343.006107" y="379.117024" style="fill: #4169e1; fill-opacity: 0.5; stroke: #000000; stroke-opacity: 0.5"/>
     <use xlink:href="#m324d1c26c5" x="271.527506" y="486.549709" style="fill: #4169e1; fill-opacity: 0.5; stroke: #000000; stroke-opacity: 0.5"/>
     <use xlink:href="#m324d1c26c5" x="293.325516" y="508.288704" style="fill: #4169e1; fill-opacity: 0.5; stroke: #000000; stroke-opacity: 0.5"/>
     <use xlink:href="#m324d1c26c5" x="302.231699" y="428.70134" style="fill: #4169e1; fill-opacity: 0.5; stroke: #000000; stroke-opacity: 0.5"/>
     <use xlink:href="#m324d1c26c5" x="299.53559" y="313.004603" style="fill: #4169e1; fill-opacity: 0.5; stroke: #000000; stroke-opacity: 0.5"/>
     <use xlink:href="#m324d1c26c5" x="233.474387" y="403.909182" style="fill: #4169e1; fill-opacity: 0.5; stroke: #000000; stroke-opacity: 0.5"/>
     <use xlink:href="#m324d1c26c5" x="296.010953" y="490.950763" style="fill: #4169e1; fill-opacity: 0.5; stroke: #000000; stroke-opacity: 0.5"/>
     <use xlink:href="#m324d1c26c5" x="218.580843" y="420.437287" style="fill: #4169e1; fill-opacity: 0.5; stroke: #000000; stroke-opacity: 0.5"/>
     <use xlink:href="#m324d1c26c5" x="279.322878" y="362.588919" style="fill: #4169e1; fill-opacity: 0.5; stroke: #000000; stroke-opacity: 0.5"/>
     <use xlink:href="#m324d1c26c5" x="287.650859" y="337.796761" style="fill: #4169e1; fill-opacity: 0.5; stroke: #000000; stroke-opacity: 0.5"/>
     <use xlink:href="#m324d1c26c5" x="251.701237" y="516.281944" style="fill: #4169e1; fill-opacity: 0.5; stroke: #000000; stroke-opacity: 0.5"/>
     <use xlink:href="#m324d1c26c5" x="290.640078" y="541.252082" style="fill: #4169e1; fill-opacity: 0.5; stroke: #000000; stroke-opacity: 0.5"/>
    </g>
   </g>
   <g id="PathCollection_2">
    <defs>
     <path id="m92b8b5f582" d="M 0 3 
C 0.795609 3 1.55874 2.683901 2.12132 2.12132 
C 2.683901 1.55874 3 0.795609 3 0 
C 3 -0.795609 2.683901 -1.55874 2.12132 -2.12132 
C 1.55874 -2.683901 0.795609 -3 0 -3 
C -0.795609 -3 -1.55874 -2.683901 -2.12132 -2.12132 
C -2.683901 -1.55874 -3 -0.795609 -3 0 
C -3 0.795609 -2.683901 1.55874 -2.12132 2.12132 
C -1.55874 2.683901 -0.795609 3 0 3 
z
" style="stroke: #000000; stroke-opacity: 0.5"/>
    </defs>
    <g clip-path="url(#pb08fc73611)">
     <use xlink:href="#m92b8b5f582" x="230.581865" y="486.806534" style="fill: #ff8c00; fill-opacity: 0.5; stroke: #000000; stroke-opacity: 0.5"/>
     <use xlink:href="#m92b8b5f582" x="250.77199" y="421.270877" style="fill: #ff8c00; fill-opacity: 0.5; stroke: #000000; stroke-opacity: 0.5"/>
     <use xlink:href="#m92b8b5f582" x="259.792425" y="421.270877" style="fill: #ff8c00; fill-opacity: 0.5; stroke: #000000; stroke-opacity: 0.5"/>
     <use xlink:href="#m92b8b5f582" x="259.439917" y="435.834356" style="fill: #ff8c00; fill-opacity: 0.5; stroke: #000000; stroke-opacity: 0.5"/>
     <use xlink:href="#m92b8b5f582" x="283.830577" y="421.270877" style="fill: #ff8c00; fill-opacity: 0.5; stroke: #000000; stroke-opacity: 0.5"/>
     <use xlink:href="#m92b8b5f582" x="212.091036" y="413.989137" style="fill: #ff8c00; fill-opacity: 0.5; stroke: #000000; stroke-opacity: 0.5"/>
     <use xlink:href="#m92b8b5f582" x="293.262232" y="435.834356" style="fill: #ff8c00; fill-opacity: 0.5; stroke: #000000; stroke-opacity: 0.5"/>
     <use xlink:href="#m92b8b5f582" x="267.432497" y="363.01696" style="fill: #ff8c00; fill-opacity: 0.5; stroke: #000000; stroke-opacity: 0.5"/>
     <use xlink:href="#m92b8b5f582" x="492.719239" y="421.270877" style="fill: #ff8c00; fill-opacity: 0.5; stroke: #000000; stroke-opacity: 0.5"/>
     <use xlink:href="#m92b8b5f582" x="136.227431" y="449.289189" style="fill: #ff8c00; fill-opacity: 0.5; stroke: #000000; stroke-opacity: 0.5"/>
     <use xlink:href="#m92b8b5f582" x="180.537147" y="493.616931" style="fill: #ff8c00; fill-opacity: 0.5; stroke: #000000; stroke-opacity: 0.5"/>
     <use xlink:href="#m92b8b5f582" x="305.497493" y="435.834356" style="fill: #ff8c00; fill-opacity: 0.5; stroke: #000000; stroke-opacity: 0.5"/>
     <use xlink:href="#m92b8b5f582" x="223.504145" y="465.60321" style="fill: #ff8c00; fill-opacity: 0.5; stroke: #000000; stroke-opacity: 0.5"/>
     <use xlink:href="#m92b8b5f582" x="246.317574" y="566.905669" style="fill: #ff8c00; fill-opacity: 0.5; stroke: #000000; stroke-opacity: 0.5"/>
     <use xlink:href="#m92b8b5f582" x="286.228289" y="523.215232" style="fill: #ff8c00; fill-opacity: 0.5; stroke: #000000; stroke-opacity: 0.5"/>
     <use xlink:href="#m92b8b5f582" x="248.277304" y="435.834356" style="fill: #ff8c00; fill-opacity: 0.5; stroke: #000000; stroke-opacity: 0.5"/>
     <use xlink:href="#m92b8b5f582" x="232.315042" y="457.679575" style="fill: #ff8c00; fill-opacity: 0.5; stroke: #000000; stroke-opacity: 0.5"/>
     <use xlink:href="#m92b8b5f582" x="347.715078" y="450.397835" style="fill: #ff8c00; fill-opacity: 0.5; stroke: #000000; stroke-opacity: 0.5"/>
     <use xlink:href="#m92b8b5f582" x="229.620974" y="421.270877" style="fill: #ff8c00; fill-opacity: 0.5; stroke: #000000; stroke-opacity: 0.5"/>
     <use xlink:href="#m92b8b5f582" x="261.721911" y="501.370013" style="fill: #ff8c00; fill-opacity: 0.5; stroke: #000000; stroke-opacity: 0.5"/>
     <use xlink:href="#m92b8b5f582" x="292.43037" y="363.01696" style="fill: #ff8c00; fill-opacity: 0.5; stroke: #000000; stroke-opacity: 0.5"/>
     <use xlink:href="#m92b8b5f582" x="263.685315" y="333.890002" style="fill: #ff8c00; fill-opacity: 0.5; stroke: #000000; stroke-opacity: 0.5"/>
     <use xlink:href="#m92b8b5f582" x="252.36194" y="494.088273" style="fill: #ff8c00; fill-opacity: 0.5; stroke: #000000; stroke-opacity: 0.5"/>
     <use xlink:href="#m92b8b5f582" x="267.366288" y="443.116096" style="fill: #ff8c00; fill-opacity: 0.5; stroke: #000000; stroke-opacity: 0.5"/>
     <use xlink:href="#m92b8b5f582" x="443.038648" y="370.2987" style="fill: #ff8c00; fill-opacity: 0.5; stroke: #000000; stroke-opacity: 0.5"/>
     <use xlink:href="#m92b8b5f582" x="272.545757" y="464.961315" style="fill: #ff8c00; fill-opacity: 0.5; stroke: #000000; stroke-opacity: 0.5"/>
     <use xlink:href="#m92b8b5f582" x="282.822927" y="501.370013" style="fill: #ff8c00; fill-opacity: 0.5; stroke: #000000; stroke-opacity: 0.5"/>
     <use xlink:href="#m92b8b5f582" x="134.884712" y="488.992971" style="fill: #ff8c00; fill-opacity: 0.5; stroke: #000000; stroke-opacity: 0.5"/>
     <use xlink:href="#m92b8b5f582" x="338.977951" y="421.270877" style="fill: #ff8c00; fill-opacity: 0.5; stroke: #000000; stroke-opacity: 0.5"/>
     <use xlink:href="#m92b8b5f582" x="252.301175" y="428.552617" style="fill: #ff8c00; fill-opacity: 0.5; stroke: #000000; stroke-opacity: 0.5"/>
     <use xlink:href="#m92b8b5f582" x="782.075114" y="482.161279" style="fill: #ff8c00; fill-opacity: 0.5; stroke: #000000; stroke-opacity: 0.5"/>
     <use xlink:href="#m92b8b5f582" x="78.938101" y="457.679575" style="fill: #ff8c00; fill-opacity: 0.5; stroke: #000000; stroke-opacity: 0.5"/>
     <use xlink:href="#m92b8b5f582" x="272.454485" y="450.397835" style="fill: #ff8c00; fill-opacity: 0.5; stroke: #000000; stroke-opacity: 0.5"/>
     <use xlink:href="#m92b8b5f582" x="286.622537" y="421.270877" style="fill: #ff8c00; fill-opacity: 0.5; stroke: #000000; stroke-opacity: 0.5"/>
     <use xlink:href="#m92b8b5f582" x="263.188121" y="486.806534" style="fill: #ff8c00; fill-opacity: 0.5; stroke: #000000; stroke-opacity: 0.5"/>
     <use xlink:href="#m92b8b5f582" x="304.423073" y="370.2987" style="fill: #ff8c00; fill-opacity: 0.5; stroke: #000000; stroke-opacity: 0.5"/>
     <use xlink:href="#m92b8b5f582" x="240.288128" y="464.961315" style="fill: #ff8c00; fill-opacity: 0.5; stroke: #000000; stroke-opacity: 0.5"/>
     <use xlink:href="#m92b8b5f582" x="305.685615" y="435.834356" style="fill: #ff8c00; fill-opacity: 0.5; stroke: #000000; stroke-opacity: 0.5"/>
     <use xlink:href="#m92b8b5f582" x="288.281048" y="421.270877" style="fill: #ff8c00; fill-opacity: 0.5; stroke: #000000; stroke-opacity: 0.5"/>
     <use xlink:href="#m92b8b5f582" x="133.541993" y="558.108869" style="fill: #ff8c00; fill-opacity: 0.5; stroke: #000000; stroke-opacity: 0.5"/>
     <use xlink:href="#m92b8b5f582" x="199.46948" y="486.806534" style="fill: #ff8c00; fill-opacity: 0.5; stroke: #000000; stroke-opacity: 0.5"/>
     <use xlink:href="#m92b8b5f582" x="202.58217" y="392.143919" style="fill: #ff8c00; fill-opacity: 0.5; stroke: #000000; stroke-opacity: 0.5"/>
     <use xlink:href="#m92b8b5f582" x="276.705801" y="421.270877" style="fill: #ff8c00; fill-opacity: 0.5; stroke: #000000; stroke-opacity: 0.5"/>
     <use xlink:href="#m92b8b5f582" x="273.854333" y="552.34219" style="fill: #ff8c00; fill-opacity: 0.5; stroke: #000000; stroke-opacity: 0.5"/>
     <use xlink:href="#m92b8b5f582" x="378.588152" y="392.143919" style="fill: #ff8c00; fill-opacity: 0.5; stroke: #000000; stroke-opacity: 0.5"/>
     <use xlink:href="#m92b8b5f582" x="286.399428" y="508.651752" style="fill: #ff8c00; fill-opacity: 0.5; stroke: #000000; stroke-opacity: 0.5"/>
     <use xlink:href="#m92b8b5f582" x="281.912407" y="373.150793" style="fill: #ff8c00; fill-opacity: 0.5; stroke: #000000; stroke-opacity: 0.5"/>
     <use xlink:href="#m92b8b5f582" x="320.668151" y="413.989137" style="fill: #ff8c00; fill-opacity: 0.5; stroke: #000000; stroke-opacity: 0.5"/>
     <use xlink:href="#m92b8b5f582" x="246.223334" y="435.834356" style="fill: #ff8c00; fill-opacity: 0.5; stroke: #000000; stroke-opacity: 0.5"/>
     <use xlink:href="#m92b8b5f582" x="233.611539" y="399.425658" style="fill: #ff8c00; fill-opacity: 0.5; stroke: #000000; stroke-opacity: 0.5"/>
     <use xlink:href="#m92b8b5f582" x="341.91816" y="450.397835" style="fill: #ff8c00; fill-opacity: 0.5; stroke: #000000; stroke-opacity: 0.5"/>
     <use xlink:href="#m92b8b5f582" x="286.278077" y="421.270877" style="fill: #ff8c00; fill-opacity: 0.5; stroke: #000000; stroke-opacity: 0.5"/>
     <use xlink:href="#m92b8b5f582" x="330.474066" y="552.34219" style="fill: #ff8c00; fill-opacity: 0.5; stroke: #000000; stroke-opacity: 0.5"/>
     <use xlink:href="#m92b8b5f582" x="138.241509" y="428.552617" style="fill: #ff8c00; fill-opacity: 0.5; stroke: #000000; stroke-opacity: 0.5"/>
     <use xlink:href="#m92b8b5f582" x="132.534954" y="421.270877" style="fill: #ff8c00; fill-opacity: 0.5; stroke: #000000; stroke-opacity: 0.5"/>
     <use xlink:href="#m92b8b5f582" x="343.006107" y="377.580439" style="fill: #ff8c00; fill-opacity: 0.5; stroke: #000000; stroke-opacity: 0.5"/>
     <use xlink:href="#m92b8b5f582" x="271.527506" y="566.905669" style="fill: #ff8c00; fill-opacity: 0.5; stroke: #000000; stroke-opacity: 0.5"/>
     <use xlink:href="#m92b8b5f582" x="293.325516" y="620.552987" style="fill: #ff8c00; fill-opacity: 0.5; stroke: #000000; stroke-opacity: 0.5"/>
     <use xlink:href="#m92b8b5f582" x="302.231699" y="406.707398" style="fill: #ff8c00; fill-opacity: 0.5; stroke: #000000; stroke-opacity: 0.5"/>
     <use xlink:href="#m92b8b5f582" x="299.53559" y="406.707398" style="fill: #ff8c00; fill-opacity: 0.5; stroke: #000000; stroke-opacity: 0.5"/>
     <use xlink:href="#m92b8b5f582" x="233.474387" y="508.651752" style="fill: #ff8c00; fill-opacity: 0.5; stroke: #000000; stroke-opacity: 0.5"/>
     <use xlink:href="#m92b8b5f582" x="296.010953" y="575.770155" style="fill: #ff8c00; fill-opacity: 0.5; stroke: #000000; stroke-opacity: 0.5"/>
     <use xlink:href="#m92b8b5f582" x="218.580843" y="435.834356" style="fill: #ff8c00; fill-opacity: 0.5; stroke: #000000; stroke-opacity: 0.5"/>
     <use xlink:href="#m92b8b5f582" x="279.322878" y="464.961315" style="fill: #ff8c00; fill-opacity: 0.5; stroke: #000000; stroke-opacity: 0.5"/>
     <use xlink:href="#m92b8b5f582" x="287.650859" y="355.735221" style="fill: #ff8c00; fill-opacity: 0.5; stroke: #000000; stroke-opacity: 0.5"/>
     <use xlink:href="#m92b8b5f582" x="251.701237" y="594.370297" style="fill: #ff8c00; fill-opacity: 0.5; stroke: #000000; stroke-opacity: 0.5"/>
     <use xlink:href="#m92b8b5f582" x="290.640078" y="456.134041" style="fill: #ff8c00; fill-opacity: 0.5; stroke: #000000; stroke-opacity: 0.5"/>
    </g>
   </g>
   <g id="PolyCollection_1">
    <path d="M 78.938101 412.407364 
L 78.938101 500.387574 
L 86.040495 497.325007 
L 93.142889 494.230154 
L 100.245283 490.877348 
L 107.347677 487.586566 
L 114.450071 484.227659 
L 121.552465 481.177888 
L 128.654859 478.198933 
L 135.757253 475.201768 
L 142.859647 472.190955 
L 149.962041 469.030269 
L 157.064435 466.200289 
L 164.166829 462.95646 
L 171.269224 460.194621 
L 178.371618 457.201375 
L 185.474012 454.198962 
L 192.576406 451.331863 
L 199.6788 448.550414 
L 206.781194 445.858533 
L 213.883588 443.538851 
L 220.985982 441.22213 
L 228.088376 438.694917 
L 235.19077 437.481487 
L 242.293164 436.112413 
L 249.395558 433.799578 
L 256.497952 432.346568 
L 263.600346 431.153755 
L 270.702741 429.751236 
L 277.805135 428.877283 
L 284.907529 428.440727 
L 292.009923 427.483044 
L 299.112317 426.691086 
L 306.214711 426.168628 
L 313.317105 425.427005 
L 320.419499 425.082051 
L 327.521893 424.533821 
L 334.624287 423.982891 
L 341.726681 423.434961 
L 348.829075 423.022064 
L 355.931469 422.67596 
L 363.033863 422.132429 
L 370.136258 421.660416 
L 377.238652 421.651827 
L 384.341046 421.703664 
L 391.44344 421.302454 
L 398.545834 420.890731 
L 405.648228 420.831655 
L 412.750622 420.793813 
L 419.853016 420.571384 
L 426.95541 420.273963 
L 434.057804 419.970048 
L 441.160198 419.866775 
L 448.262592 419.721019 
L 455.364986 419.54429 
L 462.46738 419.177156 
L 469.569775 419.035633 
L 476.672169 419.056276 
L 483.774563 419.070971 
L 490.876957 418.698069 
L 497.979351 418.591879 
L 505.081745 418.529052 
L 512.184139 418.228106 
L 519.286533 417.963149 
L 526.388927 417.833071 
L 533.491321 417.702664 
L 540.593715 417.562314 
L 547.696109 417.40499 
L 554.798503 416.95448 
L 561.900897 417.047701 
L 569.003292 417.033412 
L 576.105686 416.976552 
L 583.20808 417.034979 
L 590.310474 416.84529 
L 597.412868 416.826802 
L 604.515262 416.779311 
L 611.617656 416.374244 
L 618.72005 416.113397 
L 625.822444 416.047963 
L 632.924838 415.843329 
L 640.027232 415.716373 
L 647.129626 415.589417 
L 654.23202 415.456496 
L 661.334414 415.322127 
L 668.436809 415.281756 
L 675.539203 415.340094 
L 682.641597 415.242141 
L 689.743991 415.029822 
L 696.846385 414.817502 
L 703.948779 414.605183 
L 711.051173 414.414145 
L 718.153567 414.286898 
L 725.255961 414.32111 
L 732.358355 414.424293 
L 739.460749 414.523782 
L 746.563143 414.623271 
L 753.665537 414.72276 
L 760.767931 414.82225 
L 767.870325 414.717229 
L 774.97272 414.51984 
L 782.075114 414.605264 
L 782.075114 174.279394 
L 782.075114 174.279394 
L 774.97272 177.495061 
L 767.870325 180.710728 
L 760.767931 183.926395 
L 753.665537 187.142062 
L 746.563143 190.357729 
L 739.460749 193.573396 
L 732.358355 196.789063 
L 725.255961 200.00473 
L 718.153567 203.220397 
L 711.051173 206.436064 
L 703.948779 209.651731 
L 696.846385 212.867398 
L 689.743991 216.083065 
L 682.641597 219.298732 
L 675.539203 222.514399 
L 668.436809 225.732659 
L 661.334414 228.952795 
L 654.23202 232.172932 
L 647.129626 235.393069 
L 640.027232 238.697164 
L 632.924838 242.096905 
L 625.822444 245.496646 
L 618.72005 248.896386 
L 611.617656 252.296127 
L 604.515262 255.516355 
L 597.412868 258.729951 
L 590.310474 261.944206 
L 583.20808 265.158461 
L 576.105686 268.372715 
L 569.003292 271.587723 
L 561.900897 274.804096 
L 554.798503 278.050345 
L 547.696109 281.443279 
L 540.593715 284.682278 
L 533.491321 287.927796 
L 526.388927 291.422839 
L 519.286533 294.632246 
L 512.184139 297.753043 
L 505.081745 300.869515 
L 497.979351 304.290035 
L 490.876957 307.66441 
L 483.774563 311.052545 
L 476.672169 314.536393 
L 469.569775 317.617747 
L 462.46738 320.909463 
L 455.364986 324.213206 
L 448.262592 327.317626 
L 441.160198 330.410486 
L 434.057804 333.738002 
L 426.95541 337.194571 
L 419.853016 340.270671 
L 412.750622 343.320006 
L 405.648228 346.579055 
L 398.545834 350.133382 
L 391.44344 353.4358 
L 384.341046 356.707096 
L 377.238652 359.997334 
L 370.136258 363.102617 
L 363.033863 366.129835 
L 355.931469 369.407132 
L 348.829075 372.080626 
L 341.726681 374.929122 
L 334.624287 377.965868 
L 327.521893 381.057213 
L 320.419499 384.004925 
L 313.317105 386.894383 
L 306.214711 389.842788 
L 299.112317 392.698194 
L 292.009923 395.40792 
L 284.907529 397.830123 
L 277.805135 400.093857 
L 270.702741 401.947768 
L 263.600346 403.807031 
L 256.497952 405.124146 
L 249.395558 406.3088 
L 242.293164 407.372147 
L 235.19077 407.933235 
L 228.088376 408.557688 
L 220.985982 409.662307 
L 213.883588 409.909554 
L 206.781194 410.06511 
L 199.6788 410.338536 
L 192.576406 410.626663 
L 185.474012 410.812597 
L 178.371618 410.841317 
L 171.269224 411.005298 
L 164.166829 411.171747 
L 157.064435 411.333869 
L 149.962041 411.442014 
L 142.859647 411.66244 
L 135.757253 411.566633 
L 128.654859 411.975183 
L 121.552465 412.164912 
L 114.450071 412.194128 
L 107.347677 412.324955 
L 100.245283 412.402453 
L 93.142889 412.36951 
L 86.040495 412.388437 
L 78.938101 412.407364 
z
" clip-path="url(#pb08fc73611)" style="fill: #1f77b4; fill-opacity: 0.15"/>
   </g>
   <g id="PolyCollection_2">
    <path d="M 78.938101 441.974895 
L 78.938101 507.019098 
L 86.040495 505.04901 
L 93.142889 503.163986 
L 100.245283 501.257444 
L 107.347677 499.299983 
L 114.450071 497.476456 
L 121.552465 495.588398 
L 128.654859 493.891492 
L 135.757253 491.695791 
L 142.859647 489.449586 
L 149.962041 487.746597 
L 157.064435 485.735566 
L 164.166829 484.215125 
L 171.269224 482.645566 
L 178.371618 480.944146 
L 185.474012 479.388466 
L 192.576406 478.037314 
L 199.6788 476.89745 
L 206.781194 475.148514 
L 213.883588 473.869442 
L 220.985982 472.860486 
L 228.088376 471.396278 
L 235.19077 470.247864 
L 242.293164 469.757998 
L 249.395558 468.950102 
L 256.497952 468.260532 
L 263.600346 466.954748 
L 270.702741 466.703458 
L 277.805135 466.075083 
L 284.907529 465.703678 
L 292.009923 465.347449 
L 299.112317 465.439489 
L 306.214711 465.326446 
L 313.317105 465.326591 
L 320.419499 465.209246 
L 327.521893 465.15561 
L 334.624287 465.233902 
L 341.726681 465.08519 
L 348.829075 465.06452 
L 355.931469 465.04385 
L 363.033863 465.012755 
L 370.136258 464.574498 
L 377.238652 464.509608 
L 384.341046 464.171877 
L 391.44344 463.818859 
L 398.545834 463.882244 
L 405.648228 463.952007 
L 412.750622 464.035722 
L 419.853016 464.114403 
L 426.95541 464.299333 
L 434.057804 464.692437 
L 441.160198 464.75985 
L 448.262592 464.741376 
L 455.364986 464.852125 
L 462.46738 464.748618 
L 469.569775 464.69321 
L 476.672169 464.7839 
L 483.774563 464.867774 
L 490.876957 464.943836 
L 497.979351 465.019898 
L 505.081745 465.190041 
L 512.184139 465.316091 
L 519.286533 465.258009 
L 526.388927 465.342302 
L 533.491321 465.424897 
L 540.593715 465.519319 
L 547.696109 465.708226 
L 554.798503 465.661147 
L 561.900897 465.739542 
L 569.003292 465.767826 
L 576.105686 465.90089 
L 583.20808 465.987009 
L 590.310474 466.124174 
L 597.412868 466.275528 
L 604.515262 466.526595 
L 611.617656 466.771699 
L 618.72005 466.819784 
L 625.822444 466.80514 
L 632.924838 466.943541 
L 640.027232 467.081942 
L 647.129626 467.211804 
L 654.23202 467.463346 
L 661.334414 467.687939 
L 668.436809 467.825746 
L 675.539203 468.247054 
L 682.641597 468.632711 
L 689.743991 468.708802 
L 696.846385 468.743832 
L 703.948779 468.778862 
L 711.051173 468.813892 
L 718.153567 468.848922 
L 725.255961 469.041878 
L 732.358355 469.247125 
L 739.460749 469.400375 
L 746.563143 469.53011 
L 753.665537 469.728121 
L 760.767931 469.888745 
L 767.870325 469.921771 
L 774.97272 470.001689 
L 782.075114 470.081607 
L 782.075114 298.047204 
L 782.075114 298.047204 
L 774.97272 300.183374 
L 767.870325 302.319544 
L 760.767931 304.455715 
L 753.665537 306.591885 
L 746.563143 308.704213 
L 739.460749 310.744356 
L 732.358355 312.784499 
L 725.255961 314.824642 
L 718.153567 316.864785 
L 711.051173 318.904928 
L 703.948779 320.945071 
L 696.846385 322.985214 
L 689.743991 325.025357 
L 682.641597 327.0655 
L 675.539203 329.105643 
L 668.436809 331.145786 
L 661.334414 333.185929 
L 654.23202 335.226072 
L 647.129626 337.266215 
L 640.027232 339.306358 
L 632.924838 341.346501 
L 625.822444 343.386644 
L 618.72005 345.426988 
L 611.617656 347.419062 
L 604.515262 349.352628 
L 597.412868 351.286195 
L 590.310474 353.219761 
L 583.20808 355.153328 
L 576.105686 357.086894 
L 569.003292 359.02046 
L 561.900897 360.954027 
L 554.798503 362.887593 
L 547.696109 364.82116 
L 540.593715 366.754726 
L 533.491321 368.688293 
L 526.388927 370.788285 
L 519.286533 373.141729 
L 512.184139 375.292852 
L 505.081745 377.099721 
L 497.979351 379.182849 
L 490.876957 381.257791 
L 483.774563 383.202424 
L 476.672169 385.149301 
L 469.569775 387.275793 
L 462.46738 389.498029 
L 455.364986 391.474782 
L 448.262592 393.604028 
L 441.160198 395.565253 
L 434.057804 397.535967 
L 426.95541 399.50668 
L 419.853016 401.479687 
L 412.750622 403.771199 
L 405.648228 405.681699 
L 398.545834 407.478516 
L 391.44344 409.535242 
L 384.341046 411.569136 
L 377.238652 413.445535 
L 370.136258 415.319615 
L 363.033863 417.205059 
L 355.931469 419.151212 
L 348.829075 420.933524 
L 341.726681 422.278692 
L 334.624287 424.244729 
L 327.521893 426.320527 
L 320.419499 427.9183 
L 313.317105 429.762808 
L 306.214711 431.33304 
L 299.112317 432.972036 
L 292.009923 434.205622 
L 284.907529 435.626986 
L 277.805135 436.671025 
L 270.702741 437.712735 
L 263.600346 438.529056 
L 256.497952 439.406332 
L 249.395558 440.167506 
L 242.293164 440.608865 
L 235.19077 441.210688 
L 228.088376 441.338811 
L 220.985982 441.470022 
L 213.883588 441.95254 
L 206.781194 442.101262 
L 199.6788 442.52124 
L 192.576406 442.542536 
L 185.474012 442.411061 
L 178.371618 442.258425 
L 171.269224 442.493626 
L 164.166829 442.64906 
L 157.064435 442.896803 
L 149.962041 442.789837 
L 142.859647 442.681555 
L 135.757253 442.596816 
L 128.654859 442.440906 
L 121.552465 442.46925 
L 114.450071 442.236081 
L 107.347677 442.110029 
L 100.245283 442.30179 
L 93.142889 442.315899 
L 86.040495 442.145397 
L 78.938101 441.974895 
z
" clip-path="url(#pb08fc73611)" style="fill: #ff7f0e; fill-opacity: 0.15"/>
   </g>
   <g id="matplotlib.axis_1">
    <g id="xtick_1">
     <g id="line2d_1">
      <defs>
       <path id="m4f537466ee" d="M 0 0 
L 0 3.5 
" style="stroke: #000000; stroke-width: 0.8"/>
      </defs>
      <g>
       <use xlink:href="#m4f537466ee" x="149.654618" y="642.866667" style="stroke: #000000; stroke-width: 0.8"/>
      </g>
     </g>
     <g id="text_1">
      <!-- 200 -->
      <g transform="translate(140.110868 657.465104) scale(0.1 -0.1)">
       <defs>
        <path id="DejaVuSans-32" d="M 1228 531 
L 3431 531 
L 3431 0 
L 469 0 
L 469 531 
Q 828 903 1448 1529 
Q 2069 2156 2228 2338 
Q 2531 2678 2651 2914 
Q 2772 3150 2772 3378 
Q 2772 3750 2511 3984 
Q 2250 4219 1831 4219 
Q 1534 4219 1204 4116 
Q 875 4013 500 3803 
L 500 4441 
Q 881 4594 1212 4672 
Q 1544 4750 1819 4750 
Q 2544 4750 2975 4387 
Q 3406 4025 3406 3419 
Q 3406 3131 3298 2873 
Q 3191 2616 2906 2266 
Q 2828 2175 2409 1742 
Q 1991 1309 1228 531 
z
" transform="scale(0.015625)"/>
        <path id="DejaVuSans-30" d="M 2034 4250 
Q 1547 4250 1301 3770 
Q 1056 3291 1056 2328 
Q 1056 1369 1301 889 
Q 1547 409 2034 409 
Q 2525 409 2770 889 
Q 3016 1369 3016 2328 
Q 3016 3291 2770 3770 
Q 2525 4250 2034 4250 
z
M 2034 4750 
Q 2819 4750 3233 4129 
Q 3647 3509 3647 2328 
Q 3647 1150 3233 529 
Q 2819 -91 2034 -91 
Q 1250 -91 836 529 
Q 422 1150 422 2328 
Q 422 3509 836 4129 
Q 1250 4750 2034 4750 
z
" transform="scale(0.015625)"/>
       </defs>
       <use xlink:href="#DejaVuSans-32"/>
       <use xlink:href="#DejaVuSans-30" x="63.623047"/>
       <use xlink:href="#DejaVuSans-30" x="127.246094"/>
      </g>
     </g>
    </g>
    <g id="xtick_2">
     <g id="line2d_2">
      <g>
       <use xlink:href="#m4f537466ee" x="283.926485" y="642.866667" style="stroke: #000000; stroke-width: 0.8"/>
      </g>
     </g>
     <g id="text_2">
      <!-- 300 -->
      <g transform="translate(274.382735 657.465104) scale(0.1 -0.1)">
       <defs>
        <path id="DejaVuSans-33" d="M 2597 2516 
Q 3050 2419 3304 2112 
Q 3559 1806 3559 1356 
Q 3559 666 3084 287 
Q 2609 -91 1734 -91 
Q 1441 -91 1130 -33 
Q 819 25 488 141 
L 488 750 
Q 750 597 1062 519 
Q 1375 441 1716 441 
Q 2309 441 2620 675 
Q 2931 909 2931 1356 
Q 2931 1769 2642 2001 
Q 2353 2234 1838 2234 
L 1294 2234 
L 1294 2753 
L 1863 2753 
Q 2328 2753 2575 2939 
Q 2822 3125 2822 3475 
Q 2822 3834 2567 4026 
Q 2313 4219 1838 4219 
Q 1578 4219 1281 4162 
Q 984 4106 628 3988 
L 628 4550 
Q 988 4650 1302 4700 
Q 1616 4750 1894 4750 
Q 2613 4750 3031 4423 
Q 3450 4097 3450 3541 
Q 3450 3153 3228 2886 
Q 3006 2619 2597 2516 
z
" transform="scale(0.015625)"/>
       </defs>
       <use xlink:href="#DejaVuSans-33"/>
       <use xlink:href="#DejaVuSans-30" x="63.623047"/>
       <use xlink:href="#DejaVuSans-30" x="127.246094"/>
      </g>
     </g>
    </g>
    <g id="xtick_3">
     <g id="line2d_3">
      <g>
       <use xlink:href="#m4f537466ee" x="418.198353" y="642.866667" style="stroke: #000000; stroke-width: 0.8"/>
      </g>
     </g>
     <g id="text_3">
      <!-- 400 -->
      <g transform="translate(408.654603 657.465104) scale(0.1 -0.1)">
       <defs>
        <path id="DejaVuSans-34" d="M 2419 4116 
L 825 1625 
L 2419 1625 
L 2419 4116 
z
M 2253 4666 
L 3047 4666 
L 3047 1625 
L 3713 1625 
L 3713 1100 
L 3047 1100 
L 3047 0 
L 2419 0 
L 2419 1100 
L 313 1100 
L 313 1709 
L 2253 4666 
z
" transform="scale(0.015625)"/>
       </defs>
       <use xlink:href="#DejaVuSans-34"/>
       <use xlink:href="#DejaVuSans-30" x="63.623047"/>
       <use xlink:href="#DejaVuSans-30" x="127.246094"/>
      </g>
     </g>
    </g>
    <g id="xtick_4">
     <g id="line2d_4">
      <g>
       <use xlink:href="#m4f537466ee" x="552.47022" y="642.866667" style="stroke: #000000; stroke-width: 0.8"/>
      </g>
     </g>
     <g id="text_4">
      <!-- 500 -->
      <g transform="translate(542.92647 657.465104) scale(0.1 -0.1)">
       <defs>
        <path id="DejaVuSans-35" d="M 691 4666 
L 3169 4666 
L 3169 4134 
L 1269 4134 
L 1269 2991 
Q 1406 3038 1543 3061 
Q 1681 3084 1819 3084 
Q 2600 3084 3056 2656 
Q 3513 2228 3513 1497 
Q 3513 744 3044 326 
Q 2575 -91 1722 -91 
Q 1428 -91 1123 -41 
Q 819 9 494 109 
L 494 744 
Q 775 591 1075 516 
Q 1375 441 1709 441 
Q 2250 441 2565 725 
Q 2881 1009 2881 1497 
Q 2881 1984 2565 2268 
Q 2250 2553 1709 2553 
Q 1456 2553 1204 2497 
Q 953 2441 691 2322 
L 691 4666 
z
" transform="scale(0.015625)"/>
       </defs>
       <use xlink:href="#DejaVuSans-35"/>
       <use xlink:href="#DejaVuSans-30" x="63.623047"/>
       <use xlink:href="#DejaVuSans-30" x="127.246094"/>
      </g>
     </g>
    </g>
    <g id="xtick_5">
     <g id="line2d_5">
      <g>
       <use xlink:href="#m4f537466ee" x="686.742088" y="642.866667" style="stroke: #000000; stroke-width: 0.8"/>
      </g>
     </g>
     <g id="text_5">
      <!-- 600 -->
      <g transform="translate(677.198338 657.465104) scale(0.1 -0.1)">
       <defs>
        <path id="DejaVuSans-36" d="M 2113 2584 
Q 1688 2584 1439 2293 
Q 1191 2003 1191 1497 
Q 1191 994 1439 701 
Q 1688 409 2113 409 
Q 2538 409 2786 701 
Q 3034 994 3034 1497 
Q 3034 2003 2786 2293 
Q 2538 2584 2113 2584 
z
M 3366 4563 
L 3366 3988 
Q 3128 4100 2886 4159 
Q 2644 4219 2406 4219 
Q 1781 4219 1451 3797 
Q 1122 3375 1075 2522 
Q 1259 2794 1537 2939 
Q 1816 3084 2150 3084 
Q 2853 3084 3261 2657 
Q 3669 2231 3669 1497 
Q 3669 778 3244 343 
Q 2819 -91 2113 -91 
Q 1303 -91 875 529 
Q 447 1150 447 2328 
Q 447 3434 972 4092 
Q 1497 4750 2381 4750 
Q 2619 4750 2861 4703 
Q 3103 4656 3366 4563 
z
" transform="scale(0.015625)"/>
       </defs>
       <use xlink:href="#DejaVuSans-36"/>
       <use xlink:href="#DejaVuSans-30" x="63.623047"/>
       <use xlink:href="#DejaVuSans-30" x="127.246094"/>
      </g>
     </g>
    </g>
    <g id="text_6">
     <!-- Protein length -->
     <g transform="translate(395.455826 671.143229) scale(0.1 -0.1)">
      <defs>
       <path id="DejaVuSans-50" d="M 1259 4147 
L 1259 2394 
L 2053 2394 
Q 2494 2394 2734 2622 
Q 2975 2850 2975 3272 
Q 2975 3691 2734 3919 
Q 2494 4147 2053 4147 
L 1259 4147 
z
M 628 4666 
L 2053 4666 
Q 2838 4666 3239 4311 
Q 3641 3956 3641 3272 
Q 3641 2581 3239 2228 
Q 2838 1875 2053 1875 
L 1259 1875 
L 1259 0 
L 628 0 
L 628 4666 
z
" transform="scale(0.015625)"/>
       <path id="DejaVuSans-72" d="M 2631 2963 
Q 2534 3019 2420 3045 
Q 2306 3072 2169 3072 
Q 1681 3072 1420 2755 
Q 1159 2438 1159 1844 
L 1159 0 
L 581 0 
L 581 3500 
L 1159 3500 
L 1159 2956 
Q 1341 3275 1631 3429 
Q 1922 3584 2338 3584 
Q 2397 3584 2469 3576 
Q 2541 3569 2628 3553 
L 2631 2963 
z
" transform="scale(0.015625)"/>
       <path id="DejaVuSans-6f" d="M 1959 3097 
Q 1497 3097 1228 2736 
Q 959 2375 959 1747 
Q 959 1119 1226 758 
Q 1494 397 1959 397 
Q 2419 397 2687 759 
Q 2956 1122 2956 1747 
Q 2956 2369 2687 2733 
Q 2419 3097 1959 3097 
z
M 1959 3584 
Q 2709 3584 3137 3096 
Q 3566 2609 3566 1747 
Q 3566 888 3137 398 
Q 2709 -91 1959 -91 
Q 1206 -91 779 398 
Q 353 888 353 1747 
Q 353 2609 779 3096 
Q 1206 3584 1959 3584 
z
" transform="scale(0.015625)"/>
       <path id="DejaVuSans-74" d="M 1172 4494 
L 1172 3500 
L 2356 3500 
L 2356 3053 
L 1172 3053 
L 1172 1153 
Q 1172 725 1289 603 
Q 1406 481 1766 481 
L 2356 481 
L 2356 0 
L 1766 0 
Q 1100 0 847 248 
Q 594 497 594 1153 
L 594 3053 
L 172 3053 
L 172 3500 
L 594 3500 
L 594 4494 
L 1172 4494 
z
" transform="scale(0.015625)"/>
       <path id="DejaVuSans-65" d="M 3597 1894 
L 3597 1613 
L 953 1613 
Q 991 1019 1311 708 
Q 1631 397 2203 397 
Q 2534 397 2845 478 
Q 3156 559 3463 722 
L 3463 178 
Q 3153 47 2828 -22 
Q 2503 -91 2169 -91 
Q 1331 -91 842 396 
Q 353 884 353 1716 
Q 353 2575 817 3079 
Q 1281 3584 2069 3584 
Q 2775 3584 3186 3129 
Q 3597 2675 3597 1894 
z
M 3022 2063 
Q 3016 2534 2758 2815 
Q 2500 3097 2075 3097 
Q 1594 3097 1305 2825 
Q 1016 2553 972 2059 
L 3022 2063 
z
" transform="scale(0.015625)"/>
       <path id="DejaVuSans-69" d="M 603 3500 
L 1178 3500 
L 1178 0 
L 603 0 
L 603 3500 
z
M 603 4863 
L 1178 4863 
L 1178 4134 
L 603 4134 
L 603 4863 
z
" transform="scale(0.015625)"/>
       <path id="DejaVuSans-6e" d="M 3513 2113 
L 3513 0 
L 2938 0 
L 2938 2094 
Q 2938 2591 2744 2837 
Q 2550 3084 2163 3084 
Q 1697 3084 1428 2787 
Q 1159 2491 1159 1978 
L 1159 0 
L 581 0 
L 581 3500 
L 1159 3500 
L 1159 2956 
Q 1366 3272 1645 3428 
Q 1925 3584 2291 3584 
Q 2894 3584 3203 3211 
Q 3513 2838 3513 2113 
z
" transform="scale(0.015625)"/>
       <path id="DejaVuSans-20" transform="scale(0.015625)"/>
       <path id="DejaVuSans-6c" d="M 603 4863 
L 1178 4863 
L 1178 0 
L 603 0 
L 603 4863 
z
" transform="scale(0.015625)"/>
       <path id="DejaVuSans-67" d="M 2906 1791 
Q 2906 2416 2648 2759 
Q 2391 3103 1925 3103 
Q 1463 3103 1205 2759 
Q 947 2416 947 1791 
Q 947 1169 1205 825 
Q 1463 481 1925 481 
Q 2391 481 2648 825 
Q 2906 1169 2906 1791 
z
M 3481 434 
Q 3481 -459 3084 -895 
Q 2688 -1331 1869 -1331 
Q 1566 -1331 1297 -1286 
Q 1028 -1241 775 -1147 
L 775 -588 
Q 1028 -725 1275 -790 
Q 1522 -856 1778 -856 
Q 2344 -856 2625 -561 
Q 2906 -266 2906 331 
L 2906 616 
Q 2728 306 2450 153 
Q 2172 0 1784 0 
Q 1141 0 747 490 
Q 353 981 353 1791 
Q 353 2603 747 3093 
Q 1141 3584 1784 3584 
Q 2172 3584 2450 3431 
Q 2728 3278 2906 2969 
L 2906 3500 
L 3481 3500 
L 3481 434 
z
" transform="scale(0.015625)"/>
       <path id="DejaVuSans-68" d="M 3513 2113 
L 3513 0 
L 2938 0 
L 2938 2094 
Q 2938 2591 2744 2837 
Q 2550 3084 2163 3084 
Q 1697 3084 1428 2787 
Q 1159 2491 1159 1978 
L 1159 0 
L 581 0 
L 581 4863 
L 1159 4863 
L 1159 2956 
Q 1366 3272 1645 3428 
Q 1925 3584 2291 3584 
Q 2894 3584 3203 3211 
Q 3513 2838 3513 2113 
z
" transform="scale(0.015625)"/>
      </defs>
      <use xlink:href="#DejaVuSans-50"/>
      <use xlink:href="#DejaVuSans-72" x="58.552734"/>
      <use xlink:href="#DejaVuSans-6f" x="97.416016"/>
      <use xlink:href="#DejaVuSans-74" x="158.597656"/>
      <use xlink:href="#DejaVuSans-65" x="197.806641"/>
      <use xlink:href="#DejaVuSans-69" x="259.330078"/>
      <use xlink:href="#DejaVuSans-6e" x="287.113281"/>
      <use xlink:href="#DejaVuSans-20" x="350.492188"/>
      <use xlink:href="#DejaVuSans-6c" x="382.279297"/>
      <use xlink:href="#DejaVuSans-65" x="410.0625"/>
      <use xlink:href="#DejaVuSans-6e" x="471.585938"/>
      <use xlink:href="#DejaVuSans-67" x="534.964844"/>
      <use xlink:href="#DejaVuSans-74" x="598.441406"/>
      <use xlink:href="#DejaVuSans-68" x="637.650391"/>
     </g>
    </g>
   </g>
   <g id="matplotlib.axis_2">
    <g id="ytick_1">
     <g id="line2d_6">
      <defs>
       <path id="mb2b0129f1d" d="M 0 0 
L -3.5 0 
" style="stroke: #000000; stroke-width: 0.8"/>
      </defs>
      <g>
       <use xlink:href="#mb2b0129f1d" x="43.78125" y="608.812091" style="stroke: #000000; stroke-width: 0.8"/>
      </g>
     </g>
     <g id="text_7">
      <!-- 0.1 -->
      <g transform="translate(20.878125 612.61131) scale(0.1 -0.1)">
       <defs>
        <path id="DejaVuSans-2e" d="M 684 794 
L 1344 794 
L 1344 0 
L 684 0 
L 684 794 
z
" transform="scale(0.015625)"/>
        <path id="DejaVuSans-31" d="M 794 531 
L 1825 531 
L 1825 4091 
L 703 3866 
L 703 4441 
L 1819 4666 
L 2450 4666 
L 2450 531 
L 3481 531 
L 3481 0 
L 794 0 
L 794 531 
z
" transform="scale(0.015625)"/>
       </defs>
       <use xlink:href="#DejaVuSans-30"/>
       <use xlink:href="#DejaVuSans-2e" x="63.623047"/>
       <use xlink:href="#DejaVuSans-31" x="95.410156"/>
      </g>
     </g>
    </g>
    <g id="ytick_2">
     <g id="line2d_7">
      <g>
       <use xlink:href="#mb2b0129f1d" x="43.78125" y="545.133289" style="stroke: #000000; stroke-width: 0.8"/>
      </g>
     </g>
     <g id="text_8">
      <!-- 0.2 -->
      <g transform="translate(20.878125 548.932507) scale(0.1 -0.1)">
       <use xlink:href="#DejaVuSans-30"/>
       <use xlink:href="#DejaVuSans-2e" x="63.623047"/>
       <use xlink:href="#DejaVuSans-32" x="95.410156"/>
      </g>
     </g>
    </g>
    <g id="ytick_3">
     <g id="line2d_8">
      <g>
       <use xlink:href="#mb2b0129f1d" x="43.78125" y="481.454486" style="stroke: #000000; stroke-width: 0.8"/>
      </g>
     </g>
     <g id="text_9">
      <!-- 0.3 -->
      <g transform="translate(20.878125 485.253705) scale(0.1 -0.1)">
       <use xlink:href="#DejaVuSans-30"/>
       <use xlink:href="#DejaVuSans-2e" x="63.623047"/>
       <use xlink:href="#DejaVuSans-33" x="95.410156"/>
      </g>
     </g>
    </g>
    <g id="ytick_4">
     <g id="line2d_9">
      <g>
       <use xlink:href="#mb2b0129f1d" x="43.78125" y="417.775684" style="stroke: #000000; stroke-width: 0.8"/>
      </g>
     </g>
     <g id="text_10">
      <!-- 0.4 -->
      <g transform="translate(20.878125 421.574902) scale(0.1 -0.1)">
       <use xlink:href="#DejaVuSans-30"/>
       <use xlink:href="#DejaVuSans-2e" x="63.623047"/>
       <use xlink:href="#DejaVuSans-34" x="95.410156"/>
      </g>
     </g>
    </g>
    <g id="ytick_5">
     <g id="line2d_10">
      <g>
       <use xlink:href="#mb2b0129f1d" x="43.78125" y="354.096881" style="stroke: #000000; stroke-width: 0.8"/>
      </g>
     </g>
     <g id="text_11">
      <!-- 0.5 -->
      <g transform="translate(20.878125 357.8961) scale(0.1 -0.1)">
       <use xlink:href="#DejaVuSans-30"/>
       <use xlink:href="#DejaVuSans-2e" x="63.623047"/>
       <use xlink:href="#DejaVuSans-35" x="95.410156"/>
      </g>
     </g>
    </g>
    <g id="ytick_6">
     <g id="line2d_11">
      <g>
       <use xlink:href="#mb2b0129f1d" x="43.78125" y="290.418079" style="stroke: #000000; stroke-width: 0.8"/>
      </g>
     </g>
     <g id="text_12">
      <!-- 0.6 -->
      <g transform="translate(20.878125 294.217297) scale(0.1 -0.1)">
       <use xlink:href="#DejaVuSans-30"/>
       <use xlink:href="#DejaVuSans-2e" x="63.623047"/>
       <use xlink:href="#DejaVuSans-36" x="95.410156"/>
      </g>
     </g>
    </g>
    <g id="ytick_7">
     <g id="line2d_12">
      <g>
       <use xlink:href="#mb2b0129f1d" x="43.78125" y="226.739276" style="stroke: #000000; stroke-width: 0.8"/>
      </g>
     </g>
     <g id="text_13">
      <!-- 0.7 -->
      <g transform="translate(20.878125 230.538495) scale(0.1 -0.1)">
       <defs>
        <path id="DejaVuSans-37" d="M 525 4666 
L 3525 4666 
L 3525 4397 
L 1831 0 
L 1172 0 
L 2766 4134 
L 525 4134 
L 525 4666 
z
" transform="scale(0.015625)"/>
       </defs>
       <use xlink:href="#DejaVuSans-30"/>
       <use xlink:href="#DejaVuSans-2e" x="63.623047"/>
       <use xlink:href="#DejaVuSans-37" x="95.410156"/>
      </g>
     </g>
    </g>
    <g id="ytick_8">
     <g id="line2d_13">
      <g>
       <use xlink:href="#mb2b0129f1d" x="43.78125" y="163.060474" style="stroke: #000000; stroke-width: 0.8"/>
      </g>
     </g>
     <g id="text_14">
      <!-- 0.8 -->
      <g transform="translate(20.878125 166.859693) scale(0.1 -0.1)">
       <defs>
        <path id="DejaVuSans-38" d="M 2034 2216 
Q 1584 2216 1326 1975 
Q 1069 1734 1069 1313 
Q 1069 891 1326 650 
Q 1584 409 2034 409 
Q 2484 409 2743 651 
Q 3003 894 3003 1313 
Q 3003 1734 2745 1975 
Q 2488 2216 2034 2216 
z
M 1403 2484 
Q 997 2584 770 2862 
Q 544 3141 544 3541 
Q 544 4100 942 4425 
Q 1341 4750 2034 4750 
Q 2731 4750 3128 4425 
Q 3525 4100 3525 3541 
Q 3525 3141 3298 2862 
Q 3072 2584 2669 2484 
Q 3125 2378 3379 2068 
Q 3634 1759 3634 1313 
Q 3634 634 3220 271 
Q 2806 -91 2034 -91 
Q 1263 -91 848 271 
Q 434 634 434 1313 
Q 434 1759 690 2068 
Q 947 2378 1403 2484 
z
M 1172 3481 
Q 1172 3119 1398 2916 
Q 1625 2713 2034 2713 
Q 2441 2713 2670 2916 
Q 2900 3119 2900 3481 
Q 2900 3844 2670 4047 
Q 2441 4250 2034 4250 
Q 1625 4250 1398 4047 
Q 1172 3844 1172 3481 
z
" transform="scale(0.015625)"/>
       </defs>
       <use xlink:href="#DejaVuSans-30"/>
       <use xlink:href="#DejaVuSans-2e" x="63.623047"/>
       <use xlink:href="#DejaVuSans-38" x="95.410156"/>
      </g>
     </g>
    </g>
    <g id="text_15">
     <!-- Correlation coefficient -->
     <g transform="translate(14.798438 452.712284) rotate(-90) scale(0.1 -0.1)">
      <defs>
       <path id="DejaVuSans-43" d="M 4122 4306 
L 4122 3641 
Q 3803 3938 3442 4084 
Q 3081 4231 2675 4231 
Q 1875 4231 1450 3742 
Q 1025 3253 1025 2328 
Q 1025 1406 1450 917 
Q 1875 428 2675 428 
Q 3081 428 3442 575 
Q 3803 722 4122 1019 
L 4122 359 
Q 3791 134 3420 21 
Q 3050 -91 2638 -91 
Q 1578 -91 968 557 
Q 359 1206 359 2328 
Q 359 3453 968 4101 
Q 1578 4750 2638 4750 
Q 3056 4750 3426 4639 
Q 3797 4528 4122 4306 
z
" transform="scale(0.015625)"/>
       <path id="DejaVuSans-61" d="M 2194 1759 
Q 1497 1759 1228 1600 
Q 959 1441 959 1056 
Q 959 750 1161 570 
Q 1363 391 1709 391 
Q 2188 391 2477 730 
Q 2766 1069 2766 1631 
L 2766 1759 
L 2194 1759 
z
M 3341 1997 
L 3341 0 
L 2766 0 
L 2766 531 
Q 2569 213 2275 61 
Q 1981 -91 1556 -91 
Q 1019 -91 701 211 
Q 384 513 384 1019 
Q 384 1609 779 1909 
Q 1175 2209 1959 2209 
L 2766 2209 
L 2766 2266 
Q 2766 2663 2505 2880 
Q 2244 3097 1772 3097 
Q 1472 3097 1187 3025 
Q 903 2953 641 2809 
L 641 3341 
Q 956 3463 1253 3523 
Q 1550 3584 1831 3584 
Q 2591 3584 2966 3190 
Q 3341 2797 3341 1997 
z
" transform="scale(0.015625)"/>
       <path id="DejaVuSans-63" d="M 3122 3366 
L 3122 2828 
Q 2878 2963 2633 3030 
Q 2388 3097 2138 3097 
Q 1578 3097 1268 2742 
Q 959 2388 959 1747 
Q 959 1106 1268 751 
Q 1578 397 2138 397 
Q 2388 397 2633 464 
Q 2878 531 3122 666 
L 3122 134 
Q 2881 22 2623 -34 
Q 2366 -91 2075 -91 
Q 1284 -91 818 406 
Q 353 903 353 1747 
Q 353 2603 823 3093 
Q 1294 3584 2113 3584 
Q 2378 3584 2631 3529 
Q 2884 3475 3122 3366 
z
" transform="scale(0.015625)"/>
       <path id="DejaVuSans-66" d="M 2375 4863 
L 2375 4384 
L 1825 4384 
Q 1516 4384 1395 4259 
Q 1275 4134 1275 3809 
L 1275 3500 
L 2222 3500 
L 2222 3053 
L 1275 3053 
L 1275 0 
L 697 0 
L 697 3053 
L 147 3053 
L 147 3500 
L 697 3500 
L 697 3744 
Q 697 4328 969 4595 
Q 1241 4863 1831 4863 
L 2375 4863 
z
" transform="scale(0.015625)"/>
      </defs>
      <use xlink:href="#DejaVuSans-43"/>
      <use xlink:href="#DejaVuSans-6f" x="69.824219"/>
      <use xlink:href="#DejaVuSans-72" x="131.005859"/>
      <use xlink:href="#DejaVuSans-72" x="170.369141"/>
      <use xlink:href="#DejaVuSans-65" x="209.232422"/>
      <use xlink:href="#DejaVuSans-6c" x="270.755859"/>
      <use xlink:href="#DejaVuSans-61" x="298.539062"/>
      <use xlink:href="#DejaVuSans-74" x="359.818359"/>
      <use xlink:href="#DejaVuSans-69" x="399.027344"/>
      <use xlink:href="#DejaVuSans-6f" x="426.810547"/>
      <use xlink:href="#DejaVuSans-6e" x="487.992188"/>
      <use xlink:href="#DejaVuSans-20" x="551.371094"/>
      <use xlink:href="#DejaVuSans-63" x="583.158203"/>
      <use xlink:href="#DejaVuSans-6f" x="638.138672"/>
      <use xlink:href="#DejaVuSans-65" x="699.320312"/>
      <use xlink:href="#DejaVuSans-66" x="760.84375"/>
      <use xlink:href="#DejaVuSans-66" x="796.048828"/>
      <use xlink:href="#DejaVuSans-69" x="831.253906"/>
      <use xlink:href="#DejaVuSans-63" x="859.037109"/>
      <use xlink:href="#DejaVuSans-69" x="914.017578"/>
      <use xlink:href="#DejaVuSans-65" x="941.800781"/>
      <use xlink:href="#DejaVuSans-6e" x="1003.324219"/>
      <use xlink:href="#DejaVuSans-74" x="1066.703125"/>
     </g>
    </g>
   </g>
   <g id="line2d_14">
    <path d="M 78.938101 446.643676 
L 86.040495 445.520741 
L 93.142889 444.397806 
L 100.245283 443.274871 
L 107.347677 442.151936 
L 114.450071 441.029001 
L 121.552465 439.906066 
L 128.654859 438.783131 
L 135.757253 437.660196 
L 142.859647 436.537261 
L 149.962041 435.414326 
L 157.064435 434.291391 
L 164.166829 433.168456 
L 171.269224 432.045521 
L 178.371618 430.922586 
L 185.474012 429.799651 
L 192.576406 428.676716 
L 199.6788 427.553781 
L 206.781194 426.430846 
L 213.883588 425.307911 
L 220.985982 424.184976 
L 228.088376 423.062041 
L 235.19077 421.939106 
L 242.293164 420.816171 
L 249.395558 419.693236 
L 256.497952 418.570301 
L 263.600346 417.447366 
L 270.702741 416.324431 
L 277.805135 415.201496 
L 284.907529 414.078561 
L 292.009923 412.955626 
L 299.112317 411.832691 
L 306.214711 410.709756 
L 313.317105 409.586821 
L 320.419499 408.463886 
L 327.521893 407.340951 
L 334.624287 406.218016 
L 341.726681 405.095081 
L 348.829075 403.972146 
L 355.931469 402.849211 
L 363.033863 401.726276 
L 370.136258 400.603341 
L 377.238652 399.480406 
L 384.341046 398.357472 
L 391.44344 397.234537 
L 398.545834 396.111602 
L 405.648228 394.988667 
L 412.750622 393.865732 
L 419.853016 392.742797 
L 426.95541 391.619862 
L 434.057804 390.496927 
L 441.160198 389.373992 
L 448.262592 388.251057 
L 455.364986 387.128122 
L 462.46738 386.005187 
L 469.569775 384.882252 
L 476.672169 383.759317 
L 483.774563 382.636382 
L 490.876957 381.513447 
L 497.979351 380.390512 
L 505.081745 379.267577 
L 512.184139 378.144642 
L 519.286533 377.021707 
L 526.388927 375.898772 
L 533.491321 374.775837 
L 540.593715 373.652902 
L 547.696109 372.529967 
L 554.798503 371.407032 
L 561.900897 370.284097 
L 569.003292 369.161162 
L 576.105686 368.038227 
L 583.20808 366.915292 
L 590.310474 365.792357 
L 597.412868 364.669422 
L 604.515262 363.546487 
L 611.617656 362.423552 
L 618.72005 361.300617 
L 625.822444 360.177682 
L 632.924838 359.054747 
L 640.027232 357.931812 
L 647.129626 356.808877 
L 654.23202 355.685942 
L 661.334414 354.563007 
L 668.436809 353.440072 
L 675.539203 352.317137 
L 682.641597 351.194202 
L 689.743991 350.071267 
L 696.846385 348.948332 
L 703.948779 347.825397 
L 711.051173 346.702463 
L 718.153567 345.579528 
L 725.255961 344.456593 
L 732.358355 343.333658 
L 739.460749 342.210723 
L 746.563143 341.087788 
L 753.665537 339.964853 
L 760.767931 338.841918 
L 767.870325 337.718983 
L 774.97272 336.596048 
L 782.075114 335.473113 
" clip-path="url(#pb08fc73611)" style="fill: none; stroke: #1f77b4; stroke-width: 2.25; stroke-linecap: square"/>
   </g>
   <g id="line2d_15">
    <path d="M 78.938101 464.826879 
L 86.040495 464.366193 
L 93.142889 463.905507 
L 100.245283 463.44482 
L 107.347677 462.984134 
L 114.450071 462.523448 
L 121.552465 462.062761 
L 128.654859 461.602075 
L 135.757253 461.141389 
L 142.859647 460.680702 
L 149.962041 460.220016 
L 157.064435 459.75933 
L 164.166829 459.298643 
L 171.269224 458.837957 
L 178.371618 458.377271 
L 185.474012 457.916584 
L 192.576406 457.455898 
L 199.6788 456.995212 
L 206.781194 456.534525 
L 213.883588 456.073839 
L 220.985982 455.613153 
L 228.088376 455.152466 
L 235.19077 454.69178 
L 242.293164 454.231094 
L 249.395558 453.770407 
L 256.497952 453.309721 
L 263.600346 452.849034 
L 270.702741 452.388348 
L 277.805135 451.927662 
L 284.907529 451.466975 
L 292.009923 451.006289 
L 299.112317 450.545603 
L 306.214711 450.084916 
L 313.317105 449.62423 
L 320.419499 449.163544 
L 327.521893 448.702857 
L 334.624287 448.242171 
L 341.726681 447.781485 
L 348.829075 447.320798 
L 355.931469 446.860112 
L 363.033863 446.399426 
L 370.136258 445.938739 
L 377.238652 445.478053 
L 384.341046 445.017367 
L 391.44344 444.55668 
L 398.545834 444.095994 
L 405.648228 443.635308 
L 412.750622 443.174621 
L 419.853016 442.713935 
L 426.95541 442.253249 
L 434.057804 441.792562 
L 441.160198 441.331876 
L 448.262592 440.87119 
L 455.364986 440.410503 
L 462.46738 439.949817 
L 469.569775 439.48913 
L 476.672169 439.028444 
L 483.774563 438.567758 
L 490.876957 438.107071 
L 497.979351 437.646385 
L 505.081745 437.185699 
L 512.184139 436.725012 
L 519.286533 436.264326 
L 526.388927 435.80364 
L 533.491321 435.342953 
L 540.593715 434.882267 
L 547.696109 434.421581 
L 554.798503 433.960894 
L 561.900897 433.500208 
L 569.003292 433.039522 
L 576.105686 432.578835 
L 583.20808 432.118149 
L 590.310474 431.657463 
L 597.412868 431.196776 
L 604.515262 430.73609 
L 611.617656 430.275404 
L 618.72005 429.814717 
L 625.822444 429.354031 
L 632.924838 428.893345 
L 640.027232 428.432658 
L 647.129626 427.971972 
L 654.23202 427.511286 
L 661.334414 427.050599 
L 668.436809 426.589913 
L 675.539203 426.129226 
L 682.641597 425.66854 
L 689.743991 425.207854 
L 696.846385 424.747167 
L 703.948779 424.286481 
L 711.051173 423.825795 
L 718.153567 423.365108 
L 725.255961 422.904422 
L 732.358355 422.443736 
L 739.460749 421.983049 
L 746.563143 421.522363 
L 753.665537 421.061677 
L 760.767931 420.60099 
L 767.870325 420.140304 
L 774.97272 419.679618 
L 782.075114 419.218931 
" clip-path="url(#pb08fc73611)" style="fill: none; stroke: #ff7f0e; stroke-width: 2.25; stroke-linecap: square"/>
   </g>
   <g id="patch_3">
    <path d="M 43.78125 642.866667 
L 43.78125 151.965714 
" style="fill: none; stroke: #000000; stroke-width: 0.8; stroke-linejoin: miter; stroke-linecap: square"/>
   </g>
   <g id="patch_4">
    <path d="M 43.78125 642.866667 
L 817.231964 642.866667 
" style="fill: none; stroke: #000000; stroke-width: 0.8; stroke-linejoin: miter; stroke-linecap: square"/>
   </g>
   <g id="legend_1">
    <g id="patch_5">
     <path d="M 704.119464 637.866667 
L 810.231964 637.866667 
Q 812.231964 637.866667 812.231964 635.866667 
L 812.231964 607.510417 
Q 812.231964 605.510417 810.231964 605.510417 
L 704.119464 605.510417 
Q 702.119464 605.510417 702.119464 607.510417 
L 702.119464 635.866667 
Q 702.119464 637.866667 704.119464 637.866667 
z
" style="fill: #ffffff; opacity: 0.8; stroke: #cccccc; stroke-linejoin: miter"/>
    </g>
    <g id="PathCollection_3">
     <g>
      <use xlink:href="#m324d1c26c5" x="716.119464" y="614.483854" style="fill: #4169e1; fill-opacity: 0.5; stroke: #000000; stroke-opacity: 0.5"/>
     </g>
    </g>
    <g id="text_16">
     <!-- Codon number -->
     <g transform="translate(734.119464 617.108854) scale(0.1 -0.1)">
      <defs>
       <path id="DejaVuSans-64" d="M 2906 2969 
L 2906 4863 
L 3481 4863 
L 3481 0 
L 2906 0 
L 2906 525 
Q 2725 213 2448 61 
Q 2172 -91 1784 -91 
Q 1150 -91 751 415 
Q 353 922 353 1747 
Q 353 2572 751 3078 
Q 1150 3584 1784 3584 
Q 2172 3584 2448 3432 
Q 2725 3281 2906 2969 
z
M 947 1747 
Q 947 1113 1208 752 
Q 1469 391 1925 391 
Q 2381 391 2643 752 
Q 2906 1113 2906 1747 
Q 2906 2381 2643 2742 
Q 2381 3103 1925 3103 
Q 1469 3103 1208 2742 
Q 947 2381 947 1747 
z
" transform="scale(0.015625)"/>
       <path id="DejaVuSans-75" d="M 544 1381 
L 544 3500 
L 1119 3500 
L 1119 1403 
Q 1119 906 1312 657 
Q 1506 409 1894 409 
Q 2359 409 2629 706 
Q 2900 1003 2900 1516 
L 2900 3500 
L 3475 3500 
L 3475 0 
L 2900 0 
L 2900 538 
Q 2691 219 2414 64 
Q 2138 -91 1772 -91 
Q 1169 -91 856 284 
Q 544 659 544 1381 
z
M 1991 3584 
L 1991 3584 
z
" transform="scale(0.015625)"/>
       <path id="DejaVuSans-6d" d="M 3328 2828 
Q 3544 3216 3844 3400 
Q 4144 3584 4550 3584 
Q 5097 3584 5394 3201 
Q 5691 2819 5691 2113 
L 5691 0 
L 5113 0 
L 5113 2094 
Q 5113 2597 4934 2840 
Q 4756 3084 4391 3084 
Q 3944 3084 3684 2787 
Q 3425 2491 3425 1978 
L 3425 0 
L 2847 0 
L 2847 2094 
Q 2847 2600 2669 2842 
Q 2491 3084 2119 3084 
Q 1678 3084 1418 2786 
Q 1159 2488 1159 1978 
L 1159 0 
L 581 0 
L 581 3500 
L 1159 3500 
L 1159 2956 
Q 1356 3278 1631 3431 
Q 1906 3584 2284 3584 
Q 2666 3584 2933 3390 
Q 3200 3197 3328 2828 
z
" transform="scale(0.015625)"/>
       <path id="DejaVuSans-62" d="M 3116 1747 
Q 3116 2381 2855 2742 
Q 2594 3103 2138 3103 
Q 1681 3103 1420 2742 
Q 1159 2381 1159 1747 
Q 1159 1113 1420 752 
Q 1681 391 2138 391 
Q 2594 391 2855 752 
Q 3116 1113 3116 1747 
z
M 1159 2969 
Q 1341 3281 1617 3432 
Q 1894 3584 2278 3584 
Q 2916 3584 3314 3078 
Q 3713 2572 3713 1747 
Q 3713 922 3314 415 
Q 2916 -91 2278 -91 
Q 1894 -91 1617 61 
Q 1341 213 1159 525 
L 1159 0 
L 581 0 
L 581 4863 
L 1159 4863 
L 1159 2969 
z
" transform="scale(0.015625)"/>
      </defs>
      <use xlink:href="#DejaVuSans-43"/>
      <use xlink:href="#DejaVuSans-6f" x="69.824219"/>
      <use xlink:href="#DejaVuSans-64" x="131.005859"/>
      <use xlink:href="#DejaVuSans-6f" x="194.482422"/>
      <use xlink:href="#DejaVuSans-6e" x="255.664062"/>
      <use xlink:href="#DejaVuSans-20" x="319.042969"/>
      <use xlink:href="#DejaVuSans-6e" x="350.830078"/>
      <use xlink:href="#DejaVuSans-75" x="414.208984"/>
      <use xlink:href="#DejaVuSans-6d" x="477.587891"/>
      <use xlink:href="#DejaVuSans-62" x="575"/>
      <use xlink:href="#DejaVuSans-65" x="638.476562"/>
      <use xlink:href="#DejaVuSans-72" x="700"/>
     </g>
    </g>
    <g id="PathCollection_4">
     <g>
      <use xlink:href="#m92b8b5f582" x="716.119464" y="629.161979" style="fill: #ff8c00; fill-opacity: 0.5; stroke: #000000; stroke-opacity: 0.5"/>
     </g>
    </g>
    <g id="text_17">
     <!-- Codon+GC -->
     <g transform="translate(734.119464 631.786979) scale(0.1 -0.1)">
      <defs>
       <path id="DejaVuSans-2b" d="M 2944 4013 
L 2944 2272 
L 4684 2272 
L 4684 1741 
L 2944 1741 
L 2944 0 
L 2419 0 
L 2419 1741 
L 678 1741 
L 678 2272 
L 2419 2272 
L 2419 4013 
L 2944 4013 
z
" transform="scale(0.015625)"/>
       <path id="DejaVuSans-47" d="M 3809 666 
L 3809 1919 
L 2778 1919 
L 2778 2438 
L 4434 2438 
L 4434 434 
Q 4069 175 3628 42 
Q 3188 -91 2688 -91 
Q 1594 -91 976 548 
Q 359 1188 359 2328 
Q 359 3472 976 4111 
Q 1594 4750 2688 4750 
Q 3144 4750 3555 4637 
Q 3966 4525 4313 4306 
L 4313 3634 
Q 3963 3931 3569 4081 
Q 3175 4231 2741 4231 
Q 1884 4231 1454 3753 
Q 1025 3275 1025 2328 
Q 1025 1384 1454 906 
Q 1884 428 2741 428 
Q 3075 428 3337 486 
Q 3600 544 3809 666 
z
" transform="scale(0.015625)"/>
      </defs>
      <use xlink:href="#DejaVuSans-43"/>
      <use xlink:href="#DejaVuSans-6f" x="69.824219"/>
      <use xlink:href="#DejaVuSans-64" x="131.005859"/>
      <use xlink:href="#DejaVuSans-6f" x="194.482422"/>
      <use xlink:href="#DejaVuSans-6e" x="255.664062"/>
      <use xlink:href="#DejaVuSans-2b" x="319.042969"/>
      <use xlink:href="#DejaVuSans-47" x="402.832031"/>
      <use xlink:href="#DejaVuSans-43" x="480.322266"/>
     </g>
    </g>
   </g>
  </g>
  <g id="axes_2">
   <g id="patch_6">
    <path d="M 43.78125 135.038095 
L 817.231964 135.038095 
L 817.231964 50.4 
L 43.78125 50.4 
z
" style="fill: #ffffff"/>
   </g>
   <g id="PolyCollection_3">
    <defs>
     <path id="mb1149ba022" d="M 78.938101 -549.627332 
L 78.938101 -545.384821 
L 105.981832 -545.384821 
L 105.981832 -545.384821 
L 133.025563 -545.384821 
L 133.025563 -545.384821 
L 160.069294 -545.384821 
L 160.069294 -545.384821 
L 187.113026 -545.384821 
L 187.113026 -545.384821 
L 214.156757 -545.384821 
L 214.156757 -545.384821 
L 241.200488 -545.384821 
L 241.200488 -545.384821 
L 268.24422 -545.384821 
L 268.24422 -545.384821 
L 295.287951 -545.384821 
L 295.287951 -545.384821 
L 322.331682 -545.384821 
L 322.331682 -545.384821 
L 349.375413 -545.384821 
L 349.375413 -545.384821 
L 376.419145 -545.384821 
L 376.419145 -545.384821 
L 403.462876 -545.384821 
L 403.462876 -545.384821 
L 430.506607 -545.384821 
L 430.506607 -545.384821 
L 457.550338 -545.384821 
L 457.550338 -545.384821 
L 484.59407 -545.384821 
L 484.59407 -545.384821 
L 511.637801 -545.384821 
L 511.637801 -545.384821 
L 538.681532 -545.384821 
L 538.681532 -545.384821 
L 565.725263 -545.384821 
L 565.725263 -545.384821 
L 592.768995 -545.384821 
L 592.768995 -545.384821 
L 619.812726 -545.384821 
L 619.812726 -545.384821 
L 646.856457 -545.384821 
L 646.856457 -545.384821 
L 673.900189 -545.384821 
L 673.900189 -545.384821 
L 700.94392 -545.384821 
L 700.94392 -545.384821 
L 727.987651 -545.384821 
L 727.987651 -545.384821 
L 755.031382 -545.384821 
L 755.031382 -545.384821 
L 782.075114 -545.384821 
L 782.075114 -545.384821 
L 782.075114 -549.627332 
L 782.075114 -549.627332 
L 782.075114 -549.627332 
L 755.031382 -549.627332 
L 755.031382 -545.384821 
L 727.987651 -545.384821 
L 727.987651 -545.384821 
L 700.94392 -545.384821 
L 700.94392 -545.384821 
L 673.900189 -545.384821 
L 673.900189 -545.384821 
L 646.856457 -545.384821 
L 646.856457 -545.384821 
L 619.812726 -545.384821 
L 619.812726 -545.384821 
L 592.768995 -545.384821 
L 592.768995 -545.384821 
L 565.725263 -545.384821 
L 565.725263 -545.384821 
L 538.681532 -545.384821 
L 538.681532 -545.384821 
L 511.637801 -545.384821 
L 511.637801 -549.627332 
L 484.59407 -549.627332 
L 484.59407 -545.384821 
L 457.550338 -545.384821 
L 457.550338 -549.627332 
L 430.506607 -549.627332 
L 430.506607 -545.384821 
L 403.462876 -545.384821 
L 403.462876 -549.627332 
L 376.419145 -549.627332 
L 376.419145 -545.384821 
L 349.375413 -545.384821 
L 349.375413 -566.597377 
L 322.331682 -566.597377 
L 322.331682 -575.082399 
L 295.287951 -575.082399 
L 295.287951 -625.992531 
L 268.24422 -625.992531 
L 268.24422 -604.779976 
L 241.200488 -604.779976 
L 241.200488 -579.32491 
L 214.156757 -579.32491 
L 214.156757 -558.112355 
L 187.113026 -558.112355 
L 187.113026 -549.627332 
L 160.069294 -549.627332 
L 160.069294 -562.354866 
L 133.025563 -562.354866 
L 133.025563 -549.627332 
L 105.981832 -549.627332 
L 105.981832 -549.627332 
L 78.938101 -549.627332 
z
" style="stroke: #000000"/>
    </defs>
    <g clip-path="url(#pc1ae564e88)">
     <use xlink:href="#mb1149ba022" x="0" y="680.422917" style="fill: #800080; fill-opacity: 0.75; stroke: #000000"/>
    </g>
   </g>
   <g id="matplotlib.axis_3">
    <g id="xtick_6">
     <g id="line2d_16">
      <g>
       <use xlink:href="#m4f537466ee" x="149.654618" y="135.038095" style="stroke: #000000; stroke-width: 0.8"/>
      </g>
     </g>
    </g>
    <g id="xtick_7">
     <g id="line2d_17">
      <g>
       <use xlink:href="#m4f537466ee" x="283.926485" y="135.038095" style="stroke: #000000; stroke-width: 0.8"/>
      </g>
     </g>
    </g>
    <g id="xtick_8">
     <g id="line2d_18">
      <g>
       <use xlink:href="#m4f537466ee" x="418.198353" y="135.038095" style="stroke: #000000; stroke-width: 0.8"/>
      </g>
     </g>
    </g>
    <g id="xtick_9">
     <g id="line2d_19">
      <g>
       <use xlink:href="#m4f537466ee" x="552.47022" y="135.038095" style="stroke: #000000; stroke-width: 0.8"/>
      </g>
     </g>
    </g>
    <g id="xtick_10">
     <g id="line2d_20">
      <g>
       <use xlink:href="#m4f537466ee" x="686.742088" y="135.038095" style="stroke: #000000; stroke-width: 0.8"/>
      </g>
     </g>
    </g>
   </g>
   <g id="matplotlib.axis_4">
    <g id="ytick_9"/>
    <g id="ytick_10"/>
    <g id="ytick_11"/>
    <g id="ytick_12"/>
   </g>
   <g id="patch_7">
    <path d="M 43.78125 135.038095 
L 817.231964 135.038095 
" style="fill: none; stroke: #000000; stroke-width: 0.8; stroke-linejoin: miter; stroke-linecap: square"/>
   </g>
  </g>
  <g id="axes_3">
   <g id="patch_8">
    <path d="M 843.902679 642.866667 
L 977.25625 642.866667 
L 977.25625 151.965714 
L 843.902679 151.965714 
z
" style="fill: #ffffff"/>
   </g>
   <g id="PolyCollection_4">
    <defs>
     <path id="m5071d45cc0" d="M 883.850291 -134.587928 
L 849.964205 -134.587928 
L 849.964205 -134.587928 
L 849.964205 -172.571727 
L 849.964205 -172.571727 
L 849.964205 -210.555527 
L 849.964205 -210.555527 
L 849.964205 -248.539327 
L 849.964205 -248.539327 
L 849.964205 -286.523126 
L 849.964205 -286.523126 
L 849.964205 -324.506926 
L 849.964205 -324.506926 
L 849.964205 -362.490725 
L 878.20261 -362.490725 
L 878.20261 -362.490725 
L 878.20261 -324.506926 
L 889.497972 -324.506926 
L 889.497972 -286.523126 
L 917.736378 -286.523126 
L 917.736378 -248.539327 
L 945.974783 -248.539327 
L 945.974783 -210.555527 
L 912.088697 -210.555527 
L 912.088697 -172.571727 
L 900.793334 -172.571727 
L 900.793334 -134.587928 
L 883.850291 -134.587928 
z
" style="stroke: #000000; stroke-opacity: 0.5"/>
    </defs>
    <g clip-path="url(#p1ab9973d41)">
     <use xlink:href="#m5071d45cc0" x="0" y="680.422917" style="fill: #4169e1; fill-opacity: 0.5; stroke: #000000; stroke-opacity: 0.5"/>
    </g>
   </g>
   <g id="PolyCollection_5">
    <defs>
     <path id="mb1fd4d5cc6" d="M 863.434262 -59.86993 
L 849.964205 -59.86993 
L 849.964205 -59.86993 
L 849.964205 -91.721372 
L 849.964205 -91.721372 
L 849.964205 -123.572815 
L 849.964205 -123.572815 
L 849.964205 -155.424258 
L 849.964205 -155.424258 
L 849.964205 -187.275701 
L 849.964205 -187.275701 
L 849.964205 -219.127144 
L 849.964205 -219.127144 
L 849.964205 -250.978587 
L 849.964205 -250.978587 
L 849.964205 -282.830029 
L 849.964205 -282.830029 
L 849.964205 -314.681472 
L 876.90432 -314.681472 
L 876.90432 -314.681472 
L 876.90432 -282.830029 
L 890.374378 -282.830029 
L 890.374378 -250.978587 
L 971.194724 -250.978587 
L 971.194724 -219.127144 
L 950.989637 -219.127144 
L 950.989637 -187.275701 
L 910.579464 -187.275701 
L 910.579464 -155.424258 
L 897.109407 -155.424258 
L 897.109407 -123.572815 
L 863.434262 -123.572815 
L 863.434262 -91.721372 
L 876.90432 -91.721372 
L 876.90432 -59.86993 
L 863.434262 -59.86993 
z
" style="stroke: #000000; stroke-opacity: 0.5"/>
    </defs>
    <g clip-path="url(#p1ab9973d41)">
     <use xlink:href="#mb1fd4d5cc6" x="0" y="680.422917" style="fill: #ff8c00; fill-opacity: 0.5; stroke: #000000; stroke-opacity: 0.5"/>
    </g>
   </g>
   <g id="matplotlib.axis_5">
    <g id="xtick_11"/>
    <g id="xtick_12"/>
    <g id="xtick_13"/>
   </g>
   <g id="matplotlib.axis_6">
    <g id="ytick_13">
     <g id="line2d_21">
      <g>
       <use xlink:href="#mb2b0129f1d" x="843.902679" y="608.812091" style="stroke: #000000; stroke-width: 0.8"/>
      </g>
     </g>
    </g>
    <g id="ytick_14">
     <g id="line2d_22">
      <g>
       <use xlink:href="#mb2b0129f1d" x="843.902679" y="545.133289" style="stroke: #000000; stroke-width: 0.8"/>
      </g>
     </g>
    </g>
    <g id="ytick_15">
     <g id="line2d_23">
      <g>
       <use xlink:href="#mb2b0129f1d" x="843.902679" y="481.454486" style="stroke: #000000; stroke-width: 0.8"/>
      </g>
     </g>
    </g>
    <g id="ytick_16">
     <g id="line2d_24">
      <g>
       <use xlink:href="#mb2b0129f1d" x="843.902679" y="417.775684" style="stroke: #000000; stroke-width: 0.8"/>
      </g>
     </g>
    </g>
    <g id="ytick_17">
     <g id="line2d_25">
      <g>
       <use xlink:href="#mb2b0129f1d" x="843.902679" y="354.096881" style="stroke: #000000; stroke-width: 0.8"/>
      </g>
     </g>
    </g>
    <g id="ytick_18">
     <g id="line2d_26">
      <g>
       <use xlink:href="#mb2b0129f1d" x="843.902679" y="290.418079" style="stroke: #000000; stroke-width: 0.8"/>
      </g>
     </g>
    </g>
    <g id="ytick_19">
     <g id="line2d_27">
      <g>
       <use xlink:href="#mb2b0129f1d" x="843.902679" y="226.739276" style="stroke: #000000; stroke-width: 0.8"/>
      </g>
     </g>
    </g>
    <g id="ytick_20">
     <g id="line2d_28">
      <g>
       <use xlink:href="#mb2b0129f1d" x="843.902679" y="163.060474" style="stroke: #000000; stroke-width: 0.8"/>
      </g>
     </g>
    </g>
   </g>
   <g id="patch_9">
    <path d="M 843.902679 642.866667 
L 843.902679 151.965714 
" style="fill: none; stroke: #000000; stroke-width: 0.8; stroke-linejoin: miter; stroke-linecap: square"/>
   </g>
  </g>
  <g id="text_18">
   <!-- Archaea - Kendall's Tau correlation coefficients for genetic code: IM -->
   <g transform="translate(262.782813 16.318125) scale(0.12 -0.12)">
    <defs>
     <path id="DejaVuSans-41" d="M 2188 4044 
L 1331 1722 
L 3047 1722 
L 2188 4044 
z
M 1831 4666 
L 2547 4666 
L 4325 0 
L 3669 0 
L 3244 1197 
L 1141 1197 
L 716 0 
L 50 0 
L 1831 4666 
z
" transform="scale(0.015625)"/>
     <path id="DejaVuSans-2d" d="M 313 2009 
L 1997 2009 
L 1997 1497 
L 313 1497 
L 313 2009 
z
" transform="scale(0.015625)"/>
     <path id="DejaVuSans-4b" d="M 628 4666 
L 1259 4666 
L 1259 2694 
L 3353 4666 
L 4166 4666 
L 1850 2491 
L 4331 0 
L 3500 0 
L 1259 2247 
L 1259 0 
L 628 0 
L 628 4666 
z
" transform="scale(0.015625)"/>
     <path id="DejaVuSans-27" d="M 1147 4666 
L 1147 2931 
L 616 2931 
L 616 4666 
L 1147 4666 
z
" transform="scale(0.015625)"/>
     <path id="DejaVuSans-73" d="M 2834 3397 
L 2834 2853 
Q 2591 2978 2328 3040 
Q 2066 3103 1784 3103 
Q 1356 3103 1142 2972 
Q 928 2841 928 2578 
Q 928 2378 1081 2264 
Q 1234 2150 1697 2047 
L 1894 2003 
Q 2506 1872 2764 1633 
Q 3022 1394 3022 966 
Q 3022 478 2636 193 
Q 2250 -91 1575 -91 
Q 1294 -91 989 -36 
Q 684 19 347 128 
L 347 722 
Q 666 556 975 473 
Q 1284 391 1588 391 
Q 1994 391 2212 530 
Q 2431 669 2431 922 
Q 2431 1156 2273 1281 
Q 2116 1406 1581 1522 
L 1381 1569 
Q 847 1681 609 1914 
Q 372 2147 372 2553 
Q 372 3047 722 3315 
Q 1072 3584 1716 3584 
Q 2034 3584 2315 3537 
Q 2597 3491 2834 3397 
z
" transform="scale(0.015625)"/>
     <path id="DejaVuSans-54" d="M -19 4666 
L 3928 4666 
L 3928 4134 
L 2272 4134 
L 2272 0 
L 1638 0 
L 1638 4134 
L -19 4134 
L -19 4666 
z
" transform="scale(0.015625)"/>
     <path id="DejaVuSans-3a" d="M 750 794 
L 1409 794 
L 1409 0 
L 750 0 
L 750 794 
z
M 750 3309 
L 1409 3309 
L 1409 2516 
L 750 2516 
L 750 3309 
z
" transform="scale(0.015625)"/>
     <path id="DejaVuSans-49" d="M 628 4666 
L 1259 4666 
L 1259 0 
L 628 0 
L 628 4666 
z
" transform="scale(0.015625)"/>
     <path id="DejaVuSans-4d" d="M 628 4666 
L 1569 4666 
L 2759 1491 
L 3956 4666 
L 4897 4666 
L 4897 0 
L 4281 0 
L 4281 4097 
L 3078 897 
L 2444 897 
L 1241 4097 
L 1241 0 
L 628 0 
L 628 4666 
z
" transform="scale(0.015625)"/>
    </defs>
    <use xlink:href="#DejaVuSans-41"/>
    <use xlink:href="#DejaVuSans-72" x="68.408203"/>
    <use xlink:href="#DejaVuSans-63" x="107.271484"/>
    <use xlink:href="#DejaVuSans-68" x="162.251953"/>
    <use xlink:href="#DejaVuSans-61" x="225.630859"/>
    <use xlink:href="#DejaVuSans-65" x="286.910156"/>
    <use xlink:href="#DejaVuSans-61" x="348.433594"/>
    <use xlink:href="#DejaVuSans-20" x="409.712891"/>
    <use xlink:href="#DejaVuSans-2d" x="441.5"/>
    <use xlink:href="#DejaVuSans-20" x="477.583984"/>
    <use xlink:href="#DejaVuSans-4b" x="509.371094"/>
    <use xlink:href="#DejaVuSans-65" x="569.947266"/>
    <use xlink:href="#DejaVuSans-6e" x="631.470703"/>
    <use xlink:href="#DejaVuSans-64" x="694.849609"/>
    <use xlink:href="#DejaVuSans-61" x="758.326172"/>
    <use xlink:href="#DejaVuSans-6c" x="819.605469"/>
    <use xlink:href="#DejaVuSans-6c" x="847.388672"/>
    <use xlink:href="#DejaVuSans-27" x="875.171875"/>
    <use xlink:href="#DejaVuSans-73" x="902.662109"/>
    <use xlink:href="#DejaVuSans-20" x="954.761719"/>
    <use xlink:href="#DejaVuSans-54" x="986.548828"/>
    <use xlink:href="#DejaVuSans-61" x="1031.132812"/>
    <use xlink:href="#DejaVuSans-75" x="1092.412109"/>
    <use xlink:href="#DejaVuSans-20" x="1155.791016"/>
    <use xlink:href="#DejaVuSans-63" x="1187.578125"/>
    <use xlink:href="#DejaVuSans-6f" x="1242.558594"/>
    <use xlink:href="#DejaVuSans-72" x="1303.740234"/>
    <use xlink:href="#DejaVuSans-72" x="1343.103516"/>
    <use xlink:href="#DejaVuSans-65" x="1381.966797"/>
    <use xlink:href="#DejaVuSans-6c" x="1443.490234"/>
    <use xlink:href="#DejaVuSans-61" x="1471.273438"/>
    <use xlink:href="#DejaVuSans-74" x="1532.552734"/>
    <use xlink:href="#DejaVuSans-69" x="1571.761719"/>
    <use xlink:href="#DejaVuSans-6f" x="1599.544922"/>
    <use xlink:href="#DejaVuSans-6e" x="1660.726562"/>
    <use xlink:href="#DejaVuSans-20" x="1724.105469"/>
    <use xlink:href="#DejaVuSans-63" x="1755.892578"/>
    <use xlink:href="#DejaVuSans-6f" x="1810.873047"/>
    <use xlink:href="#DejaVuSans-65" x="1872.054688"/>
    <use xlink:href="#DejaVuSans-66" x="1933.578125"/>
    <use xlink:href="#DejaVuSans-66" x="1968.783203"/>
    <use xlink:href="#DejaVuSans-69" x="2003.988281"/>
    <use xlink:href="#DejaVuSans-63" x="2031.771484"/>
    <use xlink:href="#DejaVuSans-69" x="2086.751953"/>
    <use xlink:href="#DejaVuSans-65" x="2114.535156"/>
    <use xlink:href="#DejaVuSans-6e" x="2176.058594"/>
    <use xlink:href="#DejaVuSans-74" x="2239.4375"/>
    <use xlink:href="#DejaVuSans-73" x="2278.646484"/>
    <use xlink:href="#DejaVuSans-20" x="2330.746094"/>
    <use xlink:href="#DejaVuSans-66" x="2362.533203"/>
    <use xlink:href="#DejaVuSans-6f" x="2397.738281"/>
    <use xlink:href="#DejaVuSans-72" x="2458.919922"/>
    <use xlink:href="#DejaVuSans-20" x="2500.033203"/>
    <use xlink:href="#DejaVuSans-67" x="2531.820312"/>
    <use xlink:href="#DejaVuSans-65" x="2595.296875"/>
    <use xlink:href="#DejaVuSans-6e" x="2656.820312"/>
    <use xlink:href="#DejaVuSans-65" x="2720.199219"/>
    <use xlink:href="#DejaVuSans-74" x="2781.722656"/>
    <use xlink:href="#DejaVuSans-69" x="2820.931641"/>
    <use xlink:href="#DejaVuSans-63" x="2848.714844"/>
    <use xlink:href="#DejaVuSans-20" x="2903.695312"/>
    <use xlink:href="#DejaVuSans-63" x="2935.482422"/>
    <use xlink:href="#DejaVuSans-6f" x="2990.462891"/>
    <use xlink:href="#DejaVuSans-64" x="3051.644531"/>
    <use xlink:href="#DejaVuSans-65" x="3115.121094"/>
    <use xlink:href="#DejaVuSans-3a" x="3176.644531"/>
    <use xlink:href="#DejaVuSans-20" x="3210.335938"/>
    <use xlink:href="#DejaVuSans-49" x="3242.123047"/>
    <use xlink:href="#DejaVuSans-4d" x="3271.615234"/>
   </g>
  </g>
 </g>
 <defs>
  <clipPath id="pb08fc73611">
   <rect x="43.78125" y="151.965714" width="773.450714" height="490.900952"/>
  </clipPath>
  <clipPath id="pc1ae564e88">
   <rect x="43.78125" y="50.4" width="773.450714" height="84.638095"/>
  </clipPath>
  <clipPath id="p1ab9973d41">
   <rect x="843.902679" y="151.965714" width="133.353571" height="490.900952"/>
  </clipPath>
 </defs>
</svg>
