<?xml version="1.0" encoding="utf-8" standalone="no"?>
<!DOCTYPE svg PUBLIC "-//W3C//DTD SVG 1.1//EN"
  "http://www.w3.org/Graphics/SVG/1.1/DTD/svg11.dtd">
<svg xmlns:xlink="http://www.w3.org/1999/xlink" width="894.34375pt" height="649.55625pt" viewBox="0 0 894.34375 649.55625" xmlns="http://www.w3.org/2000/svg" version="1.1">
 <metadata>
  <rdf:RDF xmlns:dc="http://purl.org/dc/elements/1.1/" xmlns:cc="http://creativecommons.org/ns#" xmlns:rdf="http://www.w3.org/1999/02/22-rdf-syntax-ns#">
   <cc:Work>
    <dc:type rdf:resource="http://purl.org/dc/dcmitype/StillImage"/>
    <dc:date>2024-09-24T16:23:13.451175</dc:date>
    <dc:format>image/svg+xml</dc:format>
    <dc:creator>
     <cc:Agent>
      <dc:title>Matplotlib v3.8.3, https://matplotlib.org/</dc:title>
     </cc:Agent>
    </dc:creator>
   </cc:Work>
  </rdf:RDF>
 </metadata>
 <defs>
  <style type="text/css">*{stroke-linejoin: round; stroke-linecap: butt}</style>
 </defs>
 <g id="figure_1">
  <g id="patch_1">
   <path d="M 0 649.55625 
L 894.34375 649.55625 
L 894.34375 0 
L 0 0 
z
" style="fill: #ffffff"/>
  </g>
  <g id="axes_1">
   <g id="patch_2">
    <path d="M 50.14375 309.6 
L 448.715179 309.6 
L 448.715179 57.6 
L 50.14375 57.6 
z
" style="fill: #ffffff"/>
   </g>
   <g id="PathCollection_1">
    <defs>
     <path id="mcdbf73249d" d="M 0 3.535534 
C 0.937635 3.535534 1.836992 3.163008 2.5 2.5 
C 3.163008 1.836992 3.535534 0.937635 3.535534 0 
C 3.535534 -0.937635 3.163008 -1.836992 2.5 -2.5 
C 1.836992 -3.163008 0.937635 -3.535534 0 -3.535534 
C -0.937635 -3.535534 -1.836992 -3.163008 -2.5 -2.5 
C -3.163008 -1.836992 -3.535534 -0.937635 -3.535534 0 
C -3.535534 0.937635 -3.163008 1.836992 -2.5 2.5 
C -1.836992 3.163008 -0.937635 3.535534 0 3.535534 
z
" style="stroke: #1f77b4; stroke-opacity: 0.8"/>
    </defs>
    <g clip-path="url(#pc56b51546d)">
     <use xlink:href="#mcdbf73249d" x="68.260633" y="265.645995" style="fill: #1f77b4; fill-opacity: 0.8; stroke: #1f77b4; stroke-opacity: 0.8"/>
     <use xlink:href="#mcdbf73249d" x="68.260633" y="298.145455" style="fill: #1f77b4; fill-opacity: 0.8; stroke: #1f77b4; stroke-opacity: 0.8"/>
     <use xlink:href="#mcdbf73249d" x="128.650244" y="296.251493" style="fill: #1f77b4; fill-opacity: 0.8; stroke: #1f77b4; stroke-opacity: 0.8"/>
     <use xlink:href="#mcdbf73249d" x="128.650244" y="189.810898" style="fill: #1f77b4; fill-opacity: 0.8; stroke: #1f77b4; stroke-opacity: 0.8"/>
     <use xlink:href="#mcdbf73249d" x="128.650244" y="156.651346" style="fill: #1f77b4; fill-opacity: 0.8; stroke: #1f77b4; stroke-opacity: 0.8"/>
     <use xlink:href="#mcdbf73249d" x="128.650244" y="253.203049" style="fill: #1f77b4; fill-opacity: 0.8; stroke: #1f77b4; stroke-opacity: 0.8"/>
     <use xlink:href="#mcdbf73249d" x="128.650244" y="277.919838" style="fill: #1f77b4; fill-opacity: 0.8; stroke: #1f77b4; stroke-opacity: 0.8"/>
     <use xlink:href="#mcdbf73249d" x="128.650244" y="191.719616" style="fill: #1f77b4; fill-opacity: 0.8; stroke: #1f77b4; stroke-opacity: 0.8"/>
     <use xlink:href="#mcdbf73249d" x="128.650244" y="247.54975" style="fill: #1f77b4; fill-opacity: 0.8; stroke: #1f77b4; stroke-opacity: 0.8"/>
     <use xlink:href="#mcdbf73249d" x="128.650244" y="270.462162" style="fill: #1f77b4; fill-opacity: 0.8; stroke: #1f77b4; stroke-opacity: 0.8"/>
     <use xlink:href="#mcdbf73249d" x="128.650244" y="248.840316" style="fill: #1f77b4; fill-opacity: 0.8; stroke: #1f77b4; stroke-opacity: 0.8"/>
     <use xlink:href="#mcdbf73249d" x="189.039854" y="170.304419" style="fill: #1f77b4; fill-opacity: 0.8; stroke: #1f77b4; stroke-opacity: 0.8"/>
     <use xlink:href="#mcdbf73249d" x="249.429464" y="172.838728" style="fill: #1f77b4; fill-opacity: 0.8; stroke: #1f77b4; stroke-opacity: 0.8"/>
     <use xlink:href="#mcdbf73249d" x="249.429464" y="164.810896" style="fill: #1f77b4; fill-opacity: 0.8; stroke: #1f77b4; stroke-opacity: 0.8"/>
     <use xlink:href="#mcdbf73249d" x="249.429464" y="231.135699" style="fill: #1f77b4; fill-opacity: 0.8; stroke: #1f77b4; stroke-opacity: 0.8"/>
     <use xlink:href="#mcdbf73249d" x="249.429464" y="219.810584" style="fill: #1f77b4; fill-opacity: 0.8; stroke: #1f77b4; stroke-opacity: 0.8"/>
     <use xlink:href="#mcdbf73249d" x="249.429464" y="148.243711" style="fill: #1f77b4; fill-opacity: 0.8; stroke: #1f77b4; stroke-opacity: 0.8"/>
     <use xlink:href="#mcdbf73249d" x="309.819075" y="143.378248" style="fill: #1f77b4; fill-opacity: 0.8; stroke: #1f77b4; stroke-opacity: 0.8"/>
     <use xlink:href="#mcdbf73249d" x="370.208685" y="199.037871" style="fill: #1f77b4; fill-opacity: 0.8; stroke: #1f77b4; stroke-opacity: 0.8"/>
     <use xlink:href="#mcdbf73249d" x="430.598295" y="207.984611" style="fill: #1f77b4; fill-opacity: 0.8; stroke: #1f77b4; stroke-opacity: 0.8"/>
    </g>
   </g>
   <g id="PolyCollection_1">
    <path d="M 68.260633 217.273747 
L 68.260633 283.327065 
L 71.92061 281.355525 
L 75.580586 280.014857 
L 79.240562 278.61624 
L 82.900539 277.003636 
L 86.560515 275.015707 
L 90.220491 273.013643 
L 93.880468 271.512677 
L 97.540444 269.300954 
L 101.200421 267.328935 
L 104.860397 265.710405 
L 108.520373 264.228678 
L 112.18035 262.283634 
L 115.840326 260.591099 
L 119.500303 259.075682 
L 123.160279 257.533847 
L 126.820255 255.925165 
L 130.480232 254.524227 
L 134.140208 252.828675 
L 137.800184 251.534328 
L 141.460161 250.258922 
L 145.120137 248.396993 
L 148.780114 247.249156 
L 152.44009 246.087244 
L 156.100066 244.935956 
L 159.760043 243.723042 
L 163.420019 242.389836 
L 167.079996 241.41991 
L 170.739972 240.351538 
L 174.399948 239.202578 
L 178.059925 238.07007 
L 181.719901 237.281812 
L 185.379878 236.031939 
L 189.039854 234.949567 
L 192.69983 234.257643 
L 196.359807 233.086263 
L 200.019783 232.367168 
L 203.679759 231.401567 
L 207.339736 230.572908 
L 210.999712 229.619091 
L 214.659689 228.613814 
L 218.319665 227.933718 
L 221.979641 227.097777 
L 225.639618 226.278617 
L 229.299594 225.380441 
L 232.959571 224.572905 
L 236.619547 223.705435 
L 240.279523 223.078018 
L 243.9395 222.458183 
L 247.599476 221.837206 
L 251.259452 220.944285 
L 254.919429 220.072519 
L 258.579405 219.16019 
L 262.239382 218.55922 
L 265.899358 217.88661 
L 269.559334 216.71095 
L 273.219311 215.891757 
L 276.879287 215.267422 
L 280.539264 214.622134 
L 284.19924 214.009203 
L 287.859216 213.396271 
L 291.519193 212.712758 
L 295.179169 212.111406 
L 298.839146 211.510055 
L 302.499122 210.770464 
L 306.159098 210.033376 
L 309.819075 209.326114 
L 313.479051 208.571572 
L 317.139027 207.817477 
L 320.799004 207.058445 
L 324.45898 206.297778 
L 328.118957 205.53711 
L 331.778933 204.856977 
L 335.438909 204.075423 
L 339.098886 203.605474 
L 342.758862 203.078394 
L 346.418839 202.507572 
L 350.078815 202.104443 
L 353.738791 201.82199 
L 357.398768 201.425848 
L 361.058744 201.020929 
L 364.71872 200.46882 
L 368.378697 199.884007 
L 372.038673 199.23662 
L 375.69865 198.689241 
L 379.358626 198.080081 
L 383.018602 197.467537 
L 386.678579 196.854994 
L 390.338555 196.257423 
L 393.998532 195.882457 
L 397.658508 195.282583 
L 401.318484 194.651096 
L 404.978461 194.08552 
L 408.638437 193.487071 
L 412.298414 192.886734 
L 415.95839 192.286398 
L 419.618366 192.018132 
L 423.278343 191.538768 
L 426.938319 190.861716 
L 430.598295 190.237966 
L 430.598295 69.054545 
L 430.598295 69.054545 
L 426.938319 71.216918 
L 423.278343 73.379291 
L 419.618366 75.541663 
L 415.95839 77.704036 
L 412.298414 79.866408 
L 408.638437 82.028781 
L 404.978461 84.191929 
L 401.318484 86.355583 
L 397.658508 88.519236 
L 393.998532 90.68289 
L 390.338555 92.786719 
L 386.678579 94.824272 
L 383.018602 96.861825 
L 379.358626 98.899379 
L 375.69865 100.936932 
L 372.038673 103.064684 
L 368.378697 105.215006 
L 364.71872 107.365537 
L 361.058744 109.52086 
L 357.398768 111.676182 
L 353.738791 113.77498 
L 350.078815 115.861617 
L 346.418839 117.907704 
L 342.758862 120.062683 
L 339.098886 121.93913 
L 335.438909 123.920669 
L 331.778933 125.948117 
L 328.118957 128.026851 
L 324.45898 130.363709 
L 320.799004 132.635754 
L 317.139027 134.444694 
L 313.479051 136.254584 
L 309.819075 138.305379 
L 306.159098 140.405623 
L 302.499122 142.505866 
L 298.839146 144.60611 
L 295.179169 146.643909 
L 291.519193 148.640643 
L 287.859216 150.668632 
L 284.19924 152.940384 
L 280.539264 154.831064 
L 276.879287 156.62503 
L 273.219311 158.620273 
L 269.559334 160.786156 
L 265.899358 162.952039 
L 262.239382 164.695636 
L 258.579405 166.680192 
L 254.919429 168.77702 
L 251.259452 170.879798 
L 247.599476 172.980724 
L 243.9395 175.087055 
L 240.279523 177.17894 
L 236.619547 179.004138 
L 232.959571 180.748803 
L 229.299594 182.752312 
L 225.639618 184.355361 
L 221.979641 185.93587 
L 218.319665 187.59571 
L 214.659689 188.933192 
L 210.999712 189.699425 
L 207.339736 190.754525 
L 203.679759 192.338028 
L 200.019783 193.593402 
L 196.359807 194.553727 
L 192.69983 196.11646 
L 189.039854 197.428112 
L 185.379878 198.662075 
L 181.719901 199.527591 
L 178.059925 200.780238 
L 174.399948 201.959247 
L 170.739972 202.855968 
L 167.079996 203.113177 
L 163.420019 203.331288 
L 159.760043 204.188257 
L 156.100066 205.233945 
L 152.44009 206.096268 
L 148.780114 206.763058 
L 145.120137 207.254591 
L 141.460161 208.140661 
L 137.800184 208.633851 
L 134.140208 209.160385 
L 130.480232 209.609801 
L 126.820255 210.205693 
L 123.160279 211.079148 
L 119.500303 211.847082 
L 115.840326 212.189181 
L 112.18035 212.531279 
L 108.520373 212.873377 
L 104.860397 213.215475 
L 101.200421 213.557574 
L 97.540444 213.825196 
L 93.880468 214.119779 
L 90.220491 214.583868 
L 86.560515 215.019413 
L 82.900539 215.468341 
L 79.240562 215.919692 
L 75.580586 216.371044 
L 71.92061 216.822396 
L 68.260633 217.273747 
z
" clip-path="url(#pc56b51546d)" style="fill: #ffa500; fill-opacity: 0.15"/>
   </g>
   <g id="matplotlib.axis_1">
    <g id="xtick_1">
     <g id="line2d_1">
      <defs>
       <path id="mff1ea3f221" d="M 0 0 
L 0 3.5 
" style="stroke: #000000; stroke-width: 0.8"/>
      </defs>
      <g>
       <use xlink:href="#mff1ea3f221" x="85.169724" y="309.6" style="stroke: #000000; stroke-width: 0.8"/>
      </g>
     </g>
     <g id="text_1">
      <!-- 0.02 -->
      <g transform="translate(74.036912 324.198437) scale(0.1 -0.1)">
       <defs>
        <path id="DejaVuSans-30" d="M 2034 4250 
Q 1547 4250 1301 3770 
Q 1056 3291 1056 2328 
Q 1056 1369 1301 889 
Q 1547 409 2034 409 
Q 2525 409 2770 889 
Q 3016 1369 3016 2328 
Q 3016 3291 2770 3770 
Q 2525 4250 2034 4250 
z
M 2034 4750 
Q 2819 4750 3233 4129 
Q 3647 3509 3647 2328 
Q 3647 1150 3233 529 
Q 2819 -91 2034 -91 
Q 1250 -91 836 529 
Q 422 1150 422 2328 
Q 422 3509 836 4129 
Q 1250 4750 2034 4750 
z
" transform="scale(0.015625)"/>
        <path id="DejaVuSans-2e" d="M 684 794 
L 1344 794 
L 1344 0 
L 684 0 
L 684 794 
z
" transform="scale(0.015625)"/>
        <path id="DejaVuSans-32" d="M 1228 531 
L 3431 531 
L 3431 0 
L 469 0 
L 469 531 
Q 828 903 1448 1529 
Q 2069 2156 2228 2338 
Q 2531 2678 2651 2914 
Q 2772 3150 2772 3378 
Q 2772 3750 2511 3984 
Q 2250 4219 1831 4219 
Q 1534 4219 1204 4116 
Q 875 4013 500 3803 
L 500 4441 
Q 881 4594 1212 4672 
Q 1544 4750 1819 4750 
Q 2544 4750 2975 4387 
Q 3406 4025 3406 3419 
Q 3406 3131 3298 2873 
Q 3191 2616 2906 2266 
Q 2828 2175 2409 1742 
Q 1991 1309 1228 531 
z
" transform="scale(0.015625)"/>
       </defs>
       <use xlink:href="#DejaVuSans-30"/>
       <use xlink:href="#DejaVuSans-2e" x="63.623047"/>
       <use xlink:href="#DejaVuSans-30" x="95.410156"/>
       <use xlink:href="#DejaVuSans-32" x="159.033203"/>
      </g>
     </g>
    </g>
    <g id="xtick_2">
     <g id="line2d_2">
      <g>
       <use xlink:href="#mff1ea3f221" x="162.468425" y="309.6" style="stroke: #000000; stroke-width: 0.8"/>
      </g>
     </g>
     <g id="text_2">
      <!-- 0.04 -->
      <g transform="translate(151.335613 324.198437) scale(0.1 -0.1)">
       <defs>
        <path id="DejaVuSans-34" d="M 2419 4116 
L 825 1625 
L 2419 1625 
L 2419 4116 
z
M 2253 4666 
L 3047 4666 
L 3047 1625 
L 3713 1625 
L 3713 1100 
L 3047 1100 
L 3047 0 
L 2419 0 
L 2419 1100 
L 313 1100 
L 313 1709 
L 2253 4666 
z
" transform="scale(0.015625)"/>
       </defs>
       <use xlink:href="#DejaVuSans-30"/>
       <use xlink:href="#DejaVuSans-2e" x="63.623047"/>
       <use xlink:href="#DejaVuSans-30" x="95.410156"/>
       <use xlink:href="#DejaVuSans-34" x="159.033203"/>
      </g>
     </g>
    </g>
    <g id="xtick_3">
     <g id="line2d_3">
      <g>
       <use xlink:href="#mff1ea3f221" x="239.767127" y="309.6" style="stroke: #000000; stroke-width: 0.8"/>
      </g>
     </g>
     <g id="text_3">
      <!-- 0.06 -->
      <g transform="translate(228.634314 324.198437) scale(0.1 -0.1)">
       <defs>
        <path id="DejaVuSans-36" d="M 2113 2584 
Q 1688 2584 1439 2293 
Q 1191 2003 1191 1497 
Q 1191 994 1439 701 
Q 1688 409 2113 409 
Q 2538 409 2786 701 
Q 3034 994 3034 1497 
Q 3034 2003 2786 2293 
Q 2538 2584 2113 2584 
z
M 3366 4563 
L 3366 3988 
Q 3128 4100 2886 4159 
Q 2644 4219 2406 4219 
Q 1781 4219 1451 3797 
Q 1122 3375 1075 2522 
Q 1259 2794 1537 2939 
Q 1816 3084 2150 3084 
Q 2853 3084 3261 2657 
Q 3669 2231 3669 1497 
Q 3669 778 3244 343 
Q 2819 -91 2113 -91 
Q 1303 -91 875 529 
Q 447 1150 447 2328 
Q 447 3434 972 4092 
Q 1497 4750 2381 4750 
Q 2619 4750 2861 4703 
Q 3103 4656 3366 4563 
z
" transform="scale(0.015625)"/>
       </defs>
       <use xlink:href="#DejaVuSans-30"/>
       <use xlink:href="#DejaVuSans-2e" x="63.623047"/>
       <use xlink:href="#DejaVuSans-30" x="95.410156"/>
       <use xlink:href="#DejaVuSans-36" x="159.033203"/>
      </g>
     </g>
    </g>
    <g id="xtick_4">
     <g id="line2d_4">
      <g>
       <use xlink:href="#mff1ea3f221" x="317.065828" y="309.6" style="stroke: #000000; stroke-width: 0.8"/>
      </g>
     </g>
     <g id="text_4">
      <!-- 0.08 -->
      <g transform="translate(305.933015 324.198437) scale(0.1 -0.1)">
       <defs>
        <path id="DejaVuSans-38" d="M 2034 2216 
Q 1584 2216 1326 1975 
Q 1069 1734 1069 1313 
Q 1069 891 1326 650 
Q 1584 409 2034 409 
Q 2484 409 2743 651 
Q 3003 894 3003 1313 
Q 3003 1734 2745 1975 
Q 2488 2216 2034 2216 
z
M 1403 2484 
Q 997 2584 770 2862 
Q 544 3141 544 3541 
Q 544 4100 942 4425 
Q 1341 4750 2034 4750 
Q 2731 4750 3128 4425 
Q 3525 4100 3525 3541 
Q 3525 3141 3298 2862 
Q 3072 2584 2669 2484 
Q 3125 2378 3379 2068 
Q 3634 1759 3634 1313 
Q 3634 634 3220 271 
Q 2806 -91 2034 -91 
Q 1263 -91 848 271 
Q 434 634 434 1313 
Q 434 1759 690 2068 
Q 947 2378 1403 2484 
z
M 1172 3481 
Q 1172 3119 1398 2916 
Q 1625 2713 2034 2713 
Q 2441 2713 2670 2916 
Q 2900 3119 2900 3481 
Q 2900 3844 2670 4047 
Q 2441 4250 2034 4250 
Q 1625 4250 1398 4047 
Q 1172 3844 1172 3481 
z
" transform="scale(0.015625)"/>
       </defs>
       <use xlink:href="#DejaVuSans-30"/>
       <use xlink:href="#DejaVuSans-2e" x="63.623047"/>
       <use xlink:href="#DejaVuSans-30" x="95.410156"/>
       <use xlink:href="#DejaVuSans-38" x="159.033203"/>
      </g>
     </g>
    </g>
    <g id="xtick_5">
     <g id="line2d_5">
      <g>
       <use xlink:href="#mff1ea3f221" x="394.364529" y="309.6" style="stroke: #000000; stroke-width: 0.8"/>
      </g>
     </g>
     <g id="text_5">
      <!-- 0.10 -->
      <g transform="translate(383.231717 324.198437) scale(0.1 -0.1)">
       <defs>
        <path id="DejaVuSans-31" d="M 794 531 
L 1825 531 
L 1825 4091 
L 703 3866 
L 703 4441 
L 1819 4666 
L 2450 4666 
L 2450 531 
L 3481 531 
L 3481 0 
L 794 0 
L 794 531 
z
" transform="scale(0.015625)"/>
       </defs>
       <use xlink:href="#DejaVuSans-30"/>
       <use xlink:href="#DejaVuSans-2e" x="63.623047"/>
       <use xlink:href="#DejaVuSans-31" x="95.410156"/>
       <use xlink:href="#DejaVuSans-30" x="159.033203"/>
      </g>
     </g>
    </g>
    <g id="text_6">
     <!-- Codon -->
     <g transform="translate(233.476339 337.876562) scale(0.1 -0.1)">
      <defs>
       <path id="DejaVuSans-43" d="M 4122 4306 
L 4122 3641 
Q 3803 3938 3442 4084 
Q 3081 4231 2675 4231 
Q 1875 4231 1450 3742 
Q 1025 3253 1025 2328 
Q 1025 1406 1450 917 
Q 1875 428 2675 428 
Q 3081 428 3442 575 
Q 3803 722 4122 1019 
L 4122 359 
Q 3791 134 3420 21 
Q 3050 -91 2638 -91 
Q 1578 -91 968 557 
Q 359 1206 359 2328 
Q 359 3453 968 4101 
Q 1578 4750 2638 4750 
Q 3056 4750 3426 4639 
Q 3797 4528 4122 4306 
z
" transform="scale(0.015625)"/>
       <path id="DejaVuSans-6f" d="M 1959 3097 
Q 1497 3097 1228 2736 
Q 959 2375 959 1747 
Q 959 1119 1226 758 
Q 1494 397 1959 397 
Q 2419 397 2687 759 
Q 2956 1122 2956 1747 
Q 2956 2369 2687 2733 
Q 2419 3097 1959 3097 
z
M 1959 3584 
Q 2709 3584 3137 3096 
Q 3566 2609 3566 1747 
Q 3566 888 3137 398 
Q 2709 -91 1959 -91 
Q 1206 -91 779 398 
Q 353 888 353 1747 
Q 353 2609 779 3096 
Q 1206 3584 1959 3584 
z
" transform="scale(0.015625)"/>
       <path id="DejaVuSans-64" d="M 2906 2969 
L 2906 4863 
L 3481 4863 
L 3481 0 
L 2906 0 
L 2906 525 
Q 2725 213 2448 61 
Q 2172 -91 1784 -91 
Q 1150 -91 751 415 
Q 353 922 353 1747 
Q 353 2572 751 3078 
Q 1150 3584 1784 3584 
Q 2172 3584 2448 3432 
Q 2725 3281 2906 2969 
z
M 947 1747 
Q 947 1113 1208 752 
Q 1469 391 1925 391 
Q 2381 391 2643 752 
Q 2906 1113 2906 1747 
Q 2906 2381 2643 2742 
Q 2381 3103 1925 3103 
Q 1469 3103 1208 2742 
Q 947 2381 947 1747 
z
" transform="scale(0.015625)"/>
       <path id="DejaVuSans-6e" d="M 3513 2113 
L 3513 0 
L 2938 0 
L 2938 2094 
Q 2938 2591 2744 2837 
Q 2550 3084 2163 3084 
Q 1697 3084 1428 2787 
Q 1159 2491 1159 1978 
L 1159 0 
L 581 0 
L 581 3500 
L 1159 3500 
L 1159 2956 
Q 1366 3272 1645 3428 
Q 1925 3584 2291 3584 
Q 2894 3584 3203 3211 
Q 3513 2838 3513 2113 
z
" transform="scale(0.015625)"/>
      </defs>
      <use xlink:href="#DejaVuSans-43"/>
      <use xlink:href="#DejaVuSans-6f" x="69.824219"/>
      <use xlink:href="#DejaVuSans-64" x="131.005859"/>
      <use xlink:href="#DejaVuSans-6f" x="194.482422"/>
      <use xlink:href="#DejaVuSans-6e" x="255.664062"/>
     </g>
    </g>
   </g>
   <g id="matplotlib.axis_2">
    <g id="ytick_1">
     <g id="line2d_6">
      <defs>
       <path id="mff20f707df" d="M 0 0 
L -3.5 0 
" style="stroke: #000000; stroke-width: 0.8"/>
      </defs>
      <g>
       <use xlink:href="#mff20f707df" x="50.14375" y="273.174692" style="stroke: #000000; stroke-width: 0.8"/>
      </g>
     </g>
     <g id="text_7">
      <!-- 0.02 -->
      <g transform="translate(20.878125 276.973911) scale(0.1 -0.1)">
       <use xlink:href="#DejaVuSans-30"/>
       <use xlink:href="#DejaVuSans-2e" x="63.623047"/>
       <use xlink:href="#DejaVuSans-30" x="95.410156"/>
       <use xlink:href="#DejaVuSans-32" x="159.033203"/>
      </g>
     </g>
    </g>
    <g id="ytick_2">
     <g id="line2d_7">
      <g>
       <use xlink:href="#mff20f707df" x="50.14375" y="234.95676" style="stroke: #000000; stroke-width: 0.8"/>
      </g>
     </g>
     <g id="text_8">
      <!-- 0.04 -->
      <g transform="translate(20.878125 238.755979) scale(0.1 -0.1)">
       <use xlink:href="#DejaVuSans-30"/>
       <use xlink:href="#DejaVuSans-2e" x="63.623047"/>
       <use xlink:href="#DejaVuSans-30" x="95.410156"/>
       <use xlink:href="#DejaVuSans-34" x="159.033203"/>
      </g>
     </g>
    </g>
    <g id="ytick_3">
     <g id="line2d_8">
      <g>
       <use xlink:href="#mff20f707df" x="50.14375" y="196.738829" style="stroke: #000000; stroke-width: 0.8"/>
      </g>
     </g>
     <g id="text_9">
      <!-- 0.06 -->
      <g transform="translate(20.878125 200.538047) scale(0.1 -0.1)">
       <use xlink:href="#DejaVuSans-30"/>
       <use xlink:href="#DejaVuSans-2e" x="63.623047"/>
       <use xlink:href="#DejaVuSans-30" x="95.410156"/>
       <use xlink:href="#DejaVuSans-36" x="159.033203"/>
      </g>
     </g>
    </g>
    <g id="ytick_4">
     <g id="line2d_9">
      <g>
       <use xlink:href="#mff20f707df" x="50.14375" y="158.520897" style="stroke: #000000; stroke-width: 0.8"/>
      </g>
     </g>
     <g id="text_10">
      <!-- 0.08 -->
      <g transform="translate(20.878125 162.320116) scale(0.1 -0.1)">
       <use xlink:href="#DejaVuSans-30"/>
       <use xlink:href="#DejaVuSans-2e" x="63.623047"/>
       <use xlink:href="#DejaVuSans-30" x="95.410156"/>
       <use xlink:href="#DejaVuSans-38" x="159.033203"/>
      </g>
     </g>
    </g>
    <g id="ytick_5">
     <g id="line2d_10">
      <g>
       <use xlink:href="#mff20f707df" x="50.14375" y="120.302965" style="stroke: #000000; stroke-width: 0.8"/>
      </g>
     </g>
     <g id="text_11">
      <!-- 0.10 -->
      <g transform="translate(20.878125 124.102184) scale(0.1 -0.1)">
       <use xlink:href="#DejaVuSans-30"/>
       <use xlink:href="#DejaVuSans-2e" x="63.623047"/>
       <use xlink:href="#DejaVuSans-31" x="95.410156"/>
       <use xlink:href="#DejaVuSans-30" x="159.033203"/>
      </g>
     </g>
    </g>
    <g id="ytick_6">
     <g id="line2d_11">
      <g>
       <use xlink:href="#mff20f707df" x="50.14375" y="82.085034" style="stroke: #000000; stroke-width: 0.8"/>
      </g>
     </g>
     <g id="text_12">
      <!-- 0.12 -->
      <g transform="translate(20.878125 85.884252) scale(0.1 -0.1)">
       <use xlink:href="#DejaVuSans-30"/>
       <use xlink:href="#DejaVuSans-2e" x="63.623047"/>
       <use xlink:href="#DejaVuSans-31" x="95.410156"/>
       <use xlink:href="#DejaVuSans-32" x="159.033203"/>
      </g>
     </g>
    </g>
    <g id="text_13">
     <!-- Amino acid frequency -->
     <g transform="translate(14.798438 238.139062) rotate(-90) scale(0.1 -0.1)">
      <defs>
       <path id="DejaVuSans-41" d="M 2188 4044 
L 1331 1722 
L 3047 1722 
L 2188 4044 
z
M 1831 4666 
L 2547 4666 
L 4325 0 
L 3669 0 
L 3244 1197 
L 1141 1197 
L 716 0 
L 50 0 
L 1831 4666 
z
" transform="scale(0.015625)"/>
       <path id="DejaVuSans-6d" d="M 3328 2828 
Q 3544 3216 3844 3400 
Q 4144 3584 4550 3584 
Q 5097 3584 5394 3201 
Q 5691 2819 5691 2113 
L 5691 0 
L 5113 0 
L 5113 2094 
Q 5113 2597 4934 2840 
Q 4756 3084 4391 3084 
Q 3944 3084 3684 2787 
Q 3425 2491 3425 1978 
L 3425 0 
L 2847 0 
L 2847 2094 
Q 2847 2600 2669 2842 
Q 2491 3084 2119 3084 
Q 1678 3084 1418 2786 
Q 1159 2488 1159 1978 
L 1159 0 
L 581 0 
L 581 3500 
L 1159 3500 
L 1159 2956 
Q 1356 3278 1631 3431 
Q 1906 3584 2284 3584 
Q 2666 3584 2933 3390 
Q 3200 3197 3328 2828 
z
" transform="scale(0.015625)"/>
       <path id="DejaVuSans-69" d="M 603 3500 
L 1178 3500 
L 1178 0 
L 603 0 
L 603 3500 
z
M 603 4863 
L 1178 4863 
L 1178 4134 
L 603 4134 
L 603 4863 
z
" transform="scale(0.015625)"/>
       <path id="DejaVuSans-20" transform="scale(0.015625)"/>
       <path id="DejaVuSans-61" d="M 2194 1759 
Q 1497 1759 1228 1600 
Q 959 1441 959 1056 
Q 959 750 1161 570 
Q 1363 391 1709 391 
Q 2188 391 2477 730 
Q 2766 1069 2766 1631 
L 2766 1759 
L 2194 1759 
z
M 3341 1997 
L 3341 0 
L 2766 0 
L 2766 531 
Q 2569 213 2275 61 
Q 1981 -91 1556 -91 
Q 1019 -91 701 211 
Q 384 513 384 1019 
Q 384 1609 779 1909 
Q 1175 2209 1959 2209 
L 2766 2209 
L 2766 2266 
Q 2766 2663 2505 2880 
Q 2244 3097 1772 3097 
Q 1472 3097 1187 3025 
Q 903 2953 641 2809 
L 641 3341 
Q 956 3463 1253 3523 
Q 1550 3584 1831 3584 
Q 2591 3584 2966 3190 
Q 3341 2797 3341 1997 
z
" transform="scale(0.015625)"/>
       <path id="DejaVuSans-63" d="M 3122 3366 
L 3122 2828 
Q 2878 2963 2633 3030 
Q 2388 3097 2138 3097 
Q 1578 3097 1268 2742 
Q 959 2388 959 1747 
Q 959 1106 1268 751 
Q 1578 397 2138 397 
Q 2388 397 2633 464 
Q 2878 531 3122 666 
L 3122 134 
Q 2881 22 2623 -34 
Q 2366 -91 2075 -91 
Q 1284 -91 818 406 
Q 353 903 353 1747 
Q 353 2603 823 3093 
Q 1294 3584 2113 3584 
Q 2378 3584 2631 3529 
Q 2884 3475 3122 3366 
z
" transform="scale(0.015625)"/>
       <path id="DejaVuSans-66" d="M 2375 4863 
L 2375 4384 
L 1825 4384 
Q 1516 4384 1395 4259 
Q 1275 4134 1275 3809 
L 1275 3500 
L 2222 3500 
L 2222 3053 
L 1275 3053 
L 1275 0 
L 697 0 
L 697 3053 
L 147 3053 
L 147 3500 
L 697 3500 
L 697 3744 
Q 697 4328 969 4595 
Q 1241 4863 1831 4863 
L 2375 4863 
z
" transform="scale(0.015625)"/>
       <path id="DejaVuSans-72" d="M 2631 2963 
Q 2534 3019 2420 3045 
Q 2306 3072 2169 3072 
Q 1681 3072 1420 2755 
Q 1159 2438 1159 1844 
L 1159 0 
L 581 0 
L 581 3500 
L 1159 3500 
L 1159 2956 
Q 1341 3275 1631 3429 
Q 1922 3584 2338 3584 
Q 2397 3584 2469 3576 
Q 2541 3569 2628 3553 
L 2631 2963 
z
" transform="scale(0.015625)"/>
       <path id="DejaVuSans-65" d="M 3597 1894 
L 3597 1613 
L 953 1613 
Q 991 1019 1311 708 
Q 1631 397 2203 397 
Q 2534 397 2845 478 
Q 3156 559 3463 722 
L 3463 178 
Q 3153 47 2828 -22 
Q 2503 -91 2169 -91 
Q 1331 -91 842 396 
Q 353 884 353 1716 
Q 353 2575 817 3079 
Q 1281 3584 2069 3584 
Q 2775 3584 3186 3129 
Q 3597 2675 3597 1894 
z
M 3022 2063 
Q 3016 2534 2758 2815 
Q 2500 3097 2075 3097 
Q 1594 3097 1305 2825 
Q 1016 2553 972 2059 
L 3022 2063 
z
" transform="scale(0.015625)"/>
       <path id="DejaVuSans-71" d="M 947 1747 
Q 947 1113 1208 752 
Q 1469 391 1925 391 
Q 2381 391 2643 752 
Q 2906 1113 2906 1747 
Q 2906 2381 2643 2742 
Q 2381 3103 1925 3103 
Q 1469 3103 1208 2742 
Q 947 2381 947 1747 
z
M 2906 525 
Q 2725 213 2448 61 
Q 2172 -91 1784 -91 
Q 1150 -91 751 415 
Q 353 922 353 1747 
Q 353 2572 751 3078 
Q 1150 3584 1784 3584 
Q 2172 3584 2448 3432 
Q 2725 3281 2906 2969 
L 2906 3500 
L 3481 3500 
L 3481 -1331 
L 2906 -1331 
L 2906 525 
z
" transform="scale(0.015625)"/>
       <path id="DejaVuSans-75" d="M 544 1381 
L 544 3500 
L 1119 3500 
L 1119 1403 
Q 1119 906 1312 657 
Q 1506 409 1894 409 
Q 2359 409 2629 706 
Q 2900 1003 2900 1516 
L 2900 3500 
L 3475 3500 
L 3475 0 
L 2900 0 
L 2900 538 
Q 2691 219 2414 64 
Q 2138 -91 1772 -91 
Q 1169 -91 856 284 
Q 544 659 544 1381 
z
M 1991 3584 
L 1991 3584 
z
" transform="scale(0.015625)"/>
       <path id="DejaVuSans-79" d="M 2059 -325 
Q 1816 -950 1584 -1140 
Q 1353 -1331 966 -1331 
L 506 -1331 
L 506 -850 
L 844 -850 
Q 1081 -850 1212 -737 
Q 1344 -625 1503 -206 
L 1606 56 
L 191 3500 
L 800 3500 
L 1894 763 
L 2988 3500 
L 3597 3500 
L 2059 -325 
z
" transform="scale(0.015625)"/>
      </defs>
      <use xlink:href="#DejaVuSans-41"/>
      <use xlink:href="#DejaVuSans-6d" x="68.408203"/>
      <use xlink:href="#DejaVuSans-69" x="165.820312"/>
      <use xlink:href="#DejaVuSans-6e" x="193.603516"/>
      <use xlink:href="#DejaVuSans-6f" x="256.982422"/>
      <use xlink:href="#DejaVuSans-20" x="318.164062"/>
      <use xlink:href="#DejaVuSans-61" x="349.951172"/>
      <use xlink:href="#DejaVuSans-63" x="411.230469"/>
      <use xlink:href="#DejaVuSans-69" x="466.210938"/>
      <use xlink:href="#DejaVuSans-64" x="493.994141"/>
      <use xlink:href="#DejaVuSans-20" x="557.470703"/>
      <use xlink:href="#DejaVuSans-66" x="589.257812"/>
      <use xlink:href="#DejaVuSans-72" x="624.462891"/>
      <use xlink:href="#DejaVuSans-65" x="663.326172"/>
      <use xlink:href="#DejaVuSans-71" x="724.849609"/>
      <use xlink:href="#DejaVuSans-75" x="788.326172"/>
      <use xlink:href="#DejaVuSans-65" x="851.705078"/>
      <use xlink:href="#DejaVuSans-6e" x="913.228516"/>
      <use xlink:href="#DejaVuSans-63" x="976.607422"/>
      <use xlink:href="#DejaVuSans-79" x="1031.587891"/>
     </g>
    </g>
   </g>
   <g id="line2d_12">
    <path d="M 68.260633 250.882767 
L 71.92061 249.901376 
L 75.580586 248.919986 
L 79.240562 247.938595 
L 82.900539 246.957205 
L 86.560515 245.975815 
L 90.220491 244.994424 
L 93.880468 244.013034 
L 97.540444 243.031643 
L 101.200421 242.050253 
L 104.860397 241.068862 
L 108.520373 240.087472 
L 112.18035 239.106081 
L 115.840326 238.124691 
L 119.500303 237.1433 
L 123.160279 236.16191 
L 126.820255 235.180519 
L 130.480232 234.199129 
L 134.140208 233.217738 
L 137.800184 232.236348 
L 141.460161 231.254957 
L 145.120137 230.273567 
L 148.780114 229.292177 
L 152.44009 228.310786 
L 156.100066 227.329396 
L 159.760043 226.348005 
L 163.420019 225.366615 
L 167.079996 224.385224 
L 170.739972 223.403834 
L 174.399948 222.422443 
L 178.059925 221.441053 
L 181.719901 220.459662 
L 185.379878 219.478272 
L 189.039854 218.496881 
L 192.69983 217.515491 
L 196.359807 216.5341 
L 200.019783 215.55271 
L 203.679759 214.571319 
L 207.339736 213.589929 
L 210.999712 212.608539 
L 214.659689 211.627148 
L 218.319665 210.645758 
L 221.979641 209.664367 
L 225.639618 208.682977 
L 229.299594 207.701586 
L 232.959571 206.720196 
L 236.619547 205.738805 
L 240.279523 204.757415 
L 243.9395 203.776024 
L 247.599476 202.794634 
L 251.259452 201.813243 
L 254.919429 200.831853 
L 258.579405 199.850462 
L 262.239382 198.869072 
L 265.899358 197.887682 
L 269.559334 196.906291 
L 273.219311 195.924901 
L 276.879287 194.94351 
L 280.539264 193.96212 
L 284.19924 192.980729 
L 287.859216 191.999339 
L 291.519193 191.017948 
L 295.179169 190.036558 
L 298.839146 189.055167 
L 302.499122 188.073777 
L 306.159098 187.092386 
L 309.819075 186.110996 
L 313.479051 185.129605 
L 317.139027 184.148215 
L 320.799004 183.166824 
L 324.45898 182.185434 
L 328.118957 181.204044 
L 331.778933 180.222653 
L 335.438909 179.241263 
L 339.098886 178.259872 
L 342.758862 177.278482 
L 346.418839 176.297091 
L 350.078815 175.315701 
L 353.738791 174.33431 
L 357.398768 173.35292 
L 361.058744 172.371529 
L 364.71872 171.390139 
L 368.378697 170.408748 
L 372.038673 169.427358 
L 375.69865 168.445967 
L 379.358626 167.464577 
L 383.018602 166.483186 
L 386.678579 165.501796 
L 390.338555 164.520406 
L 393.998532 163.539015 
L 397.658508 162.557625 
L 401.318484 161.576234 
L 404.978461 160.594844 
L 408.638437 159.613453 
L 412.298414 158.632063 
L 415.95839 157.650672 
L 419.618366 156.669282 
L 423.278343 155.687891 
L 426.938319 154.706501 
L 430.598295 153.72511 
" clip-path="url(#pc56b51546d)" style="fill: none; stroke: #ffa500; stroke-width: 2.25; stroke-linecap: square"/>
   </g>
   <g id="patch_3">
    <path d="M 50.14375 309.6 
L 50.14375 57.6 
" style="fill: none; stroke: #000000; stroke-width: 0.8; stroke-linejoin: miter; stroke-linecap: square"/>
   </g>
   <g id="patch_4">
    <path d="M 448.715179 309.6 
L 448.715179 57.6 
" style="fill: none; stroke: #000000; stroke-width: 0.8; stroke-linejoin: miter; stroke-linecap: square"/>
   </g>
   <g id="patch_5">
    <path d="M 50.14375 309.6 
L 448.715179 309.6 
" style="fill: none; stroke: #000000; stroke-width: 0.8; stroke-linejoin: miter; stroke-linecap: square"/>
   </g>
   <g id="patch_6">
    <path d="M 50.14375 57.6 
L 448.715179 57.6 
" style="fill: none; stroke: #000000; stroke-width: 0.8; stroke-linejoin: miter; stroke-linecap: square"/>
   </g>
  </g>
  <g id="axes_2">
   <g id="patch_7">
    <path d="M 488.572321 309.6 
L 887.14375 309.6 
L 887.14375 57.6 
L 488.572321 57.6 
z
" style="fill: #ffffff"/>
   </g>
   <g id="PathCollection_2">
    <g clip-path="url(#pf9b9a62c4a)">
     <use xlink:href="#mcdbf73249d" x="506.689205" y="265.059914" style="fill: #1f77b4; fill-opacity: 0.8; stroke: #1f77b4; stroke-opacity: 0.8"/>
     <use xlink:href="#mcdbf73249d" x="506.689205" y="298.145455" style="fill: #1f77b4; fill-opacity: 0.8; stroke: #1f77b4; stroke-opacity: 0.8"/>
     <use xlink:href="#mcdbf73249d" x="567.078815" y="296.217338" style="fill: #1f77b4; fill-opacity: 0.8; stroke: #1f77b4; stroke-opacity: 0.8"/>
     <use xlink:href="#mcdbf73249d" x="567.078815" y="187.85724" style="fill: #1f77b4; fill-opacity: 0.8; stroke: #1f77b4; stroke-opacity: 0.8"/>
     <use xlink:href="#mcdbf73249d" x="567.078815" y="154.099703" style="fill: #1f77b4; fill-opacity: 0.8; stroke: #1f77b4; stroke-opacity: 0.8"/>
     <use xlink:href="#mcdbf73249d" x="567.078815" y="252.392577" style="fill: #1f77b4; fill-opacity: 0.8; stroke: #1f77b4; stroke-opacity: 0.8"/>
     <use xlink:href="#mcdbf73249d" x="567.078815" y="277.555098" style="fill: #1f77b4; fill-opacity: 0.8; stroke: #1f77b4; stroke-opacity: 0.8"/>
     <use xlink:href="#mcdbf73249d" x="567.078815" y="189.800379" style="fill: #1f77b4; fill-opacity: 0.8; stroke: #1f77b4; stroke-opacity: 0.8"/>
     <use xlink:href="#mcdbf73249d" x="567.078815" y="246.637329" style="fill: #1f77b4; fill-opacity: 0.8; stroke: #1f77b4; stroke-opacity: 0.8"/>
     <use xlink:href="#mcdbf73249d" x="567.078815" y="269.962934" style="fill: #1f77b4; fill-opacity: 0.8; stroke: #1f77b4; stroke-opacity: 0.8"/>
     <use xlink:href="#mcdbf73249d" x="567.078815" y="247.951169" style="fill: #1f77b4; fill-opacity: 0.8; stroke: #1f77b4; stroke-opacity: 0.8"/>
     <use xlink:href="#mcdbf73249d" x="627.468425" y="167.99899" style="fill: #1f77b4; fill-opacity: 0.8; stroke: #1f77b4; stroke-opacity: 0.8"/>
     <use xlink:href="#mcdbf73249d" x="687.858036" y="170.579001" style="fill: #1f77b4; fill-opacity: 0.8; stroke: #1f77b4; stroke-opacity: 0.8"/>
     <use xlink:href="#mcdbf73249d" x="687.858036" y="162.406399" style="fill: #1f77b4; fill-opacity: 0.8; stroke: #1f77b4; stroke-opacity: 0.8"/>
     <use xlink:href="#mcdbf73249d" x="687.858036" y="229.927274" style="fill: #1f77b4; fill-opacity: 0.8; stroke: #1f77b4; stroke-opacity: 0.8"/>
     <use xlink:href="#mcdbf73249d" x="687.858036" y="218.397927" style="fill: #1f77b4; fill-opacity: 0.8; stroke: #1f77b4; stroke-opacity: 0.8"/>
     <use xlink:href="#mcdbf73249d" x="687.858036" y="145.540449" style="fill: #1f77b4; fill-opacity: 0.8; stroke: #1f77b4; stroke-opacity: 0.8"/>
     <use xlink:href="#mcdbf73249d" x="748.247646" y="140.587244" style="fill: #1f77b4; fill-opacity: 0.8; stroke: #1f77b4; stroke-opacity: 0.8"/>
     <use xlink:href="#mcdbf73249d" x="808.637256" y="197.250608" style="fill: #1f77b4; fill-opacity: 0.8; stroke: #1f77b4; stroke-opacity: 0.8"/>
     <use xlink:href="#mcdbf73249d" x="869.026867" y="206.35869" style="fill: #1f77b4; fill-opacity: 0.8; stroke: #1f77b4; stroke-opacity: 0.8"/>
    </g>
   </g>
   <g id="PolyCollection_2">
    <path d="M 506.689205 215.952249 
L 506.689205 283.950826 
L 510.349181 282.087281 
L 514.009157 279.755821 
L 517.669134 278.078532 
L 521.32911 276.547652 
L 524.989086 274.485398 
L 528.649063 272.680853 
L 532.309039 270.522839 
L 535.969016 268.781908 
L 539.628992 267.129589 
L 543.288968 265.369475 
L 546.948945 263.691903 
L 550.608921 261.706125 
L 554.268898 259.874746 
L 557.928874 258.204823 
L 561.58885 256.664747 
L 565.248827 255.123105 
L 568.908803 253.265462 
L 572.56878 251.741906 
L 576.228756 250.185379 
L 579.888732 248.707147 
L 583.548709 246.99333 
L 587.208685 246.13551 
L 590.868661 245.326652 
L 594.528638 243.685191 
L 598.188614 242.009781 
L 601.848591 241.028292 
L 605.508567 239.614763 
L 609.168543 238.273037 
L 612.82852 237.287191 
L 616.488496 236.442502 
L 620.148473 235.370299 
L 623.808449 234.326584 
L 627.468425 233.335039 
L 631.128402 232.313464 
L 634.788378 231.367386 
L 638.448354 230.738828 
L 642.108331 229.950122 
L 645.768307 228.988325 
L 649.428284 228.026529 
L 653.08826 227.100491 
L 656.748236 226.342003 
L 660.408213 225.734543 
L 664.068189 224.653109 
L 667.728166 223.609226 
L 671.388142 222.689038 
L 675.048118 221.900651 
L 678.708095 220.951973 
L 682.368071 220.255602 
L 686.028048 219.364546 
L 689.688024 218.547421 
L 693.348 217.753905 
L 697.007977 216.990843 
L 700.667953 216.180215 
L 704.327929 215.489239 
L 707.987906 214.755125 
L 711.647882 214.039182 
L 715.307859 213.328674 
L 718.967835 212.610094 
L 722.627811 211.801618 
L 726.287788 210.832383 
L 729.947764 209.946133 
L 733.607741 209.375054 
L 737.267717 208.742569 
L 740.927693 208.144947 
L 744.58767 207.517681 
L 748.247646 206.834264 
L 751.907622 206.069834 
L 755.567599 205.466673 
L 759.227575 204.858392 
L 762.887552 204.240552 
L 766.547528 203.324637 
L 770.207504 202.608518 
L 773.867481 201.886915 
L 777.527457 201.182737 
L 781.187434 200.519102 
L 784.84741 199.98721 
L 788.507386 199.45699 
L 792.167363 198.631283 
L 795.827339 197.963645 
L 799.487316 197.351422 
L 803.147292 196.868682 
L 806.807268 196.419685 
L 810.467245 196.047628 
L 814.127221 195.662072 
L 817.787197 195.079393 
L 821.447174 194.546523 
L 825.10715 194.019009 
L 828.767127 193.393748 
L 832.427103 192.952167 
L 836.087079 192.321856 
L 839.747056 191.686063 
L 843.407032 191.050269 
L 847.067009 190.414476 
L 850.726985 189.778211 
L 854.386961 189.385813 
L 858.046938 188.623298 
L 861.706914 187.883785 
L 865.36689 187.492013 
L 869.026867 187.134383 
L 869.026867 69.054545 
L 869.026867 69.054545 
L 865.36689 71.244803 
L 861.706914 73.418958 
L 858.046938 75.52277 
L 854.386961 77.520737 
L 850.726985 79.518705 
L 847.067009 81.516672 
L 843.407032 83.51464 
L 839.747056 85.512607 
L 836.087079 87.510575 
L 832.427103 89.508542 
L 828.767127 91.50651 
L 825.10715 93.505745 
L 821.447174 95.509743 
L 817.787197 97.513741 
L 814.127221 99.517739 
L 810.467245 101.521737 
L 806.807268 103.525736 
L 803.147292 105.661309 
L 799.487316 107.89844 
L 795.827339 110.135571 
L 792.167363 112.166958 
L 788.507386 114.16203 
L 784.84741 116.15852 
L 781.187434 118.160659 
L 777.527457 120.162798 
L 773.867481 122.40747 
L 770.207504 124.55018 
L 766.547528 126.513609 
L 762.887552 128.477038 
L 759.227575 130.440467 
L 755.567599 132.407727 
L 751.907622 134.453772 
L 748.247646 136.617633 
L 744.58767 138.781493 
L 740.927693 140.945354 
L 737.267717 142.800462 
L 733.607741 144.589623 
L 729.947764 146.503121 
L 726.287788 148.354451 
L 722.627811 150.206134 
L 718.967835 152.260598 
L 715.307859 154.272122 
L 711.647882 156.280491 
L 707.987906 158.481704 
L 704.327929 160.094849 
L 700.667953 162.042476 
L 697.007977 163.906463 
L 693.348 165.814008 
L 689.688024 167.806505 
L 686.028048 169.945076 
L 682.368071 171.927432 
L 678.708095 173.996392 
L 675.048118 175.966638 
L 671.388142 177.979019 
L 667.728166 179.578564 
L 664.068189 181.475536 
L 660.408213 183.435738 
L 656.748236 185.249894 
L 653.08826 186.720151 
L 649.428284 188.250945 
L 645.768307 189.586179 
L 642.108331 191.129396 
L 638.448354 192.437591 
L 634.788378 193.906719 
L 631.128402 195.051314 
L 627.468425 196.582676 
L 623.808449 197.620307 
L 620.148473 198.45729 
L 616.488496 199.439944 
L 612.82852 200.133355 
L 609.168543 200.563627 
L 605.508567 201.26416 
L 601.848591 201.958729 
L 598.188614 202.232384 
L 594.528638 203.079002 
L 590.868661 204.070382 
L 587.208685 204.676512 
L 583.548709 205.400221 
L 579.888732 205.721673 
L 576.228756 206.334983 
L 572.56878 206.576234 
L 568.908803 206.844018 
L 565.248827 207.217943 
L 561.58885 207.874896 
L 557.928874 208.377613 
L 554.268898 208.831784 
L 550.608921 209.777912 
L 546.948945 210.125156 
L 543.288968 210.483373 
L 539.628992 210.913105 
L 535.969016 211.6844 
L 532.309039 212.455694 
L 528.649063 213.062703 
L 524.989086 213.468162 
L 521.32911 213.881457 
L 517.669134 214.754983 
L 514.009157 215.152508 
L 510.349181 215.550033 
L 506.689205 215.952249 
z
" clip-path="url(#pf9b9a62c4a)" style="fill: #ffa500; fill-opacity: 0.15"/>
   </g>
   <g id="matplotlib.axis_3">
    <g id="xtick_6">
     <g id="line2d_13">
      <g>
       <use xlink:href="#mff1ea3f221" x="519.974919" y="309.6" style="stroke: #000000; stroke-width: 0.8"/>
      </g>
     </g>
     <g id="text_14">
      <!-- 0.02 -->
      <g transform="translate(508.842106 324.198437) scale(0.1 -0.1)">
       <use xlink:href="#DejaVuSans-30"/>
       <use xlink:href="#DejaVuSans-2e" x="63.623047"/>
       <use xlink:href="#DejaVuSans-30" x="95.410156"/>
       <use xlink:href="#DejaVuSans-32" x="159.033203"/>
      </g>
     </g>
    </g>
    <g id="xtick_7">
     <g id="line2d_14">
      <g>
       <use xlink:href="#mff1ea3f221" x="593.650244" y="309.6" style="stroke: #000000; stroke-width: 0.8"/>
      </g>
     </g>
     <g id="text_15">
      <!-- 0.04 -->
      <g transform="translate(582.517431 324.198437) scale(0.1 -0.1)">
       <use xlink:href="#DejaVuSans-30"/>
       <use xlink:href="#DejaVuSans-2e" x="63.623047"/>
       <use xlink:href="#DejaVuSans-30" x="95.410156"/>
       <use xlink:href="#DejaVuSans-34" x="159.033203"/>
      </g>
     </g>
    </g>
    <g id="xtick_8">
     <g id="line2d_15">
      <g>
       <use xlink:href="#mff1ea3f221" x="667.325568" y="309.6" style="stroke: #000000; stroke-width: 0.8"/>
      </g>
     </g>
     <g id="text_16">
      <!-- 0.06 -->
      <g transform="translate(656.192756 324.198437) scale(0.1 -0.1)">
       <use xlink:href="#DejaVuSans-30"/>
       <use xlink:href="#DejaVuSans-2e" x="63.623047"/>
       <use xlink:href="#DejaVuSans-30" x="95.410156"/>
       <use xlink:href="#DejaVuSans-36" x="159.033203"/>
      </g>
     </g>
    </g>
    <g id="xtick_9">
     <g id="line2d_16">
      <g>
       <use xlink:href="#mff1ea3f221" x="741.000893" y="309.6" style="stroke: #000000; stroke-width: 0.8"/>
      </g>
     </g>
     <g id="text_17">
      <!-- 0.08 -->
      <g transform="translate(729.86808 324.198437) scale(0.1 -0.1)">
       <use xlink:href="#DejaVuSans-30"/>
       <use xlink:href="#DejaVuSans-2e" x="63.623047"/>
       <use xlink:href="#DejaVuSans-30" x="95.410156"/>
       <use xlink:href="#DejaVuSans-38" x="159.033203"/>
      </g>
     </g>
    </g>
    <g id="xtick_10">
     <g id="line2d_17">
      <g>
       <use xlink:href="#mff1ea3f221" x="814.676218" y="309.6" style="stroke: #000000; stroke-width: 0.8"/>
      </g>
     </g>
     <g id="text_18">
      <!-- 0.10 -->
      <g transform="translate(803.543405 324.198437) scale(0.1 -0.1)">
       <use xlink:href="#DejaVuSans-30"/>
       <use xlink:href="#DejaVuSans-2e" x="63.623047"/>
       <use xlink:href="#DejaVuSans-31" x="95.410156"/>
       <use xlink:href="#DejaVuSans-30" x="159.033203"/>
      </g>
     </g>
    </g>
    <g id="text_19">
     <!-- Codon+Cost -->
     <g transform="translate(656.599442 337.876562) scale(0.1 -0.1)">
      <defs>
       <path id="DejaVuSans-2b" d="M 2944 4013 
L 2944 2272 
L 4684 2272 
L 4684 1741 
L 2944 1741 
L 2944 0 
L 2419 0 
L 2419 1741 
L 678 1741 
L 678 2272 
L 2419 2272 
L 2419 4013 
L 2944 4013 
z
" transform="scale(0.015625)"/>
       <path id="DejaVuSans-73" d="M 2834 3397 
L 2834 2853 
Q 2591 2978 2328 3040 
Q 2066 3103 1784 3103 
Q 1356 3103 1142 2972 
Q 928 2841 928 2578 
Q 928 2378 1081 2264 
Q 1234 2150 1697 2047 
L 1894 2003 
Q 2506 1872 2764 1633 
Q 3022 1394 3022 966 
Q 3022 478 2636 193 
Q 2250 -91 1575 -91 
Q 1294 -91 989 -36 
Q 684 19 347 128 
L 347 722 
Q 666 556 975 473 
Q 1284 391 1588 391 
Q 1994 391 2212 530 
Q 2431 669 2431 922 
Q 2431 1156 2273 1281 
Q 2116 1406 1581 1522 
L 1381 1569 
Q 847 1681 609 1914 
Q 372 2147 372 2553 
Q 372 3047 722 3315 
Q 1072 3584 1716 3584 
Q 2034 3584 2315 3537 
Q 2597 3491 2834 3397 
z
" transform="scale(0.015625)"/>
       <path id="DejaVuSans-74" d="M 1172 4494 
L 1172 3500 
L 2356 3500 
L 2356 3053 
L 1172 3053 
L 1172 1153 
Q 1172 725 1289 603 
Q 1406 481 1766 481 
L 2356 481 
L 2356 0 
L 1766 0 
Q 1100 0 847 248 
Q 594 497 594 1153 
L 594 3053 
L 172 3053 
L 172 3500 
L 594 3500 
L 594 4494 
L 1172 4494 
z
" transform="scale(0.015625)"/>
      </defs>
      <use xlink:href="#DejaVuSans-43"/>
      <use xlink:href="#DejaVuSans-6f" x="69.824219"/>
      <use xlink:href="#DejaVuSans-64" x="131.005859"/>
      <use xlink:href="#DejaVuSans-6f" x="194.482422"/>
      <use xlink:href="#DejaVuSans-6e" x="255.664062"/>
      <use xlink:href="#DejaVuSans-2b" x="319.042969"/>
      <use xlink:href="#DejaVuSans-43" x="402.832031"/>
      <use xlink:href="#DejaVuSans-6f" x="472.65625"/>
      <use xlink:href="#DejaVuSans-73" x="533.837891"/>
      <use xlink:href="#DejaVuSans-74" x="585.9375"/>
     </g>
    </g>
   </g>
   <g id="matplotlib.axis_4">
    <g id="ytick_7">
     <g id="line2d_18">
      <g>
       <use xlink:href="#mff20f707df" x="488.572321" y="272.72438" style="stroke: #000000; stroke-width: 0.8"/>
      </g>
     </g>
     <g id="text_20">
      <!-- 0.02 -->
      <g transform="translate(459.306696 276.523599) scale(0.1 -0.1)">
       <use xlink:href="#DejaVuSans-30"/>
       <use xlink:href="#DejaVuSans-2e" x="63.623047"/>
       <use xlink:href="#DejaVuSans-30" x="95.410156"/>
       <use xlink:href="#DejaVuSans-32" x="159.033203"/>
      </g>
     </g>
    </g>
    <g id="ytick_8">
     <g id="line2d_19">
      <g>
       <use xlink:href="#mff20f707df" x="488.572321" y="233.817243" style="stroke: #000000; stroke-width: 0.8"/>
      </g>
     </g>
     <g id="text_21">
      <!-- 0.04 -->
      <g transform="translate(459.306696 237.616462) scale(0.1 -0.1)">
       <use xlink:href="#DejaVuSans-30"/>
       <use xlink:href="#DejaVuSans-2e" x="63.623047"/>
       <use xlink:href="#DejaVuSans-30" x="95.410156"/>
       <use xlink:href="#DejaVuSans-34" x="159.033203"/>
      </g>
     </g>
    </g>
    <g id="ytick_9">
     <g id="line2d_20">
      <g>
       <use xlink:href="#mff20f707df" x="488.572321" y="194.910106" style="stroke: #000000; stroke-width: 0.8"/>
      </g>
     </g>
     <g id="text_22">
      <!-- 0.06 -->
      <g transform="translate(459.306696 198.709325) scale(0.1 -0.1)">
       <use xlink:href="#DejaVuSans-30"/>
       <use xlink:href="#DejaVuSans-2e" x="63.623047"/>
       <use xlink:href="#DejaVuSans-30" x="95.410156"/>
       <use xlink:href="#DejaVuSans-36" x="159.033203"/>
      </g>
     </g>
    </g>
    <g id="ytick_10">
     <g id="line2d_21">
      <g>
       <use xlink:href="#mff20f707df" x="488.572321" y="156.002969" style="stroke: #000000; stroke-width: 0.8"/>
      </g>
     </g>
     <g id="text_23">
      <!-- 0.08 -->
      <g transform="translate(459.306696 159.802187) scale(0.1 -0.1)">
       <use xlink:href="#DejaVuSans-30"/>
       <use xlink:href="#DejaVuSans-2e" x="63.623047"/>
       <use xlink:href="#DejaVuSans-30" x="95.410156"/>
       <use xlink:href="#DejaVuSans-38" x="159.033203"/>
      </g>
     </g>
    </g>
    <g id="ytick_11">
     <g id="line2d_22">
      <g>
       <use xlink:href="#mff20f707df" x="488.572321" y="117.095832" style="stroke: #000000; stroke-width: 0.8"/>
      </g>
     </g>
     <g id="text_24">
      <!-- 0.10 -->
      <g transform="translate(459.306696 120.89505) scale(0.1 -0.1)">
       <use xlink:href="#DejaVuSans-30"/>
       <use xlink:href="#DejaVuSans-2e" x="63.623047"/>
       <use xlink:href="#DejaVuSans-31" x="95.410156"/>
       <use xlink:href="#DejaVuSans-30" x="159.033203"/>
      </g>
     </g>
    </g>
    <g id="ytick_12">
     <g id="line2d_23">
      <g>
       <use xlink:href="#mff20f707df" x="488.572321" y="78.188694" style="stroke: #000000; stroke-width: 0.8"/>
      </g>
     </g>
     <g id="text_25">
      <!-- 0.12 -->
      <g transform="translate(459.306696 81.987913) scale(0.1 -0.1)">
       <use xlink:href="#DejaVuSans-30"/>
       <use xlink:href="#DejaVuSans-2e" x="63.623047"/>
       <use xlink:href="#DejaVuSans-31" x="95.410156"/>
       <use xlink:href="#DejaVuSans-32" x="159.033203"/>
      </g>
     </g>
    </g>
   </g>
   <g id="line2d_24">
    <path d="M 506.689205 250.030452 
L 510.349181 249.031364 
L 514.009157 248.032275 
L 517.669134 247.033187 
L 521.32911 246.034098 
L 524.989086 245.03501 
L 528.649063 244.035922 
L 532.309039 243.036833 
L 535.969016 242.037745 
L 539.628992 241.038656 
L 543.288968 240.039568 
L 546.948945 239.040479 
L 550.608921 238.041391 
L 554.268898 237.042303 
L 557.928874 236.043214 
L 561.58885 235.044126 
L 565.248827 234.045037 
L 568.908803 233.045949 
L 572.56878 232.04686 
L 576.228756 231.047772 
L 579.888732 230.048684 
L 583.548709 229.049595 
L 587.208685 228.050507 
L 590.868661 227.051418 
L 594.528638 226.05233 
L 598.188614 225.053241 
L 601.848591 224.054153 
L 605.508567 223.055064 
L 609.168543 222.055976 
L 612.82852 221.056888 
L 616.488496 220.057799 
L 620.148473 219.058711 
L 623.808449 218.059622 
L 627.468425 217.060534 
L 631.128402 216.061445 
L 634.788378 215.062357 
L 638.448354 214.063269 
L 642.108331 213.06418 
L 645.768307 212.065092 
L 649.428284 211.066003 
L 653.08826 210.066915 
L 656.748236 209.067826 
L 660.408213 208.068738 
L 664.068189 207.069649 
L 667.728166 206.070561 
L 671.388142 205.071473 
L 675.048118 204.072384 
L 678.708095 203.073296 
L 682.368071 202.074207 
L 686.028048 201.075119 
L 689.688024 200.07603 
L 693.348 199.076942 
L 697.007977 198.077854 
L 700.667953 197.078765 
L 704.327929 196.079677 
L 707.987906 195.080588 
L 711.647882 194.0815 
L 715.307859 193.082411 
L 718.967835 192.083323 
L 722.627811 191.084235 
L 726.287788 190.085146 
L 729.947764 189.086058 
L 733.607741 188.086969 
L 737.267717 187.087881 
L 740.927693 186.088792 
L 744.58767 185.089704 
L 748.247646 184.090615 
L 751.907622 183.091527 
L 755.567599 182.092439 
L 759.227575 181.09335 
L 762.887552 180.094262 
L 766.547528 179.095173 
L 770.207504 178.096085 
L 773.867481 177.096996 
L 777.527457 176.097908 
L 781.187434 175.09882 
L 784.84741 174.099731 
L 788.507386 173.100643 
L 792.167363 172.101554 
L 795.827339 171.102466 
L 799.487316 170.103377 
L 803.147292 169.104289 
L 806.807268 168.1052 
L 810.467245 167.106112 
L 814.127221 166.107024 
L 817.787197 165.107935 
L 821.447174 164.108847 
L 825.10715 163.109758 
L 828.767127 162.11067 
L 832.427103 161.111581 
L 836.087079 160.112493 
L 839.747056 159.113405 
L 843.407032 158.114316 
L 847.067009 157.115228 
L 850.726985 156.116139 
L 854.386961 155.117051 
L 858.046938 154.117962 
L 861.706914 153.118874 
L 865.36689 152.119785 
L 869.026867 151.120697 
" clip-path="url(#pf9b9a62c4a)" style="fill: none; stroke: #ffa500; stroke-width: 2.25; stroke-linecap: square"/>
   </g>
   <g id="patch_8">
    <path d="M 488.572321 309.6 
L 488.572321 57.6 
" style="fill: none; stroke: #000000; stroke-width: 0.8; stroke-linejoin: miter; stroke-linecap: square"/>
   </g>
   <g id="patch_9">
    <path d="M 887.14375 309.6 
L 887.14375 57.6 
" style="fill: none; stroke: #000000; stroke-width: 0.8; stroke-linejoin: miter; stroke-linecap: square"/>
   </g>
   <g id="patch_10">
    <path d="M 488.572321 309.6 
L 887.14375 309.6 
" style="fill: none; stroke: #000000; stroke-width: 0.8; stroke-linejoin: miter; stroke-linecap: square"/>
   </g>
   <g id="patch_11">
    <path d="M 488.572321 57.6 
L 887.14375 57.6 
" style="fill: none; stroke: #000000; stroke-width: 0.8; stroke-linejoin: miter; stroke-linecap: square"/>
   </g>
  </g>
  <g id="axes_3">
   <g id="patch_12">
    <path d="M 50.14375 612 
L 448.715179 612 
L 448.715179 360 
L 50.14375 360 
z
" style="fill: #ffffff"/>
   </g>
   <g id="PathCollection_3">
    <g clip-path="url(#pc083a7887f)">
     <use xlink:href="#mcdbf73249d" x="69.662953" y="566.04149" style="fill: #1f77b4; fill-opacity: 0.8; stroke: #1f77b4; stroke-opacity: 0.8"/>
     <use xlink:href="#mcdbf73249d" x="68.260633" y="600.545455" style="fill: #1f77b4; fill-opacity: 0.8; stroke: #1f77b4; stroke-opacity: 0.8"/>
     <use xlink:href="#mcdbf73249d" x="129.351404" y="598.534677" style="fill: #1f77b4; fill-opacity: 0.8; stroke: #1f77b4; stroke-opacity: 0.8"/>
     <use xlink:href="#mcdbf73249d" x="129.351404" y="485.529027" style="fill: #1f77b4; fill-opacity: 0.8; stroke: #1f77b4; stroke-opacity: 0.8"/>
     <use xlink:href="#mcdbf73249d" x="129.351404" y="450.324256" style="fill: #1f77b4; fill-opacity: 0.8; stroke: #1f77b4; stroke-opacity: 0.8"/>
     <use xlink:href="#mcdbf73249d" x="144.371778" y="552.831086" style="fill: #1f77b4; fill-opacity: 0.8; stroke: #1f77b4; stroke-opacity: 0.8"/>
     <use xlink:href="#mcdbf73249d" x="129.351404" y="579.07236" style="fill: #1f77b4; fill-opacity: 0.8; stroke: #1f77b4; stroke-opacity: 0.8"/>
     <use xlink:href="#mcdbf73249d" x="144.371778" y="487.555471" style="fill: #1f77b4; fill-opacity: 0.8; stroke: #1f77b4; stroke-opacity: 0.8"/>
     <use xlink:href="#mcdbf73249d" x="144.371778" y="546.829103" style="fill: #1f77b4; fill-opacity: 0.8; stroke: #1f77b4; stroke-opacity: 0.8"/>
     <use xlink:href="#mcdbf73249d" x="129.351404" y="571.154709" style="fill: #1f77b4; fill-opacity: 0.8; stroke: #1f77b4; stroke-opacity: 0.8"/>
     <use xlink:href="#mcdbf73249d" x="144.371778" y="548.199268" style="fill: #1f77b4; fill-opacity: 0.8; stroke: #1f77b4; stroke-opacity: 0.8"/>
     <use xlink:href="#mcdbf73249d" x="219.080604" y="464.819425" style="fill: #1f77b4; fill-opacity: 0.8; stroke: #1f77b4; stroke-opacity: 0.8"/>
     <use xlink:href="#mcdbf73249d" x="266.637424" y="467.510045" style="fill: #1f77b4; fill-opacity: 0.8; stroke: #1f77b4; stroke-opacity: 0.8"/>
     <use xlink:href="#mcdbf73249d" x="266.637424" y="458.987072" style="fill: #1f77b4; fill-opacity: 0.8; stroke: #1f77b4; stroke-opacity: 0.8"/>
     <use xlink:href="#mcdbf73249d" x="266.637424" y="529.402663" style="fill: #1f77b4; fill-opacity: 0.8; stroke: #1f77b4; stroke-opacity: 0.8"/>
     <use xlink:href="#mcdbf73249d" x="250.130624" y="517.379037" style="fill: #1f77b4; fill-opacity: 0.8; stroke: #1f77b4; stroke-opacity: 0.8"/>
     <use xlink:href="#mcdbf73249d" x="250.130624" y="441.398054" style="fill: #1f77b4; fill-opacity: 0.8; stroke: #1f77b4; stroke-opacity: 0.8"/>
     <use xlink:href="#mcdbf73249d" x="326.24177" y="436.232499" style="fill: #1f77b4; fill-opacity: 0.8; stroke: #1f77b4; stroke-opacity: 0.8"/>
     <use xlink:href="#mcdbf73249d" x="387.416645" y="495.325102" style="fill: #1f77b4; fill-opacity: 0.8; stroke: #1f77b4; stroke-opacity: 0.8"/>
     <use xlink:href="#mcdbf73249d" x="430.598295" y="504.82366" style="fill: #1f77b4; fill-opacity: 0.8; stroke: #1f77b4; stroke-opacity: 0.8"/>
    </g>
   </g>
   <g id="PolyCollection_3">
    <path d="M 68.260633 517.906079 
L 68.260633 588.441343 
L 71.92061 586.752138 
L 75.580586 584.900633 
L 79.240562 582.591314 
L 82.900539 580.3844 
L 86.560515 578.41236 
L 90.220491 576.444868 
L 93.880468 574.638025 
L 97.540444 572.973392 
L 101.200421 570.603161 
L 104.860397 568.559116 
L 108.520373 567.454689 
L 112.18035 565.915889 
L 115.840326 563.995121 
L 119.500303 562.612075 
L 123.160279 560.978808 
L 126.820255 559.744866 
L 130.480232 558.300407 
L 134.140208 556.697631 
L 137.800184 554.865585 
L 141.460161 553.186512 
L 145.120137 551.980124 
L 148.780114 550.37697 
L 152.44009 549.546254 
L 156.100066 548.04846 
L 159.760043 546.556369 
L 163.420019 544.858697 
L 167.079996 543.506058 
L 170.739972 542.222542 
L 174.399948 540.793134 
L 178.059925 539.638135 
L 181.719901 538.096442 
L 185.379878 537.065035 
L 189.039854 536.205859 
L 192.69983 535.024852 
L 196.359807 533.843976 
L 200.019783 532.772862 
L 203.679759 531.847922 
L 207.339736 530.90636 
L 210.999712 529.70083 
L 214.659689 528.937411 
L 218.319665 527.960849 
L 221.979641 526.980282 
L 225.639618 526.07379 
L 229.299594 525.37331 
L 232.959571 524.362155 
L 236.619547 523.392744 
L 240.279523 522.551025 
L 243.9395 521.752705 
L 247.599476 520.700574 
L 251.259452 519.779424 
L 254.919429 519.096944 
L 258.579405 518.430425 
L 262.239382 517.762665 
L 265.899358 517.084716 
L 269.559334 516.383311 
L 273.219311 515.741591 
L 276.879287 515.014906 
L 280.539264 514.17833 
L 284.19924 513.307975 
L 287.859216 512.654568 
L 291.519193 511.644551 
L 295.179169 510.83021 
L 298.839146 510.347411 
L 302.499122 509.495892 
L 306.159098 508.518919 
L 309.819075 507.537782 
L 313.479051 506.585958 
L 317.139027 506.138741 
L 320.799004 505.691524 
L 324.45898 505.02503 
L 328.118957 504.334388 
L 331.778933 503.962105 
L 335.438909 503.116711 
L 339.098886 502.129653 
L 342.758862 501.737184 
L 346.418839 501.35075 
L 350.078815 500.875837 
L 353.738791 500.121573 
L 357.398768 499.362041 
L 361.058744 498.763829 
L 364.71872 498.267115 
L 368.378697 497.956704 
L 372.038673 497.519749 
L 375.69865 496.813727 
L 379.358626 495.988791 
L 383.018602 495.029606 
L 386.678579 494.098077 
L 390.338555 493.677247 
L 393.998532 493.256416 
L 397.658508 492.572308 
L 401.318484 491.875926 
L 404.978461 491.171183 
L 408.638437 490.556735 
L 412.298414 490.094303 
L 415.95839 489.456097 
L 419.618366 489.023639 
L 423.278343 488.384263 
L 426.938319 487.717564 
L 430.598295 487.162716 
L 430.598295 371.454545 
L 430.598295 371.454545 
L 426.938319 373.505976 
L 423.278343 375.554793 
L 419.618366 377.605845 
L 415.95839 379.659125 
L 412.298414 381.702488 
L 408.638437 383.82175 
L 404.978461 385.94011 
L 401.318484 388.058471 
L 397.658508 390.176831 
L 393.998532 392.29666 
L 390.338555 394.418409 
L 386.678579 396.540158 
L 383.018602 398.661907 
L 379.358626 400.783656 
L 375.69865 402.963332 
L 372.038673 405.128822 
L 368.378697 407.318944 
L 364.71872 409.442383 
L 361.058744 411.37846 
L 357.398768 413.5 
L 353.738791 415.62154 
L 350.078815 417.684811 
L 346.418839 419.844974 
L 342.758862 421.945742 
L 339.098886 423.968598 
L 335.438909 425.993242 
L 331.778933 428.017887 
L 328.118957 430.00176 
L 324.45898 431.81154 
L 320.799004 433.621319 
L 317.139027 435.51103 
L 313.479051 437.67996 
L 309.819075 439.854517 
L 306.159098 442.004112 
L 302.499122 443.854239 
L 298.839146 445.526285 
L 295.179169 447.446879 
L 291.519193 449.381062 
L 287.859216 450.969588 
L 284.19924 453.162358 
L 280.539264 455.557892 
L 276.879287 457.615631 
L 273.219311 459.717721 
L 269.559334 461.835467 
L 265.899358 463.769671 
L 262.239382 465.822136 
L 258.579405 467.869888 
L 254.919429 469.429015 
L 251.259452 471.313135 
L 247.599476 473.218724 
L 243.9395 474.977629 
L 240.279523 476.612391 
L 236.619547 478.033164 
L 232.959571 480.157492 
L 229.299594 481.672342 
L 225.639618 483.333502 
L 221.979641 483.889649 
L 218.319665 485.498858 
L 214.659689 487.31827 
L 210.999712 488.422749 
L 207.339736 489.982626 
L 203.679759 491.236856 
L 200.019783 492.135681 
L 196.359807 492.567415 
L 192.69983 493.500831 
L 189.039854 495.088685 
L 185.379878 496.691856 
L 181.719901 497.284885 
L 178.059925 498.152803 
L 174.399948 498.893007 
L 170.739972 499.91888 
L 167.079996 501.034783 
L 163.420019 501.782938 
L 159.760043 502.030863 
L 156.100066 502.68366 
L 152.44009 503.596464 
L 148.780114 504.865917 
L 145.120137 506.551772 
L 141.460161 507.162822 
L 137.800184 507.698843 
L 134.140208 508.23726 
L 130.480232 508.727383 
L 126.820255 509.193519 
L 123.160279 509.659655 
L 119.500303 510.468899 
L 115.840326 511.044055 
L 112.18035 511.456208 
L 108.520373 512.133366 
L 104.860397 512.80929 
L 101.200421 513.368972 
L 97.540444 514.18983 
L 93.880468 514.912067 
L 90.220491 515.328488 
L 86.560515 515.752065 
L 82.900539 516.172328 
L 79.240562 516.58326 
L 75.580586 516.994192 
L 71.92061 517.410595 
L 68.260633 517.906079 
z
" clip-path="url(#pc083a7887f)" style="fill: #ffa500; fill-opacity: 0.15"/>
   </g>
   <g id="matplotlib.axis_5">
    <g id="xtick_11">
     <g id="line2d_25">
      <g>
       <use xlink:href="#mff1ea3f221" x="89.594688" y="612" style="stroke: #000000; stroke-width: 0.8"/>
      </g>
     </g>
     <g id="text_26">
      <!-- 0.02 -->
      <g transform="translate(78.461876 626.598437) scale(0.1 -0.1)">
       <use xlink:href="#DejaVuSans-30"/>
       <use xlink:href="#DejaVuSans-2e" x="63.623047"/>
       <use xlink:href="#DejaVuSans-30" x="95.410156"/>
       <use xlink:href="#DejaVuSans-32" x="159.033203"/>
      </g>
     </g>
    </g>
    <g id="xtick_12">
     <g id="line2d_26">
      <g>
       <use xlink:href="#mff1ea3f221" x="170.617193" y="612" style="stroke: #000000; stroke-width: 0.8"/>
      </g>
     </g>
     <g id="text_27">
      <!-- 0.04 -->
      <g transform="translate(159.484381 626.598437) scale(0.1 -0.1)">
       <use xlink:href="#DejaVuSans-30"/>
       <use xlink:href="#DejaVuSans-2e" x="63.623047"/>
       <use xlink:href="#DejaVuSans-30" x="95.410156"/>
       <use xlink:href="#DejaVuSans-34" x="159.033203"/>
      </g>
     </g>
    </g>
    <g id="xtick_13">
     <g id="line2d_27">
      <g>
       <use xlink:href="#mff1ea3f221" x="251.639699" y="612" style="stroke: #000000; stroke-width: 0.8"/>
      </g>
     </g>
     <g id="text_28">
      <!-- 0.06 -->
      <g transform="translate(240.506886 626.598437) scale(0.1 -0.1)">
       <use xlink:href="#DejaVuSans-30"/>
       <use xlink:href="#DejaVuSans-2e" x="63.623047"/>
       <use xlink:href="#DejaVuSans-30" x="95.410156"/>
       <use xlink:href="#DejaVuSans-36" x="159.033203"/>
      </g>
     </g>
    </g>
    <g id="xtick_14">
     <g id="line2d_28">
      <g>
       <use xlink:href="#mff1ea3f221" x="332.662204" y="612" style="stroke: #000000; stroke-width: 0.8"/>
      </g>
     </g>
     <g id="text_29">
      <!-- 0.08 -->
      <g transform="translate(321.529391 626.598437) scale(0.1 -0.1)">
       <use xlink:href="#DejaVuSans-30"/>
       <use xlink:href="#DejaVuSans-2e" x="63.623047"/>
       <use xlink:href="#DejaVuSans-30" x="95.410156"/>
       <use xlink:href="#DejaVuSans-38" x="159.033203"/>
      </g>
     </g>
    </g>
    <g id="xtick_15">
     <g id="line2d_29">
      <g>
       <use xlink:href="#mff1ea3f221" x="413.684709" y="612" style="stroke: #000000; stroke-width: 0.8"/>
      </g>
     </g>
     <g id="text_30">
      <!-- 0.10 -->
      <g transform="translate(402.551897 626.598437) scale(0.1 -0.1)">
       <use xlink:href="#DejaVuSans-30"/>
       <use xlink:href="#DejaVuSans-2e" x="63.623047"/>
       <use xlink:href="#DejaVuSans-31" x="95.410156"/>
       <use xlink:href="#DejaVuSans-30" x="159.033203"/>
      </g>
     </g>
    </g>
    <g id="text_31">
     <!-- Codon+GC -->
     <g transform="translate(221.920871 640.276562) scale(0.1 -0.1)">
      <defs>
       <path id="DejaVuSans-47" d="M 3809 666 
L 3809 1919 
L 2778 1919 
L 2778 2438 
L 4434 2438 
L 4434 434 
Q 4069 175 3628 42 
Q 3188 -91 2688 -91 
Q 1594 -91 976 548 
Q 359 1188 359 2328 
Q 359 3472 976 4111 
Q 1594 4750 2688 4750 
Q 3144 4750 3555 4637 
Q 3966 4525 4313 4306 
L 4313 3634 
Q 3963 3931 3569 4081 
Q 3175 4231 2741 4231 
Q 1884 4231 1454 3753 
Q 1025 3275 1025 2328 
Q 1025 1384 1454 906 
Q 1884 428 2741 428 
Q 3075 428 3337 486 
Q 3600 544 3809 666 
z
" transform="scale(0.015625)"/>
      </defs>
      <use xlink:href="#DejaVuSans-43"/>
      <use xlink:href="#DejaVuSans-6f" x="69.824219"/>
      <use xlink:href="#DejaVuSans-64" x="131.005859"/>
      <use xlink:href="#DejaVuSans-6f" x="194.482422"/>
      <use xlink:href="#DejaVuSans-6e" x="255.664062"/>
      <use xlink:href="#DejaVuSans-2b" x="319.042969"/>
      <use xlink:href="#DejaVuSans-47" x="402.832031"/>
      <use xlink:href="#DejaVuSans-43" x="480.322266"/>
     </g>
    </g>
   </g>
   <g id="matplotlib.axis_6">
    <g id="ytick_13">
     <g id="line2d_30">
      <g>
       <use xlink:href="#mff20f707df" x="50.14375" y="574.034542" style="stroke: #000000; stroke-width: 0.8"/>
      </g>
     </g>
     <g id="text_32">
      <!-- 0.02 -->
      <g transform="translate(20.878125 577.833761) scale(0.1 -0.1)">
       <use xlink:href="#DejaVuSans-30"/>
       <use xlink:href="#DejaVuSans-2e" x="63.623047"/>
       <use xlink:href="#DejaVuSans-30" x="95.410156"/>
       <use xlink:href="#DejaVuSans-32" x="159.033203"/>
      </g>
     </g>
    </g>
    <g id="ytick_14">
     <g id="line2d_31">
      <g>
       <use xlink:href="#mff20f707df" x="50.14375" y="533.459401" style="stroke: #000000; stroke-width: 0.8"/>
      </g>
     </g>
     <g id="text_33">
      <!-- 0.04 -->
      <g transform="translate(20.878125 537.25862) scale(0.1 -0.1)">
       <use xlink:href="#DejaVuSans-30"/>
       <use xlink:href="#DejaVuSans-2e" x="63.623047"/>
       <use xlink:href="#DejaVuSans-30" x="95.410156"/>
       <use xlink:href="#DejaVuSans-34" x="159.033203"/>
      </g>
     </g>
    </g>
    <g id="ytick_15">
     <g id="line2d_32">
      <g>
       <use xlink:href="#mff20f707df" x="50.14375" y="492.884259" style="stroke: #000000; stroke-width: 0.8"/>
      </g>
     </g>
     <g id="text_34">
      <!-- 0.06 -->
      <g transform="translate(20.878125 496.683478) scale(0.1 -0.1)">
       <use xlink:href="#DejaVuSans-30"/>
       <use xlink:href="#DejaVuSans-2e" x="63.623047"/>
       <use xlink:href="#DejaVuSans-30" x="95.410156"/>
       <use xlink:href="#DejaVuSans-36" x="159.033203"/>
      </g>
     </g>
    </g>
    <g id="ytick_16">
     <g id="line2d_33">
      <g>
       <use xlink:href="#mff20f707df" x="50.14375" y="452.309117" style="stroke: #000000; stroke-width: 0.8"/>
      </g>
     </g>
     <g id="text_35">
      <!-- 0.08 -->
      <g transform="translate(20.878125 456.108336) scale(0.1 -0.1)">
       <use xlink:href="#DejaVuSans-30"/>
       <use xlink:href="#DejaVuSans-2e" x="63.623047"/>
       <use xlink:href="#DejaVuSans-30" x="95.410156"/>
       <use xlink:href="#DejaVuSans-38" x="159.033203"/>
      </g>
     </g>
    </g>
    <g id="ytick_17">
     <g id="line2d_34">
      <g>
       <use xlink:href="#mff20f707df" x="50.14375" y="411.733976" style="stroke: #000000; stroke-width: 0.8"/>
      </g>
     </g>
     <g id="text_36">
      <!-- 0.10 -->
      <g transform="translate(20.878125 415.533195) scale(0.1 -0.1)">
       <use xlink:href="#DejaVuSans-30"/>
       <use xlink:href="#DejaVuSans-2e" x="63.623047"/>
       <use xlink:href="#DejaVuSans-31" x="95.410156"/>
       <use xlink:href="#DejaVuSans-30" x="159.033203"/>
      </g>
     </g>
    </g>
    <g id="ytick_18">
     <g id="line2d_35">
      <g>
       <use xlink:href="#mff20f707df" x="50.14375" y="371.158834" style="stroke: #000000; stroke-width: 0.8"/>
      </g>
     </g>
     <g id="text_37">
      <!-- 0.12 -->
      <g transform="translate(20.878125 374.958053) scale(0.1 -0.1)">
       <use xlink:href="#DejaVuSans-30"/>
       <use xlink:href="#DejaVuSans-2e" x="63.623047"/>
       <use xlink:href="#DejaVuSans-31" x="95.410156"/>
       <use xlink:href="#DejaVuSans-32" x="159.033203"/>
      </g>
     </g>
    </g>
    <g id="text_38">
     <!-- Amino acid frequency -->
     <g transform="translate(14.798438 540.539062) rotate(-90) scale(0.1 -0.1)">
      <use xlink:href="#DejaVuSans-41"/>
      <use xlink:href="#DejaVuSans-6d" x="68.408203"/>
      <use xlink:href="#DejaVuSans-69" x="165.820312"/>
      <use xlink:href="#DejaVuSans-6e" x="193.603516"/>
      <use xlink:href="#DejaVuSans-6f" x="256.982422"/>
      <use xlink:href="#DejaVuSans-20" x="318.164062"/>
      <use xlink:href="#DejaVuSans-61" x="349.951172"/>
      <use xlink:href="#DejaVuSans-63" x="411.230469"/>
      <use xlink:href="#DejaVuSans-69" x="466.210938"/>
      <use xlink:href="#DejaVuSans-64" x="493.994141"/>
      <use xlink:href="#DejaVuSans-20" x="557.470703"/>
      <use xlink:href="#DejaVuSans-66" x="589.257812"/>
      <use xlink:href="#DejaVuSans-72" x="624.462891"/>
      <use xlink:href="#DejaVuSans-65" x="663.326172"/>
      <use xlink:href="#DejaVuSans-71" x="724.849609"/>
      <use xlink:href="#DejaVuSans-75" x="788.326172"/>
      <use xlink:href="#DejaVuSans-65" x="851.705078"/>
      <use xlink:href="#DejaVuSans-6e" x="913.228516"/>
      <use xlink:href="#DejaVuSans-63" x="976.607422"/>
      <use xlink:href="#DejaVuSans-79" x="1031.587891"/>
     </g>
    </g>
   </g>
   <g id="line2d_36">
    <path d="M 68.260633 553.616606 
L 71.92061 552.557548 
L 75.580586 551.49849 
L 79.240562 550.439432 
L 82.900539 549.380374 
L 86.560515 548.321316 
L 90.220491 547.262258 
L 93.880468 546.2032 
L 97.540444 545.144142 
L 101.200421 544.085084 
L 104.860397 543.026026 
L 108.520373 541.966968 
L 112.18035 540.90791 
L 115.840326 539.848852 
L 119.500303 538.789794 
L 123.160279 537.730736 
L 126.820255 536.671678 
L 130.480232 535.61262 
L 134.140208 534.553562 
L 137.800184 533.494504 
L 141.460161 532.435446 
L 145.120137 531.376388 
L 148.780114 530.31733 
L 152.44009 529.258272 
L 156.100066 528.199214 
L 159.760043 527.140156 
L 163.420019 526.081098 
L 167.079996 525.02204 
L 170.739972 523.962982 
L 174.399948 522.903924 
L 178.059925 521.844866 
L 181.719901 520.785808 
L 185.379878 519.72675 
L 189.039854 518.667692 
L 192.69983 517.608634 
L 196.359807 516.549576 
L 200.019783 515.490518 
L 203.679759 514.43146 
L 207.339736 513.372402 
L 210.999712 512.313344 
L 214.659689 511.254286 
L 218.319665 510.195228 
L 221.979641 509.13617 
L 225.639618 508.077112 
L 229.299594 507.018054 
L 232.959571 505.958996 
L 236.619547 504.899938 
L 240.279523 503.84088 
L 243.9395 502.781822 
L 247.599476 501.722764 
L 251.259452 500.663706 
L 254.919429 499.604648 
L 258.579405 498.54559 
L 262.239382 497.486532 
L 265.899358 496.427474 
L 269.559334 495.368416 
L 273.219311 494.309358 
L 276.879287 493.2503 
L 280.539264 492.191242 
L 284.19924 491.132184 
L 287.859216 490.073126 
L 291.519193 489.014068 
L 295.179169 487.95501 
L 298.839146 486.895952 
L 302.499122 485.836894 
L 306.159098 484.777836 
L 309.819075 483.718778 
L 313.479051 482.65972 
L 317.139027 481.600662 
L 320.799004 480.541604 
L 324.45898 479.482546 
L 328.118957 478.423488 
L 331.778933 477.36443 
L 335.438909 476.305372 
L 339.098886 475.246314 
L 342.758862 474.187256 
L 346.418839 473.128198 
L 350.078815 472.06914 
L 353.738791 471.010082 
L 357.398768 469.951024 
L 361.058744 468.891966 
L 364.71872 467.832908 
L 368.378697 466.77385 
L 372.038673 465.714792 
L 375.69865 464.655734 
L 379.358626 463.596676 
L 383.018602 462.537618 
L 386.678579 461.47856 
L 390.338555 460.419502 
L 393.998532 459.360444 
L 397.658508 458.301386 
L 401.318484 457.242328 
L 404.978461 456.18327 
L 408.638437 455.124212 
L 412.298414 454.065154 
L 415.95839 453.006096 
L 419.618366 451.947038 
L 423.278343 450.88798 
L 426.938319 449.828922 
L 430.598295 448.769864 
" clip-path="url(#pc083a7887f)" style="fill: none; stroke: #ffa500; stroke-width: 2.25; stroke-linecap: square"/>
   </g>
   <g id="patch_13">
    <path d="M 50.14375 612 
L 50.14375 360 
" style="fill: none; stroke: #000000; stroke-width: 0.8; stroke-linejoin: miter; stroke-linecap: square"/>
   </g>
   <g id="patch_14">
    <path d="M 448.715179 612 
L 448.715179 360 
" style="fill: none; stroke: #000000; stroke-width: 0.8; stroke-linejoin: miter; stroke-linecap: square"/>
   </g>
   <g id="patch_15">
    <path d="M 50.14375 612 
L 448.715179 612 
" style="fill: none; stroke: #000000; stroke-width: 0.8; stroke-linejoin: miter; stroke-linecap: square"/>
   </g>
   <g id="patch_16">
    <path d="M 50.14375 360 
L 448.715179 360 
" style="fill: none; stroke: #000000; stroke-width: 0.8; stroke-linejoin: miter; stroke-linecap: square"/>
   </g>
  </g>
  <g id="axes_4">
   <g id="patch_17">
    <path d="M 488.572321 612 
L 887.14375 612 
L 887.14375 360 
L 488.572321 360 
z
" style="fill: #ffffff"/>
   </g>
   <g id="PathCollection_4">
    <g clip-path="url(#p0a962f2c95)">
     <use xlink:href="#mcdbf73249d" x="508.523599" y="565.559678" style="fill: #1f77b4; fill-opacity: 0.8; stroke: #1f77b4; stroke-opacity: 0.8"/>
     <use xlink:href="#mcdbf73249d" x="506.689205" y="600.545455" style="fill: #1f77b4; fill-opacity: 0.8; stroke: #1f77b4; stroke-opacity: 0.8"/>
     <use xlink:href="#mcdbf73249d" x="567.996012" y="598.506599" style="fill: #1f77b4; fill-opacity: 0.8; stroke: #1f77b4; stroke-opacity: 0.8"/>
     <use xlink:href="#mcdbf73249d" x="567.996012" y="483.922942" style="fill: #1f77b4; fill-opacity: 0.8; stroke: #1f77b4; stroke-opacity: 0.8"/>
     <use xlink:href="#mcdbf73249d" x="567.996012" y="448.226573" style="fill: #1f77b4; fill-opacity: 0.8; stroke: #1f77b4; stroke-opacity: 0.8"/>
     <use xlink:href="#mcdbf73249d" x="584.008658" y="552.164805" style="fill: #1f77b4; fill-opacity: 0.8; stroke: #1f77b4; stroke-opacity: 0.8"/>
     <use xlink:href="#mcdbf73249d" x="567.996012" y="578.77251" style="fill: #1f77b4; fill-opacity: 0.8; stroke: #1f77b4; stroke-opacity: 0.8"/>
     <use xlink:href="#mcdbf73249d" x="584.008658" y="485.977683" style="fill: #1f77b4; fill-opacity: 0.8; stroke: #1f77b4; stroke-opacity: 0.8"/>
     <use xlink:href="#mcdbf73249d" x="584.008658" y="546.07901" style="fill: #1f77b4; fill-opacity: 0.8; stroke: #1f77b4; stroke-opacity: 0.8"/>
     <use xlink:href="#mcdbf73249d" x="567.996012" y="570.744298" style="fill: #1f77b4; fill-opacity: 0.8; stroke: #1f77b4; stroke-opacity: 0.8"/>
     <use xlink:href="#mcdbf73249d" x="584.008658" y="547.468308" style="fill: #1f77b4; fill-opacity: 0.8; stroke: #1f77b4; stroke-opacity: 0.8"/>
     <use xlink:href="#mcdbf73249d" x="659.493716" y="462.924153" style="fill: #1f77b4; fill-opacity: 0.8; stroke: #1f77b4; stroke-opacity: 0.8"/>
     <use xlink:href="#mcdbf73249d" x="703.48489" y="465.652344" style="fill: #1f77b4; fill-opacity: 0.8; stroke: #1f77b4; stroke-opacity: 0.8"/>
     <use xlink:href="#mcdbf73249d" x="703.48489" y="457.010357" style="fill: #1f77b4; fill-opacity: 0.8; stroke: #1f77b4; stroke-opacity: 0.8"/>
     <use xlink:href="#mcdbf73249d" x="703.48489" y="528.409228" style="fill: #1f77b4; fill-opacity: 0.8; stroke: #1f77b4; stroke-opacity: 0.8"/>
     <use xlink:href="#mcdbf73249d" x="688.775233" y="516.217704" style="fill: #1f77b4; fill-opacity: 0.8; stroke: #1f77b4; stroke-opacity: 0.8"/>
     <use xlink:href="#mcdbf73249d" x="688.775233" y="439.175726" style="fill: #1f77b4; fill-opacity: 0.8; stroke: #1f77b4; stroke-opacity: 0.8"/>
     <use xlink:href="#mcdbf73249d" x="766.094686" y="433.938039" style="fill: #1f77b4; fill-opacity: 0.8; stroke: #1f77b4; stroke-opacity: 0.8"/>
     <use xlink:href="#mcdbf73249d" x="824.264111" y="493.855809" style="fill: #1f77b4; fill-opacity: 0.8; stroke: #1f77b4; stroke-opacity: 0.8"/>
     <use xlink:href="#mcdbf73249d" x="869.026867" y="503.487005" style="fill: #1f77b4; fill-opacity: 0.8; stroke: #1f77b4; stroke-opacity: 0.8"/>
    </g>
   </g>
   <g id="PolyCollection_4">
    <path d="M 506.689205 514.635991 
L 506.689205 588.376303 
L 510.349181 586.19641 
L 514.009157 584.263496 
L 517.669134 582.330582 
L 521.32911 580.419174 
L 524.989086 578.85836 
L 528.649063 577.421257 
L 532.309039 575.624196 
L 535.969016 574.005964 
L 539.628992 572.213942 
L 543.288968 570.556961 
L 546.948945 569.084081 
L 550.608921 567.517236 
L 554.268898 565.898802 
L 557.928874 563.919913 
L 561.58885 562.0054 
L 565.248827 560.252368 
L 568.908803 558.806336 
L 572.56878 557.285675 
L 576.228756 555.460269 
L 579.888732 553.621364 
L 583.548709 551.689798 
L 587.208685 549.946391 
L 590.868661 548.565247 
L 594.528638 547.575871 
L 598.188614 546.179946 
L 601.848591 544.40949 
L 605.508567 543.28462 
L 609.168543 542.110055 
L 612.82852 540.389994 
L 616.488496 539.184943 
L 620.148473 537.68592 
L 623.808449 536.517516 
L 627.468425 535.0581 
L 631.128402 533.753596 
L 634.788378 532.646232 
L 638.448354 531.694015 
L 642.108331 530.749627 
L 645.768307 529.480178 
L 649.428284 528.338291 
L 653.08826 527.229329 
L 656.748236 526.308146 
L 660.408213 525.44848 
L 664.068189 524.609418 
L 667.728166 523.766091 
L 671.388142 522.921758 
L 675.048118 521.952088 
L 678.708095 520.935429 
L 682.368071 519.711845 
L 686.028048 518.608131 
L 689.688024 517.897025 
L 693.348 517.221167 
L 697.007977 516.143133 
L 700.667953 515.491342 
L 704.327929 514.570651 
L 707.987906 513.78955 
L 711.647882 513.079589 
L 715.307859 512.178024 
L 718.967835 511.335481 
L 722.627811 510.464071 
L 726.287788 509.942773 
L 729.947764 509.148594 
L 733.607741 508.386119 
L 737.267717 507.714666 
L 740.927693 506.877354 
L 744.58767 506.034361 
L 748.247646 505.274031 
L 751.907622 504.693745 
L 755.567599 504.049708 
L 759.227575 503.492538 
L 762.887552 502.580456 
L 766.547528 501.893985 
L 770.207504 501.238793 
L 773.867481 500.494144 
L 777.527457 499.815041 
L 781.187434 499.132565 
L 784.84741 498.441889 
L 788.507386 497.76915 
L 792.167363 497.089049 
L 795.827339 496.408949 
L 799.487316 495.726119 
L 803.147292 495.2234 
L 806.807268 494.673603 
L 810.467245 494.061859 
L 814.127221 493.419615 
L 817.787197 492.789739 
L 821.447174 492.116952 
L 825.10715 491.519774 
L 828.767127 490.904183 
L 832.427103 490.275644 
L 836.087079 489.647105 
L 839.747056 489.018566 
L 843.407032 488.403953 
L 847.067009 487.950522 
L 850.726985 487.555362 
L 854.386961 487.156938 
L 858.046938 486.838373 
L 861.706914 486.362729 
L 865.36689 485.668305 
L 869.026867 485.233665 
L 869.026867 371.454545 
L 869.026867 371.454545 
L 865.36689 373.648652 
L 861.706914 375.848 
L 858.046938 378.047348 
L 854.386961 379.947712 
L 850.726985 381.820296 
L 847.067009 383.692881 
L 843.407032 385.565465 
L 839.747056 387.438049 
L 836.087079 389.398822 
L 832.427103 391.64481 
L 828.767127 393.612736 
L 825.10715 395.405156 
L 821.447174 397.197575 
L 817.787197 398.989994 
L 814.127221 400.782414 
L 810.467245 402.574833 
L 806.807268 404.367252 
L 803.147292 406.321643 
L 799.487316 408.522062 
L 795.827339 410.769654 
L 792.167363 413.084962 
L 788.507386 415.40027 
L 784.84741 417.715578 
L 781.187434 420.030886 
L 777.527457 422.230886 
L 773.867481 423.96457 
L 770.207504 426.125414 
L 766.547528 428.325833 
L 762.887552 430.526252 
L 759.227575 432.693115 
L 755.567599 434.808694 
L 751.907622 437.129212 
L 748.247646 439.327928 
L 744.58767 441.528347 
L 740.927693 443.728766 
L 737.267717 445.618319 
L 733.607741 447.470303 
L 729.947764 449.620053 
L 726.287788 451.779762 
L 722.627811 453.615785 
L 718.967835 455.451807 
L 715.307859 457.287829 
L 711.647882 459.123852 
L 707.987906 460.962974 
L 704.327929 463.354925 
L 700.667953 465.030424 
L 697.007977 467.23275 
L 693.348 469.439223 
L 689.688024 471.645696 
L 686.028048 473.562723 
L 682.368071 475.289415 
L 678.708095 476.773414 
L 675.048118 477.991545 
L 671.388142 479.845926 
L 667.728166 481.112064 
L 664.068189 482.894863 
L 660.408213 484.259352 
L 656.748236 485.673678 
L 653.08826 486.732131 
L 649.428284 488.503949 
L 645.768307 489.839663 
L 642.108331 491.077019 
L 638.448354 491.602864 
L 634.788378 492.973153 
L 631.128402 494.314465 
L 627.468425 495.483951 
L 623.808449 496.905087 
L 620.148473 497.88594 
L 616.488496 498.508203 
L 612.82852 499.283313 
L 609.168543 499.85501 
L 605.508567 500.588933 
L 601.848591 501.45308 
L 598.188614 502.149268 
L 594.528638 503.143679 
L 590.868661 503.834474 
L 587.208685 504.252163 
L 583.548709 504.578093 
L 579.888732 504.909762 
L 576.228756 505.243922 
L 572.56878 505.732576 
L 568.908803 506.223556 
L 565.248827 506.71665 
L 561.58885 507.212612 
L 557.928874 507.716293 
L 554.268898 508.20559 
L 550.608921 508.696139 
L 546.948945 509.191011 
L 543.288968 509.685883 
L 539.628992 510.186946 
L 535.969016 510.849005 
L 532.309039 511.340747 
L 528.649063 511.690005 
L 524.989086 512.169596 
L 521.32911 512.660963 
L 517.669134 513.152329 
L 514.009157 513.644861 
L 510.349181 514.139733 
L 506.689205 514.635991 
z
" clip-path="url(#p0a962f2c95)" style="fill: #ffa500; fill-opacity: 0.15"/>
   </g>
   <g id="matplotlib.axis_7">
    <g id="xtick_16">
     <g id="line2d_37">
      <g>
       <use xlink:href="#mff1ea3f221" x="524.292315" y="612" style="stroke: #000000; stroke-width: 0.8"/>
      </g>
     </g>
     <g id="text_39">
      <!-- 0.02 -->
      <g transform="translate(513.159502 626.598437) scale(0.1 -0.1)">
       <use xlink:href="#DejaVuSans-30"/>
       <use xlink:href="#DejaVuSans-2e" x="63.623047"/>
       <use xlink:href="#DejaVuSans-30" x="95.410156"/>
       <use xlink:href="#DejaVuSans-32" x="159.033203"/>
      </g>
     </g>
    </g>
    <g id="xtick_17">
     <g id="line2d_38">
      <g>
       <use xlink:href="#mff1ea3f221" x="601.367839" y="612" style="stroke: #000000; stroke-width: 0.8"/>
      </g>
     </g>
     <g id="text_40">
      <!-- 0.04 -->
      <g transform="translate(590.235026 626.598437) scale(0.1 -0.1)">
       <use xlink:href="#DejaVuSans-30"/>
       <use xlink:href="#DejaVuSans-2e" x="63.623047"/>
       <use xlink:href="#DejaVuSans-30" x="95.410156"/>
       <use xlink:href="#DejaVuSans-34" x="159.033203"/>
      </g>
     </g>
    </g>
    <g id="xtick_18">
     <g id="line2d_39">
      <g>
       <use xlink:href="#mff1ea3f221" x="678.443362" y="612" style="stroke: #000000; stroke-width: 0.8"/>
      </g>
     </g>
     <g id="text_41">
      <!-- 0.06 -->
      <g transform="translate(667.31055 626.598437) scale(0.1 -0.1)">
       <use xlink:href="#DejaVuSans-30"/>
       <use xlink:href="#DejaVuSans-2e" x="63.623047"/>
       <use xlink:href="#DejaVuSans-30" x="95.410156"/>
       <use xlink:href="#DejaVuSans-36" x="159.033203"/>
      </g>
     </g>
    </g>
    <g id="xtick_19">
     <g id="line2d_40">
      <g>
       <use xlink:href="#mff1ea3f221" x="755.518886" y="612" style="stroke: #000000; stroke-width: 0.8"/>
      </g>
     </g>
     <g id="text_42">
      <!-- 0.08 -->
      <g transform="translate(744.386074 626.598437) scale(0.1 -0.1)">
       <use xlink:href="#DejaVuSans-30"/>
       <use xlink:href="#DejaVuSans-2e" x="63.623047"/>
       <use xlink:href="#DejaVuSans-30" x="95.410156"/>
       <use xlink:href="#DejaVuSans-38" x="159.033203"/>
      </g>
     </g>
    </g>
    <g id="xtick_20">
     <g id="line2d_41">
      <g>
       <use xlink:href="#mff1ea3f221" x="832.59441" y="612" style="stroke: #000000; stroke-width: 0.8"/>
      </g>
     </g>
     <g id="text_43">
      <!-- 0.10 -->
      <g transform="translate(821.461597 626.598437) scale(0.1 -0.1)">
       <use xlink:href="#DejaVuSans-30"/>
       <use xlink:href="#DejaVuSans-2e" x="63.623047"/>
       <use xlink:href="#DejaVuSans-31" x="95.410156"/>
       <use xlink:href="#DejaVuSans-30" x="159.033203"/>
      </g>
     </g>
    </g>
    <g id="text_44">
     <!-- Codon+GC+Cost -->
     <g transform="translate(645.043973 640.276562) scale(0.1 -0.1)">
      <use xlink:href="#DejaVuSans-43"/>
      <use xlink:href="#DejaVuSans-6f" x="69.824219"/>
      <use xlink:href="#DejaVuSans-64" x="131.005859"/>
      <use xlink:href="#DejaVuSans-6f" x="194.482422"/>
      <use xlink:href="#DejaVuSans-6e" x="255.664062"/>
      <use xlink:href="#DejaVuSans-2b" x="319.042969"/>
      <use xlink:href="#DejaVuSans-47" x="402.832031"/>
      <use xlink:href="#DejaVuSans-43" x="480.322266"/>
      <use xlink:href="#DejaVuSans-2b" x="550.146484"/>
      <use xlink:href="#DejaVuSans-43" x="633.935547"/>
      <use xlink:href="#DejaVuSans-6f" x="703.759766"/>
      <use xlink:href="#DejaVuSans-73" x="764.941406"/>
      <use xlink:href="#DejaVuSans-74" x="817.041016"/>
     </g>
    </g>
   </g>
   <g id="matplotlib.axis_8">
    <g id="ytick_19">
     <g id="line2d_42">
      <g>
       <use xlink:href="#mff20f707df" x="488.572321" y="573.664345" style="stroke: #000000; stroke-width: 0.8"/>
      </g>
     </g>
     <g id="text_45">
      <!-- 0.02 -->
      <g transform="translate(459.306696 577.463564) scale(0.1 -0.1)">
       <use xlink:href="#DejaVuSans-30"/>
       <use xlink:href="#DejaVuSans-2e" x="63.623047"/>
       <use xlink:href="#DejaVuSans-30" x="95.410156"/>
       <use xlink:href="#DejaVuSans-32" x="159.033203"/>
      </g>
     </g>
    </g>
    <g id="ytick_20">
     <g id="line2d_43">
      <g>
       <use xlink:href="#mff20f707df" x="488.572321" y="532.522614" style="stroke: #000000; stroke-width: 0.8"/>
      </g>
     </g>
     <g id="text_46">
      <!-- 0.04 -->
      <g transform="translate(459.306696 536.321833) scale(0.1 -0.1)">
       <use xlink:href="#DejaVuSans-30"/>
       <use xlink:href="#DejaVuSans-2e" x="63.623047"/>
       <use xlink:href="#DejaVuSans-30" x="95.410156"/>
       <use xlink:href="#DejaVuSans-34" x="159.033203"/>
      </g>
     </g>
    </g>
    <g id="ytick_21">
     <g id="line2d_44">
      <g>
       <use xlink:href="#mff20f707df" x="488.572321" y="491.380883" style="stroke: #000000; stroke-width: 0.8"/>
      </g>
     </g>
     <g id="text_47">
      <!-- 0.06 -->
      <g transform="translate(459.306696 495.180101) scale(0.1 -0.1)">
       <use xlink:href="#DejaVuSans-30"/>
       <use xlink:href="#DejaVuSans-2e" x="63.623047"/>
       <use xlink:href="#DejaVuSans-30" x="95.410156"/>
       <use xlink:href="#DejaVuSans-36" x="159.033203"/>
      </g>
     </g>
    </g>
    <g id="ytick_22">
     <g id="line2d_45">
      <g>
       <use xlink:href="#mff20f707df" x="488.572321" y="450.239151" style="stroke: #000000; stroke-width: 0.8"/>
      </g>
     </g>
     <g id="text_48">
      <!-- 0.08 -->
      <g transform="translate(459.306696 454.03837) scale(0.1 -0.1)">
       <use xlink:href="#DejaVuSans-30"/>
       <use xlink:href="#DejaVuSans-2e" x="63.623047"/>
       <use xlink:href="#DejaVuSans-30" x="95.410156"/>
       <use xlink:href="#DejaVuSans-38" x="159.033203"/>
      </g>
     </g>
    </g>
    <g id="ytick_23">
     <g id="line2d_46">
      <g>
       <use xlink:href="#mff20f707df" x="488.572321" y="409.09742" style="stroke: #000000; stroke-width: 0.8"/>
      </g>
     </g>
     <g id="text_49">
      <!-- 0.10 -->
      <g transform="translate(459.306696 412.896639) scale(0.1 -0.1)">
       <use xlink:href="#DejaVuSans-30"/>
       <use xlink:href="#DejaVuSans-2e" x="63.623047"/>
       <use xlink:href="#DejaVuSans-31" x="95.410156"/>
       <use xlink:href="#DejaVuSans-30" x="159.033203"/>
      </g>
     </g>
    </g>
    <g id="ytick_24">
     <g id="line2d_47">
      <g>
       <use xlink:href="#mff20f707df" x="488.572321" y="367.955689" style="stroke: #000000; stroke-width: 0.8"/>
      </g>
     </g>
     <g id="text_50">
      <!-- 0.12 -->
      <g transform="translate(459.306696 371.754907) scale(0.1 -0.1)">
       <use xlink:href="#DejaVuSans-30"/>
       <use xlink:href="#DejaVuSans-2e" x="63.623047"/>
       <use xlink:href="#DejaVuSans-31" x="95.410156"/>
       <use xlink:href="#DejaVuSans-32" x="159.033203"/>
      </g>
     </g>
    </g>
   </g>
   <g id="line2d_48">
    <path d="M 506.689205 553.272413 
L 510.349181 552.191575 
L 514.009157 551.110737 
L 517.669134 550.0299 
L 521.32911 548.949062 
L 524.989086 547.868224 
L 528.649063 546.787387 
L 532.309039 545.706549 
L 535.969016 544.625711 
L 539.628992 543.544873 
L 543.288968 542.464036 
L 546.948945 541.383198 
L 550.608921 540.30236 
L 554.268898 539.221522 
L 557.928874 538.140685 
L 561.58885 537.059847 
L 565.248827 535.979009 
L 568.908803 534.898172 
L 572.56878 533.817334 
L 576.228756 532.736496 
L 579.888732 531.655658 
L 583.548709 530.574821 
L 587.208685 529.493983 
L 590.868661 528.413145 
L 594.528638 527.332307 
L 598.188614 526.25147 
L 601.848591 525.170632 
L 605.508567 524.089794 
L 609.168543 523.008956 
L 612.82852 521.928119 
L 616.488496 520.847281 
L 620.148473 519.766443 
L 623.808449 518.685606 
L 627.468425 517.604768 
L 631.128402 516.52393 
L 634.788378 515.443092 
L 638.448354 514.362255 
L 642.108331 513.281417 
L 645.768307 512.200579 
L 649.428284 511.119741 
L 653.08826 510.038904 
L 656.748236 508.958066 
L 660.408213 507.877228 
L 664.068189 506.79639 
L 667.728166 505.715553 
L 671.388142 504.634715 
L 675.048118 503.553877 
L 678.708095 502.47304 
L 682.368071 501.392202 
L 686.028048 500.311364 
L 689.688024 499.230526 
L 693.348 498.149689 
L 697.007977 497.068851 
L 700.667953 495.988013 
L 704.327929 494.907175 
L 707.987906 493.826338 
L 711.647882 492.7455 
L 715.307859 491.664662 
L 718.967835 490.583825 
L 722.627811 489.502987 
L 726.287788 488.422149 
L 729.947764 487.341311 
L 733.607741 486.260474 
L 737.267717 485.179636 
L 740.927693 484.098798 
L 744.58767 483.01796 
L 748.247646 481.937123 
L 751.907622 480.856285 
L 755.567599 479.775447 
L 759.227575 478.694609 
L 762.887552 477.613772 
L 766.547528 476.532934 
L 770.207504 475.452096 
L 773.867481 474.371259 
L 777.527457 473.290421 
L 781.187434 472.209583 
L 784.84741 471.128745 
L 788.507386 470.047908 
L 792.167363 468.96707 
L 795.827339 467.886232 
L 799.487316 466.805394 
L 803.147292 465.724557 
L 806.807268 464.643719 
L 810.467245 463.562881 
L 814.127221 462.482043 
L 817.787197 461.401206 
L 821.447174 460.320368 
L 825.10715 459.23953 
L 828.767127 458.158693 
L 832.427103 457.077855 
L 836.087079 455.997017 
L 839.747056 454.916179 
L 843.407032 453.835342 
L 847.067009 452.754504 
L 850.726985 451.673666 
L 854.386961 450.592828 
L 858.046938 449.511991 
L 861.706914 448.431153 
L 865.36689 447.350315 
L 869.026867 446.269478 
" clip-path="url(#p0a962f2c95)" style="fill: none; stroke: #ffa500; stroke-width: 2.25; stroke-linecap: square"/>
   </g>
   <g id="patch_18">
    <path d="M 488.572321 612 
L 488.572321 360 
" style="fill: none; stroke: #000000; stroke-width: 0.8; stroke-linejoin: miter; stroke-linecap: square"/>
   </g>
   <g id="patch_19">
    <path d="M 887.14375 612 
L 887.14375 360 
" style="fill: none; stroke: #000000; stroke-width: 0.8; stroke-linejoin: miter; stroke-linecap: square"/>
   </g>
   <g id="patch_20">
    <path d="M 488.572321 612 
L 887.14375 612 
" style="fill: none; stroke: #000000; stroke-width: 0.8; stroke-linejoin: miter; stroke-linecap: square"/>
   </g>
   <g id="patch_21">
    <path d="M 488.572321 360 
L 887.14375 360 
" style="fill: none; stroke: #000000; stroke-width: 0.8; stroke-linejoin: miter; stroke-linecap: square"/>
   </g>
  </g>
  <g id="text_51">
   <!-- Archaea - Comparison between amino acid and factor frequencies for genetic code: Alternative yeast -->
   <g transform="translate(74.1625 18.597656) scale(0.15 -0.15)">
    <defs>
     <path id="DejaVuSans-68" d="M 3513 2113 
L 3513 0 
L 2938 0 
L 2938 2094 
Q 2938 2591 2744 2837 
Q 2550 3084 2163 3084 
Q 1697 3084 1428 2787 
Q 1159 2491 1159 1978 
L 1159 0 
L 581 0 
L 581 4863 
L 1159 4863 
L 1159 2956 
Q 1366 3272 1645 3428 
Q 1925 3584 2291 3584 
Q 2894 3584 3203 3211 
Q 3513 2838 3513 2113 
z
" transform="scale(0.015625)"/>
     <path id="DejaVuSans-2d" d="M 313 2009 
L 1997 2009 
L 1997 1497 
L 313 1497 
L 313 2009 
z
" transform="scale(0.015625)"/>
     <path id="DejaVuSans-70" d="M 1159 525 
L 1159 -1331 
L 581 -1331 
L 581 3500 
L 1159 3500 
L 1159 2969 
Q 1341 3281 1617 3432 
Q 1894 3584 2278 3584 
Q 2916 3584 3314 3078 
Q 3713 2572 3713 1747 
Q 3713 922 3314 415 
Q 2916 -91 2278 -91 
Q 1894 -91 1617 61 
Q 1341 213 1159 525 
z
M 3116 1747 
Q 3116 2381 2855 2742 
Q 2594 3103 2138 3103 
Q 1681 3103 1420 2742 
Q 1159 2381 1159 1747 
Q 1159 1113 1420 752 
Q 1681 391 2138 391 
Q 2594 391 2855 752 
Q 3116 1113 3116 1747 
z
" transform="scale(0.015625)"/>
     <path id="DejaVuSans-62" d="M 3116 1747 
Q 3116 2381 2855 2742 
Q 2594 3103 2138 3103 
Q 1681 3103 1420 2742 
Q 1159 2381 1159 1747 
Q 1159 1113 1420 752 
Q 1681 391 2138 391 
Q 2594 391 2855 752 
Q 3116 1113 3116 1747 
z
M 1159 2969 
Q 1341 3281 1617 3432 
Q 1894 3584 2278 3584 
Q 2916 3584 3314 3078 
Q 3713 2572 3713 1747 
Q 3713 922 3314 415 
Q 2916 -91 2278 -91 
Q 1894 -91 1617 61 
Q 1341 213 1159 525 
L 1159 0 
L 581 0 
L 581 4863 
L 1159 4863 
L 1159 2969 
z
" transform="scale(0.015625)"/>
     <path id="DejaVuSans-77" d="M 269 3500 
L 844 3500 
L 1563 769 
L 2278 3500 
L 2956 3500 
L 3675 769 
L 4391 3500 
L 4966 3500 
L 4050 0 
L 3372 0 
L 2619 2869 
L 1863 0 
L 1184 0 
L 269 3500 
z
" transform="scale(0.015625)"/>
     <path id="DejaVuSans-67" d="M 2906 1791 
Q 2906 2416 2648 2759 
Q 2391 3103 1925 3103 
Q 1463 3103 1205 2759 
Q 947 2416 947 1791 
Q 947 1169 1205 825 
Q 1463 481 1925 481 
Q 2391 481 2648 825 
Q 2906 1169 2906 1791 
z
M 3481 434 
Q 3481 -459 3084 -895 
Q 2688 -1331 1869 -1331 
Q 1566 -1331 1297 -1286 
Q 1028 -1241 775 -1147 
L 775 -588 
Q 1028 -725 1275 -790 
Q 1522 -856 1778 -856 
Q 2344 -856 2625 -561 
Q 2906 -266 2906 331 
L 2906 616 
Q 2728 306 2450 153 
Q 2172 0 1784 0 
Q 1141 0 747 490 
Q 353 981 353 1791 
Q 353 2603 747 3093 
Q 1141 3584 1784 3584 
Q 2172 3584 2450 3431 
Q 2728 3278 2906 2969 
L 2906 3500 
L 3481 3500 
L 3481 434 
z
" transform="scale(0.015625)"/>
     <path id="DejaVuSans-3a" d="M 750 794 
L 1409 794 
L 1409 0 
L 750 0 
L 750 794 
z
M 750 3309 
L 1409 3309 
L 1409 2516 
L 750 2516 
L 750 3309 
z
" transform="scale(0.015625)"/>
     <path id="DejaVuSans-6c" d="M 603 4863 
L 1178 4863 
L 1178 0 
L 603 0 
L 603 4863 
z
" transform="scale(0.015625)"/>
     <path id="DejaVuSans-76" d="M 191 3500 
L 800 3500 
L 1894 563 
L 2988 3500 
L 3597 3500 
L 2284 0 
L 1503 0 
L 191 3500 
z
" transform="scale(0.015625)"/>
    </defs>
    <use xlink:href="#DejaVuSans-41"/>
    <use xlink:href="#DejaVuSans-72" x="68.408203"/>
    <use xlink:href="#DejaVuSans-63" x="107.271484"/>
    <use xlink:href="#DejaVuSans-68" x="162.251953"/>
    <use xlink:href="#DejaVuSans-61" x="225.630859"/>
    <use xlink:href="#DejaVuSans-65" x="286.910156"/>
    <use xlink:href="#DejaVuSans-61" x="348.433594"/>
    <use xlink:href="#DejaVuSans-20" x="409.712891"/>
    <use xlink:href="#DejaVuSans-2d" x="441.5"/>
    <use xlink:href="#DejaVuSans-20" x="477.583984"/>
    <use xlink:href="#DejaVuSans-43" x="509.371094"/>
    <use xlink:href="#DejaVuSans-6f" x="579.195312"/>
    <use xlink:href="#DejaVuSans-6d" x="640.376953"/>
    <use xlink:href="#DejaVuSans-70" x="737.789062"/>
    <use xlink:href="#DejaVuSans-61" x="801.265625"/>
    <use xlink:href="#DejaVuSans-72" x="862.544922"/>
    <use xlink:href="#DejaVuSans-69" x="903.658203"/>
    <use xlink:href="#DejaVuSans-73" x="931.441406"/>
    <use xlink:href="#DejaVuSans-6f" x="983.541016"/>
    <use xlink:href="#DejaVuSans-6e" x="1044.722656"/>
    <use xlink:href="#DejaVuSans-20" x="1108.101562"/>
    <use xlink:href="#DejaVuSans-62" x="1139.888672"/>
    <use xlink:href="#DejaVuSans-65" x="1203.365234"/>
    <use xlink:href="#DejaVuSans-74" x="1264.888672"/>
    <use xlink:href="#DejaVuSans-77" x="1304.097656"/>
    <use xlink:href="#DejaVuSans-65" x="1385.884766"/>
    <use xlink:href="#DejaVuSans-65" x="1447.408203"/>
    <use xlink:href="#DejaVuSans-6e" x="1508.931641"/>
    <use xlink:href="#DejaVuSans-20" x="1572.310547"/>
    <use xlink:href="#DejaVuSans-61" x="1604.097656"/>
    <use xlink:href="#DejaVuSans-6d" x="1665.376953"/>
    <use xlink:href="#DejaVuSans-69" x="1762.789062"/>
    <use xlink:href="#DejaVuSans-6e" x="1790.572266"/>
    <use xlink:href="#DejaVuSans-6f" x="1853.951172"/>
    <use xlink:href="#DejaVuSans-20" x="1915.132812"/>
    <use xlink:href="#DejaVuSans-61" x="1946.919922"/>
    <use xlink:href="#DejaVuSans-63" x="2008.199219"/>
    <use xlink:href="#DejaVuSans-69" x="2063.179688"/>
    <use xlink:href="#DejaVuSans-64" x="2090.962891"/>
    <use xlink:href="#DejaVuSans-20" x="2154.439453"/>
    <use xlink:href="#DejaVuSans-61" x="2186.226562"/>
    <use xlink:href="#DejaVuSans-6e" x="2247.505859"/>
    <use xlink:href="#DejaVuSans-64" x="2310.884766"/>
    <use xlink:href="#DejaVuSans-20" x="2374.361328"/>
    <use xlink:href="#DejaVuSans-66" x="2406.148438"/>
    <use xlink:href="#DejaVuSans-61" x="2441.353516"/>
    <use xlink:href="#DejaVuSans-63" x="2502.632812"/>
    <use xlink:href="#DejaVuSans-74" x="2557.613281"/>
    <use xlink:href="#DejaVuSans-6f" x="2596.822266"/>
    <use xlink:href="#DejaVuSans-72" x="2658.003906"/>
    <use xlink:href="#DejaVuSans-20" x="2699.117188"/>
    <use xlink:href="#DejaVuSans-66" x="2730.904297"/>
    <use xlink:href="#DejaVuSans-72" x="2766.109375"/>
    <use xlink:href="#DejaVuSans-65" x="2804.972656"/>
    <use xlink:href="#DejaVuSans-71" x="2866.496094"/>
    <use xlink:href="#DejaVuSans-75" x="2929.972656"/>
    <use xlink:href="#DejaVuSans-65" x="2993.351562"/>
    <use xlink:href="#DejaVuSans-6e" x="3054.875"/>
    <use xlink:href="#DejaVuSans-63" x="3118.253906"/>
    <use xlink:href="#DejaVuSans-69" x="3173.234375"/>
    <use xlink:href="#DejaVuSans-65" x="3201.017578"/>
    <use xlink:href="#DejaVuSans-73" x="3262.541016"/>
    <use xlink:href="#DejaVuSans-20" x="3314.640625"/>
    <use xlink:href="#DejaVuSans-66" x="3346.427734"/>
    <use xlink:href="#DejaVuSans-6f" x="3381.632812"/>
    <use xlink:href="#DejaVuSans-72" x="3442.814453"/>
    <use xlink:href="#DejaVuSans-20" x="3483.927734"/>
    <use xlink:href="#DejaVuSans-67" x="3515.714844"/>
    <use xlink:href="#DejaVuSans-65" x="3579.191406"/>
    <use xlink:href="#DejaVuSans-6e" x="3640.714844"/>
    <use xlink:href="#DejaVuSans-65" x="3704.09375"/>
    <use xlink:href="#DejaVuSans-74" x="3765.617188"/>
    <use xlink:href="#DejaVuSans-69" x="3804.826172"/>
    <use xlink:href="#DejaVuSans-63" x="3832.609375"/>
    <use xlink:href="#DejaVuSans-20" x="3887.589844"/>
    <use xlink:href="#DejaVuSans-63" x="3919.376953"/>
    <use xlink:href="#DejaVuSans-6f" x="3974.357422"/>
    <use xlink:href="#DejaVuSans-64" x="4035.539062"/>
    <use xlink:href="#DejaVuSans-65" x="4099.015625"/>
    <use xlink:href="#DejaVuSans-3a" x="4160.539062"/>
    <use xlink:href="#DejaVuSans-20" x="4194.230469"/>
    <use xlink:href="#DejaVuSans-41" x="4226.017578"/>
    <use xlink:href="#DejaVuSans-6c" x="4294.425781"/>
    <use xlink:href="#DejaVuSans-74" x="4322.208984"/>
    <use xlink:href="#DejaVuSans-65" x="4361.417969"/>
    <use xlink:href="#DejaVuSans-72" x="4422.941406"/>
    <use xlink:href="#DejaVuSans-6e" x="4462.304688"/>
    <use xlink:href="#DejaVuSans-61" x="4525.683594"/>
    <use xlink:href="#DejaVuSans-74" x="4586.962891"/>
    <use xlink:href="#DejaVuSans-69" x="4626.171875"/>
    <use xlink:href="#DejaVuSans-76" x="4653.955078"/>
    <use xlink:href="#DejaVuSans-65" x="4713.134766"/>
    <use xlink:href="#DejaVuSans-20" x="4774.658203"/>
    <use xlink:href="#DejaVuSans-79" x="4806.445312"/>
    <use xlink:href="#DejaVuSans-65" x="4865.625"/>
    <use xlink:href="#DejaVuSans-61" x="4927.148438"/>
    <use xlink:href="#DejaVuSans-73" x="4988.427734"/>
    <use xlink:href="#DejaVuSans-74" x="5040.527344"/>
   </g>
  </g>
 </g>
 <defs>
  <clipPath id="pc56b51546d">
   <rect x="50.14375" y="57.6" width="398.571429" height="252"/>
  </clipPath>
  <clipPath id="pf9b9a62c4a">
   <rect x="488.572321" y="57.6" width="398.571429" height="252"/>
  </clipPath>
  <clipPath id="pc083a7887f">
   <rect x="50.14375" y="360" width="398.571429" height="252"/>
  </clipPath>
  <clipPath id="p0a962f2c95">
   <rect x="488.572321" y="360" width="398.571429" height="252"/>
  </clipPath>
 </defs>
</svg>
