<?xml version="1.0" encoding="utf-8" standalone="no"?>
<!DOCTYPE svg PUBLIC "-//W3C//DTD SVG 1.1//EN"
  "http://www.w3.org/Graphics/SVG/1.1/DTD/svg11.dtd">
<svg xmlns:xlink="http://www.w3.org/1999/xlink" width="838.54375pt" height="447.954375pt" viewBox="0 0 838.54375 447.954375" xmlns="http://www.w3.org/2000/svg" version="1.1">
 <metadata>
  <rdf:RDF xmlns:dc="http://purl.org/dc/elements/1.1/" xmlns:cc="http://creativecommons.org/ns#" xmlns:rdf="http://www.w3.org/1999/02/22-rdf-syntax-ns#">
   <cc:Work>
    <dc:type rdf:resource="http://purl.org/dc/dcmitype/StillImage"/>
    <dc:date>2025-01-27T09:40:33.989860</dc:date>
    <dc:format>image/svg+xml</dc:format>
    <dc:creator>
     <cc:Agent>
      <dc:title>Matplotlib v3.6.3, https://matplotlib.org/</dc:title>
     </cc:Agent>
    </dc:creator>
   </cc:Work>
  </rdf:RDF>
 </metadata>
 <defs>
  <style type="text/css">*{stroke-linejoin: round; stroke-linecap: butt}</style>
 </defs>
 <g id="figure_1">
  <g id="patch_1">
   <path d="M 0 447.954375 
L 838.54375 447.954375 
L 838.54375 0 
L 0 0 
z
" style="fill: #ffffff"/>
  </g>
  <g id="axes_1">
   <g id="patch_2">
    <path d="M 50.14375 410.398125 
L 831.34375 410.398125 
L 831.34375 22.318125 
L 50.14375 22.318125 
z
" style="fill: #ffffff"/>
   </g>
   <g id="matplotlib.axis_1">
    <g id="xtick_1">
     <g id="line2d_1">
      <path d="M 69.67375 410.398125 
L 69.67375 22.318125 
" clip-path="url(#p535c0c603e)" style="fill: none; stroke: #b0b0b0; stroke-opacity: 0.5; stroke-width: 0.8; stroke-linecap: square"/>
     </g>
     <g id="line2d_2">
      <defs>
       <path id="m6f1052ff86" d="M 0 0 
L 0 3.5 
" style="stroke: #000000; stroke-width: 0.8"/>
      </defs>
      <g>
       <use xlink:href="#m6f1052ff86" x="69.67375" y="410.398125" style="stroke: #000000; stroke-width: 0.8"/>
      </g>
     </g>
     <g id="text_1">
      <!-- M -->
      <g transform="translate(65.359688 424.996562) scale(0.1 -0.1)">
       <defs>
        <path id="DejaVuSans-4d" d="M 628 4666 
L 1569 4666 
L 2759 1491 
L 3956 4666 
L 4897 4666 
L 4897 0 
L 4281 0 
L 4281 4097 
L 3078 897 
L 2444 897 
L 1241 4097 
L 1241 0 
L 628 0 
L 628 4666 
z
" transform="scale(0.015625)"/>
       </defs>
       <use xlink:href="#DejaVuSans-4d"/>
      </g>
     </g>
    </g>
    <g id="xtick_2">
     <g id="line2d_3">
      <path d="M 108.73375 410.398125 
L 108.73375 22.318125 
" clip-path="url(#p535c0c603e)" style="fill: none; stroke: #b0b0b0; stroke-opacity: 0.5; stroke-width: 0.8; stroke-linecap: square"/>
     </g>
     <g id="line2d_4">
      <g>
       <use xlink:href="#m6f1052ff86" x="108.73375" y="410.398125" style="stroke: #000000; stroke-width: 0.8"/>
      </g>
     </g>
     <g id="text_2">
      <!-- W -->
      <g transform="translate(103.79 424.996562) scale(0.1 -0.1)">
       <defs>
        <path id="DejaVuSans-57" d="M 213 4666 
L 850 4666 
L 1831 722 
L 2809 4666 
L 3519 4666 
L 4500 722 
L 5478 4666 
L 6119 4666 
L 4947 0 
L 4153 0 
L 3169 4050 
L 2175 0 
L 1381 0 
L 213 4666 
z
" transform="scale(0.015625)"/>
       </defs>
       <use xlink:href="#DejaVuSans-57"/>
      </g>
     </g>
    </g>
    <g id="xtick_3">
     <g id="line2d_5">
      <path d="M 147.79375 410.398125 
L 147.79375 22.318125 
" clip-path="url(#p535c0c603e)" style="fill: none; stroke: #b0b0b0; stroke-opacity: 0.5; stroke-width: 0.8; stroke-linecap: square"/>
     </g>
     <g id="line2d_6">
      <g>
       <use xlink:href="#m6f1052ff86" x="147.79375" y="410.398125" style="stroke: #000000; stroke-width: 0.8"/>
      </g>
     </g>
     <g id="text_3">
      <!-- C -->
      <g transform="translate(144.302344 424.996562) scale(0.1 -0.1)">
       <defs>
        <path id="DejaVuSans-43" d="M 4122 4306 
L 4122 3641 
Q 3803 3938 3442 4084 
Q 3081 4231 2675 4231 
Q 1875 4231 1450 3742 
Q 1025 3253 1025 2328 
Q 1025 1406 1450 917 
Q 1875 428 2675 428 
Q 3081 428 3442 575 
Q 3803 722 4122 1019 
L 4122 359 
Q 3791 134 3420 21 
Q 3050 -91 2638 -91 
Q 1578 -91 968 557 
Q 359 1206 359 2328 
Q 359 3453 968 4101 
Q 1578 4750 2638 4750 
Q 3056 4750 3426 4639 
Q 3797 4528 4122 4306 
z
" transform="scale(0.015625)"/>
       </defs>
       <use xlink:href="#DejaVuSans-43"/>
      </g>
     </g>
    </g>
    <g id="xtick_4">
     <g id="line2d_7">
      <path d="M 186.85375 410.398125 
L 186.85375 22.318125 
" clip-path="url(#p535c0c603e)" style="fill: none; stroke: #b0b0b0; stroke-opacity: 0.5; stroke-width: 0.8; stroke-linecap: square"/>
     </g>
     <g id="line2d_8">
      <g>
       <use xlink:href="#m6f1052ff86" x="186.85375" y="410.398125" style="stroke: #000000; stroke-width: 0.8"/>
      </g>
     </g>
     <g id="text_4">
      <!-- D -->
      <g transform="translate(183.00375 424.996562) scale(0.1 -0.1)">
       <defs>
        <path id="DejaVuSans-44" d="M 1259 4147 
L 1259 519 
L 2022 519 
Q 2988 519 3436 956 
Q 3884 1394 3884 2338 
Q 3884 3275 3436 3711 
Q 2988 4147 2022 4147 
L 1259 4147 
z
M 628 4666 
L 1925 4666 
Q 3281 4666 3915 4102 
Q 4550 3538 4550 2338 
Q 4550 1131 3912 565 
Q 3275 0 1925 0 
L 628 0 
L 628 4666 
z
" transform="scale(0.015625)"/>
       </defs>
       <use xlink:href="#DejaVuSans-44"/>
      </g>
     </g>
    </g>
    <g id="xtick_5">
     <g id="line2d_9">
      <path d="M 225.91375 410.398125 
L 225.91375 22.318125 
" clip-path="url(#p535c0c603e)" style="fill: none; stroke: #b0b0b0; stroke-opacity: 0.5; stroke-width: 0.8; stroke-linecap: square"/>
     </g>
     <g id="line2d_10">
      <g>
       <use xlink:href="#m6f1052ff86" x="225.91375" y="410.398125" style="stroke: #000000; stroke-width: 0.8"/>
      </g>
     </g>
     <g id="text_5">
      <!-- E -->
      <g transform="translate(222.754375 424.996562) scale(0.1 -0.1)">
       <defs>
        <path id="DejaVuSans-45" d="M 628 4666 
L 3578 4666 
L 3578 4134 
L 1259 4134 
L 1259 2753 
L 3481 2753 
L 3481 2222 
L 1259 2222 
L 1259 531 
L 3634 531 
L 3634 0 
L 628 0 
L 628 4666 
z
" transform="scale(0.015625)"/>
       </defs>
       <use xlink:href="#DejaVuSans-45"/>
      </g>
     </g>
    </g>
    <g id="xtick_6">
     <g id="line2d_11">
      <path d="M 264.97375 410.398125 
L 264.97375 22.318125 
" clip-path="url(#p535c0c603e)" style="fill: none; stroke: #b0b0b0; stroke-opacity: 0.5; stroke-width: 0.8; stroke-linecap: square"/>
     </g>
     <g id="line2d_12">
      <g>
       <use xlink:href="#m6f1052ff86" x="264.97375" y="410.398125" style="stroke: #000000; stroke-width: 0.8"/>
      </g>
     </g>
     <g id="text_6">
      <!-- F -->
      <g transform="translate(262.097969 424.996562) scale(0.1 -0.1)">
       <defs>
        <path id="DejaVuSans-46" d="M 628 4666 
L 3309 4666 
L 3309 4134 
L 1259 4134 
L 1259 2759 
L 3109 2759 
L 3109 2228 
L 1259 2228 
L 1259 0 
L 628 0 
L 628 4666 
z
" transform="scale(0.015625)"/>
       </defs>
       <use xlink:href="#DejaVuSans-46"/>
      </g>
     </g>
    </g>
    <g id="xtick_7">
     <g id="line2d_13">
      <path d="M 304.03375 410.398125 
L 304.03375 22.318125 
" clip-path="url(#p535c0c603e)" style="fill: none; stroke: #b0b0b0; stroke-opacity: 0.5; stroke-width: 0.8; stroke-linecap: square"/>
     </g>
     <g id="line2d_14">
      <g>
       <use xlink:href="#m6f1052ff86" x="304.03375" y="410.398125" style="stroke: #000000; stroke-width: 0.8"/>
      </g>
     </g>
     <g id="text_7">
      <!-- H -->
      <g transform="translate(300.273594 424.996562) scale(0.1 -0.1)">
       <defs>
        <path id="DejaVuSans-48" d="M 628 4666 
L 1259 4666 
L 1259 2753 
L 3553 2753 
L 3553 4666 
L 4184 4666 
L 4184 0 
L 3553 0 
L 3553 2222 
L 1259 2222 
L 1259 0 
L 628 0 
L 628 4666 
z
" transform="scale(0.015625)"/>
       </defs>
       <use xlink:href="#DejaVuSans-48"/>
      </g>
     </g>
    </g>
    <g id="xtick_8">
     <g id="line2d_15">
      <path d="M 343.09375 410.398125 
L 343.09375 22.318125 
" clip-path="url(#p535c0c603e)" style="fill: none; stroke: #b0b0b0; stroke-opacity: 0.5; stroke-width: 0.8; stroke-linecap: square"/>
     </g>
     <g id="line2d_16">
      <g>
       <use xlink:href="#m6f1052ff86" x="343.09375" y="410.398125" style="stroke: #000000; stroke-width: 0.8"/>
      </g>
     </g>
     <g id="text_8">
      <!-- K -->
      <g transform="translate(339.814844 424.996562) scale(0.1 -0.1)">
       <defs>
        <path id="DejaVuSans-4b" d="M 628 4666 
L 1259 4666 
L 1259 2694 
L 3353 4666 
L 4166 4666 
L 1850 2491 
L 4331 0 
L 3500 0 
L 1259 2247 
L 1259 0 
L 628 0 
L 628 4666 
z
" transform="scale(0.015625)"/>
       </defs>
       <use xlink:href="#DejaVuSans-4b"/>
      </g>
     </g>
    </g>
    <g id="xtick_9">
     <g id="line2d_17">
      <path d="M 382.15375 410.398125 
L 382.15375 22.318125 
" clip-path="url(#p535c0c603e)" style="fill: none; stroke: #b0b0b0; stroke-opacity: 0.5; stroke-width: 0.8; stroke-linecap: square"/>
     </g>
     <g id="line2d_18">
      <g>
       <use xlink:href="#m6f1052ff86" x="382.15375" y="410.398125" style="stroke: #000000; stroke-width: 0.8"/>
      </g>
     </g>
     <g id="text_9">
      <!-- N -->
      <g transform="translate(378.413125 424.996562) scale(0.1 -0.1)">
       <defs>
        <path id="DejaVuSans-4e" d="M 628 4666 
L 1478 4666 
L 3547 763 
L 3547 4666 
L 4159 4666 
L 4159 0 
L 3309 0 
L 1241 3903 
L 1241 0 
L 628 0 
L 628 4666 
z
" transform="scale(0.015625)"/>
       </defs>
       <use xlink:href="#DejaVuSans-4e"/>
      </g>
     </g>
    </g>
    <g id="xtick_10">
     <g id="line2d_19">
      <path d="M 421.21375 410.398125 
L 421.21375 22.318125 
" clip-path="url(#p535c0c603e)" style="fill: none; stroke: #b0b0b0; stroke-opacity: 0.5; stroke-width: 0.8; stroke-linecap: square"/>
     </g>
     <g id="line2d_20">
      <g>
       <use xlink:href="#m6f1052ff86" x="421.21375" y="410.398125" style="stroke: #000000; stroke-width: 0.8"/>
      </g>
     </g>
     <g id="text_10">
      <!-- Q -->
      <g transform="translate(417.277812 424.996562) scale(0.1 -0.1)">
       <defs>
        <path id="DejaVuSans-51" d="M 2522 4238 
Q 1834 4238 1429 3725 
Q 1025 3213 1025 2328 
Q 1025 1447 1429 934 
Q 1834 422 2522 422 
Q 3209 422 3611 934 
Q 4013 1447 4013 2328 
Q 4013 3213 3611 3725 
Q 3209 4238 2522 4238 
z
M 3406 84 
L 4238 -825 
L 3475 -825 
L 2784 -78 
Q 2681 -84 2626 -87 
Q 2572 -91 2522 -91 
Q 1538 -91 948 567 
Q 359 1225 359 2328 
Q 359 3434 948 4092 
Q 1538 4750 2522 4750 
Q 3503 4750 4090 4092 
Q 4678 3434 4678 2328 
Q 4678 1516 4351 937 
Q 4025 359 3406 84 
z
" transform="scale(0.015625)"/>
       </defs>
       <use xlink:href="#DejaVuSans-51"/>
      </g>
     </g>
    </g>
    <g id="xtick_11">
     <g id="line2d_21">
      <path d="M 460.27375 410.398125 
L 460.27375 22.318125 
" clip-path="url(#p535c0c603e)" style="fill: none; stroke: #b0b0b0; stroke-opacity: 0.5; stroke-width: 0.8; stroke-linecap: square"/>
     </g>
     <g id="line2d_22">
      <g>
       <use xlink:href="#m6f1052ff86" x="460.27375" y="410.398125" style="stroke: #000000; stroke-width: 0.8"/>
      </g>
     </g>
     <g id="text_11">
      <!-- Y -->
      <g transform="translate(457.219844 424.996562) scale(0.1 -0.1)">
       <defs>
        <path id="DejaVuSans-59" d="M -13 4666 
L 666 4666 
L 1959 2747 
L 3244 4666 
L 3922 4666 
L 2272 2222 
L 2272 0 
L 1638 0 
L 1638 2222 
L -13 4666 
z
" transform="scale(0.015625)"/>
       </defs>
       <use xlink:href="#DejaVuSans-59"/>
      </g>
     </g>
    </g>
    <g id="xtick_12">
     <g id="line2d_23">
      <path d="M 499.33375 410.398125 
L 499.33375 22.318125 
" clip-path="url(#p535c0c603e)" style="fill: none; stroke: #b0b0b0; stroke-opacity: 0.5; stroke-width: 0.8; stroke-linecap: square"/>
     </g>
     <g id="line2d_24">
      <g>
       <use xlink:href="#m6f1052ff86" x="499.33375" y="410.398125" style="stroke: #000000; stroke-width: 0.8"/>
      </g>
     </g>
     <g id="text_12">
      <!-- I -->
      <g transform="translate(497.85875 424.996562) scale(0.1 -0.1)">
       <defs>
        <path id="DejaVuSans-49" d="M 628 4666 
L 1259 4666 
L 1259 0 
L 628 0 
L 628 4666 
z
" transform="scale(0.015625)"/>
       </defs>
       <use xlink:href="#DejaVuSans-49"/>
      </g>
     </g>
    </g>
    <g id="xtick_13">
     <g id="line2d_25">
      <path d="M 538.39375 410.398125 
L 538.39375 22.318125 
" clip-path="url(#p535c0c603e)" style="fill: none; stroke: #b0b0b0; stroke-opacity: 0.5; stroke-width: 0.8; stroke-linecap: square"/>
     </g>
     <g id="line2d_26">
      <g>
       <use xlink:href="#m6f1052ff86" x="538.39375" y="410.398125" style="stroke: #000000; stroke-width: 0.8"/>
      </g>
     </g>
     <g id="text_13">
      <!-- A -->
      <g transform="translate(534.973438 424.996562) scale(0.1 -0.1)">
       <defs>
        <path id="DejaVuSans-41" d="M 2188 4044 
L 1331 1722 
L 3047 1722 
L 2188 4044 
z
M 1831 4666 
L 2547 4666 
L 4325 0 
L 3669 0 
L 3244 1197 
L 1141 1197 
L 716 0 
L 50 0 
L 1831 4666 
z
" transform="scale(0.015625)"/>
       </defs>
       <use xlink:href="#DejaVuSans-41"/>
      </g>
     </g>
    </g>
    <g id="xtick_14">
     <g id="line2d_27">
      <path d="M 577.45375 410.398125 
L 577.45375 22.318125 
" clip-path="url(#p535c0c603e)" style="fill: none; stroke: #b0b0b0; stroke-opacity: 0.5; stroke-width: 0.8; stroke-linecap: square"/>
     </g>
     <g id="line2d_28">
      <g>
       <use xlink:href="#m6f1052ff86" x="577.45375" y="410.398125" style="stroke: #000000; stroke-width: 0.8"/>
      </g>
     </g>
     <g id="text_14">
      <!-- G -->
      <g transform="translate(573.579531 424.996562) scale(0.1 -0.1)">
       <defs>
        <path id="DejaVuSans-47" d="M 3809 666 
L 3809 1919 
L 2778 1919 
L 2778 2438 
L 4434 2438 
L 4434 434 
Q 4069 175 3628 42 
Q 3188 -91 2688 -91 
Q 1594 -91 976 548 
Q 359 1188 359 2328 
Q 359 3472 976 4111 
Q 1594 4750 2688 4750 
Q 3144 4750 3555 4637 
Q 3966 4525 4313 4306 
L 4313 3634 
Q 3963 3931 3569 4081 
Q 3175 4231 2741 4231 
Q 1884 4231 1454 3753 
Q 1025 3275 1025 2328 
Q 1025 1384 1454 906 
Q 1884 428 2741 428 
Q 3075 428 3337 486 
Q 3600 544 3809 666 
z
" transform="scale(0.015625)"/>
       </defs>
       <use xlink:href="#DejaVuSans-47"/>
      </g>
     </g>
    </g>
    <g id="xtick_15">
     <g id="line2d_29">
      <path d="M 616.51375 410.398125 
L 616.51375 22.318125 
" clip-path="url(#p535c0c603e)" style="fill: none; stroke: #b0b0b0; stroke-opacity: 0.5; stroke-width: 0.8; stroke-linecap: square"/>
     </g>
     <g id="line2d_30">
      <g>
       <use xlink:href="#m6f1052ff86" x="616.51375" y="410.398125" style="stroke: #000000; stroke-width: 0.8"/>
      </g>
     </g>
     <g id="text_15">
      <!-- P -->
      <g transform="translate(613.498906 424.996562) scale(0.1 -0.1)">
       <defs>
        <path id="DejaVuSans-50" d="M 1259 4147 
L 1259 2394 
L 2053 2394 
Q 2494 2394 2734 2622 
Q 2975 2850 2975 3272 
Q 2975 3691 2734 3919 
Q 2494 4147 2053 4147 
L 1259 4147 
z
M 628 4666 
L 2053 4666 
Q 2838 4666 3239 4311 
Q 3641 3956 3641 3272 
Q 3641 2581 3239 2228 
Q 2838 1875 2053 1875 
L 1259 1875 
L 1259 0 
L 628 0 
L 628 4666 
z
" transform="scale(0.015625)"/>
       </defs>
       <use xlink:href="#DejaVuSans-50"/>
      </g>
     </g>
    </g>
    <g id="xtick_16">
     <g id="line2d_31">
      <path d="M 655.57375 410.398125 
L 655.57375 22.318125 
" clip-path="url(#p535c0c603e)" style="fill: none; stroke: #b0b0b0; stroke-opacity: 0.5; stroke-width: 0.8; stroke-linecap: square"/>
     </g>
     <g id="line2d_32">
      <g>
       <use xlink:href="#m6f1052ff86" x="655.57375" y="410.398125" style="stroke: #000000; stroke-width: 0.8"/>
      </g>
     </g>
     <g id="text_16">
      <!-- T -->
      <g transform="translate(652.519844 424.996562) scale(0.1 -0.1)">
       <defs>
        <path id="DejaVuSans-54" d="M -19 4666 
L 3928 4666 
L 3928 4134 
L 2272 4134 
L 2272 0 
L 1638 0 
L 1638 4134 
L -19 4134 
L -19 4666 
z
" transform="scale(0.015625)"/>
       </defs>
       <use xlink:href="#DejaVuSans-54"/>
      </g>
     </g>
    </g>
    <g id="xtick_17">
     <g id="line2d_33">
      <path d="M 694.63375 410.398125 
L 694.63375 22.318125 
" clip-path="url(#p535c0c603e)" style="fill: none; stroke: #b0b0b0; stroke-opacity: 0.5; stroke-width: 0.8; stroke-linecap: square"/>
     </g>
     <g id="line2d_34">
      <g>
       <use xlink:href="#m6f1052ff86" x="694.63375" y="410.398125" style="stroke: #000000; stroke-width: 0.8"/>
      </g>
     </g>
     <g id="text_17">
      <!-- V -->
      <g transform="translate(691.213438 424.996562) scale(0.1 -0.1)">
       <defs>
        <path id="DejaVuSans-56" d="M 1831 0 
L 50 4666 
L 709 4666 
L 2188 738 
L 3669 4666 
L 4325 4666 
L 2547 0 
L 1831 0 
z
" transform="scale(0.015625)"/>
       </defs>
       <use xlink:href="#DejaVuSans-56"/>
      </g>
     </g>
    </g>
    <g id="xtick_18">
     <g id="line2d_35">
      <path d="M 733.69375 410.398125 
L 733.69375 22.318125 
" clip-path="url(#p535c0c603e)" style="fill: none; stroke: #b0b0b0; stroke-opacity: 0.5; stroke-width: 0.8; stroke-linecap: square"/>
     </g>
     <g id="line2d_36">
      <g>
       <use xlink:href="#m6f1052ff86" x="733.69375" y="410.398125" style="stroke: #000000; stroke-width: 0.8"/>
      </g>
     </g>
     <g id="text_18">
      <!-- L -->
      <g transform="translate(730.907812 424.996562) scale(0.1 -0.1)">
       <defs>
        <path id="DejaVuSans-4c" d="M 628 4666 
L 1259 4666 
L 1259 531 
L 3531 531 
L 3531 0 
L 628 0 
L 628 4666 
z
" transform="scale(0.015625)"/>
       </defs>
       <use xlink:href="#DejaVuSans-4c"/>
      </g>
     </g>
    </g>
    <g id="xtick_19">
     <g id="line2d_37">
      <path d="M 772.75375 410.398125 
L 772.75375 22.318125 
" clip-path="url(#p535c0c603e)" style="fill: none; stroke: #b0b0b0; stroke-opacity: 0.5; stroke-width: 0.8; stroke-linecap: square"/>
     </g>
     <g id="line2d_38">
      <g>
       <use xlink:href="#m6f1052ff86" x="772.75375" y="410.398125" style="stroke: #000000; stroke-width: 0.8"/>
      </g>
     </g>
     <g id="text_19">
      <!-- R -->
      <g transform="translate(769.279531 424.996562) scale(0.1 -0.1)">
       <defs>
        <path id="DejaVuSans-52" d="M 2841 2188 
Q 3044 2119 3236 1894 
Q 3428 1669 3622 1275 
L 4263 0 
L 3584 0 
L 2988 1197 
Q 2756 1666 2539 1819 
Q 2322 1972 1947 1972 
L 1259 1972 
L 1259 0 
L 628 0 
L 628 4666 
L 2053 4666 
Q 2853 4666 3247 4331 
Q 3641 3997 3641 3322 
Q 3641 2881 3436 2590 
Q 3231 2300 2841 2188 
z
M 1259 4147 
L 1259 2491 
L 2053 2491 
Q 2509 2491 2742 2702 
Q 2975 2913 2975 3322 
Q 2975 3731 2742 3939 
Q 2509 4147 2053 4147 
L 1259 4147 
z
" transform="scale(0.015625)"/>
       </defs>
       <use xlink:href="#DejaVuSans-52"/>
      </g>
     </g>
    </g>
    <g id="xtick_20">
     <g id="line2d_39">
      <path d="M 811.81375 410.398125 
L 811.81375 22.318125 
" clip-path="url(#p535c0c603e)" style="fill: none; stroke: #b0b0b0; stroke-opacity: 0.5; stroke-width: 0.8; stroke-linecap: square"/>
     </g>
     <g id="line2d_40">
      <g>
       <use xlink:href="#m6f1052ff86" x="811.81375" y="410.398125" style="stroke: #000000; stroke-width: 0.8"/>
      </g>
     </g>
     <g id="text_20">
      <!-- S -->
      <g transform="translate(808.639531 424.996562) scale(0.1 -0.1)">
       <defs>
        <path id="DejaVuSans-53" d="M 3425 4513 
L 3425 3897 
Q 3066 4069 2747 4153 
Q 2428 4238 2131 4238 
Q 1616 4238 1336 4038 
Q 1056 3838 1056 3469 
Q 1056 3159 1242 3001 
Q 1428 2844 1947 2747 
L 2328 2669 
Q 3034 2534 3370 2195 
Q 3706 1856 3706 1288 
Q 3706 609 3251 259 
Q 2797 -91 1919 -91 
Q 1588 -91 1214 -16 
Q 841 59 441 206 
L 441 856 
Q 825 641 1194 531 
Q 1563 422 1919 422 
Q 2459 422 2753 634 
Q 3047 847 3047 1241 
Q 3047 1584 2836 1778 
Q 2625 1972 2144 2069 
L 1759 2144 
Q 1053 2284 737 2584 
Q 422 2884 422 3419 
Q 422 4038 858 4394 
Q 1294 4750 2059 4750 
Q 2388 4750 2728 4690 
Q 3069 4631 3425 4513 
z
" transform="scale(0.015625)"/>
       </defs>
       <use xlink:href="#DejaVuSans-53"/>
      </g>
     </g>
    </g>
    <g id="text_21">
     <!-- Amino acid -->
     <g transform="translate(412.870313 438.674687) scale(0.1 -0.1)">
      <defs>
       <path id="DejaVuSans-6d" d="M 3328 2828 
Q 3544 3216 3844 3400 
Q 4144 3584 4550 3584 
Q 5097 3584 5394 3201 
Q 5691 2819 5691 2113 
L 5691 0 
L 5113 0 
L 5113 2094 
Q 5113 2597 4934 2840 
Q 4756 3084 4391 3084 
Q 3944 3084 3684 2787 
Q 3425 2491 3425 1978 
L 3425 0 
L 2847 0 
L 2847 2094 
Q 2847 2600 2669 2842 
Q 2491 3084 2119 3084 
Q 1678 3084 1418 2786 
Q 1159 2488 1159 1978 
L 1159 0 
L 581 0 
L 581 3500 
L 1159 3500 
L 1159 2956 
Q 1356 3278 1631 3431 
Q 1906 3584 2284 3584 
Q 2666 3584 2933 3390 
Q 3200 3197 3328 2828 
z
" transform="scale(0.015625)"/>
       <path id="DejaVuSans-69" d="M 603 3500 
L 1178 3500 
L 1178 0 
L 603 0 
L 603 3500 
z
M 603 4863 
L 1178 4863 
L 1178 4134 
L 603 4134 
L 603 4863 
z
" transform="scale(0.015625)"/>
       <path id="DejaVuSans-6e" d="M 3513 2113 
L 3513 0 
L 2938 0 
L 2938 2094 
Q 2938 2591 2744 2837 
Q 2550 3084 2163 3084 
Q 1697 3084 1428 2787 
Q 1159 2491 1159 1978 
L 1159 0 
L 581 0 
L 581 3500 
L 1159 3500 
L 1159 2956 
Q 1366 3272 1645 3428 
Q 1925 3584 2291 3584 
Q 2894 3584 3203 3211 
Q 3513 2838 3513 2113 
z
" transform="scale(0.015625)"/>
       <path id="DejaVuSans-6f" d="M 1959 3097 
Q 1497 3097 1228 2736 
Q 959 2375 959 1747 
Q 959 1119 1226 758 
Q 1494 397 1959 397 
Q 2419 397 2687 759 
Q 2956 1122 2956 1747 
Q 2956 2369 2687 2733 
Q 2419 3097 1959 3097 
z
M 1959 3584 
Q 2709 3584 3137 3096 
Q 3566 2609 3566 1747 
Q 3566 888 3137 398 
Q 2709 -91 1959 -91 
Q 1206 -91 779 398 
Q 353 888 353 1747 
Q 353 2609 779 3096 
Q 1206 3584 1959 3584 
z
" transform="scale(0.015625)"/>
       <path id="DejaVuSans-20" transform="scale(0.015625)"/>
       <path id="DejaVuSans-61" d="M 2194 1759 
Q 1497 1759 1228 1600 
Q 959 1441 959 1056 
Q 959 750 1161 570 
Q 1363 391 1709 391 
Q 2188 391 2477 730 
Q 2766 1069 2766 1631 
L 2766 1759 
L 2194 1759 
z
M 3341 1997 
L 3341 0 
L 2766 0 
L 2766 531 
Q 2569 213 2275 61 
Q 1981 -91 1556 -91 
Q 1019 -91 701 211 
Q 384 513 384 1019 
Q 384 1609 779 1909 
Q 1175 2209 1959 2209 
L 2766 2209 
L 2766 2266 
Q 2766 2663 2505 2880 
Q 2244 3097 1772 3097 
Q 1472 3097 1187 3025 
Q 903 2953 641 2809 
L 641 3341 
Q 956 3463 1253 3523 
Q 1550 3584 1831 3584 
Q 2591 3584 2966 3190 
Q 3341 2797 3341 1997 
z
" transform="scale(0.015625)"/>
       <path id="DejaVuSans-63" d="M 3122 3366 
L 3122 2828 
Q 2878 2963 2633 3030 
Q 2388 3097 2138 3097 
Q 1578 3097 1268 2742 
Q 959 2388 959 1747 
Q 959 1106 1268 751 
Q 1578 397 2138 397 
Q 2388 397 2633 464 
Q 2878 531 3122 666 
L 3122 134 
Q 2881 22 2623 -34 
Q 2366 -91 2075 -91 
Q 1284 -91 818 406 
Q 353 903 353 1747 
Q 353 2603 823 3093 
Q 1294 3584 2113 3584 
Q 2378 3584 2631 3529 
Q 2884 3475 3122 3366 
z
" transform="scale(0.015625)"/>
       <path id="DejaVuSans-64" d="M 2906 2969 
L 2906 4863 
L 3481 4863 
L 3481 0 
L 2906 0 
L 2906 525 
Q 2725 213 2448 61 
Q 2172 -91 1784 -91 
Q 1150 -91 751 415 
Q 353 922 353 1747 
Q 353 2572 751 3078 
Q 1150 3584 1784 3584 
Q 2172 3584 2448 3432 
Q 2725 3281 2906 2969 
z
M 947 1747 
Q 947 1113 1208 752 
Q 1469 391 1925 391 
Q 2381 391 2643 752 
Q 2906 1113 2906 1747 
Q 2906 2381 2643 2742 
Q 2381 3103 1925 3103 
Q 1469 3103 1208 2742 
Q 947 2381 947 1747 
z
" transform="scale(0.015625)"/>
      </defs>
      <use xlink:href="#DejaVuSans-41"/>
      <use xlink:href="#DejaVuSans-6d" x="68.408203"/>
      <use xlink:href="#DejaVuSans-69" x="165.820312"/>
      <use xlink:href="#DejaVuSans-6e" x="193.603516"/>
      <use xlink:href="#DejaVuSans-6f" x="256.982422"/>
      <use xlink:href="#DejaVuSans-20" x="318.164062"/>
      <use xlink:href="#DejaVuSans-61" x="349.951172"/>
      <use xlink:href="#DejaVuSans-63" x="411.230469"/>
      <use xlink:href="#DejaVuSans-69" x="466.210938"/>
      <use xlink:href="#DejaVuSans-64" x="493.994141"/>
     </g>
    </g>
   </g>
   <g id="matplotlib.axis_2">
    <g id="ytick_1">
     <g id="line2d_41">
      <path d="M 50.14375 410.398125 
L 831.34375 410.398125 
" clip-path="url(#p535c0c603e)" style="fill: none; stroke: #b0b0b0; stroke-opacity: 0.5; stroke-width: 0.8; stroke-linecap: square"/>
     </g>
     <g id="line2d_42">
      <defs>
       <path id="md42f6b0303" d="M 0 0 
L -3.5 0 
" style="stroke: #000000; stroke-width: 0.8"/>
      </defs>
      <g>
       <use xlink:href="#md42f6b0303" x="50.14375" y="410.398125" style="stroke: #000000; stroke-width: 0.8"/>
      </g>
     </g>
     <g id="text_22">
      <!-- 0.00 -->
      <g transform="translate(20.878125 414.197344) scale(0.1 -0.1)">
       <defs>
        <path id="DejaVuSans-30" d="M 2034 4250 
Q 1547 4250 1301 3770 
Q 1056 3291 1056 2328 
Q 1056 1369 1301 889 
Q 1547 409 2034 409 
Q 2525 409 2770 889 
Q 3016 1369 3016 2328 
Q 3016 3291 2770 3770 
Q 2525 4250 2034 4250 
z
M 2034 4750 
Q 2819 4750 3233 4129 
Q 3647 3509 3647 2328 
Q 3647 1150 3233 529 
Q 2819 -91 2034 -91 
Q 1250 -91 836 529 
Q 422 1150 422 2328 
Q 422 3509 836 4129 
Q 1250 4750 2034 4750 
z
" transform="scale(0.015625)"/>
        <path id="DejaVuSans-2e" d="M 684 794 
L 1344 794 
L 1344 0 
L 684 0 
L 684 794 
z
" transform="scale(0.015625)"/>
       </defs>
       <use xlink:href="#DejaVuSans-30"/>
       <use xlink:href="#DejaVuSans-2e" x="63.623047"/>
       <use xlink:href="#DejaVuSans-30" x="95.410156"/>
       <use xlink:href="#DejaVuSans-30" x="159.033203"/>
      </g>
     </g>
    </g>
    <g id="ytick_2">
     <g id="line2d_43">
      <path d="M 50.14375 351.265001 
L 831.34375 351.265001 
" clip-path="url(#p535c0c603e)" style="fill: none; stroke: #b0b0b0; stroke-opacity: 0.5; stroke-width: 0.8; stroke-linecap: square"/>
     </g>
     <g id="line2d_44">
      <g>
       <use xlink:href="#md42f6b0303" x="50.14375" y="351.265001" style="stroke: #000000; stroke-width: 0.8"/>
      </g>
     </g>
     <g id="text_23">
      <!-- 0.02 -->
      <g transform="translate(20.878125 355.06422) scale(0.1 -0.1)">
       <defs>
        <path id="DejaVuSans-32" d="M 1228 531 
L 3431 531 
L 3431 0 
L 469 0 
L 469 531 
Q 828 903 1448 1529 
Q 2069 2156 2228 2338 
Q 2531 2678 2651 2914 
Q 2772 3150 2772 3378 
Q 2772 3750 2511 3984 
Q 2250 4219 1831 4219 
Q 1534 4219 1204 4116 
Q 875 4013 500 3803 
L 500 4441 
Q 881 4594 1212 4672 
Q 1544 4750 1819 4750 
Q 2544 4750 2975 4387 
Q 3406 4025 3406 3419 
Q 3406 3131 3298 2873 
Q 3191 2616 2906 2266 
Q 2828 2175 2409 1742 
Q 1991 1309 1228 531 
z
" transform="scale(0.015625)"/>
       </defs>
       <use xlink:href="#DejaVuSans-30"/>
       <use xlink:href="#DejaVuSans-2e" x="63.623047"/>
       <use xlink:href="#DejaVuSans-30" x="95.410156"/>
       <use xlink:href="#DejaVuSans-32" x="159.033203"/>
      </g>
     </g>
    </g>
    <g id="ytick_3">
     <g id="line2d_45">
      <path d="M 50.14375 292.131878 
L 831.34375 292.131878 
" clip-path="url(#p535c0c603e)" style="fill: none; stroke: #b0b0b0; stroke-opacity: 0.5; stroke-width: 0.8; stroke-linecap: square"/>
     </g>
     <g id="line2d_46">
      <g>
       <use xlink:href="#md42f6b0303" x="50.14375" y="292.131878" style="stroke: #000000; stroke-width: 0.8"/>
      </g>
     </g>
     <g id="text_24">
      <!-- 0.04 -->
      <g transform="translate(20.878125 295.931096) scale(0.1 -0.1)">
       <defs>
        <path id="DejaVuSans-34" d="M 2419 4116 
L 825 1625 
L 2419 1625 
L 2419 4116 
z
M 2253 4666 
L 3047 4666 
L 3047 1625 
L 3713 1625 
L 3713 1100 
L 3047 1100 
L 3047 0 
L 2419 0 
L 2419 1100 
L 313 1100 
L 313 1709 
L 2253 4666 
z
" transform="scale(0.015625)"/>
       </defs>
       <use xlink:href="#DejaVuSans-30"/>
       <use xlink:href="#DejaVuSans-2e" x="63.623047"/>
       <use xlink:href="#DejaVuSans-30" x="95.410156"/>
       <use xlink:href="#DejaVuSans-34" x="159.033203"/>
      </g>
     </g>
    </g>
    <g id="ytick_4">
     <g id="line2d_47">
      <path d="M 50.14375 232.998754 
L 831.34375 232.998754 
" clip-path="url(#p535c0c603e)" style="fill: none; stroke: #b0b0b0; stroke-opacity: 0.5; stroke-width: 0.8; stroke-linecap: square"/>
     </g>
     <g id="line2d_48">
      <g>
       <use xlink:href="#md42f6b0303" x="50.14375" y="232.998754" style="stroke: #000000; stroke-width: 0.8"/>
      </g>
     </g>
     <g id="text_25">
      <!-- 0.06 -->
      <g transform="translate(20.878125 236.797973) scale(0.1 -0.1)">
       <defs>
        <path id="DejaVuSans-36" d="M 2113 2584 
Q 1688 2584 1439 2293 
Q 1191 2003 1191 1497 
Q 1191 994 1439 701 
Q 1688 409 2113 409 
Q 2538 409 2786 701 
Q 3034 994 3034 1497 
Q 3034 2003 2786 2293 
Q 2538 2584 2113 2584 
z
M 3366 4563 
L 3366 3988 
Q 3128 4100 2886 4159 
Q 2644 4219 2406 4219 
Q 1781 4219 1451 3797 
Q 1122 3375 1075 2522 
Q 1259 2794 1537 2939 
Q 1816 3084 2150 3084 
Q 2853 3084 3261 2657 
Q 3669 2231 3669 1497 
Q 3669 778 3244 343 
Q 2819 -91 2113 -91 
Q 1303 -91 875 529 
Q 447 1150 447 2328 
Q 447 3434 972 4092 
Q 1497 4750 2381 4750 
Q 2619 4750 2861 4703 
Q 3103 4656 3366 4563 
z
" transform="scale(0.015625)"/>
       </defs>
       <use xlink:href="#DejaVuSans-30"/>
       <use xlink:href="#DejaVuSans-2e" x="63.623047"/>
       <use xlink:href="#DejaVuSans-30" x="95.410156"/>
       <use xlink:href="#DejaVuSans-36" x="159.033203"/>
      </g>
     </g>
    </g>
    <g id="ytick_5">
     <g id="line2d_49">
      <path d="M 50.14375 173.86563 
L 831.34375 173.86563 
" clip-path="url(#p535c0c603e)" style="fill: none; stroke: #b0b0b0; stroke-opacity: 0.5; stroke-width: 0.8; stroke-linecap: square"/>
     </g>
     <g id="line2d_50">
      <g>
       <use xlink:href="#md42f6b0303" x="50.14375" y="173.86563" style="stroke: #000000; stroke-width: 0.8"/>
      </g>
     </g>
     <g id="text_26">
      <!-- 0.08 -->
      <g transform="translate(20.878125 177.664849) scale(0.1 -0.1)">
       <defs>
        <path id="DejaVuSans-38" d="M 2034 2216 
Q 1584 2216 1326 1975 
Q 1069 1734 1069 1313 
Q 1069 891 1326 650 
Q 1584 409 2034 409 
Q 2484 409 2743 651 
Q 3003 894 3003 1313 
Q 3003 1734 2745 1975 
Q 2488 2216 2034 2216 
z
M 1403 2484 
Q 997 2584 770 2862 
Q 544 3141 544 3541 
Q 544 4100 942 4425 
Q 1341 4750 2034 4750 
Q 2731 4750 3128 4425 
Q 3525 4100 3525 3541 
Q 3525 3141 3298 2862 
Q 3072 2584 2669 2484 
Q 3125 2378 3379 2068 
Q 3634 1759 3634 1313 
Q 3634 634 3220 271 
Q 2806 -91 2034 -91 
Q 1263 -91 848 271 
Q 434 634 434 1313 
Q 434 1759 690 2068 
Q 947 2378 1403 2484 
z
M 1172 3481 
Q 1172 3119 1398 2916 
Q 1625 2713 2034 2713 
Q 2441 2713 2670 2916 
Q 2900 3119 2900 3481 
Q 2900 3844 2670 4047 
Q 2441 4250 2034 4250 
Q 1625 4250 1398 4047 
Q 1172 3844 1172 3481 
z
" transform="scale(0.015625)"/>
       </defs>
       <use xlink:href="#DejaVuSans-30"/>
       <use xlink:href="#DejaVuSans-2e" x="63.623047"/>
       <use xlink:href="#DejaVuSans-30" x="95.410156"/>
       <use xlink:href="#DejaVuSans-38" x="159.033203"/>
      </g>
     </g>
    </g>
    <g id="ytick_6">
     <g id="line2d_51">
      <path d="M 50.14375 114.732507 
L 831.34375 114.732507 
" clip-path="url(#p535c0c603e)" style="fill: none; stroke: #b0b0b0; stroke-opacity: 0.5; stroke-width: 0.8; stroke-linecap: square"/>
     </g>
     <g id="line2d_52">
      <g>
       <use xlink:href="#md42f6b0303" x="50.14375" y="114.732507" style="stroke: #000000; stroke-width: 0.8"/>
      </g>
     </g>
     <g id="text_27">
      <!-- 0.10 -->
      <g transform="translate(20.878125 118.531725) scale(0.1 -0.1)">
       <defs>
        <path id="DejaVuSans-31" d="M 794 531 
L 1825 531 
L 1825 4091 
L 703 3866 
L 703 4441 
L 1819 4666 
L 2450 4666 
L 2450 531 
L 3481 531 
L 3481 0 
L 794 0 
L 794 531 
z
" transform="scale(0.015625)"/>
       </defs>
       <use xlink:href="#DejaVuSans-30"/>
       <use xlink:href="#DejaVuSans-2e" x="63.623047"/>
       <use xlink:href="#DejaVuSans-31" x="95.410156"/>
       <use xlink:href="#DejaVuSans-30" x="159.033203"/>
      </g>
     </g>
    </g>
    <g id="ytick_7">
     <g id="line2d_53">
      <path d="M 50.14375 55.599383 
L 831.34375 55.599383 
" clip-path="url(#p535c0c603e)" style="fill: none; stroke: #b0b0b0; stroke-opacity: 0.5; stroke-width: 0.8; stroke-linecap: square"/>
     </g>
     <g id="line2d_54">
      <g>
       <use xlink:href="#md42f6b0303" x="50.14375" y="55.599383" style="stroke: #000000; stroke-width: 0.8"/>
      </g>
     </g>
     <g id="text_28">
      <!-- 0.12 -->
      <g transform="translate(20.878125 59.398602) scale(0.1 -0.1)">
       <use xlink:href="#DejaVuSans-30"/>
       <use xlink:href="#DejaVuSans-2e" x="63.623047"/>
       <use xlink:href="#DejaVuSans-31" x="95.410156"/>
       <use xlink:href="#DejaVuSans-32" x="159.033203"/>
      </g>
     </g>
    </g>
    <g id="text_29">
     <!-- Mean distribution -->
     <g transform="translate(14.798438 260.063594) rotate(-90) scale(0.1 -0.1)">
      <defs>
       <path id="DejaVuSans-65" d="M 3597 1894 
L 3597 1613 
L 953 1613 
Q 991 1019 1311 708 
Q 1631 397 2203 397 
Q 2534 397 2845 478 
Q 3156 559 3463 722 
L 3463 178 
Q 3153 47 2828 -22 
Q 2503 -91 2169 -91 
Q 1331 -91 842 396 
Q 353 884 353 1716 
Q 353 2575 817 3079 
Q 1281 3584 2069 3584 
Q 2775 3584 3186 3129 
Q 3597 2675 3597 1894 
z
M 3022 2063 
Q 3016 2534 2758 2815 
Q 2500 3097 2075 3097 
Q 1594 3097 1305 2825 
Q 1016 2553 972 2059 
L 3022 2063 
z
" transform="scale(0.015625)"/>
       <path id="DejaVuSans-73" d="M 2834 3397 
L 2834 2853 
Q 2591 2978 2328 3040 
Q 2066 3103 1784 3103 
Q 1356 3103 1142 2972 
Q 928 2841 928 2578 
Q 928 2378 1081 2264 
Q 1234 2150 1697 2047 
L 1894 2003 
Q 2506 1872 2764 1633 
Q 3022 1394 3022 966 
Q 3022 478 2636 193 
Q 2250 -91 1575 -91 
Q 1294 -91 989 -36 
Q 684 19 347 128 
L 347 722 
Q 666 556 975 473 
Q 1284 391 1588 391 
Q 1994 391 2212 530 
Q 2431 669 2431 922 
Q 2431 1156 2273 1281 
Q 2116 1406 1581 1522 
L 1381 1569 
Q 847 1681 609 1914 
Q 372 2147 372 2553 
Q 372 3047 722 3315 
Q 1072 3584 1716 3584 
Q 2034 3584 2315 3537 
Q 2597 3491 2834 3397 
z
" transform="scale(0.015625)"/>
       <path id="DejaVuSans-74" d="M 1172 4494 
L 1172 3500 
L 2356 3500 
L 2356 3053 
L 1172 3053 
L 1172 1153 
Q 1172 725 1289 603 
Q 1406 481 1766 481 
L 2356 481 
L 2356 0 
L 1766 0 
Q 1100 0 847 248 
Q 594 497 594 1153 
L 594 3053 
L 172 3053 
L 172 3500 
L 594 3500 
L 594 4494 
L 1172 4494 
z
" transform="scale(0.015625)"/>
       <path id="DejaVuSans-72" d="M 2631 2963 
Q 2534 3019 2420 3045 
Q 2306 3072 2169 3072 
Q 1681 3072 1420 2755 
Q 1159 2438 1159 1844 
L 1159 0 
L 581 0 
L 581 3500 
L 1159 3500 
L 1159 2956 
Q 1341 3275 1631 3429 
Q 1922 3584 2338 3584 
Q 2397 3584 2469 3576 
Q 2541 3569 2628 3553 
L 2631 2963 
z
" transform="scale(0.015625)"/>
       <path id="DejaVuSans-62" d="M 3116 1747 
Q 3116 2381 2855 2742 
Q 2594 3103 2138 3103 
Q 1681 3103 1420 2742 
Q 1159 2381 1159 1747 
Q 1159 1113 1420 752 
Q 1681 391 2138 391 
Q 2594 391 2855 752 
Q 3116 1113 3116 1747 
z
M 1159 2969 
Q 1341 3281 1617 3432 
Q 1894 3584 2278 3584 
Q 2916 3584 3314 3078 
Q 3713 2572 3713 1747 
Q 3713 922 3314 415 
Q 2916 -91 2278 -91 
Q 1894 -91 1617 61 
Q 1341 213 1159 525 
L 1159 0 
L 581 0 
L 581 4863 
L 1159 4863 
L 1159 2969 
z
" transform="scale(0.015625)"/>
       <path id="DejaVuSans-75" d="M 544 1381 
L 544 3500 
L 1119 3500 
L 1119 1403 
Q 1119 906 1312 657 
Q 1506 409 1894 409 
Q 2359 409 2629 706 
Q 2900 1003 2900 1516 
L 2900 3500 
L 3475 3500 
L 3475 0 
L 2900 0 
L 2900 538 
Q 2691 219 2414 64 
Q 2138 -91 1772 -91 
Q 1169 -91 856 284 
Q 544 659 544 1381 
z
M 1991 3584 
L 1991 3584 
z
" transform="scale(0.015625)"/>
      </defs>
      <use xlink:href="#DejaVuSans-4d"/>
      <use xlink:href="#DejaVuSans-65" x="86.279297"/>
      <use xlink:href="#DejaVuSans-61" x="147.802734"/>
      <use xlink:href="#DejaVuSans-6e" x="209.082031"/>
      <use xlink:href="#DejaVuSans-20" x="272.460938"/>
      <use xlink:href="#DejaVuSans-64" x="304.248047"/>
      <use xlink:href="#DejaVuSans-69" x="367.724609"/>
      <use xlink:href="#DejaVuSans-73" x="395.507812"/>
      <use xlink:href="#DejaVuSans-74" x="447.607422"/>
      <use xlink:href="#DejaVuSans-72" x="486.816406"/>
      <use xlink:href="#DejaVuSans-69" x="527.929688"/>
      <use xlink:href="#DejaVuSans-62" x="555.712891"/>
      <use xlink:href="#DejaVuSans-75" x="619.189453"/>
      <use xlink:href="#DejaVuSans-74" x="682.568359"/>
      <use xlink:href="#DejaVuSans-69" x="721.777344"/>
      <use xlink:href="#DejaVuSans-6f" x="749.560547"/>
      <use xlink:href="#DejaVuSans-6e" x="810.742188"/>
     </g>
    </g>
   </g>
   <g id="patch_3">
    <path d="M 59.90875 410.398125 
L 64.79125 410.398125 
L 64.79125 336.396356 
L 59.90875 336.396356 
z
" clip-path="url(#p535c0c603e)" style="fill: #1f77b4"/>
   </g>
   <g id="patch_4">
    <path d="M 98.96875 410.398125 
L 103.85125 410.398125 
L 103.85125 378.563471 
L 98.96875 378.563471 
z
" clip-path="url(#p535c0c603e)" style="fill: #1f77b4"/>
   </g>
   <g id="patch_5">
    <path d="M 138.02875 410.398125 
L 142.91125 410.398125 
L 142.91125 369.90766 
L 138.02875 369.90766 
z
" clip-path="url(#p535c0c603e)" style="fill: #1f77b4"/>
   </g>
   <g id="patch_6">
    <path d="M 177.08875 410.398125 
L 181.97125 410.398125 
L 181.97125 241.419795 
L 177.08875 241.419795 
z
" clip-path="url(#p535c0c603e)" style="fill: #1f77b4"/>
   </g>
   <g id="patch_7">
    <path d="M 216.14875 410.398125 
L 221.03125 410.398125 
L 221.03125 160.5342 
L 216.14875 160.5342 
z
" clip-path="url(#p535c0c603e)" style="fill: #1f77b4"/>
   </g>
   <g id="patch_8">
    <path d="M 255.20875 410.398125 
L 260.09125 410.398125 
L 260.09125 308.671891 
L 255.20875 308.671891 
z
" clip-path="url(#p535c0c603e)" style="fill: #1f77b4"/>
   </g>
   <g id="patch_9">
    <path d="M 294.26875 410.398125 
L 299.15125 410.398125 
L 299.15125 355.581497 
L 294.26875 355.581497 
z
" clip-path="url(#p535c0c603e)" style="fill: #1f77b4"/>
   </g>
   <g id="patch_10">
    <path d="M 333.32875 410.398125 
L 338.21125 410.398125 
L 338.21125 196.701274 
L 333.32875 196.701274 
z
" clip-path="url(#p535c0c603e)" style="fill: #1f77b4"/>
   </g>
   <g id="patch_11">
    <path d="M 372.38875 410.398125 
L 377.27125 410.398125 
L 377.27125 306.954688 
L 372.38875 306.954688 
z
" clip-path="url(#p535c0c603e)" style="fill: #1f77b4"/>
   </g>
   <g id="patch_12">
    <path d="M 411.44875 410.398125 
L 416.33125 410.398125 
L 416.33125 343.797962 
L 411.44875 343.797962 
z
" clip-path="url(#p535c0c603e)" style="fill: #1f77b4"/>
   </g>
   <g id="patch_13">
    <path d="M 450.50875 410.398125 
L 455.39125 410.398125 
L 455.39125 311.780644 
L 450.50875 311.780644 
z
" clip-path="url(#p535c0c603e)" style="fill: #1f77b4"/>
   </g>
   <g id="patch_14">
    <path d="M 489.56875 410.398125 
L 494.45125 410.398125 
L 494.45125 186.417688 
L 489.56875 186.417688 
z
" clip-path="url(#p535c0c603e)" style="fill: #1f77b4"/>
   </g>
   <g id="patch_15">
    <path d="M 528.62875 410.398125 
L 533.51125 410.398125 
L 533.51125 185.399874 
L 528.62875 185.399874 
z
" clip-path="url(#p535c0c603e)" style="fill: #1f77b4"/>
   </g>
   <g id="patch_16">
    <path d="M 567.68875 410.398125 
L 572.57125 410.398125 
L 572.57125 192.250591 
L 567.68875 192.250591 
z
" clip-path="url(#p535c0c603e)" style="fill: #1f77b4"/>
   </g>
   <g id="patch_17">
    <path d="M 606.74875 410.398125 
L 611.63125 410.398125 
L 611.63125 288.453773 
L 606.74875 288.453773 
z
" clip-path="url(#p535c0c603e)" style="fill: #1f77b4"/>
   </g>
   <g id="patch_18">
    <path d="M 645.80875 410.398125 
L 650.69125 410.398125 
L 650.69125 273.364039 
L 645.80875 273.364039 
z
" clip-path="url(#p535c0c603e)" style="fill: #1f77b4"/>
   </g>
   <g id="patch_19">
    <path d="M 684.86875 410.398125 
L 689.75125 410.398125 
L 689.75125 171.457706 
L 684.86875 171.457706 
z
" clip-path="url(#p535c0c603e)" style="fill: #1f77b4"/>
   </g>
   <g id="patch_20">
    <path d="M 723.92875 410.398125 
L 728.81125 410.398125 
L 728.81125 151.689378 
L 723.92875 151.689378 
z
" clip-path="url(#p535c0c603e)" style="fill: #1f77b4"/>
   </g>
   <g id="patch_21">
    <path d="M 762.98875 410.398125 
L 767.87125 410.398125 
L 767.87125 232.027685 
L 762.98875 232.027685 
z
" clip-path="url(#p535c0c603e)" style="fill: #1f77b4"/>
   </g>
   <g id="patch_22">
    <path d="M 802.04875 410.398125 
L 806.93125 410.398125 
L 806.93125 259.936144 
L 802.04875 259.936144 
z
" clip-path="url(#p535c0c603e)" style="fill: #1f77b4"/>
   </g>
   <g id="patch_23">
    <path d="M 64.79125 410.398125 
L 69.67375 410.398125 
L 69.67375 334.641833 
L 64.79125 334.641833 
z
" clip-path="url(#p535c0c603e)" style="fill: #ff7f0e"/>
   </g>
   <g id="patch_24">
    <path d="M 103.85125 410.398125 
L 108.73375 410.398125 
L 108.73375 374.479183 
L 103.85125 374.479183 
z
" clip-path="url(#p535c0c603e)" style="fill: #ff7f0e"/>
   </g>
   <g id="patch_25">
    <path d="M 142.91125 410.398125 
L 147.79375 410.398125 
L 147.79375 373.832946 
L 142.91125 373.832946 
z
" clip-path="url(#p535c0c603e)" style="fill: #ff7f0e"/>
   </g>
   <g id="patch_26">
    <path d="M 181.97125 410.398125 
L 186.85375 410.398125 
L 186.85375 249.173631 
L 181.97125 249.173631 
z
" clip-path="url(#p535c0c603e)" style="fill: #ff7f0e"/>
   </g>
   <g id="patch_27">
    <path d="M 221.03125 410.398125 
L 225.91375 410.398125 
L 225.91375 213.004026 
L 221.03125 213.004026 
z
" clip-path="url(#p535c0c603e)" style="fill: #ff7f0e"/>
   </g>
   <g id="patch_28">
    <path d="M 260.09125 410.398125 
L 264.97375 410.398125 
L 264.97375 302.34533 
L 260.09125 302.34533 
z
" clip-path="url(#p535c0c603e)" style="fill: #ff7f0e"/>
   </g>
   <g id="patch_29">
    <path d="M 299.15125 410.398125 
L 304.03375 410.398125 
L 304.03375 343.405062 
L 299.15125 343.405062 
z
" clip-path="url(#p535c0c603e)" style="fill: #ff7f0e"/>
   </g>
   <g id="patch_30">
    <path d="M 338.21125 410.398125 
L 343.09375 410.398125 
L 343.09375 236.97783 
L 338.21125 236.97783 
z
" clip-path="url(#p535c0c603e)" style="fill: #ff7f0e"/>
   </g>
   <g id="patch_31">
    <path d="M 377.27125 410.398125 
L 382.15375 410.398125 
L 382.15375 304.36233 
L 377.27125 304.36233 
z
" clip-path="url(#p535c0c603e)" style="fill: #ff7f0e"/>
   </g>
   <g id="patch_32">
    <path d="M 416.33125 410.398125 
L 421.21375 410.398125 
L 421.21375 300.838582 
L 416.33125 300.838582 
z
" clip-path="url(#p535c0c603e)" style="fill: #ff7f0e"/>
   </g>
   <g id="patch_33">
    <path d="M 455.39125 410.398125 
L 460.27375 410.398125 
L 460.27375 330.542087 
L 455.39125 330.542087 
z
" clip-path="url(#p535c0c603e)" style="fill: #ff7f0e"/>
   </g>
   <g id="patch_34">
    <path d="M 494.45125 410.398125 
L 499.33375 410.398125 
L 499.33375 226.954181 
L 494.45125 226.954181 
z
" clip-path="url(#p535c0c603e)" style="fill: #ff7f0e"/>
   </g>
   <g id="patch_35">
    <path d="M 533.51125 410.398125 
L 538.39375 410.398125 
L 538.39375 129.60904 
L 533.51125 129.60904 
z
" clip-path="url(#p535c0c603e)" style="fill: #ff7f0e"/>
   </g>
   <g id="patch_36">
    <path d="M 572.57125 410.398125 
L 577.45375 410.398125 
L 577.45375 187.567057 
L 572.57125 187.567057 
z
" clip-path="url(#p535c0c603e)" style="fill: #ff7f0e"/>
   </g>
   <g id="patch_37">
    <path d="M 611.63125 410.398125 
L 616.51375 410.398125 
L 616.51375 285.642385 
L 611.63125 285.642385 
z
" clip-path="url(#p535c0c603e)" style="fill: #ff7f0e"/>
   </g>
   <g id="patch_38">
    <path d="M 650.69125 410.398125 
L 655.57375 410.398125 
L 655.57375 258.420239 
L 650.69125 258.420239 
z
" clip-path="url(#p535c0c603e)" style="fill: #ff7f0e"/>
   </g>
   <g id="patch_39">
    <path d="M 689.75125 410.398125 
L 694.63375 410.398125 
L 694.63375 189.319183 
L 689.75125 189.319183 
z
" clip-path="url(#p535c0c603e)" style="fill: #ff7f0e"/>
   </g>
   <g id="patch_40">
    <path d="M 728.81125 410.398125 
L 733.69375 410.398125 
L 733.69375 127.114303 
L 728.81125 127.114303 
z
" clip-path="url(#p535c0c603e)" style="fill: #ff7f0e"/>
   </g>
   <g id="patch_41">
    <path d="M 767.87125 410.398125 
L 772.75375 410.398125 
L 772.75375 229.664867 
L 767.87125 229.664867 
z
" clip-path="url(#p535c0c603e)" style="fill: #ff7f0e"/>
   </g>
   <g id="patch_42">
    <path d="M 806.93125 410.398125 
L 811.81375 410.398125 
L 811.81375 253.41222 
L 806.93125 253.41222 
z
" clip-path="url(#p535c0c603e)" style="fill: #ff7f0e"/>
   </g>
   <g id="patch_43">
    <path d="M 69.67375 410.398125 
L 74.55625 410.398125 
L 74.55625 339.654679 
L 69.67375 339.654679 
z
" clip-path="url(#p535c0c603e)" style="fill: #2ca02c"/>
   </g>
   <g id="patch_44">
    <path d="M 108.73375 410.398125 
L 113.61625 410.398125 
L 113.61625 370.660249 
L 108.73375 370.660249 
z
" clip-path="url(#p535c0c603e)" style="fill: #2ca02c"/>
   </g>
   <g id="patch_45">
    <path d="M 147.79375 410.398125 
L 152.67625 410.398125 
L 152.67625 347.848115 
L 147.79375 347.848115 
z
" clip-path="url(#p535c0c603e)" style="fill: #2ca02c"/>
   </g>
   <g id="patch_46">
    <path d="M 186.85375 410.398125 
L 191.73625 410.398125 
L 191.73625 260.562548 
L 186.85375 260.562548 
z
" clip-path="url(#p535c0c603e)" style="fill: #2ca02c"/>
   </g>
   <g id="patch_47">
    <path d="M 225.91375 410.398125 
L 230.79625 410.398125 
L 230.79625 216.930755 
L 225.91375 216.930755 
z
" clip-path="url(#p535c0c603e)" style="fill: #2ca02c"/>
   </g>
   <g id="patch_48">
    <path d="M 264.97375 410.398125 
L 269.85625 410.398125 
L 269.85625 289.675356 
L 264.97375 289.675356 
z
" clip-path="url(#p535c0c603e)" style="fill: #2ca02c"/>
   </g>
   <g id="patch_49">
    <path d="M 304.03375 410.398125 
L 308.91625 410.398125 
L 308.91625 338.862938 
L 304.03375 338.862938 
z
" clip-path="url(#p535c0c603e)" style="fill: #2ca02c"/>
   </g>
   <g id="patch_50">
    <path d="M 343.09375 410.398125 
L 347.97625 410.398125 
L 347.97625 227.927317 
L 343.09375 227.927317 
z
" clip-path="url(#p535c0c603e)" style="fill: #2ca02c"/>
   </g>
   <g id="patch_51">
    <path d="M 382.15375 410.398125 
L 387.03625 410.398125 
L 387.03625 286.113967 
L 382.15375 286.113967 
z
" clip-path="url(#p535c0c603e)" style="fill: #2ca02c"/>
   </g>
   <g id="patch_52">
    <path d="M 421.21375 410.398125 
L 426.09625 410.398125 
L 426.09625 286.462103 
L 421.21375 286.462103 
z
" clip-path="url(#p535c0c603e)" style="fill: #2ca02c"/>
   </g>
   <g id="patch_53">
    <path d="M 460.27375 410.398125 
L 465.15625 410.398125 
L 465.15625 320.681476 
L 460.27375 320.681476 
z
" clip-path="url(#p535c0c603e)" style="fill: #2ca02c"/>
   </g>
   <g id="patch_54">
    <path d="M 499.33375 410.398125 
L 504.21625 410.398125 
L 504.21625 258.942916 
L 499.33375 258.942916 
z
" clip-path="url(#p535c0c603e)" style="fill: #2ca02c"/>
   </g>
   <g id="patch_55">
    <path d="M 538.39375 410.398125 
L 543.27625 410.398125 
L 543.27625 201.661573 
L 538.39375 201.661573 
z
" clip-path="url(#p535c0c603e)" style="fill: #2ca02c"/>
   </g>
   <g id="patch_56">
    <path d="M 577.45375 410.398125 
L 582.33625 410.398125 
L 582.33625 220.197388 
L 577.45375 220.197388 
z
" clip-path="url(#p535c0c603e)" style="fill: #2ca02c"/>
   </g>
   <g id="patch_57">
    <path d="M 616.51375 410.398125 
L 621.39625 410.398125 
L 621.39625 253.547753 
L 616.51375 253.547753 
z
" clip-path="url(#p535c0c603e)" style="fill: #2ca02c"/>
   </g>
   <g id="patch_58">
    <path d="M 655.57375 410.398125 
L 660.45625 410.398125 
L 660.45625 252.728344 
L 655.57375 252.728344 
z
" clip-path="url(#p535c0c603e)" style="fill: #2ca02c"/>
   </g>
   <g id="patch_59">
    <path d="M 694.63375 410.398125 
L 699.51625 410.398125 
L 699.51625 225.618179 
L 694.63375 225.618179 
z
" clip-path="url(#p535c0c603e)" style="fill: #2ca02c"/>
   </g>
   <g id="patch_60">
    <path d="M 733.69375 410.398125 
L 738.57625 410.398125 
L 738.57625 127.637587 
L 733.69375 127.637587 
z
" clip-path="url(#p535c0c603e)" style="fill: #2ca02c"/>
   </g>
   <g id="patch_61">
    <path d="M 772.75375 410.398125 
L 777.63625 410.398125 
L 777.63625 249.83866 
L 772.75375 249.83866 
z
" clip-path="url(#p535c0c603e)" style="fill: #2ca02c"/>
   </g>
   <g id="patch_62">
    <path d="M 811.81375 410.398125 
L 816.69625 410.398125 
L 816.69625 175.754413 
L 811.81375 175.754413 
z
" clip-path="url(#p535c0c603e)" style="fill: #2ca02c"/>
   </g>
   <g id="patch_63">
    <path d="M 74.55625 410.398125 
L 79.43875 410.398125 
L 79.43875 335.186715 
L 74.55625 335.186715 
z
" clip-path="url(#p535c0c603e)" style="fill: #d62728"/>
   </g>
   <g id="patch_64">
    <path d="M 113.61625 410.398125 
L 118.49875 410.398125 
L 118.49875 368.778393 
L 113.61625 368.778393 
z
" clip-path="url(#p535c0c603e)" style="fill: #d62728"/>
   </g>
   <g id="patch_65">
    <path d="M 152.67625 410.398125 
L 157.55875 410.398125 
L 157.55875 342.400846 
L 152.67625 342.400846 
z
" clip-path="url(#p535c0c603e)" style="fill: #d62728"/>
   </g>
   <g id="patch_66">
    <path d="M 191.73625 410.398125 
L 196.61875 410.398125 
L 196.61875 248.270583 
L 191.73625 248.270583 
z
" clip-path="url(#p535c0c603e)" style="fill: #d62728"/>
   </g>
   <g id="patch_67">
    <path d="M 230.79625 410.398125 
L 235.67875 410.398125 
L 235.67875 239.080511 
L 230.79625 239.080511 
z
" clip-path="url(#p535c0c603e)" style="fill: #d62728"/>
   </g>
   <g id="patch_68">
    <path d="M 269.85625 410.398125 
L 274.73875 410.398125 
L 274.73875 283.417871 
L 269.85625 283.417871 
z
" clip-path="url(#p535c0c603e)" style="fill: #d62728"/>
   </g>
   <g id="patch_69">
    <path d="M 308.91625 410.398125 
L 313.79875 410.398125 
L 313.79875 341.363665 
L 308.91625 341.363665 
z
" clip-path="url(#p535c0c603e)" style="fill: #d62728"/>
   </g>
   <g id="patch_70">
    <path d="M 347.97625 410.398125 
L 352.85875 410.398125 
L 352.85875 222.9858 
L 347.97625 222.9858 
z
" clip-path="url(#p535c0c603e)" style="fill: #d62728"/>
   </g>
   <g id="patch_71">
    <path d="M 387.03625 410.398125 
L 391.91875 410.398125 
L 391.91875 252.975091 
L 387.03625 252.975091 
z
" clip-path="url(#p535c0c603e)" style="fill: #d62728"/>
   </g>
   <g id="patch_72">
    <path d="M 426.09625 410.398125 
L 430.97875 410.398125 
L 430.97875 306.218882 
L 426.09625 306.218882 
z
" clip-path="url(#p535c0c603e)" style="fill: #d62728"/>
   </g>
   <g id="patch_73">
    <path d="M 465.15625 410.398125 
L 470.03875 410.398125 
L 470.03875 291.725688 
L 465.15625 291.725688 
z
" clip-path="url(#p535c0c603e)" style="fill: #d62728"/>
   </g>
   <g id="patch_74">
    <path d="M 504.21625 410.398125 
L 509.09875 410.398125 
L 509.09875 211.107686 
L 504.21625 211.107686 
z
" clip-path="url(#p535c0c603e)" style="fill: #d62728"/>
   </g>
   <g id="patch_75">
    <path d="M 543.27625 410.398125 
L 548.15875 410.398125 
L 548.15875 232.087113 
L 543.27625 232.087113 
z
" clip-path="url(#p535c0c603e)" style="fill: #d62728"/>
   </g>
   <g id="patch_76">
    <path d="M 582.33625 410.398125 
L 587.21875 410.398125 
L 587.21875 249.973155 
L 582.33625 249.973155 
z
" clip-path="url(#p535c0c603e)" style="fill: #d62728"/>
   </g>
   <g id="patch_77">
    <path d="M 621.39625 410.398125 
L 626.27875 410.398125 
L 626.27875 273.270451 
L 621.39625 273.270451 
z
" clip-path="url(#p535c0c603e)" style="fill: #d62728"/>
   </g>
   <g id="patch_78">
    <path d="M 660.45625 410.398125 
L 665.33875 410.398125 
L 665.33875 235.255517 
L 660.45625 235.255517 
z
" clip-path="url(#p535c0c603e)" style="fill: #d62728"/>
   </g>
   <g id="patch_79">
    <path d="M 699.51625 410.398125 
L 704.39875 410.398125 
L 704.39875 223.706153 
L 699.51625 223.706153 
z
" clip-path="url(#p535c0c603e)" style="fill: #d62728"/>
   </g>
   <g id="patch_80">
    <path d="M 738.57625 410.398125 
L 743.45875 410.398125 
L 743.45875 142.324441 
L 738.57625 142.324441 
z
" clip-path="url(#p535c0c603e)" style="fill: #d62728"/>
   </g>
   <g id="patch_81">
    <path d="M 777.63625 410.398125 
L 782.51875 410.398125 
L 782.51875 252.875556 
L 777.63625 252.875556 
z
" clip-path="url(#p535c0c603e)" style="fill: #d62728"/>
   </g>
   <g id="patch_82">
    <path d="M 816.69625 410.398125 
L 821.57875 410.398125 
L 821.57875 198.302196 
L 816.69625 198.302196 
z
" clip-path="url(#p535c0c603e)" style="fill: #d62728"/>
   </g>
   <g id="LineCollection_1">
    <path d="M 62.35 370.771707 
L 62.35 302.021005 
" clip-path="url(#p535c0c603e)" style="fill: none; stroke: #000000; stroke-width: 1.5"/>
    <path d="M 101.41 401.069496 
L 101.41 356.057445 
" clip-path="url(#p535c0c603e)" style="fill: none; stroke: #000000; stroke-width: 1.5"/>
    <path d="M 140.47 413.430287 
L 140.47 326.385033 
" clip-path="url(#p535c0c603e)" style="fill: none; stroke: #000000; stroke-width: 1.5"/>
    <path d="M 179.53 296.056541 
L 179.53 186.783049 
" clip-path="url(#p535c0c603e)" style="fill: none; stroke: #000000; stroke-width: 1.5"/>
    <path d="M 218.59 242.951079 
L 218.59 78.117321 
" clip-path="url(#p535c0c603e)" style="fill: none; stroke: #000000; stroke-width: 1.5"/>
    <path d="M 257.65 355.965762 
L 257.65 261.37802 
" clip-path="url(#p535c0c603e)" style="fill: none; stroke: #000000; stroke-width: 1.5"/>
    <path d="M 296.71 386.033506 
L 296.71 325.129489 
" clip-path="url(#p535c0c603e)" style="fill: none; stroke: #000000; stroke-width: 1.5"/>
    <path d="M 335.77 279.824294 
L 335.77 113.578254 
" clip-path="url(#p535c0c603e)" style="fill: none; stroke: #000000; stroke-width: 1.5"/>
    <path d="M 374.83 353.306419 
L 374.83 260.602957 
" clip-path="url(#p535c0c603e)" style="fill: none; stroke: #000000; stroke-width: 1.5"/>
    <path d="M 413.89 386.329816 
L 413.89 301.266108 
" clip-path="url(#p535c0c603e)" style="fill: none; stroke: #000000; stroke-width: 1.5"/>
    <path d="M 452.95 354.224148 
L 452.95 269.337141 
" clip-path="url(#p535c0c603e)" style="fill: none; stroke: #000000; stroke-width: 1.5"/>
    <path d="M 492.01 253.456397 
L 492.01 119.378979 
" clip-path="url(#p535c0c603e)" style="fill: none; stroke: #000000; stroke-width: 1.5"/>
    <path d="M 531.07 269.003583 
L 531.07 101.796164 
" clip-path="url(#p535c0c603e)" style="fill: none; stroke: #000000; stroke-width: 1.5"/>
    <path d="M 570.13 260.631825 
L 570.13 123.869357 
" clip-path="url(#p535c0c603e)" style="fill: none; stroke: #000000; stroke-width: 1.5"/>
    <path d="M 609.19 334.306858 
L 609.19 242.600688 
" clip-path="url(#p535c0c603e)" style="fill: none; stroke: #000000; stroke-width: 1.5"/>
    <path d="M 648.25 321.452771 
L 648.25 225.275307 
" clip-path="url(#p535c0c603e)" style="fill: none; stroke: #000000; stroke-width: 1.5"/>
    <path d="M 687.31 241.026251 
L 687.31 101.889161 
" clip-path="url(#p535c0c603e)" style="fill: none; stroke: #000000; stroke-width: 1.5"/>
    <path d="M 726.37 228.363045 
L 726.37 75.015711 
" clip-path="url(#p535c0c603e)" style="fill: none; stroke: #000000; stroke-width: 1.5"/>
    <path d="M 765.43 310.304641 
L 765.43 153.75073 
" clip-path="url(#p535c0c603e)" style="fill: none; stroke: #000000; stroke-width: 1.5"/>
    <path d="M 804.49 313.630161 
L 804.49 206.242127 
" clip-path="url(#p535c0c603e)" style="fill: none; stroke: #000000; stroke-width: 1.5"/>
   </g>
   <g id="line2d_55">
    <defs>
     <path id="m7125904a90" d="M 1 0 
L -1 -0 
" style="stroke: #000000"/>
    </defs>
    <g clip-path="url(#p535c0c603e)">
     <use xlink:href="#m7125904a90" x="62.35" y="370.771707" style="stroke: #000000"/>
     <use xlink:href="#m7125904a90" x="101.41" y="401.069496" style="stroke: #000000"/>
     <use xlink:href="#m7125904a90" x="140.47" y="413.430287" style="stroke: #000000"/>
     <use xlink:href="#m7125904a90" x="179.53" y="296.056541" style="stroke: #000000"/>
     <use xlink:href="#m7125904a90" x="218.59" y="242.951079" style="stroke: #000000"/>
     <use xlink:href="#m7125904a90" x="257.65" y="355.965762" style="stroke: #000000"/>
     <use xlink:href="#m7125904a90" x="296.71" y="386.033506" style="stroke: #000000"/>
     <use xlink:href="#m7125904a90" x="335.77" y="279.824294" style="stroke: #000000"/>
     <use xlink:href="#m7125904a90" x="374.83" y="353.306419" style="stroke: #000000"/>
     <use xlink:href="#m7125904a90" x="413.89" y="386.329816" style="stroke: #000000"/>
     <use xlink:href="#m7125904a90" x="452.95" y="354.224148" style="stroke: #000000"/>
     <use xlink:href="#m7125904a90" x="492.01" y="253.456397" style="stroke: #000000"/>
     <use xlink:href="#m7125904a90" x="531.07" y="269.003583" style="stroke: #000000"/>
     <use xlink:href="#m7125904a90" x="570.13" y="260.631825" style="stroke: #000000"/>
     <use xlink:href="#m7125904a90" x="609.19" y="334.306858" style="stroke: #000000"/>
     <use xlink:href="#m7125904a90" x="648.25" y="321.452771" style="stroke: #000000"/>
     <use xlink:href="#m7125904a90" x="687.31" y="241.026251" style="stroke: #000000"/>
     <use xlink:href="#m7125904a90" x="726.37" y="228.363045" style="stroke: #000000"/>
     <use xlink:href="#m7125904a90" x="765.43" y="310.304641" style="stroke: #000000"/>
     <use xlink:href="#m7125904a90" x="804.49" y="313.630161" style="stroke: #000000"/>
    </g>
   </g>
   <g id="line2d_56">
    <g clip-path="url(#p535c0c603e)">
     <use xlink:href="#m7125904a90" x="62.35" y="302.021005" style="stroke: #000000"/>
     <use xlink:href="#m7125904a90" x="101.41" y="356.057445" style="stroke: #000000"/>
     <use xlink:href="#m7125904a90" x="140.47" y="326.385033" style="stroke: #000000"/>
     <use xlink:href="#m7125904a90" x="179.53" y="186.783049" style="stroke: #000000"/>
     <use xlink:href="#m7125904a90" x="218.59" y="78.117321" style="stroke: #000000"/>
     <use xlink:href="#m7125904a90" x="257.65" y="261.37802" style="stroke: #000000"/>
     <use xlink:href="#m7125904a90" x="296.71" y="325.129489" style="stroke: #000000"/>
     <use xlink:href="#m7125904a90" x="335.77" y="113.578254" style="stroke: #000000"/>
     <use xlink:href="#m7125904a90" x="374.83" y="260.602957" style="stroke: #000000"/>
     <use xlink:href="#m7125904a90" x="413.89" y="301.266108" style="stroke: #000000"/>
     <use xlink:href="#m7125904a90" x="452.95" y="269.337141" style="stroke: #000000"/>
     <use xlink:href="#m7125904a90" x="492.01" y="119.378979" style="stroke: #000000"/>
     <use xlink:href="#m7125904a90" x="531.07" y="101.796164" style="stroke: #000000"/>
     <use xlink:href="#m7125904a90" x="570.13" y="123.869357" style="stroke: #000000"/>
     <use xlink:href="#m7125904a90" x="609.19" y="242.600688" style="stroke: #000000"/>
     <use xlink:href="#m7125904a90" x="648.25" y="225.275307" style="stroke: #000000"/>
     <use xlink:href="#m7125904a90" x="687.31" y="101.889161" style="stroke: #000000"/>
     <use xlink:href="#m7125904a90" x="726.37" y="75.015711" style="stroke: #000000"/>
     <use xlink:href="#m7125904a90" x="765.43" y="153.75073" style="stroke: #000000"/>
     <use xlink:href="#m7125904a90" x="804.49" y="206.242127" style="stroke: #000000"/>
    </g>
   </g>
   <g id="LineCollection_2">
    <path d="M 67.2325 369.870527 
L 67.2325 299.413138 
" clip-path="url(#p535c0c603e)" style="fill: none; stroke: #000000; stroke-width: 1.5"/>
    <path d="M 106.2925 400.60182 
L 106.2925 348.356545 
" clip-path="url(#p535c0c603e)" style="fill: none; stroke: #000000; stroke-width: 1.5"/>
    <path d="M 145.3525 403.718654 
L 145.3525 343.947238 
" clip-path="url(#p535c0c603e)" style="fill: none; stroke: #000000; stroke-width: 1.5"/>
    <path d="M 184.4125 303.486123 
L 184.4125 194.86114 
" clip-path="url(#p535c0c603e)" style="fill: none; stroke: #000000; stroke-width: 1.5"/>
    <path d="M 223.4725 285.374686 
L 223.4725 140.633365 
" clip-path="url(#p535c0c603e)" style="fill: none; stroke: #000000; stroke-width: 1.5"/>
    <path d="M 262.5325 352.395486 
L 262.5325 252.295174 
" clip-path="url(#p535c0c603e)" style="fill: none; stroke: #000000; stroke-width: 1.5"/>
    <path d="M 301.5925 378.83859 
L 301.5925 307.971535 
" clip-path="url(#p535c0c603e)" style="fill: none; stroke: #000000; stroke-width: 1.5"/>
    <path d="M 340.6525 321.265701 
L 340.6525 152.689958 
" clip-path="url(#p535c0c603e)" style="fill: none; stroke: #000000; stroke-width: 1.5"/>
    <path d="M 379.7125 349.158062 
L 379.7125 259.566599 
" clip-path="url(#p535c0c603e)" style="fill: none; stroke: #000000; stroke-width: 1.5"/>
    <path d="M 418.7725 349.551697 
L 418.7725 252.125467 
" clip-path="url(#p535c0c603e)" style="fill: none; stroke: #000000; stroke-width: 1.5"/>
    <path d="M 457.8325 367.502669 
L 457.8325 293.581505 
" clip-path="url(#p535c0c603e)" style="fill: none; stroke: #000000; stroke-width: 1.5"/>
    <path d="M 496.8925 287.19702 
L 496.8925 166.711343 
" clip-path="url(#p535c0c603e)" style="fill: none; stroke: #000000; stroke-width: 1.5"/>
    <path d="M 535.9525 218.275567 
L 535.9525 40.942514 
" clip-path="url(#p535c0c603e)" style="fill: none; stroke: #000000; stroke-width: 1.5"/>
    <path d="M 575.0125 257.786874 
L 575.0125 117.34724 
" clip-path="url(#p535c0c603e)" style="fill: none; stroke: #000000; stroke-width: 1.5"/>
    <path d="M 614.0725 331.600324 
L 614.0725 239.684447 
" clip-path="url(#p535c0c603e)" style="fill: none; stroke: #000000; stroke-width: 1.5"/>
    <path d="M 653.1325 307.699734 
L 653.1325 209.140743 
" clip-path="url(#p535c0c603e)" style="fill: none; stroke: #000000; stroke-width: 1.5"/>
    <path d="M 692.1925 255.080639 
L 692.1925 123.557726 
" clip-path="url(#p535c0c603e)" style="fill: none; stroke: #000000; stroke-width: 1.5"/>
    <path d="M 731.2525 208.452873 
L 731.2525 45.775732 
" clip-path="url(#p535c0c603e)" style="fill: none; stroke: #000000; stroke-width: 1.5"/>
    <path d="M 770.3125 308.151153 
L 770.3125 151.178581 
" clip-path="url(#p535c0c603e)" style="fill: none; stroke: #000000; stroke-width: 1.5"/>
    <path d="M 809.3725 305.416655 
L 809.3725 201.407786 
" clip-path="url(#p535c0c603e)" style="fill: none; stroke: #000000; stroke-width: 1.5"/>
   </g>
   <g id="line2d_57">
    <g clip-path="url(#p535c0c603e)">
     <use xlink:href="#m7125904a90" x="67.2325" y="369.870527" style="stroke: #000000"/>
     <use xlink:href="#m7125904a90" x="106.2925" y="400.60182" style="stroke: #000000"/>
     <use xlink:href="#m7125904a90" x="145.3525" y="403.718654" style="stroke: #000000"/>
     <use xlink:href="#m7125904a90" x="184.4125" y="303.486123" style="stroke: #000000"/>
     <use xlink:href="#m7125904a90" x="223.4725" y="285.374686" style="stroke: #000000"/>
     <use xlink:href="#m7125904a90" x="262.5325" y="352.395486" style="stroke: #000000"/>
     <use xlink:href="#m7125904a90" x="301.5925" y="378.83859" style="stroke: #000000"/>
     <use xlink:href="#m7125904a90" x="340.6525" y="321.265701" style="stroke: #000000"/>
     <use xlink:href="#m7125904a90" x="379.7125" y="349.158062" style="stroke: #000000"/>
     <use xlink:href="#m7125904a90" x="418.7725" y="349.551697" style="stroke: #000000"/>
     <use xlink:href="#m7125904a90" x="457.8325" y="367.502669" style="stroke: #000000"/>
     <use xlink:href="#m7125904a90" x="496.8925" y="287.19702" style="stroke: #000000"/>
     <use xlink:href="#m7125904a90" x="535.9525" y="218.275567" style="stroke: #000000"/>
     <use xlink:href="#m7125904a90" x="575.0125" y="257.786874" style="stroke: #000000"/>
     <use xlink:href="#m7125904a90" x="614.0725" y="331.600324" style="stroke: #000000"/>
     <use xlink:href="#m7125904a90" x="653.1325" y="307.699734" style="stroke: #000000"/>
     <use xlink:href="#m7125904a90" x="692.1925" y="255.080639" style="stroke: #000000"/>
     <use xlink:href="#m7125904a90" x="731.2525" y="208.452873" style="stroke: #000000"/>
     <use xlink:href="#m7125904a90" x="770.3125" y="308.151153" style="stroke: #000000"/>
     <use xlink:href="#m7125904a90" x="809.3725" y="305.416655" style="stroke: #000000"/>
    </g>
   </g>
   <g id="line2d_58">
    <g clip-path="url(#p535c0c603e)">
     <use xlink:href="#m7125904a90" x="67.2325" y="299.413138" style="stroke: #000000"/>
     <use xlink:href="#m7125904a90" x="106.2925" y="348.356545" style="stroke: #000000"/>
     <use xlink:href="#m7125904a90" x="145.3525" y="343.947238" style="stroke: #000000"/>
     <use xlink:href="#m7125904a90" x="184.4125" y="194.86114" style="stroke: #000000"/>
     <use xlink:href="#m7125904a90" x="223.4725" y="140.633365" style="stroke: #000000"/>
     <use xlink:href="#m7125904a90" x="262.5325" y="252.295174" style="stroke: #000000"/>
     <use xlink:href="#m7125904a90" x="301.5925" y="307.971535" style="stroke: #000000"/>
     <use xlink:href="#m7125904a90" x="340.6525" y="152.689958" style="stroke: #000000"/>
     <use xlink:href="#m7125904a90" x="379.7125" y="259.566599" style="stroke: #000000"/>
     <use xlink:href="#m7125904a90" x="418.7725" y="252.125467" style="stroke: #000000"/>
     <use xlink:href="#m7125904a90" x="457.8325" y="293.581505" style="stroke: #000000"/>
     <use xlink:href="#m7125904a90" x="496.8925" y="166.711343" style="stroke: #000000"/>
     <use xlink:href="#m7125904a90" x="535.9525" y="40.942514" style="stroke: #000000"/>
     <use xlink:href="#m7125904a90" x="575.0125" y="117.34724" style="stroke: #000000"/>
     <use xlink:href="#m7125904a90" x="614.0725" y="239.684447" style="stroke: #000000"/>
     <use xlink:href="#m7125904a90" x="653.1325" y="209.140743" style="stroke: #000000"/>
     <use xlink:href="#m7125904a90" x="692.1925" y="123.557726" style="stroke: #000000"/>
     <use xlink:href="#m7125904a90" x="731.2525" y="45.775732" style="stroke: #000000"/>
     <use xlink:href="#m7125904a90" x="770.3125" y="151.178581" style="stroke: #000000"/>
     <use xlink:href="#m7125904a90" x="809.3725" y="201.407786" style="stroke: #000000"/>
    </g>
   </g>
   <g id="LineCollection_3">
    <path d="M 72.115 372.728839 
L 72.115 306.580518 
" clip-path="url(#p535c0c603e)" style="fill: none; stroke: #000000; stroke-width: 1.5"/>
    <path d="M 111.175 395.700582 
L 111.175 345.619917 
" clip-path="url(#p535c0c603e)" style="fill: none; stroke: #000000; stroke-width: 1.5"/>
    <path d="M 150.235 404.668444 
L 150.235 291.027787 
" clip-path="url(#p535c0c603e)" style="fill: none; stroke: #000000; stroke-width: 1.5"/>
    <path d="M 189.295 313.831715 
L 189.295 207.29338 
" clip-path="url(#p535c0c603e)" style="fill: none; stroke: #000000; stroke-width: 1.5"/>
    <path d="M 228.355 295.932187 
L 228.355 137.929323 
" clip-path="url(#p535c0c603e)" style="fill: none; stroke: #000000; stroke-width: 1.5"/>
    <path d="M 267.415 341.77402 
L 267.415 237.576693 
" clip-path="url(#p535c0c603e)" style="fill: none; stroke: #000000; stroke-width: 1.5"/>
    <path d="M 306.475 374.585973 
L 306.475 303.139903 
" clip-path="url(#p535c0c603e)" style="fill: none; stroke: #000000; stroke-width: 1.5"/>
    <path d="M 345.535 309.779335 
L 345.535 146.075299 
" clip-path="url(#p535c0c603e)" style="fill: none; stroke: #000000; stroke-width: 1.5"/>
    <path d="M 384.595 342.740468 
L 384.595 229.487467 
" clip-path="url(#p535c0c603e)" style="fill: none; stroke: #000000; stroke-width: 1.5"/>
    <path d="M 423.655 343.99516 
L 423.655 228.929046 
" clip-path="url(#p535c0c603e)" style="fill: none; stroke: #000000; stroke-width: 1.5"/>
    <path d="M 462.715 361.695988 
L 462.715 279.666965 
" clip-path="url(#p535c0c603e)" style="fill: none; stroke: #000000; stroke-width: 1.5"/>
    <path d="M 501.775 317.010932 
L 501.775 200.874899 
" clip-path="url(#p535c0c603e)" style="fill: none; stroke: #000000; stroke-width: 1.5"/>
    <path d="M 540.835 278.574056 
L 540.835 124.749089 
" clip-path="url(#p535c0c603e)" style="fill: none; stroke: #000000; stroke-width: 1.5"/>
    <path d="M 579.895 300.258157 
L 579.895 140.13662 
" clip-path="url(#p535c0c603e)" style="fill: none; stroke: #000000; stroke-width: 1.5"/>
    <path d="M 618.955 328.006241 
L 618.955 179.089265 
" clip-path="url(#p535c0c603e)" style="fill: none; stroke: #000000; stroke-width: 1.5"/>
    <path d="M 658.015 304.838575 
L 658.015 200.618114 
" clip-path="url(#p535c0c603e)" style="fill: none; stroke: #000000; stroke-width: 1.5"/>
    <path d="M 697.075 282.469997 
L 697.075 168.766362 
" clip-path="url(#p535c0c603e)" style="fill: none; stroke: #000000; stroke-width: 1.5"/>
    <path d="M 736.135 210.052727 
L 736.135 45.222447 
" clip-path="url(#p535c0c603e)" style="fill: none; stroke: #000000; stroke-width: 1.5"/>
    <path d="M 775.195 318.539409 
L 775.195 181.137911 
" clip-path="url(#p535c0c603e)" style="fill: none; stroke: #000000; stroke-width: 1.5"/>
    <path d="M 814.255 255.467422 
L 814.255 96.041403 
" clip-path="url(#p535c0c603e)" style="fill: none; stroke: #000000; stroke-width: 1.5"/>
   </g>
   <g id="line2d_59">
    <g clip-path="url(#p535c0c603e)">
     <use xlink:href="#m7125904a90" x="72.115" y="372.728839" style="stroke: #000000"/>
     <use xlink:href="#m7125904a90" x="111.175" y="395.700582" style="stroke: #000000"/>
     <use xlink:href="#m7125904a90" x="150.235" y="404.668444" style="stroke: #000000"/>
     <use xlink:href="#m7125904a90" x="189.295" y="313.831715" style="stroke: #000000"/>
     <use xlink:href="#m7125904a90" x="228.355" y="295.932187" style="stroke: #000000"/>
     <use xlink:href="#m7125904a90" x="267.415" y="341.77402" style="stroke: #000000"/>
     <use xlink:href="#m7125904a90" x="306.475" y="374.585973" style="stroke: #000000"/>
     <use xlink:href="#m7125904a90" x="345.535" y="309.779335" style="stroke: #000000"/>
     <use xlink:href="#m7125904a90" x="384.595" y="342.740468" style="stroke: #000000"/>
     <use xlink:href="#m7125904a90" x="423.655" y="343.99516" style="stroke: #000000"/>
     <use xlink:href="#m7125904a90" x="462.715" y="361.695988" style="stroke: #000000"/>
     <use xlink:href="#m7125904a90" x="501.775" y="317.010932" style="stroke: #000000"/>
     <use xlink:href="#m7125904a90" x="540.835" y="278.574056" style="stroke: #000000"/>
     <use xlink:href="#m7125904a90" x="579.895" y="300.258157" style="stroke: #000000"/>
     <use xlink:href="#m7125904a90" x="618.955" y="328.006241" style="stroke: #000000"/>
     <use xlink:href="#m7125904a90" x="658.015" y="304.838575" style="stroke: #000000"/>
     <use xlink:href="#m7125904a90" x="697.075" y="282.469997" style="stroke: #000000"/>
     <use xlink:href="#m7125904a90" x="736.135" y="210.052727" style="stroke: #000000"/>
     <use xlink:href="#m7125904a90" x="775.195" y="318.539409" style="stroke: #000000"/>
     <use xlink:href="#m7125904a90" x="814.255" y="255.467422" style="stroke: #000000"/>
    </g>
   </g>
   <g id="line2d_60">
    <g clip-path="url(#p535c0c603e)">
     <use xlink:href="#m7125904a90" x="72.115" y="306.580518" style="stroke: #000000"/>
     <use xlink:href="#m7125904a90" x="111.175" y="345.619917" style="stroke: #000000"/>
     <use xlink:href="#m7125904a90" x="150.235" y="291.027787" style="stroke: #000000"/>
     <use xlink:href="#m7125904a90" x="189.295" y="207.29338" style="stroke: #000000"/>
     <use xlink:href="#m7125904a90" x="228.355" y="137.929323" style="stroke: #000000"/>
     <use xlink:href="#m7125904a90" x="267.415" y="237.576693" style="stroke: #000000"/>
     <use xlink:href="#m7125904a90" x="306.475" y="303.139903" style="stroke: #000000"/>
     <use xlink:href="#m7125904a90" x="345.535" y="146.075299" style="stroke: #000000"/>
     <use xlink:href="#m7125904a90" x="384.595" y="229.487467" style="stroke: #000000"/>
     <use xlink:href="#m7125904a90" x="423.655" y="228.929046" style="stroke: #000000"/>
     <use xlink:href="#m7125904a90" x="462.715" y="279.666965" style="stroke: #000000"/>
     <use xlink:href="#m7125904a90" x="501.775" y="200.874899" style="stroke: #000000"/>
     <use xlink:href="#m7125904a90" x="540.835" y="124.749089" style="stroke: #000000"/>
     <use xlink:href="#m7125904a90" x="579.895" y="140.13662" style="stroke: #000000"/>
     <use xlink:href="#m7125904a90" x="618.955" y="179.089265" style="stroke: #000000"/>
     <use xlink:href="#m7125904a90" x="658.015" y="200.618114" style="stroke: #000000"/>
     <use xlink:href="#m7125904a90" x="697.075" y="168.766362" style="stroke: #000000"/>
     <use xlink:href="#m7125904a90" x="736.135" y="45.222447" style="stroke: #000000"/>
     <use xlink:href="#m7125904a90" x="775.195" y="181.137911" style="stroke: #000000"/>
     <use xlink:href="#m7125904a90" x="814.255" y="96.041403" style="stroke: #000000"/>
    </g>
   </g>
   <g id="LineCollection_4">
    <path d="M 76.9975 374.055364 
L 76.9975 296.318066 
" clip-path="url(#p535c0c603e)" style="fill: none; stroke: #000000; stroke-width: 1.5"/>
    <path d="M 116.0575 395.691567 
L 116.0575 341.865219 
" clip-path="url(#p535c0c603e)" style="fill: none; stroke: #000000; stroke-width: 1.5"/>
    <path d="M 155.1175 393.490412 
L 155.1175 291.31128 
" clip-path="url(#p535c0c603e)" style="fill: none; stroke: #000000; stroke-width: 1.5"/>
    <path d="M 194.1775 307.930477 
L 194.1775 188.61069 
" clip-path="url(#p535c0c603e)" style="fill: none; stroke: #000000; stroke-width: 1.5"/>
    <path d="M 233.2375 311.740777 
L 233.2375 166.420244 
" clip-path="url(#p535c0c603e)" style="fill: none; stroke: #000000; stroke-width: 1.5"/>
    <path d="M 272.2975 337.762365 
L 272.2975 229.073378 
" clip-path="url(#p535c0c603e)" style="fill: none; stroke: #000000; stroke-width: 1.5"/>
    <path d="M 311.3575 378.973808 
L 311.3575 303.753522 
" clip-path="url(#p535c0c603e)" style="fill: none; stroke: #000000; stroke-width: 1.5"/>
    <path d="M 350.4175 300.871196 
L 350.4175 145.100404 
" clip-path="url(#p535c0c603e)" style="fill: none; stroke: #000000; stroke-width: 1.5"/>
    <path d="M 389.4775 312.29926 
L 389.4775 193.650923 
" clip-path="url(#p535c0c603e)" style="fill: none; stroke: #000000; stroke-width: 1.5"/>
    <path d="M 428.5375 356.61042 
L 428.5375 255.827344 
" clip-path="url(#p535c0c603e)" style="fill: none; stroke: #000000; stroke-width: 1.5"/>
    <path d="M 467.5975 341.56261 
L 467.5975 241.888767 
" clip-path="url(#p535c0c603e)" style="fill: none; stroke: #000000; stroke-width: 1.5"/>
    <path d="M 506.6575 283.053826 
L 506.6575 139.161546 
" clip-path="url(#p535c0c603e)" style="fill: none; stroke: #000000; stroke-width: 1.5"/>
    <path d="M 545.7175 304.979474 
L 545.7175 159.194753 
" clip-path="url(#p535c0c603e)" style="fill: none; stroke: #000000; stroke-width: 1.5"/>
    <path d="M 584.7775 322.918446 
L 584.7775 177.027863 
" clip-path="url(#p535c0c603e)" style="fill: none; stroke: #000000; stroke-width: 1.5"/>
    <path d="M 623.8375 341.912059 
L 623.8375 204.628844 
" clip-path="url(#p535c0c603e)" style="fill: none; stroke: #000000; stroke-width: 1.5"/>
    <path d="M 662.8975 303.129753 
L 662.8975 167.38128 
" clip-path="url(#p535c0c603e)" style="fill: none; stroke: #000000; stroke-width: 1.5"/>
    <path d="M 701.9575 287.509421 
L 701.9575 159.902886 
" clip-path="url(#p535c0c603e)" style="fill: none; stroke: #000000; stroke-width: 1.5"/>
    <path d="M 741.0175 226.912326 
L 741.0175 57.736556 
" clip-path="url(#p535c0c603e)" style="fill: none; stroke: #000000; stroke-width: 1.5"/>
    <path d="M 780.0775 328.671334 
L 780.0775 177.079778 
" clip-path="url(#p535c0c603e)" style="fill: none; stroke: #000000; stroke-width: 1.5"/>
    <path d="M 819.1375 273.939394 
L 819.1375 122.664998 
" clip-path="url(#p535c0c603e)" style="fill: none; stroke: #000000; stroke-width: 1.5"/>
   </g>
   <g id="line2d_61">
    <g clip-path="url(#p535c0c603e)">
     <use xlink:href="#m7125904a90" x="76.9975" y="374.055364" style="stroke: #000000"/>
     <use xlink:href="#m7125904a90" x="116.0575" y="395.691567" style="stroke: #000000"/>
     <use xlink:href="#m7125904a90" x="155.1175" y="393.490412" style="stroke: #000000"/>
     <use xlink:href="#m7125904a90" x="194.1775" y="307.930477" style="stroke: #000000"/>
     <use xlink:href="#m7125904a90" x="233.2375" y="311.740777" style="stroke: #000000"/>
     <use xlink:href="#m7125904a90" x="272.2975" y="337.762365" style="stroke: #000000"/>
     <use xlink:href="#m7125904a90" x="311.3575" y="378.973808" style="stroke: #000000"/>
     <use xlink:href="#m7125904a90" x="350.4175" y="300.871196" style="stroke: #000000"/>
     <use xlink:href="#m7125904a90" x="389.4775" y="312.29926" style="stroke: #000000"/>
     <use xlink:href="#m7125904a90" x="428.5375" y="356.61042" style="stroke: #000000"/>
     <use xlink:href="#m7125904a90" x="467.5975" y="341.56261" style="stroke: #000000"/>
     <use xlink:href="#m7125904a90" x="506.6575" y="283.053826" style="stroke: #000000"/>
     <use xlink:href="#m7125904a90" x="545.7175" y="304.979474" style="stroke: #000000"/>
     <use xlink:href="#m7125904a90" x="584.7775" y="322.918446" style="stroke: #000000"/>
     <use xlink:href="#m7125904a90" x="623.8375" y="341.912059" style="stroke: #000000"/>
     <use xlink:href="#m7125904a90" x="662.8975" y="303.129753" style="stroke: #000000"/>
     <use xlink:href="#m7125904a90" x="701.9575" y="287.509421" style="stroke: #000000"/>
     <use xlink:href="#m7125904a90" x="741.0175" y="226.912326" style="stroke: #000000"/>
     <use xlink:href="#m7125904a90" x="780.0775" y="328.671334" style="stroke: #000000"/>
     <use xlink:href="#m7125904a90" x="819.1375" y="273.939394" style="stroke: #000000"/>
    </g>
   </g>
   <g id="line2d_62">
    <g clip-path="url(#p535c0c603e)">
     <use xlink:href="#m7125904a90" x="76.9975" y="296.318066" style="stroke: #000000"/>
     <use xlink:href="#m7125904a90" x="116.0575" y="341.865219" style="stroke: #000000"/>
     <use xlink:href="#m7125904a90" x="155.1175" y="291.31128" style="stroke: #000000"/>
     <use xlink:href="#m7125904a90" x="194.1775" y="188.61069" style="stroke: #000000"/>
     <use xlink:href="#m7125904a90" x="233.2375" y="166.420244" style="stroke: #000000"/>
     <use xlink:href="#m7125904a90" x="272.2975" y="229.073378" style="stroke: #000000"/>
     <use xlink:href="#m7125904a90" x="311.3575" y="303.753522" style="stroke: #000000"/>
     <use xlink:href="#m7125904a90" x="350.4175" y="145.100404" style="stroke: #000000"/>
     <use xlink:href="#m7125904a90" x="389.4775" y="193.650923" style="stroke: #000000"/>
     <use xlink:href="#m7125904a90" x="428.5375" y="255.827344" style="stroke: #000000"/>
     <use xlink:href="#m7125904a90" x="467.5975" y="241.888767" style="stroke: #000000"/>
     <use xlink:href="#m7125904a90" x="506.6575" y="139.161546" style="stroke: #000000"/>
     <use xlink:href="#m7125904a90" x="545.7175" y="159.194753" style="stroke: #000000"/>
     <use xlink:href="#m7125904a90" x="584.7775" y="177.027863" style="stroke: #000000"/>
     <use xlink:href="#m7125904a90" x="623.8375" y="204.628844" style="stroke: #000000"/>
     <use xlink:href="#m7125904a90" x="662.8975" y="167.38128" style="stroke: #000000"/>
     <use xlink:href="#m7125904a90" x="701.9575" y="159.902886" style="stroke: #000000"/>
     <use xlink:href="#m7125904a90" x="741.0175" y="57.736556" style="stroke: #000000"/>
     <use xlink:href="#m7125904a90" x="780.0775" y="177.079778" style="stroke: #000000"/>
     <use xlink:href="#m7125904a90" x="819.1375" y="122.664998" style="stroke: #000000"/>
    </g>
   </g>
   <g id="patch_83">
    <path d="M 50.14375 410.398125 
L 50.14375 22.318125 
" style="fill: none; stroke: #000000; stroke-width: 0.8; stroke-linejoin: miter; stroke-linecap: square"/>
   </g>
   <g id="patch_84">
    <path d="M 831.34375 410.398125 
L 831.34375 22.318125 
" style="fill: none; stroke: #000000; stroke-width: 0.8; stroke-linejoin: miter; stroke-linecap: square"/>
   </g>
   <g id="patch_85">
    <path d="M 50.14375 410.398125 
L 831.34375 410.398125 
" style="fill: none; stroke: #000000; stroke-width: 0.8; stroke-linejoin: miter; stroke-linecap: square"/>
   </g>
   <g id="patch_86">
    <path d="M 50.14375 22.318125 
L 831.34375 22.318125 
" style="fill: none; stroke: #000000; stroke-width: 0.8; stroke-linejoin: miter; stroke-linecap: square"/>
   </g>
   <g id="text_30">
    <!-- Mean proteomic amino acid distribution across kingdoms -->
    <g transform="translate(268.878438 16.318125) scale(0.12 -0.12)">
     <defs>
      <path id="DejaVuSans-70" d="M 1159 525 
L 1159 -1331 
L 581 -1331 
L 581 3500 
L 1159 3500 
L 1159 2969 
Q 1341 3281 1617 3432 
Q 1894 3584 2278 3584 
Q 2916 3584 3314 3078 
Q 3713 2572 3713 1747 
Q 3713 922 3314 415 
Q 2916 -91 2278 -91 
Q 1894 -91 1617 61 
Q 1341 213 1159 525 
z
M 3116 1747 
Q 3116 2381 2855 2742 
Q 2594 3103 2138 3103 
Q 1681 3103 1420 2742 
Q 1159 2381 1159 1747 
Q 1159 1113 1420 752 
Q 1681 391 2138 391 
Q 2594 391 2855 752 
Q 3116 1113 3116 1747 
z
" transform="scale(0.015625)"/>
      <path id="DejaVuSans-6b" d="M 581 4863 
L 1159 4863 
L 1159 1991 
L 2875 3500 
L 3609 3500 
L 1753 1863 
L 3688 0 
L 2938 0 
L 1159 1709 
L 1159 0 
L 581 0 
L 581 4863 
z
" transform="scale(0.015625)"/>
      <path id="DejaVuSans-67" d="M 2906 1791 
Q 2906 2416 2648 2759 
Q 2391 3103 1925 3103 
Q 1463 3103 1205 2759 
Q 947 2416 947 1791 
Q 947 1169 1205 825 
Q 1463 481 1925 481 
Q 2391 481 2648 825 
Q 2906 1169 2906 1791 
z
M 3481 434 
Q 3481 -459 3084 -895 
Q 2688 -1331 1869 -1331 
Q 1566 -1331 1297 -1286 
Q 1028 -1241 775 -1147 
L 775 -588 
Q 1028 -725 1275 -790 
Q 1522 -856 1778 -856 
Q 2344 -856 2625 -561 
Q 2906 -266 2906 331 
L 2906 616 
Q 2728 306 2450 153 
Q 2172 0 1784 0 
Q 1141 0 747 490 
Q 353 981 353 1791 
Q 353 2603 747 3093 
Q 1141 3584 1784 3584 
Q 2172 3584 2450 3431 
Q 2728 3278 2906 2969 
L 2906 3500 
L 3481 3500 
L 3481 434 
z
" transform="scale(0.015625)"/>
     </defs>
     <use xlink:href="#DejaVuSans-4d"/>
     <use xlink:href="#DejaVuSans-65" x="86.279297"/>
     <use xlink:href="#DejaVuSans-61" x="147.802734"/>
     <use xlink:href="#DejaVuSans-6e" x="209.082031"/>
     <use xlink:href="#DejaVuSans-20" x="272.460938"/>
     <use xlink:href="#DejaVuSans-70" x="304.248047"/>
     <use xlink:href="#DejaVuSans-72" x="367.724609"/>
     <use xlink:href="#DejaVuSans-6f" x="406.587891"/>
     <use xlink:href="#DejaVuSans-74" x="467.769531"/>
     <use xlink:href="#DejaVuSans-65" x="506.978516"/>
     <use xlink:href="#DejaVuSans-6f" x="568.501953"/>
     <use xlink:href="#DejaVuSans-6d" x="629.683594"/>
     <use xlink:href="#DejaVuSans-69" x="727.095703"/>
     <use xlink:href="#DejaVuSans-63" x="754.878906"/>
     <use xlink:href="#DejaVuSans-20" x="809.859375"/>
     <use xlink:href="#DejaVuSans-61" x="841.646484"/>
     <use xlink:href="#DejaVuSans-6d" x="902.925781"/>
     <use xlink:href="#DejaVuSans-69" x="1000.337891"/>
     <use xlink:href="#DejaVuSans-6e" x="1028.121094"/>
     <use xlink:href="#DejaVuSans-6f" x="1091.5"/>
     <use xlink:href="#DejaVuSans-20" x="1152.681641"/>
     <use xlink:href="#DejaVuSans-61" x="1184.46875"/>
     <use xlink:href="#DejaVuSans-63" x="1245.748047"/>
     <use xlink:href="#DejaVuSans-69" x="1300.728516"/>
     <use xlink:href="#DejaVuSans-64" x="1328.511719"/>
     <use xlink:href="#DejaVuSans-20" x="1391.988281"/>
     <use xlink:href="#DejaVuSans-64" x="1423.775391"/>
     <use xlink:href="#DejaVuSans-69" x="1487.251953"/>
     <use xlink:href="#DejaVuSans-73" x="1515.035156"/>
     <use xlink:href="#DejaVuSans-74" x="1567.134766"/>
     <use xlink:href="#DejaVuSans-72" x="1606.34375"/>
     <use xlink:href="#DejaVuSans-69" x="1647.457031"/>
     <use xlink:href="#DejaVuSans-62" x="1675.240234"/>
     <use xlink:href="#DejaVuSans-75" x="1738.716797"/>
     <use xlink:href="#DejaVuSans-74" x="1802.095703"/>
     <use xlink:href="#DejaVuSans-69" x="1841.304688"/>
     <use xlink:href="#DejaVuSans-6f" x="1869.087891"/>
     <use xlink:href="#DejaVuSans-6e" x="1930.269531"/>
     <use xlink:href="#DejaVuSans-20" x="1993.648438"/>
     <use xlink:href="#DejaVuSans-61" x="2025.435547"/>
     <use xlink:href="#DejaVuSans-63" x="2086.714844"/>
     <use xlink:href="#DejaVuSans-72" x="2141.695312"/>
     <use xlink:href="#DejaVuSans-6f" x="2180.558594"/>
     <use xlink:href="#DejaVuSans-73" x="2241.740234"/>
     <use xlink:href="#DejaVuSans-73" x="2293.839844"/>
     <use xlink:href="#DejaVuSans-20" x="2345.939453"/>
     <use xlink:href="#DejaVuSans-6b" x="2377.726562"/>
     <use xlink:href="#DejaVuSans-69" x="2435.636719"/>
     <use xlink:href="#DejaVuSans-6e" x="2463.419922"/>
     <use xlink:href="#DejaVuSans-67" x="2526.798828"/>
     <use xlink:href="#DejaVuSans-64" x="2590.275391"/>
     <use xlink:href="#DejaVuSans-6f" x="2653.751953"/>
     <use xlink:href="#DejaVuSans-6d" x="2714.933594"/>
     <use xlink:href="#DejaVuSans-73" x="2812.345703"/>
    </g>
   </g>
   <g id="legend_1">
    <g id="patch_87">
     <path d="M 57.14375 103.70875 
L 139.740625 103.70875 
Q 141.740625 103.70875 141.740625 101.70875 
L 141.740625 29.318125 
Q 141.740625 27.318125 139.740625 27.318125 
L 57.14375 27.318125 
Q 55.14375 27.318125 55.14375 29.318125 
L 55.14375 101.70875 
Q 55.14375 103.70875 57.14375 103.70875 
z
" style="fill: #ffffff; opacity: 0.8; stroke: #cccccc; stroke-linejoin: miter"/>
    </g>
    <g id="text_31">
     <!-- Kingdom -->
     <g transform="translate(76.327344 38.916562) scale(0.1 -0.1)">
      <use xlink:href="#DejaVuSans-4b"/>
      <use xlink:href="#DejaVuSans-69" x="65.576172"/>
      <use xlink:href="#DejaVuSans-6e" x="93.359375"/>
      <use xlink:href="#DejaVuSans-67" x="156.738281"/>
      <use xlink:href="#DejaVuSans-64" x="220.214844"/>
      <use xlink:href="#DejaVuSans-6f" x="283.691406"/>
      <use xlink:href="#DejaVuSans-6d" x="344.873047"/>
     </g>
    </g>
    <g id="patch_88">
     <path d="M 59.14375 53.594687 
L 79.14375 53.594687 
L 79.14375 46.594687 
L 59.14375 46.594687 
z
" style="fill: #1f77b4"/>
    </g>
    <g id="text_32">
     <!-- Archaea -->
     <g transform="translate(87.14375 53.594687) scale(0.1 -0.1)">
      <defs>
       <path id="DejaVuSans-68" d="M 3513 2113 
L 3513 0 
L 2938 0 
L 2938 2094 
Q 2938 2591 2744 2837 
Q 2550 3084 2163 3084 
Q 1697 3084 1428 2787 
Q 1159 2491 1159 1978 
L 1159 0 
L 581 0 
L 581 4863 
L 1159 4863 
L 1159 2956 
Q 1366 3272 1645 3428 
Q 1925 3584 2291 3584 
Q 2894 3584 3203 3211 
Q 3513 2838 3513 2113 
z
" transform="scale(0.015625)"/>
      </defs>
      <use xlink:href="#DejaVuSans-41"/>
      <use xlink:href="#DejaVuSans-72" x="68.408203"/>
      <use xlink:href="#DejaVuSans-63" x="107.271484"/>
      <use xlink:href="#DejaVuSans-68" x="162.251953"/>
      <use xlink:href="#DejaVuSans-61" x="225.630859"/>
      <use xlink:href="#DejaVuSans-65" x="286.910156"/>
      <use xlink:href="#DejaVuSans-61" x="348.433594"/>
     </g>
    </g>
    <g id="patch_89">
     <path d="M 59.14375 68.272812 
L 79.14375 68.272812 
L 79.14375 61.272812 
L 59.14375 61.272812 
z
" style="fill: #ff7f0e"/>
    </g>
    <g id="text_33">
     <!-- Bacteria -->
     <g transform="translate(87.14375 68.272812) scale(0.1 -0.1)">
      <defs>
       <path id="DejaVuSans-42" d="M 1259 2228 
L 1259 519 
L 2272 519 
Q 2781 519 3026 730 
Q 3272 941 3272 1375 
Q 3272 1813 3026 2020 
Q 2781 2228 2272 2228 
L 1259 2228 
z
M 1259 4147 
L 1259 2741 
L 2194 2741 
Q 2656 2741 2882 2914 
Q 3109 3088 3109 3444 
Q 3109 3797 2882 3972 
Q 2656 4147 2194 4147 
L 1259 4147 
z
M 628 4666 
L 2241 4666 
Q 2963 4666 3353 4366 
Q 3744 4066 3744 3513 
Q 3744 3084 3544 2831 
Q 3344 2578 2956 2516 
Q 3422 2416 3680 2098 
Q 3938 1781 3938 1306 
Q 3938 681 3513 340 
Q 3088 0 2303 0 
L 628 0 
L 628 4666 
z
" transform="scale(0.015625)"/>
      </defs>
      <use xlink:href="#DejaVuSans-42"/>
      <use xlink:href="#DejaVuSans-61" x="68.603516"/>
      <use xlink:href="#DejaVuSans-63" x="129.882812"/>
      <use xlink:href="#DejaVuSans-74" x="184.863281"/>
      <use xlink:href="#DejaVuSans-65" x="224.072266"/>
      <use xlink:href="#DejaVuSans-72" x="285.595703"/>
      <use xlink:href="#DejaVuSans-69" x="326.708984"/>
      <use xlink:href="#DejaVuSans-61" x="354.492188"/>
     </g>
    </g>
    <g id="patch_90">
     <path d="M 59.14375 82.950937 
L 79.14375 82.950937 
L 79.14375 75.950937 
L 59.14375 75.950937 
z
" style="fill: #2ca02c"/>
    </g>
    <g id="text_34">
     <!-- Eukaryota -->
     <g transform="translate(87.14375 82.950937) scale(0.1 -0.1)">
      <defs>
       <path id="DejaVuSans-79" d="M 2059 -325 
Q 1816 -950 1584 -1140 
Q 1353 -1331 966 -1331 
L 506 -1331 
L 506 -850 
L 844 -850 
Q 1081 -850 1212 -737 
Q 1344 -625 1503 -206 
L 1606 56 
L 191 3500 
L 800 3500 
L 1894 763 
L 2988 3500 
L 3597 3500 
L 2059 -325 
z
" transform="scale(0.015625)"/>
      </defs>
      <use xlink:href="#DejaVuSans-45"/>
      <use xlink:href="#DejaVuSans-75" x="63.183594"/>
      <use xlink:href="#DejaVuSans-6b" x="126.5625"/>
      <use xlink:href="#DejaVuSans-61" x="182.722656"/>
      <use xlink:href="#DejaVuSans-72" x="244.001953"/>
      <use xlink:href="#DejaVuSans-79" x="285.115234"/>
      <use xlink:href="#DejaVuSans-6f" x="344.294922"/>
      <use xlink:href="#DejaVuSans-74" x="405.476562"/>
      <use xlink:href="#DejaVuSans-61" x="444.685547"/>
     </g>
    </g>
    <g id="patch_91">
     <path d="M 59.14375 97.629062 
L 79.14375 97.629062 
L 79.14375 90.629062 
L 59.14375 90.629062 
z
" style="fill: #d62728"/>
    </g>
    <g id="text_35">
     <!-- Viruses -->
     <g transform="translate(87.14375 97.629062) scale(0.1 -0.1)">
      <use xlink:href="#DejaVuSans-56"/>
      <use xlink:href="#DejaVuSans-69" x="66.158203"/>
      <use xlink:href="#DejaVuSans-72" x="93.941406"/>
      <use xlink:href="#DejaVuSans-75" x="135.054688"/>
      <use xlink:href="#DejaVuSans-73" x="198.433594"/>
      <use xlink:href="#DejaVuSans-65" x="250.533203"/>
      <use xlink:href="#DejaVuSans-73" x="312.056641"/>
     </g>
    </g>
   </g>
  </g>
 </g>
 <defs>
  <clipPath id="p535c0c603e">
   <rect x="50.14375" y="22.318125" width="781.2" height="388.08"/>
  </clipPath>
 </defs>
</svg>
