<?xml version="1.0" encoding="utf-8" standalone="no"?>
<!DOCTYPE svg PUBLIC "-//W3C//DTD SVG 1.1//EN"
  "http://www.w3.org/Graphics/SVG/1.1/DTD/svg11.dtd">
<svg xmlns:xlink="http://www.w3.org/1999/xlink" width="572.4pt" height="490.429688pt" viewBox="0 0 572.4 490.429688" xmlns="http://www.w3.org/2000/svg" version="1.1">
 <metadata>
  <rdf:RDF xmlns:dc="http://purl.org/dc/elements/1.1/" xmlns:cc="http://creativecommons.org/ns#" xmlns:rdf="http://www.w3.org/1999/02/22-rdf-syntax-ns#">
   <cc:Work>
    <dc:type rdf:resource="http://purl.org/dc/dcmitype/StillImage"/>
    <dc:date>2024-08-01T13:55:21.400198</dc:date>
    <dc:format>image/svg+xml</dc:format>
    <dc:creator>
     <cc:Agent>
      <dc:title>Matplotlib v3.8.3, https://matplotlib.org/</dc:title>
     </cc:Agent>
    </dc:creator>
   </cc:Work>
  </rdf:RDF>
 </metadata>
 <defs>
  <style type="text/css">*{stroke-linejoin: round; stroke-linecap: butt}</style>
 </defs>
 <g id="figure_1">
  <g id="patch_1">
   <path d="M 0 490.429688 
L 572.4 490.429688 
L 572.4 0 
L 0 0 
z
" style="fill: #ffffff"/>
  </g>
  <g id="axes_1">
   <g id="patch_2">
    <path d="M 7.2 483.229688 
L 565.2 483.229688 
L 565.2 7.2 
L 7.2 7.2 
z
" style="fill: #ffffff"/>
   </g>
   <g id="patch_3">
    <path d="M 80.945168 252.71591 
Q 128.236784 334.627372 174.969383 415.570589 
" clip-path="url(#pcef11055a2)" style="fill: none; stroke: #000000; stroke-linecap: round"/>
    <path d="M 174.701433 411.106487 
L 174.969383 415.570589 
L 171.237331 413.106488 
z
" clip-path="url(#pcef11055a2)" style="stroke: #000000; stroke-linecap: round"/>
   </g>
   <g id="patch_4">
    <path d="M 84.112469 249.543868 
Q 231.479128 334.626049 377.877542 419.149213 
" clip-path="url(#pcef11055a2)" style="fill: none; stroke: #000000; stroke-linecap: round"/>
    <path d="M 375.41344 415.417162 
L 377.877542 419.149213 
L 373.41344 418.881264 
z
" clip-path="url(#pcef11055a2)" style="stroke: #000000; stroke-linecap: round"/>
   </g>
   <g id="patch_5">
    <path d="M 85.275887 245.214882 
Q 283.104045 245.214856 479.814169 245.21483 
" clip-path="url(#pcef11055a2)" style="fill: none; stroke: #000000; stroke-linecap: round"/>
    <path d="M 475.814168 243.214831 
L 479.814169 245.21483 
L 475.814169 247.214831 
z
" clip-path="url(#pcef11055a2)" style="stroke: #000000; stroke-linecap: round"/>
   </g>
   <g id="patch_6">
    <path d="M 84.112467 240.885897 
Q 231.479097 155.803681 377.877482 71.280482 
" clip-path="url(#pcef11055a2)" style="fill: none; stroke: #000000; stroke-linecap: round"/>
    <path d="M 373.41338 71.548432 
L 377.877482 71.280482 
L 375.413381 75.012533 
z
" clip-path="url(#pcef11055a2)" style="stroke: #000000; stroke-linecap: round"/>
   </g>
   <g id="patch_7">
    <path d="M 80.945165 237.713856 
Q 128.23675 155.802394 174.969318 74.859178 
" clip-path="url(#pcef11055a2)" style="fill: none; stroke: #000000; stroke-linecap: round"/>
    <path d="M 171.237268 77.323281 
L 174.969318 74.859178 
L 174.70137 79.32328 
z
" clip-path="url(#pcef11055a2)" style="stroke: #000000; stroke-linecap: round"/>
   </g>
   <g id="text_1">
    <g id="patch_8">
     <path d="M 113.494831 324.771688 
L 129.401083 352.32212 
Q 130.901084 354.920196 133.49916 353.420196 
L 141.880661 348.581132 
Q 144.478737 347.081132 142.978737 344.483056 
L 127.072484 316.932624 
Q 125.572484 314.334548 122.974408 315.834549 
L 114.592906 320.673612 
Q 111.99483 322.173612 113.494831 324.771688 
z
" clip-path="url(#pcef11055a2)" style="fill: #ffffff; stroke: #ffffff; stroke-linejoin: miter"/>
    </g>
    <g clip-path="url(#pcef11055a2)">
     <!-- 31373 -->
     <g transform="translate(117.893969 322.231844) rotate(-300.000006) scale(0.1 -0.1)">
      <defs>
       <path id="DejaVuSans-33" d="M 2597 2516 
Q 3050 2419 3304 2112 
Q 3559 1806 3559 1356 
Q 3559 666 3084 287 
Q 2609 -91 1734 -91 
Q 1441 -91 1130 -33 
Q 819 25 488 141 
L 488 750 
Q 750 597 1062 519 
Q 1375 441 1716 441 
Q 2309 441 2620 675 
Q 2931 909 2931 1356 
Q 2931 1769 2642 2001 
Q 2353 2234 1838 2234 
L 1294 2234 
L 1294 2753 
L 1863 2753 
Q 2328 2753 2575 2939 
Q 2822 3125 2822 3475 
Q 2822 3834 2567 4026 
Q 2313 4219 1838 4219 
Q 1578 4219 1281 4162 
Q 984 4106 628 3988 
L 628 4550 
Q 988 4650 1302 4700 
Q 1616 4750 1894 4750 
Q 2613 4750 3031 4423 
Q 3450 4097 3450 3541 
Q 3450 3153 3228 2886 
Q 3006 2619 2597 2516 
z
" transform="scale(0.015625)"/>
       <path id="DejaVuSans-31" d="M 794 531 
L 1825 531 
L 1825 4091 
L 703 3866 
L 703 4441 
L 1819 4666 
L 2450 4666 
L 2450 531 
L 3481 531 
L 3481 0 
L 794 0 
L 794 531 
z
" transform="scale(0.015625)"/>
       <path id="DejaVuSans-37" d="M 525 4666 
L 3525 4666 
L 3525 4397 
L 1831 0 
L 1172 0 
L 2766 4134 
L 525 4134 
L 525 4666 
z
" transform="scale(0.015625)"/>
      </defs>
      <use xlink:href="#DejaVuSans-33"/>
      <use xlink:href="#DejaVuSans-31" x="63.623047"/>
      <use xlink:href="#DejaVuSans-33" x="127.246094"/>
      <use xlink:href="#DejaVuSans-37" x="190.869141"/>
      <use xlink:href="#DejaVuSans-33" x="254.492188"/>
     </g>
    </g>
   </g>
   <g id="text_2">
    <g id="patch_9">
     <path d="M 213.78438 333.461751 
L 241.334813 349.368001 
Q 243.93289 350.868001 245.43289 348.269925 
L 250.271952 339.888423 
Q 251.771952 337.290347 249.173876 335.790347 
L 221.623443 319.884097 
Q 219.025367 318.384097 217.525367 320.982173 
L 212.686304 329.363675 
Q 211.186304 331.961751 213.78438 333.461751 
z
" clip-path="url(#pcef11055a2)" style="fill: #ffffff; stroke: #ffffff; stroke-linejoin: miter"/>
    </g>
    <g clip-path="url(#pcef11055a2)">
     <!-- 37520 -->
     <g transform="translate(216.324224 329.062613) rotate(-330) scale(0.1 -0.1)">
      <defs>
       <path id="DejaVuSans-35" d="M 691 4666 
L 3169 4666 
L 3169 4134 
L 1269 4134 
L 1269 2991 
Q 1406 3038 1543 3061 
Q 1681 3084 1819 3084 
Q 2600 3084 3056 2656 
Q 3513 2228 3513 1497 
Q 3513 744 3044 326 
Q 2575 -91 1722 -91 
Q 1428 -91 1123 -41 
Q 819 9 494 109 
L 494 744 
Q 775 591 1075 516 
Q 1375 441 1709 441 
Q 2250 441 2565 725 
Q 2881 1009 2881 1497 
Q 2881 1984 2565 2268 
Q 2250 2553 1709 2553 
Q 1456 2553 1204 2497 
Q 953 2441 691 2322 
L 691 4666 
z
" transform="scale(0.015625)"/>
       <path id="DejaVuSans-32" d="M 1228 531 
L 3431 531 
L 3431 0 
L 469 0 
L 469 531 
Q 828 903 1448 1529 
Q 2069 2156 2228 2338 
Q 2531 2678 2651 2914 
Q 2772 3150 2772 3378 
Q 2772 3750 2511 3984 
Q 2250 4219 1831 4219 
Q 1534 4219 1204 4116 
Q 875 4013 500 3803 
L 500 4441 
Q 881 4594 1212 4672 
Q 1544 4750 1819 4750 
Q 2544 4750 2975 4387 
Q 3406 4025 3406 3419 
Q 3406 3131 3298 2873 
Q 3191 2616 2906 2266 
Q 2828 2175 2409 1742 
Q 1991 1309 1228 531 
z
" transform="scale(0.015625)"/>
       <path id="DejaVuSans-30" d="M 2034 4250 
Q 1547 4250 1301 3770 
Q 1056 3291 1056 2328 
Q 1056 1369 1301 889 
Q 1547 409 2034 409 
Q 2525 409 2770 889 
Q 3016 1369 3016 2328 
Q 3016 3291 2770 3770 
Q 2525 4250 2034 4250 
z
M 2034 4750 
Q 2819 4750 3233 4129 
Q 3647 3509 3647 2328 
Q 3647 1150 3233 529 
Q 2819 -91 2034 -91 
Q 1250 -91 836 529 
Q 422 1150 422 2328 
Q 422 3509 836 4129 
Q 1250 4750 2034 4750 
z
" transform="scale(0.015625)"/>
      </defs>
      <use xlink:href="#DejaVuSans-33"/>
      <use xlink:href="#DejaVuSans-37" x="63.623047"/>
      <use xlink:href="#DejaVuSans-35" x="127.246094"/>
      <use xlink:href="#DejaVuSans-32" x="190.869141"/>
      <use xlink:href="#DejaVuSans-30" x="254.492188"/>
     </g>
    </g>
   </g>
   <g id="text_3">
    <g id="patch_10">
     <path d="M 267.197796 253.053921 
L 299.010296 253.053916 
Q 302.010296 253.053916 302.010296 250.053916 
L 302.010294 240.375791 
Q 302.010294 237.375791 299.010294 237.375791 
L 267.197794 237.375796 
Q 264.197794 237.375796 264.197794 240.375796 
L 264.197796 250.053921 
Q 264.197796 253.053921 267.197796 253.053921 
z
" clip-path="url(#pcef11055a2)" style="fill: #ffffff; stroke: #ffffff; stroke-linejoin: miter"/>
    </g>
    <g clip-path="url(#pcef11055a2)">
     <!-- 20309 -->
     <g transform="translate(267.197795 247.974233) rotate(-0.000008) scale(0.1 -0.1)">
      <defs>
       <path id="DejaVuSans-39" d="M 703 97 
L 703 672 
Q 941 559 1184 500 
Q 1428 441 1663 441 
Q 2288 441 2617 861 
Q 2947 1281 2994 2138 
Q 2813 1869 2534 1725 
Q 2256 1581 1919 1581 
Q 1219 1581 811 2004 
Q 403 2428 403 3163 
Q 403 3881 828 4315 
Q 1253 4750 1959 4750 
Q 2769 4750 3195 4129 
Q 3622 3509 3622 2328 
Q 3622 1225 3098 567 
Q 2575 -91 1691 -91 
Q 1453 -91 1209 -44 
Q 966 3 703 97 
z
M 1959 2075 
Q 2384 2075 2632 2365 
Q 2881 2656 2881 3163 
Q 2881 3666 2632 3958 
Q 2384 4250 1959 4250 
Q 1534 4250 1286 3958 
Q 1038 3666 1038 3163 
Q 1038 2656 1286 2365 
Q 1534 2075 1959 2075 
z
" transform="scale(0.015625)"/>
      </defs>
      <use xlink:href="#DejaVuSans-32"/>
      <use xlink:href="#DejaVuSans-30" x="63.623047"/>
      <use xlink:href="#DejaVuSans-33" x="127.246094"/>
      <use xlink:href="#DejaVuSans-30" x="190.869141"/>
      <use xlink:href="#DejaVuSans-39" x="254.492188"/>
     </g>
    </g>
   </g>
   <g id="text_4">
    <g id="patch_11">
     <path d="M 229.888545 165.773758 
L 240.908716 159.411255 
Q 243.506792 157.911255 242.006791 155.313179 
L 237.167727 146.931678 
Q 235.667726 144.333602 233.06965 145.833603 
L 222.049478 152.196106 
Q 219.451403 153.696107 220.951403 156.294182 
L 225.790468 164.675683 
Q 227.290469 167.273759 229.888545 165.773758 
z
" clip-path="url(#pcef11055a2)" style="fill: #ffffff; stroke: #ffffff; stroke-linejoin: miter"/>
    </g>
    <g clip-path="url(#pcef11055a2)">
     <!-- 40 -->
     <g transform="translate(227.3487 161.374621) rotate(-30.000015) scale(0.1 -0.1)">
      <defs>
       <path id="DejaVuSans-34" d="M 2419 4116 
L 825 1625 
L 2419 1625 
L 2419 4116 
z
M 2253 4666 
L 3047 4666 
L 3047 1625 
L 3713 1625 
L 3713 1100 
L 3047 1100 
L 3047 0 
L 2419 0 
L 2419 1100 
L 313 1100 
L 313 1709 
L 2253 4666 
z
" transform="scale(0.015625)"/>
      </defs>
      <use xlink:href="#DejaVuSans-34"/>
      <use xlink:href="#DejaVuSans-30" x="63.623047"/>
     </g>
    </g>
   </g>
   <g id="text_5">
    <g id="patch_12">
     <path d="M 131.844329 165.232012 
L 138.206827 154.211837 
Q 139.706827 151.613761 137.10875 150.113761 
L 128.727247 145.2747 
Q 126.129171 143.774701 124.629171 146.372777 
L 118.266673 157.392952 
Q 116.766674 159.991028 119.36475 161.491028 
L 127.746253 166.330089 
Q 130.34433 167.830088 131.844329 165.232012 
z
" clip-path="url(#pcef11055a2)" style="fill: #ffffff; stroke: #ffffff; stroke-linejoin: miter"/>
    </g>
    <g clip-path="url(#pcef11055a2)">
     <!-- 12 -->
     <g transform="translate(127.44519 162.692169) rotate(-60.00001) scale(0.1 -0.1)">
      <use xlink:href="#DejaVuSans-31"/>
      <use xlink:href="#DejaVuSans-32" x="63.623047"/>
     </g>
    </g>
   </g>
   <g id="patch_13">
    <path d="M 76.614448 217.68312 
C 75.670562 217.68312 74.727301 217.731659 73.788401 217.828546 
C 72.849501 217.925433 71.916204 218.070539 70.992209 218.263289 
L 76.614448 245.214883 
z
" style="fill: #0000ff"/>
   </g>
   <g id="patch_14">
    <path d="M 70.992209 218.263289 
C 67.569503 218.977283 64.313928 220.336782 61.399918 222.268945 
C 58.485909 224.201107 55.966456 226.670797 53.976553 229.545687 
C 51.98665 232.420576 50.562483 235.648386 49.78036 239.05617 
C 48.998237 242.463953 48.87238 245.989739 49.409533 249.444616 
C 49.946687 252.899492 51.137081 256.220632 52.916936 259.230087 
C 54.696791 262.239542 57.033739 264.882586 59.802566 267.017604 
C 62.571393 269.152622 65.721749 270.740788 69.084835 271.697008 
C 72.44792 272.653227 75.96258 272.960113 79.440496 272.60122 
C 82.918412 272.242327 86.296339 271.224183 89.393286 269.60134 
C 92.490234 267.978496 95.249884 265.780466 97.524374 263.125019 
C 99.798864 260.469571 101.546832 257.404997 102.674622 254.095496 
C 103.802412 250.785996 104.289514 247.291752 104.10983 243.799988 
C 103.930146 240.308223 103.086943 236.882436 101.6254 233.706181 
C 100.163858 230.529926 98.110553 227.660963 95.575504 225.253011 
C 93.040455 222.84506 90.06976 220.941909 86.822591 219.645531 
C 83.575422 218.349152 80.110829 217.683119 76.614444 217.68312 
L 76.614448 245.214883 
z
" style="fill: #ff0000"/>
   </g>
   <g id="matplotlib.axis_1">
    <g id="xtick_1"/>
    <g id="xtick_2"/>
    <g id="xtick_3"/>
    <g id="xtick_4"/>
    <g id="xtick_5"/>
    <g id="xtick_6"/>
    <g id="xtick_7"/>
    <g id="xtick_8"/>
    <g id="xtick_9"/>
   </g>
   <g id="matplotlib.axis_2">
    <g id="ytick_1"/>
    <g id="ytick_2"/>
    <g id="ytick_3"/>
    <g id="ytick_4"/>
    <g id="ytick_5"/>
    <g id="ytick_6"/>
    <g id="ytick_7"/>
   </g>
   <g id="PathCollection_1">
    <path d="M 76.614448 261.026271 
C 80.807677 261.026271 84.829727 259.360284 87.794787 256.395223 
C 90.759848 253.430162 92.425836 249.408112 92.425836 245.214883 
C 92.425836 241.021654 90.759848 236.999604 87.794787 234.034543 
C 84.829727 231.069482 80.807677 229.403495 76.614448 229.403495 
C 72.421218 229.403495 68.399168 231.069482 65.434108 234.034543 
C 62.469047 236.999604 60.803059 241.021654 60.803059 245.214883 
C 60.803059 249.408112 62.469047 253.430162 65.434108 256.395223 
C 68.399168 259.360284 72.421218 261.026271 76.614448 261.026271 
z
" clip-path="url(#pcef11055a2)" style="fill: #87ceeb; stroke: #000000"/>
    <path d="M 179.858578 470.204479 
C 192.101827 470.204479 203.845272 465.340185 212.502557 456.6829 
C 221.159841 448.025616 226.024135 436.282171 226.024135 424.038922 
C 226.024135 411.795673 221.159841 400.052228 212.502557 391.394943 
C 203.845272 382.737659 192.101827 377.873365 179.858578 377.873365 
C 167.615329 377.873365 155.871884 382.737659 147.2146 391.394943 
C 138.557315 400.052228 133.693021 411.795673 133.693021 424.038922 
C 133.693021 436.282171 138.557315 448.025616 147.2146 456.6829 
C 155.871884 465.340185 167.615329 470.204479 179.858578 470.204479 
z
" clip-path="url(#pcef11055a2)" style="fill: #90ee90; stroke: #000000"/>
    <path d="M 386.346765 474.038922 
C 399.60692 474.038922 412.325759 468.770606 421.702104 459.394261 
C 431.07845 450.017915 436.346765 437.299077 436.346765 424.038922 
C 436.346765 410.778767 431.07845 398.059928 421.702104 388.683583 
C 412.325759 379.307237 399.60692 374.038922 386.346765 374.038922 
C 373.08661 374.038922 360.367772 379.307237 350.991426 388.683583 
C 341.615081 398.059928 336.346765 410.778767 336.346765 424.038922 
C 336.346765 437.299077 341.615081 450.017915 350.991426 459.394261 
C 360.367772 468.770606 373.08661 474.038922 386.346765 474.038922 
z
" clip-path="url(#pcef11055a2)" style="fill: #90ee90; stroke: #000000"/>
    <path d="M 489.590896 283.523578 
C 499.750495 283.523578 509.495351 279.487127 516.679272 272.303205 
C 523.863193 265.119284 527.899645 255.374428 527.899645 245.214829 
C 527.899645 235.05523 523.863193 225.310374 516.679272 218.126453 
C 509.495351 210.942531 499.750495 206.90608 489.590896 206.90608 
C 479.431297 206.90608 469.686441 210.942531 462.50252 218.126453 
C 455.318598 225.310374 451.282147 235.05523 451.282147 245.214829 
C 451.282147 255.374428 455.318598 265.119284 462.50252 272.303205 
C 469.686441 279.487127 479.431297 283.523578 489.590896 283.523578 
z
" clip-path="url(#pcef11055a2)" style="fill: #90ee90; stroke: #000000"/>
    <path d="M 386.346704 82.255186 
C 390.553996 82.255186 394.589534 80.583611 397.564539 77.608606 
C 400.539543 74.633602 402.211118 70.598063 402.211118 66.390771 
C 402.211118 62.183479 400.539543 58.147941 397.564539 55.172936 
C 394.589534 52.197932 390.553996 50.526357 386.346704 50.526357 
C 382.139412 50.526357 378.103873 52.197932 375.128869 55.172936 
C 372.153864 58.147941 370.482289 62.183479 370.482289 66.390771 
C 370.482289 70.598063 372.153864 74.633602 375.128869 77.608606 
C 378.103873 80.583611 382.139412 82.255186 386.346704 82.255186 
z
" clip-path="url(#pcef11055a2)" style="fill: #90ee90; stroke: #000000"/>
    <path d="M 179.85851 82.202233 
C 184.05174 82.202233 188.073789 80.536246 191.03885 77.571185 
C 194.003911 74.606124 195.669899 70.584074 195.669899 66.390845 
C 195.669899 62.197616 194.003911 58.175566 191.03885 55.210505 
C 188.073789 52.245445 184.05174 50.579457 179.85851 50.579457 
C 175.665281 50.579457 171.643231 52.245445 168.67817 55.210505 
C 165.71311 58.175566 164.047122 62.197616 164.047122 66.390845 
C 164.047122 70.584074 165.71311 74.606124 168.67817 77.571185 
C 171.643231 80.536246 175.665281 82.202233 179.85851 82.202233 
z
" clip-path="url(#pcef11055a2)" style="fill: #90ee90; stroke: #000000"/>
   </g>
   <g id="patch_15">
    <path d="M 7.2 483.229688 
L 7.2 7.2 
" style="fill: none; stroke: #000000; stroke-width: 0.8; stroke-linejoin: miter; stroke-linecap: square"/>
   </g>
   <g id="patch_16">
    <path d="M 565.2 483.229688 
L 565.2 7.2 
" style="fill: none; stroke: #000000; stroke-width: 0.8; stroke-linejoin: miter; stroke-linecap: square"/>
   </g>
   <g id="patch_17">
    <path d="M 7.2 483.229688 
L 565.2 483.229688 
" style="fill: none; stroke: #000000; stroke-width: 0.8; stroke-linejoin: miter; stroke-linecap: square"/>
   </g>
   <g id="patch_18">
    <path d="M 7.2 7.2 
L 565.2 7.2 
" style="fill: none; stroke: #000000; stroke-width: 0.8; stroke-linejoin: miter; stroke-linecap: square"/>
   </g>
   <g id="text_6">
    <g clip-path="url(#pcef11055a2)">
     <!-- $\mathbf{*}$ -->
     <g transform="translate(73.434448 248.526133) scale(0.12 -0.12)">
      <defs>
       <path id="DejaVuSans-Bold-2a" d="M 3219 3803 
L 2188 3263 
L 3219 2719 
L 2981 2278 
L 1941 2853 
L 1941 1778 
L 1409 1778 
L 1409 2853 
L 366 2278 
L 128 2719 
L 1172 3263 
L 128 3803 
L 366 4244 
L 1409 3675 
L 1409 4750 
L 1941 4750 
L 1941 3675 
L 2981 4244 
L 3219 3803 
z
" transform="scale(0.015625)"/>
      </defs>
      <use xlink:href="#DejaVuSans-Bold-2a" transform="translate(0 0.78125)"/>
     </g>
    </g>
   </g>
   <g id="text_7">
    <g clip-path="url(#pcef11055a2)">
     <!-- NCC -->
     <g transform="translate(166.990453 427.350172) scale(0.12 -0.12)">
      <defs>
       <path id="DejaVuSans-4e" d="M 628 4666 
L 1478 4666 
L 3547 763 
L 3547 4666 
L 4159 4666 
L 4159 0 
L 3309 0 
L 1241 3903 
L 1241 0 
L 628 0 
L 628 4666 
z
" transform="scale(0.015625)"/>
       <path id="DejaVuSans-43" d="M 4122 4306 
L 4122 3641 
Q 3803 3938 3442 4084 
Q 3081 4231 2675 4231 
Q 1875 4231 1450 3742 
Q 1025 3253 1025 2328 
Q 1025 1406 1450 917 
Q 1875 428 2675 428 
Q 3081 428 3442 575 
Q 3803 722 4122 1019 
L 4122 359 
Q 3791 134 3420 21 
Q 3050 -91 2638 -91 
Q 1578 -91 968 557 
Q 359 1206 359 2328 
Q 359 3453 968 4101 
Q 1578 4750 2638 4750 
Q 3056 4750 3426 4639 
Q 3797 4528 4122 4306 
z
" transform="scale(0.015625)"/>
      </defs>
      <use xlink:href="#DejaVuSans-4e"/>
      <use xlink:href="#DejaVuSans-43" x="74.804688"/>
      <use xlink:href="#DejaVuSans-43" x="144.628906"/>
     </g>
    </g>
   </g>
   <g id="text_8">
    <g clip-path="url(#pcef11055a2)">
     <!-- TAA -->
     <g transform="translate(374.773328 427.350172) scale(0.12 -0.12)">
      <defs>
       <path id="DejaVuSans-54" d="M -19 4666 
L 3928 4666 
L 3928 4134 
L 2272 4134 
L 2272 0 
L 1638 0 
L 1638 4134 
L -19 4134 
L -19 4666 
z
" transform="scale(0.015625)"/>
       <path id="DejaVuSans-41" d="M 2188 4044 
L 1331 1722 
L 3047 1722 
L 2188 4044 
z
M 1831 4666 
L 2547 4666 
L 4325 0 
L 3669 0 
L 3244 1197 
L 1141 1197 
L 716 0 
L 50 0 
L 1831 4666 
z
" transform="scale(0.015625)"/>
      </defs>
      <use xlink:href="#DejaVuSans-54"/>
      <use xlink:href="#DejaVuSans-41" x="53.333984"/>
      <use xlink:href="#DejaVuSans-41" x="124.492188"/>
     </g>
    </g>
   </g>
   <g id="text_9">
    <g clip-path="url(#pcef11055a2)">
     <!-- TAG -->
     <g transform="translate(477.742771 248.526079) scale(0.12 -0.12)">
      <defs>
       <path id="DejaVuSans-47" d="M 3809 666 
L 3809 1919 
L 2778 1919 
L 2778 2438 
L 4434 2438 
L 4434 434 
Q 4069 175 3628 42 
Q 3188 -91 2688 -91 
Q 1594 -91 976 548 
Q 359 1188 359 2328 
Q 359 3472 976 4111 
Q 1594 4750 2688 4750 
Q 3144 4750 3555 4637 
Q 3966 4525 4313 4306 
L 4313 3634 
Q 3963 3931 3569 4081 
Q 3175 4231 2741 4231 
Q 1884 4231 1454 3753 
Q 1025 3275 1025 2328 
Q 1025 1384 1454 906 
Q 1884 428 2741 428 
Q 3075 428 3337 486 
Q 3600 544 3809 666 
z
" transform="scale(0.015625)"/>
      </defs>
      <use xlink:href="#DejaVuSans-54"/>
      <use xlink:href="#DejaVuSans-41" x="53.333984"/>
      <use xlink:href="#DejaVuSans-47" x="119.992188"/>
     </g>
    </g>
   </g>
   <g id="text_10">
    <g clip-path="url(#pcef11055a2)">
     <!-- AGA -->
     <g transform="translate(373.593891 69.702021) scale(0.12 -0.12)">
      <use xlink:href="#DejaVuSans-41"/>
      <use xlink:href="#DejaVuSans-47" x="66.658203"/>
      <use xlink:href="#DejaVuSans-41" x="144.148438"/>
     </g>
    </g>
   </g>
   <g id="text_11">
    <g clip-path="url(#pcef11055a2)">
     <!-- AGG -->
     <g transform="translate(166.56101 69.702095) scale(0.12 -0.12)">
      <use xlink:href="#DejaVuSans-41"/>
      <use xlink:href="#DejaVuSans-47" x="66.658203"/>
      <use xlink:href="#DejaVuSans-47" x="144.148438"/>
     </g>
    </g>
   </g>
   <g id="legend_1">
    <g id="patch_19">
     <path d="M 14.2 44.55625 
L 116.278125 44.55625 
Q 118.278125 44.55625 118.278125 42.55625 
L 118.278125 14.2 
Q 118.278125 12.2 116.278125 12.2 
L 14.2 12.2 
Q 12.2 12.2 12.2 14.2 
L 12.2 42.55625 
Q 12.2 44.55625 14.2 44.55625 
z
" style="fill: #ffffff; opacity: 0.8; stroke: #cccccc; stroke-linejoin: miter"/>
    </g>
    <g id="patch_20">
     <path d="M 16.2 23.798437 
L 36.2 23.798437 
L 36.2 16.798437 
L 16.2 16.798437 
z
" style="fill: #0000ff"/>
    </g>
    <g id="text_12">
     <!-- Genomic data -->
     <g transform="translate(44.2 23.798437) scale(0.1 -0.1)">
      <defs>
       <path id="DejaVuSans-65" d="M 3597 1894 
L 3597 1613 
L 953 1613 
Q 991 1019 1311 708 
Q 1631 397 2203 397 
Q 2534 397 2845 478 
Q 3156 559 3463 722 
L 3463 178 
Q 3153 47 2828 -22 
Q 2503 -91 2169 -91 
Q 1331 -91 842 396 
Q 353 884 353 1716 
Q 353 2575 817 3079 
Q 1281 3584 2069 3584 
Q 2775 3584 3186 3129 
Q 3597 2675 3597 1894 
z
M 3022 2063 
Q 3016 2534 2758 2815 
Q 2500 3097 2075 3097 
Q 1594 3097 1305 2825 
Q 1016 2553 972 2059 
L 3022 2063 
z
" transform="scale(0.015625)"/>
       <path id="DejaVuSans-6e" d="M 3513 2113 
L 3513 0 
L 2938 0 
L 2938 2094 
Q 2938 2591 2744 2837 
Q 2550 3084 2163 3084 
Q 1697 3084 1428 2787 
Q 1159 2491 1159 1978 
L 1159 0 
L 581 0 
L 581 3500 
L 1159 3500 
L 1159 2956 
Q 1366 3272 1645 3428 
Q 1925 3584 2291 3584 
Q 2894 3584 3203 3211 
Q 3513 2838 3513 2113 
z
" transform="scale(0.015625)"/>
       <path id="DejaVuSans-6f" d="M 1959 3097 
Q 1497 3097 1228 2736 
Q 959 2375 959 1747 
Q 959 1119 1226 758 
Q 1494 397 1959 397 
Q 2419 397 2687 759 
Q 2956 1122 2956 1747 
Q 2956 2369 2687 2733 
Q 2419 3097 1959 3097 
z
M 1959 3584 
Q 2709 3584 3137 3096 
Q 3566 2609 3566 1747 
Q 3566 888 3137 398 
Q 2709 -91 1959 -91 
Q 1206 -91 779 398 
Q 353 888 353 1747 
Q 353 2609 779 3096 
Q 1206 3584 1959 3584 
z
" transform="scale(0.015625)"/>
       <path id="DejaVuSans-6d" d="M 3328 2828 
Q 3544 3216 3844 3400 
Q 4144 3584 4550 3584 
Q 5097 3584 5394 3201 
Q 5691 2819 5691 2113 
L 5691 0 
L 5113 0 
L 5113 2094 
Q 5113 2597 4934 2840 
Q 4756 3084 4391 3084 
Q 3944 3084 3684 2787 
Q 3425 2491 3425 1978 
L 3425 0 
L 2847 0 
L 2847 2094 
Q 2847 2600 2669 2842 
Q 2491 3084 2119 3084 
Q 1678 3084 1418 2786 
Q 1159 2488 1159 1978 
L 1159 0 
L 581 0 
L 581 3500 
L 1159 3500 
L 1159 2956 
Q 1356 3278 1631 3431 
Q 1906 3584 2284 3584 
Q 2666 3584 2933 3390 
Q 3200 3197 3328 2828 
z
" transform="scale(0.015625)"/>
       <path id="DejaVuSans-69" d="M 603 3500 
L 1178 3500 
L 1178 0 
L 603 0 
L 603 3500 
z
M 603 4863 
L 1178 4863 
L 1178 4134 
L 603 4134 
L 603 4863 
z
" transform="scale(0.015625)"/>
       <path id="DejaVuSans-63" d="M 3122 3366 
L 3122 2828 
Q 2878 2963 2633 3030 
Q 2388 3097 2138 3097 
Q 1578 3097 1268 2742 
Q 959 2388 959 1747 
Q 959 1106 1268 751 
Q 1578 397 2138 397 
Q 2388 397 2633 464 
Q 2878 531 3122 666 
L 3122 134 
Q 2881 22 2623 -34 
Q 2366 -91 2075 -91 
Q 1284 -91 818 406 
Q 353 903 353 1747 
Q 353 2603 823 3093 
Q 1294 3584 2113 3584 
Q 2378 3584 2631 3529 
Q 2884 3475 3122 3366 
z
" transform="scale(0.015625)"/>
       <path id="DejaVuSans-20" transform="scale(0.015625)"/>
       <path id="DejaVuSans-64" d="M 2906 2969 
L 2906 4863 
L 3481 4863 
L 3481 0 
L 2906 0 
L 2906 525 
Q 2725 213 2448 61 
Q 2172 -91 1784 -91 
Q 1150 -91 751 415 
Q 353 922 353 1747 
Q 353 2572 751 3078 
Q 1150 3584 1784 3584 
Q 2172 3584 2448 3432 
Q 2725 3281 2906 2969 
z
M 947 1747 
Q 947 1113 1208 752 
Q 1469 391 1925 391 
Q 2381 391 2643 752 
Q 2906 1113 2906 1747 
Q 2906 2381 2643 2742 
Q 2381 3103 1925 3103 
Q 1469 3103 1208 2742 
Q 947 2381 947 1747 
z
" transform="scale(0.015625)"/>
       <path id="DejaVuSans-61" d="M 2194 1759 
Q 1497 1759 1228 1600 
Q 959 1441 959 1056 
Q 959 750 1161 570 
Q 1363 391 1709 391 
Q 2188 391 2477 730 
Q 2766 1069 2766 1631 
L 2766 1759 
L 2194 1759 
z
M 3341 1997 
L 3341 0 
L 2766 0 
L 2766 531 
Q 2569 213 2275 61 
Q 1981 -91 1556 -91 
Q 1019 -91 701 211 
Q 384 513 384 1019 
Q 384 1609 779 1909 
Q 1175 2209 1959 2209 
L 2766 2209 
L 2766 2266 
Q 2766 2663 2505 2880 
Q 2244 3097 1772 3097 
Q 1472 3097 1187 3025 
Q 903 2953 641 2809 
L 641 3341 
Q 956 3463 1253 3523 
Q 1550 3584 1831 3584 
Q 2591 3584 2966 3190 
Q 3341 2797 3341 1997 
z
" transform="scale(0.015625)"/>
       <path id="DejaVuSans-74" d="M 1172 4494 
L 1172 3500 
L 2356 3500 
L 2356 3053 
L 1172 3053 
L 1172 1153 
Q 1172 725 1289 603 
Q 1406 481 1766 481 
L 2356 481 
L 2356 0 
L 1766 0 
Q 1100 0 847 248 
Q 594 497 594 1153 
L 594 3053 
L 172 3053 
L 172 3500 
L 594 3500 
L 594 4494 
L 1172 4494 
z
" transform="scale(0.015625)"/>
      </defs>
      <use xlink:href="#DejaVuSans-47"/>
      <use xlink:href="#DejaVuSans-65" x="77.490234"/>
      <use xlink:href="#DejaVuSans-6e" x="139.013672"/>
      <use xlink:href="#DejaVuSans-6f" x="202.392578"/>
      <use xlink:href="#DejaVuSans-6d" x="263.574219"/>
      <use xlink:href="#DejaVuSans-69" x="360.986328"/>
      <use xlink:href="#DejaVuSans-63" x="388.769531"/>
      <use xlink:href="#DejaVuSans-20" x="443.75"/>
      <use xlink:href="#DejaVuSans-64" x="475.537109"/>
      <use xlink:href="#DejaVuSans-61" x="539.013672"/>
      <use xlink:href="#DejaVuSans-74" x="600.292969"/>
      <use xlink:href="#DejaVuSans-61" x="639.501953"/>
     </g>
    </g>
    <g id="patch_21">
     <path d="M 16.2 38.476562 
L 36.2 38.476562 
L 36.2 31.476562 
L 16.2 31.476562 
z
" style="fill: #ff0000"/>
    </g>
    <g id="text_13">
     <!-- Genetic code -->
     <g transform="translate(44.2 38.476562) scale(0.1 -0.1)">
      <use xlink:href="#DejaVuSans-47"/>
      <use xlink:href="#DejaVuSans-65" x="77.490234"/>
      <use xlink:href="#DejaVuSans-6e" x="139.013672"/>
      <use xlink:href="#DejaVuSans-65" x="202.392578"/>
      <use xlink:href="#DejaVuSans-74" x="263.916016"/>
      <use xlink:href="#DejaVuSans-69" x="303.125"/>
      <use xlink:href="#DejaVuSans-63" x="330.908203"/>
      <use xlink:href="#DejaVuSans-20" x="385.888672"/>
      <use xlink:href="#DejaVuSans-63" x="417.675781"/>
      <use xlink:href="#DejaVuSans-6f" x="472.65625"/>
      <use xlink:href="#DejaVuSans-64" x="533.837891"/>
      <use xlink:href="#DejaVuSans-65" x="597.314453"/>
     </g>
    </g>
   </g>
  </g>
 </g>
 <defs>
  <clipPath id="pcef11055a2">
   <rect x="7.2" y="7.2" width="558" height="476.029688"/>
  </clipPath>
 </defs>
</svg>
