<?xml version="1.0" encoding="utf-8" standalone="no"?>
<!DOCTYPE svg PUBLIC "-//W3C//DTD SVG 1.1//EN"
  "http://www.w3.org/Graphics/SVG/1.1/DTD/svg11.dtd">
<!-- Created with matplotlib (https://matplotlib.org/) -->
<svg height="325.986375pt" version="1.1" viewBox="0 0 411.285625 325.986375" width="411.285625pt" xmlns="http://www.w3.org/2000/svg" xmlns:xlink="http://www.w3.org/1999/xlink">
 <metadata>
  <rdf:RDF xmlns:cc="http://creativecommons.org/ns#" xmlns:dc="http://purl.org/dc/elements/1.1/" xmlns:rdf="http://www.w3.org/1999/02/22-rdf-syntax-ns#">
   <cc:Work>
    <dc:type rdf:resource="http://purl.org/dc/dcmitype/StillImage"/>
    <dc:date>2024-11-19T13:35:46.759766</dc:date>
    <dc:format>image/svg+xml</dc:format>
    <dc:creator>
     <cc:Agent>
      <dc:title>Matplotlib v3.3.4, https://matplotlib.org/</dc:title>
     </cc:Agent>
    </dc:creator>
   </cc:Work>
  </rdf:RDF>
 </metadata>
 <defs>
  <style type="text/css">*{stroke-linecap:butt;stroke-linejoin:round;}</style>
 </defs>
 <g id="figure_1">
  <g id="patch_1">
   <path d="M 0 325.986375 
L 411.285625 325.986375 
L 411.285625 0 
L 0 0 
z
" style="fill:#ffffff;"/>
  </g>
  <g id="axes_1">
   <g id="patch_2">
    <path d="M 46.965625 288.430125 
L 404.085625 288.430125 
L 404.085625 22.318125 
L 46.965625 22.318125 
z
" style="fill:#ffffff;"/>
   </g>
   <g id="patch_3">
    <path clip-path="url(#pc3d770cfa9)" d="M 63.198352 288.430125 
L 66.805625 288.430125 
L 66.805625 286.418696 
L 63.198352 286.418696 
z
" style="fill:#800000;fill-opacity:0.4;stroke:#000000;stroke-linejoin:miter;stroke-width:0.360727;"/>
   </g>
   <g id="patch_4">
    <path clip-path="url(#pc3d770cfa9)" d="M 66.805625 288.430125 
L 70.412898 288.430125 
L 70.412898 284.407268 
L 66.805625 284.407268 
z
" style="fill:#800000;fill-opacity:0.4;stroke:#000000;stroke-linejoin:miter;stroke-width:0.360727;"/>
   </g>
   <g id="patch_5">
    <path clip-path="url(#pc3d770cfa9)" d="M 70.412898 288.430125 
L 74.02017 288.430125 
L 74.02017 282.395839 
L 70.412898 282.395839 
z
" style="fill:#800000;fill-opacity:0.4;stroke:#000000;stroke-linejoin:miter;stroke-width:0.360727;"/>
   </g>
   <g id="patch_6">
    <path clip-path="url(#pc3d770cfa9)" d="M 74.02017 288.430125 
L 77.627443 288.430125 
L 77.627443 278.372982 
L 74.02017 278.372982 
z
" style="fill:#800000;fill-opacity:0.4;stroke:#000000;stroke-linejoin:miter;stroke-width:0.360727;"/>
   </g>
   <g id="patch_7">
    <path clip-path="url(#pc3d770cfa9)" d="M 77.627443 288.430125 
L 81.234716 288.430125 
L 81.234716 274.350125 
L 77.627443 274.350125 
z
" style="fill:#800000;fill-opacity:0.4;stroke:#000000;stroke-linejoin:miter;stroke-width:0.360727;"/>
   </g>
   <g id="patch_8">
    <path clip-path="url(#pc3d770cfa9)" d="M 81.234716 288.430125 
L 84.841989 288.430125 
L 84.841989 264.292982 
L 81.234716 264.292982 
z
" style="fill:#800000;fill-opacity:0.4;stroke:#000000;stroke-linejoin:miter;stroke-width:0.360727;"/>
   </g>
   <g id="patch_9">
    <path clip-path="url(#pc3d770cfa9)" d="M 84.841989 288.430125 
L 88.449261 288.430125 
L 88.449261 264.292982 
L 84.841989 264.292982 
z
" style="fill:#800000;fill-opacity:0.4;stroke:#000000;stroke-linejoin:miter;stroke-width:0.360727;"/>
   </g>
   <g id="patch_10">
    <path clip-path="url(#pc3d770cfa9)" d="M 88.449261 288.430125 
L 92.056534 288.430125 
L 92.056534 246.190125 
L 88.449261 246.190125 
z
" style="fill:#800000;fill-opacity:0.4;stroke:#000000;stroke-linejoin:miter;stroke-width:0.360727;"/>
   </g>
   <g id="patch_11">
    <path clip-path="url(#pc3d770cfa9)" d="M 92.056534 288.430125 
L 95.663807 288.430125 
L 95.663807 242.167268 
L 92.056534 242.167268 
z
" style="fill:#800000;fill-opacity:0.4;stroke:#000000;stroke-linejoin:miter;stroke-width:0.360727;"/>
   </g>
   <g id="patch_12">
    <path clip-path="url(#pc3d770cfa9)" d="M 95.663807 288.430125 
L 99.27108 288.430125 
L 99.27108 222.052982 
L 95.663807 222.052982 
z
" style="fill:#800000;fill-opacity:0.4;stroke:#000000;stroke-linejoin:miter;stroke-width:0.360727;"/>
   </g>
   <g id="patch_13">
    <path clip-path="url(#pc3d770cfa9)" d="M 99.27108 288.430125 
L 102.878352 288.430125 
L 102.878352 214.007268 
L 99.27108 214.007268 
z
" style="fill:#800000;fill-opacity:0.4;stroke:#000000;stroke-linejoin:miter;stroke-width:0.360727;"/>
   </g>
   <g id="patch_14">
    <path clip-path="url(#pc3d770cfa9)" d="M 102.878352 288.430125 
L 106.485625 288.430125 
L 106.485625 145.618696 
L 102.878352 145.618696 
z
" style="fill:#800000;fill-opacity:0.4;stroke:#000000;stroke-linejoin:miter;stroke-width:0.360727;"/>
   </g>
   <g id="patch_15">
    <path clip-path="url(#pc3d770cfa9)" d="M 106.485625 288.430125 
L 110.092898 288.430125 
L 110.092898 133.550125 
L 106.485625 133.550125 
z
" style="fill:#800000;fill-opacity:0.4;stroke:#000000;stroke-linejoin:miter;stroke-width:0.360727;"/>
   </g>
   <g id="patch_16">
    <path clip-path="url(#pc3d770cfa9)" d="M 110.092898 288.430125 
L 113.70017 288.430125 
L 113.70017 133.550125 
L 110.092898 133.550125 
z
" style="fill:#800000;fill-opacity:0.4;stroke:#000000;stroke-linejoin:miter;stroke-width:0.360727;"/>
   </g>
   <g id="patch_17">
    <path clip-path="url(#pc3d770cfa9)" d="M 113.70017 288.430125 
L 117.307443 288.430125 
L 117.307443 153.664411 
L 113.70017 153.664411 
z
" style="fill:#800000;fill-opacity:0.4;stroke:#000000;stroke-linejoin:miter;stroke-width:0.360727;"/>
   </g>
   <g id="patch_18">
    <path clip-path="url(#pc3d770cfa9)" d="M 117.307443 288.430125 
L 120.914716 288.430125 
L 120.914716 57.115839 
L 117.307443 57.115839 
z
" style="fill:#800000;fill-opacity:0.4;stroke:#000000;stroke-linejoin:miter;stroke-width:0.360727;"/>
   </g>
   <g id="patch_19">
    <path clip-path="url(#pc3d770cfa9)" d="M 120.914716 288.430125 
L 124.521989 288.430125 
L 124.521989 34.990125 
L 120.914716 34.990125 
z
" style="fill:#800000;fill-opacity:0.4;stroke:#000000;stroke-linejoin:miter;stroke-width:0.360727;"/>
   </g>
   <g id="patch_20">
    <path clip-path="url(#pc3d770cfa9)" d="M 124.521989 288.430125 
L 128.129261 288.430125 
L 128.129261 65.161554 
L 124.521989 65.161554 
z
" style="fill:#800000;fill-opacity:0.4;stroke:#000000;stroke-linejoin:miter;stroke-width:0.360727;"/>
   </g>
   <g id="patch_21">
    <path clip-path="url(#pc3d770cfa9)" d="M 128.129261 288.430125 
L 131.736534 288.430125 
L 131.736534 209.984411 
L 128.129261 209.984411 
z
" style="fill:#800000;fill-opacity:0.4;stroke:#000000;stroke-linejoin:miter;stroke-width:0.360727;"/>
   </g>
   <g id="patch_22">
    <path clip-path="url(#pc3d770cfa9)" d="M 131.736534 288.430125 
L 135.343807 288.430125 
L 135.343807 260.270125 
L 131.736534 260.270125 
z
" style="fill:#800000;fill-opacity:0.4;stroke:#000000;stroke-linejoin:miter;stroke-width:0.360727;"/>
   </g>
   <g id="patch_23">
    <path clip-path="url(#pc3d770cfa9)" d="M 135.343807 288.430125 
L 138.95108 288.430125 
L 138.95108 272.338696 
L 135.343807 272.338696 
z
" style="fill:#800000;fill-opacity:0.4;stroke:#000000;stroke-linejoin:miter;stroke-width:0.360727;"/>
   </g>
   <g id="patch_24">
    <path clip-path="url(#pc3d770cfa9)" d="M 138.95108 288.430125 
L 142.558352 288.430125 
L 142.558352 284.407268 
L 138.95108 284.407268 
z
" style="fill:#800000;fill-opacity:0.4;stroke:#000000;stroke-linejoin:miter;stroke-width:0.360727;"/>
   </g>
   <g id="patch_25">
    <path clip-path="url(#pc3d770cfa9)" d="M 142.558352 288.430125 
L 146.165625 288.430125 
L 146.165625 282.395839 
L 142.558352 282.395839 
z
" style="fill:#800000;fill-opacity:0.4;stroke:#000000;stroke-linejoin:miter;stroke-width:0.360727;"/>
   </g>
   <g id="patch_26">
    <path clip-path="url(#pc3d770cfa9)" d="M 146.165625 288.430125 
L 149.772898 288.430125 
L 149.772898 288.430125 
L 146.165625 288.430125 
z
" style="fill:#800000;fill-opacity:0.4;stroke:#000000;stroke-linejoin:miter;stroke-width:0.360727;"/>
   </g>
   <g id="patch_27">
    <path clip-path="url(#pc3d770cfa9)" d="M 149.772898 288.430125 
L 153.38017 288.430125 
L 153.38017 286.418696 
L 149.772898 286.418696 
z
" style="fill:#800000;fill-opacity:0.4;stroke:#000000;stroke-linejoin:miter;stroke-width:0.360727;"/>
   </g>
   <g id="patch_28">
    <path clip-path="url(#pc3d770cfa9)" d="M 153.38017 288.430125 
L 156.987443 288.430125 
L 156.987443 288.430125 
L 153.38017 288.430125 
z
" style="fill:#800000;fill-opacity:0.4;stroke:#000000;stroke-linejoin:miter;stroke-width:0.360727;"/>
   </g>
   <g id="patch_29">
    <path clip-path="url(#pc3d770cfa9)" d="M 156.987443 288.430125 
L 160.594716 288.430125 
L 160.594716 288.430125 
L 156.987443 288.430125 
z
" style="fill:#800000;fill-opacity:0.4;stroke:#000000;stroke-linejoin:miter;stroke-width:0.360727;"/>
   </g>
   <g id="patch_30">
    <path clip-path="url(#pc3d770cfa9)" d="M 160.594716 288.430125 
L 164.201989 288.430125 
L 164.201989 288.430125 
L 160.594716 288.430125 
z
" style="fill:#800000;fill-opacity:0.4;stroke:#000000;stroke-linejoin:miter;stroke-width:0.360727;"/>
   </g>
   <g id="patch_31">
    <path clip-path="url(#pc3d770cfa9)" d="M 164.201989 288.430125 
L 167.809261 288.430125 
L 167.809261 288.430125 
L 164.201989 288.430125 
z
" style="fill:#800000;fill-opacity:0.4;stroke:#000000;stroke-linejoin:miter;stroke-width:0.360727;"/>
   </g>
   <g id="patch_32">
    <path clip-path="url(#pc3d770cfa9)" d="M 167.809261 288.430125 
L 171.416534 288.430125 
L 171.416534 288.430125 
L 167.809261 288.430125 
z
" style="fill:#800000;fill-opacity:0.4;stroke:#000000;stroke-linejoin:miter;stroke-width:0.360727;"/>
   </g>
   <g id="patch_33">
    <path clip-path="url(#pc3d770cfa9)" d="M 171.416534 288.430125 
L 175.023807 288.430125 
L 175.023807 288.430125 
L 171.416534 288.430125 
z
" style="fill:#800000;fill-opacity:0.4;stroke:#000000;stroke-linejoin:miter;stroke-width:0.360727;"/>
   </g>
   <g id="patch_34">
    <path clip-path="url(#pc3d770cfa9)" d="M 175.023807 288.430125 
L 178.63108 288.430125 
L 178.63108 288.430125 
L 175.023807 288.430125 
z
" style="fill:#800000;fill-opacity:0.4;stroke:#000000;stroke-linejoin:miter;stroke-width:0.360727;"/>
   </g>
   <g id="patch_35">
    <path clip-path="url(#pc3d770cfa9)" d="M 178.63108 288.430125 
L 182.238352 288.430125 
L 182.238352 288.430125 
L 178.63108 288.430125 
z
" style="fill:#800000;fill-opacity:0.4;stroke:#000000;stroke-linejoin:miter;stroke-width:0.360727;"/>
   </g>
   <g id="patch_36">
    <path clip-path="url(#pc3d770cfa9)" d="M 182.238352 288.430125 
L 185.845625 288.430125 
L 185.845625 288.430125 
L 182.238352 288.430125 
z
" style="fill:#800000;fill-opacity:0.4;stroke:#000000;stroke-linejoin:miter;stroke-width:0.360727;"/>
   </g>
   <g id="patch_37">
    <path clip-path="url(#pc3d770cfa9)" d="M 185.845625 288.430125 
L 189.452898 288.430125 
L 189.452898 288.430125 
L 185.845625 288.430125 
z
" style="fill:#800000;fill-opacity:0.4;stroke:#000000;stroke-linejoin:miter;stroke-width:0.360727;"/>
   </g>
   <g id="patch_38">
    <path clip-path="url(#pc3d770cfa9)" d="M 189.452898 288.430125 
L 193.06017 288.430125 
L 193.06017 288.430125 
L 189.452898 288.430125 
z
" style="fill:#800000;fill-opacity:0.4;stroke:#000000;stroke-linejoin:miter;stroke-width:0.360727;"/>
   </g>
   <g id="patch_39">
    <path clip-path="url(#pc3d770cfa9)" d="M 193.06017 288.430125 
L 196.667443 288.430125 
L 196.667443 288.430125 
L 193.06017 288.430125 
z
" style="fill:#800000;fill-opacity:0.4;stroke:#000000;stroke-linejoin:miter;stroke-width:0.360727;"/>
   </g>
   <g id="patch_40">
    <path clip-path="url(#pc3d770cfa9)" d="M 196.667443 288.430125 
L 200.274716 288.430125 
L 200.274716 288.430125 
L 196.667443 288.430125 
z
" style="fill:#800000;fill-opacity:0.4;stroke:#000000;stroke-linejoin:miter;stroke-width:0.360727;"/>
   </g>
   <g id="patch_41">
    <path clip-path="url(#pc3d770cfa9)" d="M 200.274716 288.430125 
L 203.881989 288.430125 
L 203.881989 288.430125 
L 200.274716 288.430125 
z
" style="fill:#800000;fill-opacity:0.4;stroke:#000000;stroke-linejoin:miter;stroke-width:0.360727;"/>
   </g>
   <g id="patch_42">
    <path clip-path="url(#pc3d770cfa9)" d="M 203.881989 288.430125 
L 207.489261 288.430125 
L 207.489261 288.430125 
L 203.881989 288.430125 
z
" style="fill:#800000;fill-opacity:0.4;stroke:#000000;stroke-linejoin:miter;stroke-width:0.360727;"/>
   </g>
   <g id="patch_43">
    <path clip-path="url(#pc3d770cfa9)" d="M 207.489261 288.430125 
L 211.096534 288.430125 
L 211.096534 288.430125 
L 207.489261 288.430125 
z
" style="fill:#800000;fill-opacity:0.4;stroke:#000000;stroke-linejoin:miter;stroke-width:0.360727;"/>
   </g>
   <g id="patch_44">
    <path clip-path="url(#pc3d770cfa9)" d="M 211.096534 288.430125 
L 214.703807 288.430125 
L 214.703807 288.430125 
L 211.096534 288.430125 
z
" style="fill:#800000;fill-opacity:0.4;stroke:#000000;stroke-linejoin:miter;stroke-width:0.360727;"/>
   </g>
   <g id="patch_45">
    <path clip-path="url(#pc3d770cfa9)" d="M 214.703807 288.430125 
L 218.31108 288.430125 
L 218.31108 288.430125 
L 214.703807 288.430125 
z
" style="fill:#800000;fill-opacity:0.4;stroke:#000000;stroke-linejoin:miter;stroke-width:0.360727;"/>
   </g>
   <g id="patch_46">
    <path clip-path="url(#pc3d770cfa9)" d="M 218.31108 288.430125 
L 221.918352 288.430125 
L 221.918352 288.430125 
L 218.31108 288.430125 
z
" style="fill:#800000;fill-opacity:0.4;stroke:#000000;stroke-linejoin:miter;stroke-width:0.360727;"/>
   </g>
   <g id="patch_47">
    <path clip-path="url(#pc3d770cfa9)" d="M 221.918352 288.430125 
L 225.525625 288.430125 
L 225.525625 288.430125 
L 221.918352 288.430125 
z
" style="fill:#800000;fill-opacity:0.4;stroke:#000000;stroke-linejoin:miter;stroke-width:0.360727;"/>
   </g>
   <g id="patch_48">
    <path clip-path="url(#pc3d770cfa9)" d="M 225.525625 288.430125 
L 229.132898 288.430125 
L 229.132898 288.430125 
L 225.525625 288.430125 
z
" style="fill:#800000;fill-opacity:0.4;stroke:#000000;stroke-linejoin:miter;stroke-width:0.360727;"/>
   </g>
   <g id="patch_49">
    <path clip-path="url(#pc3d770cfa9)" d="M 229.132898 288.430125 
L 232.74017 288.430125 
L 232.74017 288.430125 
L 229.132898 288.430125 
z
" style="fill:#800000;fill-opacity:0.4;stroke:#000000;stroke-linejoin:miter;stroke-width:0.360727;"/>
   </g>
   <g id="patch_50">
    <path clip-path="url(#pc3d770cfa9)" d="M 232.74017 288.430125 
L 236.347443 288.430125 
L 236.347443 288.430125 
L 232.74017 288.430125 
z
" style="fill:#800000;fill-opacity:0.4;stroke:#000000;stroke-linejoin:miter;stroke-width:0.360727;"/>
   </g>
   <g id="patch_51">
    <path clip-path="url(#pc3d770cfa9)" d="M 236.347443 288.430125 
L 239.954716 288.430125 
L 239.954716 288.430125 
L 236.347443 288.430125 
z
" style="fill:#800000;fill-opacity:0.4;stroke:#000000;stroke-linejoin:miter;stroke-width:0.360727;"/>
   </g>
   <g id="patch_52">
    <path clip-path="url(#pc3d770cfa9)" d="M 239.954716 288.430125 
L 243.561989 288.430125 
L 243.561989 288.430125 
L 239.954716 288.430125 
z
" style="fill:#800000;fill-opacity:0.4;stroke:#000000;stroke-linejoin:miter;stroke-width:0.360727;"/>
   </g>
   <g id="patch_53">
    <path clip-path="url(#pc3d770cfa9)" d="M 243.561989 288.430125 
L 247.169261 288.430125 
L 247.169261 288.430125 
L 243.561989 288.430125 
z
" style="fill:#800000;fill-opacity:0.4;stroke:#000000;stroke-linejoin:miter;stroke-width:0.360727;"/>
   </g>
   <g id="patch_54">
    <path clip-path="url(#pc3d770cfa9)" d="M 247.169261 288.430125 
L 250.776534 288.430125 
L 250.776534 288.430125 
L 247.169261 288.430125 
z
" style="fill:#800000;fill-opacity:0.4;stroke:#000000;stroke-linejoin:miter;stroke-width:0.360727;"/>
   </g>
   <g id="patch_55">
    <path clip-path="url(#pc3d770cfa9)" d="M 250.776534 288.430125 
L 254.383807 288.430125 
L 254.383807 288.430125 
L 250.776534 288.430125 
z
" style="fill:#800000;fill-opacity:0.4;stroke:#000000;stroke-linejoin:miter;stroke-width:0.360727;"/>
   </g>
   <g id="patch_56">
    <path clip-path="url(#pc3d770cfa9)" d="M 254.383807 288.430125 
L 257.99108 288.430125 
L 257.99108 288.430125 
L 254.383807 288.430125 
z
" style="fill:#800000;fill-opacity:0.4;stroke:#000000;stroke-linejoin:miter;stroke-width:0.360727;"/>
   </g>
   <g id="patch_57">
    <path clip-path="url(#pc3d770cfa9)" d="M 257.99108 288.430125 
L 261.598352 288.430125 
L 261.598352 288.430125 
L 257.99108 288.430125 
z
" style="fill:#800000;fill-opacity:0.4;stroke:#000000;stroke-linejoin:miter;stroke-width:0.360727;"/>
   </g>
   <g id="patch_58">
    <path clip-path="url(#pc3d770cfa9)" d="M 261.598352 288.430125 
L 265.205625 288.430125 
L 265.205625 288.430125 
L 261.598352 288.430125 
z
" style="fill:#800000;fill-opacity:0.4;stroke:#000000;stroke-linejoin:miter;stroke-width:0.360727;"/>
   </g>
   <g id="patch_59">
    <path clip-path="url(#pc3d770cfa9)" d="M 265.205625 288.430125 
L 268.812898 288.430125 
L 268.812898 288.430125 
L 265.205625 288.430125 
z
" style="fill:#800000;fill-opacity:0.4;stroke:#000000;stroke-linejoin:miter;stroke-width:0.360727;"/>
   </g>
   <g id="patch_60">
    <path clip-path="url(#pc3d770cfa9)" d="M 268.812898 288.430125 
L 272.42017 288.430125 
L 272.42017 288.430125 
L 268.812898 288.430125 
z
" style="fill:#800000;fill-opacity:0.4;stroke:#000000;stroke-linejoin:miter;stroke-width:0.360727;"/>
   </g>
   <g id="patch_61">
    <path clip-path="url(#pc3d770cfa9)" d="M 272.42017 288.430125 
L 276.027443 288.430125 
L 276.027443 288.430125 
L 272.42017 288.430125 
z
" style="fill:#800000;fill-opacity:0.4;stroke:#000000;stroke-linejoin:miter;stroke-width:0.360727;"/>
   </g>
   <g id="patch_62">
    <path clip-path="url(#pc3d770cfa9)" d="M 276.027443 288.430125 
L 279.634716 288.430125 
L 279.634716 288.430125 
L 276.027443 288.430125 
z
" style="fill:#800000;fill-opacity:0.4;stroke:#000000;stroke-linejoin:miter;stroke-width:0.360727;"/>
   </g>
   <g id="patch_63">
    <path clip-path="url(#pc3d770cfa9)" d="M 279.634716 288.430125 
L 283.241989 288.430125 
L 283.241989 288.430125 
L 279.634716 288.430125 
z
" style="fill:#800000;fill-opacity:0.4;stroke:#000000;stroke-linejoin:miter;stroke-width:0.360727;"/>
   </g>
   <g id="patch_64">
    <path clip-path="url(#pc3d770cfa9)" d="M 283.241989 288.430125 
L 286.849261 288.430125 
L 286.849261 288.430125 
L 283.241989 288.430125 
z
" style="fill:#800000;fill-opacity:0.4;stroke:#000000;stroke-linejoin:miter;stroke-width:0.360727;"/>
   </g>
   <g id="patch_65">
    <path clip-path="url(#pc3d770cfa9)" d="M 286.849261 288.430125 
L 290.456534 288.430125 
L 290.456534 288.430125 
L 286.849261 288.430125 
z
" style="fill:#800000;fill-opacity:0.4;stroke:#000000;stroke-linejoin:miter;stroke-width:0.360727;"/>
   </g>
   <g id="patch_66">
    <path clip-path="url(#pc3d770cfa9)" d="M 290.456534 288.430125 
L 294.063807 288.430125 
L 294.063807 288.430125 
L 290.456534 288.430125 
z
" style="fill:#800000;fill-opacity:0.4;stroke:#000000;stroke-linejoin:miter;stroke-width:0.360727;"/>
   </g>
   <g id="patch_67">
    <path clip-path="url(#pc3d770cfa9)" d="M 294.063807 288.430125 
L 297.67108 288.430125 
L 297.67108 288.430125 
L 294.063807 288.430125 
z
" style="fill:#800000;fill-opacity:0.4;stroke:#000000;stroke-linejoin:miter;stroke-width:0.360727;"/>
   </g>
   <g id="patch_68">
    <path clip-path="url(#pc3d770cfa9)" d="M 297.67108 288.430125 
L 301.278352 288.430125 
L 301.278352 288.430125 
L 297.67108 288.430125 
z
" style="fill:#800000;fill-opacity:0.4;stroke:#000000;stroke-linejoin:miter;stroke-width:0.360727;"/>
   </g>
   <g id="patch_69">
    <path clip-path="url(#pc3d770cfa9)" d="M 301.278352 288.430125 
L 304.885625 288.430125 
L 304.885625 288.430125 
L 301.278352 288.430125 
z
" style="fill:#800000;fill-opacity:0.4;stroke:#000000;stroke-linejoin:miter;stroke-width:0.360727;"/>
   </g>
   <g id="patch_70">
    <path clip-path="url(#pc3d770cfa9)" d="M 304.885625 288.430125 
L 308.492898 288.430125 
L 308.492898 288.430125 
L 304.885625 288.430125 
z
" style="fill:#800000;fill-opacity:0.4;stroke:#000000;stroke-linejoin:miter;stroke-width:0.360727;"/>
   </g>
   <g id="patch_71">
    <path clip-path="url(#pc3d770cfa9)" d="M 308.492898 288.430125 
L 312.10017 288.430125 
L 312.10017 288.430125 
L 308.492898 288.430125 
z
" style="fill:#800000;fill-opacity:0.4;stroke:#000000;stroke-linejoin:miter;stroke-width:0.360727;"/>
   </g>
   <g id="patch_72">
    <path clip-path="url(#pc3d770cfa9)" d="M 312.10017 288.430125 
L 315.707443 288.430125 
L 315.707443 288.430125 
L 312.10017 288.430125 
z
" style="fill:#800000;fill-opacity:0.4;stroke:#000000;stroke-linejoin:miter;stroke-width:0.360727;"/>
   </g>
   <g id="patch_73">
    <path clip-path="url(#pc3d770cfa9)" d="M 315.707443 288.430125 
L 319.314716 288.430125 
L 319.314716 288.430125 
L 315.707443 288.430125 
z
" style="fill:#800000;fill-opacity:0.4;stroke:#000000;stroke-linejoin:miter;stroke-width:0.360727;"/>
   </g>
   <g id="patch_74">
    <path clip-path="url(#pc3d770cfa9)" d="M 319.314716 288.430125 
L 322.921989 288.430125 
L 322.921989 288.430125 
L 319.314716 288.430125 
z
" style="fill:#800000;fill-opacity:0.4;stroke:#000000;stroke-linejoin:miter;stroke-width:0.360727;"/>
   </g>
   <g id="patch_75">
    <path clip-path="url(#pc3d770cfa9)" d="M 322.921989 288.430125 
L 326.529261 288.430125 
L 326.529261 288.430125 
L 322.921989 288.430125 
z
" style="fill:#800000;fill-opacity:0.4;stroke:#000000;stroke-linejoin:miter;stroke-width:0.360727;"/>
   </g>
   <g id="patch_76">
    <path clip-path="url(#pc3d770cfa9)" d="M 326.529261 288.430125 
L 330.136534 288.430125 
L 330.136534 288.430125 
L 326.529261 288.430125 
z
" style="fill:#800000;fill-opacity:0.4;stroke:#000000;stroke-linejoin:miter;stroke-width:0.360727;"/>
   </g>
   <g id="patch_77">
    <path clip-path="url(#pc3d770cfa9)" d="M 330.136534 288.430125 
L 333.743807 288.430125 
L 333.743807 288.430125 
L 330.136534 288.430125 
z
" style="fill:#800000;fill-opacity:0.4;stroke:#000000;stroke-linejoin:miter;stroke-width:0.360727;"/>
   </g>
   <g id="patch_78">
    <path clip-path="url(#pc3d770cfa9)" d="M 333.743807 288.430125 
L 337.35108 288.430125 
L 337.35108 288.430125 
L 333.743807 288.430125 
z
" style="fill:#800000;fill-opacity:0.4;stroke:#000000;stroke-linejoin:miter;stroke-width:0.360727;"/>
   </g>
   <g id="patch_79">
    <path clip-path="url(#pc3d770cfa9)" d="M 337.35108 288.430125 
L 340.958352 288.430125 
L 340.958352 288.430125 
L 337.35108 288.430125 
z
" style="fill:#800000;fill-opacity:0.4;stroke:#000000;stroke-linejoin:miter;stroke-width:0.360727;"/>
   </g>
   <g id="patch_80">
    <path clip-path="url(#pc3d770cfa9)" d="M 340.958352 288.430125 
L 344.565625 288.430125 
L 344.565625 288.430125 
L 340.958352 288.430125 
z
" style="fill:#800000;fill-opacity:0.4;stroke:#000000;stroke-linejoin:miter;stroke-width:0.360727;"/>
   </g>
   <g id="patch_81">
    <path clip-path="url(#pc3d770cfa9)" d="M 344.565625 288.430125 
L 348.172898 288.430125 
L 348.172898 288.430125 
L 344.565625 288.430125 
z
" style="fill:#800000;fill-opacity:0.4;stroke:#000000;stroke-linejoin:miter;stroke-width:0.360727;"/>
   </g>
   <g id="patch_82">
    <path clip-path="url(#pc3d770cfa9)" d="M 348.172898 288.430125 
L 351.78017 288.430125 
L 351.78017 288.430125 
L 348.172898 288.430125 
z
" style="fill:#800000;fill-opacity:0.4;stroke:#000000;stroke-linejoin:miter;stroke-width:0.360727;"/>
   </g>
   <g id="patch_83">
    <path clip-path="url(#pc3d770cfa9)" d="M 351.78017 288.430125 
L 355.387443 288.430125 
L 355.387443 288.430125 
L 351.78017 288.430125 
z
" style="fill:#800000;fill-opacity:0.4;stroke:#000000;stroke-linejoin:miter;stroke-width:0.360727;"/>
   </g>
   <g id="patch_84">
    <path clip-path="url(#pc3d770cfa9)" d="M 355.387443 288.430125 
L 358.994716 288.430125 
L 358.994716 288.430125 
L 355.387443 288.430125 
z
" style="fill:#800000;fill-opacity:0.4;stroke:#000000;stroke-linejoin:miter;stroke-width:0.360727;"/>
   </g>
   <g id="patch_85">
    <path clip-path="url(#pc3d770cfa9)" d="M 358.994716 288.430125 
L 362.601989 288.430125 
L 362.601989 288.430125 
L 358.994716 288.430125 
z
" style="fill:#800000;fill-opacity:0.4;stroke:#000000;stroke-linejoin:miter;stroke-width:0.360727;"/>
   </g>
   <g id="patch_86">
    <path clip-path="url(#pc3d770cfa9)" d="M 362.601989 288.430125 
L 366.209261 288.430125 
L 366.209261 288.430125 
L 362.601989 288.430125 
z
" style="fill:#800000;fill-opacity:0.4;stroke:#000000;stroke-linejoin:miter;stroke-width:0.360727;"/>
   </g>
   <g id="patch_87">
    <path clip-path="url(#pc3d770cfa9)" d="M 366.209261 288.430125 
L 369.816534 288.430125 
L 369.816534 288.430125 
L 366.209261 288.430125 
z
" style="fill:#800000;fill-opacity:0.4;stroke:#000000;stroke-linejoin:miter;stroke-width:0.360727;"/>
   </g>
   <g id="patch_88">
    <path clip-path="url(#pc3d770cfa9)" d="M 369.816534 288.430125 
L 373.423807 288.430125 
L 373.423807 288.430125 
L 369.816534 288.430125 
z
" style="fill:#800000;fill-opacity:0.4;stroke:#000000;stroke-linejoin:miter;stroke-width:0.360727;"/>
   </g>
   <g id="patch_89">
    <path clip-path="url(#pc3d770cfa9)" d="M 373.423807 288.430125 
L 377.03108 288.430125 
L 377.03108 288.430125 
L 373.423807 288.430125 
z
" style="fill:#800000;fill-opacity:0.4;stroke:#000000;stroke-linejoin:miter;stroke-width:0.360727;"/>
   </g>
   <g id="patch_90">
    <path clip-path="url(#pc3d770cfa9)" d="M 377.03108 288.430125 
L 380.638352 288.430125 
L 380.638352 288.430125 
L 377.03108 288.430125 
z
" style="fill:#800000;fill-opacity:0.4;stroke:#000000;stroke-linejoin:miter;stroke-width:0.360727;"/>
   </g>
   <g id="patch_91">
    <path clip-path="url(#pc3d770cfa9)" d="M 380.638352 288.430125 
L 384.245625 288.430125 
L 384.245625 288.430125 
L 380.638352 288.430125 
z
" style="fill:#800000;fill-opacity:0.4;stroke:#000000;stroke-linejoin:miter;stroke-width:0.360727;"/>
   </g>
   <g id="patch_92">
    <path clip-path="url(#pc3d770cfa9)" d="M 384.245625 288.430125 
L 387.852898 288.430125 
L 387.852898 286.418696 
L 384.245625 286.418696 
z
" style="fill:#800000;fill-opacity:0.4;stroke:#000000;stroke-linejoin:miter;stroke-width:0.360727;"/>
   </g>
   <g id="matplotlib.axis_1">
    <g id="xtick_1">
     <g id="line2d_1">
      <defs>
       <path d="M 0 0 
L 0 3.5 
" id="mc4565d73f3" style="stroke:#000000;stroke-width:0.8;"/>
      </defs>
      <g>
       <use style="stroke:#000000;stroke-width:0.8;" x="93.205183" xlink:href="#mc4565d73f3" y="288.430125"/>
      </g>
     </g>
     <g id="text_1">
      <!-- 250 -->
      <g transform="translate(83.661433 303.028562)scale(0.1 -0.1)">
       <defs>
        <path d="M 19.1875 8.296875 
L 53.609375 8.296875 
L 53.609375 0 
L 7.328125 0 
L 7.328125 8.296875 
Q 12.9375 14.109375 22.625 23.890625 
Q 32.328125 33.6875 34.8125 36.53125 
Q 39.546875 41.84375 41.421875 45.53125 
Q 43.3125 49.21875 43.3125 52.78125 
Q 43.3125 58.59375 39.234375 62.25 
Q 35.15625 65.921875 28.609375 65.921875 
Q 23.96875 65.921875 18.8125 64.3125 
Q 13.671875 62.703125 7.8125 59.421875 
L 7.8125 69.390625 
Q 13.765625 71.78125 18.9375 73 
Q 24.125 74.21875 28.421875 74.21875 
Q 39.75 74.21875 46.484375 68.546875 
Q 53.21875 62.890625 53.21875 53.421875 
Q 53.21875 48.921875 51.53125 44.890625 
Q 49.859375 40.875 45.40625 35.40625 
Q 44.1875 33.984375 37.640625 27.21875 
Q 31.109375 20.453125 19.1875 8.296875 
z
" id="DejaVuSans-50"/>
        <path d="M 10.796875 72.90625 
L 49.515625 72.90625 
L 49.515625 64.59375 
L 19.828125 64.59375 
L 19.828125 46.734375 
Q 21.96875 47.46875 24.109375 47.828125 
Q 26.265625 48.1875 28.421875 48.1875 
Q 40.625 48.1875 47.75 41.5 
Q 54.890625 34.8125 54.890625 23.390625 
Q 54.890625 11.625 47.5625 5.09375 
Q 40.234375 -1.421875 26.90625 -1.421875 
Q 22.3125 -1.421875 17.546875 -0.640625 
Q 12.796875 0.140625 7.71875 1.703125 
L 7.71875 11.625 
Q 12.109375 9.234375 16.796875 8.0625 
Q 21.484375 6.890625 26.703125 6.890625 
Q 35.15625 6.890625 40.078125 11.328125 
Q 45.015625 15.765625 45.015625 23.390625 
Q 45.015625 31 40.078125 35.4375 
Q 35.15625 39.890625 26.703125 39.890625 
Q 22.75 39.890625 18.8125 39.015625 
Q 14.890625 38.140625 10.796875 36.28125 
z
" id="DejaVuSans-53"/>
        <path d="M 31.78125 66.40625 
Q 24.171875 66.40625 20.328125 58.90625 
Q 16.5 51.421875 16.5 36.375 
Q 16.5 21.390625 20.328125 13.890625 
Q 24.171875 6.390625 31.78125 6.390625 
Q 39.453125 6.390625 43.28125 13.890625 
Q 47.125 21.390625 47.125 36.375 
Q 47.125 51.421875 43.28125 58.90625 
Q 39.453125 66.40625 31.78125 66.40625 
z
M 31.78125 74.21875 
Q 44.046875 74.21875 50.515625 64.515625 
Q 56.984375 54.828125 56.984375 36.375 
Q 56.984375 17.96875 50.515625 8.265625 
Q 44.046875 -1.421875 31.78125 -1.421875 
Q 19.53125 -1.421875 13.0625 8.265625 
Q 6.59375 17.96875 6.59375 36.375 
Q 6.59375 54.828125 13.0625 64.515625 
Q 19.53125 74.21875 31.78125 74.21875 
z
" id="DejaVuSans-48"/>
       </defs>
       <use xlink:href="#DejaVuSans-50"/>
       <use x="63.623047" xlink:href="#DejaVuSans-53"/>
       <use x="127.246094" xlink:href="#DejaVuSans-48"/>
      </g>
     </g>
    </g>
    <g id="xtick_2">
     <g id="line2d_2">
      <g>
       <use style="stroke:#000000;stroke-width:0.8;" x="141.603296" xlink:href="#mc4565d73f3" y="288.430125"/>
      </g>
     </g>
     <g id="text_2">
      <!-- 500 -->
      <g transform="translate(132.059546 303.028562)scale(0.1 -0.1)">
       <use xlink:href="#DejaVuSans-53"/>
       <use x="63.623047" xlink:href="#DejaVuSans-48"/>
       <use x="127.246094" xlink:href="#DejaVuSans-48"/>
      </g>
     </g>
    </g>
    <g id="xtick_3">
     <g id="line2d_3">
      <g>
       <use style="stroke:#000000;stroke-width:0.8;" x="190.00141" xlink:href="#mc4565d73f3" y="288.430125"/>
      </g>
     </g>
     <g id="text_3">
      <!-- 750 -->
      <g transform="translate(180.45766 303.028562)scale(0.1 -0.1)">
       <defs>
        <path d="M 8.203125 72.90625 
L 55.078125 72.90625 
L 55.078125 68.703125 
L 28.609375 0 
L 18.3125 0 
L 43.21875 64.59375 
L 8.203125 64.59375 
z
" id="DejaVuSans-55"/>
       </defs>
       <use xlink:href="#DejaVuSans-55"/>
       <use x="63.623047" xlink:href="#DejaVuSans-53"/>
       <use x="127.246094" xlink:href="#DejaVuSans-48"/>
      </g>
     </g>
    </g>
    <g id="xtick_4">
     <g id="line2d_4">
      <g>
       <use style="stroke:#000000;stroke-width:0.8;" x="238.399523" xlink:href="#mc4565d73f3" y="288.430125"/>
      </g>
     </g>
     <g id="text_4">
      <!-- 1000 -->
      <g transform="translate(225.674523 303.028562)scale(0.1 -0.1)">
       <defs>
        <path d="M 12.40625 8.296875 
L 28.515625 8.296875 
L 28.515625 63.921875 
L 10.984375 60.40625 
L 10.984375 69.390625 
L 28.421875 72.90625 
L 38.28125 72.90625 
L 38.28125 8.296875 
L 54.390625 8.296875 
L 54.390625 0 
L 12.40625 0 
z
" id="DejaVuSans-49"/>
       </defs>
       <use xlink:href="#DejaVuSans-49"/>
       <use x="63.623047" xlink:href="#DejaVuSans-48"/>
       <use x="127.246094" xlink:href="#DejaVuSans-48"/>
       <use x="190.869141" xlink:href="#DejaVuSans-48"/>
      </g>
     </g>
    </g>
    <g id="xtick_5">
     <g id="line2d_5">
      <g>
       <use style="stroke:#000000;stroke-width:0.8;" x="286.797637" xlink:href="#mc4565d73f3" y="288.430125"/>
      </g>
     </g>
     <g id="text_5">
      <!-- 1250 -->
      <g transform="translate(274.072637 303.028562)scale(0.1 -0.1)">
       <use xlink:href="#DejaVuSans-49"/>
       <use x="63.623047" xlink:href="#DejaVuSans-50"/>
       <use x="127.246094" xlink:href="#DejaVuSans-53"/>
       <use x="190.869141" xlink:href="#DejaVuSans-48"/>
      </g>
     </g>
    </g>
    <g id="xtick_6">
     <g id="line2d_6">
      <g>
       <use style="stroke:#000000;stroke-width:0.8;" x="335.19575" xlink:href="#mc4565d73f3" y="288.430125"/>
      </g>
     </g>
     <g id="text_6">
      <!-- 1500 -->
      <g transform="translate(322.47075 303.028562)scale(0.1 -0.1)">
       <use xlink:href="#DejaVuSans-49"/>
       <use x="63.623047" xlink:href="#DejaVuSans-53"/>
       <use x="127.246094" xlink:href="#DejaVuSans-48"/>
       <use x="190.869141" xlink:href="#DejaVuSans-48"/>
      </g>
     </g>
    </g>
    <g id="xtick_7">
     <g id="line2d_7">
      <g>
       <use style="stroke:#000000;stroke-width:0.8;" x="383.593864" xlink:href="#mc4565d73f3" y="288.430125"/>
      </g>
     </g>
     <g id="text_7">
      <!-- 1750 -->
      <g transform="translate(370.868864 303.028562)scale(0.1 -0.1)">
       <use xlink:href="#DejaVuSans-49"/>
       <use x="63.623047" xlink:href="#DejaVuSans-55"/>
       <use x="127.246094" xlink:href="#DejaVuSans-53"/>
       <use x="190.869141" xlink:href="#DejaVuSans-48"/>
      </g>
     </g>
    </g>
    <g id="text_8">
     <!-- Protein length -->
     <g transform="translate(190.474844 316.706687)scale(0.1 -0.1)">
      <defs>
       <path d="M 19.671875 64.796875 
L 19.671875 37.40625 
L 32.078125 37.40625 
Q 38.96875 37.40625 42.71875 40.96875 
Q 46.484375 44.53125 46.484375 51.125 
Q 46.484375 57.671875 42.71875 61.234375 
Q 38.96875 64.796875 32.078125 64.796875 
z
M 9.8125 72.90625 
L 32.078125 72.90625 
Q 44.34375 72.90625 50.609375 67.359375 
Q 56.890625 61.8125 56.890625 51.125 
Q 56.890625 40.328125 50.609375 34.8125 
Q 44.34375 29.296875 32.078125 29.296875 
L 19.671875 29.296875 
L 19.671875 0 
L 9.8125 0 
z
" id="DejaVuSans-80"/>
       <path d="M 41.109375 46.296875 
Q 39.59375 47.171875 37.8125 47.578125 
Q 36.03125 48 33.890625 48 
Q 26.265625 48 22.1875 43.046875 
Q 18.109375 38.09375 18.109375 28.8125 
L 18.109375 0 
L 9.078125 0 
L 9.078125 54.6875 
L 18.109375 54.6875 
L 18.109375 46.1875 
Q 20.953125 51.171875 25.484375 53.578125 
Q 30.03125 56 36.53125 56 
Q 37.453125 56 38.578125 55.875 
Q 39.703125 55.765625 41.0625 55.515625 
z
" id="DejaVuSans-114"/>
       <path d="M 30.609375 48.390625 
Q 23.390625 48.390625 19.1875 42.75 
Q 14.984375 37.109375 14.984375 27.296875 
Q 14.984375 17.484375 19.15625 11.84375 
Q 23.34375 6.203125 30.609375 6.203125 
Q 37.796875 6.203125 41.984375 11.859375 
Q 46.1875 17.53125 46.1875 27.296875 
Q 46.1875 37.015625 41.984375 42.703125 
Q 37.796875 48.390625 30.609375 48.390625 
z
M 30.609375 56 
Q 42.328125 56 49.015625 48.375 
Q 55.71875 40.765625 55.71875 27.296875 
Q 55.71875 13.875 49.015625 6.21875 
Q 42.328125 -1.421875 30.609375 -1.421875 
Q 18.84375 -1.421875 12.171875 6.21875 
Q 5.515625 13.875 5.515625 27.296875 
Q 5.515625 40.765625 12.171875 48.375 
Q 18.84375 56 30.609375 56 
z
" id="DejaVuSans-111"/>
       <path d="M 18.3125 70.21875 
L 18.3125 54.6875 
L 36.8125 54.6875 
L 36.8125 47.703125 
L 18.3125 47.703125 
L 18.3125 18.015625 
Q 18.3125 11.328125 20.140625 9.421875 
Q 21.96875 7.515625 27.59375 7.515625 
L 36.8125 7.515625 
L 36.8125 0 
L 27.59375 0 
Q 17.1875 0 13.234375 3.875 
Q 9.28125 7.765625 9.28125 18.015625 
L 9.28125 47.703125 
L 2.6875 47.703125 
L 2.6875 54.6875 
L 9.28125 54.6875 
L 9.28125 70.21875 
z
" id="DejaVuSans-116"/>
       <path d="M 56.203125 29.59375 
L 56.203125 25.203125 
L 14.890625 25.203125 
Q 15.484375 15.921875 20.484375 11.0625 
Q 25.484375 6.203125 34.421875 6.203125 
Q 39.59375 6.203125 44.453125 7.46875 
Q 49.3125 8.734375 54.109375 11.28125 
L 54.109375 2.78125 
Q 49.265625 0.734375 44.1875 -0.34375 
Q 39.109375 -1.421875 33.890625 -1.421875 
Q 20.796875 -1.421875 13.15625 6.1875 
Q 5.515625 13.8125 5.515625 26.8125 
Q 5.515625 40.234375 12.765625 48.109375 
Q 20.015625 56 32.328125 56 
Q 43.359375 56 49.78125 48.890625 
Q 56.203125 41.796875 56.203125 29.59375 
z
M 47.21875 32.234375 
Q 47.125 39.59375 43.09375 43.984375 
Q 39.0625 48.390625 32.421875 48.390625 
Q 24.90625 48.390625 20.390625 44.140625 
Q 15.875 39.890625 15.1875 32.171875 
z
" id="DejaVuSans-101"/>
       <path d="M 9.421875 54.6875 
L 18.40625 54.6875 
L 18.40625 0 
L 9.421875 0 
z
M 9.421875 75.984375 
L 18.40625 75.984375 
L 18.40625 64.59375 
L 9.421875 64.59375 
z
" id="DejaVuSans-105"/>
       <path d="M 54.890625 33.015625 
L 54.890625 0 
L 45.90625 0 
L 45.90625 32.71875 
Q 45.90625 40.484375 42.875 44.328125 
Q 39.84375 48.1875 33.796875 48.1875 
Q 26.515625 48.1875 22.3125 43.546875 
Q 18.109375 38.921875 18.109375 30.90625 
L 18.109375 0 
L 9.078125 0 
L 9.078125 54.6875 
L 18.109375 54.6875 
L 18.109375 46.1875 
Q 21.34375 51.125 25.703125 53.5625 
Q 30.078125 56 35.796875 56 
Q 45.21875 56 50.046875 50.171875 
Q 54.890625 44.34375 54.890625 33.015625 
z
" id="DejaVuSans-110"/>
       <path id="DejaVuSans-32"/>
       <path d="M 9.421875 75.984375 
L 18.40625 75.984375 
L 18.40625 0 
L 9.421875 0 
z
" id="DejaVuSans-108"/>
       <path d="M 45.40625 27.984375 
Q 45.40625 37.75 41.375 43.109375 
Q 37.359375 48.484375 30.078125 48.484375 
Q 22.859375 48.484375 18.828125 43.109375 
Q 14.796875 37.75 14.796875 27.984375 
Q 14.796875 18.265625 18.828125 12.890625 
Q 22.859375 7.515625 30.078125 7.515625 
Q 37.359375 7.515625 41.375 12.890625 
Q 45.40625 18.265625 45.40625 27.984375 
z
M 54.390625 6.78125 
Q 54.390625 -7.171875 48.1875 -13.984375 
Q 42 -20.796875 29.203125 -20.796875 
Q 24.46875 -20.796875 20.265625 -20.09375 
Q 16.0625 -19.390625 12.109375 -17.921875 
L 12.109375 -9.1875 
Q 16.0625 -11.328125 19.921875 -12.34375 
Q 23.78125 -13.375 27.78125 -13.375 
Q 36.625 -13.375 41.015625 -8.765625 
Q 45.40625 -4.15625 45.40625 5.171875 
L 45.40625 9.625 
Q 42.625 4.78125 38.28125 2.390625 
Q 33.9375 0 27.875 0 
Q 17.828125 0 11.671875 7.65625 
Q 5.515625 15.328125 5.515625 27.984375 
Q 5.515625 40.671875 11.671875 48.328125 
Q 17.828125 56 27.875 56 
Q 33.9375 56 38.28125 53.609375 
Q 42.625 51.21875 45.40625 46.390625 
L 45.40625 54.6875 
L 54.390625 54.6875 
z
" id="DejaVuSans-103"/>
       <path d="M 54.890625 33.015625 
L 54.890625 0 
L 45.90625 0 
L 45.90625 32.71875 
Q 45.90625 40.484375 42.875 44.328125 
Q 39.84375 48.1875 33.796875 48.1875 
Q 26.515625 48.1875 22.3125 43.546875 
Q 18.109375 38.921875 18.109375 30.90625 
L 18.109375 0 
L 9.078125 0 
L 9.078125 75.984375 
L 18.109375 75.984375 
L 18.109375 46.1875 
Q 21.34375 51.125 25.703125 53.5625 
Q 30.078125 56 35.796875 56 
Q 45.21875 56 50.046875 50.171875 
Q 54.890625 44.34375 54.890625 33.015625 
z
" id="DejaVuSans-104"/>
      </defs>
      <use xlink:href="#DejaVuSans-80"/>
      <use x="58.552734" xlink:href="#DejaVuSans-114"/>
      <use x="97.416016" xlink:href="#DejaVuSans-111"/>
      <use x="158.597656" xlink:href="#DejaVuSans-116"/>
      <use x="197.806641" xlink:href="#DejaVuSans-101"/>
      <use x="259.330078" xlink:href="#DejaVuSans-105"/>
      <use x="287.113281" xlink:href="#DejaVuSans-110"/>
      <use x="350.492188" xlink:href="#DejaVuSans-32"/>
      <use x="382.279297" xlink:href="#DejaVuSans-108"/>
      <use x="410.0625" xlink:href="#DejaVuSans-101"/>
      <use x="471.585938" xlink:href="#DejaVuSans-110"/>
      <use x="534.964844" xlink:href="#DejaVuSans-103"/>
      <use x="598.441406" xlink:href="#DejaVuSans-116"/>
      <use x="637.650391" xlink:href="#DejaVuSans-104"/>
     </g>
    </g>
   </g>
   <g id="matplotlib.axis_2">
    <g id="ytick_1">
     <g id="line2d_8">
      <defs>
       <path d="M 0 0 
L -3.5 0 
" id="m822280d396" style="stroke:#000000;stroke-width:0.8;"/>
      </defs>
      <g>
       <use style="stroke:#000000;stroke-width:0.8;" x="46.965625" xlink:href="#m822280d396" y="288.430125"/>
      </g>
     </g>
     <g id="text_9">
      <!-- 0 -->
      <g transform="translate(33.603125 292.229344)scale(0.1 -0.1)">
       <use xlink:href="#DejaVuSans-48"/>
      </g>
     </g>
    </g>
    <g id="ytick_2">
     <g id="line2d_9">
      <g>
       <use style="stroke:#000000;stroke-width:0.8;" x="46.965625" xlink:href="#m822280d396" y="248.201554"/>
      </g>
     </g>
     <g id="text_10">
      <!-- 20 -->
      <g transform="translate(27.240625 252.000772)scale(0.1 -0.1)">
       <use xlink:href="#DejaVuSans-50"/>
       <use x="63.623047" xlink:href="#DejaVuSans-48"/>
      </g>
     </g>
    </g>
    <g id="ytick_3">
     <g id="line2d_10">
      <g>
       <use style="stroke:#000000;stroke-width:0.8;" x="46.965625" xlink:href="#m822280d396" y="207.972982"/>
      </g>
     </g>
     <g id="text_11">
      <!-- 40 -->
      <g transform="translate(27.240625 211.772201)scale(0.1 -0.1)">
       <defs>
        <path d="M 37.796875 64.3125 
L 12.890625 25.390625 
L 37.796875 25.390625 
z
M 35.203125 72.90625 
L 47.609375 72.90625 
L 47.609375 25.390625 
L 58.015625 25.390625 
L 58.015625 17.1875 
L 47.609375 17.1875 
L 47.609375 0 
L 37.796875 0 
L 37.796875 17.1875 
L 4.890625 17.1875 
L 4.890625 26.703125 
z
" id="DejaVuSans-52"/>
       </defs>
       <use xlink:href="#DejaVuSans-52"/>
       <use x="63.623047" xlink:href="#DejaVuSans-48"/>
      </g>
     </g>
    </g>
    <g id="ytick_4">
     <g id="line2d_11">
      <g>
       <use style="stroke:#000000;stroke-width:0.8;" x="46.965625" xlink:href="#m822280d396" y="167.744411"/>
      </g>
     </g>
     <g id="text_12">
      <!-- 60 -->
      <g transform="translate(27.240625 171.543629)scale(0.1 -0.1)">
       <defs>
        <path d="M 33.015625 40.375 
Q 26.375 40.375 22.484375 35.828125 
Q 18.609375 31.296875 18.609375 23.390625 
Q 18.609375 15.53125 22.484375 10.953125 
Q 26.375 6.390625 33.015625 6.390625 
Q 39.65625 6.390625 43.53125 10.953125 
Q 47.40625 15.53125 47.40625 23.390625 
Q 47.40625 31.296875 43.53125 35.828125 
Q 39.65625 40.375 33.015625 40.375 
z
M 52.59375 71.296875 
L 52.59375 62.3125 
Q 48.875 64.0625 45.09375 64.984375 
Q 41.3125 65.921875 37.59375 65.921875 
Q 27.828125 65.921875 22.671875 59.328125 
Q 17.53125 52.734375 16.796875 39.40625 
Q 19.671875 43.65625 24.015625 45.921875 
Q 28.375 48.1875 33.59375 48.1875 
Q 44.578125 48.1875 50.953125 41.515625 
Q 57.328125 34.859375 57.328125 23.390625 
Q 57.328125 12.15625 50.6875 5.359375 
Q 44.046875 -1.421875 33.015625 -1.421875 
Q 20.359375 -1.421875 13.671875 8.265625 
Q 6.984375 17.96875 6.984375 36.375 
Q 6.984375 53.65625 15.1875 63.9375 
Q 23.390625 74.21875 37.203125 74.21875 
Q 40.921875 74.21875 44.703125 73.484375 
Q 48.484375 72.75 52.59375 71.296875 
z
" id="DejaVuSans-54"/>
       </defs>
       <use xlink:href="#DejaVuSans-54"/>
       <use x="63.623047" xlink:href="#DejaVuSans-48"/>
      </g>
     </g>
    </g>
    <g id="ytick_5">
     <g id="line2d_12">
      <g>
       <use style="stroke:#000000;stroke-width:0.8;" x="46.965625" xlink:href="#m822280d396" y="127.515839"/>
      </g>
     </g>
     <g id="text_13">
      <!-- 80 -->
      <g transform="translate(27.240625 131.315058)scale(0.1 -0.1)">
       <defs>
        <path d="M 31.78125 34.625 
Q 24.75 34.625 20.71875 30.859375 
Q 16.703125 27.09375 16.703125 20.515625 
Q 16.703125 13.921875 20.71875 10.15625 
Q 24.75 6.390625 31.78125 6.390625 
Q 38.8125 6.390625 42.859375 10.171875 
Q 46.921875 13.96875 46.921875 20.515625 
Q 46.921875 27.09375 42.890625 30.859375 
Q 38.875 34.625 31.78125 34.625 
z
M 21.921875 38.8125 
Q 15.578125 40.375 12.03125 44.71875 
Q 8.5 49.078125 8.5 55.328125 
Q 8.5 64.0625 14.71875 69.140625 
Q 20.953125 74.21875 31.78125 74.21875 
Q 42.671875 74.21875 48.875 69.140625 
Q 55.078125 64.0625 55.078125 55.328125 
Q 55.078125 49.078125 51.53125 44.71875 
Q 48 40.375 41.703125 38.8125 
Q 48.828125 37.15625 52.796875 32.3125 
Q 56.78125 27.484375 56.78125 20.515625 
Q 56.78125 9.90625 50.3125 4.234375 
Q 43.84375 -1.421875 31.78125 -1.421875 
Q 19.734375 -1.421875 13.25 4.234375 
Q 6.78125 9.90625 6.78125 20.515625 
Q 6.78125 27.484375 10.78125 32.3125 
Q 14.796875 37.15625 21.921875 38.8125 
z
M 18.3125 54.390625 
Q 18.3125 48.734375 21.84375 45.5625 
Q 25.390625 42.390625 31.78125 42.390625 
Q 38.140625 42.390625 41.71875 45.5625 
Q 45.3125 48.734375 45.3125 54.390625 
Q 45.3125 60.0625 41.71875 63.234375 
Q 38.140625 66.40625 31.78125 66.40625 
Q 25.390625 66.40625 21.84375 63.234375 
Q 18.3125 60.0625 18.3125 54.390625 
z
" id="DejaVuSans-56"/>
       </defs>
       <use xlink:href="#DejaVuSans-56"/>
       <use x="63.623047" xlink:href="#DejaVuSans-48"/>
      </g>
     </g>
    </g>
    <g id="ytick_6">
     <g id="line2d_13">
      <g>
       <use style="stroke:#000000;stroke-width:0.8;" x="46.965625" xlink:href="#m822280d396" y="87.287268"/>
      </g>
     </g>
     <g id="text_14">
      <!-- 100 -->
      <g transform="translate(20.878125 91.086487)scale(0.1 -0.1)">
       <use xlink:href="#DejaVuSans-49"/>
       <use x="63.623047" xlink:href="#DejaVuSans-48"/>
       <use x="127.246094" xlink:href="#DejaVuSans-48"/>
      </g>
     </g>
    </g>
    <g id="ytick_7">
     <g id="line2d_14">
      <g>
       <use style="stroke:#000000;stroke-width:0.8;" x="46.965625" xlink:href="#m822280d396" y="47.058696"/>
      </g>
     </g>
     <g id="text_15">
      <!-- 120 -->
      <g transform="translate(20.878125 50.857915)scale(0.1 -0.1)">
       <use xlink:href="#DejaVuSans-49"/>
       <use x="63.623047" xlink:href="#DejaVuSans-50"/>
       <use x="127.246094" xlink:href="#DejaVuSans-48"/>
      </g>
     </g>
    </g>
    <g id="text_16">
     <!-- Count -->
     <g transform="translate(14.798438 170.222562)rotate(-90)scale(0.1 -0.1)">
      <defs>
       <path d="M 64.40625 67.28125 
L 64.40625 56.890625 
Q 59.421875 61.53125 53.78125 63.8125 
Q 48.140625 66.109375 41.796875 66.109375 
Q 29.296875 66.109375 22.65625 58.46875 
Q 16.015625 50.828125 16.015625 36.375 
Q 16.015625 21.96875 22.65625 14.328125 
Q 29.296875 6.6875 41.796875 6.6875 
Q 48.140625 6.6875 53.78125 8.984375 
Q 59.421875 11.28125 64.40625 15.921875 
L 64.40625 5.609375 
Q 59.234375 2.09375 53.4375 0.328125 
Q 47.65625 -1.421875 41.21875 -1.421875 
Q 24.65625 -1.421875 15.125 8.703125 
Q 5.609375 18.84375 5.609375 36.375 
Q 5.609375 53.953125 15.125 64.078125 
Q 24.65625 74.21875 41.21875 74.21875 
Q 47.75 74.21875 53.53125 72.484375 
Q 59.328125 70.75 64.40625 67.28125 
z
" id="DejaVuSans-67"/>
       <path d="M 8.5 21.578125 
L 8.5 54.6875 
L 17.484375 54.6875 
L 17.484375 21.921875 
Q 17.484375 14.15625 20.5 10.265625 
Q 23.53125 6.390625 29.59375 6.390625 
Q 36.859375 6.390625 41.078125 11.03125 
Q 45.3125 15.671875 45.3125 23.6875 
L 45.3125 54.6875 
L 54.296875 54.6875 
L 54.296875 0 
L 45.3125 0 
L 45.3125 8.40625 
Q 42.046875 3.421875 37.71875 1 
Q 33.40625 -1.421875 27.6875 -1.421875 
Q 18.265625 -1.421875 13.375 4.4375 
Q 8.5 10.296875 8.5 21.578125 
z
M 31.109375 56 
z
" id="DejaVuSans-117"/>
      </defs>
      <use xlink:href="#DejaVuSans-67"/>
      <use x="69.824219" xlink:href="#DejaVuSans-111"/>
      <use x="131.005859" xlink:href="#DejaVuSans-117"/>
      <use x="194.384766" xlink:href="#DejaVuSans-110"/>
      <use x="257.763672" xlink:href="#DejaVuSans-116"/>
     </g>
    </g>
   </g>
   <g id="line2d_15">
    <path clip-path="url(#pc3d770cfa9)" d="M 63.198352 286.724583 
L 66.461212 285.342876 
L 68.092642 284.490689 
L 69.724072 283.506129 
L 71.355502 282.330761 
L 72.986932 280.888599 
L 74.618361 279.126935 
L 76.249791 277.047328 
L 79.512651 272.199994 
L 84.406941 264.428341 
L 86.038371 261.456835 
L 87.6698 257.830014 
L 89.30123 253.339829 
L 90.93266 248.000593 
L 92.56409 241.95256 
L 94.19552 235.24419 
L 95.82695 227.686608 
L 97.45838 218.916937 
L 99.08981 208.661186 
L 102.352669 184.681205 
L 103.984099 172.526656 
L 105.615529 161.443616 
L 107.246959 151.922798 
L 108.878389 143.950536 
L 112.141249 129.841841 
L 113.772678 121.232715 
L 115.404108 110.207125 
L 118.666968 84.018107 
L 120.298398 74.28353 
L 121.929828 71.584566 
L 123.561258 78.604493 
L 125.192688 95.987937 
L 126.824117 121.927118 
L 130.086977 183.747594 
L 131.718407 211.53377 
L 133.349837 234.013818 
L 134.981267 250.844789 
L 136.612697 262.749945 
L 138.244127 270.839258 
L 139.875556 276.185621 
L 141.506986 279.682379 
L 143.138416 282.026214 
L 144.769846 283.70216 
L 146.401276 284.976083 
L 148.032706 285.949038 
L 149.664136 286.660599 
L 151.295566 287.164615 
L 154.558425 287.822105 
L 157.821285 288.219733 
L 161.084145 288.387149 
L 169.241294 288.430067 
L 379.695748 288.329691 
L 384.590038 287.917648 
L 387.852898 287.731101 
L 387.852898 287.731101 
" style="fill:none;stroke:#800000;stroke-dasharray:7.4,3.2;stroke-dashoffset:0;stroke-width:2;"/>
   </g>
   <g id="patch_93">
    <path d="M 46.965625 288.430125 
L 46.965625 22.318125 
" style="fill:none;stroke:#000000;stroke-linecap:square;stroke-linejoin:miter;stroke-width:0.8;"/>
   </g>
   <g id="patch_94">
    <path d="M 404.085625 288.430125 
L 404.085625 22.318125 
" style="fill:none;stroke:#000000;stroke-linecap:square;stroke-linejoin:miter;stroke-width:0.8;"/>
   </g>
   <g id="patch_95">
    <path d="M 46.965625 288.430125 
L 404.085625 288.430125 
" style="fill:none;stroke:#000000;stroke-linecap:square;stroke-linejoin:miter;stroke-width:0.8;"/>
   </g>
   <g id="patch_96">
    <path d="M 46.965625 22.318125 
L 404.085625 22.318125 
" style="fill:none;stroke:#000000;stroke-linecap:square;stroke-linejoin:miter;stroke-width:0.8;"/>
   </g>
   <g id="text_17">
    <!-- Eukaryota - Density of median proteome length -->
    <g transform="translate(82.287813 16.318125)scale(0.12 -0.12)">
     <defs>
      <path d="M 9.8125 72.90625 
L 55.90625 72.90625 
L 55.90625 64.59375 
L 19.671875 64.59375 
L 19.671875 43.015625 
L 54.390625 43.015625 
L 54.390625 34.71875 
L 19.671875 34.71875 
L 19.671875 8.296875 
L 56.78125 8.296875 
L 56.78125 0 
L 9.8125 0 
z
" id="DejaVuSans-69"/>
      <path d="M 9.078125 75.984375 
L 18.109375 75.984375 
L 18.109375 31.109375 
L 44.921875 54.6875 
L 56.390625 54.6875 
L 27.390625 29.109375 
L 57.625 0 
L 45.90625 0 
L 18.109375 26.703125 
L 18.109375 0 
L 9.078125 0 
z
" id="DejaVuSans-107"/>
      <path d="M 34.28125 27.484375 
Q 23.390625 27.484375 19.1875 25 
Q 14.984375 22.515625 14.984375 16.5 
Q 14.984375 11.71875 18.140625 8.90625 
Q 21.296875 6.109375 26.703125 6.109375 
Q 34.1875 6.109375 38.703125 11.40625 
Q 43.21875 16.703125 43.21875 25.484375 
L 43.21875 27.484375 
z
M 52.203125 31.203125 
L 52.203125 0 
L 43.21875 0 
L 43.21875 8.296875 
Q 40.140625 3.328125 35.546875 0.953125 
Q 30.953125 -1.421875 24.3125 -1.421875 
Q 15.921875 -1.421875 10.953125 3.296875 
Q 6 8.015625 6 15.921875 
Q 6 25.140625 12.171875 29.828125 
Q 18.359375 34.515625 30.609375 34.515625 
L 43.21875 34.515625 
L 43.21875 35.40625 
Q 43.21875 41.609375 39.140625 45 
Q 35.0625 48.390625 27.6875 48.390625 
Q 23 48.390625 18.546875 47.265625 
Q 14.109375 46.140625 10.015625 43.890625 
L 10.015625 52.203125 
Q 14.9375 54.109375 19.578125 55.046875 
Q 24.21875 56 28.609375 56 
Q 40.484375 56 46.34375 49.84375 
Q 52.203125 43.703125 52.203125 31.203125 
z
" id="DejaVuSans-97"/>
      <path d="M 32.171875 -5.078125 
Q 28.375 -14.84375 24.75 -17.8125 
Q 21.140625 -20.796875 15.09375 -20.796875 
L 7.90625 -20.796875 
L 7.90625 -13.28125 
L 13.1875 -13.28125 
Q 16.890625 -13.28125 18.9375 -11.515625 
Q 21 -9.765625 23.484375 -3.21875 
L 25.09375 0.875 
L 2.984375 54.6875 
L 12.5 54.6875 
L 29.59375 11.921875 
L 46.6875 54.6875 
L 56.203125 54.6875 
z
" id="DejaVuSans-121"/>
      <path d="M 4.890625 31.390625 
L 31.203125 31.390625 
L 31.203125 23.390625 
L 4.890625 23.390625 
z
" id="DejaVuSans-45"/>
      <path d="M 19.671875 64.796875 
L 19.671875 8.109375 
L 31.59375 8.109375 
Q 46.6875 8.109375 53.6875 14.9375 
Q 60.6875 21.78125 60.6875 36.53125 
Q 60.6875 51.171875 53.6875 57.984375 
Q 46.6875 64.796875 31.59375 64.796875 
z
M 9.8125 72.90625 
L 30.078125 72.90625 
Q 51.265625 72.90625 61.171875 64.09375 
Q 71.09375 55.28125 71.09375 36.53125 
Q 71.09375 17.671875 61.125 8.828125 
Q 51.171875 0 30.078125 0 
L 9.8125 0 
z
" id="DejaVuSans-68"/>
      <path d="M 44.28125 53.078125 
L 44.28125 44.578125 
Q 40.484375 46.53125 36.375 47.5 
Q 32.28125 48.484375 27.875 48.484375 
Q 21.1875 48.484375 17.84375 46.4375 
Q 14.5 44.390625 14.5 40.28125 
Q 14.5 37.15625 16.890625 35.375 
Q 19.28125 33.59375 26.515625 31.984375 
L 29.59375 31.296875 
Q 39.15625 29.25 43.1875 25.515625 
Q 47.21875 21.78125 47.21875 15.09375 
Q 47.21875 7.46875 41.1875 3.015625 
Q 35.15625 -1.421875 24.609375 -1.421875 
Q 20.21875 -1.421875 15.453125 -0.5625 
Q 10.6875 0.296875 5.421875 2 
L 5.421875 11.28125 
Q 10.40625 8.6875 15.234375 7.390625 
Q 20.0625 6.109375 24.8125 6.109375 
Q 31.15625 6.109375 34.5625 8.28125 
Q 37.984375 10.453125 37.984375 14.40625 
Q 37.984375 18.0625 35.515625 20.015625 
Q 33.0625 21.96875 24.703125 23.78125 
L 21.578125 24.515625 
Q 13.234375 26.265625 9.515625 29.90625 
Q 5.8125 33.546875 5.8125 39.890625 
Q 5.8125 47.609375 11.28125 51.796875 
Q 16.75 56 26.8125 56 
Q 31.78125 56 36.171875 55.265625 
Q 40.578125 54.546875 44.28125 53.078125 
z
" id="DejaVuSans-115"/>
      <path d="M 37.109375 75.984375 
L 37.109375 68.5 
L 28.515625 68.5 
Q 23.6875 68.5 21.796875 66.546875 
Q 19.921875 64.59375 19.921875 59.515625 
L 19.921875 54.6875 
L 34.71875 54.6875 
L 34.71875 47.703125 
L 19.921875 47.703125 
L 19.921875 0 
L 10.890625 0 
L 10.890625 47.703125 
L 2.296875 47.703125 
L 2.296875 54.6875 
L 10.890625 54.6875 
L 10.890625 58.5 
Q 10.890625 67.625 15.140625 71.796875 
Q 19.390625 75.984375 28.609375 75.984375 
z
" id="DejaVuSans-102"/>
      <path d="M 52 44.1875 
Q 55.375 50.25 60.0625 53.125 
Q 64.75 56 71.09375 56 
Q 79.640625 56 84.28125 50.015625 
Q 88.921875 44.046875 88.921875 33.015625 
L 88.921875 0 
L 79.890625 0 
L 79.890625 32.71875 
Q 79.890625 40.578125 77.09375 44.375 
Q 74.3125 48.1875 68.609375 48.1875 
Q 61.625 48.1875 57.5625 43.546875 
Q 53.515625 38.921875 53.515625 30.90625 
L 53.515625 0 
L 44.484375 0 
L 44.484375 32.71875 
Q 44.484375 40.625 41.703125 44.40625 
Q 38.921875 48.1875 33.109375 48.1875 
Q 26.21875 48.1875 22.15625 43.53125 
Q 18.109375 38.875 18.109375 30.90625 
L 18.109375 0 
L 9.078125 0 
L 9.078125 54.6875 
L 18.109375 54.6875 
L 18.109375 46.1875 
Q 21.1875 51.21875 25.484375 53.609375 
Q 29.78125 56 35.6875 56 
Q 41.65625 56 45.828125 52.96875 
Q 50 49.953125 52 44.1875 
z
" id="DejaVuSans-109"/>
      <path d="M 45.40625 46.390625 
L 45.40625 75.984375 
L 54.390625 75.984375 
L 54.390625 0 
L 45.40625 0 
L 45.40625 8.203125 
Q 42.578125 3.328125 38.25 0.953125 
Q 33.9375 -1.421875 27.875 -1.421875 
Q 17.96875 -1.421875 11.734375 6.484375 
Q 5.515625 14.40625 5.515625 27.296875 
Q 5.515625 40.1875 11.734375 48.09375 
Q 17.96875 56 27.875 56 
Q 33.9375 56 38.25 53.625 
Q 42.578125 51.265625 45.40625 46.390625 
z
M 14.796875 27.296875 
Q 14.796875 17.390625 18.875 11.75 
Q 22.953125 6.109375 30.078125 6.109375 
Q 37.203125 6.109375 41.296875 11.75 
Q 45.40625 17.390625 45.40625 27.296875 
Q 45.40625 37.203125 41.296875 42.84375 
Q 37.203125 48.484375 30.078125 48.484375 
Q 22.953125 48.484375 18.875 42.84375 
Q 14.796875 37.203125 14.796875 27.296875 
z
" id="DejaVuSans-100"/>
      <path d="M 18.109375 8.203125 
L 18.109375 -20.796875 
L 9.078125 -20.796875 
L 9.078125 54.6875 
L 18.109375 54.6875 
L 18.109375 46.390625 
Q 20.953125 51.265625 25.265625 53.625 
Q 29.59375 56 35.59375 56 
Q 45.5625 56 51.78125 48.09375 
Q 58.015625 40.1875 58.015625 27.296875 
Q 58.015625 14.40625 51.78125 6.484375 
Q 45.5625 -1.421875 35.59375 -1.421875 
Q 29.59375 -1.421875 25.265625 0.953125 
Q 20.953125 3.328125 18.109375 8.203125 
z
M 48.6875 27.296875 
Q 48.6875 37.203125 44.609375 42.84375 
Q 40.53125 48.484375 33.40625 48.484375 
Q 26.265625 48.484375 22.1875 42.84375 
Q 18.109375 37.203125 18.109375 27.296875 
Q 18.109375 17.390625 22.1875 11.75 
Q 26.265625 6.109375 33.40625 6.109375 
Q 40.53125 6.109375 44.609375 11.75 
Q 48.6875 17.390625 48.6875 27.296875 
z
" id="DejaVuSans-112"/>
     </defs>
     <use xlink:href="#DejaVuSans-69"/>
     <use x="63.183594" xlink:href="#DejaVuSans-117"/>
     <use x="126.5625" xlink:href="#DejaVuSans-107"/>
     <use x="182.722656" xlink:href="#DejaVuSans-97"/>
     <use x="244.001953" xlink:href="#DejaVuSans-114"/>
     <use x="285.115234" xlink:href="#DejaVuSans-121"/>
     <use x="344.294922" xlink:href="#DejaVuSans-111"/>
     <use x="405.476562" xlink:href="#DejaVuSans-116"/>
     <use x="444.685547" xlink:href="#DejaVuSans-97"/>
     <use x="505.964844" xlink:href="#DejaVuSans-32"/>
     <use x="537.751953" xlink:href="#DejaVuSans-45"/>
     <use x="573.835938" xlink:href="#DejaVuSans-32"/>
     <use x="605.623047" xlink:href="#DejaVuSans-68"/>
     <use x="682.625" xlink:href="#DejaVuSans-101"/>
     <use x="744.148438" xlink:href="#DejaVuSans-110"/>
     <use x="807.527344" xlink:href="#DejaVuSans-115"/>
     <use x="859.626953" xlink:href="#DejaVuSans-105"/>
     <use x="887.410156" xlink:href="#DejaVuSans-116"/>
     <use x="926.619141" xlink:href="#DejaVuSans-121"/>
     <use x="985.798828" xlink:href="#DejaVuSans-32"/>
     <use x="1017.585938" xlink:href="#DejaVuSans-111"/>
     <use x="1078.767578" xlink:href="#DejaVuSans-102"/>
     <use x="1113.972656" xlink:href="#DejaVuSans-32"/>
     <use x="1145.759766" xlink:href="#DejaVuSans-109"/>
     <use x="1243.171875" xlink:href="#DejaVuSans-101"/>
     <use x="1304.695312" xlink:href="#DejaVuSans-100"/>
     <use x="1368.171875" xlink:href="#DejaVuSans-105"/>
     <use x="1395.955078" xlink:href="#DejaVuSans-97"/>
     <use x="1457.234375" xlink:href="#DejaVuSans-110"/>
     <use x="1520.613281" xlink:href="#DejaVuSans-32"/>
     <use x="1552.400391" xlink:href="#DejaVuSans-112"/>
     <use x="1615.876953" xlink:href="#DejaVuSans-114"/>
     <use x="1654.740234" xlink:href="#DejaVuSans-111"/>
     <use x="1715.921875" xlink:href="#DejaVuSans-116"/>
     <use x="1755.130859" xlink:href="#DejaVuSans-101"/>
     <use x="1816.654297" xlink:href="#DejaVuSans-111"/>
     <use x="1877.835938" xlink:href="#DejaVuSans-109"/>
     <use x="1975.248047" xlink:href="#DejaVuSans-101"/>
     <use x="2036.771484" xlink:href="#DejaVuSans-32"/>
     <use x="2068.558594" xlink:href="#DejaVuSans-108"/>
     <use x="2096.341797" xlink:href="#DejaVuSans-101"/>
     <use x="2157.865234" xlink:href="#DejaVuSans-110"/>
     <use x="2221.244141" xlink:href="#DejaVuSans-103"/>
     <use x="2284.720703" xlink:href="#DejaVuSans-116"/>
     <use x="2323.929688" xlink:href="#DejaVuSans-104"/>
    </g>
   </g>
  </g>
 </g>
 <defs>
  <clipPath id="pc3d770cfa9">
   <rect height="266.112" width="357.12" x="46.965625" y="22.318125"/>
  </clipPath>
 </defs>
</svg>
