<?xml version="1.0" encoding="utf-8" standalone="no"?>
<!DOCTYPE svg PUBLIC "-//W3C//DTD SVG 1.1//EN"
  "http://www.w3.org/Graphics/SVG/1.1/DTD/svg11.dtd">
<svg xmlns:xlink="http://www.w3.org/1999/xlink" width="984.45625pt" height="680.422917pt" viewBox="0 0 984.45625 680.422917" xmlns="http://www.w3.org/2000/svg" version="1.1">
 <metadata>
  <rdf:RDF xmlns:dc="http://purl.org/dc/elements/1.1/" xmlns:cc="http://creativecommons.org/ns#" xmlns:rdf="http://www.w3.org/1999/02/22-rdf-syntax-ns#">
   <cc:Work>
    <dc:type rdf:resource="http://purl.org/dc/dcmitype/StillImage"/>
    <dc:date>2025-01-27T09:31:53.364164</dc:date>
    <dc:format>image/svg+xml</dc:format>
    <dc:creator>
     <cc:Agent>
      <dc:title>Matplotlib v3.6.3, https://matplotlib.org/</dc:title>
     </cc:Agent>
    </dc:creator>
   </cc:Work>
  </rdf:RDF>
 </metadata>
 <defs>
  <style type="text/css">*{stroke-linejoin: round; stroke-linecap: butt}</style>
 </defs>
 <g id="figure_1">
  <g id="patch_1">
   <path d="M 0 680.422917 
L 984.45625 680.422917 
L 984.45625 0 
L 0 0 
z
" style="fill: #ffffff"/>
  </g>
  <g id="axes_1">
   <g id="patch_2">
    <path d="M 43.78125 642.866667 
L 817.231964 642.866667 
L 817.231964 151.965714 
L 43.78125 151.965714 
z
" style="fill: #ffffff"/>
   </g>
   <g id="PathCollection_1">
    <defs>
     <path id="ma20a63feee" d="M 0 3 
C 0.795609 3 1.55874 2.683901 2.12132 2.12132 
C 2.683901 1.55874 3 0.795609 3 0 
C 3 -0.795609 2.683901 -1.55874 2.12132 -2.12132 
C 1.55874 -2.683901 0.795609 -3 0 -3 
C -0.795609 -3 -1.55874 -2.683901 -2.12132 -2.12132 
C -2.683901 -1.55874 -3 -0.795609 -3 0 
C -3 0.795609 -2.683901 1.55874 -2.12132 2.12132 
C -1.55874 2.683901 -0.795609 3 0 3 
z
" style="stroke: #000000; stroke-opacity: 0.5"/>
    </defs>
    <g clip-path="url(#p609fd06a88)">
     <use xlink:href="#ma20a63feee" x="230.581865" y="513.81874" style="fill: #4169e1; fill-opacity: 0.5; stroke: #000000; stroke-opacity: 0.5"/>
     <use xlink:href="#ma20a63feee" x="250.77199" y="381.367882" style="fill: #4169e1; fill-opacity: 0.5; stroke: #000000; stroke-opacity: 0.5"/>
     <use xlink:href="#ma20a63feee" x="259.792425" y="389.64606" style="fill: #4169e1; fill-opacity: 0.5; stroke: #000000; stroke-opacity: 0.5"/>
     <use xlink:href="#ma20a63feee" x="259.439917" y="488.984204" style="fill: #4169e1; fill-opacity: 0.5; stroke: #000000; stroke-opacity: 0.5"/>
     <use xlink:href="#ma20a63feee" x="283.830577" y="406.202418" style="fill: #4169e1; fill-opacity: 0.5; stroke: #000000; stroke-opacity: 0.5"/>
     <use xlink:href="#ma20a63feee" x="212.091036" y="480.706026" style="fill: #4169e1; fill-opacity: 0.5; stroke: #000000; stroke-opacity: 0.5"/>
     <use xlink:href="#ma20a63feee" x="293.262232" y="464.149668" style="fill: #4169e1; fill-opacity: 0.5; stroke: #000000; stroke-opacity: 0.5"/>
     <use xlink:href="#ma20a63feee" x="267.432497" y="439.315132" style="fill: #4169e1; fill-opacity: 0.5; stroke: #000000; stroke-opacity: 0.5"/>
     <use xlink:href="#ma20a63feee" x="492.719239" y="331.69881" style="fill: #4169e1; fill-opacity: 0.5; stroke: #000000; stroke-opacity: 0.5"/>
     <use xlink:href="#ma20a63feee" x="136.227431" y="580.313658" style="fill: #4169e1; fill-opacity: 0.5; stroke: #000000; stroke-opacity: 0.5"/>
     <use xlink:href="#ma20a63feee" x="180.537147" y="525.612683" style="fill: #4169e1; fill-opacity: 0.5; stroke: #000000; stroke-opacity: 0.5"/>
     <use xlink:href="#ma20a63feee" x="305.497493" y="397.924239" style="fill: #4169e1; fill-opacity: 0.5; stroke: #000000; stroke-opacity: 0.5"/>
     <use xlink:href="#ma20a63feee" x="223.504145" y="441.439064" style="fill: #4169e1; fill-opacity: 0.5; stroke: #000000; stroke-opacity: 0.5"/>
     <use xlink:href="#ma20a63feee" x="246.317574" y="530.375098" style="fill: #4169e1; fill-opacity: 0.5; stroke: #000000; stroke-opacity: 0.5"/>
     <use xlink:href="#ma20a63feee" x="286.228289" y="538.653276" style="fill: #4169e1; fill-opacity: 0.5; stroke: #000000; stroke-opacity: 0.5"/>
     <use xlink:href="#ma20a63feee" x="248.277304" y="373.089703" style="fill: #4169e1; fill-opacity: 0.5; stroke: #000000; stroke-opacity: 0.5"/>
     <use xlink:href="#ma20a63feee" x="232.315042" y="464.149668" style="fill: #4169e1; fill-opacity: 0.5; stroke: #000000; stroke-opacity: 0.5"/>
     <use xlink:href="#ma20a63feee" x="347.715078" y="422.758775" style="fill: #4169e1; fill-opacity: 0.5; stroke: #000000; stroke-opacity: 0.5"/>
     <use xlink:href="#ma20a63feee" x="229.620974" y="422.758775" style="fill: #4169e1; fill-opacity: 0.5; stroke: #000000; stroke-opacity: 0.5"/>
     <use xlink:href="#ma20a63feee" x="261.721911" y="571.765991" style="fill: #4169e1; fill-opacity: 0.5; stroke: #000000; stroke-opacity: 0.5"/>
     <use xlink:href="#ma20a63feee" x="292.43037" y="381.367882" style="fill: #4169e1; fill-opacity: 0.5; stroke: #000000; stroke-opacity: 0.5"/>
     <use xlink:href="#ma20a63feee" x="263.685315" y="364.811524" style="fill: #4169e1; fill-opacity: 0.5; stroke: #000000; stroke-opacity: 0.5"/>
     <use xlink:href="#ma20a63feee" x="252.36194" y="422.758775" style="fill: #4169e1; fill-opacity: 0.5; stroke: #000000; stroke-opacity: 0.5"/>
     <use xlink:href="#ma20a63feee" x="267.366288" y="522.096919" style="fill: #4169e1; fill-opacity: 0.5; stroke: #000000; stroke-opacity: 0.5"/>
     <use xlink:href="#ma20a63feee" x="443.038648" y="306.864274" style="fill: #4169e1; fill-opacity: 0.5; stroke: #000000; stroke-opacity: 0.5"/>
     <use xlink:href="#ma20a63feee" x="272.545757" y="422.758775" style="fill: #4169e1; fill-opacity: 0.5; stroke: #000000; stroke-opacity: 0.5"/>
     <use xlink:href="#ma20a63feee" x="282.822927" y="422.758775" style="fill: #4169e1; fill-opacity: 0.5; stroke: #000000; stroke-opacity: 0.5"/>
     <use xlink:href="#ma20a63feee" x="134.884712" y="415.874946" style="fill: #4169e1; fill-opacity: 0.5; stroke: #000000; stroke-opacity: 0.5"/>
     <use xlink:href="#ma20a63feee" x="338.977951" y="464.149668" style="fill: #4169e1; fill-opacity: 0.5; stroke: #000000; stroke-opacity: 0.5"/>
     <use xlink:href="#ma20a63feee" x="252.301175" y="356.533346" style="fill: #4169e1; fill-opacity: 0.5; stroke: #000000; stroke-opacity: 0.5"/>
     <use xlink:href="#ma20a63feee" x="782.075114" y="454.246584" style="fill: #4169e1; fill-opacity: 0.5; stroke: #000000; stroke-opacity: 0.5"/>
     <use xlink:href="#ma20a63feee" x="78.938101" y="464.149668" style="fill: #4169e1; fill-opacity: 0.5; stroke: #000000; stroke-opacity: 0.5"/>
     <use xlink:href="#ma20a63feee" x="272.454485" y="406.202418" style="fill: #4169e1; fill-opacity: 0.5; stroke: #000000; stroke-opacity: 0.5"/>
     <use xlink:href="#ma20a63feee" x="286.622537" y="513.81874" style="fill: #4169e1; fill-opacity: 0.5; stroke: #000000; stroke-opacity: 0.5"/>
     <use xlink:href="#ma20a63feee" x="263.188121" y="447.593311" style="fill: #4169e1; fill-opacity: 0.5; stroke: #000000; stroke-opacity: 0.5"/>
     <use xlink:href="#ma20a63feee" x="304.423073" y="414.480596" style="fill: #4169e1; fill-opacity: 0.5; stroke: #000000; stroke-opacity: 0.5"/>
     <use xlink:href="#ma20a63feee" x="240.288128" y="513.81874" style="fill: #4169e1; fill-opacity: 0.5; stroke: #000000; stroke-opacity: 0.5"/>
     <use xlink:href="#ma20a63feee" x="305.685615" y="414.480596" style="fill: #4169e1; fill-opacity: 0.5; stroke: #000000; stroke-opacity: 0.5"/>
     <use xlink:href="#ma20a63feee" x="288.281048" y="364.811524" style="fill: #4169e1; fill-opacity: 0.5; stroke: #000000; stroke-opacity: 0.5"/>
     <use xlink:href="#ma20a63feee" x="133.541993" y="502.095796" style="fill: #4169e1; fill-opacity: 0.5; stroke: #000000; stroke-opacity: 0.5"/>
     <use xlink:href="#ma20a63feee" x="199.46948" y="455.87149" style="fill: #4169e1; fill-opacity: 0.5; stroke: #000000; stroke-opacity: 0.5"/>
     <use xlink:href="#ma20a63feee" x="202.58217" y="455.87149" style="fill: #4169e1; fill-opacity: 0.5; stroke: #000000; stroke-opacity: 0.5"/>
     <use xlink:href="#ma20a63feee" x="276.705801" y="339.976988" style="fill: #4169e1; fill-opacity: 0.5; stroke: #000000; stroke-opacity: 0.5"/>
     <use xlink:href="#ma20a63feee" x="273.854333" y="480.706026" style="fill: #4169e1; fill-opacity: 0.5; stroke: #000000; stroke-opacity: 0.5"/>
     <use xlink:href="#ma20a63feee" x="378.588152" y="439.315132" style="fill: #4169e1; fill-opacity: 0.5; stroke: #000000; stroke-opacity: 0.5"/>
     <use xlink:href="#ma20a63feee" x="286.399428" y="455.87149" style="fill: #4169e1; fill-opacity: 0.5; stroke: #000000; stroke-opacity: 0.5"/>
     <use xlink:href="#ma20a63feee" x="281.912407" y="367.911739" style="fill: #4169e1; fill-opacity: 0.5; stroke: #000000; stroke-opacity: 0.5"/>
     <use xlink:href="#ma20a63feee" x="320.668151" y="455.87149" style="fill: #4169e1; fill-opacity: 0.5; stroke: #000000; stroke-opacity: 0.5"/>
     <use xlink:href="#ma20a63feee" x="246.223334" y="406.202418" style="fill: #4169e1; fill-opacity: 0.5; stroke: #000000; stroke-opacity: 0.5"/>
     <use xlink:href="#ma20a63feee" x="233.611539" y="364.811524" style="fill: #4169e1; fill-opacity: 0.5; stroke: #000000; stroke-opacity: 0.5"/>
     <use xlink:href="#ma20a63feee" x="341.91816" y="397.924239" style="fill: #4169e1; fill-opacity: 0.5; stroke: #000000; stroke-opacity: 0.5"/>
     <use xlink:href="#ma20a63feee" x="286.278077" y="447.593311" style="fill: #4169e1; fill-opacity: 0.5; stroke: #000000; stroke-opacity: 0.5"/>
     <use xlink:href="#ma20a63feee" x="330.474066" y="530.375098" style="fill: #4169e1; fill-opacity: 0.5; stroke: #000000; stroke-opacity: 0.5"/>
     <use xlink:href="#ma20a63feee" x="138.241509" y="555.209634" style="fill: #4169e1; fill-opacity: 0.5; stroke: #000000; stroke-opacity: 0.5"/>
     <use xlink:href="#ma20a63feee" x="132.534954" y="505.540562" style="fill: #4169e1; fill-opacity: 0.5; stroke: #000000; stroke-opacity: 0.5"/>
     <use xlink:href="#ma20a63feee" x="343.006107" y="406.202418" style="fill: #4169e1; fill-opacity: 0.5; stroke: #000000; stroke-opacity: 0.5"/>
     <use xlink:href="#ma20a63feee" x="271.527506" y="513.81874" style="fill: #4169e1; fill-opacity: 0.5; stroke: #000000; stroke-opacity: 0.5"/>
     <use xlink:href="#ma20a63feee" x="293.325516" y="513.331048" style="fill: #4169e1; fill-opacity: 0.5; stroke: #000000; stroke-opacity: 0.5"/>
     <use xlink:href="#ma20a63feee" x="302.231699" y="455.87149" style="fill: #4169e1; fill-opacity: 0.5; stroke: #000000; stroke-opacity: 0.5"/>
     <use xlink:href="#ma20a63feee" x="299.53559" y="364.811524" style="fill: #4169e1; fill-opacity: 0.5; stroke: #000000; stroke-opacity: 0.5"/>
     <use xlink:href="#ma20a63feee" x="233.474387" y="455.87149" style="fill: #4169e1; fill-opacity: 0.5; stroke: #000000; stroke-opacity: 0.5"/>
     <use xlink:href="#ma20a63feee" x="296.010953" y="516.877457" style="fill: #4169e1; fill-opacity: 0.5; stroke: #000000; stroke-opacity: 0.5"/>
     <use xlink:href="#ma20a63feee" x="218.580843" y="406.202418" style="fill: #4169e1; fill-opacity: 0.5; stroke: #000000; stroke-opacity: 0.5"/>
     <use xlink:href="#ma20a63feee" x="279.322878" y="381.367882" style="fill: #4169e1; fill-opacity: 0.5; stroke: #000000; stroke-opacity: 0.5"/>
     <use xlink:href="#ma20a63feee" x="287.650859" y="339.976988" style="fill: #4169e1; fill-opacity: 0.5; stroke: #000000; stroke-opacity: 0.5"/>
     <use xlink:href="#ma20a63feee" x="251.701237" y="567.626418" style="fill: #4169e1; fill-opacity: 0.5; stroke: #000000; stroke-opacity: 0.5"/>
     <use xlink:href="#ma20a63feee" x="290.640078" y="558.608268" style="fill: #4169e1; fill-opacity: 0.5; stroke: #000000; stroke-opacity: 0.5"/>
    </g>
   </g>
   <g id="PathCollection_2">
    <defs>
     <path id="m85ee865856" d="M 0 3 
C 0.795609 3 1.55874 2.683901 2.12132 2.12132 
C 2.683901 1.55874 3 0.795609 3 0 
C 3 -0.795609 2.683901 -1.55874 2.12132 -2.12132 
C 1.55874 -2.683901 0.795609 -3 0 -3 
C -0.795609 -3 -1.55874 -2.683901 -2.12132 -2.12132 
C -2.683901 -1.55874 -3 -0.795609 -3 0 
C -3 0.795609 -2.683901 1.55874 -2.12132 2.12132 
C -1.55874 2.683901 -0.795609 3 0 3 
z
" style="stroke: #000000; stroke-opacity: 0.5"/>
    </defs>
    <g clip-path="url(#p609fd06a88)">
     <use xlink:href="#m85ee865856" x="230.581865" y="491.72041" style="fill: #ff8c00; fill-opacity: 0.5; stroke: #000000; stroke-opacity: 0.5"/>
     <use xlink:href="#m85ee865856" x="250.77199" y="446.646462" style="fill: #ff8c00; fill-opacity: 0.5; stroke: #000000; stroke-opacity: 0.5"/>
     <use xlink:href="#m85ee865856" x="259.792425" y="446.646462" style="fill: #ff8c00; fill-opacity: 0.5; stroke: #000000; stroke-opacity: 0.5"/>
     <use xlink:href="#m85ee865856" x="259.439917" y="454.158786" style="fill: #ff8c00; fill-opacity: 0.5; stroke: #000000; stroke-opacity: 0.5"/>
     <use xlink:href="#m85ee865856" x="283.830577" y="454.158786" style="fill: #ff8c00; fill-opacity: 0.5; stroke: #000000; stroke-opacity: 0.5"/>
     <use xlink:href="#m85ee865856" x="212.091036" y="439.134137" style="fill: #ff8c00; fill-opacity: 0.5; stroke: #000000; stroke-opacity: 0.5"/>
     <use xlink:href="#m85ee865856" x="293.262232" y="409.084838" style="fill: #ff8c00; fill-opacity: 0.5; stroke: #000000; stroke-opacity: 0.5"/>
     <use xlink:href="#m85ee865856" x="267.432497" y="424.109487" style="fill: #ff8c00; fill-opacity: 0.5; stroke: #000000; stroke-opacity: 0.5"/>
     <use xlink:href="#m85ee865856" x="492.719239" y="461.671111" style="fill: #ff8c00; fill-opacity: 0.5; stroke: #000000; stroke-opacity: 0.5"/>
     <use xlink:href="#m85ee865856" x="136.227431" y="528.056616" style="fill: #ff8c00; fill-opacity: 0.5; stroke: #000000; stroke-opacity: 0.5"/>
     <use xlink:href="#m85ee865856" x="180.537147" y="532.432842" style="fill: #ff8c00; fill-opacity: 0.5; stroke: #000000; stroke-opacity: 0.5"/>
     <use xlink:href="#m85ee865856" x="305.497493" y="454.158786" style="fill: #ff8c00; fill-opacity: 0.5; stroke: #000000; stroke-opacity: 0.5"/>
     <use xlink:href="#m85ee865856" x="223.504145" y="506.03726" style="fill: #ff8c00; fill-opacity: 0.5; stroke: #000000; stroke-opacity: 0.5"/>
     <use xlink:href="#m85ee865856" x="246.317574" y="551.819008" style="fill: #ff8c00; fill-opacity: 0.5; stroke: #000000; stroke-opacity: 0.5"/>
     <use xlink:href="#m85ee865856" x="286.228289" y="499.232735" style="fill: #ff8c00; fill-opacity: 0.5; stroke: #000000; stroke-opacity: 0.5"/>
     <use xlink:href="#m85ee865856" x="248.277304" y="409.084838" style="fill: #ff8c00; fill-opacity: 0.5; stroke: #000000; stroke-opacity: 0.5"/>
     <use xlink:href="#m85ee865856" x="232.315042" y="454.158786" style="fill: #ff8c00; fill-opacity: 0.5; stroke: #000000; stroke-opacity: 0.5"/>
     <use xlink:href="#m85ee865856" x="347.715078" y="461.671111" style="fill: #ff8c00; fill-opacity: 0.5; stroke: #000000; stroke-opacity: 0.5"/>
     <use xlink:href="#m85ee865856" x="229.620974" y="454.158786" style="fill: #ff8c00; fill-opacity: 0.5; stroke: #000000; stroke-opacity: 0.5"/>
     <use xlink:href="#m85ee865856" x="261.721911" y="476.695761" style="fill: #ff8c00; fill-opacity: 0.5; stroke: #000000; stroke-opacity: 0.5"/>
     <use xlink:href="#m85ee865856" x="292.43037" y="394.060189" style="fill: #ff8c00; fill-opacity: 0.5; stroke: #000000; stroke-opacity: 0.5"/>
     <use xlink:href="#m85ee865856" x="263.685315" y="364.01089" style="fill: #ff8c00; fill-opacity: 0.5; stroke: #000000; stroke-opacity: 0.5"/>
     <use xlink:href="#m85ee865856" x="252.36194" y="484.208085" style="fill: #ff8c00; fill-opacity: 0.5; stroke: #000000; stroke-opacity: 0.5"/>
     <use xlink:href="#m85ee865856" x="267.366288" y="469.183436" style="fill: #ff8c00; fill-opacity: 0.5; stroke: #000000; stroke-opacity: 0.5"/>
     <use xlink:href="#m85ee865856" x="443.038648" y="371.523214" style="fill: #ff8c00; fill-opacity: 0.5; stroke: #000000; stroke-opacity: 0.5"/>
     <use xlink:href="#m85ee865856" x="272.545757" y="476.695761" style="fill: #ff8c00; fill-opacity: 0.5; stroke: #000000; stroke-opacity: 0.5"/>
     <use xlink:href="#m85ee865856" x="282.822927" y="484.208085" style="fill: #ff8c00; fill-opacity: 0.5; stroke: #000000; stroke-opacity: 0.5"/>
     <use xlink:href="#m85ee865856" x="134.884712" y="478.201191" style="fill: #ff8c00; fill-opacity: 0.5; stroke: #000000; stroke-opacity: 0.5"/>
     <use xlink:href="#m85ee865856" x="338.977951" y="446.646462" style="fill: #ff8c00; fill-opacity: 0.5; stroke: #000000; stroke-opacity: 0.5"/>
     <use xlink:href="#m85ee865856" x="252.301175" y="424.109487" style="fill: #ff8c00; fill-opacity: 0.5; stroke: #000000; stroke-opacity: 0.5"/>
     <use xlink:href="#m85ee865856" x="782.075114" y="490.285685" style="fill: #ff8c00; fill-opacity: 0.5; stroke: #000000; stroke-opacity: 0.5"/>
     <use xlink:href="#m85ee865856" x="78.938101" y="476.695761" style="fill: #ff8c00; fill-opacity: 0.5; stroke: #000000; stroke-opacity: 0.5"/>
     <use xlink:href="#m85ee865856" x="272.454485" y="469.183436" style="fill: #ff8c00; fill-opacity: 0.5; stroke: #000000; stroke-opacity: 0.5"/>
     <use xlink:href="#m85ee865856" x="286.622537" y="469.183436" style="fill: #ff8c00; fill-opacity: 0.5; stroke: #000000; stroke-opacity: 0.5"/>
     <use xlink:href="#m85ee865856" x="263.188121" y="491.72041" style="fill: #ff8c00; fill-opacity: 0.5; stroke: #000000; stroke-opacity: 0.5"/>
     <use xlink:href="#m85ee865856" x="304.423073" y="416.597163" style="fill: #ff8c00; fill-opacity: 0.5; stroke: #000000; stroke-opacity: 0.5"/>
     <use xlink:href="#m85ee865856" x="240.288128" y="499.232735" style="fill: #ff8c00; fill-opacity: 0.5; stroke: #000000; stroke-opacity: 0.5"/>
     <use xlink:href="#m85ee865856" x="305.685615" y="461.671111" style="fill: #ff8c00; fill-opacity: 0.5; stroke: #000000; stroke-opacity: 0.5"/>
     <use xlink:href="#m85ee865856" x="288.281048" y="424.109487" style="fill: #ff8c00; fill-opacity: 0.5; stroke: #000000; stroke-opacity: 0.5"/>
     <use xlink:href="#m85ee865856" x="133.541993" y="571.834955" style="fill: #ff8c00; fill-opacity: 0.5; stroke: #000000; stroke-opacity: 0.5"/>
     <use xlink:href="#m85ee865856" x="199.46948" y="484.208085" style="fill: #ff8c00; fill-opacity: 0.5; stroke: #000000; stroke-opacity: 0.5"/>
     <use xlink:href="#m85ee865856" x="202.58217" y="446.646462" style="fill: #ff8c00; fill-opacity: 0.5; stroke: #000000; stroke-opacity: 0.5"/>
     <use xlink:href="#m85ee865856" x="276.705801" y="409.084838" style="fill: #ff8c00; fill-opacity: 0.5; stroke: #000000; stroke-opacity: 0.5"/>
     <use xlink:href="#m85ee865856" x="273.854333" y="529.282034" style="fill: #ff8c00; fill-opacity: 0.5; stroke: #000000; stroke-opacity: 0.5"/>
     <use xlink:href="#m85ee865856" x="378.588152" y="386.547864" style="fill: #ff8c00; fill-opacity: 0.5; stroke: #000000; stroke-opacity: 0.5"/>
     <use xlink:href="#m85ee865856" x="286.399428" y="514.257384" style="fill: #ff8c00; fill-opacity: 0.5; stroke: #000000; stroke-opacity: 0.5"/>
     <use xlink:href="#m85ee865856" x="281.912407" y="359.192878" style="fill: #ff8c00; fill-opacity: 0.5; stroke: #000000; stroke-opacity: 0.5"/>
     <use xlink:href="#m85ee865856" x="320.668151" y="431.621812" style="fill: #ff8c00; fill-opacity: 0.5; stroke: #000000; stroke-opacity: 0.5"/>
     <use xlink:href="#m85ee865856" x="246.223334" y="476.695761" style="fill: #ff8c00; fill-opacity: 0.5; stroke: #000000; stroke-opacity: 0.5"/>
     <use xlink:href="#m85ee865856" x="233.611539" y="424.109487" style="fill: #ff8c00; fill-opacity: 0.5; stroke: #000000; stroke-opacity: 0.5"/>
     <use xlink:href="#m85ee865856" x="341.91816" y="469.183436" style="fill: #ff8c00; fill-opacity: 0.5; stroke: #000000; stroke-opacity: 0.5"/>
     <use xlink:href="#m85ee865856" x="286.278077" y="394.060189" style="fill: #ff8c00; fill-opacity: 0.5; stroke: #000000; stroke-opacity: 0.5"/>
     <use xlink:href="#m85ee865856" x="330.474066" y="544.306683" style="fill: #ff8c00; fill-opacity: 0.5; stroke: #000000; stroke-opacity: 0.5"/>
     <use xlink:href="#m85ee865856" x="138.241509" y="506.745059" style="fill: #ff8c00; fill-opacity: 0.5; stroke: #000000; stroke-opacity: 0.5"/>
     <use xlink:href="#m85ee865856" x="132.534954" y="461.671111" style="fill: #ff8c00; fill-opacity: 0.5; stroke: #000000; stroke-opacity: 0.5"/>
     <use xlink:href="#m85ee865856" x="343.006107" y="401.572513" style="fill: #ff8c00; fill-opacity: 0.5; stroke: #000000; stroke-opacity: 0.5"/>
     <use xlink:href="#m85ee865856" x="271.527506" y="529.282034" style="fill: #ff8c00; fill-opacity: 0.5; stroke: #000000; stroke-opacity: 0.5"/>
     <use xlink:href="#m85ee865856" x="293.325516" y="620.552987" style="fill: #ff8c00; fill-opacity: 0.5; stroke: #000000; stroke-opacity: 0.5"/>
     <use xlink:href="#m85ee865856" x="302.231699" y="446.646462" style="fill: #ff8c00; fill-opacity: 0.5; stroke: #000000; stroke-opacity: 0.5"/>
     <use xlink:href="#m85ee865856" x="299.53559" y="431.621812" style="fill: #ff8c00; fill-opacity: 0.5; stroke: #000000; stroke-opacity: 0.5"/>
     <use xlink:href="#m85ee865856" x="233.474387" y="514.257384" style="fill: #ff8c00; fill-opacity: 0.5; stroke: #000000; stroke-opacity: 0.5"/>
     <use xlink:href="#m85ee865856" x="296.010953" y="566.434892" style="fill: #ff8c00; fill-opacity: 0.5; stroke: #000000; stroke-opacity: 0.5"/>
     <use xlink:href="#m85ee865856" x="218.580843" y="469.183436" style="fill: #ff8c00; fill-opacity: 0.5; stroke: #000000; stroke-opacity: 0.5"/>
     <use xlink:href="#m85ee865856" x="279.322878" y="431.621812" style="fill: #ff8c00; fill-opacity: 0.5; stroke: #000000; stroke-opacity: 0.5"/>
     <use xlink:href="#m85ee865856" x="287.650859" y="379.035539" style="fill: #ff8c00; fill-opacity: 0.5; stroke: #000000; stroke-opacity: 0.5"/>
     <use xlink:href="#m85ee865856" x="251.701237" y="616.326651" style="fill: #ff8c00; fill-opacity: 0.5; stroke: #000000; stroke-opacity: 0.5"/>
     <use xlink:href="#m85ee865856" x="290.640078" y="458.139335" style="fill: #ff8c00; fill-opacity: 0.5; stroke: #000000; stroke-opacity: 0.5"/>
    </g>
   </g>
   <g id="PolyCollection_1">
    <path d="M 78.938101 452.044679 
L 78.938101 546.901728 
L 86.040495 543.251672 
L 93.142889 539.415971 
L 100.245283 535.745553 
L 107.347677 531.92255 
L 114.450071 528.355582 
L 121.552465 524.630973 
L 128.654859 520.412132 
L 135.757253 517.261552 
L 142.859647 514.155366 
L 149.962041 511.052899 
L 157.064435 507.436499 
L 164.166829 504.178063 
L 171.269224 500.574154 
L 178.371618 496.978245 
L 185.474012 493.160537 
L 192.576406 489.49714 
L 199.6788 486.159392 
L 206.781194 482.823529 
L 213.883588 479.793757 
L 220.985982 476.809051 
L 228.088376 473.897926 
L 235.19077 471.411162 
L 242.293164 469.011214 
L 249.395558 467.003128 
L 256.497952 465.08095 
L 263.600346 463.598364 
L 270.702741 461.604188 
L 277.805135 460.614872 
L 284.907529 459.460537 
L 292.009923 458.054195 
L 299.112317 457.072685 
L 306.214711 456.14385 
L 313.317105 455.547593 
L 320.419499 455.003545 
L 327.521893 454.345384 
L 334.624287 453.3997 
L 341.726681 452.557036 
L 348.829075 452.220932 
L 355.931469 451.361537 
L 363.033863 450.773098 
L 370.136258 449.819453 
L 377.238652 449.462513 
L 384.341046 448.835343 
L 391.44344 447.972727 
L 398.545834 447.259346 
L 405.648228 446.56682 
L 412.750622 446.079001 
L 419.853016 445.497908 
L 426.95541 444.866934 
L 434.057804 444.13816 
L 441.160198 443.602593 
L 448.262592 442.910546 
L 455.364986 442.208544 
L 462.46738 441.773072 
L 469.569775 441.048286 
L 476.672169 440.563274 
L 483.774563 440.158428 
L 490.876957 439.702698 
L 497.979351 439.286062 
L 505.081745 438.965939 
L 512.184139 438.574334 
L 519.286533 438.189028 
L 526.388927 437.804494 
L 533.491321 437.481412 
L 540.593715 436.979774 
L 547.696109 436.431697 
L 554.798503 436.043168 
L 561.900897 435.714329 
L 569.003292 435.376782 
L 576.105686 434.702518 
L 583.20808 434.283736 
L 590.310474 434.006994 
L 597.412868 433.528825 
L 604.515262 433.048098 
L 611.617656 432.619884 
L 618.72005 432.203248 
L 625.822444 431.786612 
L 632.924838 431.369976 
L 640.027232 430.95334 
L 647.129626 430.536704 
L 654.23202 430.120068 
L 661.334414 429.735767 
L 668.436809 429.359114 
L 675.539203 429.040463 
L 682.641597 428.60153 
L 689.743991 428.316832 
L 696.846385 428.098151 
L 703.948779 427.665231 
L 711.051173 427.377577 
L 718.153567 427.054206 
L 725.255961 426.701982 
L 732.358355 426.420091 
L 739.460749 426.137528 
L 746.563143 425.853835 
L 753.665537 425.570142 
L 760.767931 425.286448 
L 767.870325 425.002755 
L 774.97272 424.719062 
L 782.075114 424.435368 
L 782.075114 174.279394 
L 782.075114 174.279394 
L 774.97272 177.98548 
L 767.870325 181.691567 
L 760.767931 185.397654 
L 753.665537 189.10374 
L 746.563143 192.705262 
L 739.460749 196.314516 
L 732.358355 200.191021 
L 725.255961 203.910378 
L 718.153567 207.608217 
L 711.051173 211.31096 
L 703.948779 215.017946 
L 696.846385 218.724931 
L 689.743991 222.444563 
L 682.641597 226.359794 
L 675.539203 230.275026 
L 668.436809 234.190257 
L 661.334414 238.105489 
L 654.23202 242.02072 
L 647.129626 245.653442 
L 640.027232 249.23717 
L 632.924838 252.820899 
L 625.822444 256.404627 
L 618.72005 259.988355 
L 611.617656 263.572083 
L 604.515262 267.15701 
L 597.412868 270.742565 
L 590.310474 274.44366 
L 583.20808 278.220221 
L 576.105686 282.16373 
L 569.003292 286.146251 
L 561.900897 290.128772 
L 554.798503 294.111293 
L 547.696109 298.093813 
L 540.593715 302.01804 
L 533.491321 305.378018 
L 526.388927 308.737996 
L 519.286533 312.189753 
L 512.184139 316.105495 
L 505.081745 320.230049 
L 497.979351 324.354604 
L 490.876957 328.479158 
L 483.774563 332.603713 
L 476.672169 336.324351 
L 469.569775 339.899323 
L 462.46738 343.368136 
L 455.364986 346.608381 
L 448.262592 349.935354 
L 441.160198 353.677488 
L 434.057804 356.634571 
L 426.95541 360.042921 
L 419.853016 364.160076 
L 412.750622 367.414936 
L 405.648228 370.669795 
L 398.545834 374.34938 
L 391.44344 378.746956 
L 384.341046 381.878537 
L 377.238652 385.304059 
L 370.136258 388.781552 
L 363.033863 392.679225 
L 355.931469 396.069762 
L 348.829075 399.059225 
L 341.726681 401.922843 
L 334.624287 405.016836 
L 327.521893 408.44904 
L 320.419499 411.528822 
L 313.317105 415.092068 
L 306.214711 417.66548 
L 299.112317 420.736995 
L 292.009923 423.790385 
L 284.907529 425.879942 
L 277.805135 428.655898 
L 270.702741 430.888166 
L 263.600346 432.887088 
L 256.497952 434.220401 
L 249.395558 435.439923 
L 242.293164 437.073351 
L 235.19077 438.134958 
L 228.088376 438.699256 
L 220.985982 439.868348 
L 213.883588 440.717634 
L 206.781194 441.253592 
L 199.6788 442.079026 
L 192.576406 442.575232 
L 185.474012 443.070186 
L 178.371618 443.887965 
L 171.269224 444.47126 
L 164.166829 445.55991 
L 157.064435 446.395257 
L 149.962041 447.046639 
L 142.859647 447.578163 
L 135.757253 448.206198 
L 128.654859 448.67778 
L 121.552465 449.222056 
L 114.450071 449.770021 
L 107.347677 450.189604 
L 100.245283 450.536827 
L 93.142889 451.059964 
L 86.040495 451.530268 
L 78.938101 452.044679 
z
" clip-path="url(#p609fd06a88)" style="fill: #1f77b4; fill-opacity: 0.15"/>
   </g>
   <g id="PolyCollection_2">
    <path d="M 78.938101 461.053218 
L 78.938101 535.355793 
L 86.040495 532.631636 
L 93.142889 529.970585 
L 100.245283 527.427409 
L 107.347677 524.920024 
L 114.450071 522.056139 
L 121.552465 519.510485 
L 128.654859 517.2354 
L 135.757253 514.9029 
L 142.859647 512.517716 
L 149.962041 510.332111 
L 157.064435 507.708895 
L 164.166829 505.206652 
L 171.269224 502.858275 
L 178.371618 500.51216 
L 185.474012 497.808656 
L 192.576406 495.501687 
L 199.6788 493.513179 
L 206.781194 491.134632 
L 213.883588 489.002881 
L 220.985982 487.153951 
L 228.088376 485.336191 
L 235.19077 483.440992 
L 242.293164 482.764241 
L 249.395558 482.110017 
L 256.497952 480.577765 
L 263.600346 479.799245 
L 270.702741 479.464785 
L 277.805135 478.66254 
L 284.907529 478.158891 
L 292.009923 477.655241 
L 299.112317 477.087691 
L 306.214711 476.69171 
L 313.317105 476.304349 
L 320.419499 476.150321 
L 327.521893 475.817115 
L 334.624287 475.094573 
L 341.726681 474.533671 
L 348.829075 474.117587 
L 355.931469 473.987018 
L 363.033863 473.661628 
L 370.136258 473.142914 
L 377.238652 472.972749 
L 384.341046 472.760916 
L 391.44344 472.307602 
L 398.545834 471.713136 
L 405.648228 471.606014 
L 412.750622 471.346491 
L 419.853016 470.942312 
L 426.95541 470.543285 
L 434.057804 470.309883 
L 441.160198 470.115839 
L 448.262592 469.924684 
L 455.364986 469.739664 
L 462.46738 469.554644 
L 469.569775 469.369624 
L 476.672169 469.263516 
L 483.774563 469.242071 
L 490.876957 469.217243 
L 497.979351 469.038717 
L 505.081745 468.672991 
L 512.184139 468.453715 
L 519.286533 468.632642 
L 526.388927 468.532977 
L 533.491321 468.233108 
L 540.593715 468.051395 
L 547.696109 468.072547 
L 554.798503 468.138563 
L 561.900897 468.120661 
L 569.003292 468.016027 
L 576.105686 467.788052 
L 583.20808 467.658662 
L 590.310474 467.535489 
L 597.412868 467.412317 
L 604.515262 467.289145 
L 611.617656 467.165972 
L 618.72005 467.0428 
L 625.822444 466.919628 
L 632.924838 466.796455 
L 640.027232 466.673283 
L 647.129626 466.550014 
L 654.23202 466.44547 
L 661.334414 466.421317 
L 668.436809 466.215686 
L 675.539203 466.075965 
L 682.641597 466.027829 
L 689.743991 465.977574 
L 696.846385 465.926708 
L 703.948779 465.875842 
L 711.051173 465.824976 
L 718.153567 465.775262 
L 725.255961 465.730017 
L 732.358355 465.684771 
L 739.460749 465.638785 
L 746.563143 465.586305 
L 753.665537 465.533825 
L 760.767931 465.481345 
L 767.870325 465.30241 
L 774.97272 465.114391 
L 782.075114 464.926372 
L 782.075114 269.057803 
L 782.075114 269.057803 
L 774.97272 271.828966 
L 767.870325 274.60013 
L 760.767931 277.371294 
L 753.665537 280.142458 
L 746.563143 282.913622 
L 739.460749 285.684786 
L 732.358355 288.45595 
L 725.255961 291.227113 
L 718.153567 293.998277 
L 711.051173 296.769441 
L 703.948779 299.540605 
L 696.846385 302.125817 
L 689.743991 304.701895 
L 682.641597 307.277974 
L 675.539203 309.854052 
L 668.436809 312.430131 
L 661.334414 315.00621 
L 654.23202 317.582288 
L 647.129626 320.158367 
L 640.027232 322.734445 
L 632.924838 325.310524 
L 625.822444 327.886602 
L 618.72005 330.462681 
L 611.617656 333.03876 
L 604.515262 335.614838 
L 597.412868 338.184668 
L 590.310474 340.741983 
L 583.20808 343.299297 
L 576.105686 345.856612 
L 569.003292 348.413926 
L 561.900897 350.971241 
L 554.798503 353.65996 
L 547.696109 356.235143 
L 540.593715 358.843424 
L 533.491321 361.554863 
L 526.388927 364.266302 
L 519.286533 366.977741 
L 512.184139 369.689256 
L 505.081745 372.409609 
L 497.979351 375.026904 
L 490.876957 377.843366 
L 483.774563 380.406542 
L 476.672169 382.910835 
L 469.569775 385.789008 
L 462.46738 388.674057 
L 455.364986 391.396433 
L 448.262592 394.134327 
L 441.160198 396.835558 
L 434.057804 399.279957 
L 426.95541 402.018558 
L 419.853016 404.595512 
L 412.750622 407.04795 
L 405.648228 409.590188 
L 398.545834 412.189435 
L 391.44344 414.564836 
L 384.341046 417.060728 
L 377.238652 419.671427 
L 370.136258 421.818906 
L 363.033863 424.676623 
L 355.931469 427.507199 
L 348.829075 430.174603 
L 341.726681 432.557633 
L 334.624287 434.890914 
L 327.521893 437.417668 
L 320.419499 440.011759 
L 313.317105 442.468037 
L 306.214711 444.616149 
L 299.112317 446.825051 
L 292.009923 448.91109 
L 284.907529 451.333532 
L 277.805135 452.825323 
L 270.702741 453.958111 
L 263.600346 454.865458 
L 256.497952 455.761211 
L 249.395558 456.431841 
L 242.293164 457.283348 
L 235.19077 457.755066 
L 228.088376 458.279041 
L 220.985982 458.853243 
L 213.883588 458.959587 
L 206.781194 459.479783 
L 199.6788 459.600841 
L 192.576406 459.770164 
L 185.474012 460.075817 
L 178.371618 460.154536 
L 171.269224 460.069847 
L 164.166829 460.116293 
L 157.064435 460.249263 
L 149.962041 460.230499 
L 142.859647 460.211735 
L 135.757253 460.192971 
L 128.654859 460.174207 
L 121.552465 460.158458 
L 114.450071 460.353855 
L 107.347677 460.610765 
L 100.245283 460.786801 
L 93.142889 460.834163 
L 86.040495 460.881524 
L 78.938101 461.053218 
z
" clip-path="url(#p609fd06a88)" style="fill: #ff7f0e; fill-opacity: 0.15"/>
   </g>
   <g id="matplotlib.axis_1">
    <g id="xtick_1">
     <g id="line2d_1">
      <defs>
       <path id="mbe1dfbd4ab" d="M 0 0 
L 0 3.5 
" style="stroke: #000000; stroke-width: 0.8"/>
      </defs>
      <g>
       <use xlink:href="#mbe1dfbd4ab" x="149.654618" y="642.866667" style="stroke: #000000; stroke-width: 0.8"/>
      </g>
     </g>
     <g id="text_1">
      <!-- 200 -->
      <g transform="translate(140.110868 657.465104) scale(0.1 -0.1)">
       <defs>
        <path id="DejaVuSans-32" d="M 1228 531 
L 3431 531 
L 3431 0 
L 469 0 
L 469 531 
Q 828 903 1448 1529 
Q 2069 2156 2228 2338 
Q 2531 2678 2651 2914 
Q 2772 3150 2772 3378 
Q 2772 3750 2511 3984 
Q 2250 4219 1831 4219 
Q 1534 4219 1204 4116 
Q 875 4013 500 3803 
L 500 4441 
Q 881 4594 1212 4672 
Q 1544 4750 1819 4750 
Q 2544 4750 2975 4387 
Q 3406 4025 3406 3419 
Q 3406 3131 3298 2873 
Q 3191 2616 2906 2266 
Q 2828 2175 2409 1742 
Q 1991 1309 1228 531 
z
" transform="scale(0.015625)"/>
        <path id="DejaVuSans-30" d="M 2034 4250 
Q 1547 4250 1301 3770 
Q 1056 3291 1056 2328 
Q 1056 1369 1301 889 
Q 1547 409 2034 409 
Q 2525 409 2770 889 
Q 3016 1369 3016 2328 
Q 3016 3291 2770 3770 
Q 2525 4250 2034 4250 
z
M 2034 4750 
Q 2819 4750 3233 4129 
Q 3647 3509 3647 2328 
Q 3647 1150 3233 529 
Q 2819 -91 2034 -91 
Q 1250 -91 836 529 
Q 422 1150 422 2328 
Q 422 3509 836 4129 
Q 1250 4750 2034 4750 
z
" transform="scale(0.015625)"/>
       </defs>
       <use xlink:href="#DejaVuSans-32"/>
       <use xlink:href="#DejaVuSans-30" x="63.623047"/>
       <use xlink:href="#DejaVuSans-30" x="127.246094"/>
      </g>
     </g>
    </g>
    <g id="xtick_2">
     <g id="line2d_2">
      <g>
       <use xlink:href="#mbe1dfbd4ab" x="283.926485" y="642.866667" style="stroke: #000000; stroke-width: 0.8"/>
      </g>
     </g>
     <g id="text_2">
      <!-- 300 -->
      <g transform="translate(274.382735 657.465104) scale(0.1 -0.1)">
       <defs>
        <path id="DejaVuSans-33" d="M 2597 2516 
Q 3050 2419 3304 2112 
Q 3559 1806 3559 1356 
Q 3559 666 3084 287 
Q 2609 -91 1734 -91 
Q 1441 -91 1130 -33 
Q 819 25 488 141 
L 488 750 
Q 750 597 1062 519 
Q 1375 441 1716 441 
Q 2309 441 2620 675 
Q 2931 909 2931 1356 
Q 2931 1769 2642 2001 
Q 2353 2234 1838 2234 
L 1294 2234 
L 1294 2753 
L 1863 2753 
Q 2328 2753 2575 2939 
Q 2822 3125 2822 3475 
Q 2822 3834 2567 4026 
Q 2313 4219 1838 4219 
Q 1578 4219 1281 4162 
Q 984 4106 628 3988 
L 628 4550 
Q 988 4650 1302 4700 
Q 1616 4750 1894 4750 
Q 2613 4750 3031 4423 
Q 3450 4097 3450 3541 
Q 3450 3153 3228 2886 
Q 3006 2619 2597 2516 
z
" transform="scale(0.015625)"/>
       </defs>
       <use xlink:href="#DejaVuSans-33"/>
       <use xlink:href="#DejaVuSans-30" x="63.623047"/>
       <use xlink:href="#DejaVuSans-30" x="127.246094"/>
      </g>
     </g>
    </g>
    <g id="xtick_3">
     <g id="line2d_3">
      <g>
       <use xlink:href="#mbe1dfbd4ab" x="418.198353" y="642.866667" style="stroke: #000000; stroke-width: 0.8"/>
      </g>
     </g>
     <g id="text_3">
      <!-- 400 -->
      <g transform="translate(408.654603 657.465104) scale(0.1 -0.1)">
       <defs>
        <path id="DejaVuSans-34" d="M 2419 4116 
L 825 1625 
L 2419 1625 
L 2419 4116 
z
M 2253 4666 
L 3047 4666 
L 3047 1625 
L 3713 1625 
L 3713 1100 
L 3047 1100 
L 3047 0 
L 2419 0 
L 2419 1100 
L 313 1100 
L 313 1709 
L 2253 4666 
z
" transform="scale(0.015625)"/>
       </defs>
       <use xlink:href="#DejaVuSans-34"/>
       <use xlink:href="#DejaVuSans-30" x="63.623047"/>
       <use xlink:href="#DejaVuSans-30" x="127.246094"/>
      </g>
     </g>
    </g>
    <g id="xtick_4">
     <g id="line2d_4">
      <g>
       <use xlink:href="#mbe1dfbd4ab" x="552.47022" y="642.866667" style="stroke: #000000; stroke-width: 0.8"/>
      </g>
     </g>
     <g id="text_4">
      <!-- 500 -->
      <g transform="translate(542.92647 657.465104) scale(0.1 -0.1)">
       <defs>
        <path id="DejaVuSans-35" d="M 691 4666 
L 3169 4666 
L 3169 4134 
L 1269 4134 
L 1269 2991 
Q 1406 3038 1543 3061 
Q 1681 3084 1819 3084 
Q 2600 3084 3056 2656 
Q 3513 2228 3513 1497 
Q 3513 744 3044 326 
Q 2575 -91 1722 -91 
Q 1428 -91 1123 -41 
Q 819 9 494 109 
L 494 744 
Q 775 591 1075 516 
Q 1375 441 1709 441 
Q 2250 441 2565 725 
Q 2881 1009 2881 1497 
Q 2881 1984 2565 2268 
Q 2250 2553 1709 2553 
Q 1456 2553 1204 2497 
Q 953 2441 691 2322 
L 691 4666 
z
" transform="scale(0.015625)"/>
       </defs>
       <use xlink:href="#DejaVuSans-35"/>
       <use xlink:href="#DejaVuSans-30" x="63.623047"/>
       <use xlink:href="#DejaVuSans-30" x="127.246094"/>
      </g>
     </g>
    </g>
    <g id="xtick_5">
     <g id="line2d_5">
      <g>
       <use xlink:href="#mbe1dfbd4ab" x="686.742088" y="642.866667" style="stroke: #000000; stroke-width: 0.8"/>
      </g>
     </g>
     <g id="text_5">
      <!-- 600 -->
      <g transform="translate(677.198338 657.465104) scale(0.1 -0.1)">
       <defs>
        <path id="DejaVuSans-36" d="M 2113 2584 
Q 1688 2584 1439 2293 
Q 1191 2003 1191 1497 
Q 1191 994 1439 701 
Q 1688 409 2113 409 
Q 2538 409 2786 701 
Q 3034 994 3034 1497 
Q 3034 2003 2786 2293 
Q 2538 2584 2113 2584 
z
M 3366 4563 
L 3366 3988 
Q 3128 4100 2886 4159 
Q 2644 4219 2406 4219 
Q 1781 4219 1451 3797 
Q 1122 3375 1075 2522 
Q 1259 2794 1537 2939 
Q 1816 3084 2150 3084 
Q 2853 3084 3261 2657 
Q 3669 2231 3669 1497 
Q 3669 778 3244 343 
Q 2819 -91 2113 -91 
Q 1303 -91 875 529 
Q 447 1150 447 2328 
Q 447 3434 972 4092 
Q 1497 4750 2381 4750 
Q 2619 4750 2861 4703 
Q 3103 4656 3366 4563 
z
" transform="scale(0.015625)"/>
       </defs>
       <use xlink:href="#DejaVuSans-36"/>
       <use xlink:href="#DejaVuSans-30" x="63.623047"/>
       <use xlink:href="#DejaVuSans-30" x="127.246094"/>
      </g>
     </g>
    </g>
    <g id="text_6">
     <!-- Protein length -->
     <g transform="translate(395.455826 671.143229) scale(0.1 -0.1)">
      <defs>
       <path id="DejaVuSans-50" d="M 1259 4147 
L 1259 2394 
L 2053 2394 
Q 2494 2394 2734 2622 
Q 2975 2850 2975 3272 
Q 2975 3691 2734 3919 
Q 2494 4147 2053 4147 
L 1259 4147 
z
M 628 4666 
L 2053 4666 
Q 2838 4666 3239 4311 
Q 3641 3956 3641 3272 
Q 3641 2581 3239 2228 
Q 2838 1875 2053 1875 
L 1259 1875 
L 1259 0 
L 628 0 
L 628 4666 
z
" transform="scale(0.015625)"/>
       <path id="DejaVuSans-72" d="M 2631 2963 
Q 2534 3019 2420 3045 
Q 2306 3072 2169 3072 
Q 1681 3072 1420 2755 
Q 1159 2438 1159 1844 
L 1159 0 
L 581 0 
L 581 3500 
L 1159 3500 
L 1159 2956 
Q 1341 3275 1631 3429 
Q 1922 3584 2338 3584 
Q 2397 3584 2469 3576 
Q 2541 3569 2628 3553 
L 2631 2963 
z
" transform="scale(0.015625)"/>
       <path id="DejaVuSans-6f" d="M 1959 3097 
Q 1497 3097 1228 2736 
Q 959 2375 959 1747 
Q 959 1119 1226 758 
Q 1494 397 1959 397 
Q 2419 397 2687 759 
Q 2956 1122 2956 1747 
Q 2956 2369 2687 2733 
Q 2419 3097 1959 3097 
z
M 1959 3584 
Q 2709 3584 3137 3096 
Q 3566 2609 3566 1747 
Q 3566 888 3137 398 
Q 2709 -91 1959 -91 
Q 1206 -91 779 398 
Q 353 888 353 1747 
Q 353 2609 779 3096 
Q 1206 3584 1959 3584 
z
" transform="scale(0.015625)"/>
       <path id="DejaVuSans-74" d="M 1172 4494 
L 1172 3500 
L 2356 3500 
L 2356 3053 
L 1172 3053 
L 1172 1153 
Q 1172 725 1289 603 
Q 1406 481 1766 481 
L 2356 481 
L 2356 0 
L 1766 0 
Q 1100 0 847 248 
Q 594 497 594 1153 
L 594 3053 
L 172 3053 
L 172 3500 
L 594 3500 
L 594 4494 
L 1172 4494 
z
" transform="scale(0.015625)"/>
       <path id="DejaVuSans-65" d="M 3597 1894 
L 3597 1613 
L 953 1613 
Q 991 1019 1311 708 
Q 1631 397 2203 397 
Q 2534 397 2845 478 
Q 3156 559 3463 722 
L 3463 178 
Q 3153 47 2828 -22 
Q 2503 -91 2169 -91 
Q 1331 -91 842 396 
Q 353 884 353 1716 
Q 353 2575 817 3079 
Q 1281 3584 2069 3584 
Q 2775 3584 3186 3129 
Q 3597 2675 3597 1894 
z
M 3022 2063 
Q 3016 2534 2758 2815 
Q 2500 3097 2075 3097 
Q 1594 3097 1305 2825 
Q 1016 2553 972 2059 
L 3022 2063 
z
" transform="scale(0.015625)"/>
       <path id="DejaVuSans-69" d="M 603 3500 
L 1178 3500 
L 1178 0 
L 603 0 
L 603 3500 
z
M 603 4863 
L 1178 4863 
L 1178 4134 
L 603 4134 
L 603 4863 
z
" transform="scale(0.015625)"/>
       <path id="DejaVuSans-6e" d="M 3513 2113 
L 3513 0 
L 2938 0 
L 2938 2094 
Q 2938 2591 2744 2837 
Q 2550 3084 2163 3084 
Q 1697 3084 1428 2787 
Q 1159 2491 1159 1978 
L 1159 0 
L 581 0 
L 581 3500 
L 1159 3500 
L 1159 2956 
Q 1366 3272 1645 3428 
Q 1925 3584 2291 3584 
Q 2894 3584 3203 3211 
Q 3513 2838 3513 2113 
z
" transform="scale(0.015625)"/>
       <path id="DejaVuSans-20" transform="scale(0.015625)"/>
       <path id="DejaVuSans-6c" d="M 603 4863 
L 1178 4863 
L 1178 0 
L 603 0 
L 603 4863 
z
" transform="scale(0.015625)"/>
       <path id="DejaVuSans-67" d="M 2906 1791 
Q 2906 2416 2648 2759 
Q 2391 3103 1925 3103 
Q 1463 3103 1205 2759 
Q 947 2416 947 1791 
Q 947 1169 1205 825 
Q 1463 481 1925 481 
Q 2391 481 2648 825 
Q 2906 1169 2906 1791 
z
M 3481 434 
Q 3481 -459 3084 -895 
Q 2688 -1331 1869 -1331 
Q 1566 -1331 1297 -1286 
Q 1028 -1241 775 -1147 
L 775 -588 
Q 1028 -725 1275 -790 
Q 1522 -856 1778 -856 
Q 2344 -856 2625 -561 
Q 2906 -266 2906 331 
L 2906 616 
Q 2728 306 2450 153 
Q 2172 0 1784 0 
Q 1141 0 747 490 
Q 353 981 353 1791 
Q 353 2603 747 3093 
Q 1141 3584 1784 3584 
Q 2172 3584 2450 3431 
Q 2728 3278 2906 2969 
L 2906 3500 
L 3481 3500 
L 3481 434 
z
" transform="scale(0.015625)"/>
       <path id="DejaVuSans-68" d="M 3513 2113 
L 3513 0 
L 2938 0 
L 2938 2094 
Q 2938 2591 2744 2837 
Q 2550 3084 2163 3084 
Q 1697 3084 1428 2787 
Q 1159 2491 1159 1978 
L 1159 0 
L 581 0 
L 581 4863 
L 1159 4863 
L 1159 2956 
Q 1366 3272 1645 3428 
Q 1925 3584 2291 3584 
Q 2894 3584 3203 3211 
Q 3513 2838 3513 2113 
z
" transform="scale(0.015625)"/>
      </defs>
      <use xlink:href="#DejaVuSans-50"/>
      <use xlink:href="#DejaVuSans-72" x="58.552734"/>
      <use xlink:href="#DejaVuSans-6f" x="97.416016"/>
      <use xlink:href="#DejaVuSans-74" x="158.597656"/>
      <use xlink:href="#DejaVuSans-65" x="197.806641"/>
      <use xlink:href="#DejaVuSans-69" x="259.330078"/>
      <use xlink:href="#DejaVuSans-6e" x="287.113281"/>
      <use xlink:href="#DejaVuSans-20" x="350.492188"/>
      <use xlink:href="#DejaVuSans-6c" x="382.279297"/>
      <use xlink:href="#DejaVuSans-65" x="410.0625"/>
      <use xlink:href="#DejaVuSans-6e" x="471.585938"/>
      <use xlink:href="#DejaVuSans-67" x="534.964844"/>
      <use xlink:href="#DejaVuSans-74" x="598.441406"/>
      <use xlink:href="#DejaVuSans-68" x="637.650391"/>
     </g>
    </g>
   </g>
   <g id="matplotlib.axis_2">
    <g id="ytick_1">
     <g id="line2d_6">
      <defs>
       <path id="mda59f8185e" d="M 0 0 
L -3.5 0 
" style="stroke: #000000; stroke-width: 0.8"/>
      </defs>
      <g>
       <use xlink:href="#mda59f8185e" x="43.78125" y="627.151092" style="stroke: #000000; stroke-width: 0.8"/>
      </g>
     </g>
     <g id="text_7">
      <!-- 0.2 -->
      <g transform="translate(20.878125 630.950311) scale(0.1 -0.1)">
       <defs>
        <path id="DejaVuSans-2e" d="M 684 794 
L 1344 794 
L 1344 0 
L 684 0 
L 684 794 
z
" transform="scale(0.015625)"/>
       </defs>
       <use xlink:href="#DejaVuSans-30"/>
       <use xlink:href="#DejaVuSans-2e" x="63.623047"/>
       <use xlink:href="#DejaVuSans-32" x="95.410156"/>
      </g>
     </g>
    </g>
    <g id="ytick_2">
     <g id="line2d_7">
      <g>
       <use xlink:href="#mda59f8185e" x="43.78125" y="559.644588" style="stroke: #000000; stroke-width: 0.8"/>
      </g>
     </g>
     <g id="text_8">
      <!-- 0.3 -->
      <g transform="translate(20.878125 563.443807) scale(0.1 -0.1)">
       <use xlink:href="#DejaVuSans-30"/>
       <use xlink:href="#DejaVuSans-2e" x="63.623047"/>
       <use xlink:href="#DejaVuSans-33" x="95.410156"/>
      </g>
     </g>
    </g>
    <g id="ytick_3">
     <g id="line2d_8">
      <g>
       <use xlink:href="#mda59f8185e" x="43.78125" y="492.138084" style="stroke: #000000; stroke-width: 0.8"/>
      </g>
     </g>
     <g id="text_9">
      <!-- 0.4 -->
      <g transform="translate(20.878125 495.937303) scale(0.1 -0.1)">
       <use xlink:href="#DejaVuSans-30"/>
       <use xlink:href="#DejaVuSans-2e" x="63.623047"/>
       <use xlink:href="#DejaVuSans-34" x="95.410156"/>
      </g>
     </g>
    </g>
    <g id="ytick_4">
     <g id="line2d_9">
      <g>
       <use xlink:href="#mda59f8185e" x="43.78125" y="424.63158" style="stroke: #000000; stroke-width: 0.8"/>
      </g>
     </g>
     <g id="text_10">
      <!-- 0.5 -->
      <g transform="translate(20.878125 428.430799) scale(0.1 -0.1)">
       <use xlink:href="#DejaVuSans-30"/>
       <use xlink:href="#DejaVuSans-2e" x="63.623047"/>
       <use xlink:href="#DejaVuSans-35" x="95.410156"/>
      </g>
     </g>
    </g>
    <g id="ytick_5">
     <g id="line2d_10">
      <g>
       <use xlink:href="#mda59f8185e" x="43.78125" y="357.125076" style="stroke: #000000; stroke-width: 0.8"/>
      </g>
     </g>
     <g id="text_11">
      <!-- 0.6 -->
      <g transform="translate(20.878125 360.924295) scale(0.1 -0.1)">
       <use xlink:href="#DejaVuSans-30"/>
       <use xlink:href="#DejaVuSans-2e" x="63.623047"/>
       <use xlink:href="#DejaVuSans-36" x="95.410156"/>
      </g>
     </g>
    </g>
    <g id="ytick_6">
     <g id="line2d_11">
      <g>
       <use xlink:href="#mda59f8185e" x="43.78125" y="289.618572" style="stroke: #000000; stroke-width: 0.8"/>
      </g>
     </g>
     <g id="text_12">
      <!-- 0.7 -->
      <g transform="translate(20.878125 293.41779) scale(0.1 -0.1)">
       <defs>
        <path id="DejaVuSans-37" d="M 525 4666 
L 3525 4666 
L 3525 4397 
L 1831 0 
L 1172 0 
L 2766 4134 
L 525 4134 
L 525 4666 
z
" transform="scale(0.015625)"/>
       </defs>
       <use xlink:href="#DejaVuSans-30"/>
       <use xlink:href="#DejaVuSans-2e" x="63.623047"/>
       <use xlink:href="#DejaVuSans-37" x="95.410156"/>
      </g>
     </g>
    </g>
    <g id="ytick_7">
     <g id="line2d_12">
      <g>
       <use xlink:href="#mda59f8185e" x="43.78125" y="222.112068" style="stroke: #000000; stroke-width: 0.8"/>
      </g>
     </g>
     <g id="text_13">
      <!-- 0.8 -->
      <g transform="translate(20.878125 225.911286) scale(0.1 -0.1)">
       <defs>
        <path id="DejaVuSans-38" d="M 2034 2216 
Q 1584 2216 1326 1975 
Q 1069 1734 1069 1313 
Q 1069 891 1326 650 
Q 1584 409 2034 409 
Q 2484 409 2743 651 
Q 3003 894 3003 1313 
Q 3003 1734 2745 1975 
Q 2488 2216 2034 2216 
z
M 1403 2484 
Q 997 2584 770 2862 
Q 544 3141 544 3541 
Q 544 4100 942 4425 
Q 1341 4750 2034 4750 
Q 2731 4750 3128 4425 
Q 3525 4100 3525 3541 
Q 3525 3141 3298 2862 
Q 3072 2584 2669 2484 
Q 3125 2378 3379 2068 
Q 3634 1759 3634 1313 
Q 3634 634 3220 271 
Q 2806 -91 2034 -91 
Q 1263 -91 848 271 
Q 434 634 434 1313 
Q 434 1759 690 2068 
Q 947 2378 1403 2484 
z
M 1172 3481 
Q 1172 3119 1398 2916 
Q 1625 2713 2034 2713 
Q 2441 2713 2670 2916 
Q 2900 3119 2900 3481 
Q 2900 3844 2670 4047 
Q 2441 4250 2034 4250 
Q 1625 4250 1398 4047 
Q 1172 3844 1172 3481 
z
" transform="scale(0.015625)"/>
       </defs>
       <use xlink:href="#DejaVuSans-30"/>
       <use xlink:href="#DejaVuSans-2e" x="63.623047"/>
       <use xlink:href="#DejaVuSans-38" x="95.410156"/>
      </g>
     </g>
    </g>
    <g id="ytick_8">
     <g id="line2d_13">
      <g>
       <use xlink:href="#mda59f8185e" x="43.78125" y="154.605564" style="stroke: #000000; stroke-width: 0.8"/>
      </g>
     </g>
     <g id="text_14">
      <!-- 0.9 -->
      <g transform="translate(20.878125 158.404782) scale(0.1 -0.1)">
       <defs>
        <path id="DejaVuSans-39" d="M 703 97 
L 703 672 
Q 941 559 1184 500 
Q 1428 441 1663 441 
Q 2288 441 2617 861 
Q 2947 1281 2994 2138 
Q 2813 1869 2534 1725 
Q 2256 1581 1919 1581 
Q 1219 1581 811 2004 
Q 403 2428 403 3163 
Q 403 3881 828 4315 
Q 1253 4750 1959 4750 
Q 2769 4750 3195 4129 
Q 3622 3509 3622 2328 
Q 3622 1225 3098 567 
Q 2575 -91 1691 -91 
Q 1453 -91 1209 -44 
Q 966 3 703 97 
z
M 1959 2075 
Q 2384 2075 2632 2365 
Q 2881 2656 2881 3163 
Q 2881 3666 2632 3958 
Q 2384 4250 1959 4250 
Q 1534 4250 1286 3958 
Q 1038 3666 1038 3163 
Q 1038 2656 1286 2365 
Q 1534 2075 1959 2075 
z
" transform="scale(0.015625)"/>
       </defs>
       <use xlink:href="#DejaVuSans-30"/>
       <use xlink:href="#DejaVuSans-2e" x="63.623047"/>
       <use xlink:href="#DejaVuSans-39" x="95.410156"/>
      </g>
     </g>
    </g>
    <g id="text_15">
     <!-- Correlation coefficient -->
     <g transform="translate(14.798438 452.712284) rotate(-90) scale(0.1 -0.1)">
      <defs>
       <path id="DejaVuSans-43" d="M 4122 4306 
L 4122 3641 
Q 3803 3938 3442 4084 
Q 3081 4231 2675 4231 
Q 1875 4231 1450 3742 
Q 1025 3253 1025 2328 
Q 1025 1406 1450 917 
Q 1875 428 2675 428 
Q 3081 428 3442 575 
Q 3803 722 4122 1019 
L 4122 359 
Q 3791 134 3420 21 
Q 3050 -91 2638 -91 
Q 1578 -91 968 557 
Q 359 1206 359 2328 
Q 359 3453 968 4101 
Q 1578 4750 2638 4750 
Q 3056 4750 3426 4639 
Q 3797 4528 4122 4306 
z
" transform="scale(0.015625)"/>
       <path id="DejaVuSans-61" d="M 2194 1759 
Q 1497 1759 1228 1600 
Q 959 1441 959 1056 
Q 959 750 1161 570 
Q 1363 391 1709 391 
Q 2188 391 2477 730 
Q 2766 1069 2766 1631 
L 2766 1759 
L 2194 1759 
z
M 3341 1997 
L 3341 0 
L 2766 0 
L 2766 531 
Q 2569 213 2275 61 
Q 1981 -91 1556 -91 
Q 1019 -91 701 211 
Q 384 513 384 1019 
Q 384 1609 779 1909 
Q 1175 2209 1959 2209 
L 2766 2209 
L 2766 2266 
Q 2766 2663 2505 2880 
Q 2244 3097 1772 3097 
Q 1472 3097 1187 3025 
Q 903 2953 641 2809 
L 641 3341 
Q 956 3463 1253 3523 
Q 1550 3584 1831 3584 
Q 2591 3584 2966 3190 
Q 3341 2797 3341 1997 
z
" transform="scale(0.015625)"/>
       <path id="DejaVuSans-63" d="M 3122 3366 
L 3122 2828 
Q 2878 2963 2633 3030 
Q 2388 3097 2138 3097 
Q 1578 3097 1268 2742 
Q 959 2388 959 1747 
Q 959 1106 1268 751 
Q 1578 397 2138 397 
Q 2388 397 2633 464 
Q 2878 531 3122 666 
L 3122 134 
Q 2881 22 2623 -34 
Q 2366 -91 2075 -91 
Q 1284 -91 818 406 
Q 353 903 353 1747 
Q 353 2603 823 3093 
Q 1294 3584 2113 3584 
Q 2378 3584 2631 3529 
Q 2884 3475 3122 3366 
z
" transform="scale(0.015625)"/>
       <path id="DejaVuSans-66" d="M 2375 4863 
L 2375 4384 
L 1825 4384 
Q 1516 4384 1395 4259 
Q 1275 4134 1275 3809 
L 1275 3500 
L 2222 3500 
L 2222 3053 
L 1275 3053 
L 1275 0 
L 697 0 
L 697 3053 
L 147 3053 
L 147 3500 
L 697 3500 
L 697 3744 
Q 697 4328 969 4595 
Q 1241 4863 1831 4863 
L 2375 4863 
z
" transform="scale(0.015625)"/>
      </defs>
      <use xlink:href="#DejaVuSans-43"/>
      <use xlink:href="#DejaVuSans-6f" x="69.824219"/>
      <use xlink:href="#DejaVuSans-72" x="131.005859"/>
      <use xlink:href="#DejaVuSans-72" x="170.369141"/>
      <use xlink:href="#DejaVuSans-65" x="209.232422"/>
      <use xlink:href="#DejaVuSans-6c" x="270.755859"/>
      <use xlink:href="#DejaVuSans-61" x="298.539062"/>
      <use xlink:href="#DejaVuSans-74" x="359.818359"/>
      <use xlink:href="#DejaVuSans-69" x="399.027344"/>
      <use xlink:href="#DejaVuSans-6f" x="426.810547"/>
      <use xlink:href="#DejaVuSans-6e" x="487.992188"/>
      <use xlink:href="#DejaVuSans-20" x="551.371094"/>
      <use xlink:href="#DejaVuSans-63" x="583.158203"/>
      <use xlink:href="#DejaVuSans-6f" x="638.138672"/>
      <use xlink:href="#DejaVuSans-65" x="699.320312"/>
      <use xlink:href="#DejaVuSans-66" x="760.84375"/>
      <use xlink:href="#DejaVuSans-66" x="796.048828"/>
      <use xlink:href="#DejaVuSans-69" x="831.253906"/>
      <use xlink:href="#DejaVuSans-63" x="859.037109"/>
      <use xlink:href="#DejaVuSans-69" x="914.017578"/>
      <use xlink:href="#DejaVuSans-65" x="941.800781"/>
      <use xlink:href="#DejaVuSans-6e" x="1003.324219"/>
      <use xlink:href="#DejaVuSans-74" x="1066.703125"/>
     </g>
    </g>
   </g>
   <g id="line2d_14">
    <path d="M 78.938101 484.023374 
L 86.040495 482.631683 
L 93.142889 481.239992 
L 100.245283 479.848301 
L 107.347677 478.456609 
L 114.450071 477.064918 
L 121.552465 475.673227 
L 128.654859 474.281536 
L 135.757253 472.889845 
L 142.859647 471.498153 
L 149.962041 470.106462 
L 157.064435 468.714771 
L 164.166829 467.32308 
L 171.269224 465.931389 
L 178.371618 464.539697 
L 185.474012 463.148006 
L 192.576406 461.756315 
L 199.6788 460.364624 
L 206.781194 458.972933 
L 213.883588 457.581241 
L 220.985982 456.18955 
L 228.088376 454.797859 
L 235.19077 453.406168 
L 242.293164 452.014477 
L 249.395558 450.622785 
L 256.497952 449.231094 
L 263.600346 447.839403 
L 270.702741 446.447712 
L 277.805135 445.056021 
L 284.907529 443.664329 
L 292.009923 442.272638 
L 299.112317 440.880947 
L 306.214711 439.489256 
L 313.317105 438.097565 
L 320.419499 436.705873 
L 327.521893 435.314182 
L 334.624287 433.922491 
L 341.726681 432.5308 
L 348.829075 431.139109 
L 355.931469 429.747417 
L 363.033863 428.355726 
L 370.136258 426.964035 
L 377.238652 425.572344 
L 384.341046 424.180653 
L 391.44344 422.788961 
L 398.545834 421.39727 
L 405.648228 420.005579 
L 412.750622 418.613888 
L 419.853016 417.222197 
L 426.95541 415.830505 
L 434.057804 414.438814 
L 441.160198 413.047123 
L 448.262592 411.655432 
L 455.364986 410.263741 
L 462.46738 408.87205 
L 469.569775 407.480358 
L 476.672169 406.088667 
L 483.774563 404.696976 
L 490.876957 403.305285 
L 497.979351 401.913594 
L 505.081745 400.521902 
L 512.184139 399.130211 
L 519.286533 397.73852 
L 526.388927 396.346829 
L 533.491321 394.955138 
L 540.593715 393.563446 
L 547.696109 392.171755 
L 554.798503 390.780064 
L 561.900897 389.388373 
L 569.003292 387.996682 
L 576.105686 386.60499 
L 583.20808 385.213299 
L 590.310474 383.821608 
L 597.412868 382.429917 
L 604.515262 381.038226 
L 611.617656 379.646534 
L 618.72005 378.254843 
L 625.822444 376.863152 
L 632.924838 375.471461 
L 640.027232 374.07977 
L 647.129626 372.688078 
L 654.23202 371.296387 
L 661.334414 369.904696 
L 668.436809 368.513005 
L 675.539203 367.121314 
L 682.641597 365.729622 
L 689.743991 364.337931 
L 696.846385 362.94624 
L 703.948779 361.554549 
L 711.051173 360.162858 
L 718.153567 358.771166 
L 725.255961 357.379475 
L 732.358355 355.987784 
L 739.460749 354.596093 
L 746.563143 353.204402 
L 753.665537 351.81271 
L 760.767931 350.421019 
L 767.870325 349.029328 
L 774.97272 347.637637 
L 782.075114 346.245946 
" clip-path="url(#p609fd06a88)" style="fill: none; stroke: #1f77b4; stroke-width: 2.25; stroke-linecap: square"/>
   </g>
   <g id="line2d_15">
    <path d="M 78.938101 487.70684 
L 86.040495 486.912139 
L 93.142889 486.117439 
L 100.245283 485.322738 
L 107.347677 484.528037 
L 114.450071 483.733337 
L 121.552465 482.938636 
L 128.654859 482.143935 
L 135.757253 481.349235 
L 142.859647 480.554534 
L 149.962041 479.759833 
L 157.064435 478.965133 
L 164.166829 478.170432 
L 171.269224 477.375731 
L 178.371618 476.581031 
L 185.474012 475.78633 
L 192.576406 474.991629 
L 199.6788 474.196929 
L 206.781194 473.402228 
L 213.883588 472.607528 
L 220.985982 471.812827 
L 228.088376 471.018126 
L 235.19077 470.223426 
L 242.293164 469.428725 
L 249.395558 468.634024 
L 256.497952 467.839324 
L 263.600346 467.044623 
L 270.702741 466.249922 
L 277.805135 465.455222 
L 284.907529 464.660521 
L 292.009923 463.86582 
L 299.112317 463.07112 
L 306.214711 462.276419 
L 313.317105 461.481718 
L 320.419499 460.687018 
L 327.521893 459.892317 
L 334.624287 459.097616 
L 341.726681 458.302916 
L 348.829075 457.508215 
L 355.931469 456.713514 
L 363.033863 455.918814 
L 370.136258 455.124113 
L 377.238652 454.329413 
L 384.341046 453.534712 
L 391.44344 452.740011 
L 398.545834 451.945311 
L 405.648228 451.15061 
L 412.750622 450.355909 
L 419.853016 449.561209 
L 426.95541 448.766508 
L 434.057804 447.971807 
L 441.160198 447.177107 
L 448.262592 446.382406 
L 455.364986 445.587705 
L 462.46738 444.793005 
L 469.569775 443.998304 
L 476.672169 443.203603 
L 483.774563 442.408903 
L 490.876957 441.614202 
L 497.979351 440.819501 
L 505.081745 440.024801 
L 512.184139 439.2301 
L 519.286533 438.435399 
L 526.388927 437.640699 
L 533.491321 436.845998 
L 540.593715 436.051298 
L 547.696109 435.256597 
L 554.798503 434.461896 
L 561.900897 433.667196 
L 569.003292 432.872495 
L 576.105686 432.077794 
L 583.20808 431.283094 
L 590.310474 430.488393 
L 597.412868 429.693692 
L 604.515262 428.898992 
L 611.617656 428.104291 
L 618.72005 427.30959 
L 625.822444 426.51489 
L 632.924838 425.720189 
L 640.027232 424.925488 
L 647.129626 424.130788 
L 654.23202 423.336087 
L 661.334414 422.541386 
L 668.436809 421.746686 
L 675.539203 420.951985 
L 682.641597 420.157284 
L 689.743991 419.362584 
L 696.846385 418.567883 
L 703.948779 417.773182 
L 711.051173 416.978482 
L 718.153567 416.183781 
L 725.255961 415.389081 
L 732.358355 414.59438 
L 739.460749 413.799679 
L 746.563143 413.004979 
L 753.665537 412.210278 
L 760.767931 411.415577 
L 767.870325 410.620877 
L 774.97272 409.826176 
L 782.075114 409.031475 
" clip-path="url(#p609fd06a88)" style="fill: none; stroke: #ff7f0e; stroke-width: 2.25; stroke-linecap: square"/>
   </g>
   <g id="patch_3">
    <path d="M 43.78125 642.866667 
L 43.78125 151.965714 
" style="fill: none; stroke: #000000; stroke-width: 0.8; stroke-linejoin: miter; stroke-linecap: square"/>
   </g>
   <g id="patch_4">
    <path d="M 43.78125 642.866667 
L 817.231964 642.866667 
" style="fill: none; stroke: #000000; stroke-width: 0.8; stroke-linejoin: miter; stroke-linecap: square"/>
   </g>
   <g id="legend_1">
    <g id="patch_5">
     <path d="M 704.119464 637.866667 
L 810.231964 637.866667 
Q 812.231964 637.866667 812.231964 635.866667 
L 812.231964 607.510417 
Q 812.231964 605.510417 810.231964 605.510417 
L 704.119464 605.510417 
Q 702.119464 605.510417 702.119464 607.510417 
L 702.119464 635.866667 
Q 702.119464 637.866667 704.119464 637.866667 
z
" style="fill: #ffffff; opacity: 0.8; stroke: #cccccc; stroke-linejoin: miter"/>
    </g>
    <g id="PathCollection_3">
     <g>
      <use xlink:href="#ma20a63feee" x="716.119464" y="614.483854" style="fill: #4169e1; fill-opacity: 0.5; stroke: #000000; stroke-opacity: 0.5"/>
     </g>
    </g>
    <g id="text_16">
     <!-- Codon number -->
     <g transform="translate(734.119464 617.108854) scale(0.1 -0.1)">
      <defs>
       <path id="DejaVuSans-64" d="M 2906 2969 
L 2906 4863 
L 3481 4863 
L 3481 0 
L 2906 0 
L 2906 525 
Q 2725 213 2448 61 
Q 2172 -91 1784 -91 
Q 1150 -91 751 415 
Q 353 922 353 1747 
Q 353 2572 751 3078 
Q 1150 3584 1784 3584 
Q 2172 3584 2448 3432 
Q 2725 3281 2906 2969 
z
M 947 1747 
Q 947 1113 1208 752 
Q 1469 391 1925 391 
Q 2381 391 2643 752 
Q 2906 1113 2906 1747 
Q 2906 2381 2643 2742 
Q 2381 3103 1925 3103 
Q 1469 3103 1208 2742 
Q 947 2381 947 1747 
z
" transform="scale(0.015625)"/>
       <path id="DejaVuSans-75" d="M 544 1381 
L 544 3500 
L 1119 3500 
L 1119 1403 
Q 1119 906 1312 657 
Q 1506 409 1894 409 
Q 2359 409 2629 706 
Q 2900 1003 2900 1516 
L 2900 3500 
L 3475 3500 
L 3475 0 
L 2900 0 
L 2900 538 
Q 2691 219 2414 64 
Q 2138 -91 1772 -91 
Q 1169 -91 856 284 
Q 544 659 544 1381 
z
M 1991 3584 
L 1991 3584 
z
" transform="scale(0.015625)"/>
       <path id="DejaVuSans-6d" d="M 3328 2828 
Q 3544 3216 3844 3400 
Q 4144 3584 4550 3584 
Q 5097 3584 5394 3201 
Q 5691 2819 5691 2113 
L 5691 0 
L 5113 0 
L 5113 2094 
Q 5113 2597 4934 2840 
Q 4756 3084 4391 3084 
Q 3944 3084 3684 2787 
Q 3425 2491 3425 1978 
L 3425 0 
L 2847 0 
L 2847 2094 
Q 2847 2600 2669 2842 
Q 2491 3084 2119 3084 
Q 1678 3084 1418 2786 
Q 1159 2488 1159 1978 
L 1159 0 
L 581 0 
L 581 3500 
L 1159 3500 
L 1159 2956 
Q 1356 3278 1631 3431 
Q 1906 3584 2284 3584 
Q 2666 3584 2933 3390 
Q 3200 3197 3328 2828 
z
" transform="scale(0.015625)"/>
       <path id="DejaVuSans-62" d="M 3116 1747 
Q 3116 2381 2855 2742 
Q 2594 3103 2138 3103 
Q 1681 3103 1420 2742 
Q 1159 2381 1159 1747 
Q 1159 1113 1420 752 
Q 1681 391 2138 391 
Q 2594 391 2855 752 
Q 3116 1113 3116 1747 
z
M 1159 2969 
Q 1341 3281 1617 3432 
Q 1894 3584 2278 3584 
Q 2916 3584 3314 3078 
Q 3713 2572 3713 1747 
Q 3713 922 3314 415 
Q 2916 -91 2278 -91 
Q 1894 -91 1617 61 
Q 1341 213 1159 525 
L 1159 0 
L 581 0 
L 581 4863 
L 1159 4863 
L 1159 2969 
z
" transform="scale(0.015625)"/>
      </defs>
      <use xlink:href="#DejaVuSans-43"/>
      <use xlink:href="#DejaVuSans-6f" x="69.824219"/>
      <use xlink:href="#DejaVuSans-64" x="131.005859"/>
      <use xlink:href="#DejaVuSans-6f" x="194.482422"/>
      <use xlink:href="#DejaVuSans-6e" x="255.664062"/>
      <use xlink:href="#DejaVuSans-20" x="319.042969"/>
      <use xlink:href="#DejaVuSans-6e" x="350.830078"/>
      <use xlink:href="#DejaVuSans-75" x="414.208984"/>
      <use xlink:href="#DejaVuSans-6d" x="477.587891"/>
      <use xlink:href="#DejaVuSans-62" x="575"/>
      <use xlink:href="#DejaVuSans-65" x="638.476562"/>
      <use xlink:href="#DejaVuSans-72" x="700"/>
     </g>
    </g>
    <g id="PathCollection_4">
     <g>
      <use xlink:href="#m85ee865856" x="716.119464" y="629.161979" style="fill: #ff8c00; fill-opacity: 0.5; stroke: #000000; stroke-opacity: 0.5"/>
     </g>
    </g>
    <g id="text_17">
     <!-- Codon+GC -->
     <g transform="translate(734.119464 631.786979) scale(0.1 -0.1)">
      <defs>
       <path id="DejaVuSans-2b" d="M 2944 4013 
L 2944 2272 
L 4684 2272 
L 4684 1741 
L 2944 1741 
L 2944 0 
L 2419 0 
L 2419 1741 
L 678 1741 
L 678 2272 
L 2419 2272 
L 2419 4013 
L 2944 4013 
z
" transform="scale(0.015625)"/>
       <path id="DejaVuSans-47" d="M 3809 666 
L 3809 1919 
L 2778 1919 
L 2778 2438 
L 4434 2438 
L 4434 434 
Q 4069 175 3628 42 
Q 3188 -91 2688 -91 
Q 1594 -91 976 548 
Q 359 1188 359 2328 
Q 359 3472 976 4111 
Q 1594 4750 2688 4750 
Q 3144 4750 3555 4637 
Q 3966 4525 4313 4306 
L 4313 3634 
Q 3963 3931 3569 4081 
Q 3175 4231 2741 4231 
Q 1884 4231 1454 3753 
Q 1025 3275 1025 2328 
Q 1025 1384 1454 906 
Q 1884 428 2741 428 
Q 3075 428 3337 486 
Q 3600 544 3809 666 
z
" transform="scale(0.015625)"/>
      </defs>
      <use xlink:href="#DejaVuSans-43"/>
      <use xlink:href="#DejaVuSans-6f" x="69.824219"/>
      <use xlink:href="#DejaVuSans-64" x="131.005859"/>
      <use xlink:href="#DejaVuSans-6f" x="194.482422"/>
      <use xlink:href="#DejaVuSans-6e" x="255.664062"/>
      <use xlink:href="#DejaVuSans-2b" x="319.042969"/>
      <use xlink:href="#DejaVuSans-47" x="402.832031"/>
      <use xlink:href="#DejaVuSans-43" x="480.322266"/>
     </g>
    </g>
   </g>
  </g>
  <g id="axes_2">
   <g id="patch_6">
    <path d="M 43.78125 135.038095 
L 817.231964 135.038095 
L 817.231964 50.4 
L 43.78125 50.4 
z
" style="fill: #ffffff"/>
   </g>
   <g id="PolyCollection_3">
    <defs>
     <path id="m1d7273d0dc" d="M 78.938101 -549.627332 
L 78.938101 -545.384821 
L 105.981832 -545.384821 
L 105.981832 -545.384821 
L 133.025563 -545.384821 
L 133.025563 -545.384821 
L 160.069294 -545.384821 
L 160.069294 -545.384821 
L 187.113026 -545.384821 
L 187.113026 -545.384821 
L 214.156757 -545.384821 
L 214.156757 -545.384821 
L 241.200488 -545.384821 
L 241.200488 -545.384821 
L 268.24422 -545.384821 
L 268.24422 -545.384821 
L 295.287951 -545.384821 
L 295.287951 -545.384821 
L 322.331682 -545.384821 
L 322.331682 -545.384821 
L 349.375413 -545.384821 
L 349.375413 -545.384821 
L 376.419145 -545.384821 
L 376.419145 -545.384821 
L 403.462876 -545.384821 
L 403.462876 -545.384821 
L 430.506607 -545.384821 
L 430.506607 -545.384821 
L 457.550338 -545.384821 
L 457.550338 -545.384821 
L 484.59407 -545.384821 
L 484.59407 -545.384821 
L 511.637801 -545.384821 
L 511.637801 -545.384821 
L 538.681532 -545.384821 
L 538.681532 -545.384821 
L 565.725263 -545.384821 
L 565.725263 -545.384821 
L 592.768995 -545.384821 
L 592.768995 -545.384821 
L 619.812726 -545.384821 
L 619.812726 -545.384821 
L 646.856457 -545.384821 
L 646.856457 -545.384821 
L 673.900189 -545.384821 
L 673.900189 -545.384821 
L 700.94392 -545.384821 
L 700.94392 -545.384821 
L 727.987651 -545.384821 
L 727.987651 -545.384821 
L 755.031382 -545.384821 
L 755.031382 -545.384821 
L 782.075114 -545.384821 
L 782.075114 -545.384821 
L 782.075114 -549.627332 
L 782.075114 -549.627332 
L 782.075114 -549.627332 
L 755.031382 -549.627332 
L 755.031382 -545.384821 
L 727.987651 -545.384821 
L 727.987651 -545.384821 
L 700.94392 -545.384821 
L 700.94392 -545.384821 
L 673.900189 -545.384821 
L 673.900189 -545.384821 
L 646.856457 -545.384821 
L 646.856457 -545.384821 
L 619.812726 -545.384821 
L 619.812726 -545.384821 
L 592.768995 -545.384821 
L 592.768995 -545.384821 
L 565.725263 -545.384821 
L 565.725263 -545.384821 
L 538.681532 -545.384821 
L 538.681532 -545.384821 
L 511.637801 -545.384821 
L 511.637801 -549.627332 
L 484.59407 -549.627332 
L 484.59407 -545.384821 
L 457.550338 -545.384821 
L 457.550338 -549.627332 
L 430.506607 -549.627332 
L 430.506607 -545.384821 
L 403.462876 -545.384821 
L 403.462876 -549.627332 
L 376.419145 -549.627332 
L 376.419145 -545.384821 
L 349.375413 -545.384821 
L 349.375413 -566.597377 
L 322.331682 -566.597377 
L 322.331682 -575.082399 
L 295.287951 -575.082399 
L 295.287951 -625.992531 
L 268.24422 -625.992531 
L 268.24422 -604.779976 
L 241.200488 -604.779976 
L 241.200488 -579.32491 
L 214.156757 -579.32491 
L 214.156757 -558.112355 
L 187.113026 -558.112355 
L 187.113026 -549.627332 
L 160.069294 -549.627332 
L 160.069294 -562.354866 
L 133.025563 -562.354866 
L 133.025563 -549.627332 
L 105.981832 -549.627332 
L 105.981832 -549.627332 
L 78.938101 -549.627332 
z
" style="stroke: #000000"/>
    </defs>
    <g clip-path="url(#p52fa8a3359)">
     <use xlink:href="#m1d7273d0dc" x="0" y="680.422917" style="fill: #800080; fill-opacity: 0.75; stroke: #000000"/>
    </g>
   </g>
   <g id="matplotlib.axis_3">
    <g id="xtick_6">
     <g id="line2d_16">
      <g>
       <use xlink:href="#mbe1dfbd4ab" x="149.654618" y="135.038095" style="stroke: #000000; stroke-width: 0.8"/>
      </g>
     </g>
    </g>
    <g id="xtick_7">
     <g id="line2d_17">
      <g>
       <use xlink:href="#mbe1dfbd4ab" x="283.926485" y="135.038095" style="stroke: #000000; stroke-width: 0.8"/>
      </g>
     </g>
    </g>
    <g id="xtick_8">
     <g id="line2d_18">
      <g>
       <use xlink:href="#mbe1dfbd4ab" x="418.198353" y="135.038095" style="stroke: #000000; stroke-width: 0.8"/>
      </g>
     </g>
    </g>
    <g id="xtick_9">
     <g id="line2d_19">
      <g>
       <use xlink:href="#mbe1dfbd4ab" x="552.47022" y="135.038095" style="stroke: #000000; stroke-width: 0.8"/>
      </g>
     </g>
    </g>
    <g id="xtick_10">
     <g id="line2d_20">
      <g>
       <use xlink:href="#mbe1dfbd4ab" x="686.742088" y="135.038095" style="stroke: #000000; stroke-width: 0.8"/>
      </g>
     </g>
    </g>
   </g>
   <g id="matplotlib.axis_4">
    <g id="ytick_9"/>
    <g id="ytick_10"/>
    <g id="ytick_11"/>
    <g id="ytick_12"/>
   </g>
   <g id="patch_7">
    <path d="M 43.78125 135.038095 
L 817.231964 135.038095 
" style="fill: none; stroke: #000000; stroke-width: 0.8; stroke-linejoin: miter; stroke-linecap: square"/>
   </g>
  </g>
  <g id="axes_3">
   <g id="patch_8">
    <path d="M 843.902679 642.866667 
L 977.25625 642.866667 
L 977.25625 151.965714 
L 843.902679 151.965714 
z
" style="fill: #ffffff"/>
   </g>
   <g id="PolyCollection_4">
    <defs>
     <path id="mc143a18579" d="M 873.138381 -100.109259 
L 849.964205 -100.109259 
L 849.964205 -100.109259 
L 849.964205 -145.684156 
L 849.964205 -145.684156 
L 849.964205 -191.259054 
L 849.964205 -191.259054 
L 849.964205 -236.833951 
L 849.964205 -236.833951 
L 849.964205 -282.408848 
L 849.964205 -282.408848 
L 849.964205 -327.983746 
L 865.413656 -327.983746 
L 865.413656 -327.983746 
L 865.413656 -282.408848 
L 900.174921 -282.408848 
L 900.174921 -236.833951 
L 911.762009 -236.833951 
L 911.762009 -191.259054 
L 911.762009 -191.259054 
L 911.762009 -145.684156 
L 896.312558 -145.684156 
L 896.312558 -100.109259 
L 873.138381 -100.109259 
z
" style="stroke: #000000; stroke-opacity: 0.5"/>
    </defs>
    <g clip-path="url(#p9e122fe082)">
     <use xlink:href="#mc143a18579" x="0" y="680.422917" style="fill: #4169e1; fill-opacity: 0.5; stroke: #000000; stroke-opacity: 0.5"/>
    </g>
   </g>
   <g id="PolyCollection_5">
    <defs>
     <path id="m68f9a6274c" d="M 862.087256 -59.86993 
L 849.964205 -59.86993 
L 849.964205 -59.86993 
L 849.964205 -88.909942 
L 849.964205 -88.909942 
L 849.964205 -117.949954 
L 849.964205 -117.949954 
L 849.964205 -146.989966 
L 849.964205 -146.989966 
L 849.964205 -176.029978 
L 849.964205 -176.029978 
L 849.964205 -205.06999 
L 849.964205 -205.06999 
L 849.964205 -234.110003 
L 849.964205 -234.110003 
L 849.964205 -263.150015 
L 849.964205 -263.150015 
L 849.964205 -292.190027 
L 880.271834 -292.190027 
L 880.271834 -292.190027 
L 880.271834 -263.150015 
L 892.394886 -263.150015 
L 892.394886 -234.110003 
L 898.456412 -234.110003 
L 898.456412 -205.06999 
L 971.194724 -205.06999 
L 971.194724 -176.029978 
L 928.764042 -176.029978 
L 928.764042 -146.989966 
L 898.456412 -146.989966 
L 898.456412 -117.949954 
L 862.087256 -117.949954 
L 862.087256 -88.909942 
L 862.087256 -88.909942 
L 862.087256 -59.86993 
L 862.087256 -59.86993 
z
" style="stroke: #000000; stroke-opacity: 0.5"/>
    </defs>
    <g clip-path="url(#p9e122fe082)">
     <use xlink:href="#m68f9a6274c" x="0" y="680.422917" style="fill: #ff8c00; fill-opacity: 0.5; stroke: #000000; stroke-opacity: 0.5"/>
    </g>
   </g>
   <g id="matplotlib.axis_5">
    <g id="xtick_11"/>
    <g id="xtick_12"/>
    <g id="xtick_13"/>
    <g id="xtick_14"/>
   </g>
   <g id="matplotlib.axis_6">
    <g id="ytick_13">
     <g id="line2d_21">
      <g>
       <use xlink:href="#mda59f8185e" x="843.902679" y="627.151092" style="stroke: #000000; stroke-width: 0.8"/>
      </g>
     </g>
    </g>
    <g id="ytick_14">
     <g id="line2d_22">
      <g>
       <use xlink:href="#mda59f8185e" x="843.902679" y="559.644588" style="stroke: #000000; stroke-width: 0.8"/>
      </g>
     </g>
    </g>
    <g id="ytick_15">
     <g id="line2d_23">
      <g>
       <use xlink:href="#mda59f8185e" x="843.902679" y="492.138084" style="stroke: #000000; stroke-width: 0.8"/>
      </g>
     </g>
    </g>
    <g id="ytick_16">
     <g id="line2d_24">
      <g>
       <use xlink:href="#mda59f8185e" x="843.902679" y="424.63158" style="stroke: #000000; stroke-width: 0.8"/>
      </g>
     </g>
    </g>
    <g id="ytick_17">
     <g id="line2d_25">
      <g>
       <use xlink:href="#mda59f8185e" x="843.902679" y="357.125076" style="stroke: #000000; stroke-width: 0.8"/>
      </g>
     </g>
    </g>
    <g id="ytick_18">
     <g id="line2d_26">
      <g>
       <use xlink:href="#mda59f8185e" x="843.902679" y="289.618572" style="stroke: #000000; stroke-width: 0.8"/>
      </g>
     </g>
    </g>
    <g id="ytick_19">
     <g id="line2d_27">
      <g>
       <use xlink:href="#mda59f8185e" x="843.902679" y="222.112068" style="stroke: #000000; stroke-width: 0.8"/>
      </g>
     </g>
    </g>
    <g id="ytick_20">
     <g id="line2d_28">
      <g>
       <use xlink:href="#mda59f8185e" x="843.902679" y="154.605564" style="stroke: #000000; stroke-width: 0.8"/>
      </g>
     </g>
    </g>
   </g>
   <g id="patch_9">
    <path d="M 843.902679 642.866667 
L 843.902679 151.965714 
" style="fill: none; stroke: #000000; stroke-width: 0.8; stroke-linejoin: miter; stroke-linecap: square"/>
   </g>
  </g>
  <g id="text_18">
   <!-- Archaea - Kendall's Tau correlation coefficients for genetic code: SGCode -->
   <g transform="translate(245.909688 16.318125) scale(0.12 -0.12)">
    <defs>
     <path id="DejaVuSans-41" d="M 2188 4044 
L 1331 1722 
L 3047 1722 
L 2188 4044 
z
M 1831 4666 
L 2547 4666 
L 4325 0 
L 3669 0 
L 3244 1197 
L 1141 1197 
L 716 0 
L 50 0 
L 1831 4666 
z
" transform="scale(0.015625)"/>
     <path id="DejaVuSans-2d" d="M 313 2009 
L 1997 2009 
L 1997 1497 
L 313 1497 
L 313 2009 
z
" transform="scale(0.015625)"/>
     <path id="DejaVuSans-4b" d="M 628 4666 
L 1259 4666 
L 1259 2694 
L 3353 4666 
L 4166 4666 
L 1850 2491 
L 4331 0 
L 3500 0 
L 1259 2247 
L 1259 0 
L 628 0 
L 628 4666 
z
" transform="scale(0.015625)"/>
     <path id="DejaVuSans-27" d="M 1147 4666 
L 1147 2931 
L 616 2931 
L 616 4666 
L 1147 4666 
z
" transform="scale(0.015625)"/>
     <path id="DejaVuSans-73" d="M 2834 3397 
L 2834 2853 
Q 2591 2978 2328 3040 
Q 2066 3103 1784 3103 
Q 1356 3103 1142 2972 
Q 928 2841 928 2578 
Q 928 2378 1081 2264 
Q 1234 2150 1697 2047 
L 1894 2003 
Q 2506 1872 2764 1633 
Q 3022 1394 3022 966 
Q 3022 478 2636 193 
Q 2250 -91 1575 -91 
Q 1294 -91 989 -36 
Q 684 19 347 128 
L 347 722 
Q 666 556 975 473 
Q 1284 391 1588 391 
Q 1994 391 2212 530 
Q 2431 669 2431 922 
Q 2431 1156 2273 1281 
Q 2116 1406 1581 1522 
L 1381 1569 
Q 847 1681 609 1914 
Q 372 2147 372 2553 
Q 372 3047 722 3315 
Q 1072 3584 1716 3584 
Q 2034 3584 2315 3537 
Q 2597 3491 2834 3397 
z
" transform="scale(0.015625)"/>
     <path id="DejaVuSans-54" d="M -19 4666 
L 3928 4666 
L 3928 4134 
L 2272 4134 
L 2272 0 
L 1638 0 
L 1638 4134 
L -19 4134 
L -19 4666 
z
" transform="scale(0.015625)"/>
     <path id="DejaVuSans-3a" d="M 750 794 
L 1409 794 
L 1409 0 
L 750 0 
L 750 794 
z
M 750 3309 
L 1409 3309 
L 1409 2516 
L 750 2516 
L 750 3309 
z
" transform="scale(0.015625)"/>
     <path id="DejaVuSans-53" d="M 3425 4513 
L 3425 3897 
Q 3066 4069 2747 4153 
Q 2428 4238 2131 4238 
Q 1616 4238 1336 4038 
Q 1056 3838 1056 3469 
Q 1056 3159 1242 3001 
Q 1428 2844 1947 2747 
L 2328 2669 
Q 3034 2534 3370 2195 
Q 3706 1856 3706 1288 
Q 3706 609 3251 259 
Q 2797 -91 1919 -91 
Q 1588 -91 1214 -16 
Q 841 59 441 206 
L 441 856 
Q 825 641 1194 531 
Q 1563 422 1919 422 
Q 2459 422 2753 634 
Q 3047 847 3047 1241 
Q 3047 1584 2836 1778 
Q 2625 1972 2144 2069 
L 1759 2144 
Q 1053 2284 737 2584 
Q 422 2884 422 3419 
Q 422 4038 858 4394 
Q 1294 4750 2059 4750 
Q 2388 4750 2728 4690 
Q 3069 4631 3425 4513 
z
" transform="scale(0.015625)"/>
    </defs>
    <use xlink:href="#DejaVuSans-41"/>
    <use xlink:href="#DejaVuSans-72" x="68.408203"/>
    <use xlink:href="#DejaVuSans-63" x="107.271484"/>
    <use xlink:href="#DejaVuSans-68" x="162.251953"/>
    <use xlink:href="#DejaVuSans-61" x="225.630859"/>
    <use xlink:href="#DejaVuSans-65" x="286.910156"/>
    <use xlink:href="#DejaVuSans-61" x="348.433594"/>
    <use xlink:href="#DejaVuSans-20" x="409.712891"/>
    <use xlink:href="#DejaVuSans-2d" x="441.5"/>
    <use xlink:href="#DejaVuSans-20" x="477.583984"/>
    <use xlink:href="#DejaVuSans-4b" x="509.371094"/>
    <use xlink:href="#DejaVuSans-65" x="569.947266"/>
    <use xlink:href="#DejaVuSans-6e" x="631.470703"/>
    <use xlink:href="#DejaVuSans-64" x="694.849609"/>
    <use xlink:href="#DejaVuSans-61" x="758.326172"/>
    <use xlink:href="#DejaVuSans-6c" x="819.605469"/>
    <use xlink:href="#DejaVuSans-6c" x="847.388672"/>
    <use xlink:href="#DejaVuSans-27" x="875.171875"/>
    <use xlink:href="#DejaVuSans-73" x="902.662109"/>
    <use xlink:href="#DejaVuSans-20" x="954.761719"/>
    <use xlink:href="#DejaVuSans-54" x="986.548828"/>
    <use xlink:href="#DejaVuSans-61" x="1031.132812"/>
    <use xlink:href="#DejaVuSans-75" x="1092.412109"/>
    <use xlink:href="#DejaVuSans-20" x="1155.791016"/>
    <use xlink:href="#DejaVuSans-63" x="1187.578125"/>
    <use xlink:href="#DejaVuSans-6f" x="1242.558594"/>
    <use xlink:href="#DejaVuSans-72" x="1303.740234"/>
    <use xlink:href="#DejaVuSans-72" x="1343.103516"/>
    <use xlink:href="#DejaVuSans-65" x="1381.966797"/>
    <use xlink:href="#DejaVuSans-6c" x="1443.490234"/>
    <use xlink:href="#DejaVuSans-61" x="1471.273438"/>
    <use xlink:href="#DejaVuSans-74" x="1532.552734"/>
    <use xlink:href="#DejaVuSans-69" x="1571.761719"/>
    <use xlink:href="#DejaVuSans-6f" x="1599.544922"/>
    <use xlink:href="#DejaVuSans-6e" x="1660.726562"/>
    <use xlink:href="#DejaVuSans-20" x="1724.105469"/>
    <use xlink:href="#DejaVuSans-63" x="1755.892578"/>
    <use xlink:href="#DejaVuSans-6f" x="1810.873047"/>
    <use xlink:href="#DejaVuSans-65" x="1872.054688"/>
    <use xlink:href="#DejaVuSans-66" x="1933.578125"/>
    <use xlink:href="#DejaVuSans-66" x="1968.783203"/>
    <use xlink:href="#DejaVuSans-69" x="2003.988281"/>
    <use xlink:href="#DejaVuSans-63" x="2031.771484"/>
    <use xlink:href="#DejaVuSans-69" x="2086.751953"/>
    <use xlink:href="#DejaVuSans-65" x="2114.535156"/>
    <use xlink:href="#DejaVuSans-6e" x="2176.058594"/>
    <use xlink:href="#DejaVuSans-74" x="2239.4375"/>
    <use xlink:href="#DejaVuSans-73" x="2278.646484"/>
    <use xlink:href="#DejaVuSans-20" x="2330.746094"/>
    <use xlink:href="#DejaVuSans-66" x="2362.533203"/>
    <use xlink:href="#DejaVuSans-6f" x="2397.738281"/>
    <use xlink:href="#DejaVuSans-72" x="2458.919922"/>
    <use xlink:href="#DejaVuSans-20" x="2500.033203"/>
    <use xlink:href="#DejaVuSans-67" x="2531.820312"/>
    <use xlink:href="#DejaVuSans-65" x="2595.296875"/>
    <use xlink:href="#DejaVuSans-6e" x="2656.820312"/>
    <use xlink:href="#DejaVuSans-65" x="2720.199219"/>
    <use xlink:href="#DejaVuSans-74" x="2781.722656"/>
    <use xlink:href="#DejaVuSans-69" x="2820.931641"/>
    <use xlink:href="#DejaVuSans-63" x="2848.714844"/>
    <use xlink:href="#DejaVuSans-20" x="2903.695312"/>
    <use xlink:href="#DejaVuSans-63" x="2935.482422"/>
    <use xlink:href="#DejaVuSans-6f" x="2990.462891"/>
    <use xlink:href="#DejaVuSans-64" x="3051.644531"/>
    <use xlink:href="#DejaVuSans-65" x="3115.121094"/>
    <use xlink:href="#DejaVuSans-3a" x="3176.644531"/>
    <use xlink:href="#DejaVuSans-20" x="3210.335938"/>
    <use xlink:href="#DejaVuSans-53" x="3242.123047"/>
    <use xlink:href="#DejaVuSans-47" x="3305.599609"/>
    <use xlink:href="#DejaVuSans-43" x="3383.089844"/>
    <use xlink:href="#DejaVuSans-6f" x="3452.914062"/>
    <use xlink:href="#DejaVuSans-64" x="3514.095703"/>
    <use xlink:href="#DejaVuSans-65" x="3577.572266"/>
   </g>
  </g>
 </g>
 <defs>
  <clipPath id="p609fd06a88">
   <rect x="43.78125" y="151.965714" width="773.450714" height="490.900952"/>
  </clipPath>
  <clipPath id="p52fa8a3359">
   <rect x="43.78125" y="50.4" width="773.450714" height="84.638095"/>
  </clipPath>
  <clipPath id="p9e122fe082">
   <rect x="843.902679" y="151.965714" width="133.353571" height="490.900952"/>
  </clipPath>
 </defs>
</svg>
