<?xml version="1.0" encoding="utf-8" standalone="no"?>
<!DOCTYPE svg PUBLIC "-//W3C//DTD SVG 1.1//EN"
  "http://www.w3.org/Graphics/SVG/1.1/DTD/svg11.dtd">
<svg xmlns:xlink="http://www.w3.org/1999/xlink" width="984.45625pt" height="680.422917pt" viewBox="0 0 984.45625 680.422917" xmlns="http://www.w3.org/2000/svg" version="1.1">
 <metadata>
  <rdf:RDF xmlns:dc="http://purl.org/dc/elements/1.1/" xmlns:cc="http://creativecommons.org/ns#" xmlns:rdf="http://www.w3.org/1999/02/22-rdf-syntax-ns#">
   <cc:Work>
    <dc:type rdf:resource="http://purl.org/dc/dcmitype/StillImage"/>
    <dc:date>2025-02-07T10:52:00.576896</dc:date>
    <dc:format>image/svg+xml</dc:format>
    <dc:creator>
     <cc:Agent>
      <dc:title>Matplotlib v3.6.3, https://matplotlib.org/</dc:title>
     </cc:Agent>
    </dc:creator>
   </cc:Work>
  </rdf:RDF>
 </metadata>
 <defs>
  <style type="text/css">*{stroke-linejoin: round; stroke-linecap: butt}</style>
 </defs>
 <g id="figure_1">
  <g id="patch_1">
   <path d="M 0 680.422917 
L 984.45625 680.422917 
L 984.45625 0 
L 0 0 
z
" style="fill: #ffffff"/>
  </g>
  <g id="axes_1">
   <g id="patch_2">
    <path d="M 43.78125 642.866667 
L 817.231964 642.866667 
L 817.231964 151.965714 
L 43.78125 151.965714 
z
" style="fill: #ffffff"/>
   </g>
   <g id="PathCollection_1">
    <defs>
     <path id="m67f551b65c" d="M 0 3 
C 0.795609 3 1.55874 2.683901 2.12132 2.12132 
C 2.683901 1.55874 3 0.795609 3 0 
C 3 -0.795609 2.683901 -1.55874 2.12132 -2.12132 
C 1.55874 -2.683901 0.795609 -3 0 -3 
C -0.795609 -3 -1.55874 -2.683901 -2.12132 -2.12132 
C -2.683901 -1.55874 -3 -0.795609 -3 0 
C -3 0.795609 -2.683901 1.55874 -2.12132 2.12132 
C -1.55874 2.683901 -0.795609 3 0 3 
z
" style="stroke: #000000; stroke-opacity: 0.5"/>
    </defs>
    <g clip-path="url(#p9fe879c6f0)">
     <use xlink:href="#m67f551b65c" x="247.712661" y="468.706032" style="fill: #4169e1; fill-opacity: 0.5; stroke: #000000; stroke-opacity: 0.5"/>
     <use xlink:href="#m67f551b65c" x="467.131046" y="280.272984" style="fill: #4169e1; fill-opacity: 0.5; stroke: #000000; stroke-opacity: 0.5"/>
     <use xlink:href="#m67f551b65c" x="438.029454" y="292.050049" style="fill: #4169e1; fill-opacity: 0.5; stroke: #000000; stroke-opacity: 0.5"/>
     <use xlink:href="#m67f551b65c" x="157.380596" y="433.374836" style="fill: #4169e1; fill-opacity: 0.5; stroke: #000000; stroke-opacity: 0.5"/>
     <use xlink:href="#m67f551b65c" x="709.075323" y="315.60418" style="fill: #4169e1; fill-opacity: 0.5; stroke: #000000; stroke-opacity: 0.5"/>
     <use xlink:href="#m67f551b65c" x="315.201999" y="421.59777" style="fill: #4169e1; fill-opacity: 0.5; stroke: #000000; stroke-opacity: 0.5"/>
     <use xlink:href="#m67f551b65c" x="165.737569" y="398.043639" style="fill: #4169e1; fill-opacity: 0.5; stroke: #000000; stroke-opacity: 0.5"/>
     <use xlink:href="#m67f551b65c" x="373.648641" y="362.712443" style="fill: #4169e1; fill-opacity: 0.5; stroke: #000000; stroke-opacity: 0.5"/>
     <use xlink:href="#m67f551b65c" x="656.616993" y="209.610591" style="fill: #4169e1; fill-opacity: 0.5; stroke: #000000; stroke-opacity: 0.5"/>
     <use xlink:href="#m67f551b65c" x="241.103921" y="563.305948" style="fill: #4169e1; fill-opacity: 0.5; stroke: #000000; stroke-opacity: 0.5"/>
     <use xlink:href="#m67f551b65c" x="210.036539" y="485.484849" style="fill: #4169e1; fill-opacity: 0.5; stroke: #000000; stroke-opacity: 0.5"/>
     <use xlink:href="#m67f551b65c" x="759.589912" y="303.827115" style="fill: #4169e1; fill-opacity: 0.5; stroke: #000000; stroke-opacity: 0.5"/>
     <use xlink:href="#m67f551b65c" x="438.442884" y="365.734084" style="fill: #4169e1; fill-opacity: 0.5; stroke: #000000; stroke-opacity: 0.5"/>
     <use xlink:href="#m67f551b65c" x="112.007054" y="492.260163" style="fill: #4169e1; fill-opacity: 0.5; stroke: #000000; stroke-opacity: 0.5"/>
     <use xlink:href="#m67f551b65c" x="98.601795" y="504.037229" style="fill: #4169e1; fill-opacity: 0.5; stroke: #000000; stroke-opacity: 0.5"/>
     <use xlink:href="#m67f551b65c" x="585.729881" y="268.495918" style="fill: #4169e1; fill-opacity: 0.5; stroke: #000000; stroke-opacity: 0.5"/>
     <use xlink:href="#m67f551b65c" x="198.400056" y="398.043639" style="fill: #4169e1; fill-opacity: 0.5; stroke: #000000; stroke-opacity: 0.5"/>
     <use xlink:href="#m67f551b65c" x="407.457011" y="339.158311" style="fill: #4169e1; fill-opacity: 0.5; stroke: #000000; stroke-opacity: 0.5"/>
     <use xlink:href="#m67f551b65c" x="718.535961" y="339.158311" style="fill: #4169e1; fill-opacity: 0.5; stroke: #000000; stroke-opacity: 0.5"/>
     <use xlink:href="#m67f551b65c" x="86.805134" y="551.145491" style="fill: #4169e1; fill-opacity: 0.5; stroke: #000000; stroke-opacity: 0.5"/>
     <use xlink:href="#m67f551b65c" x="397.36704" y="280.272984" style="fill: #4169e1; fill-opacity: 0.5; stroke: #000000; stroke-opacity: 0.5"/>
     <use xlink:href="#m67f551b65c" x="354.856032" y="256.718853" style="fill: #4169e1; fill-opacity: 0.5; stroke: #000000; stroke-opacity: 0.5"/>
     <use xlink:href="#m67f551b65c" x="561.129669" y="339.158311" style="fill: #4169e1; fill-opacity: 0.5; stroke: #000000; stroke-opacity: 0.5"/>
     <use xlink:href="#m67f551b65c" x="156.21115" y="480.483098" style="fill: #4169e1; fill-opacity: 0.5; stroke: #000000; stroke-opacity: 0.5"/>
     <use xlink:href="#m67f551b65c" x="648.853599" y="174.279394" style="fill: #4169e1; fill-opacity: 0.5; stroke: #000000; stroke-opacity: 0.5"/>
     <use xlink:href="#m67f551b65c" x="448.771359" y="339.158311" style="fill: #4169e1; fill-opacity: 0.5; stroke: #000000; stroke-opacity: 0.5"/>
     <use xlink:href="#m67f551b65c" x="635.825709" y="339.158311" style="fill: #4169e1; fill-opacity: 0.5; stroke: #000000; stroke-opacity: 0.5"/>
     <use xlink:href="#m67f551b65c" x="502.975664" y="329.364937" style="fill: #4169e1; fill-opacity: 0.5; stroke: #000000; stroke-opacity: 0.5"/>
     <use xlink:href="#m67f551b65c" x="285.621062" y="398.043639" style="fill: #4169e1; fill-opacity: 0.5; stroke: #000000; stroke-opacity: 0.5"/>
     <use xlink:href="#m67f551b65c" x="533.314211" y="244.941787" style="fill: #4169e1; fill-opacity: 0.5; stroke: #000000; stroke-opacity: 0.5"/>
     <use xlink:href="#m67f551b65c" x="462.517505" y="383.954879" style="fill: #4169e1; fill-opacity: 0.5; stroke: #000000; stroke-opacity: 0.5"/>
     <use xlink:href="#m67f551b65c" x="684.279207" y="398.043639" style="fill: #4169e1; fill-opacity: 0.5; stroke: #000000; stroke-opacity: 0.5"/>
     <use xlink:href="#m67f551b65c" x="480.911589" y="315.60418" style="fill: #4169e1; fill-opacity: 0.5; stroke: #000000; stroke-opacity: 0.5"/>
     <use xlink:href="#m67f551b65c" x="278.174558" y="468.706032" style="fill: #4169e1; fill-opacity: 0.5; stroke: #000000; stroke-opacity: 0.5"/>
     <use xlink:href="#m67f551b65c" x="586.90742" y="374.489508" style="fill: #4169e1; fill-opacity: 0.5; stroke: #000000; stroke-opacity: 0.5"/>
     <use xlink:href="#m67f551b65c" x="400.087098" y="327.381246" style="fill: #4169e1; fill-opacity: 0.5; stroke: #000000; stroke-opacity: 0.5"/>
     <use xlink:href="#m67f551b65c" x="213.983888" y="468.706032" style="fill: #4169e1; fill-opacity: 0.5; stroke: #000000; stroke-opacity: 0.5"/>
     <use xlink:href="#m67f551b65c" x="688.156468" y="327.381246" style="fill: #4169e1; fill-opacity: 0.5; stroke: #000000; stroke-opacity: 0.5"/>
     <use xlink:href="#m67f551b65c" x="537.883543" y="256.718853" style="fill: #4169e1; fill-opacity: 0.5; stroke: #000000; stroke-opacity: 0.5"/>
     <use xlink:href="#m67f551b65c" x="588.110677" y="452.028224" style="fill: #4169e1; fill-opacity: 0.5; stroke: #000000; stroke-opacity: 0.5"/>
     <use xlink:href="#m67f551b65c" x="607.466334" y="386.266574" style="fill: #4169e1; fill-opacity: 0.5; stroke: #000000; stroke-opacity: 0.5"/>
     <use xlink:href="#m67f551b65c" x="404.714769" y="386.266574" style="fill: #4169e1; fill-opacity: 0.5; stroke: #000000; stroke-opacity: 0.5"/>
     <use xlink:href="#m67f551b65c" x="572.725671" y="221.387656" style="fill: #4169e1; fill-opacity: 0.5; stroke: #000000; stroke-opacity: 0.5"/>
     <use xlink:href="#m67f551b65c" x="115.444774" y="421.59777" style="fill: #4169e1; fill-opacity: 0.5; stroke: #000000; stroke-opacity: 0.5"/>
     <use xlink:href="#m67f551b65c" x="138.80385" y="362.712443" style="fill: #4169e1; fill-opacity: 0.5; stroke: #000000; stroke-opacity: 0.5"/>
     <use xlink:href="#m67f551b65c" x="530.176144" y="386.266574" style="fill: #4169e1; fill-opacity: 0.5; stroke: #000000; stroke-opacity: 0.5"/>
     <use xlink:href="#m67f551b65c" x="331.111607" y="261.129416" style="fill: #4169e1; fill-opacity: 0.5; stroke: #000000; stroke-opacity: 0.5"/>
     <use xlink:href="#m67f551b65c" x="332.813608" y="386.266574" style="fill: #4169e1; fill-opacity: 0.5; stroke: #000000; stroke-opacity: 0.5"/>
     <use xlink:href="#m67f551b65c" x="763.986436" y="315.60418" style="fill: #4169e1; fill-opacity: 0.5; stroke: #000000; stroke-opacity: 0.5"/>
     <use xlink:href="#m67f551b65c" x="490.461637" y="256.718853" style="fill: #4169e1; fill-opacity: 0.5; stroke: #000000; stroke-opacity: 0.5"/>
     <use xlink:href="#m67f551b65c" x="715.975962" y="303.827115" style="fill: #4169e1; fill-opacity: 0.5; stroke: #000000; stroke-opacity: 0.5"/>
     <use xlink:href="#m67f551b65c" x="179.45297" y="374.489508" style="fill: #4169e1; fill-opacity: 0.5; stroke: #000000; stroke-opacity: 0.5"/>
     <use xlink:href="#m67f551b65c" x="99.544987" y="492.260163" style="fill: #4169e1; fill-opacity: 0.5; stroke: #000000; stroke-opacity: 0.5"/>
     <use xlink:href="#m67f551b65c" x="274.405508" y="527.59136" style="fill: #4169e1; fill-opacity: 0.5; stroke: #000000; stroke-opacity: 0.5"/>
     <use xlink:href="#m67f551b65c" x="340.979578" y="456.928967" style="fill: #4169e1; fill-opacity: 0.5; stroke: #000000; stroke-opacity: 0.5"/>
     <use xlink:href="#m67f551b65c" x="392.28398" y="315.60418" style="fill: #4169e1; fill-opacity: 0.5; stroke: #000000; stroke-opacity: 0.5"/>
     <use xlink:href="#m67f551b65c" x="78.938101" y="468.706032" style="fill: #4169e1; fill-opacity: 0.5; stroke: #000000; stroke-opacity: 0.5"/>
     <use xlink:href="#m67f551b65c" x="600.803152" y="468.01221" style="fill: #4169e1; fill-opacity: 0.5; stroke: #000000; stroke-opacity: 0.5"/>
     <use xlink:href="#m67f551b65c" x="393.680883" y="386.266574" style="fill: #4169e1; fill-opacity: 0.5; stroke: #000000; stroke-opacity: 0.5"/>
     <use xlink:href="#m67f551b65c" x="662.112478" y="256.718853" style="fill: #4169e1; fill-opacity: 0.5; stroke: #000000; stroke-opacity: 0.5"/>
     <use xlink:href="#m67f551b65c" x="545.798792" y="386.266574" style="fill: #4169e1; fill-opacity: 0.5; stroke: #000000; stroke-opacity: 0.5"/>
     <use xlink:href="#m67f551b65c" x="565.270072" y="473.057558" style="fill: #4169e1; fill-opacity: 0.5; stroke: #000000; stroke-opacity: 0.5"/>
     <use xlink:href="#m67f551b65c" x="782.075114" y="315.60418" style="fill: #4169e1; fill-opacity: 0.5; stroke: #000000; stroke-opacity: 0.5"/>
     <use xlink:href="#m67f551b65c" x="571.961939" y="280.272984" style="fill: #4169e1; fill-opacity: 0.5; stroke: #000000; stroke-opacity: 0.5"/>
     <use xlink:href="#m67f551b65c" x="418.082615" y="221.387656" style="fill: #4169e1; fill-opacity: 0.5; stroke: #000000; stroke-opacity: 0.5"/>
     <use xlink:href="#m67f551b65c" x="566.221231" y="545.25627" style="fill: #4169e1; fill-opacity: 0.5; stroke: #000000; stroke-opacity: 0.5"/>
     <use xlink:href="#m67f551b65c" x="232.321409" y="532.426474" style="fill: #4169e1; fill-opacity: 0.5; stroke: #000000; stroke-opacity: 0.5"/>
    </g>
   </g>
   <g id="PathCollection_2">
    <defs>
     <path id="mb7253173cd" d="M 0 3 
C 0.795609 3 1.55874 2.683901 2.12132 2.12132 
C 2.683901 1.55874 3 0.795609 3 0 
C 3 -0.795609 2.683901 -1.55874 2.12132 -2.12132 
C 1.55874 -2.683901 0.795609 -3 0 -3 
C -0.795609 -3 -1.55874 -2.683901 -2.12132 -2.12132 
C -2.683901 -1.55874 -3 -0.795609 -3 0 
C -3 0.795609 -2.683901 1.55874 -2.12132 2.12132 
C -1.55874 2.683901 -0.795609 3 0 3 
z
" style="stroke: #000000; stroke-opacity: 0.5"/>
    </defs>
    <g clip-path="url(#p9fe879c6f0)">
     <use xlink:href="#mb7253173cd" x="247.712661" y="437.267537" style="fill: #ff8c00; fill-opacity: 0.5; stroke: #000000; stroke-opacity: 0.5"/>
     <use xlink:href="#mb7253173cd" x="467.131046" y="373.14246" style="fill: #ff8c00; fill-opacity: 0.5; stroke: #000000; stroke-opacity: 0.5"/>
     <use xlink:href="#mb7253173cd" x="438.029454" y="373.14246" style="fill: #ff8c00; fill-opacity: 0.5; stroke: #000000; stroke-opacity: 0.5"/>
     <use xlink:href="#mb7253173cd" x="157.380596" y="383.829973" style="fill: #ff8c00; fill-opacity: 0.5; stroke: #000000; stroke-opacity: 0.5"/>
     <use xlink:href="#mb7253173cd" x="709.075323" y="383.829973" style="fill: #ff8c00; fill-opacity: 0.5; stroke: #000000; stroke-opacity: 0.5"/>
     <use xlink:href="#mb7253173cd" x="315.201999" y="362.454947" style="fill: #ff8c00; fill-opacity: 0.5; stroke: #000000; stroke-opacity: 0.5"/>
     <use xlink:href="#mb7253173cd" x="165.737569" y="319.704896" style="fill: #ff8c00; fill-opacity: 0.5; stroke: #000000; stroke-opacity: 0.5"/>
     <use xlink:href="#mb7253173cd" x="373.648641" y="341.079921" style="fill: #ff8c00; fill-opacity: 0.5; stroke: #000000; stroke-opacity: 0.5"/>
     <use xlink:href="#mb7253173cd" x="656.616993" y="394.517485" style="fill: #ff8c00; fill-opacity: 0.5; stroke: #000000; stroke-opacity: 0.5"/>
     <use xlink:href="#mb7253173cd" x="241.103921" y="488.961743" style="fill: #ff8c00; fill-opacity: 0.5; stroke: #000000; stroke-opacity: 0.5"/>
     <use xlink:href="#mb7253173cd" x="210.036539" y="495.187643" style="fill: #ff8c00; fill-opacity: 0.5; stroke: #000000; stroke-opacity: 0.5"/>
     <use xlink:href="#mb7253173cd" x="759.589912" y="383.829973" style="fill: #ff8c00; fill-opacity: 0.5; stroke: #000000; stroke-opacity: 0.5"/>
     <use xlink:href="#mb7253173cd" x="438.442884" y="457.635602" style="fill: #ff8c00; fill-opacity: 0.5; stroke: #000000; stroke-opacity: 0.5"/>
     <use xlink:href="#mb7253173cd" x="112.007054" y="522.767639" style="fill: #ff8c00; fill-opacity: 0.5; stroke: #000000; stroke-opacity: 0.5"/>
     <use xlink:href="#mb7253173cd" x="98.601795" y="447.95505" style="fill: #ff8c00; fill-opacity: 0.5; stroke: #000000; stroke-opacity: 0.5"/>
     <use xlink:href="#mb7253173cd" x="585.729881" y="319.704896" style="fill: #ff8c00; fill-opacity: 0.5; stroke: #000000; stroke-opacity: 0.5"/>
     <use xlink:href="#mb7253173cd" x="198.400056" y="383.829973" style="fill: #ff8c00; fill-opacity: 0.5; stroke: #000000; stroke-opacity: 0.5"/>
     <use xlink:href="#mb7253173cd" x="407.457011" y="394.517485" style="fill: #ff8c00; fill-opacity: 0.5; stroke: #000000; stroke-opacity: 0.5"/>
     <use xlink:href="#mb7253173cd" x="718.535961" y="383.829973" style="fill: #ff8c00; fill-opacity: 0.5; stroke: #000000; stroke-opacity: 0.5"/>
     <use xlink:href="#mb7253173cd" x="86.805134" y="415.892511" style="fill: #ff8c00; fill-opacity: 0.5; stroke: #000000; stroke-opacity: 0.5"/>
     <use xlink:href="#mb7253173cd" x="397.36704" y="298.32987" style="fill: #ff8c00; fill-opacity: 0.5; stroke: #000000; stroke-opacity: 0.5"/>
     <use xlink:href="#mb7253173cd" x="354.856032" y="255.579819" style="fill: #ff8c00; fill-opacity: 0.5; stroke: #000000; stroke-opacity: 0.5"/>
     <use xlink:href="#mb7253173cd" x="561.129669" y="426.580024" style="fill: #ff8c00; fill-opacity: 0.5; stroke: #000000; stroke-opacity: 0.5"/>
     <use xlink:href="#mb7253173cd" x="156.21115" y="405.204998" style="fill: #ff8c00; fill-opacity: 0.5; stroke: #000000; stroke-opacity: 0.5"/>
     <use xlink:href="#mb7253173cd" x="648.853599" y="266.267331" style="fill: #ff8c00; fill-opacity: 0.5; stroke: #000000; stroke-opacity: 0.5"/>
     <use xlink:href="#mb7253173cd" x="448.771359" y="415.892511" style="fill: #ff8c00; fill-opacity: 0.5; stroke: #000000; stroke-opacity: 0.5"/>
     <use xlink:href="#mb7253173cd" x="635.825709" y="426.580024" style="fill: #ff8c00; fill-opacity: 0.5; stroke: #000000; stroke-opacity: 0.5"/>
     <use xlink:href="#mb7253173cd" x="502.975664" y="418.034232" style="fill: #ff8c00; fill-opacity: 0.5; stroke: #000000; stroke-opacity: 0.5"/>
     <use xlink:href="#mb7253173cd" x="285.621062" y="373.14246" style="fill: #ff8c00; fill-opacity: 0.5; stroke: #000000; stroke-opacity: 0.5"/>
     <use xlink:href="#mb7253173cd" x="533.314211" y="341.079921" style="fill: #ff8c00; fill-opacity: 0.5; stroke: #000000; stroke-opacity: 0.5"/>
     <use xlink:href="#mb7253173cd" x="462.517505" y="435.226406" style="fill: #ff8c00; fill-opacity: 0.5; stroke: #000000; stroke-opacity: 0.5"/>
     <use xlink:href="#mb7253173cd" x="684.279207" y="415.892511" style="fill: #ff8c00; fill-opacity: 0.5; stroke: #000000; stroke-opacity: 0.5"/>
     <use xlink:href="#mb7253173cd" x="480.911589" y="405.204998" style="fill: #ff8c00; fill-opacity: 0.5; stroke: #000000; stroke-opacity: 0.5"/>
     <use xlink:href="#mb7253173cd" x="278.174558" y="405.204998" style="fill: #ff8c00; fill-opacity: 0.5; stroke: #000000; stroke-opacity: 0.5"/>
     <use xlink:href="#mb7253173cd" x="586.90742" y="437.267537" style="fill: #ff8c00; fill-opacity: 0.5; stroke: #000000; stroke-opacity: 0.5"/>
     <use xlink:href="#mb7253173cd" x="400.087098" y="330.392408" style="fill: #ff8c00; fill-opacity: 0.5; stroke: #000000; stroke-opacity: 0.5"/>
     <use xlink:href="#mb7253173cd" x="213.983888" y="447.95505" style="fill: #ff8c00; fill-opacity: 0.5; stroke: #000000; stroke-opacity: 0.5"/>
     <use xlink:href="#mb7253173cd" x="688.156468" y="394.517485" style="fill: #ff8c00; fill-opacity: 0.5; stroke: #000000; stroke-opacity: 0.5"/>
     <use xlink:href="#mb7253173cd" x="537.883543" y="341.079921" style="fill: #ff8c00; fill-opacity: 0.5; stroke: #000000; stroke-opacity: 0.5"/>
     <use xlink:href="#mb7253173cd" x="588.110677" y="551.243604" style="fill: #ff8c00; fill-opacity: 0.5; stroke: #000000; stroke-opacity: 0.5"/>
     <use xlink:href="#mb7253173cd" x="607.466334" y="426.580024" style="fill: #ff8c00; fill-opacity: 0.5; stroke: #000000; stroke-opacity: 0.5"/>
     <use xlink:href="#mb7253173cd" x="404.714769" y="373.14246" style="fill: #ff8c00; fill-opacity: 0.5; stroke: #000000; stroke-opacity: 0.5"/>
     <use xlink:href="#mb7253173cd" x="572.725671" y="319.704896" style="fill: #ff8c00; fill-opacity: 0.5; stroke: #000000; stroke-opacity: 0.5"/>
     <use xlink:href="#mb7253173cd" x="115.444774" y="490.705101" style="fill: #ff8c00; fill-opacity: 0.5; stroke: #000000; stroke-opacity: 0.5"/>
     <use xlink:href="#mb7253173cd" x="138.80385" y="287.642357" style="fill: #ff8c00; fill-opacity: 0.5; stroke: #000000; stroke-opacity: 0.5"/>
     <use xlink:href="#mb7253173cd" x="530.176144" y="469.330075" style="fill: #ff8c00; fill-opacity: 0.5; stroke: #000000; stroke-opacity: 0.5"/>
     <use xlink:href="#mb7253173cd" x="331.111607" y="248.725407" style="fill: #ff8c00; fill-opacity: 0.5; stroke: #000000; stroke-opacity: 0.5"/>
     <use xlink:href="#mb7253173cd" x="332.813608" y="351.767434" style="fill: #ff8c00; fill-opacity: 0.5; stroke: #000000; stroke-opacity: 0.5"/>
     <use xlink:href="#mb7253173cd" x="763.986436" y="415.892511" style="fill: #ff8c00; fill-opacity: 0.5; stroke: #000000; stroke-opacity: 0.5"/>
     <use xlink:href="#mb7253173cd" x="490.461637" y="341.079921" style="fill: #ff8c00; fill-opacity: 0.5; stroke: #000000; stroke-opacity: 0.5"/>
     <use xlink:href="#mb7253173cd" x="715.975962" y="405.204998" style="fill: #ff8c00; fill-opacity: 0.5; stroke: #000000; stroke-opacity: 0.5"/>
     <use xlink:href="#mb7253173cd" x="179.45297" y="298.32987" style="fill: #ff8c00; fill-opacity: 0.5; stroke: #000000; stroke-opacity: 0.5"/>
     <use xlink:href="#mb7253173cd" x="99.544987" y="512.080127" style="fill: #ff8c00; fill-opacity: 0.5; stroke: #000000; stroke-opacity: 0.5"/>
     <use xlink:href="#mb7253173cd" x="274.405508" y="458.642562" style="fill: #ff8c00; fill-opacity: 0.5; stroke: #000000; stroke-opacity: 0.5"/>
     <use xlink:href="#mb7253173cd" x="340.979578" y="394.517485" style="fill: #ff8c00; fill-opacity: 0.5; stroke: #000000; stroke-opacity: 0.5"/>
     <use xlink:href="#mb7253173cd" x="392.28398" y="309.017383" style="fill: #ff8c00; fill-opacity: 0.5; stroke: #000000; stroke-opacity: 0.5"/>
     <use xlink:href="#mb7253173cd" x="78.938101" y="490.705101" style="fill: #ff8c00; fill-opacity: 0.5; stroke: #000000; stroke-opacity: 0.5"/>
     <use xlink:href="#mb7253173cd" x="600.803152" y="620.552987" style="fill: #ff8c00; fill-opacity: 0.5; stroke: #000000; stroke-opacity: 0.5"/>
     <use xlink:href="#mb7253173cd" x="393.680883" y="373.14246" style="fill: #ff8c00; fill-opacity: 0.5; stroke: #000000; stroke-opacity: 0.5"/>
     <use xlink:href="#mb7253173cd" x="662.112478" y="351.767434" style="fill: #ff8c00; fill-opacity: 0.5; stroke: #000000; stroke-opacity: 0.5"/>
     <use xlink:href="#mb7253173cd" x="545.798792" y="469.330075" style="fill: #ff8c00; fill-opacity: 0.5; stroke: #000000; stroke-opacity: 0.5"/>
     <use xlink:href="#mb7253173cd" x="565.270072" y="543.561129" style="fill: #ff8c00; fill-opacity: 0.5; stroke: #000000; stroke-opacity: 0.5"/>
     <use xlink:href="#mb7253173cd" x="782.075114" y="405.204998" style="fill: #ff8c00; fill-opacity: 0.5; stroke: #000000; stroke-opacity: 0.5"/>
     <use xlink:href="#mb7253173cd" x="571.961939" y="351.767434" style="fill: #ff8c00; fill-opacity: 0.5; stroke: #000000; stroke-opacity: 0.5"/>
     <use xlink:href="#mb7253173cd" x="418.082615" y="276.954844" style="fill: #ff8c00; fill-opacity: 0.5; stroke: #000000; stroke-opacity: 0.5"/>
     <use xlink:href="#mb7253173cd" x="566.221231" y="614.540331" style="fill: #ff8c00; fill-opacity: 0.5; stroke: #000000; stroke-opacity: 0.5"/>
     <use xlink:href="#mb7253173cd" x="232.321409" y="389.492956" style="fill: #ff8c00; fill-opacity: 0.5; stroke: #000000; stroke-opacity: 0.5"/>
    </g>
   </g>
   <g id="PolyCollection_1">
    <path d="M 78.938101 434.813112 
L 78.938101 497.30451 
L 86.040495 494.92556 
L 93.142889 492.53023 
L 100.245283 489.887166 
L 107.347677 487.176585 
L 114.450071 484.465844 
L 121.552465 481.833434 
L 128.654859 479.507513 
L 135.757253 477.267751 
L 142.859647 474.842215 
L 149.962041 472.320733 
L 157.064435 470.09632 
L 164.166829 467.538534 
L 171.269224 465.262655 
L 178.371618 462.960387 
L 185.474012 460.836037 
L 192.576406 458.621119 
L 199.6788 456.410808 
L 206.781194 453.884671 
L 213.883588 451.586093 
L 220.985982 449.407343 
L 228.088376 447.048704 
L 235.19077 445.044481 
L 242.293164 442.674238 
L 249.395558 440.221043 
L 256.497952 437.927943 
L 263.600346 435.734146 
L 270.702741 433.499556 
L 277.805135 431.292429 
L 284.907529 429.052103 
L 292.009923 426.80967 
L 299.112317 424.772243 
L 306.214711 422.580546 
L 313.317105 420.512026 
L 320.419499 418.369796 
L 327.521893 416.461072 
L 334.624287 414.416544 
L 341.726681 412.426738 
L 348.829075 410.492594 
L 355.931469 408.739349 
L 363.033863 406.772494 
L 370.136258 404.821233 
L 377.238652 403.017819 
L 384.341046 400.883252 
L 391.44344 398.963849 
L 398.545834 397.086337 
L 405.648228 395.118308 
L 412.750622 393.193591 
L 419.853016 391.201011 
L 426.95541 389.336779 
L 434.057804 387.42674 
L 441.160198 385.50606 
L 448.262592 383.684326 
L 455.364986 381.891782 
L 462.46738 380.348775 
L 469.569775 378.649221 
L 476.672169 377.04298 
L 483.774563 375.468739 
L 490.876957 373.938268 
L 497.979351 372.368549 
L 505.081745 370.536412 
L 512.184139 368.703022 
L 519.286533 366.970757 
L 526.388927 365.123536 
L 533.491321 363.387938 
L 540.593715 361.810543 
L 547.696109 360.166395 
L 554.798503 358.468325 
L 561.900897 356.765827 
L 569.003292 355.069559 
L 576.105686 353.582197 
L 583.20808 352.210259 
L 590.310474 350.768039 
L 597.412868 349.22356 
L 604.515262 347.64565 
L 611.617656 346.079343 
L 618.72005 344.542671 
L 625.822444 342.945775 
L 632.924838 341.60132 
L 640.027232 340.024117 
L 647.129626 338.575251 
L 654.23202 337.132264 
L 661.334414 335.723005 
L 668.436809 334.24629 
L 675.539203 332.78355 
L 682.641597 331.363224 
L 689.743991 329.997618 
L 696.846385 328.577254 
L 703.948779 327.280694 
L 711.051173 325.925027 
L 718.153567 324.160387 
L 725.255961 322.720193 
L 732.358355 321.279998 
L 739.460749 319.839804 
L 746.563143 318.423859 
L 753.665537 317.123344 
L 760.767931 316.058436 
L 767.870325 314.660217 
L 774.97272 313.500229 
L 782.075114 311.934376 
L 782.075114 238.175029 
L 782.075114 238.175029 
L 774.97272 240.648632 
L 767.870325 243.122236 
L 760.767931 245.598158 
L 753.665537 248.074566 
L 746.563143 250.474491 
L 739.460749 252.746427 
L 732.358355 255.113178 
L 725.255961 257.678307 
L 718.153567 259.988844 
L 711.051173 262.407139 
L 703.948779 264.735788 
L 696.846385 267.355721 
L 689.743991 269.738622 
L 682.641597 272.122526 
L 675.539203 274.506429 
L 668.436809 276.890333 
L 661.334414 279.274237 
L 654.23202 281.658141 
L 647.129626 284.039431 
L 640.027232 286.416947 
L 632.924838 288.688888 
L 625.822444 290.675874 
L 618.72005 292.847524 
L 611.617656 295.439142 
L 604.515262 297.833917 
L 597.412868 300.34103 
L 590.310474 302.917329 
L 583.20808 305.474997 
L 576.105686 307.868875 
L 569.003292 310.373951 
L 561.900897 312.620906 
L 554.798503 315.000279 
L 547.696109 317.112411 
L 540.593715 319.276813 
L 533.491321 321.471719 
L 526.388927 323.504345 
L 519.286533 325.719461 
L 512.184139 328.12841 
L 505.081745 330.540234 
L 497.979351 332.705006 
L 490.876957 334.687216 
L 483.774563 336.673667 
L 476.672169 338.95981 
L 469.569775 341.243771 
L 462.46738 342.900312 
L 455.364986 344.827471 
L 448.262592 347.030163 
L 441.160198 348.828798 
L 434.057804 350.876553 
L 426.95541 353.121346 
L 419.853016 355.318848 
L 412.750622 357.159021 
L 405.648228 359.686017 
L 398.545834 361.432816 
L 391.44344 363.690578 
L 384.341046 365.585116 
L 377.238652 367.694616 
L 370.136258 369.665225 
L 363.033863 371.449538 
L 355.931469 373.536041 
L 348.829075 375.389477 
L 341.726681 377.225926 
L 334.624287 378.93178 
L 327.521893 380.695202 
L 320.419499 382.429827 
L 313.317105 384.134109 
L 306.214711 386.153395 
L 299.112317 387.773651 
L 292.009923 389.300165 
L 284.907529 391.239881 
L 277.805135 392.547838 
L 270.702741 393.884358 
L 263.600346 395.40762 
L 256.497952 396.93726 
L 249.395558 398.517307 
L 242.293164 400.149698 
L 235.19077 401.586901 
L 228.088376 403.22135 
L 220.985982 404.917224 
L 213.883588 406.368631 
L 206.781194 407.957363 
L 199.6788 409.553658 
L 192.576406 411.152057 
L 185.474012 412.743489 
L 178.371618 414.333532 
L 171.269224 415.818687 
L 164.166829 417.278352 
L 157.064435 418.738657 
L 149.962041 420.199454 
L 142.859647 421.561452 
L 135.757253 422.904439 
L 128.654859 424.425489 
L 121.552465 425.868805 
L 114.450071 427.356535 
L 107.347677 428.966112 
L 100.245283 430.426643 
L 93.142889 431.870637 
L 86.040495 433.319188 
L 78.938101 434.813112 
z
" clip-path="url(#p9fe879c6f0)" style="fill: #1f77b4; fill-opacity: 0.15"/>
   </g>
   <g id="PolyCollection_2">
    <path d="M 78.938101 364.275926 
L 78.938101 436.264184 
L 86.040495 435.818306 
L 93.142889 435.630002 
L 100.245283 434.965142 
L 107.347677 434.284258 
L 114.450071 433.659592 
L 121.552465 433.164095 
L 128.654859 432.657703 
L 135.757253 432.151312 
L 142.859647 431.64492 
L 149.962041 431.138528 
L 157.064435 431.047365 
L 164.166829 430.99197 
L 171.269224 430.799416 
L 178.371618 430.150312 
L 185.474012 429.763618 
L 192.576406 429.60204 
L 199.6788 429.440462 
L 206.781194 429.284416 
L 213.883588 428.922828 
L 220.985982 428.489313 
L 228.088376 428.062197 
L 235.19077 427.647807 
L 242.293164 427.233096 
L 249.395558 426.808132 
L 256.497952 426.378856 
L 263.600346 425.949581 
L 270.702741 425.349745 
L 277.805135 424.916897 
L 284.907529 424.564526 
L 292.009923 424.265334 
L 299.112317 423.955311 
L 306.214711 423.622461 
L 313.317105 423.298456 
L 320.419499 422.978893 
L 327.521893 422.658512 
L 334.624287 422.404949 
L 341.726681 422.015571 
L 348.829075 421.734535 
L 355.931469 421.91041 
L 363.033863 421.784371 
L 370.136258 421.952732 
L 377.238652 421.852451 
L 384.341046 421.884748 
L 391.44344 421.804213 
L 398.545834 421.727401 
L 405.648228 421.638444 
L 412.750622 421.296268 
L 419.853016 421.033167 
L 426.95541 420.860533 
L 434.057804 420.687898 
L 441.160198 420.594651 
L 448.262592 420.764145 
L 455.364986 421.075491 
L 462.46738 421.043712 
L 469.569775 421.454748 
L 476.672169 421.49428 
L 483.774563 421.566055 
L 490.876957 421.708795 
L 497.979351 421.643031 
L 505.081745 421.505249 
L 512.184139 421.259449 
L 519.286533 421.182207 
L 526.388927 421.075328 
L 533.491321 421.540467 
L 540.593715 422.002853 
L 547.696109 421.998223 
L 554.798503 422.383945 
L 561.900897 422.255918 
L 569.003292 422.479449 
L 576.105686 422.877984 
L 583.20808 423.031534 
L 590.310474 423.528408 
L 597.412868 424.051474 
L 604.515262 424.69858 
L 611.617656 425.078421 
L 618.72005 425.866468 
L 625.822444 425.989396 
L 632.924838 426.469732 
L 640.027232 426.580971 
L 647.129626 426.550372 
L 654.23202 426.919978 
L 661.334414 427.415846 
L 668.436809 427.904503 
L 675.539203 428.332814 
L 682.641597 428.853682 
L 689.743991 429.374551 
L 696.846385 429.912587 
L 703.948779 430.409266 
L 711.051173 430.911951 
L 718.153567 430.956238 
L 725.255961 431.109144 
L 732.358355 431.603045 
L 739.460749 432.096946 
L 746.563143 432.554753 
L 753.665537 433.098156 
L 760.767931 433.786065 
L 767.870325 434.108852 
L 774.97272 434.6142 
L 782.075114 435.113276 
L 782.075114 361.956815 
L 782.075114 361.956815 
L 774.97272 362.33307 
L 767.870325 362.716968 
L 760.767931 363.101136 
L 753.665537 363.829709 
L 746.563143 364.399482 
L 739.460749 365.053311 
L 732.358355 365.718598 
L 725.255961 366.123359 
L 718.153567 366.687963 
L 711.051173 367.172663 
L 703.948779 367.790667 
L 696.846385 368.495388 
L 689.743991 369.200741 
L 682.641597 369.894198 
L 675.539203 370.601685 
L 668.436809 371.238991 
L 661.334414 371.511523 
L 654.23202 371.784055 
L 647.129626 372.452833 
L 640.027232 373.023891 
L 632.924838 373.382605 
L 625.822444 373.618587 
L 618.72005 373.948075 
L 611.617656 374.277564 
L 604.515262 374.607052 
L 597.412868 374.942061 
L 590.310474 375.21388 
L 583.20808 375.606727 
L 576.105686 375.946395 
L 569.003292 376.420835 
L 561.900897 376.646831 
L 554.798503 377.238082 
L 547.696109 377.637838 
L 540.593715 377.988939 
L 533.491321 378.133486 
L 526.388927 378.291311 
L 519.286533 378.424823 
L 512.184139 378.819795 
L 505.081745 379.01787 
L 497.979351 379.474629 
L 490.876957 379.886774 
L 483.774563 380.017633 
L 476.672169 380.231072 
L 469.569775 380.605118 
L 462.46738 380.994109 
L 455.364986 381.401927 
L 448.262592 381.802885 
L 441.160198 381.682016 
L 434.057804 381.779267 
L 426.95541 381.747241 
L 419.853016 381.684991 
L 412.750622 381.707471 
L 405.648228 381.682075 
L 398.545834 381.605097 
L 391.44344 381.363618 
L 384.341046 381.123956 
L 377.238652 380.881401 
L 370.136258 380.807013 
L 363.033863 380.400585 
L 355.931469 380.39692 
L 348.829075 380.619088 
L 341.726681 380.572396 
L 334.624287 380.655579 
L 327.521893 380.46895 
L 320.419499 380.054445 
L 313.317105 379.591305 
L 306.214711 379.151122 
L 299.112317 378.81093 
L 292.009923 378.396425 
L 284.907529 377.98192 
L 277.805135 377.563226 
L 270.702741 377.152911 
L 263.600346 376.738406 
L 256.497952 376.323901 
L 249.395558 375.909396 
L 242.293164 375.496793 
L 235.19077 375.444891 
L 228.088376 374.912993 
L 220.985982 374.287286 
L 213.883588 373.836871 
L 206.781194 373.422366 
L 199.6788 372.933566 
L 192.576406 372.561545 
L 185.474012 372.007439 
L 178.371618 371.578888 
L 171.269224 371.162168 
L 164.166829 370.70029 
L 157.064435 370.299263 
L 149.962041 369.718687 
L 142.859647 369.284112 
L 135.757253 369.055703 
L 128.654859 368.633718 
L 121.552465 368.176879 
L 114.450071 367.52606 
L 107.347677 366.875241 
L 100.245283 366.224422 
L 93.142889 365.573604 
L 86.040495 364.922785 
L 78.938101 364.275926 
z
" clip-path="url(#p9fe879c6f0)" style="fill: #ff7f0e; fill-opacity: 0.15"/>
   </g>
   <g id="matplotlib.axis_1">
    <g id="xtick_1">
     <g id="line2d_1">
      <defs>
       <path id="m6762443168" d="M 0 0 
L 0 3.5 
" style="stroke: #000000; stroke-width: 0.8"/>
      </defs>
      <g>
       <use xlink:href="#m6762443168" x="56.567963" y="642.866667" style="stroke: #000000; stroke-width: 0.8"/>
      </g>
     </g>
     <g id="text_1">
      <!-- 0.30 -->
      <g transform="translate(45.43515 657.465104) scale(0.1 -0.1)">
       <defs>
        <path id="DejaVuSans-30" d="M 2034 4250 
Q 1547 4250 1301 3770 
Q 1056 3291 1056 2328 
Q 1056 1369 1301 889 
Q 1547 409 2034 409 
Q 2525 409 2770 889 
Q 3016 1369 3016 2328 
Q 3016 3291 2770 3770 
Q 2525 4250 2034 4250 
z
M 2034 4750 
Q 2819 4750 3233 4129 
Q 3647 3509 3647 2328 
Q 3647 1150 3233 529 
Q 2819 -91 2034 -91 
Q 1250 -91 836 529 
Q 422 1150 422 2328 
Q 422 3509 836 4129 
Q 1250 4750 2034 4750 
z
" transform="scale(0.015625)"/>
        <path id="DejaVuSans-2e" d="M 684 794 
L 1344 794 
L 1344 0 
L 684 0 
L 684 794 
z
" transform="scale(0.015625)"/>
        <path id="DejaVuSans-33" d="M 2597 2516 
Q 3050 2419 3304 2112 
Q 3559 1806 3559 1356 
Q 3559 666 3084 287 
Q 2609 -91 1734 -91 
Q 1441 -91 1130 -33 
Q 819 25 488 141 
L 488 750 
Q 750 597 1062 519 
Q 1375 441 1716 441 
Q 2309 441 2620 675 
Q 2931 909 2931 1356 
Q 2931 1769 2642 2001 
Q 2353 2234 1838 2234 
L 1294 2234 
L 1294 2753 
L 1863 2753 
Q 2328 2753 2575 2939 
Q 2822 3125 2822 3475 
Q 2822 3834 2567 4026 
Q 2313 4219 1838 4219 
Q 1578 4219 1281 4162 
Q 984 4106 628 3988 
L 628 4550 
Q 988 4650 1302 4700 
Q 1616 4750 1894 4750 
Q 2613 4750 3031 4423 
Q 3450 4097 3450 3541 
Q 3450 3153 3228 2886 
Q 3006 2619 2597 2516 
z
" transform="scale(0.015625)"/>
       </defs>
       <use xlink:href="#DejaVuSans-30"/>
       <use xlink:href="#DejaVuSans-2e" x="63.623047"/>
       <use xlink:href="#DejaVuSans-33" x="95.410156"/>
       <use xlink:href="#DejaVuSans-30" x="159.033203"/>
      </g>
     </g>
    </g>
    <g id="xtick_2">
     <g id="line2d_2">
      <g>
       <use xlink:href="#m6762443168" x="150.809588" y="642.866667" style="stroke: #000000; stroke-width: 0.8"/>
      </g>
     </g>
     <g id="text_2">
      <!-- 0.35 -->
      <g transform="translate(139.676776 657.465104) scale(0.1 -0.1)">
       <defs>
        <path id="DejaVuSans-35" d="M 691 4666 
L 3169 4666 
L 3169 4134 
L 1269 4134 
L 1269 2991 
Q 1406 3038 1543 3061 
Q 1681 3084 1819 3084 
Q 2600 3084 3056 2656 
Q 3513 2228 3513 1497 
Q 3513 744 3044 326 
Q 2575 -91 1722 -91 
Q 1428 -91 1123 -41 
Q 819 9 494 109 
L 494 744 
Q 775 591 1075 516 
Q 1375 441 1709 441 
Q 2250 441 2565 725 
Q 2881 1009 2881 1497 
Q 2881 1984 2565 2268 
Q 2250 2553 1709 2553 
Q 1456 2553 1204 2497 
Q 953 2441 691 2322 
L 691 4666 
z
" transform="scale(0.015625)"/>
       </defs>
       <use xlink:href="#DejaVuSans-30"/>
       <use xlink:href="#DejaVuSans-2e" x="63.623047"/>
       <use xlink:href="#DejaVuSans-33" x="95.410156"/>
       <use xlink:href="#DejaVuSans-35" x="159.033203"/>
      </g>
     </g>
    </g>
    <g id="xtick_3">
     <g id="line2d_3">
      <g>
       <use xlink:href="#m6762443168" x="245.051214" y="642.866667" style="stroke: #000000; stroke-width: 0.8"/>
      </g>
     </g>
     <g id="text_3">
      <!-- 0.40 -->
      <g transform="translate(233.918402 657.465104) scale(0.1 -0.1)">
       <defs>
        <path id="DejaVuSans-34" d="M 2419 4116 
L 825 1625 
L 2419 1625 
L 2419 4116 
z
M 2253 4666 
L 3047 4666 
L 3047 1625 
L 3713 1625 
L 3713 1100 
L 3047 1100 
L 3047 0 
L 2419 0 
L 2419 1100 
L 313 1100 
L 313 1709 
L 2253 4666 
z
" transform="scale(0.015625)"/>
       </defs>
       <use xlink:href="#DejaVuSans-30"/>
       <use xlink:href="#DejaVuSans-2e" x="63.623047"/>
       <use xlink:href="#DejaVuSans-34" x="95.410156"/>
       <use xlink:href="#DejaVuSans-30" x="159.033203"/>
      </g>
     </g>
    </g>
    <g id="xtick_4">
     <g id="line2d_4">
      <g>
       <use xlink:href="#m6762443168" x="339.29284" y="642.866667" style="stroke: #000000; stroke-width: 0.8"/>
      </g>
     </g>
     <g id="text_4">
      <!-- 0.45 -->
      <g transform="translate(328.160027 657.465104) scale(0.1 -0.1)">
       <use xlink:href="#DejaVuSans-30"/>
       <use xlink:href="#DejaVuSans-2e" x="63.623047"/>
       <use xlink:href="#DejaVuSans-34" x="95.410156"/>
       <use xlink:href="#DejaVuSans-35" x="159.033203"/>
      </g>
     </g>
    </g>
    <g id="xtick_5">
     <g id="line2d_5">
      <g>
       <use xlink:href="#m6762443168" x="433.534466" y="642.866667" style="stroke: #000000; stroke-width: 0.8"/>
      </g>
     </g>
     <g id="text_5">
      <!-- 0.50 -->
      <g transform="translate(422.401653 657.465104) scale(0.1 -0.1)">
       <use xlink:href="#DejaVuSans-30"/>
       <use xlink:href="#DejaVuSans-2e" x="63.623047"/>
       <use xlink:href="#DejaVuSans-35" x="95.410156"/>
       <use xlink:href="#DejaVuSans-30" x="159.033203"/>
      </g>
     </g>
    </g>
    <g id="xtick_6">
     <g id="line2d_6">
      <g>
       <use xlink:href="#m6762443168" x="527.776091" y="642.866667" style="stroke: #000000; stroke-width: 0.8"/>
      </g>
     </g>
     <g id="text_6">
      <!-- 0.55 -->
      <g transform="translate(516.643279 657.465104) scale(0.1 -0.1)">
       <use xlink:href="#DejaVuSans-30"/>
       <use xlink:href="#DejaVuSans-2e" x="63.623047"/>
       <use xlink:href="#DejaVuSans-35" x="95.410156"/>
       <use xlink:href="#DejaVuSans-35" x="159.033203"/>
      </g>
     </g>
    </g>
    <g id="xtick_7">
     <g id="line2d_7">
      <g>
       <use xlink:href="#m6762443168" x="622.017717" y="642.866667" style="stroke: #000000; stroke-width: 0.8"/>
      </g>
     </g>
     <g id="text_7">
      <!-- 0.60 -->
      <g transform="translate(610.884905 657.465104) scale(0.1 -0.1)">
       <defs>
        <path id="DejaVuSans-36" d="M 2113 2584 
Q 1688 2584 1439 2293 
Q 1191 2003 1191 1497 
Q 1191 994 1439 701 
Q 1688 409 2113 409 
Q 2538 409 2786 701 
Q 3034 994 3034 1497 
Q 3034 2003 2786 2293 
Q 2538 2584 2113 2584 
z
M 3366 4563 
L 3366 3988 
Q 3128 4100 2886 4159 
Q 2644 4219 2406 4219 
Q 1781 4219 1451 3797 
Q 1122 3375 1075 2522 
Q 1259 2794 1537 2939 
Q 1816 3084 2150 3084 
Q 2853 3084 3261 2657 
Q 3669 2231 3669 1497 
Q 3669 778 3244 343 
Q 2819 -91 2113 -91 
Q 1303 -91 875 529 
Q 447 1150 447 2328 
Q 447 3434 972 4092 
Q 1497 4750 2381 4750 
Q 2619 4750 2861 4703 
Q 3103 4656 3366 4563 
z
" transform="scale(0.015625)"/>
       </defs>
       <use xlink:href="#DejaVuSans-30"/>
       <use xlink:href="#DejaVuSans-2e" x="63.623047"/>
       <use xlink:href="#DejaVuSans-36" x="95.410156"/>
       <use xlink:href="#DejaVuSans-30" x="159.033203"/>
      </g>
     </g>
    </g>
    <g id="xtick_8">
     <g id="line2d_8">
      <g>
       <use xlink:href="#m6762443168" x="716.259343" y="642.866667" style="stroke: #000000; stroke-width: 0.8"/>
      </g>
     </g>
     <g id="text_8">
      <!-- 0.65 -->
      <g transform="translate(705.126531 657.465104) scale(0.1 -0.1)">
       <use xlink:href="#DejaVuSans-30"/>
       <use xlink:href="#DejaVuSans-2e" x="63.623047"/>
       <use xlink:href="#DejaVuSans-36" x="95.410156"/>
       <use xlink:href="#DejaVuSans-35" x="159.033203"/>
      </g>
     </g>
    </g>
    <g id="xtick_9">
     <g id="line2d_9">
      <g>
       <use xlink:href="#m6762443168" x="810.500969" y="642.866667" style="stroke: #000000; stroke-width: 0.8"/>
      </g>
     </g>
     <g id="text_9">
      <!-- 0.70 -->
      <g transform="translate(799.368156 657.465104) scale(0.1 -0.1)">
       <defs>
        <path id="DejaVuSans-37" d="M 525 4666 
L 3525 4666 
L 3525 4397 
L 1831 0 
L 1172 0 
L 2766 4134 
L 525 4134 
L 525 4666 
z
" transform="scale(0.015625)"/>
       </defs>
       <use xlink:href="#DejaVuSans-30"/>
       <use xlink:href="#DejaVuSans-2e" x="63.623047"/>
       <use xlink:href="#DejaVuSans-37" x="95.410156"/>
       <use xlink:href="#DejaVuSans-30" x="159.033203"/>
      </g>
     </g>
    </g>
    <g id="text_10">
     <!-- Proteomic GC content -->
     <g transform="translate(375.785513 671.143229) scale(0.1 -0.1)">
      <defs>
       <path id="DejaVuSans-50" d="M 1259 4147 
L 1259 2394 
L 2053 2394 
Q 2494 2394 2734 2622 
Q 2975 2850 2975 3272 
Q 2975 3691 2734 3919 
Q 2494 4147 2053 4147 
L 1259 4147 
z
M 628 4666 
L 2053 4666 
Q 2838 4666 3239 4311 
Q 3641 3956 3641 3272 
Q 3641 2581 3239 2228 
Q 2838 1875 2053 1875 
L 1259 1875 
L 1259 0 
L 628 0 
L 628 4666 
z
" transform="scale(0.015625)"/>
       <path id="DejaVuSans-72" d="M 2631 2963 
Q 2534 3019 2420 3045 
Q 2306 3072 2169 3072 
Q 1681 3072 1420 2755 
Q 1159 2438 1159 1844 
L 1159 0 
L 581 0 
L 581 3500 
L 1159 3500 
L 1159 2956 
Q 1341 3275 1631 3429 
Q 1922 3584 2338 3584 
Q 2397 3584 2469 3576 
Q 2541 3569 2628 3553 
L 2631 2963 
z
" transform="scale(0.015625)"/>
       <path id="DejaVuSans-6f" d="M 1959 3097 
Q 1497 3097 1228 2736 
Q 959 2375 959 1747 
Q 959 1119 1226 758 
Q 1494 397 1959 397 
Q 2419 397 2687 759 
Q 2956 1122 2956 1747 
Q 2956 2369 2687 2733 
Q 2419 3097 1959 3097 
z
M 1959 3584 
Q 2709 3584 3137 3096 
Q 3566 2609 3566 1747 
Q 3566 888 3137 398 
Q 2709 -91 1959 -91 
Q 1206 -91 779 398 
Q 353 888 353 1747 
Q 353 2609 779 3096 
Q 1206 3584 1959 3584 
z
" transform="scale(0.015625)"/>
       <path id="DejaVuSans-74" d="M 1172 4494 
L 1172 3500 
L 2356 3500 
L 2356 3053 
L 1172 3053 
L 1172 1153 
Q 1172 725 1289 603 
Q 1406 481 1766 481 
L 2356 481 
L 2356 0 
L 1766 0 
Q 1100 0 847 248 
Q 594 497 594 1153 
L 594 3053 
L 172 3053 
L 172 3500 
L 594 3500 
L 594 4494 
L 1172 4494 
z
" transform="scale(0.015625)"/>
       <path id="DejaVuSans-65" d="M 3597 1894 
L 3597 1613 
L 953 1613 
Q 991 1019 1311 708 
Q 1631 397 2203 397 
Q 2534 397 2845 478 
Q 3156 559 3463 722 
L 3463 178 
Q 3153 47 2828 -22 
Q 2503 -91 2169 -91 
Q 1331 -91 842 396 
Q 353 884 353 1716 
Q 353 2575 817 3079 
Q 1281 3584 2069 3584 
Q 2775 3584 3186 3129 
Q 3597 2675 3597 1894 
z
M 3022 2063 
Q 3016 2534 2758 2815 
Q 2500 3097 2075 3097 
Q 1594 3097 1305 2825 
Q 1016 2553 972 2059 
L 3022 2063 
z
" transform="scale(0.015625)"/>
       <path id="DejaVuSans-6d" d="M 3328 2828 
Q 3544 3216 3844 3400 
Q 4144 3584 4550 3584 
Q 5097 3584 5394 3201 
Q 5691 2819 5691 2113 
L 5691 0 
L 5113 0 
L 5113 2094 
Q 5113 2597 4934 2840 
Q 4756 3084 4391 3084 
Q 3944 3084 3684 2787 
Q 3425 2491 3425 1978 
L 3425 0 
L 2847 0 
L 2847 2094 
Q 2847 2600 2669 2842 
Q 2491 3084 2119 3084 
Q 1678 3084 1418 2786 
Q 1159 2488 1159 1978 
L 1159 0 
L 581 0 
L 581 3500 
L 1159 3500 
L 1159 2956 
Q 1356 3278 1631 3431 
Q 1906 3584 2284 3584 
Q 2666 3584 2933 3390 
Q 3200 3197 3328 2828 
z
" transform="scale(0.015625)"/>
       <path id="DejaVuSans-69" d="M 603 3500 
L 1178 3500 
L 1178 0 
L 603 0 
L 603 3500 
z
M 603 4863 
L 1178 4863 
L 1178 4134 
L 603 4134 
L 603 4863 
z
" transform="scale(0.015625)"/>
       <path id="DejaVuSans-63" d="M 3122 3366 
L 3122 2828 
Q 2878 2963 2633 3030 
Q 2388 3097 2138 3097 
Q 1578 3097 1268 2742 
Q 959 2388 959 1747 
Q 959 1106 1268 751 
Q 1578 397 2138 397 
Q 2388 397 2633 464 
Q 2878 531 3122 666 
L 3122 134 
Q 2881 22 2623 -34 
Q 2366 -91 2075 -91 
Q 1284 -91 818 406 
Q 353 903 353 1747 
Q 353 2603 823 3093 
Q 1294 3584 2113 3584 
Q 2378 3584 2631 3529 
Q 2884 3475 3122 3366 
z
" transform="scale(0.015625)"/>
       <path id="DejaVuSans-20" transform="scale(0.015625)"/>
       <path id="DejaVuSans-47" d="M 3809 666 
L 3809 1919 
L 2778 1919 
L 2778 2438 
L 4434 2438 
L 4434 434 
Q 4069 175 3628 42 
Q 3188 -91 2688 -91 
Q 1594 -91 976 548 
Q 359 1188 359 2328 
Q 359 3472 976 4111 
Q 1594 4750 2688 4750 
Q 3144 4750 3555 4637 
Q 3966 4525 4313 4306 
L 4313 3634 
Q 3963 3931 3569 4081 
Q 3175 4231 2741 4231 
Q 1884 4231 1454 3753 
Q 1025 3275 1025 2328 
Q 1025 1384 1454 906 
Q 1884 428 2741 428 
Q 3075 428 3337 486 
Q 3600 544 3809 666 
z
" transform="scale(0.015625)"/>
       <path id="DejaVuSans-43" d="M 4122 4306 
L 4122 3641 
Q 3803 3938 3442 4084 
Q 3081 4231 2675 4231 
Q 1875 4231 1450 3742 
Q 1025 3253 1025 2328 
Q 1025 1406 1450 917 
Q 1875 428 2675 428 
Q 3081 428 3442 575 
Q 3803 722 4122 1019 
L 4122 359 
Q 3791 134 3420 21 
Q 3050 -91 2638 -91 
Q 1578 -91 968 557 
Q 359 1206 359 2328 
Q 359 3453 968 4101 
Q 1578 4750 2638 4750 
Q 3056 4750 3426 4639 
Q 3797 4528 4122 4306 
z
" transform="scale(0.015625)"/>
       <path id="DejaVuSans-6e" d="M 3513 2113 
L 3513 0 
L 2938 0 
L 2938 2094 
Q 2938 2591 2744 2837 
Q 2550 3084 2163 3084 
Q 1697 3084 1428 2787 
Q 1159 2491 1159 1978 
L 1159 0 
L 581 0 
L 581 3500 
L 1159 3500 
L 1159 2956 
Q 1366 3272 1645 3428 
Q 1925 3584 2291 3584 
Q 2894 3584 3203 3211 
Q 3513 2838 3513 2113 
z
" transform="scale(0.015625)"/>
      </defs>
      <use xlink:href="#DejaVuSans-50"/>
      <use xlink:href="#DejaVuSans-72" x="58.552734"/>
      <use xlink:href="#DejaVuSans-6f" x="97.416016"/>
      <use xlink:href="#DejaVuSans-74" x="158.597656"/>
      <use xlink:href="#DejaVuSans-65" x="197.806641"/>
      <use xlink:href="#DejaVuSans-6f" x="259.330078"/>
      <use xlink:href="#DejaVuSans-6d" x="320.511719"/>
      <use xlink:href="#DejaVuSans-69" x="417.923828"/>
      <use xlink:href="#DejaVuSans-63" x="445.707031"/>
      <use xlink:href="#DejaVuSans-20" x="500.6875"/>
      <use xlink:href="#DejaVuSans-47" x="532.474609"/>
      <use xlink:href="#DejaVuSans-43" x="609.964844"/>
      <use xlink:href="#DejaVuSans-20" x="679.789062"/>
      <use xlink:href="#DejaVuSans-63" x="711.576172"/>
      <use xlink:href="#DejaVuSans-6f" x="766.556641"/>
      <use xlink:href="#DejaVuSans-6e" x="827.738281"/>
      <use xlink:href="#DejaVuSans-74" x="891.117188"/>
      <use xlink:href="#DejaVuSans-65" x="930.326172"/>
      <use xlink:href="#DejaVuSans-6e" x="991.849609"/>
      <use xlink:href="#DejaVuSans-74" x="1055.228516"/>
     </g>
    </g>
   </g>
   <g id="matplotlib.axis_2">
    <g id="ytick_1">
     <g id="line2d_10">
      <defs>
       <path id="m122f7c5f93" d="M 0 0 
L -3.5 0 
" style="stroke: #000000; stroke-width: 0.8"/>
      </defs>
      <g>
       <use xlink:href="#m122f7c5f93" x="43.78125" y="629.939872" style="stroke: #000000; stroke-width: 0.8"/>
      </g>
     </g>
     <g id="text_11">
      <!-- 0.2 -->
      <g transform="translate(20.878125 633.739091) scale(0.1 -0.1)">
       <defs>
        <path id="DejaVuSans-32" d="M 1228 531 
L 3431 531 
L 3431 0 
L 469 0 
L 469 531 
Q 828 903 1448 1529 
Q 2069 2156 2228 2338 
Q 2531 2678 2651 2914 
Q 2772 3150 2772 3378 
Q 2772 3750 2511 3984 
Q 2250 4219 1831 4219 
Q 1534 4219 1204 4116 
Q 875 4013 500 3803 
L 500 4441 
Q 881 4594 1212 4672 
Q 1544 4750 1819 4750 
Q 2544 4750 2975 4387 
Q 3406 4025 3406 3419 
Q 3406 3131 3298 2873 
Q 3191 2616 2906 2266 
Q 2828 2175 2409 1742 
Q 1991 1309 1228 531 
z
" transform="scale(0.015625)"/>
       </defs>
       <use xlink:href="#DejaVuSans-30"/>
       <use xlink:href="#DejaVuSans-2e" x="63.623047"/>
       <use xlink:href="#DejaVuSans-32" x="95.410156"/>
      </g>
     </g>
    </g>
    <g id="ytick_2">
     <g id="line2d_11">
      <g>
       <use xlink:href="#m122f7c5f93" x="43.78125" y="533.900809" style="stroke: #000000; stroke-width: 0.8"/>
      </g>
     </g>
     <g id="text_12">
      <!-- 0.3 -->
      <g transform="translate(20.878125 537.700028) scale(0.1 -0.1)">
       <use xlink:href="#DejaVuSans-30"/>
       <use xlink:href="#DejaVuSans-2e" x="63.623047"/>
       <use xlink:href="#DejaVuSans-33" x="95.410156"/>
      </g>
     </g>
    </g>
    <g id="ytick_3">
     <g id="line2d_12">
      <g>
       <use xlink:href="#m122f7c5f93" x="43.78125" y="437.861746" style="stroke: #000000; stroke-width: 0.8"/>
      </g>
     </g>
     <g id="text_13">
      <!-- 0.4 -->
      <g transform="translate(20.878125 441.660965) scale(0.1 -0.1)">
       <use xlink:href="#DejaVuSans-30"/>
       <use xlink:href="#DejaVuSans-2e" x="63.623047"/>
       <use xlink:href="#DejaVuSans-34" x="95.410156"/>
      </g>
     </g>
    </g>
    <g id="ytick_4">
     <g id="line2d_13">
      <g>
       <use xlink:href="#m122f7c5f93" x="43.78125" y="341.822683" style="stroke: #000000; stroke-width: 0.8"/>
      </g>
     </g>
     <g id="text_14">
      <!-- 0.5 -->
      <g transform="translate(20.878125 345.621902) scale(0.1 -0.1)">
       <use xlink:href="#DejaVuSans-30"/>
       <use xlink:href="#DejaVuSans-2e" x="63.623047"/>
       <use xlink:href="#DejaVuSans-35" x="95.410156"/>
      </g>
     </g>
    </g>
    <g id="ytick_5">
     <g id="line2d_14">
      <g>
       <use xlink:href="#m122f7c5f93" x="43.78125" y="245.78362" style="stroke: #000000; stroke-width: 0.8"/>
      </g>
     </g>
     <g id="text_15">
      <!-- 0.6 -->
      <g transform="translate(20.878125 249.582839) scale(0.1 -0.1)">
       <use xlink:href="#DejaVuSans-30"/>
       <use xlink:href="#DejaVuSans-2e" x="63.623047"/>
       <use xlink:href="#DejaVuSans-36" x="95.410156"/>
      </g>
     </g>
    </g>
    <g id="text_16">
     <!-- Correlation coefficient -->
     <g transform="translate(14.798438 452.712284) rotate(-90) scale(0.1 -0.1)">
      <defs>
       <path id="DejaVuSans-6c" d="M 603 4863 
L 1178 4863 
L 1178 0 
L 603 0 
L 603 4863 
z
" transform="scale(0.015625)"/>
       <path id="DejaVuSans-61" d="M 2194 1759 
Q 1497 1759 1228 1600 
Q 959 1441 959 1056 
Q 959 750 1161 570 
Q 1363 391 1709 391 
Q 2188 391 2477 730 
Q 2766 1069 2766 1631 
L 2766 1759 
L 2194 1759 
z
M 3341 1997 
L 3341 0 
L 2766 0 
L 2766 531 
Q 2569 213 2275 61 
Q 1981 -91 1556 -91 
Q 1019 -91 701 211 
Q 384 513 384 1019 
Q 384 1609 779 1909 
Q 1175 2209 1959 2209 
L 2766 2209 
L 2766 2266 
Q 2766 2663 2505 2880 
Q 2244 3097 1772 3097 
Q 1472 3097 1187 3025 
Q 903 2953 641 2809 
L 641 3341 
Q 956 3463 1253 3523 
Q 1550 3584 1831 3584 
Q 2591 3584 2966 3190 
Q 3341 2797 3341 1997 
z
" transform="scale(0.015625)"/>
       <path id="DejaVuSans-66" d="M 2375 4863 
L 2375 4384 
L 1825 4384 
Q 1516 4384 1395 4259 
Q 1275 4134 1275 3809 
L 1275 3500 
L 2222 3500 
L 2222 3053 
L 1275 3053 
L 1275 0 
L 697 0 
L 697 3053 
L 147 3053 
L 147 3500 
L 697 3500 
L 697 3744 
Q 697 4328 969 4595 
Q 1241 4863 1831 4863 
L 2375 4863 
z
" transform="scale(0.015625)"/>
      </defs>
      <use xlink:href="#DejaVuSans-43"/>
      <use xlink:href="#DejaVuSans-6f" x="69.824219"/>
      <use xlink:href="#DejaVuSans-72" x="131.005859"/>
      <use xlink:href="#DejaVuSans-72" x="170.369141"/>
      <use xlink:href="#DejaVuSans-65" x="209.232422"/>
      <use xlink:href="#DejaVuSans-6c" x="270.755859"/>
      <use xlink:href="#DejaVuSans-61" x="298.539062"/>
      <use xlink:href="#DejaVuSans-74" x="359.818359"/>
      <use xlink:href="#DejaVuSans-69" x="399.027344"/>
      <use xlink:href="#DejaVuSans-6f" x="426.810547"/>
      <use xlink:href="#DejaVuSans-6e" x="487.992188"/>
      <use xlink:href="#DejaVuSans-20" x="551.371094"/>
      <use xlink:href="#DejaVuSans-63" x="583.158203"/>
      <use xlink:href="#DejaVuSans-6f" x="638.138672"/>
      <use xlink:href="#DejaVuSans-65" x="699.320312"/>
      <use xlink:href="#DejaVuSans-66" x="760.84375"/>
      <use xlink:href="#DejaVuSans-66" x="796.048828"/>
      <use xlink:href="#DejaVuSans-69" x="831.253906"/>
      <use xlink:href="#DejaVuSans-63" x="859.037109"/>
      <use xlink:href="#DejaVuSans-69" x="914.017578"/>
      <use xlink:href="#DejaVuSans-65" x="941.800781"/>
      <use xlink:href="#DejaVuSans-6e" x="1003.324219"/>
      <use xlink:href="#DejaVuSans-74" x="1066.703125"/>
     </g>
    </g>
   </g>
   <g id="line2d_15">
    <path d="M 78.938101 465.321167 
L 86.040495 463.415011 
L 93.142889 461.508855 
L 100.245283 459.602699 
L 107.347677 457.696542 
L 114.450071 455.790386 
L 121.552465 453.88423 
L 128.654859 451.978074 
L 135.757253 450.071917 
L 142.859647 448.165761 
L 149.962041 446.259605 
L 157.064435 444.353449 
L 164.166829 442.447292 
L 171.269224 440.541136 
L 178.371618 438.63498 
L 185.474012 436.728824 
L 192.576406 434.822667 
L 199.6788 432.916511 
L 206.781194 431.010355 
L 213.883588 429.104199 
L 220.985982 427.198042 
L 228.088376 425.291886 
L 235.19077 423.38573 
L 242.293164 421.479574 
L 249.395558 419.573417 
L 256.497952 417.667261 
L 263.600346 415.761105 
L 270.702741 413.854949 
L 277.805135 411.948792 
L 284.907529 410.042636 
L 292.009923 408.13648 
L 299.112317 406.230324 
L 306.214711 404.324167 
L 313.317105 402.418011 
L 320.419499 400.511855 
L 327.521893 398.605699 
L 334.624287 396.699542 
L 341.726681 394.793386 
L 348.829075 392.88723 
L 355.931469 390.981074 
L 363.033863 389.074917 
L 370.136258 387.168761 
L 377.238652 385.262605 
L 384.341046 383.356449 
L 391.44344 381.450292 
L 398.545834 379.544136 
L 405.648228 377.63798 
L 412.750622 375.731824 
L 419.853016 373.825667 
L 426.95541 371.919511 
L 434.057804 370.013355 
L 441.160198 368.107199 
L 448.262592 366.201042 
L 455.364986 364.294886 
L 462.46738 362.38873 
L 469.569775 360.482574 
L 476.672169 358.576417 
L 483.774563 356.670261 
L 490.876957 354.764105 
L 497.979351 352.857949 
L 505.081745 350.951792 
L 512.184139 349.045636 
L 519.286533 347.13948 
L 526.388927 345.233324 
L 533.491321 343.327167 
L 540.593715 341.421011 
L 547.696109 339.514855 
L 554.798503 337.608699 
L 561.900897 335.702542 
L 569.003292 333.796386 
L 576.105686 331.89023 
L 583.20808 329.984074 
L 590.310474 328.077917 
L 597.412868 326.171761 
L 604.515262 324.265605 
L 611.617656 322.359449 
L 618.72005 320.453292 
L 625.822444 318.547136 
L 632.924838 316.64098 
L 640.027232 314.734824 
L 647.129626 312.828667 
L 654.23202 310.922511 
L 661.334414 309.016355 
L 668.436809 307.110199 
L 675.539203 305.204042 
L 682.641597 303.297886 
L 689.743991 301.39173 
L 696.846385 299.485574 
L 703.948779 297.579417 
L 711.051173 295.673261 
L 718.153567 293.767105 
L 725.255961 291.860949 
L 732.358355 289.954792 
L 739.460749 288.048636 
L 746.563143 286.14248 
L 753.665537 284.236324 
L 760.767931 282.330167 
L 767.870325 280.424011 
L 774.97272 278.517855 
L 782.075114 276.611699 
" clip-path="url(#p9fe879c6f0)" style="fill: none; stroke: #1f77b4; stroke-width: 2.25; stroke-linecap: square"/>
   </g>
   <g id="line2d_16">
    <path d="M 78.938101 403.890021 
L 86.040495 403.823588 
L 93.142889 403.757154 
L 100.245283 403.690721 
L 107.347677 403.624288 
L 114.450071 403.557854 
L 121.552465 403.491421 
L 128.654859 403.424987 
L 135.757253 403.358554 
L 142.859647 403.292121 
L 149.962041 403.225687 
L 157.064435 403.159254 
L 164.166829 403.09282 
L 171.269224 403.026387 
L 178.371618 402.959954 
L 185.474012 402.89352 
L 192.576406 402.827087 
L 199.6788 402.760653 
L 206.781194 402.69422 
L 213.883588 402.627787 
L 220.985982 402.561353 
L 228.088376 402.49492 
L 235.19077 402.428486 
L 242.293164 402.362053 
L 249.395558 402.29562 
L 256.497952 402.229186 
L 263.600346 402.162753 
L 270.702741 402.09632 
L 277.805135 402.029886 
L 284.907529 401.963453 
L 292.009923 401.897019 
L 299.112317 401.830586 
L 306.214711 401.764153 
L 313.317105 401.697719 
L 320.419499 401.631286 
L 327.521893 401.564852 
L 334.624287 401.498419 
L 341.726681 401.431986 
L 348.829075 401.365552 
L 355.931469 401.299119 
L 363.033863 401.232685 
L 370.136258 401.166252 
L 377.238652 401.099819 
L 384.341046 401.033385 
L 391.44344 400.966952 
L 398.545834 400.900518 
L 405.648228 400.834085 
L 412.750622 400.767652 
L 419.853016 400.701218 
L 426.95541 400.634785 
L 434.057804 400.568352 
L 441.160198 400.501918 
L 448.262592 400.435485 
L 455.364986 400.369051 
L 462.46738 400.302618 
L 469.569775 400.236185 
L 476.672169 400.169751 
L 483.774563 400.103318 
L 490.876957 400.036884 
L 497.979351 399.970451 
L 505.081745 399.904018 
L 512.184139 399.837584 
L 519.286533 399.771151 
L 526.388927 399.704717 
L 533.491321 399.638284 
L 540.593715 399.571851 
L 547.696109 399.505417 
L 554.798503 399.438984 
L 561.900897 399.37255 
L 569.003292 399.306117 
L 576.105686 399.239684 
L 583.20808 399.17325 
L 590.310474 399.106817 
L 597.412868 399.040384 
L 604.515262 398.97395 
L 611.617656 398.907517 
L 618.72005 398.841083 
L 625.822444 398.77465 
L 632.924838 398.708217 
L 640.027232 398.641783 
L 647.129626 398.57535 
L 654.23202 398.508916 
L 661.334414 398.442483 
L 668.436809 398.37605 
L 675.539203 398.309616 
L 682.641597 398.243183 
L 689.743991 398.176749 
L 696.846385 398.110316 
L 703.948779 398.043883 
L 711.051173 397.977449 
L 718.153567 397.911016 
L 725.255961 397.844582 
L 732.358355 397.778149 
L 739.460749 397.711716 
L 746.563143 397.645282 
L 753.665537 397.578849 
L 760.767931 397.512416 
L 767.870325 397.445982 
L 774.97272 397.379549 
L 782.075114 397.313115 
" clip-path="url(#p9fe879c6f0)" style="fill: none; stroke: #ff7f0e; stroke-width: 2.25; stroke-linecap: square"/>
   </g>
   <g id="patch_3">
    <path d="M 43.78125 642.866667 
L 43.78125 151.965714 
" style="fill: none; stroke: #000000; stroke-width: 0.8; stroke-linejoin: miter; stroke-linecap: square"/>
   </g>
   <g id="patch_4">
    <path d="M 43.78125 642.866667 
L 817.231964 642.866667 
" style="fill: none; stroke: #000000; stroke-width: 0.8; stroke-linejoin: miter; stroke-linecap: square"/>
   </g>
   <g id="legend_1">
    <g id="patch_5">
     <path d="M 704.119464 637.866667 
L 810.231964 637.866667 
Q 812.231964 637.866667 812.231964 635.866667 
L 812.231964 607.510417 
Q 812.231964 605.510417 810.231964 605.510417 
L 704.119464 605.510417 
Q 702.119464 605.510417 702.119464 607.510417 
L 702.119464 635.866667 
Q 702.119464 637.866667 704.119464 637.866667 
z
" style="fill: #ffffff; opacity: 0.8; stroke: #cccccc; stroke-linejoin: miter"/>
    </g>
    <g id="PathCollection_3">
     <g>
      <use xlink:href="#m67f551b65c" x="716.119464" y="614.483854" style="fill: #4169e1; fill-opacity: 0.5; stroke: #000000; stroke-opacity: 0.5"/>
     </g>
    </g>
    <g id="text_17">
     <!-- Codon number -->
     <g transform="translate(734.119464 617.108854) scale(0.1 -0.1)">
      <defs>
       <path id="DejaVuSans-64" d="M 2906 2969 
L 2906 4863 
L 3481 4863 
L 3481 0 
L 2906 0 
L 2906 525 
Q 2725 213 2448 61 
Q 2172 -91 1784 -91 
Q 1150 -91 751 415 
Q 353 922 353 1747 
Q 353 2572 751 3078 
Q 1150 3584 1784 3584 
Q 2172 3584 2448 3432 
Q 2725 3281 2906 2969 
z
M 947 1747 
Q 947 1113 1208 752 
Q 1469 391 1925 391 
Q 2381 391 2643 752 
Q 2906 1113 2906 1747 
Q 2906 2381 2643 2742 
Q 2381 3103 1925 3103 
Q 1469 3103 1208 2742 
Q 947 2381 947 1747 
z
" transform="scale(0.015625)"/>
       <path id="DejaVuSans-75" d="M 544 1381 
L 544 3500 
L 1119 3500 
L 1119 1403 
Q 1119 906 1312 657 
Q 1506 409 1894 409 
Q 2359 409 2629 706 
Q 2900 1003 2900 1516 
L 2900 3500 
L 3475 3500 
L 3475 0 
L 2900 0 
L 2900 538 
Q 2691 219 2414 64 
Q 2138 -91 1772 -91 
Q 1169 -91 856 284 
Q 544 659 544 1381 
z
M 1991 3584 
L 1991 3584 
z
" transform="scale(0.015625)"/>
       <path id="DejaVuSans-62" d="M 3116 1747 
Q 3116 2381 2855 2742 
Q 2594 3103 2138 3103 
Q 1681 3103 1420 2742 
Q 1159 2381 1159 1747 
Q 1159 1113 1420 752 
Q 1681 391 2138 391 
Q 2594 391 2855 752 
Q 3116 1113 3116 1747 
z
M 1159 2969 
Q 1341 3281 1617 3432 
Q 1894 3584 2278 3584 
Q 2916 3584 3314 3078 
Q 3713 2572 3713 1747 
Q 3713 922 3314 415 
Q 2916 -91 2278 -91 
Q 1894 -91 1617 61 
Q 1341 213 1159 525 
L 1159 0 
L 581 0 
L 581 4863 
L 1159 4863 
L 1159 2969 
z
" transform="scale(0.015625)"/>
      </defs>
      <use xlink:href="#DejaVuSans-43"/>
      <use xlink:href="#DejaVuSans-6f" x="69.824219"/>
      <use xlink:href="#DejaVuSans-64" x="131.005859"/>
      <use xlink:href="#DejaVuSans-6f" x="194.482422"/>
      <use xlink:href="#DejaVuSans-6e" x="255.664062"/>
      <use xlink:href="#DejaVuSans-20" x="319.042969"/>
      <use xlink:href="#DejaVuSans-6e" x="350.830078"/>
      <use xlink:href="#DejaVuSans-75" x="414.208984"/>
      <use xlink:href="#DejaVuSans-6d" x="477.587891"/>
      <use xlink:href="#DejaVuSans-62" x="575"/>
      <use xlink:href="#DejaVuSans-65" x="638.476562"/>
      <use xlink:href="#DejaVuSans-72" x="700"/>
     </g>
    </g>
    <g id="PathCollection_4">
     <g>
      <use xlink:href="#mb7253173cd" x="716.119464" y="629.161979" style="fill: #ff8c00; fill-opacity: 0.5; stroke: #000000; stroke-opacity: 0.5"/>
     </g>
    </g>
    <g id="text_18">
     <!-- Codon+GC -->
     <g transform="translate(734.119464 631.786979) scale(0.1 -0.1)">
      <defs>
       <path id="DejaVuSans-2b" d="M 2944 4013 
L 2944 2272 
L 4684 2272 
L 4684 1741 
L 2944 1741 
L 2944 0 
L 2419 0 
L 2419 1741 
L 678 1741 
L 678 2272 
L 2419 2272 
L 2419 4013 
L 2944 4013 
z
" transform="scale(0.015625)"/>
      </defs>
      <use xlink:href="#DejaVuSans-43"/>
      <use xlink:href="#DejaVuSans-6f" x="69.824219"/>
      <use xlink:href="#DejaVuSans-64" x="131.005859"/>
      <use xlink:href="#DejaVuSans-6f" x="194.482422"/>
      <use xlink:href="#DejaVuSans-6e" x="255.664062"/>
      <use xlink:href="#DejaVuSans-2b" x="319.042969"/>
      <use xlink:href="#DejaVuSans-47" x="402.832031"/>
      <use xlink:href="#DejaVuSans-43" x="480.322266"/>
     </g>
    </g>
   </g>
  </g>
  <g id="axes_2">
   <g id="patch_6">
    <path d="M 43.78125 135.038095 
L 817.231964 135.038095 
L 817.231964 50.4 
L 43.78125 50.4 
z
" style="fill: #ffffff"/>
   </g>
   <g id="PolyCollection_3">
    <defs>
     <path id="m353157f1a0" d="M 78.938101 -607.390752 
L 78.938101 -545.384821 
L 166.830227 -545.384821 
L 166.830227 -545.384821 
L 254.722354 -545.384821 
L 254.722354 -545.384821 
L 342.614481 -545.384821 
L 342.614481 -545.384821 
L 430.506607 -545.384821 
L 430.506607 -545.384821 
L 518.398734 -545.384821 
L 518.398734 -545.384821 
L 606.29086 -545.384821 
L 606.29086 -545.384821 
L 694.182987 -545.384821 
L 694.182987 -545.384821 
L 782.075114 -545.384821 
L 782.075114 -545.384821 
L 782.075114 -582.58838 
L 782.075114 -582.58838 
L 782.075114 -582.58838 
L 694.182987 -582.58838 
L 694.182987 -588.788973 
L 606.29086 -588.788973 
L 606.29086 -625.992531 
L 518.398734 -625.992531 
L 518.398734 -594.989566 
L 430.506607 -594.989566 
L 430.506607 -601.190159 
L 342.614481 -601.190159 
L 342.614481 -588.788973 
L 254.722354 -588.788973 
L 254.722354 -588.788973 
L 166.830227 -588.788973 
L 166.830227 -607.390752 
L 78.938101 -607.390752 
z
" style="stroke: #000000"/>
    </defs>
    <g clip-path="url(#pce71458f9f)">
     <use xlink:href="#m353157f1a0" x="0" y="680.422917" style="fill: #800080; fill-opacity: 0.75; stroke: #000000"/>
    </g>
   </g>
   <g id="matplotlib.axis_3">
    <g id="xtick_10">
     <g id="line2d_17">
      <g>
       <use xlink:href="#m6762443168" x="56.567963" y="135.038095" style="stroke: #000000; stroke-width: 0.8"/>
      </g>
     </g>
    </g>
    <g id="xtick_11">
     <g id="line2d_18">
      <g>
       <use xlink:href="#m6762443168" x="150.809588" y="135.038095" style="stroke: #000000; stroke-width: 0.8"/>
      </g>
     </g>
    </g>
    <g id="xtick_12">
     <g id="line2d_19">
      <g>
       <use xlink:href="#m6762443168" x="245.051214" y="135.038095" style="stroke: #000000; stroke-width: 0.8"/>
      </g>
     </g>
    </g>
    <g id="xtick_13">
     <g id="line2d_20">
      <g>
       <use xlink:href="#m6762443168" x="339.29284" y="135.038095" style="stroke: #000000; stroke-width: 0.8"/>
      </g>
     </g>
    </g>
    <g id="xtick_14">
     <g id="line2d_21">
      <g>
       <use xlink:href="#m6762443168" x="433.534466" y="135.038095" style="stroke: #000000; stroke-width: 0.8"/>
      </g>
     </g>
    </g>
    <g id="xtick_15">
     <g id="line2d_22">
      <g>
       <use xlink:href="#m6762443168" x="527.776091" y="135.038095" style="stroke: #000000; stroke-width: 0.8"/>
      </g>
     </g>
    </g>
    <g id="xtick_16">
     <g id="line2d_23">
      <g>
       <use xlink:href="#m6762443168" x="622.017717" y="135.038095" style="stroke: #000000; stroke-width: 0.8"/>
      </g>
     </g>
    </g>
    <g id="xtick_17">
     <g id="line2d_24">
      <g>
       <use xlink:href="#m6762443168" x="716.259343" y="135.038095" style="stroke: #000000; stroke-width: 0.8"/>
      </g>
     </g>
    </g>
    <g id="xtick_18">
     <g id="line2d_25">
      <g>
       <use xlink:href="#m6762443168" x="810.500969" y="135.038095" style="stroke: #000000; stroke-width: 0.8"/>
      </g>
     </g>
    </g>
   </g>
   <g id="matplotlib.axis_4">
    <g id="ytick_6"/>
    <g id="ytick_7"/>
    <g id="ytick_8"/>
   </g>
   <g id="patch_7">
    <path d="M 43.78125 135.038095 
L 817.231964 135.038095 
" style="fill: none; stroke: #000000; stroke-width: 0.8; stroke-linejoin: miter; stroke-linecap: square"/>
   </g>
  </g>
  <g id="axes_3">
   <g id="patch_8">
    <path d="M 843.902679 642.866667 
L 977.25625 642.866667 
L 977.25625 151.965714 
L 843.902679 151.965714 
z
" style="fill: #ffffff"/>
   </g>
   <g id="PolyCollection_4">
    <defs>
     <path id="m87ac5d3389" d="M 873.138381 -117.116969 
L 849.964205 -117.116969 
L 849.964205 -117.116969 
L 849.964205 -181.954728 
L 849.964205 -181.954728 
L 849.964205 -246.792487 
L 849.964205 -246.792487 
L 849.964205 -311.630246 
L 849.964205 -311.630246 
L 849.964205 -376.468005 
L 849.964205 -376.468005 
L 849.964205 -441.305764 
L 865.413656 -441.305764 
L 865.413656 -441.305764 
L 865.413656 -376.468005 
L 900.174921 -376.468005 
L 900.174921 -311.630246 
L 911.762009 -311.630246 
L 911.762009 -246.792487 
L 911.762009 -246.792487 
L 911.762009 -181.954728 
L 896.312558 -181.954728 
L 896.312558 -117.116969 
L 873.138381 -117.116969 
z
" style="stroke: #000000; stroke-opacity: 0.5"/>
    </defs>
    <g clip-path="url(#pb41f249004)">
     <use xlink:href="#m87ac5d3389" x="0" y="680.422917" style="fill: #4169e1; fill-opacity: 0.5; stroke: #000000; stroke-opacity: 0.5"/>
    </g>
   </g>
   <g id="PolyCollection_5">
    <defs>
     <path id="mfa4756d898" d="M 862.087256 -59.86993 
L 849.964205 -59.86993 
L 849.964205 -59.86993 
L 849.964205 -101.184105 
L 849.964205 -101.184105 
L 849.964205 -142.498281 
L 849.964205 -142.498281 
L 849.964205 -183.812456 
L 849.964205 -183.812456 
L 849.964205 -225.126632 
L 849.964205 -225.126632 
L 849.964205 -266.440807 
L 849.964205 -266.440807 
L 849.964205 -307.754983 
L 849.964205 -307.754983 
L 849.964205 -349.069158 
L 849.964205 -349.069158 
L 849.964205 -390.383334 
L 880.271834 -390.383334 
L 880.271834 -390.383334 
L 880.271834 -349.069158 
L 892.394886 -349.069158 
L 892.394886 -307.754983 
L 898.456412 -307.754983 
L 898.456412 -266.440807 
L 971.194724 -266.440807 
L 971.194724 -225.126632 
L 928.764042 -225.126632 
L 928.764042 -183.812456 
L 898.456412 -183.812456 
L 898.456412 -142.498281 
L 862.087256 -142.498281 
L 862.087256 -101.184105 
L 862.087256 -101.184105 
L 862.087256 -59.86993 
L 862.087256 -59.86993 
z
" style="stroke: #000000; stroke-opacity: 0.5"/>
    </defs>
    <g clip-path="url(#pb41f249004)">
     <use xlink:href="#mfa4756d898" x="0" y="680.422917" style="fill: #ff8c00; fill-opacity: 0.5; stroke: #000000; stroke-opacity: 0.5"/>
    </g>
   </g>
   <g id="matplotlib.axis_5">
    <g id="xtick_19"/>
    <g id="xtick_20"/>
    <g id="xtick_21"/>
    <g id="xtick_22"/>
   </g>
   <g id="matplotlib.axis_6">
    <g id="ytick_9">
     <g id="line2d_26">
      <g>
       <use xlink:href="#m122f7c5f93" x="843.902679" y="629.939872" style="stroke: #000000; stroke-width: 0.8"/>
      </g>
     </g>
    </g>
    <g id="ytick_10">
     <g id="line2d_27">
      <g>
       <use xlink:href="#m122f7c5f93" x="843.902679" y="533.900809" style="stroke: #000000; stroke-width: 0.8"/>
      </g>
     </g>
    </g>
    <g id="ytick_11">
     <g id="line2d_28">
      <g>
       <use xlink:href="#m122f7c5f93" x="843.902679" y="437.861746" style="stroke: #000000; stroke-width: 0.8"/>
      </g>
     </g>
    </g>
    <g id="ytick_12">
     <g id="line2d_29">
      <g>
       <use xlink:href="#m122f7c5f93" x="843.902679" y="341.822683" style="stroke: #000000; stroke-width: 0.8"/>
      </g>
     </g>
    </g>
    <g id="ytick_13">
     <g id="line2d_30">
      <g>
       <use xlink:href="#m122f7c5f93" x="843.902679" y="245.78362" style="stroke: #000000; stroke-width: 0.8"/>
      </g>
     </g>
    </g>
   </g>
   <g id="patch_9">
    <path d="M 843.902679 642.866667 
L 843.902679 151.965714 
" style="fill: none; stroke: #000000; stroke-width: 0.8; stroke-linejoin: miter; stroke-linecap: square"/>
   </g>
  </g>
  <g id="text_19">
   <!-- Archaea - Kendall's Tau correlation coefficients for genetic code: SGCode -->
   <g transform="translate(245.909688 16.318125) scale(0.12 -0.12)">
    <defs>
     <path id="DejaVuSans-41" d="M 2188 4044 
L 1331 1722 
L 3047 1722 
L 2188 4044 
z
M 1831 4666 
L 2547 4666 
L 4325 0 
L 3669 0 
L 3244 1197 
L 1141 1197 
L 716 0 
L 50 0 
L 1831 4666 
z
" transform="scale(0.015625)"/>
     <path id="DejaVuSans-68" d="M 3513 2113 
L 3513 0 
L 2938 0 
L 2938 2094 
Q 2938 2591 2744 2837 
Q 2550 3084 2163 3084 
Q 1697 3084 1428 2787 
Q 1159 2491 1159 1978 
L 1159 0 
L 581 0 
L 581 4863 
L 1159 4863 
L 1159 2956 
Q 1366 3272 1645 3428 
Q 1925 3584 2291 3584 
Q 2894 3584 3203 3211 
Q 3513 2838 3513 2113 
z
" transform="scale(0.015625)"/>
     <path id="DejaVuSans-2d" d="M 313 2009 
L 1997 2009 
L 1997 1497 
L 313 1497 
L 313 2009 
z
" transform="scale(0.015625)"/>
     <path id="DejaVuSans-4b" d="M 628 4666 
L 1259 4666 
L 1259 2694 
L 3353 4666 
L 4166 4666 
L 1850 2491 
L 4331 0 
L 3500 0 
L 1259 2247 
L 1259 0 
L 628 0 
L 628 4666 
z
" transform="scale(0.015625)"/>
     <path id="DejaVuSans-27" d="M 1147 4666 
L 1147 2931 
L 616 2931 
L 616 4666 
L 1147 4666 
z
" transform="scale(0.015625)"/>
     <path id="DejaVuSans-73" d="M 2834 3397 
L 2834 2853 
Q 2591 2978 2328 3040 
Q 2066 3103 1784 3103 
Q 1356 3103 1142 2972 
Q 928 2841 928 2578 
Q 928 2378 1081 2264 
Q 1234 2150 1697 2047 
L 1894 2003 
Q 2506 1872 2764 1633 
Q 3022 1394 3022 966 
Q 3022 478 2636 193 
Q 2250 -91 1575 -91 
Q 1294 -91 989 -36 
Q 684 19 347 128 
L 347 722 
Q 666 556 975 473 
Q 1284 391 1588 391 
Q 1994 391 2212 530 
Q 2431 669 2431 922 
Q 2431 1156 2273 1281 
Q 2116 1406 1581 1522 
L 1381 1569 
Q 847 1681 609 1914 
Q 372 2147 372 2553 
Q 372 3047 722 3315 
Q 1072 3584 1716 3584 
Q 2034 3584 2315 3537 
Q 2597 3491 2834 3397 
z
" transform="scale(0.015625)"/>
     <path id="DejaVuSans-54" d="M -19 4666 
L 3928 4666 
L 3928 4134 
L 2272 4134 
L 2272 0 
L 1638 0 
L 1638 4134 
L -19 4134 
L -19 4666 
z
" transform="scale(0.015625)"/>
     <path id="DejaVuSans-67" d="M 2906 1791 
Q 2906 2416 2648 2759 
Q 2391 3103 1925 3103 
Q 1463 3103 1205 2759 
Q 947 2416 947 1791 
Q 947 1169 1205 825 
Q 1463 481 1925 481 
Q 2391 481 2648 825 
Q 2906 1169 2906 1791 
z
M 3481 434 
Q 3481 -459 3084 -895 
Q 2688 -1331 1869 -1331 
Q 1566 -1331 1297 -1286 
Q 1028 -1241 775 -1147 
L 775 -588 
Q 1028 -725 1275 -790 
Q 1522 -856 1778 -856 
Q 2344 -856 2625 -561 
Q 2906 -266 2906 331 
L 2906 616 
Q 2728 306 2450 153 
Q 2172 0 1784 0 
Q 1141 0 747 490 
Q 353 981 353 1791 
Q 353 2603 747 3093 
Q 1141 3584 1784 3584 
Q 2172 3584 2450 3431 
Q 2728 3278 2906 2969 
L 2906 3500 
L 3481 3500 
L 3481 434 
z
" transform="scale(0.015625)"/>
     <path id="DejaVuSans-3a" d="M 750 794 
L 1409 794 
L 1409 0 
L 750 0 
L 750 794 
z
M 750 3309 
L 1409 3309 
L 1409 2516 
L 750 2516 
L 750 3309 
z
" transform="scale(0.015625)"/>
     <path id="DejaVuSans-53" d="M 3425 4513 
L 3425 3897 
Q 3066 4069 2747 4153 
Q 2428 4238 2131 4238 
Q 1616 4238 1336 4038 
Q 1056 3838 1056 3469 
Q 1056 3159 1242 3001 
Q 1428 2844 1947 2747 
L 2328 2669 
Q 3034 2534 3370 2195 
Q 3706 1856 3706 1288 
Q 3706 609 3251 259 
Q 2797 -91 1919 -91 
Q 1588 -91 1214 -16 
Q 841 59 441 206 
L 441 856 
Q 825 641 1194 531 
Q 1563 422 1919 422 
Q 2459 422 2753 634 
Q 3047 847 3047 1241 
Q 3047 1584 2836 1778 
Q 2625 1972 2144 2069 
L 1759 2144 
Q 1053 2284 737 2584 
Q 422 2884 422 3419 
Q 422 4038 858 4394 
Q 1294 4750 2059 4750 
Q 2388 4750 2728 4690 
Q 3069 4631 3425 4513 
z
" transform="scale(0.015625)"/>
    </defs>
    <use xlink:href="#DejaVuSans-41"/>
    <use xlink:href="#DejaVuSans-72" x="68.408203"/>
    <use xlink:href="#DejaVuSans-63" x="107.271484"/>
    <use xlink:href="#DejaVuSans-68" x="162.251953"/>
    <use xlink:href="#DejaVuSans-61" x="225.630859"/>
    <use xlink:href="#DejaVuSans-65" x="286.910156"/>
    <use xlink:href="#DejaVuSans-61" x="348.433594"/>
    <use xlink:href="#DejaVuSans-20" x="409.712891"/>
    <use xlink:href="#DejaVuSans-2d" x="441.5"/>
    <use xlink:href="#DejaVuSans-20" x="477.583984"/>
    <use xlink:href="#DejaVuSans-4b" x="509.371094"/>
    <use xlink:href="#DejaVuSans-65" x="569.947266"/>
    <use xlink:href="#DejaVuSans-6e" x="631.470703"/>
    <use xlink:href="#DejaVuSans-64" x="694.849609"/>
    <use xlink:href="#DejaVuSans-61" x="758.326172"/>
    <use xlink:href="#DejaVuSans-6c" x="819.605469"/>
    <use xlink:href="#DejaVuSans-6c" x="847.388672"/>
    <use xlink:href="#DejaVuSans-27" x="875.171875"/>
    <use xlink:href="#DejaVuSans-73" x="902.662109"/>
    <use xlink:href="#DejaVuSans-20" x="954.761719"/>
    <use xlink:href="#DejaVuSans-54" x="986.548828"/>
    <use xlink:href="#DejaVuSans-61" x="1031.132812"/>
    <use xlink:href="#DejaVuSans-75" x="1092.412109"/>
    <use xlink:href="#DejaVuSans-20" x="1155.791016"/>
    <use xlink:href="#DejaVuSans-63" x="1187.578125"/>
    <use xlink:href="#DejaVuSans-6f" x="1242.558594"/>
    <use xlink:href="#DejaVuSans-72" x="1303.740234"/>
    <use xlink:href="#DejaVuSans-72" x="1343.103516"/>
    <use xlink:href="#DejaVuSans-65" x="1381.966797"/>
    <use xlink:href="#DejaVuSans-6c" x="1443.490234"/>
    <use xlink:href="#DejaVuSans-61" x="1471.273438"/>
    <use xlink:href="#DejaVuSans-74" x="1532.552734"/>
    <use xlink:href="#DejaVuSans-69" x="1571.761719"/>
    <use xlink:href="#DejaVuSans-6f" x="1599.544922"/>
    <use xlink:href="#DejaVuSans-6e" x="1660.726562"/>
    <use xlink:href="#DejaVuSans-20" x="1724.105469"/>
    <use xlink:href="#DejaVuSans-63" x="1755.892578"/>
    <use xlink:href="#DejaVuSans-6f" x="1810.873047"/>
    <use xlink:href="#DejaVuSans-65" x="1872.054688"/>
    <use xlink:href="#DejaVuSans-66" x="1933.578125"/>
    <use xlink:href="#DejaVuSans-66" x="1968.783203"/>
    <use xlink:href="#DejaVuSans-69" x="2003.988281"/>
    <use xlink:href="#DejaVuSans-63" x="2031.771484"/>
    <use xlink:href="#DejaVuSans-69" x="2086.751953"/>
    <use xlink:href="#DejaVuSans-65" x="2114.535156"/>
    <use xlink:href="#DejaVuSans-6e" x="2176.058594"/>
    <use xlink:href="#DejaVuSans-74" x="2239.4375"/>
    <use xlink:href="#DejaVuSans-73" x="2278.646484"/>
    <use xlink:href="#DejaVuSans-20" x="2330.746094"/>
    <use xlink:href="#DejaVuSans-66" x="2362.533203"/>
    <use xlink:href="#DejaVuSans-6f" x="2397.738281"/>
    <use xlink:href="#DejaVuSans-72" x="2458.919922"/>
    <use xlink:href="#DejaVuSans-20" x="2500.033203"/>
    <use xlink:href="#DejaVuSans-67" x="2531.820312"/>
    <use xlink:href="#DejaVuSans-65" x="2595.296875"/>
    <use xlink:href="#DejaVuSans-6e" x="2656.820312"/>
    <use xlink:href="#DejaVuSans-65" x="2720.199219"/>
    <use xlink:href="#DejaVuSans-74" x="2781.722656"/>
    <use xlink:href="#DejaVuSans-69" x="2820.931641"/>
    <use xlink:href="#DejaVuSans-63" x="2848.714844"/>
    <use xlink:href="#DejaVuSans-20" x="2903.695312"/>
    <use xlink:href="#DejaVuSans-63" x="2935.482422"/>
    <use xlink:href="#DejaVuSans-6f" x="2990.462891"/>
    <use xlink:href="#DejaVuSans-64" x="3051.644531"/>
    <use xlink:href="#DejaVuSans-65" x="3115.121094"/>
    <use xlink:href="#DejaVuSans-3a" x="3176.644531"/>
    <use xlink:href="#DejaVuSans-20" x="3210.335938"/>
    <use xlink:href="#DejaVuSans-53" x="3242.123047"/>
    <use xlink:href="#DejaVuSans-47" x="3305.599609"/>
    <use xlink:href="#DejaVuSans-43" x="3383.089844"/>
    <use xlink:href="#DejaVuSans-6f" x="3452.914062"/>
    <use xlink:href="#DejaVuSans-64" x="3514.095703"/>
    <use xlink:href="#DejaVuSans-65" x="3577.572266"/>
   </g>
  </g>
 </g>
 <defs>
  <clipPath id="p9fe879c6f0">
   <rect x="43.78125" y="151.965714" width="773.450714" height="490.900952"/>
  </clipPath>
  <clipPath id="pce71458f9f">
   <rect x="43.78125" y="50.4" width="773.450714" height="84.638095"/>
  </clipPath>
  <clipPath id="pb41f249004">
   <rect x="843.902679" y="151.965714" width="133.353571" height="490.900952"/>
  </clipPath>
 </defs>
</svg>
