<?xml version="1.0" encoding="utf-8" standalone="no"?>
<!DOCTYPE svg PUBLIC "-//W3C//DTD SVG 1.1//EN"
  "http://www.w3.org/Graphics/SVG/1.1/DTD/svg11.dtd">
<svg xmlns:xlink="http://www.w3.org/1999/xlink" width="984.45625pt" height="680.422917pt" viewBox="0 0 984.45625 680.422917" xmlns="http://www.w3.org/2000/svg" version="1.1">
 <metadata>
  <rdf:RDF xmlns:dc="http://purl.org/dc/elements/1.1/" xmlns:cc="http://creativecommons.org/ns#" xmlns:rdf="http://www.w3.org/1999/02/22-rdf-syntax-ns#">
   <cc:Work>
    <dc:type rdf:resource="http://purl.org/dc/dcmitype/StillImage"/>
    <dc:date>2025-01-28T17:04:55.435304</dc:date>
    <dc:format>image/svg+xml</dc:format>
    <dc:creator>
     <cc:Agent>
      <dc:title>Matplotlib v3.6.3, https://matplotlib.org/</dc:title>
     </cc:Agent>
    </dc:creator>
   </cc:Work>
  </rdf:RDF>
 </metadata>
 <defs>
  <style type="text/css">*{stroke-linejoin: round; stroke-linecap: butt}</style>
 </defs>
 <g id="figure_1">
  <g id="patch_1">
   <path d="M 0 680.422917 
L 984.45625 680.422917 
L 984.45625 0 
L 0 0 
z
" style="fill: #ffffff"/>
  </g>
  <g id="axes_1">
   <g id="patch_2">
    <path d="M 43.78125 642.866667 
L 817.231964 642.866667 
L 817.231964 151.965714 
L 43.78125 151.965714 
z
" style="fill: #ffffff"/>
   </g>
   <g id="PathCollection_1">
    <defs>
     <path id="m706411daf9" d="M 0 3 
C 0.795609 3 1.55874 2.683901 2.12132 2.12132 
C 2.683901 1.55874 3 0.795609 3 0 
C 3 -0.795609 2.683901 -1.55874 2.12132 -2.12132 
C 1.55874 -2.683901 0.795609 -3 0 -3 
C -0.795609 -3 -1.55874 -2.683901 -2.12132 -2.12132 
C -2.683901 -1.55874 -3 -0.795609 -3 0 
C -3 0.795609 -2.683901 1.55874 -2.12132 2.12132 
C -1.55874 2.683901 -0.795609 3 0 3 
z
" style="stroke: #000000; stroke-opacity: 0.5"/>
    </defs>
    <g clip-path="url(#p4508dc6e50)">
     <use xlink:href="#m706411daf9" x="342.846231" y="458.028435" style="fill: #4169e1; fill-opacity: 0.5; stroke: #000000; stroke-opacity: 0.5"/>
     <use xlink:href="#m706411daf9" x="368.895453" y="305.716777" style="fill: #4169e1; fill-opacity: 0.5; stroke: #000000; stroke-opacity: 0.5"/>
     <use xlink:href="#m706411daf9" x="380.076906" y="324.27576" style="fill: #4169e1; fill-opacity: 0.5; stroke: #000000; stroke-opacity: 0.5"/>
     <use xlink:href="#m706411daf9" x="379.644972" y="439.469452" style="fill: #4169e1; fill-opacity: 0.5; stroke: #000000; stroke-opacity: 0.5"/>
     <use xlink:href="#m706411daf9" x="408.620871" y="353.714148" style="fill: #4169e1; fill-opacity: 0.5; stroke: #000000; stroke-opacity: 0.5"/>
     <use xlink:href="#m706411daf9" x="317.633689" y="423.470328" style="fill: #4169e1; fill-opacity: 0.5; stroke: #000000; stroke-opacity: 0.5"/>
     <use xlink:href="#m706411daf9" x="419.357518" y="409.391099" style="fill: #4169e1; fill-opacity: 0.5; stroke: #000000; stroke-opacity: 0.5"/>
     <use xlink:href="#m706411daf9" x="389.340914" y="373.553062" style="fill: #4169e1; fill-opacity: 0.5; stroke: #000000; stroke-opacity: 0.5"/>
     <use xlink:href="#m706411daf9" x="602.415657" y="251.959721" style="fill: #4169e1; fill-opacity: 0.5; stroke: #000000; stroke-opacity: 0.5"/>
     <use xlink:href="#m706411daf9" x="196.891875" y="595.995619" style="fill: #4169e1; fill-opacity: 0.5; stroke: #000000; stroke-opacity: 0.5"/>
     <use xlink:href="#m706411daf9" x="271.166585" y="479.321503" style="fill: #4169e1; fill-opacity: 0.5; stroke: #000000; stroke-opacity: 0.5"/>
     <use xlink:href="#m706411daf9" x="432.925299" y="338.354989" style="fill: #4169e1; fill-opacity: 0.5; stroke: #000000; stroke-opacity: 0.5"/>
     <use xlink:href="#m706411daf9" x="333.356849" y="404.18408" style="fill: #4169e1; fill-opacity: 0.5; stroke: #000000; stroke-opacity: 0.5"/>
     <use xlink:href="#m706411daf9" x="363.272853" y="494.506437" style="fill: #4169e1; fill-opacity: 0.5; stroke: #000000; stroke-opacity: 0.5"/>
     <use xlink:href="#m706411daf9" x="411.373988" y="508.585666" style="fill: #4169e1; fill-opacity: 0.5; stroke: #000000; stroke-opacity: 0.5"/>
     <use xlink:href="#m706411daf9" x="365.75493" y="290.357618" style="fill: #4169e1; fill-opacity: 0.5; stroke: #000000; stroke-opacity: 0.5"/>
     <use xlink:href="#m706411daf9" x="345.140675" y="412.590924" style="fill: #4169e1; fill-opacity: 0.5; stroke: #000000; stroke-opacity: 0.5"/>
     <use xlink:href="#m706411daf9" x="476.909403" y="362.673657" style="fill: #4169e1; fill-opacity: 0.5; stroke: #000000; stroke-opacity: 0.5"/>
     <use xlink:href="#m706411daf9" x="341.56926" y="362.673657" style="fill: #4169e1; fill-opacity: 0.5; stroke: #000000; stroke-opacity: 0.5"/>
     <use xlink:href="#m706411daf9" x="382.434037" y="564.902582" style="fill: #4169e1; fill-opacity: 0.5; stroke: #000000; stroke-opacity: 0.5"/>
     <use xlink:href="#m706411daf9" x="418.420488" y="294.837372" style="fill: #4169e1; fill-opacity: 0.5; stroke: #000000; stroke-opacity: 0.5"/>
     <use xlink:href="#m706411daf9" x="384.820368" y="276.918354" style="fill: #4169e1; fill-opacity: 0.5; stroke: #000000; stroke-opacity: 0.5"/>
     <use xlink:href="#m706411daf9" x="370.885977" y="353.714148" style="fill: #4169e1; fill-opacity: 0.5; stroke: #000000; stroke-opacity: 0.5"/>
     <use xlink:href="#m706411daf9" x="389.261422" y="484.266998" style="fill: #4169e1; fill-opacity: 0.5; stroke: #000000; stroke-opacity: 0.5"/>
     <use xlink:href="#m706411daf9" x="563.124013" y="215.481718" style="fill: #4169e1; fill-opacity: 0.5; stroke: #000000; stroke-opacity: 0.5"/>
     <use xlink:href="#m706411daf9" x="395.439242" y="360.113798" style="fill: #4169e1; fill-opacity: 0.5; stroke: #000000; stroke-opacity: 0.5"/>
     <use xlink:href="#m706411daf9" x="407.458966" y="360.753762" style="fill: #4169e1; fill-opacity: 0.5; stroke: #000000; stroke-opacity: 0.5"/>
     <use xlink:href="#m706411daf9" x="194.444435" y="349.930872" style="fill: #4169e1; fill-opacity: 0.5; stroke: #000000; stroke-opacity: 0.5"/>
     <use xlink:href="#m706411daf9" x="468.142657" y="405.551309" style="fill: #4169e1; fill-opacity: 0.5; stroke: #000000; stroke-opacity: 0.5"/>
     <use xlink:href="#m706411daf9" x="370.81006" y="290.357618" style="fill: #4169e1; fill-opacity: 0.5; stroke: #000000; stroke-opacity: 0.5"/>
     <use xlink:href="#m706411daf9" x="782.075114" y="415.130912" style="fill: #4169e1; fill-opacity: 0.5; stroke: #000000; stroke-opacity: 0.5"/>
     <use xlink:href="#m706411daf9" x="78.938101" y="402.991449" style="fill: #4169e1; fill-opacity: 0.5; stroke: #000000; stroke-opacity: 0.5"/>
     <use xlink:href="#m706411daf9" x="395.331086" y="337.715024" style="fill: #4169e1; fill-opacity: 0.5; stroke: #000000; stroke-opacity: 0.5"/>
     <use xlink:href="#m706411daf9" x="411.825114" y="458.028435" style="fill: #4169e1; fill-opacity: 0.5; stroke: #000000; stroke-opacity: 0.5"/>
     <use xlink:href="#m706411daf9" x="384.217237" y="371.633167" style="fill: #4169e1; fill-opacity: 0.5; stroke: #000000; stroke-opacity: 0.5"/>
     <use xlink:href="#m706411daf9" x="431.749635" y="353.074183" style="fill: #4169e1; fill-opacity: 0.5; stroke: #000000; stroke-opacity: 0.5"/>
     <use xlink:href="#m706411daf9" x="355.551936" y="469.547804" style="fill: #4169e1; fill-opacity: 0.5; stroke: #000000; stroke-opacity: 0.5"/>
     <use xlink:href="#m706411daf9" x="433.130842" y="357.553938" style="fill: #4169e1; fill-opacity: 0.5; stroke: #000000; stroke-opacity: 0.5"/>
     <use xlink:href="#m706411daf9" x="413.718106" y="276.278389" style="fill: #4169e1; fill-opacity: 0.5; stroke: #000000; stroke-opacity: 0.5"/>
     <use xlink:href="#m706411daf9" x="191.984011" y="442.671086" style="fill: #4169e1; fill-opacity: 0.5; stroke: #000000; stroke-opacity: 0.5"/>
     <use xlink:href="#m706411daf9" x="299.60158" y="394.671905" style="fill: #4169e1; fill-opacity: 0.5; stroke: #000000; stroke-opacity: 0.5"/>
     <use xlink:href="#m706411daf9" x="304.114161" y="397.231765" style="fill: #4169e1; fill-opacity: 0.5; stroke: #000000; stroke-opacity: 0.5"/>
     <use xlink:href="#m706411daf9" x="400.342233" y="253.879615" style="fill: #4169e1; fill-opacity: 0.5; stroke: #000000; stroke-opacity: 0.5"/>
     <use xlink:href="#m706411daf9" x="396.987113" y="431.149907" style="fill: #4169e1; fill-opacity: 0.5; stroke: #000000; stroke-opacity: 0.5"/>
     <use xlink:href="#m706411daf9" x="506.623663" y="385.712396" style="fill: #4169e1; fill-opacity: 0.5; stroke: #000000; stroke-opacity: 0.5"/>
     <use xlink:href="#m706411daf9" x="411.569871" y="400.43159" style="fill: #4169e1; fill-opacity: 0.5; stroke: #000000; stroke-opacity: 0.5"/>
     <use xlink:href="#m706411daf9" x="406.406549" y="287.2598" style="fill: #4169e1; fill-opacity: 0.5; stroke: #000000; stroke-opacity: 0.5"/>
     <use xlink:href="#m706411daf9" x="449.215025" y="394.671905" style="fill: #4169e1; fill-opacity: 0.5; stroke: #000000; stroke-opacity: 0.5"/>
     <use xlink:href="#m706411daf9" x="363.153159" y="353.714148" style="fill: #4169e1; fill-opacity: 0.5; stroke: #000000; stroke-opacity: 0.5"/>
     <use xlink:href="#m706411daf9" x="346.849633" y="290.357618" style="fill: #4169e1; fill-opacity: 0.5; stroke: #000000; stroke-opacity: 0.5"/>
     <use xlink:href="#m706411daf9" x="471.111372" y="338.994954" style="fill: #4169e1; fill-opacity: 0.5; stroke: #000000; stroke-opacity: 0.5"/>
     <use xlink:href="#m706411daf9" x="411.430984" y="386.992326" style="fill: #4169e1; fill-opacity: 0.5; stroke: #000000; stroke-opacity: 0.5"/>
     <use xlink:href="#m706411daf9" x="459.447792" y="489.386718" style="fill: #4169e1; fill-opacity: 0.5; stroke: #000000; stroke-opacity: 0.5"/>
     <use xlink:href="#m706411daf9" x="200.538988" y="513.705386" style="fill: #4169e1; fill-opacity: 0.5; stroke: #000000; stroke-opacity: 0.5"/>
     <use xlink:href="#m706411daf9" x="190.130089" y="461.868225" style="fill: #4169e1; fill-opacity: 0.5; stroke: #000000; stroke-opacity: 0.5"/>
     <use xlink:href="#m706411daf9" x="472.205067" y="356.274008" style="fill: #4169e1; fill-opacity: 0.5; stroke: #000000; stroke-opacity: 0.5"/>
     <use xlink:href="#m706411daf9" x="394.231203" y="481.067173" style="fill: #4169e1; fill-opacity: 0.5; stroke: #000000; stroke-opacity: 0.5"/>
     <use xlink:href="#m706411daf9" x="419.428725" y="477.975618" style="fill: #4169e1; fill-opacity: 0.5; stroke: #000000; stroke-opacity: 0.5"/>
     <use xlink:href="#m706411daf9" x="429.342489" y="380.592676" style="fill: #4169e1; fill-opacity: 0.5; stroke: #000000; stroke-opacity: 0.5"/>
     <use xlink:href="#m706411daf9" x="426.363664" y="274.998459" style="fill: #4169e1; fill-opacity: 0.5; stroke: #000000; stroke-opacity: 0.5"/>
     <use xlink:href="#m706411daf9" x="346.669147" y="401.711519" style="fill: #4169e1; fill-opacity: 0.5; stroke: #000000; stroke-opacity: 0.5"/>
     <use xlink:href="#m706411daf9" x="422.440351" y="501.449266" style="fill: #4169e1; fill-opacity: 0.5; stroke: #000000; stroke-opacity: 0.5"/>
     <use xlink:href="#m706411daf9" x="326.63958" y="338.354989" style="fill: #4169e1; fill-opacity: 0.5; stroke: #000000; stroke-opacity: 0.5"/>
     <use xlink:href="#m706411daf9" x="403.400345" y="308.916601" style="fill: #4169e1; fill-opacity: 0.5; stroke: #000000; stroke-opacity: 0.5"/>
     <use xlink:href="#m706411daf9" x="412.99973" y="254.51958" style="fill: #4169e1; fill-opacity: 0.5; stroke: #000000; stroke-opacity: 0.5"/>
     <use xlink:href="#m706411daf9" x="370.059853" y="570.826791" style="fill: #4169e1; fill-opacity: 0.5; stroke: #000000; stroke-opacity: 0.5"/>
     <use xlink:href="#m706411daf9" x="416.397415" y="554.648854" style="fill: #4169e1; fill-opacity: 0.5; stroke: #000000; stroke-opacity: 0.5"/>
    </g>
   </g>
   <g id="PathCollection_2">
    <defs>
     <path id="m568c8c39ba" d="M 0 3 
C 0.795609 3 1.55874 2.683901 2.12132 2.12132 
C 2.683901 1.55874 3 0.795609 3 0 
C 3 -0.795609 2.683901 -1.55874 2.12132 -2.12132 
C 1.55874 -2.683901 0.795609 -3 0 -3 
C -0.795609 -3 -1.55874 -2.683901 -2.12132 -2.12132 
C -2.683901 -1.55874 -3 -0.795609 -3 0 
C -3 0.795609 -2.683901 1.55874 -2.12132 2.12132 
C -1.55874 2.683901 -0.795609 3 0 3 
z
" style="stroke: #000000; stroke-opacity: 0.5"/>
    </defs>
    <g clip-path="url(#p4508dc6e50)">
     <use xlink:href="#m568c8c39ba" x="342.846231" y="448.233623" style="fill: #ff8c00; fill-opacity: 0.5; stroke: #000000; stroke-opacity: 0.5"/>
     <use xlink:href="#m568c8c39ba" x="368.895453" y="349.060157" style="fill: #ff8c00; fill-opacity: 0.5; stroke: #000000; stroke-opacity: 0.5"/>
     <use xlink:href="#m568c8c39ba" x="380.076906" y="356.406339" style="fill: #ff8c00; fill-opacity: 0.5; stroke: #000000; stroke-opacity: 0.5"/>
     <use xlink:href="#m568c8c39ba" x="379.644972" y="405.993073" style="fill: #ff8c00; fill-opacity: 0.5; stroke: #000000; stroke-opacity: 0.5"/>
     <use xlink:href="#m568c8c39ba" x="408.620871" y="336.816519" style="fill: #ff8c00; fill-opacity: 0.5; stroke: #000000; stroke-opacity: 0.5"/>
     <use xlink:href="#m568c8c39ba" x="317.633689" y="381.505797" style="fill: #ff8c00; fill-opacity: 0.5; stroke: #000000; stroke-opacity: 0.5"/>
     <use xlink:href="#m568c8c39ba" x="419.357518" y="338.653064" style="fill: #ff8c00; fill-opacity: 0.5; stroke: #000000; stroke-opacity: 0.5"/>
     <use xlink:href="#m568c8c39ba" x="389.340914" y="347.835793" style="fill: #ff8c00; fill-opacity: 0.5; stroke: #000000; stroke-opacity: 0.5"/>
     <use xlink:href="#m568c8c39ba" x="602.415657" y="363.14034" style="fill: #ff8c00; fill-opacity: 0.5; stroke: #000000; stroke-opacity: 0.5"/>
     <use xlink:href="#m568c8c39ba" x="196.891875" y="503.215752" style="fill: #ff8c00; fill-opacity: 0.5; stroke: #000000; stroke-opacity: 0.5"/>
     <use xlink:href="#m568c8c39ba" x="271.166585" y="488.189113" style="fill: #ff8c00; fill-opacity: 0.5; stroke: #000000; stroke-opacity: 0.5"/>
     <use xlink:href="#m568c8c39ba" x="432.925299" y="341.713974" style="fill: #ff8c00; fill-opacity: 0.5; stroke: #000000; stroke-opacity: 0.5"/>
     <use xlink:href="#m568c8c39ba" x="333.356849" y="462.783286" style="fill: #ff8c00; fill-opacity: 0.5; stroke: #000000; stroke-opacity: 0.5"/>
     <use xlink:href="#m568c8c39ba" x="363.272853" y="521.083269" style="fill: #ff8c00; fill-opacity: 0.5; stroke: #000000; stroke-opacity: 0.5"/>
     <use xlink:href="#m568c8c39ba" x="411.373988" y="464.150353" style="fill: #ff8c00; fill-opacity: 0.5; stroke: #000000; stroke-opacity: 0.5"/>
     <use xlink:href="#m568c8c39ba" x="365.75493" y="316.002334" style="fill: #ff8c00; fill-opacity: 0.5; stroke: #000000; stroke-opacity: 0.5"/>
     <use xlink:href="#m568c8c39ba" x="345.140675" y="390.688525" style="fill: #ff8c00; fill-opacity: 0.5; stroke: #000000; stroke-opacity: 0.5"/>
     <use xlink:href="#m568c8c39ba" x="476.909403" y="428.031621" style="fill: #ff8c00; fill-opacity: 0.5; stroke: #000000; stroke-opacity: 0.5"/>
     <use xlink:href="#m568c8c39ba" x="341.56926" y="341.101792" style="fill: #ff8c00; fill-opacity: 0.5; stroke: #000000; stroke-opacity: 0.5"/>
     <use xlink:href="#m568c8c39ba" x="382.434037" y="440.887441" style="fill: #ff8c00; fill-opacity: 0.5; stroke: #000000; stroke-opacity: 0.5"/>
     <use xlink:href="#m568c8c39ba" x="418.420488" y="298.249059" style="fill: #ff8c00; fill-opacity: 0.5; stroke: #000000; stroke-opacity: 0.5"/>
     <use xlink:href="#m568c8c39ba" x="384.820368" y="266.415601" style="fill: #ff8c00; fill-opacity: 0.5; stroke: #000000; stroke-opacity: 0.5"/>
     <use xlink:href="#m568c8c39ba" x="370.885977" y="410.890528" style="fill: #ff8c00; fill-opacity: 0.5; stroke: #000000; stroke-opacity: 0.5"/>
     <use xlink:href="#m568c8c39ba" x="389.261422" y="407.829618" style="fill: #ff8c00; fill-opacity: 0.5; stroke: #000000; stroke-opacity: 0.5"/>
     <use xlink:href="#m568c8c39ba" x="563.124013" y="261.518146" style="fill: #ff8c00; fill-opacity: 0.5; stroke: #000000; stroke-opacity: 0.5"/>
     <use xlink:href="#m568c8c39ba" x="395.439242" y="377.832706" style="fill: #ff8c00; fill-opacity: 0.5; stroke: #000000; stroke-opacity: 0.5"/>
     <use xlink:href="#m568c8c39ba" x="407.458966" y="398.034708" style="fill: #ff8c00; fill-opacity: 0.5; stroke: #000000; stroke-opacity: 0.5"/>
     <use xlink:href="#m568c8c39ba" x="194.444435" y="390.456897" style="fill: #ff8c00; fill-opacity: 0.5; stroke: #000000; stroke-opacity: 0.5"/>
     <use xlink:href="#m568c8c39ba" x="468.142657" y="369.874341" style="fill: #ff8c00; fill-opacity: 0.5; stroke: #000000; stroke-opacity: 0.5"/>
     <use xlink:href="#m568c8c39ba" x="370.81006" y="334.979973" style="fill: #ff8c00; fill-opacity: 0.5; stroke: #000000; stroke-opacity: 0.5"/>
     <use xlink:href="#m568c8c39ba" x="782.075114" y="445.774182" style="fill: #ff8c00; fill-opacity: 0.5; stroke: #000000; stroke-opacity: 0.5"/>
     <use xlink:href="#m568c8c39ba" x="78.938101" y="359.467249" style="fill: #ff8c00; fill-opacity: 0.5; stroke: #000000; stroke-opacity: 0.5"/>
     <use xlink:href="#m568c8c39ba" x="395.331086" y="385.79107" style="fill: #ff8c00; fill-opacity: 0.5; stroke: #000000; stroke-opacity: 0.5"/>
     <use xlink:href="#m568c8c39ba" x="411.825114" y="421.29762" style="fill: #ff8c00; fill-opacity: 0.5; stroke: #000000; stroke-opacity: 0.5"/>
     <use xlink:href="#m568c8c39ba" x="384.217237" y="412.114892" style="fill: #ff8c00; fill-opacity: 0.5; stroke: #000000; stroke-opacity: 0.5"/>
     <use xlink:href="#m568c8c39ba" x="431.749635" y="360.079431" style="fill: #ff8c00; fill-opacity: 0.5; stroke: #000000; stroke-opacity: 0.5"/>
     <use xlink:href="#m568c8c39ba" x="355.551936" y="433.541258" style="fill: #ff8c00; fill-opacity: 0.5; stroke: #000000; stroke-opacity: 0.5"/>
     <use xlink:href="#m568c8c39ba" x="433.130842" y="350.28452" style="fill: #ff8c00; fill-opacity: 0.5; stroke: #000000; stroke-opacity: 0.5"/>
     <use xlink:href="#m568c8c39ba" x="413.718106" y="310.492697" style="fill: #ff8c00; fill-opacity: 0.5; stroke: #000000; stroke-opacity: 0.5"/>
     <use xlink:href="#m568c8c39ba" x="191.984011" y="473.669307" style="fill: #ff8c00; fill-opacity: 0.5; stroke: #000000; stroke-opacity: 0.5"/>
     <use xlink:href="#m568c8c39ba" x="299.60158" y="385.79107" style="fill: #ff8c00; fill-opacity: 0.5; stroke: #000000; stroke-opacity: 0.5"/>
     <use xlink:href="#m568c8c39ba" x="304.114161" y="376.608342" style="fill: #ff8c00; fill-opacity: 0.5; stroke: #000000; stroke-opacity: 0.5"/>
     <use xlink:href="#m568c8c39ba" x="400.342233" y="300.085605" style="fill: #ff8c00; fill-opacity: 0.5; stroke: #000000; stroke-opacity: 0.5"/>
     <use xlink:href="#m568c8c39ba" x="396.987113" y="480.067082" style="fill: #ff8c00; fill-opacity: 0.5; stroke: #000000; stroke-opacity: 0.5"/>
     <use xlink:href="#m568c8c39ba" x="506.623663" y="301.309969" style="fill: #ff8c00; fill-opacity: 0.5; stroke: #000000; stroke-opacity: 0.5"/>
     <use xlink:href="#m568c8c39ba" x="411.569871" y="439.663077" style="fill: #ff8c00; fill-opacity: 0.5; stroke: #000000; stroke-opacity: 0.5"/>
     <use xlink:href="#m568c8c39ba" x="406.406549" y="282.112419" style="fill: #ff8c00; fill-opacity: 0.5; stroke: #000000; stroke-opacity: 0.5"/>
     <use xlink:href="#m568c8c39ba" x="449.215025" y="374.771796" style="fill: #ff8c00; fill-opacity: 0.5; stroke: #000000; stroke-opacity: 0.5"/>
     <use xlink:href="#m568c8c39ba" x="363.153159" y="363.752522" style="fill: #ff8c00; fill-opacity: 0.5; stroke: #000000; stroke-opacity: 0.5"/>
     <use xlink:href="#m568c8c39ba" x="346.849633" y="328.858154" style="fill: #ff8c00; fill-opacity: 0.5; stroke: #000000; stroke-opacity: 0.5"/>
     <use xlink:href="#m568c8c39ba" x="471.111372" y="358.242885" style="fill: #ff8c00; fill-opacity: 0.5; stroke: #000000; stroke-opacity: 0.5"/>
     <use xlink:href="#m568c8c39ba" x="411.430984" y="324.572881" style="fill: #ff8c00; fill-opacity: 0.5; stroke: #000000; stroke-opacity: 0.5"/>
     <use xlink:href="#m568c8c39ba" x="459.447792" y="519.246723" style="fill: #ff8c00; fill-opacity: 0.5; stroke: #000000; stroke-opacity: 0.5"/>
     <use xlink:href="#m568c8c39ba" x="200.538988" y="453.743261" style="fill: #ff8c00; fill-opacity: 0.5; stroke: #000000; stroke-opacity: 0.5"/>
     <use xlink:href="#m568c8c39ba" x="190.130089" y="414.563619" style="fill: #ff8c00; fill-opacity: 0.5; stroke: #000000; stroke-opacity: 0.5"/>
     <use xlink:href="#m568c8c39ba" x="472.205067" y="340.48961" style="fill: #ff8c00; fill-opacity: 0.5; stroke: #000000; stroke-opacity: 0.5"/>
     <use xlink:href="#m568c8c39ba" x="394.231203" y="502.10563" style="fill: #ff8c00; fill-opacity: 0.5; stroke: #000000; stroke-opacity: 0.5"/>
     <use xlink:href="#m568c8c39ba" x="419.428725" y="605.388667" style="fill: #ff8c00; fill-opacity: 0.5; stroke: #000000; stroke-opacity: 0.5"/>
     <use xlink:href="#m568c8c39ba" x="429.342489" y="358.242885" style="fill: #ff8c00; fill-opacity: 0.5; stroke: #000000; stroke-opacity: 0.5"/>
     <use xlink:href="#m568c8c39ba" x="426.363664" y="336.816519" style="fill: #ff8c00; fill-opacity: 0.5; stroke: #000000; stroke-opacity: 0.5"/>
     <use xlink:href="#m568c8c39ba" x="346.669147" y="449.457987" style="fill: #ff8c00; fill-opacity: 0.5; stroke: #000000; stroke-opacity: 0.5"/>
     <use xlink:href="#m568c8c39ba" x="422.440351" y="545.891676" style="fill: #ff8c00; fill-opacity: 0.5; stroke: #000000; stroke-opacity: 0.5"/>
     <use xlink:href="#m568c8c39ba" x="326.63958" y="349.672338" style="fill: #ff8c00; fill-opacity: 0.5; stroke: #000000; stroke-opacity: 0.5"/>
     <use xlink:href="#m568c8c39ba" x="403.400345" y="344.774883" style="fill: #ff8c00; fill-opacity: 0.5; stroke: #000000; stroke-opacity: 0.5"/>
     <use xlink:href="#m568c8c39ba" x="412.99973" y="281.107966" style="fill: #ff8c00; fill-opacity: 0.5; stroke: #000000; stroke-opacity: 0.5"/>
     <use xlink:href="#m568c8c39ba" x="370.059853" y="620.552987" style="fill: #ff8c00; fill-opacity: 0.5; stroke: #000000; stroke-opacity: 0.5"/>
     <use xlink:href="#m568c8c39ba" x="416.397415" y="404.689616" style="fill: #ff8c00; fill-opacity: 0.5; stroke: #000000; stroke-opacity: 0.5"/>
    </g>
   </g>
   <g id="PolyCollection_1">
    <path d="M 78.938101 407.836414 
L 78.938101 552.869788 
L 86.040495 549.250081 
L 93.142889 545.630374 
L 100.245283 542.002139 
L 107.347677 537.918174 
L 114.450071 533.74134 
L 121.552465 529.677966 
L 128.654859 526.310615 
L 135.757253 522.941842 
L 142.859647 519.573068 
L 149.962041 516.204295 
L 157.064435 512.496669 
L 164.166829 508.75719 
L 171.269224 504.89731 
L 178.371618 501.258105 
L 185.474012 497.51983 
L 192.576406 493.778525 
L 199.6788 490.239883 
L 206.781194 486.885393 
L 213.883588 482.905298 
L 220.985982 478.924973 
L 228.088376 475.080515 
L 235.19077 471.331702 
L 242.293164 467.582889 
L 249.395558 463.824232 
L 256.497952 460.077484 
L 263.600346 456.71381 
L 270.702741 453.428759 
L 277.805135 450.032211 
L 284.907529 446.623991 
L 292.009923 443.467312 
L 299.112317 439.8407 
L 306.214711 436.43341 
L 313.317105 433.514349 
L 320.419499 429.997042 
L 327.521893 427.377669 
L 334.624287 424.185442 
L 341.726681 421.968925 
L 348.829075 419.574204 
L 355.931469 417.366036 
L 363.033863 415.431205 
L 370.136258 412.504547 
L 377.238652 410.332474 
L 384.341046 408.469043 
L 391.44344 407.099121 
L 398.545834 405.796939 
L 405.648228 404.346872 
L 412.750622 402.692357 
L 419.853016 401.305186 
L 426.95541 399.625761 
L 434.057804 398.329185 
L 441.160198 397.039983 
L 448.262592 395.645394 
L 455.364986 394.33962 
L 462.46738 393.337793 
L 469.569775 392.074072 
L 476.672169 391.121197 
L 483.774563 389.915151 
L 490.876957 388.69931 
L 497.979351 387.510628 
L 505.081745 386.5832 
L 512.184139 385.651796 
L 519.286533 384.903825 
L 526.388927 384.152922 
L 533.491321 383.47348 
L 540.593715 382.80892 
L 547.696109 382.104451 
L 554.798503 381.606049 
L 561.900897 381.043043 
L 569.003292 380.446853 
L 576.105686 379.998611 
L 583.20808 379.43718 
L 590.310474 379.082066 
L 597.412868 378.669109 
L 604.515262 378.232874 
L 611.617656 377.790218 
L 618.72005 377.347446 
L 625.822444 376.904674 
L 632.924838 376.461901 
L 640.027232 376.019129 
L 647.129626 375.567653 
L 654.23202 374.913536 
L 661.334414 374.054634 
L 668.436809 373.195731 
L 675.539203 372.496487 
L 682.641597 372.497691 
L 689.743991 372.023147 
L 696.846385 371.046633 
L 703.948779 370.387471 
L 711.051173 369.903129 
L 718.153567 369.2322 
L 725.255961 368.724468 
L 732.358355 368.333659 
L 739.460749 367.93443 
L 746.563143 367.482685 
L 753.665537 366.649611 
L 760.767931 366.036237 
L 767.870325 365.253643 
L 774.97272 364.525464 
L 782.075114 363.934965 
L 782.075114 174.279394 
L 782.075114 174.279394 
L 774.97272 178.179731 
L 767.870325 182.080067 
L 760.767931 185.980404 
L 753.665537 189.88074 
L 746.563143 193.781077 
L 739.460749 197.681414 
L 732.358355 201.58175 
L 725.255961 205.244628 
L 718.153567 208.867605 
L 711.051173 212.490582 
L 703.948779 216.113559 
L 696.846385 219.736536 
L 689.743991 223.362493 
L 682.641597 227.224948 
L 675.539203 231.307986 
L 668.436809 235.396919 
L 661.334414 239.485852 
L 654.23202 243.27058 
L 647.129626 247.388825 
L 640.027232 251.50707 
L 632.924838 255.631071 
L 625.822444 258.817701 
L 618.72005 262.039729 
L 611.617656 265.976739 
L 604.515262 269.919001 
L 597.412868 273.461313 
L 590.310474 277.241201 
L 583.20808 281.123895 
L 576.105686 285.221151 
L 569.003292 288.869533 
L 561.900897 292.733186 
L 554.798503 296.473967 
L 547.696109 300.064697 
L 540.593715 303.665915 
L 533.491321 307.428403 
L 526.388927 310.865397 
L 519.286533 314.659642 
L 512.184139 318.045248 
L 505.081745 321.451676 
L 497.979351 324.468792 
L 490.876957 327.568933 
L 483.774563 332.281333 
L 476.672169 335.286319 
L 469.569775 338.763027 
L 462.46738 342.50177 
L 455.364986 346.05019 
L 448.262592 349.437158 
L 441.160198 352.495397 
L 434.057804 354.816662 
L 426.95541 357.702705 
L 419.853016 360.105329 
L 412.750622 362.451292 
L 405.648228 364.700058 
L 398.545834 366.9695 
L 391.44344 369.287185 
L 384.341046 371.570813 
L 377.238652 373.630886 
L 370.136258 374.671779 
L 363.033863 376.347805 
L 355.931469 377.525353 
L 348.829075 378.597915 
L 341.726681 380.392958 
L 334.624287 381.818938 
L 327.521893 382.845262 
L 320.419499 383.644073 
L 313.317105 384.676627 
L 306.214711 385.545126 
L 299.112317 386.406941 
L 292.009923 387.702585 
L 284.907529 388.904432 
L 277.805135 389.682975 
L 270.702741 390.500478 
L 263.600346 391.285052 
L 256.497952 392.093967 
L 249.395558 392.452383 
L 242.293164 393.280783 
L 235.19077 394.366444 
L 228.088376 395.096707 
L 220.985982 396.011262 
L 213.883588 396.865105 
L 206.781194 397.320181 
L 199.6788 398.054418 
L 192.576406 398.505863 
L 185.474012 399.074803 
L 178.371618 399.813657 
L 171.269224 400.343625 
L 164.166829 401.128749 
L 157.064435 401.811979 
L 149.962041 402.462671 
L 142.859647 403.011819 
L 135.757253 403.607386 
L 128.654859 404.162101 
L 121.552465 404.611738 
L 114.450071 405.145083 
L 107.347677 405.681657 
L 100.245283 406.220346 
L 93.142889 406.759035 
L 86.040495 407.297725 
L 78.938101 407.836414 
z
" clip-path="url(#p4508dc6e50)" style="fill: #1f77b4; fill-opacity: 0.15"/>
   </g>
   <g id="PolyCollection_2">
    <path d="M 78.938101 383.793333 
L 78.938101 500.73373 
L 86.040495 498.153688 
L 93.142889 495.573646 
L 100.245283 492.993604 
L 107.347677 490.413562 
L 114.450071 487.83352 
L 121.552465 485.527105 
L 128.654859 483.24209 
L 135.757253 480.736863 
L 142.859647 478.231635 
L 149.962041 475.943618 
L 157.064435 473.770187 
L 164.166829 470.990083 
L 171.269224 468.524889 
L 178.371618 466.231772 
L 185.474012 463.93827 
L 192.576406 461.639998 
L 199.6788 459.330967 
L 206.781194 457.030759 
L 213.883588 454.742552 
L 220.985982 452.096177 
L 228.088376 449.972733 
L 235.19077 448.238082 
L 242.293164 445.597533 
L 249.395558 443.2608 
L 256.497952 441.023889 
L 263.600346 438.869423 
L 270.702741 436.862599 
L 277.805135 434.786494 
L 284.907529 432.69943 
L 292.009923 430.618611 
L 299.112317 428.535004 
L 306.214711 426.435635 
L 313.317105 424.366577 
L 320.419499 422.358848 
L 327.521893 420.438244 
L 334.624287 418.804205 
L 341.726681 417.258024 
L 348.829075 415.837299 
L 355.931469 414.814771 
L 363.033863 413.733158 
L 370.136258 413.009739 
L 377.238652 411.853958 
L 384.341046 411.341219 
L 391.44344 410.725273 
L 398.545834 409.532112 
L 405.648228 409.058624 
L 412.750622 408.358057 
L 419.853016 407.608814 
L 426.95541 406.643604 
L 434.057804 406.554547 
L 441.160198 406.492401 
L 448.262592 405.961408 
L 455.364986 405.759609 
L 462.46738 405.297697 
L 469.569775 404.836091 
L 476.672169 404.406439 
L 483.774563 404.204556 
L 490.876957 404.177028 
L 497.979351 404.125237 
L 505.081745 403.941233 
L 512.184139 404.197566 
L 519.286533 403.782503 
L 526.388927 403.750618 
L 533.491321 403.934179 
L 540.593715 403.601326 
L 547.696109 403.063205 
L 554.798503 402.813734 
L 561.900897 402.86383 
L 569.003292 402.867206 
L 576.105686 403.0292 
L 583.20808 403.144765 
L 590.310474 403.228623 
L 597.412868 402.840254 
L 604.515262 402.399201 
L 611.617656 401.955343 
L 618.72005 401.555949 
L 625.822444 401.812219 
L 632.924838 402.068195 
L 640.027232 401.845249 
L 647.129626 401.669261 
L 654.23202 401.474396 
L 661.334414 401.533242 
L 668.436809 401.257822 
L 675.539203 401.432462 
L 682.641597 401.713963 
L 689.743991 401.810533 
L 696.846385 401.878314 
L 703.948779 401.944571 
L 711.051173 402.016393 
L 718.153567 402.081187 
L 725.255961 401.961686 
L 732.358355 401.747956 
L 739.460749 401.534227 
L 746.563143 401.320498 
L 753.665537 401.106768 
L 760.767931 400.893039 
L 767.870325 401.128585 
L 774.97272 401.66067 
L 782.075114 402.192754 
L 782.075114 243.04188 
L 782.075114 243.04188 
L 774.97272 245.380326 
L 767.870325 247.718772 
L 760.767931 250.057218 
L 753.665537 252.395664 
L 746.563143 255.286589 
L 739.460749 258.204353 
L 732.358355 261.13659 
L 725.255961 264.068827 
L 718.153567 266.879564 
L 711.051173 269.173157 
L 703.948779 271.56083 
L 696.846385 274.448961 
L 689.743991 276.777228 
L 682.641597 279.100708 
L 675.539203 281.424187 
L 668.436809 283.747667 
L 661.334414 286.071147 
L 654.23202 288.394626 
L 647.129626 290.718106 
L 640.027232 293.046407 
L 632.924838 295.381926 
L 625.822444 297.717445 
L 618.72005 300.427377 
L 611.617656 302.934385 
L 604.515262 305.18607 
L 597.412868 307.373117 
L 590.310474 309.560164 
L 583.20808 311.962443 
L 576.105686 314.347658 
L 569.003292 316.630313 
L 561.900897 319.089794 
L 554.798503 322.215519 
L 547.696109 324.703401 
L 540.593715 326.84442 
L 533.491321 329.297935 
L 526.388927 332.126726 
L 519.286533 334.966686 
L 512.184139 337.480233 
L 505.081745 339.587668 
L 497.979351 341.695103 
L 490.876957 344.175221 
L 483.774563 346.758862 
L 476.672169 348.84859 
L 469.569775 351.153844 
L 462.46738 353.595462 
L 455.364986 356.255579 
L 448.262592 358.568592 
L 441.160198 360.189496 
L 434.057804 361.909249 
L 426.95541 364.297487 
L 419.853016 366.222793 
L 412.750622 368.10964 
L 405.648228 369.794038 
L 398.545834 371.605651 
L 391.44344 372.997125 
L 384.341046 374.375811 
L 377.238652 375.679039 
L 370.136258 377.151519 
L 363.033863 377.971758 
L 355.931469 378.753436 
L 348.829075 379.270175 
L 341.726681 380.312288 
L 334.624287 380.792355 
L 327.521893 381.353208 
L 320.419499 381.730238 
L 313.317105 382.286845 
L 306.214711 383.097931 
L 299.112317 383.324005 
L 292.009923 383.389894 
L 284.907529 383.642898 
L 277.805135 384.086131 
L 270.702741 384.268124 
L 263.600346 384.400992 
L 256.497952 384.463877 
L 249.395558 384.466324 
L 242.293164 384.630548 
L 235.19077 384.925926 
L 228.088376 385.210434 
L 220.985982 385.482061 
L 213.883588 385.284846 
L 206.781194 384.98458 
L 199.6788 384.982647 
L 192.576406 384.816948 
L 185.474012 384.753141 
L 178.371618 384.779759 
L 171.269224 384.531696 
L 164.166829 384.264249 
L 157.064435 383.996803 
L 149.962041 384.057915 
L 142.859647 384.175282 
L 135.757253 384.293336 
L 128.654859 384.405236 
L 121.552465 384.401973 
L 114.450071 384.281528 
L 107.347677 384.162895 
L 100.245283 384.046114 
L 93.142889 383.929675 
L 86.040495 383.909375 
L 78.938101 383.793333 
z
" clip-path="url(#p4508dc6e50)" style="fill: #ff7f0e; fill-opacity: 0.15"/>
   </g>
   <g id="matplotlib.axis_1">
    <g id="xtick_1">
     <g id="line2d_1">
      <defs>
       <path id="md507ba9f04" d="M 0 0 
L 0 3.5 
" style="stroke: #000000; stroke-width: 0.8"/>
      </defs>
      <g>
       <use xlink:href="#md507ba9f04" x="112.789865" y="642.866667" style="stroke: #000000; stroke-width: 0.8"/>
      </g>
     </g>
     <g id="text_1">
      <!-- 2.2 -->
      <g transform="translate(104.838303 657.465104) scale(0.1 -0.1)">
       <defs>
        <path id="DejaVuSans-32" d="M 1228 531 
L 3431 531 
L 3431 0 
L 469 0 
L 469 531 
Q 828 903 1448 1529 
Q 2069 2156 2228 2338 
Q 2531 2678 2651 2914 
Q 2772 3150 2772 3378 
Q 2772 3750 2511 3984 
Q 2250 4219 1831 4219 
Q 1534 4219 1204 4116 
Q 875 4013 500 3803 
L 500 4441 
Q 881 4594 1212 4672 
Q 1544 4750 1819 4750 
Q 2544 4750 2975 4387 
Q 3406 4025 3406 3419 
Q 3406 3131 3298 2873 
Q 3191 2616 2906 2266 
Q 2828 2175 2409 1742 
Q 1991 1309 1228 531 
z
" transform="scale(0.015625)"/>
        <path id="DejaVuSans-2e" d="M 684 794 
L 1344 794 
L 1344 0 
L 684 0 
L 684 794 
z
" transform="scale(0.015625)"/>
       </defs>
       <use xlink:href="#DejaVuSans-32"/>
       <use xlink:href="#DejaVuSans-2e" x="63.623047"/>
       <use xlink:href="#DejaVuSans-32" x="95.410156"/>
      </g>
     </g>
    </g>
    <g id="xtick_2">
     <g id="line2d_2">
      <g>
       <use xlink:href="#md507ba9f04" x="219.581185" y="642.866667" style="stroke: #000000; stroke-width: 0.8"/>
      </g>
     </g>
     <g id="text_2">
      <!-- 2.3 -->
      <g transform="translate(211.629622 657.465104) scale(0.1 -0.1)">
       <defs>
        <path id="DejaVuSans-33" d="M 2597 2516 
Q 3050 2419 3304 2112 
Q 3559 1806 3559 1356 
Q 3559 666 3084 287 
Q 2609 -91 1734 -91 
Q 1441 -91 1130 -33 
Q 819 25 488 141 
L 488 750 
Q 750 597 1062 519 
Q 1375 441 1716 441 
Q 2309 441 2620 675 
Q 2931 909 2931 1356 
Q 2931 1769 2642 2001 
Q 2353 2234 1838 2234 
L 1294 2234 
L 1294 2753 
L 1863 2753 
Q 2328 2753 2575 2939 
Q 2822 3125 2822 3475 
Q 2822 3834 2567 4026 
Q 2313 4219 1838 4219 
Q 1578 4219 1281 4162 
Q 984 4106 628 3988 
L 628 4550 
Q 988 4650 1302 4700 
Q 1616 4750 1894 4750 
Q 2613 4750 3031 4423 
Q 3450 4097 3450 3541 
Q 3450 3153 3228 2886 
Q 3006 2619 2597 2516 
z
" transform="scale(0.015625)"/>
       </defs>
       <use xlink:href="#DejaVuSans-32"/>
       <use xlink:href="#DejaVuSans-2e" x="63.623047"/>
       <use xlink:href="#DejaVuSans-33" x="95.410156"/>
      </g>
     </g>
    </g>
    <g id="xtick_3">
     <g id="line2d_3">
      <g>
       <use xlink:href="#md507ba9f04" x="326.372504" y="642.866667" style="stroke: #000000; stroke-width: 0.8"/>
      </g>
     </g>
     <g id="text_3">
      <!-- 2.4 -->
      <g transform="translate(318.420942 657.465104) scale(0.1 -0.1)">
       <defs>
        <path id="DejaVuSans-34" d="M 2419 4116 
L 825 1625 
L 2419 1625 
L 2419 4116 
z
M 2253 4666 
L 3047 4666 
L 3047 1625 
L 3713 1625 
L 3713 1100 
L 3047 1100 
L 3047 0 
L 2419 0 
L 2419 1100 
L 313 1100 
L 313 1709 
L 2253 4666 
z
" transform="scale(0.015625)"/>
       </defs>
       <use xlink:href="#DejaVuSans-32"/>
       <use xlink:href="#DejaVuSans-2e" x="63.623047"/>
       <use xlink:href="#DejaVuSans-34" x="95.410156"/>
      </g>
     </g>
    </g>
    <g id="xtick_4">
     <g id="line2d_4">
      <g>
       <use xlink:href="#md507ba9f04" x="433.163824" y="642.866667" style="stroke: #000000; stroke-width: 0.8"/>
      </g>
     </g>
     <g id="text_4">
      <!-- 2.5 -->
      <g transform="translate(425.212261 657.465104) scale(0.1 -0.1)">
       <defs>
        <path id="DejaVuSans-35" d="M 691 4666 
L 3169 4666 
L 3169 4134 
L 1269 4134 
L 1269 2991 
Q 1406 3038 1543 3061 
Q 1681 3084 1819 3084 
Q 2600 3084 3056 2656 
Q 3513 2228 3513 1497 
Q 3513 744 3044 326 
Q 2575 -91 1722 -91 
Q 1428 -91 1123 -41 
Q 819 9 494 109 
L 494 744 
Q 775 591 1075 516 
Q 1375 441 1709 441 
Q 2250 441 2565 725 
Q 2881 1009 2881 1497 
Q 2881 1984 2565 2268 
Q 2250 2553 1709 2553 
Q 1456 2553 1204 2497 
Q 953 2441 691 2322 
L 691 4666 
z
" transform="scale(0.015625)"/>
       </defs>
       <use xlink:href="#DejaVuSans-32"/>
       <use xlink:href="#DejaVuSans-2e" x="63.623047"/>
       <use xlink:href="#DejaVuSans-35" x="95.410156"/>
      </g>
     </g>
    </g>
    <g id="xtick_5">
     <g id="line2d_5">
      <g>
       <use xlink:href="#md507ba9f04" x="539.955143" y="642.866667" style="stroke: #000000; stroke-width: 0.8"/>
      </g>
     </g>
     <g id="text_5">
      <!-- 2.6 -->
      <g transform="translate(532.00358 657.465104) scale(0.1 -0.1)">
       <defs>
        <path id="DejaVuSans-36" d="M 2113 2584 
Q 1688 2584 1439 2293 
Q 1191 2003 1191 1497 
Q 1191 994 1439 701 
Q 1688 409 2113 409 
Q 2538 409 2786 701 
Q 3034 994 3034 1497 
Q 3034 2003 2786 2293 
Q 2538 2584 2113 2584 
z
M 3366 4563 
L 3366 3988 
Q 3128 4100 2886 4159 
Q 2644 4219 2406 4219 
Q 1781 4219 1451 3797 
Q 1122 3375 1075 2522 
Q 1259 2794 1537 2939 
Q 1816 3084 2150 3084 
Q 2853 3084 3261 2657 
Q 3669 2231 3669 1497 
Q 3669 778 3244 343 
Q 2819 -91 2113 -91 
Q 1303 -91 875 529 
Q 447 1150 447 2328 
Q 447 3434 972 4092 
Q 1497 4750 2381 4750 
Q 2619 4750 2861 4703 
Q 3103 4656 3366 4563 
z
" transform="scale(0.015625)"/>
       </defs>
       <use xlink:href="#DejaVuSans-32"/>
       <use xlink:href="#DejaVuSans-2e" x="63.623047"/>
       <use xlink:href="#DejaVuSans-36" x="95.410156"/>
      </g>
     </g>
    </g>
    <g id="xtick_6">
     <g id="line2d_6">
      <g>
       <use xlink:href="#md507ba9f04" x="646.746462" y="642.866667" style="stroke: #000000; stroke-width: 0.8"/>
      </g>
     </g>
     <g id="text_6">
      <!-- 2.7 -->
      <g transform="translate(638.7949 657.465104) scale(0.1 -0.1)">
       <defs>
        <path id="DejaVuSans-37" d="M 525 4666 
L 3525 4666 
L 3525 4397 
L 1831 0 
L 1172 0 
L 2766 4134 
L 525 4134 
L 525 4666 
z
" transform="scale(0.015625)"/>
       </defs>
       <use xlink:href="#DejaVuSans-32"/>
       <use xlink:href="#DejaVuSans-2e" x="63.623047"/>
       <use xlink:href="#DejaVuSans-37" x="95.410156"/>
      </g>
     </g>
    </g>
    <g id="xtick_7">
     <g id="line2d_7">
      <g>
       <use xlink:href="#md507ba9f04" x="753.537782" y="642.866667" style="stroke: #000000; stroke-width: 0.8"/>
      </g>
     </g>
     <g id="text_7">
      <!-- 2.8 -->
      <g transform="translate(745.586219 657.465104) scale(0.1 -0.1)">
       <defs>
        <path id="DejaVuSans-38" d="M 2034 2216 
Q 1584 2216 1326 1975 
Q 1069 1734 1069 1313 
Q 1069 891 1326 650 
Q 1584 409 2034 409 
Q 2484 409 2743 651 
Q 3003 894 3003 1313 
Q 3003 1734 2745 1975 
Q 2488 2216 2034 2216 
z
M 1403 2484 
Q 997 2584 770 2862 
Q 544 3141 544 3541 
Q 544 4100 942 4425 
Q 1341 4750 2034 4750 
Q 2731 4750 3128 4425 
Q 3525 4100 3525 3541 
Q 3525 3141 3298 2862 
Q 3072 2584 2669 2484 
Q 3125 2378 3379 2068 
Q 3634 1759 3634 1313 
Q 3634 634 3220 271 
Q 2806 -91 2034 -91 
Q 1263 -91 848 271 
Q 434 634 434 1313 
Q 434 1759 690 2068 
Q 947 2378 1403 2484 
z
M 1172 3481 
Q 1172 3119 1398 2916 
Q 1625 2713 2034 2713 
Q 2441 2713 2670 2916 
Q 2900 3119 2900 3481 
Q 2900 3844 2670 4047 
Q 2441 4250 2034 4250 
Q 1625 4250 1398 4047 
Q 1172 3844 1172 3481 
z
" transform="scale(0.015625)"/>
       </defs>
       <use xlink:href="#DejaVuSans-32"/>
       <use xlink:href="#DejaVuSans-2e" x="63.623047"/>
       <use xlink:href="#DejaVuSans-38" x="95.410156"/>
      </g>
     </g>
    </g>
    <g id="text_8">
     <!-- Protein log10-length -->
     <g transform="translate(379.666763 671.143229) scale(0.1 -0.1)">
      <defs>
       <path id="DejaVuSans-50" d="M 1259 4147 
L 1259 2394 
L 2053 2394 
Q 2494 2394 2734 2622 
Q 2975 2850 2975 3272 
Q 2975 3691 2734 3919 
Q 2494 4147 2053 4147 
L 1259 4147 
z
M 628 4666 
L 2053 4666 
Q 2838 4666 3239 4311 
Q 3641 3956 3641 3272 
Q 3641 2581 3239 2228 
Q 2838 1875 2053 1875 
L 1259 1875 
L 1259 0 
L 628 0 
L 628 4666 
z
" transform="scale(0.015625)"/>
       <path id="DejaVuSans-72" d="M 2631 2963 
Q 2534 3019 2420 3045 
Q 2306 3072 2169 3072 
Q 1681 3072 1420 2755 
Q 1159 2438 1159 1844 
L 1159 0 
L 581 0 
L 581 3500 
L 1159 3500 
L 1159 2956 
Q 1341 3275 1631 3429 
Q 1922 3584 2338 3584 
Q 2397 3584 2469 3576 
Q 2541 3569 2628 3553 
L 2631 2963 
z
" transform="scale(0.015625)"/>
       <path id="DejaVuSans-6f" d="M 1959 3097 
Q 1497 3097 1228 2736 
Q 959 2375 959 1747 
Q 959 1119 1226 758 
Q 1494 397 1959 397 
Q 2419 397 2687 759 
Q 2956 1122 2956 1747 
Q 2956 2369 2687 2733 
Q 2419 3097 1959 3097 
z
M 1959 3584 
Q 2709 3584 3137 3096 
Q 3566 2609 3566 1747 
Q 3566 888 3137 398 
Q 2709 -91 1959 -91 
Q 1206 -91 779 398 
Q 353 888 353 1747 
Q 353 2609 779 3096 
Q 1206 3584 1959 3584 
z
" transform="scale(0.015625)"/>
       <path id="DejaVuSans-74" d="M 1172 4494 
L 1172 3500 
L 2356 3500 
L 2356 3053 
L 1172 3053 
L 1172 1153 
Q 1172 725 1289 603 
Q 1406 481 1766 481 
L 2356 481 
L 2356 0 
L 1766 0 
Q 1100 0 847 248 
Q 594 497 594 1153 
L 594 3053 
L 172 3053 
L 172 3500 
L 594 3500 
L 594 4494 
L 1172 4494 
z
" transform="scale(0.015625)"/>
       <path id="DejaVuSans-65" d="M 3597 1894 
L 3597 1613 
L 953 1613 
Q 991 1019 1311 708 
Q 1631 397 2203 397 
Q 2534 397 2845 478 
Q 3156 559 3463 722 
L 3463 178 
Q 3153 47 2828 -22 
Q 2503 -91 2169 -91 
Q 1331 -91 842 396 
Q 353 884 353 1716 
Q 353 2575 817 3079 
Q 1281 3584 2069 3584 
Q 2775 3584 3186 3129 
Q 3597 2675 3597 1894 
z
M 3022 2063 
Q 3016 2534 2758 2815 
Q 2500 3097 2075 3097 
Q 1594 3097 1305 2825 
Q 1016 2553 972 2059 
L 3022 2063 
z
" transform="scale(0.015625)"/>
       <path id="DejaVuSans-69" d="M 603 3500 
L 1178 3500 
L 1178 0 
L 603 0 
L 603 3500 
z
M 603 4863 
L 1178 4863 
L 1178 4134 
L 603 4134 
L 603 4863 
z
" transform="scale(0.015625)"/>
       <path id="DejaVuSans-6e" d="M 3513 2113 
L 3513 0 
L 2938 0 
L 2938 2094 
Q 2938 2591 2744 2837 
Q 2550 3084 2163 3084 
Q 1697 3084 1428 2787 
Q 1159 2491 1159 1978 
L 1159 0 
L 581 0 
L 581 3500 
L 1159 3500 
L 1159 2956 
Q 1366 3272 1645 3428 
Q 1925 3584 2291 3584 
Q 2894 3584 3203 3211 
Q 3513 2838 3513 2113 
z
" transform="scale(0.015625)"/>
       <path id="DejaVuSans-20" transform="scale(0.015625)"/>
       <path id="DejaVuSans-6c" d="M 603 4863 
L 1178 4863 
L 1178 0 
L 603 0 
L 603 4863 
z
" transform="scale(0.015625)"/>
       <path id="DejaVuSans-67" d="M 2906 1791 
Q 2906 2416 2648 2759 
Q 2391 3103 1925 3103 
Q 1463 3103 1205 2759 
Q 947 2416 947 1791 
Q 947 1169 1205 825 
Q 1463 481 1925 481 
Q 2391 481 2648 825 
Q 2906 1169 2906 1791 
z
M 3481 434 
Q 3481 -459 3084 -895 
Q 2688 -1331 1869 -1331 
Q 1566 -1331 1297 -1286 
Q 1028 -1241 775 -1147 
L 775 -588 
Q 1028 -725 1275 -790 
Q 1522 -856 1778 -856 
Q 2344 -856 2625 -561 
Q 2906 -266 2906 331 
L 2906 616 
Q 2728 306 2450 153 
Q 2172 0 1784 0 
Q 1141 0 747 490 
Q 353 981 353 1791 
Q 353 2603 747 3093 
Q 1141 3584 1784 3584 
Q 2172 3584 2450 3431 
Q 2728 3278 2906 2969 
L 2906 3500 
L 3481 3500 
L 3481 434 
z
" transform="scale(0.015625)"/>
       <path id="DejaVuSans-31" d="M 794 531 
L 1825 531 
L 1825 4091 
L 703 3866 
L 703 4441 
L 1819 4666 
L 2450 4666 
L 2450 531 
L 3481 531 
L 3481 0 
L 794 0 
L 794 531 
z
" transform="scale(0.015625)"/>
       <path id="DejaVuSans-30" d="M 2034 4250 
Q 1547 4250 1301 3770 
Q 1056 3291 1056 2328 
Q 1056 1369 1301 889 
Q 1547 409 2034 409 
Q 2525 409 2770 889 
Q 3016 1369 3016 2328 
Q 3016 3291 2770 3770 
Q 2525 4250 2034 4250 
z
M 2034 4750 
Q 2819 4750 3233 4129 
Q 3647 3509 3647 2328 
Q 3647 1150 3233 529 
Q 2819 -91 2034 -91 
Q 1250 -91 836 529 
Q 422 1150 422 2328 
Q 422 3509 836 4129 
Q 1250 4750 2034 4750 
z
" transform="scale(0.015625)"/>
       <path id="DejaVuSans-2d" d="M 313 2009 
L 1997 2009 
L 1997 1497 
L 313 1497 
L 313 2009 
z
" transform="scale(0.015625)"/>
       <path id="DejaVuSans-68" d="M 3513 2113 
L 3513 0 
L 2938 0 
L 2938 2094 
Q 2938 2591 2744 2837 
Q 2550 3084 2163 3084 
Q 1697 3084 1428 2787 
Q 1159 2491 1159 1978 
L 1159 0 
L 581 0 
L 581 4863 
L 1159 4863 
L 1159 2956 
Q 1366 3272 1645 3428 
Q 1925 3584 2291 3584 
Q 2894 3584 3203 3211 
Q 3513 2838 3513 2113 
z
" transform="scale(0.015625)"/>
      </defs>
      <use xlink:href="#DejaVuSans-50"/>
      <use xlink:href="#DejaVuSans-72" x="58.552734"/>
      <use xlink:href="#DejaVuSans-6f" x="97.416016"/>
      <use xlink:href="#DejaVuSans-74" x="158.597656"/>
      <use xlink:href="#DejaVuSans-65" x="197.806641"/>
      <use xlink:href="#DejaVuSans-69" x="259.330078"/>
      <use xlink:href="#DejaVuSans-6e" x="287.113281"/>
      <use xlink:href="#DejaVuSans-20" x="350.492188"/>
      <use xlink:href="#DejaVuSans-6c" x="382.279297"/>
      <use xlink:href="#DejaVuSans-6f" x="410.0625"/>
      <use xlink:href="#DejaVuSans-67" x="471.244141"/>
      <use xlink:href="#DejaVuSans-31" x="534.720703"/>
      <use xlink:href="#DejaVuSans-30" x="598.34375"/>
      <use xlink:href="#DejaVuSans-2d" x="661.966797"/>
      <use xlink:href="#DejaVuSans-6c" x="698.050781"/>
      <use xlink:href="#DejaVuSans-65" x="725.833984"/>
      <use xlink:href="#DejaVuSans-6e" x="787.357422"/>
      <use xlink:href="#DejaVuSans-67" x="850.736328"/>
      <use xlink:href="#DejaVuSans-74" x="914.212891"/>
      <use xlink:href="#DejaVuSans-68" x="953.421875"/>
     </g>
    </g>
   </g>
   <g id="matplotlib.axis_2">
    <g id="ytick_1">
     <g id="line2d_8">
      <defs>
       <path id="m1f325ac5e6" d="M 0 0 
L -3.5 0 
" style="stroke: #000000; stroke-width: 0.8"/>
      </defs>
      <g>
       <use xlink:href="#m1f325ac5e6" x="43.78125" y="625.940846" style="stroke: #000000; stroke-width: 0.8"/>
      </g>
     </g>
     <g id="text_9">
      <!-- 0.3 -->
      <g transform="translate(20.878125 629.740065) scale(0.1 -0.1)">
       <use xlink:href="#DejaVuSans-30"/>
       <use xlink:href="#DejaVuSans-2e" x="63.623047"/>
       <use xlink:href="#DejaVuSans-33" x="95.410156"/>
      </g>
     </g>
    </g>
    <g id="ytick_2">
     <g id="line2d_9">
      <g>
       <use xlink:href="#m1f325ac5e6" x="43.78125" y="545.599115" style="stroke: #000000; stroke-width: 0.8"/>
      </g>
     </g>
     <g id="text_10">
      <!-- 0.4 -->
      <g transform="translate(20.878125 549.398333) scale(0.1 -0.1)">
       <use xlink:href="#DejaVuSans-30"/>
       <use xlink:href="#DejaVuSans-2e" x="63.623047"/>
       <use xlink:href="#DejaVuSans-34" x="95.410156"/>
      </g>
     </g>
    </g>
    <g id="ytick_3">
     <g id="line2d_10">
      <g>
       <use xlink:href="#m1f325ac5e6" x="43.78125" y="465.257383" style="stroke: #000000; stroke-width: 0.8"/>
      </g>
     </g>
     <g id="text_11">
      <!-- 0.5 -->
      <g transform="translate(20.878125 469.056602) scale(0.1 -0.1)">
       <use xlink:href="#DejaVuSans-30"/>
       <use xlink:href="#DejaVuSans-2e" x="63.623047"/>
       <use xlink:href="#DejaVuSans-35" x="95.410156"/>
      </g>
     </g>
    </g>
    <g id="ytick_4">
     <g id="line2d_11">
      <g>
       <use xlink:href="#m1f325ac5e6" x="43.78125" y="384.915652" style="stroke: #000000; stroke-width: 0.8"/>
      </g>
     </g>
     <g id="text_12">
      <!-- 0.6 -->
      <g transform="translate(20.878125 388.714871) scale(0.1 -0.1)">
       <use xlink:href="#DejaVuSans-30"/>
       <use xlink:href="#DejaVuSans-2e" x="63.623047"/>
       <use xlink:href="#DejaVuSans-36" x="95.410156"/>
      </g>
     </g>
    </g>
    <g id="ytick_5">
     <g id="line2d_12">
      <g>
       <use xlink:href="#m1f325ac5e6" x="43.78125" y="304.573921" style="stroke: #000000; stroke-width: 0.8"/>
      </g>
     </g>
     <g id="text_13">
      <!-- 0.7 -->
      <g transform="translate(20.878125 308.373139) scale(0.1 -0.1)">
       <use xlink:href="#DejaVuSans-30"/>
       <use xlink:href="#DejaVuSans-2e" x="63.623047"/>
       <use xlink:href="#DejaVuSans-37" x="95.410156"/>
      </g>
     </g>
    </g>
    <g id="ytick_6">
     <g id="line2d_13">
      <g>
       <use xlink:href="#m1f325ac5e6" x="43.78125" y="224.232189" style="stroke: #000000; stroke-width: 0.8"/>
      </g>
     </g>
     <g id="text_14">
      <!-- 0.8 -->
      <g transform="translate(20.878125 228.031408) scale(0.1 -0.1)">
       <use xlink:href="#DejaVuSans-30"/>
       <use xlink:href="#DejaVuSans-2e" x="63.623047"/>
       <use xlink:href="#DejaVuSans-38" x="95.410156"/>
      </g>
     </g>
    </g>
    <g id="text_15">
     <!-- Correlation coefficient -->
     <g transform="translate(14.798438 452.712284) rotate(-90) scale(0.1 -0.1)">
      <defs>
       <path id="DejaVuSans-43" d="M 4122 4306 
L 4122 3641 
Q 3803 3938 3442 4084 
Q 3081 4231 2675 4231 
Q 1875 4231 1450 3742 
Q 1025 3253 1025 2328 
Q 1025 1406 1450 917 
Q 1875 428 2675 428 
Q 3081 428 3442 575 
Q 3803 722 4122 1019 
L 4122 359 
Q 3791 134 3420 21 
Q 3050 -91 2638 -91 
Q 1578 -91 968 557 
Q 359 1206 359 2328 
Q 359 3453 968 4101 
Q 1578 4750 2638 4750 
Q 3056 4750 3426 4639 
Q 3797 4528 4122 4306 
z
" transform="scale(0.015625)"/>
       <path id="DejaVuSans-61" d="M 2194 1759 
Q 1497 1759 1228 1600 
Q 959 1441 959 1056 
Q 959 750 1161 570 
Q 1363 391 1709 391 
Q 2188 391 2477 730 
Q 2766 1069 2766 1631 
L 2766 1759 
L 2194 1759 
z
M 3341 1997 
L 3341 0 
L 2766 0 
L 2766 531 
Q 2569 213 2275 61 
Q 1981 -91 1556 -91 
Q 1019 -91 701 211 
Q 384 513 384 1019 
Q 384 1609 779 1909 
Q 1175 2209 1959 2209 
L 2766 2209 
L 2766 2266 
Q 2766 2663 2505 2880 
Q 2244 3097 1772 3097 
Q 1472 3097 1187 3025 
Q 903 2953 641 2809 
L 641 3341 
Q 956 3463 1253 3523 
Q 1550 3584 1831 3584 
Q 2591 3584 2966 3190 
Q 3341 2797 3341 1997 
z
" transform="scale(0.015625)"/>
       <path id="DejaVuSans-63" d="M 3122 3366 
L 3122 2828 
Q 2878 2963 2633 3030 
Q 2388 3097 2138 3097 
Q 1578 3097 1268 2742 
Q 959 2388 959 1747 
Q 959 1106 1268 751 
Q 1578 397 2138 397 
Q 2388 397 2633 464 
Q 2878 531 3122 666 
L 3122 134 
Q 2881 22 2623 -34 
Q 2366 -91 2075 -91 
Q 1284 -91 818 406 
Q 353 903 353 1747 
Q 353 2603 823 3093 
Q 1294 3584 2113 3584 
Q 2378 3584 2631 3529 
Q 2884 3475 3122 3366 
z
" transform="scale(0.015625)"/>
       <path id="DejaVuSans-66" d="M 2375 4863 
L 2375 4384 
L 1825 4384 
Q 1516 4384 1395 4259 
Q 1275 4134 1275 3809 
L 1275 3500 
L 2222 3500 
L 2222 3053 
L 1275 3053 
L 1275 0 
L 697 0 
L 697 3053 
L 147 3053 
L 147 3500 
L 697 3500 
L 697 3744 
Q 697 4328 969 4595 
Q 1241 4863 1831 4863 
L 2375 4863 
z
" transform="scale(0.015625)"/>
      </defs>
      <use xlink:href="#DejaVuSans-43"/>
      <use xlink:href="#DejaVuSans-6f" x="69.824219"/>
      <use xlink:href="#DejaVuSans-72" x="131.005859"/>
      <use xlink:href="#DejaVuSans-72" x="170.369141"/>
      <use xlink:href="#DejaVuSans-65" x="209.232422"/>
      <use xlink:href="#DejaVuSans-6c" x="270.755859"/>
      <use xlink:href="#DejaVuSans-61" x="298.539062"/>
      <use xlink:href="#DejaVuSans-74" x="359.818359"/>
      <use xlink:href="#DejaVuSans-69" x="399.027344"/>
      <use xlink:href="#DejaVuSans-6f" x="426.810547"/>
      <use xlink:href="#DejaVuSans-6e" x="487.992188"/>
      <use xlink:href="#DejaVuSans-20" x="551.371094"/>
      <use xlink:href="#DejaVuSans-63" x="583.158203"/>
      <use xlink:href="#DejaVuSans-6f" x="638.138672"/>
      <use xlink:href="#DejaVuSans-65" x="699.320312"/>
      <use xlink:href="#DejaVuSans-66" x="760.84375"/>
      <use xlink:href="#DejaVuSans-66" x="796.048828"/>
      <use xlink:href="#DejaVuSans-69" x="831.253906"/>
      <use xlink:href="#DejaVuSans-63" x="859.037109"/>
      <use xlink:href="#DejaVuSans-69" x="914.017578"/>
      <use xlink:href="#DejaVuSans-65" x="941.800781"/>
      <use xlink:href="#DejaVuSans-6e" x="1003.324219"/>
      <use xlink:href="#DejaVuSans-74" x="1066.703125"/>
     </g>
    </g>
   </g>
   <g id="line2d_14">
    <path d="M 78.938101 464.696031 
L 86.040495 462.959146 
L 93.142889 461.22226 
L 100.245283 459.485375 
L 107.347677 457.748489 
L 114.450071 456.011604 
L 121.552465 454.274718 
L 128.654859 452.537833 
L 135.757253 450.800948 
L 142.859647 449.064062 
L 149.962041 447.327177 
L 157.064435 445.590291 
L 164.166829 443.853406 
L 171.269224 442.11652 
L 178.371618 440.379635 
L 185.474012 438.64275 
L 192.576406 436.905864 
L 199.6788 435.168979 
L 206.781194 433.432093 
L 213.883588 431.695208 
L 220.985982 429.958322 
L 228.088376 428.221437 
L 235.19077 426.484552 
L 242.293164 424.747666 
L 249.395558 423.010781 
L 256.497952 421.273895 
L 263.600346 419.53701 
L 270.702741 417.800124 
L 277.805135 416.063239 
L 284.907529 414.326354 
L 292.009923 412.589468 
L 299.112317 410.852583 
L 306.214711 409.115697 
L 313.317105 407.378812 
L 320.419499 405.641927 
L 327.521893 403.905041 
L 334.624287 402.168156 
L 341.726681 400.43127 
L 348.829075 398.694385 
L 355.931469 396.957499 
L 363.033863 395.220614 
L 370.136258 393.483729 
L 377.238652 391.746843 
L 384.341046 390.009958 
L 391.44344 388.273072 
L 398.545834 386.536187 
L 405.648228 384.799301 
L 412.750622 383.062416 
L 419.853016 381.325531 
L 426.95541 379.588645 
L 434.057804 377.85176 
L 441.160198 376.114874 
L 448.262592 374.377989 
L 455.364986 372.641103 
L 462.46738 370.904218 
L 469.569775 369.167333 
L 476.672169 367.430447 
L 483.774563 365.693562 
L 490.876957 363.956676 
L 497.979351 362.219791 
L 505.081745 360.482905 
L 512.184139 358.74602 
L 519.286533 357.009135 
L 526.388927 355.272249 
L 533.491321 353.535364 
L 540.593715 351.798478 
L 547.696109 350.061593 
L 554.798503 348.324708 
L 561.900897 346.587822 
L 569.003292 344.850937 
L 576.105686 343.114051 
L 583.20808 341.377166 
L 590.310474 339.64028 
L 597.412868 337.903395 
L 604.515262 336.16651 
L 611.617656 334.429624 
L 618.72005 332.692739 
L 625.822444 330.955853 
L 632.924838 329.218968 
L 640.027232 327.482082 
L 647.129626 325.745197 
L 654.23202 324.008312 
L 661.334414 322.271426 
L 668.436809 320.534541 
L 675.539203 318.797655 
L 682.641597 317.06077 
L 689.743991 315.323884 
L 696.846385 313.586999 
L 703.948779 311.850114 
L 711.051173 310.113228 
L 718.153567 308.376343 
L 725.255961 306.639457 
L 732.358355 304.902572 
L 739.460749 303.165686 
L 746.563143 301.428801 
L 753.665537 299.691916 
L 760.767931 297.95503 
L 767.870325 296.218145 
L 774.97272 294.481259 
L 782.075114 292.744374 
" clip-path="url(#p4508dc6e50)" style="fill: none; stroke: #1f77b4; stroke-width: 2.25; stroke-linecap: square"/>
   </g>
   <g id="line2d_15">
    <path d="M 78.938101 432.088972 
L 86.040495 431.185329 
L 93.142889 430.281686 
L 100.245283 429.378043 
L 107.347677 428.4744 
L 114.450071 427.570757 
L 121.552465 426.667114 
L 128.654859 425.763471 
L 135.757253 424.859827 
L 142.859647 423.956184 
L 149.962041 423.052541 
L 157.064435 422.148898 
L 164.166829 421.245255 
L 171.269224 420.341612 
L 178.371618 419.437969 
L 185.474012 418.534326 
L 192.576406 417.630683 
L 199.6788 416.72704 
L 206.781194 415.823397 
L 213.883588 414.919754 
L 220.985982 414.016111 
L 228.088376 413.112468 
L 235.19077 412.208825 
L 242.293164 411.305182 
L 249.395558 410.401539 
L 256.497952 409.497896 
L 263.600346 408.594253 
L 270.702741 407.69061 
L 277.805135 406.786967 
L 284.907529 405.883324 
L 292.009923 404.979681 
L 299.112317 404.076038 
L 306.214711 403.172395 
L 313.317105 402.268752 
L 320.419499 401.365108 
L 327.521893 400.461465 
L 334.624287 399.557822 
L 341.726681 398.654179 
L 348.829075 397.750536 
L 355.931469 396.846893 
L 363.033863 395.94325 
L 370.136258 395.039607 
L 377.238652 394.135964 
L 384.341046 393.232321 
L 391.44344 392.328678 
L 398.545834 391.425035 
L 405.648228 390.521392 
L 412.750622 389.617749 
L 419.853016 388.714106 
L 426.95541 387.810463 
L 434.057804 386.90682 
L 441.160198 386.003177 
L 448.262592 385.099534 
L 455.364986 384.195891 
L 462.46738 383.292248 
L 469.569775 382.388605 
L 476.672169 381.484962 
L 483.774563 380.581319 
L 490.876957 379.677676 
L 497.979351 378.774032 
L 505.081745 377.870389 
L 512.184139 376.966746 
L 519.286533 376.063103 
L 526.388927 375.15946 
L 533.491321 374.255817 
L 540.593715 373.352174 
L 547.696109 372.448531 
L 554.798503 371.544888 
L 561.900897 370.641245 
L 569.003292 369.737602 
L 576.105686 368.833959 
L 583.20808 367.930316 
L 590.310474 367.026673 
L 597.412868 366.12303 
L 604.515262 365.219387 
L 611.617656 364.315744 
L 618.72005 363.412101 
L 625.822444 362.508458 
L 632.924838 361.604815 
L 640.027232 360.701172 
L 647.129626 359.797529 
L 654.23202 358.893886 
L 661.334414 357.990243 
L 668.436809 357.0866 
L 675.539203 356.182957 
L 682.641597 355.279313 
L 689.743991 354.37567 
L 696.846385 353.472027 
L 703.948779 352.568384 
L 711.051173 351.664741 
L 718.153567 350.761098 
L 725.255961 349.857455 
L 732.358355 348.953812 
L 739.460749 348.050169 
L 746.563143 347.146526 
L 753.665537 346.242883 
L 760.767931 345.33924 
L 767.870325 344.435597 
L 774.97272 343.531954 
L 782.075114 342.628311 
" clip-path="url(#p4508dc6e50)" style="fill: none; stroke: #ff7f0e; stroke-width: 2.25; stroke-linecap: square"/>
   </g>
   <g id="patch_3">
    <path d="M 43.78125 642.866667 
L 43.78125 151.965714 
" style="fill: none; stroke: #000000; stroke-width: 0.8; stroke-linejoin: miter; stroke-linecap: square"/>
   </g>
   <g id="patch_4">
    <path d="M 43.78125 642.866667 
L 817.231964 642.866667 
" style="fill: none; stroke: #000000; stroke-width: 0.8; stroke-linejoin: miter; stroke-linecap: square"/>
   </g>
   <g id="legend_1">
    <g id="patch_5">
     <path d="M 704.119464 637.866667 
L 810.231964 637.866667 
Q 812.231964 637.866667 812.231964 635.866667 
L 812.231964 607.510417 
Q 812.231964 605.510417 810.231964 605.510417 
L 704.119464 605.510417 
Q 702.119464 605.510417 702.119464 607.510417 
L 702.119464 635.866667 
Q 702.119464 637.866667 704.119464 637.866667 
z
" style="fill: #ffffff; opacity: 0.8; stroke: #cccccc; stroke-linejoin: miter"/>
    </g>
    <g id="PathCollection_3">
     <g>
      <use xlink:href="#m706411daf9" x="716.119464" y="614.483854" style="fill: #4169e1; fill-opacity: 0.5; stroke: #000000; stroke-opacity: 0.5"/>
     </g>
    </g>
    <g id="text_16">
     <!-- Codon number -->
     <g transform="translate(734.119464 617.108854) scale(0.1 -0.1)">
      <defs>
       <path id="DejaVuSans-64" d="M 2906 2969 
L 2906 4863 
L 3481 4863 
L 3481 0 
L 2906 0 
L 2906 525 
Q 2725 213 2448 61 
Q 2172 -91 1784 -91 
Q 1150 -91 751 415 
Q 353 922 353 1747 
Q 353 2572 751 3078 
Q 1150 3584 1784 3584 
Q 2172 3584 2448 3432 
Q 2725 3281 2906 2969 
z
M 947 1747 
Q 947 1113 1208 752 
Q 1469 391 1925 391 
Q 2381 391 2643 752 
Q 2906 1113 2906 1747 
Q 2906 2381 2643 2742 
Q 2381 3103 1925 3103 
Q 1469 3103 1208 2742 
Q 947 2381 947 1747 
z
" transform="scale(0.015625)"/>
       <path id="DejaVuSans-75" d="M 544 1381 
L 544 3500 
L 1119 3500 
L 1119 1403 
Q 1119 906 1312 657 
Q 1506 409 1894 409 
Q 2359 409 2629 706 
Q 2900 1003 2900 1516 
L 2900 3500 
L 3475 3500 
L 3475 0 
L 2900 0 
L 2900 538 
Q 2691 219 2414 64 
Q 2138 -91 1772 -91 
Q 1169 -91 856 284 
Q 544 659 544 1381 
z
M 1991 3584 
L 1991 3584 
z
" transform="scale(0.015625)"/>
       <path id="DejaVuSans-6d" d="M 3328 2828 
Q 3544 3216 3844 3400 
Q 4144 3584 4550 3584 
Q 5097 3584 5394 3201 
Q 5691 2819 5691 2113 
L 5691 0 
L 5113 0 
L 5113 2094 
Q 5113 2597 4934 2840 
Q 4756 3084 4391 3084 
Q 3944 3084 3684 2787 
Q 3425 2491 3425 1978 
L 3425 0 
L 2847 0 
L 2847 2094 
Q 2847 2600 2669 2842 
Q 2491 3084 2119 3084 
Q 1678 3084 1418 2786 
Q 1159 2488 1159 1978 
L 1159 0 
L 581 0 
L 581 3500 
L 1159 3500 
L 1159 2956 
Q 1356 3278 1631 3431 
Q 1906 3584 2284 3584 
Q 2666 3584 2933 3390 
Q 3200 3197 3328 2828 
z
" transform="scale(0.015625)"/>
       <path id="DejaVuSans-62" d="M 3116 1747 
Q 3116 2381 2855 2742 
Q 2594 3103 2138 3103 
Q 1681 3103 1420 2742 
Q 1159 2381 1159 1747 
Q 1159 1113 1420 752 
Q 1681 391 2138 391 
Q 2594 391 2855 752 
Q 3116 1113 3116 1747 
z
M 1159 2969 
Q 1341 3281 1617 3432 
Q 1894 3584 2278 3584 
Q 2916 3584 3314 3078 
Q 3713 2572 3713 1747 
Q 3713 922 3314 415 
Q 2916 -91 2278 -91 
Q 1894 -91 1617 61 
Q 1341 213 1159 525 
L 1159 0 
L 581 0 
L 581 4863 
L 1159 4863 
L 1159 2969 
z
" transform="scale(0.015625)"/>
      </defs>
      <use xlink:href="#DejaVuSans-43"/>
      <use xlink:href="#DejaVuSans-6f" x="69.824219"/>
      <use xlink:href="#DejaVuSans-64" x="131.005859"/>
      <use xlink:href="#DejaVuSans-6f" x="194.482422"/>
      <use xlink:href="#DejaVuSans-6e" x="255.664062"/>
      <use xlink:href="#DejaVuSans-20" x="319.042969"/>
      <use xlink:href="#DejaVuSans-6e" x="350.830078"/>
      <use xlink:href="#DejaVuSans-75" x="414.208984"/>
      <use xlink:href="#DejaVuSans-6d" x="477.587891"/>
      <use xlink:href="#DejaVuSans-62" x="575"/>
      <use xlink:href="#DejaVuSans-65" x="638.476562"/>
      <use xlink:href="#DejaVuSans-72" x="700"/>
     </g>
    </g>
    <g id="PathCollection_4">
     <g>
      <use xlink:href="#m568c8c39ba" x="716.119464" y="629.161979" style="fill: #ff8c00; fill-opacity: 0.5; stroke: #000000; stroke-opacity: 0.5"/>
     </g>
    </g>
    <g id="text_17">
     <!-- Codon+GC -->
     <g transform="translate(734.119464 631.786979) scale(0.1 -0.1)">
      <defs>
       <path id="DejaVuSans-2b" d="M 2944 4013 
L 2944 2272 
L 4684 2272 
L 4684 1741 
L 2944 1741 
L 2944 0 
L 2419 0 
L 2419 1741 
L 678 1741 
L 678 2272 
L 2419 2272 
L 2419 4013 
L 2944 4013 
z
" transform="scale(0.015625)"/>
       <path id="DejaVuSans-47" d="M 3809 666 
L 3809 1919 
L 2778 1919 
L 2778 2438 
L 4434 2438 
L 4434 434 
Q 4069 175 3628 42 
Q 3188 -91 2688 -91 
Q 1594 -91 976 548 
Q 359 1188 359 2328 
Q 359 3472 976 4111 
Q 1594 4750 2688 4750 
Q 3144 4750 3555 4637 
Q 3966 4525 4313 4306 
L 4313 3634 
Q 3963 3931 3569 4081 
Q 3175 4231 2741 4231 
Q 1884 4231 1454 3753 
Q 1025 3275 1025 2328 
Q 1025 1384 1454 906 
Q 1884 428 2741 428 
Q 3075 428 3337 486 
Q 3600 544 3809 666 
z
" transform="scale(0.015625)"/>
      </defs>
      <use xlink:href="#DejaVuSans-43"/>
      <use xlink:href="#DejaVuSans-6f" x="69.824219"/>
      <use xlink:href="#DejaVuSans-64" x="131.005859"/>
      <use xlink:href="#DejaVuSans-6f" x="194.482422"/>
      <use xlink:href="#DejaVuSans-6e" x="255.664062"/>
      <use xlink:href="#DejaVuSans-2b" x="319.042969"/>
      <use xlink:href="#DejaVuSans-47" x="402.832031"/>
      <use xlink:href="#DejaVuSans-43" x="480.322266"/>
     </g>
    </g>
   </g>
  </g>
  <g id="axes_2">
   <g id="patch_6">
    <path d="M 43.78125 135.038095 
L 817.231964 135.038095 
L 817.231964 50.4 
L 43.78125 50.4 
z
" style="fill: #ffffff"/>
   </g>
   <g id="PolyCollection_3">
    <defs>
     <path id="mba5f4d6d71" d="M 78.938101 -549.415207 
L 78.938101 -545.384821 
L 112.420816 -545.384821 
L 112.420816 -545.384821 
L 145.90353 -545.384821 
L 145.90353 -545.384821 
L 179.386245 -545.384821 
L 179.386245 -545.384821 
L 212.86896 -545.384821 
L 212.86896 -545.384821 
L 246.351675 -545.384821 
L 246.351675 -545.384821 
L 279.83439 -545.384821 
L 279.83439 -545.384821 
L 313.317105 -545.384821 
L 313.317105 -545.384821 
L 346.79982 -545.384821 
L 346.79982 -545.384821 
L 380.282535 -545.384821 
L 380.282535 -545.384821 
L 413.76525 -545.384821 
L 413.76525 -545.384821 
L 447.247965 -545.384821 
L 447.247965 -545.384821 
L 480.730679 -545.384821 
L 480.730679 -545.384821 
L 514.213394 -545.384821 
L 514.213394 -545.384821 
L 547.696109 -545.384821 
L 547.696109 -545.384821 
L 581.178824 -545.384821 
L 581.178824 -545.384821 
L 614.661539 -545.384821 
L 614.661539 -545.384821 
L 648.144254 -545.384821 
L 648.144254 -545.384821 
L 681.626969 -545.384821 
L 681.626969 -545.384821 
L 715.109684 -545.384821 
L 715.109684 -545.384821 
L 748.592399 -545.384821 
L 748.592399 -545.384821 
L 782.075114 -545.384821 
L 782.075114 -545.384821 
L 782.075114 -549.415207 
L 782.075114 -549.415207 
L 782.075114 -549.415207 
L 748.592399 -549.415207 
L 748.592399 -545.384821 
L 715.109684 -545.384821 
L 715.109684 -545.384821 
L 681.626969 -545.384821 
L 681.626969 -545.384821 
L 648.144254 -545.384821 
L 648.144254 -545.384821 
L 614.661539 -545.384821 
L 614.661539 -549.415207 
L 581.178824 -549.415207 
L 581.178824 -549.415207 
L 547.696109 -549.415207 
L 547.696109 -545.384821 
L 514.213394 -545.384821 
L 514.213394 -549.415207 
L 480.730679 -549.415207 
L 480.730679 -569.567134 
L 447.247965 -569.567134 
L 447.247965 -585.688676 
L 413.76525 -585.688676 
L 413.76525 -625.992531 
L 380.282535 -625.992531 
L 380.282535 -589.719062 
L 346.79982 -589.719062 
L 346.79982 -573.59752 
L 313.317105 -573.59752 
L 313.317105 -553.445592 
L 279.83439 -553.445592 
L 279.83439 -549.415207 
L 246.351675 -549.415207 
L 246.351675 -545.384821 
L 212.86896 -545.384821 
L 212.86896 -565.536749 
L 179.386245 -565.536749 
L 179.386245 -545.384821 
L 145.90353 -545.384821 
L 145.90353 -545.384821 
L 112.420816 -545.384821 
L 112.420816 -549.415207 
L 78.938101 -549.415207 
z
" style="stroke: #000000"/>
    </defs>
    <g clip-path="url(#pb073c66171)">
     <use xlink:href="#mba5f4d6d71" x="0" y="680.422917" style="fill: #800080; fill-opacity: 0.75; stroke: #000000"/>
    </g>
   </g>
   <g id="matplotlib.axis_3">
    <g id="xtick_8">
     <g id="line2d_16">
      <g>
       <use xlink:href="#md507ba9f04" x="112.789865" y="135.038095" style="stroke: #000000; stroke-width: 0.8"/>
      </g>
     </g>
    </g>
    <g id="xtick_9">
     <g id="line2d_17">
      <g>
       <use xlink:href="#md507ba9f04" x="219.581185" y="135.038095" style="stroke: #000000; stroke-width: 0.8"/>
      </g>
     </g>
    </g>
    <g id="xtick_10">
     <g id="line2d_18">
      <g>
       <use xlink:href="#md507ba9f04" x="326.372504" y="135.038095" style="stroke: #000000; stroke-width: 0.8"/>
      </g>
     </g>
    </g>
    <g id="xtick_11">
     <g id="line2d_19">
      <g>
       <use xlink:href="#md507ba9f04" x="433.163824" y="135.038095" style="stroke: #000000; stroke-width: 0.8"/>
      </g>
     </g>
    </g>
    <g id="xtick_12">
     <g id="line2d_20">
      <g>
       <use xlink:href="#md507ba9f04" x="539.955143" y="135.038095" style="stroke: #000000; stroke-width: 0.8"/>
      </g>
     </g>
    </g>
    <g id="xtick_13">
     <g id="line2d_21">
      <g>
       <use xlink:href="#md507ba9f04" x="646.746462" y="135.038095" style="stroke: #000000; stroke-width: 0.8"/>
      </g>
     </g>
    </g>
    <g id="xtick_14">
     <g id="line2d_22">
      <g>
       <use xlink:href="#md507ba9f04" x="753.537782" y="135.038095" style="stroke: #000000; stroke-width: 0.8"/>
      </g>
     </g>
    </g>
   </g>
   <g id="matplotlib.axis_4">
    <g id="ytick_7"/>
    <g id="ytick_8"/>
    <g id="ytick_9"/>
   </g>
   <g id="patch_7">
    <path d="M 43.78125 135.038095 
L 817.231964 135.038095 
" style="fill: none; stroke: #000000; stroke-width: 0.8; stroke-linejoin: miter; stroke-linecap: square"/>
   </g>
  </g>
  <g id="axes_3">
   <g id="patch_8">
    <path d="M 843.902679 642.866667 
L 977.25625 642.866667 
L 977.25625 151.965714 
L 843.902679 151.965714 
z
" style="fill: #ffffff"/>
   </g>
   <g id="PolyCollection_4">
    <defs>
     <path id="mc01f35cd9c" d="M 874.986439 -84.427297 
L 849.964205 -84.427297 
L 849.964205 -84.427297 
L 849.964205 -138.786426 
L 849.964205 -138.786426 
L 849.964205 -193.145555 
L 849.964205 -193.145555 
L 849.964205 -247.504683 
L 849.964205 -247.504683 
L 849.964205 -301.863812 
L 849.964205 -301.863812 
L 849.964205 -356.222941 
L 849.964205 -356.222941 
L 849.964205 -410.58207 
L 874.986439 -410.58207 
L 874.986439 -410.58207 
L 874.986439 -356.222941 
L 912.519792 -356.222941 
L 912.519792 -301.863812 
L 962.564261 -301.863812 
L 962.564261 -247.504683 
L 950.053144 -247.504683 
L 950.053144 -193.145555 
L 912.519792 -193.145555 
L 912.519792 -138.786426 
L 881.241998 -138.786426 
L 881.241998 -84.427297 
L 874.986439 -84.427297 
z
" style="stroke: #000000; stroke-opacity: 0.5"/>
    </defs>
    <g clip-path="url(#pe601035364)">
     <use xlink:href="#mc01f35cd9c" x="0" y="680.422917" style="fill: #4169e1; fill-opacity: 0.5; stroke: #000000; stroke-opacity: 0.5"/>
    </g>
   </g>
   <g id="PolyCollection_5">
    <defs>
     <path id="md044c952e5" d="M 865.118019 -59.86993 
L 849.964205 -59.86993 
L 849.964205 -59.86993 
L 849.964205 -104.749285 
L 849.964205 -104.749285 
L 849.964205 -149.62864 
L 849.964205 -149.62864 
L 849.964205 -194.507995 
L 849.964205 -194.507995 
L 849.964205 -239.38735 
L 849.964205 -239.38735 
L 849.964205 -284.266706 
L 849.964205 -284.266706 
L 849.964205 -329.146061 
L 849.964205 -329.146061 
L 849.964205 -374.025416 
L 903.002557 -374.025416 
L 903.002557 -374.025416 
L 903.002557 -329.146061 
L 971.194724 -329.146061 
L 971.194724 -284.266706 
L 971.194724 -284.266706 
L 971.194724 -239.38735 
L 940.887094 -239.38735 
L 940.887094 -194.507995 
L 910.579464 -194.507995 
L 910.579464 -149.62864 
L 887.848742 -149.62864 
L 887.848742 -104.749285 
L 857.541112 -104.749285 
L 857.541112 -59.86993 
L 865.118019 -59.86993 
z
" style="stroke: #000000; stroke-opacity: 0.5"/>
    </defs>
    <g clip-path="url(#pe601035364)">
     <use xlink:href="#md044c952e5" x="0" y="680.422917" style="fill: #ff8c00; fill-opacity: 0.5; stroke: #000000; stroke-opacity: 0.5"/>
    </g>
   </g>
   <g id="matplotlib.axis_5">
    <g id="xtick_15"/>
    <g id="xtick_16"/>
    <g id="xtick_17"/>
   </g>
   <g id="matplotlib.axis_6">
    <g id="ytick_10">
     <g id="line2d_23">
      <g>
       <use xlink:href="#m1f325ac5e6" x="843.902679" y="625.940846" style="stroke: #000000; stroke-width: 0.8"/>
      </g>
     </g>
    </g>
    <g id="ytick_11">
     <g id="line2d_24">
      <g>
       <use xlink:href="#m1f325ac5e6" x="843.902679" y="545.599115" style="stroke: #000000; stroke-width: 0.8"/>
      </g>
     </g>
    </g>
    <g id="ytick_12">
     <g id="line2d_25">
      <g>
       <use xlink:href="#m1f325ac5e6" x="843.902679" y="465.257383" style="stroke: #000000; stroke-width: 0.8"/>
      </g>
     </g>
    </g>
    <g id="ytick_13">
     <g id="line2d_26">
      <g>
       <use xlink:href="#m1f325ac5e6" x="843.902679" y="384.915652" style="stroke: #000000; stroke-width: 0.8"/>
      </g>
     </g>
    </g>
    <g id="ytick_14">
     <g id="line2d_27">
      <g>
       <use xlink:href="#m1f325ac5e6" x="843.902679" y="304.573921" style="stroke: #000000; stroke-width: 0.8"/>
      </g>
     </g>
    </g>
    <g id="ytick_15">
     <g id="line2d_28">
      <g>
       <use xlink:href="#m1f325ac5e6" x="843.902679" y="224.232189" style="stroke: #000000; stroke-width: 0.8"/>
      </g>
     </g>
    </g>
   </g>
   <g id="patch_9">
    <path d="M 843.902679 642.866667 
L 843.902679 151.965714 
" style="fill: none; stroke: #000000; stroke-width: 0.8; stroke-linejoin: miter; stroke-linecap: square"/>
   </g>
  </g>
  <g id="text_18">
   <!-- Archaea - Spearman correlation coefficients for genetic code: SGCode -->
   <g transform="translate(254.021875 16.318125) scale(0.12 -0.12)">
    <defs>
     <path id="DejaVuSans-41" d="M 2188 4044 
L 1331 1722 
L 3047 1722 
L 2188 4044 
z
M 1831 4666 
L 2547 4666 
L 4325 0 
L 3669 0 
L 3244 1197 
L 1141 1197 
L 716 0 
L 50 0 
L 1831 4666 
z
" transform="scale(0.015625)"/>
     <path id="DejaVuSans-53" d="M 3425 4513 
L 3425 3897 
Q 3066 4069 2747 4153 
Q 2428 4238 2131 4238 
Q 1616 4238 1336 4038 
Q 1056 3838 1056 3469 
Q 1056 3159 1242 3001 
Q 1428 2844 1947 2747 
L 2328 2669 
Q 3034 2534 3370 2195 
Q 3706 1856 3706 1288 
Q 3706 609 3251 259 
Q 2797 -91 1919 -91 
Q 1588 -91 1214 -16 
Q 841 59 441 206 
L 441 856 
Q 825 641 1194 531 
Q 1563 422 1919 422 
Q 2459 422 2753 634 
Q 3047 847 3047 1241 
Q 3047 1584 2836 1778 
Q 2625 1972 2144 2069 
L 1759 2144 
Q 1053 2284 737 2584 
Q 422 2884 422 3419 
Q 422 4038 858 4394 
Q 1294 4750 2059 4750 
Q 2388 4750 2728 4690 
Q 3069 4631 3425 4513 
z
" transform="scale(0.015625)"/>
     <path id="DejaVuSans-70" d="M 1159 525 
L 1159 -1331 
L 581 -1331 
L 581 3500 
L 1159 3500 
L 1159 2969 
Q 1341 3281 1617 3432 
Q 1894 3584 2278 3584 
Q 2916 3584 3314 3078 
Q 3713 2572 3713 1747 
Q 3713 922 3314 415 
Q 2916 -91 2278 -91 
Q 1894 -91 1617 61 
Q 1341 213 1159 525 
z
M 3116 1747 
Q 3116 2381 2855 2742 
Q 2594 3103 2138 3103 
Q 1681 3103 1420 2742 
Q 1159 2381 1159 1747 
Q 1159 1113 1420 752 
Q 1681 391 2138 391 
Q 2594 391 2855 752 
Q 3116 1113 3116 1747 
z
" transform="scale(0.015625)"/>
     <path id="DejaVuSans-73" d="M 2834 3397 
L 2834 2853 
Q 2591 2978 2328 3040 
Q 2066 3103 1784 3103 
Q 1356 3103 1142 2972 
Q 928 2841 928 2578 
Q 928 2378 1081 2264 
Q 1234 2150 1697 2047 
L 1894 2003 
Q 2506 1872 2764 1633 
Q 3022 1394 3022 966 
Q 3022 478 2636 193 
Q 2250 -91 1575 -91 
Q 1294 -91 989 -36 
Q 684 19 347 128 
L 347 722 
Q 666 556 975 473 
Q 1284 391 1588 391 
Q 1994 391 2212 530 
Q 2431 669 2431 922 
Q 2431 1156 2273 1281 
Q 2116 1406 1581 1522 
L 1381 1569 
Q 847 1681 609 1914 
Q 372 2147 372 2553 
Q 372 3047 722 3315 
Q 1072 3584 1716 3584 
Q 2034 3584 2315 3537 
Q 2597 3491 2834 3397 
z
" transform="scale(0.015625)"/>
     <path id="DejaVuSans-3a" d="M 750 794 
L 1409 794 
L 1409 0 
L 750 0 
L 750 794 
z
M 750 3309 
L 1409 3309 
L 1409 2516 
L 750 2516 
L 750 3309 
z
" transform="scale(0.015625)"/>
    </defs>
    <use xlink:href="#DejaVuSans-41"/>
    <use xlink:href="#DejaVuSans-72" x="68.408203"/>
    <use xlink:href="#DejaVuSans-63" x="107.271484"/>
    <use xlink:href="#DejaVuSans-68" x="162.251953"/>
    <use xlink:href="#DejaVuSans-61" x="225.630859"/>
    <use xlink:href="#DejaVuSans-65" x="286.910156"/>
    <use xlink:href="#DejaVuSans-61" x="348.433594"/>
    <use xlink:href="#DejaVuSans-20" x="409.712891"/>
    <use xlink:href="#DejaVuSans-2d" x="441.5"/>
    <use xlink:href="#DejaVuSans-20" x="477.583984"/>
    <use xlink:href="#DejaVuSans-53" x="509.371094"/>
    <use xlink:href="#DejaVuSans-70" x="572.847656"/>
    <use xlink:href="#DejaVuSans-65" x="636.324219"/>
    <use xlink:href="#DejaVuSans-61" x="697.847656"/>
    <use xlink:href="#DejaVuSans-72" x="759.126953"/>
    <use xlink:href="#DejaVuSans-6d" x="798.490234"/>
    <use xlink:href="#DejaVuSans-61" x="895.902344"/>
    <use xlink:href="#DejaVuSans-6e" x="957.181641"/>
    <use xlink:href="#DejaVuSans-20" x="1020.560547"/>
    <use xlink:href="#DejaVuSans-63" x="1052.347656"/>
    <use xlink:href="#DejaVuSans-6f" x="1107.328125"/>
    <use xlink:href="#DejaVuSans-72" x="1168.509766"/>
    <use xlink:href="#DejaVuSans-72" x="1207.873047"/>
    <use xlink:href="#DejaVuSans-65" x="1246.736328"/>
    <use xlink:href="#DejaVuSans-6c" x="1308.259766"/>
    <use xlink:href="#DejaVuSans-61" x="1336.042969"/>
    <use xlink:href="#DejaVuSans-74" x="1397.322266"/>
    <use xlink:href="#DejaVuSans-69" x="1436.53125"/>
    <use xlink:href="#DejaVuSans-6f" x="1464.314453"/>
    <use xlink:href="#DejaVuSans-6e" x="1525.496094"/>
    <use xlink:href="#DejaVuSans-20" x="1588.875"/>
    <use xlink:href="#DejaVuSans-63" x="1620.662109"/>
    <use xlink:href="#DejaVuSans-6f" x="1675.642578"/>
    <use xlink:href="#DejaVuSans-65" x="1736.824219"/>
    <use xlink:href="#DejaVuSans-66" x="1798.347656"/>
    <use xlink:href="#DejaVuSans-66" x="1833.552734"/>
    <use xlink:href="#DejaVuSans-69" x="1868.757812"/>
    <use xlink:href="#DejaVuSans-63" x="1896.541016"/>
    <use xlink:href="#DejaVuSans-69" x="1951.521484"/>
    <use xlink:href="#DejaVuSans-65" x="1979.304688"/>
    <use xlink:href="#DejaVuSans-6e" x="2040.828125"/>
    <use xlink:href="#DejaVuSans-74" x="2104.207031"/>
    <use xlink:href="#DejaVuSans-73" x="2143.416016"/>
    <use xlink:href="#DejaVuSans-20" x="2195.515625"/>
    <use xlink:href="#DejaVuSans-66" x="2227.302734"/>
    <use xlink:href="#DejaVuSans-6f" x="2262.507812"/>
    <use xlink:href="#DejaVuSans-72" x="2323.689453"/>
    <use xlink:href="#DejaVuSans-20" x="2364.802734"/>
    <use xlink:href="#DejaVuSans-67" x="2396.589844"/>
    <use xlink:href="#DejaVuSans-65" x="2460.066406"/>
    <use xlink:href="#DejaVuSans-6e" x="2521.589844"/>
    <use xlink:href="#DejaVuSans-65" x="2584.96875"/>
    <use xlink:href="#DejaVuSans-74" x="2646.492188"/>
    <use xlink:href="#DejaVuSans-69" x="2685.701172"/>
    <use xlink:href="#DejaVuSans-63" x="2713.484375"/>
    <use xlink:href="#DejaVuSans-20" x="2768.464844"/>
    <use xlink:href="#DejaVuSans-63" x="2800.251953"/>
    <use xlink:href="#DejaVuSans-6f" x="2855.232422"/>
    <use xlink:href="#DejaVuSans-64" x="2916.414062"/>
    <use xlink:href="#DejaVuSans-65" x="2979.890625"/>
    <use xlink:href="#DejaVuSans-3a" x="3041.414062"/>
    <use xlink:href="#DejaVuSans-20" x="3075.105469"/>
    <use xlink:href="#DejaVuSans-53" x="3106.892578"/>
    <use xlink:href="#DejaVuSans-47" x="3170.369141"/>
    <use xlink:href="#DejaVuSans-43" x="3247.859375"/>
    <use xlink:href="#DejaVuSans-6f" x="3317.683594"/>
    <use xlink:href="#DejaVuSans-64" x="3378.865234"/>
    <use xlink:href="#DejaVuSans-65" x="3442.341797"/>
   </g>
  </g>
 </g>
 <defs>
  <clipPath id="p4508dc6e50">
   <rect x="43.78125" y="151.965714" width="773.450714" height="490.900952"/>
  </clipPath>
  <clipPath id="pb073c66171">
   <rect x="43.78125" y="50.4" width="773.450714" height="84.638095"/>
  </clipPath>
  <clipPath id="pe601035364">
   <rect x="843.902679" y="151.965714" width="133.353571" height="490.900952"/>
  </clipPath>
 </defs>
</svg>
