<?xml version="1.0" encoding="utf-8" standalone="no"?>
<!DOCTYPE svg PUBLIC "-//W3C//DTD SVG 1.1//EN"
  "http://www.w3.org/Graphics/SVG/1.1/DTD/svg11.dtd">
<svg xmlns:xlink="http://www.w3.org/1999/xlink" width="553.028121pt" height="568.8pt" viewBox="0 0 553.028121 568.8" xmlns="http://www.w3.org/2000/svg" version="1.1">
 <metadata>
  <rdf:RDF xmlns:dc="http://purl.org/dc/elements/1.1/" xmlns:cc="http://creativecommons.org/ns#" xmlns:rdf="http://www.w3.org/1999/02/22-rdf-syntax-ns#">
   <cc:Work>
    <dc:type rdf:resource="http://purl.org/dc/dcmitype/StillImage"/>
    <dc:date>2024-08-01T13:57:28.951347</dc:date>
    <dc:format>image/svg+xml</dc:format>
    <dc:creator>
     <cc:Agent>
      <dc:title>Matplotlib v3.8.3, https://matplotlib.org/</dc:title>
     </cc:Agent>
    </dc:creator>
   </cc:Work>
  </rdf:RDF>
 </metadata>
 <defs>
  <style type="text/css">*{stroke-linejoin: round; stroke-linecap: butt}</style>
 </defs>
 <g id="figure_1">
  <g id="patch_1">
   <path d="M 0 568.8 
L 553.028121 568.8 
L 553.028121 0 
L 0 0 
z
" style="fill: #ffffff"/>
  </g>
  <g id="axes_1">
   <g id="patch_2">
    <path d="M 7.2 561.6 
L 545.828121 561.6 
L 545.828121 7.2 
L 7.2 7.2 
z
" style="fill: #ffffff"/>
   </g>
   <g id="patch_3">
    <path d="M 83.490108 291.407194 
Q 154.056437 388.533419 223.965602 484.755134 
" clip-path="url(#p62eed58c4c)" style="fill: none; stroke: #000000; stroke-linecap: round"/>
    <path d="M 223.232495 480.343496 
L 223.965602 484.755134 
L 219.996427 482.694637 
z
" clip-path="url(#p62eed58c4c)" style="stroke: #000000; stroke-linecap: round"/>
   </g>
   <g id="patch_4">
    <path d="M 86.634933 287.075992 
Q 276.470196 348.757158 465.242145 410.092833 
" clip-path="url(#p62eed58c4c)" style="fill: none; stroke: #000000; stroke-linecap: round"/>
    <path d="M 462.055952 406.954653 
L 465.242145 410.092833 
L 460.819885 410.758879 
z
" clip-path="url(#p62eed58c4c)" style="stroke: #000000; stroke-linecap: round"/>
   </g>
   <g id="patch_5">
    <path d="M 86.634932 281.724017 
Q 276.47017 220.042801 465.242094 158.707077 
" clip-path="url(#p62eed58c4c)" style="fill: none; stroke: #000000; stroke-linecap: round"/>
    <path d="M 460.819834 158.041032 
L 465.242094 158.707077 
L 462.055902 161.845258 
z
" clip-path="url(#p62eed58c4c)" style="stroke: #000000; stroke-linecap: round"/>
   </g>
   <g id="patch_6">
    <path d="M 83.490106 277.392816 
Q 154.056404 180.266586 223.965539 84.044865 
" clip-path="url(#p62eed58c4c)" style="fill: none; stroke: #000000; stroke-linecap: round"/>
    <path d="M 219.996364 86.105363 
L 223.965539 84.044865 
L 223.232433 88.456503 
z
" clip-path="url(#p62eed58c4c)" style="stroke: #000000; stroke-linecap: round"/>
   </g>
   <g id="text_1">
    <g id="patch_7">
     <path d="M 142.104827 385.420048 
L 153.324177 400.86216 
Q 155.087533 403.289211 157.514584 401.525855 
L 165.344352 395.837196 
Q 167.771403 394.073841 166.008047 391.64679 
L 154.788696 376.204677 
Q 153.025341 373.777626 150.59829 375.540982 
L 142.768522 381.229641 
Q 140.341471 382.992997 142.104827 385.420048 
z
" clip-path="url(#p62eed58c4c)" style="fill: #ffffff; stroke: #ffffff; stroke-linejoin: miter"/>
    </g>
    <g clip-path="url(#p62eed58c4c)">
     <!-- 842 -->
     <g transform="translate(146.21438 382.434282) rotate(-305.999999) scale(0.1 -0.1)">
      <defs>
       <path id="DejaVuSans-38" d="M 2034 2216 
Q 1584 2216 1326 1975 
Q 1069 1734 1069 1313 
Q 1069 891 1326 650 
Q 1584 409 2034 409 
Q 2484 409 2743 651 
Q 3003 894 3003 1313 
Q 3003 1734 2745 1975 
Q 2488 2216 2034 2216 
z
M 1403 2484 
Q 997 2584 770 2862 
Q 544 3141 544 3541 
Q 544 4100 942 4425 
Q 1341 4750 2034 4750 
Q 2731 4750 3128 4425 
Q 3525 4100 3525 3541 
Q 3525 3141 3298 2862 
Q 3072 2584 2669 2484 
Q 3125 2378 3379 2068 
Q 3634 1759 3634 1313 
Q 3634 634 3220 271 
Q 2806 -91 2034 -91 
Q 1263 -91 848 271 
Q 434 634 434 1313 
Q 434 1759 690 2068 
Q 947 2378 1403 2484 
z
M 1172 3481 
Q 1172 3119 1398 2916 
Q 1625 2713 2034 2713 
Q 2441 2713 2670 2916 
Q 2900 3119 2900 3481 
Q 2900 3844 2670 4047 
Q 2441 4250 2034 4250 
Q 1625 4250 1398 4047 
Q 1172 3844 1172 3481 
z
" transform="scale(0.015625)"/>
       <path id="DejaVuSans-34" d="M 2419 4116 
L 825 1625 
L 2419 1625 
L 2419 4116 
z
M 2253 4666 
L 3047 4666 
L 3047 1625 
L 3713 1625 
L 3713 1100 
L 3047 1100 
L 3047 0 
L 2419 0 
L 2419 1100 
L 313 1100 
L 313 1709 
L 2253 4666 
z
" transform="scale(0.015625)"/>
       <path id="DejaVuSans-32" d="M 1228 531 
L 3431 531 
L 3431 0 
L 469 0 
L 469 531 
Q 828 903 1448 1529 
Q 2069 2156 2228 2338 
Q 2531 2678 2651 2914 
Q 2772 3150 2772 3378 
Q 2772 3750 2511 3984 
Q 2250 4219 1831 4219 
Q 1534 4219 1204 4116 
Q 875 4013 500 3803 
L 500 4441 
Q 881 4594 1212 4672 
Q 1544 4750 1819 4750 
Q 2544 4750 2975 4387 
Q 3406 4025 3406 3419 
Q 3406 3131 3298 2873 
Q 3191 2616 2906 2266 
Q 2828 2175 2409 1742 
Q 1991 1309 1228 531 
z
" transform="scale(0.015625)"/>
      </defs>
      <use xlink:href="#DejaVuSans-38"/>
      <use xlink:href="#DejaVuSans-34" x="63.623047"/>
      <use xlink:href="#DejaVuSans-32" x="127.246094"/>
     </g>
    </g>
   </g>
   <g id="text_2">
    <g id="patch_8">
     <path d="M 255.894501 350.314192 
L 292.201087 362.110907 
Q 295.054256 363.037958 295.981307 360.184788 
L 298.97201 350.980343 
Q 299.89906 348.127174 297.04589 347.200123 
L 260.739305 335.403408 
Q 257.886135 334.476358 256.959085 337.329528 
L 253.968382 346.533972 
Q 253.041331 349.387142 255.894501 350.314192 
z
" clip-path="url(#p62eed58c4c)" style="fill: #ffffff; stroke: #ffffff; stroke-linejoin: miter"/>
    </g>
    <g clip-path="url(#p62eed58c4c)">
     <!-- 638782 -->
     <g transform="translate(257.46421 345.483122) rotate(-342.000014) scale(0.1 -0.1)">
      <defs>
       <path id="DejaVuSans-36" d="M 2113 2584 
Q 1688 2584 1439 2293 
Q 1191 2003 1191 1497 
Q 1191 994 1439 701 
Q 1688 409 2113 409 
Q 2538 409 2786 701 
Q 3034 994 3034 1497 
Q 3034 2003 2786 2293 
Q 2538 2584 2113 2584 
z
M 3366 4563 
L 3366 3988 
Q 3128 4100 2886 4159 
Q 2644 4219 2406 4219 
Q 1781 4219 1451 3797 
Q 1122 3375 1075 2522 
Q 1259 2794 1537 2939 
Q 1816 3084 2150 3084 
Q 2853 3084 3261 2657 
Q 3669 2231 3669 1497 
Q 3669 778 3244 343 
Q 2819 -91 2113 -91 
Q 1303 -91 875 529 
Q 447 1150 447 2328 
Q 447 3434 972 4092 
Q 1497 4750 2381 4750 
Q 2619 4750 2861 4703 
Q 3103 4656 3366 4563 
z
" transform="scale(0.015625)"/>
       <path id="DejaVuSans-33" d="M 2597 2516 
Q 3050 2419 3304 2112 
Q 3559 1806 3559 1356 
Q 3559 666 3084 287 
Q 2609 -91 1734 -91 
Q 1441 -91 1130 -33 
Q 819 25 488 141 
L 488 750 
Q 750 597 1062 519 
Q 1375 441 1716 441 
Q 2309 441 2620 675 
Q 2931 909 2931 1356 
Q 2931 1769 2642 2001 
Q 2353 2234 1838 2234 
L 1294 2234 
L 1294 2753 
L 1863 2753 
Q 2328 2753 2575 2939 
Q 2822 3125 2822 3475 
Q 2822 3834 2567 4026 
Q 2313 4219 1838 4219 
Q 1578 4219 1281 4162 
Q 984 4106 628 3988 
L 628 4550 
Q 988 4650 1302 4700 
Q 1616 4750 1894 4750 
Q 2613 4750 3031 4423 
Q 3450 4097 3450 3541 
Q 3450 3153 3228 2886 
Q 3006 2619 2597 2516 
z
" transform="scale(0.015625)"/>
       <path id="DejaVuSans-37" d="M 525 4666 
L 3525 4666 
L 3525 4397 
L 1831 0 
L 1172 0 
L 2766 4134 
L 525 4134 
L 525 4666 
z
" transform="scale(0.015625)"/>
      </defs>
      <use xlink:href="#DejaVuSans-36"/>
      <use xlink:href="#DejaVuSans-33" x="63.623047"/>
      <use xlink:href="#DejaVuSans-38" x="127.246094"/>
      <use xlink:href="#DejaVuSans-37" x="190.869141"/>
      <use xlink:href="#DejaVuSans-38" x="254.492188"/>
      <use xlink:href="#DejaVuSans-32" x="318.115234"/>
     </g>
    </g>
   </g>
   <g id="text_3">
    <g id="patch_9">
     <path d="M 260.739282 233.396555 
L 297.045864 221.59983 
Q 299.899034 220.672779 298.971983 217.819609 
L 295.981277 208.615166 
Q 295.054226 205.761996 292.201057 206.689047 
L 255.894475 218.485772 
Q 253.041305 219.412824 253.968356 222.265993 
L 256.959062 231.470437 
Q 257.886113 234.323606 260.739282 233.396555 
z
" clip-path="url(#p62eed58c4c)" style="fill: #ffffff; stroke: #ffffff; stroke-linejoin: miter"/>
    </g>
    <g clip-path="url(#p62eed58c4c)">
     <!-- 646978 -->
     <g transform="translate(259.169572 228.565485) rotate(-18.000002) scale(0.1 -0.1)">
      <defs>
       <path id="DejaVuSans-39" d="M 703 97 
L 703 672 
Q 941 559 1184 500 
Q 1428 441 1663 441 
Q 2288 441 2617 861 
Q 2947 1281 2994 2138 
Q 2813 1869 2534 1725 
Q 2256 1581 1919 1581 
Q 1219 1581 811 2004 
Q 403 2428 403 3163 
Q 403 3881 828 4315 
Q 1253 4750 1959 4750 
Q 2769 4750 3195 4129 
Q 3622 3509 3622 2328 
Q 3622 1225 3098 567 
Q 2575 -91 1691 -91 
Q 1453 -91 1209 -44 
Q 966 3 703 97 
z
M 1959 2075 
Q 2384 2075 2632 2365 
Q 2881 2656 2881 3163 
Q 2881 3666 2632 3958 
Q 2384 4250 1959 4250 
Q 1534 4250 1286 3958 
Q 1038 3666 1038 3163 
Q 1038 2656 1286 2365 
Q 1534 2075 1959 2075 
z
" transform="scale(0.015625)"/>
      </defs>
      <use xlink:href="#DejaVuSans-36"/>
      <use xlink:href="#DejaVuSans-34" x="63.623047"/>
      <use xlink:href="#DejaVuSans-36" x="127.246094"/>
      <use xlink:href="#DejaVuSans-39" x="190.869141"/>
      <use xlink:href="#DejaVuSans-37" x="254.492188"/>
      <use xlink:href="#DejaVuSans-38" x="318.115234"/>
     </g>
    </g>
   </g>
   <g id="text_4">
    <g id="patch_10">
     <path d="M 158.528449 187.447956 
L 162.268231 182.300584 
Q 164.031586 179.873533 161.604535 178.110177 
L 153.774766 172.42152 
Q 151.347714 170.658165 149.584359 173.085217 
L 145.844577 178.232588 
Q 144.081222 180.65964 146.508273 182.422995 
L 154.338042 188.111652 
Q 156.765094 189.875007 158.528449 187.447956 
z
" clip-path="url(#p62eed58c4c)" style="fill: #ffffff; stroke: #ffffff; stroke-linejoin: miter"/>
    </g>
    <g clip-path="url(#p62eed58c4c)">
     <!-- 2 -->
     <g transform="translate(154.418895 184.462191) rotate(-54.000015) scale(0.1 -0.1)">
      <use xlink:href="#DejaVuSans-32"/>
     </g>
    </g>
   </g>
   <g id="patch_11">
    <path d="M 78.399088 255.202374 
C 72.326776 255.202374 66.403112 257.096687 61.457533 260.620068 
C 56.511955 264.143449 52.786592 269.123398 50.803075 274.862617 
C 48.819558 280.601835 48.674998 286.819336 50.389636 292.644538 
C 52.104274 298.469741 55.594164 303.617448 60.370646 307.366872 
L 78.399088 284.400005 
z
" style="fill: #0000ff"/>
   </g>
   <g id="patch_12">
    <path d="M 60.370646 307.366872 
C 64.030967 310.240137 68.325689 312.197162 72.895621 313.074272 
C 77.465554 313.951381 82.179641 313.723421 86.643619 312.409457 
C 91.107598 311.095493 95.19345 308.733207 98.559454 305.520169 
C 101.925459 302.307131 104.475087 298.335483 105.995099 293.937397 
C 107.515111 289.53931 107.961917 284.840912 107.298148 280.235153 
C 106.634379 275.629394 104.87907 271.248358 102.179028 267.458454 
C 99.478985 263.66855 95.91164 260.578464 91.775347 258.446636 
C 87.639055 256.314808 83.052436 255.202375 78.399093 255.202374 
L 78.399088 284.400005 
z
" style="fill: #ff0000"/>
   </g>
   <g id="matplotlib.axis_1">
    <g id="xtick_1"/>
    <g id="xtick_2"/>
    <g id="xtick_3"/>
    <g id="xtick_4"/>
    <g id="xtick_5"/>
    <g id="xtick_6"/>
    <g id="xtick_7"/>
   </g>
   <g id="matplotlib.axis_2">
    <g id="ytick_1"/>
    <g id="ytick_2"/>
    <g id="ytick_3"/>
    <g id="ytick_4"/>
    <g id="ytick_5"/>
    <g id="ytick_6"/>
    <g id="ytick_7"/>
   </g>
   <g id="PathCollection_1">
    <path d="M 78.399088 300.211394 
C 82.592317 300.211394 86.614367 298.545406 89.579427 295.580345 
C 92.544488 292.615285 94.210476 288.593235 94.210476 284.400005 
C 94.210476 280.206776 92.544488 276.184726 89.579427 273.219666 
C 86.614367 270.254605 82.592317 268.588617 78.399088 268.588617 
C 74.205858 268.588617 70.183809 270.254605 67.218748 273.219666 
C 64.253687 276.184726 62.587699 280.206776 62.587699 284.400005 
C 62.587699 288.593235 64.253687 292.615285 67.218748 295.580345 
C 70.183809 298.545406 74.205858 300.211394 78.399088 300.211394 
z
" clip-path="url(#p62eed58c4c)" style="fill: #87ceeb; stroke: #000000"/>
    <path d="M 229.712064 508.567961 
C 233.929721 508.567961 237.975202 506.892268 240.957536 503.909934 
C 243.93987 500.9276 245.615563 496.882119 245.615563 492.664462 
C 245.615563 488.446805 243.93987 484.401324 240.957536 481.41899 
C 237.975202 478.436656 233.929721 476.760963 229.712064 476.760963 
C 225.494407 476.760963 221.448926 478.436656 218.466592 481.41899 
C 215.484258 484.401324 213.808565 488.446805 213.808565 492.664462 
C 213.808565 496.882119 215.484258 500.9276 218.466592 503.909934 
C 221.448926 506.892268 225.494407 508.567961 229.712064 508.567961 
z
" clip-path="url(#p62eed58c4c)" style="fill: #90ee90; stroke: #000000"/>
    <path d="M 474.54173 462.828598 
C 487.726077 462.828598 500.372201 457.590402 509.694942 448.267661 
C 519.017683 438.94492 524.255879 426.298795 524.255879 413.114449 
C 524.255879 399.930102 519.017683 387.283978 509.694942 377.961237 
C 500.372201 368.638496 487.726077 363.4003 474.54173 363.4003 
C 461.357384 363.4003 448.711259 368.638496 439.388518 377.961237 
C 430.065778 387.283978 424.827581 399.930102 424.827581 413.114449 
C 424.827581 426.298795 430.065778 438.94492 439.388518 448.267661 
C 448.711259 457.590402 461.357384 462.828598 474.54173 462.828598 
z
" clip-path="url(#p62eed58c4c)" style="fill: #90ee90; stroke: #000000"/>
    <path d="M 474.541678 205.685459 
C 487.801833 205.685459 500.520672 200.417143 509.897017 191.040798 
C 519.273363 181.664452 524.541678 168.945614 524.541678 155.685459 
C 524.541678 142.425304 519.273363 129.706465 509.897017 120.330119 
C 500.520672 110.953774 487.801833 105.685459 474.541678 105.685459 
C 461.281523 105.685459 448.562685 110.953774 439.186339 120.330119 
C 429.809994 129.706465 424.541678 142.425304 424.541678 155.685459 
C 424.541678 168.945614 429.809994 181.664452 439.186339 191.040798 
C 448.562685 200.417143 461.281523 205.685459 474.541678 205.685459 
z
" clip-path="url(#p62eed58c4c)" style="fill: #90ee90; stroke: #000000"/>
    <path d="M 229.711999 91.946925 
C 233.905228 91.946925 237.927278 90.280937 240.892339 87.315876 
C 243.8574 84.350816 245.523387 80.328766 245.523387 76.135537 
C 245.523387 71.942307 243.8574 67.920257 240.892339 64.955197 
C 237.927278 61.990136 233.905228 60.324148 229.711999 60.324148 
C 225.51877 60.324148 221.49672 61.990136 218.531659 64.955197 
C 215.566598 67.920257 213.900611 71.942307 213.900611 76.135537 
C 213.900611 80.328766 215.566598 84.350816 218.531659 87.315876 
C 221.49672 90.280937 225.51877 91.946925 229.711999 91.946925 
z
" clip-path="url(#p62eed58c4c)" style="fill: #90ee90; stroke: #000000"/>
   </g>
   <g id="patch_13">
    <path d="M 7.2 561.6 
L 7.2 7.2 
" style="fill: none; stroke: #000000; stroke-width: 0.8; stroke-linejoin: miter; stroke-linecap: square"/>
   </g>
   <g id="patch_14">
    <path d="M 545.828121 561.6 
L 545.828121 7.2 
" style="fill: none; stroke: #000000; stroke-width: 0.8; stroke-linejoin: miter; stroke-linecap: square"/>
   </g>
   <g id="patch_15">
    <path d="M 7.2 561.6 
L 545.828121 561.6 
" style="fill: none; stroke: #000000; stroke-width: 0.8; stroke-linejoin: miter; stroke-linecap: square"/>
   </g>
   <g id="patch_16">
    <path d="M 7.2 7.2 
L 545.828121 7.2 
" style="fill: none; stroke: #000000; stroke-width: 0.8; stroke-linejoin: miter; stroke-linecap: square"/>
   </g>
   <g id="text_5">
    <g clip-path="url(#p62eed58c4c)">
     <!-- $\mathbf{Y}$ -->
     <g transform="translate(74.019088 287.711255) scale(0.12 -0.12)">
      <defs>
       <path id="DejaVuSans-Bold-59" d="M -63 4666 
L 1253 4666 
L 2316 3003 
L 3378 4666 
L 4697 4666 
L 2919 1966 
L 2919 0 
L 1716 0 
L 1716 1966 
L -63 4666 
z
" transform="scale(0.015625)"/>
      </defs>
      <use xlink:href="#DejaVuSans-Bold-59" transform="translate(0 0.09375)"/>
     </g>
    </g>
   </g>
   <g id="text_6">
    <g clip-path="url(#p62eed58c4c)">
     <!-- NCC -->
     <g transform="translate(216.843939 495.975712) scale(0.12 -0.12)">
      <defs>
       <path id="DejaVuSans-4e" d="M 628 4666 
L 1478 4666 
L 3547 763 
L 3547 4666 
L 4159 4666 
L 4159 0 
L 3309 0 
L 1241 3903 
L 1241 0 
L 628 0 
L 628 4666 
z
" transform="scale(0.015625)"/>
       <path id="DejaVuSans-43" d="M 4122 4306 
L 4122 3641 
Q 3803 3938 3442 4084 
Q 3081 4231 2675 4231 
Q 1875 4231 1450 3742 
Q 1025 3253 1025 2328 
Q 1025 1406 1450 917 
Q 1875 428 2675 428 
Q 3081 428 3442 575 
Q 3803 722 4122 1019 
L 4122 359 
Q 3791 134 3420 21 
Q 3050 -91 2638 -91 
Q 1578 -91 968 557 
Q 359 1206 359 2328 
Q 359 3453 968 4101 
Q 1578 4750 2638 4750 
Q 3056 4750 3426 4639 
Q 3797 4528 4122 4306 
z
" transform="scale(0.015625)"/>
      </defs>
      <use xlink:href="#DejaVuSans-4e"/>
      <use xlink:href="#DejaVuSans-43" x="74.804688"/>
      <use xlink:href="#DejaVuSans-43" x="144.628906"/>
     </g>
    </g>
   </g>
   <g id="text_7">
    <g clip-path="url(#p62eed58c4c)">
     <!-- TAC -->
     <g transform="translate(463.15298 416.425699) scale(0.12 -0.12)">
      <defs>
       <path id="DejaVuSans-54" d="M -19 4666 
L 3928 4666 
L 3928 4134 
L 2272 4134 
L 2272 0 
L 1638 0 
L 1638 4134 
L -19 4134 
L -19 4666 
z
" transform="scale(0.015625)"/>
       <path id="DejaVuSans-41" d="M 2188 4044 
L 1331 1722 
L 3047 1722 
L 2188 4044 
z
M 1831 4666 
L 2547 4666 
L 4325 0 
L 3669 0 
L 3244 1197 
L 1141 1197 
L 716 0 
L 50 0 
L 1831 4666 
z
" transform="scale(0.015625)"/>
      </defs>
      <use xlink:href="#DejaVuSans-54"/>
      <use xlink:href="#DejaVuSans-41" x="53.333984"/>
      <use xlink:href="#DejaVuSans-43" x="119.992188"/>
     </g>
    </g>
   </g>
   <g id="text_8">
    <g clip-path="url(#p62eed58c4c)">
     <!-- TAT -->
     <g transform="translate(464.037928 158.996709) scale(0.12 -0.12)">
      <use xlink:href="#DejaVuSans-54"/>
      <use xlink:href="#DejaVuSans-41" x="53.333984"/>
      <use xlink:href="#DejaVuSans-54" x="113.992188"/>
     </g>
    </g>
   </g>
   <g id="text_9">
    <g clip-path="url(#p62eed58c4c)">
     <!-- TAA -->
     <g transform="translate(218.138561 79.446787) scale(0.12 -0.12)">
      <use xlink:href="#DejaVuSans-54"/>
      <use xlink:href="#DejaVuSans-41" x="53.333984"/>
      <use xlink:href="#DejaVuSans-41" x="124.492188"/>
     </g>
    </g>
   </g>
   <g id="legend_1">
    <g id="patch_17">
     <path d="M 14.2 44.55625 
L 116.278125 44.55625 
Q 118.278125 44.55625 118.278125 42.55625 
L 118.278125 14.2 
Q 118.278125 12.2 116.278125 12.2 
L 14.2 12.2 
Q 12.2 12.2 12.2 14.2 
L 12.2 42.55625 
Q 12.2 44.55625 14.2 44.55625 
z
" style="fill: #ffffff; opacity: 0.8; stroke: #cccccc; stroke-linejoin: miter"/>
    </g>
    <g id="patch_18">
     <path d="M 16.2 23.798438 
L 36.2 23.798438 
L 36.2 16.798438 
L 16.2 16.798438 
z
" style="fill: #0000ff"/>
    </g>
    <g id="text_10">
     <!-- Genomic data -->
     <g transform="translate(44.2 23.798438) scale(0.1 -0.1)">
      <defs>
       <path id="DejaVuSans-47" d="M 3809 666 
L 3809 1919 
L 2778 1919 
L 2778 2438 
L 4434 2438 
L 4434 434 
Q 4069 175 3628 42 
Q 3188 -91 2688 -91 
Q 1594 -91 976 548 
Q 359 1188 359 2328 
Q 359 3472 976 4111 
Q 1594 4750 2688 4750 
Q 3144 4750 3555 4637 
Q 3966 4525 4313 4306 
L 4313 3634 
Q 3963 3931 3569 4081 
Q 3175 4231 2741 4231 
Q 1884 4231 1454 3753 
Q 1025 3275 1025 2328 
Q 1025 1384 1454 906 
Q 1884 428 2741 428 
Q 3075 428 3337 486 
Q 3600 544 3809 666 
z
" transform="scale(0.015625)"/>
       <path id="DejaVuSans-65" d="M 3597 1894 
L 3597 1613 
L 953 1613 
Q 991 1019 1311 708 
Q 1631 397 2203 397 
Q 2534 397 2845 478 
Q 3156 559 3463 722 
L 3463 178 
Q 3153 47 2828 -22 
Q 2503 -91 2169 -91 
Q 1331 -91 842 396 
Q 353 884 353 1716 
Q 353 2575 817 3079 
Q 1281 3584 2069 3584 
Q 2775 3584 3186 3129 
Q 3597 2675 3597 1894 
z
M 3022 2063 
Q 3016 2534 2758 2815 
Q 2500 3097 2075 3097 
Q 1594 3097 1305 2825 
Q 1016 2553 972 2059 
L 3022 2063 
z
" transform="scale(0.015625)"/>
       <path id="DejaVuSans-6e" d="M 3513 2113 
L 3513 0 
L 2938 0 
L 2938 2094 
Q 2938 2591 2744 2837 
Q 2550 3084 2163 3084 
Q 1697 3084 1428 2787 
Q 1159 2491 1159 1978 
L 1159 0 
L 581 0 
L 581 3500 
L 1159 3500 
L 1159 2956 
Q 1366 3272 1645 3428 
Q 1925 3584 2291 3584 
Q 2894 3584 3203 3211 
Q 3513 2838 3513 2113 
z
" transform="scale(0.015625)"/>
       <path id="DejaVuSans-6f" d="M 1959 3097 
Q 1497 3097 1228 2736 
Q 959 2375 959 1747 
Q 959 1119 1226 758 
Q 1494 397 1959 397 
Q 2419 397 2687 759 
Q 2956 1122 2956 1747 
Q 2956 2369 2687 2733 
Q 2419 3097 1959 3097 
z
M 1959 3584 
Q 2709 3584 3137 3096 
Q 3566 2609 3566 1747 
Q 3566 888 3137 398 
Q 2709 -91 1959 -91 
Q 1206 -91 779 398 
Q 353 888 353 1747 
Q 353 2609 779 3096 
Q 1206 3584 1959 3584 
z
" transform="scale(0.015625)"/>
       <path id="DejaVuSans-6d" d="M 3328 2828 
Q 3544 3216 3844 3400 
Q 4144 3584 4550 3584 
Q 5097 3584 5394 3201 
Q 5691 2819 5691 2113 
L 5691 0 
L 5113 0 
L 5113 2094 
Q 5113 2597 4934 2840 
Q 4756 3084 4391 3084 
Q 3944 3084 3684 2787 
Q 3425 2491 3425 1978 
L 3425 0 
L 2847 0 
L 2847 2094 
Q 2847 2600 2669 2842 
Q 2491 3084 2119 3084 
Q 1678 3084 1418 2786 
Q 1159 2488 1159 1978 
L 1159 0 
L 581 0 
L 581 3500 
L 1159 3500 
L 1159 2956 
Q 1356 3278 1631 3431 
Q 1906 3584 2284 3584 
Q 2666 3584 2933 3390 
Q 3200 3197 3328 2828 
z
" transform="scale(0.015625)"/>
       <path id="DejaVuSans-69" d="M 603 3500 
L 1178 3500 
L 1178 0 
L 603 0 
L 603 3500 
z
M 603 4863 
L 1178 4863 
L 1178 4134 
L 603 4134 
L 603 4863 
z
" transform="scale(0.015625)"/>
       <path id="DejaVuSans-63" d="M 3122 3366 
L 3122 2828 
Q 2878 2963 2633 3030 
Q 2388 3097 2138 3097 
Q 1578 3097 1268 2742 
Q 959 2388 959 1747 
Q 959 1106 1268 751 
Q 1578 397 2138 397 
Q 2388 397 2633 464 
Q 2878 531 3122 666 
L 3122 134 
Q 2881 22 2623 -34 
Q 2366 -91 2075 -91 
Q 1284 -91 818 406 
Q 353 903 353 1747 
Q 353 2603 823 3093 
Q 1294 3584 2113 3584 
Q 2378 3584 2631 3529 
Q 2884 3475 3122 3366 
z
" transform="scale(0.015625)"/>
       <path id="DejaVuSans-20" transform="scale(0.015625)"/>
       <path id="DejaVuSans-64" d="M 2906 2969 
L 2906 4863 
L 3481 4863 
L 3481 0 
L 2906 0 
L 2906 525 
Q 2725 213 2448 61 
Q 2172 -91 1784 -91 
Q 1150 -91 751 415 
Q 353 922 353 1747 
Q 353 2572 751 3078 
Q 1150 3584 1784 3584 
Q 2172 3584 2448 3432 
Q 2725 3281 2906 2969 
z
M 947 1747 
Q 947 1113 1208 752 
Q 1469 391 1925 391 
Q 2381 391 2643 752 
Q 2906 1113 2906 1747 
Q 2906 2381 2643 2742 
Q 2381 3103 1925 3103 
Q 1469 3103 1208 2742 
Q 947 2381 947 1747 
z
" transform="scale(0.015625)"/>
       <path id="DejaVuSans-61" d="M 2194 1759 
Q 1497 1759 1228 1600 
Q 959 1441 959 1056 
Q 959 750 1161 570 
Q 1363 391 1709 391 
Q 2188 391 2477 730 
Q 2766 1069 2766 1631 
L 2766 1759 
L 2194 1759 
z
M 3341 1997 
L 3341 0 
L 2766 0 
L 2766 531 
Q 2569 213 2275 61 
Q 1981 -91 1556 -91 
Q 1019 -91 701 211 
Q 384 513 384 1019 
Q 384 1609 779 1909 
Q 1175 2209 1959 2209 
L 2766 2209 
L 2766 2266 
Q 2766 2663 2505 2880 
Q 2244 3097 1772 3097 
Q 1472 3097 1187 3025 
Q 903 2953 641 2809 
L 641 3341 
Q 956 3463 1253 3523 
Q 1550 3584 1831 3584 
Q 2591 3584 2966 3190 
Q 3341 2797 3341 1997 
z
" transform="scale(0.015625)"/>
       <path id="DejaVuSans-74" d="M 1172 4494 
L 1172 3500 
L 2356 3500 
L 2356 3053 
L 1172 3053 
L 1172 1153 
Q 1172 725 1289 603 
Q 1406 481 1766 481 
L 2356 481 
L 2356 0 
L 1766 0 
Q 1100 0 847 248 
Q 594 497 594 1153 
L 594 3053 
L 172 3053 
L 172 3500 
L 594 3500 
L 594 4494 
L 1172 4494 
z
" transform="scale(0.015625)"/>
      </defs>
      <use xlink:href="#DejaVuSans-47"/>
      <use xlink:href="#DejaVuSans-65" x="77.490234"/>
      <use xlink:href="#DejaVuSans-6e" x="139.013672"/>
      <use xlink:href="#DejaVuSans-6f" x="202.392578"/>
      <use xlink:href="#DejaVuSans-6d" x="263.574219"/>
      <use xlink:href="#DejaVuSans-69" x="360.986328"/>
      <use xlink:href="#DejaVuSans-63" x="388.769531"/>
      <use xlink:href="#DejaVuSans-20" x="443.75"/>
      <use xlink:href="#DejaVuSans-64" x="475.537109"/>
      <use xlink:href="#DejaVuSans-61" x="539.013672"/>
      <use xlink:href="#DejaVuSans-74" x="600.292969"/>
      <use xlink:href="#DejaVuSans-61" x="639.501953"/>
     </g>
    </g>
    <g id="patch_19">
     <path d="M 16.2 38.476563 
L 36.2 38.476563 
L 36.2 31.476563 
L 16.2 31.476563 
z
" style="fill: #ff0000"/>
    </g>
    <g id="text_11">
     <!-- Genetic code -->
     <g transform="translate(44.2 38.476563) scale(0.1 -0.1)">
      <use xlink:href="#DejaVuSans-47"/>
      <use xlink:href="#DejaVuSans-65" x="77.490234"/>
      <use xlink:href="#DejaVuSans-6e" x="139.013672"/>
      <use xlink:href="#DejaVuSans-65" x="202.392578"/>
      <use xlink:href="#DejaVuSans-74" x="263.916016"/>
      <use xlink:href="#DejaVuSans-69" x="303.125"/>
      <use xlink:href="#DejaVuSans-63" x="330.908203"/>
      <use xlink:href="#DejaVuSans-20" x="385.888672"/>
      <use xlink:href="#DejaVuSans-63" x="417.675781"/>
      <use xlink:href="#DejaVuSans-6f" x="472.65625"/>
      <use xlink:href="#DejaVuSans-64" x="533.837891"/>
      <use xlink:href="#DejaVuSans-65" x="597.314453"/>
     </g>
    </g>
   </g>
  </g>
 </g>
 <defs>
  <clipPath id="p62eed58c4c">
   <rect x="7.2" y="7.2" width="538.628121" height="554.4"/>
  </clipPath>
 </defs>
</svg>
