<?xml version="1.0" encoding="utf-8" standalone="no"?>
<!DOCTYPE svg PUBLIC "-//W3C//DTD SVG 1.1//EN"
  "http://www.w3.org/Graphics/SVG/1.1/DTD/svg11.dtd">
<svg xmlns:xlink="http://www.w3.org/1999/xlink" width="416.636085pt" height="325.986375pt" viewBox="0 0 416.636085 325.986375" xmlns="http://www.w3.org/2000/svg" version="1.1">
 <metadata>
  <rdf:RDF xmlns:dc="http://purl.org/dc/elements/1.1/" xmlns:cc="http://creativecommons.org/ns#" xmlns:rdf="http://www.w3.org/1999/02/22-rdf-syntax-ns#">
   <cc:Work>
    <dc:type rdf:resource="http://purl.org/dc/dcmitype/StillImage"/>
    <dc:date>2025-01-09T10:05:19.605700</dc:date>
    <dc:format>image/svg+xml</dc:format>
    <dc:creator>
     <cc:Agent>
      <dc:title>Matplotlib v3.6.3, https://matplotlib.org/</dc:title>
     </cc:Agent>
    </dc:creator>
   </cc:Work>
  </rdf:RDF>
 </metadata>
 <defs>
  <style type="text/css">*{stroke-linejoin: round; stroke-linecap: butt}</style>
 </defs>
 <g id="figure_1">
  <g id="patch_1">
   <path d="M 0 325.986375 
L 416.636085 325.986375 
L 416.636085 0 
L 0 0 
z
" style="fill: #ffffff"/>
  </g>
  <g id="axes_1">
   <g id="patch_2">
    <path d="M 46.965625 288.430125 
L 404.085625 288.430125 
L 404.085625 22.318125 
L 46.965625 22.318125 
z
" style="fill: #ffffff"/>
   </g>
   <g id="patch_3">
    <path d="M 63.198352 288.430125 
L 66.477691 288.430125 
L 66.477691 285.844003 
L 63.198352 285.844003 
z
" clip-path="url(#p55b99b7383)" style="fill: #800000; fill-opacity: 0.4; stroke: #000000; stroke-width: 0.327934; stroke-linejoin: miter"/>
   </g>
   <g id="patch_4">
    <path d="M 66.477691 288.430125 
L 69.75703 288.430125 
L 69.75703 288.430125 
L 66.477691 288.430125 
z
" clip-path="url(#p55b99b7383)" style="fill: #800000; fill-opacity: 0.4; stroke: #000000; stroke-width: 0.327934; stroke-linejoin: miter"/>
   </g>
   <g id="patch_5">
    <path d="M 69.75703 288.430125 
L 73.036369 288.430125 
L 73.036369 275.499513 
L 69.75703 275.499513 
z
" clip-path="url(#p55b99b7383)" style="fill: #800000; fill-opacity: 0.4; stroke: #000000; stroke-width: 0.327934; stroke-linejoin: miter"/>
   </g>
   <g id="patch_6">
    <path d="M 73.036369 288.430125 
L 76.315708 288.430125 
L 76.315708 275.499513 
L 73.036369 275.499513 
z
" clip-path="url(#p55b99b7383)" style="fill: #800000; fill-opacity: 0.4; stroke: #000000; stroke-width: 0.327934; stroke-linejoin: miter"/>
   </g>
   <g id="patch_7">
    <path d="M 76.315708 288.430125 
L 79.595046 288.430125 
L 79.595046 278.085635 
L 76.315708 278.085635 
z
" clip-path="url(#p55b99b7383)" style="fill: #800000; fill-opacity: 0.4; stroke: #000000; stroke-width: 0.327934; stroke-linejoin: miter"/>
   </g>
   <g id="patch_8">
    <path d="M 79.595046 288.430125 
L 82.874385 288.430125 
L 82.874385 280.671758 
L 79.595046 280.671758 
z
" clip-path="url(#p55b99b7383)" style="fill: #800000; fill-opacity: 0.4; stroke: #000000; stroke-width: 0.327934; stroke-linejoin: miter"/>
   </g>
   <g id="patch_9">
    <path d="M 82.874385 288.430125 
L 86.153724 288.430125 
L 86.153724 252.224411 
L 82.874385 252.224411 
z
" clip-path="url(#p55b99b7383)" style="fill: #800000; fill-opacity: 0.4; stroke: #000000; stroke-width: 0.327934; stroke-linejoin: miter"/>
   </g>
   <g id="patch_10">
    <path d="M 86.153724 288.430125 
L 89.433063 288.430125 
L 89.433063 254.810533 
L 86.153724 254.810533 
z
" clip-path="url(#p55b99b7383)" style="fill: #800000; fill-opacity: 0.4; stroke: #000000; stroke-width: 0.327934; stroke-linejoin: miter"/>
   </g>
   <g id="patch_11">
    <path d="M 89.433063 288.430125 
L 92.712402 288.430125 
L 92.712402 205.674207 
L 89.433063 205.674207 
z
" clip-path="url(#p55b99b7383)" style="fill: #800000; fill-opacity: 0.4; stroke: #000000; stroke-width: 0.327934; stroke-linejoin: miter"/>
   </g>
   <g id="patch_12">
    <path d="M 92.712402 288.430125 
L 95.991741 288.430125 
L 95.991741 203.088084 
L 92.712402 203.088084 
z
" clip-path="url(#p55b99b7383)" style="fill: #800000; fill-opacity: 0.4; stroke: #000000; stroke-width: 0.327934; stroke-linejoin: miter"/>
   </g>
   <g id="patch_13">
    <path d="M 95.991741 288.430125 
L 99.27108 288.430125 
L 99.27108 104.815431 
L 95.991741 104.815431 
z
" clip-path="url(#p55b99b7383)" style="fill: #800000; fill-opacity: 0.4; stroke: #000000; stroke-width: 0.327934; stroke-linejoin: miter"/>
   </g>
   <g id="patch_14">
    <path d="M 99.27108 288.430125 
L 102.550418 288.430125 
L 102.550418 148.779513 
L 99.27108 148.779513 
z
" clip-path="url(#p55b99b7383)" style="fill: #800000; fill-opacity: 0.4; stroke: #000000; stroke-width: 0.327934; stroke-linejoin: miter"/>
   </g>
   <g id="patch_15">
    <path d="M 102.550418 288.430125 
L 105.829757 288.430125 
L 105.829757 86.712574 
L 102.550418 86.712574 
z
" clip-path="url(#p55b99b7383)" style="fill: #800000; fill-opacity: 0.4; stroke: #000000; stroke-width: 0.327934; stroke-linejoin: miter"/>
   </g>
   <g id="patch_16">
    <path d="M 105.829757 288.430125 
L 109.109096 288.430125 
L 109.109096 63.437472 
L 105.829757 63.437472 
z
" clip-path="url(#p55b99b7383)" style="fill: #800000; fill-opacity: 0.4; stroke: #000000; stroke-width: 0.327934; stroke-linejoin: miter"/>
   </g>
   <g id="patch_17">
    <path d="M 109.109096 288.430125 
L 112.388435 288.430125 
L 112.388435 37.576247 
L 109.109096 37.576247 
z
" clip-path="url(#p55b99b7383)" style="fill: #800000; fill-opacity: 0.4; stroke: #000000; stroke-width: 0.327934; stroke-linejoin: miter"/>
   </g>
   <g id="patch_18">
    <path d="M 112.388435 288.430125 
L 115.667774 288.430125 
L 115.667774 34.990125 
L 112.388435 34.990125 
z
" clip-path="url(#p55b99b7383)" style="fill: #800000; fill-opacity: 0.4; stroke: #000000; stroke-width: 0.327934; stroke-linejoin: miter"/>
   </g>
   <g id="patch_19">
    <path d="M 115.667774 288.430125 
L 118.947113 288.430125 
L 118.947113 71.195839 
L 115.667774 71.195839 
z
" clip-path="url(#p55b99b7383)" style="fill: #800000; fill-opacity: 0.4; stroke: #000000; stroke-width: 0.327934; stroke-linejoin: miter"/>
   </g>
   <g id="patch_20">
    <path d="M 118.947113 288.430125 
L 122.226451 288.430125 
L 122.226451 99.643186 
L 118.947113 99.643186 
z
" clip-path="url(#p55b99b7383)" style="fill: #800000; fill-opacity: 0.4; stroke: #000000; stroke-width: 0.327934; stroke-linejoin: miter"/>
   </g>
   <g id="patch_21">
    <path d="M 122.226451 288.430125 
L 125.50579 288.430125 
L 125.50579 138.435023 
L 122.226451 138.435023 
z
" clip-path="url(#p55b99b7383)" style="fill: #800000; fill-opacity: 0.4; stroke: #000000; stroke-width: 0.327934; stroke-linejoin: miter"/>
   </g>
   <g id="patch_22">
    <path d="M 125.50579 288.430125 
L 128.785129 288.430125 
L 128.785129 234.121554 
L 125.50579 234.121554 
z
" clip-path="url(#p55b99b7383)" style="fill: #800000; fill-opacity: 0.4; stroke: #000000; stroke-width: 0.327934; stroke-linejoin: miter"/>
   </g>
   <g id="patch_23">
    <path d="M 128.785129 288.430125 
L 132.064468 288.430125 
L 132.064468 254.810533 
L 128.785129 254.810533 
z
" clip-path="url(#p55b99b7383)" style="fill: #800000; fill-opacity: 0.4; stroke: #000000; stroke-width: 0.327934; stroke-linejoin: miter"/>
   </g>
   <g id="patch_24">
    <path d="M 132.064468 288.430125 
L 135.343807 288.430125 
L 135.343807 265.155023 
L 132.064468 265.155023 
z
" clip-path="url(#p55b99b7383)" style="fill: #800000; fill-opacity: 0.4; stroke: #000000; stroke-width: 0.327934; stroke-linejoin: miter"/>
   </g>
   <g id="patch_25">
    <path d="M 135.343807 288.430125 
L 138.623146 288.430125 
L 138.623146 280.671758 
L 135.343807 280.671758 
z
" clip-path="url(#p55b99b7383)" style="fill: #800000; fill-opacity: 0.4; stroke: #000000; stroke-width: 0.327934; stroke-linejoin: miter"/>
   </g>
   <g id="patch_26">
    <path d="M 138.623146 288.430125 
L 141.902485 288.430125 
L 141.902485 283.25788 
L 138.623146 283.25788 
z
" clip-path="url(#p55b99b7383)" style="fill: #800000; fill-opacity: 0.4; stroke: #000000; stroke-width: 0.327934; stroke-linejoin: miter"/>
   </g>
   <g id="patch_27">
    <path d="M 141.902485 288.430125 
L 145.181823 288.430125 
L 145.181823 280.671758 
L 141.902485 280.671758 
z
" clip-path="url(#p55b99b7383)" style="fill: #800000; fill-opacity: 0.4; stroke: #000000; stroke-width: 0.327934; stroke-linejoin: miter"/>
   </g>
   <g id="patch_28">
    <path d="M 145.181823 288.430125 
L 148.461162 288.430125 
L 148.461162 283.25788 
L 145.181823 283.25788 
z
" clip-path="url(#p55b99b7383)" style="fill: #800000; fill-opacity: 0.4; stroke: #000000; stroke-width: 0.327934; stroke-linejoin: miter"/>
   </g>
   <g id="patch_29">
    <path d="M 148.461162 288.430125 
L 151.740501 288.430125 
L 151.740501 288.430125 
L 148.461162 288.430125 
z
" clip-path="url(#p55b99b7383)" style="fill: #800000; fill-opacity: 0.4; stroke: #000000; stroke-width: 0.327934; stroke-linejoin: miter"/>
   </g>
   <g id="patch_30">
    <path d="M 151.740501 288.430125 
L 155.01984 288.430125 
L 155.01984 285.844003 
L 151.740501 285.844003 
z
" clip-path="url(#p55b99b7383)" style="fill: #800000; fill-opacity: 0.4; stroke: #000000; stroke-width: 0.327934; stroke-linejoin: miter"/>
   </g>
   <g id="patch_31">
    <path d="M 155.01984 288.430125 
L 158.299179 288.430125 
L 158.299179 280.671758 
L 155.01984 280.671758 
z
" clip-path="url(#p55b99b7383)" style="fill: #800000; fill-opacity: 0.4; stroke: #000000; stroke-width: 0.327934; stroke-linejoin: miter"/>
   </g>
   <g id="patch_32">
    <path d="M 158.299179 288.430125 
L 161.578518 288.430125 
L 161.578518 288.430125 
L 158.299179 288.430125 
z
" clip-path="url(#p55b99b7383)" style="fill: #800000; fill-opacity: 0.4; stroke: #000000; stroke-width: 0.327934; stroke-linejoin: miter"/>
   </g>
   <g id="patch_33">
    <path d="M 161.578518 288.430125 
L 164.857856 288.430125 
L 164.857856 288.430125 
L 161.578518 288.430125 
z
" clip-path="url(#p55b99b7383)" style="fill: #800000; fill-opacity: 0.4; stroke: #000000; stroke-width: 0.327934; stroke-linejoin: miter"/>
   </g>
   <g id="patch_34">
    <path d="M 164.857856 288.430125 
L 168.137195 288.430125 
L 168.137195 288.430125 
L 164.857856 288.430125 
z
" clip-path="url(#p55b99b7383)" style="fill: #800000; fill-opacity: 0.4; stroke: #000000; stroke-width: 0.327934; stroke-linejoin: miter"/>
   </g>
   <g id="patch_35">
    <path d="M 168.137195 288.430125 
L 171.416534 288.430125 
L 171.416534 288.430125 
L 168.137195 288.430125 
z
" clip-path="url(#p55b99b7383)" style="fill: #800000; fill-opacity: 0.4; stroke: #000000; stroke-width: 0.327934; stroke-linejoin: miter"/>
   </g>
   <g id="patch_36">
    <path d="M 171.416534 288.430125 
L 174.695873 288.430125 
L 174.695873 288.430125 
L 171.416534 288.430125 
z
" clip-path="url(#p55b99b7383)" style="fill: #800000; fill-opacity: 0.4; stroke: #000000; stroke-width: 0.327934; stroke-linejoin: miter"/>
   </g>
   <g id="patch_37">
    <path d="M 174.695873 288.430125 
L 177.975212 288.430125 
L 177.975212 288.430125 
L 174.695873 288.430125 
z
" clip-path="url(#p55b99b7383)" style="fill: #800000; fill-opacity: 0.4; stroke: #000000; stroke-width: 0.327934; stroke-linejoin: miter"/>
   </g>
   <g id="patch_38">
    <path d="M 177.975212 288.430125 
L 181.254551 288.430125 
L 181.254551 288.430125 
L 177.975212 288.430125 
z
" clip-path="url(#p55b99b7383)" style="fill: #800000; fill-opacity: 0.4; stroke: #000000; stroke-width: 0.327934; stroke-linejoin: miter"/>
   </g>
   <g id="patch_39">
    <path d="M 181.254551 288.430125 
L 184.533889 288.430125 
L 184.533889 288.430125 
L 181.254551 288.430125 
z
" clip-path="url(#p55b99b7383)" style="fill: #800000; fill-opacity: 0.4; stroke: #000000; stroke-width: 0.327934; stroke-linejoin: miter"/>
   </g>
   <g id="patch_40">
    <path d="M 184.533889 288.430125 
L 187.813228 288.430125 
L 187.813228 288.430125 
L 184.533889 288.430125 
z
" clip-path="url(#p55b99b7383)" style="fill: #800000; fill-opacity: 0.4; stroke: #000000; stroke-width: 0.327934; stroke-linejoin: miter"/>
   </g>
   <g id="patch_41">
    <path d="M 187.813228 288.430125 
L 191.092567 288.430125 
L 191.092567 288.430125 
L 187.813228 288.430125 
z
" clip-path="url(#p55b99b7383)" style="fill: #800000; fill-opacity: 0.4; stroke: #000000; stroke-width: 0.327934; stroke-linejoin: miter"/>
   </g>
   <g id="patch_42">
    <path d="M 191.092567 288.430125 
L 194.371906 288.430125 
L 194.371906 288.430125 
L 191.092567 288.430125 
z
" clip-path="url(#p55b99b7383)" style="fill: #800000; fill-opacity: 0.4; stroke: #000000; stroke-width: 0.327934; stroke-linejoin: miter"/>
   </g>
   <g id="patch_43">
    <path d="M 194.371906 288.430125 
L 197.651245 288.430125 
L 197.651245 288.430125 
L 194.371906 288.430125 
z
" clip-path="url(#p55b99b7383)" style="fill: #800000; fill-opacity: 0.4; stroke: #000000; stroke-width: 0.327934; stroke-linejoin: miter"/>
   </g>
   <g id="patch_44">
    <path d="M 197.651245 288.430125 
L 200.930584 288.430125 
L 200.930584 288.430125 
L 197.651245 288.430125 
z
" clip-path="url(#p55b99b7383)" style="fill: #800000; fill-opacity: 0.4; stroke: #000000; stroke-width: 0.327934; stroke-linejoin: miter"/>
   </g>
   <g id="patch_45">
    <path d="M 200.930584 288.430125 
L 204.209923 288.430125 
L 204.209923 288.430125 
L 200.930584 288.430125 
z
" clip-path="url(#p55b99b7383)" style="fill: #800000; fill-opacity: 0.4; stroke: #000000; stroke-width: 0.327934; stroke-linejoin: miter"/>
   </g>
   <g id="patch_46">
    <path d="M 204.209923 288.430125 
L 207.489261 288.430125 
L 207.489261 288.430125 
L 204.209923 288.430125 
z
" clip-path="url(#p55b99b7383)" style="fill: #800000; fill-opacity: 0.4; stroke: #000000; stroke-width: 0.327934; stroke-linejoin: miter"/>
   </g>
   <g id="patch_47">
    <path d="M 207.489261 288.430125 
L 210.7686 288.430125 
L 210.7686 288.430125 
L 207.489261 288.430125 
z
" clip-path="url(#p55b99b7383)" style="fill: #800000; fill-opacity: 0.4; stroke: #000000; stroke-width: 0.327934; stroke-linejoin: miter"/>
   </g>
   <g id="patch_48">
    <path d="M 210.7686 288.430125 
L 214.047939 288.430125 
L 214.047939 288.430125 
L 210.7686 288.430125 
z
" clip-path="url(#p55b99b7383)" style="fill: #800000; fill-opacity: 0.4; stroke: #000000; stroke-width: 0.327934; stroke-linejoin: miter"/>
   </g>
   <g id="patch_49">
    <path d="M 214.047939 288.430125 
L 217.327278 288.430125 
L 217.327278 288.430125 
L 214.047939 288.430125 
z
" clip-path="url(#p55b99b7383)" style="fill: #800000; fill-opacity: 0.4; stroke: #000000; stroke-width: 0.327934; stroke-linejoin: miter"/>
   </g>
   <g id="patch_50">
    <path d="M 217.327278 288.430125 
L 220.606617 288.430125 
L 220.606617 288.430125 
L 217.327278 288.430125 
z
" clip-path="url(#p55b99b7383)" style="fill: #800000; fill-opacity: 0.4; stroke: #000000; stroke-width: 0.327934; stroke-linejoin: miter"/>
   </g>
   <g id="patch_51">
    <path d="M 220.606617 288.430125 
L 223.885956 288.430125 
L 223.885956 288.430125 
L 220.606617 288.430125 
z
" clip-path="url(#p55b99b7383)" style="fill: #800000; fill-opacity: 0.4; stroke: #000000; stroke-width: 0.327934; stroke-linejoin: miter"/>
   </g>
   <g id="patch_52">
    <path d="M 223.885956 288.430125 
L 227.165294 288.430125 
L 227.165294 288.430125 
L 223.885956 288.430125 
z
" clip-path="url(#p55b99b7383)" style="fill: #800000; fill-opacity: 0.4; stroke: #000000; stroke-width: 0.327934; stroke-linejoin: miter"/>
   </g>
   <g id="patch_53">
    <path d="M 227.165294 288.430125 
L 230.444633 288.430125 
L 230.444633 288.430125 
L 227.165294 288.430125 
z
" clip-path="url(#p55b99b7383)" style="fill: #800000; fill-opacity: 0.4; stroke: #000000; stroke-width: 0.327934; stroke-linejoin: miter"/>
   </g>
   <g id="patch_54">
    <path d="M 230.444633 288.430125 
L 233.723972 288.430125 
L 233.723972 288.430125 
L 230.444633 288.430125 
z
" clip-path="url(#p55b99b7383)" style="fill: #800000; fill-opacity: 0.4; stroke: #000000; stroke-width: 0.327934; stroke-linejoin: miter"/>
   </g>
   <g id="patch_55">
    <path d="M 233.723972 288.430125 
L 237.003311 288.430125 
L 237.003311 288.430125 
L 233.723972 288.430125 
z
" clip-path="url(#p55b99b7383)" style="fill: #800000; fill-opacity: 0.4; stroke: #000000; stroke-width: 0.327934; stroke-linejoin: miter"/>
   </g>
   <g id="patch_56">
    <path d="M 237.003311 288.430125 
L 240.28265 288.430125 
L 240.28265 288.430125 
L 237.003311 288.430125 
z
" clip-path="url(#p55b99b7383)" style="fill: #800000; fill-opacity: 0.4; stroke: #000000; stroke-width: 0.327934; stroke-linejoin: miter"/>
   </g>
   <g id="patch_57">
    <path d="M 240.28265 288.430125 
L 243.561989 288.430125 
L 243.561989 288.430125 
L 240.28265 288.430125 
z
" clip-path="url(#p55b99b7383)" style="fill: #800000; fill-opacity: 0.4; stroke: #000000; stroke-width: 0.327934; stroke-linejoin: miter"/>
   </g>
   <g id="patch_58">
    <path d="M 243.561989 288.430125 
L 246.841327 288.430125 
L 246.841327 288.430125 
L 243.561989 288.430125 
z
" clip-path="url(#p55b99b7383)" style="fill: #800000; fill-opacity: 0.4; stroke: #000000; stroke-width: 0.327934; stroke-linejoin: miter"/>
   </g>
   <g id="patch_59">
    <path d="M 246.841327 288.430125 
L 250.120666 288.430125 
L 250.120666 288.430125 
L 246.841327 288.430125 
z
" clip-path="url(#p55b99b7383)" style="fill: #800000; fill-opacity: 0.4; stroke: #000000; stroke-width: 0.327934; stroke-linejoin: miter"/>
   </g>
   <g id="patch_60">
    <path d="M 250.120666 288.430125 
L 253.400005 288.430125 
L 253.400005 288.430125 
L 250.120666 288.430125 
z
" clip-path="url(#p55b99b7383)" style="fill: #800000; fill-opacity: 0.4; stroke: #000000; stroke-width: 0.327934; stroke-linejoin: miter"/>
   </g>
   <g id="patch_61">
    <path d="M 253.400005 288.430125 
L 256.679344 288.430125 
L 256.679344 288.430125 
L 253.400005 288.430125 
z
" clip-path="url(#p55b99b7383)" style="fill: #800000; fill-opacity: 0.4; stroke: #000000; stroke-width: 0.327934; stroke-linejoin: miter"/>
   </g>
   <g id="patch_62">
    <path d="M 256.679344 288.430125 
L 259.958683 288.430125 
L 259.958683 288.430125 
L 256.679344 288.430125 
z
" clip-path="url(#p55b99b7383)" style="fill: #800000; fill-opacity: 0.4; stroke: #000000; stroke-width: 0.327934; stroke-linejoin: miter"/>
   </g>
   <g id="patch_63">
    <path d="M 259.958683 288.430125 
L 263.238022 288.430125 
L 263.238022 288.430125 
L 259.958683 288.430125 
z
" clip-path="url(#p55b99b7383)" style="fill: #800000; fill-opacity: 0.4; stroke: #000000; stroke-width: 0.327934; stroke-linejoin: miter"/>
   </g>
   <g id="patch_64">
    <path d="M 263.238022 288.430125 
L 266.517361 288.430125 
L 266.517361 288.430125 
L 263.238022 288.430125 
z
" clip-path="url(#p55b99b7383)" style="fill: #800000; fill-opacity: 0.4; stroke: #000000; stroke-width: 0.327934; stroke-linejoin: miter"/>
   </g>
   <g id="patch_65">
    <path d="M 266.517361 288.430125 
L 269.796699 288.430125 
L 269.796699 288.430125 
L 266.517361 288.430125 
z
" clip-path="url(#p55b99b7383)" style="fill: #800000; fill-opacity: 0.4; stroke: #000000; stroke-width: 0.327934; stroke-linejoin: miter"/>
   </g>
   <g id="patch_66">
    <path d="M 269.796699 288.430125 
L 273.076038 288.430125 
L 273.076038 288.430125 
L 269.796699 288.430125 
z
" clip-path="url(#p55b99b7383)" style="fill: #800000; fill-opacity: 0.4; stroke: #000000; stroke-width: 0.327934; stroke-linejoin: miter"/>
   </g>
   <g id="patch_67">
    <path d="M 273.076038 288.430125 
L 276.355377 288.430125 
L 276.355377 288.430125 
L 273.076038 288.430125 
z
" clip-path="url(#p55b99b7383)" style="fill: #800000; fill-opacity: 0.4; stroke: #000000; stroke-width: 0.327934; stroke-linejoin: miter"/>
   </g>
   <g id="patch_68">
    <path d="M 276.355377 288.430125 
L 279.634716 288.430125 
L 279.634716 288.430125 
L 276.355377 288.430125 
z
" clip-path="url(#p55b99b7383)" style="fill: #800000; fill-opacity: 0.4; stroke: #000000; stroke-width: 0.327934; stroke-linejoin: miter"/>
   </g>
   <g id="patch_69">
    <path d="M 279.634716 288.430125 
L 282.914055 288.430125 
L 282.914055 288.430125 
L 279.634716 288.430125 
z
" clip-path="url(#p55b99b7383)" style="fill: #800000; fill-opacity: 0.4; stroke: #000000; stroke-width: 0.327934; stroke-linejoin: miter"/>
   </g>
   <g id="patch_70">
    <path d="M 282.914055 288.430125 
L 286.193394 288.430125 
L 286.193394 288.430125 
L 282.914055 288.430125 
z
" clip-path="url(#p55b99b7383)" style="fill: #800000; fill-opacity: 0.4; stroke: #000000; stroke-width: 0.327934; stroke-linejoin: miter"/>
   </g>
   <g id="patch_71">
    <path d="M 286.193394 288.430125 
L 289.472732 288.430125 
L 289.472732 288.430125 
L 286.193394 288.430125 
z
" clip-path="url(#p55b99b7383)" style="fill: #800000; fill-opacity: 0.4; stroke: #000000; stroke-width: 0.327934; stroke-linejoin: miter"/>
   </g>
   <g id="patch_72">
    <path d="M 289.472732 288.430125 
L 292.752071 288.430125 
L 292.752071 288.430125 
L 289.472732 288.430125 
z
" clip-path="url(#p55b99b7383)" style="fill: #800000; fill-opacity: 0.4; stroke: #000000; stroke-width: 0.327934; stroke-linejoin: miter"/>
   </g>
   <g id="patch_73">
    <path d="M 292.752071 288.430125 
L 296.03141 288.430125 
L 296.03141 288.430125 
L 292.752071 288.430125 
z
" clip-path="url(#p55b99b7383)" style="fill: #800000; fill-opacity: 0.4; stroke: #000000; stroke-width: 0.327934; stroke-linejoin: miter"/>
   </g>
   <g id="patch_74">
    <path d="M 296.03141 288.430125 
L 299.310749 288.430125 
L 299.310749 288.430125 
L 296.03141 288.430125 
z
" clip-path="url(#p55b99b7383)" style="fill: #800000; fill-opacity: 0.4; stroke: #000000; stroke-width: 0.327934; stroke-linejoin: miter"/>
   </g>
   <g id="patch_75">
    <path d="M 299.310749 288.430125 
L 302.590088 288.430125 
L 302.590088 288.430125 
L 299.310749 288.430125 
z
" clip-path="url(#p55b99b7383)" style="fill: #800000; fill-opacity: 0.4; stroke: #000000; stroke-width: 0.327934; stroke-linejoin: miter"/>
   </g>
   <g id="patch_76">
    <path d="M 302.590088 288.430125 
L 305.869427 288.430125 
L 305.869427 288.430125 
L 302.590088 288.430125 
z
" clip-path="url(#p55b99b7383)" style="fill: #800000; fill-opacity: 0.4; stroke: #000000; stroke-width: 0.327934; stroke-linejoin: miter"/>
   </g>
   <g id="patch_77">
    <path d="M 305.869427 288.430125 
L 309.148765 288.430125 
L 309.148765 288.430125 
L 305.869427 288.430125 
z
" clip-path="url(#p55b99b7383)" style="fill: #800000; fill-opacity: 0.4; stroke: #000000; stroke-width: 0.327934; stroke-linejoin: miter"/>
   </g>
   <g id="patch_78">
    <path d="M 309.148765 288.430125 
L 312.428104 288.430125 
L 312.428104 288.430125 
L 309.148765 288.430125 
z
" clip-path="url(#p55b99b7383)" style="fill: #800000; fill-opacity: 0.4; stroke: #000000; stroke-width: 0.327934; stroke-linejoin: miter"/>
   </g>
   <g id="patch_79">
    <path d="M 312.428104 288.430125 
L 315.707443 288.430125 
L 315.707443 288.430125 
L 312.428104 288.430125 
z
" clip-path="url(#p55b99b7383)" style="fill: #800000; fill-opacity: 0.4; stroke: #000000; stroke-width: 0.327934; stroke-linejoin: miter"/>
   </g>
   <g id="patch_80">
    <path d="M 315.707443 288.430125 
L 318.986782 288.430125 
L 318.986782 288.430125 
L 315.707443 288.430125 
z
" clip-path="url(#p55b99b7383)" style="fill: #800000; fill-opacity: 0.4; stroke: #000000; stroke-width: 0.327934; stroke-linejoin: miter"/>
   </g>
   <g id="patch_81">
    <path d="M 318.986782 288.430125 
L 322.266121 288.430125 
L 322.266121 288.430125 
L 318.986782 288.430125 
z
" clip-path="url(#p55b99b7383)" style="fill: #800000; fill-opacity: 0.4; stroke: #000000; stroke-width: 0.327934; stroke-linejoin: miter"/>
   </g>
   <g id="patch_82">
    <path d="M 322.266121 288.430125 
L 325.54546 288.430125 
L 325.54546 288.430125 
L 322.266121 288.430125 
z
" clip-path="url(#p55b99b7383)" style="fill: #800000; fill-opacity: 0.4; stroke: #000000; stroke-width: 0.327934; stroke-linejoin: miter"/>
   </g>
   <g id="patch_83">
    <path d="M 325.54546 288.430125 
L 328.824799 288.430125 
L 328.824799 288.430125 
L 325.54546 288.430125 
z
" clip-path="url(#p55b99b7383)" style="fill: #800000; fill-opacity: 0.4; stroke: #000000; stroke-width: 0.327934; stroke-linejoin: miter"/>
   </g>
   <g id="patch_84">
    <path d="M 328.824799 288.430125 
L 332.104137 288.430125 
L 332.104137 288.430125 
L 328.824799 288.430125 
z
" clip-path="url(#p55b99b7383)" style="fill: #800000; fill-opacity: 0.4; stroke: #000000; stroke-width: 0.327934; stroke-linejoin: miter"/>
   </g>
   <g id="patch_85">
    <path d="M 332.104137 288.430125 
L 335.383476 288.430125 
L 335.383476 288.430125 
L 332.104137 288.430125 
z
" clip-path="url(#p55b99b7383)" style="fill: #800000; fill-opacity: 0.4; stroke: #000000; stroke-width: 0.327934; stroke-linejoin: miter"/>
   </g>
   <g id="patch_86">
    <path d="M 335.383476 288.430125 
L 338.662815 288.430125 
L 338.662815 288.430125 
L 335.383476 288.430125 
z
" clip-path="url(#p55b99b7383)" style="fill: #800000; fill-opacity: 0.4; stroke: #000000; stroke-width: 0.327934; stroke-linejoin: miter"/>
   </g>
   <g id="patch_87">
    <path d="M 338.662815 288.430125 
L 341.942154 288.430125 
L 341.942154 288.430125 
L 338.662815 288.430125 
z
" clip-path="url(#p55b99b7383)" style="fill: #800000; fill-opacity: 0.4; stroke: #000000; stroke-width: 0.327934; stroke-linejoin: miter"/>
   </g>
   <g id="patch_88">
    <path d="M 341.942154 288.430125 
L 345.221493 288.430125 
L 345.221493 288.430125 
L 341.942154 288.430125 
z
" clip-path="url(#p55b99b7383)" style="fill: #800000; fill-opacity: 0.4; stroke: #000000; stroke-width: 0.327934; stroke-linejoin: miter"/>
   </g>
   <g id="patch_89">
    <path d="M 345.221493 288.430125 
L 348.500832 288.430125 
L 348.500832 288.430125 
L 345.221493 288.430125 
z
" clip-path="url(#p55b99b7383)" style="fill: #800000; fill-opacity: 0.4; stroke: #000000; stroke-width: 0.327934; stroke-linejoin: miter"/>
   </g>
   <g id="patch_90">
    <path d="M 348.500832 288.430125 
L 351.78017 288.430125 
L 351.78017 288.430125 
L 348.500832 288.430125 
z
" clip-path="url(#p55b99b7383)" style="fill: #800000; fill-opacity: 0.4; stroke: #000000; stroke-width: 0.327934; stroke-linejoin: miter"/>
   </g>
   <g id="patch_91">
    <path d="M 351.78017 288.430125 
L 355.059509 288.430125 
L 355.059509 288.430125 
L 351.78017 288.430125 
z
" clip-path="url(#p55b99b7383)" style="fill: #800000; fill-opacity: 0.4; stroke: #000000; stroke-width: 0.327934; stroke-linejoin: miter"/>
   </g>
   <g id="patch_92">
    <path d="M 355.059509 288.430125 
L 358.338848 288.430125 
L 358.338848 288.430125 
L 355.059509 288.430125 
z
" clip-path="url(#p55b99b7383)" style="fill: #800000; fill-opacity: 0.4; stroke: #000000; stroke-width: 0.327934; stroke-linejoin: miter"/>
   </g>
   <g id="patch_93">
    <path d="M 358.338848 288.430125 
L 361.618187 288.430125 
L 361.618187 288.430125 
L 358.338848 288.430125 
z
" clip-path="url(#p55b99b7383)" style="fill: #800000; fill-opacity: 0.4; stroke: #000000; stroke-width: 0.327934; stroke-linejoin: miter"/>
   </g>
   <g id="patch_94">
    <path d="M 361.618187 288.430125 
L 364.897526 288.430125 
L 364.897526 288.430125 
L 361.618187 288.430125 
z
" clip-path="url(#p55b99b7383)" style="fill: #800000; fill-opacity: 0.4; stroke: #000000; stroke-width: 0.327934; stroke-linejoin: miter"/>
   </g>
   <g id="patch_95">
    <path d="M 364.897526 288.430125 
L 368.176865 288.430125 
L 368.176865 288.430125 
L 364.897526 288.430125 
z
" clip-path="url(#p55b99b7383)" style="fill: #800000; fill-opacity: 0.4; stroke: #000000; stroke-width: 0.327934; stroke-linejoin: miter"/>
   </g>
   <g id="patch_96">
    <path d="M 368.176865 288.430125 
L 371.456204 288.430125 
L 371.456204 288.430125 
L 368.176865 288.430125 
z
" clip-path="url(#p55b99b7383)" style="fill: #800000; fill-opacity: 0.4; stroke: #000000; stroke-width: 0.327934; stroke-linejoin: miter"/>
   </g>
   <g id="patch_97">
    <path d="M 371.456204 288.430125 
L 374.735542 288.430125 
L 374.735542 288.430125 
L 371.456204 288.430125 
z
" clip-path="url(#p55b99b7383)" style="fill: #800000; fill-opacity: 0.4; stroke: #000000; stroke-width: 0.327934; stroke-linejoin: miter"/>
   </g>
   <g id="patch_98">
    <path d="M 374.735542 288.430125 
L 378.014881 288.430125 
L 378.014881 288.430125 
L 374.735542 288.430125 
z
" clip-path="url(#p55b99b7383)" style="fill: #800000; fill-opacity: 0.4; stroke: #000000; stroke-width: 0.327934; stroke-linejoin: miter"/>
   </g>
   <g id="patch_99">
    <path d="M 378.014881 288.430125 
L 381.29422 288.430125 
L 381.29422 288.430125 
L 378.014881 288.430125 
z
" clip-path="url(#p55b99b7383)" style="fill: #800000; fill-opacity: 0.4; stroke: #000000; stroke-width: 0.327934; stroke-linejoin: miter"/>
   </g>
   <g id="patch_100">
    <path d="M 381.29422 288.430125 
L 384.573559 288.430125 
L 384.573559 288.430125 
L 381.29422 288.430125 
z
" clip-path="url(#p55b99b7383)" style="fill: #800000; fill-opacity: 0.4; stroke: #000000; stroke-width: 0.327934; stroke-linejoin: miter"/>
   </g>
   <g id="patch_101">
    <path d="M 384.573559 288.430125 
L 387.852898 288.430125 
L 387.852898 285.844003 
L 384.573559 285.844003 
z
" clip-path="url(#p55b99b7383)" style="fill: #800000; fill-opacity: 0.4; stroke: #000000; stroke-width: 0.327934; stroke-linejoin: miter"/>
   </g>
   <g id="matplotlib.axis_1">
    <g id="xtick_1">
     <g id="line2d_1">
      <defs>
       <path id="m4a70294e0e" d="M 0 0 
L 0 3.5 
" style="stroke: #000000; stroke-width: 0.8"/>
      </defs>
      <g>
       <use xlink:href="#m4a70294e0e" x="114.525067" y="288.430125" style="stroke: #000000; stroke-width: 0.8"/>
      </g>
     </g>
     <g id="text_1">
      <!-- 500 -->
      <g transform="translate(104.981317 303.028562) scale(0.1 -0.1)">
       <defs>
        <path id="DejaVuSans-35" d="M 691 4666 
L 3169 4666 
L 3169 4134 
L 1269 4134 
L 1269 2991 
Q 1406 3038 1543 3061 
Q 1681 3084 1819 3084 
Q 2600 3084 3056 2656 
Q 3513 2228 3513 1497 
Q 3513 744 3044 326 
Q 2575 -91 1722 -91 
Q 1428 -91 1123 -41 
Q 819 9 494 109 
L 494 744 
Q 775 591 1075 516 
Q 1375 441 1709 441 
Q 2250 441 2565 725 
Q 2881 1009 2881 1497 
Q 2881 1984 2565 2268 
Q 2250 2553 1709 2553 
Q 1456 2553 1204 2497 
Q 953 2441 691 2322 
L 691 4666 
z
" transform="scale(0.015625)"/>
        <path id="DejaVuSans-30" d="M 2034 4250 
Q 1547 4250 1301 3770 
Q 1056 3291 1056 2328 
Q 1056 1369 1301 889 
Q 1547 409 2034 409 
Q 2525 409 2770 889 
Q 3016 1369 3016 2328 
Q 3016 3291 2770 3770 
Q 2525 4250 2034 4250 
z
M 2034 4750 
Q 2819 4750 3233 4129 
Q 3647 3509 3647 2328 
Q 3647 1150 3233 529 
Q 2819 -91 2034 -91 
Q 1250 -91 836 529 
Q 422 1150 422 2328 
Q 422 3509 836 4129 
Q 1250 4750 2034 4750 
z
" transform="scale(0.015625)"/>
       </defs>
       <use xlink:href="#DejaVuSans-35"/>
       <use xlink:href="#DejaVuSans-30" x="63.623047"/>
       <use xlink:href="#DejaVuSans-30" x="127.246094"/>
      </g>
     </g>
    </g>
    <g id="xtick_2">
     <g id="line2d_2">
      <g>
       <use xlink:href="#m4a70294e0e" x="185.071572" y="288.430125" style="stroke: #000000; stroke-width: 0.8"/>
      </g>
     </g>
     <g id="text_2">
      <!-- 1000 -->
      <g transform="translate(172.346572 303.028562) scale(0.1 -0.1)">
       <defs>
        <path id="DejaVuSans-31" d="M 794 531 
L 1825 531 
L 1825 4091 
L 703 3866 
L 703 4441 
L 1819 4666 
L 2450 4666 
L 2450 531 
L 3481 531 
L 3481 0 
L 794 0 
L 794 531 
z
" transform="scale(0.015625)"/>
       </defs>
       <use xlink:href="#DejaVuSans-31"/>
       <use xlink:href="#DejaVuSans-30" x="63.623047"/>
       <use xlink:href="#DejaVuSans-30" x="127.246094"/>
       <use xlink:href="#DejaVuSans-30" x="190.869141"/>
      </g>
     </g>
    </g>
    <g id="xtick_3">
     <g id="line2d_3">
      <g>
       <use xlink:href="#m4a70294e0e" x="255.618076" y="288.430125" style="stroke: #000000; stroke-width: 0.8"/>
      </g>
     </g>
     <g id="text_3">
      <!-- 1500 -->
      <g transform="translate(242.893076 303.028562) scale(0.1 -0.1)">
       <use xlink:href="#DejaVuSans-31"/>
       <use xlink:href="#DejaVuSans-35" x="63.623047"/>
       <use xlink:href="#DejaVuSans-30" x="127.246094"/>
       <use xlink:href="#DejaVuSans-30" x="190.869141"/>
      </g>
     </g>
    </g>
    <g id="xtick_4">
     <g id="line2d_4">
      <g>
       <use xlink:href="#m4a70294e0e" x="326.16458" y="288.430125" style="stroke: #000000; stroke-width: 0.8"/>
      </g>
     </g>
     <g id="text_4">
      <!-- 2000 -->
      <g transform="translate(313.43958 303.028562) scale(0.1 -0.1)">
       <defs>
        <path id="DejaVuSans-32" d="M 1228 531 
L 3431 531 
L 3431 0 
L 469 0 
L 469 531 
Q 828 903 1448 1529 
Q 2069 2156 2228 2338 
Q 2531 2678 2651 2914 
Q 2772 3150 2772 3378 
Q 2772 3750 2511 3984 
Q 2250 4219 1831 4219 
Q 1534 4219 1204 4116 
Q 875 4013 500 3803 
L 500 4441 
Q 881 4594 1212 4672 
Q 1544 4750 1819 4750 
Q 2544 4750 2975 4387 
Q 3406 4025 3406 3419 
Q 3406 3131 3298 2873 
Q 3191 2616 2906 2266 
Q 2828 2175 2409 1742 
Q 1991 1309 1228 531 
z
" transform="scale(0.015625)"/>
       </defs>
       <use xlink:href="#DejaVuSans-32"/>
       <use xlink:href="#DejaVuSans-30" x="63.623047"/>
       <use xlink:href="#DejaVuSans-30" x="127.246094"/>
       <use xlink:href="#DejaVuSans-30" x="190.869141"/>
      </g>
     </g>
    </g>
    <g id="xtick_5">
     <g id="line2d_5">
      <g>
       <use xlink:href="#m4a70294e0e" x="396.711085" y="288.430125" style="stroke: #000000; stroke-width: 0.8"/>
      </g>
     </g>
     <g id="text_5">
      <!-- 2500 -->
      <g transform="translate(383.986085 303.028562) scale(0.1 -0.1)">
       <use xlink:href="#DejaVuSans-32"/>
       <use xlink:href="#DejaVuSans-35" x="63.623047"/>
       <use xlink:href="#DejaVuSans-30" x="127.246094"/>
       <use xlink:href="#DejaVuSans-30" x="190.869141"/>
      </g>
     </g>
    </g>
    <g id="text_6">
     <!-- Protein length -->
     <g transform="translate(190.474844 316.706687) scale(0.1 -0.1)">
      <defs>
       <path id="DejaVuSans-50" d="M 1259 4147 
L 1259 2394 
L 2053 2394 
Q 2494 2394 2734 2622 
Q 2975 2850 2975 3272 
Q 2975 3691 2734 3919 
Q 2494 4147 2053 4147 
L 1259 4147 
z
M 628 4666 
L 2053 4666 
Q 2838 4666 3239 4311 
Q 3641 3956 3641 3272 
Q 3641 2581 3239 2228 
Q 2838 1875 2053 1875 
L 1259 1875 
L 1259 0 
L 628 0 
L 628 4666 
z
" transform="scale(0.015625)"/>
       <path id="DejaVuSans-72" d="M 2631 2963 
Q 2534 3019 2420 3045 
Q 2306 3072 2169 3072 
Q 1681 3072 1420 2755 
Q 1159 2438 1159 1844 
L 1159 0 
L 581 0 
L 581 3500 
L 1159 3500 
L 1159 2956 
Q 1341 3275 1631 3429 
Q 1922 3584 2338 3584 
Q 2397 3584 2469 3576 
Q 2541 3569 2628 3553 
L 2631 2963 
z
" transform="scale(0.015625)"/>
       <path id="DejaVuSans-6f" d="M 1959 3097 
Q 1497 3097 1228 2736 
Q 959 2375 959 1747 
Q 959 1119 1226 758 
Q 1494 397 1959 397 
Q 2419 397 2687 759 
Q 2956 1122 2956 1747 
Q 2956 2369 2687 2733 
Q 2419 3097 1959 3097 
z
M 1959 3584 
Q 2709 3584 3137 3096 
Q 3566 2609 3566 1747 
Q 3566 888 3137 398 
Q 2709 -91 1959 -91 
Q 1206 -91 779 398 
Q 353 888 353 1747 
Q 353 2609 779 3096 
Q 1206 3584 1959 3584 
z
" transform="scale(0.015625)"/>
       <path id="DejaVuSans-74" d="M 1172 4494 
L 1172 3500 
L 2356 3500 
L 2356 3053 
L 1172 3053 
L 1172 1153 
Q 1172 725 1289 603 
Q 1406 481 1766 481 
L 2356 481 
L 2356 0 
L 1766 0 
Q 1100 0 847 248 
Q 594 497 594 1153 
L 594 3053 
L 172 3053 
L 172 3500 
L 594 3500 
L 594 4494 
L 1172 4494 
z
" transform="scale(0.015625)"/>
       <path id="DejaVuSans-65" d="M 3597 1894 
L 3597 1613 
L 953 1613 
Q 991 1019 1311 708 
Q 1631 397 2203 397 
Q 2534 397 2845 478 
Q 3156 559 3463 722 
L 3463 178 
Q 3153 47 2828 -22 
Q 2503 -91 2169 -91 
Q 1331 -91 842 396 
Q 353 884 353 1716 
Q 353 2575 817 3079 
Q 1281 3584 2069 3584 
Q 2775 3584 3186 3129 
Q 3597 2675 3597 1894 
z
M 3022 2063 
Q 3016 2534 2758 2815 
Q 2500 3097 2075 3097 
Q 1594 3097 1305 2825 
Q 1016 2553 972 2059 
L 3022 2063 
z
" transform="scale(0.015625)"/>
       <path id="DejaVuSans-69" d="M 603 3500 
L 1178 3500 
L 1178 0 
L 603 0 
L 603 3500 
z
M 603 4863 
L 1178 4863 
L 1178 4134 
L 603 4134 
L 603 4863 
z
" transform="scale(0.015625)"/>
       <path id="DejaVuSans-6e" d="M 3513 2113 
L 3513 0 
L 2938 0 
L 2938 2094 
Q 2938 2591 2744 2837 
Q 2550 3084 2163 3084 
Q 1697 3084 1428 2787 
Q 1159 2491 1159 1978 
L 1159 0 
L 581 0 
L 581 3500 
L 1159 3500 
L 1159 2956 
Q 1366 3272 1645 3428 
Q 1925 3584 2291 3584 
Q 2894 3584 3203 3211 
Q 3513 2838 3513 2113 
z
" transform="scale(0.015625)"/>
       <path id="DejaVuSans-20" transform="scale(0.015625)"/>
       <path id="DejaVuSans-6c" d="M 603 4863 
L 1178 4863 
L 1178 0 
L 603 0 
L 603 4863 
z
" transform="scale(0.015625)"/>
       <path id="DejaVuSans-67" d="M 2906 1791 
Q 2906 2416 2648 2759 
Q 2391 3103 1925 3103 
Q 1463 3103 1205 2759 
Q 947 2416 947 1791 
Q 947 1169 1205 825 
Q 1463 481 1925 481 
Q 2391 481 2648 825 
Q 2906 1169 2906 1791 
z
M 3481 434 
Q 3481 -459 3084 -895 
Q 2688 -1331 1869 -1331 
Q 1566 -1331 1297 -1286 
Q 1028 -1241 775 -1147 
L 775 -588 
Q 1028 -725 1275 -790 
Q 1522 -856 1778 -856 
Q 2344 -856 2625 -561 
Q 2906 -266 2906 331 
L 2906 616 
Q 2728 306 2450 153 
Q 2172 0 1784 0 
Q 1141 0 747 490 
Q 353 981 353 1791 
Q 353 2603 747 3093 
Q 1141 3584 1784 3584 
Q 2172 3584 2450 3431 
Q 2728 3278 2906 2969 
L 2906 3500 
L 3481 3500 
L 3481 434 
z
" transform="scale(0.015625)"/>
       <path id="DejaVuSans-68" d="M 3513 2113 
L 3513 0 
L 2938 0 
L 2938 2094 
Q 2938 2591 2744 2837 
Q 2550 3084 2163 3084 
Q 1697 3084 1428 2787 
Q 1159 2491 1159 1978 
L 1159 0 
L 581 0 
L 581 4863 
L 1159 4863 
L 1159 2956 
Q 1366 3272 1645 3428 
Q 1925 3584 2291 3584 
Q 2894 3584 3203 3211 
Q 3513 2838 3513 2113 
z
" transform="scale(0.015625)"/>
      </defs>
      <use xlink:href="#DejaVuSans-50"/>
      <use xlink:href="#DejaVuSans-72" x="58.552734"/>
      <use xlink:href="#DejaVuSans-6f" x="97.416016"/>
      <use xlink:href="#DejaVuSans-74" x="158.597656"/>
      <use xlink:href="#DejaVuSans-65" x="197.806641"/>
      <use xlink:href="#DejaVuSans-69" x="259.330078"/>
      <use xlink:href="#DejaVuSans-6e" x="287.113281"/>
      <use xlink:href="#DejaVuSans-20" x="350.492188"/>
      <use xlink:href="#DejaVuSans-6c" x="382.279297"/>
      <use xlink:href="#DejaVuSans-65" x="410.0625"/>
      <use xlink:href="#DejaVuSans-6e" x="471.585938"/>
      <use xlink:href="#DejaVuSans-67" x="534.964844"/>
      <use xlink:href="#DejaVuSans-74" x="598.441406"/>
      <use xlink:href="#DejaVuSans-68" x="637.650391"/>
     </g>
    </g>
   </g>
   <g id="matplotlib.axis_2">
    <g id="ytick_1">
     <g id="line2d_6">
      <defs>
       <path id="m628363256a" d="M 0 0 
L -3.5 0 
" style="stroke: #000000; stroke-width: 0.8"/>
      </defs>
      <g>
       <use xlink:href="#m628363256a" x="46.965625" y="288.430125" style="stroke: #000000; stroke-width: 0.8"/>
      </g>
     </g>
     <g id="text_7">
      <!-- 0 -->
      <g transform="translate(33.603125 292.229344) scale(0.1 -0.1)">
       <use xlink:href="#DejaVuSans-30"/>
      </g>
     </g>
    </g>
    <g id="ytick_2">
     <g id="line2d_7">
      <g>
       <use xlink:href="#m628363256a" x="46.965625" y="236.707676" style="stroke: #000000; stroke-width: 0.8"/>
      </g>
     </g>
     <g id="text_8">
      <!-- 20 -->
      <g transform="translate(27.240625 240.506895) scale(0.1 -0.1)">
       <use xlink:href="#DejaVuSans-32"/>
       <use xlink:href="#DejaVuSans-30" x="63.623047"/>
      </g>
     </g>
    </g>
    <g id="ytick_3">
     <g id="line2d_8">
      <g>
       <use xlink:href="#m628363256a" x="46.965625" y="184.985227" style="stroke: #000000; stroke-width: 0.8"/>
      </g>
     </g>
     <g id="text_9">
      <!-- 40 -->
      <g transform="translate(27.240625 188.784446) scale(0.1 -0.1)">
       <defs>
        <path id="DejaVuSans-34" d="M 2419 4116 
L 825 1625 
L 2419 1625 
L 2419 4116 
z
M 2253 4666 
L 3047 4666 
L 3047 1625 
L 3713 1625 
L 3713 1100 
L 3047 1100 
L 3047 0 
L 2419 0 
L 2419 1100 
L 313 1100 
L 313 1709 
L 2253 4666 
z
" transform="scale(0.015625)"/>
       </defs>
       <use xlink:href="#DejaVuSans-34"/>
       <use xlink:href="#DejaVuSans-30" x="63.623047"/>
      </g>
     </g>
    </g>
    <g id="ytick_4">
     <g id="line2d_9">
      <g>
       <use xlink:href="#m628363256a" x="46.965625" y="133.262778" style="stroke: #000000; stroke-width: 0.8"/>
      </g>
     </g>
     <g id="text_10">
      <!-- 60 -->
      <g transform="translate(27.240625 137.061997) scale(0.1 -0.1)">
       <defs>
        <path id="DejaVuSans-36" d="M 2113 2584 
Q 1688 2584 1439 2293 
Q 1191 2003 1191 1497 
Q 1191 994 1439 701 
Q 1688 409 2113 409 
Q 2538 409 2786 701 
Q 3034 994 3034 1497 
Q 3034 2003 2786 2293 
Q 2538 2584 2113 2584 
z
M 3366 4563 
L 3366 3988 
Q 3128 4100 2886 4159 
Q 2644 4219 2406 4219 
Q 1781 4219 1451 3797 
Q 1122 3375 1075 2522 
Q 1259 2794 1537 2939 
Q 1816 3084 2150 3084 
Q 2853 3084 3261 2657 
Q 3669 2231 3669 1497 
Q 3669 778 3244 343 
Q 2819 -91 2113 -91 
Q 1303 -91 875 529 
Q 447 1150 447 2328 
Q 447 3434 972 4092 
Q 1497 4750 2381 4750 
Q 2619 4750 2861 4703 
Q 3103 4656 3366 4563 
z
" transform="scale(0.015625)"/>
       </defs>
       <use xlink:href="#DejaVuSans-36"/>
       <use xlink:href="#DejaVuSans-30" x="63.623047"/>
      </g>
     </g>
    </g>
    <g id="ytick_5">
     <g id="line2d_10">
      <g>
       <use xlink:href="#m628363256a" x="46.965625" y="81.540329" style="stroke: #000000; stroke-width: 0.8"/>
      </g>
     </g>
     <g id="text_11">
      <!-- 80 -->
      <g transform="translate(27.240625 85.339548) scale(0.1 -0.1)">
       <defs>
        <path id="DejaVuSans-38" d="M 2034 2216 
Q 1584 2216 1326 1975 
Q 1069 1734 1069 1313 
Q 1069 891 1326 650 
Q 1584 409 2034 409 
Q 2484 409 2743 651 
Q 3003 894 3003 1313 
Q 3003 1734 2745 1975 
Q 2488 2216 2034 2216 
z
M 1403 2484 
Q 997 2584 770 2862 
Q 544 3141 544 3541 
Q 544 4100 942 4425 
Q 1341 4750 2034 4750 
Q 2731 4750 3128 4425 
Q 3525 4100 3525 3541 
Q 3525 3141 3298 2862 
Q 3072 2584 2669 2484 
Q 3125 2378 3379 2068 
Q 3634 1759 3634 1313 
Q 3634 634 3220 271 
Q 2806 -91 2034 -91 
Q 1263 -91 848 271 
Q 434 634 434 1313 
Q 434 1759 690 2068 
Q 947 2378 1403 2484 
z
M 1172 3481 
Q 1172 3119 1398 2916 
Q 1625 2713 2034 2713 
Q 2441 2713 2670 2916 
Q 2900 3119 2900 3481 
Q 2900 3844 2670 4047 
Q 2441 4250 2034 4250 
Q 1625 4250 1398 4047 
Q 1172 3844 1172 3481 
z
" transform="scale(0.015625)"/>
       </defs>
       <use xlink:href="#DejaVuSans-38"/>
       <use xlink:href="#DejaVuSans-30" x="63.623047"/>
      </g>
     </g>
    </g>
    <g id="ytick_6">
     <g id="line2d_11">
      <g>
       <use xlink:href="#m628363256a" x="46.965625" y="29.81788" style="stroke: #000000; stroke-width: 0.8"/>
      </g>
     </g>
     <g id="text_12">
      <!-- 100 -->
      <g transform="translate(20.878125 33.617099) scale(0.1 -0.1)">
       <use xlink:href="#DejaVuSans-31"/>
       <use xlink:href="#DejaVuSans-30" x="63.623047"/>
       <use xlink:href="#DejaVuSans-30" x="127.246094"/>
      </g>
     </g>
    </g>
    <g id="text_13">
     <!-- Count -->
     <g transform="translate(14.798438 170.222562) rotate(-90) scale(0.1 -0.1)">
      <defs>
       <path id="DejaVuSans-43" d="M 4122 4306 
L 4122 3641 
Q 3803 3938 3442 4084 
Q 3081 4231 2675 4231 
Q 1875 4231 1450 3742 
Q 1025 3253 1025 2328 
Q 1025 1406 1450 917 
Q 1875 428 2675 428 
Q 3081 428 3442 575 
Q 3803 722 4122 1019 
L 4122 359 
Q 3791 134 3420 21 
Q 3050 -91 2638 -91 
Q 1578 -91 968 557 
Q 359 1206 359 2328 
Q 359 3453 968 4101 
Q 1578 4750 2638 4750 
Q 3056 4750 3426 4639 
Q 3797 4528 4122 4306 
z
" transform="scale(0.015625)"/>
       <path id="DejaVuSans-75" d="M 544 1381 
L 544 3500 
L 1119 3500 
L 1119 1403 
Q 1119 906 1312 657 
Q 1506 409 1894 409 
Q 2359 409 2629 706 
Q 2900 1003 2900 1516 
L 2900 3500 
L 3475 3500 
L 3475 0 
L 2900 0 
L 2900 538 
Q 2691 219 2414 64 
Q 2138 -91 1772 -91 
Q 1169 -91 856 284 
Q 544 659 544 1381 
z
M 1991 3584 
L 1991 3584 
z
" transform="scale(0.015625)"/>
      </defs>
      <use xlink:href="#DejaVuSans-43"/>
      <use xlink:href="#DejaVuSans-6f" x="69.824219"/>
      <use xlink:href="#DejaVuSans-75" x="131.005859"/>
      <use xlink:href="#DejaVuSans-6e" x="194.384766"/>
      <use xlink:href="#DejaVuSans-74" x="257.763672"/>
     </g>
    </g>
   </g>
   <g id="line2d_12">
    <path d="M 63.198352 286.940749 
L 64.829782 286.306041 
L 66.461212 285.35433 
L 68.092642 284.020798 
L 72.986932 279.220116 
L 76.249791 276.929791 
L 77.881221 275.487055 
L 79.512651 273.18762 
L 81.144081 269.649477 
L 82.775511 264.691878 
L 84.406941 258.240254 
L 86.038371 250.176731 
L 87.6698 240.29868 
L 89.30123 228.412434 
L 90.93266 214.464042 
L 92.56409 198.673228 
L 97.45838 148.49906 
L 99.08981 133.904111 
L 105.615529 79.730688 
L 107.246959 67.699309 
L 108.878389 58.417189 
L 110.509819 52.776124 
L 112.141249 51.301845 
L 113.772678 54.316609 
L 115.404108 61.883193 
L 117.035538 73.658291 
L 118.666968 89.026735 
L 120.298398 107.475587 
L 121.929828 128.708668 
L 128.455547 221.905658 
L 130.086977 239.057944 
L 131.718407 252.076359 
L 133.349837 261.63897 
L 134.981267 268.648893 
L 136.612697 273.770692 
L 138.244127 277.36966 
L 139.875556 279.72973 
L 141.506986 281.225282 
L 143.138416 282.267738 
L 146.401276 283.913611 
L 148.032706 284.543768 
L 149.664136 284.965982 
L 151.295566 285.171972 
L 156.189855 285.387784 
L 157.821285 285.744331 
L 164.347005 287.957747 
L 165.978435 288.216907 
L 169.241294 288.402763 
L 180.661303 288.430125 
L 379.695748 288.321059 
L 382.958608 288.028085 
L 386.221468 287.658229 
L 387.852898 287.592654 
L 387.852898 287.592654 
" clip-path="url(#p55b99b7383)" style="fill: none; stroke-dasharray: 7.4,3.2; stroke-dashoffset: 0; stroke: #800000; stroke-width: 2"/>
   </g>
   <g id="patch_102">
    <path d="M 46.965625 288.430125 
L 46.965625 22.318125 
" style="fill: none; stroke: #000000; stroke-width: 0.8; stroke-linejoin: miter; stroke-linecap: square"/>
   </g>
   <g id="patch_103">
    <path d="M 404.085625 288.430125 
L 404.085625 22.318125 
" style="fill: none; stroke: #000000; stroke-width: 0.8; stroke-linejoin: miter; stroke-linecap: square"/>
   </g>
   <g id="patch_104">
    <path d="M 46.965625 288.430125 
L 404.085625 288.430125 
" style="fill: none; stroke: #000000; stroke-width: 0.8; stroke-linejoin: miter; stroke-linecap: square"/>
   </g>
   <g id="patch_105">
    <path d="M 46.965625 22.318125 
L 404.085625 22.318125 
" style="fill: none; stroke: #000000; stroke-width: 0.8; stroke-linejoin: miter; stroke-linecap: square"/>
   </g>
   <g id="text_14">
    <!-- Eukaryota - Density of mean proteome length -->
    <g transform="translate(87.76375 16.318125) scale(0.12 -0.12)">
     <defs>
      <path id="DejaVuSans-45" d="M 628 4666 
L 3578 4666 
L 3578 4134 
L 1259 4134 
L 1259 2753 
L 3481 2753 
L 3481 2222 
L 1259 2222 
L 1259 531 
L 3634 531 
L 3634 0 
L 628 0 
L 628 4666 
z
" transform="scale(0.015625)"/>
      <path id="DejaVuSans-6b" d="M 581 4863 
L 1159 4863 
L 1159 1991 
L 2875 3500 
L 3609 3500 
L 1753 1863 
L 3688 0 
L 2938 0 
L 1159 1709 
L 1159 0 
L 581 0 
L 581 4863 
z
" transform="scale(0.015625)"/>
      <path id="DejaVuSans-61" d="M 2194 1759 
Q 1497 1759 1228 1600 
Q 959 1441 959 1056 
Q 959 750 1161 570 
Q 1363 391 1709 391 
Q 2188 391 2477 730 
Q 2766 1069 2766 1631 
L 2766 1759 
L 2194 1759 
z
M 3341 1997 
L 3341 0 
L 2766 0 
L 2766 531 
Q 2569 213 2275 61 
Q 1981 -91 1556 -91 
Q 1019 -91 701 211 
Q 384 513 384 1019 
Q 384 1609 779 1909 
Q 1175 2209 1959 2209 
L 2766 2209 
L 2766 2266 
Q 2766 2663 2505 2880 
Q 2244 3097 1772 3097 
Q 1472 3097 1187 3025 
Q 903 2953 641 2809 
L 641 3341 
Q 956 3463 1253 3523 
Q 1550 3584 1831 3584 
Q 2591 3584 2966 3190 
Q 3341 2797 3341 1997 
z
" transform="scale(0.015625)"/>
      <path id="DejaVuSans-79" d="M 2059 -325 
Q 1816 -950 1584 -1140 
Q 1353 -1331 966 -1331 
L 506 -1331 
L 506 -850 
L 844 -850 
Q 1081 -850 1212 -737 
Q 1344 -625 1503 -206 
L 1606 56 
L 191 3500 
L 800 3500 
L 1894 763 
L 2988 3500 
L 3597 3500 
L 2059 -325 
z
" transform="scale(0.015625)"/>
      <path id="DejaVuSans-2d" d="M 313 2009 
L 1997 2009 
L 1997 1497 
L 313 1497 
L 313 2009 
z
" transform="scale(0.015625)"/>
      <path id="DejaVuSans-44" d="M 1259 4147 
L 1259 519 
L 2022 519 
Q 2988 519 3436 956 
Q 3884 1394 3884 2338 
Q 3884 3275 3436 3711 
Q 2988 4147 2022 4147 
L 1259 4147 
z
M 628 4666 
L 1925 4666 
Q 3281 4666 3915 4102 
Q 4550 3538 4550 2338 
Q 4550 1131 3912 565 
Q 3275 0 1925 0 
L 628 0 
L 628 4666 
z
" transform="scale(0.015625)"/>
      <path id="DejaVuSans-73" d="M 2834 3397 
L 2834 2853 
Q 2591 2978 2328 3040 
Q 2066 3103 1784 3103 
Q 1356 3103 1142 2972 
Q 928 2841 928 2578 
Q 928 2378 1081 2264 
Q 1234 2150 1697 2047 
L 1894 2003 
Q 2506 1872 2764 1633 
Q 3022 1394 3022 966 
Q 3022 478 2636 193 
Q 2250 -91 1575 -91 
Q 1294 -91 989 -36 
Q 684 19 347 128 
L 347 722 
Q 666 556 975 473 
Q 1284 391 1588 391 
Q 1994 391 2212 530 
Q 2431 669 2431 922 
Q 2431 1156 2273 1281 
Q 2116 1406 1581 1522 
L 1381 1569 
Q 847 1681 609 1914 
Q 372 2147 372 2553 
Q 372 3047 722 3315 
Q 1072 3584 1716 3584 
Q 2034 3584 2315 3537 
Q 2597 3491 2834 3397 
z
" transform="scale(0.015625)"/>
      <path id="DejaVuSans-66" d="M 2375 4863 
L 2375 4384 
L 1825 4384 
Q 1516 4384 1395 4259 
Q 1275 4134 1275 3809 
L 1275 3500 
L 2222 3500 
L 2222 3053 
L 1275 3053 
L 1275 0 
L 697 0 
L 697 3053 
L 147 3053 
L 147 3500 
L 697 3500 
L 697 3744 
Q 697 4328 969 4595 
Q 1241 4863 1831 4863 
L 2375 4863 
z
" transform="scale(0.015625)"/>
      <path id="DejaVuSans-6d" d="M 3328 2828 
Q 3544 3216 3844 3400 
Q 4144 3584 4550 3584 
Q 5097 3584 5394 3201 
Q 5691 2819 5691 2113 
L 5691 0 
L 5113 0 
L 5113 2094 
Q 5113 2597 4934 2840 
Q 4756 3084 4391 3084 
Q 3944 3084 3684 2787 
Q 3425 2491 3425 1978 
L 3425 0 
L 2847 0 
L 2847 2094 
Q 2847 2600 2669 2842 
Q 2491 3084 2119 3084 
Q 1678 3084 1418 2786 
Q 1159 2488 1159 1978 
L 1159 0 
L 581 0 
L 581 3500 
L 1159 3500 
L 1159 2956 
Q 1356 3278 1631 3431 
Q 1906 3584 2284 3584 
Q 2666 3584 2933 3390 
Q 3200 3197 3328 2828 
z
" transform="scale(0.015625)"/>
      <path id="DejaVuSans-70" d="M 1159 525 
L 1159 -1331 
L 581 -1331 
L 581 3500 
L 1159 3500 
L 1159 2969 
Q 1341 3281 1617 3432 
Q 1894 3584 2278 3584 
Q 2916 3584 3314 3078 
Q 3713 2572 3713 1747 
Q 3713 922 3314 415 
Q 2916 -91 2278 -91 
Q 1894 -91 1617 61 
Q 1341 213 1159 525 
z
M 3116 1747 
Q 3116 2381 2855 2742 
Q 2594 3103 2138 3103 
Q 1681 3103 1420 2742 
Q 1159 2381 1159 1747 
Q 1159 1113 1420 752 
Q 1681 391 2138 391 
Q 2594 391 2855 752 
Q 3116 1113 3116 1747 
z
" transform="scale(0.015625)"/>
     </defs>
     <use xlink:href="#DejaVuSans-45"/>
     <use xlink:href="#DejaVuSans-75" x="63.183594"/>
     <use xlink:href="#DejaVuSans-6b" x="126.5625"/>
     <use xlink:href="#DejaVuSans-61" x="182.722656"/>
     <use xlink:href="#DejaVuSans-72" x="244.001953"/>
     <use xlink:href="#DejaVuSans-79" x="285.115234"/>
     <use xlink:href="#DejaVuSans-6f" x="344.294922"/>
     <use xlink:href="#DejaVuSans-74" x="405.476562"/>
     <use xlink:href="#DejaVuSans-61" x="444.685547"/>
     <use xlink:href="#DejaVuSans-20" x="505.964844"/>
     <use xlink:href="#DejaVuSans-2d" x="537.751953"/>
     <use xlink:href="#DejaVuSans-20" x="573.835938"/>
     <use xlink:href="#DejaVuSans-44" x="605.623047"/>
     <use xlink:href="#DejaVuSans-65" x="682.625"/>
     <use xlink:href="#DejaVuSans-6e" x="744.148438"/>
     <use xlink:href="#DejaVuSans-73" x="807.527344"/>
     <use xlink:href="#DejaVuSans-69" x="859.626953"/>
     <use xlink:href="#DejaVuSans-74" x="887.410156"/>
     <use xlink:href="#DejaVuSans-79" x="926.619141"/>
     <use xlink:href="#DejaVuSans-20" x="985.798828"/>
     <use xlink:href="#DejaVuSans-6f" x="1017.585938"/>
     <use xlink:href="#DejaVuSans-66" x="1078.767578"/>
     <use xlink:href="#DejaVuSans-20" x="1113.972656"/>
     <use xlink:href="#DejaVuSans-6d" x="1145.759766"/>
     <use xlink:href="#DejaVuSans-65" x="1243.171875"/>
     <use xlink:href="#DejaVuSans-61" x="1304.695312"/>
     <use xlink:href="#DejaVuSans-6e" x="1365.974609"/>
     <use xlink:href="#DejaVuSans-20" x="1429.353516"/>
     <use xlink:href="#DejaVuSans-70" x="1461.140625"/>
     <use xlink:href="#DejaVuSans-72" x="1524.617188"/>
     <use xlink:href="#DejaVuSans-6f" x="1563.480469"/>
     <use xlink:href="#DejaVuSans-74" x="1624.662109"/>
     <use xlink:href="#DejaVuSans-65" x="1663.871094"/>
     <use xlink:href="#DejaVuSans-6f" x="1725.394531"/>
     <use xlink:href="#DejaVuSans-6d" x="1786.576172"/>
     <use xlink:href="#DejaVuSans-65" x="1883.988281"/>
     <use xlink:href="#DejaVuSans-20" x="1945.511719"/>
     <use xlink:href="#DejaVuSans-6c" x="1977.298828"/>
     <use xlink:href="#DejaVuSans-65" x="2005.082031"/>
     <use xlink:href="#DejaVuSans-6e" x="2066.605469"/>
     <use xlink:href="#DejaVuSans-67" x="2129.984375"/>
     <use xlink:href="#DejaVuSans-74" x="2193.460938"/>
     <use xlink:href="#DejaVuSans-68" x="2232.669922"/>
    </g>
   </g>
  </g>
 </g>
 <defs>
  <clipPath id="p55b99b7383">
   <rect x="46.965625" y="22.318125" width="357.12" height="266.112"/>
  </clipPath>
 </defs>
</svg>
