<?xml version="1.0" encoding="utf-8" standalone="no"?>
<!DOCTYPE svg PUBLIC "-//W3C//DTD SVG 1.1//EN"
  "http://www.w3.org/Graphics/SVG/1.1/DTD/svg11.dtd">
<svg xmlns:xlink="http://www.w3.org/1999/xlink" width="894.34375pt" height="649.55625pt" viewBox="0 0 894.34375 649.55625" xmlns="http://www.w3.org/2000/svg" version="1.1">
 <metadata>
  <rdf:RDF xmlns:dc="http://purl.org/dc/elements/1.1/" xmlns:cc="http://creativecommons.org/ns#" xmlns:rdf="http://www.w3.org/1999/02/22-rdf-syntax-ns#">
   <cc:Work>
    <dc:type rdf:resource="http://purl.org/dc/dcmitype/StillImage"/>
    <dc:date>2024-09-25T14:39:40.568438</dc:date>
    <dc:format>image/svg+xml</dc:format>
    <dc:creator>
     <cc:Agent>
      <dc:title>Matplotlib v3.8.3, https://matplotlib.org/</dc:title>
     </cc:Agent>
    </dc:creator>
   </cc:Work>
  </rdf:RDF>
 </metadata>
 <defs>
  <style type="text/css">*{stroke-linejoin: round; stroke-linecap: butt}</style>
 </defs>
 <g id="figure_1">
  <g id="patch_1">
   <path d="M 0 649.55625 
L 894.34375 649.55625 
L 894.34375 0 
L 0 0 
z
" style="fill: #ffffff"/>
  </g>
  <g id="axes_1">
   <g id="patch_2">
    <path d="M 50.14375 309.6 
L 448.715179 309.6 
L 448.715179 57.6 
L 50.14375 57.6 
z
" style="fill: #ffffff"/>
   </g>
   <g id="PathCollection_1">
    <defs>
     <path id="m0f5bb408cb" d="M 0 3.535534 
C 0.937635 3.535534 1.836992 3.163008 2.5 2.5 
C 3.163008 1.836992 3.535534 0.937635 3.535534 0 
C 3.535534 -0.937635 3.163008 -1.836992 2.5 -2.5 
C 1.836992 -3.163008 0.937635 -3.535534 0 -3.535534 
C -0.937635 -3.535534 -1.836992 -3.163008 -2.5 -2.5 
C -3.163008 -1.836992 -3.535534 -0.937635 -3.535534 0 
C -3.535534 0.937635 -3.163008 1.836992 -2.5 2.5 
C -1.836992 3.163008 -0.937635 3.535534 0 3.535534 
z
" style="stroke: #1f77b4; stroke-opacity: 0.8"/>
    </defs>
    <g clip-path="url(#p43f48fd320)">
     <use xlink:href="#m0f5bb408cb" x="68.260633" y="262.430046" style="fill: #1f77b4; fill-opacity: 0.8; stroke: #1f77b4; stroke-opacity: 0.8"/>
     <use xlink:href="#m0f5bb408cb" x="68.260633" y="298.145455" style="fill: #1f77b4; fill-opacity: 0.8; stroke: #1f77b4; stroke-opacity: 0.8"/>
     <use xlink:href="#m0f5bb408cb" x="68.260633" y="293.745884" style="fill: #1f77b4; fill-opacity: 0.8; stroke: #1f77b4; stroke-opacity: 0.8"/>
     <use xlink:href="#m0f5bb408cb" x="68.260633" y="183.993406" style="fill: #1f77b4; fill-opacity: 0.8; stroke: #1f77b4; stroke-opacity: 0.8"/>
     <use xlink:href="#m0f5bb408cb" x="68.260633" y="144.812489" style="fill: #1f77b4; fill-opacity: 0.8; stroke: #1f77b4; stroke-opacity: 0.8"/>
     <use xlink:href="#m0f5bb408cb" x="68.260633" y="250.172825" style="fill: #1f77b4; fill-opacity: 0.8; stroke: #1f77b4; stroke-opacity: 0.8"/>
     <use xlink:href="#m0f5bb408cb" x="68.260633" y="276.289315" style="fill: #1f77b4; fill-opacity: 0.8; stroke: #1f77b4; stroke-opacity: 0.8"/>
     <use xlink:href="#m0f5bb408cb" x="68.260633" y="178.473458" style="fill: #1f77b4; fill-opacity: 0.8; stroke: #1f77b4; stroke-opacity: 0.8"/>
     <use xlink:href="#m0f5bb408cb" x="68.260633" y="243.964367" style="fill: #1f77b4; fill-opacity: 0.8; stroke: #1f77b4; stroke-opacity: 0.8"/>
     <use xlink:href="#m0f5bb408cb" x="68.260633" y="268.035027" style="fill: #1f77b4; fill-opacity: 0.8; stroke: #1f77b4; stroke-opacity: 0.8"/>
     <use xlink:href="#m0f5bb408cb" x="68.260633" y="245.416472" style="fill: #1f77b4; fill-opacity: 0.8; stroke: #1f77b4; stroke-opacity: 0.8"/>
     <use xlink:href="#m0f5bb408cb" x="68.260633" y="158.029618" style="fill: #1f77b4; fill-opacity: 0.8; stroke: #1f77b4; stroke-opacity: 0.8"/>
     <use xlink:href="#m0f5bb408cb" x="189.039854" y="159.999063" style="fill: #1f77b4; fill-opacity: 0.8; stroke: #1f77b4; stroke-opacity: 0.8"/>
     <use xlink:href="#m0f5bb408cb" x="189.039854" y="154.094769" style="fill: #1f77b4; fill-opacity: 0.8; stroke: #1f77b4; stroke-opacity: 0.8"/>
     <use xlink:href="#m0f5bb408cb" x="189.039854" y="226.215007" style="fill: #1f77b4; fill-opacity: 0.8; stroke: #1f77b4; stroke-opacity: 0.8"/>
     <use xlink:href="#m0f5bb408cb" x="430.598295" y="213.906794" style="fill: #1f77b4; fill-opacity: 0.8; stroke: #1f77b4; stroke-opacity: 0.8"/>
     <use xlink:href="#m0f5bb408cb" x="189.039854" y="135.103069" style="fill: #1f77b4; fill-opacity: 0.8; stroke: #1f77b4; stroke-opacity: 0.8"/>
     <use xlink:href="#m0f5bb408cb" x="68.260633" y="130.946416" style="fill: #1f77b4; fill-opacity: 0.8; stroke: #1f77b4; stroke-opacity: 0.8"/>
     <use xlink:href="#m0f5bb408cb" x="309.819075" y="187.449872" style="fill: #1f77b4; fill-opacity: 0.8; stroke: #1f77b4; stroke-opacity: 0.8"/>
     <use xlink:href="#m0f5bb408cb" x="309.819075" y="200.240006" style="fill: #1f77b4; fill-opacity: 0.8; stroke: #1f77b4; stroke-opacity: 0.8"/>
    </g>
   </g>
   <g id="PolyCollection_1">
    <path d="M 68.260633 187.881268 
L 68.260633 248.050221 
L 71.92061 246.682379 
L 75.580586 245.610462 
L 79.240562 244.188755 
L 82.900539 242.960813 
L 86.560515 242.186963 
L 90.220491 241.262801 
L 93.880468 240.314842 
L 97.540444 238.930367 
L 101.200421 237.665607 
L 104.860397 236.772205 
L 108.520373 236.148212 
L 112.18035 235.561906 
L 115.840326 234.626176 
L 119.500303 233.697577 
L 123.160279 232.727629 
L 126.820255 232.084669 
L 130.480232 231.660215 
L 134.140208 230.905189 
L 137.800184 230.243186 
L 141.460161 229.680242 
L 145.120137 229.16628 
L 148.780114 228.686807 
L 152.44009 228.155941 
L 156.100066 227.65078 
L 159.760043 227.145198 
L 163.420019 226.642517 
L 167.079996 226.073638 
L 170.739972 225.632411 
L 174.399948 225.128029 
L 178.059925 224.471294 
L 181.719901 223.929456 
L 185.379878 223.341376 
L 189.039854 222.717719 
L 192.69983 222.337419 
L 196.359807 221.471862 
L 200.019783 221.116088 
L 203.679759 220.53903 
L 207.339736 219.944179 
L 210.999712 219.493327 
L 214.659689 219.129967 
L 218.319665 218.771391 
L 221.979641 218.245763 
L 225.639618 218.015333 
L 229.299594 217.568567 
L 232.959571 217.006997 
L 236.619547 216.57894 
L 240.279523 216.172415 
L 243.9395 215.760995 
L 247.599476 215.352815 
L 251.259452 215.004463 
L 254.919429 214.703804 
L 258.579405 214.478807 
L 262.239382 213.900707 
L 265.899358 213.6229 
L 269.559334 213.470021 
L 273.219311 213.308682 
L 276.879287 213.011935 
L 280.539264 212.835164 
L 284.19924 212.499019 
L 287.859216 212.289769 
L 291.519193 212.175421 
L 295.179169 211.943401 
L 298.839146 211.684039 
L 302.499122 211.333035 
L 306.159098 211.001549 
L 309.819075 210.632489 
L 313.479051 210.223851 
L 317.139027 209.932314 
L 320.799004 209.79769 
L 324.45898 209.61842 
L 328.118957 209.406338 
L 331.778933 208.97775 
L 335.438909 208.730235 
L 339.098886 208.783164 
L 342.758862 208.583444 
L 346.418839 208.437656 
L 350.078815 208.381312 
L 353.738791 208.089668 
L 357.398768 207.938773 
L 361.058744 207.830297 
L 364.71872 207.391891 
L 368.378697 206.938905 
L 372.038673 206.653276 
L 375.69865 206.367647 
L 379.358626 206.082019 
L 383.018602 205.912052 
L 386.678579 206.025594 
L 390.338555 206.135221 
L 393.998532 206.241753 
L 397.658508 206.126652 
L 401.318484 205.75956 
L 404.978461 205.815622 
L 408.638437 206.057156 
L 412.298414 206.297494 
L 415.95839 206.342872 
L 419.618366 206.156365 
L 423.278343 206.051833 
L 426.938319 206.046374 
L 430.598295 205.927249 
L 430.598295 69.054545 
L 430.598295 69.054545 
L 426.938319 70.795239 
L 423.278343 72.599274 
L 419.618366 74.403354 
L 415.95839 76.207434 
L 412.298414 78.015301 
L 408.638437 79.593525 
L 404.978461 81.113554 
L 401.318484 82.633583 
L 397.658508 84.327045 
L 393.998532 85.893746 
L 390.338555 87.356924 
L 386.678579 88.820102 
L 383.018602 90.283281 
L 379.358626 91.708432 
L 375.69865 93.220346 
L 372.038673 94.732467 
L 368.378697 96.241706 
L 364.71872 97.752386 
L 361.058744 99.263065 
L 357.398768 100.773745 
L 353.738791 102.284425 
L 350.078815 103.795105 
L 346.418839 105.305785 
L 342.758862 106.816465 
L 339.098886 108.327144 
L 335.438909 109.837824 
L 331.778933 111.348504 
L 328.118957 112.859184 
L 324.45898 114.369864 
L 320.799004 115.880543 
L 317.139027 117.391223 
L 313.479051 118.912234 
L 309.819075 120.435336 
L 306.159098 122.196078 
L 302.499122 123.653693 
L 298.839146 125.111308 
L 295.179169 126.568922 
L 291.519193 128.164884 
L 287.859216 129.986903 
L 284.19924 131.80973 
L 280.539264 133.632557 
L 276.879287 135.455384 
L 273.219311 137.278211 
L 269.559334 139.101038 
L 265.899358 140.923865 
L 262.239382 142.746692 
L 258.579405 144.569519 
L 254.919429 146.392346 
L 251.259452 148.215173 
L 247.599476 150.038001 
L 243.9395 151.724314 
L 240.279523 153.351623 
L 236.619547 154.978932 
L 232.959571 156.606241 
L 229.299594 157.463129 
L 225.639618 158.137155 
L 221.979641 158.811181 
L 218.319665 159.567997 
L 214.659689 161.500271 
L 210.999712 163.440762 
L 207.339736 165.212921 
L 203.679759 166.782433 
L 200.019783 167.66777 
L 196.359807 168.553107 
L 192.69983 169.438445 
L 189.039854 170.329051 
L 185.379878 171.825188 
L 181.719901 172.415779 
L 178.059925 174.160554 
L 174.399948 176.053139 
L 170.739972 176.455208 
L 167.079996 177.950982 
L 163.420019 179.50474 
L 159.760043 180.619239 
L 156.100066 181.576627 
L 152.44009 183.147506 
L 148.780114 183.764307 
L 145.120137 184.821079 
L 141.460161 185.530333 
L 137.800184 185.852267 
L 134.140208 186.212291 
L 130.480232 186.185678 
L 126.820255 186.133158 
L 123.160279 186.209436 
L 119.500303 186.705904 
L 115.840326 187.358485 
L 112.18035 187.408966 
L 108.520373 187.648381 
L 104.860397 187.779899 
L 101.200421 188.20784 
L 97.540444 188.077957 
L 93.880468 188.132907 
L 90.220491 188.004493 
L 86.560515 188.057008 
L 82.900539 188.109353 
L 79.240562 188.305192 
L 75.580586 188.154276 
L 71.92061 188.003359 
L 68.260633 187.881268 
z
" clip-path="url(#p43f48fd320)" style="fill: #ffa500; fill-opacity: 0.15"/>
   </g>
   <g id="matplotlib.axis_1">
    <g id="xtick_1">
     <g id="line2d_1">
      <defs>
       <path id="m92122b1e1a" d="M 0 0 
L 0 3.5 
" style="stroke: #000000; stroke-width: 0.8"/>
      </defs>
      <g>
       <use xlink:href="#m92122b1e1a" x="97.247646" y="309.6" style="stroke: #000000; stroke-width: 0.8"/>
      </g>
     </g>
     <g id="text_1">
      <!-- 0.04 -->
      <g transform="translate(86.114834 324.198437) scale(0.1 -0.1)">
       <defs>
        <path id="DejaVuSans-30" d="M 2034 4250 
Q 1547 4250 1301 3770 
Q 1056 3291 1056 2328 
Q 1056 1369 1301 889 
Q 1547 409 2034 409 
Q 2525 409 2770 889 
Q 3016 1369 3016 2328 
Q 3016 3291 2770 3770 
Q 2525 4250 2034 4250 
z
M 2034 4750 
Q 2819 4750 3233 4129 
Q 3647 3509 3647 2328 
Q 3647 1150 3233 529 
Q 2819 -91 2034 -91 
Q 1250 -91 836 529 
Q 422 1150 422 2328 
Q 422 3509 836 4129 
Q 1250 4750 2034 4750 
z
" transform="scale(0.015625)"/>
        <path id="DejaVuSans-2e" d="M 684 794 
L 1344 794 
L 1344 0 
L 684 0 
L 684 794 
z
" transform="scale(0.015625)"/>
        <path id="DejaVuSans-34" d="M 2419 4116 
L 825 1625 
L 2419 1625 
L 2419 4116 
z
M 2253 4666 
L 3047 4666 
L 3047 1625 
L 3713 1625 
L 3713 1100 
L 3047 1100 
L 3047 0 
L 2419 0 
L 2419 1100 
L 313 1100 
L 313 1709 
L 2253 4666 
z
" transform="scale(0.015625)"/>
       </defs>
       <use xlink:href="#DejaVuSans-30"/>
       <use xlink:href="#DejaVuSans-2e" x="63.623047"/>
       <use xlink:href="#DejaVuSans-30" x="95.410156"/>
       <use xlink:href="#DejaVuSans-34" x="159.033203"/>
      </g>
     </g>
    </g>
    <g id="xtick_2">
     <g id="line2d_2">
      <g>
       <use xlink:href="#m92122b1e1a" x="172.130763" y="309.6" style="stroke: #000000; stroke-width: 0.8"/>
      </g>
     </g>
     <g id="text_2">
      <!-- 0.06 -->
      <g transform="translate(160.99795 324.198437) scale(0.1 -0.1)">
       <defs>
        <path id="DejaVuSans-36" d="M 2113 2584 
Q 1688 2584 1439 2293 
Q 1191 2003 1191 1497 
Q 1191 994 1439 701 
Q 1688 409 2113 409 
Q 2538 409 2786 701 
Q 3034 994 3034 1497 
Q 3034 2003 2786 2293 
Q 2538 2584 2113 2584 
z
M 3366 4563 
L 3366 3988 
Q 3128 4100 2886 4159 
Q 2644 4219 2406 4219 
Q 1781 4219 1451 3797 
Q 1122 3375 1075 2522 
Q 1259 2794 1537 2939 
Q 1816 3084 2150 3084 
Q 2853 3084 3261 2657 
Q 3669 2231 3669 1497 
Q 3669 778 3244 343 
Q 2819 -91 2113 -91 
Q 1303 -91 875 529 
Q 447 1150 447 2328 
Q 447 3434 972 4092 
Q 1497 4750 2381 4750 
Q 2619 4750 2861 4703 
Q 3103 4656 3366 4563 
z
" transform="scale(0.015625)"/>
       </defs>
       <use xlink:href="#DejaVuSans-30"/>
       <use xlink:href="#DejaVuSans-2e" x="63.623047"/>
       <use xlink:href="#DejaVuSans-30" x="95.410156"/>
       <use xlink:href="#DejaVuSans-36" x="159.033203"/>
      </g>
     </g>
    </g>
    <g id="xtick_3">
     <g id="line2d_3">
      <g>
       <use xlink:href="#m92122b1e1a" x="247.01388" y="309.6" style="stroke: #000000; stroke-width: 0.8"/>
      </g>
     </g>
     <g id="text_3">
      <!-- 0.08 -->
      <g transform="translate(235.881067 324.198437) scale(0.1 -0.1)">
       <defs>
        <path id="DejaVuSans-38" d="M 2034 2216 
Q 1584 2216 1326 1975 
Q 1069 1734 1069 1313 
Q 1069 891 1326 650 
Q 1584 409 2034 409 
Q 2484 409 2743 651 
Q 3003 894 3003 1313 
Q 3003 1734 2745 1975 
Q 2488 2216 2034 2216 
z
M 1403 2484 
Q 997 2584 770 2862 
Q 544 3141 544 3541 
Q 544 4100 942 4425 
Q 1341 4750 2034 4750 
Q 2731 4750 3128 4425 
Q 3525 4100 3525 3541 
Q 3525 3141 3298 2862 
Q 3072 2584 2669 2484 
Q 3125 2378 3379 2068 
Q 3634 1759 3634 1313 
Q 3634 634 3220 271 
Q 2806 -91 2034 -91 
Q 1263 -91 848 271 
Q 434 634 434 1313 
Q 434 1759 690 2068 
Q 947 2378 1403 2484 
z
M 1172 3481 
Q 1172 3119 1398 2916 
Q 1625 2713 2034 2713 
Q 2441 2713 2670 2916 
Q 2900 3119 2900 3481 
Q 2900 3844 2670 4047 
Q 2441 4250 2034 4250 
Q 1625 4250 1398 4047 
Q 1172 3844 1172 3481 
z
" transform="scale(0.015625)"/>
       </defs>
       <use xlink:href="#DejaVuSans-30"/>
       <use xlink:href="#DejaVuSans-2e" x="63.623047"/>
       <use xlink:href="#DejaVuSans-30" x="95.410156"/>
       <use xlink:href="#DejaVuSans-38" x="159.033203"/>
      </g>
     </g>
    </g>
    <g id="xtick_4">
     <g id="line2d_4">
      <g>
       <use xlink:href="#m92122b1e1a" x="321.896997" y="309.6" style="stroke: #000000; stroke-width: 0.8"/>
      </g>
     </g>
     <g id="text_4">
      <!-- 0.10 -->
      <g transform="translate(310.764184 324.198437) scale(0.1 -0.1)">
       <defs>
        <path id="DejaVuSans-31" d="M 794 531 
L 1825 531 
L 1825 4091 
L 703 3866 
L 703 4441 
L 1819 4666 
L 2450 4666 
L 2450 531 
L 3481 531 
L 3481 0 
L 794 0 
L 794 531 
z
" transform="scale(0.015625)"/>
       </defs>
       <use xlink:href="#DejaVuSans-30"/>
       <use xlink:href="#DejaVuSans-2e" x="63.623047"/>
       <use xlink:href="#DejaVuSans-31" x="95.410156"/>
       <use xlink:href="#DejaVuSans-30" x="159.033203"/>
      </g>
     </g>
    </g>
    <g id="xtick_5">
     <g id="line2d_5">
      <g>
       <use xlink:href="#m92122b1e1a" x="396.780114" y="309.6" style="stroke: #000000; stroke-width: 0.8"/>
      </g>
     </g>
     <g id="text_5">
      <!-- 0.12 -->
      <g transform="translate(385.647301 324.198437) scale(0.1 -0.1)">
       <defs>
        <path id="DejaVuSans-32" d="M 1228 531 
L 3431 531 
L 3431 0 
L 469 0 
L 469 531 
Q 828 903 1448 1529 
Q 2069 2156 2228 2338 
Q 2531 2678 2651 2914 
Q 2772 3150 2772 3378 
Q 2772 3750 2511 3984 
Q 2250 4219 1831 4219 
Q 1534 4219 1204 4116 
Q 875 4013 500 3803 
L 500 4441 
Q 881 4594 1212 4672 
Q 1544 4750 1819 4750 
Q 2544 4750 2975 4387 
Q 3406 4025 3406 3419 
Q 3406 3131 3298 2873 
Q 3191 2616 2906 2266 
Q 2828 2175 2409 1742 
Q 1991 1309 1228 531 
z
" transform="scale(0.015625)"/>
       </defs>
       <use xlink:href="#DejaVuSans-30"/>
       <use xlink:href="#DejaVuSans-2e" x="63.623047"/>
       <use xlink:href="#DejaVuSans-31" x="95.410156"/>
       <use xlink:href="#DejaVuSans-32" x="159.033203"/>
      </g>
     </g>
    </g>
    <g id="text_6">
     <!-- Codon -->
     <g transform="translate(233.476339 337.876562) scale(0.1 -0.1)">
      <defs>
       <path id="DejaVuSans-43" d="M 4122 4306 
L 4122 3641 
Q 3803 3938 3442 4084 
Q 3081 4231 2675 4231 
Q 1875 4231 1450 3742 
Q 1025 3253 1025 2328 
Q 1025 1406 1450 917 
Q 1875 428 2675 428 
Q 3081 428 3442 575 
Q 3803 722 4122 1019 
L 4122 359 
Q 3791 134 3420 21 
Q 3050 -91 2638 -91 
Q 1578 -91 968 557 
Q 359 1206 359 2328 
Q 359 3453 968 4101 
Q 1578 4750 2638 4750 
Q 3056 4750 3426 4639 
Q 3797 4528 4122 4306 
z
" transform="scale(0.015625)"/>
       <path id="DejaVuSans-6f" d="M 1959 3097 
Q 1497 3097 1228 2736 
Q 959 2375 959 1747 
Q 959 1119 1226 758 
Q 1494 397 1959 397 
Q 2419 397 2687 759 
Q 2956 1122 2956 1747 
Q 2956 2369 2687 2733 
Q 2419 3097 1959 3097 
z
M 1959 3584 
Q 2709 3584 3137 3096 
Q 3566 2609 3566 1747 
Q 3566 888 3137 398 
Q 2709 -91 1959 -91 
Q 1206 -91 779 398 
Q 353 888 353 1747 
Q 353 2609 779 3096 
Q 1206 3584 1959 3584 
z
" transform="scale(0.015625)"/>
       <path id="DejaVuSans-64" d="M 2906 2969 
L 2906 4863 
L 3481 4863 
L 3481 0 
L 2906 0 
L 2906 525 
Q 2725 213 2448 61 
Q 2172 -91 1784 -91 
Q 1150 -91 751 415 
Q 353 922 353 1747 
Q 353 2572 751 3078 
Q 1150 3584 1784 3584 
Q 2172 3584 2448 3432 
Q 2725 3281 2906 2969 
z
M 947 1747 
Q 947 1113 1208 752 
Q 1469 391 1925 391 
Q 2381 391 2643 752 
Q 2906 1113 2906 1747 
Q 2906 2381 2643 2742 
Q 2381 3103 1925 3103 
Q 1469 3103 1208 2742 
Q 947 2381 947 1747 
z
" transform="scale(0.015625)"/>
       <path id="DejaVuSans-6e" d="M 3513 2113 
L 3513 0 
L 2938 0 
L 2938 2094 
Q 2938 2591 2744 2837 
Q 2550 3084 2163 3084 
Q 1697 3084 1428 2787 
Q 1159 2491 1159 1978 
L 1159 0 
L 581 0 
L 581 3500 
L 1159 3500 
L 1159 2956 
Q 1366 3272 1645 3428 
Q 1925 3584 2291 3584 
Q 2894 3584 3203 3211 
Q 3513 2838 3513 2113 
z
" transform="scale(0.015625)"/>
      </defs>
      <use xlink:href="#DejaVuSans-43"/>
      <use xlink:href="#DejaVuSans-6f" x="69.824219"/>
      <use xlink:href="#DejaVuSans-64" x="131.005859"/>
      <use xlink:href="#DejaVuSans-6f" x="194.482422"/>
      <use xlink:href="#DejaVuSans-6e" x="255.664062"/>
     </g>
    </g>
   </g>
   <g id="matplotlib.axis_2">
    <g id="ytick_1">
     <g id="line2d_6">
      <defs>
       <path id="m0a95e7a5e9" d="M 0 0 
L -3.5 0 
" style="stroke: #000000; stroke-width: 0.8"/>
      </defs>
      <g>
       <use xlink:href="#m0a95e7a5e9" x="50.14375" y="273.310598" style="stroke: #000000; stroke-width: 0.8"/>
      </g>
     </g>
     <g id="text_7">
      <!-- 0.02 -->
      <g transform="translate(20.878125 277.109817) scale(0.1 -0.1)">
       <use xlink:href="#DejaVuSans-30"/>
       <use xlink:href="#DejaVuSans-2e" x="63.623047"/>
       <use xlink:href="#DejaVuSans-30" x="95.410156"/>
       <use xlink:href="#DejaVuSans-32" x="159.033203"/>
      </g>
     </g>
    </g>
    <g id="ytick_2">
     <g id="line2d_7">
      <g>
       <use xlink:href="#m0a95e7a5e9" x="50.14375" y="231.485645" style="stroke: #000000; stroke-width: 0.8"/>
      </g>
     </g>
     <g id="text_8">
      <!-- 0.04 -->
      <g transform="translate(20.878125 235.284863) scale(0.1 -0.1)">
       <use xlink:href="#DejaVuSans-30"/>
       <use xlink:href="#DejaVuSans-2e" x="63.623047"/>
       <use xlink:href="#DejaVuSans-30" x="95.410156"/>
       <use xlink:href="#DejaVuSans-34" x="159.033203"/>
      </g>
     </g>
    </g>
    <g id="ytick_3">
     <g id="line2d_8">
      <g>
       <use xlink:href="#m0a95e7a5e9" x="50.14375" y="189.660691" style="stroke: #000000; stroke-width: 0.8"/>
      </g>
     </g>
     <g id="text_9">
      <!-- 0.06 -->
      <g transform="translate(20.878125 193.45991) scale(0.1 -0.1)">
       <use xlink:href="#DejaVuSans-30"/>
       <use xlink:href="#DejaVuSans-2e" x="63.623047"/>
       <use xlink:href="#DejaVuSans-30" x="95.410156"/>
       <use xlink:href="#DejaVuSans-36" x="159.033203"/>
      </g>
     </g>
    </g>
    <g id="ytick_4">
     <g id="line2d_9">
      <g>
       <use xlink:href="#m0a95e7a5e9" x="50.14375" y="147.835737" style="stroke: #000000; stroke-width: 0.8"/>
      </g>
     </g>
     <g id="text_10">
      <!-- 0.08 -->
      <g transform="translate(20.878125 151.634956) scale(0.1 -0.1)">
       <use xlink:href="#DejaVuSans-30"/>
       <use xlink:href="#DejaVuSans-2e" x="63.623047"/>
       <use xlink:href="#DejaVuSans-30" x="95.410156"/>
       <use xlink:href="#DejaVuSans-38" x="159.033203"/>
      </g>
     </g>
    </g>
    <g id="ytick_5">
     <g id="line2d_10">
      <g>
       <use xlink:href="#m0a95e7a5e9" x="50.14375" y="106.010784" style="stroke: #000000; stroke-width: 0.8"/>
      </g>
     </g>
     <g id="text_11">
      <!-- 0.10 -->
      <g transform="translate(20.878125 109.810002) scale(0.1 -0.1)">
       <use xlink:href="#DejaVuSans-30"/>
       <use xlink:href="#DejaVuSans-2e" x="63.623047"/>
       <use xlink:href="#DejaVuSans-31" x="95.410156"/>
       <use xlink:href="#DejaVuSans-30" x="159.033203"/>
      </g>
     </g>
    </g>
    <g id="ytick_6">
     <g id="line2d_11">
      <g>
       <use xlink:href="#m0a95e7a5e9" x="50.14375" y="64.18583" style="stroke: #000000; stroke-width: 0.8"/>
      </g>
     </g>
     <g id="text_12">
      <!-- 0.12 -->
      <g transform="translate(20.878125 67.985049) scale(0.1 -0.1)">
       <use xlink:href="#DejaVuSans-30"/>
       <use xlink:href="#DejaVuSans-2e" x="63.623047"/>
       <use xlink:href="#DejaVuSans-31" x="95.410156"/>
       <use xlink:href="#DejaVuSans-32" x="159.033203"/>
      </g>
     </g>
    </g>
    <g id="text_13">
     <!-- Amino acid frequency -->
     <g transform="translate(14.798438 238.139062) rotate(-90) scale(0.1 -0.1)">
      <defs>
       <path id="DejaVuSans-41" d="M 2188 4044 
L 1331 1722 
L 3047 1722 
L 2188 4044 
z
M 1831 4666 
L 2547 4666 
L 4325 0 
L 3669 0 
L 3244 1197 
L 1141 1197 
L 716 0 
L 50 0 
L 1831 4666 
z
" transform="scale(0.015625)"/>
       <path id="DejaVuSans-6d" d="M 3328 2828 
Q 3544 3216 3844 3400 
Q 4144 3584 4550 3584 
Q 5097 3584 5394 3201 
Q 5691 2819 5691 2113 
L 5691 0 
L 5113 0 
L 5113 2094 
Q 5113 2597 4934 2840 
Q 4756 3084 4391 3084 
Q 3944 3084 3684 2787 
Q 3425 2491 3425 1978 
L 3425 0 
L 2847 0 
L 2847 2094 
Q 2847 2600 2669 2842 
Q 2491 3084 2119 3084 
Q 1678 3084 1418 2786 
Q 1159 2488 1159 1978 
L 1159 0 
L 581 0 
L 581 3500 
L 1159 3500 
L 1159 2956 
Q 1356 3278 1631 3431 
Q 1906 3584 2284 3584 
Q 2666 3584 2933 3390 
Q 3200 3197 3328 2828 
z
" transform="scale(0.015625)"/>
       <path id="DejaVuSans-69" d="M 603 3500 
L 1178 3500 
L 1178 0 
L 603 0 
L 603 3500 
z
M 603 4863 
L 1178 4863 
L 1178 4134 
L 603 4134 
L 603 4863 
z
" transform="scale(0.015625)"/>
       <path id="DejaVuSans-20" transform="scale(0.015625)"/>
       <path id="DejaVuSans-61" d="M 2194 1759 
Q 1497 1759 1228 1600 
Q 959 1441 959 1056 
Q 959 750 1161 570 
Q 1363 391 1709 391 
Q 2188 391 2477 730 
Q 2766 1069 2766 1631 
L 2766 1759 
L 2194 1759 
z
M 3341 1997 
L 3341 0 
L 2766 0 
L 2766 531 
Q 2569 213 2275 61 
Q 1981 -91 1556 -91 
Q 1019 -91 701 211 
Q 384 513 384 1019 
Q 384 1609 779 1909 
Q 1175 2209 1959 2209 
L 2766 2209 
L 2766 2266 
Q 2766 2663 2505 2880 
Q 2244 3097 1772 3097 
Q 1472 3097 1187 3025 
Q 903 2953 641 2809 
L 641 3341 
Q 956 3463 1253 3523 
Q 1550 3584 1831 3584 
Q 2591 3584 2966 3190 
Q 3341 2797 3341 1997 
z
" transform="scale(0.015625)"/>
       <path id="DejaVuSans-63" d="M 3122 3366 
L 3122 2828 
Q 2878 2963 2633 3030 
Q 2388 3097 2138 3097 
Q 1578 3097 1268 2742 
Q 959 2388 959 1747 
Q 959 1106 1268 751 
Q 1578 397 2138 397 
Q 2388 397 2633 464 
Q 2878 531 3122 666 
L 3122 134 
Q 2881 22 2623 -34 
Q 2366 -91 2075 -91 
Q 1284 -91 818 406 
Q 353 903 353 1747 
Q 353 2603 823 3093 
Q 1294 3584 2113 3584 
Q 2378 3584 2631 3529 
Q 2884 3475 3122 3366 
z
" transform="scale(0.015625)"/>
       <path id="DejaVuSans-66" d="M 2375 4863 
L 2375 4384 
L 1825 4384 
Q 1516 4384 1395 4259 
Q 1275 4134 1275 3809 
L 1275 3500 
L 2222 3500 
L 2222 3053 
L 1275 3053 
L 1275 0 
L 697 0 
L 697 3053 
L 147 3053 
L 147 3500 
L 697 3500 
L 697 3744 
Q 697 4328 969 4595 
Q 1241 4863 1831 4863 
L 2375 4863 
z
" transform="scale(0.015625)"/>
       <path id="DejaVuSans-72" d="M 2631 2963 
Q 2534 3019 2420 3045 
Q 2306 3072 2169 3072 
Q 1681 3072 1420 2755 
Q 1159 2438 1159 1844 
L 1159 0 
L 581 0 
L 581 3500 
L 1159 3500 
L 1159 2956 
Q 1341 3275 1631 3429 
Q 1922 3584 2338 3584 
Q 2397 3584 2469 3576 
Q 2541 3569 2628 3553 
L 2631 2963 
z
" transform="scale(0.015625)"/>
       <path id="DejaVuSans-65" d="M 3597 1894 
L 3597 1613 
L 953 1613 
Q 991 1019 1311 708 
Q 1631 397 2203 397 
Q 2534 397 2845 478 
Q 3156 559 3463 722 
L 3463 178 
Q 3153 47 2828 -22 
Q 2503 -91 2169 -91 
Q 1331 -91 842 396 
Q 353 884 353 1716 
Q 353 2575 817 3079 
Q 1281 3584 2069 3584 
Q 2775 3584 3186 3129 
Q 3597 2675 3597 1894 
z
M 3022 2063 
Q 3016 2534 2758 2815 
Q 2500 3097 2075 3097 
Q 1594 3097 1305 2825 
Q 1016 2553 972 2059 
L 3022 2063 
z
" transform="scale(0.015625)"/>
       <path id="DejaVuSans-71" d="M 947 1747 
Q 947 1113 1208 752 
Q 1469 391 1925 391 
Q 2381 391 2643 752 
Q 2906 1113 2906 1747 
Q 2906 2381 2643 2742 
Q 2381 3103 1925 3103 
Q 1469 3103 1208 2742 
Q 947 2381 947 1747 
z
M 2906 525 
Q 2725 213 2448 61 
Q 2172 -91 1784 -91 
Q 1150 -91 751 415 
Q 353 922 353 1747 
Q 353 2572 751 3078 
Q 1150 3584 1784 3584 
Q 2172 3584 2448 3432 
Q 2725 3281 2906 2969 
L 2906 3500 
L 3481 3500 
L 3481 -1331 
L 2906 -1331 
L 2906 525 
z
" transform="scale(0.015625)"/>
       <path id="DejaVuSans-75" d="M 544 1381 
L 544 3500 
L 1119 3500 
L 1119 1403 
Q 1119 906 1312 657 
Q 1506 409 1894 409 
Q 2359 409 2629 706 
Q 2900 1003 2900 1516 
L 2900 3500 
L 3475 3500 
L 3475 0 
L 2900 0 
L 2900 538 
Q 2691 219 2414 64 
Q 2138 -91 1772 -91 
Q 1169 -91 856 284 
Q 544 659 544 1381 
z
M 1991 3584 
L 1991 3584 
z
" transform="scale(0.015625)"/>
       <path id="DejaVuSans-79" d="M 2059 -325 
Q 1816 -950 1584 -1140 
Q 1353 -1331 966 -1331 
L 506 -1331 
L 506 -850 
L 844 -850 
Q 1081 -850 1212 -737 
Q 1344 -625 1503 -206 
L 1606 56 
L 191 3500 
L 800 3500 
L 1894 763 
L 2988 3500 
L 3597 3500 
L 2059 -325 
z
" transform="scale(0.015625)"/>
      </defs>
      <use xlink:href="#DejaVuSans-41"/>
      <use xlink:href="#DejaVuSans-6d" x="68.408203"/>
      <use xlink:href="#DejaVuSans-69" x="165.820312"/>
      <use xlink:href="#DejaVuSans-6e" x="193.603516"/>
      <use xlink:href="#DejaVuSans-6f" x="256.982422"/>
      <use xlink:href="#DejaVuSans-20" x="318.164062"/>
      <use xlink:href="#DejaVuSans-61" x="349.951172"/>
      <use xlink:href="#DejaVuSans-63" x="411.230469"/>
      <use xlink:href="#DejaVuSans-69" x="466.210938"/>
      <use xlink:href="#DejaVuSans-64" x="493.994141"/>
      <use xlink:href="#DejaVuSans-20" x="557.470703"/>
      <use xlink:href="#DejaVuSans-66" x="589.257812"/>
      <use xlink:href="#DejaVuSans-72" x="624.462891"/>
      <use xlink:href="#DejaVuSans-65" x="663.326172"/>
      <use xlink:href="#DejaVuSans-71" x="724.849609"/>
      <use xlink:href="#DejaVuSans-75" x="788.326172"/>
      <use xlink:href="#DejaVuSans-65" x="851.705078"/>
      <use xlink:href="#DejaVuSans-6e" x="913.228516"/>
      <use xlink:href="#DejaVuSans-63" x="976.607422"/>
      <use xlink:href="#DejaVuSans-79" x="1031.587891"/>
     </g>
    </g>
   </g>
   <g id="line2d_12">
    <path d="M 68.260633 218.806348 
L 71.92061 218.352729 
L 75.580586 217.89911 
L 79.240562 217.445492 
L 82.900539 216.991873 
L 86.560515 216.538254 
L 90.220491 216.084635 
L 93.880468 215.631017 
L 97.540444 215.177398 
L 101.200421 214.723779 
L 104.860397 214.270161 
L 108.520373 213.816542 
L 112.18035 213.362923 
L 115.840326 212.909304 
L 119.500303 212.455686 
L 123.160279 212.002067 
L 126.820255 211.548448 
L 130.480232 211.094829 
L 134.140208 210.641211 
L 137.800184 210.187592 
L 141.460161 209.733973 
L 145.120137 209.280354 
L 148.780114 208.826736 
L 152.44009 208.373117 
L 156.100066 207.919498 
L 159.760043 207.46588 
L 163.420019 207.012261 
L 167.079996 206.558642 
L 170.739972 206.105023 
L 174.399948 205.651405 
L 178.059925 205.197786 
L 181.719901 204.744167 
L 185.379878 204.290548 
L 189.039854 203.83693 
L 192.69983 203.383311 
L 196.359807 202.929692 
L 200.019783 202.476074 
L 203.679759 202.022455 
L 207.339736 201.568836 
L 210.999712 201.115217 
L 214.659689 200.661599 
L 218.319665 200.20798 
L 221.979641 199.754361 
L 225.639618 199.300742 
L 229.299594 198.847124 
L 232.959571 198.393505 
L 236.619547 197.939886 
L 240.279523 197.486267 
L 243.9395 197.032649 
L 247.599476 196.57903 
L 251.259452 196.125411 
L 254.919429 195.671793 
L 258.579405 195.218174 
L 262.239382 194.764555 
L 265.899358 194.310936 
L 269.559334 193.857318 
L 273.219311 193.403699 
L 276.879287 192.95008 
L 280.539264 192.496461 
L 284.19924 192.042843 
L 287.859216 191.589224 
L 291.519193 191.135605 
L 295.179169 190.681987 
L 298.839146 190.228368 
L 302.499122 189.774749 
L 306.159098 189.32113 
L 309.819075 188.867512 
L 313.479051 188.413893 
L 317.139027 187.960274 
L 320.799004 187.506655 
L 324.45898 187.053037 
L 328.118957 186.599418 
L 331.778933 186.145799 
L 335.438909 185.692181 
L 339.098886 185.238562 
L 342.758862 184.784943 
L 346.418839 184.331324 
L 350.078815 183.877706 
L 353.738791 183.424087 
L 357.398768 182.970468 
L 361.058744 182.516849 
L 364.71872 182.063231 
L 368.378697 181.609612 
L 372.038673 181.155993 
L 375.69865 180.702374 
L 379.358626 180.248756 
L 383.018602 179.795137 
L 386.678579 179.341518 
L 390.338555 178.8879 
L 393.998532 178.434281 
L 397.658508 177.980662 
L 401.318484 177.527043 
L 404.978461 177.073425 
L 408.638437 176.619806 
L 412.298414 176.166187 
L 415.95839 175.712568 
L 419.618366 175.25895 
L 423.278343 174.805331 
L 426.938319 174.351712 
L 430.598295 173.898094 
" clip-path="url(#p43f48fd320)" style="fill: none; stroke: #ffa500; stroke-width: 2.25; stroke-linecap: square"/>
   </g>
   <g id="patch_3">
    <path d="M 50.14375 309.6 
L 50.14375 57.6 
" style="fill: none; stroke: #000000; stroke-width: 0.8; stroke-linejoin: miter; stroke-linecap: square"/>
   </g>
   <g id="patch_4">
    <path d="M 448.715179 309.6 
L 448.715179 57.6 
" style="fill: none; stroke: #000000; stroke-width: 0.8; stroke-linejoin: miter; stroke-linecap: square"/>
   </g>
   <g id="patch_5">
    <path d="M 50.14375 309.6 
L 448.715179 309.6 
" style="fill: none; stroke: #000000; stroke-width: 0.8; stroke-linejoin: miter; stroke-linecap: square"/>
   </g>
   <g id="patch_6">
    <path d="M 50.14375 57.6 
L 448.715179 57.6 
" style="fill: none; stroke: #000000; stroke-width: 0.8; stroke-linejoin: miter; stroke-linecap: square"/>
   </g>
  </g>
  <g id="axes_2">
   <g id="patch_7">
    <path d="M 488.572321 309.6 
L 887.14375 309.6 
L 887.14375 57.6 
L 488.572321 57.6 
z
" style="fill: #ffffff"/>
   </g>
   <g id="PathCollection_2">
    <g clip-path="url(#p569049a933)">
     <use xlink:href="#m0f5bb408cb" x="506.689205" y="263.23698" style="fill: #1f77b4; fill-opacity: 0.8; stroke: #1f77b4; stroke-opacity: 0.8"/>
     <use xlink:href="#m0f5bb408cb" x="506.689205" y="298.145455" style="fill: #1f77b4; fill-opacity: 0.8; stroke: #1f77b4; stroke-opacity: 0.8"/>
     <use xlink:href="#m0f5bb408cb" x="506.689205" y="293.845286" style="fill: #1f77b4; fill-opacity: 0.8; stroke: #1f77b4; stroke-opacity: 0.8"/>
     <use xlink:href="#m0f5bb408cb" x="506.689205" y="186.572493" style="fill: #1f77b4; fill-opacity: 0.8; stroke: #1f77b4; stroke-opacity: 0.8"/>
     <use xlink:href="#m0f5bb408cb" x="506.689205" y="148.276807" style="fill: #1f77b4; fill-opacity: 0.8; stroke: #1f77b4; stroke-opacity: 0.8"/>
     <use xlink:href="#m0f5bb408cb" x="506.689205" y="251.256691" style="fill: #1f77b4; fill-opacity: 0.8; stroke: #1f77b4; stroke-opacity: 0.8"/>
     <use xlink:href="#m0f5bb408cb" x="506.689205" y="276.78312" style="fill: #1f77b4; fill-opacity: 0.8; stroke: #1f77b4; stroke-opacity: 0.8"/>
     <use xlink:href="#m0f5bb408cb" x="506.689205" y="181.17726" style="fill: #1f77b4; fill-opacity: 0.8; stroke: #1f77b4; stroke-opacity: 0.8"/>
     <use xlink:href="#m0f5bb408cb" x="506.689205" y="245.188503" style="fill: #1f77b4; fill-opacity: 0.8; stroke: #1f77b4; stroke-opacity: 0.8"/>
     <use xlink:href="#m0f5bb408cb" x="506.689205" y="268.715325" style="fill: #1f77b4; fill-opacity: 0.8; stroke: #1f77b4; stroke-opacity: 0.8"/>
     <use xlink:href="#m0f5bb408cb" x="506.689205" y="246.607801" style="fill: #1f77b4; fill-opacity: 0.8; stroke: #1f77b4; stroke-opacity: 0.8"/>
     <use xlink:href="#m0f5bb408cb" x="506.689205" y="161.195316" style="fill: #1f77b4; fill-opacity: 0.8; stroke: #1f77b4; stroke-opacity: 0.8"/>
     <use xlink:href="#m0f5bb408cb" x="627.468425" y="163.120265" style="fill: #1f77b4; fill-opacity: 0.8; stroke: #1f77b4; stroke-opacity: 0.8"/>
     <use xlink:href="#m0f5bb408cb" x="627.468425" y="157.349369" style="fill: #1f77b4; fill-opacity: 0.8; stroke: #1f77b4; stroke-opacity: 0.8"/>
     <use xlink:href="#m0f5bb408cb" x="627.468425" y="227.840163" style="fill: #1f77b4; fill-opacity: 0.8; stroke: #1f77b4; stroke-opacity: 0.8"/>
     <use xlink:href="#m0f5bb408cb" x="869.026867" y="215.810034" style="fill: #1f77b4; fill-opacity: 0.8; stroke: #1f77b4; stroke-opacity: 0.8"/>
     <use xlink:href="#m0f5bb408cb" x="627.468425" y="138.786756" style="fill: #1f77b4; fill-opacity: 0.8; stroke: #1f77b4; stroke-opacity: 0.8"/>
     <use xlink:href="#m0f5bb408cb" x="506.689205" y="134.724016" style="fill: #1f77b4; fill-opacity: 0.8; stroke: #1f77b4; stroke-opacity: 0.8"/>
     <use xlink:href="#m0f5bb408cb" x="748.247646" y="189.950865" style="fill: #1f77b4; fill-opacity: 0.8; stroke: #1f77b4; stroke-opacity: 0.8"/>
     <use xlink:href="#m0f5bb408cb" x="748.247646" y="202.452027" style="fill: #1f77b4; fill-opacity: 0.8; stroke: #1f77b4; stroke-opacity: 0.8"/>
    </g>
   </g>
   <g id="PolyCollection_2">
    <path d="M 506.689205 190.303901 
L 506.689205 248.39717 
L 510.349181 247.772423 
L 514.009157 246.864931 
L 517.669134 245.908269 
L 521.32911 244.676587 
L 524.989086 243.926381 
L 528.649063 243.008503 
L 532.309039 242.198002 
L 535.969016 241.501479 
L 539.628992 240.804956 
L 543.288968 240.108432 
L 546.948945 239.3906 
L 550.608921 238.476582 
L 554.268898 237.828709 
L 557.928874 237.047416 
L 561.58885 236.061322 
L 565.248827 235.493895 
L 568.908803 234.557801 
L 572.56878 234.115411 
L 576.228756 233.491074 
L 579.888732 232.65106 
L 583.548709 231.878188 
L 587.208685 231.177106 
L 590.868661 230.379023 
L 594.528638 229.672208 
L 598.188614 228.883319 
L 601.848591 228.239618 
L 605.508567 227.523426 
L 609.168543 227.060123 
L 612.82852 226.254535 
L 616.488496 225.672794 
L 620.148473 225.278969 
L 623.808449 224.872718 
L 627.468425 224.501031 
L 631.128402 224.116582 
L 634.788378 223.731092 
L 638.448354 223.342554 
L 642.108331 222.934773 
L 645.768307 222.468625 
L 649.428284 221.945313 
L 653.08826 221.528968 
L 656.748236 220.724878 
L 660.408213 220.095263 
L 664.068189 219.728951 
L 667.728166 219.406723 
L 671.388142 219.084496 
L 675.048118 218.762268 
L 678.708095 218.417574 
L 682.368071 218.046157 
L 686.028048 217.483727 
L 689.688024 217.110651 
L 693.348 216.818425 
L 697.007977 216.423021 
L 700.667953 215.988153 
L 704.327929 215.343692 
L 707.987906 214.837856 
L 711.647882 214.613101 
L 715.307859 214.213772 
L 718.967835 213.85781 
L 722.627811 213.681463 
L 726.287788 213.345509 
L 729.947764 212.943 
L 733.607741 212.633732 
L 737.267717 212.299826 
L 740.927693 212.085444 
L 744.58767 211.81577 
L 748.247646 211.444201 
L 751.907622 211.129332 
L 755.567599 210.944489 
L 759.227575 210.602639 
L 762.887552 210.218727 
L 766.547528 210.134283 
L 770.207504 209.914119 
L 773.867481 209.693778 
L 777.527457 209.467234 
L 781.187434 209.249105 
L 784.84741 209.085252 
L 788.507386 208.81537 
L 792.167363 208.729002 
L 795.827339 208.600965 
L 799.487316 208.498763 
L 803.147292 208.292429 
L 806.807268 208.119822 
L 810.467245 208.143016 
L 814.127221 208.070813 
L 817.787197 207.866784 
L 821.447174 207.550249 
L 825.10715 207.307539 
L 828.767127 207.352911 
L 832.427103 207.1735 
L 836.087079 207.002344 
L 839.747056 206.812247 
L 843.407032 206.655691 
L 847.067009 206.43186 
L 850.726985 206.462604 
L 854.386961 206.604415 
L 858.046938 206.549608 
L 861.706914 206.240826 
L 865.36689 206.123625 
L 869.026867 206.141529 
L 869.026867 69.054545 
L 869.026867 69.054545 
L 865.36689 70.835853 
L 861.706914 72.582524 
L 858.046938 74.218626 
L 854.386961 75.838922 
L 850.726985 77.459217 
L 847.067009 79.079513 
L 843.407032 80.699809 
L 839.747056 82.320104 
L 836.087079 83.9404 
L 832.427103 85.560696 
L 828.767127 87.180991 
L 825.10715 88.801287 
L 821.447174 90.421583 
L 817.787197 92.041878 
L 814.127221 93.662174 
L 810.467245 95.282469 
L 806.807268 96.902765 
L 803.147292 98.527975 
L 799.487316 100.154242 
L 795.827339 101.780509 
L 792.167363 103.406776 
L 788.507386 105.033043 
L 784.84741 106.65931 
L 781.187434 108.285577 
L 777.527457 109.911844 
L 773.867481 111.538111 
L 770.207504 113.164378 
L 766.547528 114.790645 
L 762.887552 116.416913 
L 759.227575 118.04318 
L 755.567599 119.669447 
L 751.907622 121.295714 
L 748.247646 122.921981 
L 744.58767 124.548248 
L 740.927693 126.174515 
L 737.267717 127.800782 
L 733.607741 129.427049 
L 729.947764 131.053316 
L 726.287788 132.679583 
L 722.627811 134.30585 
L 718.967835 135.932117 
L 715.307859 137.558384 
L 711.647882 139.184652 
L 707.987906 140.810919 
L 704.327929 142.437186 
L 700.667953 144.063453 
L 697.007977 145.68972 
L 693.348 147.315987 
L 689.688024 148.942254 
L 686.028048 150.568521 
L 682.368071 152.168294 
L 678.708095 153.537583 
L 675.048118 154.906871 
L 671.388142 156.27616 
L 667.728166 157.645449 
L 664.068189 159.311818 
L 660.408213 161.053882 
L 656.748236 162.644896 
L 653.08826 164.033741 
L 649.428284 164.9703 
L 645.768307 166.242299 
L 642.108331 168.103149 
L 638.448354 169.641694 
L 634.788378 171.111463 
L 631.128402 172.792421 
L 627.468425 174.398881 
L 623.808449 175.863206 
L 620.148473 177.048108 
L 616.488496 178.316074 
L 612.82852 179.672072 
L 609.168543 180.33721 
L 605.508567 181.260917 
L 601.848591 182.419745 
L 598.188614 182.811704 
L 594.528638 183.646204 
L 590.868661 183.948754 
L 587.208685 185.009555 
L 583.548709 185.391324 
L 579.888732 185.69575 
L 576.228756 186.417892 
L 572.56878 187.100164 
L 568.908803 188.096469 
L 565.248827 188.736557 
L 561.58885 188.688713 
L 557.928874 188.655194 
L 554.268898 189.045364 
L 550.608921 189.025741 
L 546.948945 189.294693 
L 543.288968 189.725569 
L 539.628992 189.977737 
L 535.969016 190.06025 
L 532.309039 190.142992 
L 528.649063 190.477231 
L 524.989086 190.539206 
L 521.32911 190.36565 
L 517.669134 190.214629 
L 514.009157 190.241222 
L 510.349181 190.27435 
L 506.689205 190.303901 
z
" clip-path="url(#p569049a933)" style="fill: #ffa500; fill-opacity: 0.15"/>
   </g>
   <g id="matplotlib.axis_3">
    <g id="xtick_6">
     <g id="line2d_13">
      <g>
       <use xlink:href="#m92122b1e1a" x="535.676218" y="309.6" style="stroke: #000000; stroke-width: 0.8"/>
      </g>
     </g>
     <g id="text_14">
      <!-- 0.04 -->
      <g transform="translate(524.543405 324.198437) scale(0.1 -0.1)">
       <use xlink:href="#DejaVuSans-30"/>
       <use xlink:href="#DejaVuSans-2e" x="63.623047"/>
       <use xlink:href="#DejaVuSans-30" x="95.410156"/>
       <use xlink:href="#DejaVuSans-34" x="159.033203"/>
      </g>
     </g>
    </g>
    <g id="xtick_7">
     <g id="line2d_14">
      <g>
       <use xlink:href="#m92122b1e1a" x="610.559334" y="309.6" style="stroke: #000000; stroke-width: 0.8"/>
      </g>
     </g>
     <g id="text_15">
      <!-- 0.06 -->
      <g transform="translate(599.426522 324.198437) scale(0.1 -0.1)">
       <use xlink:href="#DejaVuSans-30"/>
       <use xlink:href="#DejaVuSans-2e" x="63.623047"/>
       <use xlink:href="#DejaVuSans-30" x="95.410156"/>
       <use xlink:href="#DejaVuSans-36" x="159.033203"/>
      </g>
     </g>
    </g>
    <g id="xtick_8">
     <g id="line2d_15">
      <g>
       <use xlink:href="#m92122b1e1a" x="685.442451" y="309.6" style="stroke: #000000; stroke-width: 0.8"/>
      </g>
     </g>
     <g id="text_16">
      <!-- 0.08 -->
      <g transform="translate(674.309639 324.198437) scale(0.1 -0.1)">
       <use xlink:href="#DejaVuSans-30"/>
       <use xlink:href="#DejaVuSans-2e" x="63.623047"/>
       <use xlink:href="#DejaVuSans-30" x="95.410156"/>
       <use xlink:href="#DejaVuSans-38" x="159.033203"/>
      </g>
     </g>
    </g>
    <g id="xtick_9">
     <g id="line2d_16">
      <g>
       <use xlink:href="#m92122b1e1a" x="760.325568" y="309.6" style="stroke: #000000; stroke-width: 0.8"/>
      </g>
     </g>
     <g id="text_17">
      <!-- 0.10 -->
      <g transform="translate(749.192756 324.198437) scale(0.1 -0.1)">
       <use xlink:href="#DejaVuSans-30"/>
       <use xlink:href="#DejaVuSans-2e" x="63.623047"/>
       <use xlink:href="#DejaVuSans-31" x="95.410156"/>
       <use xlink:href="#DejaVuSans-30" x="159.033203"/>
      </g>
     </g>
    </g>
    <g id="xtick_10">
     <g id="line2d_17">
      <g>
       <use xlink:href="#m92122b1e1a" x="835.208685" y="309.6" style="stroke: #000000; stroke-width: 0.8"/>
      </g>
     </g>
     <g id="text_18">
      <!-- 0.12 -->
      <g transform="translate(824.075873 324.198437) scale(0.1 -0.1)">
       <use xlink:href="#DejaVuSans-30"/>
       <use xlink:href="#DejaVuSans-2e" x="63.623047"/>
       <use xlink:href="#DejaVuSans-31" x="95.410156"/>
       <use xlink:href="#DejaVuSans-32" x="159.033203"/>
      </g>
     </g>
    </g>
    <g id="text_19">
     <!-- Codon+Cost -->
     <g transform="translate(656.599442 337.876562) scale(0.1 -0.1)">
      <defs>
       <path id="DejaVuSans-2b" d="M 2944 4013 
L 2944 2272 
L 4684 2272 
L 4684 1741 
L 2944 1741 
L 2944 0 
L 2419 0 
L 2419 1741 
L 678 1741 
L 678 2272 
L 2419 2272 
L 2419 4013 
L 2944 4013 
z
" transform="scale(0.015625)"/>
       <path id="DejaVuSans-73" d="M 2834 3397 
L 2834 2853 
Q 2591 2978 2328 3040 
Q 2066 3103 1784 3103 
Q 1356 3103 1142 2972 
Q 928 2841 928 2578 
Q 928 2378 1081 2264 
Q 1234 2150 1697 2047 
L 1894 2003 
Q 2506 1872 2764 1633 
Q 3022 1394 3022 966 
Q 3022 478 2636 193 
Q 2250 -91 1575 -91 
Q 1294 -91 989 -36 
Q 684 19 347 128 
L 347 722 
Q 666 556 975 473 
Q 1284 391 1588 391 
Q 1994 391 2212 530 
Q 2431 669 2431 922 
Q 2431 1156 2273 1281 
Q 2116 1406 1581 1522 
L 1381 1569 
Q 847 1681 609 1914 
Q 372 2147 372 2553 
Q 372 3047 722 3315 
Q 1072 3584 1716 3584 
Q 2034 3584 2315 3537 
Q 2597 3491 2834 3397 
z
" transform="scale(0.015625)"/>
       <path id="DejaVuSans-74" d="M 1172 4494 
L 1172 3500 
L 2356 3500 
L 2356 3053 
L 1172 3053 
L 1172 1153 
Q 1172 725 1289 603 
Q 1406 481 1766 481 
L 2356 481 
L 2356 0 
L 1766 0 
Q 1100 0 847 248 
Q 594 497 594 1153 
L 594 3053 
L 172 3053 
L 172 3500 
L 594 3500 
L 594 4494 
L 1172 4494 
z
" transform="scale(0.015625)"/>
      </defs>
      <use xlink:href="#DejaVuSans-43"/>
      <use xlink:href="#DejaVuSans-6f" x="69.824219"/>
      <use xlink:href="#DejaVuSans-64" x="131.005859"/>
      <use xlink:href="#DejaVuSans-6f" x="194.482422"/>
      <use xlink:href="#DejaVuSans-6e" x="255.664062"/>
      <use xlink:href="#DejaVuSans-2b" x="319.042969"/>
      <use xlink:href="#DejaVuSans-43" x="402.832031"/>
      <use xlink:href="#DejaVuSans-6f" x="472.65625"/>
      <use xlink:href="#DejaVuSans-73" x="533.837891"/>
      <use xlink:href="#DejaVuSans-74" x="585.9375"/>
     </g>
    </g>
   </g>
   <g id="matplotlib.axis_4">
    <g id="ytick_7">
     <g id="line2d_18">
      <g>
       <use xlink:href="#m0a95e7a5e9" x="488.572321" y="273.871703" style="stroke: #000000; stroke-width: 0.8"/>
      </g>
     </g>
     <g id="text_20">
      <!-- 0.02 -->
      <g transform="translate(459.306696 277.670922) scale(0.1 -0.1)">
       <use xlink:href="#DejaVuSans-30"/>
       <use xlink:href="#DejaVuSans-2e" x="63.623047"/>
       <use xlink:href="#DejaVuSans-30" x="95.410156"/>
       <use xlink:href="#DejaVuSans-32" x="159.033203"/>
      </g>
     </g>
    </g>
    <g id="ytick_8">
     <g id="line2d_19">
      <g>
       <use xlink:href="#m0a95e7a5e9" x="488.572321" y="232.991719" style="stroke: #000000; stroke-width: 0.8"/>
      </g>
     </g>
     <g id="text_21">
      <!-- 0.04 -->
      <g transform="translate(459.306696 236.790937) scale(0.1 -0.1)">
       <use xlink:href="#DejaVuSans-30"/>
       <use xlink:href="#DejaVuSans-2e" x="63.623047"/>
       <use xlink:href="#DejaVuSans-30" x="95.410156"/>
       <use xlink:href="#DejaVuSans-34" x="159.033203"/>
      </g>
     </g>
    </g>
    <g id="ytick_9">
     <g id="line2d_20">
      <g>
       <use xlink:href="#m0a95e7a5e9" x="488.572321" y="192.111734" style="stroke: #000000; stroke-width: 0.8"/>
      </g>
     </g>
     <g id="text_22">
      <!-- 0.06 -->
      <g transform="translate(459.306696 195.910953) scale(0.1 -0.1)">
       <use xlink:href="#DejaVuSans-30"/>
       <use xlink:href="#DejaVuSans-2e" x="63.623047"/>
       <use xlink:href="#DejaVuSans-30" x="95.410156"/>
       <use xlink:href="#DejaVuSans-36" x="159.033203"/>
      </g>
     </g>
    </g>
    <g id="ytick_10">
     <g id="line2d_21">
      <g>
       <use xlink:href="#m0a95e7a5e9" x="488.572321" y="151.23175" style="stroke: #000000; stroke-width: 0.8"/>
      </g>
     </g>
     <g id="text_23">
      <!-- 0.08 -->
      <g transform="translate(459.306696 155.030969) scale(0.1 -0.1)">
       <use xlink:href="#DejaVuSans-30"/>
       <use xlink:href="#DejaVuSans-2e" x="63.623047"/>
       <use xlink:href="#DejaVuSans-30" x="95.410156"/>
       <use xlink:href="#DejaVuSans-38" x="159.033203"/>
      </g>
     </g>
    </g>
    <g id="ytick_11">
     <g id="line2d_22">
      <g>
       <use xlink:href="#m0a95e7a5e9" x="488.572321" y="110.351766" style="stroke: #000000; stroke-width: 0.8"/>
      </g>
     </g>
     <g id="text_24">
      <!-- 0.10 -->
      <g transform="translate(459.306696 114.150984) scale(0.1 -0.1)">
       <use xlink:href="#DejaVuSans-30"/>
       <use xlink:href="#DejaVuSans-2e" x="63.623047"/>
       <use xlink:href="#DejaVuSans-31" x="95.410156"/>
       <use xlink:href="#DejaVuSans-30" x="159.033203"/>
      </g>
     </g>
    </g>
    <g id="ytick_12">
     <g id="line2d_23">
      <g>
       <use xlink:href="#m0a95e7a5e9" x="488.572321" y="69.471781" style="stroke: #000000; stroke-width: 0.8"/>
      </g>
     </g>
     <g id="text_25">
      <!-- 0.12 -->
      <g transform="translate(459.306696 73.271) scale(0.1 -0.1)">
       <use xlink:href="#DejaVuSans-30"/>
       <use xlink:href="#DejaVuSans-2e" x="63.623047"/>
       <use xlink:href="#DejaVuSans-31" x="95.410156"/>
       <use xlink:href="#DejaVuSans-32" x="159.033203"/>
      </g>
     </g>
    </g>
   </g>
   <g id="line2d_24">
    <path d="M 506.689205 220.598891 
L 510.349181 220.155521 
L 514.009157 219.712151 
L 517.669134 219.268781 
L 521.32911 218.825411 
L 524.989086 218.382041 
L 528.649063 217.938671 
L 532.309039 217.495301 
L 535.969016 217.051931 
L 539.628992 216.608561 
L 543.288968 216.165191 
L 546.948945 215.721822 
L 550.608921 215.278452 
L 554.268898 214.835082 
L 557.928874 214.391712 
L 561.58885 213.948342 
L 565.248827 213.504972 
L 568.908803 213.061602 
L 572.56878 212.618232 
L 576.228756 212.174862 
L 579.888732 211.731492 
L 583.548709 211.288122 
L 587.208685 210.844752 
L 590.868661 210.401382 
L 594.528638 209.958012 
L 598.188614 209.514643 
L 601.848591 209.071273 
L 605.508567 208.627903 
L 609.168543 208.184533 
L 612.82852 207.741163 
L 616.488496 207.297793 
L 620.148473 206.854423 
L 623.808449 206.411053 
L 627.468425 205.967683 
L 631.128402 205.524313 
L 634.788378 205.080943 
L 638.448354 204.637573 
L 642.108331 204.194203 
L 645.768307 203.750834 
L 649.428284 203.307464 
L 653.08826 202.864094 
L 656.748236 202.420724 
L 660.408213 201.977354 
L 664.068189 201.533984 
L 667.728166 201.090614 
L 671.388142 200.647244 
L 675.048118 200.203874 
L 678.708095 199.760504 
L 682.368071 199.317134 
L 686.028048 198.873764 
L 689.688024 198.430394 
L 693.348 197.987024 
L 697.007977 197.543655 
L 700.667953 197.100285 
L 704.327929 196.656915 
L 707.987906 196.213545 
L 711.647882 195.770175 
L 715.307859 195.326805 
L 718.967835 194.883435 
L 722.627811 194.440065 
L 726.287788 193.996695 
L 729.947764 193.553325 
L 733.607741 193.109955 
L 737.267717 192.666585 
L 740.927693 192.223215 
L 744.58767 191.779846 
L 748.247646 191.336476 
L 751.907622 190.893106 
L 755.567599 190.449736 
L 759.227575 190.006366 
L 762.887552 189.562996 
L 766.547528 189.119626 
L 770.207504 188.676256 
L 773.867481 188.232886 
L 777.527457 187.789516 
L 781.187434 187.346146 
L 784.84741 186.902776 
L 788.507386 186.459406 
L 792.167363 186.016037 
L 795.827339 185.572667 
L 799.487316 185.129297 
L 803.147292 184.685927 
L 806.807268 184.242557 
L 810.467245 183.799187 
L 814.127221 183.355817 
L 817.787197 182.912447 
L 821.447174 182.469077 
L 825.10715 182.025707 
L 828.767127 181.582337 
L 832.427103 181.138967 
L 836.087079 180.695597 
L 839.747056 180.252227 
L 843.407032 179.808858 
L 847.067009 179.365488 
L 850.726985 178.922118 
L 854.386961 178.478748 
L 858.046938 178.035378 
L 861.706914 177.592008 
L 865.36689 177.148638 
L 869.026867 176.705268 
" clip-path="url(#p569049a933)" style="fill: none; stroke: #ffa500; stroke-width: 2.25; stroke-linecap: square"/>
   </g>
   <g id="patch_8">
    <path d="M 488.572321 309.6 
L 488.572321 57.6 
" style="fill: none; stroke: #000000; stroke-width: 0.8; stroke-linejoin: miter; stroke-linecap: square"/>
   </g>
   <g id="patch_9">
    <path d="M 887.14375 309.6 
L 887.14375 57.6 
" style="fill: none; stroke: #000000; stroke-width: 0.8; stroke-linejoin: miter; stroke-linecap: square"/>
   </g>
   <g id="patch_10">
    <path d="M 488.572321 309.6 
L 887.14375 309.6 
" style="fill: none; stroke: #000000; stroke-width: 0.8; stroke-linejoin: miter; stroke-linecap: square"/>
   </g>
   <g id="patch_11">
    <path d="M 488.572321 57.6 
L 887.14375 57.6 
" style="fill: none; stroke: #000000; stroke-width: 0.8; stroke-linejoin: miter; stroke-linecap: square"/>
   </g>
  </g>
  <g id="axes_3">
   <g id="patch_12">
    <path d="M 50.14375 612 
L 448.715179 612 
L 448.715179 360 
L 50.14375 360 
z
" style="fill: #ffffff"/>
   </g>
   <g id="PathCollection_3">
    <g clip-path="url(#p86e3c7e4c2)">
     <use xlink:href="#m0f5bb408cb" x="83.426896" y="567.489876" style="fill: #1f77b4; fill-opacity: 0.8; stroke: #1f77b4; stroke-opacity: 0.8"/>
     <use xlink:href="#m0f5bb408cb" x="68.260633" y="600.545455" style="fill: #1f77b4; fill-opacity: 0.8; stroke: #1f77b4; stroke-opacity: 0.8"/>
     <use xlink:href="#m0f5bb408cb" x="68.260633" y="596.473533" style="fill: #1f77b4; fill-opacity: 0.8; stroke: #1f77b4; stroke-opacity: 0.8"/>
     <use xlink:href="#m0f5bb408cb" x="68.260633" y="494.894639" style="fill: #1f77b4; fill-opacity: 0.8; stroke: #1f77b4; stroke-opacity: 0.8"/>
     <use xlink:href="#m0f5bb408cb" x="68.260633" y="458.631637" style="fill: #1f77b4; fill-opacity: 0.8; stroke: #1f77b4; stroke-opacity: 0.8"/>
     <use xlink:href="#m0f5bb408cb" x="83.426896" y="556.145485" style="fill: #1f77b4; fill-opacity: 0.8; stroke: #1f77b4; stroke-opacity: 0.8"/>
     <use xlink:href="#m0f5bb408cb" x="68.260633" y="580.317005" style="fill: #1f77b4; fill-opacity: 0.8; stroke: #1f77b4; stroke-opacity: 0.8"/>
     <use xlink:href="#m0f5bb408cb" x="83.426896" y="489.785777" style="fill: #1f77b4; fill-opacity: 0.8; stroke: #1f77b4; stroke-opacity: 0.8"/>
     <use xlink:href="#m0f5bb408cb" x="83.426896" y="550.399389" style="fill: #1f77b4; fill-opacity: 0.8; stroke: #1f77b4; stroke-opacity: 0.8"/>
     <use xlink:href="#m0f5bb408cb" x="68.260633" y="572.677438" style="fill: #1f77b4; fill-opacity: 0.8; stroke: #1f77b4; stroke-opacity: 0.8"/>
     <use xlink:href="#m0f5bb408cb" x="83.426896" y="551.743352" style="fill: #1f77b4; fill-opacity: 0.8; stroke: #1f77b4; stroke-opacity: 0.8"/>
     <use xlink:href="#m0f5bb408cb" x="83.426896" y="470.864449" style="fill: #1f77b4; fill-opacity: 0.8; stroke: #1f77b4; stroke-opacity: 0.8"/>
     <use xlink:href="#m0f5bb408cb" x="204.580104" y="472.687224" style="fill: #1f77b4; fill-opacity: 0.8; stroke: #1f77b4; stroke-opacity: 0.8"/>
     <use xlink:href="#m0f5bb408cb" x="204.580104" y="467.22264" style="fill: #1f77b4; fill-opacity: 0.8; stroke: #1f77b4; stroke-opacity: 0.8"/>
     <use xlink:href="#m0f5bb408cb" x="204.580104" y="533.971875" style="fill: #1f77b4; fill-opacity: 0.8; stroke: #1f77b4; stroke-opacity: 0.8"/>
     <use xlink:href="#m0f5bb408cb" x="430.598295" y="522.58029" style="fill: #1f77b4; fill-opacity: 0.8; stroke: #1f77b4; stroke-opacity: 0.8"/>
     <use xlink:href="#m0f5bb408cb" x="189.039854" y="449.645306" style="fill: #1f77b4; fill-opacity: 0.8; stroke: #1f77b4; stroke-opacity: 0.8"/>
     <use xlink:href="#m0f5bb408cb" x="83.426896" y="445.798211" style="fill: #1f77b4; fill-opacity: 0.8; stroke: #1f77b4; stroke-opacity: 0.8"/>
     <use xlink:href="#m0f5bb408cb" x="325.359325" y="498.093691" style="fill: #1f77b4; fill-opacity: 0.8; stroke: #1f77b4; stroke-opacity: 0.8"/>
     <use xlink:href="#m0f5bb408cb" x="309.819075" y="509.931308" style="fill: #1f77b4; fill-opacity: 0.8; stroke: #1f77b4; stroke-opacity: 0.8"/>
    </g>
   </g>
   <g id="PolyCollection_3">
    <path d="M 68.260633 500.746369 
L 68.260633 556.080568 
L 71.92061 555.187237 
L 75.580586 554.065306 
L 79.240562 552.47405 
L 82.900539 551.86397 
L 86.560515 551.35983 
L 90.220491 550.522301 
L 93.880468 549.820633 
L 97.540444 548.819447 
L 101.200421 548.032637 
L 104.860397 547.047099 
L 108.520373 546.214463 
L 112.18035 545.353144 
L 115.840326 544.198537 
L 119.500303 543.489076 
L 123.160279 542.531665 
L 126.820255 541.823168 
L 130.480232 540.893933 
L 134.140208 540.225183 
L 137.800184 539.359077 
L 141.460161 538.73646 
L 145.120137 538.111226 
L 148.780114 537.480866 
L 152.44009 537.083715 
L 156.100066 536.511231 
L 159.760043 536.047359 
L 163.420019 535.41844 
L 167.079996 534.699701 
L 170.739972 533.729128 
L 174.399948 533.132364 
L 178.059925 532.559365 
L 181.719901 532.066664 
L 185.379878 531.811114 
L 189.039854 531.554409 
L 192.69983 531.297704 
L 196.359807 530.675361 
L 200.019783 530.004686 
L 203.679759 529.574971 
L 207.339736 529.168538 
L 210.999712 528.759666 
L 214.659689 528.104465 
L 218.319665 527.830121 
L 221.979641 527.373143 
L 225.639618 526.846489 
L 229.299594 526.403973 
L 232.959571 525.832983 
L 236.619547 525.363535 
L 240.279523 525.137159 
L 243.9395 524.966597 
L 247.599476 524.611545 
L 251.259452 524.267957 
L 254.919429 523.860976 
L 258.579405 523.240666 
L 262.239382 522.404519 
L 265.899358 521.725837 
L 269.559334 521.655007 
L 273.219311 521.172493 
L 276.879287 520.625757 
L 280.539264 520.380747 
L 284.19924 520.436416 
L 287.859216 520.180681 
L 291.519193 519.777646 
L 295.179169 519.488381 
L 298.839146 519.394826 
L 302.499122 519.052747 
L 306.159098 518.908635 
L 309.819075 518.569167 
L 313.479051 518.147341 
L 317.139027 517.725515 
L 320.799004 517.542496 
L 324.45898 517.49428 
L 328.118957 517.444633 
L 331.778933 517.398216 
L 335.438909 517.31072 
L 339.098886 516.995675 
L 342.758862 516.613376 
L 346.418839 516.262322 
L 350.078815 515.869984 
L 353.738791 515.72206 
L 357.398768 515.633442 
L 361.058744 515.571563 
L 364.71872 515.358741 
L 368.378697 515.230385 
L 372.038673 515.136869 
L 375.69865 515.165915 
L 379.358626 514.859262 
L 383.018602 514.876207 
L 386.678579 514.855589 
L 390.338555 514.882095 
L 393.998532 514.729084 
L 397.658508 514.761036 
L 401.318484 514.95236 
L 404.978461 514.994341 
L 408.638437 514.824435 
L 412.298414 514.601273 
L 415.95839 514.377472 
L 419.618366 514.15367 
L 423.278343 513.929869 
L 426.938319 513.706067 
L 430.598295 513.558794 
L 430.598295 371.454545 
L 430.598295 371.454545 
L 426.938319 373.148371 
L 423.278343 374.853963 
L 419.618366 376.589953 
L 415.95839 378.325944 
L 412.298414 380.061934 
L 408.638437 381.797924 
L 404.978461 383.533914 
L 401.318484 385.269904 
L 397.658508 387.005894 
L 393.998532 388.741885 
L 390.338555 390.477875 
L 386.678579 392.213865 
L 383.018602 393.949855 
L 379.358626 395.685845 
L 375.69865 397.421835 
L 372.038673 399.157826 
L 368.378697 400.897714 
L 364.71872 402.637856 
L 361.058744 404.377998 
L 357.398768 406.11814 
L 353.738791 407.858282 
L 350.078815 409.680342 
L 346.418839 411.536086 
L 342.758862 413.39183 
L 339.098886 415.247573 
L 335.438909 417.103317 
L 331.778933 418.959061 
L 328.118957 420.814804 
L 324.45898 422.670548 
L 320.799004 424.526292 
L 317.139027 426.382035 
L 313.479051 428.237779 
L 309.819075 430.093523 
L 306.159098 431.949267 
L 302.499122 433.80501 
L 298.839146 435.660754 
L 295.179169 437.516498 
L 291.519193 439.091228 
L 287.859216 440.59951 
L 284.19924 442.107791 
L 280.539264 443.616073 
L 276.879287 445.124354 
L 273.219311 446.632636 
L 269.559334 448.140917 
L 265.899358 449.649199 
L 262.239382 451.283351 
L 258.579405 453.014583 
L 254.919429 454.598097 
L 251.259452 455.871246 
L 247.599476 457.657769 
L 243.9395 459.45612 
L 240.279523 461.084884 
L 236.619547 462.900311 
L 232.959571 464.782006 
L 229.299594 466.101865 
L 225.639618 467.468276 
L 221.979641 469.242124 
L 218.319665 470.629864 
L 214.659689 472.211736 
L 210.999712 473.862404 
L 207.339736 475.580472 
L 203.679759 477.305022 
L 200.019783 478.845138 
L 196.359807 480.770224 
L 192.69983 482.189167 
L 189.039854 483.582255 
L 185.379878 484.863913 
L 181.719901 486.366382 
L 178.059925 487.626562 
L 174.399948 489.151192 
L 170.739972 490.543597 
L 167.079996 491.690315 
L 163.420019 492.125883 
L 159.760043 493.11973 
L 156.100066 493.594962 
L 152.44009 494.479525 
L 148.780114 494.664742 
L 145.120137 495.628487 
L 141.460161 495.843369 
L 137.800184 496.175951 
L 134.140208 496.846301 
L 130.480232 497.658441 
L 126.820255 497.933166 
L 123.160279 497.945067 
L 119.500303 498.37923 
L 115.840326 498.637221 
L 112.18035 499.384398 
L 108.520373 499.937128 
L 104.860397 500.303236 
L 101.200421 500.175027 
L 97.540444 500.404959 
L 93.880468 500.43152 
L 90.220491 500.683518 
L 86.560515 501.018091 
L 82.900539 500.896153 
L 79.240562 500.695404 
L 75.580586 500.596457 
L 71.92061 500.593504 
L 68.260633 500.746369 
z
" clip-path="url(#p86e3c7e4c2)" style="fill: #ffa500; fill-opacity: 0.15"/>
   </g>
   <g id="matplotlib.axis_5">
    <g id="xtick_11">
     <g id="line2d_25">
      <g>
       <use xlink:href="#m92122b1e1a" x="109.418459" y="612" style="stroke: #000000; stroke-width: 0.8"/>
      </g>
     </g>
     <g id="text_26">
      <!-- 0.04 -->
      <g transform="translate(98.285647 626.598437) scale(0.1 -0.1)">
       <use xlink:href="#DejaVuSans-30"/>
       <use xlink:href="#DejaVuSans-2e" x="63.623047"/>
       <use xlink:href="#DejaVuSans-30" x="95.410156"/>
       <use xlink:href="#DejaVuSans-34" x="159.033203"/>
      </g>
     </g>
    </g>
    <g id="xtick_12">
     <g id="line2d_26">
      <g>
       <use xlink:href="#m92122b1e1a" x="190.386983" y="612" style="stroke: #000000; stroke-width: 0.8"/>
      </g>
     </g>
     <g id="text_27">
      <!-- 0.06 -->
      <g transform="translate(179.25417 626.598437) scale(0.1 -0.1)">
       <use xlink:href="#DejaVuSans-30"/>
       <use xlink:href="#DejaVuSans-2e" x="63.623047"/>
       <use xlink:href="#DejaVuSans-30" x="95.410156"/>
       <use xlink:href="#DejaVuSans-36" x="159.033203"/>
      </g>
     </g>
    </g>
    <g id="xtick_13">
     <g id="line2d_27">
      <g>
       <use xlink:href="#m92122b1e1a" x="271.355506" y="612" style="stroke: #000000; stroke-width: 0.8"/>
      </g>
     </g>
     <g id="text_28">
      <!-- 0.08 -->
      <g transform="translate(260.222693 626.598437) scale(0.1 -0.1)">
       <use xlink:href="#DejaVuSans-30"/>
       <use xlink:href="#DejaVuSans-2e" x="63.623047"/>
       <use xlink:href="#DejaVuSans-30" x="95.410156"/>
       <use xlink:href="#DejaVuSans-38" x="159.033203"/>
      </g>
     </g>
    </g>
    <g id="xtick_14">
     <g id="line2d_28">
      <g>
       <use xlink:href="#m92122b1e1a" x="352.324029" y="612" style="stroke: #000000; stroke-width: 0.8"/>
      </g>
     </g>
     <g id="text_29">
      <!-- 0.10 -->
      <g transform="translate(341.191217 626.598437) scale(0.1 -0.1)">
       <use xlink:href="#DejaVuSans-30"/>
       <use xlink:href="#DejaVuSans-2e" x="63.623047"/>
       <use xlink:href="#DejaVuSans-31" x="95.410156"/>
       <use xlink:href="#DejaVuSans-30" x="159.033203"/>
      </g>
     </g>
    </g>
    <g id="xtick_15">
     <g id="line2d_29">
      <g>
       <use xlink:href="#m92122b1e1a" x="433.292553" y="612" style="stroke: #000000; stroke-width: 0.8"/>
      </g>
     </g>
     <g id="text_30">
      <!-- 0.12 -->
      <g transform="translate(422.15974 626.598437) scale(0.1 -0.1)">
       <use xlink:href="#DejaVuSans-30"/>
       <use xlink:href="#DejaVuSans-2e" x="63.623047"/>
       <use xlink:href="#DejaVuSans-31" x="95.410156"/>
       <use xlink:href="#DejaVuSans-32" x="159.033203"/>
      </g>
     </g>
    </g>
    <g id="text_31">
     <!-- Codon+GC -->
     <g transform="translate(221.920871 640.276562) scale(0.1 -0.1)">
      <defs>
       <path id="DejaVuSans-47" d="M 3809 666 
L 3809 1919 
L 2778 1919 
L 2778 2438 
L 4434 2438 
L 4434 434 
Q 4069 175 3628 42 
Q 3188 -91 2688 -91 
Q 1594 -91 976 548 
Q 359 1188 359 2328 
Q 359 3472 976 4111 
Q 1594 4750 2688 4750 
Q 3144 4750 3555 4637 
Q 3966 4525 4313 4306 
L 4313 3634 
Q 3963 3931 3569 4081 
Q 3175 4231 2741 4231 
Q 1884 4231 1454 3753 
Q 1025 3275 1025 2328 
Q 1025 1384 1454 906 
Q 1884 428 2741 428 
Q 3075 428 3337 486 
Q 3600 544 3809 666 
z
" transform="scale(0.015625)"/>
      </defs>
      <use xlink:href="#DejaVuSans-43"/>
      <use xlink:href="#DejaVuSans-6f" x="69.824219"/>
      <use xlink:href="#DejaVuSans-64" x="131.005859"/>
      <use xlink:href="#DejaVuSans-6f" x="194.482422"/>
      <use xlink:href="#DejaVuSans-6e" x="255.664062"/>
      <use xlink:href="#DejaVuSans-2b" x="319.042969"/>
      <use xlink:href="#DejaVuSans-47" x="402.832031"/>
      <use xlink:href="#DejaVuSans-43" x="480.322266"/>
     </g>
    </g>
   </g>
   <g id="matplotlib.axis_6">
    <g id="ytick_13">
     <g id="line2d_30">
      <g>
       <use xlink:href="#m0a95e7a5e9" x="50.14375" y="577.560122" style="stroke: #000000; stroke-width: 0.8"/>
      </g>
     </g>
     <g id="text_32">
      <!-- 0.02 -->
      <g transform="translate(20.878125 581.359341) scale(0.1 -0.1)">
       <use xlink:href="#DejaVuSans-30"/>
       <use xlink:href="#DejaVuSans-2e" x="63.623047"/>
       <use xlink:href="#DejaVuSans-30" x="95.410156"/>
       <use xlink:href="#DejaVuSans-32" x="159.033203"/>
      </g>
     </g>
    </g>
    <g id="ytick_14">
     <g id="line2d_31">
      <g>
       <use xlink:href="#m0a95e7a5e9" x="50.14375" y="538.849993" style="stroke: #000000; stroke-width: 0.8"/>
      </g>
     </g>
     <g id="text_33">
      <!-- 0.04 -->
      <g transform="translate(20.878125 542.649212) scale(0.1 -0.1)">
       <use xlink:href="#DejaVuSans-30"/>
       <use xlink:href="#DejaVuSans-2e" x="63.623047"/>
       <use xlink:href="#DejaVuSans-30" x="95.410156"/>
       <use xlink:href="#DejaVuSans-34" x="159.033203"/>
      </g>
     </g>
    </g>
    <g id="ytick_15">
     <g id="line2d_32">
      <g>
       <use xlink:href="#m0a95e7a5e9" x="50.14375" y="500.139865" style="stroke: #000000; stroke-width: 0.8"/>
      </g>
     </g>
     <g id="text_34">
      <!-- 0.06 -->
      <g transform="translate(20.878125 503.939083) scale(0.1 -0.1)">
       <use xlink:href="#DejaVuSans-30"/>
       <use xlink:href="#DejaVuSans-2e" x="63.623047"/>
       <use xlink:href="#DejaVuSans-30" x="95.410156"/>
       <use xlink:href="#DejaVuSans-36" x="159.033203"/>
      </g>
     </g>
    </g>
    <g id="ytick_16">
     <g id="line2d_33">
      <g>
       <use xlink:href="#m0a95e7a5e9" x="50.14375" y="461.429736" style="stroke: #000000; stroke-width: 0.8"/>
      </g>
     </g>
     <g id="text_35">
      <!-- 0.08 -->
      <g transform="translate(20.878125 465.228955) scale(0.1 -0.1)">
       <use xlink:href="#DejaVuSans-30"/>
       <use xlink:href="#DejaVuSans-2e" x="63.623047"/>
       <use xlink:href="#DejaVuSans-30" x="95.410156"/>
       <use xlink:href="#DejaVuSans-38" x="159.033203"/>
      </g>
     </g>
    </g>
    <g id="ytick_17">
     <g id="line2d_34">
      <g>
       <use xlink:href="#m0a95e7a5e9" x="50.14375" y="422.719608" style="stroke: #000000; stroke-width: 0.8"/>
      </g>
     </g>
     <g id="text_36">
      <!-- 0.10 -->
      <g transform="translate(20.878125 426.518826) scale(0.1 -0.1)">
       <use xlink:href="#DejaVuSans-30"/>
       <use xlink:href="#DejaVuSans-2e" x="63.623047"/>
       <use xlink:href="#DejaVuSans-31" x="95.410156"/>
       <use xlink:href="#DejaVuSans-30" x="159.033203"/>
      </g>
     </g>
    </g>
    <g id="ytick_18">
     <g id="line2d_35">
      <g>
       <use xlink:href="#m0a95e7a5e9" x="50.14375" y="384.009479" style="stroke: #000000; stroke-width: 0.8"/>
      </g>
     </g>
     <g id="text_37">
      <!-- 0.12 -->
      <g transform="translate(20.878125 387.808698) scale(0.1 -0.1)">
       <use xlink:href="#DejaVuSans-30"/>
       <use xlink:href="#DejaVuSans-2e" x="63.623047"/>
       <use xlink:href="#DejaVuSans-31" x="95.410156"/>
       <use xlink:href="#DejaVuSans-32" x="159.033203"/>
      </g>
     </g>
    </g>
    <g id="text_38">
     <!-- Amino acid frequency -->
     <g transform="translate(14.798438 540.539062) rotate(-90) scale(0.1 -0.1)">
      <use xlink:href="#DejaVuSans-41"/>
      <use xlink:href="#DejaVuSans-6d" x="68.408203"/>
      <use xlink:href="#DejaVuSans-69" x="165.820312"/>
      <use xlink:href="#DejaVuSans-6e" x="193.603516"/>
      <use xlink:href="#DejaVuSans-6f" x="256.982422"/>
      <use xlink:href="#DejaVuSans-20" x="318.164062"/>
      <use xlink:href="#DejaVuSans-61" x="349.951172"/>
      <use xlink:href="#DejaVuSans-63" x="411.230469"/>
      <use xlink:href="#DejaVuSans-69" x="466.210938"/>
      <use xlink:href="#DejaVuSans-64" x="493.994141"/>
      <use xlink:href="#DejaVuSans-20" x="557.470703"/>
      <use xlink:href="#DejaVuSans-66" x="589.257812"/>
      <use xlink:href="#DejaVuSans-72" x="624.462891"/>
      <use xlink:href="#DejaVuSans-65" x="663.326172"/>
      <use xlink:href="#DejaVuSans-71" x="724.849609"/>
      <use xlink:href="#DejaVuSans-75" x="788.326172"/>
      <use xlink:href="#DejaVuSans-65" x="851.705078"/>
      <use xlink:href="#DejaVuSans-6e" x="913.228516"/>
      <use xlink:href="#DejaVuSans-63" x="976.607422"/>
      <use xlink:href="#DejaVuSans-79" x="1031.587891"/>
     </g>
    </g>
   </g>
   <g id="line2d_36">
    <path d="M 68.260633 528.771343 
L 71.92061 528.317718 
L 75.580586 527.864093 
L 79.240562 527.410469 
L 82.900539 526.956844 
L 86.560515 526.503219 
L 90.220491 526.049595 
L 93.880468 525.59597 
L 97.540444 525.142345 
L 101.200421 524.688721 
L 104.860397 524.235096 
L 108.520373 523.781471 
L 112.18035 523.327846 
L 115.840326 522.874222 
L 119.500303 522.420597 
L 123.160279 521.966972 
L 126.820255 521.513348 
L 130.480232 521.059723 
L 134.140208 520.606098 
L 137.800184 520.152474 
L 141.460161 519.698849 
L 145.120137 519.245224 
L 148.780114 518.7916 
L 152.44009 518.337975 
L 156.100066 517.88435 
L 159.760043 517.430725 
L 163.420019 516.977101 
L 167.079996 516.523476 
L 170.739972 516.069851 
L 174.399948 515.616227 
L 178.059925 515.162602 
L 181.719901 514.708977 
L 185.379878 514.255353 
L 189.039854 513.801728 
L 192.69983 513.348103 
L 196.359807 512.894479 
L 200.019783 512.440854 
L 203.679759 511.987229 
L 207.339736 511.533604 
L 210.999712 511.07998 
L 214.659689 510.626355 
L 218.319665 510.17273 
L 221.979641 509.719106 
L 225.639618 509.265481 
L 229.299594 508.811856 
L 232.959571 508.358232 
L 236.619547 507.904607 
L 240.279523 507.450982 
L 243.9395 506.997357 
L 247.599476 506.543733 
L 251.259452 506.090108 
L 254.919429 505.636483 
L 258.579405 505.182859 
L 262.239382 504.729234 
L 265.899358 504.275609 
L 269.559334 503.821985 
L 273.219311 503.36836 
L 276.879287 502.914735 
L 280.539264 502.461111 
L 284.19924 502.007486 
L 287.859216 501.553861 
L 291.519193 501.100236 
L 295.179169 500.646612 
L 298.839146 500.192987 
L 302.499122 499.739362 
L 306.159098 499.285738 
L 309.819075 498.832113 
L 313.479051 498.378488 
L 317.139027 497.924864 
L 320.799004 497.471239 
L 324.45898 497.017614 
L 328.118957 496.56399 
L 331.778933 496.110365 
L 335.438909 495.65674 
L 339.098886 495.203115 
L 342.758862 494.749491 
L 346.418839 494.295866 
L 350.078815 493.842241 
L 353.738791 493.388617 
L 357.398768 492.934992 
L 361.058744 492.481367 
L 364.71872 492.027743 
L 368.378697 491.574118 
L 372.038673 491.120493 
L 375.69865 490.666869 
L 379.358626 490.213244 
L 383.018602 489.759619 
L 386.678579 489.305994 
L 390.338555 488.85237 
L 393.998532 488.398745 
L 397.658508 487.94512 
L 401.318484 487.491496 
L 404.978461 487.037871 
L 408.638437 486.584246 
L 412.298414 486.130622 
L 415.95839 485.676997 
L 419.618366 485.223372 
L 423.278343 484.769748 
L 426.938319 484.316123 
L 430.598295 483.862498 
" clip-path="url(#p86e3c7e4c2)" style="fill: none; stroke: #ffa500; stroke-width: 2.25; stroke-linecap: square"/>
   </g>
   <g id="patch_13">
    <path d="M 50.14375 612 
L 50.14375 360 
" style="fill: none; stroke: #000000; stroke-width: 0.8; stroke-linejoin: miter; stroke-linecap: square"/>
   </g>
   <g id="patch_14">
    <path d="M 448.715179 612 
L 448.715179 360 
" style="fill: none; stroke: #000000; stroke-width: 0.8; stroke-linejoin: miter; stroke-linecap: square"/>
   </g>
   <g id="patch_15">
    <path d="M 50.14375 612 
L 448.715179 612 
" style="fill: none; stroke: #000000; stroke-width: 0.8; stroke-linejoin: miter; stroke-linecap: square"/>
   </g>
   <g id="patch_16">
    <path d="M 50.14375 360 
L 448.715179 360 
" style="fill: none; stroke: #000000; stroke-width: 0.8; stroke-linejoin: miter; stroke-linecap: square"/>
   </g>
  </g>
  <g id="axes_4">
   <g id="patch_17">
    <path d="M 488.572321 612 
L 887.14375 612 
L 887.14375 360 
L 488.572321 360 
z
" style="fill: #ffffff"/>
   </g>
   <g id="PathCollection_4">
    <g clip-path="url(#p6c32b56f8a)">
     <use xlink:href="#m0f5bb408cb" x="522.657911" y="563.169201" style="fill: #1f77b4; fill-opacity: 0.8; stroke: #1f77b4; stroke-opacity: 0.8"/>
     <use xlink:href="#m0f5bb408cb" x="506.689205" y="600.545455" style="fill: #1f77b4; fill-opacity: 0.8; stroke: #1f77b4; stroke-opacity: 0.8"/>
     <use xlink:href="#m0f5bb408cb" x="506.689205" y="595.941295" style="fill: #1f77b4; fill-opacity: 0.8; stroke: #1f77b4; stroke-opacity: 0.8"/>
     <use xlink:href="#m0f5bb408cb" x="506.689205" y="481.085086" style="fill: #1f77b4; fill-opacity: 0.8; stroke: #1f77b4; stroke-opacity: 0.8"/>
     <use xlink:href="#m0f5bb408cb" x="506.689205" y="440.08217" style="fill: #1f77b4; fill-opacity: 0.8; stroke: #1f77b4; stroke-opacity: 0.8"/>
     <use xlink:href="#m0f5bb408cb" x="522.657911" y="550.341993" style="fill: #1f77b4; fill-opacity: 0.8; stroke: #1f77b4; stroke-opacity: 0.8"/>
     <use xlink:href="#m0f5bb408cb" x="506.689205" y="577.672957" style="fill: #1f77b4; fill-opacity: 0.8; stroke: #1f77b4; stroke-opacity: 0.8"/>
     <use xlink:href="#m0f5bb408cb" x="522.657911" y="475.308449" style="fill: #1f77b4; fill-opacity: 0.8; stroke: #1f77b4; stroke-opacity: 0.8"/>
     <use xlink:href="#m0f5bb408cb" x="522.657911" y="543.844827" style="fill: #1f77b4; fill-opacity: 0.8; stroke: #1f77b4; stroke-opacity: 0.8"/>
     <use xlink:href="#m0f5bb408cb" x="506.689205" y="569.034827" style="fill: #1f77b4; fill-opacity: 0.8; stroke: #1f77b4; stroke-opacity: 0.8"/>
     <use xlink:href="#m0f5bb408cb" x="522.657911" y="545.364459" style="fill: #1f77b4; fill-opacity: 0.8; stroke: #1f77b4; stroke-opacity: 0.8"/>
     <use xlink:href="#m0f5bb408cb" x="522.657911" y="453.913925" style="fill: #1f77b4; fill-opacity: 0.8; stroke: #1f77b4; stroke-opacity: 0.8"/>
     <use xlink:href="#m0f5bb408cb" x="641.59131" y="455.974954" style="fill: #1f77b4; fill-opacity: 0.8; stroke: #1f77b4; stroke-opacity: 0.8"/>
     <use xlink:href="#m0f5bb408cb" x="641.59131" y="449.796097" style="fill: #1f77b4; fill-opacity: 0.8; stroke: #1f77b4; stroke-opacity: 0.8"/>
     <use xlink:href="#m0f5bb408cb" x="641.59131" y="525.270084" style="fill: #1f77b4; fill-opacity: 0.8; stroke: #1f77b4; stroke-opacity: 0.8"/>
     <use xlink:href="#m0f5bb408cb" x="869.026867" y="512.389512" style="fill: #1f77b4; fill-opacity: 0.8; stroke: #1f77b4; stroke-opacity: 0.8"/>
     <use xlink:href="#m0f5bb408cb" x="627.468425" y="429.921242" style="fill: #1f77b4; fill-opacity: 0.8; stroke: #1f77b4; stroke-opacity: 0.8"/>
     <use xlink:href="#m0f5bb408cb" x="522.657911" y="425.571295" style="fill: #1f77b4; fill-opacity: 0.8; stroke: #1f77b4; stroke-opacity: 0.8"/>
     <use xlink:href="#m0f5bb408cb" x="762.370531" y="484.702285" style="fill: #1f77b4; fill-opacity: 0.8; stroke: #1f77b4; stroke-opacity: 0.8"/>
     <use xlink:href="#m0f5bb408cb" x="748.247646" y="498.087189" style="fill: #1f77b4; fill-opacity: 0.8; stroke: #1f77b4; stroke-opacity: 0.8"/>
    </g>
   </g>
   <g id="PolyCollection_4">
    <path d="M 506.689205 487.859116 
L 506.689205 550.807498 
L 510.349181 549.894377 
L 514.009157 548.983906 
L 517.669134 547.608907 
L 521.32911 546.695625 
L 524.989086 545.769404 
L 528.649063 544.760989 
L 532.309039 543.437888 
L 535.969016 542.602669 
L 539.628992 541.841839 
L 543.288968 541.212498 
L 546.948945 540.309967 
L 550.608921 539.456644 
L 554.268898 538.529829 
L 557.928874 537.674263 
L 561.58885 537.027571 
L 565.248827 536.26104 
L 568.908803 535.697087 
L 572.56878 534.640773 
L 576.228756 533.833596 
L 579.888732 533.093217 
L 583.548709 532.53628 
L 587.208685 531.88015 
L 590.868661 531.305876 
L 594.528638 530.636753 
L 598.188614 529.970012 
L 601.848591 529.321175 
L 605.508567 528.637831 
L 609.168543 527.968713 
L 612.82852 527.011902 
L 616.488496 526.275309 
L 620.148473 525.57821 
L 623.808449 524.814237 
L 627.468425 524.17324 
L 631.128402 523.619292 
L 634.788378 523.071172 
L 638.448354 522.523053 
L 642.108331 521.926003 
L 645.768307 520.940546 
L 649.428284 520.418621 
L 653.08826 519.799711 
L 656.748236 519.228839 
L 660.408213 518.794866 
L 664.068189 518.258964 
L 667.728166 517.64267 
L 671.388142 517.271297 
L 675.048118 516.787453 
L 678.708095 516.083954 
L 682.368071 515.399412 
L 686.028048 515.099796 
L 689.688024 514.715488 
L 693.348 514.196955 
L 697.007977 513.507877 
L 700.667953 513.033251 
L 704.327929 512.5956 
L 707.987906 512.12278 
L 711.647882 511.595455 
L 715.307859 511.049851 
L 718.967835 510.572177 
L 722.627811 510.358005 
L 726.287788 510.21704 
L 729.947764 509.954343 
L 733.607741 509.694679 
L 737.267717 509.396348 
L 740.927693 509.061304 
L 744.58767 508.89771 
L 748.247646 508.475547 
L 751.907622 507.919566 
L 755.567599 507.363586 
L 759.227575 506.903225 
L 762.887552 506.453633 
L 766.547528 506.064771 
L 770.207504 505.979263 
L 773.867481 505.522427 
L 777.527457 505.155615 
L 781.187434 504.937991 
L 784.84741 504.820576 
L 788.507386 504.615966 
L 792.167363 504.391019 
L 795.827339 504.05782 
L 799.487316 504.065838 
L 803.147292 503.849041 
L 806.807268 503.626728 
L 810.467245 503.434658 
L 814.127221 503.23658 
L 817.787197 502.803462 
L 821.447174 502.673064 
L 825.10715 502.644964 
L 828.767127 502.473895 
L 832.427103 502.278648 
L 836.087079 501.943899 
L 839.747056 501.896809 
L 843.407032 501.705286 
L 847.067009 501.489259 
L 850.726985 501.321088 
L 854.386961 501.320601 
L 858.046938 501.148762 
L 861.706914 501.044978 
L 865.36689 501.147224 
L 869.026867 501.119059 
L 869.026867 371.454545 
L 869.026867 371.454545 
L 865.36689 372.99844 
L 861.706914 374.579768 
L 858.046938 376.363549 
L 854.386961 378.14733 
L 850.726985 379.931111 
L 847.067009 381.714892 
L 843.407032 383.429468 
L 839.747056 384.780178 
L 836.087079 386.130889 
L 832.427103 387.4816 
L 828.767127 388.83231 
L 825.10715 390.183021 
L 821.447174 391.533731 
L 817.787197 392.989568 
L 814.127221 394.522358 
L 810.467245 396.055149 
L 806.807268 397.587939 
L 803.147292 399.120729 
L 799.487316 400.65352 
L 795.827339 402.193277 
L 792.167363 403.733466 
L 788.507386 405.273655 
L 784.84741 406.813844 
L 781.187434 408.357755 
L 777.527457 409.903703 
L 773.867481 411.68117 
L 770.207504 412.98083 
L 766.547528 414.514787 
L 762.887552 416.054976 
L 759.227575 417.652873 
L 755.567599 419.292118 
L 751.907622 420.933933 
L 748.247646 422.578827 
L 744.58767 424.296815 
L 740.927693 426.057328 
L 737.267717 427.817841 
L 733.607741 429.578354 
L 729.947764 431.338867 
L 726.287788 432.925031 
L 722.627811 434.262948 
L 718.967835 435.950844 
L 715.307859 437.767585 
L 711.647882 439.521502 
L 707.987906 440.654556 
L 704.327929 442.272216 
L 700.667953 443.917292 
L 697.007977 445.562369 
L 693.348 447.207446 
L 689.688024 448.845031 
L 686.028048 450.184078 
L 682.368071 451.470103 
L 678.708095 452.867961 
L 675.048118 454.265819 
L 671.388142 455.672993 
L 667.728166 457.113394 
L 664.068189 459.219739 
L 660.408213 461.268186 
L 656.748236 463.150993 
L 653.08826 464.19012 
L 649.428284 465.459663 
L 645.768307 466.909746 
L 642.108331 468.353677 
L 638.448354 469.695872 
L 634.788378 470.266334 
L 631.128402 471.529056 
L 627.468425 472.672674 
L 623.808449 473.888991 
L 620.148473 475.278226 
L 616.488496 476.241592 
L 612.82852 476.827789 
L 609.168543 476.824506 
L 605.508567 477.780359 
L 601.848591 479.113003 
L 598.188614 480.384068 
L 594.528638 481.92307 
L 590.868661 482.654957 
L 587.208685 482.975299 
L 583.548709 483.387205 
L 579.888732 484.362986 
L 576.228756 484.526633 
L 572.56878 484.674964 
L 568.908803 484.993272 
L 565.248827 485.262707 
L 561.58885 486.150268 
L 557.928874 486.568825 
L 554.268898 486.47138 
L 550.608921 486.91146 
L 546.948945 487.192685 
L 543.288968 487.446381 
L 539.628992 487.294452 
L 535.969016 487.237276 
L 532.309039 487.442764 
L 528.649063 487.543947 
L 524.989086 487.690299 
L 521.32911 487.836337 
L 517.669134 487.94858 
L 514.009157 487.837859 
L 510.349181 487.727138 
L 506.689205 487.859116 
z
" clip-path="url(#p6c32b56f8a)" style="fill: #ffa500; fill-opacity: 0.15"/>
   </g>
   <g id="matplotlib.axis_7">
    <g id="xtick_16">
     <g id="line2d_37">
      <g>
       <use xlink:href="#m92122b1e1a" x="542.407117" y="612" style="stroke: #000000; stroke-width: 0.8"/>
      </g>
     </g>
     <g id="text_39">
      <!-- 0.04 -->
      <g transform="translate(531.274304 626.598437) scale(0.1 -0.1)">
       <use xlink:href="#DejaVuSans-30"/>
       <use xlink:href="#DejaVuSans-2e" x="63.623047"/>
       <use xlink:href="#DejaVuSans-30" x="95.410156"/>
       <use xlink:href="#DejaVuSans-34" x="159.033203"/>
      </g>
     </g>
    </g>
    <g id="xtick_17">
     <g id="line2d_38">
      <g>
       <use xlink:href="#m92122b1e1a" x="620.655684" y="612" style="stroke: #000000; stroke-width: 0.8"/>
      </g>
     </g>
     <g id="text_40">
      <!-- 0.06 -->
      <g transform="translate(609.522871 626.598437) scale(0.1 -0.1)">
       <use xlink:href="#DejaVuSans-30"/>
       <use xlink:href="#DejaVuSans-2e" x="63.623047"/>
       <use xlink:href="#DejaVuSans-30" x="95.410156"/>
       <use xlink:href="#DejaVuSans-36" x="159.033203"/>
      </g>
     </g>
    </g>
    <g id="xtick_18">
     <g id="line2d_39">
      <g>
       <use xlink:href="#m92122b1e1a" x="698.90425" y="612" style="stroke: #000000; stroke-width: 0.8"/>
      </g>
     </g>
     <g id="text_41">
      <!-- 0.08 -->
      <g transform="translate(687.771438 626.598437) scale(0.1 -0.1)">
       <use xlink:href="#DejaVuSans-30"/>
       <use xlink:href="#DejaVuSans-2e" x="63.623047"/>
       <use xlink:href="#DejaVuSans-30" x="95.410156"/>
       <use xlink:href="#DejaVuSans-38" x="159.033203"/>
      </g>
     </g>
    </g>
    <g id="xtick_19">
     <g id="line2d_40">
      <g>
       <use xlink:href="#m92122b1e1a" x="777.152817" y="612" style="stroke: #000000; stroke-width: 0.8"/>
      </g>
     </g>
     <g id="text_42">
      <!-- 0.10 -->
      <g transform="translate(766.020004 626.598437) scale(0.1 -0.1)">
       <use xlink:href="#DejaVuSans-30"/>
       <use xlink:href="#DejaVuSans-2e" x="63.623047"/>
       <use xlink:href="#DejaVuSans-31" x="95.410156"/>
       <use xlink:href="#DejaVuSans-30" x="159.033203"/>
      </g>
     </g>
    </g>
    <g id="xtick_20">
     <g id="line2d_41">
      <g>
       <use xlink:href="#m92122b1e1a" x="855.401383" y="612" style="stroke: #000000; stroke-width: 0.8"/>
      </g>
     </g>
     <g id="text_43">
      <!-- 0.12 -->
      <g transform="translate(844.268571 626.598437) scale(0.1 -0.1)">
       <use xlink:href="#DejaVuSans-30"/>
       <use xlink:href="#DejaVuSans-2e" x="63.623047"/>
       <use xlink:href="#DejaVuSans-31" x="95.410156"/>
       <use xlink:href="#DejaVuSans-32" x="159.033203"/>
      </g>
     </g>
    </g>
    <g id="text_44">
     <!-- Codon+GC+Cost -->
     <g transform="translate(645.043973 640.276562) scale(0.1 -0.1)">
      <use xlink:href="#DejaVuSans-43"/>
      <use xlink:href="#DejaVuSans-6f" x="69.824219"/>
      <use xlink:href="#DejaVuSans-64" x="131.005859"/>
      <use xlink:href="#DejaVuSans-6f" x="194.482422"/>
      <use xlink:href="#DejaVuSans-6e" x="255.664062"/>
      <use xlink:href="#DejaVuSans-2b" x="319.042969"/>
      <use xlink:href="#DejaVuSans-47" x="402.832031"/>
      <use xlink:href="#DejaVuSans-43" x="480.322266"/>
      <use xlink:href="#DejaVuSans-2b" x="550.146484"/>
      <use xlink:href="#DejaVuSans-43" x="633.935547"/>
      <use xlink:href="#DejaVuSans-6f" x="703.759766"/>
      <use xlink:href="#DejaVuSans-73" x="764.941406"/>
      <use xlink:href="#DejaVuSans-74" x="817.041016"/>
     </g>
    </g>
   </g>
   <g id="matplotlib.axis_8">
    <g id="ytick_19">
     <g id="line2d_42">
      <g>
       <use xlink:href="#m0a95e7a5e9" x="488.572321" y="574.555723" style="stroke: #000000; stroke-width: 0.8"/>
      </g>
     </g>
     <g id="text_45">
      <!-- 0.02 -->
      <g transform="translate(459.306696 578.354942) scale(0.1 -0.1)">
       <use xlink:href="#DejaVuSans-30"/>
       <use xlink:href="#DejaVuSans-2e" x="63.623047"/>
       <use xlink:href="#DejaVuSans-30" x="95.410156"/>
       <use xlink:href="#DejaVuSans-32" x="159.033203"/>
      </g>
     </g>
    </g>
    <g id="ytick_20">
     <g id="line2d_43">
      <g>
       <use xlink:href="#m0a95e7a5e9" x="488.572321" y="530.785818" style="stroke: #000000; stroke-width: 0.8"/>
      </g>
     </g>
     <g id="text_46">
      <!-- 0.04 -->
      <g transform="translate(459.306696 534.585036) scale(0.1 -0.1)">
       <use xlink:href="#DejaVuSans-30"/>
       <use xlink:href="#DejaVuSans-2e" x="63.623047"/>
       <use xlink:href="#DejaVuSans-30" x="95.410156"/>
       <use xlink:href="#DejaVuSans-34" x="159.033203"/>
      </g>
     </g>
    </g>
    <g id="ytick_21">
     <g id="line2d_44">
      <g>
       <use xlink:href="#m0a95e7a5e9" x="488.572321" y="487.015912" style="stroke: #000000; stroke-width: 0.8"/>
      </g>
     </g>
     <g id="text_47">
      <!-- 0.06 -->
      <g transform="translate(459.306696 490.815131) scale(0.1 -0.1)">
       <use xlink:href="#DejaVuSans-30"/>
       <use xlink:href="#DejaVuSans-2e" x="63.623047"/>
       <use xlink:href="#DejaVuSans-30" x="95.410156"/>
       <use xlink:href="#DejaVuSans-36" x="159.033203"/>
      </g>
     </g>
    </g>
    <g id="ytick_22">
     <g id="line2d_45">
      <g>
       <use xlink:href="#m0a95e7a5e9" x="488.572321" y="443.246007" style="stroke: #000000; stroke-width: 0.8"/>
      </g>
     </g>
     <g id="text_48">
      <!-- 0.08 -->
      <g transform="translate(459.306696 447.045225) scale(0.1 -0.1)">
       <use xlink:href="#DejaVuSans-30"/>
       <use xlink:href="#DejaVuSans-2e" x="63.623047"/>
       <use xlink:href="#DejaVuSans-30" x="95.410156"/>
       <use xlink:href="#DejaVuSans-38" x="159.033203"/>
      </g>
     </g>
    </g>
    <g id="ytick_23">
     <g id="line2d_46">
      <g>
       <use xlink:href="#m0a95e7a5e9" x="488.572321" y="399.476101" style="stroke: #000000; stroke-width: 0.8"/>
      </g>
     </g>
     <g id="text_49">
      <!-- 0.10 -->
      <g transform="translate(459.306696 403.27532) scale(0.1 -0.1)">
       <use xlink:href="#DejaVuSans-30"/>
       <use xlink:href="#DejaVuSans-2e" x="63.623047"/>
       <use xlink:href="#DejaVuSans-31" x="95.410156"/>
       <use xlink:href="#DejaVuSans-30" x="159.033203"/>
      </g>
     </g>
    </g>
   </g>
   <g id="line2d_47">
    <path d="M 506.689205 519.414552 
L 510.349181 518.900406 
L 514.009157 518.386259 
L 517.669134 517.872113 
L 521.32911 517.357966 
L 524.989086 516.84382 
L 528.649063 516.329674 
L 532.309039 515.815527 
L 535.969016 515.301381 
L 539.628992 514.787234 
L 543.288968 514.273088 
L 546.948945 513.758942 
L 550.608921 513.244795 
L 554.268898 512.730649 
L 557.928874 512.216502 
L 561.58885 511.702356 
L 565.248827 511.188209 
L 568.908803 510.674063 
L 572.56878 510.159917 
L 576.228756 509.64577 
L 579.888732 509.131624 
L 583.548709 508.617477 
L 587.208685 508.103331 
L 590.868661 507.589185 
L 594.528638 507.075038 
L 598.188614 506.560892 
L 601.848591 506.046745 
L 605.508567 505.532599 
L 609.168543 505.018452 
L 612.82852 504.504306 
L 616.488496 503.99016 
L 620.148473 503.476013 
L 623.808449 502.961867 
L 627.468425 502.44772 
L 631.128402 501.933574 
L 634.788378 501.419428 
L 638.448354 500.905281 
L 642.108331 500.391135 
L 645.768307 499.876988 
L 649.428284 499.362842 
L 653.08826 498.848696 
L 656.748236 498.334549 
L 660.408213 497.820403 
L 664.068189 497.306256 
L 667.728166 496.79211 
L 671.388142 496.277963 
L 675.048118 495.763817 
L 678.708095 495.249671 
L 682.368071 494.735524 
L 686.028048 494.221378 
L 689.688024 493.707231 
L 693.348 493.193085 
L 697.007977 492.678939 
L 700.667953 492.164792 
L 704.327929 491.650646 
L 707.987906 491.136499 
L 711.647882 490.622353 
L 715.307859 490.108207 
L 718.967835 489.59406 
L 722.627811 489.079914 
L 726.287788 488.565767 
L 729.947764 488.051621 
L 733.607741 487.537474 
L 737.267717 487.023328 
L 740.927693 486.509182 
L 744.58767 485.995035 
L 748.247646 485.480889 
L 751.907622 484.966742 
L 755.567599 484.452596 
L 759.227575 483.93845 
L 762.887552 483.424303 
L 766.547528 482.910157 
L 770.207504 482.39601 
L 773.867481 481.881864 
L 777.527457 481.367717 
L 781.187434 480.853571 
L 784.84741 480.339425 
L 788.507386 479.825278 
L 792.167363 479.311132 
L 795.827339 478.796985 
L 799.487316 478.282839 
L 803.147292 477.768693 
L 806.807268 477.254546 
L 810.467245 476.7404 
L 814.127221 476.226253 
L 817.787197 475.712107 
L 821.447174 475.197961 
L 825.10715 474.683814 
L 828.767127 474.169668 
L 832.427103 473.655521 
L 836.087079 473.141375 
L 839.747056 472.627228 
L 843.407032 472.113082 
L 847.067009 471.598936 
L 850.726985 471.084789 
L 854.386961 470.570643 
L 858.046938 470.056496 
L 861.706914 469.54235 
L 865.36689 469.028204 
L 869.026867 468.514057 
" clip-path="url(#p6c32b56f8a)" style="fill: none; stroke: #ffa500; stroke-width: 2.25; stroke-linecap: square"/>
   </g>
   <g id="patch_18">
    <path d="M 488.572321 612 
L 488.572321 360 
" style="fill: none; stroke: #000000; stroke-width: 0.8; stroke-linejoin: miter; stroke-linecap: square"/>
   </g>
   <g id="patch_19">
    <path d="M 887.14375 612 
L 887.14375 360 
" style="fill: none; stroke: #000000; stroke-width: 0.8; stroke-linejoin: miter; stroke-linecap: square"/>
   </g>
   <g id="patch_20">
    <path d="M 488.572321 612 
L 887.14375 612 
" style="fill: none; stroke: #000000; stroke-width: 0.8; stroke-linejoin: miter; stroke-linecap: square"/>
   </g>
   <g id="patch_21">
    <path d="M 488.572321 360 
L 887.14375 360 
" style="fill: none; stroke: #000000; stroke-width: 0.8; stroke-linejoin: miter; stroke-linecap: square"/>
   </g>
  </g>
  <g id="text_50">
   <!-- Archaea - Comparison between amino acid and factor frequencies for genetic code: Yeast mitochondrial -->
   <g transform="translate(64.417188 18.597656) scale(0.15 -0.15)">
    <defs>
     <path id="DejaVuSans-68" d="M 3513 2113 
L 3513 0 
L 2938 0 
L 2938 2094 
Q 2938 2591 2744 2837 
Q 2550 3084 2163 3084 
Q 1697 3084 1428 2787 
Q 1159 2491 1159 1978 
L 1159 0 
L 581 0 
L 581 4863 
L 1159 4863 
L 1159 2956 
Q 1366 3272 1645 3428 
Q 1925 3584 2291 3584 
Q 2894 3584 3203 3211 
Q 3513 2838 3513 2113 
z
" transform="scale(0.015625)"/>
     <path id="DejaVuSans-2d" d="M 313 2009 
L 1997 2009 
L 1997 1497 
L 313 1497 
L 313 2009 
z
" transform="scale(0.015625)"/>
     <path id="DejaVuSans-70" d="M 1159 525 
L 1159 -1331 
L 581 -1331 
L 581 3500 
L 1159 3500 
L 1159 2969 
Q 1341 3281 1617 3432 
Q 1894 3584 2278 3584 
Q 2916 3584 3314 3078 
Q 3713 2572 3713 1747 
Q 3713 922 3314 415 
Q 2916 -91 2278 -91 
Q 1894 -91 1617 61 
Q 1341 213 1159 525 
z
M 3116 1747 
Q 3116 2381 2855 2742 
Q 2594 3103 2138 3103 
Q 1681 3103 1420 2742 
Q 1159 2381 1159 1747 
Q 1159 1113 1420 752 
Q 1681 391 2138 391 
Q 2594 391 2855 752 
Q 3116 1113 3116 1747 
z
" transform="scale(0.015625)"/>
     <path id="DejaVuSans-62" d="M 3116 1747 
Q 3116 2381 2855 2742 
Q 2594 3103 2138 3103 
Q 1681 3103 1420 2742 
Q 1159 2381 1159 1747 
Q 1159 1113 1420 752 
Q 1681 391 2138 391 
Q 2594 391 2855 752 
Q 3116 1113 3116 1747 
z
M 1159 2969 
Q 1341 3281 1617 3432 
Q 1894 3584 2278 3584 
Q 2916 3584 3314 3078 
Q 3713 2572 3713 1747 
Q 3713 922 3314 415 
Q 2916 -91 2278 -91 
Q 1894 -91 1617 61 
Q 1341 213 1159 525 
L 1159 0 
L 581 0 
L 581 4863 
L 1159 4863 
L 1159 2969 
z
" transform="scale(0.015625)"/>
     <path id="DejaVuSans-77" d="M 269 3500 
L 844 3500 
L 1563 769 
L 2278 3500 
L 2956 3500 
L 3675 769 
L 4391 3500 
L 4966 3500 
L 4050 0 
L 3372 0 
L 2619 2869 
L 1863 0 
L 1184 0 
L 269 3500 
z
" transform="scale(0.015625)"/>
     <path id="DejaVuSans-67" d="M 2906 1791 
Q 2906 2416 2648 2759 
Q 2391 3103 1925 3103 
Q 1463 3103 1205 2759 
Q 947 2416 947 1791 
Q 947 1169 1205 825 
Q 1463 481 1925 481 
Q 2391 481 2648 825 
Q 2906 1169 2906 1791 
z
M 3481 434 
Q 3481 -459 3084 -895 
Q 2688 -1331 1869 -1331 
Q 1566 -1331 1297 -1286 
Q 1028 -1241 775 -1147 
L 775 -588 
Q 1028 -725 1275 -790 
Q 1522 -856 1778 -856 
Q 2344 -856 2625 -561 
Q 2906 -266 2906 331 
L 2906 616 
Q 2728 306 2450 153 
Q 2172 0 1784 0 
Q 1141 0 747 490 
Q 353 981 353 1791 
Q 353 2603 747 3093 
Q 1141 3584 1784 3584 
Q 2172 3584 2450 3431 
Q 2728 3278 2906 2969 
L 2906 3500 
L 3481 3500 
L 3481 434 
z
" transform="scale(0.015625)"/>
     <path id="DejaVuSans-3a" d="M 750 794 
L 1409 794 
L 1409 0 
L 750 0 
L 750 794 
z
M 750 3309 
L 1409 3309 
L 1409 2516 
L 750 2516 
L 750 3309 
z
" transform="scale(0.015625)"/>
     <path id="DejaVuSans-59" d="M -13 4666 
L 666 4666 
L 1959 2747 
L 3244 4666 
L 3922 4666 
L 2272 2222 
L 2272 0 
L 1638 0 
L 1638 2222 
L -13 4666 
z
" transform="scale(0.015625)"/>
     <path id="DejaVuSans-6c" d="M 603 4863 
L 1178 4863 
L 1178 0 
L 603 0 
L 603 4863 
z
" transform="scale(0.015625)"/>
    </defs>
    <use xlink:href="#DejaVuSans-41"/>
    <use xlink:href="#DejaVuSans-72" x="68.408203"/>
    <use xlink:href="#DejaVuSans-63" x="107.271484"/>
    <use xlink:href="#DejaVuSans-68" x="162.251953"/>
    <use xlink:href="#DejaVuSans-61" x="225.630859"/>
    <use xlink:href="#DejaVuSans-65" x="286.910156"/>
    <use xlink:href="#DejaVuSans-61" x="348.433594"/>
    <use xlink:href="#DejaVuSans-20" x="409.712891"/>
    <use xlink:href="#DejaVuSans-2d" x="441.5"/>
    <use xlink:href="#DejaVuSans-20" x="477.583984"/>
    <use xlink:href="#DejaVuSans-43" x="509.371094"/>
    <use xlink:href="#DejaVuSans-6f" x="579.195312"/>
    <use xlink:href="#DejaVuSans-6d" x="640.376953"/>
    <use xlink:href="#DejaVuSans-70" x="737.789062"/>
    <use xlink:href="#DejaVuSans-61" x="801.265625"/>
    <use xlink:href="#DejaVuSans-72" x="862.544922"/>
    <use xlink:href="#DejaVuSans-69" x="903.658203"/>
    <use xlink:href="#DejaVuSans-73" x="931.441406"/>
    <use xlink:href="#DejaVuSans-6f" x="983.541016"/>
    <use xlink:href="#DejaVuSans-6e" x="1044.722656"/>
    <use xlink:href="#DejaVuSans-20" x="1108.101562"/>
    <use xlink:href="#DejaVuSans-62" x="1139.888672"/>
    <use xlink:href="#DejaVuSans-65" x="1203.365234"/>
    <use xlink:href="#DejaVuSans-74" x="1264.888672"/>
    <use xlink:href="#DejaVuSans-77" x="1304.097656"/>
    <use xlink:href="#DejaVuSans-65" x="1385.884766"/>
    <use xlink:href="#DejaVuSans-65" x="1447.408203"/>
    <use xlink:href="#DejaVuSans-6e" x="1508.931641"/>
    <use xlink:href="#DejaVuSans-20" x="1572.310547"/>
    <use xlink:href="#DejaVuSans-61" x="1604.097656"/>
    <use xlink:href="#DejaVuSans-6d" x="1665.376953"/>
    <use xlink:href="#DejaVuSans-69" x="1762.789062"/>
    <use xlink:href="#DejaVuSans-6e" x="1790.572266"/>
    <use xlink:href="#DejaVuSans-6f" x="1853.951172"/>
    <use xlink:href="#DejaVuSans-20" x="1915.132812"/>
    <use xlink:href="#DejaVuSans-61" x="1946.919922"/>
    <use xlink:href="#DejaVuSans-63" x="2008.199219"/>
    <use xlink:href="#DejaVuSans-69" x="2063.179688"/>
    <use xlink:href="#DejaVuSans-64" x="2090.962891"/>
    <use xlink:href="#DejaVuSans-20" x="2154.439453"/>
    <use xlink:href="#DejaVuSans-61" x="2186.226562"/>
    <use xlink:href="#DejaVuSans-6e" x="2247.505859"/>
    <use xlink:href="#DejaVuSans-64" x="2310.884766"/>
    <use xlink:href="#DejaVuSans-20" x="2374.361328"/>
    <use xlink:href="#DejaVuSans-66" x="2406.148438"/>
    <use xlink:href="#DejaVuSans-61" x="2441.353516"/>
    <use xlink:href="#DejaVuSans-63" x="2502.632812"/>
    <use xlink:href="#DejaVuSans-74" x="2557.613281"/>
    <use xlink:href="#DejaVuSans-6f" x="2596.822266"/>
    <use xlink:href="#DejaVuSans-72" x="2658.003906"/>
    <use xlink:href="#DejaVuSans-20" x="2699.117188"/>
    <use xlink:href="#DejaVuSans-66" x="2730.904297"/>
    <use xlink:href="#DejaVuSans-72" x="2766.109375"/>
    <use xlink:href="#DejaVuSans-65" x="2804.972656"/>
    <use xlink:href="#DejaVuSans-71" x="2866.496094"/>
    <use xlink:href="#DejaVuSans-75" x="2929.972656"/>
    <use xlink:href="#DejaVuSans-65" x="2993.351562"/>
    <use xlink:href="#DejaVuSans-6e" x="3054.875"/>
    <use xlink:href="#DejaVuSans-63" x="3118.253906"/>
    <use xlink:href="#DejaVuSans-69" x="3173.234375"/>
    <use xlink:href="#DejaVuSans-65" x="3201.017578"/>
    <use xlink:href="#DejaVuSans-73" x="3262.541016"/>
    <use xlink:href="#DejaVuSans-20" x="3314.640625"/>
    <use xlink:href="#DejaVuSans-66" x="3346.427734"/>
    <use xlink:href="#DejaVuSans-6f" x="3381.632812"/>
    <use xlink:href="#DejaVuSans-72" x="3442.814453"/>
    <use xlink:href="#DejaVuSans-20" x="3483.927734"/>
    <use xlink:href="#DejaVuSans-67" x="3515.714844"/>
    <use xlink:href="#DejaVuSans-65" x="3579.191406"/>
    <use xlink:href="#DejaVuSans-6e" x="3640.714844"/>
    <use xlink:href="#DejaVuSans-65" x="3704.09375"/>
    <use xlink:href="#DejaVuSans-74" x="3765.617188"/>
    <use xlink:href="#DejaVuSans-69" x="3804.826172"/>
    <use xlink:href="#DejaVuSans-63" x="3832.609375"/>
    <use xlink:href="#DejaVuSans-20" x="3887.589844"/>
    <use xlink:href="#DejaVuSans-63" x="3919.376953"/>
    <use xlink:href="#DejaVuSans-6f" x="3974.357422"/>
    <use xlink:href="#DejaVuSans-64" x="4035.539062"/>
    <use xlink:href="#DejaVuSans-65" x="4099.015625"/>
    <use xlink:href="#DejaVuSans-3a" x="4160.539062"/>
    <use xlink:href="#DejaVuSans-20" x="4194.230469"/>
    <use xlink:href="#DejaVuSans-59" x="4226.017578"/>
    <use xlink:href="#DejaVuSans-65" x="4273.851562"/>
    <use xlink:href="#DejaVuSans-61" x="4335.375"/>
    <use xlink:href="#DejaVuSans-73" x="4396.654297"/>
    <use xlink:href="#DejaVuSans-74" x="4448.753906"/>
    <use xlink:href="#DejaVuSans-20" x="4487.962891"/>
    <use xlink:href="#DejaVuSans-6d" x="4519.75"/>
    <use xlink:href="#DejaVuSans-69" x="4617.162109"/>
    <use xlink:href="#DejaVuSans-74" x="4644.945312"/>
    <use xlink:href="#DejaVuSans-6f" x="4684.154297"/>
    <use xlink:href="#DejaVuSans-63" x="4745.335938"/>
    <use xlink:href="#DejaVuSans-68" x="4800.316406"/>
    <use xlink:href="#DejaVuSans-6f" x="4863.695312"/>
    <use xlink:href="#DejaVuSans-6e" x="4924.876953"/>
    <use xlink:href="#DejaVuSans-64" x="4988.255859"/>
    <use xlink:href="#DejaVuSans-72" x="5051.732422"/>
    <use xlink:href="#DejaVuSans-69" x="5092.845703"/>
    <use xlink:href="#DejaVuSans-61" x="5120.628906"/>
    <use xlink:href="#DejaVuSans-6c" x="5181.908203"/>
   </g>
  </g>
 </g>
 <defs>
  <clipPath id="p43f48fd320">
   <rect x="50.14375" y="57.6" width="398.571429" height="252"/>
  </clipPath>
  <clipPath id="p569049a933">
   <rect x="488.572321" y="57.6" width="398.571429" height="252"/>
  </clipPath>
  <clipPath id="p86e3c7e4c2">
   <rect x="50.14375" y="360" width="398.571429" height="252"/>
  </clipPath>
  <clipPath id="p6c32b56f8a">
   <rect x="488.572321" y="360" width="398.571429" height="252"/>
  </clipPath>
 </defs>
</svg>
