<?xml version="1.0" encoding="utf-8" standalone="no"?>
<!DOCTYPE svg PUBLIC "-//W3C//DTD SVG 1.1//EN"
  "http://www.w3.org/Graphics/SVG/1.1/DTD/svg11.dtd">
<svg xmlns:xlink="http://www.w3.org/1999/xlink" width="894.34375pt" height="649.55625pt" viewBox="0 0 894.34375 649.55625" xmlns="http://www.w3.org/2000/svg" version="1.1">
 <metadata>
  <rdf:RDF xmlns:dc="http://purl.org/dc/elements/1.1/" xmlns:cc="http://creativecommons.org/ns#" xmlns:rdf="http://www.w3.org/1999/02/22-rdf-syntax-ns#">
   <cc:Work>
    <dc:type rdf:resource="http://purl.org/dc/dcmitype/StillImage"/>
    <dc:date>2024-09-25T14:43:29.080865</dc:date>
    <dc:format>image/svg+xml</dc:format>
    <dc:creator>
     <cc:Agent>
      <dc:title>Matplotlib v3.8.3, https://matplotlib.org/</dc:title>
     </cc:Agent>
    </dc:creator>
   </cc:Work>
  </rdf:RDF>
 </metadata>
 <defs>
  <style type="text/css">*{stroke-linejoin: round; stroke-linecap: butt}</style>
 </defs>
 <g id="figure_1">
  <g id="patch_1">
   <path d="M 0 649.55625 
L 894.34375 649.55625 
L 894.34375 0 
L 0 0 
z
" style="fill: #ffffff"/>
  </g>
  <g id="axes_1">
   <g id="patch_2">
    <path d="M 50.14375 309.6 
L 448.715179 309.6 
L 448.715179 57.6 
L 50.14375 57.6 
z
" style="fill: #ffffff"/>
   </g>
   <g id="PathCollection_1">
    <defs>
     <path id="mb156e4ff23" d="M 0 3.535534 
C 0.937635 3.535534 1.836992 3.163008 2.5 2.5 
C 3.163008 1.836992 3.535534 0.937635 3.535534 0 
C 3.535534 -0.937635 3.163008 -1.836992 2.5 -2.5 
C 1.836992 -3.163008 0.937635 -3.535534 0 -3.535534 
C -0.937635 -3.535534 -1.836992 -3.163008 -2.5 -2.5 
C -3.163008 -1.836992 -3.535534 -0.937635 -3.535534 0 
C -3.535534 0.937635 -3.163008 1.836992 -2.5 2.5 
C -1.836992 3.163008 -0.937635 3.535534 0 3.535534 
z
" style="stroke: #1f77b4; stroke-opacity: 0.8"/>
    </defs>
    <g clip-path="url(#pe958b8566f)">
     <use xlink:href="#mb156e4ff23" x="68.260633" y="266.976984" style="fill: #1f77b4; fill-opacity: 0.8; stroke: #1f77b4; stroke-opacity: 0.8"/>
     <use xlink:href="#mb156e4ff23" x="68.260633" y="298.145455" style="fill: #1f77b4; fill-opacity: 0.8; stroke: #1f77b4; stroke-opacity: 0.8"/>
     <use xlink:href="#mb156e4ff23" x="128.650244" y="286.119815" style="fill: #1f77b4; fill-opacity: 0.8; stroke: #1f77b4; stroke-opacity: 0.8"/>
     <use xlink:href="#mb156e4ff23" x="128.650244" y="207.607068" style="fill: #1f77b4; fill-opacity: 0.8; stroke: #1f77b4; stroke-opacity: 0.8"/>
     <use xlink:href="#mb156e4ff23" x="128.650244" y="190.66742" style="fill: #1f77b4; fill-opacity: 0.8; stroke: #1f77b4; stroke-opacity: 0.8"/>
     <use xlink:href="#mb156e4ff23" x="128.650244" y="227.972823" style="fill: #1f77b4; fill-opacity: 0.8; stroke: #1f77b4; stroke-opacity: 0.8"/>
     <use xlink:href="#mb156e4ff23" x="128.650244" y="274.267824" style="fill: #1f77b4; fill-opacity: 0.8; stroke: #1f77b4; stroke-opacity: 0.8"/>
     <use xlink:href="#mb156e4ff23" x="128.650244" y="191.892084" style="fill: #1f77b4; fill-opacity: 0.8; stroke: #1f77b4; stroke-opacity: 0.8"/>
     <use xlink:href="#mb156e4ff23" x="128.650244" y="228.165117" style="fill: #1f77b4; fill-opacity: 0.8; stroke: #1f77b4; stroke-opacity: 0.8"/>
     <use xlink:href="#mb156e4ff23" x="128.650244" y="238.383107" style="fill: #1f77b4; fill-opacity: 0.8; stroke: #1f77b4; stroke-opacity: 0.8"/>
     <use xlink:href="#mb156e4ff23" x="128.650244" y="254.149768" style="fill: #1f77b4; fill-opacity: 0.8; stroke: #1f77b4; stroke-opacity: 0.8"/>
     <use xlink:href="#mb156e4ff23" x="189.039854" y="200.541599" style="fill: #1f77b4; fill-opacity: 0.8; stroke: #1f77b4; stroke-opacity: 0.8"/>
     <use xlink:href="#mb156e4ff23" x="249.429464" y="143.755028" style="fill: #1f77b4; fill-opacity: 0.8; stroke: #1f77b4; stroke-opacity: 0.8"/>
     <use xlink:href="#mb156e4ff23" x="249.429464" y="168.359512" style="fill: #1f77b4; fill-opacity: 0.8; stroke: #1f77b4; stroke-opacity: 0.8"/>
     <use xlink:href="#mb156e4ff23" x="249.429464" y="210.072491" style="fill: #1f77b4; fill-opacity: 0.8; stroke: #1f77b4; stroke-opacity: 0.8"/>
     <use xlink:href="#mb156e4ff23" x="249.429464" y="194.627503" style="fill: #1f77b4; fill-opacity: 0.8; stroke: #1f77b4; stroke-opacity: 0.8"/>
     <use xlink:href="#mb156e4ff23" x="249.429464" y="173.480349" style="fill: #1f77b4; fill-opacity: 0.8; stroke: #1f77b4; stroke-opacity: 0.8"/>
     <use xlink:href="#mb156e4ff23" x="430.598295" y="100.159668" style="fill: #1f77b4; fill-opacity: 0.8; stroke: #1f77b4; stroke-opacity: 0.8"/>
     <use xlink:href="#mb156e4ff23" x="370.208685" y="210.017257" style="fill: #1f77b4; fill-opacity: 0.8; stroke: #1f77b4; stroke-opacity: 0.8"/>
     <use xlink:href="#mb156e4ff23" x="309.819075" y="152.365765" style="fill: #1f77b4; fill-opacity: 0.8; stroke: #1f77b4; stroke-opacity: 0.8"/>
    </g>
   </g>
   <g id="PolyCollection_1">
    <path d="M 68.260633 235.887582 
L 68.260633 281.960576 
L 71.92061 279.957957 
L 75.580586 277.628922 
L 79.240562 275.62957 
L 82.900539 273.558352 
L 86.560515 271.440317 
L 90.220491 269.554674 
L 93.880468 267.714876 
L 97.540444 265.772235 
L 101.200421 263.925982 
L 104.860397 261.87172 
L 108.520373 260.022117 
L 112.18035 258.334998 
L 115.840326 256.525036 
L 119.500303 254.717734 
L 123.160279 252.976403 
L 126.820255 251.322703 
L 130.480232 249.448541 
L 134.140208 247.697078 
L 137.800184 245.887697 
L 141.460161 244.424006 
L 145.120137 242.528496 
L 148.780114 241.142464 
L 152.44009 239.682775 
L 156.100066 238.342807 
L 159.760043 236.726686 
L 163.420019 235.068316 
L 167.079996 233.750712 
L 170.739972 232.561316 
L 174.399948 231.133194 
L 178.059925 229.752358 
L 181.719901 228.490028 
L 185.379878 226.915817 
L 189.039854 225.809198 
L 192.69983 224.628574 
L 196.359807 223.269234 
L 200.019783 221.905222 
L 203.679759 220.700001 
L 207.339736 219.699317 
L 210.999712 218.338337 
L 214.659689 217.393198 
L 218.319665 216.341152 
L 221.979641 215.17233 
L 225.639618 214.115898 
L 229.299594 213.059465 
L 232.959571 212.000392 
L 236.619547 211.024024 
L 240.279523 210.074959 
L 243.9395 209.250696 
L 247.599476 208.347943 
L 251.259452 207.400971 
L 254.919429 206.372898 
L 258.579405 205.225345 
L 262.239382 204.137159 
L 265.899358 203.03847 
L 269.559334 202.439951 
L 273.219311 201.344922 
L 276.879287 200.240323 
L 280.539264 199.135723 
L 284.19924 198.023904 
L 287.859216 196.935328 
L 291.519193 196.159189 
L 295.179169 195.556629 
L 298.839146 194.881899 
L 302.499122 194.174585 
L 306.159098 193.371618 
L 309.819075 192.324115 
L 313.479051 191.312898 
L 317.139027 190.153476 
L 320.799004 188.981498 
L 324.45898 187.964445 
L 328.118957 186.993894 
L 331.778933 186.231789 
L 335.438909 185.484918 
L 339.098886 184.735872 
L 342.758862 183.986826 
L 346.418839 183.235522 
L 350.078815 182.483925 
L 353.738791 181.732327 
L 357.398768 180.777062 
L 361.058744 179.774369 
L 364.71872 178.766728 
L 368.378697 177.939199 
L 372.038673 177.143609 
L 375.69865 176.231046 
L 379.358626 175.565641 
L 383.018602 174.802888 
L 386.678579 173.922807 
L 390.338555 173.08217 
L 393.998532 172.336116 
L 397.658508 171.590062 
L 401.318484 170.819631 
L 404.978461 170.030354 
L 408.638437 169.241076 
L 412.298414 168.451799 
L 415.95839 167.662522 
L 419.618366 166.873244 
L 423.278343 166.083967 
L 426.938319 165.29469 
L 430.598295 164.505412 
L 430.598295 69.054545 
L 430.598295 69.054545 
L 426.938319 71.186198 
L 423.278343 73.31785 
L 419.618366 75.449503 
L 415.95839 77.581155 
L 412.298414 79.712808 
L 408.638437 81.84446 
L 404.978461 83.8894 
L 401.318484 85.931533 
L 397.658508 87.973667 
L 393.998532 90.017975 
L 390.338555 92.059811 
L 386.678579 94.100066 
L 383.018602 96.157156 
L 379.358626 98.262658 
L 375.69865 100.36816 
L 372.038673 102.473661 
L 368.378697 104.579855 
L 364.71872 106.688744 
L 361.058744 108.797633 
L 357.398768 110.906522 
L 353.738791 112.929935 
L 350.078815 114.941282 
L 346.418839 116.957014 
L 342.758862 118.973316 
L 339.098886 120.986773 
L 335.438909 122.99715 
L 331.778933 125.010587 
L 328.118957 127.025784 
L 324.45898 129.04098 
L 320.799004 131.056966 
L 317.139027 133.220125 
L 313.479051 135.089842 
L 309.819075 137.101766 
L 306.159098 139.116962 
L 302.499122 141.086024 
L 298.839146 143.068606 
L 295.179169 145.103779 
L 291.519193 147.138952 
L 287.859216 149.173158 
L 284.19924 151.191665 
L 280.539264 153.212557 
L 276.879287 155.233449 
L 273.219311 157.281226 
L 269.559334 159.067236 
L 265.899358 161.15035 
L 262.239382 163.166568 
L 258.579405 164.86207 
L 254.919429 167.12098 
L 251.259452 169.040808 
L 247.599476 170.703299 
L 243.9395 172.715208 
L 240.279523 174.639366 
L 236.619547 176.413409 
L 232.959571 177.957539 
L 229.299594 179.701623 
L 225.639618 181.6152 
L 221.979641 183.269425 
L 218.319665 185.009113 
L 214.659689 186.650867 
L 210.999712 188.198432 
L 207.339736 189.970571 
L 203.679759 191.460934 
L 200.019783 193.194231 
L 196.359807 194.795078 
L 192.69983 196.354195 
L 189.039854 197.990584 
L 185.379878 199.628621 
L 181.719901 201.234598 
L 178.059925 202.744671 
L 174.399948 204.281797 
L 170.739972 205.761386 
L 167.079996 207.312228 
L 163.420019 208.567276 
L 159.760043 209.725486 
L 156.100066 211.065476 
L 152.44009 212.216776 
L 148.780114 213.322887 
L 145.120137 214.4667 
L 141.460161 215.561389 
L 137.800184 216.51923 
L 134.140208 217.536876 
L 130.480232 218.563822 
L 126.820255 219.536968 
L 123.160279 220.350589 
L 119.500303 221.406779 
L 115.840326 222.566314 
L 112.18035 223.483859 
L 108.520373 224.730315 
L 104.860397 225.759452 
L 101.200421 226.960739 
L 97.540444 227.88409 
L 93.880468 228.838641 
L 90.220491 229.803643 
L 86.560515 230.890389 
L 82.900539 231.99577 
L 79.240562 232.886832 
L 75.580586 233.810404 
L 71.92061 234.84818 
L 68.260633 235.887582 
z
" clip-path="url(#pe958b8566f)" style="fill: #ffa500; fill-opacity: 0.15"/>
   </g>
   <g id="matplotlib.axis_1">
    <g id="xtick_1">
     <g id="line2d_1">
      <defs>
       <path id="m1760c3eaeb" d="M 0 0 
L 0 3.5 
" style="stroke: #000000; stroke-width: 0.8"/>
      </defs>
      <g>
       <use xlink:href="#m1760c3eaeb" x="81.546347" y="309.6" style="stroke: #000000; stroke-width: 0.8"/>
      </g>
     </g>
     <g id="text_1">
      <!-- 0.02 -->
      <g transform="translate(70.413535 324.198437) scale(0.1 -0.1)">
       <defs>
        <path id="DejaVuSans-30" d="M 2034 4250 
Q 1547 4250 1301 3770 
Q 1056 3291 1056 2328 
Q 1056 1369 1301 889 
Q 1547 409 2034 409 
Q 2525 409 2770 889 
Q 3016 1369 3016 2328 
Q 3016 3291 2770 3770 
Q 2525 4250 2034 4250 
z
M 2034 4750 
Q 2819 4750 3233 4129 
Q 3647 3509 3647 2328 
Q 3647 1150 3233 529 
Q 2819 -91 2034 -91 
Q 1250 -91 836 529 
Q 422 1150 422 2328 
Q 422 3509 836 4129 
Q 1250 4750 2034 4750 
z
" transform="scale(0.015625)"/>
        <path id="DejaVuSans-2e" d="M 684 794 
L 1344 794 
L 1344 0 
L 684 0 
L 684 794 
z
" transform="scale(0.015625)"/>
        <path id="DejaVuSans-32" d="M 1228 531 
L 3431 531 
L 3431 0 
L 469 0 
L 469 531 
Q 828 903 1448 1529 
Q 2069 2156 2228 2338 
Q 2531 2678 2651 2914 
Q 2772 3150 2772 3378 
Q 2772 3750 2511 3984 
Q 2250 4219 1831 4219 
Q 1534 4219 1204 4116 
Q 875 4013 500 3803 
L 500 4441 
Q 881 4594 1212 4672 
Q 1544 4750 1819 4750 
Q 2544 4750 2975 4387 
Q 3406 4025 3406 3419 
Q 3406 3131 3298 2873 
Q 3191 2616 2906 2266 
Q 2828 2175 2409 1742 
Q 1991 1309 1228 531 
z
" transform="scale(0.015625)"/>
       </defs>
       <use xlink:href="#DejaVuSans-30"/>
       <use xlink:href="#DejaVuSans-2e" x="63.623047"/>
       <use xlink:href="#DejaVuSans-30" x="95.410156"/>
       <use xlink:href="#DejaVuSans-32" x="159.033203"/>
      </g>
     </g>
    </g>
    <g id="xtick_2">
     <g id="line2d_2">
      <g>
       <use xlink:href="#m1760c3eaeb" x="155.221672" y="309.6" style="stroke: #000000; stroke-width: 0.8"/>
      </g>
     </g>
     <g id="text_2">
      <!-- 0.04 -->
      <g transform="translate(144.08886 324.198437) scale(0.1 -0.1)">
       <defs>
        <path id="DejaVuSans-34" d="M 2419 4116 
L 825 1625 
L 2419 1625 
L 2419 4116 
z
M 2253 4666 
L 3047 4666 
L 3047 1625 
L 3713 1625 
L 3713 1100 
L 3047 1100 
L 3047 0 
L 2419 0 
L 2419 1100 
L 313 1100 
L 313 1709 
L 2253 4666 
z
" transform="scale(0.015625)"/>
       </defs>
       <use xlink:href="#DejaVuSans-30"/>
       <use xlink:href="#DejaVuSans-2e" x="63.623047"/>
       <use xlink:href="#DejaVuSans-30" x="95.410156"/>
       <use xlink:href="#DejaVuSans-34" x="159.033203"/>
      </g>
     </g>
    </g>
    <g id="xtick_3">
     <g id="line2d_3">
      <g>
       <use xlink:href="#m1760c3eaeb" x="228.896997" y="309.6" style="stroke: #000000; stroke-width: 0.8"/>
      </g>
     </g>
     <g id="text_3">
      <!-- 0.06 -->
      <g transform="translate(217.764184 324.198437) scale(0.1 -0.1)">
       <defs>
        <path id="DejaVuSans-36" d="M 2113 2584 
Q 1688 2584 1439 2293 
Q 1191 2003 1191 1497 
Q 1191 994 1439 701 
Q 1688 409 2113 409 
Q 2538 409 2786 701 
Q 3034 994 3034 1497 
Q 3034 2003 2786 2293 
Q 2538 2584 2113 2584 
z
M 3366 4563 
L 3366 3988 
Q 3128 4100 2886 4159 
Q 2644 4219 2406 4219 
Q 1781 4219 1451 3797 
Q 1122 3375 1075 2522 
Q 1259 2794 1537 2939 
Q 1816 3084 2150 3084 
Q 2853 3084 3261 2657 
Q 3669 2231 3669 1497 
Q 3669 778 3244 343 
Q 2819 -91 2113 -91 
Q 1303 -91 875 529 
Q 447 1150 447 2328 
Q 447 3434 972 4092 
Q 1497 4750 2381 4750 
Q 2619 4750 2861 4703 
Q 3103 4656 3366 4563 
z
" transform="scale(0.015625)"/>
       </defs>
       <use xlink:href="#DejaVuSans-30"/>
       <use xlink:href="#DejaVuSans-2e" x="63.623047"/>
       <use xlink:href="#DejaVuSans-30" x="95.410156"/>
       <use xlink:href="#DejaVuSans-36" x="159.033203"/>
      </g>
     </g>
    </g>
    <g id="xtick_4">
     <g id="line2d_4">
      <g>
       <use xlink:href="#m1760c3eaeb" x="302.572321" y="309.6" style="stroke: #000000; stroke-width: 0.8"/>
      </g>
     </g>
     <g id="text_4">
      <!-- 0.08 -->
      <g transform="translate(291.439509 324.198437) scale(0.1 -0.1)">
       <defs>
        <path id="DejaVuSans-38" d="M 2034 2216 
Q 1584 2216 1326 1975 
Q 1069 1734 1069 1313 
Q 1069 891 1326 650 
Q 1584 409 2034 409 
Q 2484 409 2743 651 
Q 3003 894 3003 1313 
Q 3003 1734 2745 1975 
Q 2488 2216 2034 2216 
z
M 1403 2484 
Q 997 2584 770 2862 
Q 544 3141 544 3541 
Q 544 4100 942 4425 
Q 1341 4750 2034 4750 
Q 2731 4750 3128 4425 
Q 3525 4100 3525 3541 
Q 3525 3141 3298 2862 
Q 3072 2584 2669 2484 
Q 3125 2378 3379 2068 
Q 3634 1759 3634 1313 
Q 3634 634 3220 271 
Q 2806 -91 2034 -91 
Q 1263 -91 848 271 
Q 434 634 434 1313 
Q 434 1759 690 2068 
Q 947 2378 1403 2484 
z
M 1172 3481 
Q 1172 3119 1398 2916 
Q 1625 2713 2034 2713 
Q 2441 2713 2670 2916 
Q 2900 3119 2900 3481 
Q 2900 3844 2670 4047 
Q 2441 4250 2034 4250 
Q 1625 4250 1398 4047 
Q 1172 3844 1172 3481 
z
" transform="scale(0.015625)"/>
       </defs>
       <use xlink:href="#DejaVuSans-30"/>
       <use xlink:href="#DejaVuSans-2e" x="63.623047"/>
       <use xlink:href="#DejaVuSans-30" x="95.410156"/>
       <use xlink:href="#DejaVuSans-38" x="159.033203"/>
      </g>
     </g>
    </g>
    <g id="xtick_5">
     <g id="line2d_5">
      <g>
       <use xlink:href="#m1760c3eaeb" x="376.247646" y="309.6" style="stroke: #000000; stroke-width: 0.8"/>
      </g>
     </g>
     <g id="text_5">
      <!-- 0.10 -->
      <g transform="translate(365.114834 324.198437) scale(0.1 -0.1)">
       <defs>
        <path id="DejaVuSans-31" d="M 794 531 
L 1825 531 
L 1825 4091 
L 703 3866 
L 703 4441 
L 1819 4666 
L 2450 4666 
L 2450 531 
L 3481 531 
L 3481 0 
L 794 0 
L 794 531 
z
" transform="scale(0.015625)"/>
       </defs>
       <use xlink:href="#DejaVuSans-30"/>
       <use xlink:href="#DejaVuSans-2e" x="63.623047"/>
       <use xlink:href="#DejaVuSans-31" x="95.410156"/>
       <use xlink:href="#DejaVuSans-30" x="159.033203"/>
      </g>
     </g>
    </g>
    <g id="text_6">
     <!-- Codon -->
     <g transform="translate(233.476339 337.876562) scale(0.1 -0.1)">
      <defs>
       <path id="DejaVuSans-43" d="M 4122 4306 
L 4122 3641 
Q 3803 3938 3442 4084 
Q 3081 4231 2675 4231 
Q 1875 4231 1450 3742 
Q 1025 3253 1025 2328 
Q 1025 1406 1450 917 
Q 1875 428 2675 428 
Q 3081 428 3442 575 
Q 3803 722 4122 1019 
L 4122 359 
Q 3791 134 3420 21 
Q 3050 -91 2638 -91 
Q 1578 -91 968 557 
Q 359 1206 359 2328 
Q 359 3453 968 4101 
Q 1578 4750 2638 4750 
Q 3056 4750 3426 4639 
Q 3797 4528 4122 4306 
z
" transform="scale(0.015625)"/>
       <path id="DejaVuSans-6f" d="M 1959 3097 
Q 1497 3097 1228 2736 
Q 959 2375 959 1747 
Q 959 1119 1226 758 
Q 1494 397 1959 397 
Q 2419 397 2687 759 
Q 2956 1122 2956 1747 
Q 2956 2369 2687 2733 
Q 2419 3097 1959 3097 
z
M 1959 3584 
Q 2709 3584 3137 3096 
Q 3566 2609 3566 1747 
Q 3566 888 3137 398 
Q 2709 -91 1959 -91 
Q 1206 -91 779 398 
Q 353 888 353 1747 
Q 353 2609 779 3096 
Q 1206 3584 1959 3584 
z
" transform="scale(0.015625)"/>
       <path id="DejaVuSans-64" d="M 2906 2969 
L 2906 4863 
L 3481 4863 
L 3481 0 
L 2906 0 
L 2906 525 
Q 2725 213 2448 61 
Q 2172 -91 1784 -91 
Q 1150 -91 751 415 
Q 353 922 353 1747 
Q 353 2572 751 3078 
Q 1150 3584 1784 3584 
Q 2172 3584 2448 3432 
Q 2725 3281 2906 2969 
z
M 947 1747 
Q 947 1113 1208 752 
Q 1469 391 1925 391 
Q 2381 391 2643 752 
Q 2906 1113 2906 1747 
Q 2906 2381 2643 2742 
Q 2381 3103 1925 3103 
Q 1469 3103 1208 2742 
Q 947 2381 947 1747 
z
" transform="scale(0.015625)"/>
       <path id="DejaVuSans-6e" d="M 3513 2113 
L 3513 0 
L 2938 0 
L 2938 2094 
Q 2938 2591 2744 2837 
Q 2550 3084 2163 3084 
Q 1697 3084 1428 2787 
Q 1159 2491 1159 1978 
L 1159 0 
L 581 0 
L 581 3500 
L 1159 3500 
L 1159 2956 
Q 1366 3272 1645 3428 
Q 1925 3584 2291 3584 
Q 2894 3584 3203 3211 
Q 3513 2838 3513 2113 
z
" transform="scale(0.015625)"/>
      </defs>
      <use xlink:href="#DejaVuSans-43"/>
      <use xlink:href="#DejaVuSans-6f" x="69.824219"/>
      <use xlink:href="#DejaVuSans-64" x="131.005859"/>
      <use xlink:href="#DejaVuSans-6f" x="194.482422"/>
      <use xlink:href="#DejaVuSans-6e" x="255.664062"/>
     </g>
    </g>
   </g>
   <g id="matplotlib.axis_2">
    <g id="ytick_1">
     <g id="line2d_6">
      <defs>
       <path id="ma39e62dc60" d="M 0 0 
L -3.5 0 
" style="stroke: #000000; stroke-width: 0.8"/>
      </defs>
      <g>
       <use xlink:href="#ma39e62dc60" x="50.14375" y="282.884143" style="stroke: #000000; stroke-width: 0.8"/>
      </g>
     </g>
     <g id="text_7">
      <!-- 0.02 -->
      <g transform="translate(20.878125 286.683362) scale(0.1 -0.1)">
       <use xlink:href="#DejaVuSans-30"/>
       <use xlink:href="#DejaVuSans-2e" x="63.623047"/>
       <use xlink:href="#DejaVuSans-30" x="95.410156"/>
       <use xlink:href="#DejaVuSans-32" x="159.033203"/>
      </g>
     </g>
    </g>
    <g id="ytick_2">
     <g id="line2d_7">
      <g>
       <use xlink:href="#ma39e62dc60" x="50.14375" y="234.885602" style="stroke: #000000; stroke-width: 0.8"/>
      </g>
     </g>
     <g id="text_8">
      <!-- 0.04 -->
      <g transform="translate(20.878125 238.684821) scale(0.1 -0.1)">
       <use xlink:href="#DejaVuSans-30"/>
       <use xlink:href="#DejaVuSans-2e" x="63.623047"/>
       <use xlink:href="#DejaVuSans-30" x="95.410156"/>
       <use xlink:href="#DejaVuSans-34" x="159.033203"/>
      </g>
     </g>
    </g>
    <g id="ytick_3">
     <g id="line2d_8">
      <g>
       <use xlink:href="#ma39e62dc60" x="50.14375" y="186.887061" style="stroke: #000000; stroke-width: 0.8"/>
      </g>
     </g>
     <g id="text_9">
      <!-- 0.06 -->
      <g transform="translate(20.878125 190.68628) scale(0.1 -0.1)">
       <use xlink:href="#DejaVuSans-30"/>
       <use xlink:href="#DejaVuSans-2e" x="63.623047"/>
       <use xlink:href="#DejaVuSans-30" x="95.410156"/>
       <use xlink:href="#DejaVuSans-36" x="159.033203"/>
      </g>
     </g>
    </g>
    <g id="ytick_4">
     <g id="line2d_9">
      <g>
       <use xlink:href="#ma39e62dc60" x="50.14375" y="138.88852" style="stroke: #000000; stroke-width: 0.8"/>
      </g>
     </g>
     <g id="text_10">
      <!-- 0.08 -->
      <g transform="translate(20.878125 142.687739) scale(0.1 -0.1)">
       <use xlink:href="#DejaVuSans-30"/>
       <use xlink:href="#DejaVuSans-2e" x="63.623047"/>
       <use xlink:href="#DejaVuSans-30" x="95.410156"/>
       <use xlink:href="#DejaVuSans-38" x="159.033203"/>
      </g>
     </g>
    </g>
    <g id="ytick_5">
     <g id="line2d_10">
      <g>
       <use xlink:href="#ma39e62dc60" x="50.14375" y="90.889979" style="stroke: #000000; stroke-width: 0.8"/>
      </g>
     </g>
     <g id="text_11">
      <!-- 0.10 -->
      <g transform="translate(20.878125 94.689198) scale(0.1 -0.1)">
       <use xlink:href="#DejaVuSans-30"/>
       <use xlink:href="#DejaVuSans-2e" x="63.623047"/>
       <use xlink:href="#DejaVuSans-31" x="95.410156"/>
       <use xlink:href="#DejaVuSans-30" x="159.033203"/>
      </g>
     </g>
    </g>
    <g id="text_12">
     <!-- Amino acid frequency -->
     <g transform="translate(14.798438 238.139062) rotate(-90) scale(0.1 -0.1)">
      <defs>
       <path id="DejaVuSans-41" d="M 2188 4044 
L 1331 1722 
L 3047 1722 
L 2188 4044 
z
M 1831 4666 
L 2547 4666 
L 4325 0 
L 3669 0 
L 3244 1197 
L 1141 1197 
L 716 0 
L 50 0 
L 1831 4666 
z
" transform="scale(0.015625)"/>
       <path id="DejaVuSans-6d" d="M 3328 2828 
Q 3544 3216 3844 3400 
Q 4144 3584 4550 3584 
Q 5097 3584 5394 3201 
Q 5691 2819 5691 2113 
L 5691 0 
L 5113 0 
L 5113 2094 
Q 5113 2597 4934 2840 
Q 4756 3084 4391 3084 
Q 3944 3084 3684 2787 
Q 3425 2491 3425 1978 
L 3425 0 
L 2847 0 
L 2847 2094 
Q 2847 2600 2669 2842 
Q 2491 3084 2119 3084 
Q 1678 3084 1418 2786 
Q 1159 2488 1159 1978 
L 1159 0 
L 581 0 
L 581 3500 
L 1159 3500 
L 1159 2956 
Q 1356 3278 1631 3431 
Q 1906 3584 2284 3584 
Q 2666 3584 2933 3390 
Q 3200 3197 3328 2828 
z
" transform="scale(0.015625)"/>
       <path id="DejaVuSans-69" d="M 603 3500 
L 1178 3500 
L 1178 0 
L 603 0 
L 603 3500 
z
M 603 4863 
L 1178 4863 
L 1178 4134 
L 603 4134 
L 603 4863 
z
" transform="scale(0.015625)"/>
       <path id="DejaVuSans-20" transform="scale(0.015625)"/>
       <path id="DejaVuSans-61" d="M 2194 1759 
Q 1497 1759 1228 1600 
Q 959 1441 959 1056 
Q 959 750 1161 570 
Q 1363 391 1709 391 
Q 2188 391 2477 730 
Q 2766 1069 2766 1631 
L 2766 1759 
L 2194 1759 
z
M 3341 1997 
L 3341 0 
L 2766 0 
L 2766 531 
Q 2569 213 2275 61 
Q 1981 -91 1556 -91 
Q 1019 -91 701 211 
Q 384 513 384 1019 
Q 384 1609 779 1909 
Q 1175 2209 1959 2209 
L 2766 2209 
L 2766 2266 
Q 2766 2663 2505 2880 
Q 2244 3097 1772 3097 
Q 1472 3097 1187 3025 
Q 903 2953 641 2809 
L 641 3341 
Q 956 3463 1253 3523 
Q 1550 3584 1831 3584 
Q 2591 3584 2966 3190 
Q 3341 2797 3341 1997 
z
" transform="scale(0.015625)"/>
       <path id="DejaVuSans-63" d="M 3122 3366 
L 3122 2828 
Q 2878 2963 2633 3030 
Q 2388 3097 2138 3097 
Q 1578 3097 1268 2742 
Q 959 2388 959 1747 
Q 959 1106 1268 751 
Q 1578 397 2138 397 
Q 2388 397 2633 464 
Q 2878 531 3122 666 
L 3122 134 
Q 2881 22 2623 -34 
Q 2366 -91 2075 -91 
Q 1284 -91 818 406 
Q 353 903 353 1747 
Q 353 2603 823 3093 
Q 1294 3584 2113 3584 
Q 2378 3584 2631 3529 
Q 2884 3475 3122 3366 
z
" transform="scale(0.015625)"/>
       <path id="DejaVuSans-66" d="M 2375 4863 
L 2375 4384 
L 1825 4384 
Q 1516 4384 1395 4259 
Q 1275 4134 1275 3809 
L 1275 3500 
L 2222 3500 
L 2222 3053 
L 1275 3053 
L 1275 0 
L 697 0 
L 697 3053 
L 147 3053 
L 147 3500 
L 697 3500 
L 697 3744 
Q 697 4328 969 4595 
Q 1241 4863 1831 4863 
L 2375 4863 
z
" transform="scale(0.015625)"/>
       <path id="DejaVuSans-72" d="M 2631 2963 
Q 2534 3019 2420 3045 
Q 2306 3072 2169 3072 
Q 1681 3072 1420 2755 
Q 1159 2438 1159 1844 
L 1159 0 
L 581 0 
L 581 3500 
L 1159 3500 
L 1159 2956 
Q 1341 3275 1631 3429 
Q 1922 3584 2338 3584 
Q 2397 3584 2469 3576 
Q 2541 3569 2628 3553 
L 2631 2963 
z
" transform="scale(0.015625)"/>
       <path id="DejaVuSans-65" d="M 3597 1894 
L 3597 1613 
L 953 1613 
Q 991 1019 1311 708 
Q 1631 397 2203 397 
Q 2534 397 2845 478 
Q 3156 559 3463 722 
L 3463 178 
Q 3153 47 2828 -22 
Q 2503 -91 2169 -91 
Q 1331 -91 842 396 
Q 353 884 353 1716 
Q 353 2575 817 3079 
Q 1281 3584 2069 3584 
Q 2775 3584 3186 3129 
Q 3597 2675 3597 1894 
z
M 3022 2063 
Q 3016 2534 2758 2815 
Q 2500 3097 2075 3097 
Q 1594 3097 1305 2825 
Q 1016 2553 972 2059 
L 3022 2063 
z
" transform="scale(0.015625)"/>
       <path id="DejaVuSans-71" d="M 947 1747 
Q 947 1113 1208 752 
Q 1469 391 1925 391 
Q 2381 391 2643 752 
Q 2906 1113 2906 1747 
Q 2906 2381 2643 2742 
Q 2381 3103 1925 3103 
Q 1469 3103 1208 2742 
Q 947 2381 947 1747 
z
M 2906 525 
Q 2725 213 2448 61 
Q 2172 -91 1784 -91 
Q 1150 -91 751 415 
Q 353 922 353 1747 
Q 353 2572 751 3078 
Q 1150 3584 1784 3584 
Q 2172 3584 2448 3432 
Q 2725 3281 2906 2969 
L 2906 3500 
L 3481 3500 
L 3481 -1331 
L 2906 -1331 
L 2906 525 
z
" transform="scale(0.015625)"/>
       <path id="DejaVuSans-75" d="M 544 1381 
L 544 3500 
L 1119 3500 
L 1119 1403 
Q 1119 906 1312 657 
Q 1506 409 1894 409 
Q 2359 409 2629 706 
Q 2900 1003 2900 1516 
L 2900 3500 
L 3475 3500 
L 3475 0 
L 2900 0 
L 2900 538 
Q 2691 219 2414 64 
Q 2138 -91 1772 -91 
Q 1169 -91 856 284 
Q 544 659 544 1381 
z
M 1991 3584 
L 1991 3584 
z
" transform="scale(0.015625)"/>
       <path id="DejaVuSans-79" d="M 2059 -325 
Q 1816 -950 1584 -1140 
Q 1353 -1331 966 -1331 
L 506 -1331 
L 506 -850 
L 844 -850 
Q 1081 -850 1212 -737 
Q 1344 -625 1503 -206 
L 1606 56 
L 191 3500 
L 800 3500 
L 1894 763 
L 2988 3500 
L 3597 3500 
L 2059 -325 
z
" transform="scale(0.015625)"/>
      </defs>
      <use xlink:href="#DejaVuSans-41"/>
      <use xlink:href="#DejaVuSans-6d" x="68.408203"/>
      <use xlink:href="#DejaVuSans-69" x="165.820312"/>
      <use xlink:href="#DejaVuSans-6e" x="193.603516"/>
      <use xlink:href="#DejaVuSans-6f" x="256.982422"/>
      <use xlink:href="#DejaVuSans-20" x="318.164062"/>
      <use xlink:href="#DejaVuSans-61" x="349.951172"/>
      <use xlink:href="#DejaVuSans-63" x="411.230469"/>
      <use xlink:href="#DejaVuSans-69" x="466.210938"/>
      <use xlink:href="#DejaVuSans-64" x="493.994141"/>
      <use xlink:href="#DejaVuSans-20" x="557.470703"/>
      <use xlink:href="#DejaVuSans-66" x="589.257812"/>
      <use xlink:href="#DejaVuSans-72" x="624.462891"/>
      <use xlink:href="#DejaVuSans-65" x="663.326172"/>
      <use xlink:href="#DejaVuSans-71" x="724.849609"/>
      <use xlink:href="#DejaVuSans-75" x="788.326172"/>
      <use xlink:href="#DejaVuSans-65" x="851.705078"/>
      <use xlink:href="#DejaVuSans-6e" x="913.228516"/>
      <use xlink:href="#DejaVuSans-63" x="976.607422"/>
      <use xlink:href="#DejaVuSans-79" x="1031.587891"/>
     </g>
    </g>
   </g>
   <g id="line2d_11">
    <path d="M 68.260633 259.757985 
L 71.92061 258.313147 
L 75.580586 256.868309 
L 79.240562 255.42347 
L 82.900539 253.978632 
L 86.560515 252.533794 
L 90.220491 251.088956 
L 93.880468 249.644117 
L 97.540444 248.199279 
L 101.200421 246.754441 
L 104.860397 245.309603 
L 108.520373 243.864765 
L 112.18035 242.419926 
L 115.840326 240.975088 
L 119.500303 239.53025 
L 123.160279 238.085412 
L 126.820255 236.640573 
L 130.480232 235.195735 
L 134.140208 233.750897 
L 137.800184 232.306059 
L 141.460161 230.86122 
L 145.120137 229.416382 
L 148.780114 227.971544 
L 152.44009 226.526706 
L 156.100066 225.081867 
L 159.760043 223.637029 
L 163.420019 222.192191 
L 167.079996 220.747353 
L 170.739972 219.302515 
L 174.399948 217.857676 
L 178.059925 216.412838 
L 181.719901 214.968 
L 185.379878 213.523162 
L 189.039854 212.078323 
L 192.69983 210.633485 
L 196.359807 209.188647 
L 200.019783 207.743809 
L 203.679759 206.29897 
L 207.339736 204.854132 
L 210.999712 203.409294 
L 214.659689 201.964456 
L 218.319665 200.519618 
L 221.979641 199.074779 
L 225.639618 197.629941 
L 229.299594 196.185103 
L 232.959571 194.740265 
L 236.619547 193.295426 
L 240.279523 191.850588 
L 243.9395 190.40575 
L 247.599476 188.960912 
L 251.259452 187.516073 
L 254.919429 186.071235 
L 258.579405 184.626397 
L 262.239382 183.181559 
L 265.899358 181.73672 
L 269.559334 180.291882 
L 273.219311 178.847044 
L 276.879287 177.402206 
L 280.539264 175.957368 
L 284.19924 174.512529 
L 287.859216 173.067691 
L 291.519193 171.622853 
L 295.179169 170.178015 
L 298.839146 168.733176 
L 302.499122 167.288338 
L 306.159098 165.8435 
L 309.819075 164.398662 
L 313.479051 162.953823 
L 317.139027 161.508985 
L 320.799004 160.064147 
L 324.45898 158.619309 
L 328.118957 157.174471 
L 331.778933 155.729632 
L 335.438909 154.284794 
L 339.098886 152.839956 
L 342.758862 151.395118 
L 346.418839 149.950279 
L 350.078815 148.505441 
L 353.738791 147.060603 
L 357.398768 145.615765 
L 361.058744 144.170926 
L 364.71872 142.726088 
L 368.378697 141.28125 
L 372.038673 139.836412 
L 375.69865 138.391574 
L 379.358626 136.946735 
L 383.018602 135.501897 
L 386.678579 134.057059 
L 390.338555 132.612221 
L 393.998532 131.167382 
L 397.658508 129.722544 
L 401.318484 128.277706 
L 404.978461 126.832868 
L 408.638437 125.388029 
L 412.298414 123.943191 
L 415.95839 122.498353 
L 419.618366 121.053515 
L 423.278343 119.608676 
L 426.938319 118.163838 
L 430.598295 116.719 
" clip-path="url(#pe958b8566f)" style="fill: none; stroke: #ffa500; stroke-width: 2.25; stroke-linecap: square"/>
   </g>
   <g id="patch_3">
    <path d="M 50.14375 309.6 
L 50.14375 57.6 
" style="fill: none; stroke: #000000; stroke-width: 0.8; stroke-linejoin: miter; stroke-linecap: square"/>
   </g>
   <g id="patch_4">
    <path d="M 448.715179 309.6 
L 448.715179 57.6 
" style="fill: none; stroke: #000000; stroke-width: 0.8; stroke-linejoin: miter; stroke-linecap: square"/>
   </g>
   <g id="patch_5">
    <path d="M 50.14375 309.6 
L 448.715179 309.6 
" style="fill: none; stroke: #000000; stroke-width: 0.8; stroke-linejoin: miter; stroke-linecap: square"/>
   </g>
   <g id="patch_6">
    <path d="M 50.14375 57.6 
L 448.715179 57.6 
" style="fill: none; stroke: #000000; stroke-width: 0.8; stroke-linejoin: miter; stroke-linecap: square"/>
   </g>
  </g>
  <g id="axes_2">
   <g id="patch_7">
    <path d="M 488.572321 309.6 
L 887.14375 309.6 
L 887.14375 57.6 
L 488.572321 57.6 
z
" style="fill: #ffffff"/>
   </g>
   <g id="PathCollection_2">
    <g clip-path="url(#pfc790178d6)">
     <use xlink:href="#mb156e4ff23" x="506.689205" y="266.636214" style="fill: #1f77b4; fill-opacity: 0.8; stroke: #1f77b4; stroke-opacity: 0.8"/>
     <use xlink:href="#mb156e4ff23" x="506.689205" y="298.145455" style="fill: #1f77b4; fill-opacity: 0.8; stroke: #1f77b4; stroke-opacity: 0.8"/>
     <use xlink:href="#mb156e4ff23" x="567.078815" y="285.988337" style="fill: #1f77b4; fill-opacity: 0.8; stroke: #1f77b4; stroke-opacity: 0.8"/>
     <use xlink:href="#mb156e4ff23" x="567.078815" y="206.617197" style="fill: #1f77b4; fill-opacity: 0.8; stroke: #1f77b4; stroke-opacity: 0.8"/>
     <use xlink:href="#mb156e4ff23" x="567.078815" y="189.492345" style="fill: #1f77b4; fill-opacity: 0.8; stroke: #1f77b4; stroke-opacity: 0.8"/>
     <use xlink:href="#mb156e4ff23" x="567.078815" y="227.205614" style="fill: #1f77b4; fill-opacity: 0.8; stroke: #1f77b4; stroke-opacity: 0.8"/>
     <use xlink:href="#mb156e4ff23" x="567.078815" y="274.006766" style="fill: #1f77b4; fill-opacity: 0.8; stroke: #1f77b4; stroke-opacity: 0.8"/>
     <use xlink:href="#mb156e4ff23" x="567.078815" y="190.730398" style="fill: #1f77b4; fill-opacity: 0.8; stroke: #1f77b4; stroke-opacity: 0.8"/>
     <use xlink:href="#mb156e4ff23" x="567.078815" y="227.400011" style="fill: #1f77b4; fill-opacity: 0.8; stroke: #1f77b4; stroke-opacity: 0.8"/>
     <use xlink:href="#mb156e4ff23" x="567.078815" y="237.729716" style="fill: #1f77b4; fill-opacity: 0.8; stroke: #1f77b4; stroke-opacity: 0.8"/>
     <use xlink:href="#mb156e4ff23" x="567.078815" y="253.668756" style="fill: #1f77b4; fill-opacity: 0.8; stroke: #1f77b4; stroke-opacity: 0.8"/>
     <use xlink:href="#mb156e4ff23" x="627.468425" y="199.47448" style="fill: #1f77b4; fill-opacity: 0.8; stroke: #1f77b4; stroke-opacity: 0.8"/>
     <use xlink:href="#mb156e4ff23" x="687.858036" y="142.067052" style="fill: #1f77b4; fill-opacity: 0.8; stroke: #1f77b4; stroke-opacity: 0.8"/>
     <use xlink:href="#mb156e4ff23" x="687.858036" y="166.940541" style="fill: #1f77b4; fill-opacity: 0.8; stroke: #1f77b4; stroke-opacity: 0.8"/>
     <use xlink:href="#mb156e4ff23" x="687.858036" y="209.109575" style="fill: #1f77b4; fill-opacity: 0.8; stroke: #1f77b4; stroke-opacity: 0.8"/>
     <use xlink:href="#mb156e4ff23" x="687.858036" y="193.495725" style="fill: #1f77b4; fill-opacity: 0.8; stroke: #1f77b4; stroke-opacity: 0.8"/>
     <use xlink:href="#mb156e4ff23" x="687.858036" y="172.117365" style="fill: #1f77b4; fill-opacity: 0.8; stroke: #1f77b4; stroke-opacity: 0.8"/>
     <use xlink:href="#mb156e4ff23" x="869.026867" y="97.995057" style="fill: #1f77b4; fill-opacity: 0.8; stroke: #1f77b4; stroke-opacity: 0.8"/>
     <use xlink:href="#mb156e4ff23" x="808.637256" y="209.053737" style="fill: #1f77b4; fill-opacity: 0.8; stroke: #1f77b4; stroke-opacity: 0.8"/>
     <use xlink:href="#mb156e4ff23" x="748.247646" y="150.771932" style="fill: #1f77b4; fill-opacity: 0.8; stroke: #1f77b4; stroke-opacity: 0.8"/>
    </g>
   </g>
   <g id="PolyCollection_2">
    <path d="M 506.689205 232.493277 
L 506.689205 281.958261 
L 510.349181 279.938013 
L 514.009157 277.946014 
L 517.669134 275.896499 
L 521.32911 273.876193 
L 524.989086 271.918167 
L 528.649063 269.97478 
L 532.309039 268.03637 
L 535.969016 266.094009 
L 539.628992 264.21259 
L 543.288968 262.356017 
L 546.948945 260.431577 
L 550.608921 258.494994 
L 554.268898 256.862383 
L 557.928874 254.923261 
L 561.58885 253.120329 
L 565.248827 251.374784 
L 568.908803 249.663325 
L 572.56878 247.89048 
L 576.228756 246.338863 
L 579.888732 244.68559 
L 583.548709 243.107459 
L 587.208685 241.457492 
L 590.868661 240.034555 
L 594.528638 238.381637 
L 598.188614 236.608856 
L 601.848591 235.176145 
L 605.508567 233.589558 
L 609.168543 231.921376 
L 612.82852 230.678304 
L 616.488496 229.1778 
L 620.148473 227.534011 
L 623.808449 226.160502 
L 627.468425 224.925915 
L 631.128402 223.534817 
L 634.788378 222.158644 
L 638.448354 220.740852 
L 642.108331 219.555096 
L 645.768307 218.758288 
L 649.428284 217.610451 
L 653.08826 216.37173 
L 656.748236 215.126567 
L 660.408213 213.934824 
L 664.068189 212.834521 
L 667.728166 211.599759 
L 671.388142 210.408394 
L 675.048118 209.339994 
L 678.708095 208.250117 
L 682.368071 207.242419 
L 686.028048 206.255544 
L 689.688024 205.368194 
L 693.348 204.459071 
L 697.007977 203.566616 
L 700.667953 202.644271 
L 704.327929 201.836937 
L 707.987906 201.232685 
L 711.647882 200.389827 
L 715.307859 199.651838 
L 718.967835 198.551478 
L 722.627811 197.387545 
L 726.287788 196.403993 
L 729.947764 195.858251 
L 733.607741 195.176691 
L 737.267717 194.606289 
L 740.927693 193.397144 
L 744.58767 192.431163 
L 748.247646 191.851092 
L 751.907622 191.268684 
L 755.567599 190.680351 
L 759.227575 189.96295 
L 762.887552 188.88936 
L 766.547528 187.805118 
L 770.207504 186.847875 
L 773.867481 186.295213 
L 777.527457 185.416425 
L 781.187434 184.39204 
L 784.84741 183.658015 
L 788.507386 183.094233 
L 792.167363 182.502156 
L 795.827339 181.427438 
L 799.487316 180.654798 
L 803.147292 179.920605 
L 806.807268 178.988553 
L 810.467245 178.056501 
L 814.127221 177.12079 
L 817.787197 176.183293 
L 821.447174 175.303068 
L 825.10715 174.609196 
L 828.767127 173.916459 
L 832.427103 173.183368 
L 836.087079 172.131205 
L 839.747056 171.129799 
L 843.407032 170.202918 
L 847.067009 169.276036 
L 850.726985 168.349155 
L 854.386961 167.416464 
L 858.046938 166.481293 
L 861.706914 165.634975 
L 865.36689 164.798127 
L 869.026867 163.96128 
L 869.026867 69.054545 
L 869.026867 69.054545 
L 865.36689 71.084348 
L 861.706914 73.114151 
L 858.046938 75.143954 
L 854.386961 77.187909 
L 850.726985 79.30158 
L 847.067009 81.228179 
L 843.407032 83.25102 
L 839.747056 85.273861 
L 836.087079 87.296703 
L 832.427103 89.319544 
L 828.767127 91.345825 
L 825.10715 93.374687 
L 821.447174 95.403549 
L 817.787197 97.432411 
L 814.127221 99.461273 
L 810.467245 101.467305 
L 806.807268 103.38828 
L 803.147292 105.341409 
L 799.487316 107.503247 
L 795.827339 109.605583 
L 792.167363 111.634445 
L 788.507386 113.663307 
L 784.84741 115.664275 
L 781.187434 117.600402 
L 777.527457 119.630306 
L 773.867481 121.715774 
L 770.207504 123.787495 
L 766.547528 125.832595 
L 762.887552 127.859342 
L 759.227575 129.887446 
L 755.567599 131.971033 
L 751.907622 134.177086 
L 748.247646 136.257089 
L 744.58767 138.341104 
L 740.927693 140.487864 
L 737.267717 142.634624 
L 733.607741 144.599308 
L 729.947764 146.734841 
L 726.287788 148.870373 
L 722.627811 151.005905 
L 718.967835 153.141437 
L 715.307859 155.27697 
L 711.647882 157.412502 
L 707.987906 159.376642 
L 704.327929 161.215878 
L 700.667953 163.158832 
L 697.007977 165.118924 
L 693.348 167.165907 
L 689.688024 168.898377 
L 686.028048 170.783476 
L 682.368071 172.467951 
L 678.708095 174.366786 
L 675.048118 176.132093 
L 671.388142 178.011573 
L 667.728166 179.547248 
L 664.068189 181.426466 
L 660.408213 182.894612 
L 656.748236 184.489324 
L 653.08826 186.198419 
L 649.428284 187.884244 
L 645.768307 189.540421 
L 642.108331 191.395585 
L 638.448354 192.965958 
L 634.788378 194.397752 
L 631.128402 195.731565 
L 627.468425 197.299179 
L 623.808449 198.880179 
L 620.148473 200.204699 
L 616.488496 201.324454 
L 612.82852 202.926509 
L 609.168543 204.153715 
L 605.508567 205.423436 
L 601.848591 206.5637 
L 598.188614 207.881072 
L 594.528638 208.834844 
L 590.868661 210.014699 
L 587.208685 211.324809 
L 583.548709 212.448391 
L 579.888732 213.571974 
L 576.228756 214.695557 
L 572.56878 215.713587 
L 568.908803 216.911803 
L 565.248827 217.980307 
L 561.58885 218.924179 
L 557.928874 219.856909 
L 554.268898 220.79521 
L 550.608921 221.725665 
L 546.948945 222.61338 
L 543.288968 223.527221 
L 539.628992 224.171963 
L 535.969016 225.054563 
L 532.309039 225.79317 
L 528.649063 226.829771 
L 524.989086 227.780087 
L 521.32911 228.606077 
L 517.669134 229.50449 
L 514.009157 230.504028 
L 510.349181 231.484194 
L 506.689205 232.493277 
z
" clip-path="url(#pfc790178d6)" style="fill: #ffa500; fill-opacity: 0.15"/>
   </g>
   <g id="matplotlib.axis_3">
    <g id="xtick_6">
     <g id="line2d_12">
      <g>
       <use xlink:href="#m1760c3eaeb" x="519.974919" y="309.6" style="stroke: #000000; stroke-width: 0.8"/>
      </g>
     </g>
     <g id="text_13">
      <!-- 0.02 -->
      <g transform="translate(508.842106 324.198437) scale(0.1 -0.1)">
       <use xlink:href="#DejaVuSans-30"/>
       <use xlink:href="#DejaVuSans-2e" x="63.623047"/>
       <use xlink:href="#DejaVuSans-30" x="95.410156"/>
       <use xlink:href="#DejaVuSans-32" x="159.033203"/>
      </g>
     </g>
    </g>
    <g id="xtick_7">
     <g id="line2d_13">
      <g>
       <use xlink:href="#m1760c3eaeb" x="593.650244" y="309.6" style="stroke: #000000; stroke-width: 0.8"/>
      </g>
     </g>
     <g id="text_14">
      <!-- 0.04 -->
      <g transform="translate(582.517431 324.198437) scale(0.1 -0.1)">
       <use xlink:href="#DejaVuSans-30"/>
       <use xlink:href="#DejaVuSans-2e" x="63.623047"/>
       <use xlink:href="#DejaVuSans-30" x="95.410156"/>
       <use xlink:href="#DejaVuSans-34" x="159.033203"/>
      </g>
     </g>
    </g>
    <g id="xtick_8">
     <g id="line2d_14">
      <g>
       <use xlink:href="#m1760c3eaeb" x="667.325568" y="309.6" style="stroke: #000000; stroke-width: 0.8"/>
      </g>
     </g>
     <g id="text_15">
      <!-- 0.06 -->
      <g transform="translate(656.192756 324.198437) scale(0.1 -0.1)">
       <use xlink:href="#DejaVuSans-30"/>
       <use xlink:href="#DejaVuSans-2e" x="63.623047"/>
       <use xlink:href="#DejaVuSans-30" x="95.410156"/>
       <use xlink:href="#DejaVuSans-36" x="159.033203"/>
      </g>
     </g>
    </g>
    <g id="xtick_9">
     <g id="line2d_15">
      <g>
       <use xlink:href="#m1760c3eaeb" x="741.000893" y="309.6" style="stroke: #000000; stroke-width: 0.8"/>
      </g>
     </g>
     <g id="text_16">
      <!-- 0.08 -->
      <g transform="translate(729.86808 324.198437) scale(0.1 -0.1)">
       <use xlink:href="#DejaVuSans-30"/>
       <use xlink:href="#DejaVuSans-2e" x="63.623047"/>
       <use xlink:href="#DejaVuSans-30" x="95.410156"/>
       <use xlink:href="#DejaVuSans-38" x="159.033203"/>
      </g>
     </g>
    </g>
    <g id="xtick_10">
     <g id="line2d_16">
      <g>
       <use xlink:href="#m1760c3eaeb" x="814.676218" y="309.6" style="stroke: #000000; stroke-width: 0.8"/>
      </g>
     </g>
     <g id="text_17">
      <!-- 0.10 -->
      <g transform="translate(803.543405 324.198437) scale(0.1 -0.1)">
       <use xlink:href="#DejaVuSans-30"/>
       <use xlink:href="#DejaVuSans-2e" x="63.623047"/>
       <use xlink:href="#DejaVuSans-31" x="95.410156"/>
       <use xlink:href="#DejaVuSans-30" x="159.033203"/>
      </g>
     </g>
    </g>
    <g id="text_18">
     <!-- Codon+Cost -->
     <g transform="translate(656.599442 337.876562) scale(0.1 -0.1)">
      <defs>
       <path id="DejaVuSans-2b" d="M 2944 4013 
L 2944 2272 
L 4684 2272 
L 4684 1741 
L 2944 1741 
L 2944 0 
L 2419 0 
L 2419 1741 
L 678 1741 
L 678 2272 
L 2419 2272 
L 2419 4013 
L 2944 4013 
z
" transform="scale(0.015625)"/>
       <path id="DejaVuSans-73" d="M 2834 3397 
L 2834 2853 
Q 2591 2978 2328 3040 
Q 2066 3103 1784 3103 
Q 1356 3103 1142 2972 
Q 928 2841 928 2578 
Q 928 2378 1081 2264 
Q 1234 2150 1697 2047 
L 1894 2003 
Q 2506 1872 2764 1633 
Q 3022 1394 3022 966 
Q 3022 478 2636 193 
Q 2250 -91 1575 -91 
Q 1294 -91 989 -36 
Q 684 19 347 128 
L 347 722 
Q 666 556 975 473 
Q 1284 391 1588 391 
Q 1994 391 2212 530 
Q 2431 669 2431 922 
Q 2431 1156 2273 1281 
Q 2116 1406 1581 1522 
L 1381 1569 
Q 847 1681 609 1914 
Q 372 2147 372 2553 
Q 372 3047 722 3315 
Q 1072 3584 1716 3584 
Q 2034 3584 2315 3537 
Q 2597 3491 2834 3397 
z
" transform="scale(0.015625)"/>
       <path id="DejaVuSans-74" d="M 1172 4494 
L 1172 3500 
L 2356 3500 
L 2356 3053 
L 1172 3053 
L 1172 1153 
Q 1172 725 1289 603 
Q 1406 481 1766 481 
L 2356 481 
L 2356 0 
L 1766 0 
Q 1100 0 847 248 
Q 594 497 594 1153 
L 594 3053 
L 172 3053 
L 172 3500 
L 594 3500 
L 594 4494 
L 1172 4494 
z
" transform="scale(0.015625)"/>
      </defs>
      <use xlink:href="#DejaVuSans-43"/>
      <use xlink:href="#DejaVuSans-6f" x="69.824219"/>
      <use xlink:href="#DejaVuSans-64" x="131.005859"/>
      <use xlink:href="#DejaVuSans-6f" x="194.482422"/>
      <use xlink:href="#DejaVuSans-6e" x="255.664062"/>
      <use xlink:href="#DejaVuSans-2b" x="319.042969"/>
      <use xlink:href="#DejaVuSans-43" x="402.832031"/>
      <use xlink:href="#DejaVuSans-6f" x="472.65625"/>
      <use xlink:href="#DejaVuSans-73" x="533.837891"/>
      <use xlink:href="#DejaVuSans-74" x="585.9375"/>
     </g>
    </g>
   </g>
   <g id="matplotlib.axis_4">
    <g id="ytick_6">
     <g id="line2d_17">
      <g>
       <use xlink:href="#ma39e62dc60" x="488.572321" y="282.717289" style="stroke: #000000; stroke-width: 0.8"/>
      </g>
     </g>
     <g id="text_19">
      <!-- 0.02 -->
      <g transform="translate(459.306696 286.516508) scale(0.1 -0.1)">
       <use xlink:href="#DejaVuSans-30"/>
       <use xlink:href="#DejaVuSans-2e" x="63.623047"/>
       <use xlink:href="#DejaVuSans-30" x="95.410156"/>
       <use xlink:href="#DejaVuSans-32" x="159.033203"/>
      </g>
     </g>
    </g>
    <g id="ytick_7">
     <g id="line2d_18">
      <g>
       <use xlink:href="#ma39e62dc60" x="488.572321" y="234.193972" style="stroke: #000000; stroke-width: 0.8"/>
      </g>
     </g>
     <g id="text_20">
      <!-- 0.04 -->
      <g transform="translate(459.306696 237.993191) scale(0.1 -0.1)">
       <use xlink:href="#DejaVuSans-30"/>
       <use xlink:href="#DejaVuSans-2e" x="63.623047"/>
       <use xlink:href="#DejaVuSans-30" x="95.410156"/>
       <use xlink:href="#DejaVuSans-34" x="159.033203"/>
      </g>
     </g>
    </g>
    <g id="ytick_8">
     <g id="line2d_19">
      <g>
       <use xlink:href="#ma39e62dc60" x="488.572321" y="185.670655" style="stroke: #000000; stroke-width: 0.8"/>
      </g>
     </g>
     <g id="text_21">
      <!-- 0.06 -->
      <g transform="translate(459.306696 189.469874) scale(0.1 -0.1)">
       <use xlink:href="#DejaVuSans-30"/>
       <use xlink:href="#DejaVuSans-2e" x="63.623047"/>
       <use xlink:href="#DejaVuSans-30" x="95.410156"/>
       <use xlink:href="#DejaVuSans-36" x="159.033203"/>
      </g>
     </g>
    </g>
    <g id="ytick_9">
     <g id="line2d_20">
      <g>
       <use xlink:href="#ma39e62dc60" x="488.572321" y="137.147338" style="stroke: #000000; stroke-width: 0.8"/>
      </g>
     </g>
     <g id="text_22">
      <!-- 0.08 -->
      <g transform="translate(459.306696 140.946557) scale(0.1 -0.1)">
       <use xlink:href="#DejaVuSans-30"/>
       <use xlink:href="#DejaVuSans-2e" x="63.623047"/>
       <use xlink:href="#DejaVuSans-30" x="95.410156"/>
       <use xlink:href="#DejaVuSans-38" x="159.033203"/>
      </g>
     </g>
    </g>
    <g id="ytick_10">
     <g id="line2d_21">
      <g>
       <use xlink:href="#ma39e62dc60" x="488.572321" y="88.624021" style="stroke: #000000; stroke-width: 0.8"/>
      </g>
     </g>
     <g id="text_23">
      <!-- 0.10 -->
      <g transform="translate(459.306696 92.42324) scale(0.1 -0.1)">
       <use xlink:href="#DejaVuSans-30"/>
       <use xlink:href="#DejaVuSans-2e" x="63.623047"/>
       <use xlink:href="#DejaVuSans-31" x="95.410156"/>
       <use xlink:href="#DejaVuSans-30" x="159.033203"/>
      </g>
     </g>
    </g>
   </g>
   <g id="line2d_22">
    <path d="M 506.689205 259.338289 
L 510.349181 257.877654 
L 514.009157 256.417019 
L 517.669134 254.956384 
L 521.32911 253.495749 
L 524.989086 252.035114 
L 528.649063 250.574479 
L 532.309039 249.113844 
L 535.969016 247.65321 
L 539.628992 246.192575 
L 543.288968 244.73194 
L 546.948945 243.271305 
L 550.608921 241.81067 
L 554.268898 240.350035 
L 557.928874 238.8894 
L 561.58885 237.428765 
L 565.248827 235.96813 
L 568.908803 234.507496 
L 572.56878 233.046861 
L 576.228756 231.586226 
L 579.888732 230.125591 
L 583.548709 228.664956 
L 587.208685 227.204321 
L 590.868661 225.743686 
L 594.528638 224.283051 
L 598.188614 222.822416 
L 601.848591 221.361782 
L 605.508567 219.901147 
L 609.168543 218.440512 
L 612.82852 216.979877 
L 616.488496 215.519242 
L 620.148473 214.058607 
L 623.808449 212.597972 
L 627.468425 211.137337 
L 631.128402 209.676702 
L 634.788378 208.216068 
L 638.448354 206.755433 
L 642.108331 205.294798 
L 645.768307 203.834163 
L 649.428284 202.373528 
L 653.08826 200.912893 
L 656.748236 199.452258 
L 660.408213 197.991623 
L 664.068189 196.530988 
L 667.728166 195.070354 
L 671.388142 193.609719 
L 675.048118 192.149084 
L 678.708095 190.688449 
L 682.368071 189.227814 
L 686.028048 187.767179 
L 689.688024 186.306544 
L 693.348 184.845909 
L 697.007977 183.385275 
L 700.667953 181.92464 
L 704.327929 180.464005 
L 707.987906 179.00337 
L 711.647882 177.542735 
L 715.307859 176.0821 
L 718.967835 174.621465 
L 722.627811 173.16083 
L 726.287788 171.700195 
L 729.947764 170.239561 
L 733.607741 168.778926 
L 737.267717 167.318291 
L 740.927693 165.857656 
L 744.58767 164.397021 
L 748.247646 162.936386 
L 751.907622 161.475751 
L 755.567599 160.015116 
L 759.227575 158.554481 
L 762.887552 157.093847 
L 766.547528 155.633212 
L 770.207504 154.172577 
L 773.867481 152.711942 
L 777.527457 151.251307 
L 781.187434 149.790672 
L 784.84741 148.330037 
L 788.507386 146.869402 
L 792.167363 145.408767 
L 795.827339 143.948133 
L 799.487316 142.487498 
L 803.147292 141.026863 
L 806.807268 139.566228 
L 810.467245 138.105593 
L 814.127221 136.644958 
L 817.787197 135.184323 
L 821.447174 133.723688 
L 825.10715 132.263054 
L 828.767127 130.802419 
L 832.427103 129.341784 
L 836.087079 127.881149 
L 839.747056 126.420514 
L 843.407032 124.959879 
L 847.067009 123.499244 
L 850.726985 122.038609 
L 854.386961 120.577974 
L 858.046938 119.11734 
L 861.706914 117.656705 
L 865.36689 116.19607 
L 869.026867 114.735435 
" clip-path="url(#pfc790178d6)" style="fill: none; stroke: #ffa500; stroke-width: 2.25; stroke-linecap: square"/>
   </g>
   <g id="patch_8">
    <path d="M 488.572321 309.6 
L 488.572321 57.6 
" style="fill: none; stroke: #000000; stroke-width: 0.8; stroke-linejoin: miter; stroke-linecap: square"/>
   </g>
   <g id="patch_9">
    <path d="M 887.14375 309.6 
L 887.14375 57.6 
" style="fill: none; stroke: #000000; stroke-width: 0.8; stroke-linejoin: miter; stroke-linecap: square"/>
   </g>
   <g id="patch_10">
    <path d="M 488.572321 309.6 
L 887.14375 309.6 
" style="fill: none; stroke: #000000; stroke-width: 0.8; stroke-linejoin: miter; stroke-linecap: square"/>
   </g>
   <g id="patch_11">
    <path d="M 488.572321 57.6 
L 887.14375 57.6 
" style="fill: none; stroke: #000000; stroke-width: 0.8; stroke-linejoin: miter; stroke-linecap: square"/>
   </g>
  </g>
  <g id="axes_3">
   <g id="patch_12">
    <path d="M 50.14375 612 
L 448.715179 612 
L 448.715179 360 
L 50.14375 360 
z
" style="fill: #ffffff"/>
   </g>
   <g id="PathCollection_3">
    <g clip-path="url(#p03eeee9d5a)">
     <use xlink:href="#mb156e4ff23" x="68.850139" y="568.734597" style="fill: #1f77b4; fill-opacity: 0.8; stroke: #1f77b4; stroke-opacity: 0.8"/>
     <use xlink:href="#mb156e4ff23" x="68.260633" y="600.545455" style="fill: #1f77b4; fill-opacity: 0.8; stroke: #1f77b4; stroke-opacity: 0.8"/>
     <use xlink:href="#mb156e4ff23" x="127.58953" y="588.271965" style="fill: #1f77b4; fill-opacity: 0.8; stroke: #1f77b4; stroke-opacity: 0.8"/>
     <use xlink:href="#mb156e4ff23" x="127.58953" y="508.141058" style="fill: #1f77b4; fill-opacity: 0.8; stroke: #1f77b4; stroke-opacity: 0.8"/>
     <use xlink:href="#mb156e4ff23" x="127.58953" y="490.852281" style="fill: #1f77b4; fill-opacity: 0.8; stroke: #1f77b4; stroke-opacity: 0.8"/>
     <use xlink:href="#mb156e4ff23" x="135.132824" y="528.926554" style="fill: #1f77b4; fill-opacity: 0.8; stroke: #1f77b4; stroke-opacity: 0.8"/>
     <use xlink:href="#mb156e4ff23" x="127.58953" y="576.175702" style="fill: #1f77b4; fill-opacity: 0.8; stroke: #1f77b4; stroke-opacity: 0.8"/>
     <use xlink:href="#mb156e4ff23" x="135.132824" y="492.102185" style="fill: #1f77b4; fill-opacity: 0.8; stroke: #1f77b4; stroke-opacity: 0.8"/>
     <use xlink:href="#mb156e4ff23" x="135.132824" y="529.122812" style="fill: #1f77b4; fill-opacity: 0.8; stroke: #1f77b4; stroke-opacity: 0.8"/>
     <use xlink:href="#mb156e4ff23" x="127.58953" y="539.551396" style="fill: #1f77b4; fill-opacity: 0.8; stroke: #1f77b4; stroke-opacity: 0.8"/>
     <use xlink:href="#mb156e4ff23" x="135.132824" y="555.643011" style="fill: #1f77b4; fill-opacity: 0.8; stroke: #1f77b4; stroke-opacity: 0.8"/>
     <use xlink:href="#mb156e4ff23" x="201.415508" y="500.929969" style="fill: #1f77b4; fill-opacity: 0.8; stroke: #1f77b4; stroke-opacity: 0.8"/>
     <use xlink:href="#mb156e4ff23" x="253.637973" y="442.973018" style="fill: #1f77b4; fill-opacity: 0.8; stroke: #1f77b4; stroke-opacity: 0.8"/>
     <use xlink:href="#mb156e4ff23" x="253.637973" y="468.084604" style="fill: #1f77b4; fill-opacity: 0.8; stroke: #1f77b4; stroke-opacity: 0.8"/>
     <use xlink:href="#mb156e4ff23" x="253.637973" y="510.657294" style="fill: #1f77b4; fill-opacity: 0.8; stroke: #1f77b4; stroke-opacity: 0.8"/>
     <use xlink:href="#mb156e4ff23" x="245.657817" y="494.893983" style="fill: #1f77b4; fill-opacity: 0.8; stroke: #1f77b4; stroke-opacity: 0.8"/>
     <use xlink:href="#mb156e4ff23" x="245.657817" y="473.310982" style="fill: #1f77b4; fill-opacity: 0.8; stroke: #1f77b4; stroke-opacity: 0.8"/>
     <use xlink:href="#mb156e4ff23" x="430.598295" y="398.479151" style="fill: #1f77b4; fill-opacity: 0.8; stroke: #1f77b4; stroke-opacity: 0.8"/>
     <use xlink:href="#mb156e4ff23" x="371.706261" y="510.600921" style="fill: #1f77b4; fill-opacity: 0.8; stroke: #1f77b4; stroke-opacity: 0.8"/>
     <use xlink:href="#mb156e4ff23" x="304.397208" y="451.761223" style="fill: #1f77b4; fill-opacity: 0.8; stroke: #1f77b4; stroke-opacity: 0.8"/>
    </g>
   </g>
   <g id="PolyCollection_3">
    <path d="M 68.260633 535.078904 
L 68.260633 583.833696 
L 71.92061 582.032506 
L 75.580586 580.09888 
L 79.240562 578.084502 
L 82.900539 576.230212 
L 86.560515 574.296447 
L 90.220491 572.470642 
L 93.880468 570.696723 
L 97.540444 568.89663 
L 101.200421 566.868221 
L 104.860397 565.077693 
L 108.520373 563.351924 
L 112.18035 561.514332 
L 115.840326 559.635086 
L 119.500303 557.693893 
L 123.160279 556.131262 
L 126.820255 554.399799 
L 130.480232 552.671664 
L 134.140208 550.798384 
L 137.800184 549.042569 
L 141.460161 547.260888 
L 145.120137 545.483017 
L 148.780114 543.98602 
L 152.44009 542.49914 
L 156.100066 540.876659 
L 159.760043 539.330801 
L 163.420019 537.900873 
L 167.079996 536.174759 
L 170.739972 534.763709 
L 174.399948 533.026777 
L 178.059925 531.557766 
L 181.719901 529.961657 
L 185.379878 528.624879 
L 189.039854 527.205783 
L 192.69983 525.961616 
L 196.359807 524.764999 
L 200.019783 523.564091 
L 203.679759 522.388481 
L 207.339736 521.302414 
L 210.999712 520.062853 
L 214.659689 518.72061 
L 218.319665 517.382838 
L 221.979641 516.272292 
L 225.639618 515.057271 
L 229.299594 513.600931 
L 232.959571 512.463303 
L 236.619547 511.325675 
L 240.279523 510.329332 
L 243.9395 509.374365 
L 247.599476 508.286599 
L 251.259452 507.380018 
L 254.919429 506.560496 
L 258.579405 505.612025 
L 262.239382 504.454024 
L 265.899358 503.652779 
L 269.559334 502.902357 
L 273.219311 501.817339 
L 276.879287 501.01431 
L 280.539264 500.412086 
L 284.19924 499.551085 
L 287.859216 498.68409 
L 291.519193 497.814517 
L 295.179169 496.867601 
L 298.839146 495.751423 
L 302.499122 494.630569 
L 306.159098 493.846109 
L 309.819075 493.104411 
L 313.479051 492.244744 
L 317.139027 491.226383 
L 320.799004 490.201969 
L 324.45898 489.177554 
L 328.118957 488.153139 
L 331.778933 487.128725 
L 335.438909 486.10431 
L 339.098886 485.079896 
L 342.758862 484.055481 
L 346.418839 483.031067 
L 350.078815 482.103258 
L 353.738791 481.190561 
L 357.398768 480.158953 
L 361.058744 479.127346 
L 364.71872 478.095738 
L 368.378697 477.282393 
L 372.038673 476.494253 
L 375.69865 475.702938 
L 379.358626 474.8653 
L 383.018602 473.749545 
L 386.678579 472.648492 
L 390.338555 471.941689 
L 393.998532 471.23081 
L 397.658508 470.517264 
L 401.318484 469.552582 
L 404.978461 468.870989 
L 408.638437 468.189396 
L 412.298414 467.491234 
L 415.95839 466.501011 
L 419.618366 465.628583 
L 423.278343 465.016717 
L 426.938319 464.068814 
L 430.598295 463.034132 
L 430.598295 371.454545 
L 430.598295 371.454545 
L 426.938319 373.582382 
L 423.278343 375.716086 
L 419.618366 377.778639 
L 415.95839 379.841193 
L 412.298414 381.903746 
L 408.638437 383.966299 
L 404.978461 386.028853 
L 401.318484 388.095583 
L 397.658508 390.174921 
L 393.998532 392.254259 
L 390.338555 394.333598 
L 386.678579 396.412936 
L 383.018602 398.492567 
L 379.358626 400.574244 
L 375.69865 402.65244 
L 372.038673 404.730288 
L 368.378697 406.809626 
L 364.71872 408.888964 
L 361.058744 410.921043 
L 357.398768 412.895454 
L 353.738791 414.962552 
L 350.078815 416.960825 
L 346.418839 419.089975 
L 342.758862 421.246475 
L 339.098886 423.233829 
L 335.438909 425.209297 
L 331.778933 427.269179 
L 328.118957 429.329061 
L 324.45898 431.388943 
L 320.799004 433.38701 
L 317.139027 435.122412 
L 313.479051 437.041662 
L 309.819075 438.90486 
L 306.159098 440.714216 
L 302.499122 442.524753 
L 298.839146 444.561102 
L 295.179169 446.709784 
L 291.519193 448.858484 
L 287.859216 450.782947 
L 284.19924 452.568468 
L 280.539264 454.652995 
L 276.879287 456.655964 
L 273.219311 458.587095 
L 269.559334 460.447981 
L 265.899358 462.449359 
L 262.239382 464.313294 
L 258.579405 466.168121 
L 254.919429 468.115006 
L 251.259452 469.869314 
L 247.599476 471.847978 
L 243.9395 473.574828 
L 240.279523 475.421095 
L 236.619547 477.272342 
L 232.959571 478.994389 
L 229.299594 480.971838 
L 225.639618 482.221206 
L 221.979641 483.767091 
L 218.319665 485.590741 
L 214.659689 487.114612 
L 210.999712 488.640975 
L 207.339736 490.172275 
L 203.679759 491.698558 
L 200.019783 493.256036 
L 196.359807 494.908289 
L 192.69983 496.573118 
L 189.039854 498.230043 
L 185.379878 499.58911 
L 181.719901 500.853403 
L 178.059925 502.376877 
L 174.399948 504.098896 
L 170.739972 505.668832 
L 167.079996 506.94238 
L 163.420019 508.272348 
L 159.760043 509.698427 
L 156.100066 511.118452 
L 152.44009 512.404769 
L 148.780114 513.825131 
L 145.120137 515.064198 
L 141.460161 516.290392 
L 137.800184 517.62436 
L 134.140208 518.437784 
L 130.480232 519.253482 
L 126.820255 520.462511 
L 123.160279 521.383464 
L 119.500303 522.524002 
L 115.840326 523.774113 
L 112.18035 524.663465 
L 108.520373 525.554916 
L 104.860397 526.212871 
L 101.200421 526.978189 
L 97.540444 527.754451 
L 93.880468 528.544402 
L 90.220491 529.398182 
L 86.560515 530.19478 
L 82.900539 530.992264 
L 79.240562 531.869463 
L 75.580586 532.745236 
L 71.92061 533.858203 
L 68.260633 535.078904 
z
" clip-path="url(#p03eeee9d5a)" style="fill: #ffa500; fill-opacity: 0.15"/>
   </g>
   <g id="matplotlib.axis_5">
    <g id="xtick_11">
     <g id="line2d_23">
      <g>
       <use xlink:href="#m1760c3eaeb" x="86.930286" y="612" style="stroke: #000000; stroke-width: 0.8"/>
      </g>
     </g>
     <g id="text_24">
      <!-- 0.02 -->
      <g transform="translate(75.797473 626.598437) scale(0.1 -0.1)">
       <use xlink:href="#DejaVuSans-30"/>
       <use xlink:href="#DejaVuSans-2e" x="63.623047"/>
       <use xlink:href="#DejaVuSans-30" x="95.410156"/>
       <use xlink:href="#DejaVuSans-32" x="159.033203"/>
      </g>
     </g>
    </g>
    <g id="xtick_12">
     <g id="line2d_24">
      <g>
       <use xlink:href="#m1760c3eaeb" x="164.339329" y="612" style="stroke: #000000; stroke-width: 0.8"/>
      </g>
     </g>
     <g id="text_25">
      <!-- 0.04 -->
      <g transform="translate(153.206517 626.598437) scale(0.1 -0.1)">
       <use xlink:href="#DejaVuSans-30"/>
       <use xlink:href="#DejaVuSans-2e" x="63.623047"/>
       <use xlink:href="#DejaVuSans-30" x="95.410156"/>
       <use xlink:href="#DejaVuSans-34" x="159.033203"/>
      </g>
     </g>
    </g>
    <g id="xtick_13">
     <g id="line2d_25">
      <g>
       <use xlink:href="#m1760c3eaeb" x="241.748373" y="612" style="stroke: #000000; stroke-width: 0.8"/>
      </g>
     </g>
     <g id="text_26">
      <!-- 0.06 -->
      <g transform="translate(230.61556 626.598437) scale(0.1 -0.1)">
       <use xlink:href="#DejaVuSans-30"/>
       <use xlink:href="#DejaVuSans-2e" x="63.623047"/>
       <use xlink:href="#DejaVuSans-30" x="95.410156"/>
       <use xlink:href="#DejaVuSans-36" x="159.033203"/>
      </g>
     </g>
    </g>
    <g id="xtick_14">
     <g id="line2d_26">
      <g>
       <use xlink:href="#m1760c3eaeb" x="319.157416" y="612" style="stroke: #000000; stroke-width: 0.8"/>
      </g>
     </g>
     <g id="text_27">
      <!-- 0.08 -->
      <g transform="translate(308.024604 626.598437) scale(0.1 -0.1)">
       <use xlink:href="#DejaVuSans-30"/>
       <use xlink:href="#DejaVuSans-2e" x="63.623047"/>
       <use xlink:href="#DejaVuSans-30" x="95.410156"/>
       <use xlink:href="#DejaVuSans-38" x="159.033203"/>
      </g>
     </g>
    </g>
    <g id="xtick_15">
     <g id="line2d_27">
      <g>
       <use xlink:href="#m1760c3eaeb" x="396.56646" y="612" style="stroke: #000000; stroke-width: 0.8"/>
      </g>
     </g>
     <g id="text_28">
      <!-- 0.10 -->
      <g transform="translate(385.433647 626.598437) scale(0.1 -0.1)">
       <use xlink:href="#DejaVuSans-30"/>
       <use xlink:href="#DejaVuSans-2e" x="63.623047"/>
       <use xlink:href="#DejaVuSans-31" x="95.410156"/>
       <use xlink:href="#DejaVuSans-30" x="159.033203"/>
      </g>
     </g>
    </g>
    <g id="text_29">
     <!-- Codon+GC -->
     <g transform="translate(221.920871 640.276562) scale(0.1 -0.1)">
      <defs>
       <path id="DejaVuSans-47" d="M 3809 666 
L 3809 1919 
L 2778 1919 
L 2778 2438 
L 4434 2438 
L 4434 434 
Q 4069 175 3628 42 
Q 3188 -91 2688 -91 
Q 1594 -91 976 548 
Q 359 1188 359 2328 
Q 359 3472 976 4111 
Q 1594 4750 2688 4750 
Q 3144 4750 3555 4637 
Q 3966 4525 4313 4306 
L 4313 3634 
Q 3963 3931 3569 4081 
Q 3175 4231 2741 4231 
Q 1884 4231 1454 3753 
Q 1025 3275 1025 2328 
Q 1025 1384 1454 906 
Q 1884 428 2741 428 
Q 3075 428 3337 486 
Q 3600 544 3809 666 
z
" transform="scale(0.015625)"/>
      </defs>
      <use xlink:href="#DejaVuSans-43"/>
      <use xlink:href="#DejaVuSans-6f" x="69.824219"/>
      <use xlink:href="#DejaVuSans-64" x="131.005859"/>
      <use xlink:href="#DejaVuSans-6f" x="194.482422"/>
      <use xlink:href="#DejaVuSans-6e" x="255.664062"/>
      <use xlink:href="#DejaVuSans-2b" x="319.042969"/>
      <use xlink:href="#DejaVuSans-47" x="402.832031"/>
      <use xlink:href="#DejaVuSans-43" x="480.322266"/>
     </g>
    </g>
   </g>
   <g id="matplotlib.axis_6">
    <g id="ytick_11">
     <g id="line2d_28">
      <g>
       <use xlink:href="#ma39e62dc60" x="50.14375" y="584.969605" style="stroke: #000000; stroke-width: 0.8"/>
      </g>
     </g>
     <g id="text_30">
      <!-- 0.02 -->
      <g transform="translate(20.878125 588.768824) scale(0.1 -0.1)">
       <use xlink:href="#DejaVuSans-30"/>
       <use xlink:href="#DejaVuSans-2e" x="63.623047"/>
       <use xlink:href="#DejaVuSans-30" x="95.410156"/>
       <use xlink:href="#DejaVuSans-32" x="159.033203"/>
      </g>
     </g>
    </g>
    <g id="ytick_12">
     <g id="line2d_29">
      <g>
       <use xlink:href="#ma39e62dc60" x="50.14375" y="535.981807" style="stroke: #000000; stroke-width: 0.8"/>
      </g>
     </g>
     <g id="text_31">
      <!-- 0.04 -->
      <g transform="translate(20.878125 539.781026) scale(0.1 -0.1)">
       <use xlink:href="#DejaVuSans-30"/>
       <use xlink:href="#DejaVuSans-2e" x="63.623047"/>
       <use xlink:href="#DejaVuSans-30" x="95.410156"/>
       <use xlink:href="#DejaVuSans-34" x="159.033203"/>
      </g>
     </g>
    </g>
    <g id="ytick_13">
     <g id="line2d_30">
      <g>
       <use xlink:href="#ma39e62dc60" x="50.14375" y="486.994009" style="stroke: #000000; stroke-width: 0.8"/>
      </g>
     </g>
     <g id="text_32">
      <!-- 0.06 -->
      <g transform="translate(20.878125 490.793228) scale(0.1 -0.1)">
       <use xlink:href="#DejaVuSans-30"/>
       <use xlink:href="#DejaVuSans-2e" x="63.623047"/>
       <use xlink:href="#DejaVuSans-30" x="95.410156"/>
       <use xlink:href="#DejaVuSans-36" x="159.033203"/>
      </g>
     </g>
    </g>
    <g id="ytick_14">
     <g id="line2d_31">
      <g>
       <use xlink:href="#ma39e62dc60" x="50.14375" y="438.006211" style="stroke: #000000; stroke-width: 0.8"/>
      </g>
     </g>
     <g id="text_33">
      <!-- 0.08 -->
      <g transform="translate(20.878125 441.80543) scale(0.1 -0.1)">
       <use xlink:href="#DejaVuSans-30"/>
       <use xlink:href="#DejaVuSans-2e" x="63.623047"/>
       <use xlink:href="#DejaVuSans-30" x="95.410156"/>
       <use xlink:href="#DejaVuSans-38" x="159.033203"/>
      </g>
     </g>
    </g>
    <g id="ytick_15">
     <g id="line2d_32">
      <g>
       <use xlink:href="#ma39e62dc60" x="50.14375" y="389.018413" style="stroke: #000000; stroke-width: 0.8"/>
      </g>
     </g>
     <g id="text_34">
      <!-- 0.10 -->
      <g transform="translate(20.878125 392.817631) scale(0.1 -0.1)">
       <use xlink:href="#DejaVuSans-30"/>
       <use xlink:href="#DejaVuSans-2e" x="63.623047"/>
       <use xlink:href="#DejaVuSans-31" x="95.410156"/>
       <use xlink:href="#DejaVuSans-30" x="159.033203"/>
      </g>
     </g>
    </g>
    <g id="text_35">
     <!-- Amino acid frequency -->
     <g transform="translate(14.798438 540.539062) rotate(-90) scale(0.1 -0.1)">
      <use xlink:href="#DejaVuSans-41"/>
      <use xlink:href="#DejaVuSans-6d" x="68.408203"/>
      <use xlink:href="#DejaVuSans-69" x="165.820312"/>
      <use xlink:href="#DejaVuSans-6e" x="193.603516"/>
      <use xlink:href="#DejaVuSans-6f" x="256.982422"/>
      <use xlink:href="#DejaVuSans-20" x="318.164062"/>
      <use xlink:href="#DejaVuSans-61" x="349.951172"/>
      <use xlink:href="#DejaVuSans-63" x="411.230469"/>
      <use xlink:href="#DejaVuSans-69" x="466.210938"/>
      <use xlink:href="#DejaVuSans-64" x="493.994141"/>
      <use xlink:href="#DejaVuSans-20" x="557.470703"/>
      <use xlink:href="#DejaVuSans-66" x="589.257812"/>
      <use xlink:href="#DejaVuSans-72" x="624.462891"/>
      <use xlink:href="#DejaVuSans-65" x="663.326172"/>
      <use xlink:href="#DejaVuSans-71" x="724.849609"/>
      <use xlink:href="#DejaVuSans-75" x="788.326172"/>
      <use xlink:href="#DejaVuSans-65" x="851.705078"/>
      <use xlink:href="#DejaVuSans-6e" x="913.228516"/>
      <use xlink:href="#DejaVuSans-63" x="976.607422"/>
      <use xlink:href="#DejaVuSans-79" x="1031.587891"/>
     </g>
    </g>
   </g>
   <g id="line2d_33">
    <path d="M 68.260633 562.65829 
L 71.92061 561.166431 
L 75.580586 559.674571 
L 79.240562 558.182711 
L 82.900539 556.690852 
L 86.560515 555.198992 
L 90.220491 553.707132 
L 93.880468 552.215272 
L 97.540444 550.723413 
L 101.200421 549.231553 
L 104.860397 547.739693 
L 108.520373 546.247834 
L 112.18035 544.755974 
L 115.840326 543.264114 
L 119.500303 541.772254 
L 123.160279 540.280395 
L 126.820255 538.788535 
L 130.480232 537.296675 
L 134.140208 535.804816 
L 137.800184 534.312956 
L 141.460161 532.821096 
L 145.120137 531.329236 
L 148.780114 529.837377 
L 152.44009 528.345517 
L 156.100066 526.853657 
L 159.760043 525.361798 
L 163.420019 523.869938 
L 167.079996 522.378078 
L 170.739972 520.886218 
L 174.399948 519.394359 
L 178.059925 517.902499 
L 181.719901 516.410639 
L 185.379878 514.918779 
L 189.039854 513.42692 
L 192.69983 511.93506 
L 196.359807 510.4432 
L 200.019783 508.951341 
L 203.679759 507.459481 
L 207.339736 505.967621 
L 210.999712 504.475761 
L 214.659689 502.983902 
L 218.319665 501.492042 
L 221.979641 500.000182 
L 225.639618 498.508323 
L 229.299594 497.016463 
L 232.959571 495.524603 
L 236.619547 494.032743 
L 240.279523 492.540884 
L 243.9395 491.049024 
L 247.599476 489.557164 
L 251.259452 488.065305 
L 254.919429 486.573445 
L 258.579405 485.081585 
L 262.239382 483.589725 
L 265.899358 482.097866 
L 269.559334 480.606006 
L 273.219311 479.114146 
L 276.879287 477.622287 
L 280.539264 476.130427 
L 284.19924 474.638567 
L 287.859216 473.146707 
L 291.519193 471.654848 
L 295.179169 470.162988 
L 298.839146 468.671128 
L 302.499122 467.179268 
L 306.159098 465.687409 
L 309.819075 464.195549 
L 313.479051 462.703689 
L 317.139027 461.21183 
L 320.799004 459.71997 
L 324.45898 458.22811 
L 328.118957 456.73625 
L 331.778933 455.244391 
L 335.438909 453.752531 
L 339.098886 452.260671 
L 342.758862 450.768812 
L 346.418839 449.276952 
L 350.078815 447.785092 
L 353.738791 446.293232 
L 357.398768 444.801373 
L 361.058744 443.309513 
L 364.71872 441.817653 
L 368.378697 440.325794 
L 372.038673 438.833934 
L 375.69865 437.342074 
L 379.358626 435.850214 
L 383.018602 434.358355 
L 386.678579 432.866495 
L 390.338555 431.374635 
L 393.998532 429.882776 
L 397.658508 428.390916 
L 401.318484 426.899056 
L 404.978461 425.407196 
L 408.638437 423.915337 
L 412.298414 422.423477 
L 415.95839 420.931617 
L 419.618366 419.439757 
L 423.278343 417.947898 
L 426.938319 416.456038 
L 430.598295 414.964178 
" clip-path="url(#p03eeee9d5a)" style="fill: none; stroke: #ffa500; stroke-width: 2.25; stroke-linecap: square"/>
   </g>
   <g id="patch_13">
    <path d="M 50.14375 612 
L 50.14375 360 
" style="fill: none; stroke: #000000; stroke-width: 0.8; stroke-linejoin: miter; stroke-linecap: square"/>
   </g>
   <g id="patch_14">
    <path d="M 448.715179 612 
L 448.715179 360 
" style="fill: none; stroke: #000000; stroke-width: 0.8; stroke-linejoin: miter; stroke-linecap: square"/>
   </g>
   <g id="patch_15">
    <path d="M 50.14375 612 
L 448.715179 612 
" style="fill: none; stroke: #000000; stroke-width: 0.8; stroke-linejoin: miter; stroke-linecap: square"/>
   </g>
   <g id="patch_16">
    <path d="M 50.14375 360 
L 448.715179 360 
" style="fill: none; stroke: #000000; stroke-width: 0.8; stroke-linejoin: miter; stroke-linecap: square"/>
   </g>
  </g>
  <g id="axes_4">
   <g id="patch_17">
    <path d="M 488.572321 612 
L 887.14375 612 
L 887.14375 360 
L 488.572321 360 
z
" style="fill: #ffffff"/>
   </g>
   <g id="PathCollection_4">
    <g clip-path="url(#pc5fdd599cd)">
     <use xlink:href="#mb156e4ff23" x="507.495563" y="569.301673" style="fill: #1f77b4; fill-opacity: 0.8; stroke: #1f77b4; stroke-opacity: 0.8"/>
     <use xlink:href="#mb156e4ff23" x="506.689205" y="600.545455" style="fill: #1f77b4; fill-opacity: 0.8; stroke: #1f77b4; stroke-opacity: 0.8"/>
     <use xlink:href="#mb156e4ff23" x="566.004626" y="588.490759" style="fill: #1f77b4; fill-opacity: 0.8; stroke: #1f77b4; stroke-opacity: 0.8"/>
     <use xlink:href="#mb156e4ff23" x="566.004626" y="509.788305" style="fill: #1f77b4; fill-opacity: 0.8; stroke: #1f77b4; stroke-opacity: 0.8"/>
     <use xlink:href="#mb156e4ff23" x="566.004626" y="492.807726" style="fill: #1f77b4; fill-opacity: 0.8; stroke: #1f77b4; stroke-opacity: 0.8"/>
     <use xlink:href="#mb156e4ff23" x="574.062475" y="530.203268" style="fill: #1f77b4; fill-opacity: 0.8; stroke: #1f77b4; stroke-opacity: 0.8"/>
     <use xlink:href="#mb156e4ff23" x="566.004626" y="576.610129" style="fill: #1f77b4; fill-opacity: 0.8; stroke: #1f77b4; stroke-opacity: 0.8"/>
     <use xlink:href="#mb156e4ff23" x="574.062475" y="494.035349" style="fill: #1f77b4; fill-opacity: 0.8; stroke: #1f77b4; stroke-opacity: 0.8"/>
     <use xlink:href="#mb156e4ff23" x="574.062475" y="530.396027" style="fill: #1f77b4; fill-opacity: 0.8; stroke: #1f77b4; stroke-opacity: 0.8"/>
     <use xlink:href="#mb156e4ff23" x="566.004626" y="540.638706" style="fill: #1f77b4; fill-opacity: 0.8; stroke: #1f77b4; stroke-opacity: 0.8"/>
     <use xlink:href="#mb156e4ff23" x="574.062475" y="556.443464" style="fill: #1f77b4; fill-opacity: 0.8; stroke: #1f77b4; stroke-opacity: 0.8"/>
     <use xlink:href="#mb156e4ff23" x="640.629388" y="502.705764" style="fill: #1f77b4; fill-opacity: 0.8; stroke: #1f77b4; stroke-opacity: 0.8"/>
     <use xlink:href="#mb156e4ff23" x="690.945727" y="445.781982" style="fill: #1f77b4; fill-opacity: 0.8; stroke: #1f77b4; stroke-opacity: 0.8"/>
     <use xlink:href="#mb156e4ff23" x="690.945727" y="470.445916" style="fill: #1f77b4; fill-opacity: 0.8; stroke: #1f77b4; stroke-opacity: 0.8"/>
     <use xlink:href="#mb156e4ff23" x="690.945727" y="512.259685" style="fill: #1f77b4; fill-opacity: 0.8; stroke: #1f77b4; stroke-opacity: 0.8"/>
     <use xlink:href="#mb156e4ff23" x="683.829111" y="496.777378" style="fill: #1f77b4; fill-opacity: 0.8; stroke: #1f77b4; stroke-opacity: 0.8"/>
     <use xlink:href="#mb156e4ff23" x="683.829111" y="475.579127" style="fill: #1f77b4; fill-opacity: 0.8; stroke: #1f77b4; stroke-opacity: 0.8"/>
     <use xlink:href="#mb156e4ff23" x="869.026867" y="402.081284" style="fill: #1f77b4; fill-opacity: 0.8; stroke: #1f77b4; stroke-opacity: 0.8"/>
     <use xlink:href="#mb156e4ff23" x="808.770212" y="512.204317" style="fill: #1f77b4; fill-opacity: 0.8; stroke: #1f77b4; stroke-opacity: 0.8"/>
     <use xlink:href="#mb156e4ff23" x="742.338174" y="454.413524" style="fill: #1f77b4; fill-opacity: 0.8; stroke: #1f77b4; stroke-opacity: 0.8"/>
    </g>
   </g>
   <g id="PolyCollection_4">
    <path d="M 506.689205 537.732013 
L 506.689205 585.21045 
L 510.349181 583.211415 
L 514.009157 581.243336 
L 517.669134 579.377783 
L 521.32911 577.373494 
L 524.989086 575.432936 
L 528.649063 573.450469 
L 532.309039 571.68207 
L 535.969016 569.513022 
L 539.628992 567.56887 
L 543.288968 565.892708 
L 546.948945 563.92034 
L 550.608921 562.050447 
L 554.268898 560.279646 
L 557.928874 558.328158 
L 561.58885 556.728954 
L 565.248827 555.092619 
L 568.908803 553.300258 
L 572.56878 551.652339 
L 576.228756 550.17327 
L 579.888732 548.149409 
L 583.548709 546.318058 
L 587.208685 544.494318 
L 590.868661 542.877743 
L 594.528638 541.16695 
L 598.188614 539.526573 
L 601.848591 537.836997 
L 605.508567 536.390081 
L 609.168543 534.997579 
L 612.82852 533.514188 
L 616.488496 532.219528 
L 620.148473 530.854514 
L 623.808449 529.650172 
L 627.468425 528.453493 
L 631.128402 527.132864 
L 634.788378 525.388205 
L 638.448354 524.065033 
L 642.108331 522.757245 
L 645.768307 521.72557 
L 649.428284 520.630988 
L 653.08826 519.402705 
L 656.748236 518.076218 
L 660.408213 516.72344 
L 664.068189 516.039623 
L 667.728166 514.6501 
L 671.388142 513.583302 
L 675.048118 512.200993 
L 678.708095 511.110901 
L 682.368071 509.983539 
L 686.028048 508.947627 
L 689.688024 507.91678 
L 693.348 507.005251 
L 697.007977 506.102953 
L 700.667953 505.070451 
L 704.327929 504.093448 
L 707.987906 503.068694 
L 711.647882 502.017617 
L 715.307859 500.938934 
L 718.967835 499.946843 
L 722.627811 498.794702 
L 726.287788 497.690523 
L 729.947764 497.096101 
L 733.607741 496.325302 
L 737.267717 495.595633 
L 740.927693 494.852892 
L 744.58767 493.71378 
L 748.247646 492.450704 
L 751.907622 491.480997 
L 755.567599 490.638371 
L 759.227575 490.278033 
L 762.887552 489.383067 
L 766.547528 488.483946 
L 770.207504 487.581105 
L 773.867481 486.670188 
L 777.527457 485.759272 
L 781.187434 484.848355 
L 784.84741 483.937439 
L 788.507386 483.085833 
L 792.167363 482.369394 
L 795.827339 481.652955 
L 799.487316 480.936517 
L 803.147292 480.220078 
L 806.807268 479.503639 
L 810.467245 478.7872 
L 814.127221 478.070762 
L 817.787197 477.351529 
L 821.447174 476.629095 
L 825.10715 475.904378 
L 828.767127 474.994486 
L 832.427103 473.854851 
L 836.087079 473.101287 
L 839.747056 472.376369 
L 843.407032 471.463824 
L 847.067009 470.526708 
L 850.726985 469.635563 
L 854.386961 468.981932 
L 858.046938 468.328301 
L 861.706914 467.67467 
L 865.36689 467.018288 
L 869.026867 465.959223 
L 869.026867 371.454545 
L 869.026867 371.454545 
L 865.36689 373.62901 
L 861.706914 375.803475 
L 858.046938 377.97794 
L 854.386961 380.152405 
L 850.726985 382.265674 
L 847.067009 384.264025 
L 843.407032 386.262377 
L 839.747056 388.260728 
L 836.087079 390.259079 
L 832.427103 392.263951 
L 828.767127 394.363629 
L 825.10715 396.463308 
L 821.447174 398.563196 
L 817.787197 400.66572 
L 814.127221 402.68408 
L 810.467245 404.71738 
L 806.807268 406.923125 
L 803.147292 408.890905 
L 799.487316 410.841341 
L 795.827339 412.789031 
L 792.167363 414.742188 
L 788.507386 416.772777 
L 784.84741 418.845176 
L 781.187434 420.917575 
L 777.527457 422.990963 
L 773.867481 425.068068 
L 770.207504 427.145555 
L 766.547528 429.223043 
L 762.887552 431.289258 
L 759.227575 433.332817 
L 755.567599 435.277175 
L 751.907622 437.305909 
L 748.247646 439.129574 
L 744.58767 441.106168 
L 740.927693 443.172889 
L 737.267717 445.239611 
L 733.607741 447.256059 
L 729.947764 449.173085 
L 726.287788 450.990458 
L 722.627811 452.971544 
L 718.967835 454.876037 
L 715.307859 456.771262 
L 711.647882 458.664182 
L 707.987906 460.562401 
L 704.327929 462.517997 
L 700.667953 464.723607 
L 697.007977 466.549144 
L 693.348 468.156437 
L 689.688024 470.088094 
L 686.028048 472.093882 
L 682.368071 474.07607 
L 678.708095 475.913118 
L 675.048118 477.77826 
L 671.388142 479.717015 
L 667.728166 481.657541 
L 664.068189 483.498116 
L 660.408213 485.229336 
L 656.748236 487.004117 
L 653.08826 488.909699 
L 649.428284 490.757751 
L 645.768307 492.807034 
L 642.108331 494.375792 
L 638.448354 495.686843 
L 634.788378 497.241122 
L 631.128402 499.034826 
L 627.468425 500.500566 
L 623.808449 502.006826 
L 620.148473 503.459717 
L 616.488496 504.906986 
L 612.82852 506.187034 
L 609.168543 507.372409 
L 605.508567 508.719986 
L 601.848591 509.922192 
L 598.188614 511.507039 
L 594.528638 512.894477 
L 590.868661 513.866434 
L 587.208685 515.251101 
L 583.548709 516.63268 
L 579.888732 517.881458 
L 576.228756 518.681306 
L 572.56878 519.548935 
L 568.908803 520.549374 
L 565.248827 521.611128 
L 561.58885 522.651087 
L 557.928874 524.011027 
L 554.268898 525.149475 
L 550.608921 525.845333 
L 546.948945 526.941702 
L 543.288968 528.038071 
L 539.628992 528.939309 
L 535.969016 530.024067 
L 532.309039 531.327178 
L 528.649063 532.292691 
L 524.989086 533.144184 
L 521.32911 534.188876 
L 517.669134 535.091597 
L 514.009157 536.12407 
L 510.349181 537.016005 
L 506.689205 537.732013 
z
" clip-path="url(#pc5fdd599cd)" style="fill: #ffa500; fill-opacity: 0.15"/>
   </g>
   <g id="matplotlib.axis_7">
    <g id="xtick_16">
     <g id="line2d_34">
      <g>
       <use xlink:href="#m1760c3eaeb" x="521.742442" y="612" style="stroke: #000000; stroke-width: 0.8"/>
      </g>
     </g>
     <g id="text_36">
      <!-- 0.02 -->
      <g transform="translate(510.609629 626.598437) scale(0.1 -0.1)">
       <use xlink:href="#DejaVuSans-30"/>
       <use xlink:href="#DejaVuSans-2e" x="63.623047"/>
       <use xlink:href="#DejaVuSans-30" x="95.410156"/>
       <use xlink:href="#DejaVuSans-32" x="159.033203"/>
      </g>
     </g>
    </g>
    <g id="xtick_17">
     <g id="line2d_35">
      <g>
       <use xlink:href="#m1760c3eaeb" x="595.304742" y="612" style="stroke: #000000; stroke-width: 0.8"/>
      </g>
     </g>
     <g id="text_37">
      <!-- 0.04 -->
      <g transform="translate(584.17193 626.598437) scale(0.1 -0.1)">
       <use xlink:href="#DejaVuSans-30"/>
       <use xlink:href="#DejaVuSans-2e" x="63.623047"/>
       <use xlink:href="#DejaVuSans-30" x="95.410156"/>
       <use xlink:href="#DejaVuSans-34" x="159.033203"/>
      </g>
     </g>
    </g>
    <g id="xtick_18">
     <g id="line2d_36">
      <g>
       <use xlink:href="#m1760c3eaeb" x="668.867042" y="612" style="stroke: #000000; stroke-width: 0.8"/>
      </g>
     </g>
     <g id="text_38">
      <!-- 0.06 -->
      <g transform="translate(657.73423 626.598437) scale(0.1 -0.1)">
       <use xlink:href="#DejaVuSans-30"/>
       <use xlink:href="#DejaVuSans-2e" x="63.623047"/>
       <use xlink:href="#DejaVuSans-30" x="95.410156"/>
       <use xlink:href="#DejaVuSans-36" x="159.033203"/>
      </g>
     </g>
    </g>
    <g id="xtick_19">
     <g id="line2d_37">
      <g>
       <use xlink:href="#m1760c3eaeb" x="742.429343" y="612" style="stroke: #000000; stroke-width: 0.8"/>
      </g>
     </g>
     <g id="text_39">
      <!-- 0.08 -->
      <g transform="translate(731.29653 626.598437) scale(0.1 -0.1)">
       <use xlink:href="#DejaVuSans-30"/>
       <use xlink:href="#DejaVuSans-2e" x="63.623047"/>
       <use xlink:href="#DejaVuSans-30" x="95.410156"/>
       <use xlink:href="#DejaVuSans-38" x="159.033203"/>
      </g>
     </g>
    </g>
    <g id="xtick_20">
     <g id="line2d_38">
      <g>
       <use xlink:href="#m1760c3eaeb" x="815.991643" y="612" style="stroke: #000000; stroke-width: 0.8"/>
      </g>
     </g>
     <g id="text_40">
      <!-- 0.10 -->
      <g transform="translate(804.85883 626.598437) scale(0.1 -0.1)">
       <use xlink:href="#DejaVuSans-30"/>
       <use xlink:href="#DejaVuSans-2e" x="63.623047"/>
       <use xlink:href="#DejaVuSans-31" x="95.410156"/>
       <use xlink:href="#DejaVuSans-30" x="159.033203"/>
      </g>
     </g>
    </g>
    <g id="text_41">
     <!-- Codon+GC+Cost -->
     <g transform="translate(645.043973 640.276562) scale(0.1 -0.1)">
      <use xlink:href="#DejaVuSans-43"/>
      <use xlink:href="#DejaVuSans-6f" x="69.824219"/>
      <use xlink:href="#DejaVuSans-64" x="131.005859"/>
      <use xlink:href="#DejaVuSans-6f" x="194.482422"/>
      <use xlink:href="#DejaVuSans-6e" x="255.664062"/>
      <use xlink:href="#DejaVuSans-2b" x="319.042969"/>
      <use xlink:href="#DejaVuSans-47" x="402.832031"/>
      <use xlink:href="#DejaVuSans-43" x="480.322266"/>
      <use xlink:href="#DejaVuSans-2b" x="550.146484"/>
      <use xlink:href="#DejaVuSans-43" x="633.935547"/>
      <use xlink:href="#DejaVuSans-6f" x="703.759766"/>
      <use xlink:href="#DejaVuSans-73" x="764.941406"/>
      <use xlink:href="#DejaVuSans-74" x="817.041016"/>
     </g>
    </g>
   </g>
   <g id="matplotlib.axis_8">
    <g id="ytick_16">
     <g id="line2d_39">
      <g>
       <use xlink:href="#ma39e62dc60" x="488.572321" y="585.247268" style="stroke: #000000; stroke-width: 0.8"/>
      </g>
     </g>
     <g id="text_42">
      <!-- 0.02 -->
      <g transform="translate(459.306696 589.046487) scale(0.1 -0.1)">
       <use xlink:href="#DejaVuSans-30"/>
       <use xlink:href="#DejaVuSans-2e" x="63.623047"/>
       <use xlink:href="#DejaVuSans-30" x="95.410156"/>
       <use xlink:href="#DejaVuSans-32" x="159.033203"/>
      </g>
     </g>
    </g>
    <g id="ytick_17">
     <g id="line2d_40">
      <g>
       <use xlink:href="#ma39e62dc60" x="488.572321" y="537.132751" style="stroke: #000000; stroke-width: 0.8"/>
      </g>
     </g>
     <g id="text_43">
      <!-- 0.04 -->
      <g transform="translate(459.306696 540.931969) scale(0.1 -0.1)">
       <use xlink:href="#DejaVuSans-30"/>
       <use xlink:href="#DejaVuSans-2e" x="63.623047"/>
       <use xlink:href="#DejaVuSans-30" x="95.410156"/>
       <use xlink:href="#DejaVuSans-34" x="159.033203"/>
      </g>
     </g>
    </g>
    <g id="ytick_18">
     <g id="line2d_41">
      <g>
       <use xlink:href="#ma39e62dc60" x="488.572321" y="489.018233" style="stroke: #000000; stroke-width: 0.8"/>
      </g>
     </g>
     <g id="text_44">
      <!-- 0.06 -->
      <g transform="translate(459.306696 492.817452) scale(0.1 -0.1)">
       <use xlink:href="#DejaVuSans-30"/>
       <use xlink:href="#DejaVuSans-2e" x="63.623047"/>
       <use xlink:href="#DejaVuSans-30" x="95.410156"/>
       <use xlink:href="#DejaVuSans-36" x="159.033203"/>
      </g>
     </g>
    </g>
    <g id="ytick_19">
     <g id="line2d_42">
      <g>
       <use xlink:href="#ma39e62dc60" x="488.572321" y="440.903716" style="stroke: #000000; stroke-width: 0.8"/>
      </g>
     </g>
     <g id="text_45">
      <!-- 0.08 -->
      <g transform="translate(459.306696 444.702934) scale(0.1 -0.1)">
       <use xlink:href="#DejaVuSans-30"/>
       <use xlink:href="#DejaVuSans-2e" x="63.623047"/>
       <use xlink:href="#DejaVuSans-30" x="95.410156"/>
       <use xlink:href="#DejaVuSans-38" x="159.033203"/>
      </g>
     </g>
    </g>
    <g id="ytick_20">
     <g id="line2d_43">
      <g>
       <use xlink:href="#ma39e62dc60" x="488.572321" y="392.789198" style="stroke: #000000; stroke-width: 0.8"/>
      </g>
     </g>
     <g id="text_46">
      <!-- 0.10 -->
      <g transform="translate(459.306696 396.588417) scale(0.1 -0.1)">
       <use xlink:href="#DejaVuSans-30"/>
       <use xlink:href="#DejaVuSans-2e" x="63.623047"/>
       <use xlink:href="#DejaVuSans-31" x="95.410156"/>
       <use xlink:href="#DejaVuSans-30" x="159.033203"/>
      </g>
     </g>
    </g>
   </g>
   <g id="line2d_44">
    <path d="M 506.689205 563.502102 
L 510.349181 562.030291 
L 514.009157 560.55848 
L 517.669134 559.086669 
L 521.32911 557.614858 
L 524.989086 556.143048 
L 528.649063 554.671237 
L 532.309039 553.199426 
L 535.969016 551.727615 
L 539.628992 550.255804 
L 543.288968 548.783994 
L 546.948945 547.312183 
L 550.608921 545.840372 
L 554.268898 544.368561 
L 557.928874 542.89675 
L 561.58885 541.424939 
L 565.248827 539.953129 
L 568.908803 538.481318 
L 572.56878 537.009507 
L 576.228756 535.537696 
L 579.888732 534.065885 
L 583.548709 532.594075 
L 587.208685 531.122264 
L 590.868661 529.650453 
L 594.528638 528.178642 
L 598.188614 526.706831 
L 601.848591 525.23502 
L 605.508567 523.76321 
L 609.168543 522.291399 
L 612.82852 520.819588 
L 616.488496 519.347777 
L 620.148473 517.875966 
L 623.808449 516.404156 
L 627.468425 514.932345 
L 631.128402 513.460534 
L 634.788378 511.988723 
L 638.448354 510.516912 
L 642.108331 509.045101 
L 645.768307 507.573291 
L 649.428284 506.10148 
L 653.08826 504.629669 
L 656.748236 503.157858 
L 660.408213 501.686047 
L 664.068189 500.214237 
L 667.728166 498.742426 
L 671.388142 497.270615 
L 675.048118 495.798804 
L 678.708095 494.326993 
L 682.368071 492.855183 
L 686.028048 491.383372 
L 689.688024 489.911561 
L 693.348 488.43975 
L 697.007977 486.967939 
L 700.667953 485.496128 
L 704.327929 484.024318 
L 707.987906 482.552507 
L 711.647882 481.080696 
L 715.307859 479.608885 
L 718.967835 478.137074 
L 722.627811 476.665264 
L 726.287788 475.193453 
L 729.947764 473.721642 
L 733.607741 472.249831 
L 737.267717 470.77802 
L 740.927693 469.306209 
L 744.58767 467.834399 
L 748.247646 466.362588 
L 751.907622 464.890777 
L 755.567599 463.418966 
L 759.227575 461.947155 
L 762.887552 460.475345 
L 766.547528 459.003534 
L 770.207504 457.531723 
L 773.867481 456.059912 
L 777.527457 454.588101 
L 781.187434 453.11629 
L 784.84741 451.64448 
L 788.507386 450.172669 
L 792.167363 448.700858 
L 795.827339 447.229047 
L 799.487316 445.757236 
L 803.147292 444.285426 
L 806.807268 442.813615 
L 810.467245 441.341804 
L 814.127221 439.869993 
L 817.787197 438.398182 
L 821.447174 436.926371 
L 825.10715 435.454561 
L 828.767127 433.98275 
L 832.427103 432.510939 
L 836.087079 431.039128 
L 839.747056 429.567317 
L 843.407032 428.095507 
L 847.067009 426.623696 
L 850.726985 425.151885 
L 854.386961 423.680074 
L 858.046938 422.208263 
L 861.706914 420.736453 
L 865.36689 419.264642 
L 869.026867 417.792831 
" clip-path="url(#pc5fdd599cd)" style="fill: none; stroke: #ffa500; stroke-width: 2.25; stroke-linecap: square"/>
   </g>
   <g id="patch_18">
    <path d="M 488.572321 612 
L 488.572321 360 
" style="fill: none; stroke: #000000; stroke-width: 0.8; stroke-linejoin: miter; stroke-linecap: square"/>
   </g>
   <g id="patch_19">
    <path d="M 887.14375 612 
L 887.14375 360 
" style="fill: none; stroke: #000000; stroke-width: 0.8; stroke-linejoin: miter; stroke-linecap: square"/>
   </g>
   <g id="patch_20">
    <path d="M 488.572321 612 
L 887.14375 612 
" style="fill: none; stroke: #000000; stroke-width: 0.8; stroke-linejoin: miter; stroke-linecap: square"/>
   </g>
   <g id="patch_21">
    <path d="M 488.572321 360 
L 887.14375 360 
" style="fill: none; stroke: #000000; stroke-width: 0.8; stroke-linejoin: miter; stroke-linecap: square"/>
   </g>
  </g>
  <g id="text_47">
   <!-- Eukaryota - Comparison between amino acid and factor frequencies for genetic code: Scenedesmus -->
   <g transform="translate(78.855859 18.597656) scale(0.15 -0.15)">
    <defs>
     <path id="DejaVuSans-45" d="M 628 4666 
L 3578 4666 
L 3578 4134 
L 1259 4134 
L 1259 2753 
L 3481 2753 
L 3481 2222 
L 1259 2222 
L 1259 531 
L 3634 531 
L 3634 0 
L 628 0 
L 628 4666 
z
" transform="scale(0.015625)"/>
     <path id="DejaVuSans-6b" d="M 581 4863 
L 1159 4863 
L 1159 1991 
L 2875 3500 
L 3609 3500 
L 1753 1863 
L 3688 0 
L 2938 0 
L 1159 1709 
L 1159 0 
L 581 0 
L 581 4863 
z
" transform="scale(0.015625)"/>
     <path id="DejaVuSans-2d" d="M 313 2009 
L 1997 2009 
L 1997 1497 
L 313 1497 
L 313 2009 
z
" transform="scale(0.015625)"/>
     <path id="DejaVuSans-70" d="M 1159 525 
L 1159 -1331 
L 581 -1331 
L 581 3500 
L 1159 3500 
L 1159 2969 
Q 1341 3281 1617 3432 
Q 1894 3584 2278 3584 
Q 2916 3584 3314 3078 
Q 3713 2572 3713 1747 
Q 3713 922 3314 415 
Q 2916 -91 2278 -91 
Q 1894 -91 1617 61 
Q 1341 213 1159 525 
z
M 3116 1747 
Q 3116 2381 2855 2742 
Q 2594 3103 2138 3103 
Q 1681 3103 1420 2742 
Q 1159 2381 1159 1747 
Q 1159 1113 1420 752 
Q 1681 391 2138 391 
Q 2594 391 2855 752 
Q 3116 1113 3116 1747 
z
" transform="scale(0.015625)"/>
     <path id="DejaVuSans-62" d="M 3116 1747 
Q 3116 2381 2855 2742 
Q 2594 3103 2138 3103 
Q 1681 3103 1420 2742 
Q 1159 2381 1159 1747 
Q 1159 1113 1420 752 
Q 1681 391 2138 391 
Q 2594 391 2855 752 
Q 3116 1113 3116 1747 
z
M 1159 2969 
Q 1341 3281 1617 3432 
Q 1894 3584 2278 3584 
Q 2916 3584 3314 3078 
Q 3713 2572 3713 1747 
Q 3713 922 3314 415 
Q 2916 -91 2278 -91 
Q 1894 -91 1617 61 
Q 1341 213 1159 525 
L 1159 0 
L 581 0 
L 581 4863 
L 1159 4863 
L 1159 2969 
z
" transform="scale(0.015625)"/>
     <path id="DejaVuSans-77" d="M 269 3500 
L 844 3500 
L 1563 769 
L 2278 3500 
L 2956 3500 
L 3675 769 
L 4391 3500 
L 4966 3500 
L 4050 0 
L 3372 0 
L 2619 2869 
L 1863 0 
L 1184 0 
L 269 3500 
z
" transform="scale(0.015625)"/>
     <path id="DejaVuSans-67" d="M 2906 1791 
Q 2906 2416 2648 2759 
Q 2391 3103 1925 3103 
Q 1463 3103 1205 2759 
Q 947 2416 947 1791 
Q 947 1169 1205 825 
Q 1463 481 1925 481 
Q 2391 481 2648 825 
Q 2906 1169 2906 1791 
z
M 3481 434 
Q 3481 -459 3084 -895 
Q 2688 -1331 1869 -1331 
Q 1566 -1331 1297 -1286 
Q 1028 -1241 775 -1147 
L 775 -588 
Q 1028 -725 1275 -790 
Q 1522 -856 1778 -856 
Q 2344 -856 2625 -561 
Q 2906 -266 2906 331 
L 2906 616 
Q 2728 306 2450 153 
Q 2172 0 1784 0 
Q 1141 0 747 490 
Q 353 981 353 1791 
Q 353 2603 747 3093 
Q 1141 3584 1784 3584 
Q 2172 3584 2450 3431 
Q 2728 3278 2906 2969 
L 2906 3500 
L 3481 3500 
L 3481 434 
z
" transform="scale(0.015625)"/>
     <path id="DejaVuSans-3a" d="M 750 794 
L 1409 794 
L 1409 0 
L 750 0 
L 750 794 
z
M 750 3309 
L 1409 3309 
L 1409 2516 
L 750 2516 
L 750 3309 
z
" transform="scale(0.015625)"/>
     <path id="DejaVuSans-53" d="M 3425 4513 
L 3425 3897 
Q 3066 4069 2747 4153 
Q 2428 4238 2131 4238 
Q 1616 4238 1336 4038 
Q 1056 3838 1056 3469 
Q 1056 3159 1242 3001 
Q 1428 2844 1947 2747 
L 2328 2669 
Q 3034 2534 3370 2195 
Q 3706 1856 3706 1288 
Q 3706 609 3251 259 
Q 2797 -91 1919 -91 
Q 1588 -91 1214 -16 
Q 841 59 441 206 
L 441 856 
Q 825 641 1194 531 
Q 1563 422 1919 422 
Q 2459 422 2753 634 
Q 3047 847 3047 1241 
Q 3047 1584 2836 1778 
Q 2625 1972 2144 2069 
L 1759 2144 
Q 1053 2284 737 2584 
Q 422 2884 422 3419 
Q 422 4038 858 4394 
Q 1294 4750 2059 4750 
Q 2388 4750 2728 4690 
Q 3069 4631 3425 4513 
z
" transform="scale(0.015625)"/>
    </defs>
    <use xlink:href="#DejaVuSans-45"/>
    <use xlink:href="#DejaVuSans-75" x="63.183594"/>
    <use xlink:href="#DejaVuSans-6b" x="126.5625"/>
    <use xlink:href="#DejaVuSans-61" x="182.722656"/>
    <use xlink:href="#DejaVuSans-72" x="244.001953"/>
    <use xlink:href="#DejaVuSans-79" x="285.115234"/>
    <use xlink:href="#DejaVuSans-6f" x="344.294922"/>
    <use xlink:href="#DejaVuSans-74" x="405.476562"/>
    <use xlink:href="#DejaVuSans-61" x="444.685547"/>
    <use xlink:href="#DejaVuSans-20" x="505.964844"/>
    <use xlink:href="#DejaVuSans-2d" x="537.751953"/>
    <use xlink:href="#DejaVuSans-20" x="573.835938"/>
    <use xlink:href="#DejaVuSans-43" x="605.623047"/>
    <use xlink:href="#DejaVuSans-6f" x="675.447266"/>
    <use xlink:href="#DejaVuSans-6d" x="736.628906"/>
    <use xlink:href="#DejaVuSans-70" x="834.041016"/>
    <use xlink:href="#DejaVuSans-61" x="897.517578"/>
    <use xlink:href="#DejaVuSans-72" x="958.796875"/>
    <use xlink:href="#DejaVuSans-69" x="999.910156"/>
    <use xlink:href="#DejaVuSans-73" x="1027.693359"/>
    <use xlink:href="#DejaVuSans-6f" x="1079.792969"/>
    <use xlink:href="#DejaVuSans-6e" x="1140.974609"/>
    <use xlink:href="#DejaVuSans-20" x="1204.353516"/>
    <use xlink:href="#DejaVuSans-62" x="1236.140625"/>
    <use xlink:href="#DejaVuSans-65" x="1299.617188"/>
    <use xlink:href="#DejaVuSans-74" x="1361.140625"/>
    <use xlink:href="#DejaVuSans-77" x="1400.349609"/>
    <use xlink:href="#DejaVuSans-65" x="1482.136719"/>
    <use xlink:href="#DejaVuSans-65" x="1543.660156"/>
    <use xlink:href="#DejaVuSans-6e" x="1605.183594"/>
    <use xlink:href="#DejaVuSans-20" x="1668.5625"/>
    <use xlink:href="#DejaVuSans-61" x="1700.349609"/>
    <use xlink:href="#DejaVuSans-6d" x="1761.628906"/>
    <use xlink:href="#DejaVuSans-69" x="1859.041016"/>
    <use xlink:href="#DejaVuSans-6e" x="1886.824219"/>
    <use xlink:href="#DejaVuSans-6f" x="1950.203125"/>
    <use xlink:href="#DejaVuSans-20" x="2011.384766"/>
    <use xlink:href="#DejaVuSans-61" x="2043.171875"/>
    <use xlink:href="#DejaVuSans-63" x="2104.451172"/>
    <use xlink:href="#DejaVuSans-69" x="2159.431641"/>
    <use xlink:href="#DejaVuSans-64" x="2187.214844"/>
    <use xlink:href="#DejaVuSans-20" x="2250.691406"/>
    <use xlink:href="#DejaVuSans-61" x="2282.478516"/>
    <use xlink:href="#DejaVuSans-6e" x="2343.757812"/>
    <use xlink:href="#DejaVuSans-64" x="2407.136719"/>
    <use xlink:href="#DejaVuSans-20" x="2470.613281"/>
    <use xlink:href="#DejaVuSans-66" x="2502.400391"/>
    <use xlink:href="#DejaVuSans-61" x="2537.605469"/>
    <use xlink:href="#DejaVuSans-63" x="2598.884766"/>
    <use xlink:href="#DejaVuSans-74" x="2653.865234"/>
    <use xlink:href="#DejaVuSans-6f" x="2693.074219"/>
    <use xlink:href="#DejaVuSans-72" x="2754.255859"/>
    <use xlink:href="#DejaVuSans-20" x="2795.369141"/>
    <use xlink:href="#DejaVuSans-66" x="2827.15625"/>
    <use xlink:href="#DejaVuSans-72" x="2862.361328"/>
    <use xlink:href="#DejaVuSans-65" x="2901.224609"/>
    <use xlink:href="#DejaVuSans-71" x="2962.748047"/>
    <use xlink:href="#DejaVuSans-75" x="3026.224609"/>
    <use xlink:href="#DejaVuSans-65" x="3089.603516"/>
    <use xlink:href="#DejaVuSans-6e" x="3151.126953"/>
    <use xlink:href="#DejaVuSans-63" x="3214.505859"/>
    <use xlink:href="#DejaVuSans-69" x="3269.486328"/>
    <use xlink:href="#DejaVuSans-65" x="3297.269531"/>
    <use xlink:href="#DejaVuSans-73" x="3358.792969"/>
    <use xlink:href="#DejaVuSans-20" x="3410.892578"/>
    <use xlink:href="#DejaVuSans-66" x="3442.679688"/>
    <use xlink:href="#DejaVuSans-6f" x="3477.884766"/>
    <use xlink:href="#DejaVuSans-72" x="3539.066406"/>
    <use xlink:href="#DejaVuSans-20" x="3580.179688"/>
    <use xlink:href="#DejaVuSans-67" x="3611.966797"/>
    <use xlink:href="#DejaVuSans-65" x="3675.443359"/>
    <use xlink:href="#DejaVuSans-6e" x="3736.966797"/>
    <use xlink:href="#DejaVuSans-65" x="3800.345703"/>
    <use xlink:href="#DejaVuSans-74" x="3861.869141"/>
    <use xlink:href="#DejaVuSans-69" x="3901.078125"/>
    <use xlink:href="#DejaVuSans-63" x="3928.861328"/>
    <use xlink:href="#DejaVuSans-20" x="3983.841797"/>
    <use xlink:href="#DejaVuSans-63" x="4015.628906"/>
    <use xlink:href="#DejaVuSans-6f" x="4070.609375"/>
    <use xlink:href="#DejaVuSans-64" x="4131.791016"/>
    <use xlink:href="#DejaVuSans-65" x="4195.267578"/>
    <use xlink:href="#DejaVuSans-3a" x="4256.791016"/>
    <use xlink:href="#DejaVuSans-20" x="4290.482422"/>
    <use xlink:href="#DejaVuSans-53" x="4322.269531"/>
    <use xlink:href="#DejaVuSans-63" x="4385.746094"/>
    <use xlink:href="#DejaVuSans-65" x="4440.726562"/>
    <use xlink:href="#DejaVuSans-6e" x="4502.25"/>
    <use xlink:href="#DejaVuSans-65" x="4565.628906"/>
    <use xlink:href="#DejaVuSans-64" x="4627.152344"/>
    <use xlink:href="#DejaVuSans-65" x="4690.628906"/>
    <use xlink:href="#DejaVuSans-73" x="4752.152344"/>
    <use xlink:href="#DejaVuSans-6d" x="4804.251953"/>
    <use xlink:href="#DejaVuSans-75" x="4901.664062"/>
    <use xlink:href="#DejaVuSans-73" x="4965.042969"/>
   </g>
   <!-- obliquus mitochondrial -->
   <g transform="translate(369.322656 35.394375) scale(0.15 -0.15)">
    <defs>
     <path id="DejaVuSans-6c" d="M 603 4863 
L 1178 4863 
L 1178 0 
L 603 0 
L 603 4863 
z
" transform="scale(0.015625)"/>
     <path id="DejaVuSans-68" d="M 3513 2113 
L 3513 0 
L 2938 0 
L 2938 2094 
Q 2938 2591 2744 2837 
Q 2550 3084 2163 3084 
Q 1697 3084 1428 2787 
Q 1159 2491 1159 1978 
L 1159 0 
L 581 0 
L 581 4863 
L 1159 4863 
L 1159 2956 
Q 1366 3272 1645 3428 
Q 1925 3584 2291 3584 
Q 2894 3584 3203 3211 
Q 3513 2838 3513 2113 
z
" transform="scale(0.015625)"/>
    </defs>
    <use xlink:href="#DejaVuSans-6f"/>
    <use xlink:href="#DejaVuSans-62" x="61.181641"/>
    <use xlink:href="#DejaVuSans-6c" x="124.658203"/>
    <use xlink:href="#DejaVuSans-69" x="152.441406"/>
    <use xlink:href="#DejaVuSans-71" x="180.224609"/>
    <use xlink:href="#DejaVuSans-75" x="243.701172"/>
    <use xlink:href="#DejaVuSans-75" x="307.080078"/>
    <use xlink:href="#DejaVuSans-73" x="370.458984"/>
    <use xlink:href="#DejaVuSans-20" x="422.558594"/>
    <use xlink:href="#DejaVuSans-6d" x="454.345703"/>
    <use xlink:href="#DejaVuSans-69" x="551.757812"/>
    <use xlink:href="#DejaVuSans-74" x="579.541016"/>
    <use xlink:href="#DejaVuSans-6f" x="618.75"/>
    <use xlink:href="#DejaVuSans-63" x="679.931641"/>
    <use xlink:href="#DejaVuSans-68" x="734.912109"/>
    <use xlink:href="#DejaVuSans-6f" x="798.291016"/>
    <use xlink:href="#DejaVuSans-6e" x="859.472656"/>
    <use xlink:href="#DejaVuSans-64" x="922.851562"/>
    <use xlink:href="#DejaVuSans-72" x="986.328125"/>
    <use xlink:href="#DejaVuSans-69" x="1027.441406"/>
    <use xlink:href="#DejaVuSans-61" x="1055.224609"/>
    <use xlink:href="#DejaVuSans-6c" x="1116.503906"/>
   </g>
  </g>
 </g>
 <defs>
  <clipPath id="pe958b8566f">
   <rect x="50.14375" y="57.6" width="398.571429" height="252"/>
  </clipPath>
  <clipPath id="pfc790178d6">
   <rect x="488.572321" y="57.6" width="398.571429" height="252"/>
  </clipPath>
  <clipPath id="p03eeee9d5a">
   <rect x="50.14375" y="360" width="398.571429" height="252"/>
  </clipPath>
  <clipPath id="pc5fdd599cd">
   <rect x="488.572321" y="360" width="398.571429" height="252"/>
  </clipPath>
 </defs>
</svg>
