<?xml version="1.0" encoding="utf-8" standalone="no"?>
<!DOCTYPE svg PUBLIC "-//W3C//DTD SVG 1.1//EN"
  "http://www.w3.org/Graphics/SVG/1.1/DTD/svg11.dtd">
<svg xmlns:xlink="http://www.w3.org/1999/xlink" width="894.34375pt" height="649.55625pt" viewBox="0 0 894.34375 649.55625" xmlns="http://www.w3.org/2000/svg" version="1.1">
 <metadata>
  <rdf:RDF xmlns:dc="http://purl.org/dc/elements/1.1/" xmlns:cc="http://creativecommons.org/ns#" xmlns:rdf="http://www.w3.org/1999/02/22-rdf-syntax-ns#">
   <cc:Work>
    <dc:type rdf:resource="http://purl.org/dc/dcmitype/StillImage"/>
    <dc:date>2024-09-24T17:25:13.860126</dc:date>
    <dc:format>image/svg+xml</dc:format>
    <dc:creator>
     <cc:Agent>
      <dc:title>Matplotlib v3.8.3, https://matplotlib.org/</dc:title>
     </cc:Agent>
    </dc:creator>
   </cc:Work>
  </rdf:RDF>
 </metadata>
 <defs>
  <style type="text/css">*{stroke-linejoin: round; stroke-linecap: butt}</style>
 </defs>
 <g id="figure_1">
  <g id="patch_1">
   <path d="M 0 649.55625 
L 894.34375 649.55625 
L 894.34375 0 
L 0 0 
z
" style="fill: #ffffff"/>
  </g>
  <g id="axes_1">
   <g id="patch_2">
    <path d="M 50.14375 309.6 
L 448.715179 309.6 
L 448.715179 57.6 
L 50.14375 57.6 
z
" style="fill: #ffffff"/>
   </g>
   <g id="PathCollection_1">
    <defs>
     <path id="m8d9c4d38e7" d="M 0 3.535534 
C 0.937635 3.535534 1.836992 3.163008 2.5 2.5 
C 3.163008 1.836992 3.535534 0.937635 3.535534 0 
C 3.535534 -0.937635 3.163008 -1.836992 2.5 -2.5 
C 1.836992 -3.163008 0.937635 -3.535534 0 -3.535534 
C -0.937635 -3.535534 -1.836992 -3.163008 -2.5 -2.5 
C -3.163008 -1.836992 -3.535534 -0.937635 -3.535534 0 
C -3.535534 0.937635 -3.163008 1.836992 -2.5 2.5 
C -1.836992 3.163008 -0.937635 3.535534 0 3.535534 
z
" style="stroke: #1f77b4; stroke-opacity: 0.8"/>
    </defs>
    <g clip-path="url(#p496ea34f6c)">
     <use xlink:href="#m8d9c4d38e7" x="68.260633" y="267.4774" style="fill: #1f77b4; fill-opacity: 0.8; stroke: #1f77b4; stroke-opacity: 0.8"/>
     <use xlink:href="#m8d9c4d38e7" x="68.260633" y="298.145455" style="fill: #1f77b4; fill-opacity: 0.8; stroke: #1f77b4; stroke-opacity: 0.8"/>
     <use xlink:href="#m8d9c4d38e7" x="128.650244" y="287.233177" style="fill: #1f77b4; fill-opacity: 0.8; stroke: #1f77b4; stroke-opacity: 0.8"/>
     <use xlink:href="#m8d9c4d38e7" x="128.650244" y="204.738325" style="fill: #1f77b4; fill-opacity: 0.8; stroke: #1f77b4; stroke-opacity: 0.8"/>
     <use xlink:href="#m8d9c4d38e7" x="128.650244" y="188.936648" style="fill: #1f77b4; fill-opacity: 0.8; stroke: #1f77b4; stroke-opacity: 0.8"/>
     <use xlink:href="#m8d9c4d38e7" x="128.650244" y="226.778079" style="fill: #1f77b4; fill-opacity: 0.8; stroke: #1f77b4; stroke-opacity: 0.8"/>
     <use xlink:href="#m8d9c4d38e7" x="128.650244" y="273.005729" style="fill: #1f77b4; fill-opacity: 0.8; stroke: #1f77b4; stroke-opacity: 0.8"/>
     <use xlink:href="#m8d9c4d38e7" x="128.650244" y="192.035684" style="fill: #1f77b4; fill-opacity: 0.8; stroke: #1f77b4; stroke-opacity: 0.8"/>
     <use xlink:href="#m8d9c4d38e7" x="128.650244" y="226.630032" style="fill: #1f77b4; fill-opacity: 0.8; stroke: #1f77b4; stroke-opacity: 0.8"/>
     <use xlink:href="#m8d9c4d38e7" x="128.650244" y="238.322219" style="fill: #1f77b4; fill-opacity: 0.8; stroke: #1f77b4; stroke-opacity: 0.8"/>
     <use xlink:href="#m8d9c4d38e7" x="128.650244" y="252.38745" style="fill: #1f77b4; fill-opacity: 0.8; stroke: #1f77b4; stroke-opacity: 0.8"/>
     <use xlink:href="#m8d9c4d38e7" x="189.039854" y="198.406675" style="fill: #1f77b4; fill-opacity: 0.8; stroke: #1f77b4; stroke-opacity: 0.8"/>
     <use xlink:href="#m8d9c4d38e7" x="249.429464" y="142.838918" style="fill: #1f77b4; fill-opacity: 0.8; stroke: #1f77b4; stroke-opacity: 0.8"/>
     <use xlink:href="#m8d9c4d38e7" x="249.429464" y="167.061154" style="fill: #1f77b4; fill-opacity: 0.8; stroke: #1f77b4; stroke-opacity: 0.8"/>
     <use xlink:href="#m8d9c4d38e7" x="249.429464" y="210.057265" style="fill: #1f77b4; fill-opacity: 0.8; stroke: #1f77b4; stroke-opacity: 0.8"/>
     <use xlink:href="#m8d9c4d38e7" x="249.429464" y="192.705497" style="fill: #1f77b4; fill-opacity: 0.8; stroke: #1f77b4; stroke-opacity: 0.8"/>
     <use xlink:href="#m8d9c4d38e7" x="249.429464" y="170.30496" style="fill: #1f77b4; fill-opacity: 0.8; stroke: #1f77b4; stroke-opacity: 0.8"/>
     <use xlink:href="#m8d9c4d38e7" x="430.598295" y="96.249401" style="fill: #1f77b4; fill-opacity: 0.8; stroke: #1f77b4; stroke-opacity: 0.8"/>
     <use xlink:href="#m8d9c4d38e7" x="370.208685" y="210.773853" style="fill: #1f77b4; fill-opacity: 0.8; stroke: #1f77b4; stroke-opacity: 0.8"/>
     <use xlink:href="#m8d9c4d38e7" x="309.819075" y="150.503933" style="fill: #1f77b4; fill-opacity: 0.8; stroke: #1f77b4; stroke-opacity: 0.8"/>
    </g>
   </g>
   <g id="PolyCollection_1">
    <path d="M 68.260633 231.645286 
L 68.260633 281.506059 
L 71.92061 279.873733 
L 75.580586 278.173132 
L 79.240562 276.308859 
L 82.900539 274.430516 
L 86.560515 272.576378 
L 90.220491 270.422063 
L 93.880468 268.579936 
L 97.540444 266.679589 
L 101.200421 264.847434 
L 104.860397 262.990884 
L 108.520373 261.205212 
L 112.18035 259.398231 
L 115.840326 257.656909 
L 119.500303 255.794513 
L 123.160279 253.985316 
L 126.820255 252.198205 
L 130.480232 250.43523 
L 134.140208 248.692863 
L 137.800184 247.013709 
L 141.460161 245.280241 
L 145.120137 243.502043 
L 148.780114 241.723623 
L 152.44009 240.068592 
L 156.100066 238.378956 
L 159.760043 236.883651 
L 163.420019 235.287634 
L 167.079996 233.710826 
L 170.739972 232.049376 
L 174.399948 230.382011 
L 178.059925 228.765887 
L 181.719901 227.567644 
L 185.379878 225.986164 
L 189.039854 224.234812 
L 192.69983 223.138048 
L 196.359807 221.960129 
L 200.019783 220.538293 
L 203.679759 219.941688 
L 207.339736 218.897054 
L 210.999712 217.85167 
L 214.659689 216.52172 
L 218.319665 215.032061 
L 221.979641 213.88787 
L 225.639618 212.78635 
L 229.299594 211.684549 
L 232.959571 210.577662 
L 236.619547 209.643813 
L 240.279523 208.630145 
L 243.9395 207.654764 
L 247.599476 206.473587 
L 251.259452 205.0891 
L 254.919429 204.094079 
L 258.579405 203.460025 
L 262.239382 202.646874 
L 265.899358 201.426804 
L 269.559334 200.312426 
L 273.219311 199.245186 
L 276.879287 198.21382 
L 280.539264 197.127242 
L 284.19924 196.22514 
L 287.859216 195.380651 
L 291.519193 194.393368 
L 295.179169 193.477917 
L 298.839146 192.561308 
L 302.499122 191.558712 
L 306.159098 190.678241 
L 309.819075 189.636371 
L 313.479051 188.746381 
L 317.139027 187.862424 
L 320.799004 186.947802 
L 324.45898 186.090023 
L 328.118957 185.25654 
L 331.778933 184.344986 
L 335.438909 183.430033 
L 339.098886 182.517647 
L 342.758862 181.60526 
L 346.418839 180.692874 
L 350.078815 179.779729 
L 353.738791 178.865207 
L 357.398768 177.926033 
L 361.058744 176.957264 
L 364.71872 176.113823 
L 368.378697 175.215166 
L 372.038673 174.366388 
L 375.69865 173.593718 
L 379.358626 172.54661 
L 383.018602 171.825171 
L 386.678579 171.049557 
L 390.338555 170.164696 
L 393.998532 169.279406 
L 397.658508 168.41354 
L 401.318484 167.520291 
L 404.978461 166.637333 
L 408.638437 165.751451 
L 412.298414 164.865569 
L 415.95839 163.979688 
L 419.618366 163.225548 
L 423.278343 162.515099 
L 426.938319 161.596928 
L 430.598295 160.762618 
L 430.598295 69.054545 
L 430.598295 69.054545 
L 426.938319 71.237649 
L 423.278343 73.420752 
L 419.618366 75.364104 
L 415.95839 77.291655 
L 412.298414 79.314385 
L 408.638437 81.437988 
L 404.978461 83.561591 
L 401.318484 85.685194 
L 397.658508 87.716074 
L 393.998532 89.686392 
L 390.338555 91.65671 
L 386.678579 93.628802 
L 383.018602 95.604926 
L 379.358626 97.58105 
L 375.69865 99.557174 
L 372.038673 101.533298 
L 368.378697 103.517419 
L 364.71872 105.667715 
L 361.058744 107.821949 
L 357.398768 109.976184 
L 353.738791 111.996271 
L 350.078815 114.039919 
L 346.418839 116.180374 
L 342.758862 118.44011 
L 339.098886 120.457611 
L 335.438909 122.586957 
L 331.778933 124.716551 
L 328.118957 126.856278 
L 324.45898 128.996005 
L 320.799004 131.032003 
L 317.139027 132.980703 
L 313.479051 134.851328 
L 309.819075 137.035498 
L 306.159098 139.063574 
L 302.499122 141.045991 
L 298.839146 143.175154 
L 295.179169 145.250913 
L 291.519193 147.293442 
L 287.859216 149.272395 
L 284.19924 151.262896 
L 280.539264 153.221876 
L 276.879287 155.206717 
L 273.219311 157.18144 
L 269.559334 159.075277 
L 265.899358 160.793206 
L 262.239382 162.511965 
L 258.579405 164.344367 
L 254.919429 166.171195 
L 251.259452 167.78402 
L 247.599476 169.803248 
L 243.9395 171.644389 
L 240.279523 173.517987 
L 236.619547 175.148639 
L 232.959571 176.784366 
L 229.299594 178.426229 
L 225.639618 180.194779 
L 221.979641 181.859861 
L 218.319665 183.478086 
L 214.659689 185.26431 
L 210.999712 186.902839 
L 207.339736 188.292879 
L 203.679759 190.009728 
L 200.019783 191.725374 
L 196.359807 193.44102 
L 192.69983 195.150805 
L 189.039854 196.481077 
L 185.379878 198.072818 
L 181.719901 199.617772 
L 178.059925 201.059998 
L 174.399948 202.411976 
L 170.739972 203.796385 
L 167.079996 205.184133 
L 163.420019 206.448088 
L 159.760043 207.469438 
L 156.100066 208.558863 
L 152.44009 209.856022 
L 148.780114 210.875583 
L 145.120137 212.073269 
L 141.460161 212.858727 
L 137.800184 213.856323 
L 134.140208 214.854421 
L 130.480232 215.855459 
L 126.820255 217.055432 
L 123.160279 217.943602 
L 119.500303 218.888607 
L 115.840326 219.604142 
L 112.18035 220.492259 
L 108.520373 221.297479 
L 104.860397 222.438522 
L 101.200421 223.49283 
L 97.540444 224.547137 
L 93.880468 225.601445 
L 90.220491 226.614817 
L 86.560515 227.605199 
L 82.900539 228.315248 
L 79.240562 229.324949 
L 75.580586 230.543013 
L 71.92061 231.092286 
L 68.260633 231.645286 
z
" clip-path="url(#p496ea34f6c)" style="fill: #ffa500; fill-opacity: 0.15"/>
   </g>
   <g id="matplotlib.axis_1">
    <g id="xtick_1">
     <g id="line2d_1">
      <defs>
       <path id="mf6e8c7a8da" d="M 0 0 
L 0 3.5 
" style="stroke: #000000; stroke-width: 0.8"/>
      </defs>
      <g>
       <use xlink:href="#mf6e8c7a8da" x="85.169724" y="309.6" style="stroke: #000000; stroke-width: 0.8"/>
      </g>
     </g>
     <g id="text_1">
      <!-- 0.02 -->
      <g transform="translate(74.036912 324.198437) scale(0.1 -0.1)">
       <defs>
        <path id="DejaVuSans-30" d="M 2034 4250 
Q 1547 4250 1301 3770 
Q 1056 3291 1056 2328 
Q 1056 1369 1301 889 
Q 1547 409 2034 409 
Q 2525 409 2770 889 
Q 3016 1369 3016 2328 
Q 3016 3291 2770 3770 
Q 2525 4250 2034 4250 
z
M 2034 4750 
Q 2819 4750 3233 4129 
Q 3647 3509 3647 2328 
Q 3647 1150 3233 529 
Q 2819 -91 2034 -91 
Q 1250 -91 836 529 
Q 422 1150 422 2328 
Q 422 3509 836 4129 
Q 1250 4750 2034 4750 
z
" transform="scale(0.015625)"/>
        <path id="DejaVuSans-2e" d="M 684 794 
L 1344 794 
L 1344 0 
L 684 0 
L 684 794 
z
" transform="scale(0.015625)"/>
        <path id="DejaVuSans-32" d="M 1228 531 
L 3431 531 
L 3431 0 
L 469 0 
L 469 531 
Q 828 903 1448 1529 
Q 2069 2156 2228 2338 
Q 2531 2678 2651 2914 
Q 2772 3150 2772 3378 
Q 2772 3750 2511 3984 
Q 2250 4219 1831 4219 
Q 1534 4219 1204 4116 
Q 875 4013 500 3803 
L 500 4441 
Q 881 4594 1212 4672 
Q 1544 4750 1819 4750 
Q 2544 4750 2975 4387 
Q 3406 4025 3406 3419 
Q 3406 3131 3298 2873 
Q 3191 2616 2906 2266 
Q 2828 2175 2409 1742 
Q 1991 1309 1228 531 
z
" transform="scale(0.015625)"/>
       </defs>
       <use xlink:href="#DejaVuSans-30"/>
       <use xlink:href="#DejaVuSans-2e" x="63.623047"/>
       <use xlink:href="#DejaVuSans-30" x="95.410156"/>
       <use xlink:href="#DejaVuSans-32" x="159.033203"/>
      </g>
     </g>
    </g>
    <g id="xtick_2">
     <g id="line2d_2">
      <g>
       <use xlink:href="#mf6e8c7a8da" x="162.468425" y="309.6" style="stroke: #000000; stroke-width: 0.8"/>
      </g>
     </g>
     <g id="text_2">
      <!-- 0.04 -->
      <g transform="translate(151.335613 324.198437) scale(0.1 -0.1)">
       <defs>
        <path id="DejaVuSans-34" d="M 2419 4116 
L 825 1625 
L 2419 1625 
L 2419 4116 
z
M 2253 4666 
L 3047 4666 
L 3047 1625 
L 3713 1625 
L 3713 1100 
L 3047 1100 
L 3047 0 
L 2419 0 
L 2419 1100 
L 313 1100 
L 313 1709 
L 2253 4666 
z
" transform="scale(0.015625)"/>
       </defs>
       <use xlink:href="#DejaVuSans-30"/>
       <use xlink:href="#DejaVuSans-2e" x="63.623047"/>
       <use xlink:href="#DejaVuSans-30" x="95.410156"/>
       <use xlink:href="#DejaVuSans-34" x="159.033203"/>
      </g>
     </g>
    </g>
    <g id="xtick_3">
     <g id="line2d_3">
      <g>
       <use xlink:href="#mf6e8c7a8da" x="239.767127" y="309.6" style="stroke: #000000; stroke-width: 0.8"/>
      </g>
     </g>
     <g id="text_3">
      <!-- 0.06 -->
      <g transform="translate(228.634314 324.198437) scale(0.1 -0.1)">
       <defs>
        <path id="DejaVuSans-36" d="M 2113 2584 
Q 1688 2584 1439 2293 
Q 1191 2003 1191 1497 
Q 1191 994 1439 701 
Q 1688 409 2113 409 
Q 2538 409 2786 701 
Q 3034 994 3034 1497 
Q 3034 2003 2786 2293 
Q 2538 2584 2113 2584 
z
M 3366 4563 
L 3366 3988 
Q 3128 4100 2886 4159 
Q 2644 4219 2406 4219 
Q 1781 4219 1451 3797 
Q 1122 3375 1075 2522 
Q 1259 2794 1537 2939 
Q 1816 3084 2150 3084 
Q 2853 3084 3261 2657 
Q 3669 2231 3669 1497 
Q 3669 778 3244 343 
Q 2819 -91 2113 -91 
Q 1303 -91 875 529 
Q 447 1150 447 2328 
Q 447 3434 972 4092 
Q 1497 4750 2381 4750 
Q 2619 4750 2861 4703 
Q 3103 4656 3366 4563 
z
" transform="scale(0.015625)"/>
       </defs>
       <use xlink:href="#DejaVuSans-30"/>
       <use xlink:href="#DejaVuSans-2e" x="63.623047"/>
       <use xlink:href="#DejaVuSans-30" x="95.410156"/>
       <use xlink:href="#DejaVuSans-36" x="159.033203"/>
      </g>
     </g>
    </g>
    <g id="xtick_4">
     <g id="line2d_4">
      <g>
       <use xlink:href="#mf6e8c7a8da" x="317.065828" y="309.6" style="stroke: #000000; stroke-width: 0.8"/>
      </g>
     </g>
     <g id="text_4">
      <!-- 0.08 -->
      <g transform="translate(305.933015 324.198437) scale(0.1 -0.1)">
       <defs>
        <path id="DejaVuSans-38" d="M 2034 2216 
Q 1584 2216 1326 1975 
Q 1069 1734 1069 1313 
Q 1069 891 1326 650 
Q 1584 409 2034 409 
Q 2484 409 2743 651 
Q 3003 894 3003 1313 
Q 3003 1734 2745 1975 
Q 2488 2216 2034 2216 
z
M 1403 2484 
Q 997 2584 770 2862 
Q 544 3141 544 3541 
Q 544 4100 942 4425 
Q 1341 4750 2034 4750 
Q 2731 4750 3128 4425 
Q 3525 4100 3525 3541 
Q 3525 3141 3298 2862 
Q 3072 2584 2669 2484 
Q 3125 2378 3379 2068 
Q 3634 1759 3634 1313 
Q 3634 634 3220 271 
Q 2806 -91 2034 -91 
Q 1263 -91 848 271 
Q 434 634 434 1313 
Q 434 1759 690 2068 
Q 947 2378 1403 2484 
z
M 1172 3481 
Q 1172 3119 1398 2916 
Q 1625 2713 2034 2713 
Q 2441 2713 2670 2916 
Q 2900 3119 2900 3481 
Q 2900 3844 2670 4047 
Q 2441 4250 2034 4250 
Q 1625 4250 1398 4047 
Q 1172 3844 1172 3481 
z
" transform="scale(0.015625)"/>
       </defs>
       <use xlink:href="#DejaVuSans-30"/>
       <use xlink:href="#DejaVuSans-2e" x="63.623047"/>
       <use xlink:href="#DejaVuSans-30" x="95.410156"/>
       <use xlink:href="#DejaVuSans-38" x="159.033203"/>
      </g>
     </g>
    </g>
    <g id="xtick_5">
     <g id="line2d_5">
      <g>
       <use xlink:href="#mf6e8c7a8da" x="394.364529" y="309.6" style="stroke: #000000; stroke-width: 0.8"/>
      </g>
     </g>
     <g id="text_5">
      <!-- 0.10 -->
      <g transform="translate(383.231717 324.198437) scale(0.1 -0.1)">
       <defs>
        <path id="DejaVuSans-31" d="M 794 531 
L 1825 531 
L 1825 4091 
L 703 3866 
L 703 4441 
L 1819 4666 
L 2450 4666 
L 2450 531 
L 3481 531 
L 3481 0 
L 794 0 
L 794 531 
z
" transform="scale(0.015625)"/>
       </defs>
       <use xlink:href="#DejaVuSans-30"/>
       <use xlink:href="#DejaVuSans-2e" x="63.623047"/>
       <use xlink:href="#DejaVuSans-31" x="95.410156"/>
       <use xlink:href="#DejaVuSans-30" x="159.033203"/>
      </g>
     </g>
    </g>
    <g id="text_6">
     <!-- Codon -->
     <g transform="translate(233.476339 337.876562) scale(0.1 -0.1)">
      <defs>
       <path id="DejaVuSans-43" d="M 4122 4306 
L 4122 3641 
Q 3803 3938 3442 4084 
Q 3081 4231 2675 4231 
Q 1875 4231 1450 3742 
Q 1025 3253 1025 2328 
Q 1025 1406 1450 917 
Q 1875 428 2675 428 
Q 3081 428 3442 575 
Q 3803 722 4122 1019 
L 4122 359 
Q 3791 134 3420 21 
Q 3050 -91 2638 -91 
Q 1578 -91 968 557 
Q 359 1206 359 2328 
Q 359 3453 968 4101 
Q 1578 4750 2638 4750 
Q 3056 4750 3426 4639 
Q 3797 4528 4122 4306 
z
" transform="scale(0.015625)"/>
       <path id="DejaVuSans-6f" d="M 1959 3097 
Q 1497 3097 1228 2736 
Q 959 2375 959 1747 
Q 959 1119 1226 758 
Q 1494 397 1959 397 
Q 2419 397 2687 759 
Q 2956 1122 2956 1747 
Q 2956 2369 2687 2733 
Q 2419 3097 1959 3097 
z
M 1959 3584 
Q 2709 3584 3137 3096 
Q 3566 2609 3566 1747 
Q 3566 888 3137 398 
Q 2709 -91 1959 -91 
Q 1206 -91 779 398 
Q 353 888 353 1747 
Q 353 2609 779 3096 
Q 1206 3584 1959 3584 
z
" transform="scale(0.015625)"/>
       <path id="DejaVuSans-64" d="M 2906 2969 
L 2906 4863 
L 3481 4863 
L 3481 0 
L 2906 0 
L 2906 525 
Q 2725 213 2448 61 
Q 2172 -91 1784 -91 
Q 1150 -91 751 415 
Q 353 922 353 1747 
Q 353 2572 751 3078 
Q 1150 3584 1784 3584 
Q 2172 3584 2448 3432 
Q 2725 3281 2906 2969 
z
M 947 1747 
Q 947 1113 1208 752 
Q 1469 391 1925 391 
Q 2381 391 2643 752 
Q 2906 1113 2906 1747 
Q 2906 2381 2643 2742 
Q 2381 3103 1925 3103 
Q 1469 3103 1208 2742 
Q 947 2381 947 1747 
z
" transform="scale(0.015625)"/>
       <path id="DejaVuSans-6e" d="M 3513 2113 
L 3513 0 
L 2938 0 
L 2938 2094 
Q 2938 2591 2744 2837 
Q 2550 3084 2163 3084 
Q 1697 3084 1428 2787 
Q 1159 2491 1159 1978 
L 1159 0 
L 581 0 
L 581 3500 
L 1159 3500 
L 1159 2956 
Q 1366 3272 1645 3428 
Q 1925 3584 2291 3584 
Q 2894 3584 3203 3211 
Q 3513 2838 3513 2113 
z
" transform="scale(0.015625)"/>
      </defs>
      <use xlink:href="#DejaVuSans-43"/>
      <use xlink:href="#DejaVuSans-6f" x="69.824219"/>
      <use xlink:href="#DejaVuSans-64" x="131.005859"/>
      <use xlink:href="#DejaVuSans-6f" x="194.482422"/>
      <use xlink:href="#DejaVuSans-6e" x="255.664062"/>
     </g>
    </g>
   </g>
   <g id="matplotlib.axis_2">
    <g id="ytick_1">
     <g id="line2d_6">
      <defs>
       <path id="m34910f53d7" d="M 0 0 
L -3.5 0 
" style="stroke: #000000; stroke-width: 0.8"/>
      </defs>
      <g>
       <use xlink:href="#m34910f53d7" x="50.14375" y="280.243767" style="stroke: #000000; stroke-width: 0.8"/>
      </g>
     </g>
     <g id="text_7">
      <!-- 0.02 -->
      <g transform="translate(20.878125 284.042986) scale(0.1 -0.1)">
       <use xlink:href="#DejaVuSans-30"/>
       <use xlink:href="#DejaVuSans-2e" x="63.623047"/>
       <use xlink:href="#DejaVuSans-30" x="95.410156"/>
       <use xlink:href="#DejaVuSans-32" x="159.033203"/>
      </g>
     </g>
    </g>
    <g id="ytick_2">
     <g id="line2d_7">
      <g>
       <use xlink:href="#m34910f53d7" x="50.14375" y="231.476582" style="stroke: #000000; stroke-width: 0.8"/>
      </g>
     </g>
     <g id="text_8">
      <!-- 0.04 -->
      <g transform="translate(20.878125 235.275801) scale(0.1 -0.1)">
       <use xlink:href="#DejaVuSans-30"/>
       <use xlink:href="#DejaVuSans-2e" x="63.623047"/>
       <use xlink:href="#DejaVuSans-30" x="95.410156"/>
       <use xlink:href="#DejaVuSans-34" x="159.033203"/>
      </g>
     </g>
    </g>
    <g id="ytick_3">
     <g id="line2d_8">
      <g>
       <use xlink:href="#m34910f53d7" x="50.14375" y="182.709397" style="stroke: #000000; stroke-width: 0.8"/>
      </g>
     </g>
     <g id="text_9">
      <!-- 0.06 -->
      <g transform="translate(20.878125 186.508615) scale(0.1 -0.1)">
       <use xlink:href="#DejaVuSans-30"/>
       <use xlink:href="#DejaVuSans-2e" x="63.623047"/>
       <use xlink:href="#DejaVuSans-30" x="95.410156"/>
       <use xlink:href="#DejaVuSans-36" x="159.033203"/>
      </g>
     </g>
    </g>
    <g id="ytick_4">
     <g id="line2d_9">
      <g>
       <use xlink:href="#m34910f53d7" x="50.14375" y="133.942211" style="stroke: #000000; stroke-width: 0.8"/>
      </g>
     </g>
     <g id="text_10">
      <!-- 0.08 -->
      <g transform="translate(20.878125 137.74143) scale(0.1 -0.1)">
       <use xlink:href="#DejaVuSans-30"/>
       <use xlink:href="#DejaVuSans-2e" x="63.623047"/>
       <use xlink:href="#DejaVuSans-30" x="95.410156"/>
       <use xlink:href="#DejaVuSans-38" x="159.033203"/>
      </g>
     </g>
    </g>
    <g id="ytick_5">
     <g id="line2d_10">
      <g>
       <use xlink:href="#m34910f53d7" x="50.14375" y="85.175026" style="stroke: #000000; stroke-width: 0.8"/>
      </g>
     </g>
     <g id="text_11">
      <!-- 0.10 -->
      <g transform="translate(20.878125 88.974245) scale(0.1 -0.1)">
       <use xlink:href="#DejaVuSans-30"/>
       <use xlink:href="#DejaVuSans-2e" x="63.623047"/>
       <use xlink:href="#DejaVuSans-31" x="95.410156"/>
       <use xlink:href="#DejaVuSans-30" x="159.033203"/>
      </g>
     </g>
    </g>
    <g id="text_12">
     <!-- Amino acid frequency -->
     <g transform="translate(14.798438 238.139062) rotate(-90) scale(0.1 -0.1)">
      <defs>
       <path id="DejaVuSans-41" d="M 2188 4044 
L 1331 1722 
L 3047 1722 
L 2188 4044 
z
M 1831 4666 
L 2547 4666 
L 4325 0 
L 3669 0 
L 3244 1197 
L 1141 1197 
L 716 0 
L 50 0 
L 1831 4666 
z
" transform="scale(0.015625)"/>
       <path id="DejaVuSans-6d" d="M 3328 2828 
Q 3544 3216 3844 3400 
Q 4144 3584 4550 3584 
Q 5097 3584 5394 3201 
Q 5691 2819 5691 2113 
L 5691 0 
L 5113 0 
L 5113 2094 
Q 5113 2597 4934 2840 
Q 4756 3084 4391 3084 
Q 3944 3084 3684 2787 
Q 3425 2491 3425 1978 
L 3425 0 
L 2847 0 
L 2847 2094 
Q 2847 2600 2669 2842 
Q 2491 3084 2119 3084 
Q 1678 3084 1418 2786 
Q 1159 2488 1159 1978 
L 1159 0 
L 581 0 
L 581 3500 
L 1159 3500 
L 1159 2956 
Q 1356 3278 1631 3431 
Q 1906 3584 2284 3584 
Q 2666 3584 2933 3390 
Q 3200 3197 3328 2828 
z
" transform="scale(0.015625)"/>
       <path id="DejaVuSans-69" d="M 603 3500 
L 1178 3500 
L 1178 0 
L 603 0 
L 603 3500 
z
M 603 4863 
L 1178 4863 
L 1178 4134 
L 603 4134 
L 603 4863 
z
" transform="scale(0.015625)"/>
       <path id="DejaVuSans-20" transform="scale(0.015625)"/>
       <path id="DejaVuSans-61" d="M 2194 1759 
Q 1497 1759 1228 1600 
Q 959 1441 959 1056 
Q 959 750 1161 570 
Q 1363 391 1709 391 
Q 2188 391 2477 730 
Q 2766 1069 2766 1631 
L 2766 1759 
L 2194 1759 
z
M 3341 1997 
L 3341 0 
L 2766 0 
L 2766 531 
Q 2569 213 2275 61 
Q 1981 -91 1556 -91 
Q 1019 -91 701 211 
Q 384 513 384 1019 
Q 384 1609 779 1909 
Q 1175 2209 1959 2209 
L 2766 2209 
L 2766 2266 
Q 2766 2663 2505 2880 
Q 2244 3097 1772 3097 
Q 1472 3097 1187 3025 
Q 903 2953 641 2809 
L 641 3341 
Q 956 3463 1253 3523 
Q 1550 3584 1831 3584 
Q 2591 3584 2966 3190 
Q 3341 2797 3341 1997 
z
" transform="scale(0.015625)"/>
       <path id="DejaVuSans-63" d="M 3122 3366 
L 3122 2828 
Q 2878 2963 2633 3030 
Q 2388 3097 2138 3097 
Q 1578 3097 1268 2742 
Q 959 2388 959 1747 
Q 959 1106 1268 751 
Q 1578 397 2138 397 
Q 2388 397 2633 464 
Q 2878 531 3122 666 
L 3122 134 
Q 2881 22 2623 -34 
Q 2366 -91 2075 -91 
Q 1284 -91 818 406 
Q 353 903 353 1747 
Q 353 2603 823 3093 
Q 1294 3584 2113 3584 
Q 2378 3584 2631 3529 
Q 2884 3475 3122 3366 
z
" transform="scale(0.015625)"/>
       <path id="DejaVuSans-66" d="M 2375 4863 
L 2375 4384 
L 1825 4384 
Q 1516 4384 1395 4259 
Q 1275 4134 1275 3809 
L 1275 3500 
L 2222 3500 
L 2222 3053 
L 1275 3053 
L 1275 0 
L 697 0 
L 697 3053 
L 147 3053 
L 147 3500 
L 697 3500 
L 697 3744 
Q 697 4328 969 4595 
Q 1241 4863 1831 4863 
L 2375 4863 
z
" transform="scale(0.015625)"/>
       <path id="DejaVuSans-72" d="M 2631 2963 
Q 2534 3019 2420 3045 
Q 2306 3072 2169 3072 
Q 1681 3072 1420 2755 
Q 1159 2438 1159 1844 
L 1159 0 
L 581 0 
L 581 3500 
L 1159 3500 
L 1159 2956 
Q 1341 3275 1631 3429 
Q 1922 3584 2338 3584 
Q 2397 3584 2469 3576 
Q 2541 3569 2628 3553 
L 2631 2963 
z
" transform="scale(0.015625)"/>
       <path id="DejaVuSans-65" d="M 3597 1894 
L 3597 1613 
L 953 1613 
Q 991 1019 1311 708 
Q 1631 397 2203 397 
Q 2534 397 2845 478 
Q 3156 559 3463 722 
L 3463 178 
Q 3153 47 2828 -22 
Q 2503 -91 2169 -91 
Q 1331 -91 842 396 
Q 353 884 353 1716 
Q 353 2575 817 3079 
Q 1281 3584 2069 3584 
Q 2775 3584 3186 3129 
Q 3597 2675 3597 1894 
z
M 3022 2063 
Q 3016 2534 2758 2815 
Q 2500 3097 2075 3097 
Q 1594 3097 1305 2825 
Q 1016 2553 972 2059 
L 3022 2063 
z
" transform="scale(0.015625)"/>
       <path id="DejaVuSans-71" d="M 947 1747 
Q 947 1113 1208 752 
Q 1469 391 1925 391 
Q 2381 391 2643 752 
Q 2906 1113 2906 1747 
Q 2906 2381 2643 2742 
Q 2381 3103 1925 3103 
Q 1469 3103 1208 2742 
Q 947 2381 947 1747 
z
M 2906 525 
Q 2725 213 2448 61 
Q 2172 -91 1784 -91 
Q 1150 -91 751 415 
Q 353 922 353 1747 
Q 353 2572 751 3078 
Q 1150 3584 1784 3584 
Q 2172 3584 2448 3432 
Q 2725 3281 2906 2969 
L 2906 3500 
L 3481 3500 
L 3481 -1331 
L 2906 -1331 
L 2906 525 
z
" transform="scale(0.015625)"/>
       <path id="DejaVuSans-75" d="M 544 1381 
L 544 3500 
L 1119 3500 
L 1119 1403 
Q 1119 906 1312 657 
Q 1506 409 1894 409 
Q 2359 409 2629 706 
Q 2900 1003 2900 1516 
L 2900 3500 
L 3475 3500 
L 3475 0 
L 2900 0 
L 2900 538 
Q 2691 219 2414 64 
Q 2138 -91 1772 -91 
Q 1169 -91 856 284 
Q 544 659 544 1381 
z
M 1991 3584 
L 1991 3584 
z
" transform="scale(0.015625)"/>
       <path id="DejaVuSans-79" d="M 2059 -325 
Q 1816 -950 1584 -1140 
Q 1353 -1331 966 -1331 
L 506 -1331 
L 506 -850 
L 844 -850 
Q 1081 -850 1212 -737 
Q 1344 -625 1503 -206 
L 1606 56 
L 191 3500 
L 800 3500 
L 1894 763 
L 2988 3500 
L 3597 3500 
L 2059 -325 
z
" transform="scale(0.015625)"/>
      </defs>
      <use xlink:href="#DejaVuSans-41"/>
      <use xlink:href="#DejaVuSans-6d" x="68.408203"/>
      <use xlink:href="#DejaVuSans-69" x="165.820312"/>
      <use xlink:href="#DejaVuSans-6e" x="193.603516"/>
      <use xlink:href="#DejaVuSans-6f" x="256.982422"/>
      <use xlink:href="#DejaVuSans-20" x="318.164062"/>
      <use xlink:href="#DejaVuSans-61" x="349.951172"/>
      <use xlink:href="#DejaVuSans-63" x="411.230469"/>
      <use xlink:href="#DejaVuSans-69" x="466.210938"/>
      <use xlink:href="#DejaVuSans-64" x="493.994141"/>
      <use xlink:href="#DejaVuSans-20" x="557.470703"/>
      <use xlink:href="#DejaVuSans-66" x="589.257812"/>
      <use xlink:href="#DejaVuSans-72" x="624.462891"/>
      <use xlink:href="#DejaVuSans-65" x="663.326172"/>
      <use xlink:href="#DejaVuSans-71" x="724.849609"/>
      <use xlink:href="#DejaVuSans-75" x="788.326172"/>
      <use xlink:href="#DejaVuSans-65" x="851.705078"/>
      <use xlink:href="#DejaVuSans-6e" x="913.228516"/>
      <use xlink:href="#DejaVuSans-63" x="976.607422"/>
      <use xlink:href="#DejaVuSans-79" x="1031.587891"/>
     </g>
    </g>
   </g>
   <g id="line2d_11">
    <path d="M 68.260633 259.209142 
L 71.92061 257.746332 
L 75.580586 256.283522 
L 79.240562 254.820712 
L 82.900539 253.357902 
L 86.560515 251.895092 
L 90.220491 250.432282 
L 93.880468 248.969472 
L 97.540444 247.506662 
L 101.200421 246.043852 
L 104.860397 244.581042 
L 108.520373 243.118232 
L 112.18035 241.655422 
L 115.840326 240.192612 
L 119.500303 238.729802 
L 123.160279 237.266992 
L 126.820255 235.804181 
L 130.480232 234.341371 
L 134.140208 232.878561 
L 137.800184 231.415751 
L 141.460161 229.952941 
L 145.120137 228.490131 
L 148.780114 227.027321 
L 152.44009 225.564511 
L 156.100066 224.101701 
L 159.760043 222.638891 
L 163.420019 221.176081 
L 167.079996 219.713271 
L 170.739972 218.250461 
L 174.399948 216.787651 
L 178.059925 215.324841 
L 181.719901 213.862031 
L 185.379878 212.399221 
L 189.039854 210.936411 
L 192.69983 209.473601 
L 196.359807 208.010791 
L 200.019783 206.547981 
L 203.679759 205.085171 
L 207.339736 203.622361 
L 210.999712 202.159551 
L 214.659689 200.696741 
L 218.319665 199.233931 
L 221.979641 197.771121 
L 225.639618 196.308311 
L 229.299594 194.845501 
L 232.959571 193.382691 
L 236.619547 191.919881 
L 240.279523 190.457071 
L 243.9395 188.994261 
L 247.599476 187.531451 
L 251.259452 186.06864 
L 254.919429 184.60583 
L 258.579405 183.14302 
L 262.239382 181.68021 
L 265.899358 180.2174 
L 269.559334 178.75459 
L 273.219311 177.29178 
L 276.879287 175.82897 
L 280.539264 174.36616 
L 284.19924 172.90335 
L 287.859216 171.44054 
L 291.519193 169.97773 
L 295.179169 168.51492 
L 298.839146 167.05211 
L 302.499122 165.5893 
L 306.159098 164.12649 
L 309.819075 162.66368 
L 313.479051 161.20087 
L 317.139027 159.73806 
L 320.799004 158.27525 
L 324.45898 156.81244 
L 328.118957 155.34963 
L 331.778933 153.88682 
L 335.438909 152.42401 
L 339.098886 150.9612 
L 342.758862 149.49839 
L 346.418839 148.03558 
L 350.078815 146.57277 
L 353.738791 145.10996 
L 357.398768 143.64715 
L 361.058744 142.18434 
L 364.71872 140.72153 
L 368.378697 139.25872 
L 372.038673 137.79591 
L 375.69865 136.333099 
L 379.358626 134.870289 
L 383.018602 133.407479 
L 386.678579 131.944669 
L 390.338555 130.481859 
L 393.998532 129.019049 
L 397.658508 127.556239 
L 401.318484 126.093429 
L 404.978461 124.630619 
L 408.638437 123.167809 
L 412.298414 121.704999 
L 415.95839 120.242189 
L 419.618366 118.779379 
L 423.278343 117.316569 
L 426.938319 115.853759 
L 430.598295 114.390949 
" clip-path="url(#p496ea34f6c)" style="fill: none; stroke: #ffa500; stroke-width: 2.25; stroke-linecap: square"/>
   </g>
   <g id="patch_3">
    <path d="M 50.14375 309.6 
L 50.14375 57.6 
" style="fill: none; stroke: #000000; stroke-width: 0.8; stroke-linejoin: miter; stroke-linecap: square"/>
   </g>
   <g id="patch_4">
    <path d="M 448.715179 309.6 
L 448.715179 57.6 
" style="fill: none; stroke: #000000; stroke-width: 0.8; stroke-linejoin: miter; stroke-linecap: square"/>
   </g>
   <g id="patch_5">
    <path d="M 50.14375 309.6 
L 448.715179 309.6 
" style="fill: none; stroke: #000000; stroke-width: 0.8; stroke-linejoin: miter; stroke-linecap: square"/>
   </g>
   <g id="patch_6">
    <path d="M 50.14375 57.6 
L 448.715179 57.6 
" style="fill: none; stroke: #000000; stroke-width: 0.8; stroke-linejoin: miter; stroke-linecap: square"/>
   </g>
  </g>
  <g id="axes_2">
   <g id="patch_7">
    <path d="M 488.572321 309.6 
L 887.14375 309.6 
L 887.14375 57.6 
L 488.572321 57.6 
z
" style="fill: #ffffff"/>
   </g>
   <g id="PathCollection_2">
    <g clip-path="url(#p7e2b6b1dba)">
     <use xlink:href="#m8d9c4d38e7" x="506.689205" y="268.313875" style="fill: #1f77b4; fill-opacity: 0.8; stroke: #1f77b4; stroke-opacity: 0.8"/>
     <use xlink:href="#m8d9c4d38e7" x="506.689205" y="298.145455" style="fill: #1f77b4; fill-opacity: 0.8; stroke: #1f77b4; stroke-opacity: 0.8"/>
     <use xlink:href="#m8d9c4d38e7" x="567.078815" y="287.530811" style="fill: #1f77b4; fill-opacity: 0.8; stroke: #1f77b4; stroke-opacity: 0.8"/>
     <use xlink:href="#m8d9c4d38e7" x="567.078815" y="207.286014" style="fill: #1f77b4; fill-opacity: 0.8; stroke: #1f77b4; stroke-opacity: 0.8"/>
     <use xlink:href="#m8d9c4d38e7" x="567.078815" y="191.915329" style="fill: #1f77b4; fill-opacity: 0.8; stroke: #1f77b4; stroke-opacity: 0.8"/>
     <use xlink:href="#m8d9c4d38e7" x="567.078815" y="228.724631" style="fill: #1f77b4; fill-opacity: 0.8; stroke: #1f77b4; stroke-opacity: 0.8"/>
     <use xlink:href="#m8d9c4d38e7" x="567.078815" y="273.691417" style="fill: #1f77b4; fill-opacity: 0.8; stroke: #1f77b4; stroke-opacity: 0.8"/>
     <use xlink:href="#m8d9c4d38e7" x="567.078815" y="194.929838" style="fill: #1f77b4; fill-opacity: 0.8; stroke: #1f77b4; stroke-opacity: 0.8"/>
     <use xlink:href="#m8d9c4d38e7" x="567.078815" y="228.580622" style="fill: #1f77b4; fill-opacity: 0.8; stroke: #1f77b4; stroke-opacity: 0.8"/>
     <use xlink:href="#m8d9c4d38e7" x="567.078815" y="239.953904" style="fill: #1f77b4; fill-opacity: 0.8; stroke: #1f77b4; stroke-opacity: 0.8"/>
     <use xlink:href="#m8d9c4d38e7" x="567.078815" y="253.635504" style="fill: #1f77b4; fill-opacity: 0.8; stroke: #1f77b4; stroke-opacity: 0.8"/>
     <use xlink:href="#m8d9c4d38e7" x="627.468425" y="201.12706" style="fill: #1f77b4; fill-opacity: 0.8; stroke: #1f77b4; stroke-opacity: 0.8"/>
     <use xlink:href="#m8d9c4d38e7" x="687.858036" y="147.074919" style="fill: #1f77b4; fill-opacity: 0.8; stroke: #1f77b4; stroke-opacity: 0.8"/>
     <use xlink:href="#m8d9c4d38e7" x="687.858036" y="170.636491" style="fill: #1f77b4; fill-opacity: 0.8; stroke: #1f77b4; stroke-opacity: 0.8"/>
     <use xlink:href="#m8d9c4d38e7" x="687.858036" y="212.459879" style="fill: #1f77b4; fill-opacity: 0.8; stroke: #1f77b4; stroke-opacity: 0.8"/>
     <use xlink:href="#m8d9c4d38e7" x="687.858036" y="195.581383" style="fill: #1f77b4; fill-opacity: 0.8; stroke: #1f77b4; stroke-opacity: 0.8"/>
     <use xlink:href="#m8d9c4d38e7" x="687.858036" y="173.791823" style="fill: #1f77b4; fill-opacity: 0.8; stroke: #1f77b4; stroke-opacity: 0.8"/>
     <use xlink:href="#m8d9c4d38e7" x="869.026867" y="101.756136" style="fill: #1f77b4; fill-opacity: 0.8; stroke: #1f77b4; stroke-opacity: 0.8"/>
     <use xlink:href="#m8d9c4d38e7" x="808.637256" y="213.156922" style="fill: #1f77b4; fill-opacity: 0.8; stroke: #1f77b4; stroke-opacity: 0.8"/>
     <use xlink:href="#m8d9c4d38e7" x="748.247646" y="154.53087" style="fill: #1f77b4; fill-opacity: 0.8; stroke: #1f77b4; stroke-opacity: 0.8"/>
    </g>
   </g>
   <g id="PolyCollection_2">
    <path d="M 506.689205 236.419963 
L 506.689205 282.904998 
L 510.349181 280.800318 
L 514.009157 279.079014 
L 517.669134 277.077774 
L 521.32911 275.067237 
L 524.989086 273.202228 
L 528.649063 271.109766 
L 532.309039 269.192046 
L 535.969016 267.094916 
L 539.628992 265.071883 
L 543.288968 263.032408 
L 546.948945 261.150271 
L 550.608921 259.267651 
L 554.268898 257.574959 
L 557.928874 255.919901 
L 561.58885 254.256114 
L 565.248827 252.432361 
L 568.908803 250.946143 
L 572.56878 249.214063 
L 576.228756 247.679119 
L 579.888732 246.070135 
L 583.548709 244.405392 
L 587.208685 242.817003 
L 590.868661 241.442672 
L 594.528638 239.741947 
L 598.188614 237.999052 
L 601.848591 236.324232 
L 605.508567 234.931943 
L 609.168543 233.386652 
L 612.82852 232.132774 
L 616.488496 230.844281 
L 620.148473 229.314412 
L 623.808449 227.882997 
L 627.468425 226.681031 
L 631.128402 225.393402 
L 634.788378 223.971969 
L 638.448354 222.699099 
L 642.108331 221.564642 
L 645.768307 220.412836 
L 649.428284 219.254397 
L 653.08826 218.088295 
L 656.748236 217.328368 
L 660.408213 216.578037 
L 664.068189 215.554063 
L 667.728166 214.572009 
L 671.388142 213.380497 
L 675.048118 212.412189 
L 678.708095 211.118124 
L 682.368071 210.473429 
L 686.028048 209.663428 
L 689.688024 208.619179 
L 693.348 207.709606 
L 697.007977 206.647931 
L 700.667953 205.503637 
L 704.327929 204.442185 
L 707.987906 203.471129 
L 711.647882 202.414688 
L 715.307859 201.572159 
L 718.967835 200.909415 
L 722.627811 200.226558 
L 726.287788 199.225059 
L 729.947764 198.218098 
L 733.607741 197.206842 
L 737.267717 196.407221 
L 740.927693 195.552315 
L 744.58767 194.509149 
L 748.247646 193.465983 
L 751.907622 192.463647 
L 755.567599 191.704415 
L 759.227575 190.941729 
L 762.887552 190.179042 
L 766.547528 189.148706 
L 770.207504 188.052321 
L 773.867481 187.246294 
L 777.527457 186.669882 
L 781.187434 186.09347 
L 784.84741 185.517057 
L 788.507386 184.901013 
L 792.167363 184.369903 
L 795.827339 183.782405 
L 799.487316 182.826687 
L 803.147292 182.219914 
L 806.807268 181.61314 
L 810.467245 181.006367 
L 814.127221 180.395303 
L 817.787197 179.784212 
L 821.447174 179.173122 
L 825.10715 178.564992 
L 828.767127 177.960124 
L 832.427103 177.24737 
L 836.087079 176.343586 
L 839.747056 175.565678 
L 843.407032 174.819188 
L 847.067009 174.072699 
L 850.726985 173.326209 
L 854.386961 172.57972 
L 858.046938 171.83323 
L 861.706914 171.03622 
L 865.36689 170.21547 
L 869.026867 169.394719 
L 869.026867 69.054545 
L 869.026867 69.054545 
L 865.36689 71.128302 
L 861.706914 73.25209 
L 858.046938 75.375877 
L 854.386961 77.499665 
L 850.726985 79.624876 
L 847.067009 81.754632 
L 843.407032 83.884388 
L 839.747056 86.014144 
L 836.087079 88.1439 
L 832.427103 90.273656 
L 828.767127 92.332875 
L 825.10715 94.377736 
L 821.447174 96.422598 
L 817.787197 98.46746 
L 814.127221 100.512321 
L 810.467245 102.557183 
L 806.807268 104.602044 
L 803.147292 106.646906 
L 799.487316 108.691768 
L 795.827339 110.74288 
L 792.167363 112.77546 
L 788.507386 114.814621 
L 784.84741 116.853782 
L 781.187434 118.892991 
L 777.527457 120.9394 
L 773.867481 122.985809 
L 770.207504 125.032217 
L 766.547528 127.211728 
L 762.887552 129.281232 
L 759.227575 131.279796 
L 755.567599 133.27836 
L 751.907622 135.309257 
L 748.247646 137.566388 
L 744.58767 139.824348 
L 740.927693 141.866397 
L 737.267717 143.787666 
L 733.607741 145.708935 
L 729.947764 147.665214 
L 726.287788 149.666196 
L 722.627811 151.58317 
L 718.967835 153.816189 
L 715.307859 155.763116 
L 711.647882 157.709102 
L 707.987906 159.752939 
L 704.327929 161.845601 
L 700.667953 164.002265 
L 697.007977 166.048169 
L 693.348 168.149548 
L 689.688024 169.964284 
L 686.028048 172.048702 
L 682.368071 174.048568 
L 678.708095 175.951275 
L 675.048118 177.614608 
L 671.388142 179.274187 
L 667.728166 181.106778 
L 664.068189 182.744759 
L 660.408213 184.701907 
L 656.748236 186.289447 
L 653.08826 187.987092 
L 649.428284 189.827981 
L 645.768307 191.480798 
L 642.108331 193.314292 
L 638.448354 194.786797 
L 634.788378 196.287974 
L 631.128402 198.088232 
L 627.468425 199.61685 
L 623.808449 201.193548 
L 620.148473 202.618645 
L 616.488496 204.154468 
L 612.82852 205.531785 
L 609.168543 206.627794 
L 605.508567 208.044914 
L 601.848591 209.423215 
L 598.188614 210.879684 
L 594.528638 212.090034 
L 590.868661 213.597247 
L 587.208685 214.681395 
L 583.548709 215.707614 
L 579.888732 216.743614 
L 576.228756 217.899621 
L 572.56878 218.73993 
L 568.908803 219.561892 
L 565.248827 220.397893 
L 561.58885 221.731561 
L 557.928874 222.733521 
L 554.268898 223.52725 
L 550.608921 224.329274 
L 546.948945 225.273492 
L 543.288968 226.370298 
L 539.628992 227.467104 
L 535.969016 228.563909 
L 532.309039 229.660715 
L 528.649063 230.757521 
L 524.989086 231.854327 
L 521.32911 232.899126 
L 517.669134 233.887734 
L 514.009157 234.833679 
L 510.349181 235.80798 
L 506.689205 236.419963 
z
" clip-path="url(#p7e2b6b1dba)" style="fill: #ffa500; fill-opacity: 0.15"/>
   </g>
   <g id="matplotlib.axis_3">
    <g id="xtick_6">
     <g id="line2d_12">
      <g>
       <use xlink:href="#mf6e8c7a8da" x="519.974919" y="309.6" style="stroke: #000000; stroke-width: 0.8"/>
      </g>
     </g>
     <g id="text_13">
      <!-- 0.02 -->
      <g transform="translate(508.842106 324.198437) scale(0.1 -0.1)">
       <use xlink:href="#DejaVuSans-30"/>
       <use xlink:href="#DejaVuSans-2e" x="63.623047"/>
       <use xlink:href="#DejaVuSans-30" x="95.410156"/>
       <use xlink:href="#DejaVuSans-32" x="159.033203"/>
      </g>
     </g>
    </g>
    <g id="xtick_7">
     <g id="line2d_13">
      <g>
       <use xlink:href="#mf6e8c7a8da" x="593.650244" y="309.6" style="stroke: #000000; stroke-width: 0.8"/>
      </g>
     </g>
     <g id="text_14">
      <!-- 0.04 -->
      <g transform="translate(582.517431 324.198437) scale(0.1 -0.1)">
       <use xlink:href="#DejaVuSans-30"/>
       <use xlink:href="#DejaVuSans-2e" x="63.623047"/>
       <use xlink:href="#DejaVuSans-30" x="95.410156"/>
       <use xlink:href="#DejaVuSans-34" x="159.033203"/>
      </g>
     </g>
    </g>
    <g id="xtick_8">
     <g id="line2d_14">
      <g>
       <use xlink:href="#mf6e8c7a8da" x="667.325568" y="309.6" style="stroke: #000000; stroke-width: 0.8"/>
      </g>
     </g>
     <g id="text_15">
      <!-- 0.06 -->
      <g transform="translate(656.192756 324.198437) scale(0.1 -0.1)">
       <use xlink:href="#DejaVuSans-30"/>
       <use xlink:href="#DejaVuSans-2e" x="63.623047"/>
       <use xlink:href="#DejaVuSans-30" x="95.410156"/>
       <use xlink:href="#DejaVuSans-36" x="159.033203"/>
      </g>
     </g>
    </g>
    <g id="xtick_9">
     <g id="line2d_15">
      <g>
       <use xlink:href="#mf6e8c7a8da" x="741.000893" y="309.6" style="stroke: #000000; stroke-width: 0.8"/>
      </g>
     </g>
     <g id="text_16">
      <!-- 0.08 -->
      <g transform="translate(729.86808 324.198437) scale(0.1 -0.1)">
       <use xlink:href="#DejaVuSans-30"/>
       <use xlink:href="#DejaVuSans-2e" x="63.623047"/>
       <use xlink:href="#DejaVuSans-30" x="95.410156"/>
       <use xlink:href="#DejaVuSans-38" x="159.033203"/>
      </g>
     </g>
    </g>
    <g id="xtick_10">
     <g id="line2d_16">
      <g>
       <use xlink:href="#mf6e8c7a8da" x="814.676218" y="309.6" style="stroke: #000000; stroke-width: 0.8"/>
      </g>
     </g>
     <g id="text_17">
      <!-- 0.10 -->
      <g transform="translate(803.543405 324.198437) scale(0.1 -0.1)">
       <use xlink:href="#DejaVuSans-30"/>
       <use xlink:href="#DejaVuSans-2e" x="63.623047"/>
       <use xlink:href="#DejaVuSans-31" x="95.410156"/>
       <use xlink:href="#DejaVuSans-30" x="159.033203"/>
      </g>
     </g>
    </g>
    <g id="text_18">
     <!-- Codon+Cost -->
     <g transform="translate(656.599442 337.876562) scale(0.1 -0.1)">
      <defs>
       <path id="DejaVuSans-2b" d="M 2944 4013 
L 2944 2272 
L 4684 2272 
L 4684 1741 
L 2944 1741 
L 2944 0 
L 2419 0 
L 2419 1741 
L 678 1741 
L 678 2272 
L 2419 2272 
L 2419 4013 
L 2944 4013 
z
" transform="scale(0.015625)"/>
       <path id="DejaVuSans-73" d="M 2834 3397 
L 2834 2853 
Q 2591 2978 2328 3040 
Q 2066 3103 1784 3103 
Q 1356 3103 1142 2972 
Q 928 2841 928 2578 
Q 928 2378 1081 2264 
Q 1234 2150 1697 2047 
L 1894 2003 
Q 2506 1872 2764 1633 
Q 3022 1394 3022 966 
Q 3022 478 2636 193 
Q 2250 -91 1575 -91 
Q 1294 -91 989 -36 
Q 684 19 347 128 
L 347 722 
Q 666 556 975 473 
Q 1284 391 1588 391 
Q 1994 391 2212 530 
Q 2431 669 2431 922 
Q 2431 1156 2273 1281 
Q 2116 1406 1581 1522 
L 1381 1569 
Q 847 1681 609 1914 
Q 372 2147 372 2553 
Q 372 3047 722 3315 
Q 1072 3584 1716 3584 
Q 2034 3584 2315 3537 
Q 2597 3491 2834 3397 
z
" transform="scale(0.015625)"/>
       <path id="DejaVuSans-74" d="M 1172 4494 
L 1172 3500 
L 2356 3500 
L 2356 3053 
L 1172 3053 
L 1172 1153 
Q 1172 725 1289 603 
Q 1406 481 1766 481 
L 2356 481 
L 2356 0 
L 1766 0 
Q 1100 0 847 248 
Q 594 497 594 1153 
L 594 3053 
L 172 3053 
L 172 3500 
L 594 3500 
L 594 4494 
L 1172 4494 
z
" transform="scale(0.015625)"/>
      </defs>
      <use xlink:href="#DejaVuSans-43"/>
      <use xlink:href="#DejaVuSans-6f" x="69.824219"/>
      <use xlink:href="#DejaVuSans-64" x="131.005859"/>
      <use xlink:href="#DejaVuSans-6f" x="194.482422"/>
      <use xlink:href="#DejaVuSans-6e" x="255.664062"/>
      <use xlink:href="#DejaVuSans-2b" x="319.042969"/>
      <use xlink:href="#DejaVuSans-43" x="402.832031"/>
      <use xlink:href="#DejaVuSans-6f" x="472.65625"/>
      <use xlink:href="#DejaVuSans-73" x="533.837891"/>
      <use xlink:href="#DejaVuSans-74" x="585.9375"/>
     </g>
    </g>
   </g>
   <g id="matplotlib.axis_4">
    <g id="ytick_6">
     <g id="line2d_17">
      <g>
       <use xlink:href="#m34910f53d7" x="488.572321" y="280.732038" style="stroke: #000000; stroke-width: 0.8"/>
      </g>
     </g>
     <g id="text_19">
      <!-- 0.02 -->
      <g transform="translate(459.306696 284.531256) scale(0.1 -0.1)">
       <use xlink:href="#DejaVuSans-30"/>
       <use xlink:href="#DejaVuSans-2e" x="63.623047"/>
       <use xlink:href="#DejaVuSans-30" x="95.410156"/>
       <use xlink:href="#DejaVuSans-32" x="159.033203"/>
      </g>
     </g>
    </g>
    <g id="ytick_7">
     <g id="line2d_18">
      <g>
       <use xlink:href="#m34910f53d7" x="488.572321" y="233.294982" style="stroke: #000000; stroke-width: 0.8"/>
      </g>
     </g>
     <g id="text_20">
      <!-- 0.04 -->
      <g transform="translate(459.306696 237.094201) scale(0.1 -0.1)">
       <use xlink:href="#DejaVuSans-30"/>
       <use xlink:href="#DejaVuSans-2e" x="63.623047"/>
       <use xlink:href="#DejaVuSans-30" x="95.410156"/>
       <use xlink:href="#DejaVuSans-34" x="159.033203"/>
      </g>
     </g>
    </g>
    <g id="ytick_8">
     <g id="line2d_19">
      <g>
       <use xlink:href="#m34910f53d7" x="488.572321" y="185.857927" style="stroke: #000000; stroke-width: 0.8"/>
      </g>
     </g>
     <g id="text_21">
      <!-- 0.06 -->
      <g transform="translate(459.306696 189.657145) scale(0.1 -0.1)">
       <use xlink:href="#DejaVuSans-30"/>
       <use xlink:href="#DejaVuSans-2e" x="63.623047"/>
       <use xlink:href="#DejaVuSans-30" x="95.410156"/>
       <use xlink:href="#DejaVuSans-36" x="159.033203"/>
      </g>
     </g>
    </g>
    <g id="ytick_9">
     <g id="line2d_20">
      <g>
       <use xlink:href="#m34910f53d7" x="488.572321" y="138.420871" style="stroke: #000000; stroke-width: 0.8"/>
      </g>
     </g>
     <g id="text_22">
      <!-- 0.08 -->
      <g transform="translate(459.306696 142.22009) scale(0.1 -0.1)">
       <use xlink:href="#DejaVuSans-30"/>
       <use xlink:href="#DejaVuSans-2e" x="63.623047"/>
       <use xlink:href="#DejaVuSans-30" x="95.410156"/>
       <use xlink:href="#DejaVuSans-38" x="159.033203"/>
      </g>
     </g>
    </g>
    <g id="ytick_10">
     <g id="line2d_21">
      <g>
       <use xlink:href="#m34910f53d7" x="488.572321" y="90.983816" style="stroke: #000000; stroke-width: 0.8"/>
      </g>
     </g>
     <g id="text_23">
      <!-- 0.10 -->
      <g transform="translate(459.306696 94.783035) scale(0.1 -0.1)">
       <use xlink:href="#DejaVuSans-30"/>
       <use xlink:href="#DejaVuSans-2e" x="63.623047"/>
       <use xlink:href="#DejaVuSans-31" x="95.410156"/>
       <use xlink:href="#DejaVuSans-30" x="159.033203"/>
      </g>
     </g>
    </g>
   </g>
   <g id="line2d_22">
    <path d="M 506.689205 260.271134 
L 510.349181 258.848222 
L 514.009157 257.42531 
L 517.669134 256.002399 
L 521.32911 254.579487 
L 524.989086 253.156575 
L 528.649063 251.733663 
L 532.309039 250.310752 
L 535.969016 248.88784 
L 539.628992 247.464928 
L 543.288968 246.042016 
L 546.948945 244.619105 
L 550.608921 243.196193 
L 554.268898 241.773281 
L 557.928874 240.350369 
L 561.58885 238.927458 
L 565.248827 237.504546 
L 568.908803 236.081634 
L 572.56878 234.658722 
L 576.228756 233.235811 
L 579.888732 231.812899 
L 583.548709 230.389987 
L 587.208685 228.967075 
L 590.868661 227.544164 
L 594.528638 226.121252 
L 598.188614 224.69834 
L 601.848591 223.275429 
L 605.508567 221.852517 
L 609.168543 220.429605 
L 612.82852 219.006693 
L 616.488496 217.583782 
L 620.148473 216.16087 
L 623.808449 214.737958 
L 627.468425 213.315046 
L 631.128402 211.892135 
L 634.788378 210.469223 
L 638.448354 209.046311 
L 642.108331 207.623399 
L 645.768307 206.200488 
L 649.428284 204.777576 
L 653.08826 203.354664 
L 656.748236 201.931752 
L 660.408213 200.508841 
L 664.068189 199.085929 
L 667.728166 197.663017 
L 671.388142 196.240105 
L 675.048118 194.817194 
L 678.708095 193.394282 
L 682.368071 191.97137 
L 686.028048 190.548458 
L 689.688024 189.125547 
L 693.348 187.702635 
L 697.007977 186.279723 
L 700.667953 184.856812 
L 704.327929 183.4339 
L 707.987906 182.010988 
L 711.647882 180.588076 
L 715.307859 179.165165 
L 718.967835 177.742253 
L 722.627811 176.319341 
L 726.287788 174.896429 
L 729.947764 173.473518 
L 733.607741 172.050606 
L 737.267717 170.627694 
L 740.927693 169.204782 
L 744.58767 167.781871 
L 748.247646 166.358959 
L 751.907622 164.936047 
L 755.567599 163.513135 
L 759.227575 162.090224 
L 762.887552 160.667312 
L 766.547528 159.2444 
L 770.207504 157.821488 
L 773.867481 156.398577 
L 777.527457 154.975665 
L 781.187434 153.552753 
L 784.84741 152.129842 
L 788.507386 150.70693 
L 792.167363 149.284018 
L 795.827339 147.861106 
L 799.487316 146.438195 
L 803.147292 145.015283 
L 806.807268 143.592371 
L 810.467245 142.169459 
L 814.127221 140.746548 
L 817.787197 139.323636 
L 821.447174 137.900724 
L 825.10715 136.477812 
L 828.767127 135.054901 
L 832.427103 133.631989 
L 836.087079 132.209077 
L 839.747056 130.786165 
L 843.407032 129.363254 
L 847.067009 127.940342 
L 850.726985 126.51743 
L 854.386961 125.094518 
L 858.046938 123.671607 
L 861.706914 122.248695 
L 865.36689 120.825783 
L 869.026867 119.402871 
" clip-path="url(#p7e2b6b1dba)" style="fill: none; stroke: #ffa500; stroke-width: 2.25; stroke-linecap: square"/>
   </g>
   <g id="patch_8">
    <path d="M 488.572321 309.6 
L 488.572321 57.6 
" style="fill: none; stroke: #000000; stroke-width: 0.8; stroke-linejoin: miter; stroke-linecap: square"/>
   </g>
   <g id="patch_9">
    <path d="M 887.14375 309.6 
L 887.14375 57.6 
" style="fill: none; stroke: #000000; stroke-width: 0.8; stroke-linejoin: miter; stroke-linecap: square"/>
   </g>
   <g id="patch_10">
    <path d="M 488.572321 309.6 
L 887.14375 309.6 
" style="fill: none; stroke: #000000; stroke-width: 0.8; stroke-linejoin: miter; stroke-linecap: square"/>
   </g>
   <g id="patch_11">
    <path d="M 488.572321 57.6 
L 887.14375 57.6 
" style="fill: none; stroke: #000000; stroke-width: 0.8; stroke-linejoin: miter; stroke-linecap: square"/>
   </g>
  </g>
  <g id="axes_3">
   <g id="patch_12">
    <path d="M 50.14375 612 
L 448.715179 612 
L 448.715179 360 
L 50.14375 360 
z
" style="fill: #ffffff"/>
   </g>
   <g id="PathCollection_3">
    <g clip-path="url(#p19572ccccf)">
     <use xlink:href="#m8d9c4d38e7" x="69.103878" y="570.624267" style="fill: #1f77b4; fill-opacity: 0.8; stroke: #1f77b4; stroke-opacity: 0.8"/>
     <use xlink:href="#m8d9c4d38e7" x="68.260633" y="600.545455" style="fill: #1f77b4; fill-opacity: 0.8; stroke: #1f77b4; stroke-opacity: 0.8"/>
     <use xlink:href="#m8d9c4d38e7" x="127.556048" y="589.898927" style="fill: #1f77b4; fill-opacity: 0.8; stroke: #1f77b4; stroke-opacity: 0.8"/>
     <use xlink:href="#m8d9c4d38e7" x="127.556048" y="509.413092" style="fill: #1f77b4; fill-opacity: 0.8; stroke: #1f77b4; stroke-opacity: 0.8"/>
     <use xlink:href="#m8d9c4d38e7" x="127.556048" y="493.996237" style="fill: #1f77b4; fill-opacity: 0.8; stroke: #1f77b4; stroke-opacity: 0.8"/>
     <use xlink:href="#m8d9c4d38e7" x="135.807713" y="530.916106" style="fill: #1f77b4; fill-opacity: 0.8; stroke: #1f77b4; stroke-opacity: 0.8"/>
     <use xlink:href="#m8d9c4d38e7" x="127.556048" y="576.017963" style="fill: #1f77b4; fill-opacity: 0.8; stroke: #1f77b4; stroke-opacity: 0.8"/>
     <use xlink:href="#m8d9c4d38e7" x="135.807713" y="497.019801" style="fill: #1f77b4; fill-opacity: 0.8; stroke: #1f77b4; stroke-opacity: 0.8"/>
     <use xlink:href="#m8d9c4d38e7" x="135.807713" y="530.771664" style="fill: #1f77b4; fill-opacity: 0.8; stroke: #1f77b4; stroke-opacity: 0.8"/>
     <use xlink:href="#m8d9c4d38e7" x="127.556048" y="542.179109" style="fill: #1f77b4; fill-opacity: 0.8; stroke: #1f77b4; stroke-opacity: 0.8"/>
     <use xlink:href="#m8d9c4d38e7" x="135.807713" y="555.901806" style="fill: #1f77b4; fill-opacity: 0.8; stroke: #1f77b4; stroke-opacity: 0.8"/>
     <use xlink:href="#m8d9c4d38e7" x="202.511548" y="503.235637" style="fill: #1f77b4; fill-opacity: 0.8; stroke: #1f77b4; stroke-opacity: 0.8"/>
     <use xlink:href="#m8d9c4d38e7" x="252.598881" y="449.021136" style="fill: #1f77b4; fill-opacity: 0.8; stroke: #1f77b4; stroke-opacity: 0.8"/>
     <use xlink:href="#m8d9c4d38e7" x="252.598881" y="472.653482" style="fill: #1f77b4; fill-opacity: 0.8; stroke: #1f77b4; stroke-opacity: 0.8"/>
     <use xlink:href="#m8d9c4d38e7" x="252.598881" y="514.602498" style="fill: #1f77b4; fill-opacity: 0.8; stroke: #1f77b4; stroke-opacity: 0.8"/>
     <use xlink:href="#m8d9c4d38e7" x="245.303631" y="497.673302" style="fill: #1f77b4; fill-opacity: 0.8; stroke: #1f77b4; stroke-opacity: 0.8"/>
     <use xlink:href="#m8d9c4d38e7" x="245.303631" y="475.818291" style="fill: #1f77b4; fill-opacity: 0.8; stroke: #1f77b4; stroke-opacity: 0.8"/>
     <use xlink:href="#m8d9c4d38e7" x="430.598295" y="403.566225" style="fill: #1f77b4; fill-opacity: 0.8; stroke: #1f77b4; stroke-opacity: 0.8"/>
     <use xlink:href="#m8d9c4d38e7" x="370.346465" y="515.301634" style="fill: #1f77b4; fill-opacity: 0.8; stroke: #1f77b4; stroke-opacity: 0.8"/>
     <use xlink:href="#m8d9c4d38e7" x="303.755801" y="456.499483" style="fill: #1f77b4; fill-opacity: 0.8; stroke: #1f77b4; stroke-opacity: 0.8"/>
    </g>
   </g>
   <g id="PolyCollection_3">
    <path d="M 68.260633 536.549364 
L 68.260633 584.437666 
L 71.92061 582.694492 
L 75.580586 580.68032 
L 79.240562 578.828215 
L 82.900539 576.851245 
L 86.560515 575.069779 
L 90.220491 573.43894 
L 93.880468 571.771459 
L 97.540444 569.917223 
L 101.200421 568.075095 
L 104.860397 566.28351 
L 108.520373 564.468728 
L 112.18035 562.486472 
L 115.840326 560.660413 
L 119.500303 558.944241 
L 123.160279 557.238377 
L 126.820255 555.149272 
L 130.480232 553.338893 
L 134.140208 551.929836 
L 137.800184 550.077164 
L 141.460161 548.499555 
L 145.120137 547.103687 
L 148.780114 545.793956 
L 152.44009 544.225887 
L 156.100066 542.948205 
L 159.760043 541.528847 
L 163.420019 540.186672 
L 167.079996 538.613869 
L 170.739972 537.005148 
L 174.399948 535.349262 
L 178.059925 533.679258 
L 181.719901 532.437571 
L 185.379878 531.237013 
L 189.039854 529.7533 
L 192.69983 528.544654 
L 196.359807 527.499594 
L 200.019783 526.543356 
L 203.679759 525.392623 
L 207.339736 524.231835 
L 210.999712 523.415882 
L 214.659689 522.329269 
L 218.319665 521.260734 
L 221.979641 520.013271 
L 225.639618 518.750699 
L 229.299594 518.162429 
L 232.959571 517.348099 
L 236.619547 516.314023 
L 240.279523 515.208894 
L 243.9395 513.982157 
L 247.599476 512.750243 
L 251.259452 511.518329 
L 254.919429 510.509717 
L 258.579405 509.277213 
L 262.239382 508.406892 
L 265.899358 507.597525 
L 269.559334 506.87591 
L 273.219311 505.97637 
L 276.879287 504.947004 
L 280.539264 503.911561 
L 284.19924 502.87274 
L 287.859216 501.850318 
L 291.519193 500.927482 
L 295.179169 500.13296 
L 298.839146 499.328826 
L 302.499122 498.181924 
L 306.159098 497.332455 
L 309.819075 496.565923 
L 313.479051 495.453969 
L 317.139027 494.368552 
L 320.799004 493.822419 
L 324.45898 493.320137 
L 328.118957 492.689683 
L 331.778933 491.746101 
L 335.438909 490.796564 
L 339.098886 489.847026 
L 342.758862 489.089525 
L 346.418839 488.414211 
L 350.078815 487.488521 
L 353.738791 486.539054 
L 357.398768 485.827122 
L 361.058744 485.111722 
L 364.71872 484.348031 
L 368.378697 483.396312 
L 372.038673 482.444594 
L 375.69865 481.492875 
L 379.358626 480.541157 
L 383.018602 479.933166 
L 386.678579 479.327497 
L 390.338555 478.716577 
L 393.998532 478.088428 
L 397.658508 477.106944 
L 401.318484 476.125459 
L 404.978461 475.143975 
L 408.638437 474.462393 
L 412.298414 473.944047 
L 415.95839 473.42345 
L 419.618366 472.902854 
L 423.278343 472.382257 
L 426.938319 471.86166 
L 430.598295 471.088666 
L 430.598295 371.454545 
L 430.598295 371.454545 
L 426.938319 373.585968 
L 423.278343 375.717391 
L 419.618366 377.848814 
L 415.95839 379.980236 
L 412.298414 382.111659 
L 408.638437 384.243082 
L 404.978461 386.374505 
L 401.318484 388.505927 
L 397.658508 390.557376 
L 393.998532 392.614144 
L 390.338555 394.732125 
L 386.678579 396.850106 
L 383.018602 398.968086 
L 379.358626 400.999666 
L 375.69865 402.954897 
L 372.038673 404.910129 
L 368.378697 406.942166 
L 364.71872 408.927084 
L 361.058744 410.83501 
L 357.398768 412.742936 
L 353.738791 414.790428 
L 350.078815 416.883388 
L 346.418839 418.977985 
L 342.758862 421.072582 
L 339.098886 423.167178 
L 335.438909 425.299 
L 331.778933 427.424455 
L 328.118957 429.546508 
L 324.45898 431.710074 
L 320.799004 433.847098 
L 317.139027 435.984123 
L 313.479051 438.124867 
L 309.819075 440.266638 
L 306.159098 442.533834 
L 302.499122 444.639751 
L 298.839146 446.675964 
L 295.179169 448.806269 
L 291.519193 450.943294 
L 287.859216 453.080318 
L 284.19924 455.217343 
L 280.539264 457.233374 
L 276.879287 459.228669 
L 273.219311 461.171068 
L 269.559334 462.943312 
L 265.899358 464.829499 
L 262.239382 466.6133 
L 258.579405 468.401437 
L 254.919429 470.436426 
L 251.259452 472.479442 
L 247.599476 474.237376 
L 243.9395 476.469314 
L 240.279523 478.317279 
L 236.619547 479.991391 
L 232.959571 481.779036 
L 229.299594 483.571089 
L 225.639618 485.491729 
L 221.979641 487.411523 
L 218.319665 488.878611 
L 214.659689 490.438153 
L 210.999712 492.188947 
L 207.339736 494.263349 
L 203.679759 495.595436 
L 200.019783 497.238178 
L 196.359807 498.736862 
L 192.69983 500.514451 
L 189.039854 501.784276 
L 185.379878 503.407152 
L 181.719901 505.366461 
L 178.059925 506.89563 
L 174.399948 508.413501 
L 170.739972 509.986504 
L 167.079996 511.07587 
L 163.420019 512.090347 
L 159.760043 513.436774 
L 156.100066 514.433629 
L 152.44009 515.632033 
L 148.780114 516.733965 
L 145.120137 517.827992 
L 141.460161 518.918574 
L 137.800184 520.019915 
L 134.140208 520.866814 
L 130.480232 521.776531 
L 126.820255 522.764407 
L 123.160279 523.870964 
L 119.500303 524.578497 
L 115.840326 525.562445 
L 112.18035 526.61509 
L 108.520373 527.476972 
L 104.860397 528.333154 
L 101.200421 529.132756 
L 97.540444 529.881507 
L 93.880468 530.677268 
L 90.220491 531.471476 
L 86.560515 532.312288 
L 82.900539 533.210125 
L 79.240562 534.027977 
L 75.580586 534.875176 
L 71.92061 535.831122 
L 68.260633 536.549364 
z
" clip-path="url(#p19572ccccf)" style="fill: #ffa500; fill-opacity: 0.15"/>
   </g>
   <g id="matplotlib.axis_5">
    <g id="xtick_11">
     <g id="line2d_23">
      <g>
       <use xlink:href="#mf6e8c7a8da" x="87.070804" y="612" style="stroke: #000000; stroke-width: 0.8"/>
      </g>
     </g>
     <g id="text_24">
      <!-- 0.02 -->
      <g transform="translate(75.937991 626.598437) scale(0.1 -0.1)">
       <use xlink:href="#DejaVuSans-30"/>
       <use xlink:href="#DejaVuSans-2e" x="63.623047"/>
       <use xlink:href="#DejaVuSans-30" x="95.410156"/>
       <use xlink:href="#DejaVuSans-32" x="159.033203"/>
      </g>
     </g>
    </g>
    <g id="xtick_12">
     <g id="line2d_24">
      <g>
       <use xlink:href="#mf6e8c7a8da" x="164.333144" y="612" style="stroke: #000000; stroke-width: 0.8"/>
      </g>
     </g>
     <g id="text_25">
      <!-- 0.04 -->
      <g transform="translate(153.200331 626.598437) scale(0.1 -0.1)">
       <use xlink:href="#DejaVuSans-30"/>
       <use xlink:href="#DejaVuSans-2e" x="63.623047"/>
       <use xlink:href="#DejaVuSans-30" x="95.410156"/>
       <use xlink:href="#DejaVuSans-34" x="159.033203"/>
      </g>
     </g>
    </g>
    <g id="xtick_13">
     <g id="line2d_25">
      <g>
       <use xlink:href="#mf6e8c7a8da" x="241.595484" y="612" style="stroke: #000000; stroke-width: 0.8"/>
      </g>
     </g>
     <g id="text_26">
      <!-- 0.06 -->
      <g transform="translate(230.462672 626.598437) scale(0.1 -0.1)">
       <use xlink:href="#DejaVuSans-30"/>
       <use xlink:href="#DejaVuSans-2e" x="63.623047"/>
       <use xlink:href="#DejaVuSans-30" x="95.410156"/>
       <use xlink:href="#DejaVuSans-36" x="159.033203"/>
      </g>
     </g>
    </g>
    <g id="xtick_14">
     <g id="line2d_26">
      <g>
       <use xlink:href="#mf6e8c7a8da" x="318.857824" y="612" style="stroke: #000000; stroke-width: 0.8"/>
      </g>
     </g>
     <g id="text_27">
      <!-- 0.08 -->
      <g transform="translate(307.725012 626.598437) scale(0.1 -0.1)">
       <use xlink:href="#DejaVuSans-30"/>
       <use xlink:href="#DejaVuSans-2e" x="63.623047"/>
       <use xlink:href="#DejaVuSans-30" x="95.410156"/>
       <use xlink:href="#DejaVuSans-38" x="159.033203"/>
      </g>
     </g>
    </g>
    <g id="xtick_15">
     <g id="line2d_27">
      <g>
       <use xlink:href="#mf6e8c7a8da" x="396.120164" y="612" style="stroke: #000000; stroke-width: 0.8"/>
      </g>
     </g>
     <g id="text_28">
      <!-- 0.10 -->
      <g transform="translate(384.987352 626.598437) scale(0.1 -0.1)">
       <use xlink:href="#DejaVuSans-30"/>
       <use xlink:href="#DejaVuSans-2e" x="63.623047"/>
       <use xlink:href="#DejaVuSans-31" x="95.410156"/>
       <use xlink:href="#DejaVuSans-30" x="159.033203"/>
      </g>
     </g>
    </g>
    <g id="text_29">
     <!-- Codon+GC -->
     <g transform="translate(221.920871 640.276562) scale(0.1 -0.1)">
      <defs>
       <path id="DejaVuSans-47" d="M 3809 666 
L 3809 1919 
L 2778 1919 
L 2778 2438 
L 4434 2438 
L 4434 434 
Q 4069 175 3628 42 
Q 3188 -91 2688 -91 
Q 1594 -91 976 548 
Q 359 1188 359 2328 
Q 359 3472 976 4111 
Q 1594 4750 2688 4750 
Q 3144 4750 3555 4637 
Q 3966 4525 4313 4306 
L 4313 3634 
Q 3963 3931 3569 4081 
Q 3175 4231 2741 4231 
Q 1884 4231 1454 3753 
Q 1025 3275 1025 2328 
Q 1025 1384 1454 906 
Q 1884 428 2741 428 
Q 3075 428 3337 486 
Q 3600 544 3809 666 
z
" transform="scale(0.015625)"/>
      </defs>
      <use xlink:href="#DejaVuSans-43"/>
      <use xlink:href="#DejaVuSans-6f" x="69.824219"/>
      <use xlink:href="#DejaVuSans-64" x="131.005859"/>
      <use xlink:href="#DejaVuSans-6f" x="194.482422"/>
      <use xlink:href="#DejaVuSans-6e" x="255.664062"/>
      <use xlink:href="#DejaVuSans-2b" x="319.042969"/>
      <use xlink:href="#DejaVuSans-47" x="402.832031"/>
      <use xlink:href="#DejaVuSans-43" x="480.322266"/>
     </g>
    </g>
   </g>
   <g id="matplotlib.axis_6">
    <g id="ytick_11">
     <g id="line2d_28">
      <g>
       <use xlink:href="#m34910f53d7" x="50.14375" y="583.079731" style="stroke: #000000; stroke-width: 0.8"/>
      </g>
     </g>
     <g id="text_30">
      <!-- 0.02 -->
      <g transform="translate(20.878125 586.87895) scale(0.1 -0.1)">
       <use xlink:href="#DejaVuSans-30"/>
       <use xlink:href="#DejaVuSans-2e" x="63.623047"/>
       <use xlink:href="#DejaVuSans-30" x="95.410156"/>
       <use xlink:href="#DejaVuSans-32" x="159.033203"/>
      </g>
     </g>
    </g>
    <g id="ytick_12">
     <g id="line2d_29">
      <g>
       <use xlink:href="#m34910f53d7" x="50.14375" y="535.500185" style="stroke: #000000; stroke-width: 0.8"/>
      </g>
     </g>
     <g id="text_31">
      <!-- 0.04 -->
      <g transform="translate(20.878125 539.299404) scale(0.1 -0.1)">
       <use xlink:href="#DejaVuSans-30"/>
       <use xlink:href="#DejaVuSans-2e" x="63.623047"/>
       <use xlink:href="#DejaVuSans-30" x="95.410156"/>
       <use xlink:href="#DejaVuSans-34" x="159.033203"/>
      </g>
     </g>
    </g>
    <g id="ytick_13">
     <g id="line2d_30">
      <g>
       <use xlink:href="#m34910f53d7" x="50.14375" y="487.920639" style="stroke: #000000; stroke-width: 0.8"/>
      </g>
     </g>
     <g id="text_32">
      <!-- 0.06 -->
      <g transform="translate(20.878125 491.719858) scale(0.1 -0.1)">
       <use xlink:href="#DejaVuSans-30"/>
       <use xlink:href="#DejaVuSans-2e" x="63.623047"/>
       <use xlink:href="#DejaVuSans-30" x="95.410156"/>
       <use xlink:href="#DejaVuSans-36" x="159.033203"/>
      </g>
     </g>
    </g>
    <g id="ytick_14">
     <g id="line2d_31">
      <g>
       <use xlink:href="#m34910f53d7" x="50.14375" y="440.341093" style="stroke: #000000; stroke-width: 0.8"/>
      </g>
     </g>
     <g id="text_33">
      <!-- 0.08 -->
      <g transform="translate(20.878125 444.140312) scale(0.1 -0.1)">
       <use xlink:href="#DejaVuSans-30"/>
       <use xlink:href="#DejaVuSans-2e" x="63.623047"/>
       <use xlink:href="#DejaVuSans-30" x="95.410156"/>
       <use xlink:href="#DejaVuSans-38" x="159.033203"/>
      </g>
     </g>
    </g>
    <g id="ytick_15">
     <g id="line2d_32">
      <g>
       <use xlink:href="#m34910f53d7" x="50.14375" y="392.761547" style="stroke: #000000; stroke-width: 0.8"/>
      </g>
     </g>
     <g id="text_34">
      <!-- 0.10 -->
      <g transform="translate(20.878125 396.560765) scale(0.1 -0.1)">
       <use xlink:href="#DejaVuSans-30"/>
       <use xlink:href="#DejaVuSans-2e" x="63.623047"/>
       <use xlink:href="#DejaVuSans-31" x="95.410156"/>
       <use xlink:href="#DejaVuSans-30" x="159.033203"/>
      </g>
     </g>
    </g>
    <g id="text_35">
     <!-- Amino acid frequency -->
     <g transform="translate(14.798438 540.539062) rotate(-90) scale(0.1 -0.1)">
      <use xlink:href="#DejaVuSans-41"/>
      <use xlink:href="#DejaVuSans-6d" x="68.408203"/>
      <use xlink:href="#DejaVuSans-69" x="165.820312"/>
      <use xlink:href="#DejaVuSans-6e" x="193.603516"/>
      <use xlink:href="#DejaVuSans-6f" x="256.982422"/>
      <use xlink:href="#DejaVuSans-20" x="318.164062"/>
      <use xlink:href="#DejaVuSans-61" x="349.951172"/>
      <use xlink:href="#DejaVuSans-63" x="411.230469"/>
      <use xlink:href="#DejaVuSans-69" x="466.210938"/>
      <use xlink:href="#DejaVuSans-64" x="493.994141"/>
      <use xlink:href="#DejaVuSans-20" x="557.470703"/>
      <use xlink:href="#DejaVuSans-66" x="589.257812"/>
      <use xlink:href="#DejaVuSans-72" x="624.462891"/>
      <use xlink:href="#DejaVuSans-65" x="663.326172"/>
      <use xlink:href="#DejaVuSans-71" x="724.849609"/>
      <use xlink:href="#DejaVuSans-75" x="788.326172"/>
      <use xlink:href="#DejaVuSans-65" x="851.705078"/>
      <use xlink:href="#DejaVuSans-6e" x="913.228516"/>
      <use xlink:href="#DejaVuSans-63" x="976.607422"/>
      <use xlink:href="#DejaVuSans-79" x="1031.587891"/>
     </g>
    </g>
   </g>
   <g id="line2d_33">
    <path d="M 68.260633 564.005304 
L 71.92061 562.554533 
L 75.580586 561.103763 
L 79.240562 559.652992 
L 82.900539 558.202221 
L 86.560515 556.75145 
L 90.220491 555.300679 
L 93.880468 553.849908 
L 97.540444 552.399137 
L 101.200421 550.948366 
L 104.860397 549.497596 
L 108.520373 548.046825 
L 112.18035 546.596054 
L 115.840326 545.145283 
L 119.500303 543.694512 
L 123.160279 542.243741 
L 126.820255 540.79297 
L 130.480232 539.3422 
L 134.140208 537.891429 
L 137.800184 536.440658 
L 141.460161 534.989887 
L 145.120137 533.539116 
L 148.780114 532.088345 
L 152.44009 530.637574 
L 156.100066 529.186803 
L 159.760043 527.736033 
L 163.420019 526.285262 
L 167.079996 524.834491 
L 170.739972 523.38372 
L 174.399948 521.932949 
L 178.059925 520.482178 
L 181.719901 519.031407 
L 185.379878 517.580637 
L 189.039854 516.129866 
L 192.69983 514.679095 
L 196.359807 513.228324 
L 200.019783 511.777553 
L 203.679759 510.326782 
L 207.339736 508.876011 
L 210.999712 507.42524 
L 214.659689 505.97447 
L 218.319665 504.523699 
L 221.979641 503.072928 
L 225.639618 501.622157 
L 229.299594 500.171386 
L 232.959571 498.720615 
L 236.619547 497.269844 
L 240.279523 495.819074 
L 243.9395 494.368303 
L 247.599476 492.917532 
L 251.259452 491.466761 
L 254.919429 490.01599 
L 258.579405 488.565219 
L 262.239382 487.114448 
L 265.899358 485.663677 
L 269.559334 484.212907 
L 273.219311 482.762136 
L 276.879287 481.311365 
L 280.539264 479.860594 
L 284.19924 478.409823 
L 287.859216 476.959052 
L 291.519193 475.508281 
L 295.179169 474.057511 
L 298.839146 472.60674 
L 302.499122 471.155969 
L 306.159098 469.705198 
L 309.819075 468.254427 
L 313.479051 466.803656 
L 317.139027 465.352885 
L 320.799004 463.902114 
L 324.45898 462.451344 
L 328.118957 461.000573 
L 331.778933 459.549802 
L 335.438909 458.099031 
L 339.098886 456.64826 
L 342.758862 455.197489 
L 346.418839 453.746718 
L 350.078815 452.295948 
L 353.738791 450.845177 
L 357.398768 449.394406 
L 361.058744 447.943635 
L 364.71872 446.492864 
L 368.378697 445.042093 
L 372.038673 443.591322 
L 375.69865 442.140551 
L 379.358626 440.689781 
L 383.018602 439.23901 
L 386.678579 437.788239 
L 390.338555 436.337468 
L 393.998532 434.886697 
L 397.658508 433.435926 
L 401.318484 431.985155 
L 404.978461 430.534385 
L 408.638437 429.083614 
L 412.298414 427.632843 
L 415.95839 426.182072 
L 419.618366 424.731301 
L 423.278343 423.28053 
L 426.938319 421.829759 
L 430.598295 420.378988 
" clip-path="url(#p19572ccccf)" style="fill: none; stroke: #ffa500; stroke-width: 2.25; stroke-linecap: square"/>
   </g>
   <g id="patch_13">
    <path d="M 50.14375 612 
L 50.14375 360 
" style="fill: none; stroke: #000000; stroke-width: 0.8; stroke-linejoin: miter; stroke-linecap: square"/>
   </g>
   <g id="patch_14">
    <path d="M 448.715179 612 
L 448.715179 360 
" style="fill: none; stroke: #000000; stroke-width: 0.8; stroke-linejoin: miter; stroke-linecap: square"/>
   </g>
   <g id="patch_15">
    <path d="M 50.14375 612 
L 448.715179 612 
" style="fill: none; stroke: #000000; stroke-width: 0.8; stroke-linejoin: miter; stroke-linecap: square"/>
   </g>
   <g id="patch_16">
    <path d="M 50.14375 360 
L 448.715179 360 
" style="fill: none; stroke: #000000; stroke-width: 0.8; stroke-linejoin: miter; stroke-linecap: square"/>
   </g>
  </g>
  <g id="axes_4">
   <g id="patch_17">
    <path d="M 488.572321 612 
L 887.14375 612 
L 887.14375 360 
L 488.572321 360 
z
" style="fill: #ffffff"/>
   </g>
   <g id="PathCollection_4">
    <g clip-path="url(#pc5a4a26f2d)">
     <use xlink:href="#m8d9c4d38e7" x="507.75496" y="570.33503" style="fill: #1f77b4; fill-opacity: 0.8; stroke: #1f77b4; stroke-opacity: 0.8"/>
     <use xlink:href="#m8d9c4d38e7" x="506.689205" y="600.545455" style="fill: #1f77b4; fill-opacity: 0.8; stroke: #1f77b4; stroke-opacity: 0.8"/>
     <use xlink:href="#m8d9c4d38e7" x="565.970921" y="589.796011" style="fill: #1f77b4; fill-opacity: 0.8; stroke: #1f77b4; stroke-opacity: 0.8"/>
     <use xlink:href="#m8d9c4d38e7" x="565.970921" y="508.53215" style="fill: #1f77b4; fill-opacity: 0.8; stroke: #1f77b4; stroke-opacity: 0.8"/>
     <use xlink:href="#m8d9c4d38e7" x="565.970921" y="492.966267" style="fill: #1f77b4; fill-opacity: 0.8; stroke: #1f77b4; stroke-opacity: 0.8"/>
     <use xlink:href="#m8d9c4d38e7" x="574.749796" y="530.243026" style="fill: #1f77b4; fill-opacity: 0.8; stroke: #1f77b4; stroke-opacity: 0.8"/>
     <use xlink:href="#m8d9c4d38e7" x="565.970921" y="575.780865" style="fill: #1f77b4; fill-opacity: 0.8; stroke: #1f77b4; stroke-opacity: 0.8"/>
     <use xlink:href="#m8d9c4d38e7" x="574.749796" y="496.019058" style="fill: #1f77b4; fill-opacity: 0.8; stroke: #1f77b4; stroke-opacity: 0.8"/>
     <use xlink:href="#m8d9c4d38e7" x="574.749796" y="530.097188" style="fill: #1f77b4; fill-opacity: 0.8; stroke: #1f77b4; stroke-opacity: 0.8"/>
     <use xlink:href="#m8d9c4d38e7" x="565.970921" y="541.614904" style="fill: #1f77b4; fill-opacity: 0.8; stroke: #1f77b4; stroke-opacity: 0.8"/>
     <use xlink:href="#m8d9c4d38e7" x="574.749796" y="555.470253" style="fill: #1f77b4; fill-opacity: 0.8; stroke: #1f77b4; stroke-opacity: 0.8"/>
     <use xlink:href="#m8d9c4d38e7" x="641.744632" y="502.294981" style="fill: #1f77b4; fill-opacity: 0.8; stroke: #1f77b4; stroke-opacity: 0.8"/>
     <use xlink:href="#m8d9c4d38e7" x="689.8743" y="447.556409" style="fill: #1f77b4; fill-opacity: 0.8; stroke: #1f77b4; stroke-opacity: 0.8"/>
     <use xlink:href="#m8d9c4d38e7" x="689.8743" y="471.4172" style="fill: #1f77b4; fill-opacity: 0.8; stroke: #1f77b4; stroke-opacity: 0.8"/>
     <use xlink:href="#m8d9c4d38e7" x="689.8743" y="513.771721" style="fill: #1f77b4; fill-opacity: 0.8; stroke: #1f77b4; stroke-opacity: 0.8"/>
     <use xlink:href="#m8d9c4d38e7" x="683.468598" y="496.678877" style="fill: #1f77b4; fill-opacity: 0.8; stroke: #1f77b4; stroke-opacity: 0.8"/>
     <use xlink:href="#m8d9c4d38e7" x="683.468598" y="474.612602" style="fill: #1f77b4; fill-opacity: 0.8; stroke: #1f77b4; stroke-opacity: 0.8"/>
     <use xlink:href="#m8d9c4d38e7" x="869.026867" y="401.662103" style="fill: #1f77b4; fill-opacity: 0.8; stroke: #1f77b4; stroke-opacity: 0.8"/>
     <use xlink:href="#m8d9c4d38e7" x="807.371977" y="514.477615" style="fill: #1f77b4; fill-opacity: 0.8; stroke: #1f77b4; stroke-opacity: 0.8"/>
     <use xlink:href="#m8d9c4d38e7" x="741.684559" y="455.107046" style="fill: #1f77b4; fill-opacity: 0.8; stroke: #1f77b4; stroke-opacity: 0.8"/>
    </g>
   </g>
   <g id="PolyCollection_4">
    <path d="M 506.689205 536.019148 
L 506.689205 587.095444 
L 510.349181 585.024792 
L 514.009157 582.974677 
L 517.669134 580.67594 
L 521.32911 578.622909 
L 524.989086 576.490413 
L 528.649063 574.380897 
L 532.309039 572.3665 
L 535.969016 570.422918 
L 539.628992 568.350215 
L 543.288968 566.410356 
L 546.948945 564.375667 
L 550.608921 562.5077 
L 554.268898 560.655204 
L 557.928874 558.930978 
L 561.58885 557.188972 
L 565.248827 555.607924 
L 568.908803 553.484385 
L 572.56878 551.726395 
L 576.228756 549.699377 
L 579.888732 548.060525 
L 583.548709 546.44488 
L 587.208685 544.599337 
L 590.868661 543.063937 
L 594.528638 541.386382 
L 598.188614 539.765071 
L 601.848591 538.396577 
L 605.508567 536.724693 
L 609.168543 535.465604 
L 612.82852 534.281327 
L 616.488496 532.524999 
L 620.148473 531.234364 
L 623.808449 529.957058 
L 627.468425 528.585913 
L 631.128402 527.374329 
L 634.788378 526.133805 
L 638.448354 524.741624 
L 642.108331 523.556257 
L 645.768307 522.028467 
L 649.428284 520.765423 
L 653.08826 519.707038 
L 656.748236 518.359892 
L 660.408213 517.173869 
L 664.068189 515.821919 
L 667.728166 514.661996 
L 671.388142 513.592884 
L 675.048118 512.999168 
L 678.708095 512.053704 
L 682.368071 511.04429 
L 686.028048 510.143394 
L 689.688024 509.224174 
L 693.348 508.233556 
L 697.007977 507.270589 
L 700.667953 506.23616 
L 704.327929 505.42335 
L 707.987906 504.645854 
L 711.647882 503.873627 
L 715.307859 503.112277 
L 718.967835 502.338287 
L 722.627811 501.559934 
L 726.287788 500.362369 
L 729.947764 499.243062 
L 733.607741 498.531299 
L 737.267717 497.819537 
L 740.927693 497.339213 
L 744.58767 496.879139 
L 748.247646 496.111462 
L 751.907622 495.333109 
L 755.567599 494.55202 
L 759.227575 493.625018 
L 762.887552 492.822431 
L 766.547528 491.930092 
L 770.207504 491.413673 
L 773.867481 490.68338 
L 777.527457 489.89626 
L 781.187434 489.100124 
L 784.84741 488.320762 
L 788.507386 487.541401 
L 792.167363 486.762039 
L 795.827339 485.96499 
L 799.487316 485.164304 
L 803.147292 484.345972 
L 806.807268 483.303856 
L 810.467245 482.475622 
L 814.127221 481.647596 
L 817.787197 480.819174 
L 821.447174 479.85745 
L 825.10715 478.771568 
L 828.767127 477.685686 
L 832.427103 476.599803 
L 836.087079 475.513921 
L 839.747056 474.602924 
L 843.407032 473.788189 
L 847.067009 472.973454 
L 850.726985 472.15872 
L 854.386961 471.286438 
L 858.046938 470.397153 
L 861.706914 469.595315 
L 865.36689 468.793477 
L 869.026867 467.991639 
L 869.026867 371.454545 
L 869.026867 371.454545 
L 865.36689 373.505953 
L 861.706914 375.557361 
L 858.046938 377.608768 
L 854.386961 379.660176 
L 850.726985 381.711584 
L 847.067009 383.762991 
L 843.407032 385.814399 
L 839.747056 387.865807 
L 836.087079 389.917214 
L 832.427103 391.968622 
L 828.767127 394.02003 
L 825.10715 396.071437 
L 821.447174 398.122845 
L 817.787197 400.174253 
L 814.127221 402.22566 
L 810.467245 404.277068 
L 806.807268 406.328476 
L 803.147292 408.379883 
L 799.487316 410.431318 
L 795.827339 412.486371 
L 792.167363 414.541423 
L 788.507386 416.689443 
L 784.84741 418.786988 
L 781.187434 420.817322 
L 777.527457 422.837929 
L 773.867481 424.806298 
L 770.207504 426.908322 
L 766.547528 428.938656 
L 762.887552 430.968989 
L 759.227575 432.999323 
L 755.567599 435.037438 
L 751.907622 437.086242 
L 748.247646 439.089 
L 744.58767 441.117334 
L 740.927693 443.166181 
L 737.267717 445.119763 
L 733.607741 447.071752 
L 729.947764 449.026428 
L 726.287788 451.177105 
L 722.627811 453.290746 
L 718.967835 455.316992 
L 715.307859 457.350453 
L 711.647882 459.38501 
L 707.987906 461.411487 
L 704.327929 463.437964 
L 700.667953 465.46444 
L 697.007977 467.124456 
L 693.348 468.991045 
L 689.688024 470.651758 
L 686.028048 472.561468 
L 682.368071 474.53069 
L 678.708095 476.384196 
L 675.048118 478.289651 
L 671.388142 480.079784 
L 667.728166 482.019225 
L 664.068189 483.915302 
L 660.408213 485.812099 
L 656.748236 487.703051 
L 653.08826 489.376713 
L 649.428284 490.766374 
L 645.768307 492.65078 
L 642.108331 494.276141 
L 638.448354 496.145258 
L 634.788378 497.850702 
L 631.128402 499.381327 
L 627.468425 500.849919 
L 623.808449 502.442833 
L 620.148473 503.900117 
L 616.488496 505.107578 
L 612.82852 506.588189 
L 609.168543 507.542899 
L 605.508567 508.635533 
L 601.848591 509.933995 
L 598.188614 511.233894 
L 594.528638 512.460916 
L 590.868661 513.355362 
L 587.208685 514.493218 
L 583.548709 515.667604 
L 579.888732 516.845458 
L 576.228756 518.014445 
L 572.56878 519.188222 
L 568.908803 520.353162 
L 565.248827 521.293095 
L 561.58885 522.580557 
L 557.928874 523.531168 
L 554.268898 524.296522 
L 550.608921 525.187943 
L 546.948945 526.598885 
L 543.288968 527.595963 
L 539.628992 528.374629 
L 535.969016 529.117888 
L 532.309039 530.005118 
L 528.649063 531.081927 
L 524.989086 531.918244 
L 521.32911 532.662998 
L 517.669134 533.435904 
L 514.009157 534.355933 
L 510.349181 535.23946 
L 506.689205 536.019148 
z
" clip-path="url(#pc5a4a26f2d)" style="fill: #ffa500; fill-opacity: 0.15"/>
   </g>
   <g id="matplotlib.axis_7">
    <g id="xtick_16">
     <g id="line2d_34">
      <g>
       <use xlink:href="#mf6e8c7a8da" x="521.877668" y="612" style="stroke: #000000; stroke-width: 0.8"/>
      </g>
     </g>
     <g id="text_36">
      <!-- 0.02 -->
      <g transform="translate(510.744855 626.598437) scale(0.1 -0.1)">
       <use xlink:href="#DejaVuSans-30"/>
       <use xlink:href="#DejaVuSans-2e" x="63.623047"/>
       <use xlink:href="#DejaVuSans-30" x="95.410156"/>
       <use xlink:href="#DejaVuSans-32" x="159.033203"/>
      </g>
     </g>
    </g>
    <g id="xtick_17">
     <g id="line2d_35">
      <g>
       <use xlink:href="#mf6e8c7a8da" x="595.282092" y="612" style="stroke: #000000; stroke-width: 0.8"/>
      </g>
     </g>
     <g id="text_37">
      <!-- 0.04 -->
      <g transform="translate(584.14928 626.598437) scale(0.1 -0.1)">
       <use xlink:href="#DejaVuSans-30"/>
       <use xlink:href="#DejaVuSans-2e" x="63.623047"/>
       <use xlink:href="#DejaVuSans-30" x="95.410156"/>
       <use xlink:href="#DejaVuSans-34" x="159.033203"/>
      </g>
     </g>
    </g>
    <g id="xtick_18">
     <g id="line2d_36">
      <g>
       <use xlink:href="#mf6e8c7a8da" x="668.686516" y="612" style="stroke: #000000; stroke-width: 0.8"/>
      </g>
     </g>
     <g id="text_38">
      <!-- 0.06 -->
      <g transform="translate(657.553704 626.598437) scale(0.1 -0.1)">
       <use xlink:href="#DejaVuSans-30"/>
       <use xlink:href="#DejaVuSans-2e" x="63.623047"/>
       <use xlink:href="#DejaVuSans-30" x="95.410156"/>
       <use xlink:href="#DejaVuSans-36" x="159.033203"/>
      </g>
     </g>
    </g>
    <g id="xtick_19">
     <g id="line2d_37">
      <g>
       <use xlink:href="#mf6e8c7a8da" x="742.09094" y="612" style="stroke: #000000; stroke-width: 0.8"/>
      </g>
     </g>
     <g id="text_39">
      <!-- 0.08 -->
      <g transform="translate(730.958128 626.598437) scale(0.1 -0.1)">
       <use xlink:href="#DejaVuSans-30"/>
       <use xlink:href="#DejaVuSans-2e" x="63.623047"/>
       <use xlink:href="#DejaVuSans-30" x="95.410156"/>
       <use xlink:href="#DejaVuSans-38" x="159.033203"/>
      </g>
     </g>
    </g>
    <g id="xtick_20">
     <g id="line2d_38">
      <g>
       <use xlink:href="#mf6e8c7a8da" x="815.495365" y="612" style="stroke: #000000; stroke-width: 0.8"/>
      </g>
     </g>
     <g id="text_40">
      <!-- 0.10 -->
      <g transform="translate(804.362552 626.598437) scale(0.1 -0.1)">
       <use xlink:href="#DejaVuSans-30"/>
       <use xlink:href="#DejaVuSans-2e" x="63.623047"/>
       <use xlink:href="#DejaVuSans-31" x="95.410156"/>
       <use xlink:href="#DejaVuSans-30" x="159.033203"/>
      </g>
     </g>
    </g>
    <g id="text_41">
     <!-- Codon+GC+Cost -->
     <g transform="translate(645.043973 640.276562) scale(0.1 -0.1)">
      <use xlink:href="#DejaVuSans-43"/>
      <use xlink:href="#DejaVuSans-6f" x="69.824219"/>
      <use xlink:href="#DejaVuSans-64" x="131.005859"/>
      <use xlink:href="#DejaVuSans-6f" x="194.482422"/>
      <use xlink:href="#DejaVuSans-6e" x="255.664062"/>
      <use xlink:href="#DejaVuSans-2b" x="319.042969"/>
      <use xlink:href="#DejaVuSans-47" x="402.832031"/>
      <use xlink:href="#DejaVuSans-43" x="480.322266"/>
      <use xlink:href="#DejaVuSans-2b" x="550.146484"/>
      <use xlink:href="#DejaVuSans-43" x="633.935547"/>
      <use xlink:href="#DejaVuSans-6f" x="703.759766"/>
      <use xlink:href="#DejaVuSans-73" x="764.941406"/>
      <use xlink:href="#DejaVuSans-74" x="817.041016"/>
     </g>
    </g>
   </g>
   <g id="matplotlib.axis_8">
    <g id="ytick_16">
     <g id="line2d_39">
      <g>
       <use xlink:href="#m34910f53d7" x="488.572321" y="582.910897" style="stroke: #000000; stroke-width: 0.8"/>
      </g>
     </g>
     <g id="text_42">
      <!-- 0.02 -->
      <g transform="translate(459.306696 586.710116) scale(0.1 -0.1)">
       <use xlink:href="#DejaVuSans-30"/>
       <use xlink:href="#DejaVuSans-2e" x="63.623047"/>
       <use xlink:href="#DejaVuSans-30" x="95.410156"/>
       <use xlink:href="#DejaVuSans-32" x="159.033203"/>
      </g>
     </g>
    </g>
    <g id="ytick_17">
     <g id="line2d_40">
      <g>
       <use xlink:href="#m34910f53d7" x="488.572321" y="534.871418" style="stroke: #000000; stroke-width: 0.8"/>
      </g>
     </g>
     <g id="text_43">
      <!-- 0.04 -->
      <g transform="translate(459.306696 538.670636) scale(0.1 -0.1)">
       <use xlink:href="#DejaVuSans-30"/>
       <use xlink:href="#DejaVuSans-2e" x="63.623047"/>
       <use xlink:href="#DejaVuSans-30" x="95.410156"/>
       <use xlink:href="#DejaVuSans-34" x="159.033203"/>
      </g>
     </g>
    </g>
    <g id="ytick_18">
     <g id="line2d_41">
      <g>
       <use xlink:href="#m34910f53d7" x="488.572321" y="486.831938" style="stroke: #000000; stroke-width: 0.8"/>
      </g>
     </g>
     <g id="text_44">
      <!-- 0.06 -->
      <g transform="translate(459.306696 490.631157) scale(0.1 -0.1)">
       <use xlink:href="#DejaVuSans-30"/>
       <use xlink:href="#DejaVuSans-2e" x="63.623047"/>
       <use xlink:href="#DejaVuSans-30" x="95.410156"/>
       <use xlink:href="#DejaVuSans-36" x="159.033203"/>
      </g>
     </g>
    </g>
    <g id="ytick_19">
     <g id="line2d_42">
      <g>
       <use xlink:href="#m34910f53d7" x="488.572321" y="438.792459" style="stroke: #000000; stroke-width: 0.8"/>
      </g>
     </g>
     <g id="text_45">
      <!-- 0.08 -->
      <g transform="translate(459.306696 442.591678) scale(0.1 -0.1)">
       <use xlink:href="#DejaVuSans-30"/>
       <use xlink:href="#DejaVuSans-2e" x="63.623047"/>
       <use xlink:href="#DejaVuSans-30" x="95.410156"/>
       <use xlink:href="#DejaVuSans-38" x="159.033203"/>
      </g>
     </g>
    </g>
    <g id="ytick_20">
     <g id="line2d_43">
      <g>
       <use xlink:href="#m34910f53d7" x="488.572321" y="390.75298" style="stroke: #000000; stroke-width: 0.8"/>
      </g>
     </g>
     <g id="text_46">
      <!-- 0.10 -->
      <g transform="translate(459.306696 394.552199) scale(0.1 -0.1)">
       <use xlink:href="#DejaVuSans-30"/>
       <use xlink:href="#DejaVuSans-2e" x="63.623047"/>
       <use xlink:href="#DejaVuSans-31" x="95.410156"/>
       <use xlink:href="#DejaVuSans-30" x="159.033203"/>
      </g>
     </g>
    </g>
   </g>
   <g id="line2d_44">
    <path d="M 506.689205 563.826613 
L 510.349181 562.355038 
L 514.009157 560.883463 
L 517.669134 559.411888 
L 521.32911 557.940314 
L 524.989086 556.468739 
L 528.649063 554.997164 
L 532.309039 553.52559 
L 535.969016 552.054015 
L 539.628992 550.58244 
L 543.288968 549.110866 
L 546.948945 547.639291 
L 550.608921 546.167716 
L 554.268898 544.696141 
L 557.928874 543.224567 
L 561.58885 541.752992 
L 565.248827 540.281417 
L 568.908803 538.809843 
L 572.56878 537.338268 
L 576.228756 535.866693 
L 579.888732 534.395118 
L 583.548709 532.923544 
L 587.208685 531.451969 
L 590.868661 529.980394 
L 594.528638 528.50882 
L 598.188614 527.037245 
L 601.848591 525.56567 
L 605.508567 524.094095 
L 609.168543 522.622521 
L 612.82852 521.150946 
L 616.488496 519.679371 
L 620.148473 518.207797 
L 623.808449 516.736222 
L 627.468425 515.264647 
L 631.128402 513.793073 
L 634.788378 512.321498 
L 638.448354 510.849923 
L 642.108331 509.378348 
L 645.768307 507.906774 
L 649.428284 506.435199 
L 653.08826 504.963624 
L 656.748236 503.49205 
L 660.408213 502.020475 
L 664.068189 500.5489 
L 667.728166 499.077325 
L 671.388142 497.605751 
L 675.048118 496.134176 
L 678.708095 494.662601 
L 682.368071 493.191027 
L 686.028048 491.719452 
L 689.688024 490.247877 
L 693.348 488.776303 
L 697.007977 487.304728 
L 700.667953 485.833153 
L 704.327929 484.361578 
L 707.987906 482.890004 
L 711.647882 481.418429 
L 715.307859 479.946854 
L 718.967835 478.47528 
L 722.627811 477.003705 
L 726.287788 475.53213 
L 729.947764 474.060555 
L 733.607741 472.588981 
L 737.267717 471.117406 
L 740.927693 469.645831 
L 744.58767 468.174257 
L 748.247646 466.702682 
L 751.907622 465.231107 
L 755.567599 463.759532 
L 759.227575 462.287958 
L 762.887552 460.816383 
L 766.547528 459.344808 
L 770.207504 457.873234 
L 773.867481 456.401659 
L 777.527457 454.930084 
L 781.187434 453.45851 
L 784.84741 451.986935 
L 788.507386 450.51536 
L 792.167363 449.043785 
L 795.827339 447.572211 
L 799.487316 446.100636 
L 803.147292 444.629061 
L 806.807268 443.157487 
L 810.467245 441.685912 
L 814.127221 440.214337 
L 817.787197 438.742762 
L 821.447174 437.271188 
L 825.10715 435.799613 
L 828.767127 434.328038 
L 832.427103 432.856464 
L 836.087079 431.384889 
L 839.747056 429.913314 
L 843.407032 428.44174 
L 847.067009 426.970165 
L 850.726985 425.49859 
L 854.386961 424.027015 
L 858.046938 422.555441 
L 861.706914 421.083866 
L 865.36689 419.612291 
L 869.026867 418.140717 
" clip-path="url(#pc5a4a26f2d)" style="fill: none; stroke: #ffa500; stroke-width: 2.25; stroke-linecap: square"/>
   </g>
   <g id="patch_18">
    <path d="M 488.572321 612 
L 488.572321 360 
" style="fill: none; stroke: #000000; stroke-width: 0.8; stroke-linejoin: miter; stroke-linecap: square"/>
   </g>
   <g id="patch_19">
    <path d="M 887.14375 612 
L 887.14375 360 
" style="fill: none; stroke: #000000; stroke-width: 0.8; stroke-linejoin: miter; stroke-linecap: square"/>
   </g>
   <g id="patch_20">
    <path d="M 488.572321 612 
L 887.14375 612 
" style="fill: none; stroke: #000000; stroke-width: 0.8; stroke-linejoin: miter; stroke-linecap: square"/>
   </g>
   <g id="patch_21">
    <path d="M 488.572321 360 
L 887.14375 360 
" style="fill: none; stroke: #000000; stroke-width: 0.8; stroke-linejoin: miter; stroke-linecap: square"/>
   </g>
  </g>
  <g id="text_47">
   <!-- Eukaryota - Comparison between amino acid and factor frequencies for genetic code: Scenedesmus -->
   <g transform="translate(78.855859 18.597656) scale(0.15 -0.15)">
    <defs>
     <path id="DejaVuSans-45" d="M 628 4666 
L 3578 4666 
L 3578 4134 
L 1259 4134 
L 1259 2753 
L 3481 2753 
L 3481 2222 
L 1259 2222 
L 1259 531 
L 3634 531 
L 3634 0 
L 628 0 
L 628 4666 
z
" transform="scale(0.015625)"/>
     <path id="DejaVuSans-6b" d="M 581 4863 
L 1159 4863 
L 1159 1991 
L 2875 3500 
L 3609 3500 
L 1753 1863 
L 3688 0 
L 2938 0 
L 1159 1709 
L 1159 0 
L 581 0 
L 581 4863 
z
" transform="scale(0.015625)"/>
     <path id="DejaVuSans-2d" d="M 313 2009 
L 1997 2009 
L 1997 1497 
L 313 1497 
L 313 2009 
z
" transform="scale(0.015625)"/>
     <path id="DejaVuSans-70" d="M 1159 525 
L 1159 -1331 
L 581 -1331 
L 581 3500 
L 1159 3500 
L 1159 2969 
Q 1341 3281 1617 3432 
Q 1894 3584 2278 3584 
Q 2916 3584 3314 3078 
Q 3713 2572 3713 1747 
Q 3713 922 3314 415 
Q 2916 -91 2278 -91 
Q 1894 -91 1617 61 
Q 1341 213 1159 525 
z
M 3116 1747 
Q 3116 2381 2855 2742 
Q 2594 3103 2138 3103 
Q 1681 3103 1420 2742 
Q 1159 2381 1159 1747 
Q 1159 1113 1420 752 
Q 1681 391 2138 391 
Q 2594 391 2855 752 
Q 3116 1113 3116 1747 
z
" transform="scale(0.015625)"/>
     <path id="DejaVuSans-62" d="M 3116 1747 
Q 3116 2381 2855 2742 
Q 2594 3103 2138 3103 
Q 1681 3103 1420 2742 
Q 1159 2381 1159 1747 
Q 1159 1113 1420 752 
Q 1681 391 2138 391 
Q 2594 391 2855 752 
Q 3116 1113 3116 1747 
z
M 1159 2969 
Q 1341 3281 1617 3432 
Q 1894 3584 2278 3584 
Q 2916 3584 3314 3078 
Q 3713 2572 3713 1747 
Q 3713 922 3314 415 
Q 2916 -91 2278 -91 
Q 1894 -91 1617 61 
Q 1341 213 1159 525 
L 1159 0 
L 581 0 
L 581 4863 
L 1159 4863 
L 1159 2969 
z
" transform="scale(0.015625)"/>
     <path id="DejaVuSans-77" d="M 269 3500 
L 844 3500 
L 1563 769 
L 2278 3500 
L 2956 3500 
L 3675 769 
L 4391 3500 
L 4966 3500 
L 4050 0 
L 3372 0 
L 2619 2869 
L 1863 0 
L 1184 0 
L 269 3500 
z
" transform="scale(0.015625)"/>
     <path id="DejaVuSans-67" d="M 2906 1791 
Q 2906 2416 2648 2759 
Q 2391 3103 1925 3103 
Q 1463 3103 1205 2759 
Q 947 2416 947 1791 
Q 947 1169 1205 825 
Q 1463 481 1925 481 
Q 2391 481 2648 825 
Q 2906 1169 2906 1791 
z
M 3481 434 
Q 3481 -459 3084 -895 
Q 2688 -1331 1869 -1331 
Q 1566 -1331 1297 -1286 
Q 1028 -1241 775 -1147 
L 775 -588 
Q 1028 -725 1275 -790 
Q 1522 -856 1778 -856 
Q 2344 -856 2625 -561 
Q 2906 -266 2906 331 
L 2906 616 
Q 2728 306 2450 153 
Q 2172 0 1784 0 
Q 1141 0 747 490 
Q 353 981 353 1791 
Q 353 2603 747 3093 
Q 1141 3584 1784 3584 
Q 2172 3584 2450 3431 
Q 2728 3278 2906 2969 
L 2906 3500 
L 3481 3500 
L 3481 434 
z
" transform="scale(0.015625)"/>
     <path id="DejaVuSans-3a" d="M 750 794 
L 1409 794 
L 1409 0 
L 750 0 
L 750 794 
z
M 750 3309 
L 1409 3309 
L 1409 2516 
L 750 2516 
L 750 3309 
z
" transform="scale(0.015625)"/>
     <path id="DejaVuSans-53" d="M 3425 4513 
L 3425 3897 
Q 3066 4069 2747 4153 
Q 2428 4238 2131 4238 
Q 1616 4238 1336 4038 
Q 1056 3838 1056 3469 
Q 1056 3159 1242 3001 
Q 1428 2844 1947 2747 
L 2328 2669 
Q 3034 2534 3370 2195 
Q 3706 1856 3706 1288 
Q 3706 609 3251 259 
Q 2797 -91 1919 -91 
Q 1588 -91 1214 -16 
Q 841 59 441 206 
L 441 856 
Q 825 641 1194 531 
Q 1563 422 1919 422 
Q 2459 422 2753 634 
Q 3047 847 3047 1241 
Q 3047 1584 2836 1778 
Q 2625 1972 2144 2069 
L 1759 2144 
Q 1053 2284 737 2584 
Q 422 2884 422 3419 
Q 422 4038 858 4394 
Q 1294 4750 2059 4750 
Q 2388 4750 2728 4690 
Q 3069 4631 3425 4513 
z
" transform="scale(0.015625)"/>
    </defs>
    <use xlink:href="#DejaVuSans-45"/>
    <use xlink:href="#DejaVuSans-75" x="63.183594"/>
    <use xlink:href="#DejaVuSans-6b" x="126.5625"/>
    <use xlink:href="#DejaVuSans-61" x="182.722656"/>
    <use xlink:href="#DejaVuSans-72" x="244.001953"/>
    <use xlink:href="#DejaVuSans-79" x="285.115234"/>
    <use xlink:href="#DejaVuSans-6f" x="344.294922"/>
    <use xlink:href="#DejaVuSans-74" x="405.476562"/>
    <use xlink:href="#DejaVuSans-61" x="444.685547"/>
    <use xlink:href="#DejaVuSans-20" x="505.964844"/>
    <use xlink:href="#DejaVuSans-2d" x="537.751953"/>
    <use xlink:href="#DejaVuSans-20" x="573.835938"/>
    <use xlink:href="#DejaVuSans-43" x="605.623047"/>
    <use xlink:href="#DejaVuSans-6f" x="675.447266"/>
    <use xlink:href="#DejaVuSans-6d" x="736.628906"/>
    <use xlink:href="#DejaVuSans-70" x="834.041016"/>
    <use xlink:href="#DejaVuSans-61" x="897.517578"/>
    <use xlink:href="#DejaVuSans-72" x="958.796875"/>
    <use xlink:href="#DejaVuSans-69" x="999.910156"/>
    <use xlink:href="#DejaVuSans-73" x="1027.693359"/>
    <use xlink:href="#DejaVuSans-6f" x="1079.792969"/>
    <use xlink:href="#DejaVuSans-6e" x="1140.974609"/>
    <use xlink:href="#DejaVuSans-20" x="1204.353516"/>
    <use xlink:href="#DejaVuSans-62" x="1236.140625"/>
    <use xlink:href="#DejaVuSans-65" x="1299.617188"/>
    <use xlink:href="#DejaVuSans-74" x="1361.140625"/>
    <use xlink:href="#DejaVuSans-77" x="1400.349609"/>
    <use xlink:href="#DejaVuSans-65" x="1482.136719"/>
    <use xlink:href="#DejaVuSans-65" x="1543.660156"/>
    <use xlink:href="#DejaVuSans-6e" x="1605.183594"/>
    <use xlink:href="#DejaVuSans-20" x="1668.5625"/>
    <use xlink:href="#DejaVuSans-61" x="1700.349609"/>
    <use xlink:href="#DejaVuSans-6d" x="1761.628906"/>
    <use xlink:href="#DejaVuSans-69" x="1859.041016"/>
    <use xlink:href="#DejaVuSans-6e" x="1886.824219"/>
    <use xlink:href="#DejaVuSans-6f" x="1950.203125"/>
    <use xlink:href="#DejaVuSans-20" x="2011.384766"/>
    <use xlink:href="#DejaVuSans-61" x="2043.171875"/>
    <use xlink:href="#DejaVuSans-63" x="2104.451172"/>
    <use xlink:href="#DejaVuSans-69" x="2159.431641"/>
    <use xlink:href="#DejaVuSans-64" x="2187.214844"/>
    <use xlink:href="#DejaVuSans-20" x="2250.691406"/>
    <use xlink:href="#DejaVuSans-61" x="2282.478516"/>
    <use xlink:href="#DejaVuSans-6e" x="2343.757812"/>
    <use xlink:href="#DejaVuSans-64" x="2407.136719"/>
    <use xlink:href="#DejaVuSans-20" x="2470.613281"/>
    <use xlink:href="#DejaVuSans-66" x="2502.400391"/>
    <use xlink:href="#DejaVuSans-61" x="2537.605469"/>
    <use xlink:href="#DejaVuSans-63" x="2598.884766"/>
    <use xlink:href="#DejaVuSans-74" x="2653.865234"/>
    <use xlink:href="#DejaVuSans-6f" x="2693.074219"/>
    <use xlink:href="#DejaVuSans-72" x="2754.255859"/>
    <use xlink:href="#DejaVuSans-20" x="2795.369141"/>
    <use xlink:href="#DejaVuSans-66" x="2827.15625"/>
    <use xlink:href="#DejaVuSans-72" x="2862.361328"/>
    <use xlink:href="#DejaVuSans-65" x="2901.224609"/>
    <use xlink:href="#DejaVuSans-71" x="2962.748047"/>
    <use xlink:href="#DejaVuSans-75" x="3026.224609"/>
    <use xlink:href="#DejaVuSans-65" x="3089.603516"/>
    <use xlink:href="#DejaVuSans-6e" x="3151.126953"/>
    <use xlink:href="#DejaVuSans-63" x="3214.505859"/>
    <use xlink:href="#DejaVuSans-69" x="3269.486328"/>
    <use xlink:href="#DejaVuSans-65" x="3297.269531"/>
    <use xlink:href="#DejaVuSans-73" x="3358.792969"/>
    <use xlink:href="#DejaVuSans-20" x="3410.892578"/>
    <use xlink:href="#DejaVuSans-66" x="3442.679688"/>
    <use xlink:href="#DejaVuSans-6f" x="3477.884766"/>
    <use xlink:href="#DejaVuSans-72" x="3539.066406"/>
    <use xlink:href="#DejaVuSans-20" x="3580.179688"/>
    <use xlink:href="#DejaVuSans-67" x="3611.966797"/>
    <use xlink:href="#DejaVuSans-65" x="3675.443359"/>
    <use xlink:href="#DejaVuSans-6e" x="3736.966797"/>
    <use xlink:href="#DejaVuSans-65" x="3800.345703"/>
    <use xlink:href="#DejaVuSans-74" x="3861.869141"/>
    <use xlink:href="#DejaVuSans-69" x="3901.078125"/>
    <use xlink:href="#DejaVuSans-63" x="3928.861328"/>
    <use xlink:href="#DejaVuSans-20" x="3983.841797"/>
    <use xlink:href="#DejaVuSans-63" x="4015.628906"/>
    <use xlink:href="#DejaVuSans-6f" x="4070.609375"/>
    <use xlink:href="#DejaVuSans-64" x="4131.791016"/>
    <use xlink:href="#DejaVuSans-65" x="4195.267578"/>
    <use xlink:href="#DejaVuSans-3a" x="4256.791016"/>
    <use xlink:href="#DejaVuSans-20" x="4290.482422"/>
    <use xlink:href="#DejaVuSans-53" x="4322.269531"/>
    <use xlink:href="#DejaVuSans-63" x="4385.746094"/>
    <use xlink:href="#DejaVuSans-65" x="4440.726562"/>
    <use xlink:href="#DejaVuSans-6e" x="4502.25"/>
    <use xlink:href="#DejaVuSans-65" x="4565.628906"/>
    <use xlink:href="#DejaVuSans-64" x="4627.152344"/>
    <use xlink:href="#DejaVuSans-65" x="4690.628906"/>
    <use xlink:href="#DejaVuSans-73" x="4752.152344"/>
    <use xlink:href="#DejaVuSans-6d" x="4804.251953"/>
    <use xlink:href="#DejaVuSans-75" x="4901.664062"/>
    <use xlink:href="#DejaVuSans-73" x="4965.042969"/>
   </g>
   <!-- obliquus mitochondrial -->
   <g transform="translate(369.322656 35.394375) scale(0.15 -0.15)">
    <defs>
     <path id="DejaVuSans-6c" d="M 603 4863 
L 1178 4863 
L 1178 0 
L 603 0 
L 603 4863 
z
" transform="scale(0.015625)"/>
     <path id="DejaVuSans-68" d="M 3513 2113 
L 3513 0 
L 2938 0 
L 2938 2094 
Q 2938 2591 2744 2837 
Q 2550 3084 2163 3084 
Q 1697 3084 1428 2787 
Q 1159 2491 1159 1978 
L 1159 0 
L 581 0 
L 581 4863 
L 1159 4863 
L 1159 2956 
Q 1366 3272 1645 3428 
Q 1925 3584 2291 3584 
Q 2894 3584 3203 3211 
Q 3513 2838 3513 2113 
z
" transform="scale(0.015625)"/>
    </defs>
    <use xlink:href="#DejaVuSans-6f"/>
    <use xlink:href="#DejaVuSans-62" x="61.181641"/>
    <use xlink:href="#DejaVuSans-6c" x="124.658203"/>
    <use xlink:href="#DejaVuSans-69" x="152.441406"/>
    <use xlink:href="#DejaVuSans-71" x="180.224609"/>
    <use xlink:href="#DejaVuSans-75" x="243.701172"/>
    <use xlink:href="#DejaVuSans-75" x="307.080078"/>
    <use xlink:href="#DejaVuSans-73" x="370.458984"/>
    <use xlink:href="#DejaVuSans-20" x="422.558594"/>
    <use xlink:href="#DejaVuSans-6d" x="454.345703"/>
    <use xlink:href="#DejaVuSans-69" x="551.757812"/>
    <use xlink:href="#DejaVuSans-74" x="579.541016"/>
    <use xlink:href="#DejaVuSans-6f" x="618.75"/>
    <use xlink:href="#DejaVuSans-63" x="679.931641"/>
    <use xlink:href="#DejaVuSans-68" x="734.912109"/>
    <use xlink:href="#DejaVuSans-6f" x="798.291016"/>
    <use xlink:href="#DejaVuSans-6e" x="859.472656"/>
    <use xlink:href="#DejaVuSans-64" x="922.851562"/>
    <use xlink:href="#DejaVuSans-72" x="986.328125"/>
    <use xlink:href="#DejaVuSans-69" x="1027.441406"/>
    <use xlink:href="#DejaVuSans-61" x="1055.224609"/>
    <use xlink:href="#DejaVuSans-6c" x="1116.503906"/>
   </g>
  </g>
 </g>
 <defs>
  <clipPath id="p496ea34f6c">
   <rect x="50.14375" y="57.6" width="398.571429" height="252"/>
  </clipPath>
  <clipPath id="p7e2b6b1dba">
   <rect x="488.572321" y="57.6" width="398.571429" height="252"/>
  </clipPath>
  <clipPath id="p19572ccccf">
   <rect x="50.14375" y="360" width="398.571429" height="252"/>
  </clipPath>
  <clipPath id="pc5a4a26f2d">
   <rect x="488.572321" y="360" width="398.571429" height="252"/>
  </clipPath>
 </defs>
</svg>
