<?xml version="1.0" encoding="utf-8" standalone="no"?>
<!DOCTYPE svg PUBLIC "-//W3C//DTD SVG 1.1//EN"
  "http://www.w3.org/Graphics/SVG/1.1/DTD/svg11.dtd">
<svg xmlns:xlink="http://www.w3.org/1999/xlink" width="553.028354pt" height="568.8pt" viewBox="0 0 553.028354 568.8" xmlns="http://www.w3.org/2000/svg" version="1.1">
 <metadata>
  <rdf:RDF xmlns:dc="http://purl.org/dc/elements/1.1/" xmlns:cc="http://creativecommons.org/ns#" xmlns:rdf="http://www.w3.org/1999/02/22-rdf-syntax-ns#">
   <cc:Work>
    <dc:type rdf:resource="http://purl.org/dc/dcmitype/StillImage"/>
    <dc:date>2024-08-01T13:48:17.091572</dc:date>
    <dc:format>image/svg+xml</dc:format>
    <dc:creator>
     <cc:Agent>
      <dc:title>Matplotlib v3.8.3, https://matplotlib.org/</dc:title>
     </cc:Agent>
    </dc:creator>
   </cc:Work>
  </rdf:RDF>
 </metadata>
 <defs>
  <style type="text/css">*{stroke-linejoin: round; stroke-linecap: butt}</style>
 </defs>
 <g id="figure_1">
  <g id="patch_1">
   <path d="M 0 568.8 
L 553.028354 568.8 
L 553.028354 0 
L 0 0 
z
" style="fill: #ffffff"/>
  </g>
  <g id="axes_1">
   <g id="patch_2">
    <path d="M 7.2 561.6 
L 545.828354 561.6 
L 545.828354 7.2 
L 7.2 7.2 
z
" style="fill: #ffffff"/>
   </g>
   <g id="patch_3">
    <path d="M 83.49033 291.407194 
Q 154.056659 388.533419 223.965824 484.755134 
" clip-path="url(#p3bebebb4e9)" style="fill: none; stroke: #000000; stroke-linecap: round"/>
    <path d="M 223.232717 480.343496 
L 223.965824 484.755134 
L 219.996649 482.694637 
z
" clip-path="url(#p3bebebb4e9)" style="stroke: #000000; stroke-linecap: round"/>
   </g>
   <g id="patch_4">
    <path d="M 86.635155 287.075992 
Q 276.470418 348.757158 465.242367 410.092833 
" clip-path="url(#p3bebebb4e9)" style="fill: none; stroke: #000000; stroke-linecap: round"/>
    <path d="M 462.056175 406.954653 
L 465.242367 410.092833 
L 460.820107 410.758879 
z
" clip-path="url(#p3bebebb4e9)" style="stroke: #000000; stroke-linecap: round"/>
   </g>
   <g id="patch_5">
    <path d="M 86.635154 281.724017 
Q 276.470392 220.042801 465.242316 158.707077 
" clip-path="url(#p3bebebb4e9)" style="fill: none; stroke: #000000; stroke-linecap: round"/>
    <path d="M 460.820056 158.041032 
L 465.242316 158.707077 
L 462.056124 161.845258 
z
" clip-path="url(#p3bebebb4e9)" style="stroke: #000000; stroke-linecap: round"/>
   </g>
   <g id="patch_6">
    <path d="M 83.490328 277.392816 
Q 154.056627 180.266586 223.965761 84.044865 
" clip-path="url(#p3bebebb4e9)" style="fill: none; stroke: #000000; stroke-linecap: round"/>
    <path d="M 219.996587 86.105363 
L 223.965761 84.044865 
L 223.232655 88.456503 
z
" clip-path="url(#p3bebebb4e9)" style="stroke: #000000; stroke-linecap: round"/>
   </g>
   <g id="text_1">
    <g id="patch_7">
     <path d="M 145.844832 390.567418 
L 149.584616 395.714789 
Q 151.347972 398.14184 153.775023 396.378484 
L 161.60479 390.689826 
Q 164.031842 388.92647 162.268486 386.499419 
L 158.528702 381.352048 
Q 156.765347 378.924997 154.338296 380.688353 
L 146.508528 386.377012 
Q 144.081477 388.140367 145.844832 390.567418 
z
" clip-path="url(#p3bebebb4e9)" style="fill: #ffffff; stroke: #ffffff; stroke-linejoin: miter"/>
    </g>
    <g clip-path="url(#p3bebebb4e9)">
     <!-- 0 -->
     <g transform="translate(149.954386 387.581653) rotate(-305.999999) scale(0.1 -0.1)">
      <defs>
       <path id="DejaVuSans-30" d="M 2034 4250 
Q 1547 4250 1301 3770 
Q 1056 3291 1056 2328 
Q 1056 1369 1301 889 
Q 1547 409 2034 409 
Q 2525 409 2770 889 
Q 3016 1369 3016 2328 
Q 3016 3291 2770 3770 
Q 2525 4250 2034 4250 
z
M 2034 4750 
Q 2819 4750 3233 4129 
Q 3647 3509 3647 2328 
Q 3647 1150 3233 529 
Q 2819 -91 2034 -91 
Q 1250 -91 836 529 
Q 422 1150 422 2328 
Q 422 3509 836 4129 
Q 1250 4750 2034 4750 
z
" transform="scale(0.015625)"/>
      </defs>
      <use xlink:href="#DejaVuSans-30"/>
     </g>
    </g>
   </g>
   <g id="text_2">
    <g id="patch_8">
     <path d="M 261.945821 352.280311 
L 286.150211 360.144788 
Q 289.003381 361.071839 289.930431 358.218669 
L 292.921134 349.014224 
Q 293.848185 346.161054 290.995015 345.234004 
L 266.790625 337.369527 
Q 263.937455 336.442477 263.010405 339.295647 
L 260.019702 348.500091 
Q 259.092651 351.353261 261.945821 352.280311 
z
" clip-path="url(#p3bebebb4e9)" style="fill: #ffffff; stroke: #ffffff; stroke-linejoin: miter"/>
    </g>
    <g clip-path="url(#p3bebebb4e9)">
     <!-- 5100 -->
     <g transform="translate(263.51553 347.449241) rotate(-342.000014) scale(0.1 -0.1)">
      <defs>
       <path id="DejaVuSans-35" d="M 691 4666 
L 3169 4666 
L 3169 4134 
L 1269 4134 
L 1269 2991 
Q 1406 3038 1543 3061 
Q 1681 3084 1819 3084 
Q 2600 3084 3056 2656 
Q 3513 2228 3513 1497 
Q 3513 744 3044 326 
Q 2575 -91 1722 -91 
Q 1428 -91 1123 -41 
Q 819 9 494 109 
L 494 744 
Q 775 591 1075 516 
Q 1375 441 1709 441 
Q 2250 441 2565 725 
Q 2881 1009 2881 1497 
Q 2881 1984 2565 2268 
Q 2250 2553 1709 2553 
Q 1456 2553 1204 2497 
Q 953 2441 691 2322 
L 691 4666 
z
" transform="scale(0.015625)"/>
       <path id="DejaVuSans-31" d="M 794 531 
L 1825 531 
L 1825 4091 
L 703 3866 
L 703 4441 
L 1819 4666 
L 2450 4666 
L 2450 531 
L 3481 531 
L 3481 0 
L 794 0 
L 794 531 
z
" transform="scale(0.015625)"/>
      </defs>
      <use xlink:href="#DejaVuSans-35"/>
      <use xlink:href="#DejaVuSans-31" x="63.623047"/>
      <use xlink:href="#DejaVuSans-30" x="127.246094"/>
      <use xlink:href="#DejaVuSans-30" x="190.869141"/>
     </g>
    </g>
   </g>
   <g id="text_3">
    <g id="patch_9">
     <path d="M 266.790602 231.430434 
L 290.99499 223.565951 
Q 293.848159 222.6389 292.921108 219.78573 
L 289.930403 210.581287 
Q 289.003352 207.728117 286.150182 208.655168 
L 261.945794 216.519652 
Q 259.092625 217.446703 260.019676 220.299872 
L 263.010381 229.504316 
Q 263.937432 232.357485 266.790602 231.430434 
z
" clip-path="url(#p3bebebb4e9)" style="fill: #ffffff; stroke: #ffffff; stroke-linejoin: miter"/>
    </g>
    <g clip-path="url(#p3bebebb4e9)">
     <!-- 1997 -->
     <g transform="translate(265.220892 226.599365) rotate(-18.000002) scale(0.1 -0.1)">
      <defs>
       <path id="DejaVuSans-39" d="M 703 97 
L 703 672 
Q 941 559 1184 500 
Q 1428 441 1663 441 
Q 2288 441 2617 861 
Q 2947 1281 2994 2138 
Q 2813 1869 2534 1725 
Q 2256 1581 1919 1581 
Q 1219 1581 811 2004 
Q 403 2428 403 3163 
Q 403 3881 828 4315 
Q 1253 4750 1959 4750 
Q 2769 4750 3195 4129 
Q 3622 3509 3622 2328 
Q 3622 1225 3098 567 
Q 2575 -91 1691 -91 
Q 1453 -91 1209 -44 
Q 966 3 703 97 
z
M 1959 2075 
Q 2384 2075 2632 2365 
Q 2881 2656 2881 3163 
Q 2881 3666 2632 3958 
Q 2384 4250 1959 4250 
Q 1534 4250 1286 3958 
Q 1038 3666 1038 3163 
Q 1038 2656 1286 2365 
Q 1534 2075 1959 2075 
z
" transform="scale(0.015625)"/>
       <path id="DejaVuSans-37" d="M 525 4666 
L 3525 4666 
L 3525 4397 
L 1831 0 
L 1172 0 
L 2766 4134 
L 525 4134 
L 525 4666 
z
" transform="scale(0.015625)"/>
      </defs>
      <use xlink:href="#DejaVuSans-31"/>
      <use xlink:href="#DejaVuSans-39" x="63.623047"/>
      <use xlink:href="#DejaVuSans-39" x="127.246094"/>
      <use xlink:href="#DejaVuSans-37" x="190.869141"/>
     </g>
    </g>
   </g>
   <g id="text_4">
    <g id="patch_10">
     <path d="M 152.918998 195.169013 
L 167.878127 174.579527 
Q 169.641482 172.152475 167.214431 170.38912 
L 159.384662 164.700463 
Q 156.95761 162.937108 155.194255 165.364159 
L 140.235126 185.953646 
Q 138.471771 188.380697 140.898822 190.144052 
L 148.728591 195.832709 
Q 151.155643 197.596064 152.918998 195.169013 
z
" clip-path="url(#p3bebebb4e9)" style="fill: #ffffff; stroke: #ffffff; stroke-linejoin: miter"/>
    </g>
    <g clip-path="url(#p3bebebb4e9)">
     <!-- 4340 -->
     <g transform="translate(148.809444 192.183249) rotate(-54.000015) scale(0.1 -0.1)">
      <defs>
       <path id="DejaVuSans-34" d="M 2419 4116 
L 825 1625 
L 2419 1625 
L 2419 4116 
z
M 2253 4666 
L 3047 4666 
L 3047 1625 
L 3713 1625 
L 3713 1100 
L 3047 1100 
L 3047 0 
L 2419 0 
L 2419 1100 
L 313 1100 
L 313 1709 
L 2253 4666 
z
" transform="scale(0.015625)"/>
       <path id="DejaVuSans-33" d="M 2597 2516 
Q 3050 2419 3304 2112 
Q 3559 1806 3559 1356 
Q 3559 666 3084 287 
Q 2609 -91 1734 -91 
Q 1441 -91 1130 -33 
Q 819 25 488 141 
L 488 750 
Q 750 597 1062 519 
Q 1375 441 1716 441 
Q 2309 441 2620 675 
Q 2931 909 2931 1356 
Q 2931 1769 2642 2001 
Q 2353 2234 1838 2234 
L 1294 2234 
L 1294 2753 
L 1863 2753 
Q 2328 2753 2575 2939 
Q 2822 3125 2822 3475 
Q 2822 3834 2567 4026 
Q 2313 4219 1838 4219 
Q 1578 4219 1281 4162 
Q 984 4106 628 3988 
L 628 4550 
Q 988 4650 1302 4700 
Q 1616 4750 1894 4750 
Q 2613 4750 3031 4423 
Q 3450 4097 3450 3541 
Q 3450 3153 3228 2886 
Q 3006 2619 2597 2516 
z
" transform="scale(0.015625)"/>
      </defs>
      <use xlink:href="#DejaVuSans-34"/>
      <use xlink:href="#DejaVuSans-33" x="63.623047"/>
      <use xlink:href="#DejaVuSans-34" x="127.246094"/>
      <use xlink:href="#DejaVuSans-30" x="190.869141"/>
     </g>
    </g>
   </g>
   <g id="patch_11">
    <path d="M 78.39931 255.202374 
C 76.805158 255.202374 75.213681 255.332932 73.640843 255.592738 
C 72.068004 255.852544 70.519082 256.240726 69.009614 256.753391 
L 78.39931 284.400005 
z
" style="fill: #0000ff"/>
   </g>
   <g id="patch_12">
    <path d="M 69.009614 256.753391 
C 65.569387 257.921804 62.377279 259.72215 59.597602 262.061754 
C 56.817925 264.401358 54.499208 267.239377 52.760806 270.429723 
C 51.022403 273.620069 49.894665 277.107046 49.435641 280.711162 
C 48.976617 284.315277 49.194321 287.973611 50.077546 291.49785 
C 50.960772 295.022089 52.4941 298.350709 54.598602 301.312367 
C 56.703104 304.274026 59.34204 306.817019 62.379572 308.810447 
C 65.417103 310.803875 68.8002 312.212936 72.354718 312.9651 
C 75.909237 313.717263 79.573122 313.799397 83.157776 313.207274 
C 86.742429 312.61515 90.185271 311.359107 93.30908 309.503799 
C 96.432889 307.648491 99.18313 305.226308 101.418235 302.361931 
C 103.653341 299.497554 105.33429 296.24099 106.374556 292.75987 
C 107.414821 289.278749 107.796243 285.633846 107.499187 282.012782 
C 107.202131 278.391717 106.231784 274.857707 104.638093 271.592665 
C 103.044402 268.327623 100.855191 265.388549 98.183148 262.926733 
C 95.511106 260.464916 92.402881 258.523335 89.018469 257.201933 
C 85.634056 255.88053 82.032542 255.202374 78.399313 255.202374 
L 78.39931 284.400005 
z
" style="fill: #ff0000"/>
   </g>
   <g id="matplotlib.axis_1">
    <g id="xtick_1"/>
    <g id="xtick_2"/>
    <g id="xtick_3"/>
    <g id="xtick_4"/>
    <g id="xtick_5"/>
    <g id="xtick_6"/>
    <g id="xtick_7"/>
   </g>
   <g id="matplotlib.axis_2">
    <g id="ytick_1"/>
    <g id="ytick_2"/>
    <g id="ytick_3"/>
    <g id="ytick_4"/>
    <g id="ytick_5"/>
    <g id="ytick_6"/>
    <g id="ytick_7"/>
   </g>
   <g id="PathCollection_1">
    <path d="M 78.39931 300.211394 
C 82.592539 300.211394 86.614589 298.545406 89.57965 295.580345 
C 92.544711 292.615285 94.210698 288.593235 94.210698 284.400005 
C 94.210698 280.206776 92.544711 276.184726 89.57965 273.219666 
C 86.614589 270.254605 82.592539 268.588617 78.39931 268.588617 
C 74.206081 268.588617 70.184031 270.254605 67.21897 273.219666 
C 64.253909 276.184726 62.587922 280.206776 62.587922 284.400005 
C 62.587922 288.593235 64.253909 292.615285 67.21897 295.580345 
C 70.184031 298.545406 74.206081 300.211394 78.39931 300.211394 
z
" clip-path="url(#p3bebebb4e9)" style="fill: #87ceeb; stroke: #000000"/>
    <path d="M 229.712287 508.47585 
C 233.905516 508.47585 237.927566 506.809863 240.892627 503.844802 
C 243.857687 500.879741 245.523675 496.857691 245.523675 492.664462 
C 245.523675 488.471233 243.857687 484.449183 240.892627 481.484122 
C 237.927566 478.519061 233.905516 476.853074 229.712287 476.853074 
C 225.519057 476.853074 221.497008 478.519061 218.531947 481.484122 
C 215.566886 484.449183 213.900898 488.471233 213.900898 492.664462 
C 213.900898 496.857691 215.566886 500.879741 218.531947 503.844802 
C 221.497008 506.809863 225.519057 508.47585 229.712287 508.47585 
z
" clip-path="url(#p3bebebb4e9)" style="fill: #90ee90; stroke: #000000"/>
    <path d="M 474.541953 463.114449 
C 487.802108 463.114449 500.520946 457.846133 509.897292 448.469788 
C 519.273637 439.093442 524.541953 426.374604 524.541953 413.114449 
C 524.541953 399.854294 519.273637 387.135455 509.897292 377.75911 
C 500.520946 368.382764 487.802108 363.114449 474.541953 363.114449 
C 461.281798 363.114449 448.562959 368.382764 439.186614 377.75911 
C 429.810268 387.135455 424.541953 399.854294 424.541953 413.114449 
C 424.541953 426.374604 429.810268 439.093442 439.186614 448.469788 
C 448.562959 457.846133 461.281798 463.114449 474.541953 463.114449 
z
" clip-path="url(#p3bebebb4e9)" style="fill: #90ee90; stroke: #000000"/>
    <path d="M 474.541901 189.316239 
C 483.460888 189.316239 492.015777 185.772688 498.322454 179.466012 
C 504.62913 173.159335 508.172681 164.604446 508.172681 155.685459 
C 508.172681 146.766471 504.62913 138.211582 498.322454 131.904905 
C 492.015777 125.598229 483.460888 122.054678 474.541901 122.054678 
C 465.622913 122.054678 457.068024 125.598229 450.761347 131.904905 
C 444.454671 138.211582 440.91112 146.766471 440.91112 155.685459 
C 440.91112 164.604446 444.454671 173.159335 450.761347 179.466012 
C 457.068024 185.772688 465.622913 189.316239 474.541901 189.316239 
z
" clip-path="url(#p3bebebb4e9)" style="fill: #90ee90; stroke: #000000"/>
    <path d="M 229.712221 122.661936 
C 242.051167 122.661936 253.886402 117.759621 262.611354 109.034669 
C 271.336306 100.309717 276.238621 88.474482 276.238621 76.135537 
C 276.238621 63.796591 271.336306 51.961356 262.611354 43.236404 
C 253.886402 34.511452 242.051167 29.609137 229.712221 29.609137 
C 217.373276 29.609137 205.538041 34.511452 196.813089 43.236404 
C 188.088137 51.961356 183.185822 63.796591 183.185822 76.135537 
C 183.185822 88.474482 188.088137 100.309717 196.813089 109.034669 
C 205.538041 117.759621 217.373276 122.661936 229.712221 122.661936 
z
" clip-path="url(#p3bebebb4e9)" style="fill: #90ee90; stroke: #000000"/>
   </g>
   <g id="patch_13">
    <path d="M 7.2 561.6 
L 7.2 7.2 
" style="fill: none; stroke: #000000; stroke-width: 0.8; stroke-linejoin: miter; stroke-linecap: square"/>
   </g>
   <g id="patch_14">
    <path d="M 545.828354 561.6 
L 545.828354 7.2 
" style="fill: none; stroke: #000000; stroke-width: 0.8; stroke-linejoin: miter; stroke-linecap: square"/>
   </g>
   <g id="patch_15">
    <path d="M 7.2 561.6 
L 545.828354 561.6 
" style="fill: none; stroke: #000000; stroke-width: 0.8; stroke-linejoin: miter; stroke-linecap: square"/>
   </g>
   <g id="patch_16">
    <path d="M 7.2 7.2 
L 545.828354 7.2 
" style="fill: none; stroke: #000000; stroke-width: 0.8; stroke-linejoin: miter; stroke-linecap: square"/>
   </g>
   <g id="text_5">
    <g clip-path="url(#p3bebebb4e9)">
     <!-- $\mathbf{*}$ -->
     <g transform="translate(75.21931 287.711255) scale(0.12 -0.12)">
      <defs>
       <path id="DejaVuSans-Bold-2a" d="M 3219 3803 
L 2188 3263 
L 3219 2719 
L 2981 2278 
L 1941 2853 
L 1941 1778 
L 1409 1778 
L 1409 2853 
L 366 2278 
L 128 2719 
L 1172 3263 
L 128 3803 
L 366 4244 
L 1409 3675 
L 1409 4750 
L 1941 4750 
L 1941 3675 
L 2981 4244 
L 3219 3803 
z
" transform="scale(0.015625)"/>
      </defs>
      <use xlink:href="#DejaVuSans-Bold-2a" transform="translate(0 0.78125)"/>
     </g>
    </g>
   </g>
   <g id="text_6">
    <g clip-path="url(#p3bebebb4e9)">
     <!-- NCC -->
     <g transform="translate(216.844162 495.975712) scale(0.12 -0.12)">
      <defs>
       <path id="DejaVuSans-4e" d="M 628 4666 
L 1478 4666 
L 3547 763 
L 3547 4666 
L 4159 4666 
L 4159 0 
L 3309 0 
L 1241 3903 
L 1241 0 
L 628 0 
L 628 4666 
z
" transform="scale(0.015625)"/>
       <path id="DejaVuSans-43" d="M 4122 4306 
L 4122 3641 
Q 3803 3938 3442 4084 
Q 3081 4231 2675 4231 
Q 1875 4231 1450 3742 
Q 1025 3253 1025 2328 
Q 1025 1406 1450 917 
Q 1875 428 2675 428 
Q 3081 428 3442 575 
Q 3803 722 4122 1019 
L 4122 359 
Q 3791 134 3420 21 
Q 3050 -91 2638 -91 
Q 1578 -91 968 557 
Q 359 1206 359 2328 
Q 359 3453 968 4101 
Q 1578 4750 2638 4750 
Q 3056 4750 3426 4639 
Q 3797 4528 4122 4306 
z
" transform="scale(0.015625)"/>
      </defs>
      <use xlink:href="#DejaVuSans-4e"/>
      <use xlink:href="#DejaVuSans-43" x="74.804688"/>
      <use xlink:href="#DejaVuSans-43" x="144.628906"/>
     </g>
    </g>
   </g>
   <g id="text_7">
    <g clip-path="url(#p3bebebb4e9)">
     <!-- TAA -->
     <g transform="translate(462.968515 416.425699) scale(0.12 -0.12)">
      <defs>
       <path id="DejaVuSans-54" d="M -19 4666 
L 3928 4666 
L 3928 4134 
L 2272 4134 
L 2272 0 
L 1638 0 
L 1638 4134 
L -19 4134 
L -19 4666 
z
" transform="scale(0.015625)"/>
       <path id="DejaVuSans-41" d="M 2188 4044 
L 1331 1722 
L 3047 1722 
L 2188 4044 
z
M 1831 4666 
L 2547 4666 
L 4325 0 
L 3669 0 
L 3244 1197 
L 1141 1197 
L 716 0 
L 50 0 
L 1831 4666 
z
" transform="scale(0.015625)"/>
      </defs>
      <use xlink:href="#DejaVuSans-54"/>
      <use xlink:href="#DejaVuSans-41" x="53.333984"/>
      <use xlink:href="#DejaVuSans-41" x="124.492188"/>
     </g>
    </g>
   </g>
   <g id="text_8">
    <g clip-path="url(#p3bebebb4e9)">
     <!-- TAG -->
     <g transform="translate(462.693776 158.996709) scale(0.12 -0.12)">
      <defs>
       <path id="DejaVuSans-47" d="M 3809 666 
L 3809 1919 
L 2778 1919 
L 2778 2438 
L 4434 2438 
L 4434 434 
Q 4069 175 3628 42 
Q 3188 -91 2688 -91 
Q 1594 -91 976 548 
Q 359 1188 359 2328 
Q 359 3472 976 4111 
Q 1594 4750 2688 4750 
Q 3144 4750 3555 4637 
Q 3966 4525 4313 4306 
L 4313 3634 
Q 3963 3931 3569 4081 
Q 3175 4231 2741 4231 
Q 1884 4231 1454 3753 
Q 1025 3275 1025 2328 
Q 1025 1384 1454 906 
Q 1884 428 2741 428 
Q 3075 428 3337 486 
Q 3600 544 3809 666 
z
" transform="scale(0.015625)"/>
      </defs>
      <use xlink:href="#DejaVuSans-54"/>
      <use xlink:href="#DejaVuSans-41" x="53.333984"/>
      <use xlink:href="#DejaVuSans-47" x="119.992188"/>
     </g>
    </g>
   </g>
   <g id="text_9">
    <g clip-path="url(#p3bebebb4e9)">
     <!-- TGA -->
     <g transform="translate(217.294096 79.446787) scale(0.12 -0.12)">
      <use xlink:href="#DejaVuSans-54"/>
      <use xlink:href="#DejaVuSans-47" x="61.083984"/>
      <use xlink:href="#DejaVuSans-41" x="138.574219"/>
     </g>
    </g>
   </g>
   <g id="legend_1">
    <g id="patch_17">
     <path d="M 14.2 44.55625 
L 116.278125 44.55625 
Q 118.278125 44.55625 118.278125 42.55625 
L 118.278125 14.2 
Q 118.278125 12.2 116.278125 12.2 
L 14.2 12.2 
Q 12.2 12.2 12.2 14.2 
L 12.2 42.55625 
Q 12.2 44.55625 14.2 44.55625 
z
" style="fill: #ffffff; opacity: 0.8; stroke: #cccccc; stroke-linejoin: miter"/>
    </g>
    <g id="patch_18">
     <path d="M 16.2 23.798438 
L 36.2 23.798438 
L 36.2 16.798438 
L 16.2 16.798438 
z
" style="fill: #0000ff"/>
    </g>
    <g id="text_10">
     <!-- Genomic data -->
     <g transform="translate(44.2 23.798438) scale(0.1 -0.1)">
      <defs>
       <path id="DejaVuSans-65" d="M 3597 1894 
L 3597 1613 
L 953 1613 
Q 991 1019 1311 708 
Q 1631 397 2203 397 
Q 2534 397 2845 478 
Q 3156 559 3463 722 
L 3463 178 
Q 3153 47 2828 -22 
Q 2503 -91 2169 -91 
Q 1331 -91 842 396 
Q 353 884 353 1716 
Q 353 2575 817 3079 
Q 1281 3584 2069 3584 
Q 2775 3584 3186 3129 
Q 3597 2675 3597 1894 
z
M 3022 2063 
Q 3016 2534 2758 2815 
Q 2500 3097 2075 3097 
Q 1594 3097 1305 2825 
Q 1016 2553 972 2059 
L 3022 2063 
z
" transform="scale(0.015625)"/>
       <path id="DejaVuSans-6e" d="M 3513 2113 
L 3513 0 
L 2938 0 
L 2938 2094 
Q 2938 2591 2744 2837 
Q 2550 3084 2163 3084 
Q 1697 3084 1428 2787 
Q 1159 2491 1159 1978 
L 1159 0 
L 581 0 
L 581 3500 
L 1159 3500 
L 1159 2956 
Q 1366 3272 1645 3428 
Q 1925 3584 2291 3584 
Q 2894 3584 3203 3211 
Q 3513 2838 3513 2113 
z
" transform="scale(0.015625)"/>
       <path id="DejaVuSans-6f" d="M 1959 3097 
Q 1497 3097 1228 2736 
Q 959 2375 959 1747 
Q 959 1119 1226 758 
Q 1494 397 1959 397 
Q 2419 397 2687 759 
Q 2956 1122 2956 1747 
Q 2956 2369 2687 2733 
Q 2419 3097 1959 3097 
z
M 1959 3584 
Q 2709 3584 3137 3096 
Q 3566 2609 3566 1747 
Q 3566 888 3137 398 
Q 2709 -91 1959 -91 
Q 1206 -91 779 398 
Q 353 888 353 1747 
Q 353 2609 779 3096 
Q 1206 3584 1959 3584 
z
" transform="scale(0.015625)"/>
       <path id="DejaVuSans-6d" d="M 3328 2828 
Q 3544 3216 3844 3400 
Q 4144 3584 4550 3584 
Q 5097 3584 5394 3201 
Q 5691 2819 5691 2113 
L 5691 0 
L 5113 0 
L 5113 2094 
Q 5113 2597 4934 2840 
Q 4756 3084 4391 3084 
Q 3944 3084 3684 2787 
Q 3425 2491 3425 1978 
L 3425 0 
L 2847 0 
L 2847 2094 
Q 2847 2600 2669 2842 
Q 2491 3084 2119 3084 
Q 1678 3084 1418 2786 
Q 1159 2488 1159 1978 
L 1159 0 
L 581 0 
L 581 3500 
L 1159 3500 
L 1159 2956 
Q 1356 3278 1631 3431 
Q 1906 3584 2284 3584 
Q 2666 3584 2933 3390 
Q 3200 3197 3328 2828 
z
" transform="scale(0.015625)"/>
       <path id="DejaVuSans-69" d="M 603 3500 
L 1178 3500 
L 1178 0 
L 603 0 
L 603 3500 
z
M 603 4863 
L 1178 4863 
L 1178 4134 
L 603 4134 
L 603 4863 
z
" transform="scale(0.015625)"/>
       <path id="DejaVuSans-63" d="M 3122 3366 
L 3122 2828 
Q 2878 2963 2633 3030 
Q 2388 3097 2138 3097 
Q 1578 3097 1268 2742 
Q 959 2388 959 1747 
Q 959 1106 1268 751 
Q 1578 397 2138 397 
Q 2388 397 2633 464 
Q 2878 531 3122 666 
L 3122 134 
Q 2881 22 2623 -34 
Q 2366 -91 2075 -91 
Q 1284 -91 818 406 
Q 353 903 353 1747 
Q 353 2603 823 3093 
Q 1294 3584 2113 3584 
Q 2378 3584 2631 3529 
Q 2884 3475 3122 3366 
z
" transform="scale(0.015625)"/>
       <path id="DejaVuSans-20" transform="scale(0.015625)"/>
       <path id="DejaVuSans-64" d="M 2906 2969 
L 2906 4863 
L 3481 4863 
L 3481 0 
L 2906 0 
L 2906 525 
Q 2725 213 2448 61 
Q 2172 -91 1784 -91 
Q 1150 -91 751 415 
Q 353 922 353 1747 
Q 353 2572 751 3078 
Q 1150 3584 1784 3584 
Q 2172 3584 2448 3432 
Q 2725 3281 2906 2969 
z
M 947 1747 
Q 947 1113 1208 752 
Q 1469 391 1925 391 
Q 2381 391 2643 752 
Q 2906 1113 2906 1747 
Q 2906 2381 2643 2742 
Q 2381 3103 1925 3103 
Q 1469 3103 1208 2742 
Q 947 2381 947 1747 
z
" transform="scale(0.015625)"/>
       <path id="DejaVuSans-61" d="M 2194 1759 
Q 1497 1759 1228 1600 
Q 959 1441 959 1056 
Q 959 750 1161 570 
Q 1363 391 1709 391 
Q 2188 391 2477 730 
Q 2766 1069 2766 1631 
L 2766 1759 
L 2194 1759 
z
M 3341 1997 
L 3341 0 
L 2766 0 
L 2766 531 
Q 2569 213 2275 61 
Q 1981 -91 1556 -91 
Q 1019 -91 701 211 
Q 384 513 384 1019 
Q 384 1609 779 1909 
Q 1175 2209 1959 2209 
L 2766 2209 
L 2766 2266 
Q 2766 2663 2505 2880 
Q 2244 3097 1772 3097 
Q 1472 3097 1187 3025 
Q 903 2953 641 2809 
L 641 3341 
Q 956 3463 1253 3523 
Q 1550 3584 1831 3584 
Q 2591 3584 2966 3190 
Q 3341 2797 3341 1997 
z
" transform="scale(0.015625)"/>
       <path id="DejaVuSans-74" d="M 1172 4494 
L 1172 3500 
L 2356 3500 
L 2356 3053 
L 1172 3053 
L 1172 1153 
Q 1172 725 1289 603 
Q 1406 481 1766 481 
L 2356 481 
L 2356 0 
L 1766 0 
Q 1100 0 847 248 
Q 594 497 594 1153 
L 594 3053 
L 172 3053 
L 172 3500 
L 594 3500 
L 594 4494 
L 1172 4494 
z
" transform="scale(0.015625)"/>
      </defs>
      <use xlink:href="#DejaVuSans-47"/>
      <use xlink:href="#DejaVuSans-65" x="77.490234"/>
      <use xlink:href="#DejaVuSans-6e" x="139.013672"/>
      <use xlink:href="#DejaVuSans-6f" x="202.392578"/>
      <use xlink:href="#DejaVuSans-6d" x="263.574219"/>
      <use xlink:href="#DejaVuSans-69" x="360.986328"/>
      <use xlink:href="#DejaVuSans-63" x="388.769531"/>
      <use xlink:href="#DejaVuSans-20" x="443.75"/>
      <use xlink:href="#DejaVuSans-64" x="475.537109"/>
      <use xlink:href="#DejaVuSans-61" x="539.013672"/>
      <use xlink:href="#DejaVuSans-74" x="600.292969"/>
      <use xlink:href="#DejaVuSans-61" x="639.501953"/>
     </g>
    </g>
    <g id="patch_19">
     <path d="M 16.2 38.476563 
L 36.2 38.476563 
L 36.2 31.476563 
L 16.2 31.476563 
z
" style="fill: #ff0000"/>
    </g>
    <g id="text_11">
     <!-- Genetic code -->
     <g transform="translate(44.2 38.476563) scale(0.1 -0.1)">
      <use xlink:href="#DejaVuSans-47"/>
      <use xlink:href="#DejaVuSans-65" x="77.490234"/>
      <use xlink:href="#DejaVuSans-6e" x="139.013672"/>
      <use xlink:href="#DejaVuSans-65" x="202.392578"/>
      <use xlink:href="#DejaVuSans-74" x="263.916016"/>
      <use xlink:href="#DejaVuSans-69" x="303.125"/>
      <use xlink:href="#DejaVuSans-63" x="330.908203"/>
      <use xlink:href="#DejaVuSans-20" x="385.888672"/>
      <use xlink:href="#DejaVuSans-63" x="417.675781"/>
      <use xlink:href="#DejaVuSans-6f" x="472.65625"/>
      <use xlink:href="#DejaVuSans-64" x="533.837891"/>
      <use xlink:href="#DejaVuSans-65" x="597.314453"/>
     </g>
    </g>
   </g>
  </g>
 </g>
 <defs>
  <clipPath id="p3bebebb4e9">
   <rect x="7.2" y="7.2" width="538.628354" height="554.4"/>
  </clipPath>
 </defs>
</svg>
