<?xml version="1.0" encoding="utf-8" standalone="no"?>
<!DOCTYPE svg PUBLIC "-//W3C//DTD SVG 1.1//EN"
  "http://www.w3.org/Graphics/SVG/1.1/DTD/svg11.dtd">
<svg xmlns:xlink="http://www.w3.org/1999/xlink" width="518.20615pt" height="339.42375pt" viewBox="0 0 518.20615 339.42375" xmlns="http://www.w3.org/2000/svg" version="1.1">
 <metadata>
  <rdf:RDF xmlns:dc="http://purl.org/dc/elements/1.1/" xmlns:cc="http://creativecommons.org/ns#" xmlns:rdf="http://www.w3.org/1999/02/22-rdf-syntax-ns#">
   <cc:Work>
    <dc:type rdf:resource="http://purl.org/dc/dcmitype/StillImage"/>
    <dc:date>2024-04-17T13:50:26.895878</dc:date>
    <dc:format>image/svg+xml</dc:format>
    <dc:creator>
     <cc:Agent>
      <dc:title>Matplotlib v3.8.3, https://matplotlib.org/</dc:title>
     </cc:Agent>
    </dc:creator>
   </cc:Work>
  </rdf:RDF>
 </metadata>
 <defs>
  <style type="text/css">*{stroke-linejoin: round; stroke-linecap: butt}</style>
 </defs>
 <g id="figure_1">
  <g id="patch_1">
   <path d="M 0 339.42375 
L 518.20615 339.42375 
L 518.20615 0 
L 0 0 
z
" style="fill: #ffffff"/>
  </g>
  <g id="axes_1">
   <g id="patch_2">
    <path d="M 43.78125 301.8675 
L 400.90125 301.8675 
L 400.90125 35.7555 
L 43.78125 35.7555 
z
" style="fill: #ffffff"/>
   </g>
   <g id="patch_3">
    <path d="M 60.013977 301.8675 
L 64.741956 301.8675 
L 64.741956 243.60397 
L 60.013977 243.60397 
z
" clip-path="url(#pd6154dd631)" style="fill: #44a5c2; stroke: #000000; stroke-width: 0.75; stroke-linejoin: miter"/>
   </g>
   <g id="patch_4">
    <path d="M 75.773907 301.8675 
L 80.501885 301.8675 
L 80.501885 271.163635 
L 75.773907 271.163635 
z
" clip-path="url(#pd6154dd631)" style="fill: #44a5c2; stroke: #000000; stroke-width: 0.75; stroke-linejoin: miter"/>
   </g>
   <g id="patch_5">
    <path d="M 91.533836 301.8675 
L 96.261815 301.8675 
L 96.261815 242.69103 
L 91.533836 242.69103 
z
" clip-path="url(#pd6154dd631)" style="fill: #44a5c2; stroke: #000000; stroke-width: 0.75; stroke-linejoin: miter"/>
   </g>
   <g id="patch_6">
    <path d="M 107.293765 301.8675 
L 112.021744 301.8675 
L 112.021744 173.965375 
L 107.293765 173.965375 
z
" clip-path="url(#pd6154dd631)" style="fill: #44a5c2; stroke: #000000; stroke-width: 0.75; stroke-linejoin: miter"/>
   </g>
   <g id="patch_7">
    <path d="M 123.053695 301.8675 
L 127.781674 301.8675 
L 127.781674 122.618964 
L 123.053695 122.618964 
z
" clip-path="url(#pd6154dd631)" style="fill: #44a5c2; stroke: #000000; stroke-width: 0.75; stroke-linejoin: miter"/>
   </g>
   <g id="patch_8">
    <path d="M 138.813624 301.8675 
L 143.541603 301.8675 
L 143.541603 205.689096 
L 138.813624 205.689096 
z
" clip-path="url(#pd6154dd631)" style="fill: #44a5c2; stroke: #000000; stroke-width: 0.75; stroke-linejoin: miter"/>
   </g>
   <g id="patch_9">
    <path d="M 154.573554 301.8675 
L 159.301532 301.8675 
L 159.301532 234.934427 
L 154.573554 234.934427 
z
" clip-path="url(#pd6154dd631)" style="fill: #44a5c2; stroke: #000000; stroke-width: 0.75; stroke-linejoin: miter"/>
   </g>
   <g id="patch_10">
    <path d="M 170.333483 301.8675 
L 175.061462 301.8675 
L 175.061462 150.17047 
L 170.333483 150.17047 
z
" clip-path="url(#pd6154dd631)" style="fill: #44a5c2; stroke: #000000; stroke-width: 0.75; stroke-linejoin: miter"/>
   </g>
   <g id="patch_11">
    <path d="M 186.093412 301.8675 
L 190.821391 301.8675 
L 190.821391 202.043337 
L 186.093412 202.043337 
z
" clip-path="url(#pd6154dd631)" style="fill: #44a5c2; stroke: #000000; stroke-width: 0.75; stroke-linejoin: miter"/>
   </g>
   <g id="patch_12">
    <path d="M 201.853342 301.8675 
L 206.581321 301.8675 
L 206.581321 181.865713 
L 201.853342 181.865713 
z
" clip-path="url(#pd6154dd631)" style="fill: #44a5c2; stroke: #000000; stroke-width: 0.75; stroke-linejoin: miter"/>
   </g>
   <g id="patch_13">
    <path d="M 217.613271 301.8675 
L 222.34125 301.8675 
L 222.34125 229.293058 
L 217.613271 229.293058 
z
" clip-path="url(#pd6154dd631)" style="fill: #44a5c2; stroke: #000000; stroke-width: 0.75; stroke-linejoin: miter"/>
   </g>
   <g id="patch_14">
    <path d="M 233.373201 301.8675 
L 238.101179 301.8675 
L 238.101179 183.563987 
L 233.373201 183.563987 
z
" clip-path="url(#pd6154dd631)" style="fill: #44a5c2; stroke: #000000; stroke-width: 0.75; stroke-linejoin: miter"/>
   </g>
   <g id="patch_15">
    <path d="M 249.13313 301.8675 
L 253.861109 301.8675 
L 253.861109 131.442827 
L 249.13313 131.442827 
z
" clip-path="url(#pd6154dd631)" style="fill: #44a5c2; stroke: #000000; stroke-width: 0.75; stroke-linejoin: miter"/>
   </g>
   <g id="patch_16">
    <path d="M 264.893059 301.8675 
L 269.621038 301.8675 
L 269.621038 142.183815 
L 264.893059 142.183815 
z
" clip-path="url(#pd6154dd631)" style="fill: #44a5c2; stroke: #000000; stroke-width: 0.75; stroke-linejoin: miter"/>
   </g>
   <g id="patch_17">
    <path d="M 280.652989 301.8675 
L 285.380968 301.8675 
L 285.380968 157.275836 
L 280.652989 157.275836 
z
" clip-path="url(#pd6154dd631)" style="fill: #44a5c2; stroke: #000000; stroke-width: 0.75; stroke-linejoin: miter"/>
   </g>
   <g id="patch_18">
    <path d="M 296.412918 301.8675 
L 301.140897 301.8675 
L 301.140897 161.956905 
L 296.412918 161.956905 
z
" clip-path="url(#pd6154dd631)" style="fill: #44a5c2; stroke: #000000; stroke-width: 0.75; stroke-linejoin: miter"/>
   </g>
   <g id="patch_19">
    <path d="M 312.172848 301.8675 
L 316.900826 301.8675 
L 316.900826 141.380093 
L 312.172848 141.380093 
z
" clip-path="url(#pd6154dd631)" style="fill: #44a5c2; stroke: #000000; stroke-width: 0.75; stroke-linejoin: miter"/>
   </g>
   <g id="patch_20">
    <path d="M 327.932777 301.8675 
L 332.660756 301.8675 
L 332.660756 53.396912 
L 327.932777 53.396912 
z
" clip-path="url(#pd6154dd631)" style="fill: #44a5c2; stroke: #000000; stroke-width: 0.75; stroke-linejoin: miter"/>
   </g>
   <g id="patch_21">
    <path d="M 343.692706 301.8675 
L 348.420685 301.8675 
L 348.420685 160.272251 
L 343.692706 160.272251 
z
" clip-path="url(#pd6154dd631)" style="fill: #44a5c2; stroke: #000000; stroke-width: 0.75; stroke-linejoin: miter"/>
   </g>
   <g id="patch_22">
    <path d="M 359.452636 301.8675 
L 364.180615 301.8675 
L 364.180615 86.072644 
L 359.452636 86.072644 
z
" clip-path="url(#pd6154dd631)" style="fill: #44a5c2; stroke: #000000; stroke-width: 0.75; stroke-linejoin: miter"/>
   </g>
   <g id="patch_23">
    <path d="M 375.212565 301.8675 
L 379.940544 301.8675 
L 379.940544 296.466494 
L 375.212565 296.466494 
z
" clip-path="url(#pd6154dd631)" style="fill: #44a5c2; stroke: #000000; stroke-width: 0.75; stroke-linejoin: miter"/>
   </g>
   <g id="patch_24">
    <path d="M 64.741956 301.8675 
L 69.469935 301.8675 
L 69.469935 221.643542 
L 64.741956 221.643542 
z
" clip-path="url(#pd6154dd631)" style="fill: #ffae49; stroke: #000000; stroke-width: 0.75; stroke-linejoin: miter"/>
   </g>
   <g id="patch_25">
    <path d="M 80.501885 301.8675 
L 85.229864 301.8675 
L 85.229864 221.643542 
L 80.501885 221.643542 
z
" clip-path="url(#pd6154dd631)" style="fill: #ffae49; stroke: #000000; stroke-width: 0.75; stroke-linejoin: miter"/>
   </g>
   <g id="patch_26">
    <path d="M 96.261815 301.8675 
L 100.989794 301.8675 
L 100.989794 221.643542 
L 96.261815 221.643542 
z
" clip-path="url(#pd6154dd631)" style="fill: #ffae49; stroke: #000000; stroke-width: 0.75; stroke-linejoin: miter"/>
   </g>
   <g id="patch_27">
    <path d="M 112.021744 301.8675 
L 116.749723 301.8675 
L 116.749723 221.643542 
L 112.021744 221.643542 
z
" clip-path="url(#pd6154dd631)" style="fill: #ffae49; stroke: #000000; stroke-width: 0.75; stroke-linejoin: miter"/>
   </g>
   <g id="patch_28">
    <path d="M 127.781674 301.8675 
L 132.509652 301.8675 
L 132.509652 221.643542 
L 127.781674 221.643542 
z
" clip-path="url(#pd6154dd631)" style="fill: #ffae49; stroke: #000000; stroke-width: 0.75; stroke-linejoin: miter"/>
   </g>
   <g id="patch_29">
    <path d="M 143.541603 301.8675 
L 148.269582 301.8675 
L 148.269582 221.643542 
L 143.541603 221.643542 
z
" clip-path="url(#pd6154dd631)" style="fill: #ffae49; stroke: #000000; stroke-width: 0.75; stroke-linejoin: miter"/>
   </g>
   <g id="patch_30">
    <path d="M 159.301532 301.8675 
L 164.029511 301.8675 
L 164.029511 221.643542 
L 159.301532 221.643542 
z
" clip-path="url(#pd6154dd631)" style="fill: #ffae49; stroke: #000000; stroke-width: 0.75; stroke-linejoin: miter"/>
   </g>
   <g id="patch_31">
    <path d="M 175.061462 301.8675 
L 179.789441 301.8675 
L 179.789441 221.643542 
L 175.061462 221.643542 
z
" clip-path="url(#pd6154dd631)" style="fill: #ffae49; stroke: #000000; stroke-width: 0.75; stroke-linejoin: miter"/>
   </g>
   <g id="patch_32">
    <path d="M 190.821391 301.8675 
L 195.54937 301.8675 
L 195.54937 221.643542 
L 190.821391 221.643542 
z
" clip-path="url(#pd6154dd631)" style="fill: #ffae49; stroke: #000000; stroke-width: 0.75; stroke-linejoin: miter"/>
   </g>
   <g id="patch_33">
    <path d="M 206.581321 301.8675 
L 211.309299 301.8675 
L 211.309299 221.643542 
L 206.581321 221.643542 
z
" clip-path="url(#pd6154dd631)" style="fill: #ffae49; stroke: #000000; stroke-width: 0.75; stroke-linejoin: miter"/>
   </g>
   <g id="patch_34">
    <path d="M 222.34125 301.8675 
L 227.069229 301.8675 
L 227.069229 221.643542 
L 222.34125 221.643542 
z
" clip-path="url(#pd6154dd631)" style="fill: #ffae49; stroke: #000000; stroke-width: 0.75; stroke-linejoin: miter"/>
   </g>
   <g id="patch_35">
    <path d="M 238.101179 301.8675 
L 242.829158 301.8675 
L 242.829158 221.643542 
L 238.101179 221.643542 
z
" clip-path="url(#pd6154dd631)" style="fill: #ffae49; stroke: #000000; stroke-width: 0.75; stroke-linejoin: miter"/>
   </g>
   <g id="patch_36">
    <path d="M 253.861109 301.8675 
L 258.589088 301.8675 
L 258.589088 141.419584 
L 253.861109 141.419584 
z
" clip-path="url(#pd6154dd631)" style="fill: #ffae49; stroke: #000000; stroke-width: 0.75; stroke-linejoin: miter"/>
   </g>
   <g id="patch_37">
    <path d="M 269.621038 301.8675 
L 274.349017 301.8675 
L 274.349017 141.419584 
L 269.621038 141.419584 
z
" clip-path="url(#pd6154dd631)" style="fill: #ffae49; stroke: #000000; stroke-width: 0.75; stroke-linejoin: miter"/>
   </g>
   <g id="patch_38">
    <path d="M 285.380968 301.8675 
L 290.108946 301.8675 
L 290.108946 141.419584 
L 285.380968 141.419584 
z
" clip-path="url(#pd6154dd631)" style="fill: #ffae49; stroke: #000000; stroke-width: 0.75; stroke-linejoin: miter"/>
   </g>
   <g id="patch_39">
    <path d="M 301.140897 301.8675 
L 305.868876 301.8675 
L 305.868876 141.419584 
L 301.140897 141.419584 
z
" clip-path="url(#pd6154dd631)" style="fill: #ffae49; stroke: #000000; stroke-width: 0.75; stroke-linejoin: miter"/>
   </g>
   <g id="patch_40">
    <path d="M 316.900826 301.8675 
L 321.628805 301.8675 
L 321.628805 141.419584 
L 316.900826 141.419584 
z
" clip-path="url(#pd6154dd631)" style="fill: #ffae49; stroke: #000000; stroke-width: 0.75; stroke-linejoin: miter"/>
   </g>
   <g id="patch_41">
    <path d="M 332.660756 301.8675 
L 337.388735 301.8675 
L 337.388735 61.195626 
L 332.660756 61.195626 
z
" clip-path="url(#pd6154dd631)" style="fill: #ffae49; stroke: #000000; stroke-width: 0.75; stroke-linejoin: miter"/>
   </g>
   <g id="patch_42">
    <path d="M 348.420685 301.8675 
L 353.148664 301.8675 
L 353.148664 141.419584 
L 348.420685 141.419584 
z
" clip-path="url(#pd6154dd631)" style="fill: #ffae49; stroke: #000000; stroke-width: 0.75; stroke-linejoin: miter"/>
   </g>
   <g id="patch_43">
    <path d="M 364.180615 301.8675 
L 368.908593 301.8675 
L 368.908593 61.195626 
L 364.180615 61.195626 
z
" clip-path="url(#pd6154dd631)" style="fill: #ffae49; stroke: #000000; stroke-width: 0.75; stroke-linejoin: miter"/>
   </g>
   <g id="patch_44">
    <path d="M 379.940544 301.8675 
L 384.668523 301.8675 
L 384.668523 141.419584 
L 379.940544 141.419584 
z
" clip-path="url(#pd6154dd631)" style="fill: #ffae49; stroke: #000000; stroke-width: 0.75; stroke-linejoin: miter"/>
   </g>
   <g id="matplotlib.axis_1">
    <g id="xtick_1">
     <g id="line2d_1">
      <defs>
       <path id="md7c64f348b" d="M 0 0 
L 0 3.5 
" style="stroke: #000000; stroke-width: 0.8"/>
      </defs>
      <g>
       <use xlink:href="#md7c64f348b" x="64.741956" y="301.8675" style="stroke: #000000; stroke-width: 0.8"/>
      </g>
     </g>
     <g id="text_1">
      <!-- M -->
      <g transform="translate(60.427894 316.465937) scale(0.1 -0.1)">
       <defs>
        <path id="DejaVuSans-4d" d="M 628 4666 
L 1569 4666 
L 2759 1491 
L 3956 4666 
L 4897 4666 
L 4897 0 
L 4281 0 
L 4281 4097 
L 3078 897 
L 2444 897 
L 1241 4097 
L 1241 0 
L 628 0 
L 628 4666 
z
" transform="scale(0.015625)"/>
       </defs>
       <use xlink:href="#DejaVuSans-4d"/>
      </g>
     </g>
    </g>
    <g id="xtick_2">
     <g id="line2d_2">
      <g>
       <use xlink:href="#md7c64f348b" x="80.501885" y="301.8675" style="stroke: #000000; stroke-width: 0.8"/>
      </g>
     </g>
     <g id="text_2">
      <!-- W -->
      <g transform="translate(75.558135 316.465937) scale(0.1 -0.1)">
       <defs>
        <path id="DejaVuSans-57" d="M 213 4666 
L 850 4666 
L 1831 722 
L 2809 4666 
L 3519 4666 
L 4500 722 
L 5478 4666 
L 6119 4666 
L 4947 0 
L 4153 0 
L 3169 4050 
L 2175 0 
L 1381 0 
L 213 4666 
z
" transform="scale(0.015625)"/>
       </defs>
       <use xlink:href="#DejaVuSans-57"/>
      </g>
     </g>
    </g>
    <g id="xtick_3">
     <g id="line2d_3">
      <g>
       <use xlink:href="#md7c64f348b" x="96.261815" y="301.8675" style="stroke: #000000; stroke-width: 0.8"/>
      </g>
     </g>
     <g id="text_3">
      <!-- C -->
      <g transform="translate(92.770409 316.465937) scale(0.1 -0.1)">
       <defs>
        <path id="DejaVuSans-43" d="M 4122 4306 
L 4122 3641 
Q 3803 3938 3442 4084 
Q 3081 4231 2675 4231 
Q 1875 4231 1450 3742 
Q 1025 3253 1025 2328 
Q 1025 1406 1450 917 
Q 1875 428 2675 428 
Q 3081 428 3442 575 
Q 3803 722 4122 1019 
L 4122 359 
Q 3791 134 3420 21 
Q 3050 -91 2638 -91 
Q 1578 -91 968 557 
Q 359 1206 359 2328 
Q 359 3453 968 4101 
Q 1578 4750 2638 4750 
Q 3056 4750 3426 4639 
Q 3797 4528 4122 4306 
z
" transform="scale(0.015625)"/>
       </defs>
       <use xlink:href="#DejaVuSans-43"/>
      </g>
     </g>
    </g>
    <g id="xtick_4">
     <g id="line2d_4">
      <g>
       <use xlink:href="#md7c64f348b" x="112.021744" y="301.8675" style="stroke: #000000; stroke-width: 0.8"/>
      </g>
     </g>
     <g id="text_4">
      <!-- D -->
      <g transform="translate(108.171744 316.465937) scale(0.1 -0.1)">
       <defs>
        <path id="DejaVuSans-44" d="M 1259 4147 
L 1259 519 
L 2022 519 
Q 2988 519 3436 956 
Q 3884 1394 3884 2338 
Q 3884 3275 3436 3711 
Q 2988 4147 2022 4147 
L 1259 4147 
z
M 628 4666 
L 1925 4666 
Q 3281 4666 3915 4102 
Q 4550 3538 4550 2338 
Q 4550 1131 3912 565 
Q 3275 0 1925 0 
L 628 0 
L 628 4666 
z
" transform="scale(0.015625)"/>
       </defs>
       <use xlink:href="#DejaVuSans-44"/>
      </g>
     </g>
    </g>
    <g id="xtick_5">
     <g id="line2d_5">
      <g>
       <use xlink:href="#md7c64f348b" x="127.781674" y="301.8675" style="stroke: #000000; stroke-width: 0.8"/>
      </g>
     </g>
     <g id="text_5">
      <!-- E -->
      <g transform="translate(124.622299 316.465937) scale(0.1 -0.1)">
       <defs>
        <path id="DejaVuSans-45" d="M 628 4666 
L 3578 4666 
L 3578 4134 
L 1259 4134 
L 1259 2753 
L 3481 2753 
L 3481 2222 
L 1259 2222 
L 1259 531 
L 3634 531 
L 3634 0 
L 628 0 
L 628 4666 
z
" transform="scale(0.015625)"/>
       </defs>
       <use xlink:href="#DejaVuSans-45"/>
      </g>
     </g>
    </g>
    <g id="xtick_6">
     <g id="line2d_6">
      <g>
       <use xlink:href="#md7c64f348b" x="143.541603" y="301.8675" style="stroke: #000000; stroke-width: 0.8"/>
      </g>
     </g>
     <g id="text_6">
      <!-- F -->
      <g transform="translate(140.665822 316.465937) scale(0.1 -0.1)">
       <defs>
        <path id="DejaVuSans-46" d="M 628 4666 
L 3309 4666 
L 3309 4134 
L 1259 4134 
L 1259 2759 
L 3109 2759 
L 3109 2228 
L 1259 2228 
L 1259 0 
L 628 0 
L 628 4666 
z
" transform="scale(0.015625)"/>
       </defs>
       <use xlink:href="#DejaVuSans-46"/>
      </g>
     </g>
    </g>
    <g id="xtick_7">
     <g id="line2d_7">
      <g>
       <use xlink:href="#md7c64f348b" x="159.301532" y="301.8675" style="stroke: #000000; stroke-width: 0.8"/>
      </g>
     </g>
     <g id="text_7">
      <!-- H -->
      <g transform="translate(155.541376 316.465937) scale(0.1 -0.1)">
       <defs>
        <path id="DejaVuSans-48" d="M 628 4666 
L 1259 4666 
L 1259 2753 
L 3553 2753 
L 3553 4666 
L 4184 4666 
L 4184 0 
L 3553 0 
L 3553 2222 
L 1259 2222 
L 1259 0 
L 628 0 
L 628 4666 
z
" transform="scale(0.015625)"/>
       </defs>
       <use xlink:href="#DejaVuSans-48"/>
      </g>
     </g>
    </g>
    <g id="xtick_8">
     <g id="line2d_8">
      <g>
       <use xlink:href="#md7c64f348b" x="175.061462" y="301.8675" style="stroke: #000000; stroke-width: 0.8"/>
      </g>
     </g>
     <g id="text_8">
      <!-- K -->
      <g transform="translate(171.782556 316.465937) scale(0.1 -0.1)">
       <defs>
        <path id="DejaVuSans-4b" d="M 628 4666 
L 1259 4666 
L 1259 2694 
L 3353 4666 
L 4166 4666 
L 1850 2491 
L 4331 0 
L 3500 0 
L 1259 2247 
L 1259 0 
L 628 0 
L 628 4666 
z
" transform="scale(0.015625)"/>
       </defs>
       <use xlink:href="#DejaVuSans-4b"/>
      </g>
     </g>
    </g>
    <g id="xtick_9">
     <g id="line2d_9">
      <g>
       <use xlink:href="#md7c64f348b" x="190.821391" y="301.8675" style="stroke: #000000; stroke-width: 0.8"/>
      </g>
     </g>
     <g id="text_9">
      <!-- N -->
      <g transform="translate(187.080766 316.465937) scale(0.1 -0.1)">
       <defs>
        <path id="DejaVuSans-4e" d="M 628 4666 
L 1478 4666 
L 3547 763 
L 3547 4666 
L 4159 4666 
L 4159 0 
L 3309 0 
L 1241 3903 
L 1241 0 
L 628 0 
L 628 4666 
z
" transform="scale(0.015625)"/>
       </defs>
       <use xlink:href="#DejaVuSans-4e"/>
      </g>
     </g>
    </g>
    <g id="xtick_10">
     <g id="line2d_10">
      <g>
       <use xlink:href="#md7c64f348b" x="206.581321" y="301.8675" style="stroke: #000000; stroke-width: 0.8"/>
      </g>
     </g>
     <g id="text_10">
      <!-- Q -->
      <g transform="translate(202.645383 316.465937) scale(0.1 -0.1)">
       <defs>
        <path id="DejaVuSans-51" d="M 2522 4238 
Q 1834 4238 1429 3725 
Q 1025 3213 1025 2328 
Q 1025 1447 1429 934 
Q 1834 422 2522 422 
Q 3209 422 3611 934 
Q 4013 1447 4013 2328 
Q 4013 3213 3611 3725 
Q 3209 4238 2522 4238 
z
M 3406 84 
L 4238 -825 
L 3475 -825 
L 2784 -78 
Q 2681 -84 2626 -87 
Q 2572 -91 2522 -91 
Q 1538 -91 948 567 
Q 359 1225 359 2328 
Q 359 3434 948 4092 
Q 1538 4750 2522 4750 
Q 3503 4750 4090 4092 
Q 4678 3434 4678 2328 
Q 4678 1516 4351 937 
Q 4025 359 3406 84 
z
" transform="scale(0.015625)"/>
       </defs>
       <use xlink:href="#DejaVuSans-51"/>
      </g>
     </g>
    </g>
    <g id="xtick_11">
     <g id="line2d_11">
      <g>
       <use xlink:href="#md7c64f348b" x="222.34125" y="301.8675" style="stroke: #000000; stroke-width: 0.8"/>
      </g>
     </g>
     <g id="text_11">
      <!-- Y -->
      <g transform="translate(219.287344 316.465937) scale(0.1 -0.1)">
       <defs>
        <path id="DejaVuSans-59" d="M -13 4666 
L 666 4666 
L 1959 2747 
L 3244 4666 
L 3922 4666 
L 2272 2222 
L 2272 0 
L 1638 0 
L 1638 2222 
L -13 4666 
z
" transform="scale(0.015625)"/>
       </defs>
       <use xlink:href="#DejaVuSans-59"/>
      </g>
     </g>
    </g>
    <g id="xtick_12">
     <g id="line2d_12">
      <g>
       <use xlink:href="#md7c64f348b" x="238.101179" y="301.8675" style="stroke: #000000; stroke-width: 0.8"/>
      </g>
     </g>
     <g id="text_12">
      <!-- I -->
      <g transform="translate(236.626179 316.465937) scale(0.1 -0.1)">
       <defs>
        <path id="DejaVuSans-49" d="M 628 4666 
L 1259 4666 
L 1259 0 
L 628 0 
L 628 4666 
z
" transform="scale(0.015625)"/>
       </defs>
       <use xlink:href="#DejaVuSans-49"/>
      </g>
     </g>
    </g>
    <g id="xtick_13">
     <g id="line2d_13">
      <g>
       <use xlink:href="#md7c64f348b" x="253.861109" y="301.8675" style="stroke: #000000; stroke-width: 0.8"/>
      </g>
     </g>
     <g id="text_13">
      <!-- A -->
      <g transform="translate(250.440796 316.465937) scale(0.1 -0.1)">
       <defs>
        <path id="DejaVuSans-41" d="M 2188 4044 
L 1331 1722 
L 3047 1722 
L 2188 4044 
z
M 1831 4666 
L 2547 4666 
L 4325 0 
L 3669 0 
L 3244 1197 
L 1141 1197 
L 716 0 
L 50 0 
L 1831 4666 
z
" transform="scale(0.015625)"/>
       </defs>
       <use xlink:href="#DejaVuSans-41"/>
      </g>
     </g>
    </g>
    <g id="xtick_14">
     <g id="line2d_14">
      <g>
       <use xlink:href="#md7c64f348b" x="269.621038" y="301.8675" style="stroke: #000000; stroke-width: 0.8"/>
      </g>
     </g>
     <g id="text_14">
      <!-- G -->
      <g transform="translate(265.746819 316.465937) scale(0.1 -0.1)">
       <defs>
        <path id="DejaVuSans-47" d="M 3809 666 
L 3809 1919 
L 2778 1919 
L 2778 2438 
L 4434 2438 
L 4434 434 
Q 4069 175 3628 42 
Q 3188 -91 2688 -91 
Q 1594 -91 976 548 
Q 359 1188 359 2328 
Q 359 3472 976 4111 
Q 1594 4750 2688 4750 
Q 3144 4750 3555 4637 
Q 3966 4525 4313 4306 
L 4313 3634 
Q 3963 3931 3569 4081 
Q 3175 4231 2741 4231 
Q 1884 4231 1454 3753 
Q 1025 3275 1025 2328 
Q 1025 1384 1454 906 
Q 1884 428 2741 428 
Q 3075 428 3337 486 
Q 3600 544 3809 666 
z
" transform="scale(0.015625)"/>
       </defs>
       <use xlink:href="#DejaVuSans-47"/>
      </g>
     </g>
    </g>
    <g id="xtick_15">
     <g id="line2d_15">
      <g>
       <use xlink:href="#md7c64f348b" x="285.380968" y="301.8675" style="stroke: #000000; stroke-width: 0.8"/>
      </g>
     </g>
     <g id="text_15">
      <!-- P -->
      <g transform="translate(282.366124 316.465937) scale(0.1 -0.1)">
       <defs>
        <path id="DejaVuSans-50" d="M 1259 4147 
L 1259 2394 
L 2053 2394 
Q 2494 2394 2734 2622 
Q 2975 2850 2975 3272 
Q 2975 3691 2734 3919 
Q 2494 4147 2053 4147 
L 1259 4147 
z
M 628 4666 
L 2053 4666 
Q 2838 4666 3239 4311 
Q 3641 3956 3641 3272 
Q 3641 2581 3239 2228 
Q 2838 1875 2053 1875 
L 1259 1875 
L 1259 0 
L 628 0 
L 628 4666 
z
" transform="scale(0.015625)"/>
       </defs>
       <use xlink:href="#DejaVuSans-50"/>
      </g>
     </g>
    </g>
    <g id="xtick_16">
     <g id="line2d_16">
      <g>
       <use xlink:href="#md7c64f348b" x="301.140897" y="301.8675" style="stroke: #000000; stroke-width: 0.8"/>
      </g>
     </g>
     <g id="text_16">
      <!-- T -->
      <g transform="translate(298.086991 316.465937) scale(0.1 -0.1)">
       <defs>
        <path id="DejaVuSans-54" d="M -19 4666 
L 3928 4666 
L 3928 4134 
L 2272 4134 
L 2272 0 
L 1638 0 
L 1638 4134 
L -19 4134 
L -19 4666 
z
" transform="scale(0.015625)"/>
       </defs>
       <use xlink:href="#DejaVuSans-54"/>
      </g>
     </g>
    </g>
    <g id="xtick_17">
     <g id="line2d_17">
      <g>
       <use xlink:href="#md7c64f348b" x="316.900826" y="301.8675" style="stroke: #000000; stroke-width: 0.8"/>
      </g>
     </g>
     <g id="text_17">
      <!-- V -->
      <g transform="translate(313.480514 316.465937) scale(0.1 -0.1)">
       <defs>
        <path id="DejaVuSans-56" d="M 1831 0 
L 50 4666 
L 709 4666 
L 2188 738 
L 3669 4666 
L 4325 4666 
L 2547 0 
L 1831 0 
z
" transform="scale(0.015625)"/>
       </defs>
       <use xlink:href="#DejaVuSans-56"/>
      </g>
     </g>
    </g>
    <g id="xtick_18">
     <g id="line2d_18">
      <g>
       <use xlink:href="#md7c64f348b" x="332.660756" y="301.8675" style="stroke: #000000; stroke-width: 0.8"/>
      </g>
     </g>
     <g id="text_18">
      <!-- L -->
      <g transform="translate(329.874818 316.465937) scale(0.1 -0.1)">
       <defs>
        <path id="DejaVuSans-4c" d="M 628 4666 
L 1259 4666 
L 1259 531 
L 3531 531 
L 3531 0 
L 628 0 
L 628 4666 
z
" transform="scale(0.015625)"/>
       </defs>
       <use xlink:href="#DejaVuSans-4c"/>
      </g>
     </g>
    </g>
    <g id="xtick_19">
     <g id="line2d_19">
      <g>
       <use xlink:href="#md7c64f348b" x="348.420685" y="301.8675" style="stroke: #000000; stroke-width: 0.8"/>
      </g>
     </g>
     <g id="text_19">
      <!-- R -->
      <g transform="translate(344.946466 316.465937) scale(0.1 -0.1)">
       <defs>
        <path id="DejaVuSans-52" d="M 2841 2188 
Q 3044 2119 3236 1894 
Q 3428 1669 3622 1275 
L 4263 0 
L 3584 0 
L 2988 1197 
Q 2756 1666 2539 1819 
Q 2322 1972 1947 1972 
L 1259 1972 
L 1259 0 
L 628 0 
L 628 4666 
L 2053 4666 
Q 2853 4666 3247 4331 
Q 3641 3997 3641 3322 
Q 3641 2881 3436 2590 
Q 3231 2300 2841 2188 
z
M 1259 4147 
L 1259 2491 
L 2053 2491 
Q 2509 2491 2742 2702 
Q 2975 2913 2975 3322 
Q 2975 3731 2742 3939 
Q 2509 4147 2053 4147 
L 1259 4147 
z
" transform="scale(0.015625)"/>
       </defs>
       <use xlink:href="#DejaVuSans-52"/>
      </g>
     </g>
    </g>
    <g id="xtick_20">
     <g id="line2d_20">
      <g>
       <use xlink:href="#md7c64f348b" x="364.180615" y="301.8675" style="stroke: #000000; stroke-width: 0.8"/>
      </g>
     </g>
     <g id="text_20">
      <!-- S -->
      <g transform="translate(361.006396 316.465937) scale(0.1 -0.1)">
       <defs>
        <path id="DejaVuSans-53" d="M 3425 4513 
L 3425 3897 
Q 3066 4069 2747 4153 
Q 2428 4238 2131 4238 
Q 1616 4238 1336 4038 
Q 1056 3838 1056 3469 
Q 1056 3159 1242 3001 
Q 1428 2844 1947 2747 
L 2328 2669 
Q 3034 2534 3370 2195 
Q 3706 1856 3706 1288 
Q 3706 609 3251 259 
Q 2797 -91 1919 -91 
Q 1588 -91 1214 -16 
Q 841 59 441 206 
L 441 856 
Q 825 641 1194 531 
Q 1563 422 1919 422 
Q 2459 422 2753 634 
Q 3047 847 3047 1241 
Q 3047 1584 2836 1778 
Q 2625 1972 2144 2069 
L 1759 2144 
Q 1053 2284 737 2584 
Q 422 2884 422 3419 
Q 422 4038 858 4394 
Q 1294 4750 2059 4750 
Q 2388 4750 2728 4690 
Q 3069 4631 3425 4513 
z
" transform="scale(0.015625)"/>
       </defs>
       <use xlink:href="#DejaVuSans-53"/>
      </g>
     </g>
    </g>
    <g id="xtick_21">
     <g id="line2d_21">
      <g>
       <use xlink:href="#md7c64f348b" x="379.940544" y="301.8675" style="stroke: #000000; stroke-width: 0.8"/>
      </g>
     </g>
     <g id="text_21">
      <!-- * -->
      <g transform="translate(377.440544 316.465937) scale(0.1 -0.1)">
       <defs>
        <path id="DejaVuSans-2a" d="M 3009 3897 
L 1888 3291 
L 3009 2681 
L 2828 2375 
L 1778 3009 
L 1778 1831 
L 1422 1831 
L 1422 3009 
L 372 2375 
L 191 2681 
L 1313 3291 
L 191 3897 
L 372 4206 
L 1422 3572 
L 1422 4750 
L 1778 4750 
L 1778 3572 
L 2828 4206 
L 3009 3897 
z
" transform="scale(0.015625)"/>
       </defs>
       <use xlink:href="#DejaVuSans-2a"/>
      </g>
     </g>
    </g>
    <g id="text_22">
     <!-- Amino acid (plus Stop) -->
     <g transform="translate(165.683438 330.144062) scale(0.1 -0.1)">
      <defs>
       <path id="DejaVuSans-6d" d="M 3328 2828 
Q 3544 3216 3844 3400 
Q 4144 3584 4550 3584 
Q 5097 3584 5394 3201 
Q 5691 2819 5691 2113 
L 5691 0 
L 5113 0 
L 5113 2094 
Q 5113 2597 4934 2840 
Q 4756 3084 4391 3084 
Q 3944 3084 3684 2787 
Q 3425 2491 3425 1978 
L 3425 0 
L 2847 0 
L 2847 2094 
Q 2847 2600 2669 2842 
Q 2491 3084 2119 3084 
Q 1678 3084 1418 2786 
Q 1159 2488 1159 1978 
L 1159 0 
L 581 0 
L 581 3500 
L 1159 3500 
L 1159 2956 
Q 1356 3278 1631 3431 
Q 1906 3584 2284 3584 
Q 2666 3584 2933 3390 
Q 3200 3197 3328 2828 
z
" transform="scale(0.015625)"/>
       <path id="DejaVuSans-69" d="M 603 3500 
L 1178 3500 
L 1178 0 
L 603 0 
L 603 3500 
z
M 603 4863 
L 1178 4863 
L 1178 4134 
L 603 4134 
L 603 4863 
z
" transform="scale(0.015625)"/>
       <path id="DejaVuSans-6e" d="M 3513 2113 
L 3513 0 
L 2938 0 
L 2938 2094 
Q 2938 2591 2744 2837 
Q 2550 3084 2163 3084 
Q 1697 3084 1428 2787 
Q 1159 2491 1159 1978 
L 1159 0 
L 581 0 
L 581 3500 
L 1159 3500 
L 1159 2956 
Q 1366 3272 1645 3428 
Q 1925 3584 2291 3584 
Q 2894 3584 3203 3211 
Q 3513 2838 3513 2113 
z
" transform="scale(0.015625)"/>
       <path id="DejaVuSans-6f" d="M 1959 3097 
Q 1497 3097 1228 2736 
Q 959 2375 959 1747 
Q 959 1119 1226 758 
Q 1494 397 1959 397 
Q 2419 397 2687 759 
Q 2956 1122 2956 1747 
Q 2956 2369 2687 2733 
Q 2419 3097 1959 3097 
z
M 1959 3584 
Q 2709 3584 3137 3096 
Q 3566 2609 3566 1747 
Q 3566 888 3137 398 
Q 2709 -91 1959 -91 
Q 1206 -91 779 398 
Q 353 888 353 1747 
Q 353 2609 779 3096 
Q 1206 3584 1959 3584 
z
" transform="scale(0.015625)"/>
       <path id="DejaVuSans-20" transform="scale(0.015625)"/>
       <path id="DejaVuSans-61" d="M 2194 1759 
Q 1497 1759 1228 1600 
Q 959 1441 959 1056 
Q 959 750 1161 570 
Q 1363 391 1709 391 
Q 2188 391 2477 730 
Q 2766 1069 2766 1631 
L 2766 1759 
L 2194 1759 
z
M 3341 1997 
L 3341 0 
L 2766 0 
L 2766 531 
Q 2569 213 2275 61 
Q 1981 -91 1556 -91 
Q 1019 -91 701 211 
Q 384 513 384 1019 
Q 384 1609 779 1909 
Q 1175 2209 1959 2209 
L 2766 2209 
L 2766 2266 
Q 2766 2663 2505 2880 
Q 2244 3097 1772 3097 
Q 1472 3097 1187 3025 
Q 903 2953 641 2809 
L 641 3341 
Q 956 3463 1253 3523 
Q 1550 3584 1831 3584 
Q 2591 3584 2966 3190 
Q 3341 2797 3341 1997 
z
" transform="scale(0.015625)"/>
       <path id="DejaVuSans-63" d="M 3122 3366 
L 3122 2828 
Q 2878 2963 2633 3030 
Q 2388 3097 2138 3097 
Q 1578 3097 1268 2742 
Q 959 2388 959 1747 
Q 959 1106 1268 751 
Q 1578 397 2138 397 
Q 2388 397 2633 464 
Q 2878 531 3122 666 
L 3122 134 
Q 2881 22 2623 -34 
Q 2366 -91 2075 -91 
Q 1284 -91 818 406 
Q 353 903 353 1747 
Q 353 2603 823 3093 
Q 1294 3584 2113 3584 
Q 2378 3584 2631 3529 
Q 2884 3475 3122 3366 
z
" transform="scale(0.015625)"/>
       <path id="DejaVuSans-64" d="M 2906 2969 
L 2906 4863 
L 3481 4863 
L 3481 0 
L 2906 0 
L 2906 525 
Q 2725 213 2448 61 
Q 2172 -91 1784 -91 
Q 1150 -91 751 415 
Q 353 922 353 1747 
Q 353 2572 751 3078 
Q 1150 3584 1784 3584 
Q 2172 3584 2448 3432 
Q 2725 3281 2906 2969 
z
M 947 1747 
Q 947 1113 1208 752 
Q 1469 391 1925 391 
Q 2381 391 2643 752 
Q 2906 1113 2906 1747 
Q 2906 2381 2643 2742 
Q 2381 3103 1925 3103 
Q 1469 3103 1208 2742 
Q 947 2381 947 1747 
z
" transform="scale(0.015625)"/>
       <path id="DejaVuSans-28" d="M 1984 4856 
Q 1566 4138 1362 3434 
Q 1159 2731 1159 2009 
Q 1159 1288 1364 580 
Q 1569 -128 1984 -844 
L 1484 -844 
Q 1016 -109 783 600 
Q 550 1309 550 2009 
Q 550 2706 781 3412 
Q 1013 4119 1484 4856 
L 1984 4856 
z
" transform="scale(0.015625)"/>
       <path id="DejaVuSans-70" d="M 1159 525 
L 1159 -1331 
L 581 -1331 
L 581 3500 
L 1159 3500 
L 1159 2969 
Q 1341 3281 1617 3432 
Q 1894 3584 2278 3584 
Q 2916 3584 3314 3078 
Q 3713 2572 3713 1747 
Q 3713 922 3314 415 
Q 2916 -91 2278 -91 
Q 1894 -91 1617 61 
Q 1341 213 1159 525 
z
M 3116 1747 
Q 3116 2381 2855 2742 
Q 2594 3103 2138 3103 
Q 1681 3103 1420 2742 
Q 1159 2381 1159 1747 
Q 1159 1113 1420 752 
Q 1681 391 2138 391 
Q 2594 391 2855 752 
Q 3116 1113 3116 1747 
z
" transform="scale(0.015625)"/>
       <path id="DejaVuSans-6c" d="M 603 4863 
L 1178 4863 
L 1178 0 
L 603 0 
L 603 4863 
z
" transform="scale(0.015625)"/>
       <path id="DejaVuSans-75" d="M 544 1381 
L 544 3500 
L 1119 3500 
L 1119 1403 
Q 1119 906 1312 657 
Q 1506 409 1894 409 
Q 2359 409 2629 706 
Q 2900 1003 2900 1516 
L 2900 3500 
L 3475 3500 
L 3475 0 
L 2900 0 
L 2900 538 
Q 2691 219 2414 64 
Q 2138 -91 1772 -91 
Q 1169 -91 856 284 
Q 544 659 544 1381 
z
M 1991 3584 
L 1991 3584 
z
" transform="scale(0.015625)"/>
       <path id="DejaVuSans-73" d="M 2834 3397 
L 2834 2853 
Q 2591 2978 2328 3040 
Q 2066 3103 1784 3103 
Q 1356 3103 1142 2972 
Q 928 2841 928 2578 
Q 928 2378 1081 2264 
Q 1234 2150 1697 2047 
L 1894 2003 
Q 2506 1872 2764 1633 
Q 3022 1394 3022 966 
Q 3022 478 2636 193 
Q 2250 -91 1575 -91 
Q 1294 -91 989 -36 
Q 684 19 347 128 
L 347 722 
Q 666 556 975 473 
Q 1284 391 1588 391 
Q 1994 391 2212 530 
Q 2431 669 2431 922 
Q 2431 1156 2273 1281 
Q 2116 1406 1581 1522 
L 1381 1569 
Q 847 1681 609 1914 
Q 372 2147 372 2553 
Q 372 3047 722 3315 
Q 1072 3584 1716 3584 
Q 2034 3584 2315 3537 
Q 2597 3491 2834 3397 
z
" transform="scale(0.015625)"/>
       <path id="DejaVuSans-74" d="M 1172 4494 
L 1172 3500 
L 2356 3500 
L 2356 3053 
L 1172 3053 
L 1172 1153 
Q 1172 725 1289 603 
Q 1406 481 1766 481 
L 2356 481 
L 2356 0 
L 1766 0 
Q 1100 0 847 248 
Q 594 497 594 1153 
L 594 3053 
L 172 3053 
L 172 3500 
L 594 3500 
L 594 4494 
L 1172 4494 
z
" transform="scale(0.015625)"/>
       <path id="DejaVuSans-29" d="M 513 4856 
L 1013 4856 
Q 1481 4119 1714 3412 
Q 1947 2706 1947 2009 
Q 1947 1309 1714 600 
Q 1481 -109 1013 -844 
L 513 -844 
Q 928 -128 1133 580 
Q 1338 1288 1338 2009 
Q 1338 2731 1133 3434 
Q 928 4138 513 4856 
z
" transform="scale(0.015625)"/>
      </defs>
      <use xlink:href="#DejaVuSans-41"/>
      <use xlink:href="#DejaVuSans-6d" x="68.408203"/>
      <use xlink:href="#DejaVuSans-69" x="165.820312"/>
      <use xlink:href="#DejaVuSans-6e" x="193.603516"/>
      <use xlink:href="#DejaVuSans-6f" x="256.982422"/>
      <use xlink:href="#DejaVuSans-20" x="318.164062"/>
      <use xlink:href="#DejaVuSans-61" x="349.951172"/>
      <use xlink:href="#DejaVuSans-63" x="411.230469"/>
      <use xlink:href="#DejaVuSans-69" x="466.210938"/>
      <use xlink:href="#DejaVuSans-64" x="493.994141"/>
      <use xlink:href="#DejaVuSans-20" x="557.470703"/>
      <use xlink:href="#DejaVuSans-28" x="589.257812"/>
      <use xlink:href="#DejaVuSans-70" x="628.271484"/>
      <use xlink:href="#DejaVuSans-6c" x="691.748047"/>
      <use xlink:href="#DejaVuSans-75" x="719.53125"/>
      <use xlink:href="#DejaVuSans-73" x="782.910156"/>
      <use xlink:href="#DejaVuSans-20" x="835.009766"/>
      <use xlink:href="#DejaVuSans-53" x="866.796875"/>
      <use xlink:href="#DejaVuSans-74" x="930.273438"/>
      <use xlink:href="#DejaVuSans-6f" x="969.482422"/>
      <use xlink:href="#DejaVuSans-70" x="1030.664062"/>
      <use xlink:href="#DejaVuSans-29" x="1094.140625"/>
     </g>
    </g>
   </g>
   <g id="matplotlib.axis_2">
    <g id="ytick_1">
     <g id="line2d_22">
      <defs>
       <path id="mcf900dc8f1" d="M 0 0 
L -3.5 0 
" style="stroke: #000000; stroke-width: 0.8"/>
      </defs>
      <g>
       <use xlink:href="#mcf900dc8f1" x="43.78125" y="301.8675" style="stroke: #000000; stroke-width: 0.8"/>
      </g>
     </g>
     <g id="text_23">
      <!-- 0.0 -->
      <g transform="translate(20.878125 305.666719) scale(0.1 -0.1)">
       <defs>
        <path id="DejaVuSans-30" d="M 2034 4250 
Q 1547 4250 1301 3770 
Q 1056 3291 1056 2328 
Q 1056 1369 1301 889 
Q 1547 409 2034 409 
Q 2525 409 2770 889 
Q 3016 1369 3016 2328 
Q 3016 3291 2770 3770 
Q 2525 4250 2034 4250 
z
M 2034 4750 
Q 2819 4750 3233 4129 
Q 3647 3509 3647 2328 
Q 3647 1150 3233 529 
Q 2819 -91 2034 -91 
Q 1250 -91 836 529 
Q 422 1150 422 2328 
Q 422 3509 836 4129 
Q 1250 4750 2034 4750 
z
" transform="scale(0.015625)"/>
        <path id="DejaVuSans-2e" d="M 684 794 
L 1344 794 
L 1344 0 
L 684 0 
L 684 794 
z
" transform="scale(0.015625)"/>
       </defs>
       <use xlink:href="#DejaVuSans-30"/>
       <use xlink:href="#DejaVuSans-2e" x="63.623047"/>
       <use xlink:href="#DejaVuSans-30" x="95.410156"/>
      </g>
     </g>
    </g>
    <g id="ytick_2">
     <g id="line2d_23">
      <g>
       <use xlink:href="#mcf900dc8f1" x="43.78125" y="270.302065" style="stroke: #000000; stroke-width: 0.8"/>
      </g>
     </g>
     <g id="text_24">
      <!-- 0.5 -->
      <g transform="translate(20.878125 274.101284) scale(0.1 -0.1)">
       <defs>
        <path id="DejaVuSans-35" d="M 691 4666 
L 3169 4666 
L 3169 4134 
L 1269 4134 
L 1269 2991 
Q 1406 3038 1543 3061 
Q 1681 3084 1819 3084 
Q 2600 3084 3056 2656 
Q 3513 2228 3513 1497 
Q 3513 744 3044 326 
Q 2575 -91 1722 -91 
Q 1428 -91 1123 -41 
Q 819 9 494 109 
L 494 744 
Q 775 591 1075 516 
Q 1375 441 1709 441 
Q 2250 441 2565 725 
Q 2881 1009 2881 1497 
Q 2881 1984 2565 2268 
Q 2250 2553 1709 2553 
Q 1456 2553 1204 2497 
Q 953 2441 691 2322 
L 691 4666 
z
" transform="scale(0.015625)"/>
       </defs>
       <use xlink:href="#DejaVuSans-30"/>
       <use xlink:href="#DejaVuSans-2e" x="63.623047"/>
       <use xlink:href="#DejaVuSans-35" x="95.410156"/>
      </g>
     </g>
    </g>
    <g id="ytick_3">
     <g id="line2d_24">
      <g>
       <use xlink:href="#mcf900dc8f1" x="43.78125" y="238.73663" style="stroke: #000000; stroke-width: 0.8"/>
      </g>
     </g>
     <g id="text_25">
      <!-- 1.0 -->
      <g transform="translate(20.878125 242.535849) scale(0.1 -0.1)">
       <defs>
        <path id="DejaVuSans-31" d="M 794 531 
L 1825 531 
L 1825 4091 
L 703 3866 
L 703 4441 
L 1819 4666 
L 2450 4666 
L 2450 531 
L 3481 531 
L 3481 0 
L 794 0 
L 794 531 
z
" transform="scale(0.015625)"/>
       </defs>
       <use xlink:href="#DejaVuSans-31"/>
       <use xlink:href="#DejaVuSans-2e" x="63.623047"/>
       <use xlink:href="#DejaVuSans-30" x="95.410156"/>
      </g>
     </g>
    </g>
    <g id="ytick_4">
     <g id="line2d_25">
      <g>
       <use xlink:href="#mcf900dc8f1" x="43.78125" y="207.171196" style="stroke: #000000; stroke-width: 0.8"/>
      </g>
     </g>
     <g id="text_26">
      <!-- 1.5 -->
      <g transform="translate(20.878125 210.970414) scale(0.1 -0.1)">
       <use xlink:href="#DejaVuSans-31"/>
       <use xlink:href="#DejaVuSans-2e" x="63.623047"/>
       <use xlink:href="#DejaVuSans-35" x="95.410156"/>
      </g>
     </g>
    </g>
    <g id="ytick_5">
     <g id="line2d_26">
      <g>
       <use xlink:href="#mcf900dc8f1" x="43.78125" y="175.605761" style="stroke: #000000; stroke-width: 0.8"/>
      </g>
     </g>
     <g id="text_27">
      <!-- 2.0 -->
      <g transform="translate(20.878125 179.40498) scale(0.1 -0.1)">
       <defs>
        <path id="DejaVuSans-32" d="M 1228 531 
L 3431 531 
L 3431 0 
L 469 0 
L 469 531 
Q 828 903 1448 1529 
Q 2069 2156 2228 2338 
Q 2531 2678 2651 2914 
Q 2772 3150 2772 3378 
Q 2772 3750 2511 3984 
Q 2250 4219 1831 4219 
Q 1534 4219 1204 4116 
Q 875 4013 500 3803 
L 500 4441 
Q 881 4594 1212 4672 
Q 1544 4750 1819 4750 
Q 2544 4750 2975 4387 
Q 3406 4025 3406 3419 
Q 3406 3131 3298 2873 
Q 3191 2616 2906 2266 
Q 2828 2175 2409 1742 
Q 1991 1309 1228 531 
z
" transform="scale(0.015625)"/>
       </defs>
       <use xlink:href="#DejaVuSans-32"/>
       <use xlink:href="#DejaVuSans-2e" x="63.623047"/>
       <use xlink:href="#DejaVuSans-30" x="95.410156"/>
      </g>
     </g>
    </g>
    <g id="ytick_6">
     <g id="line2d_27">
      <g>
       <use xlink:href="#mcf900dc8f1" x="43.78125" y="144.040326" style="stroke: #000000; stroke-width: 0.8"/>
      </g>
     </g>
     <g id="text_28">
      <!-- 2.5 -->
      <g transform="translate(20.878125 147.839545) scale(0.1 -0.1)">
       <use xlink:href="#DejaVuSans-32"/>
       <use xlink:href="#DejaVuSans-2e" x="63.623047"/>
       <use xlink:href="#DejaVuSans-35" x="95.410156"/>
      </g>
     </g>
    </g>
    <g id="ytick_7">
     <g id="line2d_28">
      <g>
       <use xlink:href="#mcf900dc8f1" x="43.78125" y="112.474891" style="stroke: #000000; stroke-width: 0.8"/>
      </g>
     </g>
     <g id="text_29">
      <!-- 3.0 -->
      <g transform="translate(20.878125 116.27411) scale(0.1 -0.1)">
       <defs>
        <path id="DejaVuSans-33" d="M 2597 2516 
Q 3050 2419 3304 2112 
Q 3559 1806 3559 1356 
Q 3559 666 3084 287 
Q 2609 -91 1734 -91 
Q 1441 -91 1130 -33 
Q 819 25 488 141 
L 488 750 
Q 750 597 1062 519 
Q 1375 441 1716 441 
Q 2309 441 2620 675 
Q 2931 909 2931 1356 
Q 2931 1769 2642 2001 
Q 2353 2234 1838 2234 
L 1294 2234 
L 1294 2753 
L 1863 2753 
Q 2328 2753 2575 2939 
Q 2822 3125 2822 3475 
Q 2822 3834 2567 4026 
Q 2313 4219 1838 4219 
Q 1578 4219 1281 4162 
Q 984 4106 628 3988 
L 628 4550 
Q 988 4650 1302 4700 
Q 1616 4750 1894 4750 
Q 2613 4750 3031 4423 
Q 3450 4097 3450 3541 
Q 3450 3153 3228 2886 
Q 3006 2619 2597 2516 
z
" transform="scale(0.015625)"/>
       </defs>
       <use xlink:href="#DejaVuSans-33"/>
       <use xlink:href="#DejaVuSans-2e" x="63.623047"/>
       <use xlink:href="#DejaVuSans-30" x="95.410156"/>
      </g>
     </g>
    </g>
    <g id="ytick_8">
     <g id="line2d_29">
      <g>
       <use xlink:href="#mcf900dc8f1" x="43.78125" y="80.909456" style="stroke: #000000; stroke-width: 0.8"/>
      </g>
     </g>
     <g id="text_30">
      <!-- 3.5 -->
      <g transform="translate(20.878125 84.708675) scale(0.1 -0.1)">
       <use xlink:href="#DejaVuSans-33"/>
       <use xlink:href="#DejaVuSans-2e" x="63.623047"/>
       <use xlink:href="#DejaVuSans-35" x="95.410156"/>
      </g>
     </g>
    </g>
    <g id="ytick_9">
     <g id="line2d_30">
      <g>
       <use xlink:href="#mcf900dc8f1" x="43.78125" y="49.344022" style="stroke: #000000; stroke-width: 0.8"/>
      </g>
     </g>
     <g id="text_31">
      <!-- 4.0 -->
      <g transform="translate(20.878125 53.14324) scale(0.1 -0.1)">
       <defs>
        <path id="DejaVuSans-34" d="M 2419 4116 
L 825 1625 
L 2419 1625 
L 2419 4116 
z
M 2253 4666 
L 3047 4666 
L 3047 1625 
L 3713 1625 
L 3713 1100 
L 3047 1100 
L 3047 0 
L 2419 0 
L 2419 1100 
L 313 1100 
L 313 1709 
L 2253 4666 
z
" transform="scale(0.015625)"/>
       </defs>
       <use xlink:href="#DejaVuSans-34"/>
       <use xlink:href="#DejaVuSans-2e" x="63.623047"/>
       <use xlink:href="#DejaVuSans-30" x="95.410156"/>
      </g>
     </g>
    </g>
    <g id="text_32">
     <!-- Summed amino acid number -->
     <g transform="translate(14.798438 241.35525) rotate(-90) scale(0.1 -0.1)">
      <defs>
       <path id="DejaVuSans-65" d="M 3597 1894 
L 3597 1613 
L 953 1613 
Q 991 1019 1311 708 
Q 1631 397 2203 397 
Q 2534 397 2845 478 
Q 3156 559 3463 722 
L 3463 178 
Q 3153 47 2828 -22 
Q 2503 -91 2169 -91 
Q 1331 -91 842 396 
Q 353 884 353 1716 
Q 353 2575 817 3079 
Q 1281 3584 2069 3584 
Q 2775 3584 3186 3129 
Q 3597 2675 3597 1894 
z
M 3022 2063 
Q 3016 2534 2758 2815 
Q 2500 3097 2075 3097 
Q 1594 3097 1305 2825 
Q 1016 2553 972 2059 
L 3022 2063 
z
" transform="scale(0.015625)"/>
       <path id="DejaVuSans-62" d="M 3116 1747 
Q 3116 2381 2855 2742 
Q 2594 3103 2138 3103 
Q 1681 3103 1420 2742 
Q 1159 2381 1159 1747 
Q 1159 1113 1420 752 
Q 1681 391 2138 391 
Q 2594 391 2855 752 
Q 3116 1113 3116 1747 
z
M 1159 2969 
Q 1341 3281 1617 3432 
Q 1894 3584 2278 3584 
Q 2916 3584 3314 3078 
Q 3713 2572 3713 1747 
Q 3713 922 3314 415 
Q 2916 -91 2278 -91 
Q 1894 -91 1617 61 
Q 1341 213 1159 525 
L 1159 0 
L 581 0 
L 581 4863 
L 1159 4863 
L 1159 2969 
z
" transform="scale(0.015625)"/>
       <path id="DejaVuSans-72" d="M 2631 2963 
Q 2534 3019 2420 3045 
Q 2306 3072 2169 3072 
Q 1681 3072 1420 2755 
Q 1159 2438 1159 1844 
L 1159 0 
L 581 0 
L 581 3500 
L 1159 3500 
L 1159 2956 
Q 1341 3275 1631 3429 
Q 1922 3584 2338 3584 
Q 2397 3584 2469 3576 
Q 2541 3569 2628 3553 
L 2631 2963 
z
" transform="scale(0.015625)"/>
      </defs>
      <use xlink:href="#DejaVuSans-53"/>
      <use xlink:href="#DejaVuSans-75" x="63.476562"/>
      <use xlink:href="#DejaVuSans-6d" x="126.855469"/>
      <use xlink:href="#DejaVuSans-6d" x="224.267578"/>
      <use xlink:href="#DejaVuSans-65" x="321.679688"/>
      <use xlink:href="#DejaVuSans-64" x="383.203125"/>
      <use xlink:href="#DejaVuSans-20" x="446.679688"/>
      <use xlink:href="#DejaVuSans-61" x="478.466797"/>
      <use xlink:href="#DejaVuSans-6d" x="539.746094"/>
      <use xlink:href="#DejaVuSans-69" x="637.158203"/>
      <use xlink:href="#DejaVuSans-6e" x="664.941406"/>
      <use xlink:href="#DejaVuSans-6f" x="728.320312"/>
      <use xlink:href="#DejaVuSans-20" x="789.501953"/>
      <use xlink:href="#DejaVuSans-61" x="821.289062"/>
      <use xlink:href="#DejaVuSans-63" x="882.568359"/>
      <use xlink:href="#DejaVuSans-69" x="937.548828"/>
      <use xlink:href="#DejaVuSans-64" x="965.332031"/>
      <use xlink:href="#DejaVuSans-20" x="1028.808594"/>
      <use xlink:href="#DejaVuSans-6e" x="1060.595703"/>
      <use xlink:href="#DejaVuSans-75" x="1123.974609"/>
      <use xlink:href="#DejaVuSans-6d" x="1187.353516"/>
      <use xlink:href="#DejaVuSans-62" x="1284.765625"/>
      <use xlink:href="#DejaVuSans-65" x="1348.242188"/>
      <use xlink:href="#DejaVuSans-72" x="1409.765625"/>
     </g>
    </g>
    <g id="text_33">
     <!-- 1e8 -->
     <g transform="translate(43.78125 32.7555) scale(0.1 -0.1)">
      <defs>
       <path id="DejaVuSans-38" d="M 2034 2216 
Q 1584 2216 1326 1975 
Q 1069 1734 1069 1313 
Q 1069 891 1326 650 
Q 1584 409 2034 409 
Q 2484 409 2743 651 
Q 3003 894 3003 1313 
Q 3003 1734 2745 1975 
Q 2488 2216 2034 2216 
z
M 1403 2484 
Q 997 2584 770 2862 
Q 544 3141 544 3541 
Q 544 4100 942 4425 
Q 1341 4750 2034 4750 
Q 2731 4750 3128 4425 
Q 3525 4100 3525 3541 
Q 3525 3141 3298 2862 
Q 3072 2584 2669 2484 
Q 3125 2378 3379 2068 
Q 3634 1759 3634 1313 
Q 3634 634 3220 271 
Q 2806 -91 2034 -91 
Q 1263 -91 848 271 
Q 434 634 434 1313 
Q 434 1759 690 2068 
Q 947 2378 1403 2484 
z
M 1172 3481 
Q 1172 3119 1398 2916 
Q 1625 2713 2034 2713 
Q 2441 2713 2670 2916 
Q 2900 3119 2900 3481 
Q 2900 3844 2670 4047 
Q 2441 4250 2034 4250 
Q 1625 4250 1398 4047 
Q 1172 3844 1172 3481 
z
" transform="scale(0.015625)"/>
      </defs>
      <use xlink:href="#DejaVuSans-31"/>
      <use xlink:href="#DejaVuSans-65" x="63.623047"/>
      <use xlink:href="#DejaVuSans-38" x="125.146484"/>
     </g>
    </g>
   </g>
   <g id="line2d_31">
    <path d="M 60.013977 241.119264 
L 60.013977 216.67413 
L 69.469935 216.67413 
L 69.469935 219.158836 
" clip-path="url(#pd6154dd631)" style="fill: none; stroke: #000000; stroke-linecap: square"/>
   </g>
   <g id="line2d_32">
    <path d="M 75.773907 268.678929 
L 75.773907 216.67413 
L 85.229864 216.67413 
L 85.229864 219.158836 
" clip-path="url(#pd6154dd631)" style="fill: none; stroke: #000000; stroke-linecap: square"/>
   </g>
   <g id="line2d_33">
    <path d="M 91.533836 240.206324 
L 91.533836 216.67413 
L 100.989794 216.67413 
L 100.989794 219.158836 
" clip-path="url(#pd6154dd631)" style="fill: none; stroke: #000000; stroke-linecap: square"/>
   </g>
   <g id="line2d_34">
    <path d="M 107.293765 171.480669 
L 107.293765 168.995964 
L 116.749723 168.995964 
L 116.749723 219.158836 
" clip-path="url(#pd6154dd631)" style="fill: none; stroke: #000000; stroke-linecap: square"/>
   </g>
   <g id="line2d_35">
    <path d="M 123.053695 120.134258 
L 123.053695 117.649552 
L 132.509652 117.649552 
L 132.509652 219.158836 
" clip-path="url(#pd6154dd631)" style="fill: none; stroke: #000000; stroke-linecap: square"/>
   </g>
   <g id="line2d_36">
    <path d="M 138.813624 203.20439 
L 138.813624 200.719684 
L 148.269582 200.719684 
L 148.269582 219.158836 
" clip-path="url(#pd6154dd631)" style="fill: none; stroke: #000000; stroke-linecap: square"/>
   </g>
   <g id="line2d_37">
    <path d="M 154.573554 232.449721 
L 154.573554 216.67413 
L 164.029511 216.67413 
L 164.029511 219.158836 
" clip-path="url(#pd6154dd631)" style="fill: none; stroke: #000000; stroke-linecap: square"/>
   </g>
   <g id="line2d_38">
    <path d="M 170.333483 147.685765 
L 170.333483 145.201059 
L 179.789441 145.201059 
L 179.789441 219.158836 
" clip-path="url(#pd6154dd631)" style="fill: none; stroke: #000000; stroke-linecap: square"/>
   </g>
   <g id="line2d_39">
    <path d="M 186.093412 199.558631 
L 186.093412 197.073925 
L 195.54937 197.073925 
L 195.54937 219.158836 
" clip-path="url(#pd6154dd631)" style="fill: none; stroke: #000000; stroke-linecap: square"/>
   </g>
   <g id="line2d_40">
    <path d="M 201.853342 179.381007 
L 201.853342 176.896301 
L 211.309299 176.896301 
L 211.309299 219.158836 
" clip-path="url(#pd6154dd631)" style="fill: none; stroke: #000000; stroke-linecap: square"/>
   </g>
   <g id="line2d_41">
    <path d="M 217.613271 226.808352 
L 217.613271 216.67413 
L 227.069229 216.67413 
L 227.069229 219.158836 
" clip-path="url(#pd6154dd631)" style="fill: none; stroke: #000000; stroke-linecap: square"/>
   </g>
   <g id="line2d_42">
    <path d="M 233.373201 181.079281 
L 233.373201 178.594575 
L 242.829158 178.594575 
L 242.829158 219.158836 
" clip-path="url(#pd6154dd631)" style="fill: none; stroke: #000000; stroke-linecap: square"/>
   </g>
   <g id="line2d_43">
    <path d="M 249.13313 128.958122 
L 249.13313 126.473416 
L 258.589088 126.473416 
L 258.589088 138.934878 
" clip-path="url(#pd6154dd631)" style="fill: none; stroke: #000000; stroke-linecap: square"/>
   </g>
   <g id="line2d_44">
    <path d="M 264.893059 139.699109 
L 264.893059 136.450172 
L 274.349017 136.450172 
L 274.349017 138.934878 
" clip-path="url(#pd6154dd631)" style="fill: none; stroke: #000000; stroke-linecap: square"/>
   </g>
   <g id="line2d_45">
    <path d="M 280.652989 154.79113 
L 280.652989 136.450172 
L 290.108946 136.450172 
L 290.108946 138.934878 
" clip-path="url(#pd6154dd631)" style="fill: none; stroke: #000000; stroke-linecap: square"/>
   </g>
   <g id="line2d_46">
    <path d="M 296.412918 159.472199 
L 296.412918 136.450172 
L 305.868876 136.450172 
L 305.868876 138.934878 
" clip-path="url(#pd6154dd631)" style="fill: none; stroke: #000000; stroke-linecap: square"/>
   </g>
   <g id="line2d_47">
    <path d="M 312.172848 138.895387 
L 312.172848 136.410681 
L 321.628805 136.410681 
L 321.628805 138.934878 
" clip-path="url(#pd6154dd631)" style="fill: none; stroke: #000000; stroke-linecap: square"/>
   </g>
   <g id="line2d_48">
    <path d="M 327.932777 50.912206 
L 327.932777 48.4275 
L 337.388735 48.4275 
L 337.388735 58.71092 
" clip-path="url(#pd6154dd631)" style="fill: none; stroke: #000000; stroke-linecap: square"/>
   </g>
   <g id="line2d_49">
    <path d="M 343.692706 157.787545 
L 343.692706 136.450172 
L 353.148664 136.450172 
L 353.148664 138.934878 
" clip-path="url(#pd6154dd631)" style="fill: none; stroke: #000000; stroke-linecap: square"/>
   </g>
   <g id="line2d_50">
    <path d="M 359.452636 83.587938 
L 359.452636 56.226214 
L 368.908593 56.226214 
L 368.908593 58.71092 
" clip-path="url(#pd6154dd631)" style="fill: none; stroke: #000000; stroke-linecap: square"/>
   </g>
   <g id="line2d_51">
    <path d="M 375.212565 293.981788 
L 375.212565 136.450172 
L 384.668523 136.450172 
L 384.668523 138.934878 
" clip-path="url(#pd6154dd631)" style="fill: none; stroke: #000000; stroke-linecap: square"/>
   </g>
   <g id="patch_45">
    <path d="M 43.78125 301.8675 
L 43.78125 35.7555 
" style="fill: none; stroke: #000000; stroke-width: 0.8; stroke-linejoin: miter; stroke-linecap: square"/>
   </g>
   <g id="patch_46">
    <path d="M 400.90125 301.8675 
L 400.90125 35.7555 
" style="fill: none; stroke: #000000; stroke-width: 0.8; stroke-linejoin: miter; stroke-linecap: square"/>
   </g>
   <g id="patch_47">
    <path d="M 43.78125 301.8675 
L 400.90125 301.8675 
" style="fill: none; stroke: #000000; stroke-width: 0.8; stroke-linejoin: miter; stroke-linecap: square"/>
   </g>
   <g id="patch_48">
    <path d="M 43.78125 35.7555 
L 400.90125 35.7555 
" style="fill: none; stroke: #000000; stroke-width: 0.8; stroke-linejoin: miter; stroke-linecap: square"/>
   </g>
   <g id="text_34">
    <!-- -31.7 -->
    <g transform="translate(59.567269 213.357549) scale(0.04 -0.04)">
     <defs>
      <path id="DejaVuSans-2d" d="M 313 2009 
L 1997 2009 
L 1997 1497 
L 313 1497 
L 313 2009 
z
" transform="scale(0.015625)"/>
      <path id="DejaVuSans-37" d="M 525 4666 
L 3525 4666 
L 3525 4397 
L 1831 0 
L 1172 0 
L 2766 4134 
L 525 4134 
L 525 4666 
z
" transform="scale(0.015625)"/>
     </defs>
     <use xlink:href="#DejaVuSans-2d"/>
     <use xlink:href="#DejaVuSans-33" x="36.083984"/>
     <use xlink:href="#DejaVuSans-31" x="99.707031"/>
     <use xlink:href="#DejaVuSans-2e" x="163.330078"/>
     <use xlink:href="#DejaVuSans-37" x="195.117188"/>
    </g>
   </g>
   <g id="text_35">
    <!-- -89.3 -->
    <g transform="translate(75.327198 213.357549) scale(0.04 -0.04)">
     <defs>
      <path id="DejaVuSans-39" d="M 703 97 
L 703 672 
Q 941 559 1184 500 
Q 1428 441 1663 441 
Q 2288 441 2617 861 
Q 2947 1281 2994 2138 
Q 2813 1869 2534 1725 
Q 2256 1581 1919 1581 
Q 1219 1581 811 2004 
Q 403 2428 403 3163 
Q 403 3881 828 4315 
Q 1253 4750 1959 4750 
Q 2769 4750 3195 4129 
Q 3622 3509 3622 2328 
Q 3622 1225 3098 567 
Q 2575 -91 1691 -91 
Q 1453 -91 1209 -44 
Q 966 3 703 97 
z
M 1959 2075 
Q 2384 2075 2632 2365 
Q 2881 2656 2881 3163 
Q 2881 3666 2632 3958 
Q 2384 4250 1959 4250 
Q 1534 4250 1286 3958 
Q 1038 3666 1038 3163 
Q 1038 2656 1286 2365 
Q 1534 2075 1959 2075 
z
" transform="scale(0.015625)"/>
     </defs>
     <use xlink:href="#DejaVuSans-2d"/>
     <use xlink:href="#DejaVuSans-38" x="36.083984"/>
     <use xlink:href="#DejaVuSans-39" x="99.707031"/>
     <use xlink:href="#DejaVuSans-2e" x="163.330078"/>
     <use xlink:href="#DejaVuSans-33" x="195.117188"/>
    </g>
   </g>
   <g id="text_36">
    <!-- -30.2 -->
    <g transform="translate(91.087127 213.357549) scale(0.04 -0.04)">
     <use xlink:href="#DejaVuSans-2d"/>
     <use xlink:href="#DejaVuSans-33" x="36.083984"/>
     <use xlink:href="#DejaVuSans-30" x="99.707031"/>
     <use xlink:href="#DejaVuSans-2e" x="163.330078"/>
     <use xlink:href="#DejaVuSans-32" x="195.117188"/>
    </g>
   </g>
   <g id="text_37">
    <!-- 45.8 -->
    <g transform="translate(107.568619 165.679383) scale(0.04 -0.04)">
     <use xlink:href="#DejaVuSans-34"/>
     <use xlink:href="#DejaVuSans-35" x="63.623047"/>
     <use xlink:href="#DejaVuSans-2e" x="127.246094"/>
     <use xlink:href="#DejaVuSans-38" x="159.033203"/>
    </g>
   </g>
   <g id="text_38">
    <!-- 76.3 -->
    <g transform="translate(123.328549 114.332971) scale(0.04 -0.04)">
     <defs>
      <path id="DejaVuSans-36" d="M 2113 2584 
Q 1688 2584 1439 2293 
Q 1191 2003 1191 1497 
Q 1191 994 1439 701 
Q 1688 409 2113 409 
Q 2538 409 2786 701 
Q 3034 994 3034 1497 
Q 3034 2003 2786 2293 
Q 2538 2584 2113 2584 
z
M 3366 4563 
L 3366 3988 
Q 3128 4100 2886 4159 
Q 2644 4219 2406 4219 
Q 1781 4219 1451 3797 
Q 1122 3375 1075 2522 
Q 1259 2794 1537 2939 
Q 1816 3084 2150 3084 
Q 2853 3084 3261 2657 
Q 3669 2231 3669 1497 
Q 3669 778 3244 343 
Q 2819 -91 2113 -91 
Q 1303 -91 875 529 
Q 447 1150 447 2328 
Q 447 3434 972 4092 
Q 1497 4750 2381 4750 
Q 2619 4750 2861 4703 
Q 3103 4656 3366 4563 
z
" transform="scale(0.015625)"/>
     </defs>
     <use xlink:href="#DejaVuSans-37"/>
     <use xlink:href="#DejaVuSans-36" x="63.623047"/>
     <use xlink:href="#DejaVuSans-2e" x="127.246094"/>
     <use xlink:href="#DejaVuSans-33" x="159.033203"/>
    </g>
   </g>
   <g id="text_39">
    <!-- 18.1 -->
    <g transform="translate(139.088478 197.403103) scale(0.04 -0.04)">
     <use xlink:href="#DejaVuSans-31"/>
     <use xlink:href="#DejaVuSans-38" x="63.623047"/>
     <use xlink:href="#DejaVuSans-2e" x="127.246094"/>
     <use xlink:href="#DejaVuSans-31" x="159.033203"/>
    </g>
   </g>
   <g id="text_40">
    <!-- -18.1 -->
    <g transform="translate(154.126845 213.357549) scale(0.04 -0.04)">
     <use xlink:href="#DejaVuSans-2d"/>
     <use xlink:href="#DejaVuSans-31" x="36.083984"/>
     <use xlink:href="#DejaVuSans-38" x="99.707031"/>
     <use xlink:href="#DejaVuSans-2e" x="163.330078"/>
     <use xlink:href="#DejaVuSans-31" x="195.117188"/>
    </g>
   </g>
   <g id="text_41">
    <!-- 61.6 -->
    <g transform="translate(170.608337 141.884478) scale(0.04 -0.04)">
     <use xlink:href="#DejaVuSans-36"/>
     <use xlink:href="#DejaVuSans-31" x="63.623047"/>
     <use xlink:href="#DejaVuSans-2e" x="127.246094"/>
     <use xlink:href="#DejaVuSans-36" x="159.033203"/>
    </g>
   </g>
   <g id="text_42">
    <!-- 21.8 -->
    <g transform="translate(186.368266 193.757344) scale(0.04 -0.04)">
     <use xlink:href="#DejaVuSans-32"/>
     <use xlink:href="#DejaVuSans-31" x="63.623047"/>
     <use xlink:href="#DejaVuSans-2e" x="127.246094"/>
     <use xlink:href="#DejaVuSans-38" x="159.033203"/>
    </g>
   </g>
   <g id="text_43">
    <!-- 39.7 -->
    <g transform="translate(202.128196 173.57972) scale(0.04 -0.04)">
     <use xlink:href="#DejaVuSans-33"/>
     <use xlink:href="#DejaVuSans-39" x="63.623047"/>
     <use xlink:href="#DejaVuSans-2e" x="127.246094"/>
     <use xlink:href="#DejaVuSans-37" x="159.033203"/>
    </g>
   </g>
   <g id="text_44">
    <!-- -10.0 -->
    <g transform="translate(217.166563 213.357549) scale(0.04 -0.04)">
     <use xlink:href="#DejaVuSans-2d"/>
     <use xlink:href="#DejaVuSans-31" x="36.083984"/>
     <use xlink:href="#DejaVuSans-30" x="99.707031"/>
     <use xlink:href="#DejaVuSans-2e" x="163.330078"/>
     <use xlink:href="#DejaVuSans-30" x="195.117188"/>
    </g>
   </g>
   <g id="text_45">
    <!-- 38.4 -->
    <g transform="translate(233.648054 175.277994) scale(0.04 -0.04)">
     <use xlink:href="#DejaVuSans-33"/>
     <use xlink:href="#DejaVuSans-38" x="63.623047"/>
     <use xlink:href="#DejaVuSans-2e" x="127.246094"/>
     <use xlink:href="#DejaVuSans-34" x="159.033203"/>
    </g>
   </g>
   <g id="text_46">
    <!-- 6.0 -->
    <g transform="translate(250.680484 123.156835) scale(0.04 -0.04)">
     <use xlink:href="#DejaVuSans-36"/>
     <use xlink:href="#DejaVuSans-2e" x="63.623047"/>
     <use xlink:href="#DejaVuSans-30" x="95.410156"/>
    </g>
   </g>
   <g id="text_47">
    <!-- -0.5 -->
    <g transform="translate(265.718851 133.133591) scale(0.04 -0.04)">
     <use xlink:href="#DejaVuSans-2d"/>
     <use xlink:href="#DejaVuSans-30" x="36.083984"/>
     <use xlink:href="#DejaVuSans-2e" x="99.707031"/>
     <use xlink:href="#DejaVuSans-35" x="131.494141"/>
    </g>
   </g>
   <g id="text_48">
    <!-- -10.4 -->
    <g transform="translate(280.20628 133.133591) scale(0.04 -0.04)">
     <use xlink:href="#DejaVuSans-2d"/>
     <use xlink:href="#DejaVuSans-31" x="36.083984"/>
     <use xlink:href="#DejaVuSans-30" x="99.707031"/>
     <use xlink:href="#DejaVuSans-2e" x="163.330078"/>
     <use xlink:href="#DejaVuSans-34" x="195.117188"/>
    </g>
   </g>
   <g id="text_49">
    <!-- -13.7 -->
    <g transform="translate(295.966209 133.133591) scale(0.04 -0.04)">
     <use xlink:href="#DejaVuSans-2d"/>
     <use xlink:href="#DejaVuSans-31" x="36.083984"/>
     <use xlink:href="#DejaVuSans-33" x="99.707031"/>
     <use xlink:href="#DejaVuSans-2e" x="163.330078"/>
     <use xlink:href="#DejaVuSans-37" x="195.117188"/>
    </g>
   </g>
   <g id="text_50">
    <!-- 0.0 -->
    <g transform="translate(313.720201 133.0941) scale(0.04 -0.04)">
     <use xlink:href="#DejaVuSans-30"/>
     <use xlink:href="#DejaVuSans-2e" x="63.623047"/>
     <use xlink:href="#DejaVuSans-30" x="95.410156"/>
    </g>
   </g>
   <g id="text_51">
    <!-- 3.2 -->
    <g transform="translate(329.480131 45.110919) scale(0.04 -0.04)">
     <use xlink:href="#DejaVuSans-33"/>
     <use xlink:href="#DejaVuSans-2e" x="63.623047"/>
     <use xlink:href="#DejaVuSans-32" x="95.410156"/>
    </g>
   </g>
   <g id="text_52">
    <!-- -12.5 -->
    <g transform="translate(343.245998 133.133591) scale(0.04 -0.04)">
     <use xlink:href="#DejaVuSans-2d"/>
     <use xlink:href="#DejaVuSans-31" x="36.083984"/>
     <use xlink:href="#DejaVuSans-32" x="99.707031"/>
     <use xlink:href="#DejaVuSans-2e" x="163.330078"/>
     <use xlink:href="#DejaVuSans-35" x="195.117188"/>
    </g>
   </g>
   <g id="text_53">
    <!-- -10.9 -->
    <g transform="translate(359.005927 52.909633) scale(0.04 -0.04)">
     <use xlink:href="#DejaVuSans-2d"/>
     <use xlink:href="#DejaVuSans-31" x="36.083984"/>
     <use xlink:href="#DejaVuSans-30" x="99.707031"/>
     <use xlink:href="#DejaVuSans-2e" x="163.330078"/>
     <use xlink:href="#DejaVuSans-39" x="195.117188"/>
    </g>
   </g>
   <g id="text_54">
    <!-- -187.0 -->
    <g transform="translate(373.493356 133.133591) scale(0.04 -0.04)">
     <use xlink:href="#DejaVuSans-2d"/>
     <use xlink:href="#DejaVuSans-31" x="36.083984"/>
     <use xlink:href="#DejaVuSans-38" x="99.707031"/>
     <use xlink:href="#DejaVuSans-37" x="163.330078"/>
     <use xlink:href="#DejaVuSans-2e" x="226.953125"/>
     <use xlink:href="#DejaVuSans-30" x="258.740234"/>
    </g>
   </g>
   <g id="text_55">
    <g id="patch_49">
     <path d="M 408.04365 60.17849 
L 506.11115 60.17849 
Q 508.51115 60.17849 508.51115 57.77849 
L 508.51115 41.07774 
Q 508.51115 38.67774 506.11115 38.67774 
L 408.04365 38.67774 
Q 405.64365 38.67774 405.64365 41.07774 
L 405.64365 57.77849 
Q 405.64365 60.17849 408.04365 60.17849 
z
" style="fill: #ffffff; opacity: 0.5; stroke: #808080; stroke-linejoin: miter"/>
    </g>
    <!-- pearsonr w/ Stop: 0.62 -->
    <g transform="translate(408.04365 47.15649) scale(0.08 -0.08)">
     <defs>
      <path id="DejaVuSans-77" d="M 269 3500 
L 844 3500 
L 1563 769 
L 2278 3500 
L 2956 3500 
L 3675 769 
L 4391 3500 
L 4966 3500 
L 4050 0 
L 3372 0 
L 2619 2869 
L 1863 0 
L 1184 0 
L 269 3500 
z
" transform="scale(0.015625)"/>
      <path id="DejaVuSans-2f" d="M 1625 4666 
L 2156 4666 
L 531 -594 
L 0 -594 
L 1625 4666 
z
" transform="scale(0.015625)"/>
      <path id="DejaVuSans-3a" d="M 750 794 
L 1409 794 
L 1409 0 
L 750 0 
L 750 794 
z
M 750 3309 
L 1409 3309 
L 1409 2516 
L 750 2516 
L 750 3309 
z
" transform="scale(0.015625)"/>
     </defs>
     <use xlink:href="#DejaVuSans-70"/>
     <use xlink:href="#DejaVuSans-65" x="63.476562"/>
     <use xlink:href="#DejaVuSans-61" x="125"/>
     <use xlink:href="#DejaVuSans-72" x="186.279297"/>
     <use xlink:href="#DejaVuSans-73" x="227.392578"/>
     <use xlink:href="#DejaVuSans-6f" x="279.492188"/>
     <use xlink:href="#DejaVuSans-6e" x="340.673828"/>
     <use xlink:href="#DejaVuSans-72" x="404.052734"/>
     <use xlink:href="#DejaVuSans-20" x="445.166016"/>
     <use xlink:href="#DejaVuSans-77" x="476.953125"/>
     <use xlink:href="#DejaVuSans-2f" x="558.740234"/>
     <use xlink:href="#DejaVuSans-20" x="592.431641"/>
     <use xlink:href="#DejaVuSans-53" x="624.21875"/>
     <use xlink:href="#DejaVuSans-74" x="687.695312"/>
     <use xlink:href="#DejaVuSans-6f" x="726.904297"/>
     <use xlink:href="#DejaVuSans-70" x="788.085938"/>
     <use xlink:href="#DejaVuSans-3a" x="851.5625"/>
     <use xlink:href="#DejaVuSans-20" x="885.253906"/>
     <use xlink:href="#DejaVuSans-30" x="917.041016"/>
     <use xlink:href="#DejaVuSans-2e" x="980.664062"/>
     <use xlink:href="#DejaVuSans-36" x="1012.451172"/>
     <use xlink:href="#DejaVuSans-32" x="1076.074219"/>
    </g>
    <!-- p-value w/ Stop: 2.7e-03 -->
    <g transform="translate(408.04365 56.11474) scale(0.08 -0.08)">
     <defs>
      <path id="DejaVuSans-76" d="M 191 3500 
L 800 3500 
L 1894 563 
L 2988 3500 
L 3597 3500 
L 2284 0 
L 1503 0 
L 191 3500 
z
" transform="scale(0.015625)"/>
     </defs>
     <use xlink:href="#DejaVuSans-70"/>
     <use xlink:href="#DejaVuSans-2d" x="63.476562"/>
     <use xlink:href="#DejaVuSans-76" x="96.935547"/>
     <use xlink:href="#DejaVuSans-61" x="156.115234"/>
     <use xlink:href="#DejaVuSans-6c" x="217.394531"/>
     <use xlink:href="#DejaVuSans-75" x="245.177734"/>
     <use xlink:href="#DejaVuSans-65" x="308.556641"/>
     <use xlink:href="#DejaVuSans-20" x="370.080078"/>
     <use xlink:href="#DejaVuSans-77" x="401.867188"/>
     <use xlink:href="#DejaVuSans-2f" x="483.654297"/>
     <use xlink:href="#DejaVuSans-20" x="517.345703"/>
     <use xlink:href="#DejaVuSans-53" x="549.132812"/>
     <use xlink:href="#DejaVuSans-74" x="612.609375"/>
     <use xlink:href="#DejaVuSans-6f" x="651.818359"/>
     <use xlink:href="#DejaVuSans-70" x="713"/>
     <use xlink:href="#DejaVuSans-3a" x="776.476562"/>
     <use xlink:href="#DejaVuSans-20" x="810.167969"/>
     <use xlink:href="#DejaVuSans-32" x="841.955078"/>
     <use xlink:href="#DejaVuSans-2e" x="905.578125"/>
     <use xlink:href="#DejaVuSans-37" x="937.365234"/>
     <use xlink:href="#DejaVuSans-65" x="1000.988281"/>
     <use xlink:href="#DejaVuSans-2d" x="1062.511719"/>
     <use xlink:href="#DejaVuSans-30" x="1098.595703"/>
     <use xlink:href="#DejaVuSans-33" x="1162.21875"/>
    </g>
   </g>
   <g id="text_56">
    <g id="patch_50">
     <path d="M 408.04365 84.12857 
L 511.00615 84.12857 
Q 513.40615 84.12857 513.40615 81.72857 
L 513.40615 65.02782 
Q 513.40615 62.62782 511.00615 62.62782 
L 408.04365 62.62782 
Q 405.64365 62.62782 405.64365 65.02782 
L 405.64365 81.72857 
Q 405.64365 84.12857 408.04365 84.12857 
z
" style="fill: #ffffff; opacity: 0.5; stroke: #808080; stroke-linejoin: miter"/>
    </g>
    <!-- pearsonr w/o Stop: 0.78 -->
    <g transform="translate(408.04365 71.10657) scale(0.08 -0.08)">
     <use xlink:href="#DejaVuSans-70"/>
     <use xlink:href="#DejaVuSans-65" x="63.476562"/>
     <use xlink:href="#DejaVuSans-61" x="125"/>
     <use xlink:href="#DejaVuSans-72" x="186.279297"/>
     <use xlink:href="#DejaVuSans-73" x="227.392578"/>
     <use xlink:href="#DejaVuSans-6f" x="279.492188"/>
     <use xlink:href="#DejaVuSans-6e" x="340.673828"/>
     <use xlink:href="#DejaVuSans-72" x="404.052734"/>
     <use xlink:href="#DejaVuSans-20" x="445.166016"/>
     <use xlink:href="#DejaVuSans-77" x="476.953125"/>
     <use xlink:href="#DejaVuSans-2f" x="558.740234"/>
     <use xlink:href="#DejaVuSans-6f" x="592.431641"/>
     <use xlink:href="#DejaVuSans-20" x="653.613281"/>
     <use xlink:href="#DejaVuSans-53" x="685.400391"/>
     <use xlink:href="#DejaVuSans-74" x="748.876953"/>
     <use xlink:href="#DejaVuSans-6f" x="788.085938"/>
     <use xlink:href="#DejaVuSans-70" x="849.267578"/>
     <use xlink:href="#DejaVuSans-3a" x="912.744141"/>
     <use xlink:href="#DejaVuSans-20" x="946.435547"/>
     <use xlink:href="#DejaVuSans-30" x="978.222656"/>
     <use xlink:href="#DejaVuSans-2e" x="1041.845703"/>
     <use xlink:href="#DejaVuSans-37" x="1073.632812"/>
     <use xlink:href="#DejaVuSans-38" x="1137.255859"/>
    </g>
    <!-- p-value w/o Stop: 4.4e-05 -->
    <g transform="translate(408.04365 80.06482) scale(0.08 -0.08)">
     <use xlink:href="#DejaVuSans-70"/>
     <use xlink:href="#DejaVuSans-2d" x="63.476562"/>
     <use xlink:href="#DejaVuSans-76" x="96.935547"/>
     <use xlink:href="#DejaVuSans-61" x="156.115234"/>
     <use xlink:href="#DejaVuSans-6c" x="217.394531"/>
     <use xlink:href="#DejaVuSans-75" x="245.177734"/>
     <use xlink:href="#DejaVuSans-65" x="308.556641"/>
     <use xlink:href="#DejaVuSans-20" x="370.080078"/>
     <use xlink:href="#DejaVuSans-77" x="401.867188"/>
     <use xlink:href="#DejaVuSans-2f" x="483.654297"/>
     <use xlink:href="#DejaVuSans-6f" x="517.345703"/>
     <use xlink:href="#DejaVuSans-20" x="578.527344"/>
     <use xlink:href="#DejaVuSans-53" x="610.314453"/>
     <use xlink:href="#DejaVuSans-74" x="673.791016"/>
     <use xlink:href="#DejaVuSans-6f" x="713"/>
     <use xlink:href="#DejaVuSans-70" x="774.181641"/>
     <use xlink:href="#DejaVuSans-3a" x="837.658203"/>
     <use xlink:href="#DejaVuSans-20" x="871.349609"/>
     <use xlink:href="#DejaVuSans-34" x="903.136719"/>
     <use xlink:href="#DejaVuSans-2e" x="966.759766"/>
     <use xlink:href="#DejaVuSans-34" x="998.546875"/>
     <use xlink:href="#DejaVuSans-65" x="1062.169922"/>
     <use xlink:href="#DejaVuSans-2d" x="1123.693359"/>
     <use xlink:href="#DejaVuSans-30" x="1159.777344"/>
     <use xlink:href="#DejaVuSans-35" x="1223.400391"/>
    </g>
   </g>
   <g id="text_57">
    <!-- Correlation between amino acid and codon number -->
    <g transform="translate(67.799063 16.318125) scale(0.12 -0.12)">
     <use xlink:href="#DejaVuSans-43"/>
     <use xlink:href="#DejaVuSans-6f" x="69.824219"/>
     <use xlink:href="#DejaVuSans-72" x="131.005859"/>
     <use xlink:href="#DejaVuSans-72" x="170.369141"/>
     <use xlink:href="#DejaVuSans-65" x="209.232422"/>
     <use xlink:href="#DejaVuSans-6c" x="270.755859"/>
     <use xlink:href="#DejaVuSans-61" x="298.539062"/>
     <use xlink:href="#DejaVuSans-74" x="359.818359"/>
     <use xlink:href="#DejaVuSans-69" x="399.027344"/>
     <use xlink:href="#DejaVuSans-6f" x="426.810547"/>
     <use xlink:href="#DejaVuSans-6e" x="487.992188"/>
     <use xlink:href="#DejaVuSans-20" x="551.371094"/>
     <use xlink:href="#DejaVuSans-62" x="583.158203"/>
     <use xlink:href="#DejaVuSans-65" x="646.634766"/>
     <use xlink:href="#DejaVuSans-74" x="708.158203"/>
     <use xlink:href="#DejaVuSans-77" x="747.367188"/>
     <use xlink:href="#DejaVuSans-65" x="829.154297"/>
     <use xlink:href="#DejaVuSans-65" x="890.677734"/>
     <use xlink:href="#DejaVuSans-6e" x="952.201172"/>
     <use xlink:href="#DejaVuSans-20" x="1015.580078"/>
     <use xlink:href="#DejaVuSans-61" x="1047.367188"/>
     <use xlink:href="#DejaVuSans-6d" x="1108.646484"/>
     <use xlink:href="#DejaVuSans-69" x="1206.058594"/>
     <use xlink:href="#DejaVuSans-6e" x="1233.841797"/>
     <use xlink:href="#DejaVuSans-6f" x="1297.220703"/>
     <use xlink:href="#DejaVuSans-20" x="1358.402344"/>
     <use xlink:href="#DejaVuSans-61" x="1390.189453"/>
     <use xlink:href="#DejaVuSans-63" x="1451.46875"/>
     <use xlink:href="#DejaVuSans-69" x="1506.449219"/>
     <use xlink:href="#DejaVuSans-64" x="1534.232422"/>
     <use xlink:href="#DejaVuSans-20" x="1597.708984"/>
     <use xlink:href="#DejaVuSans-61" x="1629.496094"/>
     <use xlink:href="#DejaVuSans-6e" x="1690.775391"/>
     <use xlink:href="#DejaVuSans-64" x="1754.154297"/>
     <use xlink:href="#DejaVuSans-20" x="1817.630859"/>
     <use xlink:href="#DejaVuSans-63" x="1849.417969"/>
     <use xlink:href="#DejaVuSans-6f" x="1904.398438"/>
     <use xlink:href="#DejaVuSans-64" x="1965.580078"/>
     <use xlink:href="#DejaVuSans-6f" x="2029.056641"/>
     <use xlink:href="#DejaVuSans-6e" x="2090.238281"/>
     <use xlink:href="#DejaVuSans-20" x="2153.617188"/>
     <use xlink:href="#DejaVuSans-6e" x="2185.404297"/>
     <use xlink:href="#DejaVuSans-75" x="2248.783203"/>
     <use xlink:href="#DejaVuSans-6d" x="2312.162109"/>
     <use xlink:href="#DejaVuSans-62" x="2409.574219"/>
     <use xlink:href="#DejaVuSans-65" x="2473.050781"/>
     <use xlink:href="#DejaVuSans-72" x="2534.574219"/>
    </g>
    <!-- Vertebrates, Vertebrate Mitochondrial -->
    <g transform="translate(109.089375 29.7555) scale(0.12 -0.12)">
     <defs>
      <path id="DejaVuSans-2c" d="M 750 794 
L 1409 794 
L 1409 256 
L 897 -744 
L 494 -744 
L 750 256 
L 750 794 
z
" transform="scale(0.015625)"/>
      <path id="DejaVuSans-68" d="M 3513 2113 
L 3513 0 
L 2938 0 
L 2938 2094 
Q 2938 2591 2744 2837 
Q 2550 3084 2163 3084 
Q 1697 3084 1428 2787 
Q 1159 2491 1159 1978 
L 1159 0 
L 581 0 
L 581 4863 
L 1159 4863 
L 1159 2956 
Q 1366 3272 1645 3428 
Q 1925 3584 2291 3584 
Q 2894 3584 3203 3211 
Q 3513 2838 3513 2113 
z
" transform="scale(0.015625)"/>
     </defs>
     <use xlink:href="#DejaVuSans-56"/>
     <use xlink:href="#DejaVuSans-65" x="60.658203"/>
     <use xlink:href="#DejaVuSans-72" x="122.181641"/>
     <use xlink:href="#DejaVuSans-74" x="163.294922"/>
     <use xlink:href="#DejaVuSans-65" x="202.503906"/>
     <use xlink:href="#DejaVuSans-62" x="264.027344"/>
     <use xlink:href="#DejaVuSans-72" x="327.503906"/>
     <use xlink:href="#DejaVuSans-61" x="368.617188"/>
     <use xlink:href="#DejaVuSans-74" x="429.896484"/>
     <use xlink:href="#DejaVuSans-65" x="469.105469"/>
     <use xlink:href="#DejaVuSans-73" x="530.628906"/>
     <use xlink:href="#DejaVuSans-2c" x="582.728516"/>
     <use xlink:href="#DejaVuSans-20" x="614.515625"/>
     <use xlink:href="#DejaVuSans-56" x="646.302734"/>
     <use xlink:href="#DejaVuSans-65" x="706.960938"/>
     <use xlink:href="#DejaVuSans-72" x="768.484375"/>
     <use xlink:href="#DejaVuSans-74" x="809.597656"/>
     <use xlink:href="#DejaVuSans-65" x="848.806641"/>
     <use xlink:href="#DejaVuSans-62" x="910.330078"/>
     <use xlink:href="#DejaVuSans-72" x="973.806641"/>
     <use xlink:href="#DejaVuSans-61" x="1014.919922"/>
     <use xlink:href="#DejaVuSans-74" x="1076.199219"/>
     <use xlink:href="#DejaVuSans-65" x="1115.408203"/>
     <use xlink:href="#DejaVuSans-20" x="1176.931641"/>
     <use xlink:href="#DejaVuSans-4d" x="1208.71875"/>
     <use xlink:href="#DejaVuSans-69" x="1294.998047"/>
     <use xlink:href="#DejaVuSans-74" x="1322.78125"/>
     <use xlink:href="#DejaVuSans-6f" x="1361.990234"/>
     <use xlink:href="#DejaVuSans-63" x="1423.171875"/>
     <use xlink:href="#DejaVuSans-68" x="1478.152344"/>
     <use xlink:href="#DejaVuSans-6f" x="1541.53125"/>
     <use xlink:href="#DejaVuSans-6e" x="1602.712891"/>
     <use xlink:href="#DejaVuSans-64" x="1666.091797"/>
     <use xlink:href="#DejaVuSans-72" x="1729.568359"/>
     <use xlink:href="#DejaVuSans-69" x="1770.681641"/>
     <use xlink:href="#DejaVuSans-61" x="1798.464844"/>
     <use xlink:href="#DejaVuSans-6c" x="1859.744141"/>
    </g>
   </g>
   <g id="legend_1">
    <g id="patch_51">
     <path d="M 50.78125 73.11175 
L 156.429688 73.11175 
Q 158.429688 73.11175 158.429688 71.11175 
L 158.429688 42.7555 
Q 158.429688 40.7555 156.429688 40.7555 
L 50.78125 40.7555 
Q 48.78125 40.7555 48.78125 42.7555 
L 48.78125 71.11175 
Q 48.78125 73.11175 50.78125 73.11175 
z
" style="fill: #ffffff; opacity: 0.8; stroke: #cccccc; stroke-linejoin: miter"/>
    </g>
    <g id="patch_52">
     <path d="M 52.78125 52.353937 
L 72.78125 52.353937 
L 72.78125 45.353937 
L 52.78125 45.353937 
z
" style="fill: #44a5c2; stroke: #000000; stroke-width: 0.75; stroke-linejoin: miter"/>
    </g>
    <g id="text_58">
     <!-- Proteome data -->
     <g transform="translate(80.78125 52.353937) scale(0.1 -0.1)">
      <use xlink:href="#DejaVuSans-50"/>
      <use xlink:href="#DejaVuSans-72" x="58.552734"/>
      <use xlink:href="#DejaVuSans-6f" x="97.416016"/>
      <use xlink:href="#DejaVuSans-74" x="158.597656"/>
      <use xlink:href="#DejaVuSans-65" x="197.806641"/>
      <use xlink:href="#DejaVuSans-6f" x="259.330078"/>
      <use xlink:href="#DejaVuSans-6d" x="320.511719"/>
      <use xlink:href="#DejaVuSans-65" x="417.923828"/>
      <use xlink:href="#DejaVuSans-20" x="479.447266"/>
      <use xlink:href="#DejaVuSans-64" x="511.234375"/>
      <use xlink:href="#DejaVuSans-61" x="574.710938"/>
      <use xlink:href="#DejaVuSans-74" x="635.990234"/>
      <use xlink:href="#DejaVuSans-61" x="675.199219"/>
     </g>
    </g>
    <g id="patch_53">
     <path d="M 52.78125 67.032062 
L 72.78125 67.032062 
L 72.78125 60.032062 
L 52.78125 60.032062 
z
" style="fill: #ffae49; stroke: #000000; stroke-width: 0.75; stroke-linejoin: miter"/>
    </g>
    <g id="text_59">
     <!-- Genetic code -->
     <g transform="translate(80.78125 67.032062) scale(0.1 -0.1)">
      <use xlink:href="#DejaVuSans-47"/>
      <use xlink:href="#DejaVuSans-65" x="77.490234"/>
      <use xlink:href="#DejaVuSans-6e" x="139.013672"/>
      <use xlink:href="#DejaVuSans-65" x="202.392578"/>
      <use xlink:href="#DejaVuSans-74" x="263.916016"/>
      <use xlink:href="#DejaVuSans-69" x="303.125"/>
      <use xlink:href="#DejaVuSans-63" x="330.908203"/>
      <use xlink:href="#DejaVuSans-20" x="385.888672"/>
      <use xlink:href="#DejaVuSans-63" x="417.675781"/>
      <use xlink:href="#DejaVuSans-6f" x="472.65625"/>
      <use xlink:href="#DejaVuSans-64" x="533.837891"/>
      <use xlink:href="#DejaVuSans-65" x="597.314453"/>
     </g>
    </g>
   </g>
  </g>
 </g>
 <defs>
  <clipPath id="pd6154dd631">
   <rect x="43.78125" y="35.7555" width="357.12" height="266.112"/>
  </clipPath>
 </defs>
</svg>
