<?xml version="1.0" encoding="utf-8" standalone="no"?>
<!DOCTYPE svg PUBLIC "-//W3C//DTD SVG 1.1//EN"
  "http://www.w3.org/Graphics/SVG/1.1/DTD/svg11.dtd">
<svg xmlns:xlink="http://www.w3.org/1999/xlink" width="878.440625pt" height="635.878125pt" viewBox="0 0 878.440625 635.878125" xmlns="http://www.w3.org/2000/svg" version="1.1">
 <metadata>
  <rdf:RDF xmlns:dc="http://purl.org/dc/elements/1.1/" xmlns:cc="http://creativecommons.org/ns#" xmlns:rdf="http://www.w3.org/1999/02/22-rdf-syntax-ns#">
   <cc:Work>
    <dc:type rdf:resource="http://purl.org/dc/dcmitype/StillImage"/>
    <dc:date>2024-09-25T14:39:55.190057</dc:date>
    <dc:format>image/svg+xml</dc:format>
    <dc:creator>
     <cc:Agent>
      <dc:title>Matplotlib v3.8.3, https://matplotlib.org/</dc:title>
     </cc:Agent>
    </dc:creator>
   </cc:Work>
  </rdf:RDF>
 </metadata>
 <defs>
  <style type="text/css">*{stroke-linejoin: round; stroke-linecap: butt}</style>
 </defs>
 <g id="figure_1">
  <g id="patch_1">
   <path d="M 0 635.878125 
L 878.440625 635.878125 
L 878.440625 0 
L 0 0 
z
" style="fill: #ffffff"/>
  </g>
  <g id="axes_1">
   <g id="patch_2">
    <path d="M 34.240625 298.643478 
L 871.240625 298.643478 
L 871.240625 57.6 
L 34.240625 57.6 
z
" style="fill: #ffffff"/>
   </g>
   <g id="PolyCollection_1">
    <defs>
     <path id="mc0dc2a9858" d="M 141.373398 -337.332945 
L 141.373398 -337.234647 
L 144.81688 -337.234647 
L 148.260363 -337.234647 
L 151.703846 -337.234647 
L 155.147328 -337.234647 
L 158.590811 -337.234647 
L 162.034293 -337.234647 
L 165.477776 -337.234647 
L 168.921259 -337.234647 
L 172.364741 -337.234647 
L 175.808224 -337.234647 
L 179.251707 -337.234647 
L 182.695189 -337.234647 
L 186.138672 -337.234647 
L 189.582154 -337.234647 
L 193.025637 -337.234647 
L 196.46912 -337.234647 
L 199.912602 -337.234647 
L 203.356085 -337.234647 
L 206.799567 -337.234647 
L 210.24305 -337.234647 
L 213.686533 -337.234647 
L 217.130015 -337.234647 
L 220.573498 -337.234647 
L 224.016981 -337.234647 
L 227.460463 -337.234647 
L 230.903946 -337.234647 
L 234.347428 -337.234647 
L 237.790911 -337.234647 
L 241.234394 -337.234647 
L 244.677876 -337.234647 
L 248.121359 -337.234647 
L 251.564841 -337.234647 
L 255.008324 -337.234647 
L 258.451807 -337.234647 
L 261.895289 -337.234647 
L 265.338772 -337.234647 
L 268.782255 -337.234647 
L 272.225737 -337.234647 
L 275.66922 -337.234647 
L 279.112702 -337.234647 
L 282.556185 -337.234647 
L 285.999668 -337.234647 
L 289.44315 -337.234647 
L 292.886633 -337.234647 
L 296.330116 -337.234647 
L 299.773598 -337.234647 
L 303.217081 -337.234647 
L 306.660563 -337.234647 
L 310.104046 -337.234647 
L 313.547529 -337.234647 
L 316.991011 -337.234647 
L 320.434494 -337.234647 
L 323.877976 -337.234647 
L 327.321459 -337.234647 
L 330.764942 -337.234647 
L 334.208424 -337.234647 
L 337.651907 -337.234647 
L 341.09539 -337.234647 
L 344.538872 -337.234647 
L 347.982355 -337.234647 
L 351.425837 -337.234647 
L 354.86932 -337.234647 
L 358.312803 -337.234647 
L 361.756285 -337.234647 
L 365.199768 -337.234647 
L 368.643251 -337.234647 
L 372.086733 -337.234647 
L 375.530216 -337.234647 
L 378.973698 -337.234647 
L 382.417181 -337.234647 
L 385.860664 -337.234647 
L 389.304146 -337.234647 
L 392.747629 -337.234647 
L 396.191111 -337.234647 
L 399.634594 -337.234647 
L 403.078077 -337.234647 
L 406.521559 -337.234647 
L 409.965042 -337.234647 
L 413.408525 -337.234647 
L 416.852007 -337.234647 
L 420.29549 -337.234647 
L 423.738972 -337.234647 
L 427.182455 -337.234647 
L 430.625938 -337.234647 
L 434.06942 -337.234647 
L 437.512903 -337.234647 
L 440.956385 -337.234647 
L 444.399868 -337.234647 
L 447.843351 -337.234647 
L 451.286833 -337.234647 
L 454.730316 -337.234647 
L 458.173799 -337.234647 
L 461.617281 -337.234647 
L 465.060764 -337.234647 
L 468.504246 -337.234647 
L 471.947729 -337.234647 
L 475.391212 -337.234647 
L 478.834694 -337.234647 
L 482.278177 -337.234647 
L 485.72166 -337.234647 
L 489.165142 -337.234647 
L 492.608625 -337.234647 
L 496.052107 -337.234647 
L 499.49559 -337.234647 
L 502.939073 -337.234647 
L 506.382555 -337.234647 
L 509.826038 -337.234647 
L 513.26952 -337.234647 
L 516.713003 -337.234647 
L 520.156486 -337.234647 
L 523.599968 -337.234647 
L 527.043451 -337.234647 
L 530.486934 -337.234647 
L 533.930416 -337.234647 
L 537.373899 -337.234647 
L 540.817381 -337.234647 
L 544.260864 -337.234647 
L 547.704347 -337.234647 
L 551.147829 -337.234647 
L 554.591312 -337.234647 
L 558.034795 -337.234647 
L 561.478277 -337.234647 
L 564.92176 -337.234647 
L 568.365242 -337.234647 
L 571.808725 -337.234647 
L 575.252208 -337.234647 
L 578.69569 -337.234647 
L 582.139173 -337.234647 
L 585.582655 -337.234647 
L 589.026138 -337.234647 
L 592.469621 -337.234647 
L 595.913103 -337.234647 
L 599.356586 -337.234647 
L 602.800069 -337.234647 
L 606.243551 -337.234647 
L 609.687034 -337.234647 
L 613.130516 -337.234647 
L 616.573999 -337.234647 
L 620.017482 -337.234647 
L 623.460964 -337.234647 
L 626.904447 -337.234647 
L 630.34793 -337.234647 
L 633.791412 -337.234647 
L 637.234895 -337.234647 
L 640.678377 -337.234647 
L 644.12186 -337.234647 
L 647.565343 -337.234647 
L 651.008825 -337.234647 
L 654.452308 -337.234647 
L 657.89579 -337.234647 
L 661.339273 -337.234647 
L 664.782756 -337.234647 
L 668.226238 -337.234647 
L 671.669721 -337.234647 
L 675.113204 -337.234647 
L 678.556686 -337.234647 
L 682.000169 -337.234647 
L 685.443651 -337.234647 
L 688.887134 -337.234647 
L 692.330617 -337.234647 
L 695.774099 -337.234647 
L 699.217582 -337.234647 
L 702.661064 -337.234647 
L 706.104547 -337.234647 
L 709.54803 -337.234647 
L 712.991512 -337.234647 
L 716.434995 -337.234647 
L 719.878478 -337.234647 
L 723.32196 -337.234647 
L 726.765443 -337.234647 
L 730.208925 -337.234647 
L 733.652408 -337.234647 
L 737.095891 -337.234647 
L 740.539373 -337.234647 
L 743.982856 -337.234647 
L 747.426339 -337.234647 
L 750.869821 -337.234647 
L 754.313304 -337.234647 
L 757.756786 -337.234647 
L 761.200269 -337.234647 
L 764.643752 -337.234647 
L 768.087234 -337.234647 
L 771.530717 -337.234647 
L 774.974199 -337.234647 
L 778.417682 -337.234647 
L 781.861165 -337.234647 
L 785.304647 -337.234647 
L 788.74813 -337.234647 
L 792.191613 -337.234647 
L 795.635095 -337.234647 
L 799.078578 -337.234647 
L 802.52206 -337.234647 
L 805.965543 -337.234647 
L 809.409026 -337.234647 
L 812.852508 -337.234647 
L 816.295991 -337.234647 
L 819.739474 -337.234647 
L 823.182956 -337.234647 
L 826.626439 -337.234647 
L 826.626439 -337.307278 
L 826.626439 -337.307278 
L 823.182956 -337.329578 
L 819.739474 -337.357761 
L 816.295991 -337.393077 
L 812.852508 -337.436956 
L 809.409026 -337.491008 
L 805.965543 -337.55703 
L 802.52206 -337.636988 
L 799.078578 -337.733008 
L 795.635095 -337.847347 
L 792.191613 -337.982362 
L 788.74813 -338.140467 
L 785.304647 -338.324091 
L 781.861165 -338.535618 
L 778.417682 -338.777337 
L 774.974199 -339.051386 
L 771.530717 -339.359703 
L 768.087234 -339.703988 
L 764.643752 -340.085674 
L 761.200269 -340.505926 
L 757.756786 -340.965654 
L 754.313304 -341.465558 
L 750.869821 -342.006201 
L 747.426339 -342.588114 
L 743.982856 -343.211928 
L 740.539373 -343.878536 
L 737.095891 -344.589279 
L 733.652408 -345.346141 
L 730.208925 -346.151963 
L 726.765443 -347.010645 
L 723.32196 -347.927337 
L 719.878478 -348.908612 
L 716.434995 -349.962583 
L 712.991512 -351.098993 
L 709.54803 -352.329221 
L 706.104547 -353.666233 
L 702.661064 -355.124447 
L 699.217582 -356.719516 
L 695.774099 -358.468034 
L 692.330617 -360.387149 
L 688.887134 -362.494115 
L 685.443651 -364.805775 
L 682.000169 -367.338002 
L 678.556686 -370.105109 
L 675.113204 -373.119264 
L 671.669721 -376.389925 
L 668.226238 -379.923334 
L 664.782756 -383.722091 
L 661.339273 -387.784835 
L 657.89579 -392.106066 
L 654.452308 -396.676119 
L 651.008825 -401.481296 
L 647.565343 -406.504176 
L 644.12186 -411.724081 
L 640.678377 -417.117684 
L 637.234895 -422.65973 
L 633.791412 -428.323845 
L 630.34793 -434.083359 
L 626.904447 -439.91213 
L 623.460964 -445.785283 
L 620.017482 -451.679839 
L 616.573999 -457.575171 
L 613.130516 -463.453273 
L 609.687034 -469.298799 
L 606.243551 -475.098878 
L 602.800069 -480.842707 
L 599.356586 -486.520956 
L 595.913103 -492.125008 
L 592.469621 -497.646103 
L 589.026138 -503.074429 
L 585.582655 -508.398242 
L 582.139173 -513.603058 
L 578.69569 -518.670997 
L 575.252208 -523.580313 
L 571.808725 -528.30516 
L 568.365242 -532.815604 
L 564.92176 -537.077907 
L 561.478277 -541.055053 
L 558.034795 -544.707506 
L 554.591312 -547.994163 
L 551.147829 -550.87345 
L 547.704347 -553.304509 
L 544.260864 -555.248425 
L 540.817381 -556.669431 
L 537.373899 -557.536043 
L 533.930416 -557.822072 
L 530.486934 -557.507485 
L 527.043451 -556.57907 
L 523.599968 -555.030903 
L 520.156486 -552.864594 
L 516.713003 -550.089315 
L 513.26952 -546.721629 
L 509.826038 -542.785117 
L 506.382555 -538.309846 
L 502.939073 -533.331701 
L 499.49559 -527.891603 
L 496.052107 -522.034659 
L 492.608625 -515.809276 
L 489.165142 -509.266262 
L 485.72166 -502.457959 
L 482.278177 -495.437418 
L 478.834694 -488.257641 
L 475.391212 -480.970912 
L 471.947729 -473.628204 
L 468.504246 -466.278688 
L 465.060764 -458.96931 
L 461.617281 -451.744455 
L 458.173799 -444.645669 
L 454.730316 -437.711421 
L 451.286833 -430.976915 
L 447.843351 -424.473917 
L 444.399868 -418.2306 
L 440.956385 -412.271408 
L 437.512903 -406.616932 
L 434.06942 -401.283815 
L 430.625938 -396.284683 
L 427.182455 -391.628124 
L 423.738972 -387.318726 
L 420.29549 -383.357179 
L 416.852007 -379.740459 
L 413.408525 -376.462095 
L 409.965042 -373.512505 
L 406.521559 -370.879423 
L 403.078077 -368.548367 
L 399.634594 -366.503159 
L 396.191111 -364.72646 
L 392.747629 -363.200296 
L 389.304146 -361.90655 
L 385.860664 -360.827402 
L 382.417181 -359.945681 
L 378.973698 -359.245136 
L 375.530216 -358.710594 
L 372.086733 -358.328017 
L 368.643251 -358.084464 
L 365.199768 -357.967958 
L 361.756285 -357.967289 
L 358.312803 -358.071771 
L 354.86932 -358.270974 
L 351.425837 -358.554458 
L 347.982355 -358.911534 
L 344.538872 -359.331073 
L 341.09539 -359.801377 
L 337.651907 -360.310124 
L 334.208424 -360.844386 
L 330.764942 -361.390726 
L 327.321459 -361.935362 
L 323.877976 -362.464385 
L 320.434494 -362.964019 
L 316.991011 -363.420898 
L 313.547529 -363.822355 
L 310.104046 -364.156694 
L 306.660563 -364.413435 
L 303.217081 -364.583524 
L 299.773598 -364.659492 
L 296.330116 -364.635571 
L 292.886633 -364.507758 
L 289.44315 -364.273829 
L 285.999668 -363.933316 
L 282.556185 -363.487446 
L 279.112702 -362.939054 
L 275.66922 -362.292474 
L 272.225737 -361.553413 
L 268.782255 -360.728816 
L 265.338772 -359.826723 
L 261.895289 -358.856113 
L 258.451807 -357.826748 
L 255.008324 -356.74901 
L 251.564841 -355.633725 
L 248.121359 -354.491982 
L 244.677876 -353.334953 
L 241.234394 -352.173693 
L 237.790911 -351.018956 
L 234.347428 -349.881003 
L 230.903946 -348.769425 
L 227.460463 -347.692976 
L 224.016981 -346.659431 
L 220.573498 -345.675469 
L 217.130015 -344.746589 
L 213.686533 -343.877053 
L 210.24305 -343.069881 
L 206.799567 -342.326862 
L 203.356085 -341.648613 
L 199.912602 -341.034666 
L 196.46912 -340.483574 
L 193.025637 -339.993044 
L 189.582154 -339.56008 
L 186.138672 -339.181131 
L 182.695189 -338.852242 
L 179.251707 -338.569196 
L 175.808224 -338.327649 
L 172.364741 -338.123248 
L 168.921259 -337.951734 
L 165.477776 -337.809023 
L 162.034293 -337.691276 
L 158.590811 -337.594941 
L 155.147328 -337.516785 
L 151.703846 -337.45391 
L 148.260363 -337.403751 
L 144.81688 -337.364071 
L 141.373398 -337.332945 
z
" style="stroke: #ff7f0e; stroke-width: 2.5"/>
    </defs>
    <g clip-path="url(#p9b408900bc)">
     <use xlink:href="#mc0dc2a9858" x="0" y="635.878125" style="fill: #ff7f0e; fill-opacity: 0.5; stroke: #ff7f0e; stroke-width: 2.5"/>
    </g>
   </g>
   <g id="PolyCollection_2">
    <defs>
     <path id="mf050234624" d="M 72.881148 -337.296669 
L 72.881148 -337.234647 
L 76.764618 -337.234647 
L 80.648087 -337.234647 
L 84.531557 -337.234647 
L 88.415026 -337.234647 
L 92.298496 -337.234647 
L 96.181966 -337.234647 
L 100.065435 -337.234647 
L 103.948905 -337.234647 
L 107.832375 -337.234647 
L 111.715844 -337.234647 
L 115.599314 -337.234647 
L 119.482784 -337.234647 
L 123.366253 -337.234647 
L 127.249723 -337.234647 
L 131.133192 -337.234647 
L 135.016662 -337.234647 
L 138.900132 -337.234647 
L 142.783601 -337.234647 
L 146.667071 -337.234647 
L 150.550541 -337.234647 
L 154.43401 -337.234647 
L 158.31748 -337.234647 
L 162.20095 -337.234647 
L 166.084419 -337.234647 
L 169.967889 -337.234647 
L 173.851358 -337.234647 
L 177.734828 -337.234647 
L 181.618298 -337.234647 
L 185.501767 -337.234647 
L 189.385237 -337.234647 
L 193.268707 -337.234647 
L 197.152176 -337.234647 
L 201.035646 -337.234647 
L 204.919116 -337.234647 
L 208.802585 -337.234647 
L 212.686055 -337.234647 
L 216.569524 -337.234647 
L 220.452994 -337.234647 
L 224.336464 -337.234647 
L 228.219933 -337.234647 
L 232.103403 -337.234647 
L 235.986873 -337.234647 
L 239.870342 -337.234647 
L 243.753812 -337.234647 
L 247.637282 -337.234647 
L 251.520751 -337.234647 
L 255.404221 -337.234647 
L 259.28769 -337.234647 
L 263.17116 -337.234647 
L 267.05463 -337.234647 
L 270.938099 -337.234647 
L 274.821569 -337.234647 
L 278.705039 -337.234647 
L 282.588508 -337.234647 
L 286.471978 -337.234647 
L 290.355448 -337.234647 
L 294.238917 -337.234647 
L 298.122387 -337.234647 
L 302.005856 -337.234647 
L 305.889326 -337.234647 
L 309.772796 -337.234647 
L 313.656265 -337.234647 
L 317.539735 -337.234647 
L 321.423205 -337.234647 
L 325.306674 -337.234647 
L 329.190144 -337.234647 
L 333.073614 -337.234647 
L 336.957083 -337.234647 
L 340.840553 -337.234647 
L 344.724022 -337.234647 
L 348.607492 -337.234647 
L 352.490962 -337.234647 
L 356.374431 -337.234647 
L 360.257901 -337.234647 
L 364.141371 -337.234647 
L 368.02484 -337.234647 
L 371.90831 -337.234647 
L 375.79178 -337.234647 
L 379.675249 -337.234647 
L 383.558719 -337.234647 
L 387.442188 -337.234647 
L 391.325658 -337.234647 
L 395.209128 -337.234647 
L 399.092597 -337.234647 
L 402.976067 -337.234647 
L 406.859537 -337.234647 
L 410.743006 -337.234647 
L 414.626476 -337.234647 
L 418.509946 -337.234647 
L 422.393415 -337.234647 
L 426.276885 -337.234647 
L 430.160354 -337.234647 
L 434.043824 -337.234647 
L 437.927294 -337.234647 
L 441.810763 -337.234647 
L 445.694233 -337.234647 
L 449.577703 -337.234647 
L 453.461172 -337.234647 
L 457.344642 -337.234647 
L 461.228112 -337.234647 
L 465.111581 -337.234647 
L 468.995051 -337.234647 
L 472.87852 -337.234647 
L 476.76199 -337.234647 
L 480.64546 -337.234647 
L 484.528929 -337.234647 
L 488.412399 -337.234647 
L 492.295869 -337.234647 
L 496.179338 -337.234647 
L 500.062808 -337.234647 
L 503.946278 -337.234647 
L 507.829747 -337.234647 
L 511.713217 -337.234647 
L 515.596686 -337.234647 
L 519.480156 -337.234647 
L 523.363626 -337.234647 
L 527.247095 -337.234647 
L 531.130565 -337.234647 
L 535.014035 -337.234647 
L 538.897504 -337.234647 
L 542.780974 -337.234647 
L 546.664444 -337.234647 
L 550.547913 -337.234647 
L 554.431383 -337.234647 
L 558.314852 -337.234647 
L 562.198322 -337.234647 
L 566.081792 -337.234647 
L 569.965261 -337.234647 
L 573.848731 -337.234647 
L 577.732201 -337.234647 
L 581.61567 -337.234647 
L 585.49914 -337.234647 
L 589.38261 -337.234647 
L 593.266079 -337.234647 
L 597.149549 -337.234647 
L 601.033018 -337.234647 
L 604.916488 -337.234647 
L 608.799958 -337.234647 
L 612.683427 -337.234647 
L 616.566897 -337.234647 
L 620.450367 -337.234647 
L 624.333836 -337.234647 
L 628.217306 -337.234647 
L 632.100776 -337.234647 
L 635.984245 -337.234647 
L 639.867715 -337.234647 
L 643.751184 -337.234647 
L 647.634654 -337.234647 
L 651.518124 -337.234647 
L 655.401593 -337.234647 
L 659.285063 -337.234647 
L 663.168533 -337.234647 
L 667.052002 -337.234647 
L 670.935472 -337.234647 
L 674.818942 -337.234647 
L 678.702411 -337.234647 
L 682.585881 -337.234647 
L 686.46935 -337.234647 
L 690.35282 -337.234647 
L 694.23629 -337.234647 
L 698.119759 -337.234647 
L 702.003229 -337.234647 
L 705.886699 -337.234647 
L 709.770168 -337.234647 
L 713.653638 -337.234647 
L 717.537108 -337.234647 
L 721.420577 -337.234647 
L 725.304047 -337.234647 
L 729.187516 -337.234647 
L 733.070986 -337.234647 
L 736.954456 -337.234647 
L 740.837925 -337.234647 
L 744.721395 -337.234647 
L 748.604865 -337.234647 
L 752.488334 -337.234647 
L 756.371804 -337.234647 
L 760.255274 -337.234647 
L 764.138743 -337.234647 
L 768.022213 -337.234647 
L 771.905682 -337.234647 
L 775.789152 -337.234647 
L 779.672622 -337.234647 
L 783.556091 -337.234647 
L 787.439561 -337.234647 
L 791.323031 -337.234647 
L 795.2065 -337.234647 
L 799.08997 -337.234647 
L 802.97344 -337.234647 
L 806.856909 -337.234647 
L 810.740379 -337.234647 
L 814.623848 -337.234647 
L 818.507318 -337.234647 
L 822.390788 -337.234647 
L 826.274257 -337.234647 
L 830.157727 -337.234647 
L 834.041197 -337.234647 
L 837.924666 -337.234647 
L 841.808136 -337.234647 
L 845.691606 -337.234647 
L 845.691606 -337.296537 
L 845.691606 -337.296537 
L 841.808136 -337.314933 
L 837.924666 -337.338015 
L 834.041197 -337.366737 
L 830.157727 -337.402181 
L 826.274257 -337.445561 
L 822.390788 -337.498215 
L 818.507318 -337.5616 
L 814.623848 -337.63728 
L 810.740379 -337.726906 
L 806.856909 -337.832193 
L 802.97344 -337.954896 
L 799.08997 -338.096778 
L 795.2065 -338.25958 
L 791.323031 -338.444999 
L 787.439561 -338.654662 
L 783.556091 -338.890116 
L 779.672622 -339.15283 
L 775.789152 -339.444214 
L 771.905682 -339.765657 
L 768.022213 -340.118591 
L 764.138743 -340.504579 
L 760.255274 -340.92543 
L 756.371804 -341.383329 
L 752.488334 -341.880999 
L 748.604865 -342.421862 
L 744.721395 -343.010216 
L 740.837925 -343.65139 
L 736.954456 -344.351893 
L 733.070986 -345.119518 
L 729.187516 -345.963397 
L 725.304047 -346.893994 
L 721.420577 -347.923023 
L 717.537108 -349.06327 
L 713.653638 -350.328327 
L 709.770168 -351.732232 
L 705.886699 -353.28901 
L 702.003229 -355.012142 
L 698.119759 -356.913957 
L 694.23629 -359.004997 
L 690.35282 -361.293352 
L 686.46935 -363.784029 
L 682.585881 -366.478367 
L 678.702411 -369.373542 
L 674.818942 -372.46221 
L 670.935472 -375.732293 
L 667.052002 -379.166967 
L 663.168533 -382.744837 
L 659.285063 -386.440338 
L 655.401593 -390.224338 
L 651.518124 -394.064942 
L 647.634654 -397.928461 
L 643.751184 -401.780522 
L 639.867715 -405.587261 
L 635.984245 -409.316559 
L 632.100776 -412.939245 
L 628.217306 -416.430232 
L 624.333836 -419.769502 
L 620.450367 -422.942902 
L 616.566897 -425.942714 
L 612.683427 -428.767938 
L 608.799958 -431.424297 
L 604.916488 -433.923937 
L 601.033018 -436.284833 
L 597.149549 -438.529927 
L 593.266079 -440.686028 
L 589.38261 -442.782517 
L 585.49914 -444.849919 
L 581.61567 -446.918401 
L 577.732201 -449.016254 
L 573.848731 -451.168438 
L 569.965261 -453.39524 
L 566.081792 -455.711114 
L 562.198322 -458.123741 
L 558.314852 -460.633367 
L 554.431383 -463.232436 
L 550.547913 -465.905537 
L 546.664444 -468.629675 
L 542.780974 -471.374851 
L 538.897504 -474.104944 
L 535.014035 -476.778834 
L 531.130565 -479.351758 
L 527.247095 -481.776822 
L 523.363626 -484.00661 
L 519.480156 -485.994847 
L 515.596686 -487.698027 
L 511.713217 -489.076958 
L 507.829747 -490.09815 
L 503.946278 -490.73501 
L 500.062808 -490.96878 
L 496.179338 -490.789193 
L 492.295869 -490.194826 
L 488.412399 -489.193136 
L 484.528929 -487.800191 
L 480.64546 -486.040108 
L 476.76199 -483.944232 
L 472.87852 -481.550088 
L 468.995051 -478.900178 
L 465.111581 -476.040639 
L 461.228112 -473.019853 
L 457.344642 -469.887045 
L 453.461172 -466.690921 
L 449.577703 -463.478398 
L 445.694233 -460.29346 
L 441.810763 -457.176163 
L 437.927294 -454.161824 
L 434.043824 -451.280376 
L 430.160354 -448.555923 
L 426.276885 -446.006459 
L 422.393415 -443.643755 
L 418.509946 -441.4734 
L 414.626476 -439.494968 
L 410.743006 -437.702304 
L 406.859537 -436.083905 
L 402.976067 -434.623399 
L 399.092597 -433.300089 
L 395.209128 -432.089572 
L 391.325658 -430.964425 
L 387.442188 -429.894938 
L 383.558719 -428.849908 
L 379.675249 -427.797472 
L 375.79178 -426.705969 
L 371.90831 -425.544819 
L 368.02484 -424.285397 
L 364.141371 -422.901875 
L 360.257901 -421.372009 
L 356.374431 -419.67784 
L 352.490962 -417.806273 
L 348.607492 -415.749518 
L 344.724022 -413.505365 
L 340.840553 -411.077267 
L 336.957083 -408.474237 
L 333.073614 -405.71055 
L 329.190144 -402.805261 
L 325.306674 -399.781555 
L 321.423205 -396.665968 
L 317.539735 -393.487493 
L 313.656265 -390.276632 
L 309.772796 -387.064416 
L 305.889326 -383.881458 
L 302.005856 -380.757048 
L 298.122387 -377.718353 
L 294.238917 -374.789736 
L 290.355448 -371.992214 
L 286.471978 -369.343073 
L 282.588508 -366.85564 
L 278.705039 -364.539212 
L 274.821569 -362.399119 
L 270.938099 -360.436924 
L 267.05463 -358.650716 
L 263.17116 -357.035495 
L 259.28769 -355.583606 
L 255.404221 -354.28521 
L 251.520751 -353.128771 
L 247.637282 -352.101529 
L 243.753812 -351.189961 
L 239.870342 -350.380198 
L 235.986873 -349.65841 
L 232.103403 -349.011141 
L 228.219933 -348.425588 
L 224.336464 -347.889841 
L 220.452994 -347.393063 
L 216.569524 -346.925627 
L 212.686055 -346.479212 
L 208.802585 -346.046848 
L 204.919116 -345.622929 
L 201.035646 -345.20319 
L 197.152176 -344.784646 
L 193.268707 -344.365508 
L 189.385237 -343.945072 
L 185.501767 -343.52359 
L 181.618298 -343.10212 
L 177.734828 -342.68237 
L 173.851358 -342.266536 
L 169.967889 -341.85714 
L 166.084419 -341.456873 
L 162.20095 -341.068453 
L 158.31748 -340.69449 
L 154.43401 -340.337381 
L 150.550541 -339.999215 
L 146.667071 -339.68171 
L 142.783601 -339.386166 
L 138.900132 -339.113447 
L 135.016662 -338.863979 
L 131.133192 -338.63777 
L 127.249723 -338.434439 
L 123.366253 -338.253264 
L 119.482784 -338.093236 
L 115.599314 -337.953112 
L 111.715844 -337.831478 
L 107.832375 -337.726805 
L 103.948905 -337.637502 
L 100.065435 -337.561965 
L 96.181966 -337.498617 
L 92.298496 -337.445944 
L 88.415026 -337.402516 
L 84.531557 -337.367015 
L 80.648087 -337.338238 
L 76.764618 -337.315106 
L 72.881148 -337.296669 
z
" style="stroke: #1f77b4; stroke-width: 2.5"/>
    </defs>
    <g clip-path="url(#p9b408900bc)">
     <use xlink:href="#mf050234624" x="0" y="635.878125" style="fill: #1f77b4; fill-opacity: 0.5; stroke: #1f77b4; stroke-width: 2.5"/>
    </g>
   </g>
   <g id="matplotlib.axis_1">
    <g id="xtick_1">
     <g id="line2d_1">
      <defs>
       <path id="m6650f302f6" d="M 0 0 
L 0 3.5 
" style="stroke: #000000; stroke-width: 0.8"/>
      </defs>
      <g>
       <use xlink:href="#m6650f302f6" x="71.572425" y="298.643478" style="stroke: #000000; stroke-width: 0.8"/>
      </g>
     </g>
     <g id="text_1">
      <!-- 0.0 -->
      <g transform="translate(63.620862 313.241916) scale(0.1 -0.1)">
       <defs>
        <path id="DejaVuSans-30" d="M 2034 4250 
Q 1547 4250 1301 3770 
Q 1056 3291 1056 2328 
Q 1056 1369 1301 889 
Q 1547 409 2034 409 
Q 2525 409 2770 889 
Q 3016 1369 3016 2328 
Q 3016 3291 2770 3770 
Q 2525 4250 2034 4250 
z
M 2034 4750 
Q 2819 4750 3233 4129 
Q 3647 3509 3647 2328 
Q 3647 1150 3233 529 
Q 2819 -91 2034 -91 
Q 1250 -91 836 529 
Q 422 1150 422 2328 
Q 422 3509 836 4129 
Q 1250 4750 2034 4750 
z
" transform="scale(0.015625)"/>
        <path id="DejaVuSans-2e" d="M 684 794 
L 1344 794 
L 1344 0 
L 684 0 
L 684 794 
z
" transform="scale(0.015625)"/>
       </defs>
       <use xlink:href="#DejaVuSans-30"/>
       <use xlink:href="#DejaVuSans-2e" x="63.623047"/>
       <use xlink:href="#DejaVuSans-30" x="95.410156"/>
      </g>
     </g>
    </g>
    <g id="xtick_2">
     <g id="line2d_2">
      <g>
       <use xlink:href="#m6650f302f6" x="234.246953" y="298.643478" style="stroke: #000000; stroke-width: 0.8"/>
      </g>
     </g>
     <g id="text_2">
      <!-- 0.2 -->
      <g transform="translate(226.295391 313.241916) scale(0.1 -0.1)">
       <defs>
        <path id="DejaVuSans-32" d="M 1228 531 
L 3431 531 
L 3431 0 
L 469 0 
L 469 531 
Q 828 903 1448 1529 
Q 2069 2156 2228 2338 
Q 2531 2678 2651 2914 
Q 2772 3150 2772 3378 
Q 2772 3750 2511 3984 
Q 2250 4219 1831 4219 
Q 1534 4219 1204 4116 
Q 875 4013 500 3803 
L 500 4441 
Q 881 4594 1212 4672 
Q 1544 4750 1819 4750 
Q 2544 4750 2975 4387 
Q 3406 4025 3406 3419 
Q 3406 3131 3298 2873 
Q 3191 2616 2906 2266 
Q 2828 2175 2409 1742 
Q 1991 1309 1228 531 
z
" transform="scale(0.015625)"/>
       </defs>
       <use xlink:href="#DejaVuSans-30"/>
       <use xlink:href="#DejaVuSans-2e" x="63.623047"/>
       <use xlink:href="#DejaVuSans-32" x="95.410156"/>
      </g>
     </g>
    </g>
    <g id="xtick_3">
     <g id="line2d_3">
      <g>
       <use xlink:href="#m6650f302f6" x="396.921482" y="298.643478" style="stroke: #000000; stroke-width: 0.8"/>
      </g>
     </g>
     <g id="text_3">
      <!-- 0.4 -->
      <g transform="translate(388.969919 313.241916) scale(0.1 -0.1)">
       <defs>
        <path id="DejaVuSans-34" d="M 2419 4116 
L 825 1625 
L 2419 1625 
L 2419 4116 
z
M 2253 4666 
L 3047 4666 
L 3047 1625 
L 3713 1625 
L 3713 1100 
L 3047 1100 
L 3047 0 
L 2419 0 
L 2419 1100 
L 313 1100 
L 313 1709 
L 2253 4666 
z
" transform="scale(0.015625)"/>
       </defs>
       <use xlink:href="#DejaVuSans-30"/>
       <use xlink:href="#DejaVuSans-2e" x="63.623047"/>
       <use xlink:href="#DejaVuSans-34" x="95.410156"/>
      </g>
     </g>
    </g>
    <g id="xtick_4">
     <g id="line2d_4">
      <g>
       <use xlink:href="#m6650f302f6" x="559.59601" y="298.643478" style="stroke: #000000; stroke-width: 0.8"/>
      </g>
     </g>
     <g id="text_4">
      <!-- 0.6 -->
      <g transform="translate(551.644447 313.241916) scale(0.1 -0.1)">
       <defs>
        <path id="DejaVuSans-36" d="M 2113 2584 
Q 1688 2584 1439 2293 
Q 1191 2003 1191 1497 
Q 1191 994 1439 701 
Q 1688 409 2113 409 
Q 2538 409 2786 701 
Q 3034 994 3034 1497 
Q 3034 2003 2786 2293 
Q 2538 2584 2113 2584 
z
M 3366 4563 
L 3366 3988 
Q 3128 4100 2886 4159 
Q 2644 4219 2406 4219 
Q 1781 4219 1451 3797 
Q 1122 3375 1075 2522 
Q 1259 2794 1537 2939 
Q 1816 3084 2150 3084 
Q 2853 3084 3261 2657 
Q 3669 2231 3669 1497 
Q 3669 778 3244 343 
Q 2819 -91 2113 -91 
Q 1303 -91 875 529 
Q 447 1150 447 2328 
Q 447 3434 972 4092 
Q 1497 4750 2381 4750 
Q 2619 4750 2861 4703 
Q 3103 4656 3366 4563 
z
" transform="scale(0.015625)"/>
       </defs>
       <use xlink:href="#DejaVuSans-30"/>
       <use xlink:href="#DejaVuSans-2e" x="63.623047"/>
       <use xlink:href="#DejaVuSans-36" x="95.410156"/>
      </g>
     </g>
    </g>
    <g id="xtick_5">
     <g id="line2d_5">
      <g>
       <use xlink:href="#m6650f302f6" x="722.270538" y="298.643478" style="stroke: #000000; stroke-width: 0.8"/>
      </g>
     </g>
     <g id="text_5">
      <!-- 0.8 -->
      <g transform="translate(714.318976 313.241916) scale(0.1 -0.1)">
       <defs>
        <path id="DejaVuSans-38" d="M 2034 2216 
Q 1584 2216 1326 1975 
Q 1069 1734 1069 1313 
Q 1069 891 1326 650 
Q 1584 409 2034 409 
Q 2484 409 2743 651 
Q 3003 894 3003 1313 
Q 3003 1734 2745 1975 
Q 2488 2216 2034 2216 
z
M 1403 2484 
Q 997 2584 770 2862 
Q 544 3141 544 3541 
Q 544 4100 942 4425 
Q 1341 4750 2034 4750 
Q 2731 4750 3128 4425 
Q 3525 4100 3525 3541 
Q 3525 3141 3298 2862 
Q 3072 2584 2669 2484 
Q 3125 2378 3379 2068 
Q 3634 1759 3634 1313 
Q 3634 634 3220 271 
Q 2806 -91 2034 -91 
Q 1263 -91 848 271 
Q 434 634 434 1313 
Q 434 1759 690 2068 
Q 947 2378 1403 2484 
z
M 1172 3481 
Q 1172 3119 1398 2916 
Q 1625 2713 2034 2713 
Q 2441 2713 2670 2916 
Q 2900 3119 2900 3481 
Q 2900 3844 2670 4047 
Q 2441 4250 2034 4250 
Q 1625 4250 1398 4047 
Q 1172 3844 1172 3481 
z
" transform="scale(0.015625)"/>
       </defs>
       <use xlink:href="#DejaVuSans-30"/>
       <use xlink:href="#DejaVuSans-2e" x="63.623047"/>
       <use xlink:href="#DejaVuSans-38" x="95.410156"/>
      </g>
     </g>
    </g>
   </g>
   <g id="matplotlib.axis_2">
    <g id="ytick_1">
     <g id="line2d_6">
      <defs>
       <path id="me5d7aebf04" d="M 0 0 
L -3.5 0 
" style="stroke: #000000; stroke-width: 0.8"/>
      </defs>
      <g>
       <use xlink:href="#me5d7aebf04" x="34.240625" y="298.643478" style="stroke: #000000; stroke-width: 0.8"/>
      </g>
     </g>
     <g id="text_6">
      <!-- 0 -->
      <g transform="translate(20.878125 302.442697) scale(0.1 -0.1)">
       <use xlink:href="#DejaVuSans-30"/>
      </g>
     </g>
    </g>
    <g id="ytick_2">
     <g id="line2d_7">
      <g>
       <use xlink:href="#me5d7aebf04" x="34.240625" y="247.256062" style="stroke: #000000; stroke-width: 0.8"/>
      </g>
     </g>
     <g id="text_7">
      <!-- 1 -->
      <g transform="translate(20.878125 251.055281) scale(0.1 -0.1)">
       <defs>
        <path id="DejaVuSans-31" d="M 794 531 
L 1825 531 
L 1825 4091 
L 703 3866 
L 703 4441 
L 1819 4666 
L 2450 4666 
L 2450 531 
L 3481 531 
L 3481 0 
L 794 0 
L 794 531 
z
" transform="scale(0.015625)"/>
       </defs>
       <use xlink:href="#DejaVuSans-31"/>
      </g>
     </g>
    </g>
    <g id="ytick_3">
     <g id="line2d_8">
      <g>
       <use xlink:href="#me5d7aebf04" x="34.240625" y="195.868645" style="stroke: #000000; stroke-width: 0.8"/>
      </g>
     </g>
     <g id="text_8">
      <!-- 2 -->
      <g transform="translate(20.878125 199.667864) scale(0.1 -0.1)">
       <use xlink:href="#DejaVuSans-32"/>
      </g>
     </g>
    </g>
    <g id="ytick_4">
     <g id="line2d_9">
      <g>
       <use xlink:href="#me5d7aebf04" x="34.240625" y="144.481229" style="stroke: #000000; stroke-width: 0.8"/>
      </g>
     </g>
     <g id="text_9">
      <!-- 3 -->
      <g transform="translate(20.878125 148.280448) scale(0.1 -0.1)">
       <defs>
        <path id="DejaVuSans-33" d="M 2597 2516 
Q 3050 2419 3304 2112 
Q 3559 1806 3559 1356 
Q 3559 666 3084 287 
Q 2609 -91 1734 -91 
Q 1441 -91 1130 -33 
Q 819 25 488 141 
L 488 750 
Q 750 597 1062 519 
Q 1375 441 1716 441 
Q 2309 441 2620 675 
Q 2931 909 2931 1356 
Q 2931 1769 2642 2001 
Q 2353 2234 1838 2234 
L 1294 2234 
L 1294 2753 
L 1863 2753 
Q 2328 2753 2575 2939 
Q 2822 3125 2822 3475 
Q 2822 3834 2567 4026 
Q 2313 4219 1838 4219 
Q 1578 4219 1281 4162 
Q 984 4106 628 3988 
L 628 4550 
Q 988 4650 1302 4700 
Q 1616 4750 1894 4750 
Q 2613 4750 3031 4423 
Q 3450 4097 3450 3541 
Q 3450 3153 3228 2886 
Q 3006 2619 2597 2516 
z
" transform="scale(0.015625)"/>
       </defs>
       <use xlink:href="#DejaVuSans-33"/>
      </g>
     </g>
    </g>
    <g id="ytick_5">
     <g id="line2d_10">
      <g>
       <use xlink:href="#me5d7aebf04" x="34.240625" y="93.093812" style="stroke: #000000; stroke-width: 0.8"/>
      </g>
     </g>
     <g id="text_10">
      <!-- 4 -->
      <g transform="translate(20.878125 96.893031) scale(0.1 -0.1)">
       <use xlink:href="#DejaVuSans-34"/>
      </g>
     </g>
    </g>
    <g id="text_11">
     <!-- Density -->
     <g transform="translate(14.798438 197.130333) rotate(-90) scale(0.1 -0.1)">
      <defs>
       <path id="DejaVuSans-44" d="M 1259 4147 
L 1259 519 
L 2022 519 
Q 2988 519 3436 956 
Q 3884 1394 3884 2338 
Q 3884 3275 3436 3711 
Q 2988 4147 2022 4147 
L 1259 4147 
z
M 628 4666 
L 1925 4666 
Q 3281 4666 3915 4102 
Q 4550 3538 4550 2338 
Q 4550 1131 3912 565 
Q 3275 0 1925 0 
L 628 0 
L 628 4666 
z
" transform="scale(0.015625)"/>
       <path id="DejaVuSans-65" d="M 3597 1894 
L 3597 1613 
L 953 1613 
Q 991 1019 1311 708 
Q 1631 397 2203 397 
Q 2534 397 2845 478 
Q 3156 559 3463 722 
L 3463 178 
Q 3153 47 2828 -22 
Q 2503 -91 2169 -91 
Q 1331 -91 842 396 
Q 353 884 353 1716 
Q 353 2575 817 3079 
Q 1281 3584 2069 3584 
Q 2775 3584 3186 3129 
Q 3597 2675 3597 1894 
z
M 3022 2063 
Q 3016 2534 2758 2815 
Q 2500 3097 2075 3097 
Q 1594 3097 1305 2825 
Q 1016 2553 972 2059 
L 3022 2063 
z
" transform="scale(0.015625)"/>
       <path id="DejaVuSans-6e" d="M 3513 2113 
L 3513 0 
L 2938 0 
L 2938 2094 
Q 2938 2591 2744 2837 
Q 2550 3084 2163 3084 
Q 1697 3084 1428 2787 
Q 1159 2491 1159 1978 
L 1159 0 
L 581 0 
L 581 3500 
L 1159 3500 
L 1159 2956 
Q 1366 3272 1645 3428 
Q 1925 3584 2291 3584 
Q 2894 3584 3203 3211 
Q 3513 2838 3513 2113 
z
" transform="scale(0.015625)"/>
       <path id="DejaVuSans-73" d="M 2834 3397 
L 2834 2853 
Q 2591 2978 2328 3040 
Q 2066 3103 1784 3103 
Q 1356 3103 1142 2972 
Q 928 2841 928 2578 
Q 928 2378 1081 2264 
Q 1234 2150 1697 2047 
L 1894 2003 
Q 2506 1872 2764 1633 
Q 3022 1394 3022 966 
Q 3022 478 2636 193 
Q 2250 -91 1575 -91 
Q 1294 -91 989 -36 
Q 684 19 347 128 
L 347 722 
Q 666 556 975 473 
Q 1284 391 1588 391 
Q 1994 391 2212 530 
Q 2431 669 2431 922 
Q 2431 1156 2273 1281 
Q 2116 1406 1581 1522 
L 1381 1569 
Q 847 1681 609 1914 
Q 372 2147 372 2553 
Q 372 3047 722 3315 
Q 1072 3584 1716 3584 
Q 2034 3584 2315 3537 
Q 2597 3491 2834 3397 
z
" transform="scale(0.015625)"/>
       <path id="DejaVuSans-69" d="M 603 3500 
L 1178 3500 
L 1178 0 
L 603 0 
L 603 3500 
z
M 603 4863 
L 1178 4863 
L 1178 4134 
L 603 4134 
L 603 4863 
z
" transform="scale(0.015625)"/>
       <path id="DejaVuSans-74" d="M 1172 4494 
L 1172 3500 
L 2356 3500 
L 2356 3053 
L 1172 3053 
L 1172 1153 
Q 1172 725 1289 603 
Q 1406 481 1766 481 
L 2356 481 
L 2356 0 
L 1766 0 
Q 1100 0 847 248 
Q 594 497 594 1153 
L 594 3053 
L 172 3053 
L 172 3500 
L 594 3500 
L 594 4494 
L 1172 4494 
z
" transform="scale(0.015625)"/>
       <path id="DejaVuSans-79" d="M 2059 -325 
Q 1816 -950 1584 -1140 
Q 1353 -1331 966 -1331 
L 506 -1331 
L 506 -850 
L 844 -850 
Q 1081 -850 1212 -737 
Q 1344 -625 1503 -206 
L 1606 56 
L 191 3500 
L 800 3500 
L 1894 763 
L 2988 3500 
L 3597 3500 
L 2059 -325 
z
" transform="scale(0.015625)"/>
      </defs>
      <use xlink:href="#DejaVuSans-44"/>
      <use xlink:href="#DejaVuSans-65" x="77.001953"/>
      <use xlink:href="#DejaVuSans-6e" x="138.525391"/>
      <use xlink:href="#DejaVuSans-73" x="201.904297"/>
      <use xlink:href="#DejaVuSans-69" x="254.003906"/>
      <use xlink:href="#DejaVuSans-74" x="281.787109"/>
      <use xlink:href="#DejaVuSans-79" x="320.996094"/>
     </g>
    </g>
   </g>
   <g id="patch_3">
    <path d="M 34.240625 298.643478 
L 34.240625 57.6 
" style="fill: none; stroke: #000000; stroke-width: 0.8; stroke-linejoin: miter; stroke-linecap: square"/>
   </g>
   <g id="patch_4">
    <path d="M 871.240625 298.643478 
L 871.240625 57.6 
" style="fill: none; stroke: #000000; stroke-width: 0.8; stroke-linejoin: miter; stroke-linecap: square"/>
   </g>
   <g id="patch_5">
    <path d="M 34.240625 298.643478 
L 871.240625 298.643478 
" style="fill: none; stroke: #000000; stroke-width: 0.8; stroke-linejoin: miter; stroke-linecap: square"/>
   </g>
   <g id="patch_6">
    <path d="M 34.240625 57.6 
L 871.240625 57.6 
" style="fill: none; stroke: #000000; stroke-width: 0.8; stroke-linejoin: miter; stroke-linecap: square"/>
   </g>
   <g id="text_12">
    <!-- Pearson correlation coefficients -->
    <g transform="translate(358.408437 51.6) scale(0.12 -0.12)">
     <defs>
      <path id="DejaVuSans-50" d="M 1259 4147 
L 1259 2394 
L 2053 2394 
Q 2494 2394 2734 2622 
Q 2975 2850 2975 3272 
Q 2975 3691 2734 3919 
Q 2494 4147 2053 4147 
L 1259 4147 
z
M 628 4666 
L 2053 4666 
Q 2838 4666 3239 4311 
Q 3641 3956 3641 3272 
Q 3641 2581 3239 2228 
Q 2838 1875 2053 1875 
L 1259 1875 
L 1259 0 
L 628 0 
L 628 4666 
z
" transform="scale(0.015625)"/>
      <path id="DejaVuSans-61" d="M 2194 1759 
Q 1497 1759 1228 1600 
Q 959 1441 959 1056 
Q 959 750 1161 570 
Q 1363 391 1709 391 
Q 2188 391 2477 730 
Q 2766 1069 2766 1631 
L 2766 1759 
L 2194 1759 
z
M 3341 1997 
L 3341 0 
L 2766 0 
L 2766 531 
Q 2569 213 2275 61 
Q 1981 -91 1556 -91 
Q 1019 -91 701 211 
Q 384 513 384 1019 
Q 384 1609 779 1909 
Q 1175 2209 1959 2209 
L 2766 2209 
L 2766 2266 
Q 2766 2663 2505 2880 
Q 2244 3097 1772 3097 
Q 1472 3097 1187 3025 
Q 903 2953 641 2809 
L 641 3341 
Q 956 3463 1253 3523 
Q 1550 3584 1831 3584 
Q 2591 3584 2966 3190 
Q 3341 2797 3341 1997 
z
" transform="scale(0.015625)"/>
      <path id="DejaVuSans-72" d="M 2631 2963 
Q 2534 3019 2420 3045 
Q 2306 3072 2169 3072 
Q 1681 3072 1420 2755 
Q 1159 2438 1159 1844 
L 1159 0 
L 581 0 
L 581 3500 
L 1159 3500 
L 1159 2956 
Q 1341 3275 1631 3429 
Q 1922 3584 2338 3584 
Q 2397 3584 2469 3576 
Q 2541 3569 2628 3553 
L 2631 2963 
z
" transform="scale(0.015625)"/>
      <path id="DejaVuSans-6f" d="M 1959 3097 
Q 1497 3097 1228 2736 
Q 959 2375 959 1747 
Q 959 1119 1226 758 
Q 1494 397 1959 397 
Q 2419 397 2687 759 
Q 2956 1122 2956 1747 
Q 2956 2369 2687 2733 
Q 2419 3097 1959 3097 
z
M 1959 3584 
Q 2709 3584 3137 3096 
Q 3566 2609 3566 1747 
Q 3566 888 3137 398 
Q 2709 -91 1959 -91 
Q 1206 -91 779 398 
Q 353 888 353 1747 
Q 353 2609 779 3096 
Q 1206 3584 1959 3584 
z
" transform="scale(0.015625)"/>
      <path id="DejaVuSans-20" transform="scale(0.015625)"/>
      <path id="DejaVuSans-63" d="M 3122 3366 
L 3122 2828 
Q 2878 2963 2633 3030 
Q 2388 3097 2138 3097 
Q 1578 3097 1268 2742 
Q 959 2388 959 1747 
Q 959 1106 1268 751 
Q 1578 397 2138 397 
Q 2388 397 2633 464 
Q 2878 531 3122 666 
L 3122 134 
Q 2881 22 2623 -34 
Q 2366 -91 2075 -91 
Q 1284 -91 818 406 
Q 353 903 353 1747 
Q 353 2603 823 3093 
Q 1294 3584 2113 3584 
Q 2378 3584 2631 3529 
Q 2884 3475 3122 3366 
z
" transform="scale(0.015625)"/>
      <path id="DejaVuSans-6c" d="M 603 4863 
L 1178 4863 
L 1178 0 
L 603 0 
L 603 4863 
z
" transform="scale(0.015625)"/>
      <path id="DejaVuSans-66" d="M 2375 4863 
L 2375 4384 
L 1825 4384 
Q 1516 4384 1395 4259 
Q 1275 4134 1275 3809 
L 1275 3500 
L 2222 3500 
L 2222 3053 
L 1275 3053 
L 1275 0 
L 697 0 
L 697 3053 
L 147 3053 
L 147 3500 
L 697 3500 
L 697 3744 
Q 697 4328 969 4595 
Q 1241 4863 1831 4863 
L 2375 4863 
z
" transform="scale(0.015625)"/>
     </defs>
     <use xlink:href="#DejaVuSans-50"/>
     <use xlink:href="#DejaVuSans-65" x="56.677734"/>
     <use xlink:href="#DejaVuSans-61" x="118.201172"/>
     <use xlink:href="#DejaVuSans-72" x="179.480469"/>
     <use xlink:href="#DejaVuSans-73" x="220.59375"/>
     <use xlink:href="#DejaVuSans-6f" x="272.693359"/>
     <use xlink:href="#DejaVuSans-6e" x="333.875"/>
     <use xlink:href="#DejaVuSans-20" x="397.253906"/>
     <use xlink:href="#DejaVuSans-63" x="429.041016"/>
     <use xlink:href="#DejaVuSans-6f" x="484.021484"/>
     <use xlink:href="#DejaVuSans-72" x="545.203125"/>
     <use xlink:href="#DejaVuSans-72" x="584.566406"/>
     <use xlink:href="#DejaVuSans-65" x="623.429688"/>
     <use xlink:href="#DejaVuSans-6c" x="684.953125"/>
     <use xlink:href="#DejaVuSans-61" x="712.736328"/>
     <use xlink:href="#DejaVuSans-74" x="774.015625"/>
     <use xlink:href="#DejaVuSans-69" x="813.224609"/>
     <use xlink:href="#DejaVuSans-6f" x="841.007812"/>
     <use xlink:href="#DejaVuSans-6e" x="902.189453"/>
     <use xlink:href="#DejaVuSans-20" x="965.568359"/>
     <use xlink:href="#DejaVuSans-63" x="997.355469"/>
     <use xlink:href="#DejaVuSans-6f" x="1052.335938"/>
     <use xlink:href="#DejaVuSans-65" x="1113.517578"/>
     <use xlink:href="#DejaVuSans-66" x="1175.041016"/>
     <use xlink:href="#DejaVuSans-66" x="1210.246094"/>
     <use xlink:href="#DejaVuSans-69" x="1245.451172"/>
     <use xlink:href="#DejaVuSans-63" x="1273.234375"/>
     <use xlink:href="#DejaVuSans-69" x="1328.214844"/>
     <use xlink:href="#DejaVuSans-65" x="1355.998047"/>
     <use xlink:href="#DejaVuSans-6e" x="1417.521484"/>
     <use xlink:href="#DejaVuSans-74" x="1480.900391"/>
     <use xlink:href="#DejaVuSans-73" x="1520.109375"/>
    </g>
   </g>
   <g id="legend_1">
    <g id="patch_7">
     <path d="M 41.240625 109.634375 
L 129.265625 109.634375 
Q 131.265625 109.634375 131.265625 107.634375 
L 131.265625 64.6 
Q 131.265625 62.6 129.265625 62.6 
L 41.240625 62.6 
Q 39.240625 62.6 39.240625 64.6 
L 39.240625 107.634375 
Q 39.240625 109.634375 41.240625 109.634375 
z
" style="fill: #ffffff; opacity: 0.8; stroke: #cccccc; stroke-linejoin: miter"/>
    </g>
    <g id="text_13">
     <!-- Correlation type: -->
     <g transform="translate(43.240625 74.198437) scale(0.1 -0.1)">
      <defs>
       <path id="DejaVuSans-43" d="M 4122 4306 
L 4122 3641 
Q 3803 3938 3442 4084 
Q 3081 4231 2675 4231 
Q 1875 4231 1450 3742 
Q 1025 3253 1025 2328 
Q 1025 1406 1450 917 
Q 1875 428 2675 428 
Q 3081 428 3442 575 
Q 3803 722 4122 1019 
L 4122 359 
Q 3791 134 3420 21 
Q 3050 -91 2638 -91 
Q 1578 -91 968 557 
Q 359 1206 359 2328 
Q 359 3453 968 4101 
Q 1578 4750 2638 4750 
Q 3056 4750 3426 4639 
Q 3797 4528 4122 4306 
z
" transform="scale(0.015625)"/>
       <path id="DejaVuSans-70" d="M 1159 525 
L 1159 -1331 
L 581 -1331 
L 581 3500 
L 1159 3500 
L 1159 2969 
Q 1341 3281 1617 3432 
Q 1894 3584 2278 3584 
Q 2916 3584 3314 3078 
Q 3713 2572 3713 1747 
Q 3713 922 3314 415 
Q 2916 -91 2278 -91 
Q 1894 -91 1617 61 
Q 1341 213 1159 525 
z
M 3116 1747 
Q 3116 2381 2855 2742 
Q 2594 3103 2138 3103 
Q 1681 3103 1420 2742 
Q 1159 2381 1159 1747 
Q 1159 1113 1420 752 
Q 1681 391 2138 391 
Q 2594 391 2855 752 
Q 3116 1113 3116 1747 
z
" transform="scale(0.015625)"/>
       <path id="DejaVuSans-3a" d="M 750 794 
L 1409 794 
L 1409 0 
L 750 0 
L 750 794 
z
M 750 3309 
L 1409 3309 
L 1409 2516 
L 750 2516 
L 750 3309 
z
" transform="scale(0.015625)"/>
      </defs>
      <use xlink:href="#DejaVuSans-43"/>
      <use xlink:href="#DejaVuSans-6f" x="69.824219"/>
      <use xlink:href="#DejaVuSans-72" x="131.005859"/>
      <use xlink:href="#DejaVuSans-72" x="170.369141"/>
      <use xlink:href="#DejaVuSans-65" x="209.232422"/>
      <use xlink:href="#DejaVuSans-6c" x="270.755859"/>
      <use xlink:href="#DejaVuSans-61" x="298.539062"/>
      <use xlink:href="#DejaVuSans-74" x="359.818359"/>
      <use xlink:href="#DejaVuSans-69" x="399.027344"/>
      <use xlink:href="#DejaVuSans-6f" x="426.810547"/>
      <use xlink:href="#DejaVuSans-6e" x="487.992188"/>
      <use xlink:href="#DejaVuSans-20" x="551.371094"/>
      <use xlink:href="#DejaVuSans-74" x="583.158203"/>
      <use xlink:href="#DejaVuSans-79" x="622.367188"/>
      <use xlink:href="#DejaVuSans-70" x="681.546875"/>
      <use xlink:href="#DejaVuSans-65" x="745.023438"/>
      <use xlink:href="#DejaVuSans-3a" x="806.546875"/>
     </g>
    </g>
    <g id="patch_8">
     <path d="M 43.744531 88.876562 
L 63.744531 88.876562 
L 63.744531 81.876562 
L 43.744531 81.876562 
z
" style="fill: #1f77b4; fill-opacity: 0.5; stroke: #1f77b4; stroke-width: 2.5; stroke-linejoin: miter"/>
    </g>
    <g id="text_14">
     <!-- Codon -->
     <g transform="translate(71.744531 88.876562) scale(0.1 -0.1)">
      <defs>
       <path id="DejaVuSans-64" d="M 2906 2969 
L 2906 4863 
L 3481 4863 
L 3481 0 
L 2906 0 
L 2906 525 
Q 2725 213 2448 61 
Q 2172 -91 1784 -91 
Q 1150 -91 751 415 
Q 353 922 353 1747 
Q 353 2572 751 3078 
Q 1150 3584 1784 3584 
Q 2172 3584 2448 3432 
Q 2725 3281 2906 2969 
z
M 947 1747 
Q 947 1113 1208 752 
Q 1469 391 1925 391 
Q 2381 391 2643 752 
Q 2906 1113 2906 1747 
Q 2906 2381 2643 2742 
Q 2381 3103 1925 3103 
Q 1469 3103 1208 2742 
Q 947 2381 947 1747 
z
" transform="scale(0.015625)"/>
      </defs>
      <use xlink:href="#DejaVuSans-43"/>
      <use xlink:href="#DejaVuSans-6f" x="69.824219"/>
      <use xlink:href="#DejaVuSans-64" x="131.005859"/>
      <use xlink:href="#DejaVuSans-6f" x="194.482422"/>
      <use xlink:href="#DejaVuSans-6e" x="255.664062"/>
     </g>
    </g>
    <g id="patch_9">
     <path d="M 43.744531 103.554688 
L 63.744531 103.554688 
L 63.744531 96.554688 
L 43.744531 96.554688 
z
" style="fill: #ff7f0e; fill-opacity: 0.5; stroke: #ff7f0e; stroke-width: 2.5; stroke-linejoin: miter"/>
    </g>
    <g id="text_15">
     <!-- Codon+GC -->
     <g transform="translate(71.744531 103.554688) scale(0.1 -0.1)">
      <defs>
       <path id="DejaVuSans-2b" d="M 2944 4013 
L 2944 2272 
L 4684 2272 
L 4684 1741 
L 2944 1741 
L 2944 0 
L 2419 0 
L 2419 1741 
L 678 1741 
L 678 2272 
L 2419 2272 
L 2419 4013 
L 2944 4013 
z
" transform="scale(0.015625)"/>
       <path id="DejaVuSans-47" d="M 3809 666 
L 3809 1919 
L 2778 1919 
L 2778 2438 
L 4434 2438 
L 4434 434 
Q 4069 175 3628 42 
Q 3188 -91 2688 -91 
Q 1594 -91 976 548 
Q 359 1188 359 2328 
Q 359 3472 976 4111 
Q 1594 4750 2688 4750 
Q 3144 4750 3555 4637 
Q 3966 4525 4313 4306 
L 4313 3634 
Q 3963 3931 3569 4081 
Q 3175 4231 2741 4231 
Q 1884 4231 1454 3753 
Q 1025 3275 1025 2328 
Q 1025 1384 1454 906 
Q 1884 428 2741 428 
Q 3075 428 3337 486 
Q 3600 544 3809 666 
z
" transform="scale(0.015625)"/>
      </defs>
      <use xlink:href="#DejaVuSans-43"/>
      <use xlink:href="#DejaVuSans-6f" x="69.824219"/>
      <use xlink:href="#DejaVuSans-64" x="131.005859"/>
      <use xlink:href="#DejaVuSans-6f" x="194.482422"/>
      <use xlink:href="#DejaVuSans-6e" x="255.664062"/>
      <use xlink:href="#DejaVuSans-2b" x="319.042969"/>
      <use xlink:href="#DejaVuSans-47" x="402.832031"/>
      <use xlink:href="#DejaVuSans-43" x="480.322266"/>
     </g>
    </g>
   </g>
  </g>
  <g id="axes_2">
   <g id="patch_10">
    <path d="M 34.240625 612 
L 871.240625 612 
L 871.240625 370.956522 
L 34.240625 370.956522 
z
" style="fill: #ffffff"/>
   </g>
   <g id="PolyCollection_3">
    <defs>
     <path id="m0f5e5da678" d="M 204.313835 -23.963346 
L 204.313835 -23.878125 
L 207.222842 -23.878125 
L 210.13185 -23.878125 
L 213.040858 -23.878125 
L 215.949865 -23.878125 
L 218.858873 -23.878125 
L 221.767881 -23.878125 
L 224.676888 -23.878125 
L 227.585896 -23.878125 
L 230.494904 -23.878125 
L 233.403911 -23.878125 
L 236.312919 -23.878125 
L 239.221927 -23.878125 
L 242.130934 -23.878125 
L 245.039942 -23.878125 
L 247.948949 -23.878125 
L 250.857957 -23.878125 
L 253.766965 -23.878125 
L 256.675972 -23.878125 
L 259.58498 -23.878125 
L 262.493988 -23.878125 
L 265.402995 -23.878125 
L 268.312003 -23.878125 
L 271.221011 -23.878125 
L 274.130018 -23.878125 
L 277.039026 -23.878125 
L 279.948033 -23.878125 
L 282.857041 -23.878125 
L 285.766049 -23.878125 
L 288.675056 -23.878125 
L 291.584064 -23.878125 
L 294.493072 -23.878125 
L 297.402079 -23.878125 
L 300.311087 -23.878125 
L 303.220095 -23.878125 
L 306.129102 -23.878125 
L 309.03811 -23.878125 
L 311.947117 -23.878125 
L 314.856125 -23.878125 
L 317.765133 -23.878125 
L 320.67414 -23.878125 
L 323.583148 -23.878125 
L 326.492156 -23.878125 
L 329.401163 -23.878125 
L 332.310171 -23.878125 
L 335.219179 -23.878125 
L 338.128186 -23.878125 
L 341.037194 -23.878125 
L 343.946201 -23.878125 
L 346.855209 -23.878125 
L 349.764217 -23.878125 
L 352.673224 -23.878125 
L 355.582232 -23.878125 
L 358.49124 -23.878125 
L 361.400247 -23.878125 
L 364.309255 -23.878125 
L 367.218263 -23.878125 
L 370.12727 -23.878125 
L 373.036278 -23.878125 
L 375.945286 -23.878125 
L 378.854293 -23.878125 
L 381.763301 -23.878125 
L 384.672308 -23.878125 
L 387.581316 -23.878125 
L 390.490324 -23.878125 
L 393.399331 -23.878125 
L 396.308339 -23.878125 
L 399.217347 -23.878125 
L 402.126354 -23.878125 
L 405.035362 -23.878125 
L 407.94437 -23.878125 
L 410.853377 -23.878125 
L 413.762385 -23.878125 
L 416.671392 -23.878125 
L 419.5804 -23.878125 
L 422.489408 -23.878125 
L 425.398415 -23.878125 
L 428.307423 -23.878125 
L 431.216431 -23.878125 
L 434.125438 -23.878125 
L 437.034446 -23.878125 
L 439.943454 -23.878125 
L 442.852461 -23.878125 
L 445.761469 -23.878125 
L 448.670476 -23.878125 
L 451.579484 -23.878125 
L 454.488492 -23.878125 
L 457.397499 -23.878125 
L 460.306507 -23.878125 
L 463.215515 -23.878125 
L 466.124522 -23.878125 
L 469.03353 -23.878125 
L 471.942538 -23.878125 
L 474.851545 -23.878125 
L 477.760553 -23.878125 
L 480.66956 -23.878125 
L 483.578568 -23.878125 
L 486.487576 -23.878125 
L 489.396583 -23.878125 
L 492.305591 -23.878125 
L 495.214599 -23.878125 
L 498.123606 -23.878125 
L 501.032614 -23.878125 
L 503.941622 -23.878125 
L 506.850629 -23.878125 
L 509.759637 -23.878125 
L 512.668645 -23.878125 
L 515.577652 -23.878125 
L 518.48666 -23.878125 
L 521.395667 -23.878125 
L 524.304675 -23.878125 
L 527.213683 -23.878125 
L 530.12269 -23.878125 
L 533.031698 -23.878125 
L 535.940706 -23.878125 
L 538.849713 -23.878125 
L 541.758721 -23.878125 
L 544.667729 -23.878125 
L 547.576736 -23.878125 
L 550.485744 -23.878125 
L 553.394751 -23.878125 
L 556.303759 -23.878125 
L 559.212767 -23.878125 
L 562.121774 -23.878125 
L 565.030782 -23.878125 
L 567.93979 -23.878125 
L 570.848797 -23.878125 
L 573.757805 -23.878125 
L 576.666813 -23.878125 
L 579.57582 -23.878125 
L 582.484828 -23.878125 
L 585.393835 -23.878125 
L 588.302843 -23.878125 
L 591.211851 -23.878125 
L 594.120858 -23.878125 
L 597.029866 -23.878125 
L 599.938874 -23.878125 
L 602.847881 -23.878125 
L 605.756889 -23.878125 
L 608.665897 -23.878125 
L 611.574904 -23.878125 
L 614.483912 -23.878125 
L 617.39292 -23.878125 
L 620.301927 -23.878125 
L 623.210935 -23.878125 
L 626.119942 -23.878125 
L 629.02895 -23.878125 
L 631.937958 -23.878125 
L 634.846965 -23.878125 
L 637.755973 -23.878125 
L 640.664981 -23.878125 
L 643.573988 -23.878125 
L 646.482996 -23.878125 
L 649.392004 -23.878125 
L 652.301011 -23.878125 
L 655.210019 -23.878125 
L 658.119026 -23.878125 
L 661.028034 -23.878125 
L 663.937042 -23.878125 
L 666.846049 -23.878125 
L 669.755057 -23.878125 
L 672.664065 -23.878125 
L 675.573072 -23.878125 
L 678.48208 -23.878125 
L 681.391088 -23.878125 
L 684.300095 -23.878125 
L 687.209103 -23.878125 
L 690.11811 -23.878125 
L 693.027118 -23.878125 
L 695.936126 -23.878125 
L 698.845133 -23.878125 
L 701.754141 -23.878125 
L 704.663149 -23.878125 
L 707.572156 -23.878125 
L 710.481164 -23.878125 
L 713.390172 -23.878125 
L 716.299179 -23.878125 
L 719.208187 -23.878125 
L 722.117194 -23.878125 
L 725.026202 -23.878125 
L 727.93521 -23.878125 
L 730.844217 -23.878125 
L 733.753225 -23.878125 
L 736.662233 -23.878125 
L 739.57124 -23.878125 
L 742.480248 -23.878125 
L 745.389256 -23.878125 
L 748.298263 -23.878125 
L 751.207271 -23.878125 
L 754.116279 -23.878125 
L 757.025286 -23.878125 
L 759.934294 -23.878125 
L 762.843301 -23.878125 
L 765.752309 -23.878125 
L 768.661317 -23.878125 
L 771.570324 -23.878125 
L 774.479332 -23.878125 
L 777.38834 -23.878125 
L 780.297347 -23.878125 
L 783.206355 -23.878125 
L 783.206355 -23.977363 
L 783.206355 -23.977363 
L 780.297347 -24.008721 
L 777.38834 -24.048809 
L 774.479332 -24.099686 
L 771.570324 -24.163791 
L 768.661317 -24.243988 
L 765.752309 -24.343607 
L 762.843301 -24.466488 
L 759.934294 -24.617013 
L 757.025286 -24.800138 
L 754.116279 -25.021419 
L 751.207271 -25.287021 
L 748.298263 -25.603719 
L 745.389256 -25.978891 
L 742.480248 -26.42049 
L 739.57124 -26.937001 
L 736.662233 -27.53739 
L 733.753225 -28.231029 
L 730.844217 -29.027611 
L 727.93521 -29.937051 
L 725.026202 -30.969374 
L 722.117194 -32.134597 
L 719.208187 -33.442605 
L 716.299179 -34.90302 
L 713.390172 -36.525078 
L 710.481164 -38.31751 
L 707.572156 -40.288427 
L 704.663149 -42.445227 
L 701.754141 -44.794508 
L 698.845133 -47.342014 
L 695.936126 -50.092581 
L 693.027118 -53.050123 
L 690.11811 -56.217625 
L 687.209103 -59.597155 
L 684.300095 -63.189892 
L 681.391088 -66.996156 
L 678.48208 -71.015439 
L 675.573072 -75.246441 
L 672.664065 -79.687071 
L 669.755057 -84.334453 
L 666.846049 -89.184882 
L 663.937042 -94.233767 
L 661.028034 -99.475532 
L 658.119026 -104.903492 
L 655.210019 -110.509689 
L 652.301011 -116.28472 
L 649.392004 -122.217542 
L 646.482996 -128.29528 
L 643.573988 -134.503043 
L 640.664981 -140.823771 
L 637.755973 -147.238113 
L 634.846965 -153.724364 
L 631.937958 -160.258452 
L 629.02895 -166.814001 
L 626.119942 -173.362462 
L 623.210935 -179.873305 
L 620.301927 -186.314287 
L 617.39292 -192.65177 
L 614.483912 -198.851086 
L 611.574904 -204.876939 
L 608.665897 -210.693831 
L 605.756889 -216.266499 
L 602.847881 -221.560353 
L 599.938874 -226.541912 
L 597.029866 -231.179222 
L 594.120858 -235.442267 
L 591.211851 -239.303359 
L 588.302843 -242.737507 
L 585.393835 -245.722776 
L 582.484828 -248.240622 
L 579.57582 -250.276199 
L 576.666813 -251.818652 
L 573.757805 -252.861356 
L 570.848797 -253.402123 
L 567.93979 -253.443342 
L 565.030782 -252.99205 
L 562.121774 -252.059913 
L 559.212767 -250.663112 
L 556.303759 -248.822125 
L 553.394751 -246.561396 
L 550.485744 -243.908895 
L 547.576736 -240.895578 
L 544.667729 -237.554763 
L 541.758721 -233.921436 
L 538.849713 -230.031518 
L 535.940706 -225.921123 
L 533.031698 -221.625827 
L 530.12269 -217.179999 
L 527.213683 -212.616198 
L 524.304675 -207.964686 
L 521.395667 -203.253048 
L 518.48666 -198.505958 
L 515.577652 -193.745069 
L 512.668645 -188.989039 
L 509.759637 -184.253675 
L 506.850629 -179.55217 
L 503.941622 -174.895417 
L 501.032614 -170.292366 
L 498.123606 -165.750396 
L 495.214599 -161.275672 
L 492.305591 -156.87347 
L 489.396583 -152.548432 
L 486.487576 -148.304757 
L 483.578568 -144.146304 
L 480.66956 -140.076614 
L 477.760553 -136.098861 
L 474.851545 -132.215741 
L 471.942538 -128.429318 
L 469.03353 -124.740854 
L 466.124522 -121.150643 
L 463.215515 -117.657874 
L 460.306507 -114.260547 
L 457.397499 -110.955453 
L 454.488492 -107.73824 
L 451.579484 -104.603556 
L 448.670476 -101.545277 
L 445.761469 -98.556811 
L 442.852461 -95.631453 
L 439.943454 -92.762782 
L 437.034446 -89.945062 
L 434.125438 -87.173632 
L 431.216431 -84.44526 
L 428.307423 -81.758417 
L 425.398415 -79.113478 
L 422.489408 -76.512813 
L 419.5804 -73.960776 
L 416.671392 -71.463571 
L 413.762385 -69.029024 
L 410.853377 -66.666253 
L 407.94437 -64.38526 
L 405.035362 -62.196479 
L 402.126354 -60.110284 
L 399.217347 -58.136498 
L 396.308339 -56.283931 
L 393.399331 -54.559956 
L 390.490324 -52.970158 
L 387.581316 -51.518069 
L 384.672308 -50.20499 
L 381.763301 -49.029917 
L 378.854293 -47.98956 
L 375.945286 -47.078458 
L 373.036278 -46.289169 
L 370.12727 -45.612533 
L 367.218263 -45.037973 
L 364.309255 -44.553837 
L 361.400247 -44.14775 
L 358.49124 -43.806957 
L 355.582232 -43.518657 
L 352.673224 -43.270294 
L 349.764217 -43.049819 
L 346.855209 -42.845901 
L 343.946201 -42.648094 
L 341.037194 -42.446954 
L 338.128186 -42.234117 
L 335.219179 -42.002341 
L 332.310171 -41.745512 
L 329.401163 -41.458636 
L 326.492156 -41.137804 
L 323.583148 -40.780158 
L 320.67414 -40.383844 
L 317.765133 -39.947968 
L 314.856125 -39.472546 
L 311.947117 -38.958465 
L 309.03811 -38.407432 
L 306.129102 -37.821924 
L 303.220095 -37.205137 
L 300.311087 -36.560916 
L 297.402079 -35.893688 
L 294.493072 -35.208369 
L 291.584064 -34.510267 
L 288.675056 -33.804968 
L 285.766049 -33.098216 
L 282.857041 -32.395782 
L 279.948033 -31.703333 
L 277.039026 -31.026299 
L 274.130018 -30.369749 
L 271.221011 -29.738286 
L 268.312003 -29.135942 
L 265.402995 -28.56611 
L 262.493988 -28.031491 
L 259.58498 -27.534062 
L 256.675972 -27.07508 
L 253.766965 -26.655093 
L 250.857957 -26.273992 
L 247.948949 -25.931059 
L 245.039942 -25.625048 
L 242.130934 -25.354265 
L 239.221927 -25.116657 
L 236.312919 -24.909902 
L 233.403911 -24.731497 
L 230.494904 -24.578842 
L 227.585896 -24.449311 
L 224.676888 -24.340318 
L 221.767881 -24.249372 
L 218.858873 -24.174117 
L 215.949865 -24.112364 
L 213.040858 -24.062112 
L 210.13185 -24.021559 
L 207.222842 -23.989104 
L 204.313835 -23.963346 
z
" style="stroke: #ff7f0e; stroke-width: 2.5"/>
    </defs>
    <g clip-path="url(#p48655cabb0)">
     <use xlink:href="#m0f5e5da678" x="0" y="635.878125" style="fill: #ff7f0e; fill-opacity: 0.5; stroke: #ff7f0e; stroke-width: 2.5"/>
    </g>
   </g>
   <g id="PolyCollection_4">
    <defs>
     <path id="m1b7a3b5285" d="M 220.140969 -23.957604 
L 220.140969 -23.878125 
L 223.253236 -23.878125 
L 226.365504 -23.878125 
L 229.477771 -23.878125 
L 232.590039 -23.878125 
L 235.702306 -23.878125 
L 238.814574 -23.878125 
L 241.926841 -23.878125 
L 245.039109 -23.878125 
L 248.151376 -23.878125 
L 251.263644 -23.878125 
L 254.375911 -23.878125 
L 257.488179 -23.878125 
L 260.600446 -23.878125 
L 263.712714 -23.878125 
L 266.824981 -23.878125 
L 269.937249 -23.878125 
L 273.049517 -23.878125 
L 276.161784 -23.878125 
L 279.274052 -23.878125 
L 282.386319 -23.878125 
L 285.498587 -23.878125 
L 288.610854 -23.878125 
L 291.723122 -23.878125 
L 294.835389 -23.878125 
L 297.947657 -23.878125 
L 301.059924 -23.878125 
L 304.172192 -23.878125 
L 307.284459 -23.878125 
L 310.396727 -23.878125 
L 313.508994 -23.878125 
L 316.621262 -23.878125 
L 319.733529 -23.878125 
L 322.845797 -23.878125 
L 325.958064 -23.878125 
L 329.070332 -23.878125 
L 332.1826 -23.878125 
L 335.294867 -23.878125 
L 338.407135 -23.878125 
L 341.519402 -23.878125 
L 344.63167 -23.878125 
L 347.743937 -23.878125 
L 350.856205 -23.878125 
L 353.968472 -23.878125 
L 357.08074 -23.878125 
L 360.193007 -23.878125 
L 363.305275 -23.878125 
L 366.417542 -23.878125 
L 369.52981 -23.878125 
L 372.642077 -23.878125 
L 375.754345 -23.878125 
L 378.866612 -23.878125 
L 381.97888 -23.878125 
L 385.091147 -23.878125 
L 388.203415 -23.878125 
L 391.315683 -23.878125 
L 394.42795 -23.878125 
L 397.540218 -23.878125 
L 400.652485 -23.878125 
L 403.764753 -23.878125 
L 406.87702 -23.878125 
L 409.989288 -23.878125 
L 413.101555 -23.878125 
L 416.213823 -23.878125 
L 419.32609 -23.878125 
L 422.438358 -23.878125 
L 425.550625 -23.878125 
L 428.662893 -23.878125 
L 431.77516 -23.878125 
L 434.887428 -23.878125 
L 437.999695 -23.878125 
L 441.111963 -23.878125 
L 444.22423 -23.878125 
L 447.336498 -23.878125 
L 450.448766 -23.878125 
L 453.561033 -23.878125 
L 456.673301 -23.878125 
L 459.785568 -23.878125 
L 462.897836 -23.878125 
L 466.010103 -23.878125 
L 469.122371 -23.878125 
L 472.234638 -23.878125 
L 475.346906 -23.878125 
L 478.459173 -23.878125 
L 481.571441 -23.878125 
L 484.683708 -23.878125 
L 487.795976 -23.878125 
L 490.908243 -23.878125 
L 494.020511 -23.878125 
L 497.132778 -23.878125 
L 500.245046 -23.878125 
L 503.357314 -23.878125 
L 506.469581 -23.878125 
L 509.581849 -23.878125 
L 512.694116 -23.878125 
L 515.806384 -23.878125 
L 518.918651 -23.878125 
L 522.030919 -23.878125 
L 525.143186 -23.878125 
L 528.255454 -23.878125 
L 531.367721 -23.878125 
L 534.479989 -23.878125 
L 537.592256 -23.878125 
L 540.704524 -23.878125 
L 543.816791 -23.878125 
L 546.929059 -23.878125 
L 550.041326 -23.878125 
L 553.153594 -23.878125 
L 556.265861 -23.878125 
L 559.378129 -23.878125 
L 562.490397 -23.878125 
L 565.602664 -23.878125 
L 568.714932 -23.878125 
L 571.827199 -23.878125 
L 574.939467 -23.878125 
L 578.051734 -23.878125 
L 581.164002 -23.878125 
L 584.276269 -23.878125 
L 587.388537 -23.878125 
L 590.500804 -23.878125 
L 593.613072 -23.878125 
L 596.725339 -23.878125 
L 599.837607 -23.878125 
L 602.949874 -23.878125 
L 606.062142 -23.878125 
L 609.174409 -23.878125 
L 612.286677 -23.878125 
L 615.398944 -23.878125 
L 618.511212 -23.878125 
L 621.62348 -23.878125 
L 624.735747 -23.878125 
L 627.848015 -23.878125 
L 630.960282 -23.878125 
L 634.07255 -23.878125 
L 637.184817 -23.878125 
L 640.297085 -23.878125 
L 643.409352 -23.878125 
L 646.52162 -23.878125 
L 649.633887 -23.878125 
L 652.746155 -23.878125 
L 655.858422 -23.878125 
L 658.97069 -23.878125 
L 662.082957 -23.878125 
L 665.195225 -23.878125 
L 668.307492 -23.878125 
L 671.41976 -23.878125 
L 674.532027 -23.878125 
L 677.644295 -23.878125 
L 680.756563 -23.878125 
L 683.86883 -23.878125 
L 686.981098 -23.878125 
L 690.093365 -23.878125 
L 693.205633 -23.878125 
L 696.3179 -23.878125 
L 699.430168 -23.878125 
L 702.542435 -23.878125 
L 705.654703 -23.878125 
L 708.76697 -23.878125 
L 711.879238 -23.878125 
L 714.991505 -23.878125 
L 718.103773 -23.878125 
L 721.21604 -23.878125 
L 724.328308 -23.878125 
L 727.440575 -23.878125 
L 730.552843 -23.878125 
L 733.665111 -23.878125 
L 736.777378 -23.878125 
L 739.889646 -23.878125 
L 743.001913 -23.878125 
L 746.114181 -23.878125 
L 749.226448 -23.878125 
L 752.338716 -23.878125 
L 755.450983 -23.878125 
L 758.563251 -23.878125 
L 761.675518 -23.878125 
L 764.787786 -23.878125 
L 767.900053 -23.878125 
L 771.012321 -23.878125 
L 774.124588 -23.878125 
L 777.236856 -23.878125 
L 780.349123 -23.878125 
L 783.461391 -23.878125 
L 786.573658 -23.878125 
L 789.685926 -23.878125 
L 792.798194 -23.878125 
L 795.910461 -23.878125 
L 799.022729 -23.878125 
L 802.134996 -23.878125 
L 805.247264 -23.878125 
L 808.359531 -23.878125 
L 811.471799 -23.878125 
L 814.584066 -23.878125 
L 817.696334 -23.878125 
L 820.808601 -23.878125 
L 823.920869 -23.878125 
L 827.033136 -23.878125 
L 830.145404 -23.878125 
L 833.257671 -23.878125 
L 836.369939 -23.878125 
L 839.482206 -23.878125 
L 839.482206 -23.953603 
L 839.482206 -23.953603 
L 836.369939 -23.974768 
L 833.257671 -24.001118 
L 830.145404 -24.033711 
L 827.033136 -24.073772 
L 823.920869 -24.122703 
L 820.808601 -24.182099 
L 817.696334 -24.253761 
L 814.584066 -24.339709 
L 811.471799 -24.44219 
L 808.359531 -24.563691 
L 805.247264 -24.706948 
L 802.134996 -24.87495 
L 799.022729 -25.070956 
L 795.910461 -25.298496 
L 792.798194 -25.561385 
L 789.685926 -25.863734 
L 786.573658 -26.209964 
L 783.461391 -26.604822 
L 780.349123 -27.053397 
L 777.236856 -27.561144 
L 774.124588 -28.133903 
L 771.012321 -28.777916 
L 767.900053 -29.499843 
L 764.787786 -30.30677 
L 761.675518 -31.206206 
L 758.563251 -32.206059 
L 755.450983 -33.314598 
L 752.338716 -34.540383 
L 749.226448 -35.892167 
L 746.114181 -37.378763 
L 743.001913 -39.008868 
L 739.889646 -40.790857 
L 736.777378 -42.73253 
L 733.665111 -44.840828 
L 730.552843 -47.121524 
L 727.440575 -49.578886 
L 724.328308 -52.215343 
L 721.21604 -55.031153 
L 718.103773 -58.024091 
L 714.991505 -61.189191 
L 711.879238 -64.518537 
L 708.76697 -68.001141 
L 705.654703 -71.622911 
L 702.542435 -75.366734 
L 699.430168 -79.212674 
L 696.3179 -83.138292 
L 693.205633 -87.119091 
L 690.093365 -91.129076 
L 686.981098 -95.141407 
L 683.86883 -99.129144 
L 680.756563 -103.066027 
L 677.644295 -106.927297 
L 674.532027 -110.690484 
L 671.41976 -114.336161 
L 668.307492 -117.848603 
L 665.195225 -121.216325 
L 662.082957 -124.432472 
L 658.97069 -127.495036 
L 655.858422 -130.406874 
L 652.746155 -133.175536 
L 649.633887 -135.812887 
L 646.52162 -138.334546 
L 643.409352 -140.759163 
L 640.297085 -143.10755 
L 637.184817 -145.401723 
L 634.07255 -147.663873 
L 630.960282 -149.91533 
L 627.848015 -152.175551 
L 624.735747 -154.461188 
L 621.62348 -156.78526 
L 618.511212 -159.156478 
L 615.398944 -161.578741 
L 612.286677 -164.050826 
L 609.174409 -166.566274 
L 606.062142 -169.113484 
L 602.949874 -171.675997 
L 599.837607 -174.232955 
L 596.725339 -176.759726 
L 593.613072 -179.228641 
L 590.500804 -181.609844 
L 587.388537 -183.872199 
L 584.276269 -185.984231 
L 581.164002 -187.915071 
L 578.051734 -189.635366 
L 574.939467 -191.118144 
L 571.827199 -192.339595 
L 568.714932 -193.279755 
L 565.602664 -193.923078 
L 562.490397 -194.258886 
L 559.378129 -194.281682 
L 556.265861 -193.991323 
L 553.153594 -193.393058 
L 550.041326 -192.497412 
L 546.929059 -191.319938 
L 543.816791 -189.880835 
L 540.704524 -188.204436 
L 537.592256 -186.31858 
L 534.479989 -184.253886 
L 531.367721 -182.042945 
L 528.255454 -179.719447 
L 525.143186 -177.31727 
L 522.030919 -174.869564 
L 518.918651 -172.407842 
L 515.806384 -169.961127 
L 512.694116 -167.555172 
L 509.581849 -165.211779 
L 506.469581 -162.948255 
L 503.357314 -160.777006 
L 500.245046 -158.705309 
L 497.132778 -156.735249 
L 494.020511 -154.863833 
L 490.908243 -153.083289 
L 487.795976 -151.38151 
L 484.683708 -149.742659 
L 481.571441 -148.147884 
L 478.459173 -146.576128 
L 475.346906 -145.005006 
L 472.234638 -143.411701 
L 469.122371 -141.773854 
L 466.010103 -140.07042 
L 462.897836 -138.282439 
L 459.785568 -136.393723 
L 456.673301 -134.391403 
L 453.561033 -132.266357 
L 450.448766 -130.013463 
L 447.336498 -127.63172 
L 444.22423 -125.124195 
L 441.111963 -122.497839 
L 437.999695 -119.76315 
L 434.887428 -116.933742 
L 431.77516 -114.025795 
L 428.662893 -111.057454 
L 425.550625 -108.048166 
L 422.438358 -105.018017 
L 419.32609 -101.987059 
L 416.213823 -98.974684 
L 413.101555 -95.999049 
L 409.989288 -93.076577 
L 406.87702 -90.221552 
L 403.764753 -87.445811 
L 400.652485 -84.758555 
L 397.540218 -82.166257 
L 394.42795 -79.672688 
L 391.315683 -77.279039 
L 388.203415 -74.984134 
L 385.091147 -72.784709 
L 381.97888 -70.67576 
L 378.866612 -68.650924 
L 375.754345 -66.702879 
L 372.642077 -64.823749 
L 369.52981 -63.005495 
L 366.417542 -61.240275 
L 363.305275 -59.520761 
L 360.193007 -57.840406 
L 357.08074 -56.193651 
L 353.968472 -54.576072 
L 350.856205 -52.984463 
L 347.743937 -51.416863 
L 344.63167 -49.872524 
L 341.519402 -48.351839 
L 338.407135 -46.85622 
L 335.294867 -45.387958 
L 332.1826 -43.950046 
L 329.070332 -42.546008 
L 325.958064 -41.179706 
L 322.845797 -39.855165 
L 319.733529 -38.576398 
L 316.621262 -37.347255 
L 313.508994 -36.171282 
L 310.396727 -35.051608 
L 307.284459 -33.990858 
L 304.172192 -32.991081 
L 301.059924 -32.053712 
L 297.947657 -31.179548 
L 294.835389 -30.36875 
L 291.723122 -29.620863 
L 288.610854 -28.934847 
L 285.498587 -28.309127 
L 282.386319 -27.741651 
L 279.274052 -27.229954 
L 276.161784 -26.771228 
L 273.049517 -26.362394 
L 269.937249 -26.000175 
L 266.824981 -25.681164 
L 263.712714 -25.401891 
L 260.600446 -25.158882 
L 257.488179 -24.948717 
L 254.375911 -24.768069 
L 251.263644 -24.613753 
L 248.151376 -24.482749 
L 245.039109 -24.372231 
L 241.926841 -24.279584 
L 238.814574 -24.202408 
L 235.702306 -24.138531 
L 232.590039 -24.085999 
L 229.477771 -24.043075 
L 226.365504 -24.008229 
L 223.253236 -23.980124 
L 220.140969 -23.957604 
z
" style="stroke: #1f77b4; stroke-width: 2.5"/>
    </defs>
    <g clip-path="url(#p48655cabb0)">
     <use xlink:href="#m1b7a3b5285" x="0" y="635.878125" style="fill: #1f77b4; fill-opacity: 0.5; stroke: #1f77b4; stroke-width: 2.5"/>
    </g>
   </g>
   <g id="matplotlib.axis_3">
    <g id="xtick_6">
     <g id="line2d_11">
      <g>
       <use xlink:href="#m6650f302f6" x="71.572425" y="612" style="stroke: #000000; stroke-width: 0.8"/>
      </g>
     </g>
     <g id="text_16">
      <!-- 0.0 -->
      <g transform="translate(63.620862 626.598438) scale(0.1 -0.1)">
       <use xlink:href="#DejaVuSans-30"/>
       <use xlink:href="#DejaVuSans-2e" x="63.623047"/>
       <use xlink:href="#DejaVuSans-30" x="95.410156"/>
      </g>
     </g>
    </g>
    <g id="xtick_7">
     <g id="line2d_12">
      <g>
       <use xlink:href="#m6650f302f6" x="234.246953" y="612" style="stroke: #000000; stroke-width: 0.8"/>
      </g>
     </g>
     <g id="text_17">
      <!-- 0.2 -->
      <g transform="translate(226.295391 626.598438) scale(0.1 -0.1)">
       <use xlink:href="#DejaVuSans-30"/>
       <use xlink:href="#DejaVuSans-2e" x="63.623047"/>
       <use xlink:href="#DejaVuSans-32" x="95.410156"/>
      </g>
     </g>
    </g>
    <g id="xtick_8">
     <g id="line2d_13">
      <g>
       <use xlink:href="#m6650f302f6" x="396.921482" y="612" style="stroke: #000000; stroke-width: 0.8"/>
      </g>
     </g>
     <g id="text_18">
      <!-- 0.4 -->
      <g transform="translate(388.969919 626.598438) scale(0.1 -0.1)">
       <use xlink:href="#DejaVuSans-30"/>
       <use xlink:href="#DejaVuSans-2e" x="63.623047"/>
       <use xlink:href="#DejaVuSans-34" x="95.410156"/>
      </g>
     </g>
    </g>
    <g id="xtick_9">
     <g id="line2d_14">
      <g>
       <use xlink:href="#m6650f302f6" x="559.59601" y="612" style="stroke: #000000; stroke-width: 0.8"/>
      </g>
     </g>
     <g id="text_19">
      <!-- 0.6 -->
      <g transform="translate(551.644447 626.598438) scale(0.1 -0.1)">
       <use xlink:href="#DejaVuSans-30"/>
       <use xlink:href="#DejaVuSans-2e" x="63.623047"/>
       <use xlink:href="#DejaVuSans-36" x="95.410156"/>
      </g>
     </g>
    </g>
    <g id="xtick_10">
     <g id="line2d_15">
      <g>
       <use xlink:href="#m6650f302f6" x="722.270538" y="612" style="stroke: #000000; stroke-width: 0.8"/>
      </g>
     </g>
     <g id="text_20">
      <!-- 0.8 -->
      <g transform="translate(714.318976 626.598438) scale(0.1 -0.1)">
       <use xlink:href="#DejaVuSans-30"/>
       <use xlink:href="#DejaVuSans-2e" x="63.623047"/>
       <use xlink:href="#DejaVuSans-38" x="95.410156"/>
      </g>
     </g>
    </g>
   </g>
   <g id="matplotlib.axis_4">
    <g id="ytick_6">
     <g id="line2d_16">
      <g>
       <use xlink:href="#me5d7aebf04" x="34.240625" y="612" style="stroke: #000000; stroke-width: 0.8"/>
      </g>
     </g>
     <g id="text_21">
      <!-- 0 -->
      <g transform="translate(20.878125 615.799219) scale(0.1 -0.1)">
       <use xlink:href="#DejaVuSans-30"/>
      </g>
     </g>
    </g>
    <g id="ytick_7">
     <g id="line2d_17">
      <g>
       <use xlink:href="#me5d7aebf04" x="34.240625" y="560.612584" style="stroke: #000000; stroke-width: 0.8"/>
      </g>
     </g>
     <g id="text_22">
      <!-- 1 -->
      <g transform="translate(20.878125 564.411802) scale(0.1 -0.1)">
       <use xlink:href="#DejaVuSans-31"/>
      </g>
     </g>
    </g>
    <g id="ytick_8">
     <g id="line2d_18">
      <g>
       <use xlink:href="#me5d7aebf04" x="34.240625" y="509.225167" style="stroke: #000000; stroke-width: 0.8"/>
      </g>
     </g>
     <g id="text_23">
      <!-- 2 -->
      <g transform="translate(20.878125 513.024386) scale(0.1 -0.1)">
       <use xlink:href="#DejaVuSans-32"/>
      </g>
     </g>
    </g>
    <g id="ytick_9">
     <g id="line2d_19">
      <g>
       <use xlink:href="#me5d7aebf04" x="34.240625" y="457.837751" style="stroke: #000000; stroke-width: 0.8"/>
      </g>
     </g>
     <g id="text_24">
      <!-- 3 -->
      <g transform="translate(20.878125 461.636969) scale(0.1 -0.1)">
       <use xlink:href="#DejaVuSans-33"/>
      </g>
     </g>
    </g>
    <g id="ytick_10">
     <g id="line2d_20">
      <g>
       <use xlink:href="#me5d7aebf04" x="34.240625" y="406.450334" style="stroke: #000000; stroke-width: 0.8"/>
      </g>
     </g>
     <g id="text_25">
      <!-- 4 -->
      <g transform="translate(20.878125 410.249553) scale(0.1 -0.1)">
       <use xlink:href="#DejaVuSans-34"/>
      </g>
     </g>
    </g>
    <g id="text_26">
     <!-- Density -->
     <g transform="translate(14.798438 510.486855) rotate(-90) scale(0.1 -0.1)">
      <use xlink:href="#DejaVuSans-44"/>
      <use xlink:href="#DejaVuSans-65" x="77.001953"/>
      <use xlink:href="#DejaVuSans-6e" x="138.525391"/>
      <use xlink:href="#DejaVuSans-73" x="201.904297"/>
      <use xlink:href="#DejaVuSans-69" x="254.003906"/>
      <use xlink:href="#DejaVuSans-74" x="281.787109"/>
      <use xlink:href="#DejaVuSans-79" x="320.996094"/>
     </g>
    </g>
   </g>
   <g id="patch_11">
    <path d="M 34.240625 612 
L 34.240625 370.956522 
" style="fill: none; stroke: #000000; stroke-width: 0.8; stroke-linejoin: miter; stroke-linecap: square"/>
   </g>
   <g id="patch_12">
    <path d="M 871.240625 612 
L 871.240625 370.956522 
" style="fill: none; stroke: #000000; stroke-width: 0.8; stroke-linejoin: miter; stroke-linecap: square"/>
   </g>
   <g id="patch_13">
    <path d="M 34.240625 612 
L 871.240625 612 
" style="fill: none; stroke: #000000; stroke-width: 0.8; stroke-linejoin: miter; stroke-linecap: square"/>
   </g>
   <g id="patch_14">
    <path d="M 34.240625 370.956522 
L 871.240625 370.956522 
" style="fill: none; stroke: #000000; stroke-width: 0.8; stroke-linejoin: miter; stroke-linecap: square"/>
   </g>
   <g id="text_27">
    <!-- Spearman correlation coefficients -->
    <g transform="translate(351.57125 364.956522) scale(0.12 -0.12)">
     <defs>
      <path id="DejaVuSans-53" d="M 3425 4513 
L 3425 3897 
Q 3066 4069 2747 4153 
Q 2428 4238 2131 4238 
Q 1616 4238 1336 4038 
Q 1056 3838 1056 3469 
Q 1056 3159 1242 3001 
Q 1428 2844 1947 2747 
L 2328 2669 
Q 3034 2534 3370 2195 
Q 3706 1856 3706 1288 
Q 3706 609 3251 259 
Q 2797 -91 1919 -91 
Q 1588 -91 1214 -16 
Q 841 59 441 206 
L 441 856 
Q 825 641 1194 531 
Q 1563 422 1919 422 
Q 2459 422 2753 634 
Q 3047 847 3047 1241 
Q 3047 1584 2836 1778 
Q 2625 1972 2144 2069 
L 1759 2144 
Q 1053 2284 737 2584 
Q 422 2884 422 3419 
Q 422 4038 858 4394 
Q 1294 4750 2059 4750 
Q 2388 4750 2728 4690 
Q 3069 4631 3425 4513 
z
" transform="scale(0.015625)"/>
      <path id="DejaVuSans-6d" d="M 3328 2828 
Q 3544 3216 3844 3400 
Q 4144 3584 4550 3584 
Q 5097 3584 5394 3201 
Q 5691 2819 5691 2113 
L 5691 0 
L 5113 0 
L 5113 2094 
Q 5113 2597 4934 2840 
Q 4756 3084 4391 3084 
Q 3944 3084 3684 2787 
Q 3425 2491 3425 1978 
L 3425 0 
L 2847 0 
L 2847 2094 
Q 2847 2600 2669 2842 
Q 2491 3084 2119 3084 
Q 1678 3084 1418 2786 
Q 1159 2488 1159 1978 
L 1159 0 
L 581 0 
L 581 3500 
L 1159 3500 
L 1159 2956 
Q 1356 3278 1631 3431 
Q 1906 3584 2284 3584 
Q 2666 3584 2933 3390 
Q 3200 3197 3328 2828 
z
" transform="scale(0.015625)"/>
     </defs>
     <use xlink:href="#DejaVuSans-53"/>
     <use xlink:href="#DejaVuSans-70" x="63.476562"/>
     <use xlink:href="#DejaVuSans-65" x="126.953125"/>
     <use xlink:href="#DejaVuSans-61" x="188.476562"/>
     <use xlink:href="#DejaVuSans-72" x="249.755859"/>
     <use xlink:href="#DejaVuSans-6d" x="289.119141"/>
     <use xlink:href="#DejaVuSans-61" x="386.53125"/>
     <use xlink:href="#DejaVuSans-6e" x="447.810547"/>
     <use xlink:href="#DejaVuSans-20" x="511.189453"/>
     <use xlink:href="#DejaVuSans-63" x="542.976562"/>
     <use xlink:href="#DejaVuSans-6f" x="597.957031"/>
     <use xlink:href="#DejaVuSans-72" x="659.138672"/>
     <use xlink:href="#DejaVuSans-72" x="698.501953"/>
     <use xlink:href="#DejaVuSans-65" x="737.365234"/>
     <use xlink:href="#DejaVuSans-6c" x="798.888672"/>
     <use xlink:href="#DejaVuSans-61" x="826.671875"/>
     <use xlink:href="#DejaVuSans-74" x="887.951172"/>
     <use xlink:href="#DejaVuSans-69" x="927.160156"/>
     <use xlink:href="#DejaVuSans-6f" x="954.943359"/>
     <use xlink:href="#DejaVuSans-6e" x="1016.125"/>
     <use xlink:href="#DejaVuSans-20" x="1079.503906"/>
     <use xlink:href="#DejaVuSans-63" x="1111.291016"/>
     <use xlink:href="#DejaVuSans-6f" x="1166.271484"/>
     <use xlink:href="#DejaVuSans-65" x="1227.453125"/>
     <use xlink:href="#DejaVuSans-66" x="1288.976562"/>
     <use xlink:href="#DejaVuSans-66" x="1324.181641"/>
     <use xlink:href="#DejaVuSans-69" x="1359.386719"/>
     <use xlink:href="#DejaVuSans-63" x="1387.169922"/>
     <use xlink:href="#DejaVuSans-69" x="1442.150391"/>
     <use xlink:href="#DejaVuSans-65" x="1469.933594"/>
     <use xlink:href="#DejaVuSans-6e" x="1531.457031"/>
     <use xlink:href="#DejaVuSans-74" x="1594.835938"/>
     <use xlink:href="#DejaVuSans-73" x="1634.044922"/>
    </g>
   </g>
   <g id="legend_2">
    <g id="patch_15">
     <path d="M 41.240625 422.990897 
L 129.265625 422.990897 
Q 131.265625 422.990897 131.265625 420.990897 
L 131.265625 377.956522 
Q 131.265625 375.956522 129.265625 375.956522 
L 41.240625 375.956522 
Q 39.240625 375.956522 39.240625 377.956522 
L 39.240625 420.990897 
Q 39.240625 422.990897 41.240625 422.990897 
z
" style="fill: #ffffff; opacity: 0.8; stroke: #cccccc; stroke-linejoin: miter"/>
    </g>
    <g id="text_28">
     <!-- Correlation type: -->
     <g transform="translate(43.240625 387.554959) scale(0.1 -0.1)">
      <use xlink:href="#DejaVuSans-43"/>
      <use xlink:href="#DejaVuSans-6f" x="69.824219"/>
      <use xlink:href="#DejaVuSans-72" x="131.005859"/>
      <use xlink:href="#DejaVuSans-72" x="170.369141"/>
      <use xlink:href="#DejaVuSans-65" x="209.232422"/>
      <use xlink:href="#DejaVuSans-6c" x="270.755859"/>
      <use xlink:href="#DejaVuSans-61" x="298.539062"/>
      <use xlink:href="#DejaVuSans-74" x="359.818359"/>
      <use xlink:href="#DejaVuSans-69" x="399.027344"/>
      <use xlink:href="#DejaVuSans-6f" x="426.810547"/>
      <use xlink:href="#DejaVuSans-6e" x="487.992188"/>
      <use xlink:href="#DejaVuSans-20" x="551.371094"/>
      <use xlink:href="#DejaVuSans-74" x="583.158203"/>
      <use xlink:href="#DejaVuSans-79" x="622.367188"/>
      <use xlink:href="#DejaVuSans-70" x="681.546875"/>
      <use xlink:href="#DejaVuSans-65" x="745.023438"/>
      <use xlink:href="#DejaVuSans-3a" x="806.546875"/>
     </g>
    </g>
    <g id="patch_16">
     <path d="M 43.744531 402.233084 
L 63.744531 402.233084 
L 63.744531 395.233084 
L 43.744531 395.233084 
z
" style="fill: #1f77b4; fill-opacity: 0.5; stroke: #1f77b4; stroke-width: 2.5; stroke-linejoin: miter"/>
    </g>
    <g id="text_29">
     <!-- Codon -->
     <g transform="translate(71.744531 402.233084) scale(0.1 -0.1)">
      <use xlink:href="#DejaVuSans-43"/>
      <use xlink:href="#DejaVuSans-6f" x="69.824219"/>
      <use xlink:href="#DejaVuSans-64" x="131.005859"/>
      <use xlink:href="#DejaVuSans-6f" x="194.482422"/>
      <use xlink:href="#DejaVuSans-6e" x="255.664062"/>
     </g>
    </g>
    <g id="patch_17">
     <path d="M 43.744531 416.911209 
L 63.744531 416.911209 
L 63.744531 409.911209 
L 43.744531 409.911209 
z
" style="fill: #ff7f0e; fill-opacity: 0.5; stroke: #ff7f0e; stroke-width: 2.5; stroke-linejoin: miter"/>
    </g>
    <g id="text_30">
     <!-- Codon+GC -->
     <g transform="translate(71.744531 416.911209) scale(0.1 -0.1)">
      <use xlink:href="#DejaVuSans-43"/>
      <use xlink:href="#DejaVuSans-6f" x="69.824219"/>
      <use xlink:href="#DejaVuSans-64" x="131.005859"/>
      <use xlink:href="#DejaVuSans-6f" x="194.482422"/>
      <use xlink:href="#DejaVuSans-6e" x="255.664062"/>
      <use xlink:href="#DejaVuSans-2b" x="319.042969"/>
      <use xlink:href="#DejaVuSans-47" x="402.832031"/>
      <use xlink:href="#DejaVuSans-43" x="480.322266"/>
     </g>
    </g>
   </g>
  </g>
  <g id="text_31">
   <!-- Archaea - Density of correlation coefficients for genetic code: Thraustochytrium mitochondrial -->
   <g transform="translate(85.623828 18.597656) scale(0.15 -0.15)">
    <defs>
     <path id="DejaVuSans-41" d="M 2188 4044 
L 1331 1722 
L 3047 1722 
L 2188 4044 
z
M 1831 4666 
L 2547 4666 
L 4325 0 
L 3669 0 
L 3244 1197 
L 1141 1197 
L 716 0 
L 50 0 
L 1831 4666 
z
" transform="scale(0.015625)"/>
     <path id="DejaVuSans-68" d="M 3513 2113 
L 3513 0 
L 2938 0 
L 2938 2094 
Q 2938 2591 2744 2837 
Q 2550 3084 2163 3084 
Q 1697 3084 1428 2787 
Q 1159 2491 1159 1978 
L 1159 0 
L 581 0 
L 581 4863 
L 1159 4863 
L 1159 2956 
Q 1366 3272 1645 3428 
Q 1925 3584 2291 3584 
Q 2894 3584 3203 3211 
Q 3513 2838 3513 2113 
z
" transform="scale(0.015625)"/>
     <path id="DejaVuSans-2d" d="M 313 2009 
L 1997 2009 
L 1997 1497 
L 313 1497 
L 313 2009 
z
" transform="scale(0.015625)"/>
     <path id="DejaVuSans-67" d="M 2906 1791 
Q 2906 2416 2648 2759 
Q 2391 3103 1925 3103 
Q 1463 3103 1205 2759 
Q 947 2416 947 1791 
Q 947 1169 1205 825 
Q 1463 481 1925 481 
Q 2391 481 2648 825 
Q 2906 1169 2906 1791 
z
M 3481 434 
Q 3481 -459 3084 -895 
Q 2688 -1331 1869 -1331 
Q 1566 -1331 1297 -1286 
Q 1028 -1241 775 -1147 
L 775 -588 
Q 1028 -725 1275 -790 
Q 1522 -856 1778 -856 
Q 2344 -856 2625 -561 
Q 2906 -266 2906 331 
L 2906 616 
Q 2728 306 2450 153 
Q 2172 0 1784 0 
Q 1141 0 747 490 
Q 353 981 353 1791 
Q 353 2603 747 3093 
Q 1141 3584 1784 3584 
Q 2172 3584 2450 3431 
Q 2728 3278 2906 2969 
L 2906 3500 
L 3481 3500 
L 3481 434 
z
" transform="scale(0.015625)"/>
     <path id="DejaVuSans-54" d="M -19 4666 
L 3928 4666 
L 3928 4134 
L 2272 4134 
L 2272 0 
L 1638 0 
L 1638 4134 
L -19 4134 
L -19 4666 
z
" transform="scale(0.015625)"/>
     <path id="DejaVuSans-75" d="M 544 1381 
L 544 3500 
L 1119 3500 
L 1119 1403 
Q 1119 906 1312 657 
Q 1506 409 1894 409 
Q 2359 409 2629 706 
Q 2900 1003 2900 1516 
L 2900 3500 
L 3475 3500 
L 3475 0 
L 2900 0 
L 2900 538 
Q 2691 219 2414 64 
Q 2138 -91 1772 -91 
Q 1169 -91 856 284 
Q 544 659 544 1381 
z
M 1991 3584 
L 1991 3584 
z
" transform="scale(0.015625)"/>
    </defs>
    <use xlink:href="#DejaVuSans-41"/>
    <use xlink:href="#DejaVuSans-72" x="68.408203"/>
    <use xlink:href="#DejaVuSans-63" x="107.271484"/>
    <use xlink:href="#DejaVuSans-68" x="162.251953"/>
    <use xlink:href="#DejaVuSans-61" x="225.630859"/>
    <use xlink:href="#DejaVuSans-65" x="286.910156"/>
    <use xlink:href="#DejaVuSans-61" x="348.433594"/>
    <use xlink:href="#DejaVuSans-20" x="409.712891"/>
    <use xlink:href="#DejaVuSans-2d" x="441.5"/>
    <use xlink:href="#DejaVuSans-20" x="477.583984"/>
    <use xlink:href="#DejaVuSans-44" x="509.371094"/>
    <use xlink:href="#DejaVuSans-65" x="586.373047"/>
    <use xlink:href="#DejaVuSans-6e" x="647.896484"/>
    <use xlink:href="#DejaVuSans-73" x="711.275391"/>
    <use xlink:href="#DejaVuSans-69" x="763.375"/>
    <use xlink:href="#DejaVuSans-74" x="791.158203"/>
    <use xlink:href="#DejaVuSans-79" x="830.367188"/>
    <use xlink:href="#DejaVuSans-20" x="889.546875"/>
    <use xlink:href="#DejaVuSans-6f" x="921.333984"/>
    <use xlink:href="#DejaVuSans-66" x="982.515625"/>
    <use xlink:href="#DejaVuSans-20" x="1017.720703"/>
    <use xlink:href="#DejaVuSans-63" x="1049.507812"/>
    <use xlink:href="#DejaVuSans-6f" x="1104.488281"/>
    <use xlink:href="#DejaVuSans-72" x="1165.669922"/>
    <use xlink:href="#DejaVuSans-72" x="1205.033203"/>
    <use xlink:href="#DejaVuSans-65" x="1243.896484"/>
    <use xlink:href="#DejaVuSans-6c" x="1305.419922"/>
    <use xlink:href="#DejaVuSans-61" x="1333.203125"/>
    <use xlink:href="#DejaVuSans-74" x="1394.482422"/>
    <use xlink:href="#DejaVuSans-69" x="1433.691406"/>
    <use xlink:href="#DejaVuSans-6f" x="1461.474609"/>
    <use xlink:href="#DejaVuSans-6e" x="1522.65625"/>
    <use xlink:href="#DejaVuSans-20" x="1586.035156"/>
    <use xlink:href="#DejaVuSans-63" x="1617.822266"/>
    <use xlink:href="#DejaVuSans-6f" x="1672.802734"/>
    <use xlink:href="#DejaVuSans-65" x="1733.984375"/>
    <use xlink:href="#DejaVuSans-66" x="1795.507812"/>
    <use xlink:href="#DejaVuSans-66" x="1830.712891"/>
    <use xlink:href="#DejaVuSans-69" x="1865.917969"/>
    <use xlink:href="#DejaVuSans-63" x="1893.701172"/>
    <use xlink:href="#DejaVuSans-69" x="1948.681641"/>
    <use xlink:href="#DejaVuSans-65" x="1976.464844"/>
    <use xlink:href="#DejaVuSans-6e" x="2037.988281"/>
    <use xlink:href="#DejaVuSans-74" x="2101.367188"/>
    <use xlink:href="#DejaVuSans-73" x="2140.576172"/>
    <use xlink:href="#DejaVuSans-20" x="2192.675781"/>
    <use xlink:href="#DejaVuSans-66" x="2224.462891"/>
    <use xlink:href="#DejaVuSans-6f" x="2259.667969"/>
    <use xlink:href="#DejaVuSans-72" x="2320.849609"/>
    <use xlink:href="#DejaVuSans-20" x="2361.962891"/>
    <use xlink:href="#DejaVuSans-67" x="2393.75"/>
    <use xlink:href="#DejaVuSans-65" x="2457.226562"/>
    <use xlink:href="#DejaVuSans-6e" x="2518.75"/>
    <use xlink:href="#DejaVuSans-65" x="2582.128906"/>
    <use xlink:href="#DejaVuSans-74" x="2643.652344"/>
    <use xlink:href="#DejaVuSans-69" x="2682.861328"/>
    <use xlink:href="#DejaVuSans-63" x="2710.644531"/>
    <use xlink:href="#DejaVuSans-20" x="2765.625"/>
    <use xlink:href="#DejaVuSans-63" x="2797.412109"/>
    <use xlink:href="#DejaVuSans-6f" x="2852.392578"/>
    <use xlink:href="#DejaVuSans-64" x="2913.574219"/>
    <use xlink:href="#DejaVuSans-65" x="2977.050781"/>
    <use xlink:href="#DejaVuSans-3a" x="3038.574219"/>
    <use xlink:href="#DejaVuSans-20" x="3072.265625"/>
    <use xlink:href="#DejaVuSans-54" x="3104.052734"/>
    <use xlink:href="#DejaVuSans-68" x="3165.136719"/>
    <use xlink:href="#DejaVuSans-72" x="3228.515625"/>
    <use xlink:href="#DejaVuSans-61" x="3269.628906"/>
    <use xlink:href="#DejaVuSans-75" x="3330.908203"/>
    <use xlink:href="#DejaVuSans-73" x="3394.287109"/>
    <use xlink:href="#DejaVuSans-74" x="3446.386719"/>
    <use xlink:href="#DejaVuSans-6f" x="3485.595703"/>
    <use xlink:href="#DejaVuSans-63" x="3546.777344"/>
    <use xlink:href="#DejaVuSans-68" x="3601.757812"/>
    <use xlink:href="#DejaVuSans-79" x="3665.136719"/>
    <use xlink:href="#DejaVuSans-74" x="3724.316406"/>
    <use xlink:href="#DejaVuSans-72" x="3763.525391"/>
    <use xlink:href="#DejaVuSans-69" x="3804.638672"/>
    <use xlink:href="#DejaVuSans-75" x="3832.421875"/>
    <use xlink:href="#DejaVuSans-6d" x="3895.800781"/>
    <use xlink:href="#DejaVuSans-20" x="3993.212891"/>
    <use xlink:href="#DejaVuSans-6d" x="4025"/>
    <use xlink:href="#DejaVuSans-69" x="4122.412109"/>
    <use xlink:href="#DejaVuSans-74" x="4150.195312"/>
    <use xlink:href="#DejaVuSans-6f" x="4189.404297"/>
    <use xlink:href="#DejaVuSans-63" x="4250.585938"/>
    <use xlink:href="#DejaVuSans-68" x="4305.566406"/>
    <use xlink:href="#DejaVuSans-6f" x="4368.945312"/>
    <use xlink:href="#DejaVuSans-6e" x="4430.126953"/>
    <use xlink:href="#DejaVuSans-64" x="4493.505859"/>
    <use xlink:href="#DejaVuSans-72" x="4556.982422"/>
    <use xlink:href="#DejaVuSans-69" x="4598.095703"/>
    <use xlink:href="#DejaVuSans-61" x="4625.878906"/>
    <use xlink:href="#DejaVuSans-6c" x="4687.158203"/>
   </g>
  </g>
 </g>
 <defs>
  <clipPath id="p9b408900bc">
   <rect x="34.240625" y="57.6" width="837" height="241.043478"/>
  </clipPath>
  <clipPath id="p48655cabb0">
   <rect x="34.240625" y="370.956522" width="837" height="241.043478"/>
  </clipPath>
 </defs>
</svg>
