<?xml version="1.0" encoding="utf-8" standalone="no"?>
<!DOCTYPE svg PUBLIC "-//W3C//DTD SVG 1.1//EN"
  "http://www.w3.org/Graphics/SVG/1.1/DTD/svg11.dtd">
<svg xmlns:xlink="http://www.w3.org/1999/xlink" width="572.4pt" height="490.429812pt" viewBox="0 0 572.4 490.429812" xmlns="http://www.w3.org/2000/svg" version="1.1">
 <metadata>
  <rdf:RDF xmlns:dc="http://purl.org/dc/elements/1.1/" xmlns:cc="http://creativecommons.org/ns#" xmlns:rdf="http://www.w3.org/1999/02/22-rdf-syntax-ns#">
   <cc:Work>
    <dc:type rdf:resource="http://purl.org/dc/dcmitype/StillImage"/>
    <dc:date>2024-08-01T13:58:10.636560</dc:date>
    <dc:format>image/svg+xml</dc:format>
    <dc:creator>
     <cc:Agent>
      <dc:title>Matplotlib v3.8.3, https://matplotlib.org/</dc:title>
     </cc:Agent>
    </dc:creator>
   </cc:Work>
  </rdf:RDF>
 </metadata>
 <defs>
  <style type="text/css">*{stroke-linejoin: round; stroke-linecap: butt}</style>
 </defs>
 <g id="figure_1">
  <g id="patch_1">
   <path d="M 0 490.429812 
L 572.4 490.429812 
L 572.4 -0 
L 0 -0 
z
" style="fill: #ffffff"/>
  </g>
  <g id="axes_1">
   <g id="patch_2">
    <path d="M 7.2 483.229812 
L 565.2 483.229812 
L 565.2 7.2 
L 7.2 7.2 
z
" style="fill: #ffffff"/>
   </g>
   <g id="patch_3">
    <path d="M 80.945049 252.715974 
Q 128.236677 334.627457 174.969288 415.570695 
" clip-path="url(#pd18e4972f7)" style="fill: none; stroke: #000000; stroke-linecap: round"/>
    <path d="M 174.701338 411.106594 
L 174.969288 415.570695 
L 171.237237 413.106594 
z
" clip-path="url(#pd18e4972f7)" style="stroke: #000000; stroke-linecap: round"/>
   </g>
   <g id="patch_4">
    <path d="M 84.11235 249.543931 
Q 231.479048 334.626134 377.8775 419.149321 
" clip-path="url(#pd18e4972f7)" style="fill: none; stroke: #000000; stroke-linecap: round"/>
    <path d="M 375.413398 415.41727 
L 377.8775 419.149321 
L 373.413398 418.881371 
z
" clip-path="url(#pd18e4972f7)" style="stroke: #000000; stroke-linecap: round"/>
   </g>
   <g id="patch_5">
    <path d="M 85.275769 245.214944 
Q 283.103978 245.214918 479.814153 245.214892 
" clip-path="url(#pd18e4972f7)" style="fill: none; stroke: #000000; stroke-linecap: round"/>
    <path d="M 475.814153 243.214893 
L 479.814153 245.214892 
L 475.814154 247.214893 
z
" clip-path="url(#pd18e4972f7)" style="stroke: #000000; stroke-linecap: round"/>
   </g>
   <g id="patch_6">
    <path d="M 84.112349 240.885958 
Q 231.479017 155.803719 377.87744 71.280499 
" clip-path="url(#pd18e4972f7)" style="fill: none; stroke: #000000; stroke-linecap: round"/>
    <path d="M 373.413338 71.548449 
L 377.87744 71.280499 
L 375.413339 75.01255 
z
" clip-path="url(#pd18e4972f7)" style="stroke: #000000; stroke-linecap: round"/>
   </g>
   <g id="patch_7">
    <path d="M 80.945046 237.713916 
Q 128.236643 155.802433 174.969223 74.859196 
" clip-path="url(#pd18e4972f7)" style="fill: none; stroke: #000000; stroke-linecap: round"/>
    <path d="M 171.237173 77.323298 
L 174.969223 74.859196 
L 174.701275 79.323297 
z
" clip-path="url(#pd18e4972f7)" style="stroke: #000000; stroke-linecap: round"/>
   </g>
   <g id="text_1">
    <g id="patch_8">
     <path d="M 111.904098 322.01673 
L 130.991602 355.077248 
Q 132.491602 357.675324 135.089678 356.175324 
L 143.471179 351.336261 
Q 146.069256 349.83626 144.569255 347.238184 
L 125.481752 314.177667 
Q 123.981752 311.57959 121.383676 313.079591 
L 113.002174 317.918654 
Q 110.404098 319.418654 111.904098 322.01673 
z
" clip-path="url(#pd18e4972f7)" style="fill: #ffffff; stroke: #ffffff; stroke-linejoin: miter"/>
    </g>
    <g clip-path="url(#pd18e4972f7)">
     <!-- 949811 -->
     <g transform="translate(116.303236 319.476886) rotate(-300.000006) scale(0.1 -0.1)">
      <defs>
       <path id="DejaVuSans-39" d="M 703 97 
L 703 672 
Q 941 559 1184 500 
Q 1428 441 1663 441 
Q 2288 441 2617 861 
Q 2947 1281 2994 2138 
Q 2813 1869 2534 1725 
Q 2256 1581 1919 1581 
Q 1219 1581 811 2004 
Q 403 2428 403 3163 
Q 403 3881 828 4315 
Q 1253 4750 1959 4750 
Q 2769 4750 3195 4129 
Q 3622 3509 3622 2328 
Q 3622 1225 3098 567 
Q 2575 -91 1691 -91 
Q 1453 -91 1209 -44 
Q 966 3 703 97 
z
M 1959 2075 
Q 2384 2075 2632 2365 
Q 2881 2656 2881 3163 
Q 2881 3666 2632 3958 
Q 2384 4250 1959 4250 
Q 1534 4250 1286 3958 
Q 1038 3666 1038 3163 
Q 1038 2656 1286 2365 
Q 1534 2075 1959 2075 
z
" transform="scale(0.015625)"/>
       <path id="DejaVuSans-34" d="M 2419 4116 
L 825 1625 
L 2419 1625 
L 2419 4116 
z
M 2253 4666 
L 3047 4666 
L 3047 1625 
L 3713 1625 
L 3713 1100 
L 3047 1100 
L 3047 0 
L 2419 0 
L 2419 1100 
L 313 1100 
L 313 1709 
L 2253 4666 
z
" transform="scale(0.015625)"/>
       <path id="DejaVuSans-38" d="M 2034 2216 
Q 1584 2216 1326 1975 
Q 1069 1734 1069 1313 
Q 1069 891 1326 650 
Q 1584 409 2034 409 
Q 2484 409 2743 651 
Q 3003 894 3003 1313 
Q 3003 1734 2745 1975 
Q 2488 2216 2034 2216 
z
M 1403 2484 
Q 997 2584 770 2862 
Q 544 3141 544 3541 
Q 544 4100 942 4425 
Q 1341 4750 2034 4750 
Q 2731 4750 3128 4425 
Q 3525 4100 3525 3541 
Q 3525 3141 3298 2862 
Q 3072 2584 2669 2484 
Q 3125 2378 3379 2068 
Q 3634 1759 3634 1313 
Q 3634 634 3220 271 
Q 2806 -91 2034 -91 
Q 1263 -91 848 271 
Q 434 634 434 1313 
Q 434 1759 690 2068 
Q 947 2378 1403 2484 
z
M 1172 3481 
Q 1172 3119 1398 2916 
Q 1625 2713 2034 2713 
Q 2441 2713 2670 2916 
Q 2900 3119 2900 3481 
Q 2900 3844 2670 4047 
Q 2441 4250 2034 4250 
Q 1625 4250 1398 4047 
Q 1172 3844 1172 3481 
z
" transform="scale(0.015625)"/>
       <path id="DejaVuSans-31" d="M 794 531 
L 1825 531 
L 1825 4091 
L 703 3866 
L 703 4441 
L 1819 4666 
L 2450 4666 
L 2450 531 
L 3481 531 
L 3481 0 
L 794 0 
L 794 531 
z
" transform="scale(0.015625)"/>
      </defs>
      <use xlink:href="#DejaVuSans-39"/>
      <use xlink:href="#DejaVuSans-34" x="63.623047"/>
      <use xlink:href="#DejaVuSans-39" x="127.246094"/>
      <use xlink:href="#DejaVuSans-38" x="190.869141"/>
      <use xlink:href="#DejaVuSans-31" x="254.492188"/>
      <use xlink:href="#DejaVuSans-31" x="318.115234"/>
     </g>
    </g>
   </g>
   <g id="text_2">
    <g id="patch_9">
     <path d="M 211.029257 331.871211 
L 244.089776 350.958712 
Q 246.687853 352.458712 248.187853 349.860635 
L 253.026915 341.479133 
Q 254.526915 338.881057 251.928839 337.381057 
L 218.868319 318.293557 
Q 216.270243 316.793557 214.770243 319.391633 
L 209.93118 327.773135 
Q 208.43118 330.371211 211.029257 331.871211 
z
" clip-path="url(#pd18e4972f7)" style="fill: #ffffff; stroke: #ffffff; stroke-linejoin: miter"/>
    </g>
    <g clip-path="url(#pd18e4972f7)">
     <!-- 348862 -->
     <g transform="translate(213.5691 327.472073) rotate(-330) scale(0.1 -0.1)">
      <defs>
       <path id="DejaVuSans-33" d="M 2597 2516 
Q 3050 2419 3304 2112 
Q 3559 1806 3559 1356 
Q 3559 666 3084 287 
Q 2609 -91 1734 -91 
Q 1441 -91 1130 -33 
Q 819 25 488 141 
L 488 750 
Q 750 597 1062 519 
Q 1375 441 1716 441 
Q 2309 441 2620 675 
Q 2931 909 2931 1356 
Q 2931 1769 2642 2001 
Q 2353 2234 1838 2234 
L 1294 2234 
L 1294 2753 
L 1863 2753 
Q 2328 2753 2575 2939 
Q 2822 3125 2822 3475 
Q 2822 3834 2567 4026 
Q 2313 4219 1838 4219 
Q 1578 4219 1281 4162 
Q 984 4106 628 3988 
L 628 4550 
Q 988 4650 1302 4700 
Q 1616 4750 1894 4750 
Q 2613 4750 3031 4423 
Q 3450 4097 3450 3541 
Q 3450 3153 3228 2886 
Q 3006 2619 2597 2516 
z
" transform="scale(0.015625)"/>
       <path id="DejaVuSans-36" d="M 2113 2584 
Q 1688 2584 1439 2293 
Q 1191 2003 1191 1497 
Q 1191 994 1439 701 
Q 1688 409 2113 409 
Q 2538 409 2786 701 
Q 3034 994 3034 1497 
Q 3034 2003 2786 2293 
Q 2538 2584 2113 2584 
z
M 3366 4563 
L 3366 3988 
Q 3128 4100 2886 4159 
Q 2644 4219 2406 4219 
Q 1781 4219 1451 3797 
Q 1122 3375 1075 2522 
Q 1259 2794 1537 2939 
Q 1816 3084 2150 3084 
Q 2853 3084 3261 2657 
Q 3669 2231 3669 1497 
Q 3669 778 3244 343 
Q 2819 -91 2113 -91 
Q 1303 -91 875 529 
Q 447 1150 447 2328 
Q 447 3434 972 4092 
Q 1497 4750 2381 4750 
Q 2619 4750 2861 4703 
Q 3103 4656 3366 4563 
z
" transform="scale(0.015625)"/>
       <path id="DejaVuSans-32" d="M 1228 531 
L 3431 531 
L 3431 0 
L 469 0 
L 469 531 
Q 828 903 1448 1529 
Q 2069 2156 2228 2338 
Q 2531 2678 2651 2914 
Q 2772 3150 2772 3378 
Q 2772 3750 2511 3984 
Q 2250 4219 1831 4219 
Q 1534 4219 1204 4116 
Q 875 4013 500 3803 
L 500 4441 
Q 881 4594 1212 4672 
Q 1544 4750 1819 4750 
Q 2544 4750 2975 4387 
Q 3406 4025 3406 3419 
Q 3406 3131 3298 2873 
Q 3191 2616 2906 2266 
Q 2828 2175 2409 1742 
Q 1991 1309 1228 531 
z
" transform="scale(0.015625)"/>
      </defs>
      <use xlink:href="#DejaVuSans-33"/>
      <use xlink:href="#DejaVuSans-34" x="63.623047"/>
      <use xlink:href="#DejaVuSans-38" x="127.246094"/>
      <use xlink:href="#DejaVuSans-38" x="190.869141"/>
      <use xlink:href="#DejaVuSans-36" x="254.492188"/>
      <use xlink:href="#DejaVuSans-32" x="318.115234"/>
     </g>
    </g>
   </g>
   <g id="text_3">
    <g id="patch_10">
     <path d="M 264.016479 253.053983 
L 302.191479 253.053978 
Q 305.191479 253.053978 305.191479 250.053978 
L 305.191478 240.375853 
Q 305.191477 237.375853 302.191477 237.375853 
L 264.016477 237.375858 
Q 261.016477 237.375858 261.016478 240.375858 
L 261.016479 250.053983 
Q 261.016479 253.053983 264.016479 253.053983 
z
" clip-path="url(#pd18e4972f7)" style="fill: #ffffff; stroke: #ffffff; stroke-linejoin: miter"/>
    </g>
    <g clip-path="url(#pd18e4972f7)">
     <!-- 341981 -->
     <g transform="translate(264.016479 247.974295) rotate(-0.000008) scale(0.1 -0.1)">
      <use xlink:href="#DejaVuSans-33"/>
      <use xlink:href="#DejaVuSans-34" x="63.623047"/>
      <use xlink:href="#DejaVuSans-31" x="127.246094"/>
      <use xlink:href="#DejaVuSans-39" x="190.869141"/>
      <use xlink:href="#DejaVuSans-38" x="254.492188"/>
      <use xlink:href="#DejaVuSans-31" x="318.115234"/>
     </g>
    </g>
   </g>
   <g id="text_4">
    <g id="patch_11">
     <path d="M 218.868293 172.1363 
L 251.928807 153.048791 
Q 254.526883 151.548791 253.026883 148.950715 
L 248.187818 140.569214 
Q 246.687817 137.971138 244.089741 139.471139 
L 211.029227 158.558648 
Q 208.431151 160.058648 209.931152 162.656724 
L 214.770216 171.038225 
Q 216.270217 173.636301 218.868293 172.1363 
z
" clip-path="url(#pd18e4972f7)" style="fill: #ffffff; stroke: #ffffff; stroke-linejoin: miter"/>
    </g>
    <g clip-path="url(#pd18e4972f7)">
     <!-- 272946 -->
     <g transform="translate(216.328448 167.737162) rotate(-30.000015) scale(0.1 -0.1)">
      <defs>
       <path id="DejaVuSans-37" d="M 525 4666 
L 3525 4666 
L 3525 4397 
L 1831 0 
L 1172 0 
L 2766 4134 
L 525 4134 
L 525 4666 
z
" transform="scale(0.015625)"/>
      </defs>
      <use xlink:href="#DejaVuSans-32"/>
      <use xlink:href="#DejaVuSans-37" x="63.623047"/>
      <use xlink:href="#DejaVuSans-32" x="127.246094"/>
      <use xlink:href="#DejaVuSans-39" x="190.869141"/>
      <use xlink:href="#DejaVuSans-34" x="254.492188"/>
      <use xlink:href="#DejaVuSans-36" x="318.115234"/>
     </g>
    </g>
   </g>
   <g id="text_5">
    <g id="patch_12">
     <path d="M 125.481724 176.252225 
L 144.569218 143.191702 
Q 146.069217 140.593625 143.471141 139.093626 
L 135.089638 134.254565 
Q 132.491561 132.754565 130.991562 135.352642 
L 111.904068 168.413165 
Q 110.404068 171.011241 113.002145 172.511241 
L 121.383648 177.350302 
Q 123.981724 178.850301 125.481724 176.252225 
z
" clip-path="url(#pd18e4972f7)" style="fill: #ffffff; stroke: #ffffff; stroke-linejoin: miter"/>
    </g>
    <g clip-path="url(#pd18e4972f7)">
     <!-- 262781 -->
     <g transform="translate(121.082585 173.712382) rotate(-60.00001) scale(0.1 -0.1)">
      <use xlink:href="#DejaVuSans-32"/>
      <use xlink:href="#DejaVuSans-36" x="63.623047"/>
      <use xlink:href="#DejaVuSans-32" x="127.246094"/>
      <use xlink:href="#DejaVuSans-37" x="190.869141"/>
      <use xlink:href="#DejaVuSans-38" x="254.492188"/>
      <use xlink:href="#DejaVuSans-31" x="318.115234"/>
     </g>
    </g>
   </g>
   <g id="patch_13">
    <path d="M 76.614327 217.683175 
C 70.029466 217.683175 63.658219 220.045558 58.665138 224.338523 
C 53.672058 228.631487 50.381097 234.576503 49.393786 241.086927 
C 48.406475 247.59735 49.78687 254.250782 53.28266 259.831091 
C 56.778451 265.4114 62.162827 269.556533 68.45162 271.508834 
L 76.614327 245.214945 
z
" style="fill: #0000ff"/>
   </g>
   <g id="patch_14">
    <path d="M 68.45162 271.508834 
C 72.23775 272.684205 76.233461 273.028064 80.164735 272.516831 
C 84.09601 272.005598 87.870879 270.651232 91.230471 268.546613 
C 94.590062 266.441994 97.455782 263.636357 99.631104 260.322108 
C 101.806426 257.007858 103.240462 253.262529 103.834867 249.342968 
C 104.429273 245.423407 104.170143 241.421308 103.075248 237.611127 
C 101.980353 233.800945 100.075307 230.271817 97.490754 227.265762 
C 94.906202 224.259708 91.702606 221.84705 88.099662 220.193245 
C 84.496717 218.53944 80.578713 217.683176 76.614337 217.683175 
L 76.614327 245.214945 
z
" style="fill: #ff0000"/>
   </g>
   <g id="matplotlib.axis_1">
    <g id="xtick_1"/>
    <g id="xtick_2"/>
    <g id="xtick_3"/>
    <g id="xtick_4"/>
    <g id="xtick_5"/>
    <g id="xtick_6"/>
    <g id="xtick_7"/>
    <g id="xtick_8"/>
    <g id="xtick_9"/>
   </g>
   <g id="matplotlib.axis_2">
    <g id="ytick_1"/>
    <g id="ytick_2"/>
    <g id="ytick_3"/>
    <g id="ytick_4"/>
    <g id="ytick_5"/>
    <g id="ytick_6"/>
    <g id="ytick_7"/>
   </g>
   <g id="PathCollection_1">
    <path d="M 76.614327 261.026333 
C 80.807556 261.026333 84.829606 259.360346 87.794667 256.395285 
C 90.759728 253.430224 92.425715 249.408174 92.425715 245.214945 
C 92.425715 241.021716 90.759728 236.999666 87.794667 234.034605 
C 84.829606 231.069544 80.807556 229.403557 76.614327 229.403557 
C 72.421098 229.403557 68.399048 231.069544 65.433987 234.034605 
C 62.468926 236.999666 60.802939 241.021716 60.802939 245.214945 
C 60.802939 249.408174 62.468926 253.430224 65.433987 256.395285 
C 68.399048 259.360346 72.421098 261.026333 76.614327 261.026333 
z
" clip-path="url(#pd18e4972f7)" style="fill: #87ceeb; stroke: #000000"/>
    <path d="M 179.858484 474.03903 
C 193.118639 474.03903 205.837478 468.770715 215.213823 459.394369 
C 224.590169 450.018024 229.858484 437.299185 229.858484 424.03903 
C 229.858484 410.778875 224.590169 398.060037 215.213823 388.683691 
C 205.837478 379.307346 193.118639 374.03903 179.858484 374.03903 
C 166.598329 374.03903 153.879491 379.307346 144.503145 388.683691 
C 135.1268 398.060037 129.858484 410.778875 129.858484 424.03903 
C 129.858484 437.299185 135.1268 450.018024 144.503145 459.394369 
C 153.879491 468.770715 166.598329 474.03903 179.858484 474.03903 
z
" clip-path="url(#pd18e4972f7)" style="fill: #90ee90; stroke: #000000"/>
    <path d="M 386.346725 447.102256 
C 392.463164 447.102256 398.329913 444.672169 402.654888 440.347193 
C 406.979864 436.022218 409.409951 430.155469 409.409951 424.03903 
C 409.409951 417.922591 406.979864 412.055843 402.654888 407.730867 
C 398.329913 403.405892 392.463164 400.975805 386.346725 400.975805 
C 380.230286 400.975805 374.363538 403.405892 370.038562 407.730867 
C 365.713587 412.055843 363.2835 417.922591 363.2835 424.03903 
C 363.2835 430.155469 365.713587 436.022218 370.038562 440.347193 
C 374.363538 444.672169 380.230286 447.102256 386.346725 447.102256 
z
" clip-path="url(#pd18e4972f7)" style="fill: #90ee90; stroke: #000000"/>
    <path d="M 489.590883 267.78428 
C 495.576355 267.78428 501.317483 265.406227 505.549851 261.173859 
C 509.782218 256.941491 512.160272 251.200363 512.160272 245.214891 
C 512.160272 239.229419 509.782218 233.488291 505.549851 229.255923 
C 501.317483 225.023555 495.576355 222.645502 489.590883 222.645502 
C 483.605411 222.645502 477.864282 225.023555 473.631915 229.255923 
C 469.399547 233.488291 467.021494 239.229419 467.021494 245.214891 
C 467.021494 251.200363 469.399547 256.941491 473.631915 261.173859 
C 477.864282 265.406227 483.605411 267.78428 489.590883 267.78428 
z
" clip-path="url(#pd18e4972f7)" style="fill: #90ee90; stroke: #000000"/>
    <path d="M 386.346664 83.222009 
C 390.810356 83.222009 395.091828 81.448565 398.248135 78.292258 
C 401.404442 75.135951 403.177886 70.854479 403.177886 66.390787 
C 403.177886 61.927095 401.404442 57.645623 398.248135 54.489316 
C 395.091828 51.333009 390.810356 49.559565 386.346664 49.559565 
C 381.882972 49.559565 377.6015 51.333009 374.445193 54.489316 
C 371.288886 57.645623 369.515442 61.927095 369.515442 66.390787 
C 369.515442 70.854479 371.288886 75.135951 374.445193 78.292258 
C 377.6015 81.448565 381.882972 83.222009 386.346664 83.222009 
z
" clip-path="url(#pd18e4972f7)" style="fill: #90ee90; stroke: #000000"/>
    <path d="M 179.858417 82.202249 
C 184.051646 82.202249 188.073696 80.536261 191.038757 77.5712 
C 194.003817 74.60614 195.669805 70.58409 195.669805 66.390861 
C 195.669805 62.197631 194.003817 58.175582 191.038757 55.210521 
C 188.073696 52.24546 184.051646 50.579472 179.858417 50.579472 
C 175.665187 50.579472 171.643138 52.24546 168.678077 55.210521 
C 165.713016 58.175582 164.047028 62.197631 164.047028 66.390861 
C 164.047028 70.58409 165.713016 74.60614 168.678077 77.5712 
C 171.643138 80.536261 175.665187 82.202249 179.858417 82.202249 
z
" clip-path="url(#pd18e4972f7)" style="fill: #90ee90; stroke: #000000"/>
   </g>
   <g id="patch_15">
    <path d="M 7.2 483.229812 
L 7.2 7.2 
" style="fill: none; stroke: #000000; stroke-width: 0.8; stroke-linejoin: miter; stroke-linecap: square"/>
   </g>
   <g id="patch_16">
    <path d="M 565.2 483.229812 
L 565.2 7.2 
" style="fill: none; stroke: #000000; stroke-width: 0.8; stroke-linejoin: miter; stroke-linecap: square"/>
   </g>
   <g id="patch_17">
    <path d="M 7.2 483.229812 
L 565.2 483.229812 
" style="fill: none; stroke: #000000; stroke-width: 0.8; stroke-linejoin: miter; stroke-linecap: square"/>
   </g>
   <g id="patch_18">
    <path d="M 7.2 7.2 
L 565.2 7.2 
" style="fill: none; stroke: #000000; stroke-width: 0.8; stroke-linejoin: miter; stroke-linecap: square"/>
   </g>
   <g id="text_6">
    <g clip-path="url(#pd18e4972f7)">
     <!-- $\mathbf{R}$ -->
     <g transform="translate(71.934327 248.526195) scale(0.12 -0.12)">
      <defs>
       <path id="DejaVuSans-Bold-52" d="M 2297 2597 
Q 2675 2597 2839 2737 
Q 3003 2878 3003 3200 
Q 3003 3519 2839 3656 
Q 2675 3794 2297 3794 
L 1791 3794 
L 1791 2597 
L 2297 2597 
z
M 1791 1766 
L 1791 0 
L 588 0 
L 588 4666 
L 2425 4666 
Q 3347 4666 3776 4356 
Q 4206 4047 4206 3378 
Q 4206 2916 3982 2619 
Q 3759 2322 3309 2181 
Q 3556 2125 3751 1926 
Q 3947 1728 4147 1325 
L 4800 0 
L 3519 0 
L 2950 1159 
Q 2778 1509 2601 1637 
Q 2425 1766 2131 1766 
L 1791 1766 
z
" transform="scale(0.015625)"/>
      </defs>
      <use xlink:href="#DejaVuSans-Bold-52" transform="translate(0 0.09375)"/>
     </g>
    </g>
   </g>
   <g id="text_7">
    <g clip-path="url(#pd18e4972f7)">
     <!-- NCC -->
     <g transform="translate(166.990359 427.35028) scale(0.12 -0.12)">
      <defs>
       <path id="DejaVuSans-4e" d="M 628 4666 
L 1478 4666 
L 3547 763 
L 3547 4666 
L 4159 4666 
L 4159 0 
L 3309 0 
L 1241 3903 
L 1241 0 
L 628 0 
L 628 4666 
z
" transform="scale(0.015625)"/>
       <path id="DejaVuSans-43" d="M 4122 4306 
L 4122 3641 
Q 3803 3938 3442 4084 
Q 3081 4231 2675 4231 
Q 1875 4231 1450 3742 
Q 1025 3253 1025 2328 
Q 1025 1406 1450 917 
Q 1875 428 2675 428 
Q 3081 428 3442 575 
Q 3803 722 4122 1019 
L 4122 359 
Q 3791 134 3420 21 
Q 3050 -91 2638 -91 
Q 1578 -91 968 557 
Q 359 1206 359 2328 
Q 359 3453 968 4101 
Q 1578 4750 2638 4750 
Q 3056 4750 3426 4639 
Q 3797 4528 4122 4306 
z
" transform="scale(0.015625)"/>
      </defs>
      <use xlink:href="#DejaVuSans-4e"/>
      <use xlink:href="#DejaVuSans-43" x="74.804688"/>
      <use xlink:href="#DejaVuSans-43" x="144.628906"/>
     </g>
    </g>
   </g>
   <g id="text_8">
    <g clip-path="url(#pd18e4972f7)">
     <!-- CGC -->
     <g transform="translate(373.318288 427.35028) scale(0.12 -0.12)">
      <defs>
       <path id="DejaVuSans-47" d="M 3809 666 
L 3809 1919 
L 2778 1919 
L 2778 2438 
L 4434 2438 
L 4434 434 
Q 4069 175 3628 42 
Q 3188 -91 2688 -91 
Q 1594 -91 976 548 
Q 359 1188 359 2328 
Q 359 3472 976 4111 
Q 1594 4750 2688 4750 
Q 3144 4750 3555 4637 
Q 3966 4525 4313 4306 
L 4313 3634 
Q 3963 3931 3569 4081 
Q 3175 4231 2741 4231 
Q 1884 4231 1454 3753 
Q 1025 3275 1025 2328 
Q 1025 1384 1454 906 
Q 1884 428 2741 428 
Q 3075 428 3337 486 
Q 3600 544 3809 666 
z
" transform="scale(0.015625)"/>
      </defs>
      <use xlink:href="#DejaVuSans-43"/>
      <use xlink:href="#DejaVuSans-47" x="69.824219"/>
      <use xlink:href="#DejaVuSans-43" x="147.314453"/>
     </g>
    </g>
   </g>
   <g id="text_9">
    <g clip-path="url(#pd18e4972f7)">
     <!-- CGT -->
     <g transform="translate(477.304945 248.526141) scale(0.12 -0.12)">
      <defs>
       <path id="DejaVuSans-54" d="M -19 4666 
L 3928 4666 
L 3928 4134 
L 2272 4134 
L 2272 0 
L 1638 0 
L 1638 4134 
L -19 4134 
L -19 4666 
z
" transform="scale(0.015625)"/>
      </defs>
      <use xlink:href="#DejaVuSans-43"/>
      <use xlink:href="#DejaVuSans-47" x="69.824219"/>
      <use xlink:href="#DejaVuSans-54" x="143.689453"/>
     </g>
    </g>
   </g>
   <g id="text_10">
    <g clip-path="url(#pd18e4972f7)">
     <!-- CGA -->
     <g transform="translate(373.403539 69.702037) scale(0.12 -0.12)">
      <defs>
       <path id="DejaVuSans-41" d="M 2188 4044 
L 1331 1722 
L 3047 1722 
L 2188 4044 
z
M 1831 4666 
L 2547 4666 
L 4325 0 
L 3669 0 
L 3244 1197 
L 1141 1197 
L 716 0 
L 50 0 
L 1831 4666 
z
" transform="scale(0.015625)"/>
      </defs>
      <use xlink:href="#DejaVuSans-43"/>
      <use xlink:href="#DejaVuSans-47" x="69.824219"/>
      <use xlink:href="#DejaVuSans-41" x="147.314453"/>
     </g>
    </g>
   </g>
   <g id="text_11">
    <g clip-path="url(#pd18e4972f7)">
     <!-- CGG -->
     <g transform="translate(166.370604 69.702111) scale(0.12 -0.12)">
      <use xlink:href="#DejaVuSans-43"/>
      <use xlink:href="#DejaVuSans-47" x="69.824219"/>
      <use xlink:href="#DejaVuSans-47" x="147.314453"/>
     </g>
    </g>
   </g>
   <g id="legend_1">
    <g id="patch_19">
     <path d="M 14.2 44.55625 
L 116.278125 44.55625 
Q 118.278125 44.55625 118.278125 42.55625 
L 118.278125 14.2 
Q 118.278125 12.2 116.278125 12.2 
L 14.2 12.2 
Q 12.2 12.2 12.2 14.2 
L 12.2 42.55625 
Q 12.2 44.55625 14.2 44.55625 
z
" style="fill: #ffffff; opacity: 0.8; stroke: #cccccc; stroke-linejoin: miter"/>
    </g>
    <g id="patch_20">
     <path d="M 16.2 23.798437 
L 36.2 23.798437 
L 36.2 16.798437 
L 16.2 16.798437 
z
" style="fill: #0000ff"/>
    </g>
    <g id="text_12">
     <!-- Genomic data -->
     <g transform="translate(44.2 23.798437) scale(0.1 -0.1)">
      <defs>
       <path id="DejaVuSans-65" d="M 3597 1894 
L 3597 1613 
L 953 1613 
Q 991 1019 1311 708 
Q 1631 397 2203 397 
Q 2534 397 2845 478 
Q 3156 559 3463 722 
L 3463 178 
Q 3153 47 2828 -22 
Q 2503 -91 2169 -91 
Q 1331 -91 842 396 
Q 353 884 353 1716 
Q 353 2575 817 3079 
Q 1281 3584 2069 3584 
Q 2775 3584 3186 3129 
Q 3597 2675 3597 1894 
z
M 3022 2063 
Q 3016 2534 2758 2815 
Q 2500 3097 2075 3097 
Q 1594 3097 1305 2825 
Q 1016 2553 972 2059 
L 3022 2063 
z
" transform="scale(0.015625)"/>
       <path id="DejaVuSans-6e" d="M 3513 2113 
L 3513 0 
L 2938 0 
L 2938 2094 
Q 2938 2591 2744 2837 
Q 2550 3084 2163 3084 
Q 1697 3084 1428 2787 
Q 1159 2491 1159 1978 
L 1159 0 
L 581 0 
L 581 3500 
L 1159 3500 
L 1159 2956 
Q 1366 3272 1645 3428 
Q 1925 3584 2291 3584 
Q 2894 3584 3203 3211 
Q 3513 2838 3513 2113 
z
" transform="scale(0.015625)"/>
       <path id="DejaVuSans-6f" d="M 1959 3097 
Q 1497 3097 1228 2736 
Q 959 2375 959 1747 
Q 959 1119 1226 758 
Q 1494 397 1959 397 
Q 2419 397 2687 759 
Q 2956 1122 2956 1747 
Q 2956 2369 2687 2733 
Q 2419 3097 1959 3097 
z
M 1959 3584 
Q 2709 3584 3137 3096 
Q 3566 2609 3566 1747 
Q 3566 888 3137 398 
Q 2709 -91 1959 -91 
Q 1206 -91 779 398 
Q 353 888 353 1747 
Q 353 2609 779 3096 
Q 1206 3584 1959 3584 
z
" transform="scale(0.015625)"/>
       <path id="DejaVuSans-6d" d="M 3328 2828 
Q 3544 3216 3844 3400 
Q 4144 3584 4550 3584 
Q 5097 3584 5394 3201 
Q 5691 2819 5691 2113 
L 5691 0 
L 5113 0 
L 5113 2094 
Q 5113 2597 4934 2840 
Q 4756 3084 4391 3084 
Q 3944 3084 3684 2787 
Q 3425 2491 3425 1978 
L 3425 0 
L 2847 0 
L 2847 2094 
Q 2847 2600 2669 2842 
Q 2491 3084 2119 3084 
Q 1678 3084 1418 2786 
Q 1159 2488 1159 1978 
L 1159 0 
L 581 0 
L 581 3500 
L 1159 3500 
L 1159 2956 
Q 1356 3278 1631 3431 
Q 1906 3584 2284 3584 
Q 2666 3584 2933 3390 
Q 3200 3197 3328 2828 
z
" transform="scale(0.015625)"/>
       <path id="DejaVuSans-69" d="M 603 3500 
L 1178 3500 
L 1178 0 
L 603 0 
L 603 3500 
z
M 603 4863 
L 1178 4863 
L 1178 4134 
L 603 4134 
L 603 4863 
z
" transform="scale(0.015625)"/>
       <path id="DejaVuSans-63" d="M 3122 3366 
L 3122 2828 
Q 2878 2963 2633 3030 
Q 2388 3097 2138 3097 
Q 1578 3097 1268 2742 
Q 959 2388 959 1747 
Q 959 1106 1268 751 
Q 1578 397 2138 397 
Q 2388 397 2633 464 
Q 2878 531 3122 666 
L 3122 134 
Q 2881 22 2623 -34 
Q 2366 -91 2075 -91 
Q 1284 -91 818 406 
Q 353 903 353 1747 
Q 353 2603 823 3093 
Q 1294 3584 2113 3584 
Q 2378 3584 2631 3529 
Q 2884 3475 3122 3366 
z
" transform="scale(0.015625)"/>
       <path id="DejaVuSans-20" transform="scale(0.015625)"/>
       <path id="DejaVuSans-64" d="M 2906 2969 
L 2906 4863 
L 3481 4863 
L 3481 0 
L 2906 0 
L 2906 525 
Q 2725 213 2448 61 
Q 2172 -91 1784 -91 
Q 1150 -91 751 415 
Q 353 922 353 1747 
Q 353 2572 751 3078 
Q 1150 3584 1784 3584 
Q 2172 3584 2448 3432 
Q 2725 3281 2906 2969 
z
M 947 1747 
Q 947 1113 1208 752 
Q 1469 391 1925 391 
Q 2381 391 2643 752 
Q 2906 1113 2906 1747 
Q 2906 2381 2643 2742 
Q 2381 3103 1925 3103 
Q 1469 3103 1208 2742 
Q 947 2381 947 1747 
z
" transform="scale(0.015625)"/>
       <path id="DejaVuSans-61" d="M 2194 1759 
Q 1497 1759 1228 1600 
Q 959 1441 959 1056 
Q 959 750 1161 570 
Q 1363 391 1709 391 
Q 2188 391 2477 730 
Q 2766 1069 2766 1631 
L 2766 1759 
L 2194 1759 
z
M 3341 1997 
L 3341 0 
L 2766 0 
L 2766 531 
Q 2569 213 2275 61 
Q 1981 -91 1556 -91 
Q 1019 -91 701 211 
Q 384 513 384 1019 
Q 384 1609 779 1909 
Q 1175 2209 1959 2209 
L 2766 2209 
L 2766 2266 
Q 2766 2663 2505 2880 
Q 2244 3097 1772 3097 
Q 1472 3097 1187 3025 
Q 903 2953 641 2809 
L 641 3341 
Q 956 3463 1253 3523 
Q 1550 3584 1831 3584 
Q 2591 3584 2966 3190 
Q 3341 2797 3341 1997 
z
" transform="scale(0.015625)"/>
       <path id="DejaVuSans-74" d="M 1172 4494 
L 1172 3500 
L 2356 3500 
L 2356 3053 
L 1172 3053 
L 1172 1153 
Q 1172 725 1289 603 
Q 1406 481 1766 481 
L 2356 481 
L 2356 0 
L 1766 0 
Q 1100 0 847 248 
Q 594 497 594 1153 
L 594 3053 
L 172 3053 
L 172 3500 
L 594 3500 
L 594 4494 
L 1172 4494 
z
" transform="scale(0.015625)"/>
      </defs>
      <use xlink:href="#DejaVuSans-47"/>
      <use xlink:href="#DejaVuSans-65" x="77.490234"/>
      <use xlink:href="#DejaVuSans-6e" x="139.013672"/>
      <use xlink:href="#DejaVuSans-6f" x="202.392578"/>
      <use xlink:href="#DejaVuSans-6d" x="263.574219"/>
      <use xlink:href="#DejaVuSans-69" x="360.986328"/>
      <use xlink:href="#DejaVuSans-63" x="388.769531"/>
      <use xlink:href="#DejaVuSans-20" x="443.75"/>
      <use xlink:href="#DejaVuSans-64" x="475.537109"/>
      <use xlink:href="#DejaVuSans-61" x="539.013672"/>
      <use xlink:href="#DejaVuSans-74" x="600.292969"/>
      <use xlink:href="#DejaVuSans-61" x="639.501953"/>
     </g>
    </g>
    <g id="patch_21">
     <path d="M 16.2 38.476562 
L 36.2 38.476562 
L 36.2 31.476562 
L 16.2 31.476562 
z
" style="fill: #ff0000"/>
    </g>
    <g id="text_13">
     <!-- Genetic code -->
     <g transform="translate(44.2 38.476562) scale(0.1 -0.1)">
      <use xlink:href="#DejaVuSans-47"/>
      <use xlink:href="#DejaVuSans-65" x="77.490234"/>
      <use xlink:href="#DejaVuSans-6e" x="139.013672"/>
      <use xlink:href="#DejaVuSans-65" x="202.392578"/>
      <use xlink:href="#DejaVuSans-74" x="263.916016"/>
      <use xlink:href="#DejaVuSans-69" x="303.125"/>
      <use xlink:href="#DejaVuSans-63" x="330.908203"/>
      <use xlink:href="#DejaVuSans-20" x="385.888672"/>
      <use xlink:href="#DejaVuSans-63" x="417.675781"/>
      <use xlink:href="#DejaVuSans-6f" x="472.65625"/>
      <use xlink:href="#DejaVuSans-64" x="533.837891"/>
      <use xlink:href="#DejaVuSans-65" x="597.314453"/>
     </g>
    </g>
   </g>
  </g>
 </g>
 <defs>
  <clipPath id="pd18e4972f7">
   <rect x="7.2" y="7.2" width="558" height="476.029812"/>
  </clipPath>
 </defs>
</svg>
