<?xml version="1.0" encoding="utf-8" standalone="no"?>
<!DOCTYPE svg PUBLIC "-//W3C//DTD SVG 1.1//EN"
  "http://www.w3.org/Graphics/SVG/1.1/DTD/svg11.dtd">
<svg xmlns:xlink="http://www.w3.org/1999/xlink" width="887.98125pt" height="635.878125pt" viewBox="0 0 887.98125 635.878125" xmlns="http://www.w3.org/2000/svg" version="1.1">
 <metadata>
  <rdf:RDF xmlns:dc="http://purl.org/dc/elements/1.1/" xmlns:cc="http://creativecommons.org/ns#" xmlns:rdf="http://www.w3.org/1999/02/22-rdf-syntax-ns#">
   <cc:Work>
    <dc:type rdf:resource="http://purl.org/dc/dcmitype/StillImage"/>
    <dc:date>2024-09-24T16:25:18.152226</dc:date>
    <dc:format>image/svg+xml</dc:format>
    <dc:creator>
     <cc:Agent>
      <dc:title>Matplotlib v3.8.3, https://matplotlib.org/</dc:title>
     </cc:Agent>
    </dc:creator>
   </cc:Work>
  </rdf:RDF>
 </metadata>
 <defs>
  <style type="text/css">*{stroke-linejoin: round; stroke-linecap: butt}</style>
 </defs>
 <g id="figure_1">
  <g id="patch_1">
   <path d="M 0 635.878125 
L 887.98125 635.878125 
L 887.98125 0 
L 0 0 
z
" style="fill: #ffffff"/>
  </g>
  <g id="axes_1">
   <g id="patch_2">
    <path d="M 43.78125 298.643478 
L 880.78125 298.643478 
L 880.78125 57.6 
L 43.78125 57.6 
z
" style="fill: #ffffff"/>
   </g>
   <g id="PolyCollection_1">
    <defs>
     <path id="m8c97df7a2b" d="M 148.044559 -337.326899 
L 148.044559 -337.234647 
L 151.633096 -337.234647 
L 155.221634 -337.234647 
L 158.810172 -337.234647 
L 162.39871 -337.234647 
L 165.987248 -337.234647 
L 169.575785 -337.234647 
L 173.164323 -337.234647 
L 176.752861 -337.234647 
L 180.341399 -337.234647 
L 183.929937 -337.234647 
L 187.518474 -337.234647 
L 191.107012 -337.234647 
L 194.69555 -337.234647 
L 198.284088 -337.234647 
L 201.872626 -337.234647 
L 205.461163 -337.234647 
L 209.049701 -337.234647 
L 212.638239 -337.234647 
L 216.226777 -337.234647 
L 219.815315 -337.234647 
L 223.403852 -337.234647 
L 226.99239 -337.234647 
L 230.580928 -337.234647 
L 234.169466 -337.234647 
L 237.758004 -337.234647 
L 241.346541 -337.234647 
L 244.935079 -337.234647 
L 248.523617 -337.234647 
L 252.112155 -337.234647 
L 255.700693 -337.234647 
L 259.28923 -337.234647 
L 262.877768 -337.234647 
L 266.466306 -337.234647 
L 270.054844 -337.234647 
L 273.643382 -337.234647 
L 277.231919 -337.234647 
L 280.820457 -337.234647 
L 284.408995 -337.234647 
L 287.997533 -337.234647 
L 291.586071 -337.234647 
L 295.174608 -337.234647 
L 298.763146 -337.234647 
L 302.351684 -337.234647 
L 305.940222 -337.234647 
L 309.52876 -337.234647 
L 313.117297 -337.234647 
L 316.705835 -337.234647 
L 320.294373 -337.234647 
L 323.882911 -337.234647 
L 327.471449 -337.234647 
L 331.059986 -337.234647 
L 334.648524 -337.234647 
L 338.237062 -337.234647 
L 341.8256 -337.234647 
L 345.414138 -337.234647 
L 349.002676 -337.234647 
L 352.591213 -337.234647 
L 356.179751 -337.234647 
L 359.768289 -337.234647 
L 363.356827 -337.234647 
L 366.945365 -337.234647 
L 370.533902 -337.234647 
L 374.12244 -337.234647 
L 377.710978 -337.234647 
L 381.299516 -337.234647 
L 384.888054 -337.234647 
L 388.476591 -337.234647 
L 392.065129 -337.234647 
L 395.653667 -337.234647 
L 399.242205 -337.234647 
L 402.830743 -337.234647 
L 406.41928 -337.234647 
L 410.007818 -337.234647 
L 413.596356 -337.234647 
L 417.184894 -337.234647 
L 420.773432 -337.234647 
L 424.361969 -337.234647 
L 427.950507 -337.234647 
L 431.539045 -337.234647 
L 435.127583 -337.234647 
L 438.716121 -337.234647 
L 442.304658 -337.234647 
L 445.893196 -337.234647 
L 449.481734 -337.234647 
L 453.070272 -337.234647 
L 456.65881 -337.234647 
L 460.247347 -337.234647 
L 463.835885 -337.234647 
L 467.424423 -337.234647 
L 471.012961 -337.234647 
L 474.601499 -337.234647 
L 478.190036 -337.234647 
L 481.778574 -337.234647 
L 485.367112 -337.234647 
L 488.95565 -337.234647 
L 492.544188 -337.234647 
L 496.132725 -337.234647 
L 499.721263 -337.234647 
L 503.309801 -337.234647 
L 506.898339 -337.234647 
L 510.486877 -337.234647 
L 514.075414 -337.234647 
L 517.663952 -337.234647 
L 521.25249 -337.234647 
L 524.841028 -337.234647 
L 528.429566 -337.234647 
L 532.018103 -337.234647 
L 535.606641 -337.234647 
L 539.195179 -337.234647 
L 542.783717 -337.234647 
L 546.372255 -337.234647 
L 549.960792 -337.234647 
L 553.54933 -337.234647 
L 557.137868 -337.234647 
L 560.726406 -337.234647 
L 564.314944 -337.234647 
L 567.903481 -337.234647 
L 571.492019 -337.234647 
L 575.080557 -337.234647 
L 578.669095 -337.234647 
L 582.257633 -337.234647 
L 585.84617 -337.234647 
L 589.434708 -337.234647 
L 593.023246 -337.234647 
L 596.611784 -337.234647 
L 600.200322 -337.234647 
L 603.788859 -337.234647 
L 607.377397 -337.234647 
L 610.965935 -337.234647 
L 614.554473 -337.234647 
L 618.143011 -337.234647 
L 621.731548 -337.234647 
L 625.320086 -337.234647 
L 628.908624 -337.234647 
L 632.497162 -337.234647 
L 636.0857 -337.234647 
L 639.674237 -337.234647 
L 643.262775 -337.234647 
L 646.851313 -337.234647 
L 650.439851 -337.234647 
L 654.028389 -337.234647 
L 657.616926 -337.234647 
L 661.205464 -337.234647 
L 664.794002 -337.234647 
L 668.38254 -337.234647 
L 671.971078 -337.234647 
L 675.559615 -337.234647 
L 679.148153 -337.234647 
L 682.736691 -337.234647 
L 686.325229 -337.234647 
L 689.913767 -337.234647 
L 693.502304 -337.234647 
L 697.090842 -337.234647 
L 700.67938 -337.234647 
L 704.267918 -337.234647 
L 707.856456 -337.234647 
L 711.444993 -337.234647 
L 715.033531 -337.234647 
L 718.622069 -337.234647 
L 722.210607 -337.234647 
L 725.799145 -337.234647 
L 729.387682 -337.234647 
L 732.97622 -337.234647 
L 736.564758 -337.234647 
L 740.153296 -337.234647 
L 743.741834 -337.234647 
L 747.330371 -337.234647 
L 750.918909 -337.234647 
L 754.507447 -337.234647 
L 758.095985 -337.234647 
L 761.684523 -337.234647 
L 765.27306 -337.234647 
L 768.861598 -337.234647 
L 772.450136 -337.234647 
L 776.038674 -337.234647 
L 779.627212 -337.234647 
L 783.215749 -337.234647 
L 786.804287 -337.234647 
L 790.392825 -337.234647 
L 793.981363 -337.234647 
L 797.569901 -337.234647 
L 801.158438 -337.234647 
L 804.746976 -337.234647 
L 808.335514 -337.234647 
L 811.924052 -337.234647 
L 815.51259 -337.234647 
L 819.101127 -337.234647 
L 822.689665 -337.234647 
L 826.278203 -337.234647 
L 829.866741 -337.234647 
L 833.455279 -337.234647 
L 837.043816 -337.234647 
L 840.632354 -337.234647 
L 844.220892 -337.234647 
L 847.80943 -337.234647 
L 851.397968 -337.234647 
L 854.986505 -337.234647 
L 858.575043 -337.234647 
L 862.163581 -337.234647 
L 862.163581 -337.310734 
L 862.163581 -337.310734 
L 858.575043 -337.33392 
L 854.986505 -337.36313 
L 851.397968 -337.399594 
L 847.80943 -337.444701 
L 844.220892 -337.499992 
L 840.632354 -337.567141 
L 837.043816 -337.647935 
L 833.455279 -337.744236 
L 829.866741 -337.857936 
L 826.278203 -337.990899 
L 822.689665 -338.144888 
L 819.101127 -338.321488 
L 815.51259 -338.522019 
L 811.924052 -338.747447 
L 808.335514 -338.998293 
L 804.746976 -339.274551 
L 801.158438 -339.575619 
L 797.569901 -339.90025 
L 793.981363 -340.246525 
L 790.392825 -340.611863 
L 786.804287 -340.993063 
L 783.215749 -341.386395 
L 779.627212 -341.787724 
L 776.038674 -342.192682 
L 772.450136 -342.596879 
L 768.861598 -342.996145 
L 765.27306 -343.386792 
L 761.684523 -343.765898 
L 758.095985 -344.131586 
L 754.507447 -344.48328 
L 750.918909 -344.821947 
L 747.330371 -345.150279 
L 743.741834 -345.472828 
L 740.153296 -345.796064 
L 736.564758 -346.128363 
L 732.97622 -346.47991 
L 729.387682 -346.862529 
L 725.799145 -347.289431 
L 722.210607 -347.774906 
L 718.622069 -348.333968 
L 715.033531 -348.981965 
L 711.444993 -349.734188 
L 707.856456 -350.605488 
L 704.267918 -351.609942 
L 700.67938 -352.760565 
L 697.090842 -354.06912 
L 693.502304 -355.546 
L 689.913767 -357.200231 
L 686.325229 -359.039565 
L 682.736691 -361.070678 
L 679.148153 -363.299449 
L 675.559615 -365.731296 
L 671.971078 -368.371554 
L 668.38254 -371.225843 
L 664.794002 -374.300406 
L 661.205464 -377.602362 
L 657.616926 -381.139852 
L 654.028389 -384.922029 
L 650.439851 -388.958885 
L 646.851313 -393.260885 
L 643.262775 -397.838405 
L 639.674237 -402.700993 
L 636.0857 -407.856472 
L 632.497162 -413.309918 
L 628.908624 -419.062574 
L 625.320086 -425.110756 
L 621.731548 -431.444817 
L 618.143011 -438.048241 
L 614.554473 -444.896945 
L 610.965935 -451.958835 
L 607.377397 -459.193678 
L 603.788859 -466.55333 
L 600.200322 -473.982317 
L 596.611784 -481.418791 
L 593.023246 -488.795808 
L 589.434708 -496.042906 
L 585.84617 -503.087901 
L 582.257633 -509.858828 
L 578.669095 -516.285942 
L 575.080557 -522.303676 
L 571.492019 -527.852469 
L 567.903481 -532.880383 
L 564.314944 -537.344426 
L 560.726406 -541.211537 
L 557.137868 -544.459183 
L 553.54933 -547.075561 
L 549.960792 -549.059409 
L 546.372255 -550.419446 
L 542.783717 -551.173492 
L 539.195179 -551.347311 
L 535.606641 -550.973267 
L 532.018103 -550.088841 
L 528.429566 -548.735103 
L 524.841028 -546.955199 
L 521.25249 -544.792934 
L 517.663952 -542.291488 
L 514.075414 -539.49233 
L 510.486877 -536.434351 
L 506.898339 -533.153236 
L 503.309801 -529.681082 
L 499.721263 -526.04625 
L 496.132725 -522.273427 
L 492.544188 -518.383876 
L 488.95565 -514.395817 
L 485.367112 -510.324918 
L 481.778574 -506.184822 
L 478.190036 -501.98769 
L 474.601499 -497.7447 
L 471.012961 -493.466482 
L 467.424423 -489.163447 
L 463.835885 -484.846009 
L 460.247347 -480.524694 
L 456.65881 -476.210136 
L 453.070272 -471.912977 
L 449.481734 -467.643708 
L 445.893196 -463.412464 
L 442.304658 -459.228816 
L 438.716121 -455.101585 
L 435.127583 -451.038708 
L 431.539045 -447.047169 
L 427.950507 -443.133017 
L 424.361969 -439.30146 
L 420.773432 -435.557037 
L 417.184894 -431.903834 
L 413.596356 -428.345747 
L 410.007818 -424.886735 
L 406.41928 -421.531047 
L 402.830743 -418.283398 
L 399.242205 -415.149062 
L 395.653667 -412.133873 
L 392.065129 -409.244117 
L 388.476591 -406.486333 
L 384.888054 -403.867014 
L 381.299516 -401.392249 
L 377.710978 -399.067311 
L 374.12244 -396.896243 
L 370.533902 -394.881447 
L 366.945365 -393.023335 
L 363.356827 -391.320045 
L 359.768289 -389.767255 
L 356.179751 -388.358101 
L 352.591213 -387.083214 
L 349.002676 -385.930866 
L 345.414138 -384.887217 
L 341.8256 -383.936655 
L 338.237062 -383.062201 
L 334.648524 -382.245969 
L 331.059986 -381.469646 
L 327.471449 -380.714982 
L 323.882911 -379.964265 
L 320.294373 -379.200763 
L 316.705835 -378.409126 
L 313.117297 -377.575727 
L 309.52876 -376.688948 
L 305.940222 -375.739396 
L 302.351684 -374.720055 
L 298.763146 -373.626367 
L 295.174608 -372.456257 
L 291.586071 -371.210082 
L 287.997533 -369.890538 
L 284.408995 -368.502502 
L 280.820457 -367.052833 
L 277.231919 -365.550131 
L 273.643382 -364.004454 
L 270.054844 -362.427021 
L 266.466306 -360.829884 
L 262.877768 -359.225596 
L 259.28923 -357.62688 
L 255.700693 -356.046302 
L 252.112155 -354.495965 
L 248.523617 -352.987232 
L 244.935079 -351.530478 
L 241.346541 -350.134892 
L 237.758004 -348.808312 
L 234.169466 -347.557122 
L 230.580928 -346.386189 
L 226.99239 -345.298853 
L 223.403852 -344.296958 
L 219.815315 -343.380933 
L 216.226777 -342.549897 
L 212.638239 -341.801796 
L 209.049701 -341.133569 
L 205.461163 -340.541311 
L 201.872626 -340.020457 
L 198.284088 -339.565955 
L 194.69555 -339.172437 
L 191.107012 -338.834373 
L 187.518474 -338.546215 
L 183.929937 -338.302515 
L 180.341399 -338.098027 
L 176.752861 -337.927787 
L 173.164323 -337.787173 
L 169.575785 -337.671944 
L 165.987248 -337.578262 
L 162.39871 -337.502699 
L 158.810172 -337.442234 
L 155.221634 -337.394234 
L 151.633096 -337.356432 
L 148.044559 -337.326899 
z
" style="stroke: #ff7f0e; stroke-width: 2.5"/>
    </defs>
    <g clip-path="url(#pee50210a8e)">
     <use xlink:href="#m8c97df7a2b" x="0" y="635.878125" style="fill: #ff7f0e; fill-opacity: 0.5; stroke: #ff7f0e; stroke-width: 2.5"/>
    </g>
   </g>
   <g id="PolyCollection_2">
    <defs>
     <path id="m54cc0a785c" d="M 82.751837 -337.334731 
L 82.751837 -337.234647 
L 86.651898 -337.234647 
L 90.551959 -337.234647 
L 94.45202 -337.234647 
L 98.352081 -337.234647 
L 102.252142 -337.234647 
L 106.152203 -337.234647 
L 110.052264 -337.234647 
L 113.952325 -337.234647 
L 117.852386 -337.234647 
L 121.752447 -337.234647 
L 125.652508 -337.234647 
L 129.552569 -337.234647 
L 133.45263 -337.234647 
L 137.352691 -337.234647 
L 141.252752 -337.234647 
L 145.152813 -337.234647 
L 149.052874 -337.234647 
L 152.952935 -337.234647 
L 156.852996 -337.234647 
L 160.753057 -337.234647 
L 164.653118 -337.234647 
L 168.553179 -337.234647 
L 172.45324 -337.234647 
L 176.353301 -337.234647 
L 180.253362 -337.234647 
L 184.153423 -337.234647 
L 188.053484 -337.234647 
L 191.953545 -337.234647 
L 195.853606 -337.234647 
L 199.753667 -337.234647 
L 203.653728 -337.234647 
L 207.553789 -337.234647 
L 211.45385 -337.234647 
L 215.353911 -337.234647 
L 219.253972 -337.234647 
L 223.154033 -337.234647 
L 227.054094 -337.234647 
L 230.954155 -337.234647 
L 234.854216 -337.234647 
L 238.754277 -337.234647 
L 242.654338 -337.234647 
L 246.554399 -337.234647 
L 250.45446 -337.234647 
L 254.354521 -337.234647 
L 258.254582 -337.234647 
L 262.154643 -337.234647 
L 266.054704 -337.234647 
L 269.954765 -337.234647 
L 273.854826 -337.234647 
L 277.754887 -337.234647 
L 281.654948 -337.234647 
L 285.555009 -337.234647 
L 289.45507 -337.234647 
L 293.355131 -337.234647 
L 297.255192 -337.234647 
L 301.155253 -337.234647 
L 305.055314 -337.234647 
L 308.955375 -337.234647 
L 312.855436 -337.234647 
L 316.755497 -337.234647 
L 320.655558 -337.234647 
L 324.555619 -337.234647 
L 328.45568 -337.234647 
L 332.355741 -337.234647 
L 336.255802 -337.234647 
L 340.155863 -337.234647 
L 344.055924 -337.234647 
L 347.955985 -337.234647 
L 351.856046 -337.234647 
L 355.756107 -337.234647 
L 359.656168 -337.234647 
L 363.556229 -337.234647 
L 367.45629 -337.234647 
L 371.356351 -337.234647 
L 375.256412 -337.234647 
L 379.156473 -337.234647 
L 383.056534 -337.234647 
L 386.956595 -337.234647 
L 390.856656 -337.234647 
L 394.756717 -337.234647 
L 398.656778 -337.234647 
L 402.556839 -337.234647 
L 406.4569 -337.234647 
L 410.356961 -337.234647 
L 414.257022 -337.234647 
L 418.157083 -337.234647 
L 422.057144 -337.234647 
L 425.957205 -337.234647 
L 429.857266 -337.234647 
L 433.757327 -337.234647 
L 437.657388 -337.234647 
L 441.557449 -337.234647 
L 445.45751 -337.234647 
L 449.357571 -337.234647 
L 453.257632 -337.234647 
L 457.157693 -337.234647 
L 461.057754 -337.234647 
L 464.957815 -337.234647 
L 468.857876 -337.234647 
L 472.757937 -337.234647 
L 476.657998 -337.234647 
L 480.558059 -337.234647 
L 484.45812 -337.234647 
L 488.358181 -337.234647 
L 492.258242 -337.234647 
L 496.158303 -337.234647 
L 500.058364 -337.234647 
L 503.958425 -337.234647 
L 507.858486 -337.234647 
L 511.758547 -337.234647 
L 515.658608 -337.234647 
L 519.558669 -337.234647 
L 523.45873 -337.234647 
L 527.358791 -337.234647 
L 531.258852 -337.234647 
L 535.158913 -337.234647 
L 539.058974 -337.234647 
L 542.959035 -337.234647 
L 546.859096 -337.234647 
L 550.759157 -337.234647 
L 554.659218 -337.234647 
L 558.559279 -337.234647 
L 562.45934 -337.234647 
L 566.359401 -337.234647 
L 570.259462 -337.234647 
L 574.159523 -337.234647 
L 578.059584 -337.234647 
L 581.959645 -337.234647 
L 585.859706 -337.234647 
L 589.759767 -337.234647 
L 593.659828 -337.234647 
L 597.559889 -337.234647 
L 601.45995 -337.234647 
L 605.360011 -337.234647 
L 609.260072 -337.234647 
L 613.160133 -337.234647 
L 617.060194 -337.234647 
L 620.960255 -337.234647 
L 624.860316 -337.234647 
L 628.760377 -337.234647 
L 632.660438 -337.234647 
L 636.560499 -337.234647 
L 640.46056 -337.234647 
L 644.360621 -337.234647 
L 648.260682 -337.234647 
L 652.160743 -337.234647 
L 656.060804 -337.234647 
L 659.960865 -337.234647 
L 663.860926 -337.234647 
L 667.760987 -337.234647 
L 671.661048 -337.234647 
L 675.561109 -337.234647 
L 679.46117 -337.234647 
L 683.361231 -337.234647 
L 687.261292 -337.234647 
L 691.161353 -337.234647 
L 695.061414 -337.234647 
L 698.961475 -337.234647 
L 702.861536 -337.234647 
L 706.761597 -337.234647 
L 710.661658 -337.234647 
L 714.561719 -337.234647 
L 718.46178 -337.234647 
L 722.361841 -337.234647 
L 726.261902 -337.234647 
L 730.161963 -337.234647 
L 734.062024 -337.234647 
L 737.962085 -337.234647 
L 741.862146 -337.234647 
L 745.762207 -337.234647 
L 749.662268 -337.234647 
L 753.562329 -337.234647 
L 757.46239 -337.234647 
L 761.362451 -337.234647 
L 765.262512 -337.234647 
L 769.162573 -337.234647 
L 773.062634 -337.234647 
L 776.962695 -337.234647 
L 780.862756 -337.234647 
L 784.762817 -337.234647 
L 788.662878 -337.234647 
L 792.562939 -337.234647 
L 796.463 -337.234647 
L 800.363061 -337.234647 
L 804.263122 -337.234647 
L 808.163183 -337.234647 
L 812.063244 -337.234647 
L 815.963305 -337.234647 
L 819.863366 -337.234647 
L 823.763427 -337.234647 
L 827.663488 -337.234647 
L 831.563549 -337.234647 
L 835.46361 -337.234647 
L 839.363671 -337.234647 
L 843.263732 -337.234647 
L 847.163793 -337.234647 
L 851.063854 -337.234647 
L 854.963915 -337.234647 
L 858.863976 -337.234647 
L 858.863976 -337.303867 
L 858.863976 -337.303867 
L 854.963915 -337.324694 
L 851.063854 -337.350865 
L 847.163793 -337.383463 
L 843.263732 -337.423706 
L 839.363671 -337.472946 
L 835.46361 -337.532652 
L 831.563549 -337.604394 
L 827.663488 -337.689815 
L 823.763427 -337.790588 
L 819.863366 -337.908368 
L 815.963305 -338.044739 
L 812.063244 -338.201139 
L 808.163183 -338.378798 
L 804.263122 -338.578652 
L 800.363061 -338.801277 
L 796.463 -339.046814 
L 792.562939 -339.314908 
L 788.662878 -339.604667 
L 784.762817 -339.914638 
L 780.862756 -340.242807 
L 776.962695 -340.586635 
L 773.062634 -340.943122 
L 769.162573 -341.308912 
L 765.262512 -341.680429 
L 761.362451 -342.054048 
L 757.46239 -342.426293 
L 753.562329 -342.79406 
L 749.662268 -343.154849 
L 745.762207 -343.507002 
L 741.862146 -343.849932 
L 737.962085 -344.18433 
L 734.062024 -344.51234 
L 730.161963 -344.837699 
L 726.261902 -345.165808 
L 722.361841 -345.503767 
L 718.46178 -345.860328 
L 714.561719 -346.245799 
L 710.661658 -346.671879 
L 706.761597 -347.151442 
L 702.861536 -347.698276 
L 698.961475 -348.326783 
L 695.061414 -349.051655 
L 691.161353 -349.887544 
L 687.261292 -350.848726 
L 683.361231 -351.94878 
L 679.46117 -353.200292 
L 675.561109 -354.614581 
L 671.661048 -356.201468 
L 667.760987 -357.969074 
L 663.860926 -359.923656 
L 659.960865 -362.06948 
L 656.060804 -364.408721 
L 652.160743 -366.941396 
L 648.260682 -369.665321 
L 644.360621 -372.576094 
L 640.46056 -375.667103 
L 636.560499 -378.92956 
L 632.660438 -382.35258 
L 628.760377 -385.923287 
L 624.860316 -389.62698 
L 620.960255 -393.447353 
L 617.060194 -397.366778 
L 613.160133 -401.366656 
L 609.260072 -405.427837 
L 605.360011 -409.531098 
L 601.45995 -413.657671 
L 597.559889 -417.789795 
L 593.659828 -421.91128 
L 589.759767 -426.008039 
L 585.859706 -430.068554 
L 581.959645 -434.084251 
L 578.059584 -438.049741 
L 574.159523 -441.962896 
L 570.259462 -445.824733 
L 566.359401 -449.639108 
L 562.45934 -453.412191 
L 558.559279 -457.151755 
L 554.659218 -460.866297 
L 550.759157 -464.564019 
L 546.859096 -468.25173 
L 542.959035 -471.933732 
L 539.058974 -475.610739 
L 535.158913 -479.278913 
L 531.258852 -482.929078 
L 527.358791 -486.546173 
L 523.45873 -490.108992 
L 519.558669 -493.590242 
L 515.658608 -496.956951 
L 511.758547 -500.171204 
L 507.858486 -503.191204 
L 503.958425 -505.972604 
L 500.058364 -508.470062 
L 496.158303 -510.638944 
L 492.258242 -512.437087 
L 488.358181 -513.826553 
L 484.45812 -514.775273 
L 480.558059 -515.258503 
L 476.657998 -515.260036 
L 472.757937 -514.773085 
L 468.857876 -513.800831 
L 464.957815 -512.356584 
L 461.057754 -510.463576 
L 457.157693 -508.154378 
L 453.257632 -505.469998 
L 449.357571 -502.458677 
L 445.45751 -499.174453 
L 441.557449 -495.675553 
L 437.657388 -492.022666 
L 433.757327 -488.277169 
L 429.857266 -484.499371 
L 425.957205 -480.746826 
L 422.057144 -477.072765 
L 418.157083 -473.524695 
L 414.257022 -470.143211 
L 410.356961 -466.961029 
L 406.4569 -464.002284 
L 402.556839 -461.282097 
L 398.656778 -458.806417 
L 394.756717 -456.57215 
L 390.856656 -454.567554 
L 386.956595 -452.772899 
L 383.056534 -451.161358 
L 379.156473 -449.700112 
L 375.256412 -448.351631 
L 371.356351 -447.075076 
L 367.45629 -445.827801 
L 363.556229 -444.566872 
L 359.656168 -443.250586 
L 355.756107 -441.839897 
L 351.856046 -440.299737 
L 347.955985 -438.600157 
L 344.055924 -436.717263 
L 340.155863 -434.633913 
L 336.255802 -432.34015 
L 332.355741 -429.833372 
L 328.45568 -427.118222 
L 324.555619 -424.20623 
L 320.655558 -421.115221 
L 316.755497 -417.868514 
L 312.855436 -414.493965 
L 308.955375 -411.022888 
L 305.055314 -407.488902 
L 301.155253 -403.926755 
L 297.255192 -400.371163 
L 293.355131 -396.855722 
L 289.45507 -393.411904 
L 285.555009 -390.0682 
L 281.654948 -386.849405 
L 277.754887 -383.77608 
L 273.854826 -380.864195 
L 269.954765 -378.12495 
L 266.054704 -375.56478 
L 262.154643 -373.185513 
L 258.254582 -370.984696 
L 254.354521 -368.95603 
L 250.45446 -367.089921 
L 246.554399 -365.374108 
L 242.654338 -363.79433 
L 238.754277 -362.335026 
L 234.854216 -360.980016 
L 230.954155 -359.71316 
L 227.054094 -358.518949 
L 223.154033 -357.383027 
L 219.253972 -356.292614 
L 215.353911 -355.236833 
L 211.45385 -354.206918 
L 207.553789 -353.196322 
L 203.653728 -352.200708 
L 199.753667 -351.217851 
L 195.853606 -350.247454 
L 191.953545 -349.290893 
L 188.053484 -348.350914 
L 184.153423 -347.431299 
L 180.253362 -346.536518 
L 176.353301 -345.671391 
L 172.45324 -344.840767 
L 168.553179 -344.049241 
L 164.653118 -343.300917 
L 160.753057 -342.59922 
L 156.852996 -341.946764 
L 152.952935 -341.345279 
L 149.052874 -340.79558 
L 145.152813 -340.29759 
L 141.252752 -339.850399 
L 137.352691 -339.452355 
L 133.45263 -339.101171 
L 129.552569 -338.794054 
L 125.652508 -338.52783 
L 121.752447 -338.299075 
L 117.852386 -338.104231 
L 113.952325 -337.939714 
L 110.052264 -337.802009 
L 106.152203 -337.687743 
L 102.252142 -337.593742 
L 98.352081 -337.517075 
L 94.45202 -337.455082 
L 90.551959 -337.40538 
L 86.651898 -337.365871 
L 82.751837 -337.334731 
z
" style="stroke: #1f77b4; stroke-width: 2.5"/>
    </defs>
    <g clip-path="url(#pee50210a8e)">
     <use xlink:href="#m54cc0a785c" x="0" y="635.878125" style="fill: #1f77b4; fill-opacity: 0.5; stroke: #1f77b4; stroke-width: 2.5"/>
    </g>
   </g>
   <g id="matplotlib.axis_1">
    <g id="xtick_1">
     <g id="line2d_1">
      <defs>
       <path id="m46ab6d4666" d="M 0 0 
L 0 3.5 
" style="stroke: #000000; stroke-width: 0.8"/>
      </defs>
      <g>
       <use xlink:href="#m46ab6d4666" x="137.534342" y="298.643478" style="stroke: #000000; stroke-width: 0.8"/>
      </g>
     </g>
     <g id="text_1">
      <!-- 0.0 -->
      <g transform="translate(129.58278 313.241916) scale(0.1 -0.1)">
       <defs>
        <path id="DejaVuSans-30" d="M 2034 4250 
Q 1547 4250 1301 3770 
Q 1056 3291 1056 2328 
Q 1056 1369 1301 889 
Q 1547 409 2034 409 
Q 2525 409 2770 889 
Q 3016 1369 3016 2328 
Q 3016 3291 2770 3770 
Q 2525 4250 2034 4250 
z
M 2034 4750 
Q 2819 4750 3233 4129 
Q 3647 3509 3647 2328 
Q 3647 1150 3233 529 
Q 2819 -91 2034 -91 
Q 1250 -91 836 529 
Q 422 1150 422 2328 
Q 422 3509 836 4129 
Q 1250 4750 2034 4750 
z
" transform="scale(0.015625)"/>
        <path id="DejaVuSans-2e" d="M 684 794 
L 1344 794 
L 1344 0 
L 684 0 
L 684 794 
z
" transform="scale(0.015625)"/>
       </defs>
       <use xlink:href="#DejaVuSans-30"/>
       <use xlink:href="#DejaVuSans-2e" x="63.623047"/>
       <use xlink:href="#DejaVuSans-30" x="95.410156"/>
      </g>
     </g>
    </g>
    <g id="xtick_2">
     <g id="line2d_2">
      <g>
       <use xlink:href="#m46ab6d4666" x="289.707871" y="298.643478" style="stroke: #000000; stroke-width: 0.8"/>
      </g>
     </g>
     <g id="text_2">
      <!-- 0.2 -->
      <g transform="translate(281.756309 313.241916) scale(0.1 -0.1)">
       <defs>
        <path id="DejaVuSans-32" d="M 1228 531 
L 3431 531 
L 3431 0 
L 469 0 
L 469 531 
Q 828 903 1448 1529 
Q 2069 2156 2228 2338 
Q 2531 2678 2651 2914 
Q 2772 3150 2772 3378 
Q 2772 3750 2511 3984 
Q 2250 4219 1831 4219 
Q 1534 4219 1204 4116 
Q 875 4013 500 3803 
L 500 4441 
Q 881 4594 1212 4672 
Q 1544 4750 1819 4750 
Q 2544 4750 2975 4387 
Q 3406 4025 3406 3419 
Q 3406 3131 3298 2873 
Q 3191 2616 2906 2266 
Q 2828 2175 2409 1742 
Q 1991 1309 1228 531 
z
" transform="scale(0.015625)"/>
       </defs>
       <use xlink:href="#DejaVuSans-30"/>
       <use xlink:href="#DejaVuSans-2e" x="63.623047"/>
       <use xlink:href="#DejaVuSans-32" x="95.410156"/>
      </g>
     </g>
    </g>
    <g id="xtick_3">
     <g id="line2d_3">
      <g>
       <use xlink:href="#m46ab6d4666" x="441.881401" y="298.643478" style="stroke: #000000; stroke-width: 0.8"/>
      </g>
     </g>
     <g id="text_3">
      <!-- 0.4 -->
      <g transform="translate(433.929838 313.241916) scale(0.1 -0.1)">
       <defs>
        <path id="DejaVuSans-34" d="M 2419 4116 
L 825 1625 
L 2419 1625 
L 2419 4116 
z
M 2253 4666 
L 3047 4666 
L 3047 1625 
L 3713 1625 
L 3713 1100 
L 3047 1100 
L 3047 0 
L 2419 0 
L 2419 1100 
L 313 1100 
L 313 1709 
L 2253 4666 
z
" transform="scale(0.015625)"/>
       </defs>
       <use xlink:href="#DejaVuSans-30"/>
       <use xlink:href="#DejaVuSans-2e" x="63.623047"/>
       <use xlink:href="#DejaVuSans-34" x="95.410156"/>
      </g>
     </g>
    </g>
    <g id="xtick_4">
     <g id="line2d_4">
      <g>
       <use xlink:href="#m46ab6d4666" x="594.05493" y="298.643478" style="stroke: #000000; stroke-width: 0.8"/>
      </g>
     </g>
     <g id="text_4">
      <!-- 0.6 -->
      <g transform="translate(586.103367 313.241916) scale(0.1 -0.1)">
       <defs>
        <path id="DejaVuSans-36" d="M 2113 2584 
Q 1688 2584 1439 2293 
Q 1191 2003 1191 1497 
Q 1191 994 1439 701 
Q 1688 409 2113 409 
Q 2538 409 2786 701 
Q 3034 994 3034 1497 
Q 3034 2003 2786 2293 
Q 2538 2584 2113 2584 
z
M 3366 4563 
L 3366 3988 
Q 3128 4100 2886 4159 
Q 2644 4219 2406 4219 
Q 1781 4219 1451 3797 
Q 1122 3375 1075 2522 
Q 1259 2794 1537 2939 
Q 1816 3084 2150 3084 
Q 2853 3084 3261 2657 
Q 3669 2231 3669 1497 
Q 3669 778 3244 343 
Q 2819 -91 2113 -91 
Q 1303 -91 875 529 
Q 447 1150 447 2328 
Q 447 3434 972 4092 
Q 1497 4750 2381 4750 
Q 2619 4750 2861 4703 
Q 3103 4656 3366 4563 
z
" transform="scale(0.015625)"/>
       </defs>
       <use xlink:href="#DejaVuSans-30"/>
       <use xlink:href="#DejaVuSans-2e" x="63.623047"/>
       <use xlink:href="#DejaVuSans-36" x="95.410156"/>
      </g>
     </g>
    </g>
    <g id="xtick_5">
     <g id="line2d_5">
      <g>
       <use xlink:href="#m46ab6d4666" x="746.228459" y="298.643478" style="stroke: #000000; stroke-width: 0.8"/>
      </g>
     </g>
     <g id="text_5">
      <!-- 0.8 -->
      <g transform="translate(738.276896 313.241916) scale(0.1 -0.1)">
       <defs>
        <path id="DejaVuSans-38" d="M 2034 2216 
Q 1584 2216 1326 1975 
Q 1069 1734 1069 1313 
Q 1069 891 1326 650 
Q 1584 409 2034 409 
Q 2484 409 2743 651 
Q 3003 894 3003 1313 
Q 3003 1734 2745 1975 
Q 2488 2216 2034 2216 
z
M 1403 2484 
Q 997 2584 770 2862 
Q 544 3141 544 3541 
Q 544 4100 942 4425 
Q 1341 4750 2034 4750 
Q 2731 4750 3128 4425 
Q 3525 4100 3525 3541 
Q 3525 3141 3298 2862 
Q 3072 2584 2669 2484 
Q 3125 2378 3379 2068 
Q 3634 1759 3634 1313 
Q 3634 634 3220 271 
Q 2806 -91 2034 -91 
Q 1263 -91 848 271 
Q 434 634 434 1313 
Q 434 1759 690 2068 
Q 947 2378 1403 2484 
z
M 1172 3481 
Q 1172 3119 1398 2916 
Q 1625 2713 2034 2713 
Q 2441 2713 2670 2916 
Q 2900 3119 2900 3481 
Q 2900 3844 2670 4047 
Q 2441 4250 2034 4250 
Q 1625 4250 1398 4047 
Q 1172 3844 1172 3481 
z
" transform="scale(0.015625)"/>
       </defs>
       <use xlink:href="#DejaVuSans-30"/>
       <use xlink:href="#DejaVuSans-2e" x="63.623047"/>
       <use xlink:href="#DejaVuSans-38" x="95.410156"/>
      </g>
     </g>
    </g>
   </g>
   <g id="matplotlib.axis_2">
    <g id="ytick_1">
     <g id="line2d_6">
      <defs>
       <path id="m846721b909" d="M 0 0 
L -3.5 0 
" style="stroke: #000000; stroke-width: 0.8"/>
      </defs>
      <g>
       <use xlink:href="#m846721b909" x="43.78125" y="298.643478" style="stroke: #000000; stroke-width: 0.8"/>
      </g>
     </g>
     <g id="text_6">
      <!-- 0.0 -->
      <g transform="translate(20.878125 302.442697) scale(0.1 -0.1)">
       <use xlink:href="#DejaVuSans-30"/>
       <use xlink:href="#DejaVuSans-2e" x="63.623047"/>
       <use xlink:href="#DejaVuSans-30" x="95.410156"/>
      </g>
     </g>
    </g>
    <g id="ytick_2">
     <g id="line2d_7">
      <g>
       <use xlink:href="#m846721b909" x="43.78125" y="268.061407" style="stroke: #000000; stroke-width: 0.8"/>
      </g>
     </g>
     <g id="text_7">
      <!-- 0.5 -->
      <g transform="translate(20.878125 271.860626) scale(0.1 -0.1)">
       <defs>
        <path id="DejaVuSans-35" d="M 691 4666 
L 3169 4666 
L 3169 4134 
L 1269 4134 
L 1269 2991 
Q 1406 3038 1543 3061 
Q 1681 3084 1819 3084 
Q 2600 3084 3056 2656 
Q 3513 2228 3513 1497 
Q 3513 744 3044 326 
Q 2575 -91 1722 -91 
Q 1428 -91 1123 -41 
Q 819 9 494 109 
L 494 744 
Q 775 591 1075 516 
Q 1375 441 1709 441 
Q 2250 441 2565 725 
Q 2881 1009 2881 1497 
Q 2881 1984 2565 2268 
Q 2250 2553 1709 2553 
Q 1456 2553 1204 2497 
Q 953 2441 691 2322 
L 691 4666 
z
" transform="scale(0.015625)"/>
       </defs>
       <use xlink:href="#DejaVuSans-30"/>
       <use xlink:href="#DejaVuSans-2e" x="63.623047"/>
       <use xlink:href="#DejaVuSans-35" x="95.410156"/>
      </g>
     </g>
    </g>
    <g id="ytick_3">
     <g id="line2d_8">
      <g>
       <use xlink:href="#m846721b909" x="43.78125" y="237.479335" style="stroke: #000000; stroke-width: 0.8"/>
      </g>
     </g>
     <g id="text_8">
      <!-- 1.0 -->
      <g transform="translate(20.878125 241.278554) scale(0.1 -0.1)">
       <defs>
        <path id="DejaVuSans-31" d="M 794 531 
L 1825 531 
L 1825 4091 
L 703 3866 
L 703 4441 
L 1819 4666 
L 2450 4666 
L 2450 531 
L 3481 531 
L 3481 0 
L 794 0 
L 794 531 
z
" transform="scale(0.015625)"/>
       </defs>
       <use xlink:href="#DejaVuSans-31"/>
       <use xlink:href="#DejaVuSans-2e" x="63.623047"/>
       <use xlink:href="#DejaVuSans-30" x="95.410156"/>
      </g>
     </g>
    </g>
    <g id="ytick_4">
     <g id="line2d_9">
      <g>
       <use xlink:href="#m846721b909" x="43.78125" y="206.897264" style="stroke: #000000; stroke-width: 0.8"/>
      </g>
     </g>
     <g id="text_9">
      <!-- 1.5 -->
      <g transform="translate(20.878125 210.696483) scale(0.1 -0.1)">
       <use xlink:href="#DejaVuSans-31"/>
       <use xlink:href="#DejaVuSans-2e" x="63.623047"/>
       <use xlink:href="#DejaVuSans-35" x="95.410156"/>
      </g>
     </g>
    </g>
    <g id="ytick_5">
     <g id="line2d_10">
      <g>
       <use xlink:href="#m846721b909" x="43.78125" y="176.315192" style="stroke: #000000; stroke-width: 0.8"/>
      </g>
     </g>
     <g id="text_10">
      <!-- 2.0 -->
      <g transform="translate(20.878125 180.114411) scale(0.1 -0.1)">
       <use xlink:href="#DejaVuSans-32"/>
       <use xlink:href="#DejaVuSans-2e" x="63.623047"/>
       <use xlink:href="#DejaVuSans-30" x="95.410156"/>
      </g>
     </g>
    </g>
    <g id="ytick_6">
     <g id="line2d_11">
      <g>
       <use xlink:href="#m846721b909" x="43.78125" y="145.733121" style="stroke: #000000; stroke-width: 0.8"/>
      </g>
     </g>
     <g id="text_11">
      <!-- 2.5 -->
      <g transform="translate(20.878125 149.53234) scale(0.1 -0.1)">
       <use xlink:href="#DejaVuSans-32"/>
       <use xlink:href="#DejaVuSans-2e" x="63.623047"/>
       <use xlink:href="#DejaVuSans-35" x="95.410156"/>
      </g>
     </g>
    </g>
    <g id="ytick_7">
     <g id="line2d_12">
      <g>
       <use xlink:href="#m846721b909" x="43.78125" y="115.151049" style="stroke: #000000; stroke-width: 0.8"/>
      </g>
     </g>
     <g id="text_12">
      <!-- 3.0 -->
      <g transform="translate(20.878125 118.950268) scale(0.1 -0.1)">
       <defs>
        <path id="DejaVuSans-33" d="M 2597 2516 
Q 3050 2419 3304 2112 
Q 3559 1806 3559 1356 
Q 3559 666 3084 287 
Q 2609 -91 1734 -91 
Q 1441 -91 1130 -33 
Q 819 25 488 141 
L 488 750 
Q 750 597 1062 519 
Q 1375 441 1716 441 
Q 2309 441 2620 675 
Q 2931 909 2931 1356 
Q 2931 1769 2642 2001 
Q 2353 2234 1838 2234 
L 1294 2234 
L 1294 2753 
L 1863 2753 
Q 2328 2753 2575 2939 
Q 2822 3125 2822 3475 
Q 2822 3834 2567 4026 
Q 2313 4219 1838 4219 
Q 1578 4219 1281 4162 
Q 984 4106 628 3988 
L 628 4550 
Q 988 4650 1302 4700 
Q 1616 4750 1894 4750 
Q 2613 4750 3031 4423 
Q 3450 4097 3450 3541 
Q 3450 3153 3228 2886 
Q 3006 2619 2597 2516 
z
" transform="scale(0.015625)"/>
       </defs>
       <use xlink:href="#DejaVuSans-33"/>
       <use xlink:href="#DejaVuSans-2e" x="63.623047"/>
       <use xlink:href="#DejaVuSans-30" x="95.410156"/>
      </g>
     </g>
    </g>
    <g id="ytick_8">
     <g id="line2d_13">
      <g>
       <use xlink:href="#m846721b909" x="43.78125" y="84.568978" style="stroke: #000000; stroke-width: 0.8"/>
      </g>
     </g>
     <g id="text_13">
      <!-- 3.5 -->
      <g transform="translate(20.878125 88.368197) scale(0.1 -0.1)">
       <use xlink:href="#DejaVuSans-33"/>
       <use xlink:href="#DejaVuSans-2e" x="63.623047"/>
       <use xlink:href="#DejaVuSans-35" x="95.410156"/>
      </g>
     </g>
    </g>
    <g id="text_14">
     <!-- Density -->
     <g transform="translate(14.798438 197.130333) rotate(-90) scale(0.1 -0.1)">
      <defs>
       <path id="DejaVuSans-44" d="M 1259 4147 
L 1259 519 
L 2022 519 
Q 2988 519 3436 956 
Q 3884 1394 3884 2338 
Q 3884 3275 3436 3711 
Q 2988 4147 2022 4147 
L 1259 4147 
z
M 628 4666 
L 1925 4666 
Q 3281 4666 3915 4102 
Q 4550 3538 4550 2338 
Q 4550 1131 3912 565 
Q 3275 0 1925 0 
L 628 0 
L 628 4666 
z
" transform="scale(0.015625)"/>
       <path id="DejaVuSans-65" d="M 3597 1894 
L 3597 1613 
L 953 1613 
Q 991 1019 1311 708 
Q 1631 397 2203 397 
Q 2534 397 2845 478 
Q 3156 559 3463 722 
L 3463 178 
Q 3153 47 2828 -22 
Q 2503 -91 2169 -91 
Q 1331 -91 842 396 
Q 353 884 353 1716 
Q 353 2575 817 3079 
Q 1281 3584 2069 3584 
Q 2775 3584 3186 3129 
Q 3597 2675 3597 1894 
z
M 3022 2063 
Q 3016 2534 2758 2815 
Q 2500 3097 2075 3097 
Q 1594 3097 1305 2825 
Q 1016 2553 972 2059 
L 3022 2063 
z
" transform="scale(0.015625)"/>
       <path id="DejaVuSans-6e" d="M 3513 2113 
L 3513 0 
L 2938 0 
L 2938 2094 
Q 2938 2591 2744 2837 
Q 2550 3084 2163 3084 
Q 1697 3084 1428 2787 
Q 1159 2491 1159 1978 
L 1159 0 
L 581 0 
L 581 3500 
L 1159 3500 
L 1159 2956 
Q 1366 3272 1645 3428 
Q 1925 3584 2291 3584 
Q 2894 3584 3203 3211 
Q 3513 2838 3513 2113 
z
" transform="scale(0.015625)"/>
       <path id="DejaVuSans-73" d="M 2834 3397 
L 2834 2853 
Q 2591 2978 2328 3040 
Q 2066 3103 1784 3103 
Q 1356 3103 1142 2972 
Q 928 2841 928 2578 
Q 928 2378 1081 2264 
Q 1234 2150 1697 2047 
L 1894 2003 
Q 2506 1872 2764 1633 
Q 3022 1394 3022 966 
Q 3022 478 2636 193 
Q 2250 -91 1575 -91 
Q 1294 -91 989 -36 
Q 684 19 347 128 
L 347 722 
Q 666 556 975 473 
Q 1284 391 1588 391 
Q 1994 391 2212 530 
Q 2431 669 2431 922 
Q 2431 1156 2273 1281 
Q 2116 1406 1581 1522 
L 1381 1569 
Q 847 1681 609 1914 
Q 372 2147 372 2553 
Q 372 3047 722 3315 
Q 1072 3584 1716 3584 
Q 2034 3584 2315 3537 
Q 2597 3491 2834 3397 
z
" transform="scale(0.015625)"/>
       <path id="DejaVuSans-69" d="M 603 3500 
L 1178 3500 
L 1178 0 
L 603 0 
L 603 3500 
z
M 603 4863 
L 1178 4863 
L 1178 4134 
L 603 4134 
L 603 4863 
z
" transform="scale(0.015625)"/>
       <path id="DejaVuSans-74" d="M 1172 4494 
L 1172 3500 
L 2356 3500 
L 2356 3053 
L 1172 3053 
L 1172 1153 
Q 1172 725 1289 603 
Q 1406 481 1766 481 
L 2356 481 
L 2356 0 
L 1766 0 
Q 1100 0 847 248 
Q 594 497 594 1153 
L 594 3053 
L 172 3053 
L 172 3500 
L 594 3500 
L 594 4494 
L 1172 4494 
z
" transform="scale(0.015625)"/>
       <path id="DejaVuSans-79" d="M 2059 -325 
Q 1816 -950 1584 -1140 
Q 1353 -1331 966 -1331 
L 506 -1331 
L 506 -850 
L 844 -850 
Q 1081 -850 1212 -737 
Q 1344 -625 1503 -206 
L 1606 56 
L 191 3500 
L 800 3500 
L 1894 763 
L 2988 3500 
L 3597 3500 
L 2059 -325 
z
" transform="scale(0.015625)"/>
      </defs>
      <use xlink:href="#DejaVuSans-44"/>
      <use xlink:href="#DejaVuSans-65" x="77.001953"/>
      <use xlink:href="#DejaVuSans-6e" x="138.525391"/>
      <use xlink:href="#DejaVuSans-73" x="201.904297"/>
      <use xlink:href="#DejaVuSans-69" x="254.003906"/>
      <use xlink:href="#DejaVuSans-74" x="281.787109"/>
      <use xlink:href="#DejaVuSans-79" x="320.996094"/>
     </g>
    </g>
   </g>
   <g id="patch_3">
    <path d="M 43.78125 298.643478 
L 43.78125 57.6 
" style="fill: none; stroke: #000000; stroke-width: 0.8; stroke-linejoin: miter; stroke-linecap: square"/>
   </g>
   <g id="patch_4">
    <path d="M 880.78125 298.643478 
L 880.78125 57.6 
" style="fill: none; stroke: #000000; stroke-width: 0.8; stroke-linejoin: miter; stroke-linecap: square"/>
   </g>
   <g id="patch_5">
    <path d="M 43.78125 298.643478 
L 880.78125 298.643478 
" style="fill: none; stroke: #000000; stroke-width: 0.8; stroke-linejoin: miter; stroke-linecap: square"/>
   </g>
   <g id="patch_6">
    <path d="M 43.78125 57.6 
L 880.78125 57.6 
" style="fill: none; stroke: #000000; stroke-width: 0.8; stroke-linejoin: miter; stroke-linecap: square"/>
   </g>
   <g id="text_15">
    <!-- Pearson correlation coefficients -->
    <g transform="translate(367.949062 51.6) scale(0.12 -0.12)">
     <defs>
      <path id="DejaVuSans-50" d="M 1259 4147 
L 1259 2394 
L 2053 2394 
Q 2494 2394 2734 2622 
Q 2975 2850 2975 3272 
Q 2975 3691 2734 3919 
Q 2494 4147 2053 4147 
L 1259 4147 
z
M 628 4666 
L 2053 4666 
Q 2838 4666 3239 4311 
Q 3641 3956 3641 3272 
Q 3641 2581 3239 2228 
Q 2838 1875 2053 1875 
L 1259 1875 
L 1259 0 
L 628 0 
L 628 4666 
z
" transform="scale(0.015625)"/>
      <path id="DejaVuSans-61" d="M 2194 1759 
Q 1497 1759 1228 1600 
Q 959 1441 959 1056 
Q 959 750 1161 570 
Q 1363 391 1709 391 
Q 2188 391 2477 730 
Q 2766 1069 2766 1631 
L 2766 1759 
L 2194 1759 
z
M 3341 1997 
L 3341 0 
L 2766 0 
L 2766 531 
Q 2569 213 2275 61 
Q 1981 -91 1556 -91 
Q 1019 -91 701 211 
Q 384 513 384 1019 
Q 384 1609 779 1909 
Q 1175 2209 1959 2209 
L 2766 2209 
L 2766 2266 
Q 2766 2663 2505 2880 
Q 2244 3097 1772 3097 
Q 1472 3097 1187 3025 
Q 903 2953 641 2809 
L 641 3341 
Q 956 3463 1253 3523 
Q 1550 3584 1831 3584 
Q 2591 3584 2966 3190 
Q 3341 2797 3341 1997 
z
" transform="scale(0.015625)"/>
      <path id="DejaVuSans-72" d="M 2631 2963 
Q 2534 3019 2420 3045 
Q 2306 3072 2169 3072 
Q 1681 3072 1420 2755 
Q 1159 2438 1159 1844 
L 1159 0 
L 581 0 
L 581 3500 
L 1159 3500 
L 1159 2956 
Q 1341 3275 1631 3429 
Q 1922 3584 2338 3584 
Q 2397 3584 2469 3576 
Q 2541 3569 2628 3553 
L 2631 2963 
z
" transform="scale(0.015625)"/>
      <path id="DejaVuSans-6f" d="M 1959 3097 
Q 1497 3097 1228 2736 
Q 959 2375 959 1747 
Q 959 1119 1226 758 
Q 1494 397 1959 397 
Q 2419 397 2687 759 
Q 2956 1122 2956 1747 
Q 2956 2369 2687 2733 
Q 2419 3097 1959 3097 
z
M 1959 3584 
Q 2709 3584 3137 3096 
Q 3566 2609 3566 1747 
Q 3566 888 3137 398 
Q 2709 -91 1959 -91 
Q 1206 -91 779 398 
Q 353 888 353 1747 
Q 353 2609 779 3096 
Q 1206 3584 1959 3584 
z
" transform="scale(0.015625)"/>
      <path id="DejaVuSans-20" transform="scale(0.015625)"/>
      <path id="DejaVuSans-63" d="M 3122 3366 
L 3122 2828 
Q 2878 2963 2633 3030 
Q 2388 3097 2138 3097 
Q 1578 3097 1268 2742 
Q 959 2388 959 1747 
Q 959 1106 1268 751 
Q 1578 397 2138 397 
Q 2388 397 2633 464 
Q 2878 531 3122 666 
L 3122 134 
Q 2881 22 2623 -34 
Q 2366 -91 2075 -91 
Q 1284 -91 818 406 
Q 353 903 353 1747 
Q 353 2603 823 3093 
Q 1294 3584 2113 3584 
Q 2378 3584 2631 3529 
Q 2884 3475 3122 3366 
z
" transform="scale(0.015625)"/>
      <path id="DejaVuSans-6c" d="M 603 4863 
L 1178 4863 
L 1178 0 
L 603 0 
L 603 4863 
z
" transform="scale(0.015625)"/>
      <path id="DejaVuSans-66" d="M 2375 4863 
L 2375 4384 
L 1825 4384 
Q 1516 4384 1395 4259 
Q 1275 4134 1275 3809 
L 1275 3500 
L 2222 3500 
L 2222 3053 
L 1275 3053 
L 1275 0 
L 697 0 
L 697 3053 
L 147 3053 
L 147 3500 
L 697 3500 
L 697 3744 
Q 697 4328 969 4595 
Q 1241 4863 1831 4863 
L 2375 4863 
z
" transform="scale(0.015625)"/>
     </defs>
     <use xlink:href="#DejaVuSans-50"/>
     <use xlink:href="#DejaVuSans-65" x="56.677734"/>
     <use xlink:href="#DejaVuSans-61" x="118.201172"/>
     <use xlink:href="#DejaVuSans-72" x="179.480469"/>
     <use xlink:href="#DejaVuSans-73" x="220.59375"/>
     <use xlink:href="#DejaVuSans-6f" x="272.693359"/>
     <use xlink:href="#DejaVuSans-6e" x="333.875"/>
     <use xlink:href="#DejaVuSans-20" x="397.253906"/>
     <use xlink:href="#DejaVuSans-63" x="429.041016"/>
     <use xlink:href="#DejaVuSans-6f" x="484.021484"/>
     <use xlink:href="#DejaVuSans-72" x="545.203125"/>
     <use xlink:href="#DejaVuSans-72" x="584.566406"/>
     <use xlink:href="#DejaVuSans-65" x="623.429688"/>
     <use xlink:href="#DejaVuSans-6c" x="684.953125"/>
     <use xlink:href="#DejaVuSans-61" x="712.736328"/>
     <use xlink:href="#DejaVuSans-74" x="774.015625"/>
     <use xlink:href="#DejaVuSans-69" x="813.224609"/>
     <use xlink:href="#DejaVuSans-6f" x="841.007812"/>
     <use xlink:href="#DejaVuSans-6e" x="902.189453"/>
     <use xlink:href="#DejaVuSans-20" x="965.568359"/>
     <use xlink:href="#DejaVuSans-63" x="997.355469"/>
     <use xlink:href="#DejaVuSans-6f" x="1052.335938"/>
     <use xlink:href="#DejaVuSans-65" x="1113.517578"/>
     <use xlink:href="#DejaVuSans-66" x="1175.041016"/>
     <use xlink:href="#DejaVuSans-66" x="1210.246094"/>
     <use xlink:href="#DejaVuSans-69" x="1245.451172"/>
     <use xlink:href="#DejaVuSans-63" x="1273.234375"/>
     <use xlink:href="#DejaVuSans-69" x="1328.214844"/>
     <use xlink:href="#DejaVuSans-65" x="1355.998047"/>
     <use xlink:href="#DejaVuSans-6e" x="1417.521484"/>
     <use xlink:href="#DejaVuSans-74" x="1480.900391"/>
     <use xlink:href="#DejaVuSans-73" x="1520.109375"/>
    </g>
   </g>
   <g id="legend_1">
    <g id="patch_7">
     <path d="M 50.78125 109.634375 
L 138.80625 109.634375 
Q 140.80625 109.634375 140.80625 107.634375 
L 140.80625 64.6 
Q 140.80625 62.6 138.80625 62.6 
L 50.78125 62.6 
Q 48.78125 62.6 48.78125 64.6 
L 48.78125 107.634375 
Q 48.78125 109.634375 50.78125 109.634375 
z
" style="fill: #ffffff; opacity: 0.8; stroke: #cccccc; stroke-linejoin: miter"/>
    </g>
    <g id="text_16">
     <!-- Correlation type: -->
     <g transform="translate(52.78125 74.198437) scale(0.1 -0.1)">
      <defs>
       <path id="DejaVuSans-43" d="M 4122 4306 
L 4122 3641 
Q 3803 3938 3442 4084 
Q 3081 4231 2675 4231 
Q 1875 4231 1450 3742 
Q 1025 3253 1025 2328 
Q 1025 1406 1450 917 
Q 1875 428 2675 428 
Q 3081 428 3442 575 
Q 3803 722 4122 1019 
L 4122 359 
Q 3791 134 3420 21 
Q 3050 -91 2638 -91 
Q 1578 -91 968 557 
Q 359 1206 359 2328 
Q 359 3453 968 4101 
Q 1578 4750 2638 4750 
Q 3056 4750 3426 4639 
Q 3797 4528 4122 4306 
z
" transform="scale(0.015625)"/>
       <path id="DejaVuSans-70" d="M 1159 525 
L 1159 -1331 
L 581 -1331 
L 581 3500 
L 1159 3500 
L 1159 2969 
Q 1341 3281 1617 3432 
Q 1894 3584 2278 3584 
Q 2916 3584 3314 3078 
Q 3713 2572 3713 1747 
Q 3713 922 3314 415 
Q 2916 -91 2278 -91 
Q 1894 -91 1617 61 
Q 1341 213 1159 525 
z
M 3116 1747 
Q 3116 2381 2855 2742 
Q 2594 3103 2138 3103 
Q 1681 3103 1420 2742 
Q 1159 2381 1159 1747 
Q 1159 1113 1420 752 
Q 1681 391 2138 391 
Q 2594 391 2855 752 
Q 3116 1113 3116 1747 
z
" transform="scale(0.015625)"/>
       <path id="DejaVuSans-3a" d="M 750 794 
L 1409 794 
L 1409 0 
L 750 0 
L 750 794 
z
M 750 3309 
L 1409 3309 
L 1409 2516 
L 750 2516 
L 750 3309 
z
" transform="scale(0.015625)"/>
      </defs>
      <use xlink:href="#DejaVuSans-43"/>
      <use xlink:href="#DejaVuSans-6f" x="69.824219"/>
      <use xlink:href="#DejaVuSans-72" x="131.005859"/>
      <use xlink:href="#DejaVuSans-72" x="170.369141"/>
      <use xlink:href="#DejaVuSans-65" x="209.232422"/>
      <use xlink:href="#DejaVuSans-6c" x="270.755859"/>
      <use xlink:href="#DejaVuSans-61" x="298.539062"/>
      <use xlink:href="#DejaVuSans-74" x="359.818359"/>
      <use xlink:href="#DejaVuSans-69" x="399.027344"/>
      <use xlink:href="#DejaVuSans-6f" x="426.810547"/>
      <use xlink:href="#DejaVuSans-6e" x="487.992188"/>
      <use xlink:href="#DejaVuSans-20" x="551.371094"/>
      <use xlink:href="#DejaVuSans-74" x="583.158203"/>
      <use xlink:href="#DejaVuSans-79" x="622.367188"/>
      <use xlink:href="#DejaVuSans-70" x="681.546875"/>
      <use xlink:href="#DejaVuSans-65" x="745.023438"/>
      <use xlink:href="#DejaVuSans-3a" x="806.546875"/>
     </g>
    </g>
    <g id="patch_8">
     <path d="M 53.285156 88.876562 
L 73.285156 88.876562 
L 73.285156 81.876562 
L 53.285156 81.876562 
z
" style="fill: #1f77b4; fill-opacity: 0.5; stroke: #1f77b4; stroke-width: 2.5; stroke-linejoin: miter"/>
    </g>
    <g id="text_17">
     <!-- Codon -->
     <g transform="translate(81.285156 88.876562) scale(0.1 -0.1)">
      <defs>
       <path id="DejaVuSans-64" d="M 2906 2969 
L 2906 4863 
L 3481 4863 
L 3481 0 
L 2906 0 
L 2906 525 
Q 2725 213 2448 61 
Q 2172 -91 1784 -91 
Q 1150 -91 751 415 
Q 353 922 353 1747 
Q 353 2572 751 3078 
Q 1150 3584 1784 3584 
Q 2172 3584 2448 3432 
Q 2725 3281 2906 2969 
z
M 947 1747 
Q 947 1113 1208 752 
Q 1469 391 1925 391 
Q 2381 391 2643 752 
Q 2906 1113 2906 1747 
Q 2906 2381 2643 2742 
Q 2381 3103 1925 3103 
Q 1469 3103 1208 2742 
Q 947 2381 947 1747 
z
" transform="scale(0.015625)"/>
      </defs>
      <use xlink:href="#DejaVuSans-43"/>
      <use xlink:href="#DejaVuSans-6f" x="69.824219"/>
      <use xlink:href="#DejaVuSans-64" x="131.005859"/>
      <use xlink:href="#DejaVuSans-6f" x="194.482422"/>
      <use xlink:href="#DejaVuSans-6e" x="255.664062"/>
     </g>
    </g>
    <g id="patch_9">
     <path d="M 53.285156 103.554688 
L 73.285156 103.554688 
L 73.285156 96.554688 
L 53.285156 96.554688 
z
" style="fill: #ff7f0e; fill-opacity: 0.5; stroke: #ff7f0e; stroke-width: 2.5; stroke-linejoin: miter"/>
    </g>
    <g id="text_18">
     <!-- Codon+GC -->
     <g transform="translate(81.285156 103.554688) scale(0.1 -0.1)">
      <defs>
       <path id="DejaVuSans-2b" d="M 2944 4013 
L 2944 2272 
L 4684 2272 
L 4684 1741 
L 2944 1741 
L 2944 0 
L 2419 0 
L 2419 1741 
L 678 1741 
L 678 2272 
L 2419 2272 
L 2419 4013 
L 2944 4013 
z
" transform="scale(0.015625)"/>
       <path id="DejaVuSans-47" d="M 3809 666 
L 3809 1919 
L 2778 1919 
L 2778 2438 
L 4434 2438 
L 4434 434 
Q 4069 175 3628 42 
Q 3188 -91 2688 -91 
Q 1594 -91 976 548 
Q 359 1188 359 2328 
Q 359 3472 976 4111 
Q 1594 4750 2688 4750 
Q 3144 4750 3555 4637 
Q 3966 4525 4313 4306 
L 4313 3634 
Q 3963 3931 3569 4081 
Q 3175 4231 2741 4231 
Q 1884 4231 1454 3753 
Q 1025 3275 1025 2328 
Q 1025 1384 1454 906 
Q 1884 428 2741 428 
Q 3075 428 3337 486 
Q 3600 544 3809 666 
z
" transform="scale(0.015625)"/>
      </defs>
      <use xlink:href="#DejaVuSans-43"/>
      <use xlink:href="#DejaVuSans-6f" x="69.824219"/>
      <use xlink:href="#DejaVuSans-64" x="131.005859"/>
      <use xlink:href="#DejaVuSans-6f" x="194.482422"/>
      <use xlink:href="#DejaVuSans-6e" x="255.664062"/>
      <use xlink:href="#DejaVuSans-2b" x="319.042969"/>
      <use xlink:href="#DejaVuSans-47" x="402.832031"/>
      <use xlink:href="#DejaVuSans-43" x="480.322266"/>
     </g>
    </g>
   </g>
  </g>
  <g id="axes_2">
   <g id="patch_10">
    <path d="M 43.78125 612 
L 880.78125 612 
L 880.78125 370.956522 
L 43.78125 370.956522 
z
" style="fill: #ffffff"/>
   </g>
   <g id="PolyCollection_3">
    <defs>
     <path id="m33120444c3" d="M 159.240039 -24.006457 
L 159.240039 -23.878125 
L 162.207594 -23.878125 
L 165.175148 -23.878125 
L 168.142703 -23.878125 
L 171.110258 -23.878125 
L 174.077812 -23.878125 
L 177.045367 -23.878125 
L 180.012921 -23.878125 
L 182.980476 -23.878125 
L 185.94803 -23.878125 
L 188.915585 -23.878125 
L 191.88314 -23.878125 
L 194.850694 -23.878125 
L 197.818249 -23.878125 
L 200.785803 -23.878125 
L 203.753358 -23.878125 
L 206.720912 -23.878125 
L 209.688467 -23.878125 
L 212.656022 -23.878125 
L 215.623576 -23.878125 
L 218.591131 -23.878125 
L 221.558685 -23.878125 
L 224.52624 -23.878125 
L 227.493794 -23.878125 
L 230.461349 -23.878125 
L 233.428904 -23.878125 
L 236.396458 -23.878125 
L 239.364013 -23.878125 
L 242.331567 -23.878125 
L 245.299122 -23.878125 
L 248.266676 -23.878125 
L 251.234231 -23.878125 
L 254.201786 -23.878125 
L 257.16934 -23.878125 
L 260.136895 -23.878125 
L 263.104449 -23.878125 
L 266.072004 -23.878125 
L 269.039558 -23.878125 
L 272.007113 -23.878125 
L 274.974668 -23.878125 
L 277.942222 -23.878125 
L 280.909777 -23.878125 
L 283.877331 -23.878125 
L 286.844886 -23.878125 
L 289.81244 -23.878125 
L 292.779995 -23.878125 
L 295.74755 -23.878125 
L 298.715104 -23.878125 
L 301.682659 -23.878125 
L 304.650213 -23.878125 
L 307.617768 -23.878125 
L 310.585322 -23.878125 
L 313.552877 -23.878125 
L 316.520432 -23.878125 
L 319.487986 -23.878125 
L 322.455541 -23.878125 
L 325.423095 -23.878125 
L 328.39065 -23.878125 
L 331.358204 -23.878125 
L 334.325759 -23.878125 
L 337.293314 -23.878125 
L 340.260868 -23.878125 
L 343.228423 -23.878125 
L 346.195977 -23.878125 
L 349.163532 -23.878125 
L 352.131086 -23.878125 
L 355.098641 -23.878125 
L 358.066196 -23.878125 
L 361.03375 -23.878125 
L 364.001305 -23.878125 
L 366.968859 -23.878125 
L 369.936414 -23.878125 
L 372.903968 -23.878125 
L 375.871523 -23.878125 
L 378.839078 -23.878125 
L 381.806632 -23.878125 
L 384.774187 -23.878125 
L 387.741741 -23.878125 
L 390.709296 -23.878125 
L 393.67685 -23.878125 
L 396.644405 -23.878125 
L 399.61196 -23.878125 
L 402.579514 -23.878125 
L 405.547069 -23.878125 
L 408.514623 -23.878125 
L 411.482178 -23.878125 
L 414.449732 -23.878125 
L 417.417287 -23.878125 
L 420.384842 -23.878125 
L 423.352396 -23.878125 
L 426.319951 -23.878125 
L 429.287505 -23.878125 
L 432.25506 -23.878125 
L 435.222614 -23.878125 
L 438.190169 -23.878125 
L 441.157724 -23.878125 
L 444.125278 -23.878125 
L 447.092833 -23.878125 
L 450.060387 -23.878125 
L 453.027942 -23.878125 
L 455.995496 -23.878125 
L 458.963051 -23.878125 
L 461.930606 -23.878125 
L 464.89816 -23.878125 
L 467.865715 -23.878125 
L 470.833269 -23.878125 
L 473.800824 -23.878125 
L 476.768378 -23.878125 
L 479.735933 -23.878125 
L 482.703488 -23.878125 
L 485.671042 -23.878125 
L 488.638597 -23.878125 
L 491.606151 -23.878125 
L 494.573706 -23.878125 
L 497.54126 -23.878125 
L 500.508815 -23.878125 
L 503.47637 -23.878125 
L 506.443924 -23.878125 
L 509.411479 -23.878125 
L 512.379033 -23.878125 
L 515.346588 -23.878125 
L 518.314142 -23.878125 
L 521.281697 -23.878125 
L 524.249252 -23.878125 
L 527.216806 -23.878125 
L 530.184361 -23.878125 
L 533.151915 -23.878125 
L 536.11947 -23.878125 
L 539.087025 -23.878125 
L 542.054579 -23.878125 
L 545.022134 -23.878125 
L 547.989688 -23.878125 
L 550.957243 -23.878125 
L 553.924797 -23.878125 
L 556.892352 -23.878125 
L 559.859907 -23.878125 
L 562.827461 -23.878125 
L 565.795016 -23.878125 
L 568.76257 -23.878125 
L 571.730125 -23.878125 
L 574.697679 -23.878125 
L 577.665234 -23.878125 
L 580.632789 -23.878125 
L 583.600343 -23.878125 
L 586.567898 -23.878125 
L 589.535452 -23.878125 
L 592.503007 -23.878125 
L 595.470561 -23.878125 
L 598.438116 -23.878125 
L 601.405671 -23.878125 
L 604.373225 -23.878125 
L 607.34078 -23.878125 
L 610.308334 -23.878125 
L 613.275889 -23.878125 
L 616.243443 -23.878125 
L 619.210998 -23.878125 
L 622.178553 -23.878125 
L 625.146107 -23.878125 
L 628.113662 -23.878125 
L 631.081216 -23.878125 
L 634.048771 -23.878125 
L 637.016325 -23.878125 
L 639.98388 -23.878125 
L 642.951435 -23.878125 
L 645.918989 -23.878125 
L 648.886544 -23.878125 
L 651.854098 -23.878125 
L 654.821653 -23.878125 
L 657.789207 -23.878125 
L 660.756762 -23.878125 
L 663.724317 -23.878125 
L 666.691871 -23.878125 
L 669.659426 -23.878125 
L 672.62698 -23.878125 
L 675.594535 -23.878125 
L 678.562089 -23.878125 
L 681.529644 -23.878125 
L 684.497199 -23.878125 
L 687.464753 -23.878125 
L 690.432308 -23.878125 
L 693.399862 -23.878125 
L 696.367417 -23.878125 
L 699.334971 -23.878125 
L 702.302526 -23.878125 
L 705.270081 -23.878125 
L 708.237635 -23.878125 
L 711.20519 -23.878125 
L 714.172744 -23.878125 
L 717.140299 -23.878125 
L 720.107853 -23.878125 
L 723.075408 -23.878125 
L 726.042963 -23.878125 
L 729.010517 -23.878125 
L 731.978072 -23.878125 
L 734.945626 -23.878125 
L 737.913181 -23.878125 
L 740.880735 -23.878125 
L 743.84829 -23.878125 
L 746.815845 -23.878125 
L 749.783399 -23.878125 
L 749.783399 -24.038597 
L 749.783399 -24.038597 
L 746.815845 -24.085117 
L 743.84829 -24.143308 
L 740.880735 -24.215563 
L 737.913181 -24.304617 
L 734.945626 -24.41357 
L 731.978072 -24.545893 
L 729.010517 -24.705428 
L 726.042963 -24.896378 
L 723.075408 -25.123287 
L 720.107853 -25.391009 
L 717.140299 -25.704659 
L 714.172744 -26.069566 
L 711.20519 -26.491206 
L 708.237635 -26.975137 
L 705.270081 -27.526929 
L 702.302526 -28.152099 
L 699.334971 -28.856055 
L 696.367417 -29.644051 
L 693.399862 -30.521167 
L 690.432308 -31.492313 
L 687.464753 -32.562263 
L 684.497199 -33.735725 
L 681.529644 -35.01744 
L 678.562089 -36.412325 
L 675.594535 -37.925639 
L 672.62698 -39.563174 
L 669.659426 -41.331464 
L 666.691871 -43.237991 
L 663.724317 -45.291383 
L 660.756762 -47.50158 
L 657.789207 -49.87995 
L 654.821653 -52.439353 
L 651.854098 -55.194102 
L 648.886544 -58.159853 
L 645.918989 -61.353363 
L 642.951435 -64.792153 
L 639.98388 -68.494044 
L 637.016325 -72.47658 
L 634.048771 -76.756357 
L 631.081216 -81.34826 
L 628.113662 -86.264641 
L 625.146107 -91.51446 
L 622.178553 -97.102438 
L 619.210998 -103.028232 
L 616.243443 -109.285698 
L 613.275889 -115.862262 
L 610.308334 -122.738453 
L 607.34078 -129.887607 
L 604.373225 -137.275796 
L 601.405671 -144.861989 
L 598.438116 -152.598452 
L 595.470561 -160.431403 
L 592.503007 -168.3019 
L 589.535452 -176.14695 
L 586.567898 -183.900802 
L 583.600343 -191.4964 
L 580.632789 -198.866923 
L 577.665234 -205.947389 
L 574.697679 -212.676239 
L 571.730125 -218.99686 
L 568.76257 -224.858982 
L 565.795016 -230.219903 
L 562.827461 -235.045487 
L 559.859907 -239.310903 
L 556.892352 -243.001081 
L 553.924797 -246.110864 
L 550.957243 -248.64485 
L 547.989688 -250.616952 
L 545.022134 -252.049661 
L 542.054579 -252.973085 
L 539.087025 -253.423765 
L 536.11947 -253.443342 
L 533.151915 -253.077111 
L 530.184361 -252.372513 
L 527.216806 -251.37763 
L 524.249252 -250.139728 
L 521.281697 -248.703887 
L 518.314142 -247.111771 
L 515.346588 -245.400577 
L 512.379033 -243.602166 
L 509.411479 -241.742431 
L 506.443924 -239.840882 
L 503.47637 -237.910468 
L 500.508815 -235.957628 
L 497.54126 -233.982556 
L 494.573706 -231.979664 
L 491.606151 -229.938214 
L 488.638597 -227.8431 
L 485.671042 -225.675743 
L 482.703488 -223.415065 
L 479.735933 -221.038506 
L 476.768378 -218.523067 
L 473.800824 -215.846324 
L 470.833269 -212.9874 
L 467.865715 -209.927866 
L 464.89816 -206.652545 
L 461.930606 -203.150198 
L 458.963051 -199.414083 
L 455.995496 -195.442376 
L 453.027942 -191.238432 
L 450.060387 -186.810897 
L 447.092833 -182.173665 
L 444.125278 -177.345676 
L 441.157724 -172.35057 
L 438.190169 -167.216196 
L 435.222614 -161.973999 
L 432.25506 -156.658283 
L 429.287505 -151.305397 
L 426.319951 -145.952832 
L 423.352396 -140.638288 
L 420.384842 -135.398712 
L 417.417287 -130.269358 
L 414.449732 -125.282889 
L 411.482178 -120.468552 
L 408.514623 -115.851464 
L 405.547069 -111.452032 
L 402.579514 -107.285527 
L 399.61196 -103.361836 
L 396.644405 -99.685402 
L 393.67685 -96.255346 
L 390.709296 -93.065785 
L 387.741741 -90.106321 
L 384.774187 -87.362674 
L 381.806632 -84.81746 
L 378.839078 -82.451042 
L 375.871523 -80.242455 
L 372.903968 -78.170339 
L 369.936414 -76.213845 
L 366.968859 -74.353486 
L 364.001305 -72.571886 
L 361.03375 -70.854393 
L 358.066196 -69.189542 
L 355.098641 -67.569343 
L 352.131086 -65.989387 
L 349.163532 -64.448768 
L 346.195977 -62.94983 
L 343.228423 -61.497757 
L 340.260868 -60.100026 
L 337.293314 -58.765756 
L 334.325759 -57.504979 
L 331.358204 -56.327884 
L 328.39065 -55.244055 
L 325.423095 -54.261756 
L 322.455541 -53.387279 
L 319.487986 -52.624411 
L 316.520432 -51.974014 
L 313.552877 -51.433766 
L 310.585322 -50.99805 
L 307.617768 -50.658012 
L 304.650213 -50.40177 
L 301.682659 -50.214772 
L 298.715104 -50.080274 
L 295.74755 -49.97993 
L 292.779995 -49.894441 
L 289.81244 -49.804254 
L 286.844886 -49.690266 
L 283.877331 -49.534503 
L 280.909777 -49.320748 
L 277.942222 -49.035081 
L 274.974668 -48.666323 
L 272.007113 -48.206356 
L 269.039558 -47.650312 
L 266.072004 -46.996637 
L 263.104449 -46.247015 
L 260.136895 -45.406182 
L 257.16934 -44.481623 
L 254.201786 -43.483192 
L 251.234231 -42.42266 
L 248.266676 -41.313218 
L 245.299122 -40.168968 
L 242.331567 -39.004412 
L 239.364013 -37.833967 
L 236.396458 -36.671523 
L 233.428904 -35.530059 
L 230.461349 -34.421327 
L 227.493794 -33.355605 
L 224.52624 -32.341534 
L 221.558685 -31.386022 
L 218.591131 -30.494227 
L 215.623576 -29.669597 
L 212.656022 -28.913963 
L 209.688467 -28.22768 
L 206.720912 -27.609794 
L 203.753358 -27.058236 
L 200.785803 -26.570024 
L 197.818249 -26.141461 
L 194.850694 -25.768336 
L 191.88314 -25.446103 
L 188.915585 -25.170044 
L 185.94803 -24.935414 
L 182.980476 -24.737562 
L 180.012921 -24.572019 
L 177.045367 -24.434579 
L 174.077812 -24.321346 
L 171.110258 -24.228768 
L 168.142703 -24.153649 
L 165.175148 -24.093158 
L 162.207594 -24.04481 
L 159.240039 -24.006457 
z
" style="stroke: #ff7f0e; stroke-width: 2.5"/>
    </defs>
    <g clip-path="url(#p68da4cda39)">
     <use xlink:href="#m33120444c3" x="0" y="635.878125" style="fill: #ff7f0e; fill-opacity: 0.5; stroke: #ff7f0e; stroke-width: 2.5"/>
    </g>
   </g>
   <g id="PolyCollection_4">
    <defs>
     <path id="me8759b1f52" d="M 145.282056 -23.995669 
L 145.282056 -23.878125 
L 148.802033 -23.878125 
L 152.32201 -23.878125 
L 155.841987 -23.878125 
L 159.361964 -23.878125 
L 162.881941 -23.878125 
L 166.401918 -23.878125 
L 169.921895 -23.878125 
L 173.441872 -23.878125 
L 176.961849 -23.878125 
L 180.481826 -23.878125 
L 184.001803 -23.878125 
L 187.52178 -23.878125 
L 191.041757 -23.878125 
L 194.561734 -23.878125 
L 198.081711 -23.878125 
L 201.601688 -23.878125 
L 205.121665 -23.878125 
L 208.641642 -23.878125 
L 212.161619 -23.878125 
L 215.681596 -23.878125 
L 219.201573 -23.878125 
L 222.72155 -23.878125 
L 226.241527 -23.878125 
L 229.761504 -23.878125 
L 233.281481 -23.878125 
L 236.801458 -23.878125 
L 240.321435 -23.878125 
L 243.841412 -23.878125 
L 247.361389 -23.878125 
L 250.881366 -23.878125 
L 254.401343 -23.878125 
L 257.92132 -23.878125 
L 261.441297 -23.878125 
L 264.961274 -23.878125 
L 268.481251 -23.878125 
L 272.001228 -23.878125 
L 275.521205 -23.878125 
L 279.041182 -23.878125 
L 282.561159 -23.878125 
L 286.081136 -23.878125 
L 289.601113 -23.878125 
L 293.12109 -23.878125 
L 296.641067 -23.878125 
L 300.161044 -23.878125 
L 303.681021 -23.878125 
L 307.200998 -23.878125 
L 310.720975 -23.878125 
L 314.240952 -23.878125 
L 317.760929 -23.878125 
L 321.280906 -23.878125 
L 324.800883 -23.878125 
L 328.32086 -23.878125 
L 331.840837 -23.878125 
L 335.360814 -23.878125 
L 338.880791 -23.878125 
L 342.400768 -23.878125 
L 345.920745 -23.878125 
L 349.440722 -23.878125 
L 352.960699 -23.878125 
L 356.480676 -23.878125 
L 360.000653 -23.878125 
L 363.52063 -23.878125 
L 367.040607 -23.878125 
L 370.560584 -23.878125 
L 374.080561 -23.878125 
L 377.600538 -23.878125 
L 381.120515 -23.878125 
L 384.640492 -23.878125 
L 388.160469 -23.878125 
L 391.680446 -23.878125 
L 395.200423 -23.878125 
L 398.7204 -23.878125 
L 402.240377 -23.878125 
L 405.760354 -23.878125 
L 409.280331 -23.878125 
L 412.800308 -23.878125 
L 416.320285 -23.878125 
L 419.840262 -23.878125 
L 423.360239 -23.878125 
L 426.880216 -23.878125 
L 430.400193 -23.878125 
L 433.92017 -23.878125 
L 437.440147 -23.878125 
L 440.960124 -23.878125 
L 444.480101 -23.878125 
L 448.000078 -23.878125 
L 451.520055 -23.878125 
L 455.040032 -23.878125 
L 458.560009 -23.878125 
L 462.079986 -23.878125 
L 465.599963 -23.878125 
L 469.11994 -23.878125 
L 472.639917 -23.878125 
L 476.159894 -23.878125 
L 479.679871 -23.878125 
L 483.199848 -23.878125 
L 486.719825 -23.878125 
L 490.239802 -23.878125 
L 493.759779 -23.878125 
L 497.279756 -23.878125 
L 500.799733 -23.878125 
L 504.31971 -23.878125 
L 507.839687 -23.878125 
L 511.359664 -23.878125 
L 514.879641 -23.878125 
L 518.399618 -23.878125 
L 521.919595 -23.878125 
L 525.439572 -23.878125 
L 528.959549 -23.878125 
L 532.479526 -23.878125 
L 535.999503 -23.878125 
L 539.51948 -23.878125 
L 543.039457 -23.878125 
L 546.559434 -23.878125 
L 550.079411 -23.878125 
L 553.599388 -23.878125 
L 557.119365 -23.878125 
L 560.639342 -23.878125 
L 564.159319 -23.878125 
L 567.679296 -23.878125 
L 571.199273 -23.878125 
L 574.71925 -23.878125 
L 578.239227 -23.878125 
L 581.759204 -23.878125 
L 585.279181 -23.878125 
L 588.799158 -23.878125 
L 592.319135 -23.878125 
L 595.839112 -23.878125 
L 599.359089 -23.878125 
L 602.879066 -23.878125 
L 606.399043 -23.878125 
L 609.91902 -23.878125 
L 613.438997 -23.878125 
L 616.958974 -23.878125 
L 620.478951 -23.878125 
L 623.998928 -23.878125 
L 627.518905 -23.878125 
L 631.038882 -23.878125 
L 634.558859 -23.878125 
L 638.078836 -23.878125 
L 641.598813 -23.878125 
L 645.11879 -23.878125 
L 648.638767 -23.878125 
L 652.158744 -23.878125 
L 655.678721 -23.878125 
L 659.198698 -23.878125 
L 662.718675 -23.878125 
L 666.238652 -23.878125 
L 669.758629 -23.878125 
L 673.278606 -23.878125 
L 676.798583 -23.878125 
L 680.31856 -23.878125 
L 683.838537 -23.878125 
L 687.358514 -23.878125 
L 690.878491 -23.878125 
L 694.398468 -23.878125 
L 697.918445 -23.878125 
L 701.438422 -23.878125 
L 704.958399 -23.878125 
L 708.478376 -23.878125 
L 711.998353 -23.878125 
L 715.51833 -23.878125 
L 719.038307 -23.878125 
L 722.558284 -23.878125 
L 726.078261 -23.878125 
L 729.598238 -23.878125 
L 733.118215 -23.878125 
L 736.638192 -23.878125 
L 740.158169 -23.878125 
L 743.678146 -23.878125 
L 747.198123 -23.878125 
L 750.7181 -23.878125 
L 754.238077 -23.878125 
L 757.758054 -23.878125 
L 761.278031 -23.878125 
L 764.798008 -23.878125 
L 768.317985 -23.878125 
L 771.837962 -23.878125 
L 775.357939 -23.878125 
L 778.877916 -23.878125 
L 782.397893 -23.878125 
L 785.91787 -23.878125 
L 789.437847 -23.878125 
L 792.957824 -23.878125 
L 796.477801 -23.878125 
L 799.997778 -23.878125 
L 803.517755 -23.878125 
L 807.037732 -23.878125 
L 810.557709 -23.878125 
L 814.077686 -23.878125 
L 817.597663 -23.878125 
L 821.11764 -23.878125 
L 824.637617 -23.878125 
L 828.157594 -23.878125 
L 831.677571 -23.878125 
L 835.197548 -23.878125 
L 838.717525 -23.878125 
L 842.237502 -23.878125 
L 845.757479 -23.878125 
L 845.757479 -23.953643 
L 845.757479 -23.953643 
L 842.237502 -23.975081 
L 838.717525 -24.001815 
L 835.197548 -24.034925 
L 831.677571 -24.075655 
L 828.157594 -24.125418 
L 824.637617 -24.185811 
L 821.11764 -24.258617 
L 817.597663 -24.34581 
L 814.077686 -24.44955 
L 810.557709 -24.572182 
L 807.037732 -24.716221 
L 803.517755 -24.884343 
L 799.997778 -25.079361 
L 796.477801 -25.304205 
L 792.957824 -25.561895 
L 789.437847 -25.855512 
L 785.91787 -26.188167 
L 782.397893 -26.562974 
L 778.877916 -26.983015 
L 775.357939 -27.451321 
L 771.837962 -27.970841 
L 768.317985 -28.544427 
L 764.798008 -29.174822 
L 761.278031 -29.864648 
L 757.758054 -30.61641 
L 754.238077 -31.432494 
L 750.7181 -32.31518 
L 747.198123 -33.26665 
L 743.678146 -34.289009 
L 740.158169 -35.384295 
L 736.638192 -36.554501 
L 733.118215 -37.801583 
L 729.598238 -39.127478 
L 726.078261 -40.534109 
L 722.558284 -42.02339 
L 719.038307 -43.59723 
L 715.51833 -45.257528 
L 711.998353 -47.006169 
L 708.478376 -48.845017 
L 704.958399 -50.77591 
L 701.438422 -52.800654 
L 697.918445 -54.921017 
L 694.398468 -57.138729 
L 690.878491 -59.455477 
L 687.358514 -61.872912 
L 683.838537 -64.392648 
L 680.31856 -67.016259 
L 676.798583 -69.74528 
L 673.278606 -72.581192 
L 669.758629 -75.525403 
L 666.238652 -78.579213 
L 662.718675 -81.743767 
L 659.198698 -85.019983 
L 655.678721 -88.408467 
L 652.158744 -91.909399 
L 648.638767 -95.52241 
L 645.11879 -99.246422 
L 641.598813 -103.079488 
L 638.078836 -107.018607 
L 634.558859 -111.059538 
L 631.038882 -115.196606 
L 627.518905 -119.422518 
L 623.998928 -123.728193 
L 620.478951 -128.102609 
L 616.958974 -132.532689 
L 613.438997 -137.003218 
L 609.91902 -141.496818 
L 606.399043 -145.993974 
L 602.879066 -150.47312 
L 599.359089 -154.910801 
L 595.839112 -159.281892 
L 592.319135 -163.559904 
L 588.799158 -167.71734 
L 585.279181 -171.726126 
L 581.759204 -175.558094 
L 578.239227 -179.185501 
L 574.71925 -182.581588 
L 571.199273 -185.721141 
L 567.679296 -188.581056 
L 564.159319 -191.140874 
L 560.639342 -193.38327 
L 557.119365 -195.294488 
L 553.599388 -196.864685 
L 550.079411 -198.088183 
L 546.559434 -198.96362 
L 543.039457 -199.493976 
L 539.51948 -199.686487 
L 535.999503 -199.552446 
L 532.479526 -199.106888 
L 528.959549 -198.368186 
L 525.439572 -197.357556 
L 521.919595 -196.098511 
L 518.399618 -194.616263 
L 514.879641 -192.937114 
L 511.359664 -191.087848 
L 507.839687 -189.095148 
L 504.31971 -186.985067 
L 500.799733 -184.782547 
L 497.279756 -182.511029 
L 493.759779 -180.192137 
L 490.239802 -177.845453 
L 486.719825 -175.488384 
L 483.199848 -173.136105 
L 479.679871 -170.801587 
L 476.159894 -168.495679 
L 472.639917 -166.227249 
L 469.11994 -164.003352 
L 465.599963 -161.829419 
L 462.079986 -159.709451 
L 458.560009 -157.646192 
L 455.040032 -155.641281 
L 451.520055 -153.695364 
L 448.000078 -151.808165 
L 444.480101 -149.978504 
L 440.960124 -148.204273 
L 437.440147 -146.482369 
L 433.92017 -144.808596 
L 430.400193 -143.177549 
L 426.880216 -141.582498 
L 423.360239 -140.015288 
L 419.840262 -138.466279 
L 416.320285 -136.924341 
L 412.800308 -135.37692 
L 409.280331 -133.810196 
L 405.760354 -132.209336 
L 402.240377 -130.558837 
L 398.7204 -128.842975 
L 395.200423 -127.046323 
L 391.680446 -125.154335 
L 388.160469 -123.153969 
L 384.640492 -121.034309 
L 381.120515 -118.78716 
L 377.600538 -116.407583 
L 374.080561 -113.894319 
L 370.560584 -111.2501 
L 367.040607 -108.481787 
L 363.52063 -105.60035 
L 360.000653 -102.620662 
L 356.480676 -99.561113 
L 352.960699 -96.443065 
L 349.440722 -93.290159 
L 345.920745 -90.127513 
L 342.400768 -86.980847 
L 338.880791 -83.875576 
L 335.360814 -80.835918 
L 331.840837 -77.884057 
L 328.32086 -75.039412 
L 324.800883 -72.318029 
L 321.280906 -69.732137 
L 317.760929 -67.289887 
L 314.240952 -64.995271 
L 310.720975 -62.84822 
L 307.200998 -60.844882 
L 303.681021 -58.978046 
L 300.161044 -57.237685 
L 296.641067 -55.611592 
L 293.12109 -54.086068 
L 289.601113 -52.646628 
L 286.081136 -51.278686 
L 282.561159 -49.968194 
L 279.041182 -48.702197 
L 275.521205 -47.469294 
L 272.001228 -46.259986 
L 268.481251 -45.066903 
L 264.961274 -43.884906 
L 261.441297 -42.711084 
L 257.92132 -41.544635 
L 254.401343 -40.386668 
L 250.881366 -39.239934 
L 247.361389 -38.108504 
L 243.841412 -36.997419 
L 240.321435 -35.912341 
L 236.801458 -34.859194 
L 233.281481 -33.843852 
L 229.761504 -32.871849 
L 226.241527 -31.948144 
L 222.72155 -31.076931 
L 219.201573 -30.261513 
L 215.681596 -29.504224 
L 212.161619 -28.806397 
L 208.641642 -28.168388 
L 205.121665 -27.589631 
L 201.601688 -27.068722 
L 198.081711 -26.603528 
L 194.561734 -26.191311 
L 191.041757 -25.828859 
L 187.52178 -25.512612 
L 184.001803 -25.238788 
L 180.481826 -25.003498 
L 176.961849 -24.802849 
L 173.441872 -24.633026 
L 169.921895 -24.49037 
L 166.401918 -24.371426 
L 162.881941 -24.272988 
L 159.361964 -24.192121 
L 155.841987 -24.126176 
L 152.32201 -24.072793 
L 148.802033 -24.029893 
L 145.282056 -23.995669 
z
" style="stroke: #1f77b4; stroke-width: 2.5"/>
    </defs>
    <g clip-path="url(#p68da4cda39)">
     <use xlink:href="#me8759b1f52" x="0" y="635.878125" style="fill: #1f77b4; fill-opacity: 0.5; stroke: #1f77b4; stroke-width: 2.5"/>
    </g>
   </g>
   <g id="matplotlib.axis_3">
    <g id="xtick_6">
     <g id="line2d_14">
      <g>
       <use xlink:href="#m46ab6d4666" x="137.534342" y="612" style="stroke: #000000; stroke-width: 0.8"/>
      </g>
     </g>
     <g id="text_19">
      <!-- 0.0 -->
      <g transform="translate(129.58278 626.598438) scale(0.1 -0.1)">
       <use xlink:href="#DejaVuSans-30"/>
       <use xlink:href="#DejaVuSans-2e" x="63.623047"/>
       <use xlink:href="#DejaVuSans-30" x="95.410156"/>
      </g>
     </g>
    </g>
    <g id="xtick_7">
     <g id="line2d_15">
      <g>
       <use xlink:href="#m46ab6d4666" x="289.707871" y="612" style="stroke: #000000; stroke-width: 0.8"/>
      </g>
     </g>
     <g id="text_20">
      <!-- 0.2 -->
      <g transform="translate(281.756309 626.598438) scale(0.1 -0.1)">
       <use xlink:href="#DejaVuSans-30"/>
       <use xlink:href="#DejaVuSans-2e" x="63.623047"/>
       <use xlink:href="#DejaVuSans-32" x="95.410156"/>
      </g>
     </g>
    </g>
    <g id="xtick_8">
     <g id="line2d_16">
      <g>
       <use xlink:href="#m46ab6d4666" x="441.881401" y="612" style="stroke: #000000; stroke-width: 0.8"/>
      </g>
     </g>
     <g id="text_21">
      <!-- 0.4 -->
      <g transform="translate(433.929838 626.598438) scale(0.1 -0.1)">
       <use xlink:href="#DejaVuSans-30"/>
       <use xlink:href="#DejaVuSans-2e" x="63.623047"/>
       <use xlink:href="#DejaVuSans-34" x="95.410156"/>
      </g>
     </g>
    </g>
    <g id="xtick_9">
     <g id="line2d_17">
      <g>
       <use xlink:href="#m46ab6d4666" x="594.05493" y="612" style="stroke: #000000; stroke-width: 0.8"/>
      </g>
     </g>
     <g id="text_22">
      <!-- 0.6 -->
      <g transform="translate(586.103367 626.598438) scale(0.1 -0.1)">
       <use xlink:href="#DejaVuSans-30"/>
       <use xlink:href="#DejaVuSans-2e" x="63.623047"/>
       <use xlink:href="#DejaVuSans-36" x="95.410156"/>
      </g>
     </g>
    </g>
    <g id="xtick_10">
     <g id="line2d_18">
      <g>
       <use xlink:href="#m46ab6d4666" x="746.228459" y="612" style="stroke: #000000; stroke-width: 0.8"/>
      </g>
     </g>
     <g id="text_23">
      <!-- 0.8 -->
      <g transform="translate(738.276896 626.598438) scale(0.1 -0.1)">
       <use xlink:href="#DejaVuSans-30"/>
       <use xlink:href="#DejaVuSans-2e" x="63.623047"/>
       <use xlink:href="#DejaVuSans-38" x="95.410156"/>
      </g>
     </g>
    </g>
   </g>
   <g id="matplotlib.axis_4">
    <g id="ytick_9">
     <g id="line2d_19">
      <g>
       <use xlink:href="#m846721b909" x="43.78125" y="612" style="stroke: #000000; stroke-width: 0.8"/>
      </g>
     </g>
     <g id="text_24">
      <!-- 0.0 -->
      <g transform="translate(20.878125 615.799219) scale(0.1 -0.1)">
       <use xlink:href="#DejaVuSans-30"/>
       <use xlink:href="#DejaVuSans-2e" x="63.623047"/>
       <use xlink:href="#DejaVuSans-30" x="95.410156"/>
      </g>
     </g>
    </g>
    <g id="ytick_10">
     <g id="line2d_20">
      <g>
       <use xlink:href="#m846721b909" x="43.78125" y="581.417929" style="stroke: #000000; stroke-width: 0.8"/>
      </g>
     </g>
     <g id="text_25">
      <!-- 0.5 -->
      <g transform="translate(20.878125 585.217147) scale(0.1 -0.1)">
       <use xlink:href="#DejaVuSans-30"/>
       <use xlink:href="#DejaVuSans-2e" x="63.623047"/>
       <use xlink:href="#DejaVuSans-35" x="95.410156"/>
      </g>
     </g>
    </g>
    <g id="ytick_11">
     <g id="line2d_21">
      <g>
       <use xlink:href="#m846721b909" x="43.78125" y="550.835857" style="stroke: #000000; stroke-width: 0.8"/>
      </g>
     </g>
     <g id="text_26">
      <!-- 1.0 -->
      <g transform="translate(20.878125 554.635076) scale(0.1 -0.1)">
       <use xlink:href="#DejaVuSans-31"/>
       <use xlink:href="#DejaVuSans-2e" x="63.623047"/>
       <use xlink:href="#DejaVuSans-30" x="95.410156"/>
      </g>
     </g>
    </g>
    <g id="ytick_12">
     <g id="line2d_22">
      <g>
       <use xlink:href="#m846721b909" x="43.78125" y="520.253786" style="stroke: #000000; stroke-width: 0.8"/>
      </g>
     </g>
     <g id="text_27">
      <!-- 1.5 -->
      <g transform="translate(20.878125 524.053004) scale(0.1 -0.1)">
       <use xlink:href="#DejaVuSans-31"/>
       <use xlink:href="#DejaVuSans-2e" x="63.623047"/>
       <use xlink:href="#DejaVuSans-35" x="95.410156"/>
      </g>
     </g>
    </g>
    <g id="ytick_13">
     <g id="line2d_23">
      <g>
       <use xlink:href="#m846721b909" x="43.78125" y="489.671714" style="stroke: #000000; stroke-width: 0.8"/>
      </g>
     </g>
     <g id="text_28">
      <!-- 2.0 -->
      <g transform="translate(20.878125 493.470933) scale(0.1 -0.1)">
       <use xlink:href="#DejaVuSans-32"/>
       <use xlink:href="#DejaVuSans-2e" x="63.623047"/>
       <use xlink:href="#DejaVuSans-30" x="95.410156"/>
      </g>
     </g>
    </g>
    <g id="ytick_14">
     <g id="line2d_24">
      <g>
       <use xlink:href="#m846721b909" x="43.78125" y="459.089643" style="stroke: #000000; stroke-width: 0.8"/>
      </g>
     </g>
     <g id="text_29">
      <!-- 2.5 -->
      <g transform="translate(20.878125 462.888861) scale(0.1 -0.1)">
       <use xlink:href="#DejaVuSans-32"/>
       <use xlink:href="#DejaVuSans-2e" x="63.623047"/>
       <use xlink:href="#DejaVuSans-35" x="95.410156"/>
      </g>
     </g>
    </g>
    <g id="ytick_15">
     <g id="line2d_25">
      <g>
       <use xlink:href="#m846721b909" x="43.78125" y="428.507571" style="stroke: #000000; stroke-width: 0.8"/>
      </g>
     </g>
     <g id="text_30">
      <!-- 3.0 -->
      <g transform="translate(20.878125 432.30679) scale(0.1 -0.1)">
       <use xlink:href="#DejaVuSans-33"/>
       <use xlink:href="#DejaVuSans-2e" x="63.623047"/>
       <use xlink:href="#DejaVuSans-30" x="95.410156"/>
      </g>
     </g>
    </g>
    <g id="ytick_16">
     <g id="line2d_26">
      <g>
       <use xlink:href="#m846721b909" x="43.78125" y="397.9255" style="stroke: #000000; stroke-width: 0.8"/>
      </g>
     </g>
     <g id="text_31">
      <!-- 3.5 -->
      <g transform="translate(20.878125 401.724718) scale(0.1 -0.1)">
       <use xlink:href="#DejaVuSans-33"/>
       <use xlink:href="#DejaVuSans-2e" x="63.623047"/>
       <use xlink:href="#DejaVuSans-35" x="95.410156"/>
      </g>
     </g>
    </g>
    <g id="text_32">
     <!-- Density -->
     <g transform="translate(14.798438 510.486855) rotate(-90) scale(0.1 -0.1)">
      <use xlink:href="#DejaVuSans-44"/>
      <use xlink:href="#DejaVuSans-65" x="77.001953"/>
      <use xlink:href="#DejaVuSans-6e" x="138.525391"/>
      <use xlink:href="#DejaVuSans-73" x="201.904297"/>
      <use xlink:href="#DejaVuSans-69" x="254.003906"/>
      <use xlink:href="#DejaVuSans-74" x="281.787109"/>
      <use xlink:href="#DejaVuSans-79" x="320.996094"/>
     </g>
    </g>
   </g>
   <g id="patch_11">
    <path d="M 43.78125 612 
L 43.78125 370.956522 
" style="fill: none; stroke: #000000; stroke-width: 0.8; stroke-linejoin: miter; stroke-linecap: square"/>
   </g>
   <g id="patch_12">
    <path d="M 880.78125 612 
L 880.78125 370.956522 
" style="fill: none; stroke: #000000; stroke-width: 0.8; stroke-linejoin: miter; stroke-linecap: square"/>
   </g>
   <g id="patch_13">
    <path d="M 43.78125 612 
L 880.78125 612 
" style="fill: none; stroke: #000000; stroke-width: 0.8; stroke-linejoin: miter; stroke-linecap: square"/>
   </g>
   <g id="patch_14">
    <path d="M 43.78125 370.956522 
L 880.78125 370.956522 
" style="fill: none; stroke: #000000; stroke-width: 0.8; stroke-linejoin: miter; stroke-linecap: square"/>
   </g>
   <g id="text_33">
    <!-- Spearman correlation coefficients -->
    <g transform="translate(361.111875 364.956522) scale(0.12 -0.12)">
     <defs>
      <path id="DejaVuSans-53" d="M 3425 4513 
L 3425 3897 
Q 3066 4069 2747 4153 
Q 2428 4238 2131 4238 
Q 1616 4238 1336 4038 
Q 1056 3838 1056 3469 
Q 1056 3159 1242 3001 
Q 1428 2844 1947 2747 
L 2328 2669 
Q 3034 2534 3370 2195 
Q 3706 1856 3706 1288 
Q 3706 609 3251 259 
Q 2797 -91 1919 -91 
Q 1588 -91 1214 -16 
Q 841 59 441 206 
L 441 856 
Q 825 641 1194 531 
Q 1563 422 1919 422 
Q 2459 422 2753 634 
Q 3047 847 3047 1241 
Q 3047 1584 2836 1778 
Q 2625 1972 2144 2069 
L 1759 2144 
Q 1053 2284 737 2584 
Q 422 2884 422 3419 
Q 422 4038 858 4394 
Q 1294 4750 2059 4750 
Q 2388 4750 2728 4690 
Q 3069 4631 3425 4513 
z
" transform="scale(0.015625)"/>
      <path id="DejaVuSans-6d" d="M 3328 2828 
Q 3544 3216 3844 3400 
Q 4144 3584 4550 3584 
Q 5097 3584 5394 3201 
Q 5691 2819 5691 2113 
L 5691 0 
L 5113 0 
L 5113 2094 
Q 5113 2597 4934 2840 
Q 4756 3084 4391 3084 
Q 3944 3084 3684 2787 
Q 3425 2491 3425 1978 
L 3425 0 
L 2847 0 
L 2847 2094 
Q 2847 2600 2669 2842 
Q 2491 3084 2119 3084 
Q 1678 3084 1418 2786 
Q 1159 2488 1159 1978 
L 1159 0 
L 581 0 
L 581 3500 
L 1159 3500 
L 1159 2956 
Q 1356 3278 1631 3431 
Q 1906 3584 2284 3584 
Q 2666 3584 2933 3390 
Q 3200 3197 3328 2828 
z
" transform="scale(0.015625)"/>
     </defs>
     <use xlink:href="#DejaVuSans-53"/>
     <use xlink:href="#DejaVuSans-70" x="63.476562"/>
     <use xlink:href="#DejaVuSans-65" x="126.953125"/>
     <use xlink:href="#DejaVuSans-61" x="188.476562"/>
     <use xlink:href="#DejaVuSans-72" x="249.755859"/>
     <use xlink:href="#DejaVuSans-6d" x="289.119141"/>
     <use xlink:href="#DejaVuSans-61" x="386.53125"/>
     <use xlink:href="#DejaVuSans-6e" x="447.810547"/>
     <use xlink:href="#DejaVuSans-20" x="511.189453"/>
     <use xlink:href="#DejaVuSans-63" x="542.976562"/>
     <use xlink:href="#DejaVuSans-6f" x="597.957031"/>
     <use xlink:href="#DejaVuSans-72" x="659.138672"/>
     <use xlink:href="#DejaVuSans-72" x="698.501953"/>
     <use xlink:href="#DejaVuSans-65" x="737.365234"/>
     <use xlink:href="#DejaVuSans-6c" x="798.888672"/>
     <use xlink:href="#DejaVuSans-61" x="826.671875"/>
     <use xlink:href="#DejaVuSans-74" x="887.951172"/>
     <use xlink:href="#DejaVuSans-69" x="927.160156"/>
     <use xlink:href="#DejaVuSans-6f" x="954.943359"/>
     <use xlink:href="#DejaVuSans-6e" x="1016.125"/>
     <use xlink:href="#DejaVuSans-20" x="1079.503906"/>
     <use xlink:href="#DejaVuSans-63" x="1111.291016"/>
     <use xlink:href="#DejaVuSans-6f" x="1166.271484"/>
     <use xlink:href="#DejaVuSans-65" x="1227.453125"/>
     <use xlink:href="#DejaVuSans-66" x="1288.976562"/>
     <use xlink:href="#DejaVuSans-66" x="1324.181641"/>
     <use xlink:href="#DejaVuSans-69" x="1359.386719"/>
     <use xlink:href="#DejaVuSans-63" x="1387.169922"/>
     <use xlink:href="#DejaVuSans-69" x="1442.150391"/>
     <use xlink:href="#DejaVuSans-65" x="1469.933594"/>
     <use xlink:href="#DejaVuSans-6e" x="1531.457031"/>
     <use xlink:href="#DejaVuSans-74" x="1594.835938"/>
     <use xlink:href="#DejaVuSans-73" x="1634.044922"/>
    </g>
   </g>
   <g id="legend_2">
    <g id="patch_15">
     <path d="M 50.78125 422.990897 
L 138.80625 422.990897 
Q 140.80625 422.990897 140.80625 420.990897 
L 140.80625 377.956522 
Q 140.80625 375.956522 138.80625 375.956522 
L 50.78125 375.956522 
Q 48.78125 375.956522 48.78125 377.956522 
L 48.78125 420.990897 
Q 48.78125 422.990897 50.78125 422.990897 
z
" style="fill: #ffffff; opacity: 0.8; stroke: #cccccc; stroke-linejoin: miter"/>
    </g>
    <g id="text_34">
     <!-- Correlation type: -->
     <g transform="translate(52.78125 387.554959) scale(0.1 -0.1)">
      <use xlink:href="#DejaVuSans-43"/>
      <use xlink:href="#DejaVuSans-6f" x="69.824219"/>
      <use xlink:href="#DejaVuSans-72" x="131.005859"/>
      <use xlink:href="#DejaVuSans-72" x="170.369141"/>
      <use xlink:href="#DejaVuSans-65" x="209.232422"/>
      <use xlink:href="#DejaVuSans-6c" x="270.755859"/>
      <use xlink:href="#DejaVuSans-61" x="298.539062"/>
      <use xlink:href="#DejaVuSans-74" x="359.818359"/>
      <use xlink:href="#DejaVuSans-69" x="399.027344"/>
      <use xlink:href="#DejaVuSans-6f" x="426.810547"/>
      <use xlink:href="#DejaVuSans-6e" x="487.992188"/>
      <use xlink:href="#DejaVuSans-20" x="551.371094"/>
      <use xlink:href="#DejaVuSans-74" x="583.158203"/>
      <use xlink:href="#DejaVuSans-79" x="622.367188"/>
      <use xlink:href="#DejaVuSans-70" x="681.546875"/>
      <use xlink:href="#DejaVuSans-65" x="745.023438"/>
      <use xlink:href="#DejaVuSans-3a" x="806.546875"/>
     </g>
    </g>
    <g id="patch_16">
     <path d="M 53.285156 402.233084 
L 73.285156 402.233084 
L 73.285156 395.233084 
L 53.285156 395.233084 
z
" style="fill: #1f77b4; fill-opacity: 0.5; stroke: #1f77b4; stroke-width: 2.5; stroke-linejoin: miter"/>
    </g>
    <g id="text_35">
     <!-- Codon -->
     <g transform="translate(81.285156 402.233084) scale(0.1 -0.1)">
      <use xlink:href="#DejaVuSans-43"/>
      <use xlink:href="#DejaVuSans-6f" x="69.824219"/>
      <use xlink:href="#DejaVuSans-64" x="131.005859"/>
      <use xlink:href="#DejaVuSans-6f" x="194.482422"/>
      <use xlink:href="#DejaVuSans-6e" x="255.664062"/>
     </g>
    </g>
    <g id="patch_17">
     <path d="M 53.285156 416.911209 
L 73.285156 416.911209 
L 73.285156 409.911209 
L 53.285156 409.911209 
z
" style="fill: #ff7f0e; fill-opacity: 0.5; stroke: #ff7f0e; stroke-width: 2.5; stroke-linejoin: miter"/>
    </g>
    <g id="text_36">
     <!-- Codon+GC -->
     <g transform="translate(81.285156 416.911209) scale(0.1 -0.1)">
      <use xlink:href="#DejaVuSans-43"/>
      <use xlink:href="#DejaVuSans-6f" x="69.824219"/>
      <use xlink:href="#DejaVuSans-64" x="131.005859"/>
      <use xlink:href="#DejaVuSans-6f" x="194.482422"/>
      <use xlink:href="#DejaVuSans-6e" x="255.664062"/>
      <use xlink:href="#DejaVuSans-2b" x="319.042969"/>
      <use xlink:href="#DejaVuSans-47" x="402.832031"/>
      <use xlink:href="#DejaVuSans-43" x="480.322266"/>
     </g>
    </g>
   </g>
  </g>
  <g id="text_37">
   <!-- Archaea - Density of correlation coefficients for genetic code: Ascidian mitochondrial -->
   <g transform="translate(130.409766 18.597656) scale(0.15 -0.15)">
    <defs>
     <path id="DejaVuSans-41" d="M 2188 4044 
L 1331 1722 
L 3047 1722 
L 2188 4044 
z
M 1831 4666 
L 2547 4666 
L 4325 0 
L 3669 0 
L 3244 1197 
L 1141 1197 
L 716 0 
L 50 0 
L 1831 4666 
z
" transform="scale(0.015625)"/>
     <path id="DejaVuSans-68" d="M 3513 2113 
L 3513 0 
L 2938 0 
L 2938 2094 
Q 2938 2591 2744 2837 
Q 2550 3084 2163 3084 
Q 1697 3084 1428 2787 
Q 1159 2491 1159 1978 
L 1159 0 
L 581 0 
L 581 4863 
L 1159 4863 
L 1159 2956 
Q 1366 3272 1645 3428 
Q 1925 3584 2291 3584 
Q 2894 3584 3203 3211 
Q 3513 2838 3513 2113 
z
" transform="scale(0.015625)"/>
     <path id="DejaVuSans-2d" d="M 313 2009 
L 1997 2009 
L 1997 1497 
L 313 1497 
L 313 2009 
z
" transform="scale(0.015625)"/>
     <path id="DejaVuSans-67" d="M 2906 1791 
Q 2906 2416 2648 2759 
Q 2391 3103 1925 3103 
Q 1463 3103 1205 2759 
Q 947 2416 947 1791 
Q 947 1169 1205 825 
Q 1463 481 1925 481 
Q 2391 481 2648 825 
Q 2906 1169 2906 1791 
z
M 3481 434 
Q 3481 -459 3084 -895 
Q 2688 -1331 1869 -1331 
Q 1566 -1331 1297 -1286 
Q 1028 -1241 775 -1147 
L 775 -588 
Q 1028 -725 1275 -790 
Q 1522 -856 1778 -856 
Q 2344 -856 2625 -561 
Q 2906 -266 2906 331 
L 2906 616 
Q 2728 306 2450 153 
Q 2172 0 1784 0 
Q 1141 0 747 490 
Q 353 981 353 1791 
Q 353 2603 747 3093 
Q 1141 3584 1784 3584 
Q 2172 3584 2450 3431 
Q 2728 3278 2906 2969 
L 2906 3500 
L 3481 3500 
L 3481 434 
z
" transform="scale(0.015625)"/>
    </defs>
    <use xlink:href="#DejaVuSans-41"/>
    <use xlink:href="#DejaVuSans-72" x="68.408203"/>
    <use xlink:href="#DejaVuSans-63" x="107.271484"/>
    <use xlink:href="#DejaVuSans-68" x="162.251953"/>
    <use xlink:href="#DejaVuSans-61" x="225.630859"/>
    <use xlink:href="#DejaVuSans-65" x="286.910156"/>
    <use xlink:href="#DejaVuSans-61" x="348.433594"/>
    <use xlink:href="#DejaVuSans-20" x="409.712891"/>
    <use xlink:href="#DejaVuSans-2d" x="441.5"/>
    <use xlink:href="#DejaVuSans-20" x="477.583984"/>
    <use xlink:href="#DejaVuSans-44" x="509.371094"/>
    <use xlink:href="#DejaVuSans-65" x="586.373047"/>
    <use xlink:href="#DejaVuSans-6e" x="647.896484"/>
    <use xlink:href="#DejaVuSans-73" x="711.275391"/>
    <use xlink:href="#DejaVuSans-69" x="763.375"/>
    <use xlink:href="#DejaVuSans-74" x="791.158203"/>
    <use xlink:href="#DejaVuSans-79" x="830.367188"/>
    <use xlink:href="#DejaVuSans-20" x="889.546875"/>
    <use xlink:href="#DejaVuSans-6f" x="921.333984"/>
    <use xlink:href="#DejaVuSans-66" x="982.515625"/>
    <use xlink:href="#DejaVuSans-20" x="1017.720703"/>
    <use xlink:href="#DejaVuSans-63" x="1049.507812"/>
    <use xlink:href="#DejaVuSans-6f" x="1104.488281"/>
    <use xlink:href="#DejaVuSans-72" x="1165.669922"/>
    <use xlink:href="#DejaVuSans-72" x="1205.033203"/>
    <use xlink:href="#DejaVuSans-65" x="1243.896484"/>
    <use xlink:href="#DejaVuSans-6c" x="1305.419922"/>
    <use xlink:href="#DejaVuSans-61" x="1333.203125"/>
    <use xlink:href="#DejaVuSans-74" x="1394.482422"/>
    <use xlink:href="#DejaVuSans-69" x="1433.691406"/>
    <use xlink:href="#DejaVuSans-6f" x="1461.474609"/>
    <use xlink:href="#DejaVuSans-6e" x="1522.65625"/>
    <use xlink:href="#DejaVuSans-20" x="1586.035156"/>
    <use xlink:href="#DejaVuSans-63" x="1617.822266"/>
    <use xlink:href="#DejaVuSans-6f" x="1672.802734"/>
    <use xlink:href="#DejaVuSans-65" x="1733.984375"/>
    <use xlink:href="#DejaVuSans-66" x="1795.507812"/>
    <use xlink:href="#DejaVuSans-66" x="1830.712891"/>
    <use xlink:href="#DejaVuSans-69" x="1865.917969"/>
    <use xlink:href="#DejaVuSans-63" x="1893.701172"/>
    <use xlink:href="#DejaVuSans-69" x="1948.681641"/>
    <use xlink:href="#DejaVuSans-65" x="1976.464844"/>
    <use xlink:href="#DejaVuSans-6e" x="2037.988281"/>
    <use xlink:href="#DejaVuSans-74" x="2101.367188"/>
    <use xlink:href="#DejaVuSans-73" x="2140.576172"/>
    <use xlink:href="#DejaVuSans-20" x="2192.675781"/>
    <use xlink:href="#DejaVuSans-66" x="2224.462891"/>
    <use xlink:href="#DejaVuSans-6f" x="2259.667969"/>
    <use xlink:href="#DejaVuSans-72" x="2320.849609"/>
    <use xlink:href="#DejaVuSans-20" x="2361.962891"/>
    <use xlink:href="#DejaVuSans-67" x="2393.75"/>
    <use xlink:href="#DejaVuSans-65" x="2457.226562"/>
    <use xlink:href="#DejaVuSans-6e" x="2518.75"/>
    <use xlink:href="#DejaVuSans-65" x="2582.128906"/>
    <use xlink:href="#DejaVuSans-74" x="2643.652344"/>
    <use xlink:href="#DejaVuSans-69" x="2682.861328"/>
    <use xlink:href="#DejaVuSans-63" x="2710.644531"/>
    <use xlink:href="#DejaVuSans-20" x="2765.625"/>
    <use xlink:href="#DejaVuSans-63" x="2797.412109"/>
    <use xlink:href="#DejaVuSans-6f" x="2852.392578"/>
    <use xlink:href="#DejaVuSans-64" x="2913.574219"/>
    <use xlink:href="#DejaVuSans-65" x="2977.050781"/>
    <use xlink:href="#DejaVuSans-3a" x="3038.574219"/>
    <use xlink:href="#DejaVuSans-20" x="3072.265625"/>
    <use xlink:href="#DejaVuSans-41" x="3104.052734"/>
    <use xlink:href="#DejaVuSans-73" x="3172.460938"/>
    <use xlink:href="#DejaVuSans-63" x="3224.560547"/>
    <use xlink:href="#DejaVuSans-69" x="3279.541016"/>
    <use xlink:href="#DejaVuSans-64" x="3307.324219"/>
    <use xlink:href="#DejaVuSans-69" x="3370.800781"/>
    <use xlink:href="#DejaVuSans-61" x="3398.583984"/>
    <use xlink:href="#DejaVuSans-6e" x="3459.863281"/>
    <use xlink:href="#DejaVuSans-20" x="3523.242188"/>
    <use xlink:href="#DejaVuSans-6d" x="3555.029297"/>
    <use xlink:href="#DejaVuSans-69" x="3652.441406"/>
    <use xlink:href="#DejaVuSans-74" x="3680.224609"/>
    <use xlink:href="#DejaVuSans-6f" x="3719.433594"/>
    <use xlink:href="#DejaVuSans-63" x="3780.615234"/>
    <use xlink:href="#DejaVuSans-68" x="3835.595703"/>
    <use xlink:href="#DejaVuSans-6f" x="3898.974609"/>
    <use xlink:href="#DejaVuSans-6e" x="3960.15625"/>
    <use xlink:href="#DejaVuSans-64" x="4023.535156"/>
    <use xlink:href="#DejaVuSans-72" x="4087.011719"/>
    <use xlink:href="#DejaVuSans-69" x="4128.125"/>
    <use xlink:href="#DejaVuSans-61" x="4155.908203"/>
    <use xlink:href="#DejaVuSans-6c" x="4217.1875"/>
   </g>
  </g>
 </g>
 <defs>
  <clipPath id="pee50210a8e">
   <rect x="43.78125" y="57.6" width="837" height="241.043478"/>
  </clipPath>
  <clipPath id="p68da4cda39">
   <rect x="43.78125" y="370.956522" width="837" height="241.043478"/>
  </clipPath>
 </defs>
</svg>
